,note_name,start_time,duration,velocity,tempo
0,C4,4.5,1.25,35,165.83
1,C2,4.5,1.25,27,165.83
2,G#3,5.75,0.25,31,165.83
3,G#1,5.75,0.25,25,165.83
4,F3,6.0,4.5,28,165.83
5,F1,6.0,4.5,22,165.83
6,G#3,10.5,1.25,35,165.83
7,G#1,10.5,1.25,27,165.83
8,C4,11.75,0.25,30,165.83
9,C2,11.75,0.25,24,165.83
10,F4,12.0,1.5,35,165.83
11,F2,12.0,1.5,27,165.83
12,G#4,13.5,1.25,35,165.83
13,G#2,13.5,1.25,27,165.83
14,C5,14.75,0.25,30,165.83
15,C3,14.75,0.25,24,165.83
16,F5,15.0,1.479,35,165.83
17,F3,15.0,1.479,27,165.83
18,F4,16.5,1.5,33,165.83
19,G#3,16.5,1.5,26,165.83
20,C5,18.0,2.5,35,165.83
21,G3,18.0,3.0,26,165.83
22,C4,18.0,3.0,26,165.83
23,E3,18.0,3.0,26,165.83
24,D5,20.5,0.375,33,165.83
25,C5,20.875,0.125,31,165.83
26,D5,21.0,0.167,32,165.83
27,F3,21.0,3.0,26,165.83
28,B3,21.0,3.0,26,165.83
29,G#3,21.0,3.0,26,165.83
30,E5,21.167,0.167,28,165.83
31,D5,21.333,0.167,32,165.83
32,E5,21.5,0.167,28,165.83
33,D5,21.667,0.167,32,165.83
34,E5,21.833,0.167,29,165.83
35,D5,22.0,0.167,32,165.83
36,E5,22.167,0.167,28,165.83
37,D5,22.333,0.167,31,165.83
38,E5,22.5,0.167,29,165.83
39,D5,22.667,0.167,27,165.83
40,E5,22.833,0.167,32,165.83
41,D5,23.0,0.25,27,165.83
42,C5,23.25,0.25,28,165.83
43,E5,23.5,0.25,31,165.83
44,D5,23.75,0.25,28,165.83
45,C5,24.0,1.0,35,165.83
46,G3,24.0,1.0,22,165.83
47,E3,24.0,1.0,22,165.83
48,C4,24.0,1.0,22,165.83
49,C#4,28.5,1.25,35,165.83
50,C#2,28.5,1.25,27,165.83
51,B-3,29.75,0.25,31,165.83
52,B-1,29.75,0.25,25,165.83
53,F#3,30.0,4.5,28,165.83
54,F#1,30.0,4.5,22,165.83
55,B-3,34.5,1.25,35,165.83
56,B-1,34.5,1.25,27,165.83
57,C#4,35.75,0.25,30,165.83
58,C#2,35.75,0.25,24,165.83
59,F#4,36.0,1.5,35,165.83
60,F#2,36.0,1.5,27,165.83
61,B-4,37.5,1.25,35,165.83
62,B-2,37.5,1.25,27,165.83
63,C#5,38.75,0.25,30,165.83
64,C#3,38.75,0.25,24,165.83
65,F#5,39.0,1.5,34,165.83
66,F#3,39.0,1.5,29,165.83
67,F#4,40.5,1.5,33,165.83
68,B-3,40.5,1.5,26,165.83
69,C#5,42.0,2.5,35,165.83
70,F3,42.0,3.0,26,165.83
71,C#4,42.0,3.0,26,165.83
72,G#3,42.0,3.0,26,165.83
73,E-5,44.5,0.375,32,165.83
74,C#5,44.875,0.125,31,165.83
75,E-5,45.0,0.167,30,165.83
76,A3,45.0,3.0,26,165.83
77,C4,45.0,3.0,26,165.83
78,F#3,45.0,3.0,26,165.83
79,F5,45.167,0.167,27,165.83
80,E-5,45.333,0.167,30,165.83
81,F5,45.5,0.167,27,165.83
82,E-5,45.667,0.167,30,165.83
83,F5,45.833,0.167,27,165.83
84,E-5,46.0,0.167,29,165.83
85,F5,46.167,0.167,27,165.83
86,E-5,46.333,0.167,29,165.83
87,F5,46.5,0.167,28,165.83
88,E-5,46.667,0.167,30,165.83
89,F5,46.833,0.167,28,165.83
90,E-5,47.0,0.25,26,165.83
91,C#5,47.25,0.25,28,165.83
92,F5,47.5,0.25,31,165.83
93,E-5,47.75,0.25,29,165.83
94,C#5,48.0,1.0,35,165.83
95,F3,48.0,1.0,22,165.83
96,G#3,48.0,1.0,22,165.83
97,C#4,48.0,1.0,22,165.83
98,C5,54.0,2.5,35,165.83
99,G4,54.0,3.0,26,165.83
100,E4,54.0,3.0,26,165.83
101,D5,56.5,0.375,42,165.83
102,C5,56.875,0.125,38,165.83
103,D5,57.0,0.167,43,165.83
104,G#4,57.0,3.0,26,165.83
105,B4,57.0,3.0,26,165.83
106,F4,57.0,3.0,26,165.83
107,E5,57.167,0.167,35,165.83
108,D5,57.333,0.167,40,165.83
109,E5,57.5,0.167,36,165.83
110,D5,57.667,0.167,39,165.83
111,E5,57.833,0.167,36,165.83
112,D5,58.0,0.167,41,165.83
113,E5,58.167,0.167,37,165.83
114,D5,58.333,0.167,40,165.83
115,E5,58.5,0.167,35,165.83
116,D5,58.667,0.167,31,165.83
117,E5,58.833,0.167,37,165.83
118,D5,59.0,0.25,33,165.83
119,C5,59.25,0.25,33,165.83
120,E5,59.5,0.25,37,165.83
121,D5,59.75,0.25,33,165.83
122,C5,60.0,1.0,35,165.83
123,E4,60.0,1.0,24,165.83
124,G4,60.0,1.0,24,165.83
125,C#2,61.5,0.25,27,165.83
126,C#2,62.0,0.25,26,165.83
127,C#2,62.5,0.25,26,165.83
128,C2,63.0,0.5,26,165.83
129,E5,66.0,2.5,35,165.83
130,G4,66.0,3.0,26,165.83
131,C#5,66.0,3.0,26,165.83
132,B-4,66.0,3.0,26,165.83
133,F5,68.5,0.5,38,165.83
134,F5,69.0,0.167,39,165.83
135,B-4,69.0,3.0,26,165.83
136,C#5,69.0,3.0,26,165.83
137,G#4,69.0,3.0,26,165.83
138,G5,69.167,0.167,34,165.83
139,F5,69.333,0.167,39,165.83
140,G5,69.5,0.167,35,165.83
141,F5,69.667,0.167,39,165.83
142,G5,69.833,0.167,35,165.83
143,F5,70.0,0.167,39,165.83
144,G5,70.167,0.167,35,165.83
145,F5,70.333,0.167,39,165.83
146,G5,70.5,0.167,36,165.83
147,F5,70.667,0.167,33,165.83
148,G5,70.833,0.167,39,165.83
149,F5,71.0,0.25,33,165.83
150,E5,71.25,0.25,34,165.83
151,G5,71.5,0.25,40,165.83
152,F5,71.75,0.25,35,165.83
153,E5,72.0,1.0,35,165.83
154,G4,72.0,1.0,23,165.83
155,B-4,72.0,1.0,23,165.83
156,C#5,72.0,1.0,23,165.83
157,C#2,73.5,0.25,27,165.83
158,C#2,74.0,0.25,26,165.83
159,C#2,74.5,0.25,26,165.83
160,C2,75.0,0.5,26,165.83
161,E5,76.5,0.5,35,165.83
162,G5,76.5,0.5,35,165.83
163,G5,77.0,0.5,31,165.83
164,E5,77.0,0.5,31,165.83
165,E5,77.5,0.5,35,165.83
166,G5,77.5,0.5,35,165.83
167,G5,78.0,1.0,35,165.83
168,B-5,78.0,1.0,35,165.83
169,C#2,79.5,0.5,27,165.83
170,C#2,80.0,0.5,26,165.83
171,C#2,80.5,0.5,26,165.83
172,C2,81.0,1.0,26,165.83
173,B-5,82.5,0.5,83,165.83
174,G5,82.5,0.5,83,165.83
175,B-5,83.0,0.5,77,165.83
176,G5,83.0,0.5,77,165.83
177,G5,83.5,0.5,83,165.83
178,B-5,83.5,0.5,83,165.83
179,E6,84.0,0.25,85,165.83
180,B-5,84.25,0.25,76,165.83
181,G6,84.5,0.25,85,165.83
182,E6,84.75,0.25,75,165.83
183,B-6,85.0,0.25,85,165.83
184,G6,85.25,0.25,76,165.83
185,E6,85.5,0.25,85,165.83
186,G6,85.75,0.25,76,165.83
187,B-5,86.0,0.25,83,165.83
188,E6,86.25,0.25,75,165.83
189,G5,86.5,0.25,83,165.83
190,B-5,86.75,0.25,74,165.83
191,E5,87.0,0.25,81,165.83
192,G5,87.25,0.25,74,165.83
193,B-4,87.5,0.25,81,165.83
194,E5,87.75,0.25,71,165.83
195,G4,88.0,0.25,80,165.83
196,B-4,88.25,0.25,73,165.83
197,E4,88.5,0.25,80,165.83
198,G4,88.75,0.25,70,165.83
199,B-3,89.0,0.25,79,165.83
200,E4,89.25,0.25,71,165.83
201,G3,89.5,0.25,75,165.83
202,B-3,89.75,0.25,63,165.83
203,E3,90.0,0.25,75,165.83
204,G3,90.25,0.25,64,165.83
205,B-2,90.5,0.25,75,165.83
206,E3,90.75,0.25,60,165.83
207,G1,91.0,0.25,73,165.83
208,B-1,91.25,0.25,67,165.83
209,E2,91.5,0.25,77,165.83
210,G2,91.75,0.25,67,165.83
211,B-2,92.0,0.25,77,165.83
212,C#3,92.25,0.25,67,165.83
213,E3,92.5,0.25,82,165.83
214,G3,92.75,0.25,73,165.83
215,B-3,93.0,0.5,89,165.83
216,F2,94.5,0.5,80,165.83
217,F1,94.5,0.5,80,165.83
218,G#3,94.5,0.5,80,165.83
219,C#4,94.5,0.5,80,165.83
220,C#3,94.5,0.5,80,165.83
221,E2,96.0,4.375,45,165.83
222,E3,96.0,4.375,45,165.83
223,C3,96.0,4.375,45,165.83
224,C4,96.0,4.375,45,165.83
225,G3,96.0,4.375,45,165.83
226,C4,100.5,1.25,35,165.83
227,C2,100.5,1.25,27,165.83
228,G#3,101.75,0.25,31,165.83
229,G#1,101.75,0.25,25,165.83
230,F3,102.0,0.5,103,165.83
231,F1,102.0,0.5,81,165.83
232,C4,102.5,0.99,84,165.83
233,F4,102.5,0.99,84,165.83
234,G#3,102.5,0.99,84,165.83
235,F3,102.5,0.99,84,165.83
236,G#1,103.0,0.99,68,165.83
237,F1,103.0,0.99,68,165.83
238,F2,103.0,0.99,68,165.83
239,C2,103.0,0.99,68,165.83
240,C4,103.5,0.99,80,165.83
241,G#3,103.5,0.99,80,165.83
242,F4,103.5,0.99,80,165.83
243,G#4,103.5,0.99,80,165.83
244,G#1,104.0,0.99,64,165.83
245,C2,104.0,0.99,64,165.83
246,F2,104.0,0.99,64,165.83
247,F1,104.0,0.99,64,165.83
248,C4,104.5,0.99,79,165.83
249,C5,104.5,0.99,79,165.83
250,F4,104.5,0.99,79,165.83
251,G#4,104.5,0.99,79,165.83
252,G#1,105.0,0.99,62,165.83
253,C2,105.0,0.99,62,165.83
254,F2,105.0,0.99,62,165.83
255,F1,105.0,0.99,62,165.83
256,C5,105.5,0.99,80,165.83
257,F5,105.5,0.99,80,165.83
258,F4,105.5,0.99,80,165.83
259,G#4,105.5,0.99,80,165.83
260,G#1,106.0,0.99,68,165.83
261,F1,106.0,0.99,68,165.83
262,F2,106.0,0.99,68,165.83
263,C2,106.0,0.99,68,165.83
264,F5,106.5,0.99,85,165.83
265,G#4,106.5,0.99,85,165.83
266,C5,106.5,0.99,85,165.83
267,G#5,106.5,0.99,85,165.83
268,G#1,107.0,0.99,62,165.83
269,C2,107.0,0.99,62,165.83
270,F2,107.0,0.99,62,165.83
271,F1,107.0,0.99,62,165.83
272,F5,107.5,0.496,80,165.83
273,C6,107.5,0.496,80,165.83
274,G#5,107.5,0.496,80,165.83
275,C5,107.5,0.496,80,165.83
276,F6,108.0,4.5,88,165.83
277,F5,108.0,4.5,88,165.83
278,C6,108.0,4.5,88,165.83
279,G#5,108.0,4.5,88,165.83
280,F1,108.0,4.5,68,165.83
281,C2,108.0,4.5,68,165.83
282,F2,108.0,4.5,68,165.83
283,G#1,108.0,4.5,68,165.83
284,G#3,112.5,1.25,41,165.83
285,G#1,112.5,1.25,33,165.83
286,C4,113.75,0.25,35,165.83
287,C2,113.75,0.25,28,165.83
288,F4,114.0,1.5,39,165.83
289,F2,114.0,1.5,33,165.83
290,G#4,115.5,1.25,41,165.83
291,G#2,115.5,1.25,33,165.83
292,C5,116.75,0.25,36,165.83
293,C3,116.75,0.25,28,165.83
294,F5,117.0,1.49,39,165.83
295,F3,117.0,1.49,33,165.83
296,F4,118.5,1.5,39,165.83
297,F2,118.5,1.5,30,165.83
298,C4,120.0,0.5,103,165.83
299,G3,120.0,0.5,81,165.83
300,E3,120.0,0.5,81,165.83
301,G3,120.5,0.99,75,165.83
302,C4,120.5,0.99,93,165.83
303,E4,120.5,0.99,93,165.83
304,G2,121.0,0.99,70,165.83
305,C3,121.0,0.99,70,165.83
306,E2,121.0,0.99,70,165.83
307,E4,121.5,0.99,83,165.83
308,G4,121.5,0.99,83,165.83
309,C4,121.5,0.99,83,165.83
310,E2,122.0,0.99,66,165.83
311,C3,122.0,0.99,66,165.83
312,G2,122.0,0.99,66,165.83
313,C5,122.5,0.99,82,165.83
314,E4,122.5,0.99,82,165.83
315,G4,122.5,0.99,82,165.83
316,G2,123.0,0.99,64,165.83
317,E2,123.0,0.99,64,165.83
318,C3,123.0,0.99,64,165.83
319,E5,123.5,0.99,82,165.83
320,G4,123.5,0.99,82,165.83
321,C5,123.5,0.99,82,165.83
322,E2,124.0,0.99,70,165.83
323,C3,124.0,0.99,70,165.83
324,G2,124.0,0.99,70,165.83
325,G5,124.5,0.99,88,165.83
326,C5,124.5,0.99,88,165.83
327,E5,124.5,0.99,88,165.83
328,G2,125.0,0.99,64,165.83
329,C3,125.0,0.99,64,165.83
330,E2,125.0,0.99,64,165.83
331,C6,125.5,0.496,83,165.83
332,E5,125.5,0.496,83,165.83
333,G5,125.5,0.496,83,165.83
334,C5,126.0,2.5,41,165.83
335,G4,126.0,3.0,30,165.83
336,E4,126.0,3.0,30,165.83
337,D5,128.5,0.5,45,165.83
338,D5,129.0,0.167,39,165.83
339,G#4,129.0,3.0,30,165.83
340,B4,129.0,3.0,30,165.83
341,F4,129.0,3.0,30,165.83
342,E5,129.167,0.25,35,165.83
343,D5,129.333,0.167,39,165.83
344,E5,129.5,0.167,36,165.83
345,D5,129.667,0.167,38,165.83
346,E5,129.833,0.167,36,165.83
347,D5,130.0,0.167,38,165.83
348,E5,130.167,0.167,36,165.83
349,D5,130.333,0.167,39,165.83
350,E5,130.5,0.167,37,165.83
351,D5,130.667,0.167,35,165.83
352,E5,130.833,0.167,39,165.83
353,D5,131.0,0.25,35,165.83
354,C5,131.25,0.25,36,165.83
355,E5,131.5,0.25,41,165.83
356,D5,131.75,0.25,38,165.83
357,C4,132.0,0.496,103,165.83
358,G3,132.0,0.496,81,165.83
359,E3,132.0,0.496,81,165.83
360,G3,132.5,0.99,75,165.83
361,C4,132.5,0.99,93,165.83
362,E4,132.5,0.99,93,165.83
363,G2,133.0,0.99,70,165.83
364,C3,133.0,0.99,70,165.83
365,E2,133.0,0.99,70,165.83
366,C4,133.5,0.99,83,165.83
367,E4,133.5,0.99,83,165.83
368,G4,133.5,0.99,83,165.83
369,E2,134.0,0.99,66,165.83
370,C3,134.0,0.99,66,165.83
371,G2,134.0,0.99,66,165.83
372,E4,134.5,0.99,82,165.83
373,G4,134.5,0.99,82,165.83
374,C5,134.5,0.99,82,165.83
375,G2,135.0,0.99,64,165.83
376,E2,135.0,0.99,64,165.83
377,C3,135.0,0.99,64,165.83
378,G4,135.5,0.99,82,165.83
379,C5,135.5,0.99,82,165.83
380,E5,135.5,0.99,82,165.83
381,E2,136.0,0.99,70,165.83
382,C3,136.0,0.99,70,165.83
383,G2,136.0,0.99,70,165.83
384,C5,136.5,0.99,88,165.83
385,E5,136.5,0.99,88,165.83
386,G5,136.5,0.99,88,165.83
387,G2,137.0,0.99,64,165.83
388,C3,137.0,0.99,64,165.83
389,E2,137.0,0.99,64,165.83
390,E5,137.5,0.496,83,165.83
391,C6,137.5,0.496,83,165.83
392,G5,137.5,0.496,83,165.83
393,C5,138.0,2.5,48,165.83
394,G4,138.0,3.0,36,165.83
395,E4,138.0,3.0,36,165.83
396,C#5,140.5,0.375,52,165.83
397,C5,140.875,0.125,48,165.83
398,C#5,141.0,0.167,46,165.83
399,G4,141.0,3.5,36,165.83
400,E-4,141.0,3.5,36,165.83
401,E-5,141.167,0.167,41,165.83
402,C#5,141.333,0.167,46,165.83
403,E-5,141.5,0.167,41,165.83
404,C#5,141.667,0.167,44,165.83
405,E-5,141.833,0.167,41,165.83
406,C#5,142.0,0.167,46,165.83
407,E-5,142.167,0.167,42,165.83
408,C#5,142.333,0.167,46,165.83
409,E-5,142.5,0.25,43,165.83
410,C#5,142.75,0.25,40,165.83
411,E-5,143.0,0.25,46,165.83
412,C#5,143.25,0.25,42,165.83
413,C5,143.5,0.25,48,165.83
414,C#5,143.75,0.25,44,165.83
415,G5,144.0,1.5,58,165.83
416,B-5,144.0,1.5,58,165.83
417,E-5,144.5,0.458,36,165.83
418,E-5,145.0,0.458,36,165.83
419,E-5,145.5,0.458,39,165.83
420,E-5,146.0,0.458,37,165.83
421,E-5,146.5,0.458,36,165.83
422,E-5,147.0,0.458,39,165.83
423,E-5,147.5,0.458,35,165.83
424,E-5,148.0,0.458,35,165.83
425,E-5,148.5,0.458,39,165.83
426,E-5,149.0,0.458,36,165.83
427,E-5,149.5,0.458,36,165.83
428,B5,150.0,1.5,56,165.83
429,G#5,150.0,1.5,56,165.83
430,E-5,150.5,0.458,38,165.83
431,E-5,151.0,0.458,38,165.83
432,B4,151.5,0.5,39,165.83
433,G#4,151.5,0.5,39,165.83
434,E-5,152.0,0.458,37,165.83
435,E-5,152.5,0.458,37,165.83
436,E-5,153.0,0.458,41,165.83
437,E-5,153.5,0.458,37,165.83
438,E-5,154.0,0.458,38,165.83
439,E-5,154.5,0.458,46,165.83
440,E-5,155.0,0.458,40,165.83
441,E-5,155.5,0.458,40,165.83
442,E6,156.0,6.0,75,165.83
443,G#5,156.0,6.0,75,165.83
444,B5,156.0,6.0,75,165.83
445,E-5,156.5,0.458,38,165.83
446,E-5,157.0,0.458,38,165.83
447,G#4,157.5,0.5,40,165.83
448,B4,157.5,0.5,40,165.83
449,E-5,158.0,0.458,37,165.83
450,E-5,158.5,0.458,37,165.83
451,G#4,159.0,0.5,37,165.83
452,B4,159.0,0.5,37,165.83
453,E-5,159.5,0.458,37,165.83
454,E-5,160.0,0.458,37,165.83
455,G#4,160.5,0.5,37,165.83
456,B4,160.5,0.5,37,165.83
457,E-5,161.0,0.458,37,165.83
458,E-5,161.5,0.458,37,165.83
459,B-5,162.0,1.0,52,165.83
460,E-6,162.0,1.0,52,165.83
461,G5,162.0,1.0,52,165.83
462,G4,162.0,0.5,39,165.83
463,B-4,162.0,0.5,39,165.83
464,E-4,162.5,0.458,37,165.83
465,E-4,163.0,0.458,37,165.83
466,E-4,163.5,0.458,38,165.83
467,E-4,164.0,0.458,37,165.83
468,E-4,164.5,0.458,37,165.83
469,E-4,165.0,0.458,37,165.83
470,E-4,165.5,0.458,37,165.83
471,E-4,166.0,0.458,37,165.83
472,E-4,166.5,0.458,38,165.83
473,G5,166.5,1.25,56,165.83
474,B-5,166.5,1.25,56,165.83
475,E-4,167.0,0.458,37,165.83
476,E-4,167.5,0.458,37,165.83
477,B-5,167.75,0.25,52,165.83
478,G5,167.75,0.25,52,165.83
479,E-4,168.0,0.458,39,165.83
480,B5,168.0,1.0,58,165.83
481,G#5,168.0,1.0,58,165.83
482,E-4,168.5,0.458,37,165.83
483,E-4,169.0,0.458,37,165.83
484,G5,169.0,0.5,52,165.83
485,B-5,169.0,0.5,52,165.83
486,E-4,169.5,0.458,38,165.83
487,E-4,170.0,0.458,37,165.83
488,E-4,170.5,0.458,37,165.83
489,B-4,170.5,0.5,50,165.83
490,G4,170.5,0.5,50,165.83
491,E-4,171.0,0.458,38,165.83
492,E-4,171.5,0.458,39,165.83
493,E-4,172.0,0.458,37,165.83
494,B-3,172.0,0.5,49,165.83
495,G3,172.0,0.5,49,165.83
496,B-3,172.5,0.5,44,165.83
497,C#4,172.5,0.5,44,165.83
498,E-4,173.0,0.458,37,165.83
499,E-4,173.5,0.458,37,165.83
500,G5,173.75,0.25,58,165.83
501,B-5,173.75,0.25,58,165.83
502,E-4,174.0,0.458,39,165.83
503,C#6,174.0,1.0,61,165.83
504,B-5,174.0,1.0,61,165.83
505,E-4,174.5,0.458,37,165.83
506,E-4,175.0,0.458,37,165.83
507,B5,175.0,0.5,52,165.83
508,G#5,175.0,0.5,52,165.83
509,E-4,175.5,0.458,37,165.83
510,E-4,176.0,0.458,37,165.83
511,E-4,176.5,0.458,37,165.83
512,B4,176.5,0.5,49,165.83
513,G#4,176.5,0.5,49,165.83
514,E-4,177.0,0.458,38,165.83
515,E-4,177.5,0.458,37,165.83
516,E-4,178.0,0.458,37,165.83
517,B3,178.0,0.49,47,165.83
518,G#3,178.0,0.49,47,165.83
519,B3,178.5,0.5,46,165.83
520,G#3,178.5,0.5,46,165.83
521,E-4,179.0,0.458,37,165.83
522,E-4,179.5,0.458,37,165.83
523,G#5,179.75,0.25,52,165.83
524,B5,179.75,0.25,52,165.83
525,G#5,180.0,6.0,75,165.83
526,E6,180.0,6.0,75,165.83
527,B5,180.0,6.0,75,165.83
528,E-4,180.5,0.458,38,165.83
529,E-4,181.0,0.458,38,165.83
530,G#3,181.5,0.5,40,165.83
531,B3,181.5,0.5,40,165.83
532,E-4,182.0,0.458,37,165.83
533,E-4,182.5,0.458,37,165.83
534,B3,183.0,0.5,37,165.83
535,G#3,183.0,0.5,37,165.83
536,E-4,183.5,0.458,37,165.83
537,E-4,184.0,0.458,37,165.83
538,B3,184.5,0.5,36,165.83
539,G#3,184.5,0.5,36,165.83
540,E-4,185.0,0.458,37,165.83
541,E-4,185.5,0.458,37,165.83
542,G5,186.0,1.0,61,165.83
543,E-6,186.0,1.0,61,165.83
544,B-5,186.0,1.0,61,165.83
545,E-4,186.5,0.458,38,165.83
546,E-4,187.0,0.458,38,165.83
547,B-3,187.5,0.5,40,165.83
548,G3,187.5,0.5,40,165.83
549,E-4,188.0,0.458,37,165.83
550,E-4,188.5,0.458,37,165.83
551,E-5,189.0,3.0,52,165.83
552,F#4,189.0,3.0,52,165.83
553,A4,189.0,3.0,52,165.83
554,E-4,189.5,0.458,37,165.83
555,E-4,190.0,0.458,37,165.83
556,F#3,190.5,0.5,36,165.83
557,A3,190.5,0.5,36,165.83
558,E-4,191.0,0.458,37,165.83
559,E-4,191.5,0.458,37,165.83
560,D5,192.0,1.0,52,165.83
561,F4,192.0,1.0,52,165.83
562,G#4,192.0,1.0,52,165.83
563,E-4,192.5,0.458,37,165.83
564,E-4,193.0,0.458,36,165.83
565,G#3,193.5,0.5,38,165.83
566,F3,193.5,0.5,38,165.83
567,E-4,194.0,0.458,34,165.83
568,E-4,194.5,0.458,34,165.83
569,C#5,195.0,1.0,46,165.83
570,E4,195.0,1.0,46,165.83
571,G4,195.0,1.0,46,165.83
572,E-4,195.5,0.458,32,165.83
573,E-4,196.0,0.458,32,165.83
574,E3,196.5,0.5,30,165.83
575,G3,196.5,0.5,30,165.83
576,E-4,197.0,0.458,31,165.83
577,E-4,197.5,0.458,30,165.83
578,C#5,198.0,1.5,41,165.83
579,E-4,198.0,1.5,41,165.83
580,G4,198.0,1.5,41,165.83
581,E-3,198.5,0.458,25,165.83
582,E-3,199.0,0.458,26,165.83
583,E-3,199.5,0.458,28,165.83
584,E-3,200.0,0.458,26,165.83
585,E-3,200.5,0.458,26,165.83
586,E-3,201.0,0.458,28,165.83
587,E-3,201.5,0.458,26,165.83
588,E-3,202.0,0.458,26,165.83
589,E-3,202.5,0.458,28,165.83
590,E-3,203.0,0.458,26,165.83
591,E-3,203.5,0.458,27,165.83
592,B-3,204.0,1.5,41,165.83
593,C#4,204.0,1.5,41,165.83
594,G3,204.0,1.5,41,165.83
595,E-2,204.5,0.458,25,165.83
596,E-2,205.0,0.458,26,165.83
597,E-2,205.5,0.458,28,165.83
598,E-2,206.0,0.458,26,165.83
599,E-2,206.5,0.458,26,165.83
600,E-2,207.0,0.458,28,165.83
601,E-2,207.5,0.458,26,165.83
602,E-2,208.0,0.458,26,165.83
603,E-2,208.5,0.458,28,165.83
604,E-2,209.0,0.458,26,165.83
605,E-2,209.5,0.458,27,165.83
606,G#1,210.0,0.5,28,165.83
607,G#2,210.5,0.5,22,165.83
608,C2,210.5,0.5,22,165.83
609,E-2,210.5,0.5,22,165.83
610,G#1,211.0,0.5,26,165.83
611,G#2,211.5,0.5,24,165.83
612,C2,211.5,0.5,24,165.83
613,E-2,211.5,0.5,24,165.83
614,G#1,212.0,0.5,26,165.83
615,G#2,212.5,0.5,22,165.83
616,C2,212.5,0.5,22,165.83
617,E-2,212.5,0.5,22,165.83
618,G#1,213.0,0.5,28,165.83
619,G#2,213.5,0.5,22,165.83
620,E-2,213.5,0.5,22,165.83
621,C2,213.5,0.5,22,165.83
622,G#1,214.0,0.5,26,165.83
623,C4,214.5,1.25,44,165.83
624,C3,214.5,1.25,40,165.83
625,C2,214.5,0.5,24,165.83
626,G#2,214.5,0.5,24,165.83
627,E-2,214.5,0.5,24,165.83
628,G#1,215.0,0.5,26,165.83
629,C2,215.5,0.5,23,165.83
630,E-2,215.5,0.5,23,165.83
631,G#2,215.5,0.5,23,165.83
632,E-4,215.75,0.25,40,165.83
633,E-3,215.75,0.25,37,165.83
634,G#1,216.0,0.5,28,165.83
635,G#3,216.0,1.5,40,165.83
636,G#4,216.0,1.5,40,165.83
637,G#2,216.5,0.5,22,165.83
638,C2,216.5,0.5,22,165.83
639,E-2,216.5,0.5,22,165.83
640,G#1,217.0,0.5,26,165.83
641,C5,217.5,1.25,42,165.83
642,C4,217.5,1.25,42,165.83
643,G#2,217.5,0.5,24,165.83
644,C2,217.5,0.5,24,165.83
645,E-2,217.5,0.5,24,165.83
646,G#1,218.0,0.5,26,165.83
647,C2,218.5,0.5,22,165.83
648,E-2,218.5,0.5,22,165.83
649,G#2,218.5,0.5,22,165.83
650,G#3,218.75,0.25,38,165.83
651,G#4,218.75,0.25,38,165.83
652,B-1,219.0,0.5,28,165.83
653,G4,219.0,1.5,40,165.83
654,G3,219.0,1.5,40,165.83
655,B-2,219.5,0.5,22,165.83
656,E-2,219.5,0.5,22,165.83
657,C#2,219.5,0.5,22,165.83
658,B-1,220.0,0.5,26,165.83
659,B-3,220.5,1.25,42,165.83
660,B-4,220.5,1.25,42,165.83
661,E-2,220.5,0.5,24,165.83
662,B-2,220.5,0.5,24,165.83
663,C#2,220.5,0.5,24,165.83
664,B-1,221.0,0.5,26,165.83
665,C#2,221.5,0.5,23,165.83
666,B-2,221.5,0.5,23,165.83
667,E-2,221.5,0.5,23,165.83
668,G3,221.75,0.25,38,165.83
669,G4,221.75,0.25,38,165.83
670,C2,222.0,0.5,28,165.83
671,G#4,222.0,1.5,40,165.83
672,G#3,222.0,1.5,40,165.83
673,E-2,222.5,0.5,22,165.83
674,G#2,222.5,0.5,22,165.83
675,C3,222.5,0.5,22,165.83
676,C2,223.0,0.5,26,165.83
677,E-4,223.5,3.0,40,165.83
678,E-3,223.5,3.0,40,165.83
679,E-2,223.5,0.5,24,165.83
680,G#2,223.5,0.5,24,165.83
681,C3,223.5,0.5,24,165.83
682,C2,224.0,0.5,26,165.83
683,G#2,224.5,0.5,22,165.83
684,C3,224.5,0.5,22,165.83
685,E-2,224.5,0.5,22,165.83
686,C2,225.0,0.5,28,165.83
687,E-2,225.5,0.5,22,165.83
688,G#2,225.5,0.5,22,165.83
689,C3,225.5,0.5,22,165.83
690,C2,226.0,0.5,26,165.83
691,F4,226.5,1.25,44,165.83
692,F3,226.5,1.25,40,165.83
693,G#2,226.5,0.5,28,165.83
694,C#2,227.0,0.5,26,165.83
695,G#2,227.5,0.5,27,165.83
696,C#4,227.75,0.25,40,165.83
697,C#3,227.75,0.25,37,165.83
698,C4,228.0,1.5,44,165.83
699,C3,228.0,1.5,40,165.83
700,E-2,228.0,0.5,28,165.83
701,G#2,228.5,0.5,25,165.83
702,E-2,229.0,0.5,26,165.83
703,E-4,229.5,1.25,44,165.83
704,G#2,229.5,0.5,28,165.83
705,E-3,229.5,1.25,40,165.83
706,E-2,230.0,0.5,25,165.83
707,G#2,230.5,0.5,25,165.83
708,C4,230.75,0.25,39,165.83
709,C3,230.75,0.25,36,165.83
710,B-3,231.0,1.5,44,165.83
711,B-2,231.0,1.5,40,165.83
712,E-2,231.0,0.5,28,165.83
713,G2,231.5,0.5,25,165.83
714,E-2,232.0,0.5,25,165.83
715,E-4,232.5,1.25,44,165.83
716,E-3,232.5,1.25,40,165.83
717,G2,232.5,0.5,28,165.83
718,E-2,233.0,0.5,25,165.83
719,G2,233.5,0.5,25,165.83
720,C#4,233.75,0.25,39,165.83
721,C#3,233.75,0.25,36,165.83
722,C4,234.0,1.5,42,165.83
723,G#2,234.0,0.5,28,165.83
724,G#3,234.5,0.5,22,165.83
725,C3,234.5,0.5,22,165.83
726,E-3,234.5,0.5,22,165.83
727,G#2,235.0,0.5,27,165.83
728,E-4,235.5,3.0,42,165.83
729,G#3,235.5,0.5,25,165.83
730,C3,235.5,0.5,25,165.83
731,E-3,235.5,0.5,25,165.83
732,G#2,236.0,0.5,28,165.83
733,G#3,236.5,0.5,24,165.83
734,C3,236.5,0.5,24,165.83
735,E-3,236.5,0.5,24,165.83
736,G#2,237.0,0.5,32,165.83
737,G#3,237.5,0.5,26,165.83
738,E-3,237.5,0.5,26,165.83
739,C3,237.5,0.5,26,165.83
740,G#2,238.0,0.5,31,165.83
741,C5,238.5,1.25,55,165.83
742,C4,238.5,1.25,51,165.83
743,C3,238.5,0.5,30,165.83
744,E-3,238.5,0.5,30,165.83
745,G#3,238.5,0.5,30,165.83
746,G#2,239.0,0.5,33,165.83
747,C3,239.5,0.5,29,165.83
748,E-3,239.5,0.5,29,165.83
749,G#3,239.5,0.5,29,165.83
750,E-5,239.75,0.25,53,165.83
751,E-4,239.75,0.25,49,165.83
752,G#2,240.0,0.5,37,165.83
753,G#5,240.0,1.5,54,165.83
754,G#4,240.0,1.5,54,165.83
755,G#3,240.5,0.5,29,165.83
756,E-3,240.5,0.5,29,165.83
757,C3,240.5,0.5,29,165.83
758,G#2,241.0,0.5,36,165.83
759,C5,241.5,1.25,60,165.83
760,C6,241.5,1.25,60,165.83
761,G#3,241.5,0.5,33,165.83
762,E-3,241.5,0.5,33,165.83
763,C3,241.5,0.5,33,165.83
764,G#2,242.0,0.5,37,165.83
765,C3,242.5,0.5,32,165.83
766,G#3,242.5,0.5,32,165.83
767,E-3,242.5,0.5,32,165.83
768,G#5,242.75,0.25,56,165.83
769,G#4,242.75,0.25,56,165.83
770,B-2,243.0,0.5,40,165.83
771,G4,243.0,1.5,59,165.83
772,G5,243.0,1.5,59,165.83
773,B-3,243.5,0.5,32,165.83
774,E-3,243.5,0.5,32,165.83
775,C#3,243.5,0.5,32,165.83
776,B-2,244.0,0.5,39,165.83
777,B-4,244.5,1.25,65,165.83
778,B-5,244.5,1.25,65,165.83
779,E-3,244.5,0.5,37,165.83
780,B-3,244.5,0.5,37,165.83
781,C#3,244.5,0.5,37,165.83
782,B-2,245.0,0.5,40,165.83
783,C#3,245.5,0.5,36,165.83
784,B-3,245.5,0.5,36,165.83
785,E-3,245.5,0.5,36,165.83
786,G5,245.75,0.25,60,165.83
787,G4,245.75,0.25,60,165.83
788,G#4,246.0,1.5,54,165.83
789,G#5,246.0,1.5,54,165.83
790,C4,246.0,6.0,32,165.83
791,E-3,246.0,6.0,32,165.83
792,C3,246.0,6.0,32,165.83
793,G#3,246.0,6.0,32,165.83
794,E-4,247.5,4.5,48,165.83
795,E-5,247.5,4.5,48,165.83
796,G#3,252.0,1.5,59,165.83
797,E5,252.0,1.5,78,165.83
798,E4,252.0,1.5,78,165.83
799,C#3,252.0,6.0,50,165.83
800,E3,252.0,6.0,50,165.83
801,A3,253.5,4.5,57,165.83
802,C#4,253.5,4.5,75,165.83
803,C#5,253.5,4.5,75,165.83
804,B4,258.0,4.5,58,165.83
805,G#3,258.0,6.0,33,165.83
806,E-3,258.0,6.0,33,165.83
807,B3,258.0,6.0,33,165.83
808,B-4,262.5,1.0,51,165.83
809,G#4,263.5,0.375,49,165.83
810,A4,263.875,0.125,38,165.83
811,B-4,264.0,0.25,44,165.83
812,G3,264.0,6.0,29,165.83
813,C#4,264.0,6.0,29,165.83
814,E-3,264.0,6.0,29,165.83
815,B4,264.25,0.25,38,165.83
816,B-4,264.5,0.25,46,165.83
817,B4,264.75,0.25,40,165.83
818,B-4,265.0,0.25,47,165.83
819,B4,265.25,0.25,40,165.83
820,B-4,265.5,0.25,48,165.83
821,B4,265.75,0.25,41,165.83
822,B-4,266.0,0.25,49,165.83
823,B4,266.25,0.25,42,165.83
824,B-4,266.5,0.25,50,165.83
825,B4,266.75,0.25,42,165.83
826,B-4,267.0,0.25,51,165.83
827,B4,267.25,0.25,44,165.83
828,B-4,267.5,0.25,51,165.83
829,B4,267.75,0.25,45,165.83
830,B-4,268.0,0.25,52,165.83
831,B4,268.25,0.25,46,165.83
832,B-4,268.5,0.25,53,165.83
833,B4,268.75,0.25,48,165.83
834,B-4,269.0,0.25,55,165.83
835,B4,269.25,0.25,48,165.83
836,B-4,269.5,0.25,56,165.83
837,B4,269.75,0.25,48,165.83
838,E5,270.0,0.25,46,165.83
839,E-5,270.25,0.25,39,165.83
840,E5,270.5,0.25,46,165.83
841,E-5,270.75,0.25,40,165.83
842,E5,271.0,0.25,48,165.83
843,E-5,271.25,0.25,41,165.83
844,E5,271.5,0.25,50,165.83
845,E-5,271.75,0.25,44,165.83
846,E5,272.0,0.25,51,165.83
847,E-5,272.25,0.25,45,165.83
848,E5,272.5,0.25,53,165.83
849,E-5,272.75,0.25,47,165.83
850,E5,273.0,0.25,56,165.83
851,E-5,273.25,0.25,48,165.83
852,E5,273.5,0.25,56,165.83
853,E-5,273.75,0.25,47,165.83
854,E5,274.0,0.25,56,165.83
855,E-5,274.25,0.25,48,165.83
856,E5,274.5,0.25,56,165.83
857,E-5,274.75,0.25,49,165.83
858,E5,275.0,0.25,56,165.83
859,E-5,275.25,0.25,49,165.83
860,D5,275.5,0.25,56,165.83
861,E-5,275.75,0.25,48,165.83
862,E6,276.0,0.25,55,165.83
863,E-6,276.25,0.25,46,165.83
864,E6,276.5,0.25,55,165.83
865,E-6,276.75,0.25,48,165.83
866,E6,277.0,0.25,57,165.83
867,E-6,277.25,0.25,50,165.83
868,E6,277.5,0.25,60,165.83
869,E-6,277.75,0.25,51,165.83
870,E6,278.0,0.25,62,165.83
871,E-6,278.25,0.25,52,165.83
872,E6,278.5,0.25,63,165.83
873,E-6,278.75,0.25,55,165.83
874,E6,279.0,0.25,67,165.83
875,E-6,279.25,0.25,56,165.83
876,E6,279.5,0.25,68,165.83
877,E-6,279.75,0.25,57,165.83
878,E6,280.0,0.25,67,165.83
879,E-6,280.25,0.25,56,165.83
880,E6,280.5,0.25,67,165.83
881,E-6,280.75,0.25,58,165.83
882,E6,281.0,0.25,67,165.83
883,E-6,281.25,0.25,58,165.83
884,D6,281.5,0.25,67,165.83
885,E-6,281.75,0.25,56,165.83
886,E6,282.0,0.5,64,165.83
887,E-6,282.5,0.5,55,165.83
888,C#6,283.0,0.5,48,165.83
889,B5,283.5,0.5,49,165.83
890,B-5,284.0,0.5,48,165.83
891,G#5,284.5,0.5,48,165.83
892,G5,285.0,0.5,49,165.83
893,F#5,285.5,0.5,47,165.83
894,E5,286.0,0.5,47,165.83
895,E-5,286.5,0.5,48,165.83
896,C#5,287.0,0.5,48,165.83
897,B4,287.5,0.5,45,165.83
898,B-4,288.0,0.5,48,165.83
899,G#4,288.5,0.5,44,165.83
900,G4,289.0,0.5,44,165.83
901,F#4,289.5,0.5,45,165.83
902,E4,290.0,0.5,45,165.83
903,E-4,290.5,0.5,45,165.83
904,C#4,291.0,0.5,45,165.83
905,B3,291.5,0.5,44,165.83
906,B-3,292.0,0.5,42,165.83
907,G#3,292.5,0.5,42,165.83
908,G3,293.0,0.5,41,165.83
909,F#3,293.5,0.5,39,165.83
910,E3,294.0,0.5,42,165.83
911,E-3,294.5,0.5,41,165.83
912,C#3,295.0,0.5,41,165.83
913,B2,295.5,0.5,40,165.83
914,B-2,296.0,0.5,39,165.83
915,G#2,296.5,0.5,39,165.83
916,G2,297.0,0.5,42,165.83
917,F#2,297.5,0.5,41,165.83
918,F2,298.0,0.5,41,165.83
919,E-2,298.5,0.5,41,165.83
920,C#2,299.0,0.5,41,165.83
921,B1,299.5,0.5,41,165.83
922,B-1,300.0,0.5,42,165.83
923,B1,300.5,0.5,42,165.83
924,C#2,301.0,0.5,42,165.83
925,E-2,301.5,0.5,42,165.83
926,E2,302.0,0.5,41,165.83
927,E-2,302.5,0.5,39,165.83
928,C#2,303.0,0.5,42,165.83
929,B1,303.5,0.5,40,165.83
930,B-1,304.0,0.5,40,165.83
931,E-2,304.5,0.5,45,165.83
932,C#2,305.0,0.5,42,165.83
933,E-2,305.5,0.5,40,165.83
934,G#3,306.0,0.25,83,165.83
935,G#1,306.0,0.25,64,165.83
936,E-3,306.25,0.25,66,165.83
937,E-2,306.25,0.25,52,165.83
938,B2,306.5,0.25,66,165.83
939,G#2,306.5,0.25,52,165.83
940,E-3,306.75,0.25,66,165.83
941,E-2,306.75,0.25,52,165.83
942,G#3,307.0,0.25,80,165.83
943,G#1,307.0,0.25,58,165.83
944,E-3,307.25,0.25,64,165.83
945,E-2,307.25,0.25,51,165.83
946,B3,307.5,0.25,84,165.83
947,G#1,307.5,0.25,68,165.83
948,E-3,307.75,0.25,66,165.83
949,E-2,307.75,0.25,52,165.83
950,B-3,308.0,0.25,83,165.83
951,G#1,308.0,0.25,64,165.83
952,E-3,308.25,0.25,66,165.83
953,E-2,308.25,0.25,52,165.83
954,G#3,308.5,0.25,81,165.83
955,G#1,308.5,0.25,62,165.83
956,E-3,308.75,0.25,66,165.83
957,E-2,308.75,0.25,52,165.83
958,G#3,309.0,0.25,83,165.83
959,G#1,309.0,0.25,64,165.83
960,E-3,309.25,0.25,63,165.83
961,E-2,309.25,0.25,52,165.83
962,B2,309.5,0.25,63,165.83
963,G#2,309.5,0.25,52,165.83
964,E-3,309.75,0.25,63,165.83
965,E-2,309.75,0.25,52,165.83
966,G#3,310.0,0.25,79,165.83
967,G#1,310.0,0.25,58,165.83
968,E-3,310.25,0.25,62,165.83
969,E-2,310.25,0.25,51,165.83
970,B3,310.5,0.25,83,165.83
971,G#1,310.5,0.25,68,165.83
972,E-3,310.75,0.25,63,165.83
973,E-2,310.75,0.25,52,165.83
974,B-3,311.0,0.25,80,165.83
975,G#1,311.0,0.25,64,165.83
976,E-3,311.25,0.25,66,165.83
977,E-2,311.25,0.25,52,165.83
978,G#3,311.5,0.25,80,165.83
979,G#1,311.5,0.25,62,165.83
980,E-3,311.75,0.25,64,165.83
981,E-2,311.75,0.25,52,165.83
982,E4,312.0,0.25,83,165.83
983,G#1,312.0,0.25,64,165.83
984,B3,312.25,0.25,66,165.83
985,E2,312.25,0.25,52,165.83
986,G#3,312.5,0.25,66,165.83
987,G#2,312.5,0.25,52,165.83
988,B3,312.75,0.25,66,165.83
989,E2,312.75,0.25,52,165.83
990,E4,313.0,0.25,80,165.83
991,G#1,313.0,0.25,58,165.83
992,B3,313.25,0.25,64,165.83
993,E2,313.25,0.25,51,165.83
994,G#4,313.5,0.25,84,165.83
995,G#1,313.5,0.25,68,165.83
996,B3,313.75,0.25,66,165.83
997,E2,313.75,0.25,52,165.83
998,F#4,314.0,0.25,83,165.83
999,G#1,314.0,0.25,64,165.83
1000,B3,314.25,0.25,66,165.83
1001,E2,314.25,0.25,52,165.83
1002,E4,314.5,0.25,81,165.83
1003,G#1,314.5,0.25,62,165.83
1004,B3,314.75,0.25,66,165.83
1005,E2,314.75,0.25,52,165.83
1006,E4,315.0,0.25,83,165.83
1007,G#1,315.0,0.25,64,165.83
1008,B3,315.25,0.25,63,165.83
1009,E2,315.25,0.25,52,165.83
1010,G#3,315.5,0.25,63,165.83
1011,G#2,315.5,0.25,52,165.83
1012,B3,315.75,0.25,63,165.83
1013,E2,315.75,0.25,52,165.83
1014,E4,316.0,0.25,80,165.83
1015,G#1,316.0,0.25,58,165.83
1016,B3,316.25,0.25,62,165.83
1017,E2,316.25,0.25,51,165.83
1018,G#4,316.5,0.25,83,165.83
1019,G#1,316.5,0.25,68,165.83
1020,B3,316.75,0.25,63,165.83
1021,E2,316.75,0.25,52,165.83
1022,F#4,317.0,0.25,80,165.83
1023,G#1,317.0,0.25,64,165.83
1024,B3,317.25,0.25,66,165.83
1025,E2,317.25,0.25,52,165.83
1026,E4,317.5,0.25,80,165.83
1027,G#1,317.5,0.25,62,165.83
1028,B3,317.75,0.25,64,165.83
1029,E2,317.75,0.25,52,165.83
1030,C#5,318.0,0.25,92,165.83
1031,A1,318.0,4.5,98,165.83
1032,A2,318.0,4.5,98,165.83
1033,E5,318.25,0.25,67,165.83
1034,C#5,318.5,0.25,77,165.83
1035,E5,318.75,0.25,67,165.83
1036,C#5,319.0,0.25,74,165.83
1037,E5,319.25,0.25,67,165.83
1038,C#5,319.5,0.25,73,165.83
1039,E5,319.75,0.25,67,165.83
1040,C#5,320.0,0.25,73,165.83
1041,E5,320.25,0.25,67,165.83
1042,C#5,320.5,0.25,73,165.83
1043,E5,320.75,0.25,67,165.83
1044,C#5,321.0,0.25,73,165.83
1045,E5,321.25,0.25,67,165.83
1046,C#5,321.5,0.25,73,165.83
1047,E5,321.75,0.25,67,165.83
1048,C#5,322.0,0.25,72,165.83
1049,E5,322.25,0.25,67,165.83
1050,C#5,322.5,0.25,95,165.83
1051,B-2,322.5,0.5,81,165.83
1052,B-1,322.5,0.5,81,165.83
1053,E5,322.75,0.25,78,165.83
1054,B-4,323.0,0.25,89,165.83
1055,C#2,323.0,0.5,72,165.83
1056,C#5,323.25,0.25,78,165.83
1057,G4,323.5,0.25,84,165.83
1058,E2,323.5,0.5,82,165.83
1059,B-4,323.75,0.25,77,165.83
1060,E4,324.0,0.25,82,165.83
1061,G2,324.0,0.5,95,165.83
1062,G4,324.25,0.25,70,165.83
1063,C#4,324.5,0.25,81,165.83
1064,B-2,324.5,0.5,82,165.83
1065,E4,324.75,0.25,71,165.83
1066,B-3,325.0,0.25,82,165.83
1067,C#3,325.0,0.5,82,165.83
1068,C#4,325.25,0.25,68,165.83
1069,G#3,325.5,0.25,81,165.83
1070,E3,325.5,0.479,85,165.83
1071,B-3,325.75,0.25,70,165.83
1072,C#4,326.0,0.25,80,165.83
1073,E3,326.0,0.479,83,165.83
1074,B-3,326.25,0.25,70,165.83
1075,G#3,326.5,0.25,80,165.83
1076,E3,326.5,0.479,83,165.83
1077,B-3,326.75,0.25,69,165.83
1078,E3,327.0,1.5,97,165.83
1079,G#3,327.25,0.25,70,165.83
1080,C#4,327.5,0.25,80,165.83
1081,B-3,327.75,0.25,69,165.83
1082,G#3,328.0,0.25,77,165.83
1083,C#4,328.25,0.25,70,165.83
1084,E-3,328.5,1.5,89,165.83
1085,G3,328.75,0.25,69,165.83
1086,C#4,329.0,0.25,80,165.83
1087,B-3,329.25,0.25,69,165.83
1088,G3,329.5,0.25,78,165.83
1089,C#4,329.75,0.25,69,165.83
1090,G#4,330.0,0.25,83,165.83
1091,G#2,330.0,0.25,64,165.83
1092,E-4,330.25,0.25,66,165.83
1093,E-3,330.25,0.25,52,165.83
1094,B3,330.5,0.25,66,165.83
1095,G#3,330.5,0.25,52,165.83
1096,E-4,330.75,0.25,66,165.83
1097,E-3,330.75,0.25,52,165.83
1098,G#4,331.0,0.25,80,165.83
1099,G#2,331.0,0.25,58,165.83
1100,E-4,331.25,0.25,64,165.83
1101,E-3,331.25,0.25,51,165.83
1102,B4,331.5,0.25,84,165.83
1103,G#2,331.5,0.25,68,165.83
1104,E-4,331.75,0.25,66,165.83
1105,E-3,331.75,0.25,52,165.83
1106,B-4,332.0,0.25,83,165.83
1107,G#2,332.0,0.25,64,165.83
1108,E-4,332.25,0.25,66,165.83
1109,E-3,332.25,0.25,52,165.83
1110,G#4,332.5,0.25,81,165.83
1111,G#2,332.5,0.25,62,165.83
1112,E-4,332.75,0.25,66,165.83
1113,E-3,332.75,0.25,52,165.83
1114,G#4,333.0,0.25,83,165.83
1115,G#2,333.0,0.25,64,165.83
1116,E-4,333.25,0.25,63,165.83
1117,E-3,333.25,0.25,52,165.83
1118,B3,333.5,0.25,63,165.83
1119,G#3,333.5,0.25,52,165.83
1120,E-4,333.75,0.25,63,165.83
1121,E-3,333.75,0.25,52,165.83
1122,G#4,334.0,0.25,80,165.83
1123,G#2,334.0,0.25,58,165.83
1124,E-4,334.25,0.25,62,165.83
1125,E-3,334.25,0.25,51,165.83
1126,B4,334.5,0.25,83,165.83
1127,G#2,334.5,0.25,68,165.83
1128,E-4,334.75,0.25,63,165.83
1129,E-3,334.75,0.25,52,165.83
1130,B-4,335.0,0.25,80,165.83
1131,G#2,335.0,0.25,64,165.83
1132,E-4,335.25,0.25,66,165.83
1133,E-3,335.25,0.25,52,165.83
1134,G#4,335.5,0.25,80,165.83
1135,G#2,335.5,0.25,62,165.83
1136,E-4,335.75,0.25,64,165.83
1137,E-3,335.75,0.25,52,165.83
1138,E5,336.0,0.25,83,165.83
1139,G#2,336.0,0.25,64,165.83
1140,B4,336.25,0.25,66,165.83
1141,E3,336.25,0.25,52,165.83
1142,G#4,336.5,0.25,66,165.83
1143,G#3,336.5,0.25,52,165.83
1144,B4,336.75,0.25,66,165.83
1145,E3,336.75,0.25,52,165.83
1146,E5,337.0,0.25,80,165.83
1147,G#2,337.0,0.25,58,165.83
1148,B4,337.25,0.25,64,165.83
1149,E3,337.25,0.25,51,165.83
1150,G#5,337.5,0.25,84,165.83
1151,G#2,337.5,0.25,68,165.83
1152,B4,337.75,0.25,66,165.83
1153,E3,337.75,0.25,52,165.83
1154,F#5,338.0,0.25,83,165.83
1155,G#2,338.0,0.25,64,165.83
1156,B4,338.25,0.25,66,165.83
1157,E3,338.25,0.25,52,165.83
1158,E5,338.5,0.25,81,165.83
1159,G#2,338.5,0.25,62,165.83
1160,B4,338.75,0.25,66,165.83
1161,E3,338.75,0.25,52,165.83
1162,E5,339.0,0.25,83,165.83
1163,G#2,339.0,0.25,64,165.83
1164,B4,339.25,0.25,63,165.83
1165,E3,339.25,0.25,52,165.83
1166,G#4,339.5,0.25,63,165.83
1167,G#3,339.5,0.25,52,165.83
1168,B4,339.75,0.25,63,165.83
1169,E3,339.75,0.25,52,165.83
1170,E5,340.0,0.25,80,165.83
1171,G#2,340.0,0.25,58,165.83
1172,B4,340.25,0.25,62,165.83
1173,E3,340.25,0.25,51,165.83
1174,G#5,340.5,0.25,83,165.83
1175,G#2,340.5,0.25,68,165.83
1176,B4,340.75,0.25,63,165.83
1177,E3,340.75,0.25,52,165.83
1178,F#5,341.0,0.25,80,165.83
1179,G#2,341.0,0.25,64,165.83
1180,B4,341.25,0.25,66,165.83
1181,E3,341.25,0.25,52,165.83
1182,E5,341.5,0.25,80,165.83
1183,G#2,341.5,0.25,62,165.83
1184,B4,341.75,0.25,64,165.83
1185,E3,341.75,0.25,52,165.83
1186,C#6,342.0,0.25,94,165.83
1187,A3,342.0,4.5,98,165.83
1188,A2,342.0,4.5,98,165.83
1189,E6,342.25,0.25,77,165.83
1190,C#6,342.5,0.25,78,165.83
1191,E6,342.75,0.25,69,165.83
1192,C#6,343.0,0.25,75,165.83
1193,E6,343.25,0.25,69,165.83
1194,C#6,343.5,0.25,75,165.83
1195,E6,343.75,0.25,69,165.83
1196,C#6,344.0,0.25,74,165.83
1197,E6,344.25,0.25,69,165.83
1198,C#6,344.5,0.25,71,165.83
1199,E6,344.75,0.25,69,165.83
1200,C#6,345.0,0.25,71,165.83
1201,E6,345.25,0.25,69,165.83
1202,C#6,345.5,0.25,71,165.83
1203,E6,345.75,0.25,69,165.83
1204,C#6,346.0,0.25,73,165.83
1205,E6,346.25,0.25,69,165.83
1206,C#6,346.5,0.25,76,165.83
1207,B-2,346.5,0.5,74,165.83
1208,B-3,346.5,0.5,74,165.83
1209,E6,346.75,0.25,69,165.83
1210,C#6,347.0,0.25,77,165.83
1211,C#4,347.0,0.5,65,165.83
1212,C#3,347.0,0.5,65,165.83
1213,E6,347.25,0.25,69,165.83
1214,C#6,347.5,0.25,77,165.83
1215,E4,347.5,0.5,72,165.83
1216,E3,347.5,0.5,72,165.83
1217,E6,347.75,0.25,69,165.83
1218,C#6,348.0,0.25,82,165.83
1219,G4,348.0,0.5,85,165.83
1220,G3,348.0,0.5,85,165.83
1221,E6,348.25,0.25,70,165.83
1222,B-5,348.5,0.25,81,165.83
1223,B-4,348.5,0.5,72,165.83
1224,B-3,348.5,0.5,72,165.83
1225,C#6,348.75,0.25,71,165.83
1226,G#5,349.0,0.25,82,165.83
1227,C#5,349.0,0.5,72,165.83
1228,C#4,349.0,0.5,72,165.83
1229,B-5,349.25,0.25,68,165.83
1230,G#5,349.5,0.25,81,165.83
1231,E4,349.5,0.479,76,165.83
1232,E5,349.5,0.479,76,165.83
1233,B-5,349.75,0.25,70,165.83
1234,C#6,350.0,0.25,80,165.83
1235,E5,350.0,0.479,74,165.83
1236,E4,350.0,0.479,74,165.83
1237,B-5,350.25,0.25,70,165.83
1238,G#5,350.5,0.25,80,165.83
1239,E5,350.5,0.479,74,165.83
1240,E4,350.5,0.479,74,165.83
1241,B-5,350.75,0.25,69,165.83
1242,E4,351.0,1.5,91,165.83
1243,E5,351.0,1.5,91,165.83
1244,G#5,351.25,0.25,72,165.83
1245,C#6,351.5,0.25,77,165.83
1246,B-5,351.75,0.25,70,165.83
1247,G#5,352.0,0.25,74,165.83
1248,C#6,352.25,0.25,69,165.83
1249,E-5,352.5,1.5,78,165.83
1250,E-4,352.5,1.5,78,165.83
1251,G5,352.75,0.25,67,165.83
1252,C#6,353.0,0.25,71,165.83
1253,B-5,353.25,0.25,64,165.83
1254,G5,353.5,0.25,68,165.83
1255,C#6,353.75,0.25,62,165.83
1256,G#4,354.0,1.5,102,165.83
1257,E5,354.25,0.25,72,165.83
1258,C#6,354.5,0.25,78,165.83
1259,B-5,354.75,0.25,70,165.83
1260,E5,355.0,0.25,77,165.83
1261,C#6,355.25,0.25,69,165.83
1262,G4,355.5,1.5,86,165.83
1263,E-5,355.75,0.25,67,165.83
1264,C#6,356.0,0.25,74,165.83
1265,B-5,356.25,0.25,64,165.83
1266,E-5,356.5,0.25,70,165.83
1267,C#6,356.75,0.25,62,165.83
1268,E5,357.0,1.5,102,165.83
1269,G#5,357.25,0.25,72,165.83
1270,C#6,357.5,0.25,78,165.83
1271,B-5,357.75,0.25,70,165.83
1272,G#5,358.0,0.25,76,165.83
1273,C#6,358.25,0.25,69,165.83
1274,E-5,358.5,1.5,86,165.83
1275,G5,358.75,0.25,67,165.83
1276,C#6,359.0,0.25,73,165.83
1277,B-5,359.25,0.25,64,165.83
1278,G5,359.5,0.25,70,165.83
1279,C#6,359.75,0.25,62,165.83
1280,D5,360.0,3.0,97,165.83
1281,F5,360.25,2.75,91,165.83
1282,G#5,360.5,2.5,97,165.83
1283,B5,360.75,0.25,79,165.83
1284,D6,361.0,0.25,83,165.83
1285,F6,361.25,0.25,74,165.83
1286,G#6,361.5,0.25,85,165.83
1287,F6,361.75,0.25,81,165.83
1288,D6,362.0,0.25,86,165.83
1289,B6,362.25,0.25,83,165.83
1290,B-6,362.5,0.25,86,165.83
1291,G#6,362.75,0.25,78,165.83
1292,G6,363.0,0.25,83,165.83
1293,E-5,363.0,3.0,85,165.83
1294,B-6,363.25,0.25,81,165.83
1295,G5,363.25,2.75,77,165.83
1296,G#6,363.5,0.25,84,165.83
1297,G6,363.75,0.25,82,165.83
1298,E6,364.0,0.25,81,165.83
1299,E-6,364.25,0.25,74,165.83
1300,C#6,364.5,0.25,78,165.83
1301,E6,364.75,0.25,75,165.83
1302,E-6,365.0,0.25,74,165.83
1303,C#6,365.25,0.25,72,165.83
1304,B5,365.5,0.25,71,165.83
1305,B-5,365.75,0.25,66,165.83
1306,G#4,366.0,1.5,45,165.83
1307,B4,366.0,1.5,45,165.83
1308,G#5,366.25,0.25,42,165.83
1309,B5,366.5,0.25,45,165.83
1310,E-6,366.75,0.25,47,165.83
1311,G#6,367.0,0.25,49,165.83
1312,G#5,367.25,0.25,45,165.83
1313,C#5,367.5,1.5,44,165.83
1314,E5,367.5,1.5,44,165.83
1315,G#6,368.25,0.25,49,165.83
1316,G#5,368.5,0.25,45,165.83
1317,G#6,368.75,0.25,49,165.83
1318,B4,369.0,1.5,45,165.83
1319,E-5,369.0,1.5,45,165.83
1320,G#6,369.75,0.25,48,165.83
1321,G#5,370.0,0.25,45,165.83
1322,G#6,370.25,0.25,48,165.83
1323,E-5,370.5,1.5,60,165.83
1324,B-4,370.5,1.5,60,165.83
1325,C#5,370.5,1.5,60,165.83
1326,G6,371.25,0.25,48,165.83
1327,G5,371.5,0.25,45,165.83
1328,G6,371.75,0.25,49,165.83
1329,G#4,372.0,1.5,45,165.83
1330,B4,372.0,1.5,45,165.83
1331,G#5,372.25,0.25,42,165.83
1332,B5,372.5,0.25,45,165.83
1333,E-6,372.75,0.25,47,165.83
1334,G#6,373.0,0.25,49,165.83
1335,G#5,373.25,0.25,45,165.83
1336,C#4,373.5,1.5,44,165.83
1337,E4,373.5,1.5,44,165.83
1338,G#5,374.25,0.25,49,165.83
1339,G#4,374.5,0.25,45,165.83
1340,G#5,374.75,0.25,49,165.83
1341,B3,375.0,1.5,45,165.83
1342,E-4,375.0,1.5,45,165.83
1343,G#5,375.75,0.25,48,165.83
1344,G#4,376.0,0.25,45,165.83
1345,G#5,376.25,0.25,48,165.83
1346,B-3,376.5,1.5,60,165.83
1347,C#4,376.5,1.5,60,165.83
1348,E-4,376.5,1.5,60,165.83
1349,G5,377.25,0.25,48,165.83
1350,G4,377.5,0.25,45,165.83
1351,G5,377.75,0.25,49,165.83
1352,B3,378.0,1.5,45,165.83
1353,G#3,378.0,1.5,45,165.83
1354,G#5,378.25,0.25,42,165.83
1355,B5,378.5,0.25,45,165.83
1356,E-6,378.75,0.25,47,165.83
1357,G#6,379.0,0.25,49,165.83
1358,G#5,379.25,0.25,45,165.83
1359,E3,379.5,1.5,44,165.83
1360,C#3,379.5,1.5,44,165.83
1361,G#6,380.25,0.25,49,165.83
1362,G#5,380.5,0.25,45,165.83
1363,G#6,380.75,0.25,49,165.83
1364,E-3,381.0,1.5,45,165.83
1365,B2,381.0,1.5,45,165.83
1366,G#6,381.75,0.25,48,165.83
1367,G#5,382.0,0.25,45,165.83
1368,G#6,382.25,0.25,48,165.83
1369,E-3,382.5,1.5,60,165.83
1370,C#3,382.5,1.5,60,165.83
1371,B-2,382.5,1.5,60,165.83
1372,G6,383.25,0.25,48,165.83
1373,G5,383.5,0.25,45,165.83
1374,G6,383.75,0.25,49,165.83
1375,G#6,384.0,0.25,48,165.83
1376,G#2,384.0,3.0,48,165.83
1377,E-6,384.25,0.25,45,165.83
1378,B5,384.5,0.25,44,165.83
1379,E-6,384.75,0.25,39,165.83
1380,G#6,385.0,0.25,42,165.83
1381,E-6,385.25,0.25,39,165.83
1382,B5,385.5,0.25,46,165.83
1383,E-6,385.75,0.25,41,165.83
1384,G#6,386.0,0.25,41,165.83
1385,E-6,386.25,0.25,37,165.83
1386,B5,386.5,0.25,40,165.83
1387,E-6,386.75,0.25,36,165.83
1388,G#6,387.0,0.25,42,165.83
1389,E-2,387.0,1.5,38,165.83
1390,E-6,387.25,0.25,39,165.83
1391,B5,387.5,0.25,39,165.83
1392,E-6,387.75,0.25,35,165.83
1393,G#6,388.0,0.25,38,165.83
1394,E-6,388.25,0.25,34,165.83
1395,G#6,388.5,0.25,39,165.83
1396,B1,388.5,1.5,30,165.83
1397,E-6,388.75,0.25,35,165.83
1398,G#6,389.0,0.25,37,165.83
1399,E-6,389.25,0.25,31,165.83
1400,G#6,389.5,0.25,36,165.83
1401,E-6,389.75,0.25,30,165.83
1402,G#6,390.0,4.5,33,165.83
1403,G#1,390.0,4.5,27,165.83
1404,B3,394.5,1.25,35,165.83
1405,B2,394.5,1.25,27,165.83
1406,G#3,395.75,0.25,31,165.83
1407,G#2,395.75,0.25,25,165.83
1408,E-3,396.0,4.5,28,165.83
1409,E-2,396.0,4.5,22,165.83
1410,B3,400.5,1.25,35,165.83
1411,B2,400.5,1.25,27,165.83
1412,G#3,401.75,0.25,31,165.83
1413,G#2,401.75,0.25,25,165.83
1414,E3,402.0,4.5,28,165.83
1415,E2,402.0,4.5,22,165.83
1416,G#3,406.5,1.25,35,165.83
1417,G#2,406.5,1.25,27,165.83
1418,B3,407.75,0.25,30,165.83
1419,B2,407.75,0.25,24,165.83
1420,E4,408.0,1.5,35,165.83
1421,E3,408.0,1.5,27,165.83
1422,G#4,409.5,1.25,36,165.83
1423,G#3,409.5,1.25,28,165.83
1424,B4,410.75,0.25,31,165.83
1425,B3,410.75,0.25,25,165.83
1426,E5,411.0,1.49,36,165.83
1427,E4,411.0,1.49,28,165.83
1428,E4,412.5,1.5,34,165.83
1429,E3,412.5,1.5,27,165.83
1430,B4,414.0,2.5,35,165.83
1431,F#3,414.0,3.0,26,165.83
1432,E-3,414.0,3.0,26,165.83
1433,B3,414.0,3.0,26,165.83
1434,C#5,416.5,0.375,33,165.83
1435,B4,416.875,0.125,34,165.83
1436,C#5,417.0,0.167,31,165.83
1437,E3,417.0,3.0,26,165.83
1438,B-3,417.0,3.0,26,165.83
1439,G3,417.0,3.0,26,165.83
1440,E-5,417.167,0.167,27,165.83
1441,C#5,417.333,0.167,31,165.83
1442,E-5,417.5,0.167,27,165.83
1443,C#5,417.667,0.167,31,165.83
1444,E-5,417.833,0.167,28,165.83
1445,C#5,418.0,0.167,31,165.83
1446,E-5,418.167,0.167,27,165.83
1447,C#5,418.333,0.167,31,165.83
1448,E-5,418.5,0.167,28,165.83
1449,C#5,418.667,0.167,26,165.83
1450,E-5,418.833,0.167,31,165.83
1451,C#5,419.0,0.25,26,165.83
1452,B4,419.25,0.25,30,165.83
1453,E-5,419.5,0.25,35,165.83
1454,C#5,419.75,0.25,31,165.83
1455,B4,420.0,1.0,35,165.83
1456,F#3,420.0,1.0,22,165.83
1457,E-3,420.0,1.0,22,165.83
1458,B3,420.0,1.0,22,165.83
1459,F#5,426.0,2.5,35,165.83
1460,C#5,426.0,3.0,26,165.83
1461,A4,426.0,3.0,26,165.83
1462,G#5,428.5,0.5,35,165.83
1463,F5,429.0,3.0,35,165.83
1464,G#5,429.0,0.167,44,165.83
1465,B4,429.0,3.0,28,165.83
1466,D5,429.0,3.0,28,165.83
1467,A5,429.167,0.167,35,165.83
1468,G#5,429.333,0.167,40,165.83
1469,A5,429.5,0.167,36,165.83
1470,G#5,429.667,0.167,39,165.83
1471,A5,429.833,0.167,36,165.83
1472,G#5,430.0,0.167,38,165.83
1473,A5,430.167,0.167,34,165.83
1474,G#5,430.333,0.167,37,165.83
1475,A5,430.5,0.167,35,165.83
1476,G#5,430.667,0.167,31,165.83
1477,A5,430.833,0.167,36,165.83
1478,G#5,431.0,0.25,33,165.83
1479,F#5,431.25,0.25,33,165.83
1480,A5,431.5,0.25,37,165.83
1481,G#5,431.75,0.25,33,165.83
1482,F#5,432.0,1.0,35,165.83
1483,A4,432.0,1.0,24,165.83
1484,C#5,432.0,1.0,24,165.83
1485,E4,438.0,2.5,35,165.83
1486,B3,438.0,3.0,26,165.83
1487,G#3,438.0,3.0,26,165.83
1488,F#4,440.5,0.5,35,165.83
1489,E-4,441.0,3.0,35,165.83
1490,F#4,441.0,0.167,44,165.83
1491,A3,441.0,3.0,28,165.83
1492,C4,441.0,3.0,28,165.83
1493,G#4,441.167,0.167,35,165.83
1494,F#4,441.333,0.167,40,165.83
1495,G#4,441.5,0.167,36,165.83
1496,F#4,441.667,0.167,39,165.83
1497,G#4,441.833,0.167,36,165.83
1498,F#4,442.0,0.167,39,165.83
1499,G#4,442.167,0.167,35,165.83
1500,F#4,442.333,0.167,39,165.83
1501,G#4,442.5,0.167,35,165.83
1502,F#4,442.667,0.167,31,165.83
1503,G#4,442.833,0.167,36,165.83
1504,F#4,443.0,0.25,33,165.83
1505,E4,443.25,0.25,33,165.83
1506,G#4,443.5,0.25,37,165.83
1507,F#4,443.75,0.25,33,165.83
1508,E4,444.0,1.5,35,165.83
1509,G#3,444.0,1.5,24,165.83
1510,B3,444.0,1.5,24,165.83
1511,F#2,445.5,3.0,44,165.83
1512,A3,445.5,3.0,48,165.83
1513,C#4,445.5,3.0,48,165.83
1514,A4,445.5,3.0,48,165.83
1515,F#4,448.5,1.25,44,165.83
1516,A2,448.5,1.5,40,165.83
1517,A3,448.5,1.5,36,165.83
1518,C#4,448.5,1.5,36,165.83
1519,G#4,449.75,0.25,39,165.83
1520,B2,450.0,3.0,35,165.83
1521,E4,450.0,3.0,37,165.83
1522,G#3,450.0,3.0,37,165.83
1523,B3,450.0,3.0,37,165.83
1524,B1,453.0,3.0,30,165.83
1525,E-4,453.0,3.0,32,165.83
1526,A3,453.0,3.0,32,165.83
1527,F#3,453.0,3.0,32,165.83
1528,E5,456.0,2.5,35,165.83
1529,B4,456.0,3.0,26,165.83
1530,G#4,456.0,3.0,26,165.83
1531,F#5,458.5,0.5,35,165.83
1532,F#5,459.0,0.167,36,165.83
1533,E-5,459.0,3.0,29,165.83
1534,A4,459.0,3.0,28,165.83
1535,C5,459.0,3.0,28,165.83
1536,G#5,459.167,0.167,33,165.83
1537,F#5,459.333,0.167,36,165.83
1538,G#5,459.5,0.167,34,165.83
1539,F#5,459.667,0.167,36,165.83
1540,G#5,459.833,0.167,34,165.83
1541,F#5,460.0,0.167,36,165.83
1542,G#5,460.167,0.167,32,165.83
1543,F#5,460.333,0.167,36,165.83
1544,G#5,460.5,0.167,33,165.83
1545,F#5,460.667,0.167,30,165.83
1546,G#5,460.833,0.167,34,165.83
1547,F#5,461.0,0.25,31,165.83
1548,E5,461.25,0.25,33,165.83
1549,G#5,461.5,0.25,37,165.83
1550,F#5,461.75,0.25,33,165.83
1551,E5,462.0,1.5,35,165.83
1552,G#4,462.0,1.5,24,165.83
1553,B4,462.0,1.5,24,165.83
1554,A4,463.5,3.0,48,165.83
1555,C#5,463.5,3.0,48,165.83
1556,A5,463.5,3.0,48,165.83
1557,F#4,463.5,3.0,41,165.83
1558,F#3,463.5,3.0,41,165.83
1559,F#5,466.5,1.25,44,165.83
1560,A3,466.5,1.5,40,165.83
1561,A4,466.5,1.5,36,165.83
1562,C#5,466.5,1.5,36,165.83
1563,G#5,467.75,0.25,39,165.83
1564,B3,468.0,3.0,35,165.83
1565,G#4,468.0,3.0,37,165.83
1566,E5,468.0,3.0,37,165.83
1567,B4,468.0,3.0,37,165.83
1568,B2,471.0,1.0,30,165.83
1569,E-5,471.0,1.0,32,165.83
1570,A4,471.0,1.0,32,165.83
1571,F#4,471.0,1.0,32,165.83
1572,B2,472.5,1.25,83,165.83
1573,G2,473.75,0.25,75,165.83
1574,B4,474.0,0.25,70,165.83
1575,E2,474.0,4.5,80,165.83
1576,G4,474.25,0.25,61,165.83
1577,B4,474.5,0.25,70,165.83
1578,G4,474.75,0.25,60,165.83
1579,B4,475.0,0.25,70,165.83
1580,G4,475.25,0.25,61,165.83
1581,B4,475.5,0.25,70,165.83
1582,G4,475.75,0.25,60,165.83
1583,B4,476.0,0.25,70,165.83
1584,G4,476.25,0.25,60,165.83
1585,B4,476.5,0.25,70,165.83
1586,G4,476.75,0.25,59,165.83
1587,B4,477.0,0.25,70,165.83
1588,G4,477.25,0.25,61,165.83
1589,B4,477.5,0.25,70,165.83
1590,G4,477.75,0.25,60,165.83
1591,B4,478.0,0.25,70,165.83
1592,G4,478.25,0.25,61,165.83
1593,B4,478.5,0.25,70,165.83
1594,G2,478.5,1.25,81,165.83
1595,G4,478.75,0.25,60,165.83
1596,B4,479.0,0.25,70,165.83
1597,G4,479.25,0.25,60,165.83
1598,B4,479.5,0.25,70,165.83
1599,G4,479.75,0.25,59,165.83
1600,B2,479.75,0.25,73,165.83
1601,B4,480.0,0.25,70,165.83
1602,E3,480.0,1.5,81,165.83
1603,G4,480.25,0.25,61,165.83
1604,B4,480.5,0.25,70,165.83
1605,G4,480.75,0.25,60,165.83
1606,B4,481.0,0.25,70,165.83
1607,G4,481.25,0.25,61,165.83
1608,B4,481.5,0.25,70,165.83
1609,G3,481.5,1.25,83,165.83
1610,G4,481.75,0.25,60,165.83
1611,B4,482.0,0.25,70,165.83
1612,G4,482.25,0.25,60,165.83
1613,B4,482.5,0.25,70,165.83
1614,G4,482.75,0.25,59,165.83
1615,B3,482.75,0.25,73,165.83
1616,B4,483.0,0.25,70,165.83
1617,E4,483.0,1.5,82,165.83
1618,G4,483.25,0.25,61,165.83
1619,B4,483.5,0.25,70,165.83
1620,G4,483.75,0.25,60,165.83
1621,B4,484.0,0.25,70,165.83
1622,G4,484.25,0.25,61,165.83
1623,B4,484.5,0.25,70,165.83
1624,E4,484.5,1.5,79,165.83
1625,G4,484.75,0.25,60,165.83
1626,B4,485.0,0.25,70,165.83
1627,G4,485.25,0.25,60,165.83
1628,B4,485.5,0.25,70,165.83
1629,G4,485.75,0.25,59,165.83
1630,F4,486.0,0.3,83,165.83
1631,G4,486.3,0.3,67,165.83
1632,B4,486.6,0.3,70,165.83
1633,G4,486.9,0.3,68,165.83
1634,F4,487.2,0.3,68,165.83
1635,D4,487.5,0.3,81,165.83
1636,F4,487.8,0.3,67,165.83
1637,G4,488.1,0.3,70,165.83
1638,F4,488.4,0.3,68,165.83
1639,D4,488.7,0.3,68,165.83
1640,B3,489.0,0.3,77,165.83
1641,D4,489.3,0.3,62,165.83
1642,F4,489.6,0.3,67,165.83
1643,D4,489.9,0.3,63,165.83
1644,B3,490.2,0.3,63,165.83
1645,B4,490.5,1.25,89,165.83
1646,G3,490.5,0.3,70,165.83
1647,B3,490.8,0.3,59,165.83
1648,D4,491.1,0.3,62,165.83
1649,B3,491.4,0.3,60,165.83
1650,G3,491.7,0.3,60,165.83
1651,D5,491.75,0.25,80,165.83
1652,G5,492.0,1.5,89,165.83
1653,F3,492.0,0.3,70,165.83
1654,G3,492.3,0.3,59,165.83
1655,B3,492.6,0.3,62,165.83
1656,G3,492.9,0.3,60,165.83
1657,F3,493.2,0.3,60,165.83
1658,B5,493.5,1.25,91,165.83
1659,D3,493.5,0.3,70,165.83
1660,F3,493.8,0.3,59,165.83
1661,G3,494.1,0.3,62,165.83
1662,F3,494.4,0.3,60,165.83
1663,D3,494.7,0.3,60,165.83
1664,D6,494.75,0.25,80,165.83
1665,B2,495.0,0.25,70,165.83
1666,G5,495.0,1.5,86,165.83
1667,G6,495.0,1.5,86,165.83
1668,D3,495.25,0.25,59,165.83
1669,F3,495.5,0.25,60,165.83
1670,D3,495.75,0.25,66,165.83
1671,B2,496.0,0.25,59,165.83
1672,G2,496.25,0.25,60,165.83
1673,F2,496.5,0.25,70,165.83
1674,G6,496.5,1.5,82,165.83
1675,G5,496.5,1.5,82,165.83
1676,G2,496.75,0.25,60,165.83
1677,B2,497.0,0.25,60,165.83
1678,G2,497.25,0.25,66,165.83
1679,F2,497.5,0.25,66,165.83
1680,D2,497.75,0.25,60,165.83
1681,C2,498.0,4.5,80,165.83
1682,G5,498.0,0.3,91,165.83
1683,G6,498.0,0.3,91,165.83
1684,E-6,498.3,0.3,73,165.83
1685,G6,498.6,0.3,77,165.83
1686,E-6,498.9,0.3,74,165.83
1687,C6,499.2,0.3,74,165.83
1688,G5,499.5,0.3,91,165.83
1689,C6,499.8,0.3,73,165.83
1690,E-6,500.1,0.3,77,165.83
1691,C6,500.4,0.3,74,165.83
1692,G5,500.7,0.3,74,165.83
1693,E-5,501.0,0.3,91,165.83
1694,G5,501.3,0.3,73,165.83
1695,C6,501.6,0.3,77,165.83
1696,G5,501.9,0.3,74,165.83
1697,E-5,502.2,0.3,74,165.83
1698,C5,502.5,0.3,91,165.83
1699,E-2,502.5,1.25,81,165.83
1700,E-5,502.8,0.3,73,165.83
1701,G5,503.1,0.3,77,165.83
1702,E-5,503.4,0.3,74,165.83
1703,C5,503.7,0.3,74,165.83
1704,G2,503.75,0.25,73,165.83
1705,G4,504.0,0.3,91,165.83
1706,C3,504.0,1.5,81,165.83
1707,C5,504.3,0.3,73,165.83
1708,E-5,504.6,0.3,77,165.83
1709,C5,504.9,0.3,74,165.83
1710,G4,505.2,0.3,74,165.83
1711,E-4,505.5,0.3,91,165.83
1712,E-3,505.5,1.25,83,165.83
1713,G4,505.8,0.3,73,165.83
1714,C5,506.1,0.3,77,165.83
1715,G4,506.4,0.3,74,165.83
1716,E-4,506.7,0.3,74,165.83
1717,G3,506.75,0.25,73,165.83
1718,E-4,507.0,0.3,91,165.83
1719,C4,507.0,1.5,82,165.83
1720,G4,507.3,0.3,73,165.83
1721,C5,507.6,0.3,77,165.83
1722,G4,507.9,0.3,74,165.83
1723,E-4,508.2,0.3,74,165.83
1724,E-4,508.5,0.3,91,165.83
1725,C4,508.5,1.5,79,165.83
1726,G4,508.8,0.3,73,165.83
1727,C5,509.1,0.3,77,165.83
1728,G4,509.4,0.3,74,165.83
1729,E-4,509.7,0.3,74,165.83
1730,C#4,510.0,0.3,83,165.83
1731,E-4,510.3,0.3,67,165.83
1732,G4,510.6,0.3,70,165.83
1733,E-4,510.9,0.3,68,165.83
1734,C#4,511.2,0.3,68,165.83
1735,B-3,511.5,0.3,81,165.83
1736,C#4,511.8,0.3,67,165.83
1737,E-4,512.1,0.3,70,165.83
1738,C#4,512.4,0.3,68,165.83
1739,B-3,512.7,0.3,68,165.83
1740,G3,513.0,0.3,77,165.83
1741,B-3,513.3,0.3,62,165.83
1742,C#4,513.6,0.3,67,165.83
1743,B-3,513.9,0.3,63,165.83
1744,G3,514.2,0.3,63,165.83
1745,G4,514.5,1.25,89,165.83
1746,E-3,514.5,0.3,70,165.83
1747,G3,514.8,0.3,59,165.83
1748,B-3,515.1,0.3,62,165.83
1749,G3,515.4,0.3,60,165.83
1750,E-3,515.7,0.3,60,165.83
1751,B-4,515.75,0.25,80,165.83
1752,E-5,516.0,1.5,89,165.83
1753,C#3,516.0,0.3,70,165.83
1754,E-3,516.3,0.3,59,165.83
1755,G3,516.6,0.3,62,165.83
1756,E-3,516.9,0.3,60,165.83
1757,C#3,517.2,0.3,60,165.83
1758,G5,517.5,1.25,91,165.83
1759,B-2,517.5,0.3,70,165.83
1760,C#3,517.8,0.3,59,165.83
1761,E-3,518.1,0.3,62,165.83
1762,C#3,518.4,0.3,60,165.83
1763,B-2,518.7,0.3,60,165.83
1764,B-5,518.75,0.25,80,165.83
1765,G2,519.0,0.25,70,165.83
1766,E-5,519.0,1.5,86,165.83
1767,E-6,519.0,1.5,86,165.83
1768,B-2,519.25,0.25,59,165.83
1769,C#3,519.5,0.25,60,165.83
1770,B-2,519.75,0.25,66,165.83
1771,G2,520.0,0.25,59,165.83
1772,E-2,520.25,0.25,60,165.83
1773,C#2,520.5,0.25,70,165.83
1774,E-5,520.5,1.5,82,165.83
1775,E-6,520.5,1.5,82,165.83
1776,E-2,520.75,0.25,60,165.83
1777,G2,521.0,0.25,60,165.83
1778,E-2,521.25,0.25,66,165.83
1779,C#2,521.5,0.25,66,165.83
1780,B-1,521.75,0.25,60,165.83
1781,E-6,522.0,0.3,100,165.83
1782,G#1,522.0,4.5,80,165.83
1783,G#6,522.3,0.3,80,165.83
1784,C7,522.6,0.3,83,165.83
1785,G#6,522.9,0.3,81,165.83
1786,E-6,523.2,0.3,80,165.83
1787,C6,523.5,0.3,97,165.83
1788,E-6,523.8,0.3,78,165.83
1789,G#6,524.1,0.3,81,165.83
1790,E-6,524.4,0.3,79,165.83
1791,C6,524.7,0.3,75,165.83
1792,G#5,525.0,0.3,95,165.83
1793,C6,525.3,0.3,77,165.83
1794,E-6,525.6,0.3,79,165.83
1795,C6,525.9,0.3,77,165.83
1796,G#5,526.2,0.3,77,165.83
1797,E-5,526.5,0.3,93,165.83
1798,C2,526.5,1.25,81,165.83
1799,G#5,526.8,0.3,74,165.83
1800,C6,527.1,0.3,78,165.83
1801,G#5,527.4,0.3,74,165.83
1802,E-5,527.7,0.3,74,165.83
1803,E-2,527.75,0.25,73,165.83
1804,C5,528.0,0.3,91,165.83
1805,G#2,528.0,1.5,81,165.83
1806,E-5,528.3,0.3,73,165.83
1807,G#5,528.6,0.3,77,165.83
1808,E-5,528.9,0.3,74,165.83
1809,C5,529.2,0.3,74,165.83
1810,G#4,529.5,0.3,91,165.83
1811,C3,529.5,1.25,83,165.83
1812,C5,529.8,0.3,73,165.83
1813,E-5,530.1,0.3,77,165.83
1814,C5,530.4,0.3,74,165.83
1815,G#4,530.7,0.3,74,165.83
1816,E-3,530.75,0.25,73,165.83
1817,E-4,531.0,0.3,91,165.83
1818,G#3,531.0,1.5,82,165.83
1819,G#4,531.3,0.3,73,165.83
1820,C5,531.6,0.3,77,165.83
1821,G#4,531.9,0.3,74,165.83
1822,E-4,532.2,0.3,74,165.83
1823,C4,532.5,0.3,91,165.83
1824,G#3,532.5,1.5,79,165.83
1825,E-4,532.8,0.3,73,165.83
1826,G#4,533.1,0.3,77,165.83
1827,E-4,533.4,0.3,74,165.83
1828,C4,533.7,0.3,74,165.83
1829,F#4,534.0,4.5,83,165.83
1830,A3,534.0,0.3,83,165.83
1831,C4,534.3,0.3,67,165.83
1832,E-4,534.6,0.3,70,165.83
1833,C4,534.9,0.3,68,165.83
1834,A3,535.2,0.3,68,165.83
1835,F#3,535.5,0.3,81,165.83
1836,A3,535.8,0.3,67,165.83
1837,C4,536.1,0.3,70,165.83
1838,A3,536.4,0.3,68,165.83
1839,F#3,536.7,0.3,68,165.83
1840,E-3,537.0,0.3,77,165.83
1841,F#3,537.3,0.3,62,165.83
1842,A3,537.6,0.3,67,165.83
1843,F#3,537.9,0.3,63,165.83
1844,E-3,538.2,0.3,63,165.83
1845,C5,538.5,1.25,89,165.83
1846,C3,538.5,0.3,70,165.83
1847,E-3,538.8,0.3,59,165.83
1848,F#3,539.1,0.3,62,165.83
1849,E-3,539.4,0.3,60,165.83
1850,C3,539.7,0.3,60,165.83
1851,E-5,539.75,0.25,85,165.83
1852,F#5,540.0,1.5,92,165.83
1853,A2,540.0,0.3,70,165.83
1854,C3,540.3,0.3,59,165.83
1855,E-3,540.6,0.3,62,165.83
1856,C3,540.9,0.3,60,165.83
1857,A2,541.2,0.3,60,165.83
1858,C6,541.5,1.25,95,165.83
1859,F#2,541.5,0.3,70,165.83
1860,A2,541.8,0.3,59,165.83
1861,C3,542.1,0.3,62,165.83
1862,A2,542.4,0.3,60,165.83
1863,F#2,542.7,0.3,60,165.83
1864,E-6,542.75,0.25,84,165.83
1865,F#6,543.0,1.5,96,165.83
1866,E-2,543.0,0.25,70,165.83
1867,F#2,543.25,0.25,59,165.83
1868,A2,543.5,0.25,60,165.83
1869,F#2,543.75,0.25,66,165.83
1870,E-2,544.0,0.25,59,165.83
1871,C2,544.25,0.25,60,165.83
1872,F#6,544.5,1.5,93,165.83
1873,A1,544.5,0.25,70,165.83
1874,C2,544.75,0.25,60,165.83
1875,E-2,545.0,0.25,60,165.83
1876,F#2,545.25,0.25,66,165.83
1877,E-2,545.5,0.25,66,165.83
1878,C2,545.75,0.25,60,165.83
1879,F#6,546.0,2.0,105,165.83
1880,G#1,546.0,0.25,70,165.83
1881,C2,546.25,0.25,60,165.83
1882,E-2,546.5,0.25,60,165.83
1883,F#2,546.75,0.25,66,165.83
1884,E-2,547.0,0.25,66,165.83
1885,C2,547.25,0.25,60,165.83
1886,A1,547.5,0.25,70,165.83
1887,C2,547.75,0.25,60,165.83
1888,F#6,548.0,0.25,77,165.83
1889,E-2,548.0,0.25,60,165.83
1890,E-6,548.25,0.25,76,165.83
1891,F#2,548.25,0.25,66,165.83
1892,C6,548.5,0.25,75,165.83
1893,E-2,548.5,0.25,66,165.83
1894,F#5,548.75,0.25,75,165.83
1895,C2,548.75,0.25,60,165.83
1896,F#6,549.0,2.0,103,165.83
1897,G#1,549.0,0.25,70,165.83
1898,C2,549.25,0.25,60,165.83
1899,E-2,549.5,0.25,60,165.83
1900,F#2,549.75,0.25,66,165.83
1901,E-2,550.0,0.25,66,165.83
1902,C2,550.25,0.25,60,165.83
1903,A1,550.5,0.25,70,165.83
1904,C2,550.75,0.25,60,165.83
1905,F#5,551.0,0.25,77,165.83
1906,E-2,551.0,0.25,60,165.83
1907,E-5,551.25,0.25,76,165.83
1908,F#2,551.25,0.25,66,165.83
1909,C5,551.5,0.25,75,165.83
1910,E-2,551.5,0.25,66,165.83
1911,F#4,551.75,0.25,75,165.83
1912,C2,551.75,0.25,60,165.83
1913,F#5,552.0,2.0,94,165.83
1914,G#1,552.0,0.25,70,165.83
1915,C2,552.25,0.25,60,165.83
1916,E-2,552.5,0.25,60,165.83
1917,F#2,552.75,0.25,60,165.83
1918,E-2,553.0,0.25,66,165.83
1919,C2,553.25,0.25,60,165.83
1920,A1,553.5,0.25,70,165.83
1921,C2,553.75,0.25,60,165.83
1922,F#4,554.0,0.25,72,165.83
1923,E-2,554.0,0.25,60,165.83
1924,E-4,554.25,0.25,71,165.83
1925,F#2,554.25,0.25,61,165.83
1926,C4,554.5,0.25,69,165.83
1927,E-2,554.5,0.25,66,165.83
1928,F#3,554.75,0.25,69,165.83
1929,C2,554.75,0.25,60,165.83
1930,F#4,555.0,0.5,91,165.83
1931,G#1,555.0,0.25,70,165.83
1932,C2,555.25,0.25,60,165.83
1933,F#4,555.5,0.25,74,165.83
1934,E-2,555.5,0.25,60,165.83
1935,E-4,555.75,0.25,70,165.83
1936,F#2,555.75,0.25,61,165.83
1937,C4,556.0,0.25,70,165.83
1938,E-2,556.0,0.25,66,165.83
1939,F#3,556.25,0.25,69,165.83
1940,C2,556.25,0.25,60,165.83
1941,F#4,556.5,0.5,89,165.83
1942,A1,556.5,0.25,70,165.83
1943,C2,556.75,0.25,60,165.83
1944,F#4,557.0,0.25,74,165.83
1945,E-2,557.0,0.25,60,165.83
1946,E-4,557.25,0.25,72,165.83
1947,F#2,557.25,0.25,60,165.83
1948,C4,557.5,0.25,72,165.83
1949,E-2,557.5,0.25,66,165.83
1950,F#3,557.75,0.25,71,165.83
1951,C2,557.75,0.25,60,165.83
1952,F#4,558.0,1.5,84,165.83
1953,G#1,558.0,0.5,60,165.83
1954,G#2,558.0,0.5,60,165.83
1955,G#3,558.5,0.458,36,165.83
1956,G#3,559.0,0.458,36,165.83
1957,G#3,559.5,0.458,39,165.83
1958,G#3,560.0,0.458,37,165.83
1959,G#3,560.5,0.458,36,165.83
1960,G#3,561.0,0.458,39,165.83
1961,G#3,561.5,0.458,35,165.83
1962,G#3,562.0,0.458,35,165.83
1963,G#3,562.5,0.458,39,165.83
1964,G#3,563.0,0.458,36,165.83
1965,G#3,563.5,0.458,36,165.83
1966,E-4,564.0,1.5,58,165.83
1967,C4,564.0,1.5,58,165.83
1968,G#3,564.5,0.458,36,165.83
1969,G#3,565.0,0.458,36,165.83
1970,G#3,565.5,0.458,39,165.83
1971,G#3,566.0,0.458,37,165.83
1972,G#3,566.5,0.458,36,165.83
1973,F#3,567.0,0.5,39,165.83
1974,C5,567.0,1.5,59,165.83
1975,E-5,567.0,1.5,59,165.83
1976,G#3,567.5,0.458,35,165.83
1977,G#3,568.0,0.458,35,165.83
1978,G#3,568.5,0.458,39,165.83
1979,G#3,569.0,0.458,36,165.83
1980,G#3,569.5,0.458,36,165.83
1981,F4,570.0,1.5,55,165.83
1982,C#4,570.0,1.5,55,165.83
1983,G#3,570.5,0.458,36,165.83
1984,G#3,571.0,0.458,36,165.83
1985,G#3,571.5,0.458,39,165.83
1986,G#3,572.0,0.458,37,165.83
1987,G#3,572.5,0.458,36,165.83
1988,F3,573.0,0.5,39,165.83
1989,C#5,573.0,1.5,58,165.83
1990,F5,573.0,1.5,58,165.83
1991,G#3,573.5,0.458,35,165.83
1992,G#3,574.0,0.458,35,165.83
1993,G#3,574.5,0.458,39,165.83
1994,G#3,575.0,0.458,36,165.83
1995,G#3,575.5,0.458,36,165.83
1996,C#4,576.0,6.0,61,165.83
1997,B-4,576.0,6.0,61,165.83
1998,F4,576.0,6.0,61,165.83
1999,G#3,576.5,0.458,38,165.83
2000,G#3,577.0,0.458,38,165.83
2001,F3,577.5,0.5,40,165.83
2002,C#3,577.5,0.5,40,165.83
2003,G#3,578.0,0.458,37,165.83
2004,G#3,578.5,0.458,37,165.83
2005,C#3,579.0,0.5,37,165.83
2006,F3,579.0,0.5,37,165.83
2007,G#3,579.5,0.458,37,165.83
2008,G#3,580.0,0.458,37,165.83
2009,C#3,580.5,0.5,37,165.83
2010,F3,580.5,0.5,37,165.83
2011,G#3,581.0,0.458,37,165.83
2012,G#3,581.5,0.458,37,165.83
2013,C4,582.0,1.0,52,165.83
2014,E-4,582.0,1.0,52,165.83
2015,G#4,582.0,1.0,52,165.83
2016,C3,582.0,0.5,39,165.83
2017,E-3,582.0,0.5,39,165.83
2018,G#3,582.5,0.458,37,165.83
2019,G#3,583.0,0.458,37,165.83
2020,G#3,583.5,0.458,38,165.83
2021,G#3,584.0,0.458,37,165.83
2022,G#3,584.5,0.458,37,165.83
2023,G#3,585.0,0.458,37,165.83
2024,G#3,585.5,0.458,37,165.83
2025,G#3,586.0,0.458,37,165.83
2026,G#3,586.5,0.458,38,165.83
2027,C4,586.5,1.25,55,165.83
2028,E-4,586.5,1.25,55,165.83
2029,G#3,587.0,0.458,37,165.83
2030,G#3,587.5,0.458,37,165.83
2031,C4,587.75,0.25,50,165.83
2032,E-4,587.75,0.25,50,165.83
2033,G#3,588.0,0.458,39,165.83
2034,C#4,588.0,1.0,55,165.83
2035,F4,588.0,1.0,55,165.83
2036,G#3,588.5,0.458,37,165.83
2037,G#3,589.0,0.458,37,165.83
2038,C4,589.0,0.5,50,165.83
2039,E-4,589.0,0.5,50,165.83
2040,G#3,589.5,0.458,38,165.83
2041,G#3,590.0,0.458,37,165.83
2042,G#3,590.5,0.458,37,165.83
2043,C5,590.5,0.5,58,165.83
2044,E-5,590.5,0.5,58,165.83
2045,G#3,591.0,0.458,38,165.83
2046,G#3,591.5,0.458,39,165.83
2047,E-6,592.0,0.5,56,165.83
2048,C6,592.0,0.5,56,165.83
2049,F#3,592.5,0.5,44,165.83
2050,E-3,592.5,0.5,44,165.83
2051,G#3,593.0,0.458,37,165.83
2052,G#3,593.5,0.458,37,165.83
2053,C4,593.75,0.25,53,165.83
2054,E-4,593.75,0.25,53,165.83
2055,G#3,594.0,0.458,39,165.83
2056,E-4,594.0,1.0,57,165.83
2057,F#4,594.0,1.0,57,165.83
2058,G#3,594.5,0.458,37,165.83
2059,G#3,595.0,0.458,37,165.83
2060,F4,595.0,0.5,52,165.83
2061,C#4,595.0,0.5,52,165.83
2062,G#3,595.5,0.458,37,165.83
2063,G#3,596.0,0.458,37,165.83
2064,G#3,596.5,0.458,37,165.83
2065,C#5,596.5,0.5,60,165.83
2066,F5,596.5,0.5,60,165.83
2067,G#3,597.0,0.458,38,165.83
2068,G#3,597.5,0.458,37,165.83
2069,G#3,598.0,0.458,37,165.83
2070,F6,598.0,0.49,56,165.83
2071,C#6,598.0,0.49,56,165.83
2072,C#3,598.5,0.5,46,165.83
2073,F3,598.5,0.5,46,165.83
2074,G#3,599.0,0.458,37,165.83
2075,G#3,599.5,0.458,37,165.83
2076,F4,599.75,0.25,52,165.83
2077,C#4,599.75,0.25,52,165.83
2078,C#4,600.0,6.0,61,165.83
2079,F4,600.0,6.0,61,165.83
2080,B-4,600.0,6.0,61,165.83
2081,G#3,600.5,0.458,38,165.83
2082,G#3,601.0,0.458,38,165.83
2083,F3,601.5,0.5,40,165.83
2084,C#3,601.5,0.5,40,165.83
2085,G#3,602.0,0.458,37,165.83
2086,G#3,602.5,0.458,37,165.83
2087,C#3,603.0,0.5,37,165.83
2088,F3,603.0,0.5,37,165.83
2089,G#3,603.5,0.458,37,165.83
2090,G#3,604.0,0.458,37,165.83
2091,C#3,604.5,0.5,36,165.83
2092,F3,604.5,0.5,36,165.83
2093,G#3,605.0,0.458,37,165.83
2094,G#3,605.5,0.458,37,165.83
2095,C4,606.0,1.0,56,165.83
2096,E-4,606.0,1.0,56,165.83
2097,G#4,606.0,1.0,56,165.83
2098,G#3,606.5,0.458,38,165.83
2099,G#3,607.0,0.458,38,165.83
2100,E-3,607.5,0.5,40,165.83
2101,C3,607.5,0.5,40,165.83
2102,G#3,608.0,0.458,37,165.83
2103,G#3,608.5,0.458,37,165.83
2104,C#4,609.0,3.0,52,165.83
2105,E4,609.0,3.0,52,165.83
2106,A4,609.0,3.0,52,165.83
2107,G#3,609.5,0.458,37,165.83
2108,G#3,610.0,0.458,37,165.83
2109,C#3,610.5,0.5,36,165.83
2110,E3,610.5,0.5,36,165.83
2111,G#3,611.0,0.458,37,165.83
2112,G#3,611.5,0.458,37,165.83
2113,C4,612.0,1.0,57,165.83
2114,G#4,612.0,1.0,57,165.83
2115,E-4,612.0,1.0,57,165.83
2116,G#3,612.5,0.458,38,165.83
2117,G#3,613.0,0.458,38,165.83
2118,E-3,613.5,0.5,40,165.83
2119,C3,613.5,0.5,40,165.83
2120,G#3,614.0,0.458,37,165.83
2121,G#3,614.5,0.458,37,165.83
2122,C#5,615.0,3.0,58,165.83
2123,A5,615.0,3.0,58,165.83
2124,E5,615.0,3.0,58,165.83
2125,G#3,615.5,0.458,37,165.83
2126,G#3,616.0,0.458,37,165.83
2127,C#3,616.5,0.5,36,165.83
2128,E3,616.5,0.5,36,165.83
2129,G#3,617.0,0.458,37,165.83
2130,G#3,617.5,0.458,37,165.83
2131,E-5,618.0,1.0,56,165.83
2132,G#5,618.0,1.0,56,165.83
2133,C5,618.0,1.0,56,165.83
2134,G#3,618.5,0.458,37,165.83
2135,G#3,619.0,0.458,36,165.83
2136,E-3,619.5,0.5,38,165.83
2137,C3,619.5,0.5,38,165.83
2138,G#3,620.0,0.458,34,165.83
2139,G#3,620.5,0.458,34,165.83
2140,D4,621.0,1.0,46,165.83
2141,B3,621.0,1.0,46,165.83
2142,G#4,621.0,1.0,46,165.83
2143,G#3,621.5,0.458,32,165.83
2144,G#3,622.0,0.458,32,165.83
2145,B2,622.5,0.5,30,165.83
2146,D3,622.5,0.5,30,165.83
2147,G#3,623.0,0.458,31,165.83
2148,G#3,623.5,0.458,30,165.83
2149,C#4,624.0,1.0,44,165.83
2150,B-3,624.0,1.0,44,165.83
2151,G4,624.0,1.0,44,165.83
2152,G#3,624.5,0.458,31,165.83
2153,G#3,625.0,0.458,30,165.83
2154,C#3,625.5,0.5,32,165.83
2155,B-2,625.5,0.5,32,165.83
2156,G#3,626.0,0.458,28,165.83
2157,G#3,626.5,0.458,28,165.83
2158,A3,627.0,1.0,39,165.83
2159,C4,627.0,1.0,39,165.83
2160,F#4,627.0,1.0,39,165.83
2161,G#3,627.5,0.458,27,165.83
2162,G#3,628.0,0.458,27,165.83
2163,C3,628.5,0.5,25,165.83
2164,A2,628.5,0.5,25,165.83
2165,G#3,629.0,0.458,26,165.83
2166,G#3,629.5,0.458,25,165.83
2167,F#4,630.0,1.0,47,165.83
2168,C4,630.0,1.0,47,165.83
2169,G#3,630.0,1.0,47,165.83
2170,G#2,630.5,1.0,44,165.83
2171,G2,631.0,0.5,39,165.83
2172,G#2,631.5,1.0,44,165.83
2173,B-2,632.0,0.5,41,165.83
2174,G#2,632.5,1.0,45,165.83
2175,E-5,633.0,0.5,67,165.83
2176,F#2,633.0,0.5,41,165.83
2177,F5,633.5,0.5,61,165.83
2178,G#2,633.5,2.5,41,165.83
2179,E-5,634.0,0.5,59,165.83
2180,F#2,634.0,0.5,48,165.83
2181,C#5,634.5,0.5,69,165.83
2182,F2,634.5,0.5,42,165.83
2183,E-5,635.0,0.5,66,165.83
2184,F#2,635.0,0.5,42,165.83
2185,C#5,635.5,0.5,64,165.83
2186,F2,635.5,0.5,47,165.83
2187,C5,636.0,0.5,70,165.83
2188,E-2,636.0,0.5,55,165.83
2189,F#5,636.5,0.5,66,165.83
2190,G#2,636.5,1.0,48,165.83
2191,G2,637.0,0.5,42,165.83
2192,G#2,637.5,1.0,48,165.83
2193,B-2,638.0,0.5,45,165.83
2194,G#2,638.5,3.5,49,165.83
2195,F#5,639.0,0.5,73,165.83
2196,E-2,639.0,0.5,46,165.83
2197,G#5,639.5,0.5,70,165.83
2198,F2,639.5,0.5,46,165.83
2199,F#5,640.0,0.5,70,165.83
2200,E-2,640.0,0.5,50,165.83
2201,F5,640.5,0.5,74,165.83
2202,C#2,640.5,0.5,47,165.83
2203,F#5,641.0,0.5,71,165.83
2204,E-2,641.0,0.5,47,165.83
2205,F5,641.5,0.5,68,165.83
2206,C#2,641.5,0.5,51,165.83
2207,E-5,642.0,0.5,81,165.83
2208,C2,642.0,0.5,57,165.83
2209,E-6,642.5,0.5,72,165.83
2210,G#2,642.5,1.0,52,165.83
2211,G2,643.0,0.5,47,165.83
2212,G#2,643.5,1.0,52,165.83
2213,B-2,644.0,0.5,49,165.83
2214,G#2,644.5,3.5,53,165.83
2215,E-6,645.0,0.5,83,165.83
2216,C2,645.0,0.5,50,165.83
2217,F6,645.5,0.5,77,165.83
2218,C#2,645.5,0.5,50,165.83
2219,E-6,646.0,0.5,73,165.83
2220,C2,646.0,0.5,54,165.83
2221,C#6,646.5,0.5,77,165.83
2222,B-1,646.5,0.5,50,165.83
2223,E-6,647.0,0.5,75,165.83
2224,C2,647.0,0.5,51,165.83
2225,C#6,647.5,0.5,73,165.83
2226,B-1,647.5,0.5,51,165.83
2227,C6,648.0,0.5,76,165.83
2228,G#1,648.0,0.5,55,165.83
2229,C#6,648.5,0.5,75,165.83
2230,G1,648.5,0.5,49,165.83
2231,C6,649.0,0.5,72,165.83
2232,G#1,649.0,0.5,49,165.83
2233,B-5,649.5,0.5,76,165.83
2234,B-1,649.5,0.5,53,165.83
2235,C6,650.0,0.5,73,165.83
2236,G#1,650.0,0.5,46,165.83
2237,B-5,650.5,0.5,69,165.83
2238,B-1,650.5,0.5,45,165.83
2239,G#5,651.0,0.5,74,165.83
2240,B1,651.0,0.5,50,165.83
2241,B-5,651.5,0.5,70,165.83
2242,B-1,651.5,0.5,44,165.83
2243,G#5,652.0,0.5,67,165.83
2244,B1,652.0,0.5,42,165.83
2245,F#5,652.5,0.5,72,165.83
2246,C2,652.5,0.5,47,165.83
2247,G#5,653.0,0.5,66,165.83
2248,B1,653.0,0.5,40,165.83
2249,F#5,653.5,0.5,63,165.83
2250,C2,653.5,0.5,40,165.83
2251,F5,654.0,1.0,73,165.83
2252,C#2,654.0,0.5,36,165.83
2253,C#3,654.5,0.5,28,165.83
2254,F2,654.5,0.5,28,165.83
2255,G#2,654.5,0.5,28,165.83
2256,C#2,655.0,0.5,33,165.83
2257,C#3,655.5,0.5,31,165.83
2258,F2,655.5,0.5,31,165.83
2259,G#2,655.5,0.5,31,165.83
2260,C#2,656.0,0.5,33,165.83
2261,C#3,656.5,0.5,28,165.83
2262,G#2,656.5,0.5,28,165.83
2263,F2,656.5,0.5,28,165.83
2264,C#2,657.0,0.5,36,165.83
2265,C#3,657.5,0.5,28,165.83
2266,F2,657.5,0.5,28,165.83
2267,G#2,657.5,0.5,28,165.83
2268,C#2,658.0,0.5,33,165.83
2269,F4,658.5,1.25,50,165.83
2270,F3,658.5,1.25,50,165.83
2271,G#2,658.5,0.5,31,165.83
2272,F2,658.5,0.5,31,165.83
2273,C#3,658.5,0.5,31,165.83
2274,C#2,659.0,0.5,33,165.83
2275,C#3,659.5,0.5,30,165.83
2276,F2,659.5,0.5,30,165.83
2277,G#2,659.5,0.5,30,165.83
2278,G#4,659.75,0.25,44,165.83
2279,G#3,659.75,0.25,44,165.83
2280,C#2,660.0,0.5,36,165.83
2281,C#5,660.0,1.5,51,165.83
2282,C#4,660.0,1.5,51,165.83
2283,C#3,660.5,0.5,28,165.83
2284,G#2,660.5,0.5,28,165.83
2285,F2,660.5,0.5,28,165.83
2286,C#2,661.0,0.5,33,165.83
2287,F5,661.5,1.25,54,165.83
2288,F4,661.5,1.25,54,165.83
2289,C#3,661.5,0.5,31,165.83
2290,G#2,661.5,0.5,31,165.83
2291,F2,661.5,0.5,31,165.83
2292,C#2,662.0,0.5,33,165.83
2293,F2,662.5,0.5,28,165.83
2294,C#3,662.5,0.5,28,165.83
2295,G#2,662.5,0.5,28,165.83
2296,C#5,662.75,0.25,48,165.83
2297,C#4,662.75,0.25,48,165.83
2298,E-2,663.0,0.5,36,165.83
2299,C5,663.0,1.5,51,165.83
2300,C4,663.0,1.5,51,165.83
2301,E-3,663.5,0.5,28,165.83
2302,F#2,663.5,0.5,28,165.83
2303,G#2,663.5,0.5,28,165.83
2304,E-2,664.0,0.5,33,165.83
2305,E-4,664.5,1.25,54,165.83
2306,E-5,664.5,1.25,54,165.83
2307,G#2,664.5,0.5,31,165.83
2308,F#2,664.5,0.5,31,165.83
2309,E-3,664.5,0.5,31,165.83
2310,E-2,665.0,0.5,33,165.83
2311,F#2,665.5,0.5,30,165.83
2312,G#2,665.5,0.5,30,165.83
2313,E-3,665.5,0.5,30,165.83
2314,C4,665.75,0.25,48,165.83
2315,C5,665.75,0.25,48,165.83
2316,F2,666.0,0.5,36,165.83
2317,C#5,666.0,1.5,51,165.83
2318,C#4,666.0,1.5,51,165.83
2319,G#2,666.5,0.5,28,165.83
2320,F3,666.5,0.5,28,165.83
2321,C#3,666.5,0.5,28,165.83
2322,F2,667.0,0.5,33,165.83
2323,G#3,667.5,3.0,52,165.83
2324,G#4,667.5,3.0,52,165.83
2325,F3,667.5,0.5,31,165.83
2326,C#3,667.5,0.5,31,165.83
2327,G#2,667.5,0.5,31,165.83
2328,F2,668.0,0.5,33,165.83
2329,G#2,668.5,0.5,28,165.83
2330,F3,668.5,0.5,28,165.83
2331,C#3,668.5,0.5,28,165.83
2332,F2,669.0,0.5,36,165.83
2333,F3,669.5,0.5,28,165.83
2334,G#2,669.5,0.5,28,165.83
2335,C#3,669.5,0.5,28,165.83
2336,F2,670.0,0.5,33,165.83
2337,B-3,670.5,1.25,54,165.83
2338,B-4,670.5,1.25,54,165.83
2339,C#3,670.5,0.5,31,165.83
2340,F#3,670.5,0.5,31,165.83
2341,E-3,670.5,0.5,31,165.83
2342,F#2,671.0,0.5,33,165.83
2343,C#3,671.5,0.5,30,165.83
2344,F#3,671.5,0.5,30,165.83
2345,E-3,671.5,0.5,30,165.83
2346,F#4,671.75,0.25,53,165.83
2347,F4,672.0,1.5,59,165.83
2348,G#2,672.0,0.5,37,165.83
2349,C#3,672.5,0.5,29,165.83
2350,G#3,672.5,0.5,29,165.83
2351,F3,672.5,0.5,29,165.83
2352,G#2,673.0,0.5,34,165.83
2353,G#4,673.5,1.25,61,165.83
2354,C#3,673.5,0.5,33,165.83
2355,G#3,673.5,0.5,33,165.83
2356,F3,673.5,0.5,33,165.83
2357,G#2,674.0,0.5,34,165.83
2358,C#3,674.5,0.5,30,165.83
2359,G#3,674.5,0.5,30,165.83
2360,F3,674.5,0.5,30,165.83
2361,F4,674.75,0.25,55,165.83
2362,E-4,675.0,1.5,63,165.83
2363,G#2,675.0,0.5,40,165.83
2364,C3,675.5,0.5,31,165.83
2365,G#3,675.5,0.5,31,165.83
2366,E-3,675.5,0.5,31,165.83
2367,G#2,676.0,0.5,36,165.83
2368,F#4,676.5,1.25,66,165.83
2369,C3,676.5,0.5,35,165.83
2370,G#3,676.5,0.5,35,165.83
2371,E-3,676.5,0.5,35,165.83
2372,G#2,677.0,0.5,37,165.83
2373,C3,677.5,0.5,32,165.83
2374,G#3,677.5,0.5,32,165.83
2375,E-3,677.5,0.5,32,165.83
2376,E-4,677.75,0.25,59,165.83
2377,C4,678.0,1.5,72,165.83
2378,A2,678.0,0.5,51,165.83
2379,C3,678.5,0.5,36,165.83
2380,F3,678.5,0.5,36,165.83
2381,A3,678.5,0.5,36,165.83
2382,A2,679.0,0.5,45,165.83
2383,F4,679.5,3.0,63,165.83
2384,C3,679.5,0.5,32,165.83
2385,F3,679.5,0.5,32,165.83
2386,A3,679.5,0.5,32,165.83
2387,A2,680.0,0.5,36,165.83
2388,C3,680.5,0.5,31,165.83
2389,F3,680.5,0.5,31,165.83
2390,A3,680.5,0.5,31,165.83
2391,A2,681.0,0.5,39,165.83
2392,C3,681.5,0.5,31,165.83
2393,F3,681.5,0.5,31,165.83
2394,A3,681.5,0.5,31,165.83
2395,A2,682.0,0.5,39,165.83
2396,C#5,682.5,1.25,58,165.83
2397,C#4,682.5,1.25,58,165.83
2398,F3,682.5,0.5,30,165.83
2399,B-3,682.5,0.5,30,165.83
2400,C#3,682.5,0.5,30,165.83
2401,B-2,683.0,0.5,33,165.83
2402,C#3,683.5,0.5,29,165.83
2403,F3,683.5,0.5,29,165.83
2404,B-3,683.5,0.5,29,165.83
2405,F5,683.75,0.25,56,165.83
2406,F4,683.75,0.25,56,165.83
2407,B-2,684.0,0.5,37,165.83
2408,B-5,684.0,1.5,56,165.83
2409,B-4,684.0,1.5,56,165.83
2410,C#3,684.5,0.5,29,165.83
2411,F3,684.5,0.5,29,165.83
2412,B-3,684.5,0.5,29,165.83
2413,B-2,685.0,0.5,36,165.83
2414,C#6,685.5,1.25,60,165.83
2415,C#5,685.5,1.25,60,165.83
2416,C#3,685.5,0.5,33,165.83
2417,F3,685.5,0.5,33,165.83
2418,B-3,685.5,0.5,33,165.83
2419,B-2,686.0,0.5,37,165.83
2420,F3,686.5,0.5,32,165.83
2421,B-3,686.5,0.5,32,165.83
2422,C#3,686.5,0.5,32,165.83
2423,B-4,686.75,0.25,56,165.83
2424,B-5,686.75,0.25,56,165.83
2425,C3,687.0,0.5,40,165.83
2426,A5,687.0,1.5,59,165.83
2427,A4,687.0,1.5,59,165.83
2428,E-3,687.5,0.5,32,165.83
2429,F3,687.5,0.5,32,165.83
2430,C4,687.5,0.5,32,165.83
2431,C3,688.0,0.5,39,165.83
2432,C5,688.5,1.25,62,165.83
2433,C6,688.5,1.25,62,165.83
2434,E-3,688.5,0.5,37,165.83
2435,C4,688.5,0.5,37,165.83
2436,F3,688.5,0.5,37,165.83
2437,C3,689.0,0.5,40,165.83
2438,F3,689.5,0.5,36,165.83
2439,C4,689.5,0.5,36,165.83
2440,E-3,689.5,0.5,36,165.83
2441,A4,689.75,0.25,60,165.83
2442,A5,689.75,0.25,60,165.83
2443,C#3,690.0,0.5,37,165.83
2444,B-4,690.0,1.5,54,165.83
2445,B-5,690.0,1.5,54,165.83
2446,F3,690.5,0.5,29,165.83
2447,B-3,690.5,0.5,29,165.83
2448,C#4,690.5,0.5,29,165.83
2449,C#3,691.0,0.5,36,165.83
2450,F5,691.5,3.0,52,165.83
2451,F4,691.5,3.0,52,165.83
2452,F3,691.5,0.5,33,165.83
2453,B-3,691.5,0.5,33,165.83
2454,C#4,691.5,0.5,33,165.83
2455,C#3,692.0,0.5,37,165.83
2456,B-3,692.5,0.5,32,165.83
2457,C#4,692.5,0.5,32,165.83
2458,F3,692.5,0.5,32,165.83
2459,C#3,693.0,0.5,40,165.83
2460,F3,693.5,0.5,32,165.83
2461,B-3,693.5,0.5,32,165.83
2462,C#4,693.5,0.5,32,165.83
2463,C#3,694.0,0.5,39,165.83
2464,F#5,694.5,1.25,68,165.83
2465,F#4,694.5,1.5,62,165.83
2466,F#3,694.5,0.5,31,165.83
2467,E-4,694.5,0.5,31,165.83
2468,B-3,694.5,0.5,31,165.83
2469,E-3,695.0,0.5,33,165.83
2470,F#3,695.5,0.5,30,165.83
2471,E-4,695.5,0.5,30,165.83
2472,B-3,695.5,0.5,30,165.83
2473,E-5,695.75,0.25,63,165.83
2474,C#5,696.0,1.5,70,165.83
2475,F3,696.0,0.5,37,165.83
2476,B-3,696.5,0.5,29,165.83
2477,F4,696.5,0.5,29,165.83
2478,C#4,696.5,0.5,29,165.83
2479,F3,697.0,0.5,34,165.83
2480,F5,697.5,1.25,67,165.83
2481,B-3,697.5,0.5,33,165.83
2482,F4,697.5,0.5,33,165.83
2483,C#4,697.5,0.5,33,165.83
2484,F3,698.0,0.5,34,165.83
2485,C#4,698.5,0.5,30,165.83
2486,F4,698.5,0.5,30,165.83
2487,B-3,698.5,0.5,30,165.83
2488,C#5,698.75,0.25,61,165.83
2489,C5,699.0,1.5,70,165.83
2490,F3,699.0,0.5,40,165.83
2491,C4,699.5,0.5,32,165.83
2492,A3,699.5,0.5,32,165.83
2493,E-4,699.5,0.5,32,165.83
2494,F3,700.0,0.5,37,165.83
2495,E-5,700.5,1.25,71,165.83
2496,C4,700.5,0.5,36,165.83
2497,A3,700.5,0.5,36,165.83
2498,E-4,700.5,0.5,36,165.83
2499,F3,701.0,0.5,38,165.83
2500,C4,701.5,0.5,33,165.83
2501,A3,701.5,0.5,33,165.83
2502,E-4,701.5,0.5,33,165.83
2503,C5,701.75,0.25,67,165.83
2504,B-4,702.0,1.5,78,165.83
2505,F#3,702.0,0.5,53,165.83
2506,F#4,702.5,0.5,37,165.83
2507,C#4,702.5,0.5,37,165.83
2508,B-3,702.5,0.5,37,165.83
2509,F#3,703.0,0.5,47,165.83
2510,C#5,703.5,3.0,73,165.83
2511,F#4,703.5,0.5,39,165.83
2512,C#4,703.5,0.5,39,165.83
2513,B-3,703.5,0.5,39,165.83
2514,F#3,704.0,0.5,43,165.83
2515,F#4,704.5,0.5,38,165.83
2516,C#4,704.5,0.5,38,165.83
2517,B-3,704.5,0.5,38,165.83
2518,F#3,705.0,0.5,47,165.83
2519,F#4,705.5,0.5,37,165.83
2520,C#4,705.5,0.5,37,165.83
2521,B-3,705.5,0.5,37,165.83
2522,F#3,706.0,0.5,47,165.83
2523,B-4,706.5,1.25,76,165.83
2524,B-5,706.5,1.25,76,165.83
2525,B-3,706.5,0.5,39,165.83
2526,C#4,706.5,0.5,39,165.83
2527,F#4,706.5,0.5,39,165.83
2528,F#3,707.0,0.5,42,165.83
2529,F#4,707.5,0.5,38,165.83
2530,B-3,707.5,0.5,38,165.83
2531,C#4,707.5,0.5,38,165.83
2532,C#6,707.75,0.25,72,165.83
2533,C#5,707.75,0.25,72,165.83
2534,F#3,708.0,0.5,48,165.83
2535,F#5,708.0,1.5,76,165.83
2536,F#6,708.0,1.5,76,165.83
2537,F#4,708.5,0.5,38,165.83
2538,C#4,708.5,0.5,38,165.83
2539,B-3,708.5,0.5,38,165.83
2540,F#3,709.0,0.5,47,165.83
2541,B-5,709.5,1.25,78,165.83
2542,B-6,709.5,1.25,78,165.83
2543,F#4,709.5,0.5,43,165.83
2544,C#4,709.5,0.5,43,165.83
2545,B-3,709.5,0.5,43,165.83
2546,F#3,710.0,0.5,48,165.83
2547,B-3,710.5,0.5,41,165.83
2548,F#4,710.5,0.5,41,165.83
2549,C#4,710.5,0.5,41,165.83
2550,F#6,710.75,0.25,72,165.83
2551,F#5,710.75,0.25,72,165.83
2552,G#3,711.0,0.5,52,165.83
2553,F5,711.0,1.5,77,165.83
2554,F6,711.0,1.5,77,165.83
2555,G#4,711.5,0.5,41,165.83
2556,B3,711.5,0.5,41,165.83
2557,C#4,711.5,0.5,41,165.83
2558,G#3,712.0,0.5,50,165.83
2559,G#5,712.5,1.25,81,165.83
2560,G#6,712.5,1.25,81,165.83
2561,C#4,712.5,0.5,48,165.83
2562,G#4,712.5,0.5,48,165.83
2563,B3,712.5,0.5,48,165.83
2564,G#3,713.0,0.5,52,165.83
2565,B3,713.5,0.5,46,165.83
2566,G#4,713.5,0.5,46,165.83
2567,C#4,713.5,0.5,46,165.83
2568,F5,713.75,0.25,78,165.83
2569,F6,713.75,0.25,78,165.83
2570,B-3,714.0,0.5,48,165.83
2571,F#5,714.0,1.5,84,165.83
2572,F#6,714.0,1.5,84,165.83
2573,B-4,714.5,0.5,38,165.83
2574,C#4,714.5,0.5,38,165.83
2575,F#4,714.5,0.5,38,165.83
2576,B-3,715.0,0.5,47,165.83
2577,C#5,715.5,4.5,74,165.83
2578,C#6,715.5,4.5,74,165.83
2579,B-4,715.5,0.5,36,165.83
2580,C#4,715.5,0.5,36,165.83
2581,F#4,715.5,0.5,36,165.83
2582,B-3,716.0,0.5,40,165.83
2583,C#4,716.5,0.5,37,165.83
2584,F#4,716.5,0.5,37,165.83
2585,B-4,716.5,0.5,37,165.83
2586,B-3,717.0,0.5,50,165.83
2587,B-4,717.5,0.5,41,165.83
2588,F#4,717.5,0.5,41,165.83
2589,C#4,717.5,0.5,41,165.83
2590,B-3,718.0,0.5,52,165.83
2591,F#4,718.5,0.5,42,165.83
2592,B-4,718.5,0.5,42,165.83
2593,C#4,718.5,0.5,42,165.83
2594,B-3,719.0,0.5,48,165.83
2595,F#4,719.5,0.5,46,165.83
2596,B-4,719.5,0.5,46,165.83
2597,C#4,719.5,0.5,46,165.83
2598,B3,720.0,0.5,57,165.83
2599,F#6,720.0,1.5,84,165.83
2600,F#5,720.0,1.5,84,165.83
2601,B4,720.5,0.5,38,165.83
2602,D4,720.5,0.5,38,165.83
2603,F#4,720.5,0.5,38,165.83
2604,B3,721.0,0.5,47,165.83
2605,D6,721.5,4.5,76,165.83
2606,D5,721.5,4.5,76,165.83
2607,B4,721.5,0.5,36,165.83
2608,D4,721.5,0.5,36,165.83
2609,F#4,721.5,0.5,36,165.83
2610,B3,722.0,0.5,40,165.83
2611,D4,722.5,0.5,37,165.83
2612,F#4,722.5,0.5,37,165.83
2613,B4,722.5,0.5,37,165.83
2614,B3,723.0,0.5,50,165.83
2615,B4,723.5,0.5,41,165.83
2616,F#4,723.5,0.5,41,165.83
2617,D4,723.5,0.5,41,165.83
2618,B3,724.0,0.5,53,165.83
2619,F#4,724.5,0.5,43,165.83
2620,B4,724.5,0.5,43,165.83
2621,D4,724.5,0.5,43,165.83
2622,B3,725.0,0.5,49,165.83
2623,F#4,725.5,0.5,47,165.83
2624,B4,725.5,0.5,47,165.83
2625,D4,725.5,0.5,47,165.83
2626,B3,726.0,0.5,60,165.83
2627,G5,726.0,1.5,96,165.83
2628,G6,726.0,1.5,96,165.83
2629,D4,726.5,0.5,39,165.83
2630,G4,726.5,0.5,39,165.83
2631,B4,726.5,0.5,39,165.83
2632,B3,727.0,0.5,49,165.83
2633,D5,727.5,4.5,82,165.83
2634,D6,727.5,4.5,82,165.83
2635,D4,727.5,0.5,38,165.83
2636,G4,727.5,0.5,38,165.83
2637,B4,727.5,0.5,38,165.83
2638,B3,728.0,0.5,42,165.83
2639,G4,728.5,0.5,39,165.83
2640,B4,728.5,0.5,39,165.83
2641,D4,728.5,0.5,39,165.83
2642,B3,729.0,0.5,53,165.83
2643,D4,729.5,0.5,43,165.83
2644,G4,729.5,0.5,43,165.83
2645,B4,729.5,0.5,43,165.83
2646,B3,730.0,0.5,56,165.83
2647,D4,730.5,0.5,45,165.83
2648,B4,730.5,0.5,45,165.83
2649,G4,730.5,0.5,45,165.83
2650,B3,731.0,0.5,51,165.83
2651,D4,731.5,0.5,49,165.83
2652,B4,731.5,0.5,49,165.83
2653,G4,731.5,0.5,49,165.83
2654,C4,732.0,0.5,64,165.83
2655,G5,732.0,1.5,102,165.83
2656,G6,732.0,1.5,102,165.83
2657,E4,732.5,0.5,41,165.83
2658,G4,732.5,0.5,41,165.83
2659,C5,732.5,0.5,41,165.83
2660,C4,733.0,0.5,51,165.83
2661,E6,733.5,4.5,87,165.83
2662,E5,733.5,4.5,87,165.83
2663,E4,733.5,0.5,41,165.83
2664,G4,733.5,0.5,41,165.83
2665,C5,733.5,0.5,41,165.83
2666,C4,734.0,0.5,47,165.83
2667,G4,734.5,0.5,41,165.83
2668,C5,734.5,0.5,41,165.83
2669,E4,734.5,0.5,41,165.83
2670,C4,735.0,0.5,57,165.83
2671,E4,735.5,0.5,46,165.83
2672,G4,735.5,0.5,46,165.83
2673,C5,735.5,0.5,46,165.83
2674,C4,736.0,0.5,59,165.83
2675,E4,736.5,0.5,49,165.83
2676,C5,736.5,0.5,49,165.83
2677,G4,736.5,0.5,49,165.83
2678,C4,737.0,0.5,55,165.83
2679,E4,737.5,0.5,52,165.83
2680,C5,737.5,0.5,52,165.83
2681,G4,737.5,0.5,52,165.83
2682,C#4,738.0,3.0,102,165.83
2683,E4,738.25,2.75,78,165.83
2684,G4,738.5,2.5,78,165.83
2685,B-4,738.75,2.25,78,165.83
2686,C#5,739.0,2.0,78,165.83
2687,G5,739.5,1.25,75,165.83
2688,B-5,739.75,0.75,71,165.83
2689,C#6,740.0,0.25,70,165.83
2690,E6,740.25,0.5,70,165.83
2691,G6,740.5,0.25,73,165.83
2692,G5,740.75,0.25,71,165.83
2693,E4,741.0,3.0,101,165.83
2694,G4,741.25,2.75,78,165.83
2695,B-4,741.5,2.5,78,165.83
2696,C#5,741.75,2.25,78,165.83
2697,E5,742.0,2.0,79,165.83
2698,G5,742.5,1.25,77,165.83
2699,B-5,742.75,0.75,72,165.83
2700,C#6,743.0,0.25,72,165.83
2701,E6,743.25,0.5,70,165.83
2702,G6,743.5,0.25,74,165.83
2703,G5,743.75,0.25,72,165.83
2704,G4,744.0,3.0,101,165.83
2705,B-4,744.25,2.75,84,165.83
2706,C#5,744.5,2.5,84,165.83
2707,E5,744.75,2.25,84,165.83
2708,G5,745.5,1.25,77,165.83
2709,B-5,745.75,0.75,71,165.83
2710,C#6,746.0,0.25,71,165.83
2711,E6,746.25,0.5,70,165.83
2712,G6,746.5,0.25,76,165.83
2713,G5,746.75,0.25,71,165.83
2714,B-4,747.0,3.0,100,165.83
2715,C#5,747.25,2.75,84,165.83
2716,E5,747.5,2.5,86,165.83
2717,G5,748.5,1.25,77,165.83
2718,B-5,748.75,0.75,71,165.83
2719,C#6,749.0,0.25,73,165.83
2720,E6,749.25,0.5,70,165.83
2721,G6,749.5,0.25,76,165.83
2722,G5,749.75,0.25,71,165.83
2723,C#5,750.0,1.5,96,165.83
2724,E5,750.25,1.25,84,165.83
2725,B-5,750.5,1.0,77,165.83
2726,G5,750.5,1.0,84,165.83
2727,C#6,750.75,0.75,71,165.83
2728,E6,751.0,0.25,74,165.83
2729,G6,751.25,0.25,70,165.83
2730,E5,751.5,1.5,98,165.83
2731,G5,751.75,1.25,84,165.83
2732,C#6,752.0,1.0,77,165.83
2733,B-5,752.0,1.0,84,165.83
2734,E6,752.25,0.75,72,165.83
2735,G6,752.5,0.25,74,165.83
2736,B-6,752.75,0.25,70,165.83
2737,G5,753.0,0.25,100,165.83
2738,B-5,753.25,0.25,84,165.83
2739,C#6,753.5,0.25,84,165.83
2740,E6,753.75,0.25,73,165.83
2741,G6,754.0,0.25,74,165.83
2742,B-6,754.25,0.25,73,165.83
2743,B-5,754.5,0.25,100,165.83
2744,C#6,754.75,0.25,84,165.83
2745,E6,755.0,0.25,84,165.83
2746,E6,755.25,0.25,73,165.83
2747,G6,755.5,0.25,74,165.83
2748,B-6,755.75,0.25,73,165.83
2749,C#6,756.0,0.25,102,165.83
2750,E6,756.25,0.237,84,165.83
2751,E6,756.5,0.25,77,165.83
2752,G6,756.75,0.25,75,165.83
2753,B-6,757.0,0.5,74,165.83
2754,B-5,757.5,0.25,97,165.83
2755,C#6,757.75,0.237,84,165.83
2756,C#6,758.0,0.25,77,165.83
2757,E6,758.25,0.25,75,165.83
2758,G6,758.5,0.5,74,165.83
2759,G5,759.0,0.25,96,165.83
2760,B-5,759.25,0.237,84,165.83
2761,B-5,759.5,0.25,77,165.83
2762,C#6,759.75,0.25,75,165.83
2763,E6,760.0,0.5,74,165.83
2764,E5,760.5,0.25,96,165.83
2765,G5,760.75,0.237,84,165.83
2766,G5,761.0,0.25,77,165.83
2767,B-5,761.25,0.25,75,165.83
2768,C#6,761.5,0.5,74,165.83
2769,C#5,762.0,0.25,96,165.83
2770,E5,762.25,0.237,84,165.83
2771,E5,762.5,0.25,77,165.83
2772,G5,762.75,0.25,72,165.83
2773,B-5,763.0,0.5,74,165.83
2774,B-4,763.5,0.25,96,165.83
2775,C#5,763.75,0.237,84,165.83
2776,C#5,764.0,0.25,77,165.83
2777,E5,764.25,0.25,75,165.83
2778,G5,764.5,0.5,74,165.83
2779,G4,765.0,0.25,96,165.83
2780,B-4,765.25,0.237,84,165.83
2781,B-4,765.5,0.25,77,165.83
2782,C#5,765.75,0.25,75,165.83
2783,E5,766.0,0.5,74,165.83
2784,E4,766.5,0.25,96,165.83
2785,G4,766.75,0.237,84,165.83
2786,G4,767.0,0.25,77,165.83
2787,B-4,767.25,0.25,75,165.83
2788,C#5,767.5,0.5,74,165.83
2789,C#4,768.0,0.25,91,165.83
2790,E4,768.25,0.237,80,165.83
2791,E4,768.5,0.25,72,165.83
2792,G4,768.75,0.25,71,165.83
2793,B-4,769.0,0.5,70,165.83
2794,B-3,769.5,0.25,91,165.83
2795,C#4,769.75,0.237,80,165.83
2796,C#4,770.0,0.25,72,165.83
2797,E4,770.25,0.25,71,165.83
2798,G4,770.5,0.5,70,165.83
2799,G3,771.0,0.25,91,165.83
2800,B-3,771.25,0.237,80,165.83
2801,B-3,771.5,0.25,72,165.83
2802,C#4,771.75,0.25,71,165.83
2803,E4,772.0,0.5,70,165.83
2804,E3,772.5,0.25,91,165.83
2805,G3,772.75,0.237,80,165.83
2806,G3,773.0,0.25,72,165.83
2807,B-3,773.25,0.25,71,165.83
2808,C#4,773.5,0.5,70,165.83
2809,C#3,774.0,0.25,91,165.83
2810,E3,774.25,0.237,80,165.83
2811,E3,774.5,0.25,72,165.83
2812,G3,774.75,0.25,71,165.83
2813,B-3,775.0,0.5,70,165.83
2814,B-2,775.5,0.25,91,165.83
2815,C#3,775.75,0.237,80,165.83
2816,C#3,776.0,0.25,72,165.83
2817,E3,776.25,0.25,71,165.83
2818,G3,776.5,0.5,70,165.83
2819,G2,777.0,0.25,91,165.83
2820,B-2,777.25,0.237,80,165.83
2821,B-2,777.5,0.25,72,165.83
2822,C#3,777.75,0.25,71,165.83
2823,E3,778.0,0.5,70,165.83
2824,E2,778.5,0.25,91,165.83
2825,G2,778.75,0.237,80,165.83
2826,G2,779.0,0.25,72,165.83
2827,B-2,779.25,0.25,71,165.83
2828,C#3,779.5,0.5,70,165.83
2829,C#2,780.0,1.0,104,165.83
2830,B-2,780.0,0.25,71,165.83
2831,G2,780.0,0.25,71,165.83
2832,E3,780.25,0.25,63,165.83
2833,B-2,780.5,0.25,71,165.83
2834,G2,780.5,0.25,71,165.83
2835,E3,780.75,0.25,63,165.83
2836,B-2,781.0,0.25,71,165.83
2837,G2,781.0,0.25,71,165.83
2838,E3,781.25,0.25,63,165.83
2839,C#5,781.5,0.5,106,165.83
2840,B-2,781.5,0.25,71,165.83
2841,G2,781.5,0.25,71,165.83
2842,E3,781.75,0.25,63,165.83
2843,C#5,782.0,0.5,100,165.83
2844,B-2,782.0,0.25,71,165.83
2845,G2,782.0,0.25,71,165.83
2846,E3,782.25,0.25,63,165.83
2847,C#5,782.5,0.5,100,165.83
2848,G2,782.5,0.25,71,165.83
2849,B-2,782.5,0.25,71,165.83
2850,E3,782.75,0.25,63,165.83
2851,C#5,783.0,1.0,105,165.83
2852,B-2,783.0,0.25,71,165.83
2853,G2,783.0,0.25,71,165.83
2854,E3,783.25,0.25,63,165.83
2855,G2,783.5,0.25,71,165.83
2856,B-2,783.5,0.25,71,165.83
2857,E3,783.75,0.25,63,165.83
2858,B-2,784.0,0.25,71,165.83
2859,G2,784.0,0.25,71,165.83
2860,E3,784.25,0.25,63,165.83
2861,C#2,784.5,0.5,98,165.83
2862,B-2,784.5,0.25,71,165.83
2863,G2,784.5,0.25,71,165.83
2864,E3,784.75,0.25,63,165.83
2865,C#2,785.0,0.5,93,165.83
2866,B-2,785.0,0.25,71,165.83
2867,G2,785.0,0.25,71,165.83
2868,E3,785.25,0.25,63,165.83
2869,C#2,785.5,0.5,93,165.83
2870,G2,785.5,0.25,71,165.83
2871,B-2,785.5,0.25,71,165.83
2872,E3,785.75,0.25,63,165.83
2873,C#2,786.0,1.0,100,165.83
2874,G2,786.0,0.25,71,165.83
2875,B-2,786.0,0.25,71,165.83
2876,E3,786.25,0.25,63,165.83
2877,B-2,786.5,0.25,71,165.83
2878,G2,786.5,0.25,71,165.83
2879,E3,786.75,0.25,63,165.83
2880,G2,787.0,0.25,71,165.83
2881,B-2,787.0,0.25,71,165.83
2882,E3,787.25,0.25,63,165.83
2883,C#5,787.5,0.5,106,165.83
2884,G2,787.5,0.25,71,165.83
2885,B-2,787.5,0.25,71,165.83
2886,E3,787.75,0.25,63,165.83
2887,C#5,788.0,0.5,100,165.83
2888,B-2,788.0,0.25,71,165.83
2889,G2,788.0,0.25,71,165.83
2890,E3,788.25,0.25,63,165.83
2891,C#5,788.5,0.5,100,165.83
2892,G2,788.5,0.25,71,165.83
2893,B-2,788.5,0.25,71,165.83
2894,E3,788.75,0.25,63,165.83
2895,C#5,789.0,1.0,105,165.83
2896,G2,789.0,0.25,71,165.83
2897,B-2,789.0,0.25,71,165.83
2898,E3,789.25,0.25,63,165.83
2899,G2,789.5,0.25,71,165.83
2900,B-2,789.5,0.25,71,165.83
2901,E3,789.75,0.25,63,165.83
2902,G2,790.0,0.25,71,165.83
2903,B-2,790.0,0.25,71,165.83
2904,E3,790.25,0.25,63,165.83
2905,C#2,790.5,0.5,98,165.83
2906,B-2,790.5,0.25,71,165.83
2907,G2,790.5,0.25,71,165.83
2908,E3,790.75,0.25,63,165.83
2909,C#2,791.0,0.5,93,165.83
2910,G2,791.0,0.25,71,165.83
2911,B-2,791.0,0.25,71,165.83
2912,E3,791.25,0.25,63,165.83
2913,C#2,791.5,0.5,93,165.83
2914,B-2,791.5,0.25,71,165.83
2915,G2,791.5,0.25,71,165.83
2916,E3,791.75,0.25,63,165.83
2917,C2,792.0,1.0,100,165.83
2918,B-2,792.0,0.25,71,165.83
2919,G2,792.0,0.25,71,165.83
2920,E3,792.25,0.25,63,165.83
2921,G2,792.5,0.25,71,165.83
2922,B-2,792.5,0.25,71,165.83
2923,E3,792.75,0.25,63,165.83
2924,G2,793.0,0.25,71,165.83
2925,B-2,793.0,0.25,71,165.83
2926,E3,793.25,0.25,63,165.83
2927,C#5,793.5,0.5,106,165.83
2928,B-2,793.5,0.25,71,165.83
2929,G2,793.5,0.25,71,165.83
2930,E3,793.75,0.25,63,165.83
2931,C#5,794.0,0.5,100,165.83
2932,G2,794.0,0.25,71,165.83
2933,B-2,794.0,0.25,71,165.83
2934,E3,794.25,0.25,63,165.83
2935,C#5,794.5,0.5,100,165.83
2936,B-2,794.5,0.25,71,165.83
2937,G2,794.5,0.25,71,165.83
2938,E3,794.75,0.25,63,165.83
2939,C5,795.0,1.0,105,165.83
2940,B-2,795.0,0.25,71,165.83
2941,G2,795.0,0.25,71,165.83
2942,E3,795.25,0.25,63,165.83
2943,G2,795.5,0.25,71,165.83
2944,B-2,795.5,0.25,71,165.83
2945,E3,795.75,0.25,63,165.83
2946,G2,796.0,0.25,71,165.83
2947,B-2,796.0,0.25,71,165.83
2948,E3,796.25,0.25,63,165.83
2949,C#2,796.5,0.5,98,165.83
2950,B-2,796.5,0.25,71,165.83
2951,G2,796.5,0.25,71,165.83
2952,E3,796.75,0.25,63,165.83
2953,C#2,797.0,0.5,93,165.83
2954,G2,797.0,0.25,71,165.83
2955,B-2,797.0,0.25,71,165.83
2956,E3,797.25,0.25,63,165.83
2957,C#2,797.5,0.5,93,165.83
2958,G2,797.5,0.25,71,165.83
2959,B-2,797.5,0.25,71,165.83
2960,E3,797.75,0.25,63,165.83
2961,C2,798.0,1.0,100,165.83
2962,G2,798.0,0.25,71,165.83
2963,B-2,798.0,0.25,71,165.83
2964,E3,798.25,0.25,63,165.83
2965,G2,798.5,0.25,71,165.83
2966,B-2,798.5,0.25,71,165.83
2967,E3,798.75,0.25,63,165.83
2968,G2,799.0,0.25,71,165.83
2969,B-2,799.0,0.25,71,165.83
2970,E3,799.25,0.25,63,165.83
2971,C#5,799.5,0.5,106,165.83
2972,B-2,799.5,0.25,71,165.83
2973,G2,799.5,0.25,71,165.83
2974,E3,799.75,0.25,63,165.83
2975,C#5,800.0,0.5,100,165.83
2976,G2,800.0,0.25,71,165.83
2977,B-2,800.0,0.25,71,165.83
2978,E3,800.25,0.25,63,165.83
2979,C#5,800.5,0.5,100,165.83
2980,B-2,800.5,0.25,71,165.83
2981,G2,800.5,0.25,71,165.83
2982,E3,800.75,0.25,63,165.83
2983,C5,801.0,1.0,105,165.83
2984,B-2,801.0,0.25,71,165.83
2985,G2,801.0,0.25,71,165.83
2986,E3,801.25,0.25,63,165.83
2987,G2,801.5,0.25,71,165.83
2988,B-2,801.5,0.25,71,165.83
2989,E3,801.75,0.25,63,165.83
2990,G2,802.0,0.25,71,165.83
2991,B-2,802.0,0.25,71,165.83
2992,E3,802.25,0.25,63,165.83
2993,C#2,802.5,0.5,110,165.83
2994,G2,802.5,0.25,71,165.83
2995,B-2,802.5,0.25,71,165.83
2996,E3,802.75,0.25,63,165.83
2997,C#2,803.0,0.5,105,165.83
2998,B-2,803.0,0.25,71,165.83
2999,G2,803.0,0.25,71,165.83
3000,E3,803.25,0.25,63,165.83
3001,C#2,803.5,0.5,105,165.83
3002,G2,803.5,0.25,71,165.83
3003,B-2,803.5,0.25,71,165.83
3004,E3,803.75,0.25,63,165.83
3005,C2,804.0,0.458,59,165.83
3006,G2,804.0,1.0,65,165.83
3007,E3,804.0,1.0,65,165.83
3008,B-2,804.0,1.0,65,165.83
3009,C2,804.5,0.458,30,165.83
3010,C2,805.0,0.458,30,165.83
3011,C2,805.5,0.458,32,165.83
3012,C2,806.0,0.458,27,165.83
3013,C2,806.5,0.458,27,165.83
3014,C2,807.0,0.458,30,165.83
3015,C2,807.5,0.458,24,165.83
3016,C2,808.0,0.458,24,165.83
3017,C2,808.5,0.458,28,165.83
3018,C2,809.0,0.458,22,165.83
3019,C2,809.5,0.458,22,165.83
3020,C2,810.0,0.458,24,165.83
3021,C2,810.5,0.458,22,165.83
3022,C2,811.0,0.458,22,165.83
3023,C2,811.5,0.458,24,165.83
3024,C2,812.0,0.458,20,165.83
3025,C2,812.5,0.458,20,165.83
3026,C2,813.0,0.458,23,165.83
3027,C2,813.5,0.458,18,165.83
3028,C2,814.0,0.458,23,165.83
3029,C2,814.5,0.458,23,165.83
3030,C3,814.5,1.25,31,165.83
3031,C4,814.5,1.25,31,165.83
3032,C2,815.0,0.458,20,165.83
3033,C2,815.5,0.458,22,165.83
3034,G#3,815.75,0.25,28,165.83
3035,G#2,815.75,0.25,28,165.83
3036,C2,816.0,0.458,23,165.83
3037,F2,816.0,4.5,25,165.83
3038,F3,816.0,4.5,25,165.83
3039,C2,816.5,0.458,20,165.83
3040,C2,817.0,0.458,22,165.83
3041,C2,817.5,0.458,23,165.83
3042,C2,818.0,0.458,20,165.83
3043,C2,818.5,0.458,22,165.83
3044,C2,819.0,0.458,23,165.83
3045,C2,819.5,0.458,20,165.83
3046,C2,820.0,0.458,22,165.83
3047,C2,820.5,0.458,23,165.83
3048,G#3,820.5,1.25,31,165.83
3049,G#2,820.5,1.25,31,165.83
3050,C2,821.0,0.458,20,165.83
3051,C2,821.5,0.458,22,165.83
3052,C3,821.75,0.25,27,165.83
3053,C4,821.75,0.25,27,165.83
3054,C2,822.0,0.458,23,165.83
3055,F4,822.0,1.5,31,165.83
3056,F3,822.0,1.5,31,165.83
3057,C2,822.5,0.458,20,165.83
3058,C2,823.0,0.458,22,165.83
3059,C2,823.5,0.458,23,165.83
3060,G#4,823.5,1.25,32,165.83
3061,G#3,823.5,1.25,32,165.83
3062,C2,824.0,0.458,20,165.83
3063,C2,824.5,0.458,22,165.83
3064,C5,824.75,0.25,28,165.83
3065,C4,824.75,0.25,28,165.83
3066,C2,825.0,0.458,23,165.83
3067,F5,825.0,1.49,36,165.83
3068,F4,825.0,1.49,36,165.83
3069,C2,825.5,0.458,20,165.83
3070,C2,826.0,0.458,22,165.83
3071,C2,826.5,0.458,23,165.83
3072,F4,826.5,1.5,30,165.83
3073,F3,826.5,1.5,30,165.83
3074,C2,827.0,0.458,20,165.83
3075,C2,827.5,0.458,22,165.83
3076,C5,828.0,2.5,35,165.83
3077,C2,828.0,0.458,23,165.83
3078,G4,828.0,3.0,26,165.83
3079,E4,828.0,3.0,26,165.83
3080,C2,828.5,0.458,20,165.83
3081,C2,829.0,0.458,22,165.83
3082,C2,829.5,0.458,23,165.83
3083,C2,830.0,0.458,20,165.83
3084,D5,830.5,0.5,33,165.83
3085,C2,830.5,0.458,22,165.83
3086,D5,831.0,0.167,33,165.83
3087,C2,831.0,0.458,23,165.83
3088,F4,831.0,3.0,26,165.83
3089,B4,831.0,3.0,26,165.83
3090,E5,831.167,0.167,29,165.83
3091,D5,831.333,0.167,33,165.83
3092,E5,831.5,0.167,29,165.83
3093,C2,831.5,0.458,20,165.83
3094,D5,831.667,0.167,33,165.83
3095,E5,831.833,0.167,30,165.83
3096,D5,832.0,0.167,33,165.83
3097,C2,832.0,0.458,22,165.83
3098,E5,832.167,0.167,29,165.83
3099,D5,832.333,0.167,33,165.83
3100,E5,832.5,0.167,30,165.83
3101,C2,832.5,0.458,23,165.83
3102,D5,832.667,0.167,28,165.83
3103,E5,832.833,0.167,33,165.83
3104,D5,833.0,0.25,28,165.83
3105,C2,833.0,0.458,20,165.83
3106,C5,833.25,0.25,30,165.83
3107,E5,833.5,0.25,35,165.83
3108,C2,833.5,0.458,22,165.83
3109,D5,833.75,0.25,31,165.83
3110,C2,834.0,0.458,23,165.83
3111,C5,834.0,1.0,25,165.83
3112,E4,834.0,1.0,25,165.83
3113,G4,834.0,1.0,25,165.83
3114,C2,834.5,0.458,20,165.83
3115,C2,835.0,0.458,22,165.83
3116,C2,835.5,0.458,23,165.83
3117,C2,836.0,0.458,20,165.83
3118,C2,836.5,0.458,22,165.83
3119,C2,837.0,0.458,23,165.83
3120,C#2,837.5,0.458,20,165.83
3121,C#2,838.0,0.458,22,165.83
3122,C#2,838.5,0.458,23,165.83
3123,C#4,838.5,1.25,31,165.83
3124,C#3,838.5,1.25,31,165.83
3125,C#2,839.0,0.458,20,165.83
3126,C#2,839.5,0.458,22,165.83
3127,B-3,839.75,0.25,28,165.83
3128,B-2,839.75,0.25,28,165.83
3129,C#2,840.0,0.458,23,165.83
3130,F#3,840.0,4.5,25,165.83
3131,F#2,840.0,4.5,25,165.83
3132,C#2,840.5,0.458,20,165.83
3133,C#2,841.0,0.458,22,165.83
3134,C#2,841.5,0.458,23,165.83
3135,C#2,842.0,0.458,20,165.83
3136,C#2,842.5,0.458,22,165.83
3137,C#2,843.0,0.458,23,165.83
3138,C#2,843.5,0.458,20,165.83
3139,C#2,844.0,0.458,22,165.83
3140,C#2,844.5,0.458,23,165.83
3141,B-2,844.5,1.25,31,165.83
3142,B-3,844.5,1.25,31,165.83
3143,C#2,845.0,0.458,20,165.83
3144,C#2,845.5,0.458,22,165.83
3145,C#4,845.75,0.25,27,165.83
3146,C#3,845.75,0.25,27,165.83
3147,C#2,846.0,0.458,23,165.83
3148,F#3,846.0,1.5,31,165.83
3149,F#4,846.0,1.5,31,165.83
3150,C#2,846.5,0.458,20,165.83
3151,C#2,847.0,0.458,22,165.83
3152,C#2,847.5,0.458,23,165.83
3153,B-4,847.5,1.25,32,165.83
3154,B-3,847.5,1.25,32,165.83
3155,C#2,848.0,0.458,20,165.83
3156,C#2,848.5,0.458,22,165.83
3157,C#4,848.75,0.25,28,165.83
3158,C#5,848.75,0.25,28,165.83
3159,C#2,849.0,0.458,23,165.83
3160,F#5,849.0,1.5,36,165.83
3161,F#4,849.0,1.5,36,165.83
3162,C#2,849.5,0.458,20,165.83
3163,C#2,850.0,0.458,22,165.83
3164,C#2,850.5,0.458,23,165.83
3165,F#3,850.5,1.5,30,165.83
3166,F#4,850.5,1.5,30,165.83
3167,C#2,851.0,0.458,20,165.83
3168,C#2,851.5,0.458,22,165.83
3169,C#5,852.0,2.5,35,165.83
3170,C#2,852.0,0.458,23,165.83
3171,F4,852.0,3.0,26,165.83
3172,G#4,852.0,3.0,26,165.83
3173,C#2,852.5,0.458,20,165.83
3174,C#2,853.0,0.458,22,165.83
3175,C#2,853.5,0.458,23,165.83
3176,C#2,854.0,0.458,20,165.83
3177,E-5,854.5,0.5,33,165.83
3178,C#2,854.5,0.458,22,165.83
3179,E-5,855.0,0.167,28,165.83
3180,C#2,855.0,0.458,23,165.83
3181,F#4,855.0,3.0,26,165.83
3182,C5,855.0,3.0,26,165.83
3183,F5,855.167,0.167,25,165.83
3184,E-5,855.333,0.167,28,165.83
3185,F5,855.5,0.167,25,165.83
3186,C#2,855.5,0.458,20,165.83
3187,E-5,855.667,0.167,28,165.83
3188,F5,855.833,0.167,25,165.83
3189,E-5,856.0,0.167,29,165.83
3190,C#2,856.0,0.458,22,165.83
3191,F5,856.167,0.167,25,165.83
3192,E-5,856.333,0.167,29,165.83
3193,F5,856.5,0.167,26,165.83
3194,C#2,856.5,0.458,23,165.83
3195,E-5,856.667,0.167,29,165.83
3196,F5,856.833,0.167,27,165.83
3197,E-5,857.0,0.25,24,165.83
3198,C#2,857.0,0.458,20,165.83
3199,C#5,857.25,0.25,30,165.83
3200,F5,857.5,0.25,35,165.83
3201,C#2,857.5,0.458,22,165.83
3202,E-5,857.75,0.25,31,165.83
3203,C#2,858.0,0.458,23,165.83
3204,C#5,858.0,1.0,25,165.83
3205,F4,858.0,1.0,25,165.83
3206,G#4,858.0,1.0,25,165.83
3207,F2,858.5,0.458,18,165.83
3208,B1,858.5,0.458,18,165.83
3209,F2,859.0,0.458,19,165.83
3210,B1,859.0,0.458,19,165.83
3211,F2,859.5,0.458,20,165.83
3212,B1,859.5,0.458,20,165.83
3213,F2,860.0,0.458,18,165.83
3214,B1,860.0,0.458,18,165.83
3215,F2,860.5,0.458,19,165.83
3216,B1,860.5,0.458,19,165.83
3217,F2,861.0,0.458,20,165.83
3218,B1,861.0,0.458,20,165.83
3219,B1,861.5,0.458,18,165.83
3220,F2,861.5,0.458,18,165.83
3221,B1,862.0,0.458,19,165.83
3222,F2,862.0,0.458,19,165.83
3223,B1,862.5,0.458,20,165.83
3224,F2,862.5,0.458,20,165.83
3225,B1,863.0,0.458,18,165.83
3226,F2,863.0,0.458,18,165.83
3227,B1,863.5,0.458,19,165.83
3228,F2,863.5,0.458,19,165.83
3229,C5,864.0,2.5,35,165.83
3230,E2,864.0,3.0,26,165.83
3231,C2,864.5,0.458,20,165.83
3232,C2,865.0,0.458,22,165.83
3233,C2,865.5,0.458,23,165.83
3234,C2,866.0,0.458,20,165.83
3235,D5,866.5,0.375,38,165.83
3236,C2,866.5,0.458,22,165.83
3237,C5,866.875,0.125,38,165.83
3238,D5,867.0,0.167,37,165.83
3239,F2,867.0,3.0,26,165.83
3240,E5,867.167,0.167,32,165.83
3241,D5,867.333,0.167,37,165.83
3242,E5,867.5,0.167,33,165.83
3243,C2,867.5,0.458,20,165.83
3244,D5,867.667,0.167,37,165.83
3245,E5,867.833,0.167,33,165.83
3246,D5,868.0,0.167,37,165.83
3247,C2,868.0,0.458,22,165.83
3248,E5,868.167,0.167,33,165.83
3249,D5,868.333,0.167,37,165.83
3250,E5,868.5,0.167,34,165.83
3251,C2,868.5,0.458,23,165.83
3252,D5,868.667,0.167,31,165.83
3253,E5,868.833,0.167,37,165.83
3254,D5,869.0,0.25,31,165.83
3255,C2,869.0,0.458,20,165.83
3256,C5,869.25,0.25,34,165.83
3257,E5,869.5,0.25,40,165.83
3258,C2,869.5,0.458,22,165.83
3259,D5,869.75,0.25,35,165.83
3260,C5,870.0,1.0,35,165.83
3261,E2,870.0,0.458,26,165.83
3262,C2,870.5,0.458,20,165.83
3263,C2,871.0,0.458,22,165.83
3264,C#3,871.5,0.458,25,165.83
3265,C2,871.5,0.458,25,165.83
3266,C2,872.0,0.458,23,165.83
3267,C#3,872.0,0.458,23,165.83
3268,C#3,872.5,0.458,24,165.83
3269,C2,872.5,0.458,24,165.83
3270,C3,873.0,1.0,26,165.83
3271,C2,873.0,0.458,26,165.83
3272,C2,873.5,0.458,20,165.83
3273,C2,874.0,0.458,22,165.83
3274,C2,874.5,0.458,23,165.83
3275,C2,875.0,0.458,20,165.83
3276,C2,875.5,0.458,22,165.83
3277,E5,876.0,2.5,40,165.83
3278,G2,876.0,3.0,26,165.83
3279,C2,876.5,0.458,20,165.83
3280,C2,877.0,0.458,22,165.83
3281,C2,877.5,0.458,23,165.83
3282,C2,878.0,0.458,20,165.83
3283,F5,878.5,0.375,38,165.83
3284,C2,878.5,0.458,22,165.83
3285,E5,878.875,0.125,38,165.83
3286,F5,879.0,0.167,37,165.83
3287,G#2,879.0,3.0,26,165.83
3288,G5,879.167,0.167,32,165.83
3289,F5,879.333,0.167,37,165.83
3290,G5,879.5,0.167,33,165.83
3291,C2,879.5,0.458,20,165.83
3292,F5,879.667,0.167,37,165.83
3293,G5,879.833,0.167,33,165.83
3294,F5,880.0,0.167,37,165.83
3295,C2,880.0,0.458,22,165.83
3296,G5,880.167,0.167,33,165.83
3297,F5,880.333,0.167,37,165.83
3298,G5,880.5,0.167,34,165.83
3299,C2,880.5,0.458,23,165.83
3300,F5,880.667,0.167,31,165.83
3301,G5,880.833,0.167,37,165.83
3302,F5,881.0,0.25,31,165.83
3303,C2,881.0,0.458,20,165.83
3304,E5,881.25,0.25,34,165.83
3305,G5,881.5,0.25,40,165.83
3306,C2,881.5,0.458,22,165.83
3307,F5,881.75,0.25,35,165.83
3308,E5,882.0,1.0,35,165.83
3309,G2,882.0,0.458,26,165.83
3310,C2,882.5,0.458,20,165.83
3311,C2,883.0,0.458,22,165.83
3312,C2,883.5,0.458,25,165.83
3313,C#3,883.5,0.458,25,165.83
3314,C#3,884.0,0.458,23,165.83
3315,C2,884.0,0.458,23,165.83
3316,C#3,884.5,0.458,24,165.83
3317,C2,884.5,0.458,24,165.83
3318,C3,885.0,1.0,26,165.83
3319,C2,885.0,0.458,26,165.83
3320,C2,885.5,0.458,20,165.83
3321,C2,886.0,0.458,22,165.83
3322,C2,886.5,0.458,23,165.83
3323,E5,886.5,0.5,35,165.83
3324,G5,886.5,0.5,35,165.83
3325,C2,887.0,0.458,20,165.83
3326,E5,887.0,0.5,31,165.83
3327,G5,887.0,0.5,31,165.83
3328,C2,887.5,0.458,22,165.83
3329,G5,887.5,0.5,35,165.83
3330,E5,887.5,0.5,35,165.83
3331,C2,888.0,0.458,26,165.83
3332,B-5,888.0,1.0,35,165.83
3333,G5,888.0,1.0,35,165.83
3334,C2,888.5,0.458,20,165.83
3335,C2,889.0,0.458,22,165.83
3336,C#3,889.5,0.458,25,165.83
3337,C2,889.5,0.458,25,165.83
3338,C2,890.0,0.458,23,165.83
3339,C#3,890.0,0.458,23,165.83
3340,C2,890.5,0.458,24,165.83
3341,C#3,890.5,0.458,24,165.83
3342,C3,891.0,1.0,26,165.83
3343,C2,891.0,0.458,26,165.83
3344,C2,891.5,0.458,20,165.83
3345,C2,892.0,0.458,22,165.83
3346,C2,892.5,0.458,43,165.83
3347,G5,892.5,0.5,66,165.83
3348,B-5,892.5,0.5,66,165.83
3349,C2,893.0,0.458,38,165.83
3350,G5,893.0,0.5,62,165.83
3351,B-5,893.0,0.5,62,165.83
3352,C2,893.5,0.458,41,165.83
3353,B-5,893.5,0.5,68,165.83
3354,G5,893.5,0.5,68,165.83
3355,E6,894.0,0.25,71,165.83
3356,C2,894.0,0.458,50,165.83
3357,B-5,894.25,0.25,64,165.83
3358,G6,894.5,0.25,72,165.83
3359,C2,894.5,0.458,40,165.83
3360,E6,894.75,0.25,64,165.83
3361,B-6,895.0,0.25,73,165.83
3362,C2,895.0,0.458,43,165.83
3363,G6,895.25,0.25,66,165.83
3364,E6,895.5,0.25,74,165.83
3365,C2,895.5,0.458,47,165.83
3366,G6,895.75,0.25,67,165.83
3367,B-5,896.0,0.25,74,165.83
3368,C2,896.0,0.458,43,165.83
3369,E6,896.25,0.25,68,165.83
3370,G5,896.5,0.25,75,165.83
3371,C2,896.5,0.458,45,165.83
3372,B-5,896.75,0.25,68,165.83
3373,E5,897.0,0.25,75,165.83
3374,C2,897.0,0.458,55,165.83
3375,G5,897.25,0.25,69,165.83
3376,B-4,897.5,0.25,76,165.83
3377,C2,897.5,0.458,45,165.83
3378,E5,897.75,0.25,67,165.83
3379,G4,898.0,0.25,76,165.83
3380,C2,898.0,0.458,48,165.83
3381,B-4,898.25,0.25,70,165.83
3382,E4,898.5,0.25,77,165.83
3383,C2,898.5,0.458,52,165.83
3384,G4,898.75,0.25,68,165.83
3385,B-3,899.0,0.25,78,165.83
3386,C2,899.0,0.458,47,165.83
3387,E4,899.25,0.25,71,165.83
3388,G3,899.5,0.25,75,165.83
3389,C2,899.5,0.458,50,165.83
3390,B-3,899.75,0.25,63,165.83
3391,C2,900.0,0.458,61,165.83
3392,E3,900.0,0.25,76,165.83
3393,G3,900.25,0.25,65,165.83
3394,C2,900.5,0.458,49,165.83
3395,B-2,900.5,0.25,77,165.83
3396,E3,900.75,0.25,62,165.83
3397,G2,901.0,0.25,76,165.83
3398,C2,901.0,0.458,52,165.83
3399,B-2,901.25,0.25,69,165.83
3400,C2,901.5,0.458,57,165.83
3401,C#3,901.5,0.25,80,165.83
3402,B-2,901.75,0.25,70,165.83
3403,E3,902.0,0.25,81,165.83
3404,C2,902.0,0.458,51,165.83
3405,C#3,902.25,0.25,71,165.83
3406,C2,902.5,0.458,54,165.83
3407,G3,902.5,0.25,86,165.83
3408,E3,902.75,0.25,78,165.83
3409,B-3,903.0,0.5,74,165.83
3410,G2,903.0,0.5,74,165.83
3411,G1,903.0,0.5,74,165.83
3412,C2,903.5,0.5,58,165.83
3413,C2,904.0,0.5,57,165.83
3414,C#3,904.5,0.5,82,165.83
3415,C#4,904.5,0.5,82,165.83
3416,G#3,904.5,0.5,82,165.83
3417,F2,904.5,0.5,82,165.83
3418,F1,904.5,0.5,82,165.83
3419,C2,905.0,0.5,78,165.83
3420,C2,905.5,0.5,66,165.83
3421,E3,906.0,4.375,45,165.83
3422,C2,906.0,4.375,45,165.83
3423,C4,906.0,4.375,45,165.83
3424,E2,906.0,4.375,45,165.83
3425,G3,906.0,4.375,45,165.83
3426,C4,910.5,1.25,35,165.83
3427,C2,910.5,1.25,27,165.83
3428,A3,911.75,0.25,31,165.83
3429,A1,911.75,0.25,25,165.83
3430,F3,912.0,0.496,103,165.83
3431,F1,912.0,0.5,81,165.83
3432,A3,912.5,0.99,84,165.83
3433,F3,912.5,0.99,84,165.83
3434,C4,912.5,0.99,84,165.83
3435,F4,912.5,0.99,84,165.83
3436,A1,913.0,0.99,68,165.83
3437,F1,913.0,0.99,68,165.83
3438,F2,913.0,0.99,68,165.83
3439,C2,913.0,0.99,68,165.83
3440,C4,913.5,0.99,80,165.83
3441,F4,913.5,0.99,80,165.83
3442,A4,913.5,0.99,80,165.83
3443,A3,913.5,0.99,80,165.83
3444,A1,914.0,0.99,64,165.83
3445,C2,914.0,0.99,64,165.83
3446,F2,914.0,0.99,64,165.83
3447,F1,914.0,0.99,64,165.83
3448,C4,914.5,0.99,79,165.83
3449,F4,914.5,0.99,79,165.83
3450,C5,914.5,0.99,79,165.83
3451,A4,914.5,0.99,79,165.83
3452,A1,915.0,0.99,62,165.83
3453,F1,915.0,0.99,62,165.83
3454,F2,915.0,0.99,62,165.83
3455,C2,915.0,0.99,62,165.83
3456,A4,915.5,0.99,80,165.83
3457,F5,915.5,0.99,80,165.83
3458,C5,915.5,0.99,80,165.83
3459,F4,915.5,0.99,80,165.83
3460,A1,916.0,0.99,68,165.83
3461,C2,916.0,0.99,68,165.83
3462,F2,916.0,0.99,68,165.83
3463,F1,916.0,0.99,68,165.83
3464,F5,916.5,0.99,85,165.83
3465,A4,916.5,0.99,85,165.83
3466,C5,916.5,0.99,85,165.83
3467,A5,916.5,0.99,85,165.83
3468,A1,917.0,0.99,62,165.83
3469,F1,917.0,0.99,62,165.83
3470,F2,917.0,0.99,62,165.83
3471,C2,917.0,0.99,62,165.83
3472,F5,917.5,0.496,80,165.83
3473,C6,917.5,0.496,80,165.83
3474,C5,917.5,0.496,80,165.83
3475,A5,917.5,0.496,80,165.83
3476,A5,918.0,4.5,88,165.83
3477,C6,918.0,4.5,88,165.83
3478,F6,918.0,4.5,88,165.83
3479,F5,918.0,4.5,88,165.83
3480,F1,918.0,4.5,68,165.83
3481,A1,918.0,4.5,68,165.83
3482,C2,918.0,4.5,68,165.83
3483,F2,918.0,4.5,68,165.83
3484,A3,922.5,1.25,41,165.83
3485,A1,922.5,1.25,33,165.83
3486,C4,923.75,0.25,35,165.83
3487,C2,923.75,0.25,28,165.83
3488,F4,924.0,1.5,40,165.83
3489,F2,924.0,1.5,34,165.83
3490,A4,925.5,1.25,43,165.83
3491,A2,925.5,1.25,34,165.83
3492,C5,926.75,0.25,37,165.83
3493,C3,926.75,0.25,29,165.83
3494,F5,927.0,1.49,40,165.83
3495,F3,927.0,1.49,34,165.83
3496,F4,928.5,1.5,40,165.83
3497,F2,928.5,1.5,31,165.83
3498,C4,930.0,0.496,103,165.83
3499,E3,930.0,0.496,81,165.83
3500,G3,930.0,0.496,81,165.83
3501,G3,930.5,0.99,75,165.83
3502,C4,930.5,0.99,93,165.83
3503,E4,930.5,0.99,93,165.83
3504,E2,931.0,0.99,70,165.83
3505,C3,931.0,0.99,70,165.83
3506,G2,931.0,0.99,70,165.83
3507,C4,931.5,0.99,83,165.83
3508,G4,931.5,0.99,83,165.83
3509,E4,931.5,0.99,83,165.83
3510,G2,932.0,0.99,66,165.83
3511,E2,932.0,0.99,66,165.83
3512,C3,932.0,0.99,66,165.83
3513,G4,932.5,0.99,84,165.83
3514,C5,932.5,0.99,84,165.83
3515,E4,932.5,0.99,84,165.83
3516,E2,933.0,0.99,64,165.83
3517,C3,933.0,0.99,64,165.83
3518,G2,933.0,0.99,64,165.83
3519,E5,933.5,0.99,82,165.83
3520,G4,933.5,0.99,82,165.83
3521,C5,933.5,0.99,82,165.83
3522,G2,934.0,0.99,70,165.83
3523,C3,934.0,0.99,70,165.83
3524,E2,934.0,0.99,70,165.83
3525,G5,934.5,0.99,88,165.83
3526,C5,934.5,0.99,88,165.83
3527,E5,934.5,0.99,88,165.83
3528,E2,935.0,0.99,64,165.83
3529,C3,935.0,0.99,64,165.83
3530,G2,935.0,0.99,64,165.83
3531,C6,935.5,0.496,83,165.83
3532,E5,935.5,0.496,83,165.83
3533,G5,935.5,0.496,83,165.83
3534,C5,936.0,2.5,41,165.83
3535,E4,936.0,3.0,30,165.83
3536,G4,936.0,3.0,30,165.83
3537,D5,938.5,0.5,45,165.83
3538,D5,939.0,0.167,38,165.83
3539,F4,939.0,3.0,30,165.83
3540,B4,939.0,3.0,30,165.83
3541,G#4,939.0,3.0,30,165.83
3542,E5,939.167,0.25,35,165.83
3543,D5,939.333,0.167,38,165.83
3544,E5,939.5,0.167,36,165.83
3545,D5,939.667,0.167,39,165.83
3546,E5,939.833,0.167,36,165.83
3547,D5,940.0,0.167,38,165.83
3548,E5,940.167,0.167,36,165.83
3549,D5,940.333,0.167,39,165.83
3550,E5,940.5,0.167,37,165.83
3551,D5,940.667,0.167,35,165.83
3552,E5,940.833,0.167,39,165.83
3553,D5,941.0,0.25,35,165.83
3554,C5,941.25,0.25,36,165.83
3555,E5,941.5,0.25,41,165.83
3556,D5,941.75,0.25,38,165.83
3557,C4,942.0,0.496,103,165.83
3558,G3,942.0,0.496,81,165.83
3559,E3,942.0,0.496,81,165.83
3560,G3,942.5,0.99,75,165.83
3561,E4,942.5,0.99,93,165.83
3562,C4,942.5,0.99,93,165.83
3563,G2,943.0,0.99,70,165.83
3564,E2,943.0,0.99,70,165.83
3565,C3,943.0,0.99,70,165.83
3566,E4,943.5,0.99,83,165.83
3567,G4,943.5,0.99,83,165.83
3568,C4,943.5,0.99,83,165.83
3569,E2,944.0,0.99,66,165.83
3570,C3,944.0,0.99,66,165.83
3571,G2,944.0,0.99,66,165.83
3572,C5,944.5,0.99,84,165.83
3573,E4,944.5,0.99,84,165.83
3574,G4,944.5,0.99,84,165.83
3575,G2,945.0,0.99,64,165.83
3576,C3,945.0,0.99,64,165.83
3577,E2,945.0,0.99,64,165.83
3578,E5,945.5,0.99,82,165.83
3579,G4,945.5,0.99,82,165.83
3580,C5,945.5,0.99,82,165.83
3581,E2,946.0,0.99,70,165.83
3582,C3,946.0,0.99,70,165.83
3583,G2,946.0,0.99,70,165.83
3584,G5,946.5,0.99,88,165.83
3585,C5,946.5,0.99,88,165.83
3586,E5,946.5,0.99,88,165.83
3587,G2,947.0,0.99,64,165.83
3588,C3,947.0,0.99,64,165.83
3589,E2,947.0,0.99,64,165.83
3590,E5,947.5,0.496,83,165.83
3591,C6,947.5,0.496,83,165.83
3592,G5,947.5,0.496,83,165.83
3593,C5,948.0,2.5,41,165.83
3594,G4,948.0,3.0,30,165.83
3595,E4,948.0,3.0,30,165.83
3596,D5,950.5,0.5,45,165.83
3597,D5,951.0,0.167,44,165.83
3598,G#4,951.0,3.0,30,165.83
3599,F4,951.0,3.0,30,165.83
3600,E5,951.167,0.167,39,165.83
3601,D5,951.333,0.167,42,165.83
3602,E5,951.5,0.167,37,165.83
3603,D5,951.667,0.167,41,165.83
3604,E5,951.833,0.167,36,165.83
3605,D5,952.0,0.167,40,165.83
3606,E5,952.167,0.167,37,165.83
3607,D5,952.333,0.167,41,165.83
3608,E5,952.5,0.25,38,165.83
3609,D5,952.75,0.25,37,165.83
3610,E5,953.0,0.25,42,165.83
3611,D5,953.25,0.25,41,165.83
3612,C5,953.5,0.25,48,165.83
3613,D5,953.75,0.25,44,165.83
3614,G3,954.0,0.496,88,165.83
3615,E4,954.0,0.496,88,165.83
3616,B-3,954.0,0.496,88,165.83
3617,E4,954.5,0.99,90,165.83
3618,B-3,954.5,0.99,90,165.83
3619,G4,954.5,0.99,90,165.83
3620,G2,955.0,0.99,70,165.83
3621,E3,955.0,0.99,70,165.83
3622,B-2,955.0,0.99,70,165.83
3623,G4,955.5,0.99,83,165.83
3624,B-4,955.5,0.99,83,165.83
3625,E4,955.5,0.99,83,165.83
3626,B-2,956.0,0.99,66,165.83
3627,G2,956.0,0.99,66,165.83
3628,E3,956.0,0.99,66,165.83
3629,B-4,956.5,0.99,87,165.83
3630,E5,956.5,0.99,87,165.83
3631,G4,956.5,0.99,87,165.83
3632,G2,957.0,0.99,64,165.83
3633,E3,957.0,0.99,64,165.83
3634,B-2,957.0,0.99,64,165.83
3635,B-4,957.5,0.99,82,165.83
3636,G5,957.5,0.99,82,165.83
3637,E5,957.5,0.99,82,165.83
3638,B-2,958.0,0.99,70,165.83
3639,E3,958.0,0.99,70,165.83
3640,G2,958.0,0.99,70,165.83
3641,E5,958.5,0.99,88,165.83
3642,B-5,958.5,0.99,88,165.83
3643,G5,958.5,0.99,88,165.83
3644,G2,959.0,0.99,64,165.83
3645,E3,959.0,0.99,64,165.83
3646,B-2,959.0,0.99,64,165.83
3647,G5,959.5,0.496,83,165.83
3648,E6,959.5,0.496,83,165.83
3649,B-5,959.5,0.496,83,165.83
3650,E5,960.0,2.5,48,165.83
3651,G4,960.0,3.0,36,165.83
3652,B-4,960.0,3.0,36,165.83
3653,F5,962.5,0.5,52,165.83
3654,F5,963.0,0.167,46,165.83
3655,G#4,963.0,3.0,36,165.83
3656,C5,963.0,3.0,36,165.83
3657,G5,963.167,0.167,41,165.83
3658,F5,963.333,0.167,46,165.83
3659,G5,963.5,0.167,41,165.83
3660,F5,963.667,0.167,46,165.83
3661,G5,963.833,0.167,41,165.83
3662,F5,964.0,0.167,46,165.83
3663,G5,964.167,0.167,42,165.83
3664,F5,964.333,0.167,46,165.83
3665,G5,964.5,0.25,43,165.83
3666,F5,964.75,0.25,40,165.83
3667,G5,965.0,0.25,46,165.83
3668,F5,965.25,0.25,42,165.83
3669,E5,965.5,0.25,48,165.83
3670,F5,965.75,0.25,44,165.83
3671,G4,966.0,0.496,92,165.83
3672,E4,966.0,0.496,92,165.83
3673,E5,966.5,0.99,93,165.83
3674,C#5,966.5,0.99,93,165.83
3675,B-2,967.0,0.99,68,165.83
3676,E3,967.0,0.99,68,165.83
3677,G3,967.0,0.99,68,165.83
3678,C#3,967.0,0.99,68,165.83
3679,E5,967.5,0.99,88,165.83
3680,G5,967.5,0.99,88,165.83
3681,B-3,968.0,0.99,64,165.83
3682,E4,968.0,0.99,64,165.83
3683,C#4,968.0,0.99,64,165.83
3684,G4,968.0,0.99,64,165.83
3685,B-5,968.5,0.99,93,165.83
3686,G5,968.5,0.99,93,165.83
3687,B-3,969.0,0.99,62,165.83
3688,E4,969.0,0.99,62,165.83
3689,G4,969.0,0.99,62,165.83
3690,C#4,969.0,0.99,62,165.83
3691,B-5,969.5,0.99,88,165.83
3692,C#6,969.5,0.99,88,165.83
3693,C#4,970.0,0.99,68,165.83
3694,E4,970.0,0.99,68,165.83
3695,G4,970.0,0.99,68,165.83
3696,B-3,970.0,0.99,68,165.83
3697,C#6,970.5,0.99,94,165.83
3698,E6,970.5,0.99,94,165.83
3699,C#4,971.0,0.99,62,165.83
3700,B-3,971.0,0.99,62,165.83
3701,G4,971.0,0.99,62,165.83
3702,E4,971.0,0.99,62,165.83
3703,E6,971.5,0.496,86,165.83
3704,G6,971.5,0.496,86,165.83
3705,G5,972.0,2.5,79,165.83
3706,E5,972.0,3.0,59,165.83
3707,B-4,972.0,3.0,59,165.83
3708,C#5,972.0,3.0,59,165.83
3709,G#5,974.5,0.5,87,165.83
3710,F5,975.0,3.0,64,165.83
3711,G#5,975.0,0.25,76,165.83
3712,B4,975.0,3.0,59,165.83
3713,D5,975.0,3.0,59,165.83
3714,B-5,975.25,0.25,68,165.83
3715,G#5,975.5,0.25,76,165.83
3716,B-5,975.75,0.25,68,165.83
3717,G#5,976.0,0.25,76,165.83
3718,B-5,976.25,0.25,68,165.83
3719,G#5,976.5,0.25,76,165.83
3720,B-5,976.75,0.25,67,165.83
3721,G#5,977.0,0.25,67,165.83
3722,G5,977.25,0.25,70,165.83
3723,B-5,977.5,0.25,79,165.83
3724,G#5,977.75,0.25,73,165.83
3725,C4,978.0,0.5,39,165.83
3726,E5,978.0,1.5,58,165.83
3727,G5,978.0,1.5,58,165.83
3728,C5,978.5,0.458,36,165.83
3729,C5,979.0,0.458,36,165.83
3730,C5,979.5,0.458,39,165.83
3731,C5,980.0,0.458,37,165.83
3732,C5,980.5,0.458,36,165.83
3733,C5,981.0,0.458,39,165.83
3734,C5,981.5,0.458,35,165.83
3735,C5,982.0,0.458,35,165.83
3736,C5,982.5,0.458,39,165.83
3737,C5,983.0,0.458,36,165.83
3738,C5,983.5,0.458,36,165.83
3739,F5,984.0,1.5,56,165.83
3740,G#5,984.0,1.5,56,165.83
3741,C5,984.5,0.458,38,165.83
3742,C5,985.0,0.458,38,165.83
3743,G#4,985.5,0.5,39,165.83
3744,F4,985.5,0.5,39,165.83
3745,C5,986.0,0.458,37,165.83
3746,C5,986.5,0.458,37,165.83
3747,C5,987.0,0.458,41,165.83
3748,C5,987.5,0.458,37,165.83
3749,C5,988.0,0.458,38,165.83
3750,C5,988.5,0.458,46,165.83
3751,C5,989.0,0.458,40,165.83
3752,C5,989.5,0.458,40,165.83
3753,G#5,990.0,6.0,75,165.83
3754,F5,990.0,6.0,75,165.83
3755,C#6,990.0,6.0,75,165.83
3756,C5,990.5,0.458,38,165.83
3757,C5,991.0,0.458,38,165.83
3758,G#4,991.5,0.5,40,165.83
3759,F4,991.5,0.5,40,165.83
3760,C5,992.0,0.458,37,165.83
3761,C5,992.5,0.458,37,165.83
3762,F4,993.0,0.5,37,165.83
3763,G#4,993.0,0.5,37,165.83
3764,C5,993.5,0.458,37,165.83
3765,C5,994.0,0.458,37,165.83
3766,F4,994.5,0.5,37,165.83
3767,G#4,994.5,0.5,37,165.83
3768,C5,995.0,0.458,37,165.83
3769,C5,995.5,0.458,37,165.83
3770,G5,996.0,1.0,52,165.83
3771,E5,996.0,1.0,52,165.83
3772,C6,996.0,1.0,52,165.83
3773,E4,996.0,0.5,39,165.83
3774,G4,996.0,0.5,39,165.83
3775,C4,996.5,0.458,37,165.83
3776,C4,997.0,0.458,37,165.83
3777,C4,997.5,0.458,38,165.83
3778,C4,998.0,0.458,37,165.83
3779,C4,998.5,0.458,37,165.83
3780,C4,999.0,0.458,37,165.83
3781,C4,999.5,0.458,37,165.83
3782,C4,1000.0,0.458,37,165.83
3783,C4,1000.5,0.458,38,165.83
3784,E5,1000.5,1.25,56,165.83
3785,G5,1000.5,1.25,56,165.83
3786,C4,1001.0,0.458,37,165.83
3787,C4,1001.5,0.458,37,165.83
3788,G5,1001.75,0.25,52,165.83
3789,E5,1001.75,0.25,52,165.83
3790,C4,1002.0,0.458,39,165.83
3791,G#5,1002.0,1.0,58,165.83
3792,F5,1002.0,1.0,58,165.83
3793,C4,1002.5,0.458,37,165.83
3794,C4,1003.0,0.458,37,165.83
3795,G5,1003.0,0.5,52,165.83
3796,E5,1003.0,0.5,52,165.83
3797,C4,1003.5,0.458,38,165.83
3798,C4,1004.0,0.458,37,165.83
3799,C4,1004.5,0.458,37,165.83
3800,G4,1004.5,0.5,50,165.83
3801,E4,1004.5,0.5,50,165.83
3802,C4,1005.0,0.458,38,165.83
3803,C4,1005.5,0.458,39,165.83
3804,C4,1006.0,0.458,37,165.83
3805,G3,1006.0,0.5,49,165.83
3806,E3,1006.0,0.5,49,165.83
3807,G3,1006.5,0.5,44,165.83
3808,B-3,1006.5,0.5,44,165.83
3809,C4,1007.0,0.458,37,165.83
3810,C4,1007.5,0.458,37,165.83
3811,G5,1007.75,0.25,58,165.83
3812,E5,1007.75,0.25,58,165.83
3813,C4,1008.0,0.458,39,165.83
3814,B-5,1008.0,1.0,61,165.83
3815,G5,1008.0,1.0,61,165.83
3816,C4,1008.5,0.458,37,165.83
3817,C4,1009.0,0.458,37,165.83
3818,F5,1009.0,0.5,52,165.83
3819,G#5,1009.0,0.5,52,165.83
3820,C4,1009.5,0.458,37,165.83
3821,C4,1010.0,0.458,37,165.83
3822,C4,1010.5,0.458,37,165.83
3823,F4,1010.5,0.5,49,165.83
3824,G#4,1010.5,0.5,49,165.83
3825,C4,1011.0,0.458,38,165.83
3826,C4,1011.5,0.458,37,165.83
3827,C4,1012.0,0.458,37,165.83
3828,F3,1012.0,0.49,47,165.83
3829,G#3,1012.0,0.49,47,165.83
3830,G#3,1012.5,0.5,46,165.83
3831,F3,1012.5,0.5,46,165.83
3832,C4,1013.0,0.458,37,165.83
3833,C4,1013.5,0.458,37,165.83
3834,F5,1013.75,0.25,52,165.83
3835,G#5,1013.75,0.25,52,165.83
3836,G#5,1014.0,6.0,75,165.83
3837,F5,1014.0,6.0,75,165.83
3838,C#6,1014.0,6.0,75,165.83
3839,C4,1014.5,0.458,38,165.83
3840,C4,1015.0,0.458,38,165.83
3841,F3,1015.5,0.5,40,165.83
3842,G#3,1015.5,0.5,40,165.83
3843,C4,1016.0,0.458,37,165.83
3844,C4,1016.5,0.458,37,165.83
3845,G#3,1017.0,0.5,37,165.83
3846,F3,1017.0,0.5,37,165.83
3847,C4,1017.5,0.458,37,165.83
3848,C4,1018.0,0.458,37,165.83
3849,G#3,1018.5,0.5,36,165.83
3850,F3,1018.5,0.5,36,165.83
3851,C4,1019.0,0.458,37,165.83
3852,C4,1019.5,0.458,37,165.83
3853,G5,1020.0,1.0,61,165.83
3854,E5,1020.0,1.0,61,165.83
3855,C6,1020.0,1.0,61,165.83
3856,C4,1020.5,0.458,38,165.83
3857,C4,1021.0,0.458,38,165.83
3858,E3,1021.5,0.5,40,165.83
3859,G3,1021.5,0.5,40,165.83
3860,C4,1022.0,0.458,37,165.83
3861,C4,1022.5,0.458,37,165.83
3862,F#4,1023.0,3.0,52,165.83
3863,E-4,1023.0,3.0,52,165.83
3864,C5,1023.0,3.0,52,165.83
3865,C4,1023.5,0.458,37,165.83
3866,C4,1024.0,0.458,37,165.83
3867,F#3,1024.5,0.5,36,165.83
3868,E-3,1024.5,0.5,36,165.83
3869,C4,1025.0,0.458,37,165.83
3870,C4,1025.5,0.458,37,165.83
3871,F4,1026.0,1.0,52,165.83
3872,B4,1026.0,1.0,52,165.83
3873,D4,1026.0,1.0,52,165.83
3874,C4,1026.5,0.458,37,165.83
3875,C4,1027.0,0.458,36,165.83
3876,D3,1027.5,0.5,38,165.83
3877,F3,1027.5,0.5,38,165.83
3878,C4,1028.0,0.458,34,165.83
3879,C4,1028.5,0.458,34,165.83
3880,C#4,1029.0,1.0,46,165.83
3881,B-4,1029.0,1.0,46,165.83
3882,F4,1029.0,1.0,46,165.83
3883,C4,1029.5,0.458,32,165.83
3884,C4,1030.0,0.458,32,165.83
3885,F3,1030.5,0.5,30,165.83
3886,C#3,1030.5,0.5,30,165.83
3887,C4,1031.0,0.458,31,165.83
3888,C4,1031.5,0.458,30,165.83
3889,C4,1032.0,1.5,41,165.83
3890,G#4,1032.0,1.5,41,165.83
3891,F4,1032.0,1.5,41,165.83
3892,C3,1032.5,0.458,25,165.83
3893,C3,1033.0,0.458,26,165.83
3894,C3,1033.5,0.458,28,165.83
3895,C3,1034.0,0.458,26,165.83
3896,C3,1034.5,0.458,26,165.83
3897,C3,1035.0,0.458,28,165.83
3898,C3,1035.5,0.458,26,165.83
3899,C3,1036.0,0.458,26,165.83
3900,C3,1036.5,0.458,28,165.83
3901,C3,1037.0,0.458,26,165.83
3902,C3,1037.5,0.458,27,165.83
3903,G3,1038.0,1.5,41,165.83
3904,B-2,1038.0,1.5,41,165.83
3905,E3,1038.0,1.5,41,165.83
3906,C3,1038.0,1.5,41,165.83
3907,C2,1038.5,0.5,25,165.83
3908,C2,1039.0,0.5,26,165.83
3909,C2,1039.5,0.5,28,165.83
3910,C2,1040.0,0.5,26,165.83
3911,C2,1040.5,0.5,26,165.83
3912,C2,1041.0,0.5,28,165.83
3913,C2,1041.5,0.5,26,165.83
3914,C2,1042.0,0.5,26,165.83
3915,C2,1042.5,0.5,28,165.83
3916,C2,1043.0,0.5,26,165.83
3917,C2,1043.5,0.5,27,165.83
3918,F1,1044.0,0.5,28,165.83
3919,A1,1044.5,0.5,22,165.83
3920,C2,1044.5,0.5,22,165.83
3921,F2,1044.5,0.5,22,165.83
3922,F1,1045.0,0.5,26,165.83
3923,A1,1045.5,0.5,24,165.83
3924,C2,1045.5,0.5,24,165.83
3925,F2,1045.5,0.5,24,165.83
3926,F1,1046.0,0.5,26,165.83
3927,A1,1046.5,0.5,22,165.83
3928,C2,1046.5,0.5,22,165.83
3929,F2,1046.5,0.5,22,165.83
3930,F1,1047.0,0.5,28,165.83
3931,A1,1047.5,0.5,22,165.83
3932,C2,1047.5,0.5,22,165.83
3933,F2,1047.5,0.5,22,165.83
3934,F1,1048.0,0.5,26,165.83
3935,A3,1048.5,1.25,44,165.83
3936,A2,1048.5,1.25,40,165.83
3937,C2,1048.5,0.5,24,165.83
3938,A1,1048.5,0.5,24,165.83
3939,F2,1048.5,0.5,24,165.83
3940,F1,1049.0,0.5,26,165.83
3941,F2,1049.5,0.5,23,165.83
3942,A1,1049.5,0.5,23,165.83
3943,C2,1049.5,0.5,23,165.83
3944,C4,1049.75,0.25,40,165.83
3945,C3,1049.75,0.25,37,165.83
3946,F1,1050.0,0.5,28,165.83
3947,F3,1050.0,1.5,40,165.83
3948,F4,1050.0,1.5,40,165.83
3949,A1,1050.5,0.5,22,165.83
3950,C2,1050.5,0.5,22,165.83
3951,F2,1050.5,0.5,22,165.83
3952,F1,1051.0,0.5,26,165.83
3953,A3,1051.5,1.25,42,165.83
3954,A4,1051.5,1.25,42,165.83
3955,F2,1051.5,0.5,24,165.83
3956,C2,1051.5,0.5,24,165.83
3957,A1,1051.5,0.5,24,165.83
3958,F1,1052.0,0.5,26,165.83
3959,C2,1052.5,0.5,22,165.83
3960,F2,1052.5,0.5,22,165.83
3961,A1,1052.5,0.5,22,165.83
3962,F4,1052.75,0.25,38,165.83
3963,F3,1052.75,0.25,38,165.83
3964,G1,1053.0,0.5,28,165.83
3965,E4,1053.0,1.5,40,165.83
3966,E3,1053.0,1.5,40,165.83
3967,B-1,1053.5,0.5,22,165.83
3968,E2,1053.5,0.5,22,165.83
3969,G2,1053.5,0.5,22,165.83
3970,G1,1054.0,0.5,26,165.83
3971,G4,1054.5,1.25,42,165.83
3972,G3,1054.5,1.25,42,165.83
3973,B-1,1054.5,0.5,24,165.83
3974,G2,1054.5,0.5,24,165.83
3975,E2,1054.5,0.5,24,165.83
3976,G1,1055.0,0.5,26,165.83
3977,E2,1055.5,0.5,23,165.83
3978,G2,1055.5,0.5,23,165.83
3979,B-1,1055.5,0.5,23,165.83
3980,E4,1055.75,0.25,38,165.83
3981,E3,1055.75,0.25,38,165.83
3982,A1,1056.0,0.5,28,165.83
3983,F3,1056.0,1.5,40,165.83
3984,F4,1056.0,1.5,40,165.83
3985,F2,1056.5,0.5,22,165.83
3986,A2,1056.5,0.5,22,165.83
3987,C2,1056.5,0.5,22,165.83
3988,A1,1057.0,0.5,26,165.83
3989,C4,1057.5,3.0,40,165.83
3990,C3,1057.5,3.0,40,165.83
3991,A2,1057.5,0.5,24,165.83
3992,F2,1057.5,0.5,24,165.83
3993,C2,1057.5,0.5,24,165.83
3994,A1,1058.0,0.5,26,165.83
3995,C2,1058.5,0.5,22,165.83
3996,A2,1058.5,0.5,22,165.83
3997,F2,1058.5,0.5,22,165.83
3998,A1,1059.0,0.5,28,165.83
3999,A2,1059.5,0.5,22,165.83
4000,C2,1059.5,0.5,22,165.83
4001,F2,1059.5,0.5,22,165.83
4002,A1,1060.0,0.5,26,165.83
4003,D4,1060.5,1.25,44,165.83
4004,F2,1060.5,0.5,28,165.83
4005,D3,1060.5,1.25,40,165.83
4006,B-1,1061.0,0.5,26,165.83
4007,F2,1061.5,0.5,27,165.83
4008,B-3,1061.75,0.25,40,165.83
4009,B-2,1061.75,0.25,37,165.83
4010,A3,1062.0,1.5,44,165.83
4011,A2,1062.0,1.5,40,165.83
4012,C2,1062.0,0.5,28,165.83
4013,F2,1062.5,0.5,25,165.83
4014,C2,1063.0,0.5,26,165.83
4015,C4,1063.5,1.25,44,165.83
4016,F2,1063.5,0.5,28,165.83
4017,C3,1063.5,1.25,40,165.83
4018,C2,1064.0,0.5,25,165.83
4019,F2,1064.5,0.5,25,165.83
4020,A3,1064.75,0.25,39,165.83
4021,A2,1064.75,0.25,36,165.83
4022,G3,1065.0,1.5,44,165.83
4023,G2,1065.0,1.5,40,165.83
4024,C2,1065.0,0.5,28,165.83
4025,E2,1065.5,0.5,25,165.83
4026,C2,1066.0,0.5,25,165.83
4027,C4,1066.5,1.25,44,165.83
4028,C3,1066.5,1.25,40,165.83
4029,E2,1066.5,0.5,28,165.83
4030,C2,1067.0,0.5,25,165.83
4031,E2,1067.5,0.5,25,165.83
4032,B-3,1067.75,0.25,39,165.83
4033,B-2,1067.75,0.25,36,165.83
4034,A3,1068.0,1.5,42,165.83
4035,F2,1068.0,0.5,28,165.83
4036,A2,1068.5,0.5,22,165.83
4037,C3,1068.5,0.5,22,165.83
4038,F3,1068.5,0.5,22,165.83
4039,F2,1069.0,0.5,27,165.83
4040,C4,1069.5,3.0,42,165.83
4041,A2,1069.5,0.5,25,165.83
4042,C3,1069.5,0.5,25,165.83
4043,F3,1069.5,0.5,25,165.83
4044,F2,1070.0,0.5,28,165.83
4045,A2,1070.5,0.5,24,165.83
4046,C3,1070.5,0.5,24,165.83
4047,F3,1070.5,0.5,24,165.83
4048,F2,1071.0,0.5,32,165.83
4049,A2,1071.5,0.5,26,165.83
4050,C3,1071.5,0.5,26,165.83
4051,F3,1071.5,0.5,26,165.83
4052,F2,1072.0,0.5,31,165.83
4053,A4,1072.5,1.25,55,165.83
4054,A3,1072.5,1.25,51,165.83
4055,C3,1072.5,0.5,30,165.83
4056,A2,1072.5,0.5,30,165.83
4057,F3,1072.5,0.5,30,165.83
4058,F2,1073.0,0.5,33,165.83
4059,F3,1073.5,0.5,29,165.83
4060,A2,1073.5,0.5,29,165.83
4061,C3,1073.5,0.5,29,165.83
4062,C5,1073.75,0.25,53,165.83
4063,C4,1073.75,0.25,49,165.83
4064,F2,1074.0,0.5,37,165.83
4065,F4,1074.0,1.5,54,165.83
4066,F5,1074.0,1.5,54,165.83
4067,A2,1074.5,0.5,29,165.83
4068,C3,1074.5,0.5,29,165.83
4069,F3,1074.5,0.5,29,165.83
4070,F2,1075.0,0.5,36,165.83
4071,A5,1075.5,1.25,60,165.83
4072,A4,1075.5,1.25,60,165.83
4073,A2,1075.5,0.5,33,165.83
4074,C3,1075.5,0.5,33,165.83
4075,F3,1075.5,0.5,33,165.83
4076,F2,1076.0,0.5,37,165.83
4077,C3,1076.5,0.5,32,165.83
4078,F3,1076.5,0.5,32,165.83
4079,A2,1076.5,0.5,32,165.83
4080,F5,1076.75,0.25,56,165.83
4081,F4,1076.75,0.25,56,165.83
4082,G2,1077.0,0.5,40,165.83
4083,E5,1077.0,1.5,59,165.83
4084,E4,1077.0,1.5,59,165.83
4085,B-2,1077.5,0.5,32,165.83
4086,C3,1077.5,0.5,32,165.83
4087,G3,1077.5,0.5,32,165.83
4088,G2,1078.0,0.5,39,165.83
4089,G5,1078.5,1.25,65,165.83
4090,G4,1078.5,1.25,65,165.83
4091,B-2,1078.5,0.5,37,165.83
4092,G3,1078.5,0.5,37,165.83
4093,C3,1078.5,0.5,37,165.83
4094,G2,1079.0,0.5,40,165.83
4095,C3,1079.5,0.5,36,165.83
4096,G3,1079.5,0.5,36,165.83
4097,B-2,1079.5,0.5,36,165.83
4098,E5,1079.75,0.25,60,165.83
4099,E4,1079.75,0.25,60,165.83
4100,F5,1080.0,1.5,54,165.83
4101,F4,1080.0,1.5,54,165.83
4102,A3,1080.0,6.0,32,165.83
4103,C3,1080.0,6.0,32,165.83
4104,A2,1080.0,6.0,32,165.83
4105,F3,1080.0,6.0,32,165.83
4106,C4,1081.5,4.5,50,165.83
4107,C5,1081.5,4.5,50,165.83
4108,F3,1086.0,1.5,59,165.83
4109,C#4,1086.0,1.5,78,165.83
4110,C#5,1086.0,1.5,78,165.83
4111,C#3,1086.0,6.0,50,165.83
4112,B-2,1086.0,6.0,50,165.83
4113,F#3,1087.5,4.5,57,165.83
4114,B-3,1087.5,4.5,75,165.83
4115,B-4,1087.5,4.5,75,165.83
4116,G#4,1092.0,4.5,58,165.83
4117,C3,1092.0,6.0,33,165.83
4118,G#3,1092.0,6.0,33,165.83
4119,F3,1092.0,6.0,33,165.83
4120,G4,1096.5,1.0,51,165.83
4121,F4,1097.5,0.5,49,165.83
4122,G4,1098.0,0.25,46,165.83
4123,C3,1098.0,6.0,29,165.83
4124,E3,1098.0,6.0,29,165.83
4125,B-3,1098.0,6.0,29,165.83
4126,G#4,1098.25,0.25,39,165.83
4127,G4,1098.5,0.25,46,165.83
4128,G#4,1098.75,0.25,40,165.83
4129,G4,1099.0,0.25,47,165.83
4130,G#4,1099.25,0.25,40,165.83
4131,G4,1099.5,0.25,48,165.83
4132,G#4,1099.75,0.25,41,165.83
4133,G4,1100.0,0.25,49,165.83
4134,G#4,1100.25,0.25,42,165.83
4135,G4,1100.5,0.25,50,165.83
4136,G#4,1100.75,0.25,42,165.83
4137,G4,1101.0,0.25,51,165.83
4138,G#4,1101.25,0.25,44,165.83
4139,G4,1101.5,0.25,51,165.83
4140,G#4,1101.75,0.25,45,165.83
4141,G4,1102.0,0.25,52,165.83
4142,G#4,1102.25,0.25,46,165.83
4143,G4,1102.5,0.25,53,165.83
4144,G#4,1102.75,0.25,48,165.83
4145,G4,1103.0,0.25,55,165.83
4146,G#4,1103.25,0.25,48,165.83
4147,G4,1103.5,0.25,56,165.83
4148,G#4,1103.75,0.25,48,165.83
4149,C#5,1104.0,0.25,46,165.83
4150,C5,1104.25,0.25,39,165.83
4151,C#5,1104.5,0.25,46,165.83
4152,C5,1104.75,0.25,40,165.83
4153,C#5,1105.0,0.25,48,165.83
4154,C5,1105.25,0.25,41,165.83
4155,C#5,1105.5,0.25,50,165.83
4156,C5,1105.75,0.25,44,165.83
4157,C#5,1106.0,0.25,51,165.83
4158,C5,1106.25,0.25,45,165.83
4159,C#5,1106.5,0.25,53,165.83
4160,C5,1106.75,0.25,47,165.83
4161,C#5,1107.0,0.25,56,165.83
4162,C5,1107.25,0.25,48,165.83
4163,C#5,1107.5,0.25,56,165.83
4164,C5,1107.75,0.25,47,165.83
4165,C#5,1108.0,0.25,56,165.83
4166,C5,1108.25,0.25,48,165.83
4167,C#5,1108.5,0.25,56,165.83
4168,C5,1108.75,0.25,49,165.83
4169,C#5,1109.0,0.25,56,165.83
4170,C5,1109.25,0.25,49,165.83
4171,B4,1109.5,0.25,56,165.83
4172,C5,1109.75,0.25,48,165.83
4173,C#6,1110.0,0.25,49,165.83
4174,C6,1110.25,0.25,41,165.83
4175,C#6,1110.5,0.25,49,165.83
4176,C6,1110.75,0.25,43,165.83
4177,C#6,1111.0,0.25,51,165.83
4178,C6,1111.25,0.25,45,165.83
4179,C#6,1111.5,0.25,54,165.83
4180,C6,1111.75,0.25,45,165.83
4181,C#6,1112.0,0.25,55,165.83
4182,C6,1112.25,0.25,46,165.83
4183,C#6,1112.5,0.25,56,165.83
4184,C6,1112.75,0.25,49,165.83
4185,C#6,1113.0,0.25,60,165.83
4186,C6,1113.25,0.25,49,165.83
4187,C#6,1113.5,0.25,58,165.83
4188,C6,1113.75,0.25,48,165.83
4189,C#6,1114.0,0.25,55,165.83
4190,C6,1114.25,0.25,45,165.83
4191,C#6,1114.5,0.25,54,165.83
4192,C6,1114.75,0.25,45,165.83
4193,C#6,1115.0,0.25,52,165.83
4194,C6,1115.25,0.25,44,165.83
4195,B5,1115.5,0.25,50,165.83
4196,C6,1115.75,0.25,40,165.83
4197,C#6,1116.0,0.5,47,165.83
4198,C6,1116.5,0.5,47,165.83
4199,B-5,1117.0,0.5,45,165.83
4200,G#5,1117.5,0.5,42,165.83
4201,G5,1118.0,0.5,43,165.83
4202,F#5,1118.5,0.5,42,165.83
4203,F5,1119.0,0.5,42,165.83
4204,E5,1119.5,0.5,42,165.83
4205,E-5,1120.0,0.5,42,165.83
4206,C#5,1120.5,0.5,42,165.83
4207,C5,1121.0,0.5,41,165.83
4208,B-4,1121.5,0.5,41,165.83
4209,G#4,1122.0,0.5,41,165.83
4210,G4,1122.5,0.5,39,165.83
4211,F#4,1123.0,0.5,39,165.83
4212,F4,1123.5,0.5,38,165.83
4213,E4,1124.0,0.5,37,165.83
4214,E-4,1124.5,0.5,36,165.83
4215,C#4,1125.0,0.5,36,165.83
4216,C4,1125.5,0.5,36,165.83
4217,B-3,1126.0,0.5,35,165.83
4218,G#3,1126.5,0.5,34,165.83
4219,G3,1127.0,0.5,35,165.83
4220,F#3,1127.5,0.5,33,165.83
4221,F3,1128.0,0.5,34,165.83
4222,E3,1128.5,0.5,33,165.83
4223,E-3,1129.0,0.5,33,165.83
4224,C#3,1129.5,0.5,33,165.83
4225,C3,1130.0,0.5,32,165.83
4226,B-2,1130.5,0.5,32,165.83
4227,G#2,1131.0,0.5,34,165.83
4228,G2,1131.5,0.5,33,165.83
4229,F#2,1132.0,0.5,33,165.83
4230,F2,1132.5,0.5,33,165.83
4231,E2,1133.0,0.5,33,165.83
4232,E-2,1133.5,0.5,33,165.83
4233,C#2,1134.0,0.5,34,165.83
4234,C2,1134.5,0.5,34,165.83
4235,B-1,1135.0,0.5,34,165.83
4236,G#1,1135.5,0.5,34,165.83
4237,G1,1136.0,0.5,33,165.83
4238,G#1,1136.5,0.5,31,165.83
4239,B-1,1137.0,0.5,34,165.83
4240,C2,1137.5,0.5,33,165.83
4241,B1,1138.0,0.5,33,165.83
4242,C2,1138.5,0.5,36,165.83
4243,B1,1139.0,0.5,34,165.83
4244,C2,1139.5,0.5,33,165.83
4245,F3,1140.0,0.25,83,165.83
4246,F1,1140.0,0.25,64,165.83
4247,C3,1140.25,0.25,66,165.83
4248,C2,1140.25,0.25,52,165.83
4249,G#2,1140.5,0.25,66,165.83
4250,F2,1140.5,0.25,52,165.83
4251,C3,1140.75,0.25,66,165.83
4252,C2,1140.75,0.25,52,165.83
4253,F3,1141.0,0.25,72,165.83
4254,F1,1141.0,0.25,58,165.83
4255,C3,1141.25,0.25,64,165.83
4256,C2,1141.25,0.25,51,165.83
4257,G#3,1141.5,0.25,84,165.83
4258,F1,1141.5,0.25,68,165.83
4259,C3,1141.75,0.25,66,165.83
4260,C2,1141.75,0.25,52,165.83
4261,G3,1142.0,0.25,83,165.83
4262,F1,1142.0,0.25,64,165.83
4263,C3,1142.25,0.25,66,165.83
4264,C2,1142.25,0.25,52,165.83
4265,F3,1142.5,0.25,81,165.83
4266,F1,1142.5,0.25,62,165.83
4267,C3,1142.75,0.25,66,165.83
4268,C2,1142.75,0.25,52,165.83
4269,F3,1143.0,0.25,83,165.83
4270,F1,1143.0,0.25,64,165.83
4271,C3,1143.25,0.25,63,165.83
4272,C2,1143.25,0.25,52,165.83
4273,G#2,1143.5,0.25,63,165.83
4274,F2,1143.5,0.25,52,165.83
4275,C3,1143.75,0.25,63,165.83
4276,C2,1143.75,0.25,52,165.83
4277,F3,1144.0,0.25,66,165.83
4278,F1,1144.0,0.25,58,165.83
4279,C3,1144.25,0.25,62,165.83
4280,C2,1144.25,0.25,51,165.83
4281,G#3,1144.5,0.25,83,165.83
4282,F1,1144.5,0.25,68,165.83
4283,C3,1144.75,0.25,63,165.83
4284,C2,1144.75,0.25,52,165.83
4285,G3,1145.0,0.25,80,165.83
4286,F1,1145.0,0.25,64,165.83
4287,C3,1145.25,0.25,66,165.83
4288,C2,1145.25,0.25,52,165.83
4289,F3,1145.5,0.25,80,165.83
4290,F1,1145.5,0.25,62,165.83
4291,C3,1145.75,0.25,64,165.83
4292,C2,1145.75,0.25,52,165.83
4293,C#4,1146.0,0.25,83,165.83
4294,F1,1146.0,0.25,64,165.83
4295,G#3,1146.25,0.25,66,165.83
4296,C#2,1146.25,0.25,52,165.83
4297,F3,1146.5,0.25,66,165.83
4298,F2,1146.5,0.25,52,165.83
4299,G#3,1146.75,0.25,66,165.83
4300,C#2,1146.75,0.25,52,165.83
4301,C#4,1147.0,0.25,77,165.83
4302,F1,1147.0,0.25,58,165.83
4303,G#3,1147.25,0.25,64,165.83
4304,C#2,1147.25,0.25,51,165.83
4305,F4,1147.5,0.25,84,165.83
4306,F1,1147.5,0.25,68,165.83
4307,G#3,1147.75,0.25,66,165.83
4308,C#2,1147.75,0.25,52,165.83
4309,E-4,1148.0,0.25,83,165.83
4310,F1,1148.0,0.25,64,165.83
4311,G#3,1148.25,0.25,66,165.83
4312,C#2,1148.25,0.25,52,165.83
4313,C#4,1148.5,0.25,81,165.83
4314,F1,1148.5,0.25,62,165.83
4315,G#3,1148.75,0.25,66,165.83
4316,C#2,1148.75,0.25,52,165.83
4317,C#4,1149.0,0.25,83,165.83
4318,F1,1149.0,0.25,64,165.83
4319,G#3,1149.25,0.25,63,165.83
4320,C#2,1149.25,0.25,52,165.83
4321,F3,1149.5,0.25,63,165.83
4322,F2,1149.5,0.25,52,165.83
4323,G#3,1149.75,0.25,63,165.83
4324,C#2,1149.75,0.25,52,165.83
4325,C#4,1150.0,0.25,75,165.83
4326,F1,1150.0,0.25,58,165.83
4327,G#3,1150.25,0.25,62,165.83
4328,C#2,1150.25,0.25,51,165.83
4329,F4,1150.5,0.25,83,165.83
4330,F1,1150.5,0.25,68,165.83
4331,G#3,1150.75,0.25,63,165.83
4332,C#2,1150.75,0.25,52,165.83
4333,E-4,1151.0,0.25,80,165.83
4334,F1,1151.0,0.25,64,165.83
4335,G#3,1151.25,0.25,66,165.83
4336,C#2,1151.25,0.25,52,165.83
4337,C#4,1151.5,0.25,80,165.83
4338,F1,1151.5,0.25,62,165.83
4339,G#3,1151.75,0.25,64,165.83
4340,C#2,1151.75,0.25,52,165.83
4341,B-4,1152.0,0.25,93,165.83
4342,F#2,1152.0,4.5,99,165.83
4343,F#1,1152.0,4.5,99,165.83
4344,C#5,1152.25,0.25,74,165.83
4345,B-4,1152.5,0.25,76,165.83
4346,C#5,1152.75,0.25,67,165.83
4347,B-4,1153.0,0.25,72,165.83
4348,C#5,1153.25,0.25,67,165.83
4349,B-4,1153.5,0.25,72,165.83
4350,C#5,1153.75,0.25,67,165.83
4351,B-4,1154.0,0.25,72,165.83
4352,C#5,1154.25,0.25,67,165.83
4353,B-4,1154.5,0.25,72,165.83
4354,C#5,1154.75,0.25,67,165.83
4355,B-4,1155.0,0.25,76,165.83
4356,C#5,1155.25,0.25,67,165.83
4357,B-4,1155.5,0.25,76,165.83
4358,C#5,1155.75,0.25,67,165.83
4359,B-4,1156.0,0.25,76,165.83
4360,C#5,1156.25,0.25,67,165.83
4361,B-4,1156.5,0.25,95,165.83
4362,G1,1156.5,0.5,81,165.83
4363,G2,1156.5,0.5,81,165.83
4364,C#5,1156.75,0.25,78,165.83
4365,G4,1157.0,0.25,89,165.83
4366,B-1,1157.0,0.5,72,165.83
4367,B-4,1157.25,0.25,78,165.83
4368,E4,1157.5,0.25,84,165.83
4369,C#2,1157.5,0.5,82,165.83
4370,G4,1157.75,0.25,77,165.83
4371,C#4,1158.0,0.25,82,165.83
4372,E2,1158.0,0.5,95,165.83
4373,E4,1158.25,0.25,70,165.83
4374,B-3,1158.5,0.25,81,165.83
4375,G2,1158.5,0.5,82,165.83
4376,C#4,1158.75,0.25,71,165.83
4377,G3,1159.0,0.25,82,165.83
4378,B-2,1159.0,0.5,82,165.83
4379,B-3,1159.25,0.25,68,165.83
4380,F3,1159.5,0.25,81,165.83
4381,C#3,1159.5,0.479,85,165.83
4382,G3,1159.75,0.25,70,165.83
4383,B-3,1160.0,0.25,80,165.83
4384,C#3,1160.0,0.479,83,165.83
4385,G3,1160.25,0.25,70,165.83
4386,F3,1160.5,0.25,80,165.83
4387,C#3,1160.5,0.479,83,165.83
4388,G3,1160.75,0.25,69,165.83
4389,C#3,1161.0,1.5,97,165.83
4390,F3,1161.25,0.25,70,165.83
4391,B-3,1161.5,0.25,80,165.83
4392,G3,1161.75,0.25,69,165.83
4393,F3,1162.0,0.25,77,165.83
4394,B-3,1162.25,0.25,70,165.83
4395,C3,1162.5,1.5,89,165.83
4396,E3,1162.75,0.25,69,165.83
4397,B-3,1163.0,0.25,80,165.83
4398,G3,1163.25,0.25,69,165.83
4399,E3,1163.5,0.25,78,165.83
4400,B-3,1163.75,0.25,69,165.83
4401,F4,1164.0,0.25,83,165.83
4402,F2,1164.0,0.25,64,165.83
4403,C4,1164.25,0.25,66,165.83
4404,C3,1164.25,0.25,52,165.83
4405,G#3,1164.5,0.25,66,165.83
4406,F3,1164.5,0.25,52,165.83
4407,C4,1164.75,0.25,66,165.83
4408,C3,1164.75,0.25,52,165.83
4409,F4,1165.0,0.25,80,165.83
4410,F2,1165.0,0.25,58,165.83
4411,C4,1165.25,0.25,64,165.83
4412,C3,1165.25,0.25,51,165.83
4413,G#4,1165.5,0.25,84,165.83
4414,F2,1165.5,0.25,68,165.83
4415,C4,1165.75,0.25,66,165.83
4416,C3,1165.75,0.25,52,165.83
4417,G4,1166.0,0.25,83,165.83
4418,F2,1166.0,0.25,64,165.83
4419,C4,1166.25,0.25,66,165.83
4420,C3,1166.25,0.25,52,165.83
4421,F4,1166.5,0.25,81,165.83
4422,F2,1166.5,0.25,62,165.83
4423,C4,1166.75,0.25,66,165.83
4424,C3,1166.75,0.25,52,165.83
4425,F4,1167.0,0.25,83,165.83
4426,F2,1167.0,0.25,64,165.83
4427,C4,1167.25,0.25,63,165.83
4428,C3,1167.25,0.25,52,165.83
4429,G#3,1167.5,0.25,63,165.83
4430,F3,1167.5,0.25,52,165.83
4431,C4,1167.75,0.25,63,165.83
4432,C3,1167.75,0.25,52,165.83
4433,F4,1168.0,0.25,80,165.83
4434,F2,1168.0,0.25,58,165.83
4435,C4,1168.25,0.25,62,165.83
4436,C3,1168.25,0.25,51,165.83
4437,G#4,1168.5,0.25,83,165.83
4438,F2,1168.5,0.25,68,165.83
4439,C4,1168.75,0.25,63,165.83
4440,C3,1168.75,0.25,52,165.83
4441,G4,1169.0,0.25,80,165.83
4442,F2,1169.0,0.25,64,165.83
4443,C4,1169.25,0.25,66,165.83
4444,C3,1169.25,0.25,52,165.83
4445,F4,1169.5,0.25,80,165.83
4446,F2,1169.5,0.25,62,165.83
4447,C4,1169.75,0.25,64,165.83
4448,C3,1169.75,0.25,52,165.83
4449,C#5,1170.0,0.25,83,165.83
4450,F2,1170.0,0.25,64,165.83
4451,G#4,1170.25,0.25,66,165.83
4452,C#3,1170.25,0.25,52,165.83
4453,F4,1170.5,0.25,66,165.83
4454,F3,1170.5,0.25,52,165.83
4455,G#4,1170.75,0.25,66,165.83
4456,C#3,1170.75,0.25,52,165.83
4457,C#5,1171.0,0.25,80,165.83
4458,F2,1171.0,0.25,58,165.83
4459,G#4,1171.25,0.25,64,165.83
4460,C#3,1171.25,0.25,51,165.83
4461,F5,1171.5,0.25,84,165.83
4462,F2,1171.5,0.25,68,165.83
4463,G#4,1171.75,0.25,66,165.83
4464,C#3,1171.75,0.25,52,165.83
4465,E-5,1172.0,0.25,83,165.83
4466,F2,1172.0,0.25,64,165.83
4467,G#4,1172.25,0.25,66,165.83
4468,C#3,1172.25,0.25,52,165.83
4469,C#5,1172.5,0.25,81,165.83
4470,F2,1172.5,0.25,62,165.83
4471,G#4,1172.75,0.25,66,165.83
4472,C#3,1172.75,0.25,52,165.83
4473,C#5,1173.0,0.25,83,165.83
4474,F2,1173.0,0.25,64,165.83
4475,G#4,1173.25,0.25,63,165.83
4476,C#3,1173.25,0.25,52,165.83
4477,F4,1173.5,0.25,63,165.83
4478,F3,1173.5,0.25,52,165.83
4479,G#4,1173.75,0.25,63,165.83
4480,C#3,1173.75,0.25,52,165.83
4481,C#5,1174.0,0.25,80,165.83
4482,F2,1174.0,0.25,58,165.83
4483,G#4,1174.25,0.25,62,165.83
4484,C#3,1174.25,0.25,51,165.83
4485,F5,1174.5,0.25,83,165.83
4486,F2,1174.5,0.25,68,165.83
4487,G#4,1174.75,0.25,63,165.83
4488,C#3,1174.75,0.25,52,165.83
4489,E-5,1175.0,0.25,80,165.83
4490,F2,1175.0,0.25,64,165.83
4491,G#4,1175.25,0.25,66,165.83
4492,C#3,1175.25,0.25,52,165.83
4493,C#5,1175.5,0.25,80,165.83
4494,F2,1175.5,0.25,62,165.83
4495,G#4,1175.75,0.25,64,165.83
4496,C#3,1175.75,0.25,52,165.83
4497,B-5,1176.0,0.25,93,165.83
4498,F#2,1176.0,4.5,98,165.83
4499,F#3,1176.0,4.5,98,165.83
4500,C#6,1176.25,0.25,75,165.83
4501,B-5,1176.5,0.25,80,165.83
4502,C#6,1176.75,0.25,69,165.83
4503,B-5,1177.0,0.25,77,165.83
4504,C#6,1177.25,0.25,69,165.83
4505,B-5,1177.5,0.25,78,165.83
4506,C#6,1177.75,0.25,69,165.83
4507,B-5,1178.0,0.25,74,165.83
4508,C#6,1178.25,0.25,69,165.83
4509,B-5,1178.5,0.25,74,165.83
4510,C#6,1178.75,0.25,69,165.83
4511,B-5,1179.0,0.25,74,165.83
4512,C#6,1179.25,0.25,69,165.83
4513,B-5,1179.5,0.25,74,165.83
4514,C#6,1179.75,0.25,69,165.83
4515,B-5,1180.0,0.25,74,165.83
4516,C#6,1180.25,0.25,69,165.83
4517,B-5,1180.5,0.25,75,165.83
4518,G3,1180.5,0.5,74,165.83
4519,G2,1180.5,0.5,74,165.83
4520,C#6,1180.75,0.25,69,165.83
4521,B-5,1181.0,0.25,77,165.83
4522,B-2,1181.0,0.5,65,165.83
4523,B-3,1181.0,0.5,65,165.83
4524,C#6,1181.25,0.25,69,165.83
4525,B-5,1181.5,0.25,77,165.83
4526,C#3,1181.5,0.5,72,165.83
4527,C#4,1181.5,0.5,72,165.83
4528,C#6,1181.75,0.25,69,165.83
4529,B-5,1182.0,0.25,82,165.83
4530,E4,1182.0,0.5,85,165.83
4531,E3,1182.0,0.5,85,165.83
4532,C#6,1182.25,0.25,70,165.83
4533,G5,1182.5,0.25,81,165.83
4534,G3,1182.5,0.5,72,165.83
4535,G4,1182.5,0.5,72,165.83
4536,B-5,1182.75,0.25,71,165.83
4537,F5,1183.0,0.25,82,165.83
4538,B-3,1183.0,0.5,72,165.83
4539,B-4,1183.0,0.5,72,165.83
4540,G5,1183.25,0.25,68,165.83
4541,F5,1183.5,0.25,81,165.83
4542,C#5,1183.5,0.479,76,165.83
4543,C#4,1183.5,0.479,76,165.83
4544,G5,1183.75,0.25,70,165.83
4545,B-5,1184.0,0.25,80,165.83
4546,C#4,1184.0,0.479,74,165.83
4547,C#5,1184.0,0.479,74,165.83
4548,G5,1184.25,0.25,70,165.83
4549,F5,1184.5,0.25,80,165.83
4550,C#4,1184.5,0.479,74,165.83
4551,C#5,1184.5,0.479,74,165.83
4552,G5,1184.75,0.25,69,165.83
4553,C#5,1185.0,1.5,91,165.83
4554,C#4,1185.0,1.5,91,165.83
4555,F5,1185.25,0.25,72,165.83
4556,B-5,1185.5,0.25,82,165.83
4557,G5,1185.75,0.25,70,165.83
4558,F5,1186.0,0.25,77,165.83
4559,B-5,1186.25,0.25,69,165.83
4560,C4,1186.5,1.5,78,165.83
4561,C5,1186.5,1.5,78,165.83
4562,E5,1186.75,0.25,67,165.83
4563,B-5,1187.0,0.25,75,165.83
4564,G5,1187.25,0.25,64,165.83
4565,E5,1187.5,0.25,72,165.83
4566,B-5,1187.75,0.25,62,165.83
4567,F4,1188.0,1.5,102,165.83
4568,C#5,1188.25,0.25,72,165.83
4569,B-5,1188.5,0.25,82,165.83
4570,G5,1188.75,0.25,70,165.83
4571,C#5,1189.0,0.25,77,165.83
4572,B-5,1189.25,0.25,69,165.83
4573,E4,1189.5,1.5,86,165.83
4574,C5,1189.75,0.25,67,165.83
4575,B-5,1190.0,0.25,75,165.83
4576,G5,1190.25,0.25,64,165.83
4577,C5,1190.5,0.25,72,165.83
4578,B-5,1190.75,0.25,62,165.83
4579,C#5,1191.0,1.5,102,165.83
4580,F5,1191.25,0.25,72,165.83
4581,B-5,1191.5,0.25,82,165.83
4582,G5,1191.75,0.25,70,165.83
4583,F5,1192.0,0.25,77,165.83
4584,B-5,1192.25,0.25,69,165.83
4585,C5,1192.5,1.5,86,165.83
4586,E5,1192.75,0.25,67,165.83
4587,B-5,1193.0,0.25,75,165.83
4588,G5,1193.25,0.25,64,165.83
4589,E5,1193.5,0.25,72,165.83
4590,B-5,1193.75,0.25,62,165.83
4591,B4,1194.0,3.0,97,165.83
4592,D5,1194.25,2.75,91,165.83
4593,F5,1194.5,2.5,95,165.83
4594,G#5,1194.75,2.25,87,165.83
4595,B5,1195.0,0.25,83,165.83
4596,D6,1195.25,0.25,79,165.83
4597,F6,1195.5,0.25,87,165.83
4598,D6,1195.75,0.25,79,165.83
4599,B5,1196.0,0.25,86,165.83
4600,G#6,1196.25,0.25,83,165.83
4601,G6,1196.5,0.25,84,165.83
4602,F6,1196.75,0.25,79,165.83
4603,E6,1197.0,0.25,79,165.83
4604,C5,1197.0,3.0,85,165.83
4605,G6,1197.25,0.25,74,165.83
4606,E5,1197.25,2.75,77,165.83
4607,F6,1197.5,0.25,79,165.83
4608,G5,1197.5,2.5,77,165.83
4609,E6,1197.75,0.25,72,165.83
4610,C#6,1198.0,0.25,73,165.83
4611,C6,1198.25,0.25,72,165.83
4612,B-5,1198.5,0.25,78,165.83
4613,C#6,1198.75,0.25,73,165.83
4614,C6,1199.0,0.25,75,165.83
4615,B-5,1199.25,0.25,72,165.83
4616,G#5,1199.5,0.25,71,165.83
4617,G5,1199.75,0.25,70,165.83
4618,G#4,1200.0,1.5,41,165.83
4619,F4,1200.0,1.5,41,165.83
4620,F5,1200.25,0.25,39,165.83
4621,G#5,1200.5,0.25,41,165.83
4622,C6,1200.75,0.25,43,165.83
4623,F6,1201.0,0.25,45,165.83
4624,F5,1201.25,0.25,41,165.83
4625,C#5,1201.5,1.5,40,165.83
4626,B-4,1201.5,1.5,40,165.83
4627,F6,1202.25,0.25,45,165.83
4628,F5,1202.5,0.25,41,165.83
4629,F6,1202.75,0.25,45,165.83
4630,C5,1203.0,1.5,41,165.83
4631,G#4,1203.0,1.5,41,165.83
4632,F6,1203.75,0.25,44,165.83
4633,F5,1204.0,0.25,41,165.83
4634,F6,1204.25,0.25,44,165.83
4635,C5,1204.5,1.5,55,165.83
4636,B-4,1204.5,1.5,55,165.83
4637,G4,1204.5,1.5,55,165.83
4638,E6,1205.25,0.25,44,165.83
4639,E5,1205.5,0.25,41,165.83
4640,E6,1205.75,0.25,45,165.83
4641,F4,1206.0,1.5,41,165.83
4642,G#4,1206.0,1.5,41,165.83
4643,F5,1206.25,0.25,39,165.83
4644,G#5,1206.5,0.25,41,165.83
4645,C6,1206.75,0.25,43,165.83
4646,F6,1207.0,0.25,45,165.83
4647,F5,1207.25,0.25,41,165.83
4648,B-3,1207.5,1.5,40,165.83
4649,C#4,1207.5,1.5,40,165.83
4650,F5,1208.25,0.25,45,165.83
4651,F4,1208.5,0.25,41,165.83
4652,F5,1208.75,0.25,45,165.83
4653,G#3,1209.0,1.5,41,165.83
4654,C4,1209.0,1.5,41,165.83
4655,F5,1209.75,0.25,44,165.83
4656,F4,1210.0,0.25,41,165.83
4657,F5,1210.25,0.25,44,165.83
4658,C4,1210.5,1.5,55,165.83
4659,B-3,1210.5,1.5,55,165.83
4660,G3,1210.5,1.5,55,165.83
4661,E5,1211.25,0.25,44,165.83
4662,E4,1211.5,0.25,41,165.83
4663,E5,1211.75,0.25,45,165.83
4664,F3,1212.0,1.5,41,165.83
4665,G#3,1212.0,1.5,41,165.83
4666,F5,1212.25,0.25,39,165.83
4667,G#5,1212.5,0.25,41,165.83
4668,C6,1212.75,0.25,43,165.83
4669,F6,1213.0,0.25,45,165.83
4670,F5,1213.25,0.25,41,165.83
4671,B-2,1213.5,1.5,40,165.83
4672,C#3,1213.5,1.5,40,165.83
4673,F6,1214.25,0.25,45,165.83
4674,F5,1214.5,0.25,41,165.83
4675,F6,1214.75,0.25,45,165.83
4676,G#2,1215.0,1.5,41,165.83
4677,C3,1215.0,1.5,41,165.83
4678,F6,1215.75,0.25,44,165.83
4679,F5,1216.0,0.25,41,165.83
4680,F6,1216.25,0.25,44,165.83
4681,G2,1216.5,1.5,55,165.83
4682,B-2,1216.5,1.5,55,165.83
4683,C3,1216.5,1.5,55,165.83
4684,E6,1217.25,0.25,44,165.83
4685,E5,1217.5,0.25,41,165.83
4686,E6,1217.75,0.25,45,165.83
4687,F6,1218.0,0.25,44,165.83
4688,F2,1218.0,3.0,44,165.83
4689,C6,1218.25,0.25,41,165.83
4690,G#5,1218.5,0.25,40,165.83
4691,C6,1218.75,0.25,36,165.83
4692,F6,1219.0,0.25,39,165.83
4693,C6,1219.25,0.25,36,165.83
4694,G#5,1219.5,0.25,42,165.83
4695,C6,1219.75,0.25,38,165.83
4696,F6,1220.0,0.25,38,165.83
4697,C6,1220.25,0.25,34,165.83
4698,G#5,1220.5,0.25,37,165.83
4699,C6,1220.75,0.25,33,165.83
4700,F6,1221.0,0.25,39,165.83
4701,C2,1221.0,1.5,36,165.83
4702,C6,1221.25,0.25,36,165.83
4703,G#5,1221.5,0.25,36,165.83
4704,C6,1221.75,0.25,32,165.83
4705,F6,1222.0,0.25,35,165.83
4706,C6,1222.25,0.25,31,165.83
4707,F6,1222.5,0.25,36,165.83
4708,G#1,1222.5,1.5,30,165.83
4709,C6,1222.75,0.25,34,165.83
4710,F6,1223.0,0.25,34,165.83
4711,C6,1223.25,0.25,30,165.83
4712,F6,1223.5,0.25,33,165.83
4713,C6,1223.75,0.25,30,165.83
4714,F6,1224.0,0.25,38,165.83
4715,F1,1224.0,4.5,24,165.83
4716,C6,1224.25,0.25,30,165.83
4717,G#5,1224.5,0.25,37,165.83
4718,C6,1224.75,0.25,30,165.83
4719,F6,1225.0,0.25,33,165.83
4720,C6,1225.25,0.25,30,165.83
4721,G#5,1225.5,0.25,36,165.83
4722,C6,1225.75,0.25,30,165.83
4723,F6,1226.0,0.25,35,165.83
4724,C6,1226.25,0.25,30,165.83
4725,G#5,1226.5,0.25,31,165.83
4726,C6,1226.75,0.25,30,165.83
4727,F6,1227.0,0.25,38,165.83
4728,C6,1227.25,0.25,30,165.83
4729,G#5,1227.5,0.25,33,165.83
4730,C6,1227.75,0.25,29,165.83
4731,F6,1228.0,0.25,33,165.83
4732,C6,1228.25,0.25,28,165.83
4733,F6,1228.5,0.25,37,165.83
4734,G#1,1228.5,1.25,29,165.83
4735,C6,1228.75,0.25,33,165.83
4736,G#5,1229.0,0.25,34,165.83
4737,C6,1229.25,0.25,29,165.83
4738,F6,1229.5,0.25,33,165.83
4739,C6,1229.75,0.25,29,165.83
4740,C2,1229.75,0.25,26,165.83
4741,F6,1230.0,0.25,38,165.83
4742,F2,1230.0,1.5,29,165.83
4743,C6,1230.25,0.25,30,165.83
4744,G#5,1230.5,0.25,37,165.83
4745,C6,1230.75,0.25,30,165.83
4746,F6,1231.0,0.25,33,165.83
4747,C6,1231.25,0.25,30,165.83
4748,F6,1231.5,0.25,36,165.83
4749,G#2,1231.5,1.25,29,165.83
4750,C6,1231.75,0.25,30,165.83
4751,G#5,1232.0,0.25,35,165.83
4752,C6,1232.25,0.25,30,165.83
4753,F6,1232.5,0.25,31,165.83
4754,C6,1232.75,0.25,30,165.83
4755,C3,1232.75,0.25,26,165.83
4756,F6,1233.0,0.25,38,165.83
4757,F3,1233.0,1.5,29,165.83
4758,C6,1233.25,0.25,30,165.83
4759,G#5,1233.5,0.25,33,165.83
4760,C6,1233.75,0.25,29,165.83
4761,F6,1234.0,0.25,33,165.83
4762,C6,1234.25,0.25,28,165.83
4763,F6,1234.5,0.25,37,165.83
4764,F2,1234.5,1.5,28,165.83
4765,C6,1234.75,0.25,33,165.83
4766,G#5,1235.0,0.25,34,165.83
4767,C6,1235.25,0.25,29,165.83
4768,F6,1235.5,0.25,33,165.83
4769,C6,1235.75,0.25,29,165.83
4770,E-6,1236.0,0.25,38,165.83
4771,F#2,1236.0,4.5,34,165.83
4772,C6,1236.25,0.25,30,165.83
4773,G#5,1236.5,0.25,37,165.83
4774,C6,1236.75,0.25,30,165.83
4775,E-6,1237.0,0.25,33,165.83
4776,C6,1237.25,0.25,30,165.83
4777,G#5,1237.5,0.25,36,165.83
4778,C6,1237.75,0.25,30,165.83
4779,E-6,1238.0,0.25,35,165.83
4780,C6,1238.25,0.25,30,165.83
4781,G#5,1238.5,0.25,31,165.83
4782,C6,1238.75,0.25,30,165.83
4783,E-6,1239.0,0.25,38,165.83
4784,C6,1239.25,0.25,30,165.83
4785,G#5,1239.5,0.25,33,165.83
4786,C6,1239.75,0.25,29,165.83
4787,E-6,1240.0,0.25,33,165.83
4788,C6,1240.25,0.25,28,165.83
4789,E-6,1240.5,0.25,37,165.83
4790,C3,1240.5,1.25,33,165.83
4791,C6,1240.75,0.25,33,165.83
4792,G#5,1241.0,0.25,34,165.83
4793,C6,1241.25,0.25,29,165.83
4794,E-6,1241.5,0.25,33,165.83
4795,C6,1241.75,0.25,29,165.83
4796,E-3,1241.75,0.25,28,165.83
4797,E-6,1242.0,0.25,38,165.83
4798,F#3,1242.0,1.5,33,165.83
4799,C6,1242.25,0.25,30,165.83
4800,G#5,1242.5,0.25,37,165.83
4801,C6,1242.75,0.25,30,165.83
4802,E-6,1243.0,0.25,33,165.83
4803,C6,1243.25,0.25,30,165.83
4804,E-6,1243.5,0.25,36,165.83
4805,C4,1243.5,1.25,33,165.83
4806,C6,1243.75,0.25,30,165.83
4807,G#5,1244.0,0.25,35,165.83
4808,C6,1244.25,0.25,30,165.83
4809,E-6,1244.5,0.25,31,165.83
4810,C6,1244.75,0.25,30,165.83
4811,E-4,1244.75,0.25,28,165.83
4812,E-6,1245.0,0.25,38,165.83
4813,F#4,1245.0,1.5,33,165.83
4814,C6,1245.25,0.25,30,165.83
4815,G#5,1245.5,0.25,33,165.83
4816,C6,1245.75,0.25,29,165.83
4817,E-6,1246.0,0.25,33,165.83
4818,C6,1246.25,0.25,28,165.83
4819,E-6,1246.5,0.25,37,165.83
4820,F#3,1246.5,1.5,30,165.83
4821,C6,1246.75,0.25,33,165.83
4822,G#5,1247.0,0.25,34,165.83
4823,C6,1247.25,0.25,29,165.83
4824,E-6,1247.5,0.25,33,165.83
4825,C6,1247.75,0.25,29,165.83
4826,F6,1248.0,0.25,38,165.83
4827,F3,1248.0,1.5,33,165.83
4828,C#6,1248.25,0.25,30,165.83
4829,G#5,1248.5,0.25,37,165.83
4830,C#6,1248.75,0.25,30,165.83
4831,F6,1249.0,0.25,33,165.83
4832,C#6,1249.25,0.25,31,165.83
4833,F6,1249.5,0.25,37,165.83
4834,G#3,1249.5,1.25,34,165.83
4835,C#6,1249.75,0.25,30,165.83
4836,G#5,1250.0,0.25,36,165.83
4837,C#6,1250.25,0.25,31,165.83
4838,F6,1250.5,0.25,34,165.83
4839,C#6,1250.75,0.25,33,165.83
4840,C#4,1250.75,0.25,30,165.83
4841,F6,1251.0,0.25,40,165.83
4842,F4,1251.0,1.5,36,165.83
4843,C#6,1251.25,0.25,33,165.83
4844,G#5,1251.5,0.25,35,165.83
4845,C#6,1251.75,0.25,31,165.83
4846,F6,1252.0,0.25,35,165.83
4847,C#6,1252.25,0.25,30,165.83
4848,F6,1252.5,0.25,40,165.83
4849,F3,1252.5,1.5,35,165.83
4850,C#6,1252.75,0.25,36,165.83
4851,G#5,1253.0,0.25,37,165.83
4852,C#6,1253.25,0.25,33,165.83
4853,F6,1253.5,0.25,36,165.83
4854,C#6,1253.75,0.25,33,165.83
4855,F#6,1254.0,0.25,40,165.83
4856,E-3,1254.0,1.25,40,165.83
4857,C6,1254.25,0.25,35,165.83
4858,G#5,1254.5,0.25,40,165.83
4859,C6,1254.75,0.25,35,165.83
4860,F#6,1255.0,0.25,37,165.83
4861,C6,1255.25,0.25,36,165.83
4862,F#3,1255.25,0.25,36,165.83
4863,F#6,1255.5,0.25,42,165.83
4864,G#3,1255.5,1.25,42,165.83
4865,C6,1255.75,0.25,35,165.83
4866,G#5,1256.0,0.25,41,165.83
4867,C6,1256.25,0.25,37,165.83
4868,F#6,1256.5,0.25,38,165.83
4869,C6,1256.75,0.25,37,165.83
4870,C4,1256.75,0.25,38,165.83
4871,F#6,1257.0,0.25,44,165.83
4872,E-4,1257.0,1.25,44,165.83
4873,C6,1257.25,0.25,36,165.83
4874,G#5,1257.5,0.25,44,165.83
4875,C6,1257.75,0.25,38,165.83
4876,F#6,1258.0,0.25,39,165.83
4877,C6,1258.25,0.25,38,165.83
4878,F#4,1258.25,0.25,39,165.83
4879,F#6,1258.5,0.25,45,165.83
4880,G#4,1258.5,1.25,47,165.83
4881,E-6,1258.75,0.25,38,165.83
4882,G#5,1259.0,0.25,44,165.83
4883,E-6,1259.25,0.25,39,165.83
4884,F#6,1259.5,0.25,39,165.83
4885,E-6,1259.75,0.25,39,165.83
4886,C5,1259.75,0.25,42,165.83
4887,F6,1260.0,1.0,55,165.83
4888,C#4,1260.0,0.5,33,165.83
4889,F4,1260.5,0.5,26,165.83
4890,G#4,1260.5,0.5,26,165.83
4891,C#5,1260.5,0.5,26,165.83
4892,C#4,1261.0,0.5,31,165.83
4893,F4,1261.5,0.5,28,165.83
4894,G#4,1261.5,0.5,28,165.83
4895,C#5,1261.5,0.5,28,165.83
4896,C#4,1262.0,0.5,31,165.83
4897,F4,1262.5,0.5,26,165.83
4898,G#4,1262.5,0.5,26,165.83
4899,C#5,1262.5,0.5,26,165.83
4900,C#4,1263.0,0.5,33,165.83
4901,F4,1263.5,0.5,26,165.83
4902,G#4,1263.5,0.5,26,165.83
4903,C#5,1263.5,0.5,26,165.83
4904,C#4,1264.0,0.5,31,165.83
4905,F5,1264.5,1.25,62,165.83
4906,F4,1264.5,0.5,28,165.83
4907,C#5,1264.5,0.5,28,165.83
4908,G#4,1264.5,0.5,28,165.83
4909,C#4,1265.0,0.5,31,165.83
4910,F4,1265.5,0.5,27,165.83
4911,G#4,1265.5,0.5,27,165.83
4912,C#5,1265.5,0.5,27,165.83
4913,G#5,1265.75,0.25,57,165.83
4914,C#6,1266.0,1.5,66,165.83
4915,C#4,1266.0,0.5,33,165.83
4916,F4,1266.5,0.5,26,165.83
4917,G#4,1266.5,0.5,26,165.83
4918,C#5,1266.5,0.5,26,165.83
4919,C#4,1267.0,0.5,31,165.83
4920,F6,1267.5,1.25,62,165.83
4921,F4,1267.5,0.5,28,165.83
4922,G#4,1267.5,0.5,28,165.83
4923,C#5,1267.5,0.5,28,165.83
4924,C#4,1268.0,0.5,31,165.83
4925,G#4,1268.5,0.5,26,165.83
4926,C#5,1268.5,0.5,26,165.83
4927,F4,1268.5,0.5,26,165.83
4928,C#6,1268.75,0.25,55,165.83
4929,C6,1269.0,1.5,63,165.83
4930,E-4,1269.0,0.5,33,165.83
4931,F#4,1269.5,0.5,26,165.83
4932,G#4,1269.5,0.5,26,165.83
4933,E-5,1269.5,0.5,26,165.83
4934,E-4,1270.0,0.5,31,165.83
4935,E-6,1270.5,1.25,66,165.83
4936,G#4,1270.5,0.5,28,165.83
4937,F#4,1270.5,0.5,28,165.83
4938,E-5,1270.5,0.5,28,165.83
4939,E-4,1271.0,0.5,31,165.83
4940,F#4,1271.5,0.5,27,165.83
4941,G#4,1271.5,0.5,27,165.83
4942,E-5,1271.5,0.5,27,165.83
4943,C6,1271.75,0.25,55,165.83
4944,C#6,1272.0,1.5,66,165.83
4945,F4,1272.0,0.5,33,165.83
4946,G#4,1272.5,0.5,26,165.83
4947,F5,1272.5,0.5,26,165.83
4948,C#5,1272.5,0.5,26,165.83
4949,F4,1273.0,0.5,31,165.83
4950,G#5,1273.5,3.0,59,165.83
4951,F5,1273.5,0.5,28,165.83
4952,C#5,1273.5,0.5,28,165.83
4953,G#4,1273.5,0.5,28,165.83
4954,F4,1274.0,0.5,31,165.83
4955,G#4,1274.5,0.5,26,165.83
4956,F5,1274.5,0.5,26,165.83
4957,C#5,1274.5,0.5,26,165.83
4958,F4,1275.0,0.5,33,165.83
4959,F5,1275.5,0.5,26,165.83
4960,G#4,1275.5,0.5,26,165.83
4961,C#5,1275.5,0.5,26,165.83
4962,F4,1276.0,0.5,31,165.83
4963,F5,1276.5,1.25,68,165.83
4964,C#5,1276.5,0.5,36,165.83
4965,G#4,1276.5,0.5,36,165.83
4966,G#4,1277.0,0.5,34,165.83
4967,G#4,1277.5,0.5,35,165.83
4968,C#5,1277.5,0.5,35,165.83
4969,G#5,1277.75,0.25,62,165.83
4970,C#6,1278.0,1.5,71,165.83
4971,F4,1278.0,0.5,36,165.83
4972,G#4,1278.5,0.5,28,165.83
4973,C#5,1278.5,0.5,28,165.83
4974,F5,1278.5,0.5,28,165.83
4975,F4,1279.0,0.5,34,165.83
4976,F6,1279.5,1.25,74,165.83
4977,C#5,1279.5,0.5,32,165.83
4978,G#4,1279.5,0.5,32,165.83
4979,F5,1279.5,0.5,32,165.83
4980,F4,1280.0,0.5,35,165.83
4981,F5,1280.5,0.5,30,165.83
4982,C#5,1280.5,0.5,30,165.83
4983,G#4,1280.5,0.5,30,165.83
4984,C#6,1280.75,0.25,64,165.83
4985,C6,1281.0,1.5,75,165.83
4986,F#4,1281.0,0.5,39,165.83
4987,A4,1281.5,0.5,31,165.83
4988,E-5,1281.5,0.5,31,165.83
4989,C5,1281.5,0.5,31,165.83
4990,F#4,1282.0,0.5,38,165.83
4991,E-6,1282.5,1.25,80,165.83
4992,E-5,1282.5,0.5,40,165.83
4993,A4,1282.5,0.5,40,165.83
4994,C5,1282.5,0.5,40,165.83
4995,F#4,1283.0,0.5,38,165.83
4996,E-5,1283.5,0.5,40,165.83
4997,A4,1283.5,0.5,40,165.83
4998,C5,1283.5,0.5,40,165.83
4999,C6,1283.75,0.25,71,165.83
5000,B5,1284.0,1.5,85,165.83
5001,F4,1284.0,0.5,49,165.83
5002,D5,1284.5,0.5,33,165.83
5003,B4,1284.5,0.5,33,165.83
5004,G#4,1284.5,0.5,33,165.83
5005,F4,1285.0,0.5,41,165.83
5006,D6,1285.5,3.0,95,165.83
5007,G#4,1285.5,0.5,38,165.83
5008,D5,1285.5,0.5,38,165.83
5009,B4,1285.5,0.5,38,165.83
5010,F4,1286.0,0.5,42,165.83
5011,G#4,1286.5,0.5,37,165.83
5012,D5,1286.5,0.5,37,165.83
5013,B4,1286.5,0.5,37,165.83
5014,F4,1287.0,0.5,49,165.83
5015,G#4,1287.5,0.5,40,165.83
5016,B4,1287.5,0.5,40,165.83
5017,D5,1287.5,0.5,40,165.83
5018,F4,1288.0,0.5,48,165.83
5019,D6,1288.5,1.25,84,165.83
5020,B4,1288.5,0.5,46,165.83
5021,G#4,1288.5,0.5,46,165.83
5022,D5,1288.5,0.5,46,165.83
5023,F4,1289.0,0.5,50,165.83
5024,D5,1289.5,0.5,45,165.83
5025,G#4,1289.5,0.5,45,165.83
5026,B4,1289.5,0.5,45,165.83
5027,B5,1289.75,0.25,79,165.83
5028,C6,1290.0,1.5,85,165.83
5029,E4,1290.0,0.5,54,165.83
5030,E5,1290.5,0.5,40,165.83
5031,C5,1290.5,0.5,40,165.83
5032,G4,1290.5,0.5,40,165.83
5033,E4,1291.0,0.5,51,165.83
5034,E6,1291.5,3.0,97,165.83
5035,G4,1291.5,0.5,46,165.83
5036,E5,1291.5,0.5,46,165.83
5037,C5,1291.5,0.5,46,165.83
5038,E4,1292.0,0.5,47,165.83
5039,G4,1292.5,0.5,45,165.83
5040,E5,1292.5,0.5,45,165.83
5041,C5,1292.5,0.5,45,165.83
5042,E4,1293.0,0.5,49,165.83
5043,G4,1293.5,0.5,47,165.83
5044,C5,1293.5,0.5,47,165.83
5045,E5,1293.5,0.5,47,165.83
5046,E4,1294.0,0.5,48,165.83
5047,G6,1294.5,1.25,78,165.83
5048,G5,1294.5,1.25,78,165.83
5049,C5,1294.5,0.5,46,165.83
5050,G4,1294.5,0.5,46,165.83
5051,E5,1294.5,0.5,46,165.83
5052,E4,1295.0,0.5,50,165.83
5053,E5,1295.5,0.5,45,165.83
5054,G4,1295.5,0.5,45,165.83
5055,C5,1295.5,0.5,45,165.83
5056,F5,1295.75,0.25,73,165.83
5057,F6,1295.75,0.25,73,165.83
5058,B-3,1296.0,0.5,54,165.83
5059,E6,1296.0,1.5,78,165.83
5060,E5,1296.0,1.5,78,165.83
5061,G4,1296.5,0.5,40,165.83
5062,E4,1296.5,0.5,40,165.83
5063,C#4,1296.5,0.5,40,165.83
5064,B-3,1297.0,0.5,51,165.83
5065,G5,1297.5,3.0,86,165.83
5066,G6,1297.5,3.0,86,165.83
5067,C#4,1297.5,0.5,46,165.83
5068,G4,1297.5,0.5,46,165.83
5069,E4,1297.5,0.5,46,165.83
5070,B-3,1298.0,0.5,47,165.83
5071,C#4,1298.5,0.5,45,165.83
5072,G4,1298.5,0.5,45,165.83
5073,E4,1298.5,0.5,45,165.83
5074,B-3,1299.0,0.5,49,165.83
5075,E4,1299.5,0.5,47,165.83
5076,G4,1299.5,0.5,47,165.83
5077,C#4,1299.5,0.5,47,165.83
5078,B-3,1300.0,0.5,48,165.83
5079,G5,1300.5,1.25,81,165.83
5080,G6,1300.5,1.25,81,165.83
5081,C#4,1300.5,0.5,48,165.83
5082,G4,1300.5,0.5,48,165.83
5083,E4,1300.5,0.5,48,165.83
5084,B-3,1301.0,0.5,52,165.83
5085,C#4,1301.5,0.5,47,165.83
5086,E4,1301.5,0.5,47,165.83
5087,G4,1301.5,0.5,47,165.83
5088,E5,1301.75,0.25,76,165.83
5089,E6,1301.75,0.25,76,165.83
5090,G#3,1302.0,0.5,56,165.83
5091,F6,1302.0,1.5,82,165.83
5092,F5,1302.0,1.5,82,165.83
5093,C4,1302.5,0.5,42,165.83
5094,F4,1302.5,0.5,42,165.83
5095,G#4,1302.5,0.5,42,165.83
5096,G#3,1303.0,0.5,53,165.83
5097,G#6,1303.5,3.0,88,165.83
5098,G#5,1303.5,3.0,88,165.83
5099,F4,1303.5,0.5,48,165.83
5100,G#4,1303.5,0.5,48,165.83
5101,C4,1303.5,0.5,48,165.83
5102,G#3,1304.0,0.5,49,165.83
5103,F4,1304.5,0.5,47,165.83
5104,G#4,1304.5,0.5,47,165.83
5105,C4,1304.5,0.5,47,165.83
5106,G#3,1305.0,0.5,51,165.83
5107,F4,1305.5,0.5,49,165.83
5108,G#4,1305.5,0.5,49,165.83
5109,C4,1305.5,0.5,49,165.83
5110,G#3,1306.0,0.5,50,165.83
5111,G#6,1306.5,1.25,81,165.83
5112,G#5,1306.5,1.25,81,165.83
5113,C4,1306.5,0.5,48,165.83
5114,G#4,1306.5,0.5,48,165.83
5115,F4,1306.5,0.5,48,165.83
5116,G#3,1307.0,0.5,52,165.83
5117,C4,1307.5,0.5,47,165.83
5118,F4,1307.5,0.5,47,165.83
5119,G#4,1307.5,0.5,47,165.83
5120,F6,1307.75,0.25,76,165.83
5121,F5,1307.75,0.25,76,165.83
5122,B-1,1308.0,0.5,101,165.83
5123,B-2,1308.0,0.5,101,165.83
5124,C#4,1308.25,0.25,80,165.83
5125,B-3,1308.5,0.25,77,165.83
5126,F#4,1308.75,0.25,72,165.83
5127,C#3,1309.0,0.25,75,165.83
5128,F#3,1309.25,0.25,69,165.83
5129,B-3,1309.5,0.5,86,165.83
5130,F#4,1309.75,0.25,75,165.83
5131,C#4,1310.0,0.25,78,165.83
5132,B-4,1310.25,0.25,73,165.83
5133,F#3,1310.5,0.25,75,165.83
5134,B-3,1310.75,0.25,73,165.83
5135,C#4,1311.0,0.5,86,165.83
5136,B-4,1311.25,0.25,74,165.83
5137,F#4,1311.5,0.25,80,165.83
5138,C#5,1311.75,0.25,74,165.83
5139,B-3,1312.0,0.25,78,165.83
5140,C#4,1312.25,0.25,73,165.83
5141,F#4,1312.5,0.5,84,165.83
5142,C#5,1312.75,0.25,75,165.83
5143,B-4,1313.0,0.25,80,165.83
5144,F#5,1313.25,0.25,72,165.83
5145,C#4,1313.5,0.25,77,165.83
5146,F#4,1313.75,0.25,71,165.83
5147,B-4,1314.0,0.5,81,165.83
5148,F#5,1314.25,0.25,74,165.83
5149,C#5,1314.5,0.25,77,165.83
5150,B-5,1314.75,0.25,72,165.83
5151,F#4,1315.0,0.25,75,165.83
5152,B-4,1315.25,0.25,74,165.83
5153,C#5,1315.5,0.5,81,165.83
5154,B-5,1315.75,0.25,71,165.83
5155,F#5,1316.0,0.25,75,165.83
5156,C#6,1316.25,0.25,73,165.83
5157,B-4,1316.5,0.25,75,165.83
5158,C#5,1316.75,0.25,73,165.83
5159,F#5,1317.0,0.5,84,165.83
5160,C#6,1317.25,0.25,74,165.83
5161,B-5,1317.5,0.25,80,165.83
5162,F#6,1317.75,0.25,74,165.83
5163,C#5,1318.0,0.25,75,165.83
5164,F#5,1318.25,0.25,74,165.83
5165,B-5,1318.5,0.5,83,165.83
5166,F#6,1319.0,0.25,82,165.83
5167,C#6,1319.25,0.25,79,165.83
5168,B-6,1319.5,0.5,84,165.83
5169,C3,1320.0,0.5,101,165.83
5170,C2,1320.0,0.5,101,165.83
5171,E-4,1320.25,0.25,80,165.83
5172,C4,1320.5,0.25,77,165.83
5173,A4,1320.75,0.25,72,165.83
5174,E-3,1321.0,0.25,80,165.83
5175,A3,1321.25,0.25,73,165.83
5176,C4,1321.5,0.5,89,165.83
5177,A4,1321.75,0.25,75,165.83
5178,E-4,1322.0,0.25,78,165.83
5179,C5,1322.25,0.25,73,165.83
5180,A3,1322.5,0.25,78,165.83
5181,C4,1322.75,0.25,73,165.83
5182,E-4,1323.0,0.5,86,165.83
5183,C5,1323.25,0.25,74,165.83
5184,A4,1323.5,0.25,80,165.83
5185,E-5,1323.75,0.25,74,165.83
5186,C4,1324.0,0.25,78,165.83
5187,E-4,1324.25,0.25,73,165.83
5188,A4,1324.5,0.5,84,165.83
5189,E-5,1324.75,0.25,75,165.83
5190,C5,1325.0,0.25,80,165.83
5191,A5,1325.25,0.25,72,165.83
5192,E-4,1325.5,0.25,77,165.83
5193,A4,1325.75,0.25,71,165.83
5194,C5,1326.0,0.5,82,165.83
5195,A5,1326.25,0.25,75,165.83
5196,E-5,1326.5,0.25,77,165.83
5197,C6,1326.75,0.25,72,165.83
5198,A4,1327.0,0.25,75,165.83
5199,C5,1327.25,0.25,73,165.83
5200,E-5,1327.5,0.5,85,165.83
5201,C6,1327.75,0.25,71,165.83
5202,A5,1328.0,0.25,75,165.83
5203,E-6,1328.25,0.25,73,165.83
5204,C5,1328.5,0.25,75,165.83
5205,E-5,1328.75,0.25,73,165.83
5206,A5,1329.0,0.5,84,165.83
5207,E-6,1329.25,0.25,74,165.83
5208,C6,1329.5,0.25,80,165.83
5209,A6,1329.75,0.25,74,165.83
5210,E-5,1330.0,0.25,80,165.83
5211,A5,1330.25,0.25,74,165.83
5212,C6,1330.5,0.5,85,165.83
5213,A6,1331.0,0.25,83,165.83
5214,E-6,1331.25,0.25,77,165.83
5215,C7,1331.5,0.5,83,165.83
5216,C#2,1332.0,0.5,101,165.83
5217,C#3,1332.0,0.5,101,165.83
5218,F4,1332.25,0.25,74,165.83
5219,C#4,1332.5,0.25,77,165.83
5220,B-4,1332.75,0.25,72,165.83
5221,F3,1333.0,0.25,78,165.83
5222,B-3,1333.25,0.25,73,165.83
5223,C#4,1333.5,0.5,84,165.83
5224,B-4,1334.0,0.25,75,165.83
5225,F4,1334.25,0.25,72,165.83
5226,C#5,1334.5,0.5,73,165.83
5227,E3,1335.0,0.5,101,165.83
5228,E2,1335.0,0.5,101,165.83
5229,G4,1335.25,0.25,75,165.83
5230,E4,1335.5,0.25,77,165.83
5231,C5,1335.75,0.25,72,165.83
5232,G3,1336.0,0.25,80,165.83
5233,C4,1336.25,0.25,73,165.83
5234,E4,1336.5,0.5,82,165.83
5235,C5,1337.0,0.25,75,165.83
5236,G4,1337.25,0.25,72,165.83
5237,E5,1337.5,0.5,73,165.83
5238,F3,1338.0,0.5,101,165.83
5239,F2,1338.0,0.5,101,165.83
5240,G#4,1338.25,0.25,73,165.83
5241,F4,1338.5,0.25,77,165.83
5242,C#5,1338.75,0.25,72,165.83
5243,G#3,1339.0,0.25,80,165.83
5244,C#4,1339.25,0.25,73,165.83
5245,F4,1339.5,0.5,86,165.83
5246,C#5,1340.0,0.25,75,165.83
5247,G#4,1340.25,0.25,71,165.83
5248,F5,1340.5,0.5,73,165.83
5249,G2,1341.0,0.5,101,165.83
5250,G3,1341.0,0.5,101,165.83
5251,B-4,1341.25,0.25,80,165.83
5252,G4,1341.5,0.25,77,165.83
5253,E5,1341.75,0.25,72,165.83
5254,B-3,1342.0,0.25,80,165.83
5255,E4,1342.25,0.25,73,165.83
5256,G4,1342.5,0.5,86,165.83
5257,E5,1343.0,0.25,75,165.83
5258,B-4,1343.25,0.25,73,165.83
5259,G5,1343.5,0.5,73,165.83
5260,G#2,1344.0,0.5,75,165.83
5261,C5,1344.25,0.25,64,165.83
5262,G#4,1344.5,0.25,69,165.83
5263,F5,1344.75,0.25,64,165.83
5264,G#3,1345.0,0.25,69,165.83
5265,C4,1345.25,0.25,61,165.83
5266,B-2,1345.5,0.5,77,165.83
5267,C#5,1345.75,0.25,64,165.83
5268,B-4,1346.0,0.25,69,165.83
5269,G5,1346.25,0.25,67,165.83
5270,B-3,1346.5,0.25,69,165.83
5271,C#4,1346.75,0.25,64,165.83
5272,C3,1347.0,0.5,78,165.83
5273,E-5,1347.25,0.25,69,165.83
5274,C5,1347.5,0.25,73,165.83
5275,A5,1347.75,0.25,69,165.83
5276,C4,1348.0,0.25,71,165.83
5277,E-4,1348.25,0.25,67,165.83
5278,C#3,1348.5,0.5,81,165.83
5279,F5,1348.75,0.25,71,165.83
5280,C#5,1349.0,0.25,68,165.83
5281,B-5,1349.25,0.25,70,165.83
5282,C#4,1349.5,0.25,77,165.83
5283,F4,1349.75,0.25,71,165.83
5284,E3,1350.0,0.5,80,165.83
5285,G5,1350.25,0.25,71,165.83
5286,E5,1350.5,0.25,73,165.83
5287,C6,1350.75,0.25,70,165.83
5288,E4,1351.0,0.25,77,165.83
5289,G4,1351.25,0.25,73,165.83
5290,F3,1351.5,0.5,83,165.83
5291,G#5,1351.75,0.25,69,165.83
5292,F5,1352.0,0.25,73,165.83
5293,C#6,1352.25,0.25,72,165.83
5294,F4,1352.5,0.25,77,165.83
5295,G#4,1352.75,0.25,72,165.83
5296,G3,1353.0,0.5,84,165.83
5297,B-5,1353.25,0.25,74,165.83
5298,G5,1353.5,0.25,78,165.83
5299,E6,1353.75,0.25,74,165.83
5300,G4,1354.0,0.25,78,165.83
5301,B-4,1354.25,0.25,74,165.83
5302,G#3,1354.5,0.5,85,165.83
5303,C6,1354.75,0.25,75,165.83
5304,G#5,1355.0,0.25,77,165.83
5305,F6,1355.25,0.25,75,165.83
5306,G#4,1355.5,0.25,77,165.83
5307,C5,1355.75,0.25,73,165.83
5308,B-3,1356.0,0.5,86,165.83
5309,C#6,1356.25,0.25,78,165.83
5310,B-5,1356.5,0.25,79,165.83
5311,G6,1356.75,0.25,74,165.83
5312,B-4,1357.0,0.25,81,165.83
5313,C#5,1357.25,0.25,77,165.83
5314,C4,1357.5,0.5,89,165.83
5315,E-6,1357.75,0.25,74,165.83
5316,C6,1358.0,0.25,79,165.83
5317,A6,1358.25,0.25,74,165.83
5318,C5,1358.5,0.25,80,165.83
5319,E-5,1358.75,0.25,78,165.83
5320,C#4,1359.0,0.5,89,165.83
5321,F6,1359.25,0.25,79,165.83
5322,C#6,1359.5,0.25,80,165.83
5323,B-6,1359.75,0.25,79,165.83
5324,C#5,1360.0,0.25,83,165.83
5325,F5,1360.25,0.25,80,165.83
5326,C#4,1360.5,0.5,92,165.83
5327,F6,1360.75,0.25,81,165.83
5328,C#6,1361.0,0.25,83,165.83
5329,B-6,1361.25,0.25,80,165.83
5330,C#5,1361.5,0.25,84,165.83
5331,F5,1361.75,0.25,80,165.83
5332,F2,1362.0,0.25,108,165.83
5333,F3,1362.25,0.25,100,165.83
5334,G#3,1362.5,0.25,92,165.83
5335,F6,1362.75,0.25,78,165.83
5336,C#6,1363.0,0.25,82,165.83
5337,B-6,1363.25,0.25,79,165.83
5338,F6,1363.5,0.25,89,165.83
5339,C#6,1363.75,0.25,83,165.83
5340,B-5,1364.0,0.25,78,165.83
5341,F5,1364.25,0.25,78,165.83
5342,C#5,1364.5,0.25,82,165.83
5343,B-5,1364.75,0.25,79,165.83
5344,F5,1365.0,0.25,86,165.83
5345,C#5,1365.25,0.25,82,165.83
5346,B-4,1365.5,0.25,80,165.83
5347,F4,1365.75,0.25,74,165.83
5348,C#4,1366.0,0.25,78,165.83
5349,B-4,1366.25,0.25,73,165.83
5350,F4,1366.5,0.25,81,165.83
5351,C#4,1366.75,0.25,78,165.83
5352,B-3,1367.0,0.25,74,165.83
5353,F3,1367.25,0.25,74,165.83
5354,C#3,1367.5,0.25,74,165.83
5355,B-3,1367.75,0.25,74,165.83
5356,F3,1368.0,0.25,79,165.83
5357,C#3,1368.25,0.25,71,165.83
5358,B-2,1368.5,0.25,74,165.83
5359,C#3,1368.75,0.25,71,165.83
5360,F3,1369.0,0.25,74,165.83
5361,B-3,1369.25,0.25,72,165.83
5362,C#4,1369.5,0.25,80,165.83
5363,F4,1369.75,0.25,75,165.83
5364,B-4,1370.0,0.25,75,165.83
5365,C#5,1370.25,0.25,75,165.83
5366,F5,1370.5,0.25,79,165.83
5367,C#5,1370.75,0.25,73,165.83
5368,B-4,1371.0,0.25,80,165.83
5369,C#5,1371.25,0.25,74,165.83
5370,F5,1371.5,0.25,79,165.83
5371,B-5,1371.75,0.25,74,165.83
5372,C#6,1372.0,0.25,82,165.83
5373,B-5,1372.25,0.25,75,165.83
5374,F6,1372.5,0.25,83,165.83
5375,C#6,1372.75,0.25,78,165.83
5376,B-6,1373.0,0.25,83,165.83
5377,F6,1373.25,0.25,78,165.83
5378,C#6,1373.5,0.25,80,165.83
5379,B-5,1373.75,0.25,75,165.83
5380,D4,1374.0,0.25,105,165.83
5381,D5,1374.25,0.25,100,165.83
5382,F5,1374.5,0.25,92,165.83
5383,G#6,1374.75,0.25,78,165.83
5384,F6,1375.0,0.25,85,165.83
5385,B6,1375.25,0.25,81,165.83
5386,G#6,1375.5,0.25,92,165.83
5387,F6,1375.75,0.25,80,165.83
5388,D6,1376.0,0.25,81,165.83
5389,B5,1376.25,0.25,77,165.83
5390,G#5,1376.5,0.25,81,165.83
5391,F5,1376.75,0.25,79,165.83
5392,B5,1377.0,0.25,85,165.83
5393,G#5,1377.25,0.25,82,165.83
5394,F5,1377.5,0.25,78,165.83
5395,D5,1377.75,0.25,74,165.83
5396,B4,1378.0,0.25,75,165.83
5397,G#4,1378.25,0.25,73,165.83
5398,D5,1378.5,0.25,81,165.83
5399,B4,1378.75,0.25,78,165.83
5400,G#4,1379.0,0.25,74,165.83
5401,F4,1379.25,0.25,74,165.83
5402,D4,1379.5,0.25,74,165.83
5403,B3,1379.75,0.25,74,165.83
5404,G#4,1380.0,0.25,79,165.83
5405,F4,1380.25,0.25,71,165.83
5406,D4,1380.5,0.25,74,165.83
5407,B3,1380.75,0.25,71,165.83
5408,G#3,1381.0,0.25,74,165.83
5409,F3,1381.25,0.25,72,165.83
5410,D3,1381.5,0.25,80,165.83
5411,B2,1381.75,0.25,75,165.83
5412,D3,1382.0,0.25,75,165.83
5413,F3,1382.25,0.25,75,165.83
5414,G#3,1382.5,0.25,79,165.83
5415,B3,1382.75,0.25,73,165.83
5416,D4,1383.0,0.25,80,165.83
5417,F4,1383.25,0.25,74,165.83
5418,G#4,1383.5,0.25,79,165.83
5419,B4,1383.75,0.25,74,165.83
5420,D5,1384.0,0.25,82,165.83
5421,F5,1384.25,0.25,75,165.83
5422,G#5,1384.5,0.25,83,165.83
5423,B5,1384.75,0.25,78,165.83
5424,D6,1385.0,0.25,83,165.83
5425,F6,1385.25,0.25,78,165.83
5426,G#6,1385.5,0.25,80,165.83
5427,B6,1385.75,0.25,75,165.83
5428,C2,1386.0,0.5,125,165.83
5429,G#6,1386.75,0.25,78,165.83
5430,F6,1387.0,0.25,82,165.83
5431,C7,1387.25,0.25,79,165.83
5432,G#6,1387.5,0.25,92,165.83
5433,F6,1387.75,0.25,83,165.83
5434,C6,1388.0,0.25,82,165.83
5435,G#5,1388.25,0.25,78,165.83
5436,F5,1388.5,0.25,82,165.83
5437,C6,1388.75,0.25,79,165.83
5438,G#5,1389.0,0.25,86,165.83
5439,F5,1389.25,0.25,82,165.83
5440,C5,1389.5,0.25,80,165.83
5441,G#4,1389.75,0.25,74,165.83
5442,F4,1390.0,0.25,78,165.83
5443,C5,1390.25,0.25,73,165.83
5444,G#4,1390.5,0.25,81,165.83
5445,F4,1390.75,0.25,78,165.83
5446,C4,1391.0,0.25,74,165.83
5447,G#3,1391.25,0.25,74,165.83
5448,F3,1391.5,0.25,74,165.83
5449,C4,1391.75,0.25,74,165.83
5450,G#3,1392.0,0.25,79,165.83
5451,F3,1392.25,0.25,71,165.83
5452,C3,1392.5,0.25,74,165.83
5453,G#2,1392.75,0.25,71,165.83
5454,F2,1393.0,0.25,74,165.83
5455,C2,1393.25,0.25,72,165.83
5456,F2,1393.5,0.25,80,165.83
5457,G#2,1393.75,0.25,75,165.83
5458,C3,1394.0,0.25,75,165.83
5459,F3,1394.25,0.25,75,165.83
5460,G#3,1394.5,0.25,79,165.83
5461,C4,1394.75,0.25,73,165.83
5462,F4,1395.0,0.25,80,165.83
5463,G#4,1395.25,0.25,74,165.83
5464,C5,1395.5,0.25,79,165.83
5465,F5,1395.75,0.25,74,165.83
5466,G#5,1396.0,0.25,78,165.83
5467,C6,1396.25,0.25,75,165.83
5468,F6,1396.5,0.25,83,165.83
5469,G#6,1396.75,0.25,78,165.83
5470,C7,1397.0,0.25,83,165.83
5471,G#6,1397.25,0.25,78,165.83
5472,F6,1397.5,0.25,80,165.83
5473,C6,1397.75,0.25,75,165.83
5474,C2,1398.0,0.25,82,165.83
5475,C3,1398.25,0.25,72,165.83
5476,E3,1398.5,0.25,73,165.83
5477,G6,1398.75,0.25,72,165.83
5478,G3,1398.75,0.25,74,165.83
5479,E6,1399.0,0.25,77,165.83
5480,B-3,1399.0,0.5,74,165.83
5481,B-6,1399.25,0.25,73,165.83
5482,G6,1399.5,0.25,78,165.83
5483,E6,1399.75,0.25,77,165.83
5484,C6,1400.0,0.25,74,165.83
5485,B-5,1400.25,0.25,72,165.83
5486,G5,1400.5,0.25,77,165.83
5487,E5,1400.75,0.25,73,165.83
5488,C5,1401.0,0.25,78,165.83
5489,B-4,1401.25,0.25,75,165.83
5490,G4,1401.5,0.25,71,165.83
5491,E4,1401.75,0.25,70,165.83
5492,C4,1402.0,0.25,73,165.83
5493,B-3,1402.25,0.25,69,165.83
5494,G3,1402.5,0.25,74,165.83
5495,E3,1402.75,0.25,69,165.83
5496,C3,1403.0,0.25,71,165.83
5497,B-2,1403.25,0.25,70,165.83
5498,G2,1403.5,0.25,70,165.83
5499,E2,1403.75,0.25,70,165.83
5500,C2,1404.0,0.25,75,165.83
5501,E2,1404.25,0.25,67,165.83
5502,G2,1404.5,0.25,70,165.83
5503,B-2,1404.75,0.25,67,165.83
5504,C3,1405.0,0.25,70,165.83
5505,E3,1405.25,0.25,68,165.83
5506,G3,1405.5,0.25,76,165.83
5507,B-3,1405.75,0.25,71,165.83
5508,C4,1406.0,0.25,71,165.83
5509,E4,1406.25,0.25,71,165.83
5510,G4,1406.5,0.25,73,165.83
5511,B-4,1406.75,0.25,69,165.83
5512,C5,1407.0,0.25,73,165.83
5513,E5,1407.25,0.25,66,165.83
5514,G5,1407.5,0.25,70,165.83
5515,E5,1407.75,0.25,66,165.83
5516,C5,1408.0,0.25,70,165.83
5517,E5,1408.25,0.25,66,165.83
5518,G5,1408.5,0.25,70,165.83
5519,E5,1408.75,0.25,60,165.83
5520,B-5,1409.0,0.25,65,165.83
5521,G5,1409.25,0.25,58,165.83
5522,E5,1409.5,0.25,63,165.83
5523,G5,1409.75,0.25,56,165.83
5524,B-5,1410.0,1.0,57,165.83
5525,C#3,1411.5,0.5,37,165.83
5526,C#3,1412.0,0.5,35,165.83
5527,C#3,1412.5,0.5,35,165.83
5528,C3,1413.0,1.0,36,165.83
5529,G5,1414.5,0.5,46,165.83
5530,E5,1414.5,0.5,46,165.83
5531,E5,1415.0,0.5,42,165.83
5532,G5,1415.0,0.5,42,165.83
5533,E5,1415.5,0.5,46,165.83
5534,G5,1415.5,0.5,46,165.83
5535,B-5,1416.0,1.0,46,165.83
5536,G5,1416.0,1.0,46,165.83
5537,C#3,1417.5,0.5,35,165.83
5538,C#3,1418.0,0.5,33,165.83
5539,C#3,1418.5,0.5,33,165.83
5540,C3,1419.0,1.0,34,165.83
5541,E4,1420.5,0.5,39,165.83
5542,G4,1420.5,0.5,39,165.83
5543,E4,1421.0,0.5,37,165.83
5544,G4,1421.0,0.5,37,165.83
5545,G4,1421.5,0.5,37,165.83
5546,E4,1421.5,0.5,37,165.83
5547,G4,1422.0,1.0,41,165.83
5548,B-4,1422.0,1.0,41,165.83
5549,C#2,1423.5,0.5,32,165.83
5550,C#2,1424.0,0.5,30,165.83
5551,C#2,1424.5,0.5,30,165.83
5552,C2,1425.0,1.5,31,165.83
5553,C#2,1426.5,0.5,31,165.83
5554,C#2,1427.0,0.5,29,165.83
5555,C#2,1427.5,0.5,29,165.83
5556,C2,1428.0,1.5,29,165.83
5557,C#2,1429.5,0.5,21,165.83
5558,B-4,1429.5,0.5,32,165.83
5559,G4,1429.5,0.5,32,165.83
5560,E5,1429.5,0.5,32,165.83
5561,C#2,1430.0,0.5,24,165.83
5562,E5,1430.0,0.5,36,165.83
5563,B-4,1430.0,0.5,36,165.83
5564,G4,1430.0,0.5,36,165.83
5565,C#2,1430.5,0.5,26,165.83
5566,E5,1430.5,0.5,39,165.83
5567,G4,1430.5,0.5,39,165.83
5568,B-4,1430.5,0.5,39,165.83
5569,C2,1431.0,1.5,28,165.83
5570,E5,1431.0,1.5,43,165.83
5571,B-4,1431.0,1.5,43,165.83
5572,G4,1431.0,1.5,43,165.83
5573,C6,1432.5,0.5,90,165.83
5574,B-5,1432.5,0.5,90,165.83
5575,G5,1432.5,0.5,90,165.83
5576,E5,1432.5,0.5,90,165.83
5577,E6,1432.5,0.5,90,165.83
5578,C2,1432.5,0.5,76,165.83
5579,C3,1432.5,0.5,76,165.83
5580,E5,1433.0,0.5,81,165.83
5581,C6,1433.0,0.5,81,165.83
5582,G5,1433.0,0.5,81,165.83
5583,E6,1433.0,0.5,81,165.83
5584,B-5,1433.0,0.5,81,165.83
5585,C3,1433.0,0.5,72,165.83
5586,C2,1433.0,0.5,72,165.83
5587,G5,1433.5,0.5,81,165.83
5588,E5,1433.5,0.5,81,165.83
5589,B-5,1433.5,0.5,81,165.83
5590,C6,1433.5,0.5,81,165.83
5591,E6,1433.5,0.5,81,165.83
5592,C3,1433.5,0.5,72,165.83
5593,C2,1433.5,0.5,72,165.83
5594,C6,1434.0,1.0,91,165.83
5595,G#5,1434.0,1.0,91,165.83
5596,F6,1434.0,1.0,91,165.83
5597,F5,1434.0,1.0,91,165.83
5598,F1,1434.0,0.5,78,165.83
5599,F2,1434.0,0.5,78,165.83
5600,F4,1434.5,0.5,30,165.83
5601,C4,1434.5,0.5,30,165.83
5602,G#3,1435.0,0.5,37,165.83
5603,F4,1435.5,0.5,37,165.83
5604,C4,1435.5,0.5,37,165.83
5605,G#3,1436.0,0.5,37,165.83
5606,C4,1436.5,0.5,34,165.83
5607,F4,1436.5,0.5,34,165.83
5608,G#3,1437.0,0.5,42,165.83
5609,F4,1437.5,0.5,34,165.83
5610,C4,1437.5,0.5,34,165.83
5611,G#3,1438.0,0.5,37,165.83
5612,G#4,1438.5,1.25,66,165.83
5613,F4,1438.5,0.5,37,165.83
5614,C4,1438.5,0.5,37,165.83
5615,G#3,1439.0,0.5,37,165.83
5616,F4,1439.5,0.5,36,165.83
5617,C4,1439.5,0.5,36,165.83
5618,C5,1439.75,0.25,58,165.83
5619,F5,1440.0,1.5,63,165.83
5620,G#3,1440.0,0.5,42,165.83
5621,C4,1440.5,0.5,33,165.83
5622,F4,1440.5,0.5,33,165.83
5623,G#3,1441.0,0.5,37,165.83
5624,G#5,1441.5,1.25,68,165.83
5625,F4,1441.5,0.5,37,165.83
5626,C4,1441.5,0.5,37,165.83
5627,G#3,1442.0,0.5,37,165.83
5628,F4,1442.5,0.5,34,165.83
5629,C4,1442.5,0.5,34,165.83
5630,F5,1442.75,0.25,60,165.83
5631,E5,1443.0,1.5,63,165.83
5632,B-3,1443.0,0.5,42,165.83
5633,G4,1443.5,0.5,34,165.83
5634,C4,1443.5,0.5,34,165.83
5635,B-3,1444.0,0.5,37,165.83
5636,G5,1444.5,1.25,68,165.83
5637,G4,1444.5,0.5,37,165.83
5638,C4,1444.5,0.5,37,165.83
5639,B-3,1445.0,0.5,37,165.83
5640,G4,1445.5,0.5,36,165.83
5641,C4,1445.5,0.5,36,165.83
5642,E5,1445.75,0.25,60,165.83
5643,F5,1446.0,1.5,63,165.83
5644,G#3,1446.0,0.5,42,165.83
5645,C4,1446.5,0.5,33,165.83
5646,F4,1446.5,0.5,33,165.83
5647,G#3,1447.0,0.5,37,165.83
5648,C5,1447.5,3.0,62,165.83
5649,C4,1447.5,0.5,37,165.83
5650,F4,1447.5,0.5,37,165.83
5651,G#3,1448.0,0.5,37,165.83
5652,C4,1448.5,0.5,34,165.83
5653,F4,1448.5,0.5,34,165.83
5654,G#3,1449.0,0.5,42,165.83
5655,C4,1449.5,0.5,34,165.83
5656,F4,1449.5,0.5,34,165.83
5657,G#3,1450.0,0.5,42,165.83
5658,G#5,1450.5,1.25,66,165.83
5659,G#4,1450.5,1.25,66,165.83
5660,C4,1450.5,0.5,39,165.83
5661,F4,1450.5,0.5,39,165.83
5662,G#3,1451.0,0.5,40,165.83
5663,C4,1451.5,0.5,38,165.83
5664,F4,1451.5,0.5,38,165.83
5665,C6,1451.75,0.25,57,165.83
5666,C5,1451.75,0.25,57,165.83
5667,G#3,1452.0,0.5,46,165.83
5668,F5,1452.0,1.5,67,165.83
5669,F6,1452.0,1.5,67,165.83
5670,G#4,1452.5,0.5,38,165.83
5671,C4,1452.5,0.5,38,165.83
5672,F4,1452.5,0.5,38,165.83
5673,G#3,1453.0,0.5,42,165.83
5674,G#6,1453.5,1.25,72,165.83
5675,G#5,1453.5,1.25,72,165.83
5676,G#4,1453.5,0.5,43,165.83
5677,C4,1453.5,0.5,43,165.83
5678,F4,1453.5,0.5,43,165.83
5679,G#3,1454.0,0.5,43,165.83
5680,G#4,1454.5,0.5,41,165.83
5681,F4,1454.5,0.5,41,165.83
5682,C4,1454.5,0.5,41,165.83
5683,F6,1454.75,0.25,65,165.83
5684,F5,1454.75,0.25,65,165.83
5685,B-3,1455.0,0.5,49,165.83
5686,E6,1455.0,1.5,70,165.83
5687,E5,1455.0,1.5,70,165.83
5688,E4,1455.5,0.5,39,165.83
5689,C4,1455.5,0.5,39,165.83
5690,G4,1455.5,0.5,39,165.83
5691,B-3,1456.0,0.5,46,165.83
5692,G6,1456.5,1.25,75,165.83
5693,G5,1456.5,1.25,75,165.83
5694,E4,1456.5,0.5,43,165.83
5695,G4,1456.5,0.5,43,165.83
5696,C4,1456.5,0.5,43,165.83
5697,B-3,1457.0,0.5,47,165.83
5698,E4,1457.5,0.5,42,165.83
5699,G4,1457.5,0.5,42,165.83
5700,C4,1457.5,0.5,42,165.83
5701,E6,1457.75,0.25,71,165.83
5702,E5,1457.75,0.25,71,165.83
5703,A3,1458.0,0.5,55,165.83
5704,F#6,1458.0,1.5,90,165.83
5705,F#5,1458.0,1.5,90,165.83
5706,F#4,1458.5,0.5,45,165.83
5707,E-4,1458.5,0.5,45,165.83
5708,C4,1458.5,0.5,45,165.83
5709,A3,1459.0,0.5,49,165.83
5710,C5,1459.5,3.0,71,165.83
5711,C6,1459.5,3.0,71,165.83
5712,F#4,1459.5,0.5,50,165.83
5713,C4,1459.5,0.5,50,165.83
5714,E-4,1459.5,0.5,50,165.83
5715,A3,1460.0,0.5,49,165.83
5716,C4,1460.5,0.5,46,165.83
5717,E-4,1460.5,0.5,46,165.83
5718,F#4,1460.5,0.5,46,165.83
5719,A3,1461.0,0.5,55,165.83
5720,F#4,1461.5,0.5,46,165.83
5721,C4,1461.5,0.5,46,165.83
5722,E-4,1461.5,0.5,46,165.83
5723,A3,1462.0,0.5,55,165.83
5724,E-5,1462.5,1.25,77,165.83
5725,E-6,1462.5,1.25,77,165.83
5726,E-4,1462.5,0.5,44,165.83
5727,F#4,1462.5,0.5,44,165.83
5728,C4,1462.5,0.5,44,165.83
5729,A3,1463.0,0.5,48,165.83
5730,E-4,1463.5,0.5,43,165.83
5731,F#4,1463.5,0.5,43,165.83
5732,C4,1463.5,0.5,43,165.83
5733,C5,1463.75,0.25,72,165.83
5734,C6,1463.75,0.25,72,165.83
5735,A3,1464.0,0.5,55,165.83
5736,F6,1464.0,1.5,90,165.83
5737,F5,1464.0,1.5,90,165.83
5738,F4,1464.5,0.5,45,165.83
5739,E-4,1464.5,0.5,45,165.83
5740,C4,1464.5,0.5,45,165.83
5741,A3,1465.0,0.5,49,165.83
5742,B-4,1465.5,3.0,71,165.83
5743,B-5,1465.5,3.0,71,165.83
5744,F4,1465.5,0.5,55,165.83
5745,C#4,1465.5,0.5,55,165.83
5746,B-3,1466.0,0.5,49,165.83
5747,C#4,1466.5,0.5,49,165.83
5748,F4,1466.5,0.5,49,165.83
5749,B-3,1467.0,0.5,55,165.83
5750,F4,1467.5,0.5,49,165.83
5751,C#4,1467.5,0.5,49,165.83
5752,B-3,1468.0,0.5,55,165.83
5753,C#5,1468.5,1.25,77,165.83
5754,C#6,1468.5,1.25,77,165.83
5755,G4,1468.5,0.5,46,165.83
5756,E4,1468.5,0.5,46,165.83
5757,B-3,1469.0,0.5,48,165.83
5758,E4,1469.5,0.5,46,165.83
5759,G4,1469.5,0.5,46,165.83
5760,B-5,1469.75,0.25,72,165.83
5761,B-4,1469.75,0.25,72,165.83
5762,C3,1470.0,0.5,55,165.83
5763,G#4,1470.0,1.5,82,165.83
5764,G#5,1470.0,1.5,82,165.83
5765,F3,1470.5,0.5,45,165.83
5766,G#3,1470.5,0.5,45,165.83
5767,C4,1470.5,0.5,45,165.83
5768,C3,1471.0,0.5,49,165.83
5769,C6,1471.5,1.25,77,165.83
5770,C5,1471.5,1.25,77,165.83
5771,G#3,1471.5,0.5,44,165.83
5772,C4,1471.5,0.5,44,165.83
5773,F3,1471.5,0.5,44,165.83
5774,C3,1472.0,0.5,48,165.83
5775,G#3,1472.5,0.5,43,165.83
5776,F3,1472.5,0.5,43,165.83
5777,C4,1472.5,0.5,43,165.83
5778,G#5,1472.75,0.25,72,165.83
5779,G#4,1472.75,0.25,72,165.83
5780,B-2,1473.0,0.5,55,165.83
5781,G5,1473.0,1.5,82,165.83
5782,G4,1473.0,1.5,82,165.83
5783,C3,1473.5,0.5,45,165.83
5784,E3,1473.5,0.5,45,165.83
5785,G3,1473.5,0.5,45,165.83
5786,B-2,1474.0,0.5,49,165.83
5787,G5,1474.5,1.25,84,165.83
5788,G6,1474.5,1.25,84,165.83
5789,E3,1474.5,0.5,43,165.83
5790,C3,1474.5,0.5,43,165.83
5791,G3,1474.5,0.5,43,165.83
5792,B-2,1475.0,0.5,47,165.83
5793,G3,1475.5,0.5,42,165.83
5794,C3,1475.5,0.5,42,165.83
5795,E3,1475.5,0.5,42,165.83
5796,E5,1475.75,0.25,78,165.83
5797,E6,1475.75,0.25,78,165.83
5798,F#5,1475.958,1.5,94,165.83
5799,F#6,1475.958,1.5,94,165.83
5800,A2,1476.0,0.5,53,165.83
5801,E-3,1476.5,0.5,44,165.83
5802,A3,1476.5,0.5,44,165.83
5803,F#3,1476.5,0.5,44,165.83
5804,A2,1476.958,0.5,48,165.83
5805,C5,1477.5,3.0,78,165.83
5806,C6,1477.5,3.0,78,165.83
5807,E-3,1477.5,0.5,53,165.83
5808,A3,1477.5,0.5,53,165.83
5809,F#3,1477.5,0.5,53,165.83
5810,A2,1478.0,0.5,48,165.83
5811,E-3,1478.5,0.5,48,165.83
5812,A3,1478.5,0.5,48,165.83
5813,F#3,1478.5,0.5,48,165.83
5814,A2,1479.0,0.5,53,165.83
5815,E-3,1479.5,0.5,48,165.83
5816,A3,1479.5,0.5,48,165.83
5817,F#3,1479.5,0.5,48,165.83
5818,A2,1480.0,0.5,53,165.83
5819,E-6,1480.5,1.25,84,165.83
5820,E-5,1480.5,1.25,84,165.83
5821,F#3,1480.5,0.5,50,165.83
5822,A3,1480.5,0.5,50,165.83
5823,E-3,1480.5,0.5,50,165.83
5824,A2,1481.0,0.5,49,165.83
5825,F#3,1481.5,0.5,44,165.83
5826,A3,1481.5,0.5,44,165.83
5827,E-3,1481.5,0.5,44,165.83
5828,C5,1481.75,0.25,78,165.83
5829,C6,1481.75,0.25,78,165.83
5830,A2,1482.0,0.5,57,165.83
5831,F6,1482.0,1.5,94,165.83
5832,F5,1482.0,1.5,94,165.83
5833,A3,1482.5,0.5,46,165.83
5834,F3,1482.5,0.5,46,165.83
5835,E-3,1482.5,0.5,46,165.83
5836,A2,1483.0,0.5,49,165.83
5837,B-5,1483.5,3.0,78,165.83
5838,B-4,1483.5,3.0,78,165.83
5839,C#3,1483.5,0.5,57,165.83
5840,F3,1483.5,0.5,57,165.83
5841,B-3,1483.5,0.5,57,165.83
5842,B-2,1484.0,0.5,49,165.83
5843,C#3,1484.5,0.5,49,165.83
5844,F3,1484.5,0.5,49,165.83
5845,B-3,1484.5,0.5,49,165.83
5846,B-2,1485.0,0.5,57,165.83
5847,C#3,1485.5,0.5,49,165.83
5848,F3,1485.5,0.5,49,165.83
5849,B-3,1485.5,0.5,49,165.83
5850,B-2,1486.0,0.5,57,165.83
5851,C#5,1486.5,1.25,84,165.83
5852,C#6,1486.5,1.25,84,165.83
5853,G3,1486.5,0.5,51,165.83
5854,B-3,1486.5,0.5,51,165.83
5855,E3,1486.5,0.5,51,165.83
5856,B-2,1487.0,0.5,49,165.83
5857,E3,1487.5,0.5,50,165.83
5858,B-3,1487.5,0.5,50,165.83
5859,G3,1487.5,0.5,50,165.83
5860,B-4,1487.75,0.25,78,165.83
5861,B-5,1487.75,0.25,78,165.83
5862,C3,1488.0,0.5,57,165.83
5863,G#4,1488.0,1.5,90,165.83
5864,G#5,1488.0,1.5,90,165.83
5865,C4,1488.5,0.5,46,165.83
5866,G#3,1488.5,0.5,46,165.83
5867,F3,1488.5,0.5,46,165.83
5868,C3,1489.0,0.5,49,165.83
5869,C6,1489.5,1.25,84,165.83
5870,C5,1489.5,1.25,84,165.83
5871,F3,1489.5,0.5,45,165.83
5872,C4,1489.5,0.5,45,165.83
5873,G#3,1489.5,0.5,45,165.83
5874,C3,1490.0,0.5,49,165.83
5875,F3,1490.5,0.5,44,165.83
5876,C4,1490.5,0.5,44,165.83
5877,G#3,1490.5,0.5,44,165.83
5878,G#5,1490.75,0.25,78,165.83
5879,G#4,1490.75,0.25,78,165.83
5880,C3,1491.0,0.5,57,165.83
5881,G5,1491.0,1.5,90,165.83
5882,G4,1491.0,1.5,90,165.83
5883,C4,1491.5,0.5,46,165.83
5884,E3,1491.5,0.5,46,165.83
5885,G3,1491.5,0.5,46,165.83
5886,C3,1492.0,0.5,49,165.83
5887,C6,1492.5,1.0,92,165.83
5888,C5,1492.5,1.0,92,165.83
5889,C4,1492.5,0.5,41,165.83
5890,G3,1492.5,0.5,41,165.83
5891,E3,1492.5,0.5,41,165.83
5892,C3,1493.0,0.5,44,165.83
5893,C6,1493.5,0.5,88,165.83
5894,C5,1493.5,0.5,88,165.83
5895,C4,1493.5,0.5,40,165.83
5896,G3,1493.5,0.5,40,165.83
5897,E3,1493.5,0.5,40,165.83
5898,C6,1494.0,0.5,96,165.83
5899,C5,1494.0,0.5,96,165.83
5900,F2,1494.0,1.0,66,165.83
5901,C3,1494.0,1.0,66,165.83
5902,F3,1494.0,1.0,66,165.83
5903,G#2,1494.0,1.0,66,165.83
5904,F4,1494.5,0.458,66,165.83
5905,C4,1494.5,0.458,66,165.83
5906,C5,1494.5,0.458,66,165.83
5907,G#4,1494.5,0.458,66,165.83
5908,G#4,1495.0,0.458,66,165.83
5909,C5,1495.0,0.458,66,165.83
5910,C4,1495.0,0.458,66,165.83
5911,F4,1495.0,0.458,66,165.83
5912,G#4,1495.5,1.5,69,165.83
5913,F4,1495.5,1.5,69,165.83
5914,C5,1495.5,1.5,69,165.83
5915,C4,1495.5,1.5,69,165.83
5916,F3,1496.0,0.458,79,165.83
5917,G#3,1496.0,0.458,79,165.83
5918,F3,1496.5,0.458,76,165.83
5919,G#3,1496.5,0.458,76,165.83
5920,E3,1497.0,1.0,80,165.83
5921,G3,1497.0,1.0,80,165.83
5922,C4,1497.5,0.458,68,165.83
5923,C5,1497.5,0.458,68,165.83
5924,E4,1497.5,0.458,68,165.83
5925,G4,1497.5,0.458,68,165.83
5926,C5,1498.0,0.458,68,165.83
5927,C4,1498.0,0.458,68,165.83
5928,E4,1498.0,0.458,68,165.83
5929,G4,1498.0,0.458,68,165.83
5930,C5,1498.5,1.5,69,165.83
5931,B-4,1498.5,1.5,69,165.83
5932,G4,1498.5,1.5,69,165.83
5933,C4,1498.5,1.5,69,165.83
5934,G3,1499.0,0.458,79,165.83
5935,B-3,1499.0,0.458,79,165.83
5936,G3,1499.5,0.458,76,165.83
5937,B-3,1499.5,0.458,76,165.83
5938,F3,1500.0,1.0,80,165.83
5939,G#3,1500.0,1.0,80,165.83
5940,G#4,1500.5,0.458,66,165.83
5941,C4,1500.5,0.458,66,165.83
5942,F4,1500.5,0.458,66,165.83
5943,C5,1500.5,0.458,66,165.83
5944,G#4,1501.0,0.458,66,165.83
5945,C5,1501.0,0.458,66,165.83
5946,C4,1501.0,0.458,66,165.83
5947,F4,1501.0,0.458,66,165.83
5948,C4,1501.5,1.5,69,165.83
5949,G#4,1501.5,1.5,69,165.83
5950,F4,1501.5,1.5,69,165.83
5951,C5,1501.5,1.5,69,165.83
5952,G#3,1502.0,0.458,79,165.83
5953,F3,1502.0,0.458,79,165.83
5954,G#3,1502.5,0.458,76,165.83
5955,F3,1502.5,0.458,76,165.83
5956,G3,1503.0,1.0,80,165.83
5957,E3,1503.0,1.0,80,165.83
5958,E4,1503.5,0.458,68,165.83
5959,C4,1503.5,0.458,68,165.83
5960,C5,1503.5,0.458,68,165.83
5961,G4,1503.5,0.458,68,165.83
5962,E4,1504.0,0.458,68,165.83
5963,G4,1504.0,0.458,68,165.83
5964,C4,1504.0,0.458,68,165.83
5965,C5,1504.0,0.458,68,165.83
5966,C5,1504.5,1.5,69,165.83
5967,G4,1504.5,1.5,69,165.83
5968,B-4,1504.5,1.5,69,165.83
5969,C4,1504.5,1.5,69,165.83
5970,B-3,1505.0,0.458,79,165.83
5971,G3,1505.0,0.458,79,165.83
5972,G3,1505.5,0.458,76,165.83
5973,B-3,1505.5,0.458,76,165.83
5974,G#3,1506.0,0.458,73,165.83
5975,F3,1506.0,0.458,73,165.83
5976,F4,1506.5,0.458,68,165.83
5977,C4,1506.5,0.458,68,165.83
5978,C5,1506.5,0.458,68,165.83
5979,G#4,1506.5,0.458,68,165.83
5980,G#3,1507.0,0.458,70,165.83
5981,F3,1507.0,0.458,70,165.83
5982,F4,1507.5,0.458,76,165.83
5983,C#4,1507.5,0.458,76,165.83
5984,C#5,1507.5,0.458,76,165.83
5985,G4,1507.5,0.458,76,165.83
5986,F3,1508.0,0.458,64,165.83
5987,B-2,1508.0,0.458,64,165.83
5988,G3,1508.0,0.458,64,165.83
5989,C#4,1508.5,0.458,68,165.83
5990,F4,1508.5,0.458,68,165.83
5991,G4,1508.5,0.458,68,165.83
5992,C#5,1508.5,0.458,68,165.83
5993,F3,1509.0,0.458,71,165.83
5994,G#3,1509.0,0.458,71,165.83
5995,C3,1509.0,0.458,71,165.83
5996,C4,1509.5,0.458,72,165.83
5997,C5,1509.5,0.458,72,165.83
5998,G#4,1509.5,0.458,72,165.83
5999,F4,1509.5,0.458,72,165.83
6000,F3,1510.0,0.458,67,165.83
6001,G#3,1510.0,0.458,67,165.83
6002,C3,1510.0,0.458,67,165.83
6003,C4,1510.5,0.458,73,165.83
6004,E4,1510.5,0.458,73,165.83
6005,C5,1510.5,0.458,73,165.83
6006,G4,1510.5,0.458,73,165.83
6007,C3,1511.0,0.458,67,165.83
6008,G3,1511.0,0.458,67,165.83
6009,E3,1511.0,0.458,67,165.83
6010,E4,1511.5,0.458,62,165.83
6011,G4,1511.5,0.458,62,165.83
6012,C4,1511.5,0.458,62,165.83
6013,C5,1511.5,0.458,62,165.83
6014,F4,1512.0,0.5,80,165.83
6015,G#4,1512.0,0.5,80,165.83
6016,C4,1512.0,0.5,80,165.83
6017,C5,1512.0,0.5,80,165.83
6018,G#2,1512.0,1.0,64,165.83
6019,C3,1512.0,1.0,64,165.83
6020,F3,1512.0,1.0,64,165.83
6021,F2,1512.0,1.0,64,165.83
6022,F3,1512.5,0.458,66,165.83
6023,C3,1512.5,0.458,66,165.83
6024,G#3,1512.5,0.458,66,165.83
6025,C4,1512.5,0.458,66,165.83
6026,C3,1513.0,0.458,66,165.83
6027,C4,1513.0,0.458,66,165.83
6028,G#3,1513.0,0.458,66,165.83
6029,F3,1513.0,0.458,66,165.83
6030,C3,1513.5,1.5,69,165.83
6031,F3,1513.5,1.5,69,165.83
6032,C4,1513.5,1.5,69,165.83
6033,G#3,1513.5,1.5,69,165.83
6034,G#2,1514.0,0.458,75,165.83
6035,F2,1514.0,0.458,75,165.83
6036,G#2,1514.5,0.458,72,165.83
6037,F2,1514.5,0.458,72,165.83
6038,G2,1515.0,1.0,76,165.83
6039,E2,1515.0,1.0,76,165.83
6040,C3,1515.5,0.458,68,165.83
6041,G3,1515.5,0.458,68,165.83
6042,C4,1515.5,0.458,68,165.83
6043,E3,1515.5,0.458,68,165.83
6044,G3,1516.0,0.458,68,165.83
6045,E3,1516.0,0.458,68,165.83
6046,C3,1516.0,0.458,68,165.83
6047,C4,1516.0,0.458,68,165.83
6048,G3,1516.5,1.5,69,165.83
6049,B-3,1516.5,1.5,69,165.83
6050,C4,1516.5,1.5,69,165.83
6051,C3,1516.5,1.5,69,165.83
6052,B-2,1517.0,0.458,75,165.83
6053,G2,1517.0,0.458,75,165.83
6054,B-2,1517.5,0.458,72,165.83
6055,G2,1517.5,0.458,72,165.83
6056,G#2,1518.0,1.0,76,165.83
6057,F2,1518.0,1.0,76,165.83
6058,C3,1518.5,0.458,66,165.83
6059,F3,1518.5,0.458,66,165.83
6060,G#3,1518.5,0.458,66,165.83
6061,C4,1518.5,0.458,66,165.83
6062,C3,1519.0,0.458,66,165.83
6063,G#3,1519.0,0.458,66,165.83
6064,C4,1519.0,0.458,66,165.83
6065,F3,1519.0,0.458,66,165.83
6066,F3,1519.5,1.5,69,165.83
6067,C3,1519.5,1.5,69,165.83
6068,G#3,1519.5,1.5,69,165.83
6069,C4,1519.5,1.5,69,165.83
6070,G#2,1520.0,0.458,75,165.83
6071,F2,1520.0,0.458,75,165.83
6072,G#2,1520.5,0.458,72,165.83
6073,F2,1520.5,0.458,72,165.83
6074,G2,1521.0,1.0,76,165.83
6075,E2,1521.0,1.0,76,165.83
6076,E3,1521.5,0.458,68,165.83
6077,G3,1521.5,0.458,68,165.83
6078,C3,1521.5,0.458,68,165.83
6079,C4,1521.5,0.458,68,165.83
6080,G3,1522.0,0.458,68,165.83
6081,C4,1522.0,0.458,68,165.83
6082,E3,1522.0,0.458,68,165.83
6083,C3,1522.0,0.458,68,165.83
6084,B-3,1522.5,1.5,69,165.83
6085,C3,1522.5,1.5,69,165.83
6086,G3,1522.5,1.5,69,165.83
6087,C4,1522.5,1.5,69,165.83
6088,B-2,1523.0,0.458,75,165.83
6089,G2,1523.0,0.458,75,165.83
6090,B-2,1523.5,0.458,72,165.83
6091,G2,1523.5,0.458,72,165.83
6092,F2,1524.0,0.458,72,165.83
6093,G#2,1524.0,0.458,72,165.83
6094,F3,1524.5,0.458,68,165.83
6095,G#3,1524.5,0.458,68,165.83
6096,C4,1524.5,0.458,68,165.83
6097,C3,1524.5,0.458,68,165.83
6098,G#2,1525.0,0.458,65,165.83
6099,F2,1525.0,0.458,65,165.83
6100,C#3,1525.5,0.458,74,165.83
6101,C#4,1525.5,0.458,74,165.83
6102,G3,1525.5,0.458,74,165.83
6103,F3,1525.5,0.458,74,165.83
6104,B-1,1526.0,0.458,59,165.83
6105,G2,1526.0,0.458,59,165.83
6106,F2,1526.0,0.458,59,165.83
6107,C#3,1526.5,0.458,68,165.83
6108,F3,1526.5,0.458,68,165.83
6109,G3,1526.5,0.458,68,165.83
6110,C#4,1526.5,0.458,68,165.83
6111,G#2,1527.0,0.458,66,165.83
6112,C2,1527.0,0.458,66,165.83
6113,F2,1527.0,0.458,66,165.83
6114,G#3,1527.5,0.458,71,165.83
6115,C4,1527.5,0.458,71,165.83
6116,C3,1527.5,0.458,71,165.83
6117,F3,1527.5,0.458,71,165.83
6118,G#2,1528.0,0.458,63,165.83
6119,C2,1528.0,0.458,63,165.83
6120,F2,1528.0,0.458,63,165.83
6121,G3,1528.5,0.458,71,165.83
6122,E3,1528.5,0.458,71,165.83
6123,C4,1528.5,0.458,71,165.83
6124,C3,1528.5,0.458,71,165.83
6125,E2,1529.0,0.458,63,165.83
6126,G2,1529.0,0.458,63,165.83
6127,C2,1529.0,0.458,63,165.83
6128,E3,1529.5,0.458,68,165.83
6129,G3,1529.5,0.458,68,165.83
6130,C3,1529.5,0.458,68,165.83
6131,C4,1529.5,0.458,68,165.83
6132,C2,1530.0,0.458,65,165.83
6133,F2,1530.0,0.458,65,165.83
6134,G#2,1530.0,0.458,65,165.83
6135,G#1,1530.0,0.458,65,165.83
6136,G#4,1530.5,0.458,68,165.83
6137,C5,1530.5,0.458,68,165.83
6138,F4,1530.5,0.458,68,165.83
6139,C4,1530.5,0.458,68,165.83
6140,G#1,1531.0,0.458,62,165.83
6141,F2,1531.0,0.458,62,165.83
6142,C2,1531.0,0.458,62,165.83
6143,G#2,1531.0,0.458,62,165.83
6144,F4,1531.5,0.458,74,165.83
6145,C#4,1531.5,0.458,74,165.83
6146,C#5,1531.5,0.458,74,165.83
6147,G4,1531.5,0.458,74,165.83
6148,B-2,1532.0,0.458,59,165.83
6149,F2,1532.0,0.458,59,165.83
6150,G2,1532.0,0.458,59,165.83
6151,B-1,1532.0,0.458,59,165.83
6152,F4,1532.5,0.458,68,165.83
6153,C#4,1532.5,0.458,68,165.83
6154,G4,1532.5,0.458,68,165.83
6155,C#5,1532.5,0.458,68,165.83
6156,C3,1533.0,0.458,67,165.83
6157,G#2,1533.0,0.458,67,165.83
6158,F2,1533.0,0.458,67,165.83
6159,C2,1533.0,0.458,67,165.83
6160,C5,1533.5,0.458,71,165.83
6161,F4,1533.5,0.458,71,165.83
6162,C4,1533.5,0.458,71,165.83
6163,G#4,1533.5,0.458,71,165.83
6164,C3,1534.0,0.458,64,165.83
6165,F2,1534.0,0.458,64,165.83
6166,G#2,1534.0,0.458,64,165.83
6167,C2,1534.0,0.458,64,165.83
6168,C4,1534.5,0.458,71,165.83
6169,E4,1534.5,0.458,71,165.83
6170,C5,1534.5,0.458,71,165.83
6171,G4,1534.5,0.458,71,165.83
6172,B-2,1535.0,0.458,64,165.83
6173,E2,1535.0,0.458,64,165.83
6174,G2,1535.0,0.458,64,165.83
6175,B-1,1535.0,0.458,64,165.83
6176,E4,1535.5,0.458,68,165.83
6177,G4,1535.5,0.458,68,165.83
6178,C4,1535.5,0.458,68,165.83
6179,C5,1535.5,0.458,68,165.83
6180,C2,1536.0,0.458,68,165.83
6181,F2,1536.0,0.458,68,165.83
6182,G#2,1536.0,0.458,68,165.83
6183,G#1,1536.0,0.458,68,165.83
6184,G#5,1536.5,0.458,77,165.83
6185,C6,1536.5,0.458,77,165.83
6186,F5,1536.5,0.458,77,165.83
6187,C5,1536.5,0.458,77,165.83
6188,G#1,1537.0,0.458,65,165.83
6189,F2,1537.0,0.458,65,165.83
6190,C2,1537.0,0.458,65,165.83
6191,G#2,1537.0,0.458,65,165.83
6192,G5,1537.5,0.458,84,165.83
6193,C#5,1537.5,0.458,84,165.83
6194,F5,1537.5,0.458,84,165.83
6195,C#6,1537.5,0.458,84,165.83
6196,B-2,1538.0,0.458,62,165.83
6197,F2,1538.0,0.458,62,165.83
6198,G2,1538.0,0.458,62,165.83
6199,B-1,1538.0,0.458,62,165.83
6200,C#6,1538.5,0.458,77,165.83
6201,C#5,1538.5,0.458,77,165.83
6202,F5,1538.5,0.458,77,165.83
6203,G5,1538.5,0.458,77,165.83
6204,C3,1539.0,0.458,70,165.83
6205,F2,1539.0,0.458,70,165.83
6206,C2,1539.0,0.458,70,165.83
6207,G#2,1539.0,0.458,70,165.83
6208,C6,1539.5,0.458,82,165.83
6209,G#5,1539.5,0.458,82,165.83
6210,F5,1539.5,0.458,82,165.83
6211,C5,1539.5,0.458,82,165.83
6212,G#2,1540.0,0.458,67,165.83
6213,F2,1540.0,0.458,67,165.83
6214,C2,1540.0,0.458,67,165.83
6215,C3,1540.0,0.458,67,165.83
6216,C6,1540.5,0.458,81,165.83
6217,C5,1540.5,0.458,81,165.83
6218,E5,1540.5,0.458,81,165.83
6219,G5,1540.5,0.458,81,165.83
6220,C2,1541.0,0.458,67,165.83
6221,C3,1541.0,0.458,67,165.83
6222,G2,1541.0,0.458,67,165.83
6223,E2,1541.0,0.458,67,165.83
6224,C6,1541.5,0.458,77,165.83
6225,E5,1541.5,0.458,77,165.83
6226,C5,1541.5,0.458,77,165.83
6227,G5,1541.5,0.458,77,165.83
6228,C4,1542.0,0.25,64,165.83
6229,F1,1542.0,1.0,96,165.83
6230,F2,1542.0,1.0,96,165.83
6231,G#3,1542.25,0.25,55,165.83
6232,C4,1542.5,0.25,59,165.83
6233,G#3,1542.75,0.25,50,165.83
6234,C4,1543.0,0.25,55,165.83
6235,G#3,1543.25,0.25,48,165.83
6236,C4,1543.5,0.25,43,165.83
6237,G#4,1543.5,1.25,62,165.83
6238,G#3,1543.75,0.25,37,165.83
6239,C4,1544.0,0.25,43,165.83
6240,G#3,1544.25,0.25,37,165.83
6241,C4,1544.5,0.25,43,165.83
6242,G#3,1544.75,0.25,36,165.83
6243,C5,1544.75,0.25,54,165.83
6244,C4,1545.0,0.25,43,165.83
6245,F5,1545.0,1.5,59,165.83
6246,G#3,1545.25,0.25,36,165.83
6247,C4,1545.5,0.25,42,165.83
6248,G#3,1545.75,0.25,36,165.83
6249,C4,1546.0,0.25,42,165.83
6250,G#3,1546.25,0.25,35,165.83
6251,C4,1546.5,0.25,42,165.83
6252,G#5,1546.5,1.25,60,165.83
6253,G#3,1546.75,0.25,35,165.83
6254,C4,1547.0,0.25,41,165.83
6255,G#3,1547.25,0.25,35,165.83
6256,C4,1547.5,0.25,41,165.83
6257,G#3,1547.75,0.25,35,165.83
6258,C6,1547.75,0.25,52,165.83
6259,C4,1548.0,0.25,41,165.83
6260,F6,1548.0,1.5,56,165.83
6261,G#3,1548.25,0.25,35,165.83
6262,C4,1548.5,0.25,41,165.83
6263,G#3,1548.75,0.25,34,165.83
6264,C4,1549.0,0.25,40,165.83
6265,G#3,1549.25,0.25,34,165.83
6266,C4,1549.5,0.25,40,165.83
6267,C6,1549.5,1.25,58,165.83
6268,G#3,1549.75,0.25,34,165.83
6269,C4,1550.0,0.25,40,165.83
6270,G#3,1550.25,0.25,33,165.83
6271,C4,1550.5,0.25,40,165.83
6272,G#3,1550.75,0.25,33,165.83
6273,G#5,1550.75,0.25,50,165.83
6274,C4,1551.0,0.25,40,165.83
6275,F5,1551.0,1.5,54,165.83
6276,G#3,1551.25,0.25,33,165.83
6277,C4,1551.5,0.25,39,165.83
6278,G#3,1551.75,0.25,33,165.83
6279,C4,1552.0,0.25,39,165.83
6280,G#3,1552.25,0.25,33,165.83
6281,C4,1552.5,0.25,39,165.83
6282,C5,1552.5,1.25,56,165.83
6283,G#3,1552.75,0.25,32,165.83
6284,C4,1553.0,0.25,38,165.83
6285,G#3,1553.25,0.25,32,165.83
6286,C4,1553.5,0.25,38,165.83
6287,G#3,1553.75,0.25,32,165.83
6288,G#4,1553.75,0.25,48,165.83
6289,C4,1554.0,0.25,38,165.83
6290,F4,1554.0,1.5,52,165.83
6291,G#3,1554.25,0.25,32,165.83
6292,C4,1554.5,0.25,37,165.83
6293,G#3,1554.75,0.25,31,165.83
6294,C4,1555.0,0.25,37,165.83
6295,G#3,1555.25,0.25,31,165.83
6296,C5,1555.5,0.25,37,165.83
6297,C4,1555.5,1.25,47,165.83
6298,G#4,1555.75,0.25,31,165.83
6299,C5,1556.0,0.25,37,165.83
6300,G#4,1556.25,0.25,31,165.83
6301,C5,1556.5,0.25,36,165.83
6302,G#4,1556.75,0.25,31,165.83
6303,G#3,1556.75,0.25,41,165.83
6304,C5,1557.0,0.25,36,165.83
6305,F3,1557.0,1.5,44,165.83
6306,G#4,1557.25,0.25,30,165.83
6307,C5,1557.5,0.25,36,165.83
6308,G#4,1557.75,0.25,30,165.83
6309,C5,1558.0,0.25,35,165.83
6310,G#4,1558.25,0.25,30,165.83
6311,C5,1558.5,0.25,35,165.83
6312,C3,1558.5,1.25,45,165.83
6313,G#4,1558.75,0.25,30,165.83
6314,C5,1559.0,0.25,35,165.83
6315,G#4,1559.25,0.25,30,165.83
6316,C5,1559.5,0.25,34,165.83
6317,G#4,1559.75,0.25,29,165.83
6318,G#2,1559.75,0.25,39,165.83
6319,C5,1560.0,0.25,34,165.83
6320,F2,1560.0,1.5,42,165.83
6321,G#4,1560.25,0.25,29,165.83
6322,C5,1560.5,0.25,34,165.83
6323,G#4,1560.75,0.25,28,165.83
6324,C5,1561.0,0.25,33,165.83
6325,G#4,1561.25,0.25,27,165.83
6326,C5,1561.5,0.25,33,165.83
6327,C2,1561.5,1.25,38,165.83
6328,G#4,1561.75,0.25,27,165.83
6329,C5,1562.0,0.25,32,165.83
6330,G#4,1562.25,0.25,27,165.83
6331,C5,1562.5,0.25,31,165.83
6332,G#4,1562.75,0.25,26,165.83
6333,G#1,1562.75,0.25,27,165.83
6334,C5,1563.0,0.25,31,165.83
6335,F1,1563.0,1.5,28,165.83
6336,G#4,1563.25,0.25,26,165.83
6337,C5,1563.5,0.25,31,165.83
6338,G#4,1563.75,0.25,25,165.83
6339,C5,1564.0,0.25,30,165.83
6340,G#4,1564.25,0.25,25,165.83
6341,C5,1564.5,0.25,29,165.83
6342,F1,1564.5,1.5,27,165.83
6343,G#4,1564.75,0.25,25,165.83
6344,C5,1565.0,0.25,29,165.83
6345,G#4,1565.25,0.25,24,165.83
6346,C5,1565.5,0.25,29,165.83
6347,G#4,1565.75,0.25,24,165.83
6348,C5,1566.0,0.25,28,165.83
6349,F1,1566.0,3.0,27,165.83
6350,G#4,1566.25,0.25,23,165.83
6351,C5,1566.5,0.25,27,165.83
6352,G#4,1566.75,0.25,23,165.83
6353,C5,1567.0,0.25,26,165.83
6354,G#4,1567.25,0.25,22,165.83
6355,C5,1567.5,0.25,26,165.83
6356,G#4,1567.75,0.25,22,165.83
6357,C5,1568.0,0.25,25,165.83
6358,G#4,1568.25,0.25,21,165.83
6359,C5,1568.5,0.25,24,165.83
6360,G#4,1568.75,0.25,20,165.83
6361,C5,1569.0,0.25,23,165.83
6362,F1,1569.0,3.0,19,165.83
6363,G#4,1569.25,0.25,20,165.83
6364,C5,1569.5,0.25,23,165.83
6365,G#4,1569.75,0.25,19,165.83
6366,C5,1570.0,0.25,22,165.83
6367,G#4,1570.25,0.25,18,165.83
6368,C5,1570.5,0.25,21,165.83
6369,G#4,1570.75,0.25,18,165.83
6370,C5,1571.0,0.25,21,165.83
6371,G#4,1571.25,0.25,17,165.83
6372,C5,1571.5,0.25,20,165.83
6373,G#4,1571.75,0.25,17,165.83
6374,F1,1572.0,6.0,12,165.83
6375,C5,1572.0,6.0,16,165.83
6376,G#4,1572.0,6.0,16,165.83
,note_name,start_time,duration,velocity,tempo
0,C#2,0.0,1.0,47,42.26
1,C#3,0.0,1.0,42,42.26
2,F3,0.0,1.0,42,42.26
3,G#3,0.0,1.0,42,42.26
4,F#1,1.0,1.0,35,42.26
5,C#3,1.0,1.0,42,42.26
6,B-3,1.0,1.0,42,42.26
7,F#3,1.0,1.0,42,42.26
8,C#2,2.0,1.5,37,42.26
9,C#3,2.0,1.5,39,42.26
10,F3,2.0,1.5,39,42.26
11,G#3,2.0,1.5,39,42.26
12,F#1,3.5,0.5,35,42.26
13,B-3,3.5,0.5,39,42.26
14,E-3,3.5,0.5,39,42.26
15,C#3,3.5,0.5,39,42.26
16,G#1,4.0,1.0,40,42.26
17,C#3,4.0,1.0,42,42.26
18,E-3,4.0,1.0,42,42.26
19,G#3,4.0,1.0,42,42.26
20,G#2,5.0,0.875,40,42.26
21,G#3,5.0,1.0,41,42.26
22,C3,5.0,1.0,41,42.26
23,E-3,5.0,1.0,41,42.26
24,F#2,5.875,0.125,36,42.26
25,F2,6.0,0.75,43,42.26
26,C#3,6.0,2.0,42,42.26
27,F3,6.0,2.0,42,42.26
28,G#3,6.0,2.0,42,42.26
29,F#2,6.75,0.25,36,42.26
30,G#2,7.0,0.375,41,42.26
31,F#2,7.375,0.125,37,42.26
32,F2,7.5,0.375,40,42.26
33,E-2,7.875,0.125,40,42.26
34,C#4,8.0,1.0,48,42.26
35,G#3,8.0,1.0,48,42.26
36,F3,8.0,1.0,48,42.26
37,C#2,8.0,1.0,42,42.26
38,C#3,8.0,1.0,42,42.26
39,F#3,9.0,1.0,50,42.26
40,B-3,9.0,1.0,50,42.26
41,C#4,9.0,1.0,50,42.26
42,F#2,9.0,1.0,44,42.26
43,F#1,9.0,1.0,44,42.26
44,G#3,10.0,1.5,39,42.26
45,F3,10.0,1.5,39,42.26
46,C#4,10.0,1.5,39,42.26
47,C#2,10.0,1.5,30,42.26
48,C#3,10.0,1.5,30,42.26
49,E3,11.5,0.5,39,42.26
50,C#4,11.5,0.5,39,42.26
51,G3,11.5,0.5,39,42.26
52,A1,11.5,0.5,33,42.26
53,A2,11.5,0.5,33,42.26
54,F#3,12.0,1.0,42,42.26
55,E-3,12.0,1.0,42,42.26
56,C#4,12.0,1.0,42,42.26
57,G#1,12.0,1.0,34,42.26
58,G#2,12.0,1.0,34,42.26
59,G#2,13.0,1.375,34,42.26
60,E-3,13.0,1.0,39,42.26
61,C4,13.0,1.0,39,42.26
62,F#3,13.0,1.0,39,42.26
63,C#3,14.0,1.5,39,42.26
64,F3,14.0,1.5,39,42.26
65,C#4,14.0,1.5,39,42.26
66,F#2,14.375,0.125,28,42.26
67,F2,14.5,0.375,32,42.26
68,E-2,14.875,0.125,27,42.26
69,C#2,15.0,0.5,27,42.26
70,C#2,16.0,1.0,47,42.26
71,C#3,16.0,1.0,42,42.26
72,F3,16.0,1.0,42,42.26
73,G#3,16.0,1.0,42,42.26
74,F#1,17.0,1.0,35,42.26
75,C#3,17.0,1.0,42,42.26
76,F#3,17.0,1.0,42,42.26
77,B-3,17.0,1.0,42,42.26
78,C#2,18.0,1.5,37,42.26
79,C#3,18.0,1.5,39,42.26
80,F3,18.0,1.5,39,42.26
81,G#3,18.0,1.5,39,42.26
82,F#1,19.5,0.5,35,42.26
83,C#3,19.5,0.5,39,42.26
84,E-3,19.5,0.5,39,42.26
85,B-3,19.5,0.5,39,42.26
86,G#1,20.0,1.0,40,42.26
87,C#3,20.0,1.0,42,42.26
88,E-3,20.0,1.0,42,42.26
89,G#3,20.0,1.0,42,42.26
90,G#2,21.0,0.875,40,42.26
91,C3,21.0,1.0,41,42.26
92,E-3,21.0,1.0,41,42.26
93,G#3,21.0,1.0,41,42.26
94,F#2,21.875,0.125,36,42.26
95,F2,22.0,0.75,43,42.26
96,C#3,22.0,2.0,42,42.26
97,F3,22.0,2.0,42,42.26
98,G#3,22.0,2.0,42,42.26
99,F#2,22.75,0.25,36,42.26
100,G#2,23.0,0.375,41,42.26
101,F#2,23.375,0.125,37,42.26
102,F2,23.5,0.375,40,42.26
103,E-2,23.875,0.125,40,42.26
104,F3,24.0,1.0,48,42.26
105,G#3,24.0,1.0,48,42.26
106,C#4,24.0,1.0,48,42.26
107,C#2,24.0,1.0,42,42.26
108,C#3,24.0,1.0,42,42.26
109,F#3,25.0,1.0,50,42.26
110,B-3,25.0,1.0,50,42.26
111,C#4,25.0,1.0,50,42.26
112,F#1,25.0,1.0,44,42.26
113,F#2,25.0,1.0,44,42.26
114,F3,26.0,1.5,36,42.26
115,G#3,26.0,1.5,36,42.26
116,C#4,26.0,1.5,36,42.26
117,C#2,26.0,1.5,28,42.26
118,C#3,26.0,1.5,28,42.26
119,E3,27.5,0.5,39,42.26
120,G3,27.5,0.5,39,42.26
121,C#4,27.5,0.5,39,42.26
122,A1,27.5,0.5,33,42.26
123,A2,27.5,0.5,33,42.26
124,E-3,28.0,1.0,42,42.26
125,F#3,28.0,1.0,42,42.26
126,C#4,28.0,1.0,42,42.26
127,G#1,28.0,1.0,34,42.26
128,G#2,28.0,1.0,34,42.26
129,G#2,29.0,1.375,34,42.26
130,E-3,29.0,1.0,39,42.26
131,F#3,29.0,1.0,39,42.26
132,C4,29.0,1.0,39,42.26
133,C#3,30.0,1.5,39,42.26
134,F3,30.0,1.5,39,42.26
135,C#4,30.0,1.5,39,42.26
136,F#2,30.375,0.125,28,42.26
137,F2,30.5,0.375,31,42.26
138,E-2,30.875,0.125,27,42.26
139,C#2,31.0,0.5,27,42.26
140,C3,32.0,1.0,42,42.26
141,E-3,32.0,1.0,42,42.26
142,G#3,32.0,1.0,42,42.26
143,F#2,32.0,1.0,40,42.26
144,G#2,32.0,1.0,40,42.26
145,C3,33.0,0.875,42,42.26
146,F#3,33.0,0.875,42,42.26
147,G#3,33.0,0.875,42,42.26
148,E-2,33.0,0.875,35,42.26
149,G#2,33.0,0.875,35,42.26
150,C3,33.875,0.125,42,42.26
151,E-3,33.875,0.125,42,42.26
152,G#3,33.875,0.125,42,42.26
153,F#2,33.875,0.125,35,42.26
154,G#2,33.875,0.125,35,42.26
155,C#3,34.0,0.75,42,42.26
156,F3,34.0,0.75,42,42.26
157,G#3,34.0,0.75,42,42.26
158,F2,34.0,0.75,36,42.26
159,G#2,34.0,0.75,36,42.26
160,F3,34.75,0.25,48,42.26
161,G#3,34.75,0.25,48,42.26
162,C#4,34.75,0.25,48,42.26
163,C#2,34.75,0.25,42,42.26
164,G#2,34.75,0.25,42,42.26
165,G#3,35.0,0.5,44,42.26
166,F#3,35.0,0.5,44,42.26
167,C4,35.0,0.5,44,42.26
168,E-2,35.0,0.5,40,42.26
169,G#2,35.0,0.5,40,42.26
170,F3,35.5,0.5,33,42.26
171,G#3,35.5,0.5,33,42.26
172,C#4,35.5,0.5,33,42.26
173,C#2,35.5,0.5,31,42.26
174,G#2,35.5,0.5,31,42.26
175,C3,36.0,1.0,42,42.26
176,E-3,36.0,1.0,42,42.26
177,G#3,36.0,1.0,42,42.26
178,F#2,36.0,1.0,40,42.26
179,G#2,36.0,1.0,40,42.26
180,C3,37.0,0.875,42,42.26
181,F#3,37.0,0.875,42,42.26
182,G#3,37.0,0.875,42,42.26
183,E-2,37.0,0.875,35,42.26
184,G#2,37.0,0.875,35,42.26
185,C3,37.875,0.125,42,42.26
186,E-3,37.875,0.125,42,42.26
187,G#3,37.875,0.125,42,42.26
188,F#2,37.875,0.125,35,42.26
189,G#2,37.875,0.125,35,42.26
190,C#3,38.0,0.75,42,42.26
191,F3,38.0,0.75,42,42.26
192,G#3,38.0,0.75,42,42.26
193,F2,38.0,0.75,36,42.26
194,G#2,38.0,0.75,36,42.26
195,F3,38.75,0.25,48,42.26
196,G#3,38.75,0.25,48,42.26
197,F4,38.75,0.25,48,42.26
198,C#2,38.75,0.25,42,42.26
199,G#2,38.75,0.25,42,42.26
200,F4,39.0,0.25,58,42.26
201,G#3,39.0,0.5,45,42.26
202,F#3,39.0,0.5,45,42.26
203,C2,39.0,0.5,40,42.26
204,G#2,39.0,0.5,40,42.26
205,E-4,39.25,0.25,51,42.26
206,F3,39.5,0.5,33,42.26
207,G#3,39.5,0.5,33,42.26
208,C#4,39.5,0.5,33,42.26
209,C#2,39.5,0.5,31,42.26
210,G#2,39.5,0.5,31,42.26
211,C3,40.0,1.0,49,42.26
212,E-3,40.0,1.0,49,42.26
213,G#3,40.0,1.0,49,42.26
214,F#2,40.0,1.0,48,42.26
215,G#2,40.0,1.0,48,42.26
216,C3,41.0,0.875,59,42.26
217,F#3,41.0,0.875,59,42.26
218,G#3,41.0,0.875,59,42.26
219,E-2,41.0,0.875,49,42.26
220,G#2,41.0,0.875,49,42.26
221,C3,41.875,0.125,64,42.26
222,E-3,41.875,0.125,64,42.26
223,G#3,41.875,0.125,64,42.26
224,F#2,41.875,0.125,55,42.26
225,G#2,41.875,0.125,55,42.26
226,G#3,42.0,0.75,76,42.26
227,C#4,42.0,0.75,76,42.26
228,G#4,42.0,0.75,76,42.26
229,F2,42.0,0.75,73,42.26
230,F3,42.0,0.75,73,42.26
231,C#4,42.75,0.25,64,42.26
232,F4,42.75,0.25,64,42.26
233,G#4,42.75,0.25,64,42.26
234,C#2,42.75,0.25,50,42.26
235,C#3,42.75,0.25,50,42.26
236,G#4,43.0,0.25,79,42.26
237,E-4,43.0,0.5,61,42.26
238,C4,43.0,0.5,61,42.26
239,E-2,43.0,0.5,57,42.26
240,E-3,43.0,0.5,57,42.26
241,F#4,43.25,0.25,66,42.26
242,G#3,43.5,0.5,48,42.26
243,C#4,43.5,0.5,48,42.26
244,F4,43.5,0.5,48,42.26
245,F2,43.5,0.5,39,42.26
246,F3,43.5,0.5,39,42.26
247,F#2,44.0,1.0,37,42.26
248,F#3,44.0,1.0,42,42.26
249,B-3,44.0,1.0,42,42.26
250,E-4,44.0,1.0,42,42.26
251,G#2,45.0,1.375,34,42.26
252,C3,45.0,1.0,39,42.26
253,E-3,45.0,1.0,39,42.26
254,G#3,45.0,1.0,39,42.26
255,C#3,46.0,1.5,39,42.26
256,F3,46.0,1.5,39,42.26
257,C#4,46.0,1.5,39,42.26
258,F#2,46.375,0.125,28,42.26
259,F2,46.5,0.375,30,42.26
260,E-2,46.875,0.125,27,42.26
261,C#2,47.0,0.5,26,42.26
262,C3,48.0,1.0,42,42.26
263,E-3,48.0,1.0,42,42.26
264,G#3,48.0,1.0,42,42.26
265,F#2,48.0,1.0,40,42.26
266,G#2,48.0,1.0,40,42.26
267,C3,49.0,0.875,42,42.26
268,F#3,49.0,0.875,42,42.26
269,G#3,49.0,0.875,42,42.26
270,E-2,49.0,0.875,35,42.26
271,G#2,49.0,0.875,35,42.26
272,C3,49.875,0.125,42,42.26
273,E-3,49.875,0.125,42,42.26
274,G#3,49.875,0.125,42,42.26
275,F#2,49.875,0.125,35,42.26
276,G#2,49.875,0.125,35,42.26
277,C#3,50.0,0.75,42,42.26
278,F3,50.0,0.75,42,42.26
279,G#3,50.0,0.75,42,42.26
280,F2,50.0,0.75,36,42.26
281,G#2,50.0,0.75,36,42.26
282,F3,50.75,0.25,48,42.26
283,G#3,50.75,0.25,48,42.26
284,C#4,50.75,0.25,48,42.26
285,C#2,50.75,0.25,42,42.26
286,G#2,50.75,0.25,42,42.26
287,G#3,51.0,0.5,44,42.26
288,F#3,51.0,0.5,44,42.26
289,C4,51.0,0.5,44,42.26
290,E-2,51.0,0.5,40,42.26
291,G#2,51.0,0.5,40,42.26
292,F3,51.5,0.5,33,42.26
293,G#3,51.5,0.5,33,42.26
294,C#4,51.5,0.5,33,42.26
295,C#2,51.5,0.5,31,42.26
296,G#2,51.5,0.5,31,42.26
297,C3,52.0,1.0,42,42.26
298,E-3,52.0,1.0,42,42.26
299,G#3,52.0,1.0,42,42.26
300,F#2,52.0,1.0,40,42.26
301,G#2,52.0,1.0,40,42.26
302,C3,53.0,0.875,42,42.26
303,F#3,53.0,0.875,42,42.26
304,G#3,53.0,0.875,42,42.26
305,E-2,53.0,0.875,35,42.26
306,G#2,53.0,0.875,35,42.26
307,C3,53.875,0.125,42,42.26
308,E-3,53.875,0.125,42,42.26
309,G#3,53.875,0.125,42,42.26
310,F#2,53.875,0.125,35,42.26
311,G#2,53.875,0.125,35,42.26
312,C#3,54.0,0.75,42,42.26
313,F3,54.0,0.75,42,42.26
314,G#3,54.0,0.75,42,42.26
315,F2,54.0,0.75,36,42.26
316,G#2,54.0,0.75,36,42.26
317,F3,54.75,0.25,48,42.26
318,G#3,54.75,0.25,48,42.26
319,F4,54.75,0.25,48,42.26
320,C#2,54.75,0.25,42,42.26
321,G#2,54.75,0.25,42,42.26
322,F4,55.0,0.25,58,42.26
323,G#3,55.0,0.5,45,42.26
324,F#3,55.0,0.5,45,42.26
325,C2,55.0,0.5,40,42.26
326,G#2,55.0,0.5,40,42.26
327,E-4,55.25,0.25,51,42.26
328,F3,55.5,0.5,33,42.26
329,G#3,55.5,0.5,33,42.26
330,C#4,55.5,0.5,33,42.26
331,C#2,55.5,0.5,31,42.26
332,G#2,55.5,0.5,31,42.26
333,C3,56.0,1.0,49,42.26
334,E-3,56.0,1.0,49,42.26
335,G#3,56.0,1.0,49,42.26
336,F#2,56.0,1.0,48,42.26
337,G#2,56.0,1.0,48,42.26
338,C3,57.0,0.875,59,42.26
339,F#3,57.0,0.875,59,42.26
340,G#3,57.0,0.875,59,42.26
341,E-2,57.0,0.875,49,42.26
342,G#2,57.0,0.875,49,42.26
343,C3,57.875,0.125,64,42.26
344,E-3,57.875,0.125,64,42.26
345,G#3,57.875,0.125,64,42.26
346,F#2,57.875,0.125,55,42.26
347,G#2,57.875,0.125,55,42.26
348,G#3,58.0,0.75,76,42.26
349,C#4,58.0,0.75,76,42.26
350,G#4,58.0,0.75,76,42.26
351,F2,58.0,0.75,73,42.26
352,F3,58.0,0.75,73,42.26
353,C#4,58.75,0.25,65,42.26
354,F4,58.75,0.25,65,42.26
355,G#4,58.75,0.25,65,42.26
356,C#2,58.75,0.25,52,42.26
357,C#3,58.75,0.25,52,42.26
358,G#4,59.0,0.25,79,42.26
359,E-4,59.0,0.5,61,42.26
360,C4,59.0,0.5,61,42.26
361,E-2,59.0,0.5,57,42.26
362,E-3,59.0,0.5,57,42.26
363,F#4,59.25,0.25,66,42.26
364,G#3,59.5,0.5,48,42.26
365,C#4,59.5,0.5,48,42.26
366,F4,59.5,0.5,48,42.26
367,F2,59.5,0.5,39,42.26
368,F3,59.5,0.5,39,42.26
369,F#2,60.0,1.0,37,42.26
370,F#3,60.0,1.0,42,42.26
371,B-3,60.0,1.0,42,42.26
372,E-4,60.0,1.0,42,42.26
373,G#2,61.0,1.375,34,42.26
374,C3,61.0,1.0,39,42.26
375,E-3,61.0,1.0,39,42.26
376,G#3,61.0,1.0,39,42.26
377,C#3,62.0,1.5,39,42.26
378,F3,62.0,1.5,39,42.26
379,C#4,62.0,1.5,39,42.26
380,F#2,62.375,0.125,28,42.26
381,F2,62.5,0.375,30,42.26
382,E-2,62.875,0.125,28,42.26
383,C#2,63.0,0.5,26,42.26
384,C#3,64.0,0.5,42,42.26
385,F3,64.0,0.5,42,42.26
386,G#3,64.0,0.5,42,42.26
387,C#2,64.5,1.0,40,42.26
388,C#3,65.0,0.5,39,42.26
389,F#3,65.0,0.5,39,42.26
390,B-3,65.0,0.5,39,42.26
391,F#1,65.5,1.0,31,42.26
392,C#3,66.0,0.5,42,42.26
393,F3,66.0,0.5,42,42.26
394,G#3,66.0,0.5,42,42.26
395,G#1,66.5,1.0,39,42.26
396,C#3,67.0,0.5,39,42.26
397,E-3,67.0,0.5,39,42.26
398,B-3,67.0,0.5,39,42.26
399,G1,67.5,1.0,35,42.26
400,C#3,68.0,0.5,42,42.26
401,E-3,68.0,0.5,42,42.26
402,G#3,68.0,0.5,42,42.26
403,G#1,68.5,1.0,40,42.26
404,C3,69.0,0.5,41,42.26
405,E-3,69.0,0.5,41,42.26
406,G#3,69.0,0.5,41,42.26
407,F#2,69.5,0.75,38,42.26
408,F#3,70.0,0.25,38,42.26
409,F2,70.25,0.5,31,42.26
410,F3,70.5,0.25,37,42.26
411,E-2,70.75,0.5,29,42.26
412,E-3,71.0,0.25,36,42.26
413,C#2,71.25,0.5,28,42.26
414,C#3,71.5,0.25,35,42.26
415,C2,71.75,0.75,26,42.26
416,F3,72.0,0.5,43,42.26
417,G#3,72.0,0.5,43,42.26
418,C#4,72.0,0.5,43,42.26
419,C#2,72.5,1.0,42,42.26
420,F#3,73.0,0.5,43,42.26
421,B-3,73.0,0.5,43,42.26
422,C#4,73.0,0.5,43,42.26
423,F#2,73.5,1.0,32,42.26
424,F3,74.0,0.5,43,42.26
425,G#3,74.0,0.5,43,42.26
426,C#4,74.0,0.5,43,42.26
427,G#2,74.5,1.0,40,42.26
428,E3,75.0,0.5,41,42.26
429,G3,75.0,0.5,41,42.26
430,C#4,75.0,0.5,41,42.26
431,A2,75.5,1.0,36,42.26
432,E-3,76.0,0.5,42,42.26
433,F#3,76.0,0.5,42,42.26
434,C#4,76.0,0.5,42,42.26
435,G#2,76.5,1.0,40,42.26
436,E-3,77.0,0.5,41,42.26
437,F#3,77.0,0.5,41,42.26
438,C4,77.0,0.5,41,42.26
439,G#1,77.5,0.75,38,42.26
440,C#3,78.0,0.25,37,42.26
441,F3,78.0,0.25,37,42.26
442,C#4,78.0,0.25,37,42.26
443,C#2,78.25,0.5,34,42.26
444,G#3,78.5,0.25,39,42.26
445,G#2,78.75,0.5,30,42.26
446,F3,79.0,0.25,42,42.26
447,F2,79.25,0.5,34,42.26
448,E-3,79.5,0.25,39,42.26
449,E-2,79.75,0.75,31,42.26
450,C#3,80.0,0.5,42,42.26
451,F3,80.0,0.5,42,42.26
452,G#3,80.0,0.5,42,42.26
453,C#2,80.5,1.0,40,42.26
454,C#3,81.0,0.5,39,42.26
455,F#3,81.0,0.5,39,42.26
456,B-3,81.0,0.5,39,42.26
457,F#1,81.5,1.0,31,42.26
458,C#3,82.0,0.5,42,42.26
459,F3,82.0,0.5,42,42.26
460,G#3,82.0,0.5,42,42.26
461,G#1,82.5,1.0,39,42.26
462,C#3,83.0,0.5,39,42.26
463,E-3,83.0,0.5,39,42.26
464,B-3,83.0,0.5,39,42.26
465,G1,83.5,1.0,35,42.26
466,C#3,84.0,0.5,42,42.26
467,E-3,84.0,0.5,42,42.26
468,G#3,84.0,0.5,42,42.26
469,G#1,84.5,1.0,40,42.26
470,C3,85.0,0.5,41,42.26
471,E-3,85.0,0.5,41,42.26
472,G#3,85.0,0.5,41,42.26
473,F#2,85.5,0.75,38,42.26
474,F#3,86.0,0.25,39,42.26
475,F2,86.25,0.5,31,42.26
476,F3,86.5,0.25,38,42.26
477,E-2,86.75,0.5,30,42.26
478,E-3,87.0,0.25,38,42.26
479,C#2,87.25,0.5,29,42.26
480,C#3,87.5,0.25,37,42.26
481,C2,87.75,0.75,28,42.26
482,F3,88.0,0.5,43,42.26
483,G#3,88.0,0.5,43,42.26
484,C#4,88.0,0.5,43,42.26
485,C#2,88.5,1.0,42,42.26
486,F#3,89.0,0.5,43,42.26
487,B-3,89.0,0.5,43,42.26
488,C#4,89.0,0.5,43,42.26
489,F#2,89.5,1.0,32,42.26
490,F3,90.0,0.5,43,42.26
491,G#3,90.0,0.5,43,42.26
492,C#4,90.0,0.5,43,42.26
493,G#2,90.5,1.0,40,42.26
494,E3,91.0,0.5,41,42.26
495,G3,91.0,0.5,41,42.26
496,C#4,91.0,0.5,41,42.26
497,A2,91.5,1.0,36,42.26
498,E-3,92.0,0.5,42,42.26
499,F#3,92.0,0.5,42,42.26
500,C#4,92.0,0.5,42,42.26
501,G#2,92.5,1.0,40,42.26
502,E-3,93.0,0.5,41,42.26
503,F#3,93.0,0.5,41,42.26
504,C4,93.0,0.5,41,42.26
505,G#1,93.5,0.75,38,42.26
506,C#3,94.0,0.25,37,42.26
507,F3,94.0,0.25,37,42.26
508,C#4,94.0,0.25,37,42.26
509,C#2,94.25,0.5,34,42.26
510,G#3,94.5,0.25,39,42.26
511,G#2,94.75,0.5,30,42.26
512,F3,95.0,0.25,42,42.26
513,F2,95.25,0.5,34,42.26
514,C#3,95.5,0.25,39,42.26
515,C#2,95.75,0.25,31,42.26
516,C3,96.0,0.5,42,42.26
517,E-3,96.0,0.5,42,42.26
518,G#3,96.0,0.5,42,42.26
519,F#2,96.5,1.0,40,42.26
520,C3,97.0,0.5,41,42.26
521,E-3,97.0,0.5,41,42.26
522,G#3,97.0,0.5,41,42.26
523,F#4,97.5,0.75,57,42.26
524,C#3,98.0,0.5,42,42.26
525,F3,98.0,0.5,42,42.26
526,G#3,98.0,0.5,42,42.26
527,F4,98.25,0.25,38,42.26
528,F3,98.5,0.25,45,42.26
529,C#3,98.75,0.25,38,42.26
530,F#3,99.0,0.25,52,42.26
531,E-3,99.25,0.25,45,42.26
532,G#3,99.5,0.25,54,42.26
533,F3,99.75,0.25,45,42.26
534,C3,100.0,0.5,54,42.26
535,E-3,100.0,0.5,54,42.26
536,G#3,100.0,0.5,54,42.26
537,F#2,100.5,1.0,59,42.26
538,E-3,101.0,0.5,53,42.26
539,G#3,101.0,0.5,53,42.26
540,C4,101.0,0.5,53,42.26
541,G#4,101.5,0.75,58,42.26
542,F#4,101.5,0.75,58,42.26
543,F3,102.0,0.5,60,42.26
544,G#3,102.0,0.5,60,42.26
545,C#4,102.0,0.5,60,42.26
546,F4,102.25,0.25,60,42.26
547,G#3,102.5,0.25,67,42.26
548,F3,102.75,0.25,50,42.26
549,C#3,102.75,0.25,50,42.26
550,C4,103.0,0.25,73,42.26
551,F#3,103.25,0.25,58,42.26
552,E-3,103.25,0.25,58,42.26
553,C#4,103.5,0.25,75,42.26
554,G#3,103.75,0.246,56,42.26
555,F3,103.75,0.246,56,42.26
556,C3,104.0,0.5,82,42.26
557,E-3,104.0,0.5,82,42.26
558,G#3,104.0,0.5,82,42.26
559,F#1,104.5,1.0,67,42.26
560,F#2,104.5,1.0,67,42.26
561,F#3,105.0,0.5,66,42.26
562,C4,105.0,0.5,66,42.26
563,E-4,105.0,0.5,66,42.26
564,E-5,105.5,0.75,72,42.26
565,C5,105.5,0.75,72,42.26
566,F3,106.0,0.5,79,42.26
567,C#4,106.0,0.5,79,42.26
568,F4,106.0,0.5,79,42.26
569,C#5,106.25,0.25,66,42.26
570,F5,106.25,0.25,66,42.26
571,F4,106.5,0.25,67,42.26
572,F3,106.5,0.25,67,42.26
573,C#3,106.75,0.25,60,42.26
574,C#2,106.75,0.25,60,42.26
575,F#4,107.0,0.25,72,42.26
576,F#3,107.0,0.25,72,42.26
577,E-3,107.25,0.25,64,42.26
578,E-2,107.25,0.25,64,42.26
579,G#4,107.5,0.25,70,42.26
580,G#3,107.5,0.25,70,42.26
581,F3,107.75,0.75,56,42.26
582,F2,107.75,0.75,56,42.26
583,B-3,108.0,0.5,58,42.26
584,B-4,108.0,0.5,58,42.26
585,F#2,108.5,1.0,42,42.26
586,C3,109.0,0.5,41,42.26
587,E-3,109.0,0.5,41,42.26
588,G#3,109.0,0.5,41,42.26
589,G#2,109.5,0.75,38,42.26
590,F#3,110.0,0.25,40,42.26
591,F#2,110.25,0.5,31,42.26
592,F3,110.5,0.25,39,42.26
593,F2,110.75,0.5,30,42.26
594,E-3,111.0,0.25,38,42.26
595,E-2,111.25,0.5,28,42.26
596,C#3,111.5,0.25,37,42.26
597,C#2,111.75,0.25,27,42.26
598,C3,112.0,0.5,42,42.26
599,E-3,112.0,0.5,42,42.26
600,G#3,112.0,0.5,42,42.26
601,F#2,112.5,1.0,40,42.26
602,C3,113.0,0.5,41,42.26
603,E-3,113.0,0.5,41,42.26
604,G#3,113.0,0.5,41,42.26
605,F#4,113.5,0.75,57,42.26
606,C#3,114.0,0.5,42,42.26
607,F3,114.0,0.5,42,42.26
608,G#3,114.0,0.5,42,42.26
609,F4,114.25,0.25,38,42.26
610,F3,114.5,0.25,45,42.26
611,C#3,114.75,0.25,38,42.26
612,F#3,115.0,0.25,52,42.26
613,E-3,115.25,0.25,45,42.26
614,G#3,115.5,0.25,54,42.26
615,F3,115.75,0.25,45,42.26
616,C3,116.0,0.5,54,42.26
617,E-3,116.0,0.5,54,42.26
618,G#3,116.0,0.5,54,42.26
619,F#2,116.5,1.0,59,42.26
620,E-3,117.0,0.5,53,42.26
621,G#3,117.0,0.5,53,42.26
622,C4,117.0,0.5,53,42.26
623,G#4,117.5,0.75,58,42.26
624,F#4,117.5,0.75,58,42.26
625,F3,118.0,0.5,60,42.26
626,G#3,118.0,0.5,60,42.26
627,C#4,118.0,0.5,60,42.26
628,F4,118.25,0.25,60,42.26
629,G#3,118.5,0.25,67,42.26
630,F3,118.75,0.25,50,42.26
631,C#3,118.75,0.25,50,42.26
632,C4,119.0,0.25,73,42.26
633,F#3,119.25,0.25,58,42.26
634,E-3,119.25,0.25,58,42.26
635,C#4,119.5,0.25,75,42.26
636,G#3,119.75,0.246,56,42.26
637,F3,119.75,0.246,56,42.26
638,C3,120.0,0.5,82,42.26
639,E-3,120.0,0.5,82,42.26
640,G#3,120.0,0.5,82,42.26
641,F#1,120.5,1.0,67,42.26
642,F#2,120.5,1.0,67,42.26
643,F#3,121.0,0.5,66,42.26
644,C4,121.0,0.5,66,42.26
645,E-4,121.0,0.5,66,42.26
646,E-5,121.5,0.75,72,42.26
647,C5,121.5,0.75,72,42.26
648,F3,122.0,0.5,79,42.26
649,C#4,122.0,0.5,79,42.26
650,F4,122.0,0.5,79,42.26
651,C#5,122.25,0.25,66,42.26
652,F5,122.25,0.25,66,42.26
653,F4,122.5,0.25,67,42.26
654,F3,122.5,0.25,67,42.26
655,C#3,122.75,0.25,60,42.26
656,C#2,122.75,0.25,60,42.26
657,F#4,123.0,0.25,72,42.26
658,F#3,123.0,0.25,72,42.26
659,E-3,123.25,0.25,64,42.26
660,E-2,123.25,0.25,64,42.26
661,G#4,123.5,0.25,70,42.26
662,G#3,123.5,0.25,70,42.26
663,F3,123.75,0.75,56,42.26
664,F2,123.75,0.75,56,42.26
665,B-3,124.0,0.5,58,42.26
666,B-4,124.0,0.5,58,42.26
667,F#2,124.5,1.0,42,42.26
668,C3,125.0,0.5,41,42.26
669,E-3,125.0,0.5,41,42.26
670,G#3,125.0,0.5,41,42.26
671,G#2,125.5,0.75,38,42.26
672,F3,126.0,0.25,42,42.26
673,F2,126.25,0.5,30,42.26
674,E-3,126.5,0.25,39,42.26
675,E-2,126.75,0.75,27,42.26
676,C#3,127.0,0.25,37,42.26
677,C#2,127.5,0.5,26,42.26
678,G#4,128.0,0.25,47,42.26
679,C#3,128.0,1.0,51,42.26
680,F4,128.25,0.25,40,42.26
681,C#4,128.5,0.25,43,42.26
682,G#4,128.75,0.25,39,42.26
683,C#4,129.0,0.25,44,42.26
684,F#2,129.0,1.0,38,42.26
685,B-4,129.25,0.25,40,42.26
686,F#4,129.5,0.25,40,42.26
687,C#4,129.75,0.25,38,42.26
688,G#4,130.0,0.25,47,42.26
689,C#3,130.0,1.5,42,42.26
690,F4,130.25,0.25,43,42.26
691,C#4,130.5,0.25,43,42.26
692,G#4,130.75,0.25,44,42.26
693,C#4,131.0,0.25,42,42.26
694,G#4,131.25,0.25,39,42.26
695,F#2,131.5,0.5,38,42.26
696,C#4,131.5,0.25,44,42.26
697,E-4,131.5,0.25,44,42.26
698,B-4,131.75,0.25,40,42.26
699,G#4,132.0,0.25,47,42.26
700,G#2,132.0,1.0,44,42.26
701,E-4,132.25,0.25,43,42.26
702,C#4,132.5,0.25,40,42.26
703,G#4,132.75,0.25,40,42.26
704,C4,133.0,0.25,46,42.26
705,G#3,133.0,1.5,44,42.26
706,G#4,133.25,0.25,40,42.26
707,E-4,133.5,0.25,43,42.26
708,C4,133.75,0.25,43,42.26
709,G#4,134.0,0.25,47,42.26
710,F4,134.25,0.25,44,42.26
711,C#4,134.5,0.25,43,42.26
712,F#3,134.5,0.25,39,42.26
713,G#4,134.75,0.25,43,42.26
714,F3,134.75,0.25,39,42.26
715,F4,135.0,0.25,47,42.26
716,E-3,135.0,0.5,41,42.26
717,C#5,135.25,0.25,44,42.26
718,G#4,135.5,0.25,41,42.26
719,C#3,135.5,0.5,38,42.26
720,F4,135.75,0.25,38,42.26
721,C#5,136.0,0.25,47,42.26
722,C#4,136.0,1.0,51,42.26
723,G#4,136.25,0.25,43,42.26
724,F4,136.5,0.25,43,42.26
725,C#5,136.75,0.25,39,42.26
726,F#4,137.0,0.25,64,42.26
727,F#3,137.0,1.0,58,42.26
728,C#5,137.25,0.25,43,42.26
729,B-4,137.5,0.25,47,42.26
730,F#4,137.75,0.25,38,42.26
731,C#5,138.0,0.25,47,42.26
732,C#4,138.0,1.5,42,42.26
733,G#4,138.25,0.25,43,42.26
734,F4,138.5,0.25,43,42.26
735,C#5,138.75,0.25,44,42.26
736,F4,139.0,0.25,42,42.26
737,C#5,139.25,0.25,39,42.26
738,A3,139.5,0.5,38,42.26
739,E4,139.5,0.25,44,42.26
740,G4,139.5,0.25,44,42.26
741,C#5,139.75,0.25,40,42.26
742,E-4,140.0,0.25,47,42.26
743,G#3,140.0,1.0,44,42.26
744,C#5,140.25,0.25,43,42.26
745,F#4,140.5,0.25,43,42.26
746,E-4,140.75,0.25,39,42.26
747,C5,141.0,0.25,46,42.26
748,G#2,141.0,1.5,44,42.26
749,F#4,141.25,0.25,43,42.26
750,E-4,141.5,0.25,43,42.26
751,C5,141.75,0.25,39,42.26
752,C#5,142.0,0.25,47,42.26
753,G#4,142.25,0.25,44,42.26
754,F4,142.5,0.25,43,42.26
755,C#2,142.5,0.25,36,42.26
756,C#5,142.75,0.25,43,42.26
757,F2,142.75,0.25,36,42.26
758,G#4,143.0,0.25,47,42.26
759,G#2,143.0,0.25,38,42.26
760,F4,143.25,0.25,40,42.26
761,C#3,143.25,0.25,34,42.26
762,C#4,143.5,0.25,41,42.26
763,F3,143.5,0.25,35,42.26
764,G#4,143.75,0.25,38,42.26
765,E-3,143.75,0.25,30,42.26
766,G#4,144.0,0.25,47,42.26
767,C#3,144.0,1.0,51,42.26
768,F4,144.25,0.25,40,42.26
769,C#4,144.5,0.25,43,42.26
770,G#4,144.75,0.25,39,42.26
771,C#4,145.0,0.25,44,42.26
772,F#2,145.0,1.0,38,42.26
773,B-4,145.25,0.25,40,42.26
774,F#4,145.5,0.25,40,42.26
775,C#4,145.75,0.25,38,42.26
776,G#4,146.0,0.25,47,42.26
777,C#3,146.0,1.5,42,42.26
778,F4,146.25,0.25,43,42.26
779,C#4,146.5,0.25,43,42.26
780,G#4,146.75,0.25,44,42.26
781,C#4,147.0,0.25,42,42.26
782,G#4,147.25,0.25,39,42.26
783,F#2,147.5,0.5,38,42.26
784,C#4,147.5,0.25,44,42.26
785,E-4,147.5,0.25,44,42.26
786,B-4,147.75,0.25,40,42.26
787,G#4,148.0,0.25,47,42.26
788,G#2,148.0,1.0,44,42.26
789,E-4,148.25,0.25,43,42.26
790,C#4,148.5,0.25,40,42.26
791,G#4,148.75,0.25,40,42.26
792,C4,149.0,0.25,46,42.26
793,G#3,149.0,1.5,44,42.26
794,G#4,149.25,0.25,40,42.26
795,E-4,149.5,0.25,43,42.26
796,C4,149.75,0.25,43,42.26
797,G#4,150.0,0.25,47,42.26
798,F4,150.25,0.25,44,42.26
799,C#4,150.5,0.25,43,42.26
800,F#3,150.5,0.25,39,42.26
801,G#4,150.75,0.25,43,42.26
802,F3,150.75,0.25,39,42.26
803,F4,151.0,0.25,47,42.26
804,E-3,151.0,0.5,41,42.26
805,C#5,151.25,0.25,44,42.26
806,G#4,151.5,0.25,41,42.26
807,C#3,151.5,0.5,38,42.26
808,F4,151.75,0.25,38,42.26
809,C#5,152.0,0.25,47,42.26
810,C#4,152.0,1.0,51,42.26
811,G#4,152.25,0.25,43,42.26
812,F4,152.5,0.25,43,42.26
813,C#5,152.75,0.25,39,42.26
814,F#4,153.0,0.25,59,42.26
815,F#3,153.0,1.0,58,42.26
816,C#5,153.25,0.25,43,42.26
817,B-4,153.5,0.25,47,42.26
818,F#4,153.75,0.25,38,42.26
819,C#5,154.0,0.25,47,42.26
820,C#4,154.0,1.5,42,42.26
821,G#4,154.25,0.25,43,42.26
822,F4,154.5,0.25,43,42.26
823,C#5,154.75,0.25,44,42.26
824,F4,155.0,0.25,42,42.26
825,C#5,155.25,0.25,39,42.26
826,A3,155.5,0.5,38,42.26
827,E4,155.5,0.25,44,42.26
828,G4,155.5,0.25,44,42.26
829,C#5,155.75,0.25,40,42.26
830,E-4,156.0,0.25,47,42.26
831,G#3,156.0,1.0,44,42.26
832,C#5,156.25,0.25,43,42.26
833,F#4,156.5,0.25,43,42.26
834,E-4,156.75,0.25,39,42.26
835,C5,157.0,0.25,46,42.26
836,G#2,157.0,1.5,44,42.26
837,F#4,157.25,0.25,43,42.26
838,E-4,157.5,0.25,43,42.26
839,C5,157.75,0.25,39,42.26
840,C#5,158.0,0.25,47,42.26
841,G#4,158.25,0.25,44,42.26
842,F4,158.5,0.25,43,42.26
843,C#3,158.5,0.25,36,42.26
844,C#5,158.75,0.25,43,42.26
845,F3,158.75,0.25,36,42.26
846,G#4,159.0,0.25,47,42.26
847,F3,159.0,0.25,38,42.26
848,F4,159.25,0.25,40,42.26
849,C#3,159.25,0.25,34,42.26
850,C#4,159.5,0.25,41,42.26
851,F3,159.5,0.25,35,42.26
852,G#4,159.75,0.25,38,42.26
853,G#3,159.75,0.25,30,42.26
854,G#4,160.0,0.25,47,42.26
855,G#3,160.0,2.0,51,42.26
856,F#3,160.0,1.0,51,42.26
857,E-4,160.25,0.25,40,42.26
858,C4,160.5,0.25,43,42.26
859,G#4,160.75,0.25,39,42.26
860,C4,161.0,0.25,44,42.26
861,E-3,161.0,1.0,38,42.26
862,G#4,161.25,0.25,40,42.26
863,F#4,161.5,0.25,40,42.26
864,C4,161.75,0.25,38,42.26
865,C#4,162.0,0.25,49,42.26
866,F3,162.0,0.5,42,42.26
867,G#3,162.0,0.5,42,42.26
868,F4,162.25,0.25,49,42.26
869,G#4,162.5,0.25,53,42.26
870,E-3,162.5,0.25,45,42.26
871,G#3,162.5,0.25,45,42.26
872,C#5,162.75,0.25,57,42.26
873,F3,162.75,0.25,50,42.26
874,G#3,162.75,0.25,50,42.26
875,C5,163.0,0.25,62,42.26
876,E-3,163.0,0.5,54,42.26
877,G#3,163.0,0.5,54,42.26
878,F#4,163.25,0.25,49,42.26
879,C#5,163.5,0.25,55,42.26
880,C#3,163.5,0.5,46,42.26
881,G#3,163.5,0.5,46,42.26
882,F4,163.75,0.25,43,42.26
883,G#4,164.0,0.25,47,42.26
884,G#3,164.0,2.0,51,42.26
885,F#3,164.0,1.0,51,42.26
886,E-4,164.25,0.25,40,42.26
887,C4,164.5,0.25,43,42.26
888,G#4,164.75,0.25,39,42.26
889,C4,165.0,0.25,44,42.26
890,E-3,165.0,1.0,38,42.26
891,G#4,165.25,0.25,40,42.26
892,F#4,165.5,0.25,40,42.26
893,C4,165.75,0.25,38,42.26
894,C#4,166.0,0.25,49,42.26
895,F3,166.0,0.5,42,42.26
896,G#3,166.0,0.5,42,42.26
897,F4,166.25,0.25,49,42.26
898,G#4,166.5,0.25,53,42.26
899,E-3,166.5,0.25,45,42.26
900,G#3,166.5,0.25,45,42.26
901,F5,166.75,0.25,55,42.26
902,C#3,166.75,0.25,50,42.26
903,G#3,166.75,0.25,50,42.26
904,E-5,167.0,0.25,62,42.26
905,C3,167.0,0.5,54,42.26
906,G#3,167.0,0.5,54,42.26
907,F#4,167.25,0.25,49,42.26
908,C#5,167.5,0.25,55,42.26
909,C#3,167.5,0.5,46,42.26
910,G#3,167.5,0.5,46,42.26
911,F4,167.75,0.25,43,42.26
912,G#4,168.0,0.25,58,42.26
913,G#3,168.0,2.0,58,42.26
914,F#3,168.0,1.0,58,42.26
915,E-4,168.25,0.25,50,42.26
916,C4,168.5,0.25,58,42.26
917,G#4,168.75,0.25,53,42.26
918,C4,169.0,0.25,67,42.26
919,E-3,169.0,1.0,62,42.26
920,G#4,169.25,0.25,62,42.26
921,F#4,169.5,0.25,67,42.26
922,C4,169.75,0.25,63,42.26
923,F3,170.0,0.5,64,42.26
924,G#3,170.0,0.5,64,42.26
925,C#4,170.0,0.5,64,42.26
926,G#5,170.25,0.25,73,42.26
927,G#4,170.5,0.25,74,42.26
928,F#3,170.5,0.25,58,42.26
929,E-3,170.5,0.25,58,42.26
930,C#4,170.5,0.25,58,42.26
931,G#5,170.75,0.25,65,42.26
932,C#3,170.75,0.25,52,42.26
933,F3,170.75,0.25,52,42.26
934,C#4,170.75,0.25,52,42.26
935,F#5,171.0,0.25,70,42.26
936,F#3,171.0,0.5,59,42.26
937,E-3,171.0,0.5,59,42.26
938,C4,171.0,0.5,59,42.26
939,G#4,171.25,0.25,58,42.26
940,F5,171.5,0.25,63,42.26
941,G#3,171.5,0.5,46,42.26
942,F3,171.5,0.5,46,42.26
943,C#4,171.5,0.5,46,42.26
944,G#4,171.75,0.25,48,42.26
945,E-5,172.0,0.25,47,42.26
946,F#3,172.0,1.0,36,42.26
947,B-3,172.0,1.0,36,42.26
948,E-4,172.0,1.0,36,42.26
949,B-4,172.25,0.25,43,42.26
950,F#4,172.5,0.25,43,42.26
951,E-5,172.75,0.25,39,42.26
952,G#4,173.0,0.25,46,42.26
953,G#3,173.0,1.0,37,42.26
954,C4,173.0,1.0,37,42.26
955,F#4,173.25,0.25,43,42.26
956,E-4,173.5,0.25,43,42.26
957,G#4,173.75,0.25,39,42.26
958,F4,174.0,0.25,47,42.26
959,G#3,174.0,0.5,37,42.26
960,C#4,174.0,0.5,37,42.26
961,C#5,174.25,0.25,44,42.26
962,G#4,174.5,0.25,43,42.26
963,C#3,174.5,0.25,36,42.26
964,F4,174.75,0.25,43,42.26
965,E-3,174.75,0.25,36,42.26
966,C#4,175.0,0.25,47,42.26
967,F3,175.0,0.25,38,42.26
968,C#3,175.25,0.25,31,42.26
969,G#3,175.25,0.25,31,42.26
970,E-3,175.5,0.25,32,42.26
971,G#3,175.5,0.25,32,42.26
972,F3,175.75,0.25,28,42.26
973,G#3,175.75,0.25,28,42.26
974,G#4,176.0,0.25,47,42.26
975,G#3,176.0,2.0,51,42.26
976,F#3,176.0,1.0,51,42.26
977,E-4,176.25,0.25,40,42.26
978,C4,176.5,0.25,43,42.26
979,G#4,176.75,0.25,39,42.26
980,C4,177.0,0.25,44,42.26
981,E-3,177.0,1.0,38,42.26
982,G#4,177.25,0.25,40,42.26
983,F#4,177.5,0.25,40,42.26
984,C4,177.75,0.25,38,42.26
985,C#4,178.0,0.25,49,42.26
986,F3,178.0,0.5,42,42.26
987,G#3,178.0,0.5,42,42.26
988,F4,178.25,0.25,49,42.26
989,G#4,178.5,0.25,53,42.26
990,E-3,178.5,0.25,45,42.26
991,G#3,178.5,0.25,45,42.26
992,C#5,178.75,0.25,57,42.26
993,F3,178.75,0.25,50,42.26
994,G#3,178.75,0.25,50,42.26
995,C5,179.0,0.25,62,42.26
996,E-3,179.0,0.5,54,42.26
997,G#3,179.0,0.5,54,42.26
998,F#4,179.25,0.25,49,42.26
999,C#5,179.5,0.25,55,42.26
1000,C#3,179.5,0.5,46,42.26
1001,G#3,179.5,0.5,46,42.26
1002,F4,179.75,0.25,43,42.26
1003,G#4,180.0,0.25,47,42.26
1004,G#3,180.0,2.0,51,42.26
1005,F#3,180.0,1.0,51,42.26
1006,E-4,180.25,0.25,40,42.26
1007,C4,180.5,0.25,43,42.26
1008,G#4,180.75,0.25,39,42.26
1009,C4,181.0,0.25,44,42.26
1010,E-3,181.0,1.0,38,42.26
1011,G#4,181.25,0.25,40,42.26
1012,F#4,181.5,0.25,40,42.26
1013,C4,181.75,0.25,38,42.26
1014,C#4,182.0,0.25,49,42.26
1015,F3,182.0,0.5,42,42.26
1016,G#3,182.0,0.5,42,42.26
1017,F4,182.25,0.25,49,42.26
1018,G#4,182.5,0.25,53,42.26
1019,E-3,182.5,0.25,45,42.26
1020,G#3,182.5,0.25,45,42.26
1021,F5,182.75,0.25,54,42.26
1022,C#3,182.75,0.25,50,42.26
1023,G#3,182.75,0.25,50,42.26
1024,E-5,183.0,0.25,62,42.26
1025,C3,183.0,0.5,54,42.26
1026,G#3,183.0,0.5,54,42.26
1027,F#4,183.25,0.25,49,42.26
1028,C#5,183.5,0.25,55,42.26
1029,C#3,183.5,0.5,46,42.26
1030,G#3,183.5,0.5,46,42.26
1031,F4,183.75,0.25,43,42.26
1032,G#4,184.0,0.25,58,42.26
1033,G#3,184.0,2.0,58,42.26
1034,F#3,184.0,1.0,58,42.26
1035,E-4,184.25,0.25,50,42.26
1036,C4,184.5,0.25,58,42.26
1037,G#4,184.75,0.25,53,42.26
1038,C4,185.0,0.25,67,42.26
1039,E-3,185.0,1.0,62,42.26
1040,G#4,185.25,0.25,62,42.26
1041,F#4,185.5,0.25,67,42.26
1042,C4,185.75,0.25,64,42.26
1043,F3,186.0,0.5,64,42.26
1044,G#3,186.0,0.5,64,42.26
1045,C#4,186.0,0.5,64,42.26
1046,G#5,186.25,0.25,74,42.26
1047,G#4,186.5,0.25,74,42.26
1048,F#3,186.5,0.25,58,42.26
1049,E-3,186.5,0.25,58,42.26
1050,C#4,186.5,0.25,58,42.26
1051,G#5,186.75,0.25,66,42.26
1052,C#3,186.75,0.25,52,42.26
1053,F3,186.75,0.25,52,42.26
1054,C#4,186.75,0.25,52,42.26
1055,F#5,187.0,0.25,73,42.26
1056,F#3,187.0,0.5,59,42.26
1057,E-3,187.0,0.5,59,42.26
1058,C4,187.0,0.5,59,42.26
1059,G#4,187.25,0.25,58,42.26
1060,F5,187.5,0.25,63,42.26
1061,G#3,187.5,0.5,46,42.26
1062,F3,187.5,0.5,46,42.26
1063,C#4,187.5,0.5,46,42.26
1064,G#4,187.75,0.25,48,42.26
1065,E-5,188.0,0.25,47,42.26
1066,F#3,188.0,1.0,36,42.26
1067,B-3,188.0,1.0,36,42.26
1068,E-4,188.0,1.0,36,42.26
1069,B-4,188.25,0.25,43,42.26
1070,F#4,188.5,0.25,43,42.26
1071,E-5,188.75,0.25,39,42.26
1072,G#4,189.0,0.25,46,42.26
1073,G#3,189.0,1.0,37,42.26
1074,C4,189.0,1.0,37,42.26
1075,F#4,189.25,0.25,43,42.26
1076,E-4,189.5,0.25,43,42.26
1077,G#4,189.75,0.25,39,42.26
1078,F4,190.0,0.25,47,42.26
1079,G#3,190.0,0.5,37,42.26
1080,C#4,190.0,0.5,37,42.26
1081,C#5,190.25,0.25,44,42.26
1082,G#4,190.5,0.25,43,42.26
1083,C#3,190.5,0.5,36,42.26
1084,F4,190.75,0.25,43,42.26
1085,C#4,191.0,0.25,47,42.26
1086,G#4,191.125,0.125,40,42.26
1087,F4,191.25,0.125,37,42.26
1088,G#4,191.375,0.125,37,42.26
1089,E4,191.5,0.125,40,42.26
1090,G#4,191.625,0.125,37,42.26
1091,F4,191.75,0.125,37,42.26
1092,G#4,191.875,0.125,37,42.26
1093,C#4,192.0,0.125,40,42.26
1094,G#4,192.125,0.125,36,42.26
1095,F4,192.25,0.125,36,42.26
1096,G#4,192.375,0.125,36,42.26
1097,G#5,192.5,1.0,72,42.26
1098,C#5,192.5,0.125,40,42.26
1099,G#4,192.625,0.125,36,42.26
1100,F4,192.75,0.125,36,42.26
1101,G#4,192.875,0.125,36,42.26
1102,C#4,193.0,0.125,40,42.26
1103,B-4,193.125,0.125,35,42.26
1104,F#4,193.25,0.125,37,42.26
1105,B-4,193.375,0.125,37,42.26
1106,B-5,193.5,1.0,74,42.26
1107,C#5,193.5,0.125,40,42.26
1108,B-4,193.625,0.125,37,42.26
1109,F#4,193.75,0.125,37,42.26
1110,B-4,193.875,0.125,37,42.26
1111,C#4,194.0,0.125,40,42.26
1112,G#4,194.125,0.125,37,42.26
1113,F4,194.25,0.125,37,42.26
1114,G#4,194.375,0.125,37,42.26
1115,G#5,194.5,1.0,72,42.26
1116,C#5,194.5,0.125,40,42.26
1117,G#4,194.625,0.125,37,42.26
1118,F4,194.75,0.125,37,42.26
1119,G#4,194.875,0.125,37,42.26
1120,C#4,195.0,0.125,40,42.26
1121,G#4,195.125,0.125,37,42.26
1122,F4,195.25,0.125,37,42.26
1123,G#4,195.375,0.125,37,42.26
1124,F#3,195.5,0.125,52,42.26
1125,C#5,195.5,0.5,69,42.26
1126,E-5,195.5,0.5,69,42.26
1127,B-5,195.5,0.5,69,42.26
1128,F#4,195.625,0.125,46,42.26
1129,E-4,195.75,0.125,46,42.26
1130,F#4,195.875,0.125,46,42.26
1131,G#3,196.0,0.125,57,42.26
1132,C#5,196.0,0.5,72,42.26
1133,E-5,196.0,0.5,72,42.26
1134,G#5,196.0,0.5,72,42.26
1135,F#4,196.125,0.125,46,42.26
1136,E-4,196.25,0.125,46,42.26
1137,F#4,196.375,0.125,46,42.26
1138,G#3,196.5,0.125,57,42.26
1139,C#5,196.5,0.5,69,42.26
1140,E-5,196.5,0.5,69,42.26
1141,G#5,196.5,0.5,69,42.26
1142,F#4,196.625,0.125,46,42.26
1143,E-4,196.75,0.125,46,42.26
1144,F#4,196.875,0.125,46,42.26
1145,G#3,197.0,0.125,59,42.26
1146,C5,197.0,0.5,73,42.26
1147,E-5,197.0,0.5,73,42.26
1148,G#5,197.0,0.5,73,42.26
1149,F#4,197.125,0.125,46,42.26
1150,E-4,197.25,0.125,46,42.26
1151,F#4,197.375,0.125,46,42.26
1152,G#3,197.5,0.125,58,42.26
1153,C5,197.5,0.5,69,42.26
1154,E-5,197.5,0.5,69,42.26
1155,G#5,197.5,0.5,69,42.26
1156,F#4,197.625,0.125,46,42.26
1157,E-4,197.75,0.125,46,42.26
1158,F#4,197.875,0.125,46,42.26
1159,C#4,198.0,0.125,46,42.26
1160,C#5,198.0,0.5,72,42.26
1161,F5,198.0,0.5,72,42.26
1162,G#5,198.0,0.5,72,42.26
1163,E-4,198.125,0.125,47,42.26
1164,F4,198.25,0.125,48,42.26
1165,F#4,198.375,0.125,49,42.26
1166,G#4,198.5,0.125,52,42.26
1167,B-4,198.625,0.125,49,42.26
1168,G#4,198.75,0.125,51,42.26
1169,F#4,198.875,0.125,50,42.26
1170,F4,199.0,0.125,45,42.26
1171,F#4,199.125,0.125,47,42.26
1172,G#4,199.25,0.125,48,42.26
1173,B-4,199.375,0.125,49,42.26
1174,C5,199.5,0.125,54,42.26
1175,C#5,199.625,0.125,46,42.26
1176,G#4,199.75,0.125,50,42.26
1177,F#4,199.875,0.125,46,42.26
1178,F4,200.0,0.125,40,42.26
1179,C#5,200.125,0.125,36,42.26
1180,G#4,200.25,0.125,36,42.26
1181,C#5,200.375,0.125,36,42.26
1182,F5,200.5,0.125,40,42.26
1183,C#6,200.5,1.0,66,42.26
1184,G#5,200.5,1.0,66,42.26
1185,C#5,200.625,0.125,36,42.26
1186,G#4,200.75,0.125,36,42.26
1187,C#5,200.875,0.125,36,42.26
1188,F#4,201.0,0.125,40,42.26
1189,C#5,201.125,0.125,35,42.26
1190,B-4,201.25,0.125,37,42.26
1191,C#5,201.375,0.125,37,42.26
1192,F#5,201.5,0.125,40,42.26
1193,C#6,201.5,1.0,67,42.26
1194,B-5,201.5,1.0,67,42.26
1195,C#5,201.625,0.125,37,42.26
1196,B-4,201.75,0.125,37,42.26
1197,C#5,201.875,0.125,37,42.26
1198,F4,202.0,0.125,40,42.26
1199,C#5,202.125,0.125,37,42.26
1200,G#4,202.25,0.125,37,42.26
1201,C#5,202.375,0.125,37,42.26
1202,F5,202.5,0.125,40,42.26
1203,C#6,202.5,1.0,68,42.26
1204,G#5,202.5,1.0,68,42.26
1205,C#5,202.625,0.125,37,42.26
1206,G#4,202.75,0.125,37,42.26
1207,C#5,202.875,0.125,37,42.26
1208,F4,203.0,0.125,40,42.26
1209,C#5,203.125,0.125,37,42.26
1210,G#4,203.25,0.125,37,42.26
1211,C#5,203.375,0.125,37,42.26
1212,E4,203.5,0.125,52,42.26
1213,C#5,203.5,0.5,69,42.26
1214,G5,203.5,0.5,69,42.26
1215,C#6,203.5,0.5,69,42.26
1216,B-4,203.625,0.125,46,42.26
1217,G4,203.75,0.125,46,42.26
1218,B-4,203.875,0.125,46,42.26
1219,E-4,204.0,0.125,57,42.26
1220,C#5,204.0,0.5,72,42.26
1221,F#5,204.0,0.5,72,42.26
1222,C#6,204.0,0.5,72,42.26
1223,A4,204.125,0.125,46,42.26
1224,F#4,204.25,0.125,46,42.26
1225,A4,204.375,0.125,46,42.26
1226,E-4,204.5,0.125,57,42.26
1227,C#5,204.5,0.5,69,42.26
1228,F#5,204.5,0.5,69,42.26
1229,C#6,204.5,0.5,69,42.26
1230,A4,204.625,0.125,46,42.26
1231,F#4,204.75,0.125,46,42.26
1232,A4,204.875,0.125,46,42.26
1233,E-4,205.0,0.125,59,42.26
1234,C5,205.0,0.5,73,42.26
1235,F#5,205.0,0.5,73,42.26
1236,C6,205.0,0.5,73,42.26
1237,G#4,205.125,0.125,46,42.26
1238,F#4,205.25,0.125,46,42.26
1239,G#4,205.375,0.125,46,42.26
1240,E-4,205.5,0.125,58,42.26
1241,C5,205.5,0.5,69,42.26
1242,F#5,205.5,0.5,69,42.26
1243,C6,205.5,0.5,69,42.26
1244,G#4,205.625,0.125,46,42.26
1245,F#4,205.75,0.125,46,42.26
1246,G#4,205.875,0.125,46,42.26
1247,C#6,206.0,0.125,66,42.26
1248,C#4,206.0,0.5,72,42.26
1249,F4,206.0,0.5,72,42.26
1250,G#4,206.0,0.5,72,42.26
1251,E-6,206.125,0.125,57,42.26
1252,F6,206.25,0.125,59,42.26
1253,C6,206.375,0.125,60,42.26
1254,C#6,206.5,0.125,66,42.26
1255,G#5,206.625,0.125,56,42.26
1256,B-5,206.75,0.125,58,42.26
1257,F#5,206.875,0.125,57,42.26
1258,F5,207.0,0.125,51,42.26
1259,G#5,207.125,0.125,54,42.26
1260,F#5,207.25,0.125,55,42.26
1261,E-5,207.375,0.125,56,42.26
1262,C#5,207.5,0.125,63,42.26
1263,F5,207.625,0.125,53,42.26
1264,E-5,207.75,0.125,57,42.26
1265,C5,207.875,0.125,53,42.26
1266,C#5,208.0,0.125,52,42.26
1267,E-5,208.125,0.125,46,42.26
1268,C#5,208.25,0.125,46,42.26
1269,C5,208.375,0.125,46,42.26
1270,C#5,208.5,0.125,52,42.26
1271,C#4,208.5,1.0,55,42.26
1272,G#4,208.5,1.0,55,42.26
1273,F4,208.5,1.0,55,42.26
1274,G#5,208.625,0.125,46,42.26
1275,G5,208.75,0.125,46,42.26
1276,G#5,208.875,0.125,46,42.26
1277,C#5,209.0,0.125,52,42.26
1278,E-5,209.125,0.125,45,42.26
1279,C#5,209.25,0.125,48,42.26
1280,C5,209.375,0.125,48,42.26
1281,C#5,209.5,0.125,52,42.26
1282,C#4,209.5,1.0,56,42.26
1283,B-4,209.5,1.0,56,42.26
1284,F#4,209.5,1.0,56,42.26
1285,B-5,209.625,0.125,48,42.26
1286,A5,209.75,0.125,48,42.26
1287,B-5,209.875,0.125,48,42.26
1288,C#5,210.0,0.125,52,42.26
1289,E-5,210.125,0.125,48,42.26
1290,C#5,210.25,0.125,48,42.26
1291,C5,210.375,0.125,48,42.26
1292,C#5,210.5,0.125,52,42.26
1293,C#4,210.5,1.0,57,42.26
1294,G#4,210.5,1.0,57,42.26
1295,F4,210.5,1.0,57,42.26
1296,G#5,210.625,0.125,48,42.26
1297,G5,210.75,0.125,48,42.26
1298,G#5,210.875,0.125,48,42.26
1299,C#5,211.0,0.125,52,42.26
1300,G#5,211.125,0.125,48,42.26
1301,G5,211.25,0.125,48,42.26
1302,G#5,211.375,0.125,48,42.26
1303,C#5,211.5,0.125,73,42.26
1304,E-4,211.5,0.5,61,42.26
1305,F#3,211.5,0.5,61,42.26
1306,C#4,211.5,0.5,61,42.26
1307,F#4,211.5,0.5,61,42.26
1308,B-5,211.625,0.125,63,42.26
1309,A5,211.75,0.125,63,42.26
1310,B-5,211.875,0.125,63,42.26
1311,C#5,212.0,0.125,80,42.26
1312,C#4,212.0,0.5,65,42.26
1313,G#3,212.0,0.5,65,42.26
1314,E-4,212.0,0.5,65,42.26
1315,F#4,212.0,0.5,65,42.26
1316,G#5,212.125,0.125,66,42.26
1317,G5,212.25,0.125,67,42.26
1318,G#5,212.375,0.125,67,42.26
1319,C#5,212.5,0.125,80,42.26
1320,C#4,212.5,0.5,61,42.26
1321,G#3,212.5,0.5,61,42.26
1322,E-4,212.5,0.5,61,42.26
1323,F#4,212.5,0.5,61,42.26
1324,G#5,212.625,0.125,66,42.26
1325,G5,212.75,0.125,66,42.26
1326,G#5,212.875,0.125,66,42.26
1327,C5,213.0,0.125,83,42.26
1328,C4,213.0,0.5,60,42.26
1329,G#3,213.0,0.5,60,42.26
1330,E-4,213.0,0.5,60,42.26
1331,F#4,213.0,0.5,60,42.26
1332,G#5,213.125,0.125,67,42.26
1333,G5,213.25,0.125,67,42.26
1334,G#5,213.375,0.125,67,42.26
1335,C5,213.5,0.125,81,42.26
1336,C4,213.5,0.5,57,42.26
1337,G#3,213.5,0.5,57,42.26
1338,E-4,213.5,0.5,57,42.26
1339,F#4,213.5,0.5,57,42.26
1340,G#5,213.625,0.125,63,42.26
1341,G5,213.75,0.125,63,42.26
1342,G#5,213.875,0.125,63,42.26
1343,G#5,214.0,0.125,53,42.26
1344,C#4,214.0,0.5,70,42.26
1345,F4,214.0,0.5,70,42.26
1346,F#5,214.125,0.125,54,42.26
1347,F5,214.25,0.125,55,42.26
1348,E-5,214.375,0.125,56,42.26
1349,C#5,214.5,0.125,60,42.26
1350,E-5,214.625,0.125,56,42.26
1351,F5,214.75,0.125,58,42.26
1352,F#5,214.875,0.125,57,42.26
1353,G#5,215.0,0.125,51,42.26
1354,F#5,215.125,0.125,54,42.26
1355,F5,215.25,0.125,55,42.26
1356,F#5,215.375,0.125,56,42.26
1357,G#5,215.5,0.125,63,42.26
1358,B-5,215.625,0.125,53,42.26
1359,C6,215.75,0.125,57,42.26
1360,C#6,215.875,0.125,53,42.26
1361,F5,216.0,0.125,52,42.26
1362,F#5,216.125,0.125,46,42.26
1363,F5,216.25,0.125,46,42.26
1364,E5,216.375,0.125,46,42.26
1365,F5,216.5,0.125,52,42.26
1366,C#5,216.5,1.0,57,42.26
1367,G#4,216.5,1.0,57,42.26
1368,C#6,216.625,0.125,46,42.26
1369,C6,216.75,0.125,46,42.26
1370,C#6,216.875,0.125,46,42.26
1371,F#5,217.0,0.125,52,42.26
1372,G#5,217.125,0.125,45,42.26
1373,F#5,217.25,0.125,48,42.26
1374,F5,217.375,0.125,48,42.26
1375,F#5,217.5,0.125,52,42.26
1376,C#5,217.5,1.0,58,42.26
1377,B-4,217.5,1.0,58,42.26
1378,C#6,217.625,0.125,48,42.26
1379,C6,217.75,0.125,48,42.26
1380,C#6,217.875,0.125,48,42.26
1381,F5,218.0,0.125,52,42.26
1382,F#5,218.125,0.125,48,42.26
1383,F5,218.25,0.125,48,42.26
1384,E5,218.375,0.125,48,42.26
1385,F5,218.5,0.125,52,42.26
1386,C#5,218.5,1.0,58,42.26
1387,G#4,218.5,1.0,58,42.26
1388,C#6,218.625,0.125,48,42.26
1389,C6,218.75,0.125,48,42.26
1390,C#6,218.875,0.125,48,42.26
1391,F5,219.0,0.125,52,42.26
1392,C#6,219.125,0.125,48,42.26
1393,C6,219.25,0.125,48,42.26
1394,C#6,219.375,0.125,48,42.26
1395,A4,219.5,0.5,71,42.26
1396,G5,219.5,0.125,66,42.26
1397,E5,219.5,0.125,66,42.26
1398,C#6,219.625,0.125,63,42.26
1399,C6,219.75,0.125,63,42.26
1400,C#6,219.875,0.125,63,42.26
1401,G#4,220.0,0.5,75,42.26
1402,F#5,220.0,0.125,73,42.26
1403,E-5,220.0,0.125,73,42.26
1404,C#6,220.125,0.125,66,42.26
1405,C6,220.25,0.125,66,42.26
1406,C#6,220.375,0.125,66,42.26
1407,G#4,220.5,0.5,71,42.26
1408,F#5,220.5,0.125,73,42.26
1409,E-5,220.5,0.125,73,42.26
1410,C#6,220.625,0.125,67,42.26
1411,C6,220.75,0.125,67,42.26
1412,C#6,220.875,0.125,67,42.26
1413,G#3,221.0,0.5,76,42.26
1414,F#5,221.0,0.125,76,42.26
1415,E-5,221.0,0.125,76,42.26
1416,C6,221.125,0.125,67,42.26
1417,B5,221.25,0.125,67,42.26
1418,C6,221.375,0.125,67,42.26
1419,G#3,221.5,0.5,70,42.26
1420,F#5,221.5,0.125,74,42.26
1421,E-5,221.5,0.125,74,42.26
1422,C6,221.625,0.125,67,42.26
1423,B5,221.75,0.125,67,42.26
1424,C6,221.875,0.125,67,42.26
1425,G#3,222.0,0.125,54,42.26
1426,C#5,222.0,0.5,78,42.26
1427,F5,222.0,0.5,78,42.26
1428,C#6,222.0,0.5,78,42.26
1429,B-3,222.125,0.125,55,42.26
1430,C4,222.25,0.125,57,42.26
1431,C#4,222.375,0.125,58,42.26
1432,C4,222.5,0.125,59,42.26
1433,C#4,222.625,0.125,53,42.26
1434,E-4,222.75,0.125,56,42.26
1435,F4,222.875,0.125,53,42.26
1436,E-4,223.0,0.125,48,42.26
1437,F4,223.125,0.125,49,42.26
1438,F#4,223.25,0.125,50,42.26
1439,G#4,223.375,0.125,51,42.26
1440,B-4,223.5,0.125,54,42.26
1441,C5,223.625,0.125,46,42.26
1442,C#5,223.75,0.125,50,42.26
1443,G#4,223.875,0.125,46,42.26
1444,F#4,224.0,0.125,40,42.26
1445,E-5,224.125,0.125,36,42.26
1446,C5,224.25,0.125,36,42.26
1447,E-5,224.375,0.125,36,42.26
1448,G#5,224.5,1.0,69,42.26
1449,B4,224.5,0.125,40,42.26
1450,E-5,224.625,0.125,36,42.26
1451,C5,224.75,0.125,36,42.26
1452,E-5,224.875,0.125,36,42.26
1453,F#5,225.0,0.125,57,42.26
1454,E-5,225.125,0.125,35,42.26
1455,C5,225.25,0.125,37,42.26
1456,E-5,225.375,0.125,37,42.26
1457,G#5,225.5,0.5,59,42.26
1458,F#4,225.5,0.125,40,42.26
1459,E-5,225.625,0.125,37,42.26
1460,C5,225.75,0.125,37,42.26
1461,E-5,225.875,0.125,37,42.26
1462,G#5,226.0,0.5,59,42.26
1463,F4,226.0,0.125,40,42.26
1464,C#5,226.125,0.125,37,42.26
1465,G#4,226.25,0.125,37,42.26
1466,C#5,226.375,0.125,37,42.26
1467,G#5,226.5,0.5,55,42.26
1468,F4,226.5,0.125,40,42.26
1469,C#5,226.625,0.125,37,42.26
1470,G#4,226.75,0.125,37,42.26
1471,C#5,226.875,0.125,37,42.26
1472,G#5,227.0,0.5,59,42.26
1473,E-4,227.0,0.125,40,42.26
1474,C5,227.125,0.125,37,42.26
1475,F#4,227.25,0.125,37,42.26
1476,C5,227.375,0.125,37,42.26
1477,G#5,227.5,0.5,56,42.26
1478,C#4,227.5,0.125,40,42.26
1479,C#5,227.625,0.125,38,42.26
1480,F4,227.75,0.125,38,42.26
1481,C#5,227.875,0.125,38,42.26
1482,F#4,228.0,0.125,40,42.26
1483,E-5,228.125,0.125,36,42.26
1484,C5,228.25,0.125,36,42.26
1485,E-5,228.375,0.125,36,42.26
1486,G#5,228.5,1.0,69,42.26
1487,B4,228.5,0.125,40,42.26
1488,E-5,228.625,0.125,36,42.26
1489,C5,228.75,0.125,36,42.26
1490,E-5,228.875,0.125,36,42.26
1491,F#5,229.0,0.125,58,42.26
1492,E-5,229.125,0.125,35,42.26
1493,C5,229.25,0.125,37,42.26
1494,E-5,229.375,0.125,37,42.26
1495,G#5,229.5,0.5,57,42.26
1496,F#4,229.5,0.125,40,42.26
1497,E-5,229.625,0.125,37,42.26
1498,C5,229.75,0.125,37,42.26
1499,E-5,229.875,0.125,37,42.26
1500,G#5,230.0,0.5,60,42.26
1501,F4,230.0,0.125,40,42.26
1502,F5,230.125,0.125,37,42.26
1503,C#5,230.25,0.125,37,42.26
1504,F5,230.375,0.125,37,42.26
1505,G#5,230.5,0.5,56,42.26
1506,G#4,230.5,0.125,40,42.26
1507,F5,230.625,0.125,37,42.26
1508,C#5,230.75,0.125,37,42.26
1509,F5,230.875,0.125,37,42.26
1510,G#5,231.0,0.5,59,42.26
1511,F#4,231.0,0.125,40,42.26
1512,E-5,231.125,0.125,37,42.26
1513,C5,231.25,0.125,37,42.26
1514,E-5,231.375,0.125,37,42.26
1515,G#5,231.5,0.5,56,42.26
1516,F4,231.5,0.125,40,42.26
1517,C#5,231.625,0.125,38,42.26
1518,G#4,231.75,0.125,38,42.26
1519,C#5,231.875,0.125,38,42.26
1520,C5,232.0,0.125,48,42.26
1521,F#5,232.125,0.125,47,42.26
1522,E-5,232.25,0.125,47,42.26
1523,F#5,232.375,0.125,47,42.26
1524,C6,232.5,0.5,67,42.26
1525,G#5,232.5,0.125,53,42.26
1526,F#5,232.625,0.125,48,42.26
1527,E-5,232.75,0.125,48,42.26
1528,F#5,232.875,0.125,48,42.26
1529,B5,233.0,0.5,72,42.26
1530,G#5,233.0,0.125,55,42.26
1531,F#5,233.125,0.125,48,42.26
1532,E-5,233.25,0.125,50,42.26
1533,F#5,233.375,0.125,50,42.26
1534,C6,233.5,0.5,70,42.26
1535,G#5,233.5,0.125,56,42.26
1536,F#5,233.625,0.125,52,42.26
1537,E-5,233.75,0.125,52,42.26
1538,F#5,233.875,0.125,53,42.26
1539,C#6,234.0,0.5,77,42.26
1540,F5,234.0,0.125,57,42.26
1541,G#5,234.125,0.125,52,42.26
1542,F5,234.25,0.125,53,42.26
1543,G#5,234.375,0.125,53,42.26
1544,F6,234.5,0.5,75,42.26
1545,C#6,234.5,0.125,60,42.26
1546,G#5,234.625,0.125,53,42.26
1547,C#6,234.75,0.125,55,42.26
1548,G#5,234.875,0.125,55,42.26
1549,E-6,235.0,0.5,86,42.26
1550,C6,235.0,0.125,61,42.26
1551,F#5,235.125,0.125,53,42.26
1552,C6,235.25,0.125,57,42.26
1553,F#5,235.375,0.125,57,42.26
1554,C#6,235.5,0.5,82,42.26
1555,F5,235.5,0.125,67,42.26
1556,G#5,235.625,0.125,62,42.26
1557,F5,235.75,0.125,62,42.26
1558,G#5,235.875,0.125,62,42.26
1559,F#6,236.0,1.0,94,42.26
1560,B-5,236.0,0.125,81,42.26
1561,F#5,236.125,0.125,69,42.26
1562,B-5,236.25,0.125,74,42.26
1563,G#5,236.375,0.125,61,42.26
1564,F#5,236.5,0.125,68,42.26
1565,F5,236.625,0.125,60,42.26
1566,E-5,236.75,0.125,63,42.26
1567,C#5,236.875,0.125,61,42.26
1568,C5,237.0,0.125,60,42.26
1569,E-5,237.0,1.0,73,42.26
1570,F#5,237.0,1.0,73,42.26
1571,G#5,237.0,1.0,73,42.26
1572,B-4,237.125,0.125,59,42.26
1573,G#4,237.25,0.125,57,42.26
1574,F#4,237.375,0.125,56,42.26
1575,F4,237.5,0.125,55,42.26
1576,E-4,237.625,0.125,52,42.26
1577,C#4,237.75,0.125,51,42.26
1578,C4,237.875,0.125,49,42.26
1579,C#4,238.0,0.5,55,42.26
1580,F5,238.0,0.125,50,42.26
1581,G#5,238.0,0.125,50,42.26
1582,B-5,238.125,0.125,45,42.26
1583,G#5,238.25,0.125,45,42.26
1584,F#5,238.375,0.125,44,42.26
1585,F5,238.5,0.125,41,42.26
1586,F#5,238.625,0.125,45,42.26
1587,G#5,238.75,0.125,47,42.26
1588,B-5,238.875,0.125,50,42.26
1589,C6,239.0,0.125,52,42.26
1590,C#6,239.125,0.125,50,42.26
1591,G#5,239.25,0.125,48,42.26
1592,F#5,239.375,0.125,49,42.26
1593,F5,239.5,0.125,50,42.26
1594,G#5,239.625,0.125,45,42.26
1595,F5,239.75,0.125,46,42.26
1596,C#5,239.875,0.125,46,42.26
1597,C5,240.0,0.125,55,42.26
1598,G#5,240.125,0.125,42,42.26
1599,B-5,240.25,0.125,42,42.26
1600,G#5,240.375,0.125,42,42.26
1601,C6,240.5,0.125,51,42.26
1602,F#3,240.5,1.0,66,42.26
1603,G#5,240.625,0.125,42,42.26
1604,B-5,240.75,0.125,42,42.26
1605,G#5,240.875,0.125,42,42.26
1606,E-6,241.0,0.125,55,42.26
1607,G#5,241.125,0.125,41,42.26
1608,B-5,241.25,0.125,44,42.26
1609,G#5,241.375,0.125,44,42.26
1610,C6,241.5,0.125,48,42.26
1611,F#4,241.5,1.0,59,42.26
1612,G#4,241.5,1.0,59,42.26
1613,E-5,241.5,1.0,59,42.26
1614,G#5,241.625,0.125,44,42.26
1615,B-5,241.75,0.125,44,42.26
1616,G#5,241.875,0.125,44,42.26
1617,C#6,242.0,0.125,53,42.26
1618,G#5,242.125,0.125,44,42.26
1619,B-5,242.25,0.125,44,42.26
1620,G#5,242.375,0.125,44,42.26
1621,C#6,242.5,0.125,55,42.26
1622,F4,242.5,0.25,52,42.26
1623,G#4,242.5,0.25,52,42.26
1624,C#5,242.5,0.25,52,42.26
1625,G#5,242.625,0.125,44,42.26
1626,B-5,242.75,0.125,44,42.26
1627,G#5,242.875,0.125,44,42.26
1628,F#5,243.0,0.125,48,42.26
1629,E-4,243.0,0.25,49,42.26
1630,G#4,243.0,0.25,49,42.26
1631,C5,243.0,0.25,49,42.26
1632,G#5,243.125,0.125,44,42.26
1633,B-5,243.25,0.125,44,42.26
1634,G#5,243.375,0.125,44,42.26
1635,F5,243.5,0.125,48,42.26
1636,C#4,243.5,0.25,45,42.26
1637,G#4,243.5,0.25,45,42.26
1638,C#5,243.5,0.25,45,42.26
1639,G#5,243.625,0.125,45,42.26
1640,B-5,243.75,0.125,45,42.26
1641,G#5,243.875,0.125,45,42.26
1642,C5,244.0,0.125,55,42.26
1643,G#5,244.125,0.125,42,42.26
1644,B-5,244.25,0.125,42,42.26
1645,G#5,244.375,0.125,42,42.26
1646,C6,244.5,0.125,51,42.26
1647,F#3,244.5,1.0,66,42.26
1648,G#5,244.625,0.125,42,42.26
1649,B-5,244.75,0.125,42,42.26
1650,G#5,244.875,0.125,42,42.26
1651,E-6,245.0,0.125,55,42.26
1652,G#5,245.125,0.125,41,42.26
1653,B-5,245.25,0.125,44,42.26
1654,G#5,245.375,0.125,44,42.26
1655,B-5,245.5,0.125,48,42.26
1656,C5,245.5,1.0,59,42.26
1657,E-5,245.5,1.0,59,42.26
1658,F#5,245.5,1.0,59,42.26
1659,G#5,245.625,0.125,44,42.26
1660,B-5,245.75,0.125,44,42.26
1661,G#5,245.875,0.125,44,42.26
1662,B-5,246.0,0.125,53,42.26
1663,G#5,246.125,0.125,44,42.26
1664,B-5,246.25,0.125,44,42.26
1665,G#5,246.375,0.125,44,42.26
1666,C#6,246.5,0.125,55,42.26
1667,G#4,246.5,0.25,48,42.26
1668,C#5,246.5,0.25,48,42.26
1669,F5,246.5,0.25,48,42.26
1670,G#5,246.625,0.125,44,42.26
1671,B-5,246.75,0.125,44,42.26
1672,G#5,246.875,0.125,44,42.26
1673,E-6,247.0,0.125,59,42.26
1674,F#4,247.0,0.25,51,42.26
1675,C5,247.0,0.25,51,42.26
1676,E-5,247.0,0.25,51,42.26
1677,G#5,247.125,0.125,47,42.26
1678,B-5,247.25,0.125,47,42.26
1679,G#5,247.375,0.125,44,42.26
1680,F6,247.5,0.125,57,42.26
1681,F4,247.5,0.25,48,42.26
1682,G#4,247.5,0.25,48,42.26
1683,C#5,247.5,0.25,48,42.26
1684,G#5,247.625,0.125,47,42.26
1685,B-5,247.75,0.125,47,42.26
1686,G#5,247.875,0.125,48,42.26
1687,E-6,248.0,0.125,71,42.26
1688,C6,248.125,0.125,58,42.26
1689,C#6,248.25,0.125,58,42.26
1690,C6,248.375,0.125,58,42.26
1691,E-6,248.5,0.125,72,42.26
1692,F#4,248.5,1.0,74,42.26
1693,C5,248.5,1.0,74,42.26
1694,E-5,248.5,1.0,74,42.26
1695,C6,248.625,0.125,58,42.26
1696,C#6,248.75,0.125,59,42.26
1697,C6,248.875,0.125,61,42.26
1698,G#6,249.0,0.125,75,42.26
1699,C6,249.125,0.125,57,42.26
1700,C#6,249.25,0.125,61,42.26
1701,C6,249.375,0.125,61,42.26
1702,G#6,249.5,0.125,78,42.26
1703,E-5,249.5,1.0,72,42.26
1704,F#5,249.5,1.0,72,42.26
1705,G#5,249.5,1.0,72,42.26
1706,C6,249.625,0.125,68,42.26
1707,C#6,249.75,0.125,69,42.26
1708,C6,249.875,0.125,70,42.26
1709,G#6,250.0,0.125,82,42.26
1710,C6,250.125,0.125,72,42.26
1711,C#6,250.25,0.125,73,42.26
1712,C6,250.375,0.125,74,42.26
1713,G#6,250.5,0.125,90,42.26
1714,C#5,250.5,0.25,60,42.26
1715,F5,250.5,0.25,60,42.26
1716,G#5,250.5,0.25,60,42.26
1717,C#6,250.625,0.125,78,42.26
1718,E-6,250.75,0.125,78,42.26
1719,C#6,250.875,0.125,80,42.26
1720,G#6,251.0,0.125,97,42.26
1721,C5,251.0,0.25,64,42.26
1722,F#4,251.0,0.25,64,42.26
1723,E-5,251.0,0.25,64,42.26
1724,F#5,251.0,0.25,64,42.26
1725,E-6,251.125,0.125,81,42.26
1726,F6,251.25,0.125,82,42.26
1727,E-6,251.375,0.125,84,42.26
1728,G#6,251.5,0.125,99,42.26
1729,G#4,251.5,0.25,63,42.26
1730,F4,251.5,0.25,63,42.26
1731,C#5,251.5,0.25,63,42.26
1732,F5,251.5,0.25,63,42.26
1733,F6,251.625,0.125,84,42.26
1734,F#6,251.75,0.125,85,42.26
1735,F6,251.875,0.125,88,42.26
1736,B-6,252.0,0.125,104,42.26
1737,F#6,252.125,0.125,92,42.26
1738,B-6,252.25,0.125,97,42.26
1739,G#6,252.375,0.125,86,42.26
1740,F#6,252.5,0.125,97,42.26
1741,E-4,252.5,0.25,71,42.26
1742,F#4,252.5,0.25,71,42.26
1743,B-4,252.5,0.25,71,42.26
1744,C#5,252.5,0.25,71,42.26
1745,F6,252.625,0.125,83,42.26
1746,E-6,252.75,0.125,90,42.26
1747,C#6,252.875,0.125,78,42.26
1748,C6,253.0,0.125,86,42.26
1749,B-5,253.125,0.125,79,42.26
1750,G#5,253.25,0.125,82,42.26
1751,F#5,253.375,0.125,75,42.26
1752,F5,253.5,0.125,79,42.26
1753,G#3,253.5,0.25,72,42.26
1754,C4,253.5,0.25,72,42.26
1755,E-4,253.5,0.25,72,42.26
1756,F#4,253.5,0.25,72,42.26
1757,E-5,253.625,0.125,72,42.26
1758,C#5,253.75,0.125,75,42.26
1759,C5,253.875,0.125,69,42.26
1760,C#5,254.0,0.125,72,42.26
1761,B-4,254.125,0.125,70,42.26
1762,G#4,254.25,0.125,69,42.26
1763,F#4,254.375,0.125,67,42.26
1764,F4,254.5,0.125,64,42.26
1765,E-4,254.625,0.125,63,42.26
1766,C#4,254.75,0.125,61,42.26
1767,C4,254.875,0.125,60,42.26
1768,B-3,255.0,0.125,54,42.26
1769,G#3,255.125,0.125,53,42.26
1770,F#3,255.25,0.125,51,42.26
1771,F3,255.375,0.125,50,42.26
1772,E-3,255.5,0.125,48,42.26
1773,C#3,255.625,0.125,47,42.26
1774,G#2,255.75,0.125,45,42.26
1775,F2,255.875,0.125,44,42.26
1776,C#2,256.0,1.0,47,42.26
1777,C#3,256.0,1.0,42,42.26
1778,F3,256.0,1.0,42,42.26
1779,G#3,256.0,1.0,42,42.26
1780,F#1,257.0,1.0,35,42.26
1781,C#3,257.0,1.0,42,42.26
1782,F#3,257.0,1.0,42,42.26
1783,B-3,257.0,1.0,42,42.26
1784,C#2,258.0,1.5,37,42.26
1785,C#3,258.0,1.5,39,42.26
1786,F3,258.0,1.5,39,42.26
1787,G#3,258.0,1.5,39,42.26
1788,F#3,259.5,0.5,35,42.26
1789,C#4,259.5,0.5,39,42.26
1790,E-4,259.5,0.5,39,42.26
1791,B-4,259.5,0.5,39,42.26
1792,G#3,260.0,1.25,40,42.26
1793,C#4,260.0,1.0,42,42.26
1794,E-4,260.0,1.0,42,42.26
1795,G#4,260.0,1.0,42,42.26
1796,C4,261.0,1.0,41,42.26
1797,E-4,261.0,1.0,41,42.26
1798,G#4,261.0,1.0,41,42.26
1799,F#3,261.25,0.25,38,42.26
1800,F3,261.5,0.25,38,42.26
1801,E-3,261.75,0.25,38,42.26
1802,C#3,262.0,0.25,40,42.26
1803,C#4,262.0,0.5,42,42.26
1804,F4,262.0,0.5,42,42.26
1805,G#4,262.0,0.5,42,42.26
1806,B-2,262.25,0.25,37,42.26
1807,G#2,262.5,0.25,37,42.26
1808,F#2,262.75,0.25,37,42.26
1809,F2,263.0,0.25,40,42.26
1810,G#2,263.25,0.25,38,42.26
1811,F#2,263.5,0.25,38,42.26
1812,E-2,263.75,0.25,38,42.26
1813,F3,264.0,1.0,48,42.26
1814,G#3,264.0,1.0,48,42.26
1815,C#4,264.0,1.0,48,42.26
1816,C#2,264.0,1.0,42,42.26
1817,C#3,264.0,1.0,42,42.26
1818,F#3,265.0,1.0,50,42.26
1819,B-3,265.0,1.0,50,42.26
1820,C#4,265.0,1.0,50,42.26
1821,F#1,265.0,1.0,44,42.26
1822,F#2,265.0,1.0,44,42.26
1823,F3,266.0,1.5,39,42.26
1824,G#3,266.0,1.5,39,42.26
1825,C#4,266.0,1.5,39,42.26
1826,C#2,266.0,1.5,30,42.26
1827,C#3,266.0,1.5,30,42.26
1828,A3,267.5,0.5,36,42.26
1829,E4,267.5,0.5,39,42.26
1830,G4,267.5,0.5,39,42.26
1831,C#5,267.5,0.5,39,42.26
1832,G#3,268.0,1.25,37,42.26
1833,E-4,268.0,1.0,42,42.26
1834,F#4,268.0,1.0,42,42.26
1835,C#5,268.0,1.0,42,42.26
1836,E-4,269.0,1.0,39,42.26
1837,F#4,269.0,1.0,39,42.26
1838,C5,269.0,1.0,39,42.26
1839,F#3,269.25,0.25,37,42.26
1840,E-3,269.5,0.25,37,42.26
1841,C3,269.75,0.25,37,42.26
1842,G#2,270.0,0.25,40,42.26
1843,C#4,270.0,0.5,39,42.26
1844,F4,270.0,0.5,39,42.26
1845,C#5,270.0,0.5,39,42.26
1846,F2,270.25,0.25,37,42.26
1847,E-2,270.5,0.25,37,42.26
1848,C#2,270.75,0.25,37,42.26
1849,C2,271.0,0.25,40,42.26
1850,C#2,271.25,0.25,37,42.26
1851,F2,271.5,0.25,37,42.26
1852,C#2,271.75,0.25,37,42.26
1853,C3,272.0,1.0,42,42.26
1854,E-3,272.0,1.0,42,42.26
1855,G#3,272.0,1.0,42,42.26
1856,F#2,272.0,1.0,40,42.26
1857,G#2,272.0,1.0,40,42.26
1858,C3,273.0,0.875,42,42.26
1859,F#3,273.0,0.875,42,42.26
1860,G#3,273.0,0.875,42,42.26
1861,E-2,273.0,0.875,35,42.26
1862,G#2,273.0,0.875,35,42.26
1863,C3,273.875,0.125,42,42.26
1864,E-3,273.875,0.125,42,42.26
1865,G#3,273.875,0.125,42,42.26
1866,F#2,273.875,0.125,35,42.26
1867,G#2,273.875,0.125,35,42.26
1868,C#3,274.0,0.75,42,42.26
1869,F3,274.0,0.75,42,42.26
1870,G#3,274.0,0.75,42,42.26
1871,F2,274.0,0.75,36,42.26
1872,G#2,274.0,0.75,36,42.26
1873,C#4,274.75,0.25,46,42.26
1874,F4,274.75,0.25,48,42.26
1875,G#4,274.75,0.25,48,42.26
1876,C#5,274.75,0.25,48,42.26
1877,E-4,275.0,0.5,44,42.26
1878,G#4,275.0,0.5,44,42.26
1879,F#4,275.0,0.5,44,42.26
1880,C5,275.0,0.5,44,42.26
1881,C#4,275.5,0.5,34,42.26
1882,F4,275.5,0.5,33,42.26
1883,G#4,275.5,0.5,33,42.26
1884,C#5,275.5,0.5,33,42.26
1885,C3,276.0,1.0,42,42.26
1886,E-3,276.0,1.0,42,42.26
1887,G#3,276.0,1.0,42,42.26
1888,F#2,276.0,1.0,40,42.26
1889,G#2,276.0,1.0,40,42.26
1890,C3,277.0,0.875,42,42.26
1891,F#3,277.0,0.875,42,42.26
1892,G#3,277.0,0.875,42,42.26
1893,E-2,277.0,0.875,35,42.26
1894,G#2,277.0,0.875,35,42.26
1895,C3,277.875,0.125,42,42.26
1896,E-3,277.875,0.125,42,42.26
1897,G#3,277.875,0.125,42,42.26
1898,F#2,277.875,0.125,35,42.26
1899,G#2,277.875,0.125,35,42.26
1900,C#3,278.0,0.75,42,42.26
1901,F3,278.0,0.75,42,42.26
1902,G#3,278.0,0.75,42,42.26
1903,F2,278.0,0.75,36,42.26
1904,G#2,278.0,0.75,36,42.26
1905,C#4,278.75,0.25,46,42.26
1906,F4,278.75,0.25,48,42.26
1907,G#4,278.75,0.25,48,42.26
1908,F5,278.75,0.25,48,42.26
1909,F5,279.0,0.25,58,42.26
1910,C4,279.0,0.5,44,42.26
1911,G#4,279.0,0.5,45,42.26
1912,F#4,279.0,0.5,45,42.26
1913,E-5,279.25,0.25,51,42.26
1914,C#4,279.5,0.5,34,42.26
1915,F4,279.5,0.5,33,42.26
1916,G#4,279.5,0.5,33,42.26
1917,C#5,279.5,0.5,33,42.26
1918,C3,280.0,1.0,57,42.26
1919,E-3,280.0,1.0,57,42.26
1920,G#3,280.0,1.0,57,42.26
1921,F#2,280.0,1.0,56,42.26
1922,G#2,280.0,1.0,56,42.26
1923,C3,281.0,0.875,68,42.26
1924,F#3,281.0,0.875,68,42.26
1925,G#3,281.0,0.875,68,42.26
1926,E-2,281.0,0.875,57,42.26
1927,G#2,281.0,0.875,57,42.26
1928,C3,281.875,0.125,73,42.26
1929,E-3,281.875,0.125,73,42.26
1930,G#3,281.875,0.125,73,42.26
1931,F#2,281.875,0.125,62,42.26
1932,G#2,281.875,0.125,62,42.26
1933,F4,282.0,0.75,82,42.26
1934,G#4,282.0,0.75,86,42.26
1935,C#5,282.0,0.75,86,42.26
1936,G#5,282.0,0.75,86,42.26
1937,C#5,282.75,0.25,74,42.26
1938,F5,282.75,0.25,74,42.26
1939,G#5,282.75,0.25,74,42.26
1940,C#4,282.75,0.25,60,42.26
1941,F4,282.75,0.25,60,42.26
1942,G#5,283.0,0.25,87,42.26
1943,E-5,283.0,0.5,70,42.26
1944,C5,283.0,0.5,70,42.26
1945,E-4,283.0,0.5,65,42.26
1946,F#4,283.0,0.5,65,42.26
1947,F#5,283.25,0.25,68,42.26
1948,C#5,283.5,0.5,64,42.26
1949,F5,283.5,0.5,64,42.26
1950,F4,283.5,0.25,50,42.26
1951,G#4,283.5,0.25,50,42.26
1952,C#4,283.75,0.25,44,42.26
1953,F4,283.75,0.25,44,42.26
1954,F#4,284.0,1.0,42,42.26
1955,B-4,284.0,1.0,42,42.26
1956,E-5,284.0,1.0,42,42.26
1957,F#3,284.0,1.0,37,42.26
1958,B-3,284.0,1.0,37,42.26
1959,E-4,285.0,1.0,40,42.26
1960,G#4,285.0,1.0,40,42.26
1961,C4,285.0,1.0,34,42.26
1962,G#3,285.0,1.0,34,42.26
1963,B-2,286.0,2.0,27,42.26
1964,C#3,286.125,1.875,28,42.26
1965,E3,286.25,1.75,30,42.26
1966,G3,286.375,1.625,31,42.26
1967,B-3,286.5,1.5,34,42.26
1968,C#4,286.625,1.375,30,42.26
1969,E4,286.75,1.25,32,42.26
1970,G4,286.875,1.125,34,42.26
1971,C#5,287.0,1.0,38,42.26
1972,B-3,288.0,2.0,74,42.26
1973,C#4,288.125,1.875,79,42.26
1974,E4,288.25,1.75,82,42.26
1975,G4,288.375,1.625,86,42.26
1976,B-4,288.5,1.5,90,42.26
1977,C#6,288.5,1.5,90,42.26
1978,G5,288.5,1.5,90,42.26
1979,E5,288.5,1.5,90,42.26
1980,C#5,288.5,1.5,90,42.26
,note_name,start_time,duration,velocity,tempo
0,E4,0.0,1.485,97,139.29
1,C#5,0.0,1.485,97,139.29
2,B-2,0.0,1.485,78,139.29
3,G3,0.0,1.485,78,139.29
4,E4,1.5,0.496,90,139.29
5,C#5,1.5,0.496,90,139.29
6,G3,1.5,0.496,71,139.29
7,B-2,1.5,0.496,71,139.29
8,C#5,2.0,1.485,97,139.29
9,E4,2.0,1.485,97,139.29
10,B-2,2.0,1.485,78,139.29
11,G3,2.0,1.485,78,139.29
12,E4,3.5,0.496,90,139.29
13,C#5,3.5,0.496,90,139.29
14,G3,3.5,0.496,70,139.29
15,B-2,3.5,0.496,70,139.29
16,E4,4.0,0.744,97,139.29
17,C#5,4.0,0.744,97,139.29
18,B-2,4.0,0.744,78,139.29
19,G3,4.0,0.744,78,139.29
20,C#5,4.75,0.248,90,139.29
21,E4,4.75,0.248,90,139.29
22,G3,4.75,0.248,71,139.29
23,B-2,4.75,0.248,71,139.29
24,E4,5.0,0.744,97,139.29
25,C#5,5.0,0.744,97,139.29
26,B-2,5.0,0.744,78,139.29
27,G3,5.0,0.744,78,139.29
28,E4,5.75,0.248,88,139.29
29,C#5,5.75,0.248,88,139.29
30,B-2,5.75,0.248,70,139.29
31,G3,5.75,0.248,70,139.29
32,C#5,6.0,0.744,97,139.29
33,E4,6.0,0.744,97,139.29
34,G3,6.0,0.744,78,139.29
35,B-2,6.0,0.744,78,139.29
36,E4,6.75,0.248,90,139.29
37,C#5,6.75,0.248,90,139.29
38,B-2,6.75,0.248,70,139.29
39,G3,6.75,0.248,70,139.29
40,C#5,7.0,0.744,97,139.29
41,E4,7.0,0.744,97,139.29
42,G3,7.0,0.744,78,139.29
43,B-2,7.0,0.744,78,139.29
44,E4,7.75,0.248,90,139.29
45,C#5,7.75,0.248,90,139.29
46,B-2,7.75,0.248,70,139.29
47,G3,7.75,0.248,70,139.29
48,E4,8.0,1.0,97,139.29
49,C#5,8.0,1.0,97,139.29
50,G3,8.0,1.0,78,139.29
51,B-2,8.0,1.0,78,139.29
52,C#6,9.5,0.25,50,139.29
53,C6,9.75,0.25,50,139.29
54,B-5,10.0,0.25,54,139.29
55,C6,10.25,0.25,50,139.29
56,B-5,10.5,0.25,50,139.29
57,G#5,10.75,0.25,50,139.29
58,G5,11.0,0.25,54,139.29
59,G#5,11.25,0.25,50,139.29
60,G5,11.5,0.25,50,139.29
61,F5,11.75,0.25,50,139.29
62,E5,12.0,1.0,54,139.29
63,C#5,13.5,0.25,50,139.29
64,C5,13.75,0.25,50,139.29
65,B-4,14.0,0.25,53,139.29
66,C5,14.25,0.25,50,139.29
67,B-4,14.5,0.25,50,139.29
68,G#4,14.75,0.25,50,139.29
69,G4,15.0,0.25,53,139.29
70,G#4,15.25,0.25,50,139.29
71,G4,15.5,0.25,50,139.29
72,F4,15.75,0.25,50,139.29
73,E4,16.0,1.0,52,139.29
74,C#5,17.5,0.25,50,139.29
75,C5,17.75,0.25,50,139.29
76,B-4,18.0,0.25,51,139.29
77,C5,18.25,0.25,51,139.29
78,B-4,18.5,0.25,52,139.29
79,G#4,18.75,0.25,52,139.29
80,G4,19.0,0.25,53,139.29
81,G#4,19.25,0.25,54,139.29
82,G4,19.5,0.25,54,139.29
83,F4,19.75,0.25,55,139.29
84,E4,20.0,0.25,55,139.29
85,F4,20.25,0.25,56,139.29
86,E4,20.5,0.25,57,139.29
87,C#4,20.75,0.25,57,139.29
88,C4,21.0,0.25,58,139.29
89,C#4,21.25,0.25,61,139.29
90,C4,21.5,0.25,62,139.29
91,B3,21.75,0.25,63,139.29
92,B-3,22.0,0.25,64,139.29
93,C4,22.25,0.25,65,139.29
94,B-3,22.5,0.25,66,139.29
95,G#3,22.75,0.25,67,139.29
96,G3,23.0,0.25,68,139.29
97,G#3,23.25,0.25,69,139.29
98,G3,23.5,0.25,70,139.29
99,F3,23.75,0.25,71,139.29
100,E3,24.0,0.25,73,139.29
101,F3,24.25,0.25,71,139.29
102,E3,24.5,0.25,72,139.29
103,C#3,24.75,0.25,71,139.29
104,C3,25.0,0.271,75,139.29
105,C2,25.0,0.271,60,139.29
106,C#3,25.25,0.271,75,139.29
107,C#2,25.25,0.271,60,139.29
108,C3,25.5,0.271,75,139.29
109,C2,25.5,0.271,60,139.29
110,B2,25.75,0.271,75,139.29
111,B1,25.75,0.271,60,139.29
112,C3,26.0,0.271,75,139.29
113,C2,26.0,0.271,60,139.29
114,C#3,26.25,0.271,75,139.29
115,C#2,26.25,0.271,60,139.29
116,C3,26.5,0.271,75,139.29
117,C2,26.5,0.271,60,139.29
118,B2,26.75,0.271,75,139.29
119,B1,26.75,0.271,60,139.29
120,C3,27.0,0.271,75,139.29
121,C2,27.0,0.271,60,139.29
122,C#3,27.25,0.271,75,139.29
123,C#2,27.25,0.271,60,139.29
124,C3,27.5,0.271,75,139.29
125,C2,27.5,0.271,60,139.29
126,B2,27.75,0.271,75,139.29
127,B1,27.75,0.271,60,139.29
128,C3,28.0,0.271,75,139.29
129,C2,28.0,0.271,60,139.29
130,C#3,28.25,0.271,75,139.29
131,C#2,28.25,0.271,60,139.29
132,C3,28.5,0.271,75,139.29
133,C2,28.5,0.271,60,139.29
134,B2,28.75,0.271,75,139.29
135,B1,28.75,0.271,60,139.29
136,C3,29.0,0.271,75,139.29
137,C2,29.0,0.271,60,139.29
138,C#3,29.25,0.271,75,139.29
139,C#2,29.25,0.271,60,139.29
140,C3,29.5,0.271,75,139.29
141,C2,29.5,0.271,60,139.29
142,B2,29.75,0.271,75,139.29
143,B1,29.75,0.271,60,139.29
144,B-2,30.0,0.271,74,139.29
145,B-1,30.0,0.271,57,139.29
146,C3,30.25,0.271,74,139.29
147,C2,30.25,0.271,57,139.29
148,B-2,30.5,0.271,74,139.29
149,B-1,30.5,0.271,57,139.29
150,A2,30.75,0.271,74,139.29
151,A1,30.75,0.271,57,139.29
152,B-2,31.0,0.271,74,139.29
153,B-1,31.0,0.271,57,139.29
154,C3,31.25,0.271,74,139.29
155,C2,31.25,0.271,57,139.29
156,B-2,31.5,0.271,74,139.29
157,B-1,31.5,0.271,57,139.29
158,A2,31.75,0.271,74,139.29
159,A1,31.75,0.271,57,139.29
160,B-2,32.0,0.271,74,139.29
161,B-1,32.0,0.271,57,139.29
162,C3,32.25,0.271,74,139.29
163,C2,32.25,0.271,56,139.29
164,B-2,32.5,0.271,74,139.29
165,B-1,32.5,0.271,56,139.29
166,A2,32.75,0.271,74,139.29
167,A1,32.75,0.271,56,139.29
168,B-2,33.0,0.271,73,139.29
169,B-1,33.0,0.271,55,139.29
170,C3,33.25,0.271,73,139.29
171,C2,33.25,0.271,55,139.29
172,B-2,33.5,0.271,73,139.29
173,B-1,33.5,0.271,55,139.29
174,A2,33.75,0.271,73,139.29
175,A1,33.75,0.271,55,139.29
176,B-2,34.0,0.271,74,139.29
177,B-1,34.0,0.271,55,139.29
178,C3,34.25,0.271,72,139.29
179,C2,34.25,0.271,54,139.29
180,B-2,34.5,0.271,70,139.29
181,B-1,34.5,0.271,53,139.29
182,A2,34.75,0.271,68,139.29
183,A1,34.75,0.271,52,139.29
184,B-2,35.0,0.271,67,139.29
185,B-1,35.0,0.271,51,139.29
186,C3,35.25,0.271,65,139.29
187,C2,35.25,0.271,50,139.29
188,B-2,35.5,0.271,63,139.29
189,B-1,35.5,0.271,49,139.29
190,A2,35.75,0.271,61,139.29
191,A1,35.75,0.271,48,139.29
192,B-2,36.0,0.271,60,139.29
193,B-1,36.0,0.271,47,139.29
194,G2,36.25,0.271,58,139.29
195,G1,36.25,0.271,46,139.29
196,G#2,36.5,0.271,56,139.29
197,G#1,36.5,0.271,45,139.29
198,B-2,36.75,0.271,54,139.29
199,B-1,36.75,0.271,44,139.29
200,C3,37.0,0.271,53,139.29
201,C2,37.0,0.271,43,139.29
202,B-2,37.25,0.271,51,139.29
203,B-1,37.25,0.271,42,139.29
204,G#2,37.5,0.271,49,139.29
205,G#1,37.5,0.271,41,139.29
206,G2,37.75,0.271,47,139.29
207,G1,37.75,0.271,40,139.29
208,F1,38.0,1.0,39,139.29
209,C3,38.25,0.25,40,139.29
210,F3,38.5,0.25,37,139.29
211,G#3,38.75,0.25,37,139.29
212,C4,39.0,0.25,40,139.29
213,C#4,39.25,0.25,38,139.29
214,C4,39.5,0.25,38,139.29
215,B-3,39.75,0.25,38,139.29
216,G#3,40.0,0.25,40,139.29
217,B-3,40.25,0.25,37,139.29
218,G#3,40.5,0.25,37,139.29
219,G3,40.75,0.25,37,139.29
220,F3,41.0,0.25,40,139.29
221,G3,41.25,0.25,37,139.29
222,G#3,41.5,0.25,37,139.29
223,F3,41.75,0.25,37,139.29
224,F2,41.75,0.25,35,139.29
225,F1,42.0,1.0,40,139.29
226,C3,42.25,0.25,40,139.29
227,F3,42.5,0.25,37,139.29
228,G#3,42.75,0.25,37,139.29
229,C4,43.0,0.25,40,139.29
230,C#4,43.25,0.25,38,139.29
231,C4,43.5,0.25,38,139.29
232,B-3,43.75,0.25,38,139.29
233,G#3,44.0,0.25,40,139.29
234,B-3,44.25,0.25,37,139.29
235,G#3,44.5,0.25,37,139.29
236,G3,44.75,0.25,37,139.29
237,F3,45.0,0.25,40,139.29
238,G3,45.25,0.25,37,139.29
239,G#3,45.5,0.25,37,139.29
240,F3,45.75,0.25,37,139.29
241,F2,45.75,0.25,35,139.29
242,B-1,46.0,1.0,40,139.29
243,C#3,46.25,0.25,44,139.29
244,F#3,46.5,0.25,40,139.29
245,B-3,46.75,0.25,40,139.29
246,C#4,47.0,0.25,44,139.29
247,E-4,47.25,0.25,41,139.29
248,C#4,47.5,0.25,41,139.29
249,C4,47.75,0.25,41,139.29
250,B-3,48.0,0.25,44,139.29
251,C4,48.25,0.25,40,139.29
252,B-3,48.5,0.25,40,139.29
253,G#3,48.75,0.25,40,139.29
254,F#3,49.0,0.25,44,139.29
255,G#3,49.25,0.25,40,139.29
256,F#3,49.5,0.25,40,139.29
257,F3,49.75,0.25,40,139.29
258,C#2,49.75,0.25,36,139.29
259,E3,50.0,0.25,44,139.29
260,C2,50.0,0.5,40,139.29
261,F3,50.25,0.25,40,139.29
262,G3,50.5,0.25,40,139.29
263,E3,50.75,0.25,40,139.29
264,F3,51.0,0.25,44,139.29
265,C#2,51.0,0.5,38,139.29
266,G3,51.25,0.25,40,139.29
267,G#3,51.5,0.25,40,139.29
268,F3,51.75,0.25,40,139.29
269,G3,52.0,0.25,44,139.29
270,B-1,52.0,0.5,40,139.29
271,G#3,52.25,0.25,40,139.29
272,B-3,52.5,0.25,40,139.29
273,G3,52.75,0.25,40,139.29
274,E3,53.0,0.25,44,139.29
275,C2,53.0,0.5,37,139.29
276,F3,53.25,0.25,37,139.29
277,G3,53.5,0.25,38,139.29
278,E3,53.75,0.25,40,139.29
279,F3,54.0,0.25,44,139.29
280,F2,54.0,1.0,40,139.29
281,F1,54.0,1.0,40,139.29
282,C3,54.25,0.25,40,139.29
283,F3,54.5,0.25,37,139.29
284,G#3,54.75,0.25,37,139.29
285,C4,55.0,0.25,40,139.29
286,C#4,55.25,0.25,38,139.29
287,C4,55.5,0.25,38,139.29
288,B-3,55.75,0.25,38,139.29
289,C5,55.75,0.25,49,139.29
290,G#4,55.75,0.25,49,139.29
291,G#3,56.0,0.25,40,139.29
292,G#4,56.0,1.0,57,139.29
293,C5,56.0,1.0,57,139.29
294,B-3,56.25,0.25,37,139.29
295,G#3,56.5,0.25,37,139.29
296,G3,56.75,0.25,37,139.29
297,F3,57.0,0.25,40,139.29
298,G#4,57.0,0.5,30,139.29
299,F4,57.0,0.5,30,139.29
300,G3,57.25,0.25,37,139.29
301,G#3,57.5,0.25,37,139.29
302,F3,57.75,0.25,37,139.29
303,F2,58.0,1.0,40,139.29
304,F1,58.0,1.0,40,139.29
305,C3,58.25,0.25,40,139.29
306,F3,58.5,0.25,37,139.29
307,G#3,58.75,0.25,37,139.29
308,C4,59.0,0.25,40,139.29
309,C#4,59.25,0.25,38,139.29
310,C4,59.5,0.25,38,139.29
311,B-3,59.75,0.25,38,139.29
312,G#4,59.75,0.25,51,139.29
313,C5,59.75,0.25,51,139.29
314,G#3,60.0,0.25,40,139.29
315,C5,60.0,1.0,56,139.29
316,G#4,60.0,1.0,56,139.29
317,B-3,60.25,0.25,37,139.29
318,G#3,60.5,0.25,37,139.29
319,G3,60.75,0.25,37,139.29
320,F3,61.0,0.25,40,139.29
321,F4,61.0,0.5,30,139.29
322,G#4,61.0,0.5,30,139.29
323,G3,61.25,0.25,37,139.29
324,G#3,61.5,0.25,37,139.29
325,F3,61.75,0.25,37,139.29
326,B-1,62.0,1.0,40,139.29
327,B-2,62.0,1.0,40,139.29
328,C#3,62.25,0.25,44,139.29
329,F#3,62.5,0.25,40,139.29
330,B-3,62.75,0.25,40,139.29
331,C#4,63.0,0.25,44,139.29
332,E-4,63.25,0.25,41,139.29
333,C#4,63.5,0.25,41,139.29
334,C4,63.75,0.25,41,139.29
335,B-4,63.75,0.25,63,139.29
336,C#5,63.75,0.25,63,139.29
337,B-3,64.0,0.25,44,139.29
338,C#5,64.0,2.0,70,139.29
339,B-4,64.0,2.0,70,139.29
340,C4,64.25,0.25,40,139.29
341,B-3,64.5,0.25,40,139.29
342,G#3,64.75,0.25,40,139.29
343,F#3,65.0,0.25,44,139.29
344,G#3,65.25,0.25,40,139.29
345,F#3,65.5,0.25,40,139.29
346,F3,65.75,0.25,40,139.29
347,E3,66.0,0.25,44,139.29
348,B-4,66.0,0.5,51,139.29
349,C5,66.0,0.5,51,139.29
350,F3,66.25,0.25,40,139.29
351,G3,66.5,0.25,40,139.29
352,C3,66.5,0.5,43,139.29
353,C2,66.5,0.5,43,139.29
354,E3,66.75,0.25,40,139.29
355,F3,67.0,0.25,44,139.29
356,G3,67.25,0.25,40,139.29
357,G#3,67.5,0.25,40,139.29
358,C#2,67.5,0.5,37,139.29
359,C#3,67.5,0.5,37,139.29
360,F3,67.75,0.25,40,139.29
361,G3,68.0,0.25,44,139.29
362,G#3,68.25,0.25,40,139.29
363,B-3,68.5,0.25,40,139.29
364,B-1,68.5,0.5,39,139.29
365,B-2,68.5,0.5,39,139.29
366,G3,68.75,0.25,40,139.29
367,E3,69.0,0.25,44,139.29
368,F3,69.25,0.25,37,139.29
369,G3,69.5,0.25,38,139.29
370,C3,69.5,0.5,35,139.29
371,C2,69.5,0.5,35,139.29
372,E3,69.75,0.25,40,139.29
373,F3,70.0,0.25,37,139.29
374,F1,70.0,1.0,44,139.29
375,F2,70.0,1.0,44,139.29
376,C4,70.25,0.25,38,139.29
377,F4,70.5,0.25,40,139.29
378,G#4,70.75,0.25,42,139.29
379,C5,71.0,0.25,43,139.29
380,C4,71.25,0.25,45,139.29
381,F4,71.5,0.25,46,139.29
382,G#4,71.75,0.25,48,139.29
383,G#3,71.75,0.25,52,139.29
384,F3,71.75,0.25,52,139.29
385,F3,72.0,1.0,65,139.29
386,G#3,72.0,1.0,65,139.29
387,C4,72.25,0.25,46,139.29
388,F4,72.5,0.25,47,139.29
389,G#4,72.75,0.25,49,139.29
390,C5,73.0,0.25,50,139.29
391,C4,73.25,0.25,52,139.29
392,F4,73.5,0.25,53,139.29
393,G#4,73.75,0.25,38,139.29
394,G#3,73.75,0.25,54,139.29
395,F3,73.75,0.25,54,139.29
396,C3,74.0,2.0,66,139.29
397,G#3,74.0,2.0,66,139.29
398,F3,74.0,2.0,66,139.29
399,B3,74.25,0.25,51,139.29
400,D4,74.5,0.25,52,139.29
401,G#4,74.75,0.25,52,139.29
402,B4,75.0,1.0,54,139.29
403,B3,75.25,0.25,52,139.29
404,D4,75.5,0.25,52,139.29
405,G#4,75.75,0.25,52,139.29
406,B4,76.0,1.0,54,139.29
407,C3,76.0,0.5,48,139.29
408,E3,76.0,0.5,48,139.29
409,G3,76.0,0.5,48,139.29
410,B3,76.25,0.25,52,139.29
411,E4,76.5,0.25,50,139.29
412,G4,76.75,0.25,49,139.29
413,C5,77.0,1.0,52,139.29
414,C4,77.25,0.25,46,139.29
415,E4,77.5,0.25,44,139.29
416,G4,77.75,0.25,38,139.29
417,C2,78.0,1.0,42,139.29
418,C3,78.0,1.0,42,139.29
419,C4,78.25,0.25,38,139.29
420,E4,78.5,0.25,40,139.29
421,G4,78.75,0.25,42,139.29
422,C5,79.0,0.25,43,139.29
423,C4,79.25,0.25,45,139.29
424,E4,79.5,0.25,46,139.29
425,G4,79.75,0.25,48,139.29
426,B-3,79.75,0.25,60,139.29
427,G3,79.75,0.25,60,139.29
428,B-3,80.0,1.0,68,139.29
429,G3,80.0,1.0,68,139.29
430,C4,80.25,0.25,46,139.29
431,E4,80.5,0.25,47,139.29
432,G4,80.75,0.25,49,139.29
433,C5,81.0,0.25,50,139.29
434,C4,81.25,0.25,52,139.29
435,E4,81.5,0.25,53,139.29
436,G4,81.75,0.25,38,139.29
437,G3,81.75,0.25,61,139.29
438,B-3,81.75,0.25,61,139.29
439,F3,82.0,2.0,62,139.29
440,B-3,82.0,2.0,62,139.29
441,G3,82.0,2.0,62,139.29
442,C4,82.25,0.25,51,139.29
443,E4,82.5,0.25,52,139.29
444,G4,82.75,0.25,52,139.29
445,C5,83.0,1.0,54,139.29
446,C4,83.25,0.25,52,139.29
447,E4,83.5,0.25,52,139.29
448,G4,83.75,0.25,52,139.29
449,C5,84.0,1.0,53,139.29
450,G#3,84.0,0.5,50,139.29
451,F3,84.0,0.5,50,139.29
452,C4,84.25,0.25,52,139.29
453,E4,84.5,0.25,50,139.29
454,G4,84.75,0.25,49,139.29
455,C5,85.0,1.0,47,139.29
456,C4,85.25,0.25,46,139.29
457,F4,85.5,0.25,44,139.29
458,G#4,85.75,0.25,38,139.29
459,F2,86.0,1.0,45,139.29
460,F3,86.0,1.0,45,139.29
461,F4,86.25,0.25,38,139.29
462,A4,86.5,0.25,40,139.29
463,C5,86.75,0.25,42,139.29
464,F5,87.0,0.25,43,139.29
465,F4,87.25,0.25,45,139.29
466,A4,87.5,0.25,46,139.29
467,C5,87.75,0.25,48,139.29
468,C4,87.75,0.25,59,139.29
469,E-4,87.75,0.25,59,139.29
470,C4,88.0,1.0,68,139.29
471,E-4,88.0,1.0,68,139.29
472,F4,88.25,0.25,46,139.29
473,A4,88.5,0.25,47,139.29
474,C5,88.75,0.25,49,139.29
475,F5,89.0,0.25,50,139.29
476,F4,89.25,0.25,52,139.29
477,A4,89.5,0.25,53,139.29
478,C5,89.75,0.25,54,139.29
479,E-4,89.75,0.25,66,139.29
480,C4,89.75,0.25,66,139.29
481,C4,90.0,2.5,72,139.29
482,E-4,90.0,2.5,72,139.29
483,B-3,90.0,2.5,72,139.29
484,F4,90.25,0.25,50,139.29
485,A4,90.5,0.25,50,139.29
486,C5,90.75,0.25,50,139.29
487,F5,91.0,1.0,55,139.29
488,F4,91.25,0.25,53,139.29
489,A4,91.5,0.25,52,139.29
490,C5,91.75,0.25,52,139.29
491,F4,92.0,0.25,54,139.29
492,A4,92.0,0.25,54,139.29
493,F5,92.25,0.25,54,139.29
494,B-4,92.5,0.25,53,139.29
495,F4,92.5,0.25,53,139.29
496,B-3,92.5,0.5,64,139.29
497,C#4,92.5,0.5,64,139.29
498,F5,92.75,0.25,52,139.29
499,C5,93.0,0.25,52,139.29
500,F4,93.0,0.25,52,139.29
501,C4,93.0,0.5,61,139.29
502,G#3,93.0,0.5,61,139.29
503,F5,93.25,0.25,51,139.29
504,F4,93.5,0.25,50,139.29
505,C#5,93.5,0.25,50,139.29
506,G3,93.5,0.5,59,139.29
507,B-3,93.5,0.5,59,139.29
508,F5,93.75,0.25,50,139.29
509,F3,94.0,1.0,56,139.29
510,G#3,94.0,1.0,56,139.29
511,C3,94.0,1.0,56,139.29
512,C4,94.25,0.25,52,139.29
513,F4,94.5,0.25,49,139.29
514,G#4,94.75,0.25,50,139.29
515,C5,95.0,1.0,56,139.29
516,C4,95.25,0.25,50,139.29
517,F4,95.5,0.25,50,139.29
518,G#4,95.75,0.25,50,139.29
519,G#3,95.75,0.25,56,139.29
520,F3,95.75,0.25,56,139.29
521,C5,96.0,1.0,56,139.29
522,G3,96.0,1.0,63,139.29
523,B-3,96.0,1.0,63,139.29
524,C3,96.0,1.0,63,139.29
525,C4,96.25,0.25,52,139.29
526,G4,96.5,0.25,52,139.29
527,B-4,96.75,0.25,52,139.29
528,C5,97.0,1.0,56,139.29
529,C4,97.25,0.25,52,139.29
530,E4,97.5,0.25,52,139.29
531,G4,97.75,0.25,52,139.29
532,G3,97.75,0.25,53,139.29
533,E3,97.75,0.25,53,139.29
534,F3,98.0,0.25,56,139.29
535,C4,98.0,1.0,59,139.29
536,C5,98.0,1.0,59,139.29
537,F4,98.0,1.0,59,139.29
538,G#4,98.0,1.0,59,139.29
539,C4,98.25,0.25,49,139.29
540,G#3,98.5,0.25,49,139.29
541,F3,98.75,0.25,49,139.29
542,C3,99.0,0.25,53,139.29
543,G#3,99.25,0.25,49,139.29
544,F3,99.5,0.25,49,139.29
545,C3,99.75,0.25,49,139.29
546,G#5,99.75,0.25,69,139.29
547,F5,99.75,0.25,69,139.29
548,G#2,100.0,0.25,53,139.29
549,G#5,100.0,1.0,74,139.29
550,F5,100.0,1.0,74,139.29
551,F3,100.25,0.25,49,139.29
552,C3,100.5,0.25,49,139.29
553,G#2,100.75,0.25,49,139.29
554,F2,101.0,0.25,53,139.29
555,C3,101.25,0.25,49,139.29
556,G#2,101.5,0.25,49,139.29
557,F2,101.75,0.25,49,139.29
558,F5,101.75,0.25,70,139.29
559,G#5,101.75,0.25,70,139.29
560,C2,102.0,0.25,53,139.29
561,F5,102.0,2.0,75,139.29
562,G#5,102.0,2.0,75,139.29
563,F2,102.25,0.25,49,139.29
564,G#2,102.5,0.25,49,139.29
565,C3,102.75,0.25,49,139.29
566,B2,103.0,0.25,53,139.29
567,C3,103.25,0.25,49,139.29
568,B2,103.5,0.25,49,139.29
569,C3,103.75,0.25,49,139.29
570,B2,104.0,0.25,53,139.29
571,E5,104.0,0.5,68,139.29
572,G5,104.0,0.5,68,139.29
573,C3,104.25,0.25,49,139.29
574,G2,104.5,0.25,49,139.29
575,C3,104.75,0.25,49,139.29
576,E2,105.0,0.25,53,139.29
577,C3,105.25,0.25,49,139.29
578,G2,105.5,0.25,49,139.29
579,C3,105.75,0.25,49,139.29
580,C2,106.0,0.25,56,139.29
581,E2,106.25,0.25,49,139.29
582,G2,106.5,0.25,49,139.29
583,C3,106.75,0.25,49,139.29
584,E2,107.0,0.25,53,139.29
585,G2,107.25,0.25,49,139.29
586,C3,107.5,0.25,49,139.29
587,E3,107.75,0.25,49,139.29
588,B-5,107.75,0.25,69,139.29
589,G5,107.75,0.25,69,139.29
590,G2,108.0,0.25,53,139.29
591,B-5,108.0,1.0,74,139.29
592,G5,108.0,1.0,74,139.29
593,C3,108.25,0.25,49,139.29
594,E3,108.5,0.25,49,139.29
595,G3,108.75,0.25,49,139.29
596,C3,109.0,0.25,53,139.29
597,E3,109.25,0.25,49,139.29
598,G3,109.5,0.25,49,139.29
599,C4,109.75,0.25,49,139.29
600,G5,109.75,0.25,70,139.29
601,B-5,109.75,0.25,70,139.29
602,F3,110.0,0.25,59,139.29
603,B-5,110.0,2.0,75,139.29
604,G5,110.0,2.0,75,139.29
605,G#3,110.25,0.25,49,139.29
606,C4,110.5,0.25,49,139.29
607,F4,110.75,0.25,49,139.29
608,E4,111.0,0.25,53,139.29
609,F4,111.25,0.25,49,139.29
610,E4,111.5,0.25,49,139.29
611,F4,111.75,0.25,49,139.29
612,E4,112.0,0.25,53,139.29
613,G#5,112.0,0.5,68,139.29
614,F5,112.0,0.5,68,139.29
615,F4,112.25,0.25,49,139.29
616,C4,112.5,0.25,49,139.29
617,F4,112.75,0.25,49,139.29
618,G#3,113.0,0.25,53,139.29
619,F4,113.25,0.25,49,139.29
620,C4,113.5,0.25,49,139.29
621,F4,113.75,0.25,49,139.29
622,F3,114.0,0.25,61,139.29
623,A3,114.25,0.25,53,139.29
624,C4,114.5,0.25,53,139.29
625,F4,114.75,0.25,53,139.29
626,A3,115.0,0.25,58,139.29
627,C4,115.25,0.25,53,139.29
628,F4,115.5,0.25,53,139.29
629,A4,115.75,0.25,53,139.29
630,C6,115.75,0.25,82,139.29
631,E-6,115.75,0.25,82,139.29
632,C4,116.0,0.25,58,139.29
633,E-6,116.0,1.0,89,139.29
634,C6,116.0,1.0,89,139.29
635,F4,116.25,0.25,53,139.29
636,A4,116.5,0.25,53,139.29
637,C5,116.75,0.25,53,139.29
638,F4,117.0,0.25,58,139.29
639,A4,117.25,0.25,53,139.29
640,C5,117.5,0.25,53,139.29
641,F5,117.75,0.25,53,139.29
642,C6,117.75,0.25,84,139.29
643,E-6,117.75,0.25,84,139.29
644,A4,118.0,0.25,67,139.29
645,E-6,118.0,2.5,90,139.29
646,C6,118.0,2.5,90,139.29
647,F5,118.25,0.25,53,139.29
648,E5,118.5,0.25,53,139.29
649,F5,118.75,0.25,53,139.29
650,A4,119.0,0.25,58,139.29
651,F5,119.25,0.25,53,139.29
652,A4,119.5,0.25,53,139.29
653,F5,119.75,0.25,53,139.29
654,A4,120.0,0.25,57,139.29
655,F5,120.25,0.25,56,139.29
656,B-4,120.5,0.25,56,139.29
657,C#6,120.5,0.5,79,139.29
658,B-5,120.5,0.5,79,139.29
659,F5,120.75,0.25,55,139.29
660,C5,121.0,0.25,54,139.29
661,G#5,121.0,0.5,77,139.29
662,C6,121.0,0.5,77,139.29
663,F5,121.25,0.25,53,139.29
664,C#5,121.5,0.25,52,139.29
665,G5,121.5,0.5,73,139.29
666,B-5,121.5,0.5,73,139.29
667,F5,121.75,0.25,52,139.29
668,C4,122.0,0.25,52,139.29
669,F5,122.0,1.0,82,139.29
670,G#5,122.0,1.0,82,139.29
671,F4,122.25,0.25,47,139.29
672,G#4,122.5,0.25,47,139.29
673,C5,122.75,0.25,47,139.29
674,B4,123.0,0.25,52,139.29
675,C5,123.25,0.25,47,139.29
676,B4,123.5,0.25,47,139.29
677,C5,123.75,0.25,47,139.29
678,F5,123.75,0.25,79,139.29
679,F6,123.75,0.25,79,139.29
680,G#5,123.75,0.25,79,139.29
681,C4,124.0,0.25,52,139.29
682,G5,124.0,1.0,82,139.29
683,G6,124.0,1.0,82,139.29
684,B-5,124.0,1.0,82,139.29
685,E4,124.25,0.25,47,139.29
686,G4,124.5,0.25,47,139.29
687,C5,124.75,0.25,47,139.29
688,C4,125.0,0.25,52,139.29
689,G4,125.25,0.25,47,139.29
690,B-4,125.5,0.25,47,139.29
691,C5,125.75,0.25,47,139.29
692,E5,125.75,0.25,79,139.29
693,E6,125.75,0.25,79,139.29
694,G5,125.75,0.25,79,139.29
695,F3,126.0,0.25,52,139.29
696,F5,126.0,0.25,73,139.29
697,F6,126.0,0.25,73,139.29
698,G#5,126.0,0.25,73,139.29
699,C5,126.25,0.25,61,139.29
700,F4,126.25,0.25,38,139.29
701,G#4,126.25,0.25,38,139.29
702,F5,126.5,0.25,62,139.29
703,C4,126.5,0.25,39,139.29
704,C5,126.5,0.25,39,139.29
705,G#5,126.75,0.25,63,139.29
706,G#4,126.75,0.25,41,139.29
707,F4,126.75,0.25,41,139.29
708,C6,127.0,0.25,68,139.29
709,C5,127.0,0.25,45,139.29
710,C4,127.0,0.25,45,139.29
711,C#6,127.25,0.25,65,139.29
712,G#4,127.25,0.25,44,139.29
713,F4,127.25,0.25,44,139.29
714,C6,127.5,0.25,66,139.29
715,C5,127.5,0.25,45,139.29
716,C4,127.5,0.25,45,139.29
717,B-5,127.75,0.25,65,139.29
718,G#4,127.75,0.25,45,139.29
719,F4,127.75,0.25,45,139.29
720,G#5,128.0,0.25,68,139.29
721,C5,128.0,0.25,46,139.29
722,C4,128.0,0.25,46,139.29
723,B-5,128.25,0.25,67,139.29
724,G#4,128.25,0.25,46,139.29
725,F4,128.25,0.25,46,139.29
726,G#5,128.5,0.25,66,139.29
727,C5,128.5,0.25,45,139.29
728,C4,128.5,0.25,45,139.29
729,G5,128.75,0.25,65,139.29
730,G#4,128.75,0.25,45,139.29
731,F4,128.75,0.25,45,139.29
732,F5,129.0,0.25,64,139.29
733,C5,129.0,0.25,45,139.29
734,C4,129.0,0.25,45,139.29
735,G5,129.25,0.25,63,139.29
736,G#4,129.25,0.25,44,139.29
737,F4,129.25,0.25,44,139.29
738,G#5,129.5,0.25,63,139.29
739,C5,129.5,0.25,44,139.29
740,C4,129.5,0.25,44,139.29
741,F5,129.75,0.25,62,139.29
742,G#4,129.75,0.25,43,139.29
743,F4,129.75,0.25,43,139.29
744,F3,130.0,0.25,54,139.29
745,C5,130.25,0.25,61,139.29
746,G#4,130.25,0.25,38,139.29
747,F4,130.25,0.25,38,139.29
748,F5,130.5,0.25,62,139.29
749,C5,130.5,0.25,39,139.29
750,C4,130.5,0.25,39,139.29
751,G#5,130.75,0.25,63,139.29
752,G#4,130.75,0.25,41,139.29
753,F4,130.75,0.25,41,139.29
754,C6,131.0,0.25,68,139.29
755,C5,131.0,0.25,45,139.29
756,C4,131.0,0.25,45,139.29
757,C#6,131.25,0.25,65,139.29
758,G#4,131.25,0.25,44,139.29
759,F4,131.25,0.25,44,139.29
760,C6,131.5,0.25,66,139.29
761,C4,131.5,0.25,45,139.29
762,C5,131.5,0.25,45,139.29
763,B-5,131.75,0.25,65,139.29
764,F4,131.75,0.25,45,139.29
765,G#4,131.75,0.25,45,139.29
766,G#5,132.0,0.25,68,139.29
767,C5,132.0,0.25,46,139.29
768,C4,132.0,0.25,46,139.29
769,B-5,132.25,0.25,67,139.29
770,G#4,132.25,0.25,46,139.29
771,F4,132.25,0.25,46,139.29
772,G#5,132.5,0.25,66,139.29
773,C5,132.5,0.25,45,139.29
774,C4,132.5,0.25,45,139.29
775,G5,132.75,0.25,65,139.29
776,G#4,132.75,0.25,45,139.29
777,F4,132.75,0.25,45,139.29
778,F5,133.0,0.25,64,139.29
779,C5,133.0,0.25,45,139.29
780,C4,133.0,0.25,45,139.29
781,G5,133.25,0.25,63,139.29
782,G#4,133.25,0.25,44,139.29
783,F4,133.25,0.25,44,139.29
784,G#5,133.5,0.25,63,139.29
785,C5,133.5,0.25,44,139.29
786,C4,133.5,0.25,44,139.29
787,F5,133.75,0.25,62,139.29
788,G#4,133.75,0.25,43,139.29
789,F4,133.75,0.25,43,139.29
790,G2,134.0,0.25,55,139.29
791,F5,134.25,0.25,64,139.29
792,G3,134.25,0.25,40,139.29
793,F3,134.25,0.25,40,139.29
794,B5,134.5,0.25,65,139.29
795,B3,134.5,0.25,41,139.29
796,D3,134.5,0.25,41,139.29
797,D6,134.75,0.25,66,139.29
798,G3,134.75,0.25,43,139.29
799,F3,134.75,0.25,43,139.29
800,F6,135.0,0.25,72,139.29
801,B3,135.0,0.25,47,139.29
802,D3,135.0,0.25,47,139.29
803,G6,135.25,0.25,69,139.29
804,G3,135.25,0.25,46,139.29
805,F3,135.25,0.25,46,139.29
806,F6,135.5,0.25,70,139.29
807,D3,135.5,0.25,47,139.29
808,B3,135.5,0.25,47,139.29
809,E-6,135.75,0.25,69,139.29
810,F3,135.75,0.25,48,139.29
811,G3,135.75,0.25,48,139.29
812,D6,136.0,0.25,72,139.29
813,D3,136.0,0.25,49,139.29
814,B3,136.0,0.25,49,139.29
815,E-6,136.25,0.25,71,139.29
816,G#3,136.25,0.25,49,139.29
817,F3,136.25,0.25,49,139.29
818,D6,136.5,0.25,70,139.29
819,B3,136.5,0.25,48,139.29
820,D3,136.5,0.25,48,139.29
821,C6,136.75,0.25,69,139.29
822,G#3,136.75,0.25,47,139.29
823,F3,136.75,0.25,47,139.29
824,B5,137.0,0.25,68,139.29
825,D3,137.0,0.25,47,139.29
826,B3,137.0,0.25,47,139.29
827,C6,137.25,0.25,67,139.29
828,F3,137.25,0.25,46,139.29
829,G3,137.25,0.25,46,139.29
830,D6,137.5,0.25,66,139.29
831,D3,137.5,0.25,46,139.29
832,B3,137.5,0.25,46,139.29
833,B5,137.75,0.25,65,139.29
834,F3,137.75,0.25,45,139.29
835,G3,137.75,0.25,45,139.29
836,G2,138.0,0.25,54,139.29
837,F5,138.25,0.25,64,139.29
838,F3,138.25,0.25,40,139.29
839,G3,138.25,0.25,40,139.29
840,B5,138.5,0.25,65,139.29
841,D3,138.5,0.25,41,139.29
842,B3,138.5,0.25,41,139.29
843,D6,138.75,0.25,66,139.29
844,F3,138.75,0.25,43,139.29
845,G3,138.75,0.25,43,139.29
846,F6,139.0,0.25,72,139.29
847,D3,139.0,0.25,47,139.29
848,B3,139.0,0.25,47,139.29
849,G6,139.25,0.25,69,139.29
850,F3,139.25,0.25,46,139.29
851,G3,139.25,0.25,46,139.29
852,F6,139.5,0.25,70,139.29
853,D3,139.5,0.25,47,139.29
854,B3,139.5,0.25,47,139.29
855,E-6,139.75,0.25,69,139.29
856,G3,139.75,0.25,48,139.29
857,F3,139.75,0.25,48,139.29
858,D6,140.0,0.25,72,139.29
859,B3,140.0,0.25,49,139.29
860,D3,140.0,0.25,49,139.29
861,E-6,140.25,0.25,71,139.29
862,F3,140.25,0.25,49,139.29
863,G#3,140.25,0.25,49,139.29
864,D6,140.5,0.25,70,139.29
865,D3,140.5,0.25,48,139.29
866,B3,140.5,0.25,48,139.29
867,C6,140.75,0.25,69,139.29
868,F3,140.75,0.25,47,139.29
869,G#3,140.75,0.25,47,139.29
870,B5,141.0,0.25,68,139.29
871,D3,141.0,0.25,47,139.29
872,B3,141.0,0.25,47,139.29
873,C6,141.25,0.25,67,139.29
874,G3,141.25,0.25,46,139.29
875,F3,141.25,0.25,46,139.29
876,D6,141.5,0.25,66,139.29
877,B3,141.5,0.25,46,139.29
878,D3,141.5,0.25,46,139.29
879,B5,141.75,0.25,65,139.29
880,G3,141.75,0.25,45,139.29
881,F3,141.75,0.25,45,139.29
882,C3,142.0,0.25,56,139.29
883,G5,142.25,0.25,67,139.29
884,C4,142.25,0.25,42,139.29
885,E-4,142.25,0.25,42,139.29
886,C6,142.5,0.25,68,139.29
887,G3,142.5,0.25,43,139.29
888,G4,142.5,0.25,43,139.29
889,E-6,142.75,0.25,69,139.29
890,E-4,142.75,0.25,45,139.29
891,C4,142.75,0.25,45,139.29
892,G6,143.0,0.25,75,139.29
893,G4,143.0,0.25,49,139.29
894,G3,143.0,0.25,49,139.29
895,G#6,143.25,0.25,72,139.29
896,E-4,143.25,0.25,48,139.29
897,C4,143.25,0.25,48,139.29
898,G6,143.5,0.25,73,139.29
899,G4,143.5,0.25,49,139.29
900,G3,143.5,0.25,49,139.29
901,F6,143.75,0.25,72,139.29
902,E-4,143.75,0.25,50,139.29
903,C4,143.75,0.25,50,139.29
904,E-6,144.0,0.25,75,139.29
905,G4,144.0,0.25,51,139.29
906,G3,144.0,0.25,51,139.29
907,F6,144.25,0.25,74,139.29
908,E-4,144.25,0.25,51,139.29
909,C4,144.25,0.25,51,139.29
910,E-6,144.5,0.25,73,139.29
911,G4,144.5,0.25,50,139.29
912,G3,144.5,0.25,50,139.29
913,D6,144.75,0.25,72,139.29
914,C4,144.75,0.25,49,139.29
915,E-4,144.75,0.25,49,139.29
916,C6,145.0,0.25,71,139.29
917,G3,145.0,0.25,49,139.29
918,G4,145.0,0.25,49,139.29
919,D6,145.25,0.25,70,139.29
920,E-4,145.25,0.25,48,139.29
921,C4,145.25,0.25,48,139.29
922,E-6,145.5,0.25,69,139.29
923,G4,145.5,0.25,48,139.29
924,G3,145.5,0.25,48,139.29
925,C6,145.75,0.25,68,139.29
926,E-4,145.75,0.25,47,139.29
927,C4,145.75,0.25,47,139.29
928,C3,146.0,0.5,56,139.29
929,G5,146.25,0.25,67,139.29
930,C6,146.5,0.25,68,139.29
931,G4,146.5,0.25,43,139.29
932,E-6,146.75,0.25,69,139.29
933,E-4,146.75,0.25,45,139.29
934,G6,147.0,0.25,76,139.29
935,C5,147.0,0.25,49,139.29
936,G#6,147.25,0.25,74,139.29
937,G4,147.25,0.25,49,139.29
938,G6,147.5,0.25,75,139.29
939,C5,147.5,0.25,50,139.29
940,F6,147.75,0.25,74,139.29
941,G4,147.75,0.25,52,139.29
942,E-6,148.0,0.25,78,139.29
943,E-5,148.0,0.25,53,139.29
944,F6,148.25,0.25,77,139.29
945,C5,148.25,0.25,53,139.29
946,E-6,148.5,0.25,77,139.29
947,E-5,148.5,0.25,53,139.29
948,D6,148.75,0.25,76,139.29
949,C5,148.75,0.25,51,139.29
950,C6,149.0,0.25,75,139.29
951,G5,149.0,0.25,52,139.29
952,D6,149.25,0.25,75,139.29
953,E-5,149.25,0.25,51,139.29
954,E-6,149.5,0.25,74,139.29
955,G5,149.5,0.25,51,139.29
956,C6,149.75,0.25,74,139.29
957,E-5,149.75,0.25,51,139.29
958,F5,150.0,1.5,80,139.29
959,G#5,150.0,1.5,80,139.29
960,C#6,150.25,0.25,70,139.29
961,E-6,150.5,0.25,73,139.29
962,C#6,150.75,0.25,70,139.29
963,E-6,151.0,0.25,65,139.29
964,C#6,151.25,0.25,63,139.29
965,C6,151.5,0.25,59,139.29
966,G5,151.5,0.5,66,139.29
967,E-5,151.5,0.5,66,139.29
968,C#6,151.75,0.25,59,139.29
969,D5,152.0,1.0,68,139.29
970,F5,152.0,1.0,68,139.29
971,B5,152.25,0.25,58,139.29
972,C6,152.5,0.25,60,139.29
973,B5,152.75,0.25,57,139.29
974,E-5,153.0,1.0,64,139.29
975,G5,153.0,1.0,64,139.29
976,C6,153.25,0.25,57,139.29
977,D6,153.5,0.25,60,139.29
978,C6,153.75,0.25,56,139.29
979,G#5,154.0,1.5,80,139.29
980,F5,154.0,1.5,80,139.29
981,C#6,154.25,0.25,70,139.29
982,E-6,154.5,0.25,73,139.29
983,C#6,154.75,0.25,70,139.29
984,E-6,155.0,0.25,65,139.29
985,C#6,155.25,0.25,63,139.29
986,C6,155.5,0.25,59,139.29
987,G5,155.5,0.5,66,139.29
988,E-5,155.5,0.5,66,139.29
989,C#6,155.75,0.25,59,139.29
990,F5,156.0,1.0,68,139.29
991,D5,156.0,1.0,68,139.29
992,B5,156.25,0.25,58,139.29
993,C6,156.5,0.25,60,139.29
994,B5,156.75,0.25,57,139.29
995,G5,157.0,1.0,64,139.29
996,E-5,157.0,1.0,64,139.29
997,C6,157.25,0.25,57,139.29
998,D6,157.5,0.25,60,139.29
999,C6,157.75,0.25,56,139.29
1000,F5,158.0,1.5,80,139.29
1001,G#5,158.0,1.5,80,139.29
1002,C#6,158.25,0.25,70,139.29
1003,E-6,158.5,0.25,73,139.29
1004,C#6,158.75,0.25,70,139.29
1005,E-6,159.0,0.25,73,139.29
1006,C#6,159.25,0.25,70,139.29
1007,C6,159.5,0.25,59,139.29
1008,G5,159.5,0.5,66,139.29
1009,E-5,159.5,0.5,66,139.29
1010,D6,159.75,0.25,59,139.29
1011,D5,160.0,1.0,68,139.29
1012,F5,160.0,1.0,68,139.29
1013,B5,160.25,0.25,58,139.29
1014,C6,160.5,0.25,60,139.29
1015,B5,160.75,0.25,58,139.29
1016,C5,161.0,1.0,65,139.29
1017,E-5,161.0,1.0,65,139.29
1018,G#5,161.25,0.25,58,139.29
1019,B-5,161.5,0.25,61,139.29
1020,G#5,161.75,0.25,57,139.29
1021,B4,162.0,1.0,70,139.29
1022,D5,162.0,1.0,70,139.29
1023,G5,162.25,0.25,60,139.29
1024,G#5,162.5,0.25,62,139.29
1025,G5,162.75,0.25,60,139.29
1026,C5,163.0,1.0,70,139.29
1027,A4,163.0,1.0,70,139.29
1028,F#5,163.25,0.25,61,139.29
1029,G5,163.5,0.25,65,139.29
1030,F#5,163.75,0.25,62,139.29
1031,C5,164.0,1.0,75,139.29
1032,G#4,164.0,1.0,75,139.29
1033,F5,164.25,0.25,65,139.29
1034,G5,164.5,0.25,67,139.29
1035,F5,164.75,0.25,64,139.29
1036,C5,165.0,1.0,75,139.29
1037,G4,165.0,1.0,75,139.29
1038,E-5,165.25,0.25,66,139.29
1039,F5,165.5,0.25,69,139.29
1040,E-5,165.75,0.25,67,139.29
1041,F#4,166.0,2.0,76,139.29
1042,E-5,166.25,0.25,67,139.29
1043,F5,166.5,0.25,70,139.29
1044,E-5,166.75,0.25,68,139.29
1045,G#4,167.0,1.0,75,139.29
1046,D5,167.25,0.25,66,139.29
1047,E-5,167.5,0.25,69,139.29
1048,D5,167.75,0.25,64,139.29
1049,E-4,168.0,1.0,72,139.29
1050,G3,168.0,2.0,72,139.29
1051,G4,168.0,2.0,72,139.29
1052,C5,168.25,0.25,64,139.29
1053,D5,168.5,0.25,65,139.29
1054,C5,168.75,0.25,62,139.29
1055,D4,169.0,1.0,68,139.29
1056,B4,169.25,0.25,60,139.29
1057,C5,169.5,0.25,62,139.29
1058,B4,169.75,0.25,57,139.29
1059,F3,170.0,1.5,65,139.29
1060,C#4,170.0,1.5,65,139.29
1061,G#3,170.0,1.5,65,139.29
1062,G#4,170.25,0.25,66,139.29
1063,G#5,170.5,0.25,73,139.29
1064,G#4,170.75,0.25,59,139.29
1065,G#5,171.0,0.25,71,139.29
1066,G#4,171.25,0.25,58,139.29
1067,G#5,171.5,0.25,63,139.29
1068,G3,171.5,0.5,53,139.29
1069,C4,171.5,0.5,53,139.29
1070,E-3,171.5,0.5,53,139.29
1071,G#4,171.75,0.25,59,139.29
1072,D3,172.0,1.0,56,139.29
1073,F3,172.0,1.0,56,139.29
1074,B3,172.0,1.0,56,139.29
1075,G#4,172.25,0.25,60,139.29
1076,G#5,172.5,0.25,71,139.29
1077,G5,172.75,0.25,66,139.29
1078,F5,173.0,0.25,68,139.29
1079,G3,173.0,1.0,51,139.29
1080,C4,173.0,1.0,51,139.29
1081,E-3,173.0,1.0,51,139.29
1082,E-5,173.25,0.25,66,139.29
1083,D5,173.5,0.25,65,139.29
1084,C5,173.75,0.25,58,139.29
1085,F3,174.0,1.5,65,139.29
1086,C#4,174.0,1.5,65,139.29
1087,G#3,174.0,1.5,65,139.29
1088,G#5,174.25,0.25,68,139.29
1089,G#6,174.5,0.25,75,139.29
1090,G#5,174.75,0.25,67,139.29
1091,G#6,175.0,0.25,74,139.29
1092,G#5,175.25,0.25,67,139.29
1093,G#6,175.5,0.25,69,139.29
1094,G3,175.5,0.5,53,139.29
1095,C4,175.5,0.5,53,139.29
1096,E-3,175.5,0.5,53,139.29
1097,G#5,175.75,0.25,60,139.29
1098,D3,176.0,1.0,54,139.29
1099,B3,176.0,1.0,54,139.29
1100,F3,176.0,1.0,54,139.29
1101,G#5,176.25,0.25,61,139.29
1102,G#6,176.5,0.25,73,139.29
1103,G6,176.75,0.25,66,139.29
1104,F6,177.0,0.25,70,139.29
1105,E-3,177.0,1.0,51,139.29
1106,G3,177.0,1.0,51,139.29
1107,C4,177.0,1.0,51,139.29
1108,E-6,177.25,0.25,68,139.29
1109,D6,177.5,0.25,67,139.29
1110,C6,177.75,0.25,65,139.29
1111,C#4,178.0,1.5,65,139.29
1112,G#3,178.0,1.5,65,139.29
1113,F3,178.0,1.5,65,139.29
1114,G#4,178.25,0.25,66,139.29
1115,G#5,178.5,0.25,73,139.29
1116,G#4,178.75,0.25,66,139.29
1117,G#5,179.0,0.25,73,139.29
1118,G#4,179.25,0.25,66,139.29
1119,G#5,179.5,0.25,68,139.29
1120,C4,179.5,0.5,53,139.29
1121,E-3,179.5,0.5,53,139.29
1122,G3,179.5,0.5,53,139.29
1123,G#4,179.75,0.25,61,139.29
1124,D3,180.0,1.0,54,139.29
1125,B3,180.0,1.0,54,139.29
1126,F3,180.0,1.0,54,139.29
1127,G#5,180.25,0.25,68,139.29
1128,G#4,180.5,0.25,60,139.29
1129,G#5,180.75,0.25,68,139.29
1130,G#3,181.0,1.0,52,139.29
1131,E-3,181.0,1.0,52,139.29
1132,C3,181.0,1.0,52,139.29
1133,G#6,181.25,0.25,78,139.29
1134,G#5,181.5,0.25,69,139.29
1135,G#6,181.75,0.25,75,139.29
1136,G3,182.0,1.0,60,139.29
1137,B2,182.0,1.0,60,139.29
1138,D3,182.0,1.0,60,139.29
1139,G6,182.25,0.25,78,139.29
1140,G5,182.5,0.25,71,139.29
1141,G6,182.75,0.25,74,139.29
1142,F#3,183.0,1.0,58,139.29
1143,E-3,183.0,1.0,58,139.29
1144,C3,183.0,1.0,58,139.29
1145,A2,183.0,1.0,58,139.29
1146,F#6,183.25,0.25,75,139.29
1147,F#5,183.5,0.25,71,139.29
1148,F#6,183.75,0.25,74,139.29
1149,D3,184.0,1.0,60,139.29
1150,B2,184.0,1.0,60,139.29
1151,F3,184.0,1.0,60,139.29
1152,F6,184.25,0.25,78,139.29
1153,F5,184.5,0.25,69,139.29
1154,F6,184.75,0.25,74,139.29
1155,E-3,185.0,1.0,62,139.29
1156,C3,185.0,1.0,62,139.29
1157,E-6,185.25,0.25,77,139.29
1158,G5,185.5,0.25,71,139.29
1159,E-5,185.5,0.25,71,139.29
1160,E-6,185.75,0.25,75,139.29
1161,E-3,186.0,1.0,66,139.29
1162,F#2,186.0,2.0,56,139.29
1163,A2,186.0,2.0,56,139.29
1164,E-6,186.25,0.25,75,139.29
1165,A5,186.5,0.25,68,139.29
1166,E-5,186.5,0.25,68,139.29
1167,E-6,186.75,0.25,75,139.29
1168,D3,187.0,1.0,64,139.29
1169,D6,187.25,0.25,73,139.29
1170,A5,187.5,0.25,66,139.29
1171,D5,187.5,0.25,66,139.29
1172,D6,187.75,0.25,73,139.29
1173,C3,188.0,1.0,61,139.29
1174,G2,188.0,2.0,61,139.29
1175,C6,188.25,0.25,71,139.29
1176,E-5,188.5,0.25,66,139.29
1177,C5,188.5,0.25,66,139.29
1178,C6,188.75,0.25,71,139.29
1179,B2,189.0,1.0,59,139.29
1180,B5,189.25,0.25,69,139.29
1181,B4,189.5,0.25,62,139.29
1182,D5,189.5,0.25,62,139.29
1183,B5,189.75,0.25,64,139.29
1184,G5,190.0,0.25,68,139.29
1185,C6,190.0,0.25,68,139.29
1186,E-5,190.0,0.25,68,139.29
1187,C5,190.0,0.25,68,139.29
1188,C2,190.0,0.5,62,139.29
1189,G2,190.0,0.5,62,139.29
1190,C3,190.0,0.5,62,139.29
1191,E-2,190.0,0.5,62,139.29
1192,G4,190.25,0.25,74,139.29
1193,C5,190.5,0.25,76,139.29
1194,E-5,190.75,0.25,78,139.29
1195,G5,191.0,0.25,80,139.29
1196,G#5,191.25,0.25,76,139.29
1197,G3,191.25,0.25,59,139.29
1198,G5,191.5,0.25,76,139.29
1199,C4,191.5,0.25,62,139.29
1200,F5,191.75,0.25,76,139.29
1201,E-4,191.75,0.25,64,139.29
1202,E-5,192.0,0.25,77,139.29
1203,G4,192.0,0.25,70,139.29
1204,F5,192.25,0.25,71,139.29
1205,G#4,192.25,0.25,64,139.29
1206,E-5,192.5,0.25,72,139.29
1207,G4,192.5,0.25,64,139.29
1208,D5,192.75,0.25,72,139.29
1209,F4,192.75,0.25,64,139.29
1210,C5,193.0,0.25,78,139.29
1211,E-4,193.0,0.25,70,139.29
1212,B-4,193.25,0.25,73,139.29
1213,D4,193.25,0.25,63,139.29
1214,G#4,193.5,0.25,73,139.29
1215,C4,193.5,0.25,63,139.29
1216,G4,193.75,0.25,72,139.29
1217,B-3,193.75,0.25,63,139.29
1218,F4,194.0,0.25,75,139.29
1219,G#3,194.0,0.25,67,139.29
1220,E-4,194.25,0.25,70,139.29
1221,G3,194.25,0.25,60,139.29
1222,D4,194.5,0.25,70,139.29
1223,F3,194.5,0.25,60,139.29
1224,C4,194.75,0.25,70,139.29
1225,E-3,194.75,0.25,60,139.29
1226,B3,195.0,0.5,73,139.29
1227,D3,195.0,0.25,71,139.29
1228,E-3,195.25,0.25,65,139.29
1229,F3,195.5,0.25,73,139.29
1230,D4,195.5,0.375,72,139.29
1231,G3,195.5,0.375,72,139.29
1232,B3,195.5,0.375,72,139.29
1233,G4,195.5,0.375,72,139.29
1234,E-3,195.75,0.25,69,139.29
1235,D3,196.0,0.25,73,139.29
1236,B3,196.0,0.375,67,139.29
1237,F4,196.0,0.375,67,139.29
1238,G3,196.0,0.375,67,139.29
1239,G4,196.0,0.375,67,139.29
1240,C3,196.25,0.25,73,139.29
1241,B2,196.5,0.25,72,139.29
1242,B3,196.5,0.375,66,139.29
1243,G3,196.5,0.375,66,139.29
1244,F4,196.5,0.375,66,139.29
1245,G4,196.5,0.375,66,139.29
1246,G#2,196.75,0.25,72,139.29
1247,G2,197.0,0.25,71,139.29
1248,G3,197.0,0.375,66,139.29
1249,G4,197.0,0.375,66,139.29
1250,B3,197.0,0.375,66,139.29
1251,F4,197.0,0.375,66,139.29
1252,F2,197.25,0.25,71,139.29
1253,E-2,197.5,0.25,70,139.29
1254,F4,197.5,0.375,66,139.29
1255,G4,197.5,0.375,66,139.29
1256,G3,197.5,0.375,66,139.29
1257,B3,197.5,0.375,66,139.29
1258,D2,197.75,0.25,70,139.29
1259,E-4,198.0,0.25,77,139.29
1260,G3,198.0,0.25,77,139.29
1261,C4,198.0,0.25,77,139.29
1262,G4,198.0,0.25,77,139.29
1263,C2,198.0,0.5,70,139.29
1264,G2,198.0,0.5,70,139.29
1265,C3,198.0,0.5,70,139.29
1266,E-2,198.0,0.5,70,139.29
1267,G5,198.25,0.25,74,139.29
1268,C6,198.5,0.25,76,139.29
1269,E-6,198.75,0.25,78,139.29
1270,G6,199.0,0.25,80,139.29
1271,G#6,199.25,0.25,76,139.29
1272,G4,199.25,0.25,59,139.29
1273,G6,199.5,0.25,76,139.29
1274,C5,199.5,0.25,62,139.29
1275,F6,199.75,0.25,76,139.29
1276,E-5,199.75,0.25,64,139.29
1277,E-6,200.0,0.25,77,139.29
1278,G5,200.0,0.25,70,139.29
1279,F6,200.25,0.25,71,139.29
1280,G#5,200.25,0.25,64,139.29
1281,E-6,200.5,0.25,72,139.29
1282,G5,200.5,0.25,64,139.29
1283,D6,200.75,0.25,72,139.29
1284,F5,200.75,0.25,64,139.29
1285,C6,201.0,0.25,78,139.29
1286,E-5,201.0,0.25,70,139.29
1287,B-5,201.25,0.25,73,139.29
1288,D5,201.25,0.25,63,139.29
1289,G#5,201.5,0.25,73,139.29
1290,C5,201.5,0.25,63,139.29
1291,G5,201.75,0.25,72,139.29
1292,B-4,201.75,0.25,63,139.29
1293,F5,202.0,0.25,75,139.29
1294,G#4,202.0,0.25,67,139.29
1295,E-5,202.25,0.25,70,139.29
1296,G4,202.25,0.25,60,139.29
1297,D5,202.5,0.25,70,139.29
1298,F4,202.5,0.25,60,139.29
1299,C5,202.75,0.25,70,139.29
1300,E-4,202.75,0.25,60,139.29
1301,B4,203.0,0.5,73,139.29
1302,D4,203.0,0.25,71,139.29
1303,E-4,203.25,0.25,65,139.29
1304,F4,203.5,0.25,73,139.29
1305,B4,203.5,0.375,70,139.29
1306,G5,203.5,0.375,70,139.29
1307,D5,203.5,0.375,70,139.29
1308,G4,203.5,0.375,70,139.29
1309,E-4,203.75,0.25,69,139.29
1310,D4,204.0,0.25,73,139.29
1311,G4,204.0,0.375,64,139.29
1312,G5,204.0,0.375,64,139.29
1313,B4,204.0,0.375,64,139.29
1314,F5,204.0,0.375,64,139.29
1315,C4,204.25,0.25,73,139.29
1316,B3,204.5,0.25,72,139.29
1317,F5,204.5,0.375,62,139.29
1318,G4,204.5,0.375,62,139.29
1319,B4,204.5,0.375,62,139.29
1320,G5,204.5,0.375,62,139.29
1321,G#3,204.75,0.25,72,139.29
1322,G3,205.0,0.25,71,139.29
1323,B4,205.0,0.375,64,139.29
1324,F5,205.0,0.375,64,139.29
1325,G4,205.0,0.375,64,139.29
1326,G5,205.0,0.375,64,139.29
1327,F3,205.25,0.25,71,139.29
1328,E-3,205.5,0.25,70,139.29
1329,B4,205.5,0.375,63,139.29
1330,G4,205.5,0.375,63,139.29
1331,F5,205.5,0.375,63,139.29
1332,G5,205.5,0.375,63,139.29
1333,D3,205.75,0.25,70,139.29
1334,C3,206.0,0.25,67,139.29
1335,G4,206.0,0.5,64,139.29
1336,G5,206.0,0.5,64,139.29
1337,C5,206.0,0.5,64,139.29
1338,E-5,206.0,0.5,64,139.29
1339,D3,206.25,0.25,60,139.29
1340,E-3,206.5,0.25,60,139.29
1341,F3,206.75,0.25,60,139.29
1342,G3,207.0,0.25,71,139.29
1343,A3,207.25,0.25,65,139.29
1344,B3,207.5,0.25,73,139.29
1345,E-6,207.5,0.375,70,139.29
1346,G6,207.5,0.375,70,139.29
1347,G5,207.5,0.375,70,139.29
1348,C6,207.5,0.375,70,139.29
1349,C4,207.75,0.25,69,139.29
1350,D4,208.0,0.25,73,139.29
1351,F6,208.0,0.375,64,139.29
1352,G5,208.0,0.375,64,139.29
1353,B5,208.0,0.375,64,139.29
1354,G6,208.0,0.375,64,139.29
1355,C4,208.25,0.25,73,139.29
1356,B3,208.5,0.25,72,139.29
1357,B5,208.5,0.375,62,139.29
1358,G6,208.5,0.375,62,139.29
1359,F6,208.5,0.375,62,139.29
1360,G5,208.5,0.375,62,139.29
1361,G#3,208.75,0.25,72,139.29
1362,G3,209.0,0.25,71,139.29
1363,G5,209.0,0.375,64,139.29
1364,G6,209.0,0.375,64,139.29
1365,F6,209.0,0.375,64,139.29
1366,B5,209.0,0.375,64,139.29
1367,F3,209.25,0.25,71,139.29
1368,E-3,209.5,0.25,70,139.29
1369,B5,209.5,0.375,63,139.29
1370,G6,209.5,0.375,63,139.29
1371,F6,209.5,0.375,63,139.29
1372,G5,209.5,0.375,63,139.29
1373,D3,209.75,0.25,70,139.29
1374,C3,210.0,0.25,67,139.29
1375,G5,210.0,0.375,64,139.29
1376,G6,210.0,0.375,64,139.29
1377,C6,210.0,0.375,64,139.29
1378,E-6,210.0,0.375,64,139.29
1379,D3,210.25,0.25,60,139.29
1380,E-3,210.5,0.25,60,139.29
1381,F3,210.75,0.25,60,139.29
1382,G3,211.0,0.25,71,139.29
1383,A3,211.25,0.25,65,139.29
1384,B3,211.5,0.25,73,139.29
1385,E-5,211.5,0.375,70,139.29
1386,G4,211.5,0.375,70,139.29
1387,C5,211.5,0.375,70,139.29
1388,G5,211.5,0.375,70,139.29
1389,C4,211.75,0.25,69,139.29
1390,D4,212.0,0.25,73,139.29
1391,B4,212.0,0.375,64,139.29
1392,F5,212.0,0.375,64,139.29
1393,G4,212.0,0.375,64,139.29
1394,G5,212.0,0.375,64,139.29
1395,C4,212.25,0.25,73,139.29
1396,B3,212.5,0.25,72,139.29
1397,B4,212.5,0.375,62,139.29
1398,G4,212.5,0.375,62,139.29
1399,F5,212.5,0.375,62,139.29
1400,G5,212.5,0.375,62,139.29
1401,G#3,212.75,0.25,72,139.29
1402,G3,213.0,0.25,71,139.29
1403,G4,213.0,0.375,64,139.29
1404,G5,213.0,0.375,64,139.29
1405,B4,213.0,0.375,64,139.29
1406,F5,213.0,0.375,64,139.29
1407,F3,213.25,0.25,71,139.29
1408,E-3,213.5,0.25,70,139.29
1409,F5,213.5,0.375,63,139.29
1410,G5,213.5,0.375,63,139.29
1411,G4,213.5,0.375,63,139.29
1412,B4,213.5,0.375,63,139.29
1413,D3,213.75,0.25,70,139.29
1414,C3,214.0,0.25,67,139.29
1415,E-5,214.0,0.375,62,139.29
1416,G4,214.0,0.375,62,139.29
1417,C5,214.0,0.375,62,139.29
1418,G5,214.0,0.375,62,139.29
1419,D3,214.25,0.25,60,139.29
1420,E-3,214.5,0.25,60,139.29
1421,F3,214.75,0.25,60,139.29
1422,G3,215.0,0.25,71,139.29
1423,A3,215.25,0.25,65,139.29
1424,B3,215.5,0.25,73,139.29
1425,E-5,215.5,0.375,70,139.29
1426,C6,215.5,0.375,70,139.29
1427,G5,215.5,0.375,70,139.29
1428,C5,215.5,0.375,70,139.29
1429,C4,215.75,0.25,69,139.29
1430,B-3,216.0,0.25,73,139.29
1431,C5,216.0,0.375,62,139.29
1432,C6,216.0,0.375,62,139.29
1433,E5,216.0,0.375,62,139.29
1434,G5,216.0,0.375,62,139.29
1435,G#3,216.25,0.25,73,139.29
1436,G3,216.5,0.25,72,139.29
1437,C5,216.5,0.375,60,139.29
1438,C6,216.5,0.375,60,139.29
1439,E5,216.5,0.375,60,139.29
1440,G5,216.5,0.375,60,139.29
1441,F3,216.75,0.25,72,139.29
1442,E3,217.0,0.25,71,139.29
1443,G5,217.0,0.375,62,139.29
1444,C6,217.0,0.375,62,139.29
1445,E5,217.0,0.375,62,139.29
1446,C5,217.0,0.375,62,139.29
1447,D3,217.25,0.25,71,139.29
1448,C3,217.5,0.25,70,139.29
1449,E5,217.5,0.375,60,139.29
1450,C5,217.5,0.375,60,139.29
1451,C6,217.5,0.375,60,139.29
1452,G5,217.5,0.375,60,139.29
1453,B-2,217.75,0.25,70,139.29
1454,G#2,218.0,0.25,67,139.29
1455,F5,218.0,0.375,62,139.29
1456,C6,218.0,0.375,62,139.29
1457,G#5,218.0,0.375,62,139.29
1458,C5,218.0,0.375,62,139.29
1459,B-2,218.25,0.25,60,139.29
1460,C3,218.5,0.25,60,139.29
1461,D3,218.75,0.25,60,139.29
1462,E3,219.0,0.25,71,139.29
1463,F3,219.25,0.25,65,139.29
1464,G3,219.5,0.25,73,139.29
1465,C4,219.5,0.5,70,139.29
1466,C5,219.5,0.5,70,139.29
1467,F4,219.5,0.5,70,139.29
1468,G#4,219.5,0.5,70,139.29
1469,G#3,219.75,0.25,69,139.29
1470,G3,220.0,0.25,73,139.29
1471,B-4,220.0,0.5,64,139.29
1472,C4,220.0,0.5,64,139.29
1473,E4,220.0,0.5,64,139.29
1474,C5,220.0,0.5,64,139.29
1475,F3,220.25,0.25,73,139.29
1476,E3,220.5,0.25,72,139.29
1477,E4,220.5,0.5,62,139.29
1478,B-4,220.5,0.5,62,139.29
1479,C4,220.5,0.5,62,139.29
1480,C5,220.5,0.5,62,139.29
1481,D3,220.75,0.25,72,139.29
1482,C3,221.0,0.25,71,139.29
1483,E4,221.0,0.5,64,139.29
1484,C4,221.0,0.5,64,139.29
1485,B-4,221.0,0.5,64,139.29
1486,C5,221.0,0.5,64,139.29
1487,B-2,221.25,0.25,71,139.29
1488,G#2,221.5,0.25,70,139.29
1489,C4,221.5,0.5,63,139.29
1490,C5,221.5,0.5,63,139.29
1491,E4,221.5,0.5,63,139.29
1492,B-4,221.5,0.5,63,139.29
1493,G2,221.75,0.25,70,139.29
1494,A4,222.0,0.25,79,139.29
1495,C5,222.0,0.25,79,139.29
1496,C4,222.0,0.25,79,139.29
1497,E-4,222.0,0.25,79,139.29
1498,F#1,222.0,0.25,77,139.29
1499,F#2,222.0,0.25,77,139.29
1500,A3,222.25,0.25,70,139.29
1501,C4,222.5,0.25,71,139.29
1502,E-4,222.75,0.25,72,139.29
1503,F#4,223.0,0.25,72,139.29
1504,A4,223.25,0.25,72,139.29
1505,C5,223.5,0.25,73,139.29
1506,E-5,223.75,0.25,74,139.29
1507,F#5,224.0,0.25,75,139.29
1508,A5,224.25,0.25,77,139.29
1509,C6,224.5,0.25,79,139.29
1510,E-6,224.75,0.25,81,139.29
1511,F#6,225.0,0.25,83,139.29
1512,E-6,225.25,0.25,83,139.29
1513,C6,225.5,0.25,82,139.29
1514,A5,225.75,0.25,81,139.29
1515,F#5,226.0,0.25,81,139.29
1516,E-5,226.25,0.25,80,139.29
1517,C5,226.5,0.25,79,139.29
1518,A4,226.75,0.25,78,139.29
1519,F#4,227.0,0.25,77,139.29
1520,E-4,227.25,0.25,76,139.29
1521,C4,227.5,0.25,75,139.29
1522,A3,227.75,0.25,69,139.29
1523,F#3,228.0,0.25,68,139.29
1524,E-3,228.25,0.25,68,139.29
1525,C3,228.5,0.25,67,139.29
1526,A2,228.75,0.25,66,139.29
1527,F#2,229.0,0.25,66,139.29
1528,E-2,229.25,0.25,65,139.29
1529,C2,229.5,0.25,64,139.29
1530,A1,229.75,0.25,63,139.29
1531,F#1,230.0,0.25,60,139.29
1532,A1,230.25,0.25,59,139.29
1533,C2,230.5,0.25,58,139.29
1534,E-2,230.75,0.25,57,139.29
1535,F#1,231.0,0.25,56,139.29
1536,A1,231.25,0.25,54,139.29
1537,C2,231.5,0.25,53,139.29
1538,E-2,231.75,0.25,52,139.29
1539,F#1,232.0,0.25,51,139.29
1540,A1,232.25,0.25,47,139.29
1541,C2,232.5,0.25,47,139.29
1542,E-2,232.75,0.25,47,139.29
1543,F#1,233.0,0.25,52,139.29
1544,A1,233.25,0.25,47,139.29
1545,C2,233.5,0.25,46,139.29
1546,E-2,233.75,0.25,46,139.29
1547,F1,234.0,1.0,39,139.29
1548,A3,234.25,0.25,40,139.29
1549,C4,234.5,0.25,37,139.29
1550,E-4,234.75,0.25,37,139.29
1551,F#4,235.0,0.25,40,139.29
1552,G#4,235.25,0.25,38,139.29
1553,F#4,235.5,0.25,38,139.29
1554,F4,235.75,0.25,38,139.29
1555,E-4,236.0,0.25,40,139.29
1556,F4,236.25,0.25,37,139.29
1557,E-4,236.5,0.25,37,139.29
1558,C#4,236.75,0.25,37,139.29
1559,C4,237.0,0.25,40,139.29
1560,C#4,237.25,0.25,37,139.29
1561,E-4,237.5,0.25,37,139.29
1562,C4,237.75,0.25,37,139.29
1563,F2,237.75,0.25,35,139.29
1564,F1,238.0,1.0,40,139.29
1565,A3,238.25,0.25,40,139.29
1566,C4,238.5,0.25,37,139.29
1567,E-4,238.75,0.25,37,139.29
1568,F#4,239.0,0.25,40,139.29
1569,G#4,239.25,0.25,38,139.29
1570,F#4,239.5,0.25,38,139.29
1571,F4,239.75,0.25,38,139.29
1572,E-4,240.0,0.25,40,139.29
1573,F4,240.25,0.25,37,139.29
1574,E-4,240.5,0.25,37,139.29
1575,C#4,240.75,0.25,37,139.29
1576,C4,241.0,0.25,40,139.29
1577,C#4,241.25,0.25,37,139.29
1578,E-4,241.5,0.25,37,139.29
1579,C4,241.75,0.25,37,139.29
1580,F2,241.75,0.25,35,139.29
1581,F1,242.0,1.0,40,139.29
1582,A3,242.25,0.25,47,139.29
1583,C4,242.5,0.25,49,139.29
1584,E-4,242.75,0.25,50,139.29
1585,F#4,243.0,0.25,52,139.29
1586,G#4,243.25,0.25,54,139.29
1587,F#4,243.5,0.25,56,139.29
1588,A3,243.5,0.25,38,139.29
1589,F4,243.75,0.25,58,139.29
1590,B-3,243.75,0.25,42,139.29
1591,E-4,244.0,0.5,67,139.29
1592,C4,244.0,0.25,49,139.29
1593,C#4,244.25,0.25,42,139.29
1594,E-4,244.5,0.25,47,139.29
1595,C4,244.5,0.25,43,139.29
1596,F4,244.75,0.25,49,139.29
1597,B-3,244.75,0.25,43,139.29
1598,F#4,245.0,0.25,52,139.29
1599,A3,245.0,0.5,47,139.29
1600,G#4,245.25,0.25,54,139.29
1601,F#4,245.5,0.25,56,139.29
1602,A3,245.5,0.25,41,139.29
1603,F4,245.75,0.25,59,139.29
1604,B-3,245.75,0.25,46,139.29
1605,E-4,246.0,0.5,67,139.29
1606,C4,246.0,0.25,53,139.29
1607,C#4,246.25,0.25,42,139.29
1608,E-4,246.5,0.25,50,139.29
1609,C4,246.5,0.25,43,139.29
1610,F4,246.75,0.25,50,139.29
1611,B-3,246.75,0.25,43,139.29
1612,F#4,247.0,0.25,56,139.29
1613,A3,247.0,0.5,47,139.29
1614,G#4,247.25,0.25,49,139.29
1615,F#4,247.5,0.25,50,139.29
1616,A3,247.5,0.25,43,139.29
1617,F4,247.75,0.25,50,139.29
1618,B-3,247.75,0.25,47,139.29
1619,E-4,248.0,0.5,67,139.29
1620,C4,248.0,0.25,52,139.29
1621,C#4,248.25,0.25,42,139.29
1622,C4,248.5,0.25,43,139.29
1623,F#4,248.5,0.5,56,139.29
1624,F#5,248.5,0.5,56,139.29
1625,B-3,248.75,0.25,43,139.29
1626,A3,249.0,0.25,44,139.29
1627,F4,249.0,0.5,60,139.29
1628,F5,249.0,0.5,60,139.29
1629,F#3,249.25,0.25,42,139.29
1630,F3,249.5,0.25,41,139.29
1631,A4,249.5,0.5,54,139.29
1632,A5,249.5,0.5,54,139.29
1633,E-3,249.75,0.25,39,139.29
1634,C#3,250.0,4.0,44,139.29
1635,B-5,250.0,0.25,56,139.29
1636,B-4,250.0,0.25,56,139.29
1637,F4,250.25,0.25,51,139.29
1638,F3,250.25,0.25,32,139.29
1639,B-4,250.5,0.25,52,139.29
1640,B-3,250.5,0.25,33,139.29
1641,C#5,250.75,0.25,53,139.29
1642,F3,250.75,0.25,34,139.29
1643,F5,251.0,0.25,57,139.29
1644,B-3,251.0,0.25,38,139.29
1645,F#5,251.25,0.25,55,139.29
1646,F3,251.25,0.25,37,139.29
1647,F5,251.5,0.25,56,139.29
1648,B-3,251.5,0.25,38,139.29
1649,E-5,251.75,0.25,55,139.29
1650,F3,251.75,0.25,38,139.29
1651,C#5,252.0,0.25,57,139.29
1652,B-3,252.0,0.25,39,139.29
1653,E-5,252.25,0.25,56,139.29
1654,F3,252.25,0.25,39,139.29
1655,C#5,252.5,0.25,56,139.29
1656,B-3,252.5,0.25,38,139.29
1657,C5,252.75,0.25,55,139.29
1658,F3,252.75,0.25,38,139.29
1659,B-4,253.0,0.25,54,139.29
1660,B-3,253.0,0.25,38,139.29
1661,C5,253.25,0.25,53,139.29
1662,F3,253.25,0.25,37,139.29
1663,C#5,253.5,0.25,53,139.29
1664,B-3,253.5,0.25,37,139.29
1665,B-4,253.75,0.25,52,139.29
1666,F3,253.75,0.25,36,139.29
1667,C#3,254.0,4.0,44,139.29
1668,F4,254.25,0.25,51,139.29
1669,F3,254.25,0.25,32,139.29
1670,B-4,254.5,0.25,52,139.29
1671,B-3,254.5,0.25,33,139.29
1672,C#5,254.75,0.25,53,139.29
1673,F3,254.75,0.25,34,139.29
1674,F5,255.0,0.25,57,139.29
1675,B-3,255.0,0.25,38,139.29
1676,F#5,255.25,0.25,55,139.29
1677,F3,255.25,0.25,37,139.29
1678,F5,255.5,0.25,56,139.29
1679,B-3,255.5,0.25,38,139.29
1680,E-5,255.75,0.25,55,139.29
1681,F3,255.75,0.25,38,139.29
1682,C#5,256.0,0.25,57,139.29
1683,B-3,256.0,0.25,39,139.29
1684,E-5,256.25,0.25,56,139.29
1685,F3,256.25,0.25,39,139.29
1686,C#5,256.5,0.25,56,139.29
1687,B-3,256.5,0.25,38,139.29
1688,C5,256.75,0.25,55,139.29
1689,F3,256.75,0.25,38,139.29
1690,B-4,257.0,0.25,54,139.29
1691,B-3,257.0,0.25,38,139.29
1692,C5,257.25,0.25,53,139.29
1693,F3,257.25,0.25,37,139.29
1694,C#5,257.5,0.25,53,139.29
1695,B-3,257.5,0.25,37,139.29
1696,B-4,257.75,0.25,52,139.29
1697,F3,257.75,0.25,36,139.29
1698,E-3,258.0,4.0,44,139.29
1699,F#4,258.25,0.25,51,139.29
1700,F#3,258.25,0.25,32,139.29
1701,B4,258.5,0.25,53,139.29
1702,B3,258.5,0.25,33,139.29
1703,E-5,258.75,0.25,54,139.29
1704,F#3,258.75,0.25,35,139.29
1705,F#5,259.0,0.25,59,139.29
1706,B3,259.0,0.25,39,139.29
1707,G#5,259.25,0.25,58,139.29
1708,F#3,259.25,0.25,39,139.29
1709,F#5,259.5,0.25,59,139.29
1710,B3,259.5,0.25,40,139.29
1711,F5,259.75,0.25,59,139.29
1712,F#3,259.75,0.25,41,139.29
1713,E-5,260.0,0.25,62,139.29
1714,B3,260.0,0.25,42,139.29
1715,F5,260.25,0.25,62,139.29
1716,F#3,260.25,0.25,43,139.29
1717,E-5,260.5,0.25,62,139.29
1718,B3,260.5,0.25,42,139.29
1719,C#5,260.75,0.25,62,139.29
1720,F#3,260.75,0.25,42,139.29
1721,B4,261.0,0.25,62,139.29
1722,B3,261.0,0.25,43,139.29
1723,C#5,261.25,0.25,61,139.29
1724,F#3,261.25,0.25,42,139.29
1725,E-5,261.5,0.25,64,139.29
1726,B3,261.5,0.25,45,139.29
1727,B4,261.75,0.25,61,139.29
1728,F#3,261.75,0.25,42,139.29
1729,B-4,262.0,0.25,68,139.29
1730,F3,262.0,2.0,46,139.29
1731,C5,262.25,0.25,64,139.29
1732,B-3,262.25,0.25,46,139.29
1733,B-4,262.5,0.25,66,139.29
1734,C#4,262.5,0.25,44,139.29
1735,A4,262.75,0.25,64,139.29
1736,B-3,262.75,0.25,44,139.29
1737,B-4,263.0,0.25,62,139.29
1738,C#4,263.0,0.25,43,139.29
1739,C5,263.25,0.25,60,139.29
1740,B-3,263.25,0.25,42,139.29
1741,C#5,263.5,0.25,59,139.29
1742,C#4,263.5,0.25,41,139.29
1743,B-4,263.75,0.25,58,139.29
1744,B-3,263.75,0.25,40,139.29
1745,A4,264.0,0.25,62,139.29
1746,E-3,264.0,2.0,42,139.29
1747,B-4,264.25,0.25,61,139.29
1748,F3,264.25,0.25,42,139.29
1749,A4,264.5,0.25,60,139.29
1750,C4,264.5,0.25,41,139.29
1751,G4,264.75,0.25,58,139.29
1752,F3,264.75,0.25,40,139.29
1753,A4,265.0,0.25,56,139.29
1754,C4,265.0,0.25,39,139.29
1755,B-4,265.25,0.25,55,139.29
1756,F3,265.25,0.25,38,139.29
1757,C5,265.5,0.25,54,139.29
1758,C4,265.5,0.25,38,139.29
1759,A4,265.75,0.25,53,139.29
1760,F3,265.75,0.25,36,139.29
1761,B-4,266.0,0.5,61,139.29
1762,C#3,266.0,0.25,48,139.29
1763,F4,266.25,0.25,48,139.29
1764,B-4,266.5,0.25,57,139.29
1765,C#5,266.75,0.25,58,139.29
1766,F5,267.0,0.25,62,139.29
1767,B-3,267.0,1.0,58,139.29
1768,F#5,267.25,0.25,60,139.29
1769,C#4,267.25,0.25,40,139.29
1770,F5,267.5,0.25,61,139.29
1771,F4,267.5,0.25,41,139.29
1772,E-5,267.75,0.25,60,139.29
1773,C#4,267.75,0.25,41,139.29
1774,C#5,268.0,0.25,62,139.29
1775,A3,268.0,1.0,62,139.29
1776,E-5,268.25,0.25,61,139.29
1777,C#4,268.25,0.25,42,139.29
1778,C#5,268.5,0.25,61,139.29
1779,F4,268.5,0.25,41,139.29
1780,C5,268.75,0.25,60,139.29
1781,C#4,268.75,0.25,41,139.29
1782,B-5,269.0,0.5,69,139.29
1783,B-4,269.0,0.25,69,139.29
1784,B-3,269.0,1.0,54,139.29
1785,C5,269.25,0.25,58,139.29
1786,C#4,269.25,0.25,40,139.29
1787,C#5,269.5,0.25,59,139.29
1788,F4,269.5,0.25,40,139.29
1789,B-4,269.75,0.25,58,139.29
1790,C#4,269.75,0.25,40,139.29
1791,A5,270.0,0.5,71,139.29
1792,C#3,270.0,0.25,49,139.29
1793,F4,270.25,0.25,50,139.29
1794,B-4,270.5,0.25,60,139.29
1795,C#5,270.75,0.25,62,139.29
1796,B-5,271.0,0.5,69,139.29
1797,F5,271.0,0.25,69,139.29
1798,B-3,271.0,1.0,65,139.29
1799,F#5,271.25,0.25,65,139.29
1800,C#4,271.25,0.25,43,139.29
1801,F5,271.5,0.25,67,139.29
1802,F4,271.5,0.25,45,139.29
1803,E-5,271.75,0.25,66,139.29
1804,C#4,271.75,0.25,45,139.29
1805,C#5,272.0,0.25,69,139.29
1806,A3,272.0,1.0,70,139.29
1807,E-5,272.25,0.25,68,139.29
1808,C#4,272.25,0.25,47,139.29
1809,C#5,272.5,0.25,69,139.29
1810,F4,272.5,0.25,46,139.29
1811,C5,272.75,0.25,69,139.29
1812,C#4,272.75,0.25,47,139.29
1813,B-5,273.0,0.5,82,139.29
1814,B-4,273.0,0.25,68,139.29
1815,B-3,273.0,1.0,72,139.29
1816,C5,273.25,0.25,67,139.29
1817,C#4,273.25,0.25,46,139.29
1818,C#5,273.5,0.25,68,139.29
1819,F4,273.5,0.25,47,139.29
1820,B-4,273.75,0.25,67,139.29
1821,C#4,273.75,0.25,46,139.29
1822,E-3,274.0,0.25,70,139.29
1823,B4,274.0,0.25,88,139.29
1824,B5,274.0,0.25,88,139.29
1825,F#5,274.25,0.25,74,139.29
1826,F#4,274.25,0.25,55,139.29
1827,B4,274.25,0.25,55,139.29
1828,B5,274.5,0.25,76,139.29
1829,E-4,274.5,0.25,59,139.29
1830,E-6,274.75,0.25,78,139.29
1831,F#4,274.75,0.25,55,139.29
1832,B4,274.75,0.25,55,139.29
1833,F#6,275.0,0.25,80,139.29
1834,E-4,275.0,0.25,59,139.29
1835,G#6,275.25,0.25,76,139.29
1836,F#4,275.25,0.25,55,139.29
1837,B4,275.25,0.25,55,139.29
1838,F#6,275.5,0.25,76,139.29
1839,E-4,275.5,0.25,59,139.29
1840,F6,275.75,0.25,76,139.29
1841,F#4,275.75,0.25,56,139.29
1842,B4,275.75,0.25,56,139.29
1843,E-6,276.0,0.25,77,139.29
1844,E-4,276.0,0.25,59,139.29
1845,F6,276.25,0.25,71,139.29
1846,F#4,276.25,0.25,55,139.29
1847,B4,276.25,0.25,55,139.29
1848,E-6,276.5,0.25,72,139.29
1849,E-4,276.5,0.25,59,139.29
1850,C#6,276.75,0.25,72,139.29
1851,F#4,276.75,0.25,55,139.29
1852,B4,276.75,0.25,55,139.29
1853,B5,277.0,0.25,78,139.29
1854,E-4,277.0,0.25,59,139.29
1855,C#6,277.25,0.25,73,139.29
1856,F#4,277.25,0.25,55,139.29
1857,B4,277.25,0.25,55,139.29
1858,B5,277.5,0.25,73,139.29
1859,E-4,277.5,0.25,59,139.29
1860,B-5,277.75,0.25,72,139.29
1861,F#4,277.75,0.25,56,139.29
1862,B4,277.75,0.25,56,139.29
1863,A5,278.0,0.25,77,139.29
1864,F4,278.0,0.25,59,139.29
1865,C6,278.25,0.25,71,139.29
1866,A4,278.25,0.25,55,139.29
1867,C5,278.25,0.25,55,139.29
1868,E-5,278.25,0.25,55,139.29
1869,E-6,278.5,0.25,72,139.29
1870,F4,278.5,0.25,59,139.29
1871,C#6,278.75,0.25,72,139.29
1872,A4,278.75,0.25,55,139.29
1873,C5,278.75,0.25,55,139.29
1874,E-5,278.75,0.25,55,139.29
1875,C6,279.0,0.25,78,139.29
1876,F4,279.0,0.25,59,139.29
1877,C#6,279.25,0.25,73,139.29
1878,A4,279.25,0.25,55,139.29
1879,C5,279.25,0.25,55,139.29
1880,E-5,279.25,0.25,55,139.29
1881,C6,279.5,0.25,73,139.29
1882,F4,279.5,0.25,59,139.29
1883,B-5,279.75,0.25,72,139.29
1884,A4,279.75,0.25,56,139.29
1885,C5,279.75,0.25,56,139.29
1886,E-5,279.75,0.25,56,139.29
1887,A5,280.0,0.25,77,139.29
1888,F4,280.0,0.25,59,139.29
1889,B-5,280.25,0.25,71,139.29
1890,A4,280.25,0.25,55,139.29
1891,A5,280.5,0.25,72,139.29
1892,F4,280.5,0.25,59,139.29
1893,F#5,280.75,0.25,72,139.29
1894,A4,280.75,0.25,55,139.29
1895,F5,281.0,0.25,74,139.29
1896,F3,281.0,0.25,59,139.29
1897,E-5,281.25,0.25,71,139.29
1898,F4,281.25,0.25,50,139.29
1899,C#5,281.5,0.25,71,139.29
1900,F3,281.5,0.25,57,139.29
1901,C5,281.75,0.25,69,139.29
1902,F4,281.75,0.25,49,139.29
1903,B-4,282.0,0.25,73,139.29
1904,B-2,282.0,0.5,59,139.29
1905,F5,282.5,1.0,74,139.29
1906,B-3,282.5,0.25,44,139.29
1907,C#4,282.5,0.25,44,139.29
1908,F4,282.75,0.25,38,139.29
1909,B-3,283.0,0.25,44,139.29
1910,C#4,283.0,0.25,44,139.29
1911,F4,283.25,0.25,38,139.29
1912,F5,283.5,0.25,61,139.29
1913,C#4,283.5,0.25,44,139.29
1914,B-3,283.5,0.25,44,139.29
1915,F4,283.75,0.25,38,139.29
1916,F5,284.0,0.25,61,139.29
1917,B-3,284.0,0.25,44,139.29
1918,C#4,284.0,0.25,44,139.29
1919,F4,284.25,0.25,38,139.29
1920,F#5,284.5,1.0,72,139.29
1921,C#4,284.5,0.25,44,139.29
1922,B-3,284.5,0.25,44,139.29
1923,E4,284.75,0.25,38,139.29
1924,B-3,285.0,0.25,44,139.29
1925,C#4,285.0,0.25,44,139.29
1926,E4,285.25,0.25,38,139.29
1927,F#5,285.5,0.25,60,139.29
1928,B-3,285.5,0.25,44,139.29
1929,C#4,285.5,0.25,44,139.29
1930,E4,285.75,0.25,38,139.29
1931,F#5,286.0,0.25,59,139.29
1932,A3,286.0,0.25,44,139.29
1933,C4,286.0,0.25,44,139.29
1934,E4,286.25,0.25,38,139.29
1935,F5,286.5,1.0,73,139.29
1936,C4,286.5,0.25,44,139.29
1937,A3,286.5,0.25,44,139.29
1938,F4,286.75,0.25,38,139.29
1939,A3,287.0,0.25,44,139.29
1940,C4,287.0,0.25,44,139.29
1941,F4,287.25,0.25,38,139.29
1942,F5,287.5,0.25,63,139.29
1943,A3,287.5,0.25,44,139.29
1944,C4,287.5,0.25,44,139.29
1945,F4,287.75,0.25,38,139.29
1946,F5,288.0,0.25,65,139.29
1947,A3,288.0,0.25,44,139.29
1948,C4,288.0,0.25,44,139.29
1949,F4,288.25,0.25,38,139.29
1950,C5,288.5,0.25,61,139.29
1951,C4,288.5,0.25,44,139.29
1952,A3,288.5,0.25,44,139.29
1953,F4,288.75,0.25,38,139.29
1954,C#5,289.0,0.25,61,139.29
1955,A3,289.0,0.25,44,139.29
1956,C4,289.0,0.25,44,139.29
1957,F4,289.25,0.25,38,139.29
1958,E-5,289.5,0.25,61,139.29
1959,A3,289.5,0.25,44,139.29
1960,C4,289.5,0.25,44,139.29
1961,F4,289.75,0.25,38,139.29
1962,C#5,290.0,0.25,65,139.29
1963,C#4,290.0,0.25,44,139.29
1964,B-3,290.0,0.25,44,139.29
1965,F4,290.25,0.25,38,139.29
1966,F6,290.5,1.0,76,139.29
1967,F5,290.5,1.0,76,139.29
1968,B-3,290.5,0.25,58,139.29
1969,C#4,290.5,0.25,58,139.29
1970,F4,290.75,0.25,51,139.29
1971,B-3,291.0,0.25,58,139.29
1972,C#4,291.0,0.25,58,139.29
1973,F4,291.25,0.25,51,139.29
1974,F6,291.5,0.25,71,139.29
1975,F5,291.5,0.25,71,139.29
1976,C#4,291.5,0.25,58,139.29
1977,B-3,291.5,0.25,58,139.29
1978,F4,291.75,0.25,51,139.29
1979,F6,292.0,0.25,71,139.29
1980,F5,292.0,0.25,71,139.29
1981,B-3,292.0,0.25,58,139.29
1982,C#4,292.0,0.25,58,139.29
1983,F4,292.25,0.25,51,139.29
1984,F#6,292.5,1.0,78,139.29
1985,F#5,292.5,1.0,78,139.29
1986,C#4,292.5,0.25,58,139.29
1987,B-3,292.5,0.25,58,139.29
1988,E4,292.75,0.25,51,139.29
1989,B-3,293.0,0.25,58,139.29
1990,C#4,293.0,0.25,58,139.29
1991,E4,293.25,0.25,51,139.29
1992,F#6,293.5,0.25,70,139.29
1993,F#5,293.5,0.25,70,139.29
1994,B-3,293.5,0.25,58,139.29
1995,C#4,293.5,0.25,58,139.29
1996,E4,293.75,0.25,51,139.29
1997,F#6,294.0,0.25,69,139.29
1998,F#5,294.0,0.25,69,139.29
1999,A3,294.0,0.25,58,139.29
2000,C4,294.0,0.25,58,139.29
2001,E4,294.25,0.25,51,139.29
2002,F6,294.5,1.0,78,139.29
2003,F5,294.5,1.0,78,139.29
2004,C4,294.5,0.25,58,139.29
2005,A3,294.5,0.25,58,139.29
2006,F4,294.75,0.25,51,139.29
2007,A3,295.0,0.25,58,139.29
2008,C4,295.0,0.25,58,139.29
2009,F4,295.25,0.25,51,139.29
2010,F6,295.5,0.25,74,139.29
2011,F5,295.5,0.25,74,139.29
2012,A3,295.5,0.25,58,139.29
2013,C4,295.5,0.25,58,139.29
2014,F4,295.75,0.25,51,139.29
2015,F6,296.0,0.25,76,139.29
2016,F5,296.0,0.25,76,139.29
2017,A3,296.0,0.25,58,139.29
2018,C4,296.0,0.25,58,139.29
2019,F4,296.25,0.25,51,139.29
2020,C6,296.5,0.25,71,139.29
2021,C5,296.5,0.25,71,139.29
2022,C4,296.5,0.25,58,139.29
2023,A3,296.5,0.25,58,139.29
2024,F4,296.75,0.25,51,139.29
2025,C#6,297.0,0.25,71,139.29
2026,C#5,297.0,0.25,71,139.29
2027,A3,297.0,0.25,58,139.29
2028,C4,297.0,0.25,58,139.29
2029,F4,297.25,0.25,51,139.29
2030,E-6,297.5,0.25,71,139.29
2031,E-5,297.5,0.25,71,139.29
2032,A3,297.5,0.25,58,139.29
2033,C4,297.5,0.25,58,139.29
2034,F4,297.75,0.25,51,139.29
2035,C#6,298.0,0.25,76,139.29
2036,C#5,298.0,0.25,76,139.29
2037,C#4,298.0,0.25,58,139.29
2038,B-3,298.0,0.25,58,139.29
2039,F4,298.25,0.25,51,139.29
2040,C5,298.5,1.0,72,139.29
2041,E3,298.5,0.25,44,139.29
2042,G3,298.5,0.25,44,139.29
2043,C4,298.75,0.25,38,139.29
2044,E3,299.0,0.25,44,139.29
2045,G3,299.0,0.25,44,139.29
2046,C4,299.25,0.25,38,139.29
2047,C5,299.5,0.25,61,139.29
2048,G3,299.5,0.25,44,139.29
2049,E3,299.5,0.25,44,139.29
2050,C4,299.75,0.25,38,139.29
2051,C5,300.0,0.25,61,139.29
2052,F3,300.0,0.25,44,139.29
2053,G#3,300.0,0.25,44,139.29
2054,C4,300.25,0.25,38,139.29
2055,B4,300.5,1.0,72,139.29
2056,G#3,300.5,0.25,44,139.29
2057,F3,300.5,0.25,44,139.29
2058,D4,300.75,0.25,38,139.29
2059,F3,301.0,0.25,44,139.29
2060,G#3,301.0,0.25,44,139.29
2061,D4,301.25,0.25,38,139.29
2062,B4,301.5,0.25,60,139.29
2063,F3,301.5,0.25,44,139.29
2064,G#3,301.5,0.25,44,139.29
2065,D4,301.75,0.25,38,139.29
2066,B4,302.0,0.25,59,139.29
2067,E3,302.0,0.25,44,139.29
2068,G3,302.0,0.25,44,139.29
2069,D4,302.25,0.25,38,139.29
2070,C5,302.5,1.0,71,139.29
2071,G3,302.5,0.25,44,139.29
2072,E3,302.5,0.25,44,139.29
2073,C4,302.75,0.25,38,139.29
2074,E3,303.0,0.25,44,139.29
2075,G3,303.0,0.25,44,139.29
2076,C4,303.25,0.25,38,139.29
2077,C5,303.5,0.25,63,139.29
2078,E3,303.5,0.25,44,139.29
2079,G3,303.5,0.25,44,139.29
2080,C4,303.75,0.25,38,139.29
2081,C5,304.0,0.25,65,139.29
2082,E3,304.0,0.25,44,139.29
2083,G3,304.0,0.25,44,139.29
2084,C4,304.25,0.25,38,139.29
2085,G4,304.5,0.25,61,139.29
2086,G3,304.5,0.25,44,139.29
2087,E3,304.5,0.25,44,139.29
2088,C4,304.75,0.25,38,139.29
2089,G#4,305.0,0.25,61,139.29
2090,E3,305.0,0.25,44,139.29
2091,G3,305.0,0.25,44,139.29
2092,C4,305.25,0.25,38,139.29
2093,B-4,305.5,0.25,61,139.29
2094,E3,305.5,0.25,44,139.29
2095,G3,305.5,0.25,44,139.29
2096,C4,305.75,0.25,38,139.29
2097,G#4,306.0,0.25,65,139.29
2098,G#3,306.0,0.25,44,139.29
2099,F3,306.0,0.25,44,139.29
2100,C4,306.25,0.25,38,139.29
2101,C6,306.5,1.0,76,139.29
2102,C5,306.5,1.0,76,139.29
2103,G#3,306.5,0.25,58,139.29
2104,F3,306.5,0.25,58,139.29
2105,C4,306.75,0.25,51,139.29
2106,G#3,307.0,0.25,58,139.29
2107,F3,307.0,0.25,58,139.29
2108,C4,307.25,0.25,51,139.29
2109,C6,307.5,0.25,71,139.29
2110,C5,307.5,0.25,71,139.29
2111,G#3,307.5,0.25,58,139.29
2112,F3,307.5,0.25,58,139.29
2113,C4,307.75,0.25,51,139.29
2114,C6,308.0,0.25,71,139.29
2115,C5,308.0,0.25,71,139.29
2116,G#3,308.0,0.25,58,139.29
2117,F3,308.0,0.25,58,139.29
2118,C4,308.25,0.25,51,139.29
2119,B5,308.5,1.0,78,139.29
2120,B4,308.5,1.0,78,139.29
2121,G#3,308.5,0.25,58,139.29
2122,F3,308.5,0.25,58,139.29
2123,D4,308.75,0.25,51,139.29
2124,G#3,309.0,0.25,58,139.29
2125,F3,309.0,0.25,58,139.29
2126,D4,309.25,0.25,51,139.29
2127,B5,309.5,0.25,70,139.29
2128,B4,309.5,0.25,70,139.29
2129,F3,309.5,0.25,58,139.29
2130,G#3,309.5,0.25,58,139.29
2131,D4,309.75,0.25,51,139.29
2132,B5,310.0,0.25,69,139.29
2133,B4,310.0,0.25,69,139.29
2134,G3,310.0,0.25,58,139.29
2135,E3,310.0,0.25,58,139.29
2136,D4,310.25,0.25,51,139.29
2137,C6,310.5,1.0,78,139.29
2138,C5,310.5,1.0,78,139.29
2139,E3,310.5,0.25,58,139.29
2140,G3,310.5,0.25,58,139.29
2141,C4,310.75,0.25,51,139.29
2142,E3,311.0,0.25,58,139.29
2143,G3,311.0,0.25,58,139.29
2144,C4,311.25,0.25,51,139.29
2145,C6,311.5,0.25,74,139.29
2146,C5,311.5,0.25,74,139.29
2147,E3,311.5,0.25,58,139.29
2148,G3,311.5,0.25,58,139.29
2149,C4,311.75,0.25,51,139.29
2150,C6,312.0,0.25,76,139.29
2151,C5,312.0,0.25,76,139.29
2152,G3,312.0,0.25,58,139.29
2153,E3,312.0,0.25,58,139.29
2154,C4,312.25,0.25,51,139.29
2155,G5,312.5,0.25,71,139.29
2156,G4,312.5,0.25,71,139.29
2157,G3,312.5,0.25,58,139.29
2158,E3,312.5,0.25,58,139.29
2159,C4,312.75,0.25,51,139.29
2160,G#5,313.0,0.25,71,139.29
2161,G#4,313.0,0.25,71,139.29
2162,G3,313.0,0.25,58,139.29
2163,E3,313.0,0.25,58,139.29
2164,C4,313.25,0.25,51,139.29
2165,B-5,313.5,0.25,71,139.29
2166,B-4,313.5,0.25,71,139.29
2167,G3,313.5,0.25,58,139.29
2168,E3,313.5,0.25,58,139.29
2169,C4,313.75,0.25,51,139.29
2170,G#5,314.0,0.25,76,139.29
2171,G#4,314.0,0.25,76,139.29
2172,G#2,314.0,1.0,64,139.29
2173,C3,314.0,1.0,64,139.29
2174,F3,314.0,1.0,64,139.29
2175,F2,314.0,1.0,64,139.29
2176,C4,314.25,0.25,70,139.29
2177,F4,314.5,0.25,72,139.29
2178,G#4,314.75,0.25,74,139.29
2179,C5,315.0,0.25,76,139.29
2180,C#5,315.25,0.25,72,139.29
2181,C3,315.25,0.25,56,139.29
2182,C5,315.5,0.25,72,139.29
2183,F3,315.5,0.25,58,139.29
2184,B-4,315.75,0.25,72,139.29
2185,G#3,315.75,0.25,60,139.29
2186,G#4,316.0,0.25,73,139.29
2187,C4,316.0,0.25,66,139.29
2188,B-4,316.25,0.25,67,139.29
2189,C#4,316.25,0.25,60,139.29
2190,G#4,316.5,0.25,69,139.29
2191,C4,316.5,0.25,61,139.29
2192,G4,316.75,0.25,69,139.29
2193,B-3,316.75,0.25,61,139.29
2194,F4,317.0,0.25,75,139.29
2195,G#3,317.0,0.25,67,139.29
2196,G4,317.25,0.25,70,139.29
2197,B-3,317.25,0.25,60,139.29
2198,G#4,317.5,0.25,70,139.29
2199,C4,317.5,0.25,60,139.29
2200,F4,317.75,0.25,70,139.29
2201,G#3,317.75,0.25,60,139.29
2202,F#4,318.0,0.25,75,139.29
2203,B-3,318.0,0.25,72,139.29
2204,C#4,318.25,0.25,72,139.29
2205,C4,318.25,0.25,60,139.29
2206,F#4,318.5,0.25,74,139.29
2207,B-3,318.5,0.25,60,139.29
2208,B-4,318.75,0.25,76,139.29
2209,G#3,318.75,0.25,60,139.29
2210,C#5,319.0,0.25,78,139.29
2211,F#3,319.0,0.25,68,139.29
2212,E-5,319.25,0.25,75,139.29
2213,C#3,319.25,0.25,57,139.29
2214,C#5,319.5,0.25,75,139.29
2215,F#3,319.5,0.25,60,139.29
2216,C5,319.75,0.25,75,139.29
2217,B-3,319.75,0.25,62,139.29
2218,B-4,320.0,0.25,76,139.29
2219,C#4,320.0,0.25,69,139.29
2220,C5,320.25,0.25,70,139.29
2221,E-4,320.25,0.25,63,139.29
2222,B-4,320.5,0.25,71,139.29
2223,C#4,320.5,0.25,63,139.29
2224,G#4,320.75,0.25,71,139.29
2225,C4,320.75,0.25,63,139.29
2226,F#4,321.0,0.25,76,139.29
2227,B-3,321.0,0.25,69,139.29
2228,G#4,321.25,0.25,73,139.29
2229,C4,321.25,0.25,62,139.29
2230,B-4,321.5,0.25,73,139.29
2231,C#4,321.5,0.25,62,139.29
2232,F#4,321.75,0.25,72,139.29
2233,B-3,321.75,0.25,62,139.29
2234,A4,322.0,0.25,77,139.29
2235,C4,322.0,0.25,74,139.29
2236,E-4,322.25,0.25,74,139.29
2237,C#4,322.25,0.25,62,139.29
2238,A4,322.5,0.25,76,139.29
2239,C4,322.5,0.25,63,139.29
2240,C5,322.75,0.25,78,139.29
2241,B-3,322.75,0.25,63,139.29
2242,E-5,323.0,0.25,80,139.29
2243,A3,323.0,0.25,70,139.29
2244,F5,323.25,0.25,76,139.29
2245,E-3,323.25,0.25,59,139.29
2246,E-5,323.5,0.25,76,139.29
2247,A3,323.5,0.25,62,139.29
2248,C#5,323.75,0.25,77,139.29
2249,C4,323.75,0.25,65,139.29
2250,C5,324.0,0.25,78,139.29
2251,E-4,324.0,0.25,71,139.29
2252,C#5,324.25,0.25,72,139.29
2253,F4,324.25,0.25,65,139.29
2254,C5,324.5,0.25,73,139.29
2255,E-4,324.5,0.25,65,139.29
2256,B-4,324.75,0.25,73,139.29
2257,C#4,324.75,0.25,65,139.29
2258,A4,325.0,0.25,80,139.29
2259,C4,325.0,0.25,72,139.29
2260,B-4,325.25,0.25,75,139.29
2261,C#4,325.25,0.25,64,139.29
2262,C5,325.5,0.25,75,139.29
2263,E-4,325.5,0.25,64,139.29
2264,A4,325.75,0.25,74,139.29
2265,C4,325.75,0.25,64,139.29
2266,B-4,326.0,0.25,90,139.29
2267,C#4,326.0,0.25,70,139.29
2268,F4,326.25,0.25,76,139.29
2269,F3,326.25,0.25,59,139.29
2270,B-4,326.5,0.25,79,139.29
2271,B-3,326.5,0.25,63,139.29
2272,C#5,326.75,0.25,82,139.29
2273,C#4,326.75,0.25,66,139.29
2274,F5,327.0,0.25,83,139.29
2275,F4,327.0,0.25,65,139.29
2276,F#5,327.25,0.25,83,139.29
2277,F#4,327.25,0.25,65,139.29
2278,F5,327.5,0.25,82,139.29
2279,F4,327.5,0.25,65,139.29
2280,E-5,327.75,0.25,82,139.29
2281,E-4,327.75,0.25,64,139.29
2282,C#5,328.0,0.25,81,139.29
2283,C#4,328.0,0.25,64,139.29
2284,C5,328.25,0.25,81,139.29
2285,C4,328.25,0.25,64,139.29
2286,B-4,328.5,0.25,80,139.29
2287,B-3,328.5,0.25,63,139.29
2288,G#4,328.75,0.25,80,139.29
2289,G#3,328.75,0.25,63,139.29
2290,F#4,329.0,0.25,79,139.29
2291,F#3,329.0,0.25,62,139.29
2292,F4,329.25,0.25,79,139.29
2293,F3,329.25,0.25,62,139.29
2294,E-4,329.5,0.25,78,139.29
2295,E-3,329.5,0.25,62,139.29
2296,C#4,329.75,0.25,78,139.29
2297,C#3,329.75,0.25,61,139.29
2298,C4,330.0,0.25,77,139.29
2299,C3,330.0,0.25,61,139.29
2300,B-3,330.25,0.25,77,139.29
2301,B-2,330.25,0.25,61,139.29
2302,G#3,330.5,0.25,76,139.29
2303,G#2,330.5,0.25,60,139.29
2304,F#3,330.75,0.25,76,139.29
2305,F#2,330.75,0.25,60,139.29
2306,F3,331.0,0.25,73,139.29
2307,F2,331.0,0.25,59,139.29
2308,E-3,331.25,0.25,73,139.29
2309,E-2,331.25,0.25,59,139.29
2310,C#3,331.5,0.25,74,139.29
2311,C#2,331.5,0.25,59,139.29
2312,C3,331.75,0.25,76,139.29
2313,C2,331.75,0.25,59,139.29
2314,B-2,332.0,0.25,78,139.29
2315,B-1,332.0,0.25,59,139.29
2316,C3,332.25,0.25,79,139.29
2317,C2,332.25,0.25,59,139.29
2318,C#3,332.5,0.25,81,139.29
2319,C#2,332.5,0.25,62,139.29
2320,B-2,332.75,0.25,82,139.29
2321,C2,332.75,0.25,64,139.29
2322,B-2,333.0,0.5,82,139.29
2323,B-1,333.0,0.5,65,139.29
2324,B1,333.5,0.5,72,139.29
2325,B2,333.5,0.5,80,139.29
2326,D3,333.5,0.5,80,139.29
2327,F3,333.5,0.5,80,139.29
2328,G#3,333.5,0.5,80,139.29
2329,C2,334.0,0.25,89,139.29
2330,C3,334.0,0.25,87,139.29
2331,E3,334.0,0.25,87,139.29
2332,G3,334.0,0.25,87,139.29
2333,C3,334.25,0.25,66,139.29
2334,C4,334.25,0.25,66,139.29
2335,E2,334.5,0.25,76,139.29
2336,C4,334.75,0.25,66,139.29
2337,C3,334.75,0.25,66,139.29
2338,C2,335.0,0.25,76,139.29
2339,C4,335.25,0.25,66,139.29
2340,C3,335.25,0.25,66,139.29
2341,F2,335.5,0.25,76,139.29
2342,C4,335.75,0.25,66,139.29
2343,C3,335.75,0.25,66,139.29
2344,C2,336.0,0.25,76,139.29
2345,C4,336.25,0.25,66,139.29
2346,C3,336.25,0.25,66,139.29
2347,G2,336.5,0.25,76,139.29
2348,C4,336.75,0.25,66,139.29
2349,C3,336.75,0.25,66,139.29
2350,C2,337.0,0.25,76,139.29
2351,C4,337.25,0.25,66,139.29
2352,C3,337.25,0.25,66,139.29
2353,G#2,337.5,0.25,76,139.29
2354,C4,337.75,0.25,66,139.29
2355,C3,337.75,0.25,66,139.29
2356,C2,338.0,0.25,74,139.29
2357,C4,338.25,0.25,64,139.29
2358,C5,338.25,0.25,64,139.29
2359,B-2,338.5,0.25,74,139.29
2360,C4,338.75,0.25,64,139.29
2361,C5,338.75,0.25,64,139.29
2362,C2,339.0,0.25,75,139.29
2363,C4,339.25,0.25,65,139.29
2364,C5,339.25,0.25,65,139.29
2365,G#2,339.5,0.25,76,139.29
2366,C4,339.75,0.25,66,139.29
2367,C5,339.75,0.25,66,139.29
2368,C2,340.0,0.25,77,139.29
2369,C4,340.25,0.25,64,139.29
2370,C5,340.25,0.25,64,139.29
2371,G2,340.5,0.25,78,139.29
2372,C4,340.75,0.25,64,139.29
2373,C5,340.75,0.25,64,139.29
2374,C2,341.0,0.25,79,139.29
2375,C4,341.25,0.25,65,139.29
2376,C5,341.25,0.25,65,139.29
2377,F2,341.5,0.25,80,139.29
2378,C4,341.75,0.25,66,139.29
2379,C5,341.75,0.25,66,139.29
2380,C2,342.0,0.25,81,139.29
2381,C5,342.25,0.25,67,139.29
2382,C6,342.25,0.25,67,139.29
2383,E2,342.5,0.25,82,139.29
2384,C5,342.75,0.25,68,139.29
2385,C6,342.75,0.25,68,139.29
2386,C2,343.0,0.25,82,139.29
2387,C5,343.25,0.25,69,139.29
2388,C6,343.25,0.25,69,139.29
2389,F2,343.5,0.25,83,139.29
2390,C5,343.75,0.25,70,139.29
2391,C6,343.75,0.25,70,139.29
2392,C2,344.0,0.25,84,139.29
2393,C5,344.25,0.25,71,139.29
2394,C6,344.25,0.25,71,139.29
2395,G2,344.5,0.25,85,139.29
2396,C5,344.75,0.25,72,139.29
2397,C6,344.75,0.25,72,139.29
2398,C2,345.0,0.25,86,139.29
2399,C5,345.25,0.25,73,139.29
2400,C6,345.25,0.25,73,139.29
2401,G#2,345.5,0.25,87,139.29
2402,C5,345.75,0.25,74,139.29
2403,C6,345.75,0.25,74,139.29
2404,C2,346.0,0.25,88,139.29
2405,C6,346.25,0.25,75,139.29
2406,C7,346.25,0.25,75,139.29
2407,A2,346.5,0.25,89,139.29
2408,C6,346.75,0.25,76,139.29
2409,C7,346.75,0.25,76,139.29
2410,C2,347.0,0.25,91,139.29
2411,C6,347.25,0.25,78,139.29
2412,C7,347.25,0.25,78,139.29
2413,B-2,347.5,0.25,92,139.29
2414,C6,347.75,0.25,81,139.29
2415,C7,347.75,0.25,81,139.29
2416,C2,348.0,0.25,94,139.29
2417,C6,348.25,0.25,82,139.29
2418,C7,348.25,0.25,82,139.29
2419,B2,348.5,0.25,96,139.29
2420,C6,348.75,0.25,84,139.29
2421,C7,348.75,0.25,84,139.29
2422,C2,349.0,0.25,99,139.29
2423,C6,349.25,0.25,86,139.29
2424,C7,349.25,0.25,86,139.29
2425,C3,349.5,0.25,101,139.29
2426,C6,349.75,0.25,88,139.29
2427,C7,349.75,0.25,88,139.29
2428,B-1,350.0,0.5,90,139.29
2429,F#2,350.0,0.5,90,139.29
2430,C#2,350.0,0.5,90,139.29
2431,B-2,350.0,0.5,90,139.29
2432,C#3,350.25,0.25,72,139.29
2433,F#3,350.5,0.25,75,139.29
2434,B-3,350.75,0.25,76,139.29
2435,C#4,351.0,0.25,90,139.29
2436,B-2,351.25,0.25,71,139.29
2437,C#3,351.5,0.25,74,139.29
2438,F#3,351.75,0.25,76,139.29
2439,B-3,352.0,0.25,91,139.29
2440,C#4,352.25,0.25,72,139.29
2441,F#4,352.5,0.25,75,139.29
2442,B-4,352.75,0.25,76,139.29
2443,C#5,353.0,0.25,88,139.29
2444,B-3,353.25,0.25,73,139.29
2445,C#4,353.5,0.25,76,139.29
2446,F#4,353.75,0.25,78,139.29
2447,B-4,354.0,0.25,86,139.29
2448,C#5,354.25,0.25,77,139.29
2449,F#5,354.5,0.25,79,139.29
2450,B-5,354.75,0.25,81,139.29
2451,C#6,355.0,0.5,89,139.29
2452,C2,358.0,0.5,87,139.29
2453,B-2,358.0,0.5,87,139.29
2454,G2,358.0,0.5,87,139.29
2455,C3,358.0,0.5,87,139.29
2456,E3,358.25,0.25,72,139.29
2457,G3,358.5,0.25,75,139.29
2458,B-3,358.75,0.25,76,139.29
2459,E4,359.0,0.25,89,139.29
2460,C3,359.25,0.25,71,139.29
2461,G3,359.5,0.25,74,139.29
2462,B-3,359.75,0.25,76,139.29
2463,C4,360.0,0.25,90,139.29
2464,E4,360.25,0.25,72,139.29
2465,G4,360.5,0.25,75,139.29
2466,B-4,360.75,0.25,76,139.29
2467,E5,361.0,0.25,87,139.29
2468,C4,361.25,0.25,73,139.29
2469,G4,361.5,0.25,76,139.29
2470,B-4,361.75,0.25,78,139.29
2471,C5,362.0,0.25,89,139.29
2472,E5,362.25,0.25,77,139.29
2473,G5,362.5,0.25,79,139.29
2474,B-5,362.75,0.25,81,139.29
2475,E6,363.0,0.5,93,139.29
2476,C#2,366.0,0.333,58,139.29
2477,C#3,366.333,0.333,50,139.29
2478,E3,366.667,0.333,50,139.29
2479,G3,367.0,0.25,50,139.29
2480,B-3,367.25,0.25,54,139.29
2481,C#4,367.5,0.25,51,139.29
2482,E4,367.75,0.25,53,139.29
2483,G4,368.0,0.5,54,139.29
2484,E2,370.0,0.333,55,139.29
2485,E3,370.333,0.333,47,139.29
2486,G3,370.667,0.333,47,139.29
2487,B-3,371.0,0.25,47,139.29
2488,C#4,371.25,0.25,51,139.29
2489,E4,371.5,0.25,48,139.29
2490,G4,371.75,0.25,50,139.29
2491,B-4,372.0,0.5,51,139.29
2492,G2,374.0,0.333,52,139.29
2493,G3,374.333,0.333,44,139.29
2494,B-3,374.667,0.333,44,139.29
2495,C#4,375.0,0.25,44,139.29
2496,E4,375.25,0.25,48,139.29
2497,G4,375.5,0.25,45,139.29
2498,B-4,375.75,0.25,47,139.29
2499,C#5,376.0,0.5,48,139.29
2500,B-2,378.0,0.333,49,139.29
2501,B-3,378.333,0.333,41,139.29
2502,C#4,378.667,0.333,41,139.29
2503,E4,379.0,0.25,41,139.29
2504,G4,379.25,0.25,45,139.29
2505,B-4,379.5,0.25,42,139.29
2506,C#5,379.75,0.25,44,139.29
2507,E5,380.0,0.5,45,139.29
2508,C#3,382.0,0.5,40,139.29
2509,E3,382.5,0.5,36,139.29
2510,G3,383.0,0.5,36,139.29
2511,B-3,383.5,0.5,36,139.29
2512,C#4,384.0,0.5,35,139.29
2513,E4,384.5,0.5,36,139.29
2514,G4,385.0,0.5,37,139.29
2515,B-4,385.5,0.5,38,139.29
2516,C#5,386.0,0.5,39,139.29
2517,E5,386.5,0.5,40,139.29
2518,G5,387.0,0.5,40,139.29
2519,B-5,387.5,0.5,41,139.29
2520,C#6,388.0,0.5,42,139.29
2521,E6,388.5,0.5,43,139.29
2522,G6,389.0,0.5,44,139.29
2523,B-6,389.5,0.5,46,139.29
2524,G6,390.0,0.5,46,139.29
2525,E6,390.5,0.5,45,139.29
2526,C#6,391.0,0.5,45,139.29
2527,B-5,391.5,0.5,44,139.29
2528,G5,392.0,0.5,44,139.29
2529,E5,392.5,0.5,43,139.29
2530,C#5,393.0,0.5,43,139.29
2531,B-4,393.5,0.5,42,139.29
2532,G4,394.0,0.5,42,139.29
2533,E4,394.5,0.5,41,139.29
2534,C#4,395.0,0.5,40,139.29
2535,B-3,395.5,0.5,38,139.29
2536,G3,396.0,0.5,38,139.29
2537,E3,396.5,0.5,37,139.29
2538,C#3,397.0,0.5,36,139.29
2539,B-2,397.5,0.5,35,139.29
2540,G2,398.0,2.0,35,139.29
2541,E2,400.0,2.0,36,139.29
2542,C#2,402.0,2.0,35,139.29
2543,B-1,404.0,2.0,34,139.29
2544,G1,406.0,4.0,34,139.29
2545,C2,410.0,11.75,34,139.29
2546,E3,410.0,1.5,34,139.29
2547,B-2,410.0,1.5,34,139.29
2548,G2,410.0,1.5,34,139.29
2549,C3,410.0,1.5,34,139.29
2550,G3,414.0,1.5,34,139.29
2551,B-3,414.0,1.5,34,139.29
2552,C4,414.0,1.5,34,139.29
2553,E4,414.0,1.5,34,139.29
2554,G4,416.0,1.5,34,139.29
2555,B-4,416.0,1.5,34,139.29
2556,C5,416.0,1.5,34,139.29
2557,E5,416.0,1.5,34,139.29
2558,E6,418.0,1.5,34,139.29
2559,C6,418.0,1.5,34,139.29
2560,B-5,418.0,1.5,34,139.29
2561,G5,418.0,1.5,34,139.29
2562,B-2,420.0,1.5,34,139.29
2563,G2,420.0,1.5,34,139.29
2564,E3,420.0,1.5,34,139.29
2565,C3,420.0,1.5,34,139.29
2566,C2,421.75,0.25,34,139.29
2567,F2,422.0,1.0,39,139.29
2568,F1,422.0,1.0,39,139.29
2569,C3,422.25,0.25,40,139.29
2570,F3,422.5,0.25,37,139.29
2571,G#3,422.75,0.25,37,139.29
2572,C4,423.0,0.25,40,139.29
2573,C#4,423.25,0.25,38,139.29
2574,C4,423.5,0.25,38,139.29
2575,B-3,423.75,0.25,38,139.29
2576,G#3,424.0,0.25,40,139.29
2577,B-3,424.25,0.25,37,139.29
2578,G#3,424.5,0.25,37,139.29
2579,G3,424.75,0.25,37,139.29
2580,F3,425.0,0.25,40,139.29
2581,G3,425.25,0.25,37,139.29
2582,G#3,425.5,0.25,37,139.29
2583,F3,425.75,0.25,37,139.29
2584,F1,426.0,1.0,40,139.29
2585,F2,426.0,1.0,40,139.29
2586,C3,426.25,0.25,40,139.29
2587,F3,426.5,0.25,37,139.29
2588,G#3,426.75,0.25,37,139.29
2589,C4,427.0,0.25,40,139.29
2590,C#4,427.25,0.25,38,139.29
2591,C4,427.5,0.25,38,139.29
2592,B-3,427.75,0.25,38,139.29
2593,G#4,427.75,0.25,51,139.29
2594,C5,427.75,0.25,51,139.29
2595,G#3,428.0,0.25,40,139.29
2596,G#4,428.0,1.0,56,139.29
2597,C5,428.0,1.0,56,139.29
2598,B-3,428.25,0.25,37,139.29
2599,G#3,428.5,0.25,37,139.29
2600,G3,428.75,0.25,37,139.29
2601,F3,429.0,0.25,40,139.29
2602,G#4,429.0,0.5,30,139.29
2603,F4,429.0,0.5,30,139.29
2604,G3,429.25,0.25,37,139.29
2605,G#3,429.5,0.25,37,139.29
2606,F3,429.75,0.25,37,139.29
2607,B-1,430.0,1.0,40,139.29
2608,B-2,430.0,1.0,40,139.29
2609,C#3,430.25,0.25,44,139.29
2610,F#3,430.5,0.25,40,139.29
2611,B-3,430.75,0.25,40,139.29
2612,C#4,431.0,0.25,44,139.29
2613,E-4,431.25,0.25,41,139.29
2614,C#4,431.5,0.25,41,139.29
2615,C4,431.75,0.25,41,139.29
2616,C#5,431.75,0.25,63,139.29
2617,B-4,431.75,0.25,63,139.29
2618,B-3,432.0,0.25,44,139.29
2619,C#5,432.0,2.0,70,139.29
2620,B-4,432.0,2.0,70,139.29
2621,C4,432.25,0.25,40,139.29
2622,B-3,432.5,0.25,40,139.29
2623,G#3,432.75,0.25,40,139.29
2624,F#3,433.0,0.25,44,139.29
2625,G#3,433.25,0.25,40,139.29
2626,F#3,433.5,0.25,40,139.29
2627,F3,433.75,0.25,40,139.29
2628,E3,434.0,0.25,44,139.29
2629,B-4,434.0,0.5,51,139.29
2630,C5,434.0,0.5,51,139.29
2631,F3,434.25,0.25,40,139.29
2632,G3,434.5,0.25,40,139.29
2633,C3,434.5,0.5,43,139.29
2634,C2,434.5,0.5,43,139.29
2635,E3,434.75,0.25,40,139.29
2636,F3,435.0,0.25,44,139.29
2637,G3,435.25,0.25,40,139.29
2638,G#3,435.5,0.25,40,139.29
2639,C#2,435.5,0.5,37,139.29
2640,C#3,435.5,0.5,37,139.29
2641,F3,435.75,0.25,40,139.29
2642,G3,436.0,0.25,44,139.29
2643,G#3,436.25,0.25,40,139.29
2644,B-3,436.5,0.25,40,139.29
2645,B-1,436.5,0.5,39,139.29
2646,B-2,436.5,0.5,39,139.29
2647,G3,436.75,0.25,40,139.29
2648,E3,437.0,0.25,44,139.29
2649,F3,437.25,0.25,37,139.29
2650,G3,437.5,0.25,38,139.29
2651,C2,437.5,0.5,35,139.29
2652,C3,437.5,0.5,35,139.29
2653,E3,437.75,0.25,40,139.29
2654,F3,438.0,1.0,38,139.29
2655,F2,438.0,0.25,40,139.29
2656,F1,438.0,0.25,40,139.29
2657,C3,438.25,0.25,37,139.29
2658,F3,438.5,0.25,37,139.29
2659,G#3,438.75,0.25,40,139.29
2660,C4,439.0,0.25,38,139.29
2661,C#4,439.25,0.25,38,139.29
2662,E4,439.5,0.25,57,139.29
2663,C4,439.5,0.25,38,139.29
2664,B-3,439.75,0.25,40,139.29
2665,F4,440.0,0.25,62,139.29
2666,G#3,440.0,0.25,37,139.29
2667,B-3,440.25,0.25,37,139.29
2668,G4,440.5,0.25,57,139.29
2669,G#3,440.5,0.25,37,139.29
2670,G3,440.75,0.25,40,139.29
2671,G#4,441.0,0.25,62,139.29
2672,F3,441.0,0.25,37,139.29
2673,G3,441.25,0.25,37,139.29
2674,F4,441.5,0.25,59,139.29
2675,G#3,441.5,0.25,37,139.29
2676,F3,441.75,0.25,37,139.29
2677,G#3,442.0,0.25,40,139.29
2678,C3,442.25,0.25,37,139.29
2679,F3,442.5,0.25,37,139.29
2680,G#3,442.75,0.25,40,139.29
2681,C4,443.0,0.25,38,139.29
2682,C#4,443.25,0.25,38,139.29
2683,C4,443.5,0.25,38,139.29
2684,E5,443.5,0.25,56,139.29
2685,E4,443.5,0.25,56,139.29
2686,B-3,443.75,0.25,40,139.29
2687,G#3,444.0,0.25,37,139.29
2688,F5,444.0,0.25,62,139.29
2689,F4,444.0,0.25,62,139.29
2690,B-3,444.25,0.25,37,139.29
2691,G#3,444.5,0.25,37,139.29
2692,G4,444.5,0.25,58,139.29
2693,G5,444.5,0.25,58,139.29
2694,G3,444.75,0.25,40,139.29
2695,F3,445.0,0.25,37,139.29
2696,G#4,445.0,0.25,62,139.29
2697,G#5,445.0,0.25,62,139.29
2698,G3,445.25,0.25,37,139.29
2699,G#3,445.5,0.25,37,139.29
2700,F4,445.5,0.25,58,139.29
2701,F5,445.5,0.25,58,139.29
2702,F3,445.75,0.25,37,139.29
2703,B-3,446.0,0.25,44,139.29
2704,C#3,446.25,0.25,40,139.29
2705,F#3,446.5,0.25,40,139.29
2706,B-3,446.75,0.25,44,139.29
2707,C#4,447.0,0.25,41,139.29
2708,E-4,447.25,0.25,41,139.29
2709,C#4,447.5,0.25,41,139.29
2710,F4,447.5,0.5,65,139.29
2711,F5,447.5,0.5,65,139.29
2712,C4,447.75,0.25,44,139.29
2713,B-3,448.0,0.25,40,139.29
2714,F#4,448.0,0.5,70,139.29
2715,F#5,448.0,0.5,70,139.29
2716,C4,448.25,0.25,40,139.29
2717,B-3,448.5,0.25,40,139.29
2718,B-4,448.5,0.5,72,139.29
2719,B-5,448.5,0.5,72,139.29
2720,G#3,448.75,0.25,44,139.29
2721,F#3,449.0,0.25,40,139.29
2722,C#5,449.0,0.25,75,139.29
2723,C#6,449.0,0.25,75,139.29
2724,G#3,449.25,0.25,40,139.29
2725,F#3,449.5,0.25,40,139.29
2726,C#5,449.5,0.25,72,139.29
2727,C#6,449.5,0.25,72,139.29
2728,F3,449.75,0.25,44,139.29
2729,E3,450.0,0.25,40,139.29
2730,C#5,450.0,1.0,77,139.29
2731,C#6,450.0,1.0,77,139.29
2732,F3,450.25,0.25,40,139.29
2733,G3,450.5,0.25,40,139.29
2734,G#3,450.75,0.25,44,139.29
2735,B-3,451.0,0.25,40,139.29
2736,C6,451.0,2.0,71,139.29
2737,C5,451.0,2.0,71,139.29
2738,G#3,451.25,0.25,40,139.29
2739,G3,451.5,0.25,40,139.29
2740,F3,451.75,0.25,44,139.29
2741,E3,452.0,0.25,40,139.29
2742,F3,452.25,0.25,40,139.29
2743,E3,452.5,0.25,40,139.29
2744,C#3,452.75,0.25,44,139.29
2745,C3,453.0,0.25,37,139.29
2746,E4,453.0,1.0,64,139.29
2747,E5,453.0,1.0,64,139.29
2748,B-2,453.25,0.25,38,139.29
2749,G#2,453.5,0.25,40,139.29
2750,G2,453.75,0.25,40,139.29
2751,F2,454.0,1.0,44,139.29
2752,F5,454.0,0.25,57,139.29
2753,F4,454.0,0.25,57,139.29
2754,C4,454.25,0.25,41,139.29
2755,F4,454.5,0.25,44,139.29
2756,G#4,454.75,0.25,46,139.29
2757,C5,455.0,0.25,43,139.29
2758,C4,455.25,0.25,45,139.29
2759,F4,455.5,0.25,46,139.29
2760,G#4,455.75,0.25,48,139.29
2761,G#3,455.75,0.25,52,139.29
2762,F3,455.75,0.25,52,139.29
2763,F3,456.0,1.0,65,139.29
2764,G#3,456.0,1.0,65,139.29
2765,C4,456.25,0.25,46,139.29
2766,F4,456.5,0.25,47,139.29
2767,G#4,456.75,0.25,49,139.29
2768,C5,457.0,0.25,50,139.29
2769,C4,457.25,0.25,52,139.29
2770,F4,457.5,0.25,53,139.29
2771,G#4,457.75,0.25,38,139.29
2772,G#3,457.75,0.25,54,139.29
2773,F3,457.75,0.25,54,139.29
2774,C3,458.0,2.0,66,139.29
2775,G#3,458.0,2.0,66,139.29
2776,F3,458.0,2.0,66,139.29
2777,B3,458.25,0.25,51,139.29
2778,D4,458.5,0.25,52,139.29
2779,G#4,458.75,0.25,52,139.29
2780,B4,459.0,1.0,54,139.29
2781,B3,459.25,0.25,52,139.29
2782,D4,459.5,0.25,52,139.29
2783,G#4,459.75,0.25,52,139.29
2784,B4,460.0,1.0,54,139.29
2785,E3,460.0,0.5,48,139.29
2786,C3,460.0,0.5,48,139.29
2787,G3,460.0,0.5,48,139.29
2788,B3,460.25,0.25,52,139.29
2789,E4,460.5,0.25,50,139.29
2790,G4,460.75,0.25,49,139.29
2791,C5,461.0,1.0,52,139.29
2792,C4,461.25,0.25,46,139.29
2793,E4,461.5,0.25,44,139.29
2794,G4,461.75,0.25,38,139.29
2795,C3,462.0,1.0,42,139.29
2796,C2,462.0,1.0,42,139.29
2797,C4,462.25,0.25,38,139.29
2798,E4,462.5,0.25,40,139.29
2799,G4,462.75,0.25,42,139.29
2800,C5,463.0,0.25,43,139.29
2801,C4,463.25,0.25,45,139.29
2802,E4,463.5,0.25,46,139.29
2803,G4,463.75,0.25,48,139.29
2804,B-3,463.75,0.25,60,139.29
2805,G3,463.75,0.25,60,139.29
2806,G3,464.0,1.0,68,139.29
2807,B-3,464.0,1.0,68,139.29
2808,C4,464.25,0.25,46,139.29
2809,E4,464.5,0.25,47,139.29
2810,G4,464.75,0.25,49,139.29
2811,C5,465.0,0.25,50,139.29
2812,C4,465.25,0.25,52,139.29
2813,E4,465.5,0.25,53,139.29
2814,G4,465.75,0.25,38,139.29
2815,G3,465.75,0.25,61,139.29
2816,B-3,465.75,0.25,61,139.29
2817,F3,466.0,2.0,62,139.29
2818,B-3,466.0,2.0,62,139.29
2819,G3,466.0,2.0,62,139.29
2820,C4,466.25,0.25,51,139.29
2821,E4,466.5,0.25,52,139.29
2822,G4,466.75,0.25,52,139.29
2823,C5,467.0,1.0,54,139.29
2824,C4,467.25,0.25,52,139.29
2825,E4,467.5,0.25,52,139.29
2826,G4,467.75,0.25,52,139.29
2827,C5,468.0,1.0,53,139.29
2828,F3,468.0,0.5,50,139.29
2829,G#3,468.0,0.5,50,139.29
2830,C4,468.25,0.25,52,139.29
2831,E4,468.5,0.25,50,139.29
2832,G4,468.75,0.25,49,139.29
2833,C5,469.0,1.0,47,139.29
2834,C4,469.25,0.25,46,139.29
2835,F4,469.5,0.25,44,139.29
2836,G#4,469.75,0.25,38,139.29
2837,F2,470.0,1.0,45,139.29
2838,F3,470.0,1.0,45,139.29
2839,F4,470.25,0.25,38,139.29
2840,A4,470.5,0.25,40,139.29
2841,C5,470.75,0.25,42,139.29
2842,F5,471.0,0.25,43,139.29
2843,F4,471.25,0.25,45,139.29
2844,A4,471.5,0.25,46,139.29
2845,C5,471.75,0.25,48,139.29
2846,E-4,471.75,0.25,59,139.29
2847,C4,471.75,0.25,59,139.29
2848,C4,472.0,1.0,68,139.29
2849,E-4,472.0,1.0,68,139.29
2850,F4,472.25,0.25,46,139.29
2851,A4,472.5,0.25,47,139.29
2852,C5,472.75,0.25,49,139.29
2853,F5,473.0,0.25,50,139.29
2854,F4,473.25,0.25,52,139.29
2855,A4,473.5,0.25,53,139.29
2856,C5,473.75,0.25,54,139.29
2857,C4,473.75,0.25,66,139.29
2858,E-4,473.75,0.25,66,139.29
2859,B-3,474.0,2.5,72,139.29
2860,E-4,474.0,2.5,72,139.29
2861,C4,474.0,2.5,72,139.29
2862,F4,474.25,0.25,50,139.29
2863,A4,474.5,0.25,50,139.29
2864,C5,474.75,0.25,50,139.29
2865,F5,475.0,1.0,55,139.29
2866,F4,475.25,0.25,53,139.29
2867,A4,475.5,0.25,52,139.29
2868,C5,475.75,0.25,52,139.29
2869,A4,476.0,0.25,54,139.29
2870,F4,476.0,0.25,54,139.29
2871,F5,476.25,0.25,54,139.29
2872,F4,476.5,0.25,53,139.29
2873,B-4,476.5,0.25,53,139.29
2874,C#4,476.5,0.5,64,139.29
2875,B-3,476.5,0.5,64,139.29
2876,F5,476.75,0.25,52,139.29
2877,F4,477.0,0.25,52,139.29
2878,C5,477.0,0.25,52,139.29
2879,C4,477.0,0.5,61,139.29
2880,G#3,477.0,0.5,61,139.29
2881,F5,477.25,0.25,51,139.29
2882,C#5,477.5,0.25,50,139.29
2883,F4,477.5,0.25,50,139.29
2884,B-3,477.5,0.5,59,139.29
2885,G3,477.5,0.5,59,139.29
2886,F5,477.75,0.25,50,139.29
2887,C3,478.0,1.0,56,139.29
2888,G#3,478.0,1.0,56,139.29
2889,F3,478.0,1.0,56,139.29
2890,C4,478.25,0.25,52,139.29
2891,F4,478.5,0.25,49,139.29
2892,G#4,478.75,0.25,50,139.29
2893,C5,479.0,1.0,56,139.29
2894,C4,479.25,0.25,50,139.29
2895,F4,479.5,0.25,50,139.29
2896,G#4,479.75,0.25,50,139.29
2897,G#3,479.75,0.25,56,139.29
2898,F3,479.75,0.25,56,139.29
2899,C5,480.0,1.0,56,139.29
2900,C3,480.0,1.0,63,139.29
2901,B-3,480.0,1.0,63,139.29
2902,G3,480.0,1.0,63,139.29
2903,C4,480.25,0.25,52,139.29
2904,G4,480.5,0.25,52,139.29
2905,B-4,480.75,0.25,52,139.29
2906,C5,481.0,1.0,56,139.29
2907,C4,481.25,0.25,52,139.29
2908,E4,481.5,0.25,52,139.29
2909,G4,481.75,0.25,52,139.29
2910,G3,481.75,0.25,53,139.29
2911,E3,481.75,0.25,53,139.29
2912,F3,482.0,0.25,56,139.29
2913,C4,482.0,1.0,59,139.29
2914,F4,482.0,1.0,59,139.29
2915,G#4,482.0,1.0,59,139.29
2916,C5,482.0,1.0,59,139.29
2917,C4,482.25,0.25,49,139.29
2918,G#3,482.5,0.25,49,139.29
2919,F3,482.75,0.25,49,139.29
2920,C3,483.0,0.25,53,139.29
2921,G#3,483.25,0.25,49,139.29
2922,F3,483.5,0.25,49,139.29
2923,C3,483.75,0.25,49,139.29
2924,G#5,483.75,0.25,69,139.29
2925,F5,483.75,0.25,69,139.29
2926,G#2,484.0,0.25,53,139.29
2927,G#5,484.0,1.0,74,139.29
2928,F5,484.0,1.0,74,139.29
2929,F3,484.25,0.25,49,139.29
2930,C3,484.5,0.25,49,139.29
2931,G#2,484.75,0.25,49,139.29
2932,F2,485.0,0.25,53,139.29
2933,C3,485.25,0.25,49,139.29
2934,G#2,485.5,0.25,49,139.29
2935,F2,485.75,0.25,49,139.29
2936,G#5,485.75,0.25,70,139.29
2937,F5,485.75,0.25,70,139.29
2938,C2,486.0,0.25,53,139.29
2939,G#5,486.0,2.0,75,139.29
2940,F5,486.0,2.0,75,139.29
2941,F2,486.25,0.25,49,139.29
2942,G#2,486.5,0.25,49,139.29
2943,C3,486.75,0.25,49,139.29
2944,B2,487.0,0.25,53,139.29
2945,C3,487.25,0.25,49,139.29
2946,B2,487.5,0.25,49,139.29
2947,C3,487.75,0.25,49,139.29
2948,B2,488.0,0.25,53,139.29
2949,G5,488.0,0.5,68,139.29
2950,E5,488.0,0.5,68,139.29
2951,C3,488.25,0.25,49,139.29
2952,G2,488.5,0.25,49,139.29
2953,C3,488.75,0.25,49,139.29
2954,E2,489.0,0.25,53,139.29
2955,C3,489.25,0.25,49,139.29
2956,G2,489.5,0.25,49,139.29
2957,C3,489.75,0.25,49,139.29
2958,C2,490.0,0.25,56,139.29
2959,E2,490.25,0.25,49,139.29
2960,G2,490.5,0.25,49,139.29
2961,C3,490.75,0.25,49,139.29
2962,E2,491.0,0.25,53,139.29
2963,G2,491.25,0.25,49,139.29
2964,C3,491.5,0.25,49,139.29
2965,E3,491.75,0.25,49,139.29
2966,B-5,491.75,0.25,75,139.29
2967,G5,491.75,0.25,75,139.29
2968,G2,492.0,0.25,53,139.29
2969,B-5,492.0,1.0,81,139.29
2970,G5,492.0,1.0,81,139.29
2971,C3,492.25,0.25,49,139.29
2972,E3,492.5,0.25,49,139.29
2973,G3,492.75,0.25,49,139.29
2974,C3,493.0,0.25,53,139.29
2975,E3,493.25,0.25,49,139.29
2976,G3,493.5,0.25,49,139.29
2977,C4,493.75,0.25,49,139.29
2978,B-5,493.75,0.25,77,139.29
2979,G5,493.75,0.25,77,139.29
2980,F3,494.0,0.25,59,139.29
2981,B-5,494.0,2.0,82,139.29
2982,G5,494.0,2.0,82,139.29
2983,G#3,494.25,0.25,49,139.29
2984,C4,494.5,0.25,49,139.29
2985,F4,494.75,0.25,49,139.29
2986,E4,495.0,0.25,53,139.29
2987,F4,495.25,0.25,49,139.29
2988,E4,495.5,0.25,49,139.29
2989,F4,495.75,0.25,49,139.29
2990,E4,496.0,0.25,53,139.29
2991,G#5,496.0,0.5,74,139.29
2992,F5,496.0,0.5,74,139.29
2993,F4,496.25,0.25,49,139.29
2994,C4,496.5,0.25,49,139.29
2995,F4,496.75,0.25,49,139.29
2996,G#3,497.0,0.25,53,139.29
2997,F4,497.25,0.25,49,139.29
2998,C4,497.5,0.25,49,139.29
2999,F4,497.75,0.25,49,139.29
3000,F3,498.0,0.25,61,139.29
3001,A3,498.25,0.25,53,139.29
3002,C4,498.5,0.25,53,139.29
3003,F4,498.75,0.25,53,139.29
3004,A3,499.0,0.25,58,139.29
3005,C4,499.25,0.25,53,139.29
3006,F4,499.5,0.25,53,139.29
3007,A4,499.75,0.25,53,139.29
3008,E-6,499.75,0.25,82,139.29
3009,C6,499.75,0.25,82,139.29
3010,C4,500.0,0.25,58,139.29
3011,E-6,500.0,1.0,89,139.29
3012,C6,500.0,1.0,89,139.29
3013,F4,500.25,0.25,53,139.29
3014,A4,500.5,0.25,53,139.29
3015,C5,500.75,0.25,53,139.29
3016,F4,501.0,0.25,58,139.29
3017,A4,501.25,0.25,53,139.29
3018,C5,501.5,0.25,53,139.29
3019,F5,501.75,0.25,53,139.29
3020,E-6,501.75,0.25,84,139.29
3021,C6,501.75,0.25,84,139.29
3022,A4,502.0,0.25,67,139.29
3023,E-6,502.0,2.5,90,139.29
3024,C6,502.0,2.5,90,139.29
3025,F5,502.25,0.25,53,139.29
3026,E5,502.5,0.25,53,139.29
3027,F5,502.75,0.25,53,139.29
3028,A4,503.0,0.25,58,139.29
3029,F5,503.25,0.25,53,139.29
3030,A4,503.5,0.25,53,139.29
3031,F5,503.75,0.25,53,139.29
3032,A4,504.0,0.25,57,139.29
3033,F5,504.25,0.25,56,139.29
3034,B-4,504.5,0.25,56,139.29
3035,C#6,504.5,0.5,79,139.29
3036,B-5,504.5,0.5,79,139.29
3037,F5,504.75,0.25,55,139.29
3038,C5,505.0,0.25,54,139.29
3039,C6,505.0,0.5,77,139.29
3040,G#5,505.0,0.5,77,139.29
3041,F5,505.25,0.25,53,139.29
3042,C#5,505.5,0.25,52,139.29
3043,B-5,505.5,0.5,73,139.29
3044,G5,505.5,0.5,73,139.29
3045,F5,505.75,0.25,52,139.29
3046,C4,506.0,0.25,52,139.29
3047,G#5,506.0,1.0,82,139.29
3048,F5,506.0,1.0,82,139.29
3049,F4,506.25,0.25,47,139.29
3050,G#4,506.5,0.25,47,139.29
3051,C5,506.75,0.25,47,139.29
3052,B4,507.0,0.25,52,139.29
3053,C5,507.25,0.25,47,139.29
3054,B4,507.5,0.25,47,139.29
3055,C5,507.75,0.25,47,139.29
3056,F6,507.75,0.25,79,139.29
3057,G#5,507.75,0.25,79,139.29
3058,F5,507.75,0.25,79,139.29
3059,C4,508.0,0.25,52,139.29
3060,G6,508.0,1.0,82,139.29
3061,B-5,508.0,1.0,82,139.29
3062,G5,508.0,1.0,82,139.29
3063,E4,508.25,0.25,47,139.29
3064,G4,508.5,0.25,47,139.29
3065,C5,508.75,0.25,47,139.29
3066,C4,509.0,0.25,52,139.29
3067,G4,509.25,0.25,47,139.29
3068,B-4,509.5,0.25,47,139.29
3069,C5,509.75,0.25,47,139.29
3070,E6,509.75,0.25,79,139.29
3071,G5,509.75,0.25,79,139.29
3072,E5,509.75,0.25,79,139.29
3073,F3,510.0,0.25,52,139.29
3074,F6,510.0,0.25,73,139.29
3075,G#5,510.0,0.25,73,139.29
3076,F5,510.0,0.25,73,139.29
3077,C5,510.25,0.25,61,139.29
3078,F4,510.25,0.25,38,139.29
3079,G#4,510.25,0.25,38,139.29
3080,F5,510.5,0.25,62,139.29
3081,C4,510.5,0.25,39,139.29
3082,C5,510.5,0.25,39,139.29
3083,G#5,510.75,0.25,63,139.29
3084,G#4,510.75,0.25,41,139.29
3085,F4,510.75,0.25,41,139.29
3086,C6,511.0,0.25,68,139.29
3087,C5,511.0,0.25,45,139.29
3088,C4,511.0,0.25,45,139.29
3089,C#6,511.25,0.25,65,139.29
3090,F4,511.25,0.25,44,139.29
3091,G#4,511.25,0.25,44,139.29
3092,C6,511.5,0.25,66,139.29
3093,C5,511.5,0.25,45,139.29
3094,C4,511.5,0.25,45,139.29
3095,B-5,511.75,0.25,65,139.29
3096,F4,511.75,0.25,45,139.29
3097,G#4,511.75,0.25,45,139.29
3098,G#5,512.0,0.25,68,139.29
3099,C4,512.0,0.25,46,139.29
3100,C5,512.0,0.25,46,139.29
3101,B-5,512.25,0.25,67,139.29
3102,F4,512.25,0.25,46,139.29
3103,G#4,512.25,0.25,46,139.29
3104,G#5,512.5,0.25,66,139.29
3105,C4,512.5,0.25,45,139.29
3106,C5,512.5,0.25,45,139.29
3107,G5,512.75,0.25,65,139.29
3108,G#4,512.75,0.25,45,139.29
3109,F4,512.75,0.25,45,139.29
3110,F5,513.0,0.25,64,139.29
3111,C5,513.0,0.25,45,139.29
3112,C4,513.0,0.25,45,139.29
3113,G5,513.25,0.25,63,139.29
3114,F4,513.25,0.25,44,139.29
3115,G#4,513.25,0.25,44,139.29
3116,G#5,513.5,0.25,63,139.29
3117,C5,513.5,0.25,44,139.29
3118,C4,513.5,0.25,44,139.29
3119,F5,513.75,0.25,62,139.29
3120,F4,513.75,0.25,43,139.29
3121,G#4,513.75,0.25,43,139.29
3122,F3,514.0,0.25,54,139.29
3123,C5,514.25,0.25,61,139.29
3124,F4,514.25,0.25,38,139.29
3125,G#4,514.25,0.25,38,139.29
3126,F5,514.5,0.25,62,139.29
3127,C5,514.5,0.25,39,139.29
3128,C4,514.5,0.25,39,139.29
3129,G#5,514.75,0.25,63,139.29
3130,F4,514.75,0.25,41,139.29
3131,G#4,514.75,0.25,41,139.29
3132,C6,515.0,0.25,68,139.29
3133,C5,515.0,0.25,45,139.29
3134,C4,515.0,0.25,45,139.29
3135,C#6,515.25,0.25,65,139.29
3136,F4,515.25,0.25,44,139.29
3137,G#4,515.25,0.25,44,139.29
3138,C6,515.5,0.25,66,139.29
3139,C5,515.5,0.25,45,139.29
3140,C4,515.5,0.25,45,139.29
3141,B-5,515.75,0.25,65,139.29
3142,G#4,515.75,0.25,45,139.29
3143,F4,515.75,0.25,45,139.29
3144,G#5,516.0,0.25,68,139.29
3145,C4,516.0,0.25,46,139.29
3146,C5,516.0,0.25,46,139.29
3147,B-5,516.25,0.25,67,139.29
3148,F4,516.25,0.25,46,139.29
3149,G#4,516.25,0.25,46,139.29
3150,G#5,516.5,0.25,66,139.29
3151,C5,516.5,0.25,45,139.29
3152,C4,516.5,0.25,45,139.29
3153,G5,516.75,0.25,65,139.29
3154,F4,516.75,0.25,45,139.29
3155,G#4,516.75,0.25,45,139.29
3156,F5,517.0,0.25,64,139.29
3157,C4,517.0,0.25,45,139.29
3158,C5,517.0,0.25,45,139.29
3159,G5,517.25,0.25,63,139.29
3160,G#4,517.25,0.25,44,139.29
3161,F4,517.25,0.25,44,139.29
3162,G#5,517.5,0.25,63,139.29
3163,C5,517.5,0.25,44,139.29
3164,C4,517.5,0.25,44,139.29
3165,F5,517.75,0.25,62,139.29
3166,G#4,517.75,0.25,43,139.29
3167,F4,517.75,0.25,43,139.29
3168,G#2,518.0,0.25,55,139.29
3169,F#5,518.25,0.25,64,139.29
3170,F#3,518.25,0.25,40,139.29
3171,G#3,518.25,0.25,40,139.29
3172,C6,518.5,0.25,65,139.29
3173,C4,518.5,0.25,41,139.29
3174,E-3,518.5,0.25,41,139.29
3175,E-6,518.75,0.25,66,139.29
3176,F#3,518.75,0.25,43,139.29
3177,G#3,518.75,0.25,43,139.29
3178,F#6,519.0,0.25,72,139.29
3179,C4,519.0,0.25,47,139.29
3180,E-3,519.0,0.25,47,139.29
3181,G#6,519.25,0.25,69,139.29
3182,F#3,519.25,0.25,46,139.29
3183,G#3,519.25,0.25,46,139.29
3184,F#6,519.5,0.25,70,139.29
3185,C4,519.5,0.25,47,139.29
3186,E-3,519.5,0.25,47,139.29
3187,F6,519.75,0.25,69,139.29
3188,G#3,519.75,0.25,48,139.29
3189,F#3,519.75,0.25,48,139.29
3190,E-6,520.0,0.25,72,139.29
3191,E-3,520.0,0.25,49,139.29
3192,C4,520.0,0.25,49,139.29
3193,F6,520.25,0.25,71,139.29
3194,G#3,520.25,0.25,49,139.29
3195,F#3,520.25,0.25,49,139.29
3196,E-6,520.5,0.25,70,139.29
3197,E-3,520.5,0.25,48,139.29
3198,C4,520.5,0.25,48,139.29
3199,C#6,520.75,0.25,69,139.29
3200,F#3,520.75,0.25,47,139.29
3201,G#3,520.75,0.25,47,139.29
3202,C6,521.0,0.25,68,139.29
3203,C4,521.0,0.25,47,139.29
3204,E-3,521.0,0.25,47,139.29
3205,C#6,521.25,0.25,67,139.29
3206,F#3,521.25,0.25,46,139.29
3207,G#3,521.25,0.25,46,139.29
3208,E-6,521.5,0.25,66,139.29
3209,C4,521.5,0.25,46,139.29
3210,E-3,521.5,0.25,46,139.29
3211,C6,521.75,0.25,65,139.29
3212,G#3,521.75,0.25,45,139.29
3213,F#3,521.75,0.25,45,139.29
3214,G#2,522.0,0.25,54,139.29
3215,F#5,522.25,0.25,64,139.29
3216,F#3,522.25,0.25,40,139.29
3217,G#3,522.25,0.25,40,139.29
3218,C6,522.5,0.25,65,139.29
3219,C4,522.5,0.25,41,139.29
3220,E-3,522.5,0.25,41,139.29
3221,E-6,522.75,0.25,66,139.29
3222,F#3,522.75,0.25,43,139.29
3223,G#3,522.75,0.25,43,139.29
3224,F#6,523.0,0.25,72,139.29
3225,C4,523.0,0.25,47,139.29
3226,E-3,523.0,0.25,47,139.29
3227,G#6,523.25,0.25,69,139.29
3228,F#3,523.25,0.25,46,139.29
3229,G#3,523.25,0.25,46,139.29
3230,F#6,523.5,0.25,70,139.29
3231,E-3,523.5,0.25,47,139.29
3232,C4,523.5,0.25,47,139.29
3233,F6,523.75,0.25,69,139.29
3234,G#3,523.75,0.25,48,139.29
3235,F#3,523.75,0.25,48,139.29
3236,E-6,524.0,0.25,72,139.29
3237,C4,524.0,0.25,49,139.29
3238,E-3,524.0,0.25,49,139.29
3239,F6,524.25,0.25,71,139.29
3240,F#3,524.25,0.25,49,139.29
3241,G#3,524.25,0.25,49,139.29
3242,E-6,524.5,0.25,70,139.29
3243,C4,524.5,0.25,48,139.29
3244,E-3,524.5,0.25,48,139.29
3245,C#6,524.75,0.25,69,139.29
3246,G#3,524.75,0.25,47,139.29
3247,F#3,524.75,0.25,47,139.29
3248,C6,525.0,0.25,68,139.29
3249,E-3,525.0,0.25,47,139.29
3250,C4,525.0,0.25,47,139.29
3251,B-5,525.25,0.25,67,139.29
3252,F#3,525.25,0.25,46,139.29
3253,G#3,525.25,0.25,46,139.29
3254,G#5,525.5,0.25,66,139.29
3255,E-3,525.5,0.25,46,139.29
3256,C4,525.5,0.25,46,139.29
3257,F#5,525.75,0.25,65,139.29
3258,G#3,525.75,0.25,45,139.29
3259,F#3,525.75,0.25,45,139.29
3260,F5,526.0,0.25,68,139.29
3261,C#3,526.0,0.25,56,139.29
3262,G#5,526.25,0.25,67,139.29
3263,C#4,526.25,0.25,42,139.29
3264,F4,526.25,0.25,42,139.29
3265,C#6,526.5,0.25,68,139.29
3266,G#4,526.5,0.25,43,139.29
3267,G#3,526.5,0.25,43,139.29
3268,F6,526.75,0.25,69,139.29
3269,F4,526.75,0.25,45,139.29
3270,C#4,526.75,0.25,45,139.29
3271,G#6,527.0,0.25,75,139.29
3272,G#3,527.0,0.25,49,139.29
3273,G#4,527.0,0.25,49,139.29
3274,B-6,527.25,0.25,72,139.29
3275,C#4,527.25,0.25,48,139.29
3276,F4,527.25,0.25,48,139.29
3277,G#6,527.5,0.25,73,139.29
3278,G#4,527.5,0.25,49,139.29
3279,G#3,527.5,0.25,49,139.29
3280,F#6,527.75,0.25,72,139.29
3281,C#4,527.75,0.25,50,139.29
3282,F4,527.75,0.25,50,139.29
3283,F6,528.0,0.25,75,139.29
3284,G#4,528.0,0.25,51,139.29
3285,G#3,528.0,0.25,51,139.29
3286,F#6,528.25,0.25,74,139.29
3287,C#4,528.25,0.25,51,139.29
3288,F4,528.25,0.25,51,139.29
3289,F6,528.5,0.25,73,139.29
3290,G#3,528.5,0.25,50,139.29
3291,G#4,528.5,0.25,50,139.29
3292,E-6,528.75,0.25,72,139.29
3293,F4,528.75,0.25,49,139.29
3294,C#4,528.75,0.25,49,139.29
3295,C#6,529.0,0.25,71,139.29
3296,G#4,529.0,0.25,49,139.29
3297,G#3,529.0,0.25,49,139.29
3298,E-6,529.25,0.25,70,139.29
3299,C#4,529.25,0.25,48,139.29
3300,F4,529.25,0.25,48,139.29
3301,F6,529.5,0.25,69,139.29
3302,G#4,529.5,0.25,48,139.29
3303,G#3,529.5,0.25,48,139.29
3304,C#6,529.75,0.25,68,139.29
3305,C#4,529.75,0.25,47,139.29
3306,F4,529.75,0.25,47,139.29
3307,C#3,530.0,0.25,56,139.29
3308,G#5,530.25,0.25,67,139.29
3309,C#4,530.25,0.25,42,139.29
3310,F4,530.25,0.25,42,139.29
3311,C#6,530.5,0.25,68,139.29
3312,G#4,530.5,0.25,43,139.29
3313,G#3,530.5,0.25,43,139.29
3314,F6,530.75,0.25,69,139.29
3315,C#4,530.75,0.25,45,139.29
3316,F4,530.75,0.25,45,139.29
3317,G#6,531.0,0.25,76,139.29
3318,G#4,531.0,0.5,49,139.29
3319,B-6,531.25,0.25,74,139.29
3320,G#6,531.5,0.25,75,139.29
3321,C#5,531.5,0.5,55,139.29
3322,F#6,531.75,0.25,74,139.29
3323,F6,532.0,0.25,78,139.29
3324,F5,532.0,0.5,58,139.29
3325,F#6,532.25,0.25,77,139.29
3326,G#6,532.5,0.25,77,139.29
3327,G#5,532.5,0.5,62,139.29
3328,F#6,532.75,0.25,76,139.29
3329,F6,533.0,0.25,75,139.29
3330,C#6,533.0,0.5,66,139.29
3331,F#6,533.25,0.25,75,139.29
3332,G#6,533.5,0.25,74,139.29
3333,C#6,533.5,0.5,69,139.29
3334,F6,533.75,0.25,74,139.29
3335,C#6,534.0,1.5,80,139.29
3336,B-5,534.0,1.5,80,139.29
3337,F#6,534.25,0.25,70,139.29
3338,G#6,534.5,0.25,73,139.29
3339,F#6,534.75,0.25,70,139.29
3340,G#6,535.0,0.25,65,139.29
3341,F#6,535.25,0.25,63,139.29
3342,F6,535.5,0.25,59,139.29
3343,G#5,535.5,0.5,66,139.29
3344,C6,535.5,0.5,66,139.29
3345,F#6,535.75,0.25,59,139.29
3346,G5,536.0,1.0,68,139.29
3347,B-5,536.0,1.0,68,139.29
3348,E6,536.25,0.25,58,139.29
3349,F6,536.5,0.25,60,139.29
3350,E6,536.75,0.25,57,139.29
3351,C6,537.0,1.0,64,139.29
3352,G#5,537.0,1.0,64,139.29
3353,F6,537.25,0.25,57,139.29
3354,G6,537.5,0.25,60,139.29
3355,F6,537.75,0.25,56,139.29
3356,B-5,538.0,1.5,80,139.29
3357,C#6,538.0,1.5,80,139.29
3358,F#6,538.25,0.25,70,139.29
3359,G#6,538.5,0.25,73,139.29
3360,F#6,538.75,0.25,70,139.29
3361,G#6,539.0,0.25,65,139.29
3362,F#6,539.25,0.25,63,139.29
3363,F6,539.5,0.25,59,139.29
3364,C6,539.5,0.5,66,139.29
3365,G#5,539.5,0.5,66,139.29
3366,F#6,539.75,0.25,59,139.29
3367,G5,540.0,1.0,68,139.29
3368,B-5,540.0,1.0,68,139.29
3369,E6,540.25,0.25,58,139.29
3370,F6,540.5,0.25,60,139.29
3371,E6,540.75,0.25,57,139.29
3372,G#5,541.0,1.0,64,139.29
3373,C6,541.0,1.0,64,139.29
3374,F6,541.25,0.25,57,139.29
3375,G6,541.5,0.25,60,139.29
3376,F6,541.75,0.25,56,139.29
3377,C#6,542.0,1.5,80,139.29
3378,B-5,542.0,1.5,80,139.29
3379,F#6,542.25,0.25,70,139.29
3380,G#6,542.5,0.25,73,139.29
3381,F#6,542.75,0.25,70,139.29
3382,G#6,543.0,0.25,73,139.29
3383,F#6,543.25,0.25,70,139.29
3384,F6,543.5,0.25,59,139.29
3385,C6,543.5,0.5,66,139.29
3386,G#5,543.5,0.5,66,139.29
3387,G6,543.75,0.25,59,139.29
3388,G5,544.0,1.0,68,139.29
3389,B-5,544.0,1.0,68,139.29
3390,E6,544.25,0.25,58,139.29
3391,F6,544.5,0.25,60,139.29
3392,E6,544.75,0.25,58,139.29
3393,G#5,545.0,1.0,65,139.29
3394,F5,545.0,1.0,65,139.29
3395,C#6,545.25,0.25,58,139.29
3396,E-6,545.5,0.25,61,139.29
3397,C#6,545.75,0.25,57,139.29
3398,E5,546.0,1.0,70,139.29
3399,G5,546.0,1.0,70,139.29
3400,C6,546.25,0.25,60,139.29
3401,C#6,546.5,0.25,62,139.29
3402,C6,546.75,0.25,60,139.29
3403,F5,547.0,1.0,70,139.29
3404,D5,547.0,1.0,70,139.29
3405,B5,547.25,0.25,61,139.29
3406,C6,547.5,0.25,65,139.29
3407,B5,547.75,0.25,62,139.29
3408,F5,548.0,1.0,75,139.29
3409,C#5,548.0,1.0,75,139.29
3410,B-5,548.25,0.25,65,139.29
3411,C6,548.5,0.25,67,139.29
3412,B-5,548.75,0.25,64,139.29
3413,C5,549.0,1.0,75,139.29
3414,F5,549.0,1.0,75,139.29
3415,G#5,549.25,0.25,66,139.29
3416,B-5,549.5,0.25,69,139.29
3417,G#5,549.75,0.25,67,139.29
3418,B4,550.0,2.0,76,139.29
3419,G#5,550.25,0.25,67,139.29
3420,B-5,550.5,0.25,70,139.29
3421,G#5,550.75,0.25,68,139.29
3422,D5,551.0,1.0,75,139.29
3423,G5,551.25,0.25,66,139.29
3424,G#5,551.5,0.25,69,139.29
3425,G5,551.75,0.25,64,139.29
3426,G#4,552.0,1.0,72,139.29
3427,C4,552.0,2.0,72,139.29
3428,C5,552.0,2.0,72,139.29
3429,F5,552.25,0.25,64,139.29
3430,G5,552.5,0.25,65,139.29
3431,F5,552.75,0.25,62,139.29
3432,G4,553.0,1.0,68,139.29
3433,E5,553.25,0.25,60,139.29
3434,F5,553.5,0.25,62,139.29
3435,E5,553.75,0.25,57,139.29
3436,B-2,554.0,1.5,65,139.29
3437,F#3,554.0,1.5,65,139.29
3438,C#3,554.0,1.5,65,139.29
3439,C#4,554.25,0.25,66,139.29
3440,C#5,554.5,0.25,73,139.29
3441,C#4,554.75,0.25,59,139.29
3442,C#5,555.0,0.25,71,139.29
3443,C#4,555.25,0.25,58,139.29
3444,C#5,555.5,0.25,63,139.29
3445,G#2,555.5,0.5,53,139.29
3446,F3,555.5,0.5,53,139.29
3447,C3,555.5,0.5,53,139.29
3448,C#4,555.75,0.25,59,139.29
3449,E3,556.0,1.0,54,139.29
3450,B-2,556.0,1.0,54,139.29
3451,G2,556.0,1.0,54,139.29
3452,C#4,556.25,0.25,60,139.29
3453,C#5,556.5,0.25,71,139.29
3454,C5,556.75,0.25,66,139.29
3455,B-4,557.0,0.25,68,139.29
3456,C3,557.0,1.0,51,139.29
3457,G#2,557.0,1.0,51,139.29
3458,F3,557.0,1.0,51,139.29
3459,G#4,557.25,0.25,66,139.29
3460,G4,557.5,0.25,65,139.29
3461,F4,557.75,0.25,58,139.29
3462,F#3,558.0,1.5,65,139.29
3463,C#3,558.0,1.5,65,139.29
3464,B-2,558.0,1.5,65,139.29
3465,C#5,558.25,0.25,68,139.29
3466,C#6,558.5,0.25,75,139.29
3467,C#5,558.75,0.25,67,139.29
3468,C#6,559.0,0.25,74,139.29
3469,C#5,559.25,0.25,67,139.29
3470,C#6,559.5,0.25,69,139.29
3471,C3,559.5,0.5,53,139.29
3472,F3,559.5,0.5,53,139.29
3473,G#2,559.5,0.5,53,139.29
3474,C#5,559.75,0.25,60,139.29
3475,E3,560.0,1.0,57,139.29
3476,B-2,560.0,1.0,57,139.29
3477,G2,560.0,1.0,57,139.29
3478,C#5,560.25,0.25,61,139.29
3479,C#6,560.5,0.25,73,139.29
3480,C6,560.75,0.25,66,139.29
3481,B-5,561.0,0.25,70,139.29
3482,G#2,561.0,1.0,51,139.29
3483,F3,561.0,1.0,51,139.29
3484,C3,561.0,1.0,51,139.29
3485,G#5,561.25,0.25,68,139.29
3486,G5,561.5,0.25,67,139.29
3487,F5,561.75,0.25,65,139.29
3488,B-2,562.0,1.5,65,139.29
3489,F#3,562.0,1.5,65,139.29
3490,C#3,562.0,1.5,65,139.29
3491,C#4,562.25,0.25,66,139.29
3492,C#5,562.5,0.25,73,139.29
3493,C#4,562.75,0.25,66,139.29
3494,C#5,563.0,0.25,73,139.29
3495,C#4,563.25,0.25,66,139.29
3496,C#5,563.5,0.25,68,139.29
3497,G#2,563.5,0.5,53,139.29
3498,C3,563.5,0.5,53,139.29
3499,F3,563.5,0.5,53,139.29
3500,C#4,563.75,0.25,61,139.29
3501,E3,564.0,1.0,58,139.29
3502,B-2,564.0,1.0,58,139.29
3503,G2,564.0,1.0,58,139.29
3504,C#5,564.25,0.25,68,139.29
3505,C#4,564.5,0.25,60,139.29
3506,C#5,564.75,0.25,68,139.29
3507,F2,565.0,1.0,52,139.29
3508,C#3,565.0,1.0,52,139.29
3509,G#2,565.0,1.0,52,139.29
3510,C#6,565.25,0.25,78,139.29
3511,C#5,565.5,0.25,69,139.29
3512,C#6,565.75,0.25,75,139.29
3513,E2,566.0,1.0,56,139.29
3514,C3,566.0,1.0,56,139.29
3515,G2,566.0,1.0,56,139.29
3516,C6,566.25,0.25,76,139.29
3517,C5,566.5,0.25,71,139.29
3518,C6,566.75,0.25,75,139.29
3519,B2,567.0,1.0,56,139.29
3520,D2,567.0,1.0,56,139.29
3521,G#2,567.0,1.0,56,139.29
3522,F2,567.0,1.0,56,139.29
3523,B5,567.25,0.25,77,139.29
3524,B4,567.5,0.25,71,139.29
3525,B5,567.75,0.25,74,139.29
3526,B-2,568.0,1.0,60,139.29
3527,E2,568.0,1.0,60,139.29
3528,G2,568.0,1.0,60,139.29
3529,B-5,568.25,0.25,78,139.29
3530,B-4,568.5,0.25,69,139.29
3531,B-5,568.75,0.25,77,139.29
3532,G#2,569.0,1.0,67,139.29
3533,F2,569.0,1.0,67,139.29
3534,G#5,569.25,0.25,77,139.29
3535,G#4,569.5,0.25,71,139.29
3536,C5,569.5,0.25,71,139.29
3537,G#5,569.75,0.25,77,139.29
3538,B1,570.0,2.0,66,139.29
3539,G#2,570.0,1.0,66,139.29
3540,G#5,570.25,0.25,75,139.29
3541,D5,570.5,0.25,68,139.29
3542,G#4,570.5,0.25,68,139.29
3543,G#5,570.75,0.25,75,139.29
3544,F#2,571.0,1.0,64,139.29
3545,G5,571.25,0.25,73,139.29
3546,D5,571.5,0.25,66,139.29
3547,G4,571.5,0.25,66,139.29
3548,G5,571.75,0.25,73,139.29
3549,C2,572.0,2.0,61,139.29
3550,F2,572.0,1.0,61,139.29
3551,F5,572.25,0.25,71,139.29
3552,G#4,572.5,0.25,66,139.29
3553,F4,572.5,0.25,66,139.29
3554,F5,572.75,0.25,71,139.29
3555,E2,573.0,1.0,59,139.29
3556,E5,573.25,0.25,72,139.29
3557,G4,573.5,0.25,66,139.29
3558,E4,573.5,0.25,66,139.29
3559,E5,573.75,0.25,69,139.29
3560,F4,574.0,0.25,69,139.29
3561,G#4,574.0,0.25,69,139.29
3562,F5,574.0,0.25,69,139.29
3563,F1,574.0,0.5,62,139.29
3564,G#1,574.0,0.5,62,139.29
3565,C2,574.0,0.5,62,139.29
3566,F2,574.0,0.5,62,139.29
3567,C4,574.25,0.25,74,139.29
3568,F4,574.5,0.25,76,139.29
3569,G#4,574.75,0.25,78,139.29
3570,C5,575.0,0.25,80,139.29
3571,C#5,575.25,0.25,76,139.29
3572,C3,575.25,0.25,59,139.29
3573,C5,575.5,0.25,76,139.29
3574,F3,575.5,0.25,62,139.29
3575,B-4,575.75,0.25,76,139.29
3576,G#3,575.75,0.25,64,139.29
3577,G#4,576.0,0.25,77,139.29
3578,C4,576.0,0.25,70,139.29
3579,B-4,576.25,0.25,71,139.29
3580,C#4,576.25,0.25,64,139.29
3581,G#4,576.5,0.25,72,139.29
3582,C4,576.5,0.25,64,139.29
3583,G4,576.75,0.25,72,139.29
3584,B-3,576.75,0.25,64,139.29
3585,F4,577.0,0.25,78,139.29
3586,G#3,577.0,0.25,70,139.29
3587,E-4,577.25,0.25,73,139.29
3588,G3,577.25,0.25,63,139.29
3589,C#4,577.5,0.25,73,139.29
3590,F3,577.5,0.25,63,139.29
3591,C4,577.75,0.25,72,139.29
3592,E-3,577.75,0.25,63,139.29
3593,B-3,578.0,0.25,75,139.29
3594,C#3,578.0,0.25,67,139.29
3595,G#3,578.25,0.25,70,139.29
3596,C3,578.25,0.25,60,139.29
3597,F#3,578.5,0.25,70,139.29
3598,B-2,578.5,0.25,60,139.29
3599,F3,578.75,0.25,70,139.29
3600,G#2,578.75,0.25,60,139.29
3601,E3,579.0,0.5,73,139.29
3602,G2,579.0,0.25,71,139.29
3603,G#2,579.25,0.25,65,139.29
3604,B-2,579.5,0.25,73,139.29
3605,C3,579.5,0.375,72,139.29
3606,E3,579.5,0.375,72,139.29
3607,F#3,579.5,0.375,72,139.29
3608,C4,579.5,0.375,72,139.29
3609,G#2,579.75,0.25,69,139.29
3610,G2,580.0,0.25,73,139.29
3611,C3,580.0,0.375,67,139.29
3612,E3,580.0,0.375,67,139.29
3613,B-3,580.0,0.375,67,139.29
3614,C4,580.0,0.375,67,139.29
3615,F2,580.25,0.25,73,139.29
3616,E2,580.5,0.25,72,139.29
3617,C3,580.5,0.375,66,139.29
3618,E3,580.5,0.375,66,139.29
3619,B-3,580.5,0.375,66,139.29
3620,C4,580.5,0.375,66,139.29
3621,D2,580.75,0.25,72,139.29
3622,C2,581.0,0.25,71,139.29
3623,C3,581.0,0.375,66,139.29
3624,E3,581.0,0.375,66,139.29
3625,B-3,581.0,0.375,66,139.29
3626,C4,581.0,0.375,66,139.29
3627,B-1,581.25,0.25,71,139.29
3628,G#1,581.5,0.25,70,139.29
3629,C3,581.5,0.375,66,139.29
3630,E3,581.5,0.375,66,139.29
3631,B-3,581.5,0.375,66,139.29
3632,C4,581.5,0.375,66,139.29
3633,G1,581.75,0.25,70,139.29
3634,C3,582.0,0.25,77,139.29
3635,F3,582.0,0.25,77,139.29
3636,G#3,582.0,0.25,77,139.29
3637,C4,582.0,0.25,77,139.29
3638,F1,582.0,0.5,70,139.29
3639,C2,582.0,0.5,70,139.29
3640,F2,582.0,0.5,70,139.29
3641,G#1,582.0,0.5,70,139.29
3642,C5,582.25,0.25,74,139.29
3643,F5,582.5,0.25,76,139.29
3644,G#5,582.75,0.25,78,139.29
3645,C6,583.0,0.25,80,139.29
3646,C#6,583.25,0.25,76,139.29
3647,C4,583.25,0.25,59,139.29
3648,C6,583.5,0.25,76,139.29
3649,F4,583.5,0.25,62,139.29
3650,B-5,583.75,0.25,76,139.29
3651,G#4,583.75,0.25,64,139.29
3652,G#5,584.0,0.25,77,139.29
3653,C5,584.0,0.25,70,139.29
3654,B-5,584.25,0.25,71,139.29
3655,C#5,584.25,0.25,64,139.29
3656,G#5,584.5,0.25,72,139.29
3657,C5,584.5,0.25,64,139.29
3658,G5,584.75,0.25,72,139.29
3659,B-4,584.75,0.25,64,139.29
3660,F5,585.0,0.25,78,139.29
3661,G#4,585.0,0.25,70,139.29
3662,E-5,585.25,0.25,73,139.29
3663,G4,585.25,0.25,63,139.29
3664,C#5,585.5,0.25,73,139.29
3665,F4,585.5,0.25,63,139.29
3666,C5,585.75,0.25,72,139.29
3667,E-4,585.75,0.25,63,139.29
3668,B-4,586.0,0.25,75,139.29
3669,C#4,586.0,0.25,67,139.29
3670,G#4,586.25,0.25,70,139.29
3671,C4,586.25,0.25,60,139.29
3672,G4,586.5,0.25,70,139.29
3673,B-3,586.5,0.25,60,139.29
3674,F4,586.75,0.25,70,139.29
3675,G#3,586.75,0.25,60,139.29
3676,E4,587.0,0.5,73,139.29
3677,G3,587.0,0.25,71,139.29
3678,G#3,587.25,0.25,65,139.29
3679,B-3,587.5,0.25,73,139.29
3680,C4,587.5,0.375,70,139.29
3681,E4,587.5,0.375,70,139.29
3682,G4,587.5,0.375,70,139.29
3683,C5,587.5,0.375,70,139.29
3684,G#3,587.75,0.25,69,139.29
3685,G3,588.0,0.25,73,139.29
3686,C4,588.0,0.375,64,139.29
3687,E4,588.0,0.375,64,139.29
3688,B-4,588.0,0.375,64,139.29
3689,C5,588.0,0.375,64,139.29
3690,F3,588.25,0.25,73,139.29
3691,E3,588.5,0.25,72,139.29
3692,C4,588.5,0.375,62,139.29
3693,E4,588.5,0.375,62,139.29
3694,B-4,588.5,0.375,62,139.29
3695,C5,588.5,0.375,62,139.29
3696,D3,588.75,0.25,72,139.29
3697,C3,589.0,0.25,71,139.29
3698,C4,589.0,0.375,64,139.29
3699,E4,589.0,0.375,64,139.29
3700,B-4,589.0,0.375,64,139.29
3701,C5,589.0,0.375,64,139.29
3702,B-2,589.25,0.25,71,139.29
3703,G#2,589.5,0.25,70,139.29
3704,C4,589.5,0.375,63,139.29
3705,E4,589.5,0.375,63,139.29
3706,B-4,589.5,0.375,63,139.29
3707,C5,589.5,0.375,63,139.29
3708,G2,589.75,0.25,70,139.29
3709,F2,590.0,0.25,67,139.29
3710,C4,590.0,0.5,64,139.29
3711,F4,590.0,0.5,64,139.29
3712,G#4,590.0,0.5,64,139.29
3713,C5,590.0,0.5,64,139.29
3714,G2,590.25,0.25,60,139.29
3715,G#2,590.5,0.25,60,139.29
3716,B-2,590.75,0.25,60,139.29
3717,C3,591.0,0.25,71,139.29
3718,D3,591.25,0.25,65,139.29
3719,E3,591.5,0.25,73,139.29
3720,C5,591.5,0.375,76,139.29
3721,F5,591.5,0.375,76,139.29
3722,G#5,591.5,0.375,76,139.29
3723,C6,591.5,0.375,76,139.29
3724,F3,591.75,0.25,69,139.29
3725,G3,592.0,0.25,73,139.29
3726,C5,592.0,0.375,71,139.29
3727,E5,592.0,0.375,71,139.29
3728,B-5,592.0,0.375,71,139.29
3729,C6,592.0,0.375,71,139.29
3730,F3,592.25,0.25,73,139.29
3731,E3,592.5,0.25,72,139.29
3732,C5,592.5,0.375,68,139.29
3733,E5,592.5,0.375,68,139.29
3734,B-5,592.5,0.375,68,139.29
3735,C6,592.5,0.375,68,139.29
3736,D3,592.75,0.25,72,139.29
3737,C3,593.0,0.25,71,139.29
3738,C5,593.0,0.375,71,139.29
3739,E5,593.0,0.375,71,139.29
3740,B-5,593.0,0.375,71,139.29
3741,C6,593.0,0.375,71,139.29
3742,B-2,593.25,0.25,71,139.29
3743,G#2,593.5,0.25,70,139.29
3744,C5,593.5,0.375,70,139.29
3745,E5,593.5,0.375,70,139.29
3746,B-5,593.5,0.375,70,139.29
3747,C6,593.5,0.375,70,139.29
3748,G2,593.75,0.25,70,139.29
3749,F2,594.0,0.25,67,139.29
3750,C5,594.0,0.375,71,139.29
3751,F5,594.0,0.375,71,139.29
3752,G#5,594.0,0.375,71,139.29
3753,C6,594.0,0.375,71,139.29
3754,G2,594.25,0.25,60,139.29
3755,G#2,594.5,0.25,60,139.29
3756,B-2,594.75,0.25,60,139.29
3757,C3,595.0,0.25,71,139.29
3758,D3,595.25,0.25,65,139.29
3759,E3,595.5,0.25,73,139.29
3760,C4,595.5,0.375,70,139.29
3761,F4,595.5,0.375,70,139.29
3762,G#4,595.5,0.375,70,139.29
3763,C5,595.5,0.375,70,139.29
3764,F3,595.75,0.25,69,139.29
3765,G3,596.0,0.25,73,139.29
3766,C4,596.0,0.375,64,139.29
3767,E4,596.0,0.375,64,139.29
3768,B-4,596.0,0.375,64,139.29
3769,C5,596.0,0.375,64,139.29
3770,F3,596.25,0.25,73,139.29
3771,E3,596.5,0.25,72,139.29
3772,C4,596.5,0.375,62,139.29
3773,E4,596.5,0.375,62,139.29
3774,B-4,596.5,0.375,62,139.29
3775,C5,596.5,0.375,62,139.29
3776,D3,596.75,0.25,72,139.29
3777,C3,597.0,0.25,71,139.29
3778,C4,597.0,0.375,64,139.29
3779,E4,597.0,0.375,64,139.29
3780,B-4,597.0,0.375,64,139.29
3781,C5,597.0,0.375,64,139.29
3782,B-2,597.25,0.25,71,139.29
3783,G#2,597.5,0.25,70,139.29
3784,C4,597.5,0.375,63,139.29
3785,E4,597.5,0.375,63,139.29
3786,B-4,597.5,0.375,63,139.29
3787,C5,597.5,0.375,63,139.29
3788,G2,597.75,0.25,70,139.29
3789,F2,598.0,0.25,67,139.29
3790,C4,598.0,0.375,68,139.29
3791,F4,598.0,0.375,68,139.29
3792,G#4,598.0,0.375,68,139.29
3793,C5,598.0,0.375,68,139.29
3794,E2,598.25,0.25,60,139.29
3795,D2,598.5,0.25,60,139.29
3796,C5,598.5,0.375,74,139.29
3797,F5,598.5,0.375,74,139.29
3798,G#5,598.5,0.375,74,139.29
3799,C6,598.5,0.375,74,139.29
3800,C2,598.75,0.25,60,139.29
3801,B-1,599.0,0.25,64,139.29
3802,C5,599.0,0.375,78,139.29
3803,F5,599.0,0.375,78,139.29
3804,G#5,599.0,0.375,78,139.29
3805,C6,599.0,0.375,78,139.29
3806,G#1,599.25,0.25,59,139.29
3807,G1,599.5,0.25,65,139.29
3808,C5,599.5,0.375,77,139.29
3809,F5,599.5,0.375,77,139.29
3810,G#5,599.5,0.375,77,139.29
3811,C6,599.5,0.375,77,139.29
3812,F1,599.75,0.25,58,139.29
3813,G1,600.0,0.25,68,139.29
3814,C5,600.0,0.375,78,139.29
3815,E5,600.0,0.375,78,139.29
3816,B-5,600.0,0.375,78,139.29
3817,C6,600.0,0.375,78,139.29
3818,G#1,600.25,0.25,69,139.29
3819,B-1,600.5,0.25,71,139.29
3820,C5,600.5,0.375,76,139.29
3821,E5,600.5,0.375,76,139.29
3822,B-5,600.5,0.375,76,139.29
3823,C6,600.5,0.375,76,139.29
3824,C2,600.75,0.25,72,139.29
3825,D2,601.0,0.25,74,139.29
3826,C5,601.0,0.375,82,139.29
3827,E5,601.0,0.375,82,139.29
3828,B-5,601.0,0.375,82,139.29
3829,C6,601.0,0.375,82,139.29
3830,E2,601.25,0.25,75,139.29
3831,F2,601.5,0.25,77,139.29
3832,C5,601.5,0.375,82,139.29
3833,E5,601.5,0.375,82,139.29
3834,B-5,601.5,0.375,82,139.29
3835,C6,601.5,0.375,82,139.29
3836,G2,601.75,0.25,78,139.29
3837,C5,602.0,0.25,90,139.29
3838,E-5,602.0,0.25,90,139.29
3839,A5,602.0,0.25,90,139.29
3840,C6,602.0,0.25,90,139.29
3841,F#1,602.0,0.25,77,139.29
3842,F#2,602.0,0.25,77,139.29
3843,A3,602.25,0.25,70,139.29
3844,C4,602.5,0.25,71,139.29
3845,E-4,602.75,0.25,72,139.29
3846,F#4,603.0,0.25,72,139.29
3847,A4,603.25,0.25,72,139.29
3848,C5,603.5,0.25,73,139.29
3849,E-5,603.75,0.25,74,139.29
3850,F#5,604.0,0.25,75,139.29
3851,A5,604.25,0.25,77,139.29
3852,C6,604.5,0.25,79,139.29
3853,E-6,604.75,0.25,81,139.29
3854,F#6,605.0,0.25,83,139.29
3855,E-6,605.25,0.25,83,139.29
3856,C6,605.5,0.25,82,139.29
3857,A5,605.75,0.25,81,139.29
3858,F#5,606.0,0.25,81,139.29
3859,E-5,606.25,0.25,80,139.29
3860,C5,606.5,0.25,79,139.29
3861,A4,606.75,0.25,78,139.29
3862,F#4,607.0,0.25,77,139.29
3863,E-4,607.25,0.25,76,139.29
3864,C4,607.5,0.25,75,139.29
3865,A3,607.75,0.25,69,139.29
3866,F#3,608.0,0.25,68,139.29
3867,E-3,608.25,0.25,68,139.29
3868,C3,608.5,0.25,67,139.29
3869,A2,608.75,0.25,66,139.29
3870,F#2,609.0,0.25,66,139.29
3871,E-2,609.25,0.25,65,139.29
3872,C2,609.5,0.25,64,139.29
3873,A1,609.75,0.25,63,139.29
3874,F#1,610.0,0.25,60,139.29
3875,E-2,610.25,0.25,59,139.29
3876,C2,610.5,0.25,58,139.29
3877,A1,610.75,0.25,57,139.29
3878,F#1,611.0,0.25,56,139.29
3879,E-2,611.25,0.25,54,139.29
3880,C2,611.5,0.25,53,139.29
3881,A1,611.75,0.25,52,139.29
3882,F#1,612.0,0.25,51,139.29
3883,E-2,612.25,0.25,47,139.29
3884,C2,612.5,0.25,47,139.29
3885,A1,612.75,0.25,43,139.29
3886,F#1,613.0,0.25,47,139.29
3887,E-2,613.25,0.25,41,139.29
3888,C2,613.5,0.25,39,139.29
3889,A1,613.75,0.25,38,139.29
3890,F1,614.0,1.0,39,139.29
3891,A3,614.25,0.25,40,139.29
3892,C4,614.5,0.25,37,139.29
3893,E-4,614.75,0.25,37,139.29
3894,F#4,615.0,0.25,40,139.29
3895,G#4,615.25,0.25,38,139.29
3896,F#4,615.5,0.25,38,139.29
3897,F4,615.75,0.25,38,139.29
3898,E-4,616.0,0.25,40,139.29
3899,F4,616.25,0.25,37,139.29
3900,E-4,616.5,0.25,37,139.29
3901,C#4,616.75,0.25,37,139.29
3902,C4,617.0,0.25,40,139.29
3903,C#4,617.25,0.25,37,139.29
3904,E-4,617.5,0.25,37,139.29
3905,C4,617.75,0.25,37,139.29
3906,F2,617.75,0.25,35,139.29
3907,F1,618.0,1.0,40,139.29
3908,A3,618.25,0.25,40,139.29
3909,C4,618.5,0.25,37,139.29
3910,E-4,618.75,0.25,37,139.29
3911,F#4,619.0,0.25,40,139.29
3912,G#4,619.25,0.25,38,139.29
3913,F#4,619.5,0.25,38,139.29
3914,F4,619.75,0.25,38,139.29
3915,E-4,620.0,0.25,40,139.29
3916,F4,620.25,0.25,37,139.29
3917,E-4,620.5,0.25,37,139.29
3918,C#4,620.75,0.25,37,139.29
3919,C4,621.0,0.25,40,139.29
3920,C#4,621.25,0.25,37,139.29
3921,E-4,621.5,0.25,37,139.29
3922,C4,621.75,0.25,37,139.29
3923,F2,621.75,0.25,35,139.29
3924,F1,622.0,1.0,40,139.29
3925,A3,622.25,0.25,47,139.29
3926,C4,622.5,0.25,49,139.29
3927,E-4,622.75,0.25,50,139.29
3928,F#4,623.0,0.25,52,139.29
3929,G#4,623.25,0.25,54,139.29
3930,F#4,623.5,0.25,56,139.29
3931,A3,623.5,0.25,38,139.29
3932,F4,623.75,0.25,58,139.29
3933,B-3,623.75,0.25,42,139.29
3934,E-4,624.0,0.5,67,139.29
3935,C4,624.0,0.25,49,139.29
3936,C#4,624.25,0.25,42,139.29
3937,E-4,624.5,0.25,47,139.29
3938,C4,624.5,0.25,43,139.29
3939,F4,624.75,0.25,49,139.29
3940,B-3,624.75,0.25,43,139.29
3941,F#4,625.0,0.25,52,139.29
3942,A3,625.0,0.5,47,139.29
3943,G#4,625.25,0.25,54,139.29
3944,F#4,625.5,0.25,56,139.29
3945,A3,625.5,0.25,41,139.29
3946,F4,625.75,0.25,59,139.29
3947,B-3,625.75,0.25,46,139.29
3948,E-4,626.0,0.5,67,139.29
3949,C4,626.0,0.25,53,139.29
3950,C#4,626.25,0.25,42,139.29
3951,E-4,626.5,0.25,50,139.29
3952,C4,626.5,0.25,43,139.29
3953,F4,626.75,0.25,50,139.29
3954,B-3,626.75,0.25,43,139.29
3955,F#4,627.0,0.25,56,139.29
3956,A3,627.0,0.5,47,139.29
3957,G#4,627.25,0.25,49,139.29
3958,F#4,627.5,0.25,50,139.29
3959,A3,627.5,0.25,43,139.29
3960,F4,627.75,0.25,50,139.29
3961,B-3,627.75,0.25,47,139.29
3962,E-4,628.0,0.5,67,139.29
3963,C4,628.0,0.25,52,139.29
3964,C#4,628.25,0.25,42,139.29
3965,C4,628.5,0.25,43,139.29
3966,F#4,628.5,0.5,56,139.29
3967,F#5,628.5,0.5,56,139.29
3968,B-3,628.75,0.25,43,139.29
3969,A3,629.0,0.25,44,139.29
3970,F4,629.0,0.5,60,139.29
3971,F5,629.0,0.5,60,139.29
3972,F#3,629.25,0.25,42,139.29
3973,F3,629.5,0.25,41,139.29
3974,A4,629.5,0.5,54,139.29
3975,A5,629.5,0.5,54,139.29
3976,E-3,629.75,0.25,39,139.29
3977,C#3,630.0,4.0,44,139.29
3978,B-5,630.0,0.25,56,139.29
3979,B-4,630.0,0.25,56,139.29
3980,F4,630.25,0.25,51,139.29
3981,F3,630.25,0.25,32,139.29
3982,B-4,630.5,0.25,52,139.29
3983,B-3,630.5,0.25,33,139.29
3984,C#5,630.75,0.25,53,139.29
3985,F3,630.75,0.25,34,139.29
3986,F5,631.0,0.25,57,139.29
3987,B-3,631.0,0.25,38,139.29
3988,F#5,631.25,0.25,55,139.29
3989,F3,631.25,0.25,37,139.29
3990,F5,631.5,0.25,56,139.29
3991,B-3,631.5,0.25,38,139.29
3992,E-5,631.75,0.25,55,139.29
3993,F3,631.75,0.25,38,139.29
3994,C#5,632.0,0.25,57,139.29
3995,B-3,632.0,0.25,39,139.29
3996,E-5,632.25,0.25,56,139.29
3997,F3,632.25,0.25,39,139.29
3998,C#5,632.5,0.25,56,139.29
3999,B-3,632.5,0.25,38,139.29
4000,C5,632.75,0.25,55,139.29
4001,F3,632.75,0.25,38,139.29
4002,B-4,633.0,0.25,54,139.29
4003,B-3,633.0,0.25,38,139.29
4004,C5,633.25,0.25,53,139.29
4005,F3,633.25,0.25,37,139.29
4006,C#5,633.5,0.25,53,139.29
4007,B-3,633.5,0.25,37,139.29
4008,B-4,633.75,0.25,52,139.29
4009,F3,633.75,0.25,36,139.29
4010,C#3,634.0,4.0,44,139.29
4011,F4,634.25,0.25,51,139.29
4012,F3,634.25,0.25,32,139.29
4013,B-4,634.5,0.25,52,139.29
4014,B-3,634.5,0.25,33,139.29
4015,C#5,634.75,0.25,53,139.29
4016,F3,634.75,0.25,34,139.29
4017,F5,635.0,0.25,57,139.29
4018,B-3,635.0,0.25,38,139.29
4019,F#5,635.25,0.25,55,139.29
4020,F3,635.25,0.25,37,139.29
4021,F5,635.5,0.25,56,139.29
4022,B-3,635.5,0.25,38,139.29
4023,E-5,635.75,0.25,55,139.29
4024,F3,635.75,0.25,38,139.29
4025,C#5,636.0,0.25,57,139.29
4026,B-3,636.0,0.25,39,139.29
4027,E-5,636.25,0.25,56,139.29
4028,F3,636.25,0.25,39,139.29
4029,C#5,636.5,0.25,56,139.29
4030,B-3,636.5,0.25,38,139.29
4031,C5,636.75,0.25,55,139.29
4032,F3,636.75,0.25,38,139.29
4033,B-4,637.0,0.25,54,139.29
4034,B-3,637.0,0.25,38,139.29
4035,C5,637.25,0.25,53,139.29
4036,F3,637.25,0.25,37,139.29
4037,C#5,637.5,0.25,53,139.29
4038,B-3,637.5,0.25,37,139.29
4039,B-4,637.75,0.25,52,139.29
4040,F3,637.75,0.25,36,139.29
4041,E-3,638.0,4.0,44,139.29
4042,F#4,638.25,0.25,51,139.29
4043,F#3,638.25,0.25,32,139.29
4044,B4,638.5,0.25,53,139.29
4045,B3,638.5,0.25,33,139.29
4046,E-5,638.75,0.25,54,139.29
4047,F#3,638.75,0.25,35,139.29
4048,F#5,639.0,0.25,59,139.29
4049,B3,639.0,0.25,39,139.29
4050,G#5,639.25,0.25,58,139.29
4051,F#3,639.25,0.25,39,139.29
4052,F#5,639.5,0.25,59,139.29
4053,B3,639.5,0.25,40,139.29
4054,F5,639.75,0.25,59,139.29
4055,F#3,639.75,0.25,41,139.29
4056,E-5,640.0,0.25,62,139.29
4057,B3,640.0,0.25,42,139.29
4058,F5,640.25,0.25,62,139.29
4059,F#3,640.25,0.25,43,139.29
4060,E-5,640.5,0.25,62,139.29
4061,B3,640.5,0.25,42,139.29
4062,C#5,640.75,0.25,62,139.29
4063,F#3,640.75,0.25,42,139.29
4064,B4,641.0,0.25,62,139.29
4065,B3,641.0,0.25,43,139.29
4066,C#5,641.25,0.25,61,139.29
4067,F#3,641.25,0.25,42,139.29
4068,E-5,641.5,0.25,64,139.29
4069,B3,641.5,0.25,45,139.29
4070,B4,641.75,0.25,61,139.29
4071,F#3,641.75,0.25,42,139.29
4072,B-4,642.0,0.25,68,139.29
4073,F3,642.0,2.0,46,139.29
4074,C5,642.25,0.25,64,139.29
4075,B-3,642.25,0.25,46,139.29
4076,B-4,642.5,0.25,66,139.29
4077,C#4,642.5,0.25,44,139.29
4078,A4,642.75,0.25,64,139.29
4079,B-3,642.75,0.25,44,139.29
4080,B-4,643.0,0.25,62,139.29
4081,C#4,643.0,0.25,43,139.29
4082,C5,643.25,0.25,60,139.29
4083,B-3,643.25,0.25,42,139.29
4084,C#5,643.5,0.25,59,139.29
4085,C#4,643.5,0.25,41,139.29
4086,B-4,643.75,0.25,58,139.29
4087,B-3,643.75,0.25,40,139.29
4088,A4,644.0,0.25,62,139.29
4089,E-3,644.0,2.0,42,139.29
4090,B-4,644.25,0.25,61,139.29
4091,F3,644.25,0.25,42,139.29
4092,A4,644.5,0.25,60,139.29
4093,C4,644.5,0.25,41,139.29
4094,G4,644.75,0.25,58,139.29
4095,F3,644.75,0.25,40,139.29
4096,A4,645.0,0.25,56,139.29
4097,C4,645.0,0.25,39,139.29
4098,B-4,645.25,0.25,55,139.29
4099,F3,645.25,0.25,38,139.29
4100,C5,645.5,0.25,54,139.29
4101,C4,645.5,0.25,38,139.29
4102,A4,645.75,0.25,53,139.29
4103,F3,645.75,0.25,36,139.29
4104,B-4,646.0,0.5,61,139.29
4105,C#3,646.0,0.25,48,139.29
4106,F4,646.25,0.25,48,139.29
4107,B-4,646.5,0.25,57,139.29
4108,C#5,646.75,0.25,58,139.29
4109,F5,647.0,0.25,62,139.29
4110,B-3,647.0,1.0,58,139.29
4111,F#5,647.25,0.25,60,139.29
4112,C#4,647.25,0.25,40,139.29
4113,F5,647.5,0.25,61,139.29
4114,F4,647.5,0.25,41,139.29
4115,E-5,647.75,0.25,61,139.29
4116,C#4,647.75,0.25,41,139.29
4117,C#5,648.0,0.25,63,139.29
4118,A3,648.0,1.0,63,139.29
4119,E-5,648.25,0.25,62,139.29
4120,C#4,648.25,0.25,42,139.29
4121,C#5,648.5,0.25,62,139.29
4122,F4,648.5,0.25,42,139.29
4123,C5,648.75,0.25,61,139.29
4124,C#4,648.75,0.25,42,139.29
4125,B-5,649.0,0.5,71,139.29
4126,B-4,649.0,0.25,71,139.29
4127,B-3,649.0,1.0,55,139.29
4128,C5,649.25,0.25,60,139.29
4129,C#4,649.25,0.25,41,139.29
4130,C#5,649.5,0.25,61,139.29
4131,F4,649.5,0.25,41,139.29
4132,B-4,649.75,0.25,60,139.29
4133,C#4,649.75,0.25,41,139.29
4134,A5,650.0,0.5,74,139.29
4135,C#3,650.0,0.25,51,139.29
4136,F4,650.25,0.25,52,139.29
4137,B-4,650.5,0.25,63,139.29
4138,C#5,650.75,0.25,65,139.29
4139,B-5,651.0,0.5,73,139.29
4140,F5,651.0,0.25,73,139.29
4141,B-3,651.0,1.0,68,139.29
4142,F#5,651.25,0.25,68,139.29
4143,C#4,651.25,0.25,45,139.29
4144,F5,651.5,0.25,71,139.29
4145,F4,651.5,0.25,47,139.29
4146,E-5,651.75,0.25,70,139.29
4147,C#4,651.75,0.25,48,139.29
4148,C#5,652.0,0.25,73,139.29
4149,A3,652.0,1.0,74,139.29
4150,E-5,652.25,0.25,72,139.29
4151,C#4,652.25,0.25,50,139.29
4152,C#5,652.5,0.25,74,139.29
4153,F4,652.5,0.25,49,139.29
4154,C5,652.75,0.25,74,139.29
4155,C#4,652.75,0.25,50,139.29
4156,B-5,653.0,0.5,88,139.29
4157,B-4,653.0,0.25,73,139.29
4158,B-3,653.0,1.0,77,139.29
4159,C5,653.25,0.25,73,139.29
4160,C#4,653.25,0.25,50,139.29
4161,C#5,653.5,0.25,74,139.29
4162,F4,653.5,0.25,51,139.29
4163,B-4,653.75,0.25,73,139.29
4164,C#4,653.75,0.25,50,139.29
4165,E-3,654.0,0.25,70,139.29
4166,B4,654.0,0.25,88,139.29
4167,B5,654.0,0.25,88,139.29
4168,F#5,654.25,0.25,74,139.29
4169,F#4,654.25,0.25,55,139.29
4170,B4,654.25,0.25,55,139.29
4171,B5,654.5,0.25,76,139.29
4172,E-4,654.5,0.25,59,139.29
4173,E-6,654.75,0.25,78,139.29
4174,F#4,654.75,0.25,55,139.29
4175,B4,654.75,0.25,55,139.29
4176,F#6,655.0,0.25,80,139.29
4177,E-4,655.0,0.25,59,139.29
4178,G#6,655.25,0.25,76,139.29
4179,F#4,655.25,0.25,55,139.29
4180,B4,655.25,0.25,55,139.29
4181,F#6,655.5,0.25,76,139.29
4182,E-4,655.5,0.25,59,139.29
4183,F6,655.75,0.25,76,139.29
4184,F#4,655.75,0.25,56,139.29
4185,B4,655.75,0.25,56,139.29
4186,E-6,656.0,0.25,77,139.29
4187,E-4,656.0,0.25,59,139.29
4188,F6,656.25,0.25,71,139.29
4189,F#4,656.25,0.25,55,139.29
4190,B4,656.25,0.25,55,139.29
4191,E-6,656.5,0.25,72,139.29
4192,E-4,656.5,0.25,59,139.29
4193,C#6,656.75,0.25,72,139.29
4194,F#4,656.75,0.25,55,139.29
4195,B4,656.75,0.25,55,139.29
4196,B5,657.0,0.25,78,139.29
4197,E-4,657.0,0.25,59,139.29
4198,C#6,657.25,0.25,73,139.29
4199,F#4,657.25,0.25,55,139.29
4200,B4,657.25,0.25,55,139.29
4201,B5,657.5,0.25,73,139.29
4202,E-4,657.5,0.25,59,139.29
4203,B-5,657.75,0.25,72,139.29
4204,F#4,657.75,0.25,56,139.29
4205,B4,657.75,0.25,56,139.29
4206,A5,658.0,0.25,77,139.29
4207,F4,658.0,0.25,59,139.29
4208,C6,658.25,0.25,71,139.29
4209,A4,658.25,0.25,55,139.29
4210,C5,658.25,0.25,55,139.29
4211,E-5,658.25,0.25,55,139.29
4212,E-6,658.5,0.25,72,139.29
4213,F4,658.5,0.25,59,139.29
4214,C#6,658.75,0.25,72,139.29
4215,A4,658.75,0.25,55,139.29
4216,C5,658.75,0.25,55,139.29
4217,E-5,658.75,0.25,55,139.29
4218,C6,659.0,0.25,78,139.29
4219,F4,659.0,0.25,59,139.29
4220,C#6,659.25,0.25,73,139.29
4221,A4,659.25,0.25,55,139.29
4222,C5,659.25,0.25,55,139.29
4223,E-5,659.25,0.25,55,139.29
4224,C6,659.5,0.25,73,139.29
4225,F4,659.5,0.25,59,139.29
4226,B-5,659.75,0.25,72,139.29
4227,A4,659.75,0.25,56,139.29
4228,C5,659.75,0.25,56,139.29
4229,E-5,659.75,0.25,56,139.29
4230,A5,660.0,0.25,77,139.29
4231,F4,660.0,0.25,59,139.29
4232,B-5,660.25,0.25,71,139.29
4233,A4,660.25,0.25,55,139.29
4234,A5,660.5,0.25,72,139.29
4235,F4,660.5,0.25,59,139.29
4236,F#5,660.75,0.25,72,139.29
4237,A4,660.75,0.25,55,139.29
4238,F5,661.0,0.25,74,139.29
4239,F3,661.0,0.25,59,139.29
4240,E-5,661.25,0.25,71,139.29
4241,F4,661.25,0.25,50,139.29
4242,C#5,661.5,0.25,71,139.29
4243,F3,661.5,0.25,57,139.29
4244,C5,661.75,0.25,69,139.29
4245,F4,661.75,0.25,49,139.29
4246,B-4,662.0,0.25,73,139.29
4247,B-2,662.0,0.5,59,139.29
4248,F5,662.5,1.0,74,139.29
4249,B-3,662.5,0.25,44,139.29
4250,C#4,662.5,0.25,44,139.29
4251,F4,662.75,0.25,38,139.29
4252,B-3,663.0,0.25,44,139.29
4253,C#4,663.0,0.25,44,139.29
4254,F4,663.25,0.25,38,139.29
4255,F5,663.5,0.25,61,139.29
4256,C#4,663.5,0.25,44,139.29
4257,B-3,663.5,0.25,44,139.29
4258,F4,663.75,0.25,38,139.29
4259,F5,664.0,0.25,61,139.29
4260,B-3,664.0,0.25,44,139.29
4261,C#4,664.0,0.25,44,139.29
4262,F4,664.25,0.25,38,139.29
4263,F#5,664.5,1.0,72,139.29
4264,C#4,664.5,0.25,44,139.29
4265,B-3,664.5,0.25,44,139.29
4266,E4,664.75,0.25,38,139.29
4267,B-3,665.0,0.25,44,139.29
4268,C#4,665.0,0.25,44,139.29
4269,E4,665.25,0.25,38,139.29
4270,F#5,665.5,0.25,60,139.29
4271,B-3,665.5,0.25,44,139.29
4272,C#4,665.5,0.25,44,139.29
4273,E4,665.75,0.25,38,139.29
4274,F#5,666.0,0.25,59,139.29
4275,A3,666.0,0.25,44,139.29
4276,C4,666.0,0.25,44,139.29
4277,E4,666.25,0.25,38,139.29
4278,F5,666.5,1.0,73,139.29
4279,C4,666.5,0.25,44,139.29
4280,A3,666.5,0.25,44,139.29
4281,F4,666.75,0.25,38,139.29
4282,A3,667.0,0.25,44,139.29
4283,C4,667.0,0.25,44,139.29
4284,F4,667.25,0.25,38,139.29
4285,F5,667.5,0.25,63,139.29
4286,A3,667.5,0.25,44,139.29
4287,C4,667.5,0.25,44,139.29
4288,F4,667.75,0.25,38,139.29
4289,F5,668.0,0.25,65,139.29
4290,A3,668.0,0.25,44,139.29
4291,C4,668.0,0.25,44,139.29
4292,F4,668.25,0.25,38,139.29
4293,C5,668.5,0.25,61,139.29
4294,C4,668.5,0.25,44,139.29
4295,A3,668.5,0.25,44,139.29
4296,F4,668.75,0.25,38,139.29
4297,C#5,669.0,0.25,61,139.29
4298,A3,669.0,0.25,44,139.29
4299,C4,669.0,0.25,44,139.29
4300,F4,669.25,0.25,38,139.29
4301,E-5,669.5,0.25,61,139.29
4302,A3,669.5,0.25,44,139.29
4303,C4,669.5,0.25,44,139.29
4304,F4,669.75,0.25,38,139.29
4305,C#5,670.0,0.25,65,139.29
4306,C#4,670.0,0.25,44,139.29
4307,B-3,670.0,0.25,44,139.29
4308,F4,670.25,0.25,38,139.29
4309,F6,670.5,1.0,76,139.29
4310,F5,670.5,1.0,76,139.29
4311,B-3,670.5,0.25,58,139.29
4312,C#4,670.5,0.25,58,139.29
4313,F4,670.75,0.25,51,139.29
4314,B-3,671.0,0.25,58,139.29
4315,C#4,671.0,0.25,58,139.29
4316,F4,671.25,0.25,51,139.29
4317,F6,671.5,0.25,71,139.29
4318,F5,671.5,0.25,71,139.29
4319,C#4,671.5,0.25,58,139.29
4320,B-3,671.5,0.25,58,139.29
4321,F4,671.75,0.25,51,139.29
4322,F6,672.0,0.25,71,139.29
4323,F5,672.0,0.25,71,139.29
4324,B-3,672.0,0.25,58,139.29
4325,C#4,672.0,0.25,58,139.29
4326,F4,672.25,0.25,51,139.29
4327,F#6,672.5,1.0,78,139.29
4328,F#5,672.5,1.0,78,139.29
4329,C#4,672.5,0.25,58,139.29
4330,B-3,672.5,0.25,58,139.29
4331,E4,672.75,0.25,51,139.29
4332,B-3,673.0,0.25,58,139.29
4333,C#4,673.0,0.25,58,139.29
4334,E4,673.25,0.25,51,139.29
4335,F#6,673.5,0.25,70,139.29
4336,F#5,673.5,0.25,70,139.29
4337,B-3,673.5,0.25,58,139.29
4338,C#4,673.5,0.25,58,139.29
4339,E4,673.75,0.25,51,139.29
4340,F#6,674.0,0.25,69,139.29
4341,F#5,674.0,0.25,69,139.29
4342,A3,674.0,0.25,58,139.29
4343,C4,674.0,0.25,58,139.29
4344,E4,674.25,0.25,51,139.29
4345,F6,674.5,1.0,78,139.29
4346,F5,674.5,1.0,78,139.29
4347,C4,674.5,0.25,58,139.29
4348,A3,674.5,0.25,58,139.29
4349,F4,674.75,0.25,51,139.29
4350,A3,675.0,0.25,58,139.29
4351,C4,675.0,0.25,58,139.29
4352,F4,675.25,0.25,51,139.29
4353,F6,675.5,0.25,74,139.29
4354,F5,675.5,0.25,74,139.29
4355,A3,675.5,0.25,58,139.29
4356,C4,675.5,0.25,58,139.29
4357,F4,675.75,0.25,51,139.29
4358,F6,676.0,0.25,76,139.29
4359,F5,676.0,0.25,76,139.29
4360,A3,676.0,0.25,58,139.29
4361,C4,676.0,0.25,58,139.29
4362,F4,676.25,0.25,51,139.29
4363,C6,676.5,0.25,71,139.29
4364,C5,676.5,0.25,71,139.29
4365,C4,676.5,0.25,58,139.29
4366,A3,676.5,0.25,58,139.29
4367,F4,676.75,0.25,51,139.29
4368,C#6,677.0,0.25,71,139.29
4369,C#5,677.0,0.25,71,139.29
4370,A3,677.0,0.25,58,139.29
4371,C4,677.0,0.25,58,139.29
4372,F4,677.25,0.25,51,139.29
4373,E-6,677.5,0.25,71,139.29
4374,E-5,677.5,0.25,71,139.29
4375,A3,677.5,0.25,58,139.29
4376,C4,677.5,0.25,58,139.29
4377,F4,677.75,0.25,51,139.29
4378,C#6,678.0,0.25,76,139.29
4379,C#5,678.0,0.25,76,139.29
4380,C#4,678.0,0.25,58,139.29
4381,B-3,678.0,0.25,58,139.29
4382,F4,678.25,0.25,51,139.29
4383,C5,678.5,1.0,72,139.29
4384,E3,678.5,0.25,44,139.29
4385,G3,678.5,0.25,44,139.29
4386,C4,678.75,0.25,38,139.29
4387,E3,679.0,0.25,44,139.29
4388,G3,679.0,0.25,44,139.29
4389,C4,679.25,0.25,38,139.29
4390,C5,679.5,0.25,61,139.29
4391,G3,679.5,0.25,44,139.29
4392,E3,679.5,0.25,44,139.29
4393,C4,679.75,0.25,38,139.29
4394,C5,680.0,0.25,61,139.29
4395,F3,680.0,0.25,44,139.29
4396,G#3,680.0,0.25,44,139.29
4397,C4,680.25,0.25,38,139.29
4398,B4,680.5,1.0,72,139.29
4399,G#3,680.5,0.25,44,139.29
4400,F3,680.5,0.25,44,139.29
4401,D4,680.75,0.25,38,139.29
4402,F3,681.0,0.25,44,139.29
4403,G#3,681.0,0.25,44,139.29
4404,D4,681.25,0.25,38,139.29
4405,B4,681.5,0.25,60,139.29
4406,F3,681.5,0.25,44,139.29
4407,G#3,681.5,0.25,44,139.29
4408,D4,681.75,0.25,38,139.29
4409,B4,682.0,0.25,59,139.29
4410,E3,682.0,0.25,44,139.29
4411,G3,682.0,0.25,44,139.29
4412,D4,682.25,0.25,38,139.29
4413,C5,682.5,1.0,71,139.29
4414,G3,682.5,0.25,44,139.29
4415,E3,682.5,0.25,44,139.29
4416,C4,682.75,0.25,38,139.29
4417,E3,683.0,0.25,44,139.29
4418,G3,683.0,0.25,44,139.29
4419,C4,683.25,0.25,38,139.29
4420,C5,683.5,0.25,63,139.29
4421,E3,683.5,0.25,44,139.29
4422,G3,683.5,0.25,44,139.29
4423,C4,683.75,0.25,38,139.29
4424,C5,684.0,0.25,65,139.29
4425,E3,684.0,0.25,44,139.29
4426,G3,684.0,0.25,44,139.29
4427,C4,684.25,0.25,38,139.29
4428,G4,684.5,0.25,61,139.29
4429,G3,684.5,0.25,44,139.29
4430,E3,684.5,0.25,44,139.29
4431,C4,684.75,0.25,38,139.29
4432,G#4,685.0,0.25,61,139.29
4433,E3,685.0,0.25,44,139.29
4434,G3,685.0,0.25,44,139.29
4435,C4,685.25,0.25,38,139.29
4436,B-4,685.5,0.25,61,139.29
4437,E3,685.5,0.25,44,139.29
4438,G3,685.5,0.25,44,139.29
4439,C4,685.75,0.25,38,139.29
4440,G#4,686.0,0.25,65,139.29
4441,G#3,686.0,0.25,44,139.29
4442,F3,686.0,0.25,44,139.29
4443,C4,686.25,0.25,38,139.29
4444,C6,686.5,1.0,76,139.29
4445,C5,686.5,1.0,76,139.29
4446,F3,686.5,0.25,58,139.29
4447,G#3,686.5,0.25,58,139.29
4448,C4,686.75,0.25,51,139.29
4449,F3,687.0,0.25,58,139.29
4450,G#3,687.0,0.25,58,139.29
4451,C4,687.25,0.25,51,139.29
4452,C6,687.5,0.25,71,139.29
4453,C5,687.5,0.25,71,139.29
4454,G#3,687.5,0.25,58,139.29
4455,F3,687.5,0.25,58,139.29
4456,C4,687.75,0.25,51,139.29
4457,C6,688.0,0.25,71,139.29
4458,C5,688.0,0.25,71,139.29
4459,F3,688.0,0.25,58,139.29
4460,G#3,688.0,0.25,58,139.29
4461,C4,688.25,0.25,51,139.29
4462,B5,688.5,1.0,78,139.29
4463,B4,688.5,1.0,78,139.29
4464,G#3,688.5,0.25,58,139.29
4465,F3,688.5,0.25,58,139.29
4466,D4,688.75,0.25,51,139.29
4467,F3,689.0,0.25,58,139.29
4468,G#3,689.0,0.25,58,139.29
4469,D4,689.25,0.25,51,139.29
4470,B5,689.5,0.25,70,139.29
4471,B4,689.5,0.25,70,139.29
4472,F3,689.5,0.25,58,139.29
4473,G#3,689.5,0.25,58,139.29
4474,D4,689.75,0.25,51,139.29
4475,B5,690.0,0.25,69,139.29
4476,B4,690.0,0.25,69,139.29
4477,E3,690.0,0.25,58,139.29
4478,G3,690.0,0.25,58,139.29
4479,D4,690.25,0.25,51,139.29
4480,C6,690.5,1.0,78,139.29
4481,C5,690.5,1.0,78,139.29
4482,G3,690.5,0.25,58,139.29
4483,E3,690.5,0.25,58,139.29
4484,C4,690.75,0.25,51,139.29
4485,E3,691.0,0.25,58,139.29
4486,G3,691.0,0.25,58,139.29
4487,C4,691.25,0.25,51,139.29
4488,C6,691.5,0.25,74,139.29
4489,C5,691.5,0.25,74,139.29
4490,E3,691.5,0.25,58,139.29
4491,G3,691.5,0.25,58,139.29
4492,C4,691.75,0.25,51,139.29
4493,C6,692.0,0.25,76,139.29
4494,C5,692.0,0.25,76,139.29
4495,E3,692.0,0.25,58,139.29
4496,G3,692.0,0.25,58,139.29
4497,C4,692.25,0.25,51,139.29
4498,G5,692.5,0.25,71,139.29
4499,G4,692.5,0.25,71,139.29
4500,G3,692.5,0.25,58,139.29
4501,E3,692.5,0.25,58,139.29
4502,C4,692.75,0.25,51,139.29
4503,G#5,693.0,0.25,71,139.29
4504,G#4,693.0,0.25,71,139.29
4505,E3,693.0,0.25,58,139.29
4506,G3,693.0,0.25,58,139.29
4507,C4,693.25,0.25,51,139.29
4508,B-5,693.5,0.25,71,139.29
4509,B-4,693.5,0.25,71,139.29
4510,E3,693.5,0.25,58,139.29
4511,G3,693.5,0.25,58,139.29
4512,C4,693.75,0.25,51,139.29
4513,G#5,694.0,0.25,76,139.29
4514,G#4,694.0,0.25,76,139.29
4515,F2,694.0,1.0,64,139.29
4516,G#2,694.0,1.0,64,139.29
4517,C3,694.0,1.0,64,139.29
4518,F3,694.0,1.0,64,139.29
4519,C4,694.25,0.25,70,139.29
4520,F4,694.5,0.25,72,139.29
4521,G#4,694.75,0.25,74,139.29
4522,C5,695.0,0.25,76,139.29
4523,C#5,695.25,0.25,72,139.29
4524,C3,695.25,0.25,56,139.29
4525,C5,695.5,0.25,72,139.29
4526,F3,695.5,0.25,58,139.29
4527,B-4,695.75,0.25,72,139.29
4528,G#3,695.75,0.25,60,139.29
4529,G#4,696.0,0.25,73,139.29
4530,C4,696.0,0.25,66,139.29
4531,B-4,696.25,0.25,67,139.29
4532,C#4,696.25,0.25,60,139.29
4533,G#4,696.5,0.25,69,139.29
4534,C4,696.5,0.25,61,139.29
4535,G4,696.75,0.25,69,139.29
4536,B-3,696.75,0.25,61,139.29
4537,F4,697.0,0.25,75,139.29
4538,G#3,697.0,0.25,67,139.29
4539,G4,697.25,0.25,70,139.29
4540,B-3,697.25,0.25,60,139.29
4541,G#4,697.5,0.25,70,139.29
4542,C4,697.5,0.25,60,139.29
4543,F4,697.75,0.25,70,139.29
4544,G#3,697.75,0.25,60,139.29
4545,F#4,698.0,0.25,75,139.29
4546,B-3,698.0,0.25,72,139.29
4547,C#4,698.25,0.25,72,139.29
4548,C4,698.25,0.25,60,139.29
4549,F#4,698.5,0.25,74,139.29
4550,B-3,698.5,0.25,60,139.29
4551,B-4,698.75,0.25,76,139.29
4552,G#3,698.75,0.25,60,139.29
4553,C#5,699.0,0.25,78,139.29
4554,F#3,699.0,0.25,68,139.29
4555,E-5,699.25,0.25,75,139.29
4556,C#3,699.25,0.25,57,139.29
4557,C#5,699.5,0.25,75,139.29
4558,F#3,699.5,0.25,60,139.29
4559,C5,699.75,0.25,75,139.29
4560,B-3,699.75,0.25,62,139.29
4561,B-4,700.0,0.25,76,139.29
4562,C#4,700.0,0.25,69,139.29
4563,C5,700.25,0.25,70,139.29
4564,E-4,700.25,0.25,63,139.29
4565,B-4,700.5,0.25,71,139.29
4566,C#4,700.5,0.25,63,139.29
4567,G#4,700.75,0.25,71,139.29
4568,C4,700.75,0.25,63,139.29
4569,F#4,701.0,0.25,76,139.29
4570,B-3,701.0,0.25,69,139.29
4571,G#4,701.25,0.25,73,139.29
4572,C4,701.25,0.25,62,139.29
4573,B-4,701.5,0.25,73,139.29
4574,C#4,701.5,0.25,62,139.29
4575,F#4,701.75,0.25,72,139.29
4576,B-3,701.75,0.25,62,139.29
4577,A4,702.0,0.25,77,139.29
4578,C4,702.0,0.25,74,139.29
4579,E-4,702.25,0.25,74,139.29
4580,C#4,702.25,0.25,62,139.29
4581,A4,702.5,0.25,76,139.29
4582,C4,702.5,0.25,63,139.29
4583,C5,702.75,0.25,78,139.29
4584,B-3,702.75,0.25,63,139.29
4585,E-5,703.0,0.25,80,139.29
4586,A3,703.0,0.25,70,139.29
4587,F5,703.25,0.25,76,139.29
4588,E-3,703.25,0.25,59,139.29
4589,E-5,703.5,0.25,76,139.29
4590,A3,703.5,0.25,62,139.29
4591,C#5,703.75,0.25,77,139.29
4592,C4,703.75,0.25,65,139.29
4593,C5,704.0,0.25,78,139.29
4594,E-4,704.0,0.25,71,139.29
4595,C#5,704.25,0.25,72,139.29
4596,F4,704.25,0.25,65,139.29
4597,C5,704.5,0.25,73,139.29
4598,E-4,704.5,0.25,65,139.29
4599,B-4,704.75,0.25,73,139.29
4600,C#4,704.75,0.25,65,139.29
4601,A4,705.0,0.25,80,139.29
4602,C4,705.0,0.25,72,139.29
4603,B-4,705.25,0.25,75,139.29
4604,C#4,705.25,0.25,64,139.29
4605,C5,705.5,0.25,75,139.29
4606,E-4,705.5,0.25,64,139.29
4607,A4,705.75,0.25,74,139.29
4608,C4,705.75,0.25,64,139.29
4609,B-4,706.0,0.25,90,139.29
4610,C#4,706.0,0.25,70,139.29
4611,F4,706.25,0.25,76,139.29
4612,F3,706.25,0.25,59,139.29
4613,B-4,706.5,0.25,79,139.29
4614,B-3,706.5,0.25,63,139.29
4615,C#5,706.75,0.25,82,139.29
4616,C#4,706.75,0.25,66,139.29
4617,F5,707.0,0.25,83,139.29
4618,F4,707.0,0.25,65,139.29
4619,F#5,707.25,0.25,83,139.29
4620,F#4,707.25,0.25,65,139.29
4621,F5,707.5,0.25,82,139.29
4622,F4,707.5,0.25,65,139.29
4623,E-5,707.75,0.25,82,139.29
4624,E-4,707.75,0.25,64,139.29
4625,C#5,708.0,0.25,81,139.29
4626,C#4,708.0,0.25,64,139.29
4627,C5,708.25,0.25,81,139.29
4628,C4,708.25,0.25,64,139.29
4629,B-4,708.5,0.25,80,139.29
4630,B-3,708.5,0.25,63,139.29
4631,G#4,708.75,0.25,80,139.29
4632,G#3,708.75,0.25,63,139.29
4633,F#4,709.0,0.25,79,139.29
4634,F#3,709.0,0.25,62,139.29
4635,F4,709.25,0.25,79,139.29
4636,F3,709.25,0.25,62,139.29
4637,E-4,709.5,0.25,78,139.29
4638,E-3,709.5,0.25,62,139.29
4639,C#4,709.75,0.25,78,139.29
4640,C#3,709.75,0.25,61,139.29
4641,C4,710.0,0.25,77,139.29
4642,C3,710.0,0.25,61,139.29
4643,B-3,710.25,0.25,77,139.29
4644,B-2,710.25,0.25,61,139.29
4645,G#3,710.5,0.25,76,139.29
4646,G#2,710.5,0.25,60,139.29
4647,F#3,710.75,0.25,76,139.29
4648,F#2,710.75,0.25,60,139.29
4649,F3,711.0,0.25,73,139.29
4650,F2,711.0,0.25,59,139.29
4651,E-3,711.25,0.25,73,139.29
4652,E-2,711.25,0.25,59,139.29
4653,C#3,711.5,0.25,74,139.29
4654,C#2,711.5,0.25,59,139.29
4655,C3,711.75,0.25,76,139.29
4656,C2,711.75,0.25,59,139.29
4657,B-2,712.0,0.25,78,139.29
4658,B-1,712.0,0.25,59,139.29
4659,C3,712.25,0.25,79,139.29
4660,C2,712.25,0.25,59,139.29
4661,C#3,712.5,0.25,81,139.29
4662,C#2,712.5,0.25,62,139.29
4663,B-2,712.75,0.25,82,139.29
4664,C2,712.75,0.25,64,139.29
4665,B-2,713.0,0.5,82,139.29
4666,B-1,713.0,0.5,65,139.29
4667,B1,713.5,0.5,72,139.29
4668,B2,713.5,0.5,80,139.29
4669,D3,713.5,0.5,80,139.29
4670,F3,713.5,0.5,80,139.29
4671,G#3,713.5,0.5,80,139.29
4672,C2,714.0,0.25,89,139.29
4673,C3,714.0,0.25,87,139.29
4674,E3,714.0,0.25,87,139.29
4675,G3,714.0,0.25,87,139.29
4676,C3,714.25,0.25,66,139.29
4677,C4,714.25,0.25,66,139.29
4678,E2,714.5,0.25,76,139.29
4679,C4,714.75,0.25,66,139.29
4680,C3,714.75,0.25,66,139.29
4681,C2,715.0,0.25,76,139.29
4682,C4,715.25,0.25,66,139.29
4683,C3,715.25,0.25,66,139.29
4684,F2,715.5,0.25,76,139.29
4685,C4,715.75,0.25,66,139.29
4686,C3,715.75,0.25,66,139.29
4687,C2,716.0,0.25,76,139.29
4688,C4,716.25,0.25,66,139.29
4689,C3,716.25,0.25,66,139.29
4690,G2,716.5,0.25,76,139.29
4691,C4,716.75,0.25,66,139.29
4692,C3,716.75,0.25,66,139.29
4693,C2,717.0,0.25,76,139.29
4694,C4,717.25,0.25,66,139.29
4695,C3,717.25,0.25,66,139.29
4696,G#2,717.5,0.25,76,139.29
4697,C4,717.75,0.25,66,139.29
4698,C3,717.75,0.25,66,139.29
4699,C2,718.0,0.25,74,139.29
4700,C4,718.25,0.25,64,139.29
4701,C5,718.25,0.25,64,139.29
4702,B-2,718.5,0.25,74,139.29
4703,C4,718.75,0.25,64,139.29
4704,C5,718.75,0.25,64,139.29
4705,C2,719.0,0.25,75,139.29
4706,C4,719.25,0.25,65,139.29
4707,C5,719.25,0.25,65,139.29
4708,G#2,719.5,0.25,76,139.29
4709,C4,719.75,0.25,66,139.29
4710,C5,719.75,0.25,66,139.29
4711,C2,720.0,0.25,77,139.29
4712,C4,720.25,0.25,64,139.29
4713,C5,720.25,0.25,64,139.29
4714,G2,720.5,0.25,78,139.29
4715,C4,720.75,0.25,64,139.29
4716,C5,720.75,0.25,64,139.29
4717,C2,721.0,0.25,79,139.29
4718,C4,721.25,0.25,65,139.29
4719,C5,721.25,0.25,65,139.29
4720,F2,721.5,0.25,80,139.29
4721,C4,721.75,0.25,66,139.29
4722,C5,721.75,0.25,66,139.29
4723,C2,722.0,0.25,81,139.29
4724,C5,722.25,0.25,67,139.29
4725,C6,722.25,0.25,67,139.29
4726,E2,722.5,0.25,82,139.29
4727,C5,722.75,0.25,68,139.29
4728,C6,722.75,0.25,68,139.29
4729,C2,723.0,0.25,82,139.29
4730,C5,723.25,0.25,69,139.29
4731,C6,723.25,0.25,69,139.29
4732,F2,723.5,0.25,83,139.29
4733,C5,723.75,0.25,70,139.29
4734,C6,723.75,0.25,70,139.29
4735,C2,724.0,0.25,84,139.29
4736,C5,724.25,0.25,71,139.29
4737,C6,724.25,0.25,71,139.29
4738,G2,724.5,0.25,85,139.29
4739,C5,724.75,0.25,72,139.29
4740,C6,724.75,0.25,72,139.29
4741,C2,725.0,0.25,86,139.29
4742,C5,725.25,0.25,73,139.29
4743,C6,725.25,0.25,73,139.29
4744,G#2,725.5,0.25,87,139.29
4745,C5,725.75,0.25,74,139.29
4746,C6,725.75,0.25,74,139.29
4747,C2,726.0,0.25,88,139.29
4748,C6,726.25,0.25,75,139.29
4749,C7,726.25,0.25,75,139.29
4750,A2,726.5,0.25,89,139.29
4751,C6,726.75,0.25,76,139.29
4752,C7,726.75,0.25,76,139.29
4753,C2,727.0,0.25,91,139.29
4754,C6,727.25,0.25,78,139.29
4755,C7,727.25,0.25,78,139.29
4756,B-2,727.5,0.25,92,139.29
4757,C6,727.75,0.25,81,139.29
4758,C7,727.75,0.25,81,139.29
4759,C2,728.0,0.25,94,139.29
4760,C6,728.25,0.25,82,139.29
4761,C7,728.25,0.25,82,139.29
4762,B2,728.5,0.25,96,139.29
4763,C6,728.75,0.25,84,139.29
4764,C7,728.75,0.25,84,139.29
4765,C2,729.0,0.25,99,139.29
4766,C6,729.25,0.25,86,139.29
4767,C7,729.25,0.25,86,139.29
4768,C3,729.5,0.25,101,139.29
4769,C6,729.75,0.25,88,139.29
4770,C7,729.75,0.25,88,139.29
4771,B-1,730.0,0.5,90,139.29
4772,C#2,730.0,0.5,90,139.29
4773,F#2,730.0,0.5,90,139.29
4774,B-2,730.0,0.5,90,139.29
4775,C#3,730.25,0.25,72,139.29
4776,F#3,730.5,0.25,75,139.29
4777,B-3,730.75,0.25,76,139.29
4778,C#4,731.0,0.25,90,139.29
4779,B-2,731.25,0.25,71,139.29
4780,C#3,731.5,0.25,74,139.29
4781,F#3,731.75,0.25,76,139.29
4782,B-3,732.0,0.25,91,139.29
4783,C#4,732.25,0.25,72,139.29
4784,F#4,732.5,0.25,75,139.29
4785,B-4,732.75,0.25,76,139.29
4786,C#5,733.0,0.25,88,139.29
4787,B-3,733.25,0.25,73,139.29
4788,C#4,733.5,0.25,76,139.29
4789,F#4,733.75,0.25,78,139.29
4790,B-4,734.0,0.25,86,139.29
4791,C#5,734.25,0.25,77,139.29
4792,F#5,734.5,0.25,79,139.29
4793,B-5,734.75,0.25,81,139.29
4794,C#6,735.0,0.5,89,139.29
4795,C2,738.0,0.5,87,139.29
4796,G2,738.0,0.5,87,139.29
4797,B-2,738.0,0.5,87,139.29
4798,C3,738.0,0.5,87,139.29
4799,E3,738.25,0.25,72,139.29
4800,G3,738.5,0.25,75,139.29
4801,B-3,738.75,0.25,76,139.29
4802,E4,739.0,0.25,89,139.29
4803,C3,739.25,0.25,71,139.29
4804,G3,739.5,0.25,74,139.29
4805,B-3,739.75,0.25,76,139.29
4806,C4,740.0,0.25,90,139.29
4807,E4,740.25,0.25,72,139.29
4808,G4,740.5,0.25,75,139.29
4809,B-4,740.75,0.25,76,139.29
4810,E5,741.0,0.25,87,139.29
4811,C4,741.25,0.25,73,139.29
4812,G4,741.5,0.25,76,139.29
4813,B-4,741.75,0.25,78,139.29
4814,C5,742.0,0.25,89,139.29
4815,E5,742.25,0.25,77,139.29
4816,G5,742.5,0.25,79,139.29
4817,B-5,742.75,0.25,81,139.29
4818,E6,743.0,0.5,93,139.29
4819,C#2,746.0,0.333,58,139.29
4820,C#3,746.333,0.333,50,139.29
4821,E3,746.667,0.333,50,139.29
4822,G3,747.0,0.25,50,139.29
4823,B-3,747.25,0.25,54,139.29
4824,C#4,747.5,0.25,51,139.29
4825,E4,747.75,0.25,53,139.29
4826,G4,748.0,0.5,54,139.29
4827,E2,750.0,0.333,55,139.29
4828,E3,750.333,0.333,47,139.29
4829,G3,750.667,0.333,47,139.29
4830,B-3,751.0,0.25,47,139.29
4831,C#4,751.25,0.25,51,139.29
4832,E4,751.5,0.25,48,139.29
4833,G4,751.75,0.25,50,139.29
4834,B-4,752.0,0.5,51,139.29
4835,G2,754.0,0.333,52,139.29
4836,G3,754.333,0.333,44,139.29
4837,B-3,754.667,0.333,44,139.29
4838,C#4,755.0,0.25,44,139.29
4839,E4,755.25,0.25,48,139.29
4840,G4,755.5,0.25,45,139.29
4841,B-4,755.75,0.25,47,139.29
4842,C#5,756.0,0.5,48,139.29
4843,B-2,758.0,0.333,49,139.29
4844,B-3,758.333,0.333,41,139.29
4845,C#4,758.667,0.333,41,139.29
4846,E4,759.0,0.25,41,139.29
4847,G4,759.25,0.25,45,139.29
4848,B-4,759.5,0.25,42,139.29
4849,C#5,759.75,0.25,44,139.29
4850,E5,760.0,0.5,45,139.29
4851,C#3,762.0,0.5,40,139.29
4852,E3,762.5,0.5,36,139.29
4853,G3,763.0,0.5,36,139.29
4854,B-3,763.5,0.5,36,139.29
4855,C#4,764.0,0.5,35,139.29
4856,E4,764.5,0.5,36,139.29
4857,G4,765.0,0.5,37,139.29
4858,B-4,765.5,0.5,38,139.29
4859,C#5,766.0,0.5,39,139.29
4860,E5,766.5,0.5,40,139.29
4861,G5,767.0,0.5,40,139.29
4862,B-5,767.5,0.5,41,139.29
4863,C#6,768.0,0.5,42,139.29
4864,E6,768.5,0.5,43,139.29
4865,G6,769.0,0.5,44,139.29
4866,B-6,769.5,0.5,46,139.29
4867,G6,770.0,0.5,46,139.29
4868,E6,770.5,0.5,45,139.29
4869,C#6,771.0,0.5,45,139.29
4870,B-5,771.5,0.5,44,139.29
4871,G5,772.0,0.5,44,139.29
4872,E5,772.5,0.5,43,139.29
4873,C#5,773.0,0.5,43,139.29
4874,B-4,773.5,0.5,42,139.29
4875,G4,774.0,0.5,42,139.29
4876,E4,774.5,0.5,41,139.29
4877,C#4,775.0,0.5,40,139.29
4878,B-3,775.5,0.5,38,139.29
4879,G3,776.0,0.5,38,139.29
4880,E3,776.5,0.5,37,139.29
4881,C#3,777.0,0.5,36,139.29
4882,B-2,777.5,0.5,35,139.29
4883,G2,778.0,2.0,35,139.29
4884,E2,780.0,2.0,36,139.29
4885,C#2,782.0,2.0,35,139.29
4886,B-1,784.0,2.0,34,139.29
4887,G1,786.0,4.0,34,139.29
4888,C2,790.0,11.75,34,139.29
4889,E3,790.0,1.5,34,139.29
4890,C3,790.0,1.5,34,139.29
4891,B-2,790.0,1.5,34,139.29
4892,G2,790.0,1.5,34,139.29
4893,G3,794.0,1.5,34,139.29
4894,B-3,794.0,1.5,34,139.29
4895,C4,794.0,1.5,34,139.29
4896,E4,794.0,1.5,34,139.29
4897,G4,796.0,1.5,34,139.29
4898,B-4,796.0,1.5,34,139.29
4899,C5,796.0,1.5,34,139.29
4900,E5,796.0,1.5,34,139.29
4901,E6,798.0,1.5,34,139.29
4902,C6,798.0,1.5,34,139.29
4903,B-5,798.0,1.5,34,139.29
4904,G5,798.0,1.5,34,139.29
4905,G2,800.0,1.5,34,139.29
4906,B-2,800.0,1.5,34,139.29
4907,C3,800.0,1.5,34,139.29
4908,E3,800.0,1.5,34,139.29
4909,C2,801.75,0.25,34,139.29
4910,F2,802.0,1.0,39,139.29
4911,F1,802.0,1.0,39,139.29
4912,C3,802.25,0.25,40,139.29
4913,F3,802.5,0.25,37,139.29
4914,G#3,802.75,0.25,37,139.29
4915,C4,803.0,0.25,40,139.29
4916,C#4,803.25,0.25,38,139.29
4917,C4,803.5,0.25,38,139.29
4918,B-3,803.75,0.25,38,139.29
4919,G#3,804.0,0.25,40,139.29
4920,B-3,804.25,0.25,37,139.29
4921,G#3,804.5,0.25,37,139.29
4922,G3,804.75,0.25,37,139.29
4923,F3,805.0,0.25,40,139.29
4924,G3,805.25,0.25,37,139.29
4925,G#3,805.5,0.25,37,139.29
4926,F3,805.75,0.25,37,139.29
4927,F2,806.0,1.0,40,139.29
4928,F1,806.0,1.0,40,139.29
4929,C3,806.25,0.25,40,139.29
4930,F3,806.5,0.25,37,139.29
4931,G#3,806.75,0.25,37,139.29
4932,C4,807.0,0.25,40,139.29
4933,C#4,807.25,0.25,38,139.29
4934,C4,807.5,0.25,38,139.29
4935,B-3,807.75,0.25,38,139.29
4936,G#4,807.75,0.25,51,139.29
4937,C5,807.75,0.25,51,139.29
4938,G#3,808.0,0.25,40,139.29
4939,G#4,808.0,1.0,56,139.29
4940,C5,808.0,1.0,56,139.29
4941,B-3,808.25,0.25,37,139.29
4942,G#3,808.5,0.25,37,139.29
4943,G3,808.75,0.25,37,139.29
4944,F3,809.0,0.25,40,139.29
4945,F4,809.0,0.5,30,139.29
4946,G#4,809.0,0.5,30,139.29
4947,G3,809.25,0.25,37,139.29
4948,G#3,809.5,0.25,37,139.29
4949,F3,809.75,0.25,37,139.29
4950,B-2,810.0,1.0,40,139.29
4951,B-1,810.0,1.0,40,139.29
4952,C#3,810.25,0.25,44,139.29
4953,F#3,810.5,0.25,40,139.29
4954,B-3,810.75,0.25,40,139.29
4955,C#4,811.0,0.25,44,139.29
4956,E-4,811.25,0.25,41,139.29
4957,C#4,811.5,0.25,41,139.29
4958,C4,811.75,0.25,41,139.29
4959,B-4,811.75,0.25,63,139.29
4960,C#5,811.75,0.25,63,139.29
4961,B-3,812.0,0.25,44,139.29
4962,B-4,812.0,2.0,70,139.29
4963,C#5,812.0,2.0,70,139.29
4964,C4,812.25,0.25,40,139.29
4965,B-3,812.5,0.25,40,139.29
4966,G#3,812.75,0.25,40,139.29
4967,F#3,813.0,0.25,44,139.29
4968,G#3,813.25,0.25,40,139.29
4969,F#3,813.5,0.25,40,139.29
4970,F3,813.75,0.25,40,139.29
4971,E3,814.0,0.25,44,139.29
4972,B-4,814.0,0.5,51,139.29
4973,C5,814.0,0.5,51,139.29
4974,F3,814.25,0.25,40,139.29
4975,G3,814.5,0.25,40,139.29
4976,C3,814.5,0.5,43,139.29
4977,C2,814.5,0.5,43,139.29
4978,E3,814.75,0.25,40,139.29
4979,F3,815.0,0.25,44,139.29
4980,G3,815.25,0.25,40,139.29
4981,G#3,815.5,0.25,40,139.29
4982,C#3,815.5,0.5,37,139.29
4983,C#2,815.5,0.5,37,139.29
4984,F3,815.75,0.25,40,139.29
4985,G3,816.0,0.25,44,139.29
4986,G#3,816.25,0.25,40,139.29
4987,B-3,816.5,0.25,40,139.29
4988,B-2,816.5,0.5,39,139.29
4989,B-1,816.5,0.5,39,139.29
4990,G3,816.75,0.25,40,139.29
4991,E3,817.0,0.25,44,139.29
4992,F3,817.25,0.25,37,139.29
4993,G3,817.5,0.25,38,139.29
4994,C3,817.5,0.5,35,139.29
4995,C2,817.5,0.5,35,139.29
4996,E3,817.75,0.25,40,139.29
4997,F3,818.0,1.0,38,139.29
4998,F1,818.0,0.25,40,139.29
4999,F2,818.0,0.25,40,139.29
5000,C3,818.25,0.25,37,139.29
5001,F3,818.5,0.25,37,139.29
5002,G#3,818.75,0.25,40,139.29
5003,C4,819.0,0.25,38,139.29
5004,C#4,819.25,0.25,38,139.29
5005,E4,819.5,0.25,57,139.29
5006,C4,819.5,0.25,38,139.29
5007,B-3,819.75,0.25,40,139.29
5008,F4,820.0,0.25,62,139.29
5009,G#3,820.0,0.25,37,139.29
5010,B-3,820.25,0.25,37,139.29
5011,G4,820.5,0.25,57,139.29
5012,G#3,820.5,0.25,37,139.29
5013,G3,820.75,0.25,40,139.29
5014,G#4,821.0,0.25,62,139.29
5015,F3,821.0,0.25,37,139.29
5016,G3,821.25,0.25,37,139.29
5017,F4,821.5,0.25,59,139.29
5018,G#3,821.5,0.25,37,139.29
5019,F3,821.75,0.25,37,139.29
5020,G#3,822.0,0.25,40,139.29
5021,C3,822.25,0.25,37,139.29
5022,F3,822.5,0.25,37,139.29
5023,G#3,822.75,0.25,40,139.29
5024,C4,823.0,0.25,38,139.29
5025,C#4,823.25,0.25,38,139.29
5026,C4,823.5,0.25,38,139.29
5027,E5,823.5,0.25,56,139.29
5028,E4,823.5,0.25,56,139.29
5029,B-3,823.75,0.25,40,139.29
5030,G#3,824.0,0.25,37,139.29
5031,F5,824.0,0.25,62,139.29
5032,F4,824.0,0.25,62,139.29
5033,B-3,824.25,0.25,37,139.29
5034,G#3,824.5,0.25,37,139.29
5035,G4,824.5,0.25,58,139.29
5036,G5,824.5,0.25,58,139.29
5037,G3,824.75,0.25,40,139.29
5038,F3,825.0,0.25,37,139.29
5039,G#4,825.0,0.25,62,139.29
5040,G#5,825.0,0.25,62,139.29
5041,G3,825.25,0.25,37,139.29
5042,G#3,825.5,0.25,37,139.29
5043,F4,825.5,0.25,58,139.29
5044,F5,825.5,0.25,58,139.29
5045,F3,825.75,0.25,37,139.29
5046,B-3,826.0,0.25,44,139.29
5047,C#3,826.25,0.25,40,139.29
5048,F#3,826.5,0.25,40,139.29
5049,B-3,826.75,0.25,44,139.29
5050,C#4,827.0,0.25,41,139.29
5051,E-4,827.25,0.25,41,139.29
5052,C#4,827.5,0.25,41,139.29
5053,F4,827.5,0.5,65,139.29
5054,F5,827.5,0.5,65,139.29
5055,C4,827.75,0.25,44,139.29
5056,B-3,828.0,0.25,40,139.29
5057,F#4,828.0,0.5,70,139.29
5058,F#5,828.0,0.5,70,139.29
5059,C4,828.25,0.25,40,139.29
5060,B-3,828.5,0.25,40,139.29
5061,B-4,828.5,0.5,72,139.29
5062,B-5,828.5,0.5,72,139.29
5063,G#3,828.75,0.25,44,139.29
5064,F#3,829.0,0.25,40,139.29
5065,C#5,829.0,0.25,75,139.29
5066,C#6,829.0,0.25,75,139.29
5067,G#3,829.25,0.25,40,139.29
5068,F#3,829.5,0.25,40,139.29
5069,C#5,829.5,0.25,72,139.29
5070,C#6,829.5,0.25,72,139.29
5071,F3,829.75,0.25,44,139.29
5072,E3,830.0,0.25,40,139.29
5073,C#5,830.0,1.0,77,139.29
5074,C#6,830.0,1.0,77,139.29
5075,F3,830.25,0.25,40,139.29
5076,G3,830.5,0.25,40,139.29
5077,G#3,830.75,0.25,44,139.29
5078,B-3,831.0,0.25,40,139.29
5079,C6,831.0,2.0,71,139.29
5080,C5,831.0,2.0,71,139.29
5081,G#3,831.25,0.25,40,139.29
5082,G3,831.5,0.25,40,139.29
5083,F3,831.75,0.25,44,139.29
5084,E3,832.0,0.25,40,139.29
5085,F3,832.25,0.25,40,139.29
5086,E3,832.5,0.25,40,139.29
5087,C#3,832.75,0.25,44,139.29
5088,C3,833.0,0.25,37,139.29
5089,E4,833.0,1.0,64,139.29
5090,E5,833.0,1.0,64,139.29
5091,B-2,833.25,0.25,38,139.29
5092,G#2,833.5,0.25,40,139.29
5093,G2,833.75,0.25,40,139.29
5094,F2,834.0,1.0,44,139.29
5095,F5,834.0,0.25,57,139.29
5096,F4,834.0,0.25,57,139.29
5097,C4,834.25,0.25,41,139.29
5098,F4,834.5,0.25,44,139.29
5099,G#4,834.75,0.25,46,139.29
5100,C5,835.0,0.25,43,139.29
5101,C4,835.25,0.25,45,139.29
5102,F4,835.5,0.25,46,139.29
5103,G#4,835.75,0.25,48,139.29
5104,F3,835.75,0.25,52,139.29
5105,G#3,835.75,0.25,52,139.29
5106,F3,836.0,1.0,65,139.29
5107,G#3,836.0,1.0,65,139.29
5108,C4,836.25,0.25,46,139.29
5109,F4,836.5,0.25,47,139.29
5110,G#4,836.75,0.25,49,139.29
5111,C5,837.0,0.25,50,139.29
5112,C4,837.25,0.25,52,139.29
5113,F4,837.5,0.25,53,139.29
5114,G#4,837.75,0.25,38,139.29
5115,F3,837.75,0.25,54,139.29
5116,G#3,837.75,0.25,54,139.29
5117,C3,838.0,2.0,66,139.29
5118,F3,838.0,2.0,66,139.29
5119,G#3,838.0,2.0,66,139.29
5120,B3,838.25,0.25,51,139.29
5121,D4,838.5,0.25,52,139.29
5122,G#4,838.75,0.25,52,139.29
5123,B4,839.0,1.0,54,139.29
5124,B3,839.25,0.25,52,139.29
5125,D4,839.5,0.25,52,139.29
5126,G#4,839.75,0.25,52,139.29
5127,B4,840.0,1.0,54,139.29
5128,C3,840.0,0.5,48,139.29
5129,E3,840.0,0.5,48,139.29
5130,G3,840.0,0.5,48,139.29
5131,B3,840.25,0.25,52,139.29
5132,E4,840.5,0.25,50,139.29
5133,G4,840.75,0.25,49,139.29
5134,C5,841.0,1.0,52,139.29
5135,C4,841.25,0.25,46,139.29
5136,E4,841.5,0.25,44,139.29
5137,G4,841.75,0.25,38,139.29
5138,C2,842.0,1.0,42,139.29
5139,C3,842.0,1.0,42,139.29
5140,C4,842.25,0.25,38,139.29
5141,E4,842.5,0.25,40,139.29
5142,G4,842.75,0.25,42,139.29
5143,C5,843.0,0.25,43,139.29
5144,C4,843.25,0.25,45,139.29
5145,E4,843.5,0.25,46,139.29
5146,G4,843.75,0.25,48,139.29
5147,G3,843.75,0.25,60,139.29
5148,B-3,843.75,0.25,60,139.29
5149,G3,844.0,1.0,68,139.29
5150,B-3,844.0,1.0,68,139.29
5151,C4,844.25,0.25,46,139.29
5152,E4,844.5,0.25,47,139.29
5153,G4,844.75,0.25,49,139.29
5154,C5,845.0,0.25,50,139.29
5155,C4,845.25,0.25,52,139.29
5156,E4,845.5,0.25,53,139.29
5157,G4,845.75,0.25,38,139.29
5158,G3,845.75,0.25,61,139.29
5159,B-3,845.75,0.25,61,139.29
5160,F3,846.0,2.0,62,139.29
5161,G3,846.0,2.0,62,139.29
5162,B-3,846.0,2.0,62,139.29
5163,C4,846.25,0.25,51,139.29
5164,E4,846.5,0.25,52,139.29
5165,G4,846.75,0.25,52,139.29
5166,C5,847.0,1.0,54,139.29
5167,C4,847.25,0.25,52,139.29
5168,E4,847.5,0.25,52,139.29
5169,G4,847.75,0.25,52,139.29
5170,C5,848.0,1.0,53,139.29
5171,F3,848.0,0.5,50,139.29
5172,G#3,848.0,0.5,50,139.29
5173,C4,848.25,0.25,52,139.29
5174,E4,848.5,0.25,50,139.29
5175,G4,848.75,0.25,49,139.29
5176,C5,849.0,1.0,47,139.29
5177,C4,849.25,0.25,46,139.29
5178,F4,849.5,0.25,44,139.29
5179,G#4,849.75,0.25,38,139.29
5180,F2,850.0,1.0,45,139.29
5181,F3,850.0,1.0,45,139.29
5182,F4,850.25,0.25,38,139.29
5183,A4,850.5,0.25,40,139.29
5184,C5,850.75,0.25,42,139.29
5185,F5,851.0,0.25,43,139.29
5186,F4,851.25,0.25,45,139.29
5187,A4,851.5,0.25,46,139.29
5188,C5,851.75,0.25,48,139.29
5189,C4,851.75,0.25,59,139.29
5190,E-4,851.75,0.25,59,139.29
5191,C4,852.0,1.0,68,139.29
5192,E-4,852.0,1.0,68,139.29
5193,F4,852.25,0.25,46,139.29
5194,A4,852.5,0.25,47,139.29
5195,C5,852.75,0.25,49,139.29
5196,F5,853.0,0.25,50,139.29
5197,F4,853.25,0.25,52,139.29
5198,A4,853.5,0.25,53,139.29
5199,C5,853.75,0.25,54,139.29
5200,C4,853.75,0.25,66,139.29
5201,E-4,853.75,0.25,66,139.29
5202,B-3,854.0,2.5,72,139.29
5203,C4,854.0,2.5,72,139.29
5204,E-4,854.0,2.5,72,139.29
5205,F4,854.25,0.25,50,139.29
5206,A4,854.5,0.25,50,139.29
5207,C5,854.75,0.25,50,139.29
5208,F5,855.0,1.0,55,139.29
5209,F4,855.25,0.25,53,139.29
5210,A4,855.5,0.25,52,139.29
5211,C5,855.75,0.25,52,139.29
5212,A4,856.0,0.25,54,139.29
5213,F4,856.0,0.25,54,139.29
5214,F5,856.25,0.25,54,139.29
5215,F4,856.5,0.25,53,139.29
5216,B-4,856.5,0.25,53,139.29
5217,B-3,856.5,0.5,64,139.29
5218,C#4,856.5,0.5,64,139.29
5219,F5,856.75,0.25,52,139.29
5220,F4,857.0,0.25,52,139.29
5221,C5,857.0,0.25,52,139.29
5222,G#3,857.0,0.5,61,139.29
5223,C4,857.0,0.5,61,139.29
5224,F5,857.25,0.25,51,139.29
5225,C#5,857.5,0.25,50,139.29
5226,F4,857.5,0.25,50,139.29
5227,G3,857.5,0.5,59,139.29
5228,B-3,857.5,0.5,59,139.29
5229,F5,857.75,0.25,50,139.29
5230,C3,858.0,1.0,56,139.29
5231,F3,858.0,1.0,56,139.29
5232,G#3,858.0,1.0,56,139.29
5233,C4,858.25,0.25,52,139.29
5234,F4,858.5,0.25,49,139.29
5235,G#4,858.75,0.25,50,139.29
5236,C5,859.0,1.0,56,139.29
5237,C4,859.25,0.25,50,139.29
5238,F4,859.5,0.25,50,139.29
5239,G#4,859.75,0.25,50,139.29
5240,F3,859.75,0.25,56,139.29
5241,G#3,859.75,0.25,56,139.29
5242,C5,860.0,1.0,56,139.29
5243,C3,860.0,1.0,63,139.29
5244,G3,860.0,1.0,63,139.29
5245,B-3,860.0,1.0,63,139.29
5246,C4,860.25,0.25,52,139.29
5247,G4,860.5,0.25,52,139.29
5248,B-4,860.75,0.25,52,139.29
5249,C5,861.0,1.0,56,139.29
5250,C4,861.25,0.25,52,139.29
5251,E4,861.5,0.25,52,139.29
5252,G4,861.75,0.25,52,139.29
5253,E3,861.75,0.25,53,139.29
5254,G3,861.75,0.25,53,139.29
5255,F3,862.0,0.25,56,139.29
5256,C4,862.0,1.0,59,139.29
5257,F4,862.0,1.0,59,139.29
5258,G#4,862.0,1.0,59,139.29
5259,C5,862.0,1.0,59,139.29
5260,C4,862.25,0.25,49,139.29
5261,G#3,862.5,0.25,49,139.29
5262,F3,862.75,0.25,49,139.29
5263,C3,863.0,0.25,53,139.29
5264,G#3,863.25,0.25,49,139.29
5265,F3,863.5,0.25,49,139.29
5266,C3,863.75,0.25,49,139.29
5267,G#5,863.75,0.25,69,139.29
5268,F5,863.75,0.25,69,139.29
5269,G#2,864.0,0.25,53,139.29
5270,G#5,864.0,1.0,74,139.29
5271,F5,864.0,1.0,74,139.29
5272,F3,864.25,0.25,49,139.29
5273,C3,864.5,0.25,49,139.29
5274,G#2,864.75,0.25,49,139.29
5275,F2,865.0,0.25,53,139.29
5276,C3,865.25,0.25,49,139.29
5277,G#2,865.5,0.25,49,139.29
5278,F2,865.75,0.25,49,139.29
5279,G#5,865.75,0.25,70,139.29
5280,F5,865.75,0.25,70,139.29
5281,C2,866.0,0.25,53,139.29
5282,G#5,866.0,2.0,75,139.29
5283,F5,866.0,2.0,75,139.29
5284,F2,866.25,0.25,49,139.29
5285,G#2,866.5,0.25,49,139.29
5286,C3,866.75,0.25,49,139.29
5287,B2,867.0,0.25,53,139.29
5288,C3,867.25,0.25,49,139.29
5289,B2,867.5,0.25,49,139.29
5290,C3,867.75,0.25,49,139.29
5291,B2,868.0,0.25,53,139.29
5292,G5,868.0,0.5,68,139.29
5293,E5,868.0,0.5,68,139.29
5294,C3,868.25,0.25,49,139.29
5295,G2,868.5,0.25,49,139.29
5296,C3,868.75,0.25,49,139.29
5297,E2,869.0,0.25,53,139.29
5298,C3,869.25,0.25,49,139.29
5299,G2,869.5,0.25,49,139.29
5300,C3,869.75,0.25,49,139.29
5301,C2,870.0,0.25,56,139.29
5302,E2,870.25,0.25,49,139.29
5303,G2,870.5,0.25,49,139.29
5304,C3,870.75,0.25,49,139.29
5305,E2,871.0,0.25,53,139.29
5306,G2,871.25,0.25,49,139.29
5307,C3,871.5,0.25,49,139.29
5308,E3,871.75,0.25,49,139.29
5309,B-5,871.75,0.25,75,139.29
5310,G5,871.75,0.25,75,139.29
5311,G2,872.0,0.25,53,139.29
5312,B-5,872.0,1.0,81,139.29
5313,G5,872.0,1.0,81,139.29
5314,C3,872.25,0.25,49,139.29
5315,E3,872.5,0.25,49,139.29
5316,G3,872.75,0.25,49,139.29
5317,C3,873.0,0.25,53,139.29
5318,E3,873.25,0.25,49,139.29
5319,G3,873.5,0.25,49,139.29
5320,C4,873.75,0.25,49,139.29
5321,B-5,873.75,0.25,77,139.29
5322,G5,873.75,0.25,77,139.29
5323,F3,874.0,0.25,59,139.29
5324,B-5,874.0,2.0,82,139.29
5325,G5,874.0,2.0,82,139.29
5326,G#3,874.25,0.25,49,139.29
5327,C4,874.5,0.25,49,139.29
5328,F4,874.75,0.25,49,139.29
5329,E4,875.0,0.25,53,139.29
5330,F4,875.25,0.25,49,139.29
5331,E4,875.5,0.25,49,139.29
5332,F4,875.75,0.25,49,139.29
5333,E4,876.0,0.25,53,139.29
5334,G#5,876.0,0.5,74,139.29
5335,F5,876.0,0.5,74,139.29
5336,F4,876.25,0.25,49,139.29
5337,C4,876.5,0.25,49,139.29
5338,F4,876.75,0.25,49,139.29
5339,G#3,877.0,0.25,53,139.29
5340,F4,877.25,0.25,49,139.29
5341,C4,877.5,0.25,49,139.29
5342,F4,877.75,0.25,49,139.29
5343,F3,878.0,0.25,61,139.29
5344,A3,878.25,0.25,53,139.29
5345,C4,878.5,0.25,53,139.29
5346,F4,878.75,0.25,53,139.29
5347,A3,879.0,0.25,58,139.29
5348,C4,879.25,0.25,53,139.29
5349,F4,879.5,0.25,53,139.29
5350,A4,879.75,0.25,53,139.29
5351,E-6,879.75,0.25,82,139.29
5352,C6,879.75,0.25,82,139.29
5353,C4,880.0,0.25,58,139.29
5354,E-6,880.0,1.0,89,139.29
5355,C6,880.0,1.0,89,139.29
5356,F4,880.25,0.25,53,139.29
5357,A4,880.5,0.25,53,139.29
5358,C5,880.75,0.25,53,139.29
5359,F4,881.0,0.25,58,139.29
5360,A4,881.25,0.25,53,139.29
5361,C5,881.5,0.25,53,139.29
5362,F5,881.75,0.25,53,139.29
5363,E-6,881.75,0.25,84,139.29
5364,C6,881.75,0.25,84,139.29
5365,A4,882.0,0.25,67,139.29
5366,E-6,882.0,2.5,90,139.29
5367,C6,882.0,2.5,90,139.29
5368,F5,882.25,0.25,53,139.29
5369,E5,882.5,0.25,53,139.29
5370,F5,882.75,0.25,53,139.29
5371,A4,883.0,0.25,58,139.29
5372,F5,883.25,0.25,53,139.29
5373,A4,883.5,0.25,53,139.29
5374,F5,883.75,0.25,53,139.29
5375,A4,884.0,0.25,57,139.29
5376,F5,884.25,0.25,56,139.29
5377,B-4,884.5,0.25,56,139.29
5378,C#6,884.5,0.5,79,139.29
5379,B-5,884.5,0.5,79,139.29
5380,F5,884.75,0.25,55,139.29
5381,C5,885.0,0.25,54,139.29
5382,C6,885.0,0.5,77,139.29
5383,G#5,885.0,0.5,77,139.29
5384,F5,885.25,0.25,53,139.29
5385,C#5,885.5,0.25,52,139.29
5386,B-5,885.5,0.5,73,139.29
5387,G5,885.5,0.5,73,139.29
5388,F5,885.75,0.25,52,139.29
5389,C4,886.0,0.25,52,139.29
5390,G#5,886.0,1.0,82,139.29
5391,F5,886.0,1.0,82,139.29
5392,F4,886.25,0.25,47,139.29
5393,G#4,886.5,0.25,47,139.29
5394,C5,886.75,0.25,47,139.29
5395,B4,887.0,0.25,52,139.29
5396,C5,887.25,0.25,47,139.29
5397,B4,887.5,0.25,47,139.29
5398,C5,887.75,0.25,47,139.29
5399,F6,887.75,0.25,79,139.29
5400,G#5,887.75,0.25,79,139.29
5401,F5,887.75,0.25,79,139.29
5402,C4,888.0,0.25,52,139.29
5403,G6,888.0,1.0,82,139.29
5404,B-5,888.0,1.0,82,139.29
5405,G5,888.0,1.0,82,139.29
5406,E4,888.25,0.25,47,139.29
5407,G4,888.5,0.25,47,139.29
5408,C5,888.75,0.25,47,139.29
5409,C4,889.0,0.25,52,139.29
5410,G4,889.25,0.25,47,139.29
5411,B-4,889.5,0.25,47,139.29
5412,C5,889.75,0.25,47,139.29
5413,E6,889.75,0.25,79,139.29
5414,G5,889.75,0.25,79,139.29
5415,E5,889.75,0.25,79,139.29
5416,F3,890.0,0.25,52,139.29
5417,F6,890.0,0.25,73,139.29
5418,G#5,890.0,0.25,73,139.29
5419,F5,890.0,0.25,73,139.29
5420,C5,890.25,0.25,61,139.29
5421,G#4,890.25,0.25,38,139.29
5422,F4,890.25,0.25,38,139.29
5423,F5,890.5,0.25,62,139.29
5424,C4,890.5,0.25,39,139.29
5425,C5,890.5,0.25,39,139.29
5426,G#5,890.75,0.25,63,139.29
5427,G#4,890.75,0.25,41,139.29
5428,F4,890.75,0.25,41,139.29
5429,C6,891.0,0.25,68,139.29
5430,C4,891.0,0.25,45,139.29
5431,C5,891.0,0.25,45,139.29
5432,C#6,891.25,0.25,65,139.29
5433,G#4,891.25,0.25,44,139.29
5434,F4,891.25,0.25,44,139.29
5435,C6,891.5,0.25,66,139.29
5436,C4,891.5,0.25,45,139.29
5437,C5,891.5,0.25,45,139.29
5438,B-5,891.75,0.25,65,139.29
5439,G#4,891.75,0.25,45,139.29
5440,F4,891.75,0.25,45,139.29
5441,G#5,892.0,0.25,68,139.29
5442,C4,892.0,0.25,46,139.29
5443,C5,892.0,0.25,46,139.29
5444,B-5,892.25,0.25,67,139.29
5445,G#4,892.25,0.25,46,139.29
5446,F4,892.25,0.25,46,139.29
5447,G#5,892.5,0.25,66,139.29
5448,C4,892.5,0.25,45,139.29
5449,C5,892.5,0.25,45,139.29
5450,G5,892.75,0.25,65,139.29
5451,G#4,892.75,0.25,45,139.29
5452,F4,892.75,0.25,45,139.29
5453,F5,893.0,0.25,64,139.29
5454,C4,893.0,0.25,45,139.29
5455,C5,893.0,0.25,45,139.29
5456,G5,893.25,0.25,63,139.29
5457,G#4,893.25,0.25,44,139.29
5458,F4,893.25,0.25,44,139.29
5459,G#5,893.5,0.25,63,139.29
5460,C4,893.5,0.25,44,139.29
5461,C5,893.5,0.25,44,139.29
5462,F5,893.75,0.25,62,139.29
5463,G#4,893.75,0.25,43,139.29
5464,F4,893.75,0.25,43,139.29
5465,F3,894.0,0.25,54,139.29
5466,C5,894.25,0.25,61,139.29
5467,G#4,894.25,0.25,38,139.29
5468,F4,894.25,0.25,38,139.29
5469,F5,894.5,0.25,62,139.29
5470,C4,894.5,0.25,39,139.29
5471,C5,894.5,0.25,39,139.29
5472,G#5,894.75,0.25,63,139.29
5473,G#4,894.75,0.25,41,139.29
5474,F4,894.75,0.25,41,139.29
5475,C6,895.0,0.25,68,139.29
5476,C4,895.0,0.25,45,139.29
5477,C5,895.0,0.25,45,139.29
5478,C#6,895.25,0.25,65,139.29
5479,G#4,895.25,0.25,44,139.29
5480,F4,895.25,0.25,44,139.29
5481,C6,895.5,0.25,66,139.29
5482,C4,895.5,0.25,45,139.29
5483,C5,895.5,0.25,45,139.29
5484,B-5,895.75,0.25,65,139.29
5485,G#4,895.75,0.25,45,139.29
5486,F4,895.75,0.25,45,139.29
5487,G#5,896.0,0.25,68,139.29
5488,C4,896.0,0.25,46,139.29
5489,C5,896.0,0.25,46,139.29
5490,B-5,896.25,0.25,67,139.29
5491,G#4,896.25,0.25,46,139.29
5492,F4,896.25,0.25,46,139.29
5493,G#5,896.5,0.25,66,139.29
5494,C4,896.5,0.25,45,139.29
5495,C5,896.5,0.25,45,139.29
5496,G5,896.75,0.25,65,139.29
5497,G#4,896.75,0.25,45,139.29
5498,F4,896.75,0.25,45,139.29
5499,F5,897.0,0.25,64,139.29
5500,C4,897.0,0.25,45,139.29
5501,C5,897.0,0.25,45,139.29
5502,G5,897.25,0.25,63,139.29
5503,G#4,897.25,0.25,44,139.29
5504,F4,897.25,0.25,44,139.29
5505,G#5,897.5,0.25,63,139.29
5506,C4,897.5,0.25,44,139.29
5507,C5,897.5,0.25,44,139.29
5508,F5,897.75,0.25,62,139.29
5509,G#4,897.75,0.25,43,139.29
5510,F4,897.75,0.25,43,139.29
5511,G#2,898.0,0.25,55,139.29
5512,F#5,898.25,0.25,64,139.29
5513,G#3,898.25,0.25,40,139.29
5514,F#3,898.25,0.25,40,139.29
5515,C6,898.5,0.25,65,139.29
5516,E-3,898.5,0.25,41,139.29
5517,C4,898.5,0.25,41,139.29
5518,E-6,898.75,0.25,66,139.29
5519,G#3,898.75,0.25,43,139.29
5520,F#3,898.75,0.25,43,139.29
5521,F#6,899.0,0.25,72,139.29
5522,E-3,899.0,0.25,47,139.29
5523,C4,899.0,0.25,47,139.29
5524,G#6,899.25,0.25,69,139.29
5525,G#3,899.25,0.25,46,139.29
5526,F#3,899.25,0.25,46,139.29
5527,F#6,899.5,0.25,70,139.29
5528,E-3,899.5,0.25,47,139.29
5529,C4,899.5,0.25,47,139.29
5530,F6,899.75,0.25,69,139.29
5531,G#3,899.75,0.25,48,139.29
5532,F#3,899.75,0.25,48,139.29
5533,E-6,900.0,0.25,72,139.29
5534,E-3,900.0,0.25,49,139.29
5535,C4,900.0,0.25,49,139.29
5536,F6,900.25,0.25,71,139.29
5537,G#3,900.25,0.25,49,139.29
5538,F#3,900.25,0.25,49,139.29
5539,E-6,900.5,0.25,70,139.29
5540,E-3,900.5,0.25,48,139.29
5541,C4,900.5,0.25,48,139.29
5542,C#6,900.75,0.25,69,139.29
5543,G#3,900.75,0.25,47,139.29
5544,F#3,900.75,0.25,47,139.29
5545,C6,901.0,0.25,68,139.29
5546,E-3,901.0,0.25,47,139.29
5547,C4,901.0,0.25,47,139.29
5548,C#6,901.25,0.25,67,139.29
5549,G#3,901.25,0.25,46,139.29
5550,F#3,901.25,0.25,46,139.29
5551,E-6,901.5,0.25,66,139.29
5552,E-3,901.5,0.25,46,139.29
5553,C4,901.5,0.25,46,139.29
5554,C6,901.75,0.25,65,139.29
5555,G#3,901.75,0.25,45,139.29
5556,F#3,901.75,0.25,45,139.29
5557,G#2,902.0,0.25,54,139.29
5558,F#5,902.25,0.25,64,139.29
5559,G#3,902.25,0.25,40,139.29
5560,F#3,902.25,0.25,40,139.29
5561,C6,902.5,0.25,65,139.29
5562,E-3,902.5,0.25,41,139.29
5563,C4,902.5,0.25,41,139.29
5564,E-6,902.75,0.25,66,139.29
5565,G#3,902.75,0.25,43,139.29
5566,F#3,902.75,0.25,43,139.29
5567,F#6,903.0,0.25,72,139.29
5568,E-3,903.0,0.25,47,139.29
5569,C4,903.0,0.25,47,139.29
5570,G#6,903.25,0.25,69,139.29
5571,G#3,903.25,0.25,46,139.29
5572,F#3,903.25,0.25,46,139.29
5573,F#6,903.5,0.25,70,139.29
5574,E-3,903.5,0.25,47,139.29
5575,C4,903.5,0.25,47,139.29
5576,F6,903.75,0.25,69,139.29
5577,G#3,903.75,0.25,48,139.29
5578,F#3,903.75,0.25,48,139.29
5579,E-6,904.0,0.25,72,139.29
5580,E-3,904.0,0.25,49,139.29
5581,C4,904.0,0.25,49,139.29
5582,F6,904.25,0.25,71,139.29
5583,G#3,904.25,0.25,49,139.29
5584,F#3,904.25,0.25,49,139.29
5585,E-6,904.5,0.25,70,139.29
5586,E-3,904.5,0.25,48,139.29
5587,C4,904.5,0.25,48,139.29
5588,C#6,904.75,0.25,69,139.29
5589,G#3,904.75,0.25,47,139.29
5590,F#3,904.75,0.25,47,139.29
5591,C6,905.0,0.25,68,139.29
5592,E-3,905.0,0.25,47,139.29
5593,C4,905.0,0.25,47,139.29
5594,B-5,905.25,0.25,67,139.29
5595,G#3,905.25,0.25,46,139.29
5596,F#3,905.25,0.25,46,139.29
5597,G#5,905.5,0.25,66,139.29
5598,E-3,905.5,0.25,46,139.29
5599,C4,905.5,0.25,46,139.29
5600,F#5,905.75,0.25,65,139.29
5601,G#3,905.75,0.25,45,139.29
5602,F#3,905.75,0.25,45,139.29
5603,F5,906.0,0.25,68,139.29
5604,C#3,906.0,0.25,56,139.29
5605,G#5,906.25,0.25,67,139.29
5606,F4,906.25,0.25,42,139.29
5607,C#4,906.25,0.25,42,139.29
5608,C#6,906.5,0.25,68,139.29
5609,G#3,906.5,0.25,43,139.29
5610,G#4,906.5,0.25,43,139.29
5611,F6,906.75,0.25,69,139.29
5612,F4,906.75,0.25,45,139.29
5613,C#4,906.75,0.25,45,139.29
5614,G#6,907.0,0.25,75,139.29
5615,G#3,907.0,0.25,49,139.29
5616,G#4,907.0,0.25,49,139.29
5617,B-6,907.25,0.25,72,139.29
5618,F4,907.25,0.25,48,139.29
5619,C#4,907.25,0.25,48,139.29
5620,G#6,907.5,0.25,73,139.29
5621,G#3,907.5,0.25,49,139.29
5622,G#4,907.5,0.25,49,139.29
5623,F#6,907.75,0.25,72,139.29
5624,F4,907.75,0.25,50,139.29
5625,C#4,907.75,0.25,50,139.29
5626,F6,908.0,0.25,75,139.29
5627,G#3,908.0,0.25,51,139.29
5628,G#4,908.0,0.25,51,139.29
5629,F#6,908.25,0.25,74,139.29
5630,F4,908.25,0.25,51,139.29
5631,C#4,908.25,0.25,51,139.29
5632,F6,908.5,0.25,73,139.29
5633,G#3,908.5,0.25,50,139.29
5634,G#4,908.5,0.25,50,139.29
5635,E-6,908.75,0.25,72,139.29
5636,F4,908.75,0.25,49,139.29
5637,C#4,908.75,0.25,49,139.29
5638,C#6,909.0,0.25,71,139.29
5639,G#3,909.0,0.25,49,139.29
5640,G#4,909.0,0.25,49,139.29
5641,E-6,909.25,0.25,70,139.29
5642,F4,909.25,0.25,48,139.29
5643,C#4,909.25,0.25,48,139.29
5644,F6,909.5,0.25,69,139.29
5645,G#3,909.5,0.25,48,139.29
5646,G#4,909.5,0.25,48,139.29
5647,C#6,909.75,0.25,68,139.29
5648,F4,909.75,0.25,47,139.29
5649,C#4,909.75,0.25,47,139.29
5650,C#3,910.0,0.25,56,139.29
5651,G#5,910.25,0.25,67,139.29
5652,C#4,910.25,0.25,42,139.29
5653,F4,910.25,0.25,42,139.29
5654,C#6,910.5,0.25,68,139.29
5655,G#3,910.5,0.25,43,139.29
5656,G#4,910.5,0.25,43,139.29
5657,F6,910.75,0.25,69,139.29
5658,C#4,910.75,0.25,45,139.29
5659,F4,910.75,0.25,45,139.29
5660,G#6,911.0,0.25,76,139.29
5661,G#4,911.0,0.5,49,139.29
5662,B-6,911.25,0.25,74,139.29
5663,G#6,911.5,0.25,75,139.29
5664,C#5,911.5,0.5,55,139.29
5665,F#6,911.75,0.25,74,139.29
5666,F6,912.0,0.25,78,139.29
5667,F5,912.0,0.5,58,139.29
5668,F#6,912.25,0.25,77,139.29
5669,G#6,912.5,0.25,77,139.29
5670,G#5,912.5,0.5,62,139.29
5671,F#6,912.75,0.25,76,139.29
5672,F6,913.0,0.25,75,139.29
5673,C#6,913.0,0.5,66,139.29
5674,F#6,913.25,0.25,75,139.29
5675,G#6,913.5,0.25,74,139.29
5676,C#6,913.5,0.5,69,139.29
5677,F6,913.75,0.25,74,139.29
5678,C#6,914.0,1.5,80,139.29
5679,B-5,914.0,1.5,80,139.29
5680,F#6,914.25,0.25,70,139.29
5681,G#6,914.5,0.25,73,139.29
5682,F#6,914.75,0.25,70,139.29
5683,G#6,915.0,0.25,65,139.29
5684,F#6,915.25,0.25,63,139.29
5685,F6,915.5,0.25,59,139.29
5686,G#5,915.5,0.5,66,139.29
5687,C6,915.5,0.5,66,139.29
5688,F#6,915.75,0.25,59,139.29
5689,G5,916.0,1.0,68,139.29
5690,B-5,916.0,1.0,68,139.29
5691,E6,916.25,0.25,58,139.29
5692,F6,916.5,0.25,60,139.29
5693,E6,916.75,0.25,57,139.29
5694,G#5,917.0,1.0,64,139.29
5695,C6,917.0,1.0,64,139.29
5696,F6,917.25,0.25,57,139.29
5697,G6,917.5,0.25,60,139.29
5698,F6,917.75,0.25,56,139.29
5699,C#6,918.0,1.5,80,139.29
5700,B-5,918.0,1.5,80,139.29
5701,F#6,918.25,0.25,70,139.29
5702,G#6,918.5,0.25,73,139.29
5703,F#6,918.75,0.25,70,139.29
5704,G#6,919.0,0.25,65,139.29
5705,F#6,919.25,0.25,63,139.29
5706,F6,919.5,0.25,59,139.29
5707,G#5,919.5,0.5,66,139.29
5708,C6,919.5,0.5,66,139.29
5709,F#6,919.75,0.25,59,139.29
5710,G5,920.0,1.0,68,139.29
5711,B-5,920.0,1.0,68,139.29
5712,E6,920.25,0.25,58,139.29
5713,F6,920.5,0.25,60,139.29
5714,E6,920.75,0.25,57,139.29
5715,G#5,921.0,1.0,64,139.29
5716,C6,921.0,1.0,64,139.29
5717,F6,921.25,0.25,57,139.29
5718,G6,921.5,0.25,60,139.29
5719,F6,921.75,0.25,56,139.29
5720,C#6,922.0,1.5,80,139.29
5721,B-5,922.0,1.5,80,139.29
5722,F#6,922.25,0.25,70,139.29
5723,G#6,922.5,0.25,73,139.29
5724,F#6,922.75,0.25,70,139.29
5725,G#6,923.0,0.25,73,139.29
5726,F#6,923.25,0.25,70,139.29
5727,F6,923.5,0.25,59,139.29
5728,G#5,923.5,0.5,66,139.29
5729,C6,923.5,0.5,66,139.29
5730,G6,923.75,0.25,59,139.29
5731,G5,924.0,1.0,68,139.29
5732,B-5,924.0,1.0,68,139.29
5733,E6,924.25,0.25,58,139.29
5734,F6,924.5,0.25,60,139.29
5735,E6,924.75,0.25,58,139.29
5736,F5,925.0,1.0,65,139.29
5737,G#5,925.0,1.0,65,139.29
5738,C#6,925.25,0.25,58,139.29
5739,E-6,925.5,0.25,61,139.29
5740,C#6,925.75,0.25,57,139.29
5741,G5,926.0,1.0,70,139.29
5742,E5,926.0,1.0,70,139.29
5743,C6,926.25,0.25,60,139.29
5744,C#6,926.5,0.25,62,139.29
5745,C6,926.75,0.25,60,139.29
5746,D5,927.0,1.0,70,139.29
5747,F5,927.0,1.0,70,139.29
5748,B5,927.25,0.25,61,139.29
5749,C6,927.5,0.25,65,139.29
5750,B5,927.75,0.25,62,139.29
5751,F5,928.0,1.0,75,139.29
5752,C#5,928.0,1.0,75,139.29
5753,B-5,928.25,0.25,65,139.29
5754,C6,928.5,0.25,67,139.29
5755,B-5,928.75,0.25,64,139.29
5756,C5,929.0,1.0,75,139.29
5757,F5,929.0,1.0,75,139.29
5758,G#5,929.25,0.25,66,139.29
5759,B-5,929.5,0.25,69,139.29
5760,G#5,929.75,0.25,67,139.29
5761,B4,930.0,2.0,76,139.29
5762,G#5,930.25,0.25,67,139.29
5763,B-5,930.5,0.25,70,139.29
5764,G#5,930.75,0.25,68,139.29
5765,D5,931.0,1.0,75,139.29
5766,G5,931.25,0.25,66,139.29
5767,G#5,931.5,0.25,69,139.29
5768,G5,931.75,0.25,64,139.29
5769,G#4,932.0,1.0,72,139.29
5770,C4,932.0,2.0,72,139.29
5771,C5,932.0,2.0,72,139.29
5772,F5,932.25,0.25,64,139.29
5773,G5,932.5,0.25,65,139.29
5774,F5,932.75,0.25,62,139.29
5775,G4,933.0,1.0,68,139.29
5776,E5,933.25,0.25,60,139.29
5777,F5,933.5,0.25,62,139.29
5778,E5,933.75,0.25,57,139.29
5779,B-2,934.0,1.5,65,139.29
5780,F#3,934.0,1.5,65,139.29
5781,C#3,934.0,1.5,65,139.29
5782,C#4,934.25,0.25,66,139.29
5783,C#5,934.5,0.25,73,139.29
5784,C#4,934.75,0.25,59,139.29
5785,C#5,935.0,0.25,71,139.29
5786,C#4,935.25,0.25,58,139.29
5787,C#5,935.5,0.25,63,139.29
5788,G#2,935.5,0.5,53,139.29
5789,C3,935.5,0.5,53,139.29
5790,F3,935.5,0.5,53,139.29
5791,C#4,935.75,0.25,59,139.29
5792,E3,936.0,1.0,54,139.29
5793,G2,936.0,1.0,54,139.29
5794,B-2,936.0,1.0,54,139.29
5795,C#4,936.25,0.25,60,139.29
5796,C#5,936.5,0.25,71,139.29
5797,C5,936.75,0.25,66,139.29
5798,B-4,937.0,0.25,68,139.29
5799,G#2,937.0,1.0,51,139.29
5800,C3,937.0,1.0,51,139.29
5801,F3,937.0,1.0,51,139.29
5802,G#4,937.25,0.25,66,139.29
5803,G4,937.5,0.25,65,139.29
5804,F4,937.75,0.25,58,139.29
5805,B-2,938.0,1.5,65,139.29
5806,F#3,938.0,1.5,65,139.29
5807,C#3,938.0,1.5,65,139.29
5808,C#5,938.25,0.25,68,139.29
5809,C#6,938.5,0.25,75,139.29
5810,C#5,938.75,0.25,67,139.29
5811,C#6,939.0,0.25,74,139.29
5812,C#5,939.25,0.25,67,139.29
5813,C#6,939.5,0.25,69,139.29
5814,G#2,939.5,0.5,53,139.29
5815,C3,939.5,0.5,53,139.29
5816,F3,939.5,0.5,53,139.29
5817,C#5,939.75,0.25,60,139.29
5818,E3,940.0,1.0,57,139.29
5819,G2,940.0,1.0,57,139.29
5820,B-2,940.0,1.0,57,139.29
5821,C#5,940.25,0.25,61,139.29
5822,C#6,940.5,0.25,73,139.29
5823,C6,940.75,0.25,66,139.29
5824,B-5,941.0,0.25,70,139.29
5825,G#2,941.0,1.0,51,139.29
5826,C3,941.0,1.0,51,139.29
5827,F3,941.0,1.0,51,139.29
5828,G#5,941.25,0.25,68,139.29
5829,G5,941.5,0.25,67,139.29
5830,F5,941.75,0.25,65,139.29
5831,B-2,942.0,1.5,65,139.29
5832,F#3,942.0,1.5,65,139.29
5833,C#3,942.0,1.5,65,139.29
5834,C#4,942.25,0.25,66,139.29
5835,C#5,942.5,0.25,73,139.29
5836,C#4,942.75,0.25,66,139.29
5837,C#5,943.0,0.25,73,139.29
5838,C#4,943.25,0.25,66,139.29
5839,C#5,943.5,0.25,68,139.29
5840,F3,943.5,0.5,53,139.29
5841,G#2,943.5,0.5,53,139.29
5842,C3,943.5,0.5,53,139.29
5843,C#4,943.75,0.25,61,139.29
5844,E3,944.0,1.0,58,139.29
5845,G2,944.0,1.0,58,139.29
5846,B-2,944.0,1.0,58,139.29
5847,C#5,944.25,0.25,68,139.29
5848,C#4,944.5,0.25,60,139.29
5849,C#5,944.75,0.25,68,139.29
5850,C#3,945.0,1.0,52,139.29
5851,F2,945.0,1.0,52,139.29
5852,G#2,945.0,1.0,52,139.29
5853,C#6,945.25,0.25,78,139.29
5854,C#5,945.5,0.25,69,139.29
5855,C#6,945.75,0.25,75,139.29
5856,E2,946.0,1.0,56,139.29
5857,C3,946.0,1.0,56,139.29
5858,G2,946.0,1.0,56,139.29
5859,C6,946.25,0.25,76,139.29
5860,C5,946.5,0.25,71,139.29
5861,C6,946.75,0.25,74,139.29
5862,B2,947.0,1.0,56,139.29
5863,G#2,947.0,1.0,56,139.29
5864,D2,947.0,1.0,56,139.29
5865,F2,947.0,1.0,56,139.29
5866,B5,947.25,0.25,77,139.29
5867,B4,947.5,0.25,71,139.29
5868,B5,947.75,0.25,74,139.29
5869,B-2,948.0,1.0,60,139.29
5870,G2,948.0,1.0,60,139.29
5871,E2,948.0,1.0,60,139.29
5872,B-5,948.25,0.25,78,139.29
5873,B-4,948.5,0.25,69,139.29
5874,B-5,948.75,0.25,74,139.29
5875,F2,949.0,1.0,67,139.29
5876,G#2,949.0,1.0,67,139.29
5877,G#5,949.25,0.25,77,139.29
5878,G#4,949.5,0.25,71,139.29
5879,C5,949.5,0.25,71,139.29
5880,G#5,949.75,0.25,73,139.29
5881,G#2,950.0,1.0,66,139.29
5882,B1,950.0,2.0,66,139.29
5883,G#5,950.25,0.25,75,139.29
5884,D5,950.5,0.25,68,139.29
5885,G#4,950.5,0.25,68,139.29
5886,G#5,950.75,0.25,72,139.29
5887,F#2,951.0,1.0,64,139.29
5888,G5,951.25,0.25,73,139.29
5889,D5,951.5,0.25,66,139.29
5890,G4,951.5,0.25,66,139.29
5891,G5,951.75,0.25,73,139.29
5892,F2,952.0,1.0,61,139.29
5893,C2,952.0,2.0,61,139.29
5894,F5,952.25,0.25,71,139.29
5895,G#4,952.5,0.25,66,139.29
5896,F4,952.5,0.25,66,139.29
5897,F5,952.75,0.25,71,139.29
5898,E2,953.0,1.0,59,139.29
5899,E5,953.25,0.25,72,139.29
5900,G4,953.5,0.25,66,139.29
5901,E4,953.5,0.25,66,139.29
5902,E5,953.75,0.25,69,139.29
5903,F4,954.0,0.25,69,139.29
5904,G#4,954.0,0.25,69,139.29
5905,F5,954.0,0.25,69,139.29
5906,F1,954.0,0.5,62,139.29
5907,G#1,954.0,0.5,62,139.29
5908,C2,954.0,0.5,62,139.29
5909,F2,954.0,0.5,62,139.29
5910,C4,954.25,0.25,74,139.29
5911,F4,954.5,0.25,76,139.29
5912,G#4,954.75,0.25,78,139.29
5913,C5,955.0,0.25,80,139.29
5914,C#5,955.25,0.25,76,139.29
5915,C3,955.25,0.25,59,139.29
5916,C5,955.5,0.25,76,139.29
5917,F3,955.5,0.25,62,139.29
5918,B-4,955.75,0.25,76,139.29
5919,G#3,955.75,0.25,64,139.29
5920,G#4,956.0,0.25,77,139.29
5921,C4,956.0,0.25,70,139.29
5922,B-4,956.25,0.25,71,139.29
5923,C#4,956.25,0.25,64,139.29
5924,G#4,956.5,0.25,72,139.29
5925,C4,956.5,0.25,64,139.29
5926,G4,956.75,0.25,72,139.29
5927,B-3,956.75,0.25,64,139.29
5928,F4,957.0,0.25,78,139.29
5929,G#3,957.0,0.25,70,139.29
5930,E-4,957.25,0.25,73,139.29
5931,G3,957.25,0.25,63,139.29
5932,C#4,957.5,0.25,73,139.29
5933,F3,957.5,0.25,63,139.29
5934,C4,957.75,0.25,72,139.29
5935,E-3,957.75,0.25,63,139.29
5936,B-3,958.0,0.25,75,139.29
5937,C#3,958.0,0.25,67,139.29
5938,G#3,958.25,0.25,70,139.29
5939,C3,958.25,0.25,60,139.29
5940,F#3,958.5,0.25,70,139.29
5941,B-2,958.5,0.25,60,139.29
5942,F3,958.75,0.25,70,139.29
5943,G#2,958.75,0.25,60,139.29
5944,E3,959.0,0.5,73,139.29
5945,G2,959.0,0.25,71,139.29
5946,G#2,959.25,0.25,65,139.29
5947,B-2,959.5,0.25,73,139.29
5948,C3,959.5,0.375,72,139.29
5949,E3,959.5,0.375,72,139.29
5950,F#3,959.5,0.375,72,139.29
5951,C4,959.5,0.375,72,139.29
5952,G#2,959.75,0.25,69,139.29
5953,G2,960.0,0.25,73,139.29
5954,C3,960.0,0.375,67,139.29
5955,E3,960.0,0.375,67,139.29
5956,B-3,960.0,0.375,67,139.29
5957,C4,960.0,0.375,67,139.29
5958,F2,960.25,0.25,73,139.29
5959,E2,960.5,0.25,72,139.29
5960,C3,960.5,0.375,66,139.29
5961,E3,960.5,0.375,66,139.29
5962,B-3,960.5,0.375,66,139.29
5963,C4,960.5,0.375,66,139.29
5964,D2,960.75,0.25,72,139.29
5965,C2,961.0,0.25,71,139.29
5966,C3,961.0,0.375,66,139.29
5967,E3,961.0,0.375,66,139.29
5968,B-3,961.0,0.375,66,139.29
5969,C4,961.0,0.375,66,139.29
5970,B-1,961.25,0.25,71,139.29
5971,G#1,961.5,0.25,70,139.29
5972,C3,961.5,0.375,66,139.29
5973,E3,961.5,0.375,66,139.29
5974,B-3,961.5,0.375,66,139.29
5975,C4,961.5,0.375,66,139.29
5976,G1,961.75,0.25,70,139.29
5977,C3,962.0,0.25,77,139.29
5978,F3,962.0,0.25,77,139.29
5979,G#3,962.0,0.25,77,139.29
5980,C4,962.0,0.25,77,139.29
5981,F1,962.0,0.5,70,139.29
5982,G#1,962.0,0.5,70,139.29
5983,C2,962.0,0.5,70,139.29
5984,F2,962.0,0.5,70,139.29
5985,C5,962.25,0.25,74,139.29
5986,F5,962.5,0.25,76,139.29
5987,G#5,962.75,0.25,78,139.29
5988,C6,963.0,0.25,80,139.29
5989,C#6,963.25,0.25,76,139.29
5990,C4,963.25,0.25,59,139.29
5991,C6,963.5,0.25,76,139.29
5992,F4,963.5,0.25,62,139.29
5993,B-5,963.75,0.25,76,139.29
5994,G#4,963.75,0.25,64,139.29
5995,G#5,964.0,0.25,77,139.29
5996,C5,964.0,0.25,70,139.29
5997,B-5,964.25,0.25,71,139.29
5998,C#5,964.25,0.25,64,139.29
5999,G#5,964.5,0.25,72,139.29
6000,C5,964.5,0.25,64,139.29
6001,G5,964.75,0.25,72,139.29
6002,B-4,964.75,0.25,64,139.29
6003,F5,965.0,0.25,78,139.29
6004,G#4,965.0,0.25,70,139.29
6005,E-5,965.25,0.25,73,139.29
6006,G4,965.25,0.25,63,139.29
6007,C#5,965.5,0.25,73,139.29
6008,F4,965.5,0.25,63,139.29
6009,C5,965.75,0.25,72,139.29
6010,E-4,965.75,0.25,63,139.29
6011,B-4,966.0,0.25,75,139.29
6012,C#4,966.0,0.25,67,139.29
6013,G#4,966.25,0.25,70,139.29
6014,C4,966.25,0.25,60,139.29
6015,G4,966.5,0.25,70,139.29
6016,B-3,966.5,0.25,60,139.29
6017,F4,966.75,0.25,70,139.29
6018,G#3,966.75,0.25,60,139.29
6019,E4,967.0,0.5,73,139.29
6020,G3,967.0,0.25,71,139.29
6021,G#3,967.25,0.25,65,139.29
6022,B-3,967.5,0.25,73,139.29
6023,C4,967.5,0.375,70,139.29
6024,E4,967.5,0.375,70,139.29
6025,G4,967.5,0.375,70,139.29
6026,C5,967.5,0.375,70,139.29
6027,G#3,967.75,0.25,69,139.29
6028,G3,968.0,0.25,73,139.29
6029,C4,968.0,0.375,64,139.29
6030,E4,968.0,0.375,64,139.29
6031,B-4,968.0,0.375,64,139.29
6032,C5,968.0,0.375,64,139.29
6033,F3,968.25,0.25,73,139.29
6034,E3,968.5,0.25,72,139.29
6035,C4,968.5,0.375,62,139.29
6036,E4,968.5,0.375,62,139.29
6037,B-4,968.5,0.375,62,139.29
6038,C5,968.5,0.375,62,139.29
6039,D3,968.75,0.25,72,139.29
6040,C3,969.0,0.25,71,139.29
6041,C4,969.0,0.375,64,139.29
6042,E4,969.0,0.375,64,139.29
6043,B-4,969.0,0.375,64,139.29
6044,C5,969.0,0.375,64,139.29
6045,B-2,969.25,0.25,71,139.29
6046,G#2,969.5,0.25,70,139.29
6047,C4,969.5,0.375,63,139.29
6048,E4,969.5,0.375,63,139.29
6049,B-4,969.5,0.375,63,139.29
6050,C5,969.5,0.375,63,139.29
6051,G2,969.75,0.25,70,139.29
6052,F2,970.0,0.25,67,139.29
6053,C4,970.0,0.5,64,139.29
6054,F4,970.0,0.5,64,139.29
6055,G#4,970.0,0.5,64,139.29
6056,C5,970.0,0.5,64,139.29
6057,G2,970.25,0.25,60,139.29
6058,G#2,970.5,0.25,60,139.29
6059,B-2,970.75,0.25,60,139.29
6060,C3,971.0,0.25,71,139.29
6061,D3,971.25,0.25,65,139.29
6062,E3,971.5,0.25,73,139.29
6063,C5,971.5,0.375,76,139.29
6064,F5,971.5,0.375,76,139.29
6065,G#5,971.5,0.375,76,139.29
6066,C6,971.5,0.375,76,139.29
6067,F3,971.75,0.25,69,139.29
6068,G3,972.0,0.25,73,139.29
6069,C5,972.0,0.375,71,139.29
6070,E5,972.0,0.375,71,139.29
6071,B-5,972.0,0.375,71,139.29
6072,C6,972.0,0.375,71,139.29
6073,F3,972.25,0.25,73,139.29
6074,E3,972.5,0.25,72,139.29
6075,C5,972.5,0.375,68,139.29
6076,E5,972.5,0.375,68,139.29
6077,B-5,972.5,0.375,68,139.29
6078,C6,972.5,0.375,68,139.29
6079,D3,972.75,0.25,72,139.29
6080,C3,973.0,0.25,71,139.29
6081,C5,973.0,0.375,71,139.29
6082,E5,973.0,0.375,71,139.29
6083,B-5,973.0,0.375,71,139.29
6084,C6,973.0,0.375,71,139.29
6085,B-2,973.25,0.25,71,139.29
6086,G#2,973.5,0.25,70,139.29
6087,C5,973.5,0.375,70,139.29
6088,E5,973.5,0.375,70,139.29
6089,B-5,973.5,0.375,70,139.29
6090,C6,973.5,0.375,70,139.29
6091,G2,973.75,0.25,70,139.29
6092,F2,974.0,0.25,67,139.29
6093,C5,974.0,0.375,71,139.29
6094,F5,974.0,0.375,71,139.29
6095,G#5,974.0,0.375,71,139.29
6096,C6,974.0,0.375,71,139.29
6097,G2,974.25,0.25,60,139.29
6098,G#2,974.5,0.25,60,139.29
6099,B-2,974.75,0.25,60,139.29
6100,C3,975.0,0.25,71,139.29
6101,D3,975.25,0.25,65,139.29
6102,E3,975.5,0.25,73,139.29
6103,C4,975.5,0.375,70,139.29
6104,F4,975.5,0.375,70,139.29
6105,G#4,975.5,0.375,70,139.29
6106,C5,975.5,0.375,70,139.29
6107,F3,975.75,0.25,69,139.29
6108,G3,976.0,0.25,73,139.29
6109,C4,976.0,0.375,64,139.29
6110,E4,976.0,0.375,64,139.29
6111,B-4,976.0,0.375,64,139.29
6112,C5,976.0,0.375,64,139.29
6113,F3,976.25,0.25,73,139.29
6114,E3,976.5,0.25,72,139.29
6115,C4,976.5,0.375,62,139.29
6116,E4,976.5,0.375,62,139.29
6117,B-4,976.5,0.375,62,139.29
6118,C5,976.5,0.375,62,139.29
6119,D3,976.75,0.25,72,139.29
6120,C3,977.0,0.25,71,139.29
6121,C4,977.0,0.375,64,139.29
6122,E4,977.0,0.375,64,139.29
6123,B-4,977.0,0.375,64,139.29
6124,C5,977.0,0.375,64,139.29
6125,B-2,977.25,0.25,71,139.29
6126,G#2,977.5,0.25,70,139.29
6127,C4,977.5,0.375,63,139.29
6128,E4,977.5,0.375,63,139.29
6129,B-4,977.5,0.375,63,139.29
6130,C5,977.5,0.375,63,139.29
6131,G2,977.75,0.25,70,139.29
6132,F2,978.0,1.0,67,139.29
6133,C4,978.0,0.25,73,139.29
6134,F4,978.0,0.25,73,139.29
6135,G#4,978.0,0.25,73,139.29
6136,C5,978.0,0.25,73,139.29
6137,G4,978.25,0.25,74,139.29
6138,G#4,978.5,0.25,75,139.29
6139,B-4,978.75,0.25,76,139.29
6140,C5,979.0,0.25,77,139.29
6141,D5,979.25,0.25,78,139.29
6142,E5,979.5,0.25,79,139.29
6143,C3,979.5,0.375,63,139.29
6144,C2,979.5,0.375,63,139.29
6145,F2,979.5,0.375,63,139.29
6146,G#2,979.5,0.375,63,139.29
6147,F5,979.75,0.25,80,139.29
6148,G5,980.0,0.25,80,139.29
6149,G2,980.0,0.375,64,139.29
6150,E2,980.0,0.375,64,139.29
6151,B-2,980.0,0.375,64,139.29
6152,C2,980.0,0.375,64,139.29
6153,C3,980.0,0.375,64,139.29
6154,F5,980.25,0.25,79,139.29
6155,E5,980.5,0.25,79,139.29
6156,G2,980.5,0.375,63,139.29
6157,C2,980.5,0.375,63,139.29
6158,E2,980.5,0.375,63,139.29
6159,B-2,980.5,0.375,63,139.29
6160,C3,980.5,0.375,63,139.29
6161,C#5,980.75,0.25,78,139.29
6162,C5,981.0,0.25,77,139.29
6163,G2,981.0,0.375,59,139.29
6164,E2,981.0,0.375,59,139.29
6165,C2,981.0,0.375,59,139.29
6166,B-2,981.0,0.375,59,139.29
6167,C3,981.0,0.375,59,139.29
6168,B-4,981.25,0.25,76,139.29
6169,G#4,981.5,0.25,75,139.29
6170,G2,981.5,0.375,60,139.29
6171,B-2,981.5,0.375,60,139.29
6172,C2,981.5,0.375,60,139.29
6173,E2,981.5,0.375,60,139.29
6174,C3,981.5,0.375,60,139.29
6175,G4,981.75,0.25,74,139.29
6176,F4,982.0,0.25,73,139.29
6177,C2,982.0,1.0,59,139.29
6178,C3,982.0,1.0,59,139.29
6179,G#2,982.0,1.0,59,139.29
6180,F2,982.0,1.0,59,139.29
6181,G4,982.25,0.25,74,139.29
6182,G#4,982.5,0.25,75,139.29
6183,B-4,982.75,0.25,76,139.29
6184,C5,983.0,0.25,77,139.29
6185,D5,983.25,0.25,78,139.29
6186,E5,983.5,0.25,79,139.29
6187,C4,983.5,0.375,63,139.29
6188,C3,983.5,0.375,63,139.29
6189,F3,983.5,0.375,63,139.29
6190,G#3,983.5,0.375,63,139.29
6191,F5,983.75,0.25,80,139.29
6192,G5,984.0,0.25,80,139.29
6193,G3,984.0,0.375,64,139.29
6194,E3,984.0,0.375,64,139.29
6195,B-3,984.0,0.375,64,139.29
6196,C3,984.0,0.375,64,139.29
6197,C4,984.0,0.375,64,139.29
6198,F5,984.25,0.25,79,139.29
6199,E5,984.5,0.25,79,139.29
6200,G3,984.5,0.375,63,139.29
6201,C3,984.5,0.375,63,139.29
6202,E3,984.5,0.375,63,139.29
6203,B-3,984.5,0.375,63,139.29
6204,C4,984.5,0.375,63,139.29
6205,C#5,984.75,0.25,78,139.29
6206,C5,985.0,0.25,77,139.29
6207,G3,985.0,0.375,59,139.29
6208,E3,985.0,0.375,59,139.29
6209,C3,985.0,0.375,59,139.29
6210,B-3,985.0,0.375,59,139.29
6211,C4,985.0,0.375,59,139.29
6212,B-4,985.25,0.25,76,139.29
6213,G#4,985.5,0.25,75,139.29
6214,G3,985.5,0.375,60,139.29
6215,B-3,985.5,0.375,60,139.29
6216,C3,985.5,0.375,60,139.29
6217,E3,985.5,0.375,60,139.29
6218,C4,985.5,0.375,60,139.29
6219,G4,985.75,0.25,74,139.29
6220,F4,986.0,0.25,73,139.29
6221,C3,986.0,1.0,59,139.29
6222,C4,986.0,1.0,59,139.29
6223,G#3,986.0,1.0,59,139.29
6224,F3,986.0,1.0,59,139.29
6225,G4,986.25,0.25,74,139.29
6226,G#4,986.5,0.25,75,139.29
6227,B-4,986.75,0.25,76,139.29
6228,C5,987.0,0.25,77,139.29
6229,D5,987.25,0.25,78,139.29
6230,E5,987.5,0.25,79,139.29
6231,C3,987.5,0.375,56,139.29
6232,C2,987.5,0.375,56,139.29
6233,F2,987.5,0.375,56,139.29
6234,G#2,987.5,0.375,56,139.29
6235,F5,987.75,0.25,80,139.29
6236,G5,988.0,0.25,80,139.29
6237,G2,988.0,0.375,57,139.29
6238,E2,988.0,0.375,57,139.29
6239,B-2,988.0,0.375,57,139.29
6240,C2,988.0,0.375,57,139.29
6241,C3,988.0,0.375,57,139.29
6242,F#5,988.25,0.25,76,139.29
6243,G5,988.5,0.25,79,139.29
6244,G2,988.5,0.375,56,139.29
6245,C2,988.5,0.375,56,139.29
6246,E2,988.5,0.375,56,139.29
6247,B-2,988.5,0.375,56,139.29
6248,C3,988.5,0.375,56,139.29
6249,F#5,988.75,0.25,73,139.29
6250,G5,989.0,0.25,77,139.29
6251,G2,989.0,0.375,52,139.29
6252,E2,989.0,0.375,52,139.29
6253,C2,989.0,0.375,52,139.29
6254,B-2,989.0,0.375,52,139.29
6255,C3,989.0,0.375,52,139.29
6256,F#5,989.25,0.25,72,139.29
6257,G5,989.5,0.25,75,139.29
6258,G2,989.5,0.375,53,139.29
6259,B-2,989.5,0.375,53,139.29
6260,C2,989.5,0.375,53,139.29
6261,E2,989.5,0.375,53,139.29
6262,C3,989.5,0.375,53,139.29
6263,F#5,989.75,0.25,70,139.29
6264,G5,990.0,0.25,77,139.29
6265,G2,990.0,0.375,57,139.29
6266,E2,990.0,0.375,57,139.29
6267,B-2,990.0,0.375,57,139.29
6268,C2,990.0,0.375,57,139.29
6269,C3,990.0,0.375,57,139.29
6270,F#5,990.25,0.25,72,139.29
6271,G5,990.5,0.25,76,139.29
6272,G2,990.5,0.375,56,139.29
6273,C2,990.5,0.375,56,139.29
6274,E2,990.5,0.375,56,139.29
6275,B-2,990.5,0.375,56,139.29
6276,C3,990.5,0.375,56,139.29
6277,F#5,990.75,0.25,72,139.29
6278,G5,991.0,0.25,75,139.29
6279,G2,991.0,0.375,52,139.29
6280,E2,991.0,0.375,52,139.29
6281,C2,991.0,0.375,52,139.29
6282,B-2,991.0,0.375,52,139.29
6283,C3,991.0,0.375,52,139.29
6284,F#5,991.25,0.25,71,139.29
6285,G5,991.5,0.25,74,139.29
6286,G2,991.5,0.375,53,139.29
6287,B-2,991.5,0.375,53,139.29
6288,C2,991.5,0.375,53,139.29
6289,E2,991.5,0.375,53,139.29
6290,C3,991.5,0.375,53,139.29
6291,F#5,991.75,0.25,71,139.29
6292,G5,992.0,0.25,80,139.29
6293,G2,992.0,0.375,57,139.29
6294,E2,992.0,0.375,57,139.29
6295,B-2,992.0,0.375,57,139.29
6296,C2,992.0,0.375,57,139.29
6297,C3,992.0,0.375,57,139.29
6298,F5,992.25,0.25,79,139.29
6299,E5,992.5,0.25,79,139.29
6300,G2,992.5,0.375,56,139.29
6301,C2,992.5,0.375,56,139.29
6302,E2,992.5,0.375,56,139.29
6303,B-2,992.5,0.375,56,139.29
6304,C3,992.5,0.375,56,139.29
6305,C#5,992.75,0.25,78,139.29
6306,C5,993.0,0.25,77,139.29
6307,G2,993.0,0.375,52,139.29
6308,E2,993.0,0.375,52,139.29
6309,C2,993.0,0.375,52,139.29
6310,B-2,993.0,0.375,52,139.29
6311,C3,993.0,0.375,52,139.29
6312,B-4,993.25,0.25,76,139.29
6313,G#4,993.5,0.25,75,139.29
6314,C3,993.5,0.375,53,139.29
6315,G2,993.5,0.375,53,139.29
6316,B-2,993.5,0.375,53,139.29
6317,C2,993.5,0.375,53,139.29
6318,E2,993.5,0.375,53,139.29
6319,G4,993.75,0.25,74,139.29
6320,G#3,994.0,2.0,100,139.29
6321,C4,994.0,2.0,100,139.29
6322,F4,994.0,2.0,100,139.29
6323,F1,994.0,2.0,65,139.29
6324,G#1,994.0,2.0,65,139.29
6325,C2,994.0,2.0,65,139.29
6326,F2,994.0,2.0,65,139.29
6327,G#3,996.0,2.0,94,139.29
6328,C4,996.0,2.0,94,139.29
6329,G#4,996.0,2.0,94,139.29
6330,F1,996.0,2.0,65,139.29
6331,G#1,996.0,2.0,65,139.29
6332,C2,996.0,2.0,65,139.29
6333,F2,996.0,2.0,65,139.29
6334,G3,998.0,0.25,50,139.29
6335,B-3,998.0,0.25,50,139.29
6336,G4,998.0,0.25,50,139.29
6337,C2,998.0,0.25,40,139.29
6338,C3,998.0,0.25,40,139.29
6339,C2,998.5,0.25,36,139.29
6340,G3,998.5,0.25,50,139.29
6341,B-3,998.5,0.25,50,139.29
6342,E4,998.5,0.25,50,139.29
6343,C2,999.0,0.25,36,139.29
6344,G3,999.0,0.25,46,139.29
6345,B-3,999.0,0.25,46,139.29
6346,C4,999.0,0.25,46,139.29
6347,C2,999.5,0.25,36,139.29
6348,G3,999.5,0.25,46,139.29
6349,B-3,999.5,0.25,46,139.29
6350,E4,999.5,0.25,46,139.29
6351,G#3,1000.0,0.25,50,139.29
6352,C4,1000.0,0.25,50,139.29
6353,F4,1000.0,0.25,50,139.29
6354,F1,1000.0,0.25,40,139.29
6355,F2,1000.0,0.25,40,139.29
6356,F2,1000.5,0.25,37,139.29
6357,G#3,1000.5,0.25,47,139.29
6358,C4,1000.5,0.25,47,139.29
6359,F2,1001.0,0.25,37,139.29
6360,G#3,1001.0,0.25,47,139.29
6361,C4,1001.0,0.25,47,139.29
6362,F4,1001.0,0.25,47,139.29
6363,F2,1001.5,0.25,37,139.29
6364,G#3,1001.5,0.25,47,139.29
6365,C4,1001.5,0.25,47,139.29
6366,G#4,1001.5,0.25,47,139.29
6367,G3,1002.0,0.25,50,139.29
6368,B-3,1002.0,0.25,50,139.29
6369,G4,1002.0,0.25,50,139.29
6370,C2,1002.0,0.25,40,139.29
6371,C3,1002.0,0.25,40,139.29
6372,C2,1002.5,0.25,36,139.29
6373,G3,1002.5,0.25,50,139.29
6374,B-3,1002.5,0.25,50,139.29
6375,E4,1002.5,0.25,50,139.29
6376,C2,1003.0,0.25,36,139.29
6377,G3,1003.0,0.25,46,139.29
6378,B-3,1003.0,0.25,46,139.29
6379,C4,1003.0,0.25,46,139.29
6380,C2,1003.5,0.25,36,139.29
6381,G3,1003.5,0.25,46,139.29
6382,B-3,1003.5,0.25,46,139.29
6383,E4,1003.5,0.25,46,139.29
6384,G#3,1004.0,0.25,50,139.29
6385,C4,1004.0,0.25,50,139.29
6386,F4,1004.0,0.25,50,139.29
6387,F1,1004.0,0.25,40,139.29
6388,F2,1004.0,0.25,40,139.29
6389,F2,1004.5,0.25,37,139.29
6390,G#3,1004.5,0.25,47,139.29
6391,C4,1004.5,0.25,47,139.29
6392,F2,1005.0,0.25,38,139.29
6393,G#3,1005.0,0.25,49,139.29
6394,C4,1005.0,0.25,49,139.29
6395,F4,1005.0,0.25,49,139.29
6396,F2,1005.5,0.25,39,139.29
6397,G#3,1005.5,0.25,50,139.29
6398,C4,1005.5,0.25,50,139.29
6399,G#4,1005.5,0.25,50,139.29
6400,G1,1006.0,0.25,44,139.29
6401,G3,1006.0,0.25,55,139.29
6402,C4,1006.0,0.25,55,139.29
6403,G4,1006.0,0.25,55,139.29
6404,G2,1006.5,0.25,39,139.29
6405,G3,1006.5,0.25,50,139.29
6406,C4,1006.5,0.25,50,139.29
6407,E-4,1006.5,0.25,50,139.29
6408,G1,1007.0,0.25,38,139.29
6409,G3,1007.0,0.25,49,139.29
6410,B3,1007.0,0.25,49,139.29
6411,D4,1007.0,0.25,49,139.29
6412,G1,1007.5,0.25,38,139.29
6413,G3,1007.5,0.25,48,139.29
6414,B3,1007.5,0.25,48,139.29
6415,G4,1007.5,0.25,48,139.29
6416,C4,1008.0,1.0,60,139.29
6417,C2,1008.0,1.0,48,139.29
6418,C4,1009.5,0.167,75,139.29
6419,C2,1009.5,0.125,53,139.29
6420,B-1,1009.625,0.125,55,139.29
6421,D4,1009.667,0.167,78,139.29
6422,G#1,1009.75,0.125,57,139.29
6423,E4,1009.833,0.167,80,139.29
6424,G1,1009.875,0.125,61,139.29
6425,G#3,1010.0,2.0,100,139.29
6426,C4,1010.0,2.0,100,139.29
6427,F4,1010.0,2.0,100,139.29
6428,F1,1010.0,2.0,65,139.29
6429,G#1,1010.0,2.0,65,139.29
6430,C2,1010.0,2.0,65,139.29
6431,F2,1010.0,2.0,65,139.29
6432,G#3,1012.0,2.0,94,139.29
6433,C4,1012.0,2.0,94,139.29
6434,G#4,1012.0,2.0,94,139.29
6435,F1,1012.0,2.0,65,139.29
6436,G#1,1012.0,2.0,65,139.29
6437,C2,1012.0,2.0,65,139.29
6438,F2,1012.0,2.0,65,139.29
6439,G3,1014.0,0.25,50,139.29
6440,B-3,1014.0,0.25,50,139.29
6441,G4,1014.0,0.25,50,139.29
6442,C2,1014.0,0.25,40,139.29
6443,C3,1014.0,0.25,40,139.29
6444,C2,1014.5,0.25,36,139.29
6445,G3,1014.5,0.25,50,139.29
6446,B-3,1014.5,0.25,50,139.29
6447,E4,1014.5,0.25,50,139.29
6448,C2,1015.0,0.25,36,139.29
6449,G3,1015.0,0.25,46,139.29
6450,B-3,1015.0,0.25,46,139.29
6451,C4,1015.0,0.25,46,139.29
6452,C2,1015.5,0.25,36,139.29
6453,G3,1015.5,0.25,46,139.29
6454,B-3,1015.5,0.25,46,139.29
6455,E4,1015.5,0.25,46,139.29
6456,G#3,1016.0,0.25,50,139.29
6457,C4,1016.0,0.25,50,139.29
6458,F4,1016.0,0.25,50,139.29
6459,F1,1016.0,0.25,40,139.29
6460,F2,1016.0,0.25,40,139.29
6461,F2,1016.5,0.25,37,139.29
6462,G#3,1016.5,0.25,47,139.29
6463,C4,1016.5,0.25,47,139.29
6464,F2,1017.0,0.25,37,139.29
6465,G#3,1017.0,0.25,47,139.29
6466,C4,1017.0,0.25,47,139.29
6467,F4,1017.0,0.25,47,139.29
6468,F2,1017.5,0.25,37,139.29
6469,G#3,1017.5,0.25,47,139.29
6470,C4,1017.5,0.25,47,139.29
6471,G#4,1017.5,0.25,47,139.29
6472,G3,1018.0,0.25,50,139.29
6473,B-3,1018.0,0.25,50,139.29
6474,G4,1018.0,0.25,50,139.29
6475,C2,1018.0,0.25,40,139.29
6476,C3,1018.0,0.25,40,139.29
6477,C2,1018.5,0.25,36,139.29
6478,G3,1018.5,0.25,50,139.29
6479,B-3,1018.5,0.25,50,139.29
6480,E4,1018.5,0.25,50,139.29
6481,C2,1019.0,0.25,36,139.29
6482,G3,1019.0,0.25,46,139.29
6483,B-3,1019.0,0.25,46,139.29
6484,C4,1019.0,0.25,46,139.29
6485,C2,1019.5,0.25,36,139.29
6486,G3,1019.5,0.25,46,139.29
6487,B-3,1019.5,0.25,46,139.29
6488,E4,1019.5,0.25,46,139.29
6489,G#3,1020.0,0.25,50,139.29
6490,C4,1020.0,0.25,50,139.29
6491,F4,1020.0,0.25,50,139.29
6492,F1,1020.0,0.25,40,139.29
6493,F2,1020.0,0.25,40,139.29
6494,F2,1020.5,0.25,37,139.29
6495,G#3,1020.5,0.25,47,139.29
6496,C4,1020.5,0.25,47,139.29
6497,F2,1021.0,0.25,38,139.29
6498,G#3,1021.0,0.25,49,139.29
6499,C4,1021.0,0.25,49,139.29
6500,F4,1021.0,0.25,49,139.29
6501,F2,1021.5,0.25,39,139.29
6502,G#3,1021.5,0.25,50,139.29
6503,C4,1021.5,0.25,50,139.29
6504,G#4,1021.5,0.25,50,139.29
6505,G1,1022.0,0.25,44,139.29
6506,G3,1022.0,0.25,55,139.29
6507,C4,1022.0,0.25,55,139.29
6508,G4,1022.0,0.25,55,139.29
6509,G2,1022.5,0.25,39,139.29
6510,G3,1022.5,0.25,50,139.29
6511,C4,1022.5,0.25,50,139.29
6512,E-4,1022.5,0.25,50,139.29
6513,G1,1023.0,0.25,38,139.29
6514,G3,1023.0,0.25,49,139.29
6515,B3,1023.0,0.25,49,139.29
6516,D4,1023.0,0.25,49,139.29
6517,G1,1023.5,0.25,38,139.29
6518,G3,1023.5,0.25,48,139.29
6519,B3,1023.5,0.25,48,139.29
6520,G4,1023.5,0.25,48,139.29
6521,C4,1024.0,1.0,60,139.29
6522,C2,1024.0,1.0,48,139.29
6523,E-4,1025.5,0.167,75,139.29
6524,E-2,1025.5,0.167,63,139.29
6525,F4,1025.667,0.167,78,139.29
6526,F2,1025.667,0.167,66,139.29
6527,G4,1025.833,0.167,80,139.29
6528,G2,1025.833,0.167,68,139.29
6529,C4,1026.0,2.0,100,139.29
6530,E-4,1026.0,2.0,100,139.29
6531,G#4,1026.0,2.0,100,139.29
6532,G#1,1026.0,2.0,65,139.29
6533,C2,1026.0,2.0,65,139.29
6534,E-2,1026.0,2.0,65,139.29
6535,G#2,1026.0,2.0,65,139.29
6536,C4,1028.0,2.0,94,139.29
6537,E-4,1028.0,2.0,94,139.29
6538,C5,1028.0,2.0,94,139.29
6539,G#1,1028.0,2.0,65,139.29
6540,C2,1028.0,2.0,65,139.29
6541,E-2,1028.0,2.0,65,139.29
6542,G#2,1028.0,2.0,65,139.29
6543,B-3,1030.0,0.25,50,139.29
6544,C#4,1030.0,0.25,50,139.29
6545,B-4,1030.0,0.25,50,139.29
6546,E-2,1030.0,0.25,40,139.29
6547,E-3,1030.0,0.25,40,139.29
6548,E-2,1030.5,0.25,36,139.29
6549,B-3,1030.5,0.25,50,139.29
6550,C#4,1030.5,0.25,50,139.29
6551,G4,1030.5,0.25,50,139.29
6552,E-2,1031.0,0.25,36,139.29
6553,B-3,1031.0,0.25,46,139.29
6554,C#4,1031.0,0.25,46,139.29
6555,E-4,1031.0,0.25,46,139.29
6556,E-2,1031.5,0.25,36,139.29
6557,B-3,1031.5,0.25,46,139.29
6558,C#4,1031.5,0.25,46,139.29
6559,G4,1031.5,0.25,46,139.29
6560,C4,1032.0,0.25,50,139.29
6561,E-4,1032.0,0.25,50,139.29
6562,G#4,1032.0,0.25,50,139.29
6563,G#1,1032.0,0.25,40,139.29
6564,G#2,1032.0,0.25,40,139.29
6565,G#2,1032.5,0.25,37,139.29
6566,C4,1032.5,0.25,47,139.29
6567,E-4,1032.5,0.25,47,139.29
6568,G#2,1033.0,0.25,37,139.29
6569,C4,1033.0,0.25,47,139.29
6570,E-4,1033.0,0.25,47,139.29
6571,G#4,1033.0,0.25,47,139.29
6572,G#2,1033.5,0.25,37,139.29
6573,C4,1033.5,0.25,47,139.29
6574,E-4,1033.5,0.25,47,139.29
6575,C5,1033.5,0.25,47,139.29
6576,B-3,1034.0,0.25,50,139.29
6577,C#4,1034.0,0.25,50,139.29
6578,B-4,1034.0,0.25,50,139.29
6579,E-2,1034.0,0.25,40,139.29
6580,E-3,1034.0,0.25,40,139.29
6581,E-2,1034.5,0.25,36,139.29
6582,B-3,1034.5,0.25,50,139.29
6583,C#4,1034.5,0.25,50,139.29
6584,G4,1034.5,0.25,50,139.29
6585,E-2,1035.0,0.25,36,139.29
6586,B-3,1035.0,0.25,46,139.29
6587,C#4,1035.0,0.25,46,139.29
6588,E-4,1035.0,0.25,46,139.29
6589,E-2,1035.5,0.25,36,139.29
6590,B-3,1035.5,0.25,46,139.29
6591,C#4,1035.5,0.25,46,139.29
6592,G4,1035.5,0.25,46,139.29
6593,C4,1036.0,0.25,50,139.29
6594,E-4,1036.0,0.25,50,139.29
6595,G#4,1036.0,0.25,50,139.29
6596,G#1,1036.0,0.25,40,139.29
6597,G#2,1036.0,0.25,40,139.29
6598,G#2,1036.5,0.25,37,139.29
6599,C4,1036.5,0.25,47,139.29
6600,E-4,1036.5,0.25,47,139.29
6601,G#2,1037.0,0.25,37,139.29
6602,C4,1037.0,0.25,47,139.29
6603,E-4,1037.0,0.25,47,139.29
6604,G#4,1037.0,0.25,47,139.29
6605,G#2,1037.5,0.25,37,139.29
6606,C4,1037.5,0.25,47,139.29
6607,E-4,1037.5,0.25,47,139.29
6608,C5,1037.5,0.25,47,139.29
6609,C4,1038.0,0.25,52,139.29
6610,E-4,1038.0,0.25,52,139.29
6611,A4,1038.0,0.25,52,139.29
6612,F1,1038.0,0.25,42,139.29
6613,F2,1038.0,0.25,42,139.29
6614,F1,1038.5,0.25,37,139.29
6615,C4,1038.5,0.25,52,139.29
6616,E-4,1038.5,0.25,52,139.29
6617,F4,1038.5,0.25,52,139.29
6618,F1,1039.0,0.25,38,139.29
6619,C4,1039.0,0.25,48,139.29
6620,E-4,1039.0,0.25,48,139.29
6621,A4,1039.0,0.25,48,139.29
6622,F1,1039.5,0.25,38,139.29
6623,C4,1039.5,0.25,49,139.29
6624,E-4,1039.5,0.25,49,139.29
6625,C5,1039.5,0.25,49,139.29
6626,C#4,1040.0,0.25,54,139.29
6627,F4,1040.0,0.25,54,139.29
6628,B-4,1040.0,0.25,54,139.29
6629,B-1,1040.0,0.25,43,139.29
6630,B-2,1040.0,0.25,43,139.29
6631,B-2,1040.5,0.25,40,139.29
6632,C#4,1040.5,0.25,52,139.29
6633,F4,1040.5,0.25,52,139.29
6634,B-2,1041.0,0.25,42,139.29
6635,C#4,1041.0,0.25,53,139.29
6636,F4,1041.0,0.25,53,139.29
6637,B-4,1041.0,0.25,53,139.29
6638,B-2,1041.5,0.25,42,139.29
6639,C#4,1041.5,0.25,54,139.29
6640,F4,1041.5,0.25,54,139.29
6641,C#5,1041.5,0.25,54,139.29
6642,C2,1042.0,0.25,48,139.29
6643,C4,1042.0,0.25,60,139.29
6644,F4,1042.0,0.25,60,139.29
6645,C5,1042.0,0.25,60,139.29
6646,C3,1042.5,0.25,43,139.29
6647,C4,1042.5,0.25,60,139.29
6648,F4,1042.5,0.25,60,139.29
6649,G#4,1042.5,0.25,60,139.29
6650,C2,1043.0,0.25,42,139.29
6651,C4,1043.0,0.25,53,139.29
6652,E4,1043.0,0.25,53,139.29
6653,G4,1043.0,0.25,53,139.29
6654,C2,1043.5,0.25,42,139.29
6655,C4,1043.5,0.25,53,139.29
6656,E4,1043.5,0.25,53,139.29
6657,C5,1043.5,0.25,53,139.29
6658,F4,1044.0,1.0,70,139.29
6659,F1,1044.0,1.0,48,139.29
6660,F2,1044.0,1.0,48,139.29
6661,E-4,1045.5,0.167,75,139.29
6662,E-2,1045.5,0.167,63,139.29
6663,F4,1045.667,0.167,78,139.29
6664,F2,1045.667,0.167,66,139.29
6665,G4,1045.833,0.167,80,139.29
6666,G2,1045.833,0.167,68,139.29
6667,C4,1046.0,2.0,100,139.29
6668,E-4,1046.0,2.0,100,139.29
6669,G#4,1046.0,2.0,100,139.29
6670,G#1,1046.0,2.0,65,139.29
6671,C2,1046.0,2.0,65,139.29
6672,E-2,1046.0,2.0,65,139.29
6673,G#2,1046.0,2.0,65,139.29
6674,C4,1048.0,2.0,94,139.29
6675,E-4,1048.0,2.0,94,139.29
6676,C5,1048.0,2.0,94,139.29
6677,G#1,1048.0,2.0,65,139.29
6678,C2,1048.0,2.0,65,139.29
6679,E-2,1048.0,2.0,65,139.29
6680,G#2,1048.0,2.0,65,139.29
6681,B-3,1050.0,0.25,50,139.29
6682,C#4,1050.0,0.25,50,139.29
6683,B-4,1050.0,0.25,50,139.29
6684,E-2,1050.0,0.25,40,139.29
6685,E-3,1050.0,0.25,40,139.29
6686,E-2,1050.5,0.25,36,139.29
6687,B-3,1050.5,0.25,50,139.29
6688,C#4,1050.5,0.25,50,139.29
6689,G4,1050.5,0.25,50,139.29
6690,E-2,1051.0,0.25,36,139.29
6691,B-3,1051.0,0.25,46,139.29
6692,C#4,1051.0,0.25,46,139.29
6693,E-4,1051.0,0.25,46,139.29
6694,E-2,1051.5,0.25,36,139.29
6695,B-3,1051.5,0.25,46,139.29
6696,C#4,1051.5,0.25,46,139.29
6697,G4,1051.5,0.25,46,139.29
6698,C4,1052.0,0.25,50,139.29
6699,E-4,1052.0,0.25,50,139.29
6700,G#4,1052.0,0.25,50,139.29
6701,G#1,1052.0,0.25,40,139.29
6702,G#2,1052.0,0.25,40,139.29
6703,G#2,1052.5,0.25,37,139.29
6704,C4,1052.5,0.25,47,139.29
6705,E-4,1052.5,0.25,47,139.29
6706,G#2,1053.0,0.25,37,139.29
6707,C4,1053.0,0.25,47,139.29
6708,E-4,1053.0,0.25,47,139.29
6709,G#4,1053.0,0.25,47,139.29
6710,G#2,1053.5,0.25,37,139.29
6711,C4,1053.5,0.25,47,139.29
6712,E-4,1053.5,0.25,47,139.29
6713,C5,1053.5,0.25,47,139.29
6714,B-3,1054.0,0.25,50,139.29
6715,C#4,1054.0,0.25,50,139.29
6716,B-4,1054.0,0.25,50,139.29
6717,E-2,1054.0,0.25,40,139.29
6718,E-3,1054.0,0.25,40,139.29
6719,E-2,1054.5,0.25,36,139.29
6720,B-3,1054.5,0.25,50,139.29
6721,C#4,1054.5,0.25,50,139.29
6722,G4,1054.5,0.25,50,139.29
6723,E-2,1055.0,0.25,36,139.29
6724,B-3,1055.0,0.25,46,139.29
6725,C#4,1055.0,0.25,46,139.29
6726,E-4,1055.0,0.25,46,139.29
6727,E-2,1055.5,0.25,36,139.29
6728,B-3,1055.5,0.25,46,139.29
6729,C#4,1055.5,0.25,46,139.29
6730,G4,1055.5,0.25,46,139.29
6731,C4,1056.0,0.25,50,139.29
6732,E-4,1056.0,0.25,50,139.29
6733,G#4,1056.0,0.25,50,139.29
6734,G#1,1056.0,0.25,40,139.29
6735,G#2,1056.0,0.25,40,139.29
6736,G#2,1056.5,0.25,37,139.29
6737,C4,1056.5,0.25,47,139.29
6738,E-4,1056.5,0.25,47,139.29
6739,G#2,1057.0,0.25,37,139.29
6740,C4,1057.0,0.25,47,139.29
6741,E-4,1057.0,0.25,47,139.29
6742,G#4,1057.0,0.25,47,139.29
6743,G#2,1057.5,0.25,37,139.29
6744,C4,1057.5,0.25,47,139.29
6745,E-4,1057.5,0.25,47,139.29
6746,C5,1057.5,0.25,47,139.29
6747,C4,1058.0,0.25,52,139.29
6748,E-4,1058.0,0.25,52,139.29
6749,A4,1058.0,0.25,52,139.29
6750,F1,1058.0,0.25,42,139.29
6751,F2,1058.0,0.25,42,139.29
6752,F1,1058.5,0.25,37,139.29
6753,C4,1058.5,0.25,52,139.29
6754,E-4,1058.5,0.25,52,139.29
6755,F4,1058.5,0.25,52,139.29
6756,F1,1059.0,0.25,38,139.29
6757,C4,1059.0,0.25,48,139.29
6758,E-4,1059.0,0.25,48,139.29
6759,A4,1059.0,0.25,48,139.29
6760,F1,1059.5,0.25,38,139.29
6761,C4,1059.5,0.25,49,139.29
6762,E-4,1059.5,0.25,49,139.29
6763,C5,1059.5,0.25,49,139.29
6764,C#4,1060.0,0.25,54,139.29
6765,F4,1060.0,0.25,54,139.29
6766,B-4,1060.0,0.25,54,139.29
6767,B-1,1060.0,0.25,43,139.29
6768,B-2,1060.0,0.25,43,139.29
6769,B-2,1060.5,0.25,40,139.29
6770,C#4,1060.5,0.25,52,139.29
6771,F4,1060.5,0.25,52,139.29
6772,B-2,1061.0,0.25,42,139.29
6773,C#4,1061.0,0.25,53,139.29
6774,F4,1061.0,0.25,53,139.29
6775,B-4,1061.0,0.25,53,139.29
6776,B-2,1061.5,0.25,42,139.29
6777,C#4,1061.5,0.25,54,139.29
6778,F4,1061.5,0.25,54,139.29
6779,C#5,1061.5,0.25,54,139.29
6780,C2,1062.0,0.25,48,139.29
6781,C4,1062.0,0.25,60,139.29
6782,F4,1062.0,0.25,60,139.29
6783,C5,1062.0,0.25,60,139.29
6784,C3,1062.5,0.25,43,139.29
6785,C4,1062.5,0.25,60,139.29
6786,F4,1062.5,0.25,60,139.29
6787,G#4,1062.5,0.25,60,139.29
6788,C2,1063.0,0.25,42,139.29
6789,C4,1063.0,0.25,53,139.29
6790,E4,1063.0,0.25,53,139.29
6791,G4,1063.0,0.25,53,139.29
6792,C2,1063.5,0.25,42,139.29
6793,C4,1063.5,0.25,53,139.29
6794,E4,1063.5,0.25,53,139.29
6795,C5,1063.5,0.25,53,139.29
6796,F4,1064.0,0.25,70,139.29
6797,F1,1064.0,0.25,54,139.29
6798,F2,1064.0,0.25,54,139.29
6799,C4,1064.25,0.25,65,139.29
6800,F2,1064.25,2.0,45,139.29
6801,F4,1064.5,0.25,63,139.29
6802,G#2,1064.5,1.75,49,139.29
6803,G#4,1064.75,0.25,62,139.29
6804,C3,1064.75,1.5,52,139.29
6805,C5,1065.0,0.25,62,139.29
6806,F3,1065.0,1.25,67,139.29
6807,C#5,1065.25,0.25,58,139.29
6808,C5,1065.5,0.25,62,139.29
6809,B-4,1065.75,0.25,57,139.29
6810,G#4,1066.0,0.25,65,139.29
6811,B-4,1066.25,0.25,60,139.29
6812,F2,1066.25,2.0,45,139.29
6813,G#4,1066.5,0.25,60,139.29
6814,G#2,1066.5,1.75,49,139.29
6815,G4,1066.75,0.25,54,139.29
6816,C3,1066.75,1.5,52,139.29
6817,F4,1067.0,0.25,63,139.29
6818,F3,1067.0,1.25,67,139.29
6819,G4,1067.25,0.25,54,139.29
6820,G#4,1067.5,0.25,57,139.29
6821,F4,1067.75,0.25,54,139.29
6822,G#4,1068.0,0.25,67,139.29
6823,C4,1068.25,0.25,63,139.29
6824,F2,1068.25,2.0,45,139.29
6825,F4,1068.5,0.25,63,139.29
6826,G#2,1068.5,1.75,49,139.29
6827,G#4,1068.75,0.25,60,139.29
6828,C3,1068.75,1.5,52,139.29
6829,C5,1069.0,0.25,63,139.29
6830,F3,1069.0,1.25,67,139.29
6831,C#5,1069.25,0.25,59,139.29
6832,C5,1069.5,0.25,61,139.29
6833,B-4,1069.75,0.25,61,139.29
6834,G#4,1070.0,0.25,64,139.29
6835,B-4,1070.25,0.25,61,139.29
6836,F2,1070.25,1.75,45,139.29
6837,G#4,1070.5,0.25,60,139.29
6838,G#2,1070.5,1.5,49,139.29
6839,G4,1070.75,0.25,54,139.29
6840,C3,1070.75,1.25,52,139.29
6841,F4,1071.0,0.25,63,139.29
6842,F3,1071.0,1.0,67,139.29
6843,G4,1071.25,0.25,54,139.29
6844,G#4,1071.5,0.25,57,139.29
6845,F4,1071.75,0.25,54,139.29
6846,F#4,1072.0,0.25,67,139.29
6847,C#4,1072.25,0.25,63,139.29
6848,B-2,1072.25,2.0,45,139.29
6849,F#4,1072.5,0.25,63,139.29
6850,C#3,1072.5,1.75,49,139.29
6851,B-4,1072.75,0.25,62,139.29
6852,F#3,1072.75,1.5,52,139.29
6853,C#5,1073.0,0.25,63,139.29
6854,B-3,1073.0,1.25,67,139.29
6855,E-5,1073.25,0.25,61,139.29
6856,C#5,1073.5,0.25,63,139.29
6857,C5,1073.75,0.25,61,139.29
6858,B-4,1074.0,0.25,64,139.29
6859,C5,1074.25,0.25,60,139.29
6860,B-2,1074.25,1.75,45,139.29
6861,B-4,1074.5,0.25,60,139.29
6862,C#3,1074.5,1.5,49,139.29
6863,G#4,1074.75,0.25,54,139.29
6864,F#3,1074.75,1.25,52,139.29
6865,F#4,1075.0,0.25,63,139.29
6866,B-3,1075.0,1.0,67,139.29
6867,G#4,1075.25,0.25,54,139.29
6868,F#4,1075.5,0.25,57,139.29
6869,F4,1075.75,0.25,54,139.29
6870,E4,1076.0,0.25,69,139.29
6871,F4,1076.25,0.25,63,139.29
6872,C3,1076.25,2.0,45,139.29
6873,G4,1076.5,0.25,63,139.29
6874,G3,1076.5,1.75,49,139.29
6875,G#4,1076.75,0.25,62,139.29
6876,B-3,1076.75,1.5,52,139.29
6877,B-4,1077.0,0.25,63,139.29
6878,C4,1077.0,1.25,67,139.29
6879,G#4,1077.25,0.25,61,139.29
6880,G4,1077.5,0.25,63,139.29
6881,F4,1077.75,0.25,61,139.29
6882,E4,1078.0,0.25,63,139.29
6883,F4,1078.25,0.25,64,139.29
6884,C3,1078.25,1.75,45,139.29
6885,G4,1078.5,0.25,61,139.29
6886,G3,1078.5,1.5,49,139.29
6887,G#4,1078.75,0.25,54,139.29
6888,B-3,1078.75,1.25,52,139.29
6889,B-4,1079.0,0.25,62,139.29
6890,C4,1079.0,1.0,67,139.29
6891,C5,1079.25,0.25,63,139.29
6892,D5,1079.5,0.25,65,139.29
6893,E5,1079.75,0.25,69,139.29
6894,F5,1080.0,0.25,72,139.29
6895,F2,1080.0,0.25,56,139.29
6896,F3,1080.0,0.25,56,139.29
6897,C5,1080.25,0.25,69,139.29
6898,F3,1080.25,2.0,47,139.29
6899,F5,1080.5,0.25,65,139.29
6900,G#3,1080.5,1.75,51,139.29
6901,G#5,1080.75,0.25,64,139.29
6902,C4,1080.75,1.5,54,139.29
6903,C6,1081.0,0.25,67,139.29
6904,F4,1081.0,1.25,71,139.29
6905,C#6,1081.25,0.25,64,139.29
6906,C6,1081.5,0.25,64,139.29
6907,B-5,1081.75,0.25,64,139.29
6908,G#5,1082.0,0.25,66,139.29
6909,B-5,1082.25,0.25,63,139.29
6910,F3,1082.25,2.0,47,139.29
6911,G#5,1082.5,0.25,63,139.29
6912,G#3,1082.5,1.75,51,139.29
6913,G5,1082.75,0.25,55,139.29
6914,C4,1082.75,1.5,54,139.29
6915,F5,1083.0,0.25,63,139.29
6916,F4,1083.0,1.25,71,139.29
6917,G5,1083.25,0.25,56,139.29
6918,G#5,1083.5,0.25,60,139.29
6919,F5,1083.75,0.25,55,139.29
6920,G#5,1084.0,0.25,72,139.29
6921,C5,1084.25,0.25,65,139.29
6922,F3,1084.25,2.0,47,139.29
6923,F5,1084.5,0.25,65,139.29
6924,G#3,1084.5,1.75,51,139.29
6925,G#5,1084.75,0.25,64,139.29
6926,C4,1084.75,1.5,54,139.29
6927,C6,1085.0,0.25,67,139.29
6928,F4,1085.0,1.25,71,139.29
6929,C#6,1085.25,0.25,64,139.29
6930,C6,1085.5,0.25,64,139.29
6931,B-5,1085.75,0.25,64,139.29
6932,G#5,1086.0,0.25,64,139.29
6933,B-5,1086.25,0.25,63,139.29
6934,F3,1086.25,1.75,47,139.29
6935,G#5,1086.5,0.25,63,139.29
6936,G#3,1086.5,1.5,51,139.29
6937,G5,1086.75,0.25,55,139.29
6938,C4,1086.75,1.25,54,139.29
6939,F5,1087.0,0.25,63,139.29
6940,F4,1087.0,1.0,71,139.29
6941,G5,1087.25,0.25,56,139.29
6942,G#5,1087.5,0.25,60,139.29
6943,F5,1087.75,0.25,55,139.29
6944,F#5,1088.0,0.25,71,139.29
6945,C#5,1088.25,0.25,65,139.29
6946,B-3,1088.25,2.0,47,139.29
6947,F#5,1088.5,0.25,65,139.29
6948,C#4,1088.5,1.75,51,139.29
6949,B-5,1088.75,0.25,64,139.29
6950,F#4,1088.75,1.5,54,139.29
6951,C#6,1089.0,0.25,67,139.29
6952,B-4,1089.0,1.25,71,139.29
6953,E-6,1089.25,0.25,64,139.29
6954,C#6,1089.5,0.25,64,139.29
6955,C6,1089.75,0.25,64,139.29
6956,B-5,1090.0,0.25,67,139.29
6957,C6,1090.25,0.25,63,139.29
6958,B-3,1090.25,1.75,47,139.29
6959,B-5,1090.5,0.25,63,139.29
6960,C#4,1090.5,1.5,51,139.29
6961,G#5,1090.75,0.25,55,139.29
6962,F#4,1090.75,1.25,54,139.29
6963,F#5,1091.0,0.25,63,139.29
6964,B-4,1091.0,1.0,71,139.29
6965,G#5,1091.25,0.25,56,139.29
6966,F#5,1091.5,0.25,60,139.29
6967,F5,1091.75,0.25,55,139.29
6968,E5,1092.0,0.25,72,139.29
6969,F5,1092.25,0.25,65,139.29
6970,C4,1092.25,2.0,47,139.29
6971,G5,1092.5,0.25,65,139.29
6972,E4,1092.5,1.75,51,139.29
6973,G#5,1092.75,0.25,64,139.29
6974,G4,1092.75,1.5,54,139.29
6975,B-5,1093.0,0.25,70,139.29
6976,C5,1093.0,1.25,71,139.29
6977,G#5,1093.25,0.25,66,139.29
6978,G5,1093.5,0.25,65,139.29
6979,F5,1093.75,0.25,63,139.29
6980,E5,1094.0,0.25,66,139.29
6981,F5,1094.25,0.25,67,139.29
6982,C3,1094.25,1.75,47,139.29
6983,G5,1094.5,0.25,63,139.29
6984,E3,1094.5,1.5,51,139.29
6985,G#5,1094.75,0.25,55,139.29
6986,G3,1094.75,1.25,54,139.29
6987,B-5,1095.0,0.25,63,139.29
6988,C4,1095.0,1.0,73,139.29
6989,C6,1095.25,0.25,66,139.29
6990,D6,1095.5,0.25,71,139.29
6991,E6,1095.75,0.25,73,139.29
6992,F6,1096.0,0.25,80,139.29
6993,F2,1096.0,0.25,77,139.29
6994,F3,1096.0,0.25,77,139.29
6995,G#5,1096.25,0.25,75,139.29
6996,C6,1096.5,0.25,70,139.29
6997,F6,1096.75,0.25,70,139.29
6998,G#6,1097.0,1.25,86,139.29
6999,C5,1097.5,2.0,71,139.29
7000,F5,1097.75,1.75,74,139.29
7001,G#5,1098.0,1.5,89,139.29
7002,C6,1098.25,0.25,70,139.29
7003,F6,1098.5,0.25,70,139.29
7004,G#6,1098.75,0.25,73,139.29
7005,C7,1099.0,0.25,77,139.29
7006,G#6,1099.25,0.25,76,139.29
7007,G6,1099.5,0.25,73,139.29
7008,C4,1099.5,0.5,67,139.29
7009,E6,1099.75,0.25,73,139.29
7010,F6,1100.0,0.25,78,139.29
7011,F4,1100.0,0.5,82,139.29
7012,G#5,1100.25,0.25,75,139.29
7013,C6,1100.5,0.25,70,139.29
7014,F6,1100.75,0.25,70,139.29
7015,G#6,1101.0,1.25,86,139.29
7016,C5,1101.5,2.0,71,139.29
7017,F5,1101.75,1.75,74,139.29
7018,G#5,1102.0,1.5,87,139.29
7019,C6,1102.25,0.25,69,139.29
7020,F6,1102.5,0.25,72,139.29
7021,G#6,1102.75,0.25,75,139.29
7022,C7,1103.0,0.25,77,139.29
7023,G#6,1103.25,0.25,76,139.29
7024,G6,1103.5,0.25,75,139.29
7025,C4,1103.5,0.5,67,139.29
7026,E6,1103.75,0.25,72,139.29
7027,F6,1104.0,0.25,78,139.29
7028,F4,1104.0,0.5,82,139.29
7029,G#5,1104.25,0.25,75,139.29
7030,C6,1104.5,0.25,70,139.29
7031,F6,1104.75,0.25,70,139.29
7032,G#6,1105.0,1.25,86,139.29
7033,C5,1105.5,2.0,71,139.29
7034,F5,1105.75,1.75,74,139.29
7035,G#5,1106.0,1.5,86,139.29
7036,C6,1106.25,0.25,69,139.29
7037,F6,1106.5,0.25,72,139.29
7038,G#6,1106.75,0.25,75,139.29
7039,C7,1107.0,0.25,77,139.29
7040,G#6,1107.25,0.25,76,139.29
7041,G6,1107.5,0.25,75,139.29
7042,C4,1107.5,0.5,67,139.29
7043,E6,1107.75,0.25,73,139.29
7044,F6,1108.0,0.25,77,139.29
7045,F4,1108.0,0.5,85,139.29
7046,G#5,1108.25,0.25,75,139.29
7047,C6,1108.5,0.25,70,139.29
7048,F6,1108.75,0.25,70,139.29
7049,G#6,1109.0,1.25,86,139.29
7050,C5,1109.5,2.0,71,139.29
7051,F5,1109.75,1.75,74,139.29
7052,G#5,1110.0,1.5,88,139.29
7053,C6,1110.25,0.25,70,139.29
7054,F6,1110.5,0.25,72,139.29
7055,G#6,1110.75,0.25,75,139.29
7056,C7,1111.0,0.25,76,139.29
7057,G#6,1111.25,0.25,76,139.29
7058,G6,1111.5,0.25,75,139.29
7059,C4,1111.5,0.5,66,139.29
7060,E6,1111.75,0.25,73,139.29
7061,F6,1112.0,0.25,77,139.29
7062,F4,1112.0,1.0,88,139.29
7063,C6,1112.25,0.25,72,139.29
7064,F6,1112.5,0.25,72,139.29
7065,G#6,1112.75,0.25,76,139.29
7066,C7,1113.0,0.25,79,139.29
7067,G#6,1113.25,0.25,78,139.29
7068,G6,1113.5,0.25,77,139.29
7069,C4,1113.5,0.5,67,139.29
7070,E6,1113.75,0.25,76,139.29
7071,F6,1114.0,0.25,79,139.29
7072,F3,1114.0,1.0,89,139.29
7073,C6,1114.25,0.25,75,139.29
7074,F6,1114.5,0.25,77,139.29
7075,G#6,1114.75,0.25,80,139.29
7076,C7,1115.0,0.25,80,139.29
7077,G#6,1115.25,0.25,79,139.29
7078,G6,1115.5,0.25,77,139.29
7079,C3,1115.5,0.5,66,139.29
7080,E6,1115.75,0.25,77,139.29
7081,F6,1116.0,0.25,89,139.29
7082,F2,1116.0,1.0,92,139.29
7083,C6,1116.25,0.25,82,139.29
7084,F6,1116.5,0.25,85,139.29
7085,G#6,1116.75,0.25,88,139.29
7086,C7,1117.0,0.25,84,139.29
7087,G#6,1117.25,0.25,82,139.29
7088,G6,1117.5,0.25,82,139.29
7089,C2,1117.5,0.5,63,139.29
7090,E6,1117.75,0.25,80,139.29
7091,C7,1118.0,0.25,89,139.29
7092,F1,1118.0,0.5,87,139.29
7093,G#6,1118.25,0.25,75,139.29
7094,G6,1118.5,0.25,79,139.29
7095,C2,1118.5,0.5,65,139.29
7096,E6,1118.75,0.25,84,139.29
7097,C7,1119.0,0.25,90,139.29
7098,F1,1119.0,0.5,89,139.29
7099,G#6,1119.25,0.25,89,139.29
7100,G6,1119.5,0.25,87,139.29
7101,C2,1119.5,0.5,64,139.29
7102,E6,1119.75,0.25,89,139.29
7103,C7,1120.0,0.25,93,139.29
7104,F1,1120.0,0.25,72,139.29
7105,G#6,1120.25,0.25,79,139.29
7106,G#1,1120.25,0.25,63,139.29
7107,F6,1120.5,0.25,80,139.29
7108,C2,1120.5,0.25,63,139.29
7109,C6,1120.75,0.25,80,139.29
7110,F2,1120.75,0.25,63,139.29
7111,G#6,1121.0,0.25,93,139.29
7112,F1,1121.0,0.25,72,139.29
7113,F6,1121.25,0.25,82,139.29
7114,G#1,1121.25,0.25,63,139.29
7115,C6,1121.5,0.25,82,139.29
7116,C2,1121.5,0.25,63,139.29
7117,G#5,1121.75,0.25,82,139.29
7118,F2,1121.75,0.25,63,139.29
7119,F6,1122.0,0.25,93,139.29
7120,F1,1122.0,0.25,72,139.29
7121,C6,1122.25,0.25,81,139.29
7122,G#1,1122.25,0.25,63,139.29
7123,G#5,1122.5,0.25,81,139.29
7124,C2,1122.5,0.25,63,139.29
7125,F5,1122.75,0.25,82,139.29
7126,F2,1122.75,0.25,63,139.29
7127,C6,1123.0,0.25,93,139.29
7128,F1,1123.0,0.25,72,139.29
7129,G#5,1123.25,0.25,81,139.29
7130,G#1,1123.25,0.25,63,139.29
7131,F5,1123.5,0.25,81,139.29
7132,C2,1123.5,0.25,63,139.29
7133,C5,1123.75,0.25,81,139.29
7134,F2,1123.75,0.25,63,139.29
7135,G#5,1124.0,0.25,93,139.29
7136,F1,1124.0,0.25,72,139.29
7137,F5,1124.25,0.25,80,139.29
7138,G#1,1124.25,0.25,63,139.29
7139,C5,1124.5,0.25,80,139.29
7140,C2,1124.5,0.25,63,139.29
7141,G#4,1124.75,0.25,80,139.29
7142,F2,1124.75,0.25,63,139.29
7143,F5,1125.0,0.25,93,139.29
7144,F1,1125.0,0.25,72,139.29
7145,C5,1125.25,0.25,82,139.29
7146,G#1,1125.25,0.25,63,139.29
7147,G#4,1125.5,0.25,81,139.29
7148,C2,1125.5,0.25,63,139.29
7149,F4,1125.75,0.25,81,139.29
7150,F2,1125.75,0.25,63,139.29
7151,C5,1126.0,0.25,93,139.29
7152,F1,1126.0,0.25,72,139.29
7153,G#4,1126.25,0.25,80,139.29
7154,G#1,1126.25,0.25,63,139.29
7155,F4,1126.5,0.25,80,139.29
7156,C2,1126.5,0.25,63,139.29
7157,C4,1126.75,0.25,80,139.29
7158,F2,1126.75,0.25,63,139.29
7159,G#4,1127.0,0.25,93,139.29
7160,F1,1127.0,0.25,72,139.29
7161,F4,1127.25,0.25,80,139.29
7162,G#1,1127.25,0.25,63,139.29
7163,C4,1127.5,0.25,81,139.29
7164,C2,1127.5,0.25,63,139.29
7165,G#3,1127.75,0.25,81,139.29
7166,F2,1127.75,0.25,63,139.29
7167,F4,1128.0,0.25,93,139.29
7168,F1,1128.0,0.25,72,139.29
7169,C4,1128.25,0.25,81,139.29
7170,G#1,1128.25,0.25,63,139.29
7171,G#3,1128.5,0.25,81,139.29
7172,C2,1128.5,0.25,63,139.29
7173,F3,1128.75,0.25,81,139.29
7174,F2,1128.75,0.25,63,139.29
7175,C4,1129.0,0.25,93,139.29
7176,F1,1129.0,0.25,72,139.29
7177,G#3,1129.25,0.25,81,139.29
7178,G#1,1129.25,0.25,63,139.29
7179,F3,1129.5,0.25,81,139.29
7180,C2,1129.5,0.25,63,139.29
7181,C3,1129.75,0.25,81,139.29
7182,F2,1129.75,0.25,63,139.29
7183,G#3,1130.0,0.25,93,139.29
7184,F1,1130.0,0.25,72,139.29
7185,F3,1130.25,0.25,81,139.29
7186,G#1,1130.25,0.25,63,139.29
7187,C3,1130.5,0.25,81,139.29
7188,C2,1130.5,0.25,63,139.29
7189,G#2,1130.75,0.25,81,139.29
7190,F2,1130.75,0.25,63,139.29
7191,F3,1131.0,0.25,93,139.29
7192,F1,1131.0,0.25,72,139.29
7193,C3,1131.25,0.25,85,139.29
7194,G#1,1131.25,0.25,63,139.29
7195,G#2,1131.5,0.25,80,139.29
7196,C2,1131.5,0.25,63,139.29
7197,C3,1131.75,0.25,80,139.29
7198,F2,1131.75,0.25,63,139.29
7199,F2,1132.0,0.5,94,139.29
7200,G#2,1132.0,0.5,94,139.29
7201,C3,1132.0,0.5,94,139.29
7202,F3,1132.0,0.5,94,139.29
7203,F1,1132.0,0.5,72,139.29
7204,G#1,1132.0,0.5,72,139.29
7205,C2,1132.0,0.5,72,139.29
7206,F2,1132.0,0.5,72,139.29
7207,F4,1134.0,0.5,98,139.29
7208,G#4,1134.0,0.5,98,139.29
7209,C5,1134.0,0.5,98,139.29
7210,F5,1134.0,0.5,98,139.29
7211,F1,1134.0,0.5,75,139.29
7212,G#1,1134.0,0.5,75,139.29
7213,C2,1134.0,0.5,75,139.29
7214,F2,1134.0,0.5,75,139.29
7215,F3,1136.0,0.5,98,139.29
7216,G#3,1136.0,0.5,98,139.29
7217,C4,1136.0,0.5,98,139.29
7218,F4,1136.0,0.5,98,139.29
7219,F1,1136.0,0.5,75,139.29
7220,G#1,1136.0,0.5,75,139.29
7221,C2,1136.0,0.5,75,139.29
7222,F2,1136.0,0.5,75,139.29
,note_name,start_time,duration,velocity,tempo
0,B-1,1.75,0.25,96,138.0
1,D4,2.0,0.75,83,138.0
2,F3,2.0,0.75,83,138.0
3,B-3,2.0,0.75,83,138.0
4,D5,2.75,0.25,92,138.0
5,F5,2.75,0.25,92,138.0
6,B-5,2.75,0.25,92,138.0
7,D6,2.75,0.25,92,138.0
8,F3,2.75,0.25,74,138.0
9,D4,2.75,0.25,74,138.0
10,B-3,2.75,0.25,74,138.0
11,F5,3.0,0.375,83,138.0
12,B-5,3.0,0.375,83,138.0
13,D5,3.0,0.375,83,138.0
14,D6,3.0,0.375,83,138.0
15,D4,3.0,0.375,83,138.0
16,B-3,3.0,0.375,83,138.0
17,F3,3.0,0.375,83,138.0
18,D5,3.5,0.094,85,138.0
19,E-6,3.5,0.094,85,138.0
20,F5,3.5,0.094,85,138.0
21,B-5,3.5,0.094,85,138.0
22,D4,3.5,0.094,79,138.0
23,B-3,3.5,0.094,79,138.0
24,F3,3.5,0.094,79,138.0
25,D6,3.75,0.094,86,138.0
26,D5,3.75,0.094,86,138.0
27,B-5,3.75,0.094,86,138.0
28,F5,3.75,0.094,86,138.0
29,B-3,3.75,0.094,83,138.0
30,D4,3.75,0.094,83,138.0
31,F3,3.75,0.094,83,138.0
32,F5,4.0,0.25,92,138.0
33,D5,4.0,0.25,92,138.0
34,B-5,4.0,0.25,92,138.0
35,D6,4.0,0.25,92,138.0
36,D4,4.0,0.25,83,138.0
37,F3,4.0,0.25,83,138.0
38,B-3,4.0,0.25,83,138.0
39,D5,4.5,0.25,84,138.0
40,B-4,4.5,0.25,84,138.0
41,F5,4.5,0.25,84,138.0
42,B-5,4.5,0.25,84,138.0
43,F3,4.5,0.25,83,138.0
44,D3,4.5,0.25,83,138.0
45,B-3,4.5,0.25,83,138.0
46,B-1,5.75,0.25,96,138.0
47,B-3,6.0,0.75,82,138.0
48,F3,6.0,0.75,82,138.0
49,D4,6.0,0.75,82,138.0
50,F4,6.0,0.75,82,138.0
51,B-5,6.75,0.25,92,138.0
52,D6,6.75,0.25,92,138.0
53,F5,6.75,0.25,92,138.0
54,F6,6.75,0.25,92,138.0
55,B-3,6.75,0.25,73,138.0
56,F3,6.75,0.25,73,138.0
57,D4,6.75,0.25,73,138.0
58,F4,6.75,0.25,73,138.0
59,F5,7.0,0.375,83,138.0
60,B-5,7.0,0.375,83,138.0
61,D6,7.0,0.375,83,138.0
62,F6,7.0,0.375,83,138.0
63,B-3,7.0,0.375,82,138.0
64,F4,7.0,0.375,82,138.0
65,D4,7.0,0.375,82,138.0
66,F3,7.0,0.375,82,138.0
67,B-5,7.5,0.094,85,138.0
68,D6,7.5,0.094,85,138.0
69,G6,7.5,0.094,85,138.0
70,F5,7.5,0.094,85,138.0
71,D4,7.5,0.094,78,138.0
72,B-3,7.5,0.094,78,138.0
73,F4,7.5,0.094,78,138.0
74,F3,7.5,0.094,78,138.0
75,F5,7.75,0.094,86,138.0
76,B-5,7.75,0.094,86,138.0
77,F6,7.75,0.094,86,138.0
78,D6,7.75,0.094,86,138.0
79,D4,7.75,0.094,82,138.0
80,B-3,7.75,0.094,82,138.0
81,F4,7.75,0.094,82,138.0
82,F3,7.75,0.094,82,138.0
83,F6,8.0,0.25,92,138.0
84,F5,8.0,0.25,92,138.0
85,B-5,8.0,0.25,92,138.0
86,D6,8.0,0.25,92,138.0
87,B-3,8.0,0.25,82,138.0
88,F4,8.0,0.25,82,138.0
89,F3,8.0,0.25,82,138.0
90,D4,8.0,0.25,82,138.0
91,D5,8.5,0.25,84,138.0
92,F5,8.5,0.25,84,138.0
93,B-5,8.5,0.25,84,138.0
94,D6,8.5,0.25,84,138.0
95,B-3,8.5,0.25,83,138.0
96,D4,8.5,0.25,83,138.0
97,F3,8.5,0.25,83,138.0
98,B-4,9.5,0.25,50,138.0
99,C5,9.75,0.25,45,138.0
100,D5,10.0,1.0,50,138.0
101,G4,10.5,0.5,39,138.0
102,E4,10.5,0.5,29,138.0
103,F4,11.0,0.5,29,138.0
104,A4,11.0,0.5,36,138.0
105,C5,11.0,0.5,36,138.0
106,G#4,11.5,0.5,42,138.0
107,C5,11.5,0.25,50,138.0
108,B3,11.5,0.5,40,138.0
109,D5,11.75,0.25,46,138.0
110,E-5,12.0,1.0,55,138.0
111,G4,12.0,0.5,46,138.0
112,C4,12.0,0.5,40,138.0
113,A4,12.5,0.5,45,138.0
114,F#3,12.5,0.5,36,138.0
115,G3,13.0,0.5,36,138.0
116,B-4,13.0,0.5,42,138.0
117,D5,13.0,0.5,42,138.0
118,G4,13.5,0.5,39,138.0
119,D5,13.5,0.25,47,138.0
120,E-3,13.5,0.5,40,138.0
121,E-5,13.75,0.25,50,138.0
122,F4,14.0,0.5,45,138.0
123,F5,14.0,0.75,54,138.0
124,D3,14.0,0.5,40,138.0
125,B-4,14.5,0.5,45,138.0
126,C#3,14.5,0.5,35,138.0
127,G5,14.75,0.25,52,138.0
128,G4,15.0,0.5,42,138.0
129,F5,15.0,0.25,50,138.0
130,C3,15.0,0.5,35,138.0
131,E-5,15.25,0.5,43,138.0
132,A4,15.5,0.5,43,138.0
133,F2,15.5,0.5,40,138.0
134,F5,15.75,0.25,45,138.0
135,E-5,16.0,0.25,49,138.0
136,B-2,16.0,0.5,38,138.0
137,B-4,16.0,0.5,35,138.0
138,F4,16.0,0.5,35,138.0
139,D5,16.25,0.25,41,138.0
140,F5,16.5,0.25,43,138.0
141,E-2,16.5,0.5,30,138.0
142,C5,16.5,0.5,30,138.0
143,G4,16.5,0.5,30,138.0
144,E-5,16.75,0.25,37,138.0
145,F2,17.0,0.5,27,138.0
146,A4,17.0,0.5,32,138.0
147,C5,17.0,0.5,32,138.0
148,B-5,17.5,0.25,50,138.0
149,C6,17.75,0.25,45,138.0
150,D6,18.0,1.0,50,138.0
151,G5,18.5,0.5,39,138.0
152,E5,18.5,0.5,29,138.0
153,F5,19.0,0.5,29,138.0
154,A5,19.0,0.5,36,138.0
155,C6,19.0,0.5,36,138.0
156,C6,19.5,0.25,50,138.0
157,G#5,19.5,0.5,42,138.0
158,B4,19.5,0.5,40,138.0
159,D6,19.75,0.25,46,138.0
160,G5,20.0,0.5,46,138.0
161,E-6,20.0,1.0,55,138.0
162,C5,20.0,0.5,40,138.0
163,A5,20.5,0.5,45,138.0
164,F#4,20.5,0.5,36,138.0
165,G4,21.0,0.5,36,138.0
166,D6,21.0,0.5,42,138.0
167,B-5,21.0,0.5,42,138.0
168,G5,21.5,0.5,39,138.0
169,D6,21.5,0.25,51,138.0
170,E-4,21.5,0.5,40,138.0
171,E-6,21.75,0.25,55,138.0
172,F6,22.0,0.75,59,138.0
173,F5,22.0,0.5,45,138.0
174,D4,22.0,0.5,40,138.0
175,B-5,22.5,0.5,45,138.0
176,C#4,22.5,0.5,35,138.0
177,G6,22.75,0.25,57,138.0
178,F6,23.0,0.25,55,138.0
179,G5,23.0,0.5,42,138.0
180,C4,23.0,0.5,35,138.0
181,E-6,23.25,0.5,47,138.0
182,A5,23.5,0.5,43,138.0
183,F3,23.5,0.5,40,138.0
184,F6,23.75,0.25,50,138.0
185,E-6,24.0,0.25,57,138.0
186,F5,24.0,0.5,44,138.0
187,B-3,24.0,0.5,36,138.0
188,D6,24.25,0.5,49,138.0
189,B-5,24.5,1.0,46,138.0
190,F#3,24.5,0.5,43,138.0
191,E-6,24.75,0.25,53,138.0
192,D6,25.0,0.25,60,138.0
193,F3,25.0,0.5,44,138.0
194,C6,25.25,0.25,49,138.0
195,D6,25.5,0.25,55,138.0
196,E-3,25.5,0.5,45,138.0
197,A5,25.5,0.5,47,138.0
198,F5,25.5,0.5,47,138.0
199,E-6,25.75,0.25,51,138.0
200,G6,26.0,0.25,67,138.0
201,D3,26.0,0.5,46,138.0
202,F5,26.0,0.5,52,138.0
203,B-5,26.0,0.5,52,138.0
204,F6,26.25,0.25,53,138.0
205,G6,26.5,0.25,58,138.0
206,B-5,26.5,0.5,41,138.0
207,C#3,26.5,0.5,47,138.0
208,F6,26.75,0.25,59,138.0
209,F6,27.0,0.25,69,138.0
210,G5,27.0,0.5,53,138.0
211,C3,27.0,0.5,48,138.0
212,E-6,27.25,0.25,55,138.0
213,A5,27.5,0.5,43,138.0
214,F6,27.5,0.25,61,138.0
215,F2,27.5,0.5,50,138.0
216,E-6,27.75,0.25,56,138.0
217,E-6,28.0,0.25,74,138.0
218,F5,28.0,0.5,57,138.0
219,B-2,28.0,0.5,50,138.0
220,D6,28.25,0.25,57,138.0
221,E-6,28.5,0.25,63,138.0
222,B-5,28.5,1.0,45,138.0
223,F#2,28.5,0.5,52,138.0
224,D6,28.75,0.244,58,138.0
225,D6,29.0,0.25,75,138.0
226,F2,29.0,0.5,53,138.0
227,C6,29.25,0.25,61,138.0
228,D6,29.5,0.25,67,138.0
229,E-2,29.5,0.5,54,138.0
230,F5,29.5,0.5,47,138.0
231,A5,29.5,0.5,47,138.0
232,E-6,29.75,0.25,70,138.0
233,G6,30.0,0.25,69,138.0
234,D2,30.0,0.5,55,138.0
235,F5,30.0,0.5,58,138.0
236,B-5,30.0,0.5,58,138.0
237,F6,30.25,0.25,70,138.0
238,C#2,30.5,0.5,56,138.0
239,B-5,30.5,0.5,68,138.0
240,E6,30.5,0.5,68,138.0
241,G6,30.75,0.5,72,138.0
242,E-6,31.0,0.5,67,138.0
243,C2,31.0,0.5,57,138.0
244,G#6,31.25,0.5,74,138.0
245,F#1,31.5,0.5,58,138.0
246,C6,31.5,0.5,70,138.0
247,E-6,31.5,0.5,70,138.0
248,A6,31.75,0.25,77,138.0
249,C7,32.0,0.25,86,138.0
250,G1,32.0,0.5,67,138.0
251,B-5,32.0,0.5,73,138.0
252,D6,32.0,0.5,73,138.0
253,B-6,32.25,0.25,72,138.0
254,A6,32.5,0.25,84,138.0
255,E-2,32.5,0.5,61,138.0
256,B-5,32.5,0.5,71,138.0
257,E-6,32.5,0.5,71,138.0
258,G6,32.75,0.25,74,138.0
259,F2,33.0,0.25,70,138.0
260,F6,33.0,0.25,77,138.0
261,D6,33.0,0.25,77,138.0
262,B-5,33.0,0.25,77,138.0
263,F6,33.5,0.25,74,138.0
264,A6,33.5,0.25,74,138.0
265,C6,33.5,0.25,74,138.0
266,A5,33.5,0.25,74,138.0
267,F1,33.5,0.25,66,138.0
268,F2,33.5,0.25,66,138.0
269,B-5,34.0,1.0,89,138.0
270,F6,34.0,1.0,89,138.0
271,D6,34.0,1.0,89,138.0
272,B-6,34.0,1.0,89,138.0
273,B-2,34.0,0.25,62,138.0
274,B-1,34.0,0.25,62,138.0
275,F3,34.25,0.25,50,138.0
276,B-3,34.25,0.25,50,138.0
277,D4,34.25,0.25,50,138.0
278,D4,34.5,0.25,50,138.0
279,B-3,34.5,0.25,50,138.0
280,F3,34.5,0.25,50,138.0
281,F3,34.75,0.25,50,138.0
282,D4,34.75,0.25,50,138.0
283,B-3,34.75,0.25,50,138.0
284,B-4,35.0,1.0,67,138.0
285,B-5,35.0,1.0,67,138.0
286,D5,35.0,1.0,67,138.0
287,D4,35.25,0.25,48,138.0
288,F3,35.25,0.25,48,138.0
289,B-3,35.25,0.25,48,138.0
290,B-3,35.5,0.25,48,138.0
291,F3,35.5,0.25,48,138.0
292,D4,35.5,0.25,48,138.0
293,B-3,35.75,0.25,48,138.0
294,F3,35.75,0.25,48,138.0
295,D4,35.75,0.25,48,138.0
296,F5,36.0,0.125,53,138.0
297,D6,36.0,0.125,53,138.0
298,D5,36.0,0.125,53,138.0
299,F3,36.25,0.125,39,138.0
300,B-3,36.25,0.125,39,138.0
301,D4,36.25,0.125,39,138.0
302,B-5,36.5,0.125,54,138.0
303,D5,36.5,0.125,54,138.0
304,B-4,36.5,0.125,54,138.0
305,B-3,36.75,0.125,40,138.0
306,D3,36.75,0.125,40,138.0
307,D5,37.0,0.125,54,138.0
308,F5,37.0,0.125,54,138.0
309,D6,37.0,0.125,54,138.0
310,F3,37.25,0.125,39,138.0
311,B-3,37.25,0.125,39,138.0
312,D4,37.25,0.125,39,138.0
313,C5,37.5,0.125,54,138.0
314,E-5,37.5,0.125,54,138.0
315,C6,37.5,0.125,54,138.0
316,C4,37.75,0.125,39,138.0
317,E-3,37.75,0.125,39,138.0
318,B-3,37.75,0.125,39,138.0
319,E-6,38.0,1.0,103,138.0
320,G5,38.0,1.0,103,138.0
321,E-5,38.0,1.0,103,138.0
322,B-2,38.0,0.25,72,138.0
323,B-1,38.0,0.25,72,138.0
324,B-3,38.25,0.25,57,138.0
325,E-4,38.25,0.25,57,138.0
326,G3,38.25,0.25,57,138.0
327,E-4,38.5,0.25,57,138.0
328,G3,38.5,0.25,57,138.0
329,B-3,38.5,0.25,57,138.0
330,E-4,38.75,0.25,57,138.0
331,B-3,38.75,0.25,57,138.0
332,G3,38.75,0.25,57,138.0
333,C6,39.0,1.0,67,138.0
334,E-5,39.0,1.0,67,138.0
335,C5,39.0,1.0,67,138.0
336,B-3,39.25,0.25,48,138.0
337,C4,39.25,0.25,48,138.0
338,E-3,39.25,0.25,48,138.0
339,B-3,39.5,0.25,48,138.0
340,C4,39.5,0.25,48,138.0
341,E-3,39.5,0.25,48,138.0
342,C4,39.75,0.25,48,138.0
343,B-3,39.75,0.25,48,138.0
344,E-3,39.75,0.25,48,138.0
345,E-6,40.0,0.125,53,138.0
346,E-5,40.0,0.125,53,138.0
347,G5,40.0,0.125,53,138.0
348,B-3,40.25,0.125,39,138.0
349,E-4,40.25,0.125,39,138.0
350,G3,40.25,0.125,39,138.0
351,C#5,40.5,0.125,54,138.0
352,E5,40.5,0.125,54,138.0
353,C#6,40.5,0.125,54,138.0
354,E3,40.75,0.125,39,138.0
355,B-3,40.75,0.125,39,138.0
356,C#4,40.75,0.125,39,138.0
357,F#5,41.0,0.125,54,138.0
358,E-6,41.0,0.125,54,138.0
359,E-5,41.0,0.125,54,138.0
360,F#3,41.25,0.125,39,138.0
361,E-4,41.25,0.125,39,138.0
362,B-3,41.25,0.125,39,138.0
363,F5,41.5,0.125,54,138.0
364,D5,41.5,0.125,54,138.0
365,D6,41.5,0.125,54,138.0
366,D4,41.75,0.125,39,138.0
367,F3,41.75,0.125,39,138.0
368,B-3,41.75,0.125,39,138.0
369,F6,42.0,1.0,99,138.0
370,G#5,42.0,1.0,99,138.0
371,F5,42.0,1.0,99,138.0
372,B-2,42.0,0.25,68,138.0
373,B-1,42.0,0.25,68,138.0
374,B-3,42.25,0.25,54,138.0
375,G#3,42.25,0.25,54,138.0
376,F4,42.25,0.25,54,138.0
377,F4,42.5,0.25,54,138.0
378,G#3,42.5,0.25,54,138.0
379,B-3,42.5,0.25,54,138.0
380,F4,42.75,0.25,54,138.0
381,G#3,42.75,0.25,54,138.0
382,B-3,42.75,0.25,54,138.0
383,D6,43.0,1.0,67,138.0
384,D5,43.0,1.0,67,138.0
385,F5,43.0,1.0,67,138.0
386,B-3,43.25,0.25,48,138.0
387,F3,43.25,0.25,48,138.0
388,D4,43.25,0.25,48,138.0
389,D4,43.5,0.25,48,138.0
390,B-3,43.5,0.25,48,138.0
391,F3,43.5,0.25,48,138.0
392,B-3,43.75,0.25,48,138.0
393,D4,43.75,0.25,48,138.0
394,F3,43.75,0.25,48,138.0
395,G#5,44.0,0.125,53,138.0
396,F5,44.0,0.125,53,138.0
397,F6,44.0,0.125,53,138.0
398,B-3,44.25,0.125,39,138.0
399,F4,44.25,0.125,39,138.0
400,G#3,44.25,0.125,39,138.0
401,D5,44.5,0.125,54,138.0
402,F#5,44.5,0.125,54,138.0
403,D6,44.5,0.125,54,138.0
404,B-3,44.75,0.125,39,138.0
405,F#3,44.75,0.125,39,138.0
406,D4,44.75,0.125,39,138.0
407,G#5,45.0,0.125,54,138.0
408,F6,45.0,0.125,54,138.0
409,F5,45.0,0.125,54,138.0
410,B-3,45.25,0.125,39,138.0
411,F4,45.25,0.125,39,138.0
412,G#3,45.25,0.125,39,138.0
413,G5,45.5,0.125,54,138.0
414,E-5,45.5,0.125,54,138.0
415,E-6,45.5,0.125,54,138.0
416,B-3,45.75,0.125,39,138.0
417,E-4,45.75,0.125,39,138.0
418,G3,45.75,0.125,39,138.0
419,G6,46.0,1.0,99,138.0
420,G5,46.0,1.0,99,138.0
421,B-5,46.0,1.0,99,138.0
422,B-2,46.0,0.25,68,138.0
423,B-1,46.0,0.25,68,138.0
424,E-4,46.25,0.25,54,138.0
425,G4,46.25,0.25,54,138.0
426,B-3,46.25,0.25,54,138.0
427,G4,46.5,0.25,54,138.0
428,B-3,46.5,0.25,54,138.0
429,E-4,46.5,0.25,54,138.0
430,G4,46.75,0.25,54,138.0
431,B-3,46.75,0.25,54,138.0
432,E-4,46.75,0.25,54,138.0
433,E-6,47.0,1.0,66,138.0
434,G5,47.0,1.0,66,138.0
435,E-5,47.0,1.0,66,138.0
436,B-5,47.0,1.0,66,138.0
437,B-3,47.25,0.25,48,138.0
438,E-4,47.25,0.25,48,138.0
439,G3,47.25,0.25,48,138.0
440,E-4,47.5,0.25,48,138.0
441,B-3,47.5,0.25,48,138.0
442,G3,47.5,0.25,48,138.0
443,B-3,47.75,0.25,48,138.0
444,E-4,47.75,0.25,48,138.0
445,G3,47.75,0.25,48,138.0
446,G5,48.0,0.125,53,138.0
447,G6,48.0,0.125,53,138.0
448,B-5,48.0,0.125,53,138.0
449,B-3,48.25,0.125,35,138.0
450,G4,48.25,0.125,35,138.0
451,E-4,48.25,0.125,35,138.0
452,E5,48.5,0.125,54,138.0
453,B-5,48.5,0.125,54,138.0
454,E6,48.5,0.125,54,138.0
455,E4,48.75,0.125,35,138.0
456,B-3,48.75,0.125,35,138.0
457,C#4,48.75,0.125,35,138.0
458,B-5,49.0,0.125,60,138.0
459,F#5,49.0,0.125,60,138.0
460,F#6,49.0,0.125,60,138.0
461,E-4,49.25,0.125,39,138.0
462,B-3,49.25,0.125,39,138.0
463,F#4,49.25,0.125,39,138.0
464,F6,49.5,0.125,62,138.0
465,B-5,49.5,0.125,62,138.0
466,F5,49.5,0.125,62,138.0
467,D4,49.75,0.125,40,138.0
468,B-3,49.75,0.125,40,138.0
469,F4,49.75,0.125,40,138.0
470,G#6,50.0,0.125,62,138.0
471,B-5,50.0,0.125,62,138.0
472,G#5,50.0,0.125,62,138.0
473,B-3,50.25,0.125,41,138.0
474,F4,50.25,0.125,41,138.0
475,G#4,50.25,0.125,41,138.0
476,F#5,50.5,0.125,66,138.0
477,F#6,50.5,0.125,66,138.0
478,B-5,50.5,0.125,66,138.0
479,B-3,50.75,0.125,43,138.0
480,F#4,50.75,0.125,43,138.0
481,D4,50.75,0.125,43,138.0
482,G#6,51.0,0.125,68,138.0
483,B-5,51.0,0.125,68,138.0
484,G#5,51.0,0.125,68,138.0
485,G#4,51.25,0.125,45,138.0
486,F4,51.25,0.125,45,138.0
487,B-3,51.25,0.125,45,138.0
488,B-5,51.5,0.125,70,138.0
489,G6,51.5,0.125,70,138.0
490,G5,51.5,0.125,70,138.0
491,B-3,51.75,0.125,46,138.0
492,G4,51.75,0.125,46,138.0
493,E-4,51.75,0.125,46,138.0
494,B-5,52.0,0.125,70,138.0
495,E-6,52.0,0.125,70,138.0
496,B-6,52.0,0.125,70,138.0
497,G6,52.0,0.125,70,138.0
498,C4,52.25,0.125,47,138.0
499,G4,52.25,0.125,47,138.0
500,E-4,52.25,0.125,47,138.0
501,B-3,52.25,0.125,47,138.0
502,G#5,52.5,0.125,77,138.0
503,G#6,52.5,0.125,77,138.0
504,G#4,52.75,0.125,47,138.0
505,B-3,52.75,0.125,47,138.0
506,E-4,52.75,0.125,47,138.0
507,C4,52.75,0.125,47,138.0
508,B-5,53.0,0.125,79,138.0
509,B-6,53.0,0.125,79,138.0
510,B-4,53.25,0.125,49,138.0
511,B-3,53.25,0.125,49,138.0
512,C4,53.25,0.125,49,138.0
513,E-4,53.25,0.125,49,138.0
514,A6,53.5,0.125,82,138.0
515,A5,53.5,0.125,82,138.0
516,C4,53.75,0.125,50,138.0
517,E-4,53.75,0.125,50,138.0
518,B-3,53.75,0.125,50,138.0
519,A4,53.75,0.125,50,138.0
520,C6,54.0,0.25,92,138.0
521,C7,54.0,0.25,92,138.0
522,C5,54.25,0.125,61,138.0
523,C4,54.25,0.125,61,138.0
524,B-5,54.5,0.25,81,138.0
525,B-6,54.5,0.25,81,138.0
526,B-4,54.75,0.125,61,138.0
527,B-3,54.75,0.125,61,138.0
528,G5,55.0,0.25,90,138.0
529,G6,55.0,0.25,90,138.0
530,G3,55.25,0.125,61,138.0
531,G4,55.25,0.125,61,138.0
532,F6,55.5,0.25,83,138.0
533,F5,55.5,0.25,83,138.0
534,F4,55.75,0.125,61,138.0
535,F3,55.75,0.125,61,138.0
536,E-6,56.0,0.25,91,138.0
537,E-5,56.0,0.25,91,138.0
538,E-3,56.25,0.125,54,138.0
539,E-4,56.25,0.125,54,138.0
540,D6,56.5,0.25,76,138.0
541,D5,56.5,0.25,76,138.0
542,D4,56.75,0.125,54,138.0
543,D3,56.75,0.125,54,138.0
544,C6,57.0,0.25,80,138.0
545,C5,57.0,0.25,80,138.0
546,C3,57.25,0.125,54,138.0
547,C4,57.25,0.125,54,138.0
548,B-4,57.5,0.25,74,138.0
549,B-5,57.5,0.25,74,138.0
550,B-3,57.75,0.125,54,138.0
551,B-2,57.75,0.125,54,138.0
552,G4,58.0,0.25,82,138.0
553,G5,58.0,0.25,82,138.0
554,G3,58.25,0.125,54,138.0
555,G2,58.25,0.125,54,138.0
556,F4,58.5,0.25,72,138.0
557,F5,58.5,0.25,72,138.0
558,F2,58.75,0.125,54,138.0
559,F3,58.75,0.125,54,138.0
560,E-5,59.0,0.25,76,138.0
561,E-4,59.0,0.25,76,138.0
562,E-2,59.25,0.125,52,138.0
563,E-3,59.25,0.125,52,138.0
564,D4,59.5,0.25,70,138.0
565,D5,59.5,0.25,70,138.0
566,D3,59.75,0.125,52,138.0
567,D2,59.75,0.125,52,138.0
568,C5,60.0,0.25,74,138.0
569,C4,60.0,0.25,74,138.0
570,C3,60.25,0.125,49,138.0
571,C2,60.25,0.125,49,138.0
572,B-4,60.5,0.25,65,138.0
573,B-3,60.5,0.25,65,138.0
574,B-1,60.75,0.125,49,138.0
575,B-2,60.75,0.125,49,138.0
576,G4,61.0,0.25,72,138.0
577,G3,61.0,0.25,72,138.0
578,G1,61.25,0.125,49,138.0
579,G2,61.25,0.125,49,138.0
580,F4,61.5,0.25,66,138.0
581,F3,61.5,0.25,66,138.0
582,F1,61.75,0.125,49,138.0
583,F2,61.75,0.125,49,138.0
584,A4,62.0,0.5,77,138.0
585,A1,62.25,0.25,42,138.0
586,F4,62.5,0.5,67,138.0
587,F1,62.75,0.25,28,138.0
588,C5,63.0,0.5,73,138.0
589,C2,63.25,0.25,39,138.0
590,F4,63.5,0.5,67,138.0
591,F1,63.75,0.25,27,138.0
592,F5,64.0,0.5,71,138.0
593,F2,64.25,0.25,37,138.0
594,F4,64.5,0.5,59,138.0
595,F1,64.75,0.25,26,138.0
596,A5,65.0,0.5,68,138.0
597,A2,65.25,0.25,34,138.0
598,F4,65.5,0.5,56,138.0
599,F1,65.75,0.25,24,138.0
600,C6,66.0,0.5,62,138.0
601,C3,66.25,0.25,32,138.0
602,F4,66.5,0.5,49,138.0
603,F1,66.75,0.25,23,138.0
604,F6,67.0,0.5,54,138.0
605,F3,67.25,0.25,29,138.0
606,F4,67.5,0.5,45,138.0
607,F1,67.75,0.25,24,138.0
608,F6,68.0,0.5,52,138.0
609,F3,68.25,0.25,28,138.0
610,F4,68.5,0.5,41,138.0
611,F1,68.75,0.25,21,138.0
612,F6,69.0,0.5,48,138.0
613,F3,69.25,0.25,21,138.0
614,B-1,69.75,0.25,77,138.0
615,D4,70.0,0.75,72,138.0
616,F3,70.0,0.75,72,138.0
617,B-3,70.0,0.75,72,138.0
618,B-5,70.75,0.25,81,138.0
619,D6,70.75,0.25,81,138.0
620,D5,70.75,0.25,81,138.0
621,F5,70.75,0.25,81,138.0
622,D4,70.75,0.25,65,138.0
623,B-3,70.75,0.25,65,138.0
624,F3,70.75,0.25,65,138.0
625,D5,71.0,0.5,72,138.0
626,F5,71.0,0.5,72,138.0
627,D6,71.0,0.5,72,138.0
628,B-5,71.0,0.5,72,138.0
629,F3,71.0,0.5,72,138.0
630,B-3,71.0,0.5,72,138.0
631,D4,71.0,0.5,72,138.0
632,D5,71.5,0.094,75,138.0
633,B-5,71.5,0.094,75,138.0
634,F5,71.5,0.094,75,138.0
635,E-6,71.5,0.094,75,138.0
636,F3,71.5,0.094,70,138.0
637,D4,71.5,0.094,70,138.0
638,B-3,71.5,0.094,70,138.0
639,F5,71.75,0.094,75,138.0
640,D5,71.75,0.094,75,138.0
641,D6,71.75,0.094,75,138.0
642,B-5,71.75,0.094,75,138.0
643,F3,71.75,0.094,72,138.0
644,D4,71.75,0.094,72,138.0
645,B-3,71.75,0.094,72,138.0
646,D6,72.0,0.25,81,138.0
647,B-5,72.0,0.25,81,138.0
648,F5,72.0,0.25,81,138.0
649,D5,72.0,0.25,81,138.0
650,F3,72.0,0.25,72,138.0
651,D4,72.0,0.25,72,138.0
652,B-3,72.0,0.25,72,138.0
653,B-4,72.5,0.25,74,138.0
654,B-5,72.5,0.25,74,138.0
655,F5,72.5,0.25,74,138.0
656,D5,72.5,0.25,74,138.0
657,D3,72.5,0.25,72,138.0
658,B-3,72.5,0.25,72,138.0
659,F3,72.5,0.25,72,138.0
660,B-1,73.75,0.25,84,138.0
661,D4,74.0,0.75,71,138.0
662,D3,74.0,0.75,71,138.0
663,B-3,74.0,0.75,71,138.0
664,F3,74.0,0.75,71,138.0
665,B-5,74.75,0.235,81,138.0
666,F5,74.75,0.235,81,138.0
667,D6,74.75,0.235,81,138.0
668,D5,74.75,0.235,81,138.0
669,B-3,74.75,0.25,64,138.0
670,D3,74.75,0.25,64,138.0
671,F3,74.75,0.25,64,138.0
672,D4,74.75,0.25,64,138.0
673,D6,75.0,0.5,99,138.0
674,D4,75.0,0.5,89,138.0
675,D3,75.0,0.5,89,138.0
676,F#5,75.5,0.094,74,138.0
677,D5,75.5,0.094,74,138.0
678,A5,75.5,0.094,74,138.0
679,D6,75.5,0.094,74,138.0
680,A3,75.5,0.094,69,138.0
681,D4,75.5,0.094,69,138.0
682,D3,75.5,0.094,69,138.0
683,F#3,75.5,0.094,69,138.0
684,D6,75.75,0.094,75,138.0
685,F#5,75.75,0.094,75,138.0
686,D5,75.75,0.094,75,138.0
687,A5,75.75,0.094,75,138.0
688,D4,75.75,0.094,71,138.0
689,F#3,75.75,0.094,71,138.0
690,A3,75.75,0.094,71,138.0
691,D3,75.75,0.094,71,138.0
692,A5,76.0,0.25,81,138.0
693,D5,76.0,0.25,81,138.0
694,D6,76.0,0.25,81,138.0
695,F#5,76.0,0.25,81,138.0
696,A3,76.0,0.25,71,138.0
697,F#3,76.0,0.25,71,138.0
698,D4,76.0,0.25,71,138.0
699,D3,76.0,0.25,71,138.0
700,A5,76.5,0.25,74,138.0
701,F#5,76.5,0.25,74,138.0
702,D5,76.5,0.25,74,138.0
703,D6,76.5,0.25,74,138.0
704,A3,76.5,0.25,71,138.0
705,D3,76.5,0.25,71,138.0
706,F#3,76.5,0.25,71,138.0
707,D4,76.5,0.25,71,138.0
708,D3,77.75,0.25,39,138.0
709,D4,78.0,0.75,45,138.0
710,F#4,78.5,0.25,35,138.0
711,D5,78.5,0.25,35,138.0
712,A4,78.5,0.25,35,138.0
713,D3,78.75,0.25,40,138.0
714,D4,79.0,0.75,47,138.0
715,D5,79.5,0.25,37,138.0
716,A4,79.5,0.25,37,138.0
717,F#4,79.5,0.25,37,138.0
718,D3,79.75,0.25,42,138.0
719,D4,80.0,0.75,49,138.0
720,A4,80.5,0.25,39,138.0
721,D5,80.5,0.25,39,138.0
722,F#4,80.5,0.25,39,138.0
723,D3,80.75,0.25,41,138.0
724,D4,81.0,0.75,52,138.0
725,F#4,81.5,0.25,41,138.0
726,A4,81.5,0.25,41,138.0
727,D5,81.5,0.25,41,138.0
728,D3,81.75,0.25,44,138.0
729,A3,82.0,0.75,55,138.0
730,C4,82.0,0.75,55,138.0
731,D5,82.5,0.25,43,138.0
732,C5,82.5,0.25,43,138.0
733,F#5,82.5,0.25,43,138.0
734,A4,82.5,0.25,43,138.0
735,D3,82.75,0.25,46,138.0
736,C4,83.0,0.75,58,138.0
737,A3,83.0,0.75,58,138.0
738,A4,83.5,0.25,45,138.0
739,D5,83.5,0.25,45,138.0
740,F#5,83.5,0.25,45,138.0
741,C5,83.5,0.25,45,138.0
742,D3,83.75,0.25,50,138.0
743,A3,84.0,0.75,60,138.0
744,F#3,84.0,0.75,60,138.0
745,A5,84.5,0.25,52,138.0
746,F#5,84.5,0.25,52,138.0
747,C5,84.5,0.25,52,138.0
748,A4,84.5,0.25,52,138.0
749,D3,84.75,0.25,52,138.0
750,A2,85.0,0.75,63,138.0
751,C6,85.5,0.25,60,138.0
752,F#5,85.5,0.25,60,138.0
753,C5,85.5,0.25,60,138.0
754,A5,85.5,0.25,60,138.0
755,D3,85.75,0.25,52,138.0
756,A2,86.0,0.75,65,138.0
757,F#5,86.5,0.25,67,138.0
758,C6,86.5,0.25,67,138.0
759,F#6,86.5,0.25,67,138.0
760,A5,86.5,0.25,67,138.0
761,D3,86.75,0.25,57,138.0
762,G2,87.0,0.75,68,138.0
763,A6,87.5,0.25,70,138.0
764,C6,87.5,0.25,70,138.0
765,A5,87.5,0.25,70,138.0
766,D3,87.75,0.25,57,138.0
767,F#2,88.0,0.75,71,138.0
768,C6,88.5,0.25,73,138.0
769,A6,88.5,0.25,73,138.0
770,C7,88.5,0.25,73,138.0
771,D3,88.75,0.25,59,138.0
772,E-2,89.0,0.75,73,138.0
773,C7,89.5,0.25,74,138.0
774,F#6,89.5,0.25,74,138.0
775,C6,89.5,0.25,74,138.0
776,A6,89.5,0.25,74,138.0
777,D3,89.75,0.25,67,138.0
778,A6,90.0,0.25,74,138.0
779,C7,90.0,0.25,74,138.0
780,C6,90.0,0.25,74,138.0
781,F#6,90.0,0.25,74,138.0
782,D2,90.0,0.5,70,138.0
783,D3,90.0,0.5,70,138.0
784,E-5,90.5,0.25,48,138.0
785,C6,90.5,0.25,57,138.0
786,A5,90.5,0.25,57,138.0
787,D5,90.75,0.25,48,138.0
788,B5,90.75,0.25,57,138.0
789,G#5,90.75,0.25,57,138.0
790,E-5,91.0,0.5,54,138.0
791,C6,91.0,0.5,63,138.0
792,A5,91.0,0.5,63,138.0
793,D5,91.5,0.25,44,138.0
794,F#4,91.5,0.25,52,138.0
795,A4,91.5,0.25,52,138.0
796,C#5,91.75,0.25,44,138.0
797,B-4,91.75,0.25,52,138.0
798,G4,91.75,0.25,52,138.0
799,D5,92.0,0.5,44,138.0
800,A4,92.0,0.5,58,138.0
801,F#4,92.0,0.5,58,138.0
802,E-4,92.5,0.25,43,138.0
803,A5,92.5,0.25,47,138.0
804,C6,92.5,0.25,47,138.0
805,D4,92.75,0.25,43,138.0
806,B5,92.75,0.25,47,138.0
807,G#5,92.75,0.25,47,138.0
808,E-4,93.0,0.5,51,138.0
809,C6,93.0,0.5,56,138.0
810,A5,93.0,0.5,56,138.0
811,F#6,93.5,0.25,47,138.0
812,D4,93.5,0.25,43,138.0
813,A6,93.75,0.25,47,138.0
814,C#4,93.75,0.25,43,138.0
815,C7,94.0,0.25,57,138.0
816,D4,94.0,0.5,51,138.0
817,D7,94.25,0.25,48,138.0
818,C7,94.5,0.25,49,138.0
819,B6,94.75,0.25,50,138.0
820,D3,94.75,0.25,42,138.0
821,C7,95.0,0.25,65,138.0
822,F#3,95.0,0.5,51,138.0
823,D7,95.25,0.25,57,138.0
824,E7,95.5,0.25,66,138.0
825,C7,95.75,0.25,58,138.0
826,A3,95.75,0.25,40,138.0
827,A6,96.0,0.25,69,138.0
828,C4,96.0,0.5,51,138.0
829,B6,96.25,0.25,56,138.0
830,C7,96.5,0.25,66,138.0
831,A6,96.75,0.25,54,138.0
832,F#4,96.75,0.25,43,138.0
833,F#6,97.0,0.25,66,138.0
834,A4,97.0,0.5,51,138.0
835,G6,97.25,0.25,53,138.0
836,A6,97.5,0.25,61,138.0
837,C5,97.5,0.25,45,138.0
838,F#6,97.75,0.25,53,138.0
839,A4,97.75,0.25,45,138.0
840,C6,98.0,0.25,47,138.0
841,A5,98.0,0.25,40,138.0
842,D6,98.25,0.25,47,138.0
843,B5,98.25,0.25,40,138.0
844,E6,98.5,0.25,58,138.0
845,C6,98.5,0.25,44,138.0
846,C6,98.75,0.25,47,138.0
847,A5,98.75,0.25,40,138.0
848,A5,99.0,0.25,47,138.0
849,C5,99.0,0.25,40,138.0
850,B5,99.25,0.25,47,138.0
851,D5,99.25,0.25,40,138.0
852,C6,99.5,0.25,53,138.0
853,E5,99.5,0.25,45,138.0
854,A5,99.75,0.25,47,138.0
855,C5,99.75,0.25,40,138.0
856,F#5,100.0,0.25,47,138.0
857,A4,100.0,0.25,40,138.0
858,G5,100.25,0.25,47,138.0
859,B4,100.25,0.25,40,138.0
860,A5,100.5,0.25,52,138.0
861,C5,100.5,0.25,45,138.0
862,F#5,100.75,0.25,47,138.0
863,A4,100.75,0.246,40,138.0
864,F#4,101.0,0.25,40,138.0
865,D5,101.0,0.5,47,138.0
866,C5,101.0,0.5,47,138.0
867,A4,101.0,0.5,47,138.0
868,G4,101.25,0.25,40,138.0
869,A4,101.5,0.25,45,138.0
870,F#4,101.75,0.25,40,138.0
871,B6,102.0,0.25,57,138.0
872,B4,102.0,0.5,49,138.0
873,D4,102.0,0.5,49,138.0
874,G4,102.0,0.5,49,138.0
875,C7,102.25,0.25,48,138.0
876,B6,102.5,0.25,49,138.0
877,A6,102.75,0.25,50,138.0
878,D3,102.75,0.25,42,138.0
879,B6,103.0,0.25,65,138.0
880,G3,103.0,0.5,51,138.0
881,C7,103.25,0.25,57,138.0
882,D7,103.5,0.25,66,138.0
883,B6,103.75,0.25,58,138.0
884,B3,103.75,0.25,40,138.0
885,G6,104.0,0.25,69,138.0
886,D4,104.0,0.5,51,138.0
887,A6,104.25,0.25,56,138.0
888,B6,104.5,0.25,66,138.0
889,G6,104.75,0.25,54,138.0
890,G4,104.75,0.25,43,138.0
891,D6,105.0,0.25,66,138.0
892,B4,105.0,0.5,51,138.0
893,F#6,105.25,0.25,53,138.0
894,G6,105.5,0.25,61,138.0
895,D6,105.75,0.25,53,138.0
896,D5,105.75,0.25,45,138.0
897,B5,106.0,0.25,47,138.0
898,G5,106.0,0.25,40,138.0
899,C6,106.25,0.25,47,138.0
900,A5,106.25,0.25,40,138.0
901,D6,106.5,0.25,58,138.0
902,B5,106.5,0.25,44,138.0
903,B5,106.75,0.25,47,138.0
904,G5,106.75,0.246,40,138.0
905,G5,107.0,0.25,47,138.0
906,B4,107.0,0.25,40,138.0
907,A5,107.25,0.25,47,138.0
908,C5,107.25,0.25,40,138.0
909,B5,107.5,0.25,53,138.0
910,D5,107.5,0.25,45,138.0
911,G5,107.75,0.25,47,138.0
912,B4,107.75,0.25,40,138.0
913,D5,108.0,0.25,47,138.0
914,G4,108.0,0.25,40,138.0
915,F#5,108.25,0.25,47,138.0
916,A4,108.25,0.25,40,138.0
917,G5,108.5,0.25,52,138.0
918,B4,108.5,0.246,45,138.0
919,B4,108.75,0.246,47,138.0
920,G4,108.75,0.246,40,138.0
921,G4,109.0,0.25,40,138.0
922,B4,109.0,0.25,40,138.0
923,A4,109.25,0.25,40,138.0
924,C5,109.25,0.25,40,138.0
925,B4,109.5,0.246,45,138.0
926,D5,109.5,0.25,45,138.0
927,G4,109.75,0.25,40,138.0
928,B4,109.75,0.25,40,138.0
929,C5,110.0,0.25,40,138.0
930,D4,110.0,0.5,42,138.0
931,A4,110.0,0.5,42,138.0
932,F#4,110.0,0.5,42,138.0
933,D5,110.25,0.25,40,138.0
934,E6,110.5,0.25,52,138.0
935,C5,110.5,0.25,45,138.0
936,D6,110.75,0.25,47,138.0
937,B4,110.75,0.25,40,138.0
938,E6,111.0,0.25,40,138.0
939,C5,111.0,0.25,40,138.0
940,D6,111.25,0.25,40,138.0
941,D5,111.25,0.25,40,138.0
942,C6,111.5,0.25,45,138.0
943,E5,111.5,0.25,45,138.0
944,E6,111.75,0.25,40,138.0
945,C5,111.75,0.25,40,138.0
946,C6,112.0,0.25,52,138.0
947,A4,112.0,0.25,46,138.0
948,B5,112.25,0.25,42,138.0
949,B4,112.25,0.25,38,138.0
950,A5,112.5,0.25,49,138.0
951,C5,112.5,0.25,45,138.0
952,C6,112.75,0.25,43,138.0
953,A4,112.75,0.25,40,138.0
954,A5,113.0,0.25,48,138.0
955,F#4,113.0,0.25,45,138.0
956,G5,113.25,0.25,40,138.0
957,G4,113.25,0.25,36,138.0
958,F#5,113.5,0.25,45,138.0
959,A4,113.5,0.25,41,138.0
960,A5,113.75,0.25,40,138.0
961,F#4,113.75,0.25,36,138.0
962,E5,114.0,0.25,52,138.0
963,C4,114.0,0.25,46,138.0
964,D5,114.25,0.25,42,138.0
965,D4,114.25,0.25,38,138.0
966,C5,114.5,0.25,49,138.0
967,E4,114.5,0.25,45,138.0
968,E5,114.75,0.25,43,138.0
969,C4,114.75,0.25,40,138.0
970,C5,115.0,0.25,48,138.0
971,A3,115.0,0.25,45,138.0
972,B4,115.25,0.25,40,138.0
973,B3,115.25,0.25,36,138.0
974,A4,115.5,0.25,45,138.0
975,C4,115.5,0.25,41,138.0
976,C5,115.75,0.25,40,138.0
977,A3,115.75,0.25,36,138.0
978,A4,116.0,0.25,52,138.0
979,F#3,116.0,0.25,46,138.0
980,G4,116.25,0.25,42,138.0
981,G3,116.25,0.25,38,138.0
982,F#4,116.5,0.25,49,138.0
983,A3,116.5,0.25,45,138.0
984,A4,116.75,0.25,43,138.0
985,F#3,116.75,0.25,40,138.0
986,C5,117.0,0.25,48,138.0
987,A4,117.0,0.25,45,138.0
988,B4,117.25,0.25,40,138.0
989,G4,117.25,0.25,36,138.0
990,A4,117.5,0.25,45,138.0
991,F#4,117.5,0.25,41,138.0
992,C5,117.75,0.25,40,138.0
993,A4,117.75,0.25,36,138.0
994,B4,118.0,0.25,40,138.0
995,D4,118.0,0.5,43,138.0
996,G4,118.0,0.5,43,138.0
997,C5,118.25,0.25,40,138.0
998,D7,118.5,0.25,52,138.0
999,B4,118.5,0.25,45,138.0
1000,C7,118.75,0.25,47,138.0
1001,A4,118.75,0.25,40,138.0
1002,D7,119.0,0.25,40,138.0
1003,B4,119.0,0.25,40,138.0
1004,C7,119.25,0.25,40,138.0
1005,C5,119.25,0.25,40,138.0
1006,B6,119.5,0.25,45,138.0
1007,D5,119.5,0.25,45,138.0
1008,D7,119.75,0.25,40,138.0
1009,B4,119.75,0.25,40,138.0
1010,B6,120.0,0.25,52,138.0
1011,G4,120.0,0.25,46,138.0
1012,A6,120.25,0.25,42,138.0
1013,A4,120.25,0.25,38,138.0
1014,G6,120.5,0.25,49,138.0
1015,B4,120.5,0.25,45,138.0
1016,B6,120.75,0.25,43,138.0
1017,G4,120.75,0.25,40,138.0
1018,B5,121.0,0.25,48,138.0
1019,D4,121.0,0.25,45,138.0
1020,A5,121.25,0.25,40,138.0
1021,F#4,121.25,0.25,36,138.0
1022,G5,121.5,0.25,45,138.0
1023,G4,121.5,0.25,41,138.0
1024,B5,121.75,0.25,40,138.0
1025,D4,121.75,0.25,36,138.0
1026,D5,122.0,0.25,52,138.0
1027,B3,122.0,0.25,46,138.0
1028,C5,122.25,0.25,42,138.0
1029,C4,122.25,0.25,38,138.0
1030,B4,122.5,0.25,49,138.0
1031,D4,122.5,0.25,45,138.0
1032,D5,122.75,0.25,43,138.0
1033,B3,122.75,0.25,40,138.0
1034,B5,123.0,0.25,48,138.0
1035,G3,123.0,0.25,45,138.0
1036,A5,123.25,0.25,40,138.0
1037,A3,123.25,0.25,36,138.0
1038,G5,123.5,0.25,45,138.0
1039,B3,123.5,0.25,41,138.0
1040,B5,123.75,0.25,40,138.0
1041,G3,123.75,0.25,36,138.0
1042,D6,124.0,0.25,62,138.0
1043,D3,124.0,0.25,46,138.0
1044,C6,124.25,0.25,51,138.0
1045,F#3,124.25,0.25,38,138.0
1046,B5,124.5,0.25,61,138.0
1047,G3,124.5,0.25,45,138.0
1048,C6,124.75,0.25,52,138.0
1049,D3,124.75,0.25,40,138.0
1050,E6,125.0,0.5,62,138.0
1051,C3,125.0,0.25,45,138.0
1052,G3,125.25,0.25,36,138.0
1053,D3,125.5,0.25,41,138.0
1054,F#6,125.5,0.5,51,138.0
1055,A5,125.5,0.5,51,138.0
1056,D6,125.5,0.5,51,138.0
1057,C3,125.75,0.25,36,138.0
1058,B2,126.0,0.5,36,138.0
1059,G6,126.0,0.5,51,138.0
1060,G5,126.0,0.5,51,138.0
1061,D6,126.0,0.5,51,138.0
1062,G2,126.5,0.5,37,138.0
1063,G3,126.5,0.5,37,138.0
1064,E3,127.0,0.25,33,138.0
1065,C3,127.0,0.25,33,138.0
1066,C4,127.5,0.25,40,138.0
1067,A3,127.75,0.25,36,138.0
1068,F#3,128.0,0.5,36,138.0
1069,A4,128.5,0.5,37,138.0
1070,F#4,128.5,0.5,37,138.0
1071,D3,128.5,0.5,34,138.0
1072,D4,128.5,0.5,34,138.0
1073,G4,129.0,0.25,35,138.0
1074,B4,129.0,0.25,35,138.0
1075,B3,129.0,0.25,33,138.0
1076,G3,129.0,0.25,33,138.0
1077,G6,129.5,0.25,43,138.0
1078,B5,129.5,0.25,43,138.0
1079,E4,129.5,1.0,33,138.0
1080,G3,129.5,1.0,33,138.0
1081,F#6,129.75,0.25,40,138.0
1082,A5,129.75,0.25,40,138.0
1083,G6,130.0,0.5,43,138.0
1084,B5,130.0,0.5,43,138.0
1085,B5,130.5,0.5,35,138.0
1086,G5,130.5,0.5,35,138.0
1087,E6,130.5,0.5,35,138.0
1088,G3,130.5,0.5,33,138.0
1089,E4,130.5,0.5,33,138.0
1090,D6,131.0,0.5,37,138.0
1091,A5,131.0,0.5,37,138.0
1092,F#5,131.0,0.5,37,138.0
1093,F#4,131.0,0.5,37,138.0
1094,A3,131.0,0.5,37,138.0
1095,A3,131.5,0.5,25,138.0
1096,G4,131.5,0.25,30,138.0
1097,C#6,131.5,0.5,33,138.0
1098,G5,131.5,0.5,33,138.0
1099,E5,131.5,0.5,33,138.0
1100,A4,131.75,0.25,36,138.0
1101,A4,132.0,0.5,36,138.0
1102,D4,132.0,1.5,30,138.0
1103,G5,132.0,0.5,42,138.0
1104,E6,132.0,0.5,42,138.0
1105,B4,132.5,0.375,36,138.0
1106,F#5,132.5,0.496,33,138.0
1107,D6,132.5,0.496,33,138.0
1108,C#5,132.875,0.125,31,138.0
1109,D5,133.0,0.5,36,138.0
1110,D6,133.0,0.5,33,138.0
1111,F#5,133.0,0.5,33,138.0
1112,E5,133.5,0.25,37,138.0
1113,G5,133.5,0.25,42,138.0
1114,D6,133.5,0.25,42,138.0
1115,F#5,133.75,0.25,36,138.0
1116,C6,133.75,0.25,37,138.0
1117,A5,133.75,0.25,37,138.0
1118,B5,134.0,0.5,46,138.0
1119,G5,134.0,0.5,36,138.0
1120,G5,134.5,0.75,43,138.0
1121,G6,134.5,0.25,51,138.0
1122,D5,134.5,0.5,33,138.0
1123,B4,134.5,0.5,33,138.0
1124,E6,135.0,0.25,46,138.0
1125,C5,135.0,0.25,33,138.0
1126,E5,135.0,0.25,33,138.0
1127,A4,135.5,0.25,36,138.0
1128,C7,135.5,0.25,47,138.0
1129,C6,135.5,0.25,47,138.0
1130,C5,135.75,0.25,32,138.0
1131,A6,135.75,0.25,40,138.0
1132,E6,135.75,0.25,40,138.0
1133,F#6,136.0,0.5,51,138.0
1134,D5,136.0,0.5,36,138.0
1135,D6,136.5,0.75,47,138.0
1136,D7,136.5,0.5,56,138.0
1137,F#4,136.5,0.5,33,138.0
1138,A4,136.5,0.5,33,138.0
1139,B6,137.0,0.25,53,138.0
1140,G4,137.0,0.25,34,138.0
1141,B4,137.0,0.25,34,138.0
1142,G6,137.5,0.25,52,138.0
1143,F#6,137.75,0.25,45,138.0
1144,G6,138.0,0.5,52,138.0
1145,G4,138.0,0.5,32,138.0
1146,E4,138.0,0.5,32,138.0
1147,B4,138.0,0.5,32,138.0
1148,E6,138.5,0.5,47,138.0
1149,C5,138.5,0.5,32,138.0
1150,G4,138.5,0.5,32,138.0
1151,E4,138.5,0.5,32,138.0
1152,C6,139.0,0.5,51,138.0
1153,G4,139.0,0.25,36,138.0
1154,E4,139.0,0.5,33,138.0
1155,C5,139.0,0.5,33,138.0
1156,A4,139.25,0.25,30,138.0
1157,F#5,139.5,0.5,40,138.0
1158,B5,139.5,0.5,40,138.0
1159,F#4,139.5,0.5,32,138.0
1160,E-4,139.5,0.5,32,138.0
1161,B4,139.5,0.5,32,138.0
1162,B5,140.0,1.5,44,138.0
1163,F#5,140.0,0.5,44,138.0
1164,B4,140.0,0.5,32,138.0
1165,F#4,140.0,0.5,32,138.0
1166,E-4,140.0,0.5,32,138.0
1167,A5,140.5,0.25,50,138.0
1168,E-4,140.5,0.5,28,138.0
1169,B3,140.5,0.5,28,138.0
1170,G5,140.75,0.246,44,138.0
1171,G5,141.0,0.5,49,138.0
1172,E4,141.0,0.5,33,138.0
1173,G4,141.0,0.5,33,138.0
1174,G5,141.5,1.0,46,138.0
1175,E6,141.5,0.5,50,138.0
1176,B-5,141.5,0.5,50,138.0
1177,D4,141.5,0.25,37,138.0
1178,F4,141.5,0.25,37,138.0
1179,E4,141.75,0.25,33,138.0
1180,C#4,141.75,0.25,33,138.0
1181,A5,142.0,1.5,44,138.0
1182,C#4,142.0,0.5,33,138.0
1183,E4,142.0,0.5,33,138.0
1184,G5,142.5,0.25,50,138.0
1185,A3,142.5,0.5,28,138.0
1186,C#4,142.5,0.5,28,138.0
1187,F5,142.75,0.25,44,138.0
1188,F5,143.0,0.5,49,138.0
1189,D4,143.0,0.5,33,138.0
1190,F4,143.0,0.5,33,138.0
1191,F5,143.5,1.0,55,138.0
1192,G#5,143.5,0.5,55,138.0
1193,D6,143.5,0.5,55,138.0
1194,E-4,143.5,0.25,37,138.0
1195,C4,143.5,0.25,37,138.0
1196,D4,143.75,0.248,33,138.0
1197,B3,143.75,0.248,33,138.0
1198,G5,144.0,1.5,44,138.0
1199,B3,144.0,0.5,33,138.0
1200,D4,144.0,0.5,33,138.0
1201,F5,144.5,0.25,50,138.0
1202,B3,144.5,0.5,28,138.0
1203,G3,144.5,0.5,28,138.0
1204,E5,144.75,0.246,44,138.0
1205,E5,145.0,0.5,49,138.0
1206,C4,145.0,0.5,33,138.0
1207,E4,145.0,0.5,33,138.0
1208,E5,145.5,1.0,46,138.0
1209,C#6,145.5,0.5,50,138.0
1210,G5,145.5,0.5,50,138.0
1211,E-4,145.5,0.25,37,138.0
1212,B3,145.5,0.25,37,138.0
1213,B-3,145.75,0.248,33,138.0
1214,C#4,145.75,0.248,33,138.0
1215,F#5,146.0,1.5,44,138.0
1216,B-3,146.0,0.5,33,138.0
1217,C#4,146.0,0.5,33,138.0
1218,E5,146.5,0.25,50,138.0
1219,B-3,146.5,0.5,28,138.0
1220,F#3,146.5,0.5,28,138.0
1221,E-5,146.75,0.25,44,138.0
1222,D5,147.0,0.5,49,138.0
1223,D4,147.0,0.5,33,138.0
1224,B3,147.0,0.5,33,138.0
1225,F5,147.5,0.5,49,138.0
1226,D5,147.5,0.5,49,138.0
1227,B5,147.5,0.5,49,138.0
1228,C#4,147.5,0.25,37,138.0
1229,A3,147.5,0.25,37,138.0
1230,B3,147.75,0.25,33,138.0
1231,G#3,147.75,0.25,33,138.0
1232,D5,148.0,0.5,46,138.0
1233,F5,148.0,0.25,55,138.0
1234,B3,148.0,0.5,33,138.0
1235,G#3,148.0,0.5,33,138.0
1236,E5,148.25,0.5,46,138.0
1237,C#5,148.5,0.5,46,138.0
1238,A3,148.5,0.25,36,138.0
1239,E4,148.5,0.5,30,138.0
1240,A5,148.75,0.25,48,138.0
1241,G3,148.75,0.25,30,138.0
1242,C5,149.0,0.5,46,138.0
1243,E-5,149.0,0.25,55,138.0
1244,F#3,149.0,0.5,33,138.0
1245,A3,149.0,0.5,33,138.0
1246,D5,149.25,0.5,47,138.0
1247,B4,149.5,0.5,46,138.0
1248,G3,149.5,0.25,36,138.0
1249,B3,149.5,0.5,30,138.0
1250,G5,149.75,0.25,49,138.0
1251,B2,149.75,0.25,32,138.0
1252,D5,150.0,0.25,56,138.0
1253,D3,150.0,3.0,27,138.0
1254,C4,150.0,3.0,27,138.0
1255,A2,150.0,3.0,27,138.0
1256,D6,150.25,0.25,44,138.0
1257,C#6,150.5,0.25,45,138.0
1258,C6,150.75,0.25,46,138.0
1259,A5,151.0,0.25,47,138.0
1260,F#5,151.25,0.25,47,138.0
1261,E-5,151.5,0.25,48,138.0
1262,D5,151.75,0.25,49,138.0
1263,C#5,152.0,0.25,50,138.0
1264,C5,152.25,0.25,51,138.0
1265,A4,152.5,0.25,52,138.0
1266,F#4,152.75,0.25,53,138.0
1267,E-4,153.0,0.25,61,138.0
1268,G4,153.0,0.5,51,138.0
1269,B3,153.0,1.0,27,138.0
1270,B2,153.0,1.0,27,138.0
1271,D3,153.0,1.0,27,138.0
1272,D4,153.25,0.25,47,138.0
1273,E5,153.5,0.25,58,138.0
1274,G4,153.5,0.5,49,138.0
1275,D5,153.75,0.25,47,138.0
1276,D5,154.0,0.25,56,138.0
1277,A2,154.0,3.0,27,138.0
1278,C4,154.0,3.0,27,138.0
1279,D3,154.0,3.0,27,138.0
1280,D6,154.25,0.25,44,138.0
1281,C#6,154.5,0.25,45,138.0
1282,C6,154.75,0.25,46,138.0
1283,A5,155.0,0.25,47,138.0
1284,F#5,155.25,0.25,47,138.0
1285,E-5,155.5,0.25,48,138.0
1286,D5,155.75,0.25,49,138.0
1287,C#5,156.0,0.25,50,138.0
1288,C5,156.25,0.25,51,138.0
1289,A4,156.5,0.25,52,138.0
1290,F#4,156.75,0.25,53,138.0
1291,G4,157.0,0.5,51,138.0
1292,E-4,157.0,0.25,61,138.0
1293,B2,157.0,1.0,27,138.0
1294,D3,157.0,1.0,27,138.0
1295,B3,157.0,1.0,27,138.0
1296,D4,157.25,0.25,47,138.0
1297,E5,157.5,0.25,58,138.0
1298,G4,157.5,0.5,49,138.0
1299,D5,157.75,0.25,47,138.0
1300,D5,158.0,0.25,52,138.0
1301,B2,158.0,1.0,28,138.0
1302,B1,158.0,1.0,28,138.0
1303,B4,158.25,0.25,50,138.0
1304,G5,158.25,0.25,50,138.0
1305,B5,158.5,0.25,54,138.0
1306,D5,158.5,0.25,54,138.0
1307,C5,158.75,0.25,48,138.0
1308,A5,158.75,0.25,48,138.0
1309,B4,159.0,0.25,58,138.0
1310,G5,159.0,2.0,58,138.0
1311,E2,159.0,1.0,26,138.0
1312,E3,159.0,1.0,26,138.0
1313,E-5,159.25,0.25,50,138.0
1314,E5,159.5,0.25,55,138.0
1315,B4,159.75,0.25,50,138.0
1316,B-4,160.0,0.25,54,138.0
1317,C#3,160.0,1.0,28,138.0
1318,C#2,160.0,1.0,28,138.0
1319,E-5,160.25,0.25,58,138.0
1320,E5,160.5,0.25,58,138.0
1321,B-4,160.75,0.25,53,138.0
1322,A4,161.0,0.25,56,138.0
1323,D3,161.0,0.5,26,138.0
1324,D2,161.0,0.5,26,138.0
1325,C#5,161.25,0.25,50,138.0
1326,D5,161.5,0.25,60,138.0
1327,D6,161.75,0.25,54,138.0
1328,D6,162.0,0.25,61,138.0
1329,A3,162.0,3.0,27,138.0
1330,C5,162.0,3.0,27,138.0
1331,D4,162.0,3.0,27,138.0
1332,D7,162.25,0.25,48,138.0
1333,C#7,162.5,0.25,49,138.0
1334,C7,162.75,0.25,50,138.0
1335,A6,163.0,0.25,51,138.0
1336,F#6,163.25,0.25,51,138.0
1337,E-6,163.5,0.25,52,138.0
1338,D6,163.75,0.25,53,138.0
1339,C#6,164.0,0.25,55,138.0
1340,C6,164.25,0.25,60,138.0
1341,A5,164.5,0.25,64,138.0
1342,F#5,164.75,0.25,67,138.0
1343,E-5,165.0,0.25,72,138.0
1344,G5,165.0,0.5,60,138.0
1345,B4,165.0,1.0,27,138.0
1346,B3,165.0,1.0,27,138.0
1347,D4,165.0,1.0,27,138.0
1348,D5,165.25,0.25,51,138.0
1349,G5,165.5,0.5,53,138.0
1350,E6,165.5,0.25,63,138.0
1351,D6,165.75,0.25,51,138.0
1352,D6,166.0,0.25,61,138.0
1353,C4,166.0,3.0,27,138.0
1354,A2,166.0,3.0,27,138.0
1355,D3,166.0,3.0,27,138.0
1356,D7,166.25,0.25,48,138.0
1357,C#7,166.5,0.25,49,138.0
1358,C7,166.75,0.25,50,138.0
1359,A6,167.0,0.25,51,138.0
1360,F#6,167.25,0.25,51,138.0
1361,E-6,167.5,0.25,52,138.0
1362,D6,167.75,0.25,53,138.0
1363,C#6,168.0,0.25,57,138.0
1364,C6,168.25,0.25,59,138.0
1365,A5,168.5,0.25,61,138.0
1366,F#5,168.75,0.25,63,138.0
1367,G5,169.0,0.5,54,138.0
1368,E-5,169.0,0.25,67,138.0
1369,B2,169.0,0.5,27,138.0
1370,B3,169.0,0.5,27,138.0
1371,D3,169.0,0.5,27,138.0
1372,D5,169.25,0.25,51,138.0
1373,G5,169.5,0.5,53,138.0
1374,E6,169.5,0.25,63,138.0
1375,B3,169.5,0.5,30,138.0
1376,D6,169.75,0.25,51,138.0
1377,D6,170.0,0.25,56,138.0
1378,B3,170.0,1.0,30,138.0
1379,G5,170.25,0.25,50,138.0
1380,B4,170.25,0.25,50,138.0
1381,D5,170.5,0.25,54,138.0
1382,B5,170.5,0.25,54,138.0
1383,A5,170.75,0.25,48,138.0
1384,C5,170.75,0.25,48,138.0
1385,B4,171.0,0.25,58,138.0
1386,G5,171.0,2.0,58,138.0
1387,E4,171.0,1.0,28,138.0
1388,E-5,171.25,0.25,50,138.0
1389,E5,171.5,0.25,55,138.0
1390,B4,171.75,0.25,50,138.0
1391,B-4,172.0,0.25,54,138.0
1392,C#4,172.0,1.0,30,138.0
1393,E-5,172.25,0.25,58,138.0
1394,E5,172.5,0.25,58,138.0
1395,B-4,172.75,0.25,53,138.0
1396,A4,173.0,0.25,56,138.0
1397,F#5,173.0,0.5,54,138.0
1398,D4,173.0,0.5,29,138.0
1399,D5,173.25,0.25,50,138.0
1400,G5,173.5,0.5,54,138.0
1401,G4,173.5,0.25,60,138.0
1402,E-4,173.5,0.5,29,138.0
1403,C5,173.75,0.25,50,138.0
1404,G5,174.0,0.25,54,138.0
1405,E4,174.0,1.0,31,138.0
1406,E5,174.25,0.25,52,138.0
1407,C6,174.25,0.25,52,138.0
1408,E6,174.5,0.25,57,138.0
1409,G5,174.5,0.25,57,138.0
1410,F5,174.75,0.25,52,138.0
1411,D6,174.75,0.25,52,138.0
1412,E5,175.0,0.25,63,138.0
1413,C6,175.0,2.0,63,138.0
1414,A4,175.0,1.0,30,138.0
1415,G#5,175.25,0.25,55,138.0
1416,A5,175.5,0.25,61,138.0
1417,E-5,175.75,0.25,56,138.0
1418,E-5,176.0,0.25,61,138.0
1419,F#4,176.0,1.0,33,138.0
1420,G#5,176.25,0.25,66,138.0
1421,A5,176.5,0.25,66,138.0
1422,E-5,176.75,0.25,62,138.0
1423,D5,177.0,0.25,66,138.0
1424,B5,177.0,0.5,63,138.0
1425,G4,177.0,0.5,34,138.0
1426,G5,177.25,0.25,59,138.0
1427,C6,177.5,0.5,64,138.0
1428,C5,177.5,0.25,72,138.0
1429,G#4,177.5,0.5,34,138.0
1430,F5,177.75,0.25,60,138.0
1431,C6,178.0,0.25,63,138.0
1432,A4,178.0,1.0,36,138.0
1433,A5,178.25,0.25,60,138.0
1434,F6,178.25,0.25,60,138.0
1435,C6,178.5,0.25,66,138.0
1436,A6,178.5,0.25,66,138.0
1437,B-5,178.75,0.25,60,138.0
1438,G6,178.75,0.25,60,138.0
1439,F6,179.0,2.0,73,138.0
1440,G#5,179.0,0.25,73,138.0
1441,C#5,179.0,1.0,35,138.0
1442,F5,179.25,0.25,63,138.0
1443,G#5,179.5,0.25,70,138.0
1444,G5,179.75,0.25,65,138.0
1445,G#5,180.0,0.25,70,138.0
1446,B4,180.0,1.0,39,138.0
1447,C#6,180.25,0.25,71,138.0
1448,D6,180.5,0.25,77,138.0
1449,G#5,180.75,0.25,71,138.0
1450,G5,181.0,0.25,75,138.0
1451,E6,181.0,1.5,78,138.0
1452,C4,181.0,1.5,39,138.0
1453,C5,181.0,1.5,39,138.0
1454,B5,181.25,0.25,68,138.0
1455,C6,181.5,0.25,82,138.0
1456,G5,181.75,0.25,69,138.0
1457,C6,182.0,0.5,74,138.0
1458,E5,182.5,0.5,82,138.0
1459,E6,182.5,0.5,82,138.0
1460,C6,182.5,0.5,82,138.0
1461,G5,182.5,0.5,82,138.0
1462,C2,182.5,0.5,61,138.0
1463,C3,182.5,0.5,61,138.0
1464,B5,183.0,0.5,81,138.0
1465,D6,183.0,0.5,81,138.0
1466,C6,183.5,0.25,80,138.0
1467,E6,183.5,0.25,80,138.0
1468,F6,183.75,0.25,85,138.0
1469,D6,183.75,0.25,85,138.0
1470,E6,184.0,0.25,88,138.0
1471,G6,184.0,0.25,88,138.0
1472,C6,184.5,0.25,84,138.0
1473,E6,184.5,0.25,84,138.0
1474,E4,184.5,0.25,76,138.0
1475,C4,184.5,0.25,76,138.0
1476,B3,185.0,0.5,73,138.0
1477,D4,185.0,0.5,73,138.0
1478,C4,185.5,0.25,74,138.0
1479,E4,185.5,0.25,74,138.0
1480,F4,185.75,0.25,78,138.0
1481,D4,185.75,0.25,78,138.0
1482,G4,186.0,0.25,81,138.0
1483,E4,186.0,0.25,81,138.0
1484,G5,186.5,0.5,82,138.0
1485,E5,186.5,0.5,82,138.0
1486,E6,186.5,0.5,82,138.0
1487,C6,186.5,0.5,82,138.0
1488,C3,186.5,0.5,61,138.0
1489,C2,186.5,0.5,61,138.0
1490,D6,187.0,0.5,81,138.0
1491,B5,187.0,0.5,81,138.0
1492,E6,187.5,0.25,80,138.0
1493,C6,187.5,0.25,80,138.0
1494,D6,187.75,0.25,85,138.0
1495,F6,187.75,0.25,85,138.0
1496,E6,188.0,0.25,88,138.0
1497,G6,188.0,0.25,88,138.0
1498,E6,188.5,0.5,90,138.0
1499,G5,188.5,0.5,90,138.0
1500,A5,188.5,0.5,90,138.0
1501,G6,188.5,0.5,90,138.0
1502,C#2,188.5,0.5,68,138.0
1503,C#3,188.5,0.5,68,138.0
1504,E6,189.5,0.5,90,138.0
1505,C#6,189.5,0.5,90,138.0
1506,G6,189.5,0.5,90,138.0
1507,G5,189.5,0.5,90,138.0
1508,A2,189.5,0.5,73,138.0
1509,A1,189.5,0.5,73,138.0
1510,G6,190.5,0.5,90,138.0
1511,D6,190.5,0.5,90,138.0
1512,B5,190.5,0.5,90,138.0
1513,G5,190.5,0.5,90,138.0
1514,D3,190.5,0.5,68,138.0
1515,D2,190.5,0.5,68,138.0
1516,G5,191.5,0.5,90,138.0
1517,G6,191.5,0.5,90,138.0
1518,C#6,191.5,0.5,90,138.0
1519,A5,191.5,0.5,90,138.0
1520,E3,191.5,0.5,73,138.0
1521,E2,191.5,0.5,73,138.0
1522,D2,192.0,0.25,50,138.0
1523,G6,192.0,1.0,68,138.0
1524,B5,192.0,1.0,68,138.0
1525,D6,192.0,1.0,68,138.0
1526,G5,192.0,1.0,68,138.0
1527,F#2,192.25,0.25,50,138.0
1528,G2,192.5,0.25,50,138.0
1529,B2,192.75,0.25,50,138.0
1530,D3,193.0,0.25,50,138.0
1531,G5,193.0,1.5,57,138.0
1532,D6,193.0,1.5,57,138.0
1533,B5,193.0,1.5,57,138.0
1534,F#3,193.25,0.25,50,138.0
1535,G3,193.5,0.25,50,138.0
1536,B3,193.75,0.25,50,138.0
1537,D4,194.0,0.25,50,138.0
1538,F#4,194.25,0.25,50,138.0
1539,G4,194.5,0.25,50,138.0
1540,D5,194.5,0.5,56,138.0
1541,B5,194.5,0.5,56,138.0
1542,G5,194.5,0.5,56,138.0
1543,B4,194.75,0.25,50,138.0
1544,D5,195.0,0.25,56,138.0
1545,F#5,195.25,0.25,57,138.0
1546,G5,195.5,0.25,58,138.0
1547,G4,195.5,0.25,43,138.0
1548,B5,195.75,0.25,59,138.0
1549,B4,195.75,0.25,44,138.0
1550,C#6,196.0,0.25,60,138.0
1551,C#5,196.0,0.25,45,138.0
1552,D6,196.25,0.25,61,138.0
1553,D5,196.25,0.25,46,138.0
1554,E6,196.5,0.25,62,138.0
1555,E5,196.5,0.25,47,138.0
1556,D6,196.75,0.25,62,138.0
1557,D5,196.75,0.25,48,138.0
1558,F#6,197.0,0.25,63,138.0
1559,F#5,197.0,0.25,50,138.0
1560,G6,197.25,0.25,64,138.0
1561,G5,197.25,0.25,51,138.0
1562,A6,197.5,0.25,65,138.0
1563,A5,197.5,0.25,52,138.0
1564,G6,197.75,0.25,66,138.0
1565,G5,197.75,0.25,53,138.0
1566,B-6,198.0,0.25,67,138.0
1567,B-5,198.0,0.25,54,138.0
1568,B6,198.25,0.25,68,138.0
1569,B5,198.25,0.25,55,138.0
1570,C7,198.5,0.25,69,138.0
1571,C6,198.5,0.25,56,138.0
1572,B6,198.75,0.25,70,138.0
1573,B5,198.75,0.25,58,138.0
1574,D7,199.0,0.5,71,138.0
1575,D6,199.0,0.5,59,138.0
1576,D4,199.5,0.167,60,138.0
1577,C6,199.5,0.5,63,138.0
1578,A5,199.5,0.5,63,138.0
1579,D5,199.5,0.5,63,138.0
1580,E4,199.667,0.167,63,138.0
1581,F#4,199.833,0.167,66,138.0
1582,G3,200.0,0.333,40,138.0
1583,D5,200.0,2.0,52,138.0
1584,B5,200.0,2.0,52,138.0
1585,G5,200.0,2.0,52,138.0
1586,B4,200.333,0.333,32,138.0
1587,G4,200.667,0.333,32,138.0
1588,F#4,201.0,0.333,40,138.0
1589,B4,201.333,0.333,33,138.0
1590,G4,201.667,0.333,33,138.0
1591,E-4,202.0,0.333,40,138.0
1592,C6,202.0,1.0,52,138.0
1593,G5,202.0,1.0,52,138.0
1594,C5,202.333,0.333,31,138.0
1595,G4,202.667,0.333,31,138.0
1596,C4,203.0,0.333,40,138.0
1597,C6,203.0,1.0,54,138.0
1598,E-6,203.0,1.0,54,138.0
1599,G5,203.0,1.0,54,138.0
1600,C5,203.333,0.333,33,138.0
1601,G4,203.667,0.333,33,138.0
1602,D6,204.0,1.0,67,138.0
1603,B3,204.0,0.333,40,138.0
1604,G6,204.0,2.0,56,138.0
1605,G5,204.0,2.0,56,138.0
1606,B4,204.333,0.333,31,138.0
1607,G4,204.667,0.333,31,138.0
1608,B5,205.0,1.0,61,138.0
1609,G3,205.0,0.333,40,138.0
1610,B4,205.333,0.333,32,138.0
1611,G4,205.667,0.333,32,138.0
1612,C4,206.0,0.333,40,138.0
1613,C6,206.0,1.0,54,138.0
1614,G5,206.0,1.0,54,138.0
1615,E-6,206.0,1.0,54,138.0
1616,C5,206.333,0.333,33,138.0
1617,G4,206.667,0.333,33,138.0
1618,E-4,207.0,0.333,40,138.0
1619,C6,207.0,1.0,58,138.0
1620,G5,207.0,1.0,58,138.0
1621,C5,207.333,0.333,32,138.0
1622,G4,207.667,0.333,32,138.0
1623,G5,208.0,2.0,56,138.0
1624,B-5,208.0,1.0,66,138.0
1625,D4,208.0,0.333,40,138.0
1626,B-4,208.333,0.333,32,138.0
1627,G4,208.667,0.333,32,138.0
1628,B5,209.0,1.0,59,138.0
1629,D4,209.0,0.333,40,138.0
1630,B4,209.333,0.333,36,138.0
1631,G4,209.667,0.333,36,138.0
1632,D4,210.0,0.333,40,138.0
1633,D6,210.0,1.0,59,138.0
1634,F#5,210.0,1.0,59,138.0
1635,C5,210.333,0.333,33,138.0
1636,A4,210.667,0.333,33,138.0
1637,D3,211.0,0.333,40,138.0
1638,A5,211.0,0.75,58,138.0
1639,C6,211.0,0.75,58,138.0
1640,D4,211.333,0.333,34,138.0
1641,D5,211.5,0.5,52,138.0
1642,C4,211.667,0.333,34,138.0
1643,A5,211.75,0.25,52,138.0
1644,F#5,211.75,0.25,52,138.0
1645,B5,212.0,2.0,58,138.0
1646,D5,212.0,0.5,49,138.0
1647,G5,212.0,0.169,49,138.0
1648,G2,212.0,0.25,40,138.0
1649,A5,212.169,0.167,42,138.0
1650,G3,212.25,0.25,33,138.0
1651,G5,212.335,0.169,49,138.0
1652,B3,212.5,0.25,33,138.0
1653,A5,212.502,0.169,44,138.0
1654,G5,212.671,0.167,49,138.0
1655,G3,212.75,0.25,33,138.0
1656,A5,212.838,0.169,44,138.0
1657,G5,213.0,0.169,50,138.0
1658,F#3,213.0,0.25,41,138.0
1659,A5,213.169,0.167,44,138.0
1660,G3,213.25,0.25,35,138.0
1661,G5,213.335,0.169,50,138.0
1662,G4,213.5,0.25,35,138.0
1663,A5,213.502,0.169,46,138.0
1664,G5,213.671,0.167,51,138.0
1665,G3,213.75,0.25,35,138.0
1666,A5,213.838,0.169,45,138.0
1667,C6,214.0,1.0,67,138.0
1668,G5,214.0,0.169,51,138.0
1669,E3,214.0,0.25,42,138.0
1670,A5,214.169,0.167,44,138.0
1671,G3,214.25,0.25,36,138.0
1672,G5,214.335,0.169,52,138.0
1673,G4,214.5,0.25,36,138.0
1674,A5,214.502,0.169,47,138.0
1675,G5,214.671,0.167,52,138.0
1676,G3,214.75,0.25,37,138.0
1677,A5,214.838,0.169,47,138.0
1678,G5,215.0,0.169,53,138.0
1679,E6,215.0,1.0,73,138.0
1680,C3,215.0,0.25,44,138.0
1681,A5,215.169,0.167,47,138.0
1682,G3,215.25,0.25,37,138.0
1683,G5,215.335,0.169,54,138.0
1684,E4,215.5,0.25,37,138.0
1685,A5,215.502,0.169,48,138.0
1686,G5,215.671,0.167,54,138.0
1687,G3,215.75,0.25,38,138.0
1688,A5,215.838,0.169,48,138.0
1689,G5,216.0,0.169,55,138.0
1690,G6,216.0,2.0,67,138.0
1691,B2,216.0,0.25,45,138.0
1692,A5,216.169,0.167,47,138.0
1693,G3,216.25,0.25,37,138.0
1694,G5,216.335,0.169,55,138.0
1695,D4,216.5,0.25,37,138.0
1696,A5,216.502,0.169,50,138.0
1697,G5,216.671,0.167,56,138.0
1698,G3,216.75,0.25,37,138.0
1699,A5,216.838,0.169,51,138.0
1700,G5,217.0,0.169,56,138.0
1701,G2,217.0,0.25,46,138.0
1702,A5,217.169,0.167,50,138.0
1703,G3,217.25,0.25,39,138.0
1704,G5,217.335,0.169,57,138.0
1705,B3,217.5,0.25,40,138.0
1706,A5,217.502,0.169,51,138.0
1707,G5,217.671,0.167,57,138.0
1708,G3,217.75,0.25,40,138.0
1709,A5,217.838,0.169,51,138.0
1710,E6,218.0,1.0,72,138.0
1711,G5,218.0,0.169,58,138.0
1712,C3,218.0,0.25,48,138.0
1713,A5,218.169,0.167,50,138.0
1714,G3,218.25,0.25,42,138.0
1715,G5,218.335,0.169,59,138.0
1716,E4,218.5,0.25,42,138.0
1717,A5,218.502,0.169,53,138.0
1718,G5,218.671,0.167,59,138.0
1719,G3,218.75,0.25,42,138.0
1720,A5,218.838,0.169,53,138.0
1721,C6,219.0,1.0,77,138.0
1722,G5,219.0,0.169,60,138.0
1723,E3,219.0,0.25,51,138.0
1724,A5,219.169,0.167,52,138.0
1725,G3,219.25,0.25,43,138.0
1726,G5,219.335,0.169,60,138.0
1727,G4,219.5,0.25,43,138.0
1728,A5,219.502,0.169,55,138.0
1729,G5,219.671,0.167,61,138.0
1730,G3,219.75,0.25,43,138.0
1731,A5,219.838,0.169,54,138.0
1732,G5,220.0,0.169,61,138.0
1733,B-5,220.0,0.5,83,138.0
1734,D3,220.0,0.25,50,138.0
1735,A5,220.169,0.167,53,138.0
1736,E3,220.25,0.25,44,138.0
1737,G5,220.335,0.169,62,138.0
1738,B5,220.5,1.0,75,138.0
1739,F#3,220.5,0.25,48,138.0
1740,A5,220.502,0.169,56,138.0
1741,G5,220.671,0.167,62,138.0
1742,G3,220.75,0.25,51,138.0
1743,A5,220.838,0.169,56,138.0
1744,G5,221.0,0.169,63,138.0
1745,A3,221.0,0.25,54,138.0
1746,A5,221.169,0.167,55,138.0
1747,B3,221.25,0.25,55,138.0
1748,G5,221.335,0.169,64,138.0
1749,D6,221.5,0.5,86,138.0
1750,A3,221.5,0.25,55,138.0
1751,A5,221.502,0.169,57,138.0
1752,G5,221.671,0.167,64,138.0
1753,G3,221.75,0.25,54,138.0
1754,A5,221.838,0.169,56,138.0
1755,D6,222.0,0.169,75,138.0
1756,F#3,222.0,0.25,54,138.0
1757,E6,222.169,0.167,66,138.0
1758,G3,222.25,0.25,49,138.0
1759,D6,222.335,0.169,75,138.0
1760,D5,222.5,0.5,60,138.0
1761,F#3,222.5,0.25,49,138.0
1762,E6,222.502,0.169,64,138.0
1763,D6,222.671,0.167,75,138.0
1764,E3,222.75,0.25,49,138.0
1765,E6,222.838,0.169,68,138.0
1766,D6,223.0,0.169,78,138.0
1767,D3,223.0,0.25,54,138.0
1768,E6,223.169,0.167,69,138.0
1769,C3,223.25,0.25,50,138.0
1770,D6,223.335,0.169,75,138.0
1771,C#6,223.5,0.25,75,138.0
1772,B2,223.5,0.25,59,138.0
1773,D6,223.75,0.25,79,138.0
1774,A2,223.75,0.25,66,138.0
1775,G1,224.0,0.25,66,138.0
1776,F6,224.0,0.25,76,138.0
1777,D6,224.0,0.25,76,138.0
1778,B6,224.0,0.25,76,138.0
1779,D7,224.0,0.25,76,138.0
1780,G2,224.25,0.25,56,138.0
1781,G1,224.5,0.25,66,138.0
1782,D6,224.5,1.0,69,138.0
1783,F6,224.5,1.0,69,138.0
1784,B6,224.5,1.0,69,138.0
1785,D7,224.5,1.0,69,138.0
1786,G2,224.75,0.25,56,138.0
1787,G1,225.0,0.25,66,138.0
1788,G2,225.25,0.25,57,138.0
1789,G1,225.5,0.25,66,138.0
1790,D6,225.5,0.25,69,138.0
1791,C6,225.5,0.25,69,138.0
1792,F6,225.5,0.25,69,138.0
1793,C7,225.5,0.25,69,138.0
1794,G2,225.75,0.25,57,138.0
1795,G1,226.0,0.25,66,138.0
1796,F6,226.0,0.25,70,138.0
1797,B6,226.0,0.25,70,138.0
1798,B5,226.0,0.25,70,138.0
1799,D6,226.0,0.25,70,138.0
1800,G2,226.25,0.25,57,138.0
1801,G1,226.5,0.25,66,138.0
1802,D6,226.5,0.25,73,138.0
1803,C7,226.5,0.25,73,138.0
1804,F6,226.5,0.25,73,138.0
1805,C6,226.5,0.25,73,138.0
1806,G2,226.75,0.25,58,138.0
1807,G1,227.0,0.25,66,138.0
1808,D7,227.0,0.25,73,138.0
1809,D6,227.0,0.25,73,138.0
1810,F6,227.0,0.25,73,138.0
1811,G2,227.25,0.25,59,138.0
1812,G#1,227.5,0.25,45,138.0
1813,B6,227.5,0.25,61,138.0
1814,B5,227.5,0.25,61,138.0
1815,D6,227.5,0.25,61,138.0
1816,E6,227.5,0.25,61,138.0
1817,G#2,227.75,0.25,34,138.0
1818,A1,228.0,0.25,43,138.0
1819,E6,228.0,0.25,53,138.0
1820,C7,228.0,0.25,53,138.0
1821,C6,228.0,0.25,53,138.0
1822,A2,228.25,0.25,33,138.0
1823,G#1,228.5,0.25,43,138.0
1824,B5,228.5,0.25,47,138.0
1825,D6,228.5,0.25,47,138.0
1826,E6,228.5,0.25,47,138.0
1827,B6,228.5,0.25,47,138.0
1828,G#2,228.75,0.25,33,138.0
1829,A1,229.0,0.25,43,138.0
1830,C7,229.0,0.25,53,138.0
1831,E6,229.0,0.25,53,138.0
1832,C6,229.0,0.25,53,138.0
1833,A2,229.25,0.25,34,138.0
1834,C2,229.5,0.25,43,138.0
1835,C6,229.5,0.25,47,138.0
1836,A6,229.5,0.25,47,138.0
1837,E6,229.5,0.25,47,138.0
1838,A5,229.5,0.25,47,138.0
1839,C3,229.75,0.25,35,138.0
1840,C#2,230.0,0.25,43,138.0
1841,A5,230.0,0.25,53,138.0
1842,E6,230.0,0.25,53,138.0
1843,G6,230.0,0.25,53,138.0
1844,C#3,230.25,0.25,33,138.0
1845,E2,230.5,0.25,43,138.0
1846,G6,230.5,0.25,48,138.0
1847,A5,230.5,0.25,48,138.0
1848,C#6,230.5,0.25,48,138.0
1849,E3,230.75,0.25,33,138.0
1850,D2,231.0,0.25,43,138.0
1851,F#6,231.0,0.25,53,138.0
1852,A5,231.0,0.25,53,138.0
1853,C6,231.0,0.25,53,138.0
1854,D3,231.25,0.25,34,138.0
1855,D2,231.5,0.25,43,138.0
1856,C6,231.5,0.25,48,138.0
1857,A6,231.5,0.25,48,138.0
1858,A5,231.5,0.25,48,138.0
1859,D3,231.75,0.25,35,138.0
1860,D2,232.0,0.25,47,138.0
1861,G6,232.0,0.25,58,138.0
1862,B5,232.0,0.25,58,138.0
1863,G5,232.0,0.25,58,138.0
1864,D3,232.25,0.25,36,138.0
1865,G2,232.5,0.25,48,138.0
1866,B5,232.5,0.25,53,138.0
1867,D6,232.5,0.25,53,138.0
1868,D5,232.5,0.25,53,138.0
1869,G3,232.75,0.25,37,138.0
1870,D2,233.0,0.25,50,138.0
1871,C6,233.0,0.25,62,138.0
1872,F#5,233.0,0.25,62,138.0
1873,F#6,233.0,0.25,62,138.0
1874,D3,233.25,0.246,40,138.0
1875,D3,233.5,0.25,53,138.0
1876,F#6,233.5,0.25,58,138.0
1877,C6,233.5,0.25,58,138.0
1878,A6,233.5,0.25,58,138.0
1879,A5,233.5,0.25,58,138.0
1880,D4,233.75,0.25,44,138.0
1881,D2,234.0,0.25,54,138.0
1882,B5,234.0,0.25,67,138.0
1883,G5,234.0,0.25,67,138.0
1884,G6,234.0,0.25,67,138.0
1885,D3,234.25,0.25,42,138.0
1886,G2,234.5,0.25,57,138.0
1887,B5,234.5,0.25,62,138.0
1888,D5,234.5,0.25,62,138.0
1889,D6,234.5,0.25,62,138.0
1890,G3,234.75,0.25,44,138.0
1891,D2,235.0,0.25,58,138.0
1892,C6,235.0,0.25,73,138.0
1893,F#6,235.0,0.25,73,138.0
1894,F#5,235.0,0.25,73,138.0
1895,D3,235.25,0.246,47,138.0
1896,D3,235.5,0.25,61,138.0
1897,F#6,235.5,0.25,67,138.0
1898,C6,235.5,0.25,67,138.0
1899,A5,235.5,0.25,67,138.0
1900,A6,235.5,0.25,67,138.0
1901,D4,235.75,0.25,51,138.0
1902,G5,236.0,0.25,77,138.0
1903,G2,236.0,0.25,59,138.0
1904,G6,236.25,0.25,70,138.0
1905,G3,236.25,0.25,50,138.0
1906,D5,236.5,0.25,79,138.0
1907,D2,236.5,0.25,61,138.0
1908,D6,236.75,0.25,73,138.0
1909,D3,236.75,0.25,51,138.0
1910,F#5,237.0,0.25,82,138.0
1911,F#2,237.0,0.25,64,138.0
1912,F#6,237.25,0.25,76,138.0
1913,F#3,237.25,0.25,55,138.0
1914,A5,237.5,0.25,85,138.0
1915,A2,237.5,0.25,67,138.0
1916,A6,237.75,0.25,79,138.0
1917,A3,237.75,0.25,58,138.0
1918,G5,238.0,0.25,88,138.0
1919,G2,238.0,0.25,68,138.0
1920,G6,238.25,0.25,82,138.0
1921,G3,238.25,0.25,63,138.0
1922,D5,238.5,0.25,91,138.0
1923,D2,238.5,0.25,71,138.0
1924,D6,238.75,0.25,86,138.0
1925,D3,238.75,0.25,63,138.0
1926,F#5,239.0,0.25,94,138.0
1927,F#1,239.0,0.25,74,138.0
1928,F#6,239.25,0.25,90,138.0
1929,F#2,239.25,0.25,64,138.0
1930,A5,239.5,0.25,99,138.0
1931,A1,239.5,0.25,76,138.0
1932,A6,239.75,0.25,92,138.0
1933,A2,239.75,0.25,67,138.0
1934,G6,240.0,0.375,100,138.0
1935,G5,240.0,0.375,100,138.0
1936,G1,240.0,0.375,75,138.0
1937,G2,240.0,0.375,75,138.0
1938,A6,241.0,0.375,103,138.0
1939,A5,241.0,0.375,103,138.0
1940,A1,241.0,0.375,75,138.0
1941,A2,241.0,0.375,75,138.0
1942,B-5,242.0,1.75,108,138.0
1943,B-6,242.0,1.75,108,138.0
1944,B-1,242.0,1.75,79,138.0
1945,B-2,242.0,1.75,79,138.0
1946,B-2,243.75,0.25,50,138.0
1947,B-3,244.0,0.75,71,138.0
1948,B-3,244.75,0.25,58,138.0
1949,B-3,245.0,0.5,65,138.0
1950,B-3,247.75,0.25,57,138.0
1951,D3,247.75,0.25,50,138.0
1952,B-4,248.0,0.75,81,138.0
1953,D4,248.0,0.75,71,138.0
1954,B-4,248.75,0.25,71,138.0
1955,D4,248.75,0.25,58,138.0
1956,B-4,249.0,0.5,78,138.0
1957,D4,249.0,0.5,64,138.0
1958,B-1,251.75,0.25,96,138.0
1959,F3,252.0,0.75,83,138.0
1960,D4,252.0,0.75,83,138.0
1961,B-3,252.0,0.75,83,138.0
1962,F5,252.75,0.25,92,138.0
1963,D6,252.75,0.25,92,138.0
1964,B-5,252.75,0.25,92,138.0
1965,D5,252.75,0.25,92,138.0
1966,B-3,252.75,0.25,74,138.0
1967,D4,252.75,0.25,74,138.0
1968,F3,252.75,0.25,74,138.0
1969,D6,253.0,0.375,83,138.0
1970,D5,253.0,0.375,83,138.0
1971,B-5,253.0,0.375,83,138.0
1972,F5,253.0,0.375,83,138.0
1973,B-3,253.0,0.375,83,138.0
1974,F3,253.0,0.375,83,138.0
1975,D4,253.0,0.375,83,138.0
1976,D5,253.5,0.094,85,138.0
1977,F5,253.5,0.094,85,138.0
1978,E-6,253.5,0.094,85,138.0
1979,B-5,253.5,0.094,85,138.0
1980,B-3,253.5,0.094,79,138.0
1981,D4,253.5,0.094,79,138.0
1982,F3,253.5,0.094,79,138.0
1983,D5,253.75,0.094,86,138.0
1984,F5,253.75,0.094,86,138.0
1985,B-5,253.75,0.094,86,138.0
1986,D6,253.75,0.094,86,138.0
1987,B-3,253.75,0.094,83,138.0
1988,F3,253.75,0.094,83,138.0
1989,D4,253.75,0.094,83,138.0
1990,F5,254.0,0.25,92,138.0
1991,D6,254.0,0.25,92,138.0
1992,B-5,254.0,0.25,92,138.0
1993,D5,254.0,0.25,92,138.0
1994,D4,254.0,0.25,83,138.0
1995,F3,254.0,0.25,83,138.0
1996,B-3,254.0,0.25,83,138.0
1997,B-4,254.5,0.25,84,138.0
1998,B-5,254.5,0.25,84,138.0
1999,F5,254.5,0.25,84,138.0
2000,D5,254.5,0.25,84,138.0
2001,D3,254.5,0.25,83,138.0
2002,B-3,254.5,0.25,83,138.0
2003,F3,254.5,0.25,83,138.0
2004,B-1,255.75,0.25,96,138.0
2005,D4,256.0,0.75,82,138.0
2006,B-3,256.0,0.75,82,138.0
2007,F4,256.0,0.75,82,138.0
2008,F3,256.0,0.75,82,138.0
2009,F5,256.75,0.25,92,138.0
2010,B-5,256.75,0.25,92,138.0
2011,D6,256.75,0.25,92,138.0
2012,F6,256.75,0.25,92,138.0
2013,F3,256.75,0.25,73,138.0
2014,F4,256.75,0.25,73,138.0
2015,D4,256.75,0.25,73,138.0
2016,B-3,256.75,0.25,73,138.0
2017,F6,257.0,0.375,83,138.0
2018,D6,257.0,0.375,83,138.0
2019,B-5,257.0,0.375,83,138.0
2020,F5,257.0,0.375,83,138.0
2021,B-3,257.0,0.375,82,138.0
2022,F4,257.0,0.375,82,138.0
2023,D4,257.0,0.375,82,138.0
2024,F3,257.0,0.375,82,138.0
2025,B-5,257.5,0.094,85,138.0
2026,G6,257.5,0.094,85,138.0
2027,F5,257.5,0.094,85,138.0
2028,D6,257.5,0.094,85,138.0
2029,F3,257.5,0.094,78,138.0
2030,B-3,257.5,0.094,78,138.0
2031,F4,257.5,0.094,78,138.0
2032,D4,257.5,0.094,78,138.0
2033,B-5,257.75,0.094,86,138.0
2034,D6,257.75,0.094,86,138.0
2035,F6,257.75,0.094,86,138.0
2036,F5,257.75,0.094,86,138.0
2037,B-3,257.75,0.094,82,138.0
2038,F4,257.75,0.094,82,138.0
2039,F3,257.75,0.094,82,138.0
2040,D4,257.75,0.094,82,138.0
2041,F6,258.0,0.25,92,138.0
2042,F5,258.0,0.25,92,138.0
2043,B-5,258.0,0.25,92,138.0
2044,D6,258.0,0.25,92,138.0
2045,F3,258.0,0.25,82,138.0
2046,D4,258.0,0.25,82,138.0
2047,F4,258.0,0.25,82,138.0
2048,B-3,258.0,0.25,82,138.0
2049,D6,258.5,0.25,84,138.0
2050,B-5,258.5,0.25,84,138.0
2051,D5,258.5,0.25,84,138.0
2052,F5,258.5,0.25,84,138.0
2053,B-3,258.5,0.25,83,138.0
2054,D4,258.5,0.25,83,138.0
2055,F3,258.5,0.25,83,138.0
2056,B-4,259.5,0.25,50,138.0
2057,C5,259.75,0.25,45,138.0
2058,D5,260.0,1.0,50,138.0
2059,G4,260.5,0.5,39,138.0
2060,E4,260.5,0.5,29,138.0
2061,F4,261.0,0.5,29,138.0
2062,C5,261.0,0.5,36,138.0
2063,A4,261.0,0.5,36,138.0
2064,C5,261.5,0.25,50,138.0
2065,G#4,261.5,0.5,42,138.0
2066,B3,261.5,0.5,40,138.0
2067,D5,261.75,0.25,46,138.0
2068,G4,262.0,0.5,46,138.0
2069,E-5,262.0,1.0,55,138.0
2070,C4,262.0,0.5,40,138.0
2071,A4,262.5,0.5,45,138.0
2072,F#3,262.5,0.5,36,138.0
2073,G3,263.0,0.5,36,138.0
2074,B-4,263.0,0.5,42,138.0
2075,D5,263.0,0.5,42,138.0
2076,G4,263.5,0.5,39,138.0
2077,D5,263.5,0.25,47,138.0
2078,E-3,263.5,0.5,40,138.0
2079,E-5,263.75,0.25,50,138.0
2080,F5,264.0,0.75,54,138.0
2081,F4,264.0,0.5,45,138.0
2082,D3,264.0,0.5,40,138.0
2083,B-4,264.5,0.5,45,138.0
2084,C#3,264.5,0.5,35,138.0
2085,G5,264.75,0.25,52,138.0
2086,G4,265.0,0.5,42,138.0
2087,F5,265.0,0.25,50,138.0
2088,C3,265.0,0.5,35,138.0
2089,E-5,265.25,0.5,43,138.0
2090,A4,265.5,0.5,43,138.0
2091,F2,265.5,0.5,40,138.0
2092,F5,265.75,0.25,45,138.0
2093,E-5,266.0,0.25,49,138.0
2094,B-2,266.0,0.5,38,138.0
2095,F4,266.0,0.5,35,138.0
2096,B-4,266.0,0.5,35,138.0
2097,D5,266.25,0.25,41,138.0
2098,F5,266.5,0.25,43,138.0
2099,E-2,266.5,0.5,30,138.0
2100,C5,266.5,0.5,30,138.0
2101,G4,266.5,0.5,30,138.0
2102,E-5,266.75,0.25,37,138.0
2103,F2,267.0,0.5,27,138.0
2104,A4,267.0,0.5,32,138.0
2105,C5,267.0,0.5,32,138.0
2106,B-5,267.5,0.25,50,138.0
2107,C6,267.75,0.25,45,138.0
2108,D6,268.0,1.0,50,138.0
2109,G5,268.5,0.5,39,138.0
2110,E5,268.5,0.5,29,138.0
2111,F5,269.0,0.5,29,138.0
2112,A5,269.0,0.5,36,138.0
2113,C6,269.0,0.5,36,138.0
2114,G#5,269.5,0.5,42,138.0
2115,C6,269.5,0.25,50,138.0
2116,B4,269.5,0.5,40,138.0
2117,D6,269.75,0.25,46,138.0
2118,G5,270.0,0.5,46,138.0
2119,E-6,270.0,1.0,55,138.0
2120,C5,270.0,0.5,40,138.0
2121,A5,270.5,0.5,45,138.0
2122,F#4,270.5,0.5,36,138.0
2123,G4,271.0,0.5,36,138.0
2124,B-5,271.0,0.5,42,138.0
2125,D6,271.0,0.5,42,138.0
2126,D6,271.5,0.25,51,138.0
2127,G5,271.5,0.5,39,138.0
2128,E-4,271.5,0.5,40,138.0
2129,E-6,271.75,0.25,55,138.0
2130,F5,272.0,0.5,45,138.0
2131,F6,272.0,0.75,59,138.0
2132,D4,272.0,0.5,40,138.0
2133,B-5,272.5,0.5,45,138.0
2134,C#4,272.5,0.5,35,138.0
2135,G6,272.75,0.25,57,138.0
2136,G5,273.0,0.5,42,138.0
2137,F6,273.0,0.25,55,138.0
2138,C4,273.0,0.5,35,138.0
2139,E-6,273.25,0.5,47,138.0
2140,A5,273.5,0.5,43,138.0
2141,F3,273.5,0.5,40,138.0
2142,F6,273.75,0.25,50,138.0
2143,E-6,274.0,0.25,57,138.0
2144,F5,274.0,0.5,44,138.0
2145,B-3,274.0,0.5,36,138.0
2146,D6,274.25,0.5,49,138.0
2147,B-5,274.5,1.0,46,138.0
2148,F#3,274.5,0.5,43,138.0
2149,E-6,274.75,0.25,53,138.0
2150,D6,275.0,0.25,60,138.0
2151,F3,275.0,0.5,44,138.0
2152,C6,275.25,0.25,49,138.0
2153,D6,275.5,0.25,55,138.0
2154,E-3,275.5,0.5,45,138.0
2155,F5,275.5,0.5,47,138.0
2156,A5,275.5,0.5,47,138.0
2157,E-6,275.75,0.25,51,138.0
2158,G6,276.0,0.25,67,138.0
2159,D3,276.0,0.5,46,138.0
2160,F5,276.0,0.5,52,138.0
2161,B-5,276.0,0.5,52,138.0
2162,F6,276.25,0.25,53,138.0
2163,B-5,276.5,0.5,41,138.0
2164,G6,276.5,0.25,58,138.0
2165,C#3,276.5,0.5,47,138.0
2166,F6,276.75,0.246,59,138.0
2167,G5,277.0,0.5,53,138.0
2168,F6,277.0,0.25,69,138.0
2169,C3,277.0,0.5,48,138.0
2170,E-6,277.25,0.25,55,138.0
2171,F6,277.5,0.25,61,138.0
2172,A5,277.5,0.5,43,138.0
2173,F2,277.5,0.5,50,138.0
2174,E-6,277.75,0.25,56,138.0
2175,F5,278.0,0.5,57,138.0
2176,E-6,278.0,0.25,74,138.0
2177,B-2,278.0,0.5,50,138.0
2178,D6,278.25,0.25,57,138.0
2179,B-5,278.5,1.0,45,138.0
2180,E-6,278.5,0.25,63,138.0
2181,F#2,278.5,0.5,52,138.0
2182,D6,278.75,0.246,58,138.0
2183,D6,279.0,0.25,75,138.0
2184,F2,279.0,0.5,53,138.0
2185,C6,279.25,0.25,61,138.0
2186,D6,279.5,0.25,67,138.0
2187,E-2,279.5,0.5,54,138.0
2188,A5,279.5,0.5,47,138.0
2189,F5,279.5,0.5,47,138.0
2190,E-6,279.75,0.25,70,138.0
2191,G6,280.0,0.25,69,138.0
2192,D2,280.0,0.5,55,138.0
2193,B-5,280.0,0.5,58,138.0
2194,F5,280.0,0.5,58,138.0
2195,F6,280.25,0.25,70,138.0
2196,C#2,280.5,0.5,56,138.0
2197,B-5,280.5,0.5,68,138.0
2198,E6,280.5,0.5,68,138.0
2199,G6,280.75,0.5,72,138.0
2200,E-6,281.0,0.5,67,138.0
2201,C2,281.0,0.5,57,138.0
2202,G#6,281.25,0.5,74,138.0
2203,F#1,281.5,0.5,58,138.0
2204,E-6,281.5,0.5,70,138.0
2205,C6,281.5,0.5,70,138.0
2206,A6,281.75,0.25,77,138.0
2207,C7,282.0,0.25,86,138.0
2208,G1,282.0,0.5,67,138.0
2209,D6,282.0,0.5,73,138.0
2210,B-5,282.0,0.5,73,138.0
2211,B-6,282.25,0.25,72,138.0
2212,A6,282.5,0.25,84,138.0
2213,E-2,282.5,0.5,61,138.0
2214,B-5,282.5,0.5,71,138.0
2215,E-6,282.5,0.5,71,138.0
2216,G6,282.75,0.25,74,138.0
2217,F2,283.0,0.25,70,138.0
2218,F6,283.0,0.25,77,138.0
2219,D6,283.0,0.25,77,138.0
2220,B-5,283.0,0.25,77,138.0
2221,A6,283.5,0.25,74,138.0
2222,C6,283.5,0.25,74,138.0
2223,F6,283.5,0.25,74,138.0
2224,A5,283.5,0.25,74,138.0
2225,F1,283.5,0.25,66,138.0
2226,F2,283.5,0.25,66,138.0
2227,B-6,284.0,1.0,89,138.0
2228,D6,284.0,1.0,89,138.0
2229,F6,284.0,1.0,89,138.0
2230,B-5,284.0,1.0,89,138.0
2231,B-1,284.0,0.25,62,138.0
2232,B-2,284.0,0.25,62,138.0
2233,D4,284.25,0.25,50,138.0
2234,F3,284.25,0.25,50,138.0
2235,B-3,284.25,0.25,50,138.0
2236,F3,284.5,0.25,50,138.0
2237,D4,284.5,0.25,50,138.0
2238,B-3,284.5,0.25,50,138.0
2239,D4,284.75,0.25,50,138.0
2240,F3,284.75,0.25,50,138.0
2241,B-3,284.75,0.25,50,138.0
2242,D5,285.0,1.0,67,138.0
2243,B-4,285.0,1.0,67,138.0
2244,B-5,285.0,1.0,67,138.0
2245,F3,285.25,0.25,48,138.0
2246,B-3,285.25,0.25,48,138.0
2247,D4,285.25,0.25,48,138.0
2248,B-3,285.5,0.25,48,138.0
2249,F3,285.5,0.25,48,138.0
2250,D4,285.5,0.25,48,138.0
2251,D4,285.75,0.25,48,138.0
2252,F3,285.75,0.25,48,138.0
2253,B-3,285.75,0.25,48,138.0
2254,D5,286.0,0.125,53,138.0
2255,F5,286.0,0.125,53,138.0
2256,D6,286.0,0.125,53,138.0
2257,F3,286.25,0.125,39,138.0
2258,D4,286.25,0.125,39,138.0
2259,B-3,286.25,0.125,39,138.0
2260,B-5,286.5,0.125,54,138.0
2261,D5,286.5,0.125,54,138.0
2262,B-4,286.5,0.125,54,138.0
2263,B-3,286.75,0.125,40,138.0
2264,D3,286.75,0.125,40,138.0
2265,F5,287.0,0.125,54,138.0
2266,D5,287.0,0.125,54,138.0
2267,D6,287.0,0.125,54,138.0
2268,D4,287.25,0.125,39,138.0
2269,B-3,287.25,0.125,39,138.0
2270,F3,287.25,0.125,39,138.0
2271,C5,287.5,0.125,54,138.0
2272,C6,287.5,0.125,54,138.0
2273,E-5,287.5,0.125,54,138.0
2274,B-3,287.75,0.125,39,138.0
2275,C4,287.75,0.125,39,138.0
2276,E-3,287.75,0.125,39,138.0
2277,E-5,288.0,1.0,103,138.0
2278,G5,288.0,1.0,103,138.0
2279,E-6,288.0,1.0,103,138.0
2280,B-1,288.0,0.25,72,138.0
2281,B-2,288.0,0.25,72,138.0
2282,G3,288.25,0.25,57,138.0
2283,E-4,288.25,0.25,57,138.0
2284,B-3,288.25,0.25,57,138.0
2285,G3,288.5,0.25,57,138.0
2286,B-3,288.5,0.25,57,138.0
2287,E-4,288.5,0.25,57,138.0
2288,B-3,288.75,0.25,57,138.0
2289,E-4,288.75,0.25,57,138.0
2290,G3,288.75,0.25,57,138.0
2291,C6,289.0,1.0,67,138.0
2292,E-5,289.0,1.0,67,138.0
2293,C5,289.0,1.0,67,138.0
2294,C4,289.25,0.25,48,138.0
2295,E-3,289.25,0.25,48,138.0
2296,B-3,289.25,0.25,48,138.0
2297,E-3,289.5,0.25,48,138.0
2298,B-3,289.5,0.25,48,138.0
2299,C4,289.5,0.25,48,138.0
2300,C4,289.75,0.25,48,138.0
2301,E-3,289.75,0.25,48,138.0
2302,B-3,289.75,0.25,48,138.0
2303,E-6,290.0,0.125,53,138.0
2304,E-5,290.0,0.125,53,138.0
2305,G5,290.0,0.125,53,138.0
2306,G3,290.25,0.125,39,138.0
2307,E-4,290.25,0.125,39,138.0
2308,B-3,290.25,0.125,39,138.0
2309,C#5,290.5,0.125,54,138.0
2310,E5,290.5,0.125,54,138.0
2311,C#6,290.5,0.125,54,138.0
2312,B-3,290.75,0.125,39,138.0
2313,C#4,290.75,0.125,39,138.0
2314,E3,290.75,0.125,39,138.0
2315,E-6,291.0,0.125,54,138.0
2316,E-5,291.0,0.125,54,138.0
2317,F#5,291.0,0.125,54,138.0
2318,B-3,291.25,0.125,39,138.0
2319,E-4,291.25,0.125,39,138.0
2320,F#3,291.25,0.125,39,138.0
2321,D6,291.5,0.125,54,138.0
2322,F5,291.5,0.125,54,138.0
2323,D5,291.5,0.125,54,138.0
2324,B-3,291.75,0.125,39,138.0
2325,F3,291.75,0.125,39,138.0
2326,D4,291.75,0.125,39,138.0
2327,F6,292.0,1.0,99,138.0
2328,G#5,292.0,1.0,99,138.0
2329,F5,292.0,1.0,99,138.0
2330,B-1,292.0,0.25,68,138.0
2331,B-2,292.0,0.25,68,138.0
2332,B-3,292.25,0.25,54,138.0
2333,G#3,292.25,0.25,54,138.0
2334,F4,292.25,0.25,54,138.0
2335,G#3,292.5,0.25,54,138.0
2336,B-3,292.5,0.25,54,138.0
2337,F4,292.5,0.25,54,138.0
2338,F4,292.75,0.25,54,138.0
2339,B-3,292.75,0.25,54,138.0
2340,G#3,292.75,0.25,54,138.0
2341,D5,293.0,1.0,67,138.0
2342,D6,293.0,1.0,67,138.0
2343,F5,293.0,1.0,67,138.0
2344,B-3,293.25,0.25,48,138.0
2345,D4,293.25,0.25,48,138.0
2346,F3,293.25,0.25,48,138.0
2347,B-3,293.5,0.25,48,138.0
2348,D4,293.5,0.25,48,138.0
2349,F3,293.5,0.25,48,138.0
2350,F3,293.75,0.25,48,138.0
2351,D4,293.75,0.25,48,138.0
2352,B-3,293.75,0.25,48,138.0
2353,G#5,294.0,0.125,53,138.0
2354,F5,294.0,0.125,53,138.0
2355,F6,294.0,0.125,53,138.0
2356,B-3,294.25,0.125,39,138.0
2357,F4,294.25,0.125,39,138.0
2358,G#3,294.25,0.125,39,138.0
2359,D6,294.5,0.125,54,138.0
2360,D5,294.5,0.125,54,138.0
2361,F#5,294.5,0.125,54,138.0
2362,D4,294.75,0.125,39,138.0
2363,F#3,294.75,0.125,39,138.0
2364,B-3,294.75,0.125,39,138.0
2365,F6,295.0,0.125,54,138.0
2366,G#5,295.0,0.125,54,138.0
2367,F5,295.0,0.125,54,138.0
2368,G#3,295.25,0.125,39,138.0
2369,B-3,295.25,0.125,39,138.0
2370,F4,295.25,0.125,39,138.0
2371,E-6,295.5,0.125,54,138.0
2372,E-5,295.5,0.125,54,138.0
2373,G5,295.5,0.125,54,138.0
2374,E-4,295.75,0.125,39,138.0
2375,B-3,295.75,0.125,39,138.0
2376,G3,295.75,0.125,39,138.0
2377,G5,296.0,1.0,99,138.0
2378,B-5,296.0,1.0,99,138.0
2379,G6,296.0,1.0,99,138.0
2380,B-2,296.0,0.25,68,138.0
2381,B-1,296.0,0.25,68,138.0
2382,G4,296.25,0.25,54,138.0
2383,B-3,296.25,0.25,54,138.0
2384,E-4,296.25,0.25,54,138.0
2385,B-3,296.5,0.25,54,138.0
2386,G4,296.5,0.25,54,138.0
2387,E-4,296.5,0.25,54,138.0
2388,G4,296.75,0.25,54,138.0
2389,E-4,296.75,0.25,54,138.0
2390,B-3,296.75,0.25,54,138.0
2391,E-5,297.0,1.0,66,138.0
2392,G5,297.0,1.0,66,138.0
2393,B-5,297.0,1.0,66,138.0
2394,E-6,297.0,1.0,66,138.0
2395,G3,297.25,0.25,48,138.0
2396,B-3,297.25,0.25,48,138.0
2397,E-4,297.25,0.25,48,138.0
2398,G3,297.5,0.25,48,138.0
2399,B-3,297.5,0.25,48,138.0
2400,E-4,297.5,0.25,48,138.0
2401,G3,297.75,0.25,48,138.0
2402,E-4,297.75,0.25,48,138.0
2403,B-3,297.75,0.25,48,138.0
2404,B-5,298.0,0.125,53,138.0
2405,G5,298.0,0.125,53,138.0
2406,G6,298.0,0.125,53,138.0
2407,E-4,298.25,0.125,35,138.0
2408,G4,298.25,0.125,35,138.0
2409,B-3,298.25,0.125,35,138.0
2410,B-5,298.5,0.125,54,138.0
2411,E6,298.5,0.125,54,138.0
2412,E5,298.5,0.125,54,138.0
2413,E4,298.75,0.125,35,138.0
2414,C#4,298.75,0.125,35,138.0
2415,B-3,298.75,0.125,35,138.0
2416,F#5,299.0,0.125,60,138.0
2417,B-5,299.0,0.125,60,138.0
2418,F#6,299.0,0.125,60,138.0
2419,E-4,299.25,0.125,39,138.0
2420,F#4,299.25,0.125,39,138.0
2421,B-3,299.25,0.125,39,138.0
2422,B-5,299.5,0.125,62,138.0
2423,F6,299.5,0.125,62,138.0
2424,F5,299.5,0.125,62,138.0
2425,B-3,299.75,0.125,40,138.0
2426,F4,299.75,0.125,40,138.0
2427,D4,299.75,0.125,40,138.0
2428,G#5,300.0,0.125,62,138.0
2429,B-5,300.0,0.125,62,138.0
2430,G#6,300.0,0.125,62,138.0
2431,B-3,300.25,0.125,41,138.0
2432,G#4,300.25,0.125,41,138.0
2433,F4,300.25,0.125,41,138.0
2434,F#5,300.5,0.125,66,138.0
2435,B-5,300.5,0.125,66,138.0
2436,F#6,300.5,0.125,66,138.0
2437,B-3,300.75,0.125,43,138.0
2438,D4,300.75,0.125,43,138.0
2439,F#4,300.75,0.125,43,138.0
2440,G#5,301.0,0.125,68,138.0
2441,B-5,301.0,0.125,68,138.0
2442,G#6,301.0,0.125,68,138.0
2443,F4,301.25,0.125,45,138.0
2444,B-3,301.25,0.125,45,138.0
2445,G#4,301.25,0.125,45,138.0
2446,G6,301.5,0.125,70,138.0
2447,B-5,301.5,0.125,70,138.0
2448,G5,301.5,0.125,70,138.0
2449,B-3,301.75,0.125,46,138.0
2450,E-4,301.75,0.125,46,138.0
2451,G4,301.75,0.125,46,138.0
2452,G6,302.0,0.125,70,138.0
2453,B-5,302.0,0.125,70,138.0
2454,B-6,302.0,0.125,70,138.0
2455,E-6,302.0,0.125,70,138.0
2456,G4,302.25,0.125,47,138.0
2457,B-3,302.25,0.125,47,138.0
2458,E-4,302.25,0.125,47,138.0
2459,C4,302.25,0.125,47,138.0
2460,G#6,302.5,0.125,77,138.0
2461,G#5,302.5,0.125,77,138.0
2462,E-4,302.75,0.125,47,138.0
2463,C4,302.75,0.125,47,138.0
2464,G#4,302.75,0.125,47,138.0
2465,B-3,302.75,0.125,47,138.0
2466,B-5,303.0,0.125,79,138.0
2467,B-6,303.0,0.125,79,138.0
2468,B-3,303.25,0.125,49,138.0
2469,C4,303.25,0.125,49,138.0
2470,E-4,303.25,0.125,49,138.0
2471,B-4,303.25,0.125,49,138.0
2472,A6,303.5,0.125,82,138.0
2473,A5,303.5,0.125,82,138.0
2474,C4,303.75,0.125,50,138.0
2475,B-3,303.75,0.125,50,138.0
2476,A4,303.75,0.125,50,138.0
2477,E-4,303.75,0.125,50,138.0
2478,C6,304.0,0.25,92,138.0
2479,C7,304.0,0.25,92,138.0
2480,C4,304.25,0.125,61,138.0
2481,C5,304.25,0.125,61,138.0
2482,B-6,304.5,0.25,81,138.0
2483,B-5,304.5,0.25,81,138.0
2484,B-3,304.75,0.125,61,138.0
2485,B-4,304.75,0.125,61,138.0
2486,G6,305.0,0.25,90,138.0
2487,G5,305.0,0.25,90,138.0
2488,G4,305.25,0.125,61,138.0
2489,G3,305.25,0.125,61,138.0
2490,F5,305.5,0.25,83,138.0
2491,F6,305.5,0.25,83,138.0
2492,F3,305.75,0.125,61,138.0
2493,F4,305.75,0.125,61,138.0
2494,E-5,306.0,0.25,91,138.0
2495,E-6,306.0,0.25,91,138.0
2496,E-4,306.25,0.125,54,138.0
2497,E-3,306.25,0.125,54,138.0
2498,D6,306.5,0.25,76,138.0
2499,D5,306.5,0.25,76,138.0
2500,D4,306.75,0.125,54,138.0
2501,D3,306.75,0.125,54,138.0
2502,C5,307.0,0.25,80,138.0
2503,C6,307.0,0.25,80,138.0
2504,C4,307.25,0.125,54,138.0
2505,C3,307.25,0.125,54,138.0
2506,B-5,307.5,0.25,74,138.0
2507,B-4,307.5,0.25,74,138.0
2508,B-2,307.75,0.125,54,138.0
2509,B-3,307.75,0.125,54,138.0
2510,G5,308.0,0.25,82,138.0
2511,G4,308.0,0.25,82,138.0
2512,G2,308.25,0.125,54,138.0
2513,G3,308.25,0.125,54,138.0
2514,F5,308.5,0.25,72,138.0
2515,F4,308.5,0.25,72,138.0
2516,F3,308.75,0.125,54,138.0
2517,F2,308.75,0.125,54,138.0
2518,E-4,309.0,0.25,76,138.0
2519,E-5,309.0,0.25,76,138.0
2520,E-3,309.25,0.125,52,138.0
2521,E-2,309.25,0.125,52,138.0
2522,D4,309.5,0.25,70,138.0
2523,D5,309.5,0.25,70,138.0
2524,D2,309.75,0.125,52,138.0
2525,D3,309.75,0.125,52,138.0
2526,C4,310.0,0.25,74,138.0
2527,C5,310.0,0.25,74,138.0
2528,C2,310.25,0.125,49,138.0
2529,C3,310.25,0.125,49,138.0
2530,B-4,310.5,0.25,65,138.0
2531,B-3,310.5,0.25,65,138.0
2532,B-2,310.75,0.125,49,138.0
2533,B-1,310.75,0.125,49,138.0
2534,G4,311.0,0.25,72,138.0
2535,G3,311.0,0.25,72,138.0
2536,G1,311.25,0.125,49,138.0
2537,G2,311.25,0.125,49,138.0
2538,F4,311.5,0.25,66,138.0
2539,F3,311.5,0.25,66,138.0
2540,F2,311.75,0.125,49,138.0
2541,F1,311.75,0.125,49,138.0
2542,A4,312.0,0.5,77,138.0
2543,A1,312.25,0.25,42,138.0
2544,F4,312.5,0.5,67,138.0
2545,F1,312.75,0.25,28,138.0
2546,C5,313.0,0.5,73,138.0
2547,C2,313.25,0.25,39,138.0
2548,F4,313.5,0.5,67,138.0
2549,F1,313.75,0.25,27,138.0
2550,F5,314.0,0.5,71,138.0
2551,F2,314.25,0.25,37,138.0
2552,F4,314.5,0.5,59,138.0
2553,F1,314.75,0.25,26,138.0
2554,A5,315.0,0.5,68,138.0
2555,A2,315.25,0.25,34,138.0
2556,F4,315.5,0.5,56,138.0
2557,F1,315.75,0.25,24,138.0
2558,C6,316.0,0.5,62,138.0
2559,C3,316.25,0.25,32,138.0
2560,F4,316.5,0.5,49,138.0
2561,F1,316.75,0.25,23,138.0
2562,F6,317.0,0.5,54,138.0
2563,F3,317.25,0.25,29,138.0
2564,F4,317.5,0.5,45,138.0
2565,F1,317.75,0.25,24,138.0
2566,F6,318.0,0.5,52,138.0
2567,F3,318.25,0.25,28,138.0
2568,F4,318.5,0.5,41,138.0
2569,F1,318.75,0.25,21,138.0
2570,F6,319.0,0.5,48,138.0
2571,F3,319.25,0.25,21,138.0
2572,B-1,319.75,0.25,84,138.0
2573,F3,320.0,0.75,72,138.0
2574,B-3,320.0,0.75,72,138.0
2575,D4,320.0,0.75,72,138.0
2576,B-5,320.75,0.25,81,138.0
2577,D6,320.75,0.25,81,138.0
2578,F5,320.75,0.25,81,138.0
2579,D5,320.75,0.25,81,138.0
2580,F3,320.75,0.25,65,138.0
2581,B-3,320.75,0.25,65,138.0
2582,D4,320.75,0.25,65,138.0
2583,B-5,321.0,0.5,72,138.0
2584,F5,321.0,0.5,72,138.0
2585,D6,321.0,0.5,72,138.0
2586,D5,321.0,0.5,72,138.0
2587,D4,321.0,0.5,72,138.0
2588,B-3,321.0,0.5,72,138.0
2589,F3,321.0,0.5,72,138.0
2590,B-5,321.5,0.094,75,138.0
2591,F5,321.5,0.094,75,138.0
2592,E-6,321.5,0.094,75,138.0
2593,D5,321.5,0.094,75,138.0
2594,D4,321.5,0.094,70,138.0
2595,B-3,321.5,0.094,70,138.0
2596,F3,321.5,0.094,70,138.0
2597,B-5,321.75,0.094,75,138.0
2598,D5,321.75,0.094,75,138.0
2599,F5,321.75,0.094,75,138.0
2600,D6,321.75,0.094,75,138.0
2601,F3,321.75,0.094,72,138.0
2602,D4,321.75,0.094,72,138.0
2603,B-3,321.75,0.094,72,138.0
2604,B-5,322.0,0.25,81,138.0
2605,D5,322.0,0.25,81,138.0
2606,F5,322.0,0.25,81,138.0
2607,D6,322.0,0.25,81,138.0
2608,B-3,322.0,0.25,72,138.0
2609,D4,322.0,0.25,72,138.0
2610,F3,322.0,0.25,72,138.0
2611,B-5,322.5,0.25,74,138.0
2612,D5,322.5,0.25,74,138.0
2613,F5,322.5,0.25,74,138.0
2614,B-4,322.5,0.25,74,138.0
2615,D3,322.5,0.25,72,138.0
2616,F3,322.5,0.25,72,138.0
2617,B-3,322.5,0.25,72,138.0
2618,B-1,323.75,0.25,84,138.0
2619,F3,324.0,0.75,71,138.0
2620,D3,324.0,0.75,71,138.0
2621,B-3,324.0,0.75,71,138.0
2622,D4,324.0,0.75,71,138.0
2623,F5,324.75,0.235,81,138.0
2624,D6,324.75,0.235,81,138.0
2625,B-5,324.75,0.235,81,138.0
2626,D5,324.75,0.235,81,138.0
2627,F3,324.75,0.25,64,138.0
2628,D4,324.75,0.25,64,138.0
2629,D3,324.75,0.25,64,138.0
2630,B-3,324.75,0.25,64,138.0
2631,D6,325.0,0.5,99,138.0
2632,D3,325.0,0.5,89,138.0
2633,D4,325.0,0.5,89,138.0
2634,A5,325.5,0.094,74,138.0
2635,D5,325.5,0.094,74,138.0
2636,F#5,325.5,0.094,74,138.0
2637,D6,325.5,0.094,74,138.0
2638,D3,325.5,0.094,69,138.0
2639,D4,325.5,0.094,69,138.0
2640,F#3,325.5,0.094,69,138.0
2641,A3,325.5,0.094,69,138.0
2642,D6,325.75,0.094,75,138.0
2643,F#5,325.75,0.094,75,138.0
2644,D5,325.75,0.094,75,138.0
2645,A5,325.75,0.094,75,138.0
2646,D3,325.75,0.094,71,138.0
2647,A3,325.75,0.094,71,138.0
2648,F#3,325.75,0.094,71,138.0
2649,D4,325.75,0.094,71,138.0
2650,A5,326.0,0.25,81,138.0
2651,D6,326.0,0.25,81,138.0
2652,D5,326.0,0.25,81,138.0
2653,F#5,326.0,0.25,81,138.0
2654,F#3,326.0,0.25,71,138.0
2655,A3,326.0,0.25,71,138.0
2656,D3,326.0,0.25,71,138.0
2657,D4,326.0,0.25,71,138.0
2658,D6,326.5,0.25,74,138.0
2659,A5,326.5,0.25,74,138.0
2660,D5,326.5,0.25,74,138.0
2661,F#5,326.5,0.25,74,138.0
2662,D3,326.5,0.25,71,138.0
2663,D4,326.5,0.25,71,138.0
2664,F#3,326.5,0.25,71,138.0
2665,A3,326.5,0.25,71,138.0
2666,D3,327.75,0.25,39,138.0
2667,D4,328.0,0.75,45,138.0
2668,F#4,328.5,0.25,35,138.0
2669,D5,328.5,0.25,35,138.0
2670,A4,328.5,0.25,35,138.0
2671,D3,328.75,0.25,40,138.0
2672,D4,329.0,0.75,47,138.0
2673,F#4,329.5,0.25,37,138.0
2674,A4,329.5,0.25,37,138.0
2675,D5,329.5,0.25,37,138.0
2676,D3,329.75,0.25,42,138.0
2677,D4,330.0,0.75,49,138.0
2678,A4,330.5,0.25,39,138.0
2679,F#4,330.5,0.25,39,138.0
2680,D5,330.5,0.25,39,138.0
2681,D3,330.75,0.25,41,138.0
2682,D4,331.0,0.75,52,138.0
2683,F#4,331.5,0.25,41,138.0
2684,A4,331.5,0.25,41,138.0
2685,D5,331.5,0.25,41,138.0
2686,D3,331.75,0.25,44,138.0
2687,C4,332.0,0.75,55,138.0
2688,A3,332.0,0.75,55,138.0
2689,D5,332.5,0.25,43,138.0
2690,C5,332.5,0.25,43,138.0
2691,F#5,332.5,0.25,43,138.0
2692,A4,332.5,0.25,43,138.0
2693,D3,332.75,0.25,46,138.0
2694,C4,333.0,0.75,58,138.0
2695,A3,333.0,0.75,58,138.0
2696,A4,333.5,0.25,45,138.0
2697,F#5,333.5,0.25,45,138.0
2698,C5,333.5,0.25,45,138.0
2699,D5,333.5,0.25,45,138.0
2700,D3,333.75,0.25,50,138.0
2701,A3,334.0,0.75,60,138.0
2702,F#3,334.0,0.75,60,138.0
2703,A4,334.5,0.25,52,138.0
2704,C5,334.5,0.25,52,138.0
2705,A5,334.5,0.25,52,138.0
2706,F#5,334.5,0.25,52,138.0
2707,D3,334.75,0.25,52,138.0
2708,A2,335.0,0.75,63,138.0
2709,F#5,335.5,0.25,60,138.0
2710,C6,335.5,0.25,60,138.0
2711,C5,335.5,0.25,60,138.0
2712,A5,335.5,0.25,60,138.0
2713,D3,335.75,0.25,52,138.0
2714,A2,336.0,0.75,65,138.0
2715,C6,336.5,0.25,67,138.0
2716,F#5,336.5,0.25,67,138.0
2717,F#6,336.5,0.25,67,138.0
2718,A5,336.5,0.25,67,138.0
2719,D3,336.75,0.25,57,138.0
2720,G2,337.0,0.75,68,138.0
2721,C6,337.5,0.25,70,138.0
2722,A5,337.5,0.25,70,138.0
2723,A6,337.5,0.25,70,138.0
2724,D3,337.75,0.25,57,138.0
2725,F#2,338.0,0.75,71,138.0
2726,A6,338.5,0.25,73,138.0
2727,C6,338.5,0.25,73,138.0
2728,C7,338.5,0.25,73,138.0
2729,D3,338.75,0.25,59,138.0
2730,E-2,339.0,0.75,73,138.0
2731,C6,339.5,0.25,74,138.0
2732,C7,339.5,0.25,74,138.0
2733,F#6,339.5,0.25,74,138.0
2734,A6,339.5,0.25,74,138.0
2735,D3,339.75,0.25,67,138.0
2736,A6,340.0,0.25,74,138.0
2737,C7,340.0,0.25,74,138.0
2738,C6,340.0,0.25,74,138.0
2739,F#6,340.0,0.25,74,138.0
2740,D3,340.0,0.5,70,138.0
2741,D2,340.0,0.5,70,138.0
2742,E-5,340.5,0.25,48,138.0
2743,C6,340.5,0.25,57,138.0
2744,A5,340.5,0.25,57,138.0
2745,D5,340.75,0.25,48,138.0
2746,G#5,340.75,0.25,57,138.0
2747,B5,340.75,0.25,57,138.0
2748,E-5,341.0,0.5,54,138.0
2749,A5,341.0,0.5,63,138.0
2750,C6,341.0,0.5,63,138.0
2751,D5,341.5,0.25,44,138.0
2752,F#4,341.5,0.25,52,138.0
2753,A4,341.5,0.25,52,138.0
2754,C#5,341.75,0.25,44,138.0
2755,B-4,341.75,0.25,52,138.0
2756,G4,341.75,0.25,52,138.0
2757,D5,342.0,0.5,44,138.0
2758,A4,342.0,0.5,58,138.0
2759,F#4,342.0,0.5,58,138.0
2760,E-4,342.5,0.25,43,138.0
2761,C6,342.5,0.25,47,138.0
2762,A5,342.5,0.25,47,138.0
2763,D4,342.75,0.25,43,138.0
2764,G#5,342.75,0.25,47,138.0
2765,B5,342.75,0.25,47,138.0
2766,E-4,343.0,0.5,51,138.0
2767,A5,343.0,0.5,56,138.0
2768,C6,343.0,0.5,56,138.0
2769,F#6,343.5,0.25,47,138.0
2770,D4,343.5,0.25,43,138.0
2771,A6,343.75,0.25,47,138.0
2772,C#4,343.75,0.25,43,138.0
2773,C7,344.0,0.25,57,138.0
2774,D4,344.0,0.5,51,138.0
2775,D7,344.25,0.25,48,138.0
2776,C7,344.5,0.25,49,138.0
2777,B6,344.75,0.25,50,138.0
2778,D3,344.75,0.25,42,138.0
2779,C7,345.0,0.25,65,138.0
2780,F#3,345.0,0.5,51,138.0
2781,D7,345.25,0.25,57,138.0
2782,E7,345.5,0.25,66,138.0
2783,C7,345.75,0.25,58,138.0
2784,A3,345.75,0.25,40,138.0
2785,A6,346.0,0.25,69,138.0
2786,C4,346.0,0.5,51,138.0
2787,B6,346.25,0.25,56,138.0
2788,C7,346.5,0.25,66,138.0
2789,A6,346.75,0.25,54,138.0
2790,F#4,346.75,0.25,43,138.0
2791,F#6,347.0,0.25,66,138.0
2792,A4,347.0,0.5,51,138.0
2793,G6,347.25,0.25,53,138.0
2794,A6,347.5,0.25,61,138.0
2795,C5,347.5,0.25,45,138.0
2796,F#6,347.75,0.25,53,138.0
2797,A4,347.75,0.25,45,138.0
2798,C6,348.0,0.25,47,138.0
2799,A5,348.0,0.25,40,138.0
2800,D6,348.25,0.25,47,138.0
2801,B5,348.25,0.25,40,138.0
2802,E6,348.5,0.25,58,138.0
2803,C6,348.5,0.25,44,138.0
2804,C6,348.75,0.25,47,138.0
2805,A5,348.75,0.25,40,138.0
2806,A5,349.0,0.25,47,138.0
2807,C5,349.0,0.25,40,138.0
2808,B5,349.25,0.25,47,138.0
2809,D5,349.25,0.25,40,138.0
2810,C6,349.5,0.25,53,138.0
2811,E5,349.5,0.25,45,138.0
2812,A5,349.75,0.25,47,138.0
2813,C5,349.75,0.25,40,138.0
2814,F#5,350.0,0.25,47,138.0
2815,A4,350.0,0.25,40,138.0
2816,G5,350.25,0.25,47,138.0
2817,B4,350.25,0.25,40,138.0
2818,A5,350.5,0.25,52,138.0
2819,C5,350.5,0.25,45,138.0
2820,F#5,350.75,0.25,47,138.0
2821,A4,350.75,0.246,40,138.0
2822,F#4,351.0,0.25,40,138.0
2823,C5,351.0,0.5,47,138.0
2824,A4,351.0,0.5,47,138.0
2825,D5,351.0,0.5,47,138.0
2826,G4,351.25,0.25,40,138.0
2827,A4,351.5,0.25,45,138.0
2828,F#4,351.75,0.25,40,138.0
2829,B6,352.0,0.25,57,138.0
2830,G4,352.0,0.5,49,138.0
2831,B4,352.0,0.5,49,138.0
2832,D4,352.0,0.5,49,138.0
2833,C7,352.25,0.25,48,138.0
2834,B6,352.5,0.25,49,138.0
2835,A6,352.75,0.25,50,138.0
2836,D3,352.75,0.25,42,138.0
2837,B6,353.0,0.25,65,138.0
2838,G3,353.0,0.5,51,138.0
2839,C7,353.25,0.25,57,138.0
2840,D7,353.5,0.25,66,138.0
2841,B6,353.75,0.25,58,138.0
2842,B3,353.75,0.25,40,138.0
2843,G6,354.0,0.25,69,138.0
2844,D4,354.0,0.5,51,138.0
2845,A6,354.25,0.25,56,138.0
2846,B6,354.5,0.25,66,138.0
2847,G6,354.75,0.25,54,138.0
2848,G4,354.75,0.25,43,138.0
2849,D6,355.0,0.25,66,138.0
2850,B4,355.0,0.5,51,138.0
2851,F#6,355.25,0.25,53,138.0
2852,G6,355.5,0.25,61,138.0
2853,D6,355.75,0.25,53,138.0
2854,D5,355.75,0.25,45,138.0
2855,B5,356.0,0.25,47,138.0
2856,G5,356.0,0.25,40,138.0
2857,C6,356.25,0.25,47,138.0
2858,A5,356.25,0.25,40,138.0
2859,D6,356.5,0.25,58,138.0
2860,B5,356.5,0.25,44,138.0
2861,B5,356.75,0.25,47,138.0
2862,G5,356.75,0.246,40,138.0
2863,G5,357.0,0.25,47,138.0
2864,B4,357.0,0.25,40,138.0
2865,A5,357.25,0.25,47,138.0
2866,C5,357.25,0.25,40,138.0
2867,B5,357.5,0.25,53,138.0
2868,D5,357.5,0.25,45,138.0
2869,G5,357.75,0.25,47,138.0
2870,B4,357.75,0.25,40,138.0
2871,D5,358.0,0.25,47,138.0
2872,G4,358.0,0.25,40,138.0
2873,F#5,358.25,0.25,47,138.0
2874,A4,358.25,0.25,40,138.0
2875,G5,358.5,0.25,52,138.0
2876,B4,358.5,0.246,45,138.0
2877,B4,358.75,0.25,47,138.0
2878,G4,358.75,0.246,40,138.0
2879,G4,359.0,0.25,40,138.0
2880,B4,359.0,0.25,40,138.0
2881,A4,359.25,0.25,40,138.0
2882,C5,359.25,0.25,40,138.0
2883,B4,359.5,0.246,45,138.0
2884,D5,359.5,0.25,45,138.0
2885,G4,359.75,0.25,40,138.0
2886,B4,359.75,0.25,40,138.0
2887,C5,360.0,0.25,40,138.0
2888,F#4,360.0,0.5,42,138.0
2889,A4,360.0,0.5,42,138.0
2890,D4,360.0,0.5,42,138.0
2891,D5,360.25,0.25,40,138.0
2892,E6,360.5,0.25,52,138.0
2893,C5,360.5,0.25,45,138.0
2894,D6,360.75,0.25,47,138.0
2895,B4,360.75,0.25,40,138.0
2896,E6,361.0,0.25,40,138.0
2897,C5,361.0,0.25,40,138.0
2898,D6,361.25,0.25,40,138.0
2899,D5,361.25,0.25,40,138.0
2900,C6,361.5,0.25,45,138.0
2901,E5,361.5,0.25,45,138.0
2902,E6,361.75,0.25,40,138.0
2903,C5,361.75,0.25,40,138.0
2904,C6,362.0,0.25,52,138.0
2905,A4,362.0,0.25,46,138.0
2906,B5,362.25,0.25,42,138.0
2907,B4,362.25,0.25,38,138.0
2908,A5,362.5,0.25,49,138.0
2909,C5,362.5,0.25,45,138.0
2910,C6,362.75,0.25,43,138.0
2911,A4,362.75,0.25,40,138.0
2912,A5,363.0,0.25,48,138.0
2913,F#4,363.0,0.25,45,138.0
2914,G5,363.25,0.25,40,138.0
2915,G4,363.25,0.25,36,138.0
2916,F#5,363.5,0.25,45,138.0
2917,A4,363.5,0.25,41,138.0
2918,A5,363.75,0.25,40,138.0
2919,F#4,363.75,0.25,36,138.0
2920,E5,364.0,0.25,52,138.0
2921,C4,364.0,0.25,46,138.0
2922,D5,364.25,0.25,42,138.0
2923,D4,364.25,0.25,38,138.0
2924,C5,364.5,0.25,49,138.0
2925,E4,364.5,0.25,45,138.0
2926,E5,364.75,0.25,43,138.0
2927,C4,364.75,0.25,40,138.0
2928,C5,365.0,0.25,48,138.0
2929,A3,365.0,0.25,45,138.0
2930,B4,365.25,0.25,40,138.0
2931,B3,365.25,0.25,36,138.0
2932,A4,365.5,0.25,45,138.0
2933,C4,365.5,0.25,41,138.0
2934,C5,365.75,0.25,40,138.0
2935,A3,365.75,0.25,36,138.0
2936,A4,366.0,0.25,52,138.0
2937,F#3,366.0,0.25,46,138.0
2938,G4,366.25,0.25,42,138.0
2939,G3,366.25,0.25,38,138.0
2940,F#4,366.5,0.25,49,138.0
2941,A3,366.5,0.25,45,138.0
2942,A4,366.75,0.25,43,138.0
2943,F#3,366.75,0.25,40,138.0
2944,C5,367.0,0.25,48,138.0
2945,A4,367.0,0.25,45,138.0
2946,B4,367.25,0.25,40,138.0
2947,G4,367.25,0.25,36,138.0
2948,A4,367.5,0.25,45,138.0
2949,F#4,367.5,0.25,41,138.0
2950,C5,367.75,0.25,40,138.0
2951,A4,367.75,0.25,36,138.0
2952,B4,368.0,0.25,40,138.0
2953,D4,368.0,0.5,43,138.0
2954,G4,368.0,0.5,43,138.0
2955,C5,368.25,0.25,40,138.0
2956,D7,368.5,0.25,52,138.0
2957,B4,368.5,0.25,45,138.0
2958,C7,368.75,0.25,47,138.0
2959,A4,368.75,0.25,40,138.0
2960,D7,369.0,0.25,40,138.0
2961,B4,369.0,0.25,40,138.0
2962,C7,369.25,0.25,40,138.0
2963,C5,369.25,0.25,40,138.0
2964,B6,369.5,0.25,45,138.0
2965,D5,369.5,0.25,45,138.0
2966,D7,369.75,0.25,40,138.0
2967,B4,369.75,0.25,40,138.0
2968,B6,370.0,0.25,52,138.0
2969,G4,370.0,0.25,46,138.0
2970,A6,370.25,0.25,42,138.0
2971,A4,370.25,0.25,38,138.0
2972,G6,370.5,0.25,49,138.0
2973,B4,370.5,0.25,45,138.0
2974,B6,370.75,0.25,43,138.0
2975,G4,370.75,0.25,40,138.0
2976,B5,371.0,0.25,48,138.0
2977,D4,371.0,0.25,45,138.0
2978,A5,371.25,0.25,40,138.0
2979,F#4,371.25,0.25,36,138.0
2980,G5,371.5,0.25,45,138.0
2981,G4,371.5,0.25,41,138.0
2982,B5,371.75,0.25,40,138.0
2983,D4,371.75,0.25,36,138.0
2984,D5,372.0,0.25,52,138.0
2985,B3,372.0,0.25,46,138.0
2986,C5,372.25,0.25,42,138.0
2987,C4,372.25,0.25,38,138.0
2988,B4,372.5,0.25,49,138.0
2989,D4,372.5,0.25,45,138.0
2990,D5,372.75,0.25,43,138.0
2991,B3,372.75,0.25,40,138.0
2992,B5,373.0,0.25,48,138.0
2993,G3,373.0,0.25,45,138.0
2994,A5,373.25,0.25,40,138.0
2995,A3,373.25,0.25,36,138.0
2996,G5,373.5,0.25,45,138.0
2997,B3,373.5,0.25,41,138.0
2998,B5,373.75,0.25,40,138.0
2999,G3,373.75,0.25,36,138.0
3000,D6,374.0,0.25,62,138.0
3001,D3,374.0,0.25,46,138.0
3002,C6,374.25,0.25,51,138.0
3003,F#3,374.25,0.25,38,138.0
3004,B5,374.5,0.25,61,138.0
3005,G3,374.5,0.25,45,138.0
3006,C6,374.75,0.25,52,138.0
3007,D3,374.75,0.25,40,138.0
3008,E6,375.0,0.5,62,138.0
3009,C3,375.0,0.25,45,138.0
3010,G3,375.25,0.25,36,138.0
3011,D3,375.5,0.25,41,138.0
3012,D6,375.5,0.5,51,138.0
3013,A5,375.5,0.5,51,138.0
3014,F#6,375.5,0.5,51,138.0
3015,C3,375.75,0.25,36,138.0
3016,B2,376.0,0.5,36,138.0
3017,G5,376.0,0.5,51,138.0
3018,G6,376.0,0.5,51,138.0
3019,D6,376.0,0.5,51,138.0
3020,G2,376.5,0.5,37,138.0
3021,G3,376.5,0.5,37,138.0
3022,E3,377.0,0.25,33,138.0
3023,C3,377.0,0.25,33,138.0
3024,C4,377.5,0.25,40,138.0
3025,A3,377.75,0.25,36,138.0
3026,F#3,378.0,0.5,36,138.0
3027,A4,378.5,0.5,37,138.0
3028,F#4,378.5,0.5,37,138.0
3029,D3,378.5,0.5,34,138.0
3030,D4,378.5,0.5,34,138.0
3031,G4,379.0,0.25,35,138.0
3032,B4,379.0,0.25,35,138.0
3033,G3,379.0,0.25,33,138.0
3034,B3,379.0,0.25,33,138.0
3035,G6,379.5,0.25,43,138.0
3036,B5,379.5,0.25,43,138.0
3037,E4,379.5,1.0,33,138.0
3038,G3,379.5,1.0,33,138.0
3039,F#6,379.75,0.25,40,138.0
3040,A5,379.75,0.25,40,138.0
3041,B5,380.0,0.5,43,138.0
3042,G6,380.0,0.5,43,138.0
3043,G5,380.5,0.5,35,138.0
3044,B5,380.5,0.5,35,138.0
3045,E6,380.5,0.5,35,138.0
3046,G3,380.5,0.5,33,138.0
3047,E4,380.5,0.5,33,138.0
3048,A5,381.0,0.5,37,138.0
3049,D6,381.0,0.5,37,138.0
3050,F#5,381.0,0.5,37,138.0
3051,F#4,381.0,0.5,37,138.0
3052,A3,381.0,0.5,37,138.0
3053,G4,381.5,0.25,30,138.0
3054,A3,381.5,0.5,25,138.0
3055,G5,381.5,0.5,33,138.0
3056,E5,381.5,0.5,33,138.0
3057,C#6,381.5,0.5,33,138.0
3058,A4,381.75,0.25,36,138.0
3059,D4,382.0,1.5,30,138.0
3060,A4,382.0,0.5,36,138.0
3061,E6,382.0,0.5,42,138.0
3062,G5,382.0,0.5,42,138.0
3063,B4,382.5,0.375,36,138.0
3064,D6,382.5,0.496,33,138.0
3065,F#5,382.5,0.496,33,138.0
3066,C#5,382.875,0.125,31,138.0
3067,D5,383.0,0.5,36,138.0
3068,F#5,383.0,0.5,33,138.0
3069,D6,383.0,0.5,33,138.0
3070,E5,383.5,0.25,37,138.0
3071,G5,383.5,0.25,42,138.0
3072,D6,383.5,0.25,42,138.0
3073,F#5,383.75,0.25,36,138.0
3074,A5,383.75,0.25,37,138.0
3075,C6,383.75,0.25,37,138.0
3076,B5,384.0,0.5,46,138.0
3077,G5,384.0,0.5,36,138.0
3078,G6,384.5,0.25,51,138.0
3079,G5,384.5,0.75,43,138.0
3080,B4,384.5,0.5,33,138.0
3081,D5,384.5,0.5,33,138.0
3082,E6,385.0,0.25,46,138.0
3083,E5,385.0,0.25,33,138.0
3084,C5,385.0,0.25,33,138.0
3085,A4,385.5,0.25,36,138.0
3086,C7,385.5,0.25,47,138.0
3087,C6,385.5,0.25,47,138.0
3088,C5,385.75,0.25,32,138.0
3089,E6,385.75,0.25,40,138.0
3090,A6,385.75,0.25,40,138.0
3091,F#6,386.0,0.5,51,138.0
3092,D5,386.0,0.5,36,138.0
3093,D6,386.5,0.75,47,138.0
3094,D7,386.5,0.5,56,138.0
3095,A4,386.5,0.5,33,138.0
3096,F#4,386.5,0.5,33,138.0
3097,B6,387.0,0.25,53,138.0
3098,G4,387.0,0.25,34,138.0
3099,B4,387.0,0.25,34,138.0
3100,G6,387.5,0.25,52,138.0
3101,F#6,387.75,0.25,45,138.0
3102,G6,388.0,0.5,52,138.0
3103,E4,388.0,0.5,32,138.0
3104,G4,388.0,0.5,32,138.0
3105,B4,388.0,0.5,32,138.0
3106,E6,388.5,0.5,47,138.0
3107,E4,388.5,0.5,32,138.0
3108,C5,388.5,0.5,32,138.0
3109,G4,388.5,0.5,32,138.0
3110,C6,389.0,0.5,51,138.0
3111,G4,389.0,0.25,36,138.0
3112,E4,389.0,0.5,33,138.0
3113,C5,389.0,0.5,33,138.0
3114,A4,389.25,0.25,30,138.0
3115,F#5,389.5,0.5,40,138.0
3116,B5,389.5,0.5,40,138.0
3117,E-4,389.5,0.5,32,138.0
3118,F#4,389.5,0.5,32,138.0
3119,B4,389.5,0.5,32,138.0
3120,F#5,390.0,0.5,44,138.0
3121,B5,390.0,1.5,44,138.0
3122,F#4,390.0,0.5,32,138.0
3123,B4,390.0,0.5,32,138.0
3124,E-4,390.0,0.5,32,138.0
3125,A5,390.5,0.25,50,138.0
3126,E-4,390.5,0.5,28,138.0
3127,B3,390.5,0.5,28,138.0
3128,G5,390.75,0.246,44,138.0
3129,G5,391.0,0.5,49,138.0
3130,G4,391.0,0.5,33,138.0
3131,E4,391.0,0.5,33,138.0
3132,G5,391.5,1.0,46,138.0
3133,B-5,391.5,0.5,50,138.0
3134,E6,391.5,0.5,50,138.0
3135,F4,391.5,0.25,37,138.0
3136,D4,391.5,0.25,37,138.0
3137,E4,391.75,0.248,33,138.0
3138,C#4,391.75,0.248,33,138.0
3139,A5,392.0,1.5,44,138.0
3140,E4,392.0,0.5,33,138.0
3141,C#4,392.0,0.5,33,138.0
3142,G5,392.5,0.25,50,138.0
3143,C#4,392.5,0.5,28,138.0
3144,A3,392.5,0.5,28,138.0
3145,F5,392.75,0.25,44,138.0
3146,F5,393.0,0.5,49,138.0
3147,F4,393.0,0.5,33,138.0
3148,D4,393.0,0.5,33,138.0
3149,F5,393.5,1.0,55,138.0
3150,D6,393.5,0.5,55,138.0
3151,G#5,393.5,0.5,55,138.0
3152,E-4,393.5,0.25,37,138.0
3153,C4,393.5,0.25,37,138.0
3154,D4,393.75,0.25,33,138.0
3155,B3,393.75,0.25,33,138.0
3156,G5,394.0,1.5,44,138.0
3157,B3,394.0,0.5,33,138.0
3158,D4,394.0,0.5,33,138.0
3159,F5,394.5,0.25,50,138.0
3160,G3,394.5,0.5,28,138.0
3161,B3,394.5,0.5,28,138.0
3162,E5,394.75,0.246,44,138.0
3163,E5,395.0,0.5,49,138.0
3164,C4,395.0,0.5,33,138.0
3165,E4,395.0,0.5,33,138.0
3166,E5,395.5,1.0,46,138.0
3167,G5,395.5,0.5,50,138.0
3168,C#6,395.5,0.5,50,138.0
3169,B3,395.5,0.25,37,138.0
3170,E-4,395.5,0.25,37,138.0
3171,B-3,395.75,0.248,33,138.0
3172,C#4,395.75,0.248,33,138.0
3173,F#5,396.0,1.5,44,138.0
3174,B-3,396.0,0.5,33,138.0
3175,C#4,396.0,0.5,33,138.0
3176,E5,396.5,0.25,50,138.0
3177,F#3,396.5,0.5,28,138.0
3178,B-3,396.5,0.5,28,138.0
3179,E-5,396.75,0.25,44,138.0
3180,D5,397.0,0.5,49,138.0
3181,B3,397.0,0.5,33,138.0
3182,D4,397.0,0.5,33,138.0
3183,F5,397.5,0.5,49,138.0
3184,B5,397.5,0.5,49,138.0
3185,D5,397.5,0.5,49,138.0
3186,A3,397.5,0.25,37,138.0
3187,C#4,397.5,0.25,37,138.0
3188,B3,397.75,0.248,33,138.0
3189,G#3,397.75,0.248,33,138.0
3190,F5,398.0,0.25,55,138.0
3191,D5,398.0,0.5,46,138.0
3192,B3,398.0,0.5,33,138.0
3193,G#3,398.0,0.5,33,138.0
3194,E5,398.25,0.5,46,138.0
3195,C#5,398.5,0.5,46,138.0
3196,A3,398.5,0.25,36,138.0
3197,E4,398.5,0.5,30,138.0
3198,A5,398.75,0.25,48,138.0
3199,G3,398.75,0.25,30,138.0
3200,E-5,399.0,0.25,55,138.0
3201,C5,399.0,0.5,46,138.0
3202,A3,399.0,0.5,33,138.0
3203,F#3,399.0,0.5,33,138.0
3204,D5,399.25,0.5,47,138.0
3205,B4,399.5,0.5,46,138.0
3206,G3,399.5,0.25,36,138.0
3207,B3,399.5,0.5,30,138.0
3208,G5,399.75,0.25,49,138.0
3209,B2,399.75,0.25,32,138.0
3210,D5,400.0,0.25,56,138.0
3211,A2,400.0,3.0,27,138.0
3212,D3,400.0,3.0,27,138.0
3213,C4,400.0,3.0,27,138.0
3214,D6,400.25,0.25,44,138.0
3215,C#6,400.5,0.25,45,138.0
3216,C6,400.75,0.25,46,138.0
3217,A5,401.0,0.25,47,138.0
3218,F#5,401.25,0.25,47,138.0
3219,E-5,401.5,0.25,48,138.0
3220,D5,401.75,0.25,49,138.0
3221,C#5,402.0,0.25,50,138.0
3222,C5,402.25,0.25,51,138.0
3223,A4,402.5,0.25,52,138.0
3224,F#4,402.75,0.25,53,138.0
3225,G4,403.0,0.5,51,138.0
3226,E-4,403.0,0.25,61,138.0
3227,B3,403.0,1.0,27,138.0
3228,B2,403.0,1.0,27,138.0
3229,D3,403.0,1.0,27,138.0
3230,D4,403.25,0.25,47,138.0
3231,G4,403.5,0.5,49,138.0
3232,E5,403.5,0.25,58,138.0
3233,D5,403.75,0.25,47,138.0
3234,D5,404.0,0.25,56,138.0
3235,A2,404.0,3.0,27,138.0
3236,C4,404.0,3.0,27,138.0
3237,D3,404.0,3.0,27,138.0
3238,D6,404.25,0.25,44,138.0
3239,C#6,404.5,0.25,45,138.0
3240,C6,404.75,0.25,46,138.0
3241,A5,405.0,0.25,47,138.0
3242,F#5,405.25,0.25,47,138.0
3243,E-5,405.5,0.25,48,138.0
3244,D5,405.75,0.25,49,138.0
3245,C#5,406.0,0.25,50,138.0
3246,C5,406.25,0.25,51,138.0
3247,A4,406.5,0.25,52,138.0
3248,F#4,406.75,0.25,53,138.0
3249,G4,407.0,0.5,51,138.0
3250,E-4,407.0,0.25,61,138.0
3251,B2,407.0,1.0,27,138.0
3252,B3,407.0,1.0,27,138.0
3253,D3,407.0,1.0,27,138.0
3254,D4,407.25,0.25,47,138.0
3255,G4,407.5,0.5,49,138.0
3256,E5,407.5,0.25,58,138.0
3257,D5,407.75,0.25,47,138.0
3258,D5,408.0,0.25,52,138.0
3259,B1,408.0,1.0,28,138.0
3260,B2,408.0,1.0,28,138.0
3261,B4,408.25,0.25,50,138.0
3262,G5,408.25,0.25,50,138.0
3263,B5,408.5,0.25,54,138.0
3264,D5,408.5,0.25,54,138.0
3265,C5,408.75,0.25,48,138.0
3266,A5,408.75,0.25,48,138.0
3267,B4,409.0,0.25,58,138.0
3268,G5,409.0,2.0,58,138.0
3269,E3,409.0,1.0,26,138.0
3270,E2,409.0,1.0,26,138.0
3271,E-5,409.25,0.25,50,138.0
3272,E5,409.5,0.25,55,138.0
3273,B4,409.75,0.25,50,138.0
3274,B-4,410.0,0.25,54,138.0
3275,C#2,410.0,1.0,28,138.0
3276,C#3,410.0,1.0,28,138.0
3277,E-5,410.25,0.25,58,138.0
3278,E5,410.5,0.25,58,138.0
3279,B-4,410.75,0.25,53,138.0
3280,A4,411.0,0.25,56,138.0
3281,D3,411.0,0.5,26,138.0
3282,D2,411.0,0.5,26,138.0
3283,C#5,411.25,0.25,50,138.0
3284,D5,411.5,0.25,60,138.0
3285,D6,411.75,0.25,54,138.0
3286,D6,412.0,0.25,61,138.0
3287,D4,412.0,3.0,27,138.0
3288,C5,412.0,3.0,27,138.0
3289,A3,412.0,3.0,27,138.0
3290,D7,412.25,0.25,48,138.0
3291,C#7,412.5,0.25,49,138.0
3292,C7,412.75,0.25,50,138.0
3293,A6,413.0,0.25,51,138.0
3294,F#6,413.25,0.25,51,138.0
3295,E-6,413.5,0.25,52,138.0
3296,D6,413.75,0.25,53,138.0
3297,C#6,414.0,0.25,55,138.0
3298,C6,414.25,0.25,56,138.0
3299,A5,414.5,0.25,64,138.0
3300,F#5,414.75,0.25,67,138.0
3301,E-5,415.0,0.25,72,138.0
3302,G5,415.0,0.5,60,138.0
3303,B4,415.0,1.0,27,138.0
3304,B3,415.0,1.0,27,138.0
3305,D4,415.0,1.0,27,138.0
3306,D5,415.25,0.25,51,138.0
3307,G5,415.5,0.5,53,138.0
3308,E6,415.5,0.25,63,138.0
3309,D6,415.75,0.25,51,138.0
3310,D6,416.0,0.25,61,138.0
3311,A2,416.0,3.0,27,138.0
3312,D3,416.0,3.0,27,138.0
3313,C4,416.0,3.0,27,138.0
3314,D7,416.25,0.25,48,138.0
3315,C#7,416.5,0.25,49,138.0
3316,C7,416.75,0.25,50,138.0
3317,A6,417.0,0.25,51,138.0
3318,F#6,417.25,0.25,51,138.0
3319,E-6,417.5,0.25,52,138.0
3320,D6,417.75,0.25,53,138.0
3321,C#6,418.0,0.25,57,138.0
3322,C6,418.25,0.25,53,138.0
3323,A5,418.5,0.25,61,138.0
3324,F#5,418.75,0.25,63,138.0
3325,E-5,419.0,0.25,67,138.0
3326,G5,419.0,0.5,54,138.0
3327,D3,419.0,0.5,27,138.0
3328,B2,419.0,0.5,27,138.0
3329,B3,419.0,0.5,27,138.0
3330,D5,419.25,0.25,51,138.0
3331,E6,419.5,0.25,63,138.0
3332,G5,419.5,0.5,53,138.0
3333,B3,419.5,0.496,30,138.0
3334,D6,419.75,0.25,51,138.0
3335,D6,420.0,0.25,56,138.0
3336,B3,420.0,1.0,30,138.0
3337,G5,420.25,0.25,50,138.0
3338,B4,420.25,0.25,50,138.0
3339,D5,420.5,0.25,54,138.0
3340,B5,420.5,0.25,54,138.0
3341,C5,420.75,0.25,48,138.0
3342,A5,420.75,0.25,48,138.0
3343,G5,421.0,2.0,58,138.0
3344,B4,421.0,0.25,58,138.0
3345,E4,421.0,1.0,28,138.0
3346,E-5,421.25,0.25,50,138.0
3347,E5,421.5,0.25,55,138.0
3348,B4,421.75,0.25,50,138.0
3349,B-4,422.0,0.25,54,138.0
3350,C#4,422.0,1.0,30,138.0
3351,E-5,422.25,0.25,58,138.0
3352,E5,422.5,0.25,58,138.0
3353,B-4,422.75,0.25,53,138.0
3354,F#5,423.0,0.5,54,138.0
3355,A4,423.0,0.25,56,138.0
3356,D4,423.0,0.5,29,138.0
3357,D5,423.25,0.25,50,138.0
3358,G5,423.5,0.5,54,138.0
3359,G4,423.5,0.25,60,138.0
3360,E-4,423.5,0.5,29,138.0
3361,C5,423.75,0.25,50,138.0
3362,G5,424.0,0.25,54,138.0
3363,E4,424.0,1.0,31,138.0
3364,E5,424.25,0.25,52,138.0
3365,C6,424.25,0.25,52,138.0
3366,G5,424.5,0.25,57,138.0
3367,E6,424.5,0.25,57,138.0
3368,D6,424.75,0.25,52,138.0
3369,F5,424.75,0.25,52,138.0
3370,C6,425.0,2.0,63,138.0
3371,E5,425.0,0.25,63,138.0
3372,A4,425.0,1.0,30,138.0
3373,G#5,425.25,0.25,55,138.0
3374,A5,425.5,0.25,61,138.0
3375,E-5,425.75,0.25,56,138.0
3376,E-5,426.0,0.25,61,138.0
3377,F#4,426.0,1.0,33,138.0
3378,G#5,426.25,0.25,66,138.0
3379,A5,426.5,0.25,66,138.0
3380,E-5,426.75,0.25,62,138.0
3381,B5,427.0,0.5,63,138.0
3382,D5,427.0,0.25,66,138.0
3383,G4,427.0,0.5,34,138.0
3384,G5,427.25,0.25,59,138.0
3385,C5,427.5,0.25,72,138.0
3386,C6,427.5,0.5,64,138.0
3387,G#4,427.5,0.5,34,138.0
3388,F5,427.75,0.25,60,138.0
3389,C6,428.0,0.25,63,138.0
3390,A4,428.0,1.0,36,138.0
3391,A5,428.25,0.25,60,138.0
3392,F6,428.25,0.25,60,138.0
3393,A6,428.5,0.25,66,138.0
3394,C6,428.5,0.25,66,138.0
3395,G6,428.75,0.25,60,138.0
3396,B-5,428.75,0.25,60,138.0
3397,F6,429.0,2.0,73,138.0
3398,G#5,429.0,0.25,73,138.0
3399,C#5,429.0,1.0,35,138.0
3400,F5,429.25,0.25,63,138.0
3401,G#5,429.5,0.25,70,138.0
3402,G5,429.75,0.25,65,138.0
3403,G#5,430.0,0.25,70,138.0
3404,B4,430.0,1.0,39,138.0
3405,C#6,430.25,0.25,73,138.0
3406,D6,430.5,0.25,77,138.0
3407,G#5,430.75,0.25,71,138.0
3408,G5,431.0,0.25,75,138.0
3409,E6,431.0,1.5,78,138.0
3410,C4,431.0,1.5,39,138.0
3411,C5,431.0,1.5,39,138.0
3412,B5,431.25,0.25,68,138.0
3413,C6,431.5,0.25,82,138.0
3414,G5,431.75,0.25,69,138.0
3415,C6,432.0,0.5,74,138.0
3416,E5,432.5,0.5,82,138.0
3417,C6,432.5,0.5,82,138.0
3418,G5,432.5,0.5,82,138.0
3419,E6,432.5,0.5,82,138.0
3420,C3,432.5,0.5,61,138.0
3421,C2,432.5,0.5,61,138.0
3422,B5,433.0,0.5,81,138.0
3423,D6,433.0,0.5,81,138.0
3424,C6,433.5,0.25,80,138.0
3425,E6,433.5,0.25,80,138.0
3426,F6,433.75,0.25,85,138.0
3427,D6,433.75,0.25,85,138.0
3428,G6,434.0,0.25,88,138.0
3429,E6,434.0,0.25,88,138.0
3430,C6,434.5,0.25,84,138.0
3431,E6,434.5,0.25,84,138.0
3432,C4,434.5,0.25,76,138.0
3433,E4,434.5,0.25,76,138.0
3434,B3,435.0,0.5,73,138.0
3435,D4,435.0,0.5,73,138.0
3436,C4,435.5,0.25,74,138.0
3437,E4,435.5,0.25,74,138.0
3438,D4,435.75,0.25,78,138.0
3439,F4,435.75,0.25,78,138.0
3440,E4,436.0,0.25,81,138.0
3441,G4,436.0,0.25,81,138.0
3442,E6,436.5,0.5,82,138.0
3443,G5,436.5,0.5,82,138.0
3444,C6,436.5,0.5,82,138.0
3445,E5,436.5,0.5,82,138.0
3446,C2,436.5,0.5,61,138.0
3447,C3,436.5,0.5,61,138.0
3448,B5,437.0,0.5,81,138.0
3449,D6,437.0,0.5,81,138.0
3450,E6,437.5,0.25,80,138.0
3451,C6,437.5,0.25,80,138.0
3452,D6,437.75,0.25,85,138.0
3453,F6,437.75,0.25,85,138.0
3454,G6,438.0,0.25,88,138.0
3455,E6,438.0,0.25,88,138.0
3456,G6,438.5,0.5,90,138.0
3457,E6,438.5,0.5,90,138.0
3458,A5,438.5,0.5,90,138.0
3459,G5,438.5,0.5,90,138.0
3460,C#2,438.5,0.5,68,138.0
3461,C#3,438.5,0.5,68,138.0
3462,C#6,439.5,0.5,90,138.0
3463,E6,439.5,0.5,90,138.0
3464,G6,439.5,0.5,90,138.0
3465,G5,439.5,0.5,90,138.0
3466,A2,439.5,0.5,73,138.0
3467,A1,439.5,0.5,73,138.0
3468,G6,440.5,0.5,90,138.0
3469,B5,440.5,0.5,90,138.0
3470,D6,440.5,0.5,90,138.0
3471,G5,440.5,0.5,90,138.0
3472,D2,440.5,0.5,68,138.0
3473,D3,440.5,0.5,68,138.0
3474,G5,441.5,0.5,90,138.0
3475,C#6,441.5,0.5,90,138.0
3476,A5,441.5,0.5,90,138.0
3477,G6,441.5,0.5,90,138.0
3478,E2,441.5,0.5,73,138.0
3479,E3,441.5,0.5,73,138.0
3480,D2,442.0,0.25,50,138.0
3481,G6,442.0,1.0,68,138.0
3482,G5,442.0,1.0,68,138.0
3483,B5,442.0,1.0,68,138.0
3484,D6,442.0,1.0,68,138.0
3485,F#2,442.25,0.25,50,138.0
3486,G2,442.5,0.25,50,138.0
3487,B2,442.75,0.25,50,138.0
3488,D3,443.0,0.25,50,138.0
3489,D6,443.0,1.5,57,138.0
3490,G5,443.0,1.5,57,138.0
3491,B5,443.0,1.5,57,138.0
3492,F#3,443.25,0.25,50,138.0
3493,G3,443.5,0.25,50,138.0
3494,B3,443.75,0.25,50,138.0
3495,D4,444.0,0.25,50,138.0
3496,F#4,444.25,0.25,50,138.0
3497,G4,444.5,0.25,50,138.0
3498,D5,444.5,0.5,56,138.0
3499,G5,444.5,0.5,56,138.0
3500,B5,444.5,0.5,56,138.0
3501,B4,444.75,0.25,50,138.0
3502,D5,445.0,0.25,56,138.0
3503,F#5,445.25,0.25,57,138.0
3504,G5,445.5,0.25,58,138.0
3505,G4,445.5,0.25,43,138.0
3506,B5,445.75,0.25,59,138.0
3507,B4,445.75,0.25,44,138.0
3508,C#6,446.0,0.25,60,138.0
3509,C#5,446.0,0.25,45,138.0
3510,D6,446.25,0.25,61,138.0
3511,D5,446.25,0.25,46,138.0
3512,E6,446.5,0.25,62,138.0
3513,E5,446.5,0.25,47,138.0
3514,D6,446.75,0.25,62,138.0
3515,D5,446.75,0.25,48,138.0
3516,F#6,447.0,0.25,63,138.0
3517,F#5,447.0,0.25,50,138.0
3518,G6,447.25,0.25,64,138.0
3519,G5,447.25,0.25,51,138.0
3520,A6,447.5,0.25,65,138.0
3521,A5,447.5,0.25,52,138.0
3522,G6,447.75,0.25,66,138.0
3523,G5,447.75,0.25,53,138.0
3524,B-6,448.0,0.25,67,138.0
3525,B-5,448.0,0.25,54,138.0
3526,B6,448.25,0.25,68,138.0
3527,B5,448.25,0.25,55,138.0
3528,C7,448.5,0.25,69,138.0
3529,C6,448.5,0.25,56,138.0
3530,B6,448.75,0.25,70,138.0
3531,B5,448.75,0.25,58,138.0
3532,D7,449.0,0.5,71,138.0
3533,D6,449.0,0.5,59,138.0
3534,D4,449.5,0.167,60,138.0
3535,A5,449.5,0.5,63,138.0
3536,D5,449.5,0.5,63,138.0
3537,C6,449.5,0.5,63,138.0
3538,E4,449.667,0.167,63,138.0
3539,F#4,449.833,0.167,66,138.0
3540,G3,450.0,0.333,40,138.0
3541,B5,450.0,2.0,52,138.0
3542,G5,450.0,2.0,52,138.0
3543,D5,450.0,2.0,52,138.0
3544,B4,450.333,0.333,32,138.0
3545,G4,450.667,0.333,32,138.0
3546,F#4,451.0,0.333,40,138.0
3547,B4,451.333,0.333,33,138.0
3548,G4,451.667,0.333,33,138.0
3549,E-4,452.0,0.333,40,138.0
3550,C6,452.0,1.0,52,138.0
3551,G5,452.0,1.0,52,138.0
3552,C5,452.333,0.333,31,138.0
3553,G4,452.667,0.333,31,138.0
3554,C4,453.0,0.333,40,138.0
3555,C6,453.0,1.0,54,138.0
3556,G5,453.0,1.0,54,138.0
3557,E-6,453.0,1.0,54,138.0
3558,C5,453.333,0.333,33,138.0
3559,G4,453.667,0.333,33,138.0
3560,D6,454.0,1.0,67,138.0
3561,B3,454.0,0.333,40,138.0
3562,G6,454.0,2.0,56,138.0
3563,G5,454.0,2.0,56,138.0
3564,B4,454.333,0.333,31,138.0
3565,G4,454.667,0.333,31,138.0
3566,B5,455.0,1.0,61,138.0
3567,G3,455.0,0.333,40,138.0
3568,B4,455.333,0.333,32,138.0
3569,G4,455.667,0.333,32,138.0
3570,C4,456.0,0.333,40,138.0
3571,C6,456.0,1.0,54,138.0
3572,G5,456.0,1.0,54,138.0
3573,E-6,456.0,1.0,54,138.0
3574,C5,456.333,0.333,33,138.0
3575,G4,456.667,0.333,33,138.0
3576,E-4,457.0,0.333,40,138.0
3577,G5,457.0,1.0,58,138.0
3578,C6,457.0,1.0,58,138.0
3579,C5,457.333,0.333,32,138.0
3580,G4,457.667,0.333,32,138.0
3581,B-5,458.0,1.0,66,138.0
3582,G5,458.0,2.0,56,138.0
3583,D4,458.0,0.333,40,138.0
3584,B-4,458.333,0.333,32,138.0
3585,G4,458.667,0.333,32,138.0
3586,B5,459.0,1.0,59,138.0
3587,D4,459.0,0.333,40,138.0
3588,B4,459.333,0.333,36,138.0
3589,G4,459.667,0.333,36,138.0
3590,D4,460.0,0.333,40,138.0
3591,F#5,460.0,1.0,59,138.0
3592,D6,460.0,1.0,59,138.0
3593,C5,460.333,0.333,33,138.0
3594,A4,460.667,0.333,33,138.0
3595,D3,461.0,0.333,40,138.0
3596,C6,461.0,0.75,58,138.0
3597,A5,461.0,0.75,58,138.0
3598,D4,461.333,0.333,34,138.0
3599,D5,461.5,0.5,52,138.0
3600,C4,461.667,0.333,34,138.0
3601,F#5,461.75,0.25,52,138.0
3602,A5,461.75,0.25,52,138.0
3603,G5,462.0,0.169,49,138.0
3604,D5,462.0,0.5,49,138.0
3605,B5,462.0,2.0,58,138.0
3606,G2,462.0,0.25,40,138.0
3607,A5,462.169,0.167,42,138.0
3608,G3,462.25,0.25,33,138.0
3609,G5,462.335,0.169,49,138.0
3610,B3,462.5,0.25,33,138.0
3611,A5,462.502,0.169,44,138.0
3612,G5,462.671,0.167,49,138.0
3613,G3,462.75,0.25,33,138.0
3614,A5,462.837,0.169,44,138.0
3615,G5,463.0,0.169,50,138.0
3616,F#3,463.0,0.25,41,138.0
3617,A5,463.169,0.167,44,138.0
3618,G3,463.25,0.25,35,138.0
3619,G5,463.335,0.169,50,138.0
3620,G4,463.5,0.25,35,138.0
3621,A5,463.502,0.169,46,138.0
3622,G5,463.671,0.167,51,138.0
3623,G3,463.75,0.25,35,138.0
3624,A5,463.837,0.169,45,138.0
3625,C6,464.0,1.0,67,138.0
3626,G5,464.0,0.169,51,138.0
3627,E3,464.0,0.25,42,138.0
3628,A5,464.169,0.167,44,138.0
3629,G3,464.25,0.25,36,138.0
3630,G5,464.335,0.169,52,138.0
3631,G4,464.5,0.25,36,138.0
3632,A5,464.502,0.169,47,138.0
3633,G5,464.671,0.167,52,138.0
3634,G3,464.75,0.25,37,138.0
3635,A5,464.837,0.169,47,138.0
3636,G5,465.0,0.169,53,138.0
3637,E6,465.0,1.0,73,138.0
3638,C3,465.0,0.25,44,138.0
3639,A5,465.169,0.167,47,138.0
3640,G3,465.25,0.25,37,138.0
3641,G5,465.335,0.169,54,138.0
3642,E4,465.5,0.25,37,138.0
3643,A5,465.502,0.169,48,138.0
3644,G5,465.671,0.167,54,138.0
3645,G3,465.75,0.25,38,138.0
3646,A5,465.837,0.169,48,138.0
3647,G6,466.0,2.0,67,138.0
3648,G5,466.0,0.169,55,138.0
3649,B2,466.0,0.25,45,138.0
3650,A5,466.169,0.167,47,138.0
3651,G3,466.25,0.25,37,138.0
3652,G5,466.335,0.169,55,138.0
3653,D4,466.5,0.25,37,138.0
3654,A5,466.502,0.169,50,138.0
3655,G5,466.671,0.167,56,138.0
3656,G3,466.75,0.25,37,138.0
3657,A5,466.837,0.169,51,138.0
3658,G5,467.0,0.169,56,138.0
3659,G2,467.0,0.25,46,138.0
3660,A5,467.169,0.167,50,138.0
3661,G3,467.25,0.25,39,138.0
3662,G5,467.335,0.169,57,138.0
3663,B3,467.5,0.25,40,138.0
3664,A5,467.502,0.169,51,138.0
3665,G5,467.671,0.167,57,138.0
3666,G3,467.75,0.25,40,138.0
3667,A5,467.837,0.169,51,138.0
3668,E6,468.0,1.0,72,138.0
3669,G5,468.0,0.169,58,138.0
3670,C3,468.0,0.25,48,138.0
3671,A5,468.169,0.167,50,138.0
3672,G3,468.25,0.25,42,138.0
3673,G5,468.335,0.169,59,138.0
3674,E4,468.5,0.25,42,138.0
3675,A5,468.502,0.169,53,138.0
3676,G5,468.671,0.167,59,138.0
3677,G3,468.75,0.25,42,138.0
3678,A5,468.837,0.169,53,138.0
3679,G5,469.0,0.169,60,138.0
3680,C6,469.0,1.0,77,138.0
3681,E3,469.0,0.25,51,138.0
3682,A5,469.169,0.167,52,138.0
3683,G3,469.25,0.25,43,138.0
3684,G5,469.335,0.169,60,138.0
3685,G4,469.5,0.25,43,138.0
3686,A5,469.502,0.169,55,138.0
3687,G5,469.671,0.167,61,138.0
3688,G3,469.75,0.25,43,138.0
3689,A5,469.837,0.169,54,138.0
3690,B-5,470.0,0.5,83,138.0
3691,G5,470.0,0.169,61,138.0
3692,D3,470.0,0.25,50,138.0
3693,A5,470.169,0.167,53,138.0
3694,E3,470.25,0.25,44,138.0
3695,G5,470.335,0.169,62,138.0
3696,B5,470.5,1.0,75,138.0
3697,F#3,470.5,0.25,48,138.0
3698,A5,470.502,0.169,56,138.0
3699,G5,470.671,0.167,62,138.0
3700,G3,470.75,0.25,51,138.0
3701,A5,470.837,0.169,56,138.0
3702,G5,471.0,0.169,63,138.0
3703,A3,471.0,0.25,54,138.0
3704,A5,471.169,0.167,55,138.0
3705,B3,471.25,0.25,55,138.0
3706,G5,471.335,0.169,64,138.0
3707,D6,471.5,0.5,86,138.0
3708,A3,471.5,0.25,55,138.0
3709,A5,471.502,0.169,57,138.0
3710,G5,471.671,0.167,64,138.0
3711,G3,471.75,0.25,54,138.0
3712,A5,471.837,0.169,56,138.0
3713,D6,472.0,0.169,75,138.0
3714,F#3,472.0,0.25,54,138.0
3715,E6,472.169,0.167,66,138.0
3716,G3,472.25,0.25,49,138.0
3717,D6,472.335,0.169,75,138.0
3718,D5,472.5,0.5,60,138.0
3719,F#3,472.5,0.25,49,138.0
3720,E6,472.502,0.169,64,138.0
3721,D6,472.671,0.167,75,138.0
3722,E3,472.75,0.25,49,138.0
3723,E6,472.837,0.169,68,138.0
3724,D6,473.0,0.169,78,138.0
3725,D3,473.0,0.25,54,138.0
3726,E6,473.169,0.167,69,138.0
3727,C3,473.25,0.25,50,138.0
3728,D6,473.335,0.169,75,138.0
3729,C#6,473.5,0.25,75,138.0
3730,B2,473.5,0.25,59,138.0
3731,D6,473.75,0.25,79,138.0
3732,A2,473.75,0.25,66,138.0
3733,G1,474.0,0.25,66,138.0
3734,D6,474.0,0.25,76,138.0
3735,B6,474.0,0.25,76,138.0
3736,D7,474.0,0.25,76,138.0
3737,F6,474.0,0.25,76,138.0
3738,G2,474.25,0.25,56,138.0
3739,G1,474.5,0.25,66,138.0
3740,F6,474.5,1.0,69,138.0
3741,B6,474.5,1.0,69,138.0
3742,D6,474.5,1.0,69,138.0
3743,D7,474.5,1.0,69,138.0
3744,G2,474.75,0.25,56,138.0
3745,G1,475.0,0.25,66,138.0
3746,G2,475.25,0.25,57,138.0
3747,G1,475.5,0.25,66,138.0
3748,D6,475.5,0.25,69,138.0
3749,C6,475.5,0.25,69,138.0
3750,C7,475.5,0.25,69,138.0
3751,F6,475.5,0.25,69,138.0
3752,G2,475.75,0.25,57,138.0
3753,G1,476.0,0.25,66,138.0
3754,D6,476.0,0.25,70,138.0
3755,B6,476.0,0.25,70,138.0
3756,B5,476.0,0.25,70,138.0
3757,F6,476.0,0.25,70,138.0
3758,G2,476.25,0.25,57,138.0
3759,G1,476.5,0.25,66,138.0
3760,C7,476.5,0.25,73,138.0
3761,F6,476.5,0.25,73,138.0
3762,C6,476.5,0.25,73,138.0
3763,D6,476.5,0.25,73,138.0
3764,G2,476.75,0.25,58,138.0
3765,G1,477.0,0.25,66,138.0
3766,F6,477.0,0.25,73,138.0
3767,D6,477.0,0.25,73,138.0
3768,D7,477.0,0.25,73,138.0
3769,G2,477.25,0.25,59,138.0
3770,G#1,477.5,0.25,45,138.0
3771,E6,477.5,0.25,61,138.0
3772,B6,477.5,0.25,61,138.0
3773,B5,477.5,0.25,61,138.0
3774,D6,477.5,0.25,61,138.0
3775,G#2,477.75,0.25,34,138.0
3776,A1,478.0,0.25,43,138.0
3777,C6,478.0,0.25,53,138.0
3778,E6,478.0,0.25,53,138.0
3779,C7,478.0,0.25,53,138.0
3780,A2,478.25,0.25,33,138.0
3781,G#1,478.5,0.25,43,138.0
3782,E6,478.5,0.25,47,138.0
3783,D6,478.5,0.25,47,138.0
3784,B5,478.5,0.25,47,138.0
3785,B6,478.5,0.25,47,138.0
3786,G#2,478.75,0.25,33,138.0
3787,A1,479.0,0.25,43,138.0
3788,C6,479.0,0.25,53,138.0
3789,E6,479.0,0.25,53,138.0
3790,C7,479.0,0.25,53,138.0
3791,A2,479.25,0.25,34,138.0
3792,C2,479.5,0.25,43,138.0
3793,C6,479.5,0.25,47,138.0
3794,A5,479.5,0.25,47,138.0
3795,A6,479.5,0.25,47,138.0
3796,E6,479.5,0.25,47,138.0
3797,C3,479.75,0.25,35,138.0
3798,C#2,480.0,0.25,43,138.0
3799,G6,480.0,0.25,53,138.0
3800,E6,480.0,0.25,53,138.0
3801,A5,480.0,0.25,53,138.0
3802,C#3,480.25,0.25,33,138.0
3803,E2,480.5,0.25,43,138.0
3804,C#6,480.5,0.25,48,138.0
3805,G6,480.5,0.25,48,138.0
3806,A5,480.5,0.25,48,138.0
3807,E3,480.75,0.25,33,138.0
3808,D2,481.0,0.25,43,138.0
3809,A5,481.0,0.25,53,138.0
3810,C6,481.0,0.25,53,138.0
3811,F#6,481.0,0.25,53,138.0
3812,D3,481.25,0.25,34,138.0
3813,D2,481.5,0.25,43,138.0
3814,A5,481.5,0.25,48,138.0
3815,A6,481.5,0.25,48,138.0
3816,C6,481.5,0.25,48,138.0
3817,D3,481.75,0.25,35,138.0
3818,D2,482.0,0.25,47,138.0
3819,G5,482.0,0.25,58,138.0
3820,B5,482.0,0.25,58,138.0
3821,G6,482.0,0.25,58,138.0
3822,D3,482.25,0.25,36,138.0
3823,G2,482.5,0.25,48,138.0
3824,D6,482.5,0.25,53,138.0
3825,D5,482.5,0.25,53,138.0
3826,B5,482.5,0.25,53,138.0
3827,G3,482.75,0.25,37,138.0
3828,D2,483.0,0.25,50,138.0
3829,F#6,483.0,0.25,62,138.0
3830,C6,483.0,0.25,62,138.0
3831,F#5,483.0,0.25,62,138.0
3832,D3,483.25,0.25,40,138.0
3833,D3,483.5,0.25,53,138.0
3834,C6,483.5,0.25,58,138.0
3835,A6,483.5,0.25,58,138.0
3836,F#6,483.5,0.25,58,138.0
3837,A5,483.5,0.25,58,138.0
3838,D4,483.75,0.25,44,138.0
3839,D2,484.0,0.25,54,138.0
3840,G5,484.0,0.25,67,138.0
3841,G6,484.0,0.25,67,138.0
3842,B5,484.0,0.25,67,138.0
3843,D3,484.25,0.25,42,138.0
3844,G2,484.5,0.25,57,138.0
3845,D5,484.5,0.25,62,138.0
3846,B5,484.5,0.25,62,138.0
3847,D6,484.5,0.25,62,138.0
3848,G3,484.75,0.25,44,138.0
3849,D2,485.0,0.25,58,138.0
3850,C6,485.0,0.25,73,138.0
3851,F#5,485.0,0.25,73,138.0
3852,F#6,485.0,0.25,73,138.0
3853,D3,485.25,0.25,47,138.0
3854,D3,485.5,0.25,61,138.0
3855,F#6,485.5,0.25,67,138.0
3856,A6,485.5,0.25,67,138.0
3857,C6,485.5,0.25,67,138.0
3858,A5,485.5,0.25,67,138.0
3859,D4,485.75,0.25,51,138.0
3860,G5,486.0,0.25,77,138.0
3861,G2,486.0,0.25,59,138.0
3862,G6,486.25,0.25,70,138.0
3863,G3,486.25,0.25,50,138.0
3864,D5,486.5,0.25,79,138.0
3865,D2,486.5,0.25,61,138.0
3866,D6,486.75,0.25,73,138.0
3867,D3,486.75,0.25,51,138.0
3868,F#5,487.0,0.25,82,138.0
3869,F#2,487.0,0.25,64,138.0
3870,F#6,487.25,0.25,76,138.0
3871,F#3,487.25,0.25,55,138.0
3872,A5,487.5,0.25,85,138.0
3873,A2,487.5,0.25,67,138.0
3874,A6,487.75,0.25,79,138.0
3875,A3,487.75,0.25,58,138.0
3876,G5,488.0,0.25,88,138.0
3877,G2,488.0,0.25,68,138.0
3878,G6,488.25,0.25,82,138.0
3879,G3,488.25,0.25,63,138.0
3880,D5,488.5,0.25,91,138.0
3881,D2,488.5,0.25,71,138.0
3882,D6,488.75,0.25,86,138.0
3883,D3,488.75,0.25,63,138.0
3884,F#5,489.0,0.25,94,138.0
3885,F#1,489.0,0.25,74,138.0
3886,F#6,489.25,0.25,90,138.0
3887,F#2,489.25,0.25,64,138.0
3888,A5,489.5,0.25,99,138.0
3889,A1,489.5,0.25,76,138.0
3890,A6,489.75,0.25,92,138.0
3891,A2,489.75,0.25,67,138.0
3892,G5,490.0,0.375,100,138.0
3893,G6,490.0,0.375,100,138.0
3894,G2,490.0,0.375,75,138.0
3895,G1,490.0,0.375,75,138.0
3896,A5,491.0,0.375,103,138.0
3897,A6,491.0,0.375,103,138.0
3898,A1,491.0,0.375,75,138.0
3899,A2,491.0,0.375,75,138.0
3900,B5,492.0,2.0,108,138.0
3901,B6,492.0,2.0,108,138.0
3902,B1,492.0,2.0,79,138.0
3903,B2,492.0,2.0,79,138.0
3904,B5,494.0,0.375,100,138.0
3905,B6,494.0,0.375,100,138.0
3906,B2,494.0,0.375,75,138.0
3907,B1,494.0,0.375,75,138.0
3908,C6,495.0,0.375,103,138.0
3909,C7,495.0,0.375,103,138.0
3910,C3,495.0,0.375,75,138.0
3911,C2,495.0,0.375,75,138.0
3912,D6,496.0,2.0,108,138.0
3913,D7,496.0,2.0,108,138.0
3914,D3,496.0,2.0,79,138.0
3915,D2,496.0,2.0,79,138.0
3916,B4,498.0,0.25,39,138.0
3917,D5,498.0,0.125,46,138.0
3918,G5,498.0,0.125,46,138.0
3919,D6,498.0,0.125,46,138.0
3920,G4,498.25,0.25,33,138.0
3921,B4,498.5,0.25,39,138.0
3922,D6,498.5,1.0,41,138.0
3923,G5,498.5,1.0,41,138.0
3924,D5,498.5,1.0,41,138.0
3925,G4,498.75,0.25,33,138.0
3926,B4,499.0,0.25,39,138.0
3927,G4,499.25,0.25,34,138.0
3928,C5,499.5,0.25,39,138.0
3929,G5,499.5,0.25,41,138.0
3930,E-5,499.5,0.25,41,138.0
3931,C6,499.5,0.25,41,138.0
3932,G4,499.75,0.25,34,138.0
3933,D5,500.0,0.25,39,138.0
3934,B5,500.0,0.25,42,138.0
3935,F5,500.0,0.25,42,138.0
3936,G5,500.0,0.25,42,138.0
3937,G4,500.25,0.25,34,138.0
3938,C5,500.5,0.25,39,138.0
3939,C6,500.5,0.25,44,138.0
3940,G5,500.5,0.25,44,138.0
3941,E-5,500.5,0.25,44,138.0
3942,G4,500.75,0.25,34,138.0
3943,B4,501.0,0.25,39,138.0
3944,D5,501.0,0.25,44,138.0
3945,D6,501.0,0.25,44,138.0
3946,G5,501.0,0.25,44,138.0
3947,G4,501.25,0.25,35,138.0
3948,D5,501.5,0.25,27,138.0
3949,G5,501.5,0.25,36,138.0
3950,F5,501.5,0.25,36,138.0
3951,B5,501.5,0.25,36,138.0
3952,G4,501.75,0.25,20,138.0
3953,C5,502.0,0.25,39,138.0
3954,G5,502.0,0.125,46,138.0
3955,E-5,502.0,0.125,46,138.0
3956,E-6,502.0,0.125,46,138.0
3957,G4,502.25,0.25,33,138.0
3958,C5,502.5,0.25,39,138.0
3959,G5,502.5,1.0,41,138.0
3960,E-5,502.5,1.0,41,138.0
3961,E-6,502.5,1.0,41,138.0
3962,G4,502.75,0.25,33,138.0
3963,C5,503.0,0.25,39,138.0
3964,G4,503.25,0.25,34,138.0
3965,B4,503.5,0.25,39,138.0
3966,F5,503.5,0.25,41,138.0
3967,G5,503.5,0.25,41,138.0
3968,D6,503.5,0.25,41,138.0
3969,D5,503.5,0.25,41,138.0
3970,G4,503.75,0.25,34,138.0
3971,C5,504.0,0.25,39,138.0
3972,E-5,504.0,0.25,42,138.0
3973,G5,504.0,0.25,42,138.0
3974,C6,504.0,0.25,42,138.0
3975,G4,504.25,0.25,34,138.0
3976,B4,504.5,0.25,39,138.0
3977,F5,504.5,0.25,44,138.0
3978,D5,504.5,0.25,44,138.0
3979,G5,504.5,0.25,44,138.0
3980,D6,504.5,0.25,44,138.0
3981,G4,504.75,0.25,34,138.0
3982,C5,505.0,0.25,39,138.0
3983,E-6,505.0,0.25,44,138.0
3984,E-5,505.0,0.25,44,138.0
3985,G5,505.0,0.25,44,138.0
3986,G4,505.25,0.25,35,138.0
3987,C5,505.5,0.25,27,138.0
3988,C6,505.5,0.25,36,138.0
3989,G5,505.5,0.25,36,138.0
3990,E-5,505.5,0.25,36,138.0
3991,C4,505.75,0.25,20,138.0
3992,B-4,506.0,0.25,42,138.0
3993,G#5,506.0,0.125,50,138.0
3994,F6,506.0,0.125,50,138.0
3995,F5,506.0,0.125,50,138.0
3996,B-3,506.25,0.25,36,138.0
3997,G#5,506.5,1.0,47,138.0
3998,F5,506.5,1.0,47,138.0
3999,F6,506.5,1.0,47,138.0
4000,D4,506.5,0.25,44,138.0
4001,B-4,506.5,0.25,44,138.0
4002,B-3,506.75,0.25,38,138.0
4003,B-4,507.0,0.25,46,138.0
4004,D4,507.0,0.25,46,138.0
4005,B-3,507.25,0.25,41,138.0
4006,G5,507.5,0.25,51,138.0
4007,E-5,507.5,0.25,51,138.0
4008,E-6,507.5,0.25,51,138.0
4009,B-4,507.5,0.25,48,138.0
4010,E-4,507.5,0.25,48,138.0
4011,B-3,507.75,0.25,43,138.0
4012,D6,508.0,0.25,55,138.0
4013,F5,508.0,0.25,55,138.0
4014,D5,508.0,0.25,55,138.0
4015,F4,508.0,0.25,50,138.0
4016,B-4,508.0,0.25,50,138.0
4017,B-3,508.25,0.25,44,138.0
4018,E-6,508.5,0.25,59,138.0
4019,G5,508.5,0.25,59,138.0
4020,E-5,508.5,0.25,59,138.0
4021,B-4,508.5,0.25,52,138.0
4022,E-4,508.5,0.25,52,138.0
4023,B-3,508.75,0.25,46,138.0
4024,G#5,509.0,0.25,61,138.0
4025,F5,509.0,0.25,61,138.0
4026,F6,509.0,0.25,61,138.0
4027,B-4,509.0,0.25,54,138.0
4028,D4,509.0,0.25,54,138.0
4029,B-3,509.25,0.25,49,138.0
4030,G#2,509.5,0.25,44,138.0
4031,D6,509.5,0.25,59,138.0
4032,B-5,509.5,0.25,59,138.0
4033,D5,509.5,0.25,59,138.0
4034,F5,509.5,0.25,59,138.0
4035,G#3,509.75,0.25,33,138.0
4036,G2,510.0,0.25,77,138.0
4037,G6,510.0,0.375,93,138.0
4038,G5,510.0,0.375,93,138.0
4039,E-6,510.0,0.375,93,138.0
4040,G3,510.25,0.237,70,138.0
4041,G3,510.5,0.25,70,138.0
4042,G4,510.75,0.25,70,138.0
4043,F2,511.0,0.25,77,138.0
4044,G#6,511.0,0.375,96,138.0
4045,G#5,511.0,0.375,96,138.0
4046,F6,511.0,0.375,96,138.0
4047,F3,511.25,0.237,69,138.0
4048,F3,511.5,0.25,69,138.0
4049,F4,511.75,0.25,69,138.0
4050,E-2,512.0,0.25,85,138.0
4051,B-6,512.0,2.0,100,138.0
4052,B-5,512.0,2.0,100,138.0
4053,G6,512.0,2.0,100,138.0
4054,E-3,512.25,0.237,67,138.0
4055,E-4,512.5,1.5,76,138.0
4056,E-3,512.5,1.5,76,138.0
4057,G4,514.0,0.375,46,138.0
4058,E-4,514.0,0.375,46,138.0
4059,G3,514.5,0.25,40,138.0
4060,B-3,514.75,0.25,35,138.0
4061,G#4,515.0,0.375,48,138.0
4062,F4,515.0,0.375,48,138.0
4063,F3,515.5,0.25,40,138.0
4064,G#3,515.75,0.25,34,138.0
4065,B-4,516.0,1.75,49,138.0
4066,G4,516.0,1.75,49,138.0
4067,G3,516.5,1.25,40,138.0
4068,E-3,517.75,0.25,93,138.0
4069,E-4,518.0,0.744,90,138.0
4070,E-4,518.75,0.244,61,138.0
4071,E-4,519.0,0.5,66,138.0
4072,E-3,521.75,0.25,57,138.0
4073,G3,521.75,0.25,91,138.0
4074,E-4,522.0,0.744,77,138.0
4075,G4,522.0,0.744,80,138.0
4076,E-4,522.75,0.246,56,138.0
4077,G4,522.75,0.244,63,138.0
4078,E-4,523.0,0.5,63,138.0
4079,G4,523.0,0.5,69,138.0
4080,B-2,525.75,0.25,40,138.0
4081,E-3,526.0,0.746,44,138.0
4082,E-3,526.75,0.246,40,138.0
4083,E-3,527.0,0.5,43,138.0
4084,F3,527.5,0.188,44,138.0
4085,E-3,527.75,0.188,40,138.0
4086,E-2,527.75,0.25,40,138.0
4087,E-3,528.0,0.188,44,138.0
4088,G#2,528.0,0.746,44,138.0
4089,C3,528.5,0.188,39,138.0
4090,G#2,528.75,0.246,40,138.0
4091,C3,529.0,1.0,39,138.0
4092,G#2,529.0,0.5,43,138.0
4093,B-2,529.5,0.188,44,138.0
4094,G#2,529.75,0.188,40,138.0
4095,G#3,530.0,0.188,47,138.0
4096,G#2,530.0,0.142,44,138.0
4097,G#3,530.5,0.188,42,138.0
4098,F2,530.5,0.188,39,138.0
4099,G3,530.75,0.188,42,138.0
4100,F3,531.0,0.25,47,138.0
4101,F2,531.0,1.0,39,138.0
4102,F3,531.5,0.188,44,138.0
4103,E-3,531.75,0.188,44,138.0
4104,D3,532.0,0.5,47,138.0
4105,B-2,532.0,0.188,44,138.0
4106,B-2,532.5,0.188,44,138.0
4107,G#2,532.75,0.188,44,138.0
4108,D3,533.0,1.0,39,138.0
4109,G2,533.0,0.25,44,138.0
4110,G2,533.5,0.188,44,138.0
4111,F2,533.75,0.188,44,138.0
4112,B-3,534.0,0.188,50,138.0
4113,E2,534.0,0.5,44,138.0
4114,B-3,534.5,0.188,44,138.0
4115,G#3,534.75,0.188,44,138.0
4116,G3,535.0,0.25,48,138.0
4117,E2,535.0,1.0,39,138.0
4118,G3,535.5,0.188,44,138.0
4119,F3,535.75,0.188,44,138.0
4120,E3,536.0,0.5,48,138.0
4121,C3,536.0,0.188,44,138.0
4122,C3,536.5,0.188,44,138.0
4123,B-2,536.75,0.188,44,138.0
4124,E3,537.0,1.0,39,138.0
4125,G#2,537.0,0.25,44,138.0
4126,G#2,537.5,0.188,44,138.0
4127,G2,537.75,0.188,44,138.0
4128,C4,538.0,0.188,48,138.0
4129,F2,538.0,0.5,44,138.0
4130,C4,538.5,0.188,44,138.0
4131,B-3,538.75,0.188,44,138.0
4132,C3,538.75,0.188,37,138.0
4133,G#3,539.0,0.25,49,138.0
4134,F3,539.0,0.25,37,138.0
4135,G#3,539.5,0.188,45,138.0
4136,F3,539.5,0.188,38,138.0
4137,G3,539.75,0.188,46,138.0
4138,E-3,539.75,0.188,38,138.0
4139,F3,540.0,0.188,50,138.0
4140,D3,540.0,0.188,46,138.0
4141,F3,540.5,0.188,47,138.0
4142,D3,540.5,0.188,39,138.0
4143,G3,540.75,0.188,47,138.0
4144,C3,540.75,0.188,39,138.0
4145,G#3,541.0,0.25,51,138.0
4146,B-2,541.0,0.25,39,138.0
4147,G#3,541.5,0.188,48,138.0
4148,C3,541.5,0.188,40,138.0
4149,B-3,541.75,0.188,48,138.0
4150,D3,541.75,0.188,40,138.0
4151,G3,542.0,0.25,51,138.0
4152,E-3,542.0,0.25,48,138.0
4153,G3,542.5,0.188,49,138.0
4154,G2,542.5,0.5,41,138.0
4155,F3,542.75,0.188,49,138.0
4156,E-3,543.0,0.5,55,138.0
4157,A2,543.0,0.5,42,138.0
4158,C3,543.5,0.5,42,138.0
4159,F3,543.5,0.25,47,138.0
4160,F4,543.75,0.25,46,138.0
4161,E-3,543.75,0.25,47,138.0
4162,B-4,544.0,0.746,56,138.0
4163,B-2,544.0,0.188,51,138.0
4164,D3,544.0,0.5,43,138.0
4165,B-2,544.5,0.188,43,138.0
4166,B-4,544.75,0.246,47,138.0
4167,C3,544.75,0.188,44,138.0
4168,B-4,545.0,0.5,55,138.0
4169,D3,545.0,0.25,44,138.0
4170,C5,545.5,0.188,53,138.0
4171,E-3,545.5,0.188,44,138.0
4172,B-4,545.75,0.188,48,138.0
4173,B-3,545.75,0.25,46,138.0
4174,F3,545.75,0.25,46,138.0
4175,B-4,546.0,0.188,57,138.0
4176,E-3,546.0,0.25,54,138.0
4177,E-4,546.0,0.746,54,138.0
4178,G4,546.5,0.188,48,138.0
4179,E-4,546.75,0.246,50,138.0
4180,G4,547.0,1.0,49,138.0
4181,E-4,547.0,0.5,54,138.0
4182,F4,547.5,0.188,55,138.0
4183,E-4,547.75,0.188,51,138.0
4184,E-5,548.0,0.188,61,138.0
4185,C3,548.0,0.188,56,138.0
4186,E-4,548.0,0.188,56,138.0
4187,E-5,548.5,0.188,57,138.0
4188,C4,548.5,0.188,49,138.0
4189,C3,548.5,0.188,49,138.0
4190,D5,548.75,0.188,57,138.0
4191,D3,548.75,0.188,48,138.0
4192,C5,549.0,0.25,62,138.0
4193,E3,549.0,0.25,48,138.0
4194,C4,549.0,1.0,51,138.0
4195,C5,549.5,0.188,58,138.0
4196,F3,549.5,0.188,49,138.0
4197,B-4,549.75,0.188,58,138.0
4198,G3,549.75,0.188,49,138.0
4199,A4,550.0,0.5,64,138.0
4200,F4,550.0,0.188,59,138.0
4201,F3,550.0,0.188,59,138.0
4202,F4,550.5,0.188,59,138.0
4203,E-4,550.75,0.188,60,138.0
4204,A4,551.0,1.0,53,138.0
4205,F3,551.0,0.25,55,138.0
4206,D4,551.0,0.25,55,138.0
4207,F3,551.5,0.188,56,138.0
4208,D4,551.5,0.188,56,138.0
4209,E-3,551.75,0.188,56,138.0
4210,C4,551.75,0.188,56,138.0
4211,F5,552.0,0.188,65,138.0
4212,D3,552.0,0.188,61,138.0
4213,B3,552.0,0.5,61,138.0
4214,F5,552.5,0.188,62,138.0
4215,D3,552.5,0.188,52,138.0
4216,E-5,552.75,0.188,62,138.0
4217,E-3,552.75,0.188,52,138.0
4218,D5,553.0,0.25,66,138.0
4219,B3,553.0,1.0,55,138.0
4220,F3,553.0,0.25,52,138.0
4221,D5,553.5,0.188,63,138.0
4222,G3,553.5,0.188,53,138.0
4223,C5,553.75,0.188,63,138.0
4224,G#3,553.75,0.188,53,138.0
4225,B4,554.0,0.5,67,138.0
4226,G4,554.0,0.188,64,138.0
4227,G3,554.0,0.188,64,138.0
4228,G4,554.5,0.188,65,138.0
4229,F4,554.75,0.188,65,138.0
4230,B4,555.0,1.0,53,138.0
4231,E-4,555.0,0.25,60,138.0
4232,G3,555.0,0.25,60,138.0
4233,E-4,555.5,0.188,60,138.0
4234,G3,555.5,0.188,60,138.0
4235,D4,555.75,0.188,60,138.0
4236,F3,555.75,0.188,60,138.0
4237,G5,556.0,0.188,71,138.0
4238,E-3,556.0,0.188,66,138.0
4239,C4,556.0,0.188,66,138.0
4240,G5,556.5,0.188,67,138.0
4241,E-3,556.5,0.188,56,138.0
4242,C4,556.5,1.0,59,138.0
4243,F5,556.75,0.188,67,138.0
4244,F3,556.75,0.188,56,138.0
4245,E-5,557.0,0.25,68,138.0
4246,G3,557.0,0.25,57,138.0
4247,E-5,557.5,0.188,68,138.0
4248,A3,557.5,0.188,57,138.0
4249,G4,557.5,0.188,57,138.0
4250,D5,557.75,0.188,69,138.0
4251,F4,557.75,0.188,58,138.0
4252,B3,557.75,0.188,58,138.0
4253,C5,558.0,0.188,71,138.0
4254,C4,558.0,0.188,69,138.0
4255,E-4,558.0,0.188,69,138.0
4256,C5,558.5,0.188,69,138.0
4257,F4,558.5,0.188,58,138.0
4258,D3,558.5,0.188,58,138.0
4259,B-4,558.75,0.188,70,138.0
4260,G4,558.75,0.188,59,138.0
4261,E3,558.75,0.188,59,138.0
4262,G#4,559.0,0.25,74,138.0
4263,F3,559.0,0.25,59,138.0
4264,C4,559.0,0.25,59,138.0
4265,G#4,559.5,0.188,71,138.0
4266,C4,559.5,0.188,59,138.0
4267,F2,559.5,0.188,59,138.0
4268,G4,559.75,0.188,71,138.0
4269,G2,559.75,0.188,58,138.0
4270,B-3,559.75,0.188,58,138.0
4271,F4,560.0,0.25,76,138.0
4272,C4,560.0,0.25,72,138.0
4273,G#2,560.0,0.25,72,138.0
4274,F4,560.5,0.188,72,138.0
4275,B-2,560.5,0.5,56,138.0
4276,D4,560.5,0.5,56,138.0
4277,G4,560.75,0.188,73,138.0
4278,G#4,561.0,0.5,76,138.0
4279,B2,561.0,0.5,56,138.0
4280,E-4,561.0,0.5,56,138.0
4281,B-4,561.5,0.5,73,138.0
4282,D4,561.5,0.188,62,138.0
4283,B-2,561.5,0.188,62,138.0
4284,D4,561.75,0.188,62,138.0
4285,B-1,561.75,0.188,62,138.0
4286,F4,561.75,0.188,62,138.0
4287,G4,562.0,0.746,74,138.0
4288,E-2,562.0,0.746,61,138.0
4289,E-4,562.0,0.5,62,138.0
4290,B-4,562.0,0.5,62,138.0
4291,G4,562.75,0.246,64,138.0
4292,E-2,562.75,0.188,54,138.0
4293,G4,563.0,0.5,76,138.0
4294,E-2,563.0,0.5,54,138.0
4295,G#4,563.5,0.188,74,138.0
4296,F2,563.5,0.188,61,138.0
4297,E-2,563.75,0.188,54,138.0
4298,B-4,563.75,0.188,70,138.0
4299,G4,563.75,0.188,70,138.0
4300,E-5,564.0,0.746,74,138.0
4301,G4,564.0,0.5,62,138.0
4302,C3,564.0,0.746,61,138.0
4303,E-2,564.0,0.5,51,138.0
4304,E-4,564.5,0.5,53,138.0
4305,C2,564.5,0.5,43,138.0
4306,E-5,564.75,0.25,64,138.0
4307,C3,564.75,0.188,54,138.0
4308,E-4,565.0,1.0,64,138.0
4309,E-5,565.0,0.5,76,138.0
4310,C3,565.0,0.5,62,138.0
4311,C2,565.0,1.0,52,138.0
4312,F5,565.5,0.188,74,138.0
4313,D3,565.5,0.188,61,138.0
4314,E-5,565.75,0.188,70,138.0
4315,C3,565.75,0.188,54,138.0
4316,E-4,566.0,0.188,68,138.0
4317,E-5,566.0,0.188,68,138.0
4318,C3,566.0,0.25,56,138.0
4319,G#2,566.0,0.25,56,138.0
4320,C5,566.5,0.438,68,138.0
4321,G#2,566.5,0.438,62,138.0
4322,B-4,566.75,0.188,57,138.0
4323,G2,566.75,0.188,57,138.0
4324,G#4,567.0,0.188,62,138.0
4325,C5,567.0,1.0,74,138.0
4326,F2,567.0,0.188,53,138.0
4327,G#2,567.0,1.0,63,138.0
4328,G#4,567.5,0.188,73,138.0
4329,F2,567.5,0.188,54,138.0
4330,G4,567.75,0.188,64,138.0
4331,E-2,567.75,0.188,54,138.0
4332,F4,568.0,0.5,62,138.0
4333,G#5,568.0,0.188,81,138.0
4334,D2,568.0,0.5,51,138.0
4335,F3,568.0,0.188,56,138.0
4336,G#5,568.5,0.188,71,138.0
4337,F3,568.5,0.188,56,138.0
4338,G5,568.75,0.188,67,138.0
4339,E-3,568.75,0.188,59,138.0
4340,F5,569.0,0.25,78,138.0
4341,F4,569.0,1.0,64,138.0
4342,D3,569.0,0.25,59,138.0
4343,D2,569.0,1.0,52,138.0
4344,F5,569.5,0.188,74,138.0
4345,D3,569.5,0.188,56,138.0
4346,E-5,569.75,0.188,68,138.0
4347,C3,569.75,0.188,52,138.0
4348,D5,570.0,0.188,74,138.0
4349,B-2,570.0,0.25,61,138.0
4350,D5,570.5,0.188,68,138.0
4351,B-2,570.5,0.188,62,138.0
4352,C5,570.75,0.188,57,138.0
4353,G#2,570.75,0.188,57,138.0
4354,B-4,571.0,0.188,62,138.0
4355,D5,571.0,1.0,74,138.0
4356,B-2,571.0,1.0,63,138.0
4357,G2,571.0,0.188,53,138.0
4358,B-4,571.5,0.188,73,138.0
4359,G2,571.5,0.188,54,138.0
4360,G#4,571.75,0.188,64,138.0
4361,F2,571.75,0.188,54,138.0
4362,B-5,572.0,0.188,79,138.0
4363,G4,572.0,0.5,62,138.0
4364,E2,572.0,0.5,51,138.0
4365,G3,572.0,0.188,56,138.0
4366,B-5,572.5,0.188,71,138.0
4367,G3,572.5,0.188,56,138.0
4368,G#5,572.75,0.188,67,138.0
4369,F3,572.75,0.188,59,138.0
4370,G5,573.0,0.25,78,138.0
4371,G4,573.0,1.5,64,138.0
4372,E2,573.0,1.0,52,138.0
4373,E3,573.0,0.25,59,138.0
4374,G5,573.5,0.188,74,138.0
4375,E3,573.5,0.188,56,138.0
4376,F5,573.75,0.188,68,138.0
4377,D3,573.75,0.188,52,138.0
4378,E5,574.0,0.5,74,138.0
4379,C3,574.0,0.25,61,138.0
4380,E4,574.5,0.5,56,138.0
4381,G3,574.5,0.188,47,138.0
4382,C3,574.5,0.188,47,138.0
4383,C#4,574.75,0.188,38,138.0
4384,B-2,574.75,0.188,38,138.0
4385,F4,575.0,0.5,59,138.0
4386,C3,575.0,0.188,48,138.0
4387,C4,575.0,0.188,48,138.0
4388,G#2,575.0,0.188,48,138.0
4389,G4,575.5,0.5,62,138.0
4390,C4,575.5,0.188,51,138.0
4391,G2,575.5,0.188,50,138.0
4392,E3,575.5,0.188,50,138.0
4393,B-3,575.75,0.188,49,138.0
4394,G#3,576.0,0.25,58,138.0
4395,G#4,576.0,1.5,58,138.0
4396,F2,576.0,1.5,50,138.0
4397,F3,576.0,0.5,50,138.0
4398,F4,576.5,0.25,51,138.0
4399,C3,576.5,0.5,42,138.0
4400,E-4,576.75,0.25,44,138.0
4401,D4,577.0,0.25,51,138.0
4402,F3,577.0,0.5,52,138.0
4403,D4,577.5,0.25,52,138.0
4404,A4,577.5,0.5,52,138.0
4405,E-3,577.5,0.5,42,138.0
4406,F#2,577.5,0.5,42,138.0
4407,C4,577.75,0.25,45,138.0
4408,B-4,578.0,0.188,63,138.0
4409,B-3,578.0,0.5,63,138.0
4410,D3,578.0,0.188,56,138.0
4411,G2,578.0,1.5,51,138.0
4412,G5,578.5,0.188,62,138.0
4413,D3,578.5,0.5,54,138.0
4414,F5,578.75,0.188,57,138.0
4415,E-5,579.0,0.25,67,138.0
4416,G3,579.0,0.5,59,138.0
4417,E-5,579.5,0.188,63,138.0
4418,G2,579.5,0.5,52,138.0
4419,F3,579.5,0.5,52,138.0
4420,D5,579.75,0.188,57,138.0
4421,C5,580.0,1.5,68,138.0
4422,G#2,580.0,1.5,46,138.0
4423,E-3,580.0,0.5,55,138.0
4424,C4,580.5,0.5,47,138.0
4425,G#3,580.5,0.25,58,138.0
4426,G3,580.75,0.25,50,138.0
4427,F4,581.0,1.0,60,138.0
4428,F3,581.0,0.25,59,138.0
4429,C#5,581.5,0.5,61,138.0
4430,F3,581.5,0.25,61,138.0
4431,A2,581.5,0.5,41,138.0
4432,E-3,581.75,0.25,53,138.0
4433,F4,582.0,0.188,72,138.0
4434,D5,582.0,0.188,72,138.0
4435,D3,582.0,0.188,59,138.0
4436,B-2,582.0,0.188,59,138.0
4437,B2,582.5,0.5,53,138.0
4438,B-3,582.5,0.188,52,138.0
4439,G4,582.5,0.188,66,138.0
4440,E-5,582.5,0.188,66,138.0
4441,G#3,582.75,0.188,47,138.0
4442,D5,582.75,0.188,59,138.0
4443,F4,582.75,0.188,59,138.0
4444,C5,583.0,0.25,76,138.0
4445,E-4,583.0,0.25,76,138.0
4446,G3,583.0,0.25,60,138.0
4447,C3,583.0,0.25,60,138.0
4448,B4,583.5,0.188,74,138.0
4449,D4,583.5,0.188,74,138.0
4450,F3,583.5,0.5,61,138.0
4451,D3,583.5,0.5,61,138.0
4452,G4,583.75,0.188,66,138.0
4453,C5,584.0,0.744,73,138.0
4454,E-5,584.0,0.744,73,138.0
4455,E-3,584.0,0.5,56,138.0
4456,C3,584.0,0.5,56,138.0
4457,E-5,584.75,0.248,66,138.0
4458,C5,584.75,0.248,66,138.0
4459,C5,585.0,0.5,70,138.0
4460,E-5,585.0,0.5,70,138.0
4461,D5,585.5,0.188,73,138.0
4462,F5,585.5,0.188,73,138.0
4463,E-5,585.75,0.188,62,138.0
4464,C5,585.75,0.188,62,138.0
4465,E-3,585.75,0.25,56,138.0
4466,C3,585.75,0.25,56,138.0
4467,C5,586.0,0.188,73,138.0
4468,E-5,586.0,0.188,73,138.0
4469,G#3,586.0,0.744,62,138.0
4470,F3,586.0,0.744,62,138.0
4471,C5,586.5,0.188,64,138.0
4472,G#4,586.5,0.188,64,138.0
4473,F3,586.75,0.248,56,138.0
4474,G#3,586.75,0.248,56,138.0
4475,G#4,587.0,1.0,64,138.0
4476,C5,587.0,1.0,64,138.0
4477,F3,587.0,0.5,59,138.0
4478,G#3,587.0,0.5,59,138.0
4479,G3,587.5,0.188,62,138.0
4480,B-3,587.5,0.188,62,138.0
4481,F3,587.75,0.188,52,138.0
4482,G#3,587.75,0.188,52,138.0
4483,G#5,588.0,0.188,73,138.0
4484,F5,588.0,0.188,73,138.0
4485,G#3,588.0,0.188,62,138.0
4486,F3,588.0,0.188,62,138.0
4487,G#5,588.5,0.188,73,138.0
4488,F5,588.5,0.188,73,138.0
4489,F3,588.5,0.188,54,138.0
4490,C#3,588.5,0.188,54,138.0
4491,G5,588.75,0.188,69,138.0
4492,E-5,588.75,0.188,69,138.0
4493,F5,589.0,0.25,73,138.0
4494,C#5,589.0,0.25,73,138.0
4495,C#3,589.0,1.0,54,138.0
4496,F3,589.0,1.0,54,138.0
4497,C#5,589.5,0.188,73,138.0
4498,F5,589.5,0.188,73,138.0
4499,E-5,589.75,0.188,69,138.0
4500,C5,589.75,0.188,69,138.0
4501,C#5,590.0,0.5,73,138.0
4502,B-4,590.0,0.5,73,138.0
4503,C#4,590.0,0.188,62,138.0
4504,B-3,590.0,0.188,62,138.0
4505,C#4,590.5,0.188,62,138.0
4506,B-3,590.5,0.188,62,138.0
4507,C4,590.75,0.188,58,138.0
4508,G#3,590.75,0.188,58,138.0
4509,B-4,591.0,1.0,64,138.0
4510,C#5,591.0,1.0,64,138.0
4511,G3,591.0,0.25,62,138.0
4512,B-3,591.0,0.25,62,138.0
4513,B-3,591.5,0.188,62,138.0
4514,G3,591.5,0.188,62,138.0
4515,G#3,591.75,0.188,58,138.0
4516,F3,591.75,0.188,58,138.0
4517,G5,592.0,0.188,73,138.0
4518,B-5,592.0,0.188,73,138.0
4519,G3,592.0,0.5,62,138.0
4520,E3,592.0,0.5,62,138.0
4521,G5,592.5,0.188,73,138.0
4522,B-5,592.5,0.188,73,138.0
4523,F5,592.75,0.188,69,138.0
4524,G#5,592.75,0.188,69,138.0
4525,E5,593.0,0.25,73,138.0
4526,G5,593.0,0.25,73,138.0
4527,G3,593.0,1.0,54,138.0
4528,E3,593.0,1.0,54,138.0
4529,G5,593.5,0.188,73,138.0
4530,E5,593.5,0.188,73,138.0
4531,D5,593.75,0.188,69,138.0
4532,F5,593.75,0.188,69,138.0
4533,E5,594.0,0.5,73,138.0
4534,C5,594.0,0.5,73,138.0
4535,C4,594.0,0.188,62,138.0
4536,E4,594.0,0.188,62,138.0
4537,C4,594.5,0.188,62,138.0
4538,E-4,594.5,0.188,62,138.0
4539,C#4,594.75,0.188,58,138.0
4540,B-3,594.75,0.188,58,138.0
4541,C5,595.0,1.0,64,138.0
4542,F5,595.0,1.0,64,138.0
4543,C4,595.0,0.25,62,138.0
4544,G#3,595.0,0.25,62,138.0
4545,G#3,595.5,0.188,62,138.0
4546,C4,595.5,0.188,62,138.0
4547,G3,595.75,0.188,58,138.0
4548,B-3,595.75,0.188,58,138.0
4549,C6,596.0,0.188,73,138.0
4550,G#5,596.0,0.188,73,138.0
4551,G#3,596.0,0.188,62,138.0
4552,F3,596.0,0.188,62,138.0
4553,G#5,596.5,0.188,73,138.0
4554,C6,596.5,0.188,73,138.0
4555,D3,596.5,0.188,62,138.0
4556,F3,596.5,0.188,62,138.0
4557,G5,596.75,0.188,69,138.0
4558,B-5,596.75,0.188,69,138.0
4559,E-3,596.75,0.188,58,138.0
4560,G3,596.75,0.188,58,138.0
4561,G#5,597.0,0.25,73,138.0
4562,F5,597.0,0.25,73,138.0
4563,G#3,597.0,0.25,62,138.0
4564,F3,597.0,0.25,62,138.0
4565,G5,597.5,0.188,74,138.0
4566,B-5,597.5,0.188,74,138.0
4567,C3,597.5,0.188,62,138.0
4568,E-3,597.5,0.188,62,138.0
4569,F5,597.75,0.188,71,138.0
4570,G#5,597.75,0.188,71,138.0
4571,D3,597.75,0.188,58,138.0
4572,F3,597.75,0.188,58,138.0
4573,G5,598.0,0.188,73,138.0
4574,E-5,598.0,0.188,73,138.0
4575,G3,598.0,0.188,62,138.0
4576,E-3,598.0,0.188,62,138.0
4577,G#5,598.5,0.188,79,138.0
4578,F6,598.5,0.188,79,138.0
4579,B2,598.5,0.188,62,138.0
4580,D3,598.5,0.188,62,138.0
4581,E-6,598.75,0.188,69,138.0
4582,G5,598.75,0.188,69,138.0
4583,E-3,598.75,0.188,58,138.0
4584,C3,598.75,0.188,58,138.0
4585,F5,599.0,0.25,73,138.0
4586,D6,599.0,0.25,73,138.0
4587,D3,599.0,0.25,62,138.0
4588,F3,599.0,0.25,62,138.0
4589,E-6,599.5,0.188,74,138.0
4590,G5,599.5,0.188,74,138.0
4591,C3,599.5,0.188,62,138.0
4592,A2,599.5,0.188,62,138.0
4593,F5,599.75,0.188,71,138.0
4594,D6,599.75,0.188,71,138.0
4595,B2,599.75,0.188,58,138.0
4596,D3,599.75,0.188,58,138.0
4597,E-5,600.0,0.188,73,138.0
4598,C6,600.0,0.188,73,138.0
4599,E-3,600.0,0.188,62,138.0
4600,C3,600.0,0.188,62,138.0
4601,G5,600.5,0.188,73,138.0
4602,B-5,600.5,0.188,73,138.0
4603,C#4,600.5,0.188,62,138.0
4604,F4,600.5,0.188,62,138.0
4605,G#5,600.75,0.188,69,138.0
4606,C6,600.75,0.188,69,138.0
4607,E-4,600.75,0.188,58,138.0
4608,C4,600.75,0.188,58,138.0
4609,C#6,601.0,0.25,74,138.0
4610,B-5,601.0,0.25,74,138.0
4611,C#4,601.0,0.25,62,138.0
4612,B-3,601.0,0.25,62,138.0
4613,F5,601.5,0.188,76,138.0
4614,G#5,601.5,0.188,76,138.0
4615,C4,601.5,0.188,63,138.0
4616,E-4,601.5,0.188,63,138.0
4617,G5,601.75,0.188,74,138.0
4618,B-5,601.75,0.188,74,138.0
4619,C#4,601.75,0.188,60,138.0
4620,B-3,601.75,0.188,60,138.0
4621,G#5,602.0,0.188,76,138.0
4622,C6,602.0,0.188,76,138.0
4623,C4,602.0,0.188,64,138.0
4624,G#3,602.0,0.188,64,138.0
4625,C5,602.5,0.5,71,138.0
4626,E-5,602.5,0.188,83,138.0
4627,G#3,602.5,0.188,65,138.0
4628,C4,602.5,0.188,65,138.0
4629,F5,602.75,0.188,80,138.0
4630,G5,603.0,0.5,78,138.0
4631,B4,603.0,0.5,78,138.0
4632,G3,603.0,0.5,65,138.0
4633,D4,603.0,0.5,65,138.0
4634,B4,603.75,0.25,86,138.0
4635,D5,603.75,0.25,86,138.0
4636,G5,604.0,1.75,94,138.0
4637,B5,604.0,1.75,94,138.0
4638,G4,604.75,0.248,70,138.0
4639,B4,604.75,0.248,70,138.0
4640,G4,605.0,0.75,78,138.0
4641,B4,605.0,0.75,78,138.0
4642,B4,605.75,0.25,80,138.0
4643,D5,605.75,0.25,80,138.0
4644,B3,605.75,0.248,62,138.0
4645,G3,605.75,0.248,62,138.0
4646,G5,606.0,1.5,94,138.0
4647,B5,606.0,1.5,94,138.0
4648,G3,606.0,0.75,69,138.0
4649,B3,606.0,0.75,69,138.0
4650,G2,606.75,0.248,56,138.0
4651,B2,606.75,0.248,56,138.0
4652,G2,607.0,0.5,62,138.0
4653,B2,607.0,0.5,62,138.0
4654,E-6,607.5,0.25,53,138.0
4655,B5,607.5,0.5,49,138.0
4656,G5,607.5,0.5,49,138.0
4657,D6,607.75,0.25,45,138.0
4658,G6,608.0,0.25,53,138.0
4659,D6,608.0,0.5,45,138.0
4660,B5,608.0,0.5,45,138.0
4661,F6,608.25,0.25,45,138.0
4662,E-6,608.5,0.25,53,138.0
4663,D6,608.75,0.25,47,138.0
4664,G5,609.0,0.25,53,138.0
4665,B4,609.0,0.5,45,138.0
4666,D5,609.0,0.5,45,138.0
4667,F5,609.25,0.25,45,138.0
4668,E-5,609.5,0.25,53,138.0
4669,D5,609.75,0.25,47,138.0
4670,G4,610.0,0.25,53,138.0
4671,B3,610.0,0.5,45,138.0
4672,D4,610.0,0.5,45,138.0
4673,F4,610.25,0.25,45,138.0
4674,E-4,610.5,0.25,53,138.0
4675,D4,610.75,0.25,47,138.0
4676,G5,611.0,0.25,53,138.0
4677,D5,611.0,0.5,45,138.0
4678,B4,611.0,0.5,45,138.0
4679,F5,611.25,0.25,45,138.0
4680,E-5,611.5,0.25,53,138.0
4681,D5,611.75,0.25,47,138.0
4682,C4,612.0,0.75,75,138.0
4683,G5,612.0,1.75,91,138.0
4684,E-6,612.0,1.75,91,138.0
4685,C6,612.0,1.75,91,138.0
4686,E-5,612.75,0.248,70,138.0
4687,C5,612.75,0.248,70,138.0
4688,C5,613.0,0.75,78,138.0
4689,E-5,613.0,0.75,78,138.0
4690,G5,613.75,1.75,80,138.0
4691,E-5,613.75,1.75,80,138.0
4692,C4,613.75,0.248,62,138.0
4693,E-4,613.75,0.248,62,138.0
4694,C6,614.0,1.5,94,138.0
4695,E-6,614.0,1.5,94,138.0
4696,C4,614.0,0.75,69,138.0
4697,E-4,614.0,0.75,69,138.0
4698,C3,614.75,0.248,56,138.0
4699,E-3,614.75,0.248,56,138.0
4700,E-3,615.0,0.5,62,138.0
4701,C3,615.0,0.5,62,138.0
4702,F6,615.5,0.25,53,138.0
4703,C6,615.5,0.5,49,138.0
4704,G5,615.5,0.5,49,138.0
4705,E-6,615.75,0.25,45,138.0
4706,G#6,616.0,0.25,53,138.0
4707,E-6,616.0,0.5,45,138.0
4708,C6,616.0,0.5,45,138.0
4709,G6,616.25,0.25,45,138.0
4710,F6,616.5,0.25,53,138.0
4711,E-6,616.75,0.25,47,138.0
4712,G#5,617.0,0.25,53,138.0
4713,C5,617.0,0.5,45,138.0
4714,E-5,617.0,0.5,45,138.0
4715,G5,617.235,0.25,45,138.0
4716,F5,617.5,0.25,53,138.0
4717,E-5,617.75,0.25,47,138.0
4718,G#4,618.0,0.25,53,138.0
4719,E-4,618.0,0.5,45,138.0
4720,C4,618.0,0.5,45,138.0
4721,G4,618.25,0.25,45,138.0
4722,F4,618.5,0.25,53,138.0
4723,E-4,618.75,0.25,47,138.0
4724,G#5,619.0,0.25,53,138.0
4725,E-5,619.0,0.5,45,138.0
4726,C5,619.0,0.5,45,138.0
4727,G5,619.25,0.25,45,138.0
4728,F5,619.5,0.25,53,138.0
4729,E-5,619.75,0.25,47,138.0
4730,B-3,620.0,0.75,75,138.0
4731,F5,620.0,1.75,91,138.0
4732,D6,620.0,1.75,91,138.0
4733,F6,620.0,1.75,91,138.0
4734,D5,620.75,0.248,70,138.0
4735,B-4,620.75,0.248,70,138.0
4736,D5,621.0,0.75,78,138.0
4737,B-4,621.0,0.75,78,138.0
4738,D5,621.75,0.25,80,138.0
4739,F5,621.75,0.25,80,138.0
4740,D4,621.75,0.248,62,138.0
4741,B-3,621.75,0.248,62,138.0
4742,F6,622.0,1.5,94,138.0
4743,D6,622.0,1.5,94,138.0
4744,B-3,622.0,0.75,69,138.0
4745,D4,622.0,0.75,69,138.0
4746,F5,622.75,0.25,73,138.0
4747,B-2,622.75,0.248,56,138.0
4748,D3,622.75,0.248,56,138.0
4749,B-5,623.0,0.5,67,138.0
4750,B-2,623.0,0.5,62,138.0
4751,D3,623.0,0.5,62,138.0
4752,G6,623.5,0.25,53,138.0
4753,D6,623.5,0.5,49,138.0
4754,B-5,623.5,0.5,49,138.0
4755,F6,623.75,0.25,45,138.0
4756,B-6,624.0,0.25,58,138.0
4757,D6,624.0,0.5,49,138.0
4758,F6,624.0,0.5,49,138.0
4759,G#6,624.25,0.25,50,138.0
4760,G6,624.5,0.25,60,138.0
4761,F6,624.75,0.25,54,138.0
4762,B-5,625.0,0.25,63,138.0
4763,F5,625.0,0.5,54,138.0
4764,D5,625.0,0.5,54,138.0
4765,G#5,625.235,0.25,54,138.0
4766,G5,625.5,0.25,66,138.0
4767,F5,625.75,0.25,59,138.0
4768,B-4,626.0,0.25,68,138.0
4769,F4,626.0,0.5,58,138.0
4770,D4,626.0,0.5,58,138.0
4771,G#4,626.25,0.25,59,138.0
4772,G4,626.5,0.25,71,138.0
4773,F4,626.75,0.25,64,138.0
4774,B-5,627.0,0.25,74,138.0
4775,F5,627.0,0.5,63,138.0
4776,D5,627.0,0.5,63,138.0
4777,G#5,627.25,0.25,63,138.0
4778,G5,627.5,0.25,76,138.0
4779,F5,627.75,0.25,69,138.0
4780,E-6,628.0,1.75,94,138.0
4781,G6,628.0,1.75,94,138.0
4782,E-4,628.0,0.75,75,138.0
4783,E-5,628.0,0.75,75,138.0
4784,G5,628.75,0.248,70,138.0
4785,E-5,628.75,0.248,70,138.0
4786,E-5,629.0,0.75,78,138.0
4787,G5,629.0,0.75,78,138.0
4788,G5,629.75,0.25,73,138.0
4789,B-5,629.75,0.25,73,138.0
4790,G4,629.75,0.248,62,138.0
4791,E-4,629.75,0.248,62,138.0
4792,G6,630.0,1.5,94,138.0
4793,E-6,630.0,1.5,94,138.0
4794,E-4,630.0,0.75,69,138.0
4795,G4,630.0,0.75,69,138.0
4796,G5,630.75,0.25,87,138.0
4797,E-3,630.75,0.248,64,138.0
4798,E-4,630.75,0.248,64,138.0
4799,C6,631.0,0.5,80,138.0
4800,E-4,631.0,0.5,70,138.0
4801,E-3,631.0,0.5,70,138.0
4802,F#5,631.75,0.25,80,138.0
4803,A5,631.75,0.25,80,138.0
4804,A6,632.0,1.75,98,138.0
4805,F#6,632.0,1.75,98,138.0
4806,D5,632.75,0.248,73,138.0
4807,D4,632.75,0.248,73,138.0
4808,D5,633.0,0.75,81,138.0
4809,D4,633.0,0.75,81,138.0
4810,A5,633.75,0.25,76,138.0
4811,F#5,633.75,0.25,76,138.0
4812,D3,633.75,0.248,65,138.0
4813,D4,633.75,0.248,65,138.0
4814,A6,634.0,1.5,106,138.0
4815,F#6,634.0,1.0,90,138.0
4816,D4,634.0,0.75,72,138.0
4817,D3,634.0,0.75,72,138.0
4818,A5,634.75,0.25,91,138.0
4819,D3,634.75,0.248,66,138.0
4820,D2,634.75,0.248,66,138.0
4821,D6,635.0,0.5,84,138.0
4822,D3,635.0,0.5,74,138.0
4823,D2,635.0,0.5,74,138.0
4824,G#5,635.75,0.25,84,138.0
4825,B5,635.75,0.25,84,138.0
4826,B6,636.0,1.75,85,138.0
4827,D6,636.0,1.75,85,138.0
4828,F6,636.0,1.75,85,138.0
4829,G#6,636.0,1.75,85,138.0
4830,B5,636.0,1.75,85,138.0
4831,D4,636.75,0.248,61,138.0
4832,F4,636.75,0.248,61,138.0
4833,G#4,636.75,0.248,61,138.0
4834,D5,636.75,0.248,61,138.0
4835,B4,636.75,0.248,61,138.0
4836,G#4,637.0,0.75,68,138.0
4837,B4,637.0,0.75,68,138.0
4838,D4,637.0,0.75,68,138.0
4839,D5,637.0,0.75,68,138.0
4840,F4,637.0,0.75,68,138.0
4841,G#5,637.75,0.25,76,138.0
4842,B5,637.75,0.25,76,138.0
4843,G#3,637.75,0.248,55,138.0
4844,F3,637.75,0.248,55,138.0
4845,D3,637.75,0.248,55,138.0
4846,B3,637.75,0.248,55,138.0
4847,D4,637.75,0.248,55,138.0
4848,F6,638.0,1.75,85,138.0
4849,B5,638.0,1.75,85,138.0
4850,D6,638.0,1.75,85,138.0
4851,G#6,638.0,1.75,85,138.0
4852,B6,638.0,1.75,85,138.0
4853,D4,638.0,0.75,68,138.0
4854,D3,638.0,0.75,68,138.0
4855,B3,638.0,0.75,68,138.0
4856,G#3,638.0,0.75,68,138.0
4857,F3,638.0,0.75,68,138.0
4858,G#2,638.75,0.248,55,138.0
4859,D2,638.75,0.248,55,138.0
4860,F2,638.75,0.248,55,138.0
4861,B2,638.75,0.248,55,138.0
4862,D3,638.75,0.248,55,138.0
4863,B2,639.0,0.75,68,138.0
4864,D3,639.0,0.75,68,138.0
4865,D2,639.0,0.75,68,138.0
4866,F2,639.0,0.75,68,138.0
4867,G#2,639.0,0.75,68,138.0
4868,B-5,639.75,0.25,76,138.0
4869,E5,639.75,0.25,76,138.0
4870,G5,639.75,0.25,76,138.0
4871,C#6,639.75,0.25,76,138.0
4872,B-6,640.0,1.75,86,138.0
4873,G6,640.0,1.75,86,138.0
4874,C#7,640.0,1.75,86,138.0
4875,E6,640.0,1.75,86,138.0
4876,G4,640.75,0.248,62,138.0
4877,D4,640.75,0.248,62,138.0
4878,B-4,640.75,0.248,62,138.0
4879,E5,640.75,0.248,62,138.0
4880,E5,641.0,0.75,69,138.0
4881,D4,641.0,0.75,69,138.0
4882,B-4,641.0,0.75,69,138.0
4883,G4,641.0,0.75,69,138.0
4884,B-5,641.75,0.25,76,138.0
4885,C#6,641.75,0.25,76,138.0
4886,G5,641.75,0.25,76,138.0
4887,E5,641.75,0.25,76,138.0
4888,B-3,641.75,0.248,56,138.0
4889,D3,641.75,0.248,56,138.0
4890,E4,641.75,0.248,56,138.0
4891,G3,641.75,0.248,56,138.0
4892,G6,642.0,1.75,86,138.0
4893,E6,642.0,1.75,86,138.0
4894,B-6,642.0,1.75,86,138.0
4895,C#7,642.0,1.75,86,138.0
4896,B-3,642.0,0.75,69,138.0
4897,D3,642.0,0.75,69,138.0
4898,E4,642.0,0.75,69,138.0
4899,G3,642.0,0.75,69,138.0
4900,B-2,642.75,0.248,56,138.0
4901,G2,642.75,0.248,56,138.0
4902,E3,642.75,0.248,56,138.0
4903,D2,642.75,0.248,56,138.0
4904,G2,643.0,0.75,69,138.0
4905,D2,643.0,0.75,69,138.0
4906,E3,643.0,0.75,69,138.0
4907,B-2,643.0,0.75,69,138.0
4908,D6,643.75,0.25,83,138.0
4909,A5,643.75,0.25,83,138.0
4910,F#5,643.75,0.25,83,138.0
4911,D6,644.0,0.75,94,138.0
4912,F#6,644.0,0.75,94,138.0
4913,A6,644.0,0.75,94,138.0
4914,D7,644.0,0.75,94,138.0
4915,D6,644.75,0.25,80,138.0
4916,D5,644.75,0.248,59,138.0
4917,D4,644.75,0.248,59,138.0
4918,F#4,644.75,0.248,59,138.0
4919,A4,644.75,0.248,59,138.0
4920,D7,645.0,0.75,100,138.0
4921,D5,645.0,0.744,71,138.0
4922,A4,645.0,0.744,71,138.0
4923,F#4,645.0,0.744,71,138.0
4924,D4,645.0,0.744,71,138.0
4925,D5,645.75,0.25,74,138.0
4926,D3,645.75,0.248,57,138.0
4927,D4,645.75,0.248,57,138.0
4928,D6,646.0,0.75,93,138.0
4929,D4,646.0,0.75,64,138.0
4930,D3,646.0,0.75,64,138.0
4931,D5,646.75,0.25,68,138.0
4932,D3,646.75,0.248,52,138.0
4933,D2,646.75,0.248,52,138.0
4934,D6,647.0,0.75,85,138.0
4935,D2,647.0,0.75,59,138.0
4936,D3,647.0,0.75,59,138.0
4937,D5,647.75,0.25,62,138.0
4938,D3,647.75,0.25,52,138.0
4939,D6,648.0,0.75,78,138.0
4940,D2,648.0,0.75,59,138.0
4941,D5,648.75,0.25,56,138.0
4942,D4,648.75,0.25,47,138.0
4943,D6,649.0,0.75,70,138.0
4944,D3,649.0,0.75,53,138.0
4945,D5,649.75,0.25,51,138.0
4946,D4,649.75,0.25,42,138.0
4947,D6,650.0,0.75,63,138.0
4948,D3,650.0,0.75,46,138.0
4949,D5,650.75,0.25,45,138.0
4950,D4,650.75,0.25,37,138.0
4951,D6,651.0,0.75,55,138.0
4952,D3,651.0,0.75,42,138.0
4953,E-5,651.75,0.25,39,138.0
4954,B4,651.75,0.25,32,138.0
4955,E-6,652.0,2.0,58,138.0
4956,B3,652.0,0.333,40,138.0
4957,B4,652.333,0.333,32,138.0
4958,B-4,652.667,0.333,32,138.0
4959,E-5,653.0,1.0,49,138.0
4960,B4,653.0,0.333,40,138.0
4961,F#4,653.333,0.333,33,138.0
4962,B4,653.667,0.333,33,138.0
4963,E6,654.0,1.0,57,138.0
4964,E5,654.0,2.0,48,138.0
4965,G4,654.0,0.333,40,138.0
4966,B4,654.333,0.333,31,138.0
4967,G4,654.667,0.333,31,138.0
4968,G5,655.0,1.0,61,138.0
4969,B4,655.0,0.333,40,138.0
4970,E4,655.333,0.333,33,138.0
4971,B4,655.667,0.333,33,138.0
4972,F#5,656.0,1.0,67,138.0
4973,B5,656.0,2.0,56,138.0
4974,E-4,656.0,0.333,40,138.0
4975,B4,656.333,0.333,31,138.0
4976,E-4,656.667,0.333,31,138.0
4977,E-5,657.0,1.0,61,138.0
4978,B4,657.0,0.333,40,138.0
4979,B3,657.333,0.333,32,138.0
4980,B4,657.667,0.333,32,138.0
4981,B3,658.0,0.333,40,138.0
4982,E5,658.0,1.0,54,138.0
4983,B4,658.0,1.0,54,138.0
4984,G5,658.0,1.0,54,138.0
4985,E4,658.333,0.333,33,138.0
4986,B3,658.667,0.333,33,138.0
4987,G4,659.0,0.333,40,138.0
4988,B4,659.0,1.0,58,138.0
4989,E5,659.0,1.0,58,138.0
4990,E4,659.333,0.333,32,138.0
4991,G4,659.667,0.333,32,138.0
4992,D5,660.0,1.0,66,138.0
4993,F#4,660.0,0.333,40,138.0
4994,B4,660.333,0.333,32,138.0
4995,F#4,660.667,0.333,32,138.0
4996,E-5,661.0,1.0,59,138.0
4997,B4,661.0,0.333,40,138.0
4998,F#4,661.333,0.333,36,138.0
4999,B4,661.667,0.333,36,138.0
5000,F#5,662.0,1.0,64,138.0
5001,F#4,662.0,0.333,40,138.0
5002,B-4,662.333,0.333,33,138.0
5003,F#4,662.667,0.333,33,138.0
5004,E5,663.0,0.5,63,138.0
5005,B-4,663.0,0.333,40,138.0
5006,F#4,663.333,0.333,34,138.0
5007,C#5,663.5,0.5,57,138.0
5008,B-4,663.667,0.333,34,138.0
5009,E-5,664.0,0.5,66,138.0
5010,F#4,664.0,0.333,40,138.0
5011,B4,664.333,0.333,32,138.0
5012,D4,664.5,0.5,48,138.0
5013,F#4,664.667,0.333,32,138.0
5014,E-4,665.0,1.0,56,138.0
5015,B4,665.0,0.333,40,138.0
5016,F#4,665.333,0.333,36,138.0
5017,B4,665.667,0.333,36,138.0
5018,F#4,666.0,1.0,64,138.0
5019,B-4,666.0,0.333,40,138.0
5020,C#5,666.333,0.333,33,138.0
5021,B-4,666.667,0.333,33,138.0
5022,E4,667.0,0.5,52,138.0
5023,C#5,667.0,0.333,40,138.0
5024,B-4,667.333,0.333,34,138.0
5025,C#4,667.5,0.5,48,138.0
5026,C#5,667.667,0.333,34,138.0
5027,F#4,668.0,0.333,40,138.0
5028,B4,668.0,0.25,59,138.0
5029,E-5,668.0,0.25,59,138.0
5030,E5,668.25,0.25,48,138.0
5031,B4,668.333,0.333,32,138.0
5032,E-5,668.5,0.25,48,138.0
5033,F#4,668.667,0.333,32,138.0
5034,D5,668.75,0.25,48,138.0
5035,E-5,669.0,0.25,55,138.0
5036,B4,669.0,0.333,40,138.0
5037,E5,669.25,0.25,48,138.0
5038,F#4,669.333,0.333,36,138.0
5039,F#5,669.5,0.25,48,138.0
5040,B4,669.667,0.333,36,138.0
5041,F5,669.75,0.25,48,138.0
5042,G#5,670.0,0.25,57,138.0
5043,F#4,670.0,0.333,40,138.0
5044,F#5,670.25,0.25,54,138.0
5045,B-4,670.333,0.333,33,138.0
5046,F5,670.5,0.25,54,138.0
5047,F#4,670.667,0.333,33,138.0
5048,F#5,670.75,0.25,54,138.0
5049,E5,671.0,0.25,56,138.0
5050,B-4,671.0,0.333,40,138.0
5051,E-5,671.25,0.25,53,138.0
5052,F#4,671.333,0.333,34,138.0
5053,E5,671.5,0.25,51,138.0
5054,B-4,671.667,0.333,34,138.0
5055,C#5,671.75,0.25,45,138.0
5056,E-4,672.0,0.25,59,138.0
5057,E-5,672.0,0.5,59,138.0
5058,F#4,672.0,0.333,40,138.0
5059,E4,672.25,0.25,48,138.0
5060,B4,672.333,0.333,32,138.0
5061,E-4,672.5,0.25,48,138.0
5062,F#4,672.667,0.333,32,138.0
5063,D4,672.75,0.25,48,138.0
5064,E-4,673.0,0.25,55,138.0
5065,B4,673.0,0.333,40,138.0
5066,E4,673.25,0.25,48,138.0
5067,F#4,673.333,0.333,36,138.0
5068,F#4,673.5,0.25,48,138.0
5069,B4,673.667,0.333,36,138.0
5070,F4,673.75,0.25,48,138.0
5071,G#4,674.0,0.25,57,138.0
5072,B-4,674.0,0.333,40,138.0
5073,F#4,674.25,0.25,54,138.0
5074,C#5,674.333,0.333,33,138.0
5075,F4,674.5,0.25,54,138.0
5076,B-4,674.667,0.333,33,138.0
5077,F#4,674.75,0.25,54,138.0
5078,E4,675.0,0.25,56,138.0
5079,C#5,675.0,0.333,40,138.0
5080,E-4,675.25,0.25,53,138.0
5081,E4,675.5,0.25,51,138.0
5082,F#4,675.75,0.25,45,138.0
5083,F#1,675.75,0.25,70,138.0
5084,B-1,676.0,0.746,68,138.0
5085,C#4,676.0,0.5,54,138.0
5086,F#3,676.0,0.5,54,138.0
5087,E4,676.0,0.5,54,138.0
5088,B-1,676.75,0.246,61,138.0
5089,B-1,677.0,0.375,68,138.0
5090,B1,677.5,0.188,64,138.0
5091,F#3,677.75,0.188,62,138.0
5092,B-1,677.75,0.188,62,138.0
5093,B-1,678.0,0.375,61,138.0
5094,B-3,678.0,0.746,61,138.0
5095,F#1,678.5,0.375,61,138.0
5096,B-3,678.75,0.246,54,138.0
5097,B-3,679.0,0.375,61,138.0
5098,B3,679.5,0.094,48,138.0
5099,F#4,679.75,0.188,63,138.0
5100,B-3,679.75,0.188,51,138.0
5101,C#5,680.0,0.746,61,138.0
5102,B-3,680.0,0.25,51,138.0
5103,F#3,680.5,0.25,51,138.0
5104,C#5,680.75,0.246,54,138.0
5105,C#5,681.0,0.375,61,138.0
5106,E-5,681.5,0.188,48,138.0
5107,C#4,681.75,0.188,57,138.0
5108,C#5,681.75,0.188,57,138.0
5109,C#5,682.0,0.25,51,138.0
5110,E4,682.0,0.746,61,138.0
5111,B-4,682.5,0.25,51,138.0
5112,E4,682.75,0.246,54,138.0
5113,E4,683.0,0.375,61,138.0
5114,F#4,683.5,0.188,48,138.0
5115,E4,683.75,0.188,51,138.0
5116,F#1,683.75,0.25,63,138.0
5117,E4,684.0,0.25,51,138.0
5118,E2,684.0,0.746,61,138.0
5119,C#4,684.5,0.25,51,138.0
5120,F#2,684.75,0.25,58,138.0
5121,E2,684.75,0.25,58,138.0
5122,E3,685.0,0.75,61,138.0
5123,E2,685.0,0.375,61,138.0
5124,F#4,685.75,0.188,63,138.0
5125,E3,685.75,0.25,54,138.0
5126,E5,686.0,0.746,67,138.0
5127,E3,686.0,0.375,61,138.0
5128,E4,686.75,0.188,58,138.0
5129,E5,686.75,0.188,58,138.0
5130,C#5,687.0,0.75,61,138.0
5131,E5,687.0,0.375,61,138.0
5132,C#5,687.75,0.25,54,138.0
5133,C#2,687.75,0.25,63,138.0
5134,C#5,688.0,0.375,61,138.0
5135,B-2,688.0,0.746,61,138.0
5136,C#3,688.75,0.25,58,138.0
5137,B-2,688.75,0.25,58,138.0
5138,B-3,689.0,0.75,61,138.0
5139,B-2,689.0,0.375,61,138.0
5140,C#5,689.75,0.188,63,138.0
5141,B-3,689.75,0.246,54,138.0
5142,B-5,690.0,0.746,67,138.0
5143,B-3,690.0,0.375,61,138.0
5144,C#4,690.75,0.188,58,138.0
5145,B-5,690.75,0.188,58,138.0
5146,B-4,691.0,0.75,61,138.0
5147,B-5,691.0,0.375,61,138.0
5148,B-4,691.75,0.246,54,138.0
5149,E2,691.75,0.188,63,138.0
5150,B-4,692.0,0.375,61,138.0
5151,C#3,692.0,1.75,72,138.0
5152,E3,692.75,0.188,64,138.0
5153,C#4,693.0,1.75,62,138.0
5154,G2,693.75,0.188,66,138.0
5155,E3,694.0,1.75,75,138.0
5156,G3,694.75,0.188,68,138.0
5157,E4,695.0,1.25,71,138.0
5158,G2,695.75,0.188,69,138.0
5159,E3,696.0,0.75,77,138.0
5160,G3,696.25,0.188,70,138.0
5161,E4,696.5,0.75,76,138.0
5162,G4,696.75,0.188,71,138.0
5163,E5,697.0,0.75,77,138.0
5164,G5,697.25,0.188,72,138.0
5165,E6,697.5,0.75,78,138.0
5166,G#2,697.75,0.188,73,138.0
5167,E3,698.0,0.75,71,138.0
5168,G#3,698.25,0.188,74,138.0
5169,E4,698.5,0.75,79,138.0
5170,G#4,698.75,0.188,74,138.0
5171,E5,699.0,0.75,79,138.0
5172,G#5,699.25,0.188,76,138.0
5173,E6,699.5,0.75,83,138.0
5174,A2,699.75,0.188,76,138.0
5175,E3,700.0,0.75,75,138.0
5176,A3,700.25,0.188,78,138.0
5177,E4,700.5,0.75,84,138.0
5178,A4,700.75,0.188,78,138.0
5179,E5,701.0,0.75,86,138.0
5180,A5,701.25,0.188,81,138.0
5181,E6,701.5,0.75,88,138.0
5182,A2,701.75,0.188,83,138.0
5183,F3,702.0,0.75,93,138.0
5184,A3,702.25,0.188,85,138.0
5185,F4,702.5,0.75,93,138.0
5186,A4,702.75,0.188,86,138.0
5187,F5,703.0,0.75,97,138.0
5188,A5,703.25,0.188,89,138.0
5189,F6,703.5,0.5,101,138.0
5190,B-2,703.75,0.25,94,138.0
5191,B-1,703.75,0.25,94,138.0
5192,D5,704.0,0.352,86,138.0
5193,B-5,704.0,0.352,86,138.0
5194,F5,704.0,0.352,86,138.0
5195,D6,704.0,0.352,86,138.0
5196,B-2,704.0,0.5,110,138.0
5197,B-3,704.0,0.5,110,138.0
5198,C4,704.5,0.25,97,138.0
5199,B-3,704.75,0.25,88,138.0
5200,D5,704.75,0.25,96,138.0
5201,B-5,704.75,0.25,96,138.0
5202,D6,704.75,0.25,96,138.0
5203,F5,704.75,0.25,96,138.0
5204,F3,705.0,0.5,97,138.0
5205,F5,705.0,0.375,86,138.0
5206,D6,705.0,0.375,86,138.0
5207,B-5,705.0,0.375,86,138.0
5208,D5,705.0,0.375,86,138.0
5209,G3,705.5,0.25,97,138.0
5210,D5,705.5,0.094,89,138.0
5211,E-6,705.5,0.094,89,138.0
5212,B-5,705.5,0.094,89,138.0
5213,F5,705.5,0.094,89,138.0
5214,F3,705.75,0.25,90,138.0
5215,D5,705.75,0.094,90,138.0
5216,D6,705.75,0.094,90,138.0
5217,F5,705.75,0.094,90,138.0
5218,B-5,705.75,0.094,90,138.0
5219,D3,706.0,0.5,97,138.0
5220,F5,706.0,0.25,96,138.0
5221,D5,706.0,0.25,96,138.0
5222,B-5,706.0,0.25,96,138.0
5223,D6,706.0,0.25,96,138.0
5224,E-3,706.5,0.25,97,138.0
5225,D5,706.5,0.25,88,138.0
5226,B-4,706.5,0.25,88,138.0
5227,F5,706.5,0.25,88,138.0
5228,B-5,706.5,0.25,88,138.0
5229,D3,706.75,0.25,91,138.0
5230,B-2,707.0,0.5,97,138.0
5231,C3,707.5,0.25,97,138.0
5232,B-2,707.75,0.125,97,138.0
5233,F5,707.75,0.25,97,138.0
5234,D5,707.75,0.25,97,138.0
5235,D2,707.875,1.0,88,138.0
5236,D3,707.875,1.0,88,138.0
5237,D4,708.0,0.5,110,138.0
5238,B-5,708.0,0.375,88,138.0
5239,F5,708.0,0.375,88,138.0
5240,F6,708.0,0.375,88,138.0
5241,E-4,708.5,0.25,97,138.0
5242,D4,708.75,0.25,88,138.0
5243,B-5,708.75,0.25,96,138.0
5244,F5,708.75,0.25,96,138.0
5245,F6,708.75,0.25,96,138.0
5246,D6,708.75,0.25,96,138.0
5247,B-3,709.0,0.5,97,138.0
5248,D6,709.0,0.375,86,138.0
5249,B-5,709.0,0.375,86,138.0
5250,F5,709.0,0.375,86,138.0
5251,F6,709.0,0.375,86,138.0
5252,D4,709.5,0.25,97,138.0
5253,G6,709.5,0.094,89,138.0
5254,D6,709.5,0.094,89,138.0
5255,B-5,709.5,0.094,89,138.0
5256,F5,709.5,0.094,89,138.0
5257,B-3,709.75,0.25,90,138.0
5258,F6,709.75,0.094,90,138.0
5259,D6,709.75,0.094,90,138.0
5260,F5,709.75,0.094,90,138.0
5261,B-5,709.75,0.094,90,138.0
5262,F3,710.0,0.5,97,138.0
5263,F6,710.0,0.25,96,138.0
5264,D6,710.0,0.25,96,138.0
5265,B-5,710.0,0.25,96,138.0
5266,F5,710.0,0.25,96,138.0
5267,B-3,710.5,0.25,93,138.0
5268,D6,710.5,0.25,88,138.0
5269,D5,710.5,0.25,88,138.0
5270,F5,710.5,0.25,88,138.0
5271,B-5,710.5,0.25,88,138.0
5272,F3,710.75,0.25,88,138.0
5273,D3,711.0,0.25,78,138.0
5274,B-2,711.25,0.25,73,138.0
5275,E-3,711.5,0.25,40,138.0
5276,G5,711.5,0.25,50,138.0
5277,B-5,711.5,0.25,50,138.0
5278,C3,711.75,0.25,35,138.0
5279,A5,711.75,0.25,47,138.0
5280,C6,711.75,0.25,47,138.0
5281,B-2,712.0,0.5,29,138.0
5282,F5,712.0,1.0,54,138.0
5283,D6,712.0,1.0,54,138.0
5284,B-5,712.0,1.0,54,138.0
5285,C3,712.5,0.25,34,138.0
5286,B-2,712.75,0.25,31,138.0
5287,F5,713.0,0.5,50,138.0
5288,C6,713.0,0.5,50,138.0
5289,A5,713.0,0.5,50,138.0
5290,F2,713.0,0.5,33,138.0
5291,F3,713.0,0.5,33,138.0
5292,F4,713.5,0.5,41,138.0
5293,E-3,713.5,0.25,33,138.0
5294,A4,713.5,0.25,52,138.0
5295,C5,713.5,0.25,52,138.0
5296,D3,713.75,0.25,30,138.0
5297,B4,713.75,0.25,40,138.0
5298,D5,713.75,0.25,40,138.0
5299,C3,714.0,0.5,35,138.0
5300,G4,714.0,1.0,52,138.0
5301,C5,714.0,1.0,52,138.0
5302,E-5,714.0,1.0,52,138.0
5303,D3,714.5,0.25,33,138.0
5304,C3,714.75,0.25,29,138.0
5305,G4,715.0,0.5,46,138.0
5306,D5,715.0,0.5,46,138.0
5307,B-4,715.0,0.5,46,138.0
5308,G2,715.0,0.5,31,138.0
5309,G3,715.0,0.5,31,138.0
5310,D5,715.5,0.25,58,138.0
5311,B-4,715.5,1.0,49,138.0
5312,F3,715.5,0.25,30,138.0
5313,G#3,715.5,0.25,30,138.0
5314,E-5,715.75,0.25,60,138.0
5315,E-3,715.75,0.25,30,138.0
5316,G3,715.75,0.25,30,138.0
5317,F5,716.0,0.75,63,138.0
5318,D3,716.0,0.5,34,138.0
5319,F3,716.0,0.5,34,138.0
5320,G4,716.5,0.5,50,138.0
5321,B-4,716.5,0.5,50,138.0
5322,C#3,716.5,0.5,30,138.0
5323,E3,716.5,0.5,30,138.0
5324,G5,716.75,0.25,60,138.0
5325,G4,717.0,0.5,62,138.0
5326,F5,717.0,0.25,62,138.0
5327,C3,717.0,0.5,35,138.0
5328,E-3,717.0,0.5,35,138.0
5329,E-5,717.25,0.5,51,138.0
5330,A4,717.5,0.5,57,138.0
5331,F2,717.5,0.5,28,138.0
5332,C3,717.5,0.5,28,138.0
5333,F5,717.75,0.25,50,138.0
5334,B-4,718.0,0.5,51,138.0
5335,E-5,718.0,0.25,60,138.0
5336,G2,718.0,0.5,30,138.0
5337,B-2,718.0,0.5,30,138.0
5338,D5,718.25,0.25,46,138.0
5339,F4,718.5,0.25,45,138.0
5340,G#4,718.5,0.25,45,138.0
5341,D5,718.5,0.25,45,138.0
5342,F5,718.5,0.25,45,138.0
5343,D2,718.5,0.25,30,138.0
5344,B2,718.5,0.25,30,138.0
5345,G4,718.75,0.25,40,138.0
5346,C5,718.75,0.25,40,138.0
5347,E-5,718.75,0.25,40,138.0
5348,E-4,718.75,0.25,40,138.0
5349,E-2,718.75,0.25,26,138.0
5350,C3,718.75,0.25,26,138.0
5351,C4,719.0,0.5,38,138.0
5352,C5,719.0,0.5,38,138.0
5353,A4,719.0,0.5,38,138.0
5354,F2,719.0,0.5,26,138.0
5355,C3,719.0,0.5,26,138.0
5356,D5,719.5,0.25,58,138.0
5357,F3,719.5,0.5,28,138.0
5358,B-3,719.5,0.25,33,138.0
5359,E-5,719.75,0.25,60,138.0
5360,C4,719.75,0.25,33,138.0
5361,F5,720.0,0.75,63,138.0
5362,F3,720.0,3.5,31,138.0
5363,D4,720.0,0.75,37,138.0
5364,A4,720.25,0.25,45,138.0
5365,B-4,720.5,0.75,54,138.0
5366,G5,720.75,0.25,60,138.0
5367,E-4,720.75,0.25,32,138.0
5368,E-5,721.0,0.75,64,138.0
5369,C4,721.0,0.75,38,138.0
5370,F#4,721.25,0.25,47,138.0
5371,A4,721.5,0.75,53,138.0
5372,F5,721.75,0.25,50,138.0
5373,D4,721.75,0.25,30,138.0
5374,E-5,722.0,0.25,60,138.0
5375,C4,722.0,0.25,36,138.0
5376,B-3,722.25,0.25,30,138.0
5377,B-4,722.25,0.25,50,138.0
5378,D5,722.25,0.25,50,138.0
5379,F5,722.5,0.25,57,138.0
5380,F4,722.5,1.0,35,138.0
5381,D4,722.5,0.25,35,138.0
5382,E-5,722.75,0.25,55,138.0
5383,C4,722.75,0.25,30,138.0
5384,C5,723.0,0.5,50,138.0
5385,A3,723.0,0.5,36,138.0
5386,B-3,723.5,0.5,28,138.0
5387,C4,723.5,0.25,33,138.0
5388,E-5,723.5,0.25,54,138.0
5389,E-4,723.5,0.25,54,138.0
5390,D4,723.75,0.25,33,138.0
5391,F5,723.75,0.25,56,138.0
5392,F4,723.75,0.25,56,138.0
5393,G5,724.0,0.75,63,138.0
5394,G4,724.0,0.25,45,138.0
5395,B-3,724.0,2.5,31,138.0
5396,E-4,724.0,0.75,37,138.0
5397,A4,724.25,0.25,45,138.0
5398,B-4,724.5,0.75,54,138.0
5399,G#5,724.75,0.25,60,138.0
5400,F4,724.75,0.25,32,138.0
5401,F5,725.0,0.75,64,138.0
5402,D4,725.0,0.75,38,138.0
5403,A4,725.25,0.25,47,138.0
5404,B-4,725.5,1.0,53,138.0
5405,G5,725.75,0.25,50,138.0
5406,E-4,725.75,0.25,30,138.0
5407,F5,726.0,0.25,60,138.0
5408,D4,726.0,0.25,36,138.0
5409,E-5,726.25,0.25,50,138.0
5410,C4,726.25,0.25,30,138.0
5411,B-4,726.5,1.0,35,138.0
5412,G5,726.5,0.25,57,138.0
5413,B-3,726.5,1.0,31,138.0
5414,E-4,726.5,0.25,35,138.0
5415,F5,726.75,0.25,55,138.0
5416,D4,726.75,0.25,30,138.0
5417,D5,727.0,0.5,50,138.0
5418,F5,727.5,0.25,58,138.0
5419,B-3,727.5,0.5,28,138.0
5420,D4,727.5,0.25,33,138.0
5421,F#5,727.75,0.25,60,138.0
5422,E-4,727.75,0.25,33,138.0
5423,G#5,728.0,0.75,63,138.0
5424,B-3,728.0,1.0,31,138.0
5425,F4,728.0,0.75,37,138.0
5426,A4,728.25,0.25,45,138.0
5427,B-4,728.5,1.0,54,138.0
5428,B-5,728.75,0.25,60,138.0
5429,F#4,728.75,0.25,32,138.0
5430,F#5,729.0,0.5,64,138.0
5431,E-4,729.0,0.5,38,138.0
5432,C#4,729.5,0.5,28,138.0
5433,E-4,729.5,0.25,33,138.0
5434,F#4,729.5,0.25,54,138.0
5435,F#5,729.5,0.25,54,138.0
5436,F4,729.75,0.25,33,138.0
5437,G#4,729.75,0.25,56,138.0
5438,G#5,729.75,0.25,56,138.0
5439,B-5,730.0,0.75,63,138.0
5440,B-4,730.0,0.25,38,138.0
5441,C#4,730.0,2.0,31,138.0
5442,F#4,730.0,0.75,37,138.0
5443,C5,730.25,0.25,45,138.0
5444,C#5,730.5,0.75,54,138.0
5445,B5,730.75,0.25,60,138.0
5446,G#4,730.75,0.25,32,138.0
5447,G#5,731.0,0.5,64,138.0
5448,F4,731.0,0.25,38,138.0
5449,F5,731.25,0.25,45,138.0
5450,B4,731.25,0.25,38,138.0
5451,B-4,731.5,0.25,40,138.0
5452,F#5,731.5,0.25,52,138.0
5453,B-5,731.5,0.25,52,138.0
5454,G#4,731.75,0.25,40,138.0
5455,B5,731.75,0.25,56,138.0
5456,G#5,731.75,0.25,56,138.0
5457,B-5,732.0,0.5,65,138.0
5458,C#6,732.0,0.75,65,138.0
5459,C#4,732.0,2.0,31,138.0
5460,F#4,732.0,0.5,40,138.0
5461,F#5,732.5,1.0,54,138.0
5462,B-4,732.5,1.0,35,138.0
5463,E-6,732.75,0.25,64,138.0
5464,C#6,733.0,0.25,60,138.0
5465,B5,733.25,0.5,43,138.0
5466,F5,733.5,1.0,53,138.0
5467,G#4,733.5,1.0,41,138.0
5468,C#6,733.75,0.25,63,138.0
5469,B5,734.0,0.25,60,138.0
5470,C#4,734.0,2.0,45,138.0
5471,B-5,734.25,0.5,46,138.0
5472,F#5,734.5,0.75,53,138.0
5473,F#4,734.5,0.5,39,138.0
5474,B5,734.75,0.25,62,138.0
5475,B-5,735.0,0.25,58,138.0
5476,C#5,735.0,0.5,46,138.0
5477,F5,735.25,0.25,44,138.0
5478,G#5,735.25,0.25,44,138.0
5479,B4,735.5,0.5,43,138.0
5480,F#5,735.5,0.25,52,138.0
5481,B-5,735.5,0.25,52,138.0
5482,B5,735.75,0.25,55,138.0
5483,G#5,735.75,0.25,55,138.0
5484,C#4,736.0,2.0,47,138.0
5485,B4,736.0,0.25,55,138.0
5486,E-6,736.0,0.25,58,138.0
5487,G#5,736.0,0.25,58,138.0
5488,B-4,736.25,0.25,49,138.0
5489,C#6,736.25,0.25,52,138.0
5490,F5,736.25,0.25,52,138.0
5491,E-6,736.5,0.25,65,138.0
5492,F#5,736.5,0.75,52,138.0
5493,B4,736.5,0.25,54,138.0
5494,C#6,736.75,0.25,58,138.0
5495,B-4,736.75,0.25,50,138.0
5496,C#6,737.0,0.25,66,138.0
5497,B-4,737.0,0.25,55,138.0
5498,G#4,737.25,0.25,47,138.0
5499,B5,737.25,0.25,52,138.0
5500,E5,737.25,0.25,52,138.0
5501,C#6,737.5,0.25,67,138.0
5502,F5,737.5,0.75,53,138.0
5503,B-4,737.5,0.25,56,138.0
5504,B5,737.75,0.25,60,138.0
5505,G#4,737.75,0.25,49,138.0
5506,B5,738.0,0.25,67,138.0
5507,C#4,738.0,2.0,49,138.0
5508,G#4,738.0,0.25,56,138.0
5509,G4,738.25,0.25,49,138.0
5510,B-5,738.25,0.25,54,138.0
5511,C#5,738.25,0.25,54,138.0
5512,B5,738.5,0.25,68,138.0
5513,F#5,738.5,0.75,54,138.0
5514,E-5,738.5,0.25,57,138.0
5515,B-5,738.75,0.25,61,138.0
5516,C#5,738.75,0.25,50,138.0
5517,B-5,739.0,0.25,69,138.0
5518,C#5,739.0,0.5,57,138.0
5519,G#5,739.25,0.25,56,138.0
5520,F5,739.25,0.25,56,138.0
5521,B4,739.5,0.5,51,138.0
5522,B-5,739.5,0.25,62,138.0
5523,F#5,739.5,0.25,62,138.0
5524,G#5,739.75,0.25,57,138.0
5525,B5,739.75,0.25,57,138.0
5526,C#4,740.0,1.0,51,138.0
5527,A4,740.0,0.25,58,138.0
5528,F5,740.0,0.25,63,138.0
5529,E-6,740.0,0.25,63,138.0
5530,B-4,740.25,0.25,54,138.0
5531,F#5,740.25,0.25,54,138.0
5532,C#6,740.25,0.25,54,138.0
5533,F#5,740.5,0.5,48,138.0
5534,C#5,740.5,0.25,61,138.0
5535,B4,740.5,0.25,54,138.0
5536,C#6,740.75,0.246,63,138.0
5537,B-4,740.75,0.25,54,138.0
5538,C#4,741.0,1.0,52,138.0
5539,G4,741.0,0.25,59,138.0
5540,C#6,741.0,0.25,64,138.0
5541,E5,741.0,0.25,64,138.0
5542,G#4,741.25,0.25,52,138.0
5543,B5,741.25,0.25,56,138.0
5544,F5,741.25,0.25,56,138.0
5545,B4,741.5,0.25,62,138.0
5546,F5,741.5,0.5,49,138.0
5547,B-4,741.5,0.25,52,138.0
5548,B5,741.75,0.25,62,138.0
5549,G#4,741.75,0.25,53,138.0
5550,C#4,742.0,1.0,53,138.0
5551,F4,742.0,0.25,60,138.0
5552,B5,742.0,0.25,65,138.0
5553,F5,742.0,0.25,65,138.0
5554,F#4,742.25,0.25,57,138.0
5555,B-5,742.25,0.25,58,138.0
5556,F#5,742.25,0.25,58,138.0
5557,F#5,742.5,0.5,52,138.0
5558,B-4,742.5,0.25,65,138.0
5559,G#4,742.5,0.25,56,138.0
5560,B-5,742.75,0.246,67,138.0
5561,F#4,742.75,0.25,56,138.0
5562,B-5,743.0,0.25,75,138.0
5563,C#4,743.0,0.5,54,138.0
5564,F#4,743.0,0.25,62,138.0
5565,G#5,743.25,0.25,69,138.0
5566,F4,743.25,0.25,57,138.0
5567,B-5,743.5,0.25,70,138.0
5568,C#5,743.5,0.5,53,138.0
5569,B3,743.5,0.5,55,138.0
5570,F#4,743.5,0.25,57,138.0
5571,B5,743.75,0.25,70,138.0
5572,G#4,743.75,0.25,57,138.0
5573,C#5,744.0,0.25,73,138.0
5574,E-6,744.0,0.25,73,138.0
5575,B-3,744.0,0.5,52,138.0
5576,B-4,744.0,0.5,52,138.0
5577,F#5,744.25,0.25,60,138.0
5578,C#6,744.25,0.5,75,138.0
5579,B5,744.5,0.5,68,138.0
5580,F5,744.5,0.5,68,138.0
5581,G#3,744.5,0.5,50,138.0
5582,G#4,744.5,0.5,50,138.0
5583,D6,744.75,0.5,81,138.0
5584,B-5,745.0,0.5,61,138.0
5585,F#5,745.0,0.5,61,138.0
5586,E-4,745.0,0.5,54,138.0
5587,E-3,745.0,0.5,54,138.0
5588,E-6,745.25,0.25,80,138.0
5589,E6,745.5,0.25,83,138.0
5590,B-5,745.5,0.5,61,138.0
5591,F5,745.5,0.5,61,138.0
5592,D4,745.5,0.5,50,138.0
5593,D3,745.5,0.5,50,138.0
5594,F6,745.75,0.25,87,138.0
5595,G#6,746.0,0.25,89,138.0
5596,F#5,746.0,0.5,71,138.0
5597,B-5,746.0,0.5,71,138.0
5598,C#3,746.0,0.5,56,138.0
5599,C#4,746.0,0.5,56,138.0
5600,F#6,746.25,0.25,85,138.0
5601,F6,746.5,0.25,91,138.0
5602,C#2,746.5,1.0,48,138.0
5603,C#3,746.5,0.75,61,138.0
5604,F#5,746.5,0.5,74,138.0
5605,B-5,746.5,0.5,74,138.0
5606,E-6,746.75,0.25,82,138.0
5607,C#6,747.0,0.25,84,138.0
5608,G#5,747.0,0.25,84,138.0
5609,F5,747.0,0.25,84,138.0
5610,B2,747.25,0.25,71,138.0
5611,B-2,747.5,0.25,73,138.0
5612,C#2,747.5,0.5,58,138.0
5613,F5,747.5,0.25,86,138.0
5614,C#6,747.5,0.25,86,138.0
5615,G#5,747.5,0.25,86,138.0
5616,F6,747.5,0.25,86,138.0
5617,G#2,747.75,0.25,78,138.0
5618,F#5,748.0,1.0,102,138.0
5619,C#6,748.0,1.0,102,138.0
5620,B-5,748.0,1.0,102,138.0
5621,F#6,748.0,1.0,102,138.0
5622,F#2,748.0,0.25,71,138.0
5623,F#1,748.0,0.25,71,138.0
5624,C#3,748.25,0.248,54,138.0
5625,F#3,748.25,0.248,54,138.0
5626,B-3,748.25,0.248,54,138.0
5627,B-3,748.5,0.248,54,138.0
5628,F#3,748.5,0.248,54,138.0
5629,C#3,748.5,0.248,54,138.0
5630,C#3,748.75,0.25,54,138.0
5631,B-3,748.75,0.25,54,138.0
5632,F#3,748.75,0.25,54,138.0
5633,B-3,749.0,1.0,67,138.0
5634,F#4,749.0,1.0,67,138.0
5635,C#4,749.0,1.0,67,138.0
5636,F#3,749.25,0.248,48,138.0
5637,B-2,749.25,0.248,48,138.0
5638,C#3,749.25,0.248,48,138.0
5639,C#3,749.5,0.248,48,138.0
5640,B-2,749.5,0.248,48,138.0
5641,F#3,749.5,0.248,48,138.0
5642,C#3,749.75,0.25,48,138.0
5643,B-2,749.75,0.25,48,138.0
5644,F#3,749.75,0.25,48,138.0
5645,F#4,750.0,0.125,53,138.0
5646,B-4,750.0,0.125,53,138.0
5647,C#4,750.0,0.125,53,138.0
5648,C#3,750.25,0.125,39,138.0
5649,F#3,750.25,0.125,39,138.0
5650,B-3,750.25,0.125,39,138.0
5651,F#4,750.5,0.125,54,138.0
5652,C#4,750.5,0.125,54,138.0
5653,B-3,750.5,0.125,54,138.0
5654,C#3,750.75,0.125,39,138.0
5655,F#3,750.75,0.125,39,138.0
5656,B-2,750.75,0.125,39,138.0
5657,C#4,751.0,0.125,54,138.0
5658,F#4,751.0,0.125,54,138.0
5659,B-4,751.0,0.125,54,138.0
5660,C#3,751.25,0.125,39,138.0
5661,F#3,751.25,0.125,39,138.0
5662,B-3,751.25,0.125,39,138.0
5663,F4,751.5,0.125,54,138.0
5664,B3,751.5,0.125,54,138.0
5665,D4,751.5,0.125,54,138.0
5666,G#4,751.5,0.125,54,138.0
5667,D3,751.75,0.125,39,138.0
5668,G#3,751.75,0.125,39,138.0
5669,B2,751.75,0.125,39,138.0
5670,F3,751.75,0.125,39,138.0
5671,B5,752.0,1.0,92,138.0
5672,G#6,752.0,1.0,92,138.0
5673,D6,752.0,1.0,92,138.0
5674,F6,752.0,1.0,92,138.0
5675,G#5,752.0,1.0,92,138.0
5676,F#2,752.0,0.25,65,138.0
5677,F#1,752.0,0.25,65,138.0
5678,G#3,752.25,0.248,54,138.0
5679,F3,752.25,0.248,54,138.0
5680,B3,752.25,0.248,54,138.0
5681,D3,752.25,0.248,54,138.0
5682,G#3,752.5,0.248,54,138.0
5683,B3,752.5,0.248,54,138.0
5684,D3,752.5,0.248,54,138.0
5685,F3,752.5,0.248,54,138.0
5686,G#3,752.75,0.25,54,138.0
5687,B3,752.75,0.25,54,138.0
5688,F3,752.75,0.25,54,138.0
5689,D3,752.75,0.25,54,138.0
5690,D4,753.0,1.0,66,138.0
5691,G#4,753.0,1.0,66,138.0
5692,F4,753.0,1.0,66,138.0
5693,B3,753.0,1.0,66,138.0
5694,D3,753.25,0.248,47,138.0
5695,F3,753.25,0.248,47,138.0
5696,G#3,753.25,0.248,47,138.0
5697,B2,753.25,0.248,47,138.0
5698,D3,753.5,0.248,47,138.0
5699,F3,753.5,0.248,47,138.0
5700,G#3,753.5,0.248,47,138.0
5701,B2,753.5,0.248,47,138.0
5702,D3,753.75,0.25,47,138.0
5703,G#3,753.75,0.25,47,138.0
5704,F3,753.75,0.25,47,138.0
5705,B2,753.75,0.25,47,138.0
5706,F4,754.0,0.125,52,138.0
5707,G#4,754.0,0.125,52,138.0
5708,D4,754.0,0.125,52,138.0
5709,B4,754.0,0.125,52,138.0
5710,G#3,754.25,0.125,39,138.0
5711,F3,754.25,0.125,39,138.0
5712,B3,754.25,0.125,39,138.0
5713,D3,754.25,0.125,39,138.0
5714,D4,754.5,0.125,54,138.0
5715,G#4,754.5,0.125,54,138.0
5716,F4,754.5,0.125,54,138.0
5717,B3,754.5,0.125,54,138.0
5718,D3,754.75,0.125,39,138.0
5719,B2,754.75,0.125,39,138.0
5720,F3,754.75,0.125,39,138.0
5721,G#3,754.75,0.125,39,138.0
5722,G#4,755.0,0.125,54,138.0
5723,D4,755.0,0.125,54,138.0
5724,F4,755.0,0.125,54,138.0
5725,B4,755.0,0.125,54,138.0
5726,G#3,755.25,0.125,39,138.0
5727,D3,755.25,0.125,39,138.0
5728,B3,755.25,0.125,39,138.0
5729,F3,755.25,0.125,39,138.0
5730,G4,755.5,0.125,54,138.0
5731,C#4,755.5,0.125,54,138.0
5732,E4,755.5,0.125,54,138.0
5733,B-4,755.5,0.125,54,138.0
5734,G3,755.75,0.125,39,138.0
5735,B-3,755.75,0.125,39,138.0
5736,C#3,755.75,0.125,39,138.0
5737,E3,755.75,0.125,39,138.0
5738,B-5,756.0,1.0,93,138.0
5739,C#6,756.0,1.0,93,138.0
5740,E6,756.0,1.0,93,138.0
5741,B-6,756.0,1.0,93,138.0
5742,F#2,756.0,0.25,65,138.0
5743,F#1,756.0,0.25,65,138.0
5744,B-3,756.25,0.248,54,138.0
5745,E3,756.25,0.248,54,138.0
5746,C#4,756.25,0.248,54,138.0
5747,C#4,756.5,0.248,54,138.0
5748,E3,756.5,0.248,54,138.0
5749,B-3,756.5,0.248,54,138.0
5750,C#4,756.75,0.25,54,138.0
5751,E3,756.75,0.25,54,138.0
5752,B-3,756.75,0.25,54,138.0
5753,C#4,757.0,1.0,66,138.0
5754,G4,757.0,1.0,66,138.0
5755,E4,757.0,1.0,66,138.0
5756,B-4,757.0,1.0,66,138.0
5757,G3,757.25,0.248,47,138.0
5758,E3,757.25,0.248,47,138.0
5759,C#3,757.25,0.248,47,138.0
5760,B-3,757.25,0.248,47,138.0
5761,G3,757.5,0.248,47,138.0
5762,B-3,757.5,0.248,47,138.0
5763,E3,757.5,0.248,47,138.0
5764,C#3,757.5,0.248,47,138.0
5765,G3,757.75,0.25,47,138.0
5766,E3,757.75,0.25,47,138.0
5767,B-3,757.75,0.25,47,138.0
5768,C#3,757.75,0.25,47,138.0
5769,B-4,758.0,0.125,52,138.0
5770,G4,758.0,0.125,52,138.0
5771,C#5,758.0,0.125,52,138.0
5772,E4,758.0,0.125,52,138.0
5773,B-3,758.25,0.125,39,138.0
5774,G3,758.25,0.125,39,138.0
5775,C#4,758.25,0.125,39,138.0
5776,E3,758.25,0.125,39,138.0
5777,G4,758.5,0.125,54,138.0
5778,E4,758.5,0.125,54,138.0
5779,B-4,758.5,0.125,54,138.0
5780,C#4,758.5,0.125,54,138.0
5781,G3,758.75,0.125,39,138.0
5782,E3,758.75,0.125,39,138.0
5783,C#3,758.75,0.125,39,138.0
5784,B-3,758.75,0.125,39,138.0
5785,G4,759.0,0.125,54,138.0
5786,B-4,759.0,0.125,54,138.0
5787,E4,759.0,0.125,54,138.0
5788,C#5,759.0,0.125,54,138.0
5789,B-3,759.25,0.125,39,138.0
5790,E3,759.25,0.125,39,138.0
5791,C#4,759.25,0.125,39,138.0
5792,G3,759.25,0.125,39,138.0
5793,D4,759.5,0.125,54,138.0
5794,B4,759.5,0.125,54,138.0
5795,F#4,759.5,0.125,54,138.0
5796,F#3,759.75,0.125,39,138.0
5797,B3,759.75,0.125,39,138.0
5798,D3,759.75,0.125,39,138.0
5799,B5,760.0,1.0,93,138.0
5800,D6,760.0,1.0,93,138.0
5801,B6,760.0,1.0,93,138.0
5802,F#6,760.0,1.0,93,138.0
5803,F#2,760.0,0.25,65,138.0
5804,F#1,760.0,0.25,65,138.0
5805,B3,760.25,0.248,54,138.0
5806,D4,760.25,0.248,54,138.0
5807,F#3,760.25,0.248,54,138.0
5808,D4,760.5,0.248,54,138.0
5809,F#3,760.5,0.248,54,138.0
5810,B3,760.5,0.248,54,138.0
5811,D4,760.75,0.25,54,138.0
5812,F#3,760.75,0.25,54,138.0
5813,B3,760.75,0.25,54,138.0
5814,B4,761.0,1.0,67,138.0
5815,F#4,761.0,1.0,67,138.0
5816,D4,761.0,1.0,67,138.0
5817,F#3,761.25,0.248,48,138.0
5818,B3,761.25,0.248,48,138.0
5819,D3,761.25,0.248,48,138.0
5820,B3,761.5,0.248,48,138.0
5821,F#3,761.5,0.248,48,138.0
5822,D3,761.5,0.248,48,138.0
5823,F#3,761.75,0.25,48,138.0
5824,B3,761.75,0.25,48,138.0
5825,D3,761.75,0.25,48,138.0
5826,G#4,762.0,0.125,52,138.0
5827,F4,762.0,0.125,52,138.0
5828,B4,762.0,0.125,52,138.0
5829,D5,762.0,0.125,52,138.0
5830,G#3,762.25,0.125,39,138.0
5831,F3,762.25,0.125,39,138.0
5832,D4,762.25,0.125,39,138.0
5833,B3,762.25,0.125,39,138.0
5834,G#4,762.5,0.125,54,138.0
5835,B4,762.5,0.125,54,138.0
5836,F4,762.5,0.125,54,138.0
5837,D4,762.5,0.125,54,138.0
5838,G#3,762.75,0.125,39,138.0
5839,B3,762.75,0.125,39,138.0
5840,D3,762.75,0.125,39,138.0
5841,F3,762.75,0.125,39,138.0
5842,B4,763.0,0.125,59,138.0
5843,D5,763.0,0.125,59,138.0
5844,G#4,763.0,0.125,59,138.0
5845,F4,763.0,0.125,59,138.0
5846,F3,763.25,0.125,43,138.0
5847,B3,763.25,0.125,43,138.0
5848,G#3,763.25,0.125,43,138.0
5849,D4,763.25,0.125,43,138.0
5850,B-4,763.5,0.125,61,138.0
5851,C#5,763.5,0.125,61,138.0
5852,G4,763.5,0.125,61,138.0
5853,E4,763.5,0.125,61,138.0
5854,G3,763.75,0.125,44,138.0
5855,B-3,763.75,0.125,44,138.0
5856,E3,763.75,0.125,44,138.0
5857,C#4,763.75,0.125,44,138.0
5858,B-4,764.0,0.125,62,138.0
5859,E5,764.0,0.125,62,138.0
5860,G4,764.0,0.125,62,138.0
5861,C#5,764.0,0.125,62,138.0
5862,B-3,764.25,0.125,46,138.0
5863,G3,764.25,0.125,46,138.0
5864,C#4,764.25,0.125,46,138.0
5865,E4,764.25,0.125,46,138.0
5866,G4,764.5,0.125,65,138.0
5867,B-4,764.5,0.125,65,138.0
5868,E4,764.5,0.125,65,138.0
5869,C#5,764.5,0.125,65,138.0
5870,G3,764.75,0.125,47,138.0
5871,E3,764.75,0.125,47,138.0
5872,C#4,764.75,0.125,47,138.0
5873,B-3,764.75,0.125,47,138.0
5874,G4,765.0,0.125,68,138.0
5875,C#5,765.0,0.125,68,138.0
5876,B-4,765.0,0.125,68,138.0
5877,E5,765.0,0.125,68,138.0
5878,B-3,765.25,0.125,50,138.0
5879,E4,765.25,0.125,50,138.0
5880,C#4,765.25,0.125,50,138.0
5881,F#3,765.25,0.125,50,138.0
5882,F#4,765.5,0.125,72,138.0
5883,D5,765.5,0.125,72,138.0
5884,B4,765.5,0.125,72,138.0
5885,F#3,765.75,0.125,53,138.0
5886,D4,765.75,0.125,53,138.0
5887,B3,765.75,0.125,53,138.0
5888,F#5,766.0,0.125,73,138.0
5889,D5,766.0,0.125,73,138.0
5890,F#4,766.0,0.125,73,138.0
5891,B4,766.0,0.125,73,138.0
5892,F#3,766.25,0.125,55,138.0
5893,D4,766.25,0.125,55,138.0
5894,B3,766.25,0.125,55,138.0
5895,B4,766.5,0.125,79,138.0
5896,D5,766.5,0.125,79,138.0
5897,F#4,766.5,0.125,79,138.0
5898,D4,766.75,0.125,58,138.0
5899,F#3,766.75,0.125,58,138.0
5900,B3,766.75,0.125,58,138.0
5901,D5,767.0,0.125,81,138.0
5902,B4,767.0,0.125,81,138.0
5903,F#5,767.0,0.125,81,138.0
5904,F#4,767.0,0.125,81,138.0
5905,D4,767.25,0.125,61,138.0
5906,F#3,767.25,0.125,61,138.0
5907,B3,767.25,0.125,61,138.0
5908,B4,767.5,0.125,84,138.0
5909,G#4,767.5,0.125,84,138.0
5910,F5,767.5,0.125,84,138.0
5911,C#5,767.5,0.125,84,138.0
5912,B3,767.75,0.125,61,138.0
5913,C#4,767.75,0.125,61,138.0
5914,G#3,767.75,0.125,61,138.0
5915,F4,767.75,0.125,61,138.0
5916,G#5,768.0,0.5,100,138.0
5917,G#6,768.0,0.5,100,138.0
5918,G#4,768.25,0.125,66,138.0
5919,G#3,768.25,0.125,66,138.0
5920,F#5,768.5,0.5,88,138.0
5921,F#6,768.5,0.5,88,138.0
5922,F#4,768.75,0.125,66,138.0
5923,F#3,768.75,0.125,66,138.0
5924,E-6,769.0,0.5,98,138.0
5925,E-5,769.0,0.5,98,138.0
5926,E-3,769.25,0.125,66,138.0
5927,E-4,769.25,0.125,66,138.0
5928,C#5,769.5,0.5,91,138.0
5929,C#6,769.5,0.5,91,138.0
5930,C#4,769.75,0.125,66,138.0
5931,C#3,769.75,0.125,66,138.0
5932,B4,770.0,0.5,100,138.0
5933,B5,770.0,0.5,100,138.0
5934,B2,770.25,0.125,60,138.0
5935,B3,770.25,0.125,60,138.0
5936,B-4,770.5,0.5,82,138.0
5937,B-5,770.5,0.5,82,138.0
5938,B-3,770.75,0.125,60,138.0
5939,B-2,770.75,0.125,60,138.0
5940,G#4,771.0,0.5,88,138.0
5941,G#5,771.0,0.5,88,138.0
5942,G#2,771.25,0.125,60,138.0
5943,G#3,771.25,0.125,60,138.0
5944,F#4,771.5,0.5,82,138.0
5945,F#5,771.5,0.5,82,138.0
5946,F#3,771.75,0.125,60,138.0
5947,F#2,771.75,0.125,60,138.0
5948,E-5,772.0,0.5,90,138.0
5949,E-4,772.0,0.5,90,138.0
5950,E-3,772.25,0.125,60,138.0
5951,E-2,772.25,0.125,60,138.0
5952,C#4,772.5,0.5,79,138.0
5953,C#5,772.5,0.5,79,138.0
5954,C#2,772.75,0.125,60,138.0
5955,C#3,772.75,0.125,60,138.0
5956,B3,773.0,0.5,82,138.0
5957,B4,773.0,0.5,82,138.0
5958,B1,773.25,0.125,56,138.0
5959,B2,773.25,0.125,56,138.0
5960,B-3,773.5,0.5,76,138.0
5961,B-4,773.5,0.5,76,138.0
5962,B-2,773.75,0.125,56,138.0
5963,B-1,773.75,0.125,56,138.0
5964,G#4,774.0,0.5,80,138.0
5965,G#3,774.0,0.5,80,138.0
5966,G#2,774.25,0.125,53,138.0
5967,G#1,774.25,0.125,53,138.0
5968,F#4,774.5,0.5,70,138.0
5969,F#3,774.5,0.5,70,138.0
5970,F#1,774.75,0.125,52,138.0
5971,F#2,774.75,0.125,52,138.0
5972,E-4,775.0,0.5,74,138.0
5973,E-3,775.0,0.5,74,138.0
5974,E-2,775.25,0.125,55,138.0
5975,C#4,775.5,0.5,68,138.0
5976,C#3,775.5,0.5,68,138.0
5977,C#2,775.75,0.125,54,138.0
5978,F4,776.0,0.5,77,138.0
5979,F2,776.25,0.25,42,138.0
5980,C#4,776.5,0.5,67,138.0
5981,C#2,776.75,0.25,28,138.0
5982,G#4,777.0,0.5,73,138.0
5983,G#2,777.25,0.25,39,138.0
5984,C#4,777.5,0.5,67,138.0
5985,C#2,777.75,0.25,27,138.0
5986,C#5,778.0,0.5,71,138.0
5987,C#3,778.25,0.25,37,138.0
5988,C#4,778.5,0.5,59,138.0
5989,C#2,778.75,0.25,26,138.0
5990,F5,779.0,0.5,68,138.0
5991,F3,779.25,0.25,34,138.0
5992,C#4,779.5,0.5,56,138.0
5993,C#2,779.75,0.25,24,138.0
5994,G#5,780.0,0.5,62,138.0
5995,G#3,780.25,0.25,32,138.0
5996,C#4,780.5,0.5,49,138.0
5997,C#2,780.75,0.25,23,138.0
5998,C#6,781.0,0.5,54,138.0
5999,C#4,781.25,0.246,29,138.0
6000,C#4,781.5,0.5,45,138.0
6001,C#2,781.75,0.25,24,138.0
6002,C#6,782.0,0.5,52,138.0
6003,C#4,782.25,0.246,28,138.0
6004,C#4,782.5,0.5,41,138.0
6005,C#2,782.75,0.25,21,138.0
6006,C#6,783.0,0.5,48,138.0
6007,F#3,783.25,0.25,21,138.0
6008,C#4,783.25,0.25,21,138.0
6009,B1,783.75,0.25,101,138.0
6010,D4,784.0,0.744,86,138.0
6011,F#3,784.0,0.744,86,138.0
6012,B3,784.0,0.744,86,138.0
6013,B5,784.75,0.248,96,138.0
6014,F#5,784.75,0.248,96,138.0
6015,D6,784.75,0.248,96,138.0
6016,D5,784.75,0.248,96,138.0
6017,D4,784.75,0.248,78,138.0
6018,B3,784.75,0.248,78,138.0
6019,F#3,784.75,0.248,78,138.0
6020,F#5,785.0,0.5,86,138.0
6021,D6,785.0,0.5,86,138.0
6022,D5,785.0,0.5,86,138.0
6023,B5,785.0,0.5,86,138.0
6024,F#3,785.0,0.5,86,138.0
6025,B3,785.0,0.5,86,138.0
6026,D4,785.0,0.5,86,138.0
6027,B5,785.5,0.094,89,138.0
6028,E6,785.5,0.094,89,138.0
6029,D5,785.5,0.094,89,138.0
6030,F#5,785.5,0.094,89,138.0
6031,F#3,785.5,0.094,83,138.0
6032,D4,785.5,0.094,83,138.0
6033,B3,785.5,0.094,83,138.0
6034,F#5,785.75,0.094,90,138.0
6035,D5,785.75,0.094,90,138.0
6036,B5,785.75,0.094,90,138.0
6037,D6,785.75,0.094,90,138.0
6038,F#3,785.75,0.094,86,138.0
6039,D4,785.75,0.094,86,138.0
6040,B3,785.75,0.094,86,138.0
6041,D6,786.0,0.25,96,138.0
6042,F#5,786.0,0.25,96,138.0
6043,B5,786.0,0.25,96,138.0
6044,D5,786.0,0.25,96,138.0
6045,F#3,786.0,0.25,86,138.0
6046,D4,786.0,0.25,86,138.0
6047,B3,786.0,0.25,86,138.0
6048,B5,786.5,0.25,88,138.0
6049,D5,786.5,0.25,88,138.0
6050,F#5,786.5,0.25,88,138.0
6051,B4,786.5,0.25,88,138.0
6052,D3,786.5,0.25,86,138.0
6053,B3,786.5,0.25,86,138.0
6054,F#3,786.5,0.25,86,138.0
6055,B2,787.75,0.25,39,138.0
6056,D4,788.0,0.75,45,138.0
6057,F#5,788.5,0.25,34,138.0
6058,B5,788.5,0.25,34,138.0
6059,D5,788.5,0.25,34,138.0
6060,D6,788.5,0.25,34,138.0
6061,B2,788.75,0.25,42,138.0
6062,D4,789.0,0.75,49,138.0
6063,D6,789.5,0.25,39,138.0
6064,F#5,789.5,0.25,39,138.0
6065,B5,789.5,0.25,39,138.0
6066,D5,789.5,0.25,39,138.0
6067,B2,789.75,0.25,45,138.0
6068,D4,790.0,0.75,53,138.0
6069,B5,790.5,0.25,44,138.0
6070,D6,790.5,0.25,44,138.0
6071,G5,790.5,0.25,44,138.0
6072,D5,790.5,0.25,44,138.0
6073,G2,790.75,0.25,45,138.0
6074,B3,791.0,0.75,58,138.0
6075,D6,791.5,0.25,48,138.0
6076,B5,791.5,0.25,48,138.0
6077,G5,791.5,0.25,48,138.0
6078,D5,791.5,0.25,48,138.0
6079,G2,791.75,0.25,51,138.0
6080,B3,792.0,0.75,57,138.0
6081,B5,792.5,0.25,48,138.0
6082,D5,792.5,0.25,48,138.0
6083,G5,792.5,0.25,48,138.0
6084,D6,792.5,0.25,48,138.0
6085,G2,792.75,0.25,49,138.0
6086,B3,793.0,0.75,62,138.0
6087,G5,793.5,0.25,53,138.0
6088,D5,793.5,0.25,53,138.0
6089,D6,793.5,0.25,53,138.0
6090,B5,793.5,0.25,53,138.0
6091,G2,793.75,0.25,54,138.0
6092,B3,794.0,0.75,61,138.0
6093,C6,794.5,0.25,52,138.0
6094,E-5,794.5,0.25,52,138.0
6095,G5,794.5,0.25,52,138.0
6096,E-6,794.5,0.25,52,138.0
6097,C2,794.75,0.25,52,138.0
6098,E-3,795.0,0.75,67,138.0
6099,G5,795.5,0.25,58,138.0
6100,E-5,795.5,0.25,58,138.0
6101,E-6,795.5,0.25,58,138.0
6102,C6,795.5,0.25,58,138.0
6103,C2,795.75,0.25,58,138.0
6104,E-3,796.0,0.75,65,138.0
6105,E-6,796.5,0.25,58,138.0
6106,C6,796.5,0.25,58,138.0
6107,E-5,796.5,0.25,58,138.0
6108,G5,796.5,0.25,58,138.0
6109,C2,796.75,0.25,55,138.0
6110,E-3,797.0,0.75,71,138.0
6111,C6,797.5,0.25,63,138.0
6112,G5,797.5,0.25,63,138.0
6113,E-5,797.5,0.25,63,138.0
6114,E-6,797.5,0.25,63,138.0
6115,C2,797.75,0.25,61,138.0
6116,E-3,798.0,0.75,69,138.0
6117,E-5,798.5,0.25,62,138.0
6118,E-6,798.5,0.25,62,138.0
6119,C6,798.5,0.25,62,138.0
6120,A5,798.5,0.25,62,138.0
6121,F1,798.75,0.25,58,138.0
6122,A2,799.0,0.75,74,138.0
6123,E-5,799.5,0.25,68,138.0
6124,C6,799.5,0.25,68,138.0
6125,A5,799.5,0.25,68,138.0
6126,E-6,799.5,0.25,68,138.0
6127,F1,799.75,0.25,64,138.0
6128,A2,800.0,0.75,72,138.0
6129,E-6,800.5,0.25,66,138.0
6130,E-5,800.5,0.25,66,138.0
6131,A5,800.5,0.25,66,138.0
6132,C6,800.5,0.25,66,138.0
6133,F2,800.75,0.25,61,138.0
6134,C2,801.0,0.75,79,138.0
6135,A5,801.5,0.25,72,138.0
6136,E-6,801.5,0.25,72,138.0
6137,C6,801.5,0.25,72,138.0
6138,A6,801.5,0.25,72,138.0
6139,F2,801.75,0.25,68,138.0
6140,A1,802.0,0.75,76,138.0
6141,C6,802.5,0.25,71,138.0
6142,C7,802.5,0.25,71,138.0
6143,E-6,802.5,0.25,71,138.0
6144,A6,802.5,0.25,71,138.0
6145,F2,802.75,0.25,65,138.0
6146,F#1,803.0,0.75,83,138.0
6147,E-6,803.5,0.25,77,138.0
6148,C7,803.5,0.25,77,138.0
6149,E-7,803.5,0.25,77,138.0
6150,A6,803.5,0.25,77,138.0
6151,F2,803.75,0.25,71,138.0
6152,E-6,804.0,0.5,78,138.0
6153,E-7,804.0,0.5,78,138.0
6154,A6,804.0,0.5,78,138.0
6155,C7,804.0,0.5,78,138.0
6156,F1,804.0,0.5,82,138.0
6157,F2,804.0,0.5,82,138.0
6158,F#5,804.5,0.25,48,138.0
6159,C6,804.5,0.25,57,138.0
6160,E-6,804.5,0.25,57,138.0
6161,F5,804.75,0.25,48,138.0
6162,B5,804.75,0.25,57,138.0
6163,D6,804.75,0.25,57,138.0
6164,F#5,805.0,0.5,54,138.0
6165,C6,805.0,0.5,63,138.0
6166,E-6,805.0,0.5,63,138.0
6167,F5,805.5,0.25,44,138.0
6168,A4,805.5,0.25,52,138.0
6169,C5,805.5,0.25,52,138.0
6170,E5,805.75,0.25,44,138.0
6171,C#5,805.75,0.25,52,138.0
6172,B-4,805.75,0.25,52,138.0
6173,F5,806.0,0.5,44,138.0
6174,C5,806.0,0.5,58,138.0
6175,A4,806.0,0.5,58,138.0
6176,F#4,806.5,0.25,43,138.0
6177,C5,806.5,0.25,47,138.0
6178,E-5,806.5,0.25,47,138.0
6179,F4,806.75,0.25,43,138.0
6180,D5,806.75,0.25,47,138.0
6181,B4,806.75,0.25,47,138.0
6182,F#4,807.0,0.5,51,138.0
6183,E-5,807.0,0.5,56,138.0
6184,C5,807.0,0.5,56,138.0
6185,A5,807.5,0.25,47,138.0
6186,F4,807.5,0.25,43,138.0
6187,C6,807.75,0.25,47,138.0
6188,E4,807.75,0.25,43,138.0
6189,E-6,808.0,0.25,57,138.0
6190,F3,808.0,0.5,43,138.0
6191,A3,808.0,0.5,43,138.0
6192,C4,808.0,0.5,43,138.0
6193,E-4,808.0,0.5,43,138.0
6194,F6,808.25,0.25,48,138.0
6195,E-6,808.5,0.25,49,138.0
6196,D6,808.75,0.25,50,138.0
6197,F3,808.75,0.25,42,138.0
6198,E-6,809.0,0.25,65,138.0
6199,A3,809.0,0.5,51,138.0
6200,F6,809.25,0.25,57,138.0
6201,G6,809.5,0.25,66,138.0
6202,E-6,809.75,0.25,58,138.0
6203,C4,809.75,0.25,40,138.0
6204,C6,810.0,0.25,69,138.0
6205,F4,810.0,0.5,51,138.0
6206,D6,810.25,0.25,56,138.0
6207,E-6,810.5,0.25,66,138.0
6208,C6,810.75,0.25,54,138.0
6209,A4,810.75,0.25,43,138.0
6210,A5,811.0,0.25,66,138.0
6211,C5,811.0,0.5,51,138.0
6212,B-5,811.25,0.25,53,138.0
6213,C6,811.5,0.25,61,138.0
6214,E-5,811.5,0.25,45,138.0
6215,A5,811.75,0.25,53,138.0
6216,C5,811.75,0.25,45,138.0
6217,E-5,812.0,0.25,47,138.0
6218,G4,812.0,0.25,40,138.0
6219,F5,812.25,0.25,47,138.0
6220,A4,812.25,0.25,40,138.0
6221,G5,812.5,0.25,58,138.0
6222,B-4,812.5,0.25,44,138.0
6223,E-5,812.75,0.25,47,138.0
6224,G4,812.75,0.25,40,138.0
6225,C5,813.0,0.25,47,138.0
6226,E-4,813.0,0.25,40,138.0
6227,D5,813.25,0.25,47,138.0
6228,F4,813.25,0.25,40,138.0
6229,E-5,813.5,0.25,53,138.0
6230,G4,813.5,0.25,45,138.0
6231,C5,813.75,0.25,47,138.0
6232,E-4,813.75,0.25,40,138.0
6233,A4,814.0,0.25,47,138.0
6234,C4,814.0,0.25,40,138.0
6235,B-4,814.25,0.25,47,138.0
6236,D4,814.25,0.25,40,138.0
6237,C5,814.5,0.25,52,138.0
6238,E-4,814.5,0.25,45,138.0
6239,A4,814.75,0.25,47,138.0
6240,C4,814.75,0.25,40,138.0
6241,A3,815.0,0.25,40,138.0
6242,F4,815.0,0.5,47,138.0
6243,E-4,815.0,0.5,47,138.0
6244,C4,815.0,0.5,47,138.0
6245,B-3,815.25,0.25,40,138.0
6246,C4,815.5,0.25,45,138.0
6247,A3,815.75,0.25,40,138.0
6248,D6,816.0,0.25,57,138.0
6249,D4,816.0,0.5,49,138.0
6250,F3,816.0,0.5,49,138.0
6251,B-3,816.0,0.5,49,138.0
6252,E-6,816.25,0.25,48,138.0
6253,D6,816.5,0.25,49,138.0
6254,C6,816.75,0.25,50,138.0
6255,F3,816.75,0.25,42,138.0
6256,D6,817.0,0.25,65,138.0
6257,B-3,817.0,0.5,51,138.0
6258,E-6,817.25,0.25,57,138.0
6259,F6,817.5,0.25,66,138.0
6260,D6,817.75,0.25,58,138.0
6261,D4,817.75,0.25,40,138.0
6262,B-5,818.0,0.25,69,138.0
6263,F4,818.0,0.5,51,138.0
6264,C6,818.25,0.25,56,138.0
6265,D6,818.5,0.25,66,138.0
6266,B-5,818.75,0.25,54,138.0
6267,B-4,818.75,0.25,43,138.0
6268,F5,819.0,0.25,66,138.0
6269,D5,819.0,0.5,51,138.0
6270,A5,819.25,0.25,53,138.0
6271,B-5,819.5,0.25,61,138.0
6272,D4,819.5,0.25,45,138.0
6273,F5,819.75,0.25,53,138.0
6274,B-3,819.75,0.25,45,138.0
6275,D5,820.0,0.25,47,138.0
6276,B-4,820.0,0.25,40,138.0
6277,E-5,820.25,0.25,47,138.0
6278,C5,820.25,0.25,40,138.0
6279,F5,820.5,0.25,58,138.0
6280,D5,820.5,0.25,44,138.0
6281,D5,820.75,0.25,47,138.0
6282,B-4,820.75,0.25,40,138.0
6283,B-4,821.0,0.25,47,138.0
6284,D4,821.0,0.25,40,138.0
6285,C5,821.25,0.25,47,138.0
6286,E-4,821.25,0.25,40,138.0
6287,D5,821.5,0.25,53,138.0
6288,F4,821.5,0.25,45,138.0
6289,B-4,821.75,0.25,47,138.0
6290,D4,821.75,0.25,40,138.0
6291,F4,822.0,0.25,47,138.0
6292,B-3,822.0,0.25,40,138.0
6293,A4,822.25,0.25,47,138.0
6294,C4,822.25,0.25,40,138.0
6295,B-4,822.5,0.25,52,138.0
6296,D4,822.5,0.25,45,138.0
6297,D4,822.75,0.25,47,138.0
6298,B-3,822.75,0.246,40,138.0
6299,B-4,823.0,0.25,40,138.0
6300,D5,823.0,0.25,40,138.0
6301,C5,823.25,0.25,40,138.0
6302,E-5,823.25,0.25,40,138.0
6303,D5,823.5,0.246,45,138.0
6304,F5,823.5,0.25,45,138.0
6305,B-4,823.75,0.25,40,138.0
6306,D5,823.75,0.25,40,138.0
6307,E-5,824.0,0.25,40,138.0
6308,F4,824.0,0.5,42,138.0
6309,C5,824.0,0.5,42,138.0
6310,A4,824.0,0.5,42,138.0
6311,F5,824.25,0.25,40,138.0
6312,G6,824.5,0.25,52,138.0
6313,E-5,824.5,0.25,45,138.0
6314,F6,824.75,0.25,47,138.0
6315,D5,824.75,0.25,40,138.0
6316,G6,825.0,0.25,40,138.0
6317,E-5,825.0,0.25,40,138.0
6318,F6,825.25,0.25,40,138.0
6319,F5,825.25,0.25,40,138.0
6320,E-6,825.5,0.25,45,138.0
6321,G5,825.5,0.25,45,138.0
6322,G6,825.75,0.25,40,138.0
6323,E-5,825.75,0.25,40,138.0
6324,E-6,826.0,0.25,52,138.0
6325,C5,826.0,0.25,46,138.0
6326,D6,826.25,0.25,42,138.0
6327,D5,826.25,0.25,38,138.0
6328,C6,826.5,0.25,49,138.0
6329,E-5,826.5,0.25,45,138.0
6330,E-6,826.75,0.25,43,138.0
6331,C5,826.75,0.25,40,138.0
6332,C6,827.0,0.25,48,138.0
6333,A4,827.0,0.25,45,138.0
6334,B-5,827.25,0.25,40,138.0
6335,B-4,827.25,0.25,36,138.0
6336,A5,827.5,0.25,45,138.0
6337,C5,827.5,0.25,41,138.0
6338,C6,827.75,0.25,40,138.0
6339,A4,827.75,0.25,36,138.0
6340,F#5,828.0,0.25,52,138.0
6341,E-4,828.0,0.25,46,138.0
6342,F5,828.25,0.25,42,138.0
6343,F4,828.25,0.25,38,138.0
6344,E-5,828.5,0.25,49,138.0
6345,F#4,828.5,0.25,45,138.0
6346,F#5,828.75,0.25,43,138.0
6347,E-4,828.75,0.25,40,138.0
6348,E-5,829.0,0.25,48,138.0
6349,C4,829.0,0.25,45,138.0
6350,D5,829.25,0.25,40,138.0
6351,D4,829.25,0.25,36,138.0
6352,C5,829.5,0.25,45,138.0
6353,E-4,829.5,0.25,41,138.0
6354,E-5,829.75,0.25,40,138.0
6355,C4,829.75,0.25,36,138.0
6356,C5,830.0,0.25,52,138.0
6357,A3,830.0,0.25,46,138.0
6358,B-4,830.25,0.25,42,138.0
6359,B-3,830.25,0.25,38,138.0
6360,A4,830.5,0.25,49,138.0
6361,C4,830.5,0.25,45,138.0
6362,C5,830.75,0.25,43,138.0
6363,A3,830.75,0.25,40,138.0
6364,E-4,831.0,0.25,48,138.0
6365,C5,831.0,0.25,45,138.0
6366,D4,831.25,0.25,40,138.0
6367,B-4,831.25,0.25,36,138.0
6368,C4,831.5,0.25,45,138.0
6369,A4,831.5,0.25,41,138.0
6370,E-4,831.75,0.25,40,138.0
6371,C5,831.75,0.25,36,138.0
6372,D5,832.0,0.25,40,138.0
6373,F4,832.0,0.5,43,138.0
6374,B-4,832.0,0.5,43,138.0
6375,E-5,832.25,0.25,40,138.0
6376,F6,832.5,0.25,52,138.0
6377,D5,832.5,0.25,45,138.0
6378,E-6,832.75,0.25,47,138.0
6379,C5,832.75,0.25,40,138.0
6380,F6,833.0,0.25,40,138.0
6381,D5,833.0,0.25,40,138.0
6382,E-6,833.25,0.25,40,138.0
6383,E-5,833.25,0.25,40,138.0
6384,D6,833.5,0.25,45,138.0
6385,F5,833.5,0.25,45,138.0
6386,F6,833.75,0.25,40,138.0
6387,D5,833.75,0.25,40,138.0
6388,D6,834.0,0.25,52,138.0
6389,B-4,834.0,0.25,46,138.0
6390,C6,834.25,0.25,42,138.0
6391,C5,834.25,0.25,38,138.0
6392,B-5,834.5,0.25,49,138.0
6393,D5,834.5,0.25,45,138.0
6394,D6,834.75,0.25,43,138.0
6395,B-4,834.75,0.25,40,138.0
6396,F5,835.0,0.25,48,138.0
6397,F4,835.0,0.25,45,138.0
6398,E-5,835.25,0.25,40,138.0
6399,A4,835.25,0.25,36,138.0
6400,D5,835.5,0.25,45,138.0
6401,B-4,835.5,0.25,41,138.0
6402,F5,835.75,0.25,40,138.0
6403,F4,835.75,0.25,36,138.0
6404,B-5,836.0,0.25,52,138.0
6405,D4,836.0,0.25,46,138.0
6406,G5,836.25,0.25,42,138.0
6407,E-4,836.25,0.25,38,138.0
6408,F5,836.5,0.25,49,138.0
6409,F4,836.5,0.25,45,138.0
6410,B-5,836.75,0.25,43,138.0
6411,D4,836.75,0.25,40,138.0
6412,D5,837.0,0.25,48,138.0
6413,B-3,837.0,0.25,45,138.0
6414,C5,837.25,0.25,40,138.0
6415,C4,837.25,0.25,36,138.0
6416,B-4,837.5,0.25,45,138.0
6417,D4,837.5,0.25,41,138.0
6418,D5,837.75,0.25,40,138.0
6419,B-3,837.75,0.25,36,138.0
6420,D6,838.0,0.25,62,138.0
6421,D5,838.0,1.0,62,138.0
6422,F3,838.0,0.25,46,138.0
6423,C6,838.25,0.25,51,138.0
6424,A3,838.25,0.25,38,138.0
6425,B-5,838.5,0.25,61,138.0
6426,B-3,838.5,0.25,45,138.0
6427,D6,838.75,0.25,52,138.0
6428,F3,838.75,0.25,40,138.0
6429,E-6,839.0,0.25,52,138.0
6430,F#5,839.0,1.0,62,138.0
6431,E-3,839.0,0.25,45,138.0
6432,D6,839.25,0.25,59,138.0
6433,B-3,839.25,0.25,36,138.0
6434,E-6,839.5,0.25,62,138.0
6435,F3,839.5,0.25,41,138.0
6436,F6,839.75,0.25,65,138.0
6437,E-3,839.75,0.25,36,138.0
6438,D3,840.0,0.5,36,138.0
6439,F5,840.0,0.5,51,138.0
6440,F6,840.0,0.5,51,138.0
6441,B-2,840.5,0.5,37,138.0
6442,B-3,840.5,0.5,37,138.0
6443,G3,841.0,0.25,33,138.0
6444,E-3,841.0,0.25,33,138.0
6445,E-4,841.5,0.25,40,138.0
6446,C4,841.75,0.25,36,138.0
6447,A3,842.0,0.5,36,138.0
6448,C5,842.5,0.5,37,138.0
6449,A4,842.5,0.5,37,138.0
6450,F3,842.5,0.5,35,138.0
6451,F4,842.5,0.5,35,138.0
6452,D5,843.0,0.25,35,138.0
6453,B-4,843.0,0.25,35,138.0
6454,D4,843.0,0.25,33,138.0
6455,B-3,843.0,0.25,33,138.0
6456,B-6,843.5,0.25,47,138.0
6457,A6,843.75,0.25,44,138.0
6458,B-6,844.0,0.5,47,138.0
6459,G6,844.5,0.5,35,138.0
6460,B-5,844.5,0.5,35,138.0
6461,G5,844.5,0.5,35,138.0
6462,E4,844.5,0.5,30,138.0
6463,C#4,844.5,0.5,30,138.0
6464,B-3,844.5,0.5,30,138.0
6465,G4,844.5,0.5,30,138.0
6466,A5,845.0,0.5,37,138.0
6467,F6,845.0,0.5,37,138.0
6468,F5,845.0,0.5,37,138.0
6469,F4,845.0,0.5,36,138.0
6470,A4,845.0,0.5,36,138.0
6471,C4,845.0,0.5,36,138.0
6472,C4,845.5,0.5,25,138.0
6473,E6,845.5,0.5,33,138.0
6474,G5,845.5,0.5,33,138.0
6475,E5,845.5,0.5,33,138.0
6476,G4,845.5,0.25,28,138.0
6477,B-4,845.5,0.25,28,138.0
6478,C5,845.75,0.25,36,138.0
6479,G5,846.0,0.5,40,138.0
6480,G6,846.0,0.5,40,138.0
6481,B-5,846.0,0.5,40,138.0
6482,C5,846.0,0.5,33,138.0
6483,F4,846.0,0.5,33,138.0
6484,F4,846.5,0.5,30,138.0
6485,D5,846.5,0.375,36,138.0
6486,A5,846.5,0.5,32,138.0
6487,F5,846.5,0.5,32,138.0
6488,F6,846.5,0.5,32,138.0
6489,E5,846.875,0.125,31,138.0
6490,A5,847.0,0.5,33,138.0
6491,F6,847.0,0.5,33,138.0
6492,F4,847.0,0.5,33,138.0
6493,F5,847.0,0.5,33,138.0
6494,G4,847.5,0.25,37,138.0
6495,B-4,847.5,0.25,42,138.0
6496,F5,847.5,0.25,42,138.0
6497,A4,847.75,0.25,36,138.0
6498,E-5,847.75,0.25,37,138.0
6499,C5,847.75,0.25,37,138.0
6500,D5,848.0,0.5,46,138.0
6501,B-4,848.0,0.496,36,138.0
6502,B-5,848.5,0.5,51,138.0
6503,B-4,848.5,0.75,43,138.0
6504,F4,848.5,0.5,33,138.0
6505,D4,848.5,0.5,33,138.0
6506,G5,849.0,0.25,46,138.0
6507,E-4,849.0,0.25,33,138.0
6508,G4,849.0,0.25,33,138.0
6509,C5,849.5,0.25,36,138.0
6510,E-5,849.5,0.25,47,138.0
6511,E-6,849.5,0.25,47,138.0
6512,E-5,849.75,0.25,32,138.0
6513,G5,849.75,0.25,40,138.0
6514,C6,849.75,0.25,40,138.0
6515,A5,850.0,0.5,51,138.0
6516,F5,850.0,0.496,36,138.0
6517,F5,850.5,0.75,47,138.0
6518,F6,850.5,0.5,56,138.0
6519,A4,850.5,0.5,33,138.0
6520,C5,850.5,0.5,33,138.0
6521,D6,851.0,0.25,53,138.0
6522,B-4,851.0,0.25,33,138.0
6523,D5,851.0,0.25,33,138.0
6524,B-5,851.5,0.25,52,138.0
6525,G4,851.5,0.25,41,138.0
6526,A5,851.75,0.25,45,138.0
6527,F#4,851.75,0.25,36,138.0
6528,B-5,852.0,0.5,52,138.0
6529,G4,852.0,0.5,36,138.0
6530,G5,852.5,0.5,42,138.0
6531,G6,852.5,0.5,42,138.0
6532,E-5,852.5,0.5,32,138.0
6533,B-4,852.5,0.5,32,138.0
6534,G4,852.5,0.5,32,138.0
6535,E-6,853.0,0.5,42,138.0
6536,E-5,853.0,0.5,42,138.0
6537,G5,853.0,0.5,42,138.0
6538,G4,853.0,0.5,33,138.0
6539,C5,853.0,0.5,33,138.0
6540,D6,853.5,0.496,39,138.0
6541,A5,853.5,0.496,39,138.0
6542,D5,853.5,0.496,39,138.0
6543,A4,853.5,0.496,30,138.0
6544,F#4,853.5,0.496,30,138.0
6545,D6,854.0,1.5,44,138.0
6546,D5,854.0,0.5,40,138.0
6547,A5,854.0,0.5,40,138.0
6548,A4,854.0,0.5,30,138.0
6549,F#4,854.0,0.5,30,138.0
6550,C6,854.5,0.25,50,138.0
6551,F#4,854.5,0.5,28,138.0
6552,D4,854.5,0.5,28,138.0
6553,B-5,854.75,0.246,44,138.0
6554,B-5,855.0,0.5,49,138.0
6555,G4,855.0,0.5,33,138.0
6556,B-4,855.0,0.5,33,138.0
6557,B-5,855.5,1.0,46,138.0
6558,G6,855.5,0.5,50,138.0
6559,C#6,855.5,0.5,50,138.0
6560,F4,855.5,0.25,37,138.0
6561,G#4,855.5,0.25,37,138.0
6562,G4,855.75,0.248,33,138.0
6563,E4,855.75,0.248,33,138.0
6564,C6,856.0,1.5,44,138.0
6565,E4,856.0,0.5,33,138.0
6566,G4,856.0,0.5,33,138.0
6567,B-5,856.5,0.25,50,138.0
6568,C4,856.5,0.5,28,138.0
6569,E4,856.5,0.5,28,138.0
6570,G#5,856.75,0.246,44,138.0
6571,G#5,857.0,0.5,49,138.0
6572,F4,857.0,0.5,33,138.0
6573,G#4,857.0,0.5,33,138.0
6574,G#5,857.5,1.0,55,138.0
6575,F6,857.5,0.5,55,138.0
6576,B5,857.5,0.5,55,138.0
6577,F#4,857.5,0.25,37,138.0
6578,E-4,857.5,0.25,37,138.0
6579,F4,857.75,0.248,33,138.0
6580,D4,857.75,0.248,33,138.0
6581,B-5,858.0,1.5,44,138.0
6582,D4,858.0,0.5,33,138.0
6583,F4,858.0,0.5,33,138.0
6584,G#5,858.5,0.25,50,138.0
6585,D4,858.5,0.5,28,138.0
6586,B-3,858.5,0.5,28,138.0
6587,G5,858.75,0.246,44,138.0
6588,G5,859.0,0.5,49,138.0
6589,E-4,859.0,0.5,33,138.0
6590,G4,859.0,0.5,33,138.0
6591,G5,859.5,1.0,46,138.0
6592,E6,859.5,0.5,50,138.0
6593,B-5,859.5,0.5,50,138.0
6594,F4,859.5,0.25,37,138.0
6595,D4,859.5,0.25,37,138.0
6596,C#4,859.75,0.248,33,138.0
6597,E4,859.75,0.248,33,138.0
6598,A5,860.0,1.5,44,138.0
6599,C#4,860.0,0.5,33,138.0
6600,E4,860.0,0.5,33,138.0
6601,G5,860.5,0.25,50,138.0
6602,C#4,860.5,0.5,28,138.0
6603,A3,860.5,0.5,28,138.0
6604,F5,860.75,0.246,44,138.0
6605,F5,861.0,0.5,49,138.0
6606,F4,861.0,0.5,33,138.0
6607,D4,861.0,0.5,33,138.0
6608,G#5,861.5,0.5,49,138.0
6609,D6,861.5,0.5,49,138.0
6610,F5,861.5,0.5,49,138.0
6611,E-4,861.5,0.25,37,138.0
6612,C4,861.5,0.25,37,138.0
6613,D4,861.75,0.248,33,138.0
6614,B3,861.75,0.248,33,138.0
6615,G#5,862.0,0.25,55,138.0
6616,F5,862.0,0.5,46,138.0
6617,D4,862.0,0.5,33,138.0
6618,B3,862.0,0.5,33,138.0
6619,G5,862.25,0.5,46,138.0
6620,E-5,862.5,0.5,46,138.0
6621,C4,862.5,0.25,36,138.0
6622,E-4,862.5,0.5,30,138.0
6623,C6,862.75,0.25,48,138.0
6624,B-3,862.75,0.25,30,138.0
6625,F#5,863.0,0.25,55,138.0
6626,E-5,863.0,0.5,46,138.0
6627,A3,863.0,0.5,33,138.0
6628,C4,863.0,0.5,33,138.0
6629,F5,863.25,0.5,47,138.0
6630,D5,863.5,0.5,46,138.0
6631,B-3,863.5,0.25,36,138.0
6632,D4,863.5,0.5,30,138.0
6633,B-5,863.75,0.25,49,138.0
6634,D3,863.75,0.25,32,138.0
6635,F5,864.0,0.25,56,138.0
6636,F3,864.0,3.0,27,138.0
6637,E-4,864.0,3.0,27,138.0
6638,C3,864.0,3.0,27,138.0
6639,F6,864.25,0.25,49,138.0
6640,E6,864.5,0.25,50,138.0
6641,E-6,864.75,0.25,50,138.0
6642,C6,865.0,0.25,51,138.0
6643,A5,865.25,0.25,52,138.0
6644,F#5,865.5,0.25,53,138.0
6645,F5,865.75,0.25,54,138.0
6646,E5,866.0,0.25,55,138.0
6647,E-5,866.25,0.25,56,138.0
6648,C5,866.5,0.25,56,138.0
6649,A4,866.75,0.25,57,138.0
6650,F#4,867.0,0.25,61,138.0
6651,B-4,867.0,0.5,51,138.0
6652,D4,867.0,1.0,27,138.0
6653,D3,867.0,1.0,27,138.0
6654,F3,867.0,1.0,27,138.0
6655,F4,867.25,0.25,47,138.0
6656,G5,867.5,0.25,58,138.0
6657,B-4,867.5,0.5,49,138.0
6658,F5,867.75,0.25,47,138.0
6659,F5,868.0,0.25,56,138.0
6660,C2,868.0,3.0,27,138.0
6661,E-3,868.0,3.0,27,138.0
6662,F2,868.0,3.0,27,138.0
6663,F6,868.25,0.25,50,138.0
6664,E6,868.5,0.25,51,138.0
6665,E-6,868.75,0.25,52,138.0
6666,C6,869.0,0.25,53,138.0
6667,A5,869.25,0.25,54,138.0
6668,F#5,869.5,0.25,55,138.0
6669,F5,869.75,0.25,57,138.0
6670,E5,870.0,0.25,58,138.0
6671,E-5,870.25,0.25,59,138.0
6672,C5,870.5,0.25,60,138.0
6673,A4,870.75,0.25,61,138.0
6674,F#4,871.0,0.25,64,138.0
6675,B-4,871.0,0.5,64,138.0
6676,D2,871.0,1.0,27,138.0
6677,F2,871.0,1.0,27,138.0
6678,D3,871.0,1.0,27,138.0
6679,F4,871.25,0.25,47,138.0
6680,B-4,871.5,0.5,49,138.0
6681,G5,871.5,0.25,58,138.0
6682,F5,871.75,0.25,47,138.0
6683,F5,872.0,0.25,52,138.0
6684,D3,872.0,1.0,28,138.0
6685,D2,872.0,1.0,28,138.0
6686,D5,872.25,0.25,50,138.0
6687,B-5,872.25,0.25,50,138.0
6688,F5,872.5,0.25,54,138.0
6689,D6,872.5,0.25,54,138.0
6690,C6,872.75,0.25,48,138.0
6691,E-5,872.75,0.25,48,138.0
6692,B-5,873.0,2.0,58,138.0
6693,D5,873.0,0.25,58,138.0
6694,G2,873.0,1.0,26,138.0
6695,G3,873.0,1.0,26,138.0
6696,F#5,873.25,0.25,50,138.0
6697,G5,873.5,0.25,55,138.0
6698,D5,873.75,0.25,50,138.0
6699,C#5,874.0,0.25,54,138.0
6700,E3,874.0,1.0,28,138.0
6701,E2,874.0,1.0,28,138.0
6702,F#5,874.25,0.25,58,138.0
6703,G5,874.5,0.25,58,138.0
6704,C#5,874.75,0.25,53,138.0
6705,C5,875.0,0.25,56,138.0
6706,F3,875.0,0.5,26,138.0
6707,F2,875.0,0.5,26,138.0
6708,E5,875.25,0.25,50,138.0
6709,F5,875.5,0.25,60,138.0
6710,F6,875.75,0.25,54,138.0
6711,F6,876.0,0.25,61,138.0
6712,C4,876.0,3.0,27,138.0
6713,E-5,876.0,3.0,27,138.0
6714,F4,876.0,3.0,27,138.0
6715,F7,876.25,0.25,48,138.0
6716,E7,876.5,0.25,49,138.0
6717,E-7,876.75,0.25,50,138.0
6718,C7,877.0,0.25,51,138.0
6719,A6,877.25,0.25,51,138.0
6720,F#6,877.5,0.25,52,138.0
6721,F6,877.75,0.25,53,138.0
6722,E6,878.0,0.25,55,138.0
6723,E-6,878.25,0.25,60,138.0
6724,C6,878.5,0.25,64,138.0
6725,A5,878.75,0.25,67,138.0
6726,B-5,879.0,0.5,60,138.0
6727,F#5,879.0,0.25,72,138.0
6728,D5,879.0,1.0,27,138.0
6729,D4,879.0,1.0,27,138.0
6730,F4,879.0,1.0,27,138.0
6731,F5,879.25,0.25,51,138.0
6732,G6,879.5,0.25,63,138.0
6733,B-5,879.5,0.5,53,138.0
6734,F6,879.75,0.25,51,138.0
6735,E-4,880.0,3.0,27,138.0
6736,C3,880.0,3.0,27,138.0
6737,F3,880.0,3.0,27,138.0
6738,F6,880.25,0.25,48,138.0
6739,E6,880.5,0.25,49,138.0
6740,E-6,880.75,0.25,50,138.0
6741,C6,881.0,0.25,51,138.0
6742,A5,881.25,0.25,51,138.0
6743,F#5,881.5,0.25,52,138.0
6744,F5,881.75,0.25,53,138.0
6745,E5,882.0,0.25,57,138.0
6746,E-5,882.25,0.25,59,138.0
6747,C5,882.5,0.25,61,138.0
6748,A4,882.75,0.25,63,138.0
6749,B-4,883.0,0.5,54,138.0
6750,F#4,883.0,0.25,67,138.0
6751,D3,883.0,1.0,27,138.0
6752,D4,883.0,1.0,27,138.0
6753,F3,883.0,1.0,27,138.0
6754,F4,883.25,0.25,51,138.0
6755,G5,883.5,0.25,63,138.0
6756,B-4,883.5,0.5,53,138.0
6757,F5,883.75,0.25,51,138.0
6758,F5,884.0,0.25,56,138.0
6759,D3,884.0,1.0,28,138.0
6760,D4,884.0,1.0,28,138.0
6761,B-5,884.25,0.25,50,138.0
6762,D5,884.25,0.25,50,138.0
6763,F5,884.5,0.25,54,138.0
6764,D6,884.5,0.25,54,138.0
6765,C6,884.75,0.25,48,138.0
6766,E-5,884.75,0.25,48,138.0
6767,D5,885.0,0.25,58,138.0
6768,B-5,885.0,2.0,58,138.0
6769,G3,885.0,1.0,26,138.0
6770,G4,885.0,1.0,26,138.0
6771,F#5,885.25,0.25,50,138.0
6772,G5,885.5,0.25,55,138.0
6773,D5,885.75,0.25,50,138.0
6774,C#5,886.0,0.25,54,138.0
6775,E3,886.0,1.0,28,138.0
6776,E4,886.0,1.0,28,138.0
6777,F#5,886.25,0.25,58,138.0
6778,G5,886.5,0.25,58,138.0
6779,C#5,886.75,0.25,53,138.0
6780,C5,887.0,0.25,56,138.0
6781,A5,887.0,0.5,54,138.0
6782,F3,887.0,0.5,26,138.0
6783,F4,887.0,0.5,26,138.0
6784,F5,887.25,0.25,50,138.0
6785,B-5,887.5,0.5,54,138.0
6786,B-4,887.5,0.25,60,138.0
6787,F#3,887.5,0.5,26,138.0
6788,F#4,887.5,0.5,26,138.0
6789,E-5,887.75,0.25,50,138.0
6790,B-5,888.0,0.25,54,138.0
6791,G3,888.0,1.0,28,138.0
6792,G4,888.0,1.0,28,138.0
6793,E-6,888.25,0.25,52,138.0
6794,G5,888.25,0.25,52,138.0
6795,B-5,888.5,0.25,57,138.0
6796,G6,888.5,0.25,57,138.0
6797,F6,888.75,0.25,52,138.0
6798,G#5,888.75,0.25,52,138.0
6799,E-6,889.0,2.0,63,138.0
6800,G5,889.0,0.25,63,138.0
6801,C4,889.0,1.0,28,138.0
6802,C5,889.0,1.0,28,138.0
6803,B5,889.25,0.25,55,138.0
6804,C6,889.5,0.25,61,138.0
6805,G5,889.75,0.25,56,138.0
6806,F#5,890.0,0.25,61,138.0
6807,A3,890.0,1.0,30,138.0
6808,A4,890.0,1.0,30,138.0
6809,B5,890.25,0.25,64,138.0
6810,C6,890.5,0.25,66,138.0
6811,F#5,890.75,0.25,62,138.0
6812,F5,891.0,0.25,66,138.0
6813,D6,891.0,0.5,63,138.0
6814,B-3,891.0,0.5,31,138.0
6815,B-4,891.0,0.5,31,138.0
6816,B-5,891.25,0.25,59,138.0
6817,E-5,891.5,0.25,66,138.0
6818,E-6,891.5,0.5,64,138.0
6819,B3,891.5,0.5,31,138.0
6820,B4,891.5,0.5,31,138.0
6821,G#5,891.75,0.25,60,138.0
6822,E-6,892.0,0.5,63,138.0
6823,C4,892.0,1.0,33,138.0
6824,C5,892.0,1.0,33,138.0
6825,C6,892.25,0.25,55,138.0
6826,E-6,892.5,0.25,60,138.0
6827,G#6,892.5,0.5,71,138.0
6828,C#6,892.75,0.25,55,138.0
6829,C#6,893.0,0.25,68,138.0
6830,G#6,893.0,2.0,73,138.0
6831,E4,893.0,1.0,32,138.0
6832,E5,893.0,1.0,32,138.0
6833,B5,893.25,0.25,63,138.0
6834,B-5,893.5,0.25,70,138.0
6835,B5,893.75,0.25,65,138.0
6836,B5,894.0,0.25,70,138.0
6837,D4,894.0,1.0,36,138.0
6838,D5,894.0,1.0,36,138.0
6839,E6,894.25,0.25,73,138.0
6840,F6,894.5,0.25,77,138.0
6841,B5,894.75,0.25,71,138.0
6842,G6,895.0,1.5,78,138.0
6843,B-5,895.0,0.25,75,138.0
6844,E-4,895.0,1.5,39,138.0
6845,E-5,895.0,1.5,39,138.0
6846,D6,895.25,0.25,68,138.0
6847,E-6,895.5,0.25,82,138.0
6848,B-5,895.75,0.25,69,138.0
6849,G5,896.0,0.5,83,138.0
6850,G6,896.5,0.5,82,138.0
6851,E-6,896.5,0.5,82,138.0
6852,G5,896.5,0.5,82,138.0
6853,B-5,896.5,0.5,82,138.0
6854,E-2,896.5,0.5,61,138.0
6855,E-3,896.5,0.5,61,138.0
6856,D6,897.0,0.5,81,138.0
6857,F6,897.0,0.5,81,138.0
6858,G6,897.5,0.25,80,138.0
6859,E-6,897.5,0.25,80,138.0
6860,F6,897.75,0.25,85,138.0
6861,G#6,897.75,0.25,85,138.0
6862,B-6,898.0,0.25,88,138.0
6863,G6,898.0,0.25,88,138.0
6864,G6,898.5,0.25,84,138.0
6865,E-6,898.5,0.25,84,138.0
6866,G4,898.5,0.25,76,138.0
6867,E-4,898.5,0.25,76,138.0
6868,D4,899.0,0.5,73,138.0
6869,F4,899.0,0.5,73,138.0
6870,E-4,899.5,0.25,74,138.0
6871,G4,899.5,0.25,74,138.0
6872,G#4,899.75,0.25,78,138.0
6873,F4,899.75,0.25,78,138.0
6874,B-4,900.0,0.25,81,138.0
6875,G4,900.0,0.25,81,138.0
6876,G6,900.5,0.5,82,138.0
6877,G5,900.5,0.5,82,138.0
6878,B-5,900.5,0.5,82,138.0
6879,E-6,900.5,0.5,82,138.0
6880,E-3,900.5,0.5,61,138.0
6881,E-2,900.5,0.5,61,138.0
6882,F6,901.0,0.5,81,138.0
6883,D6,901.0,0.5,81,138.0
6884,E-6,901.5,0.25,80,138.0
6885,G6,901.5,0.25,80,138.0
6886,F6,901.75,0.25,85,138.0
6887,G#6,901.75,0.25,85,138.0
6888,G6,902.0,0.25,88,138.0
6889,B-6,902.0,0.25,88,138.0
6890,G5,902.5,0.5,90,138.0
6891,B-4,902.5,0.5,90,138.0
6892,C5,902.5,0.5,90,138.0
6893,B-5,902.5,0.5,90,138.0
6894,E2,902.5,0.5,68,138.0
6895,E3,902.5,0.5,68,138.0
6896,E5,903.5,0.5,90,138.0
6897,B-4,903.5,0.5,90,138.0
6898,G5,903.5,0.5,90,138.0
6899,B-5,903.5,0.5,90,138.0
6900,C3,903.5,0.5,73,138.0
6901,C2,903.5,0.5,73,138.0
6902,B-5,904.5,0.5,90,138.0
6903,D5,904.5,0.5,90,138.0
6904,F5,904.5,0.5,90,138.0
6905,B-4,904.5,0.5,90,138.0
6906,F3,904.5,0.5,68,138.0
6907,F2,904.5,0.5,68,138.0
6908,C5,905.5,0.5,83,138.0
6909,B-5,905.5,0.5,83,138.0
6910,B-4,905.5,0.5,83,138.0
6911,E5,905.5,0.5,83,138.0
6912,G3,905.5,0.5,66,138.0
6913,G2,905.5,0.5,66,138.0
6914,F2,906.0,0.25,50,138.0
6915,D5,906.0,1.0,68,138.0
6916,B-5,906.0,1.0,68,138.0
6917,B-4,906.0,1.0,68,138.0
6918,F5,906.0,1.0,68,138.0
6919,A2,906.25,0.25,50,138.0
6920,B-2,906.5,0.25,50,138.0
6921,D3,906.75,0.25,50,138.0
6922,F3,907.0,0.25,50,138.0
6923,F5,907.0,1.5,59,138.0
6924,D5,907.0,1.5,59,138.0
6925,A3,907.25,0.25,50,138.0
6926,B-3,907.5,0.25,50,138.0
6927,D4,907.75,0.25,50,138.0
6928,F4,908.0,0.25,50,138.0
6929,A4,908.25,0.25,50,138.0
6930,D5,908.5,0.246,63,138.0
6931,B-4,908.5,0.25,50,138.0
6932,D5,908.75,0.25,50,138.0
6933,F5,909.0,0.25,56,138.0
6934,A5,909.25,0.25,57,138.0
6935,B-5,909.5,0.25,58,138.0
6936,B-4,909.5,0.25,43,138.0
6937,D6,909.75,0.25,59,138.0
6938,D5,909.75,0.25,44,138.0
6939,E6,910.0,0.25,60,138.0
6940,E5,910.0,0.25,45,138.0
6941,F6,910.25,0.25,61,138.0
6942,F5,910.25,0.25,46,138.0
6943,G6,910.5,0.25,62,138.0
6944,G5,910.5,0.25,47,138.0
6945,F6,910.75,0.25,62,138.0
6946,F5,910.75,0.25,48,138.0
6947,A6,911.0,0.25,63,138.0
6948,A5,911.0,0.25,50,138.0
6949,B-6,911.25,0.25,64,138.0
6950,B-5,911.25,0.25,51,138.0
6951,C7,911.5,0.25,65,138.0
6952,C6,911.5,0.25,52,138.0
6953,B-6,911.75,0.25,66,138.0
6954,B-5,911.75,0.25,53,138.0
6955,C#7,912.0,0.25,67,138.0
6956,C#6,912.0,0.25,54,138.0
6957,D7,912.25,0.25,68,138.0
6958,D6,912.25,0.25,55,138.0
6959,E-7,912.5,0.25,69,138.0
6960,E-6,912.5,0.25,56,138.0
6961,D7,912.75,0.25,70,138.0
6962,D6,912.75,0.25,58,138.0
6963,F7,913.0,0.5,71,138.0
6964,F6,913.0,0.5,59,138.0
6965,F4,913.5,0.167,60,138.0
6966,E-5,913.5,0.5,64,138.0
6967,C5,913.5,0.5,64,138.0
6968,G4,913.667,0.167,63,138.0
6969,A4,913.833,0.167,66,138.0
6970,D5,914.0,2.0,58,138.0
6971,B-3,914.0,0.333,40,138.0
6972,B-4,914.333,0.333,32,138.0
6973,A4,914.667,0.333,32,138.0
6974,D6,915.0,1.0,59,138.0
6975,B-4,915.0,0.333,40,138.0
6976,A4,915.333,0.333,33,138.0
6977,B-4,915.667,0.333,33,138.0
6978,F#4,916.0,0.333,40,138.0
6979,E-6,916.0,1.0,52,138.0
6980,E-5,916.0,1.0,52,138.0
6981,B-4,916.333,0.333,31,138.0
6982,F#4,916.667,0.333,31,138.0
6983,B-4,917.0,0.333,40,138.0
6984,F#6,917.0,1.0,56,138.0
6985,F#5,917.0,1.0,56,138.0
6986,E-4,917.333,0.333,33,138.0
6987,B-4,917.667,0.333,33,138.0
6988,B-5,918.0,2.0,62,138.0
6989,D4,918.0,0.333,40,138.0
6990,B-4,918.333,0.333,31,138.0
6991,F4,918.667,0.333,31,138.0
6992,B-3,919.0,0.333,40,138.0
6993,F5,919.0,1.0,54,138.0
6994,D5,919.0,1.0,54,138.0
6995,B-4,919.333,0.333,32,138.0
6996,F4,919.667,0.333,32,138.0
6997,F#5,920.0,1.0,59,138.0
6998,E-4,920.0,0.333,40,138.0
6999,B-4,920.333,0.333,33,138.0
7000,F#6,920.5,0.5,60,138.0
7001,E-4,920.667,0.333,33,138.0
7002,F#4,921.0,0.333,40,138.0
7003,E-6,921.0,1.0,58,138.0
7004,E-5,921.0,1.0,58,138.0
7005,B-4,921.333,0.333,32,138.0
7006,F#4,921.667,0.333,32,138.0
7007,F4,922.0,0.333,40,138.0
7008,C#5,922.0,1.0,61,138.0
7009,C#6,922.0,1.0,61,138.0
7010,B-4,922.333,0.333,32,138.0
7011,F4,922.667,0.333,32,138.0
7012,B4,923.0,0.333,40,138.0
7013,D6,923.0,1.0,58,138.0
7014,D5,923.0,1.0,58,138.0
7015,F4,923.333,0.333,36,138.0
7016,B4,923.667,0.333,36,138.0
7017,F4,924.0,0.333,40,138.0
7018,F5,924.0,1.0,59,138.0
7019,F6,924.0,1.0,59,138.0
7020,C5,924.333,0.333,33,138.0
7021,A4,924.667,0.333,33,138.0
7022,F3,925.0,0.333,40,138.0
7023,E-6,925.0,0.75,58,138.0
7024,E-5,925.0,0.75,58,138.0
7025,C4,925.333,0.333,34,138.0
7026,A3,925.667,0.333,34,138.0
7027,C5,925.75,0.25,52,138.0
7028,C6,925.75,0.25,52,138.0
7029,B-5,926.0,0.169,49,138.0
7030,B-2,926.0,0.25,40,138.0
7031,D6,926.0,2.0,54,138.0
7032,F5,926.0,2.0,54,138.0
7033,C6,926.169,0.167,42,138.0
7034,B-3,926.25,0.25,33,138.0
7035,B-5,926.335,0.169,49,138.0
7036,D4,926.5,0.25,33,138.0
7037,C6,926.502,0.169,44,138.0
7038,B-5,926.671,0.167,49,138.0
7039,B-3,926.75,0.25,33,138.0
7040,C6,926.837,0.169,44,138.0
7041,B-5,927.0,0.169,50,138.0
7042,F3,927.0,0.25,41,138.0
7043,C6,927.169,0.167,44,138.0
7044,B-3,927.25,0.25,35,138.0
7045,B-5,927.335,0.169,50,138.0
7046,G#4,927.5,0.25,35,138.0
7047,C6,927.502,0.169,46,138.0
7048,B-5,927.671,0.167,51,138.0
7049,B-3,927.75,0.25,35,138.0
7050,C6,927.837,0.169,45,138.0
7051,B-5,928.0,0.169,51,138.0
7052,G3,928.0,0.25,42,138.0
7053,E-5,928.0,1.0,62,138.0
7054,E-6,928.0,1.0,62,138.0
7055,C6,928.169,0.167,44,138.0
7056,B-3,928.25,0.25,36,138.0
7057,B-5,928.335,0.169,52,138.0
7058,B-4,928.5,0.25,36,138.0
7059,C6,928.502,0.169,47,138.0
7060,B-5,928.671,0.167,52,138.0
7061,B-3,928.75,0.25,37,138.0
7062,C6,928.837,0.169,47,138.0
7063,B-5,929.0,0.169,53,138.0
7064,E-3,929.0,0.25,44,138.0
7065,G5,929.0,1.0,68,138.0
7066,G6,929.0,1.0,68,138.0
7067,C6,929.169,0.167,47,138.0
7068,B-3,929.25,0.25,37,138.0
7069,B-5,929.335,0.169,54,138.0
7070,G4,929.5,0.25,37,138.0
7071,C6,929.502,0.169,48,138.0
7072,B-5,929.671,0.167,54,138.0
7073,B-3,929.75,0.25,38,138.0
7074,C6,929.837,0.169,48,138.0
7075,B-5,930.0,0.169,55,138.0
7076,B-6,930.0,2.0,85,138.0
7077,D3,930.0,0.25,45,138.0
7078,C6,930.169,0.167,47,138.0
7079,B-3,930.25,0.25,37,138.0
7080,B-5,930.335,0.169,55,138.0
7081,F4,930.5,0.25,37,138.0
7082,C6,930.502,0.169,50,138.0
7083,B-5,930.671,0.167,56,138.0
7084,B-3,930.75,0.25,37,138.0
7085,C6,930.837,0.169,51,138.0
7086,B-5,931.0,0.169,56,138.0
7087,B-2,931.0,0.25,46,138.0
7088,C6,931.169,0.167,50,138.0
7089,B-3,931.25,0.25,39,138.0
7090,B-5,931.335,0.169,57,138.0
7091,D4,931.5,0.25,40,138.0
7092,C6,931.502,0.169,51,138.0
7093,B-5,931.671,0.167,57,138.0
7094,B-3,931.75,0.25,40,138.0
7095,C6,931.837,0.169,51,138.0
7096,B-5,932.0,0.169,58,138.0
7097,E-3,932.0,0.25,48,138.0
7098,G5,932.0,1.0,66,138.0
7099,G6,932.0,1.0,66,138.0
7100,C6,932.169,0.167,50,138.0
7101,B-3,932.25,0.25,42,138.0
7102,B-5,932.335,0.169,59,138.0
7103,G4,932.5,0.25,42,138.0
7104,C6,932.502,0.169,53,138.0
7105,B-5,932.671,0.167,59,138.0
7106,B-3,932.75,0.25,42,138.0
7107,C6,932.837,0.169,53,138.0
7108,B-5,933.0,0.169,60,138.0
7109,G3,933.0,0.25,51,138.0
7110,E-5,933.0,1.0,71,138.0
7111,E-6,933.0,1.0,71,138.0
7112,C6,933.169,0.167,52,138.0
7113,B-3,933.25,0.25,43,138.0
7114,B-5,933.335,0.169,60,138.0
7115,B-4,933.5,0.25,43,138.0
7116,C6,933.502,0.169,55,138.0
7117,B-5,933.671,0.167,61,138.0
7118,B-3,933.75,0.25,43,138.0
7119,C6,933.837,0.169,54,138.0
7120,B-5,934.0,0.169,61,138.0
7121,F3,934.0,0.25,50,138.0
7122,C#5,934.0,0.5,74,138.0
7123,C#6,934.0,0.5,74,138.0
7124,C6,934.169,0.167,53,138.0
7125,B-3,934.25,0.25,44,138.0
7126,B-5,934.335,0.169,62,138.0
7127,A3,934.5,0.25,48,138.0
7128,D6,934.5,1.0,70,138.0
7129,D5,934.5,1.0,70,138.0
7130,C6,934.502,0.169,56,138.0
7131,B-5,934.671,0.167,62,138.0
7132,B-3,934.75,0.25,51,138.0
7133,C6,934.837,0.169,56,138.0
7134,B-5,935.0,0.169,63,138.0
7135,F3,935.0,0.25,54,138.0
7136,C6,935.169,0.167,55,138.0
7137,D3,935.25,0.25,55,138.0
7138,B-5,935.335,0.169,64,138.0
7139,C3,935.5,0.25,55,138.0
7140,F5,935.5,0.5,80,138.0
7141,F6,935.5,0.5,80,138.0
7142,C6,935.502,0.169,57,138.0
7143,B-5,935.671,0.167,64,138.0
7144,B-2,935.75,0.25,54,138.0
7145,C6,935.837,0.169,56,138.0
7146,F6,936.0,1.25,86,138.0
7147,A5,936.0,0.169,75,138.0
7148,F2,936.0,0.25,54,138.0
7149,B-5,936.169,0.167,66,138.0
7150,G2,936.25,0.25,49,138.0
7151,A5,936.335,0.169,75,138.0
7152,A2,936.5,0.25,49,138.0
7153,B-5,936.502,0.169,64,138.0
7154,A5,936.671,0.167,75,138.0
7155,B-2,936.75,0.25,49,138.0
7156,B-5,936.837,0.169,68,138.0
7157,A5,937.0,0.169,78,138.0
7158,C3,937.0,0.25,54,138.0
7159,B-5,937.169,0.167,69,138.0
7160,E-6,937.25,0.25,86,138.0
7161,D3,937.25,0.25,50,138.0
7162,A5,937.335,0.169,75,138.0
7163,E-3,937.5,0.25,59,138.0
7164,G5,937.5,0.25,79,138.0
7165,C6,937.5,0.25,79,138.0
7166,F3,937.75,0.25,66,138.0
7167,A5,937.75,0.25,79,138.0
7168,F6,937.75,0.25,79,138.0
7169,B-1,938.0,0.25,66,138.0
7170,G#5,938.0,0.25,91,138.0
7171,F5,938.0,0.25,91,138.0
7172,D6,938.0,0.25,91,138.0
7173,F6,938.0,0.25,91,138.0
7174,B-2,938.25,0.25,56,138.0
7175,B-1,938.5,0.25,66,138.0
7176,F6,938.5,1.0,82,138.0
7177,G#6,938.5,1.0,82,138.0
7178,F7,938.5,1.0,82,138.0
7179,D7,938.5,1.0,82,138.0
7180,B-2,938.75,0.25,56,138.0
7181,B-1,939.0,0.25,66,138.0
7182,B-2,939.25,0.25,57,138.0
7183,B-1,939.5,0.25,66,138.0
7184,E-7,939.5,0.25,69,138.0
7185,G#6,939.5,0.25,69,138.0
7186,E-6,939.5,0.25,69,138.0
7187,F6,939.5,0.25,69,138.0
7188,B-2,939.75,0.25,57,138.0
7189,B-1,940.0,0.25,66,138.0
7190,D6,940.0,0.25,70,138.0
7191,D7,940.0,0.25,70,138.0
7192,F6,940.0,0.25,70,138.0
7193,G#6,940.0,0.25,70,138.0
7194,B-2,940.25,0.25,57,138.0
7195,B-1,940.5,0.25,66,138.0
7196,E-6,940.5,0.25,73,138.0
7197,F6,940.5,0.25,73,138.0
7198,E-7,940.5,0.25,73,138.0
7199,G#6,940.5,0.25,73,138.0
7200,B-2,940.75,0.25,58,138.0
7201,B-1,941.0,0.25,66,138.0
7202,G#6,941.0,0.25,73,138.0
7203,F7,941.0,0.25,73,138.0
7204,F6,941.0,0.25,73,138.0
7205,B-2,941.25,0.25,59,138.0
7206,B1,941.5,0.25,45,138.0
7207,D7,941.5,0.25,61,138.0
7208,G6,941.5,0.25,61,138.0
7209,F6,941.5,0.25,61,138.0
7210,D6,941.5,0.25,61,138.0
7211,B2,941.75,0.25,34,138.0
7212,C2,942.0,0.25,43,138.0
7213,E-6,942.0,0.25,53,138.0
7214,E-7,942.0,0.25,53,138.0
7215,G6,942.0,0.25,53,138.0
7216,C3,942.25,0.25,33,138.0
7217,B1,942.5,0.25,43,138.0
7218,D6,942.5,0.25,47,138.0
7219,D7,942.5,0.25,47,138.0
7220,G6,942.5,0.25,47,138.0
7221,F6,942.5,0.25,47,138.0
7222,B2,942.75,0.25,33,138.0
7223,C2,943.0,0.25,43,138.0
7224,E-7,943.0,0.25,53,138.0
7225,E-6,943.0,0.25,53,138.0
7226,G6,943.0,0.25,53,138.0
7227,C3,943.25,0.25,34,138.0
7228,E-2,943.5,0.25,43,138.0
7229,G6,943.5,0.25,48,138.0
7230,C6,943.5,0.25,48,138.0
7231,C7,943.5,0.25,48,138.0
7232,E-3,943.75,0.25,35,138.0
7233,E2,944.0,0.25,43,138.0
7234,C6,944.0,0.25,53,138.0
7235,B-6,944.0,0.25,53,138.0
7236,G6,944.0,0.25,53,138.0
7237,E3,944.25,0.25,33,138.0
7238,G2,944.5,0.25,43,138.0
7239,E6,944.5,0.25,48,138.0
7240,C6,944.5,0.25,48,138.0
7241,B-6,944.5,0.25,48,138.0
7242,G3,944.75,0.25,33,138.0
7243,F2,945.0,0.25,43,138.0
7244,E-6,945.0,0.25,53,138.0
7245,C6,945.0,0.25,53,138.0
7246,A6,945.0,0.25,53,138.0
7247,F3,945.25,0.25,34,138.0
7248,F2,945.5,0.25,43,138.0
7249,C6,945.5,0.25,48,138.0
7250,C7,945.5,0.25,48,138.0
7251,E-6,945.5,0.25,48,138.0
7252,F3,945.75,0.25,35,138.0
7253,F2,946.0,0.25,47,138.0
7254,D6,946.0,0.25,58,138.0
7255,B-5,946.0,0.25,58,138.0
7256,B-6,946.0,0.25,58,138.0
7257,F3,946.25,0.25,36,138.0
7258,B-2,946.5,0.25,48,138.0
7259,F5,946.5,0.25,53,138.0
7260,D6,946.5,0.25,53,138.0
7261,F6,946.5,0.25,53,138.0
7262,B-3,946.75,0.25,37,138.0
7263,F2,947.0,0.25,50,138.0
7264,F6,947.0,0.25,61,138.0
7265,A5,947.0,0.25,61,138.0
7266,A6,947.0,0.25,61,138.0
7267,E-6,947.0,0.25,61,138.0
7268,F3,947.25,0.246,40,138.0
7269,F3,947.5,0.25,53,138.0
7270,C7,947.5,0.25,58,138.0
7271,F6,947.5,0.25,58,138.0
7272,E-6,947.5,0.25,58,138.0
7273,C6,947.5,0.25,58,138.0
7274,F4,947.75,0.25,44,138.0
7275,F2,948.0,0.25,54,138.0
7276,D6,948.0,0.25,67,138.0
7277,B-6,948.0,0.25,67,138.0
7278,B-5,948.0,0.25,67,138.0
7279,F3,948.25,0.25,42,138.0
7280,B-2,948.5,0.25,57,138.0
7281,F6,948.5,0.25,62,138.0
7282,D6,948.5,0.25,62,138.0
7283,F5,948.5,0.25,62,138.0
7284,B-3,948.75,0.25,44,138.0
7285,F2,949.0,0.25,58,138.0
7286,A5,949.0,0.25,72,138.0
7287,E-6,949.0,0.25,72,138.0
7288,F6,949.0,0.25,72,138.0
7289,A6,949.0,0.25,72,138.0
7290,F3,949.25,0.246,47,138.0
7291,F3,949.5,0.25,61,138.0
7292,E-6,949.5,0.25,67,138.0
7293,F6,949.5,0.25,67,138.0
7294,C7,949.5,0.25,67,138.0
7295,C6,949.5,0.25,67,138.0
7296,F4,949.75,0.25,51,138.0
7297,B-5,950.0,0.25,77,138.0
7298,B-2,950.0,0.25,59,138.0
7299,B-6,950.25,0.25,70,138.0
7300,B-3,950.25,0.25,50,138.0
7301,F5,950.5,0.25,79,138.0
7302,F2,950.5,0.25,61,138.0
7303,F6,950.75,0.25,73,138.0
7304,F3,950.75,0.25,51,138.0
7305,A5,951.0,0.25,82,138.0
7306,A2,951.0,0.25,64,138.0
7307,A6,951.25,0.25,76,138.0
7308,A3,951.25,0.25,55,138.0
7309,C6,951.5,0.25,85,138.0
7310,C3,951.5,0.25,67,138.0
7311,C7,951.75,0.25,79,138.0
7312,C4,951.75,0.25,58,138.0
7313,B-5,952.0,0.25,88,138.0
7314,B-2,952.0,0.25,68,138.0
7315,B-6,952.25,0.25,82,138.0
7316,B-3,952.25,0.25,63,138.0
7317,F5,952.5,0.25,91,138.0
7318,F2,952.5,0.25,71,138.0
7319,F6,952.75,0.25,81,138.0
7320,F3,952.75,0.25,63,138.0
7321,A4,953.0,0.25,89,138.0
7322,A1,953.0,0.25,71,138.0
7323,A5,953.25,0.25,81,138.0
7324,A2,953.25,0.25,60,138.0
7325,C5,953.5,0.25,90,138.0
7326,C2,953.5,0.25,71,138.0
7327,C6,953.75,0.25,80,138.0
7328,C3,953.75,0.25,63,138.0
7329,B-4,954.0,0.25,88,138.0
7330,B-1,954.0,0.25,68,138.0
7331,B-5,954.25,0.25,82,138.0
7332,B-2,954.25,0.25,63,138.0
7333,F4,954.5,0.25,91,138.0
7334,F1,954.5,0.25,71,138.0
7335,F5,954.75,0.25,81,138.0
7336,F2,954.75,0.25,63,138.0
7337,B4,955.0,0.25,89,138.0
7338,B1,955.0,0.25,71,138.0
7339,B5,955.25,0.25,81,138.0
7340,B2,955.25,0.25,60,138.0
7341,D5,955.5,0.25,90,138.0
7342,D2,955.5,0.25,71,138.0
7343,D6,955.75,0.25,80,138.0
7344,D3,955.75,0.25,63,138.0
7345,C5,956.0,0.25,88,138.0
7346,C2,956.0,0.25,68,138.0
7347,C6,956.25,0.25,82,138.0
7348,C3,956.25,0.25,63,138.0
7349,G4,956.5,0.25,91,138.0
7350,G1,956.5,0.25,71,138.0
7351,G5,956.75,0.25,81,138.0
7352,G2,956.75,0.25,63,138.0
7353,B4,957.0,0.25,89,138.0
7354,B1,957.0,0.25,71,138.0
7355,B5,957.25,0.25,81,138.0
7356,B2,957.25,0.25,60,138.0
7357,D5,957.5,0.25,90,138.0
7358,D2,957.5,0.25,71,138.0
7359,D6,957.75,0.25,80,138.0
7360,D3,957.75,0.25,63,138.0
7361,C5,958.0,0.25,88,138.0
7362,C2,958.0,0.25,68,138.0
7363,C6,958.25,0.25,82,138.0
7364,C3,958.25,0.25,63,138.0
7365,G4,958.5,0.25,91,138.0
7366,G1,958.5,0.25,71,138.0
7367,G5,958.75,0.25,81,138.0
7368,G2,958.75,0.25,63,138.0
7369,C5,959.0,0.25,89,138.0
7370,C2,959.0,0.25,71,138.0
7371,C6,959.25,0.25,81,138.0
7372,C3,959.25,0.25,60,138.0
7373,E-5,959.5,0.25,90,138.0
7374,E-2,959.5,0.25,71,138.0
7375,E-6,959.75,0.25,80,138.0
7376,E-3,959.75,0.25,63,138.0
7377,D5,960.0,0.25,88,138.0
7378,D2,960.0,0.25,68,138.0
7379,D6,960.25,0.25,82,138.0
7380,D3,960.25,0.25,63,138.0
7381,A4,960.5,0.25,91,138.0
7382,A1,960.5,0.25,71,138.0
7383,A5,960.75,0.25,80,138.0
7384,A2,960.75,0.25,62,138.0
7385,C#5,961.0,0.25,88,138.0
7386,C#2,961.0,0.25,70,138.0
7387,C#6,961.25,0.25,80,138.0
7388,C#3,961.25,0.25,59,138.0
7389,E5,961.5,0.25,88,138.0
7390,E2,961.5,0.25,69,138.0
7391,E6,961.75,0.25,78,138.0
7392,E3,961.75,0.25,61,138.0
7393,D5,962.0,0.25,86,138.0
7394,D2,962.0,0.25,66,138.0
7395,D6,962.25,0.25,79,138.0
7396,D3,962.25,0.25,61,138.0
7397,A4,962.5,0.25,88,138.0
7398,A1,962.5,0.25,68,138.0
7399,A5,962.75,0.25,78,138.0
7400,A2,962.75,0.25,61,138.0
7401,D5,963.0,0.25,85,138.0
7402,D2,963.0,0.25,68,138.0
7403,D6,963.25,0.25,77,138.0
7404,D3,963.25,0.25,57,138.0
7405,F5,963.5,0.25,85,138.0
7406,F2,963.5,0.25,67,138.0
7407,F6,963.75,0.25,76,138.0
7408,F3,963.75,0.25,59,138.0
7409,E-5,964.0,0.25,83,138.0
7410,E-2,964.0,0.25,64,138.0
7411,E-6,964.25,0.25,77,138.0
7412,E-3,964.25,0.25,59,138.0
7413,B-4,964.5,0.25,85,138.0
7414,B-1,964.5,0.25,66,138.0
7415,B-5,964.75,0.25,76,138.0
7416,B-2,964.75,0.25,59,138.0
7417,D5,965.0,0.25,82,138.0
7418,D2,965.0,0.25,66,138.0
7419,D6,965.25,0.25,75,138.0
7420,D3,965.25,0.25,55,138.0
7421,F5,965.5,0.25,83,138.0
7422,F2,965.5,0.25,66,138.0
7423,F6,965.75,0.25,73,138.0
7424,F3,965.75,0.25,57,138.0
7425,E-5,966.0,0.25,80,138.0
7426,E-2,966.0,0.25,62,138.0
7427,E-6,966.25,0.25,75,138.0
7428,E-3,966.25,0.25,57,138.0
7429,B-4,966.5,0.25,82,138.0
7430,B-1,966.5,0.25,64,138.0
7431,B-5,966.75,0.25,73,138.0
7432,B-2,966.75,0.25,57,138.0
7433,E-5,967.0,0.25,80,138.0
7434,E-2,967.0,0.25,63,138.0
7435,E-6,967.25,0.25,72,138.0
7436,E-3,967.25,0.25,54,138.0
7437,F#5,967.5,0.25,81,138.0
7438,F#2,967.5,0.25,63,138.0
7439,F#6,967.75,0.25,71,138.0
7440,F#3,967.75,0.25,56,138.0
7441,F5,968.0,0.25,78,138.0
7442,F2,968.0,0.25,60,138.0
7443,F6,968.25,0.25,72,138.0
7444,F3,968.25,0.25,56,138.0
7445,C5,968.5,0.25,80,138.0
7446,C2,968.5,0.25,62,138.0
7447,C6,968.75,0.25,71,138.0
7448,C3,968.75,0.25,55,138.0
7449,E-5,969.0,0.25,78,138.0
7450,E-2,969.0,0.25,62,138.0
7451,E-6,969.25,0.25,70,138.0
7452,E-3,969.25,0.25,52,138.0
7453,F#5,969.5,0.25,78,138.0
7454,F#2,969.5,0.25,61,138.0
7455,F#6,969.75,0.25,69,138.0
7456,F#3,969.75,0.25,54,138.0
7457,C#5,970.0,0.25,75,138.0
7458,C#2,970.0,0.25,58,138.0
7459,C#6,970.25,0.25,70,138.0
7460,C#3,970.25,0.25,54,138.0
7461,A4,970.5,0.25,77,138.0
7462,A1,970.5,0.25,60,138.0
7463,A5,970.75,0.25,68,138.0
7464,A2,970.75,0.25,53,138.0
7465,C5,971.0,0.25,75,138.0
7466,C2,971.0,0.25,60,138.0
7467,C6,971.25,0.25,68,138.0
7468,C3,971.25,0.25,50,138.0
7469,E-5,971.5,0.25,75,138.0
7470,E-2,971.5,0.25,59,138.0
7471,E-6,971.75,0.25,67,138.0
7472,E-3,971.75,0.25,52,138.0
7473,F#4,972.0,0.25,73,138.0
7474,F#1,972.0,0.25,56,138.0
7475,F#5,972.25,0.25,68,138.0
7476,F#2,972.25,0.25,52,138.0
7477,F4,972.5,0.25,75,138.0
7478,F1,972.5,0.25,58,138.0
7479,F5,972.75,0.25,66,138.0
7480,F2,972.75,0.25,51,138.0
7481,A4,973.0,0.25,72,138.0
7482,A1,973.0,0.25,58,138.0
7483,A5,973.25,0.25,66,138.0
7484,A2,973.25,0.25,49,138.0
7485,E-5,973.5,0.25,72,138.0
7486,E-2,973.5,0.25,57,138.0
7487,E-6,973.75,0.25,64,138.0
7488,E-3,973.75,0.25,51,138.0
7489,B4,974.0,0.25,40,138.0
7490,D5,974.0,2.0,58,138.0
7491,B-1,974.0,1.0,40,138.0
7492,B-2,974.0,1.0,40,138.0
7493,B-4,974.25,0.25,34,138.0
7494,B4,974.5,0.25,40,138.0
7495,B-4,974.75,0.25,35,138.0
7496,B4,975.0,0.25,40,138.0
7497,G#2,975.0,1.0,35,138.0
7498,G#3,975.0,1.0,35,138.0
7499,B-4,975.25,0.25,35,138.0
7500,B4,975.5,0.25,40,138.0
7501,B-4,975.75,0.25,36,138.0
7502,B4,976.0,0.25,40,138.0
7503,E-5,976.0,1.0,48,138.0
7504,F#2,976.0,1.0,36,138.0
7505,F#3,976.0,1.0,36,138.0
7506,B-4,976.25,0.25,34,138.0
7507,B4,976.5,0.25,40,138.0
7508,B-4,976.75,0.25,35,138.0
7509,F#5,977.0,1.0,51,138.0
7510,B4,977.0,0.25,40,138.0
7511,E-2,977.0,1.0,26,138.0
7512,E-3,977.0,1.0,26,138.0
7513,B-4,977.25,0.25,35,138.0
7514,B4,977.5,0.25,40,138.0
7515,B-4,977.75,0.25,36,138.0
7516,B-5,978.0,2.0,60,138.0
7517,B4,978.0,0.25,40,138.0
7518,D2,978.0,1.0,37,138.0
7519,D3,978.0,1.0,37,138.0
7520,B-4,978.25,0.25,34,138.0
7521,B4,978.5,0.25,40,138.0
7522,B-4,978.75,0.25,35,138.0
7523,B4,979.0,0.25,40,138.0
7524,B-1,979.0,1.0,28,138.0
7525,B-2,979.0,1.0,28,138.0
7526,B-4,979.25,0.25,35,138.0
7527,B4,979.5,0.25,40,138.0
7528,B-4,979.75,0.25,36,138.0
7529,B4,980.0,0.25,40,138.0
7530,F#5,980.0,1.0,62,138.0
7531,E-2,980.0,1.0,37,138.0
7532,E-3,980.0,1.0,37,138.0
7533,B-4,980.25,0.25,34,138.0
7534,B4,980.5,0.25,40,138.0
7535,B-4,980.75,0.25,35,138.0
7536,B4,981.0,0.25,40,138.0
7537,E-5,981.0,1.0,51,138.0
7538,F#3,981.0,0.5,34,138.0
7539,B-3,981.0,0.5,34,138.0
7540,B-4,981.25,0.25,35,138.0
7541,B-4,981.5,0.25,40,138.0
7542,G3,981.5,0.5,30,138.0
7543,B-3,981.5,0.25,39,138.0
7544,C5,981.75,0.25,36,138.0
7545,C4,981.75,0.25,39,138.0
7546,D5,982.0,2.0,52,138.0
7547,B-4,982.0,0.169,39,138.0
7548,F3,982.0,0.5,46,138.0
7549,B-3,982.0,0.169,31,138.0
7550,C5,982.169,0.167,33,138.0
7551,C4,982.169,0.167,26,138.0
7552,B-4,982.335,0.169,39,138.0
7553,B-3,982.335,0.169,31,138.0
7554,G3,982.5,0.5,40,138.0
7555,C5,982.502,0.169,35,138.0
7556,C4,982.502,0.169,27,138.0
7557,B-4,982.671,0.167,39,138.0
7558,B-3,982.671,0.167,31,138.0
7559,C5,982.837,0.169,35,138.0
7560,C4,982.837,0.169,27,138.0
7561,B-4,983.0,0.169,40,138.0
7562,G#3,983.0,0.5,46,138.0
7563,B-3,983.0,0.169,32,138.0
7564,C5,983.169,0.167,35,138.0
7565,C4,983.169,0.167,27,138.0
7566,B-4,983.335,0.169,40,138.0
7567,B-3,983.335,0.169,32,138.0
7568,F3,983.5,0.5,40,138.0
7569,C5,983.502,0.169,36,138.0
7570,C4,983.502,0.169,28,138.0
7571,B-4,983.671,0.167,40,138.0
7572,B-3,983.671,0.167,32,138.0
7573,C5,983.837,0.169,36,138.0
7574,C4,983.837,0.169,28,138.0
7575,E-5,984.0,1.5,60,138.0
7576,B-4,984.0,0.169,40,138.0
7577,B-3,984.0,0.169,32,138.0
7578,G3,984.0,0.5,46,138.0
7579,C5,984.169,0.167,35,138.0
7580,C4,984.169,0.167,27,138.0
7581,B-4,984.335,0.169,41,138.0
7582,B-3,984.335,0.169,32,138.0
7583,G#3,984.5,0.5,40,138.0
7584,C5,984.502,0.169,37,138.0
7585,C4,984.502,0.169,29,138.0
7586,B-4,984.671,0.167,41,138.0
7587,B-3,984.671,0.167,32,138.0
7588,C5,984.837,0.169,37,138.0
7589,C4,984.837,0.169,29,138.0
7590,B-4,985.0,0.169,42,138.0
7591,G3,985.0,0.5,46,138.0
7592,B-3,985.0,0.169,33,138.0
7593,C5,985.169,0.167,37,138.0
7594,C4,985.169,0.167,29,138.0
7595,B-4,985.335,0.169,43,138.0
7596,B-3,985.335,0.169,34,138.0
7597,G5,985.5,0.5,65,138.0
7598,E-3,985.5,0.5,40,138.0
7599,C5,985.502,0.169,38,138.0
7600,C4,985.502,0.169,30,138.0
7601,B-4,985.671,0.167,43,138.0
7602,B-3,985.671,0.167,34,138.0
7603,C5,985.837,0.169,38,138.0
7604,C4,985.837,0.169,30,138.0
7605,B-5,986.0,1.5,74,138.0
7606,B-4,986.0,0.169,44,138.0
7607,B-3,986.0,0.169,35,138.0
7608,D3,986.0,0.5,46,138.0
7609,C5,986.169,0.167,37,138.0
7610,C4,986.169,0.167,29,138.0
7611,B-4,986.335,0.169,44,138.0
7612,B-3,986.335,0.169,35,138.0
7613,E-3,986.5,0.5,40,138.0
7614,C5,986.502,0.169,40,138.0
7615,C4,986.502,0.169,32,138.0
7616,B-4,986.671,0.167,45,138.0
7617,B-3,986.671,0.167,35,138.0
7618,C5,986.837,0.169,40,138.0
7619,C4,986.837,0.169,32,138.0
7620,B-4,987.0,0.169,45,138.0
7621,F3,987.0,0.5,46,138.0
7622,B-3,987.0,0.169,35,138.0
7623,C5,987.169,0.167,40,138.0
7624,C4,987.169,0.167,32,138.0
7625,B-4,987.335,0.169,45,138.0
7626,B-3,987.335,0.169,36,138.0
7627,G#5,987.5,0.5,65,138.0
7628,D3,987.5,0.5,40,138.0
7629,C5,987.502,0.169,40,138.0
7630,C4,987.502,0.169,32,138.0
7631,B-4,987.671,0.167,45,138.0
7632,B-3,987.671,0.167,36,138.0
7633,C5,987.837,0.169,40,138.0
7634,C4,987.837,0.169,32,138.0
7635,B-4,988.0,0.169,46,138.0
7636,G5,988.0,0.5,64,138.0
7637,E-3,988.0,0.5,46,138.0
7638,B-3,988.0,0.169,36,138.0
7639,C5,988.169,0.167,40,138.0
7640,C4,988.169,0.167,32,138.0
7641,B-4,988.335,0.169,47,138.0
7642,B-3,988.335,0.169,37,138.0
7643,F5,988.5,0.5,64,138.0
7644,F3,988.5,0.5,40,138.0
7645,C5,988.502,0.169,42,138.0
7646,C4,988.502,0.169,33,138.0
7647,B-4,988.671,0.167,47,138.0
7648,B-3,988.671,0.167,37,138.0
7649,C5,988.837,0.169,42,138.0
7650,C4,988.837,0.169,33,138.0
7651,B-4,989.0,0.169,48,138.0
7652,E-5,989.0,0.5,69,138.0
7653,G3,989.0,0.5,46,138.0
7654,B-3,989.0,0.169,38,138.0
7655,C5,989.169,0.167,41,138.0
7656,C4,989.169,0.167,32,138.0
7657,B-4,989.335,0.169,48,138.0
7658,B-3,989.335,0.169,38,138.0
7659,D5,989.5,0.5,69,138.0
7660,G#3,989.5,0.5,40,138.0
7661,C5,989.502,0.169,44,138.0
7662,C4,989.502,0.169,35,138.0
7663,B-4,989.671,0.167,48,138.0
7664,B-3,989.671,0.167,38,138.0
7665,C5,989.837,0.169,43,138.0
7666,C4,989.837,0.169,34,138.0
7667,E-5,990.0,1.5,66,138.0
7668,B-4,990.0,0.169,43,138.0
7669,G3,990.0,1.5,40,138.0
7670,B-3,990.0,0.169,34,138.0
7671,C5,990.169,0.167,37,138.0
7672,C4,990.169,0.167,29,138.0
7673,B-4,990.335,0.169,44,138.0
7674,B-3,990.335,0.169,34,138.0
7675,C5,990.502,0.169,39,138.0
7676,C4,990.502,0.169,30,138.0
7677,B-4,990.671,0.167,42,138.0
7678,B-3,990.671,0.167,33,138.0
7679,C5,990.837,0.169,38,138.0
7680,C4,990.837,0.169,29,138.0
7681,B-4,991.0,0.169,43,138.0
7682,B-3,991.0,0.169,34,138.0
7683,C5,991.169,0.167,36,138.0
7684,C4,991.169,0.167,29,138.0
7685,B-4,991.335,0.169,42,138.0
7686,B-3,991.335,0.169,33,138.0
7687,D5,991.5,0.5,63,138.0
7688,G#3,991.5,0.5,31,138.0
7689,C5,991.502,0.169,37,138.0
7690,C4,991.502,0.169,29,138.0
7691,B-4,991.671,0.167,41,138.0
7692,B-3,991.671,0.167,32,138.0
7693,C5,991.837,0.169,36,138.0
7694,C4,991.837,0.169,27,138.0
7695,F5,992.0,0.5,60,138.0
7696,B-4,992.0,0.169,39,138.0
7697,G3,992.0,1.5,37,138.0
7698,B-3,992.0,0.169,30,138.0
7699,C5,992.169,0.167,33,138.0
7700,C4,992.169,0.167,26,138.0
7701,B-4,992.335,0.169,38,138.0
7702,B-3,992.335,0.169,30,138.0
7703,E-5,992.5,1.0,57,138.0
7704,C5,992.502,0.169,34,138.0
7705,C4,992.502,0.169,27,138.0
7706,B-4,992.671,0.167,37,138.0
7707,B-3,992.671,0.167,29,138.0
7708,C5,992.837,0.169,33,138.0
7709,C4,992.837,0.169,26,138.0
7710,B-4,993.0,0.169,37,138.0
7711,B-3,993.0,0.169,30,138.0
7712,C5,993.169,0.167,32,138.0
7713,C4,993.169,0.167,26,138.0
7714,B-4,993.335,0.169,37,138.0
7715,B-3,993.335,0.169,29,138.0
7716,D5,993.5,0.5,55,138.0
7717,F3,993.5,0.5,27,138.0
7718,C5,993.502,0.169,32,138.0
7719,C4,993.502,0.169,25,138.0
7720,B-4,993.671,0.167,36,138.0
7721,B-3,993.671,0.167,28,138.0
7722,C5,993.837,0.169,31,138.0
7723,C4,993.837,0.169,24,138.0
7724,B-4,994.0,2.0,50,138.0
7725,D5,994.0,0.127,39,138.0
7726,F3,994.0,1.985,32,138.0
7727,D4,994.0,1.985,32,138.0
7728,B-3,994.0,1.985,32,138.0
7729,E-5,994.127,0.125,33,138.0
7730,D5,994.252,0.125,38,138.0
7731,E-5,994.377,0.127,34,138.0
7732,D5,994.502,0.127,37,138.0
7733,E-5,994.629,0.125,33,138.0
7734,D5,994.75,0.127,37,138.0
7735,E-5,994.877,0.125,32,138.0
7736,D5,995.002,0.125,37,138.0
7737,E-5,995.127,0.127,32,138.0
7738,D5,995.252,0.127,36,138.0
7739,E-5,995.379,0.125,31,138.0
7740,D5,995.5,0.125,37,138.0
7741,E-5,995.64,0.125,32,138.0
7742,D5,995.75,0.125,36,138.0
7743,C5,995.854,0.125,32,138.0
7744,D5,996.0,0.275,41,138.0
7745,E-5,996.25,0.275,37,138.0
7746,D5,996.5,0.275,41,138.0
7747,B-4,996.5,0.275,36,138.0
7748,C5,996.75,0.275,37,138.0
7749,A4,996.75,0.275,33,138.0
7750,B-4,997.0,0.275,42,138.0
7751,G4,997.0,0.275,37,138.0
7752,A4,997.25,0.275,37,138.0
7753,F4,997.25,0.275,33,138.0
7754,B-4,997.5,0.275,40,138.0
7755,G4,997.5,0.275,36,138.0
7756,C5,997.75,0.275,37,138.0
7757,A4,997.75,0.275,33,138.0
7758,D5,998.0,0.275,41,138.0
7759,B-4,998.0,0.275,36,138.0
7760,E-5,998.25,0.275,42,138.0
7761,C5,998.25,0.275,37,138.0
7762,F5,998.5,0.275,43,138.0
7763,D5,998.5,0.275,38,138.0
7764,G5,998.75,0.275,44,138.0
7765,E-5,998.75,0.275,39,138.0
7766,A5,999.0,0.275,45,138.0
7767,F5,999.0,0.275,40,138.0
7768,B-5,999.25,0.275,46,138.0
7769,G5,999.25,0.275,41,138.0
7770,C6,999.5,0.275,47,138.0
7771,A5,999.5,0.275,42,138.0
7772,D6,999.75,0.275,48,138.0
7773,B-5,999.75,0.275,43,138.0
7774,E-6,1000.0,0.275,49,138.0
7775,F6,1000.25,0.275,46,138.0
7776,F2,1000.25,0.275,33,138.0
7777,E-6,1000.5,0.275,48,138.0
7778,G2,1000.5,0.275,33,138.0
7779,D6,1000.75,0.275,47,138.0
7780,A2,1000.75,0.275,32,138.0
7781,C6,1001.0,0.275,46,138.0
7782,B-2,1001.0,0.275,32,138.0
7783,B-5,1001.25,0.275,45,138.0
7784,C3,1001.25,0.275,31,138.0
7785,A5,1001.5,0.275,44,138.0
7786,D3,1001.5,0.275,31,138.0
7787,G5,1001.75,0.275,43,138.0
7788,E-3,1001.75,0.275,30,138.0
7789,F5,1002.0,0.275,42,138.0
7790,F3,1002.0,0.275,30,138.0
7791,E-5,1002.25,0.275,41,138.0
7792,G3,1002.25,0.275,30,138.0
7793,D5,1002.5,0.275,40,138.0
7794,A3,1002.5,0.275,29,138.0
7795,C5,1002.75,0.275,39,138.0
7796,B-3,1002.75,0.275,29,138.0
7797,B-4,1003.0,0.275,38,138.0
7798,C4,1003.0,0.275,28,138.0
7799,A4,1003.25,0.275,37,138.0
7800,D4,1003.25,0.275,28,138.0
7801,G4,1003.5,0.275,35,138.0
7802,E-4,1003.5,0.275,27,138.0
7803,F4,1003.75,0.25,34,138.0
7804,D4,1003.75,0.25,27,138.0
7805,D5,1004.0,0.744,34,138.0
7806,F4,1004.0,0.744,34,138.0
7807,D4,1004.0,0.744,30,138.0
7808,B-3,1004.0,0.744,30,138.0
7809,F4,1004.75,0.248,28,138.0
7810,D5,1004.75,0.248,28,138.0
7811,D4,1004.75,0.248,24,138.0
7812,B-3,1004.75,0.248,24,138.0
7813,D5,1005.0,0.5,36,138.0
7814,F4,1005.0,0.5,36,138.0
7815,D4,1005.0,0.5,30,138.0
7816,B-3,1005.0,0.5,30,138.0
7817,D4,1005.75,0.25,76,138.0
7818,F4,1005.75,0.25,76,138.0
7819,G4,1005.75,0.25,76,138.0
7820,B1,1005.75,0.25,68,138.0
7821,B2,1005.75,0.25,68,138.0
7822,E-4,1006.0,0.744,94,138.0
7823,E-5,1006.0,0.744,94,138.0
7824,G4,1006.0,0.744,94,138.0
7825,C3,1006.0,0.744,84,138.0
7826,C2,1006.0,0.744,84,138.0
7827,E-4,1006.75,0.248,63,138.0
7828,G4,1006.75,0.248,63,138.0
7829,E-5,1006.75,0.248,63,138.0
7830,C3,1006.75,0.248,57,138.0
7831,C2,1006.75,0.248,57,138.0
7832,E-5,1007.0,0.5,84,138.0
7833,G4,1007.0,0.5,84,138.0
7834,E-4,1007.0,0.5,84,138.0
7835,C3,1007.0,0.5,70,138.0
7836,C2,1007.0,0.5,70,138.0
7837,G4,1007.75,0.25,28,138.0
7838,F4,1007.75,0.25,28,138.0
7839,B3,1007.75,0.25,24,138.0
7840,D4,1007.75,0.25,24,138.0
7841,G4,1008.0,0.744,34,138.0
7842,E-5,1008.0,0.744,34,138.0
7843,E-4,1008.0,0.744,30,138.0
7844,C4,1008.0,0.744,30,138.0
7845,E-5,1008.75,0.248,28,138.0
7846,G4,1008.75,0.248,28,138.0
7847,E-4,1008.75,0.248,24,138.0
7848,C4,1008.75,0.248,24,138.0
7849,E-5,1009.0,0.5,36,138.0
7850,G4,1009.0,0.5,36,138.0
7851,E-4,1009.0,0.5,30,138.0
7852,C4,1009.0,0.5,30,138.0
7853,E4,1009.75,0.25,76,138.0
7854,G4,1009.75,0.25,76,138.0
7855,A4,1009.75,0.25,76,138.0
7856,C#2,1009.75,0.25,68,138.0
7857,C#3,1009.75,0.25,68,138.0
7858,F4,1010.0,0.744,94,138.0
7859,F5,1010.0,0.744,94,138.0
7860,A4,1010.0,0.744,94,138.0
7861,D3,1010.0,0.744,84,138.0
7862,D2,1010.0,0.744,84,138.0
7863,F5,1010.75,0.248,63,138.0
7864,A4,1010.75,0.248,63,138.0
7865,F4,1010.75,0.248,63,138.0
7866,D3,1010.75,0.248,57,138.0
7867,D2,1010.75,0.248,57,138.0
7868,A4,1011.0,0.5,84,138.0
7869,F5,1011.0,0.5,84,138.0
7870,F4,1011.0,0.5,84,138.0
7871,D3,1011.0,0.5,70,138.0
7872,D2,1011.0,0.5,70,138.0
7873,G4,1011.75,0.25,28,138.0
7874,A4,1011.75,0.25,28,138.0
7875,C#4,1011.75,0.25,24,138.0
7876,E4,1011.75,0.25,24,138.0
7877,F5,1012.0,0.744,34,138.0
7878,A4,1012.0,0.744,34,138.0
7879,F4,1012.0,0.744,30,138.0
7880,D4,1012.0,0.744,30,138.0
7881,A4,1012.75,0.248,28,138.0
7882,F5,1012.75,0.248,28,138.0
7883,F4,1012.75,0.248,24,138.0
7884,D4,1012.75,0.248,24,138.0
7885,F5,1013.0,0.5,36,138.0
7886,A4,1013.0,0.5,36,138.0
7887,F4,1013.0,0.5,30,138.0
7888,D4,1013.0,0.5,30,138.0
7889,F4,1013.75,0.25,69,138.0
7890,G#4,1013.75,0.25,69,138.0
7891,B-4,1013.75,0.25,69,138.0
7892,D2,1013.75,0.25,62,138.0
7893,D3,1013.75,0.25,62,138.0
7894,G4,1014.0,0.744,85,138.0
7895,B-4,1014.0,0.744,85,138.0
7896,G5,1014.0,0.744,85,138.0
7897,E-3,1014.0,0.744,77,138.0
7898,E-2,1014.0,0.744,77,138.0
7899,G4,1014.75,0.248,58,138.0
7900,G5,1014.75,0.248,58,138.0
7901,B-4,1014.75,0.248,58,138.0
7902,E-3,1014.75,0.248,52,138.0
7903,E-2,1014.75,0.248,52,138.0
7904,G5,1015.0,0.5,77,138.0
7905,B-4,1015.0,0.5,77,138.0
7906,G4,1015.0,0.5,77,138.0
7907,E-3,1015.0,0.5,64,138.0
7908,E-2,1015.0,0.5,64,138.0
7909,G4,1017.75,0.25,82,138.0
7910,E-5,1017.75,0.25,82,138.0
7911,E-2,1017.75,0.25,72,138.0
7912,E-3,1017.75,0.25,72,138.0
7913,A4,1018.0,0.744,96,138.0
7914,C5,1018.0,0.744,96,138.0
7915,A5,1018.0,0.744,96,138.0
7916,E-5,1018.0,0.744,96,138.0
7917,F2,1018.0,0.744,88,138.0
7918,F1,1018.0,0.744,88,138.0
7919,A4,1018.75,0.248,71,138.0
7920,C5,1018.75,0.248,71,138.0
7921,E-5,1018.75,0.248,71,138.0
7922,A5,1018.75,0.248,71,138.0
7923,F2,1018.75,0.248,66,138.0
7924,F1,1018.75,0.248,66,138.0
7925,A5,1019.0,0.5,94,138.0
7926,C5,1019.0,0.5,94,138.0
7927,A4,1019.0,0.5,94,138.0
7928,E-5,1019.0,0.5,94,138.0
7929,F2,1019.0,0.5,81,138.0
7930,F1,1019.0,0.5,81,138.0
7931,F#1,1021.5,0.275,33,138.0
7932,F1,1021.75,0.275,29,138.0
7933,F#1,1022.0,0.275,33,138.0
7934,F1,1022.25,0.275,29,138.0
7935,F#1,1022.5,0.275,33,138.0
7936,F1,1022.75,0.275,29,138.0
7937,D6,1022.75,0.25,50,138.0
7938,B-5,1022.75,0.25,50,138.0
7939,F5,1022.75,0.25,50,138.0
7940,D5,1022.75,0.25,50,138.0
7941,A1,1023.0,0.275,33,138.0
7942,B-5,1023.0,0.375,44,138.0
7943,D5,1023.0,0.375,44,138.0
7944,D6,1023.0,0.375,44,138.0
7945,F5,1023.0,0.375,44,138.0
7946,B-1,1023.25,0.275,28,138.0
7947,A1,1023.5,0.275,35,138.0
7948,F5,1023.5,0.125,48,138.0
7949,B-5,1023.5,0.125,48,138.0
7950,D5,1023.5,0.125,48,138.0
7951,E-6,1023.5,0.125,48,138.0
7952,B-1,1023.75,0.275,30,138.0
7953,B-5,1023.75,0.125,49,138.0
7954,D6,1023.75,0.125,49,138.0
7955,F5,1023.75,0.125,49,138.0
7956,D5,1023.75,0.125,49,138.0
7957,F#1,1024.0,0.275,36,138.0
7958,D6,1024.0,0.125,54,138.0
7959,F5,1024.0,0.125,54,138.0
7960,D5,1024.0,0.125,54,138.0
7961,B-5,1024.0,0.125,54,138.0
7962,F1,1024.25,0.275,32,138.0
7963,F#1,1024.5,0.275,38,138.0
7964,D5,1024.5,0.125,52,138.0
7965,B-4,1024.5,0.125,52,138.0
7966,F5,1024.5,0.125,52,138.0
7967,B-5,1024.5,0.125,52,138.0
7968,F1,1024.75,0.275,43,138.0
7969,B-1,1025.0,1.0,63,138.0
7970,F#2,1025.0,0.25,63,138.0
7971,F4,1025.0,0.125,80,138.0
7972,B-4,1025.0,0.125,80,138.0
7973,D4,1025.0,0.125,80,138.0
7974,D5,1025.0,0.125,80,138.0
7975,F2,1025.25,0.25,53,138.0
7976,F#2,1025.5,0.25,61,138.0
7977,D4,1025.5,0.125,74,138.0
7978,F4,1025.5,0.125,74,138.0
7979,B-3,1025.5,0.125,74,138.0
7980,B-4,1025.5,0.125,74,138.0
7981,F2,1025.75,0.25,55,138.0
7982,F#1,1026.0,0.275,42,138.0
7983,F5,1026.0,0.744,44,138.0
7984,D6,1026.0,0.744,44,138.0
7985,B-5,1026.0,0.744,44,138.0
7986,F6,1026.0,0.744,44,138.0
7987,F1,1026.25,0.275,29,138.0
7988,F#1,1026.5,0.275,33,138.0
7989,F1,1026.75,0.275,29,138.0
7990,D6,1026.75,0.25,50,138.0
7991,F5,1026.75,0.25,50,138.0
7992,F6,1026.75,0.25,50,138.0
7993,B-5,1026.75,0.25,50,138.0
7994,A1,1027.0,0.275,33,138.0
7995,B-5,1027.0,0.375,44,138.0
7996,F5,1027.0,0.375,44,138.0
7997,D6,1027.0,0.375,44,138.0
7998,F6,1027.0,0.375,44,138.0
7999,B-1,1027.25,0.275,28,138.0
8000,A1,1027.5,0.275,35,138.0
8001,G6,1027.5,0.125,48,138.0
8002,D6,1027.5,0.125,48,138.0
8003,F5,1027.5,0.125,48,138.0
8004,B-5,1027.5,0.125,48,138.0
8005,B-1,1027.75,0.275,30,138.0
8006,F5,1027.75,0.125,49,138.0
8007,F6,1027.75,0.125,49,138.0
8008,B-5,1027.75,0.125,49,138.0
8009,D6,1027.75,0.125,49,138.0
8010,F#1,1028.0,0.275,36,138.0
8011,F6,1028.0,0.125,54,138.0
8012,B-5,1028.0,0.125,54,138.0
8013,F5,1028.0,0.125,54,138.0
8014,D6,1028.0,0.125,54,138.0
8015,F1,1028.25,0.275,32,138.0
8016,F#1,1028.5,0.275,38,138.0
8017,F5,1028.5,0.125,52,138.0
8018,D5,1028.5,0.125,52,138.0
8019,B-5,1028.5,0.125,52,138.0
8020,D6,1028.5,0.125,52,138.0
8021,F1,1028.75,0.275,34,138.0
8022,B-1,1029.0,1.0,63,138.0
8023,F#2,1029.0,0.25,63,138.0
8024,F5,1029.0,0.125,80,138.0
8025,B-4,1029.0,0.125,80,138.0
8026,F4,1029.0,0.125,80,138.0
8027,D5,1029.0,0.125,80,138.0
8028,F2,1029.25,0.25,53,138.0
8029,F#2,1029.5,0.25,61,138.0
8030,D5,1029.5,0.125,74,138.0
8031,F4,1029.5,0.125,74,138.0
8032,D4,1029.5,0.125,74,138.0
8033,B-4,1029.5,0.125,74,138.0
8034,F2,1029.75,0.25,55,138.0
8035,F#1,1030.0,0.275,36,138.0
8036,F6,1030.0,0.125,50,138.0
8037,D6,1030.0,0.125,50,138.0
8038,F1,1030.25,0.275,32,138.0
8039,F#1,1030.5,0.275,38,138.0
8040,D6,1030.5,0.125,48,138.0
8041,B-5,1030.5,0.125,48,138.0
8042,F1,1030.75,0.275,34,138.0
8043,B-1,1031.0,1.0,50,138.0
8044,F#2,1031.0,0.25,50,138.0
8045,F5,1031.0,0.125,82,138.0
8046,D5,1031.0,0.125,82,138.0
8047,F2,1031.25,0.25,53,138.0
8048,F#2,1031.5,0.25,61,138.0
8049,D5,1031.5,0.125,69,138.0
8050,B-4,1031.5,0.125,69,138.0
8051,F2,1031.75,0.25,55,138.0
8052,F#1,1032.0,0.275,36,138.0
8053,D6,1032.0,0.125,50,138.0
8054,B-5,1032.0,0.125,50,138.0
8055,F1,1032.25,0.275,32,138.0
8056,F#1,1032.5,0.275,38,138.0
8057,B-5,1032.5,0.125,48,138.0
8058,F5,1032.5,0.125,48,138.0
8059,F1,1032.75,0.275,34,138.0
8060,B-1,1033.0,1.0,63,138.0
8061,F#2,1033.0,0.25,63,138.0
8062,D5,1033.0,0.125,82,138.0
8063,B-4,1033.0,0.125,82,138.0
8064,F2,1033.25,0.25,53,138.0
8065,F#2,1033.5,0.25,61,138.0
8066,B-4,1033.5,0.125,69,138.0
8067,F4,1033.5,0.125,69,138.0
8068,F2,1033.75,0.25,55,138.0
8069,F#1,1034.0,0.275,46,138.0
8070,B-5,1034.0,0.125,50,138.0
8071,F5,1034.0,0.125,50,138.0
8072,F1,1034.25,0.275,32,138.0
8073,F#1,1034.5,0.275,38,138.0
8074,F5,1034.5,0.125,48,138.0
8075,D5,1034.5,0.125,48,138.0
8076,F1,1034.75,0.275,34,138.0
8077,B-1,1035.0,1.0,63,138.0
8078,F#2,1035.0,0.25,63,138.0
8079,B-4,1035.0,0.125,82,138.0
8080,F4,1035.0,0.125,82,138.0
8081,F2,1035.25,0.25,53,138.0
8082,F#2,1035.5,0.25,61,138.0
8083,D4,1035.5,0.125,69,138.0
8084,F4,1035.5,0.125,69,138.0
8085,F2,1035.75,0.25,55,138.0
8086,B-2,1036.0,1.0,35,138.0
8087,F#3,1036.0,0.275,39,138.0
8088,A4,1036.0,2.0,47,138.0
8089,E-5,1036.0,2.0,47,138.0
8090,F3,1036.25,0.275,34,138.0
8091,F#3,1036.5,0.275,40,138.0
8092,F3,1036.75,0.275,36,138.0
8093,F#3,1037.0,0.275,39,138.0
8094,F3,1037.25,0.275,34,138.0
8095,F#3,1037.5,0.275,40,138.0
8096,F3,1037.75,0.275,36,138.0
8097,D5,1038.0,0.125,50,138.0
8098,F5,1038.0,0.125,50,138.0
8099,F#1,1038.5,0.25,48,138.0
8100,B-4,1038.5,0.125,48,138.0
8101,D5,1038.5,0.125,48,138.0
8102,F1,1038.75,0.25,43,138.0
8103,B-1,1039.0,1.0,60,138.0
8104,F#2,1039.0,0.25,60,138.0
8105,D4,1039.0,0.125,68,138.0
8106,F4,1039.0,0.125,68,138.0
8107,F2,1039.25,0.25,51,138.0
8108,F#2,1039.5,0.25,59,138.0
8109,B-3,1039.5,0.125,62,138.0
8110,D4,1039.5,0.125,62,138.0
8111,F2,1039.75,0.25,53,138.0
8112,F#1,1040.0,0.275,46,138.0
8113,B-4,1040.0,0.125,56,138.0
8114,D5,1040.0,0.125,56,138.0
8115,F1,1040.25,0.275,41,138.0
8116,F#1,1040.5,0.275,48,138.0
8117,F4,1040.5,0.125,54,138.0
8118,B-4,1040.5,0.125,54,138.0
8119,F1,1040.75,0.275,43,138.0
8120,B-1,1041.0,1.0,60,138.0
8121,F#2,1041.0,0.25,60,138.0
8122,D4,1041.0,0.125,72,138.0
8123,B-3,1041.0,0.125,72,138.0
8124,F2,1041.25,0.25,51,138.0
8125,F#2,1041.5,0.25,59,138.0
8126,B-3,1041.5,0.125,66,138.0
8127,F3,1041.5,0.125,66,138.0
8128,F2,1041.75,0.25,53,138.0
8129,F#1,1042.0,0.275,46,138.0
8130,F4,1042.0,0.125,56,138.0
8131,B-4,1042.0,0.125,56,138.0
8132,F1,1042.25,0.275,41,138.0
8133,F#1,1042.5,0.275,48,138.0
8134,D4,1042.5,0.125,54,138.0
8135,F4,1042.5,0.125,54,138.0
8136,F1,1042.75,0.275,43,138.0
8137,B-1,1043.0,1.0,60,138.0
8138,F#2,1043.0,0.25,60,138.0
8139,F3,1043.0,0.125,72,138.0
8140,B-3,1043.0,0.125,72,138.0
8141,F2,1043.25,0.25,51,138.0
8142,F#2,1043.5,0.25,59,138.0
8143,D3,1043.5,0.125,66,138.0
8144,F3,1043.5,0.125,66,138.0
8145,F2,1043.75,0.25,53,138.0
8146,B-1,1044.0,2.0,35,138.0
8147,F#2,1044.0,0.275,39,138.0
8148,A3,1044.0,2.0,47,138.0
8149,E-4,1044.0,2.0,47,138.0
8150,F2,1044.25,0.275,34,138.0
8151,F#2,1044.5,0.275,40,138.0
8152,F2,1044.75,0.275,36,138.0
8153,F#2,1045.0,0.275,39,138.0
8154,F2,1045.25,0.275,34,138.0
8155,F#2,1045.5,0.275,40,138.0
8156,F2,1045.75,0.25,36,138.0
8157,A2,1046.0,0.275,39,138.0
8158,B-2,1046.25,0.275,34,138.0
8159,A2,1046.5,0.275,40,138.0
8160,B-2,1046.75,0.275,36,138.0
8161,A3,1046.75,0.125,45,138.0
8162,F#4,1046.75,0.125,45,138.0
8163,E-4,1046.75,0.125,45,138.0
8164,A2,1047.0,0.275,39,138.0
8165,F#4,1047.0,0.125,40,138.0
8166,E-4,1047.0,0.125,40,138.0
8167,A3,1047.0,0.125,40,138.0
8168,B-2,1047.25,0.275,34,138.0
8169,A2,1047.5,0.275,40,138.0
8170,B-3,1047.5,0.125,43,138.0
8171,F4,1047.5,0.125,43,138.0
8172,D4,1047.5,0.125,43,138.0
8173,B-2,1047.75,0.25,36,138.0
8174,B-1,1048.0,2.0,35,138.0
8175,F#2,1048.0,0.275,39,138.0
8176,F2,1048.25,0.275,34,138.0
8177,F#2,1048.5,0.275,39,138.0
8178,F2,1048.75,0.275,35,138.0
8179,F#3,1048.75,0.125,43,138.0
8180,C4,1048.75,0.125,43,138.0
8181,A3,1048.75,0.125,43,138.0
8182,E-4,1048.75,0.125,43,138.0
8183,F#2,1049.0,0.275,37,138.0
8184,F#3,1049.0,0.125,37,138.0
8185,A3,1049.0,0.125,37,138.0
8186,C4,1049.0,0.125,37,138.0
8187,E-4,1049.0,0.125,37,138.0
8188,F2,1049.25,0.275,32,138.0
8189,F#2,1049.5,0.275,38,138.0
8190,F3,1049.5,0.125,41,138.0
8191,B-3,1049.5,0.125,41,138.0
8192,D4,1049.5,0.125,41,138.0
8193,F2,1049.75,0.25,34,138.0
8194,A1,1050.0,0.275,36,138.0
8195,B-1,1050.25,0.275,31,138.0
8196,A1,1050.5,0.275,36,138.0
8197,B-1,1050.75,0.275,32,138.0
8198,E-4,1050.75,0.125,40,138.0
8199,F#3,1050.75,0.125,40,138.0
8200,A3,1050.75,0.125,40,138.0
8201,C4,1050.75,0.125,40,138.0
8202,A1,1051.0,0.275,35,138.0
8203,C4,1051.0,0.125,35,138.0
8204,A3,1051.0,0.125,35,138.0
8205,E-4,1051.0,0.125,35,138.0
8206,F#3,1051.0,0.125,35,138.0
8207,B-1,1051.25,0.275,30,138.0
8208,A1,1051.5,0.275,35,138.0
8209,D4,1051.5,0.125,38,138.0
8210,F3,1051.5,0.125,38,138.0
8211,B-3,1051.5,0.125,38,138.0
8212,B-1,1051.75,0.25,31,138.0
8213,F#1,1052.0,0.275,33,138.0
8214,F1,1052.25,0.275,29,138.0
8215,F#1,1052.5,0.275,34,138.0
8216,F1,1052.75,0.275,30,138.0
8217,E-3,1052.75,0.125,37,138.0
8218,B-3,1052.75,0.125,37,138.0
8219,F#3,1052.75,0.125,37,138.0
8220,C4,1052.75,0.125,37,138.0
8221,F#1,1053.0,0.275,32,138.0
8222,E-3,1053.0,0.125,32,138.0
8223,F#3,1053.0,0.125,32,138.0
8224,B-3,1053.0,0.125,32,138.0
8225,C4,1053.0,0.125,32,138.0
8226,F1,1053.25,0.275,28,138.0
8227,B-3,1053.5,0.125,35,138.0
8228,D3,1053.5,0.125,35,138.0
8229,F3,1053.5,0.125,35,138.0
8230,F2,1053.5,0.275,32,138.0
8231,B-1,1053.5,0.275,32,138.0
8232,F1,1053.75,0.25,29,138.0
8233,F2,1054.0,0.275,32,138.0
8234,B-1,1054.0,0.275,32,138.0
8235,F1,1054.25,0.275,27,138.0
8236,F2,1054.5,0.275,32,138.0
8237,B-1,1054.5,0.275,32,138.0
8238,F1,1054.75,0.275,28,138.0
8239,D3,1054.75,0.125,35,138.0
8240,F3,1054.75,0.125,35,138.0
8241,B-3,1054.75,0.125,35,138.0
8242,D4,1054.75,0.125,35,138.0
8243,F3,1055.0,0.125,31,138.0
8244,D3,1055.0,0.125,31,138.0
8245,B-3,1055.0,0.125,31,138.0
8246,D4,1055.0,0.125,31,138.0
8247,F2,1055.0,0.275,32,138.0
8248,B-1,1055.0,0.275,32,138.0
8249,F1,1055.25,0.275,27,138.0
8250,F3,1055.5,0.125,34,138.0
8251,D3,1055.5,0.125,34,138.0
8252,B-3,1055.5,0.125,34,138.0
8253,F2,1055.5,0.275,32,138.0
8254,B-1,1055.5,0.275,32,138.0
8255,F1,1055.75,0.25,28,138.0
8256,F2,1056.0,0.25,27,138.0
8257,B-1,1056.25,0.25,23,138.0
8258,F2,1056.5,0.25,27,138.0
8259,F3,1056.5,0.5,28,138.0
8260,D4,1056.5,0.5,28,138.0
8261,B-3,1056.5,0.5,28,138.0
8262,D3,1056.5,0.5,28,138.0
8263,B-1,1056.75,0.25,24,138.0
8264,F2,1057.0,0.25,44,138.0
8265,B-1,1057.25,0.25,49,138.0
8266,B-2,1057.5,0.25,55,138.0
8267,F2,1057.5,0.25,55,138.0
8268,B-1,1057.75,0.25,60,138.0
8269,F2,1058.0,0.25,66,138.0
8270,B-2,1058.0,0.25,66,138.0
8271,B-1,1058.25,0.25,70,138.0
8272,F2,1058.5,0.25,75,138.0
8273,B-2,1058.5,0.25,75,138.0
8274,B-1,1058.75,0.25,81,138.0
8275,F6,1059.0,0.5,105,138.0
8276,D6,1059.0,0.5,105,138.0
8277,B-5,1059.0,0.5,105,138.0
8278,B-6,1059.0,0.5,105,138.0
8279,B-2,1059.0,0.5,85,138.0
8280,D3,1059.0,0.5,85,138.0
8281,F3,1059.0,0.5,85,138.0
8282,B-3,1059.0,0.5,85,138.0
8283,B-4,1060.0,2.0,110,138.0
8284,B-3,1060.0,2.0,110,138.0
8285,B-1,1060.0,2.0,84,138.0
8286,B-2,1060.0,2.0,84,138.0
,note_name,start_time,duration,velocity,tempo
0,D5,1.0,0.375,50,120.0
1,D4,1.0,0.375,37,120.0
2,B-3,1.0,0.375,37,120.0
3,A4,1.375,0.113,46,120.0
4,F5,1.375,0.113,46,120.0
5,F3,1.375,0.113,37,120.0
6,C4,1.375,0.113,37,120.0
7,C5,1.5,0.5,58,120.0
8,F5,1.5,0.5,58,120.0
9,C4,1.5,0.5,46,120.0
10,A3,1.5,0.5,46,120.0
11,F4,2.0,0.25,50,120.0
12,D5,2.0,0.25,50,120.0
13,D4,2.0,0.25,40,120.0
14,B-3,2.0,0.25,40,120.0
15,B-4,2.5,0.375,50,120.0
16,B-3,2.5,0.375,37,120.0
17,G3,2.5,0.375,37,120.0
18,F#4,2.875,0.113,46,120.0
19,D5,2.875,0.113,46,120.0
20,D3,2.875,0.113,37,120.0
21,A3,2.875,0.113,37,120.0
22,A4,3.0,0.5,58,120.0
23,D5,3.0,0.5,58,120.0
24,A3,3.0,0.5,46,120.0
25,F#3,3.0,0.5,46,120.0
26,D4,3.5,0.25,50,120.0
27,B-4,3.5,0.25,50,120.0
28,B-3,3.5,0.25,40,120.0
29,G3,3.5,0.25,40,120.0
30,G4,4.0,0.375,52,120.0
31,G3,4.0,0.375,38,120.0
32,E-3,4.0,0.375,38,120.0
33,D4,4.375,0.113,48,120.0
34,B-4,4.375,0.113,48,120.0
35,B-2,4.375,0.113,39,120.0
36,F3,4.375,0.113,39,120.0
37,F4,4.5,0.5,62,120.0
38,B-4,4.5,0.5,62,120.0
39,F3,4.5,0.5,50,120.0
40,D3,4.5,0.5,50,120.0
41,B-3,5.0,0.25,56,120.0
42,G4,5.0,0.25,56,120.0
43,G3,5.0,0.25,44,120.0
44,E-3,5.0,0.25,44,120.0
45,B-3,5.5,0.375,52,120.0
46,G4,5.5,0.375,52,120.0
47,G3,5.5,0.375,42,120.0
48,E-3,5.5,0.375,42,120.0
49,E-4,5.875,0.113,53,120.0
50,A4,5.875,0.113,53,120.0
51,C3,5.875,0.113,42,120.0
52,F3,5.875,0.113,42,120.0
53,F3,6.0,0.75,58,120.0
54,C3,6.0,0.5,49,120.0
55,E-4,6.0,0.5,67,120.0
56,A4,6.0,0.5,67,120.0
57,D3,6.5,0.25,44,120.0
58,B-3,6.5,0.25,60,120.0
59,B-4,6.5,0.25,60,120.0
60,F4,7.0,0.5,51,120.0
61,B-4,7.0,0.375,61,120.0
62,F3,7.0,0.5,41,120.0
63,D3,7.0,0.375,49,120.0
64,C5,7.375,0.113,63,120.0
65,A2,7.375,0.113,42,120.0
66,F3,7.5,0.75,64,120.0
67,A2,7.5,0.5,53,120.0
68,F4,7.5,0.5,73,120.0
69,C5,7.5,0.5,73,120.0
70,G#2,8.0,0.25,48,120.0
71,B-4,8.0,0.25,64,120.0
72,F4,8.0,0.25,64,120.0
73,D5,8.0,0.25,64,120.0
74,B-4,8.5,0.5,56,120.0
75,D5,8.5,0.375,67,120.0
76,G#2,8.5,0.375,49,120.0
77,F3,8.5,0.375,49,120.0
78,E-5,8.875,0.113,70,120.0
79,G2,8.875,0.113,46,120.0
80,E-3,8.875,0.113,46,120.0
81,B-4,9.0,0.5,82,120.0
82,E-5,9.0,0.5,82,120.0
83,E-3,9.0,0.5,65,120.0
84,G2,9.0,0.5,65,120.0
85,C#5,9.5,0.125,72,120.0
86,B-4,9.5,0.125,72,120.0
87,F4,9.5,0.125,72,120.0
88,F5,9.5,0.125,72,120.0
89,C#3,9.5,0.125,52,120.0
90,F2,9.5,0.125,52,120.0
91,G4,10.0,0.125,83,120.0
92,B-4,10.0,0.125,83,120.0
93,C5,10.0,0.125,83,120.0
94,G5,10.0,0.125,83,120.0
95,E2,10.0,0.125,60,120.0
96,C3,10.0,0.125,60,120.0
97,C4,10.5,0.25,84,120.0
98,A4,10.5,0.25,84,120.0
99,C5,10.5,0.25,84,120.0
100,F2,10.5,0.25,60,120.0
101,F3,10.5,0.25,60,120.0
102,D6,11.5,0.375,50,120.0
103,D5,11.5,0.375,37,120.0
104,B-4,11.5,0.375,37,120.0
105,A5,11.875,0.113,46,120.0
106,F6,11.875,0.113,46,120.0
107,F4,11.875,0.113,37,120.0
108,C5,11.875,0.113,37,120.0
109,C6,12.0,0.5,58,120.0
110,F6,12.0,0.5,58,120.0
111,C5,12.0,0.5,46,120.0
112,A4,12.0,0.5,46,120.0
113,F5,12.5,0.25,50,120.0
114,D6,12.5,0.25,50,120.0
115,D5,12.5,0.25,40,120.0
116,B-4,12.5,0.25,40,120.0
117,B-5,13.0,0.375,50,120.0
118,B-4,13.0,0.375,37,120.0
119,G4,13.0,0.375,37,120.0
120,F#5,13.375,0.113,46,120.0
121,D6,13.375,0.113,46,120.0
122,D4,13.375,0.113,37,120.0
123,A4,13.375,0.113,37,120.0
124,A5,13.5,0.5,58,120.0
125,D6,13.5,0.5,58,120.0
126,A4,13.5,0.5,46,120.0
127,F#4,13.5,0.5,46,120.0
128,D5,14.0,0.25,50,120.0
129,B-5,14.0,0.25,50,120.0
130,B-4,14.0,0.25,40,120.0
131,G4,14.0,0.25,40,120.0
132,G5,14.5,0.375,52,120.0
133,G4,14.5,0.375,38,120.0
134,E-4,14.5,0.375,38,120.0
135,D5,14.875,0.113,48,120.0
136,B-5,14.875,0.113,48,120.0
137,B-3,14.875,0.113,39,120.0
138,F4,14.875,0.113,39,120.0
139,F5,15.0,0.5,62,120.0
140,B-5,15.0,0.5,62,120.0
141,F4,15.0,0.5,50,120.0
142,D4,15.0,0.5,50,120.0
143,B-4,15.5,0.25,56,120.0
144,G5,15.5,0.25,56,120.0
145,G4,15.5,0.25,44,120.0
146,E-4,15.5,0.25,44,120.0
147,B-4,16.0,0.375,52,120.0
148,G5,16.0,0.375,52,120.0
149,G4,16.0,0.375,42,120.0
150,E-4,16.0,0.375,42,120.0
151,E-5,16.375,0.113,53,120.0
152,A5,16.375,0.113,53,120.0
153,C4,16.375,0.113,42,120.0
154,F4,16.375,0.113,42,120.0
155,F4,16.5,0.75,58,120.0
156,C4,16.5,0.5,49,120.0
157,E-5,16.5,0.5,67,120.0
158,A5,16.5,0.5,67,120.0
159,D4,17.0,0.25,44,120.0
160,B-4,17.0,0.25,60,120.0
161,B-5,17.0,0.25,60,120.0
162,F5,17.5,0.5,51,120.0
163,B-5,17.5,0.375,61,120.0
164,D5,17.5,0.375,49,120.0
165,C6,17.875,0.113,63,120.0
166,C5,17.875,0.113,42,120.0
167,A4,17.875,0.113,42,120.0
168,F5,18.0,0.5,73,120.0
169,C6,18.0,0.5,73,120.0
170,C5,18.0,0.5,58,120.0
171,A4,18.0,0.5,58,120.0
172,F5,18.5,0.25,66,120.0
173,D6,18.5,0.25,66,120.0
174,B-4,18.5,0.25,50,120.0
175,G#4,18.5,0.25,50,120.0
176,B-5,19.0,0.5,56,120.0
177,E-6,19.0,0.375,67,120.0
178,G4,19.0,0.375,45,120.0
179,B-4,19.0,0.5,53,120.0
180,E6,19.375,0.113,70,120.0
181,F#4,19.375,0.113,46,120.0
182,B-5,19.5,0.5,82,120.0
183,E6,19.5,0.5,82,120.0
184,B-4,19.5,0.5,65,120.0
185,F#4,19.5,0.5,65,120.0
186,A5,20.0,0.125,73,120.0
187,F5,20.0,0.125,73,120.0
188,F6,20.0,0.125,73,120.0
189,C5,20.0,0.125,52,120.0
190,F4,20.0,0.125,52,120.0
191,G5,20.5,0.125,83,120.0
192,B-5,20.5,0.125,83,120.0
193,E6,20.5,0.125,83,120.0
194,G6,20.5,0.125,83,120.0
195,C3,20.5,0.125,60,120.0
196,C4,20.5,0.125,60,120.0
197,F5,21.0,0.25,84,120.0
198,A5,21.0,0.25,84,120.0
199,F6,21.0,0.25,84,120.0
200,F3,21.0,0.25,60,120.0
201,F4,21.0,0.25,60,120.0
202,B4,22.0,0.375,46,120.0
203,D5,22.0,0.375,46,120.0
204,F4,22.0,1.5,37,120.0
205,F3,22.0,1.5,37,120.0
206,D5,22.375,0.094,46,120.0
207,F5,22.375,0.094,46,120.0
208,D5,22.5,0.5,58,120.0
209,F5,22.5,0.5,58,120.0
210,B4,23.0,0.25,50,120.0
211,D5,23.0,0.25,50,120.0
212,B4,23.5,0.375,46,120.0
213,D5,23.5,0.375,46,120.0
214,F3,23.5,1.5,37,120.0
215,F2,23.5,1.5,37,120.0
216,E-5,23.875,0.094,46,120.0
217,G5,23.875,0.094,46,120.0
218,E-5,24.0,0.5,58,120.0
219,G5,24.0,0.5,58,120.0
220,C5,24.5,0.25,50,120.0
221,E-5,24.5,0.25,50,120.0
222,A4,25.0,0.375,46,120.0
223,C5,25.0,0.375,46,120.0
224,F3,25.0,1.5,37,120.0
225,F2,25.0,1.5,37,120.0
226,C5,25.375,0.094,46,120.0
227,E-5,25.375,0.094,46,120.0
228,C5,25.5,0.5,58,120.0
229,E-5,25.5,0.5,58,120.0
230,A4,26.0,0.25,50,120.0
231,C5,26.0,0.25,50,120.0
232,A4,26.5,0.375,46,120.0
233,C5,26.5,0.375,46,120.0
234,F2,26.5,1.5,33,120.0
235,F1,26.5,1.5,33,120.0
236,C#5,26.875,0.094,46,120.0
237,F5,26.875,0.094,46,120.0
238,D5,27.0,0.5,58,120.0
239,F5,27.0,0.5,58,120.0
240,B-4,27.5,0.25,50,120.0
241,D5,27.5,0.25,50,120.0
242,A3,28.0,0.375,42,120.0
243,C4,28.0,0.375,42,120.0
244,F#2,28.0,1.0,33,120.0
245,F#1,28.0,1.0,33,120.0
246,C4,28.375,0.094,41,120.0
247,E-4,28.375,0.094,41,120.0
248,C4,28.5,1.0,51,120.0
249,E-4,28.5,1.0,51,120.0
250,G1,29.0,1.0,31,120.0
251,G2,29.0,1.0,31,120.0
252,B-3,29.5,0.5,44,120.0
253,D4,29.5,0.5,44,120.0
254,A3,30.0,0.5,42,120.0
255,C4,30.0,0.5,42,120.0
256,A1,30.0,0.5,31,120.0
257,A2,30.0,0.5,31,120.0
258,G3,30.5,0.5,42,120.0
259,B-3,30.5,0.5,42,120.0
260,B-1,30.5,0.5,30,120.0
261,B-2,30.5,0.5,30,120.0
262,F3,31.0,1.0,40,120.0
263,A3,31.0,1.0,40,120.0
264,B1,31.0,0.5,30,120.0
265,B2,31.0,0.5,30,120.0
266,C2,31.5,1.0,30,120.0
267,C3,31.5,1.0,30,120.0
268,E3,32.0,0.5,36,120.0
269,G3,32.0,0.5,36,120.0
270,G3,32.5,1.5,32,120.0
271,C2,32.5,0.5,32,120.0
272,E-3,32.5,1.0,35,120.0
273,C4,32.5,1.0,35,120.0
274,G2,33.0,1.0,32,120.0
275,D3,33.5,0.5,35,120.0
276,B3,33.5,0.5,35,120.0
277,B3,35.5,0.375,40,120.0
278,D4,35.875,0.113,40,120.0
279,D4,36.0,0.5,49,120.0
280,B3,36.5,0.25,44,120.0
281,D4,37.0,1.25,33,120.0
282,B4,37.0,0.375,40,120.0
283,G2,37.0,0.375,32,120.0
284,G3,37.0,1.25,27,120.0
285,D5,37.375,0.113,40,120.0
286,B2,37.375,0.113,32,120.0
287,D5,37.5,0.5,49,120.0
288,B2,37.5,0.5,40,120.0
289,B4,38.0,0.25,44,120.0
290,G2,38.0,0.25,35,120.0
291,C6,38.5,0.375,46,120.0
292,C5,38.5,0.375,36,120.0
293,E-6,38.875,0.113,46,120.0
294,E-5,38.875,0.113,36,120.0
295,E-6,39.0,0.5,56,120.0
296,E-5,39.0,0.5,46,120.0
297,C6,39.5,0.25,50,120.0
298,C5,39.5,0.25,40,120.0
299,D4,40.0,0.375,46,120.0
300,B4,40.0,0.375,46,120.0
301,G3,40.0,1.5,37,120.0
302,G2,40.0,1.5,37,120.0
303,F4,40.375,0.094,46,120.0
304,D5,40.375,0.094,46,120.0
305,F4,40.5,0.5,58,120.0
306,D5,40.5,0.5,58,120.0
307,D4,41.0,0.25,52,120.0
308,B4,41.0,0.25,52,120.0
309,D4,41.5,0.375,55,120.0
310,B4,41.5,0.375,55,120.0
311,C3,41.5,1.5,44,120.0
312,C2,41.5,1.5,44,120.0
313,G4,41.875,0.094,55,120.0
314,E-5,41.875,0.094,55,120.0
315,G4,42.0,0.5,69,120.0
316,E-5,42.0,0.5,69,120.0
317,E-4,42.5,0.25,62,120.0
318,C5,42.5,0.25,62,120.0
319,A4,43.0,0.375,67,120.0
320,C5,43.0,0.375,67,120.0
321,F1,43.0,1.0,64,120.0
322,F2,43.0,1.0,64,120.0
323,C5,43.375,0.113,70,120.0
324,A5,43.375,0.113,70,120.0
325,C5,43.5,0.5,87,120.0
326,A5,43.5,0.5,87,120.0
327,A4,44.0,0.125,78,120.0
328,F5,44.0,0.125,78,120.0
329,F2,44.0,0.125,58,120.0
330,F3,44.0,0.125,58,120.0
331,B-4,44.5,0.125,94,120.0
332,B-5,44.5,0.125,94,120.0
333,B-1,44.5,0.125,66,120.0
334,B-2,44.5,0.125,66,120.0
335,B-4,45.0,0.25,94,120.0
336,B-5,45.0,0.25,94,120.0
337,B-1,45.0,0.25,66,120.0
338,B-2,45.0,0.25,66,120.0
339,B5,46.0,0.375,46,120.0
340,D6,46.0,0.375,46,120.0
341,F5,46.0,1.5,37,120.0
342,F4,46.0,1.5,37,120.0
343,D6,46.375,0.094,46,120.0
344,F6,46.375,0.094,46,120.0
345,D6,46.5,0.5,58,120.0
346,F6,46.5,0.5,58,120.0
347,B5,47.0,0.25,50,120.0
348,D6,47.0,0.25,50,120.0
349,B5,47.5,0.375,46,120.0
350,D6,47.5,0.375,46,120.0
351,F4,47.5,1.5,37,120.0
352,F3,47.5,1.5,37,120.0
353,E-6,47.875,0.094,46,120.0
354,G6,47.875,0.094,46,120.0
355,E-6,48.0,0.5,58,120.0
356,G6,48.0,0.5,58,120.0
357,C6,48.5,0.25,50,120.0
358,E-6,48.5,0.25,50,120.0
359,A5,49.0,0.375,46,120.0
360,C6,49.0,0.375,46,120.0
361,F4,49.0,1.5,37,120.0
362,F3,49.0,1.5,37,120.0
363,C6,49.375,0.094,46,120.0
364,E-6,49.375,0.094,46,120.0
365,C6,49.5,0.5,58,120.0
366,E-6,49.5,0.5,58,120.0
367,A5,50.0,0.25,50,120.0
368,C6,50.0,0.25,50,120.0
369,A5,50.5,0.375,46,120.0
370,C6,50.5,0.375,46,120.0
371,F3,50.5,1.5,33,120.0
372,F2,50.5,1.5,33,120.0
373,C#6,50.875,0.094,46,120.0
374,F6,50.875,0.094,46,120.0
375,D6,51.0,0.5,58,120.0
376,F6,51.0,0.5,58,120.0
377,B-5,51.5,0.25,50,120.0
378,D6,51.5,0.25,50,120.0
379,A4,52.0,0.375,42,120.0
380,C5,52.0,0.375,42,120.0
381,F#3,52.0,1.0,33,120.0
382,F#2,52.0,1.0,33,120.0
383,C5,52.375,0.094,41,120.0
384,E-5,52.375,0.094,41,120.0
385,C5,52.5,1.0,51,120.0
386,E-5,52.5,1.0,51,120.0
387,F#3,53.0,0.5,30,120.0
388,C4,53.0,0.5,30,120.0
389,E-4,53.0,0.5,30,120.0
390,B-4,53.5,0.5,44,120.0
391,D5,53.5,0.5,44,120.0
392,G3,53.5,0.5,30,120.0
393,B-3,53.5,0.5,30,120.0
394,D4,53.5,0.5,30,120.0
395,A4,54.0,0.5,42,120.0
396,C5,54.0,0.5,42,120.0
397,A3,54.0,0.5,31,120.0
398,C4,54.0,0.5,31,120.0
399,G4,54.5,0.5,42,120.0
400,B-4,54.5,0.5,42,120.0
401,B-2,54.5,0.5,30,120.0
402,G3,54.5,0.5,30,120.0
403,B-3,54.5,0.5,30,120.0
404,B2,55.0,0.5,28,120.0
405,F4,55.0,1.0,40,120.0
406,A4,55.0,1.0,40,120.0
407,F3,55.0,1.0,30,120.0
408,A3,55.0,1.0,30,120.0
409,C3,55.5,1.0,28,120.0
410,E4,56.0,0.5,36,120.0
411,G4,56.0,0.5,36,120.0
412,E3,56.0,0.5,30,120.0
413,G3,56.0,0.5,30,120.0
414,G4,56.5,1.5,32,120.0
415,C4,56.5,1.0,32,120.0
416,E-4,56.5,1.0,35,120.0
417,C5,56.5,1.0,35,120.0
418,E-3,56.5,0.5,30,120.0
419,G3,56.5,0.5,30,120.0
420,G3,57.0,1.0,32,120.0
421,B3,57.5,0.5,30,120.0
422,D4,57.5,0.5,35,120.0
423,B4,57.5,0.5,35,120.0
424,B4,59.5,0.375,40,120.0
425,D5,59.875,0.113,40,120.0
426,D5,60.0,0.5,49,120.0
427,B4,60.5,0.25,44,120.0
428,D5,61.0,1.25,33,120.0
429,B5,61.0,0.375,40,120.0
430,G3,61.0,0.375,32,120.0
431,G4,61.0,1.25,27,120.0
432,D6,61.375,0.113,40,120.0
433,B3,61.375,0.113,32,120.0
434,D6,61.5,0.5,49,120.0
435,B3,61.5,0.5,40,120.0
436,B5,62.0,0.25,44,120.0
437,G3,62.0,0.25,35,120.0
438,C5,62.5,0.375,46,120.0
439,C4,62.5,0.375,36,120.0
440,E-5,62.875,0.113,46,120.0
441,E-4,62.875,0.113,36,120.0
442,E-5,63.0,0.5,56,120.0
443,E-4,63.0,0.5,46,120.0
444,C5,63.5,0.25,50,120.0
445,C4,63.5,0.25,40,120.0
446,D5,64.0,0.375,46,120.0
447,B5,64.0,0.375,46,120.0
448,G4,64.0,1.5,37,120.0
449,G3,64.0,1.5,37,120.0
450,F5,64.375,0.094,46,120.0
451,D6,64.375,0.094,46,120.0
452,F5,64.5,0.5,58,120.0
453,D6,64.5,0.5,58,120.0
454,D5,65.0,0.25,52,120.0
455,B5,65.0,0.25,52,120.0
456,D5,65.5,0.375,56,120.0
457,B5,65.5,0.375,56,120.0
458,C4,65.5,1.5,45,120.0
459,C3,65.5,1.5,45,120.0
460,G5,65.875,0.094,57,120.0
461,E-6,65.875,0.094,57,120.0
462,G5,66.0,0.5,72,120.0
463,E-6,66.0,0.5,72,120.0
464,E-5,66.5,0.25,64,120.0
465,C6,66.5,0.25,64,120.0
466,A5,67.0,0.375,70,120.0
467,C6,67.0,0.375,70,120.0
468,F2,67.0,1.5,66,120.0
469,F3,67.0,1.5,66,120.0
470,C6,67.375,0.113,74,120.0
471,A6,67.375,0.113,74,120.0
472,C6,67.5,0.5,90,120.0
473,A6,67.5,0.5,90,120.0
474,A5,68.0,0.125,82,120.0
475,F6,68.0,0.125,82,120.0
476,B-5,68.5,0.125,103,120.0
477,B-6,68.5,0.125,103,120.0
478,B-1,68.5,0.125,72,120.0
479,B-2,68.5,0.125,72,120.0
480,B-5,69.0,0.25,103,120.0
481,B-6,69.0,0.25,103,120.0
482,B-1,69.0,0.25,72,120.0
483,B-2,69.0,0.25,72,120.0
484,C#5,70.0,1.0,57,120.0
485,C#6,70.0,1.0,57,120.0
486,B-1,70.0,0.25,34,120.0
487,B-2,70.0,0.25,34,120.0
488,B-1,70.5,0.25,34,120.0
489,B-2,70.5,0.25,34,120.0
490,F6,71.0,0.5,58,120.0
491,F5,71.0,0.5,58,120.0
492,B-1,71.5,0.167,37,120.0
493,C#5,71.5,1.0,57,120.0
494,C#6,71.5,1.0,57,120.0
495,F2,71.667,0.167,30,120.0
496,C#3,71.833,0.167,30,120.0
497,B-1,72.0,0.167,37,120.0
498,F2,72.167,0.167,31,120.0
499,C#3,72.333,0.167,31,120.0
500,B-1,72.5,0.167,37,120.0
501,B-4,72.5,0.5,57,120.0
502,B-5,72.5,0.5,57,120.0
503,F2,72.667,0.167,31,120.0
504,C#3,72.833,0.167,30,120.0
505,B-1,73.0,0.167,37,120.0
506,F4,73.0,0.5,52,120.0
507,F5,73.0,0.5,52,120.0
508,F2,73.167,0.167,31,120.0
509,C#3,73.333,0.167,31,120.0
510,B-1,73.5,0.167,37,120.0
511,B-4,73.5,1.0,58,120.0
512,B-5,73.5,1.0,58,120.0
513,F2,73.667,0.167,31,120.0
514,C#3,73.833,0.167,31,120.0
515,B-1,74.0,0.167,38,120.0
516,F2,74.167,0.167,32,120.0
517,C#3,74.333,0.167,31,120.0
518,B-1,74.5,0.167,39,120.0
519,C#6,74.5,0.5,60,120.0
520,C#5,74.5,0.5,60,120.0
521,F2,74.667,0.167,33,120.0
522,C#3,74.833,0.167,34,120.0
523,B-1,75.0,0.167,41,120.0
524,F5,75.0,1.0,64,120.0
525,F6,75.0,1.0,64,120.0
526,F2,75.167,0.167,35,120.0
527,C#3,75.333,0.167,35,120.0
528,B-1,75.5,0.167,42,120.0
529,F2,75.667,0.167,36,120.0
530,C#3,75.833,0.167,35,120.0
531,B-1,76.0,0.167,44,120.0
532,C#6,76.0,0.5,73,120.0
533,C#5,76.0,0.5,73,120.0
534,F2,76.167,0.167,37,120.0
535,C#3,76.333,0.167,38,120.0
536,B-1,76.5,0.167,49,120.0
537,B-5,76.5,1.0,74,120.0
538,B-4,76.5,1.0,74,120.0
539,F2,76.667,0.167,42,120.0
540,C#3,76.833,0.167,42,120.0
541,B-1,77.0,0.167,54,120.0
542,F2,77.167,0.167,49,120.0
543,C#3,77.333,0.167,49,120.0
544,B-1,77.5,0.167,61,120.0
545,F5,77.5,0.5,75,120.0
546,F4,77.5,0.5,75,120.0
547,F2,77.667,0.167,56,120.0
548,C#3,77.833,0.167,58,120.0
549,B-1,78.0,0.167,69,120.0
550,B-4,78.0,1.0,79,120.0
551,B-5,78.0,1.0,79,120.0
552,F2,78.167,0.167,57,120.0
553,C#3,78.333,0.167,52,120.0
554,B-1,78.5,0.167,61,120.0
555,F2,78.667,0.167,51,120.0
556,C#3,78.833,0.167,51,120.0
557,G#1,79.0,0.167,60,120.0
558,C#6,79.0,0.5,72,120.0
559,C#5,79.0,0.5,72,120.0
560,F2,79.167,0.167,50,120.0
561,C#3,79.333,0.167,46,120.0
562,G#1,79.5,0.167,44,120.0
563,F5,79.5,1.0,66,120.0
564,F6,79.5,1.0,66,120.0
565,F2,79.667,0.167,36,120.0
566,C#3,79.833,0.167,35,120.0
567,G#1,80.0,0.167,41,120.0
568,F2,80.167,0.167,34,120.0
569,C#3,80.333,0.167,32,120.0
570,C#2,80.5,0.167,39,120.0
571,G#6,80.5,0.5,46,120.0
572,G#5,80.5,0.5,46,120.0
573,F2,80.667,0.167,32,120.0
574,C#3,80.833,0.167,31,120.0
575,C#2,81.0,0.167,37,120.0
576,C#6,81.0,0.5,44,120.0
577,C#5,81.0,0.5,44,120.0
578,F2,81.167,0.167,26,120.0
579,C#3,81.333,0.167,26,120.0
580,C#2,81.5,0.167,30,120.0
581,F2,81.667,0.167,25,120.0
582,C#3,81.833,0.167,25,120.0
583,B-4,82.0,0.125,37,120.0
584,B-5,82.0,0.125,37,120.0
585,C#2,82.0,1.0,44,120.0
586,C#3,82.0,1.0,44,120.0
587,B-4,82.5,0.125,37,120.0
588,B-5,82.5,0.125,37,120.0
589,F3,83.0,0.5,50,120.0
590,F2,83.0,0.5,50,120.0
591,C#5,83.5,0.167,37,120.0
592,C#2,83.5,1.0,48,120.0
593,C#3,83.5,1.0,48,120.0
594,B-4,83.667,0.167,30,120.0
595,F4,83.833,0.167,30,120.0
596,C#5,84.0,0.167,37,120.0
597,B-4,84.167,0.167,31,120.0
598,F4,84.333,0.167,31,120.0
599,F5,84.5,0.167,37,120.0
600,B-1,84.5,0.5,48,120.0
601,B-2,84.5,0.5,48,120.0
602,C#5,84.667,0.167,31,120.0
603,B-4,84.833,0.167,30,120.0
604,C#5,85.0,0.167,37,120.0
605,F1,85.0,0.5,44,120.0
606,F2,85.0,0.5,44,120.0
607,B-4,85.167,0.167,31,120.0
608,F4,85.333,0.167,31,120.0
609,C#5,85.5,0.167,37,120.0
610,B-1,85.5,1.0,50,120.0
611,B-2,85.5,1.0,50,120.0
612,B-4,85.667,0.167,31,120.0
613,F4,85.833,0.167,31,120.0
614,B-4,86.0,0.167,39,120.0
615,F4,86.167,0.167,32,120.0
616,C#4,86.333,0.167,32,120.0
617,F4,86.5,0.167,40,120.0
618,C#3,86.5,0.5,56,120.0
619,C#2,86.5,0.5,56,120.0
620,C#4,86.667,0.167,34,120.0
621,B-3,86.833,0.167,36,120.0
622,C#4,87.0,0.167,49,120.0
623,B-4,87.0,0.167,49,120.0
624,F2,87.0,1.0,56,120.0
625,F3,87.0,1.0,56,120.0
626,B-3,87.167,0.167,42,120.0
627,C#4,87.333,0.167,42,120.0
628,B-4,87.5,0.167,50,120.0
629,C#4,87.667,0.167,43,120.0
630,B-3,87.833,0.167,43,120.0
631,F4,88.0,0.167,54,120.0
632,C#5,88.0,0.167,54,120.0
633,C#3,88.0,0.5,64,120.0
634,C#2,88.0,0.5,64,120.0
635,C#4,88.167,0.167,46,120.0
636,F4,88.333,0.167,51,120.0
637,F5,88.5,0.167,63,120.0
638,B-2,88.5,1.0,73,120.0
639,B-1,88.5,1.0,73,120.0
640,C#5,88.667,0.167,55,120.0
641,B-4,88.833,0.167,59,120.0
642,F5,89.0,0.167,71,120.0
643,C#5,89.167,0.167,60,120.0
644,B-4,89.333,0.167,64,120.0
645,C#5,89.5,0.167,77,120.0
646,F2,89.5,0.5,67,120.0
647,F1,89.5,0.5,67,120.0
648,B-4,89.667,0.167,67,120.0
649,F4,89.833,0.167,61,120.0
650,B-4,90.0,0.167,83,120.0
651,B-1,90.0,1.0,70,120.0
652,B-2,90.0,1.0,70,120.0
653,F4,90.167,0.167,68,120.0
654,C#4,90.333,0.167,58,120.0
655,B-4,90.5,0.167,64,120.0
656,F4,90.667,0.167,54,120.0
657,C#4,90.833,0.167,46,120.0
658,F4,91.0,0.167,60,120.0
659,C#3,91.0,0.5,64,120.0
660,C#2,91.0,0.5,64,120.0
661,C#4,91.167,0.167,45,120.0
662,B-3,91.333,0.167,44,120.0
663,C#4,91.5,0.167,38,120.0
664,G#4,91.5,0.167,38,120.0
665,F2,91.5,1.0,59,120.0
666,F3,91.5,1.0,59,120.0
667,G#3,91.667,0.167,36,120.0
668,C#4,91.833,0.167,35,120.0
669,G#4,92.0,0.167,41,120.0
670,F4,92.167,0.167,34,120.0
671,C#4,92.333,0.167,32,120.0
672,F4,92.5,0.167,33,120.0
673,C#5,92.5,0.167,33,120.0
674,G#3,92.5,0.5,41,120.0
675,G#2,92.5,0.5,41,120.0
676,C#4,92.667,0.167,32,120.0
677,F4,92.833,0.167,31,120.0
678,F5,93.0,0.167,37,120.0
679,C#3,93.0,0.5,40,120.0
680,C#2,93.0,0.5,40,120.0
681,C#5,93.167,0.167,26,120.0
682,G#4,93.333,0.167,26,120.0
683,F5,93.5,0.167,30,120.0
684,C#5,93.667,0.167,25,120.0
685,G#4,93.833,0.167,25,120.0
686,G#5,94.0,0.167,30,120.0
687,C#2,94.0,0.25,37,120.0
688,C#3,94.0,0.25,37,120.0
689,F5,94.167,0.167,25,120.0
690,C#5,94.333,0.163,25,120.0
691,F4,94.5,0.5,36,120.0
692,C#5,94.5,0.5,36,120.0
693,C#2,94.5,0.25,34,120.0
694,C#3,94.5,0.25,34,120.0
695,C#2,95.0,0.167,37,120.0
696,F2,95.167,0.167,31,120.0
697,C#3,95.333,0.167,30,120.0
698,C#2,95.5,0.167,37,120.0
699,F5,95.5,1.0,52,120.0
700,F6,95.5,1.0,52,120.0
701,F2,95.667,0.167,30,120.0
702,C#3,95.833,0.167,30,120.0
703,C#2,96.0,0.167,37,120.0
704,F2,96.167,0.167,31,120.0
705,C#3,96.333,0.167,31,120.0
706,C#2,96.5,0.167,37,120.0
707,G#6,96.5,0.5,53,120.0
708,G#5,96.5,0.5,53,120.0
709,F2,96.667,0.167,31,120.0
710,C#3,96.833,0.167,30,120.0
711,C#2,97.0,0.167,37,120.0
712,F5,97.0,1.0,52,120.0
713,F6,97.0,1.0,52,120.0
714,F2,97.167,0.167,30,120.0
715,C#3,97.333,0.167,30,120.0
716,C#2,97.5,0.167,37,120.0
717,F2,97.667,0.167,31,120.0
718,C#3,97.833,0.167,31,120.0
719,C#2,98.0,0.167,37,120.0
720,C#5,98.0,0.5,52,120.0
721,C#6,98.0,0.5,52,120.0
722,F2,98.167,0.167,31,120.0
723,C#3,98.333,0.167,30,120.0
724,C#2,98.5,0.167,37,120.0
725,G#4,98.5,0.5,48,120.0
726,G#5,98.5,0.5,48,120.0
727,F2,98.667,0.167,31,120.0
728,C#3,98.833,0.167,31,120.0
729,C#2,99.0,0.167,37,120.0
730,C#5,99.0,1.0,54,120.0
731,C#6,99.0,1.0,54,120.0
732,F2,99.167,0.167,31,120.0
733,C#3,99.333,0.167,31,120.0
734,C#2,99.5,0.167,38,120.0
735,F2,99.667,0.167,32,120.0
736,C#3,99.833,0.167,31,120.0
737,G#1,100.0,0.167,39,120.0
738,F6,100.0,0.5,55,120.0
739,F5,100.0,0.5,55,120.0
740,F2,100.167,0.167,33,120.0
741,C#3,100.333,0.167,34,120.0
742,G#1,100.5,0.167,41,120.0
743,G#5,100.5,1.0,58,120.0
744,G#6,100.5,1.0,58,120.0
745,F2,100.667,0.167,35,120.0
746,C#3,100.833,0.167,35,120.0
747,G#1,101.0,0.167,42,120.0
748,F2,101.167,0.167,36,120.0
749,C#3,101.333,0.167,35,120.0
750,G#1,101.5,0.167,46,120.0
751,F6,101.5,0.5,66,120.0
752,F5,101.5,0.5,66,120.0
753,F2,101.667,0.167,37,120.0
754,C#3,101.833,0.167,40,120.0
755,B-1,102.0,0.167,51,120.0
756,C#6,102.0,1.0,74,120.0
757,C#5,102.0,1.0,74,120.0
758,F2,102.167,0.167,43,120.0
759,C#3,102.333,0.167,43,120.0
760,B-1,102.5,0.167,55,120.0
761,F2,102.667,0.167,48,120.0
762,C#3,102.833,0.167,51,120.0
763,B-1,103.0,0.167,61,120.0
764,B-5,103.0,0.5,75,120.0
765,B-4,103.0,0.5,75,120.0
766,F2,103.167,0.167,53,120.0
767,C#3,103.333,0.167,55,120.0
768,B-1,103.5,0.167,66,120.0
769,F4,103.5,1.0,79,120.0
770,F5,103.5,1.0,79,120.0
771,F2,103.667,0.167,57,120.0
772,C#3,103.833,0.167,52,120.0
773,B-1,104.0,0.167,55,120.0
774,F2,104.167,0.167,45,120.0
775,C#3,104.333,0.167,42,120.0
776,B-1,104.5,0.167,50,120.0
777,B-5,104.5,0.5,72,120.0
778,B-4,104.5,0.5,72,120.0
779,F2,104.667,0.167,45,120.0
780,C#3,104.833,0.167,44,120.0
781,F1,105.0,0.167,44,120.0
782,C#5,105.0,1.0,66,120.0
783,C#6,105.0,1.0,66,120.0
784,F2,105.167,0.167,36,120.0
785,C#3,105.333,0.167,35,120.0
786,F1,105.5,0.167,41,120.0
787,F2,105.667,0.167,27,120.0
788,C#3,105.833,0.167,27,120.0
789,F1,106.0,0.167,33,120.0
790,F6,106.0,0.5,46,120.0
791,F5,106.0,0.5,46,120.0
792,F2,106.167,0.167,32,120.0
793,C#3,106.333,0.167,28,120.0
794,B-1,106.5,0.167,37,120.0
795,B-5,106.5,0.5,44,120.0
796,B-4,106.5,0.5,44,120.0
797,F2,106.667,0.167,26,120.0
798,C#3,106.833,0.167,26,120.0
799,B-1,107.0,0.5,30,120.0
800,C#4,107.5,0.125,37,120.0
801,C#5,107.5,0.125,37,120.0
802,F2,107.5,1.0,42,120.0
803,F3,107.5,1.0,42,120.0
804,C#4,108.0,0.125,37,120.0
805,C#5,108.0,0.125,37,120.0
806,C#4,108.5,0.167,37,120.0
807,G#3,108.5,0.5,48,120.0
808,G#2,108.5,0.5,48,120.0
809,F4,108.667,0.167,32,120.0
810,C#5,108.833,0.167,32,120.0
811,F5,109.0,0.5,37,120.0
812,F2,109.0,1.0,46,120.0
813,F3,109.0,1.0,46,120.0
814,C#5,109.167,0.167,30,120.0
815,G#4,109.333,0.167,30,120.0
816,F5,109.5,0.5,37,120.0
817,C#5,109.667,0.167,31,120.0
818,G#4,109.833,0.167,31,120.0
819,F5,110.0,0.167,37,120.0
820,G#5,110.0,0.5,37,120.0
821,C#2,110.0,0.5,46,120.0
822,C#3,110.0,0.5,46,120.0
823,C#5,110.167,0.167,31,120.0
824,G#4,110.333,0.167,30,120.0
825,F5,110.5,0.167,37,120.0
826,G#1,110.5,0.5,43,120.0
827,G#2,110.5,0.5,43,120.0
828,C#5,110.667,0.167,31,120.0
829,G#4,110.833,0.167,31,120.0
830,F5,111.0,0.167,37,120.0
831,C#2,111.0,1.0,48,120.0
832,C#3,111.0,1.0,48,120.0
833,C#5,111.167,0.167,31,120.0
834,G#4,111.333,0.167,31,120.0
835,C#5,111.5,0.167,38,120.0
836,G#4,111.667,0.167,32,120.0
837,F4,111.833,0.167,31,120.0
838,C#4,112.0,0.167,36,120.0
839,G#4,112.0,0.167,36,120.0
840,F3,112.0,0.5,54,120.0
841,F2,112.0,0.5,54,120.0
842,G#3,112.167,0.167,33,120.0
843,C#4,112.333,0.167,34,120.0
844,F4,112.5,0.167,36,120.0
845,C#5,112.5,0.167,36,120.0
846,G#2,112.5,1.0,56,120.0
847,G#3,112.5,1.0,56,120.0
848,C#4,112.667,0.167,35,120.0
849,F4,112.833,0.167,35,120.0
850,C#5,113.0,0.167,50,120.0
851,G#4,113.167,0.167,40,120.0
852,F4,113.333,0.167,43,120.0
853,F5,113.5,0.167,54,120.0
854,F3,113.5,0.5,64,120.0
855,F2,113.5,0.5,64,120.0
856,C#5,113.667,0.167,47,120.0
857,G#4,113.833,0.167,50,120.0
858,G#5,114.0,0.167,62,120.0
859,C#3,114.0,1.0,73,120.0
860,C#2,114.0,1.0,73,120.0
861,F5,114.167,0.167,53,120.0
862,C#5,114.333,0.167,55,120.0
863,F5,114.5,0.167,67,120.0
864,C#5,114.667,0.167,60,120.0
865,F5,114.833,0.163,62,120.0
866,F5,115.0,0.167,72,120.0
867,B-1,115.0,0.5,67,120.0
868,B-2,115.0,0.5,67,120.0
869,C#5,115.167,0.167,63,120.0
870,F4,115.333,0.167,60,120.0
871,C#5,115.5,0.167,75,120.0
872,F1,115.5,1.0,70,120.0
873,F2,115.5,1.0,70,120.0
874,B-4,115.667,0.167,66,120.0
875,F4,115.833,0.167,52,120.0
876,C#5,116.0,0.167,55,120.0
877,B-4,116.167,0.167,45,120.0
878,F4,116.333,0.167,42,120.0
879,B-4,116.5,0.167,60,120.0
880,B-1,116.5,0.5,64,120.0
881,B-2,116.5,0.5,64,120.0
882,F4,116.667,0.167,45,120.0
883,C#4,116.833,0.167,44,120.0
884,F4,117.0,0.167,44,120.0
885,C#2,117.0,1.0,59,120.0
886,C#3,117.0,1.0,59,120.0
887,C#4,117.167,0.167,36,120.0
888,B-3,117.333,0.167,35,120.0
889,F4,117.5,0.167,41,120.0
890,C#4,117.667,0.167,34,120.0
891,B-3,117.833,0.167,32,120.0
892,C#4,118.0,0.167,33,120.0
893,B-4,118.0,0.167,33,120.0
894,F2,118.0,0.5,41,120.0
895,F3,118.0,0.5,41,120.0
896,B-3,118.167,0.167,32,120.0
897,C#4,118.333,0.167,31,120.0
898,C#5,118.5,0.167,37,120.0
899,B-1,118.5,0.5,40,120.0
900,B-2,118.5,0.5,40,120.0
901,B-4,118.667,0.167,26,120.0
902,F4,118.833,0.167,26,120.0
903,C#5,119.0,0.167,30,120.0
904,B-4,119.167,0.167,25,120.0
905,F4,119.333,0.167,25,120.0
906,F5,119.5,0.167,30,120.0
907,C#5,119.667,0.167,25,120.0
908,F4,119.833,0.167,25,120.0
909,B-4,120.0,0.5,40,120.0
910,C#4,120.0,0.167,29,120.0
911,B-3,120.167,0.167,20,120.0
912,F3,120.333,0.167,20,120.0
913,C#4,120.5,0.167,24,120.0
914,B-3,120.667,0.167,20,120.0
915,F3,120.833,0.167,20,120.0
916,F4,121.0,0.167,24,120.0
917,C#4,121.167,0.167,20,120.0
918,F3,121.333,0.167,20,120.0
919,B-4,121.5,0.125,50,120.0
920,B-3,121.5,0.125,42,120.0
921,C#5,122.0,0.125,44,120.0
922,C#4,122.0,0.125,37,120.0
923,C5,122.5,0.125,50,120.0
924,C4,122.5,0.125,42,120.0
925,F4,123.0,0.125,43,120.0
926,F3,123.0,0.125,36,120.0
927,F5,123.5,0.125,50,120.0
928,F4,123.5,0.125,42,120.0
929,E-5,124.0,0.125,45,120.0
930,E-4,124.0,0.125,38,120.0
931,C#5,124.5,0.125,45,120.0
932,C#4,124.5,0.125,38,120.0
933,C5,125.0,0.125,45,120.0
934,C4,125.0,0.125,38,120.0
935,B-4,125.5,0.125,50,120.0
936,B-3,125.5,0.125,42,120.0
937,C#5,126.0,0.125,43,120.0
938,C#4,126.0,0.125,36,120.0
939,C5,126.5,0.125,50,120.0
940,C4,126.5,0.125,42,120.0
941,G#4,127.0,0.125,42,120.0
942,G#3,127.0,0.125,35,120.0
943,C5,127.5,0.125,50,120.0
944,C4,127.5,0.125,42,120.0
945,G4,128.0,0.125,42,120.0
946,G3,128.0,0.125,35,120.0
947,F4,128.5,1.0,46,120.0
948,F3,128.5,1.0,39,120.0
949,F2,129.5,0.375,50,120.0
950,F3,129.5,0.375,50,120.0
951,F4,129.75,0.25,45,120.0
952,G#4,129.75,0.25,45,120.0
953,C5,129.75,0.25,45,120.0
954,G#2,130.0,0.375,45,120.0
955,G#3,130.0,0.375,45,120.0
956,F4,130.25,0.25,43,120.0
957,G#4,130.25,0.25,43,120.0
958,C5,130.25,0.25,43,120.0
959,G2,130.5,0.375,52,120.0
960,G3,130.5,0.375,52,120.0
961,E4,130.75,0.25,44,120.0
962,B-4,130.75,0.25,44,120.0
963,C5,130.75,0.25,44,120.0
964,C2,131.0,0.375,46,120.0
965,C3,131.0,0.375,46,120.0
966,E4,131.25,0.25,44,120.0
967,G4,131.25,0.25,44,120.0
968,B-4,131.25,0.25,44,120.0
969,C5,131.25,0.25,44,120.0
970,C3,131.5,0.375,56,120.0
971,C4,131.5,0.375,56,120.0
972,E4,131.75,0.25,50,120.0
973,G4,131.75,0.25,50,120.0
974,C5,131.75,0.25,50,120.0
975,B-2,132.0,0.375,52,120.0
976,B-3,132.0,0.375,52,120.0
977,E4,132.25,0.25,50,120.0
978,G4,132.25,0.25,50,120.0
979,C5,132.25,0.25,50,120.0
980,G#2,132.5,0.375,54,120.0
981,G#3,132.5,0.375,54,120.0
982,F4,132.75,0.25,51,120.0
983,G#4,132.75,0.25,51,120.0
984,C5,132.75,0.25,51,120.0
985,G2,133.0,0.375,55,120.0
986,G3,133.0,0.375,55,120.0
987,E4,133.25,0.25,52,120.0
988,B-4,133.25,0.25,52,120.0
989,C5,133.25,0.25,52,120.0
990,F2,133.5,0.375,63,120.0
991,F3,133.5,0.375,63,120.0
992,F4,133.75,0.25,62,120.0
993,G#4,133.75,0.25,62,120.0
994,C5,133.75,0.25,62,120.0
995,G#2,134.0,0.375,55,120.0
996,G#3,134.0,0.375,55,120.0
997,F4,134.25,0.25,57,120.0
998,G#4,134.25,0.25,57,120.0
999,C5,134.25,0.25,57,120.0
1000,F5,134.25,0.25,57,120.0
1001,G2,134.5,0.375,66,120.0
1002,G3,134.5,0.375,66,120.0
1003,F4,134.75,0.25,58,120.0
1004,B-4,134.75,0.25,58,120.0
1005,C5,134.75,0.25,58,120.0
1006,F5,134.75,0.25,58,120.0
1007,C3,135.0,0.375,56,120.0
1008,C4,135.0,0.375,56,120.0
1009,E4,135.25,0.25,60,120.0
1010,B-4,135.25,0.25,60,120.0
1011,C5,135.25,0.25,60,120.0
1012,E5,135.25,0.25,60,120.0
1013,A2,135.5,0.375,69,120.0
1014,A3,135.5,0.375,69,120.0
1015,F4,135.75,0.25,73,120.0
1016,C5,135.75,0.25,73,120.0
1017,F5,135.75,0.25,73,120.0
1018,F2,136.0,0.375,60,120.0
1019,F3,136.0,0.375,60,120.0
1020,F4,136.25,0.25,64,120.0
1021,C5,136.25,0.25,64,120.0
1022,E-5,136.25,0.25,64,120.0
1023,B-2,136.5,0.375,72,120.0
1024,B-3,136.5,0.375,72,120.0
1025,F4,136.75,0.25,66,120.0
1026,B-4,136.75,0.25,66,120.0
1027,C#5,136.75,0.25,66,120.0
1028,C3,137.0,0.375,62,120.0
1029,C4,137.0,0.375,62,120.0
1030,E-4,137.25,0.25,67,120.0
1031,A4,137.25,0.25,67,120.0
1032,C5,137.25,0.25,67,120.0
1033,C#3,137.5,0.25,78,120.0
1034,B-4,137.5,0.25,81,120.0
1035,F5,137.5,0.25,81,120.0
1036,B-5,137.5,0.25,81,120.0
1037,C#4,137.75,0.25,69,120.0
1038,B-2,138.0,0.25,78,120.0
1039,C#6,138.0,0.25,75,120.0
1040,B-5,138.0,0.25,75,120.0
1041,F5,138.0,0.25,75,120.0
1042,C#5,138.0,0.25,75,120.0
1043,B-3,138.25,0.25,68,120.0
1044,F2,138.5,0.25,78,120.0
1045,C6,138.5,0.25,78,120.0
1046,A5,138.5,0.25,78,120.0
1047,F5,138.5,0.25,78,120.0
1048,C5,138.5,0.25,78,120.0
1049,F3,138.75,0.25,67,120.0
1050,E-2,139.0,0.25,78,120.0
1051,F5,139.0,0.25,75,120.0
1052,C5,139.0,0.25,75,120.0
1053,A4,139.0,0.25,75,120.0
1054,F4,139.0,0.25,75,120.0
1055,E-3,139.25,0.25,66,120.0
1056,C#2,139.5,0.25,78,120.0
1057,F6,139.5,0.25,88,120.0
1058,B-5,139.5,0.25,88,120.0
1059,F5,139.5,0.25,88,120.0
1060,C#3,139.75,0.25,67,120.0
1061,C2,140.0,0.25,78,120.0
1062,E-6,140.0,0.25,74,120.0
1063,A5,140.0,0.25,74,120.0
1064,F5,140.0,0.25,74,120.0
1065,E-5,140.0,0.25,74,120.0
1066,C3,140.25,0.25,67,120.0
1067,B-1,140.5,0.25,73,120.0
1068,C#6,140.5,0.25,74,120.0
1069,B-5,140.5,0.25,74,120.0
1070,F5,140.5,0.25,74,120.0
1071,C#5,140.5,0.25,74,120.0
1072,B-2,140.75,0.25,62,120.0
1073,A1,141.0,0.25,73,120.0
1074,C6,141.0,0.25,75,120.0
1075,F5,141.0,0.25,75,120.0
1076,C5,141.0,0.25,75,120.0
1077,A2,141.25,0.25,61,120.0
1078,B-1,141.5,0.25,75,120.0
1079,B-5,141.5,0.25,80,120.0
1080,F5,141.5,0.25,80,120.0
1081,C#5,141.5,0.25,80,120.0
1082,B-4,141.5,0.25,80,120.0
1083,B-2,141.75,0.25,63,120.0
1084,B-1,142.0,0.25,73,120.0
1085,C#6,142.0,0.25,72,120.0
1086,B-5,142.0,0.25,72,120.0
1087,F5,142.0,0.25,72,120.0
1088,C#5,142.0,0.25,72,120.0
1089,B-2,142.25,0.25,65,120.0
1090,A1,142.5,0.25,74,120.0
1091,C6,142.5,0.25,81,120.0
1092,F5,142.5,0.25,81,120.0
1093,C5,142.5,0.25,81,120.0
1094,A2,142.75,0.25,62,120.0
1095,E-2,143.0,0.25,73,120.0
1096,F5,143.0,0.25,71,120.0
1097,C5,143.0,0.25,71,120.0
1098,A4,143.0,0.25,71,120.0
1099,F4,143.0,0.25,71,120.0
1100,E-3,143.25,0.25,60,120.0
1101,C#2,143.5,0.25,71,120.0
1102,F6,143.5,0.25,100,120.0
1103,F5,143.5,0.25,100,120.0
1104,C#3,143.75,0.25,61,120.0
1105,B-1,144.0,0.25,70,120.0
1106,C#6,144.0,0.25,83,120.0
1107,B-5,144.0,0.25,83,120.0
1108,C#5,144.0,0.25,83,120.0
1109,B-2,144.25,0.25,63,120.0
1110,C6,144.5,1.0,90,120.0
1111,A5,144.5,1.0,90,120.0
1112,C5,144.5,1.0,90,120.0
1113,F2,144.5,1.0,75,120.0
1114,F3,144.5,1.0,75,120.0
1115,C#4,145.5,0.25,71,120.0
1116,F6,145.5,0.25,100,120.0
1117,F5,145.5,0.25,100,120.0
1118,C#5,145.75,0.25,61,120.0
1119,B-3,146.0,0.25,70,120.0
1120,C#6,146.0,0.25,85,120.0
1121,B-5,146.0,0.25,85,120.0
1122,B-4,146.25,0.25,63,120.0
1123,C6,146.5,1.0,93,120.0
1124,A5,146.5,1.0,93,120.0
1125,F5,147.0,0.5,80,120.0
1126,C5,147.5,1.0,89,120.0
1127,A4,147.5,1.0,89,120.0
1128,F4,148.0,0.5,80,120.0
1129,C4,148.5,1.0,89,120.0
1130,A3,148.5,1.0,89,120.0
1131,F3,149.0,0.5,80,120.0
1132,C3,149.5,1.0,93,120.0
1133,A2,149.5,1.0,93,120.0
1134,F2,150.0,0.5,80,120.0
1135,C2,150.5,2.5,93,120.0
1136,A1,150.5,2.5,93,120.0
1137,F1,151.0,2.0,89,120.0
1138,F1,153.0,0.167,65,120.0
1139,G1,153.167,0.167,65,120.0
1140,A1,153.333,0.167,66,120.0
1141,B-1,153.5,0.25,66,120.0
1142,C2,153.75,0.25,67,120.0
1143,D2,154.0,0.25,68,120.0
1144,E2,154.25,0.25,69,120.0
1145,F2,154.5,0.167,69,120.0
1146,G2,154.667,0.167,70,120.0
1147,A2,154.833,0.167,70,120.0
1148,B-2,155.0,0.25,71,120.0
1149,C3,155.25,0.25,72,120.0
1150,D3,155.5,0.25,73,120.0
1151,E3,155.75,0.25,73,120.0
1152,F3,156.0,0.167,74,120.0
1153,G3,156.167,0.167,75,120.0
1154,A3,156.333,0.167,75,120.0
1155,B-3,156.5,0.25,76,120.0
1156,C4,156.75,0.25,77,120.0
1157,D4,157.0,0.25,77,120.0
1158,E4,157.25,0.25,78,120.0
1159,F4,157.5,0.167,81,120.0
1160,G4,157.667,0.167,81,120.0
1161,A4,157.833,0.167,81,120.0
1162,B-4,158.0,0.25,81,120.0
1163,C5,158.25,0.25,82,120.0
1164,D5,158.5,0.25,82,120.0
1165,E5,158.75,0.25,83,120.0
1166,F5,159.0,0.167,83,120.0
1167,G5,159.167,0.167,83,120.0
1168,A5,159.333,0.167,84,120.0
1169,B-5,159.5,0.25,84,120.0
1170,C6,159.75,0.25,84,120.0
1171,D6,160.0,0.25,85,120.0
1172,E6,160.25,0.25,85,120.0
1173,F6,160.5,0.167,86,120.0
1174,F4,160.5,0.167,60,120.0
1175,G6,160.667,0.167,88,120.0
1176,G4,160.667,0.167,61,120.0
1177,A6,160.833,0.167,89,120.0
1178,A4,160.833,0.167,62,120.0
1179,B-6,161.0,0.25,90,120.0
1180,B-4,161.0,0.25,63,120.0
1181,C7,161.25,0.25,92,120.0
1182,C5,161.25,0.25,64,120.0
1183,D7,161.5,0.25,94,120.0
1184,D5,161.5,0.25,65,120.0
1185,E7,161.75,0.25,96,120.0
1186,E5,161.75,0.25,67,120.0
1187,F7,162.0,0.25,98,120.0
1188,F5,162.0,0.25,68,120.0
1189,F3,162.5,0.125,66,120.0
1190,E-5,162.5,0.125,74,120.0
1191,F#5,162.5,0.125,74,120.0
1192,A4,162.625,0.125,70,120.0
1193,E-4,162.625,0.125,58,120.0
1194,F3,162.75,0.125,66,120.0
1195,E-5,162.75,0.125,73,120.0
1196,F#5,162.75,0.125,73,120.0
1197,A4,162.875,0.125,70,120.0
1198,E-4,162.875,0.125,58,120.0
1199,F3,163.0,0.125,66,120.0
1200,E-5,163.0,0.125,73,120.0
1201,F#5,163.0,0.125,73,120.0
1202,A4,163.125,0.125,70,120.0
1203,E-4,163.125,0.125,58,120.0
1204,F3,163.25,0.125,66,120.0
1205,E-5,163.25,0.125,73,120.0
1206,F#5,163.25,0.125,73,120.0
1207,A4,163.375,0.125,70,120.0
1208,E-4,163.375,0.125,58,120.0
1209,F3,163.5,0.125,66,120.0
1210,E-5,163.5,0.125,74,120.0
1211,F#5,163.5,0.125,74,120.0
1212,A4,163.625,0.125,70,120.0
1213,E-4,163.625,0.125,57,120.0
1214,F3,163.75,0.125,65,120.0
1215,E-5,163.75,0.125,71,120.0
1216,F#5,163.75,0.125,71,120.0
1217,A4,163.875,0.125,70,120.0
1218,E-4,163.875,0.125,58,120.0
1219,D5,165.5,0.375,50,120.0
1220,D4,165.5,0.375,37,120.0
1221,B-3,165.5,0.375,37,120.0
1222,A4,165.875,0.113,46,120.0
1223,F5,165.875,0.113,46,120.0
1224,F3,165.875,0.113,37,120.0
1225,C4,165.875,0.113,37,120.0
1226,C5,166.0,0.5,58,120.0
1227,F5,166.0,0.5,58,120.0
1228,C4,166.0,0.5,46,120.0
1229,A3,166.0,0.5,46,120.0
1230,F4,166.5,0.25,50,120.0
1231,D5,166.5,0.25,50,120.0
1232,D4,166.5,0.25,40,120.0
1233,B-3,166.5,0.25,40,120.0
1234,B-4,167.0,0.375,50,120.0
1235,B-3,167.0,0.375,37,120.0
1236,G3,167.0,0.375,37,120.0
1237,F#4,167.375,0.113,46,120.0
1238,D5,167.375,0.113,46,120.0
1239,D3,167.375,0.113,37,120.0
1240,A3,167.375,0.113,37,120.0
1241,A4,167.5,0.5,58,120.0
1242,D5,167.5,0.5,58,120.0
1243,A3,167.5,0.5,46,120.0
1244,F#3,167.5,0.5,46,120.0
1245,D4,168.0,0.25,50,120.0
1246,B-4,168.0,0.25,50,120.0
1247,B-3,168.0,0.25,40,120.0
1248,G3,168.0,0.25,40,120.0
1249,G4,168.5,0.375,52,120.0
1250,G3,168.5,0.375,38,120.0
1251,E-3,168.5,0.375,38,120.0
1252,D4,168.875,0.113,48,120.0
1253,B-4,168.875,0.113,48,120.0
1254,B-2,168.875,0.113,39,120.0
1255,F3,168.875,0.113,39,120.0
1256,F4,169.0,0.5,62,120.0
1257,B-4,169.0,0.5,62,120.0
1258,F3,169.0,0.5,50,120.0
1259,D3,169.0,0.5,50,120.0
1260,B-3,169.5,0.25,56,120.0
1261,G4,169.5,0.25,56,120.0
1262,G3,169.5,0.25,44,120.0
1263,E-3,169.5,0.25,44,120.0
1264,B-3,170.0,0.375,52,120.0
1265,G4,170.0,0.375,52,120.0
1266,G3,170.0,0.375,42,120.0
1267,E-3,170.0,0.375,42,120.0
1268,E-4,170.375,0.113,53,120.0
1269,A4,170.375,0.113,53,120.0
1270,C3,170.375,0.113,42,120.0
1271,F3,170.375,0.113,42,120.0
1272,F3,170.5,0.75,58,120.0
1273,C3,170.5,0.5,49,120.0
1274,E-4,170.5,0.5,67,120.0
1275,A4,170.5,0.5,67,120.0
1276,D3,171.0,0.25,44,120.0
1277,B-3,171.0,0.25,60,120.0
1278,B-4,171.0,0.25,60,120.0
1279,F4,171.5,0.5,51,120.0
1280,B-4,171.5,0.375,61,120.0
1281,F3,171.5,0.5,41,120.0
1282,D3,171.5,0.375,49,120.0
1283,C5,171.875,0.113,63,120.0
1284,A2,171.875,0.113,42,120.0
1285,F3,172.0,0.75,64,120.0
1286,A2,172.0,0.5,53,120.0
1287,F4,172.0,0.5,73,120.0
1288,C5,172.0,0.5,73,120.0
1289,G#2,172.5,0.25,48,120.0
1290,B-4,172.5,0.25,64,120.0
1291,F4,172.5,0.25,64,120.0
1292,D5,172.5,0.25,64,120.0
1293,B-4,173.0,0.5,56,120.0
1294,D5,173.0,0.375,67,120.0
1295,G#2,173.0,0.375,49,120.0
1296,F3,173.0,0.375,49,120.0
1297,E-5,173.375,0.113,70,120.0
1298,G2,173.375,0.113,46,120.0
1299,E-3,173.375,0.113,46,120.0
1300,B-4,173.5,0.5,82,120.0
1301,E-5,173.5,0.5,82,120.0
1302,E-3,173.5,0.5,65,120.0
1303,G2,173.5,0.5,65,120.0
1304,C#5,174.0,0.125,72,120.0
1305,B-4,174.0,0.125,72,120.0
1306,F4,174.0,0.125,72,120.0
1307,F5,174.0,0.125,72,120.0
1308,C#3,174.0,0.125,52,120.0
1309,F2,174.0,0.125,52,120.0
1310,G4,174.5,0.125,83,120.0
1311,B-4,174.5,0.125,83,120.0
1312,C5,174.5,0.125,83,120.0
1313,G5,174.5,0.125,83,120.0
1314,E2,174.5,0.125,60,120.0
1315,C3,174.5,0.125,60,120.0
1316,C4,175.0,0.25,84,120.0
1317,A4,175.0,0.25,84,120.0
1318,C5,175.0,0.25,84,120.0
1319,F2,175.0,0.25,60,120.0
1320,F3,175.0,0.25,60,120.0
1321,D6,176.0,0.375,50,120.0
1322,D5,176.0,0.375,37,120.0
1323,B-4,176.0,0.375,37,120.0
1324,A5,176.375,0.113,46,120.0
1325,F6,176.375,0.113,46,120.0
1326,F4,176.375,0.113,37,120.0
1327,C5,176.375,0.113,37,120.0
1328,A5,176.5,0.5,58,120.0
1329,F6,176.5,0.5,58,120.0
1330,C5,176.5,0.5,46,120.0
1331,A4,176.5,0.5,46,120.0
1332,F5,176.75,0.5,46,120.0
1333,D6,177.0,0.25,55,120.0
1334,D5,177.0,0.25,40,120.0
1335,B-4,177.0,0.25,40,120.0
1336,B-5,177.5,0.375,50,120.0
1337,B-4,177.5,0.375,37,120.0
1338,G4,177.5,0.375,37,120.0
1339,F#5,177.875,0.113,46,120.0
1340,D6,177.875,0.113,46,120.0
1341,D4,177.875,0.113,37,120.0
1342,A4,177.875,0.113,37,120.0
1343,D6,178.0,0.5,62,120.0
1344,A4,178.0,0.5,46,120.0
1345,F#4,178.0,0.5,46,120.0
1346,D5,178.25,0.5,46,120.0
1347,B-5,178.5,0.25,55,120.0
1348,B-4,178.5,0.25,40,120.0
1349,G4,178.5,0.25,40,120.0
1350,G5,179.0,0.375,52,120.0
1351,G4,179.0,0.375,38,120.0
1352,E-4,179.0,0.375,38,120.0
1353,D5,179.375,0.113,48,120.0
1354,B-5,179.375,0.113,48,120.0
1355,B-3,179.375,0.113,39,120.0
1356,F4,179.375,0.113,39,120.0
1357,B-5,179.5,0.5,66,120.0
1358,F4,179.5,0.5,50,120.0
1359,D4,179.5,0.5,50,120.0
1360,B-4,179.75,0.5,51,120.0
1361,G5,180.0,0.25,61,120.0
1362,G4,180.0,0.25,44,120.0
1363,E-4,180.0,0.25,44,120.0
1364,B-4,180.5,0.375,52,120.0
1365,G5,180.5,0.375,52,120.0
1366,G4,180.5,0.375,42,120.0
1367,E-4,180.5,0.375,42,120.0
1368,E-5,180.875,0.113,53,120.0
1369,A5,180.875,0.113,53,120.0
1370,C4,180.875,0.113,42,120.0
1371,F4,180.875,0.113,42,120.0
1372,A5,181.0,0.5,72,120.0
1373,F4,181.0,0.75,58,120.0
1374,C4,181.0,0.5,49,120.0
1375,E-5,181.269,0.25,62,120.0
1376,D4,181.5,0.25,44,120.0
1377,B-4,181.5,0.25,60,120.0
1378,B-5,181.5,0.25,60,120.0
1379,F5,182.0,0.5,51,120.0
1380,B-5,182.0,0.375,61,120.0
1381,D5,182.0,0.375,49,120.0
1382,C6,182.375,0.113,63,120.0
1383,C5,182.375,0.113,42,120.0
1384,A4,182.375,0.113,42,120.0
1385,C6,182.5,0.5,79,120.0
1386,C5,182.5,0.5,58,120.0
1387,A4,182.5,0.5,58,120.0
1388,F5,182.75,0.5,67,120.0
1389,D6,183.0,0.25,72,120.0
1390,B-4,183.0,0.25,50,120.0
1391,G#4,183.0,0.25,50,120.0
1392,B-5,183.5,0.5,56,120.0
1393,E-6,183.5,0.375,67,120.0
1394,G4,183.5,0.375,45,120.0
1395,B-4,183.5,0.5,53,120.0
1396,E6,183.875,0.113,70,120.0
1397,F#4,183.875,0.113,46,120.0
1398,E6,184.0,0.5,88,120.0
1399,B-4,184.0,0.5,65,120.0
1400,F#4,184.0,0.5,65,120.0
1401,B-5,184.25,0.25,76,120.0
1402,A5,184.5,0.125,75,120.0
1403,F6,184.5,0.125,75,120.0
1404,C5,184.5,0.125,52,120.0
1405,F4,184.5,0.125,52,120.0
1406,G5,185.0,0.125,83,120.0
1407,B-5,185.0,0.125,83,120.0
1408,E6,185.0,0.125,83,120.0
1409,G6,185.0,0.125,83,120.0
1410,C3,185.0,0.125,60,120.0
1411,C4,185.0,0.125,60,120.0
1412,F5,185.5,0.25,84,120.0
1413,A5,185.5,0.25,84,120.0
1414,F6,185.5,0.25,84,120.0
1415,F3,185.5,0.25,60,120.0
1416,F4,185.5,0.25,60,120.0
1417,B4,186.5,0.375,46,120.0
1418,D5,186.5,0.375,46,120.0
1419,F4,186.5,0.75,37,120.0
1420,F3,186.5,0.75,37,120.0
1421,D5,186.875,0.094,46,120.0
1422,F5,186.875,0.094,46,120.0
1423,D5,187.0,0.5,58,120.0
1424,F5,187.0,0.5,58,120.0
1425,F3,187.25,0.25,34,120.0
1426,F4,187.5,0.25,39,120.0
1427,B4,187.5,0.25,50,120.0
1428,D5,187.5,0.25,50,120.0
1429,B4,188.0,0.375,46,120.0
1430,D5,188.0,0.375,46,120.0
1431,F3,188.0,0.75,37,120.0
1432,F2,188.0,0.75,37,120.0
1433,E-5,188.375,0.094,46,120.0
1434,G5,188.375,0.094,46,120.0
1435,E-5,188.5,0.5,58,120.0
1436,G5,188.5,0.5,58,120.0
1437,F2,188.75,0.25,34,120.0
1438,F3,189.0,0.25,39,120.0
1439,C5,189.0,0.25,50,120.0
1440,E-5,189.0,0.25,50,120.0
1441,A4,189.5,0.375,46,120.0
1442,C5,189.5,0.375,46,120.0
1443,F3,189.5,0.75,37,120.0
1444,F2,189.5,0.75,37,120.0
1445,C5,189.875,0.094,46,120.0
1446,E-5,189.875,0.094,46,120.0
1447,C5,190.0,0.5,58,120.0
1448,E-5,190.0,0.5,58,120.0
1449,E-4,190.25,0.5,34,120.0
1450,F2,190.25,0.25,34,120.0
1451,F3,190.5,0.25,39,120.0
1452,A4,190.5,0.25,50,120.0
1453,C5,190.5,0.25,50,120.0
1454,A4,191.0,0.375,46,120.0
1455,C5,191.0,0.375,46,120.0
1456,F2,191.0,0.75,33,120.0
1457,F1,191.0,0.75,33,120.0
1458,C#5,191.375,0.094,46,120.0
1459,F5,191.375,0.094,46,120.0
1460,D5,191.5,0.5,58,120.0
1461,F5,191.5,0.5,58,120.0
1462,F4,191.75,0.5,34,120.0
1463,F1,191.75,0.25,34,120.0
1464,F2,192.0,0.25,39,120.0
1465,B-4,192.0,0.25,50,120.0
1466,D5,192.0,0.25,50,120.0
1467,A3,192.5,0.375,42,120.0
1468,C4,192.5,0.375,42,120.0
1469,F#2,192.5,1.0,33,120.0
1470,F#1,192.5,1.0,33,120.0
1471,C4,192.875,0.094,41,120.0
1472,E-4,192.875,0.094,41,120.0
1473,C4,193.0,1.0,51,120.0
1474,E-4,193.0,1.0,51,120.0
1475,G1,193.5,1.5,31,120.0
1476,G2,193.5,1.5,31,120.0
1477,B-3,194.0,0.5,44,120.0
1478,D4,194.0,0.5,44,120.0
1479,A3,194.5,0.5,42,120.0
1480,C4,194.5,0.5,42,120.0
1481,G3,195.0,0.5,42,120.0
1482,B-3,195.0,0.5,42,120.0
1483,A1,195.0,0.5,30,120.0
1484,A2,195.0,0.5,30,120.0
1485,F3,195.5,1.0,40,120.0
1486,A3,195.5,1.0,40,120.0
1487,B-1,195.5,0.5,30,120.0
1488,B-2,195.5,0.5,30,120.0
1489,B1,196.0,0.5,30,120.0
1490,B2,196.0,0.5,30,120.0
1491,E3,196.5,0.5,36,120.0
1492,G3,196.5,0.5,36,120.0
1493,C2,196.5,0.5,30,120.0
1494,C3,196.5,0.5,30,120.0
1495,G3,197.0,1.5,32,120.0
1496,C2,197.0,0.5,32,120.0
1497,E-3,197.0,1.0,35,120.0
1498,C4,197.0,1.0,35,120.0
1499,G2,197.5,1.0,32,120.0
1500,D3,198.0,0.5,35,120.0
1501,B3,198.0,0.5,35,120.0
1502,B3,200.0,0.375,40,120.0
1503,D4,200.375,0.113,40,120.0
1504,D4,200.5,0.5,49,120.0
1505,B3,201.0,0.25,44,120.0
1506,D4,201.5,0.746,33,120.0
1507,B4,201.5,0.375,40,120.0
1508,G2,201.5,0.375,32,120.0
1509,G3,201.5,1.5,27,120.0
1510,D5,201.875,0.113,40,120.0
1511,B2,201.875,0.113,32,120.0
1512,D5,202.0,0.5,49,120.0
1513,B2,202.0,0.5,40,120.0
1514,D4,202.25,0.5,33,120.0
1515,B4,202.5,0.25,44,120.0
1516,G2,202.5,0.25,35,120.0
1517,C6,203.0,0.375,46,120.0
1518,C5,203.0,0.375,36,120.0
1519,E-6,203.375,0.113,46,120.0
1520,E-5,203.375,0.113,36,120.0
1521,E-6,203.5,0.5,56,120.0
1522,E-5,203.5,0.5,46,120.0
1523,C6,204.0,0.25,50,120.0
1524,C5,204.0,0.25,40,120.0
1525,D4,204.5,0.375,46,120.0
1526,B4,204.5,0.375,46,120.0
1527,G3,204.5,0.746,37,120.0
1528,G2,204.5,0.746,37,120.0
1529,F4,204.875,0.094,46,120.0
1530,D5,204.875,0.094,46,120.0
1531,F4,205.0,0.5,58,120.0
1532,D5,205.0,0.5,58,120.0
1533,G2,205.25,0.25,34,120.0
1534,G3,205.5,0.25,39,120.0
1535,D4,205.5,0.25,50,120.0
1536,B4,205.5,0.25,50,120.0
1537,D4,206.0,0.375,53,120.0
1538,B4,206.0,0.375,53,120.0
1539,C3,206.0,0.75,42,120.0
1540,C2,206.0,0.75,42,120.0
1541,G4,206.375,0.094,52,120.0
1542,E-5,206.375,0.094,52,120.0
1543,G4,206.5,0.5,66,120.0
1544,E-5,206.5,0.5,66,120.0
1545,C2,206.75,0.25,54,120.0
1546,C3,207.0,0.25,64,120.0
1547,E-4,207.0,0.25,60,120.0
1548,C5,207.0,0.25,60,120.0
1549,A4,207.5,0.375,65,120.0
1550,C5,207.5,0.375,65,120.0
1551,F1,207.5,0.746,62,120.0
1552,F2,207.5,0.746,62,120.0
1553,C5,207.875,0.113,70,120.0
1554,A5,207.875,0.113,70,120.0
1555,C5,208.0,0.5,87,120.0
1556,A5,208.0,0.5,87,120.0
1557,F2,208.25,0.25,75,120.0
1558,F3,208.5,0.125,86,120.0
1559,A4,208.5,0.125,80,120.0
1560,F5,208.5,0.125,80,120.0
1561,B-4,209.0,0.125,99,120.0
1562,B-5,209.0,0.125,99,120.0
1563,B-1,209.0,0.125,68,120.0
1564,B-2,209.0,0.125,68,120.0
1565,B-4,209.5,0.25,99,120.0
1566,B-5,209.5,0.25,99,120.0
1567,B-1,209.5,0.25,68,120.0
1568,B-2,209.5,0.25,68,120.0
1569,B5,210.5,0.375,46,120.0
1570,D6,210.5,0.375,46,120.0
1571,F5,210.5,0.746,37,120.0
1572,F4,210.5,0.746,37,120.0
1573,D6,210.875,0.094,46,120.0
1574,F6,210.875,0.094,46,120.0
1575,D6,211.0,0.5,58,120.0
1576,F6,211.0,0.5,58,120.0
1577,F4,211.25,0.25,34,120.0
1578,F5,211.5,0.25,39,120.0
1579,B5,211.5,0.25,50,120.0
1580,D6,211.5,0.25,50,120.0
1581,B5,212.0,0.375,46,120.0
1582,D6,212.0,0.375,46,120.0
1583,F3,212.0,0.746,37,120.0
1584,F4,212.0,0.746,37,120.0
1585,E-6,212.375,0.094,46,120.0
1586,G6,212.375,0.094,46,120.0
1587,E-6,212.5,0.5,58,120.0
1588,G6,212.5,0.5,58,120.0
1589,F3,212.75,0.25,34,120.0
1590,F4,213.0,0.25,39,120.0
1591,C6,213.0,0.25,50,120.0
1592,E-6,213.0,0.25,50,120.0
1593,A5,213.5,0.375,46,120.0
1594,C6,213.5,0.375,46,120.0
1595,F4,213.5,0.746,37,120.0
1596,F3,213.5,0.746,37,120.0
1597,C6,213.875,0.094,46,120.0
1598,E-6,213.875,0.094,46,120.0
1599,C6,214.0,0.5,58,120.0
1600,E-6,214.0,0.5,58,120.0
1601,E-5,214.25,0.5,39,120.0
1602,F3,214.25,0.25,34,120.0
1603,F4,214.5,0.25,39,120.0
1604,A5,214.5,0.25,50,120.0
1605,C6,214.5,0.25,50,120.0
1606,A5,215.0,0.375,46,120.0
1607,C6,215.0,0.375,46,120.0
1608,F2,215.0,0.746,33,120.0
1609,F3,215.0,0.746,33,120.0
1610,C#6,215.375,0.094,46,120.0
1611,F6,215.375,0.094,46,120.0
1612,D6,215.5,0.5,58,120.0
1613,F6,215.5,0.5,58,120.0
1614,F5,215.75,0.5,39,120.0
1615,F2,215.75,0.25,34,120.0
1616,F3,216.0,0.25,39,120.0
1617,B-5,216.0,0.25,50,120.0
1618,D6,216.0,0.25,50,120.0
1619,A4,216.5,0.375,42,120.0
1620,C5,216.5,0.375,42,120.0
1621,C4,216.5,0.99,32,120.0
1622,E-4,216.5,0.99,32,120.0
1623,F#3,216.5,0.99,32,120.0
1624,C5,216.875,0.094,41,120.0
1625,E-5,216.875,0.094,41,120.0
1626,C5,217.0,1.0,51,120.0
1627,E-5,217.0,1.0,51,120.0
1628,F#3,217.5,0.5,30,120.0
1629,C4,217.5,0.5,30,120.0
1630,E-4,217.5,0.5,30,120.0
1631,B-4,218.0,0.5,44,120.0
1632,D5,218.0,0.5,44,120.0
1633,D4,218.0,0.5,30,120.0
1634,G3,218.0,0.5,30,120.0
1635,B-3,218.0,0.5,30,120.0
1636,A4,218.5,0.5,42,120.0
1637,C5,218.5,0.5,42,120.0
1638,A3,218.5,0.25,31,120.0
1639,C4,218.5,0.25,31,120.0
1640,A2,218.75,0.25,28,120.0
1641,G4,219.0,0.5,42,120.0
1642,B-4,219.0,0.5,42,120.0
1643,B-3,219.0,0.5,30,120.0
1644,G3,219.0,0.5,30,120.0
1645,B-2,219.0,0.5,30,120.0
1646,B2,219.5,0.5,28,120.0
1647,F4,219.5,1.0,40,120.0
1648,A4,219.5,1.0,40,120.0
1649,F3,219.5,1.0,30,120.0
1650,A3,219.5,1.0,30,120.0
1651,C3,220.0,1.0,28,120.0
1652,E4,220.5,0.5,36,120.0
1653,G4,220.5,0.5,36,120.0
1654,G3,220.5,0.5,30,120.0
1655,E3,220.5,0.5,30,120.0
1656,G4,221.0,1.5,32,120.0
1657,C4,221.0,1.0,32,120.0
1658,E-4,221.0,1.0,35,120.0
1659,C5,221.0,1.0,35,120.0
1660,E-3,221.0,0.5,30,120.0
1661,G3,221.0,0.5,30,120.0
1662,G3,221.5,1.0,32,120.0
1663,B3,222.0,0.5,30,120.0
1664,D4,222.0,0.5,35,120.0
1665,B4,222.0,0.5,35,120.0
1666,B4,224.0,0.375,40,120.0
1667,D5,224.375,0.113,40,120.0
1668,D5,224.5,0.5,49,120.0
1669,B4,225.0,0.25,44,120.0
1670,D3,225.5,0.75,33,120.0
1671,B3,225.5,0.375,40,120.0
1672,G1,225.5,0.375,32,120.0
1673,G2,225.5,1.5,27,120.0
1674,D4,225.875,0.113,40,120.0
1675,B1,225.875,0.113,32,120.0
1676,D4,226.0,0.5,49,120.0
1677,B1,226.0,0.5,40,120.0
1678,D3,226.25,0.5,33,120.0
1679,B3,226.5,0.25,44,120.0
1680,G1,226.5,0.25,35,120.0
1681,C6,227.0,0.375,46,120.0
1682,C5,227.0,0.375,36,120.0
1683,E-6,227.375,0.113,46,120.0
1684,E-5,227.375,0.113,36,120.0
1685,E-6,227.5,0.5,56,120.0
1686,E-5,227.5,0.5,46,120.0
1687,C6,228.0,0.25,50,120.0
1688,C5,228.0,0.25,40,120.0
1689,D5,228.5,0.375,46,120.0
1690,B5,228.5,0.375,46,120.0
1691,G4,228.5,0.75,37,120.0
1692,G3,228.5,0.75,37,120.0
1693,F5,228.875,0.094,46,120.0
1694,D6,228.875,0.094,46,120.0
1695,F5,229.0,0.5,58,120.0
1696,D6,229.0,0.5,58,120.0
1697,G3,229.25,0.25,34,120.0
1698,G4,229.5,0.25,40,120.0
1699,D5,229.5,0.25,52,120.0
1700,B5,229.5,0.25,52,120.0
1701,D5,230.0,0.375,55,120.0
1702,B5,230.0,0.375,55,120.0
1703,C4,230.0,0.75,44,120.0
1704,C3,230.0,0.75,44,120.0
1705,G5,230.375,0.094,55,120.0
1706,E-6,230.375,0.094,55,120.0
1707,G5,230.5,0.5,69,120.0
1708,E-6,230.5,0.5,69,120.0
1709,C3,230.75,0.25,55,120.0
1710,C4,231.0,0.25,64,120.0
1711,E-5,231.0,0.25,62,120.0
1712,C6,231.0,0.25,62,120.0
1713,A5,231.5,0.375,70,120.0
1714,C6,231.5,0.375,70,120.0
1715,F2,231.5,0.75,66,120.0
1716,F3,231.5,0.75,66,120.0
1717,C6,231.875,0.113,74,120.0
1718,A6,231.875,0.113,74,120.0
1719,C6,232.0,0.5,93,120.0
1720,A6,232.0,0.5,93,120.0
1721,F2,232.25,0.25,70,120.0
1722,F3,232.5,0.125,78,120.0
1723,A5,232.5,0.125,85,120.0
1724,F6,232.5,0.125,85,120.0
1725,B-5,233.0,0.125,108,120.0
1726,B-6,233.0,0.125,108,120.0
1727,B-1,233.0,0.125,75,120.0
1728,B-2,233.0,0.125,75,120.0
1729,B-5,233.5,0.25,108,120.0
1730,B-6,233.5,0.25,108,120.0
1731,B-1,233.5,0.25,75,120.0
1732,B-2,233.5,0.25,75,120.0
1733,B3,234.5,0.125,32,120.0
1734,B4,234.5,0.125,32,120.0
1735,B1,234.5,0.125,22,120.0
1736,B2,234.5,0.125,22,120.0
1737,B3,235.0,0.25,32,120.0
1738,B4,235.0,0.25,32,120.0
1739,B1,235.0,0.25,22,120.0
1740,B2,235.0,0.25,22,120.0
1741,B-5,236.0,0.125,108,120.0
1742,B-6,236.0,0.125,108,120.0
1743,B-1,236.0,0.125,75,120.0
1744,B-2,236.0,0.125,75,120.0
1745,B-5,236.5,0.25,108,120.0
1746,B-6,236.5,0.25,108,120.0
1747,B-1,236.5,0.25,75,120.0
1748,B-2,236.5,0.25,75,120.0
1749,B3,237.5,0.125,28,120.0
1750,B4,237.5,0.125,28,120.0
1751,B1,237.5,0.125,19,120.0
1752,B2,237.5,0.125,19,120.0
1753,B3,238.0,0.25,28,120.0
1754,B4,238.0,0.25,28,120.0
1755,B1,238.0,0.25,18,120.0
1756,B2,238.0,0.25,18,120.0
1757,B-3,239.0,0.125,26,120.0
1758,B-4,239.0,0.125,26,120.0
1759,B-1,239.0,0.125,18,120.0
1760,B-2,239.0,0.125,18,120.0
1761,B-3,239.5,0.25,24,120.0
1762,B-4,239.5,0.25,24,120.0
1763,B-1,239.5,0.25,18,120.0
1764,B-2,239.5,0.25,18,120.0
1765,D4,240.5,0.375,31,120.0
1766,F#4,240.875,0.119,28,120.0
1767,F#4,241.0,0.5,33,120.0
1768,D4,241.5,0.25,28,120.0
1769,B3,242.0,0.125,25,120.0
1770,B4,242.0,0.125,25,120.0
1771,B1,242.0,0.125,17,120.0
1772,B2,242.0,0.125,17,120.0
1773,B3,242.5,0.25,24,120.0
1774,B4,242.5,0.25,24,120.0
1775,B1,242.5,0.25,16,120.0
1776,B2,242.5,0.25,16,120.0
1777,B3,243.5,0.125,25,120.0
1778,B4,243.5,0.125,25,120.0
1779,B1,243.5,0.125,17,120.0
1780,B2,243.5,0.125,17,120.0
1781,B3,244.0,0.25,24,120.0
1782,B4,244.0,0.25,24,120.0
1783,B1,244.0,0.25,16,120.0
1784,B2,244.0,0.25,16,120.0
1785,B3,245.0,0.248,42,120.0
1786,B4,245.0,0.248,42,120.0
1787,B1,245.0,0.248,28,120.0
1788,B2,245.0,0.248,28,120.0
1789,B3,245.5,0.496,43,120.0
1790,B4,245.5,0.496,43,120.0
1791,B1,245.5,0.496,38,120.0
1792,B2,245.5,0.496,38,120.0
1793,B3,246.0,0.496,47,120.0
1794,B4,246.0,0.496,47,120.0
1795,B1,246.0,0.496,42,120.0
1796,B2,246.0,0.496,42,120.0
1797,B3,246.5,0.496,50,120.0
1798,B4,246.5,0.496,50,120.0
1799,B1,246.5,0.496,46,120.0
1800,B2,246.5,0.496,46,120.0
1801,B3,247.0,0.496,54,120.0
1802,B4,247.0,0.496,54,120.0
1803,B1,247.0,0.496,50,120.0
1804,B2,247.0,0.496,50,120.0
1805,B3,247.5,0.496,60,120.0
1806,B4,247.5,0.496,60,120.0
1807,B1,247.5,0.496,56,120.0
1808,B2,247.5,0.496,56,120.0
1809,B4,248.0,0.496,66,120.0
1810,B5,248.0,0.496,66,120.0
1811,B1,248.0,0.496,60,120.0
1812,B2,248.0,0.496,60,120.0
1813,B4,248.5,0.496,72,120.0
1814,B5,248.5,0.496,72,120.0
1815,B1,248.5,0.496,66,120.0
1816,B2,248.5,0.496,66,120.0
1817,B4,249.0,0.496,80,120.0
1818,B5,249.0,0.496,80,120.0
1819,B1,249.0,0.496,71,120.0
1820,B2,249.0,0.496,71,120.0
1821,B4,249.5,0.496,88,120.0
1822,B5,249.5,0.496,88,120.0
1823,B1,249.5,0.496,76,120.0
1824,B2,249.5,0.496,76,120.0
1825,B5,250.0,0.496,89,120.0
1826,B6,250.0,0.496,89,120.0
1827,B1,250.0,0.496,74,120.0
1828,B2,250.0,0.496,74,120.0
1829,B5,250.5,0.496,90,120.0
1830,B6,250.5,0.496,90,120.0
1831,B1,250.5,0.496,76,120.0
1832,B2,250.5,0.496,76,120.0
1833,B5,251.0,0.496,90,120.0
1834,B6,251.0,0.496,90,120.0
1835,B1,251.0,0.496,78,120.0
1836,B2,251.0,0.496,78,120.0
1837,B6,251.5,0.496,96,120.0
1838,B5,251.5,0.496,96,120.0
1839,B1,251.5,0.496,79,120.0
1840,B2,251.5,0.496,79,120.0
1841,B6,252.0,0.496,91,120.0
1842,B5,252.0,0.496,91,120.0
1843,B1,252.0,0.496,76,120.0
1844,B2,252.0,0.496,76,120.0
1845,B6,252.5,0.5,92,120.0
1846,B5,252.5,0.5,92,120.0
1847,B1,252.5,0.5,76,120.0
1848,B2,252.5,0.5,76,120.0
1849,B-5,253.0,0.25,100,120.0
1850,B-6,253.0,0.25,100,120.0
1851,B-1,253.0,0.25,92,120.0
1852,B-2,253.0,0.25,92,120.0
1853,B-5,253.5,0.25,100,120.0
1854,B-6,253.5,0.25,100,120.0
1855,B-1,253.5,0.25,92,120.0
1856,B-2,253.5,0.25,92,120.0
1857,D4,254.5,0.375,40,120.0
1858,B-3,254.5,0.375,32,120.0
1859,F4,254.875,0.113,40,120.0
1860,F3,254.875,0.113,32,120.0
1861,F4,255.0,0.5,49,120.0
1862,A3,255.0,0.5,40,120.0
1863,C4,255.25,0.5,46,120.0
1864,B-3,255.5,0.25,35,120.0
1865,F3,255.5,0.25,38,120.0
1866,D4,255.5,0.25,38,120.0
1867,D5,255.979,0.375,40,120.0
1868,B-4,255.979,0.375,32,120.0
1869,F5,256.354,0.113,40,120.0
1870,F4,256.354,0.113,32,120.0
1871,F5,256.479,0.5,49,120.0
1872,A4,256.479,0.5,40,120.0
1873,C5,256.729,0.5,33,120.0
1874,B-4,256.979,0.25,35,120.0
1875,F4,256.979,0.25,38,120.0
1876,D5,256.979,0.25,38,120.0
1877,D6,257.494,0.375,34,120.0
1878,B-5,257.494,0.375,27,120.0
1879,F6,257.869,0.113,34,120.0
1880,F5,257.869,0.113,27,120.0
1881,F6,257.994,0.5,41,120.0
1882,A5,257.994,0.5,34,120.0
1883,C6,258.244,0.5,35,120.0
1884,B-5,258.494,0.25,29,120.0
1885,F5,258.494,0.25,32,120.0
1886,D6,258.494,0.25,32,120.0
,note_name,start_time,duration,velocity,tempo
0,A3,0.0,1.5,42,46.0
1,A1,0.0,1.5,26,46.0
2,A2,0.0,1.5,26,46.0
3,C#4,1.5,1.5,40,46.0
4,C#2,1.5,1.5,26,46.0
5,C#3,1.5,1.5,26,46.0
6,F#4,3.0,1.5,40,46.0
7,C#4,3.0,1.5,40,46.0
8,C#5,3.0,1.0,44,46.0
9,A4,3.0,1.0,44,46.0
10,F#2,3.0,1.5,31,46.0
11,C#3,3.0,1.5,31,46.0
12,F#3,3.0,1.5,31,46.0
13,A4,4.0,0.5,42,46.0
14,C#4,4.5,0.5,43,46.0
15,A4,4.5,0.5,43,46.0
16,F#2,4.5,0.5,31,46.0
17,C#3,4.5,0.5,31,46.0
18,F#3,4.5,0.5,31,46.0
19,C#4,5.0,0.5,38,46.0
20,F#4,5.0,0.5,38,46.0
21,A2,5.0,0.5,28,46.0
22,C#3,5.0,0.5,28,46.0
23,A3,5.0,0.5,28,46.0
24,B3,5.5,0.5,36,46.0
25,F4,5.5,0.5,36,46.0
26,G#4,5.5,0.5,36,46.0
27,C#4,5.5,0.5,36,46.0
28,G#2,5.5,0.5,28,46.0
29,C#3,5.5,0.5,28,46.0
30,G#3,5.5,0.5,28,46.0
31,A3,6.0,1.5,44,46.0
32,F#4,6.0,1.5,44,46.0
33,A4,6.0,1.5,44,46.0
34,C#4,6.0,1.5,44,46.0
35,F#2,6.0,1.5,30,46.0
36,C#3,6.0,1.5,30,46.0
37,F#3,6.0,1.5,30,46.0
38,B3,7.5,1.0,50,46.0
39,B4,7.5,1.0,50,46.0
40,F#4,7.5,1.0,50,46.0
41,D2,7.5,1.0,36,46.0
42,D3,7.5,1.0,36,46.0
43,F#4,8.5,0.496,49,46.0
44,D4,8.5,0.496,49,46.0
45,D5,8.5,0.496,49,46.0
46,B1,8.5,0.496,37,46.0
47,B2,8.5,0.496,37,46.0
48,D4,9.0,1.0,55,46.0
49,D5,9.0,1.0,55,46.0
50,F#4,9.0,1.0,55,46.0
51,B1,9.0,1.0,42,46.0
52,B2,9.0,1.0,42,46.0
53,F#4,10.0,0.496,51,46.0
54,C#5,10.0,0.496,51,46.0
55,C#4,10.0,0.496,51,46.0
56,A1,10.0,0.496,38,46.0
57,A2,10.0,0.496,38,46.0
58,F#4,10.5,0.5,57,46.0
59,C#5,10.5,0.5,57,46.0
60,C#4,10.5,0.5,57,46.0
61,A1,10.5,0.5,44,46.0
62,A2,10.5,0.5,44,46.0
63,F4,11.0,0.5,52,46.0
64,B4,11.0,0.5,52,46.0
65,C#5,11.0,0.5,52,46.0
66,F5,11.0,0.5,52,46.0
67,G#1,11.0,0.5,42,46.0
68,G#2,11.0,0.5,42,46.0
69,C#5,11.5,0.5,57,46.0
70,A4,11.5,0.5,57,46.0
71,F#4,11.5,0.5,57,46.0
72,F#5,11.5,0.5,57,46.0
73,F#1,11.5,0.5,44,46.0
74,F#2,11.5,0.5,44,46.0
75,G#5,12.0,1.5,65,46.0
76,C#5,12.0,1.5,65,46.0
77,G#4,12.0,1.5,65,46.0
78,F1,12.0,1.5,44,46.0
79,F2,12.0,1.5,44,46.0
80,D5,13.5,1.5,46,46.0
81,B4,13.5,1.5,46,46.0
82,G#4,13.5,1.5,46,46.0
83,B3,13.5,1.5,32,46.0
84,G#3,13.5,1.5,32,46.0
85,F3,13.5,1.5,32,46.0
86,D4,13.5,1.5,32,46.0
87,G#4,15.0,1.5,45,46.0
88,B4,15.0,1.5,45,46.0
89,D5,15.0,1.5,45,46.0
90,F1,15.0,1.5,31,46.0
91,F2,15.0,1.5,31,46.0
92,D4,16.0,0.5,42,46.0
93,C#4,16.5,1.0,38,46.0
94,A4,16.5,1.0,38,46.0
95,C#5,16.5,1.0,38,46.0
96,F#1,16.5,1.0,28,46.0
97,F#2,16.5,1.0,28,46.0
98,B3,17.5,0.496,37,46.0
99,D4,17.5,0.496,37,46.0
100,F4,17.5,0.496,37,46.0
101,B4,17.5,0.496,37,46.0
102,G#1,17.5,0.496,28,46.0
103,G#2,17.5,0.496,28,46.0
104,B3,18.0,1.485,42,46.0
105,D4,18.0,1.485,42,46.0
106,F4,18.0,1.485,42,46.0
107,B4,18.0,1.485,42,46.0
108,G#1,18.0,1.485,32,46.0
109,G#2,18.0,1.485,32,46.0
110,B3,19.5,0.5,41,46.0
111,F4,19.5,0.5,41,46.0
112,D4,19.5,0.5,41,46.0
113,B4,19.5,0.5,41,46.0
114,G#1,19.5,0.5,32,46.0
115,G#2,19.5,0.5,32,46.0
116,F#4,20.0,0.5,36,46.0
117,A3,20.0,0.5,36,46.0
118,C#4,20.0,0.5,36,46.0
119,A4,20.0,0.5,36,46.0
120,A1,20.0,0.5,28,46.0
121,A2,20.0,0.5,28,46.0
122,G#3,20.5,0.5,36,46.0
123,D4,20.5,0.5,36,46.0
124,F#4,20.5,0.5,36,46.0
125,G#4,20.5,0.5,36,46.0
126,B1,20.5,0.5,28,46.0
127,B2,20.5,0.5,28,46.0
128,F#4,21.0,0.99,42,46.0
129,G#3,21.0,0.99,42,46.0
130,E-4,21.0,0.99,42,46.0
131,G#4,21.0,0.99,42,46.0
132,C2,21.0,0.99,32,46.0
133,C3,21.0,0.99,32,46.0
134,E-4,22.0,0.496,38,46.0
135,G#3,22.0,0.496,38,46.0
136,F#4,22.0,0.496,38,46.0
137,G#4,22.0,0.496,38,46.0
138,C2,22.0,0.496,30,46.0
139,C3,22.0,0.496,30,46.0
140,E-4,22.5,0.5,47,46.0
141,F#4,22.5,0.5,47,46.0
142,G#3,22.5,0.5,47,46.0
143,G#4,22.5,0.5,47,46.0
144,C2,22.5,0.496,36,46.0
145,C3,22.5,0.496,36,46.0
146,F#4,23.0,0.5,42,46.0
147,E-4,23.0,0.5,42,46.0
148,A3,23.0,0.5,42,46.0
149,A4,23.0,0.5,42,46.0
150,C2,23.0,0.496,34,46.0
151,C3,23.0,0.496,34,46.0
152,F#3,23.5,0.5,44,46.0
153,A3,23.5,0.5,44,46.0
154,E-4,23.5,0.5,44,46.0
155,F#4,23.5,0.5,44,46.0
156,C2,23.5,0.5,36,46.0
157,C3,23.5,0.5,36,46.0
158,E-4,24.0,0.5,44,46.0
159,F#3,24.0,1.5,47,46.0
160,A3,24.0,1.5,47,46.0
161,F#4,24.0,1.5,47,46.0
162,C#2,24.0,1.5,36,46.0
163,C#3,24.0,1.5,36,46.0
164,C4,24.5,0.5,45,46.0
165,C#4,25.0,0.5,46,46.0
166,G#3,25.5,0.5,43,46.0
167,F4,25.5,0.5,43,46.0
168,F3,25.5,0.5,43,46.0
169,C#4,25.5,0.5,43,46.0
170,C#2,25.5,0.5,30,46.0
171,C#3,25.5,0.5,30,46.0
172,G#4,26.0,0.5,57,46.0
173,C#3,26.0,0.5,33,46.0
174,F3,26.0,0.5,33,46.0
175,G#3,26.0,0.5,33,46.0
176,B4,26.5,0.5,59,46.0
177,C#3,26.5,0.5,33,46.0
178,G#3,26.5,0.5,33,46.0
179,B3,26.5,0.5,33,46.0
180,F4,27.0,0.5,50,46.0
181,D4,27.0,1.0,55,46.0
182,B4,27.0,1.0,55,46.0
183,C#3,27.0,1.0,40,46.0
184,B3,27.0,1.0,40,46.0
185,G#4,27.5,0.5,50,46.0
186,C#4,28.0,0.496,47,46.0
187,A4,28.0,0.496,47,46.0
188,F#4,28.0,0.496,47,46.0
189,C#3,28.0,0.496,31,46.0
190,A3,28.0,0.496,31,46.0
191,A4,28.5,0.5,51,46.0
192,C#4,28.5,0.5,51,46.0
193,F#4,28.5,0.5,51,46.0
194,C#3,28.5,0.5,40,46.0
195,A3,28.5,0.5,40,46.0
196,F4,29.0,0.5,44,46.0
197,G#4,29.0,0.5,44,46.0
198,B3,29.0,0.5,44,46.0
199,D4,29.0,0.5,44,46.0
200,C#3,29.0,0.5,35,46.0
201,G#3,29.0,0.5,35,46.0
202,A3,29.5,0.25,42,46.0
203,F#4,29.5,0.5,46,46.0
204,E-4,29.5,0.5,46,46.0
205,C#3,29.5,0.5,35,46.0
206,F#3,29.5,0.5,35,46.0
207,C4,29.75,0.25,42,46.0
208,E-4,30.0,1.0,52,46.0
209,F#4,30.0,1.0,52,46.0
210,A3,30.0,1.0,52,46.0
211,C4,30.0,1.0,52,46.0
212,C#3,30.0,1.0,40,46.0
213,F#3,30.0,1.0,40,46.0
214,F4,31.0,0.5,47,46.0
215,C#4,31.0,0.5,47,46.0
216,G#3,31.0,0.5,47,46.0
217,C#3,31.0,0.5,31,46.0
218,F3,31.0,0.5,31,46.0
219,F4,31.5,0.5,66,46.0
220,C#3,31.5,1.0,36,46.0
221,F3,31.5,0.5,49,46.0
222,G#4,32.0,0.5,60,46.0
223,G#3,32.0,0.5,45,46.0
224,B4,32.5,0.25,63,46.0
225,B3,32.5,0.25,38,46.0
226,F4,32.5,1.0,42,46.0
227,G#4,32.5,1.0,42,46.0
228,G#3,32.5,0.5,32,46.0
229,C#3,32.5,0.5,32,46.0
230,D5,32.75,0.248,63,46.0
231,D4,32.75,0.248,38,46.0
232,B4,33.0,1.0,61,46.0
233,D5,33.0,1.0,61,46.0
234,B3,33.0,1.0,38,46.0
235,C#3,33.0,1.0,38,46.0
236,D4,33.0,1.0,38,46.0
237,F4,33.5,0.5,36,46.0
238,G#4,33.5,0.5,36,46.0
239,F#4,34.0,0.496,50,46.0
240,C#5,34.0,0.496,50,46.0
241,A4,34.0,0.496,50,46.0
242,A3,34.0,0.496,33,46.0
243,C#3,34.0,0.496,33,46.0
244,C#4,34.0,0.496,33,46.0
245,C#5,34.5,0.5,50,46.0
246,A4,34.5,0.5,50,46.0
247,C#3,34.5,0.5,36,46.0
248,C#4,34.5,0.5,36,46.0
249,A3,34.5,0.5,36,46.0
250,F#4,34.75,0.25,46,46.0
251,D4,35.0,0.5,41,46.0
252,G#4,35.0,0.5,41,46.0
253,B4,35.0,0.5,41,46.0
254,F4,35.0,0.5,41,46.0
255,C#3,35.0,0.5,32,46.0
256,B3,35.0,0.5,32,46.0
257,G#3,35.0,0.5,32,46.0
258,C4,35.5,0.496,41,46.0
259,F#4,35.5,0.496,41,46.0
260,A4,35.5,0.496,41,46.0
261,E-4,35.5,0.496,41,46.0
262,C#3,35.5,0.496,31,46.0
263,A3,35.5,0.496,31,46.0
264,F#3,35.5,0.496,31,46.0
265,F#4,36.0,1.0,50,46.0
266,A4,36.0,1.0,50,46.0
267,F#3,36.0,1.0,34,46.0
268,C#3,36.0,1.0,34,46.0
269,A3,36.0,1.0,34,46.0
270,C4,36.5,0.5,44,46.0
271,E-4,36.5,0.5,44,46.0
272,C#4,37.0,0.496,40,46.0
273,F4,37.0,0.496,40,46.0
274,G#4,37.0,0.496,40,46.0
275,F3,37.0,0.496,26,46.0
276,C#3,37.0,0.496,26,46.0
277,G#3,37.0,0.496,26,46.0
278,G#4,37.5,1.0,38,46.0
279,F4,37.5,1.0,38,46.0
280,C#4,37.5,1.0,38,46.0
281,F3,37.5,1.0,28,46.0
282,C#3,37.5,1.0,28,46.0
283,G#3,37.5,1.0,28,46.0
284,E4,38.5,0.375,36,46.0
285,G4,38.5,0.375,36,46.0
286,C#4,38.5,0.375,36,46.0
287,G3,38.5,0.375,22,46.0
288,E3,38.5,0.375,22,46.0
289,C#3,38.5,0.375,22,46.0
290,B-3,38.5,0.375,22,46.0
291,G4,38.875,0.125,53,46.0
292,B5,39.0,1.0,65,46.0
293,D3,39.0,1.479,36,46.0
294,G3,39.0,1.479,36,46.0
295,B3,39.0,1.479,36,46.0
296,A5,40.0,0.5,62,46.0
297,G4,40.5,1.5,55,46.0
298,G5,40.5,1.0,65,46.0
299,G3,40.5,1.5,30,46.0
300,D4,40.5,1.0,36,46.0
301,F#5,41.5,0.5,64,46.0
302,D4,41.5,0.5,30,46.0
303,G4,42.0,1.5,55,46.0
304,E5,42.0,1.0,65,46.0
305,E4,42.0,1.5,36,46.0
306,C4,42.0,1.5,36,46.0
307,F#5,43.0,0.5,63,46.0
308,G4,43.5,1.0,60,46.0
309,G5,43.5,1.0,60,46.0
310,B3,43.5,1.0,32,46.0
311,D4,43.5,1.0,32,46.0
312,F#4,44.5,0.496,64,46.0
313,D4,44.5,0.496,32,46.0
314,F#4,45.0,0.5,60,46.0
315,D4,45.0,0.5,35,46.0
316,C#4,45.5,0.5,31,46.0
317,F#4,45.5,0.5,49,46.0
318,A4,45.5,0.5,49,46.0
319,F#4,46.0,0.5,46,46.0
320,A4,46.0,0.5,46,46.0
321,C#5,46.0,0.5,46,46.0
322,C#3,46.0,0.5,27,46.0
323,F#3,46.0,0.5,27,46.0
324,A3,46.0,0.5,27,46.0
325,C#4,46.0,0.5,27,46.0
326,C#5,46.5,0.99,48,46.0
327,F4,46.5,0.99,48,46.0
328,G#4,46.5,0.99,48,46.0
329,C#3,46.5,0.99,30,46.0
330,F3,46.5,0.99,30,46.0
331,G#3,46.5,0.99,30,46.0
332,C#4,46.5,0.99,30,46.0
333,C#5,47.5,0.496,38,46.0
334,G#4,47.5,0.496,38,46.0
335,F4,47.5,0.496,38,46.0
336,C#3,47.5,0.496,28,46.0
337,F3,47.5,0.496,28,46.0
338,G#3,47.5,0.496,28,46.0
339,C#4,47.5,0.496,28,46.0
340,G#4,48.0,1.0,43,46.0
341,F4,48.0,1.0,43,46.0
342,C#5,48.0,1.0,43,46.0
343,C#3,48.0,1.0,30,46.0
344,F3,48.0,1.0,30,46.0
345,G#3,48.0,1.0,30,46.0
346,C#4,48.0,1.0,30,46.0
347,F#4,49.0,0.496,40,46.0
348,A4,49.0,0.496,40,46.0
349,F#3,49.0,0.496,29,46.0
350,A3,49.0,0.496,29,46.0
351,C#4,49.0,0.496,29,46.0
352,F#4,49.5,0.496,42,46.0
353,A4,49.5,0.496,42,46.0
354,F#3,49.5,0.496,30,46.0
355,A3,49.5,0.496,30,46.0
356,C#4,49.5,0.496,30,46.0
357,A3,50.0,0.5,34,46.0
358,C#4,50.0,0.5,41,46.0
359,F#4,50.0,0.5,41,46.0
360,C#4,50.5,0.5,44,46.0
361,G#4,50.5,0.25,44,46.0
362,F4,50.5,0.25,44,46.0
363,G#3,50.5,0.25,33,46.0
364,B3,50.5,0.25,33,46.0
365,F#4,50.75,0.25,47,46.0
366,A4,50.75,0.25,47,46.0
367,F#3,50.75,0.25,38,46.0
368,A3,50.75,0.25,38,46.0
369,C#2,51.0,3.0,43,46.0
370,G#4,51.0,1.0,51,46.0
371,B4,51.0,1.0,51,46.0
372,D4,51.5,0.5,50,46.0
373,F2,51.5,0.5,38,46.0
374,F#2,52.0,0.5,39,46.0
375,C#4,52.0,0.5,51,46.0
376,F#4,52.0,0.5,51,46.0
377,A4,52.0,0.5,51,46.0
378,A4,52.5,0.5,60,46.0
379,G#2,52.5,0.75,42,46.0
380,B3,52.5,1.0,51,46.0
381,F4,52.5,1.0,51,46.0
382,D4,52.5,1.0,51,46.0
383,G#4,53.0,0.5,57,46.0
384,A2,53.25,0.25,45,46.0
385,B2,53.5,0.25,48,46.0
386,F#4,53.5,0.5,48,46.0
387,E-4,53.5,0.5,48,46.0
388,A3,53.5,0.5,48,46.0
389,C3,53.75,0.25,50,46.0
390,C#4,54.0,1.5,50,46.0
391,A3,54.0,0.5,55,46.0
392,F#4,54.0,0.5,55,46.0
393,C#2,54.0,1.75,40,46.0
394,C#3,54.0,1.75,40,46.0
395,G3,54.5,0.5,53,46.0
396,E4,54.5,0.5,53,46.0
397,G#3,55.0,0.496,53,46.0
398,F4,55.0,0.496,53,46.0
399,G#3,55.5,0.75,53,46.0
400,C#4,55.5,0.75,53,46.0
401,F4,55.5,0.75,53,46.0
402,C#3,55.75,0.25,45,46.0
403,F3,56.0,0.25,45,46.0
404,G#4,56.25,0.25,60,46.0
405,G#3,56.25,0.25,45,46.0
406,B4,56.5,0.25,63,46.0
407,B3,56.5,0.25,38,46.0
408,D5,56.75,0.248,66,46.0
409,D4,56.75,0.248,38,46.0
410,D5,57.0,1.0,71,46.0
411,G#4,57.0,0.5,40,46.0
412,B4,57.0,0.5,40,46.0
413,F4,57.0,0.5,40,46.0
414,D4,57.0,0.5,40,46.0
415,C#2,57.0,0.485,40,46.0
416,C#3,57.0,0.485,40,46.0
417,F4,57.5,0.5,36,46.0
418,G#4,57.5,0.5,36,46.0
419,F2,57.5,0.5,34,46.0
420,F3,57.5,0.5,34,46.0
421,A4,58.0,0.5,51,46.0
422,C#5,58.0,0.5,51,46.0
423,C#3,58.0,0.5,33,46.0
424,F#2,58.0,0.5,33,46.0
425,F#3,58.0,0.5,33,46.0
426,C#5,58.5,0.5,55,46.0
427,F4,58.5,1.0,39,46.0
428,D4,58.5,1.0,39,46.0
429,G#4,58.5,1.0,39,46.0
430,G#2,58.5,0.75,36,46.0
431,G#3,58.5,0.75,36,46.0
432,C#3,58.5,0.75,36,46.0
433,B4,59.0,0.5,47,46.0
434,A3,59.25,0.25,42,46.0
435,A2,59.25,0.25,42,46.0
436,E-4,59.5,0.5,42,46.0
437,F#4,59.5,0.5,42,46.0
438,A4,59.5,0.5,42,46.0
439,B3,59.5,0.25,44,46.0
440,B2,59.5,0.25,44,46.0
441,C4,59.75,0.25,46,46.0
442,C3,59.75,0.25,46,46.0
443,C#3,60.0,1.0,32,46.0
444,F#4,60.0,1.0,50,46.0
445,A4,60.0,1.0,50,46.0
446,E-4,60.0,0.5,44,46.0
447,C4,60.0,0.5,44,46.0
448,C4,60.5,0.5,39,46.0
449,E-4,60.5,0.5,39,46.0
450,F#3,60.5,0.5,32,46.0
451,A3,60.5,0.5,32,46.0
452,C#4,61.0,0.5,40,46.0
453,F4,61.0,0.5,40,46.0
454,G#4,61.0,0.5,40,46.0
455,F3,61.0,0.5,26,46.0
456,C#3,61.0,0.5,26,46.0
457,G#3,61.0,0.5,26,46.0
458,F4,61.5,0.5,38,46.0
459,C#4,61.5,0.5,38,46.0
460,G#4,61.5,0.5,38,46.0
461,F3,61.5,0.5,28,46.0
462,C#3,61.5,0.5,28,46.0
463,G#3,61.5,0.5,28,46.0
464,E4,62.0,0.5,36,46.0
465,G4,62.0,0.5,36,46.0
466,B-3,62.0,0.5,22,46.0
467,E3,62.0,0.5,22,46.0
468,C#3,62.0,0.5,22,46.0
469,G3,62.0,0.5,22,46.0
470,D4,62.5,0.375,34,46.0
471,D3,62.5,0.5,23,46.0
472,G3,62.5,0.5,23,46.0
473,B3,62.5,0.5,23,46.0
474,G4,62.875,0.125,53,46.0
475,B5,63.0,1.0,65,46.0
476,B3,63.0,1.5,36,46.0
477,G2,63.0,1.5,36,46.0
478,D3,63.0,1.5,36,46.0
479,A5,63.985,0.496,60,46.0
480,A5,64.5,0.5,65,46.0
481,G3,64.5,1.5,32,46.0
482,B2,64.5,1.5,32,46.0
483,D4,64.5,1.5,32,46.0
484,G6,65.0,0.5,56,46.0
485,G5,65.0,0.5,56,46.0
486,F#5,65.5,0.496,59,46.0
487,F#6,65.5,0.496,59,46.0
488,F#6,66.0,0.5,64,46.0
489,F#5,66.0,0.5,64,46.0
490,C3,66.0,1.5,34,46.0
491,E4,66.0,1.5,34,46.0
492,G3,66.0,1.5,34,46.0
493,E5,66.5,0.5,62,46.0
494,E6,66.5,0.5,62,46.0
495,F#5,67.0,0.496,66,46.0
496,F#6,67.0,0.496,66,46.0
497,B2,67.5,1.0,39,46.0
498,F#6,67.5,0.5,69,46.0
499,F#5,67.5,0.5,69,46.0
500,G3,67.5,0.5,43,46.0
501,D4,67.5,0.5,43,46.0
502,G3,68.0,0.5,35,46.0
503,G6,68.0,0.75,66,46.0
504,G5,68.0,0.75,66,46.0
505,D3,68.5,0.5,40,46.0
506,F#3,68.5,0.5,40,46.0
507,F#5,68.75,0.248,60,46.0
508,F#4,68.75,0.248,60,46.0
509,F#4,69.0,0.5,54,46.0
510,F#5,69.0,0.5,54,46.0
511,D3,69.0,0.5,35,46.0
512,F#3,69.0,0.5,35,46.0
513,A5,69.5,0.5,52,46.0
514,A4,69.5,0.5,52,46.0
515,C#3,69.5,0.5,31,46.0
516,F#3,69.5,0.5,31,46.0
517,A3,69.5,0.5,31,46.0
518,C#6,70.0,0.496,59,46.0
519,C#5,70.0,0.496,59,46.0
520,C#3,70.0,0.496,27,46.0
521,F#3,70.0,0.496,27,46.0
522,A3,70.0,0.496,27,46.0
523,C#4,70.0,0.496,27,46.0
524,C#5,70.5,1.0,62,46.0
525,C#6,70.5,1.0,62,46.0
526,C#3,70.5,1.0,33,46.0
527,F3,70.5,1.0,33,46.0
528,G#3,70.5,1.0,33,46.0
529,C#4,70.5,1.0,33,46.0
530,C#6,71.5,0.496,57,46.0
531,C#5,71.5,0.496,57,46.0
532,F#3,71.5,0.496,29,46.0
533,A3,71.5,0.496,29,46.0
534,C#4,71.5,0.496,29,46.0
535,C#6,72.0,0.5,58,46.0
536,C#5,72.0,0.5,58,46.0
537,A3,72.0,0.5,35,46.0
538,F#3,72.0,0.5,35,46.0
539,C#4,72.0,0.5,35,46.0
540,B2,72.5,1.0,26,46.0
541,D4,72.5,0.5,34,46.0
542,D5,72.5,0.5,57,46.0
543,D6,72.5,0.5,57,46.0
544,G3,73.0,0.5,31,46.0
545,G4,73.0,0.5,52,46.0
546,G5,73.0,0.5,52,46.0
547,B3,73.5,0.5,39,46.0
548,B5,73.5,0.5,58,46.0
549,B4,73.5,0.5,58,46.0
550,C#2,74.0,0.5,26,46.0
551,C#3,74.0,1.0,31,46.0
552,C#4,74.0,0.5,52,46.0
553,C#5,74.0,0.5,52,46.0
554,F3,74.5,0.5,31,46.0
555,F4,74.5,0.5,52,46.0
556,F5,74.5,0.5,52,46.0
557,F#5,75.0,0.5,58,46.0
558,F#4,75.0,0.5,58,46.0
559,C#3,75.0,0.5,35,46.0
560,F#2,75.0,0.5,35,46.0
561,F#3,75.0,0.5,35,46.0
562,C#5,75.5,0.75,62,46.0
563,C#6,75.5,0.75,62,46.0
564,C#3,75.5,1.0,33,46.0
565,F2,75.5,1.0,33,46.0
566,G#3,75.5,1.0,33,46.0
567,G#4,76.25,0.25,45,46.0
568,G#5,76.25,0.25,45,46.0
569,A5,76.5,0.5,49,46.0
570,A4,76.5,0.5,49,46.0
571,C#3,76.5,0.5,30,46.0
572,F#2,76.5,0.5,30,46.0
573,F#3,76.5,0.5,30,46.0
574,C#3,77.0,1.0,20,46.0
575,A3,77.0,0.75,32,46.0
576,A4,77.0,0.75,50,46.0
577,A5,77.0,0.75,50,46.0
578,F3,77.75,0.25,22,46.0
579,F4,77.75,0.25,40,46.0
580,F5,77.75,0.25,40,46.0
581,F#2,78.5,0.25,26,46.0
582,C#4,79.0,0.25,22,46.0
583,A3,79.0,0.25,22,46.0
584,F#3,79.0,0.25,22,46.0
585,C#3,79.0,0.25,22,46.0
586,C#4,79.5,0.25,26,46.0
587,A3,79.5,0.25,26,46.0
588,F#3,79.5,0.25,26,46.0
589,C#3,79.5,0.25,26,46.0
590,F#2,80.0,0.25,26,46.0
591,C#4,80.5,0.25,22,46.0
592,A3,80.5,0.25,22,46.0
593,F#3,80.5,0.25,22,46.0
594,C#3,80.5,0.25,22,46.0
595,C#5,80.75,0.496,44,46.0
596,C#3,81.0,0.25,24,46.0
597,F#3,81.0,0.25,24,46.0
598,A3,81.0,0.25,24,46.0
599,C#4,81.0,0.25,24,46.0
600,C#5,81.25,0.496,44,46.0
601,F#2,81.5,0.25,26,46.0
602,C#5,81.75,0.496,44,46.0
603,F#5,82.0,0.496,55,46.0
604,C#4,82.0,0.25,22,46.0
605,A3,82.0,0.25,22,46.0
606,F#3,82.0,0.25,22,46.0
607,C#3,82.0,0.25,22,46.0
608,C#5,82.25,0.496,44,46.0
609,F#5,82.5,0.5,63,46.0
610,C#3,82.5,0.25,26,46.0
611,F#3,82.5,0.25,26,46.0
612,A3,82.5,0.25,26,46.0
613,C#4,82.5,0.25,26,46.0
614,C#5,82.75,0.496,44,46.0
615,A5,83.0,0.5,63,46.0
616,F#2,83.0,0.25,26,46.0
617,C#5,83.25,0.496,48,46.0
618,C#6,83.5,0.496,68,46.0
619,C#4,83.5,0.25,22,46.0
620,A3,83.5,0.25,22,46.0
621,F#3,83.5,0.25,22,46.0
622,C#3,83.5,0.25,22,46.0
623,C#5,83.75,0.25,50,46.0
624,C#6,84.0,1.0,71,46.0
625,F3,84.0,0.25,24,46.0
626,C#3,84.0,0.25,24,46.0
627,G#3,84.0,0.25,24,46.0
628,B3,84.0,0.25,24,46.0
629,C#4,84.0,0.25,24,46.0
630,F5,84.25,0.496,52,46.0
631,B5,84.25,0.496,52,46.0
632,G#2,84.5,0.25,26,46.0
633,F5,84.75,0.5,40,46.0
634,B5,84.75,0.5,40,46.0
635,E6,85.0,0.25,75,46.0
636,D4,85.0,0.25,22,46.0
637,B3,85.0,0.25,22,46.0
638,G#3,85.0,0.25,22,46.0
639,F3,85.0,0.25,22,46.0
640,D6,85.25,0.25,67,46.0
641,D6,85.5,0.5,73,46.0
642,F3,85.5,0.25,26,46.0
643,G#3,85.5,0.25,26,46.0
644,B3,85.5,0.25,26,46.0
645,D4,85.5,0.25,26,46.0
646,B4,85.75,0.496,44,46.0
647,F5,86.0,0.5,64,46.0
648,G#2,86.0,0.25,26,46.0
649,B4,86.25,0.496,44,46.0
650,B5,86.5,0.5,64,46.0
651,D4,86.5,0.25,22,46.0
652,B3,86.5,0.25,22,46.0
653,G#3,86.5,0.25,22,46.0
654,F3,86.5,0.25,22,46.0
655,B4,86.75,0.5,44,46.0
656,B5,87.0,0.5,74,46.0
657,F3,87.0,0.25,24,46.0
658,G#3,87.0,0.25,24,46.0
659,B3,87.0,0.25,24,46.0
660,D4,87.0,0.25,24,46.0
661,F4,87.25,0.496,44,46.0
662,B4,87.5,0.5,55,46.0
663,G#2,87.5,0.25,26,46.0
664,F4,87.75,0.496,39,46.0
665,C#5,88.0,0.25,63,46.0
666,D4,88.0,0.25,22,46.0
667,B3,88.0,0.25,22,46.0
668,G#3,88.0,0.25,22,46.0
669,F3,88.0,0.25,22,46.0
670,F4,88.25,0.496,37,46.0
671,D5,88.25,0.248,65,46.0
672,B4,88.5,0.25,40,46.0
673,D5,88.5,0.5,66,46.0
674,F3,88.5,0.25,26,46.0
675,G#3,88.5,0.25,26,46.0
676,B3,88.5,0.25,26,46.0
677,D4,88.5,0.25,26,46.0
678,F4,88.75,0.496,37,46.0
679,C#5,89.0,0.75,63,46.0
680,G#2,89.0,0.25,26,46.0
681,B4,89.25,0.496,40,46.0
682,F4,89.25,0.496,40,46.0
683,C#4,89.5,0.25,22,46.0
684,B3,89.5,0.25,22,46.0
685,G#3,89.5,0.25,22,46.0
686,F3,89.5,0.25,22,46.0
687,F4,89.75,0.25,52,46.0
688,B4,89.75,0.25,52,46.0
689,B4,90.0,0.25,63,46.0
690,C#3,90.0,0.25,24,46.0
691,F#3,90.0,0.25,24,46.0
692,A3,90.0,0.25,24,46.0
693,C#4,90.0,0.25,24,46.0
694,A4,90.25,0.5,54,46.0
695,F#2,90.5,0.25,26,46.0
696,C#5,90.75,0.5,63,46.0
697,C#4,91.0,0.25,22,46.0
698,A3,91.0,0.25,22,46.0
699,F#3,91.0,0.25,22,46.0
700,C#3,91.0,0.25,22,46.0
701,F#5,91.25,0.417,67,46.0
702,C#3,91.5,0.25,26,46.0
703,F#3,91.5,0.25,26,46.0
704,A3,91.5,0.25,26,46.0
705,C#4,91.5,0.25,26,46.0
706,A5,91.667,0.167,66,46.0
707,C#6,91.833,0.333,67,46.0
708,F#2,92.0,0.25,26,46.0
709,F#6,92.167,0.167,70,46.0
710,G#6,92.333,0.167,71,46.0
711,A6,92.5,0.167,75,46.0
712,C#4,92.5,0.25,22,46.0
713,A3,92.5,0.25,22,46.0
714,F#3,92.5,0.25,22,46.0
715,C#3,92.5,0.25,22,46.0
716,F#6,92.667,0.167,73,46.0
717,C#6,92.833,0.167,63,46.0
718,C#6,93.0,0.125,68,46.0
719,F3,93.0,0.25,26,46.0
720,C#3,93.0,0.25,26,46.0
721,G#3,93.0,0.25,26,46.0
722,B3,93.0,0.25,26,46.0
723,C#4,93.0,0.25,26,46.0
724,D6,93.125,0.125,63,46.0
725,C#6,93.25,1.0,60,46.0
726,D6,93.25,1.0,60,46.0
727,C#6,93.375,1.0,62,46.0
728,D6,93.375,1.0,62,46.0
729,G#2,93.5,0.25,30,46.0
730,C#6,93.5,1.0,64,46.0
731,D6,93.5,1.0,64,46.0
732,C#6,93.625,0.125,66,46.0
733,C6,93.75,0.125,69,46.0
734,C#6,93.875,0.125,71,46.0
735,E6,94.0,0.167,74,46.0
736,D4,94.0,0.25,26,46.0
737,B3,94.0,0.25,26,46.0
738,G#3,94.0,0.25,26,46.0
739,F3,94.0,0.25,26,46.0
740,C#6,94.167,0.167,69,46.0
741,D6,94.333,0.165,70,46.0
742,D6,94.5,0.167,76,46.0
743,F3,94.5,0.25,30,46.0
744,G#3,94.5,0.25,30,46.0
745,B3,94.5,0.25,30,46.0
746,D4,94.5,0.25,30,46.0
747,E5,94.667,0.167,62,46.0
748,F5,94.833,0.167,62,46.0
749,F5,95.0,0.167,70,46.0
750,G#2,95.0,0.25,29,46.0
751,D6,95.167,0.167,59,46.0
752,C#6,95.333,0.165,60,46.0
753,C#6,95.5,0.167,67,46.0
754,D4,95.5,0.25,23,46.0
755,B3,95.5,0.25,23,46.0
756,G#3,95.5,0.25,23,46.0
757,F3,95.5,0.25,23,46.0
758,B-5,95.667,0.167,58,46.0
759,B5,95.833,0.165,53,46.0
760,B5,96.0,0.125,59,46.0
761,F3,96.0,0.25,24,46.0
762,G#3,96.0,0.25,24,46.0
763,B3,96.0,0.25,24,46.0
764,D4,96.0,0.25,24,46.0
765,F4,96.125,0.125,46,46.0
766,F#4,96.25,0.125,47,46.0
767,G#4,96.375,0.125,48,46.0
768,A4,96.5,0.125,49,46.0
769,G#2,96.5,0.25,29,46.0
770,B-4,96.625,0.125,50,46.0
771,B4,96.75,0.125,51,46.0
772,C5,96.875,0.125,52,46.0
773,C#5,97.0,0.167,54,46.0
774,D4,97.0,0.25,26,46.0
775,B3,97.0,0.25,26,46.0
776,G#3,97.0,0.25,26,46.0
777,F3,97.0,0.25,26,46.0
778,D5,97.167,0.167,55,46.0
779,E-5,97.333,0.167,57,46.0
780,E5,97.5,0.167,58,46.0
781,F3,97.5,0.25,30,46.0
782,G#3,97.5,0.25,30,46.0
783,B3,97.5,0.25,30,46.0
784,D4,97.5,0.25,30,46.0
785,C#5,97.667,0.167,60,46.0
786,D5,97.833,0.165,61,46.0
787,D5,98.0,0.125,64,46.0
788,G#2,98.0,0.25,32,46.0
789,B5,98.125,0.125,62,46.0
790,G#5,98.25,0.125,56,46.0
791,F5,98.375,0.125,56,46.0
792,D5,98.5,0.125,62,46.0
793,C#4,98.5,0.25,27,46.0
794,B3,98.5,0.25,27,46.0
795,G#3,98.5,0.25,27,46.0
796,F3,98.5,0.25,27,46.0
797,C5,98.625,0.125,57,46.0
798,D5,98.75,0.125,55,46.0
799,C#5,98.875,0.125,55,46.0
800,C#5,99.0,0.5,57,46.0
801,F#3,99.0,0.25,31,46.0
802,A3,99.0,0.25,31,46.0
803,C#4,99.0,0.25,31,46.0
804,F#4,99.25,0.496,48,46.0
805,F#5,99.5,0.75,62,46.0
806,A2,99.5,0.25,32,46.0
807,F#4,99.75,0.5,48,46.0
808,C#4,100.0,0.25,27,46.0
809,A3,100.0,0.25,27,46.0
810,F#3,100.0,0.25,27,46.0
811,C#5,100.25,0.25,56,46.0
812,D5,100.5,1.0,62,46.0
813,F3,100.5,0.25,32,46.0
814,G#3,100.5,0.25,32,46.0
815,B3,100.5,0.25,32,46.0
816,D4,100.5,0.25,32,46.0
817,B4,100.75,0.496,40,46.0
818,F4,100.75,0.496,40,46.0
819,G#2,101.0,0.25,32,46.0
820,F4,101.25,0.496,40,46.0
821,B4,101.25,0.496,40,46.0
822,C#5,101.5,0.5,56,46.0
823,C#4,101.5,0.25,27,46.0
824,B3,101.5,0.25,27,46.0
825,G#3,101.5,0.25,27,46.0
826,F3,101.5,0.25,27,46.0
827,F4,101.75,0.25,40,46.0
828,B4,101.75,0.25,40,46.0
829,C#5,102.0,0.167,62,46.0
830,F#3,102.0,0.25,31,46.0
831,A3,102.0,0.25,31,46.0
832,C#4,102.0,0.25,31,46.0
833,C#6,102.167,0.167,57,46.0
834,G#5,102.333,0.167,57,46.0
835,B5,102.5,0.125,63,46.0
836,A2,102.5,0.25,32,46.0
837,A5,102.625,0.125,65,46.0
838,F5,102.75,0.125,68,46.0
839,F#5,102.875,0.125,70,46.0
840,G#5,103.0,0.125,71,46.0
841,C#3,103.0,0.25,27,46.0
842,C#4,103.0,0.25,27,46.0
843,A3,103.0,0.25,27,46.0
844,F#3,103.0,0.25,27,46.0
845,F#5,103.125,0.125,70,46.0
846,A5,103.25,0.083,68,46.0
847,F#5,103.333,0.083,67,46.0
848,C#5,103.419,0.083,65,46.0
849,E5,103.5,0.25,66,46.0
850,C#3,103.5,0.25,31,46.0
851,F3,103.5,0.25,31,46.0
852,G#3,103.5,0.25,31,46.0
853,B3,103.5,0.25,31,46.0
854,C#4,103.5,0.25,31,46.0
855,E-5,103.75,0.25,62,46.0
856,B4,103.75,0.496,48,46.0
857,F4,103.75,0.496,48,46.0
858,D5,104.0,0.25,62,46.0
859,G#2,104.0,0.25,32,46.0
860,D5,104.25,0.496,49,46.0
861,B4,104.25,0.496,49,46.0
862,F4,104.25,0.496,49,46.0
863,C#4,104.5,0.25,27,46.0
864,B3,104.5,0.25,27,46.0
865,G#3,104.5,0.25,27,46.0
866,F4,104.75,0.25,49,46.0
867,B4,104.75,0.25,49,46.0
868,C#5,104.75,0.25,49,46.0
869,C#5,105.0,0.75,60,46.0
870,A3,105.0,0.25,34,46.0
871,C#4,105.0,0.25,34,46.0
872,F#4,105.25,0.5,40,46.0
873,A2,105.5,0.25,35,46.0
874,F#5,105.75,0.496,62,46.0
875,C#4,106.0,0.25,32,46.0
876,B-3,106.0,0.25,32,46.0
877,F#5,106.25,0.99,63,46.0
878,B-3,106.5,0.25,38,46.0
879,C#4,106.5,0.25,38,46.0
880,F#4,106.75,0.5,40,46.0
881,B-2,107.0,0.25,40,46.0
882,F#5,107.25,0.496,65,46.0
883,E-4,107.5,0.25,36,46.0
884,B3,107.5,0.25,36,46.0
885,F#5,107.75,1.0,67,46.0
886,B3,108.0,0.25,42,46.0
887,E-4,108.0,0.25,42,46.0
888,B4,108.25,0.5,45,46.0
889,B2,108.5,0.25,42,46.0
890,B5,108.75,0.496,69,46.0
891,E4,109.0,0.25,38,46.0
892,C#4,109.0,0.25,38,46.0
893,B5,109.25,0.99,71,46.0
894,C#4,109.5,0.25,45,46.0
895,E4,109.5,0.25,45,46.0
896,B4,109.75,0.5,61,46.0
897,C#3,110.0,0.25,44,46.0
898,B4,110.25,0.496,68,46.0
899,B5,110.25,0.496,68,46.0
900,F#4,110.5,0.25,40,46.0
901,E-4,110.5,0.25,40,46.0
902,B4,110.75,0.496,69,46.0
903,B5,110.75,0.496,69,46.0
904,F#4,111.0,0.25,45,46.0
905,E-4,111.0,0.25,45,46.0
906,E-3,111.25,0.25,41,46.0
907,B4,111.25,0.496,70,46.0
908,B5,111.25,0.496,70,46.0
909,G4,111.5,0.25,45,46.0
910,E4,111.5,0.25,45,46.0
911,E3,111.75,0.25,42,46.0
912,B4,111.75,0.496,71,46.0
913,B5,111.75,0.496,71,46.0
914,A4,112.0,0.25,46,46.0
915,F#4,112.0,0.25,46,46.0
916,B4,112.25,0.248,66,46.0
917,B5,112.25,0.496,78,46.0
918,F#3,112.25,0.25,41,46.0
919,G4,112.5,0.25,52,46.0
920,B4,112.5,0.25,52,46.0
921,G3,112.75,0.25,44,46.0
922,E6,112.75,0.496,72,46.0
923,B5,112.75,0.496,72,46.0
924,E5,112.75,0.496,72,46.0
925,G#4,113.0,0.25,52,46.0
926,B4,113.0,0.25,52,46.0
927,G#3,113.25,0.25,51,46.0
928,D6,113.25,0.496,74,46.0
929,E6,113.25,0.496,74,46.0
930,B5,113.25,0.496,74,46.0
931,E5,113.25,0.496,74,46.0
932,A4,113.5,0.25,57,46.0
933,C#5,113.5,0.25,57,46.0
934,A3,113.75,0.25,49,46.0
935,E6,113.75,0.248,72,46.0
936,C#6,113.75,0.248,72,46.0
937,A5,113.75,0.248,72,46.0
938,E5,113.75,0.248,72,46.0
939,E5,114.0,0.5,56,46.0
940,E6,114.0,0.25,73,46.0
941,A4,114.0,0.5,44,46.0
942,C#5,114.0,0.5,44,46.0
943,G#5,114.25,0.25,57,46.0
944,E5,114.5,0.5,54,46.0
945,B5,114.5,0.25,64,46.0
946,C#4,114.5,0.5,40,46.0
947,A3,114.5,1.0,34,46.0
948,A5,114.75,0.25,60,46.0
949,F#5,115.0,0.75,51,46.0
950,G#5,115.0,0.25,60,46.0
951,E-4,115.0,0.75,35,46.0
952,A5,115.25,0.25,60,46.0
953,C6,115.5,0.5,69,46.0
954,A3,115.5,1.5,33,46.0
955,F#5,115.75,0.25,60,46.0
956,E-4,115.75,0.25,32,46.0
957,A5,116.0,0.75,65,46.0
958,B5,116.0,1.5,55,46.0
959,F#4,116.0,0.25,38,46.0
960,G5,116.25,0.25,57,46.0
961,E4,116.25,0.25,34,46.0
962,F#5,116.5,0.25,60,46.0
963,E-4,116.5,0.25,39,46.0
964,G5,116.75,0.25,55,46.0
965,E4,116.75,0.25,35,46.0
966,F5,117.0,0.5,56,46.0
967,A3,117.0,1.5,34,46.0
968,D4,117.0,0.5,48,46.0
969,G#5,117.25,0.25,57,46.0
970,E5,117.5,1.25,54,46.0
971,B-5,117.5,0.25,64,46.0
972,C#4,117.5,1.25,40,46.0
973,A5,117.75,0.25,60,46.0
974,G#5,118.0,0.25,60,46.0
975,A5,118.25,0.25,60,46.0
976,B5,118.5,0.5,69,46.0
977,A3,118.5,1.5,33,46.0
978,E5,118.75,0.25,60,46.0
979,C#4,118.75,0.25,32,46.0
980,G5,119.0,0.25,65,46.0
981,A5,119.0,1.25,55,46.0
982,E4,119.0,0.25,38,46.0
983,F#5,119.25,0.25,57,46.0
984,D4,119.25,0.25,34,46.0
985,F5,119.5,0.25,60,46.0
986,C#4,119.5,0.25,39,46.0
987,F#5,119.75,0.25,55,46.0
988,D4,119.75,0.25,35,46.0
989,E-5,120.0,0.5,50,46.0
990,A3,120.0,1.0,33,46.0
991,E-4,120.0,0.5,39,46.0
992,C4,120.0,0.5,39,46.0
993,F#5,120.25,0.25,53,46.0
994,E5,120.5,0.5,51,46.0
995,A5,120.5,0.25,61,46.0
996,E4,120.5,0.5,36,46.0
997,C#4,120.5,0.5,36,46.0
998,G5,120.75,0.25,55,46.0
999,C#5,121.0,0.5,51,46.0
1000,F#5,121.0,0.25,61,46.0
1001,E-4,121.0,0.25,39,46.0
1002,B-3,121.0,0.5,33,46.0
1003,G5,121.25,0.248,55,46.0
1004,E4,121.25,0.248,39,46.0
1005,G5,121.5,0.25,63,46.0
1006,C#5,121.5,0.5,53,46.0
1007,E4,121.5,0.25,45,46.0
1008,B-3,121.5,0.5,38,46.0
1009,E5,121.75,0.25,57,46.0
1010,C#4,121.75,0.25,39,46.0
1011,D5,122.0,0.5,56,46.0
1012,G5,122.0,0.25,67,46.0
1013,E4,122.0,0.25,44,46.0
1014,B3,122.0,0.5,37,46.0
1015,F#5,122.25,0.25,58,46.0
1016,D4,122.25,0.25,39,46.0
1017,E5,122.5,0.25,68,46.0
1018,B4,122.5,0.75,57,46.0
1019,C#4,122.5,0.25,43,46.0
1020,G#3,122.5,0.5,36,46.0
1021,F5,122.75,0.248,61,46.0
1022,D4,122.75,0.248,39,46.0
1023,F5,123.0,0.5,71,46.0
1024,G#3,123.0,0.5,42,46.0
1025,D4,123.0,0.5,42,46.0
1026,F4,123.25,0.25,61,46.0
1027,B-4,123.5,0.25,68,46.0
1028,E4,123.5,0.5,62,46.0
1029,E5,123.5,0.5,62,46.0
1030,C#4,123.5,0.5,38,46.0
1031,G3,123.5,0.5,38,46.0
1032,A4,123.75,0.25,59,46.0
1033,G#4,124.0,0.25,69,46.0
1034,F#4,124.0,0.5,64,46.0
1035,D5,124.0,0.5,64,46.0
1036,A3,124.0,0.5,35,46.0
1037,F#3,124.0,0.5,35,46.0
1038,D4,124.0,0.5,35,46.0
1039,A4,124.25,0.25,60,46.0
1040,G5,124.5,0.5,74,46.0
1041,C#5,124.5,0.25,67,46.0
1042,E3,124.5,0.25,45,46.0
1043,A2,124.5,0.5,38,46.0
1044,E5,124.75,0.25,62,46.0
1045,C#3,124.75,0.25,39,46.0
1046,E3,125.0,0.25,57,46.0
1047,B2,125.0,0.5,43,46.0
1048,F#5,125.0,0.5,66,46.0
1049,D5,125.0,0.5,66,46.0
1050,D3,125.25,0.25,48,46.0
1051,B5,125.5,1.0,69,46.0
1052,C#3,125.5,0.25,57,46.0
1053,G#2,125.5,0.5,48,46.0
1054,F5,125.5,0.5,58,46.0
1055,B4,125.5,0.5,58,46.0
1056,D3,125.75,0.25,53,46.0
1057,F2,126.0,0.5,51,46.0
1058,D3,126.0,0.25,67,46.0
1059,B4,126.0,0.5,65,46.0
1060,G#5,126.0,0.5,65,46.0
1061,D5,126.0,0.5,65,46.0
1062,G#2,126.25,0.25,59,46.0
1063,F#2,126.5,0.75,53,46.0
1064,B2,126.5,0.25,69,46.0
1065,D5,126.5,0.5,66,46.0
1066,A4,126.5,0.5,66,46.0
1067,A5,126.5,0.5,66,46.0
1068,A2,126.75,0.25,58,46.0
1069,D5,127.0,0.5,80,46.0
1070,D6,127.0,1.0,91,46.0
1071,G#2,127.0,0.25,69,46.0
1072,F2,127.25,0.25,52,46.0
1073,A2,127.25,0.25,52,46.0
1074,D5,127.5,0.5,82,46.0
1075,G5,127.5,0.5,82,46.0
1076,E2,127.5,0.25,62,46.0
1077,A2,127.5,0.25,62,46.0
1078,G#1,127.75,0.25,61,46.0
1079,B-1,128.0,0.25,72,46.0
1080,E5,128.0,0.5,76,46.0
1081,C#5,128.0,0.5,76,46.0
1082,C#6,128.0,0.5,76,46.0
1083,G5,128.0,0.5,76,46.0
1084,A1,128.25,0.25,63,46.0
1085,G#1,128.5,0.25,72,46.0
1086,C#6,128.5,1.25,83,46.0
1087,G5,128.5,1.25,83,46.0
1088,G6,128.5,1.25,83,46.0
1089,E6,128.5,1.25,83,46.0
1090,A1,128.75,0.229,62,46.0
1091,A1,129.0,0.25,81,46.0
1092,E3,129.25,0.25,43,46.0
1093,C#3,129.5,0.25,47,46.0
1094,G4,129.75,0.25,50,46.0
1095,G3,129.75,0.25,43,46.0
1096,E4,130.0,0.25,54,46.0
1097,E3,130.0,0.25,48,46.0
1098,B-4,130.25,0.25,45,46.0
1099,B-3,130.25,0.25,43,46.0
1100,G#4,130.5,0.25,52,46.0
1101,G#3,130.5,0.25,47,46.0
1102,A4,130.75,0.25,45,46.0
1103,A3,130.75,0.25,43,46.0
1104,E4,131.0,0.25,50,46.0
1105,E3,131.0,0.25,46,46.0
1106,B4,131.25,0.25,45,46.0
1107,B3,131.25,0.25,39,46.0
1108,A4,131.5,0.25,49,46.0
1109,A3,131.5,0.25,45,46.0
1110,G4,131.75,0.25,45,46.0
1111,G3,131.75,0.25,40,46.0
1112,F#4,132.0,0.5,49,46.0
1113,D3,132.0,2.5,32,46.0
1114,F#3,132.0,0.25,38,46.0
1115,B3,132.25,0.25,33,46.0
1116,G#3,132.5,0.25,38,46.0
1117,A3,132.75,0.25,34,46.0
1118,D2,133.0,1.5,58,46.0
1119,F#3,133.0,0.25,38,46.0
1120,B3,133.25,0.25,33,46.0
1121,G#3,133.5,0.25,38,46.0
1122,A3,133.75,0.25,33,46.0
1123,F#3,134.0,0.25,32,46.0
1124,B3,134.25,0.25,28,46.0
1125,D2,134.5,0.25,52,46.0
1126,D3,134.5,0.5,27,46.0
1127,F#3,134.5,0.25,32,46.0
1128,A1,134.75,0.25,46,46.0
1129,A3,134.75,0.25,28,46.0
1130,A1,135.0,1.496,52,46.0
1131,C#3,135.0,0.5,32,46.0
1132,E3,135.0,0.25,38,46.0
1133,A3,135.25,0.25,33,46.0
1134,D3,135.5,0.5,32,46.0
1135,F#3,135.5,0.25,38,46.0
1136,A3,135.75,0.25,34,46.0
1137,E3,136.0,0.496,34,46.0
1138,G3,136.0,0.25,41,46.0
1139,A3,136.25,0.25,36,46.0
1140,A1,136.5,0.996,52,46.0
1141,E3,136.5,0.5,34,46.0
1142,G3,136.5,0.25,40,46.0
1143,A3,136.75,0.25,34,46.0
1144,D3,137.0,0.5,32,46.0
1145,F#3,137.0,0.25,38,46.0
1146,A3,137.25,0.25,32,46.0
1147,A1,137.5,0.5,52,46.0
1148,C#3,137.5,0.5,31,46.0
1149,E3,137.5,0.25,37,46.0
1150,A3,137.75,0.25,34,46.0
1151,F#1,138.0,0.5,52,46.0
1152,D3,138.0,2.5,32,46.0
1153,F#3,138.0,0.25,38,46.0
1154,B3,138.25,0.25,33,46.0
1155,G#3,138.5,0.25,38,46.0
1156,A3,138.75,0.25,34,46.0
1157,F#3,139.0,0.25,38,46.0
1158,D6,139.0,1.5,57,46.0
1159,D5,139.0,1.5,57,46.0
1160,B3,139.25,0.25,33,46.0
1161,G#3,139.5,0.25,38,46.0
1162,A3,139.75,0.25,33,46.0
1163,F#3,140.0,0.25,38,46.0
1164,B3,140.25,0.25,32,46.0
1165,D3,140.5,0.5,29,46.0
1166,F#3,140.5,0.25,34,46.0
1167,D6,140.5,0.25,52,46.0
1168,D5,140.5,0.25,52,46.0
1169,A3,140.75,0.25,29,46.0
1170,A5,140.75,0.248,45,46.0
1171,A4,140.75,0.248,45,46.0
1172,C#3,141.0,0.5,27,46.0
1173,E3,141.0,0.25,32,46.0
1174,A5,141.0,1.496,52,46.0
1175,A4,141.0,1.496,52,46.0
1176,A3,141.25,0.25,28,46.0
1177,D3,141.5,0.5,28,46.0
1178,F#3,141.5,0.25,34,46.0
1179,A3,141.75,0.25,31,46.0
1180,E3,142.0,0.496,32,46.0
1181,G3,142.0,0.25,39,46.0
1182,A3,142.25,0.25,35,46.0
1183,E3,142.5,0.5,34,46.0
1184,G3,142.5,0.25,40,46.0
1185,A5,142.5,0.996,52,46.0
1186,A4,142.5,0.996,52,46.0
1187,A3,142.75,0.25,34,46.0
1188,D3,143.0,0.5,32,46.0
1189,F#3,143.0,0.25,38,46.0
1190,A3,143.25,0.25,32,46.0
1191,C#3,143.5,0.5,31,46.0
1192,E3,143.5,0.25,37,46.0
1193,A5,143.5,0.5,52,46.0
1194,A4,143.5,0.5,52,46.0
1195,A3,143.75,0.25,34,46.0
1196,D3,144.0,2.5,32,46.0
1197,F#3,144.0,0.169,38,46.0
1198,F#5,144.0,0.5,49,46.0
1199,F#4,144.0,0.5,49,46.0
1200,B3,144.169,0.167,33,46.0
1201,A3,144.333,0.167,33,46.0
1202,G#3,144.5,0.169,38,46.0
1203,B3,144.667,0.167,34,46.0
1204,A3,144.833,0.125,34,46.0
1205,D2,145.0,0.996,58,46.0
1206,F#3,145.0,0.169,38,46.0
1207,B3,145.169,0.167,33,46.0
1208,A3,145.333,0.125,33,46.0
1209,G#3,145.5,0.169,38,46.0
1210,B3,145.667,0.167,33,46.0
1211,A3,145.833,0.125,33,46.0
1212,D2,146.0,0.496,56,46.0
1213,F#3,146.0,0.169,38,46.0
1214,B3,146.169,0.167,34,46.0
1215,A3,146.333,0.125,34,46.0
1216,D2,146.5,0.167,56,46.0
1217,D3,146.5,0.5,32,46.0
1218,F#3,146.5,0.169,38,46.0
1219,C#2,146.667,0.167,50,46.0
1220,B-3,146.667,0.167,34,46.0
1221,D2,146.833,0.125,50,46.0
1222,A3,146.833,0.125,34,46.0
1223,A1,147.0,0.996,52,46.0
1224,C#3,147.0,0.5,32,46.0
1225,E3,147.0,0.169,38,46.0
1226,B3,147.167,0.167,33,46.0
1227,A3,147.333,0.125,33,46.0
1228,D3,147.5,0.5,32,46.0
1229,F#3,147.5,0.169,38,46.0
1230,B3,147.667,0.167,34,46.0
1231,A3,147.833,0.125,34,46.0
1232,A1,148.0,0.996,52,46.0
1233,E3,148.0,0.496,34,46.0
1234,G3,148.0,0.169,41,46.0
1235,B3,148.167,0.167,36,46.0
1236,A3,148.333,0.125,36,46.0
1237,E3,148.5,0.5,34,46.0
1238,G3,148.5,0.169,40,46.0
1239,B3,148.667,0.167,34,46.0
1240,A3,148.833,0.125,34,46.0
1241,A1,149.0,1.0,52,46.0
1242,D3,149.0,0.5,32,46.0
1243,F#3,149.0,0.169,38,46.0
1244,B3,149.167,0.167,32,46.0
1245,A3,149.333,0.125,32,46.0
1246,C#3,149.5,0.5,31,46.0
1247,E3,149.5,0.169,37,46.0
1248,B3,149.667,0.167,34,46.0
1249,A3,149.833,0.125,34,46.0
1250,F#1,150.0,0.5,52,46.0
1251,D3,150.0,2.5,32,46.0
1252,F#3,150.0,0.169,38,46.0
1253,B3,150.169,0.167,39,46.0
1254,A3,150.333,0.167,39,46.0
1255,G#3,150.5,0.169,46,46.0
1256,B3,150.667,0.167,41,46.0
1257,A3,150.833,0.125,42,46.0
1258,F#3,151.0,0.169,47,46.0
1259,D6,151.0,0.996,66,46.0
1260,D5,151.0,0.996,66,46.0
1261,B3,151.169,0.167,41,46.0
1262,A3,151.333,0.125,42,46.0
1263,G#3,151.5,0.169,49,46.0
1264,B3,151.667,0.167,42,46.0
1265,A3,151.833,0.125,43,46.0
1266,F#3,152.0,0.169,50,46.0
1267,D5,152.0,0.496,66,46.0
1268,D6,152.0,0.496,66,46.0
1269,B3,152.169,0.167,45,46.0
1270,A3,152.333,0.125,45,46.0
1271,D3,152.5,0.5,43,46.0
1272,F#3,152.5,0.169,51,46.0
1273,D6,152.5,0.169,64,46.0
1274,D5,152.5,0.169,64,46.0
1275,B-3,152.667,0.167,50,46.0
1276,C#5,152.667,0.167,56,46.0
1277,C#6,152.667,0.167,56,46.0
1278,A3,152.833,0.125,50,46.0
1279,D5,152.833,0.167,56,46.0
1280,D6,152.833,0.167,56,46.0
1281,C#3,153.0,0.5,44,46.0
1282,E3,153.0,0.169,53,46.0
1283,A5,153.0,0.996,63,46.0
1284,A4,153.0,0.996,63,46.0
1285,B3,153.167,0.167,46,46.0
1286,A3,153.333,0.125,46,46.0
1287,D3,153.5,0.5,45,46.0
1288,F#3,153.5,0.169,54,46.0
1289,B3,153.667,0.167,48,46.0
1290,A3,153.833,0.125,49,46.0
1291,E3,154.0,0.5,50,46.0
1292,G3,154.0,0.169,60,46.0
1293,A4,154.0,0.996,66,46.0
1294,A5,154.0,0.996,66,46.0
1295,B3,154.167,0.167,53,46.0
1296,A3,154.333,0.125,54,46.0
1297,E3,154.5,0.5,50,46.0
1298,G3,154.5,0.169,60,46.0
1299,B3,154.667,0.167,51,46.0
1300,A3,154.833,0.125,51,46.0
1301,D3,155.0,0.5,49,46.0
1302,F#3,155.0,0.169,58,46.0
1303,A4,155.0,0.833,66,46.0
1304,A5,155.0,0.833,66,46.0
1305,B3,155.167,0.167,49,46.0
1306,A3,155.333,0.125,50,46.0
1307,C#3,155.5,0.5,49,46.0
1308,E3,155.5,0.169,58,46.0
1309,A3,155.667,0.167,53,46.0
1310,G3,155.833,0.125,40,46.0
1311,G4,155.833,0.167,48,46.0
1312,G5,155.833,0.167,48,46.0
1313,F#3,156.0,0.167,40,46.0
1314,D3,156.0,1.5,50,46.0
1315,F#4,156.0,0.5,50,46.0
1316,F#5,156.0,0.5,50,46.0
1317,A3,156.167,0.167,36,46.0
1318,G3,156.333,0.167,36,46.0
1319,F#4,156.5,0.167,40,46.0
1320,F#5,156.5,1.0,50,46.0
1321,F#3,156.5,0.167,40,46.0
1322,E5,156.667,0.167,40,46.0
1323,G3,156.667,0.167,38,46.0
1324,D5,156.833,0.167,40,46.0
1325,A3,156.833,0.167,38,46.0
1326,C#5,157.0,0.167,50,46.0
1327,B3,157.0,0.167,40,46.0
1328,B4,157.167,0.167,41,46.0
1329,C#4,157.167,0.167,37,46.0
1330,A4,157.333,0.167,43,46.0
1331,D4,157.333,0.167,37,46.0
1332,G4,157.5,0.167,50,46.0
1333,G5,157.5,1.5,50,46.0
1334,E4,157.5,0.5,40,46.0
1335,E3,157.5,1.5,50,46.0
1336,B-4,157.667,0.167,42,46.0
1337,A4,157.833,0.167,42,46.0
1338,G4,158.0,0.167,50,46.0
1339,E4,158.0,0.167,40,46.0
1340,A4,158.167,0.167,40,46.0
1341,D4,158.167,0.167,36,46.0
1342,B4,158.333,0.167,40,46.0
1343,C#4,158.333,0.167,36,46.0
1344,C#5,158.5,0.167,50,46.0
1345,B3,158.5,0.167,40,46.0
1346,D5,158.667,0.167,41,46.0
1347,A3,158.667,0.167,35,46.0
1348,E5,158.833,0.167,41,46.0
1349,G3,158.833,0.167,35,46.0
1350,C#4,159.0,0.167,40,46.0
1351,F#3,159.0,1.5,50,46.0
1352,A4,159.0,0.5,50,46.0
1353,A5,159.0,0.5,50,46.0
1354,D4,159.167,0.167,36,46.0
1355,C#4,159.333,0.167,37,46.0
1356,A4,159.5,0.167,42,46.0
1357,A5,159.5,1.0,52,46.0
1358,A3,159.5,0.167,42,46.0
1359,G5,159.667,0.167,42,46.0
1360,B3,159.667,0.167,40,46.0
1361,F#5,159.833,0.167,43,46.0
1362,C4,159.833,0.167,41,46.0
1363,E5,160.0,0.167,55,46.0
1364,D4,160.0,0.167,44,46.0
1365,D5,160.167,0.167,45,46.0
1366,E4,160.167,0.167,41,46.0
1367,C5,160.333,0.167,48,46.0
1368,F#4,160.333,0.167,41,46.0
1369,B4,160.5,0.167,57,46.0
1370,B5,160.5,1.5,57,46.0
1371,G4,160.5,0.667,46,46.0
1372,G3,160.5,1.5,57,46.0
1373,D5,160.667,0.167,48,46.0
1374,C5,160.833,0.167,49,46.0
1375,B4,161.0,0.167,60,46.0
1376,C5,161.167,0.167,48,46.0
1377,F#4,161.167,0.167,43,46.0
1378,D5,161.333,0.167,49,46.0
1379,E4,161.333,0.167,44,46.0
1380,E5,161.5,0.167,62,46.0
1381,D4,161.5,0.167,50,46.0
1382,F#5,161.667,0.167,51,46.0
1383,C4,161.667,0.167,44,46.0
1384,G5,161.833,0.333,52,46.0
1385,B3,161.833,0.167,44,46.0
1386,C#6,162.0,0.5,65,46.0
1387,E4,162.0,0.167,52,46.0
1388,A3,162.0,1.0,65,46.0
1389,G5,162.167,0.167,53,46.0
1390,C#4,162.167,0.167,47,46.0
1391,F#5,162.333,0.167,54,46.0
1392,D4,162.333,0.167,47,46.0
1393,E5,162.5,0.167,54,46.0
1394,E4,162.5,0.167,54,46.0
1395,D5,162.667,0.167,54,46.0
1396,F#4,162.667,0.167,51,46.0
1397,C#5,162.833,0.167,55,46.0
1398,G4,162.833,0.167,52,46.0
1399,D6,163.0,0.5,70,46.0
1400,D5,163.0,0.167,70,46.0
1401,B3,163.0,0.5,70,46.0
1402,F#4,163.0,0.167,56,46.0
1403,E5,163.167,0.167,57,46.0
1404,E4,163.167,0.167,52,46.0
1405,F#5,163.333,0.167,61,46.0
1406,D4,163.333,0.167,52,46.0
1407,E5,163.5,0.167,72,46.0
1408,E6,163.5,1.0,77,46.0
1409,B-4,163.5,0.167,58,46.0
1410,C#4,163.5,1.0,72,46.0
1411,B-5,163.667,0.167,61,46.0
1412,E4,163.667,0.167,52,46.0
1413,A5,163.833,0.167,62,46.0
1414,F#4,163.833,0.167,53,46.0
1415,G5,164.0,0.167,75,46.0
1416,G4,164.0,0.167,60,46.0
1417,F#5,164.167,0.167,60,46.0
1418,A4,164.167,0.167,57,46.0
1419,E5,164.333,0.167,61,46.0
1420,B-4,164.333,0.167,58,46.0
1421,F#5,164.5,0.167,77,46.0
1422,F#6,164.5,0.5,83,46.0
1423,E-4,164.5,0.5,77,46.0
1424,A4,164.5,0.167,62,46.0
1425,G5,164.667,0.167,63,46.0
1426,G4,164.667,0.167,57,46.0
1427,A5,164.833,0.167,64,46.0
1428,F#4,164.833,0.167,58,46.0
1429,G6,165.0,0.5,88,46.0
1430,G5,165.0,0.167,72,46.0
1431,G4,165.0,0.167,58,46.0
1432,E4,165.0,0.5,72,46.0
1433,F#5,165.167,0.167,61,46.0
1434,B-4,165.167,0.167,52,46.0
1435,E5,165.333,0.167,62,46.0
1436,C#5,165.333,0.167,53,46.0
1437,A5,165.5,0.5,74,46.0
1438,E-5,165.5,0.167,63,46.0
1439,F#4,165.5,0.5,50,46.0
1440,C5,165.5,0.167,51,46.0
1441,D5,165.667,0.167,51,46.0
1442,B4,165.667,0.167,48,46.0
1443,E-5,165.833,0.167,51,46.0
1444,C5,165.833,0.167,49,46.0
1445,B5,166.0,0.5,70,46.0
1446,D5,166.0,0.167,65,46.0
1447,G4,166.0,0.333,65,46.0
1448,B4,166.0,0.167,52,46.0
1449,C5,166.167,0.167,53,46.0
1450,A4,166.167,0.167,48,46.0
1451,B4,166.333,0.167,54,46.0
1452,G3,166.333,0.167,52,46.0
1453,G4,166.333,0.167,52,46.0
1454,D5,166.5,0.167,53,46.0
1455,F5,166.5,1.0,70,46.0
1456,B3,166.5,0.167,48,46.0
1457,G#3,166.5,1.0,52,46.0
1458,C#5,166.667,0.167,48,46.0
1459,C#4,166.667,0.167,47,46.0
1460,B4,166.833,0.167,47,46.0
1461,D4,166.833,0.167,39,46.0
1462,G#4,167.0,0.167,52,46.0
1463,F4,167.0,0.167,45,46.0
1464,A4,167.167,0.167,46,46.0
1465,E4,167.167,0.167,38,46.0
1466,B4,167.333,0.167,45,46.0
1467,D4,167.333,0.167,37,46.0
1468,C#5,167.5,0.167,47,46.0
1469,E5,167.5,0.5,58,46.0
1470,C#4,167.5,0.167,43,46.0
1471,G3,167.5,0.5,38,46.0
1472,B-4,167.667,0.167,44,46.0
1473,E-4,167.667,0.167,36,46.0
1474,A4,167.833,0.167,43,46.0
1475,E4,167.833,0.167,35,46.0
1476,E-5,168.0,1.5,56,46.0
1477,A5,168.0,1.5,56,46.0
1478,F#4,168.0,1.5,42,46.0
1479,A4,168.0,1.5,42,46.0
1480,B5,169.5,0.996,47,46.0
1481,F#5,169.5,0.996,47,46.0
1482,B4,169.5,0.996,47,46.0
1483,E-4,169.5,0.996,35,46.0
1484,F#4,169.5,0.996,35,46.0
1485,F#5,170.5,0.5,46,46.0
1486,E-5,170.5,0.5,46,46.0
1487,B4,170.5,0.5,46,46.0
1488,B3,170.5,0.5,28,46.0
1489,E-4,170.5,0.5,28,46.0
1490,F#4,170.5,0.5,28,46.0
1491,A5,171.0,0.25,61,46.0
1492,E4,171.0,0.75,41,46.0
1493,G4,171.0,0.75,41,46.0
1494,F#5,171.25,0.25,57,46.0
1495,G6,171.5,0.25,66,46.0
1496,G5,171.5,0.25,66,46.0
1497,B4,171.75,0.25,62,46.0
1498,B5,171.75,0.25,62,46.0
1499,G3,171.75,0.25,33,46.0
1500,B3,171.75,0.25,33,46.0
1501,G3,172.0,0.5,43,46.0
1502,A4,172.0,0.25,43,46.0
1503,F#6,172.0,0.25,69,46.0
1504,F#5,172.0,0.25,69,46.0
1505,G4,172.25,0.25,37,46.0
1506,E6,172.25,0.25,62,46.0
1507,E5,172.25,0.25,62,46.0
1508,D6,172.5,1.0,52,46.0
1509,D5,172.5,0.25,62,46.0
1510,F#4,172.5,0.25,46,46.0
1511,A3,172.5,1.0,39,46.0
1512,F5,172.75,0.25,65,46.0
1513,G#4,172.75,0.25,39,46.0
1514,G5,173.0,0.25,69,46.0
1515,B4,173.0,0.25,44,46.0
1516,F#5,173.25,0.25,64,46.0
1517,A4,173.25,0.25,40,46.0
1518,C#5,173.5,0.25,56,46.0
1519,A5,173.5,0.25,56,46.0
1520,C#6,173.5,0.25,56,46.0
1521,E5,173.5,0.25,56,46.0
1522,A1,173.5,0.25,42,46.0
1523,A2,173.5,0.25,42,46.0
1524,C5,173.75,0.25,61,46.0
1525,A5,173.75,0.25,61,46.0
1526,C6,173.75,0.25,61,46.0
1527,E-5,173.75,0.25,61,46.0
1528,G1,173.75,0.125,42,46.0
1529,G2,173.75,0.125,42,46.0
1530,F#1,173.875,0.125,42,46.0
1531,F#2,173.875,0.125,42,46.0
1532,C6,174.0,0.5,72,46.0
1533,A5,174.0,0.125,61,46.0
1534,F#1,174.0,0.125,52,46.0
1535,F#5,174.125,0.125,71,46.0
1536,A1,174.125,0.125,44,46.0
1537,E-5,174.25,0.125,69,46.0
1538,C2,174.25,0.125,43,46.0
1539,C5,174.375,0.125,68,46.0
1540,E-2,174.375,0.125,42,46.0
1541,C5,174.5,0.75,66,46.0
1542,A4,174.5,0.125,56,46.0
1543,F#2,174.5,0.125,41,46.0
1544,F#4,174.625,0.125,61,46.0
1545,A2,174.625,0.125,40,46.0
1546,E-4,174.75,0.125,59,46.0
1547,C3,174.75,0.125,39,46.0
1548,C4,174.875,0.125,58,46.0
1549,E-3,174.875,0.125,38,46.0
1550,A4,175.0,0.125,60,46.0
1551,F#3,175.0,0.125,36,46.0
1552,E-4,175.125,0.125,48,46.0
1553,C4,175.125,0.125,27,46.0
1554,B4,175.25,0.25,48,46.0
1555,G3,175.25,0.125,27,46.0
1556,B3,175.25,0.125,44,46.0
1557,D4,175.25,0.125,44,46.0
1558,G4,175.375,0.125,48,46.0
1559,B3,175.375,0.125,27,46.0
1560,B-3,175.5,1.0,36,46.0
1561,B-4,175.5,1.0,36,46.0
1562,G4,175.5,1.0,36,46.0
1563,D4,175.5,1.0,36,46.0
1564,G2,175.5,1.0,24,46.0
1565,G3,175.5,1.0,24,46.0
1566,A4,177.0,0.5,61,46.0
1567,F#4,177.0,0.167,51,46.0
1568,A1,177.0,0.167,39,46.0
1569,D4,177.167,0.167,55,46.0
1570,D2,177.167,0.167,34,46.0
1571,A3,177.333,0.167,55,46.0
1572,F#2,177.333,0.167,34,46.0
1573,A4,177.5,0.75,61,46.0
1574,F#4,177.5,0.125,51,46.0
1575,A2,177.5,0.75,39,46.0
1576,D4,177.625,0.125,54,46.0
1577,D3,177.625,0.125,32,46.0
1578,A3,177.75,0.125,55,46.0
1579,F#3,177.75,0.125,32,46.0
1580,F#4,177.875,0.125,55,46.0
1581,A3,177.875,0.125,32,46.0
1582,F#4,178.0,0.125,63,46.0
1583,D3,178.0,0.125,38,46.0
1584,D4,178.125,0.125,54,46.0
1585,F#3,178.125,0.125,34,46.0
1586,G#4,178.25,0.25,59,46.0
1587,F4,178.25,0.125,50,46.0
1588,B2,178.25,0.25,28,46.0
1589,D3,178.25,0.125,34,46.0
1590,D4,178.375,0.125,50,46.0
1591,F3,178.375,0.125,34,46.0
1592,E4,178.5,0.496,50,46.0
1593,B-3,178.5,0.496,50,46.0
1594,G3,178.5,0.496,50,46.0
1595,G4,178.5,0.496,50,46.0
1596,C#3,178.5,0.496,35,46.0
1597,E3,178.5,0.496,35,46.0
1598,B-2,179.0,0.75,26,46.0
1599,C#3,179.0,0.75,26,46.0
1600,E3,179.0,0.75,26,46.0
1601,G3,179.0,0.75,26,46.0
1602,B2,179.75,0.25,24,46.0
1603,E-3,179.75,0.25,24,46.0
1604,F#3,179.75,0.25,24,46.0
1605,B2,180.0,0.99,27,46.0
1606,E-3,180.0,0.99,27,46.0
1607,F#3,180.0,0.99,27,46.0
1608,B2,181.0,0.496,23,46.0
1609,E-3,181.0,0.496,23,46.0
1610,F#3,181.0,0.496,23,46.0
1611,B3,181.0,0.496,23,46.0
1612,E-4,181.5,0.99,42,46.0
1613,F#4,181.5,0.99,42,46.0
1614,B2,181.5,0.99,26,46.0
1615,E-3,181.5,0.99,26,46.0
1616,F#3,181.5,0.99,26,46.0
1617,B3,181.5,0.99,26,46.0
1618,E-4,182.5,0.496,38,46.0
1619,F#4,182.5,0.496,38,46.0
1620,B4,182.5,0.496,38,46.0
1621,B2,182.5,0.496,23,46.0
1622,E-3,182.5,0.496,23,46.0
1623,F#3,182.5,0.496,23,46.0
1624,B3,182.5,0.496,23,46.0
1625,B3,183.0,0.99,40,46.0
1626,E-4,183.0,0.99,40,46.0
1627,B4,183.0,0.99,40,46.0
1628,F#4,183.0,0.99,40,46.0
1629,B1,183.0,0.496,28,46.0
1630,B2,183.0,0.496,28,46.0
1631,F#1,183.5,0.99,28,46.0
1632,F#2,183.5,0.99,28,46.0
1633,E-4,184.0,0.496,38,46.0
1634,B3,184.0,0.496,38,46.0
1635,B4,184.0,0.496,38,46.0
1636,F#4,184.0,0.496,38,46.0
1637,E4,184.5,0.496,40,46.0
1638,B3,184.5,0.496,40,46.0
1639,B4,184.5,0.496,40,46.0
1640,G1,184.5,0.496,28,46.0
1641,G2,184.5,0.496,28,46.0
1642,A3,185.0,0.99,36,46.0
1643,E4,185.0,0.99,36,46.0
1644,C#4,185.0,0.99,36,46.0
1645,A4,185.0,0.99,36,46.0
1646,A1,185.0,0.99,23,46.0
1647,A2,185.0,0.99,23,46.0
1648,A3,186.0,1.0,36,46.0
1649,F#4,186.0,1.0,36,46.0
1650,D4,186.0,1.0,36,46.0
1651,A4,186.0,1.0,36,46.0
1652,D1,186.0,1.0,22,46.0
1653,D2,186.0,1.0,22,46.0
1654,F#4,187.0,0.5,33,46.0
1655,F#3,187.0,0.5,22,46.0
1656,A3,187.5,1.0,42,46.0
1657,A2,187.5,1.0,24,46.0
1658,A4,188.5,0.5,36,46.0
1659,A3,188.5,0.5,21,46.0
1660,F#4,189.0,1.0,40,46.0
1661,F#3,189.0,1.0,24,46.0
1662,F#6,190.0,0.5,52,46.0
1663,F#5,190.0,0.5,52,46.0
1664,A5,190.0,0.5,52,46.0
1665,A1,190.0,0.5,31,46.0
1666,A2,190.0,0.5,31,46.0
1667,G5,190.5,1.0,56,46.0
1668,E5,190.5,1.0,56,46.0
1669,E6,190.5,1.0,56,46.0
1670,B2,190.5,1.0,34,46.0
1671,B1,190.5,1.0,34,46.0
1672,A2,190.5,1.0,34,46.0
1673,A5,191.5,0.496,45,46.0
1674,E5,191.5,0.496,45,46.0
1675,A4,191.5,0.496,45,46.0
1676,G5,191.5,0.496,45,46.0
1677,C#2,191.5,0.496,29,46.0
1678,C#3,191.5,0.496,29,46.0
1679,A2,191.5,0.496,29,46.0
1680,A4,192.0,1.0,48,46.0
1681,A5,192.0,1.0,48,46.0
1682,F#5,192.0,1.0,48,46.0
1683,A2,192.0,1.0,32,46.0
1684,D2,192.0,1.0,32,46.0
1685,D3,192.0,1.0,32,46.0
1686,F#5,193.0,0.5,43,46.0
1687,F#4,193.0,0.5,33,46.0
1688,A4,193.5,1.0,50,46.0
1689,A3,193.5,1.0,33,46.0
1690,A4,194.5,0.5,43,46.0
1691,A5,194.5,0.5,43,46.0
1692,F#2,194.5,0.5,28,46.0
1693,A2,194.5,0.5,28,46.0
1694,F#3,194.5,0.5,28,46.0
1695,F#5,195.0,1.0,50,46.0
1696,F#4,195.0,1.0,50,46.0
1697,A2,195.0,1.0,30,46.0
1698,A3,195.0,1.0,30,46.0
1699,A4,196.0,0.5,44,46.0
1700,A5,196.0,0.5,44,46.0
1701,F#2,196.0,1.0,30,46.0
1702,A2,196.0,1.0,30,46.0
1703,F#3,196.0,1.0,30,46.0
1704,G5,196.5,1.0,53,46.0
1705,B5,196.5,1.0,53,46.0
1706,B4,196.5,1.0,53,46.0
1707,E2,197.0,0.5,30,46.0
1708,A2,197.0,0.5,30,46.0
1709,E3,197.0,0.5,30,46.0
1710,C#6,197.5,0.5,47,46.0
1711,E5,197.5,0.5,47,46.0
1712,G5,197.5,0.5,47,46.0
1713,C#5,197.5,0.5,47,46.0
1714,A1,197.5,0.5,32,46.0
1715,A2,197.5,0.5,32,46.0
1716,F#5,198.0,1.5,53,46.0
1717,D5,198.0,1.5,53,46.0
1718,D6,198.0,1.5,53,46.0
1719,D2,198.0,1.5,33,46.0
1720,A2,198.0,1.5,33,46.0
1721,E6,199.5,1.485,60,46.0
1722,C#6,199.5,1.485,60,46.0
1723,E5,199.5,1.485,60,46.0
1724,A1,199.5,1.485,34,46.0
1725,A2,199.5,1.485,34,46.0
1726,E5,201.0,1.0,66,46.0
1727,E6,201.0,1.0,66,46.0
1728,C#6,201.0,1.0,66,46.0
1729,A1,201.0,1.0,35,46.0
1730,A2,201.0,1.0,35,46.0
1731,G2,202.0,0.25,43,46.0
1732,E-6,202.0,0.5,66,46.0
1733,F#6,202.0,0.5,66,46.0
1734,F#5,202.0,0.5,66,46.0
1735,F#2,202.25,0.25,45,46.0
1736,E2,202.5,0.25,53,46.0
1737,G6,202.5,0.496,71,46.0
1738,G5,202.5,0.496,71,46.0
1739,E6,202.5,0.496,71,46.0
1740,D2,202.75,0.25,48,46.0
1741,C#2,203.0,0.167,64,46.0
1742,E6,203.0,0.496,76,46.0
1743,A6,203.0,0.496,76,46.0
1744,A5,203.0,0.496,76,46.0
1745,E2,203.167,0.167,53,46.0
1746,A2,203.333,0.167,55,46.0
1747,C#3,203.5,0.167,65,46.0
1748,E6,203.5,0.496,78,46.0
1749,A6,203.5,0.496,78,46.0
1750,G6,203.5,0.496,78,46.0
1751,A5,203.5,0.496,78,46.0
1752,E3,203.667,0.167,59,46.0
1753,A3,203.833,0.167,59,46.0
1754,A6,204.0,0.5,68,46.0
1755,A5,204.0,0.5,68,46.0
1756,F#2,204.0,1.5,40,46.0
1757,F#3,204.0,1.5,40,46.0
1758,A4,204.5,0.5,50,46.0
1759,A5,204.5,0.5,50,46.0
1760,F#4,205.0,0.496,50,46.0
1761,F#5,205.0,0.496,50,46.0
1762,F#4,205.5,0.5,56,46.0
1763,F#5,205.5,0.5,56,46.0
1764,A2,205.5,1.5,40,46.0
1765,A3,205.5,1.5,40,46.0
1766,D4,206.0,0.5,50,46.0
1767,D5,206.0,0.5,50,46.0
1768,E4,206.5,0.5,52,46.0
1769,E5,206.5,0.5,52,46.0
1770,F#4,207.0,1.5,56,46.0
1771,F#5,207.0,1.5,56,46.0
1772,D3,207.0,1.5,40,46.0
1773,D4,207.0,1.5,40,46.0
1774,G4,208.5,1.0,56,46.0
1775,G5,208.5,1.0,56,46.0
1776,B2,208.5,1.0,40,46.0
1777,B3,208.5,1.0,40,46.0
1778,B4,209.5,0.496,58,46.0
1779,B5,209.5,0.496,58,46.0
1780,G2,209.5,0.5,33,46.0
1781,G3,209.5,0.5,33,46.0
1782,B4,210.0,1.0,60,46.0
1783,G5,210.0,1.0,60,46.0
1784,B5,210.0,1.0,60,46.0
1785,E2,210.0,1.0,43,46.0
1786,E3,210.0,1.0,43,46.0
1787,G5,211.0,0.496,58,46.0
1788,B-5,211.0,0.496,58,46.0
1789,B-4,211.0,0.496,58,46.0
1790,E3,211.0,0.496,40,46.0
1791,G3,211.0,0.496,40,46.0
1792,B-4,211.5,0.5,60,46.0
1793,B-5,211.5,0.5,60,46.0
1794,C#3,211.5,1.0,40,46.0
1795,E3,211.5,1.0,40,46.0
1796,E6,212.0,0.5,59,46.0
1797,E5,212.0,0.5,59,46.0
1798,F6,212.5,0.25,61,46.0
1799,F5,212.5,0.25,61,46.0
1800,B2,212.5,0.25,40,46.0
1801,D3,212.5,0.25,40,46.0
1802,F#5,212.75,0.248,62,46.0
1803,F#6,212.75,0.248,62,46.0
1804,B-2,212.75,0.248,42,46.0
1805,C#3,212.75,0.248,42,46.0
1806,B-2,213.0,0.25,47,46.0
1807,F#6,213.0,1.5,64,46.0
1808,F#5,213.0,1.5,64,46.0
1809,C#3,213.25,0.25,44,46.0
1810,F#3,213.5,0.25,47,46.0
1811,B-3,213.75,0.25,49,46.0
1812,C#4,214.0,0.25,51,46.0
1813,F#4,214.25,0.25,53,46.0
1814,E-5,214.5,0.25,68,46.0
1815,G#4,214.5,1.5,49,46.0
1816,F#4,214.5,1.5,49,46.0
1817,E-4,214.5,1.5,49,46.0
1818,C4,214.5,1.5,49,46.0
1819,F#5,214.75,0.25,70,46.0
1820,G#5,215.0,0.25,69,46.0
1821,E-6,215.25,0.25,73,46.0
1822,F#6,215.5,0.25,74,46.0
1823,G#6,215.75,0.25,76,46.0
1824,F4,216.0,1.5,56,46.0
1825,F5,216.0,1.5,56,46.0
1826,G#2,216.0,1.0,46,46.0
1827,G#3,216.0,1.0,46,46.0
1828,F2,217.0,0.496,42,46.0
1829,F3,217.0,0.496,42,46.0
1830,G#4,217.5,0.5,51,46.0
1831,G#5,217.5,1.0,60,46.0
1832,F2,217.5,0.5,46,46.0
1833,F3,217.5,0.5,46,46.0
1834,F5,218.0,0.5,57,46.0
1835,C#2,218.0,0.5,42,46.0
1836,C#3,218.0,0.5,42,46.0
1837,G#5,218.5,0.5,53,46.0
1838,F#5,218.5,0.5,53,46.0
1839,E-2,218.5,0.5,42,46.0
1840,E-3,218.5,0.5,42,46.0
1841,C#6,219.0,1.5,69,46.0
1842,G#5,219.0,0.5,58,46.0
1843,F2,219.0,1.0,46,46.0
1844,F3,219.0,1.0,46,46.0
1845,C#5,219.5,0.5,60,46.0
1846,C#5,220.0,0.496,60,46.0
1847,F3,220.0,0.5,42,46.0
1848,G#3,220.0,0.5,42,46.0
1849,A5,220.5,1.0,68,46.0
1850,C#5,220.5,0.5,57,46.0
1851,F#3,220.5,1.0,46,46.0
1852,A3,220.5,1.0,46,46.0
1853,A4,221.0,0.5,56,46.0
1854,C#5,221.5,0.5,54,46.0
1855,F#5,221.5,0.5,54,46.0
1856,F#4,221.5,0.5,54,46.0
1857,C#4,221.5,0.5,44,46.0
1858,A3,221.5,0.5,44,46.0
1859,F#6,222.0,1.0,73,46.0
1860,F#5,222.0,0.5,62,46.0
1861,C#4,222.0,1.0,46,46.0
1862,A3,222.0,1.0,46,46.0
1863,E-6,222.5,0.5,70,46.0
1864,F#5,223.0,0.496,66,46.0
1865,E-6,223.0,0.496,66,46.0
1866,F#6,223.0,0.496,66,46.0
1867,C4,223.0,0.496,42,46.0
1868,G#3,223.0,0.496,42,46.0
1869,F#5,223.5,0.5,72,46.0
1870,E-6,223.5,0.5,72,46.0
1871,F#6,223.5,0.5,72,46.0
1872,G#3,223.5,0.5,46,46.0
1873,C4,223.5,0.5,46,46.0
1874,E-6,224.0,0.5,66,46.0
1875,G#5,224.0,0.5,66,46.0
1876,F#5,224.0,0.5,66,46.0
1877,E-4,224.0,0.5,42,46.0
1878,C4,224.0,0.5,42,46.0
1879,C#6,224.5,0.5,66,46.0
1880,G#5,224.5,0.5,66,46.0
1881,F5,224.5,0.5,66,46.0
1882,F4,224.5,0.5,42,46.0
1883,C#4,224.5,0.5,42,46.0
1884,B5,225.0,1.5,73,46.0
1885,D4,225.0,0.25,50,46.0
1886,G#5,225.0,1.0,62,46.0
1887,F5,225.0,1.0,62,46.0
1888,F4,225.25,0.25,45,46.0
1889,G#4,225.5,0.25,48,46.0
1890,D5,225.75,0.25,51,46.0
1891,G#5,226.0,0.229,70,46.0
1892,F5,226.0,0.229,52,46.0
1893,F5,226.25,0.25,67,46.0
1894,G#5,226.25,0.25,49,46.0
1895,D3,226.5,0.25,61,46.0
1896,D5,226.5,1.0,48,46.0
1897,F5,226.5,1.0,48,46.0
1898,G#5,226.5,1.0,48,46.0
1899,B-5,226.5,1.0,48,46.0
1900,F3,226.75,0.25,60,46.0
1901,B-3,227.0,0.25,62,46.0
1902,D4,227.25,0.25,64,46.0
1903,F4,227.5,0.25,67,46.0
1904,B-4,227.75,0.246,69,46.0
1905,G2,228.0,0.25,62,46.0
1906,B-4,228.0,1.0,68,46.0
1907,B-5,228.0,1.0,68,46.0
1908,B-2,228.25,0.25,50,46.0
1909,E-3,228.5,0.25,50,46.0
1910,G3,228.75,0.25,47,46.0
1911,B-3,229.0,0.25,54,46.0
1912,G4,229.0,0.496,62,46.0
1913,G5,229.0,0.496,62,46.0
1914,E-4,229.25,0.25,45,46.0
1915,B-2,229.5,0.25,53,46.0
1916,G4,229.5,0.5,68,46.0
1917,G5,229.5,0.5,68,46.0
1918,E-3,229.75,0.25,45,46.0
1919,G3,230.0,0.25,51,46.0
1920,E-4,230.0,0.5,62,46.0
1921,E-5,230.0,0.5,62,46.0
1922,B-3,230.25,0.25,45,46.0
1923,F4,230.5,0.25,57,46.0
1924,G#3,230.5,0.25,45,46.0
1925,F5,230.5,0.5,61,46.0
1926,B-4,230.5,0.5,61,46.0
1927,D5,230.5,0.5,61,46.0
1928,G#4,230.75,0.25,68,46.0
1929,F3,230.75,0.25,45,46.0
1930,E-3,231.0,0.25,55,46.0
1931,G5,231.0,1.0,65,46.0
1932,G4,231.0,1.0,65,46.0
1933,B-4,231.0,1.0,65,46.0
1934,E-5,231.0,1.0,65,46.0
1935,G3,231.25,0.25,49,46.0
1936,B-3,231.5,0.25,49,46.0
1937,E-4,231.75,0.25,49,46.0
1938,G#2,232.0,0.25,54,46.0
1939,B5,232.0,0.5,68,46.0
1940,B4,232.0,0.5,68,46.0
1941,G#3,232.25,0.25,47,46.0
1942,B2,232.5,0.25,54,46.0
1943,G#5,232.5,1.0,69,46.0
1944,G#4,232.5,1.0,69,46.0
1945,E-3,232.75,0.25,48,46.0
1946,G#3,233.0,0.25,51,46.0
1947,B3,233.25,0.25,45,46.0
1948,C#3,233.5,0.25,45,46.0
1949,F5,233.5,0.5,62,46.0
1950,F4,233.5,0.5,62,46.0
1951,C#4,233.75,0.25,45,46.0
1952,B-2,234.0,0.25,65,46.0
1953,C#6,234.0,1.0,78,46.0
1954,C#5,234.0,1.0,78,46.0
1955,C#3,234.25,0.25,42,46.0
1956,F#3,234.5,0.25,51,46.0
1957,B-3,234.75,0.25,46,46.0
1958,C#3,235.0,0.25,58,46.0
1959,B-4,235.0,0.5,72,46.0
1960,B-5,235.0,0.5,72,46.0
1961,C#4,235.25,0.25,46,46.0
1962,E-3,235.5,0.25,58,46.0
1963,G5,235.5,1.0,74,46.0
1964,G4,235.5,1.0,74,46.0
1965,G3,235.75,0.25,47,46.0
1966,B-3,236.0,0.25,55,46.0
1967,C#4,236.25,0.25,47,46.0
1968,E-5,236.5,0.5,54,46.0
1969,G3,236.5,0.25,30,46.0
1970,B-3,236.75,0.25,30,46.0
1971,E-4,236.75,0.25,30,46.0
1972,G4,236.75,0.25,30,46.0
1973,B4,237.0,1.0,46,46.0
1974,G#3,237.0,0.25,39,46.0
1975,E-4,237.0,0.5,39,46.0
1976,G#4,237.0,0.5,39,46.0
1977,B3,237.25,0.25,26,46.0
1978,E-4,237.5,0.25,26,46.0
1979,G#4,237.75,0.246,26,46.0
1980,G#4,238.0,0.5,52,46.0
1981,C4,238.0,0.25,31,46.0
1982,E-4,238.25,0.25,31,46.0
1983,E5,238.5,1.0,58,46.0
1984,C#4,238.5,0.25,40,46.0
1985,E4,238.75,0.25,34,46.0
1986,G#4,239.0,0.25,34,46.0
1987,C#5,239.25,0.246,29,46.0
1988,C#5,239.5,0.5,56,46.0
1989,F4,239.5,0.25,34,46.0
1990,G#4,239.75,0.25,31,46.0
1991,B-4,240.0,1.0,60,46.0
1992,F#3,240.0,0.25,39,46.0
1993,B-3,240.25,0.25,31,46.0
1994,C#4,240.5,0.25,31,46.0
1995,F#4,240.75,0.25,45,46.0
1996,E-2,241.0,0.25,59,46.0
1997,F#5,241.0,0.5,74,46.0
1998,F#6,241.0,0.5,74,46.0
1999,E-3,241.25,0.25,52,46.0
2000,F#2,241.5,0.25,58,46.0
2001,E-5,241.5,1.0,80,46.0
2002,E-6,241.5,1.0,80,46.0
2003,B-2,241.75,0.25,49,46.0
2004,E-3,242.0,0.25,57,46.0
2005,F#3,242.25,0.25,49,46.0
2006,G#2,242.5,0.25,53,46.0
2007,C5,242.5,0.5,76,46.0
2008,C6,242.5,0.5,76,46.0
2009,G#3,242.75,0.25,49,46.0
2010,E2,243.0,0.25,59,46.0
2011,G#5,243.0,1.0,80,46.0
2012,G#6,243.0,1.0,80,46.0
2013,G#2,243.25,0.25,51,46.0
2014,C#3,243.5,0.25,52,46.0
2015,E3,243.75,0.25,50,46.0
2016,G#2,244.0,0.25,50,46.0
2017,E5,244.0,0.5,74,46.0
2018,E6,244.0,0.5,74,46.0
2019,G#3,244.25,0.25,45,46.0
2020,A2,244.5,0.25,54,46.0
2021,C#5,244.5,1.0,80,46.0
2022,C#6,244.5,1.0,80,46.0
2023,C#3,244.75,0.25,49,46.0
2024,E3,245.0,0.25,49,46.0
2025,A3,245.25,0.246,49,46.0
2026,C#3,245.5,0.25,37,46.0
2027,A3,245.5,0.5,49,46.0
2028,A4,245.5,0.5,49,46.0
2029,C#4,245.75,0.25,34,46.0
2030,A3,246.0,0.49,43,46.0
2031,F#4,246.0,1.0,51,46.0
2032,E-3,246.0,1.0,39,46.0
2033,F#3,246.25,0.75,31,46.0
2034,B-3,246.5,0.25,31,46.0
2035,E-4,246.75,0.246,31,46.0
2036,E-4,247.0,0.5,56,46.0
2037,G3,247.0,0.25,35,46.0
2038,B-3,247.25,0.25,31,46.0
2039,B5,247.5,1.0,63,46.0
2040,G#3,247.5,0.25,37,46.0
2041,B3,247.75,0.25,34,46.0
2042,E-4,248.0,0.25,34,46.0
2043,G#4,248.25,0.25,34,46.0
2044,G#5,248.5,0.5,53,46.0
2045,C4,248.5,0.25,37,46.0
2046,E-4,248.75,0.25,34,46.0
2047,F5,249.0,1.0,51,46.0
2048,C#4,249.0,0.25,41,46.0
2049,F4,249.25,0.25,31,46.0
2050,G#4,249.5,0.25,31,46.0
2051,C#5,249.75,0.246,31,46.0
2052,F4,250.0,0.25,42,46.0
2053,C#6,250.0,0.5,56,46.0
2054,C#5,250.0,0.5,56,46.0
2055,G#4,250.25,0.25,36,46.0
2056,A5,250.5,1.0,60,46.0
2057,C#5,250.5,0.25,51,46.0
2058,F#4,250.5,0.25,42,46.0
2059,F#5,250.75,0.496,51,46.0
2060,A4,250.75,0.25,34,46.0
2061,C#5,251.0,0.25,34,46.0
2062,A4,251.25,0.25,51,46.0
2063,F#5,251.25,0.25,34,46.0
2064,B3,251.5,0.25,37,46.0
2065,D6,251.5,0.5,53,46.0
2066,D5,251.5,0.5,53,46.0
2067,B4,251.75,0.246,34,46.0
2068,B3,251.75,0.246,34,46.0
2069,B5,252.0,1.0,52,46.0
2070,B4,252.0,1.0,52,46.0
2071,G#3,252.25,0.25,30,46.0
2072,G#4,252.25,0.25,30,46.0
2073,F4,252.75,0.25,30,46.0
2074,F3,252.75,0.25,30,46.0
2075,G#4,253.0,0.5,46,46.0
2076,G#5,253.0,0.5,46,46.0
2077,F5,253.5,1.0,42,46.0
2078,F4,253.5,1.0,42,46.0
2079,C#4,253.75,0.25,28,46.0
2080,C#3,253.75,0.25,28,46.0
2081,C#2,254.25,0.25,28,46.0
2082,C#3,254.25,0.25,28,46.0
2083,D5,254.5,0.496,39,46.0
2084,F4,254.5,0.496,39,46.0
2085,G#4,254.5,0.496,39,46.0
2086,B4,254.5,0.496,39,46.0
2087,B4,255.0,0.99,30,46.0
2088,F4,255.0,0.99,30,46.0
2089,D4,255.0,0.99,30,46.0
2090,G#4,255.0,0.99,30,46.0
2091,C#2,255.25,0.25,24,46.0
2092,C#3,255.25,0.25,24,46.0
2093,C#2,255.75,0.25,25,46.0
2094,G#4,256.0,0.496,28,46.0
2095,B3,256.0,0.496,28,46.0
2096,D4,256.0,0.496,28,46.0
2097,F4,256.0,0.496,28,46.0
2098,F4,256.5,0.99,26,46.0
2099,G#3,256.5,0.99,26,46.0
2100,B3,256.5,0.99,26,46.0
2101,D4,256.5,0.99,26,46.0
2102,C#2,256.75,0.25,22,46.0
2103,C#2,257.25,0.25,21,46.0
2104,C#2,257.5,0.5,21,46.0
2105,D4,257.5,0.625,23,46.0
2106,F3,257.5,0.625,23,46.0
2107,G#3,257.5,0.625,23,46.0
2108,B3,257.5,0.625,23,46.0
2109,C#2,258.0,0.496,30,46.0
2110,B3,258.125,0.125,30,46.0
2111,G#3,258.25,0.125,30,46.0
2112,F3,258.375,0.125,30,46.0
2113,D3,258.5,0.125,30,46.0
2114,C#2,258.5,0.496,24,46.0
2115,B2,258.625,0.125,30,46.0
2116,G#2,258.75,0.125,30,46.0
2117,B2,258.875,0.125,30,46.0
2118,D3,259.0,0.125,35,46.0
2119,G#2,259.0,0.496,22,46.0
2120,C#2,259.0,0.496,22,46.0
2121,F3,259.125,0.125,30,46.0
2122,G#3,259.25,0.125,30,46.0
2123,B3,259.375,0.125,30,46.0
2124,B3,259.5,0.125,33,46.0
2125,D4,259.5,0.125,33,46.0
2126,C#2,259.5,0.496,22,46.0
2127,G#2,259.5,0.496,22,46.0
2128,F4,259.625,0.125,30,46.0
2129,G#4,259.75,0.125,30,46.0
2130,B4,259.875,0.125,30,46.0
2131,D5,260.0,0.125,32,46.0
2132,B4,260.0,0.125,32,46.0
2133,C#2,260.0,0.496,22,46.0
2134,G#2,260.0,0.496,22,46.0
2135,F5,260.125,0.125,30,46.0
2136,G#5,260.25,0.125,30,46.0
2137,B5,260.375,0.125,30,46.0
2138,A5,260.5,0.5,22,46.0
2139,D6,260.5,0.125,32,46.0
2140,F#1,260.5,0.496,21,46.0
2141,C#2,260.5,0.496,21,46.0
2142,F#2,260.5,0.496,21,46.0
2143,C6,260.625,0.125,28,46.0
2144,D6,260.75,0.125,28,46.0
2145,C#6,260.875,0.125,28,46.0
2146,A5,261.0,0.5,24,46.0
2147,D6,261.0,0.125,35,46.0
2148,F#1,261.0,0.496,21,46.0
2149,C#2,261.0,0.496,21,46.0
2150,F#2,261.0,0.496,21,46.0
2151,C#5,261.125,0.125,24,46.0
2152,D6,261.25,0.125,28,46.0
2153,C#6,261.375,0.125,28,46.0
2154,C#5,261.5,0.125,22,46.0
2155,A5,261.5,0.5,32,46.0
2156,C#2,261.5,0.496,21,46.0
2157,F#2,261.5,0.496,21,46.0
2158,C#3,261.5,0.496,21,46.0
2159,C#6,261.625,0.125,28,46.0
2160,D6,261.75,0.125,28,46.0
2161,C#6,261.875,0.125,28,46.0
2162,B5,262.0,0.125,28,46.0
2163,C#2,262.0,0.496,21,46.0
2164,F#2,262.0,0.496,21,46.0
2165,C#3,262.0,0.496,21,46.0
2166,A4,262.125,0.125,24,46.0
2167,B5,262.25,0.125,28,46.0
2168,A5,262.375,0.125,26,46.0
2169,A4,262.5,0.125,28,46.0
2170,C#2,262.5,0.496,21,46.0
2171,F#2,262.5,0.496,21,46.0
2172,C#3,262.5,0.496,21,46.0
2173,A5,262.625,0.125,28,46.0
2174,B5,262.75,0.125,28,46.0
2175,A5,262.875,0.125,28,46.0
2176,G#5,263.0,0.125,34,46.0
2177,C#2,263.0,0.496,21,46.0
2178,F#2,263.0,0.496,21,46.0
2179,C#3,263.0,0.496,21,46.0
2180,F#4,263.125,0.125,24,46.0
2181,G#5,263.25,0.125,28,46.0
2182,F#5,263.375,0.125,28,46.0
2183,G#4,263.5,0.125,28,46.0
2184,C#2,263.5,0.496,21,46.0
2185,F2,263.5,0.496,21,46.0
2186,C#3,263.5,0.496,21,46.0
2187,G#5,263.625,0.125,28,46.0
2188,A5,263.75,0.125,26,46.0
2189,G#5,263.875,0.125,26,46.0
2190,A4,264.0,0.125,31,46.0
2191,C#2,264.0,0.496,30,46.0
2192,F#2,264.0,0.496,30,46.0
2193,C#3,264.0,0.496,30,46.0
2194,A5,264.125,0.125,31,46.0
2195,B5,264.25,0.125,29,46.0
2196,A5,264.375,0.125,30,46.0
2197,B5,264.5,0.125,39,46.0
2198,C#2,264.5,0.496,24,46.0
2199,F#2,264.5,0.496,24,46.0
2200,C#3,264.5,0.496,24,46.0
2201,B-4,264.625,0.125,28,46.0
2202,B5,264.75,0.125,35,46.0
2203,B-5,264.875,0.125,35,46.0
2204,B4,265.0,0.125,36,46.0
2205,D2,265.0,0.496,25,46.0
2206,F#2,265.0,0.496,25,46.0
2207,D3,265.0,0.496,25,46.0
2208,B5,265.125,0.125,37,46.0
2209,C#6,265.25,0.125,37,46.0
2210,B5,265.375,0.125,38,46.0
2211,C#6,265.5,0.125,49,46.0
2212,D2,265.5,0.496,27,46.0
2213,F#2,265.5,0.496,27,46.0
2214,D3,265.5,0.496,27,46.0
2215,B5,265.625,0.125,40,46.0
2216,B4,265.75,0.125,34,46.0
2217,B5,265.875,0.125,42,46.0
2218,B4,266.0,0.125,42,46.0
2219,D2,266.0,0.496,28,46.0
2220,F#2,266.0,0.496,28,46.0
2221,D3,266.0,0.496,28,46.0
2222,B5,266.125,0.125,44,46.0
2223,C#6,266.25,0.125,42,46.0
2224,B5,266.375,0.125,42,46.0
2225,E6,266.5,0.125,55,46.0
2226,B1,266.5,0.496,29,46.0
2227,F#2,266.5,0.496,29,46.0
2228,B2,266.5,0.496,29,46.0
2229,D6,266.625,0.125,46,46.0
2230,D5,266.75,0.125,40,46.0
2231,D6,266.875,0.125,48,46.0
2232,D5,267.0,0.125,50,46.0
2233,B1,267.0,0.496,31,46.0
2234,F#2,267.0,0.496,31,46.0
2235,B2,267.0,0.496,31,46.0
2236,D6,267.125,0.125,50,46.0
2237,E6,267.25,0.125,51,46.0
2238,D6,267.375,0.125,51,46.0
2239,E6,267.5,0.125,60,46.0
2240,B2,267.5,0.496,31,46.0
2241,F#3,267.5,0.496,31,46.0
2242,B3,267.5,0.496,31,46.0
2243,D6,267.625,0.125,43,46.0
2244,D5,267.75,0.125,52,46.0
2245,D6,267.875,0.125,53,46.0
2246,C#5,268.0,0.125,52,46.0
2247,A2,268.0,0.496,32,46.0
2248,F#3,268.0,0.496,32,46.0
2249,A3,268.0,0.496,32,46.0
2250,C#6,268.125,0.125,54,46.0
2251,D6,268.25,0.125,54,46.0
2252,C#6,268.375,0.125,55,46.0
2253,D6,268.5,0.125,68,46.0
2254,A2,268.5,0.496,33,46.0
2255,F#3,268.5,0.496,33,46.0
2256,A3,268.5,0.496,33,46.0
2257,C#6,268.625,0.125,56,46.0
2258,C#5,268.75,0.125,47,46.0
2259,C#6,268.875,0.125,56,46.0
2260,F5,269.0,0.125,50,46.0
2261,B5,269.0,0.125,50,46.0
2262,G#2,269.0,0.496,34,46.0
2263,C#3,269.0,0.496,34,46.0
2264,G#3,269.0,0.496,34,46.0
2265,F6,269.125,0.125,57,46.0
2266,F#6,269.25,0.125,58,46.0
2267,F6,269.375,0.125,58,46.0
2268,G#6,269.5,0.125,70,46.0
2269,F#2,269.5,0.496,35,46.0
2270,C#3,269.5,0.496,35,46.0
2271,F#3,269.5,0.496,35,46.0
2272,F#6,269.625,0.125,59,46.0
2273,A5,269.75,0.125,50,46.0
2274,F#5,269.75,0.125,50,46.0
2275,F#6,269.875,0.125,60,46.0
2276,A6,270.0,0.125,68,46.0
2277,F2,270.0,0.496,37,46.0
2278,C#3,270.0,0.496,37,46.0
2279,G#3,270.0,0.496,37,46.0
2280,G#6,270.125,0.125,61,46.0
2281,G#5,270.25,0.125,61,46.0
2282,G#6,270.375,0.125,61,46.0
2283,F2,270.5,0.496,36,46.0
2284,C#3,270.5,0.496,36,46.0
2285,G#3,270.5,0.496,36,46.0
2286,G#6,270.625,0.125,51,46.0
2287,G#5,270.75,0.125,60,46.0
2288,G#6,270.875,0.125,55,46.0
2289,F3,271.0,0.496,36,46.0
2290,G#3,271.0,0.496,36,46.0
2291,B3,271.0,0.496,36,46.0
2292,C#4,271.0,0.496,36,46.0
2293,G#6,271.125,0.125,54,46.0
2294,G#5,271.25,0.125,59,46.0
2295,G#6,271.375,0.125,55,46.0
2296,F3,271.5,0.496,36,46.0
2297,G#3,271.5,0.496,36,46.0
2298,B3,271.5,0.496,36,46.0
2299,D4,271.5,0.496,36,46.0
2300,G#5,271.625,0.125,53,46.0
2301,E6,271.75,0.125,64,46.0
2302,D6,271.875,0.125,53,46.0
2303,C#6,272.0,0.125,61,46.0
2304,F3,272.0,0.496,36,46.0
2305,G#3,272.0,0.496,36,46.0
2306,B3,272.0,0.496,36,46.0
2307,D4,272.0,0.496,36,46.0
2308,D6,272.125,0.125,61,46.0
2309,G#5,272.25,0.125,57,46.0
2310,D6,272.375,0.125,57,46.0
2311,F3,272.5,0.496,36,46.0
2312,G#3,272.5,0.496,36,46.0
2313,B3,272.5,0.496,36,46.0
2314,D4,272.5,0.496,36,46.0
2315,D6,272.625,0.125,56,46.0
2316,G#5,272.75,0.125,64,46.0
2317,D6,272.875,0.125,56,46.0
2318,D5,273.0,0.125,61,46.0
2319,F3,273.0,0.496,37,46.0
2320,G#3,273.0,0.496,37,46.0
2321,B3,273.0,0.496,37,46.0
2322,D4,273.0,0.496,37,46.0
2323,C#6,273.125,0.125,54,46.0
2324,E6,273.25,0.125,58,46.0
2325,D6,273.375,0.125,53,46.0
2326,C#6,273.5,0.125,66,46.0
2327,F2,273.5,0.496,36,46.0
2328,G#2,273.5,0.496,36,46.0
2329,F3,273.5,0.496,36,46.0
2330,D6,273.625,0.125,51,46.0
2331,D5,273.75,0.125,61,46.0
2332,D6,273.875,0.125,54,46.0
2333,D5,274.0,0.125,63,46.0
2334,F2,274.0,0.496,36,46.0
2335,G#2,274.0,0.496,36,46.0
2336,F3,274.0,0.496,36,46.0
2337,D6,274.125,0.125,57,46.0
2338,E6,274.25,0.125,64,46.0
2339,D6,274.375,0.121,57,46.0
2340,D6,274.5,0.125,66,46.0
2341,F2,274.5,0.496,32,46.0
2342,G#2,274.5,0.496,32,46.0
2343,F3,274.5,0.496,32,46.0
2344,C#6,274.625,0.125,53,46.0
2345,C#5,274.75,0.125,59,46.0
2346,C#6,274.875,0.125,51,46.0
2347,C6,275.0,0.125,50,46.0
2348,F#2,275.0,0.496,30,46.0
2349,A2,275.0,0.496,30,46.0
2350,F#3,275.0,0.496,30,46.0
2351,C#6,275.125,0.125,49,46.0
2352,C#5,275.25,0.125,48,46.0
2353,C#6,275.375,0.125,47,46.0
2354,B-5,275.5,0.125,55,46.0
2355,G#2,275.5,0.496,28,46.0
2356,B2,275.5,0.496,28,46.0
2357,G#3,275.5,0.496,28,46.0
2358,B5,275.625,0.125,46,46.0
2359,B4,275.75,0.125,37,46.0
2360,B5,275.875,0.125,44,46.0
2361,B4,276.0,0.125,50,46.0
2362,G#2,276.0,0.496,27,46.0
2363,B2,276.0,0.496,27,46.0
2364,G#3,276.0,0.496,27,46.0
2365,B5,276.125,0.125,44,46.0
2366,C#6,276.25,0.125,45,46.0
2367,B5,276.375,0.125,46,46.0
2368,B-5,276.5,0.125,55,46.0
2369,G#3,276.5,0.496,27,46.0
2370,B3,276.5,0.496,27,46.0
2371,D4,276.5,0.496,27,46.0
2372,F4,276.5,0.496,27,46.0
2373,B5,276.625,0.125,48,46.0
2374,B4,276.75,0.125,43,46.0
2375,B5,276.875,0.125,51,46.0
2376,B4,277.0,0.125,56,46.0
2377,G#3,277.0,0.496,30,46.0
2378,B3,277.0,0.496,30,46.0
2379,D4,277.0,0.496,30,46.0
2380,F4,277.0,0.496,30,46.0
2381,B5,277.125,0.125,54,46.0
2382,C#6,277.25,0.125,55,46.0
2383,B5,277.375,0.125,56,46.0
2384,B3,277.5,0.496,34,46.0
2385,G#3,277.5,0.496,34,46.0
2386,D4,277.5,0.496,34,46.0
2387,F4,277.5,0.496,34,46.0
2388,C#6,277.625,0.125,49,46.0
2389,B4,277.75,0.125,43,46.0
2390,B5,277.875,0.125,49,46.0
2391,A3,278.0,0.496,33,46.0
2392,C#4,278.0,0.496,33,46.0
2393,F#4,278.0,0.496,33,46.0
2394,B5,278.125,0.125,45,46.0
2395,A4,278.25,0.125,43,46.0
2396,A5,278.375,0.125,43,46.0
2397,B3,278.5,0.248,32,46.0
2398,D4,278.5,0.248,32,46.0
2399,F#4,278.5,0.248,32,46.0
2400,A5,278.625,0.125,49,46.0
2401,G#4,278.75,0.125,47,46.0
2402,C4,278.75,0.25,32,46.0
2403,E-4,278.75,0.25,32,46.0
2404,F#4,278.75,0.25,32,46.0
2405,G#5,278.875,0.125,54,46.0
2406,G#4,279.0,0.125,54,46.0
2407,G#5,279.125,0.125,54,46.0
2408,G5,279.25,0.125,51,46.0
2409,C4,279.25,0.25,32,46.0
2410,E-4,279.25,0.25,32,46.0
2411,F#4,279.25,0.25,32,46.0
2412,G#4,279.25,0.25,32,46.0
2413,G#5,279.375,0.125,51,46.0
2414,A5,279.5,0.125,61,46.0
2415,G#5,279.625,0.125,43,46.0
2416,G#4,279.75,0.125,52,46.0
2417,C4,279.75,0.25,31,46.0
2418,E-4,279.75,0.25,31,46.0
2419,F#4,279.75,0.25,31,46.0
2420,G#5,279.875,0.125,52,46.0
2421,G#4,280.0,0.125,50,46.0
2422,G#5,280.125,0.125,51,46.0
2423,A5,280.25,0.125,51,46.0
2424,F#4,280.25,0.25,30,46.0
2425,C4,280.25,0.25,30,46.0
2426,E-4,280.25,0.25,30,46.0
2427,G#4,280.25,0.25,30,46.0
2428,G#5,280.375,0.125,50,46.0
2429,A5,280.5,0.125,61,46.0
2430,G#5,280.625,0.125,50,46.0
2431,G#4,280.75,0.125,41,46.0
2432,C4,280.75,0.25,29,46.0
2433,E-4,280.75,0.25,29,46.0
2434,F#4,280.75,0.25,29,46.0
2435,G#5,280.875,0.125,49,46.0
2436,A4,281.0,0.125,49,46.0
2437,A5,281.125,0.125,48,46.0
2438,B5,281.25,0.125,48,46.0
2439,C4,281.25,0.25,28,46.0
2440,E-4,281.25,0.25,28,46.0
2441,F#4,281.25,0.25,28,46.0
2442,A4,281.25,0.25,28,46.0
2443,A5,281.375,0.125,48,46.0
2444,G#5,281.5,0.125,57,46.0
2445,F#5,281.625,0.125,47,46.0
2446,F#4,281.75,0.125,39,46.0
2447,F#3,281.75,0.25,27,46.0
2448,C3,281.75,0.25,27,46.0
2449,E-3,281.75,0.25,27,46.0
2450,A3,281.75,0.25,27,46.0
2451,F#5,281.875,0.125,47,46.0
2452,F5,282.0,0.125,53,46.0
2453,F#5,282.125,0.125,46,46.0
2454,F#4,282.25,0.125,45,46.0
2455,C#3,282.25,0.25,29,46.0
2456,F#3,282.25,0.25,29,46.0
2457,A3,282.25,0.25,29,46.0
2458,F#5,282.375,0.125,46,46.0
2459,G#5,282.5,0.125,54,46.0
2460,F#5,282.625,0.125,39,46.0
2461,F#4,282.75,0.125,46,46.0
2462,A3,282.75,0.25,23,46.0
2463,C#3,282.75,0.25,23,46.0
2464,F#3,282.75,0.25,23,46.0
2465,C4,282.75,0.25,23,46.0
2466,F#5,282.875,0.125,46,46.0
2467,F5,283.0,0.125,45,46.0
2468,F#5,283.125,0.125,41,46.0
2469,F#4,283.25,0.125,46,46.0
2470,A3,283.25,0.25,27,46.0
2471,C#3,283.25,0.25,27,46.0
2472,F#3,283.25,0.25,27,46.0
2473,C#4,283.25,0.25,27,46.0
2474,F#5,283.375,0.125,40,46.0
2475,F3,283.5,0.5,27,46.0
2476,C#3,283.5,0.5,27,46.0
2477,G#3,283.5,0.5,27,46.0
2478,C#4,283.5,0.5,27,46.0
2479,F#5,283.625,0.125,46,46.0
2480,F4,283.75,0.125,39,46.0
2481,F5,283.875,0.125,46,46.0
2482,C#3,284.0,0.5,28,46.0
2483,F3,284.0,0.5,28,46.0
2484,G#3,284.0,0.5,28,46.0
2485,A5,284.125,0.125,46,46.0
2486,G#4,284.25,0.125,42,46.0
2487,G#5,284.375,0.125,46,46.0
2488,C#3,284.5,0.5,28,46.0
2489,G#3,284.5,0.5,28,46.0
2490,B3,284.5,0.5,28,46.0
2491,C#6,284.625,0.125,46,46.0
2492,B4,284.75,0.125,39,46.0
2493,B5,284.875,0.125,46,46.0
2494,C#6,285.0,0.125,46,46.0
2495,C#3,285.0,0.5,29,46.0
2496,G#3,285.0,0.5,29,46.0
2497,B3,285.0,0.5,29,46.0
2498,B4,285.125,0.125,39,46.0
2499,C#6,285.25,0.125,46,46.0
2500,B5,285.375,0.125,46,46.0
2501,B-5,285.5,0.125,54,46.0
2502,C#3,285.5,0.5,24,46.0
2503,G#3,285.5,0.5,24,46.0
2504,B3,285.5,0.5,24,46.0
2505,B5,285.625,0.125,46,46.0
2506,B4,285.75,0.125,37,46.0
2507,B5,285.875,0.121,46,46.0
2508,B5,286.0,0.125,45,46.0
2509,C#3,286.0,0.5,28,46.0
2510,F#3,286.0,0.5,28,46.0
2511,A3,286.0,0.5,28,46.0
2512,A5,286.125,0.125,46,46.0
2513,A4,286.25,0.125,41,46.0
2514,A5,286.375,0.125,46,46.0
2515,B5,286.5,0.125,57,46.0
2516,C#3,286.5,0.5,24,46.0
2517,F#3,286.5,0.5,24,46.0
2518,A3,286.5,0.5,24,46.0
2519,A4,286.625,0.125,39,46.0
2520,B5,286.75,0.125,44,46.0
2521,A5,286.875,0.121,46,46.0
2522,A5,287.0,0.125,46,46.0
2523,B2,287.0,0.5,27,46.0
2524,D3,287.0,0.5,27,46.0
2525,F3,287.0,0.5,27,46.0
2526,G#3,287.0,0.5,27,46.0
2527,G#4,287.125,0.125,39,46.0
2528,A5,287.25,0.125,43,46.0
2529,G#5,287.375,0.121,43,46.0
2530,G#5,287.5,0.125,55,46.0
2531,A2,287.5,0.5,27,46.0
2532,C3,287.5,0.5,27,46.0
2533,E-3,287.5,0.5,27,46.0
2534,F#3,287.5,0.5,27,46.0
2535,F#4,287.625,0.125,38,46.0
2536,G#5,287.75,0.125,39,46.0
2537,F#5,287.875,0.125,46,46.0
2538,F5,288.0,0.125,46,46.0
2539,E-3,288.0,0.5,28,46.0
2540,B-2,288.0,0.5,28,46.0
2541,B2,288.0,0.5,28,46.0
2542,F#3,288.0,0.5,28,46.0
2543,F#5,288.125,0.125,46,46.0
2544,F#4,288.25,0.125,41,46.0
2545,F#5,288.375,0.125,46,46.0
2546,G#5,288.5,0.125,54,46.0
2547,E-3,288.5,0.5,24,46.0
2548,B-2,288.5,0.5,24,46.0
2549,B2,288.5,0.5,24,46.0
2550,F#3,288.5,0.5,24,46.0
2551,F#5,288.625,0.125,45,46.0
2552,F#4,288.75,0.125,38,46.0
2553,F#5,288.875,0.125,46,46.0
2554,F4,289.0,0.125,45,46.0
2555,G#2,289.0,0.5,28,46.0
2556,C#3,289.0,0.5,28,46.0
2557,F3,289.0,0.5,28,46.0
2558,F5,289.125,0.125,42,46.0
2559,F#5,289.25,0.125,46,46.0
2560,F5,289.375,0.125,46,46.0
2561,F#5,289.5,0.125,57,46.0
2562,G#2,289.5,0.5,24,46.0
2563,C#3,289.5,0.5,24,46.0
2564,F3,289.5,0.5,24,46.0
2565,F4,289.625,0.125,39,46.0
2566,F#5,289.75,0.125,45,46.0
2567,F5,289.875,0.125,46,46.0
2568,G#4,290.0,0.125,51,46.0
2569,C#3,290.0,0.5,26,46.0
2570,F3,290.0,0.25,31,46.0
2571,G#5,290.125,0.125,47,46.0
2572,A5,290.25,0.125,47,46.0
2573,F3,290.25,0.25,31,46.0
2574,G#3,290.25,0.25,31,46.0
2575,G#5,290.375,0.125,48,46.0
2576,B5,290.5,0.125,59,46.0
2577,C#3,290.5,0.5,27,46.0
2578,B3,290.5,0.25,32,46.0
2579,G#3,290.5,0.25,32,46.0
2580,B4,290.625,0.125,42,46.0
2581,D5,290.75,0.125,51,46.0
2582,D4,290.75,0.25,34,46.0
2583,B3,290.75,0.25,34,46.0
2584,D6,290.875,0.125,53,46.0
2585,C#6,291.0,0.125,58,46.0
2586,C#3,291.0,0.496,33,46.0
2587,B3,291.0,0.496,33,46.0
2588,D4,291.0,0.496,33,46.0
2589,D6,291.125,0.125,55,46.0
2590,D5,291.25,0.125,50,46.0
2591,D6,291.375,0.125,57,46.0
2592,E6,291.5,0.125,68,46.0
2593,C#3,291.5,0.496,34,46.0
2594,B3,291.5,0.496,34,46.0
2595,D4,291.5,0.496,34,46.0
2596,D6,291.625,0.125,58,46.0
2597,D5,291.75,0.125,50,46.0
2598,D6,291.875,0.121,61,46.0
2599,D6,292.0,0.125,60,46.0
2600,C#3,292.0,0.496,36,46.0
2601,A3,292.0,0.496,36,46.0
2602,C#4,292.0,0.496,36,46.0
2603,C#5,292.125,0.125,52,46.0
2604,D6,292.25,0.125,59,46.0
2605,C#6,292.375,0.125,58,46.0
2606,C#3,292.5,0.496,37,46.0
2607,A3,292.5,0.496,37,46.0
2608,C#4,292.5,0.496,37,46.0
2609,D6,292.625,0.125,62,46.0
2610,C#5,292.75,0.125,50,46.0
2611,C#6,292.875,0.125,54,46.0
2612,C#3,293.0,0.496,34,46.0
2613,G#3,293.0,0.496,34,46.0
2614,B3,293.0,0.496,34,46.0
2615,C#6,293.125,0.125,56,46.0
2616,B4,293.25,0.125,45,46.0
2617,B5,293.375,0.125,49,46.0
2618,C#3,293.5,0.496,31,46.0
2619,F#3,293.5,0.496,31,46.0
2620,A3,293.5,0.496,31,46.0
2621,B5,293.625,0.125,50,46.0
2622,A4,293.75,0.125,40,46.0
2623,A5,293.875,0.125,47,46.0
2624,B5,294.0,0.125,57,46.0
2625,C#3,294.0,0.496,35,46.0
2626,F#3,294.0,0.496,35,46.0
2627,A3,294.0,0.496,35,46.0
2628,A4,294.125,0.125,45,46.0
2629,B5,294.25,0.125,54,46.0
2630,A5,294.375,0.125,51,46.0
2631,G#5,294.5,0.125,63,46.0
2632,A3,294.5,0.496,32,46.0
2633,C#3,294.5,0.496,32,46.0
2634,F#3,294.5,0.496,32,46.0
2635,C4,294.5,0.496,32,46.0
2636,A5,294.625,0.125,52,46.0
2637,A4,294.75,0.125,42,46.0
2638,A5,294.875,0.125,51,46.0
2639,A5,295.0,0.125,49,46.0
2640,F3,295.0,0.496,29,46.0
2641,C#3,295.0,0.496,29,46.0
2642,G#3,295.0,0.496,29,46.0
2643,C#4,295.0,0.496,29,46.0
2644,G#4,295.125,0.125,42,46.0
2645,A5,295.25,0.125,48,46.0
2646,G#5,295.375,0.125,47,46.0
2647,F3,295.5,0.496,29,46.0
2648,C#3,295.5,0.496,29,46.0
2649,G#3,295.5,0.496,29,46.0
2650,C#4,295.5,0.496,29,46.0
2651,G#5,295.625,0.125,50,46.0
2652,G#4,295.75,0.125,41,46.0
2653,G#5,295.875,0.125,49,46.0
2654,F3,296.0,0.496,28,46.0
2655,C#3,296.0,0.496,28,46.0
2656,G#3,296.0,0.496,28,46.0
2657,C#4,296.0,0.496,28,46.0
2658,G#6,296.125,0.125,48,46.0
2659,G#5,296.25,0.125,53,46.0
2660,G#6,296.375,0.125,48,46.0
2661,E3,296.5,0.496,27,46.0
2662,B-3,296.5,0.496,27,46.0
2663,C#3,296.5,0.496,27,46.0
2664,G3,296.5,0.496,27,46.0
2665,C#4,296.5,0.496,27,46.0
2666,G6,296.625,0.125,44,46.0
2667,G5,296.75,0.125,51,46.0
2668,G6,296.875,0.125,47,46.0
2669,G3,297.0,0.496,27,46.0
2670,D3,297.0,0.496,27,46.0
2671,B3,297.0,0.496,27,46.0
2672,D4,297.0,0.496,27,46.0
2673,G6,297.125,0.125,46,46.0
2674,G5,297.25,0.125,52,46.0
2675,G6,297.375,0.125,46,46.0
2676,G3,297.5,0.496,26,46.0
2677,D3,297.5,0.496,26,46.0
2678,B3,297.5,0.496,26,46.0
2679,D4,297.5,0.496,26,46.0
2680,G6,297.625,0.125,45,46.0
2681,B5,297.75,0.125,51,46.0
2682,B6,297.875,0.125,45,46.0
2683,D3,298.0,0.496,25,46.0
2684,B3,298.0,0.496,25,46.0
2685,G3,298.0,0.496,25,46.0
2686,D4,298.0,0.496,25,46.0
2687,B6,298.125,0.125,44,46.0
2688,A5,298.25,0.125,48,46.0
2689,A6,298.375,0.125,43,46.0
2690,G3,298.5,0.496,25,46.0
2691,D3,298.5,0.496,25,46.0
2692,B3,298.5,0.496,25,46.0
2693,D4,298.5,0.496,25,46.0
2694,A6,298.625,0.125,43,46.0
2695,G5,298.75,0.125,49,46.0
2696,G6,298.875,0.125,45,46.0
2697,G3,299.0,0.496,28,46.0
2698,B3,299.0,0.496,28,46.0
2699,D4,299.0,0.496,28,46.0
2700,G6,299.125,0.125,48,46.0
2701,G5,299.25,0.125,57,46.0
2702,G6,299.375,0.125,51,46.0
2703,B3,299.5,0.496,31,46.0
2704,G3,299.5,0.496,31,46.0
2705,D4,299.5,0.496,31,46.0
2706,G6,299.625,0.125,55,46.0
2707,G5,299.75,0.125,61,46.0
2708,F#5,299.875,0.125,57,46.0
2709,F#6,299.875,0.125,57,46.0
2710,G3,300.0,0.496,35,46.0
2711,C4,300.0,0.496,35,46.0
2712,E4,300.0,0.496,35,46.0
2713,F#6,300.125,0.125,60,46.0
2714,E5,300.25,0.125,55,46.0
2715,E6,300.375,0.125,63,46.0
2716,G3,300.5,0.496,36,46.0
2717,C4,300.5,0.496,36,46.0
2718,E4,300.5,0.496,36,46.0
2719,E6,300.625,0.125,60,46.0
2720,E5,300.75,0.125,53,46.0
2721,E6,300.875,0.125,57,46.0
2722,C4,301.0,0.496,32,46.0
2723,G3,301.0,0.496,32,46.0
2724,E4,301.0,0.496,32,46.0
2725,E6,301.125,0.125,53,46.0
2726,E5,301.25,0.125,57,46.0
2727,F#5,301.375,0.125,50,46.0
2728,F#6,301.375,0.125,50,46.0
2729,G3,301.5,0.496,29,46.0
2730,B3,301.5,0.496,29,46.0
2731,D4,301.5,0.496,29,46.0
2732,F#6,301.625,0.125,47,46.0
2733,G5,301.75,0.125,54,46.0
2734,G6,301.875,0.125,44,46.0
2735,D3,302.0,0.496,25,46.0
2736,G3,302.0,0.496,25,46.0
2737,B3,302.0,0.496,25,46.0
2738,D4,302.0,0.496,25,46.0
2739,G6,302.125,0.125,43,46.0
2740,G5,302.25,0.125,50,46.0
2741,G6,302.375,0.125,43,46.0
2742,D3,302.5,0.496,25,46.0
2743,A3,302.5,0.496,25,46.0
2744,F#3,302.5,0.496,25,46.0
2745,D4,302.5,0.496,25,46.0
2746,G6,302.625,0.125,43,46.0
2747,G5,302.75,0.125,51,46.0
2748,F#5,302.875,0.125,43,46.0
2749,F#6,302.875,0.125,43,46.0
2750,F#6,303.0,0.125,52,46.0
2751,F#3,303.0,0.496,26,46.0
2752,D3,303.0,0.496,26,46.0
2753,A3,303.0,0.496,26,46.0
2754,D4,303.0,0.496,26,46.0
2755,F#5,303.125,0.125,43,46.0
2756,F#5,303.25,0.125,43,46.0
2757,F#6,303.375,0.125,43,46.0
2758,A6,303.5,0.125,50,46.0
2759,F#3,303.5,0.496,25,46.0
2760,C#3,303.5,0.496,25,46.0
2761,A3,303.5,0.496,25,46.0
2762,C#4,303.5,0.496,25,46.0
2763,A5,303.625,0.125,36,46.0
2764,A5,303.75,0.125,43,46.0
2765,A6,303.875,0.125,43,46.0
2766,C#7,304.0,0.125,50,46.0
2767,F#3,304.0,0.496,25,46.0
2768,C#3,304.0,0.496,25,46.0
2769,A3,304.0,0.496,25,46.0
2770,C#4,304.0,0.496,25,46.0
2771,C#6,304.125,0.125,43,46.0
2772,C#6,304.25,0.125,49,46.0
2773,C#7,304.375,0.125,43,46.0
2774,F3,304.5,0.496,25,46.0
2775,C#3,304.5,0.496,25,46.0
2776,G#3,304.5,0.496,25,46.0
2777,C#4,304.5,0.496,25,46.0
2778,C#7,304.625,0.125,43,46.0
2779,C#6,304.75,0.125,49,46.0
2780,C#7,304.875,0.125,45,46.0
2781,C#3,305.0,0.496,27,46.0
2782,F3,305.0,0.496,27,46.0
2783,G#3,305.0,0.496,27,46.0
2784,C#4,305.0,0.496,27,46.0
2785,C#6,305.125,0.125,48,46.0
2786,C#5,305.25,0.125,45,46.0
2787,C#6,305.375,0.125,51,46.0
2788,C#3,305.5,0.496,30,46.0
2789,F3,305.5,0.496,30,46.0
2790,G#3,305.5,0.496,30,46.0
2791,C#4,305.5,0.496,30,46.0
2792,C#7,305.625,0.125,55,46.0
2793,C#6,305.75,0.125,65,46.0
2794,C#7,305.875,0.125,57,46.0
2795,F3,306.0,0.496,36,46.0
2796,C#3,306.0,0.496,36,46.0
2797,G#3,306.0,0.496,36,46.0
2798,C#4,306.0,0.496,36,46.0
2799,C#6,306.125,0.125,60,46.0
2800,C#5,306.25,0.125,48,46.0
2801,C#6,306.375,0.125,63,46.0
2802,F3,306.5,0.496,38,46.0
2803,C#3,306.5,0.496,38,46.0
2804,G#3,306.5,0.496,38,46.0
2805,C#4,306.5,0.496,38,46.0
2806,C#7,306.625,0.125,53,46.0
2807,C#6,306.75,0.125,61,46.0
2808,C#7,306.875,0.125,59,46.0
2809,A6,307.0,0.125,55,46.0
2810,F#3,307.0,0.496,33,46.0
2811,A3,307.0,0.496,33,46.0
2812,C#4,307.0,0.496,33,46.0
2813,A5,307.125,0.125,54,46.0
2814,A5,307.25,0.125,52,46.0
2815,A6,307.375,0.125,49,46.0
2816,A6,307.5,0.125,52,46.0
2817,F#3,307.5,0.496,28,46.0
2818,A3,307.5,0.496,28,46.0
2819,C#4,307.5,0.496,28,46.0
2820,A5,307.625,0.125,41,46.0
2821,A5,307.75,0.125,47,46.0
2822,A6,307.875,0.125,44,46.0
2823,F#6,308.0,0.125,52,46.0
2824,C#4,308.0,0.248,32,46.0
2825,A3,308.0,0.248,32,46.0
2826,F#5,308.125,0.125,47,46.0
2827,F#5,308.25,0.125,47,46.0
2828,C#3,308.25,0.25,27,46.0
2829,A2,308.25,0.25,27,46.0
2830,A3,308.25,0.25,27,46.0
2831,F#4,308.375,0.125,46,46.0
2832,F5,308.5,0.125,53,46.0
2833,G#5,308.5,0.125,53,46.0
2834,B4,308.5,0.125,53,46.0
2835,G#2,308.5,0.25,34,46.0
2836,C#3,308.5,0.25,34,46.0
2837,G#3,308.5,0.25,34,46.0
2838,G#4,308.625,0.125,56,46.0
2839,F#5,308.75,0.125,53,46.0
2840,A5,308.75,0.125,53,46.0
2841,C#5,308.75,0.125,53,46.0
2842,F#2,308.75,0.25,36,46.0
2843,C#3,308.75,0.25,36,46.0
2844,F#3,308.75,0.25,36,46.0
2845,A4,308.875,0.125,62,46.0
2846,G#5,309.0,0.5,58,46.0
2847,B5,309.0,0.5,58,46.0
2848,B4,309.0,0.5,58,46.0
2849,C#2,309.0,0.248,40,46.0
2850,C#3,309.0,0.248,40,46.0
2851,C#2,309.25,0.5,61,46.0
2852,G#4,309.5,0.5,53,46.0
2853,B4,309.5,0.5,53,46.0
2854,D4,309.5,0.5,53,46.0
2855,F1,309.75,0.5,43,46.0
2856,F2,309.75,0.5,43,46.0
2857,C#4,310.0,0.5,53,46.0
2858,F#4,310.0,0.5,53,46.0
2859,A4,310.0,0.5,53,46.0
2860,F#1,310.25,0.5,43,46.0
2861,F#2,310.25,0.5,43,46.0
2862,B3,310.5,0.5,56,46.0
2863,D4,310.5,0.5,56,46.0
2864,A4,310.5,0.5,56,46.0
2865,F4,310.5,0.5,56,46.0
2866,G#1,310.75,0.5,43,46.0
2867,G#2,310.75,0.5,43,46.0
2868,D4,311.0,0.5,54,46.0
2869,B3,311.0,0.5,54,46.0
2870,G#4,311.0,0.5,54,46.0
2871,F4,311.0,0.5,54,46.0
2872,A1,311.25,0.25,45,46.0
2873,A2,311.25,0.25,45,46.0
2874,E-4,311.5,0.5,53,46.0
2875,A3,311.5,0.5,53,46.0
2876,F#4,311.5,0.5,53,46.0
2877,B1,311.5,0.25,48,46.0
2878,B2,311.5,0.25,48,46.0
2879,C2,311.75,0.25,50,46.0
2880,C3,311.75,0.25,50,46.0
2881,E-4,312.0,0.75,56,46.0
2882,F#4,312.0,1.5,61,46.0
2883,A3,312.0,1.5,61,46.0
2884,C#2,312.0,0.25,46,46.0
2885,C#3,312.0,0.25,46,46.0
2886,C2,312.25,0.25,40,46.0
2887,C3,312.25,0.25,40,46.0
2888,C#2,312.5,0.25,45,46.0
2889,C#3,312.5,0.25,45,46.0
2890,C4,312.75,0.25,55,46.0
2891,C2,312.75,0.25,40,46.0
2892,C3,312.75,0.25,40,46.0
2893,C#4,313.0,0.25,55,46.0
2894,C#2,313.0,0.25,42,46.0
2895,C#3,313.0,0.25,42,46.0
2896,C4,313.25,0.25,55,46.0
2897,C2,313.25,0.25,38,46.0
2898,C3,313.25,0.25,38,46.0
2899,G#3,313.5,1.5,53,46.0
2900,F4,313.5,1.5,53,46.0
2901,C#4,313.5,1.5,53,46.0
2902,C#2,313.5,0.25,44,46.0
2903,C#3,313.5,0.25,44,46.0
2904,F3,313.75,0.25,36,46.0
2905,G#3,314.0,0.25,46,46.0
2906,G#4,314.25,0.25,57,46.0
2907,F3,314.25,0.25,36,46.0
2908,B4,314.5,0.25,60,46.0
2909,G#3,314.5,0.25,44,46.0
2910,D5,314.75,0.25,63,46.0
2911,B3,314.75,0.25,36,46.0
2912,G#4,315.0,0.496,53,46.0
2913,D4,315.0,0.496,53,46.0
2914,D5,315.0,0.496,53,46.0
2915,F4,315.0,0.496,53,46.0
2916,B4,315.0,0.496,53,46.0
2917,C#3,315.0,0.25,36,46.0
2918,F3,315.0,0.25,36,46.0
2919,G#3,315.0,0.25,36,46.0
2920,B3,315.0,0.25,36,46.0
2921,C#2,315.25,0.5,56,46.0
2922,C#3,315.25,0.5,56,46.0
2923,G#4,315.5,0.496,52,46.0
2924,D5,315.5,0.496,52,46.0
2925,D4,315.5,0.496,52,46.0
2926,B4,315.5,0.496,52,46.0
2927,F2,315.75,0.5,43,46.0
2928,F3,315.75,0.5,43,46.0
2929,C#4,316.0,0.496,53,46.0
2930,C#5,316.0,0.496,53,46.0
2931,A4,316.0,0.496,53,46.0
2932,F#2,316.25,0.5,43,46.0
2933,F#3,316.25,0.5,43,46.0
2934,G#4,316.5,0.496,58,46.0
2935,C#5,316.5,0.496,58,46.0
2936,F4,316.5,0.496,58,46.0
2937,D4,316.5,0.496,58,46.0
2938,G#2,316.75,0.5,43,46.0
2939,G#3,316.75,0.5,43,46.0
2940,G#4,317.0,0.496,54,46.0
2941,B4,317.0,0.496,54,46.0
2942,F4,317.0,0.496,54,46.0
2943,D4,317.0,0.496,54,46.0
2944,A2,317.25,0.25,45,46.0
2945,A3,317.25,0.25,45,46.0
2946,E-4,317.5,0.496,53,46.0
2947,F#4,317.5,0.496,53,46.0
2948,A4,317.5,0.496,53,46.0
2949,B2,317.5,0.25,48,46.0
2950,B3,317.5,0.25,48,46.0
2951,C3,317.75,0.5,50,46.0
2952,C4,317.75,0.5,50,46.0
2953,F#4,318.0,1.0,61,46.0
2954,A4,318.0,1.0,61,46.0
2955,C#3,318.25,0.25,40,46.0
2956,C#4,318.25,0.25,40,46.0
2957,C4,318.5,0.25,55,46.0
2958,C2,318.5,0.25,45,46.0
2959,C3,318.5,0.25,45,46.0
2960,C#4,318.75,0.25,55,46.0
2961,C#2,318.75,0.25,40,46.0
2962,C#3,318.75,0.25,40,46.0
2963,C4,319.0,0.25,55,46.0
2964,F4,319.0,0.5,51,46.0
2965,G#4,319.0,0.5,51,46.0
2966,C2,319.0,0.25,42,46.0
2967,C3,319.0,0.25,42,46.0
2968,C#4,319.25,0.25,55,46.0
2969,C#2,319.25,0.25,38,46.0
2970,C#3,319.25,0.25,38,46.0
2971,C#4,319.5,0.5,52,46.0
2972,G#3,319.5,0.5,52,46.0
2973,F4,319.5,0.5,52,46.0
2974,G#4,319.5,0.5,52,46.0
2975,C3,319.5,0.25,42,46.0
2976,C2,319.5,0.25,42,46.0
2977,C#2,319.75,0.25,38,46.0
2978,C#3,319.75,0.25,38,46.0
2979,G4,320.0,0.875,48,46.0
2980,C#2,320.0,0.25,34,46.0
2981,G3,320.0,0.5,35,46.0
2982,B-3,320.0,0.5,35,46.0
2983,E4,320.0,0.5,35,46.0
2984,B-2,320.25,0.25,30,46.0
2985,D2,320.5,0.25,33,46.0
2986,G3,320.5,0.5,35,46.0
2987,B3,320.5,0.5,35,46.0
2988,D4,320.5,0.5,35,46.0
2989,B2,320.75,0.25,30,46.0
2990,G4,320.875,0.125,47,46.0
2991,B5,321.0,1.0,63,46.0
2992,G1,321.0,0.25,33,46.0
2993,G2,321.25,0.25,28,46.0
2994,B4,321.5,0.5,47,46.0
2995,D3,321.5,0.25,28,46.0
2996,G2,321.75,0.25,28,46.0
2997,D3,322.0,0.25,28,46.0
2998,A4,322.0,0.496,44,46.0
2999,A5,322.0,0.496,44,46.0
3000,G2,322.25,0.25,28,46.0
3001,B1,322.5,0.25,33,46.0
3002,A4,322.5,0.5,48,46.0
3003,A5,322.5,0.5,48,46.0
3004,G2,322.75,0.25,28,46.0
3005,G3,323.0,0.25,28,46.0
3006,G4,323.0,0.5,42,46.0
3007,G5,323.0,0.5,42,46.0
3008,G2,323.25,0.25,28,46.0
3009,G4,323.5,0.5,36,46.0
3010,G3,323.5,0.25,28,46.0
3011,B4,323.5,0.25,42,46.0
3012,G5,323.5,0.25,42,46.0
3013,G2,323.75,0.25,28,46.0
3014,D5,323.75,0.25,38,46.0
3015,F#5,323.75,0.25,38,46.0
3016,C2,324.0,0.25,33,46.0
3017,G4,324.0,0.5,48,46.0
3018,D5,324.0,0.5,48,46.0
3019,F#5,324.0,0.5,48,46.0
3020,G2,324.25,0.25,29,46.0
3021,G3,324.5,0.25,29,46.0
3022,G4,324.5,0.5,40,46.0
3023,C5,324.5,0.5,40,46.0
3024,E5,324.5,0.5,40,46.0
3025,G2,324.75,0.25,29,46.0
3026,G3,325.0,0.25,29,46.0
3027,E5,325.0,0.25,39,46.0
3028,C5,325.0,0.25,39,46.0
3029,G4,325.0,0.25,39,46.0
3030,G2,325.25,0.25,29,46.0
3031,E-5,325.25,0.25,41,46.0
3032,F#5,325.25,0.25,41,46.0
3033,A4,325.25,0.25,41,46.0
3034,C5,325.25,0.25,41,46.0
3035,G1,325.5,0.25,33,46.0
3036,E-5,325.5,0.25,44,46.0
3037,F#5,325.5,0.25,44,46.0
3038,A4,325.5,0.25,44,46.0
3039,C5,325.5,0.25,44,46.0
3040,G2,325.75,0.25,28,46.0
3041,G5,325.75,0.25,41,46.0
3042,D5,325.75,0.25,41,46.0
3043,B4,325.75,0.25,41,46.0
3044,G3,326.0,0.25,28,46.0
3045,B4,326.0,0.5,41,46.0
3046,D5,326.0,0.5,41,46.0
3047,G5,326.0,0.5,41,46.0
3048,G2,326.25,0.25,28,46.0
3049,G4,326.5,0.25,40,46.0
3050,G3,326.5,0.125,28,46.0
3051,G2,326.625,0.125,24,46.0
3052,F#3,326.75,0.25,33,46.0
3053,F#4,326.75,0.25,33,46.0
3054,D2,326.75,0.25,26,46.0
3055,F#2,326.75,0.25,26,46.0
3056,F#3,327.0,0.496,37,46.0
3057,F#4,327.0,0.496,37,46.0
3058,D2,327.0,0.25,28,46.0
3059,F#2,327.0,0.25,28,46.0
3060,A2,327.25,0.25,27,46.0
3061,A3,327.5,0.496,32,46.0
3062,A4,327.5,0.496,32,46.0
3063,F#4,327.5,0.496,32,46.0
3064,C#4,327.5,0.496,32,46.0
3065,C#2,327.5,0.25,24,46.0
3066,F#2,327.5,0.25,24,46.0
3067,A2,327.5,0.25,24,46.0
3068,C#3,327.75,0.25,27,46.0
3069,C#4,328.0,0.496,32,46.0
3070,C#5,328.0,0.496,32,46.0
3071,A4,328.0,0.496,32,46.0
3072,F#4,328.0,0.496,32,46.0
3073,C#2,328.0,0.25,24,46.0
3074,F#2,328.0,0.25,24,46.0
3075,A2,328.0,0.25,24,46.0
3076,C#3,328.25,0.25,27,46.0
3077,C#4,328.5,0.99,36,46.0
3078,C#5,328.5,0.99,36,46.0
3079,G#4,328.5,0.99,36,46.0
3080,F4,328.5,0.99,36,46.0
3081,C#2,328.5,0.25,30,46.0
3082,F2,328.5,0.25,30,46.0
3083,G#2,328.5,0.25,30,46.0
3084,C#3,328.75,0.25,28,46.0
3085,C#2,329.0,0.25,25,46.0
3086,F2,329.0,0.25,25,46.0
3087,G#2,329.0,0.25,25,46.0
3088,C#3,329.25,0.25,28,46.0
3089,C#4,329.5,0.496,30,46.0
3090,C#5,329.5,0.496,30,46.0
3091,A4,329.5,0.496,30,46.0
3092,F#4,329.5,0.496,30,46.0
3093,F#2,329.5,0.25,28,46.0
3094,A2,329.5,0.25,28,46.0
3095,C#3,329.75,0.25,28,46.0
3096,C#4,330.0,0.5,38,46.0
3097,A4,330.0,0.5,38,46.0
3098,C#5,330.0,0.5,38,46.0
3099,F#2,330.0,0.25,28,46.0
3100,A2,330.0,0.25,28,46.0
3101,C#3,330.25,0.25,26,46.0
3102,D4,330.5,0.5,36,46.0
3103,G4,330.5,0.5,36,46.0
3104,D5,330.5,0.5,36,46.0
3105,B1,330.5,0.25,24,46.0
3106,B2,330.5,0.25,24,46.0
3107,D3,330.75,0.25,26,46.0
3108,G3,331.0,0.5,33,46.0
3109,G4,331.0,0.5,33,46.0
3110,B1,331.0,0.25,24,46.0
3111,G2,331.0,0.25,24,46.0
3112,B2,331.25,0.246,26,46.0
3113,B3,331.5,0.5,34,46.0
3114,B4,331.5,0.5,34,46.0
3115,B1,331.5,0.25,28,46.0
3116,B2,331.5,0.25,28,46.0
3117,B2,331.75,0.25,24,46.0
3118,C#4,332.0,0.5,37,46.0
3119,C#2,332.0,0.25,22,46.0
3120,C#3,332.0,0.25,22,46.0
3121,C#3,332.25,0.25,24,46.0
3122,C#2,332.5,0.25,24,46.0
3123,F4,332.5,0.5,28,46.0
3124,F3,332.5,0.5,28,46.0
3125,F2,332.75,0.25,24,46.0
3126,F#1,333.0,0.25,29,46.0
3127,F#4,333.0,0.5,35,46.0
3128,F#3,333.0,0.5,35,46.0
3129,C#2,333.25,0.25,24,46.0
3130,F#2,333.25,0.25,24,46.0
3131,F1,333.5,0.25,26,46.0
3132,C#5,333.5,0.75,38,46.0
3133,C#4,333.5,0.75,38,46.0
3134,C#2,333.75,0.25,22,46.0
3135,G#2,333.75,0.25,22,46.0
3136,F1,334.0,0.25,23,46.0
3137,G#4,334.25,0.25,26,46.0
3138,G#3,334.25,0.25,26,46.0
3139,C#2,334.25,0.25,20,46.0
3140,G#2,334.25,0.25,20,46.0
3141,F#1,334.5,0.25,24,46.0
3142,A4,334.5,0.5,28,46.0
3143,A3,334.5,0.5,28,46.0
3144,C#2,334.75,0.25,21,46.0
3145,A2,334.75,0.25,21,46.0
3146,C#2,335.0,0.25,18,46.0
3147,A5,335.0,0.75,38,46.0
3148,A4,335.0,0.75,38,46.0
3149,C#3,335.25,0.25,16,46.0
3150,F#2,335.25,0.25,16,46.0
3151,C#2,335.5,0.25,18,46.0
3152,C#3,335.75,0.25,18,46.0
3153,F5,335.75,0.25,23,46.0
3154,F4,335.75,0.25,23,46.0
3155,D2,336.5,0.25,26,46.0
3156,D3,336.5,0.25,26,46.0
3157,A4,337.0,0.25,20,46.0
3158,F#4,337.0,0.25,20,46.0
3159,D4,337.0,0.25,20,46.0
3160,A3,337.0,0.25,20,46.0
3161,A4,337.5,0.25,20,46.0
3162,F#4,337.5,0.25,20,46.0
3163,D4,337.5,0.25,20,46.0
3164,A3,337.5,0.25,20,46.0
3165,D2,338.0,0.25,26,46.0
3166,D3,338.0,0.25,26,46.0
3167,F#5,338.5,0.744,43,46.0
3168,A4,338.5,0.25,20,46.0
3169,F#4,338.5,0.25,20,46.0
3170,D4,338.5,0.25,20,46.0
3171,A3,338.5,0.25,20,46.0
3172,A4,339.0,0.25,20,46.0
3173,F#4,339.0,0.25,20,46.0
3174,D4,339.0,0.25,20,46.0
3175,A3,339.0,0.25,20,46.0
3176,F#5,339.25,0.496,44,46.0
3177,D2,339.5,0.25,24,46.0
3178,D3,339.5,0.25,24,46.0
3179,F#5,339.75,0.496,44,46.0
3180,A5,340.0,0.496,61,46.0
3181,A4,340.0,0.25,20,46.0
3182,F#4,340.0,0.25,20,46.0
3183,D4,340.0,0.25,20,46.0
3184,A3,340.0,0.25,20,46.0
3185,F#5,340.25,0.496,49,46.0
3186,D6,340.5,0.5,74,46.0
3187,A4,340.5,0.25,20,46.0
3188,F#4,340.5,0.25,20,46.0
3189,D4,340.5,0.25,20,46.0
3190,A3,340.5,0.25,20,46.0
3191,F#5,340.75,0.496,54,46.0
3192,E6,341.0,0.5,71,46.0
3193,D2,341.0,0.25,24,46.0
3194,D3,341.0,0.25,24,46.0
3195,F#5,341.25,0.496,52,46.0
3196,F#6,341.5,0.5,71,46.0
3197,A4,341.5,0.25,20,46.0
3198,F#4,341.5,0.25,20,46.0
3199,D4,341.5,0.25,20,46.0
3200,A3,341.5,0.25,20,46.0
3201,F#5,341.75,0.25,45,46.0
3202,F#6,342.0,1.0,65,46.0
3203,G6,342.0,1.0,65,46.0
3204,A4,342.0,0.25,20,46.0
3205,E4,342.0,0.25,20,46.0
3206,C#4,342.0,0.25,20,46.0
3207,A3,342.0,0.25,20,46.0
3208,F#6,342.125,1.0,65,46.0
3209,G6,342.125,1.0,65,46.0
3210,F#6,342.25,1.0,67,46.0
3211,G6,342.25,1.0,67,46.0
3212,F#6,342.375,1.0,74,46.0
3213,G6,342.375,1.0,74,46.0
3214,A6,342.5,0.5,83,46.0
3215,C#2,342.5,0.25,24,46.0
3216,C#3,342.5,0.25,24,46.0
3217,A5,342.75,0.99,57,46.0
3218,G6,343.0,0.5,75,46.0
3219,A4,343.0,0.25,20,46.0
3220,E4,343.0,0.25,20,46.0
3221,C#4,343.0,0.25,20,46.0
3222,A3,343.0,0.25,20,46.0
3223,G6,343.5,0.667,77,46.0
3224,A4,343.5,0.25,20,46.0
3225,E4,343.5,0.25,20,46.0
3226,C#4,343.5,0.25,20,46.0
3227,A3,343.5,0.25,20,46.0
3228,A5,343.75,0.5,56,46.0
3229,C#2,344.0,0.25,24,46.0
3230,C#3,344.0,0.25,24,46.0
3231,E6,344.25,0.25,68,46.0
3232,C#6,344.5,0.25,62,46.0
3233,A4,344.5,0.25,20,46.0
3234,E4,344.5,0.25,20,46.0
3235,C#4,344.5,0.25,20,46.0
3236,A3,344.5,0.25,20,46.0
3237,D6,344.75,0.25,65,46.0
3238,E-6,345.0,0.25,74,46.0
3239,A4,345.0,0.25,20,46.0
3240,E4,345.0,0.25,20,46.0
3241,C#4,345.0,0.25,20,46.0
3242,A3,345.0,0.25,20,46.0
3243,E6,345.25,0.417,64,46.0
3244,C#2,345.5,0.25,24,46.0
3245,C#3,345.5,0.25,24,46.0
3246,G5,345.667,0.167,63,46.0
3247,F#5,345.833,0.167,64,46.0
3248,G5,346.0,0.167,64,46.0
3249,A4,346.0,0.25,20,46.0
3250,E4,346.0,0.25,20,46.0
3251,C#4,346.0,0.25,20,46.0
3252,A3,346.0,0.25,20,46.0
3253,A5,346.167,0.167,66,46.0
3254,B-5,346.333,0.167,68,46.0
3255,C#6,346.5,0.167,70,46.0
3256,A4,346.5,0.25,20,46.0
3257,E4,346.5,0.25,20,46.0
3258,C#4,346.5,0.25,20,46.0
3259,A3,346.5,0.25,20,46.0
3260,B5,346.667,0.167,68,46.0
3261,A5,346.833,0.167,66,46.0
3262,G5,347.0,0.167,69,46.0
3263,C#2,347.0,0.25,24,46.0
3264,C#3,347.0,0.25,24,46.0
3265,F#5,347.167,0.167,65,46.0
3266,G5,347.333,0.167,60,46.0
3267,G#5,347.5,0.167,69,46.0
3268,A4,347.5,0.25,20,46.0
3269,E4,347.5,0.25,20,46.0
3270,C#4,347.5,0.25,20,46.0
3271,A3,347.5,0.25,20,46.0
3272,A5,347.667,0.167,64,46.0
3273,E5,347.833,0.167,59,46.0
3274,G5,348.0,0.25,70,46.0
3275,A4,348.0,0.25,22,46.0
3276,F#4,348.0,0.25,22,46.0
3277,D4,348.0,0.25,22,46.0
3278,A3,348.0,0.25,22,46.0
3279,F#5,348.25,0.5,64,46.0
3280,D2,348.5,0.25,28,46.0
3281,D3,348.5,0.25,28,46.0
3282,A5,348.75,0.5,69,46.0
3283,F#4,349.0,0.25,22,46.0
3284,D4,349.0,0.25,22,46.0
3285,A3,349.0,0.25,22,46.0
3286,F#3,349.0,0.25,22,46.0
3287,D6,349.25,0.496,76,46.0
3288,F#4,349.5,0.25,22,46.0
3289,D4,349.5,0.25,22,46.0
3290,B3,349.5,0.25,22,46.0
3291,F#3,349.5,0.25,22,46.0
3292,D6,349.75,0.5,74,46.0
3293,B1,350.0,0.25,27,46.0
3294,B2,350.0,0.25,27,46.0
3295,E6,350.25,0.5,78,46.0
3296,F#4,350.5,0.25,22,46.0
3297,D4,350.5,0.25,22,46.0
3298,B3,350.5,0.25,22,46.0
3299,F#3,350.5,0.25,22,46.0
3300,F#6,350.75,0.248,68,46.0
3301,F#6,351.0,1.0,60,46.0
3302,G6,351.0,1.0,60,46.0
3303,C#4,351.0,0.25,22,46.0
3304,F#4,351.0,0.25,22,46.0
3305,E4,351.0,0.25,22,46.0
3306,B-3,351.0,0.25,22,46.0
3307,F#3,351.0,0.25,22,46.0
3308,F#6,351.125,1.0,62,46.0
3309,G6,351.125,1.0,62,46.0
3310,F#6,351.25,1.0,64,46.0
3311,G6,351.25,1.0,64,46.0
3312,F#6,351.375,1.0,67,46.0
3313,G6,351.375,1.0,67,46.0
3314,F#6,351.5,1.0,69,46.0
3315,G6,351.5,1.0,69,46.0
3316,B-1,351.5,0.25,28,46.0
3317,B-2,351.5,0.25,28,46.0
3318,F#6,351.625,1.0,72,46.0
3319,G6,351.625,1.0,72,46.0
3320,F#6,351.75,0.083,77,46.0
3321,F6,351.833,0.083,79,46.0
3322,F#6,351.917,0.083,75,46.0
3323,A6,352.0,0.25,84,46.0
3324,G3,352.0,0.25,22,46.0
3325,G4,352.0,0.25,22,46.0
3326,E4,352.0,0.25,22,46.0
3327,C#4,352.0,0.25,22,46.0
3328,B-3,352.0,0.25,22,46.0
3329,G6,352.25,0.25,67,46.0
3330,G6,352.5,0.667,72,46.0
3331,G3,352.5,0.25,22,46.0
3332,G4,352.5,0.25,22,46.0
3333,E4,352.5,0.25,22,46.0
3334,C#4,352.5,0.25,22,46.0
3335,B-3,352.5,0.25,22,46.0
3336,B-1,353.0,0.25,27,46.0
3337,B-2,353.0,0.25,27,46.0
3338,E-6,353.167,0.167,69,46.0
3339,E6,353.333,0.167,72,46.0
3340,G6,353.5,0.167,72,46.0
3341,G3,353.5,0.25,22,46.0
3342,G4,353.5,0.25,22,46.0
3343,E4,353.5,0.25,22,46.0
3344,C#4,353.5,0.25,22,46.0
3345,B-3,353.5,0.25,22,46.0
3346,F#6,353.667,0.167,67,46.0
3347,E6,353.833,0.163,64,46.0
3348,E6,354.0,0.667,77,46.0
3349,C#4,354.0,0.25,22,46.0
3350,G4,354.0,0.25,22,46.0
3351,E4,354.0,0.25,22,46.0
3352,B-3,354.0,0.25,22,46.0
3353,G3,354.0,0.25,22,46.0
3354,B-1,354.5,0.25,28,46.0
3355,B-2,354.5,0.25,28,46.0
3356,C6,354.667,0.167,67,46.0
3357,C#6,354.833,0.167,64,46.0
3358,E6,355.0,0.167,76,46.0
3359,G3,355.0,0.25,22,46.0
3360,G4,355.0,0.25,22,46.0
3361,E4,355.0,0.25,22,46.0
3362,C#4,355.0,0.25,22,46.0
3363,B-3,355.0,0.25,22,46.0
3364,D6,355.167,0.167,67,46.0
3365,C#6,355.333,0.167,65,46.0
3366,B5,355.5,0.125,72,46.0
3367,F#3,355.5,0.25,22,46.0
3368,F#4,355.5,0.25,22,46.0
3369,E4,355.5,0.25,22,46.0
3370,C#4,355.5,0.25,22,46.0
3371,B-3,355.5,0.25,22,46.0
3372,B-5,355.625,0.125,62,46.0
3373,D6,355.75,0.125,66,46.0
3374,C#6,355.875,0.125,63,46.0
3375,C6,356.0,0.125,72,46.0
3376,B-1,356.0,0.25,27,46.0
3377,B-2,356.0,0.25,27,46.0
3378,C#6,356.125,0.125,63,46.0
3379,E5,356.25,0.125,66,46.0
3380,G5,356.375,0.125,60,46.0
3381,F5,356.5,0.125,72,46.0
3382,F#4,356.5,0.25,22,46.0
3383,F#3,356.5,0.25,22,46.0
3384,E4,356.5,0.25,22,46.0
3385,C#4,356.5,0.25,22,46.0
3386,B-3,356.5,0.25,22,46.0
3387,F#5,356.625,0.125,62,46.0
3388,C#5,356.75,0.125,66,46.0
3389,E5,356.875,0.125,61,46.0
3390,D5,357.0,0.5,66,46.0
3391,B3,357.0,0.25,22,46.0
3392,F#4,357.0,0.25,22,46.0
3393,D4,357.0,0.25,22,46.0
3394,F#3,357.0,0.25,22,46.0
3395,B5,357.5,0.75,70,46.0
3396,B1,357.5,0.25,28,46.0
3397,B2,357.5,0.25,28,46.0
3398,F#4,358.0,0.25,22,46.0
3399,D4,358.0,0.25,22,46.0
3400,B3,358.0,0.25,22,46.0
3401,F#3,358.0,0.25,22,46.0
3402,F#5,358.25,0.25,59,46.0
3403,G5,358.5,1.0,66,46.0
3404,F#4,358.5,0.25,22,46.0
3405,E4,358.5,0.25,22,46.0
3406,F#3,358.5,0.25,22,46.0
3407,B-3,358.5,0.25,22,46.0
3408,B-4,358.75,0.496,42,46.0
3409,E5,358.75,0.496,42,46.0
3410,C#2,359.0,0.25,27,46.0
3411,C#3,359.0,0.25,27,46.0
3412,B-4,359.25,0.496,40,46.0
3413,E5,359.25,0.496,40,46.0
3414,F#5,359.5,0.5,64,46.0
3415,F#4,359.5,0.25,22,46.0
3416,E4,359.5,0.25,22,46.0
3417,F#3,359.5,0.25,22,46.0
3418,B-3,359.5,0.25,22,46.0
3419,B-4,359.75,0.25,42,46.0
3420,E5,359.75,0.25,42,46.0
3421,F#5,360.0,0.125,66,46.0
3422,B4,360.0,0.5,43,46.0
3423,D5,360.0,0.5,43,46.0
3424,B3,360.0,0.25,24,46.0
3425,F#4,360.0,0.25,24,46.0
3426,D4,360.0,0.25,24,46.0
3427,F#3,360.0,0.25,24,46.0
3428,F#6,360.125,0.125,56,46.0
3429,C#6,360.25,0.125,59,46.0
3430,D6,360.375,0.125,55,46.0
3431,E6,360.5,0.125,66,46.0
3432,B1,360.5,0.25,30,46.0
3433,B2,360.5,0.25,30,46.0
3434,D6,360.625,0.125,57,46.0
3435,B-5,360.75,0.125,59,46.0
3436,B5,360.875,0.125,55,46.0
3437,C#6,361.0,0.125,66,46.0
3438,F#4,361.0,0.25,24,46.0
3439,D4,361.0,0.25,24,46.0
3440,B3,361.0,0.25,24,46.0
3441,F#3,361.0,0.25,24,46.0
3442,B5,361.125,0.125,60,46.0
3443,D6,361.25,0.083,66,46.0
3444,B5,361.333,0.083,57,46.0
3445,F#5,361.419,0.083,50,46.0
3446,A5,361.5,0.25,66,46.0
3447,F#4,361.5,0.25,25,46.0
3448,E4,361.5,0.25,25,46.0
3449,F#3,361.5,0.25,25,46.0
3450,B-3,361.5,0.25,25,46.0
3451,G5,361.75,0.496,41,46.0
3452,B-4,361.75,0.496,41,46.0
3453,E5,361.75,0.496,41,46.0
3454,C#2,362.0,0.25,31,46.0
3455,C#3,362.0,0.25,31,46.0
3456,E5,362.25,0.496,41,46.0
3457,B-4,362.25,0.496,41,46.0
3458,G5,362.25,0.496,41,46.0
3459,F#4,362.5,0.25,26,46.0
3460,E4,362.5,0.25,26,46.0
3461,F#3,362.5,0.25,26,46.0
3462,B-3,362.5,0.25,26,46.0
3463,F#5,362.75,0.25,44,46.0
3464,B-4,362.75,0.25,44,46.0
3465,E5,362.75,0.25,44,46.0
3466,F#5,363.0,0.744,72,46.0
3467,D5,363.0,0.248,61,46.0
3468,B4,363.0,0.248,61,46.0
3469,B3,363.0,0.25,31,46.0
3470,F#4,363.0,0.25,31,46.0
3471,D4,363.0,0.25,31,46.0
3472,F#3,363.0,0.25,31,46.0
3473,F#4,363.25,0.496,53,46.0
3474,D2,363.5,0.25,52,46.0
3475,D3,363.5,0.25,52,46.0
3476,F#4,363.75,0.496,65,46.0
3477,F#5,363.75,0.496,65,46.0
3478,D5,363.75,0.248,47,46.0
3479,B4,363.75,0.248,47,46.0
3480,B-4,364.0,0.248,54,46.0
3481,E5,364.0,0.248,54,46.0
3482,C#4,364.0,0.25,34,46.0
3483,F#3,364.0,0.25,34,46.0
3484,C#3,364.0,0.25,34,46.0
3485,B-4,364.25,0.248,58,46.0
3486,F#5,364.25,0.248,58,46.0
3487,F#4,364.25,0.248,58,46.0
3488,E5,364.25,0.248,58,46.0
3489,F#5,364.5,0.744,77,46.0
3490,B4,364.5,0.248,65,46.0
3491,F#4,364.5,0.248,65,46.0
3492,D5,364.5,0.248,65,46.0
3493,B3,364.5,0.25,34,46.0
3494,F#3,364.5,0.25,34,46.0
3495,B2,364.5,0.25,34,46.0
3496,B4,364.75,0.496,56,46.0
3497,B1,365.0,0.25,56,46.0
3498,B2,365.0,0.25,56,46.0
3499,D5,365.25,0.248,56,46.0
3500,F#5,365.25,0.248,56,46.0
3501,B4,365.25,0.496,69,46.0
3502,B5,365.25,0.496,69,46.0
3503,E-5,365.5,0.248,57,46.0
3504,F#5,365.5,0.248,57,46.0
3505,A3,365.5,0.25,37,46.0
3506,A2,365.5,0.25,37,46.0
3507,E-5,365.75,0.248,63,46.0
3508,B4,365.75,0.248,63,46.0
3509,F#5,365.75,0.248,63,46.0
3510,B5,365.75,0.248,63,46.0
3511,C5,366.0,0.248,66,46.0
3512,F#5,366.0,0.248,66,46.0
3513,E-5,366.0,0.248,66,46.0
3514,C6,366.0,0.248,66,46.0
3515,G#3,366.0,0.25,38,46.0
3516,G#2,366.0,0.25,38,46.0
3517,C5,366.25,0.496,66,46.0
3518,F#5,366.25,0.496,66,46.0
3519,E-5,366.25,0.496,66,46.0
3520,C6,366.25,0.496,66,46.0
3521,G#1,366.5,0.25,60,46.0
3522,G#2,366.5,0.25,60,46.0
3523,C5,366.75,0.496,72,46.0
3524,C6,366.75,0.496,72,46.0
3525,F#5,366.75,0.248,72,46.0
3526,E-5,366.75,0.248,72,46.0
3527,E-5,367.0,0.248,72,46.0
3528,A5,367.0,0.248,72,46.0
3529,F#3,367.0,0.25,40,46.0
3530,F#2,367.0,0.25,40,46.0
3531,C5,367.25,0.248,69,46.0
3532,A5,367.25,0.248,69,46.0
3533,C6,367.25,0.248,69,46.0
3534,E-5,367.25,0.248,69,46.0
3535,C#5,367.5,0.248,70,46.0
3536,C#6,367.5,0.248,70,46.0
3537,G#5,367.5,0.248,70,46.0
3538,F3,367.5,0.25,48,46.0
3539,F2,367.5,0.25,48,46.0
3540,G#5,367.75,0.496,71,46.0
3541,C#5,367.75,0.496,71,46.0
3542,C#6,367.75,0.496,71,46.0
3543,F3,367.75,0.25,50,46.0
3544,F4,367.75,0.25,50,46.0
3545,F2,368.0,0.25,60,46.0
3546,F3,368.0,0.25,60,46.0
3547,C#6,368.25,0.496,82,46.0
3548,C#5,368.25,0.248,75,46.0
3549,G#5,368.25,0.248,75,46.0
3550,F3,368.25,0.25,61,46.0
3551,F4,368.25,0.25,61,46.0
3552,F#5,368.5,0.248,76,46.0
3553,C#5,368.5,0.248,76,46.0
3554,E-3,368.5,0.25,52,46.0
3555,E-2,368.5,0.25,52,46.0
3556,F#5,368.75,0.248,69,46.0
3557,C#5,368.75,0.496,76,46.0
3558,C#6,368.75,0.496,76,46.0
3559,E-3,368.75,0.25,52,46.0
3560,E-4,368.75,0.25,52,46.0
3561,F5,369.0,0.25,67,46.0
3562,C#2,369.0,0.5,44,46.0
3563,C#3,369.0,0.5,44,46.0
3564,C6,369.25,0.25,62,46.0
3565,C5,369.25,0.25,62,46.0
3566,C#4,369.5,1.0,25,46.0
3567,E-6,369.5,0.25,59,46.0
3568,E-5,369.5,0.25,59,46.0
3569,F4,369.5,0.5,28,46.0
3570,G#4,369.5,0.5,28,46.0
3571,C#6,369.75,0.25,59,46.0
3572,C#5,369.75,0.25,59,46.0
3573,F#4,370.0,0.5,24,46.0
3574,B-4,370.0,0.75,29,46.0
3575,C6,370.0,0.25,58,46.0
3576,C5,370.0,0.25,58,46.0
3577,C#5,370.25,0.25,57,46.0
3578,C#6,370.25,0.25,57,46.0
3579,G4,370.5,0.25,25,46.0
3580,C#4,370.5,1.5,25,46.0
3581,E5,370.5,0.5,56,46.0
3582,E6,370.5,0.5,56,46.0
3583,B-4,370.75,0.25,28,46.0
3584,G4,370.75,0.25,28,46.0
3585,E-5,371.0,1.25,55,46.0
3586,E-6,371.0,1.25,55,46.0
3587,B-4,371.0,0.25,28,46.0
3588,C#5,371.0,0.25,28,46.0
3589,G#4,371.25,0.25,26,46.0
3590,B4,371.25,0.25,26,46.0
3591,G4,371.5,0.25,26,46.0
3592,B-4,371.5,0.25,26,46.0
3593,G#4,371.75,0.25,26,46.0
3594,B4,371.75,0.25,26,46.0
3595,C#4,372.0,1.5,27,46.0
3596,F#4,372.0,0.25,30,46.0
3597,B-4,372.0,0.25,30,46.0
3598,C6,372.25,0.25,50,46.0
3599,C5,372.25,0.25,50,46.0
3600,F#4,372.25,0.25,30,46.0
3601,A4,372.25,0.25,30,46.0
3602,E-6,372.5,0.25,58,46.0
3603,E-5,372.5,0.25,58,46.0
3604,F4,372.5,1.25,30,46.0
3605,G#4,372.5,1.25,30,46.0
3606,C#6,372.75,0.25,50,46.0
3607,C#5,372.75,0.25,50,46.0
3608,C6,373.0,0.25,56,46.0
3609,C5,373.0,0.25,56,46.0
3610,C#5,373.25,0.25,49,46.0
3611,C#6,373.25,0.25,49,46.0
3612,C#4,373.5,1.5,25,46.0
3613,E-5,373.5,0.5,54,46.0
3614,E-6,373.5,0.5,54,46.0
3615,G#4,373.75,0.25,28,46.0
3616,F4,373.75,0.25,28,46.0
3617,C#6,374.0,1.25,50,46.0
3618,C#5,374.0,1.25,50,46.0
3619,G#4,374.0,0.25,28,46.0
3620,B4,374.0,0.25,28,46.0
3621,F#4,374.25,0.25,26,46.0
3622,B-4,374.25,0.25,26,46.0
3623,F4,374.5,0.25,26,46.0
3624,G#4,374.5,0.25,26,46.0
3625,F#4,374.75,0.25,26,46.0
3626,B-4,374.75,0.25,26,46.0
3627,C#4,375.0,1.0,28,46.0
3628,E4,375.0,0.5,31,46.0
3629,G4,375.0,0.5,31,46.0
3630,B-4,375.25,0.25,52,46.0
3631,B-5,375.25,0.25,52,46.0
3632,C#5,375.5,0.25,61,46.0
3633,C#6,375.5,0.25,61,46.0
3634,F4,375.5,0.5,26,46.0
3635,G#4,375.5,0.5,26,46.0
3636,B4,375.75,0.25,54,46.0
3637,B5,375.75,0.25,54,46.0
3638,B-4,376.0,0.25,62,46.0
3639,B-5,376.0,0.25,62,46.0
3640,D4,376.0,0.5,35,46.0
3641,F4,376.0,0.5,35,46.0
3642,G#4,376.0,0.5,35,46.0
3643,B5,376.25,0.248,56,46.0
3644,B4,376.25,0.248,56,46.0
3645,G#4,376.5,0.25,35,46.0
3646,D4,376.5,0.5,29,46.0
3647,B4,376.5,0.25,62,46.0
3648,B5,376.5,0.25,62,46.0
3649,F4,376.75,0.25,31,46.0
3650,G#4,376.75,0.25,56,46.0
3651,G#5,376.75,0.25,56,46.0
3652,E-4,377.0,0.5,33,46.0
3653,G#4,377.0,0.25,39,46.0
3654,B4,377.0,0.25,62,46.0
3655,B5,377.0,0.25,62,46.0
3656,F#4,377.25,0.25,34,46.0
3657,B-4,377.25,0.25,57,46.0
3658,B-5,377.25,0.25,57,46.0
3659,C4,377.5,0.5,34,46.0
3660,F4,377.5,0.25,40,46.0
3661,G#4,377.5,0.25,62,46.0
3662,G#5,377.5,0.25,62,46.0
3663,F#4,377.75,0.25,35,46.0
3664,A4,377.75,0.244,57,46.0
3665,A5,377.75,0.244,57,46.0
3666,C4,378.0,0.5,39,46.0
3667,F#4,378.0,0.25,46,46.0
3668,A4,378.0,0.5,68,46.0
3669,A5,378.0,0.5,68,46.0
3670,E-4,378.25,0.25,40,46.0
3671,B3,378.5,0.5,38,46.0
3672,F#4,378.5,0.25,45,46.0
3673,G#5,378.5,0.5,62,46.0
3674,C#5,378.5,0.5,62,46.0
3675,G#4,378.5,0.5,62,46.0
3676,F4,378.75,0.25,40,46.0
3677,C#5,379.0,0.75,63,46.0
3678,F#5,379.0,0.5,75,46.0
3679,B-3,379.0,0.5,42,46.0
3680,F#4,379.0,0.25,50,46.0
3681,C#4,379.25,0.25,40,46.0
3682,B5,379.5,0.5,78,46.0
3683,F#4,379.5,0.25,50,46.0
3684,G#3,379.5,0.5,42,46.0
3685,C#4,379.5,0.5,42,46.0
3686,C#5,379.75,0.25,67,46.0
3687,F4,379.75,0.25,40,46.0
3688,G#5,380.0,0.25,67,46.0
3689,B-5,380.0,0.5,79,46.0
3690,F#3,380.0,0.5,47,46.0
3691,C#4,380.0,0.5,47,46.0
3692,F#4,380.0,0.5,47,46.0
3693,F#5,380.25,0.25,67,46.0
3694,F5,380.5,0.25,69,46.0
3695,E-6,380.5,1.0,82,46.0
3696,B2,380.5,0.5,43,46.0
3697,B3,380.5,0.5,43,46.0
3698,F#5,380.75,0.25,70,46.0
3699,B2,381.0,0.5,46,46.0
3700,B3,381.0,0.25,55,46.0
3701,E-5,381.0,0.5,80,46.0
3702,F#5,381.0,0.5,80,46.0
3703,F3,381.25,0.25,47,46.0
3704,B-2,381.5,0.5,45,46.0
3705,G#3,381.5,0.25,54,46.0
3706,F#5,381.5,0.5,72,46.0
3707,C#6,381.5,0.5,72,46.0
3708,C#5,381.5,0.5,72,46.0
3709,F#3,381.75,0.25,49,46.0
3710,A2,382.0,0.5,46,46.0
3711,F3,382.0,0.25,55,46.0
3712,F#6,382.0,1.0,86,46.0
3713,F#5,382.0,1.0,86,46.0
3714,E-3,382.25,0.25,50,46.0
3715,C3,382.5,0.25,57,46.0
3716,G#2,382.5,0.5,48,46.0
3717,C#3,382.75,0.25,52,46.0
3718,E-2,383.0,0.25,61,46.0
3719,F6,383.0,0.5,83,46.0
3720,F5,383.0,0.5,83,46.0
3721,C#2,383.25,0.25,51,46.0
3722,C2,383.5,0.25,64,46.0
3723,B6,383.5,1.25,86,46.0
3724,B5,383.5,1.25,86,46.0
3725,F6,383.5,1.25,86,46.0
3726,G#6,383.5,1.25,86,46.0
3727,C#2,383.75,0.25,58,46.0
3728,C#2,384.0,0.25,72,46.0
3729,G#3,384.25,0.25,32,46.0
3730,F3,384.5,0.25,36,46.0
3731,B4,384.75,0.25,36,46.0
3732,B3,384.75,0.25,31,46.0
3733,G#4,385.0,0.25,40,46.0
3734,G#3,385.0,0.25,36,46.0
3735,D5,385.25,0.25,36,46.0
3736,D4,385.25,0.25,28,46.0
3737,C5,385.5,0.25,40,46.0
3738,C4,385.5,0.25,34,46.0
3739,C#5,385.75,0.25,36,46.0
3740,C#4,385.75,0.25,30,46.0
3741,G#4,386.0,0.25,40,46.0
3742,G#3,386.0,0.25,34,46.0
3743,E-5,386.25,0.25,36,46.0
3744,E-4,386.25,0.25,29,46.0
3745,C#5,386.5,0.25,40,46.0
3746,C#4,386.5,0.25,34,46.0
3747,B4,386.75,0.25,35,46.0
3748,B3,386.75,0.25,30,46.0
3749,B-4,387.0,0.5,49,46.0
3750,F#3,387.0,2.5,32,46.0
3751,B-3,387.0,0.25,38,46.0
3752,E-4,387.25,0.25,33,46.0
3753,C4,387.5,0.25,38,46.0
3754,C#4,387.75,0.25,34,46.0
3755,F#2,388.0,1.5,58,46.0
3756,B-3,388.0,0.25,38,46.0
3757,E-4,388.25,0.25,33,46.0
3758,C4,388.5,0.25,38,46.0
3759,C#4,388.75,0.25,33,46.0
3760,B-3,389.0,0.25,38,46.0
3761,E-4,389.25,0.25,34,46.0
3762,F#2,389.5,0.25,52,46.0
3763,F#3,389.5,0.5,32,46.0
3764,B-3,389.5,0.25,38,46.0
3765,C#2,389.75,0.246,46,46.0
3766,C#4,389.75,0.25,34,46.0
3767,C#2,390.0,1.496,52,46.0
3768,F3,390.0,0.5,32,46.0
3769,G#3,390.0,0.25,38,46.0
3770,C#4,390.25,0.25,33,46.0
3771,F#3,390.5,0.5,32,46.0
3772,B-3,390.5,0.25,38,46.0
3773,C#4,390.75,0.25,34,46.0
3774,G#3,391.0,0.5,34,46.0
3775,B3,391.0,0.25,41,46.0
3776,C#4,391.25,0.25,36,46.0
3777,C#2,391.5,0.996,52,46.0
3778,G#3,391.5,0.5,34,46.0
3779,B3,391.5,0.25,40,46.0
3780,C#4,391.75,0.25,34,46.0
3781,F#3,392.0,0.5,32,46.0
3782,B-3,392.0,0.25,38,46.0
3783,C#4,392.25,0.25,32,46.0
3784,C#2,392.5,0.496,52,46.0
3785,F3,392.5,0.5,31,46.0
3786,G#3,392.5,0.25,37,46.0
3787,C#4,392.75,0.25,34,46.0
3788,B-1,393.0,0.5,52,46.0
3789,F#3,393.0,2.5,32,46.0
3790,B-3,393.0,0.25,38,46.0
3791,E-4,393.25,0.25,33,46.0
3792,C4,393.5,0.25,38,46.0
3793,C#4,393.75,0.25,34,46.0
3794,B-3,394.0,0.25,38,46.0
3795,F#6,394.0,1.494,57,46.0
3796,F#5,394.0,1.494,57,46.0
3797,E-4,394.25,0.25,33,46.0
3798,C4,394.5,0.25,38,46.0
3799,C#4,394.75,0.25,33,46.0
3800,B-3,395.0,0.25,38,46.0
3801,E-4,395.25,0.25,28,46.0
3802,F#3,395.5,0.5,27,46.0
3803,B-3,395.5,0.25,32,46.0
3804,F#6,395.5,0.248,52,46.0
3805,F#5,395.5,0.248,52,46.0
3806,C#4,395.75,0.25,28,46.0
3807,C#6,395.75,0.248,45,46.0
3808,C#5,395.75,0.248,45,46.0
3809,F3,396.0,0.5,32,46.0
3810,G#3,396.0,0.25,38,46.0
3811,C#6,396.0,1.485,52,46.0
3812,C#5,396.0,1.485,52,46.0
3813,C#4,396.25,0.25,33,46.0
3814,F#3,396.5,0.5,32,46.0
3815,B-3,396.5,0.25,38,46.0
3816,C#4,396.75,0.25,34,46.0
3817,G#3,397.0,0.5,34,46.0
3818,B3,397.0,0.25,41,46.0
3819,C#4,397.25,0.25,36,46.0
3820,G#3,397.5,0.5,34,46.0
3821,B3,397.5,0.25,40,46.0
3822,C#6,397.5,0.99,52,46.0
3823,C#5,397.5,0.99,52,46.0
3824,C#4,397.75,0.25,34,46.0
3825,F#3,398.0,0.5,32,46.0
3826,B-3,398.0,0.25,38,46.0
3827,C#4,398.25,0.25,32,46.0
3828,F3,398.5,0.5,26,46.0
3829,G#3,398.5,0.25,31,46.0
3830,C#6,398.5,0.496,52,46.0
3831,C#5,398.5,0.496,52,46.0
3832,C#4,398.75,0.25,28,46.0
3833,F#3,399.0,2.5,32,46.0
3834,B-3,399.0,0.169,38,46.0
3835,B-5,399.0,0.5,49,46.0
3836,B-4,399.0,0.5,49,46.0
3837,E-4,399.169,0.167,33,46.0
3838,C#4,399.333,0.167,33,46.0
3839,C4,399.5,0.169,38,46.0
3840,E-4,399.667,0.167,34,46.0
3841,C#4,399.833,0.125,34,46.0
3842,F#2,400.0,0.99,58,46.0
3843,B-3,400.0,0.169,38,46.0
3844,E-4,400.169,0.167,33,46.0
3845,C#4,400.333,0.125,33,46.0
3846,C4,400.5,0.169,38,46.0
3847,E-4,400.667,0.167,33,46.0
3848,C#4,400.833,0.125,33,46.0
3849,F#2,401.0,0.496,58,46.0
3850,B-3,401.0,0.169,38,46.0
3851,E-4,401.169,0.167,34,46.0
3852,C#4,401.333,0.125,34,46.0
3853,F#2,401.5,0.167,56,46.0
3854,F#3,401.5,0.5,32,46.0
3855,B-3,401.5,0.169,38,46.0
3856,F2,401.667,0.167,50,46.0
3857,D4,401.667,0.167,34,46.0
3858,F#2,401.833,0.125,50,46.0
3859,C#4,401.833,0.125,34,46.0
3860,C#2,402.0,0.99,52,46.0
3861,F3,402.0,0.5,32,46.0
3862,G#3,402.0,0.169,38,46.0
3863,E-4,402.167,0.167,33,46.0
3864,C#4,402.333,0.125,33,46.0
3865,F#3,402.5,0.5,32,46.0
3866,B-3,402.5,0.169,38,46.0
3867,E-4,402.667,0.167,34,46.0
3868,C#4,402.833,0.125,34,46.0
3869,C#2,403.0,0.99,52,46.0
3870,G#3,403.0,0.5,34,46.0
3871,B3,403.0,0.169,41,46.0
3872,E-4,403.167,0.167,36,46.0
3873,C#4,403.333,0.125,36,46.0
3874,G#3,403.5,0.5,34,46.0
3875,B3,403.5,0.169,40,46.0
3876,E-4,403.667,0.167,34,46.0
3877,C#4,403.833,0.125,34,46.0
3878,C#2,404.0,0.99,52,46.0
3879,F#3,404.0,0.5,32,46.0
3880,B-3,404.0,0.169,38,46.0
3881,E-4,404.167,0.167,32,46.0
3882,C#4,404.333,0.125,32,46.0
3883,F3,404.5,0.5,31,46.0
3884,G#3,404.5,0.169,37,46.0
3885,E-4,404.667,0.167,34,46.0
3886,C#4,404.833,0.125,34,46.0
3887,B-1,405.0,0.5,52,46.0
3888,F#3,405.0,2.5,32,46.0
3889,B-3,405.0,0.169,38,46.0
3890,E-4,405.169,0.167,33,46.0
3891,C#4,405.333,0.167,33,46.0
3892,C4,405.5,0.169,39,46.0
3893,E-4,405.667,0.167,34,46.0
3894,C#4,405.833,0.125,35,46.0
3895,B-3,406.0,0.169,39,46.0
3896,F#6,406.0,1.485,63,46.0
3897,F#5,406.0,1.485,63,46.0
3898,E-4,406.169,0.167,34,46.0
3899,C#4,406.333,0.125,35,46.0
3900,C4,406.5,0.169,41,46.0
3901,E-4,406.667,0.167,35,46.0
3902,C#4,406.833,0.125,36,46.0
3903,B-3,407.0,0.169,42,46.0
3904,E-4,407.169,0.167,38,46.0
3905,C#4,407.333,0.125,34,46.0
3906,F#3,407.5,0.5,32,46.0
3907,B-3,407.5,0.169,38,46.0
3908,F#6,407.5,0.169,61,46.0
3909,F#5,407.5,0.169,61,46.0
3910,D4,407.667,0.167,34,46.0
3911,F5,407.667,0.167,54,46.0
3912,F6,407.667,0.167,54,46.0
3913,C#4,407.833,0.125,34,46.0
3914,F#5,407.833,0.167,54,46.0
3915,F#6,407.833,0.167,54,46.0
3916,F3,408.0,0.5,39,46.0
3917,G#3,408.0,0.169,47,46.0
3918,C#6,408.0,0.99,63,46.0
3919,C#5,408.0,0.99,63,46.0
3920,E-4,408.167,0.167,41,46.0
3921,C#4,408.333,0.125,41,46.0
3922,F#3,408.5,0.5,40,46.0
3923,B-3,408.5,0.169,49,46.0
3924,E-4,408.667,0.167,44,46.0
3925,C#4,408.833,0.125,46,46.0
3926,G#3,409.0,0.5,47,46.0
3927,B3,409.0,0.169,57,46.0
3928,C#5,409.0,0.99,66,46.0
3929,C#6,409.0,0.99,66,46.0
3930,E-4,409.167,0.167,51,46.0
3931,C#4,409.333,0.125,53,46.0
3932,G#3,409.5,0.5,50,46.0
3933,B3,409.5,0.169,60,46.0
3934,E-4,409.667,0.167,51,46.0
3935,C#4,409.833,0.125,51,46.0
3936,F#3,410.0,0.5,49,46.0
3937,B-3,410.0,0.169,58,46.0
3938,C#5,410.0,0.833,68,46.0
3939,C#6,410.0,0.833,68,46.0
3940,E-4,410.167,0.167,49,46.0
3941,C#4,410.333,0.125,50,46.0
3942,F3,410.5,0.5,49,46.0
3943,G#3,410.5,0.169,58,46.0
3944,C#4,410.667,0.167,53,46.0
3945,B3,410.833,0.125,40,46.0
3946,B4,410.833,0.167,48,46.0
3947,B5,410.833,0.167,48,46.0
3948,B-3,411.0,0.167,40,46.0
3949,F#3,411.0,1.5,50,46.0
3950,B-4,411.0,0.5,50,46.0
3951,B-5,411.0,0.5,50,46.0
3952,C#4,411.167,0.167,36,46.0
3953,B3,411.333,0.167,36,46.0
3954,B-4,411.5,0.167,40,46.0
3955,B-5,411.5,1.0,55,46.0
3956,B-3,411.5,0.167,40,46.0
3957,G#5,411.667,0.167,40,46.0
3958,B3,411.667,0.167,38,46.0
3959,F#5,411.833,0.167,40,46.0
3960,C#4,411.833,0.167,38,46.0
3961,F5,412.0,0.167,50,46.0
3962,E-4,412.0,0.167,40,46.0
3963,E-5,412.167,0.167,41,46.0
3964,F4,412.167,0.167,37,46.0
3965,C#5,412.333,0.167,43,46.0
3966,F#4,412.333,0.167,37,46.0
3967,B4,412.5,0.167,50,46.0
3968,B5,412.5,1.5,55,46.0
3969,G#4,412.5,0.667,40,46.0
3970,G#3,412.5,1.5,50,46.0
3971,C#5,412.667,0.167,42,46.0
3972,B-4,412.833,0.167,42,46.0
3973,B4,413.0,0.167,50,46.0
3974,C#5,413.167,0.167,40,46.0
3975,F#4,413.167,0.167,36,46.0
3976,E-5,413.333,0.167,40,46.0
3977,F4,413.333,0.167,36,46.0
3978,F5,413.5,0.167,50,46.0
3979,E-4,413.5,0.167,40,46.0
3980,F#5,413.667,0.167,41,46.0
3981,C#4,413.667,0.167,35,46.0
3982,G#5,413.833,0.167,41,46.0
3983,B3,413.833,0.167,35,46.0
3984,F4,414.0,0.167,40,46.0
3985,B-3,414.0,1.5,50,46.0
3986,C#5,414.0,0.5,52,46.0
3987,C#6,414.0,0.5,52,46.0
3988,F#4,414.167,0.167,36,46.0
3989,F4,414.333,0.167,37,46.0
3990,B-5,414.5,0.167,42,46.0
3991,C#6,414.5,1.0,57,46.0
3992,C#4,414.5,0.167,42,46.0
3993,G#5,414.667,0.167,42,46.0
3994,E-4,414.667,0.167,40,46.0
3995,F#5,414.833,0.167,43,46.0
3996,E4,414.833,0.167,41,46.0
3997,E5,415.0,0.167,55,46.0
3998,F#4,415.0,0.167,44,46.0
3999,E-5,415.167,0.167,45,46.0
4000,G#4,415.167,0.167,41,46.0
4001,C#5,415.333,0.333,48,46.0
4002,B-4,415.333,0.167,41,46.0
4003,E-6,415.5,1.5,67,46.0
4004,B4,415.5,0.5,46,46.0
4005,B3,415.5,1.5,57,46.0
4006,E-5,415.667,0.167,48,46.0
4007,E5,415.833,0.167,49,46.0
4008,E-5,416.0,0.167,60,46.0
4009,B4,416.0,0.167,48,46.0
4010,F5,416.167,0.167,48,46.0
4011,B-4,416.167,0.167,43,46.0
4012,F#5,416.333,0.167,49,46.0
4013,G#4,416.333,0.167,44,46.0
4014,G#5,416.5,0.167,62,46.0
4015,F#4,416.5,0.167,50,46.0
4016,B-5,416.667,0.167,51,46.0
4017,F4,416.667,0.167,44,46.0
4018,B5,416.833,0.333,52,46.0
4019,E-4,416.833,0.167,44,46.0
4020,F6,417.0,0.5,71,46.0
4021,C#4,417.0,1.0,65,46.0
4022,B5,417.167,0.167,53,46.0
4023,F4,417.167,0.167,47,46.0
4024,B-5,417.333,0.167,54,46.0
4025,F#4,417.333,0.167,47,46.0
4026,G#5,417.5,0.167,54,46.0
4027,G#4,417.5,0.167,54,46.0
4028,F#5,417.667,0.167,54,46.0
4029,B-4,417.667,0.167,51,46.0
4030,F5,417.833,0.167,55,46.0
4031,B4,417.833,0.167,52,46.0
4032,F#6,418.0,0.5,77,46.0
4033,F#5,418.0,0.167,70,46.0
4034,E-4,418.0,0.5,70,46.0
4035,B-4,418.0,0.167,56,46.0
4036,G#5,418.167,0.167,57,46.0
4037,G#4,418.167,0.167,52,46.0
4038,B-5,418.333,0.167,61,46.0
4039,F#4,418.333,0.167,52,46.0
4040,G#5,418.5,0.167,72,46.0
4041,G#6,418.5,1.0,84,46.0
4042,F4,418.5,1.0,72,46.0
4043,B5,418.667,0.167,61,46.0
4044,G#4,418.667,0.167,52,46.0
4045,B-5,418.833,0.167,62,46.0
4046,B-4,418.833,0.167,53,46.0
4047,G#5,419.0,0.167,75,46.0
4048,B4,419.0,0.167,60,46.0
4049,B-5,419.167,0.167,60,46.0
4050,C#5,419.167,0.167,57,46.0
4051,B5,419.333,0.167,61,46.0
4052,E-5,419.333,0.167,58,46.0
4053,B-6,419.5,0.5,91,46.0
4054,B-5,419.5,0.167,77,46.0
4055,F#4,419.5,0.5,77,46.0
4056,C#5,419.5,0.167,62,46.0
4057,B5,419.667,0.167,63,46.0
4058,B4,419.667,0.167,57,46.0
4059,C#6,419.833,0.333,64,46.0
4060,B-4,419.833,0.167,58,46.0
4061,B6,420.0,0.5,96,46.0
4062,E5,420.0,0.167,58,46.0
4063,G#4,420.0,0.5,72,46.0
4064,B-5,420.167,0.167,61,46.0
4065,C#5,420.167,0.167,52,46.0
4066,B5,420.333,0.167,62,46.0
4067,E-5,420.333,0.167,53,46.0
4068,C#6,420.5,0.5,74,46.0
4069,G5,420.5,0.167,63,46.0
4070,B-4,420.5,0.5,61,46.0
4071,E5,420.5,0.167,51,46.0
4072,F#5,420.667,0.167,51,46.0
4073,B-3,420.667,0.333,48,46.0
4074,F#4,420.667,0.167,48,46.0
4075,E5,420.833,0.167,51,46.0
4076,G4,420.833,0.167,49,46.0
4077,E-6,421.0,0.5,70,46.0
4078,E-5,421.0,0.167,65,46.0
4079,B3,421.0,0.5,65,46.0
4080,F#4,421.0,0.167,52,46.0
4081,E5,421.167,0.167,53,46.0
4082,E4,421.167,0.167,48,46.0
4083,F#5,421.333,0.333,54,46.0
4084,E-4,421.333,0.167,52,46.0
4085,A5,421.5,1.0,70,46.0
4086,E-4,421.5,0.167,48,46.0
4087,C4,421.5,1.0,52,46.0
4088,F5,421.667,0.167,48,46.0
4089,F4,421.667,0.167,47,46.0
4090,E-5,421.833,0.167,47,46.0
4091,F#4,421.833,0.167,39,46.0
4092,C5,422.0,0.167,52,46.0
4093,A4,422.0,0.167,45,46.0
4094,C#5,422.167,0.167,46,46.0
4095,G#4,422.167,0.167,38,46.0
4096,E-5,422.333,0.167,45,46.0
4097,F#4,422.333,0.167,37,46.0
4098,F5,422.5,0.167,47,46.0
4099,G#5,422.5,0.5,58,46.0
4100,C#4,422.5,0.167,43,46.0
4101,B3,422.5,0.5,38,46.0
4102,D5,422.667,0.167,44,46.0
4103,F4,422.667,0.167,36,46.0
4104,C#5,422.833,0.167,43,46.0
4105,G#4,422.833,0.167,35,46.0
4106,E5,423.0,1.0,51,46.0
4107,G5,423.0,1.5,56,46.0
4108,C#6,423.0,1.5,56,46.0
4109,B-4,423.0,1.5,42,46.0
4110,C#5,423.0,1.5,42,46.0
4111,E-5,424.0,0.5,51,46.0
4112,E-6,424.5,1.0,47,46.0
4113,B-5,424.5,1.0,47,46.0
4114,E-5,424.5,1.0,47,46.0
4115,G4,424.5,1.0,35,46.0
4116,B-4,424.5,1.0,35,46.0
4117,C#5,425.5,0.5,46,46.0
4118,E-5,425.5,0.5,46,46.0
4119,B-5,425.5,0.5,46,46.0
4120,E-4,425.5,0.5,28,46.0
4121,G4,425.5,0.5,28,46.0
4122,B-4,426.0,0.25,41,46.0
4123,C#5,426.0,0.25,56,46.0
4124,C#6,426.0,0.25,56,46.0
4125,G4,426.25,0.25,37,46.0
4126,B-4,426.25,0.25,52,46.0
4127,B-5,426.25,0.25,52,46.0
4128,G#3,426.5,0.5,36,46.0
4129,G#4,426.5,0.25,46,46.0
4130,B5,426.5,0.25,68,46.0
4131,B4,426.5,0.25,68,46.0
4132,E-4,426.75,0.25,37,46.0
4133,E-5,426.75,0.25,66,46.0
4134,E-6,426.75,0.25,66,46.0
4135,B2,427.0,0.5,49,46.0
4136,C#4,427.0,0.25,49,46.0
4137,B-6,427.0,0.25,73,46.0
4138,B-5,427.0,0.25,73,46.0
4139,B3,427.25,0.25,47,46.0
4140,G#6,427.25,0.5,68,46.0
4141,G#5,427.25,0.5,68,46.0
4142,C#3,427.5,0.5,50,46.0
4143,B-3,427.5,0.5,50,46.0
4144,F#6,427.75,0.5,66,46.0
4145,F#5,427.75,0.5,66,46.0
4146,C#2,428.0,0.25,40,46.0
4147,B-2,428.0,0.25,40,46.0
4148,F#4,428.25,0.25,60,46.0
4149,B-4,428.25,0.25,60,46.0
4150,F#5,428.25,0.25,60,46.0
4151,C#2,428.25,0.375,40,46.0
4152,C#3,428.25,0.375,40,46.0
4153,F4,428.5,0.25,62,46.0
4154,F5,428.5,0.25,62,46.0
4155,G#4,428.5,0.25,62,46.0
4156,B1,428.625,0.125,49,46.0
4157,B2,428.625,0.125,49,46.0
4158,C#5,428.75,0.25,67,46.0
4159,E4,428.75,0.25,67,46.0
4160,E5,428.75,0.25,67,46.0
4161,G4,428.75,0.25,67,46.0
4162,B-1,428.75,0.125,50,46.0
4163,B-2,428.75,0.125,50,46.0
4164,B1,428.875,0.125,52,46.0
4165,B2,428.875,0.125,52,46.0
4166,B-1,429.0,0.125,52,46.0
4167,E4,429.0,1.0,48,46.0
4168,G4,429.0,1.0,48,46.0
4169,C#5,429.0,1.0,48,46.0
4170,E5,429.0,1.0,48,46.0
4171,C#2,429.125,0.125,44,46.0
4172,E2,429.25,0.125,43,46.0
4173,G2,429.375,0.125,42,46.0
4174,B-2,429.5,0.125,41,46.0
4175,C#3,429.625,0.125,40,46.0
4176,E3,429.75,0.125,39,46.0
4177,G3,429.875,0.125,38,46.0
4178,C#5,430.0,0.125,40,46.0
4179,E5,430.0,0.25,51,46.0
4180,B-3,430.0,0.125,36,46.0
4181,C#4,430.0,0.125,36,46.0
4182,G4,430.125,0.125,40,46.0
4183,E4,430.125,0.125,27,46.0
4184,E-5,430.25,0.25,40,46.0
4185,B4,430.25,0.125,40,46.0
4186,B3,430.25,0.125,27,46.0
4187,F#4,430.375,0.125,40,46.0
4188,E-4,430.375,0.125,27,46.0
4189,D4,430.5,1.0,30,46.0
4190,F#4,430.5,1.0,30,46.0
4191,B-4,430.5,1.0,30,46.0
4192,D5,430.5,1.0,30,46.0
4193,B2,430.5,1.0,24,46.0
4194,B3,430.5,1.0,24,46.0
4195,C#5,432.0,1.25,61,46.0
4196,C#2,432.0,0.167,39,46.0
4197,F#4,432.0,1.0,51,46.0
4198,B-4,432.0,1.0,51,46.0
4199,C#4,432.0,1.0,51,46.0
4200,F#2,432.167,0.167,34,46.0
4201,B-2,432.333,0.167,34,46.0
4202,C#3,432.5,0.167,31,46.0
4203,F#3,432.667,0.167,31,46.0
4204,B-3,432.833,0.167,31,46.0
4205,B-4,433.0,0.125,40,46.0
4206,C#3,433.0,0.25,39,46.0
4207,F#3,433.0,0.125,38,46.0
4208,F#4,433.125,0.125,40,46.0
4209,B-3,433.125,0.125,34,46.0
4210,A4,433.25,0.125,40,46.0
4211,C5,433.25,0.25,40,46.0
4212,E-3,433.25,0.25,28,46.0
4213,F#3,433.25,0.125,34,46.0
4214,F#4,433.375,0.125,40,46.0
4215,A3,433.375,0.125,34,46.0
4216,F4,433.5,0.5,42,46.0
4217,B4,433.5,0.5,42,46.0
4218,G#4,433.5,0.5,42,46.0
4219,D4,433.5,0.5,42,46.0
4220,D3,433.5,0.5,34,46.0
4221,F3,433.5,0.5,34,46.0
4222,G#3,433.5,0.5,34,46.0
4223,B3,433.5,0.5,34,46.0
4224,D3,434.0,0.75,26,46.0
4225,F3,434.0,0.75,26,46.0
4226,G#3,434.0,0.75,26,46.0
4227,B3,434.0,0.75,26,46.0
4228,E-3,434.75,0.25,24,46.0
4229,G3,434.75,0.25,24,46.0
4230,B-3,434.75,0.25,24,46.0
4231,E-3,435.0,0.99,27,46.0
4232,G3,435.0,0.99,27,46.0
4233,B-3,435.0,0.99,27,46.0
4234,E-3,436.0,0.496,23,46.0
4235,G3,436.0,0.496,23,46.0
4236,B-3,436.0,0.496,23,46.0
4237,E-4,436.0,0.496,23,46.0
4238,G4,436.5,0.99,42,46.0
4239,B-4,436.5,0.99,42,46.0
4240,E-3,436.5,0.99,26,46.0
4241,G3,436.5,0.99,26,46.0
4242,B-3,436.5,0.99,26,46.0
4243,E-4,436.5,0.99,26,46.0
4244,G4,437.5,0.5,38,46.0
4245,B-4,437.5,0.5,38,46.0
4246,E-5,437.5,0.5,38,46.0
4247,E-3,437.5,0.496,23,46.0
4248,G3,437.5,0.496,23,46.0
4249,B-3,437.5,0.496,23,46.0
4250,E-4,437.5,0.496,23,46.0
4251,G4,438.0,1.0,40,46.0
4252,E-4,438.0,1.0,40,46.0
4253,B-4,438.0,1.0,40,46.0
4254,E-5,438.0,1.0,40,46.0
4255,E-2,438.0,0.5,28,46.0
4256,E-3,438.0,0.5,28,46.0
4257,B-1,438.5,1.0,28,46.0
4258,B-2,438.5,1.0,28,46.0
4259,E-4,439.0,0.5,39,46.0
4260,E-5,439.0,0.5,39,46.0
4261,G4,439.0,0.5,39,46.0
4262,E-4,439.5,0.5,40,46.0
4263,F#4,439.5,0.5,40,46.0
4264,E-5,439.5,0.5,40,46.0
4265,B1,439.5,0.5,28,46.0
4266,B2,439.5,0.5,28,46.0
4267,C#4,440.0,1.0,37,46.0
4268,C#5,440.0,1.0,37,46.0
4269,F4,440.0,1.0,37,46.0
4270,C#2,440.0,1.0,23,46.0
4271,C#3,440.0,1.0,23,46.0
4272,C#4,441.0,1.0,36,46.0
4273,F#4,441.0,1.0,36,46.0
4274,B-4,441.0,1.0,36,46.0
4275,C#5,441.0,1.0,36,46.0
4276,F#1,441.0,1.0,22,46.0
4277,F#2,441.0,1.0,22,46.0
4278,B-4,442.0,0.5,33,46.0
4279,B-3,442.0,0.5,22,46.0
4280,C#4,442.5,1.0,42,46.0
4281,C#3,442.5,1.0,24,46.0
4282,C#5,443.5,0.5,36,46.0
4283,C#4,443.5,0.5,21,46.0
4284,B-4,444.0,1.0,40,46.0
4285,B-3,444.0,1.0,24,46.0
4286,B-5,445.0,0.5,52,46.0
4287,C#5,445.0,0.5,52,46.0
4288,B-4,445.0,0.5,52,46.0
4289,C#2,445.0,1.0,31,46.0
4290,C#3,445.0,1.0,31,46.0
4291,G#4,445.5,1.0,56,46.0
4292,G#5,445.5,1.0,56,46.0
4293,B4,445.5,1.0,56,46.0
4294,E-2,446.0,0.25,34,46.0
4295,E-3,446.0,0.25,34,46.0
4296,C#2,446.25,0.25,34,46.0
4297,C#3,446.25,0.25,34,46.0
4298,C#5,446.5,0.5,45,46.0
4299,B4,446.5,0.5,45,46.0
4300,G#4,446.5,0.5,45,46.0
4301,C#4,446.5,0.5,45,46.0
4302,E-3,446.5,0.25,29,46.0
4303,C#3,446.5,0.25,29,46.0
4304,E-2,446.5,0.25,29,46.0
4305,F2,446.75,0.25,29,46.0
4306,C#3,446.75,0.25,29,46.0
4307,F3,446.75,0.25,29,46.0
4308,C#5,447.0,1.0,48,46.0
4309,C#4,447.0,1.0,48,46.0
4310,B-4,447.0,1.0,48,46.0
4311,C#3,447.0,1.0,32,46.0
4312,F#2,447.0,1.0,32,46.0
4313,F#3,447.0,1.0,32,46.0
4314,B-5,448.0,0.5,51,46.0
4315,B-4,448.0,0.5,33,46.0
4316,C#5,448.5,1.0,50,46.0
4317,C#4,448.5,1.0,37,46.0
4318,C#6,449.5,0.5,54,46.0
4319,C#5,449.5,0.5,54,46.0
4320,B-1,449.5,0.5,31,46.0
4321,B-2,449.5,0.5,31,46.0
4322,B-4,450.0,1.0,59,46.0
4323,B-5,450.0,1.0,59,46.0
4324,C#2,450.0,0.5,37,46.0
4325,C#3,450.0,0.5,37,46.0
4326,C#3,450.5,0.5,31,46.0
4327,C#4,450.5,0.5,31,46.0
4328,C#5,451.0,1.0,57,46.0
4329,C#6,451.0,1.0,57,46.0
4330,B-2,451.0,0.5,32,46.0
4331,C#3,451.0,0.5,32,46.0
4332,B-3,451.0,0.5,32,46.0
4333,G#2,451.5,1.0,38,46.0
4334,C#3,451.5,1.0,38,46.0
4335,G#3,451.5,1.0,38,46.0
4336,C#6,452.0,0.25,56,46.0
4337,E-5,452.0,0.5,62,46.0
4338,E-6,452.0,0.5,62,46.0
4339,B5,452.25,0.25,61,46.0
4340,B-5,452.5,0.25,67,46.0
4341,F6,452.5,0.5,62,46.0
4342,F5,452.5,0.5,62,46.0
4343,C#2,452.5,0.5,37,46.0
4344,C#3,452.5,0.5,37,46.0
4345,B5,452.75,0.25,60,46.0
4346,B-5,453.0,1.5,60,46.0
4347,F#6,453.0,1.5,60,46.0
4348,F#5,453.0,1.5,60,46.0
4349,F#2,453.0,1.5,38,46.0
4350,C#3,453.0,1.5,38,46.0
4351,F#3,453.0,1.5,38,46.0
4352,G#5,454.5,1.5,51,46.0
4353,F6,454.5,1.5,51,46.0
4354,G#6,454.5,1.5,51,46.0
4355,C#2,454.5,1.5,30,46.0
4356,C#3,454.5,1.5,30,46.0
4357,C#6,455.5,0.5,52,46.0
4358,B-6,456.0,1.0,38,46.0
4359,F#6,456.0,1.0,38,46.0
4360,C#6,456.0,1.0,38,46.0
4361,B-5,456.0,1.0,38,46.0
4362,F#1,456.0,1.0,24,46.0
4363,F#2,456.0,1.0,24,46.0
4364,B-4,457.0,0.496,38,46.0
4365,C#5,457.0,0.496,38,46.0
4366,B-5,457.0,0.496,38,46.0
4367,F#2,457.0,0.496,24,46.0
4368,F#3,457.0,0.496,24,46.0
4369,C#6,457.5,0.75,54,46.0
4370,B-5,457.5,0.75,54,46.0
4371,C#5,457.5,0.75,54,46.0
4372,F#2,457.5,1.0,27,46.0
4373,F#3,457.5,1.0,27,46.0
4374,D6,458.25,0.25,60,46.0
4375,B5,458.25,0.25,60,46.0
4376,D5,458.25,0.25,60,46.0
4377,E6,458.5,0.25,64,46.0
4378,C#6,458.5,0.25,64,46.0
4379,E5,458.5,0.25,64,46.0
4380,F#2,458.5,0.375,40,46.0
4381,F#3,458.5,0.375,40,46.0
4382,F#6,458.75,0.248,50,46.0
4383,D6,458.75,0.248,50,46.0
4384,F#5,458.75,0.248,50,46.0
4385,E2,458.875,0.125,34,46.0
4386,E3,458.875,0.125,34,46.0
4387,F#6,459.0,1.0,47,46.0
4388,F#5,459.0,1.0,47,46.0
4389,D2,459.0,1.5,30,46.0
4390,D3,459.0,1.5,30,46.0
4391,D6,460.0,0.492,37,46.0
4392,D5,460.0,0.492,37,46.0
4393,D6,460.5,0.5,42,46.0
4394,D5,460.5,0.5,42,46.0
4395,F#2,460.5,1.5,28,46.0
4396,F#3,460.5,1.5,28,46.0
4397,B5,461.0,0.5,40,46.0
4398,B4,461.0,0.5,40,46.0
4399,C#5,461.5,0.5,40,46.0
4400,C#6,461.5,0.5,40,46.0
4401,D5,462.0,1.0,43,46.0
4402,D6,462.0,1.0,43,46.0
4403,B2,462.0,1.0,28,46.0
4404,B3,462.0,1.0,28,46.0
4405,B2,464.0,0.5,28,46.0
4406,B3,464.0,0.5,28,46.0
4407,G2,464.5,0.25,24,46.0
4408,G3,464.5,0.25,24,46.0
4409,D2,464.75,0.244,24,46.0
4410,D3,464.75,0.244,24,46.0
4411,B4,465.0,1.5,43,46.0
4412,B5,465.0,1.5,43,46.0
4413,D2,465.0,1.0,28,46.0
4414,D3,465.0,1.0,28,46.0
4415,B1,466.0,0.496,24,46.0
4416,B2,466.0,0.496,24,46.0
4417,D5,466.5,1.5,43,46.0
4418,D6,466.5,1.5,43,46.0
4419,B1,466.5,0.5,28,46.0
4420,B2,466.5,0.5,28,46.0
4421,G1,467.0,0.5,24,46.0
4422,G2,467.0,0.5,24,46.0
4423,A1,467.5,0.5,24,46.0
4424,A2,467.5,0.5,24,46.0
4425,G6,468.0,2.0,74,46.0
4426,G5,468.0,2.0,74,46.0
4427,B1,468.0,0.5,50,46.0
4428,B2,468.0,0.5,50,46.0
4429,B2,468.5,0.5,54,46.0
4430,G3,468.5,0.5,54,46.0
4431,C3,469.0,0.5,57,46.0
4432,A3,469.0,0.5,57,46.0
4433,D3,469.5,0.5,60,46.0
4434,B3,469.5,0.5,60,46.0
4435,B4,470.0,0.5,50,46.0
4436,D5,470.0,0.5,50,46.0
4437,B3,470.0,0.5,42,46.0
4438,G3,470.0,0.5,42,46.0
4439,F#4,470.5,0.25,48,46.0
4440,C5,470.5,0.25,48,46.0
4441,D3,470.5,0.25,35,46.0
4442,C4,470.5,0.25,35,46.0
4443,A3,470.5,0.25,35,46.0
4444,G4,470.75,0.25,44,46.0
4445,B4,470.75,0.25,44,46.0
4446,B3,470.75,0.25,31,46.0
4447,G3,470.75,0.25,31,46.0
4448,G3,471.0,2.5,36,46.0
4449,B3,471.0,0.169,42,46.0
4450,G4,471.0,0.5,47,46.0
4451,B4,471.0,0.5,47,46.0
4452,E4,471.169,0.167,37,46.0
4453,D4,471.333,0.167,37,46.0
4454,C#4,471.5,0.169,42,46.0
4455,E4,471.667,0.167,38,46.0
4456,D4,471.833,0.125,38,46.0
4457,G2,472.0,0.99,58,46.0
4458,B3,472.0,0.169,42,46.0
4459,E4,472.169,0.167,37,46.0
4460,D4,472.333,0.125,37,46.0
4461,C#4,472.5,0.169,42,46.0
4462,E4,472.667,0.167,37,46.0
4463,D4,472.833,0.125,37,46.0
4464,G2,473.0,0.496,58,46.0
4465,B3,473.0,0.169,42,46.0
4466,E4,473.169,0.167,38,46.0
4467,D4,473.333,0.125,38,46.0
4468,G2,473.5,0.167,56,46.0
4469,G3,473.5,0.5,36,46.0
4470,B3,473.5,0.169,42,46.0
4471,F#2,473.667,0.167,50,46.0
4472,E-4,473.667,0.167,38,46.0
4473,G2,473.833,0.125,50,46.0
4474,D4,473.833,0.125,38,46.0
4475,D2,474.0,0.99,52,46.0
4476,F#3,474.0,0.5,36,46.0
4477,A3,474.0,0.169,42,46.0
4478,E4,474.167,0.167,37,46.0
4479,D4,474.333,0.125,37,46.0
4480,G3,474.5,0.5,36,46.0
4481,B3,474.5,0.169,42,46.0
4482,E4,474.667,0.167,38,46.0
4483,D4,474.833,0.125,38,46.0
4484,D2,475.0,0.99,52,46.0
4485,A3,475.0,0.5,38,46.0
4486,C4,475.0,0.169,46,46.0
4487,E4,475.167,0.167,40,46.0
4488,D4,475.333,0.125,40,46.0
4489,A3,475.5,0.5,38,46.0
4490,C4,475.5,0.169,45,46.0
4491,E4,475.667,0.167,38,46.0
4492,D4,475.833,0.125,38,46.0
4493,D2,476.0,1.0,52,46.0
4494,G3,476.0,0.5,36,46.0
4495,B3,476.0,0.169,42,46.0
4496,E4,476.167,0.167,36,46.0
4497,D4,476.333,0.125,36,46.0
4498,F#3,476.5,0.5,35,46.0
4499,B-3,476.5,0.167,41,46.0
4500,E4,476.667,0.167,38,46.0
4501,D4,476.833,0.125,38,46.0
4502,B1,477.0,0.5,48,46.0
4503,G3,477.0,2.5,36,46.0
4504,B3,477.0,0.169,42,46.0
4505,E4,477.169,0.167,37,46.0
4506,D4,477.333,0.167,37,46.0
4507,C#4,477.5,0.169,43,46.0
4508,E4,477.667,0.167,38,46.0
4509,D4,477.833,0.125,39,46.0
4510,B3,478.0,0.169,44,46.0
4511,G6,478.0,0.99,63,46.0
4512,G5,478.0,0.99,63,46.0
4513,E4,478.169,0.167,38,46.0
4514,D4,478.333,0.125,39,46.0
4515,C#4,478.5,0.169,46,46.0
4516,E4,478.667,0.167,39,46.0
4517,D4,478.833,0.125,40,46.0
4518,B3,479.0,0.169,47,46.0
4519,G5,479.0,0.496,63,46.0
4520,G6,479.0,0.496,63,46.0
4521,E4,479.169,0.167,42,46.0
4522,D4,479.333,0.125,42,46.0
4523,G3,479.5,0.5,40,46.0
4524,B3,479.5,0.169,48,46.0
4525,G6,479.5,0.169,61,46.0
4526,G5,479.5,0.169,61,46.0
4527,E-4,479.667,0.167,43,46.0
4528,F#5,479.667,0.167,54,46.0
4529,F#6,479.667,0.167,54,46.0
4530,D4,479.833,0.125,43,46.0
4531,G5,479.833,0.167,50,46.0
4532,G6,479.833,0.167,50,46.0
4533,F#3,480.0,0.5,41,46.0
4534,A3,480.0,0.169,50,46.0
4535,D6,480.0,0.99,63,46.0
4536,D5,480.0,0.99,63,46.0
4537,E4,480.167,0.167,43,46.0
4538,D4,480.333,0.125,43,46.0
4539,G3,480.5,0.5,42,46.0
4540,B3,480.5,0.169,51,46.0
4541,E4,480.667,0.167,45,46.0
4542,D4,480.833,0.125,46,46.0
4543,A3,481.0,0.5,47,46.0
4544,C4,481.0,0.169,57,46.0
4545,D5,481.0,0.99,66,46.0
4546,D6,481.0,0.99,66,46.0
4547,E4,481.167,0.167,50,46.0
4548,D4,481.333,0.125,51,46.0
4549,A3,481.5,0.5,47,46.0
4550,C4,481.5,0.169,57,46.0
4551,E4,481.667,0.167,48,46.0
4552,D4,481.833,0.125,48,46.0
4553,G3,482.0,0.5,46,46.0
4554,B3,482.0,0.169,55,46.0
4555,D5,482.0,0.99,68,46.0
4556,D6,482.0,0.99,68,46.0
4557,E4,482.167,0.167,46,46.0
4558,D4,482.333,0.125,47,46.0
4559,F#3,482.5,0.5,46,46.0
4560,B-3,482.5,0.167,55,46.0
4561,E4,482.667,0.167,50,46.0
4562,D4,482.833,0.125,38,46.0
4563,F#3,483.0,0.5,45,46.0
4564,B-3,483.0,0.167,55,46.0
4565,D6,483.0,0.99,68,46.0
4566,D5,483.0,0.99,68,46.0
4567,E4,483.167,0.167,50,46.0
4568,D4,483.333,0.125,51,46.0
4569,G3,483.5,0.5,50,46.0
4570,B3,483.5,0.169,60,46.0
4571,E4,483.667,0.167,54,46.0
4572,D4,483.833,0.125,55,46.0
4573,G#3,484.0,0.5,57,46.0
4574,B3,484.0,0.169,69,46.0
4575,D5,484.0,0.99,76,46.0
4576,D6,484.0,0.99,76,46.0
4577,E4,484.167,0.167,61,46.0
4578,D4,484.333,0.125,63,46.0
4579,G#3,484.5,0.5,59,46.0
4580,B3,484.5,0.167,70,46.0
4581,E4,484.667,0.167,60,46.0
4582,D4,484.833,0.125,61,46.0
4583,G#3,485.0,0.5,54,46.0
4584,B3,485.0,0.169,60,46.0
4585,D5,485.0,0.667,80,46.0
4586,D6,485.0,0.667,80,46.0
4587,F4,485.167,0.167,54,46.0
4588,D4,485.333,0.125,55,46.0
4589,G#3,485.5,0.5,53,46.0
4590,B3,485.5,0.169,63,46.0
4591,F4,485.667,0.167,57,46.0
4592,C#5,485.667,0.167,68,46.0
4593,C#6,485.667,0.167,68,46.0
4594,D4,485.833,0.125,57,46.0
4595,D5,485.833,0.163,68,46.0
4596,D6,485.833,0.163,68,46.0
4597,A3,486.0,0.5,55,46.0
4598,D4,486.0,0.167,67,46.0
4599,F#5,486.0,0.99,78,46.0
4600,D6,486.0,0.99,78,46.0
4601,D5,486.0,0.99,78,46.0
4602,F#4,486.167,0.167,58,46.0
4603,E4,486.333,0.125,59,46.0
4604,B-3,486.5,0.5,58,46.0
4605,D4,486.5,0.169,70,46.0
4606,F#4,486.667,0.167,62,46.0
4607,E4,486.833,0.125,64,46.0
4608,B3,487.0,0.5,66,46.0
4609,D4,487.0,0.169,79,46.0
4610,F#5,487.0,0.99,86,46.0
4611,D5,487.0,0.99,86,46.0
4612,D6,487.0,0.99,86,46.0
4613,F#4,487.167,0.167,71,46.0
4614,E4,487.333,0.125,72,46.0
4615,B3,487.5,0.5,68,46.0
4616,D4,487.5,0.167,81,46.0
4617,F#4,487.667,0.167,69,46.0
4618,E4,487.833,0.125,70,46.0
4619,B3,488.0,0.5,62,46.0
4620,D4,488.0,0.169,69,46.0
4621,F#5,488.0,0.667,92,46.0
4622,F#6,488.0,0.667,92,46.0
4623,F#4,488.167,0.167,63,46.0
4624,E4,488.333,0.125,63,46.0
4625,B3,488.5,0.5,61,46.0
4626,D4,488.5,0.169,72,46.0
4627,F4,488.667,0.167,65,46.0
4628,F5,488.667,0.167,77,46.0
4629,F6,488.667,0.167,77,46.0
4630,F#4,488.833,0.125,66,46.0
4631,F#5,488.833,0.163,78,46.0
4632,F#6,488.833,0.163,78,46.0
4633,B3,489.0,0.5,63,46.0
4634,D4,489.0,0.167,76,46.0
4635,F#5,489.0,0.99,91,46.0
4636,F#6,489.0,0.99,91,46.0
4637,G4,489.167,0.167,66,46.0
4638,F#4,489.333,0.125,67,46.0
4639,C4,489.5,0.5,66,46.0
4640,E-4,489.5,0.167,79,46.0
4641,G#4,489.667,0.167,71,46.0
4642,F#4,489.833,0.125,73,46.0
4643,C4,490.0,0.5,71,46.0
4644,E-4,490.0,0.167,84,46.0
4645,F#5,490.0,0.75,103,46.0
4646,F#6,490.0,0.75,103,46.0
4647,A4,490.167,0.167,72,46.0
4648,F#4,490.333,0.125,72,46.0
4649,C3,490.5,0.5,73,46.0
4650,E-3,490.5,0.167,86,46.0
4651,A3,490.667,0.167,74,46.0
4652,F#3,490.833,0.125,74,46.0
4653,C4,491.0,0.5,69,46.0
4654,E-4,491.0,0.167,82,46.0
4655,F#5,491.0,0.75,103,46.0
4656,F#6,491.0,0.75,103,46.0
4657,A4,491.167,0.167,73,46.0
4658,F#4,491.333,0.125,73,46.0
4659,C3,491.5,0.5,71,46.0
4660,E-3,491.5,0.167,84,46.0
4661,A3,491.667,0.167,76,46.0
4662,F#3,491.833,0.125,76,46.0
4663,C4,492.0,0.075,81,46.0
4664,F#6,492.0,0.248,102,46.0
4665,F#5,492.0,0.248,102,46.0
4666,A4,492.125,0.125,74,46.0
4667,F#6,492.25,0.496,102,46.0
4668,F#4,492.25,0.125,68,46.0
4669,E-4,492.25,0.125,68,46.0
4670,A4,492.375,0.125,74,46.0
4671,C3,492.5,0.075,81,46.0
4672,A3,492.625,0.125,75,46.0
4673,F#6,492.75,0.496,103,46.0
4674,E-3,492.75,0.125,69,46.0
4675,F#3,492.75,0.125,69,46.0
4676,A3,492.875,0.125,75,46.0
4677,C4,493.0,0.075,81,46.0
4678,A4,493.125,0.125,74,46.0
4679,F#6,493.25,0.496,104,46.0
4680,F#4,493.25,0.125,68,46.0
4681,E-4,493.25,0.125,68,46.0
4682,A4,493.375,0.125,74,46.0
4683,C3,493.5,0.05,81,46.0
4684,A3,493.583,0.083,73,46.0
4685,E-3,493.667,0.081,73,46.0
4686,F#3,493.667,0.081,73,46.0
4687,F#6,493.75,0.496,106,46.0
4688,A3,493.752,0.083,73,46.0
4689,E-3,493.833,0.083,68,46.0
4690,F#3,493.833,0.083,68,46.0
4691,A3,493.917,0.083,73,46.0
4692,C4,494.0,0.05,81,46.0
4693,A4,494.083,0.083,73,46.0
4694,E-4,494.167,0.081,73,46.0
4695,F#4,494.167,0.081,73,46.0
4696,F#6,494.25,0.496,107,46.0
4697,A4,494.252,0.083,73,46.0
4698,E-4,494.333,0.083,68,46.0
4699,F#4,494.333,0.083,68,46.0
4700,A4,494.417,0.083,73,46.0
4701,C3,494.5,0.05,81,46.0
4702,A3,494.583,0.083,74,46.0
4703,E-3,494.667,0.081,74,46.0
4704,F#3,494.667,0.081,74,46.0
4705,F#6,494.75,0.25,108,46.0
4706,A3,494.752,0.083,74,46.0
4707,E-3,494.833,0.083,68,46.0
4708,F#3,494.833,0.083,68,46.0
4709,A3,494.917,0.083,74,46.0
4710,C#5,495.0,1.0,48,46.0
4711,C#4,495.0,1.0,38,46.0
4712,A4,496.0,0.496,42,46.0
4713,A3,496.0,0.496,33,46.0
4714,A4,496.5,0.5,47,46.0
4715,A3,496.5,0.5,35,46.0
4716,F#4,497.0,0.5,41,46.0
4717,F#3,497.0,0.5,31,46.0
4718,F4,497.5,0.5,36,46.0
4719,G#4,497.5,0.5,36,46.0
4720,C#4,497.5,0.5,36,46.0
4721,C#3,497.5,0.5,28,46.0
4722,G#3,497.5,0.5,28,46.0
4723,A3,498.0,1.0,44,46.0
4724,F#4,498.0,1.0,44,46.0
4725,A4,498.0,1.0,44,46.0
4726,C#4,498.0,1.0,44,46.0
4727,F#2,498.0,1.0,31,46.0
4728,F#3,498.0,1.0,31,46.0
4729,B-3,499.0,0.5,49,46.0
4730,C#4,499.0,0.5,49,46.0
4731,F#4,499.0,0.5,49,46.0
4732,B-4,499.0,0.5,49,46.0
4733,F#2,499.0,0.5,38,46.0
4734,F#3,499.0,0.5,38,46.0
4735,D4,499.5,1.0,54,46.0
4736,B3,499.5,1.0,54,46.0
4737,B4,499.5,1.0,54,46.0
4738,F#4,499.5,1.0,54,46.0
4739,B1,499.5,1.0,40,46.0
4740,B2,499.5,1.0,40,46.0
4741,B4,500.5,0.5,58,46.0
4742,F#4,500.5,0.5,58,46.0
4743,D4,500.5,0.5,58,46.0
4744,D5,500.5,0.5,58,46.0
4745,B1,500.5,0.5,45,46.0
4746,B2,500.5,0.5,45,46.0
4747,B4,501.0,1.0,70,46.0
4748,D4,501.0,1.0,70,46.0
4749,D5,501.0,1.0,70,46.0
4750,F4,501.0,1.0,70,46.0
4751,G#1,501.0,1.0,52,46.0
4752,G#2,501.0,1.0,52,46.0
4753,A4,502.0,0.496,58,46.0
4754,F#4,502.0,0.496,58,46.0
4755,C#5,502.0,0.496,58,46.0
4756,C#4,502.0,0.496,58,46.0
4757,A1,502.0,0.496,44,46.0
4758,A2,502.0,0.496,44,46.0
4759,A4,502.5,0.5,66,46.0
4760,F#4,502.5,0.5,66,46.0
4761,C#5,502.5,0.5,66,46.0
4762,C#4,502.5,0.5,66,46.0
4763,A1,502.5,0.5,52,46.0
4764,A2,502.5,0.5,52,46.0
4765,B3,503.0,0.5,58,46.0
4766,D4,503.0,0.5,58,46.0
4767,G#4,503.0,0.5,58,46.0
4768,B4,503.0,0.5,58,46.0
4769,B1,503.0,0.5,47,46.0
4770,B2,503.0,0.5,47,46.0
4771,F#4,503.5,0.5,58,46.0
4772,E-4,503.5,0.5,58,46.0
4773,A3,503.5,0.5,58,46.0
4774,A4,503.5,0.5,58,46.0
4775,C3,503.5,0.5,46,46.0
4776,C2,503.5,0.5,46,46.0
4777,F#4,504.0,1.0,50,46.0
4778,A3,504.0,1.0,50,46.0
4779,A4,504.0,1.0,50,46.0
4780,E-4,504.0,1.0,50,46.0
4781,C2,504.0,0.5,38,46.0
4782,C3,504.0,0.5,38,46.0
4783,C#4,504.5,1.0,46,46.0
4784,C#2,504.5,0.75,42,46.0
4785,C#3,504.5,0.75,42,46.0
4786,F4,505.0,0.5,49,46.0
4787,G#3,505.0,0.5,49,46.0
4788,G#4,505.0,0.5,49,46.0
4789,C2,505.25,0.25,37,46.0
4790,C3,505.25,0.25,37,46.0
4791,F4,505.5,0.5,56,46.0
4792,C#4,505.5,0.5,56,46.0
4793,G#4,505.5,0.5,56,46.0
4794,G#3,505.5,0.5,56,46.0
4795,C#2,505.5,0.5,44,46.0
4796,C#3,505.5,0.5,44,46.0
4797,G4,506.0,0.875,60,46.0
4798,G3,506.0,0.5,49,46.0
4799,B-3,506.0,0.5,49,46.0
4800,E4,506.0,0.5,49,46.0
4801,C#2,506.0,0.5,42,46.0
4802,C#3,506.0,0.5,42,46.0
4803,D4,506.5,0.375,52,46.0
4804,B3,506.5,0.375,52,46.0
4805,G3,506.5,0.375,52,46.0
4806,D3,506.5,0.5,44,46.0
4807,D2,506.5,0.5,44,46.0
4808,B5,507.0,1.0,65,46.0
4809,G2,507.0,1.5,36,46.0
4810,G1,507.0,1.5,36,46.0
4811,D2,507.0,1.5,36,46.0
4812,B4,507.5,0.5,55,46.0
4813,A4,508.0,0.496,57,46.0
4814,A5,508.0,0.496,57,46.0
4815,A4,508.5,0.5,60,46.0
4816,A5,508.5,0.5,60,46.0
4817,G2,508.5,1.5,32,46.0
4818,B1,508.5,1.5,32,46.0
4819,D3,508.5,1.5,32,46.0
4820,G4,509.0,0.5,54,46.0
4821,G5,509.0,0.5,54,46.0
4822,F#4,509.5,0.496,54,46.0
4823,F#5,509.5,0.496,54,46.0
4824,F#4,510.0,0.5,60,46.0
4825,F#5,510.0,0.5,60,46.0
4826,C2,510.0,1.5,35,46.0
4827,E3,510.0,1.5,35,46.0
4828,G2,510.0,1.5,35,46.0
4829,E4,510.5,0.5,54,46.0
4830,E5,510.5,0.5,54,46.0
4831,F#4,511.0,0.496,54,46.0
4832,F#5,511.0,0.496,54,46.0
4833,F#4,511.5,0.5,56,46.0
4834,F#5,511.5,0.5,56,46.0
4835,B1,511.5,0.5,31,46.0
4836,G2,511.5,0.5,31,46.0
4837,D3,511.5,0.5,31,46.0
4838,G2,512.0,0.75,46,46.0
4839,G4,512.0,0.75,57,46.0
4840,G5,512.0,0.75,57,46.0
4841,D2,512.5,0.5,32,46.0
4842,F#2,512.75,0.248,38,46.0
4843,F#3,512.75,0.248,44,46.0
4844,F#4,512.75,0.248,44,46.0
4845,F#3,513.0,0.5,52,46.0
4846,F#4,513.0,0.5,52,46.0
4847,D2,513.0,0.5,32,46.0
4848,F#2,513.0,0.5,32,46.0
4849,A3,513.5,0.5,49,46.0
4850,A4,513.5,0.5,49,46.0
4851,C#2,513.5,0.5,30,46.0
4852,A2,513.5,0.5,30,46.0
4853,C#4,514.0,0.496,45,46.0
4854,F#4,514.0,0.496,45,46.0
4855,A4,514.0,0.496,45,46.0
4856,C#5,514.0,0.496,45,46.0
4857,C#2,514.0,0.496,28,46.0
4858,C#3,514.0,0.496,28,46.0
4859,C#4,514.5,1.0,47,46.0
4860,C#5,514.5,1.0,47,46.0
4861,F4,514.5,1.0,47,46.0
4862,G#4,514.5,1.0,47,46.0
4863,C#2,514.5,1.0,32,46.0
4864,C#3,514.5,1.0,32,46.0
4865,C#4,515.5,0.496,38,46.0
4866,C#5,515.5,0.496,38,46.0
4867,A4,515.5,0.496,38,46.0
4868,F#4,515.5,0.496,38,46.0
4869,F#2,515.5,0.496,30,46.0
4870,C#3,515.5,0.496,30,46.0
4871,A4,516.0,0.5,43,46.0
4872,C#4,516.0,0.5,43,46.0
4873,C#5,516.0,0.5,43,46.0
4874,F#2,516.0,0.5,32,46.0
4875,C#3,516.0,0.5,32,46.0
4876,B1,516.5,1.5,27,46.0
4877,D3,516.5,0.5,32,46.0
4878,D4,516.5,0.5,38,46.0
4879,D5,516.5,0.5,38,46.0
4880,G4,516.5,0.5,38,46.0
4881,G2,517.0,0.5,32,46.0
4882,G3,517.0,0.5,40,46.0
4883,G4,517.0,0.5,40,46.0
4884,B2,517.5,0.5,35,46.0
4885,B3,517.5,0.5,42,46.0
4886,B4,517.5,0.5,42,46.0
4887,C#2,518.0,0.5,35,46.0
4888,C#3,518.0,0.5,41,46.0
4889,C#4,518.0,0.5,41,46.0
4890,C#2,518.5,0.5,33,46.0
4891,F2,518.5,0.25,33,46.0
4892,F4,518.5,0.25,40,46.0
4893,F3,518.5,0.25,40,46.0
4894,F#2,518.75,0.25,30,46.0
4895,F#3,518.75,0.25,35,46.0
4896,F#4,518.75,0.25,35,46.0
4897,F#3,519.0,0.75,32,46.0
4898,B-3,519.0,0.75,32,46.0
4899,E4,519.0,0.75,32,46.0
4900,F#4,519.0,0.75,32,46.0
4901,C#2,519.0,0.5,32,46.0
4902,F#2,519.0,0.5,32,46.0
4903,F#1,519.5,0.5,26,46.0
4904,F#2,519.5,0.5,26,46.0
4905,F#5,520.0,0.5,57,46.0
4906,B-1,520.0,0.5,26,46.0
4907,B-2,520.0,0.5,26,46.0
4908,F#4,520.25,0.496,25,46.0
4909,F#5,520.5,1.0,57,46.0
4910,C#2,520.5,0.5,32,46.0
4911,C#3,520.5,0.5,32,46.0
4912,F#4,520.75,0.496,25,46.0
4913,F#1,521.0,0.5,26,46.0
4914,F#2,521.0,0.5,26,46.0
4915,F#4,521.25,0.496,25,46.0
4916,C#5,521.5,0.5,50,46.0
4917,B-1,521.5,0.5,26,46.0
4918,B-2,521.5,0.5,26,46.0
4919,F#4,521.75,0.496,25,46.0
4920,E5,522.0,0.5,57,46.0
4921,B1,522.0,0.5,28,46.0
4922,B2,522.0,0.5,28,46.0
4923,F#4,522.25,0.496,25,46.0
4924,D5,522.5,0.5,51,46.0
4925,F#1,522.5,0.5,24,46.0
4926,F#2,522.5,0.5,24,46.0
4927,D4,522.75,0.496,25,46.0
4928,G#4,522.75,0.496,25,46.0
4929,F4,522.75,0.496,25,46.0
4930,B4,523.0,1.0,51,46.0
4931,B1,523.0,0.5,24,46.0
4932,B2,523.0,0.5,24,46.0
4933,D4,523.25,0.496,25,46.0
4934,F4,523.25,0.496,25,46.0
4935,G#4,523.25,0.496,25,46.0
4936,D2,523.5,0.5,28,46.0
4937,D3,523.5,0.5,28,46.0
4938,D4,523.75,0.496,25,46.0
4939,F4,523.75,0.496,25,46.0
4940,G#4,523.75,0.496,25,46.0
4941,D5,524.0,0.5,56,46.0
4942,F#1,524.0,0.5,23,46.0
4943,F#2,524.0,0.5,23,46.0
4944,D4,524.25,0.496,25,46.0
4945,F4,524.25,0.496,25,46.0
4946,G#4,524.25,0.496,25,46.0
4947,B4,524.5,0.5,53,46.0
4948,B1,524.5,0.5,23,46.0
4949,B2,524.5,0.5,23,46.0
4950,D4,524.75,0.248,25,46.0
4951,F4,524.75,0.248,25,46.0
4952,G#4,524.75,0.248,25,46.0
4953,B-4,525.0,0.167,48,46.0
4954,C#4,525.0,0.5,34,46.0
4955,F#4,525.0,0.5,34,46.0
4956,C#2,525.0,0.5,26,46.0
4957,C#3,525.0,0.5,26,46.0
4958,F#5,525.167,0.167,45,46.0
4959,C#5,525.333,0.167,48,46.0
4960,B-5,525.5,0.167,54,46.0
4961,F#1,525.5,0.5,21,46.0
4962,F#2,525.5,0.5,21,46.0
4963,F#5,525.667,0.167,51,46.0
4964,C#6,525.833,0.167,51,46.0
4965,F#5,526.0,0.167,57,46.0
4966,B-1,526.0,0.5,22,46.0
4967,B-2,526.0,0.5,22,46.0
4968,G6,526.167,0.167,63,46.0
4969,F#6,526.333,0.167,59,46.0
4970,F6,526.5,0.167,64,46.0
4971,C#2,526.5,0.5,29,46.0
4972,C#3,526.5,0.5,29,46.0
4973,F#6,526.667,0.167,59,46.0
4974,E6,526.833,0.333,59,46.0
4975,F#1,527.0,0.5,24,46.0
4976,F#2,527.0,0.5,24,46.0
4977,C#6,527.167,0.167,57,46.0
4978,B-5,527.333,0.167,57,46.0
4979,C#5,527.5,0.5,34,46.0
4980,G5,527.5,0.167,62,46.0
4981,B-1,527.5,0.5,24,46.0
4982,B-2,527.5,0.5,24,46.0
4983,F#5,527.667,0.167,60,46.0
4984,E5,527.833,0.333,60,46.0
4985,B1,528.0,0.5,33,46.0
4986,B2,528.0,0.5,33,46.0
4987,C#5,528.167,0.167,59,46.0
4988,D5,528.333,0.167,59,46.0
4989,B5,528.5,0.167,63,46.0
4990,F#1,528.5,0.5,26,46.0
4991,F#2,528.5,0.5,26,46.0
4992,G#5,528.667,0.167,53,46.0
4993,D6,528.833,0.333,58,46.0
4994,B1,529.0,0.5,24,46.0
4995,B2,529.0,0.5,24,46.0
4996,C#6,529.167,0.167,53,46.0
4997,B5,529.333,0.163,50,46.0
4998,B4,529.5,0.99,44,46.0
4999,D5,529.5,0.99,44,46.0
5000,F5,529.5,0.99,44,46.0
5001,G#5,529.5,0.99,44,46.0
5002,B5,529.5,0.99,44,46.0
5003,D2,529.5,0.167,32,46.0
5004,D3,529.5,0.167,32,46.0
5005,F#1,529.667,0.167,33,46.0
5006,B1,529.833,0.167,35,46.0
5007,D2,530.0,0.167,42,46.0
5008,F#2,530.167,0.167,40,46.0
5009,B2,530.333,0.167,38,46.0
5010,D3,530.5,0.167,35,46.0
5011,B4,530.5,0.5,46,46.0
5012,D5,530.5,0.5,46,46.0
5013,F5,530.5,0.5,46,46.0
5014,G#5,530.5,0.5,46,46.0
5015,B5,530.5,0.5,46,46.0
5016,F#2,530.667,0.167,33,46.0
5017,D3,530.833,0.167,31,46.0
5018,F#2,531.0,0.167,27,46.0
5019,B-4,531.0,2.496,46,46.0
5020,C#5,531.0,2.496,46,46.0
5021,F#5,531.0,2.496,46,46.0
5022,B-5,531.0,2.496,46,46.0
5023,C#3,531.167,0.167,20,46.0
5024,F#2,531.333,0.167,20,46.0
5025,F#3,531.5,0.167,27,46.0
5026,C#3,531.667,0.167,22,46.0
5027,F#3,531.833,0.167,22,46.0
5028,F#2,532.0,0.167,27,46.0
5029,C#3,532.167,0.167,23,46.0
5030,F#2,532.333,0.167,23,46.0
5031,F#3,532.5,0.167,27,46.0
5032,C#3,532.667,0.167,23,46.0
5033,F#3,532.833,0.167,23,46.0
5034,C#3,533.0,0.167,27,46.0
5035,F#2,533.167,0.167,21,46.0
5036,C#3,533.333,0.167,21,46.0
5037,F#3,533.5,0.167,27,46.0
5038,B-4,533.5,1.496,45,46.0
5039,C#5,533.5,1.496,45,46.0
5040,F#5,533.5,1.496,45,46.0
5041,B-5,533.5,1.496,45,46.0
5042,C#3,533.667,0.167,22,46.0
5043,F#3,533.833,0.167,22,46.0
5044,C#2,534.0,0.167,27,46.0
5045,F#2,534.167,0.167,23,46.0
5046,C#2,534.333,0.167,23,46.0
5047,C#3,534.5,0.167,27,46.0
5048,F#2,534.667,0.167,23,46.0
5049,C#3,534.833,0.167,23,46.0
5050,C#2,535.0,0.167,26,46.0
5051,F#6,535.0,1.496,43,46.0
5052,B-5,535.0,1.496,43,46.0
5053,F#5,535.0,1.496,43,46.0
5054,F#2,535.167,0.167,22,46.0
5055,C#2,535.333,0.167,22,46.0
5056,C#3,535.5,0.167,27,46.0
5057,F#2,535.667,0.167,23,46.0
5058,C#3,535.833,0.167,23,46.0
5059,C#2,536.0,0.167,27,46.0
5060,F#2,536.167,0.167,23,46.0
5061,C#2,536.333,0.167,23,46.0
5062,C#3,536.5,0.167,27,46.0
5063,F#5,536.5,0.99,39,46.0
5064,B-5,536.5,0.99,39,46.0
5065,F#6,536.5,0.99,39,46.0
5066,F#2,536.667,0.167,24,46.0
5067,C#3,536.833,0.167,24,46.0
5068,F#2,537.0,0.167,27,46.0
5069,C#2,537.167,0.167,23,46.0
5070,F#2,537.333,0.167,23,46.0
5071,F#1,537.5,0.167,27,46.0
5072,B-6,537.5,1.981,38,46.0
5073,C#6,537.5,1.981,38,46.0
5074,B-5,537.5,1.981,38,46.0
5075,C#2,537.667,0.167,23,46.0
5076,F#1,537.833,0.167,23,46.0
5077,F#2,538.0,0.167,27,46.0
5078,C#2,538.167,0.167,24,46.0
5079,F#2,538.333,0.167,24,46.0
5080,F#1,538.5,0.167,27,46.0
5081,C#2,538.667,0.167,24,46.0
5082,F#1,538.833,0.167,24,46.0
5083,F#2,539.0,0.167,27,46.0
5084,C#2,539.167,0.167,23,46.0
5085,F#2,539.333,0.167,23,46.0
5086,C#5,539.5,0.5,35,46.0
5087,C#2,539.5,0.167,27,46.0
5088,F#2,539.667,0.167,24,46.0
5089,C#2,539.833,0.167,24,46.0
5090,C#5,540.0,1.0,38,46.0
5091,C#3,540.0,0.5,30,46.0
5092,C#4,540.5,0.5,26,46.0
5093,A4,541.0,0.496,33,46.0
5094,A3,541.0,0.496,26,46.0
5095,A4,541.5,0.5,37,46.0
5096,A3,541.5,0.5,28,46.0
5097,F#4,542.0,0.5,32,46.0
5098,F#3,542.0,0.5,24,46.0
5099,F4,542.5,0.5,29,46.0
5100,G#4,542.5,0.5,29,46.0
5101,C#4,542.5,0.5,29,46.0
5102,F3,542.5,0.5,21,46.0
5103,C#3,542.5,0.5,21,46.0
5104,G#3,542.5,0.5,21,46.0
5105,F#4,543.0,1.0,35,46.0
5106,A4,543.0,1.0,35,46.0
5107,C#4,543.0,1.0,35,46.0
5108,A3,543.0,0.5,30,46.0
5109,F#3,543.0,0.5,30,46.0
5110,F#2,543.5,1.5,30,46.0
5111,F#3,543.5,1.5,30,46.0
5112,B-3,544.0,0.5,31,46.0
5113,C#4,544.0,0.5,31,46.0
5114,F#4,544.0,0.5,31,46.0
5115,B-4,544.0,0.5,31,46.0
5116,D4,544.5,1.0,38,46.0
5117,B3,544.5,1.0,38,46.0
5118,B4,544.5,1.0,38,46.0
5119,F#4,544.5,1.0,38,46.0
5120,B1,545.0,0.5,31,46.0
5121,B2,545.0,0.5,31,46.0
5122,B-4,545.5,0.5,42,46.0
5123,F#4,545.5,0.5,42,46.0
5124,C#4,545.5,0.5,42,46.0
5125,C#5,545.5,0.5,42,46.0
5126,F#1,545.5,0.5,36,46.0
5127,F#2,545.5,0.5,36,46.0
5128,B1,546.0,0.5,42,46.0
5129,B4,546.0,0.496,47,46.0
5130,D4,546.0,0.496,47,46.0
5131,D5,546.0,0.496,47,46.0
5132,F#4,546.0,0.496,47,46.0
5133,B4,546.5,0.99,30,46.0
5134,G#4,546.5,0.99,30,46.0
5135,D5,546.5,0.99,30,46.0
5136,D4,546.5,0.99,30,46.0
5137,F1,546.5,0.99,31,46.0
5138,F2,546.5,0.99,31,46.0
5139,B4,547.5,0.99,35,46.0
5140,G#4,547.5,0.99,35,46.0
5141,D5,547.5,0.99,35,46.0
5142,D4,547.5,0.99,35,46.0
5143,F1,547.5,0.99,31,46.0
5144,F2,547.5,0.99,31,46.0
5145,D4,548.5,0.25,27,46.0
5146,G#4,548.5,0.25,27,46.0
5147,B4,548.5,0.25,27,46.0
5148,D5,548.5,0.25,27,46.0
5149,F2,548.5,0.25,28,46.0
5150,F1,548.5,0.25,28,46.0
5151,B-4,548.75,0.244,27,46.0
5152,C#4,548.75,0.244,27,46.0
5153,C#5,548.75,0.244,27,46.0
5154,F#1,548.75,0.244,28,46.0
5155,F#2,548.75,0.244,28,46.0
5156,C#4,549.0,3.0,35,46.0
5157,B-4,549.0,3.0,35,46.0
5158,C#5,549.0,3.0,35,46.0
5159,F#1,549.0,1.5,31,46.0
5160,F#2,549.0,1.5,31,46.0
5161,F#2,550.5,3.0,26,46.0
5162,C#3,550.5,3.0,26,46.0
5163,B-3,550.5,3.0,26,46.0
5164,B-4,552.0,2.996,30,46.0
5165,F#5,552.0,2.996,30,46.0
5166,C#6,552.0,2.996,30,46.0
5167,F#1,553.5,3.0,20,46.0
5168,C#2,553.5,3.0,20,46.0
5169,B-2,553.5,3.0,20,46.0
5170,B-4,555.0,1.5,30,46.0
5171,F#5,555.0,1.5,30,46.0
5172,C#6,555.0,1.5,30,46.0
5173,B-3,556.5,1.5,30,46.0
5174,F#4,556.5,1.5,30,46.0
5175,C#5,556.5,1.5,30,46.0
5176,F#1,556.5,1.5,20,46.0
5177,C#2,556.5,1.5,20,46.0
5178,B-2,556.5,1.5,20,46.0
5179,F#1,558.0,1.0,16,46.0
5180,C#2,558.125,0.875,18,46.0
5181,B-2,558.25,0.75,20,46.0
5182,B-3,558.375,0.625,24,46.0
5183,F#4,558.5,0.5,24,46.0
5184,C#5,558.625,0.375,33,46.0
,note_name,start_time,duration,velocity,tempo
0,F2,0.0,0.167,50,54.88
1,F3,0.167,0.125,46,54.88
2,F3,0.333,0.167,54,54.88
3,F4,0.5,0.125,46,54.88
4,F4,0.667,0.167,50,54.88
5,F5,0.833,0.125,46,54.88
6,F5,1.0,0.167,59,54.88
7,F6,1.167,1.083,66,54.88
8,F1,1.333,0.917,33,54.88
9,F2,1.333,0.917,33,54.88
10,F5,1.5,0.75,51,54.88
11,F6,2.25,0.75,46,54.88
12,F5,2.25,0.75,46,54.88
13,F2,3.0,0.5,30,54.88
14,F3,3.0,0.5,30,54.88
15,C#6,4.25,0.75,41,54.88
16,F6,4.25,0.75,41,54.88
17,G#5,4.25,0.75,41,54.88
18,F5,4.25,0.75,41,54.88
19,C#2,5.0,0.5,31,54.88
20,C#3,5.0,0.5,31,54.88
21,F6,6.25,0.75,36,54.88
22,B-5,6.25,0.75,36,54.88
23,F5,6.25,0.75,36,54.88
24,C#6,6.25,0.75,36,54.88
25,B-1,7.0,0.5,28,54.88
26,B-2,7.0,0.5,28,54.88
27,B-5,8.25,1.25,34,54.88
28,F#5,8.25,1.25,34,54.88
29,F#6,8.25,1.25,34,54.88
30,C#6,8.25,1.25,34,54.88
31,F#1,9.0,0.5,22,54.88
32,F#2,9.0,0.5,22,54.88
33,C#5,10.25,0.25,37,54.88
34,F#5,10.5,0.25,41,54.88
35,C#5,10.75,0.25,36,54.88
36,F#5,11.0,0.25,42,54.88
37,C#5,11.25,0.25,35,54.88
38,F#5,11.5,0.25,42,54.88
39,B-4,11.75,0.25,38,54.88
40,E-5,12.0,2.0,48,54.88
41,F#4,12.25,0.25,35,54.88
42,B4,12.5,0.25,41,54.88
43,F#4,12.75,0.25,35,54.88
44,B4,13.0,0.25,43,54.88
45,F#4,13.25,0.25,37,54.88
46,B4,13.5,0.25,42,54.88
47,E-4,13.75,0.25,39,54.88
48,E-5,14.0,0.5,47,54.88
49,F4,14.0,0.25,33,54.88
50,G#4,14.25,0.25,32,54.88
51,F3,14.25,0.25,29,54.88
52,C#5,14.5,1.0,43,54.88
53,F4,14.5,0.25,30,54.88
54,G#3,14.5,0.25,32,54.88
55,G#4,14.75,0.25,37,54.88
56,F3,14.75,0.25,27,54.88
57,F4,15.0,0.25,35,54.88
58,G#3,15.0,0.25,32,54.88
59,G#4,15.25,0.25,38,54.88
60,F3,15.25,0.25,26,54.88
61,F4,15.5,0.25,28,54.88
62,B4,15.5,0.5,39,54.88
63,G#3,15.5,0.25,31,54.88
64,G#4,15.75,0.25,27,54.88
65,C#3,15.75,0.25,25,54.88
66,F#3,16.0,0.5,38,54.88
67,F#4,16.0,0.5,42,54.88
68,B-4,16.0,0.5,42,54.88
69,C3,16.5,0.5,30,54.88
70,A4,16.5,0.5,40,54.88
71,F#4,16.5,0.5,40,54.88
72,E-5,16.5,0.5,40,54.88
73,C#3,17.0,0.5,28,54.88
74,F4,17.0,0.875,37,54.88
75,G#4,17.0,0.875,37,54.88
76,F#2,17.5,0.5,28,54.88
77,F#4,17.875,0.125,32,54.88
78,B-4,17.875,0.125,32,54.88
79,F#5,18.0,0.5,41,54.88
80,B-5,18.0,0.5,41,54.88
81,B-4,18.0,0.5,41,54.88
82,C#5,18.0,0.5,41,54.88
83,F#3,18.5,0.5,28,54.88
84,F#2,18.5,0.5,28,54.88
85,F#5,19.25,0.75,36,54.88
86,B-4,19.25,0.75,36,54.88
87,E-5,19.25,0.75,36,54.88
88,B-5,19.25,0.75,36,54.88
89,E-3,20.0,0.5,30,54.88
90,E-2,20.0,0.5,30,54.88
91,F#5,20.75,0.5,34,54.88
92,E-6,20.75,0.5,34,54.88
93,E-5,20.75,0.5,34,54.88
94,B1,21.0,0.25,30,54.88
95,B2,21.0,0.25,30,54.88
96,F#3,21.25,0.25,30,54.88
97,G#3,21.5,0.25,31,54.88
98,B-3,21.75,0.25,31,54.88
99,B3,22.0,0.25,32,54.88
100,C#4,22.25,0.25,33,54.88
101,E-4,22.5,0.25,34,54.88
102,E4,22.75,0.25,35,54.88
103,E-4,23.0,0.25,36,54.88
104,F#4,23.25,0.246,35,54.88
105,B3,23.25,0.275,33,54.88
106,G#4,23.5,0.275,38,54.88
107,F#4,23.5,0.275,39,54.88
108,B-4,23.75,0.275,41,54.88
109,E4,23.75,0.275,39,54.88
110,B4,24.0,0.275,45,54.88
111,E-4,24.0,0.275,40,54.88
112,C#5,24.25,0.275,48,54.88
113,C#4,24.25,0.275,41,54.88
114,E-5,24.5,0.275,52,54.88
115,B3,24.5,0.275,42,54.88
116,E5,24.75,0.275,52,54.88
117,B-3,24.75,0.275,43,54.88
118,E-5,25.0,0.275,55,54.88
119,B3,25.0,0.275,43,54.88
120,B4,25.25,0.25,52,54.88
121,F#3,25.25,0.25,38,54.88
122,F#5,25.5,0.275,57,54.88
123,G#3,25.5,0.275,44,54.88
124,E5,25.75,0.275,55,54.88
125,B-3,25.75,0.275,44,54.88
126,E-5,26.0,0.275,53,54.88
127,B3,26.0,0.275,43,54.88
128,C#5,26.25,0.275,51,54.88
129,C#4,26.25,0.275,43,54.88
130,B4,26.5,0.275,49,54.88
131,E-4,26.5,0.275,42,54.88
132,B-4,26.75,0.275,47,54.88
133,E4,26.75,0.275,42,54.88
134,B4,27.0,0.25,47,54.88
135,E-4,27.0,0.25,42,54.88
136,F#5,27.25,0.246,47,54.88
137,E-5,27.25,0.275,42,54.88
138,G#5,27.5,0.275,47,54.88
139,F#5,27.5,0.275,39,54.88
140,B-5,27.75,0.275,49,54.88
141,E5,27.75,0.275,40,54.88
142,B5,28.0,0.275,50,54.88
143,E-5,28.0,0.275,42,54.88
144,C#6,28.25,0.275,52,54.88
145,C#5,28.25,0.275,44,54.88
146,E-6,28.5,0.275,53,54.88
147,B4,28.5,0.275,45,54.88
148,E6,28.75,0.275,52,54.88
149,B-4,28.75,0.275,47,54.88
150,E-6,29.0,0.275,59,54.88
151,B4,29.0,0.275,50,54.88
152,C#6,29.25,0.275,47,54.88
153,B-4,29.25,0.275,42,54.88
154,B5,29.5,0.275,47,54.88
155,E-5,29.5,0.275,42,54.88
156,B-5,29.75,0.275,47,54.88
157,C#5,29.75,0.275,42,54.88
158,G#5,30.0,0.275,54,54.88
159,B4,30.0,0.275,49,54.88
160,F#5,30.25,0.275,47,54.88
161,B-4,30.25,0.275,37,54.88
162,E5,30.5,0.275,47,54.88
163,G#4,30.5,0.275,37,54.88
164,E-5,30.75,0.275,47,54.88
165,F#4,30.75,0.275,37,54.88
166,C#5,31.0,0.275,51,54.88
167,E4,31.0,0.275,46,54.88
168,B4,31.25,0.275,47,54.88
169,E-4,31.25,0.275,42,54.88
170,B-4,31.5,0.275,47,54.88
171,C#4,31.5,0.275,42,54.88
172,G#4,31.75,0.275,47,54.88
173,B3,31.75,0.275,42,54.88
174,F#4,32.0,0.25,51,54.88
175,B-3,32.0,0.25,42,54.88
176,E5,32.25,0.25,54,54.88
177,C#4,32.25,0.25,45,54.88
178,E-5,32.5,0.25,57,54.88
179,B3,32.5,0.25,47,54.88
180,G#5,32.75,0.25,60,54.88
181,E4,32.75,0.25,50,54.88
182,F#5,33.0,0.25,60,54.88
183,E-4,33.0,0.25,50,54.88
184,B5,33.25,0.25,45,54.88
185,D4,33.25,0.25,39,54.88
186,B-5,33.5,0.25,52,54.88
187,C#4,33.5,0.25,47,54.88
188,E6,33.75,0.25,49,54.88
189,F#3,33.75,0.25,40,54.88
190,E5,34.0,0.75,44,54.88
191,B-5,34.0,0.75,44,54.88
192,E6,34.0,0.75,44,54.88
193,C#4,34.0,0.75,36,54.88
194,F#4,34.0,0.75,36,54.88
195,F#3,34.0,0.75,36,54.88
196,B5,34.75,0.75,43,54.88
197,E-6,34.75,0.75,43,54.88
198,F#5,34.75,0.75,43,54.88
199,E-5,34.75,0.75,43,54.88
200,B2,35.5,0.5,32,54.88
201,B1,35.5,0.5,32,54.88
202,E-5,36.75,0.5,49,54.88
203,B5,36.75,0.5,49,54.88
204,E-6,36.75,0.5,49,54.88
205,G#5,36.75,0.5,49,54.88
206,G#1,37.0,0.5,82,54.88
207,G#2,37.0,0.5,82,54.88
208,E-5,37.25,0.25,37,54.88
209,G#4,37.5,0.25,37,54.88
210,E-5,37.75,0.25,37,54.88
211,E5,38.0,0.25,46,54.88
212,E-5,38.25,0.25,40,54.88
213,G#4,38.5,0.25,42,54.88
214,E-5,38.75,0.25,45,54.88
215,E5,39.0,2.25,49,54.88
216,G#4,39.25,0.25,39,54.88
217,C#4,39.5,0.25,41,54.88
218,G#4,39.75,0.25,37,54.88
219,B-4,40.0,0.25,42,54.88
220,G#4,40.25,0.25,34,54.88
221,C#4,40.5,0.25,41,54.88
222,G#4,40.75,0.25,34,54.88
223,G4,41.0,1.5,45,54.88
224,B-4,41.25,0.25,41,54.88
225,E-5,41.5,0.25,46,54.88
226,D5,41.75,0.25,42,54.88
227,E-5,42.0,0.25,44,54.88
228,B-4,42.25,0.25,37,54.88
229,E-5,42.5,0.25,43,54.88
230,G4,42.5,1.0,52,54.88
231,C#5,42.75,0.25,37,54.88
232,C5,43.0,0.25,52,54.88
233,E-5,43.25,0.25,46,54.88
234,C5,43.5,0.25,55,54.88
235,G4,43.5,0.5,49,54.88
236,G#5,43.75,0.25,47,54.88
237,C#5,44.0,0.25,60,54.88
238,E4,44.0,0.5,57,54.88
239,G#5,44.25,0.25,54,54.88
240,E-5,44.5,0.25,63,54.88
241,E-4,44.5,0.5,52,54.88
242,G#5,44.75,0.25,58,54.88
243,E5,45.0,1.0,70,54.88
244,C#4,45.0,0.25,60,54.88
245,G#3,45.25,0.25,37,54.88
246,C#3,45.5,0.25,42,54.88
247,G#3,45.75,0.25,37,54.88
248,E4,46.0,1.25,53,54.88
249,A3,46.0,0.25,44,54.88
250,G#3,46.25,0.25,37,54.88
251,C#3,46.5,0.25,37,54.88
252,G#3,46.75,0.25,37,54.88
253,A3,47.0,1.5,46,54.88
254,C#4,47.25,0.25,42,54.88
255,F#4,47.5,0.25,50,54.88
256,F4,47.75,0.25,37,54.88
257,F#4,48.0,0.25,51,54.88
258,C#4,48.25,0.25,43,54.88
259,F#4,48.5,0.25,51,54.88
260,G#3,48.5,0.5,40,54.88
261,E4,48.75,0.25,44,54.88
262,E-4,49.0,0.5,54,54.88
263,B-3,49.0,0.25,57,54.88
264,G3,49.0,2.0,57,54.88
265,C#4,49.25,0.25,44,54.88
266,E-5,49.5,1.0,60,54.88
267,B-3,49.5,0.25,52,54.88
268,E-4,49.75,0.25,44,54.88
269,E4,50.0,0.25,54,54.88
270,E-4,50.25,0.25,42,54.88
271,C#5,50.5,0.5,52,54.88
272,B-3,50.5,0.25,46,54.88
273,E-4,50.75,0.25,39,54.88
274,B4,51.0,0.25,63,54.88
275,G#3,51.0,0.5,55,54.88
276,E-5,51.25,0.25,53,54.88
277,B3,51.25,0.25,41,54.88
278,B4,51.5,0.25,62,54.88
279,G#3,51.5,0.25,42,54.88
280,E-5,51.75,0.25,53,54.88
281,B3,51.75,0.25,42,54.88
282,E5,52.0,0.25,63,54.88
283,B5,52.0,1.25,63,54.88
284,C#4,52.0,0.25,53,54.88
285,E-5,52.25,0.25,60,54.88
286,B3,52.25,0.25,37,54.88
287,G#4,52.5,0.25,65,54.88
288,G#3,52.5,0.25,45,54.88
289,B2,52.5,0.5,38,54.88
290,B4,52.75,0.25,60,54.88
291,B3,52.75,0.25,37,54.88
292,E5,53.0,1.0,58,54.88
293,E3,53.0,0.5,49,54.88
294,C#3,53.0,1.5,41,54.88
295,G#5,53.25,0.25,59,54.88
296,A5,53.5,0.25,65,54.88
297,C#4,53.5,1.0,57,54.88
298,C#6,53.75,0.25,59,54.88
299,A4,54.0,0.5,58,54.88
300,E5,54.0,0.25,70,54.88
301,A5,54.25,0.25,59,54.88
302,B4,54.5,0.5,62,54.88
303,E-5,54.5,0.25,73,54.88
304,B3,54.5,0.5,42,54.88
305,E-3,54.5,0.5,42,54.88
306,G#5,54.75,0.25,71,54.88
307,E-5,55.0,0.25,81,54.88
308,B4,55.0,0.5,69,54.88
309,B3,55.0,0.5,57,54.88
310,E-3,55.0,1.5,48,54.88
311,G#5,55.25,0.25,73,54.88
312,E-5,55.5,0.25,81,54.88
313,C#5,55.5,0.5,69,54.88
314,B-3,55.5,0.5,48,54.88
315,G5,55.75,0.25,77,54.88
316,E-5,56.0,0.25,81,54.88
317,B4,56.0,0.5,69,54.88
318,G#3,56.0,0.5,55,54.88
319,G#5,56.25,0.25,74,54.88
320,B-4,56.5,0.5,69,54.88
321,E-5,56.5,0.25,81,54.88
322,E-3,56.5,0.5,45,54.88
323,G3,56.5,0.5,45,54.88
324,B-5,56.75,0.25,72,54.88
325,G#5,57.25,1.25,34,54.88
326,E-5,57.25,1.25,34,54.88
327,B5,57.25,1.25,34,54.88
328,B4,57.25,1.25,34,54.88
329,G#2,58.5,0.5,22,54.88
330,G#3,58.5,0.5,22,54.88
331,G#5,59.25,1.25,34,54.88
332,B5,59.25,1.25,34,54.88
333,E5,59.25,1.25,34,54.88
334,B4,59.25,1.25,34,54.88
335,E2,60.5,0.5,22,54.88
336,E3,60.5,0.5,22,54.88
337,C#6,61.25,1.25,34,54.88
338,E5,61.25,1.25,34,54.88
339,C#5,61.25,1.25,34,54.88
340,G#5,61.25,1.25,34,54.88
341,C#3,62.5,0.5,22,54.88
342,C#2,62.5,0.5,22,54.88
343,E5,63.25,1.25,34,54.88
344,C#5,63.25,1.25,34,54.88
345,C#6,63.25,1.25,34,54.88
346,A5,63.25,1.25,34,54.88
347,A1,64.167,0.167,38,54.88
348,A2,64.333,0.125,32,54.88
349,A2,64.5,0.167,41,54.88
350,A3,64.667,0.125,32,54.88
351,A3,64.833,0.167,32,54.88
352,A4,65.0,0.125,37,54.88
353,A4,65.167,0.167,32,54.88
354,A5,65.333,0.167,41,54.88
355,A5,65.5,1.167,46,54.88
356,A6,65.667,1.0,45,54.88
357,A2,65.833,0.167,30,54.88
358,A1,65.833,0.167,30,54.88
359,B2,66.0,16.0,34,54.88
360,A1,66.0,16.0,34,54.88
361,D2,66.0,16.0,34,54.88
362,E2,66.0,16.0,34,54.88
363,G#6,66.667,0.667,56,54.88
364,G#5,66.667,0.667,56,54.88
365,E6,67.333,0.667,54,54.88
366,E5,67.333,0.667,54,54.88
367,E-5,68.0,0.667,50,54.88
368,E-6,68.0,0.667,50,54.88
369,D5,68.667,0.667,49,54.88
370,D6,68.667,0.667,49,54.88
371,B5,69.333,0.667,46,54.88
372,B4,69.333,0.667,46,54.88
373,G#5,70.0,0.333,51,54.88
374,E5,70.333,0.333,45,54.88
375,E-5,70.667,0.333,45,54.88
376,D5,71.0,0.333,45,54.88
377,B4,71.333,0.333,45,54.88
378,G#4,71.667,0.333,45,54.88
379,E4,72.0,0.333,48,54.88
380,E-4,72.333,0.333,42,54.88
381,D4,72.667,0.333,42,54.88
382,B3,73.0,0.25,42,54.88
383,G#3,73.25,0.25,36,54.88
384,E3,73.5,0.25,37,54.88
385,E-3,73.75,0.25,37,54.88
386,D3,74.0,0.15,48,54.88
387,E3,74.125,0.15,39,54.88
388,D3,74.25,0.15,48,54.88
389,E3,74.375,0.15,41,54.88
390,D3,74.5,0.15,40,54.88
391,E3,74.625,0.15,34,54.88
392,D3,74.75,0.15,40,54.88
393,E3,74.875,0.15,35,54.88
394,D3,75.0,0.15,40,54.88
395,E3,75.125,0.15,34,54.88
396,D3,75.25,0.15,40,54.88
397,E3,75.375,0.15,35,54.88
398,D3,75.5,0.15,40,54.88
399,E3,75.625,0.15,34,54.88
400,D3,75.75,0.15,40,54.88
401,E3,75.875,0.15,35,54.88
402,D3,76.0,0.15,40,54.88
403,E3,76.125,0.15,34,54.88
404,D3,76.25,0.15,40,54.88
405,E3,76.375,0.15,34,54.88
406,D3,76.5,0.15,40,54.88
407,E3,76.625,0.15,34,54.88
408,D3,76.75,0.15,40,54.88
409,E3,76.875,0.125,34,54.88
410,E-3,77.0,0.15,45,54.88
411,E3,77.125,0.15,38,54.88
412,E-3,77.25,0.15,45,54.88
413,E3,77.375,0.15,41,54.88
414,E-3,77.5,0.15,40,54.88
415,E3,77.625,0.15,34,54.88
416,E-3,77.75,0.15,40,54.88
417,E3,77.875,0.15,35,54.88
418,E-3,78.0,0.15,40,54.88
419,E3,78.125,0.15,35,54.88
420,E-3,78.25,0.15,40,54.88
421,E3,78.375,0.15,35,54.88
422,E-3,78.5,0.15,40,54.88
423,E3,78.667,0.2,35,54.88
424,E-3,78.833,0.2,40,54.88
425,E3,79.0,0.125,42,54.88
426,F#3,79.125,0.15,35,54.88
427,E3,79.25,0.15,44,54.88
428,F#3,79.375,0.15,38,54.88
429,E3,79.5,0.15,40,54.88
430,F#3,79.625,0.15,35,54.88
431,E3,79.75,0.15,40,54.88
432,F#3,79.875,0.15,35,54.88
433,E3,80.0,0.15,40,54.88
434,F#3,80.125,0.15,35,54.88
435,E3,80.25,0.15,40,54.88
436,F#3,80.375,0.15,35,54.88
437,E3,80.5,0.15,40,54.88
438,F#3,80.625,0.15,35,54.88
439,E3,80.75,0.15,40,54.88
440,F#3,80.875,0.15,36,54.88
441,E3,81.0,0.15,40,54.88
442,F#3,81.125,0.15,35,54.88
443,E3,81.25,0.15,40,54.88
444,F#3,81.375,0.15,36,54.88
445,E3,81.5,0.2,40,54.88
446,E-3,81.667,0.2,37,54.88
447,E3,81.833,0.167,37,54.88
448,E3,82.0,1.0,38,54.88
449,C#3,82.0,1.0,38,54.88
450,A2,82.5,0.5,24,54.88
451,A1,82.5,0.5,24,54.88
452,E3,83.0,0.062,38,54.88
453,C#3,83.0,0.062,38,54.88
454,A2,83.25,0.125,26,54.88
455,A1,83.25,0.125,26,54.88
456,C#3,83.5,0.5,38,54.88
457,E3,83.5,0.5,38,54.88
458,E3,84.0,1.0,38,54.88
459,C#3,84.0,1.0,38,54.88
460,A1,84.5,0.5,24,54.88
461,A2,84.5,0.5,24,54.88
462,C#3,85.0,0.062,38,54.88
463,A3,85.0,0.062,38,54.88
464,F#2,85.25,0.125,26,54.88
465,F#1,85.25,0.125,26,54.88
466,F#3,85.5,0.5,36,54.88
467,C#3,85.5,0.5,36,54.88
468,A3,85.5,0.5,36,54.88
469,A3,86.0,1.0,38,54.88
470,F#3,86.0,1.0,38,54.88
471,D2,86.5,0.5,24,54.88
472,D3,86.5,0.5,24,54.88
473,A3,87.0,0.062,38,54.88
474,F#3,87.0,0.062,38,54.88
475,D2,87.25,0.125,26,54.88
476,D3,87.25,0.125,26,54.88
477,A3,87.5,0.5,38,54.88
478,F#3,87.5,0.5,38,54.88
479,A3,88.0,1.0,38,54.88
480,F#3,88.0,1.0,38,54.88
481,D3,88.5,0.5,24,54.88
482,D2,88.5,0.5,24,54.88
483,F#3,89.0,0.062,38,54.88
484,D4,89.0,0.062,38,54.88
485,B1,89.25,0.125,26,54.88
486,B2,89.25,0.125,26,54.88
487,F#3,89.5,0.5,36,54.88
488,B3,89.5,0.5,36,54.88
489,D4,89.5,0.5,36,54.88
490,D4,90.0,1.0,38,54.88
491,B3,90.0,1.0,38,54.88
492,G2,90.5,0.5,24,54.88
493,G3,90.5,0.5,24,54.88
494,B3,91.0,0.094,38,54.88
495,D4,91.0,0.094,38,54.88
496,G2,91.25,0.125,26,54.88
497,G3,91.25,0.125,26,54.88
498,B3,91.5,0.5,38,54.88
499,D4,91.5,0.5,38,54.88
500,D4,92.0,1.0,40,54.88
501,B3,92.0,1.0,40,54.88
502,G2,92.5,0.5,25,54.88
503,G3,92.5,0.5,25,54.88
504,G4,93.0,0.094,42,54.88
505,B3,93.0,0.094,42,54.88
506,E2,93.25,0.125,28,54.88
507,E3,93.25,0.125,28,54.88
508,B3,93.5,0.5,42,54.88
509,G4,93.5,0.5,42,54.88
510,G4,94.0,1.0,44,54.88
511,E4,94.0,1.0,44,54.88
512,C4,94.5,0.5,29,54.88
513,C3,94.5,0.5,29,54.88
514,E4,95.0,0.094,46,54.88
515,G4,95.0,0.094,46,54.88
516,C3,95.25,0.125,31,54.88
517,C4,95.25,0.125,31,54.88
518,G4,95.5,0.5,46,54.88
519,E4,95.5,0.5,46,54.88
520,E4,96.0,1.0,48,54.88
521,C5,96.0,1.0,48,54.88
522,A3,96.5,0.5,32,54.88
523,A2,96.5,0.5,32,54.88
524,E4,97.0,0.094,50,54.88
525,C5,97.0,0.094,50,54.88
526,A2,97.25,0.125,34,54.88
527,A3,97.25,0.125,34,54.88
528,E4,97.5,0.5,52,54.88
529,C5,97.5,0.5,52,54.88
530,C5,98.0,1.0,53,54.88
531,A4,98.0,1.0,53,54.88
532,F2,98.5,0.5,35,54.88
533,F3,98.5,0.5,35,54.88
534,C5,99.0,0.125,60,54.88
535,A4,99.0,0.125,60,54.88
536,F3,99.25,0.125,41,54.88
537,F2,99.25,0.125,41,54.88
538,A4,99.5,0.5,63,54.88
539,C5,99.5,0.5,63,54.88
540,A4,100.0,1.0,66,54.88
541,F5,100.0,1.0,66,54.88
542,D2,100.5,0.5,44,54.88
543,D3,100.5,0.5,44,54.88
544,A4,101.0,0.125,72,54.88
545,D5,101.0,0.125,72,54.88
546,F5,101.0,0.125,72,54.88
547,D3,101.25,0.125,52,54.88
548,D2,101.25,0.125,52,54.88
549,D5,101.5,0.5,76,54.88
550,A4,101.5,0.5,76,54.88
551,F5,101.5,0.5,76,54.88
552,E5,102.0,1.0,80,54.88
553,A4,102.0,1.0,80,54.88
554,C#5,102.0,1.0,80,54.88
555,A5,102.0,1.0,80,54.88
556,A1,102.5,0.5,50,54.88
557,C#2,102.5,0.5,50,54.88
558,E2,102.5,0.5,50,54.88
559,A2,102.5,0.5,50,54.88
560,E5,103.0,0.125,78,54.88
561,C#5,103.0,0.125,78,54.88
562,A4,103.0,0.125,78,54.88
563,A5,103.0,0.125,78,54.88
564,C#2,103.25,0.125,53,54.88
565,A1,103.25,0.125,53,54.88
566,A2,103.25,0.125,53,54.88
567,E2,103.25,0.125,53,54.88
568,C#5,103.5,0.5,78,54.88
569,A4,103.5,0.5,78,54.88
570,A5,103.5,0.5,78,54.88
571,E5,103.5,0.5,78,54.88
572,A4,104.0,1.0,76,54.88
573,A5,104.0,1.0,76,54.88
574,C#5,104.0,1.0,76,54.88
575,E5,104.0,1.0,76,54.88
576,C#2,104.5,0.5,48,54.88
577,E2,104.5,0.5,48,54.88
578,A2,104.5,0.5,48,54.88
579,A1,104.5,0.5,48,54.88
580,A4,105.0,0.125,75,54.88
581,C#5,105.0,0.125,75,54.88
582,E5,105.0,0.125,75,54.88
583,A5,105.0,0.125,75,54.88
584,A1,105.25,0.125,50,54.88
585,E2,105.25,0.125,50,54.88
586,A2,105.25,0.125,50,54.88
587,C#2,105.25,0.125,50,54.88
588,E5,105.5,0.5,74,54.88
589,C#5,105.5,0.5,74,54.88
590,A5,105.5,0.5,74,54.88
591,A4,105.5,0.5,74,54.88
592,C#5,106.0,1.0,73,54.88
593,A5,106.0,1.0,73,54.88
594,E5,106.0,1.0,73,54.88
595,A4,106.0,1.0,73,54.88
596,C#2,106.5,0.5,46,54.88
597,A1,106.5,0.5,46,54.88
598,A2,106.5,0.5,46,54.88
599,E2,106.5,0.5,46,54.88
600,A4,107.0,0.125,75,54.88
601,A5,107.0,0.125,75,54.88
602,A1,107.25,0.125,50,54.88
603,A2,107.25,0.125,50,54.88
604,A5,107.5,0.5,74,54.88
605,A4,107.5,0.5,74,54.88
606,A4,108.0,1.0,67,54.88
607,A5,108.0,1.0,67,54.88
608,A2,108.5,0.5,40,54.88
609,A1,108.5,0.5,40,54.88
610,A4,109.0,0.125,60,54.88
611,A5,109.0,0.125,60,54.88
612,A1,109.25,0.125,39,54.88
613,A2,109.25,0.125,39,54.88
614,A4,109.5,0.5,56,54.88
615,A5,109.5,0.5,56,54.88
616,A5,110.0,1.0,52,54.88
617,A4,110.0,1.0,52,54.88
618,A1,110.5,0.5,30,54.88
619,A2,110.5,0.5,30,54.88
620,A5,111.0,0.125,44,54.88
621,A4,111.0,0.125,44,54.88
622,A2,111.25,0.125,29,54.88
623,A1,111.25,0.125,29,54.88
624,A4,111.5,0.5,41,54.88
625,A5,111.5,0.5,41,54.88
626,A4,112.0,1.0,30,54.88
627,A5,112.0,1.0,30,54.88
628,F1,112.5,0.5,18,54.88
629,F2,112.5,0.5,18,54.88
630,A5,113.0,0.125,30,54.88
631,A4,113.0,0.125,30,54.88
632,F2,113.25,0.125,20,54.88
633,F1,113.25,0.125,20,54.88
634,A5,113.5,0.5,30,54.88
635,A4,113.5,0.5,30,54.88
636,A5,114.0,0.167,40,54.88
637,F1,114.0,0.5,28,54.88
638,F2,114.0,0.5,28,54.88
639,B-5,114.167,0.167,36,54.88
640,A5,114.333,0.167,40,54.88
641,B-5,114.5,0.167,35,54.88
642,A5,114.667,0.167,40,54.88
643,B-5,114.833,0.167,36,54.88
644,A5,115.0,0.167,40,54.88
645,F3,115.0,0.5,28,54.88
646,A3,115.0,0.5,28,54.88
647,B-5,115.167,0.167,36,54.88
648,A5,115.333,0.167,40,54.88
649,B-5,115.5,0.167,36,54.88
650,A5,115.667,0.167,40,54.88
651,B-5,115.833,0.167,35,54.88
652,A5,116.0,0.167,40,54.88
653,B-5,116.167,0.167,36,54.88
654,A5,116.333,0.167,40,54.88
655,B-5,116.5,0.167,35,54.88
656,A5,116.667,0.167,40,54.88
657,B-5,116.833,0.167,34,54.88
658,A5,117.0,0.167,48,54.88
659,F2,117.0,0.5,42,54.88
660,F1,117.0,0.5,42,54.88
661,B-5,117.167,0.167,43,54.88
662,A5,117.333,0.167,49,54.88
663,B-5,117.5,0.167,43,54.88
664,A5,117.667,0.167,50,54.88
665,B-5,117.833,0.167,43,54.88
666,C6,118.0,0.167,52,54.88
667,A3,118.0,0.5,36,54.88
668,C4,118.0,0.5,36,54.88
669,D6,118.167,0.167,47,54.88
670,C6,118.333,0.167,53,54.88
671,D6,118.5,0.167,47,54.88
672,C6,118.667,0.167,54,54.88
673,D6,118.833,0.167,49,54.88
674,C6,119.0,0.167,56,54.88
675,D6,119.167,0.167,50,54.88
676,C6,119.333,0.167,57,54.88
677,D6,119.5,0.167,52,54.88
678,C6,119.667,0.167,58,54.88
679,D6,119.833,0.167,51,54.88
680,C6,120.0,0.167,60,54.88
681,F2,120.0,0.5,50,54.88
682,F1,120.0,0.5,50,54.88
683,D6,120.167,0.167,54,54.88
684,C6,120.333,0.167,61,54.88
685,D6,120.5,0.167,54,54.88
686,C6,120.667,0.167,62,54.88
687,D6,120.833,0.167,53,54.88
688,F6,121.0,0.167,64,54.88
689,F4,121.0,0.5,47,54.88
690,C4,121.0,0.5,47,54.88
691,A3,121.0,0.5,47,54.88
692,F3,121.0,0.5,47,54.88
693,G6,121.167,0.167,57,54.88
694,F6,121.333,0.167,65,54.88
695,G6,121.5,0.167,57,54.88
696,F6,121.667,0.167,66,54.88
697,G6,121.833,0.167,60,54.88
698,F6,122.0,0.167,68,54.88
699,F1,122.0,0.5,52,54.88
700,F2,122.0,0.5,52,54.88
701,G6,122.167,0.167,61,54.88
702,F6,122.333,0.167,69,54.88
703,G6,122.5,0.167,63,54.88
704,F6,122.667,0.167,70,54.88
705,G6,122.833,0.167,62,54.88
706,F6,123.0,0.25,78,54.88
707,F4,123.0,0.5,58,54.88
708,C4,123.0,0.5,58,54.88
709,A3,123.0,0.5,58,54.88
710,F3,123.0,0.5,58,54.88
711,E-6,123.25,0.25,77,54.88
712,D6,123.5,0.25,76,54.88
713,C6,123.75,0.25,75,54.88
714,B-5,124.0,0.25,73,54.88
715,F1,124.0,1.5,69,54.88
716,F2,124.0,1.5,69,54.88
717,A5,124.25,0.25,72,54.88
718,G5,124.5,0.25,71,54.88
719,F5,124.75,0.25,73,54.88
720,E-5,125.0,0.25,75,54.88
721,D5,125.25,0.25,76,54.88
722,C5,125.5,0.25,78,54.88
723,G2,125.5,0.25,54,54.88
724,F5,125.75,0.25,79,54.88
725,A2,125.75,0.25,55,54.88
726,F4,126.0,0.5,78,54.88
727,B-4,126.0,0.5,78,54.88
728,B-3,126.0,0.5,78,54.88
729,D4,126.0,0.5,78,54.88
730,B-1,126.0,0.5,58,54.88
731,D2,126.0,0.5,58,54.88
732,B-2,126.0,0.5,58,54.88
733,F2,126.0,0.5,58,54.88
734,G4,127.5,0.3,50,54.88
735,F4,127.75,0.3,43,54.88
736,E-4,128.0,0.3,50,54.88
737,D4,128.25,0.3,47,54.88
738,C4,128.5,0.3,47,54.88
739,B-3,128.75,0.3,47,54.88
740,A3,129.0,0.3,50,54.88
741,F3,129.0,0.5,40,54.88
742,B-3,129.25,0.3,44,54.88
743,A3,129.5,0.3,44,54.88
744,G3,129.75,0.3,44,54.88
745,F3,130.0,0.25,50,54.88
746,A4,130.0,0.167,46,54.88
747,B-4,130.167,0.167,40,54.88
748,G3,130.25,0.25,44,54.88
749,A4,130.333,0.167,46,54.88
750,F3,130.5,0.25,44,54.88
751,B-4,130.5,0.167,40,54.88
752,A4,130.667,0.167,44,54.88
753,E-3,130.75,0.25,44,54.88
754,B-4,130.833,0.167,40,54.88
755,D3,131.0,0.25,50,54.88
756,A4,131.0,0.167,45,54.88
757,B-4,131.167,0.167,40,54.88
758,E-3,131.25,0.25,44,54.88
759,A4,131.333,0.167,44,54.88
760,D3,131.5,0.25,44,54.88
761,B-4,131.5,0.125,40,54.88
762,A4,131.625,0.125,44,54.88
763,C3,131.75,0.25,44,54.88
764,G4,131.75,0.125,40,54.88
765,A4,131.875,0.125,40,54.88
766,B-2,132.0,1.0,50,54.88
767,B-4,132.0,1.0,52,54.88
768,B-4,133.5,0.3,52,54.88
769,A4,133.75,0.3,46,54.88
770,G4,134.0,0.3,46,54.88
771,F4,134.25,0.3,46,54.88
772,E-4,134.5,0.3,48,54.88
773,D4,134.75,0.3,43,54.88
774,G4,135.0,0.5,52,54.88
775,G4,136.5,0.3,52,54.88
776,F4,136.75,0.3,46,54.88
777,E-4,137.0,0.3,46,54.88
778,D4,137.25,0.3,46,54.88
779,C4,137.5,0.3,49,54.88
780,B-3,137.75,0.3,45,54.88
781,E-4,138.0,0.5,52,54.88
782,E-4,139.5,0.3,52,54.88
783,D4,139.75,0.3,46,54.88
784,C4,140.0,0.3,52,54.88
785,D4,140.25,0.3,46,54.88
786,C4,140.5,0.3,46,54.88
787,B-3,140.75,0.25,46,54.88
788,A3,141.0,0.3,53,54.88
789,B-3,141.25,0.3,47,54.88
790,A3,141.5,0.3,47,54.88
791,G3,141.75,0.3,47,54.88
792,F3,142.0,0.3,52,54.88
793,G3,142.25,0.3,47,54.88
794,A3,142.5,0.3,48,54.88
795,B-3,142.75,0.3,48,54.88
796,B3,143.0,0.3,52,54.88
797,C4,143.25,0.3,49,54.88
798,D4,143.5,0.3,49,54.88
799,C4,143.75,0.25,49,54.88
800,B-3,144.0,0.3,52,54.88
801,C4,144.25,0.3,47,54.88
802,D4,144.5,0.3,47,54.88
803,E-4,144.75,0.3,47,54.88
804,E4,145.0,0.3,52,54.88
805,F4,145.25,0.3,45,54.88
806,G4,145.5,0.3,45,54.88
807,F4,145.75,0.3,45,54.88
808,E-4,146.0,0.3,52,54.88
809,D4,146.25,0.3,48,54.88
810,C4,146.5,0.3,48,54.88
811,B-3,146.75,0.25,48,54.88
812,A3,147.0,0.3,52,54.88
813,B-3,147.25,0.3,47,54.88
814,A3,147.5,0.3,47,54.88
815,G3,147.75,0.3,47,54.88
816,F3,148.0,0.3,53,54.88
817,G3,148.25,0.3,47,54.88
818,A3,148.5,0.3,48,54.88
819,B-3,148.75,0.25,48,54.88
820,B3,149.0,0.3,54,54.88
821,C4,149.25,0.3,47,54.88
822,D4,149.5,0.3,48,54.88
823,C4,149.75,0.25,48,54.88
824,B-3,150.0,0.3,55,54.88
825,C4,150.25,0.3,48,54.88
826,D4,150.5,0.3,49,54.88
827,E-4,150.75,0.3,49,54.88
828,E4,151.0,0.3,56,54.88
829,F4,151.25,0.3,51,54.88
830,G4,151.5,0.3,52,54.88
831,F4,151.75,0.25,52,54.88
832,B-3,152.0,0.25,57,54.88
833,F#4,152.25,0.3,52,54.88
834,G4,152.5,0.3,53,54.88
835,F#4,152.75,0.25,53,54.88
836,B-3,153.0,0.25,61,54.88
837,G4,153.25,0.3,53,54.88
838,A4,153.5,0.3,53,54.88
839,G4,153.75,0.25,53,54.88
840,F#4,154.0,0.25,59,54.88
841,G4,154.25,0.3,55,54.88
842,A4,154.5,0.3,55,54.88
843,G4,154.75,0.25,55,54.88
844,E4,155.0,0.25,60,54.88
845,F4,155.25,0.3,54,54.88
846,G4,155.5,0.3,54,54.88
847,F4,155.75,0.25,55,54.88
848,E4,156.0,0.25,61,54.88
849,F4,156.25,0.3,57,54.88
850,G4,156.5,0.3,57,54.88
851,F4,156.75,0.25,57,54.88
852,D4,157.0,0.25,62,54.88
853,E-4,157.25,0.3,58,54.88
854,F4,157.5,0.3,59,54.88
855,E-4,157.75,0.25,59,54.88
856,C#4,158.0,0.25,63,54.88
857,D4,158.25,0.3,59,54.88
858,E-4,158.5,0.3,59,54.88
859,D4,158.75,0.25,59,54.88
860,B-3,159.0,0.25,65,54.88
861,C#4,159.0,0.25,65,54.88
862,D4,159.25,0.3,58,54.88
863,E-4,159.5,0.3,58,54.88
864,D4,159.75,0.25,58,54.88
865,E5,160.0,0.167,65,54.88
866,B3,160.0,0.25,65,54.88
867,F5,160.167,0.167,59,54.88
868,C4,160.25,0.25,60,54.88
869,E5,160.333,0.167,65,54.88
870,F5,160.5,0.167,60,54.88
871,D4,160.5,0.25,60,54.88
872,E5,160.667,0.167,65,54.88
873,C4,160.75,0.25,60,54.88
874,F5,160.833,0.167,61,54.88
875,E5,161.0,0.167,65,54.88
876,A3,161.0,0.25,65,54.88
877,F5,161.167,0.167,65,54.88
878,B-3,161.25,0.25,58,54.88
879,E5,161.333,0.167,65,54.88
880,F5,161.5,0.125,61,54.88
881,C4,161.5,0.25,58,54.88
882,E5,161.625,0.125,65,54.88
883,D5,161.75,0.125,61,54.88
884,B-3,161.75,0.25,58,54.88
885,E5,161.875,0.125,61,54.88
886,F5,162.0,1.0,69,54.88
887,A3,162.5,0.25,65,54.88
888,A4,163.0,1.5,76,54.88
889,F5,163.5,0.3,62,54.88
890,E5,163.75,0.3,52,54.88
891,D5,164.0,0.3,52,54.88
892,C5,164.25,0.3,52,54.88
893,B-4,164.5,0.3,58,54.88
894,A4,164.75,0.3,51,54.88
895,D5,165.0,1.0,69,54.88
896,F3,165.5,0.25,65,54.88
897,F4,166.0,1.5,76,54.88
898,D5,166.5,0.3,62,54.88
899,C5,166.75,0.3,52,54.88
900,B-4,167.0,0.3,52,54.88
901,A4,167.25,0.3,52,54.88
902,G4,167.5,0.3,58,54.88
903,F4,167.75,0.3,51,54.88
904,B-4,168.0,1.0,69,54.88
905,D3,168.5,0.25,61,54.88
906,D4,169.0,0.55,68,54.88
907,B-4,169.5,0.3,66,54.88
908,C4,169.5,0.55,61,54.88
909,A4,169.75,0.3,65,54.88
910,G4,170.0,0.3,64,54.88
911,B-3,170.0,0.55,60,54.88
912,A4,170.25,0.3,63,54.88
913,G4,170.5,0.3,61,54.88
914,B3,170.5,0.55,60,54.88
915,F4,170.75,0.3,62,54.88
916,E4,171.0,0.3,66,54.88
917,C4,171.0,0.25,70,54.88
918,F4,171.25,0.3,59,54.88
919,E4,171.5,0.3,59,54.88
920,D4,171.75,0.25,59,54.88
921,C4,172.0,0.25,59,54.88
922,B-3,172.0,1.5,71,54.88
923,D4,172.25,0.3,62,54.88
924,E4,172.5,0.3,57,54.88
925,F4,172.75,0.3,57,54.88
926,F#4,173.0,0.3,57,54.88
927,G4,173.25,0.3,57,54.88
928,A4,173.5,0.3,57,54.88
929,B-3,173.5,0.5,59,54.88
930,G4,173.75,0.25,57,54.88
931,F4,174.0,0.3,60,54.88
932,B-3,174.0,0.55,65,54.88
933,G4,174.25,0.3,61,54.88
934,A4,174.5,0.3,61,54.88
935,A3,174.5,0.55,59,54.88
936,B-4,174.75,0.3,62,54.88
937,B4,175.0,0.3,63,54.88
938,G3,175.0,0.55,59,54.88
939,C5,175.25,0.3,63,54.88
940,D5,175.5,0.3,64,54.88
941,F3,175.5,0.55,59,54.88
942,C5,175.75,0.3,60,54.88
943,B-4,176.0,0.3,64,54.88
944,E3,176.0,0.55,59,54.88
945,A4,176.25,0.3,63,54.88
946,G4,176.5,0.3,62,54.88
947,F3,176.5,0.5,59,54.88
948,F4,176.75,0.3,60,54.88
949,E4,177.0,0.3,65,54.88
950,C4,177.0,0.25,69,54.88
951,F4,177.25,0.3,56,54.88
952,E4,177.5,0.3,58,54.88
953,D4,177.75,0.25,58,54.88
954,C4,178.0,0.3,62,54.88
955,B-3,178.0,1.5,68,54.88
956,D4,178.25,0.3,62,54.88
957,E4,178.5,0.3,58,54.88
958,F4,178.75,0.3,58,54.88
959,F#4,179.0,0.3,58,54.88
960,G4,179.25,0.3,58,54.88
961,A4,179.5,0.3,58,54.88
962,A3,179.5,0.5,65,54.88
963,F4,179.75,0.25,58,54.88
964,E4,180.0,0.3,66,54.88
965,D4,180.0,0.25,71,54.88
966,F4,180.25,0.3,62,54.88
967,C5,180.5,0.3,59,54.88
968,B-4,180.75,0.25,59,54.88
969,A4,181.0,0.3,62,54.88
970,C#4,181.0,1.5,70,54.88
971,B-4,181.25,0.3,56,54.88
972,C5,181.5,0.3,56,54.88
973,B-4,181.75,0.25,56,54.88
974,G#4,182.0,0.3,58,54.88
975,A4,182.25,0.3,57,54.88
976,B-4,182.5,0.3,57,54.88
977,C4,182.5,0.5,62,54.88
978,A4,182.75,0.25,57,54.88
979,G4,183.0,0.3,68,54.88
980,F4,183.0,0.25,71,54.88
981,G#4,183.25,0.3,62,54.88
982,E-5,183.5,0.3,68,54.88
983,D5,183.75,0.25,62,54.88
984,C5,184.0,0.3,64,54.88
985,E4,184.0,1.5,70,54.88
986,C#5,184.25,0.3,59,54.88
987,D5,184.5,0.3,59,54.88
988,C#5,184.75,0.25,59,54.88
989,B4,185.0,0.3,62,54.88
990,C5,185.25,0.3,58,54.88
991,D5,185.5,0.3,58,54.88
992,E-4,185.5,0.5,61,54.88
993,C5,185.75,0.25,58,54.88
994,E-4,186.0,2.0,79,54.88
995,G#4,186.0,0.3,79,54.88
996,F2,186.0,0.5,73,54.88
997,A4,186.25,0.3,68,54.88
998,B-4,186.5,0.3,68,54.88
999,A4,186.75,0.25,68,54.88
1000,E4,187.0,0.25,68,54.88
1001,A3,187.0,0.167,70,54.88
1002,B-3,187.167,0.167,62,54.88
1003,F4,187.25,0.25,64,54.88
1004,A3,187.333,0.167,70,54.88
1005,G4,187.5,0.25,64,54.88
1006,B-3,187.5,0.167,63,54.88
1007,A3,187.667,0.167,70,54.88
1008,F4,187.75,0.25,64,54.88
1009,B-3,187.833,0.167,63,54.88
1010,F4,188.0,1.5,71,54.88
1011,B4,188.0,0.25,68,54.88
1012,A3,188.0,0.167,70,54.88
1013,B-3,188.167,0.167,64,54.88
1014,C5,188.25,0.25,63,54.88
1015,A3,188.333,0.167,70,54.88
1016,D5,188.5,0.25,63,54.88
1017,B-3,188.5,0.125,63,54.88
1018,A3,188.625,0.125,70,54.88
1019,C5,188.75,0.25,63,54.88
1020,G3,188.75,0.125,65,54.88
1021,A3,188.875,0.125,65,54.88
1022,B-3,189.0,1.0,72,54.88
1023,D4,189.5,0.25,65,54.88
1024,D5,190.0,1.5,76,54.88
1025,A4,190.5,0.5,45,54.88
1026,B-3,190.5,0.3,62,54.88
1027,A3,190.75,0.3,52,54.88
1028,B-4,191.0,1.0,50,54.88
1029,G3,191.0,0.3,52,54.88
1030,F3,191.25,0.3,52,54.88
1031,E-3,191.5,0.3,58,54.88
1032,D3,191.75,0.3,51,54.88
1033,G3,192.0,1.0,69,54.88
1034,B-3,192.5,0.25,65,54.88
1035,B-4,193.0,1.5,76,54.88
1036,F#4,193.5,0.5,45,54.88
1037,G3,193.5,0.3,62,54.88
1038,F3,193.75,0.3,52,54.88
1039,G4,194.0,1.0,50,54.88
1040,E-3,194.0,0.3,52,54.88
1041,D3,194.25,0.3,52,54.88
1042,C3,194.5,0.3,58,54.88
1043,B-2,194.75,0.3,51,54.88
1044,E-3,195.0,1.0,69,54.88
1045,G4,195.5,0.25,61,54.88
1046,G5,196.0,0.55,68,54.88
1047,E-3,196.5,0.3,56,54.88
1048,B4,196.5,0.5,56,54.88
1049,F5,196.5,0.5,56,54.88
1050,D3,196.75,0.3,55,54.88
1051,C3,197.0,0.3,54,54.88
1052,C5,197.0,0.5,56,54.88
1053,E-5,197.0,0.5,56,54.88
1054,D3,197.25,0.3,53,54.88
1055,C3,197.5,0.3,51,54.88
1056,G4,197.5,0.5,56,54.88
1057,E5,197.5,0.5,56,54.88
1058,B-2,197.75,0.3,52,54.88
1059,A2,198.0,0.3,56,54.88
1060,C5,198.0,0.25,64,54.88
1061,F5,198.0,0.25,64,54.88
1062,B-2,198.25,0.3,50,54.88
1063,F4,198.5,0.5,59,54.88
1064,A2,198.5,0.3,50,54.88
1065,G2,198.75,0.25,50,54.88
1066,C5,199.0,0.5,59,54.88
1067,E-5,199.0,1.5,78,54.88
1068,F2,199.0,0.25,50,54.88
1069,G2,199.25,0.3,52,54.88
1070,F#4,199.5,0.5,59,54.88
1071,A2,199.5,0.3,48,54.88
1072,B-2,199.75,0.3,48,54.88
1073,F4,200.0,1.5,59,54.88
1074,B2,200.0,0.3,48,54.88
1075,C3,200.25,0.3,48,54.88
1076,E-5,200.5,0.5,59,54.88
1077,D3,200.5,0.3,48,54.88
1078,C3,200.75,0.25,48,54.88
1079,E-5,201.0,0.55,65,54.88
1080,B-2,201.0,0.3,51,54.88
1081,C3,201.25,0.3,51,54.88
1082,D3,201.5,0.3,51,54.88
1083,F4,201.5,0.5,54,54.88
1084,D5,201.5,0.5,54,54.88
1085,E-3,201.75,0.3,52,54.88
1086,E3,202.0,0.3,53,54.88
1087,E-4,202.0,0.5,54,54.88
1088,C5,202.0,0.5,54,54.88
1089,F3,202.25,0.3,53,54.88
1090,G3,202.5,0.3,54,54.88
1091,D4,202.5,0.5,54,54.88
1092,B-4,202.5,0.5,54,54.88
1093,F3,202.75,0.3,51,54.88
1094,E-3,203.0,0.3,54,54.88
1095,C4,203.0,0.5,54,54.88
1096,A4,203.0,0.5,54,54.88
1097,D3,203.25,0.3,53,54.88
1098,C3,203.5,0.3,52,54.88
1099,D4,203.5,0.5,54,54.88
1100,B-4,203.5,0.5,54,54.88
1101,B-2,203.75,0.3,51,54.88
1102,F4,204.0,0.25,70,54.88
1103,A2,204.0,0.3,56,54.88
1104,B-2,204.25,0.3,50,54.88
1105,B4,204.5,0.5,59,54.88
1106,A2,204.5,0.3,50,54.88
1107,G2,204.75,0.25,50,54.88
1108,C5,205.0,0.5,59,54.88
1109,E-4,205.0,1.5,78,54.88
1110,F2,205.0,0.25,50,54.88
1111,G2,205.25,0.3,52,54.88
1112,F#4,205.5,0.5,59,54.88
1113,A2,205.5,0.3,48,54.88
1114,B-2,205.75,0.3,48,54.88
1115,F4,206.0,1.0,59,54.88
1116,A2,206.0,0.3,48,54.88
1117,B-2,206.25,0.3,48,54.88
1118,D4,206.5,0.5,59,54.88
1119,C3,206.5,0.3,48,54.88
1120,D3,206.75,0.25,48,54.88
1121,G#5,207.0,0.25,77,54.88
1122,E-3,207.0,0.3,51,54.88
1123,F3,207.25,0.3,51,54.88
1124,B-4,207.5,0.5,59,54.88
1125,G3,207.5,0.3,51,54.88
1126,E-3,207.75,0.3,52,54.88
1127,E5,208.0,0.5,59,54.88
1128,G5,208.0,1.5,85,54.88
1129,C#3,208.0,0.3,53,54.88
1130,D3,208.25,0.3,53,54.88
1131,B-4,208.5,1.5,59,54.88
1132,E3,208.5,0.3,54,54.88
1133,C#3,208.75,0.3,51,54.88
1134,D3,209.0,0.25,54,54.88
1135,F3,209.25,0.25,53,54.88
1136,F5,209.5,0.5,59,54.88
1137,B-3,209.5,0.25,52,54.88
1138,D4,209.75,0.25,51,54.88
1139,C5,210.0,0.25,77,54.88
1140,F#3,210.0,0.3,56,54.88
1141,G3,210.25,0.3,50,54.88
1142,E-5,210.5,0.5,59,54.88
1143,A3,210.5,0.3,50,54.88
1144,G3,210.75,0.25,50,54.88
1145,G5,211.0,0.5,59,54.88
1146,B-4,211.0,1.5,85,54.88
1147,E-3,211.0,0.25,50,54.88
1148,E3,211.25,0.3,52,54.88
1149,C#5,211.5,0.5,59,54.88
1150,F3,211.5,0.3,48,54.88
1151,E3,211.75,0.3,48,54.88
1152,C5,212.0,1.0,59,54.88
1153,F3,212.0,0.25,48,54.88
1154,A3,212.25,0.25,48,54.88
1155,A4,212.5,0.5,59,54.88
1156,C4,212.5,0.25,48,54.88
1157,F4,212.75,0.25,48,54.88
1158,F6,213.0,0.25,83,54.88
1159,B3,213.0,0.3,51,54.88
1160,C4,213.25,0.3,51,54.88
1161,A5,213.5,0.5,67,54.88
1162,D4,213.5,0.3,51,54.88
1163,C4,213.75,0.3,52,54.88
1164,C6,214.0,0.5,67,54.88
1165,E-6,214.0,1.5,89,54.88
1166,G#3,214.0,0.3,53,54.88
1167,A3,214.25,0.3,53,54.88
1168,F#5,214.5,0.5,67,54.88
1169,B-3,214.5,0.3,54,54.88
1170,A3,214.75,0.3,51,54.88
1171,F5,215.0,1.0,67,54.88
1172,B-3,215.0,0.3,54,54.88
1173,A3,215.25,0.3,53,54.88
1174,D6,215.5,0.5,71,54.88
1175,G3,215.5,0.3,52,54.88
1176,F3,215.75,0.3,51,54.88
1177,G#6,216.0,0.25,92,54.88
1178,E-3,216.0,0.3,51,54.88
1179,F3,216.25,0.3,51,54.88
1180,B-5,216.5,0.5,67,54.88
1181,G3,216.5,0.3,51,54.88
1182,E-3,216.75,0.3,52,54.88
1183,E6,217.0,0.5,67,54.88
1184,G6,217.0,1.5,102,54.88
1185,D3,217.0,0.3,53,54.88
1186,C#3,217.25,0.3,53,54.88
1187,B-5,217.5,1.0,67,54.88
1188,C3,217.5,0.3,54,54.88
1189,C#3,217.75,0.3,51,54.88
1190,D3,218.0,0.3,54,54.88
1191,E3,218.25,0.3,53,54.88
1192,D6,218.5,0.5,67,54.88
1193,F6,218.5,1.0,77,54.88
1194,F3,218.5,0.3,52,54.88
1195,F#3,218.75,0.3,51,54.88
1196,B5,219.0,0.5,67,54.88
1197,G3,219.0,0.3,51,54.88
1198,A3,219.25,0.3,51,54.88
1199,G5,219.5,0.5,67,54.88
1200,F6,219.5,1.0,77,54.88
1201,B-3,219.5,0.3,51,54.88
1202,B3,219.75,0.3,52,54.88
1203,C6,220.0,0.5,67,54.88
1204,C3,220.0,0.25,53,54.88
1205,E3,220.25,0.25,53,54.88
1206,G3,220.5,0.25,54,54.88
1207,G5,220.5,0.5,70,54.88
1208,E6,220.5,0.5,70,54.88
1209,C4,220.75,0.25,51,54.88
1210,C6,221.0,0.5,67,54.88
1211,E-6,221.0,1.5,77,54.88
1212,F3,221.0,0.3,54,54.88
1213,G3,221.25,0.3,53,54.88
1214,F5,221.5,1.0,67,54.88
1215,G#3,221.5,0.3,52,54.88
1216,A3,221.75,0.3,51,54.88
1217,B-2,222.0,0.25,51,54.88
1218,D3,222.25,0.25,51,54.88
1219,F3,222.5,0.25,51,54.88
1220,B-5,222.5,0.5,72,54.88
1221,D6,222.5,0.5,72,54.88
1222,B-3,222.75,0.25,52,54.88
1223,E3,223.0,0.25,53,54.88
1224,B-5,223.0,0.5,72,54.88
1225,C#6,223.0,0.5,72,54.88
1226,G3,223.25,0.25,53,54.88
1227,B-4,223.5,0.5,67,54.88
1228,C#5,223.5,0.75,77,54.88
1229,B-3,223.5,0.25,54,54.88
1230,E4,223.75,0.25,51,54.88
1231,B-3,224.0,0.5,67,54.88
1232,G3,224.0,0.25,54,54.88
1233,G5,224.25,0.25,68,54.88
1234,E3,224.25,0.25,53,54.88
1235,B-5,224.5,0.25,71,54.88
1236,G3,224.5,0.25,52,54.88
1237,C#6,224.75,0.25,73,54.88
1238,E3,224.75,0.25,51,54.88
1239,E5,225.0,0.167,76,54.88
1240,C#6,225.0,0.5,76,54.88
1241,F5,225.167,0.167,64,54.88
1242,E5,225.333,0.167,76,54.88
1243,F5,225.5,0.167,64,54.88
1244,C6,225.5,0.25,69,54.88
1245,E5,225.667,0.167,76,54.88
1246,B-5,225.75,0.25,69,54.88
1247,F5,225.833,0.167,64,54.88
1248,E5,226.0,0.167,76,54.88
1249,A5,226.0,0.25,72,54.88
1250,F5,226.167,0.167,64,54.88
1251,B-5,226.25,0.25,67,54.88
1252,E5,226.333,0.167,76,54.88
1253,F5,226.5,0.125,64,54.88
1254,C6,226.5,0.25,67,54.88
1255,E5,226.625,0.125,57,54.88
1256,D5,226.75,0.125,57,54.88
1257,B-5,226.75,0.25,67,54.88
1258,E5,226.875,0.125,57,54.88
1259,F5,227.0,1.0,73,54.88
1260,A5,227.0,0.25,73,54.88
1261,F2,227.0,0.5,67,54.88
1262,G5,227.25,0.25,67,54.88
1263,A5,227.5,0.25,67,54.88
1264,B-5,227.75,0.25,67,54.88
1265,C6,228.0,0.25,77,54.88
1266,A3,228.0,0.167,70,54.88
1267,B-3,228.167,0.167,64,54.88
1268,B-5,228.25,0.25,71,54.88
1269,A3,228.333,0.167,70,54.88
1270,A5,228.5,0.25,70,54.88
1271,B-3,228.5,0.167,62,54.88
1272,A3,228.667,0.167,70,54.88
1273,G5,228.75,0.25,69,54.88
1274,B-3,228.833,0.167,62,54.88
1275,F5,229.0,0.25,68,54.88
1276,A3,229.0,0.167,68,54.88
1277,B-3,229.167,0.167,59,54.88
1278,G5,229.25,0.25,69,54.88
1279,A3,229.333,0.167,68,54.88
1280,F5,229.5,0.25,69,54.88
1281,B-3,229.5,0.125,61,54.88
1282,A3,229.625,0.125,68,54.88
1283,E-5,229.75,0.25,69,54.88
1284,G3,229.75,0.125,63,54.88
1285,A3,229.875,0.125,63,54.88
1286,D4,230.0,0.5,67,54.88
1287,D5,230.0,0.25,73,54.88
1288,B-3,230.0,1.0,63,54.88
1289,C#6,230.25,0.25,82,54.88
1290,D6,230.5,0.25,85,54.88
1291,C#6,230.75,0.25,81,54.88
1292,F#5,231.0,0.167,76,54.88
1293,E-6,231.0,0.5,76,54.88
1294,G5,231.167,0.167,64,54.88
1295,F#5,231.333,0.167,76,54.88
1296,G5,231.5,0.167,64,54.88
1297,D6,231.5,0.25,69,54.88
1298,F#5,231.667,0.167,76,54.88
1299,C6,231.75,0.25,69,54.88
1300,G5,231.833,0.167,64,54.88
1301,F#5,232.0,0.167,76,54.88
1302,B5,232.0,0.25,72,54.88
1303,G5,232.167,0.167,64,54.88
1304,C6,232.25,0.25,67,54.88
1305,F#5,232.333,0.167,76,54.88
1306,G5,232.5,0.125,64,54.88
1307,D6,232.5,0.25,67,54.88
1308,F#5,232.625,0.125,57,54.88
1309,E-5,232.75,0.125,57,54.88
1310,C6,232.75,0.25,67,54.88
1311,F#5,232.875,0.125,57,54.88
1312,G5,233.0,1.0,73,54.88
1313,B5,233.0,0.25,73,54.88
1314,G2,233.0,0.5,67,54.88
1315,A5,233.25,0.25,67,54.88
1316,B5,233.5,0.25,67,54.88
1317,C6,233.75,0.25,67,54.88
1318,D6,234.0,0.25,77,54.88
1319,B3,234.0,0.167,70,54.88
1320,C4,234.167,0.167,64,54.88
1321,C6,234.25,0.25,71,54.88
1322,B3,234.333,0.167,70,54.88
1323,B5,234.5,0.25,70,54.88
1324,C4,234.5,0.167,62,54.88
1325,B3,234.667,0.167,70,54.88
1326,G#5,234.75,0.25,69,54.88
1327,C4,234.833,0.167,62,54.88
1328,G5,235.0,0.25,68,54.88
1329,B3,235.0,0.167,68,54.88
1330,C4,235.167,0.167,59,54.88
1331,G#5,235.25,0.25,69,54.88
1332,B3,235.333,0.167,68,54.88
1333,G5,235.5,0.25,69,54.88
1334,C4,235.5,0.125,61,54.88
1335,B3,235.625,0.125,68,54.88
1336,F5,235.75,0.25,69,54.88
1337,A3,235.75,0.125,63,54.88
1338,B3,235.875,0.125,63,54.88
1339,E-5,236.0,0.5,65,54.88
1340,G4,236.0,0.25,65,54.88
1341,C4,236.0,0.5,63,54.88
1342,B4,236.25,0.25,66,54.88
1343,C5,236.5,0.25,68,54.88
1344,G#2,236.5,0.5,63,54.88
1345,C#5,236.75,0.25,71,54.88
1346,E-5,237.0,0.25,74,54.88
1347,C4,237.0,0.167,70,54.88
1348,C#4,237.167,0.167,64,54.88
1349,C#5,237.25,0.25,74,54.88
1350,C4,237.333,0.167,70,54.88
1351,C5,237.5,0.25,72,54.88
1352,C#4,237.5,0.167,62,54.88
1353,C4,237.667,0.167,70,54.88
1354,B-4,237.75,0.25,70,54.88
1355,C#4,237.833,0.167,62,54.88
1356,G#4,238.0,0.25,78,54.88
1357,C4,238.0,0.167,68,54.88
1358,C#4,238.167,0.167,59,54.88
1359,B-4,238.25,0.25,75,54.88
1360,C4,238.333,0.167,68,54.88
1361,G#4,238.5,0.25,73,54.88
1362,C#4,238.5,0.125,61,54.88
1363,C4,238.625,0.125,68,54.88
1364,F#4,238.75,0.25,70,54.88
1365,B-3,238.75,0.125,63,54.88
1366,C4,238.875,0.125,63,54.88
1367,F4,239.0,1.0,76,54.88
1368,C#4,239.0,1.0,63,54.88
1369,C#5,239.5,0.25,70,54.88
1370,E-5,239.75,0.25,70,54.88
1371,F5,240.0,0.25,76,54.88
1372,F#5,240.25,0.25,74,54.88
1373,F5,240.5,0.25,71,54.88
1374,C#4,240.5,0.25,61,54.88
1375,E-5,240.75,0.25,71,54.88
1376,C4,240.75,0.25,61,54.88
1377,C#5,241.0,0.25,72,54.88
1378,B-3,241.0,0.25,67,54.88
1379,C5,241.25,0.25,71,54.88
1380,G#3,241.25,0.25,61,54.88
1381,B-4,241.5,0.25,69,54.88
1382,F#3,241.5,0.25,61,54.88
1383,G#4,241.75,0.25,68,54.88
1384,F3,241.75,0.25,61,54.88
1385,C#5,242.0,1.25,79,54.88
1386,C#4,242.0,0.25,79,54.88
1387,B-3,242.0,1.0,69,54.88
1388,E-4,242.25,0.25,69,54.88
1389,E4,242.5,0.25,69,54.88
1390,F4,242.75,0.25,69,54.88
1391,F#4,243.0,1.0,74,54.88
1392,E-5,243.25,0.25,74,54.88
1393,C#5,243.5,0.25,69,54.88
1394,B-3,243.5,0.25,63,54.88
1395,C5,243.75,0.25,69,54.88
1396,G#3,243.75,0.25,61,54.88
1397,B-4,244.0,0.25,68,54.88
1398,F#3,244.0,0.25,57,54.88
1399,G#4,244.25,0.25,67,54.88
1400,F3,244.25,0.25,58,54.88
1401,F#4,244.5,0.25,66,54.88
1402,E-3,244.5,0.25,58,54.88
1403,F4,244.75,0.25,66,54.88
1404,C#3,244.75,0.25,58,54.88
1405,B-4,245.0,1.75,74,54.88
1406,B-3,245.0,0.25,74,54.88
1407,F#3,245.0,1.0,64,54.88
1408,C4,245.25,0.25,68,54.88
1409,C#4,245.5,0.25,69,54.88
1410,D4,245.75,0.25,70,54.88
1411,E-4,246.0,0.25,71,54.88
1412,D4,246.25,0.25,67,54.88
1413,E-4,246.5,0.25,67,54.88
1414,F#3,246.5,0.25,61,54.88
1415,F4,246.75,0.25,67,54.88
1416,F3,246.75,0.25,56,54.88
1417,F#4,247.0,0.5,74,54.88
1418,E-3,247.0,0.25,61,54.88
1419,F3,247.25,0.25,57,54.88
1420,E-3,247.5,0.25,57,54.88
1421,G4,247.5,0.5,75,54.88
1422,B-4,247.5,0.5,75,54.88
1423,C#3,247.75,0.25,57,54.88
1424,C3,248.0,0.25,61,54.88
1425,G#4,248.0,0.5,77,54.88
1426,C5,248.0,0.5,77,54.88
1427,C#3,248.25,0.25,55,54.88
1428,C#5,248.5,0.5,83,54.88
1429,C3,248.5,0.25,55,54.88
1430,B-2,248.75,0.25,55,54.88
1431,G#2,249.0,0.25,61,54.88
1432,F#4,249.0,1.5,84,54.88
1433,E-5,249.0,1.5,84,54.88
1434,B-2,249.25,0.25,55,54.88
1435,C3,249.5,0.25,56,54.88
1436,C#3,249.75,0.25,57,54.88
1437,D3,250.0,0.25,62,54.88
1438,E-3,250.25,0.25,57,54.88
1439,F3,250.5,0.25,57,54.88
1440,F#4,250.5,0.5,75,54.88
1441,E-5,250.5,0.5,75,54.88
1442,E-3,250.75,0.25,57,54.88
1443,C#3,251.0,0.25,57,54.88
1444,F#4,251.0,0.5,80,54.88
1445,E-5,251.0,0.5,80,54.88
1446,E-3,251.25,0.25,57,54.88
1447,F3,251.5,0.25,59,54.88
1448,F4,251.5,0.5,75,54.88
1449,C#5,251.5,0.5,75,54.88
1450,F#3,251.75,0.25,59,54.88
1451,G3,252.0,0.25,61,54.88
1452,E-4,252.0,0.5,78,54.88
1453,C5,252.0,0.5,78,54.88
1454,G#3,252.25,0.25,62,54.88
1455,B-3,252.5,0.25,66,54.88
1456,C#4,252.5,0.5,75,54.88
1457,C#5,252.5,0.5,75,54.88
1458,G#3,252.75,0.25,62,54.88
1459,F#3,253.0,0.25,61,54.88
1460,C4,253.0,0.5,70,54.88
1461,E-4,253.0,0.5,70,54.88
1462,F3,253.25,0.25,62,54.88
1463,F4,253.5,0.25,67,54.88
1464,C#4,253.5,0.5,67,54.88
1465,E-3,253.5,0.25,60,54.88
1466,F#4,253.75,0.25,68,54.88
1467,C#3,253.75,0.25,58,54.88
1468,G#4,254.0,0.25,70,54.88
1469,C4,254.0,0.5,70,54.88
1470,G#2,254.0,0.5,70,54.88
1471,B-4,254.25,0.25,71,54.88
1472,C5,254.5,0.25,72,54.88
1473,E-4,254.5,0.5,72,54.88
1474,C#5,254.75,0.25,74,54.88
1475,D5,255.0,0.25,75,54.88
1476,E-3,255.0,1.5,80,54.88
1477,F#2,255.0,1.5,80,54.88
1478,E-5,255.25,0.25,77,54.88
1479,F5,255.5,0.25,79,54.88
1480,E-5,255.75,0.25,76,54.88
1481,C#5,256.0,0.25,74,54.88
1482,C5,256.25,0.25,73,54.88
1483,B-4,256.5,0.25,72,54.88
1484,F#2,256.5,0.5,70,54.88
1485,E-3,256.5,0.5,70,54.88
1486,G#4,256.75,0.25,71,54.88
1487,C#5,257.0,0.25,72,54.88
1488,E-3,257.0,0.5,75,54.88
1489,F#2,257.0,0.5,75,54.88
1490,E-5,257.25,0.25,73,54.88
1491,F5,257.5,0.25,75,54.88
1492,F2,257.5,0.5,70,54.88
1493,C#3,257.5,0.5,70,54.88
1494,F#5,257.75,0.25,77,54.88
1495,G5,258.0,0.25,78,54.88
1496,E-2,258.0,0.5,75,54.88
1497,C3,258.0,0.5,75,54.88
1498,G#5,258.25,0.25,76,54.88
1499,B-5,258.5,0.25,81,54.88
1500,C#3,258.5,0.5,72,54.88
1501,C#2,258.5,0.5,72,54.88
1502,G#5,258.75,0.25,73,54.88
1503,F#5,259.0,0.25,79,54.88
1504,C3,259.0,0.5,75,54.88
1505,E-3,259.0,0.5,75,54.88
1506,F5,259.25,0.25,78,54.88
1507,E-5,259.5,0.25,76,54.88
1508,F3,259.5,0.5,68,54.88
1509,C#3,259.5,0.5,68,54.88
1510,C#5,259.75,0.25,75,54.88
1511,C4,260.0,0.25,70,54.88
1512,G#4,260.0,0.5,80,54.88
1513,C#4,260.25,0.25,63,54.88
1514,C4,260.5,0.25,63,54.88
1515,B-3,260.75,0.25,65,54.88
1516,F#4,261.0,1.5,80,54.88
1517,G#3,261.0,0.25,68,54.88
1518,B-3,261.25,0.25,58,54.88
1519,C4,261.5,0.25,58,54.88
1520,C#4,261.75,0.25,58,54.88
1521,D4,262.0,0.25,64,54.88
1522,E-4,262.25,0.25,58,54.88
1523,F4,262.5,0.5,80,54.88
1524,C4,262.5,0.25,58,54.88
1525,C#4,262.75,0.25,58,54.88
1526,B-4,263.0,1.0,80,54.88
1527,E4,263.0,0.25,64,54.88
1528,C#2,263.0,0.5,68,54.88
1529,C#3,263.0,0.5,68,54.88
1530,F4,263.25,0.25,58,54.88
1531,F#4,263.5,0.25,58,54.88
1532,F4,263.75,0.25,58,54.88
1533,D4,264.0,0.25,68,54.88
1534,C2,264.0,1.5,75,54.88
1535,C3,264.0,1.5,75,54.88
1536,E-4,264.25,0.25,57,54.88
1537,G4,264.5,0.25,57,54.88
1538,G#4,264.75,0.25,57,54.88
1539,F#4,265.0,0.25,65,54.88
1540,G4,265.25,0.25,58,54.88
1541,G#4,265.5,0.25,58,54.88
1542,B-2,265.5,0.5,68,54.88
1543,B-1,265.5,0.5,68,54.88
1544,G4,265.75,0.25,58,54.88
1545,C#5,266.0,0.5,70,54.88
1546,A4,266.0,0.25,66,54.88
1547,E-3,266.0,1.0,76,54.88
1548,E-2,266.0,1.0,76,54.88
1549,B-4,266.25,0.25,61,54.88
1550,C5,266.5,0.25,70,54.88
1551,B-4,266.75,0.25,61,54.88
1552,C5,267.0,1.5,80,54.88
1553,G4,267.0,0.25,68,54.88
1554,G#4,267.25,0.25,60,54.88
1555,B-4,267.5,0.25,60,54.88
1556,G#4,267.75,0.25,60,54.88
1557,F#4,268.0,0.25,66,54.88
1558,G4,268.25,0.25,61,54.88
1559,B-4,268.5,0.5,80,54.88
1560,G#4,268.5,0.25,61,54.88
1561,G4,268.75,0.25,61,54.88
1562,E-5,269.0,1.0,80,54.88
1563,A4,269.0,0.25,68,54.88
1564,G2,269.0,0.5,68,54.88
1565,G3,269.0,0.5,68,54.88
1566,B-4,269.25,0.25,62,54.88
1567,C5,269.5,0.25,62,54.88
1568,B-4,269.75,0.25,62,54.88
1569,G#4,270.0,0.25,68,54.88
1570,F2,270.0,1.5,75,54.88
1571,F3,270.0,1.5,75,54.88
1572,B-4,270.25,0.25,61,54.88
1573,C5,270.5,0.25,61,54.88
1574,C#5,270.75,0.25,61,54.88
1575,C5,271.0,0.25,68,54.88
1576,C#5,271.25,0.25,63,54.88
1577,B4,271.5,0.25,63,54.88
1578,E-3,271.5,0.5,68,54.88
1579,E-2,271.5,0.5,68,54.88
1580,C5,271.75,0.25,63,54.88
1581,F5,272.0,0.5,80,54.88
1582,B4,272.0,0.25,68,54.88
1583,G#3,272.0,1.0,75,54.88
1584,G#2,272.0,1.0,75,54.88
1585,C5,272.25,0.25,62,54.88
1586,C#5,272.5,0.25,62,54.88
1587,C5,272.75,0.25,62,54.88
1588,F5,273.0,0.25,74,54.88
1589,A4,273.0,0.25,74,54.88
1590,B-4,273.25,0.25,63,54.88
1591,E-5,273.5,0.25,72,54.88
1592,C5,273.5,0.25,72,54.88
1593,B-4,273.75,0.25,63,54.88
1594,D4,274.0,0.25,68,54.88
1595,G3,274.0,0.5,68,54.88
1596,G2,274.0,0.5,68,54.88
1597,E-4,274.25,0.25,63,54.88
1598,F4,274.5,0.25,63,54.88
1599,E-4,274.75,0.25,63,54.88
1600,C#5,275.0,0.5,80,54.88
1601,G4,275.0,0.25,68,54.88
1602,G2,275.0,0.5,74,54.88
1603,G3,275.0,0.5,74,54.88
1604,G#4,275.25,0.25,61,54.88
1605,B-4,275.5,0.25,61,54.88
1606,F2,275.5,0.5,72,54.88
1607,F3,275.5,0.5,72,54.88
1608,G#4,275.75,0.25,61,54.88
1609,C#5,276.0,0.5,80,54.88
1610,G4,276.0,0.25,68,54.88
1611,G#4,276.25,0.25,63,54.88
1612,C5,276.5,0.5,80,54.88
1613,B-4,276.5,0.25,63,54.88
1614,G#4,276.75,0.25,63,54.88
1615,G4,277.0,0.25,68,54.88
1616,E-4,277.0,0.5,68,54.88
1617,E-3,277.0,0.5,68,54.88
1618,G#4,277.25,0.25,62,54.88
1619,C#5,277.5,0.25,71,54.88
1620,B-4,277.5,0.25,71,54.88
1621,B4,277.75,0.25,62,54.88
1622,G6,278.0,0.167,75,54.88
1623,C5,278.0,0.25,68,54.88
1624,E-4,278.0,0.5,68,54.88
1625,G#6,278.167,0.167,60,54.88
1626,B-4,278.25,0.25,68,54.88
1627,G6,278.333,0.156,68,54.88
1628,G#6,278.5,0.167,60,54.88
1629,A4,278.5,0.25,61,54.88
1630,C#4,278.5,0.479,60,54.88
1631,G6,278.667,0.167,75,54.88
1632,B-4,278.75,0.229,61,54.88
1633,G#6,278.833,0.167,60,54.88
1634,G6,279.0,0.167,75,54.88
1635,B-4,279.0,0.25,68,54.88
1636,C#4,279.0,0.5,68,54.88
1637,G#6,279.167,0.167,60,54.88
1638,G#4,279.25,0.25,58,54.88
1639,G6,279.333,0.167,75,54.88
1640,G#6,279.5,0.125,60,54.88
1641,E-4,279.5,0.25,65,54.88
1642,C4,279.5,0.5,59,54.88
1643,G6,279.625,0.125,75,54.88
1644,F6,279.75,0.125,60,54.88
1645,G#4,279.75,0.25,60,54.88
1646,G6,279.875,0.125,60,54.88
1647,G#6,280.0,1.0,75,54.88
1648,C3,280.5,0.25,66,54.88
1649,C4,281.0,1.0,74,54.88
1650,G4,281.5,0.25,66,54.88
1651,G#6,281.5,0.25,66,54.88
1652,G6,281.75,0.25,62,54.88
1653,G#4,282.0,1.0,74,54.88
1654,F6,282.0,0.25,69,54.88
1655,E-6,282.25,0.25,60,54.88
1656,C#6,282.5,0.25,60,54.88
1657,C6,282.75,0.25,60,54.88
1658,F6,283.0,1.0,68,54.88
1659,G#2,283.5,0.25,66,54.88
1660,G#3,284.0,1.0,74,54.88
1661,E4,284.5,0.25,66,54.88
1662,F6,284.5,0.25,66,54.88
1663,E-6,284.75,0.25,62,54.88
1664,F4,285.0,1.0,74,54.88
1665,C#6,285.0,0.25,69,54.88
1666,C6,285.25,0.25,60,54.88
1667,B-5,285.5,0.25,60,54.88
1668,G#5,285.75,0.25,60,54.88
1669,C#6,286.0,1.0,68,54.88
1670,F2,286.5,0.25,59,54.88
1671,F3,287.0,0.25,66,54.88
1672,E-5,287.5,0.5,72,54.88
1673,C#6,287.5,0.25,67,54.88
1674,A3,287.5,0.25,58,54.88
1675,C6,287.75,0.25,60,54.88
1676,C#5,288.0,0.5,80,54.88
1677,B-5,288.0,0.25,67,54.88
1678,B-3,288.0,0.5,68,54.88
1679,C6,288.25,0.25,61,54.88
1680,B-4,288.5,0.5,68,54.88
1681,B-5,288.5,0.25,61,54.88
1682,D4,288.5,0.5,57,54.88
1683,G#5,288.75,0.25,61,54.88
1684,B-4,289.0,0.5,68,54.88
1685,G5,289.0,0.25,67,54.88
1686,E-4,289.0,0.5,62,54.88
1687,G#5,289.25,0.25,62,54.88
1688,G5,289.5,0.25,62,54.88
1689,F5,289.75,0.25,62,54.88
1690,E-5,290.0,0.25,62,54.88
1691,B-3,290.0,1.496,70,54.88
1692,C#4,290.0,1.496,70,54.88
1693,F5,290.25,0.25,61,54.88
1694,G5,290.5,0.25,63,54.88
1695,G#5,290.75,0.25,64,54.88
1696,A5,291.0,0.25,66,54.88
1697,B-5,291.25,0.25,68,54.88
1698,C6,291.5,0.25,69,54.88
1699,C#4,291.5,0.496,66,54.88
1700,B-3,291.5,0.496,66,54.88
1701,B-5,291.75,0.25,67,54.88
1702,G#5,292.0,0.25,69,54.88
1703,B-3,292.0,0.5,68,54.88
1704,C#4,292.0,0.5,68,54.88
1705,B-5,292.25,0.25,64,54.88
1706,C6,292.5,0.25,68,54.88
1707,C4,292.5,0.5,65,54.88
1708,G#3,292.5,0.5,65,54.88
1709,C#6,292.75,0.25,69,54.88
1710,D6,293.0,0.25,72,54.88
1711,C#3,293.0,0.5,67,54.88
1712,B-3,293.0,0.5,67,54.88
1713,E-6,293.25,0.25,73,54.88
1714,F6,293.5,0.25,75,54.88
1715,G#3,293.5,0.5,60,54.88
1716,C3,293.5,0.5,60,54.88
1717,E-6,293.75,0.25,71,54.88
1718,C#6,294.0,0.25,74,54.88
1719,G3,294.0,0.5,69,54.88
1720,B-2,294.0,0.5,69,54.88
1721,C6,294.25,0.25,73,54.88
1722,B-5,294.5,0.25,71,54.88
1723,G#3,294.5,0.5,65,54.88
1724,C3,294.5,0.5,65,54.88
1725,G#5,294.75,0.25,70,54.88
1726,G2,295.0,0.3,60,54.88
1727,C#5,295.0,0.5,78,54.88
1728,B-5,295.0,0.5,78,54.88
1729,G#2,295.25,0.3,55,54.88
1730,G2,295.5,0.3,55,54.88
1731,F2,295.75,0.3,55,54.88
1732,E-2,296.0,0.3,55,54.88
1733,C#5,296.0,1.5,76,54.88
1734,B-4,296.0,1.5,76,54.88
1735,F2,296.25,0.3,54,54.88
1736,G2,296.5,0.3,56,54.88
1737,G#2,296.75,0.25,57,54.88
1738,A2,297.0,0.25,59,54.88
1739,B-2,297.25,0.3,61,54.88
1740,C3,297.5,0.3,62,54.88
1741,C#5,297.5,0.496,72,54.88
1742,F4,297.5,0.496,72,54.88
1743,B-2,297.75,0.3,60,54.88
1744,G2,298.0,0.3,62,54.88
1745,C#5,298.0,0.55,74,54.88
1746,F4,298.0,0.55,74,54.88
1747,G#2,298.25,0.3,57,54.88
1748,B-2,298.5,0.3,61,54.88
1749,C5,298.5,0.55,71,54.88
1750,E-4,298.5,0.55,71,54.88
1751,C3,298.75,0.3,62,54.88
1752,C#3,299.0,0.3,64,54.88
1753,C#4,299.0,0.55,74,54.88
1754,B-4,299.0,0.55,74,54.88
1755,E-3,299.25,0.3,65,54.88
1756,F3,299.5,0.3,67,54.88
1757,C4,299.5,0.5,65,54.88
1758,G#4,299.5,0.5,65,54.88
1759,E-3,299.75,0.25,63,54.88
1760,C#3,300.0,0.25,72,54.88
1761,B-3,300.0,0.55,76,54.88
1762,G4,300.0,0.55,76,54.88
1763,C3,300.25,0.25,71,54.88
1764,B-2,300.5,0.25,69,54.88
1765,C4,300.5,0.5,71,54.88
1766,G#4,300.5,0.5,71,54.88
1767,G#2,300.75,0.25,63,54.88
1768,A4,301.0,0.25,62,54.88
1769,E-4,301.0,0.5,68,54.88
1770,F#3,301.0,0.5,68,54.88
1771,B-4,301.25,0.25,57,54.88
1772,C5,301.5,0.25,61,54.88
1773,C#4,301.5,0.5,65,54.88
1774,F3,301.5,0.5,65,54.88
1775,C#5,301.75,0.25,62,54.88
1776,E-5,302.0,0.25,64,54.88
1777,E-3,302.0,0.5,67,54.88
1778,C4,302.0,0.5,67,54.88
1779,F5,302.25,0.25,65,54.88
1780,F#5,302.5,0.25,67,54.88
1781,C#3,302.5,0.5,60,54.88
1782,B-3,302.5,0.5,60,54.88
1783,F5,302.75,0.25,63,54.88
1784,E-5,303.0,0.25,66,54.88
1785,A3,303.0,0.5,69,54.88
1786,C3,303.0,0.5,69,54.88
1787,C#5,303.25,0.25,65,54.88
1788,C5,303.5,0.25,63,54.88
1789,C#3,303.5,0.5,65,54.88
1790,B-3,303.5,0.5,65,54.88
1791,B-4,303.75,0.25,63,54.88
1792,A2,304.0,0.3,62,54.88
1793,E-5,304.0,0.55,74,54.88
1794,F#4,304.0,0.55,74,54.88
1795,B-2,304.25,0.3,57,54.88
1796,C3,304.5,0.3,61,54.88
1797,C#5,304.5,0.55,71,54.88
1798,F4,304.5,0.55,71,54.88
1799,C#3,304.75,0.3,62,54.88
1800,E-3,305.0,0.3,64,54.88
1801,E-4,305.0,0.55,74,54.88
1802,C5,305.0,0.55,74,54.88
1803,F3,305.25,0.3,65,54.88
1804,F#3,305.5,0.3,67,54.88
1805,C#4,305.5,0.5,65,54.88
1806,B-4,305.5,0.5,65,54.88
1807,F3,305.75,0.25,63,54.88
1808,E-3,306.0,0.25,72,54.88
1809,C4,306.0,0.55,76,54.88
1810,A4,306.0,0.55,76,54.88
1811,C#3,306.25,0.25,71,54.88
1812,C3,306.5,0.25,69,54.88
1813,C#4,306.5,0.5,71,54.88
1814,B-4,306.5,0.5,71,54.88
1815,B-2,306.75,0.25,63,54.88
1816,D3,307.0,0.3,62,54.88
1817,G#2,307.0,0.55,71,54.88
1818,E-3,307.25,0.3,57,54.88
1819,F3,307.5,0.3,61,54.88
1820,G2,307.5,0.55,68,54.88
1821,G3,307.75,0.3,62,54.88
1822,G#3,308.0,0.3,64,54.88
1823,F2,308.0,0.55,70,54.88
1824,B-3,308.25,0.3,65,54.88
1825,B3,308.5,0.3,67,54.88
1826,E-2,308.5,0.55,62,54.88
1827,B-3,308.75,0.3,63,54.88
1828,G#3,309.0,0.3,66,54.88
1829,D2,309.0,0.55,72,54.88
1830,G3,309.25,0.3,65,54.88
1831,F3,309.5,0.3,63,54.88
1832,E-2,309.5,0.5,68,54.88
1833,E-3,309.75,0.25,63,54.88
1834,E3,310.0,0.3,62,54.88
1835,B-2,310.0,0.55,71,54.88
1836,F3,310.25,0.3,57,54.88
1837,G3,310.5,0.3,61,54.88
1838,G#2,310.5,0.55,68,54.88
1839,G#3,310.75,0.3,62,54.88
1840,B-3,311.0,0.3,64,54.88
1841,G2,311.0,0.55,70,54.88
1842,C4,311.25,0.3,65,54.88
1843,C#4,311.5,0.3,67,54.88
1844,F2,311.5,0.55,62,54.88
1845,C4,311.75,0.3,63,54.88
1846,B-3,312.0,0.3,66,54.88
1847,E2,312.0,0.55,72,54.88
1848,G#3,312.25,0.3,65,54.88
1849,G3,312.5,0.3,63,54.88
1850,F2,312.5,0.5,68,54.88
1851,F3,312.75,0.25,63,54.88
1852,F3,313.0,0.3,62,54.88
1853,E-5,313.0,0.55,74,54.88
1854,B4,313.0,0.55,74,54.88
1855,F#3,313.25,0.3,57,54.88
1856,G#3,313.5,0.3,61,54.88
1857,C#5,313.5,0.55,71,54.88
1858,B-4,313.5,0.55,71,54.88
1859,B-3,313.75,0.3,62,54.88
1860,B3,314.0,0.3,64,54.88
1861,G#4,314.0,0.55,74,54.88
1862,B4,314.0,0.55,74,54.88
1863,C#4,314.25,0.3,65,54.88
1864,E-4,314.5,0.3,67,54.88
1865,F#4,314.5,0.5,65,54.88
1866,B-4,314.5,0.5,65,54.88
1867,C#4,314.75,0.3,63,54.88
1868,B3,315.0,0.3,72,54.88
1869,F4,315.0,0.55,76,54.88
1870,G#4,315.0,0.55,76,54.88
1871,B-3,315.25,0.3,71,54.88
1872,G#3,315.5,0.3,69,54.88
1873,F#4,315.5,0.5,71,54.88
1874,B-4,315.5,0.5,71,54.88
1875,F#3,315.75,0.25,63,54.88
1876,G2,316.0,0.3,62,54.88
1877,C#6,316.0,0.55,74,54.88
1878,E5,316.0,0.55,74,54.88
1879,G#2,316.25,0.3,57,54.88
1880,B-2,316.5,0.3,61,54.88
1881,B5,316.5,0.55,71,54.88
1882,E-5,316.5,0.55,71,54.88
1883,B2,316.75,0.3,62,54.88
1884,C#3,317.0,0.3,64,54.88
1885,C#5,317.0,0.55,74,54.88
1886,B-5,317.0,0.55,74,54.88
1887,E-3,317.25,0.3,65,54.88
1888,E3,317.5,0.3,67,54.88
1889,B4,317.5,0.5,65,54.88
1890,G#5,317.5,0.5,65,54.88
1891,E-3,317.75,0.3,63,54.88
1892,C#3,318.0,0.3,72,54.88
1893,B-4,318.0,0.55,76,54.88
1894,G5,318.0,0.55,76,54.88
1895,B2,318.25,0.3,71,54.88
1896,B-2,318.5,0.3,69,54.88
1897,B4,318.5,1.0,71,54.88
1898,G#5,318.5,1.0,71,54.88
1899,G#2,318.75,0.3,63,54.88
1900,F#2,319.0,0.3,63,54.88
1901,E2,319.25,0.3,63,54.88
1902,E-2,319.5,0.3,63,54.88
1903,G#5,319.5,1.0,82,54.88
1904,B5,319.5,1.0,82,54.88
1905,D2,319.75,0.25,63,54.88
1906,E-2,320.0,0.25,63,54.88
1907,G2,320.25,0.25,63,54.88
1908,B-2,320.5,0.25,63,54.88
1909,G5,320.5,0.5,86,54.88
1910,B-5,320.5,0.5,86,54.88
1911,E-3,320.75,0.25,63,54.88
1912,G2,321.0,2.0,60,54.88
1913,G3,321.0,0.167,84,54.88
1914,C#5,321.0,1.5,72,54.88
1915,E5,321.0,1.5,72,54.88
1916,G#3,321.167,0.167,70,54.88
1917,G3,321.333,0.167,74,54.88
1918,G#3,321.5,0.167,67,54.88
1919,G3,321.667,0.167,73,54.88
1920,G#3,321.833,0.167,64,54.88
1921,G3,322.0,0.167,72,54.88
1922,G#3,322.167,0.167,64,54.88
1923,G3,322.333,0.167,70,54.88
1924,G#3,322.5,0.125,64,54.88
1925,C#5,322.5,1.0,70,54.88
1926,E5,322.5,1.0,70,54.88
1927,G3,322.625,0.125,75,54.88
1928,F3,322.75,0.125,65,54.88
1929,G3,322.875,0.125,70,54.88
1930,G#2,323.0,2.0,79,54.88
1931,G#3,323.0,2.0,79,54.88
1932,B4,323.5,0.5,57,54.88
1933,E-5,323.5,0.5,57,54.88
1934,B-4,324.0,0.5,62,54.88
1935,C#5,324.0,0.5,62,54.88
1936,G#4,324.5,0.5,61,54.88
1937,B4,324.5,0.5,61,54.88
1938,G4,325.0,0.5,64,54.88
1939,B-4,325.0,0.5,64,54.88
1940,E-3,325.0,1.0,64,54.88
1941,E-2,325.0,1.0,64,54.88
1942,G#4,325.5,0.5,61,54.88
1943,B4,325.5,0.5,61,54.88
1944,B-4,326.0,0.5,62,54.88
1945,C#5,326.0,0.5,62,54.88
1946,C#2,326.0,1.0,64,54.88
1947,C#3,326.0,1.0,64,54.88
1948,B4,326.5,0.996,66,54.88
1949,E-5,326.5,0.996,66,54.88
1950,F2,327.0,2.0,60,54.88
1951,F3,327.0,0.167,84,54.88
1952,F#3,327.167,0.167,70,54.88
1953,F3,327.333,0.167,74,54.88
1954,F#3,327.5,0.167,67,54.88
1955,B4,327.5,0.496,64,54.88
1956,E-5,327.5,0.496,64,54.88
1957,F3,327.667,0.167,73,54.88
1958,F#3,327.833,0.167,64,54.88
1959,F3,328.0,0.167,72,54.88
1960,E-5,328.0,1.5,78,54.88
1961,B4,328.0,1.5,78,54.88
1962,F#3,328.167,0.167,64,54.88
1963,F3,328.333,0.167,70,54.88
1964,F#3,328.5,0.125,64,54.88
1965,F3,328.625,0.125,75,54.88
1966,E-3,328.75,0.125,65,54.88
1967,F3,328.875,0.125,70,54.88
1968,F#3,329.0,1.0,79,54.88
1969,F#2,329.0,1.0,79,54.88
1970,C#5,329.5,1.0,64,54.88
1971,B-4,329.5,1.0,64,54.88
1972,C#2,330.0,1.0,64,54.88
1973,C#3,330.0,1.0,64,54.88
1974,G#4,330.5,0.5,61,54.88
1975,B4,330.5,0.5,61,54.88
1976,F#4,331.0,0.5,52,54.88
1977,B-4,331.0,0.5,52,54.88
1978,E-2,331.0,1.0,52,54.88
1979,E-3,331.0,1.0,52,54.88
1980,G#4,331.5,0.5,48,54.88
1981,F4,331.5,0.5,48,54.88
1982,B-4,332.0,0.5,50,54.88
1983,F#4,332.0,0.5,50,54.88
1984,B2,332.0,1.5,52,54.88
1985,B1,332.0,1.5,52,54.88
1986,G#4,332.5,0.5,52,54.88
1987,B4,332.5,0.5,52,54.88
1988,F#4,333.0,0.5,56,54.88
1989,C#5,333.0,0.5,56,54.88
1990,F#4,333.5,0.5,51,54.88
1991,E-5,333.5,1.0,60,54.88
1992,B-2,333.5,0.5,42,54.88
1993,B-1,333.5,0.5,42,54.88
1994,F4,334.0,0.5,54,54.88
1995,G#2,334.0,0.5,42,54.88
1996,G#1,334.0,0.5,42,54.88
1997,F#4,334.5,0.5,45,54.88
1998,C#5,334.5,1.0,54,54.88
1999,B-2,334.5,0.5,42,54.88
2000,B-1,334.5,0.5,42,54.88
2001,G#4,335.0,0.25,40,54.88
2002,B1,335.0,0.5,42,54.88
2003,B2,335.0,0.5,42,54.88
2004,F#4,335.25,0.25,53,54.88
2005,F4,335.5,0.25,40,54.88
2006,C#5,335.5,0.5,48,54.88
2007,C#3,335.5,0.5,42,54.88
2008,C#2,335.5,0.5,42,54.88
2009,G#4,335.75,0.25,48,54.88
2010,F#4,336.0,0.5,46,54.88
2011,B-4,336.0,0.25,39,54.88
2012,F#1,336.0,1.0,39,54.88
2013,F#2,336.0,1.0,39,54.88
2014,B-3,336.25,0.25,46,54.88
2015,C#4,336.5,0.25,40,54.88
2016,F#4,336.75,0.25,40,54.88
2017,B-4,337.0,0.25,52,54.88
2018,F#4,337.25,0.25,40,54.88
2019,F4,337.5,0.25,47,54.88
2020,B4,337.5,0.25,47,54.88
2021,E-4,337.75,0.25,40,54.88
2022,F4,338.0,0.5,49,54.88
2023,C#5,338.0,0.5,49,54.88
2024,C#3,338.25,0.25,35,54.88
2025,F#4,338.5,0.25,40,54.88
2026,E-3,338.5,0.25,35,54.88
2027,G#4,338.75,0.25,40,54.88
2028,F3,338.75,0.25,35,54.88
2029,B-4,339.0,1.0,50,54.88
2030,F#3,339.0,0.25,40,54.88
2031,B-2,339.25,0.25,35,54.88
2032,C#3,339.5,0.25,35,54.88
2033,F#3,339.75,0.25,35,54.88
2034,B-3,340.0,0.25,51,54.88
2035,F#5,340.25,0.25,58,54.88
2036,F5,340.5,0.25,54,54.88
2037,B3,340.5,0.25,54,54.88
2038,E-5,340.75,0.25,58,54.88
2039,F5,341.0,0.5,65,54.88
2040,C#4,341.0,1.0,56,54.88
2041,F#5,341.5,0.25,62,54.88
2042,G#5,341.75,1.5,68,54.88
2043,F5,342.0,0.25,67,54.88
2044,F4,342.25,0.25,56,54.88
2045,G#4,342.5,0.25,60,54.88
2046,C#5,342.75,0.25,64,54.88
2047,F5,343.0,0.5,70,54.88
2048,F6,343.25,0.25,72,54.88
2049,F#5,343.5,0.5,75,54.88
2050,E-6,343.5,0.25,75,54.88
2051,C#6,343.75,0.25,71,54.88
2052,G#5,344.0,1.0,59,54.88
2053,C6,344.0,0.5,75,54.88
2054,G#3,344.25,0.25,44,54.88
2055,C#6,344.5,0.25,70,54.88
2056,B-3,344.5,0.25,46,54.88
2057,E-6,344.75,0.25,70,54.88
2058,C4,344.75,0.25,48,54.88
2059,G#5,345.0,1.0,66,54.88
2060,F5,345.0,1.25,57,54.88
2061,C#4,345.0,0.25,50,54.88
2062,F3,345.25,0.25,43,54.88
2063,G#3,345.5,0.25,45,54.88
2064,C#4,345.75,0.25,45,54.88
2065,F3,346.0,0.25,73,54.88
2066,F5,346.25,0.25,66,54.88
2067,E-5,346.5,0.25,65,54.88
2068,F#3,346.5,0.25,75,54.88
2069,C#5,346.75,0.25,63,54.88
2070,C5,347.0,0.25,62,54.88
2071,G#3,347.0,1.25,78,54.88
2072,B-4,347.25,0.25,61,54.88
2073,G#4,347.5,0.25,59,54.88
2074,F#4,347.75,0.25,58,54.88
2075,F4,348.0,0.246,72,54.88
2076,F5,348.0,0.246,72,54.88
2077,F4,348.25,0.25,56,54.88
2078,F#5,348.5,0.25,80,54.88
2079,E-4,348.5,0.25,56,54.88
2080,C#4,348.75,0.25,56,54.88
2081,G#5,349.0,1.25,83,54.88
2082,C4,349.0,0.25,56,54.88
2083,G#4,349.25,0.25,62,54.88
2084,B-3,349.25,0.25,56,54.88
2085,B-4,349.5,0.25,62,54.88
2086,G#3,349.5,0.25,56,54.88
2087,C5,349.75,0.25,62,54.88
2088,F#3,349.75,0.25,56,54.88
2089,D5,350.0,0.5,62,54.88
2090,F3,350.0,0.5,56,54.88
2091,F5,350.25,0.25,62,54.88
2092,E-5,350.5,0.25,62,54.88
2093,B-4,350.5,0.5,62,54.88
2094,G#3,350.5,0.5,56,54.88
2095,D5,350.75,0.25,62,54.88
2096,B-4,351.0,0.25,56,54.88
2097,E-5,351.0,1.0,62,54.88
2098,F#3,351.0,0.24,56,54.88
2099,F#3,351.25,0.25,56,54.88
2100,B-3,351.5,0.25,56,54.88
2101,E-4,351.75,0.25,56,54.88
2102,F#4,352.0,0.25,66,54.88
2103,F#6,352.25,0.25,78,54.88
2104,F6,352.5,0.25,78,54.88
2105,G#4,352.5,0.25,78,54.88
2106,E-6,352.75,0.25,76,54.88
2107,D6,353.0,0.25,74,54.88
2108,B-4,353.0,1.0,74,54.88
2109,B5,353.25,0.25,72,54.88
2110,D4,353.25,0.25,56,54.88
2111,B-5,353.5,0.25,70,54.88
2112,E-4,353.5,0.25,56,54.88
2113,G#5,353.75,0.25,68,54.88
2114,F4,353.75,0.25,56,54.88
2115,B-4,354.0,0.5,66,54.88
2116,F#5,354.0,1.0,74,54.88
2117,E-4,354.0,0.25,56,54.88
2118,F#3,354.25,0.25,56,54.88
2119,F#4,354.5,0.75,66,54.88
2120,B-3,354.5,0.25,56,54.88
2121,E-3,354.75,0.25,56,54.88
2122,F#3,355.0,0.25,64,54.88
2123,F#5,355.25,0.25,74,54.88
2124,F5,355.5,0.25,72,54.88
2125,G#3,355.5,0.25,64,54.88
2126,E-5,355.75,0.25,71,54.88
2127,D5,356.0,0.25,70,54.88
2128,B-3,356.0,1.25,64,54.88
2129,B4,356.25,0.25,68,54.88
2130,B-4,356.5,0.25,67,54.88
2131,G#4,356.75,0.25,65,54.88
2132,F#4,357.0,0.25,74,54.88
2133,F#5,357.0,0.25,74,54.88
2134,F#3,357.25,0.25,56,54.88
2135,G#5,357.5,0.25,83,54.88
2136,F3,357.5,0.25,56,54.88
2137,E-3,357.75,0.25,56,54.88
2138,B-5,358.0,1.25,88,54.88
2139,D3,358.0,0.25,56,54.88
2140,B2,358.25,0.25,56,54.88
2141,B-2,358.5,0.25,56,54.88
2142,G#2,358.75,0.25,56,54.88
2143,G2,359.0,0.25,64,54.88
2144,G5,359.25,0.25,66,54.88
2145,F5,359.5,0.25,65,54.88
2146,G#2,359.5,0.25,64,54.88
2147,E-5,359.75,0.25,65,54.88
2148,E-6,360.0,0.25,76,54.88
2149,B-2,360.0,0.25,69,54.88
2150,B5,360.25,0.25,65,54.88
2151,B-5,360.5,0.25,65,54.88
2152,B2,360.5,0.25,74,54.88
2153,G#5,360.75,0.25,65,54.88
2154,G#6,361.0,0.25,80,54.88
2155,B3,361.0,1.25,77,54.88
2156,F6,361.25,0.25,67,54.88
2157,E-6,361.5,0.25,68,54.88
2158,D6,361.75,0.25,68,54.88
2159,G#6,362.0,1.25,87,54.88
2160,G#3,362.25,0.25,56,54.88
2161,F#3,362.5,0.25,56,54.88
2162,F3,362.75,0.25,56,54.88
2163,E-3,363.0,1.0,56,54.88
2164,B-3,363.0,2.0,56,54.88
2165,G#5,363.25,0.25,70,54.88
2166,F#5,363.5,0.25,70,54.88
2167,F5,363.75,0.25,70,54.88
2168,G#5,364.0,0.25,82,54.88
2169,D3,364.0,1.0,56,54.88
2170,F5,364.25,0.25,69,54.88
2171,E-5,364.5,0.25,69,54.88
2172,D5,364.75,0.25,69,54.88
2173,F5,365.0,0.25,81,54.88
2174,C#5,365.0,0.167,50,54.88
2175,E-5,365.167,0.167,44,54.88
2176,B-4,365.25,0.25,70,54.88
2177,C#5,365.333,0.167,50,54.88
2178,A4,365.5,0.25,70,54.88
2179,E-5,365.5,0.167,46,54.88
2180,C#5,365.667,0.167,52,54.88
2181,B-4,365.75,0.25,70,54.88
2182,E-5,365.833,0.167,47,54.88
2183,B-5,366.0,0.25,85,54.88
2184,C#5,366.0,0.167,53,54.88
2185,E-5,366.167,0.167,45,54.88
2186,F5,366.25,0.25,72,54.88
2187,C#5,366.333,0.167,53,54.88
2188,E5,366.5,0.25,72,54.88
2189,E-5,366.5,0.167,47,54.88
2190,C#5,366.667,0.167,54,54.88
2191,F5,366.75,0.25,72,54.88
2192,E-5,366.833,0.167,49,54.88
2193,F6,367.0,0.25,85,54.88
2194,C#5,367.0,0.167,56,54.88
2195,E-5,367.167,0.167,49,54.88
2196,B-5,367.25,0.25,73,54.88
2197,C#5,367.333,0.167,56,54.88
2198,A5,367.5,0.25,73,54.88
2199,E-5,367.5,0.167,51,54.88
2200,C#5,367.667,0.167,56,54.88
2201,B-5,367.75,0.25,73,54.88
2202,E-5,367.833,0.167,50,54.88
2203,B-6,368.0,0.25,87,54.88
2204,C#5,368.0,0.167,56,54.88
2205,E-5,368.167,0.167,50,54.88
2206,G#6,368.25,0.25,76,54.88
2207,C#5,368.333,0.167,56,54.88
2208,F#6,368.5,0.25,76,54.88
2209,E-5,368.5,0.125,51,54.88
2210,C#5,368.625,0.125,56,54.88
2211,F6,368.75,0.25,76,54.88
2212,B4,368.75,0.125,48,54.88
2213,C#5,368.875,0.125,48,54.88
2214,F#6,369.0,1.0,87,54.88
2215,E-5,369.0,2.0,61,54.88
2216,B2,370.0,0.25,87,54.88
2217,B3,371.0,2.0,96,54.88
2218,E-5,372.0,0.25,87,54.88
2219,F4,372.5,0.25,74,54.88
2220,C#5,372.5,0.25,74,54.88
2221,E-4,373.0,0.25,78,54.88
2222,B4,373.0,0.25,78,54.88
2223,D6,373.0,0.25,78,54.88
2224,C#4,373.5,0.25,68,54.88
2225,B-4,373.5,0.25,68,54.88
2226,E-6,374.0,2.0,96,54.88
2227,B3,374.0,0.25,66,54.88
2228,G#4,374.0,0.25,66,54.88
2229,B-3,374.5,0.25,62,54.88
2230,F#4,374.5,0.25,62,54.88
2231,E-4,375.0,2.0,78,54.88
2232,B4,375.0,2.0,78,54.88
2233,G#2,376.0,0.25,87,54.88
2234,G#3,377.0,2.0,96,54.88
2235,E-4,378.0,0.25,78,54.88
2236,B4,378.0,0.25,78,54.88
2237,C#4,378.5,0.25,74,54.88
2238,B-4,378.5,0.25,74,54.88
2239,B3,379.0,0.25,78,54.88
2240,G#4,379.0,0.25,78,54.88
2241,B-5,379.0,0.25,78,54.88
2242,B-3,379.5,0.25,68,54.88
2243,F#4,379.5,0.25,68,54.88
2244,B5,380.0,2.0,96,54.88
2245,G#3,380.0,0.25,66,54.88
2246,F4,380.0,0.25,66,54.88
2247,F#3,380.5,0.25,62,54.88
2248,E-4,380.5,0.25,62,54.88
2249,B3,381.0,2.0,78,54.88
2250,G#4,381.0,2.0,78,54.88
2251,F2,382.0,0.25,87,54.88
2252,F3,383.0,2.0,96,54.88
2253,B3,384.0,0.25,78,54.88
2254,G#4,384.0,0.25,78,54.88
2255,B-3,384.5,0.25,74,54.88
2256,F#4,384.5,0.25,74,54.88
2257,G#3,385.0,0.25,78,54.88
2258,F4,385.0,0.25,78,54.88
2259,B-5,385.0,0.25,78,54.88
2260,B-3,385.5,0.25,68,54.88
2261,F#4,385.5,0.25,68,54.88
2262,B5,386.0,2.0,96,54.88
2263,G#3,386.0,0.25,66,54.88
2264,F4,386.0,0.25,66,54.88
2265,F#3,386.5,0.25,62,54.88
2266,E-4,386.5,0.25,62,54.88
2267,F3,387.0,0.25,73,54.88
2268,D4,387.0,0.25,73,54.88
2269,E-4,387.5,0.25,66,54.88
2270,F#3,387.5,0.25,66,54.88
2271,B-5,388.0,1.0,96,54.88
2272,F3,388.0,0.25,72,54.88
2273,D4,388.0,0.25,72,54.88
2274,E-3,388.5,0.25,66,54.88
2275,C4,388.5,0.25,66,54.88
2276,G#5,389.0,3.0,96,54.88
2277,D3,389.0,0.25,73,54.88
2278,B-3,389.0,0.25,73,54.88
2279,E-3,389.5,0.25,66,54.88
2280,C4,389.5,0.25,66,54.88
2281,F3,390.0,0.25,73,54.88
2282,D4,390.0,0.25,73,54.88
2283,E-4,390.5,0.25,66,54.88
2284,F#3,390.5,0.25,66,54.88
2285,G3,391.0,0.25,73,54.88
2286,E4,391.0,0.25,73,54.88
2287,F4,391.5,0.25,66,54.88
2288,G#3,391.5,0.25,66,54.88
2289,G#6,392.0,1.5,109,54.88
2290,B-3,392.0,0.25,71,54.88
2291,F#4,392.0,0.25,71,54.88
2292,G#3,392.5,0.25,66,54.88
2293,F4,392.5,0.25,66,54.88
2294,F#3,393.0,0.25,71,54.88
2295,E-4,393.0,0.25,71,54.88
2296,F4,393.5,0.25,66,54.88
2297,G#3,393.5,0.25,66,54.88
2298,F#6,394.0,0.25,99,54.88
2299,B-3,394.0,0.25,72,54.88
2300,F#4,394.0,0.25,72,54.88
2301,B3,394.5,0.25,66,54.88
2302,G#4,394.5,0.25,66,54.88
2303,F6,395.0,0.25,99,54.88
2304,A4,395.0,0.25,72,54.88
2305,F4,395.0,0.25,72,54.88
2306,F#4,395.5,0.25,66,54.88
2307,B-4,395.5,0.25,66,54.88
2308,E-6,396.0,0.25,107,54.88
2309,B4,396.0,0.25,73,54.88
2310,G#4,396.0,0.25,73,54.88
2311,F#4,396.5,0.25,66,54.88
2312,B-4,396.5,0.25,66,54.88
2313,D6,397.0,0.25,99,54.88
2314,B3,397.0,0.25,73,54.88
2315,G#4,397.0,0.25,73,54.88
2316,F#4,397.5,0.25,66,54.88
2317,B-3,397.5,0.25,66,54.88
2318,F4,398.0,0.25,76,54.88
2319,G#4,398.0,0.25,76,54.88
2320,B-1,398.0,3.0,92,54.88
2321,B-2,398.0,3.0,92,54.88
2322,E-4,398.5,0.25,66,54.88
2323,F#4,398.5,0.25,66,54.88
2324,G#3,399.0,0.25,74,54.88
2325,F4,399.0,0.25,74,54.88
2326,B-3,399.5,0.25,66,54.88
2327,F#4,399.5,0.25,66,54.88
2328,G#3,400.0,0.25,74,54.88
2329,F4,400.0,0.25,74,54.88
2330,F#3,400.5,0.25,66,54.88
2331,E-4,400.5,0.25,66,54.88
2332,F3,401.0,0.25,72,54.88
2333,D4,401.0,0.25,72,54.88
2334,G#2,401.0,3.0,92,54.88
2335,G#1,401.0,3.0,92,54.88
2336,F#3,401.5,0.25,66,54.88
2337,E-4,401.5,0.25,66,54.88
2338,D4,402.0,0.25,74,54.88
2339,F4,402.0,0.25,74,54.88
2340,E-4,402.5,0.25,66,54.88
2341,F#4,402.5,0.25,66,54.88
2342,F4,403.0,0.25,74,54.88
2343,G#4,403.0,0.25,74,54.88
2344,F#4,403.5,0.25,66,54.88
2345,B-4,403.5,0.25,66,54.88
2346,E-4,404.0,0.25,73,54.88
2347,C5,404.0,0.25,73,54.88
2348,G#1,404.0,1.5,92,54.88
2349,G#2,404.0,1.5,92,54.88
2350,F4,404.5,0.25,66,54.88
2351,D5,404.5,0.25,66,54.88
2352,F#4,405.0,0.25,73,54.88
2353,E-5,405.0,0.25,73,54.88
2354,G#4,405.5,0.25,66,54.88
2355,F5,405.5,0.25,66,54.88
2356,B-4,406.0,0.25,72,54.88
2357,F#5,406.0,0.25,72,54.88
2358,F#2,406.0,0.25,92,54.88
2359,F#1,406.0,0.25,92,54.88
2360,B4,406.5,0.25,66,54.88
2361,G5,406.5,0.25,66,54.88
2362,F5,407.0,0.25,72,54.88
2363,G#5,407.0,0.25,72,54.88
2364,F2,407.0,0.25,92,54.88
2365,F1,407.0,0.25,92,54.88
2366,B-5,407.5,0.25,66,54.88
2367,F#5,407.5,0.25,66,54.88
2368,B5,408.0,0.25,74,54.88
2369,G#5,408.0,0.25,74,54.88
2370,E-2,408.0,0.25,92,54.88
2371,E-1,408.0,0.25,92,54.88
2372,B-5,408.5,0.25,66,54.88
2373,F#5,408.5,0.25,66,54.88
2374,B4,409.0,0.25,74,54.88
2375,G#5,409.0,0.25,74,54.88
2376,D1,409.0,0.25,92,54.88
2377,D2,409.0,0.25,92,54.88
2378,B-4,409.5,0.25,66,54.88
2379,F#5,409.5,0.25,66,54.88
2380,G#4,410.0,0.25,74,54.88
2381,E-5,410.0,0.25,74,54.88
2382,E-1,410.0,0.25,92,54.88
2383,E-2,410.0,0.25,92,54.88
2384,F#4,410.5,0.25,71,54.88
2385,B-3,410.5,0.25,60,54.88
2386,G#3,411.0,0.25,68,54.88
2387,C#5,411.0,0.25,72,54.88
2388,F4,411.0,0.25,72,54.88
2389,E-4,411.5,0.25,71,54.88
2390,F#3,411.5,0.25,60,54.88
2391,F3,412.0,0.25,68,54.88
2392,C5,412.0,0.25,72,54.88
2393,C#4,412.0,0.25,72,54.88
2394,C4,412.5,0.25,71,54.88
2395,E-3,412.5,0.25,60,54.88
2396,E-4,413.0,3.0,78,54.88
2397,C#3,413.0,0.25,72,54.88
2398,B-3,413.0,0.25,72,54.88
2399,A3,413.5,0.25,66,54.88
2400,C3,413.5,0.25,66,54.88
2401,B-2,414.0,0.25,66,54.88
2402,F#3,414.0,0.25,66,54.88
2403,G#2,414.5,0.25,66,54.88
2404,F3,414.5,0.25,66,54.88
2405,F#2,415.0,0.25,66,54.88
2406,E-3,415.0,0.25,66,54.88
2407,F2,415.5,0.25,66,54.88
2408,C#3,415.5,0.25,66,54.88
2409,A5,416.0,0.167,71,54.88
2410,C#5,416.0,0.25,71,54.88
2411,E-3,416.0,3.0,66,54.88
2412,E-2,416.0,3.0,66,54.88
2413,B-5,416.167,0.167,65,54.88
2414,A5,416.333,0.167,71,54.88
2415,B-5,416.5,0.167,66,54.88
2416,C5,416.5,0.25,66,54.88
2417,A5,416.667,0.167,71,54.88
2418,B-5,416.833,0.167,66,54.88
2419,A5,417.0,0.167,71,54.88
2420,F5,417.0,0.25,71,54.88
2421,B-5,417.167,0.167,66,54.88
2422,A5,417.333,0.167,71,54.88
2423,B-5,417.5,0.167,65,54.88
2424,E-5,417.5,0.25,65,54.88
2425,A5,417.667,0.167,71,54.88
2426,B-5,417.833,0.167,65,54.88
2427,A5,418.0,0.167,71,54.88
2428,C#5,418.0,0.25,71,54.88
2429,B-5,418.167,0.167,64,54.88
2430,A5,418.333,0.167,71,54.88
2431,B-5,418.5,0.167,67,54.88
2432,C5,418.5,0.25,67,54.88
2433,A5,418.667,0.167,71,54.88
2434,B-5,418.833,0.167,67,54.88
2435,A5,419.0,0.167,71,54.88
2436,F#5,419.0,0.25,71,54.88
2437,C1,419.0,3.0,64,54.88
2438,C2,419.0,0.167,71,54.88
2439,B-5,419.167,0.167,66,54.88
2440,C#2,419.167,0.167,65,54.88
2441,A5,419.333,0.167,71,54.88
2442,C2,419.333,0.167,71,54.88
2443,C#2,419.5,0.167,66,54.88
2444,G5,419.5,0.25,67,54.88
2445,C5,419.5,0.25,67,54.88
2446,C2,419.667,0.167,71,54.88
2447,A5,419.75,0.25,67,54.88
2448,C#2,419.833,0.167,66,54.88
2449,E-5,420.0,0.167,74,54.88
2450,B-5,420.0,3.0,74,54.88
2451,C2,420.0,0.167,71,54.88
2452,F5,420.167,0.167,69,54.88
2453,C#2,420.167,0.167,66,54.88
2454,E-5,420.333,0.167,74,54.88
2455,C2,420.333,0.167,71,54.88
2456,F5,420.5,0.167,69,54.88
2457,C#2,420.5,0.167,67,54.88
2458,E-5,420.667,0.167,74,54.88
2459,C2,420.667,0.167,71,54.88
2460,F5,420.833,0.167,70,54.88
2461,C#2,420.833,0.167,66,54.88
2462,E-5,421.0,0.167,74,54.88
2463,C2,421.0,0.167,71,54.88
2464,F5,421.167,0.167,70,54.88
2465,C#2,421.167,0.167,67,54.88
2466,E-5,421.333,0.167,74,54.88
2467,C2,421.333,0.167,71,54.88
2468,F5,421.5,0.167,67,54.88
2469,C#2,421.5,0.167,66,54.88
2470,E-5,421.667,0.167,74,54.88
2471,C2,421.667,0.167,71,54.88
2472,F5,421.833,0.167,69,54.88
2473,C#2,421.833,0.167,66,54.88
2474,E-5,422.0,0.167,74,54.88
2475,C2,422.0,0.167,71,54.88
2476,F5,422.167,0.167,69,54.88
2477,C#2,422.167,0.167,68,54.88
2478,E-5,422.333,0.167,74,54.88
2479,C2,422.333,0.167,71,54.88
2480,C#5,422.5,0.25,70,54.88
2481,B-1,422.5,0.25,68,54.88
2482,E-5,422.75,0.25,68,54.88
2483,C2,422.75,0.25,68,54.88
2484,B-1,423.0,2.0,86,54.88
2485,C#5,423.0,0.25,76,54.88
2486,B-5,423.0,0.25,76,54.88
2487,C5,423.5,0.25,68,54.88
2488,G#5,423.5,0.25,68,54.88
2489,B-4,424.0,0.25,68,54.88
2490,F#5,424.0,0.25,68,54.88
2491,G#4,424.5,0.25,68,54.88
2492,F5,424.5,0.25,68,54.88
2493,F#4,425.0,0.25,68,54.88
2494,E-5,425.0,0.25,68,54.88
2495,F4,425.5,0.25,68,54.88
2496,C#5,425.5,0.25,68,54.88
2497,E-5,426.0,0.25,73,54.88
2498,F#5,426.0,2.0,87,54.88
2499,B-1,426.0,0.25,84,54.88
2500,E-4,426.5,0.25,71,54.88
2501,C1,426.5,0.25,60,54.88
2502,C2,426.5,0.25,60,54.88
2503,F4,427.0,0.25,74,54.88
2504,C#2,427.0,0.25,61,54.88
2505,C#1,427.0,0.25,61,54.88
2506,F#4,427.5,0.25,77,54.88
2507,E-1,427.5,0.25,62,54.88
2508,E-2,427.5,0.25,62,54.88
2509,G#4,428.0,0.25,79,54.88
2510,F2,428.0,0.25,62,54.88
2511,F1,428.0,0.25,62,54.88
2512,B-4,428.5,0.75,82,54.88
2513,F#1,428.5,0.25,64,54.88
2514,F#2,428.5,0.25,64,54.88
2515,F#5,429.0,0.25,85,54.88
2516,C#1,429.0,2.0,64,54.88
2517,C#2,429.0,2.0,64,54.88
2518,G#4,429.5,0.25,72,54.88
2519,F5,429.5,0.25,72,54.88
2520,F#4,430.0,0.25,70,54.88
2521,E-5,430.0,0.25,70,54.88
2522,F4,430.5,0.25,68,54.88
2523,C#5,430.5,0.25,68,54.88
2524,E5,431.0,1.0,80,54.88
2525,G5,431.0,0.25,80,54.88
2526,C2,431.0,2.0,70,54.88
2527,C1,431.0,2.0,70,54.88
2528,C#6,431.25,0.25,70,54.88
2529,B-5,431.5,0.25,71,54.88
2530,G5,431.75,0.25,71,54.88
2531,E5,432.0,0.25,74,54.88
2532,B-5,432.25,0.25,69,54.88
2533,G5,432.5,0.25,70,54.88
2534,E5,432.75,0.25,70,54.88
2535,C#5,433.0,0.25,76,54.88
2536,G5,433.25,0.25,69,54.88
2537,E5,433.5,0.25,69,54.88
2538,C#5,433.75,0.25,69,54.88
2539,B-4,434.0,3.0,66,54.88
2540,C5,434.0,0.25,78,54.88
2541,E3,434.0,0.167,71,54.88
2542,E2,434.0,3.0,71,54.88
2543,F3,434.167,0.167,65,54.88
2544,G5,434.25,0.25,69,54.88
2545,E3,434.333,0.167,63,54.88
2546,E5,434.5,0.25,69,54.88
2547,F3,434.5,0.167,59,54.88
2548,E3,434.667,0.167,63,54.88
2549,C5,434.75,0.25,69,54.88
2550,F3,434.833,0.167,59,54.88
2551,C#5,435.0,0.25,77,54.88
2552,E3,435.0,0.167,63,54.88
2553,F3,435.167,0.167,59,54.88
2554,B-5,435.25,0.25,69,54.88
2555,E3,435.333,0.167,63,54.88
2556,G5,435.5,0.25,69,54.88
2557,F3,435.5,0.167,60,54.88
2558,E3,435.667,0.167,63,54.88
2559,E5,435.75,0.25,69,54.88
2560,F3,435.833,0.167,59,54.88
2561,C5,436.0,1.0,85,54.88
2562,E3,436.0,0.167,63,54.88
2563,F3,436.167,0.167,60,54.88
2564,E3,436.333,0.167,63,54.88
2565,F3,436.5,0.167,59,54.88
2566,E3,436.667,0.167,63,54.88
2567,F3,436.833,0.167,59,54.88
2568,G3,437.0,0.167,71,54.88
2569,G#3,437.167,0.167,66,54.88
2570,G3,437.333,0.167,63,54.88
2571,G#3,437.5,0.167,60,54.88
2572,G3,437.667,0.167,63,54.88
2573,G#3,437.833,0.167,59,54.88
2574,B-5,438.0,2.0,87,54.88
2575,G3,438.0,0.167,63,54.88
2576,G#3,438.167,0.167,60,54.88
2577,G3,438.333,0.167,63,54.88
2578,G#3,438.5,0.167,59,54.88
2579,G3,438.667,0.167,63,54.88
2580,G#3,438.833,0.167,59,54.88
2581,G3,439.0,0.167,63,54.88
2582,G#3,439.167,0.167,60,54.88
2583,G3,439.333,0.167,63,54.88
2584,G#3,439.5,0.167,59,54.88
2585,G3,439.667,0.167,63,54.88
2586,G#3,439.833,0.167,59,54.88
2587,B-3,440.0,3.0,70,54.88
2588,G4,440.0,0.167,71,54.88
2589,F1,440.0,2.0,89,54.88
2590,G#4,440.167,0.167,66,54.88
2591,G4,440.333,0.167,63,54.88
2592,G#4,440.5,0.167,60,54.88
2593,G4,440.667,0.167,63,54.88
2594,G#4,440.833,0.167,59,54.88
2595,G4,441.0,0.167,63,54.88
2596,G#4,441.167,0.167,60,54.88
2597,G4,441.333,0.167,63,54.88
2598,G#4,441.5,0.167,59,54.88
2599,G4,441.667,0.167,63,54.88
2600,G#4,441.833,0.167,59,54.88
2601,G4,442.0,0.167,63,54.88
2602,G#4,442.167,0.167,60,54.88
2603,G4,442.333,0.167,63,54.88
2604,G#4,442.5,0.167,59,54.88
2605,G4,442.667,0.167,63,54.88
2606,G#4,442.833,0.167,59,54.88
2607,C4,443.0,0.5,70,54.88
2608,F4,443.0,1.0,70,54.88
2609,A2,443.0,0.167,60,54.88
2610,B-2,443.167,0.167,56,54.88
2611,A2,443.333,0.167,60,54.88
2612,E-5,443.5,2.5,70,54.88
2613,B-2,443.5,0.167,56,54.88
2614,A2,443.667,0.167,60,54.88
2615,B-2,443.833,0.167,56,54.88
2616,A2,444.0,0.167,60,54.88
2617,B-2,444.167,0.167,56,54.88
2618,A2,444.333,0.167,60,54.88
2619,B-2,444.5,0.167,56,54.88
2620,A2,444.667,0.167,60,54.88
2621,B-2,444.833,0.167,56,54.88
2622,A2,445.0,0.167,60,54.88
2623,B-2,445.167,0.167,56,54.88
2624,A2,445.333,0.167,60,54.88
2625,B-2,445.5,0.167,56,54.88
2626,A2,445.667,0.167,60,54.88
2627,B-2,445.833,0.167,56,54.88
2628,C4,446.0,0.167,60,54.88
2629,C#4,446.167,0.167,56,54.88
2630,C4,446.333,0.167,60,54.88
2631,C#4,446.5,0.167,56,54.88
2632,C4,446.667,0.167,60,54.88
2633,C#4,446.833,0.167,56,54.88
2634,E-6,447.0,2.0,116,54.88
2635,C4,447.0,0.167,60,54.88
2636,C#4,447.167,0.167,56,54.88
2637,C4,447.333,0.167,60,54.88
2638,C#4,447.5,0.167,56,54.88
2639,C4,447.667,0.167,60,54.88
2640,C#4,447.833,0.167,56,54.88
2641,C4,448.0,0.167,60,54.88
2642,C#4,448.167,0.167,56,54.88
2643,C4,448.333,0.167,60,54.88
2644,C#4,448.5,0.167,56,54.88
2645,C4,448.667,0.167,60,54.88
2646,C#4,448.833,0.167,56,54.88
2647,E-4,449.0,2.0,79,54.88
2648,C5,449.0,0.167,60,54.88
2649,B-1,449.0,3.0,71,54.88
2650,C#5,449.167,0.167,56,54.88
2651,C5,449.333,0.167,60,54.88
2652,C#5,449.5,0.167,56,54.88
2653,C5,449.667,0.167,60,54.88
2654,C#5,449.833,0.167,56,54.88
2655,C5,450.0,0.167,60,54.88
2656,C#5,450.167,0.167,56,54.88
2657,C5,450.333,0.167,60,54.88
2658,C#5,450.5,0.167,56,54.88
2659,C5,450.667,0.167,60,54.88
2660,C#5,450.833,0.167,56,54.88
2661,E4,451.0,1.0,79,54.88
2662,C5,451.0,0.167,60,54.88
2663,C#5,451.167,0.167,56,54.88
2664,C5,451.333,0.167,60,54.88
2665,C#5,451.5,0.167,56,54.88
2666,C5,451.667,0.167,60,54.88
2667,C#5,451.833,0.167,56,54.88
2668,B-4,452.0,1.0,59,54.88
2669,F4,452.0,0.5,59,54.88
2670,C#3,452.0,0.167,51,54.88
2671,E-3,452.167,0.167,47,54.88
2672,C#3,452.333,0.167,51,54.88
2673,C#5,452.5,2.5,59,54.88
2674,E-3,452.5,0.167,47,54.88
2675,C#3,452.667,0.167,51,54.88
2676,E-3,452.833,0.167,47,54.88
2677,C#3,453.0,0.167,51,54.88
2678,E-3,453.167,0.167,47,54.88
2679,C#3,453.333,0.167,51,54.88
2680,E-3,453.5,0.167,47,54.88
2681,C#3,453.667,0.167,51,54.88
2682,E-3,453.833,0.167,47,54.88
2683,C#3,454.0,0.167,51,54.88
2684,E-3,454.167,0.167,47,54.88
2685,C#3,454.333,0.167,51,54.88
2686,E-3,454.5,0.125,51,54.88
2687,C#3,454.625,0.125,45,54.88
2688,C3,454.75,0.125,45,54.88
2689,C#3,454.875,0.125,45,54.88
2690,C#6,455.0,3.0,110,54.88
2691,B-3,455.0,0.167,51,54.88
2692,E-3,455.0,3.0,50,54.88
2693,C4,455.167,0.167,47,54.88
2694,B-3,455.333,0.167,51,54.88
2695,C4,455.5,0.167,47,54.88
2696,B-3,455.667,0.167,51,54.88
2697,C4,455.833,0.167,47,54.88
2698,B-3,456.0,0.167,60,54.88
2699,C4,456.167,0.167,56,54.88
2700,B-3,456.333,0.167,60,54.88
2701,C4,456.5,0.167,56,54.88
2702,B-3,456.667,0.167,60,54.88
2703,C4,456.833,0.167,56,54.88
2704,B-3,457.0,0.167,60,54.88
2705,C4,457.167,0.167,56,54.88
2706,B-3,457.333,0.167,60,54.88
2707,C4,457.5,0.125,60,54.88
2708,B-3,457.625,0.125,56,54.88
2709,A3,457.75,0.125,56,54.88
2710,B-3,457.875,0.125,56,54.88
2711,C#4,458.0,3.0,79,54.88
2712,B-4,458.0,0.167,60,54.88
2713,G#3,458.0,1.5,66,54.88
2714,C5,458.167,0.167,56,54.88
2715,B-4,458.333,0.167,60,54.88
2716,C5,458.5,0.167,56,54.88
2717,B-4,458.667,0.167,60,54.88
2718,C5,458.833,0.167,56,54.88
2719,B-4,459.0,0.167,60,54.88
2720,C5,459.167,0.167,56,54.88
2721,B-4,459.333,0.167,60,54.88
2722,C5,459.5,0.167,56,54.88
2723,G3,459.5,0.5,60,54.88
2724,B-4,459.667,0.167,60,54.88
2725,C5,459.833,0.167,56,54.88
2726,B-4,460.0,0.167,60,54.88
2727,F3,460.0,0.5,66,54.88
2728,C5,460.167,0.167,56,54.88
2729,B-4,460.333,0.167,60,54.88
2730,C5,460.5,0.167,56,54.88
2731,E-3,460.5,0.5,53,54.88
2732,B-4,460.667,0.167,60,54.88
2733,C5,460.833,0.167,56,54.88
2734,G4,461.0,1.5,69,54.88
2735,B-4,461.0,0.167,60,54.88
2736,D3,461.0,0.5,66,54.88
2737,C5,461.167,0.167,56,54.88
2738,B-4,461.333,0.167,60,54.88
2739,C5,461.5,0.167,56,54.88
2740,E-3,461.5,0.5,55,54.88
2741,B-4,461.667,0.167,60,54.88
2742,C5,461.833,0.167,56,54.88
2743,B-4,462.0,0.167,60,54.88
2744,E-3,462.0,3.0,66,54.88
2745,C5,462.167,0.167,56,54.88
2746,B-4,462.333,0.167,60,54.88
2747,F4,462.5,0.5,59,54.88
2748,C5,462.5,0.167,56,54.88
2749,B-4,462.667,0.167,60,54.88
2750,C5,462.833,0.167,56,54.88
2751,E-4,463.0,0.5,59,54.88
2752,B-4,463.0,0.167,60,54.88
2753,C5,463.167,0.167,56,54.88
2754,B-4,463.333,0.167,60,54.88
2755,C5,463.5,0.125,56,54.88
2756,C#4,463.5,0.5,59,54.88
2757,B-4,463.625,0.125,56,54.88
2758,A4,463.75,0.125,53,54.88
2759,B-4,463.875,0.125,54,54.88
2760,F5,464.0,1.5,69,54.88
2761,C4,464.0,0.5,55,54.88
2762,C#4,464.5,0.5,59,54.88
2763,E-3,465.0,2.0,57,54.88
2764,B3,465.0,0.5,59,54.88
2765,E-5,465.5,0.5,47,54.88
2766,C4,465.5,0.5,53,54.88
2767,C#5,466.0,0.5,51,54.88
2768,B-3,466.0,0.5,59,54.88
2769,C5,466.5,0.5,48,54.88
2770,G#3,466.5,0.5,53,54.88
2771,E-3,467.0,0.167,45,54.88
2772,G4,467.0,0.5,51,54.88
2773,B4,467.0,0.5,51,54.88
2774,F3,467.167,0.167,42,54.88
2775,E-3,467.333,0.167,45,54.88
2776,F3,467.5,0.167,42,54.88
2777,G#4,467.5,0.5,46,54.88
2778,C5,467.5,0.5,46,54.88
2779,E-3,467.667,0.167,45,54.88
2780,F3,467.833,0.167,42,54.88
2781,E-3,468.0,0.167,45,54.88
2782,A4,468.0,0.5,51,54.88
2783,E-5,468.0,0.5,51,54.88
2784,F3,468.167,0.167,42,54.88
2785,E-3,468.333,0.167,45,54.88
2786,F3,468.5,0.167,42,54.88
2787,B-4,468.5,0.5,48,54.88
2788,C#5,468.5,0.5,48,54.88
2789,E-3,468.667,0.167,45,54.88
2790,F3,468.833,0.167,42,54.88
2791,E-3,469.0,0.167,45,54.88
2792,E-4,469.0,0.5,51,54.88
2793,C5,469.0,0.5,51,54.88
2794,F3,469.167,0.167,42,54.88
2795,E-3,469.333,0.167,45,54.88
2796,C#4,469.5,1.0,49,54.88
2797,B-4,469.5,0.5,49,54.88
2798,F3,469.5,0.25,45,54.88
2799,E-3,469.75,0.25,40,54.88
2800,A4,470.0,0.5,51,54.88
2801,F3,470.0,0.5,52,54.88
2802,C#4,470.5,1.0,45,54.88
2803,B-4,470.5,0.5,45,54.88
2804,G3,470.5,0.5,47,54.88
2805,E-4,471.0,1.0,51,54.88
2806,G#3,471.0,0.25,40,54.88
2807,C3,471.25,0.25,40,54.88
2808,C4,471.5,0.49,45,54.88
2809,E-3,471.5,0.25,40,54.88
2810,G#3,471.75,0.25,40,54.88
2811,C4,472.0,0.25,52,54.88
2812,G#5,472.25,0.3,52,54.88
2813,G5,472.5,0.3,51,54.88
2814,C#4,472.5,0.25,54,54.88
2815,F5,472.75,0.3,50,54.88
2816,E-5,473.0,0.25,60,54.88
2817,E-4,473.0,1.0,61,54.88
2818,B-4,473.25,0.25,48,54.88
2819,C5,473.5,0.25,52,54.88
2820,G5,473.5,0.25,52,54.88
2821,C#5,473.75,0.25,53,54.88
2822,C5,474.0,0.25,48,54.88
2823,G#5,474.0,0.5,68,54.88
2824,C4,474.25,0.25,48,54.88
2825,E-4,474.5,0.25,48,54.88
2826,G#4,474.75,0.25,48,54.88
2827,C5,475.0,0.25,59,54.88
2828,C6,475.25,0.25,52,54.88
2829,B-5,475.5,0.25,56,54.88
2830,C#5,475.5,0.25,56,54.88
2831,G#5,475.75,0.25,50,54.88
2832,G5,476.0,1.0,50,54.88
2833,E-5,476.0,1.5,65,54.88
2834,B-3,476.25,0.25,40,54.88
2835,C4,476.5,0.25,43,54.88
2836,C#4,476.75,0.25,45,54.88
2837,G#5,477.0,0.25,51,54.88
2838,C4,477.0,1.0,49,54.88
2839,C5,477.25,0.25,50,54.88
2840,E-5,477.5,0.25,48,54.88
2841,G#5,477.75,0.25,57,54.88
2842,C6,478.0,0.25,74,54.88
2843,G#3,478.25,0.3,40,54.88
2844,C#6,478.5,0.25,77,54.88
2845,G3,478.5,0.3,44,54.88
2846,F3,478.75,0.3,40,54.88
2847,E-6,479.0,1.0,80,54.88
2848,E-3,479.0,1.0,49,54.88
2849,G3,479.25,0.25,42,54.88
2850,G#3,479.5,0.25,44,54.88
2851,B-3,479.75,0.25,47,54.88
2852,C4,480.0,0.25,63,54.88
2853,C5,480.25,0.25,52,54.88
2854,B-4,480.5,0.25,58,54.88
2855,C#4,480.5,0.25,58,54.88
2856,G#4,480.75,0.25,49,54.88
2857,G4,481.0,1.0,50,54.88
2858,E-4,481.0,1.25,68,54.88
2859,F3,481.25,0.25,44,54.88
2860,E-3,481.5,0.25,52,54.88
2861,C#3,481.75,0.25,46,54.88
2862,G#4,482.0,1.25,50,54.88
2863,C3,482.0,0.5,53,54.88
2864,C4,482.25,0.25,62,54.88
2865,B-3,482.5,0.25,65,54.88
2866,D3,482.5,0.25,55,54.88
2867,G#3,482.75,0.25,68,54.88
2868,E3,482.75,0.25,58,54.88
2869,C4,483.0,0.5,71,54.88
2870,F3,483.0,1.0,61,54.88
2871,G#4,483.25,0.25,62,54.88
2872,C5,483.5,0.25,65,54.88
2873,F5,483.75,0.25,67,54.88
2874,G#5,484.0,0.25,72,54.88
2875,F5,484.25,0.25,65,54.88
2876,E-5,484.5,0.25,70,54.88
2877,B-5,484.5,0.25,70,54.88
2878,C#5,484.75,0.25,62,54.88
2879,C5,485.0,1.25,66,54.88
2880,C6,485.0,2.0,79,54.88
2881,E3,485.25,0.25,55,54.88
2882,F3,485.5,0.25,56,54.88
2883,G3,485.75,0.25,58,54.88
2884,G#3,486.0,0.25,64,54.88
2885,G#4,486.25,0.3,65,54.88
2886,G4,486.5,0.3,63,54.88
2887,B-3,486.5,0.25,68,54.88
2888,F4,486.75,0.3,61,54.88
2889,G#4,487.0,1.25,71,54.88
2890,C4,487.0,1.25,73,54.88
2891,G#5,487.25,0.25,65,54.88
2892,G5,487.5,0.25,69,54.88
2893,F5,487.75,0.25,63,54.88
2894,E5,488.0,0.25,71,54.88
2895,C5,488.25,0.25,61,54.88
2896,G#3,488.25,0.25,59,54.88
2897,G3,488.5,0.25,59,54.88
2898,B-4,488.5,0.25,65,54.88
2899,F5,488.5,0.25,65,54.88
2900,G#4,488.75,0.25,60,54.88
2901,F3,488.75,0.25,59,54.88
2902,G#5,489.0,0.25,66,54.88
2903,C4,489.0,0.25,64,54.88
2904,F4,489.25,0.3,69,54.88
2905,B-5,489.5,0.25,68,54.88
2906,E4,489.5,0.3,67,54.88
2907,D4,489.75,0.3,65,54.88
2908,C6,490.0,1.25,69,54.88
2909,C4,490.0,0.25,62,54.88
2910,C5,490.25,0.25,62,54.88
2911,B-3,490.25,0.25,60,54.88
2912,D5,490.5,0.25,64,54.88
2913,G#3,490.5,0.25,57,54.88
2914,E5,490.75,0.25,66,54.88
2915,G3,490.75,0.25,55,54.88
2916,F5,491.0,0.75,68,54.88
2917,F3,491.0,0.5,68,54.88
2918,G#5,491.25,0.25,62,54.88
2919,G5,491.5,0.25,65,54.88
2920,A5,492.0,0.25,66,54.88
2921,C4,492.0,0.25,64,54.88
2922,E-4,492.25,0.3,69,54.88
2923,B-5,492.5,0.25,69,54.88
2924,C#4,492.5,0.3,67,54.88
2925,C4,492.75,0.3,65,54.88
2926,C6,493.0,1.25,72,54.88
2927,B-3,493.0,0.25,62,54.88
2928,C5,493.25,0.25,58,54.88
2929,A3,493.25,0.25,60,54.88
2930,D5,493.5,0.25,61,54.88
2931,G3,493.5,0.25,57,54.88
2932,E5,493.75,0.25,64,54.88
2933,F3,493.75,0.25,55,54.88
2934,F5,494.0,0.746,68,54.88
2935,E-3,494.0,1.0,68,54.88
2936,A5,494.25,0.25,63,54.88
2937,G5,494.5,0.25,65,54.88
2938,F5,494.75,0.25,62,54.88
2939,B-5,495.0,0.25,68,54.88
2940,C#3,495.0,0.25,64,54.88
2941,C#4,495.25,0.3,69,54.88
2942,C6,495.5,0.25,71,54.88
2943,C4,495.5,0.3,67,54.88
2944,B-3,495.75,0.3,65,54.88
2945,C#6,496.0,1.25,74,54.88
2946,A3,496.0,0.25,62,54.88
2947,F5,496.25,0.25,59,54.88
2948,G3,496.25,0.25,60,54.88
2949,G5,496.5,0.25,61,54.88
2950,F3,496.5,0.25,57,54.88
2951,A5,496.75,0.25,63,54.88
2952,E-3,496.75,0.25,55,54.88
2953,B-5,497.0,0.229,65,54.88
2954,C#3,497.0,1.0,68,54.88
2955,B-5,497.25,0.75,58,54.88
2956,F#5,497.5,0.25,58,54.88
2957,F5,497.75,0.25,56,54.88
2958,A5,498.0,1.0,63,54.88
2959,E-5,498.0,0.25,63,54.88
2960,C3,498.0,0.25,64,54.88
2961,C4,498.25,0.3,69,54.88
2962,F5,498.5,0.25,65,54.88
2963,B-3,498.5,0.3,67,54.88
2964,A3,498.75,0.3,65,54.88
2965,F#5,499.0,1.25,70,54.88
2966,F#3,499.0,0.25,62,54.88
2967,A5,499.25,0.25,60,54.88
2968,F3,499.25,0.25,60,54.88
2969,C6,499.5,0.25,62,54.88
2970,E-3,499.5,0.25,57,54.88
2971,C#6,499.75,0.25,65,54.88
2972,C#3,499.75,0.25,55,54.88
2973,E-6,500.0,1.0,67,54.88
2974,C3,500.0,1.0,68,54.88
2975,E-5,500.25,0.25,60,54.88
2976,C#5,500.5,0.25,63,54.88
2977,C5,500.75,0.25,55,54.88
2978,F5,501.0,0.3,65,54.88
2979,D3,501.0,0.25,62,54.88
2980,D2,501.0,0.25,62,54.88
2981,B-5,501.25,0.3,69,54.88
2982,A5,501.5,0.3,65,54.88
2983,E-3,501.5,0.25,66,54.88
2984,E-2,501.5,0.25,66,54.88
2985,G5,501.75,0.3,64,54.88
2986,F5,502.0,0.25,60,54.88
2987,F2,502.0,1.25,70,54.88
2988,F3,502.0,1.25,70,54.88
2989,E-5,502.25,0.25,60,54.88
2990,D5,502.5,0.25,60,54.88
2991,C5,502.75,0.25,60,54.88
2992,B-4,503.0,1.5,67,54.88
2993,D5,503.0,0.25,67,54.88
2994,F5,503.25,0.25,60,54.88
2995,D3,503.25,0.25,63,54.88
2996,F#5,503.5,0.25,60,54.88
2997,C3,503.5,0.25,63,54.88
2998,G#5,503.75,0.25,60,54.88
2999,B-2,503.75,0.25,63,54.88
3000,G5,504.0,0.3,66,54.88
3001,E-2,504.0,0.25,62,54.88
3002,E-3,504.0,0.25,62,54.88
3003,B-5,504.25,0.3,67,54.88
3004,G#5,504.5,0.3,70,54.88
3005,F2,504.5,0.25,62,54.88
3006,F3,504.5,0.25,62,54.88
3007,G5,504.75,0.3,69,54.88
3008,F5,505.0,0.25,68,54.88
3009,G2,505.0,1.25,64,54.88
3010,G3,505.0,1.25,64,54.88
3011,E-5,505.25,0.25,66,54.88
3012,E-4,505.5,0.75,65,54.88
3013,D5,505.5,0.25,65,54.88
3014,C5,505.75,0.25,64,54.88
3015,B-4,506.0,0.75,69,54.88
3016,G4,506.25,0.25,60,54.88
3017,E-3,506.25,0.25,64,54.88
3018,G#4,506.5,0.25,60,54.88
3019,B2,506.5,0.25,64,54.88
3020,B-2,506.75,0.25,64,54.88
3021,E-4,507.0,0.25,65,54.88
3022,G2,507.0,0.25,62,54.88
3023,G3,507.0,0.25,62,54.88
3024,E-5,507.25,0.3,69,54.88
3025,C#5,507.5,0.3,68,54.88
3026,G#2,507.5,0.25,66,54.88
3027,G#3,507.5,0.25,66,54.88
3028,C5,507.75,0.3,67,54.88
3029,B-4,508.0,0.25,65,54.88
3030,B-2,508.0,1.25,66,54.88
3031,B-3,508.0,1.25,66,54.88
3032,G#4,508.25,0.25,64,54.88
3033,G4,508.5,0.25,60,54.88
3034,F4,508.75,0.25,60,54.88
3035,G4,509.0,0.25,66,54.88
3036,E-4,509.0,1.5,66,54.88
3037,B-4,509.25,0.25,61,54.88
3038,G3,509.25,0.25,64,54.88
3039,C5,509.5,0.25,62,54.88
3040,F3,509.5,0.25,64,54.88
3041,C#5,509.75,0.25,63,54.88
3042,E-3,509.75,0.25,64,54.88
3043,C5,510.0,0.3,64,54.88
3044,G#2,510.0,0.25,66,54.88
3045,G#3,510.0,0.25,66,54.88
3046,C6,510.25,0.3,70,54.88
3047,B-5,510.5,0.3,69,54.88
3048,B-2,510.5,0.25,66,54.88
3049,B-3,510.5,0.25,66,54.88
3050,G#5,510.75,0.3,68,54.88
3051,G5,511.0,0.25,66,54.88
3052,C3,511.0,1.25,69,54.88
3053,C4,511.0,1.25,69,54.88
3054,F5,511.25,0.25,66,54.88
3055,E-5,511.5,0.25,63,54.88
3056,C#5,511.75,0.25,61,54.88
3057,E-4,512.0,0.25,72,54.88
3058,C5,512.0,1.5,65,54.88
3059,G#3,512.25,0.3,60,54.88
3060,G4,512.5,0.25,74,54.88
3061,E-3,512.5,0.3,59,54.88
3062,C3,512.75,0.25,59,54.88
3063,G#4,513.0,0.5,79,54.88
3064,G#3,513.0,0.25,69,54.88
3065,E-3,513.25,0.25,60,54.88
3066,C3,513.5,0.25,60,54.88
3067,G5,513.5,0.5,72,54.88
3068,B-4,513.5,0.5,72,54.88
3069,G#2,513.75,0.25,60,54.88
3070,G#5,514.0,1.5,65,54.88
3071,C5,514.0,0.5,79,54.88
3072,E-3,514.0,0.25,63,54.88
3073,C3,514.25,0.25,58,54.88
3074,C#5,514.5,0.5,80,54.88
3075,G#2,514.5,0.25,58,54.88
3076,E-2,514.75,0.25,58,54.88
3077,E-5,515.0,1.0,82,54.88
3078,F#2,515.0,0.25,63,54.88
3079,E-3,515.25,0.25,58,54.88
3080,C6,515.5,0.5,87,54.88
3081,C3,515.5,0.25,58,54.88
3082,F#2,515.75,0.25,58,54.88
3083,C#5,516.0,0.3,66,54.88
3084,C#6,516.0,1.0,92,54.88
3085,F3,516.0,0.25,66,54.88
3086,F2,516.0,0.25,66,54.88
3087,F5,516.25,0.3,73,54.88
3088,E-5,516.5,0.3,71,54.88
3089,F#2,516.5,0.25,66,54.88
3090,F#3,516.5,0.25,66,54.88
3091,C#5,516.75,0.3,69,54.88
3092,C5,517.0,0.25,71,54.88
3093,G#2,517.0,1.25,69,54.88
3094,G#3,517.0,1.25,69,54.88
3095,B-4,517.25,0.25,66,54.88
3096,G#4,517.5,0.25,66,54.88
3097,F#4,517.75,0.25,66,54.88
3098,F4,518.0,1.5,66,54.88
3099,G#4,518.0,0.25,79,54.88
3100,F3,518.25,0.3,60,54.88
3101,C5,518.5,0.25,81,54.88
3102,C#3,518.5,0.3,59,54.88
3103,G#2,518.75,0.25,59,54.88
3104,C#5,519.0,1.5,85,54.88
3105,F3,519.0,0.25,69,54.88
3106,C3,519.25,0.25,60,54.88
3107,F#4,519.5,0.25,72,54.88
3108,G#2,519.5,0.25,60,54.88
3109,F2,519.75,0.25,60,54.88
3110,G#4,520.0,1.5,79,54.88
3111,C#3,520.0,0.25,63,54.88
3112,G#2,520.25,0.25,58,54.88
3113,E5,520.5,0.5,79,54.88
3114,F2,520.5,0.25,58,54.88
3115,C#2,520.75,0.25,58,54.88
3116,F5,521.0,0.5,84,54.88
3117,G#2,521.0,0.25,63,54.88
3118,F2,521.25,0.25,58,54.88
3119,B-4,521.5,1.5,74,54.88
3120,F#5,521.5,0.75,86,54.88
3121,E-2,521.5,0.25,58,54.88
3122,C#2,521.75,0.25,58,54.88
3123,B-3,522.0,0.25,66,54.88
3124,B-2,522.0,0.25,66,54.88
3125,B-5,522.25,0.3,83,54.88
3126,G#5,522.5,0.3,80,54.88
3127,B3,522.5,0.25,66,54.88
3128,B2,522.5,0.25,66,54.88
3129,F#5,522.75,0.3,77,54.88
3130,F5,523.0,0.25,81,54.88
3131,C#4,523.0,1.25,69,54.88
3132,C#3,523.0,1.25,69,54.88
3133,E-5,523.25,0.25,72,54.88
3134,C#5,523.5,0.25,72,54.88
3135,B4,523.75,0.25,72,54.88
3136,C#4,524.0,0.25,72,54.88
3137,B-4,524.0,1.5,72,54.88
3138,B-3,524.25,0.3,60,54.88
3139,F4,524.5,0.25,75,54.88
3140,F#3,524.5,0.3,59,54.88
3141,C#3,524.75,0.25,59,54.88
3142,F#4,525.0,1.5,78,54.88
3143,B-3,525.0,0.25,69,54.88
3144,F#3,525.25,0.25,60,54.88
3145,B4,525.5,0.5,72,54.88
3146,C#3,525.5,0.25,60,54.88
3147,B-2,525.75,0.25,60,54.88
3148,C#5,526.0,1.5,76,54.88
3149,F#3,526.0,0.25,63,54.88
3150,C#3,526.25,0.25,58,54.88
3151,G#4,526.5,0.5,66,54.88
3152,B-2,526.5,0.25,58,54.88
3153,F#2,526.75,0.25,58,54.88
3154,B-4,527.0,0.5,73,54.88
3155,C#3,527.0,0.25,63,54.88
3156,B-2,527.25,0.25,58,54.88
3157,B-5,527.5,0.5,66,54.88
3158,F#5,527.5,0.75,66,54.88
3159,G#2,527.5,0.25,58,54.88
3160,F#2,527.75,0.25,58,54.88
3161,B5,528.0,0.5,72,54.88
3162,D3,528.0,0.25,66,54.88
3163,D2,528.0,0.25,66,54.88
3164,D5,528.25,0.3,66,54.88
3165,C#5,528.5,0.3,66,54.88
3166,E3,528.5,0.25,66,54.88
3167,E2,528.5,0.25,66,54.88
3168,B4,528.75,0.3,66,54.88
3169,B-4,529.0,0.25,70,54.88
3170,F#3,529.0,1.25,69,54.88
3171,F#2,529.0,1.25,69,54.88
3172,G4,529.25,0.25,68,54.88
3173,F#4,529.5,0.25,67,54.88
3174,E4,529.75,0.25,66,54.88
3175,D4,530.0,1.5,71,54.88
3176,F#4,530.0,0.25,71,54.88
3177,D3,530.25,0.3,60,54.88
3178,B-4,530.5,0.25,74,54.88
3179,B2,530.5,0.3,59,54.88
3180,F#2,530.75,0.25,59,54.88
3181,B4,531.0,1.5,79,54.88
3182,D3,531.0,0.25,69,54.88
3183,B2,531.25,0.25,60,54.88
3184,E4,531.5,0.5,73,54.88
3185,F#2,531.5,0.25,60,54.88
3186,D2,531.75,0.25,60,54.88
3187,F#4,532.0,1.5,76,54.88
3188,B2,532.0,0.25,63,54.88
3189,F#2,532.25,0.25,58,54.88
3190,C#5,532.5,0.5,71,54.88
3191,D2,532.5,0.25,58,54.88
3192,B1,532.75,0.25,58,54.88
3193,D5,533.0,0.5,75,54.88
3194,F#2,533.0,0.25,65,54.88
3195,D2,533.25,0.25,58,54.88
3196,C#2,533.5,0.25,63,54.88
3197,C#5,533.5,0.5,78,54.88
3198,E5,533.5,0.5,78,54.88
3199,B1,533.75,0.25,66,54.88
3200,F#5,534.0,0.25,86,54.88
3201,D5,534.0,0.5,70,54.88
3202,F#1,534.0,0.5,70,54.88
3203,B-5,534.5,0.25,90,54.88
3204,C#5,534.5,0.3,65,54.88
3205,B4,534.75,0.25,65,54.88
3206,B5,535.0,1.5,90,54.88
3207,D5,535.0,0.3,65,54.88
3208,B4,535.25,0.3,60,54.88
3209,G4,535.5,0.3,61,54.88
3210,F#4,535.75,0.25,61,54.88
3211,B4,536.0,0.3,65,54.88
3212,F#4,536.25,0.3,58,54.88
3213,C#6,536.5,0.25,90,54.88
3214,E4,536.5,0.3,58,54.88
3215,D4,536.75,0.25,58,54.88
3216,D6,537.0,0.25,94,54.88
3217,F#4,537.0,0.3,63,54.88
3218,D4,537.25,0.3,54,54.88
3219,E6,537.5,0.25,97,54.88
3220,C#4,537.5,0.3,54,54.88
3221,B3,537.75,0.25,54,54.88
3222,F#6,538.0,0.5,99,54.88
3223,D4,538.0,0.3,59,54.88
3224,B3,538.25,0.3,49,54.88
3225,G3,538.5,0.3,50,54.88
3226,F#3,538.75,0.25,50,54.88
3227,F#5,539.0,0.5,71,54.88
3228,G3,539.0,0.25,59,54.88
3229,F#3,539.25,0.3,41,54.88
3230,G#3,539.5,0.3,41,54.88
3231,B-3,539.75,0.25,41,54.88
3232,B3,540.0,0.3,40,54.88
3233,C#4,540.25,0.3,36,54.88
3234,D4,540.5,0.3,37,54.88
3235,E4,540.75,0.3,39,54.88
3236,F#4,541.0,0.3,40,54.88
3237,G4,541.25,0.3,41,54.88
3238,F#4,541.5,0.3,41,54.88
3239,F4,541.75,0.3,40,54.88
3240,F#5,542.0,1.0,57,54.88
3241,E4,542.0,0.3,38,54.88
3242,D4,542.25,0.3,37,54.88
3243,C#4,542.5,0.3,36,54.88
3244,B3,542.75,0.25,35,54.88
3245,E5,543.0,2.0,56,54.88
3246,C#4,543.0,0.3,35,54.88
3247,D4,543.25,0.3,37,54.88
3248,C#4,543.5,0.3,36,54.88
3249,C4,543.75,0.3,36,54.88
3250,B3,544.0,0.3,35,54.88
3251,B-3,544.25,0.3,34,54.88
3252,G#3,544.5,0.3,33,54.88
3253,F#3,544.75,0.3,32,54.88
3254,C#5,545.0,1.0,50,54.88
3255,G#3,545.0,0.3,36,54.88
3256,B-3,545.25,0.3,35,54.88
3257,B3,545.5,0.3,39,54.88
3258,B-3,545.75,0.3,34,54.88
3259,D5,546.0,2.0,56,54.88
3260,B3,546.0,0.3,36,54.88
3261,C#4,546.25,0.3,34,54.88
3262,D4,546.5,0.3,41,54.88
3263,C#4,546.75,0.3,35,54.88
3264,D4,547.0,0.3,39,54.88
3265,E4,547.25,0.25,36,54.88
3266,C#5,548.0,2.0,50,54.88
3267,E4,548.0,1.0,36,54.88
3268,B3,549.0,0.3,39,54.88
3269,C#4,549.25,0.3,39,54.88
3270,D4,549.5,0.3,34,54.88
3271,E4,549.75,0.3,34,54.88
3272,B4,550.0,1.0,50,54.88
3273,F#4,550.0,0.3,39,54.88
3274,G4,550.25,0.25,34,54.88
3275,B4,551.0,1.0,50,54.88
3276,G4,551.0,1.0,36,54.88
3277,B4,552.0,1.0,56,54.88
3278,D4,552.0,0.3,39,54.88
3279,E4,552.25,0.3,36,54.88
3280,F#4,552.5,0.3,36,54.88
3281,G#4,552.75,0.3,36,54.88
3282,F#4,553.0,1.0,50,54.88
3283,B-4,553.0,0.3,39,54.88
3284,B4,553.25,0.25,35,54.88
3285,D5,554.0,1.0,56,54.88
3286,B4,554.0,1.0,36,54.88
3287,C#5,555.0,1.0,56,54.88
3288,B-4,555.0,0.167,33,54.88
3289,B4,555.167,0.167,27,54.88
3290,B-4,555.333,0.167,32,54.88
3291,B4,555.5,0.167,28,54.88
3292,B-4,555.667,0.167,32,54.88
3293,B4,555.833,0.167,32,54.88
3294,F#4,556.0,0.5,56,54.88
3295,B-4,556.0,0.167,33,54.88
3296,B4,556.167,0.167,33,54.88
3297,B-4,556.333,0.167,28,54.88
3298,B4,556.5,0.125,33,54.88
3299,B-4,556.625,0.125,29,54.88
3300,G#4,556.75,0.125,29,54.88
3301,B-4,556.875,0.125,30,54.88
3302,B-5,557.0,0.167,46,54.88
3303,F#3,557.0,0.5,50,54.88
3304,B5,557.167,0.167,37,54.88
3305,B-5,557.333,0.167,45,54.88
3306,B5,557.5,0.167,40,54.88
3307,B-5,557.667,0.167,45,54.88
3308,B5,557.833,0.167,45,54.88
3309,B-5,558.0,0.167,46,54.88
3310,B5,558.167,0.167,46,54.88
3311,B-5,558.333,0.167,40,54.88
3312,B5,558.5,0.125,46,54.88
3313,B-5,558.625,0.125,41,54.88
3314,G#5,558.75,0.125,41,54.88
3315,B-5,558.875,0.125,42,54.88
3316,B5,559.0,1.0,54,54.88
3317,B3,559.0,0.5,50,54.88
3318,D5,560.0,0.167,36,54.88
3319,E5,560.167,0.167,34,54.88
3320,D5,560.333,0.167,37,54.88
3321,B5,560.5,0.25,46,54.88
3322,E5,560.5,0.167,35,54.88
3323,D5,560.667,0.167,39,54.88
3324,A5,560.75,0.25,40,54.88
3325,E5,560.833,0.167,36,54.88
3326,G5,561.0,0.25,47,54.88
3327,D5,561.0,0.167,40,54.88
3328,E5,561.167,0.167,37,54.88
3329,F#5,561.25,0.25,40,54.88
3330,D5,561.333,0.167,41,54.88
3331,E5,561.5,0.25,43,54.88
3332,D5,561.625,0.125,42,54.88
3333,F#5,561.75,0.25,40,54.88
3334,C#5,561.75,0.125,43,54.88
3335,D5,561.875,0.125,48,54.88
3336,G5,562.0,0.25,45,54.88
3337,E5,562.0,1.0,54,54.88
3338,A5,562.25,0.25,40,54.88
3339,G5,562.5,0.25,44,54.88
3340,F#5,562.75,0.25,40,54.88
3341,E5,563.0,0.25,42,54.88
3342,A2,563.0,0.5,50,54.88
3343,G4,563.0,1.0,41,54.88
3344,D5,563.25,0.25,40,54.88
3345,C#5,563.5,0.25,37,54.88
3346,D5,563.75,0.25,40,54.88
3347,E5,564.0,0.25,44,54.88
3348,C#4,564.0,0.167,36,54.88
3349,D4,564.167,0.167,34,54.88
3350,D5,564.25,0.25,40,54.88
3351,C#4,564.333,0.167,37,54.88
3352,C#5,564.5,0.25,40,54.88
3353,D4,564.5,0.167,35,54.88
3354,C#4,564.667,0.167,39,54.88
3355,B4,564.75,0.25,40,54.88
3356,D4,564.833,0.167,36,54.88
3357,A4,565.0,0.25,44,54.88
3358,C#4,565.0,0.167,40,54.88
3359,D4,565.167,0.167,37,54.88
3360,G#4,565.25,0.25,36,54.88
3361,C#4,565.333,0.167,41,54.88
3362,A4,565.5,0.25,40,54.88
3363,D4,565.5,0.125,37,54.88
3364,C#4,565.625,0.125,43,54.88
3365,G4,565.75,0.25,38,54.88
3366,B3,565.75,0.125,43,54.88
3367,C#4,565.875,0.125,48,54.88
3368,F#4,566.0,0.25,38,54.88
3369,D4,566.0,1.0,54,54.88
3370,A4,566.25,0.246,39,54.88
3371,B4,566.5,0.25,40,54.88
3372,A4,566.5,0.5,44,54.88
3373,C#5,566.75,0.25,41,54.88
3374,D5,567.0,0.25,41,54.88
3375,B4,567.0,0.5,50,54.88
3376,E5,567.25,0.25,44,54.88
3377,F#5,567.5,0.25,46,54.88
3378,G4,567.5,0.5,49,54.88
3379,G5,567.75,0.25,48,54.88
3380,A5,568.0,0.25,50,54.88
3381,F#4,568.0,0.5,47,54.88
3382,B5,568.25,0.25,47,54.88
3383,A5,568.5,0.25,49,54.88
3384,F4,568.5,0.5,45,54.88
3385,G#5,568.75,0.25,49,54.88
3386,G5,569.0,0.25,48,54.88
3387,F#4,569.0,2.0,47,54.88
3388,A3,569.0,1.0,47,54.88
3389,F#5,569.25,0.25,42,54.88
3390,E5,569.5,0.25,42,54.88
3391,E-5,569.75,0.25,44,54.88
3392,E5,570.0,0.25,50,54.88
3393,G3,570.0,2.0,47,54.88
3394,F#5,570.25,0.25,40,54.88
3395,E5,570.5,0.25,40,54.88
3396,E-5,570.75,0.25,40,54.88
3397,D5,571.0,0.25,47,54.88
3398,E4,571.0,1.0,51,54.88
3399,C#5,571.25,0.25,40,54.88
3400,B4,571.5,0.25,40,54.88
3401,A4,571.75,0.25,40,54.88
3402,B4,572.0,0.25,44,54.88
3403,G3,572.0,1.0,47,54.88
3404,E3,572.0,1.0,47,54.88
3405,C#5,572.25,0.25,37,54.88
3406,D5,572.5,0.25,40,54.88
3407,C#5,572.75,0.25,36,54.88
3408,D5,573.0,0.25,41,54.88
3409,B3,573.0,1.0,47,54.88
3410,F#3,573.0,2.0,47,54.88
3411,E5,573.25,0.25,42,54.88
3412,F#5,573.5,0.25,44,54.88
3413,E5,573.75,0.25,45,54.88
3414,F#5,574.0,0.25,51,54.88
3415,A3,574.0,1.0,45,54.88
3416,G5,574.25,0.25,46,54.88
3417,G5,575.0,1.0,44,54.88
3418,E3,575.0,2.0,44,54.88
3419,G3,575.0,2.0,44,54.88
3420,D5,576.0,0.25,46,54.88
3421,E5,576.25,0.25,47,54.88
3422,F#5,576.5,0.25,48,54.88
3423,G5,576.75,0.25,49,54.88
3424,A5,577.0,0.25,55,54.88
3425,D3,577.0,1.0,47,54.88
3426,F#3,577.0,1.0,47,54.88
3427,B5,577.25,0.25,50,54.88
3428,B5,578.0,1.0,55,54.88
3429,D3,578.0,1.0,45,54.88
3430,G3,578.0,1.0,45,54.88
3431,F#5,579.0,0.25,59,54.88
3432,D3,579.0,1.0,47,54.88
3433,G3,579.0,0.5,47,54.88
3434,G5,579.25,0.25,60,54.88
3435,A5,579.5,0.25,61,54.88
3436,F#3,579.5,0.5,43,54.88
3437,B5,579.75,0.25,62,54.88
3438,C#6,580.0,0.25,63,54.88
3439,E3,580.0,0.5,47,54.88
3440,A2,580.0,1.0,47,54.88
3441,D6,580.25,0.25,59,54.88
3442,F#3,580.5,0.5,42,54.88
3443,D6,581.0,1.0,67,54.88
3444,F#3,581.0,1.0,47,54.88
3445,G#3,581.0,0.5,47,54.88
3446,A3,581.5,0.5,42,54.88
3447,C#6,582.0,0.167,61,54.88
3448,G3,582.0,2.0,52,54.88
3449,E3,582.0,1.0,52,54.88
3450,D6,582.167,0.167,51,54.88
3451,C#6,582.333,0.167,63,54.88
3452,D6,582.5,0.167,52,54.88
3453,C#6,582.667,0.167,65,54.88
3454,D6,582.833,0.167,54,54.88
3455,C#6,583.0,0.167,68,54.88
3456,B-2,583.0,1.0,46,54.88
3457,D6,583.167,0.167,56,54.88
3458,C#6,583.333,0.167,68,54.88
3459,D6,583.5,0.167,53,54.88
3460,C#6,583.667,0.167,63,54.88
3461,D6,583.833,0.167,51,54.88
3462,B-4,584.0,0.5,48,54.88
3463,F#3,584.0,0.5,46,54.88
3464,B-4,585.0,0.167,48,54.88
3465,F#5,585.0,1.0,60,54.88
3466,B4,585.167,0.167,43,54.88
3467,B-4,585.333,0.167,48,54.88
3468,B4,585.5,0.167,44,54.88
3469,B-4,585.667,0.167,48,54.88
3470,B4,585.833,0.167,44,54.88
3471,B-4,586.0,0.167,48,54.88
3472,E5,586.0,1.0,56,54.88
3473,B4,586.167,0.167,45,54.88
3474,B-4,586.333,0.167,48,54.88
3475,B4,586.5,0.167,45,54.88
3476,B-4,586.667,0.167,48,54.88
3477,B4,586.833,0.167,44,54.88
3478,B-4,587.0,0.167,48,54.88
3479,C#5,587.0,1.0,56,54.88
3480,F#3,587.0,0.25,41,54.88
3481,B4,587.167,0.167,48,54.88
3482,E3,587.25,0.25,39,54.88
3483,B-4,587.333,0.167,44,54.88
3484,B4,587.5,0.25,48,54.88
3485,D3,587.5,0.25,39,54.88
3486,B-4,587.75,0.25,48,54.88
3487,C#3,587.75,0.25,39,54.88
3488,B4,588.0,2.0,54,54.88
3489,E5,588.0,1.0,64,54.88
3490,B2,588.0,0.3,39,54.88
3491,C#3,588.25,0.3,38,54.88
3492,D3,588.5,0.3,38,54.88
3493,E3,588.75,0.3,38,54.88
3494,D5,589.0,3.0,57,54.88
3495,F#3,589.0,0.3,41,54.88
3496,G3,589.25,0.3,38,54.88
3497,F#3,589.5,0.3,38,54.88
3498,F3,589.75,0.3,38,54.88
3499,F#4,590.0,1.0,57,54.88
3500,E3,590.0,0.3,41,54.88
3501,D3,590.25,0.3,37,54.88
3502,C#3,590.5,0.3,37,54.88
3503,B2,590.75,0.3,37,54.88
3504,E4,591.0,2.0,59,54.88
3505,C#3,591.0,0.3,37,54.88
3506,D3,591.25,0.3,36,54.88
3507,C#3,591.5,0.3,36,54.88
3508,C3,591.75,0.3,36,54.88
3509,C#5,592.0,3.0,63,54.88
3510,B2,592.0,0.3,41,54.88
3511,B-2,592.25,0.3,34,54.88
3512,G#2,592.5,0.3,34,54.88
3513,F#2,592.75,0.3,34,54.88
3514,C#4,593.0,1.0,56,54.88
3515,G#2,593.0,0.3,40,54.88
3516,B-2,593.25,0.3,36,54.88
3517,B2,593.5,0.3,36,54.88
3518,B-2,593.75,0.3,36,54.88
3519,E4,594.0,1.0,57,54.88
3520,B2,594.0,0.3,36,54.88
3521,C#3,594.25,0.3,38,54.88
3522,D3,594.5,0.3,41,54.88
3523,C#3,594.75,0.3,43,54.88
3524,B4,595.0,4.0,63,54.88
3525,D4,595.0,1.0,48,54.88
3526,D3,595.0,0.3,45,54.88
3527,E3,595.25,0.25,41,54.88
3528,C#4,596.0,2.0,48,54.88
3529,E3,596.0,1.0,44,54.88
3530,B2,597.0,0.3,36,54.88
3531,C#3,597.25,0.3,38,54.88
3532,D3,597.5,0.3,41,54.88
3533,E3,597.75,0.3,43,54.88
3534,B3,598.0,1.0,48,54.88
3535,F#3,598.0,0.3,45,54.88
3536,G3,598.25,0.25,41,54.88
3537,E4,599.0,0.5,48,54.88
3538,B3,599.0,1.0,40,54.88
3539,G3,599.0,1.0,44,54.88
3540,D4,599.5,0.5,43,54.88
3541,C#4,600.0,0.5,48,54.88
3542,B3,600.0,1.0,40,54.88
3543,D3,600.0,0.3,36,54.88
3544,E3,600.25,0.3,38,54.88
3545,D4,600.5,0.5,42,54.88
3546,F#3,600.5,0.3,41,54.88
3547,G#3,600.75,0.3,43,54.88
3548,C#4,601.0,0.5,48,54.88
3549,F#3,601.0,1.0,40,54.88
3550,B-3,601.0,0.3,45,54.88
3551,B3,601.25,0.25,41,54.88
3552,D4,601.5,0.5,43,54.88
3553,E4,602.0,0.5,48,54.88
3554,D4,602.0,1.0,40,54.88
3555,B3,602.0,1.0,44,54.88
3556,F4,602.5,0.5,43,54.88
3557,C#4,603.0,1.0,48,54.88
3558,F#4,603.0,2.0,51,54.88
3559,B-3,603.0,0.167,40,54.88
3560,B3,603.167,0.167,37,54.88
3561,B-3,603.333,0.167,40,54.88
3562,B3,603.5,0.167,36,54.88
3563,B-3,603.667,0.167,40,54.88
3564,B3,603.833,0.167,34,54.88
3565,F#3,604.0,1.0,48,54.88
3566,B-3,604.0,0.167,40,54.88
3567,B3,604.167,0.167,37,54.88
3568,B-3,604.333,0.167,40,54.88
3569,B3,604.5,0.167,36,54.88
3570,B-3,604.667,0.167,40,54.88
3571,B3,604.833,0.167,36,54.88
3572,F#5,605.0,1.0,55,54.88
3573,F#2,605.0,0.5,36,54.88
3574,G#2,605.5,0.25,39,54.88
3575,B-2,605.75,0.25,42,54.88
3576,D5,606.0,0.167,50,54.88
3577,B2,606.0,0.25,45,54.88
3578,E5,606.167,0.167,47,54.88
3579,C#3,606.25,0.25,45,54.88
3580,D5,606.333,0.167,52,54.88
3581,E5,606.5,0.167,50,54.88
3582,D3,606.5,0.25,44,54.88
3583,D5,606.667,0.167,55,54.88
3584,E3,606.75,0.25,42,54.88
3585,E5,606.833,0.167,52,54.88
3586,D5,607.0,0.167,56,54.88
3587,F#3,607.0,0.5,50,54.88
3588,E5,607.167,0.167,50,54.88
3589,D5,607.333,0.167,53,54.88
3590,E5,607.5,0.167,45,54.88
3591,D5,607.667,0.167,50,54.88
3592,E5,607.833,0.167,44,54.88
3593,D4,608.0,1.0,55,54.88
3594,B4,608.0,0.5,55,54.88
3595,B3,608.0,1.0,44,54.88
3596,F4,608.5,0.5,47,54.88
3597,C#4,609.0,1.0,51,54.88
3598,F#4,609.0,2.0,51,54.88
3599,B-3,609.0,0.167,40,54.88
3600,B3,609.167,0.167,37,54.88
3601,B-3,609.333,0.167,40,54.88
3602,B3,609.5,0.167,36,54.88
3603,B-3,609.667,0.167,40,54.88
3604,B3,609.833,0.167,34,54.88
3605,F#3,610.0,1.0,43,54.88
3606,B-3,610.0,0.167,40,54.88
3607,B3,610.167,0.167,37,54.88
3608,B-3,610.333,0.167,40,54.88
3609,B3,610.5,0.167,36,54.88
3610,B-3,610.667,0.167,40,54.88
3611,B3,610.833,0.167,36,54.88
3612,F#4,611.0,0.5,51,54.88
3613,F#2,611.0,1.0,44,54.88
3614,F#3,611.0,1.0,44,54.88
3615,G#4,611.5,0.25,51,54.88
3616,B-4,611.75,0.25,56,54.88
3617,B4,612.0,0.25,58,54.88
3618,D3,612.0,0.167,40,54.88
3619,E3,612.167,0.167,37,54.88
3620,C#5,612.25,0.25,60,54.88
3621,D3,612.333,0.167,40,54.88
3622,D5,612.5,0.25,62,54.88
3623,E3,612.5,0.167,36,54.88
3624,D3,612.667,0.167,40,54.88
3625,E5,612.75,0.25,64,54.88
3626,E3,612.833,0.167,34,54.88
3627,F#5,613.0,0.25,66,54.88
3628,D3,613.0,0.167,40,54.88
3629,E3,613.167,0.167,37,54.88
3630,G5,613.25,0.25,69,54.88
3631,D3,613.333,0.167,40,54.88
3632,E3,613.5,0.167,36,54.88
3633,D3,613.667,0.167,40,54.88
3634,E3,613.833,0.167,36,54.88
3635,G5,614.0,1.0,60,54.88
3636,B2,614.0,0.5,33,54.88
3637,C#2,614.5,0.5,31,54.88
3638,B-2,614.5,0.5,31,54.88
3639,F#5,615.0,0.167,50,54.88
3640,D2,615.0,0.25,32,54.88
3641,A2,615.0,1.0,32,54.88
3642,G5,615.167,0.167,47,54.88
3643,E2,615.25,0.25,33,54.88
3644,F#5,615.333,0.167,52,54.88
3645,G5,615.5,0.167,50,54.88
3646,F#2,615.5,0.25,35,54.88
3647,F#5,615.667,0.167,55,54.88
3648,G2,615.75,0.25,36,54.88
3649,G5,615.833,0.167,52,54.88
3650,F#5,616.0,0.167,56,54.88
3651,A2,616.0,0.25,38,54.88
3652,G5,616.167,0.167,50,54.88
3653,B2,616.25,0.25,37,54.88
3654,F#5,616.333,0.167,53,54.88
3655,G5,616.5,0.167,45,54.88
3656,F#5,616.667,0.167,50,54.88
3657,G5,616.833,0.167,44,54.88
3658,D5,617.0,1.0,60,54.88
3659,F#3,617.0,1.0,36,54.88
3660,B2,617.0,1.0,36,54.88
3661,B4,618.0,2.0,60,54.88
3662,D4,618.0,0.167,45,54.88
3663,G2,618.0,0.25,32,54.88
3664,E4,618.167,0.167,42,54.88
3665,A2,618.25,0.25,33,54.88
3666,D4,618.333,0.167,46,54.88
3667,E4,618.5,0.167,45,54.88
3668,B2,618.5,0.25,35,54.88
3669,D4,618.667,0.167,49,54.88
3670,C#3,618.75,0.25,36,54.88
3671,E4,618.833,0.167,46,54.88
3672,D4,619.0,0.167,50,54.88
3673,D3,619.0,0.25,38,54.88
3674,E4,619.167,0.167,45,54.88
3675,E3,619.25,0.25,37,54.88
3676,D4,619.333,0.167,47,54.88
3677,E4,619.5,0.167,40,54.88
3678,D4,619.667,0.167,45,54.88
3679,E4,619.833,0.167,39,54.88
3680,E3,620.0,1.0,38,54.88
3681,C#4,620.0,1.0,55,54.88
3682,G4,620.0,1.0,55,54.88
3683,E4,621.0,0.25,62,54.88
3684,C#3,621.0,0.25,45,54.88
3685,F#4,621.25,0.25,63,54.88
3686,D3,621.25,0.25,48,54.88
3687,G4,621.5,0.25,64,54.88
3688,E3,621.5,0.25,50,54.88
3689,A4,621.75,0.25,65,54.88
3690,F#3,621.75,0.25,53,54.88
3691,B4,622.0,0.25,67,54.88
3692,G3,622.0,0.25,55,54.88
3693,C#5,622.25,0.25,66,54.88
3694,A3,622.25,0.25,48,54.88
3695,C#4,622.5,0.25,55,54.88
3696,D4,622.75,0.25,57,54.88
3697,C#5,623.0,1.0,69,54.88
3698,E4,623.0,0.25,57,54.88
3699,A3,623.0,1.0,59,54.88
3700,F#4,623.25,0.25,55,54.88
3701,G4,623.5,0.25,57,54.88
3702,A4,623.75,0.25,60,54.88
3703,G4,624.0,0.25,62,54.88
3704,E3,624.0,0.25,45,54.88
3705,A4,624.25,0.25,63,54.88
3706,F#3,624.25,0.25,48,54.88
3707,B4,624.5,0.25,64,54.88
3708,G3,624.5,0.25,50,54.88
3709,C#5,624.75,0.25,65,54.88
3710,A3,624.75,0.25,53,54.88
3711,D5,625.0,0.25,67,54.88
3712,B3,625.0,0.25,55,54.88
3713,E5,625.25,0.25,66,54.88
3714,C#4,625.25,0.25,48,54.88
3715,E4,625.5,0.25,55,54.88
3716,F#4,625.75,0.25,57,54.88
3717,E5,626.0,1.0,69,54.88
3718,G4,626.0,0.25,57,54.88
3719,C#4,626.0,1.0,59,54.88
3720,A4,626.25,0.25,55,54.88
3721,B4,626.5,0.25,57,54.88
3722,C#5,626.75,0.25,60,54.88
3723,G5,627.0,0.25,74,54.88
3724,E4,627.0,0.25,58,54.88
3725,F#5,627.25,0.25,72,54.88
3726,D4,627.25,0.25,56,54.88
3727,E5,627.5,0.25,71,54.88
3728,C#4,627.5,0.25,53,54.88
3729,D5,627.75,0.25,69,54.88
3730,B3,627.75,0.25,51,54.88
3731,C#5,628.0,0.25,67,54.88
3732,A3,628.0,0.25,49,54.88
3733,B4,628.25,0.25,68,54.88
3734,G3,628.25,0.25,44,54.88
3735,G4,628.5,0.25,64,54.88
3736,F#4,628.75,0.25,61,54.88
3737,B4,629.0,1.0,75,54.88
3738,E4,629.0,0.25,62,54.88
3739,G3,629.0,1.0,64,54.88
3740,D4,629.25,0.25,60,54.88
3741,C#4,629.5,0.25,57,54.88
3742,B3,629.75,0.25,55,54.88
3743,E5,630.0,0.25,74,54.88
3744,C#4,630.0,0.25,58,54.88
3745,D5,630.25,0.25,72,54.88
3746,B3,630.25,0.25,56,54.88
3747,C#5,630.5,0.25,71,54.88
3748,A3,630.5,0.25,53,54.88
3749,B4,630.75,0.25,69,54.88
3750,G3,630.75,0.25,51,54.88
3751,A4,631.0,0.25,67,54.88
3752,F#3,631.0,0.25,49,54.88
3753,G4,631.25,0.25,72,54.88
3754,E3,631.25,0.25,44,54.88
3755,E4,631.5,0.25,64,54.88
3756,D4,631.75,0.25,61,54.88
3757,G4,632.0,1.0,75,54.88
3758,C#4,632.0,0.25,62,54.88
3759,E3,632.0,1.0,64,54.88
3760,B3,632.25,0.25,60,54.88
3761,A3,632.5,0.25,57,54.88
3762,G3,632.75,0.25,55,54.88
3763,D4,633.0,0.25,73,54.88
3764,F#4,633.0,1.0,73,54.88
3765,D2,633.0,0.25,57,54.88
3766,C#4,633.25,0.25,68,54.88
3767,E2,633.25,0.25,47,54.88
3768,B3,633.5,0.25,63,54.88
3769,F#2,633.5,0.25,50,54.88
3770,A3,633.75,0.25,62,54.88
3771,G2,633.75,0.25,53,54.88
3772,G3,634.0,0.25,62,54.88
3773,G#2,634.0,0.25,56,54.88
3774,F#3,634.25,0.25,61,54.88
3775,A2,634.25,0.25,50,54.88
3776,F#4,634.5,0.25,63,54.88
3777,G4,634.75,0.25,65,54.88
3778,A4,635.0,0.25,67,54.88
3779,F#3,635.0,1.0,65,54.88
3780,A2,635.0,1.0,65,54.88
3781,B4,635.25,0.25,69,54.88
3782,C#5,635.5,0.25,72,54.88
3783,D5,635.75,0.25,74,54.88
3784,F#4,636.0,0.25,73,54.88
3785,A4,636.0,1.0,73,54.88
3786,F#2,636.0,0.25,57,54.88
3787,E4,636.25,0.25,68,54.88
3788,G2,636.25,0.25,47,54.88
3789,D4,636.5,0.25,63,54.88
3790,A2,636.5,0.25,50,54.88
3791,C#4,636.75,0.25,62,54.88
3792,B2,636.75,0.25,53,54.88
3793,B3,637.0,0.25,62,54.88
3794,C#3,637.0,0.25,56,54.88
3795,A3,637.25,0.25,61,54.88
3796,D3,637.25,0.25,50,54.88
3797,A4,637.5,0.25,63,54.88
3798,B4,637.75,0.25,65,54.88
3799,C#5,638.0,0.25,67,54.88
3800,D3,638.0,1.0,65,54.88
3801,A3,638.0,1.0,65,54.88
3802,D5,638.25,0.25,69,54.88
3803,E5,638.5,0.25,72,54.88
3804,F#5,638.75,0.25,74,54.88
3805,G4,639.0,0.25,73,54.88
3806,B4,639.0,1.0,73,54.88
3807,G2,639.0,0.25,57,54.88
3808,F#4,639.25,0.25,68,54.88
3809,A2,639.25,0.25,47,54.88
3810,E4,639.5,0.25,63,54.88
3811,B2,639.5,0.25,50,54.88
3812,D4,639.75,0.25,62,54.88
3813,C#3,639.75,0.25,53,54.88
3814,C#4,640.0,0.25,62,54.88
3815,D3,640.0,0.25,56,54.88
3816,B3,640.25,0.25,61,54.88
3817,E3,640.25,0.25,50,54.88
3818,B4,640.5,0.25,63,54.88
3819,C#5,640.75,0.25,65,54.88
3820,G4,641.0,1.0,65,54.88
3821,D5,641.0,0.25,67,54.88
3822,E3,641.0,1.0,65,54.88
3823,E5,641.25,0.25,69,54.88
3824,F#5,641.5,0.25,72,54.88
3825,G5,641.75,0.25,74,54.88
3826,E5,642.0,0.25,80,54.88
3827,G5,642.0,1.0,80,54.88
3828,C#3,642.0,0.25,62,54.88
3829,D5,642.25,0.25,74,54.88
3830,D3,642.25,0.25,51,54.88
3831,C#5,642.5,0.25,69,54.88
3832,E3,642.5,0.25,55,54.88
3833,B4,642.75,0.25,68,54.88
3834,F#3,642.75,0.25,58,54.88
3835,A4,643.0,0.25,68,54.88
3836,G3,643.0,0.25,61,54.88
3837,G4,643.25,0.25,67,54.88
3838,A3,643.25,0.25,55,54.88
3839,G5,643.5,0.25,69,54.88
3840,A5,643.75,0.25,68,54.88
3841,G5,644.0,1.0,71,54.88
3842,B5,644.0,0.25,73,54.88
3843,A3,644.0,1.0,71,54.88
3844,C#6,644.25,0.25,75,54.88
3845,D6,644.5,0.25,79,54.88
3846,E6,644.75,0.25,81,54.88
3847,F#5,645.0,1.0,71,54.88
3848,F#6,645.0,0.25,85,54.88
3849,D3,645.0,0.25,67,54.88
3850,E6,645.25,0.25,83,54.88
3851,C#3,645.25,0.25,64,54.88
3852,D6,645.5,0.25,80,54.88
3853,B2,645.5,0.25,62,54.88
3854,C#6,645.75,0.25,78,54.88
3855,A2,645.75,0.25,60,54.88
3856,B5,646.0,0.25,76,54.88
3857,G2,646.0,0.25,57,54.88
3858,A5,646.25,0.25,73,54.88
3859,F#2,646.25,0.25,55,54.88
3860,F#3,646.5,0.25,55,54.88
3861,G3,646.75,0.25,58,54.88
3862,A5,647.0,1.0,71,54.88
3863,A3,647.0,0.25,62,54.88
3864,B3,647.25,0.25,65,54.88
3865,C#4,647.5,0.25,69,54.88
3866,D4,647.75,0.25,72,54.88
3867,D5,648.0,1.0,71,54.88
3868,D6,648.0,0.25,85,54.88
3869,B2,648.0,0.25,67,54.88
3870,C#6,648.25,0.25,83,54.88
3871,A2,648.25,0.25,64,54.88
3872,B5,648.5,0.25,80,54.88
3873,G2,648.5,0.25,62,54.88
3874,A5,648.75,0.25,78,54.88
3875,F#2,648.75,0.25,60,54.88
3876,G5,649.0,0.25,76,54.88
3877,E2,649.0,0.25,57,54.88
3878,F#5,649.25,0.25,73,54.88
3879,D2,649.25,0.25,55,54.88
3880,D3,649.5,0.25,55,54.88
3881,E3,649.75,0.25,58,54.88
3882,F#5,650.0,1.0,71,54.88
3883,F#3,650.0,0.25,62,54.88
3884,G3,650.25,0.25,65,54.88
3885,A3,650.5,0.25,69,54.88
3886,B3,650.75,0.246,72,54.88
3887,G3,651.0,0.25,66,54.88
3888,B3,651.0,0.25,66,54.88
3889,A3,651.25,0.25,64,54.88
3890,F#3,651.25,0.25,64,54.88
3891,E3,651.5,0.25,62,54.88
3892,G3,651.5,0.25,62,54.88
3893,D3,651.75,0.25,59,54.88
3894,F#3,651.75,0.25,59,54.88
3895,C#3,652.0,0.25,57,54.88
3896,E3,652.0,0.25,57,54.88
3897,B2,652.25,0.25,56,54.88
3898,D3,652.25,0.25,56,54.88
3899,D5,652.5,0.25,69,54.88
3900,E5,652.75,0.25,70,54.88
3901,F#5,653.0,0.25,72,54.88
3902,B2,653.0,1.0,56,54.88
3903,D3,653.0,1.0,56,54.88
3904,G5,653.25,0.25,73,54.88
3905,A5,653.5,0.25,74,54.88
3906,B-5,653.75,0.25,75,54.88
3907,B5,654.0,0.25,76,54.88
3908,G2,654.0,0.25,65,54.88
3909,A5,654.25,0.25,71,54.88
3910,A2,654.25,0.25,59,54.88
3911,G5,654.5,0.25,71,54.88
3912,B2,654.5,0.25,59,54.88
3913,F#5,654.75,0.25,70,54.88
3914,C3,654.75,0.25,58,54.88
3915,E5,655.0,0.25,69,54.88
3916,D3,655.0,0.25,57,54.88
3917,D5,655.25,0.25,68,54.88
3918,E3,655.25,0.25,56,54.88
3919,G5,655.5,0.25,77,54.88
3920,B2,655.5,0.25,64,54.88
3921,F#5,655.75,0.25,71,54.88
3922,C3,655.75,0.25,59,54.88
3923,E5,656.0,0.25,70,54.88
3924,D3,656.0,0.25,58,54.88
3925,D5,656.25,0.25,69,54.88
3926,E3,656.25,0.25,57,54.88
3927,C5,656.5,0.25,68,54.88
3928,F#3,656.5,0.25,55,54.88
3929,B4,656.75,0.25,66,54.88
3930,G3,656.75,0.25,54,54.88
3931,E5,657.0,0.25,78,54.88
3932,A2,657.0,0.25,64,54.88
3933,D5,657.25,0.25,69,54.88
3934,B2,657.25,0.25,58,54.88
3935,C#5,657.5,0.25,67,54.88
3936,C#3,657.5,0.25,57,54.88
3937,B4,657.75,0.25,66,54.88
3938,D3,657.75,0.25,55,54.88
3939,A4,658.0,0.25,67,54.88
3940,E3,658.0,0.25,54,54.88
3941,G#4,658.25,0.25,63,54.88
3942,F3,658.25,0.25,58,54.88
3943,G4,658.5,2.5,63,54.88
3944,E4,658.5,0.25,63,54.88
3945,A2,658.5,0.25,54,54.88
3946,D4,658.75,0.25,59,54.88
3947,B2,658.75,0.25,51,54.88
3948,C#4,659.0,0.25,63,54.88
3949,C#3,659.0,0.25,54,54.88
3950,B3,659.25,0.25,59,54.88
3951,D3,659.25,0.25,52,54.88
3952,A3,659.5,0.25,58,54.88
3953,C#3,659.5,0.25,52,54.88
3954,G#3,659.75,0.25,57,54.88
3955,B2,659.75,0.25,52,54.88
3956,E4,660.0,0.25,62,54.88
3957,B-2,660.0,1.25,60,54.88
3958,D4,660.25,0.25,57,54.88
3959,C#4,660.5,0.25,57,54.88
3960,D4,660.75,0.25,57,54.88
3961,F#4,661.0,2.0,70,54.88
3962,E4,661.0,1.25,70,54.88
3963,G#2,661.25,0.25,50,54.88
3964,F#2,661.5,0.25,50,54.88
3965,G#2,661.75,0.25,50,54.88
3966,B-2,662.0,1.0,60,54.88
3967,C#4,662.25,0.25,58,54.88
3968,D4,662.5,0.25,58,54.88
3969,E4,662.75,0.25,58,54.88
3970,D4,663.0,2.0,65,54.88
3971,F#4,663.0,1.0,65,54.88
3972,B2,663.0,0.25,50,54.88
3973,C#3,663.25,0.25,46,54.88
3974,B2,663.5,0.25,46,54.88
3975,A2,663.75,0.25,46,54.88
3976,B4,664.0,2.5,68,54.88
3977,G#2,664.0,0.25,50,54.88
3978,D3,664.25,0.25,48,54.88
3979,B2,664.5,0.25,48,54.88
3980,F3,664.75,0.25,48,54.88
3981,G#3,665.0,0.25,56,54.88
3982,D4,665.25,0.25,52,54.88
3983,B3,665.5,0.25,57,54.88
3984,F4,665.75,0.25,52,54.88
3985,F#4,666.0,1.0,57,54.88
3986,A2,666.0,0.25,57,54.88
3987,F#3,666.25,0.25,52,54.88
3988,D3,666.5,0.25,57,54.88
3989,A3,666.75,0.25,52,54.88
3990,D4,667.0,0.25,57,54.88
3991,F#3,667.0,0.25,57,54.88
3992,F#4,667.25,0.25,52,54.88
3993,D4,667.25,0.25,49,54.88
3994,G#4,667.5,0.5,57,54.88
3995,F4,667.5,0.25,48,54.88
3996,B2,667.5,0.5,57,54.88
3997,E4,667.75,0.25,52,54.88
3998,G4,668.0,0.5,63,54.88
3999,B-3,668.0,0.25,57,54.88
4000,C#3,668.0,0.5,59,54.88
4001,E4,668.25,0.25,50,54.88
4002,F#4,668.5,1.0,58,54.88
4003,D4,668.5,0.25,48,54.88
4004,D3,668.5,0.5,65,54.88
4005,A3,668.75,0.25,51,54.88
4006,B-3,669.0,1.0,68,54.88
4007,G1,669.0,0.5,80,54.88
4008,E4,669.5,0.5,57,54.88
4009,B-3,670.0,1.5,65,54.88
4010,C#3,670.0,0.167,71,54.88
4011,D3,670.167,0.167,63,54.88
4012,C#3,670.333,0.167,71,54.88
4013,G3,670.5,0.5,65,54.88
4014,D3,670.5,0.167,62,54.88
4015,C#3,670.667,0.167,71,54.88
4016,D3,670.833,0.167,63,54.88
4017,E3,671.0,1.0,65,54.88
4018,C#3,671.0,0.167,71,54.88
4019,D3,671.167,0.167,65,54.88
4020,C#3,671.333,0.167,71,54.88
4021,B-3,671.5,0.75,65,54.88
4022,D3,671.5,0.125,65,54.88
4023,C#3,671.625,0.125,65,54.88
4024,B2,671.75,0.125,65,54.88
4025,C#3,671.875,0.125,65,54.88
4026,F#3,672.0,0.75,65,54.88
4027,D3,672.0,1.0,73,54.88
4028,G#3,672.25,0.25,57,54.88
4029,A3,672.5,0.75,65,54.88
4030,F3,672.75,0.25,60,54.88
4031,F#3,673.0,0.75,65,54.88
4032,C#4,673.25,0.25,58,54.88
4033,D4,673.5,0.75,65,54.88
4034,D3,673.5,0.3,69,54.88
4035,G3,673.75,0.25,60,54.88
4036,C#3,673.75,0.3,68,54.88
4037,A3,674.0,0.75,65,54.88
4038,B2,674.0,0.3,66,54.88
4039,C#4,674.25,0.25,58,54.88
4040,A2,674.25,0.3,65,54.88
4041,D4,674.5,0.75,65,54.88
4042,G2,674.5,0.3,64,54.88
4043,B-3,674.75,0.25,60,54.88
4044,F#2,674.75,0.25,62,54.88
4045,B3,675.0,0.75,65,54.88
4046,B2,675.0,1.0,73,54.88
4047,F3,675.25,0.25,58,54.88
4048,F#3,675.5,0.75,65,54.88
4049,C#3,675.75,0.25,60,54.88
4050,D3,676.0,0.75,65,54.88
4051,F#3,676.25,0.25,59,54.88
4052,G3,676.5,0.75,65,54.88
4053,B2,676.5,0.3,69,54.88
4054,E-3,676.75,0.25,60,54.88
4055,A2,676.75,0.3,68,54.88
4056,E3,677.0,0.75,65,54.88
4057,G2,677.0,0.3,66,54.88
4058,A3,677.25,0.25,57,54.88
4059,F#2,677.25,0.3,65,54.88
4060,B3,677.5,0.75,65,54.88
4061,E2,677.5,0.3,64,54.88
4062,F#3,677.75,0.25,60,54.88
4063,D2,677.75,0.25,62,54.88
4064,G3,678.0,0.75,65,54.88
4065,G2,678.0,1.0,73,54.88
4066,B-3,678.25,0.25,59,54.88
4067,B3,678.5,0.75,65,54.88
4068,F#3,678.75,0.25,60,54.88
4069,G3,679.0,0.75,65,54.88
4070,E-4,679.25,0.25,56,54.88
4071,E4,679.5,0.75,65,54.88
4072,G2,679.5,0.3,66,54.88
4073,A3,679.75,0.25,60,54.88
4074,F#2,679.75,0.3,60,54.88
4075,B3,680.0,0.75,65,54.88
4076,E2,680.0,0.3,66,54.88
4077,F#4,680.25,0.25,59,54.88
4078,E-2,680.25,0.3,57,54.88
4079,G4,680.5,1.0,65,54.88
4080,E2,680.5,0.3,57,54.88
4081,B-3,680.75,0.25,60,54.88
4082,D2,680.75,0.3,57,54.88
4083,A3,681.0,1.0,60,54.88
4084,C#2,681.0,0.3,66,54.88
4085,D2,681.25,0.3,58,54.88
4086,G#4,681.5,0.5,72,54.88
4087,C#2,681.5,0.3,58,54.88
4088,B1,681.75,0.3,58,54.88
4089,A4,682.0,1.5,78,54.88
4090,A1,682.0,0.3,66,54.88
4091,B1,682.25,0.3,61,54.88
4092,E4,682.5,0.5,67,54.88
4093,C#2,682.5,0.3,61,54.88
4094,D2,682.75,0.3,61,54.88
4095,C#4,683.0,0.5,73,54.88
4096,E-2,683.0,0.3,66,54.88
4097,E2,683.25,0.3,58,54.88
4098,A3,683.5,1.0,65,54.88
4099,G4,683.5,0.5,65,54.88
4100,F#2,683.5,0.3,58,54.88
4101,E2,683.75,0.3,58,54.88
4102,F#4,684.0,1.0,73,54.88
4103,D2,684.0,0.3,66,54.88
4104,E2,684.25,0.3,58,54.88
4105,B-3,684.5,0.5,65,54.88
4106,D2,684.5,0.3,58,54.88
4107,C#2,684.75,0.3,58,54.88
4108,B3,685.0,1.5,65,54.88
4109,B1,685.0,0.3,66,54.88
4110,C#2,685.25,0.3,61,54.88
4111,F#4,685.5,0.5,66,54.88
4112,D2,685.5,0.3,61,54.88
4113,E2,685.75,0.3,61,54.88
4114,E-4,686.0,0.5,71,54.88
4115,F2,686.0,0.3,66,54.88
4116,F#2,686.25,0.3,58,54.88
4117,A3,686.5,0.5,65,54.88
4118,B3,686.5,1.0,67,54.88
4119,G2,686.5,0.3,58,54.88
4120,F#2,686.75,0.3,58,54.88
4121,G3,687.0,0.5,65,54.88
4122,E2,687.0,0.3,66,54.88
4123,F2,687.25,0.3,58,54.88
4124,B4,687.5,0.5,82,54.88
4125,E2,687.5,0.3,58,54.88
4126,D2,687.75,0.3,58,54.88
4127,C5,688.0,1.5,86,54.88
4128,C2,688.0,0.3,66,54.88
4129,D2,688.25,0.3,61,54.88
4130,G4,688.5,0.5,69,54.88
4131,E2,688.5,0.3,61,54.88
4132,F2,688.75,0.3,61,54.88
4133,E4,689.0,0.5,75,54.88
4134,F#2,689.0,0.3,66,54.88
4135,G2,689.25,0.3,58,54.88
4136,C4,689.5,1.0,65,54.88
4137,B4,689.5,0.5,70,54.88
4138,A2,689.5,0.3,58,54.88
4139,G2,689.75,0.3,58,54.88
4140,A4,690.0,0.5,76,54.88
4141,F#2,690.0,0.3,66,54.88
4142,G2,690.25,0.3,58,54.88
4143,C#4,690.5,0.5,75,54.88
4144,F#2,690.5,0.3,58,54.88
4145,E2,690.75,0.3,58,54.88
4146,D4,691.0,1.5,75,54.88
4147,D2,691.0,0.3,66,54.88
4148,E2,691.25,0.3,61,54.88
4149,A4,691.5,0.5,69,54.88
4150,F#2,691.5,0.3,61,54.88
4151,G2,691.75,0.3,61,54.88
4152,F#4,692.0,0.5,74,54.88
4153,G#2,692.0,0.3,66,54.88
4154,A2,692.25,0.3,58,54.88
4155,C4,692.5,0.5,69,54.88
4156,D4,692.5,1.0,69,54.88
4157,B2,692.5,0.3,58,54.88
4158,A2,692.75,0.25,58,54.88
4159,B3,693.0,0.25,63,54.88
4160,G2,693.0,0.5,58,54.88
4161,C4,693.25,0.3,62,54.88
4162,D5,693.5,0.3,72,54.88
4163,B3,693.5,0.3,54,54.88
4164,C5,693.75,0.3,69,54.88
4165,A3,693.75,0.3,54,54.88
4166,B4,694.0,1.5,72,54.88
4167,G3,694.0,0.5,64,54.88
4168,A3,694.25,0.3,57,54.88
4169,F3,694.5,0.5,57,54.88
4170,B3,694.5,0.3,57,54.88
4171,C4,694.75,0.3,57,54.88
4172,C#4,695.0,0.3,64,54.88
4173,E3,695.0,0.5,64,54.88
4174,D4,695.25,0.3,57,54.88
4175,E5,695.5,1.0,69,54.88
4176,G#3,695.5,0.3,57,54.88
4177,D4,695.75,0.25,57,54.88
4178,G#3,696.0,1.0,53,54.88
4179,C4,696.0,0.25,49,54.88
4180,D4,696.25,0.25,44,54.88
4181,E5,696.5,0.25,69,54.88
4182,C4,696.5,0.25,49,54.88
4183,D5,696.75,0.25,65,54.88
4184,B3,696.75,0.25,44,54.88
4185,C5,697.0,1.0,74,54.88
4186,A3,697.0,0.5,48,54.88
4187,B3,697.25,0.25,44,54.88
4188,C4,697.5,0.25,49,54.88
4189,G3,697.5,0.5,48,54.88
4190,D4,697.75,0.25,44,54.88
4191,C#5,698.0,0.5,69,54.88
4192,E-4,698.0,0.25,49,54.88
4193,F#3,698.0,0.5,55,54.88
4194,E4,698.25,0.25,45,54.88
4195,F#5,698.5,1.0,75,54.88
4196,B-3,698.5,0.25,49,54.88
4197,E4,698.75,0.25,46,54.88
4198,D4,699.0,0.25,49,54.88
4199,B-3,699.0,1.0,51,54.88
4200,E4,699.25,0.25,45,54.88
4201,F#5,699.5,0.25,70,54.88
4202,D4,699.5,0.25,49,54.88
4203,E5,699.75,0.25,65,54.88
4204,C#4,699.75,0.25,43,54.88
4205,D5,700.0,1.5,76,54.88
4206,B3,700.0,0.5,48,54.88
4207,C#4,700.25,0.25,42,54.88
4208,A3,700.5,0.5,48,54.88
4209,D4,700.5,0.25,49,54.88
4210,E4,700.75,0.25,45,54.88
4211,F4,701.0,0.25,49,54.88
4212,G3,701.0,0.5,55,54.88
4213,F#4,701.25,0.25,45,54.88
4214,B4,701.5,0.25,69,54.88
4215,G4,701.5,0.25,49,54.88
4216,G5,701.75,0.75,75,54.88
4217,F4,701.75,0.25,45,54.88
4218,E4,702.0,0.25,49,54.88
4219,B3,702.0,1.0,53,54.88
4220,F4,702.25,0.25,45,54.88
4221,G5,702.5,0.25,69,54.88
4222,E4,702.5,0.25,49,54.88
4223,F5,702.75,0.25,69,54.88
4224,D4,702.75,0.25,45,54.88
4225,E5,703.0,0.5,76,54.88
4226,C4,703.0,0.5,48,54.88
4227,D4,703.25,0.25,49,54.88
4228,G5,703.5,0.5,78,54.88
4229,E4,703.5,0.25,49,54.88
4230,B3,703.5,0.5,50,54.88
4231,D4,703.75,0.25,47,54.88
4232,F#5,704.0,0.5,81,54.88
4233,A3,704.0,0.5,51,54.88
4234,C4,704.0,0.25,49,54.88
4235,D4,704.25,0.25,47,54.88
4236,G5,704.5,0.5,84,54.88
4237,C4,704.5,0.25,49,54.88
4238,G3,704.5,0.5,52,54.88
4239,B3,704.75,0.25,48,54.88
4240,C6,705.0,0.5,86,54.88
4241,A3,705.0,0.25,49,54.88
4242,F#3,705.0,0.5,54,54.88
4243,B3,705.25,0.25,49,54.88
4244,E3,705.5,0.5,56,54.88
4245,A3,705.5,0.25,49,54.88
4246,G3,705.75,0.25,50,54.88
4247,A4,706.0,0.167,69,54.88
4248,F#3,706.0,1.0,57,54.88
4249,E-3,706.0,0.25,49,54.88
4250,B4,706.167,0.167,63,54.88
4251,D3,706.25,0.25,49,54.88
4252,A4,706.333,0.167,69,54.88
4253,B4,706.5,0.167,64,54.88
4254,C3,706.5,0.25,54,54.88
4255,A4,706.667,0.167,69,54.88
4256,D3,706.75,0.25,49,54.88
4257,B4,706.833,0.167,63,54.88
4258,A4,707.0,0.167,69,54.88
4259,F#4,707.0,1.0,69,54.88
4260,E-3,707.0,0.25,53,54.88
4261,B4,707.167,0.167,64,54.88
4262,D3,707.25,0.25,49,54.88
4263,A4,707.333,0.167,69,54.88
4264,B4,707.5,0.167,64,54.88
4265,E-3,707.5,0.25,53,54.88
4266,A4,707.667,0.167,69,54.88
4267,C3,707.75,0.25,49,54.88
4268,B4,707.833,0.167,63,54.88
4269,G4,708.0,1.0,69,54.88
4270,B3,708.5,0.25,65,54.88
4271,B2,709.0,1.5,73,54.88
4272,G4,709.5,0.25,69,54.88
4273,A3,709.5,0.5,57,54.88
4274,A4,709.75,0.25,62,54.88
4275,B4,710.0,0.25,69,54.88
4276,G3,710.0,1.0,63,54.88
4277,C5,710.25,0.25,65,54.88
4278,D5,710.5,0.25,65,54.88
4279,E5,710.75,0.25,65,54.88
4280,B4,711.0,1.0,75,54.88
4281,G3,711.5,0.25,64,54.88
4282,G2,712.0,1.5,69,54.88
4283,B4,712.5,0.25,69,54.88
4284,F#3,712.5,0.5,53,54.88
4285,C5,712.75,0.25,63,54.88
4286,D5,713.0,0.25,69,54.88
4287,E3,713.0,0.5,61,54.88
4288,E5,713.25,0.25,69,54.88
4289,F#5,713.5,0.25,63,54.88
4290,D3,713.5,0.5,53,54.88
4291,B2,713.5,0.5,53,54.88
4292,G5,713.75,0.25,63,54.88
4293,D5,714.0,1.0,75,54.88
4294,A2,714.0,0.5,53,54.88
4295,C3,714.0,0.5,53,54.88
4296,C4,714.5,0.5,65,54.88
4297,C3,715.0,0.5,53,54.88
4298,E3,715.0,0.5,53,54.88
4299,D5,715.5,0.25,69,54.88
4300,D3,715.5,0.5,50,54.88
4301,B2,715.5,0.5,50,54.88
4302,E5,715.75,0.25,63,54.88
4303,F#5,716.0,0.25,69,54.88
4304,A2,716.0,0.5,53,54.88
4305,C3,716.0,0.5,53,54.88
4306,E5,716.25,0.25,65,54.88
4307,F#5,716.5,0.25,65,54.88
4308,G2,716.5,0.5,50,54.88
4309,B2,716.5,0.5,50,54.88
4310,G5,716.75,0.25,65,54.88
4311,A5,717.0,0.25,69,54.88
4312,F#2,717.0,0.5,59,54.88
4313,A2,717.0,1.0,59,54.88
4314,G#5,717.25,0.25,65,54.88
4315,A5,717.5,0.25,69,54.88
4316,E-3,717.5,0.5,53,54.88
4317,B5,717.75,0.25,69,54.88
4318,C6,718.0,0.25,79,54.88
4319,D3,718.0,3.5,63,54.88
4320,B5,718.25,0.25,71,54.88
4321,A5,718.5,0.25,70,54.88
4322,E3,718.5,0.5,53,54.88
4323,G5,718.75,0.25,67,54.88
4324,F#5,719.0,0.25,70,54.88
4325,F#3,719.0,0.5,53,54.88
4326,E-5,719.25,0.25,67,54.88
4327,D5,719.5,0.25,67,54.88
4328,G3,719.5,0.5,53,54.88
4329,E5,719.75,0.25,67,54.88
4330,F#5,720.0,0.25,75,54.88
4331,A3,720.0,0.5,53,54.88
4332,E5,720.25,0.25,73,54.88
4333,D5,720.5,0.25,71,54.88
4334,B3,720.5,0.5,56,54.88
4335,C5,720.75,0.25,69,54.88
4336,B4,721.0,0.25,69,54.88
4337,C4,721.0,0.5,60,54.88
4338,A4,721.25,0.25,64,54.88
4339,G4,721.5,0.25,64,54.88
4340,D3,721.5,0.5,53,54.88
4341,B3,721.5,0.5,53,54.88
4342,A4,721.75,0.25,64,54.88
4343,B4,722.0,0.25,64,54.88
4344,A3,722.0,0.5,53,54.88
4345,C3,722.0,0.5,53,54.88
4346,C5,722.25,0.25,66,54.88
4347,D5,722.5,0.25,68,54.88
4348,G3,722.5,1.0,49,54.88
4349,B2,722.5,0.5,49,54.88
4350,E-5,722.75,0.25,70,54.88
4351,E5,723.0,0.25,72,54.88
4352,C3,723.0,1.0,53,54.88
4353,G5,723.25,0.25,66,54.88
4354,F#5,723.5,0.25,69,54.88
4355,C4,723.5,1.0,53,54.88
4356,E5,723.75,0.25,66,54.88
4357,D5,724.0,0.25,69,54.88
4358,D3,724.0,1.0,58,54.88
4359,G5,724.25,0.25,64,54.88
4360,F#5,724.5,0.25,67,54.88
4361,B3,724.5,0.5,53,54.88
4362,G5,724.75,0.25,63,54.88
4363,C#5,725.0,1.0,69,54.88
4364,B-3,725.0,0.25,64,54.88
4365,E3,725.0,1.0,64,54.88
4366,G4,725.25,0.25,55,54.88
4367,F#4,725.5,0.25,56,54.88
4368,G4,725.75,0.25,56,54.88
4369,A4,726.0,0.5,63,54.88
4370,C5,726.0,2.0,75,54.88
4371,F#3,726.0,0.3,61,54.88
4372,A3,726.25,0.3,56,54.88
4373,E-4,726.5,0.5,68,54.88
4374,G3,726.5,0.3,56,54.88
4375,F#3,726.75,0.3,56,54.88
4376,F#4,727.0,0.5,68,54.88
4377,E3,727.0,0.3,60,54.88
4378,D3,727.25,0.3,55,54.88
4379,A4,727.5,1.0,68,54.88
4380,E3,727.5,0.3,55,54.88
4381,F#3,727.75,0.3,55,54.88
4382,B4,728.0,1.0,75,54.88
4383,G3,728.0,0.3,61,54.88
4384,D3,728.25,0.3,55,54.88
4385,G4,728.5,0.5,69,54.88
4386,G3,728.5,0.3,55,54.88
4387,F#3,728.75,0.3,55,54.88
4388,C#5,729.0,0.5,73,54.88
4389,E3,729.0,0.3,60,54.88
4390,F#3,729.25,0.3,53,54.88
4391,D5,729.5,0.5,76,54.88
4392,E3,729.5,0.3,53,54.88
4393,D3,729.75,0.3,53,54.88
4394,C#3,730.0,0.3,60,54.88
4395,G4,730.0,0.5,72,54.88
4396,E5,730.0,0.5,72,54.88
4397,D3,730.25,0.3,54,54.88
4398,F#5,730.5,0.5,81,54.88
4399,C#3,730.5,0.3,55,54.88
4400,B2,730.75,0.25,55,54.88
4401,G5,731.0,1.5,90,54.88
4402,D3,731.0,0.167,60,54.88
4403,A2,731.0,0.5,60,54.88
4404,E3,731.167,0.167,55,54.88
4405,D3,731.333,0.167,60,54.88
4406,E3,731.5,0.167,55,54.88
4407,G#2,731.5,0.5,55,54.88
4408,D3,731.667,0.167,60,54.88
4409,E3,731.833,0.167,54,54.88
4410,D3,732.0,0.167,60,54.88
4411,A2,732.0,2.0,63,54.88
4412,E3,732.167,0.167,56,54.88
4413,D3,732.333,0.167,60,54.88
4414,F#5,732.5,0.5,80,54.88
4415,E3,732.5,0.125,60,54.88
4416,D3,732.625,0.125,55,54.88
4417,C#3,732.75,0.125,55,54.88
4418,D3,732.875,0.125,55,54.88
4419,E5,733.0,0.5,85,54.88
4420,C#3,733.0,1.0,60,54.88
4421,G5,733.5,0.25,80,54.88
4422,F#5,733.75,0.25,69,54.88
4423,F#4,734.0,1.0,79,54.88
4424,D3,734.5,0.25,61,54.88
4425,B2,734.5,0.5,61,54.88
4426,E3,734.75,0.25,56,54.88
4427,A2,735.0,1.0,60,54.88
4428,F#3,735.0,0.25,60,54.88
4429,G3,735.25,0.25,62,54.88
4430,A3,735.5,0.25,64,54.88
4431,B3,735.75,0.25,66,54.88
4432,F#3,736.0,1.0,66,54.88
4433,E5,736.5,0.25,80,54.88
4434,D5,736.75,0.25,69,54.88
4435,D4,737.0,1.0,79,54.88
4436,G2,737.5,0.5,61,54.88
4437,F#3,737.5,0.25,61,54.88
4438,G3,737.75,0.25,56,54.88
4439,F#3,738.0,1.0,60,54.88
4440,A3,738.0,0.25,60,54.88
4441,B3,738.25,0.25,62,54.88
4442,C#4,738.5,0.25,64,54.88
4443,D4,738.75,0.25,66,54.88
4444,A3,739.0,1.0,66,54.88
4445,B5,739.5,0.25,80,54.88
4446,A5,739.75,0.25,69,54.88
4447,F#5,740.0,0.25,70,54.88
4448,D5,740.25,0.25,64,54.88
4449,C#5,740.5,0.25,64,54.88
4450,D3,740.5,0.5,53,54.88
4451,A3,740.5,0.25,53,54.88
4452,B4,740.75,0.25,64,54.88
4453,B3,740.75,0.25,47,54.88
4454,B-4,741.0,1.0,73,54.88
4455,C#4,741.0,0.25,62,54.88
4456,E3,741.0,0.25,53,54.88
4457,C4,741.25,0.25,62,54.88
4458,E-3,741.25,0.25,47,54.88
4459,C#4,741.5,0.25,62,54.88
4460,E3,741.5,0.25,47,54.88
4461,E-4,741.75,0.25,62,54.88
4462,F#3,741.75,0.25,47,54.88
4463,A4,742.0,1.5,69,54.88
4464,E4,742.0,0.25,58,54.88
4465,G3,742.0,0.25,53,54.88
4466,E-4,742.25,0.25,60,54.88
4467,F#3,742.25,0.25,47,54.88
4468,E4,742.5,0.25,60,54.88
4469,G3,742.5,0.25,47,54.88
4470,F#4,742.75,0.25,60,54.88
4471,A3,742.75,0.25,47,54.88
4472,G4,743.0,0.25,68,54.88
4473,B3,743.0,0.25,53,54.88
4474,F#4,743.25,0.25,61,54.88
4475,A3,743.25,0.25,47,54.88
4476,G3,743.5,0.25,47,54.88
4477,B4,743.5,0.25,64,54.88
4478,E4,743.5,0.25,64,54.88
4479,D4,743.75,0.25,62,54.88
4480,G#3,743.75,0.25,47,54.88
4481,C#5,744.0,0.25,74,54.88
4482,A2,744.0,0.5,47,54.88
4483,A3,744.0,0.25,47,54.88
4484,C5,744.25,0.25,63,54.88
4485,G#3,744.25,0.25,42,54.88
4486,C#5,744.5,0.25,63,54.88
4487,A3,744.5,0.25,46,54.88
4488,D5,744.75,0.25,63,54.88
4489,B3,744.75,0.25,49,54.88
4490,E5,745.0,0.25,68,54.88
4491,C#4,745.0,0.5,53,54.88
4492,E-5,745.25,0.25,67,54.88
4493,E5,745.5,0.25,68,54.88
4494,C#3,745.5,0.25,47,54.88
4495,A2,745.5,1.0,47,54.88
4496,F#5,745.75,0.25,70,54.88
4497,D3,745.75,0.25,41,54.88
4498,G5,746.0,0.25,71,54.88
4499,E3,746.0,1.5,52,54.88
4500,F#5,746.25,0.25,68,54.88
4501,E5,746.5,0.25,64,54.88
4502,B2,746.5,0.5,40,54.88
4503,D5,746.75,0.25,64,54.88
4504,C#5,747.0,0.25,68,54.88
4505,C#3,747.0,0.5,53,54.88
4506,B-4,747.25,0.25,60,54.88
4507,A4,747.5,0.25,60,54.88
4508,F#3,747.5,0.25,47,54.88
4509,D3,747.5,1.5,47,54.88
4510,B4,747.75,0.25,60,54.88
4511,G3,747.75,0.25,42,54.88
4512,C5,748.0,0.25,68,54.88
4513,A3,748.0,0.25,47,54.88
4514,B4,748.25,0.25,62,54.88
4515,G3,748.25,0.25,41,54.88
4516,A4,748.5,0.25,62,54.88
4517,F#3,748.5,0.25,41,54.88
4518,G4,748.75,0.25,62,54.88
4519,E3,748.75,0.25,41,54.88
4520,F#4,749.0,0.25,68,54.88
4521,D3,749.0,0.25,47,54.88
4522,G4,749.25,0.25,64,54.88
4523,E3,749.25,0.25,43,54.88
4524,A4,749.5,0.25,64,54.88
4525,F#3,749.5,0.25,43,54.88
4526,B4,749.75,0.25,64,54.88
4527,G3,749.75,0.25,43,54.88
4528,C5,750.0,0.167,77,54.88
4529,A3,750.0,0.25,43,54.88
4530,D5,750.167,0.167,69,54.88
4531,B3,750.25,0.25,39,54.88
4532,C5,750.333,0.167,74,54.88
4533,D5,750.5,0.167,68,54.88
4534,C4,750.5,0.25,43,54.88
4535,C5,750.667,0.167,71,54.88
4536,D4,750.75,0.25,39,54.88
4537,D5,750.833,0.167,66,54.88
4538,C5,751.0,0.167,70,54.88
4539,E4,751.0,0.25,49,54.88
4540,D5,751.167,0.167,62,54.88
4541,D4,751.25,0.25,43,54.88
4542,C5,751.333,0.167,69,54.88
4543,D5,751.5,0.167,63,54.88
4544,E4,751.5,0.25,57,54.88
4545,D3,751.5,0.5,43,54.88
4546,C5,751.667,0.167,68,54.88
4547,F#4,751.75,0.25,43,54.88
4548,D5,751.833,0.167,67,54.88
4549,G3,752.0,0.25,46,54.88
4550,G4,752.0,1.0,64,54.88
4551,B4,752.0,1.0,64,54.88
4552,B3,752.25,0.25,40,54.88
4553,G3,752.5,0.25,46,54.88
4554,E3,752.75,0.25,43,54.88
4555,A4,753.0,0.167,77,54.88
4556,F#3,753.0,0.25,43,54.88
4557,B4,753.167,0.167,69,54.88
4558,E3,753.25,0.25,39,54.88
4559,A4,753.333,0.167,74,54.88
4560,B4,753.5,0.167,68,54.88
4561,F#3,753.5,0.25,43,54.88
4562,A4,753.667,0.167,71,54.88
4563,G3,753.75,0.25,39,54.88
4564,B4,753.833,0.167,66,54.88
4565,A4,754.0,0.167,70,54.88
4566,A3,754.0,0.25,49,54.88
4567,B4,754.167,0.167,62,54.88
4568,B3,754.25,0.25,43,54.88
4569,A4,754.333,0.167,69,54.88
4570,B4,754.5,0.167,63,54.88
4571,C#4,754.5,0.25,57,54.88
4572,B2,754.5,0.5,43,54.88
4573,A4,754.667,0.167,68,54.88
4574,E-4,754.75,0.25,43,54.88
4575,B4,754.833,0.167,67,54.88
4576,G#4,755.0,0.25,46,54.88
4577,E4,755.0,0.75,64,54.88
4578,E3,755.0,1.0,52,54.88
4579,B4,755.25,0.25,40,54.88
4580,G#4,755.5,0.25,46,54.88
4581,G4,756.0,0.167,73,54.88
4582,E3,756.0,0.25,43,54.88
4583,A4,756.167,0.167,66,54.88
4584,D3,756.25,0.25,39,54.88
4585,G4,756.333,0.167,70,54.88
4586,A4,756.5,0.167,65,54.88
4587,E3,756.5,0.25,43,54.88
4588,G4,756.667,0.167,68,54.88
4589,F#3,756.75,0.25,39,54.88
4590,A4,756.833,0.167,63,54.88
4591,G4,757.0,0.167,67,54.88
4592,G3,757.0,0.25,49,54.88
4593,A4,757.167,0.167,59,54.88
4594,A3,757.25,0.25,43,54.88
4595,G4,757.333,0.167,66,54.88
4596,A4,757.5,0.167,60,54.88
4597,B3,757.5,0.25,57,54.88
4598,A2,757.5,0.5,43,54.88
4599,G4,757.667,0.167,65,54.88
4600,C#4,757.75,0.25,43,54.88
4601,A4,757.833,0.167,64,54.88
4602,F#4,758.0,0.25,52,54.88
4603,D4,758.0,0.75,64,54.88
4604,D3,758.0,1.0,52,54.88
4605,A4,758.25,0.25,46,54.88
4606,F#4,758.5,0.25,52,54.88
4607,F#4,759.0,0.25,50,54.88
4608,A3,759.0,0.167,66,54.88
4609,B3,759.167,0.167,59,54.88
4610,E4,759.25,0.25,46,54.88
4611,A3,759.333,0.167,63,54.88
4612,F#4,759.5,0.25,48,54.88
4613,B3,759.5,0.167,58,54.88
4614,A3,759.667,0.167,60,54.88
4615,G4,759.75,0.25,40,54.88
4616,B3,759.833,0.167,57,54.88
4617,A4,760.0,0.25,48,54.88
4618,A3,760.0,0.167,59,54.88
4619,B3,760.167,0.167,53,54.88
4620,B4,760.25,0.25,50,54.88
4621,A3,760.333,0.167,59,54.88
4622,B5,760.5,0.5,73,54.88
4623,C#5,760.5,0.25,60,54.88
4624,B3,760.5,0.167,54,54.88
4625,A3,760.667,0.167,58,54.88
4626,E-5,760.75,0.25,55,54.88
4627,B3,760.833,0.167,57,54.88
4628,E5,761.0,0.5,83,54.88
4629,G#3,761.0,0.25,54,54.88
4630,B3,761.25,0.25,42,54.88
4631,E6,761.5,0.5,84,54.88
4632,G#3,761.5,0.25,50,54.88
4633,E3,761.75,0.25,40,54.88
4634,E4,762.0,0.25,50,54.88
4635,G3,762.0,0.167,66,54.88
4636,A3,762.167,0.167,59,54.88
4637,D4,762.25,0.25,46,54.88
4638,G3,762.333,0.167,63,54.88
4639,E4,762.5,0.25,48,54.88
4640,A3,762.5,0.167,58,54.88
4641,G3,762.667,0.167,60,54.88
4642,F#4,762.75,0.25,40,54.88
4643,A3,762.833,0.167,57,54.88
4644,G4,763.0,0.25,48,54.88
4645,G3,763.0,0.167,59,54.88
4646,A3,763.167,0.167,53,54.88
4647,A4,763.25,0.25,50,54.88
4648,G3,763.333,0.167,59,54.88
4649,A5,763.5,0.5,73,54.88
4650,B4,763.5,0.25,61,54.88
4651,A3,763.5,0.167,54,54.88
4652,G3,763.667,0.167,58,54.88
4653,C#5,763.75,0.25,55,54.88
4654,A3,763.833,0.167,57,54.88
4655,D5,764.0,0.5,83,54.88
4656,F#3,764.0,0.25,54,54.88
4657,A3,764.25,0.25,42,54.88
4658,D6,764.5,0.5,84,54.88
4659,F#3,764.5,0.25,50,54.88
4660,D3,764.75,0.25,40,54.88
4661,D4,765.0,0.25,50,54.88
4662,F3,765.0,0.167,66,54.88
4663,G3,765.167,0.167,59,54.88
4664,C4,765.25,0.25,46,54.88
4665,F3,765.333,0.167,63,54.88
4666,D4,765.5,0.25,48,54.88
4667,G3,765.5,0.167,58,54.88
4668,F3,765.667,0.167,60,54.88
4669,E-4,765.75,0.25,40,54.88
4670,G3,765.833,0.167,57,54.88
4671,F4,766.0,0.25,48,54.88
4672,F3,766.0,0.167,59,54.88
4673,G3,766.167,0.167,53,54.88
4674,G4,766.25,0.25,50,54.88
4675,F3,766.333,0.167,59,54.88
4676,G5,766.5,0.5,73,54.88
4677,A4,766.5,0.25,61,54.88
4678,G3,766.5,0.167,54,54.88
4679,F3,766.667,0.167,58,54.88
4680,B4,766.75,0.25,55,54.88
4681,G3,766.833,0.167,57,54.88
4682,C5,767.0,0.5,83,54.88
4683,E-3,767.0,0.25,54,54.88
4684,G3,767.25,0.25,49,54.88
4685,C6,767.5,0.75,84,54.88
4686,E-3,767.5,0.25,59,54.88
4687,C3,767.75,0.25,54,54.88
4688,G#3,768.0,0.5,73,54.88
4689,E5,768.25,0.25,78,54.88
4690,F5,768.5,0.25,84,54.88
4691,G5,768.75,0.25,89,54.88
4692,G#5,769.0,0.5,94,54.88
4693,F2,769.0,0.167,66,54.88
4694,G2,769.167,0.167,59,54.88
4695,E4,769.25,0.25,55,54.88
4696,F2,769.333,0.167,63,54.88
4697,F4,769.5,0.25,57,54.88
4698,G2,769.5,0.167,58,54.88
4699,F2,769.667,0.167,60,54.88
4700,G4,769.75,0.25,58,54.88
4701,G2,769.833,0.167,57,54.88
4702,G#4,770.0,1.25,59,54.88
4703,F2,770.0,0.167,59,54.88
4704,G2,770.167,0.167,53,54.88
4705,B-4,770.25,0.25,61,54.88
4706,F2,770.333,0.167,59,54.88
4707,C5,770.5,0.25,62,54.88
4708,G2,770.5,0.167,54,54.88
4709,F2,770.667,0.167,58,54.88
4710,D5,770.75,0.25,65,54.88
4711,G2,770.833,0.167,57,54.88
4712,E-5,771.0,1.0,70,54.88
4713,E-2,771.0,1.0,63,54.88
4714,G4,771.25,0.25,58,54.88
4715,B-4,771.5,0.3,62,54.88
4716,G#4,771.75,0.3,58,54.88
4717,G4,772.0,0.3,62,54.88
4718,F4,772.25,0.3,55,54.88
4719,E-4,772.5,0.3,55,54.88
4720,E-2,772.5,0.3,53,54.88
4721,D4,772.75,0.3,55,54.88
4722,F2,772.75,0.3,54,54.88
4723,E-5,773.0,0.3,62,54.88
4724,E-4,773.0,2.0,62,54.88
4725,G2,773.0,0.3,56,54.88
4726,D5,773.25,0.3,58,54.88
4727,G#2,773.25,0.3,57,54.88
4728,C5,773.5,0.3,58,54.88
4729,B-2,773.5,0.3,59,54.88
4730,B-4,773.75,0.25,58,54.88
4731,C3,773.75,0.25,60,54.88
4732,E-5,774.0,0.25,62,54.88
4733,G2,774.0,0.5,67,54.88
4734,B-4,774.25,0.3,55,54.88
4735,E-5,774.5,0.3,62,54.88
4736,D5,774.75,0.3,55,54.88
4737,C5,775.0,0.3,62,54.88
4738,B-4,775.25,0.3,61,54.88
4739,G#4,775.5,0.3,60,54.88
4740,G2,775.5,0.3,53,54.88
4741,G4,775.75,0.25,59,54.88
4742,G#2,775.75,0.3,54,54.88
4743,G5,776.0,1.25,73,54.88
4744,E-5,776.0,0.3,73,54.88
4745,B-2,776.0,0.3,56,54.88
4746,D5,776.25,0.3,60,54.88
4747,C3,776.25,0.3,57,54.88
4748,C5,776.5,0.3,66,54.88
4749,D3,776.5,0.3,59,54.88
4750,B-4,776.75,0.3,60,54.88
4751,E-3,776.75,0.25,60,54.88
4752,D5,777.0,1.0,73,54.88
4753,B-2,777.0,0.5,67,54.88
4754,F5,777.25,0.3,66,54.88
4755,G#5,777.5,0.3,69,54.88
4756,G5,777.75,0.3,62,54.88
4757,F5,778.0,0.3,69,54.88
4758,E-5,778.25,0.3,68,54.88
4759,D5,778.5,0.3,66,54.88
4760,B-2,778.5,0.3,53,54.88
4761,C5,778.75,0.25,64,54.88
4762,C3,778.75,0.3,54,54.88
4763,B-4,779.0,2.25,69,54.88
4764,F4,779.0,0.3,69,54.88
4765,D3,779.0,0.3,56,54.88
4766,G4,779.25,0.3,55,54.88
4767,C3,779.25,0.3,57,54.88
4768,F4,779.5,0.3,62,54.88
4769,D3,779.5,0.3,59,54.88
4770,E-4,779.75,0.3,58,54.88
4771,E-3,779.75,0.3,60,54.88
4772,D4,780.0,0.3,68,54.88
4773,F3,780.0,0.3,62,54.88
4774,C4,780.25,0.3,59,54.88
4775,E3,780.25,0.3,56,54.88
4776,D4,780.5,0.3,59,54.88
4777,F3,780.5,0.3,56,54.88
4778,E-4,780.75,0.3,59,54.88
4779,G3,780.75,0.3,56,54.88
4780,F4,781.0,1.25,62,54.88
4781,G#3,781.0,0.3,63,54.88
4782,C5,781.25,0.3,59,54.88
4783,G3,781.25,0.3,54,54.88
4784,D5,781.5,0.3,61,54.88
4785,F3,781.5,0.3,54,54.88
4786,E-5,781.75,0.3,64,54.88
4787,E-3,781.75,0.3,54,54.88
4788,F5,782.0,1.25,70,54.88
4789,D3,782.0,0.3,61,54.88
4790,G4,782.25,0.3,60,54.88
4791,E-3,782.25,0.3,54,54.88
4792,G#4,782.5,0.3,63,54.88
4793,D3,782.5,0.3,54,54.88
4794,A4,782.75,0.3,65,54.88
4795,C3,782.75,0.3,54,54.88
4796,B-4,783.0,1.25,68,54.88
4797,B-2,783.0,0.3,56,54.88
4798,G5,783.25,0.3,62,54.88
4799,C3,783.25,0.3,51,54.88
4800,G#5,783.5,0.3,67,54.88
4801,B-2,783.5,0.3,51,54.88
4802,A5,783.75,0.3,70,54.88
4803,G#2,783.75,0.3,51,54.88
4804,B-5,784.0,1.0,72,54.88
4805,G2,784.0,0.3,56,54.88
4806,C5,784.25,0.3,62,54.88
4807,G#2,784.25,0.3,50,54.88
4808,D5,784.5,0.3,65,54.88
4809,B-2,784.5,0.3,50,54.88
4810,E-5,784.75,0.3,69,54.88
4811,C3,784.75,0.3,50,54.88
4812,D3,785.0,0.3,59,54.88
4813,F5,785.0,0.3,66,54.88
4814,G#5,785.0,0.3,66,54.88
4815,E-3,785.25,0.3,52,54.88
4816,E-5,785.25,0.3,62,54.88
4817,G5,785.25,0.3,62,54.88
4818,F3,785.5,0.3,57,54.88
4819,D5,785.5,0.25,64,54.88
4820,F5,785.5,0.25,64,54.88
4821,E-5,785.75,0.25,70,54.88
4822,G3,785.75,0.25,62,54.88
4823,C6,786.0,0.5,87,54.88
4824,G#2,786.0,0.3,60,54.88
4825,B-2,786.25,0.3,61,54.88
4826,C3,786.5,0.3,62,54.88
4827,C#3,786.75,0.3,63,54.88
4828,G#4,787.0,0.167,75,54.88
4829,E-3,787.0,0.25,64,54.88
4830,B-4,787.167,0.167,67,54.88
4831,F3,787.25,0.25,65,54.88
4832,G#4,787.333,0.167,72,54.88
4833,B-4,787.5,0.167,62,54.88
4834,G3,787.5,0.25,66,54.88
4835,G#4,787.667,0.167,67,54.88
4836,G#3,787.75,0.25,67,54.88
4837,B-4,787.833,0.167,61,54.88
4838,G#4,788.0,0.167,67,54.88
4839,B-3,788.0,0.25,69,54.88
4840,B-4,788.167,0.167,62,54.88
4841,B3,788.25,0.25,70,54.88
4842,G#4,788.333,0.167,67,54.88
4843,B-4,788.5,0.167,61,54.88
4844,C4,788.5,0.5,71,54.88
4845,G#4,788.667,0.167,67,54.88
4846,B-4,788.833,0.167,62,54.88
4847,F5,789.0,0.3,70,54.88
4848,G#5,789.0,0.496,82,54.88
4849,G5,789.25,0.3,72,54.88
4850,G#5,789.5,0.3,73,54.88
4851,B-5,789.75,0.3,75,54.88
4852,C6,790.0,0.25,76,54.88
4853,F4,790.0,0.167,75,54.88
4854,G4,790.167,0.167,67,54.88
4855,D6,790.25,0.25,78,54.88
4856,F4,790.333,0.167,72,54.88
4857,E-6,790.5,0.25,80,54.88
4858,G4,790.5,0.167,62,54.88
4859,F4,790.667,0.167,67,54.88
4860,E6,790.75,0.25,81,54.88
4861,G4,790.833,0.167,61,54.88
4862,F6,791.0,0.25,83,54.88
4863,F4,791.0,0.167,67,54.88
4864,G4,791.167,0.167,62,54.88
4865,G6,791.25,0.25,84,54.88
4866,F4,791.333,0.167,67,54.88
4867,G#6,791.5,0.5,86,54.88
4868,G4,791.5,0.167,61,54.88
4869,F4,791.667,0.167,67,54.88
4870,G4,791.833,0.167,62,54.88
4871,B-6,792.0,0.5,100,54.88
4872,G3,792.0,0.3,60,54.88
4873,G#3,792.25,0.3,61,54.88
4874,B-3,792.5,0.3,62,54.88
4875,C4,792.75,0.3,63,54.88
4876,G5,793.0,0.167,75,54.88
4877,D4,793.0,0.25,64,54.88
4878,G#5,793.167,0.167,67,54.88
4879,E-4,793.25,0.25,65,54.88
4880,G5,793.333,0.167,72,54.88
4881,G#5,793.5,0.167,62,54.88
4882,F4,793.5,0.25,66,54.88
4883,G5,793.667,0.167,67,54.88
4884,G4,793.75,0.25,67,54.88
4885,G#5,793.833,0.167,61,54.88
4886,G5,794.0,0.167,67,54.88
4887,G#4,794.0,0.25,69,54.88
4888,G#5,794.167,0.167,62,54.88
4889,A4,794.25,0.25,70,54.88
4890,G5,794.333,0.167,67,54.88
4891,G#5,794.5,0.167,61,54.88
4892,B-4,794.5,0.5,71,54.88
4893,G5,794.667,0.167,67,54.88
4894,G#5,794.833,0.167,62,54.88
4895,E-5,795.0,0.3,70,54.88
4896,G3,795.0,0.5,93,54.88
4897,F5,795.25,0.3,72,54.88
4898,G5,795.5,0.3,73,54.88
4899,G#5,795.75,0.3,75,54.88
4900,B-5,796.0,0.25,76,54.88
4901,E-2,796.0,0.167,75,54.88
4902,F2,796.167,0.167,67,54.88
4903,C6,796.25,0.25,78,54.88
4904,E-2,796.333,0.167,72,54.88
4905,C#6,796.5,0.25,80,54.88
4906,F2,796.5,0.167,62,54.88
4907,E-2,796.667,0.167,67,54.88
4908,D6,796.75,0.25,81,54.88
4909,F2,796.833,0.167,61,54.88
4910,E-6,797.0,0.25,83,54.88
4911,E-2,797.0,0.167,67,54.88
4912,F2,797.167,0.167,62,54.88
4913,F6,797.25,0.25,84,54.88
4914,E-2,797.333,0.167,67,54.88
4915,F#6,797.5,0.25,86,54.88
4916,F2,797.5,0.167,61,54.88
4917,E-2,797.667,0.167,67,54.88
4918,G6,797.75,0.25,88,54.88
4919,F2,797.833,0.167,62,54.88
4920,B-1,798.0,0.5,97,54.88
4921,G#6,798.0,0.25,80,54.88
4922,B-5,798.0,0.25,80,54.88
4923,G#5,798.25,0.3,76,54.88
4924,G5,798.5,0.3,73,54.88
4925,F5,798.75,0.246,73,54.88
4926,F5,799.0,2.0,72,54.88
4927,E-5,799.0,0.25,72,54.88
4928,D3,799.0,0.167,75,54.88
4929,E-3,799.167,0.167,67,54.88
4930,D5,799.25,0.25,72,54.88
4931,D3,799.333,0.167,72,54.88
4932,C5,799.5,0.25,71,54.88
4933,E-3,799.5,0.167,62,54.88
4934,D3,799.667,0.167,67,54.88
4935,B-4,799.75,0.25,70,54.88
4936,E-3,799.833,0.167,61,54.88
4937,A4,800.0,0.25,70,54.88
4938,D3,800.0,0.167,67,54.88
4939,E-3,800.167,0.167,62,54.88
4940,B-4,800.25,0.25,65,54.88
4941,D3,800.333,0.167,67,54.88
4942,F4,800.5,0.25,68,54.88
4943,E-3,800.5,0.167,61,54.88
4944,D3,800.667,0.167,67,54.88
4945,G#4,800.75,0.25,63,54.88
4946,E-3,800.833,0.167,62,54.88
4947,G4,801.0,0.25,90,54.88
4948,E-2,801.0,0.5,94,54.88
4949,B-5,801.25,0.3,73,54.88
4950,C6,801.5,0.3,74,54.88
4951,D6,801.75,0.3,75,54.88
4952,B-5,802.0,2.0,77,54.88
4953,E-6,802.0,0.25,77,54.88
4954,G3,802.0,0.167,75,54.88
4955,G#3,802.167,0.167,67,54.88
4956,D6,802.25,0.25,78,54.88
4957,G3,802.333,0.167,72,54.88
4958,E-6,802.5,0.25,79,54.88
4959,G#3,802.5,0.167,62,54.88
4960,G3,802.667,0.167,67,54.88
4961,F6,802.75,0.25,81,54.88
4962,G#3,802.833,0.167,61,54.88
4963,G6,803.0,0.25,82,54.88
4964,G3,803.0,0.167,67,54.88
4965,G#3,803.167,0.167,62,54.88
4966,F6,803.25,0.25,83,54.88
4967,G3,803.333,0.167,67,54.88
4968,G6,803.5,0.25,85,54.88
4969,G#3,803.5,0.167,61,54.88
4970,G3,803.667,0.167,67,54.88
4971,G#6,803.75,0.25,86,54.88
4972,G#3,803.833,0.167,62,54.88
4973,B-6,804.0,0.25,90,54.88
4974,C2,804.0,0.5,98,54.88
4975,G#5,804.5,0.3,73,54.88
4976,G5,804.75,0.246,73,54.88
4977,G5,805.0,2.0,72,54.88
4978,F5,805.0,0.25,72,54.88
4979,E3,805.0,0.167,75,54.88
4980,F3,805.167,0.167,67,54.88
4981,E5,805.25,0.25,72,54.88
4982,E3,805.333,0.167,72,54.88
4983,C#5,805.5,0.25,71,54.88
4984,F3,805.5,0.167,62,54.88
4985,E3,805.667,0.167,67,54.88
4986,C5,805.75,0.25,70,54.88
4987,F3,805.833,0.167,61,54.88
4988,B4,806.0,0.25,70,54.88
4989,E3,806.0,0.167,67,54.88
4990,F3,806.167,0.167,62,54.88
4991,C5,806.25,0.25,65,54.88
4992,E3,806.333,0.167,67,54.88
4993,G4,806.5,0.25,68,54.88
4994,F3,806.5,0.167,61,54.88
4995,E3,806.667,0.167,67,54.88
4996,B-4,806.75,0.25,63,54.88
4997,F3,806.833,0.167,62,54.88
4998,G#4,807.0,0.25,90,54.88
4999,F2,807.0,0.5,95,54.88
5000,C6,807.5,0.3,74,54.88
5001,E6,807.75,0.3,75,54.88
5002,C6,808.0,1.5,77,54.88
5003,F6,808.0,0.25,77,54.88
5004,G#3,808.0,0.167,75,54.88
5005,B-3,808.167,0.167,67,54.88
5006,G6,808.25,0.25,78,54.88
5007,G#3,808.333,0.167,72,54.88
5008,G#6,808.5,0.25,79,54.88
5009,B-3,808.5,0.167,62,54.88
5010,G#3,808.667,0.167,67,54.88
5011,G6,808.75,0.25,81,54.88
5012,B-3,808.833,0.167,61,54.88
5013,F6,809.0,0.25,79,54.88
5014,G#3,809.0,0.167,67,54.88
5015,B-3,809.167,0.167,62,54.88
5016,E-6,809.25,0.25,77,54.88
5017,G#3,809.333,0.167,67,54.88
5018,F#5,809.5,0.5,75,54.88
5019,D6,809.5,0.25,75,54.88
5020,B-3,809.5,0.167,61,54.88
5021,G#3,809.667,0.167,67,54.88
5022,C6,809.75,0.25,73,54.88
5023,B-3,809.833,0.167,62,54.88
5024,G3,810.0,0.5,73,54.88
5025,B5,810.0,0.5,76,54.88
5026,G5,810.0,0.5,76,54.88
5027,D5,810.5,0.25,73,54.88
5028,B3,810.5,0.25,65,54.88
5029,B3,811.0,0.125,73,54.88
5030,G2,811.0,0.125,62,54.88
5031,C4,811.125,0.125,68,54.88
5032,G#2,811.125,0.125,54,54.88
5033,B3,811.25,0.125,73,54.88
5034,G2,811.25,0.125,61,54.88
5035,C4,811.375,0.125,66,54.88
5036,G#2,811.375,0.125,54,54.88
5037,G3,811.5,0.25,73,54.88
5038,B4,812.0,0.125,73,54.88
5039,C5,812.125,0.125,68,54.88
5040,B4,812.25,0.125,73,54.88
5041,C5,812.375,0.125,66,54.88
5042,G5,812.5,0.25,73,54.88
5043,E-4,812.5,0.25,64,54.88
5044,E-4,813.0,0.125,73,54.88
5045,C3,813.0,0.125,62,54.88
5046,F4,813.125,0.125,68,54.88
5047,D3,813.125,0.125,54,54.88
5048,E-4,813.25,0.125,73,54.88
5049,C3,813.25,0.125,61,54.88
5050,F4,813.375,0.125,66,54.88
5051,D3,813.375,0.125,54,54.88
5052,C4,813.5,0.25,73,54.88
5053,E-5,814.0,0.125,75,54.88
5054,F5,814.125,0.125,70,54.88
5055,E-5,814.25,0.125,75,54.88
5056,F5,814.375,0.125,68,54.88
5057,C6,814.5,0.25,75,54.88
5058,A3,814.5,0.25,66,54.88
5059,A4,815.0,0.125,77,54.88
5060,F#2,815.0,0.125,65,54.88
5061,B-4,815.125,0.125,72,54.88
5062,G2,815.125,0.125,57,54.88
5063,A4,815.25,0.125,78,54.88
5064,F#2,815.25,0.125,65,54.88
5065,B-4,815.375,0.125,70,54.88
5066,G2,815.375,0.125,57,54.88
5067,D4,815.5,0.25,78,54.88
5068,F#5,816.0,0.125,79,54.88
5069,G5,816.125,0.125,74,54.88
5070,F#5,816.25,0.125,80,54.88
5071,G5,816.375,0.125,72,54.88
5072,D6,816.5,0.25,81,54.88
5073,B-3,816.5,0.25,68,54.88
5074,B-4,817.0,0.5,81,54.88
5075,G2,817.0,0.125,69,54.88
5076,G#2,817.125,0.125,61,54.88
5077,G2,817.25,0.125,68,54.88
5078,G#2,817.375,0.125,61,54.88
5079,G4,817.5,0.25,83,54.88
5080,B-5,818.0,0.125,83,54.88
5081,C6,818.125,0.125,78,54.88
5082,B-5,818.25,0.125,84,54.88
5083,C6,818.375,0.125,77,54.88
5084,G6,818.5,0.25,86,54.88
5085,E4,818.5,0.25,75,54.88
5086,E5,819.0,0.125,88,54.88
5087,C#3,819.0,0.125,75,54.88
5088,F5,819.125,0.125,82,54.88
5089,D3,819.125,0.125,65,54.88
5090,E5,819.25,0.125,89,54.88
5091,C#3,819.25,0.125,74,54.88
5092,F5,819.375,0.125,81,54.88
5093,D3,819.375,0.125,66,54.88
5094,C#5,819.5,0.25,90,54.88
5095,E6,820.0,0.125,92,54.88
5096,F6,820.125,0.125,86,54.88
5097,E6,820.25,0.125,93,54.88
5098,F6,820.375,0.125,85,54.88
5099,A3,820.5,0.25,82,54.88
5100,A5,820.5,0.25,93,54.88
5101,A6,820.5,0.25,93,54.88
5102,F3,821.0,0.25,67,54.88
5103,F6,821.0,0.25,86,54.88
5104,F5,821.0,0.25,86,54.88
5105,D3,821.5,0.25,69,54.88
5106,D6,821.5,0.25,88,54.88
5107,D5,821.5,0.25,88,54.88
5108,A2,822.0,0.25,70,54.88
5109,A5,822.0,0.25,90,54.88
5110,A4,822.0,0.25,90,54.88
5111,F2,822.5,0.25,72,54.88
5112,F5,822.5,0.25,90,54.88
5113,F4,822.5,0.25,90,54.88
5114,D2,823.0,0.25,73,54.88
5115,D5,823.0,0.25,93,54.88
5116,D4,823.0,0.25,93,54.88
5117,A4,823.5,0.25,86,54.88
5118,A3,823.5,0.25,86,54.88
5119,A1,823.5,0.25,62,54.88
5120,A2,823.5,0.25,62,54.88
5121,G#3,824.0,0.25,85,54.88
5122,D4,824.0,0.25,85,54.88
5123,G#4,824.0,0.25,85,54.88
5124,B-2,824.0,0.25,64,54.88
5125,B-1,824.0,0.25,64,54.88
5126,G#5,824.5,0.25,86,54.88
5127,D5,824.5,0.25,86,54.88
5128,G#4,824.5,0.25,86,54.88
5129,B-1,824.5,0.25,65,54.88
5130,B-2,824.5,0.25,65,54.88
5131,A5,825.0,0.25,87,54.88
5132,C#5,825.0,0.25,87,54.88
5133,A4,825.0,0.25,87,54.88
5134,A1,825.0,0.25,63,54.88
5135,C#2,825.0,0.25,63,54.88
5136,A2,825.0,0.25,63,54.88
5137,E2,825.0,0.25,63,54.88
5138,A6,826.0,0.25,97,54.88
5139,E6,826.0,0.25,97,54.88
5140,C#6,826.0,0.25,97,54.88
5141,A5,826.0,0.25,97,54.88
5142,A1,826.0,0.25,68,54.88
5143,A2,826.0,0.25,68,54.88
5144,C#2,826.0,0.25,68,54.88
5145,E2,826.0,0.25,68,54.88
5146,A4,832.0,1.05,50,54.88
5147,G4,833.0,1.05,45,54.88
5148,F#4,834.0,1.05,50,54.88
5149,G4,835.0,1.05,46,54.88
5150,A4,836.0,1.0,46,54.88
5151,D4,837.0,1.0,50,54.88
5152,D4,838.0,1.05,44,54.88
5153,E4,838.0,1.05,44,54.88
5154,C4,839.0,1.0,44,54.88
5155,F#4,839.0,1.0,44,54.88
5156,G4,840.0,2.0,50,54.88
5157,B3,840.0,1.05,50,54.88
5158,C#4,841.0,1.05,41,54.88
5159,F#4,842.0,1.0,44,54.88
5160,D4,842.0,2.0,44,54.88
5161,E4,843.0,2.0,50,54.88
5162,C#4,844.0,2.0,42,54.88
5163,A3,844.0,1.05,44,54.88
5164,A4,845.0,4.0,47,54.88
5165,G3,845.0,1.05,42,54.88
5166,E-4,846.0,1.05,48,54.88
5167,F#3,846.0,1.05,42,54.88
5168,E4,847.0,1.05,47,54.88
5169,G3,847.0,1.05,44,54.88
5170,F#4,848.0,2.0,48,54.88
5171,A3,848.0,2.0,44,54.88
5172,B4,849.0,1.05,52,54.88
5173,G3,850.0,1.05,44,54.88
5174,C#5,850.0,1.05,50,54.88
5175,E4,850.0,1.05,50,54.88
5176,D5,851.0,1.0,54,54.88
5177,D4,851.0,2.0,45,54.88
5178,F#3,851.0,1.0,40,54.88
5179,A4,852.0,1.0,50,54.88
5180,B3,852.0,1.0,47,54.88
5181,C#3,853.0,1.0,40,54.88
5182,G4,853.0,1.0,47,54.88
5183,E4,853.0,1.0,47,54.88
5184,F#4,854.0,2.0,47,54.88
5185,A3,854.0,1.0,39,54.88
5186,D3,854.0,1.0,40,54.88
5187,B-3,855.0,1.0,50,54.88
5188,G2,855.0,1.0,43,54.88
5189,E4,856.0,3.0,46,54.88
5190,B3,856.0,1.0,46,54.88
5191,G#2,856.0,1.0,41,54.88
5192,C#4,857.0,1.0,46,54.88
5193,A2,857.0,1.0,41,54.88
5194,D4,858.0,1.0,50,54.88
5195,B2,858.0,1.0,37,54.88
5196,F#2,859.0,1.05,47,54.88
5197,A4,859.0,1.05,56,54.88
5198,E5,859.0,1.05,56,54.88
5199,B4,860.0,2.0,45,54.88
5200,D5,860.0,1.05,54,54.88
5201,G#2,860.0,1.05,47,54.88
5202,C#5,861.0,1.05,58,54.88
5203,A2,861.0,1.05,47,54.88
5204,B2,862.0,1.05,46,54.88
5205,A4,862.0,1.05,48,54.88
5206,D5,862.0,1.05,48,54.88
5207,C#3,863.0,1.0,47,54.88
5208,G4,863.0,1.0,48,54.88
5209,E5,863.0,1.0,48,54.88
5210,D3,864.0,1.05,47,54.88
5211,F#4,864.0,1.05,46,54.88
5212,A4,864.0,1.05,46,54.88
5213,D4,865.0,1.05,44,54.88
5214,G4,865.0,1.05,42,54.88
5215,B4,865.0,1.05,42,54.88
5216,C4,866.0,1.05,44,54.88
5217,A4,866.0,1.05,42,54.88
5218,C5,866.0,1.05,42,54.88
5219,D5,867.0,2.0,52,54.88
5220,D4,867.0,1.05,42,54.88
5221,B3,867.0,1.05,47,54.88
5222,E4,868.0,1.05,44,54.88
5223,C#4,868.0,1.05,39,54.88
5224,C#5,869.0,2.0,52,54.88
5225,F#4,869.0,1.0,44,54.88
5226,D4,869.0,1.0,40,54.88
5227,G4,870.0,2.0,50,54.88
5228,G3,870.0,1.05,42,54.88
5229,B4,871.0,1.0,46,54.88
5230,A3,871.0,1.05,44,54.88
5231,B3,872.0,1.0,47,54.88
5232,F#4,872.0,2.05,42,54.88
5233,A4,872.0,2.05,42,54.88
5234,E3,873.0,1.05,47,54.88
5235,F#3,874.0,1.05,41,54.88
5236,E4,874.0,1.05,42,54.88
5237,G4,874.0,1.05,42,54.88
5238,D4,875.0,2.0,39,54.88
5239,F#4,875.0,1.05,46,54.88
5240,G3,875.0,1.05,41,54.88
5241,E4,876.0,2.0,50,54.88
5242,G#3,876.0,1.05,47,54.88
5243,C#4,877.0,2.0,44,54.88
5244,A3,877.0,1.05,45,54.88
5245,A4,878.0,2.0,54,54.88
5246,G3,878.0,1.0,45,54.88
5247,E-4,879.0,3.0,48,54.88
5248,F#3,879.0,1.0,44,54.88
5249,F#4,880.0,1.0,48,54.88
5250,B3,880.0,1.0,45,54.88
5251,B4,881.0,2.0,54,54.88
5252,A3,881.0,1.0,45,54.88
5253,E4,882.0,1.0,54,54.88
5254,G3,882.0,2.0,44,54.88
5255,E5,883.0,1.05,67,54.88
5256,C#4,883.0,1.05,51,54.88
5257,D5,884.0,1.05,63,54.88
5258,B3,884.0,1.05,43,54.88
5259,F3,884.0,1.05,43,54.88
5260,C#5,885.0,1.0,59,54.88
5261,F#3,885.0,2.0,44,54.88
5262,B-3,885.0,1.0,51,54.88
5263,F#5,886.0,1.05,64,54.88
5264,D4,886.0,1.05,54,54.88
5265,E5,887.0,1.05,57,54.88
5266,C#4,887.0,1.05,54,54.88
5267,G#3,887.0,0.55,54,54.88
5268,B-3,887.5,0.55,48,54.88
5269,D5,888.0,1.0,57,54.88
5270,B3,888.0,1.0,49,54.88
5271,D4,888.0,1.0,49,54.88
5272,A5,889.0,1.05,71,54.88
5273,A3,889.0,1.05,50,54.88
5274,C#4,889.0,1.05,50,54.88
5275,G5,890.0,1.05,68,54.88
5276,C#4,890.0,1.05,50,54.88
5277,E4,890.0,1.05,50,54.88
5278,F#5,891.0,1.0,67,54.88
5279,D4,891.0,1.0,52,54.88
5280,F#4,891.0,1.0,52,54.88
5281,F#3,892.0,1.0,52,54.88
5282,B4,892.0,1.0,58,54.88
5283,E-5,892.0,1.0,58,54.88
5284,E-3,893.0,1.0,51,54.88
5285,A4,893.0,1.0,51,54.88
5286,F#5,893.0,1.0,51,54.88
5287,E3,894.0,1.0,54,54.88
5288,G4,894.0,1.0,56,54.88
5289,B4,894.0,1.0,56,54.88
5290,E4,895.0,1.05,53,54.88
5291,F#4,895.0,1.05,46,54.88
5292,A4,895.0,1.05,46,54.88
5293,D4,896.0,1.05,52,54.88
5294,G#4,896.0,1.05,46,54.88
5295,B4,896.0,1.05,46,54.88
5296,C#4,897.0,1.0,59,54.88
5297,A4,897.0,1.0,54,54.88
5298,C#5,897.0,1.0,54,54.88
5299,A2,898.0,1.05,50,54.88
5300,B4,898.0,1.05,52,54.88
5301,D5,898.0,1.05,52,54.88
5302,E5,899.0,2.0,62,54.88
5303,C#5,899.0,1.05,44,54.88
5304,G2,899.0,1.05,47,54.88
5305,A4,900.0,1.0,55,54.88
5306,F#2,900.0,1.0,48,54.88
5307,G#2,901.0,1.05,47,54.88
5308,F4,901.0,1.05,54,54.88
5309,D5,901.0,1.05,54,54.88
5310,A2,902.0,2.0,47,54.88
5311,E4,902.0,1.05,50,54.88
5312,C#5,902.0,1.05,50,54.88
5313,D4,903.0,4.0,48,54.88
5314,B4,903.0,4.0,48,54.88
5315,G#2,904.0,1.0,43,54.88
5316,E2,905.0,1.0,43,54.88
5317,A2,906.0,1.0,47,54.88
5318,A3,907.0,1.0,43,54.88
5319,C#4,907.0,1.0,49,54.88
5320,A4,907.0,1.0,49,54.88
5321,F#3,908.0,1.0,43,54.88
5322,E-4,908.0,2.0,50,54.88
5323,C5,908.0,2.0,50,54.88
5324,G3,909.0,2.0,47,54.88
5325,E4,910.0,1.0,50,54.88
5326,B4,910.0,1.0,50,54.88
5327,E3,911.0,1.0,47,54.88
5328,G4,911.0,2.0,48,54.88
5329,C#5,911.0,2.0,48,54.88
5330,E-3,912.0,1.0,42,54.88
5331,D3,913.0,1.0,46,54.88
5332,F#4,913.0,1.0,51,54.88
5333,D5,913.0,1.0,51,54.88
5334,E-5,914.0,2.0,54,54.88
5335,G4,914.0,1.0,45,54.88
5336,C3,914.0,1.0,46,54.88
5337,A3,915.0,1.0,37,54.88
5338,F3,915.0,1.0,37,54.88
5339,D5,916.0,1.0,58,54.88
5340,B-3,916.0,1.0,42,54.88
5341,B-2,916.0,1.0,42,54.88
5342,C#5,917.0,1.0,55,54.88
5343,B-2,917.0,1.0,42,54.88
5344,E3,917.0,1.0,42,54.88
5345,C5,918.0,0.5,55,54.88
5346,F3,918.0,1.0,46,54.88
5347,A2,918.0,1.0,46,54.88
5348,A4,919.0,0.167,50,54.88
5349,F5,919.0,1.0,50,54.88
5350,C3,919.0,1.0,46,54.88
5351,B-4,919.167,0.167,44,54.88
5352,A4,919.333,0.167,50,54.88
5353,B-4,919.5,0.167,44,54.88
5354,A4,919.667,0.167,50,54.88
5355,B-4,919.833,0.167,44,54.88
5356,A4,920.0,0.167,50,54.88
5357,E-5,920.0,1.0,45,54.88
5358,F2,920.0,1.0,46,54.88
5359,B-4,920.167,0.167,45,54.88
5360,A4,920.333,0.167,50,54.88
5361,B-4,920.5,0.125,49,54.88
5362,A4,920.625,0.125,46,54.88
5363,G4,920.75,0.125,46,54.88
5364,A4,920.875,0.125,46,54.88
5365,D5,921.0,1.05,50,54.88
5366,B-2,921.0,1.0,46,54.88
5367,E-5,922.0,1.05,46,54.88
5368,B-4,922.5,0.3,43,54.88
5369,A4,922.75,0.3,39,54.88
5370,G4,923.0,0.3,42,54.88
5371,F5,923.0,1.0,46,54.88
5372,F4,923.25,0.3,41,54.88
5373,E-4,923.5,0.3,39,54.88
5374,D4,923.75,0.25,37,54.88
5375,G4,924.0,1.0,50,54.88
5376,B4,924.0,1.0,50,54.88
5377,C5,925.0,1.05,44,54.88
5378,G4,925.5,0.3,40,54.88
5379,F4,925.75,0.3,38,54.88
5380,E-4,926.0,0.3,40,54.88
5381,D5,926.0,1.0,44,54.88
5382,D4,926.25,0.3,40,54.88
5383,C4,926.5,0.3,39,54.88
5384,B3,926.75,0.25,38,54.88
5385,D4,927.0,1.0,46,54.88
5386,B4,927.0,0.5,55,54.88
5387,G2,927.0,1.0,46,54.88
5388,G4,928.0,1.0,50,54.88
5389,B3,928.0,0.167,50,54.88
5390,C4,928.167,0.167,44,54.88
5391,B3,928.333,0.167,50,54.88
5392,C4,928.5,0.167,44,54.88
5393,B3,928.667,0.167,51,54.88
5394,C4,928.833,0.167,44,54.88
5395,F4,929.0,1.0,46,54.88
5396,B3,929.0,0.167,51,54.88
5397,C4,929.167,0.167,46,54.88
5398,B3,929.333,0.167,52,54.88
5399,C4,929.5,0.125,51,54.88
5400,B3,929.625,0.125,48,54.88
5401,A3,929.75,0.125,48,54.88
5402,B3,929.875,0.125,48,54.88
5403,E4,930.0,1.05,53,54.88
5404,C4,930.0,1.0,48,54.88
5405,F4,931.0,1.05,50,54.88
5406,C4,931.5,0.3,47,54.88
5407,B-3,931.75,0.3,43,54.88
5408,G4,932.0,1.0,51,54.88
5409,A3,932.0,0.3,47,54.88
5410,G3,932.25,0.3,46,54.88
5411,F3,932.5,0.3,44,54.88
5412,E3,932.75,0.25,42,54.88
5413,C4,933.0,1.0,58,54.88
5414,A3,933.0,1.0,53,54.88
5415,D4,934.0,1.05,52,54.88
5416,C5,934.0,1.05,52,54.88
5417,A3,934.5,0.3,52,54.88
5418,G3,934.75,0.3,47,54.88
5419,F3,935.0,0.3,51,54.88
5420,E4,935.0,1.05,54,54.88
5421,B-4,935.0,1.05,54,54.88
5422,E3,935.25,0.3,50,54.88
5423,D3,935.5,0.3,48,54.88
5424,C3,935.75,0.25,46,54.88
5425,F3,936.0,1.0,57,54.88
5426,F4,936.0,1.0,60,54.88
5427,A4,936.0,1.0,60,54.88
5428,G4,937.0,1.05,57,54.88
5429,B-4,937.0,1.05,57,54.88
5430,F3,937.5,0.3,56,54.88
5431,E3,937.75,0.3,51,54.88
5432,D3,938.0,0.3,55,54.88
5433,A4,938.0,1.05,58,54.88
5434,C5,938.0,1.05,58,54.88
5435,C3,938.25,0.3,54,54.88
5436,B-2,938.5,0.3,52,54.88
5437,A2,938.75,0.25,49,54.88
5438,C3,939.0,0.3,57,54.88
5439,E-4,939.0,0.5,70,54.88
5440,F4,939.0,0.5,70,54.88
5441,B-2,939.25,0.3,57,54.88
5442,C5,939.5,1.0,64,54.88
5443,A2,939.5,0.3,57,54.88
5444,G2,939.75,0.25,58,54.88
5445,A5,940.0,0.167,72,54.88
5446,F2,940.0,1.0,76,54.88
5447,F1,940.0,1.0,76,54.88
5448,B-5,940.167,0.167,57,54.88
5449,A5,940.333,0.167,72,54.88
5450,B-5,940.5,0.167,57,54.88
5451,F5,940.5,1.0,72,54.88
5452,A5,940.667,0.167,72,54.88
5453,B-5,940.833,0.167,57,54.88
5454,A5,941.0,0.167,72,54.88
5455,E-2,941.0,1.0,68,54.88
5456,E-1,941.0,1.0,68,54.88
5457,B-5,941.167,0.167,57,54.88
5458,A5,941.333,0.167,72,54.88
5459,B-5,941.5,0.167,57,54.88
5460,F#5,941.5,0.5,81,54.88
5461,A5,941.667,0.167,72,54.88
5462,B-5,941.833,0.167,57,54.88
5463,D1,942.0,1.0,76,54.88
5464,D2,942.0,1.0,76,54.88
5465,B-5,942.5,0.25,90,54.88
5466,A5,942.75,0.25,82,54.88
5467,G5,943.0,0.25,81,54.88
5468,E-2,943.0,1.0,68,54.88
5469,E-1,943.0,1.0,68,54.88
5470,F5,943.25,0.25,80,54.88
5471,E-5,943.5,0.25,79,54.88
5472,D5,943.75,0.25,78,54.88
5473,F1,944.0,1.0,68,54.88
5474,F2,944.0,1.0,68,54.88
5475,B-3,944.5,0.25,82,54.88
5476,G#3,944.75,0.25,73,54.88
5477,G3,945.0,0.25,72,54.88
5478,E-2,945.0,1.0,76,54.88
5479,E-1,945.0,1.0,76,54.88
5480,F3,945.25,0.25,72,54.88
5481,E-3,945.5,0.25,71,54.88
5482,D3,945.75,0.25,70,54.88
5483,F2,946.0,1.0,66,54.88
5484,F1,946.0,1.0,66,54.88
5485,G5,946.5,0.25,95,54.88
5486,F5,946.75,0.25,82,54.88
5487,E-5,947.0,0.25,81,54.88
5488,G1,947.0,1.0,66,54.88
5489,G2,947.0,1.0,66,54.88
5490,D5,947.25,0.25,80,54.88
5491,C5,947.5,0.25,79,54.88
5492,B-4,947.75,0.25,78,54.88
5493,E2,948.0,1.0,75,54.88
5494,E1,948.0,1.0,75,54.88
5495,C4,948.5,0.25,82,54.88
5496,B-3,948.75,0.25,73,54.88
5497,G#3,949.0,0.25,72,54.88
5498,F1,949.0,1.0,64,54.88
5499,F2,949.0,1.0,64,54.88
5500,G3,949.25,0.25,72,54.88
5501,F3,949.5,0.25,71,54.88
5502,E3,949.75,0.25,70,54.88
5503,G1,950.0,1.0,64,54.88
5504,G2,950.0,1.0,64,54.88
5505,F5,950.5,0.25,92,54.88
5506,E5,950.75,0.25,82,54.88
5507,C#5,951.0,0.25,81,54.88
5508,F1,951.0,1.0,72,54.88
5509,F2,951.0,1.0,72,54.88
5510,C5,951.25,0.25,80,54.88
5511,B-4,951.5,0.25,79,54.88
5512,A4,951.75,0.25,78,54.88
5513,G1,952.0,1.0,63,54.88
5514,G2,952.0,1.0,63,54.88
5515,A3,952.5,0.25,82,54.88
5516,G3,952.75,0.25,73,54.88
5517,F#3,953.0,0.25,72,54.88
5518,A2,953.0,1.0,63,54.88
5519,A1,953.0,1.0,63,54.88
5520,E-3,953.25,0.25,72,54.88
5521,D3,953.5,0.25,71,54.88
5522,C3,953.75,0.25,70,54.88
5523,F#1,954.0,1.0,68,54.88
5524,F#2,954.0,1.0,68,54.88
5525,D6,954.5,0.25,90,54.88
5526,C6,954.75,0.25,82,54.88
5527,B-5,955.0,0.25,81,54.88
5528,G2,955.0,1.0,61,54.88
5529,G1,955.0,1.0,61,54.88
5530,A5,955.25,0.25,80,54.88
5531,G5,955.5,0.25,79,54.88
5532,F#5,955.75,0.25,78,54.88
5533,A2,956.0,1.0,61,54.88
5534,A1,956.0,1.0,61,54.88
5535,D4,956.5,0.25,82,54.88
5536,C#4,956.75,0.25,73,54.88
5537,C4,957.0,0.25,72,54.88
5538,G2,957.0,1.0,68,54.88
5539,G1,957.0,1.0,68,54.88
5540,B-3,957.25,0.25,72,54.88
5541,A3,957.5,0.25,71,54.88
5542,G3,957.75,0.25,70,54.88
5543,A1,958.0,1.0,61,54.88
5544,A2,958.0,1.0,61,54.88
5545,E-5,958.5,0.25,92,54.88
5546,D5,958.75,0.25,82,54.88
5547,C5,959.0,0.25,81,54.88
5548,B-1,959.0,0.25,69,54.88
5549,B-4,959.25,0.25,80,54.88
5550,B-2,959.25,0.25,65,54.88
5551,A4,959.5,0.25,79,54.88
5552,C3,959.5,0.25,65,54.88
5553,G4,959.75,0.25,78,54.88
5554,B-2,959.75,0.25,61,54.88
5555,F4,960.0,0.25,78,54.88
5556,A2,960.0,0.25,65,54.88
5557,E4,960.25,0.25,78,54.88
5558,G2,960.25,0.25,69,54.88
5559,B-4,960.5,0.5,88,54.88
5560,D4,960.5,0.25,88,54.88
5561,F2,960.5,0.25,69,54.88
5562,C4,960.75,0.25,81,54.88
5563,E2,960.75,0.25,69,54.88
5564,B-3,961.0,0.25,80,54.88
5565,G2,961.0,0.25,69,54.88
5566,A3,961.25,0.25,80,54.88
5567,F2,961.25,0.25,65,54.88
5568,G3,961.5,0.25,79,54.88
5569,E3,961.5,0.25,65,54.88
5570,F3,961.75,0.25,78,54.88
5571,D3,961.75,0.25,65,54.88
5572,E3,962.0,0.25,77,54.88
5573,C3,962.0,0.25,65,54.88
5574,D3,962.25,0.25,75,54.88
5575,B-2,962.25,0.25,63,54.88
5576,C4,962.5,0.25,78,54.88
5577,A2,962.5,0.25,65,54.88
5578,B-3,962.75,0.25,74,54.88
5579,G2,962.75,0.25,60,54.88
5580,A3,963.0,0.25,80,54.88
5581,F2,963.0,0.25,69,54.88
5582,G3,963.25,0.25,82,54.88
5583,E2,963.25,0.25,71,54.88
5584,F3,963.5,0.25,86,54.88
5585,D2,963.5,0.25,73,54.88
5586,E3,963.75,0.25,89,54.88
5587,C2,963.75,0.25,75,54.88
5588,B-3,964.0,0.5,95,54.88
5589,D3,964.0,0.25,95,54.88
5590,C3,964.25,0.25,87,54.88
5591,E3,964.5,0.25,81,54.88
5592,G3,964.75,0.25,85,54.88
5593,B-2,965.0,0.5,80,54.88
5594,G2,965.0,0.167,71,54.88
5595,A2,965.167,0.167,65,54.88
5596,G2,965.333,0.167,71,54.88
5597,A2,965.5,0.167,65,54.88
5598,G2,965.667,0.167,71,54.88
5599,A2,965.833,0.167,66,54.88
5600,E4,966.0,0.167,80,54.88
5601,G2,966.0,0.167,71,54.88
5602,F4,966.167,0.167,74,54.88
5603,A2,966.167,0.167,65,54.88
5604,E4,966.333,0.167,80,54.88
5605,G2,966.333,0.167,71,54.88
5606,F4,966.5,0.167,74,54.88
5607,A2,966.5,0.167,66,54.88
5608,E4,966.667,0.167,80,54.88
5609,G2,966.667,0.167,71,54.88
5610,F4,966.833,0.167,75,54.88
5611,A2,966.833,0.167,66,54.88
5612,E4,967.0,0.167,80,54.88
5613,F2,967.0,1.0,88,54.88
5614,F4,967.167,0.167,73,54.88
5615,E4,967.333,0.167,82,54.88
5616,F4,967.5,0.125,74,54.88
5617,E4,967.625,0.125,80,54.88
5618,D4,967.75,0.125,73,54.88
5619,E4,967.875,0.125,73,54.88
5620,F4,968.0,1.0,86,54.88
5621,F2,968.5,0.25,75,54.88
5622,G2,968.75,0.25,68,54.88
5623,A2,969.0,0.25,75,54.88
5624,B-2,969.25,0.25,74,54.88
5625,F4,969.5,0.25,78,54.88
5626,C3,969.5,0.25,74,54.88
5627,E4,969.75,0.25,74,54.88
5628,D3,969.75,0.25,74,54.88
5629,D4,970.0,0.25,80,54.88
5630,A2,970.0,1.0,87,54.88
5631,C4,970.25,0.25,74,54.88
5632,B-3,970.5,0.25,74,54.88
5633,A3,970.75,0.25,74,54.88
5634,D4,971.0,1.0,88,54.88
5635,A2,971.5,0.25,75,54.88
5636,B-2,971.75,0.25,68,54.88
5637,C3,972.0,0.25,75,54.88
5638,D3,972.25,0.25,74,54.88
5639,D4,972.5,0.25,78,54.88
5640,E3,972.5,0.25,74,54.88
5641,C4,972.75,0.25,74,54.88
5642,F3,972.75,0.25,74,54.88
5643,B-3,973.0,0.25,80,54.88
5644,C3,973.0,1.0,87,54.88
5645,A3,973.25,0.25,74,54.88
5646,G3,973.5,0.25,74,54.88
5647,F3,973.75,0.25,74,54.88
5648,B-3,974.0,1.0,88,54.88
5649,C3,974.5,0.25,67,54.88
5650,D3,974.75,0.25,63,54.88
5651,E3,975.0,0.25,73,54.88
5652,D3,975.25,0.25,63,54.88
5653,B-4,975.5,0.25,78,54.88
5654,E3,975.5,0.25,63,54.88
5655,A4,975.75,0.25,72,54.88
5656,F3,975.75,0.25,63,54.88
5657,G4,976.0,0.25,90,54.88
5658,G3,976.0,0.25,74,54.88
5659,A4,976.25,0.25,73,54.88
5660,F3,976.25,0.25,63,54.88
5661,G4,976.5,0.25,73,54.88
5662,G3,976.5,0.25,63,54.88
5663,F4,976.75,0.25,73,54.88
5664,A3,976.75,0.25,63,54.88
5665,E4,977.0,0.25,89,54.88
5666,B-3,977.0,0.25,74,54.88
5667,F4,977.25,0.25,74,54.88
5668,A3,977.25,0.25,62,54.88
5669,E4,977.5,0.25,74,54.88
5670,G3,977.5,0.25,62,54.88
5671,D4,977.75,0.25,74,54.88
5672,A3,977.75,0.25,62,54.88
5673,C4,978.0,0.25,90,54.88
5674,B-3,978.0,0.25,73,54.88
5675,D4,978.25,0.25,73,54.88
5676,A3,978.25,0.25,61,54.88
5677,E4,978.5,0.25,73,54.88
5678,G3,978.5,0.25,62,54.88
5679,F4,978.75,0.25,73,54.88
5680,F3,978.75,0.25,62,54.88
5681,F#4,979.0,0.25,88,54.88
5682,E3,979.0,0.25,74,54.88
5683,G4,979.25,0.25,73,54.88
5684,D3,979.25,0.25,62,54.88
5685,A4,979.5,0.25,73,54.88
5686,C3,979.5,0.25,62,54.88
5687,G4,979.75,0.25,73,54.88
5688,D3,979.75,0.25,62,54.88
5689,F4,980.0,0.25,87,54.88
5690,E-3,980.0,0.25,73,54.88
5691,G4,980.25,0.25,75,54.88
5692,D3,980.25,0.25,62,54.88
5693,A4,980.5,0.25,75,54.88
5694,C3,980.5,0.25,62,54.88
5695,B-4,980.75,0.25,75,54.88
5696,B-2,980.75,0.25,62,54.88
5697,B4,981.0,0.25,89,54.88
5698,D3,981.0,0.25,76,54.88
5699,C5,981.25,0.25,73,54.88
5700,C3,981.25,0.25,62,54.88
5701,D5,981.5,0.25,73,54.88
5702,B-2,981.5,0.25,62,54.88
5703,C5,981.75,0.25,73,54.88
5704,A2,981.75,0.25,62,54.88
5705,D5,982.0,0.25,94,54.88
5706,E-5,982.0,0.5,94,54.88
5707,B-2,982.0,0.25,73,54.88
5708,C5,982.25,0.25,73,54.88
5709,A2,982.25,0.25,63,54.88
5710,B-4,982.5,0.25,73,54.88
5711,G2,982.5,0.25,63,54.88
5712,A4,982.75,0.25,73,54.88
5713,F2,982.75,0.25,63,54.88
5714,C4,983.0,0.167,85,54.88
5715,E-3,983.0,2.0,78,54.88
5716,D4,983.167,0.167,78,54.88
5717,C4,983.333,0.167,85,54.88
5718,D4,983.5,0.167,80,54.88
5719,F1,983.5,0.5,98,54.88
5720,C4,983.667,0.167,85,54.88
5721,D4,983.833,0.167,78,54.88
5722,C4,984.0,0.167,85,54.88
5723,A2,984.0,0.167,72,54.88
5724,D4,984.167,0.167,80,54.88
5725,B-2,984.167,0.167,65,54.88
5726,C4,984.333,0.167,85,54.88
5727,A2,984.333,0.167,72,54.88
5728,D4,984.5,0.167,73,54.88
5729,B-2,984.5,0.167,64,54.88
5730,C4,984.667,0.167,82,54.88
5731,A2,984.667,0.167,72,54.88
5732,D4,984.833,0.167,73,54.88
5733,B-2,984.833,0.167,64,54.88
5734,B-3,985.0,1.0,78,54.88
5735,A2,985.0,0.167,72,54.88
5736,D3,985.0,1.0,72,54.88
5737,B-2,985.167,0.167,65,54.88
5738,A2,985.333,0.167,72,54.88
5739,B-2,985.5,0.125,70,54.88
5740,A2,985.625,0.125,63,54.88
5741,G2,985.75,0.125,63,54.88
5742,A2,985.875,0.125,63,54.88
5743,B-2,986.0,1.0,84,54.88
5744,B-3,986.5,0.25,65,54.88
5745,C4,986.75,0.25,60,54.88
5746,D4,987.0,0.25,68,54.88
5747,E-4,987.25,0.25,60,54.88
5748,B-2,987.5,0.25,60,54.88
5749,D4,987.5,0.25,60,54.88
5750,F4,987.5,0.25,60,54.88
5751,A2,987.75,0.25,54,54.88
5752,C4,987.75,0.25,60,54.88
5753,G4,987.75,0.25,60,54.88
5754,B-3,988.0,0.25,60,54.88
5755,E-4,988.0,1.0,72,54.88
5756,G2,988.0,0.25,60,54.88
5757,A3,988.25,0.25,60,54.88
5758,F2,988.25,0.25,53,54.88
5759,G3,988.5,0.25,60,54.88
5760,E-2,988.5,0.25,53,54.88
5761,F3,988.75,0.25,60,54.88
5762,D2,988.75,0.25,53,54.88
5763,B-3,989.0,1.0,72,54.88
5764,G2,989.0,1.0,65,54.88
5765,D4,989.5,0.25,65,54.88
5766,E-4,989.75,0.25,56,54.88
5767,F4,990.0,0.25,66,54.88
5768,G4,990.25,0.25,60,54.88
5769,B-3,990.5,0.75,60,54.88
5770,A4,990.5,0.25,60,54.88
5771,G2,990.5,0.25,60,54.88
5772,B-4,990.75,0.25,60,54.88
5773,F2,990.75,0.25,54,54.88
5774,G4,991.0,1.0,74,54.88
5775,E-2,991.0,0.25,60,54.88
5776,B3,991.25,0.25,60,54.88
5777,D2,991.25,0.25,53,54.88
5778,C4,991.5,0.25,60,54.88
5779,C2,991.5,0.25,53,54.88
5780,D4,991.75,0.25,60,54.88
5781,B1,991.75,0.25,53,54.88
5782,E-4,992.0,1.0,72,54.88
5783,C2,992.0,1.0,65,54.88
5784,F4,992.5,0.25,66,54.88
5785,G4,992.75,0.25,60,54.88
5786,A4,993.0,0.25,71,54.88
5787,G4,993.25,0.25,62,54.88
5788,E-4,993.5,1.0,55,54.88
5789,A4,993.5,0.25,62,54.88
5790,E-3,993.5,0.25,60,54.88
5791,B-4,993.75,0.25,62,54.88
5792,D3,993.75,0.25,53,54.88
5793,C5,994.0,0.25,72,54.88
5794,C3,994.0,0.25,60,54.88
5795,B-4,994.25,0.25,65,54.88
5796,D3,994.25,0.25,53,54.88
5797,E4,994.5,1.0,59,54.88
5798,C5,994.5,0.25,65,54.88
5799,C3,994.5,0.25,53,54.88
5800,D5,994.75,0.25,65,54.88
5801,B-2,994.75,0.25,53,54.88
5802,E-5,995.0,0.25,78,54.88
5803,A2,995.0,0.25,64,54.88
5804,D5,995.25,0.25,69,54.88
5805,B-2,995.25,0.25,58,54.88
5806,F4,995.5,2.0,60,54.88
5807,C5,995.5,0.25,72,54.88
5808,A2,995.5,0.25,61,54.88
5809,D5,995.75,0.25,75,54.88
5810,G2,995.75,0.25,64,54.88
5811,E-5,996.0,0.25,86,54.88
5812,F2,996.0,0.25,72,54.88
5813,D5,996.25,0.25,76,54.88
5814,G2,996.25,0.25,60,54.88
5815,C#5,996.5,0.25,73,54.88
5816,A2,996.5,0.25,60,54.88
5817,C5,996.75,0.25,72,54.88
5818,B-2,996.75,0.25,60,54.88
5819,B-4,997.0,0.25,77,54.88
5820,C3,997.0,0.25,68,54.88
5821,A4,997.25,0.25,64,54.88
5822,C#3,997.25,0.25,56,54.88
5823,E-4,997.5,0.5,54,54.88
5824,G4,997.5,0.25,63,54.88
5825,D3,997.5,0.25,56,54.88
5826,A4,997.75,0.25,64,54.88
5827,C3,997.75,0.25,56,54.88
5828,D4,998.0,1.0,63,54.88
5829,B-4,998.0,0.25,74,54.88
5830,B-2,998.0,0.25,66,54.88
5831,A4,998.25,0.25,63,54.88
5832,C3,998.25,0.25,57,54.88
5833,G4,998.5,0.25,62,54.88
5834,D3,998.5,0.25,57,54.88
5835,F4,998.75,0.5,62,54.88
5836,E-3,998.75,0.25,57,54.88
5837,C4,999.0,0.5,65,54.88
5838,E3,999.0,0.25,60,54.88
5839,F#5,999.25,0.25,68,54.88
5840,E-3,999.25,0.25,55,54.88
5841,G5,999.5,0.25,74,54.88
5842,D3,999.5,0.25,60,54.88
5843,F5,999.75,0.25,69,54.88
5844,E-3,999.75,0.25,54,54.88
5845,E-5,1000.0,0.25,71,54.88
5846,F3,1000.0,0.25,59,54.88
5847,D5,1000.25,0.25,64,54.88
5848,G3,1000.25,0.25,56,54.88
5849,C5,1000.5,0.25,67,54.88
5850,A3,1000.5,0.25,61,54.88
5851,B-4,1000.75,0.25,69,54.88
5852,B-3,1000.75,0.25,57,54.88
5853,A4,1001.0,0.25,74,54.88
5854,C4,1001.0,0.25,63,54.88
5855,B-4,1001.25,0.25,65,54.88
5856,B-3,1001.25,0.25,60,54.88
5857,A4,1001.5,0.25,67,54.88
5858,C4,1001.5,0.25,66,54.88
5859,G4,1001.75,0.25,68,54.88
5860,D4,1001.75,0.25,62,54.88
5861,F4,1002.0,0.25,81,54.88
5862,E-4,1002.0,0.25,68,54.88
5863,G4,1002.25,0.25,71,54.88
5864,D4,1002.25,0.25,63,54.88
5865,A4,1002.5,0.25,71,54.88
5866,C#4,1002.5,0.25,62,54.88
5867,B-4,1002.75,0.25,71,54.88
5868,C4,1002.75,0.25,60,54.88
5869,C5,1003.0,0.25,80,54.88
5870,B-3,1003.0,0.25,65,54.88
5871,C#5,1003.25,0.25,70,54.88
5872,A3,1003.25,0.25,60,54.88
5873,D5,1003.5,0.25,70,54.88
5874,G3,1003.5,0.25,57,54.88
5875,C5,1003.75,0.25,70,54.88
5876,A3,1003.75,0.25,55,54.88
5877,B-4,1004.0,0.5,65,54.88
5878,D5,1004.0,0.25,81,54.88
5879,B-3,1004.0,0.25,63,54.88
5880,E5,1004.25,0.25,70,54.88
5881,A3,1004.25,0.25,57,54.88
5882,F5,1004.5,0.25,70,54.88
5883,G3,1004.5,0.25,58,54.88
5884,G5,1004.75,0.5,81,54.88
5885,F3,1004.75,0.25,58,54.88
5886,G3,1005.0,0.167,58,54.88
5887,E3,1005.0,1.0,50,54.88
5888,A3,1005.167,0.167,52,54.88
5889,C5,1005.25,0.25,70,54.88
5890,G3,1005.333,0.167,58,54.88
5891,D5,1005.5,0.25,71,54.88
5892,A3,1005.5,0.167,52,54.88
5893,G3,1005.667,0.167,58,54.88
5894,E5,1005.75,0.25,72,54.88
5895,A3,1005.833,0.167,53,54.88
5896,F5,1006.0,0.25,73,54.88
5897,G3,1006.0,0.167,58,54.88
5898,B-2,1006.0,1.0,58,54.88
5899,A3,1006.167,0.167,53,54.88
5900,G5,1006.25,0.25,74,54.88
5901,G3,1006.333,0.167,58,54.88
5902,A5,1006.5,0.25,75,54.88
5903,A3,1006.5,0.167,54,54.88
5904,G3,1006.667,0.167,58,54.88
5905,B-5,1006.75,0.25,76,54.88
5906,A3,1006.833,0.167,54,54.88
5907,C6,1007.0,0.25,77,54.88
5908,F3,1007.0,1.0,54,54.88
5909,A2,1007.0,1.0,54,54.88
5910,A5,1007.25,0.25,68,54.88
5911,G5,1007.5,0.25,73,54.88
5912,F5,1007.75,0.25,72,54.88
5913,E-5,1008.0,0.25,81,54.88
5914,A3,1008.0,0.167,58,54.88
5915,F#3,1008.0,1.0,50,54.88
5916,B-3,1008.167,0.167,52,54.88
5917,D5,1008.25,0.25,71,54.88
5918,A3,1008.333,0.167,58,54.88
5919,E5,1008.5,0.25,71,54.88
5920,B-3,1008.5,0.167,52,54.88
5921,A3,1008.667,0.167,58,54.88
5922,F#5,1008.75,0.25,71,54.88
5923,B-3,1008.833,0.167,53,54.88
5924,G5,1009.0,0.25,79,54.88
5925,C3,1009.0,1.0,58,54.88
5926,A3,1009.0,0.167,58,54.88
5927,B-3,1009.167,0.167,53,54.88
5928,A5,1009.25,0.25,72,54.88
5929,A3,1009.333,0.167,58,54.88
5930,B-5,1009.5,0.25,81,54.88
5931,B-3,1009.5,0.167,54,54.88
5932,A3,1009.667,0.167,58,54.88
5933,C6,1009.75,0.25,71,54.88
5934,B-3,1009.833,0.167,54,54.88
5935,D6,1010.0,0.25,85,54.88
5936,G3,1010.0,1.0,54,54.88
5937,B-2,1010.0,1.0,54,54.88
5938,B-5,1010.25,0.25,76,54.88
5939,A5,1010.5,0.25,76,54.88
5940,G5,1010.75,0.25,76,54.88
5941,F5,1011.0,0.25,82,54.88
5942,G3,1011.0,1.0,50,54.88
5943,B-3,1011.0,0.167,58,54.88
5944,C4,1011.167,0.167,52,54.88
5945,E-5,1011.25,0.25,73,54.88
5946,B-3,1011.333,0.167,58,54.88
5947,F5,1011.5,0.25,76,54.88
5948,C4,1011.5,0.167,52,54.88
5949,B-3,1011.667,0.167,58,54.88
5950,G5,1011.75,0.25,79,54.88
5951,C4,1011.833,0.167,53,54.88
5952,A5,1012.0,0.25,82,54.88
5953,B-3,1012.0,0.167,58,54.88
5954,D3,1012.0,1.0,58,54.88
5955,C4,1012.167,0.167,53,54.88
5956,B-5,1012.25,0.25,84,54.88
5957,B-3,1012.333,0.167,58,54.88
5958,C6,1012.5,0.25,87,54.88
5959,C4,1012.5,0.167,54,54.88
5960,B-3,1012.667,0.167,58,54.88
5961,D6,1012.75,0.25,90,54.88
5962,C4,1012.833,0.167,54,54.88
5963,E-6,1013.0,0.5,93,54.88
5964,A3,1013.0,1.0,58,54.88
5965,C3,1013.0,0.5,51,54.88
5966,F#2,1013.5,0.75,52,54.88
5967,A4,1014.0,1.0,69,54.88
5968,C5,1014.0,0.167,74,54.88
5969,D5,1014.167,0.167,70,54.88
5970,G2,1014.25,0.25,48,54.88
5971,C5,1014.333,0.167,74,54.88
5972,D5,1014.5,0.167,70,54.88
5973,A2,1014.5,0.25,50,54.88
5974,C5,1014.667,0.167,74,54.88
5975,B-2,1014.75,0.25,53,54.88
5976,D5,1014.833,0.167,70,54.88
5977,E-4,1015.0,1.0,69,54.88
5978,C5,1015.0,0.167,74,54.88
5979,C3,1015.0,0.25,55,54.88
5980,D5,1015.167,0.167,69,54.88
5981,D3,1015.25,0.25,58,54.88
5982,C5,1015.333,0.167,74,54.88
5983,D5,1015.5,0.125,70,54.88
5984,E3,1015.5,0.25,60,54.88
5985,C5,1015.625,0.125,74,54.88
5986,B-4,1015.75,0.125,68,54.88
5987,F#3,1015.75,0.25,63,54.88
5988,C5,1015.875,0.125,68,54.88
5989,D4,1016.0,0.5,69,54.88
5990,B-4,1016.0,1.0,81,54.88
5991,G2,1016.0,0.25,65,54.88
5992,G3,1016.25,0.25,55,54.88
5993,C#4,1016.5,0.5,69,54.88
5994,F2,1016.5,0.25,62,54.88
5995,F3,1016.75,0.25,51,54.88
5996,G4,1017.0,1.0,69,54.88
5997,B-4,1017.0,0.167,74,54.88
5998,E2,1017.0,0.25,53,54.88
5999,C5,1017.167,0.167,70,54.88
6000,F2,1017.25,0.25,48,54.88
6001,B-4,1017.333,0.167,74,54.88
6002,C5,1017.5,0.167,70,54.88
6003,G2,1017.5,0.25,50,54.88
6004,B-4,1017.667,0.167,74,54.88
6005,A2,1017.75,0.25,53,54.88
6006,C5,1017.833,0.167,70,54.88
6007,C#4,1018.0,1.0,69,54.88
6008,B-4,1018.0,0.167,74,54.88
6009,B-2,1018.0,0.25,55,54.88
6010,C5,1018.167,0.167,69,54.88
6011,C3,1018.25,0.25,58,54.88
6012,B-4,1018.333,0.167,74,54.88
6013,C5,1018.5,0.125,70,54.88
6014,D3,1018.5,0.25,60,54.88
6015,B-4,1018.625,0.125,74,54.88
6016,A4,1018.75,0.125,68,54.88
6017,E3,1018.75,0.25,63,54.88
6018,B-4,1018.875,0.125,68,54.88
6019,F2,1019.0,0.25,65,54.88
6020,C4,1019.0,0.5,75,54.88
6021,A4,1019.0,0.5,75,54.88
6022,F3,1019.25,0.25,55,54.88
6023,E-2,1019.5,0.25,62,54.88
6024,G#4,1019.5,0.5,64,54.88
6025,B3,1019.5,0.5,64,54.88
6026,E-3,1019.75,0.25,51,54.88
6027,F4,1020.0,1.0,69,54.88
6028,G#4,1020.0,0.167,74,54.88
6029,D2,1020.0,0.25,53,54.88
6030,B-4,1020.167,0.167,70,54.88
6031,E-2,1020.25,0.25,48,54.88
6032,G#4,1020.333,0.167,74,54.88
6033,B-4,1020.5,0.167,70,54.88
6034,F2,1020.5,0.25,50,54.88
6035,G#4,1020.667,0.167,74,54.88
6036,G2,1020.75,0.25,53,54.88
6037,B-4,1020.833,0.167,70,54.88
6038,B3,1021.0,1.0,69,54.88
6039,G#4,1021.0,0.167,74,54.88
6040,G#2,1021.0,0.25,55,54.88
6041,B-4,1021.167,0.167,69,54.88
6042,B-2,1021.25,0.25,58,54.88
6043,G#4,1021.333,0.167,74,54.88
6044,B-4,1021.5,0.125,70,54.88
6045,C3,1021.5,0.25,60,54.88
6046,G#4,1021.625,0.125,74,54.88
6047,G4,1021.75,0.125,68,54.88
6048,D3,1021.75,0.25,63,54.88
6049,G#4,1021.875,0.125,68,54.88
6050,B-3,1022.0,0.5,69,54.88
6051,G4,1022.0,1.0,81,54.88
6052,E-2,1022.0,0.25,74,54.88
6053,E-3,1022.25,0.25,63,54.88
6054,E4,1022.5,0.5,62,54.88
6055,C#3,1022.5,0.5,64,54.88
6056,C#2,1022.5,0.5,64,54.88
6057,B-1,1023.0,0.167,66,54.88
6058,C#3,1023.0,0.25,66,54.88
6059,C2,1023.167,0.167,52,54.88
6060,C3,1023.25,0.25,53,54.88
6061,B-1,1023.333,0.167,66,54.88
6062,D3,1023.5,0.25,53,54.88
6063,C2,1023.5,0.167,52,54.88
6064,B-1,1023.667,0.167,66,54.88
6065,E3,1023.75,0.25,53,54.88
6066,C2,1023.833,0.167,52,54.88
6067,B-1,1024.0,0.167,66,54.88
6068,F3,1024.0,0.25,57,54.88
6069,C2,1024.167,0.167,52,54.88
6070,G3,1024.25,0.25,59,54.88
6071,B-1,1024.333,0.167,66,54.88
6072,G4,1024.5,0.5,62,54.88
6073,C2,1024.5,0.167,52,54.88
6074,A3,1024.5,0.25,61,54.88
6075,B-1,1024.667,0.167,66,54.88
6076,B-3,1024.75,0.25,63,54.88
6077,C2,1024.833,0.167,52,54.88
6078,E4,1025.0,0.5,69,54.88
6079,A1,1025.0,1.0,66,54.88
6080,C4,1025.0,0.25,65,54.88
6081,A3,1025.25,0.25,64,54.88
6082,F4,1025.5,0.5,61,54.88
6083,G3,1025.5,0.25,62,54.88
6084,F3,1025.75,0.25,60,54.88
6085,E-3,1026.0,0.25,66,54.88
6086,C2,1026.0,0.167,66,54.88
6087,D2,1026.167,0.167,52,54.88
6088,D3,1026.25,0.25,53,54.88
6089,C2,1026.333,0.167,66,54.88
6090,D2,1026.5,0.167,52,54.88
6091,E3,1026.5,0.25,53,54.88
6092,C2,1026.667,0.167,66,54.88
6093,F#3,1026.75,0.25,53,54.88
6094,D2,1026.833,0.167,52,54.88
6095,C2,1027.0,0.167,66,54.88
6096,G3,1027.0,0.25,57,54.88
6097,D2,1027.167,0.167,52,54.88
6098,A3,1027.25,0.25,59,54.88
6099,C2,1027.331,0.167,66,54.88
6100,A4,1027.5,0.5,62,54.88
6101,D2,1027.5,0.167,52,54.88
6102,B-3,1027.5,0.25,61,54.88
6103,C2,1027.667,0.167,66,54.88
6104,C4,1027.75,0.25,63,54.88
6105,D2,1027.833,0.167,52,54.88
6106,F#4,1028.0,0.5,69,54.88
6107,B-1,1028.0,1.0,66,54.88
6108,D4,1028.0,0.25,65,54.88
6109,B-3,1028.25,0.25,64,54.88
6110,G4,1028.5,0.5,61,54.88
6111,A3,1028.5,0.25,62,54.88
6112,G3,1028.75,0.25,60,54.88
6113,F3,1029.0,0.25,66,54.88
6114,D2,1029.0,0.167,66,54.88
6115,E-2,1029.167,0.167,52,54.88
6116,E-3,1029.25,0.25,53,54.88
6117,D2,1029.333,0.167,66,54.88
6118,F3,1029.5,0.25,53,54.88
6119,E-2,1029.5,0.167,52,54.88
6120,D2,1029.667,0.167,66,54.88
6121,G3,1029.75,0.25,53,54.88
6122,E-2,1029.833,0.167,52,54.88
6123,A3,1030.0,0.25,57,54.88
6124,D2,1030.0,0.167,66,54.88
6125,E-2,1030.167,0.167,52,54.88
6126,B-3,1030.25,0.25,59,54.88
6127,D2,1030.333,0.167,66,54.88
6128,B-4,1030.5,0.5,62,54.88
6129,C4,1030.5,0.25,61,54.88
6130,E-2,1030.5,0.167,52,54.88
6131,D2,1030.667,0.167,66,54.88
6132,D4,1030.75,0.25,63,54.88
6133,E-2,1030.833,0.167,52,54.88
6134,G4,1031.0,0.5,69,54.88
6135,C2,1031.0,1.0,66,54.88
6136,E-4,1031.0,0.25,65,54.88
6137,C4,1031.25,0.25,64,54.88
6138,A4,1031.5,0.5,61,54.88
6139,B-3,1031.5,0.25,62,54.88
6140,A3,1031.75,0.25,60,54.88
6141,A4,1032.0,0.25,55,54.88
6142,C5,1032.0,0.5,61,54.88
6143,E-2,1032.0,0.167,66,54.88
6144,F2,1032.167,0.167,60,54.88
6145,F4,1032.25,0.25,49,54.88
6146,E-2,1032.333,0.167,66,54.88
6147,G4,1032.5,0.25,55,54.88
6148,F5,1032.5,1.0,66,54.88
6149,F2,1032.5,0.125,62,54.88
6150,E-2,1032.625,0.125,55,54.88
6151,A4,1032.75,0.25,50,54.88
6152,D2,1032.75,0.125,55,54.88
6153,E-2,1032.875,0.125,55,54.88
6154,B-4,1033.0,0.25,55,54.88
6155,D2,1033.0,1.0,63,54.88
6156,A4,1033.25,0.25,48,54.88
6157,B-4,1033.5,0.25,55,54.88
6158,D5,1033.5,0.5,61,54.88
6159,F4,1033.75,0.25,43,54.88
6160,G4,1034.0,0.25,55,54.88
6161,C5,1034.0,0.5,61,54.88
6162,E2,1034.0,0.5,63,54.88
6163,F#4,1034.25,0.25,48,54.88
6164,G4,1034.5,0.25,55,54.88
6165,B-4,1034.5,0.5,57,54.88
6166,E3,1034.5,0.5,57,54.88
6167,C4,1034.75,0.5,49,54.88
6168,A4,1035.0,0.5,61,54.88
6169,F3,1035.0,3.0,37,54.88
6170,E-4,1035.25,0.25,49,54.88
6171,G#4,1035.5,0.5,58,54.88
6172,D4,1035.5,0.25,48,54.88
6173,C4,1035.75,0.25,48,54.88
6174,G4,1036.0,0.25,49,54.88
6175,G5,1036.0,1.5,73,54.88
6176,B3,1036.0,0.25,48,54.88
6177,A4,1036.25,0.25,59,54.88
6178,C4,1036.25,0.25,52,54.88
6179,B4,1036.5,0.25,57,54.88
6180,D4,1036.5,0.25,49,54.88
6181,C5,1036.75,0.25,55,54.88
6182,E-4,1036.75,0.25,46,54.88
6183,C#5,1037.0,0.25,53,54.88
6184,E4,1037.0,0.25,53,54.88
6185,D5,1037.25,0.25,51,54.88
6186,F4,1037.25,0.25,43,54.88
6187,E-5,1037.5,0.25,59,54.88
6188,F5,1037.5,0.5,59,54.88
6189,G4,1037.5,0.25,49,54.88
6190,D5,1037.75,0.25,41,54.88
6191,F4,1037.75,0.25,40,54.88
6192,F5,1038.0,0.5,52,54.88
6193,C4,1038.0,0.25,45,54.88
6194,F3,1038.0,3.0,37,54.88
6195,D4,1038.25,0.25,41,54.88
6196,E-5,1038.5,0.5,47,54.88
6197,E-4,1038.5,0.25,45,54.88
6198,D4,1038.75,0.25,39,54.88
6199,F#4,1039.0,0.25,45,54.88
6200,D5,1039.0,0.5,52,54.88
6201,G4,1039.25,0.25,41,54.88
6202,G#4,1039.5,0.25,45,54.88
6203,C5,1039.5,0.5,47,54.88
6204,G4,1039.75,0.25,41,54.88
6205,B4,1040.0,0.5,52,54.88
6206,F4,1040.0,0.25,45,54.88
6207,E-4,1040.25,0.25,41,54.88
6208,C5,1040.5,0.5,46,54.88
6209,D4,1040.5,0.25,45,54.88
6210,E-4,1040.75,0.25,41,54.88
6211,A4,1041.0,0.25,57,54.88
6212,F5,1041.0,0.5,57,54.88
6213,C4,1041.0,0.25,48,54.88
6214,F3,1041.0,3.0,37,54.88
6215,B-4,1041.25,0.25,50,54.88
6216,D4,1041.25,0.25,41,54.88
6217,A4,1041.5,0.25,55,54.88
6218,C4,1041.5,0.25,48,54.88
6219,G4,1041.75,0.25,49,54.88
6220,B-3,1041.75,0.25,41,54.88
6221,F4,1042.0,0.25,58,54.88
6222,E-5,1042.0,1.5,68,54.88
6223,A3,1042.0,0.25,48,54.88
6224,G4,1042.25,0.25,55,54.88
6225,B-3,1042.25,0.25,52,54.88
6226,A4,1042.5,0.25,54,54.88
6227,C4,1042.5,0.25,49,54.88
6228,B-4,1042.75,0.25,52,54.88
6229,D4,1042.75,0.25,46,54.88
6230,B4,1043.0,0.25,50,54.88
6231,E-4,1043.0,0.25,53,54.88
6232,C5,1043.25,0.25,49,54.88
6233,E4,1043.25,0.25,43,54.88
6234,D5,1043.5,0.25,59,54.88
6235,E-5,1043.5,0.5,59,54.88
6236,F4,1043.5,0.25,49,54.88
6237,C5,1043.75,0.25,41,54.88
6238,E-4,1043.75,0.25,40,54.88
6239,E-5,1044.0,0.5,52,54.88
6240,F3,1044.0,2.5,37,54.88
6241,B-3,1044.0,0.25,45,54.88
6242,C4,1044.25,0.25,41,54.88
6243,D5,1044.5,0.5,47,54.88
6244,D4,1044.5,0.25,45,54.88
6245,E-4,1044.75,0.25,39,54.88
6246,E4,1045.0,0.25,45,54.88
6247,C5,1045.0,0.5,52,54.88
6248,F4,1045.25,0.25,41,54.88
6249,G4,1045.5,0.25,45,54.88
6250,B-4,1045.5,0.5,47,54.88
6251,F4,1045.75,0.25,41,54.88
6252,A4,1046.0,0.5,52,54.88
6253,E-4,1046.0,0.25,45,54.88
6254,D4,1046.25,0.25,41,54.88
6255,B-4,1046.5,0.5,46,54.88
6256,C4,1046.5,0.25,45,54.88
6257,F#3,1046.5,0.5,37,54.88
6258,B-3,1046.75,0.25,41,54.88
6259,B3,1047.0,0.25,64,54.88
6260,G3,1047.0,0.25,71,54.88
6261,G2,1047.0,0.25,71,54.88
6262,C4,1047.25,0.25,57,54.88
6263,B3,1047.5,0.25,57,54.88
6264,A3,1047.75,0.25,57,54.88
6265,G3,1048.0,0.25,65,54.88
6266,F2,1048.0,1.5,78,54.88
6267,F3,1048.0,1.5,78,54.88
6268,A3,1048.25,0.25,58,54.88
6269,B3,1048.5,0.25,59,54.88
6270,C4,1048.75,0.25,59,54.88
6271,C#4,1049.0,0.25,65,54.88
6272,D4,1049.25,0.25,58,54.88
6273,E-4,1049.5,0.25,58,54.88
6274,F3,1049.5,0.5,66,54.88
6275,F2,1049.5,0.5,66,54.88
6276,D4,1049.75,0.25,58,54.88
6277,C5,1050.0,0.5,57,54.88
6278,C4,1050.0,0.25,64,54.88
6279,F3,1050.0,0.5,68,54.88
6280,F2,1050.0,0.5,68,54.88
6281,D4,1050.25,0.25,57,54.88
6282,E4,1050.5,0.25,57,54.88
6283,E2,1050.5,0.375,59,54.88
6284,E3,1050.5,0.375,59,54.88
6285,F4,1050.75,0.25,57,54.88
6286,B-4,1051.0,1.5,68,54.88
6287,F#4,1051.0,0.25,64,54.88
6288,C#3,1051.0,0.5,61,54.88
6289,C#2,1051.0,0.5,61,54.88
6290,G4,1051.25,0.25,57,54.88
6291,G#4,1051.5,0.25,57,54.88
6292,C2,1051.5,0.375,54,54.88
6293,C3,1051.5,0.375,54,54.88
6294,G4,1051.75,0.25,57,54.88
6295,F4,1052.0,0.25,63,54.88
6296,B1,1052.0,0.5,61,54.88
6297,B2,1052.0,0.5,61,54.88
6298,E4,1052.25,0.25,56,54.88
6299,B-4,1052.5,0.5,59,54.88
6300,C#4,1052.5,0.25,56,54.88
6301,C2,1052.5,0.375,52,54.88
6302,C3,1052.5,0.375,52,54.88
6303,C4,1052.75,0.25,56,54.88
6304,A4,1053.0,0.25,64,54.88
6305,F3,1053.0,0.25,71,54.88
6306,F2,1053.0,0.25,71,54.88
6307,B-4,1053.25,0.25,57,54.88
6308,A4,1053.5,0.25,57,54.88
6309,G4,1053.75,0.25,57,54.88
6310,F4,1054.0,0.25,65,54.88
6311,E-2,1054.0,1.5,78,54.88
6312,E-3,1054.0,1.5,78,54.88
6313,G4,1054.25,0.25,58,54.88
6314,A4,1054.5,0.25,59,54.88
6315,B-4,1054.75,0.25,59,54.88
6316,B4,1055.0,0.25,65,54.88
6317,C5,1055.25,0.25,58,54.88
6318,D5,1055.5,0.25,58,54.88
6319,E-3,1055.5,0.5,66,54.88
6320,E-2,1055.5,0.5,66,54.88
6321,C5,1055.75,0.25,58,54.88
6322,B-4,1056.0,0.25,64,54.88
6323,E-3,1056.0,0.5,68,54.88
6324,E-2,1056.0,0.5,68,54.88
6325,C5,1056.25,0.25,57,54.88
6326,D5,1056.5,0.25,57,54.88
6327,D3,1056.5,0.375,59,54.88
6328,D2,1056.5,0.375,59,54.88
6329,E-5,1056.75,0.25,57,54.88
6330,E5,1057.0,0.25,64,54.88
6331,C3,1057.0,0.5,61,54.88
6332,C2,1057.0,0.5,61,54.88
6333,F5,1057.25,0.25,57,54.88
6334,G5,1057.5,0.25,57,54.88
6335,B2,1057.5,0.375,54,54.88
6336,B1,1057.5,0.375,54,54.88
6337,F5,1057.75,0.25,57,54.88
6338,G4,1058.0,0.5,66,54.88
6339,B4,1058.0,0.25,63,54.88
6340,D5,1058.25,0.25,56,54.88
6341,F4,1058.5,0.375,56,54.88
6342,E-5,1058.5,0.25,56,54.88
6343,F5,1058.75,0.25,56,54.88
6344,F4,1059.0,0.5,68,54.88
6345,B4,1059.0,0.25,64,54.88
6346,C5,1059.25,0.25,57,54.88
6347,E-4,1059.5,0.375,62,54.88
6348,D5,1059.5,0.25,57,54.88
6349,C5,1059.75,0.25,57,54.88
6350,D4,1060.0,0.5,66,54.88
6351,D5,1060.0,0.25,64,54.88
6352,E-5,1060.25,0.25,57,54.88
6353,C4,1060.5,0.375,61,54.88
6354,F5,1060.5,0.25,57,54.88
6355,E-5,1060.75,0.25,57,54.88
6356,A4,1061.0,0.25,63,54.88
6357,F3,1061.0,0.5,61,54.88
6358,F2,1061.0,0.5,61,54.88
6359,C5,1061.25,0.25,56,54.88
6360,D5,1061.5,0.25,56,54.88
6361,E-2,1061.5,0.375,56,54.88
6362,E-3,1061.5,0.375,56,54.88
6363,E-5,1061.75,0.25,56,54.88
6364,E5,1062.0,0.25,64,54.88
6365,E-3,1062.0,0.5,61,54.88
6366,E-2,1062.0,0.5,61,54.88
6367,F5,1062.25,0.25,57,54.88
6368,G5,1062.5,0.25,57,54.88
6369,D2,1062.5,0.375,56,54.88
6370,D3,1062.5,0.375,56,54.88
6371,F5,1062.75,0.25,57,54.88
6372,A5,1063.0,0.25,64,54.88
6373,C2,1063.0,0.5,61,54.88
6374,C3,1063.0,0.5,61,54.88
6375,B-5,1063.25,0.25,57,54.88
6376,C6,1063.5,0.25,57,54.88
6377,B-1,1063.5,0.375,56,54.88
6378,B-2,1063.5,0.375,56,54.88
6379,B-5,1063.75,0.25,57,54.88
6380,E-5,1064.0,0.5,66,54.88
6381,F#5,1064.0,0.25,63,54.88
6382,G5,1064.25,0.25,56,54.88
6383,D5,1064.5,0.375,56,54.88
6384,A5,1064.5,0.25,56,54.88
6385,G5,1064.75,0.25,56,54.88
6386,D5,1065.0,0.5,68,54.88
6387,G#5,1065.0,0.25,64,54.88
6388,A5,1065.25,0.25,57,54.88
6389,C5,1065.5,0.375,62,54.88
6390,B-5,1065.5,0.25,57,54.88
6391,A5,1065.75,0.25,57,54.88
6392,B-4,1066.0,0.5,66,54.88
6393,B5,1066.0,0.25,64,54.88
6394,C6,1066.25,0.25,57,54.88
6395,A4,1066.5,0.375,61,54.88
6396,D6,1066.5,0.25,57,54.88
6397,C6,1066.75,0.25,57,54.88
6398,D5,1067.0,0.5,66,54.88
6399,E5,1067.0,0.25,63,54.88
6400,F#5,1067.25,0.25,56,54.88
6401,C5,1067.5,0.375,56,54.88
6402,G5,1067.5,0.25,56,54.88
6403,F#5,1067.75,0.25,56,54.88
6404,C5,1068.0,0.5,68,54.88
6405,G5,1068.0,0.25,64,54.88
6406,G#5,1068.25,0.25,57,54.88
6407,B-4,1068.5,0.375,62,54.88
6408,A5,1068.5,0.25,57,54.88
6409,G5,1068.75,0.25,57,54.88
6410,D5,1069.0,0.5,66,54.88
6411,B-5,1069.0,0.25,64,54.88
6412,B5,1069.25,0.25,57,54.88
6413,E-5,1069.5,0.375,61,54.88
6414,C6,1069.5,0.25,57,54.88
6415,B-5,1069.75,0.25,57,54.88
6416,D5,1070.0,0.5,66,54.88
6417,G#5,1070.0,0.25,63,54.88
6418,A5,1070.25,0.25,56,54.88
6419,C5,1070.5,0.375,56,54.88
6420,B-5,1070.5,0.25,56,54.88
6421,A5,1070.75,0.25,56,54.88
6422,E5,1071.0,0.5,68,54.88
6423,C#6,1071.0,0.25,64,54.88
6424,D6,1071.25,0.25,57,54.88
6425,F5,1071.5,0.375,62,54.88
6426,E-6,1071.5,0.25,57,54.88
6427,D6,1071.75,0.25,57,54.88
6428,E-5,1072.0,0.5,66,54.88
6429,B5,1072.0,0.25,64,54.88
6430,C6,1072.25,0.25,57,54.88
6431,D5,1072.5,0.375,61,54.88
6432,D6,1072.5,0.25,57,54.88
6433,B-5,1072.75,0.25,57,54.88
6434,C#5,1073.0,0.25,70,54.88
6435,F#2,1073.0,0.5,70,54.88
6436,F#3,1073.0,0.5,70,54.88
6437,D5,1073.25,0.25,65,54.88
6438,C5,1073.5,0.3,71,54.88
6439,G3,1073.5,0.25,61,54.88
6440,G2,1073.5,0.25,61,54.88
6441,B-4,1073.75,0.25,67,54.88
6442,G#4,1074.0,0.25,64,54.88
6443,B4,1074.0,0.5,83,54.88
6444,F2,1074.0,0.5,66,54.88
6445,F3,1074.0,0.5,66,54.88
6446,D4,1074.25,0.25,61,54.88
6447,G4,1074.5,0.3,70,54.88
6448,C5,1074.5,0.3,70,54.88
6449,E3,1074.5,0.25,61,54.88
6450,E2,1074.5,0.25,61,54.88
6451,E4,1074.75,0.25,61,54.88
6452,D4,1075.0,0.25,64,54.88
6453,B-4,1075.0,0.5,82,54.88
6454,G3,1075.0,0.5,66,54.88
6455,G2,1075.0,0.5,66,54.88
6456,E4,1075.25,0.25,62,54.88
6457,C#4,1075.5,0.3,70,54.88
6458,A4,1075.5,0.3,70,54.88
6459,A3,1075.5,0.25,61,54.88
6460,A2,1075.5,0.25,61,54.88
6461,E4,1075.75,0.25,61,54.88
6462,B-4,1076.0,0.25,64,54.88
6463,C#5,1076.0,0.5,83,54.88
6464,G2,1076.0,0.5,68,54.88
6465,G3,1076.0,0.5,68,54.88
6466,E4,1076.25,0.25,61,54.88
6467,A4,1076.5,0.3,70,54.88
6468,D5,1076.5,0.3,70,54.88
6469,F#2,1076.5,0.25,61,54.88
6470,F#3,1076.5,0.25,61,54.88
6471,F#4,1076.75,0.25,64,54.88
6472,E-4,1077.0,0.25,64,54.88
6473,C5,1077.0,0.5,83,54.88
6474,A2,1077.0,0.5,70,54.88
6475,A3,1077.0,0.5,70,54.88
6476,F#4,1077.25,0.25,61,54.88
6477,D4,1077.5,0.3,70,54.88
6478,B-4,1077.5,0.3,70,54.88
6479,B-3,1077.5,0.25,61,54.88
6480,B-2,1077.5,0.25,61,54.88
6481,G4,1077.75,0.25,62,54.88
6482,B-4,1078.0,0.25,64,54.88
6483,E-5,1078.0,0.5,83,54.88
6484,F#2,1078.0,0.5,68,54.88
6485,F#3,1078.0,0.5,68,54.88
6486,A4,1078.25,0.25,63,54.88
6487,B-4,1078.5,0.3,70,54.88
6488,E5,1078.5,0.3,70,54.88
6489,G2,1078.5,0.25,61,54.88
6490,G3,1078.5,0.25,61,54.88
6491,G4,1078.75,0.25,62,54.88
6492,C#5,1079.0,0.25,64,54.88
6493,F#5,1079.0,0.5,82,54.88
6494,E-2,1079.0,0.5,71,54.88
6495,E-3,1079.0,0.5,71,54.88
6496,C5,1079.25,0.25,63,54.88
6497,C#5,1079.5,0.3,70,54.88
6498,G5,1079.5,0.3,70,54.88
6499,E2,1079.5,0.25,61,54.88
6500,E3,1079.5,0.25,61,54.88
6501,B-4,1079.75,0.25,62,54.88
6502,E4,1080.0,0.5,83,54.88
6503,G4,1080.0,0.5,83,54.88
6504,B-4,1080.0,0.5,83,54.88
6505,B-3,1080.0,0.5,61,54.88
6506,C#4,1080.0,0.5,61,54.88
6507,E6,1081.0,0.167,88,54.88
6508,B-2,1081.0,2.0,69,54.88
6509,G2,1081.0,0.167,65,54.88
6510,C#6,1081.0,2.0,74,54.88
6511,B-5,1081.0,2.0,74,54.88
6512,F6,1081.167,0.167,80,54.88
6513,A2,1081.167,0.167,57,54.88
6514,E6,1081.333,0.167,88,54.88
6515,G2,1081.333,0.167,65,54.88
6516,F6,1081.5,0.167,79,54.88
6517,A2,1081.5,0.167,58,54.88
6518,E6,1081.667,0.167,89,54.88
6519,G2,1081.667,0.167,66,54.88
6520,F6,1081.833,0.167,82,54.88
6521,A2,1081.833,0.167,58,54.88
6522,E6,1082.0,0.167,90,54.88
6523,G2,1082.0,0.167,66,54.88
6524,F6,1082.167,0.167,82,54.88
6525,A2,1082.167,0.167,61,54.88
6526,E6,1082.333,0.167,91,54.88
6527,G2,1082.333,0.167,67,54.88
6528,F6,1082.5,0.125,81,54.88
6529,A2,1082.5,0.125,58,54.88
6530,E6,1082.625,0.125,88,54.88
6531,G2,1082.625,0.125,69,54.88
6532,D6,1082.75,0.125,84,54.88
6533,F2,1082.75,0.125,62,54.88
6534,E6,1082.875,0.125,89,54.88
6535,G2,1082.875,0.125,66,54.88
6536,G6,1083.0,1.0,98,54.88
6537,B-3,1083.5,0.125,92,54.88
6538,E5,1084.0,0.167,88,54.88
6539,F5,1084.167,0.167,80,54.88
6540,E5,1084.333,0.167,88,54.88
6541,F5,1084.5,0.167,79,54.88
6542,G6,1084.5,0.25,88,54.88
6543,E5,1084.667,0.167,89,54.88
6544,F6,1084.75,0.25,79,54.88
6545,F5,1084.833,0.167,82,54.88
6546,E5,1085.0,0.167,90,54.88
6547,E6,1085.0,0.25,88,54.88
6548,F5,1085.167,0.167,82,54.88
6549,C#6,1085.25,0.25,79,54.88
6550,E5,1085.333,0.167,91,54.88
6551,C6,1085.5,0.25,88,54.88
6552,F5,1085.5,0.125,81,54.88
6553,E5,1085.625,0.125,88,54.88
6554,B-5,1085.75,0.25,79,54.88
6555,D5,1085.75,0.125,84,54.88
6556,E5,1085.875,0.125,89,54.88
6557,F5,1086.0,1.0,98,54.88
6558,A5,1086.5,0.125,92,54.88
6559,A6,1087.0,0.5,98,54.88
6560,F5,1087.5,0.25,86,54.88
6561,E4,1087.5,0.5,62,54.88
6562,E5,1087.75,0.25,85,54.88
6563,D5,1088.0,0.25,83,54.88
6564,F4,1088.0,0.5,73,54.88
6565,C5,1088.25,0.25,82,54.88
6566,B-4,1088.5,0.25,81,54.88
6567,A4,1088.75,0.25,80,54.88
6568,D5,1089.0,1.0,98,54.88
6569,F5,1089.5,0.125,92,54.88
6570,F6,1090.0,0.5,98,54.88
6571,D5,1090.5,0.25,86,54.88
6572,C#4,1090.5,0.5,62,54.88
6573,C5,1090.75,0.25,85,54.88
6574,B-4,1091.0,0.25,83,54.88
6575,D4,1091.0,0.5,73,54.88
6576,A4,1091.25,0.25,82,54.88
6577,G4,1091.5,0.25,81,54.88
6578,F4,1091.75,0.25,80,54.88
6579,B-4,1092.0,1.0,98,54.88
6580,D5,1092.5,0.5,85,54.88
6581,D6,1093.0,0.5,97,54.88
6582,C6,1093.5,0.5,95,54.88
6583,B-4,1093.5,0.3,70,54.88
6584,A4,1093.75,0.3,65,54.88
6585,B-5,1094.0,0.5,92,54.88
6586,G4,1094.0,0.3,70,54.88
6587,A4,1094.25,0.3,61,54.88
6588,B5,1094.5,0.5,90,54.88
6589,G4,1094.5,0.3,67,54.88
6590,F4,1094.75,0.3,61,54.88
6591,C6,1095.0,0.5,90,54.88
6592,E4,1095.0,0.3,68,54.88
6593,F4,1095.25,0.3,62,54.88
6594,E4,1095.5,0.3,62,54.88
6595,D4,1095.75,0.3,62,54.88
6596,B-5,1096.0,1.5,94,54.88
6597,C4,1096.0,0.3,66,54.88
6598,D4,1096.25,0.3,59,54.88
6599,E4,1096.5,0.3,63,54.88
6600,F4,1096.75,0.3,59,54.88
6601,F#4,1097.0,0.3,66,54.88
6602,G4,1097.25,0.3,59,54.88
6603,B-5,1097.5,0.5,87,54.88
6604,A4,1097.5,0.3,65,54.88
6605,G4,1097.75,0.25,60,54.88
6606,F5,1098.0,0.3,74,54.88
6607,B-4,1098.0,0.5,85,54.88
6608,G5,1098.25,0.3,68,54.88
6609,A5,1098.5,0.3,68,54.88
6610,B-5,1098.75,0.3,68,54.88
6611,B5,1099.0,0.3,72,54.88
6612,A4,1099.0,1.5,89,54.88
6613,C6,1099.25,0.3,64,54.88
6614,D6,1099.5,0.3,69,54.88
6615,C6,1099.75,0.3,64,54.88
6616,B-5,1100.0,0.3,72,54.88
6617,A5,1100.25,0.3,64,54.88
6618,G5,1100.5,0.3,71,54.88
6619,A4,1100.5,0.5,82,54.88
6620,F5,1100.75,0.25,66,54.88
6621,D6,1101.0,0.5,90,54.88
6622,F#4,1101.0,0.3,68,54.88
6623,G4,1101.25,0.3,62,54.88
6624,F#4,1101.5,0.3,62,54.88
6625,E4,1101.75,0.3,62,54.88
6626,C6,1102.0,1.5,94,54.88
6627,D4,1102.0,0.3,66,54.88
6628,E4,1102.25,0.3,59,54.88
6629,F#4,1102.5,0.3,63,54.88
6630,G4,1102.75,0.3,59,54.88
6631,G#4,1103.0,0.3,66,54.88
6632,A4,1103.25,0.3,59,54.88
6633,C6,1103.5,0.5,87,54.88
6634,B-4,1103.5,0.3,65,54.88
6635,A4,1103.75,0.25,60,54.88
6636,G5,1104.0,0.3,74,54.88
6637,C5,1104.0,0.5,85,54.88
6638,A5,1104.25,0.3,68,54.88
6639,B-5,1104.5,0.3,68,54.88
6640,C6,1104.75,0.3,68,54.88
6641,C#6,1105.0,0.3,72,54.88
6642,B-4,1105.0,1.5,89,54.88
6643,D6,1105.25,0.3,64,54.88
6644,E-6,1105.5,0.3,69,54.88
6645,D6,1105.75,0.3,64,54.88
6646,C6,1106.0,0.3,72,54.88
6647,B-5,1106.25,0.3,64,54.88
6648,A5,1106.5,0.3,71,54.88
6649,B-4,1106.5,0.5,82,54.88
6650,G5,1106.75,0.25,66,54.88
6651,F6,1107.0,0.5,90,54.88
6652,A4,1107.0,0.3,68,54.88
6653,B-4,1107.25,0.3,62,54.88
6654,A4,1107.5,0.3,62,54.88
6655,G4,1107.75,0.3,62,54.88
6656,E-6,1108.0,1.5,94,54.88
6657,F4,1108.0,0.3,66,54.88
6658,G4,1108.25,0.3,59,54.88
6659,A4,1108.5,0.3,63,54.88
6660,B-4,1108.75,0.3,59,54.88
6661,B4,1109.0,0.3,66,54.88
6662,C5,1109.25,0.3,59,54.88
6663,E-6,1109.5,0.5,87,54.88
6664,D5,1109.5,0.3,65,54.88
6665,C5,1109.75,0.25,60,54.88
6666,B-5,1110.0,0.3,74,54.88
6667,E-5,1110.0,0.5,85,54.88
6668,C6,1110.25,0.3,68,54.88
6669,D6,1110.5,0.3,68,54.88
6670,E-6,1110.75,0.3,68,54.88
6671,E6,1111.0,0.3,72,54.88
6672,D5,1111.0,1.5,89,54.88
6673,F6,1111.25,0.3,65,54.88
6674,G6,1111.5,0.3,70,54.88
6675,F6,1111.75,0.3,65,54.88
6676,E6,1112.0,0.3,74,54.88
6677,F6,1112.25,0.3,65,54.88
6678,F#6,1112.5,0.3,73,54.88
6679,E-5,1112.5,0.25,85,54.88
6680,F6,1112.75,0.25,68,54.88
6681,C#5,1112.75,0.25,76,54.88
6682,D6,1113.0,0.3,75,54.88
6683,B4,1113.0,0.3,86,54.88
6684,E-6,1113.25,0.3,70,54.88
6685,C5,1113.25,0.3,79,54.88
6686,F6,1113.5,0.3,70,54.88
6687,C#5,1113.5,0.3,79,54.88
6688,E-6,1113.75,0.25,71,54.88
6689,C5,1113.75,0.25,80,54.88
6690,C6,1114.0,0.3,76,54.88
6691,A4,1114.0,0.3,86,54.88
6692,C#6,1114.25,0.3,71,54.88
6693,B-4,1114.25,0.3,83,54.88
6694,E-6,1114.5,0.3,71,54.88
6695,C5,1114.5,0.3,83,54.88
6696,C#6,1114.75,0.25,71,54.88
6697,B-4,1114.75,0.25,83,54.88
6698,B5,1115.0,0.3,77,54.88
6699,G#4,1115.0,0.3,88,54.88
6700,C6,1115.25,0.3,72,54.88
6701,A4,1115.25,0.3,84,54.88
6702,C#6,1115.5,0.3,73,54.88
6703,B-4,1115.5,0.3,85,54.88
6704,C6,1115.75,0.25,73,54.88
6705,A4,1115.75,0.25,85,54.88
6706,E-5,1116.0,0.25,89,54.88
6707,F1,1116.0,0.25,84,54.88
6708,F#6,1116.5,0.5,95,54.88
6709,F#4,1117.0,2.5,66,54.88
6710,C5,1117.0,2.0,66,54.88
6711,F5,1117.0,0.25,72,54.88
6712,A2,1117.0,0.167,66,54.88
6713,B-2,1117.167,0.167,58,54.88
6714,E-5,1117.25,0.25,65,54.88
6715,A2,1117.333,0.167,66,54.88
6716,F5,1117.5,0.25,72,54.88
6717,B-2,1117.5,0.167,59,54.88
6718,A2,1117.667,0.167,66,54.88
6719,E-5,1117.75,0.25,67,54.88
6720,B-2,1117.833,0.167,60,54.88
6721,F5,1118.0,0.25,72,54.88
6722,A2,1118.0,0.167,66,54.88
6723,B-2,1118.167,0.167,66,54.88
6724,E-5,1118.25,0.25,67,54.88
6725,A2,1118.333,0.167,66,54.88
6726,D5,1118.5,0.25,72,54.88
6727,B-2,1118.5,0.125,60,54.88
6728,A2,1118.625,0.125,66,54.88
6729,E-5,1118.75,0.25,66,54.88
6730,G2,1118.75,0.125,60,54.88
6731,A2,1118.875,0.125,60,54.88
6732,D5,1119.0,1.0,74,54.88
6733,B-2,1119.0,1.0,71,54.88
6734,B-3,1119.5,0.5,73,54.88
6735,F4,1119.5,0.5,73,54.88
6736,B-4,1120.0,0.5,75,54.88
6737,D5,1120.5,0.25,69,54.88
6738,B-2,1120.5,0.25,60,54.88
6739,E-5,1120.75,0.25,61,54.88
6740,A2,1120.75,0.25,52,54.88
6741,F5,1121.0,0.25,66,54.88
6742,G2,1121.0,0.25,59,54.88
6743,G5,1121.25,0.25,67,54.88
6744,F2,1121.25,0.25,59,54.88
6745,A5,1121.5,0.25,68,54.88
6746,E-2,1121.5,0.25,63,54.88
6747,B-5,1121.75,0.25,69,54.88
6748,D2,1121.75,0.25,64,54.88
6749,F5,1122.0,1.0,78,54.88
6750,F2,1122.0,1.0,69,54.88
6751,D4,1122.5,0.5,73,54.88
6752,D5,1123.0,0.5,75,54.88
6753,F5,1123.5,0.25,69,54.88
6754,G2,1123.5,0.25,60,54.88
6755,G5,1123.75,0.25,61,54.88
6756,F2,1123.75,0.25,52,54.88
6757,A5,1124.0,0.25,66,54.88
6758,E-2,1124.0,0.25,59,54.88
6759,B-5,1124.25,0.25,67,54.88
6760,D2,1124.25,0.25,59,54.88
6761,C6,1124.5,0.25,68,54.88
6762,C2,1124.5,0.25,63,54.88
6763,D6,1124.75,0.25,69,54.88
6764,B-1,1124.75,0.25,64,54.88
6765,G5,1125.0,1.0,78,54.88
6766,E-2,1125.0,1.0,69,54.88
6767,E-4,1125.5,0.5,73,54.88
6768,E-5,1126.0,0.5,75,54.88
6769,G5,1126.5,0.25,69,54.88
6770,E-2,1126.5,0.25,60,54.88
6771,A5,1126.75,0.25,61,54.88
6772,D2,1126.75,0.25,52,54.88
6773,B-5,1127.0,0.25,66,54.88
6774,C2,1127.0,0.25,59,54.88
6775,B5,1127.25,0.25,67,54.88
6776,D2,1127.25,0.25,59,54.88
6777,C6,1127.5,0.25,68,54.88
6778,C2,1127.5,0.25,63,54.88
6779,D6,1127.75,0.25,69,54.88
6780,B-1,1127.75,0.25,64,54.88
6781,E-6,1128.0,0.5,78,54.88
6782,A1,1128.0,0.5,59,54.88
6783,E6,1128.5,0.75,83,54.88
6784,A2,1128.5,0.25,60,54.88
6785,G2,1128.75,0.25,52,54.88
6786,F3,1129.0,0.5,59,54.88
6787,F2,1129.0,0.5,59,54.88
6788,F6,1129.25,0.25,73,54.88
6789,E-6,1129.5,0.25,81,54.88
6790,D6,1129.75,0.25,78,54.88
6791,C6,1130.0,0.25,79,54.88
6792,A4,1130.0,0.167,59,54.88
6793,B-4,1130.167,0.167,54,54.88
6794,B-5,1130.25,0.25,75,54.88
6795,A4,1130.333,0.167,59,54.88
6796,A5,1130.5,0.25,75,54.88
6797,B-4,1130.5,0.167,54,54.88
6798,A4,1130.667,0.167,59,54.88
6799,G5,1130.75,0.25,75,54.88
6800,B-4,1130.833,0.167,53,54.88
6801,F5,1131.0,0.25,80,54.88
6802,A4,1131.0,0.167,59,54.88
6803,B-4,1131.167,0.167,54,54.88
6804,G5,1131.25,0.25,70,54.88
6805,A4,1131.333,0.167,59,54.88
6806,F5,1131.5,0.25,76,54.88
6807,B-4,1131.5,0.125,53,54.88
6808,A4,1131.625,0.125,56,54.88
6809,E-5,1131.75,0.25,68,54.88
6810,G4,1131.75,0.125,53,54.88
6811,A4,1131.875,0.125,53,54.88
6812,D5,1132.0,0.25,74,54.88
6813,B-4,1132.0,1.0,59,54.88
6814,E-5,1132.25,0.25,68,54.88
6815,F5,1132.5,0.25,73,54.88
6816,B-2,1132.5,0.25,73,54.88
6817,E5,1132.75,0.25,66,54.88
6818,F5,1133.0,0.5,78,54.88
6819,D4,1133.0,0.125,73,54.88
6820,E-4,1133.125,0.125,68,54.88
6821,D4,1133.25,0.125,73,54.88
6822,E-4,1133.375,0.125,68,54.88
6823,B-4,1133.5,0.25,73,54.88
6824,A4,1133.75,0.25,74,54.88
6825,G4,1134.0,0.25,72,54.88
6826,F4,1134.25,0.25,69,54.88
6827,E-4,1134.5,0.25,67,54.88
6828,D4,1134.75,0.25,64,54.88
6829,B3,1135.0,0.5,78,54.88
6830,G4,1135.0,1.0,73,54.88
6831,E-5,1136.0,0.167,64,54.88
6832,F5,1136.167,0.167,59,54.88
6833,E-5,1136.333,0.167,64,54.88
6834,F5,1136.5,0.167,59,54.88
6835,G4,1136.5,0.25,73,54.88
6836,E-5,1136.667,0.167,64,54.88
6837,F4,1136.75,0.25,74,54.88
6838,F5,1136.833,0.167,58,54.88
6839,E-5,1137.0,0.167,64,54.88
6840,E-4,1137.0,0.25,72,54.88
6841,F5,1137.167,0.167,59,54.88
6842,D4,1137.25,0.25,69,54.88
6843,E-5,1137.333,0.167,64,54.88
6844,F5,1137.5,0.125,58,54.88
6845,C4,1137.5,0.25,67,54.88
6846,E-5,1137.625,0.125,61,54.88
6847,D5,1137.75,0.125,58,54.88
6848,B3,1137.75,0.25,64,54.88
6849,E-5,1137.875,0.125,58,54.88
6850,G5,1138.0,1.0,64,54.88
6851,E-4,1138.0,1.0,73,54.88
6852,E-3,1138.5,0.25,73,54.88
6853,C4,1139.0,0.125,73,54.88
6854,D4,1139.125,0.125,68,54.88
6855,C4,1139.25,0.125,73,54.88
6856,D4,1139.375,0.125,68,54.88
6857,G5,1139.5,0.25,73,54.88
6858,E-4,1139.5,0.25,62,54.88
6859,F5,1139.75,0.25,74,54.88
6860,D4,1139.75,0.25,62,54.88
6861,E-5,1140.0,0.25,72,54.88
6862,C4,1140.0,0.25,61,54.88
6863,D5,1140.25,0.25,69,54.88
6864,B3,1140.25,0.25,58,54.88
6865,C5,1140.5,0.25,67,54.88
6866,A3,1140.5,0.25,56,54.88
6867,B4,1140.75,0.25,64,54.88
6868,G3,1140.75,0.25,54,54.88
6869,C5,1141.0,1.0,73,54.88
6870,C2,1141.0,0.5,73,54.88
6871,E-4,1141.0,1.0,62,54.88
6872,G4,1142.0,1.0,73,54.88
6873,E3,1142.0,0.167,59,54.88
6874,F3,1142.167,0.167,54,54.88
6875,E3,1142.333,0.167,59,54.88
6876,C5,1142.5,0.25,73,54.88
6877,F3,1142.5,0.167,54,54.88
6878,E3,1142.667,0.167,59,54.88
6879,B-4,1142.75,0.25,70,54.88
6880,F3,1142.833,0.167,53,54.88
6881,C4,1143.0,1.0,73,54.88
6882,A4,1143.0,0.25,72,54.88
6883,E3,1143.0,0.167,59,54.88
6884,F3,1143.167,0.167,54,54.88
6885,G4,1143.25,0.25,69,54.88
6886,E3,1143.333,0.167,59,54.88
6887,F4,1143.5,0.25,67,54.88
6888,F3,1143.5,0.125,53,54.88
6889,E3,1143.625,0.125,56,54.88
6890,E4,1143.75,0.25,64,54.88
6891,D3,1143.75,0.125,53,54.88
6892,E3,1143.875,0.125,53,54.88
6893,D4,1144.0,0.25,64,54.88
6894,F3,1144.0,1.0,59,54.88
6895,C4,1144.25,0.25,61,54.88
6896,B-3,1144.5,0.25,59,54.88
6897,A3,1144.75,0.25,58,54.88
6898,A4,1145.0,0.5,73,54.88
6899,D4,1145.5,0.25,68,54.88
6900,F3,1145.5,0.25,64,54.88
6901,C4,1145.75,0.25,64,54.88
6902,E3,1145.75,0.25,59,54.88
6903,B-3,1146.0,0.25,68,54.88
6904,D3,1146.0,0.25,65,54.88
6905,A3,1146.25,0.25,65,54.88
6906,C3,1146.25,0.25,62,54.88
6907,G3,1146.5,0.25,63,54.88
6908,B-2,1146.5,0.25,59,54.88
6909,F3,1146.75,0.25,60,54.88
6910,A2,1146.75,0.25,56,54.88
6911,E3,1147.0,0.25,64,54.88
6912,G3,1147.0,1.0,86,54.88
6913,D3,1147.25,0.25,64,54.88
6914,C3,1147.5,0.25,62,54.88
6915,B-2,1147.75,0.25,61,54.88
6916,B-3,1148.0,0.5,76,54.88
6917,E-5,1148.5,0.25,76,54.88
6918,G3,1148.5,0.25,64,54.88
6919,D5,1148.75,0.25,71,54.88
6920,F3,1148.75,0.25,60,54.88
6921,C5,1149.0,0.25,77,54.88
6922,E-3,1149.0,0.25,64,54.88
6923,B-4,1149.25,0.25,74,54.88
6924,D3,1149.25,0.25,61,54.88
6925,A4,1149.5,0.25,71,54.88
6926,C3,1149.5,0.25,60,54.88
6927,G4,1149.75,0.25,68,54.88
6928,B-2,1149.75,0.25,59,54.88
6929,F4,1150.0,0.25,74,54.88
6930,A3,1150.0,1.0,64,54.88
6931,E-4,1150.25,0.25,73,54.88
6932,D4,1150.5,0.25,71,54.88
6933,C4,1150.75,0.25,69,54.88
6934,C5,1151.0,0.5,77,54.88
6935,C4,1151.5,0.25,74,54.88
6936,A3,1151.5,0.25,62,54.88
6937,B-3,1151.75,0.25,70,54.88
6938,G3,1151.75,0.25,59,54.88
6939,A3,1152.0,0.25,76,54.88
6940,F3,1152.0,0.25,64,54.88
6941,G3,1152.25,0.25,72,54.88
6942,E-3,1152.25,0.25,61,54.88
6943,F3,1152.5,0.25,70,54.88
6944,D3,1152.5,0.25,59,54.88
6945,E-3,1152.75,0.25,68,54.88
6946,C3,1152.75,0.25,57,54.88
6947,D3,1153.0,0.25,72,54.88
6948,B-2,1153.0,0.25,61,54.88
6949,C4,1153.25,0.25,79,54.88
6950,A3,1153.25,0.25,67,54.88
6951,B-3,1153.5,0.25,69,54.88
6952,G3,1153.5,0.25,58,54.88
6953,A3,1153.75,0.25,66,54.88
6954,F3,1153.75,0.25,56,54.88
6955,D4,1154.0,0.5,61,54.88
6956,D5,1154.0,0.25,76,54.88
6957,B-3,1154.0,0.25,64,54.88
6958,C5,1154.25,0.25,72,54.88
6959,A3,1154.25,0.25,61,54.88
6960,F5,1154.5,0.25,76,54.88
6961,D4,1154.5,0.25,64,54.88
6962,E-5,1154.75,0.25,71,54.88
6963,C4,1154.75,0.25,60,54.88
6964,D5,1155.0,0.25,79,54.88
6965,B-3,1155.0,0.25,67,54.88
6966,C5,1155.25,0.25,76,54.88
6967,A3,1155.25,0.25,64,54.88
6968,B-4,1155.5,0.25,74,54.88
6969,G3,1155.5,0.25,62,54.88
6970,A4,1155.75,0.25,71,54.88
6971,F3,1155.75,0.25,60,54.88
6972,G5,1156.0,0.25,78,54.88
6973,E-3,1156.0,0.25,66,54.88
6974,F5,1156.25,0.25,76,54.88
6975,D3,1156.25,0.25,64,54.88
6976,E-5,1156.5,0.25,73,54.88
6977,C3,1156.5,0.25,62,54.88
6978,D5,1156.75,0.25,71,54.88
6979,B-2,1156.75,0.25,60,54.88
6980,D5,1157.0,1.0,61,54.88
6981,B-5,1157.0,0.25,81,54.88
6982,G2,1157.0,0.25,68,54.88
6983,A5,1157.25,0.25,78,54.88
6984,A2,1157.25,0.25,66,54.88
6985,G5,1157.5,0.25,75,54.88
6986,B-2,1157.5,0.25,63,54.88
6987,F5,1157.75,0.25,72,54.88
6988,B2,1157.75,0.25,61,54.88
6989,C3,1158.0,0.25,61,54.88
6990,G4,1158.0,0.5,86,54.88
6991,E-5,1158.0,0.5,86,54.88
6992,D3,1158.25,0.25,62,54.88
6993,C5,1158.5,0.5,86,54.88
6994,E-3,1158.5,0.25,64,54.88
6995,D3,1158.75,0.25,62,54.88
6996,A6,1159.0,0.167,86,54.88
6997,C3,1159.0,0.25,61,54.88
6998,B-6,1159.167,0.167,82,54.88
6999,B-2,1159.25,0.25,58,54.88
7000,A6,1159.333,0.167,86,54.88
7001,C6,1159.5,0.5,86,54.88
7002,B-6,1159.5,0.167,81,54.88
7003,A2,1159.5,0.25,58,54.88
7004,A6,1159.667,0.167,86,54.88
7005,G2,1159.75,0.25,57,54.88
7006,B-6,1159.833,0.167,81,54.88
7007,A6,1160.0,0.167,86,54.88
7008,F2,1160.0,0.25,61,54.88
7009,B-6,1160.167,0.167,80,54.88
7010,E-2,1160.25,0.25,61,54.88
7011,A6,1160.333,0.167,86,54.88
7012,B-6,1160.5,0.125,86,54.88
7013,F6,1160.5,0.5,82,54.88
7014,D2,1160.5,0.25,64,54.88
7015,A6,1160.625,0.125,81,54.88
7016,G6,1160.75,0.125,80,54.88
7017,C2,1160.75,0.25,66,54.88
7018,A6,1160.875,0.125,80,54.88
7019,B-6,1161.0,1.0,90,54.88
7020,B-1,1161.0,0.5,76,54.88
7021,D6,1161.5,0.5,88,54.88
7022,D3,1162.0,0.167,64,54.88
7023,E-3,1162.167,0.167,59,54.88
7024,D3,1162.333,0.167,65,54.88
7025,B-6,1162.5,0.25,88,54.88
7026,E-3,1162.5,0.167,60,54.88
7027,D3,1162.667,0.167,66,54.88
7028,A6,1162.75,0.25,86,54.88
7029,E-3,1162.833,0.167,61,54.88
7030,G6,1163.0,0.25,83,54.88
7031,D3,1163.0,0.167,67,54.88
7032,E-3,1163.167,0.167,62,54.88
7033,F6,1163.25,0.25,81,54.88
7034,D3,1163.333,0.167,68,54.88
7035,E-6,1163.5,0.25,78,54.88
7036,E-3,1163.5,0.125,65,54.88
7037,D3,1163.625,0.125,69,54.88
7038,D6,1163.75,0.25,76,54.88
7039,C3,1163.75,0.125,65,54.88
7040,D3,1163.875,0.125,65,54.88
7041,E-3,1164.0,0.5,72,54.88
7042,E-4,1164.0,0.5,82,54.88
7043,G6,1164.0,0.5,82,54.88
7044,G5,1164.5,0.5,81,54.88
7045,G5,1165.0,0.167,69,54.88
7046,A5,1165.167,0.167,64,54.88
7047,G5,1165.333,0.167,68,54.88
7048,A5,1165.5,0.167,66,54.88
7049,G6,1165.5,0.25,88,54.88
7050,G5,1165.667,0.167,69,54.88
7051,F6,1165.75,0.25,86,54.88
7052,A5,1165.833,0.167,66,54.88
7053,G5,1166.0,0.167,71,54.88
7054,E-6,1166.0,0.25,83,54.88
7055,A5,1166.167,0.167,65,54.88
7056,D6,1166.25,0.25,81,54.88
7057,G5,1166.333,0.167,71,54.88
7058,A5,1166.5,0.167,69,54.88
7059,C6,1166.5,0.25,78,54.88
7060,G5,1166.667,0.167,73,54.88
7061,B-5,1166.75,0.25,76,54.88
7062,A5,1166.833,0.167,67,54.88
7063,E-6,1167.0,1.0,88,54.88
7064,G5,1167.0,0.167,75,54.88
7065,A5,1167.167,0.167,70,54.88
7066,G5,1167.333,0.167,74,54.88
7067,G#5,1167.5,0.5,72,54.88
7068,A5,1168.0,0.5,78,54.88
7069,E-6,1168.5,0.25,88,54.88
7070,E3,1168.5,0.5,67,54.88
7071,D6,1168.75,0.25,82,54.88
7072,C6,1169.0,0.25,88,54.88
7073,F3,1169.0,1.0,72,54.88
7074,D6,1169.25,0.25,82,54.88
7075,E4,1169.5,0.5,67,54.88
7076,C6,1169.5,0.25,83,54.88
7077,B-5,1169.75,0.25,83,54.88
7078,F4,1170.0,0.5,72,54.88
7079,A5,1170.0,0.25,88,54.88
7080,B-5,1170.25,0.25,83,54.88
7081,A5,1170.5,0.25,83,54.88
7082,F3,1170.5,0.5,72,54.88
7083,G5,1170.75,0.25,83,54.88
7084,F5,1171.0,0.25,88,54.88
7085,E-4,1171.0,1.5,66,54.88
7086,F#4,1171.0,1.5,66,54.88
7087,G5,1171.25,0.25,82,54.88
7088,A5,1171.5,0.25,82,54.88
7089,B-5,1171.75,0.25,82,54.88
7090,B5,1172.0,0.25,84,54.88
7091,C6,1172.25,0.25,85,54.88
7092,D6,1172.5,0.25,86,54.88
7093,F#4,1172.5,0.5,61,54.88
7094,E-4,1172.5,0.5,61,54.88
7095,C6,1172.75,0.25,84,54.88
7096,B-5,1173.0,0.25,89,54.88
7097,E-4,1173.0,0.5,64,54.88
7098,F#4,1173.0,0.5,64,54.88
7099,C6,1173.25,0.25,90,54.88
7100,D6,1173.5,0.25,92,54.88
7101,F4,1173.5,0.5,62,54.88
7102,D4,1173.5,0.5,62,54.88
7103,E-6,1173.75,0.25,94,54.88
7104,F6,1174.0,0.25,96,54.88
7105,C4,1174.0,0.5,60,54.88
7106,E-4,1174.0,0.5,60,54.88
7107,G#5,1174.25,0.25,82,54.88
7108,A5,1174.5,0.25,83,54.88
7109,D4,1174.5,0.5,58,54.88
7110,B-3,1174.5,0.5,58,54.88
7111,B-5,1174.75,0.25,87,54.88
7112,C6,1175.0,0.5,95,54.88
7113,D3,1175.0,0.25,63,54.88
7114,E-3,1175.25,0.25,56,54.88
7115,B-5,1175.5,0.5,88,54.88
7116,D3,1175.5,0.25,57,54.88
7117,C3,1175.75,0.25,57,54.88
7118,B-2,1176.0,0.25,63,54.88
7119,G5,1176.0,0.5,88,54.88
7120,B-5,1176.0,0.5,88,54.88
7121,C3,1176.25,0.25,58,54.88
7122,D3,1176.5,0.25,58,54.88
7123,F5,1176.5,0.5,82,54.88
7124,G#5,1176.5,0.5,82,54.88
7125,E-3,1176.75,0.25,58,54.88
7126,E3,1177.0,0.25,61,54.88
7127,B-4,1177.0,0.5,82,54.88
7128,G5,1177.0,0.5,82,54.88
7129,F3,1177.25,0.25,62,54.88
7130,G3,1177.5,0.25,64,54.88
7131,G#4,1177.5,0.5,78,54.88
7132,F5,1177.5,0.5,78,54.88
7133,F3,1177.75,0.25,62,54.88
7134,D3,1178.0,0.25,61,54.88
7135,G#6,1178.0,0.5,92,54.88
7136,F6,1178.0,0.5,92,54.88
7137,E-3,1178.25,0.25,63,54.88
7138,F3,1178.5,0.25,65,54.88
7139,E-6,1178.5,0.375,88,54.88
7140,G6,1178.5,0.375,88,54.88
7141,E-3,1178.75,0.25,63,54.88
7142,B2,1179.0,0.25,63,54.88
7143,G6,1179.0,0.5,93,54.88
7144,E-6,1179.0,0.5,93,54.88
7145,C3,1179.25,0.25,63,54.88
7146,D3,1179.5,0.25,65,54.88
7147,C6,1179.5,0.5,88,54.88
7148,E-6,1179.5,0.5,88,54.88
7149,E-3,1179.75,0.25,66,54.88
7150,E3,1180.0,0.25,68,54.88
7151,D6,1180.0,0.5,92,54.88
7152,B-5,1180.0,0.5,92,54.88
7153,F3,1180.25,0.25,70,54.88
7154,G3,1180.5,0.25,73,54.88
7155,F6,1180.5,0.375,83,54.88
7156,D6,1180.5,0.375,83,54.88
7157,F3,1180.75,0.25,69,54.88
7158,C5,1181.0,0.5,88,54.88
7159,E-5,1181.0,0.5,88,54.88
7160,A5,1181.0,0.5,88,54.88
7161,F3,1181.0,0.5,66,54.88
7162,F2,1181.0,0.5,66,54.88
7163,B-4,1181.5,0.5,89,54.88
7164,D5,1181.5,0.5,89,54.88
7165,B-5,1181.5,0.5,89,54.88
7166,B-1,1181.5,0.5,62,54.88
7167,B-2,1181.5,0.5,62,54.88
7168,G#5,1183.0,0.5,62,54.88
7169,F#4,1184.0,0.167,45,54.88
7170,B-1,1184.0,0.5,45,54.88
7171,G4,1184.167,0.167,42,54.88
7172,F#4,1184.333,0.167,48,54.88
7173,G4,1184.5,0.167,46,54.88
7174,F#4,1184.667,0.167,52,54.88
7175,G4,1184.833,0.167,48,54.88
7176,F#4,1185.0,0.167,56,54.88
7177,D3,1185.0,0.167,56,54.88
7178,G4,1185.167,0.167,51,54.88
7179,E-3,1185.167,0.167,51,54.88
7180,F#4,1185.333,0.167,58,54.88
7181,D3,1185.333,0.167,59,54.88
7182,G4,1185.5,0.125,55,54.88
7183,E-3,1185.5,0.125,55,54.88
7184,F#4,1185.625,0.125,63,54.88
7185,D3,1185.625,0.125,63,54.88
7186,G4,1185.75,0.125,58,54.88
7187,E-3,1185.75,0.125,56,54.88
7188,F#4,1185.875,0.125,60,54.88
7189,D3,1185.875,0.125,58,54.88
7190,F#5,1186.0,0.5,93,54.88
7191,E-3,1186.0,0.5,67,54.88
7192,E-4,1186.0,0.5,67,54.88
7193,E-4,1187.0,0.167,63,54.88
7194,F#5,1187.0,1.0,57,54.88
7195,F4,1187.167,0.167,57,54.88
7196,E-4,1187.333,0.167,66,54.88
7197,F4,1187.5,0.167,60,54.88
7198,E-4,1187.667,0.167,69,54.88
7199,F4,1187.833,0.167,64,54.88
7200,E-4,1188.0,0.167,73,54.88
7201,F#2,1188.0,0.5,80,54.88
7202,F#3,1188.0,0.5,80,54.88
7203,F4,1188.167,0.167,67,54.88
7204,E-4,1188.333,0.167,76,54.88
7205,F4,1188.5,0.125,71,54.88
7206,E-4,1188.625,0.125,80,54.88
7207,D4,1188.75,0.125,74,54.88
7208,E-4,1188.875,0.125,75,54.88
7209,F#4,1189.0,0.25,83,54.88
7210,E-1,1189.0,0.167,100,54.88
7211,F1,1189.167,0.167,56,54.88
7212,A2,1189.25,0.25,63,54.88
7213,E-1,1189.333,0.167,66,54.88
7214,C3,1189.5,0.25,65,54.88
7215,F1,1189.5,0.167,55,54.88
7216,E-1,1189.667,0.167,66,54.88
7217,E-3,1189.75,0.25,66,54.88
7218,F1,1189.833,0.167,54,54.88
7219,F#3,1190.0,0.25,68,54.88
7220,E-1,1190.0,0.167,64,54.88
7221,F1,1190.167,0.167,57,54.88
7222,A3,1190.25,0.25,70,54.88
7223,E-1,1190.333,0.167,63,54.88
7224,C4,1190.5,0.25,71,54.88
7225,F1,1190.5,0.167,53,54.88
7226,E-1,1190.667,0.167,62,54.88
7227,E-4,1190.75,0.25,73,54.88
7228,F1,1190.833,0.167,55,54.88
7229,F#4,1191.0,0.25,78,54.88
7230,E-1,1191.0,0.167,62,54.88
7231,F1,1191.167,0.167,52,54.88
7232,A3,1191.25,0.25,64,54.88
7233,E-1,1191.333,0.167,61,54.88
7234,C4,1191.5,0.25,66,54.88
7235,F1,1191.5,0.167,51,54.88
7236,E-1,1191.667,0.167,59,54.88
7237,E-4,1191.75,0.25,68,54.88
7238,F1,1191.833,0.167,50,54.88
7239,F#4,1192.0,0.25,69,54.88
7240,E-1,1192.0,0.167,58,54.88
7241,F1,1192.167,0.167,50,54.88
7242,A4,1192.25,0.25,71,54.88
7243,E-1,1192.333,0.167,57,54.88
7244,C5,1192.5,0.25,73,54.88
7245,F1,1192.5,0.167,51,54.88
7246,E-1,1192.667,0.167,57,54.88
7247,E-5,1192.75,0.25,75,54.88
7248,F1,1192.833,0.167,49,54.88
7249,F#5,1193.0,0.25,81,54.88
7250,E-1,1193.0,0.167,56,54.88
7251,F1,1193.167,0.167,49,54.88
7252,A4,1193.25,0.25,66,54.88
7253,E-1,1193.333,0.167,56,54.88
7254,C5,1193.5,0.25,67,54.88
7255,F1,1193.5,0.167,49,54.88
7256,E-1,1193.667,0.167,56,54.88
7257,E-5,1193.75,0.25,69,54.88
7258,F1,1193.833,0.167,48,54.88
7259,F#5,1194.0,0.25,71,54.88
7260,E-1,1194.0,0.167,56,54.88
7261,F1,1194.167,0.167,48,54.88
7262,A5,1194.25,0.25,72,54.88
7263,E-1,1194.333,0.167,56,54.88
7264,C6,1194.5,0.25,74,54.88
7265,F1,1194.5,0.167,48,54.88
7266,E-1,1194.667,0.167,56,54.88
7267,E-6,1194.75,0.25,76,54.88
7268,F1,1194.833,0.167,48,54.88
7269,F#6,1195.0,0.25,86,54.88
7270,E-1,1195.0,0.167,56,54.88
7271,F1,1195.167,0.167,49,54.88
7272,A4,1195.25,0.25,67,54.88
7273,E-1,1195.333,0.167,56,54.88
7274,C5,1195.5,0.25,70,54.88
7275,F1,1195.5,0.167,50,54.88
7276,E-1,1195.667,0.167,56,54.88
7277,E-5,1195.75,0.25,74,54.88
7278,F1,1195.833,0.167,49,54.88
7279,F#5,1196.0,0.25,77,54.88
7280,E-1,1196.0,0.167,56,54.88
7281,F1,1196.167,0.167,49,54.88
7282,A3,1196.25,0.25,63,54.88
7283,E-1,1196.333,0.167,56,54.88
7284,C4,1196.5,0.25,68,54.88
7285,F1,1196.5,0.167,49,54.88
7286,E-1,1196.667,0.167,56,54.88
7287,E-4,1196.75,0.25,72,54.88
7288,F1,1196.833,0.167,48,54.88
7289,F#4,1197.0,0.25,76,54.88
7290,E-1,1197.0,0.167,56,54.88
7291,F1,1197.167,0.167,48,54.88
7292,A2,1197.25,0.25,64,54.88
7293,E-1,1197.333,0.167,56,54.88
7294,C3,1197.5,0.25,69,54.88
7295,F1,1197.5,0.167,48,54.88
7296,E-1,1197.667,0.167,56,54.88
7297,E-3,1197.75,0.25,74,54.88
7298,F1,1197.833,0.167,48,54.88
7299,F#3,1198.0,1.0,79,54.88
7300,E-1,1198.0,0.167,56,54.88
7301,F1,1198.167,0.167,49,54.88
7302,E-1,1198.333,0.167,56,54.88
7303,F1,1198.5,0.167,50,54.88
7304,E-1,1198.667,0.167,56,54.88
7305,F1,1198.833,0.167,41,54.88
7306,F1,1199.0,1.0,30,54.88
7307,B-1,1199.0,0.167,54,54.88
7308,A2,1199.0,1.5,79,54.88
7309,F#2,1199.0,1.5,79,54.88
7310,E-3,1199.0,1.5,79,54.88
7311,C2,1199.167,0.167,44,54.88
7312,B-1,1199.333,0.167,52,54.88
7313,C2,1199.5,0.167,39,54.88
7314,B-1,1199.667,0.167,49,54.88
7315,C2,1199.833,0.167,38,54.88
7316,F1,1200.0,3.0,30,54.88
7317,B-1,1200.0,0.167,46,54.88
7318,C2,1200.167,0.167,36,54.88
7319,B-1,1200.333,0.167,44,54.88
7320,C2,1200.5,0.167,33,54.88
7321,F2,1200.5,0.5,70,54.88
7322,G#2,1200.5,0.5,70,54.88
7323,D3,1200.5,0.5,70,54.88
7324,B-1,1200.667,0.167,41,54.88
7325,C2,1200.833,0.167,30,54.88
7326,B-4,1201.0,0.25,50,54.88
7327,B-1,1201.0,0.167,37,54.88
7328,C2,1201.167,0.167,31,54.88
7329,G#4,1201.25,0.25,45,54.88
7330,B-1,1201.333,0.167,37,54.88
7331,B-4,1201.5,0.25,50,54.88
7332,C2,1201.5,0.167,32,54.88
7333,B-1,1201.667,0.167,37,54.88
7334,G#4,1201.75,0.25,45,54.88
7335,C2,1201.833,0.167,32,54.88
7336,B-4,1202.0,0.25,50,54.88
7337,B-1,1202.0,0.167,37,54.88
7338,C2,1202.167,0.167,31,54.88
7339,G#4,1202.25,0.25,45,54.88
7340,B-1,1202.333,0.167,37,54.88
7341,G4,1202.5,0.25,50,54.88
7342,C2,1202.5,0.167,30,54.88
7343,B-1,1202.667,0.167,37,54.88
7344,G#4,1202.75,0.25,45,54.88
7345,C2,1202.833,0.167,31,54.88
7346,B4,1203.0,1.0,58,54.88
7347,B-1,1203.0,0.167,37,54.88
7348,F1,1203.0,3.0,30,54.88
7349,C2,1203.167,0.167,31,54.88
7350,B-1,1203.333,0.167,37,54.88
7351,G#3,1203.5,0.5,53,54.88
7352,C2,1203.5,0.167,30,54.88
7353,B-1,1203.667,0.167,37,54.88
7354,C2,1203.833,0.167,31,54.88
7355,G#4,1204.0,0.5,50,54.88
7356,B-1,1204.0,0.167,37,54.88
7357,C2,1204.167,0.167,31,54.88
7358,B-1,1204.333,0.167,37,54.88
7359,B4,1204.5,0.25,46,54.88
7360,G5,1204.5,0.5,55,54.88
7361,C2,1204.5,0.167,30,54.88
7362,B-1,1204.667,0.167,37,54.88
7363,B-4,1204.75,0.25,50,54.88
7364,C2,1204.833,0.167,31,54.88
7365,G#4,1205.0,0.25,47,54.88
7366,G#5,1205.0,0.5,56,54.88
7367,B-1,1205.0,0.167,37,54.88
7368,C2,1205.167,0.167,31,54.88
7369,F#4,1205.25,0.25,48,54.88
7370,B-1,1205.333,0.167,37,54.88
7371,F4,1205.5,0.25,52,54.88
7372,C2,1205.5,0.167,30,54.88
7373,B-1,1205.667,0.167,37,54.88
7374,E-4,1205.75,0.25,48,54.88
7375,C2,1205.833,0.167,31,54.88
7376,G#4,1206.0,1.0,58,54.88
7377,B-1,1206.0,0.167,37,54.88
7378,F1,1206.0,3.0,30,54.88
7379,C2,1206.167,0.167,31,54.88
7380,B-1,1206.333,0.167,37,54.88
7381,F3,1206.5,0.5,53,54.88
7382,C2,1206.5,0.167,30,54.88
7383,B-1,1206.667,0.167,37,54.88
7384,C2,1206.833,0.167,31,54.88
7385,F4,1207.0,0.5,50,54.88
7386,B-1,1207.0,0.167,37,54.88
7387,C2,1207.167,0.167,31,54.88
7388,B-1,1207.333,0.167,37,54.88
7389,G#4,1207.5,0.25,46,54.88
7390,E5,1207.5,0.5,55,54.88
7391,C2,1207.5,0.167,30,54.88
7392,B-1,1207.667,0.167,37,54.88
7393,F#4,1207.75,0.25,50,54.88
7394,C2,1207.833,0.167,31,54.88
7395,F4,1208.0,0.25,47,54.88
7396,F5,1208.0,0.5,56,54.88
7397,B-1,1208.0,0.167,37,54.88
7398,C2,1208.167,0.167,31,54.88
7399,E-4,1208.25,0.25,48,54.88
7400,B-1,1208.333,0.167,37,54.88
7401,D4,1208.5,0.25,52,54.88
7402,C2,1208.5,0.167,30,54.88
7403,B-1,1208.667,0.167,37,54.88
7404,B3,1208.75,0.25,48,54.88
7405,C2,1208.833,0.167,31,54.88
7406,F#4,1209.0,1.0,58,54.88
7407,F1,1209.0,3.0,30,54.88
7408,B-1,1209.0,0.167,37,54.88
7409,C2,1209.167,0.167,31,54.88
7410,B-1,1209.333,0.167,37,54.88
7411,E-3,1209.5,0.5,53,54.88
7412,C2,1209.5,0.167,30,54.88
7413,B-1,1209.667,0.167,37,54.88
7414,C2,1209.833,0.167,31,54.88
7415,E-4,1210.0,0.5,50,54.88
7416,B-1,1210.0,0.167,37,54.88
7417,C2,1210.167,0.167,31,54.88
7418,B-1,1210.333,0.167,37,54.88
7419,F#4,1210.5,0.25,46,54.88
7420,D5,1210.5,0.5,55,54.88
7421,C2,1210.5,0.167,30,54.88
7422,B-1,1210.667,0.167,37,54.88
7423,F4,1210.75,0.25,50,54.88
7424,C2,1210.833,0.167,31,54.88
7425,E-4,1211.0,0.25,47,54.88
7426,E-5,1211.0,0.5,56,54.88
7427,B-1,1211.0,0.167,37,54.88
7428,C2,1211.167,0.167,31,54.88
7429,C#4,1211.25,0.25,48,54.88
7430,B-1,1211.333,0.167,37,54.88
7431,E-4,1211.5,0.75,56,54.88
7432,B3,1211.5,0.25,52,54.88
7433,C2,1211.5,0.167,30,54.88
7434,B-1,1211.667,0.167,37,54.88
7435,B-3,1211.75,0.25,48,54.88
7436,C2,1211.833,0.167,31,54.88
7437,A3,1212.0,0.5,50,54.88
7438,F1,1212.0,3.0,30,54.88
7439,B-1,1212.0,0.167,37,54.88
7440,C2,1212.167,0.167,31,54.88
7441,F4,1212.25,0.25,46,54.88
7442,B-1,1212.333,0.167,37,54.88
7443,E-4,1212.5,0.25,46,54.88
7444,C2,1212.5,0.167,30,54.88
7445,B-1,1212.667,0.167,37,54.88
7446,D4,1212.75,0.25,46,54.88
7447,C2,1212.833,0.167,31,54.88
7448,F#3,1213.0,1.5,52,54.88
7449,E-4,1213.0,0.25,52,54.88
7450,B-1,1213.0,0.167,37,54.88
7451,C2,1213.167,0.167,31,54.88
7452,C#4,1213.25,0.25,48,54.88
7453,B-1,1213.333,0.167,37,54.88
7454,C4,1213.5,0.25,48,54.88
7455,C2,1213.5,0.167,30,54.88
7456,B-1,1213.667,0.167,37,54.88
7457,B3,1213.75,0.25,48,54.88
7458,C2,1213.833,0.167,31,54.88
7459,C4,1214.0,0.25,54,54.88
7460,B-1,1214.0,0.167,37,54.88
7461,C2,1214.167,0.167,31,54.88
7462,B3,1214.25,0.25,48,54.88
7463,B-1,1214.333,0.167,37,54.88
7464,F#3,1214.5,0.5,48,54.88
7465,C4,1214.5,0.25,48,54.88
7466,C2,1214.5,0.167,30,54.88
7467,B-1,1214.667,0.167,37,54.88
7468,C#4,1214.75,0.25,48,54.88
7469,C2,1214.833,0.167,31,54.88
7470,B-1,1215.0,0.167,37,54.88
7471,F1,1215.0,3.0,30,54.88
7472,F#3,1215.0,0.5,52,54.88
7473,E-4,1215.0,0.5,52,54.88
7474,C2,1215.167,0.167,31,54.88
7475,B-1,1215.333,0.167,37,54.88
7476,F3,1215.5,0.5,48,54.88
7477,C2,1215.5,0.167,30,54.88
7478,B-1,1215.667,0.167,37,54.88
7479,C2,1215.833,0.167,31,54.88
7480,C4,1216.0,1.5,56,54.88
7481,F3,1216.0,0.5,48,54.88
7482,B-1,1216.0,0.167,37,54.88
7483,C2,1216.167,0.167,31,54.88
7484,B-1,1216.333,0.167,37,54.88
7485,E-3,1216.5,0.5,45,54.88
7486,C2,1216.5,0.167,30,54.88
7487,B-1,1216.667,0.167,37,54.88
7488,C2,1216.833,0.167,31,54.88
7489,D3,1217.0,0.5,55,54.88
7490,B-1,1217.0,0.167,37,54.88
7491,C2,1217.167,0.167,31,54.88
7492,B-1,1217.333,0.167,37,54.88
7493,C2,1217.5,0.167,30,54.88
7494,C4,1217.5,0.5,45,54.88
7495,E-3,1217.5,0.5,45,54.88
7496,B-1,1217.667,0.167,37,54.88
7497,C2,1217.833,0.167,31,54.88
7498,F1,1218.0,1.0,30,54.88
7499,B-1,1218.0,0.125,37,54.88
7500,E-3,1218.0,0.5,52,54.88
7501,C4,1218.0,0.5,52,54.88
7502,C2,1218.125,0.125,31,54.88
7503,B-1,1218.25,0.125,37,54.88
7504,C2,1218.375,0.125,30,54.88
7505,B-1,1218.5,0.125,37,54.88
7506,D3,1218.5,0.5,42,54.88
7507,B-3,1218.5,0.5,42,54.88
7508,C2,1218.625,0.125,31,54.88
7509,B-1,1218.75,0.125,37,54.88
7510,C2,1218.875,0.125,31,54.88
7511,F1,1219.0,1.0,30,54.88
7512,B-1,1219.0,0.125,37,54.88
7513,E-3,1219.0,0.5,47,54.88
7514,A3,1219.0,0.5,47,54.88
7515,C2,1219.125,0.125,30,54.88
7516,B-1,1219.25,0.125,37,54.88
7517,C2,1219.375,0.125,31,54.88
7518,B-1,1219.5,0.125,37,54.88
7519,D3,1219.5,0.5,40,54.88
7520,B-3,1219.5,0.5,40,54.88
7521,C2,1219.625,0.125,31,54.88
7522,B-1,1219.75,0.125,37,54.88
7523,C2,1219.875,0.125,30,54.88
7524,F1,1220.0,1.0,30,54.88
7525,B-1,1220.0,0.125,37,54.88
7526,A2,1220.0,0.5,44,54.88
7527,E-3,1220.0,0.5,44,54.88
7528,F#3,1220.0,0.5,44,54.88
7529,C2,1220.125,0.125,31,54.88
7530,B-1,1220.25,0.125,37,54.88
7531,C2,1220.375,0.125,31,54.88
7532,B-1,1220.5,0.125,37,54.88
7533,B-2,1220.5,0.5,35,54.88
7534,D3,1220.5,0.5,35,54.88
7535,F3,1220.5,0.5,35,54.88
7536,C2,1220.625,0.125,30,54.88
7537,B-1,1220.75,0.125,37,54.88
7538,C2,1220.875,0.125,31,54.88
7539,F1,1221.0,1.0,30,54.88
7540,B-1,1221.0,0.125,37,54.88
7541,F#3,1221.0,0.5,48,54.88
7542,A3,1221.0,0.5,48,54.88
7543,E-4,1221.0,0.5,48,54.88
7544,C2,1221.125,0.125,31,54.88
7545,B-1,1221.25,0.125,37,54.88
7546,C2,1221.375,0.125,31,54.88
7547,B-1,1221.5,0.125,37,54.88
7548,F3,1221.5,0.5,37,54.88
7549,B-3,1221.5,0.5,37,54.88
7550,D4,1221.5,0.5,37,54.88
7551,C2,1221.625,0.125,30,54.88
7552,B-1,1221.75,0.125,37,54.88
7553,C2,1221.875,0.125,31,54.88
7554,F1,1222.0,1.0,30,54.88
7555,B-1,1222.0,0.125,37,54.88
7556,E-4,1222.0,0.5,46,54.88
7557,F#4,1222.0,0.5,46,54.88
7558,A4,1222.0,0.5,46,54.88
7559,C2,1222.125,0.125,31,54.88
7560,B-1,1222.25,0.125,37,54.88
7561,C2,1222.375,0.125,31,54.88
7562,B-1,1222.5,0.125,37,54.88
7563,D4,1222.5,0.5,37,54.88
7564,F4,1222.5,0.5,37,54.88
7565,B-4,1222.5,0.5,37,54.88
7566,C2,1222.625,0.125,30,54.88
7567,B-1,1222.75,0.125,37,54.88
7568,C2,1222.875,0.125,31,54.88
7569,F1,1223.0,1.0,30,54.88
7570,B-1,1223.0,0.125,37,54.88
7571,A4,1223.0,0.5,47,54.88
7572,E-5,1223.0,0.5,47,54.88
7573,F#5,1223.0,0.5,47,54.88
7574,C2,1223.125,0.125,31,54.88
7575,B-1,1223.25,0.125,37,54.88
7576,C2,1223.375,0.167,37,54.88
7577,B-1,1223.5,0.167,37,54.88
7578,B-4,1223.5,0.5,40,54.88
7579,D5,1223.5,0.5,40,54.88
7580,F5,1223.5,0.5,40,54.88
7581,A1,1223.667,0.167,35,54.88
7582,B-1,1223.833,0.167,35,54.88
7583,A5,1224.0,0.125,52,54.88
7584,C5,1224.0,2.0,44,54.88
7585,E-5,1224.0,2.0,44,54.88
7586,F#1,1224.0,1.0,37,54.88
7587,B-1,1224.0,1.0,37,54.88
7588,F#2,1224.0,1.0,37,54.88
7589,B-5,1224.125,0.125,47,54.88
7590,A5,1224.25,0.125,52,54.88
7591,B-5,1224.375,0.125,47,54.88
7592,A5,1224.5,0.125,52,54.88
7593,B-5,1224.625,0.125,46,54.88
7594,A5,1224.75,0.125,52,54.88
7595,B-5,1224.875,0.125,47,54.88
7596,A5,1225.0,0.125,52,54.88
7597,G1,1225.0,2.0,37,54.88
7598,B-1,1225.0,2.0,37,54.88
7599,G2,1225.0,2.0,37,54.88
7600,B-5,1225.125,0.125,47,54.88
7601,A5,1225.25,0.125,52,54.88
7602,B-5,1225.375,0.125,48,54.88
7603,A5,1225.5,0.167,52,54.88
7604,G5,1225.667,0.167,47,54.88
7605,A5,1225.833,0.167,47,54.88
7606,B-4,1226.0,1.0,42,54.88
7607,C#5,1226.0,1.0,42,54.88
7608,B-5,1226.0,1.0,42,54.88
7609,E4,1227.0,0.125,44,54.88
7610,G3,1227.0,0.125,37,54.88
7611,F4,1227.125,0.125,39,54.88
7612,A3,1227.125,0.125,33,54.88
7613,E4,1227.25,0.125,44,54.88
7614,G3,1227.25,0.125,37,54.88
7615,F4,1227.375,0.125,39,54.88
7616,A3,1227.375,0.125,33,54.88
7617,E4,1227.5,0.125,44,54.88
7618,G3,1227.5,0.125,37,54.88
7619,F4,1227.625,0.125,39,54.88
7620,A3,1227.625,0.125,33,54.88
7621,E4,1227.75,0.125,44,54.88
7622,G3,1227.75,0.125,37,54.88
7623,F4,1227.875,0.125,39,54.88
7624,A3,1227.875,0.125,33,54.88
7625,E4,1228.0,0.125,44,54.88
7626,G3,1228.0,0.125,37,54.88
7627,B-4,1228.0,1.0,44,54.88
7628,C#5,1228.0,1.0,44,54.88
7629,F4,1228.125,0.125,39,54.88
7630,A3,1228.125,0.125,33,54.88
7631,E4,1228.25,0.125,44,54.88
7632,G3,1228.25,0.125,37,54.88
7633,F4,1228.375,0.125,40,54.88
7634,A3,1228.375,0.125,34,54.88
7635,E4,1228.5,0.167,44,54.88
7636,G3,1228.5,0.167,37,54.88
7637,D4,1228.667,0.167,39,54.88
7638,F3,1228.667,0.167,33,54.88
7639,E4,1228.833,0.167,39,54.88
7640,G3,1228.833,0.167,33,54.88
7641,A3,1229.0,1.0,42,54.88
7642,F4,1229.0,1.0,46,54.88
7643,C5,1229.0,1.0,46,54.88
7644,A4,1230.0,0.125,46,54.88
7645,C4,1230.0,0.125,39,54.88
7646,B-4,1230.125,0.125,42,54.88
7647,D4,1230.125,0.125,35,54.88
7648,A4,1230.25,0.125,46,54.88
7649,C4,1230.25,0.125,39,54.88
7650,B-4,1230.375,0.125,42,54.88
7651,D4,1230.375,0.125,35,54.88
7652,A4,1230.5,0.125,46,54.88
7653,C4,1230.5,0.125,39,54.88
7654,B-4,1230.625,0.125,41,54.88
7655,D4,1230.625,0.125,35,54.88
7656,A4,1230.75,0.125,46,54.88
7657,C4,1230.75,0.125,39,54.88
7658,B-4,1230.875,0.125,42,54.88
7659,D4,1230.875,0.125,35,54.88
7660,A4,1231.0,0.125,46,54.88
7661,E-5,1231.0,1.0,52,54.88
7662,C4,1231.0,0.125,39,54.88
7663,F3,1231.0,1.0,52,54.88
7664,B-4,1231.125,0.125,42,54.88
7665,D4,1231.125,0.125,35,54.88
7666,A4,1231.25,0.125,46,54.88
7667,C4,1231.25,0.125,39,54.88
7668,B-4,1231.375,0.125,43,54.88
7669,D4,1231.375,0.125,36,54.88
7670,A4,1231.5,0.167,46,54.88
7671,C4,1231.5,0.167,39,54.88
7672,G4,1231.667,0.167,42,54.88
7673,B-3,1231.667,0.167,35,54.88
7674,A4,1231.833,0.167,42,54.88
7675,C4,1231.833,0.167,35,54.88
7676,F4,1232.0,1.0,39,54.88
7677,C5,1232.0,1.0,39,54.88
7678,E-5,1232.0,1.0,39,54.88
7679,F3,1232.0,1.0,36,54.88
7680,A3,1232.0,1.0,36,54.88
7681,C4,1232.0,1.0,36,54.88
7682,F4,1233.0,1.5,39,54.88
7683,C5,1233.0,1.5,39,54.88
7684,E-5,1233.0,1.5,39,54.88
7685,F3,1233.0,1.5,42,54.88
7686,C4,1233.0,1.5,42,54.88
7687,A3,1233.0,1.5,42,54.88
7688,G5,1234.5,0.3,44,54.88
7689,F5,1234.75,0.3,39,54.88
7690,E-5,1235.0,0.3,44,54.88
7691,D5,1235.25,0.3,39,54.88
7692,C5,1235.5,0.3,39,54.88
7693,B4,1235.75,0.25,39,54.88
7694,E-5,1236.0,1.0,46,54.88
7695,G4,1237.5,0.3,44,54.88
7696,G3,1237.5,0.3,37,54.88
7697,F4,1237.75,0.3,39,54.88
7698,F3,1237.75,0.3,33,54.88
7699,E-4,1238.0,0.3,44,54.88
7700,E-3,1238.0,0.3,37,54.88
7701,D4,1238.25,0.3,39,54.88
7702,D3,1238.25,0.3,33,54.88
7703,C4,1238.5,0.3,39,54.88
7704,C3,1238.5,0.3,33,54.88
7705,B3,1238.75,0.25,39,54.88
7706,B2,1238.75,0.25,33,54.88
7707,E-4,1239.0,1.0,46,54.88
7708,E-3,1239.0,1.0,39,54.88
7709,G5,1240.5,0.3,44,54.88
7710,G4,1240.5,0.3,37,54.88
7711,F5,1240.75,0.3,39,54.88
7712,F4,1240.75,0.3,33,54.88
7713,E-5,1241.0,0.3,44,54.88
7714,E-4,1241.0,0.3,37,54.88
7715,D5,1241.25,0.3,39,54.88
7716,D4,1241.25,0.3,33,54.88
7717,C5,1241.5,0.3,39,54.88
7718,C4,1241.5,0.3,33,54.88
7719,B4,1241.75,0.3,39,54.88
7720,B3,1241.75,0.3,33,54.88
7721,G5,1242.0,0.3,46,54.88
7722,G4,1242.0,0.3,39,54.88
7723,F5,1242.25,0.3,47,54.88
7724,F4,1242.25,0.3,39,54.88
7725,E-5,1242.5,0.3,48,54.88
7726,E-4,1242.5,0.3,40,54.88
7727,D5,1242.75,0.3,48,54.88
7728,D4,1242.75,0.3,40,54.88
7729,C5,1243.0,0.3,49,54.88
7730,C4,1243.0,0.3,41,54.88
7731,B-4,1243.25,0.3,51,54.88
7732,B-3,1243.25,0.3,42,54.88
7733,A4,1243.5,0.3,52,54.88
7734,A3,1243.5,0.3,44,54.88
7735,G4,1243.75,0.3,53,54.88
7736,G3,1243.75,0.3,45,54.88
7737,F4,1244.0,0.3,55,54.88
7738,F3,1244.0,0.3,46,54.88
7739,E-4,1244.25,0.3,56,54.88
7740,E-3,1244.25,0.3,47,54.88
7741,D4,1244.5,0.3,57,54.88
7742,D3,1244.5,0.3,48,54.88
7743,C4,1244.75,0.3,59,54.88
7744,C3,1244.75,0.3,49,54.88
7745,B-3,1245.0,0.25,60,54.88
7746,B-2,1245.0,0.25,50,54.88
7747,A3,1245.25,0.25,62,54.88
7748,A2,1245.25,0.25,52,54.88
7749,G3,1245.5,0.25,63,54.88
7750,G2,1245.5,0.25,53,54.88
7751,F3,1245.75,0.25,64,54.88
7752,F2,1245.75,0.25,55,54.88
7753,E-3,1246.0,0.25,67,54.88
7754,E-2,1246.0,0.25,56,54.88
7755,D3,1246.25,0.25,68,54.88
7756,D2,1246.25,0.25,57,54.88
7757,C3,1246.5,0.25,71,54.88
7758,C2,1246.5,0.25,60,54.88
7759,B-2,1246.75,0.25,72,54.88
7760,B-1,1246.75,0.25,61,54.88
7761,A2,1247.0,0.25,76,54.88
7762,A1,1247.0,0.25,64,54.88
7763,G2,1247.25,0.25,79,54.88
7764,G1,1247.25,0.25,67,54.88
7765,F2,1247.5,0.25,85,54.88
7766,F1,1247.5,0.25,71,54.88
7767,E2,1247.75,0.25,89,54.88
7768,E1,1247.75,0.25,75,54.88
7769,F1,1248.0,0.5,83,54.88
7770,F2,1248.0,0.5,99,54.88
7771,F3,1248.0,0.5,99,54.88
7772,A4,1249.0,2.0,95,54.88
7773,A5,1249.0,0.167,95,54.88
7774,A2,1249.0,0.167,79,54.88
7775,B-5,1249.167,0.167,75,54.88
7776,B-2,1249.167,0.167,56,54.88
7777,A5,1249.333,0.167,82,54.88
7778,A2,1249.333,0.167,61,54.88
7779,B-5,1249.5,0.167,72,54.88
7780,B-2,1249.5,0.167,53,54.88
7781,A5,1249.667,0.167,79,54.88
7782,A2,1249.667,0.167,59,54.88
7783,B-5,1249.833,0.167,71,54.88
7784,B-2,1249.833,0.167,52,54.88
7785,A5,1250.0,0.167,76,54.88
7786,A2,1250.0,0.167,57,54.88
7787,B-5,1250.167,0.167,69,54.88
7788,B-2,1250.167,0.167,52,54.88
7789,A5,1250.333,0.167,73,54.88
7790,A2,1250.333,0.167,55,54.88
7791,B-5,1250.5,0.125,67,54.88
7792,B-2,1250.5,0.125,50,54.88
7793,A5,1250.625,0.125,76,54.88
7794,A2,1250.625,0.125,58,54.88
7795,G5,1250.75,0.125,73,54.88
7796,G2,1250.75,0.125,56,54.88
7797,A5,1250.875,0.125,80,54.88
7798,A2,1250.875,0.125,63,54.88
7799,B-2,1251.0,0.5,68,54.88
7800,B-4,1251.0,0.5,85,54.88
7801,B-5,1251.0,0.5,85,54.88
7802,G1,1252.0,0.5,69,54.88
7803,G3,1252.0,0.5,82,54.88
7804,G4,1252.0,0.5,82,54.88
7805,B4,1253.0,2.0,95,54.88
7806,B5,1253.0,0.167,95,54.88
7807,B2,1253.0,0.167,79,54.88
7808,C6,1253.167,0.167,75,54.88
7809,C3,1253.167,0.167,56,54.88
7810,B5,1253.333,0.167,82,54.88
7811,B2,1253.333,0.167,61,54.88
7812,C6,1253.5,0.167,72,54.88
7813,C3,1253.5,0.167,53,54.88
7814,B5,1253.667,0.167,79,54.88
7815,B2,1253.667,0.167,59,54.88
7816,C6,1253.833,0.167,71,54.88
7817,C3,1253.833,0.167,52,54.88
7818,B5,1254.0,0.167,76,54.88
7819,B2,1254.0,0.167,57,54.88
7820,C6,1254.167,0.167,69,54.88
7821,C3,1254.167,0.167,52,54.88
7822,B5,1254.333,0.167,73,54.88
7823,B2,1254.333,0.167,55,54.88
7824,C6,1254.5,0.125,67,54.88
7825,C3,1254.5,0.125,50,54.88
7826,B5,1254.625,0.125,74,54.88
7827,B2,1254.625,0.125,58,54.88
7828,A5,1254.75,0.125,70,54.88
7829,A2,1254.75,0.125,52,54.88
7830,B5,1254.875,0.125,79,54.88
7831,B2,1254.875,0.125,61,54.88
7832,C3,1255.0,0.5,68,54.88
7833,C5,1255.0,0.5,85,54.88
7834,C6,1255.0,0.5,85,54.88
7835,A1,1256.0,0.5,69,54.88
7836,A3,1256.0,0.5,82,54.88
7837,A4,1256.0,0.5,82,54.88
7838,C#5,1257.0,2.0,95,54.88
7839,C#6,1257.0,0.167,95,54.88
7840,C#3,1257.0,0.167,79,54.88
7841,D6,1257.167,0.167,75,54.88
7842,D3,1257.167,0.167,56,54.88
7843,C#6,1257.333,0.167,82,54.88
7844,C#3,1257.333,0.167,61,54.88
7845,D6,1257.5,0.167,72,54.88
7846,D3,1257.5,0.167,53,54.88
7847,C#6,1257.667,0.167,79,54.88
7848,C#3,1257.667,0.167,59,54.88
7849,D6,1257.833,0.167,71,54.88
7850,D3,1257.833,0.167,52,54.88
7851,C#6,1258.0,0.167,76,54.88
7852,C#3,1258.0,0.167,57,54.88
7853,D6,1258.167,0.167,69,54.88
7854,D3,1258.167,0.167,52,54.88
7855,C#6,1258.333,0.167,73,54.88
7856,C#3,1258.333,0.167,55,54.88
7857,D6,1258.5,0.125,67,54.88
7858,D3,1258.5,0.125,50,54.88
7859,C#6,1258.625,0.125,74,54.88
7860,C#3,1258.625,0.125,58,54.88
7861,B5,1258.75,0.125,66,54.88
7862,B2,1258.75,0.125,54,54.88
7863,C#6,1258.875,0.125,79,54.88
7864,C#3,1258.875,0.125,61,54.88
7865,D3,1259.0,0.5,68,54.88
7866,D5,1259.0,0.5,85,54.88
7867,D6,1259.0,0.5,85,54.88
7868,B-1,1260.0,0.5,69,54.88
7869,B-3,1260.0,0.5,82,54.88
7870,B-4,1260.0,0.5,82,54.88
7871,D5,1261.0,2.0,95,54.88
7872,D6,1261.0,0.167,95,54.88
7873,D3,1261.0,0.167,79,54.88
7874,E-6,1261.167,0.167,75,54.88
7875,E-3,1261.167,0.167,56,54.88
7876,D6,1261.333,0.167,82,54.88
7877,D3,1261.333,0.167,61,54.88
7878,E-6,1261.5,0.167,72,54.88
7879,E-3,1261.5,0.167,53,54.88
7880,D6,1261.667,0.167,79,54.88
7881,D3,1261.667,0.167,59,54.88
7882,E-6,1261.833,0.167,71,54.88
7883,E-3,1261.833,0.167,52,54.88
7884,D6,1262.0,0.167,76,54.88
7885,D3,1262.0,0.167,57,54.88
7886,E-6,1262.167,0.167,69,54.88
7887,E-3,1262.167,0.167,52,54.88
7888,D6,1262.333,0.167,73,54.88
7889,D3,1262.333,0.167,55,54.88
7890,E-6,1262.5,0.125,70,54.88
7891,E-3,1262.5,0.125,50,54.88
7892,D6,1262.625,0.125,78,54.88
7893,D3,1262.625,0.125,58,54.88
7894,C6,1262.75,0.125,73,54.88
7895,C3,1262.75,0.125,53,54.88
7896,D6,1262.875,0.125,81,54.88
7897,D3,1262.875,0.125,54,54.88
7898,E-3,1263.0,0.5,68,54.88
7899,E-5,1263.0,0.5,85,54.88
7900,E-6,1263.0,0.5,85,54.88
7901,C2,1264.0,0.5,69,54.88
7902,C4,1264.0,0.5,82,54.88
7903,C5,1264.0,0.5,82,54.88
7904,E5,1265.0,2.0,95,54.88
7905,E6,1265.0,0.167,95,54.88
7906,E3,1265.0,0.167,79,54.88
7907,F6,1265.167,0.167,75,54.88
7908,F3,1265.167,0.167,56,54.88
7909,E6,1265.333,0.167,82,54.88
7910,E3,1265.333,0.167,61,54.88
7911,F6,1265.5,0.167,72,54.88
7912,F3,1265.5,0.167,53,54.88
7913,E6,1265.667,0.167,79,54.88
7914,E3,1265.667,0.167,59,54.88
7915,F6,1265.833,0.167,71,54.88
7916,F3,1265.833,0.167,52,54.88
7917,E6,1266.0,0.167,76,54.88
7918,E3,1266.0,0.167,57,54.88
7919,F6,1266.167,0.167,69,54.88
7920,F3,1266.167,0.167,52,54.88
7921,E6,1266.333,0.167,73,54.88
7922,E3,1266.333,0.167,55,54.88
7923,F6,1266.5,0.125,67,54.88
7924,F3,1266.5,0.125,50,54.88
7925,E6,1266.625,0.125,76,54.88
7926,E3,1266.625,0.125,56,54.88
7927,D6,1266.75,0.125,70,54.88
7928,D3,1266.75,0.125,54,54.88
7929,E6,1266.875,0.125,79,54.88
7930,E3,1266.875,0.125,59,54.88
7931,F3,1267.0,0.5,68,54.88
7932,F5,1267.0,0.5,85,54.88
7933,F6,1267.0,0.5,85,54.88
7934,D2,1268.0,0.5,69,54.88
7935,D4,1268.0,0.5,82,54.88
7936,D5,1268.0,0.5,82,54.88
7937,F#5,1269.0,2.0,95,54.88
7938,F#6,1269.0,0.167,95,54.88
7939,F#3,1269.0,0.167,79,54.88
7940,G6,1269.167,0.167,75,54.88
7941,G3,1269.167,0.167,56,54.88
7942,F#6,1269.333,0.167,82,54.88
7943,F#3,1269.333,0.167,61,54.88
7944,G6,1269.5,0.167,72,54.88
7945,G3,1269.5,0.167,53,54.88
7946,F#6,1269.667,0.167,79,54.88
7947,F#3,1269.667,0.167,59,54.88
7948,G6,1269.833,0.167,71,54.88
7949,G3,1269.833,0.167,52,54.88
7950,F#6,1270.0,0.167,76,54.88
7951,F#3,1270.0,0.167,57,54.88
7952,G6,1270.167,0.167,69,54.88
7953,G3,1270.167,0.167,52,54.88
7954,F#6,1270.333,0.167,73,54.88
7955,F#3,1270.333,0.167,55,54.88
7956,G6,1270.5,0.125,67,54.88
7957,G3,1270.5,0.125,50,54.88
7958,F#6,1270.625,0.125,77,54.88
7959,F#3,1270.625,0.125,54,54.88
7960,E6,1270.75,0.125,74,54.88
7961,E3,1270.75,0.125,49,54.88
7962,F#6,1270.875,0.125,83,54.88
7963,F#3,1270.875,0.125,54,54.88
7964,G3,1271.0,0.5,68,54.88
7965,G5,1271.0,0.5,85,54.88
7966,G6,1271.0,0.5,85,54.88
7967,E-2,1272.0,0.5,69,54.88
7968,E-4,1272.0,0.5,82,54.88
7969,E-5,1272.0,0.5,82,54.88
7970,A6,1273.0,1.5,78,54.88
7971,F6,1273.0,1.5,78,54.88
7972,E-6,1273.0,1.5,78,54.88
7973,C6,1273.0,1.5,78,54.88
7974,A5,1273.0,1.5,78,54.88
7975,F4,1273.0,1.5,74,54.88
7976,E-4,1273.0,1.5,74,54.88
7977,C4,1273.0,1.5,74,54.88
7978,F3,1273.0,1.5,74,54.88
7979,B-6,1275.0,1.5,82,54.88
7980,F6,1275.0,1.5,82,54.88
7981,D6,1275.0,1.5,82,54.88
7982,B-5,1275.0,1.5,82,54.88
7983,B-2,1275.0,1.5,76,54.88
7984,D3,1275.0,1.5,76,54.88
7985,F3,1275.0,1.5,76,54.88
7986,B-3,1275.0,1.5,76,54.88
7987,A5,1277.0,1.5,78,54.88
7988,F5,1277.0,1.5,78,54.88
7989,E-5,1277.0,1.5,78,54.88
7990,C5,1277.0,1.5,78,54.88
7991,A4,1277.0,1.5,78,54.88
7992,F3,1277.0,1.5,70,54.88
7993,E-3,1277.0,1.5,70,54.88
7994,C3,1277.0,1.5,70,54.88
7995,F2,1277.0,1.5,70,54.88
7996,B-5,1280.0,4.0,83,54.88
7997,F5,1280.0,4.0,83,54.88
7998,D5,1280.0,4.0,83,54.88
7999,B-4,1280.0,4.0,83,54.88
8000,B-1,1280.0,4.0,76,54.88
8001,D2,1280.0,4.0,76,54.88
8002,F2,1280.0,4.0,76,54.88
8003,B-2,1280.0,4.0,76,54.88
,note_name,start_time,duration,velocity,tempo
0,G4,0.0,1.0,37,35.77
1,E-4,0.0,1.0,37,35.77
2,F4,1.0,1.0,36,35.77
3,B-3,1.0,1.0,36,35.77
4,G3,2.0,1.5,36,35.77
5,E-4,2.0,1.5,36,35.77
6,C2,2.0,1.5,30,35.77
7,C3,2.0,1.5,30,35.77
8,E-4,3.5,0.375,44,35.77
9,C3,3.5,0.5,30,35.77
10,E-3,3.5,0.5,30,35.77
11,G#4,3.875,0.125,37,35.77
12,G4,4.0,0.5,44,35.77
13,B-2,4.0,0.496,30,35.77
14,E3,4.0,0.496,30,35.77
15,G4,4.5,0.375,46,35.77
16,B-2,4.5,0.496,31,35.77
17,E3,4.5,0.496,31,35.77
18,C#5,4.875,0.125,44,35.77
19,C5,5.0,0.5,50,35.77
20,A2,5.0,0.5,33,35.77
21,F3,5.0,0.5,33,35.77
22,C5,5.5,0.125,55,35.77
23,F#3,5.5,0.5,35,35.77
24,G#2,5.5,0.5,35,35.77
25,D5,5.625,1.0,48,35.77
26,C5,5.625,1.0,48,35.77
27,B4,5.708,0.042,48,35.77
28,C5,5.75,0.125,55,35.77
29,D5,5.875,0.125,48,35.77
30,E-5,6.0,0.75,58,35.77
31,E-4,6.0,0.5,44,35.77
32,G3,6.0,0.5,40,35.77
33,G2,6.0,1.5,34,35.77
34,A3,6.5,0.5,26,35.77
35,F#4,6.5,0.5,36,35.77
36,E-4,6.5,0.5,36,35.77
37,C5,6.75,0.25,44,35.77
38,B3,7.0,0.5,29,35.77
39,B4,7.0,0.5,38,35.77
40,D4,7.0,0.5,38,35.77
41,G4,7.0,0.5,38,35.77
42,G5,7.5,0.25,62,35.77
43,E-6,7.75,0.25,58,35.77
44,E-6,8.0,0.75,63,35.77
45,E-5,8.0,0.5,48,35.77
46,G4,8.0,0.5,44,35.77
47,G3,8.0,1.5,44,35.77
48,A4,8.5,0.5,37,35.77
49,F#5,8.5,0.5,44,35.77
50,E-5,8.5,0.5,44,35.77
51,C6,8.75,0.25,53,35.77
52,B4,9.0,0.5,33,35.77
53,D5,9.0,0.496,43,35.77
54,G5,9.0,0.496,43,35.77
55,B5,9.0,0.496,43,35.77
56,B-5,9.5,0.5,51,35.77
57,D5,9.5,0.5,51,35.77
58,G5,9.5,0.5,51,35.77
59,B-4,9.5,0.5,28,35.77
60,G4,9.5,0.5,28,35.77
61,B-5,10.0,1.167,68,35.77
62,D5,10.0,0.5,55,35.77
63,B-4,10.0,1.5,53,35.77
64,G#4,10.0,0.5,45,35.77
65,F4,10.0,0.5,45,35.77
66,E-5,10.5,0.5,55,35.77
67,E-4,10.5,0.5,42,35.77
68,G4,10.5,0.5,42,35.77
69,F5,11.0,0.167,46,35.77
70,D4,11.0,0.5,47,35.77
71,F4,11.0,0.5,47,35.77
72,B-4,11.167,0.167,51,35.77
73,C5,11.333,0.167,46,35.77
74,A4,11.5,0.167,55,35.77
75,D4,11.5,0.5,42,35.77
76,B-3,11.5,0.5,42,35.77
77,B-4,11.667,0.167,46,35.77
78,G#4,11.833,0.083,46,35.77
79,B-3,12.0,1.0,37,35.77
80,E4,12.0,1.0,37,35.77
81,G4,12.0,1.0,37,35.77
82,C#4,12.0,1.0,37,35.77
83,D4,13.0,1.0,35,35.77
84,F4,13.0,1.0,35,35.77
85,G#3,13.0,1.0,35,35.77
86,B-2,13.0,1.0,30,35.77
87,B-1,13.0,1.0,30,35.77
88,F#3,14.0,1.5,36,35.77
89,E-4,14.0,1.5,36,35.77
90,B1,14.0,1.5,30,35.77
91,B2,14.0,1.5,30,35.77
92,F#4,15.5,0.375,44,35.77
93,E-4,15.5,0.5,34,35.77
94,B2,15.5,0.5,30,35.77
95,F#3,15.5,0.5,30,35.77
96,B4,15.875,0.125,37,35.77
97,B4,16.0,0.5,39,35.77
98,E4,16.0,0.5,39,35.77
99,F#3,16.0,0.496,30,35.77
100,C#3,16.0,0.496,30,35.77
101,E4,16.5,0.5,34,35.77
102,B-4,16.5,0.375,46,35.77
103,F#3,16.5,0.496,31,35.77
104,C#3,16.5,0.496,31,35.77
105,E5,16.875,0.125,44,35.77
106,E-5,17.0,0.5,42,35.77
107,E-4,17.0,0.5,42,35.77
108,B2,17.0,0.496,33,35.77
109,F#3,17.0,0.496,33,35.77
110,E-5,17.5,0.125,55,35.77
111,B-2,17.5,0.5,32,35.77
112,F#3,17.5,1.0,38,35.77
113,F5,17.625,1.0,48,35.77
114,E-5,17.625,1.0,48,35.77
115,D5,17.708,0.042,48,35.77
116,E-5,17.75,0.125,55,35.77
117,F5,17.875,0.125,48,35.77
118,F#5,18.0,0.75,58,35.77
119,C5,18.0,0.5,37,35.77
120,A2,18.0,1.0,40,35.77
121,C5,18.5,0.5,44,35.77
122,F3,18.5,0.5,34,35.77
123,E-5,18.75,0.25,49,35.77
124,D5,19.0,0.5,42,35.77
125,B-4,19.0,0.5,42,35.77
126,F3,19.0,0.5,28,35.77
127,B-2,19.0,0.5,28,35.77
128,B-4,19.5,1.0,37,35.77
129,C#5,19.5,0.125,55,35.77
130,G#2,19.5,0.5,32,35.77
131,E3,19.5,1.0,38,35.77
132,E-5,19.625,1.0,48,35.77
133,C#5,19.625,1.0,48,35.77
134,C5,19.708,0.042,48,35.77
135,C#5,19.75,0.125,55,35.77
136,E-5,19.875,0.125,48,35.77
137,E5,20.0,0.75,58,35.77
138,G2,20.0,1.0,40,35.77
139,B-4,20.5,0.5,44,35.77
140,E-3,20.5,0.5,34,35.77
141,E-5,20.75,0.125,49,35.77
142,C#5,20.875,0.125,44,35.77
143,B4,21.0,0.5,42,35.77
144,G#4,21.0,0.5,42,35.77
145,E-3,21.0,0.5,28,35.77
146,G#2,21.0,0.5,28,35.77
147,E-4,21.5,0.5,46,35.77
148,E-5,21.5,0.5,46,35.77
149,B-4,21.5,0.5,46,35.77
150,F#3,21.5,0.5,28,35.77
151,F#2,21.5,0.5,28,35.77
152,B-2,21.5,0.5,28,35.77
153,D5,22.0,0.5,42,35.77
154,G#4,22.0,0.5,42,35.77
155,D4,22.0,0.5,42,35.77
156,B-4,22.0,0.5,42,35.77
157,F2,22.0,0.5,29,35.77
158,B-2,22.0,0.5,29,35.77
159,F3,22.0,0.5,29,35.77
160,D4,23.25,0.248,37,35.77
161,B-4,23.25,0.248,37,35.77
162,D5,23.25,0.248,37,35.77
163,G#4,23.25,0.248,37,35.77
164,B-2,23.25,0.248,34,35.77
165,F3,23.25,0.248,34,35.77
166,F2,23.25,0.248,34,35.77
167,B-4,23.5,0.248,38,35.77
168,E-4,23.5,0.248,38,35.77
169,F#4,23.5,0.248,38,35.77
170,E-5,23.5,0.248,38,35.77
171,E-2,23.5,0.248,34,35.77
172,B-2,23.5,0.248,34,35.77
173,E-3,23.5,0.248,34,35.77
174,F#4,23.75,0.248,35,35.77
175,E-5,23.75,0.248,35,35.77
176,B-4,23.75,0.248,35,35.77
177,E-4,23.75,0.248,35,35.77
178,B-2,23.75,0.248,28,35.77
179,E-2,23.75,0.248,28,35.77
180,E-3,23.75,0.248,28,35.77
181,F5,24.0,0.5,47,35.77
182,F4,24.0,0.5,47,35.77
183,B-4,24.0,0.5,47,35.77
184,B-2,24.0,0.5,40,35.77
185,D3,24.0,0.5,40,35.77
186,D2,24.0,0.5,40,35.77
187,D5,25.25,0.248,42,35.77
188,B-4,25.25,0.248,42,35.77
189,F4,25.25,0.248,37,35.77
190,G#4,25.25,0.248,37,35.77
191,B-4,25.5,0.248,43,35.77
192,E-5,25.5,0.248,43,35.77
193,F#4,25.5,0.248,37,35.77
194,E-4,25.5,0.248,37,35.77
195,E-5,25.75,0.248,40,35.77
196,B-4,25.75,0.248,40,35.77
197,F#4,25.75,0.248,31,35.77
198,E-4,25.75,0.248,31,35.77
199,F5,26.0,0.5,50,35.77
200,B-4,26.0,0.5,50,35.77
201,D4,26.0,0.5,43,35.77
202,F4,26.0,0.5,43,35.77
203,B-4,27.25,0.248,45,35.77
204,F5,27.25,0.248,45,35.77
205,F4,27.25,0.248,40,35.77
206,D4,27.25,0.248,40,35.77
207,G5,27.5,0.248,49,35.77
208,B-4,27.5,0.248,49,35.77
209,E-4,27.5,0.248,42,35.77
210,C#4,27.5,0.248,42,35.77
211,G#4,27.75,0.248,46,35.77
212,G#5,27.75,0.248,46,35.77
213,B3,27.75,0.248,36,35.77
214,E-4,27.75,0.248,36,35.77
215,G#4,28.0,0.5,50,35.77
216,G#5,28.0,0.5,50,35.77
217,B3,28.0,0.5,43,35.77
218,E-4,28.0,0.5,43,35.77
219,F5,29.25,0.248,45,35.77
220,B-4,29.25,0.248,45,35.77
221,D4,29.25,0.248,40,35.77
222,F4,29.25,0.248,40,35.77
223,G5,29.5,0.248,49,35.77
224,B-4,29.5,0.248,49,35.77
225,C#4,29.5,0.248,42,35.77
226,E-4,29.5,0.248,42,35.77
227,G#5,29.75,0.248,46,35.77
228,G#4,29.75,0.248,46,35.77
229,C4,29.75,0.248,36,35.77
230,E-4,29.75,0.248,36,35.77
231,G#5,30.5,0.5,40,35.77
232,G#4,30.5,0.5,40,35.77
233,C4,30.5,0.5,34,35.77
234,E-4,30.5,0.5,34,35.77
235,G#4,31.5,0.5,40,35.77
236,G#5,31.5,0.5,40,35.77
237,E-4,31.5,0.5,34,35.77
238,C4,31.5,0.5,34,35.77
239,G#5,32.0,1.5,70,35.77
240,G#4,32.0,1.5,70,35.77
241,E-4,32.0,1.5,70,35.77
242,C4,32.0,1.5,70,35.77
243,G4,33.5,0.5,59,35.77
244,D5,33.5,0.25,70,35.77
245,D4,33.5,0.25,56,35.77
246,B3,33.5,0.25,56,35.77
247,G5,33.75,0.125,67,35.77
248,C#4,33.75,0.125,54,35.77
249,B-3,33.75,0.125,54,35.77
250,G4,34.0,0.5,64,35.77
251,G5,34.0,0.5,64,35.77
252,B-3,34.0,0.5,62,35.77
253,C#4,34.0,0.5,62,35.77
254,C5,34.5,0.25,70,35.77
255,F4,34.5,0.5,59,35.77
256,A3,34.5,0.25,56,35.77
257,C4,34.5,0.25,56,35.77
258,F5,34.75,0.125,67,35.77
259,G#3,34.75,0.125,54,35.77
260,B3,34.75,0.125,54,35.77
261,F4,35.0,0.5,64,35.77
262,F5,35.0,0.5,64,35.77
263,G#3,35.0,0.5,62,35.77
264,B3,35.0,0.5,62,35.77
265,B-4,35.5,0.25,70,35.77
266,E-4,35.5,0.5,59,35.77
267,B-3,35.5,0.25,56,35.77
268,G3,35.5,0.25,56,35.77
269,E-5,35.75,0.125,67,35.77
270,F#3,35.75,0.125,54,35.77
271,A3,35.75,0.125,54,35.77
272,G#4,36.0,1.5,59,35.77
273,B-4,36.0,1.5,59,35.77
274,E-4,36.0,1.0,64,35.77
275,E-5,36.0,1.0,64,35.77
276,G#3,36.0,1.5,62,35.77
277,F3,36.0,1.5,62,35.77
278,D5,37.0,0.5,54,35.77
279,D4,37.0,0.5,54,35.77
280,E-5,37.5,0.5,53,35.77
281,B-4,37.5,0.5,53,35.77
282,E-4,37.5,0.5,53,35.77
283,G3,37.5,0.5,42,35.77
284,E-3,37.5,0.5,42,35.77
285,F4,38.0,0.5,51,35.77
286,B-4,38.0,0.5,51,35.77
287,F5,38.0,0.5,51,35.77
288,D3,38.0,0.5,44,35.77
289,F3,38.0,0.5,44,35.77
290,G4,38.5,0.5,54,35.77
291,B-4,38.5,0.5,54,35.77
292,G5,38.5,0.5,54,35.77
293,C3,38.5,0.5,46,35.77
294,E-3,38.5,0.5,46,35.77
295,B-4,39.0,0.5,57,35.77
296,G#5,39.0,0.5,57,35.77
297,G#4,39.0,0.5,57,35.77
298,B-2,39.0,0.5,49,35.77
299,D3,39.0,0.5,49,35.77
300,B-4,39.5,0.5,62,35.77
301,B-5,39.5,0.5,62,35.77
302,F3,39.5,0.5,50,35.77
303,B-2,39.5,0.5,50,35.77
304,D3,39.5,0.5,50,35.77
305,E-2,40.0,0.25,56,35.77
306,G4,40.0,0.5,70,35.77
307,B-4,40.0,0.5,70,35.77
308,B-5,40.0,0.5,70,35.77
309,B-2,40.25,0.25,40,35.77
310,G3,40.5,0.25,40,35.77
311,B-2,40.75,0.25,40,35.77
312,E-2,41.0,0.25,54,35.77
313,B-5,41.0,0.5,75,35.77
314,B-4,41.0,0.5,75,35.77
315,B-2,41.25,0.25,44,35.77
316,G3,41.5,0.25,43,35.77
317,B-2,41.75,0.25,43,35.77
318,F2,42.0,0.25,58,35.77
319,B-5,42.0,1.5,86,35.77
320,B-6,42.0,1.5,86,35.77
321,B-2,42.25,0.25,49,35.77
322,G#3,42.5,0.25,49,35.77
323,B-2,42.75,0.25,47,35.77
324,F2,43.0,0.25,53,35.77
325,B-2,43.25,0.25,44,35.77
326,G#3,43.5,0.25,44,35.77
327,B-5,43.5,2.0,60,35.77
328,B-4,43.5,2.0,60,35.77
329,B-2,43.75,0.25,44,35.77
330,G2,44.0,0.25,53,35.77
331,B-2,44.25,0.25,43,35.77
332,B-3,44.5,0.25,43,35.77
333,B-2,44.75,0.25,43,35.77
334,G2,45.0,0.25,53,35.77
335,B-2,45.25,0.25,43,35.77
336,B-3,45.5,0.25,43,35.77
337,G4,45.5,0.5,62,35.77
338,G5,45.5,0.5,62,35.77
339,B-2,45.75,0.25,43,35.77
340,G#2,46.0,0.25,53,35.77
341,F5,46.0,0.5,60,35.77
342,F4,46.0,0.5,60,35.77
343,B-2,46.25,0.25,44,35.77
344,G#3,46.5,0.25,44,35.77
345,D5,46.5,0.5,52,35.77
346,D4,46.5,0.5,52,35.77
347,B-2,46.75,0.25,44,35.77
348,B-1,47.0,0.25,53,35.77
349,B4,47.0,0.5,52,35.77
350,B3,47.0,0.5,52,35.77
351,B-2,47.25,0.25,46,35.77
352,F3,47.5,0.25,46,35.77
353,B-4,47.5,0.496,52,35.77
354,B-3,47.5,0.496,52,35.77
355,B-2,47.75,0.25,46,35.77
356,E-2,48.0,0.25,56,35.77
357,B-4,48.0,0.5,72,35.77
358,B-3,48.0,0.5,72,35.77
359,B-2,48.25,0.25,40,35.77
360,G3,48.5,0.25,40,35.77
361,B-2,48.75,0.25,40,35.77
362,E-2,49.0,0.25,54,35.77
363,B-5,49.0,0.5,75,35.77
364,B-4,49.0,0.5,75,35.77
365,B-2,49.25,0.25,44,35.77
366,G3,49.5,0.25,43,35.77
367,B-2,49.75,0.25,43,35.77
368,F2,50.0,0.25,58,35.77
369,B-5,50.0,1.5,86,35.77
370,B-6,50.0,1.5,86,35.77
371,B-2,50.25,0.25,49,35.77
372,G#3,50.5,0.25,49,35.77
373,B-2,50.75,0.25,47,35.77
374,F2,51.0,0.25,53,35.77
375,B-2,51.25,0.25,44,35.77
376,G#3,51.5,0.25,44,35.77
377,B-4,51.5,2.0,60,35.77
378,B-5,51.5,2.0,60,35.77
379,B-2,51.75,0.25,44,35.77
380,G2,52.0,0.25,53,35.77
381,E-3,52.25,0.25,43,35.77
382,B-3,52.5,0.25,43,35.77
383,E-3,52.75,0.25,43,35.77
384,G2,53.0,0.25,53,35.77
385,E-3,53.25,0.25,43,35.77
386,B-3,53.5,0.25,43,35.77
387,G4,53.5,0.5,62,35.77
388,G5,53.5,0.5,62,35.77
389,E-3,53.75,0.25,43,35.77
390,G#2,54.0,0.25,53,35.77
391,E4,54.0,0.5,60,35.77
392,E5,54.0,0.5,60,35.77
393,E-3,54.25,0.25,44,35.77
394,C4,54.5,0.25,44,35.77
395,F5,54.5,0.5,52,35.77
396,F4,54.5,0.5,52,35.77
397,E-3,54.75,0.25,44,35.77
398,A2,55.0,0.25,53,35.77
399,C5,55.0,0.5,52,35.77
400,C4,55.0,0.5,52,35.77
401,F3,55.25,0.25,46,35.77
402,C4,55.5,0.25,46,35.77
403,E-4,55.5,0.5,52,35.77
404,E-5,55.5,0.5,52,35.77
405,F3,55.75,0.25,46,35.77
406,D5,56.0,0.25,56,35.77
407,D4,56.0,0.25,56,35.77
408,B-2,56.0,0.5,52,35.77
409,B-3,56.0,0.5,52,35.77
410,B-4,56.25,0.25,49,35.77
411,A4,56.5,0.25,51,35.77
412,E-4,56.5,0.25,46,35.77
413,B-4,56.75,0.25,53,35.77
414,D4,56.75,0.25,49,35.77
415,C4,57.0,0.25,48,35.77
416,C5,57.0,0.25,50,35.77
417,A4,57.0,0.25,50,35.77
418,B-3,57.25,0.25,47,35.77
419,B-4,57.25,0.25,52,35.77
420,D5,57.25,0.25,52,35.77
421,A3,57.5,0.25,46,35.77
422,C5,57.5,0.25,54,35.77
423,E-5,57.5,0.25,54,35.77
424,G#3,57.75,0.25,45,35.77
425,D5,57.75,0.25,56,35.77
426,F5,57.75,0.25,56,35.77
427,G3,58.0,0.25,44,35.77
428,E-5,58.0,1.0,58,35.77
429,G5,58.0,1.0,58,35.77
430,F3,58.25,0.25,43,35.77
431,E-3,58.5,0.25,42,35.77
432,D3,58.75,0.25,41,35.77
433,E-3,59.0,0.25,40,35.77
434,C6,59.0,0.25,57,35.77
435,G#5,59.0,0.25,57,35.77
436,F3,59.25,0.25,42,35.77
437,B-5,59.25,0.25,54,35.77
438,G5,59.25,0.25,54,35.77
439,G3,59.5,0.25,44,35.77
440,F5,59.5,0.25,52,35.77
441,G#5,59.5,0.25,52,35.77
442,G#3,59.75,0.25,46,35.77
443,G5,59.75,0.25,49,35.77
444,E-5,59.75,0.25,49,35.77
445,B-3,60.0,0.5,48,35.77
446,F5,60.0,0.5,56,35.77
447,D5,60.0,0.5,56,35.77
448,C4,60.5,0.25,42,35.77
449,D4,60.75,0.25,46,35.77
450,E-4,61.0,0.25,44,35.77
451,C7,61.0,0.25,62,35.77
452,G#6,61.0,0.25,62,35.77
453,F4,61.25,0.25,46,35.77
454,B-6,61.25,0.25,60,35.77
455,G6,61.25,0.25,60,35.77
456,G4,61.5,0.25,48,35.77
457,F6,61.5,0.25,56,35.77
458,G#6,61.5,0.25,56,35.77
459,G#4,61.75,0.25,50,35.77
460,G6,61.75,0.25,54,35.77
461,E-6,61.75,0.25,54,35.77
462,B-4,62.0,0.5,57,35.77
463,F6,62.0,0.5,62,35.77
464,D6,62.0,0.5,62,35.77
465,G#4,62.5,0.25,46,35.77
466,C6,62.5,0.25,62,35.77
467,D5,62.5,0.25,62,35.77
468,G4,62.75,0.25,53,35.77
469,B-5,62.75,0.25,62,35.77
470,E-5,62.75,0.25,62,35.77
471,F4,63.0,0.25,52,35.77
472,B4,63.0,0.25,62,35.77
473,G#5,63.0,0.25,62,35.77
474,E-4,63.25,0.25,51,35.77
475,G5,63.25,0.25,61,35.77
476,C5,63.25,0.25,61,35.77
477,D4,63.5,0.188,50,35.77
478,G4,63.5,0.188,60,35.77
479,F5,63.5,0.188,60,35.77
480,C4,63.75,0.188,49,35.77
481,E-5,63.75,0.188,58,35.77
482,F#5,63.75,0.188,58,35.77
483,B3,64.0,0.188,47,35.77
484,G5,64.0,0.188,56,35.77
485,D5,64.0,0.188,56,35.77
486,A3,64.25,0.188,48,35.77
487,D5,64.25,0.188,58,35.77
488,F#5,64.25,0.188,58,35.77
489,A5,64.25,0.188,58,35.77
490,G3,64.5,0.188,51,35.77
491,D5,64.5,0.188,61,35.77
492,G5,64.5,0.188,61,35.77
493,B5,64.5,0.188,61,35.77
494,F3,64.75,0.188,55,35.77
495,D5,64.75,0.188,64,35.77
496,B5,64.75,0.188,64,35.77
497,G5,64.75,0.188,64,35.77
498,E-3,65.0,0.188,59,35.77
499,E-5,65.0,0.188,67,35.77
500,G5,65.0,0.188,67,35.77
501,C6,65.0,0.188,67,35.77
502,D3,65.25,0.188,62,35.77
503,F5,65.25,0.188,71,35.77
504,B5,65.25,0.188,71,35.77
505,D6,65.25,0.188,71,35.77
506,C3,65.5,0.188,66,35.77
507,G5,65.5,0.188,73,35.77
508,C6,65.5,0.188,73,35.77
509,E-6,65.5,0.188,73,35.77
510,E6,65.75,0.188,76,35.77
511,C6,65.75,0.188,76,35.77
512,G5,65.75,0.188,76,35.77
513,B-2,65.75,0.188,64,35.77
514,C3,65.75,0.188,64,35.77
515,E6,66.0,0.25,79,35.77
516,C6,66.0,0.25,79,35.77
517,G5,66.0,0.25,79,35.77
518,C3,66.0,0.25,66,35.77
519,B-2,66.0,0.25,66,35.77
520,F6,67.0,0.25,92,35.77
521,F5,67.0,0.25,92,35.77
522,C6,67.0,0.25,92,35.77
523,C3,67.0,0.25,69,35.77
524,A2,67.0,0.25,69,35.77
525,B-4,68.0,2.5,65,35.77
526,E-5,68.0,1.5,84,35.77
527,F#2,68.0,1.5,71,35.77
528,C3,68.0,4.0,65,35.77
529,F5,69.5,0.25,85,35.77
530,F2,69.5,0.25,71,35.77
531,F#5,70.0,2.0,93,35.77
532,E-2,70.0,2.0,80,35.77
533,B-4,70.5,0.25,61,35.77
534,A4,70.75,0.25,52,35.77
535,B-4,71.0,0.25,61,35.77
536,A4,71.25,0.25,54,35.77
537,B-4,71.5,0.25,61,35.77
538,A4,71.75,0.25,54,35.77
539,B-4,72.0,2.5,65,35.77
540,E-5,72.0,1.5,84,35.77
541,F#2,72.0,1.5,71,35.77
542,C3,72.0,4.0,65,35.77
543,F5,73.5,0.25,85,35.77
544,F2,73.5,0.25,71,35.77
545,G5,74.0,2.0,93,35.77
546,E2,74.0,2.0,80,35.77
547,B-4,74.5,0.25,61,35.77
548,A4,74.75,0.25,52,35.77
549,B-4,75.0,0.25,61,35.77
550,A4,75.25,0.25,54,35.77
551,B-4,75.5,0.25,61,35.77
552,A4,75.75,0.25,54,35.77
553,F#5,76.0,0.5,70,35.77
554,C3,76.0,0.5,44,35.77
555,F2,76.0,0.5,44,35.77
556,B-4,76.5,0.25,51,35.77
557,A4,76.75,0.25,44,35.77
558,B-4,77.0,0.25,51,35.77
559,A4,77.25,0.25,43,35.77
560,B-4,77.5,0.25,51,35.77
561,A4,77.75,0.25,45,35.77
562,F5,78.0,0.5,70,35.77
563,D3,78.0,0.5,44,35.77
564,F2,78.0,0.5,44,35.77
565,C5,78.5,0.25,51,35.77
566,B4,78.75,0.25,44,35.77
567,C5,79.0,0.25,51,35.77
568,B4,79.25,0.25,43,35.77
569,C5,79.5,0.25,51,35.77
570,B4,79.75,0.25,45,35.77
571,F5,80.0,0.25,70,35.77
572,F2,80.0,0.5,44,35.77
573,E-3,80.0,0.5,44,35.77
574,D5,80.5,0.25,51,35.77
575,C5,80.75,0.25,44,35.77
576,F5,81.0,0.25,70,35.77
577,F2,81.0,0.5,44,35.77
578,D3,81.0,0.5,44,35.77
579,C5,81.5,0.25,51,35.77
580,B-4,81.75,0.25,44,35.77
581,F5,82.0,0.25,70,35.77
582,F2,82.0,0.5,44,35.77
583,C3,82.0,0.5,44,35.77
584,B-4,82.5,0.25,51,35.77
585,A4,82.75,0.25,44,35.77
586,F5,83.0,0.25,70,35.77
587,F2,83.0,0.5,44,35.77
588,D3,83.0,0.5,44,35.77
589,C5,83.5,0.25,51,35.77
590,B-4,83.75,0.25,44,35.77
591,F#5,84.0,0.5,70,35.77
592,C3,84.0,0.5,44,35.77
593,F2,84.0,0.5,44,35.77
594,B-4,84.5,0.25,51,35.77
595,A4,84.75,0.25,44,35.77
596,B-4,85.0,0.25,51,35.77
597,A4,85.25,0.25,43,35.77
598,B-4,85.5,0.25,51,35.77
599,A4,85.75,0.25,45,35.77
600,F5,86.0,0.5,70,35.77
601,D3,86.0,0.5,44,35.77
602,F2,86.0,0.5,44,35.77
603,C5,86.5,0.25,51,35.77
604,B4,86.75,0.25,44,35.77
605,C5,87.0,0.25,51,35.77
606,B4,87.25,0.25,43,35.77
607,C5,87.5,0.25,51,35.77
608,B4,87.75,0.25,45,35.77
609,F5,88.0,0.25,70,35.77
610,F2,88.0,0.5,44,35.77
611,E-3,88.0,0.5,44,35.77
612,D5,88.5,0.25,51,35.77
613,C5,88.75,0.25,44,35.77
614,F5,89.0,0.25,70,35.77
615,F2,89.0,0.5,44,35.77
616,D3,89.0,0.5,44,35.77
617,C5,89.5,0.25,51,35.77
618,B4,89.75,0.25,44,35.77
619,F5,90.0,0.25,70,35.77
620,E-3,90.0,0.5,44,35.77
621,F2,90.0,0.5,44,35.77
622,D5,90.5,0.25,51,35.77
623,C5,90.75,0.25,44,35.77
624,F5,91.0,0.5,64,35.77
625,F3,91.0,0.5,48,35.77
626,G3,91.5,0.25,38,35.77
627,C5,91.5,1.0,64,35.77
628,E-5,91.5,1.0,64,35.77
629,A3,91.75,0.25,40,35.77
630,F4,92.0,1.0,45,35.77
631,B-3,92.0,0.25,42,35.77
632,C4,92.25,0.25,44,35.77
633,D4,92.5,0.25,46,35.77
634,D5,92.5,0.5,60,35.77
635,B-4,92.5,0.5,60,35.77
636,E-4,92.75,0.25,48,35.77
637,F4,93.0,0.5,50,35.77
638,C5,93.0,0.5,60,35.77
639,A4,93.0,0.5,60,35.77
640,G4,93.5,0.25,38,35.77
641,C6,93.5,1.0,64,35.77
642,E-6,93.5,1.0,64,35.77
643,A4,93.75,0.25,40,35.77
644,F5,94.0,1.0,45,35.77
645,B-4,94.0,0.25,42,35.77
646,C5,94.25,0.25,44,35.77
647,D5,94.5,0.25,46,35.77
648,B-5,94.5,0.5,60,35.77
649,D6,94.5,0.5,60,35.77
650,E-5,94.75,0.25,48,35.77
651,F5,95.0,0.5,50,35.77
652,C6,95.0,0.5,60,35.77
653,A5,95.0,0.5,60,35.77
654,G6,95.5,1.0,77,35.77
655,E-5,95.5,0.5,47,35.77
656,C6,95.5,0.5,64,35.77
657,A5,95.5,0.5,64,35.77
658,D5,96.0,0.5,56,35.77
659,F5,96.0,0.5,65,35.77
660,B-5,96.0,0.5,65,35.77
661,C#5,96.5,0.5,46,35.77
662,F5,96.5,0.5,67,35.77
663,F6,96.5,0.5,67,35.77
664,B-5,96.5,0.5,67,35.77
665,C5,97.0,0.5,55,35.77
666,G5,97.0,0.5,69,35.77
667,B-5,97.0,0.5,69,35.77
668,F4,97.5,0.5,47,35.77
669,E-6,97.5,0.5,71,35.77
670,C6,97.5,0.5,71,35.77
671,A5,97.5,0.5,71,35.77
672,D6,98.0,2.0,88,35.77
673,B-3,98.0,2.0,39,35.77
674,F5,98.25,0.25,49,35.77
675,G5,98.5,0.25,55,35.77
676,C#4,98.5,1.0,39,35.77
677,E4,98.5,1.0,39,35.77
678,F5,98.75,0.25,50,35.77
679,G5,99.0,0.25,55,35.77
680,F5,99.25,0.25,47,35.77
681,G5,99.5,0.25,55,35.77
682,D4,99.5,0.5,39,35.77
683,F4,99.5,0.5,39,35.77
684,F5,99.75,0.25,48,35.77
685,C6,100.0,2.0,80,35.77
686,B-3,100.0,2.0,39,35.77
687,E-5,100.25,0.25,46,35.77
688,F5,100.5,0.25,54,35.77
689,F#4,100.5,1.0,39,35.77
690,A4,100.5,1.0,39,35.77
691,E-5,100.75,0.25,50,35.77
692,F5,101.0,0.25,53,35.77
693,E-5,101.25,0.25,47,35.77
694,F5,101.5,0.25,53,35.77
695,F4,101.5,0.5,39,35.77
696,E-5,101.75,0.25,48,35.77
697,B-5,102.0,1.0,70,35.77
698,D5,102.0,0.25,53,35.77
699,B-3,102.0,2.0,39,35.77
700,B-4,102.25,0.25,48,35.77
701,C5,102.5,0.25,53,35.77
702,D4,102.5,0.5,36,35.77
703,F4,102.5,0.5,36,35.77
704,B-4,102.75,0.25,48,35.77
705,G5,103.0,0.5,68,35.77
706,E-4,103.0,0.5,36,35.77
707,G4,103.0,0.5,36,35.77
708,B-4,103.25,0.25,48,35.77
709,F5,103.5,0.5,60,35.77
710,D4,103.5,0.5,34,35.77
711,F4,103.5,0.5,34,35.77
712,B-4,103.75,0.25,48,35.77
713,F5,104.0,0.5,68,35.77
714,B-4,104.0,0.25,53,35.77
715,D4,104.0,0.5,39,35.77
716,F3,104.0,2.0,39,35.77
717,F4,104.25,0.25,48,35.77
718,A4,104.5,0.25,53,35.77
719,E-5,104.5,0.5,58,35.77
720,E-4,104.5,0.5,36,35.77
721,C4,104.5,0.5,36,35.77
722,F4,104.75,0.25,48,35.77
723,B-4,105.0,0.25,53,35.77
724,D5,105.0,0.5,66,35.77
725,B-3,105.0,0.5,36,35.77
726,D4,105.0,0.5,36,35.77
727,F4,105.25,0.25,48,35.77
728,C5,105.5,0.5,57,35.77
729,C4,105.5,0.5,34,35.77
730,A3,105.5,0.5,34,35.77
731,F4,105.75,0.25,48,35.77
732,D5,106.0,2.0,79,35.77
733,B-2,106.0,2.0,35,35.77
734,F4,106.25,0.25,44,35.77
735,G4,106.5,0.25,49,35.77
736,C#3,106.5,1.0,35,35.77
737,E3,106.5,1.0,35,35.77
738,F4,106.75,0.25,45,35.77
739,G4,107.0,0.25,49,35.77
740,F4,107.25,0.25,42,35.77
741,G4,107.5,0.25,49,35.77
742,F3,107.5,0.5,35,35.77
743,D3,107.5,0.5,35,35.77
744,F4,107.75,0.25,43,35.77
745,C5,108.0,2.0,72,35.77
746,B-2,108.0,2.0,35,35.77
747,E-4,108.25,0.25,41,35.77
748,F4,108.5,0.25,48,35.77
749,F#3,108.5,1.0,35,35.77
750,A3,108.5,1.0,35,35.77
751,E-4,108.75,0.25,45,35.77
752,F4,109.0,0.25,47,35.77
753,E-4,109.25,0.25,42,35.77
754,F4,109.5,0.25,47,35.77
755,F3,109.5,0.5,35,35.77
756,E-4,109.75,0.25,43,35.77
757,B-4,110.0,1.0,63,35.77
758,D4,110.0,0.25,47,35.77
759,B-2,110.0,2.0,35,35.77
760,B-3,110.25,0.25,43,35.77
761,C4,110.5,0.25,47,35.77
762,D3,110.5,0.5,32,35.77
763,F3,110.5,0.5,32,35.77
764,B-3,110.75,0.25,43,35.77
765,G4,111.0,0.5,61,35.77
766,G3,111.0,0.5,32,35.77
767,E-3,111.0,0.5,32,35.77
768,B-3,111.25,0.25,43,35.77
769,F4,111.5,0.5,54,35.77
770,D3,111.5,0.5,31,35.77
771,F3,111.5,0.5,31,35.77
772,B-3,111.75,0.25,43,35.77
773,B-3,112.0,0.25,47,35.77
774,F4,112.0,0.5,61,35.77
775,F2,112.0,2.0,35,35.77
776,D3,112.0,0.5,35,35.77
777,F3,112.25,0.25,43,35.77
778,E-4,112.5,0.5,52,35.77
779,A3,112.5,0.25,47,35.77
780,C3,112.5,0.5,32,35.77
781,E-3,112.5,0.5,32,35.77
782,F3,112.75,0.25,43,35.77
783,B-3,113.0,0.25,47,35.77
784,D4,113.0,0.5,59,35.77
785,B-2,113.0,0.5,32,35.77
786,D3,113.0,0.5,32,35.77
787,F3,113.25,0.25,43,35.77
788,C4,113.5,0.5,51,35.77
789,A2,113.5,0.5,31,35.77
790,C3,113.5,0.5,31,35.77
791,F3,113.75,0.25,43,35.77
792,B-3,114.0,1.25,57,35.77
793,B-2,114.0,0.75,43,35.77
794,B-1,114.0,0.75,43,35.77
795,F#3,114.25,0.75,46,35.77
796,D3,114.5,0.5,55,35.77
797,F#2,114.75,0.25,39,35.77
798,F2,115.0,0.5,45,35.77
799,F3,115.271,0.25,47,35.77
800,D3,115.5,0.25,47,35.77
801,B-1,115.5,0.5,38,35.77
802,B-3,115.75,0.5,47,35.77
803,F1,116.0,0.5,55,35.77
804,F3,116.0,1.0,47,35.77
805,B-3,116.25,0.25,47,35.77
806,A3,116.5,0.25,51,35.77
807,E-3,116.5,0.25,44,35.77
808,B-3,116.75,0.25,49,35.77
809,D3,116.75,0.25,36,35.77
810,C4,117.0,0.25,52,35.77
811,C3,117.0,0.25,43,35.77
812,D4,117.25,0.25,44,35.77
813,B-2,117.25,0.25,39,35.77
814,E-4,117.5,0.25,51,35.77
815,A2,117.5,0.25,39,35.77
816,F2,117.5,0.25,39,35.77
817,C4,117.75,0.25,47,35.77
818,F3,117.75,0.25,39,35.77
819,B-4,118.0,1.25,57,35.77
820,B-2,118.0,0.75,43,35.77
821,F#4,118.25,0.75,46,35.77
822,D4,118.5,0.5,55,35.77
823,F#3,118.75,0.25,39,35.77
824,F3,119.0,0.5,45,35.77
825,F4,119.271,0.25,47,35.77
826,D4,119.5,0.25,47,35.77
827,B-2,119.5,0.5,38,35.77
828,B-4,119.75,0.5,47,35.77
829,F4,120.0,1.0,47,35.77
830,F2,120.0,0.5,55,35.77
831,B-4,120.25,0.25,47,35.77
832,A4,120.5,0.25,51,35.77
833,E-4,120.5,0.25,44,35.77
834,B-4,120.75,0.25,49,35.77
835,D4,120.75,0.25,36,35.77
836,C5,121.0,0.25,52,35.77
837,C4,121.0,0.25,43,35.77
838,D5,121.25,0.25,44,35.77
839,B-3,121.25,0.25,39,35.77
840,E-5,121.5,0.25,51,35.77
841,A3,121.5,0.25,39,35.77
842,F3,121.5,0.25,39,35.77
843,C5,121.75,0.25,47,35.77
844,C4,121.75,0.25,39,35.77
845,D5,122.0,0.25,51,35.77
846,B-3,122.0,0.75,39,35.77
847,D4,122.0,0.75,39,35.77
848,C5,122.25,0.25,42,35.77
849,B-4,122.5,0.75,49,35.77
850,C4,122.75,0.25,33,35.77
851,B-3,123.0,0.75,39,35.77
852,G4,123.25,0.25,41,35.77
853,F4,123.5,0.75,48,35.77
854,G3,123.75,0.25,34,35.77
855,F3,124.0,0.75,39,35.77
856,E-4,124.25,0.25,42,35.77
857,D4,124.5,0.75,48,35.77
858,E-3,124.75,0.25,35,35.77
859,D3,125.0,0.75,39,35.77
860,C4,125.25,0.25,42,35.77
861,B-3,125.5,0.75,47,35.77
862,C3,125.75,0.25,33,35.77
863,B-2,126.0,0.75,39,35.77
864,G3,126.25,0.25,41,35.77
865,F3,126.5,0.75,47,35.77
866,G2,126.75,0.25,31,35.77
867,F2,127.0,0.75,39,35.77
868,E-3,127.25,0.25,38,35.77
869,D3,127.5,0.75,43,35.77
870,E-2,127.75,0.25,34,35.77
871,D2,128.0,0.75,39,35.77
872,C3,128.25,0.25,37,35.77
873,B-2,128.5,0.75,44,35.77
874,C2,128.75,0.25,35,35.77
875,B-1,129.0,0.75,39,35.77
876,C3,129.25,0.25,36,35.77
877,B-2,129.5,1.0,41,35.77
878,G#4,129.75,0.25,34,35.77
879,F4,129.75,0.25,34,35.77
880,F4,130.0,2.0,39,35.77
881,G#4,130.0,2.0,39,35.77
882,E-4,132.0,2.0,39,35.77
883,G4,132.0,2.0,39,35.77
884,B-4,134.0,2.0,49,35.77
885,F5,134.0,2.0,49,35.77
886,D4,134.0,2.0,39,35.77
887,F4,134.0,2.0,39,35.77
888,B-4,136.0,2.0,47,35.77
889,G5,136.0,2.0,47,35.77
890,E-4,136.0,2.0,39,35.77
891,C#4,136.0,2.0,39,35.77
892,G#5,138.0,1.5,70,35.77
893,G#4,138.0,1.5,70,35.77
894,E-4,138.0,1.5,70,35.77
895,C4,138.0,1.5,70,35.77
896,G4,139.5,0.5,59,35.77
897,D5,139.5,0.25,70,35.77
898,B3,139.5,0.25,56,35.77
899,D4,139.5,0.25,56,35.77
900,G5,139.75,0.125,67,35.77
901,B-3,139.75,0.125,54,35.77
902,C#4,139.75,0.125,54,35.77
903,G5,140.0,0.5,64,35.77
904,G4,140.0,0.5,64,35.77
905,B-3,140.0,0.5,62,35.77
906,C#4,140.0,0.5,62,35.77
907,C5,140.5,0.25,70,35.77
908,F4,140.5,0.5,59,35.77
909,A3,140.5,0.25,56,35.77
910,C4,140.5,0.25,56,35.77
911,F5,140.75,0.125,67,35.77
912,B3,140.75,0.125,54,35.77
913,G#3,140.75,0.125,54,35.77
914,F5,141.0,0.5,64,35.77
915,F4,141.0,0.5,64,35.77
916,G#3,141.0,0.5,62,35.77
917,B3,141.0,0.5,62,35.77
918,E-4,141.5,0.5,59,35.77
919,B-4,141.5,0.25,70,35.77
920,G3,141.5,0.25,56,35.77
921,B-3,141.5,0.25,56,35.77
922,E-5,141.75,0.125,67,35.77
923,F#3,141.75,0.125,54,35.77
924,A3,141.75,0.125,54,35.77
925,E-4,142.0,1.0,64,35.77
926,E-5,142.0,1.0,64,35.77
927,B-4,142.0,1.5,59,35.77
928,G#4,142.0,1.5,59,35.77
929,G#3,142.0,1.5,62,35.77
930,F3,142.0,1.5,62,35.77
931,D5,143.0,0.5,54,35.77
932,D4,143.0,0.5,54,35.77
933,E-5,143.5,0.5,53,35.77
934,B-4,143.5,0.5,53,35.77
935,E-4,143.5,0.5,53,35.77
936,E-3,143.5,0.5,42,35.77
937,G3,143.5,0.5,42,35.77
938,B-4,144.0,0.5,51,35.77
939,F4,144.0,0.5,51,35.77
940,F5,144.0,0.5,51,35.77
941,F3,144.0,0.5,44,35.77
942,D3,144.0,0.5,44,35.77
943,B-4,144.5,0.5,54,35.77
944,G5,144.5,0.5,54,35.77
945,G4,144.5,0.5,54,35.77
946,C3,144.5,0.5,46,35.77
947,E-3,144.5,0.5,46,35.77
948,G#4,145.0,0.5,57,35.77
949,B-4,145.0,0.5,57,35.77
950,G#5,145.0,0.5,57,35.77
951,B-2,145.0,0.5,49,35.77
952,D3,145.0,0.5,49,35.77
953,B-4,145.5,0.5,62,35.77
954,B-5,145.5,0.5,62,35.77
955,F3,145.5,0.5,50,35.77
956,D3,145.5,0.5,50,35.77
957,B-2,145.5,0.5,50,35.77
958,E-2,146.0,0.25,56,35.77
959,B-4,146.0,0.5,70,35.77
960,B-5,146.0,0.5,70,35.77
961,G4,146.0,0.5,70,35.77
962,B-2,146.25,0.25,40,35.77
963,G3,146.5,0.25,40,35.77
964,B-2,146.75,0.25,40,35.77
965,E-2,147.0,0.25,54,35.77
966,B-5,147.0,0.5,75,35.77
967,B-4,147.0,0.5,75,35.77
968,B-2,147.25,0.25,44,35.77
969,G3,147.5,0.25,43,35.77
970,B-2,147.75,0.25,43,35.77
971,F2,148.0,0.25,58,35.77
972,B-5,148.0,1.5,86,35.77
973,B-6,148.0,1.5,86,35.77
974,B-2,148.25,0.25,49,35.77
975,G#3,148.5,0.25,49,35.77
976,B-2,148.75,0.25,47,35.77
977,F2,149.0,0.25,53,35.77
978,B-2,149.25,0.25,44,35.77
979,G#3,149.5,0.25,44,35.77
980,B-5,149.5,2.0,60,35.77
981,B-4,149.5,2.0,60,35.77
982,B-2,149.75,0.25,44,35.77
983,G2,150.0,0.25,53,35.77
984,B-2,150.25,0.25,43,35.77
985,B-3,150.5,0.25,43,35.77
986,B-2,150.75,0.25,43,35.77
987,G2,151.0,0.25,53,35.77
988,B-2,151.25,0.25,43,35.77
989,B-3,151.5,0.25,43,35.77
990,G4,151.5,0.5,62,35.77
991,G5,151.5,0.5,62,35.77
992,B-2,151.75,0.25,43,35.77
993,G#2,152.0,0.25,53,35.77
994,F5,152.0,0.5,60,35.77
995,F4,152.0,0.5,60,35.77
996,B-2,152.25,0.25,44,35.77
997,G#3,152.5,0.25,44,35.77
998,D5,152.5,0.5,52,35.77
999,D4,152.5,0.5,52,35.77
1000,B-2,152.75,0.25,44,35.77
1001,B-1,153.0,0.25,53,35.77
1002,B4,153.0,0.5,52,35.77
1003,B3,153.0,0.5,52,35.77
1004,B-2,153.25,0.25,46,35.77
1005,F3,153.5,0.25,46,35.77
1006,B-3,153.5,0.5,52,35.77
1007,B-4,153.5,0.5,52,35.77
1008,B-2,153.75,0.25,46,35.77
1009,E-2,154.0,0.25,56,35.77
1010,B-3,154.0,0.5,72,35.77
1011,B-4,154.0,0.5,72,35.77
1012,B-2,154.25,0.25,40,35.77
1013,G3,154.5,0.25,40,35.77
1014,B-2,154.75,0.25,40,35.77
1015,E-2,155.0,0.25,54,35.77
1016,B-5,155.0,0.5,75,35.77
1017,B-4,155.0,0.5,75,35.77
1018,B-2,155.25,0.25,44,35.77
1019,G3,155.5,0.25,43,35.77
1020,B-2,155.75,0.25,43,35.77
1021,F2,156.0,0.25,58,35.77
1022,B-5,156.0,1.5,86,35.77
1023,B-6,156.0,1.5,86,35.77
1024,B-2,156.25,0.25,49,35.77
1025,G#3,156.5,0.25,49,35.77
1026,B-2,156.75,0.25,47,35.77
1027,F2,157.0,0.25,53,35.77
1028,B-2,157.25,0.25,44,35.77
1029,G#3,157.5,0.25,44,35.77
1030,B-5,157.5,2.0,60,35.77
1031,B-4,157.5,2.0,60,35.77
1032,B-2,157.75,0.25,44,35.77
1033,G2,158.0,0.25,53,35.77
1034,E-3,158.25,0.25,43,35.77
1035,B-3,158.5,0.25,43,35.77
1036,E-3,158.75,0.25,43,35.77
1037,G2,159.0,0.25,53,35.77
1038,E-3,159.25,0.25,43,35.77
1039,B-3,159.5,0.25,43,35.77
1040,G5,159.5,0.5,62,35.77
1041,G4,159.5,0.5,62,35.77
1042,E-3,159.75,0.25,43,35.77
1043,G#2,160.0,0.25,53,35.77
1044,E4,160.0,0.5,60,35.77
1045,E5,160.0,0.5,60,35.77
1046,E-3,160.25,0.25,44,35.77
1047,C4,160.5,0.25,44,35.77
1048,F4,160.5,0.5,52,35.77
1049,F5,160.5,0.5,52,35.77
1050,E-3,160.75,0.25,44,35.77
1051,A2,161.0,0.25,53,35.77
1052,C5,161.0,0.5,52,35.77
1053,C4,161.0,0.5,52,35.77
1054,F3,161.25,0.25,46,35.77
1055,C4,161.5,0.25,46,35.77
1056,E-4,161.5,0.5,52,35.77
1057,E-5,161.5,0.5,52,35.77
1058,F3,161.75,0.25,46,35.77
1059,D4,162.0,0.25,56,35.77
1060,D5,162.0,0.25,56,35.77
1061,B-2,162.0,0.5,52,35.77
1062,B-3,162.0,0.5,52,35.77
1063,B-4,162.25,0.25,49,35.77
1064,A4,162.5,0.25,51,35.77
1065,E-4,162.5,0.25,46,35.77
1066,B-4,162.75,0.25,53,35.77
1067,D4,162.75,0.25,49,35.77
1068,C4,163.0,0.25,48,35.77
1069,C5,163.0,0.25,50,35.77
1070,A4,163.0,0.25,50,35.77
1071,B-3,163.25,0.25,47,35.77
1072,D5,163.25,0.25,52,35.77
1073,B-4,163.25,0.25,52,35.77
1074,A3,163.5,0.25,46,35.77
1075,C5,163.5,0.25,54,35.77
1076,E-5,163.5,0.25,54,35.77
1077,G#3,163.75,0.25,45,35.77
1078,F5,163.75,0.25,56,35.77
1079,D5,163.75,0.25,56,35.77
1080,G3,164.0,0.25,44,35.77
1081,G5,164.0,1.0,58,35.77
1082,E-5,164.0,1.0,58,35.77
1083,F3,164.25,0.25,43,35.77
1084,E-3,164.5,0.25,42,35.77
1085,D3,164.75,0.25,41,35.77
1086,E-3,165.0,0.25,40,35.77
1087,C6,165.0,0.25,57,35.77
1088,G#5,165.0,0.25,57,35.77
1089,F3,165.25,0.25,42,35.77
1090,G5,165.25,0.25,54,35.77
1091,B-5,165.25,0.25,54,35.77
1092,G3,165.5,0.25,44,35.77
1093,F5,165.5,0.25,52,35.77
1094,G#5,165.5,0.25,52,35.77
1095,G#3,165.75,0.25,46,35.77
1096,E-5,165.75,0.25,49,35.77
1097,G5,165.75,0.25,49,35.77
1098,B-3,166.0,0.5,48,35.77
1099,F5,166.0,0.5,56,35.77
1100,D5,166.0,0.5,56,35.77
1101,C4,166.5,0.25,42,35.77
1102,D4,166.75,0.25,46,35.77
1103,E-4,167.0,0.25,44,35.77
1104,C7,167.0,0.25,62,35.77
1105,G#6,167.0,0.25,62,35.77
1106,F4,167.25,0.25,46,35.77
1107,B-6,167.25,0.25,60,35.77
1108,G6,167.25,0.25,60,35.77
1109,G4,167.5,0.25,48,35.77
1110,F6,167.5,0.25,56,35.77
1111,G#6,167.5,0.25,56,35.77
1112,G#4,167.75,0.25,50,35.77
1113,E-6,167.75,0.25,54,35.77
1114,G6,167.75,0.25,54,35.77
1115,B-4,168.0,0.5,57,35.77
1116,F6,168.0,0.5,62,35.77
1117,D6,168.0,0.5,62,35.77
1118,G#4,168.5,0.25,46,35.77
1119,C6,168.5,0.25,62,35.77
1120,D5,168.5,0.25,62,35.77
1121,G4,168.75,0.25,53,35.77
1122,E-5,168.75,0.25,62,35.77
1123,B-5,168.75,0.25,62,35.77
1124,F4,169.0,0.25,52,35.77
1125,G#5,169.0,0.25,62,35.77
1126,B4,169.0,0.25,62,35.77
1127,E-4,169.25,0.25,51,35.77
1128,G5,169.25,0.25,61,35.77
1129,C5,169.25,0.25,61,35.77
1130,D4,169.5,0.188,50,35.77
1131,G4,169.5,0.188,60,35.77
1132,F5,169.5,0.188,60,35.77
1133,C4,169.75,0.188,49,35.77
1134,E-5,169.75,0.188,58,35.77
1135,F#5,169.75,0.188,58,35.77
1136,B3,170.0,0.188,47,35.77
1137,G5,170.0,0.188,56,35.77
1138,D5,170.0,0.188,56,35.77
1139,A3,170.25,0.188,48,35.77
1140,A5,170.25,0.188,58,35.77
1141,D5,170.25,0.188,58,35.77
1142,F#5,170.25,0.188,58,35.77
1143,G3,170.5,0.188,51,35.77
1144,D5,170.5,0.188,61,35.77
1145,G5,170.5,0.188,61,35.77
1146,B5,170.5,0.188,61,35.77
1147,F3,170.75,0.188,55,35.77
1148,B5,170.75,0.188,64,35.77
1149,D5,170.75,0.188,64,35.77
1150,G5,170.75,0.188,64,35.77
1151,E-3,171.0,0.188,59,35.77
1152,C6,171.0,0.188,67,35.77
1153,G5,171.0,0.188,67,35.77
1154,E-5,171.0,0.188,67,35.77
1155,D3,171.25,0.188,62,35.77
1156,F5,171.25,0.188,71,35.77
1157,D6,171.25,0.188,71,35.77
1158,B5,171.25,0.188,71,35.77
1159,C3,171.5,0.188,66,35.77
1160,C6,171.5,0.188,73,35.77
1161,E-6,171.5,0.188,73,35.77
1162,G5,171.5,0.188,73,35.77
1163,G5,171.75,0.188,76,35.77
1164,C6,171.75,0.188,76,35.77
1165,E6,171.75,0.188,76,35.77
1166,B-2,171.75,0.188,64,35.77
1167,C3,171.75,0.188,64,35.77
1168,E6,172.0,0.25,79,35.77
1169,G5,172.0,0.25,79,35.77
1170,C6,172.0,0.25,79,35.77
1171,B-2,172.0,0.25,66,35.77
1172,C3,172.0,0.25,66,35.77
1173,C6,173.0,0.25,92,35.77
1174,F5,173.0,0.25,92,35.77
1175,F6,173.0,0.25,92,35.77
1176,C3,173.0,0.25,69,35.77
1177,A2,173.0,0.25,69,35.77
1178,E-5,174.0,1.5,84,35.77
1179,B-4,174.0,2.5,65,35.77
1180,C3,174.0,4.0,65,35.77
1181,F#2,174.0,1.5,71,35.77
1182,F5,175.5,0.25,85,35.77
1183,F2,175.5,0.25,71,35.77
1184,F#5,176.0,2.0,93,35.77
1185,E-2,176.0,2.0,80,35.77
1186,B-4,176.5,0.25,61,35.77
1187,A4,176.75,0.25,52,35.77
1188,B-4,177.0,0.25,61,35.77
1189,A4,177.25,0.25,54,35.77
1190,B-4,177.5,0.25,61,35.77
1191,A4,177.75,0.25,54,35.77
1192,E-5,178.0,1.5,84,35.77
1193,B-4,178.0,2.5,65,35.77
1194,C3,178.0,4.0,65,35.77
1195,F#2,178.0,1.5,71,35.77
1196,F5,179.5,0.25,85,35.77
1197,F2,179.5,0.25,71,35.77
1198,G5,180.0,2.0,93,35.77
1199,E2,180.0,2.0,80,35.77
1200,B-4,180.5,0.25,61,35.77
1201,A4,180.75,0.25,52,35.77
1202,B-4,181.0,0.25,61,35.77
1203,A4,181.25,0.25,54,35.77
1204,B-4,181.5,0.25,61,35.77
1205,A4,181.75,0.25,54,35.77
1206,F#5,182.0,0.5,70,35.77
1207,F2,182.0,0.5,44,35.77
1208,C3,182.0,0.5,44,35.77
1209,B-4,182.5,0.25,51,35.77
1210,A4,182.75,0.25,44,35.77
1211,B-4,183.0,0.25,51,35.77
1212,A4,183.25,0.25,43,35.77
1213,B-4,183.5,0.25,51,35.77
1214,A4,183.75,0.25,45,35.77
1215,F5,184.0,0.5,70,35.77
1216,F2,184.0,0.5,44,35.77
1217,D3,184.0,0.5,44,35.77
1218,C5,184.5,0.25,51,35.77
1219,B4,184.75,0.25,44,35.77
1220,C5,185.0,0.25,51,35.77
1221,B4,185.25,0.25,43,35.77
1222,C5,185.5,0.25,51,35.77
1223,B4,185.75,0.25,45,35.77
1224,F5,186.0,0.25,70,35.77
1225,E-3,186.0,0.5,44,35.77
1226,F2,186.0,0.5,44,35.77
1227,D5,186.5,0.25,51,35.77
1228,C5,186.75,0.25,44,35.77
1229,F5,187.0,0.25,70,35.77
1230,F2,187.0,0.5,44,35.77
1231,D3,187.0,0.5,44,35.77
1232,C5,187.5,0.25,51,35.77
1233,B-4,187.75,0.25,44,35.77
1234,F5,188.0,0.25,70,35.77
1235,F2,188.0,0.5,44,35.77
1236,C3,188.0,0.5,44,35.77
1237,B-4,188.5,0.25,51,35.77
1238,A4,188.75,0.25,44,35.77
1239,F5,189.0,0.25,70,35.77
1240,F2,189.0,0.5,44,35.77
1241,D3,189.0,0.5,44,35.77
1242,C5,189.5,0.25,51,35.77
1243,B-4,189.75,0.25,44,35.77
1244,F#5,190.0,0.5,70,35.77
1245,F2,190.0,0.5,44,35.77
1246,C3,190.0,0.5,44,35.77
1247,B-4,190.5,0.25,51,35.77
1248,A4,190.75,0.25,44,35.77
1249,B-4,191.0,0.25,51,35.77
1250,A4,191.25,0.25,43,35.77
1251,B-4,191.5,0.25,51,35.77
1252,A4,191.75,0.25,45,35.77
1253,F5,192.0,0.5,70,35.77
1254,F2,192.0,0.5,44,35.77
1255,D3,192.0,0.5,44,35.77
1256,C5,192.5,0.25,51,35.77
1257,B4,192.75,0.25,44,35.77
1258,C5,193.0,0.25,51,35.77
1259,B4,193.25,0.25,43,35.77
1260,C5,193.5,0.25,51,35.77
1261,B4,193.75,0.25,45,35.77
1262,F5,194.0,0.25,70,35.77
1263,F2,194.0,0.5,44,35.77
1264,E-3,194.0,0.5,44,35.77
1265,D5,194.5,0.25,51,35.77
1266,C5,194.75,0.25,44,35.77
1267,F5,195.0,0.25,70,35.77
1268,F2,195.0,0.5,44,35.77
1269,D3,195.0,0.5,44,35.77
1270,C5,195.5,0.25,51,35.77
1271,B4,195.75,0.25,44,35.77
1272,F5,196.0,0.25,70,35.77
1273,E-3,196.0,0.5,44,35.77
1274,F2,196.0,0.5,44,35.77
1275,D5,196.5,0.25,51,35.77
1276,C5,196.75,0.25,44,35.77
1277,F5,197.0,0.5,64,35.77
1278,F3,197.015,0.5,48,35.77
1279,G3,197.5,0.25,38,35.77
1280,C5,197.5,1.0,64,35.77
1281,E-5,197.5,1.0,64,35.77
1282,A3,197.75,0.25,40,35.77
1283,F4,198.0,1.0,45,35.77
1284,B-3,198.0,0.25,42,35.77
1285,C4,198.25,0.25,44,35.77
1286,D4,198.5,0.25,46,35.77
1287,D5,198.5,0.5,60,35.77
1288,B-4,198.5,0.5,60,35.77
1289,E-4,198.75,0.25,48,35.77
1290,F4,199.0,0.5,50,35.77
1291,C5,199.0,0.5,60,35.77
1292,A4,199.0,0.5,60,35.77
1293,G4,199.5,0.25,38,35.77
1294,C6,199.5,1.0,64,35.77
1295,E-6,199.5,1.0,64,35.77
1296,A4,199.75,0.25,40,35.77
1297,F5,200.0,1.0,45,35.77
1298,B-4,200.0,0.25,42,35.77
1299,C5,200.25,0.25,44,35.77
1300,D5,200.5,0.25,46,35.77
1301,D6,200.5,0.5,60,35.77
1302,B-5,200.5,0.5,60,35.77
1303,E-5,200.75,0.25,48,35.77
1304,F5,201.0,0.5,50,35.77
1305,A5,201.0,0.5,60,35.77
1306,C6,201.0,0.5,60,35.77
1307,G6,201.5,1.0,77,35.77
1308,E-5,201.5,0.5,47,35.77
1309,A5,201.5,0.5,64,35.77
1310,C6,201.5,0.5,64,35.77
1311,D5,202.0,0.5,56,35.77
1312,B-5,202.0,0.5,65,35.77
1313,F5,202.0,0.5,65,35.77
1314,C#5,202.5,0.5,46,35.77
1315,B-5,202.5,0.5,67,35.77
1316,F5,202.5,0.5,67,35.77
1317,F6,202.5,0.5,67,35.77
1318,C5,203.0,0.5,55,35.77
1319,B-5,203.0,0.5,69,35.77
1320,G5,203.0,0.5,69,35.77
1321,F4,203.5,0.5,47,35.77
1322,E-6,203.5,0.5,71,35.77
1323,A5,203.5,0.5,71,35.77
1324,C6,203.5,0.5,71,35.77
1325,D6,204.0,2.0,88,35.77
1326,B-3,204.0,2.0,39,35.77
1327,F5,204.25,0.25,49,35.77
1328,G5,204.5,0.25,55,35.77
1329,E4,204.5,1.0,39,35.77
1330,C#4,204.5,1.0,39,35.77
1331,F5,204.75,0.25,50,35.77
1332,G5,205.0,0.25,55,35.77
1333,F5,205.25,0.25,47,35.77
1334,G5,205.5,0.25,55,35.77
1335,D4,205.5,0.5,39,35.77
1336,F4,205.5,0.5,39,35.77
1337,F5,205.75,0.25,48,35.77
1338,C6,206.0,2.0,80,35.77
1339,B-3,206.0,2.0,39,35.77
1340,E-5,206.25,0.25,46,35.77
1341,F5,206.5,0.25,54,35.77
1342,F#4,206.5,1.0,39,35.77
1343,A4,206.5,1.0,39,35.77
1344,E-5,206.75,0.25,50,35.77
1345,F5,207.0,0.25,53,35.77
1346,E-5,207.25,0.25,47,35.77
1347,F5,207.5,0.25,53,35.77
1348,F4,207.5,0.5,39,35.77
1349,E-5,207.75,0.25,48,35.77
1350,D5,208.0,0.25,53,35.77
1351,B-5,208.0,1.0,70,35.77
1352,B-3,208.0,2.0,39,35.77
1353,B-4,208.25,0.25,48,35.77
1354,C5,208.5,0.25,53,35.77
1355,D4,208.5,0.5,36,35.77
1356,F4,208.5,0.5,36,35.77
1357,B-4,208.75,0.25,48,35.77
1358,G5,209.0,0.5,68,35.77
1359,G4,209.0,0.5,36,35.77
1360,E-4,209.0,0.5,36,35.77
1361,B-4,209.25,0.25,48,35.77
1362,F5,209.5,0.5,60,35.77
1363,F4,209.5,0.5,34,35.77
1364,D4,209.5,0.5,34,35.77
1365,B-4,209.75,0.25,48,35.77
1366,B-4,210.0,0.25,53,35.77
1367,F5,210.0,0.5,68,35.77
1368,D4,210.0,0.5,39,35.77
1369,F3,210.0,2.0,39,35.77
1370,F4,210.25,0.25,48,35.77
1371,A4,210.5,0.25,53,35.77
1372,E-5,210.5,0.5,58,35.77
1373,E-4,210.5,0.5,36,35.77
1374,C4,210.5,0.5,36,35.77
1375,F4,210.75,0.25,48,35.77
1376,D5,211.0,0.5,66,35.77
1377,B-4,211.0,0.25,53,35.77
1378,B-3,211.0,0.5,36,35.77
1379,D4,211.0,0.5,36,35.77
1380,F4,211.25,0.25,48,35.77
1381,C5,211.5,0.5,57,35.77
1382,C4,211.5,0.5,34,35.77
1383,A3,211.5,0.5,34,35.77
1384,F4,211.75,0.25,48,35.77
1385,D5,212.0,2.0,79,35.77
1386,B-2,212.0,2.0,35,35.77
1387,F4,212.25,0.25,44,35.77
1388,G4,212.5,0.25,49,35.77
1389,C#3,212.5,1.0,35,35.77
1390,E3,212.5,1.0,35,35.77
1391,F4,212.75,0.25,45,35.77
1392,G4,213.0,0.25,49,35.77
1393,F4,213.25,0.25,42,35.77
1394,G4,213.5,0.25,49,35.77
1395,D3,213.5,0.5,35,35.77
1396,F3,213.5,0.5,35,35.77
1397,F4,213.75,0.25,43,35.77
1398,C5,214.0,2.0,72,35.77
1399,B-2,214.0,2.0,35,35.77
1400,E-4,214.25,0.25,41,35.77
1401,F4,214.5,0.25,48,35.77
1402,F#3,214.5,1.0,35,35.77
1403,A3,214.5,1.0,35,35.77
1404,E-4,214.75,0.25,45,35.77
1405,F4,215.0,0.25,47,35.77
1406,E-4,215.25,0.25,42,35.77
1407,F4,215.5,0.25,47,35.77
1408,F3,215.5,0.5,35,35.77
1409,E-4,215.75,0.25,43,35.77
1410,B-4,216.0,1.0,63,35.77
1411,D4,216.0,0.25,47,35.77
1412,B-2,216.0,2.0,35,35.77
1413,B-3,216.25,0.25,43,35.77
1414,C4,216.5,0.25,47,35.77
1415,F3,216.5,0.5,32,35.77
1416,D3,216.5,0.5,32,35.77
1417,B-3,216.75,0.25,43,35.77
1418,G4,217.0,0.5,61,35.77
1419,G3,217.0,0.5,32,35.77
1420,E-3,217.0,0.5,32,35.77
1421,B-3,217.25,0.25,43,35.77
1422,F4,217.5,0.5,54,35.77
1423,D3,217.5,0.5,31,35.77
1424,F3,217.5,0.5,31,35.77
1425,B-3,217.75,0.25,43,35.77
1426,B-3,218.0,0.25,47,35.77
1427,F4,218.0,0.5,61,35.77
1428,D3,218.0,0.5,35,35.77
1429,F2,218.0,2.0,35,35.77
1430,F3,218.25,0.25,43,35.77
1431,A3,218.5,0.25,47,35.77
1432,E-4,218.5,0.5,52,35.77
1433,E-3,218.5,0.5,32,35.77
1434,C3,218.5,0.5,32,35.77
1435,F3,218.75,0.25,43,35.77
1436,D4,219.0,0.5,59,35.77
1437,B-3,219.0,0.25,47,35.77
1438,B-2,219.0,0.5,32,35.77
1439,D3,219.0,0.5,32,35.77
1440,F3,219.25,0.25,43,35.77
1441,C4,219.5,0.5,51,35.77
1442,A2,219.5,0.5,31,35.77
1443,C3,219.5,0.5,31,35.77
1444,F3,219.75,0.25,43,35.77
1445,B-3,220.0,1.25,57,35.77
1446,B-1,220.0,0.75,43,35.77
1447,B-2,220.0,0.75,43,35.77
1448,F#3,220.25,0.75,46,35.77
1449,D3,220.5,0.5,55,35.77
1450,F#2,220.75,0.25,39,35.77
1451,F2,221.0,0.5,45,35.77
1452,F3,221.271,0.25,47,35.77
1453,D3,221.5,0.25,47,35.77
1454,B-1,221.5,0.5,38,35.77
1455,B-3,221.75,0.5,47,35.77
1456,F1,222.0,0.5,55,35.77
1457,F3,222.0,1.0,47,35.77
1458,B-3,222.25,0.25,47,35.77
1459,A3,222.5,0.25,51,35.77
1460,E-3,222.5,0.25,44,35.77
1461,B-3,222.75,0.25,49,35.77
1462,D3,222.75,0.25,36,35.77
1463,C4,223.0,0.25,52,35.77
1464,C3,223.0,0.25,43,35.77
1465,D4,223.25,0.25,44,35.77
1466,B-2,223.25,0.25,39,35.77
1467,E-4,223.5,0.25,51,35.77
1468,F2,223.5,0.25,39,35.77
1469,A2,223.5,0.25,39,35.77
1470,C4,223.75,0.25,47,35.77
1471,F3,223.75,0.25,39,35.77
1472,B-4,224.0,1.25,57,35.77
1473,B-2,224.0,0.75,43,35.77
1474,F#4,224.25,0.75,46,35.77
1475,D4,224.5,0.5,55,35.77
1476,F#3,224.75,0.25,39,35.77
1477,F3,225.0,0.5,45,35.77
1478,F4,225.271,0.25,47,35.77
1479,D4,225.5,0.25,47,35.77
1480,B-2,225.5,0.5,38,35.77
1481,B-4,225.75,0.5,47,35.77
1482,F4,226.0,1.0,47,35.77
1483,F2,226.0,0.5,55,35.77
1484,B-4,226.25,0.25,47,35.77
1485,A4,226.5,0.25,51,35.77
1486,E-4,226.5,0.25,44,35.77
1487,B-4,226.75,0.25,49,35.77
1488,D4,226.75,0.25,36,35.77
1489,C5,227.0,0.25,52,35.77
1490,C4,227.0,0.25,43,35.77
1491,D5,227.25,0.25,44,35.77
1492,B-3,227.25,0.25,39,35.77
1493,E-5,227.5,0.25,51,35.77
1494,F3,227.5,0.25,39,35.77
1495,A3,227.5,0.25,39,35.77
1496,C5,227.75,0.25,47,35.77
1497,C4,227.75,0.25,39,35.77
1498,D5,228.0,0.25,51,35.77
1499,D4,228.0,0.75,39,35.77
1500,B-3,228.0,0.75,39,35.77
1501,C5,228.25,0.25,42,35.77
1502,B-4,228.5,0.75,49,35.77
1503,C4,228.75,0.25,33,35.77
1504,B-3,229.0,0.75,39,35.77
1505,G4,229.25,0.25,41,35.77
1506,F4,229.5,0.75,48,35.77
1507,G3,229.75,0.25,34,35.77
1508,F3,230.0,0.75,39,35.77
1509,E-4,230.25,0.25,42,35.77
1510,D4,230.5,0.75,48,35.77
1511,E-3,230.75,0.25,35,35.77
1512,D3,231.0,0.75,39,35.77
1513,C4,231.25,0.25,42,35.77
1514,B-3,231.5,0.75,47,35.77
1515,C3,231.75,0.25,33,35.77
1516,B-2,232.0,0.75,39,35.77
1517,G3,232.25,0.25,41,35.77
1518,F3,232.5,0.75,47,35.77
1519,G2,232.75,0.25,31,35.77
1520,F2,233.0,0.75,39,35.77
1521,E-3,233.25,0.25,38,35.77
1522,D3,233.5,0.75,43,35.77
1523,E-2,233.75,0.25,34,35.77
1524,D2,234.0,0.75,39,35.77
1525,C3,234.25,0.25,37,35.77
1526,B-2,234.5,0.75,44,35.77
1527,C2,234.75,0.25,35,35.77
1528,B-1,235.0,0.75,39,35.77
1529,C3,235.25,0.25,36,35.77
1530,B-2,235.5,1.0,41,35.77
1531,F4,235.75,0.25,34,35.77
1532,G#4,235.75,0.25,34,35.77
1533,G#4,236.0,2.0,39,35.77
1534,F4,236.0,2.0,39,35.77
1535,E-4,238.0,2.0,39,35.77
1536,G4,238.0,2.0,39,35.77
1537,B-4,240.0,2.0,49,35.77
1538,F5,240.0,2.0,49,35.77
1539,D4,240.0,2.0,39,35.77
1540,F4,240.0,2.0,39,35.77
1541,G#5,242.0,2.0,47,35.77
1542,G#4,242.0,2.0,47,35.77
1543,E-4,242.0,2.0,39,35.77
1544,C4,242.0,2.0,39,35.77
1545,G4,244.0,1.5,80,35.77
1546,G5,244.0,1.5,80,35.77
1547,D4,244.0,1.5,70,35.77
1548,B3,244.0,1.5,70,35.77
1549,D5,245.5,0.25,79,35.77
1550,B-3,245.5,0.5,56,35.77
1551,D4,245.5,0.5,56,35.77
1552,G5,245.75,0.125,76,35.77
1553,G5,246.0,0.5,72,35.77
1554,G4,246.0,0.5,72,35.77
1555,G#3,246.0,0.5,62,35.77
1556,C4,246.0,0.5,62,35.77
1557,C5,246.5,0.25,78,35.77
1558,F5,246.75,0.125,74,35.77
1559,F4,247.0,0.5,71,35.77
1560,F5,247.0,0.5,71,35.77
1561,B3,247.0,0.5,62,35.77
1562,G#3,247.0,0.5,62,35.77
1563,C5,247.5,0.25,77,35.77
1564,E-5,247.75,0.125,73,35.77
1565,E-4,248.0,0.5,69,35.77
1566,E-5,248.0,0.5,69,35.77
1567,C4,248.0,0.5,57,35.77
1568,G3,248.0,0.5,57,35.77
1569,A4,248.5,0.25,74,35.77
1570,C4,248.5,0.5,45,35.77
1571,F#3,248.5,0.5,45,35.77
1572,D5,248.75,0.125,71,35.77
1573,D4,249.0,0.5,66,35.77
1574,D5,249.0,0.5,66,35.77
1575,G4,249.0,0.5,66,35.77
1576,B3,249.0,0.5,54,35.77
1577,F3,249.0,0.5,54,35.77
1578,G3,249.0,0.5,54,35.77
1579,C5,249.5,0.5,64,35.77
1580,G5,249.5,0.25,64,35.77
1581,G3,249.5,0.5,36,35.77
1582,C4,249.5,0.5,36,35.77
1583,E-3,249.5,0.5,36,35.77
1584,C6,249.75,0.125,57,35.77
1585,F4,250.0,2.0,45,35.77
1586,E-4,252.0,2.0,45,35.77
1587,F#4,254.0,3.5,40,35.77
1588,A4,254.0,3.5,40,35.77
1589,E-5,254.0,3.5,40,35.77
1590,C3,254.5,0.25,50,35.77
1591,F#3,254.75,0.125,41,35.77
1592,F#3,255.0,0.25,48,35.77
1593,A2,255.5,0.25,47,35.77
1594,E-3,255.75,0.125,37,35.77
1595,E-3,256.0,0.25,48,35.77
1596,F2,256.5,0.25,48,35.77
1597,C3,256.75,0.125,39,35.77
1598,C3,257.0,0.25,48,35.77
1599,C#3,257.5,0.25,45,35.77
1600,B-4,257.5,0.25,45,35.77
1601,C#5,257.5,0.25,45,35.77
1602,F4,257.5,0.25,45,35.77
1603,C#5,258.0,2.0,55,35.77
1604,C5,260.0,2.0,50,35.77
1605,D5,262.0,4.0,45,35.77
1606,C5,262.0,4.0,45,35.77
1607,A5,262.0,4.0,45,35.77
1608,F#5,262.0,4.0,45,35.77
1609,D4,262.5,0.25,50,35.77
1610,A4,262.75,0.125,41,35.77
1611,A4,263.0,0.25,48,35.77
1612,F#3,263.5,0.25,47,35.77
1613,C4,263.75,0.125,37,35.77
1614,C4,264.0,0.25,48,35.77
1615,D3,264.5,0.25,48,35.77
1616,A3,264.75,0.125,39,35.77
1617,A3,265.0,0.25,48,35.77
1618,D2,265.5,0.25,48,35.77
1619,D3,265.75,0.125,39,35.77
1620,C5,266.0,2.0,55,35.77
1621,B4,268.0,2.0,50,35.77
1622,B4,270.0,4.0,45,35.77
1623,E-5,270.0,4.0,45,35.77
1624,A5,270.0,4.0,45,35.77
1625,F#5,270.0,4.0,45,35.77
1626,F#3,270.5,0.25,50,35.77
1627,E-4,270.75,0.125,41,35.77
1628,E-4,271.0,0.25,48,35.77
1629,E-3,271.5,0.25,47,35.77
1630,B3,271.75,0.125,37,35.77
1631,B3,272.0,0.25,48,35.77
1632,B2,272.5,0.25,48,35.77
1633,F#3,272.75,0.125,39,35.77
1634,F#3,273.0,0.25,48,35.77
1635,F#2,273.5,0.25,48,35.77
1636,E-3,273.75,0.125,39,35.77
1637,B4,274.0,2.0,55,35.77
1638,B-4,276.0,2.0,50,35.77
1639,D5,278.0,2.5,45,35.77
1640,F5,278.0,2.5,45,35.77
1641,B-4,278.0,2.5,45,35.77
1642,G#5,278.0,2.5,45,35.77
1643,G#3,278.5,0.25,50,35.77
1644,F4,278.75,0.125,41,35.77
1645,F4,279.0,0.25,48,35.77
1646,F3,279.5,0.25,47,35.77
1647,D4,279.75,0.125,37,35.77
1648,D4,280.0,0.25,48,35.77
1649,B-5,280.5,0.5,62,35.77
1650,D3,280.5,0.25,44,35.77
1651,F3,280.5,0.25,44,35.77
1652,F3,280.75,0.125,36,35.77
1653,G#3,280.75,0.125,36,35.77
1654,B5,281.0,0.5,69,35.77
1655,F3,281.0,0.25,44,35.77
1656,G#3,281.0,0.25,44,35.77
1657,B-5,281.5,0.5,62,35.77
1658,F3,281.5,0.25,44,35.77
1659,D3,281.5,0.25,44,35.77
1660,F3,281.75,0.125,36,35.77
1661,G#3,281.75,0.125,36,35.77
1662,D5,282.0,2.5,45,35.77
1663,B-4,282.0,2.5,45,35.77
1664,F5,282.0,2.5,45,35.77
1665,G#5,282.0,2.5,45,35.77
1666,G#3,282.5,0.25,50,35.77
1667,F4,282.75,0.125,41,35.77
1668,F4,283.0,0.25,48,35.77
1669,F3,283.5,0.25,47,35.77
1670,D4,283.75,0.125,37,35.77
1671,D4,284.0,0.25,48,35.77
1672,D5,284.5,0.5,52,35.77
1673,B-5,284.5,0.5,57,35.77
1674,F5,284.5,0.5,57,35.77
1675,E-5,285.0,0.5,58,35.77
1676,F#5,285.0,0.5,64,35.77
1677,B5,285.0,0.5,64,35.77
1678,D5,285.5,0.5,52,35.77
1679,B-5,285.5,0.5,57,35.77
1680,F5,285.5,0.5,57,35.77
1681,G5,286.0,1.5,67,35.77
1682,B-5,286.0,1.5,67,35.77
1683,E-5,286.0,1.5,67,35.77
1684,E-6,286.0,1.5,67,35.77
1685,B-4,286.0,1.5,68,35.77
1686,G4,286.0,1.5,68,35.77
1687,C#4,286.0,1.5,68,35.77
1688,F5,287.5,0.5,45,35.77
1689,G#5,287.5,0.25,62,35.77
1690,G#4,287.5,0.5,43,35.77
1691,B3,287.5,0.5,43,35.77
1692,F4,287.5,0.5,43,35.77
1693,C#6,287.75,0.125,52,35.77
1694,F#5,288.0,0.5,56,35.77
1695,C#6,288.0,0.5,56,35.77
1696,F#4,288.0,0.5,43,35.77
1697,B-3,288.0,0.5,43,35.77
1698,C#4,288.0,0.5,43,35.77
1699,F5,288.5,0.25,51,35.77
1700,B4,288.5,0.5,51,35.77
1701,G#3,288.5,0.5,42,35.77
1702,C#4,288.5,0.5,42,35.77
1703,B5,288.75,0.125,51,35.77
1704,B5,289.0,0.5,49,35.77
1705,G#5,289.0,0.5,49,35.77
1706,B4,289.0,0.5,49,35.77
1707,F3,289.0,0.5,42,35.77
1708,C#4,289.0,0.5,42,35.77
1709,F#4,289.5,0.5,47,35.77
1710,B-5,289.5,0.5,47,35.77
1711,F#5,289.5,0.5,47,35.77
1712,C#4,289.5,0.5,42,35.77
1713,F#3,289.5,0.5,42,35.77
1714,G#5,290.0,0.5,46,35.77
1715,G#4,290.0,0.5,46,35.77
1716,E-4,290.0,0.5,44,35.77
1717,B3,290.0,0.5,44,35.77
1718,F#4,290.5,0.5,42,35.77
1719,F#5,290.5,0.5,42,35.77
1720,B-3,290.5,0.5,37,35.77
1721,C#4,290.5,0.5,37,35.77
1722,F5,291.0,0.5,46,35.77
1723,F4,291.0,0.5,46,35.77
1724,B3,291.0,0.5,37,35.77
1725,G#3,291.0,0.5,37,35.77
1726,F#4,291.5,0.5,43,35.77
1727,F#5,291.5,0.5,43,35.77
1728,F#3,291.5,0.5,37,35.77
1729,B-3,291.5,0.5,37,35.77
1730,B4,292.0,2.0,40,35.77
1731,G#4,292.0,2.0,40,35.77
1732,G#5,292.0,2.0,40,35.77
1733,F2,292.5,0.25,50,35.77
1734,C#3,292.75,0.125,41,35.77
1735,C#3,293.0,0.25,48,35.77
1736,F3,293.5,0.25,47,35.77
1737,C#4,293.75,0.125,37,35.77
1738,G#5,294.0,2.0,40,35.77
1739,B4,294.0,2.0,40,35.77
1740,G#4,294.0,2.0,40,35.77
1741,F2,294.5,0.25,50,35.77
1742,D3,294.75,0.125,41,35.77
1743,D3,295.0,0.25,48,35.77
1744,F3,295.5,0.25,47,35.77
1745,D4,295.75,0.125,37,35.77
1746,G4,296.0,2.0,40,35.77
1747,C5,296.0,2.0,40,35.77
1748,G5,296.0,2.0,40,35.77
1749,E-2,296.5,0.25,50,35.77
1750,C3,296.75,0.125,41,35.77
1751,C3,297.0,0.25,47,35.77
1752,E-3,297.5,0.25,46,35.77
1753,C4,297.75,0.125,36,35.77
1754,F5,298.0,2.0,39,35.77
1755,F4,298.0,2.0,39,35.77
1756,G4,298.0,2.0,39,35.77
1757,B4,298.0,2.0,39,35.77
1758,D2,298.5,0.25,48,35.77
1759,B2,298.75,0.125,39,35.77
1760,B2,299.0,0.25,46,35.77
1761,D3,299.5,0.25,45,35.77
1762,B3,299.75,0.125,35,35.77
1763,E-4,300.0,2.0,38,35.77
1764,E-5,300.0,2.0,38,35.77
1765,G4,300.0,2.0,38,35.77
1766,C5,300.0,2.0,38,35.77
1767,C2,300.5,0.25,47,35.77
1768,C3,300.75,0.125,38,35.77
1769,C3,301.0,0.25,45,35.77
1770,C3,301.5,0.25,44,35.77
1771,C4,301.75,0.125,34,35.77
1772,D5,302.0,1.992,36,35.77
1773,B4,302.0,1.992,36,35.77
1774,F4,302.0,1.992,36,35.77
1775,G#4,302.0,1.992,36,35.77
1776,C2,302.5,0.25,46,35.77
1777,C3,302.75,0.125,37,35.77
1778,C3,303.0,0.25,44,35.77
1779,C3,303.5,0.25,42,35.77
1780,C4,303.75,0.125,33,35.77
1781,G4,304.0,2.0,36,35.77
1782,E-4,304.0,2.0,36,35.77
1783,C5,304.0,2.0,36,35.77
1784,C2,304.5,0.25,45,35.77
1785,C3,304.75,0.125,36,35.77
1786,C3,305.0,0.25,42,35.77
1787,C3,305.5,0.25,41,35.77
1788,C4,305.75,0.125,32,35.77
1789,F4,306.0,2.0,34,35.77
1790,D4,306.0,2.0,34,35.77
1791,B3,306.0,2.0,34,35.77
1792,G#4,306.0,2.0,34,35.77
1793,C2,306.5,0.25,43,35.77
1794,C3,306.75,0.125,35,35.77
1795,C3,307.0,0.25,41,35.77
1796,C3,307.5,0.25,40,35.77
1797,C4,307.75,0.125,31,35.77
1798,C4,308.0,1.871,32,35.77
1799,E-4,308.0,2.0,35,35.77
1800,G4,308.0,2.0,35,35.77
1801,C2,308.5,0.25,42,35.77
1802,C3,308.75,0.125,34,35.77
1803,C3,309.0,0.25,40,35.77
1804,C3,309.5,0.25,39,35.77
1805,C4,309.75,0.125,30,35.77
1806,C4,310.0,1.871,31,35.77
1807,G#4,310.0,2.0,34,35.77
1808,E-4,310.0,2.0,34,35.77
1809,C2,310.5,0.25,41,35.77
1810,C3,310.75,0.125,33,35.77
1811,C3,311.0,0.25,39,35.77
1812,C3,311.5,0.25,38,35.77
1813,C4,311.75,0.125,29,35.77
1814,E-4,312.0,2.0,33,35.77
1815,G#4,312.0,2.0,33,35.77
1816,C3,312.5,0.25,40,35.77
1817,C4,312.75,0.125,32,35.77
1818,C3,313.0,0.25,37,35.77
1819,C4,313.25,0.125,29,35.77
1820,D4,314.0,2.0,33,35.77
1821,G#4,314.0,2.0,33,35.77
1822,B2,314.5,0.25,40,35.77
1823,B3,314.75,0.125,32,35.77
1824,B2,315.0,0.25,37,35.77
1825,B3,315.25,0.125,29,35.77
1826,G#4,316.0,2.0,33,35.77
1827,E-4,316.0,2.0,33,35.77
1828,C3,316.5,0.25,40,35.77
1829,C4,316.75,0.125,32,35.77
1830,C3,317.0,0.25,37,35.77
1831,C4,317.25,0.125,29,35.77
1832,E-4,318.0,2.0,33,35.77
1833,G#4,318.0,2.0,33,35.77
1834,C3,318.5,0.25,40,35.77
1835,C4,318.75,0.125,32,35.77
1836,C3,319.0,0.25,37,35.77
1837,C4,319.25,0.125,29,35.77
1838,E-4,320.0,1.5,33,35.77
1839,G#4,320.0,1.5,33,35.77
1840,C3,320.5,0.25,40,35.77
1841,C4,320.75,0.125,32,35.77
1842,C3,321.0,0.25,37,35.77
1843,C4,321.25,0.125,29,35.77
1844,G#3,321.5,0.25,50,35.77
1845,C3,321.5,0.25,40,35.77
1846,G#4,321.75,0.25,52,35.77
1847,C4,321.75,0.25,40,35.77
1848,G#3,322.0,0.25,55,35.77
1849,C3,322.0,0.25,45,35.77
1850,G#4,322.25,0.225,56,35.77
1851,C4,322.25,0.225,48,35.77
1852,G#4,322.5,0.25,59,35.77
1853,C4,322.5,0.25,52,35.77
1854,G#5,322.75,0.25,61,35.77
1855,E-4,322.75,0.25,56,35.77
1856,G#4,323.0,0.25,64,35.77
1857,C4,323.0,0.25,59,35.77
1858,G#5,323.25,0.25,66,35.77
1859,E-4,323.25,0.25,63,35.77
1860,G#4,323.5,0.25,69,35.77
1861,C4,323.5,0.25,67,35.77
1862,G#5,323.75,0.225,71,35.77
1863,E-4,323.75,0.225,70,35.77
1864,G#5,324.0,1.5,76,35.77
1865,G#4,324.0,1.5,76,35.77
1866,E-4,324.0,1.5,70,35.77
1867,C4,324.0,1.5,70,35.77
1868,G4,325.5,0.5,59,35.77
1869,D5,325.5,0.25,70,35.77
1870,B3,325.5,0.25,56,35.77
1871,D4,325.5,0.25,56,35.77
1872,G5,325.75,0.125,67,35.77
1873,C#4,325.75,0.125,54,35.77
1874,B-3,325.75,0.125,54,35.77
1875,G5,326.0,0.5,64,35.77
1876,G4,326.0,0.5,64,35.77
1877,C#4,326.0,0.5,62,35.77
1878,B-3,326.0,0.5,62,35.77
1879,C5,326.5,0.25,70,35.77
1880,F4,326.5,0.5,59,35.77
1881,A3,326.5,0.25,56,35.77
1882,C4,326.5,0.25,56,35.77
1883,F5,326.75,0.125,67,35.77
1884,G#3,326.75,0.125,54,35.77
1885,B3,326.75,0.125,54,35.77
1886,F5,327.0,0.5,64,35.77
1887,F4,327.0,0.5,64,35.77
1888,B3,327.0,0.5,62,35.77
1889,G#3,327.0,0.5,62,35.77
1890,E-4,327.5,0.5,59,35.77
1891,B-4,327.5,0.25,70,35.77
1892,G3,327.5,0.25,56,35.77
1893,B-3,327.5,0.25,56,35.77
1894,E-5,327.75,0.125,67,35.77
1895,A3,327.75,0.125,54,35.77
1896,F#3,327.75,0.125,54,35.77
1897,B-4,328.0,1.5,59,35.77
1898,G#4,328.0,1.5,59,35.77
1899,E-4,328.0,1.0,64,35.77
1900,E-5,328.0,1.0,64,35.77
1901,G#3,328.0,1.5,62,35.77
1902,F3,328.0,1.5,62,35.77
1903,D5,329.0,0.5,54,35.77
1904,D4,329.0,0.5,54,35.77
1905,E-5,329.5,0.5,53,35.77
1906,B-4,329.5,0.5,53,35.77
1907,E-4,329.5,0.5,53,35.77
1908,E-3,329.5,0.5,42,35.77
1909,G3,329.5,0.5,42,35.77
1910,F4,330.0,0.5,51,35.77
1911,B-4,330.0,0.5,51,35.77
1912,F5,330.0,0.5,51,35.77
1913,D3,330.0,0.5,44,35.77
1914,F3,330.0,0.5,44,35.77
1915,B-4,330.5,0.5,54,35.77
1916,G4,330.5,0.5,54,35.77
1917,G5,330.5,0.5,54,35.77
1918,C3,330.5,0.5,46,35.77
1919,E-3,330.5,0.5,46,35.77
1920,G#4,331.0,0.5,57,35.77
1921,G#5,331.0,0.5,57,35.77
1922,B-4,331.0,0.5,57,35.77
1923,B-2,331.0,0.5,49,35.77
1924,D3,331.0,0.5,49,35.77
1925,B-5,331.5,0.5,62,35.77
1926,B-4,331.5,0.5,62,35.77
1927,F3,331.5,0.5,50,35.77
1928,B-2,331.5,0.5,50,35.77
1929,D3,331.5,0.5,50,35.77
1930,E-2,332.0,0.25,56,35.77
1931,G4,332.0,0.5,70,35.77
1932,B-5,332.0,0.5,70,35.77
1933,B-4,332.0,0.5,70,35.77
1934,B-2,332.25,0.25,40,35.77
1935,G3,332.5,0.25,40,35.77
1936,B-2,332.75,0.25,40,35.77
1937,E-2,333.0,0.25,54,35.77
1938,B-5,333.0,0.5,75,35.77
1939,B-4,333.0,0.5,75,35.77
1940,B-2,333.25,0.25,44,35.77
1941,G3,333.5,0.25,43,35.77
1942,B-2,333.75,0.25,43,35.77
1943,F2,334.0,0.25,58,35.77
1944,B-6,334.0,1.5,86,35.77
1945,B-5,334.0,1.5,86,35.77
1946,B-2,334.25,0.25,49,35.77
1947,G#3,334.5,0.25,49,35.77
1948,B-2,334.75,0.25,47,35.77
1949,F2,335.0,0.25,53,35.77
1950,B-2,335.25,0.25,44,35.77
1951,G#3,335.5,0.25,44,35.77
1952,B-5,335.5,2.0,60,35.77
1953,B-4,335.5,2.0,60,35.77
1954,B-2,335.75,0.25,44,35.77
1955,G2,336.0,0.25,53,35.77
1956,B-2,336.25,0.25,43,35.77
1957,B-3,336.5,0.25,43,35.77
1958,B-2,336.75,0.25,43,35.77
1959,G2,337.0,0.25,53,35.77
1960,B-2,337.25,0.25,43,35.77
1961,B-3,337.5,0.25,43,35.77
1962,G5,337.5,0.5,62,35.77
1963,G4,337.5,0.5,62,35.77
1964,B-2,337.75,0.25,43,35.77
1965,G#2,338.0,0.25,53,35.77
1966,F4,338.0,0.5,60,35.77
1967,F5,338.0,0.5,60,35.77
1968,B-2,338.25,0.25,44,35.77
1969,G#3,338.5,0.25,44,35.77
1970,D4,338.5,0.5,52,35.77
1971,D5,338.5,0.5,52,35.77
1972,B-2,338.75,0.25,44,35.77
1973,B-1,339.0,0.25,53,35.77
1974,B4,339.0,0.5,52,35.77
1975,B3,339.0,0.5,52,35.77
1976,B-2,339.25,0.25,46,35.77
1977,F3,339.5,0.25,46,35.77
1978,B-3,339.5,0.5,52,35.77
1979,B-4,339.5,0.5,52,35.77
1980,B-2,339.75,0.25,46,35.77
1981,E-2,340.0,0.25,56,35.77
1982,B-4,340.0,0.5,72,35.77
1983,B-3,340.0,0.5,72,35.77
1984,B-2,340.25,0.25,40,35.77
1985,G3,340.5,0.25,40,35.77
1986,B-2,340.75,0.25,40,35.77
1987,E-2,341.0,0.25,54,35.77
1988,B-5,341.0,0.5,75,35.77
1989,B-4,341.0,0.5,75,35.77
1990,B-2,341.25,0.25,44,35.77
1991,G#3,341.5,0.25,43,35.77
1992,B-2,341.75,0.25,43,35.77
1993,G2,342.0,0.25,58,35.77
1994,B-6,342.0,1.5,86,35.77
1995,B-5,342.0,1.5,86,35.77
1996,E-3,342.25,0.25,49,35.77
1997,B-3,342.5,0.25,49,35.77
1998,E-3,342.75,0.25,47,35.77
1999,G2,343.0,0.25,53,35.77
2000,E-3,343.25,0.25,44,35.77
2001,B-3,343.5,0.25,44,35.77
2002,B-5,343.5,2.0,60,35.77
2003,B-4,343.5,2.0,60,35.77
2004,E-3,343.75,0.25,44,35.77
2005,G2,344.0,0.25,53,35.77
2006,E-3,344.25,0.25,43,35.77
2007,B-3,344.5,0.25,43,35.77
2008,E-3,344.75,0.25,43,35.77
2009,G2,345.0,0.25,53,35.77
2010,E-3,345.25,0.25,43,35.77
2011,B-3,345.5,0.25,43,35.77
2012,G5,345.5,0.5,62,35.77
2013,G4,345.5,0.5,62,35.77
2014,E-3,345.75,0.25,43,35.77
2015,G#2,346.0,0.25,53,35.77
2016,E4,346.0,0.5,60,35.77
2017,E5,346.0,0.5,60,35.77
2018,E-3,346.25,0.25,44,35.77
2019,C4,346.5,0.25,44,35.77
2020,F5,346.5,0.5,52,35.77
2021,F4,346.5,0.5,52,35.77
2022,E-3,346.75,0.25,44,35.77
2023,A2,347.0,0.25,53,35.77
2024,C4,347.0,0.5,52,35.77
2025,C5,347.0,0.5,52,35.77
2026,F3,347.25,0.25,46,35.77
2027,C4,347.5,0.25,46,35.77
2028,E-4,347.5,0.5,52,35.77
2029,E-5,347.5,0.5,52,35.77
2030,F3,347.75,0.25,46,35.77
2031,B-2,348.0,0.5,52,35.77
2032,D5,348.0,0.25,56,35.77
2033,D4,348.0,0.25,56,35.77
2034,B-4,348.25,0.25,49,35.77
2035,A4,348.5,0.25,51,35.77
2036,E-4,348.5,0.25,46,35.77
2037,B-4,348.75,0.25,53,35.77
2038,D4,348.75,0.25,49,35.77
2039,C4,349.0,0.25,48,35.77
2040,C5,349.0,0.25,50,35.77
2041,A4,349.0,0.25,50,35.77
2042,B-3,349.25,0.25,47,35.77
2043,D5,349.25,0.25,52,35.77
2044,B-4,349.25,0.25,52,35.77
2045,A3,349.5,0.25,46,35.77
2046,E-5,349.5,0.25,54,35.77
2047,C5,349.5,0.25,54,35.77
2048,G#3,349.75,0.25,45,35.77
2049,D5,349.75,0.25,56,35.77
2050,F5,349.75,0.25,56,35.77
2051,G3,350.0,0.25,44,35.77
2052,G5,350.0,1.0,58,35.77
2053,E-5,350.0,1.0,58,35.77
2054,F3,350.25,0.25,43,35.77
2055,E-3,350.5,0.25,42,35.77
2056,D3,350.75,0.25,41,35.77
2057,E-3,351.0,0.25,40,35.77
2058,G#5,351.0,0.25,57,35.77
2059,C6,351.0,0.25,57,35.77
2060,F3,351.25,0.25,42,35.77
2061,B-5,351.25,0.25,54,35.77
2062,G5,351.25,0.25,54,35.77
2063,G3,351.5,0.25,44,35.77
2064,F5,351.5,0.25,52,35.77
2065,G#5,351.5,0.25,52,35.77
2066,G#3,351.75,0.25,46,35.77
2067,E-5,351.75,0.25,49,35.77
2068,G5,351.75,0.25,49,35.77
2069,B-3,352.0,0.5,57,35.77
2070,F5,352.0,0.5,62,35.77
2071,D5,352.0,0.5,62,35.77
2072,F4,352.5,0.25,46,35.77
2073,G#5,352.5,0.25,62,35.77
2074,B4,352.5,0.25,62,35.77
2075,E-4,352.75,0.25,53,35.77
2076,C5,352.75,0.25,62,35.77
2077,G5,352.75,0.25,62,35.77
2078,D4,353.0,0.25,52,35.77
2079,G4,353.0,0.25,62,35.77
2080,F5,353.0,0.25,62,35.77
2081,C4,353.25,0.25,51,35.77
2082,F#5,353.25,0.25,61,35.77
2083,E-5,353.25,0.25,61,35.77
2084,B3,353.5,0.188,50,35.77
2085,D5,353.5,0.188,60,35.77
2086,G5,353.5,0.188,60,35.77
2087,A3,353.75,0.188,49,35.77
2088,F5,353.75,0.188,56,35.77
2089,D5,353.75,0.188,56,35.77
2090,A5,353.75,0.188,56,35.77
2091,G3,354.0,0.188,47,35.77
2092,G5,354.0,0.188,54,35.77
2093,D5,354.0,0.188,54,35.77
2094,B5,354.0,0.188,54,35.77
2095,F3,354.25,0.188,48,35.77
2096,G5,354.25,0.188,58,35.77
2097,D5,354.25,0.188,58,35.77
2098,B5,354.25,0.188,58,35.77
2099,E-3,354.5,0.188,51,35.77
2100,E-5,354.5,0.188,61,35.77
2101,G5,354.5,0.188,61,35.77
2102,C6,354.5,0.188,61,35.77
2103,D3,354.75,0.188,55,35.77
2104,F5,354.75,0.188,64,35.77
2105,D6,354.75,0.188,64,35.77
2106,B5,354.75,0.188,64,35.77
2107,C3,355.0,0.188,59,35.77
2108,E-6,355.0,0.188,67,35.77
2109,C6,355.0,0.188,67,35.77
2110,G5,355.0,0.188,67,35.77
2111,B-2,355.25,0.188,62,35.77
2112,G5,355.25,0.188,71,35.77
2113,E6,355.25,0.188,71,35.77
2114,C6,355.25,0.188,71,35.77
2115,F6,355.5,0.188,73,35.77
2116,C6,355.5,0.188,73,35.77
2117,F5,355.5,0.188,73,35.77
2118,C3,355.5,0.188,66,35.77
2119,A2,355.5,0.188,66,35.77
2120,F6,355.75,0.188,76,35.77
2121,C6,355.75,0.188,76,35.77
2122,F5,355.75,0.188,76,35.77
2123,A2,355.75,0.188,64,35.77
2124,C3,355.75,0.188,64,35.77
2125,B-5,356.0,0.25,84,35.77
2126,D6,356.0,0.25,84,35.77
2127,F5,356.0,0.25,84,35.77
2128,B-2,356.0,0.25,66,35.77
2129,G#2,356.0,0.25,66,35.77
2130,E-6,357.0,0.25,92,35.77
2131,B-5,357.0,0.25,92,35.77
2132,E-5,357.0,0.25,92,35.77
2133,G2,357.0,0.25,69,35.77
2134,B-2,357.0,0.25,69,35.77
2135,G#4,358.0,1.5,84,35.77
2136,E-4,358.0,2.5,65,35.77
2137,F3,358.0,4.0,65,35.77
2138,B2,358.0,1.5,71,35.77
2139,B-4,359.5,0.25,85,35.77
2140,B-2,359.5,0.25,71,35.77
2141,B4,360.0,2.0,93,35.77
2142,G#2,360.0,2.0,80,35.77
2143,E-4,360.5,0.25,61,35.77
2144,D4,360.75,0.25,52,35.77
2145,E-4,361.0,0.25,61,35.77
2146,D4,361.25,0.25,54,35.77
2147,E-4,361.5,0.25,61,35.77
2148,D4,361.75,0.25,54,35.77
2149,G#4,362.0,1.5,84,35.77
2150,E-4,362.0,2.5,65,35.77
2151,F3,362.0,4.0,65,35.77
2152,B2,362.0,1.5,71,35.77
2153,B-4,363.5,0.25,85,35.77
2154,B-2,363.5,0.25,71,35.77
2155,C5,364.0,2.0,93,35.77
2156,A2,364.0,2.0,80,35.77
2157,E-4,364.5,0.25,61,35.77
2158,D4,364.75,0.25,52,35.77
2159,E-4,365.0,0.25,61,35.77
2160,D4,365.25,0.25,54,35.77
2161,E-4,365.5,0.25,61,35.77
2162,D4,365.75,0.25,54,35.77
2163,B4,366.0,0.5,70,35.77
2164,F3,366.0,0.5,44,35.77
2165,B-2,366.0,0.5,44,35.77
2166,E-4,366.5,0.25,51,35.77
2167,D4,366.75,0.25,44,35.77
2168,E-4,367.0,0.25,51,35.77
2169,D4,367.25,0.25,43,35.77
2170,E-4,367.5,0.25,51,35.77
2171,D4,367.75,0.25,45,35.77
2172,B-4,368.0,0.5,70,35.77
2173,B-2,368.0,0.5,44,35.77
2174,G3,368.0,0.5,44,35.77
2175,F4,368.5,0.25,51,35.77
2176,E4,368.75,0.25,44,35.77
2177,F4,369.0,0.25,51,35.77
2178,E4,369.25,0.25,43,35.77
2179,F4,369.5,0.25,51,35.77
2180,E4,369.75,0.25,45,35.77
2181,B-4,370.0,0.25,70,35.77
2182,G#3,370.0,0.5,44,35.77
2183,B-2,370.0,0.5,44,35.77
2184,G4,370.5,0.25,51,35.77
2185,F4,370.75,0.25,44,35.77
2186,B-4,371.0,0.25,70,35.77
2187,G3,371.0,0.5,44,35.77
2188,B-2,371.0,0.5,44,35.77
2189,F4,371.5,0.25,51,35.77
2190,E-4,371.75,0.25,44,35.77
2191,B-4,372.0,0.25,70,35.77
2192,F3,372.0,0.5,44,35.77
2193,B-2,372.0,0.5,44,35.77
2194,E-4,372.5,0.25,51,35.77
2195,D4,372.75,0.25,44,35.77
2196,B-4,373.0,0.25,70,35.77
2197,B-2,373.0,0.5,44,35.77
2198,G3,373.0,0.5,44,35.77
2199,F4,373.5,0.25,51,35.77
2200,E-4,373.75,0.25,44,35.77
2201,B5,374.0,0.5,70,35.77
2202,B-3,374.0,0.5,44,35.77
2203,F4,374.0,0.5,44,35.77
2204,E-5,374.5,0.25,51,35.77
2205,D5,374.75,0.25,44,35.77
2206,E-5,375.0,0.25,51,35.77
2207,D5,375.25,0.25,43,35.77
2208,E-5,375.5,0.25,51,35.77
2209,D5,375.75,0.25,45,35.77
2210,B-5,376.0,0.5,70,35.77
2211,B-3,376.0,0.5,44,35.77
2212,G4,376.0,0.5,44,35.77
2213,F5,376.5,0.25,51,35.77
2214,E5,376.75,0.25,44,35.77
2215,F5,377.0,0.25,51,35.77
2216,E5,377.25,0.25,43,35.77
2217,F5,377.5,0.25,51,35.77
2218,E5,377.75,0.25,45,35.77
2219,B-5,378.0,0.25,70,35.77
2220,B-3,378.0,0.5,44,35.77
2221,G#4,378.0,0.5,44,35.77
2222,G5,378.5,0.25,51,35.77
2223,F5,378.75,0.25,44,35.77
2224,B-5,379.0,0.25,70,35.77
2225,B-3,379.0,0.5,44,35.77
2226,G4,379.0,0.5,44,35.77
2227,F5,379.5,0.25,51,35.77
2228,E5,379.75,0.25,44,35.77
2229,B-5,380.0,0.25,70,35.77
2230,B-3,380.0,0.5,44,35.77
2231,G#4,380.0,0.5,44,35.77
2232,G5,380.5,0.25,51,35.77
2233,F5,380.75,0.25,44,35.77
2234,B-5,381.0,0.5,64,35.77
2235,B-3,381.0,0.5,48,35.77
2236,C4,381.5,0.25,38,35.77
2237,G#5,381.5,1.0,64,35.77
2238,F5,381.5,1.0,64,35.77
2239,D4,381.75,0.25,40,35.77
2240,B-4,382.0,1.0,45,35.77
2241,E-4,382.0,0.25,42,35.77
2242,F4,382.25,0.25,44,35.77
2243,G4,382.5,0.25,46,35.77
2244,G5,382.5,0.5,60,35.77
2245,E-5,382.5,0.5,60,35.77
2246,G#4,382.75,0.25,48,35.77
2247,B-4,383.0,0.5,50,35.77
2248,F5,383.0,0.5,60,35.77
2249,D5,383.0,0.5,60,35.77
2250,C5,383.5,0.25,38,35.77
2251,F6,383.5,1.0,64,35.77
2252,G#6,383.5,1.0,64,35.77
2253,D5,383.75,0.25,40,35.77
2254,B-5,384.0,1.0,45,35.77
2255,E-5,384.0,0.25,42,35.77
2256,F5,384.25,0.25,44,35.77
2257,G5,384.5,0.25,46,35.77
2258,E-6,384.5,0.5,60,35.77
2259,G6,384.5,0.5,60,35.77
2260,G#5,384.75,0.25,48,35.77
2261,B-5,385.0,0.5,50,35.77
2262,F6,385.0,0.5,60,35.77
2263,D6,385.0,0.5,60,35.77
2264,C7,385.5,1.0,77,35.77
2265,G#5,385.5,0.5,47,35.77
2266,D6,385.5,0.5,64,35.77
2267,F6,385.5,0.5,64,35.77
2268,G5,386.0,0.5,56,35.77
2269,E-6,386.0,0.5,65,35.77
2270,B-5,386.0,0.5,65,35.77
2271,F#5,386.5,0.5,46,35.77
2272,B-6,386.5,0.5,67,35.77
2273,E-6,386.5,0.5,67,35.77
2274,B-5,386.5,0.5,67,35.77
2275,F5,387.0,0.5,55,35.77
2276,E-6,387.0,0.5,69,35.77
2277,C6,387.0,0.5,69,35.77
2278,B-4,387.5,0.5,47,35.77
2279,G#6,387.5,0.5,71,35.77
2280,F6,387.5,0.5,71,35.77
2281,D6,387.5,0.5,71,35.77
2282,E-4,388.0,2.0,39,35.77
2283,G5,388.0,2.0,79,35.77
2284,G6,388.0,2.0,79,35.77
2285,B-5,388.25,0.25,49,35.77
2286,C6,388.5,0.25,55,35.77
2287,F#4,388.5,1.0,39,35.77
2288,A4,388.5,1.0,39,35.77
2289,B-5,388.75,0.25,50,35.77
2290,C6,389.0,0.25,55,35.77
2291,B-5,389.25,0.25,47,35.77
2292,C6,389.5,0.25,55,35.77
2293,G4,389.5,0.5,39,35.77
2294,B-4,389.5,0.5,39,35.77
2295,B-5,389.75,0.25,48,35.77
2296,E-4,390.0,2.0,39,35.77
2297,F5,390.0,2.0,75,35.77
2298,F6,390.0,2.0,75,35.77
2299,G#5,390.25,0.25,46,35.77
2300,B-5,390.5,0.25,54,35.77
2301,D5,390.5,1.0,39,35.77
2302,B4,390.5,1.0,39,35.77
2303,G#5,390.75,0.25,50,35.77
2304,B-5,391.0,0.25,53,35.77
2305,G#5,391.25,0.25,47,35.77
2306,B-5,391.5,0.25,53,35.77
2307,B-4,391.5,0.5,39,35.77
2308,G#5,391.75,0.25,48,35.77
2309,E-6,392.0,1.0,70,35.77
2310,G5,392.0,0.25,53,35.77
2311,E-4,392.0,2.0,39,35.77
2312,E-5,392.25,0.25,48,35.77
2313,F5,392.5,0.25,53,35.77
2314,G4,392.5,0.5,36,35.77
2315,B-4,392.5,0.5,36,35.77
2316,E-5,392.75,0.25,48,35.77
2317,C6,393.0,0.5,68,35.77
2318,C5,393.0,0.5,36,35.77
2319,G#4,393.0,0.5,36,35.77
2320,E-5,393.25,0.25,48,35.77
2321,B-5,393.5,0.5,60,35.77
2322,G4,393.5,0.5,34,35.77
2323,B-4,393.5,0.5,34,35.77
2324,E-5,393.75,0.25,48,35.77
2325,B-5,394.0,0.5,68,35.77
2326,E-5,394.0,0.25,53,35.77
2327,G4,394.0,0.5,39,35.77
2328,B-3,394.0,2.0,39,35.77
2329,B-4,394.25,0.25,48,35.77
2330,D5,394.5,0.25,53,35.77
2331,G#5,394.5,0.5,58,35.77
2332,F4,394.5,0.5,36,35.77
2333,G#4,394.5,0.5,36,35.77
2334,B-4,394.75,0.25,48,35.77
2335,E-5,395.0,0.25,53,35.77
2336,G5,395.0,0.5,66,35.77
2337,G4,395.0,0.5,36,35.77
2338,E-4,395.0,0.5,36,35.77
2339,B-4,395.25,0.25,48,35.77
2340,G#4,395.5,0.25,53,35.77
2341,F5,395.5,0.5,57,35.77
2342,D4,395.5,0.5,34,35.77
2343,F4,395.5,0.5,34,35.77
2344,B-4,395.75,0.25,48,35.77
2345,E-3,396.0,2.0,35,35.77
2346,G4,396.0,2.0,72,35.77
2347,G5,396.0,2.0,72,35.77
2348,B-4,396.25,0.25,44,35.77
2349,C5,396.5,0.25,49,35.77
2350,F#3,396.5,1.0,46,35.77
2351,A3,396.5,1.0,46,35.77
2352,B-4,396.75,0.25,45,35.77
2353,C5,397.0,0.25,49,35.77
2354,B-4,397.25,0.25,42,35.77
2355,C5,397.5,0.25,49,35.77
2356,B-3,397.5,0.5,35,35.77
2357,G3,397.5,0.5,35,35.77
2358,B-4,397.75,0.25,43,35.77
2359,E-3,398.0,2.0,35,35.77
2360,F4,398.0,2.0,68,35.77
2361,F5,398.0,2.0,68,35.77
2362,G#4,398.25,0.25,41,35.77
2363,B-4,398.5,0.25,48,35.77
2364,B3,398.5,1.0,44,35.77
2365,D4,398.5,1.0,44,35.77
2366,G#4,398.75,0.25,45,35.77
2367,B-4,399.0,0.25,47,35.77
2368,G#4,399.25,0.25,42,35.77
2369,B-4,399.5,0.25,47,35.77
2370,B-3,399.5,0.5,35,35.77
2371,G#4,399.75,0.25,43,35.77
2372,G4,400.0,0.25,47,35.77
2373,E-5,400.0,1.0,63,35.77
2374,E-3,400.0,1.0,31,35.77
2375,G3,400.0,1.0,31,35.77
2376,B-3,400.0,1.0,31,35.77
2377,E-4,400.25,0.25,43,35.77
2378,F4,400.5,0.25,47,35.77
2379,E-4,400.75,0.25,43,35.77
2380,C4,401.0,0.25,47,35.77
2381,C5,401.0,0.5,56,35.77
2382,G#4,401.0,0.5,56,35.77
2383,G#3,401.0,0.5,31,35.77
2384,G#2,401.0,0.5,31,35.77
2385,E-3,401.0,0.5,31,35.77
2386,E-4,401.25,0.25,43,35.77
2387,B-3,401.5,0.25,47,35.77
2388,G4,401.5,0.5,50,35.77
2389,B-4,401.5,0.5,50,35.77
2390,E-2,401.5,0.5,31,35.77
2391,E-3,401.5,0.5,31,35.77
2392,E-4,401.75,0.25,43,35.77
2393,G4,402.0,0.25,47,35.77
2394,B-4,402.0,0.5,61,35.77
2395,B-1,402.0,0.5,35,35.77
2396,B-3,402.25,0.25,43,35.77
2397,G#4,402.5,0.5,52,35.77
2398,F4,402.5,0.25,47,35.77
2399,B-2,402.5,0.5,35,35.77
2400,G#3,402.75,0.25,43,35.77
2401,G4,403.0,0.5,59,35.77
2402,E-4,403.0,0.25,47,35.77
2403,B-1,403.0,0.5,35,35.77
2404,G3,403.25,0.25,43,35.77
2405,B-2,403.5,0.5,35,35.77
2406,F4,403.5,0.5,51,35.77
2407,D4,403.5,0.5,51,35.77
2408,F3,403.75,0.25,43,35.77
2409,E-4,404.0,1.25,57,35.77
2410,E-3,404.0,0.75,43,35.77
2411,E-2,404.0,0.75,43,35.77
2412,B3,404.25,0.75,46,35.77
2413,G3,404.5,0.5,55,35.77
2414,B2,404.75,0.25,39,35.77
2415,B-2,405.0,0.5,45,35.77
2416,B-3,405.271,0.25,47,35.77
2417,G3,405.5,0.25,47,35.77
2418,E-2,405.5,0.5,38,35.77
2419,E-4,405.75,0.5,47,35.77
2420,B-3,406.0,1.0,47,35.77
2421,B-1,406.0,0.5,55,35.77
2422,E-4,406.25,0.25,47,35.77
2423,D4,406.5,0.25,51,35.77
2424,G#3,406.5,0.25,44,35.77
2425,E-4,406.75,0.25,49,35.77
2426,G3,406.75,0.25,36,35.77
2427,F4,407.0,0.25,52,35.77
2428,F3,407.0,0.25,43,35.77
2429,G4,407.25,0.25,44,35.77
2430,E-3,407.25,0.25,39,35.77
2431,G#4,407.5,0.25,51,35.77
2432,D3,407.5,0.25,39,35.77
2433,B-2,407.5,0.5,39,35.77
2434,F4,407.75,0.25,47,35.77
2435,B-3,407.75,0.25,39,35.77
2436,E-5,408.0,1.25,57,35.77
2437,E-3,408.0,0.75,43,35.77
2438,B4,408.25,0.75,46,35.77
2439,G4,408.5,0.5,55,35.77
2440,B3,408.75,0.25,39,35.77
2441,B-3,409.0,0.5,45,35.77
2442,B-4,409.271,0.25,47,35.77
2443,G4,409.5,0.25,47,35.77
2444,E-3,409.5,0.5,38,35.77
2445,E-5,409.75,0.5,47,35.77
2446,B-4,410.0,1.0,47,35.77
2447,B-2,410.0,0.5,55,35.77
2448,E-5,410.25,0.25,47,35.77
2449,D5,410.5,0.25,51,35.77
2450,G#4,410.5,0.25,44,35.77
2451,E-5,410.75,0.25,49,35.77
2452,G4,410.75,0.25,36,35.77
2453,F5,411.0,0.25,52,35.77
2454,F4,411.0,0.25,43,35.77
2455,G5,411.25,0.25,44,35.77
2456,E-4,411.25,0.25,39,35.77
2457,G#5,411.5,0.25,51,35.77
2458,B-3,411.5,0.25,39,35.77
2459,D4,411.5,0.25,39,35.77
2460,F5,411.75,0.25,47,35.77
2461,F4,411.75,0.25,39,35.77
2462,G5,412.0,0.25,51,35.77
2463,E-4,412.0,0.75,39,35.77
2464,G4,412.0,0.75,39,35.77
2465,F5,412.25,0.25,42,35.77
2466,E-5,412.5,0.75,49,35.77
2467,F4,412.75,0.25,33,35.77
2468,E-4,413.0,0.75,39,35.77
2469,C5,413.25,0.25,41,35.77
2470,B-4,413.5,0.75,48,35.77
2471,C4,413.75,0.25,34,35.77
2472,B-3,414.0,0.75,39,35.77
2473,G#4,414.25,0.25,42,35.77
2474,G4,414.5,0.75,48,35.77
2475,G#3,414.75,0.25,35,35.77
2476,G3,415.0,0.75,39,35.77
2477,F4,415.25,0.25,42,35.77
2478,E-4,415.5,0.75,47,35.77
2479,F3,415.75,0.25,33,35.77
2480,E-3,416.0,0.75,39,35.77
2481,C4,416.25,0.25,41,35.77
2482,B-3,416.5,0.75,47,35.77
2483,C3,416.75,0.25,31,35.77
2484,B-2,417.0,0.75,39,35.77
2485,G#3,417.25,0.25,38,35.77
2486,G3,417.5,0.75,43,35.77
2487,G#2,417.75,0.25,34,35.77
2488,G2,418.0,0.75,39,35.77
2489,F3,418.25,0.25,37,35.77
2490,E-3,418.5,0.75,44,35.77
2491,F2,418.75,0.25,35,35.77
2492,E-2,419.0,0.75,39,35.77
2493,F3,419.25,0.25,36,35.77
2494,E-3,419.5,1.0,41,35.77
2495,C#5,419.75,0.25,34,35.77
2496,B-4,419.75,0.25,34,35.77
2497,B-4,420.0,2.0,39,35.77
2498,C#5,420.0,2.0,39,35.77
2499,G#4,422.0,2.0,39,35.77
2500,C5,422.0,2.0,39,35.77
2501,E-5,424.0,2.0,49,35.77
2502,B-5,424.0,2.0,49,35.77
2503,B-4,424.0,2.0,39,35.77
2504,G4,424.0,2.0,39,35.77
2505,C#6,426.0,2.0,50,35.77
2506,C#5,426.0,2.0,50,35.77
2507,F4,426.0,2.0,39,35.77
2508,G#4,426.0,2.0,39,35.77
2509,C6,428.0,1.5,77,35.77
2510,C5,428.0,1.5,77,35.77
2511,G4,428.0,1.5,77,35.77
2512,E-4,428.0,1.5,77,35.77
2513,C5,429.5,0.25,64,35.77
2514,F5,429.5,0.25,64,35.77
2515,E-4,429.5,0.25,56,35.77
2516,A4,429.5,0.25,56,35.77
2517,C#5,429.75,0.125,62,35.77
2518,B-5,429.75,0.125,62,35.77
2519,F4,429.75,0.125,54,35.77
2520,C#4,429.75,0.125,54,35.77
2521,B-5,430.0,0.5,64,35.77
2522,C#5,430.0,0.5,64,35.77
2523,F4,430.0,0.5,62,35.77
2524,C#4,430.0,0.5,62,35.77
2525,B-4,430.5,0.25,64,35.77
2526,E-5,430.5,0.25,64,35.77
2527,C#4,430.5,0.25,56,35.77
2528,G4,430.5,0.25,56,35.77
2529,C5,430.75,0.125,62,35.77
2530,G#5,430.75,0.125,62,35.77
2531,E-4,430.75,0.125,54,35.77
2532,C4,430.75,0.125,54,35.77
2533,G#5,431.0,0.5,64,35.77
2534,C5,431.0,0.5,64,35.77
2535,E-4,431.0,0.5,62,35.77
2536,C4,431.0,0.5,62,35.77
2537,G#4,431.5,0.25,64,35.77
2538,C#5,431.5,0.25,64,35.77
2539,F4,431.5,0.25,52,35.77
2540,C4,431.5,0.25,52,35.77
2541,G5,431.75,0.125,62,35.77
2542,B-4,431.75,0.125,62,35.77
2543,B-3,431.75,0.125,54,35.77
2544,C#4,431.75,0.125,54,35.77
2545,G5,432.0,0.5,64,35.77
2546,B-4,432.0,0.5,64,35.77
2547,C#4,432.0,0.5,62,35.77
2548,B-3,432.0,0.5,62,35.77
2549,C5,432.5,0.25,64,35.77
2550,G4,432.5,0.25,64,35.77
2551,E4,432.5,0.25,56,35.77
2552,B-3,432.5,0.25,56,35.77
2553,G#4,432.75,0.125,62,35.77
2554,F5,432.75,0.125,62,35.77
2555,C4,432.75,0.125,54,35.77
2556,G#3,432.75,0.125,54,35.77
2557,G#4,433.0,0.496,64,35.77
2558,F5,433.0,0.496,64,35.77
2559,G#3,433.0,0.496,62,35.77
2560,C4,433.0,0.496,62,35.77
2561,F5,433.5,0.496,64,35.77
2562,F4,433.5,0.496,64,35.77
2563,G#3,433.5,0.496,62,35.77
2564,B3,433.5,0.496,62,35.77
2565,F5,434.0,1.0,64,35.77
2566,F4,434.0,1.0,64,35.77
2567,B-3,434.0,1.5,62,35.77
2568,G3,434.0,1.5,62,35.77
2569,E4,435.0,0.5,54,35.77
2570,E5,435.0,0.5,54,35.77
2571,C5,435.5,0.5,53,35.77
2572,F4,435.5,0.5,53,35.77
2573,F5,435.5,0.5,53,35.77
2574,F3,435.5,0.5,42,35.77
2575,G#3,435.5,0.5,42,35.77
2576,C5,436.0,0.5,51,35.77
2577,G4,436.0,0.5,51,35.77
2578,G5,436.0,0.5,51,35.77
2579,G3,436.0,0.5,44,35.77
2580,E3,436.0,0.5,44,35.77
2581,G#5,436.5,0.5,54,35.77
2582,C5,436.5,0.5,54,35.77
2583,G#4,436.5,0.5,54,35.77
2584,D3,436.5,0.5,46,35.77
2585,F3,436.5,0.5,46,35.77
2586,B-4,437.0,0.5,57,35.77
2587,C5,437.0,0.5,57,35.77
2588,B-5,437.0,0.5,57,35.77
2589,E3,437.0,0.5,49,35.77
2590,C3,437.0,0.5,49,35.77
2591,G4,437.5,0.5,60,35.77
2592,C5,437.5,0.5,60,35.77
2593,E5,437.5,0.5,60,35.77
2594,G5,437.5,0.5,60,35.77
2595,C3,437.5,0.5,49,35.77
2596,G3,437.5,0.5,49,35.77
2597,B-3,437.5,0.5,49,35.77
2598,E3,437.5,0.5,49,35.77
2599,F2,438.0,0.25,56,35.77
2600,F5,438.0,0.5,69,35.77
2601,G#4,438.0,0.5,69,35.77
2602,G#5,438.0,0.5,69,35.77
2603,C5,438.0,0.5,69,35.77
2604,C3,438.25,0.25,40,35.77
2605,G#3,438.5,0.25,40,35.77
2606,C3,438.75,0.25,40,35.77
2607,F2,439.0,0.25,54,35.77
2608,C5,439.0,0.5,82,35.77
2609,C6,439.0,0.5,82,35.77
2610,C3,439.25,0.25,44,35.77
2611,G#3,439.5,0.25,43,35.77
2612,C3,439.75,0.25,43,35.77
2613,G2,440.0,0.25,58,35.77
2614,C7,440.0,1.5,94,35.77
2615,C6,440.0,1.5,94,35.77
2616,C3,440.25,0.25,49,35.77
2617,B-3,440.5,0.25,49,35.77
2618,C3,440.75,0.25,47,35.77
2619,G2,441.0,0.25,53,35.77
2620,C3,441.25,0.25,44,35.77
2621,B-3,441.5,0.25,44,35.77
2622,C6,441.5,2.0,60,35.77
2623,C5,441.5,2.0,60,35.77
2624,C3,441.75,0.25,44,35.77
2625,G#2,442.0,0.25,53,35.77
2626,C3,442.25,0.25,43,35.77
2627,C4,442.5,0.25,43,35.77
2628,C3,442.75,0.25,43,35.77
2629,G#2,443.0,0.25,53,35.77
2630,C3,443.25,0.25,43,35.77
2631,C4,443.5,0.25,43,35.77
2632,G#5,443.5,0.5,62,35.77
2633,G#4,443.5,0.5,62,35.77
2634,C3,443.75,0.25,43,35.77
2635,B-2,444.0,0.25,53,35.77
2636,G4,444.0,0.5,60,35.77
2637,G5,444.0,0.5,60,35.77
2638,C3,444.25,0.25,44,35.77
2639,B-3,444.5,0.25,44,35.77
2640,E5,444.5,0.5,52,35.77
2641,E4,444.5,0.5,52,35.77
2642,C3,444.75,0.25,44,35.77
2643,C2,445.0,0.25,53,35.77
2644,C#4,445.0,0.5,52,35.77
2645,C#5,445.0,0.5,52,35.77
2646,C3,445.25,0.25,46,35.77
2647,G3,445.5,0.25,46,35.77
2648,C5,445.5,0.496,52,35.77
2649,C4,445.5,0.496,52,35.77
2650,C3,445.75,0.25,46,35.77
2651,F2,446.0,0.25,56,35.77
2652,C4,446.0,0.5,72,35.77
2653,C5,446.0,0.5,72,35.77
2654,C3,446.25,0.25,40,35.77
2655,G#3,446.5,0.25,40,35.77
2656,C3,446.75,0.25,40,35.77
2657,F2,447.0,0.25,54,35.77
2658,C5,447.0,0.5,82,35.77
2659,C6,447.0,0.5,82,35.77
2660,C3,447.25,0.25,44,35.77
2661,G#3,447.5,0.25,43,35.77
2662,C3,447.75,0.25,43,35.77
2663,G2,448.0,0.25,58,35.77
2664,C6,448.0,1.5,94,35.77
2665,C7,448.0,1.5,94,35.77
2666,C3,448.25,0.25,49,35.77
2667,B-3,448.5,0.25,49,35.77
2668,C3,448.75,0.25,47,35.77
2669,G2,449.0,0.25,53,35.77
2670,C3,449.25,0.25,44,35.77
2671,B-3,449.5,0.25,44,35.77
2672,C6,449.5,2.0,60,35.77
2673,C5,449.5,2.0,60,35.77
2674,C3,449.75,0.25,44,35.77
2675,G#2,450.0,0.25,53,35.77
2676,C3,450.25,0.25,43,35.77
2677,C4,450.5,0.25,43,35.77
2678,C3,450.75,0.25,43,35.77
2679,F2,451.0,0.25,53,35.77
2680,C3,451.25,0.25,43,35.77
2681,G#3,451.5,0.25,43,35.77
2682,G#4,451.5,0.5,62,35.77
2683,G#5,451.5,0.5,62,35.77
2684,C3,451.75,0.25,43,35.77
2685,D2,452.0,0.25,53,35.77
2686,F5,452.0,0.5,60,35.77
2687,F4,452.0,0.5,60,35.77
2688,B-2,452.25,0.25,44,35.77
2689,F3,452.5,0.25,44,35.77
2690,D5,452.5,0.5,52,35.77
2691,D4,452.5,0.5,52,35.77
2692,B-2,452.75,0.25,44,35.77
2693,D2,453.0,0.25,53,35.77
2694,B4,453.0,0.5,52,35.77
2695,B3,453.0,0.5,52,35.77
2696,B-2,453.25,0.25,46,35.77
2697,F3,453.5,0.25,46,35.77
2698,B-4,453.5,0.5,52,35.77
2699,B-3,453.5,0.5,52,35.77
2700,B-2,453.75,0.25,46,35.77
2701,E-2,454.0,0.25,56,35.77
2702,B-4,454.0,0.5,72,35.77
2703,B-3,454.0,0.5,72,35.77
2704,B-2,454.25,0.25,40,35.77
2705,F#3,454.5,0.25,40,35.77
2706,B-2,454.75,0.25,40,35.77
2707,E-2,455.0,0.25,54,35.77
2708,B-4,455.0,0.5,82,35.77
2709,B-5,455.0,0.5,82,35.77
2710,B-2,455.25,0.25,44,35.77
2711,F#3,455.5,0.25,43,35.77
2712,B-2,455.75,0.25,43,35.77
2713,F2,456.0,0.25,58,35.77
2714,B-6,456.0,1.5,94,35.77
2715,B-5,456.0,1.5,94,35.77
2716,B-2,456.25,0.25,49,35.77
2717,G#3,456.5,0.25,49,35.77
2718,B-2,456.75,0.25,47,35.77
2719,F2,457.0,0.25,53,35.77
2720,B-2,457.25,0.25,44,35.77
2721,G#3,457.5,0.25,44,35.77
2722,B-5,457.5,2.0,60,35.77
2723,B-4,457.5,2.0,60,35.77
2724,B-2,457.75,0.25,44,35.77
2725,F#2,458.0,0.25,53,35.77
2726,B-2,458.25,0.25,43,35.77
2727,B-3,458.5,0.25,43,35.77
2728,B-2,458.75,0.25,43,35.77
2729,F#2,459.0,0.25,53,35.77
2730,B-2,459.25,0.25,43,35.77
2731,B-3,459.5,0.25,43,35.77
2732,F#4,459.5,0.5,62,35.77
2733,F#5,459.5,0.5,62,35.77
2734,B-2,459.75,0.25,43,35.77
2735,G#2,460.0,0.25,53,35.77
2736,F4,460.0,0.5,60,35.77
2737,F5,460.0,0.5,60,35.77
2738,B-2,460.25,0.25,44,35.77
2739,G#3,460.5,0.25,44,35.77
2740,D5,460.5,0.5,52,35.77
2741,D4,460.5,0.5,52,35.77
2742,B-2,460.75,0.25,44,35.77
2743,B-1,461.0,0.25,53,35.77
2744,B3,461.0,0.5,52,35.77
2745,B4,461.0,0.5,52,35.77
2746,B-2,461.25,0.25,46,35.77
2747,F3,461.5,0.25,46,35.77
2748,B-4,461.5,0.496,52,35.77
2749,B-3,461.5,0.496,52,35.77
2750,B-2,461.75,0.25,46,35.77
2751,E-2,462.0,0.25,56,35.77
2752,B-4,462.0,0.5,72,35.77
2753,B-3,462.0,0.5,72,35.77
2754,B-2,462.25,0.25,40,35.77
2755,F#3,462.5,0.25,40,35.77
2756,B-2,462.75,0.25,40,35.77
2757,F2,463.0,0.25,54,35.77
2758,B-5,463.0,0.5,82,35.77
2759,B-4,463.0,0.5,82,35.77
2760,B-2,463.25,0.25,44,35.77
2761,G#3,463.5,0.25,43,35.77
2762,B-2,463.75,0.25,43,35.77
2763,G2,464.0,0.25,56,35.77
2764,B-5,464.0,0.5,84,35.77
2765,B-6,464.0,0.5,84,35.77
2766,E-3,464.25,0.25,40,35.77
2767,B-3,464.5,0.25,40,35.77
2768,E-3,464.75,0.25,40,35.77
2769,G#2,465.0,0.25,54,35.77
2770,B5,465.0,0.5,94,35.77
2771,B6,465.0,0.5,94,35.77
2772,E-3,465.25,0.25,44,35.77
2773,B3,465.5,0.25,43,35.77
2774,E-3,465.75,0.25,43,35.77
2775,B4,466.0,2.0,55,35.77
2776,B-4,468.0,2.0,50,35.77
2777,G#4,470.0,0.5,48,35.77
2778,B3,470.0,2.0,43,35.77
2779,B-3,472.0,2.0,44,35.77
2780,C5,474.0,2.0,55,35.77
2781,A3,474.0,0.5,46,35.77
2782,B-4,476.0,2.0,50,35.77
2783,A4,478.0,0.5,48,35.77
2784,C4,478.0,2.0,43,35.77
2785,B-3,480.0,2.0,44,35.77
2786,F5,482.0,2.0,55,35.77
2787,G#3,482.0,0.5,46,35.77
2788,E-5,484.0,2.0,50,35.77
2789,D5,486.0,0.5,48,35.77
2790,F4,486.0,2.0,40,35.77
2791,G#4,486.0,2.0,40,35.77
2792,E-4,488.0,2.0,43,35.77
2793,G4,488.0,2.0,43,35.77
2794,B-4,490.0,2.0,56,35.77
2795,B-5,490.0,2.0,56,35.77
2796,D4,490.0,2.0,44,35.77
2797,F4,490.0,2.0,44,35.77
2798,G#4,492.0,2.0,56,35.77
2799,G#5,492.0,2.0,56,35.77
2800,C4,492.0,2.0,47,35.77
2801,E-4,492.0,2.0,47,35.77
2802,G4,494.0,3.0,64,35.77
2803,G5,494.0,3.0,64,35.77
2804,B3,494.0,2.0,60,35.77
2805,D4,494.0,2.0,60,35.77
2806,E-4,496.0,1.0,41,35.77
2807,B-3,496.0,2.0,34,35.77
2808,F4,497.0,0.5,36,35.77
2809,G#4,497.0,0.5,42,35.77
2810,G#5,497.0,0.5,42,35.77
2811,D4,497.5,0.5,36,35.77
2812,F4,497.5,0.5,37,35.77
2813,F5,497.5,0.5,37,35.77
2814,E-5,498.0,2.0,43,35.77
2815,G5,498.0,2.0,43,35.77
2816,B-3,498.25,0.25,36,35.77
2817,C4,498.5,0.25,36,35.77
2818,B-3,498.75,0.25,36,35.77
2819,A3,499.0,0.25,42,35.77
2820,B-3,499.25,0.25,36,35.77
2821,G3,499.5,0.25,36,35.77
2822,E-3,499.75,0.25,36,35.77
2823,G#3,500.0,0.25,42,35.77
2824,B-4,500.0,2.0,44,35.77
2825,F5,500.0,2.0,44,35.77
2826,F3,500.25,0.25,36,35.77
2827,D3,500.5,0.25,36,35.77
2828,B-2,500.75,0.25,36,35.77
2829,G#2,501.0,0.25,43,35.77
2830,F2,501.25,0.25,36,35.77
2831,D2,501.5,0.25,36,35.77
2832,B-1,501.75,0.25,36,35.77
2833,E-2,502.0,0.25,45,35.77
2834,G4,502.0,1.0,44,35.77
2835,E-5,502.0,1.0,44,35.77
2836,F2,502.25,0.25,36,35.77
2837,G2,502.5,0.25,36,35.77
2838,G#2,502.75,0.25,36,35.77
2839,B-2,503.0,0.25,43,35.77
2840,G#4,503.0,0.5,38,35.77
2841,C5,503.0,0.5,38,35.77
2842,C3,503.25,0.25,36,35.77
2843,D3,503.5,0.25,36,35.77
2844,B-4,503.5,0.496,38,35.77
2845,G4,503.5,0.496,38,35.77
2846,E-3,503.75,0.25,36,35.77
2847,B-2,504.0,2.0,33,35.77
2848,F3,504.0,0.25,42,35.77
2849,G4,504.0,0.5,42,35.77
2850,B-4,504.0,0.5,42,35.77
2851,G3,504.25,0.25,30,35.77
2852,G#3,504.5,0.25,30,35.77
2853,F4,504.5,0.5,37,35.77
2854,G#4,504.5,0.5,37,35.77
2855,A3,504.75,0.25,30,35.77
2856,B-3,505.0,0.5,39,35.77
2857,E-4,505.0,0.5,37,35.77
2858,G4,505.0,0.5,37,35.77
2859,G#3,505.5,0.5,33,35.77
2860,B-3,505.5,0.5,37,35.77
2861,F4,505.5,0.5,37,35.77
2862,E-4,506.0,0.25,42,35.77
2863,G3,506.0,2.0,36,35.77
2864,E-3,506.0,2.0,36,35.77
2865,B-3,506.25,0.25,36,35.77
2866,C4,506.5,0.25,36,35.77
2867,B-3,506.75,0.25,36,35.77
2868,A3,507.0,0.25,42,35.77
2869,B-3,507.25,0.25,36,35.77
2870,G4,507.5,0.25,36,35.77
2871,E-4,507.75,0.25,36,35.77
2872,D4,508.0,0.25,42,35.77
2873,B-2,508.0,2.0,36,35.77
2874,F3,508.0,2.0,36,35.77
2875,E-4,508.25,0.25,36,35.77
2876,F4,508.5,0.25,36,35.77
2877,G4,508.75,0.25,36,35.77
2878,G#4,509.0,0.25,42,35.77
2879,A4,509.25,0.25,37,35.77
2880,C5,509.5,0.25,37,35.77
2881,B-4,509.75,0.25,37,35.77
2882,A4,510.0,0.25,42,35.77
2883,E-4,510.0,2.0,36,35.77
2884,G4,510.0,2.0,36,35.77
2885,B-4,510.25,0.25,35,35.77
2886,C5,510.5,0.25,35,35.77
2887,B-4,510.75,0.25,35,35.77
2888,A4,511.0,0.25,42,35.77
2889,B-4,511.25,0.25,35,35.77
2890,G5,511.5,0.25,35,35.77
2891,E-5,511.75,0.25,35,35.77
2892,D5,512.0,0.25,47,35.77
2893,B-3,512.0,2.0,36,35.77
2894,F4,512.0,2.0,36,35.77
2895,E-5,512.25,0.25,40,35.77
2896,F5,512.5,0.25,40,35.77
2897,G5,512.75,0.25,40,35.77
2898,G#5,513.0,0.25,48,35.77
2899,A5,513.25,0.25,39,35.77
2900,C6,513.5,0.25,39,35.77
2901,B-5,513.75,0.25,39,35.77
2902,A5,514.0,0.25,46,35.77
2903,E-5,514.0,2.0,36,35.77
2904,G5,514.0,2.0,36,35.77
2905,B-5,514.25,0.25,38,35.77
2906,C6,514.5,0.25,39,35.77
2907,B-5,514.75,0.25,39,35.77
2908,A5,515.0,0.25,48,35.77
2909,B-5,515.25,0.25,40,35.77
2910,G6,515.5,0.25,41,35.77
2911,E-6,515.75,0.25,41,35.77
2912,D6,516.0,0.25,57,35.77
2913,B-4,516.0,1.0,38,35.77
2914,D5,516.0,1.0,38,35.77
2915,F5,516.0,1.0,38,35.77
2916,E-6,516.25,0.25,50,35.77
2917,F6,516.5,0.25,50,35.77
2918,G6,516.75,0.25,51,35.77
2919,G#6,517.0,0.25,61,35.77
2920,G#4,517.0,1.0,41,35.77
2921,B-4,517.0,1.0,41,35.77
2922,D5,517.0,1.0,41,35.77
2923,F5,517.0,1.0,41,35.77
2924,A6,517.25,0.25,50,35.77
2925,C7,517.5,0.25,50,35.77
2926,B-6,517.75,0.25,51,35.77
2927,A6,518.0,0.25,63,35.77
2928,G4,518.0,1.0,44,35.77
2929,B-4,518.0,1.0,44,35.77
2930,B-6,518.25,0.25,54,35.77
2931,G#6,518.5,0.25,53,35.77
2932,G6,518.75,0.25,53,35.77
2933,F6,519.0,0.25,60,35.77
2934,E-4,519.0,1.0,42,35.77
2935,G4,519.0,1.0,42,35.77
2936,E-6,519.25,0.25,51,35.77
2937,D6,519.5,0.25,51,35.77
2938,C6,519.75,0.25,50,35.77
2939,B-5,520.0,0.25,59,35.77
2940,B-3,520.0,1.0,39,35.77
2941,F4,520.0,1.0,39,35.77
2942,G#4,520.0,1.0,39,35.77
2943,G#5,520.25,0.25,45,35.77
2944,G5,520.5,0.25,45,35.77
2945,F5,520.75,0.25,45,35.77
2946,E-5,521.0,0.25,52,35.77
2947,B-3,521.0,1.0,36,35.77
2948,F4,521.0,1.0,36,35.77
2949,G#4,521.0,1.0,36,35.77
2950,D5,521.25,0.25,47,35.77
2951,F5,521.5,0.25,43,35.77
2952,G#5,521.75,0.25,41,35.77
2953,E-5,522.0,2.0,43,35.77
2954,G5,522.0,2.0,43,35.77
2955,B-3,522.25,0.25,36,35.77
2956,C4,522.5,0.25,36,35.77
2957,B-3,522.75,0.25,36,35.77
2958,A3,523.0,0.25,42,35.77
2959,B-3,523.25,0.25,36,35.77
2960,G3,523.5,0.25,36,35.77
2961,E-3,523.75,0.25,36,35.77
2962,G#3,524.0,0.25,42,35.77
2963,B-4,524.0,2.0,44,35.77
2964,F5,524.0,2.0,44,35.77
2965,F3,524.25,0.25,36,35.77
2966,D3,524.5,0.25,36,35.77
2967,B-2,524.75,0.25,36,35.77
2968,G#2,525.0,0.25,43,35.77
2969,F2,525.25,0.25,36,35.77
2970,D2,525.5,0.25,36,35.77
2971,B-1,525.75,0.25,36,35.77
2972,E-2,526.0,0.25,45,35.77
2973,G4,526.0,1.0,44,35.77
2974,E-5,526.0,1.0,44,35.77
2975,F2,526.25,0.25,36,35.77
2976,G2,526.5,0.25,36,35.77
2977,G#2,526.75,0.25,36,35.77
2978,B-2,527.0,0.25,43,35.77
2979,G#4,527.0,0.5,38,35.77
2980,C5,527.0,0.5,38,35.77
2981,C3,527.25,0.25,36,35.77
2982,D3,527.5,0.25,36,35.77
2983,B-4,527.5,0.496,38,35.77
2984,G4,527.5,0.496,38,35.77
2985,E-3,527.75,0.25,36,35.77
2986,B-2,528.0,2.0,33,35.77
2987,F3,528.0,0.25,42,35.77
2988,G4,528.0,0.5,42,35.77
2989,B-4,528.0,0.5,42,35.77
2990,G3,528.25,0.25,30,35.77
2991,G#3,528.5,0.25,30,35.77
2992,F4,528.5,0.5,37,35.77
2993,G#4,528.5,0.5,37,35.77
2994,A3,528.75,0.25,30,35.77
2995,B-3,529.0,0.5,39,35.77
2996,E-4,529.0,0.5,37,35.77
2997,G4,529.0,0.5,37,35.77
2998,G#3,529.5,0.5,33,35.77
2999,B-3,529.5,0.5,37,35.77
3000,F4,529.5,0.5,37,35.77
3001,E-4,530.0,0.25,42,35.77
3002,G3,530.0,2.0,36,35.77
3003,E-3,530.0,2.0,36,35.77
3004,B-3,530.25,0.25,36,35.77
3005,C4,530.5,0.25,36,35.77
3006,B-3,530.75,0.25,36,35.77
3007,A3,531.0,0.25,42,35.77
3008,B-3,531.25,0.25,36,35.77
3009,G4,531.5,0.25,36,35.77
3010,E-4,531.75,0.25,36,35.77
3011,D4,532.0,0.25,42,35.77
3012,B-2,532.0,2.0,36,35.77
3013,F3,532.0,2.0,36,35.77
3014,E-4,532.25,0.25,36,35.77
3015,F4,532.5,0.25,36,35.77
3016,G4,532.75,0.25,36,35.77
3017,G#4,533.0,0.25,42,35.77
3018,A4,533.25,0.25,37,35.77
3019,C5,533.5,0.25,37,35.77
3020,B-4,533.75,0.25,37,35.77
3021,A4,534.0,0.25,42,35.77
3022,E-4,534.0,2.0,36,35.77
3023,G4,534.0,2.0,36,35.77
3024,B-4,534.25,0.25,35,35.77
3025,C5,534.5,0.25,35,35.77
3026,B-4,534.75,0.25,35,35.77
3027,A4,535.0,0.25,42,35.77
3028,B-4,535.25,0.25,37,35.77
3029,G5,535.5,0.25,37,35.77
3030,E-5,535.75,0.25,37,35.77
3031,D5,536.0,0.25,51,35.77
3032,B-3,536.0,2.0,36,35.77
3033,F4,536.0,2.0,36,35.77
3034,E-5,536.25,0.25,42,35.77
3035,F5,536.5,0.25,42,35.77
3036,G5,536.75,0.25,42,35.77
3037,G#5,537.0,0.25,51,35.77
3038,A5,537.25,0.25,43,35.77
3039,C6,537.5,0.25,42,35.77
3040,B-5,537.75,0.25,42,35.77
3041,A5,538.0,0.25,53,35.77
3042,E-5,538.0,2.0,36,35.77
3043,G5,538.0,2.0,36,35.77
3044,B-5,538.25,0.25,44,35.77
3045,C6,538.5,0.25,45,35.77
3046,B-5,538.75,0.25,46,35.77
3047,A5,539.0,0.25,54,35.77
3048,B-5,539.25,0.25,45,35.77
3049,G6,539.5,0.25,47,35.77
3050,E-6,539.75,0.25,47,35.77
3051,D6,540.0,0.25,57,35.77
3052,B-4,540.0,1.0,40,35.77
3053,F5,540.0,1.0,40,35.77
3054,E-6,540.25,0.25,50,35.77
3055,F6,540.5,0.25,50,35.77
3056,G6,540.75,0.25,51,35.77
3057,G#6,541.0,0.25,65,35.77
3058,G#4,541.0,1.0,41,35.77
3059,B-4,541.0,1.0,41,35.77
3060,F5,541.0,1.0,41,35.77
3061,A6,541.25,0.25,52,35.77
3062,C7,541.5,0.25,54,35.77
3063,B-6,541.75,0.246,51,35.77
3064,B-6,542.0,0.25,73,35.77
3065,G4,542.0,0.5,40,35.77
3066,B-4,542.0,0.246,48,35.77
3067,B-4,542.25,0.25,47,35.77
3068,C5,542.5,0.25,47,35.77
3069,E-4,542.5,1.0,42,35.77
3070,G4,542.5,1.0,42,35.77
3071,B-4,542.75,0.25,47,35.77
3072,A4,543.0,0.25,56,35.77
3073,B-4,543.25,0.25,41,35.77
3074,G5,543.5,0.25,42,35.77
3075,E-4,543.5,0.5,44,35.77
3076,G4,543.5,0.5,44,35.77
3077,E-5,543.75,0.25,44,35.77
3078,D5,544.0,0.25,59,35.77
3079,B-3,544.0,1.0,40,35.77
3080,F4,544.0,1.0,40,35.77
3081,E-5,544.25,0.25,48,35.77
3082,F5,544.5,0.25,45,35.77
3083,G5,544.75,0.25,42,35.77
3084,G#5,545.0,0.25,54,35.77
3085,G#3,545.0,1.0,36,35.77
3086,B-3,545.0,1.0,36,35.77
3087,F4,545.0,1.0,36,35.77
3088,A5,545.25,0.25,41,35.77
3089,C6,545.5,0.25,41,35.77
3090,B-5,545.75,0.25,41,35.77
3091,B-5,546.0,0.25,60,35.77
3092,G3,546.0,0.5,40,35.77
3093,B-3,546.0,0.246,48,35.77
3094,B-3,546.25,0.25,39,35.77
3095,C4,546.5,0.25,36,35.77
3096,E-3,546.5,1.0,36,35.77
3097,G3,546.5,1.0,36,35.77
3098,B-3,546.75,0.25,36,35.77
3099,A3,547.0,0.25,45,35.77
3100,B-3,547.25,0.25,34,35.77
3101,G4,547.5,0.25,34,35.77
3102,E-3,547.5,0.5,37,35.77
3103,G3,547.5,0.5,37,35.77
3104,E-4,547.75,0.25,37,35.77
3105,A3,548.0,0.25,50,35.77
3106,F3,548.0,1.0,33,35.77
3107,B-2,548.0,1.0,33,35.77
3108,G#3,548.0,1.0,33,35.77
3109,B-3,548.25,0.25,37,35.77
3110,G#4,548.5,0.25,35,35.77
3111,F4,548.75,0.25,35,35.77
3112,D4,549.0,0.25,45,35.77
3113,B-2,549.0,1.0,30,35.77
3114,F3,549.0,1.0,30,35.77
3115,G#3,549.0,1.0,30,35.77
3116,C5,549.25,0.25,39,35.77
3117,B-4,549.5,0.25,39,35.77
3118,D4,549.75,0.25,39,35.77
3119,E-4,550.0,2.0,55,35.77
3120,B-3,552.0,2.0,50,35.77
3121,G3,554.0,0.5,48,35.77
3122,E-3,554.0,2.0,43,35.77
3123,B-2,556.0,2.0,44,35.77
3124,G2,558.0,0.5,37,35.77
3125,E-4,558.0,2.0,50,35.77
3126,G4,558.0,2.0,50,35.77
3127,F4,560.0,2.0,46,35.77
3128,B-3,560.0,2.0,46,35.77
3129,E-4,562.0,0.5,44,35.77
3130,G3,562.0,0.5,44,35.77
3131,G3,562.0,2.0,40,35.77
3132,E-3,562.0,2.0,40,35.77
3133,F3,564.0,2.0,40,35.77
3134,B-2,564.0,2.0,40,35.77
3135,E-4,565.5,0.5,35,35.77
3136,G4,565.5,0.5,35,35.77
3137,B-3,566.0,2.0,47,35.77
3138,F4,566.0,2.0,47,35.77
3139,G2,566.0,0.5,30,35.77
3140,E-3,566.0,0.5,30,35.77
3141,E-3,567.5,0.5,28,35.77
3142,G3,567.5,0.5,28,35.77
3143,G3,568.0,0.5,42,35.77
3144,E-4,568.0,0.5,42,35.77
3145,B-2,568.0,2.0,34,35.77
3146,F3,568.0,2.0,34,35.77
3147,E-5,569.5,0.5,35,35.77
3148,G5,569.5,0.5,35,35.77
3149,B-4,570.0,2.0,45,35.77
3150,F5,570.0,2.0,45,35.77
3151,G2,570.0,0.5,30,35.77
3152,E-3,570.0,0.5,30,35.77
3153,E-4,571.5,0.5,28,35.77
3154,G4,571.5,0.5,28,35.77
3155,G4,572.0,0.5,36,35.77
3156,E-5,572.0,0.5,36,35.77
3157,B-3,572.0,2.0,34,35.77
3158,F4,572.0,2.0,34,35.77
3159,E-6,573.5,0.5,41,35.77
3160,G6,573.5,0.5,41,35.77
3161,G3,574.0,0.5,34,35.77
3162,E-4,574.0,0.5,34,35.77
3163,E-6,574.5,0.5,45,35.77
3164,G6,574.5,0.5,45,35.77
3165,B-5,575.0,0.5,49,35.77
3166,F6,575.0,0.5,49,35.77
3167,E-6,575.5,0.496,46,35.77
3168,G5,575.5,0.496,46,35.77
3169,G5,576.0,0.496,45,35.77
3170,E-6,576.0,0.496,45,35.77
3171,E-5,576.5,0.5,42,35.77
3172,G5,576.5,0.5,42,35.77
3173,B-4,577.0,0.5,45,35.77
3174,F5,577.0,0.5,45,35.77
3175,E-5,577.5,0.496,42,35.77
3176,G4,577.5,0.496,42,35.77
3177,G4,578.0,0.496,42,35.77
3178,E-5,578.0,0.496,42,35.77
3179,E-4,578.5,0.5,42,35.77
3180,G4,578.5,0.5,42,35.77
3181,B-3,579.0,0.5,45,35.77
3182,F4,579.0,0.5,45,35.77
3183,E-4,579.5,0.496,42,35.77
3184,G3,579.5,0.496,42,35.77
3185,G3,580.0,0.496,42,35.77
3186,E-4,580.0,0.496,42,35.77
3187,E-3,580.5,0.5,42,35.77
3188,G3,580.5,0.5,42,35.77
3189,B-2,581.0,0.5,45,35.77
3190,F3,581.0,0.5,45,35.77
3191,E-3,581.5,0.5,42,35.77
3192,G2,581.5,0.5,42,35.77
3193,F3,582.0,0.996,43,35.77
3194,B-3,582.0,1.5,51,35.77
3195,D3,582.5,0.25,52,35.77
3196,F3,582.5,0.25,52,35.77
3197,E-2,583.0,0.25,59,35.77
3198,E-3,583.5,0.25,50,35.77
3199,G3,583.5,0.25,50,35.77
3200,F3,584.0,0.996,48,35.77
3201,B-3,584.0,1.5,57,35.77
3202,D3,584.5,0.25,58,35.77
3203,F3,584.5,0.25,58,35.77
3204,E-2,585.0,0.25,65,35.77
3205,E-3,585.5,0.25,57,35.77
3206,G3,585.5,0.25,57,35.77
3207,F3,586.0,0.996,53,35.77
3208,B-3,586.0,1.5,63,35.77
3209,D3,586.5,0.25,64,35.77
3210,F3,586.5,0.25,64,35.77
3211,E-2,587.0,0.25,73,35.77
3212,E-3,587.5,0.25,62,35.77
3213,G3,587.5,0.25,62,35.77
3214,D3,588.0,1.5,63,35.77
3215,F3,588.0,1.5,63,35.77
3216,B-3,588.0,1.5,63,35.77
3217,B-2,588.5,0.25,77,35.77
3218,B-1,589.0,0.25,80,35.77
3219,B-2,589.5,0.25,82,35.77
3220,D4,589.5,0.25,67,35.77
3221,F3,589.5,0.25,67,35.77
3222,G#3,589.5,0.25,67,35.77
3223,E-2,590.0,1.981,30,35.77
3224,G3,590.0,0.5,41,35.77
3225,E-4,590.0,0.5,41,35.77
3226,E-2,592.0,1.981,27,35.77
3227,D2,592.0,1.981,27,35.77
3228,E-4,594.0,0.25,41,35.77
3229,C2,594.0,1.981,27,35.77
3230,E-2,594.0,1.981,27,35.77
3231,F4,594.25,0.25,35,35.77
3232,E-4,594.5,0.25,35,35.77
3233,D4,594.75,0.25,35,35.77
3234,E-4,595.0,0.25,41,35.77
3235,F4,595.25,0.25,37,35.77
3236,G4,595.5,0.25,37,35.77
3237,G#4,595.75,0.25,37,35.77
3238,B-4,596.0,0.25,46,35.77
3239,B-1,596.0,1.981,27,35.77
3240,E-2,596.0,1.981,27,35.77
3241,C5,596.25,0.25,40,35.77
3242,D5,596.5,0.25,41,35.77
3243,E-5,596.75,0.25,43,35.77
3244,F5,597.0,0.25,44,35.77
3245,G5,597.25,0.25,45,35.77
3246,G#5,597.5,0.25,47,35.77
3247,B-5,597.75,0.25,48,35.77
3248,C6,598.0,0.333,55,35.77
3249,G#1,598.0,1.981,27,35.77
3250,E-2,598.0,1.981,27,35.77
3251,D6,598.333,0.333,48,35.77
3252,E-6,598.667,0.333,49,35.77
3253,F6,599.0,0.25,51,35.77
3254,G6,599.25,0.25,54,35.77
3255,G#6,599.5,0.25,58,35.77
3256,B-6,599.75,0.25,61,35.77
3257,C7,600.0,1.0,64,35.77
3258,G1,600.0,1.981,27,35.77
3259,E-2,600.0,1.981,27,35.77
3260,B-6,601.0,0.5,52,35.77
3261,E-6,602.0,0.25,57,35.77
3262,G#1,602.0,1.981,27,35.77
3263,E-2,602.0,1.981,27,35.77
3264,F6,602.25,0.25,42,35.77
3265,E-6,602.5,0.25,43,35.77
3266,D6,602.75,0.25,45,35.77
3267,E-6,603.0,0.2,47,35.77
3268,F6,603.2,0.2,48,35.77
3269,G6,603.4,0.2,49,35.77
3270,G#6,603.6,0.2,51,35.77
3271,B-6,603.8,0.2,52,35.77
3272,C7,604.0,1.0,62,35.77
3273,G1,604.0,1.981,27,35.77
3274,E-2,604.0,1.981,27,35.77
3275,B-6,605.0,0.5,48,35.77
3276,E-6,606.0,0.25,65,35.77
3277,G#1,606.0,1.981,27,35.77
3278,E-2,606.0,1.981,27,35.77
3279,F6,606.25,0.25,50,35.77
3280,E-6,606.5,0.25,54,35.77
3281,D6,606.75,0.25,58,35.77
3282,E-6,607.0,0.2,62,35.77
3283,F6,607.2,0.2,64,35.77
3284,G6,607.4,0.2,67,35.77
3285,G#6,607.6,0.2,71,35.77
3286,B-6,607.8,0.2,74,35.77
3287,C6,608.0,2.0,77,35.77
3288,C7,608.0,2.0,77,35.77
3289,G1,608.0,0.5,30,35.77
3290,E-2,608.0,0.5,30,35.77
3291,B-5,610.0,0.5,68,35.77
3292,B-6,610.0,0.5,68,35.77
3293,F3,612.0,0.25,82,35.77
3294,G#3,612.0,0.25,82,35.77
3295,B-3,612.0,0.25,82,35.77
3296,D4,612.0,0.25,82,35.77
3297,B-1,612.0,0.5,56,35.77
3298,D2,612.0,0.5,56,35.77
3299,F2,612.0,0.5,56,35.77
3300,B-2,612.0,0.5,56,35.77
3301,G3,614.0,0.25,84,35.77
3302,B-3,614.0,0.25,84,35.77
3303,E-4,614.0,0.25,84,35.77
3304,E-2,614.0,0.5,56,35.77
3305,G2,614.0,0.5,56,35.77
3306,B-2,614.0,0.5,56,35.77
3307,E-3,614.0,0.5,56,35.77
,note_name,start_time,duration,velocity,tempo
0,G4,0.0,0.75,40,56.25
1,C3,0.0,4.0,30,56.25
2,E-4,0.0,4.0,30,56.25
3,F#4,0.75,0.25,36,56.25
4,A4,1.0,3.0,40,56.25
5,F#3,1.0,1.0,23,56.25
6,A3,2.0,1.0,29,56.25
7,F#3,3.0,1.0,23,56.25
8,G4,4.0,0.75,40,56.25
9,C3,4.0,4.0,30,56.25
10,E-4,4.0,4.0,30,56.25
11,F#4,4.75,0.25,36,56.25
12,A4,5.0,2.0,40,56.25
13,F#3,5.0,1.0,23,56.25
14,A3,6.0,1.0,29,56.25
15,F#3,7.0,1.0,23,56.25
16,E-5,7.75,0.237,42,56.25
17,E-5,8.0,1.0,52,56.25
18,D4,9.0,1.0,29,56.25
19,D5,9.0,0.75,40,56.25
20,B2,9.0,1.0,26,56.25
21,G3,9.0,1.0,26,56.25
22,G4,9.75,0.237,36,56.25
23,G4,10.0,1.0,41,56.25
24,C4,11.0,1.0,29,56.25
25,F#4,11.0,0.75,40,56.25
26,D3,11.0,1.0,26,56.25
27,A3,11.0,1.0,26,56.25
28,A4,11.75,0.237,36,56.25
29,A4,12.0,0.75,44,56.25
30,B4,12.75,1.917,40,56.25
31,B3,13.0,1.0,28,56.25
32,D4,13.0,1.0,28,56.25
33,G2,13.0,1.0,22,56.25
34,G3,13.0,1.0,22,56.25
35,B3,14.0,1.0,22,56.25
36,D4,14.0,1.0,22,56.25
37,G2,14.0,1.0,22,56.25
38,G3,14.0,1.0,22,56.25
39,C5,14.5,0.167,34,56.25
40,A4,14.833,0.167,30,56.25
41,B4,15.0,0.5,39,56.25
42,C5,15.5,0.5,46,56.25
43,E-5,16.0,0.75,58,56.25
44,F3,16.0,4.0,30,56.25
45,G#4,16.0,4.0,30,56.25
46,D5,16.75,0.25,52,56.25
47,F5,17.0,2.75,60,56.25
48,B3,17.0,1.0,31,56.25
49,D4,18.0,1.0,36,56.25
50,B3,19.0,1.0,32,56.25
51,D5,19.75,0.125,41,56.25
52,F5,19.875,0.125,42,56.25
53,E-5,20.0,0.75,58,56.25
54,F3,20.0,4.0,34,56.25
55,G#4,20.0,4.0,34,56.25
56,D5,20.75,0.25,53,56.25
57,F5,21.0,3.0,61,56.25
58,B3,21.0,1.0,36,56.25
59,D4,22.0,1.0,40,56.25
60,D5,23.0,0.75,63,56.25
61,B3,23.0,1.0,34,56.25
62,G#5,23.75,0.237,61,56.25
63,G#5,24.0,1.0,70,56.25
64,G4,25.0,1.0,33,56.25
65,G5,25.0,0.75,48,56.25
66,E-3,25.0,1.0,30,56.25
67,C4,25.0,1.0,30,56.25
68,C5,25.75,0.237,41,56.25
69,C5,26.0,1.0,47,56.25
70,F4,27.0,1.0,33,56.25
71,B4,27.0,0.75,46,56.25
72,G3,27.0,1.0,30,56.25
73,D4,27.0,1.0,30,56.25
74,D5,27.75,0.237,41,56.25
75,D5,28.0,0.75,50,56.25
76,E-5,28.75,2.25,46,56.25
77,E-4,29.0,1.0,36,56.25
78,C3,29.0,1.0,26,56.25
79,C4,29.0,1.0,26,56.25
80,E-4,30.0,0.5,29,56.25
81,C3,30.0,0.5,33,56.25
82,C4,30.0,0.5,33,56.25
83,G#4,30.5,0.5,38,56.25
84,E-4,30.5,0.5,32,56.25
85,C4,30.5,0.5,32,56.25
86,G4,31.0,0.5,43,56.25
87,B-3,31.0,0.5,33,56.25
88,C#4,31.0,0.5,33,56.25
89,E-4,31.0,0.5,33,56.25
90,G#4,31.5,0.5,49,56.25
91,E-4,31.5,0.5,36,56.25
92,C4,31.5,0.5,36,56.25
93,G#3,31.5,0.5,36,56.25
94,C5,32.0,0.5,59,56.25
95,G3,32.0,1.0,41,56.25
96,B-3,32.0,1.0,41,56.25
97,E-4,32.0,1.0,41,56.25
98,B-4,32.5,0.125,44,56.25
99,C5,32.625,0.125,44,56.25
100,B-4,32.75,0.125,44,56.25
101,A4,32.875,0.125,44,56.25
102,B-4,33.0,0.75,52,56.25
103,G3,33.0,1.5,38,56.25
104,B-3,33.0,1.5,38,56.25
105,E4,33.0,1.5,38,56.25
106,C5,33.75,0.25,55,56.25
107,C#5,34.0,1.25,61,56.25
108,F3,34.5,0.5,36,56.25
109,G#3,34.5,0.5,36,56.25
110,C#4,34.5,0.5,36,56.25
111,E3,35.0,0.5,45,56.25
112,G3,35.0,0.5,45,56.25
113,C4,35.0,0.5,45,56.25
114,C5,35.25,0.25,56,56.25
115,B-5,35.5,0.25,64,56.25
116,E3,35.5,0.5,36,56.25
117,G3,35.5,0.5,36,56.25
118,C4,35.5,0.5,36,56.25
119,G5,35.75,0.237,58,56.25
120,G5,36.0,1.5,67,56.25
121,E3,36.0,1.0,36,56.25
122,G3,36.0,1.0,36,56.25
123,C4,36.0,1.0,36,56.25
124,F3,37.0,1.0,26,56.25
125,G#3,37.0,1.0,26,56.25
126,C4,37.0,1.0,26,56.25
127,B-5,37.5,0.25,45,56.25
128,G#5,37.75,0.25,45,56.25
129,G#4,39.0,0.5,45,56.25
130,G4,39.5,0.49,39,56.25
131,G4,40.0,0.75,52,56.25
132,D2,40.0,3.0,27,56.25
133,E-3,40.0,1.0,38,56.25
134,A3,40.0,3.0,37,56.25
135,C4,40.0,3.0,37,56.25
136,F#4,40.75,0.25,45,56.25
137,A4,41.0,2.0,58,56.25
138,F#2,41.0,1.0,43,56.25
139,A2,42.0,1.0,43,56.25
140,D4,43.0,1.0,51,56.25
141,A4,43.0,0.75,60,56.25
142,B-2,43.0,1.0,36,56.25
143,D3,43.0,1.0,36,56.25
144,B-3,43.0,1.0,36,56.25
145,G4,43.75,0.237,52,56.25
146,G4,44.0,0.75,62,56.25
147,C4,44.0,1.0,52,56.25
148,D4,44.0,1.0,52,56.25
149,A2,44.0,1.0,36,56.25
150,D3,44.0,1.0,36,56.25
151,A3,44.0,1.0,36,56.25
152,F#4,44.75,0.25,50,56.25
153,A4,45.0,0.75,64,56.25
154,B-3,45.0,1.0,54,56.25
155,D4,45.0,1.0,54,56.25
156,G2,45.0,1.0,36,56.25
157,D3,45.0,1.0,36,56.25
158,G3,45.0,1.0,36,56.25
159,G4,45.75,0.25,54,56.25
160,B-4,46.0,0.75,69,56.25
161,A3,46.0,1.0,58,56.25
162,D4,46.0,1.0,58,56.25
163,F#2,46.0,1.0,36,56.25
164,D3,46.0,1.0,36,56.25
165,F#3,46.0,1.0,36,56.25
166,A4,46.75,0.25,45,56.25
167,F#4,47.0,0.25,51,56.25
168,A4,47.25,0.25,46,56.25
169,C5,47.5,0.25,42,56.25
170,E-5,47.75,0.25,48,56.25
171,D5,48.0,0.25,54,56.25
172,C5,48.25,0.25,43,56.25
173,B-4,48.5,0.25,43,56.25
174,A4,48.75,0.25,43,56.25
175,C5,49.0,0.25,53,56.25
176,F#5,49.25,0.25,45,56.25
177,A5,49.5,0.25,45,56.25
178,C6,49.75,0.25,45,56.25
179,B-5,50.0,0.25,54,56.25
180,A5,50.25,0.25,45,56.25
181,G5,50.5,0.25,45,56.25
182,F#5,50.75,0.25,45,56.25
183,A5,51.0,0.25,51,56.25
184,C6,51.25,0.25,53,56.25
185,D6,51.5,0.25,55,56.25
186,E-6,51.75,0.25,57,56.25
187,D6,52.0,0.25,60,56.25
188,C6,52.25,0.25,51,56.25
189,B-5,52.5,0.25,52,56.25
190,A5,52.75,0.25,52,56.25
191,C6,53.0,0.25,58,56.25
192,A5,53.25,0.25,48,56.25
193,G5,53.5,0.25,49,56.25
194,F#5,53.75,0.25,49,56.25
195,C6,54.0,0.25,60,56.25
196,A5,54.25,0.25,53,56.25
197,G5,54.5,0.25,55,56.25
198,F#5,54.75,0.25,56,56.25
199,A5,55.0,0.188,69,56.25
200,F#5,55.25,0.188,59,56.25
201,E-5,55.5,0.188,63,56.25
202,D5,55.75,0.188,65,56.25
203,D5,56.0,1.0,64,56.25
204,F#3,56.0,0.25,42,56.25
205,A3,56.0,0.25,42,56.25
206,D4,56.25,0.25,31,56.25
207,F#3,56.5,0.25,28,56.25
208,A3,56.5,0.25,28,56.25
209,D4,56.75,0.25,31,56.25
210,A4,57.0,2.0,58,56.25
211,F#3,57.0,0.25,40,56.25
212,A3,57.0,0.25,40,56.25
213,D4,57.25,0.25,32,56.25
214,F#3,57.5,0.25,30,56.25
215,A3,57.5,0.25,30,56.25
216,D4,57.75,0.25,32,56.25
217,F#3,58.0,0.25,38,56.25
218,A3,58.0,0.25,38,56.25
219,D4,58.25,0.25,33,56.25
220,F#3,58.5,0.25,30,56.25
221,A3,58.5,0.25,30,56.25
222,D4,58.75,0.25,33,56.25
223,B4,59.0,0.5,64,56.25
224,G3,59.0,0.25,40,56.25
225,B3,59.0,0.25,40,56.25
226,D4,59.25,0.25,30,56.25
227,G4,59.5,0.494,53,56.25
228,G3,59.5,0.25,28,56.25
229,B3,59.5,0.25,28,56.25
230,D4,59.75,0.25,30,56.25
231,G4,60.0,0.5,64,56.25
232,A3,60.0,0.25,42,56.25
233,C4,60.0,0.25,42,56.25
234,D4,60.25,0.25,32,56.25
235,F#4,60.5,0.125,55,56.25
236,A3,60.5,0.25,30,56.25
237,C4,60.5,0.25,30,56.25
238,G4,60.625,0.125,55,56.25
239,F#4,60.75,0.125,55,56.25
240,D4,60.75,0.25,32,56.25
241,E4,60.875,0.125,55,56.25
242,F#4,61.0,0.5,64,56.25
243,A3,61.0,0.25,42,56.25
244,C4,61.0,0.25,42,56.25
245,D4,61.25,0.25,31,56.25
246,G4,61.5,0.5,59,56.25
247,A3,61.5,0.25,28,56.25
248,C4,61.5,0.25,28,56.25
249,D4,61.75,0.25,31,56.25
250,A4,62.0,0.5,57,56.25
251,A3,62.0,0.25,42,56.25
252,C4,62.0,0.25,42,56.25
253,D4,62.25,0.25,33,56.25
254,B4,62.5,0.5,62,56.25
255,G3,62.5,0.25,30,56.25
256,B3,62.5,0.25,30,56.25
257,D4,62.75,0.25,33,56.25
258,C5,63.0,0.25,64,56.25
259,F#3,63.0,0.25,42,56.25
260,A3,63.0,0.25,42,56.25
261,C#5,63.25,0.24,57,56.25
262,D4,63.25,0.25,33,56.25
263,C#5,63.5,0.25,64,56.25
264,F#3,63.5,0.25,30,56.25
265,A3,63.5,0.25,30,56.25
266,D5,63.75,0.25,59,56.25
267,D4,63.75,0.25,33,56.25
268,C#5,64.0,0.25,64,56.25
269,F#3,64.0,0.25,42,56.25
270,A3,64.0,0.25,42,56.25
271,D5,64.25,0.25,57,56.25
272,D4,64.25,0.25,34,56.25
273,E5,64.5,0.25,57,56.25
274,F#3,64.5,0.25,31,56.25
275,A3,64.5,0.25,31,56.25
276,D5,64.75,0.25,57,56.25
277,D4,64.75,0.25,34,56.25
278,A4,65.0,1.25,64,56.25
279,F#3,65.0,0.25,40,56.25
280,A3,65.0,0.25,40,56.25
281,D4,65.25,0.25,33,56.25
282,F#3,65.5,0.25,30,56.25
283,A3,65.5,0.25,30,56.25
284,D4,65.75,0.25,33,56.25
285,F#3,66.0,0.25,42,56.25
286,A3,66.0,0.25,42,56.25
287,B4,66.25,0.125,64,56.25
288,D4,66.25,0.25,34,56.25
289,A4,66.375,0.125,55,56.25
290,B4,66.5,0.125,64,56.25
291,F#3,66.5,0.25,31,56.25
292,A3,66.5,0.25,31,56.25
293,A4,66.625,0.125,54,56.25
294,C5,66.75,0.125,64,56.25
295,D4,66.75,0.25,34,56.25
296,B4,66.875,0.125,55,56.25
297,C5,67.0,0.125,64,56.25
298,G3,67.0,0.25,42,56.25
299,B3,67.0,0.25,42,56.25
300,B4,67.125,0.125,56,56.25
301,D5,67.25,0.125,64,56.25
302,D4,67.25,0.25,34,56.25
303,C#5,67.375,0.125,57,56.25
304,D5,67.5,1.0,52,56.25
305,C#5,67.5,1.0,52,56.25
306,G3,67.5,0.25,31,56.25
307,B3,67.5,0.25,31,56.25
308,E5,67.625,1.0,52,56.25
309,D5,67.625,1.0,52,56.25
310,G4,67.75,0.244,60,56.25
311,D4,67.75,0.25,34,56.25
312,G4,68.0,1.0,64,56.25
313,A3,68.0,0.25,42,56.25
314,C4,68.0,0.25,42,56.25
315,D4,68.25,0.25,33,56.25
316,A3,68.5,0.25,30,56.25
317,C4,68.5,0.25,30,56.25
318,D4,68.75,0.25,34,56.25
319,F#4,69.0,0.071,56,56.25
320,A3,69.0,0.25,42,56.25
321,C4,69.0,0.25,42,56.25
322,G4,69.071,0.071,50,56.25
323,F#4,69.144,0.071,56,56.25
324,G4,69.215,0.071,49,56.25
325,D4,69.25,0.25,35,56.25
326,F#4,69.285,0.071,56,56.25
327,E4,69.356,0.071,51,56.25
328,F#4,69.427,0.071,51,56.25
329,G4,69.5,0.5,57,56.25
330,A3,69.5,0.25,32,56.25
331,C4,69.5,0.25,32,56.25
332,D4,69.75,0.25,35,56.25
333,A4,70.0,0.5,59,56.25
334,A3,70.0,0.25,42,56.25
335,C4,70.0,0.25,42,56.25
336,D4,70.25,0.25,35,56.25
337,B-4,70.5,0.5,64,56.25
338,G3,70.5,0.25,32,56.25
339,B-3,70.5,0.25,32,56.25
340,D4,70.75,0.25,35,56.25
341,C5,71.0,0.25,64,56.25
342,F#3,71.0,0.25,43,56.25
343,A3,71.0,0.25,43,56.25
344,C#5,71.25,0.242,58,56.25
345,D4,71.25,0.25,36,56.25
346,C#5,71.5,0.25,64,56.25
347,F#3,71.5,0.25,33,56.25
348,A3,71.5,0.25,33,56.25
349,D5,71.75,0.24,56,56.25
350,D4,71.75,0.25,36,56.25
351,D5,72.0,0.5,71,56.25
352,B-3,72.0,0.125,56,56.25
353,G3,72.0,0.125,56,56.25
354,D4,72.25,0.125,47,56.25
355,F#4,72.5,0.125,47,56.25
356,B-5,72.5,0.5,70,56.25
357,D5,72.5,0.5,70,56.25
358,G4,72.75,0.125,47,56.25
359,D4,73.0,0.125,56,56.25
360,B-3,73.25,0.125,42,56.25
361,A3,73.5,0.125,42,56.25
362,B-5,73.5,0.5,68,56.25
363,D5,73.5,0.5,68,56.25
364,G3,73.75,0.125,42,56.25
365,D3,74.0,0.125,52,56.25
366,F#3,74.0,0.125,52,56.25
367,A3,74.25,0.125,40,56.25
368,C4,74.5,0.125,40,56.25
369,A5,74.5,0.5,62,56.25
370,C5,74.5,0.5,62,56.25
371,D3,74.75,0.125,40,56.25
372,E-3,75.0,0.125,52,56.25
373,G3,75.25,0.125,36,56.25
374,B-3,75.5,0.125,36,56.25
375,G5,75.5,0.5,56,56.25
376,B-4,75.5,0.5,56,56.25
377,G3,75.75,0.125,36,56.25
378,E-3,76.0,0.125,46,56.25
379,G3,76.0,0.125,46,56.25
380,B-3,76.25,0.125,36,56.25
381,D4,76.5,0.125,35,56.25
382,G5,76.5,0.5,59,56.25
383,B-4,76.5,0.5,59,56.25
384,G4,76.5,0.5,59,56.25
385,E-4,76.75,0.125,35,56.25
386,B-3,77.0,0.125,43,56.25
387,G3,77.25,0.125,30,56.25
388,F3,77.5,0.125,30,56.25
389,G5,77.5,0.5,57,56.25
390,E-5,77.5,0.5,57,56.25
391,G4,77.5,0.5,57,56.25
392,E-3,77.75,0.125,30,56.25
393,G2,78.0,0.125,39,56.25
394,B2,78.0,0.125,39,56.25
395,D3,78.25,0.125,29,56.25
396,G3,78.5,0.125,29,56.25
397,F5,78.5,0.5,50,56.25
398,D5,78.5,0.5,50,56.25
399,G4,78.5,0.5,50,56.25
400,B2,78.75,0.125,29,56.25
401,C3,79.0,0.125,38,56.25
402,E-3,79.25,0.125,28,56.25
403,G3,79.5,0.125,29,56.25
404,E-5,79.5,0.5,41,56.25
405,C5,79.5,0.5,41,56.25
406,G4,79.5,0.5,41,56.25
407,C3,79.75,0.125,26,56.25
408,F5,80.0,0.75,50,56.25
409,C#5,80.0,4.0,30,56.25
410,B-4,80.0,4.0,30,56.25
411,G4,80.0,4.0,30,56.25
412,B-2,80.0,4.0,30,56.25
413,C#4,80.0,4.0,30,56.25
414,E5,80.75,0.25,45,56.25
415,G5,81.0,3.0,50,56.25
416,E3,81.0,1.0,23,56.25
417,G3,82.0,1.0,29,56.25
418,E3,83.0,1.0,23,56.25
419,F5,84.0,0.75,50,56.25
420,B-2,84.0,3.0,30,56.25
421,C#4,84.0,4.0,30,56.25
422,C#5,84.0,3.0,30,56.25
423,B-4,84.0,3.0,30,56.25
424,G4,84.0,3.0,30,56.25
425,E5,84.75,0.25,45,56.25
426,G5,85.0,2.0,50,56.25
427,E3,85.0,1.0,23,56.25
428,G3,86.0,1.0,29,56.25
429,C#5,87.0,1.0,30,56.25
430,B-2,87.0,1.0,26,56.25
431,E3,87.0,1.0,26,56.25
432,C#6,87.75,0.242,52,56.25
433,C#6,88.0,1.0,65,56.25
434,C5,89.0,1.0,29,56.25
435,C6,89.0,0.75,50,56.25
436,C3,89.0,1.0,26,56.25
437,G#2,89.0,1.0,26,56.25
438,F3,89.0,1.0,26,56.25
439,F5,89.75,0.237,45,56.25
440,F5,90.0,1.0,51,56.25
441,B-4,91.0,1.0,29,56.25
442,E5,91.0,0.75,50,56.25
443,E4,91.0,1.0,27,56.25
444,C3,91.0,1.0,27,56.25
445,G3,91.0,1.0,27,56.25
446,G5,91.75,0.237,45,56.25
447,G5,92.0,0.75,55,56.25
448,G#5,92.75,2.0,50,56.25
449,C5,93.0,1.0,30,56.25
450,F3,93.0,1.0,22,56.25
451,F4,93.0,1.0,22,56.25
452,C5,94.0,0.5,24,56.25
453,F3,94.0,0.5,22,56.25
454,F4,94.0,0.5,22,56.25
455,C#5,94.502,0.5,38,56.25
456,G#4,94.502,0.5,32,56.25
457,F4,94.502,0.5,32,56.25
458,C5,95.002,0.5,43,56.25
459,E-4,95.002,0.5,33,56.25
460,F#4,95.002,0.5,33,56.25
461,G#4,95.002,0.5,33,56.25
462,C#5,95.502,0.5,49,56.25
463,G#4,95.502,0.5,36,56.25
464,F4,95.502,0.5,36,56.25
465,C#4,95.502,0.5,36,56.25
466,F5,96.002,0.5,59,56.25
467,C4,96.002,1.0,41,56.25
468,E-4,96.002,1.0,41,56.25
469,G#4,96.002,1.0,41,56.25
470,E-5,96.502,0.125,44,56.25
471,F5,96.627,0.125,44,56.25
472,E-5,96.752,0.125,44,56.25
473,D5,96.877,0.125,44,56.25
474,E-5,97.002,0.75,52,56.25
475,C4,97.002,1.5,38,56.25
476,E-4,97.002,1.5,38,56.25
477,A4,97.002,1.5,38,56.25
478,F5,97.752,0.25,55,56.25
479,F#5,98.002,1.25,61,56.25
480,B-3,98.502,0.5,36,56.25
481,C#4,98.502,0.5,36,56.25
482,F#4,98.502,0.5,36,56.25
483,A3,99.002,0.5,45,56.25
484,C4,99.002,0.5,45,56.25
485,F4,99.002,0.5,45,56.25
486,F5,99.252,0.25,56,56.25
487,E-6,99.502,0.25,64,56.25
488,A3,99.502,0.5,36,56.25
489,C4,99.502,0.5,36,56.25
490,F4,99.502,0.5,36,56.25
491,C6,99.752,0.246,58,56.25
492,C6,100.002,1.5,67,56.25
493,A3,100.002,1.0,36,56.25
494,C4,100.002,1.0,36,56.25
495,F4,100.002,1.0,36,56.25
496,B-3,101.002,1.0,26,56.25
497,C#4,101.002,1.0,26,56.25
498,F4,101.002,1.0,26,56.25
499,E-6,101.502,0.25,45,56.25
500,C#6,101.752,0.25,45,56.25
501,F#4,103.002,0.5,45,56.25
502,F4,103.502,0.5,39,56.25
503,C#4,104.0,1.498,34,56.25
504,G3,104.0,1.498,34,56.25
505,B-3,104.0,1.498,34,56.25
506,F4,104.002,0.75,52,56.25
507,C2,104.002,3.0,32,56.25
508,C#3,104.002,1.0,38,56.25
509,E4,104.75,0.25,45,56.25
510,E2,105.0,1.0,43,56.25
511,G4,105.002,2.0,58,56.25
512,G2,106.002,1.0,43,56.25
513,G#3,107.0,0.998,45,56.25
514,C4,107.0,0.998,45,56.25
515,G4,107.002,0.75,60,56.25
516,G#1,107.002,1.0,36,56.25
517,C2,107.002,1.0,36,56.25
518,G#2,107.002,1.0,36,56.25
519,F4,107.752,0.237,52,56.25
520,F4,108.002,0.75,62,56.25
521,B-3,108.002,1.0,52,56.25
522,C4,108.002,1.0,52,56.25
523,G1,108.002,1.0,36,56.25
524,C2,108.002,1.0,36,56.25
525,G2,108.002,1.0,36,56.25
526,E4,108.75,0.237,50,56.25
527,G4,109.002,0.75,64,56.25
528,G#3,109.002,1.0,54,56.25
529,C4,109.002,1.0,54,56.25
530,F1,109.002,1.0,36,56.25
531,C2,109.002,1.0,36,56.25
532,F2,109.002,1.0,36,56.25
533,F4,109.752,0.237,54,56.25
534,E2,110.0,0.998,36,56.25
535,E1,110.0,0.998,36,56.25
536,C2,110.0,0.998,36,56.25
537,G#4,110.002,0.75,69,56.25
538,G3,110.002,1.0,58,56.25
539,C4,110.002,1.0,58,56.25
540,G4,110.752,0.237,45,56.25
541,E4,111.0,0.25,51,56.25
542,G4,111.252,0.25,46,56.25
543,B-4,111.502,0.25,42,56.25
544,C#5,111.752,0.25,48,56.25
545,C5,112.002,0.25,54,56.25
546,B-4,112.252,0.25,43,56.25
547,G#4,112.502,0.25,43,56.25
548,G4,112.752,0.25,43,56.25
549,B-4,113.002,0.25,53,56.25
550,E5,113.25,0.25,45,56.25
551,G5,113.502,0.25,45,56.25
552,B-5,113.752,0.25,45,56.25
553,G#5,114.002,0.25,54,56.25
554,G5,114.252,0.25,45,56.25
555,F5,114.502,0.25,45,56.25
556,E5,114.75,0.25,45,56.25
557,G5,115.002,0.25,51,56.25
558,B-5,115.252,0.25,53,56.25
559,C6,115.502,0.25,55,56.25
560,C#6,115.752,0.25,57,56.25
561,C6,116.002,0.25,60,56.25
562,B-5,116.252,0.25,51,56.25
563,G#5,116.502,0.25,52,56.25
564,G5,116.752,0.25,52,56.25
565,B-5,117.002,0.25,58,56.25
566,G5,117.252,0.25,48,56.25
567,F5,117.502,0.25,49,56.25
568,E5,117.75,0.25,49,56.25
569,B-5,118.002,0.25,60,56.25
570,G5,118.252,0.25,53,56.25
571,F5,118.502,0.25,55,56.25
572,E5,118.75,0.25,56,56.25
573,G6,119.0,0.185,69,56.25
574,G5,119.0,0.185,69,56.25
575,E6,119.25,0.188,59,56.25
576,E5,119.25,0.188,59,56.25
577,C#6,119.5,0.185,63,56.25
578,C#5,119.5,0.185,63,56.25
579,C6,119.75,0.185,65,56.25
580,C5,119.75,0.185,65,56.25
581,C6,120.0,1.0,59,56.25
582,C5,120.0,1.0,59,56.25
583,E3,120.0,0.25,42,56.25
584,G3,120.0,0.25,42,56.25
585,C4,120.25,0.25,31,56.25
586,E3,120.5,0.25,28,56.25
587,G3,120.5,0.25,28,56.25
588,C4,120.75,0.25,31,56.25
589,G5,121.0,2.0,54,56.25
590,G4,121.0,2.0,54,56.25
591,E3,121.0,0.25,40,56.25
592,G3,121.0,0.25,40,56.25
593,C4,121.25,0.25,32,56.25
594,E3,121.5,0.25,30,56.25
595,G3,121.5,0.25,30,56.25
596,C4,121.75,0.25,32,56.25
597,E3,122.0,0.25,38,56.25
598,G3,122.0,0.25,38,56.25
599,C4,122.25,0.25,33,56.25
600,E3,122.5,0.25,30,56.25
601,G3,122.5,0.25,30,56.25
602,C4,122.75,0.25,33,56.25
603,A5,123.0,0.5,59,56.25
604,A4,123.0,0.5,59,56.25
605,F3,123.0,0.25,40,56.25
606,A3,123.0,0.25,40,56.25
607,C4,123.25,0.25,30,56.25
608,F5,123.5,0.49,49,56.25
609,F4,123.5,0.49,49,56.25
610,F3,123.5,0.25,28,56.25
611,A3,123.5,0.25,28,56.25
612,C4,123.75,0.25,30,56.25
613,F5,124.0,0.5,64,56.25
614,F4,124.0,1.0,54,56.25
615,G3,124.0,0.25,42,56.25
616,B-3,124.0,0.25,42,56.25
617,C4,124.25,0.25,32,56.25
618,E5,124.5,0.125,55,56.25
619,G3,124.5,0.25,30,56.25
620,B-3,124.5,0.25,30,56.25
621,F5,124.625,0.125,55,56.25
622,E5,124.75,0.125,55,56.25
623,C4,124.75,0.25,32,56.25
624,D5,124.875,0.125,55,56.25
625,E5,125.0,0.5,59,56.25
626,E4,125.0,0.5,59,56.25
627,G3,125.0,0.25,42,56.25
628,B-3,125.0,0.25,42,56.25
629,C4,125.25,0.25,31,56.25
630,F5,125.5,0.5,54,56.25
631,F4,125.5,0.5,54,56.25
632,G3,125.5,0.25,28,56.25
633,B-3,125.5,0.25,28,56.25
634,C4,125.75,0.25,31,56.25
635,G5,126.0,0.5,55,56.25
636,G4,126.0,0.5,55,56.25
637,G3,126.0,0.25,42,56.25
638,B-3,126.0,0.25,42,56.25
639,C4,126.25,0.25,33,56.25
640,A5,126.5,0.5,57,56.25
641,A4,126.5,0.5,57,56.25
642,F3,126.5,0.25,30,56.25
643,A3,126.5,0.25,30,56.25
644,C4,126.75,0.25,33,56.25
645,B-5,127.0,0.25,59,56.25
646,B-4,127.0,0.25,59,56.25
647,E3,127.0,0.25,42,56.25
648,G3,127.0,0.25,42,56.25
649,C4,127.25,0.25,33,56.25
650,B5,127.25,0.237,52,56.25
651,B4,127.25,0.237,52,56.25
652,B5,127.5,0.25,59,56.25
653,B4,127.5,0.25,59,56.25
654,E3,127.5,0.25,30,56.25
655,G3,127.5,0.25,30,56.25
656,C4,127.75,0.25,33,56.25
657,C6,127.75,0.25,54,56.25
658,C5,127.75,0.25,54,56.25
659,B5,128.0,0.25,64,56.25
660,E3,128.0,0.25,42,56.25
661,G3,128.0,0.25,42,56.25
662,C6,128.25,0.25,57,56.25
663,C4,128.25,0.25,34,56.25
664,D6,128.5,0.25,57,56.25
665,E3,128.5,0.25,31,56.25
666,G3,128.5,0.25,31,56.25
667,C6,128.75,0.25,57,56.25
668,C4,128.75,0.25,34,56.25
669,G5,129.0,1.25,64,56.25
670,E3,129.0,0.25,40,56.25
671,G3,129.0,0.25,40,56.25
672,C4,129.25,0.25,33,56.25
673,E3,129.5,0.25,30,56.25
674,G3,129.5,0.25,30,56.25
675,C4,129.75,0.25,33,56.25
676,E3,130.0,0.25,42,56.25
677,G3,130.0,0.25,42,56.25
678,A5,130.25,0.125,64,56.25
679,C4,130.25,0.25,34,56.25
680,G5,130.375,0.125,55,56.25
681,A5,130.5,0.125,64,56.25
682,E3,130.5,0.25,31,56.25
683,G3,130.5,0.25,31,56.25
684,G5,130.625,0.125,54,56.25
685,B-5,130.75,0.125,64,56.25
686,C4,130.75,0.25,34,56.25
687,A5,130.875,0.125,55,56.25
688,B-5,131.0,0.125,64,56.25
689,F3,131.0,0.25,42,56.25
690,A3,131.0,0.25,42,56.25
691,A5,131.125,0.125,56,56.25
692,C6,131.25,0.125,64,56.25
693,C4,131.25,0.25,34,56.25
694,B5,131.375,0.125,57,56.25
695,C6,131.5,1.0,48,56.25
696,B5,131.5,1.0,48,56.25
697,F3,131.5,0.25,31,56.25
698,A3,131.5,0.25,31,56.25
699,D6,131.625,1.0,50,56.25
700,C6,131.625,1.0,50,56.25
701,F6,131.75,0.125,60,56.25
702,C4,131.75,0.25,34,56.25
703,F5,131.875,0.119,54,56.25
704,F5,132.0,0.5,64,56.25
705,F4,132.0,1.0,54,56.25
706,G3,132.0,0.25,42,56.25
707,B-3,132.0,0.25,42,56.25
708,C4,132.25,0.25,33,56.25
709,E5,132.5,0.125,55,56.25
710,G3,132.5,0.25,30,56.25
711,B-3,132.5,0.25,30,56.25
712,F5,132.625,0.125,55,56.25
713,E5,132.75,0.125,55,56.25
714,C4,132.75,0.25,34,56.25
715,D5,132.875,0.125,55,56.25
716,E5,133.0,0.5,59,56.25
717,E4,133.0,0.5,59,56.25
718,G3,133.0,0.25,42,56.25
719,B-3,133.0,0.25,42,56.25
720,C4,133.25,0.25,35,56.25
721,F5,133.5,0.5,54,56.25
722,F4,133.5,0.5,54,56.25
723,G3,133.5,0.25,32,56.25
724,B-3,133.5,0.25,32,56.25
725,C4,133.75,0.25,35,56.25
726,G5,134.0,0.5,54,56.25
727,G4,134.0,0.5,54,56.25
728,G3,134.0,0.25,42,56.25
729,B-3,134.0,0.25,42,56.25
730,C4,134.25,0.25,35,56.25
731,G#5,134.5,0.5,59,56.25
732,G#4,134.5,0.5,59,56.25
733,F3,134.5,0.25,32,56.25
734,G#3,134.5,0.25,32,56.25
735,C4,134.75,0.25,35,56.25
736,B-5,135.0,0.25,59,56.25
737,B-4,135.0,0.25,59,56.25
738,E3,135.0,0.25,43,56.25
739,G3,135.0,0.25,43,56.25
740,C4,135.25,0.25,36,56.25
741,B5,135.25,0.237,54,56.25
742,B4,135.25,0.237,54,56.25
743,B5,135.5,0.25,59,56.25
744,B4,135.5,0.25,59,56.25
745,E3,135.5,0.25,33,56.25
746,G3,135.5,0.25,33,56.25
747,C4,135.75,0.25,36,56.25
748,C6,135.75,0.237,52,56.25
749,C5,135.75,0.237,52,56.25
750,C6,136.0,0.5,64,56.25
751,G#5,136.0,0.5,64,56.25
752,C5,136.0,0.5,64,56.25
753,G#3,136.0,0.125,56,56.25
754,F3,136.0,0.125,56,56.25
755,C4,136.25,0.125,47,56.25
756,E4,136.5,0.125,47,56.25
757,C6,136.5,0.5,68,56.25
758,G#5,136.5,0.5,68,56.25
759,G#6,136.5,0.5,68,56.25
760,F4,136.75,0.125,47,56.25
761,C4,137.0,0.125,56,56.25
762,G#3,137.25,0.125,42,56.25
763,G3,137.5,0.125,42,56.25
764,G#5,137.5,0.5,68,56.25
765,C5,137.5,0.5,68,56.25
766,F3,137.75,0.125,42,56.25
767,C3,138.0,0.125,56,56.25
768,E3,138.0,0.125,56,56.25
769,G3,138.25,0.125,40,56.25
770,B-3,138.5,0.125,40,56.25
771,G5,138.5,0.5,62,56.25
772,B-4,138.5,0.5,62,56.25
773,C3,138.75,0.125,40,56.25
774,C#3,139.0,0.125,52,56.25
775,F3,139.25,0.125,36,56.25
776,G#3,139.5,0.125,36,56.25
777,G#4,139.5,0.5,56,56.25
778,F5,139.5,0.5,56,56.25
779,F3,139.75,0.125,36,56.25
780,F5,140.0,0.5,67,56.25
781,G#4,140.0,0.5,67,56.25
782,C#3,140.0,0.125,51,56.25
783,F3,140.0,0.125,51,56.25
784,G#3,140.25,0.125,38,56.25
785,C4,140.5,0.125,38,56.25
786,G#5,140.5,0.5,68,56.25
787,F5,140.5,0.5,68,56.25
788,F6,140.5,0.5,68,56.25
789,C#4,140.75,0.125,38,56.25
790,G#3,141.0,0.125,47,56.25
791,F3,141.25,0.125,33,56.25
792,E-3,141.5,0.125,33,56.25
793,F4,141.5,0.5,63,56.25
794,F5,141.5,0.5,63,56.25
795,G#4,141.5,0.5,63,56.25
796,C#3,141.75,0.125,33,56.25
797,F2,142.0,0.125,44,56.25
798,A2,142.0,0.125,44,56.25
799,C3,142.25,0.125,33,56.25
800,F3,142.5,0.125,33,56.25
801,F4,142.5,0.5,56,56.25
802,E-5,142.5,0.5,56,56.25
803,C5,142.5,0.5,56,56.25
804,A2,142.75,0.125,33,56.25
805,B-2,143.0,0.125,44,56.25
806,C#3,143.25,0.125,33,56.25
807,F3,143.5,0.125,34,56.25
808,F4,143.5,0.5,50,56.25
809,C#5,143.5,0.5,50,56.25
810,B-4,143.5,0.5,50,56.25
811,B-2,143.75,0.125,34,56.25
812,C5,144.0,0.75,50,56.25
813,G2,144.0,4.0,30,56.25
814,G#3,144.0,1.0,30,56.25
815,G#4,144.0,4.0,30,56.25
816,F4,144.0,4.0,30,56.25
817,D4,144.0,4.0,30,56.25
818,B4,144.75,0.25,45,56.25
819,D5,145.0,3.0,50,56.25
820,B2,145.0,1.0,23,56.25
821,D3,146.0,1.0,29,56.25
822,B2,147.0,1.0,23,56.25
823,C5,148.0,0.75,50,56.25
824,B4,148.75,0.25,45,56.25
825,D5,149.0,0.5,50,56.25
826,D5,150.0,0.75,50,56.25
827,C5,150.75,0.25,45,56.25
828,E-5,151.0,0.5,50,56.25
829,E-5,152.0,0.75,50,56.25
830,B2,152.0,4.0,30,56.25
831,D4,152.0,1.0,30,56.25
832,G#4,152.0,4.0,30,56.25
833,F4,152.0,4.0,30,56.25
834,D5,152.75,0.25,45,56.25
835,F5,153.0,3.0,50,56.25
836,F3,153.0,1.0,23,56.25
837,G#3,154.0,1.0,29,56.25
838,F3,155.0,1.0,23,56.25
839,E-5,156.0,0.75,50,56.25
840,D5,156.75,0.25,45,56.25
841,F5,157.0,0.5,50,56.25
842,F5,158.0,0.75,50,56.25
843,E-5,158.75,0.25,45,56.25
844,G5,159.0,0.5,50,56.25
845,B-2,159.875,0.125,33,56.25
846,D4,160.0,1.0,33,56.25
847,G#4,160.0,0.75,43,56.25
848,D5,160.0,0.75,43,56.25
849,G5,160.0,0.75,43,56.25
850,F5,160.75,0.25,45,56.25
851,G#5,161.0,1.75,50,56.25
852,F3,161.0,1.0,26,56.25
853,D4,162.0,1.0,31,56.25
854,F5,162.75,0.25,45,56.25
855,D6,163.0,1.75,50,56.25
856,F3,163.0,1.0,25,56.25
857,F4,164.0,1.0,33,56.25
858,G#5,164.75,0.25,45,56.25
859,F6,165.0,1.75,50,56.25
860,D4,165.0,1.0,28,56.25
861,G#4,166.0,1.0,28,56.25
862,D6,166.75,0.25,45,56.25
863,G#6,167.0,1.0,53,56.25
864,F4,167.0,1.0,28,56.25
,note_name,start_time,duration,velocity,tempo
0,F6,0.0,0.25,80,120.0
1,D6,0.0,0.25,80,120.0
2,G#5,0.0,0.25,80,120.0
3,G#6,0.0,0.25,80,120.0
4,F4,0.0,0.25,68,120.0
5,G#4,0.0,0.25,68,120.0
6,D4,0.0,0.25,68,120.0
7,B-3,0.0,0.25,68,120.0
8,B-3,0.5,0.25,66,120.0
9,B-2,0.5,0.25,60,120.0
10,A3,0.75,0.25,57,120.0
11,D3,0.75,0.25,50,120.0
12,B-3,1.0,0.25,57,120.0
13,B-2,1.0,0.25,60,120.0
14,D4,1.25,0.25,56,120.0
15,D3,1.25,0.25,51,120.0
16,F4,1.5,0.25,67,120.0
17,D3,1.5,0.25,59,120.0
18,D4,1.75,0.25,56,120.0
19,F3,1.75,0.25,52,120.0
20,F4,2.0,0.25,54,120.0
21,D3,2.0,0.25,59,120.0
22,G#4,2.25,0.25,55,120.0
23,F3,2.25,0.25,52,120.0
24,F4,2.5,0.25,55,120.0
25,D3,2.5,0.25,59,120.0
26,D4,2.75,0.25,55,120.0
27,F3,2.75,0.25,51,120.0
28,G#4,3.0,0.25,65,120.0
29,F3,3.0,0.25,59,120.0
30,F4,3.25,0.25,56,120.0
31,G#3,3.25,0.25,51,120.0
32,G#4,3.5,0.25,57,120.0
33,F3,3.5,0.25,59,120.0
34,B-4,3.75,0.25,56,120.0
35,G#3,3.75,0.25,50,120.0
36,G#4,4.0,0.25,55,120.0
37,F3,4.0,0.25,58,120.0
38,F4,4.25,0.25,55,120.0
39,G#3,4.25,0.25,50,120.0
40,B-4,4.5,0.25,67,120.0
41,B-3,4.5,0.25,58,120.0
42,G#4,4.75,0.25,55,120.0
43,D4,4.75,0.25,50,120.0
44,B-4,5.0,0.25,55,120.0
45,B-3,5.0,0.25,58,120.0
46,D5,5.25,0.25,55,120.0
47,D4,5.25,0.25,50,120.0
48,B-4,5.5,0.25,55,120.0
49,B-3,5.5,0.25,58,120.0
50,G#4,5.75,0.25,55,120.0
51,D4,5.75,0.25,51,120.0
52,F5,6.0,0.25,64,120.0
53,D4,6.0,0.25,57,120.0
54,D5,6.25,0.25,54,120.0
55,F4,6.25,0.25,50,120.0
56,F5,6.5,0.25,55,120.0
57,D4,6.5,0.25,57,120.0
58,G#5,6.75,0.25,55,120.0
59,F4,6.75,0.25,49,120.0
60,F5,7.0,0.25,54,120.0
61,D4,7.0,0.25,57,120.0
62,D5,7.25,0.25,54,120.0
63,F4,7.25,0.25,48,120.0
64,G#5,7.5,0.25,65,120.0
65,F4,7.5,0.25,57,120.0
66,F5,7.75,0.25,54,120.0
67,G#4,7.75,0.25,48,120.0
68,G#5,8.0,0.25,54,120.0
69,F4,8.0,0.25,57,120.0
70,B-5,8.25,0.25,54,120.0
71,G#4,8.25,0.25,49,120.0
72,G#5,8.5,0.25,53,120.0
73,F4,8.5,0.25,56,120.0
74,F5,8.75,0.25,53,120.0
75,G#4,8.75,0.25,50,120.0
76,B-5,9.0,0.25,62,120.0
77,D5,9.0,0.25,56,120.0
78,G#5,9.25,0.25,53,120.0
79,F5,9.25,0.25,49,120.0
80,B-5,9.5,0.25,54,120.0
81,D5,9.5,0.25,56,120.0
82,D6,9.75,0.25,54,120.0
83,F5,9.75,0.25,47,120.0
84,B-5,10.0,0.25,53,120.0
85,D5,10.0,0.25,56,120.0
86,G#5,10.25,0.25,53,120.0
87,F5,10.25,0.25,47,120.0
88,D6,10.5,0.25,64,120.0
89,F5,10.5,0.25,56,120.0
90,B-5,10.75,0.25,53,120.0
91,G#5,10.75,0.25,47,120.0
92,D6,11.0,0.25,52,120.0
93,F5,11.0,0.25,55,120.0
94,F6,11.25,0.25,52,120.0
95,G#5,11.25,0.25,48,120.0
96,D6,11.5,0.25,52,120.0
97,F5,11.5,0.25,55,120.0
98,B-5,11.75,0.25,52,120.0
99,G#5,11.75,0.25,49,120.0
100,F6,12.0,0.25,57,120.0
101,D6,12.25,0.25,49,120.0
102,F6,12.5,0.25,50,120.0
103,G#6,12.75,0.25,49,120.0
104,F6,13.0,0.25,48,120.0
105,F5,13.0,1.5,33,120.0
106,G#5,13.0,0.5,33,120.0
107,D6,13.25,0.25,48,120.0
108,B-5,13.5,0.25,58,120.0
109,D5,13.5,1.0,38,120.0
110,A5,13.75,0.25,48,120.0
111,B-5,14.0,0.25,47,120.0
112,D6,14.25,0.25,47,120.0
113,F6,14.5,0.25,47,120.0
114,D6,14.75,0.25,47,120.0
115,F6,15.0,0.25,54,120.0
116,D6,15.25,0.25,46,120.0
117,F6,15.5,0.25,47,120.0
118,G#6,15.75,0.25,47,120.0
119,F6,16.0,0.25,46,120.0
120,G#5,16.0,0.5,32,120.0
121,F5,16.0,1.5,32,120.0
122,D6,16.25,0.25,45,120.0
123,B-5,16.5,0.25,55,120.0
124,D5,16.5,1.0,36,120.0
125,A5,16.75,0.25,45,120.0
126,B-5,17.0,0.25,45,120.0
127,D6,17.25,0.25,45,120.0
128,F6,17.5,0.25,44,120.0
129,D6,17.75,0.25,44,120.0
130,F5,18.0,0.25,51,120.0
131,D5,18.25,0.25,44,120.0
132,F5,18.5,0.25,45,120.0
133,G#5,18.75,0.25,44,120.0
134,F5,19.0,0.25,43,120.0
135,G#4,19.0,0.5,30,120.0
136,F4,19.0,1.5,30,120.0
137,D5,19.25,0.25,43,120.0
138,B-4,19.5,0.25,52,120.0
139,D4,19.5,1.0,34,120.0
140,A4,19.75,0.25,43,120.0
141,B-4,20.0,0.25,42,120.0
142,D5,20.25,0.25,42,120.0
143,F5,20.5,0.25,42,120.0
144,D5,20.75,0.25,42,120.0
145,F5,21.0,0.25,48,120.0
146,D5,21.25,0.25,41,120.0
147,F5,21.5,0.25,42,120.0
148,G#5,21.75,0.25,41,120.0
149,F5,22.0,0.25,41,120.0
150,F4,22.0,1.5,28,120.0
151,G#4,22.0,0.5,28,120.0
152,D5,22.25,0.25,40,120.0
153,B-4,22.5,0.25,49,120.0
154,D4,22.5,1.0,31,120.0
155,A4,22.75,0.25,40,120.0
156,B-4,23.0,0.25,40,120.0
157,D5,23.25,0.25,40,120.0
158,F5,23.5,0.25,39,120.0
159,D5,23.75,0.25,39,120.0
160,G#5,24.0,0.25,80,120.0
161,D5,24.0,0.25,80,120.0
162,F5,24.0,0.25,80,120.0
163,G#4,24.0,0.25,80,120.0
164,B-3,24.0,0.25,68,120.0
165,D3,24.0,0.25,68,120.0
166,B-2,24.0,0.25,68,120.0
167,F3,24.0,0.25,68,120.0
168,B-3,24.5,0.25,66,120.0
169,B-2,24.5,0.25,60,120.0
170,A3,24.75,0.25,57,120.0
171,B-3,25.0,0.25,56,120.0
172,B-2,25.0,0.25,59,120.0
173,A3,25.25,0.25,54,120.0
174,C4,25.5,0.25,64,120.0
175,D3,25.5,0.25,57,120.0
176,B-3,25.75,0.25,53,120.0
177,E-4,26.0,0.25,51,120.0
178,F3,26.0,0.25,56,120.0
179,D4,26.25,0.25,51,120.0
180,G4,26.5,0.25,51,120.0
181,B-3,26.5,0.25,54,120.0
182,F4,26.75,0.25,50,120.0
183,B-4,27.0,0.25,60,120.0
184,D4,27.0,0.25,54,120.0
185,A4,27.25,0.25,51,120.0
186,C5,27.5,0.25,59,120.0
187,F4,27.5,0.25,54,120.0
188,B-4,27.75,0.25,50,120.0
189,E-5,28.0,0.25,50,120.0
190,G#4,28.0,0.25,52,120.0
191,B-4,28.0,0.25,52,120.0
192,D5,28.25,0.25,48,120.0
193,G5,28.5,0.25,57,120.0
194,B-4,28.5,0.25,50,120.0
195,G#4,28.5,0.25,50,120.0
196,F5,28.75,0.25,47,120.0
197,B-5,29.0,0.25,45,120.0
198,G#4,29.0,0.25,49,120.0
199,B-4,29.0,0.25,49,120.0
200,A5,29.25,0.25,45,120.0
201,C6,29.5,0.25,45,120.0
202,B-4,29.5,0.25,48,120.0
203,G#4,29.5,0.25,48,120.0
204,B-5,29.75,0.25,44,120.0
205,B-5,30.0,0.5,45,120.0
206,E-4,30.0,1.0,36,120.0
207,G4,30.0,1.0,36,120.0
208,B-4,30.0,1.0,36,120.0
209,G5,30.5,0.5,45,120.0
210,E-5,31.0,0.5,39,120.0
211,D5,31.5,0.5,45,120.0
212,F4,31.5,1.0,30,120.0
213,G#4,31.5,1.0,30,120.0
214,B-3,31.5,1.0,30,120.0
215,B-4,31.5,1.0,30,120.0
216,F5,32.0,0.5,40,120.0
217,B-5,32.5,0.375,40,120.0
218,B-5,33.0,0.5,45,120.0
219,E-4,33.0,1.0,36,120.0
220,B-4,33.0,1.0,36,120.0
221,G4,33.0,1.0,36,120.0
222,G5,33.5,0.5,41,120.0
223,E-5,34.0,0.375,41,120.0
224,E-5,34.5,0.5,45,120.0
225,G5,35.0,0.5,39,120.0
226,C6,35.5,0.375,51,120.0
227,E4,35.5,0.375,30,120.0
228,G4,35.5,0.375,30,120.0
229,B-4,35.5,0.375,30,120.0
230,C5,35.5,0.375,30,120.0
231,C6,36.0,0.5,57,120.0
232,G#4,36.0,1.0,36,120.0
233,F4,36.0,1.0,36,120.0
234,C5,36.0,1.0,36,120.0
235,G#5,36.5,0.5,45,120.0
236,F5,37.0,0.5,45,120.0
237,E5,37.5,0.5,49,120.0
238,C5,37.5,1.0,30,120.0
239,B-4,37.5,1.0,30,120.0
240,C4,37.5,1.0,30,120.0
241,G4,37.5,1.0,30,120.0
242,G5,38.0,0.5,44,120.0
243,C6,38.5,0.375,51,120.0
244,C6,39.0,0.5,60,120.0
245,F4,39.0,1.0,36,120.0
246,G#4,39.0,1.0,36,120.0
247,C5,39.0,1.0,36,120.0
248,G#5,39.5,0.5,45,120.0
249,F5,40.0,0.5,45,120.0
250,D5,40.5,0.5,51,120.0
251,F5,41.0,0.5,45,120.0
252,B-5,41.5,0.375,45,120.0
253,F4,41.5,0.375,32,120.0
254,D4,41.5,0.375,32,120.0
255,G#4,41.5,0.375,32,120.0
256,B-4,41.5,0.375,32,120.0
257,B-5,42.0,0.5,50,120.0
258,G4,42.0,1.0,35,120.0
259,B-4,42.0,1.0,35,120.0
260,E-4,42.0,1.0,35,120.0
261,G5,42.5,0.5,43,120.0
262,E-5,43.0,0.5,43,120.0
263,C5,43.5,0.5,45,120.0
264,G#3,43.5,1.0,31,120.0
265,C4,43.5,1.0,31,120.0
266,F4,43.5,1.0,31,120.0
267,F5,44.0,0.5,41,120.0
268,G#5,44.5,0.375,41,120.0
269,B-4,45.0,0.5,47,120.0
270,E-4,45.0,1.0,37,120.0
271,B-3,45.0,1.0,37,120.0
272,G4,45.0,1.0,37,120.0
273,E-5,45.5,0.5,43,120.0
274,G5,46.0,0.375,43,120.0
275,G#4,46.5,0.5,48,120.0
276,B-3,46.5,1.0,35,120.0
277,F4,46.5,1.0,35,120.0
278,D4,46.5,1.0,35,120.0
279,D5,47.0,0.5,43,120.0
280,B-3,47.5,0.375,39,120.0
281,F5,47.5,0.375,43,120.0
282,G#4,47.5,0.375,43,120.0
283,B-3,48.0,0.5,49,120.0
284,E-5,48.0,0.5,49,120.0
285,G4,48.0,0.5,49,120.0
286,G3,48.5,0.5,49,120.0
287,G5,49.0,0.5,49,120.0
288,E-3,49.0,0.5,42,120.0
289,G#5,49.5,0.25,49,120.0
290,D3,49.5,0.5,49,120.0
291,G5,49.75,0.25,45,120.0
292,G#5,50.0,0.25,49,120.0
293,F3,50.0,0.5,45,120.0
294,F5,50.25,0.25,44,120.0
295,B-5,50.5,0.25,49,120.0
296,B-3,50.5,0.375,45,120.0
297,G#5,50.75,0.25,44,120.0
298,G5,51.0,0.5,67,120.0
299,B-3,51.0,0.5,51,120.0
300,B-6,51.5,0.5,62,120.0
301,G3,51.5,0.5,47,120.0
302,E-3,52.0,0.375,47,120.0
303,E-3,52.5,0.5,52,120.0
304,G3,53.0,0.5,46,120.0
305,G4,53.5,0.375,49,120.0
306,E3,53.5,0.375,54,120.0
307,C4,53.5,0.375,54,120.0
308,C4,54.0,0.5,60,120.0
309,F3,54.0,0.5,60,120.0
310,G#3,54.5,0.5,53,120.0
311,G#4,55.0,0.5,49,120.0
312,F3,55.0,0.5,53,120.0
313,B-4,55.5,0.25,51,120.0
314,E3,55.5,0.5,59,120.0
315,G#4,55.75,0.25,41,120.0
316,B-4,56.0,0.25,49,120.0
317,G3,56.0,0.5,53,120.0
318,G4,56.25,0.25,42,120.0
319,C5,56.5,0.25,49,120.0
320,C4,56.5,0.375,58,120.0
321,B-4,56.75,0.25,47,120.0
322,G#4,57.0,0.5,69,120.0
323,C4,57.0,0.5,70,120.0
324,C6,57.5,0.5,61,120.0
325,G#3,57.5,0.5,56,120.0
326,F3,58.0,0.5,57,120.0
327,D3,58.5,0.5,64,120.0
328,F3,59.0,0.5,58,120.0
329,F5,59.5,0.375,55,120.0
330,D3,59.5,0.375,58,120.0
331,B-3,59.5,0.375,58,120.0
332,B-3,60.0,0.5,66,120.0
333,E-3,60.0,0.5,66,120.0
334,G3,60.5,0.5,56,120.0
335,G5,61.0,0.5,53,120.0
336,E-3,61.0,0.5,57,120.0
337,G#5,61.5,0.25,53,120.0
338,G#2,61.5,0.5,54,120.0
339,C3,61.5,0.5,54,120.0
340,G5,61.75,0.25,49,120.0
341,G#5,62.0,0.25,55,120.0
342,F3,62.0,0.5,55,120.0
343,F5,62.25,0.25,49,120.0
344,G#6,62.5,0.375,74,120.0
345,G#3,62.5,0.375,55,120.0
346,B-2,63.0,0.5,61,120.0
347,E-3,63.5,0.5,56,120.0
348,E-5,64.0,0.375,49,120.0
349,G3,64.0,0.375,56,120.0
350,F5,64.5,0.25,57,120.0
351,B-2,64.5,0.5,62,120.0
352,E-5,64.75,0.25,49,120.0
353,F5,65.0,0.25,56,120.0
354,D3,65.0,0.5,56,120.0
355,D5,65.25,0.25,49,120.0
356,F6,65.5,0.375,72,120.0
357,B-3,65.5,0.375,56,120.0
358,B-2,65.5,0.375,56,120.0
359,G4,66.0,0.25,81,120.0
360,B-2,66.0,0.5,63,120.0
361,G5,66.25,0.25,60,120.0
362,G4,66.5,0.25,69,120.0
363,G2,66.5,0.5,63,120.0
364,G5,66.75,0.25,59,120.0
365,B-4,67.0,0.25,67,120.0
366,E-2,67.0,0.5,55,120.0
367,B-5,67.25,0.25,59,120.0
368,B-4,67.5,0.25,77,120.0
369,D2,67.5,0.5,63,120.0
370,B-5,67.75,0.25,57,120.0
371,B-4,68.0,0.25,63,120.0
372,F2,68.0,0.5,57,120.0
373,B-5,68.25,0.25,56,120.0
374,G#4,68.5,0.25,63,120.0
375,B-2,68.5,0.375,57,120.0
376,G#5,68.75,0.25,56,120.0
377,G4,69.0,0.25,73,120.0
378,B-2,69.0,0.5,63,120.0
379,G5,69.25,0.25,60,120.0
380,G4,69.5,0.25,66,120.0
381,G2,69.5,0.5,58,120.0
382,G5,69.75,0.25,60,120.0
383,B-4,70.0,0.25,66,120.0
384,E-2,70.0,0.375,58,120.0
385,B-5,70.25,0.25,59,120.0
386,B-4,70.5,0.25,73,120.0
387,E-2,70.5,0.5,63,120.0
388,B-5,70.75,0.25,60,120.0
389,B-4,71.0,0.25,63,120.0
390,G2,71.0,0.5,55,120.0
391,B-5,71.25,0.25,55,120.0
392,G4,71.5,0.25,66,120.0
393,E2,71.5,0.375,64,120.0
394,C3,71.5,0.375,64,120.0
395,G5,71.75,0.25,60,120.0
396,G#4,72.0,0.25,73,120.0
397,C3,72.0,0.5,70,120.0
398,F2,72.0,0.5,70,120.0
399,G#5,72.25,0.25,53,120.0
400,G#4,72.5,0.25,61,120.0
401,G#2,72.5,0.5,63,120.0
402,G#5,72.75,0.25,53,120.0
403,C5,73.0,0.25,61,120.0
404,F2,73.0,0.5,63,120.0
405,C6,73.25,0.25,56,120.0
406,C5,73.5,0.25,73,120.0
407,E2,73.5,0.5,69,120.0
408,C6,73.75,0.25,53,120.0
409,C5,74.0,0.25,61,120.0
410,G2,74.0,0.5,62,120.0
411,C6,74.25,0.25,55,120.0
412,B-4,74.5,0.25,61,120.0
413,C3,74.5,0.375,73,120.0
414,B-5,74.75,0.25,53,120.0
415,G#4,75.0,0.25,73,120.0
416,C3,75.0,0.5,86,120.0
417,G#5,75.25,0.25,55,120.0
418,G#4,75.5,0.25,61,120.0
419,G#2,75.5,0.5,63,120.0
420,G#5,75.75,0.25,55,120.0
421,C5,76.0,0.25,61,120.0
422,F2,76.0,0.5,63,120.0
423,C6,76.25,0.25,55,120.0
424,C5,76.5,0.25,73,120.0
425,D2,76.5,0.5,72,120.0
426,C6,76.75,0.25,52,120.0
427,B-4,77.0,0.25,59,120.0
428,F2,77.0,0.5,63,120.0
429,B-5,77.25,0.25,52,120.0
430,G#4,77.5,0.25,59,120.0
431,D2,77.5,0.375,64,120.0
432,B-2,77.5,0.375,64,120.0
433,G#5,77.75,0.25,53,120.0
434,G4,78.0,0.25,73,120.0
435,E-2,78.0,0.5,72,120.0
436,B-2,78.0,0.5,72,120.0
437,G5,78.25,0.25,53,120.0
438,B-4,78.5,0.25,61,120.0
439,G2,78.5,0.5,60,120.0
440,B-5,78.75,0.25,55,120.0
441,E-5,79.0,0.25,61,120.0
442,E-2,79.0,0.5,60,120.0
443,E-6,79.25,0.25,55,120.0
444,E-5,79.5,0.25,73,120.0
445,G#1,79.5,1.0,53,120.0
446,C2,79.5,0.5,63,120.0
447,E-6,79.75,0.25,53,120.0
448,C5,80.0,0.25,60,120.0
449,F2,80.0,0.5,58,120.0
450,C6,80.25,0.25,53,120.0
451,G#4,80.5,0.25,60,120.0
452,G#2,80.5,0.375,63,120.0
453,G#5,80.75,0.25,53,120.0
454,E-5,81.0,0.25,73,120.0
455,B-1,81.0,0.5,69,120.0
456,E-6,81.25,0.25,56,120.0
457,B-4,81.5,0.25,62,120.0
458,E-2,81.5,0.5,58,120.0
459,B-5,81.75,0.25,55,120.0
460,G4,82.0,0.25,62,120.0
461,G2,82.0,0.375,58,120.0
462,G5,82.25,0.25,55,120.0
463,B-4,82.5,0.25,73,120.0
464,B-1,82.5,0.5,63,120.0
465,B-5,82.75,0.25,56,120.0
466,G#4,83.0,0.25,64,120.0
467,F2,83.0,0.5,57,120.0
468,G#5,83.25,0.25,57,120.0
469,F4,83.5,0.25,64,120.0
470,B-2,83.5,0.375,57,120.0
471,F5,83.75,0.25,58,120.0
472,G3,84.0,0.25,78,120.0
473,E-2,84.0,0.25,73,120.0
474,E-4,84.25,0.25,64,120.0
475,B-3,84.5,0.25,72,120.0
476,G3,84.5,0.25,56,120.0
477,E-3,84.5,0.25,56,120.0
478,G4,84.75,0.25,64,120.0
479,E-4,85.0,0.25,74,120.0
480,B-3,85.0,0.25,53,120.0
481,E-3,85.0,0.25,53,120.0
482,G3,85.0,0.25,53,120.0
483,B-4,85.25,0.25,64,120.0
484,G4,85.5,0.25,79,120.0
485,G3,85.5,0.25,52,120.0
486,E-4,85.5,0.25,52,120.0
487,B-3,85.5,0.25,52,120.0
488,E-3,85.5,0.25,52,120.0
489,E-5,85.75,0.25,64,120.0
490,B-4,86.0,0.25,70,120.0
491,E-3,86.0,0.25,52,120.0
492,E-4,86.0,0.25,52,120.0
493,B-3,86.0,0.25,52,120.0
494,G3,86.0,0.25,52,120.0
495,G5,86.25,0.25,64,120.0
496,E-5,86.5,0.25,71,120.0
497,B-3,86.5,0.25,52,120.0
498,E-4,86.5,0.25,52,120.0
499,E-3,86.5,0.25,52,120.0
500,G3,86.5,0.25,52,120.0
501,B-5,86.75,0.25,64,120.0
502,G5,87.0,0.25,79,120.0
503,E-4,87.0,0.25,60,120.0
504,G3,87.0,0.25,60,120.0
505,B-3,87.0,0.25,60,120.0
506,E-3,87.0,0.25,60,120.0
507,E-6,87.25,0.25,64,120.0
508,B-5,87.5,0.25,70,120.0
509,B-3,87.5,0.25,52,120.0
510,E-4,87.5,0.25,52,120.0
511,E-3,87.5,0.25,52,120.0
512,G3,87.5,0.25,52,120.0
513,G6,87.75,0.25,61,120.0
514,E-6,88.0,0.25,69,120.0
515,G3,88.0,0.25,52,120.0
516,E-4,88.0,0.25,52,120.0
517,B-3,88.0,0.25,52,120.0
518,E-3,88.0,0.25,52,120.0
519,B-6,88.25,0.25,62,120.0
520,A6,88.5,0.25,73,120.0
521,F3,88.5,0.25,52,120.0
522,D4,88.5,0.25,52,120.0
523,G#3,88.5,0.25,52,120.0
524,B-3,88.5,0.25,52,120.0
525,E-3,88.5,0.25,52,120.0
526,B-6,88.75,0.25,66,120.0
527,A6,89.0,0.25,70,120.0
528,F3,89.0,0.25,52,120.0
529,D4,89.0,0.25,52,120.0
530,B-3,89.0,0.25,52,120.0
531,G#3,89.0,0.25,52,120.0
532,E-3,89.0,0.25,52,120.0
533,B-6,89.25,0.25,64,120.0
534,A6,89.5,0.25,69,120.0
535,F3,89.5,0.25,52,120.0
536,D4,89.5,0.25,52,120.0
537,B-3,89.5,0.25,52,120.0
538,G#3,89.5,0.25,52,120.0
539,E-3,89.5,0.25,52,120.0
540,B-6,89.75,0.25,64,120.0
541,C7,90.0,0.25,77,120.0
542,E-3,90.0,0.25,61,120.0
543,E-4,90.0,0.25,61,120.0
544,B-3,90.0,0.25,61,120.0
545,G3,90.0,0.25,61,120.0
546,B-6,90.25,0.25,77,120.0
547,G#6,90.5,0.25,76,120.0
548,B-3,90.5,0.25,52,120.0
549,E-4,90.5,0.25,52,120.0
550,E-3,90.5,0.25,52,120.0
551,G3,90.5,0.25,52,120.0
552,G6,90.75,0.25,75,120.0
553,F6,91.0,0.25,74,120.0
554,E-4,91.0,0.25,52,120.0
555,G3,91.0,0.25,52,120.0
556,B-3,91.0,0.25,52,120.0
557,E-3,91.0,0.25,52,120.0
558,E-6,91.25,0.25,74,120.0
559,D6,91.5,0.25,72,120.0
560,B-3,91.5,0.25,52,120.0
561,E-4,91.5,0.25,52,120.0
562,E-3,91.5,0.25,52,120.0
563,G3,91.5,0.25,52,120.0
564,C6,91.75,0.25,65,120.0
565,B-5,92.0,0.25,65,120.0
566,G3,92.0,0.25,52,120.0
567,E-4,92.0,0.25,52,120.0
568,B-3,92.0,0.25,52,120.0
569,E-3,92.0,0.25,52,120.0
570,G#5,92.25,0.25,65,120.0
571,G5,92.5,0.25,65,120.0
572,E-3,92.5,0.25,52,120.0
573,E-4,92.5,0.25,52,120.0
574,B-3,92.5,0.25,52,120.0
575,G3,92.5,0.25,52,120.0
576,F5,92.75,0.25,65,120.0
577,E-5,93.0,0.25,70,120.0
578,B-3,93.0,0.25,58,120.0
579,E-4,93.0,0.25,58,120.0
580,E-3,93.0,0.25,58,120.0
581,G3,93.0,0.25,58,120.0
582,D5,93.25,0.25,69,120.0
583,C5,93.5,0.25,68,120.0
584,E-4,93.5,0.25,51,120.0
585,G3,93.5,0.25,51,120.0
586,B-3,93.5,0.25,51,120.0
587,E-3,93.5,0.25,51,120.0
588,B-4,93.75,0.25,68,120.0
589,G#4,94.0,0.25,67,120.0
590,B-3,94.0,0.25,51,120.0
591,E-4,94.0,0.25,51,120.0
592,E-3,94.0,0.25,51,120.0
593,G3,94.0,0.25,51,120.0
594,G4,94.25,0.25,66,120.0
595,F4,94.5,0.25,64,120.0
596,F3,94.5,0.25,51,120.0
597,B-3,94.5,0.25,51,120.0
598,G#3,94.5,0.25,51,120.0
599,E-3,94.5,0.25,51,120.0
600,E-4,94.75,0.25,59,120.0
601,D4,95.0,0.25,64,120.0
602,E-3,95.0,0.25,51,120.0
603,B-3,95.0,0.25,51,120.0
604,G#3,95.0,0.25,51,120.0
605,F3,95.0,0.25,51,120.0
606,F4,95.25,0.25,60,120.0
607,G#4,95.5,0.25,69,120.0
608,G#3,95.5,0.25,51,120.0
609,B-3,95.5,0.25,51,120.0
610,E-3,95.5,0.25,51,120.0
611,F3,95.5,0.25,51,120.0
612,D4,95.75,0.25,63,120.0
613,G3,96.0,0.25,78,120.0
614,E-2,96.0,0.25,73,120.0
615,E-4,96.25,0.25,64,120.0
616,B-3,96.5,0.25,72,120.0
617,E-3,96.5,0.25,56,120.0
618,G3,96.5,0.25,56,120.0
619,G4,96.75,0.25,64,120.0
620,E-4,97.0,0.25,74,120.0
621,E-3,97.0,0.25,53,120.0
622,B-3,97.0,0.25,53,120.0
623,G3,97.0,0.25,53,120.0
624,B-4,97.25,0.25,64,120.0
625,G4,97.5,0.25,79,120.0
626,B-3,97.5,0.25,52,120.0
627,E-4,97.5,0.25,52,120.0
628,E-3,97.5,0.25,52,120.0
629,G3,97.5,0.25,52,120.0
630,E-5,97.75,0.25,64,120.0
631,B-4,98.0,0.25,70,120.0
632,E-4,98.0,0.25,52,120.0
633,G3,98.0,0.25,52,120.0
634,B-3,98.0,0.25,52,120.0
635,E-3,98.0,0.25,52,120.0
636,G5,98.25,0.25,64,120.0
637,E-5,98.5,0.25,71,120.0
638,B-3,98.5,0.25,52,120.0
639,E-4,98.5,0.25,52,120.0
640,E-3,98.5,0.25,52,120.0
641,G3,98.5,0.25,52,120.0
642,B-5,98.75,0.25,64,120.0
643,G5,99.0,0.25,79,120.0
644,G3,99.0,0.25,60,120.0
645,E-4,99.0,0.25,60,120.0
646,B-3,99.0,0.25,60,120.0
647,E-3,99.0,0.25,60,120.0
648,E-6,99.25,0.25,64,120.0
649,B-5,99.5,0.25,70,120.0
650,B-3,99.5,0.25,52,120.0
651,E-3,99.5,0.25,52,120.0
652,G3,99.5,0.25,52,120.0
653,E-4,99.5,0.25,52,120.0
654,G6,99.75,0.25,61,120.0
655,E-6,100.0,0.25,69,120.0
656,G3,100.0,0.25,52,120.0
657,E-3,100.0,0.25,52,120.0
658,B-3,100.0,0.25,52,120.0
659,E-4,100.0,0.25,52,120.0
660,B-6,100.25,0.25,62,120.0
661,A6,100.5,0.25,73,120.0
662,D4,100.5,0.25,52,120.0
663,F3,100.5,0.25,52,120.0
664,E-3,100.5,0.25,52,120.0
665,B-3,100.5,0.25,52,120.0
666,G#3,100.5,0.25,52,120.0
667,B-6,100.75,0.25,66,120.0
668,A6,101.0,0.25,70,120.0
669,D4,101.0,0.25,52,120.0
670,F3,101.0,0.25,52,120.0
671,E-3,101.0,0.25,52,120.0
672,G#3,101.0,0.25,52,120.0
673,B-3,101.0,0.25,52,120.0
674,B-6,101.25,0.25,64,120.0
675,A6,101.5,0.25,69,120.0
676,D4,101.5,0.25,52,120.0
677,F3,101.5,0.25,52,120.0
678,E-3,101.5,0.25,52,120.0
679,G#3,101.5,0.25,52,120.0
680,B-3,101.5,0.25,52,120.0
681,B-6,101.75,0.25,64,120.0
682,C7,102.0,0.25,77,120.0
683,E-4,102.0,0.25,61,120.0
684,E-3,102.0,0.25,61,120.0
685,B-3,102.0,0.25,61,120.0
686,G3,102.0,0.25,61,120.0
687,B-6,102.25,0.25,77,120.0
688,G#6,102.5,0.25,76,120.0
689,E-4,102.5,0.25,52,120.0
690,B-3,102.5,0.25,52,120.0
691,E-3,102.5,0.25,52,120.0
692,G3,102.5,0.25,52,120.0
693,G6,102.75,0.25,75,120.0
694,F6,103.0,0.25,74,120.0
695,E-4,103.0,0.25,52,120.0
696,B-3,103.0,0.25,52,120.0
697,G3,103.0,0.25,52,120.0
698,E-3,103.0,0.25,52,120.0
699,E-6,103.25,0.25,74,120.0
700,D6,103.5,0.25,72,120.0
701,B-3,103.5,0.25,52,120.0
702,E-3,103.5,0.25,52,120.0
703,G3,103.5,0.25,52,120.0
704,E-4,103.5,0.25,52,120.0
705,C6,103.75,0.25,65,120.0
706,B-5,104.0,0.25,65,120.0
707,G3,104.0,0.25,52,120.0
708,E-3,104.0,0.25,52,120.0
709,B-3,104.0,0.25,52,120.0
710,E-4,104.0,0.25,52,120.0
711,G#5,104.25,0.25,65,120.0
712,G5,104.5,0.25,65,120.0
713,E-4,104.5,0.25,52,120.0
714,E-3,104.5,0.25,52,120.0
715,B-3,104.5,0.25,52,120.0
716,G3,104.5,0.25,52,120.0
717,F5,104.75,0.25,65,120.0
718,E-5,105.0,0.169,70,120.0
719,G3,105.0,0.25,60,120.0
720,E-3,105.0,0.25,60,120.0
721,B-3,105.0,0.25,60,120.0
722,D5,105.169,0.167,69,120.0
723,C5,105.333,0.167,68,120.0
724,B-4,105.5,0.167,68,120.0
725,B-3,105.5,0.25,52,120.0
726,G3,105.5,0.25,52,120.0
727,E-3,105.5,0.25,52,120.0
728,G#4,105.667,0.167,67,120.0
729,G4,105.833,0.167,66,120.0
730,F4,106.0,0.167,64,120.0
731,G3,106.0,0.25,52,120.0
732,B-3,106.0,0.25,52,120.0
733,E-3,106.0,0.25,52,120.0
734,E-4,106.167,0.167,59,120.0
735,D4,106.333,0.167,55,120.0
736,C4,106.5,0.25,62,120.0
737,F3,106.5,0.25,54,120.0
738,E-3,106.5,0.25,54,120.0
739,B-3,106.75,0.25,54,120.0
740,A3,107.0,0.25,60,120.0
741,E-3,107.0,0.25,52,120.0
742,F3,107.0,0.25,52,120.0
743,F2,107.0,0.25,52,120.0
744,C4,107.25,0.25,54,120.0
745,E-4,107.5,0.25,64,120.0
746,F3,107.5,0.25,52,120.0
747,F2,107.5,0.25,52,120.0
748,E-3,107.5,0.25,52,120.0
749,A3,107.75,0.25,54,120.0
750,B-3,108.0,0.5,95,120.0
751,B-1,108.0,0.5,80,120.0
752,B-2,108.0,0.5,80,120.0
753,B-4,109.5,0.5,89,120.0
754,B-3,109.5,0.5,75,120.0
755,C#5,111.0,0.5,96,120.0
756,C#4,111.0,0.5,81,120.0
757,F#5,112.5,0.5,88,120.0
758,F#4,112.5,0.5,74,120.0
759,C#5,114.0,0.5,94,120.0
760,C#4,114.0,0.5,79,120.0
761,B-4,115.5,0.5,88,120.0
762,B-3,115.5,0.5,74,120.0
763,F#4,117.0,0.5,93,120.0
764,F#3,117.0,0.5,78,120.0
765,C#4,118.5,0.5,82,120.0
766,C#3,118.5,0.5,70,120.0
767,A3,120.0,0.5,95,120.0
768,A2,120.0,0.5,80,120.0
769,A1,120.0,0.5,80,120.0
770,A4,121.5,0.5,89,120.0
771,A3,121.5,0.5,75,120.0
772,C5,123.0,0.5,96,120.0
773,C4,123.0,0.5,81,120.0
774,F5,124.5,0.5,88,120.0
775,F4,124.5,0.5,74,120.0
776,C5,126.0,0.5,94,120.0
777,C4,126.0,0.5,79,120.0
778,A4,127.5,0.5,88,120.0
779,A3,127.5,0.5,74,120.0
780,F4,129.0,0.5,93,120.0
781,F3,129.0,0.5,78,120.0
782,C4,130.5,0.5,82,120.0
783,C3,130.5,0.5,70,120.0
784,C#5,132.0,0.25,55,120.0
785,C#4,132.0,0.25,36,120.0
786,F#4,132.0,0.25,36,120.0
787,B-3,132.0,0.25,36,120.0
788,B-3,132.5,0.25,31,120.0
789,C#4,132.5,0.25,31,120.0
790,F#4,132.5,0.25,31,120.0
791,C6,132.875,0.125,51,120.0
792,B-5,133.0,0.25,57,120.0
793,C#4,133.0,0.25,31,120.0
794,B-3,133.0,0.25,31,120.0
795,F#4,133.0,0.25,31,120.0
796,A5,133.25,0.25,52,120.0
797,B-5,133.5,0.25,57,120.0
798,B-3,133.5,0.25,31,120.0
799,F#4,133.5,0.25,31,120.0
800,C#4,133.5,0.25,31,120.0
801,B-3,134.0,0.25,32,120.0
802,C#4,134.0,0.25,32,120.0
803,F#4,134.0,0.25,32,120.0
804,E-6,134.375,0.125,53,120.0
805,C#6,134.5,0.25,59,120.0
806,C#4,134.5,0.25,32,120.0
807,F#4,134.5,0.25,32,120.0
808,B-3,134.5,0.25,32,120.0
809,C6,134.75,0.25,52,120.0
810,C#6,135.0,0.25,63,120.0
811,B-3,135.0,0.25,38,120.0
812,C#4,135.0,0.25,38,120.0
813,F#4,135.0,0.25,38,120.0
814,C#4,135.5,0.25,33,120.0
815,B-3,135.5,0.25,33,120.0
816,F#4,135.5,0.25,33,120.0
817,G#6,135.875,0.125,54,120.0
818,F#6,136.0,0.25,60,120.0
819,B-3,136.0,0.25,33,120.0
820,F#4,136.0,0.25,33,120.0
821,C#4,136.0,0.25,33,120.0
822,F6,136.25,0.25,55,120.0
823,F#6,136.5,0.25,61,120.0
824,B-3,136.5,0.25,33,120.0
825,C#4,136.5,0.25,33,120.0
826,F#4,136.5,0.25,33,120.0
827,C#4,137.0,0.25,31,120.0
828,F#4,137.0,0.25,31,120.0
829,B-3,137.0,0.25,31,120.0
830,E-6,137.375,0.125,51,120.0
831,C#6,137.5,0.25,57,120.0
832,B-3,137.5,0.25,31,120.0
833,C#4,137.5,0.25,31,120.0
834,F#4,137.5,0.25,31,120.0
835,C6,137.75,0.25,50,120.0
836,C#6,138.0,0.25,60,120.0
837,C#4,138.0,0.25,36,120.0
838,B-3,138.0,0.25,36,120.0
839,F#4,138.0,0.25,36,120.0
840,B-3,138.5,0.25,31,120.0
841,F#4,138.5,0.25,31,120.0
842,C#4,138.5,0.25,31,120.0
843,C6,138.875,0.125,51,120.0
844,B-5,139.0,0.25,56,120.0
845,B-3,139.0,0.25,31,120.0
846,C#4,139.0,0.25,31,120.0
847,F#4,139.0,0.25,31,120.0
848,A5,139.25,0.25,51,120.0
849,B-5,139.5,0.25,56,120.0
850,C#4,139.5,0.25,31,120.0
851,F#4,139.5,0.25,31,120.0
852,B-3,139.5,0.25,31,120.0
853,B-3,140.0,0.25,31,120.0
854,C#4,140.0,0.25,31,120.0
855,F#4,140.0,0.25,31,120.0
856,G#5,140.375,0.125,51,120.0
857,F#5,140.5,0.25,57,120.0
858,C#4,140.5,0.25,31,120.0
859,B-3,140.5,0.25,31,120.0
860,F#4,140.5,0.25,31,120.0
861,F5,140.75,0.25,50,120.0
862,F#5,141.0,0.25,60,120.0
863,B-3,141.0,0.25,36,120.0
864,F#4,141.0,0.25,36,120.0
865,C#4,141.0,0.25,36,120.0
866,B-3,141.5,0.25,31,120.0
867,C#4,141.5,0.25,31,120.0
868,F#4,141.5,0.25,31,120.0
869,E-5,141.875,0.125,51,120.0
870,C#5,142.0,0.25,56,120.0
871,C#4,142.0,0.25,31,120.0
872,F#4,142.0,0.25,31,120.0
873,B-3,142.0,0.25,31,120.0
874,C5,142.25,0.25,51,120.0
875,C#5,142.5,1.0,56,120.0
876,B-3,142.5,0.25,31,120.0
877,C#4,142.5,0.25,31,120.0
878,F#4,142.5,0.25,31,120.0
879,C#4,143.0,0.25,31,120.0
880,B-3,143.0,0.25,31,120.0
881,F#4,143.0,0.25,31,120.0
882,B-3,143.5,0.25,31,120.0
883,E4,143.5,0.25,31,120.0
884,C#4,143.5,0.25,31,120.0
885,C5,144.0,0.25,55,120.0
886,A3,144.0,0.25,36,120.0
887,C4,144.0,0.25,36,120.0
888,F4,144.0,0.25,36,120.0
889,C4,144.5,0.25,31,120.0
890,F4,144.5,0.25,31,120.0
891,A3,144.5,0.25,31,120.0
892,B-5,144.875,0.125,51,120.0
893,A5,145.0,0.25,57,120.0
894,F4,145.0,0.25,31,120.0
895,A3,145.0,0.25,31,120.0
896,C4,145.0,0.25,31,120.0
897,G5,145.25,0.25,52,120.0
898,A5,145.5,0.25,57,120.0
899,A3,145.5,0.25,31,120.0
900,C4,145.5,0.25,31,120.0
901,F4,145.5,0.25,31,120.0
902,C4,146.0,0.25,32,120.0
903,A3,146.0,0.25,32,120.0
904,F4,146.0,0.25,32,120.0
905,D6,146.375,0.125,53,120.0
906,C6,146.5,0.25,59,120.0
907,A3,146.5,0.25,32,120.0
908,F4,146.5,0.25,32,120.0
909,C4,146.5,0.25,32,120.0
910,B5,146.75,0.25,52,120.0
911,C6,147.0,0.25,63,120.0
912,A3,147.0,0.25,38,120.0
913,C4,147.0,0.25,38,120.0
914,F4,147.0,0.25,38,120.0
915,F4,147.5,0.25,33,120.0
916,A3,147.5,0.25,33,120.0
917,C4,147.5,0.25,33,120.0
918,F#6,147.875,0.125,55,120.0
919,F6,148.0,0.25,60,120.0
920,A3,148.0,0.25,33,120.0
921,C4,148.0,0.25,33,120.0
922,F4,148.0,0.25,33,120.0
923,E6,148.25,0.25,55,120.0
924,F6,148.5,0.25,61,120.0
925,C4,148.5,0.25,33,120.0
926,A3,148.5,0.25,33,120.0
927,F4,148.5,0.25,33,120.0
928,A3,149.0,0.25,31,120.0
929,F4,149.0,0.25,31,120.0
930,C4,149.0,0.25,31,120.0
931,C#6,149.375,0.125,51,120.0
932,C6,149.5,0.25,57,120.0
933,A3,149.5,0.25,31,120.0
934,C4,149.5,0.25,31,120.0
935,F4,149.5,0.25,31,120.0
936,B5,149.75,0.25,50,120.0
937,C6,150.0,0.25,60,120.0
938,F4,150.0,0.25,36,120.0
939,A3,150.0,0.25,36,120.0
940,C4,150.0,0.25,36,120.0
941,A3,150.5,0.25,31,120.0
942,C4,150.5,0.25,31,120.0
943,F4,150.5,0.25,31,120.0
944,B-5,150.875,0.125,51,120.0
945,A5,151.0,0.25,56,120.0
946,C4,151.0,0.25,31,120.0
947,A3,151.0,0.25,31,120.0
948,F4,151.0,0.25,31,120.0
949,G5,151.25,0.25,51,120.0
950,A5,151.5,0.25,56,120.0
951,A3,151.5,0.25,31,120.0
952,F4,151.5,0.25,31,120.0
953,C4,151.5,0.25,31,120.0
954,A3,152.0,0.25,31,120.0
955,C4,152.0,0.25,31,120.0
956,F4,152.0,0.25,31,120.0
957,F#5,152.375,0.125,51,120.0
958,F5,152.5,0.25,57,120.0
959,F4,152.5,0.25,31,120.0
960,A3,152.5,0.25,31,120.0
961,C4,152.5,0.25,31,120.0
962,E5,152.75,0.25,50,120.0
963,F5,153.0,0.25,60,120.0
964,C4,153.0,0.25,36,120.0
965,A3,153.0,0.25,36,120.0
966,F4,153.0,0.25,36,120.0
967,C4,153.5,0.25,31,120.0
968,A3,153.5,0.25,31,120.0
969,F4,153.5,0.25,31,120.0
970,C#5,153.875,0.125,51,120.0
971,C5,154.0,0.25,56,120.0
972,A3,154.0,0.25,31,120.0
973,C4,154.0,0.25,31,120.0
974,F4,154.0,0.25,31,120.0
975,B4,154.25,0.25,51,120.0
976,C5,154.5,0.5,56,120.0
977,A3,154.5,0.5,31,120.0
978,C4,154.5,0.5,31,120.0
979,F4,154.5,0.5,31,120.0
980,F3,155.0,0.5,35,120.0
981,C#5,155.5,0.5,61,120.0
982,E-3,155.5,0.5,35,120.0
983,D5,156.0,1.5,56,120.0
984,F4,156.0,0.25,35,120.0
985,B-2,156.0,3.0,40,120.0
986,D3,156.0,1.0,40,120.0
987,G4,156.25,0.25,31,120.0
988,F4,156.5,0.25,35,120.0
989,G4,156.75,0.25,31,120.0
990,F4,157.0,0.25,34,120.0
991,G3,157.0,0.5,33,120.0
992,G4,157.25,0.25,31,120.0
993,F4,157.5,0.25,36,120.0
994,B-4,157.5,1.5,55,120.0
995,F3,157.5,1.0,42,120.0
996,G4,157.75,0.25,32,120.0
997,F4,158.0,0.25,36,120.0
998,G4,158.25,0.25,31,120.0
999,F4,158.5,0.25,37,120.0
1000,D3,158.5,0.5,39,120.0
1001,G4,158.75,0.25,31,120.0
1002,F4,159.0,0.25,37,120.0
1003,A4,159.0,1.5,59,120.0
1004,F2,159.0,3.0,42,120.0
1005,C3,159.0,1.0,42,120.0
1006,G4,159.25,0.25,33,120.0
1007,F4,159.5,0.25,37,120.0
1008,G4,159.75,0.25,33,120.0
1009,F4,160.0,0.25,37,120.0
1010,G3,160.0,0.5,36,120.0
1011,G4,160.25,0.25,34,120.0
1012,F4,160.5,0.25,38,120.0
1013,E-5,160.5,1.5,59,120.0
1014,F3,160.5,1.0,45,120.0
1015,G4,160.75,0.25,34,120.0
1016,F4,161.0,0.25,39,120.0
1017,G4,161.25,0.25,33,120.0
1018,F4,161.5,0.25,39,120.0
1019,C3,161.5,0.5,41,120.0
1020,G4,161.75,0.25,34,120.0
1021,F4,162.0,0.25,40,120.0
1022,D5,162.0,1.5,64,120.0
1023,B-2,162.0,3.0,46,120.0
1024,D3,162.0,1.0,46,120.0
1025,G4,162.25,0.25,35,120.0
1026,F4,162.5,0.25,39,120.0
1027,G4,162.75,0.25,35,120.0
1028,F4,163.0,0.25,38,120.0
1029,G3,163.0,0.5,37,120.0
1030,G4,163.25,0.25,34,120.0
1031,F4,163.5,0.25,39,120.0
1032,B-4,163.5,1.5,60,120.0
1033,F3,163.5,1.0,45,120.0
1034,G4,163.75,0.25,34,120.0
1035,F4,164.0,0.25,38,120.0
1036,G4,164.25,0.25,33,120.0
1037,F4,164.5,0.25,38,120.0
1038,D3,164.5,0.5,40,120.0
1039,G4,164.75,0.25,32,120.0
1040,F4,165.0,0.25,37,120.0
1041,A4,165.0,1.5,60,120.0
1042,F2,165.0,3.0,43,120.0
1043,C3,165.0,1.0,43,120.0
1044,G4,165.25,0.25,33,120.0
1045,F4,165.5,0.25,37,120.0
1046,G4,165.75,0.25,32,120.0
1047,F4,166.0,0.25,35,120.0
1048,G3,166.0,0.5,34,120.0
1049,G4,166.25,0.25,32,120.0
1050,F4,166.5,0.25,36,120.0
1051,E-5,166.5,1.5,56,120.0
1052,F3,166.5,1.0,42,120.0
1053,G4,166.75,0.25,32,120.0
1054,F4,167.0,0.25,36,120.0
1055,G4,167.25,0.25,30,120.0
1056,F4,167.5,0.25,35,120.0
1057,C3,167.5,0.5,37,120.0
1058,G4,167.75,0.25,30,120.0
1059,D5,168.0,0.25,51,120.0
1060,D3,168.0,0.25,37,120.0
1061,B-2,168.0,0.25,37,120.0
1062,F5,168.25,0.25,45,120.0
1063,G5,168.5,0.167,48,120.0
1064,D3,168.5,0.25,31,120.0
1065,F3,168.5,0.25,31,120.0
1066,B-3,168.5,0.25,31,120.0
1067,A5,168.667,0.167,50,120.0
1068,B-5,168.833,0.167,52,120.0
1069,C6,169.0,0.167,54,120.0
1070,D3,169.0,0.25,31,120.0
1071,F3,169.0,0.25,31,120.0
1072,B-3,169.0,0.25,31,120.0
1073,D6,169.167,0.167,56,120.0
1074,E-6,169.333,0.167,59,120.0
1075,F6,169.5,0.25,61,120.0
1076,D3,169.5,0.25,31,120.0
1077,F3,169.5,0.25,31,120.0
1078,B-3,169.5,0.25,31,120.0
1079,E-6,169.75,0.25,60,120.0
1080,D6,170.0,0.25,58,120.0
1081,D3,170.0,0.25,31,120.0
1082,F3,170.0,0.25,31,120.0
1083,B-3,170.0,0.25,31,120.0
1084,C6,170.25,0.25,57,120.0
1085,B-5,170.5,0.25,55,120.0
1086,D3,170.5,0.25,31,120.0
1087,F3,170.5,0.25,31,120.0
1088,B-3,170.5,0.25,31,120.0
1089,A5,170.75,0.25,54,120.0
1090,G5,171.0,0.25,51,120.0
1091,A5,171.25,0.25,45,120.0
1092,B-5,171.5,0.25,48,120.0
1093,E-3,171.5,0.25,31,120.0
1094,G3,171.5,0.25,31,120.0
1095,B-3,171.5,0.25,31,120.0
1096,C6,171.75,0.25,50,120.0
1097,D6,172.0,0.167,54,120.0
1098,E-3,172.0,0.25,31,120.0
1099,G3,172.0,0.25,31,120.0
1100,B-3,172.0,0.25,31,120.0
1101,E-6,172.167,0.167,56,120.0
1102,F6,172.333,0.167,59,120.0
1103,G6,172.5,0.25,61,120.0
1104,E-3,172.5,0.25,31,120.0
1105,G3,172.5,0.25,31,120.0
1106,B-3,172.5,0.25,31,120.0
1107,F6,172.75,0.25,60,120.0
1108,E-6,173.0,0.167,58,120.0
1109,E-3,173.0,0.25,31,120.0
1110,G3,173.0,0.25,31,120.0
1111,B-3,173.0,0.25,31,120.0
1112,D6,173.167,0.167,57,120.0
1113,C6,173.333,0.167,56,120.0
1114,B-5,173.5,0.167,55,120.0
1115,E-3,173.5,0.25,31,120.0
1116,G3,173.5,0.25,31,120.0
1117,C4,173.5,0.25,31,120.0
1118,A5,173.667,0.167,54,120.0
1119,G5,173.833,0.167,53,120.0
1120,F5,174.0,0.25,57,120.0
1121,D6,174.25,0.25,49,120.0
1122,B-5,174.5,0.25,59,120.0
1123,F3,174.5,0.25,31,120.0
1124,B-3,174.5,0.25,31,120.0
1125,D4,174.5,0.25,31,120.0
1126,F6,174.75,0.25,55,120.0
1127,D6,175.0,0.25,62,120.0
1128,F3,175.0,0.25,31,120.0
1129,B-3,175.0,0.25,31,120.0
1130,D4,175.0,0.25,31,120.0
1131,B-6,175.25,0.25,57,120.0
1132,F6,175.5,0.167,62,120.0
1133,F3,175.5,0.25,31,120.0
1134,B-3,175.5,0.25,31,120.0
1135,D4,175.5,0.25,31,120.0
1136,D7,175.667,0.167,57,120.0
1137,B-6,175.833,0.167,55,120.0
1138,F7,176.0,0.167,61,120.0
1139,F3,176.0,0.25,31,120.0
1140,B-3,176.0,0.25,31,120.0
1141,D4,176.0,0.25,31,120.0
1142,D7,176.167,0.167,53,120.0
1143,B-6,176.333,0.167,54,120.0
1144,F6,176.5,0.167,59,120.0
1145,F3,176.5,0.25,31,120.0
1146,B-3,176.5,0.25,31,120.0
1147,D4,176.5,0.25,31,120.0
1148,D6,176.667,0.167,53,120.0
1149,B-5,176.833,0.167,53,120.0
1150,F5,177.0,1.0,59,120.0
1151,D4,177.0,0.25,31,120.0
1152,F3,177.0,0.25,31,120.0
1153,B-3,177.0,0.25,31,120.0
1154,F3,177.5,0.25,31,120.0
1155,B-3,177.5,0.25,31,120.0
1156,D4,177.5,0.25,31,120.0
1157,D4,178.0,0.25,31,120.0
1158,B-3,178.0,0.25,31,120.0
1159,F3,178.0,0.25,31,120.0
1160,C6,178.5,0.167,59,120.0
1161,F3,178.5,0.25,31,120.0
1162,A3,178.5,0.25,31,120.0
1163,E-4,178.5,0.25,31,120.0
1164,D6,178.667,0.167,52,120.0
1165,C6,178.833,0.167,59,120.0
1166,D6,179.0,0.167,54,120.0
1167,F3,179.0,0.25,31,120.0
1168,A3,179.0,0.25,31,120.0
1169,E-4,179.0,0.25,31,120.0
1170,C6,179.167,0.167,59,120.0
1171,D6,179.333,0.167,53,120.0
1172,C6,179.5,0.167,59,120.0
1173,F3,179.5,0.25,31,120.0
1174,A3,179.5,0.25,31,120.0
1175,E-4,179.5,0.25,31,120.0
1176,D6,179.667,0.167,53,120.0
1177,C6,179.833,0.167,56,120.0
1178,D6,180.0,1.5,61,120.0
1179,F5,180.0,0.25,41,120.0
1180,B-3,180.0,3.0,40,120.0
1181,D4,180.0,1.0,40,120.0
1182,G5,180.25,0.25,31,120.0
1183,F5,180.5,0.25,35,120.0
1184,G5,180.75,0.25,31,120.0
1185,F5,181.0,0.25,34,120.0
1186,G4,181.0,0.5,33,120.0
1187,G5,181.25,0.25,31,120.0
1188,F5,181.5,0.25,36,120.0
1189,B-5,181.5,1.5,55,120.0
1190,F4,181.5,1.0,42,120.0
1191,G5,181.75,0.25,32,120.0
1192,F5,182.0,0.25,36,120.0
1193,G5,182.25,0.25,31,120.0
1194,F5,182.5,0.25,37,120.0
1195,D4,182.5,0.5,39,120.0
1196,G5,182.75,0.25,31,120.0
1197,F5,183.0,0.25,37,120.0
1198,A5,183.0,1.5,59,120.0
1199,F3,183.0,3.0,42,120.0
1200,C4,183.0,1.0,42,120.0
1201,G5,183.25,0.25,33,120.0
1202,F5,183.5,0.25,37,120.0
1203,G5,183.75,0.25,33,120.0
1204,F5,184.0,0.25,37,120.0
1205,G4,184.0,0.5,36,120.0
1206,G5,184.25,0.25,34,120.0
1207,F5,184.5,0.25,38,120.0
1208,E-6,184.5,1.5,59,120.0
1209,F4,184.5,1.0,45,120.0
1210,G5,184.75,0.25,34,120.0
1211,F5,185.0,0.25,39,120.0
1212,G5,185.25,0.25,33,120.0
1213,F5,185.5,0.25,39,120.0
1214,C4,185.5,0.5,41,120.0
1215,G5,185.75,0.25,34,120.0
1216,F5,186.0,0.25,40,120.0
1217,D6,186.0,1.5,64,120.0
1218,B-3,186.0,3.0,46,120.0
1219,D4,186.0,1.0,46,120.0
1220,G5,186.25,0.25,35,120.0
1221,F5,186.5,0.25,39,120.0
1222,G5,186.75,0.25,35,120.0
1223,F5,187.0,0.25,38,120.0
1224,G4,187.0,0.5,37,120.0
1225,G5,187.25,0.25,34,120.0
1226,B-5,187.5,1.5,60,120.0
1227,F5,187.5,0.25,39,120.0
1228,F4,187.5,1.0,45,120.0
1229,G5,187.75,0.25,34,120.0
1230,F5,188.0,0.25,38,120.0
1231,G5,188.25,0.25,33,120.0
1232,F5,188.5,0.25,38,120.0
1233,D4,188.5,0.5,40,120.0
1234,G5,188.75,0.25,32,120.0
1235,F5,189.0,0.25,37,120.0
1236,A5,189.0,1.5,60,120.0
1237,F3,189.0,3.0,43,120.0
1238,C4,189.0,1.0,43,120.0
1239,G5,189.25,0.25,33,120.0
1240,F5,189.5,0.25,37,120.0
1241,G5,189.75,0.25,32,120.0
1242,F5,190.0,0.25,35,120.0
1243,G4,190.0,0.5,34,120.0
1244,G5,190.25,0.25,32,120.0
1245,E-6,190.5,1.5,56,120.0
1246,F5,190.5,0.25,36,120.0
1247,F4,190.5,1.0,42,120.0
1248,G5,190.75,0.25,32,120.0
1249,F5,191.0,0.25,36,120.0
1250,G5,191.25,0.25,30,120.0
1251,F5,191.5,0.25,35,120.0
1252,C4,191.5,0.5,37,120.0
1253,G5,191.75,0.25,30,120.0
1254,D4,192.0,0.25,51,120.0
1255,F4,192.0,0.25,51,120.0
1256,G4,192.25,0.25,45,120.0
1257,A4,192.5,0.25,50,120.0
1258,D6,192.5,0.25,45,120.0
1259,B-5,192.5,0.25,45,120.0
1260,B-4,192.75,0.25,52,120.0
1261,C5,193.0,0.167,54,120.0
1262,D6,193.0,0.25,45,120.0
1263,B-5,193.0,0.25,45,120.0
1264,D5,193.167,0.167,56,120.0
1265,E-5,193.333,0.167,59,120.0
1266,F5,193.5,0.25,61,120.0
1267,D6,193.5,0.25,48,120.0
1268,B-5,193.5,0.25,48,120.0
1269,E-5,193.75,0.25,60,120.0
1270,D5,194.0,0.25,58,120.0
1271,D6,194.0,0.25,42,120.0
1272,B-5,194.0,0.25,42,120.0
1273,C5,194.25,0.25,57,120.0
1274,B-4,194.5,0.25,55,120.0
1275,D6,194.5,0.25,42,120.0
1276,B-5,194.5,0.25,42,120.0
1277,A4,194.75,0.25,54,120.0
1278,E-4,195.0,0.25,51,120.0
1279,G4,195.0,0.25,51,120.0
1280,A4,195.25,0.25,45,120.0
1281,B-4,195.5,0.25,48,120.0
1282,C6,195.5,0.25,45,120.0
1283,B-5,195.5,0.25,45,120.0
1284,C5,195.75,0.25,50,120.0
1285,D5,196.0,0.167,55,120.0
1286,B-5,196.0,0.25,45,120.0
1287,C6,196.0,0.25,45,120.0
1288,E-5,196.167,0.167,57,120.0
1289,F5,196.333,0.167,60,120.0
1290,G5,196.5,0.25,62,120.0
1291,B-5,196.5,0.25,49,120.0
1292,C6,196.5,0.25,49,120.0
1293,F5,196.75,0.25,62,120.0
1294,E-5,197.0,0.167,60,120.0
1295,C6,197.0,0.25,44,120.0
1296,B-5,197.0,0.25,44,120.0
1297,D5,197.167,0.167,59,120.0
1298,C5,197.333,0.167,58,120.0
1299,B-4,197.5,0.167,58,120.0
1300,C6,197.5,0.25,46,120.0
1301,B-5,197.5,0.25,46,120.0
1302,A4,197.667,0.167,57,120.0
1303,G4,197.833,0.167,56,120.0
1304,F4,198.0,0.25,60,120.0
1305,F3,198.25,0.25,52,120.0
1306,B-3,198.5,0.25,63,120.0
1307,D6,198.5,0.25,48,120.0
1308,B-5,198.5,0.25,48,120.0
1309,D4,198.75,0.25,59,120.0
1310,F4,199.0,0.25,68,120.0
1311,D6,199.0,0.25,49,120.0
1312,B-5,199.0,0.25,49,120.0
1313,B-4,199.25,0.25,62,120.0
1314,D5,199.5,0.25,63,120.0
1315,D6,199.5,0.25,52,120.0
1316,B-5,199.5,0.25,52,120.0
1317,B-4,199.75,0.25,54,120.0
1318,F5,200.0,0.25,66,120.0
1319,D6,200.0,0.25,47,120.0
1320,B-5,200.0,0.25,47,120.0
1321,D5,200.25,0.25,62,120.0
1322,B-4,200.5,0.25,70,120.0
1323,F6,200.5,0.25,48,120.0
1324,B-5,200.5,0.25,48,120.0
1325,D6,200.5,0.25,48,120.0
1326,D5,200.75,0.25,64,120.0
1327,C5,201.0,0.167,67,120.0
1328,F4,201.0,0.5,60,120.0
1329,E-6,201.0,0.25,59,120.0
1330,A5,201.0,0.25,59,120.0
1331,F6,201.0,0.25,59,120.0
1332,D5,201.167,0.167,59,120.0
1333,C5,201.333,0.167,67,120.0
1334,D5,201.5,0.167,61,120.0
1335,F6,201.5,0.25,46,120.0
1336,A5,201.5,0.25,46,120.0
1337,E-6,201.5,0.25,46,120.0
1338,C5,201.667,0.167,66,120.0
1339,D5,201.833,0.167,59,120.0
1340,C5,202.0,0.167,66,120.0
1341,E-6,202.0,0.25,45,120.0
1342,F6,202.0,0.25,45,120.0
1343,A5,202.0,0.25,45,120.0
1344,D5,202.167,0.167,59,120.0
1345,C5,202.333,0.167,62,120.0
1346,D5,202.5,0.167,56,120.0
1347,F6,202.5,0.25,53,120.0
1348,A5,202.5,0.25,53,120.0
1349,E-6,202.5,0.25,53,120.0
1350,C5,202.667,0.167,63,120.0
1351,D5,202.833,0.167,55,120.0
1352,C5,203.0,0.167,63,120.0
1353,E-6,203.0,0.25,45,120.0
1354,F6,203.0,0.25,45,120.0
1355,A5,203.0,0.25,45,120.0
1356,D5,203.167,0.167,55,120.0
1357,C5,203.333,0.167,63,120.0
1358,D5,203.5,0.167,55,120.0
1359,F6,203.5,0.25,44,120.0
1360,A5,203.5,0.25,44,120.0
1361,E-6,203.5,0.25,44,120.0
1362,C5,203.667,0.167,63,120.0
1363,D5,203.833,0.167,59,120.0
1364,F4,204.0,0.25,62,120.0
1365,B4,204.25,0.25,55,120.0
1366,C5,204.5,0.25,58,120.0
1367,D5,204.75,0.25,60,120.0
1368,C5,205.0,0.25,58,120.0
1369,G#5,205.0,1.5,76,120.0
1370,G#6,205.0,1.5,76,120.0
1371,B4,205.25,0.25,58,120.0
1372,E-4,205.5,0.25,61,120.0
1373,C5,205.75,0.25,56,120.0
1374,D5,206.0,0.25,59,120.0
1375,E-5,206.25,0.25,61,120.0
1376,D5,206.5,0.25,57,120.0
1377,G5,206.5,0.5,72,120.0
1378,G6,206.5,0.5,72,120.0
1379,C5,206.75,0.25,57,120.0
1380,E-4,207.012,0.25,62,120.0
1381,A4,207.25,0.25,55,120.0
1382,B-4,207.5,0.25,58,120.0
1383,C5,207.74,0.25,60,120.0
1384,B-4,208.0,0.25,59,120.0
1385,F#5,208.0,1.5,75,120.0
1386,F#6,208.0,1.5,75,120.0
1387,A4,208.25,0.25,59,120.0
1388,D4,208.5,0.25,62,120.0
1389,B-4,208.75,0.25,57,120.0
1390,C5,209.0,0.25,61,120.0
1391,D5,209.25,0.25,64,120.0
1392,C5,209.5,0.25,59,120.0
1393,F5,209.5,0.5,74,120.0
1394,F6,209.5,0.5,74,120.0
1395,B-4,209.75,0.25,60,120.0
1396,F3,210.012,0.25,65,120.0
1397,B3,210.25,0.25,58,120.0
1398,C4,210.5,0.25,62,120.0
1399,D4,210.74,0.25,64,120.0
1400,C4,211.0,0.25,62,120.0
1401,G#4,211.0,1.5,80,120.0
1402,G#5,211.0,1.5,80,120.0
1403,B3,211.25,0.25,63,120.0
1404,E-3,211.5,0.25,67,120.0
1405,C4,211.75,0.25,61,120.0
1406,D4,212.0,0.25,65,120.0
1407,E-4,212.25,0.25,67,120.0
1408,D4,212.5,0.25,63,120.0
1409,G4,212.5,0.5,78,120.0
1410,G5,212.5,0.5,78,120.0
1411,C4,212.75,0.25,63,120.0
1412,E-3,213.012,0.25,70,120.0
1413,A3,213.25,0.25,62,120.0
1414,B-3,213.5,0.25,66,120.0
1415,C4,213.74,0.25,68,120.0
1416,B-3,214.0,0.25,66,120.0
1417,F#4,214.0,1.5,85,120.0
1418,F#5,214.0,1.5,85,120.0
1419,A3,214.25,0.25,67,120.0
1420,D3,214.5,0.25,70,120.0
1421,B-3,214.75,0.25,65,120.0
1422,C4,215.0,0.25,69,120.0
1423,D4,215.25,0.25,71,120.0
1424,C4,215.5,0.25,67,120.0
1425,F4,215.5,0.5,82,120.0
1426,F5,215.5,0.5,82,120.0
1427,B-3,215.75,0.25,67,120.0
1428,D3,216.0,0.25,70,120.0
1429,F3,216.25,0.25,62,120.0
1430,B-3,216.5,0.25,66,120.0
1431,B-4,216.5,0.25,64,120.0
1432,F5,216.5,0.25,64,120.0
1433,F4,216.5,0.25,64,120.0
1434,D4,216.75,0.25,68,120.0
1435,B-3,217.0,0.25,66,120.0
1436,F4,217.0,0.25,61,120.0
1437,F5,217.0,0.25,61,120.0
1438,B-4,217.0,0.25,61,120.0
1439,F3,217.25,0.25,63,120.0
1440,G2,217.5,0.25,70,120.0
1441,B-2,217.75,0.25,65,120.0
1442,D3,218.0,0.25,69,120.0
1443,B-4,218.0,0.25,62,120.0
1444,E-5,218.0,0.25,62,120.0
1445,G4,218.0,0.25,62,120.0
1446,G3,218.25,0.25,71,120.0
1447,D3,218.5,0.25,67,120.0
1448,D5,218.5,0.25,58,120.0
1449,G4,218.5,0.25,58,120.0
1450,B-4,218.5,0.25,58,120.0
1451,B-2,218.75,0.25,64,120.0
1452,E-2,219.0,0.25,70,120.0
1453,G2,219.25,0.25,62,120.0
1454,C3,219.5,0.25,66,120.0
1455,E-4,219.5,0.25,64,120.0
1456,D5,219.5,0.25,64,120.0
1457,G4,219.5,0.25,64,120.0
1458,E-3,219.75,0.25,68,120.0
1459,C3,220.0,0.25,66,120.0
1460,C5,220.0,0.25,61,120.0
1461,G4,220.0,0.25,61,120.0
1462,E-4,220.0,0.25,61,120.0
1463,G2,220.25,0.25,63,120.0
1464,F2,220.5,0.25,70,120.0
1465,C3,220.75,0.25,65,120.0
1466,E-3,221.0,0.25,69,120.0
1467,B-4,221.0,0.25,62,120.0
1468,E-4,221.0,0.25,62,120.0
1469,C4,221.0,0.25,62,120.0
1470,F3,221.25,0.25,71,120.0
1471,E-3,221.5,0.25,67,120.0
1472,A4,221.5,0.25,58,120.0
1473,E-4,221.5,0.25,58,120.0
1474,C4,221.5,0.25,58,120.0
1475,C3,221.75,0.25,64,120.0
1476,D2,222.0,0.25,70,120.0
1477,F2,222.25,0.25,62,120.0
1478,B-2,222.5,0.25,66,120.0
1479,B-4,222.5,0.25,64,120.0
1480,F4,222.5,0.25,64,120.0
1481,B-3,222.5,0.25,64,120.0
1482,D3,222.75,0.25,68,120.0
1483,B-2,223.0,0.25,67,120.0
1484,F4,223.0,0.25,62,120.0
1485,D4,223.0,0.25,62,120.0
1486,B-3,223.0,0.25,62,120.0
1487,F2,223.25,0.25,64,120.0
1488,G1,223.5,0.25,72,120.0
1489,B-1,223.75,0.25,67,120.0
1490,D2,224.0,0.25,72,120.0
1491,G3,224.0,0.25,69,120.0
1492,E-4,224.0,0.25,69,120.0
1493,B-3,224.0,0.25,69,120.0
1494,G2,224.25,0.25,74,120.0
1495,D2,224.5,0.25,71,120.0
1496,D4,224.5,0.25,61,120.0
1497,B-3,224.5,0.25,61,120.0
1498,G3,224.5,0.25,61,120.0
1499,B-1,224.75,0.25,67,120.0
1500,E-2,225.0,0.25,74,120.0
1501,G2,225.25,0.25,66,120.0
1502,C3,225.5,0.25,71,120.0
1503,D4,225.5,0.25,68,120.0
1504,G3,225.5,0.25,68,120.0
1505,E-3,225.5,0.25,68,120.0
1506,G2,225.75,0.25,74,120.0
1507,E-2,226.0,0.5,72,120.0
1508,C4,226.0,0.25,66,120.0
1509,G3,226.0,0.25,66,120.0
1510,E-3,226.0,0.25,66,120.0
1511,F1,226.5,0.25,77,120.0
1512,C2,226.75,0.25,72,120.0
1513,E-2,227.0,0.25,77,120.0
1514,C3,227.0,0.25,73,120.0
1515,E-3,227.0,0.25,73,120.0
1516,B-3,227.0,0.25,73,120.0
1517,F2,227.25,0.25,80,120.0
1518,F1,227.5,0.25,75,120.0
1519,E-3,227.5,0.25,66,120.0
1520,A3,227.5,0.25,66,120.0
1521,C3,227.5,0.25,66,120.0
1522,F2,227.75,0.25,72,120.0
1523,B-2,228.0,0.25,62,120.0
1524,B-1,228.0,0.25,75,120.0
1525,C3,228.25,0.25,63,120.0
1526,D3,228.5,0.25,65,120.0
1527,B-2,228.5,0.25,75,120.0
1528,E-3,228.75,0.25,66,120.0
1529,F3,229.0,0.167,67,120.0
1530,B-2,229.0,0.25,70,120.0
1531,D3,229.0,0.25,70,120.0
1532,G3,229.167,0.167,68,120.0
1533,A3,229.333,0.167,68,120.0
1534,B-3,229.5,0.167,69,120.0
1535,B-2,229.5,1.0,74,120.0
1536,D3,229.5,1.0,74,120.0
1537,F3,229.5,1.0,74,120.0
1538,C4,229.667,0.167,70,120.0
1539,D4,229.833,0.167,71,120.0
1540,E-4,230.0,0.167,72,120.0
1541,F4,230.167,0.167,72,120.0
1542,G4,230.333,0.167,73,120.0
1543,A4,230.5,0.25,85,120.0
1544,C3,230.5,0.25,64,120.0
1545,F2,230.5,0.25,64,120.0
1546,F3,230.5,0.25,64,120.0
1547,A3,230.75,0.25,67,120.0
1548,B-3,231.0,0.25,62,120.0
1549,B-2,231.0,0.25,71,120.0
1550,F3,231.0,0.25,71,120.0
1551,D3,231.0,0.25,71,120.0
1552,C4,231.25,0.25,63,120.0
1553,D4,231.5,0.25,65,120.0
1554,B-2,231.5,0.25,67,120.0
1555,D3,231.5,0.25,67,120.0
1556,F3,231.5,0.25,67,120.0
1557,E-4,231.75,0.25,66,120.0
1558,F4,232.0,0.167,67,120.0
1559,F3,232.0,0.25,66,120.0
1560,B-2,232.0,0.25,66,120.0
1561,D3,232.0,0.25,66,120.0
1562,G4,232.167,0.167,68,120.0
1563,A4,232.333,0.167,68,120.0
1564,B-4,232.5,0.167,69,120.0
1565,B-2,232.5,1.0,73,120.0
1566,D3,232.5,1.0,73,120.0
1567,F3,232.5,1.0,73,120.0
1568,C5,232.667,0.167,70,120.0
1569,D5,232.833,0.167,71,120.0
1570,E-5,233.0,0.167,72,120.0
1571,F5,233.167,0.167,72,120.0
1572,G5,233.333,0.167,73,120.0
1573,A5,233.5,0.25,85,120.0
1574,C3,233.5,0.25,67,120.0
1575,F2,233.5,0.25,67,120.0
1576,F3,233.5,0.25,67,120.0
1577,A4,233.75,0.25,67,120.0
1578,B-4,234.0,0.25,62,120.0
1579,B-2,234.0,0.25,68,120.0
1580,F3,234.0,0.25,68,120.0
1581,D3,234.0,0.25,68,120.0
1582,C5,234.25,0.25,63,120.0
1583,D5,234.5,0.25,65,120.0
1584,B-2,234.5,0.25,67,120.0
1585,D3,234.5,0.25,67,120.0
1586,F3,234.5,0.25,67,120.0
1587,E-5,234.75,0.25,66,120.0
1588,F5,235.0,0.167,68,120.0
1589,F3,235.0,0.25,65,120.0
1590,B-2,235.0,0.25,65,120.0
1591,D3,235.0,0.25,65,120.0
1592,G5,235.167,0.167,70,120.0
1593,A5,235.333,0.167,72,120.0
1594,B-5,235.5,0.25,74,120.0
1595,B-2,235.5,1.0,74,120.0
1596,D3,235.5,1.0,74,120.0
1597,F3,235.5,1.0,74,120.0
1598,C6,235.75,0.25,75,120.0
1599,D6,236.0,0.167,77,120.0
1600,E-6,236.167,0.167,79,120.0
1601,F6,236.333,0.167,81,120.0
1602,G6,236.5,0.167,83,120.0
1603,C3,236.5,0.25,67,120.0
1604,F2,236.5,0.25,67,120.0
1605,F3,236.5,0.25,67,120.0
1606,A6,236.667,0.167,92,120.0
1607,A5,236.833,0.167,85,120.0
1608,B-6,237.0,1.0,97,120.0
1609,B-5,237.0,1.0,97,120.0
1610,B-2,237.0,1.0,72,120.0
1611,B-3,237.0,1.0,72,120.0
1612,D3,237.0,1.0,72,120.0
1613,F3,237.0,1.0,72,120.0
1614,F5,238.5,1.0,80,120.0
1615,D5,238.5,1.0,80,120.0
1616,B-5,238.5,1.0,80,120.0
1617,B-2,238.5,1.0,72,120.0
1618,D3,238.5,1.0,72,120.0
1619,B-3,238.5,1.0,72,120.0
1620,F3,238.5,1.0,72,120.0
1621,D4,240.0,1.0,79,120.0
1622,B-4,240.0,1.0,79,120.0
1623,F4,240.0,1.0,79,120.0
1624,F3,240.0,1.0,72,120.0
1625,B-3,240.0,1.0,72,120.0
1626,D3,240.0,1.0,72,120.0
1627,B-2,240.0,1.0,72,120.0
1628,B-5,242.5,0.5,45,120.0
1629,B-5,243.0,0.5,45,120.0
1630,E-4,243.0,1.0,36,120.0
1631,G4,243.0,1.0,36,120.0
1632,B-4,243.0,1.0,36,120.0
1633,G5,243.5,0.5,45,120.0
1634,E-5,244.0,0.5,39,120.0
1635,D5,244.5,0.5,45,120.0
1636,F4,244.5,1.0,30,120.0
1637,G#4,244.5,1.0,30,120.0
1638,B-3,244.5,1.0,30,120.0
1639,B-4,244.5,1.0,30,120.0
1640,F5,245.0,0.5,40,120.0
1641,B-5,245.5,0.375,40,120.0
1642,B-5,246.0,0.5,45,120.0
1643,E-4,246.0,1.0,36,120.0
1644,B-4,246.0,1.0,36,120.0
1645,G4,246.0,1.0,36,120.0
1646,G5,246.5,0.5,41,120.0
1647,E-5,247.0,0.375,41,120.0
1648,E-5,247.5,0.5,45,120.0
1649,G5,248.0,0.5,39,120.0
1650,C6,248.5,0.375,51,120.0
1651,E4,248.5,0.375,30,120.0
1652,G4,248.5,0.375,30,120.0
1653,B-4,248.5,0.375,30,120.0
1654,C5,248.5,0.375,30,120.0
1655,C6,249.0,0.5,57,120.0
1656,G#4,249.0,1.0,36,120.0
1657,F4,249.0,1.0,36,120.0
1658,C5,249.0,1.0,36,120.0
1659,G#5,249.5,0.5,45,120.0
1660,F5,250.0,0.5,45,120.0
1661,E5,250.5,0.5,49,120.0
1662,C5,250.5,1.0,30,120.0
1663,B-4,250.5,1.0,30,120.0
1664,C4,250.5,1.0,30,120.0
1665,G4,250.5,1.0,30,120.0
1666,G5,251.0,0.5,44,120.0
1667,C6,251.5,0.375,51,120.0
1668,C6,252.0,0.5,60,120.0
1669,F4,252.0,1.0,36,120.0
1670,G#4,252.0,1.0,36,120.0
1671,C5,252.0,1.0,36,120.0
1672,G#5,252.5,0.5,45,120.0
1673,F5,253.0,0.5,45,120.0
1674,D5,253.5,0.5,51,120.0
1675,F5,254.0,0.5,45,120.0
1676,B-5,254.5,0.375,45,120.0
1677,F4,254.5,0.375,32,120.0
1678,D4,254.5,0.375,32,120.0
1679,G#4,254.5,0.375,32,120.0
1680,B-4,254.5,0.375,32,120.0
1681,B-5,255.0,0.5,50,120.0
1682,G4,255.0,1.0,35,120.0
1683,B-4,255.0,1.0,35,120.0
1684,E-4,255.0,1.0,35,120.0
1685,G5,255.5,0.5,43,120.0
1686,E-5,256.0,0.5,43,120.0
1687,C5,256.5,0.5,45,120.0
1688,G#3,256.5,1.0,31,120.0
1689,C4,256.5,1.0,31,120.0
1690,F4,256.5,1.0,31,120.0
1691,F5,257.0,0.5,41,120.0
1692,G#5,257.5,0.375,41,120.0
1693,B-4,258.0,0.5,47,120.0
1694,E-4,258.0,1.0,37,120.0
1695,B-3,258.0,1.0,37,120.0
1696,G4,258.0,1.0,37,120.0
1697,E-5,258.5,0.5,43,120.0
1698,G5,259.0,0.375,43,120.0
1699,G#4,259.5,0.5,48,120.0
1700,B-3,259.5,1.0,35,120.0
1701,F4,259.5,1.0,35,120.0
1702,D4,259.5,1.0,35,120.0
1703,D5,260.0,0.5,43,120.0
1704,B-3,260.5,0.375,39,120.0
1705,F5,260.5,0.375,43,120.0
1706,G#4,260.5,0.375,43,120.0
1707,B-3,261.0,0.5,49,120.0
1708,E-5,261.0,0.5,49,120.0
1709,G4,261.0,0.5,49,120.0
1710,G3,261.5,0.5,49,120.0
1711,G5,262.0,0.5,49,120.0
1712,E-3,262.0,0.5,42,120.0
1713,G#5,262.5,0.25,49,120.0
1714,D3,262.5,0.5,49,120.0
1715,G5,262.75,0.25,45,120.0
1716,G#5,263.0,0.25,49,120.0
1717,F3,263.0,0.5,45,120.0
1718,F5,263.25,0.25,44,120.0
1719,B-5,263.5,0.25,49,120.0
1720,B-3,263.5,0.375,45,120.0
1721,G#5,263.75,0.25,44,120.0
1722,G5,264.0,0.5,67,120.0
1723,B-3,264.0,0.5,51,120.0
1724,B-6,264.5,0.5,62,120.0
1725,G3,264.5,0.5,47,120.0
1726,E-3,265.0,0.375,47,120.0
1727,E-3,265.5,0.5,52,120.0
1728,G3,266.0,0.5,46,120.0
1729,G4,266.5,0.375,49,120.0
1730,E3,266.5,0.375,54,120.0
1731,C4,266.5,0.375,54,120.0
1732,C4,267.0,0.5,60,120.0
1733,F3,267.0,0.5,60,120.0
1734,G#3,267.5,0.5,53,120.0
1735,G#4,268.0,0.5,49,120.0
1736,F3,268.0,0.5,53,120.0
1737,B-4,268.5,0.25,51,120.0
1738,E3,268.5,0.5,59,120.0
1739,G#4,268.75,0.25,41,120.0
1740,B-4,269.0,0.25,49,120.0
1741,G3,269.0,0.5,53,120.0
1742,G4,269.25,0.25,42,120.0
1743,C5,269.5,0.25,49,120.0
1744,C4,269.5,0.375,58,120.0
1745,B-4,269.75,0.25,47,120.0
1746,G#4,270.0,0.5,69,120.0
1747,C4,270.0,0.5,70,120.0
1748,C6,270.5,0.5,61,120.0
1749,G#3,270.5,0.5,56,120.0
1750,F3,271.0,0.5,57,120.0
1751,D3,271.5,0.5,64,120.0
1752,F3,272.0,0.5,58,120.0
1753,F5,272.5,0.375,55,120.0
1754,D3,272.5,0.375,58,120.0
1755,B-3,272.5,0.375,58,120.0
1756,B-3,273.0,0.5,66,120.0
1757,E-3,273.0,0.5,66,120.0
1758,G3,273.5,0.5,56,120.0
1759,G5,274.0,0.5,53,120.0
1760,E-3,274.0,0.5,57,120.0
1761,G#5,274.5,0.25,53,120.0
1762,G#2,274.5,0.5,54,120.0
1763,C3,274.5,0.5,54,120.0
1764,G5,274.75,0.25,49,120.0
1765,G#5,275.0,0.25,55,120.0
1766,F3,275.0,0.5,55,120.0
1767,F5,275.25,0.25,49,120.0
1768,G#6,275.5,0.375,74,120.0
1769,G#3,275.5,0.375,55,120.0
1770,B-2,276.0,0.5,61,120.0
1771,E-3,276.5,0.5,56,120.0
1772,E-5,277.0,0.375,49,120.0
1773,G3,277.0,0.375,56,120.0
1774,F5,277.5,0.25,57,120.0
1775,B-2,277.5,0.5,62,120.0
1776,E-5,277.75,0.25,49,120.0
1777,F5,278.0,0.25,56,120.0
1778,D3,278.0,0.5,56,120.0
1779,D5,278.25,0.25,49,120.0
1780,F6,278.5,0.375,72,120.0
1781,B-3,278.5,0.375,56,120.0
1782,B-2,278.5,0.375,56,120.0
1783,G4,279.0,0.25,81,120.0
1784,B-2,279.0,0.5,63,120.0
1785,G5,279.25,0.25,60,120.0
1786,G4,279.5,0.25,69,120.0
1787,G2,279.5,0.5,63,120.0
1788,G5,279.75,0.25,59,120.0
1789,B-4,280.0,0.25,67,120.0
1790,E-2,280.0,0.5,55,120.0
1791,B-5,280.25,0.25,59,120.0
1792,B-4,280.5,0.25,77,120.0
1793,D2,280.5,0.5,63,120.0
1794,B-5,280.75,0.25,57,120.0
1795,B-4,281.0,0.25,63,120.0
1796,F2,281.0,0.5,57,120.0
1797,B-5,281.25,0.25,56,120.0
1798,G#4,281.5,0.25,63,120.0
1799,B-2,281.5,0.375,57,120.0
1800,G#5,281.75,0.25,56,120.0
1801,G4,282.0,0.25,73,120.0
1802,B-2,282.0,0.5,63,120.0
1803,G5,282.25,0.25,60,120.0
1804,G4,282.5,0.25,66,120.0
1805,G2,282.5,0.5,58,120.0
1806,G5,282.75,0.25,60,120.0
1807,B-4,283.0,0.25,66,120.0
1808,E-2,283.0,0.375,58,120.0
1809,B-5,283.25,0.25,59,120.0
1810,B-4,283.5,0.25,73,120.0
1811,E-2,283.5,0.5,63,120.0
1812,B-5,283.75,0.25,60,120.0
1813,B-4,284.0,0.25,63,120.0
1814,G2,284.0,0.5,55,120.0
1815,B-5,284.25,0.25,55,120.0
1816,G4,284.5,0.25,66,120.0
1817,E2,284.5,0.375,64,120.0
1818,C3,284.5,0.375,64,120.0
1819,G5,284.75,0.25,60,120.0
1820,G#4,285.0,0.25,73,120.0
1821,C3,285.0,0.5,70,120.0
1822,F2,285.0,0.5,70,120.0
1823,G#5,285.25,0.25,53,120.0
1824,G#4,285.5,0.25,61,120.0
1825,G#2,285.5,0.5,63,120.0
1826,G#5,285.75,0.25,53,120.0
1827,C5,286.0,0.25,61,120.0
1828,F2,286.0,0.5,63,120.0
1829,C6,286.25,0.25,56,120.0
1830,C5,286.5,0.25,73,120.0
1831,E2,286.5,0.5,69,120.0
1832,C6,286.75,0.25,53,120.0
1833,C5,287.0,0.25,61,120.0
1834,G2,287.0,0.5,62,120.0
1835,C6,287.25,0.25,55,120.0
1836,B-4,287.5,0.25,61,120.0
1837,C3,287.5,0.375,73,120.0
1838,B-5,287.75,0.25,53,120.0
1839,G#4,288.0,0.25,73,120.0
1840,C3,288.0,0.5,86,120.0
1841,G#5,288.25,0.25,55,120.0
1842,G#4,288.5,0.25,61,120.0
1843,G#2,288.5,0.5,63,120.0
1844,G#5,288.75,0.25,55,120.0
1845,C5,289.0,0.25,61,120.0
1846,F2,289.0,0.5,63,120.0
1847,C6,289.25,0.25,55,120.0
1848,C5,289.5,0.25,73,120.0
1849,D2,289.5,0.5,72,120.0
1850,C6,289.75,0.25,52,120.0
1851,B-4,290.0,0.25,59,120.0
1852,F2,290.0,0.5,63,120.0
1853,B-5,290.25,0.25,52,120.0
1854,G#4,290.5,0.25,59,120.0
1855,D2,290.5,0.375,64,120.0
1856,B-2,290.5,0.375,64,120.0
1857,G#5,290.75,0.25,53,120.0
1858,G4,291.0,0.25,73,120.0
1859,E-2,291.0,0.5,72,120.0
1860,B-2,291.0,0.5,72,120.0
1861,G5,291.25,0.25,53,120.0
1862,B-4,291.5,0.25,61,120.0
1863,G2,291.5,0.5,60,120.0
1864,B-5,291.75,0.25,55,120.0
1865,E-5,292.0,0.25,61,120.0
1866,E-2,292.0,0.5,60,120.0
1867,E-6,292.25,0.25,55,120.0
1868,E-5,292.5,0.25,73,120.0
1869,G#1,292.5,1.0,53,120.0
1870,C2,292.5,0.5,63,120.0
1871,E-6,292.75,0.25,53,120.0
1872,C5,293.0,0.25,60,120.0
1873,F2,293.0,0.5,58,120.0
1874,C6,293.25,0.25,53,120.0
1875,G#4,293.5,0.25,60,120.0
1876,G#2,293.5,0.375,63,120.0
1877,G#5,293.75,0.25,53,120.0
1878,E-5,294.0,0.25,73,120.0
1879,B-1,294.0,0.5,69,120.0
1880,E-6,294.25,0.25,56,120.0
1881,B-4,294.5,0.25,62,120.0
1882,E-2,294.5,0.5,58,120.0
1883,B-5,294.75,0.25,55,120.0
1884,G4,295.0,0.25,62,120.0
1885,G2,295.0,0.375,58,120.0
1886,G5,295.25,0.25,55,120.0
1887,B-4,295.5,0.25,73,120.0
1888,B-1,295.5,0.5,63,120.0
1889,B-5,295.75,0.25,56,120.0
1890,G#4,296.0,0.25,64,120.0
1891,F2,296.0,0.5,57,120.0
1892,G#5,296.25,0.25,57,120.0
1893,F4,296.5,0.25,64,120.0
1894,B-2,296.5,0.375,57,120.0
1895,F5,296.75,0.25,58,120.0
1896,G3,297.0,0.25,78,120.0
1897,E-2,297.0,0.25,73,120.0
1898,E-4,297.25,0.25,64,120.0
1899,B-3,297.5,0.25,72,120.0
1900,G3,297.5,0.25,56,120.0
1901,E-3,297.5,0.25,56,120.0
1902,G4,297.75,0.25,64,120.0
1903,E-4,298.0,0.25,74,120.0
1904,B-3,298.0,0.25,53,120.0
1905,E-3,298.0,0.25,53,120.0
1906,G3,298.0,0.25,53,120.0
1907,B-4,298.25,0.25,64,120.0
1908,G4,298.5,0.25,79,120.0
1909,G3,298.5,0.25,52,120.0
1910,E-4,298.5,0.25,52,120.0
1911,B-3,298.5,0.25,52,120.0
1912,E-3,298.5,0.25,52,120.0
1913,E-5,298.75,0.25,64,120.0
1914,B-4,299.0,0.25,70,120.0
1915,E-3,299.0,0.25,52,120.0
1916,E-4,299.0,0.25,52,120.0
1917,B-3,299.0,0.25,52,120.0
1918,G3,299.0,0.25,52,120.0
1919,G5,299.25,0.25,64,120.0
1920,E-5,299.5,0.25,71,120.0
1921,B-3,299.5,0.25,52,120.0
1922,E-4,299.5,0.25,52,120.0
1923,E-3,299.5,0.25,52,120.0
1924,G3,299.5,0.25,52,120.0
1925,B-5,299.75,0.25,64,120.0
1926,G5,300.0,0.25,79,120.0
1927,E-4,300.0,0.25,60,120.0
1928,G3,300.0,0.25,60,120.0
1929,B-3,300.0,0.25,60,120.0
1930,E-3,300.0,0.25,60,120.0
1931,E-6,300.25,0.25,64,120.0
1932,B-5,300.5,0.25,70,120.0
1933,B-3,300.5,0.25,52,120.0
1934,E-4,300.5,0.25,52,120.0
1935,E-3,300.5,0.25,52,120.0
1936,G3,300.5,0.25,52,120.0
1937,G6,300.75,0.25,61,120.0
1938,E-6,301.0,0.25,69,120.0
1939,G3,301.0,0.25,52,120.0
1940,E-4,301.0,0.25,52,120.0
1941,B-3,301.0,0.25,52,120.0
1942,E-3,301.0,0.25,52,120.0
1943,B-6,301.25,0.25,62,120.0
1944,A6,301.5,0.25,73,120.0
1945,F3,301.5,0.25,52,120.0
1946,D4,301.5,0.25,52,120.0
1947,G#3,301.5,0.25,52,120.0
1948,B-3,301.5,0.25,52,120.0
1949,E-3,301.5,0.25,52,120.0
1950,B-6,301.75,0.25,66,120.0
1951,A6,302.0,0.25,70,120.0
1952,F3,302.0,0.25,52,120.0
1953,D4,302.0,0.25,52,120.0
1954,B-3,302.0,0.25,52,120.0
1955,G#3,302.0,0.25,52,120.0
1956,E-3,302.0,0.25,52,120.0
1957,B-6,302.25,0.25,64,120.0
1958,A6,302.5,0.25,69,120.0
1959,F3,302.5,0.25,52,120.0
1960,D4,302.5,0.25,52,120.0
1961,B-3,302.5,0.25,52,120.0
1962,G#3,302.5,0.25,52,120.0
1963,E-3,302.5,0.25,52,120.0
1964,B-6,302.75,0.25,64,120.0
1965,C7,303.0,0.25,77,120.0
1966,E-3,303.0,0.25,61,120.0
1967,E-4,303.0,0.25,61,120.0
1968,B-3,303.0,0.25,61,120.0
1969,G3,303.0,0.25,61,120.0
1970,B-6,303.25,0.25,77,120.0
1971,G#6,303.5,0.25,76,120.0
1972,B-3,303.5,0.25,52,120.0
1973,E-4,303.5,0.25,52,120.0
1974,E-3,303.5,0.25,52,120.0
1975,G3,303.5,0.25,52,120.0
1976,G6,303.75,0.25,75,120.0
1977,F6,304.0,0.25,74,120.0
1978,E-4,304.0,0.25,52,120.0
1979,G3,304.0,0.25,52,120.0
1980,B-3,304.0,0.25,52,120.0
1981,E-3,304.0,0.25,52,120.0
1982,E-6,304.25,0.25,74,120.0
1983,D6,304.5,0.25,72,120.0
1984,B-3,304.5,0.25,52,120.0
1985,E-4,304.5,0.25,52,120.0
1986,E-3,304.5,0.25,52,120.0
1987,G3,304.5,0.25,52,120.0
1988,C6,304.75,0.25,65,120.0
1989,B-5,305.0,0.25,65,120.0
1990,G3,305.0,0.25,52,120.0
1991,E-4,305.0,0.25,52,120.0
1992,B-3,305.0,0.25,52,120.0
1993,E-3,305.0,0.25,52,120.0
1994,G#5,305.25,0.25,65,120.0
1995,G5,305.5,0.25,65,120.0
1996,E-3,305.5,0.25,52,120.0
1997,E-4,305.5,0.25,52,120.0
1998,B-3,305.5,0.25,52,120.0
1999,G3,305.5,0.25,52,120.0
2000,F5,305.75,0.25,65,120.0
2001,E-5,306.0,0.25,70,120.0
2002,B-3,306.0,0.25,58,120.0
2003,E-4,306.0,0.25,58,120.0
2004,E-3,306.0,0.25,58,120.0
2005,G3,306.0,0.25,58,120.0
2006,D5,306.25,0.25,69,120.0
2007,C5,306.5,0.25,68,120.0
2008,E-4,306.5,0.25,51,120.0
2009,G3,306.5,0.25,51,120.0
2010,B-3,306.5,0.25,51,120.0
2011,E-3,306.5,0.25,51,120.0
2012,B-4,306.75,0.25,68,120.0
2013,G#4,307.0,0.25,67,120.0
2014,B-3,307.0,0.25,51,120.0
2015,E-4,307.0,0.25,51,120.0
2016,E-3,307.0,0.25,51,120.0
2017,G3,307.0,0.25,51,120.0
2018,G4,307.25,0.25,66,120.0
2019,F4,307.5,0.25,64,120.0
2020,F3,307.5,0.25,51,120.0
2021,B-3,307.5,0.25,51,120.0
2022,G#3,307.5,0.25,51,120.0
2023,E-3,307.5,0.25,51,120.0
2024,E-4,307.75,0.25,59,120.0
2025,D4,308.0,0.25,64,120.0
2026,E-3,308.0,0.25,51,120.0
2027,B-3,308.0,0.25,51,120.0
2028,G#3,308.0,0.25,51,120.0
2029,F3,308.0,0.25,51,120.0
2030,F4,308.25,0.25,60,120.0
2031,G#4,308.5,0.25,69,120.0
2032,G#3,308.5,0.25,51,120.0
2033,B-3,308.5,0.25,51,120.0
2034,E-3,308.5,0.25,51,120.0
2035,F3,308.5,0.25,51,120.0
2036,D4,308.75,0.25,63,120.0
2037,G3,309.0,0.25,78,120.0
2038,E-2,309.0,0.25,73,120.0
2039,E-4,309.25,0.25,64,120.0
2040,B-3,309.5,0.25,72,120.0
2041,E-3,309.5,0.25,56,120.0
2042,G3,309.5,0.25,56,120.0
2043,G4,309.75,0.25,64,120.0
2044,E-4,310.0,0.25,74,120.0
2045,E-3,310.0,0.25,53,120.0
2046,B-3,310.0,0.25,53,120.0
2047,G3,310.0,0.25,53,120.0
2048,B-4,310.25,0.25,64,120.0
2049,G4,310.5,0.25,79,120.0
2050,B-3,310.5,0.25,52,120.0
2051,E-4,310.5,0.25,52,120.0
2052,E-3,310.5,0.25,52,120.0
2053,G3,310.5,0.25,52,120.0
2054,E-5,310.75,0.25,64,120.0
2055,B-4,311.0,0.25,70,120.0
2056,E-4,311.0,0.25,52,120.0
2057,G3,311.0,0.25,52,120.0
2058,B-3,311.0,0.25,52,120.0
2059,E-3,311.0,0.25,52,120.0
2060,G5,311.25,0.25,64,120.0
2061,E-5,311.5,0.25,71,120.0
2062,B-3,311.5,0.25,52,120.0
2063,E-4,311.5,0.25,52,120.0
2064,E-3,311.5,0.25,52,120.0
2065,G3,311.5,0.25,52,120.0
2066,B-5,311.75,0.25,64,120.0
2067,G5,312.0,0.25,79,120.0
2068,G3,312.0,0.25,60,120.0
2069,E-4,312.0,0.25,60,120.0
2070,B-3,312.0,0.25,60,120.0
2071,E-3,312.0,0.25,60,120.0
2072,E-6,312.25,0.25,64,120.0
2073,B-5,312.5,0.25,70,120.0
2074,B-3,312.5,0.25,52,120.0
2075,E-3,312.5,0.25,52,120.0
2076,G3,312.5,0.25,52,120.0
2077,E-4,312.5,0.25,52,120.0
2078,G6,312.75,0.25,61,120.0
2079,E-6,313.0,0.25,69,120.0
2080,G3,313.0,0.25,52,120.0
2081,E-3,313.0,0.25,52,120.0
2082,B-3,313.0,0.25,52,120.0
2083,E-4,313.0,0.25,52,120.0
2084,B-6,313.25,0.25,62,120.0
2085,A6,313.5,0.25,73,120.0
2086,D4,313.5,0.25,52,120.0
2087,F3,313.5,0.25,52,120.0
2088,E-3,313.5,0.25,52,120.0
2089,B-3,313.5,0.25,52,120.0
2090,G#3,313.5,0.25,52,120.0
2091,B-6,313.75,0.25,66,120.0
2092,A6,314.0,0.25,70,120.0
2093,D4,314.0,0.25,52,120.0
2094,F3,314.0,0.25,52,120.0
2095,E-3,314.0,0.25,52,120.0
2096,G#3,314.0,0.25,52,120.0
2097,B-3,314.0,0.25,52,120.0
2098,B-6,314.25,0.25,64,120.0
2099,A6,314.5,0.25,69,120.0
2100,D4,314.5,0.25,52,120.0
2101,F3,314.5,0.25,52,120.0
2102,E-3,314.5,0.25,52,120.0
2103,G#3,314.5,0.25,52,120.0
2104,B-3,314.5,0.25,52,120.0
2105,B-6,314.75,0.25,64,120.0
2106,C7,315.0,0.25,77,120.0
2107,E-4,315.0,0.25,61,120.0
2108,E-3,315.0,0.25,61,120.0
2109,B-3,315.0,0.25,61,120.0
2110,G3,315.0,0.25,61,120.0
2111,B-6,315.25,0.25,77,120.0
2112,G#6,315.5,0.25,76,120.0
2113,E-4,315.5,0.25,52,120.0
2114,B-3,315.5,0.25,52,120.0
2115,E-3,315.5,0.25,52,120.0
2116,G3,315.5,0.25,52,120.0
2117,G6,315.75,0.25,75,120.0
2118,F6,316.0,0.25,74,120.0
2119,E-4,316.0,0.25,52,120.0
2120,B-3,316.0,0.25,52,120.0
2121,G3,316.0,0.25,52,120.0
2122,E-3,316.0,0.25,52,120.0
2123,E-6,316.25,0.25,74,120.0
2124,D6,316.5,0.25,72,120.0
2125,B-3,316.5,0.25,52,120.0
2126,E-3,316.5,0.25,52,120.0
2127,G3,316.5,0.25,52,120.0
2128,E-4,316.5,0.25,52,120.0
2129,C6,316.75,0.25,65,120.0
2130,B-5,317.0,0.25,65,120.0
2131,G3,317.0,0.25,52,120.0
2132,E-3,317.0,0.25,52,120.0
2133,B-3,317.0,0.25,52,120.0
2134,E-4,317.0,0.25,52,120.0
2135,G#5,317.25,0.25,65,120.0
2136,G5,317.5,0.25,65,120.0
2137,E-4,317.5,0.25,52,120.0
2138,E-3,317.5,0.25,52,120.0
2139,B-3,317.5,0.25,52,120.0
2140,G3,317.5,0.25,52,120.0
2141,F5,317.75,0.25,65,120.0
2142,E-5,318.0,0.169,70,120.0
2143,G3,318.0,0.25,60,120.0
2144,E-3,318.0,0.25,60,120.0
2145,B-3,318.0,0.25,60,120.0
2146,D5,318.169,0.167,69,120.0
2147,C5,318.333,0.167,68,120.0
2148,B-4,318.5,0.167,68,120.0
2149,B-3,318.5,0.25,52,120.0
2150,G3,318.5,0.25,52,120.0
2151,E-3,318.5,0.25,52,120.0
2152,G#4,318.667,0.167,67,120.0
2153,G4,318.833,0.167,66,120.0
2154,F4,319.0,0.167,64,120.0
2155,G3,319.0,0.25,52,120.0
2156,B-3,319.0,0.25,52,120.0
2157,E-3,319.0,0.25,52,120.0
2158,E-4,319.167,0.167,59,120.0
2159,D4,319.333,0.167,55,120.0
2160,C4,319.5,0.25,62,120.0
2161,F3,319.5,0.25,54,120.0
2162,E-3,319.5,0.25,54,120.0
2163,B-3,319.75,0.25,54,120.0
2164,A3,320.0,0.25,60,120.0
2165,E-3,320.0,0.25,52,120.0
2166,F3,320.0,0.25,52,120.0
2167,F2,320.0,0.25,52,120.0
2168,C4,320.25,0.25,54,120.0
2169,E-4,320.5,0.25,64,120.0
2170,F3,320.5,0.25,52,120.0
2171,F2,320.5,0.25,52,120.0
2172,E-3,320.5,0.25,52,120.0
2173,A3,320.75,0.25,54,120.0
2174,B-3,321.0,0.5,95,120.0
2175,B-1,321.0,0.5,80,120.0
2176,B-2,321.0,0.5,80,120.0
2177,B-4,322.5,0.5,89,120.0
2178,B-3,322.5,0.5,75,120.0
2179,C#5,324.0,0.5,96,120.0
2180,C#4,324.0,0.5,81,120.0
2181,F#5,325.5,0.5,88,120.0
2182,F#4,325.5,0.5,74,120.0
2183,C#5,327.0,0.5,94,120.0
2184,C#4,327.0,0.5,79,120.0
2185,B-4,328.5,0.5,88,120.0
2186,B-3,328.5,0.5,74,120.0
2187,F#4,330.0,0.5,93,120.0
2188,F#3,330.0,0.5,78,120.0
2189,C#4,331.5,0.5,82,120.0
2190,C#3,331.5,0.5,70,120.0
2191,A3,333.0,0.5,95,120.0
2192,A2,333.0,0.5,80,120.0
2193,A1,333.0,0.5,80,120.0
2194,A4,334.5,0.5,89,120.0
2195,A3,334.5,0.5,75,120.0
2196,C5,336.0,0.5,96,120.0
2197,C4,336.0,0.5,81,120.0
2198,F5,337.5,0.5,88,120.0
2199,F4,337.5,0.5,74,120.0
2200,C5,339.0,0.5,94,120.0
2201,C4,339.0,0.5,79,120.0
2202,A4,340.5,0.5,88,120.0
2203,A3,340.5,0.5,74,120.0
2204,F4,342.0,0.5,93,120.0
2205,F3,342.0,0.5,78,120.0
2206,C4,343.5,0.5,82,120.0
2207,C3,343.5,0.5,70,120.0
2208,C#5,345.0,0.25,55,120.0
2209,C#4,345.0,0.25,36,120.0
2210,F#4,345.0,0.25,36,120.0
2211,B-3,345.0,0.25,36,120.0
2212,B-3,345.5,0.25,31,120.0
2213,C#4,345.5,0.25,31,120.0
2214,F#4,345.5,0.25,31,120.0
2215,C6,345.875,0.125,51,120.0
2216,B-5,346.0,0.25,57,120.0
2217,C#4,346.0,0.25,31,120.0
2218,B-3,346.0,0.25,31,120.0
2219,F#4,346.0,0.25,31,120.0
2220,A5,346.25,0.25,52,120.0
2221,B-5,346.5,0.25,57,120.0
2222,B-3,346.5,0.25,31,120.0
2223,F#4,346.5,0.25,31,120.0
2224,C#4,346.5,0.25,31,120.0
2225,B-3,347.0,0.25,32,120.0
2226,C#4,347.0,0.25,32,120.0
2227,F#4,347.0,0.25,32,120.0
2228,E-6,347.375,0.125,53,120.0
2229,C#6,347.5,0.25,59,120.0
2230,C#4,347.5,0.25,32,120.0
2231,F#4,347.5,0.25,32,120.0
2232,B-3,347.5,0.25,32,120.0
2233,C6,347.75,0.25,52,120.0
2234,C#6,348.0,0.25,63,120.0
2235,B-3,348.0,0.25,38,120.0
2236,C#4,348.0,0.25,38,120.0
2237,F#4,348.0,0.25,38,120.0
2238,C#4,348.5,0.25,33,120.0
2239,B-3,348.5,0.25,33,120.0
2240,F#4,348.5,0.25,33,120.0
2241,G#6,348.875,0.125,54,120.0
2242,F#6,349.0,0.25,60,120.0
2243,B-3,349.0,0.25,33,120.0
2244,F#4,349.0,0.25,33,120.0
2245,C#4,349.0,0.25,33,120.0
2246,F6,349.25,0.25,55,120.0
2247,F#6,349.5,0.25,61,120.0
2248,B-3,349.5,0.25,33,120.0
2249,C#4,349.5,0.25,33,120.0
2250,F#4,349.5,0.25,33,120.0
2251,C#4,350.0,0.25,31,120.0
2252,F#4,350.0,0.25,31,120.0
2253,B-3,350.0,0.25,31,120.0
2254,E-6,350.375,0.125,51,120.0
2255,C#6,350.5,0.25,57,120.0
2256,B-3,350.5,0.25,31,120.0
2257,C#4,350.5,0.25,31,120.0
2258,F#4,350.5,0.25,31,120.0
2259,C6,350.75,0.25,50,120.0
2260,C#6,351.0,0.25,60,120.0
2261,C#4,351.0,0.25,36,120.0
2262,B-3,351.0,0.25,36,120.0
2263,F#4,351.0,0.25,36,120.0
2264,B-3,351.5,0.25,31,120.0
2265,F#4,351.5,0.25,31,120.0
2266,C#4,351.5,0.25,31,120.0
2267,C6,351.875,0.125,51,120.0
2268,B-5,352.0,0.25,56,120.0
2269,B-3,352.0,0.25,31,120.0
2270,C#4,352.0,0.25,31,120.0
2271,F#4,352.0,0.25,31,120.0
2272,A5,352.25,0.25,51,120.0
2273,B-5,352.5,0.25,56,120.0
2274,C#4,352.5,0.25,31,120.0
2275,F#4,352.5,0.25,31,120.0
2276,B-3,352.5,0.25,31,120.0
2277,B-3,353.0,0.25,31,120.0
2278,C#4,353.0,0.25,31,120.0
2279,F#4,353.0,0.25,31,120.0
2280,G#5,353.375,0.125,51,120.0
2281,F#5,353.5,0.25,57,120.0
2282,C#4,353.5,0.25,31,120.0
2283,B-3,353.5,0.25,31,120.0
2284,F#4,353.5,0.25,31,120.0
2285,F5,353.75,0.25,50,120.0
2286,F#5,354.0,0.25,60,120.0
2287,B-3,354.0,0.25,36,120.0
2288,F#4,354.0,0.25,36,120.0
2289,C#4,354.0,0.25,36,120.0
2290,B-3,354.5,0.25,31,120.0
2291,C#4,354.5,0.25,31,120.0
2292,F#4,354.5,0.25,31,120.0
2293,E-5,354.875,0.125,51,120.0
2294,C#5,355.0,0.25,56,120.0
2295,C#4,355.0,0.25,31,120.0
2296,F#4,355.0,0.25,31,120.0
2297,B-3,355.0,0.25,31,120.0
2298,C5,355.25,0.25,51,120.0
2299,C#5,355.5,1.0,56,120.0
2300,B-3,355.5,0.25,31,120.0
2301,C#4,355.5,0.25,31,120.0
2302,F#4,355.5,0.25,31,120.0
2303,C#4,356.0,0.25,31,120.0
2304,B-3,356.0,0.25,31,120.0
2305,F#4,356.0,0.25,31,120.0
2306,B-3,356.5,0.25,31,120.0
2307,E4,356.5,0.25,31,120.0
2308,C#4,356.5,0.25,31,120.0
2309,C5,357.0,0.25,55,120.0
2310,A3,357.0,0.25,36,120.0
2311,C4,357.0,0.25,36,120.0
2312,F4,357.0,0.25,36,120.0
2313,C4,357.5,0.25,31,120.0
2314,F4,357.5,0.25,31,120.0
2315,A3,357.5,0.25,31,120.0
2316,B-5,357.875,0.125,51,120.0
2317,A5,358.0,0.25,57,120.0
2318,F4,358.0,0.25,31,120.0
2319,A3,358.0,0.25,31,120.0
2320,C4,358.0,0.25,31,120.0
2321,G5,358.25,0.25,52,120.0
2322,A5,358.5,0.25,57,120.0
2323,A3,358.5,0.25,31,120.0
2324,C4,358.5,0.25,31,120.0
2325,F4,358.5,0.25,31,120.0
2326,C4,359.0,0.25,32,120.0
2327,A3,359.0,0.25,32,120.0
2328,F4,359.0,0.25,32,120.0
2329,D6,359.375,0.125,53,120.0
2330,C6,359.5,0.25,59,120.0
2331,A3,359.5,0.25,32,120.0
2332,F4,359.5,0.25,32,120.0
2333,C4,359.5,0.25,32,120.0
2334,B5,359.75,0.25,52,120.0
2335,C6,360.0,0.25,63,120.0
2336,A3,360.0,0.25,38,120.0
2337,C4,360.0,0.25,38,120.0
2338,F4,360.0,0.25,38,120.0
2339,F4,360.5,0.25,33,120.0
2340,A3,360.5,0.25,33,120.0
2341,C4,360.5,0.25,33,120.0
2342,F#6,360.875,0.125,55,120.0
2343,F6,361.0,0.25,60,120.0
2344,A3,361.0,0.25,33,120.0
2345,C4,361.0,0.25,33,120.0
2346,F4,361.0,0.25,33,120.0
2347,E6,361.25,0.25,55,120.0
2348,F6,361.5,0.25,61,120.0
2349,C4,361.5,0.25,33,120.0
2350,A3,361.5,0.25,33,120.0
2351,F4,361.5,0.25,33,120.0
2352,A3,362.0,0.25,31,120.0
2353,F4,362.0,0.25,31,120.0
2354,C4,362.0,0.25,31,120.0
2355,C#6,362.375,0.125,51,120.0
2356,C6,362.5,0.25,57,120.0
2357,A3,362.5,0.25,31,120.0
2358,C4,362.5,0.25,31,120.0
2359,F4,362.5,0.25,31,120.0
2360,B5,362.75,0.25,50,120.0
2361,C6,363.0,0.25,60,120.0
2362,F4,363.0,0.25,36,120.0
2363,A3,363.0,0.25,36,120.0
2364,C4,363.0,0.25,36,120.0
2365,A3,363.5,0.25,31,120.0
2366,C4,363.5,0.25,31,120.0
2367,F4,363.5,0.25,31,120.0
2368,B-5,363.875,0.125,51,120.0
2369,A5,364.0,0.25,56,120.0
2370,C4,364.0,0.25,31,120.0
2371,A3,364.0,0.25,31,120.0
2372,F4,364.0,0.25,31,120.0
2373,G5,364.25,0.25,51,120.0
2374,A5,364.5,0.25,56,120.0
2375,A3,364.5,0.25,31,120.0
2376,F4,364.5,0.25,31,120.0
2377,C4,364.5,0.25,31,120.0
2378,A3,365.0,0.25,31,120.0
2379,C4,365.0,0.25,31,120.0
2380,F4,365.0,0.25,31,120.0
2381,F#5,365.375,0.125,51,120.0
2382,F5,365.5,0.25,57,120.0
2383,F4,365.5,0.25,31,120.0
2384,A3,365.5,0.25,31,120.0
2385,C4,365.5,0.25,31,120.0
2386,E5,365.75,0.25,50,120.0
2387,F5,366.0,0.25,60,120.0
2388,C4,366.0,0.25,36,120.0
2389,A3,366.0,0.25,36,120.0
2390,F4,366.0,0.25,36,120.0
2391,C4,366.5,0.25,31,120.0
2392,A3,366.5,0.25,31,120.0
2393,F4,366.5,0.25,31,120.0
2394,C#5,366.875,0.125,51,120.0
2395,C5,367.0,0.25,56,120.0
2396,A3,367.0,0.25,31,120.0
2397,C4,367.0,0.25,31,120.0
2398,F4,367.0,0.25,31,120.0
2399,B4,367.25,0.25,51,120.0
2400,C5,367.5,0.5,56,120.0
2401,A3,367.5,0.5,31,120.0
2402,C4,367.5,0.5,31,120.0
2403,F4,367.5,0.5,31,120.0
2404,F3,368.0,0.5,35,120.0
2405,C#5,368.5,0.5,61,120.0
2406,E-3,368.5,0.5,35,120.0
2407,D5,369.0,1.5,56,120.0
2408,F4,369.0,0.25,35,120.0
2409,B-2,369.0,3.0,40,120.0
2410,D3,369.0,1.0,40,120.0
2411,G4,369.25,0.25,31,120.0
2412,F4,369.5,0.25,35,120.0
2413,G4,369.75,0.25,31,120.0
2414,F4,370.0,0.25,34,120.0
2415,G3,370.0,0.5,33,120.0
2416,G4,370.25,0.25,31,120.0
2417,F4,370.5,0.25,36,120.0
2418,B-4,370.5,1.5,55,120.0
2419,F3,370.5,1.0,42,120.0
2420,G4,370.75,0.25,32,120.0
2421,F4,371.0,0.25,36,120.0
2422,G4,371.25,0.25,31,120.0
2423,F4,371.5,0.25,37,120.0
2424,D3,371.5,0.5,39,120.0
2425,G4,371.75,0.25,31,120.0
2426,F4,372.0,0.25,37,120.0
2427,A4,372.0,1.5,59,120.0
2428,F2,372.0,3.0,42,120.0
2429,C3,372.0,1.0,42,120.0
2430,G4,372.25,0.25,33,120.0
2431,F4,372.5,0.25,37,120.0
2432,G4,372.75,0.25,33,120.0
2433,F4,373.0,0.25,37,120.0
2434,G3,373.0,0.5,36,120.0
2435,G4,373.25,0.25,34,120.0
2436,F4,373.5,0.25,38,120.0
2437,E-5,373.5,1.5,59,120.0
2438,F3,373.5,1.0,45,120.0
2439,G4,373.75,0.25,34,120.0
2440,F4,374.0,0.25,39,120.0
2441,G4,374.25,0.25,33,120.0
2442,F4,374.5,0.25,39,120.0
2443,C3,374.5,0.5,41,120.0
2444,G4,374.75,0.25,34,120.0
2445,F4,375.0,0.25,40,120.0
2446,D5,375.0,1.5,64,120.0
2447,B-2,375.0,3.0,46,120.0
2448,D3,375.0,1.0,46,120.0
2449,G4,375.25,0.25,35,120.0
2450,F4,375.5,0.25,39,120.0
2451,G4,375.75,0.25,35,120.0
2452,F4,376.0,0.25,38,120.0
2453,G3,376.0,0.5,37,120.0
2454,G4,376.25,0.25,34,120.0
2455,F4,376.5,0.25,39,120.0
2456,B-4,376.5,1.5,60,120.0
2457,F3,376.5,1.0,45,120.0
2458,G4,376.75,0.25,34,120.0
2459,F4,377.0,0.25,38,120.0
2460,G4,377.25,0.25,33,120.0
2461,F4,377.5,0.25,38,120.0
2462,D3,377.5,0.5,40,120.0
2463,G4,377.75,0.25,32,120.0
2464,F4,378.0,0.25,37,120.0
2465,A4,378.0,1.5,60,120.0
2466,F2,378.0,3.0,43,120.0
2467,C3,378.0,1.0,43,120.0
2468,G4,378.25,0.25,33,120.0
2469,F4,378.5,0.25,37,120.0
2470,G4,378.75,0.25,32,120.0
2471,F4,379.0,0.25,35,120.0
2472,G3,379.0,0.5,34,120.0
2473,G4,379.25,0.25,32,120.0
2474,F4,379.5,0.25,36,120.0
2475,E-5,379.5,1.5,56,120.0
2476,F3,379.5,1.0,42,120.0
2477,G4,379.75,0.25,32,120.0
2478,F4,380.0,0.25,36,120.0
2479,G4,380.25,0.25,30,120.0
2480,F4,380.5,0.25,35,120.0
2481,C3,380.5,0.5,37,120.0
2482,G4,380.75,0.25,30,120.0
2483,D5,381.0,0.25,51,120.0
2484,D3,381.0,0.25,37,120.0
2485,B-2,381.0,0.25,37,120.0
2486,F5,381.25,0.25,45,120.0
2487,G5,381.5,0.167,48,120.0
2488,D3,381.5,0.25,31,120.0
2489,F3,381.5,0.25,31,120.0
2490,B-3,381.5,0.25,31,120.0
2491,A5,381.667,0.167,50,120.0
2492,B-5,381.833,0.167,52,120.0
2493,C6,382.0,0.167,54,120.0
2494,D3,382.0,0.25,31,120.0
2495,F3,382.0,0.25,31,120.0
2496,B-3,382.0,0.25,31,120.0
2497,D6,382.167,0.167,56,120.0
2498,E-6,382.333,0.167,59,120.0
2499,F6,382.5,0.25,61,120.0
2500,D3,382.5,0.25,31,120.0
2501,F3,382.5,0.25,31,120.0
2502,B-3,382.5,0.25,31,120.0
2503,E-6,382.75,0.25,60,120.0
2504,D6,383.0,0.25,58,120.0
2505,D3,383.0,0.25,31,120.0
2506,F3,383.0,0.25,31,120.0
2507,B-3,383.0,0.25,31,120.0
2508,C6,383.25,0.25,57,120.0
2509,B-5,383.5,0.25,55,120.0
2510,D3,383.5,0.25,31,120.0
2511,F3,383.5,0.25,31,120.0
2512,B-3,383.5,0.25,31,120.0
2513,A5,383.75,0.25,54,120.0
2514,G5,384.0,0.25,51,120.0
2515,A5,384.25,0.25,45,120.0
2516,B-5,384.5,0.25,48,120.0
2517,E-3,384.5,0.25,31,120.0
2518,G3,384.5,0.25,31,120.0
2519,B-3,384.5,0.25,31,120.0
2520,C6,384.75,0.25,50,120.0
2521,D6,385.0,0.167,54,120.0
2522,E-3,385.0,0.25,31,120.0
2523,G3,385.0,0.25,31,120.0
2524,B-3,385.0,0.25,31,120.0
2525,E-6,385.167,0.167,56,120.0
2526,F6,385.333,0.167,59,120.0
2527,G6,385.5,0.25,61,120.0
2528,E-3,385.5,0.25,31,120.0
2529,G3,385.5,0.25,31,120.0
2530,B-3,385.5,0.25,31,120.0
2531,F6,385.75,0.25,60,120.0
2532,E-6,386.0,0.167,58,120.0
2533,E-3,386.0,0.25,31,120.0
2534,G3,386.0,0.25,31,120.0
2535,B-3,386.0,0.25,31,120.0
2536,D6,386.167,0.167,57,120.0
2537,C6,386.333,0.167,56,120.0
2538,B-5,386.5,0.167,55,120.0
2539,E-3,386.5,0.25,31,120.0
2540,G3,386.5,0.25,31,120.0
2541,C4,386.5,0.25,31,120.0
2542,A5,386.667,0.167,54,120.0
2543,G5,386.833,0.167,53,120.0
2544,F5,387.0,0.25,57,120.0
2545,D6,387.25,0.25,49,120.0
2546,B-5,387.5,0.25,59,120.0
2547,F3,387.5,0.25,31,120.0
2548,B-3,387.5,0.25,31,120.0
2549,D4,387.5,0.25,31,120.0
2550,F6,387.75,0.25,55,120.0
2551,D6,388.0,0.25,62,120.0
2552,F3,388.0,0.25,31,120.0
2553,B-3,388.0,0.25,31,120.0
2554,D4,388.0,0.25,31,120.0
2555,B-6,388.25,0.25,57,120.0
2556,F6,388.5,0.167,62,120.0
2557,F3,388.5,0.25,31,120.0
2558,B-3,388.5,0.25,31,120.0
2559,D4,388.5,0.25,31,120.0
2560,D7,388.667,0.167,57,120.0
2561,B-6,388.833,0.167,55,120.0
2562,F7,389.0,0.167,61,120.0
2563,F3,389.0,0.25,31,120.0
2564,B-3,389.0,0.25,31,120.0
2565,D4,389.0,0.25,31,120.0
2566,D7,389.167,0.167,53,120.0
2567,B-6,389.333,0.167,54,120.0
2568,F6,389.5,0.167,59,120.0
2569,F3,389.5,0.25,31,120.0
2570,B-3,389.5,0.25,31,120.0
2571,D4,389.5,0.25,31,120.0
2572,D6,389.667,0.167,53,120.0
2573,B-5,389.833,0.167,53,120.0
2574,F5,390.0,1.0,59,120.0
2575,D4,390.0,0.25,31,120.0
2576,F3,390.0,0.25,31,120.0
2577,B-3,390.0,0.25,31,120.0
2578,F3,390.5,0.25,31,120.0
2579,B-3,390.5,0.25,31,120.0
2580,D4,390.5,0.25,31,120.0
2581,D4,391.0,0.25,31,120.0
2582,B-3,391.0,0.25,31,120.0
2583,F3,391.0,0.25,31,120.0
2584,C6,391.5,0.167,59,120.0
2585,F3,391.5,0.25,31,120.0
2586,A3,391.5,0.25,31,120.0
2587,E-4,391.5,0.25,31,120.0
2588,D6,391.667,0.167,52,120.0
2589,C6,391.833,0.167,59,120.0
2590,D6,392.0,0.167,54,120.0
2591,F3,392.0,0.25,31,120.0
2592,A3,392.0,0.25,31,120.0
2593,E-4,392.0,0.25,31,120.0
2594,C6,392.167,0.167,59,120.0
2595,D6,392.333,0.167,53,120.0
2596,C6,392.5,0.167,59,120.0
2597,F3,392.5,0.25,31,120.0
2598,A3,392.5,0.25,31,120.0
2599,E-4,392.5,0.25,31,120.0
2600,D6,392.667,0.167,53,120.0
2601,C6,392.833,0.167,56,120.0
2602,D6,393.0,1.5,61,120.0
2603,F5,393.0,0.25,41,120.0
2604,B-3,393.0,3.0,40,120.0
2605,D4,393.0,1.0,40,120.0
2606,G5,393.25,0.25,31,120.0
2607,F5,393.5,0.25,35,120.0
2608,G5,393.75,0.25,31,120.0
2609,F5,394.0,0.25,34,120.0
2610,G4,394.0,0.5,33,120.0
2611,G5,394.25,0.25,31,120.0
2612,F5,394.5,0.25,36,120.0
2613,B-5,394.5,1.5,55,120.0
2614,F4,394.5,1.0,42,120.0
2615,G5,394.75,0.25,32,120.0
2616,F5,395.0,0.25,36,120.0
2617,G5,395.25,0.25,31,120.0
2618,F5,395.5,0.25,37,120.0
2619,D4,395.5,0.5,39,120.0
2620,G5,395.75,0.25,31,120.0
2621,F5,396.0,0.25,37,120.0
2622,A5,396.0,1.5,59,120.0
2623,F3,396.0,3.0,42,120.0
2624,C4,396.0,1.0,42,120.0
2625,G5,396.25,0.25,33,120.0
2626,F5,396.5,0.25,37,120.0
2627,G5,396.75,0.25,33,120.0
2628,F5,397.0,0.25,37,120.0
2629,G4,397.0,0.5,36,120.0
2630,G5,397.25,0.25,34,120.0
2631,F5,397.5,0.25,38,120.0
2632,E-6,397.5,1.5,59,120.0
2633,F4,397.5,1.0,45,120.0
2634,G5,397.75,0.25,34,120.0
2635,F5,398.0,0.25,39,120.0
2636,G5,398.25,0.25,33,120.0
2637,F5,398.5,0.25,39,120.0
2638,C4,398.5,0.5,41,120.0
2639,G5,398.75,0.25,34,120.0
2640,F5,399.0,0.25,40,120.0
2641,D6,399.0,1.5,64,120.0
2642,B-3,399.0,3.0,46,120.0
2643,D4,399.0,1.0,46,120.0
2644,G5,399.25,0.25,35,120.0
2645,F5,399.5,0.25,39,120.0
2646,G5,399.75,0.25,35,120.0
2647,F5,400.0,0.25,38,120.0
2648,G4,400.0,0.5,37,120.0
2649,G5,400.25,0.25,34,120.0
2650,B-5,400.5,1.5,60,120.0
2651,F5,400.5,0.25,39,120.0
2652,F4,400.5,1.0,45,120.0
2653,G5,400.75,0.25,34,120.0
2654,F5,401.0,0.25,38,120.0
2655,G5,401.25,0.25,33,120.0
2656,F5,401.5,0.25,38,120.0
2657,D4,401.5,0.5,40,120.0
2658,G5,401.75,0.25,32,120.0
2659,F5,402.0,0.25,37,120.0
2660,A5,402.0,1.5,60,120.0
2661,F3,402.0,3.0,43,120.0
2662,C4,402.0,1.0,43,120.0
2663,G5,402.25,0.25,33,120.0
2664,F5,402.5,0.25,37,120.0
2665,G5,402.75,0.25,32,120.0
2666,F5,403.0,0.25,35,120.0
2667,G4,403.0,0.5,34,120.0
2668,G5,403.25,0.25,32,120.0
2669,E-6,403.5,1.5,56,120.0
2670,F5,403.5,0.25,36,120.0
2671,F4,403.5,1.0,42,120.0
2672,G5,403.75,0.25,32,120.0
2673,F5,404.0,0.25,36,120.0
2674,G5,404.25,0.25,30,120.0
2675,F5,404.5,0.25,35,120.0
2676,C4,404.5,0.5,37,120.0
2677,G5,404.75,0.25,30,120.0
2678,D4,405.0,0.25,51,120.0
2679,F4,405.0,0.25,51,120.0
2680,G4,405.25,0.25,45,120.0
2681,A4,405.5,0.25,50,120.0
2682,D6,405.5,0.25,45,120.0
2683,B-5,405.5,0.25,45,120.0
2684,B-4,405.75,0.25,52,120.0
2685,C5,406.0,0.167,54,120.0
2686,D6,406.0,0.25,45,120.0
2687,B-5,406.0,0.25,45,120.0
2688,D5,406.167,0.167,56,120.0
2689,E-5,406.333,0.167,59,120.0
2690,F5,406.5,0.25,61,120.0
2691,D6,406.5,0.25,48,120.0
2692,B-5,406.5,0.25,48,120.0
2693,E-5,406.75,0.25,60,120.0
2694,D5,407.0,0.25,58,120.0
2695,D6,407.0,0.25,42,120.0
2696,B-5,407.0,0.25,42,120.0
2697,C5,407.25,0.25,57,120.0
2698,B-4,407.5,0.25,55,120.0
2699,D6,407.5,0.25,42,120.0
2700,B-5,407.5,0.25,42,120.0
2701,A4,407.75,0.25,54,120.0
2702,E-4,408.0,0.25,51,120.0
2703,G4,408.0,0.25,51,120.0
2704,A4,408.25,0.25,45,120.0
2705,B-4,408.5,0.25,48,120.0
2706,C6,408.5,0.25,45,120.0
2707,B-5,408.5,0.25,45,120.0
2708,C5,408.75,0.25,50,120.0
2709,D5,409.0,0.167,55,120.0
2710,B-5,409.0,0.25,45,120.0
2711,C6,409.0,0.25,45,120.0
2712,E-5,409.167,0.167,57,120.0
2713,F5,409.333,0.167,60,120.0
2714,G5,409.5,0.25,62,120.0
2715,B-5,409.5,0.25,49,120.0
2716,C6,409.5,0.25,49,120.0
2717,F5,409.75,0.25,62,120.0
2718,E-5,410.0,0.167,60,120.0
2719,C6,410.0,0.25,44,120.0
2720,B-5,410.0,0.25,44,120.0
2721,D5,410.167,0.167,59,120.0
2722,C5,410.333,0.167,58,120.0
2723,B-4,410.5,0.167,58,120.0
2724,C6,410.5,0.25,46,120.0
2725,B-5,410.5,0.25,46,120.0
2726,A4,410.667,0.167,57,120.0
2727,G4,410.833,0.167,56,120.0
2728,F4,411.0,0.25,60,120.0
2729,F3,411.25,0.25,52,120.0
2730,B-3,411.5,0.25,63,120.0
2731,D6,411.5,0.25,48,120.0
2732,B-5,411.5,0.25,48,120.0
2733,D4,411.75,0.25,59,120.0
2734,F4,412.0,0.25,68,120.0
2735,D6,412.0,0.25,49,120.0
2736,B-5,412.0,0.25,49,120.0
2737,B-4,412.25,0.25,62,120.0
2738,D5,412.5,0.25,63,120.0
2739,D6,412.5,0.25,52,120.0
2740,B-5,412.5,0.25,52,120.0
2741,B-4,412.75,0.25,54,120.0
2742,F5,413.0,0.25,66,120.0
2743,D6,413.0,0.25,47,120.0
2744,B-5,413.0,0.25,47,120.0
2745,D5,413.25,0.25,62,120.0
2746,B-4,413.5,0.25,70,120.0
2747,F6,413.5,0.25,48,120.0
2748,B-5,413.5,0.25,48,120.0
2749,D6,413.5,0.25,48,120.0
2750,D5,413.75,0.25,64,120.0
2751,C5,414.0,0.167,67,120.0
2752,F4,414.0,0.5,60,120.0
2753,E-6,414.0,0.25,59,120.0
2754,A5,414.0,0.25,59,120.0
2755,F6,414.0,0.25,59,120.0
2756,D5,414.167,0.167,59,120.0
2757,C5,414.333,0.167,67,120.0
2758,D5,414.5,0.167,61,120.0
2759,F6,414.5,0.25,46,120.0
2760,A5,414.5,0.25,46,120.0
2761,E-6,414.5,0.25,46,120.0
2762,C5,414.667,0.167,66,120.0
2763,D5,414.833,0.167,59,120.0
2764,C5,415.0,0.167,66,120.0
2765,E-6,415.0,0.25,45,120.0
2766,F6,415.0,0.25,45,120.0
2767,A5,415.0,0.25,45,120.0
2768,D5,415.167,0.167,59,120.0
2769,C5,415.333,0.167,62,120.0
2770,D5,415.5,0.167,56,120.0
2771,F6,415.5,0.25,53,120.0
2772,A5,415.5,0.25,53,120.0
2773,E-6,415.5,0.25,53,120.0
2774,C5,415.667,0.167,63,120.0
2775,D5,415.833,0.167,55,120.0
2776,C5,416.0,0.167,63,120.0
2777,E-6,416.0,0.25,45,120.0
2778,F6,416.0,0.25,45,120.0
2779,A5,416.0,0.25,45,120.0
2780,D5,416.167,0.167,55,120.0
2781,C5,416.333,0.167,63,120.0
2782,D5,416.5,0.167,55,120.0
2783,F6,416.5,0.25,44,120.0
2784,A5,416.5,0.25,44,120.0
2785,E-6,416.5,0.25,44,120.0
2786,C5,416.667,0.167,63,120.0
2787,D5,416.833,0.167,59,120.0
2788,F4,417.0,0.25,62,120.0
2789,B4,417.25,0.25,55,120.0
2790,C5,417.5,0.25,58,120.0
2791,D5,417.75,0.25,60,120.0
2792,C5,418.0,0.25,58,120.0
2793,G#5,418.0,1.5,76,120.0
2794,G#6,418.0,1.5,76,120.0
2795,B4,418.25,0.25,58,120.0
2796,E-4,418.5,0.25,61,120.0
2797,C5,418.75,0.25,56,120.0
2798,D5,419.0,0.25,59,120.0
2799,E-5,419.25,0.25,61,120.0
2800,D5,419.5,0.25,57,120.0
2801,G5,419.5,0.5,72,120.0
2802,G6,419.5,0.5,72,120.0
2803,C5,419.75,0.25,57,120.0
2804,E-4,420.012,0.25,62,120.0
2805,A4,420.25,0.25,55,120.0
2806,B-4,420.5,0.25,58,120.0
2807,C5,420.74,0.25,60,120.0
2808,B-4,421.0,0.25,59,120.0
2809,F#5,421.0,1.5,75,120.0
2810,F#6,421.0,1.5,75,120.0
2811,A4,421.25,0.25,59,120.0
2812,D4,421.5,0.25,62,120.0
2813,B-4,421.75,0.25,57,120.0
2814,C5,422.0,0.25,61,120.0
2815,D5,422.25,0.25,64,120.0
2816,C5,422.5,0.25,59,120.0
2817,F5,422.5,0.5,74,120.0
2818,F6,422.5,0.5,74,120.0
2819,B-4,422.75,0.25,60,120.0
2820,F3,423.012,0.25,65,120.0
2821,B3,423.25,0.25,58,120.0
2822,C4,423.5,0.25,62,120.0
2823,D4,423.74,0.25,64,120.0
2824,C4,424.0,0.25,62,120.0
2825,G#4,424.0,1.5,80,120.0
2826,G#5,424.0,1.5,80,120.0
2827,B3,424.25,0.25,63,120.0
2828,E-3,424.5,0.25,67,120.0
2829,C4,424.75,0.25,61,120.0
2830,D4,425.0,0.25,65,120.0
2831,E-4,425.25,0.25,67,120.0
2832,D4,425.5,0.25,63,120.0
2833,G4,425.5,0.5,78,120.0
2834,G5,425.5,0.5,78,120.0
2835,C4,425.75,0.25,63,120.0
2836,E-3,426.012,0.25,70,120.0
2837,A3,426.25,0.25,62,120.0
2838,B-3,426.5,0.25,66,120.0
2839,C4,426.74,0.25,68,120.0
2840,B-3,427.0,0.25,66,120.0
2841,F#4,427.0,1.5,85,120.0
2842,F#5,427.0,1.5,85,120.0
2843,A3,427.25,0.25,67,120.0
2844,D3,427.5,0.25,70,120.0
2845,B-3,427.75,0.25,65,120.0
2846,C4,428.0,0.25,69,120.0
2847,D4,428.25,0.25,71,120.0
2848,C4,428.5,0.25,67,120.0
2849,F4,428.5,0.5,82,120.0
2850,F5,428.5,0.5,82,120.0
2851,B-3,428.75,0.25,67,120.0
2852,D3,429.0,0.25,70,120.0
2853,F3,429.25,0.25,62,120.0
2854,B-3,429.5,0.25,66,120.0
2855,B-4,429.5,0.25,64,120.0
2856,F5,429.5,0.25,64,120.0
2857,F4,429.5,0.25,64,120.0
2858,D4,429.75,0.25,68,120.0
2859,B-3,430.0,0.25,66,120.0
2860,F4,430.0,0.25,61,120.0
2861,F5,430.0,0.25,61,120.0
2862,B-4,430.0,0.25,61,120.0
2863,F3,430.25,0.25,63,120.0
2864,G2,430.5,0.25,70,120.0
2865,B-2,430.75,0.25,65,120.0
2866,D3,431.0,0.25,69,120.0
2867,B-4,431.0,0.25,62,120.0
2868,E-5,431.0,0.25,62,120.0
2869,G4,431.0,0.25,62,120.0
2870,G3,431.25,0.25,71,120.0
2871,D3,431.5,0.25,67,120.0
2872,D5,431.5,0.25,58,120.0
2873,G4,431.5,0.25,58,120.0
2874,B-4,431.5,0.25,58,120.0
2875,B-2,431.75,0.25,64,120.0
2876,E-2,432.0,0.25,70,120.0
2877,G2,432.25,0.25,62,120.0
2878,C3,432.5,0.25,66,120.0
2879,E-4,432.5,0.25,64,120.0
2880,D5,432.5,0.25,64,120.0
2881,G4,432.5,0.25,64,120.0
2882,E-3,432.75,0.25,68,120.0
2883,C3,433.0,0.25,66,120.0
2884,C5,433.0,0.25,61,120.0
2885,G4,433.0,0.25,61,120.0
2886,E-4,433.0,0.25,61,120.0
2887,G2,433.25,0.25,63,120.0
2888,F2,433.5,0.25,70,120.0
2889,C3,433.75,0.25,65,120.0
2890,E-3,434.0,0.25,69,120.0
2891,B-4,434.0,0.25,62,120.0
2892,E-4,434.0,0.25,62,120.0
2893,C4,434.0,0.25,62,120.0
2894,F3,434.25,0.25,71,120.0
2895,E-3,434.5,0.25,67,120.0
2896,A4,434.5,0.25,58,120.0
2897,E-4,434.5,0.25,58,120.0
2898,C4,434.5,0.25,58,120.0
2899,C3,434.75,0.25,64,120.0
2900,D2,435.0,0.25,70,120.0
2901,F2,435.25,0.25,62,120.0
2902,B-2,435.5,0.25,66,120.0
2903,B-4,435.5,0.25,64,120.0
2904,F4,435.5,0.25,64,120.0
2905,B-3,435.5,0.25,64,120.0
2906,D3,435.75,0.25,68,120.0
2907,B-2,436.0,0.25,67,120.0
2908,F4,436.0,0.25,62,120.0
2909,D4,436.0,0.25,62,120.0
2910,B-3,436.0,0.25,62,120.0
2911,F2,436.25,0.25,64,120.0
2912,G1,436.5,0.25,72,120.0
2913,B-1,436.75,0.25,67,120.0
2914,D2,437.0,0.25,72,120.0
2915,G3,437.0,0.25,69,120.0
2916,E-4,437.0,0.25,69,120.0
2917,B-3,437.0,0.25,69,120.0
2918,G2,437.25,0.25,74,120.0
2919,D2,437.5,0.25,71,120.0
2920,D4,437.5,0.25,61,120.0
2921,B-3,437.5,0.25,61,120.0
2922,G3,437.5,0.25,61,120.0
2923,B-1,437.75,0.25,67,120.0
2924,E-2,438.0,0.25,74,120.0
2925,G2,438.25,0.25,66,120.0
2926,C3,438.5,0.25,71,120.0
2927,D4,438.5,0.25,68,120.0
2928,G3,438.5,0.25,68,120.0
2929,E-3,438.5,0.25,68,120.0
2930,G2,438.75,0.25,74,120.0
2931,E-2,439.0,0.5,72,120.0
2932,C4,439.0,0.25,66,120.0
2933,G3,439.0,0.25,66,120.0
2934,E-3,439.0,0.25,66,120.0
2935,F1,439.5,0.25,77,120.0
2936,C2,439.75,0.25,72,120.0
2937,E-2,440.0,0.25,77,120.0
2938,C3,440.0,0.25,73,120.0
2939,E-3,440.0,0.25,73,120.0
2940,B-3,440.0,0.25,73,120.0
2941,F2,440.25,0.25,80,120.0
2942,F1,440.5,0.25,75,120.0
2943,E-3,440.5,0.25,66,120.0
2944,A3,440.5,0.25,66,120.0
2945,C3,440.5,0.25,66,120.0
2946,F2,440.75,0.25,72,120.0
2947,B-2,441.0,0.25,62,120.0
2948,B-1,441.0,0.25,75,120.0
2949,C3,441.25,0.25,63,120.0
2950,D3,441.5,0.25,65,120.0
2951,B-2,441.5,0.25,75,120.0
2952,E-3,441.75,0.25,66,120.0
2953,F3,442.0,0.167,67,120.0
2954,B-2,442.0,0.25,70,120.0
2955,D3,442.0,0.25,70,120.0
2956,G3,442.167,0.167,68,120.0
2957,A3,442.333,0.167,68,120.0
2958,B-3,442.5,0.167,69,120.0
2959,B-2,442.5,1.0,74,120.0
2960,D3,442.5,1.0,74,120.0
2961,F3,442.5,1.0,74,120.0
2962,C4,442.667,0.167,70,120.0
2963,D4,442.833,0.167,71,120.0
2964,E-4,443.0,0.167,72,120.0
2965,F4,443.167,0.167,72,120.0
2966,G4,443.333,0.167,73,120.0
2967,A4,443.5,0.25,85,120.0
2968,C3,443.5,0.25,64,120.0
2969,F2,443.5,0.25,64,120.0
2970,F3,443.5,0.25,64,120.0
2971,A3,443.75,0.25,67,120.0
2972,B-3,444.0,0.25,62,120.0
2973,B-2,444.0,0.25,71,120.0
2974,F3,444.0,0.25,71,120.0
2975,D3,444.0,0.25,71,120.0
2976,C4,444.25,0.25,63,120.0
2977,D4,444.5,0.25,65,120.0
2978,B-2,444.5,0.25,67,120.0
2979,D3,444.5,0.25,67,120.0
2980,F3,444.5,0.25,67,120.0
2981,E-4,444.75,0.25,66,120.0
2982,F4,445.0,0.167,67,120.0
2983,F3,445.0,0.25,66,120.0
2984,B-2,445.0,0.25,66,120.0
2985,D3,445.0,0.25,66,120.0
2986,G4,445.167,0.167,68,120.0
2987,A4,445.333,0.167,68,120.0
2988,B-4,445.5,0.167,69,120.0
2989,B-2,445.5,1.0,73,120.0
2990,D3,445.5,1.0,73,120.0
2991,F3,445.5,1.0,73,120.0
2992,C5,445.667,0.167,70,120.0
2993,D5,445.833,0.167,71,120.0
2994,E-5,446.0,0.167,72,120.0
2995,F5,446.167,0.167,72,120.0
2996,G5,446.333,0.167,73,120.0
2997,A5,446.5,0.25,85,120.0
2998,C3,446.5,0.25,67,120.0
2999,F2,446.5,0.25,67,120.0
3000,F3,446.5,0.25,67,120.0
3001,A4,446.75,0.25,67,120.0
3002,B-4,447.0,0.25,62,120.0
3003,B-2,447.0,0.25,68,120.0
3004,F3,447.0,0.25,68,120.0
3005,D3,447.0,0.25,68,120.0
3006,C5,447.25,0.25,63,120.0
3007,D5,447.5,0.25,65,120.0
3008,B-2,447.5,0.25,67,120.0
3009,D3,447.5,0.25,67,120.0
3010,F3,447.5,0.25,67,120.0
3011,E-5,447.75,0.25,66,120.0
3012,F5,448.0,0.167,68,120.0
3013,F3,448.0,0.25,65,120.0
3014,B-2,448.0,0.25,65,120.0
3015,D3,448.0,0.25,65,120.0
3016,G5,448.167,0.167,70,120.0
3017,A5,448.333,0.167,72,120.0
3018,B-5,448.5,0.25,74,120.0
3019,B-2,448.5,1.0,74,120.0
3020,D3,448.5,1.0,74,120.0
3021,F3,448.5,1.0,74,120.0
3022,C6,448.75,0.25,75,120.0
3023,D6,449.0,0.167,77,120.0
3024,E-6,449.167,0.167,79,120.0
3025,F6,449.333,0.167,81,120.0
3026,G6,449.5,0.167,83,120.0
3027,C3,449.5,0.25,67,120.0
3028,F2,449.5,0.25,67,120.0
3029,F3,449.5,0.25,67,120.0
3030,A6,449.667,0.167,92,120.0
3031,A5,449.833,0.167,85,120.0
3032,B-5,450.0,1.0,97,120.0
3033,B-6,450.0,1.0,97,120.0
3034,B-2,450.0,1.0,72,120.0
3035,B-3,450.0,1.0,72,120.0
3036,D3,450.0,1.0,72,120.0
3037,F3,450.0,1.0,72,120.0
3038,B-5,451.5,1.0,80,120.0
3039,F5,451.5,1.0,80,120.0
3040,D5,451.5,1.0,80,120.0
3041,B-2,451.5,1.0,72,120.0
3042,D3,451.5,1.0,72,120.0
3043,B-3,451.5,1.0,72,120.0
3044,F3,451.5,1.0,72,120.0
3045,D4,453.0,1.0,79,120.0
3046,F4,453.0,1.0,79,120.0
3047,B-4,453.0,1.0,79,120.0
3048,B-2,453.0,1.0,72,120.0
3049,D3,453.0,1.0,72,120.0
3050,F3,453.0,1.0,72,120.0
3051,B-3,453.0,1.0,72,120.0
3052,B-4,455.5,0.25,45,120.0
3053,B-4,456.0,0.375,57,120.0
3054,F#4,456.5,0.25,45,120.0
3055,E-4,457.0,0.25,45,120.0
3056,B-3,457.5,0.375,56,120.0
3057,F#3,458.0,0.25,45,120.0
3058,E-3,458.5,0.25,45,120.0
3059,B-2,459.0,0.375,51,120.0
3060,F#2,459.5,0.25,45,120.0
3061,E-2,460.0,0.25,45,120.0
3062,B-5,461.5,0.5,54,120.0
3063,B-4,461.5,0.5,54,120.0
3064,B-5,462.0,1.5,54,120.0
3065,B-4,462.0,1.5,54,120.0
3066,F#4,462.5,0.25,47,120.0
3067,E-4,462.5,0.25,47,120.0
3068,F#4,463.0,0.25,47,120.0
3069,E-4,463.0,0.25,47,120.0
3070,B4,463.5,1.5,57,120.0
3071,B5,463.5,1.5,57,120.0
3072,E-4,463.5,0.25,50,120.0
3073,F#4,463.5,0.25,50,120.0
3074,E-4,464.0,0.25,47,120.0
3075,F#4,464.0,0.25,47,120.0
3076,F#4,464.5,0.25,47,120.0
3077,E-4,464.5,0.25,47,120.0
3078,C5,465.0,1.5,64,120.0
3079,C6,465.0,1.5,64,120.0
3080,F#4,465.0,0.25,53,120.0
3081,E-4,465.0,0.25,53,120.0
3082,G#4,465.0,0.25,53,120.0
3083,F#4,465.5,0.25,46,120.0
3084,E-4,465.5,0.25,46,120.0
3085,G#4,465.5,0.25,46,120.0
3086,E-4,466.0,0.25,46,120.0
3087,G#4,466.0,0.25,46,120.0
3088,F#4,466.0,0.25,46,120.0
3089,C#6,466.5,1.0,55,120.0
3090,C#5,466.5,1.0,55,120.0
3091,C#4,466.5,0.25,50,120.0
3092,G#4,466.5,0.25,50,120.0
3093,F4,466.5,0.25,50,120.0
3094,F4,467.0,0.25,47,120.0
3095,G#4,467.0,0.25,47,120.0
3096,C#4,467.0,0.25,47,120.0
3097,C#5,467.5,0.25,45,120.0
3098,F4,467.5,0.25,29,120.0
3099,C#4,467.5,0.25,29,120.0
3100,G#4,467.5,0.25,29,120.0
3101,C#5,468.0,0.375,59,120.0
3102,B-4,468.5,0.25,45,120.0
3103,F#4,469.0,0.25,45,120.0
3104,C#4,469.5,0.375,56,120.0
3105,B-3,470.0,0.25,45,120.0
3106,F#3,470.5,0.25,45,120.0
3107,C#3,471.0,0.375,51,120.0
3108,B-2,471.5,0.25,45,120.0
3109,F#2,472.0,0.25,45,120.0
3110,C#5,473.5,0.496,54,120.0
3111,C#6,473.5,0.496,54,120.0
3112,C#6,474.0,1.5,54,120.0
3113,C#5,474.0,1.5,54,120.0
3114,F#4,474.5,0.25,47,120.0
3115,B-4,474.5,0.25,47,120.0
3116,F#4,475.0,0.25,47,120.0
3117,B-4,475.0,0.25,47,120.0
3118,E-5,475.5,3.0,57,120.0
3119,E-6,475.5,3.0,57,120.0
3120,B4,475.5,0.25,50,120.0
3121,F#4,475.5,0.25,50,120.0
3122,B4,476.0,0.25,47,120.0
3123,F#4,476.0,0.25,47,120.0
3124,B4,476.5,0.25,47,120.0
3125,F#4,476.5,0.25,47,120.0
3126,F#4,477.0,0.25,51,120.0
3127,C5,477.0,0.25,51,120.0
3128,F#4,477.5,0.25,47,120.0
3129,C5,477.5,0.25,47,120.0
3130,C5,478.0,0.25,48,120.0
3131,F#4,478.0,0.25,48,120.0
3132,E5,478.5,3.0,55,120.0
3133,E6,478.5,3.0,55,120.0
3134,C#5,478.5,0.25,52,120.0
3135,F#4,478.5,0.25,52,120.0
3136,C#5,479.0,0.25,48,120.0
3137,F#4,479.0,0.25,48,120.0
3138,F#4,479.5,0.25,48,120.0
3139,C#5,479.5,0.25,48,120.0
3140,F#4,480.0,0.25,53,120.0
3141,C#5,480.0,0.25,53,120.0
3142,C#5,480.5,0.25,48,120.0
3143,F#4,480.5,0.25,48,120.0
3144,C#5,481.0,0.25,50,120.0
3145,F#4,481.0,0.25,50,120.0
3146,F#6,481.5,1.5,60,120.0
3147,F#5,481.5,1.5,60,120.0
3148,E-5,481.5,0.25,55,120.0
3149,F#4,481.5,0.25,55,120.0
3150,F#4,482.0,0.25,48,120.0
3151,E-5,482.0,0.25,48,120.0
3152,F#4,482.5,0.25,49,120.0
3153,E-5,482.5,0.25,49,120.0
3154,G6,483.0,1.5,62,120.0
3155,G5,483.0,1.5,62,120.0
3156,E5,483.0,0.25,57,120.0
3157,F#4,483.0,0.25,57,120.0
3158,E5,483.5,0.25,52,120.0
3159,F#4,483.5,0.25,52,120.0
3160,E5,484.0,0.25,52,120.0
3161,F#4,484.0,0.25,52,120.0
3162,G#6,484.5,3.0,64,120.0
3163,G#5,484.5,3.0,64,120.0
3164,F#4,484.5,0.25,59,120.0
3165,E5,484.5,0.25,59,120.0
3166,F#4,485.0,0.25,54,120.0
3167,E5,485.0,0.25,54,120.0
3168,E5,485.5,0.25,54,120.0
3169,F#4,485.5,0.25,54,120.0
3170,E5,486.0,0.25,62,120.0
3171,F#4,486.0,0.25,62,120.0
3172,E5,486.5,0.25,52,120.0
3173,F#4,486.5,0.25,52,120.0
3174,F#4,487.0,0.25,50,120.0
3175,E5,487.0,0.25,50,120.0
3176,F#6,487.5,1.5,62,120.0
3177,F#5,487.5,1.5,62,120.0
3178,F#4,487.5,0.25,58,120.0
3179,E-5,487.5,0.25,58,120.0
3180,E-5,488.0,0.25,52,120.0
3181,F#4,488.0,0.25,52,120.0
3182,E-5,488.5,0.25,52,120.0
3183,F#4,488.5,0.25,52,120.0
3184,E5,489.0,1.5,63,120.0
3185,E6,489.0,1.5,63,120.0
3186,C#5,489.0,0.25,54,120.0
3187,F#4,489.0,0.25,54,120.0
3188,F#4,489.5,0.25,47,120.0
3189,C#5,489.5,0.25,47,120.0
3190,F#4,490.0,0.25,46,120.0
3191,C#5,490.0,0.25,46,120.0
3192,C#5,490.5,1.5,54,120.0
3193,C#6,490.5,1.5,54,120.0
3194,F#4,490.5,0.25,43,120.0
3195,E4,490.5,0.25,43,120.0
3196,B-4,490.5,0.25,43,120.0
3197,E4,491.0,0.25,38,120.0
3198,B-4,491.0,0.25,38,120.0
3199,F#4,491.0,0.25,38,120.0
3200,E4,491.5,0.25,37,120.0
3201,B-4,491.5,0.25,37,120.0
3202,F#4,491.5,0.25,37,120.0
3203,E-5,492.0,1.0,54,120.0
3204,E-6,492.0,3.0,54,120.0
3205,F#4,492.0,0.25,46,120.0
3206,E-4,492.0,1.5,38,120.0
3207,G#4,492.25,0.25,31,120.0
3208,F#4,492.5,0.25,36,120.0
3209,G#4,492.75,0.25,32,120.0
3210,G#5,493.0,0.5,52,120.0
3211,F#4,493.0,0.25,36,120.0
3212,G#4,493.25,0.25,33,120.0
3213,F#5,493.5,1.0,62,120.0
3214,F#4,493.5,0.25,48,120.0
3215,B3,493.5,1.5,41,120.0
3216,G#4,493.75,0.25,35,120.0
3217,F#4,494.0,0.25,40,120.0
3218,G#4,494.25,0.25,35,120.0
3219,E-5,494.5,0.5,55,120.0
3220,F#4,494.5,0.25,42,120.0
3221,G#4,494.75,0.25,36,120.0
3222,C#6,495.0,3.0,62,120.0
3223,C#5,495.0,1.0,62,120.0
3224,F#4,495.0,0.25,52,120.0
3225,B-3,495.0,1.5,43,120.0
3226,G#4,495.25,0.25,35,120.0
3227,F#4,495.5,0.25,39,120.0
3228,G#4,495.75,0.25,34,120.0
3229,G#5,496.0,0.5,54,120.0
3230,F#4,496.0,0.25,37,120.0
3231,G#4,496.25,0.25,33,120.0
3232,F#5,496.5,1.0,61,120.0
3233,F#4,496.5,0.25,47,120.0
3234,E4,496.5,1.5,41,120.0
3235,G#4,496.75,0.25,34,120.0
3236,F#4,497.0,0.25,37,120.0
3237,G#4,497.25,0.25,32,120.0
3238,C#5,497.5,0.5,49,120.0
3239,F#4,497.5,0.25,38,120.0
3240,G#4,497.75,0.25,31,120.0
3241,E-6,498.0,1.5,41,120.0
3242,F#5,498.0,0.25,50,120.0
3243,B3,498.0,3.0,48,120.0
3244,E-4,498.0,1.0,48,120.0
3245,G#5,498.25,0.25,34,120.0
3246,F#5,498.5,0.25,39,120.0
3247,G#5,498.75,0.25,35,120.0
3248,F#5,499.0,0.25,39,120.0
3249,G#4,499.0,0.5,45,120.0
3250,G#5,499.25,0.25,36,120.0
3251,F#5,499.5,0.25,52,120.0
3252,B5,499.5,1.5,45,120.0
3253,F#4,499.5,1.0,54,120.0
3254,G#5,499.75,0.25,38,120.0
3255,F#5,500.0,0.25,44,120.0
3256,G#5,500.25,0.25,38,120.0
3257,F#5,500.5,0.25,46,120.0
3258,E-4,500.5,0.5,49,120.0
3259,G#5,500.75,0.25,39,120.0
3260,B-5,501.0,1.5,47,120.0
3261,F#5,501.0,0.25,57,120.0
3262,F#3,501.0,1.5,46,120.0
3263,C#4,501.0,1.0,55,120.0
3264,G#5,501.25,0.25,38,120.0
3265,F#5,501.5,0.25,42,120.0
3266,G#5,501.75,0.25,37,120.0
3267,F#5,502.0,0.25,40,120.0
3268,G#4,502.0,0.5,46,120.0
3269,G#5,502.25,0.25,36,120.0
3270,F#6,502.5,1.5,45,120.0
3271,F#5,502.5,0.25,51,120.0
3272,E3,502.5,1.5,45,120.0
3273,F#4,502.5,1.0,53,120.0
3274,G#5,502.75,0.25,37,120.0
3275,F#5,503.0,0.25,40,120.0
3276,G#5,503.25,0.25,35,120.0
3277,F#5,503.5,0.25,41,120.0
3278,C#4,503.5,0.5,44,120.0
3279,G#5,503.75,0.25,34,120.0
3280,E-3,504.0,0.25,35,120.0
3281,F#6,504.0,1.5,48,120.0
3282,F#5,504.0,1.5,48,120.0
3283,B3,504.25,0.25,27,120.0
3284,E-3,504.5,0.25,31,120.0
3285,B3,504.75,0.25,26,120.0
3286,E-3,505.0,0.25,31,120.0
3287,B3,505.25,0.25,27,120.0
3288,D3,505.5,0.25,37,120.0
3289,F#5,505.5,1.5,44,120.0
3290,F#4,505.5,1.5,44,120.0
3291,C4,505.75,0.25,27,120.0
3292,D3,506.0,0.25,31,120.0
3293,C4,506.25,0.25,27,120.0
3294,D3,506.5,0.25,31,120.0
3295,C4,506.75,0.25,27,120.0
3296,C3,507.0,0.25,35,120.0
3297,F#4,507.0,1.5,43,120.0
3298,D5,507.0,1.5,43,120.0
3299,F#5,507.0,1.5,43,120.0
3300,A3,507.25,0.25,27,120.0
3301,C3,507.5,0.25,31,120.0
3302,A3,507.75,0.25,26,120.0
3303,C3,508.0,0.25,31,120.0
3304,A3,508.25,0.25,27,120.0
3305,B2,508.5,0.25,37,120.0
3306,G5,508.5,1.0,45,120.0
3307,G4,508.5,1.0,45,120.0
3308,D5,508.5,1.0,45,120.0
3309,G3,508.75,0.25,27,120.0
3310,B2,509.0,0.25,31,120.0
3311,G3,509.25,0.25,27,120.0
3312,A2,509.5,0.25,31,120.0
3313,A5,509.5,0.5,43,120.0
3314,A4,509.5,0.5,43,120.0
3315,D5,509.5,0.5,43,120.0
3316,F#3,509.75,0.25,27,120.0
3317,D5,510.0,1.0,54,120.0
3318,B4,510.0,1.0,54,120.0
3319,B5,510.0,1.0,54,120.0
3320,G2,510.0,0.5,36,120.0
3321,G3,510.0,0.5,36,120.0
3322,B3,510.5,0.25,35,120.0
3323,G3,510.5,0.25,35,120.0
3324,D4,510.75,0.25,39,120.0
3325,E5,511.0,0.5,51,120.0
3326,E6,511.0,0.5,51,120.0
3327,B3,511.0,0.25,37,120.0
3328,G3,511.0,0.25,37,120.0
3329,D4,511.25,0.25,36,120.0
3330,D5,511.5,1.0,58,120.0
3331,D6,511.5,1.0,58,120.0
3332,B3,511.5,0.25,38,120.0
3333,G3,511.5,0.25,38,120.0
3334,D4,511.75,0.25,40,120.0
3335,B3,512.0,0.25,40,120.0
3336,G3,512.0,0.25,40,120.0
3337,D4,512.25,0.25,42,120.0
3338,B5,512.5,0.5,50,120.0
3339,B4,512.5,0.5,50,120.0
3340,B3,512.5,0.25,42,120.0
3341,G3,512.5,0.25,42,120.0
3342,D4,512.75,0.25,44,120.0
3343,A4,513.0,1.0,62,120.0
3344,A5,513.0,1.0,62,120.0
3345,F#3,513.0,0.25,44,120.0
3346,C4,513.0,0.25,44,120.0
3347,D4,513.25,0.25,42,120.0
3348,F#3,513.5,0.25,38,120.0
3349,C4,513.5,0.25,38,120.0
3350,D4,513.75,0.25,42,120.0
3351,E6,514.0,0.5,50,120.0
3352,E5,514.0,0.5,50,120.0
3353,F#3,514.0,0.25,44,120.0
3354,C4,514.0,0.25,44,120.0
3355,D4,514.25,0.25,44,120.0
3356,D6,514.5,1.0,58,120.0
3357,D5,514.5,1.0,58,120.0
3358,F#3,514.5,0.25,42,120.0
3359,C4,514.5,0.25,42,120.0
3360,D4,514.75,0.25,41,120.0
3361,F#3,515.0,0.25,40,120.0
3362,C4,515.0,0.25,40,120.0
3363,D4,515.25,0.25,39,120.0
3364,A5,515.5,0.5,53,120.0
3365,A4,515.5,0.5,53,120.0
3366,F#3,515.5,0.25,38,120.0
3367,C4,515.5,0.25,38,120.0
3368,D4,515.75,0.25,36,120.0
3369,B5,516.0,1.5,38,120.0
3370,D5,516.0,0.25,46,120.0
3371,G3,516.0,3.0,48,120.0
3372,B3,516.0,1.0,48,120.0
3373,E5,516.25,0.25,31,120.0
3374,D5,516.5,0.25,36,120.0
3375,E5,516.75,0.25,32,120.0
3376,D5,517.0,0.25,36,120.0
3377,E4,517.0,0.5,45,120.0
3378,E5,517.25,0.25,33,120.0
3379,D5,517.5,0.25,48,120.0
3380,G5,517.5,1.5,41,120.0
3381,D4,517.5,1.0,54,120.0
3382,E5,517.75,0.25,35,120.0
3383,D5,518.0,0.25,40,120.0
3384,E5,518.25,0.25,35,120.0
3385,D5,518.5,0.25,42,120.0
3386,B3,518.5,0.5,49,120.0
3387,E5,518.75,0.25,36,120.0
3388,F#5,519.0,1.5,43,120.0
3389,D5,519.0,0.25,52,120.0
3390,D3,519.0,3.0,46,120.0
3391,A3,519.0,1.0,55,120.0
3392,E5,519.25,0.25,35,120.0
3393,D5,519.5,0.25,39,120.0
3394,E5,519.75,0.25,34,120.0
3395,D5,520.0,0.25,37,120.0
3396,E4,520.0,0.5,46,120.0
3397,E5,520.25,0.25,33,120.0
3398,C6,520.5,1.5,41,120.0
3399,D5,520.5,0.25,47,120.0
3400,D4,520.5,1.0,53,120.0
3401,E5,520.75,0.25,34,120.0
3402,D5,521.0,0.25,37,120.0
3403,E5,521.25,0.25,32,120.0
3404,D5,521.5,0.5,38,120.0
3405,A3,521.5,0.5,44,120.0
3406,D5,522.0,0.5,46,120.0
3407,B5,522.0,0.5,46,120.0
3408,D4,522.0,1.0,39,120.0
3409,B3,522.0,1.0,39,120.0
3410,G3,522.0,1.0,39,120.0
3411,B4,522.5,0.5,44,120.0
3412,D6,523.0,0.25,46,120.0
3413,G4,523.0,0.25,46,120.0
3414,D6,523.5,0.5,50,120.0
3415,F#4,523.5,0.5,50,120.0
3416,B5,524.0,0.5,42,120.0
3417,G4,524.0,0.5,42,120.0
3418,D4,524.5,0.25,44,120.0
3419,B4,524.5,0.25,42,120.0
3420,G5,524.5,0.25,42,120.0
3421,D4,525.0,0.5,44,120.0
3422,B4,525.5,0.5,46,120.0
3423,B3,525.5,0.5,38,120.0
3424,D5,526.0,0.5,46,120.0
3425,G3,526.0,0.5,38,120.0
3426,G5,526.5,0.5,50,120.0
3427,F3,526.5,0.5,44,120.0
3428,B5,527.0,0.5,50,120.0
3429,D3,527.0,0.5,44,120.0
3430,B2,527.5,0.25,44,120.0
3431,G5,527.5,0.25,48,120.0
3432,D6,527.5,0.25,48,120.0
3433,E6,528.0,1.0,57,120.0
3434,G5,528.0,0.5,45,120.0
3435,C3,528.0,1.0,44,120.0
3436,E5,528.5,0.5,46,120.0
3437,C5,529.0,0.5,46,120.0
3438,G4,529.0,0.494,40,120.0
3439,B4,529.5,0.5,53,120.0
3440,G4,529.5,0.5,44,120.0
3441,C5,530.0,0.5,46,120.0
3442,E4,530.0,0.5,40,120.0
3443,E5,530.5,0.5,46,120.0
3444,G3,530.5,0.496,37,120.0
3445,C4,530.5,0.496,37,120.0
3446,G3,531.0,0.5,44,120.0
3447,G5,531.5,0.5,50,120.0
3448,E3,531.5,0.5,40,120.0
3449,C6,532.0,0.5,54,120.0
3450,C3,532.0,0.5,40,120.0
3451,G2,532.5,0.5,44,120.0
3452,E5,532.5,1.0,56,120.0
3453,E6,532.5,1.0,56,120.0
3454,C2,533.0,0.5,39,120.0
3455,C3,533.5,0.496,39,120.0
3456,E-5,533.5,0.5,57,120.0
3457,E-6,533.5,0.5,57,120.0
3458,E-6,534.0,0.5,60,120.0
3459,C3,534.0,0.25,39,120.0
3460,E-3,534.25,0.25,31,120.0
3461,C6,534.5,0.5,55,120.0
3462,G#3,534.5,0.25,31,120.0
3463,E-3,534.75,0.25,31,120.0
3464,G#5,535.0,0.375,55,120.0
3465,G#3,535.0,0.25,30,120.0
3466,E-3,535.25,0.25,32,120.0
3467,G5,535.5,0.5,60,120.0
3468,C#3,535.5,0.25,41,120.0
3469,E-3,535.75,0.25,32,120.0
3470,B-5,536.0,0.5,57,120.0
3471,G3,536.0,0.25,33,120.0
3472,B-3,536.25,0.25,33,120.0
3473,C#4,536.5,0.25,33,120.0
3474,E-5,536.5,0.375,54,120.0
3475,E-6,536.5,0.375,54,120.0
3476,G3,536.75,0.25,33,120.0
3477,E-5,537.0,0.5,58,120.0
3478,G#3,537.0,0.25,40,120.0
3479,C4,537.25,0.25,32,120.0
3480,C5,537.5,0.5,50,120.0
3481,E-4,537.5,0.25,33,120.0
3482,C4,537.75,0.25,33,120.0
3483,G#4,538.0,0.375,50,120.0
3484,E-4,538.0,0.25,34,120.0
3485,C4,538.25,0.25,34,120.0
3486,E-5,538.5,0.5,58,120.0
3487,G3,538.5,0.25,42,120.0
3488,B-3,538.75,0.25,33,120.0
3489,B-4,539.0,0.5,51,120.0
3490,E-4,539.0,0.25,33,120.0
3491,B-3,539.25,0.25,33,120.0
3492,G3,539.5,0.25,33,120.0
3493,B-5,539.5,0.375,51,120.0
3494,B-4,539.5,0.375,51,120.0
3495,B-3,539.75,0.25,33,120.0
3496,E-3,540.0,0.25,41,120.0
3497,B-4,540.0,0.5,54,120.0
3498,B-5,540.0,0.5,54,120.0
3499,G3,540.25,0.25,33,120.0
3500,B-3,540.5,0.25,34,120.0
3501,G4,540.5,0.5,47,120.0
3502,G5,540.5,0.5,47,120.0
3503,G3,540.75,0.25,35,120.0
3504,B-3,541.0,0.25,35,120.0
3505,E-4,541.0,0.5,43,120.0
3506,E-5,541.0,0.5,43,120.0
3507,G3,541.25,0.25,35,120.0
3508,B-2,541.5,0.25,43,120.0
3509,D4,541.5,0.5,50,120.0
3510,D5,541.5,0.5,50,120.0
3511,G#3,541.75,0.25,34,120.0
3512,B-3,542.0,0.25,34,120.0
3513,F5,542.0,0.5,45,120.0
3514,F4,542.0,0.5,45,120.0
3515,G#3,542.25,0.25,34,120.0
3516,B-3,542.5,0.25,34,120.0
3517,B-5,542.5,0.375,46,120.0
3518,B-4,542.5,0.375,46,120.0
3519,G#3,542.75,0.25,34,120.0
3520,E-3,543.0,0.25,42,120.0
3521,B-4,543.0,0.5,50,120.0
3522,B-5,543.0,0.5,50,120.0
3523,G3,543.25,0.25,34,120.0
3524,B-3,543.5,0.25,36,120.0
3525,G4,543.5,0.5,47,120.0
3526,G5,543.5,0.5,47,120.0
3527,G3,543.75,0.25,36,120.0
3528,B-3,544.0,0.25,36,120.0
3529,E-4,544.0,0.375,47,120.0
3530,E-5,544.0,0.375,47,120.0
3531,G3,544.25,0.25,36,120.0
3532,B-3,544.5,0.25,45,120.0
3533,E-4,544.5,0.5,52,120.0
3534,E-5,544.5,0.5,52,120.0
3535,G3,544.75,0.25,35,120.0
3536,B-3,545.0,0.25,35,120.0
3537,G5,545.0,0.5,44,120.0
3538,G4,545.0,0.5,44,120.0
3539,G3,545.25,0.25,35,120.0
3540,E3,545.5,0.25,35,120.0
3541,C6,545.5,0.375,54,120.0
3542,C5,545.5,0.375,54,120.0
3543,G3,545.75,0.25,35,120.0
3544,F3,546.0,0.25,43,120.0
3545,C5,546.0,0.5,58,120.0
3546,C6,546.0,0.5,58,120.0
3547,G#3,546.25,0.25,36,120.0
3548,C4,546.5,0.25,37,120.0
3549,G#4,546.5,0.5,52,120.0
3550,G#5,546.5,0.5,52,120.0
3551,G#3,546.75,0.25,37,120.0
3552,C4,547.0,0.25,37,120.0
3553,F4,547.0,0.5,52,120.0
3554,F5,547.0,0.5,52,120.0
3555,G#3,547.25,0.25,37,120.0
3556,C3,547.5,0.25,46,120.0
3557,E4,547.5,0.5,58,120.0
3558,E5,547.5,0.5,58,120.0
3559,B-3,547.75,0.25,36,120.0
3560,C4,548.0,0.25,36,120.0
3561,G4,548.0,0.5,52,120.0
3562,G5,548.0,0.5,52,120.0
3563,B-3,548.25,0.25,36,120.0
3564,C4,548.5,0.25,36,120.0
3565,C5,548.5,0.375,57,120.0
3566,C6,548.5,0.375,57,120.0
3567,B-3,548.75,0.25,36,120.0
3568,F3,549.0,0.25,44,120.0
3569,C6,549.0,0.5,68,120.0
3570,C5,549.0,0.5,68,120.0
3571,G#3,549.25,0.25,37,120.0
3572,C4,549.5,0.25,38,120.0
3573,G#4,549.5,0.5,54,120.0
3574,G#5,549.5,0.5,54,120.0
3575,G#3,549.75,0.25,38,120.0
3576,C4,550.0,0.25,38,120.0
3577,F5,550.0,0.5,54,120.0
3578,F4,550.0,0.5,54,120.0
3579,G#3,550.25,0.25,38,120.0
3580,B-3,550.5,0.25,47,120.0
3581,D5,550.5,0.5,62,120.0
3582,D4,550.5,0.5,62,120.0
3583,G#3,550.75,0.25,37,120.0
3584,B-3,551.0,0.25,37,120.0
3585,F4,551.0,0.5,56,120.0
3586,F5,551.0,0.5,56,120.0
3587,G#3,551.25,0.25,37,120.0
3588,D3,551.5,0.25,37,120.0
3589,B-4,551.5,0.375,56,120.0
3590,B-5,551.5,0.375,56,120.0
3591,G#3,551.75,0.25,37,120.0
3592,E-3,552.0,0.25,46,120.0
3593,B-4,552.0,0.5,62,120.0
3594,B-5,552.0,0.5,62,120.0
3595,G3,552.25,0.25,38,120.0
3596,B-3,552.5,0.25,39,120.0
3597,G4,552.5,0.5,54,120.0
3598,G5,552.5,0.5,54,120.0
3599,G3,552.75,0.25,39,120.0
3600,B-3,553.0,0.25,39,120.0
3601,E-4,553.0,0.5,54,120.0
3602,E-5,553.0,0.5,54,120.0
3603,G3,553.25,0.25,39,120.0
3604,G#2,553.5,0.25,49,120.0
3605,C4,553.5,0.5,56,120.0
3606,C5,553.5,0.5,56,120.0
3607,F3,553.75,0.25,38,120.0
3608,G#3,554.0,0.25,38,120.0
3609,F5,554.0,0.5,52,120.0
3610,F4,554.0,0.5,52,120.0
3611,F3,554.25,0.25,38,120.0
3612,G#3,554.5,0.25,38,120.0
3613,G#5,554.5,0.375,52,120.0
3614,G#4,554.5,0.375,52,120.0
3615,F3,554.75,0.25,39,120.0
3616,B-2,555.0,0.25,47,120.0
3617,B-4,555.0,0.5,60,120.0
3618,B-3,555.0,0.5,60,120.0
3619,E-3,555.25,0.25,39,120.0
3620,G3,555.5,0.25,40,120.0
3621,E-5,555.5,0.5,54,120.0
3622,E-4,555.5,0.5,54,120.0
3623,E-3,555.75,0.25,40,120.0
3624,G3,556.0,0.25,40,120.0
3625,G5,556.0,0.375,56,120.0
3626,G4,556.0,0.375,56,120.0
3627,E-3,556.25,0.25,40,120.0
3628,B-2,556.5,0.25,50,120.0
3629,B-4,556.5,0.5,62,120.0
3630,B-3,556.5,0.5,62,120.0
3631,D3,556.75,0.25,39,120.0
3632,F3,557.0,0.25,39,120.0
3633,D5,557.0,0.5,56,120.0
3634,D4,557.0,0.5,56,120.0
3635,D3,557.25,0.25,39,120.0
3636,G#4,557.5,0.25,60,120.0
3637,B-2,557.5,0.5,39,120.0
3638,B-3,557.5,0.5,39,120.0
3639,F5,557.75,0.25,60,120.0
3640,B-2,558.0,0.25,62,120.0
3641,B-3,558.0,0.25,62,120.0
3642,G5,558.25,0.25,55,120.0
3643,B-5,558.5,0.25,59,120.0
3644,G2,558.5,0.25,54,120.0
3645,G3,558.5,0.25,54,120.0
3646,E-6,558.75,0.25,55,120.0
3647,G6,559.0,0.25,61,120.0
3648,E-2,559.0,0.25,49,120.0
3649,E-3,559.0,0.25,49,120.0
3650,G5,559.25,0.25,55,120.0
3651,D2,559.5,0.25,56,120.0
3652,D3,559.5,0.25,56,120.0
3653,G#5,559.75,0.25,55,120.0
3654,B-5,560.0,0.25,59,120.0
3655,F2,560.0,0.25,52,120.0
3656,F3,560.0,0.25,52,120.0
3657,F6,560.25,0.25,55,120.0
3658,G#6,560.5,0.25,61,120.0
3659,B-2,560.5,0.252,52,120.0
3660,B-3,560.5,0.252,52,120.0
3661,G#5,560.75,0.25,56,120.0
3662,B-2,561.0,0.25,58,120.0
3663,B-3,561.0,0.25,58,120.0
3664,G5,561.25,0.25,56,120.0
3665,B-5,561.5,0.25,60,120.0
3666,G2,561.5,0.25,54,120.0
3667,G3,561.5,0.25,54,120.0
3668,E-6,561.75,0.25,56,120.0
3669,G6,562.0,0.25,62,120.0
3670,E-2,562.0,0.252,54,120.0
3671,E-3,562.0,0.252,54,120.0
3672,G5,562.25,0.25,56,120.0
3673,E-2,562.5,0.25,59,120.0
3674,E-3,562.5,0.25,59,120.0
3675,G5,562.75,0.25,56,120.0
3676,B-5,563.0,0.25,61,120.0
3677,G2,563.0,0.25,50,120.0
3678,G3,563.0,0.25,50,120.0
3679,E-6,563.25,0.25,57,120.0
3680,G6,563.5,0.25,63,120.0
3681,C3,563.5,0.252,61,120.0
3682,C4,563.5,0.252,61,120.0
3683,E6,563.75,0.25,57,120.0
3684,C3,564.0,0.25,66,120.0
3685,C4,564.0,0.25,66,120.0
3686,G#5,564.25,0.25,57,120.0
3687,C6,564.5,0.25,61,120.0
3688,G#2,564.5,0.25,60,120.0
3689,G#3,564.5,0.25,60,120.0
3690,F6,564.75,0.25,57,120.0
3691,G#6,565.0,0.25,63,120.0
3692,F2,565.0,0.25,60,120.0
3693,F3,565.0,0.25,60,120.0
3694,G#5,565.25,0.25,57,120.0
3695,E2,565.5,0.25,66,120.0
3696,E3,565.5,0.25,66,120.0
3697,B-5,565.75,0.25,58,120.0
3698,C6,566.0,0.25,62,120.0
3699,G2,566.0,0.25,60,120.0
3700,G3,566.0,0.25,60,120.0
3701,G6,566.25,0.25,58,120.0
3702,B-6,566.5,0.25,64,120.0
3703,C3,566.5,0.252,65,120.0
3704,C4,566.5,0.252,65,120.0
3705,B-5,566.75,0.25,58,120.0
3706,C3,567.0,0.25,77,120.0
3707,C4,567.0,0.25,77,120.0
3708,G#5,567.25,0.25,58,120.0
3709,C6,567.5,0.25,62,120.0
3710,G#2,567.5,0.25,62,120.0
3711,G#3,567.5,0.25,62,120.0
3712,F6,567.75,0.25,59,120.0
3713,G#6,568.0,0.25,66,120.0
3714,F2,568.0,0.25,62,120.0
3715,F3,568.0,0.25,62,120.0
3716,G#5,568.25,0.25,59,120.0
3717,D2,568.5,0.25,70,120.0
3718,D3,568.5,0.25,70,120.0
3719,G#5,568.75,0.25,59,120.0
3720,B-5,569.0,0.25,63,120.0
3721,F2,569.0,0.25,64,120.0
3722,F3,569.0,0.25,64,120.0
3723,F6,569.25,0.25,59,120.0
3724,G#6,569.5,0.25,67,120.0
3725,B-2,569.5,0.252,64,120.0
3726,B-3,569.5,0.252,64,120.0
3727,G#5,569.75,0.25,59,120.0
3728,B-2,570.0,0.25,70,120.0
3729,B-3,570.0,0.25,70,120.0
3730,G5,570.25,0.25,60,120.0
3731,B-5,570.5,0.25,64,120.0
3732,G2,570.5,0.25,61,120.0
3733,G3,570.5,0.25,61,120.0
3734,E-6,570.75,0.25,60,120.0
3735,G6,571.0,0.25,68,120.0
3736,E-2,571.0,0.25,61,120.0
3737,E-3,571.0,0.25,61,120.0
3738,G5,571.25,0.25,61,120.0
3739,C2,571.5,0.25,64,120.0
3740,C3,571.5,0.25,64,120.0
3741,G#6,571.75,0.25,62,120.0
3742,F6,572.0,0.25,68,120.0
3743,F2,572.0,0.25,59,120.0
3744,F3,572.0,0.25,59,120.0
3745,E-6,572.25,0.25,63,120.0
3746,G#5,572.5,0.25,72,120.0
3747,G#2,572.5,0.252,59,120.0
3748,G#3,572.5,0.252,59,120.0
3749,G#6,572.75,0.25,66,120.0
3750,B-1,573.0,0.25,68,120.0
3751,B-2,573.0,0.25,68,120.0
3752,B-6,573.25,0.25,67,120.0
3753,G6,573.5,0.25,72,120.0
3754,E-2,573.5,0.25,62,120.0
3755,E-3,573.5,0.25,62,120.0
3756,E-6,573.75,0.25,68,120.0
3757,B-5,574.0,0.25,78,120.0
3758,G2,574.0,0.252,64,120.0
3759,G3,574.0,0.252,64,120.0
3760,B-6,574.25,0.25,69,120.0
3761,B-1,574.5,0.25,70,120.0
3762,B-2,574.5,0.25,70,120.0
3763,B-6,574.75,0.25,70,120.0
3764,F6,575.0,0.25,77,120.0
3765,D2,575.0,0.25,64,120.0
3766,D3,575.0,0.25,64,120.0
3767,D6,575.25,0.25,72,120.0
3768,B-5,575.5,0.25,81,120.0
3769,B-2,575.5,0.25,64,120.0
3770,B-3,575.5,0.25,64,120.0
3771,B-6,575.75,0.25,73,120.0
3772,G3,576.0,0.25,85,120.0
3773,E-2,576.0,0.25,73,120.0
3774,E-4,576.25,0.25,70,120.0
3775,B-3,576.5,0.25,79,120.0
3776,G3,576.5,0.25,56,120.0
3777,E-3,576.5,0.25,56,120.0
3778,G4,576.75,0.25,70,120.0
3779,E-4,577.0,0.25,81,120.0
3780,B-3,577.0,0.25,53,120.0
3781,G3,577.0,0.25,53,120.0
3782,E-3,577.0,0.25,53,120.0
3783,B-4,577.25,0.25,70,120.0
3784,G4,577.5,0.25,86,120.0
3785,E-4,577.5,0.25,52,120.0
3786,B-3,577.5,0.25,52,120.0
3787,G3,577.5,0.25,52,120.0
3788,E-3,577.5,0.25,52,120.0
3789,E-5,577.75,0.25,70,120.0
3790,B-4,578.0,0.25,77,120.0
3791,E-4,578.0,0.25,52,120.0
3792,B-3,578.0,0.25,52,120.0
3793,G3,578.0,0.25,52,120.0
3794,E-3,578.0,0.25,52,120.0
3795,G5,578.25,0.25,70,120.0
3796,E-5,578.5,0.25,78,120.0
3797,E-4,578.5,0.25,52,120.0
3798,B-3,578.5,0.25,52,120.0
3799,G3,578.5,0.25,52,120.0
3800,E-3,578.5,0.25,52,120.0
3801,B-5,578.75,0.25,70,120.0
3802,G5,579.0,0.25,86,120.0
3803,E-4,579.0,0.25,60,120.0
3804,B-3,579.0,0.25,60,120.0
3805,G3,579.0,0.25,60,120.0
3806,E-3,579.0,0.25,60,120.0
3807,E-6,579.25,0.25,70,120.0
3808,B-5,579.5,0.25,77,120.0
3809,E-4,579.5,0.25,52,120.0
3810,B-3,579.5,0.25,52,120.0
3811,G3,579.5,0.25,52,120.0
3812,E-3,579.5,0.25,52,120.0
3813,G6,579.75,0.25,67,120.0
3814,E-6,580.0,0.25,75,120.0
3815,E-4,580.0,0.25,52,120.0
3816,B-3,580.0,0.25,52,120.0
3817,G3,580.0,0.25,52,120.0
3818,E-3,580.0,0.25,52,120.0
3819,B-6,580.25,0.25,68,120.0
3820,A6,580.5,0.25,80,120.0
3821,D4,580.5,0.25,52,120.0
3822,G#3,580.5,0.25,52,120.0
3823,B-3,580.5,0.25,52,120.0
3824,F3,580.5,0.25,52,120.0
3825,E-3,580.5,0.25,52,120.0
3826,B-6,580.75,0.25,72,120.0
3827,A6,581.0,0.25,77,120.0
3828,D4,581.0,0.25,52,120.0
3829,B-3,581.0,0.25,52,120.0
3830,G#3,581.0,0.25,52,120.0
3831,F3,581.0,0.25,52,120.0
3832,E-3,581.0,0.25,52,120.0
3833,B-6,581.25,0.25,70,120.0
3834,A6,581.5,0.25,75,120.0
3835,D4,581.5,0.25,52,120.0
3836,B-3,581.5,0.25,52,120.0
3837,G#3,581.5,0.25,52,120.0
3838,F3,581.5,0.25,52,120.0
3839,E-3,581.5,0.25,52,120.0
3840,B-6,581.75,0.25,70,120.0
3841,C7,582.0,0.25,84,120.0
3842,E-4,582.0,0.25,61,120.0
3843,B-3,582.0,0.25,61,120.0
3844,G3,582.0,0.25,61,120.0
3845,E-3,582.0,0.25,61,120.0
3846,B-6,582.25,0.25,84,120.0
3847,G#6,582.5,0.25,83,120.0
3848,E-4,582.5,0.25,52,120.0
3849,B-3,582.5,0.25,52,120.0
3850,G3,582.5,0.25,52,120.0
3851,E-3,582.5,0.25,52,120.0
3852,G6,582.75,0.25,82,120.0
3853,F6,583.0,0.25,81,120.0
3854,E-4,583.0,0.25,52,120.0
3855,B-3,583.0,0.25,52,120.0
3856,G3,583.0,0.25,52,120.0
3857,E-3,583.0,0.25,52,120.0
3858,E-6,583.25,0.25,81,120.0
3859,D6,583.5,0.25,79,120.0
3860,E-4,583.5,0.25,52,120.0
3861,B-3,583.5,0.25,52,120.0
3862,G3,583.5,0.25,52,120.0
3863,E-3,583.5,0.25,52,120.0
3864,C6,583.75,0.25,71,120.0
3865,B-5,584.0,0.25,71,120.0
3866,E-4,584.0,0.25,52,120.0
3867,B-3,584.0,0.25,52,120.0
3868,G3,584.0,0.25,52,120.0
3869,E-3,584.0,0.25,52,120.0
3870,G#5,584.25,0.25,71,120.0
3871,G5,584.5,0.25,71,120.0
3872,E-4,584.5,0.25,52,120.0
3873,B-3,584.5,0.25,52,120.0
3874,G3,584.5,0.25,52,120.0
3875,E-3,584.5,0.25,52,120.0
3876,F5,584.75,0.25,71,120.0
3877,E-5,585.0,0.25,77,120.0
3878,E-4,585.0,0.25,58,120.0
3879,B-3,585.0,0.25,58,120.0
3880,G3,585.0,0.25,58,120.0
3881,E-3,585.0,0.25,58,120.0
3882,D5,585.25,0.25,75,120.0
3883,C5,585.5,0.25,74,120.0
3884,E-4,585.5,0.25,51,120.0
3885,B-3,585.5,0.25,51,120.0
3886,G3,585.5,0.25,51,120.0
3887,E-3,585.5,0.25,51,120.0
3888,B-4,585.75,0.25,74,120.0
3889,G#4,586.0,0.25,73,120.0
3890,E-4,586.0,0.25,51,120.0
3891,B-3,586.0,0.25,51,120.0
3892,G3,586.0,0.25,51,120.0
3893,E-3,586.0,0.25,51,120.0
3894,G4,586.25,0.25,72,120.0
3895,F4,586.5,0.25,70,120.0
3896,B-3,586.5,0.25,51,120.0
3897,G#3,586.5,0.25,51,120.0
3898,F3,586.5,0.25,51,120.0
3899,E-3,586.5,0.25,51,120.0
3900,E-4,586.75,0.25,64,120.0
3901,D4,587.0,0.25,70,120.0
3902,B-3,587.0,0.25,51,120.0
3903,G#3,587.0,0.25,51,120.0
3904,F3,587.0,0.25,51,120.0
3905,E-3,587.0,0.25,51,120.0
3906,F4,587.25,0.25,66,120.0
3907,G#4,587.5,0.25,75,120.0
3908,B-3,587.5,0.25,51,120.0
3909,G#3,587.5,0.25,51,120.0
3910,F3,587.5,0.25,51,120.0
3911,E-3,587.5,0.25,51,120.0
3912,D4,587.75,0.25,69,120.0
3913,G3,588.0,0.25,85,120.0
3914,E-2,588.0,0.25,73,120.0
3915,E-4,588.25,0.25,70,120.0
3916,B-3,588.5,0.25,79,120.0
3917,G3,588.5,0.25,56,120.0
3918,E-3,588.5,0.25,56,120.0
3919,G4,588.75,0.25,70,120.0
3920,E-4,589.0,0.25,81,120.0
3921,B-3,589.0,0.25,53,120.0
3922,G3,589.0,0.25,53,120.0
3923,E-3,589.0,0.25,53,120.0
3924,B-4,589.25,0.25,70,120.0
3925,G4,589.5,0.25,86,120.0
3926,E-4,589.5,0.25,52,120.0
3927,B-3,589.5,0.25,52,120.0
3928,G3,589.5,0.25,52,120.0
3929,E-3,589.5,0.25,52,120.0
3930,E-5,589.75,0.25,70,120.0
3931,B-4,590.0,0.25,77,120.0
3932,E-4,590.0,0.25,52,120.0
3933,B-3,590.0,0.25,52,120.0
3934,G3,590.0,0.25,52,120.0
3935,E-3,590.0,0.25,52,120.0
3936,G5,590.25,0.25,70,120.0
3937,E-5,590.5,0.25,78,120.0
3938,E-4,590.5,0.25,52,120.0
3939,B-3,590.5,0.25,52,120.0
3940,G3,590.5,0.25,52,120.0
3941,E-3,590.5,0.25,52,120.0
3942,B-5,590.75,0.25,70,120.0
3943,G5,591.0,0.25,86,120.0
3944,E-4,591.0,0.25,60,120.0
3945,B-3,591.0,0.25,60,120.0
3946,G3,591.0,0.25,60,120.0
3947,E-3,591.0,0.25,60,120.0
3948,E-6,591.25,0.25,70,120.0
3949,B-5,591.5,0.25,77,120.0
3950,E-4,591.5,0.25,52,120.0
3951,B-3,591.5,0.25,52,120.0
3952,G3,591.5,0.25,52,120.0
3953,E-3,591.5,0.25,52,120.0
3954,G6,591.75,0.25,67,120.0
3955,E-6,592.0,0.25,75,120.0
3956,E-4,592.0,0.25,52,120.0
3957,B-3,592.0,0.25,52,120.0
3958,G3,592.0,0.25,52,120.0
3959,E-3,592.0,0.25,52,120.0
3960,B-6,592.25,0.25,68,120.0
3961,A6,592.5,0.25,80,120.0
3962,C#4,592.5,0.25,52,120.0
3963,B-3,592.5,0.25,52,120.0
3964,G3,592.5,0.25,52,120.0
3965,E-3,592.5,0.25,52,120.0
3966,B-6,592.75,0.25,72,120.0
3967,A6,593.0,0.25,77,120.0
3968,C#4,593.0,0.25,52,120.0
3969,B-3,593.0,0.25,52,120.0
3970,G3,593.0,0.25,52,120.0
3971,E-3,593.0,0.25,52,120.0
3972,B-6,593.25,0.25,70,120.0
3973,A6,593.5,0.25,75,120.0
3974,C#4,593.5,0.25,52,120.0
3975,B-3,593.5,0.25,52,120.0
3976,G3,593.5,0.25,52,120.0
3977,E-3,593.5,0.25,52,120.0
3978,B-6,593.75,0.25,70,120.0
3979,C7,594.0,0.25,84,120.0
3980,C#4,594.0,0.25,61,120.0
3981,B-3,594.0,0.25,61,120.0
3982,G3,594.0,0.25,61,120.0
3983,E-3,594.0,0.25,61,120.0
3984,B-6,594.25,0.25,84,120.0
3985,G#6,594.5,0.25,83,120.0
3986,C#4,594.5,0.25,52,120.0
3987,B-3,594.5,0.25,52,120.0
3988,G3,594.5,0.25,52,120.0
3989,E-3,594.5,0.25,52,120.0
3990,G6,594.75,0.25,82,120.0
3991,F6,595.0,0.25,81,120.0
3992,C#4,595.0,0.25,52,120.0
3993,B-3,595.0,0.25,52,120.0
3994,G3,595.0,0.25,52,120.0
3995,E-3,595.0,0.25,52,120.0
3996,E-6,595.25,0.25,81,120.0
3997,C#6,595.5,0.25,79,120.0
3998,C#4,595.5,0.25,52,120.0
3999,B-3,595.5,0.25,52,120.0
4000,G3,595.5,0.25,52,120.0
4001,E-3,595.5,0.25,52,120.0
4002,C6,595.75,0.25,71,120.0
4003,B-5,596.0,0.25,71,120.0
4004,C#4,596.0,0.25,52,120.0
4005,B-3,596.0,0.25,52,120.0
4006,G3,596.0,0.25,52,120.0
4007,E-3,596.0,0.25,52,120.0
4008,G#5,596.25,0.25,71,120.0
4009,G5,596.5,0.25,71,120.0
4010,C#4,596.5,0.25,52,120.0
4011,B-3,596.5,0.25,52,120.0
4012,G3,596.5,0.25,52,120.0
4013,E-3,596.5,0.25,52,120.0
4014,F5,596.75,0.25,71,120.0
4015,E-5,597.0,0.252,77,120.0
4016,B-3,597.0,0.25,58,120.0
4017,C#4,597.0,0.25,58,120.0
4018,G3,597.0,0.25,58,120.0
4019,E-3,597.0,0.25,58,120.0
4020,C#5,597.25,0.252,75,120.0
4021,C5,597.5,0.25,74,120.0
4022,B-3,597.5,0.25,51,120.0
4023,C#4,597.5,0.25,51,120.0
4024,G3,597.5,0.25,51,120.0
4025,E-3,597.5,0.25,51,120.0
4026,B-4,597.75,0.25,74,120.0
4027,G#4,598.0,0.25,73,120.0
4028,G#3,598.0,0.25,52,120.0
4029,C4,598.0,0.25,52,120.0
4030,E-3,598.0,0.25,52,120.0
4031,G4,598.25,0.25,72,120.0
4032,F4,598.5,0.25,68,120.0
4033,E-3,598.5,0.25,51,120.0
4034,F3,598.5,0.25,51,120.0
4035,B3,598.5,0.25,51,120.0
4036,G#3,598.5,0.25,51,120.0
4037,E-4,598.75,0.25,59,120.0
4038,D4,599.0,0.25,66,120.0
4039,E-3,599.0,0.25,51,120.0
4040,B3,599.0,0.25,51,120.0
4041,G#3,599.0,0.25,51,120.0
4042,F3,599.0,0.25,51,120.0
4043,F4,599.25,0.25,59,120.0
4044,G#4,599.5,0.25,64,120.0
4045,E-3,599.5,0.25,51,120.0
4046,B-3,599.5,0.25,51,120.0
4047,G#3,599.5,0.25,51,120.0
4048,F3,599.5,0.25,51,120.0
4049,D4,599.75,0.25,59,120.0
4050,E-4,600.0,0.5,95,120.0
4051,E-2,600.0,0.5,80,120.0
4052,E-3,600.0,0.5,80,120.0
4053,E-5,601.5,0.5,89,120.0
4054,E-4,601.5,0.5,75,120.0
4055,F#5,603.0,0.5,96,120.0
4056,F#4,603.0,0.5,81,120.0
4057,B5,604.5,0.5,88,120.0
4058,B4,604.5,0.5,74,120.0
4059,F#5,606.0,0.5,94,120.0
4060,F#4,606.0,0.5,79,120.0
4061,E-5,607.5,0.5,88,120.0
4062,E-4,607.5,0.5,74,120.0
4063,B4,609.0,0.5,93,120.0
4064,B3,609.0,0.5,78,120.0
4065,F#4,610.5,0.5,82,120.0
4066,F#3,610.5,0.5,70,120.0
4067,D4,612.0,0.5,95,120.0
4068,D2,612.0,0.5,80,120.0
4069,D3,612.0,0.5,80,120.0
4070,D5,613.5,0.5,89,120.0
4071,D4,613.5,0.5,75,120.0
4072,F5,615.0,0.5,96,120.0
4073,F4,615.0,0.5,81,120.0
4074,B-5,616.5,0.5,88,120.0
4075,B-4,616.5,0.5,74,120.0
4076,F5,618.0,0.5,94,120.0
4077,F4,618.0,0.5,79,120.0
4078,D5,619.5,0.5,88,120.0
4079,D4,619.5,0.5,74,120.0
4080,B-4,621.0,0.5,93,120.0
4081,B-3,621.0,0.5,78,120.0
4082,F4,622.5,0.5,82,120.0
4083,F3,622.5,0.5,70,120.0
4084,F#5,624.0,0.25,55,120.0
4085,E-4,624.0,0.25,36,120.0
4086,F#4,624.0,0.25,36,120.0
4087,B4,624.0,0.25,36,120.0
4088,E-4,624.5,0.25,31,120.0
4089,F#4,624.5,0.25,31,120.0
4090,B4,624.5,0.25,31,120.0
4091,F6,624.875,0.125,51,120.0
4092,E-6,625.0,0.25,56,120.0
4093,E-4,625.0,0.25,31,120.0
4094,F#4,625.0,0.25,31,120.0
4095,B4,625.0,0.25,31,120.0
4096,D6,625.25,0.25,51,120.0
4097,E-6,625.5,0.5,56,120.0
4098,E-4,625.5,0.25,31,120.0
4099,F#4,625.5,0.25,31,120.0
4100,B4,625.5,0.25,31,120.0
4101,E-4,626.0,0.25,31,120.0
4102,F#4,626.0,0.25,31,120.0
4103,B4,626.0,0.25,31,120.0
4104,G#6,626.375,0.125,51,120.0
4105,F#6,626.5,0.25,57,120.0
4106,E-4,626.5,0.25,31,120.0
4107,F#4,626.5,0.25,31,120.0
4108,B4,626.5,0.25,31,120.0
4109,F6,626.75,0.25,50,120.0
4110,F#6,627.0,0.25,60,120.0
4111,E-4,627.0,0.25,36,120.0
4112,F#4,627.0,0.25,36,120.0
4113,B4,627.0,0.25,36,120.0
4114,E-4,627.5,0.25,31,120.0
4115,F#4,627.5,0.25,31,120.0
4116,B4,627.5,0.25,31,120.0
4117,C#7,627.875,0.125,51,120.0
4118,B6,628.0,0.25,56,120.0
4119,E-4,628.0,0.25,31,120.0
4120,F#4,628.0,0.25,31,120.0
4121,B4,628.0,0.25,31,120.0
4122,B-6,628.25,0.25,51,120.0
4123,B6,628.5,0.5,56,120.0
4124,E-4,628.5,0.25,31,120.0
4125,F#4,628.5,0.25,31,120.0
4126,B4,628.5,0.25,31,120.0
4127,E-4,629.0,0.25,31,120.0
4128,F#4,629.0,0.25,31,120.0
4129,B4,629.0,0.25,31,120.0
4130,G#6,629.375,0.125,51,120.0
4131,F#6,629.5,0.25,57,120.0
4132,E-4,629.5,0.25,31,120.0
4133,F#4,629.5,0.25,31,120.0
4134,B4,629.5,0.25,31,120.0
4135,F6,629.75,0.25,50,120.0
4136,F#6,630.0,0.25,60,120.0
4137,E-4,630.0,0.25,36,120.0
4138,F#4,630.0,0.25,36,120.0
4139,B4,630.0,0.25,36,120.0
4140,E-4,630.5,0.25,31,120.0
4141,F#4,630.5,0.25,31,120.0
4142,B4,630.5,0.25,31,120.0
4143,F6,630.875,0.125,51,120.0
4144,E-6,631.0,0.25,56,120.0
4145,E-4,631.0,0.25,31,120.0
4146,F#4,631.0,0.25,31,120.0
4147,B4,631.0,0.25,31,120.0
4148,D6,631.25,0.25,51,120.0
4149,E-6,631.5,0.5,56,120.0
4150,E-4,631.5,0.25,31,120.0
4151,F#4,631.5,0.25,31,120.0
4152,B4,631.5,0.25,31,120.0
4153,E-4,632.0,0.25,31,120.0
4154,F#4,632.0,0.25,31,120.0
4155,B4,632.0,0.25,31,120.0
4156,C#6,632.375,0.125,51,120.0
4157,B5,632.5,0.25,57,120.0
4158,E-4,632.5,0.25,31,120.0
4159,F#4,632.5,0.25,31,120.0
4160,B4,632.5,0.25,31,120.0
4161,B-5,632.75,0.25,50,120.0
4162,B5,633.0,0.25,60,120.0
4163,E-4,633.0,0.25,36,120.0
4164,F#4,633.0,0.25,36,120.0
4165,B4,633.0,0.25,36,120.0
4166,E-4,633.5,0.25,31,120.0
4167,F#4,633.5,0.25,31,120.0
4168,B4,633.5,0.25,31,120.0
4169,G#5,633.875,0.125,51,120.0
4170,F#5,634.0,0.25,56,120.0
4171,E-4,634.0,0.25,31,120.0
4172,F#4,634.0,0.25,31,120.0
4173,B4,634.0,0.25,31,120.0
4174,F5,634.25,0.25,51,120.0
4175,F#5,634.5,1.0,56,120.0
4176,E-4,634.5,0.25,31,120.0
4177,F#4,634.5,0.25,31,120.0
4178,B4,634.5,0.25,31,120.0
4179,E-4,635.0,0.25,31,120.0
4180,F#4,635.0,0.25,31,120.0
4181,B4,635.0,0.25,31,120.0
4182,E-4,635.5,0.25,31,120.0
4183,F#4,635.5,0.25,31,120.0
4184,A4,635.5,0.25,31,120.0
4185,F5,636.0,0.25,55,120.0
4186,D4,636.0,0.25,36,120.0
4187,F4,636.0,0.25,36,120.0
4188,B-4,636.0,0.25,36,120.0
4189,D4,636.5,0.25,31,120.0
4190,F4,636.5,0.25,31,120.0
4191,B-4,636.5,0.25,31,120.0
4192,E-6,636.875,0.125,51,120.0
4193,D6,637.0,0.25,56,120.0
4194,D4,637.0,0.25,31,120.0
4195,F4,637.0,0.25,31,120.0
4196,B-4,637.0,0.25,31,120.0
4197,C6,637.25,0.25,51,120.0
4198,D6,637.5,0.5,56,120.0
4199,D4,637.5,0.25,31,120.0
4200,F4,637.5,0.25,31,120.0
4201,B-4,637.5,0.25,31,120.0
4202,D4,638.0,0.25,31,120.0
4203,F4,638.0,0.25,31,120.0
4204,B-4,638.0,0.25,31,120.0
4205,F#6,638.375,0.125,51,120.0
4206,F6,638.5,0.25,57,120.0
4207,D4,638.5,0.25,31,120.0
4208,F4,638.5,0.25,31,120.0
4209,B-4,638.5,0.25,31,120.0
4210,E6,638.75,0.25,50,120.0
4211,F6,639.0,0.25,60,120.0
4212,D4,639.0,0.25,36,120.0
4213,F4,639.0,0.25,36,120.0
4214,B-4,639.0,0.25,36,120.0
4215,D4,639.5,0.25,31,120.0
4216,F4,639.5,0.25,31,120.0
4217,B-4,639.5,0.25,31,120.0
4218,B6,639.875,0.125,51,120.0
4219,B-6,640.0,0.25,56,120.0
4220,D4,640.0,0.25,31,120.0
4221,F4,640.0,0.25,31,120.0
4222,B-4,640.0,0.25,31,120.0
4223,A6,640.25,0.25,51,120.0
4224,B-6,640.5,0.5,56,120.0
4225,D4,640.5,0.25,31,120.0
4226,F4,640.5,0.25,31,120.0
4227,B-4,640.5,0.25,31,120.0
4228,D4,641.0,0.25,31,120.0
4229,F4,641.0,0.25,31,120.0
4230,B-4,641.0,0.25,31,120.0
4231,F#6,641.375,0.125,51,120.0
4232,F6,641.5,0.25,57,120.0
4233,D4,641.5,0.25,31,120.0
4234,F4,641.5,0.25,31,120.0
4235,B-4,641.5,0.25,31,120.0
4236,E6,641.75,0.25,50,120.0
4237,F6,642.0,0.25,60,120.0
4238,D4,642.0,0.25,36,120.0
4239,F4,642.0,0.25,36,120.0
4240,B-4,642.0,0.25,36,120.0
4241,D4,642.5,0.25,31,120.0
4242,F4,642.5,0.25,31,120.0
4243,B-4,642.5,0.25,31,120.0
4244,E-6,642.875,0.125,51,120.0
4245,D6,643.0,0.25,56,120.0
4246,D4,643.0,0.25,31,120.0
4247,F4,643.0,0.25,31,120.0
4248,B-4,643.0,0.25,31,120.0
4249,C6,643.25,0.25,51,120.0
4250,D6,643.5,0.5,56,120.0
4251,D4,643.5,0.25,31,120.0
4252,F4,643.5,0.25,31,120.0
4253,B-4,643.5,0.25,31,120.0
4254,D4,644.0,0.25,31,120.0
4255,F4,644.0,0.25,31,120.0
4256,B-4,644.0,0.25,31,120.0
4257,B5,644.375,0.125,51,120.0
4258,B-5,644.5,0.25,57,120.0
4259,D4,644.5,0.25,31,120.0
4260,F4,644.5,0.25,31,120.0
4261,B-4,644.5,0.25,31,120.0
4262,A5,644.75,0.25,50,120.0
4263,B-5,645.0,0.25,60,120.0
4264,D4,645.0,0.25,36,120.0
4265,F4,645.0,0.25,36,120.0
4266,B-4,645.0,0.25,36,120.0
4267,D4,645.5,0.25,31,120.0
4268,F4,645.5,0.25,31,120.0
4269,B-4,645.5,0.25,31,120.0
4270,F#5,645.875,0.125,51,120.0
4271,F5,646.0,0.25,56,120.0
4272,D4,646.0,0.25,31,120.0
4273,F4,646.0,0.25,31,120.0
4274,B-4,646.0,0.25,31,120.0
4275,E5,646.25,0.25,51,120.0
4276,F5,646.5,0.5,56,120.0
4277,D4,646.5,0.5,31,120.0
4278,F4,646.5,0.5,31,120.0
4279,B-4,646.5,0.5,31,120.0
4280,B-3,647.0,0.5,35,120.0
4281,F#5,647.5,0.5,52,120.0
4282,G#3,647.5,0.5,35,120.0
4283,G5,648.0,1.5,56,120.0
4284,B-4,648.0,0.25,35,120.0
4285,E-3,648.0,3.0,40,120.0
4286,G3,648.0,1.0,40,120.0
4287,C5,648.25,0.25,31,120.0
4288,B-4,648.5,0.25,35,120.0
4289,C5,648.75,0.25,31,120.0
4290,B-4,649.0,0.25,34,120.0
4291,C4,649.0,0.5,33,120.0
4292,C5,649.25,0.25,31,120.0
4293,B-4,649.5,0.25,36,120.0
4294,E-5,649.5,1.5,55,120.0
4295,B-3,649.5,1.0,42,120.0
4296,C5,649.75,0.25,32,120.0
4297,B-4,650.0,0.25,36,120.0
4298,C5,650.25,0.25,31,120.0
4299,B-4,650.5,0.25,37,120.0
4300,G3,650.5,0.5,39,120.0
4301,C5,650.75,0.25,31,120.0
4302,D5,651.0,1.5,59,120.0
4303,B-4,651.0,0.25,37,120.0
4304,B-2,651.0,3.0,42,120.0
4305,F3,651.0,1.0,42,120.0
4306,C5,651.25,0.25,33,120.0
4307,B-4,651.5,0.25,37,120.0
4308,C5,651.75,0.25,33,120.0
4309,B-4,652.0,0.25,37,120.0
4310,C4,652.0,0.5,36,120.0
4311,C5,652.25,0.25,34,120.0
4312,B-4,652.5,0.25,38,120.0
4313,G#5,652.5,1.5,59,120.0
4314,B-3,652.5,1.0,45,120.0
4315,C5,652.75,0.25,34,120.0
4316,B-4,653.0,0.25,39,120.0
4317,C5,653.25,0.25,33,120.0
4318,B-4,653.5,0.25,39,120.0
4319,F3,653.5,0.5,41,120.0
4320,C5,653.75,0.25,34,120.0
4321,B-4,654.0,0.25,40,120.0
4322,G5,654.0,1.5,64,120.0
4323,E-3,654.0,3.0,46,120.0
4324,G3,654.0,1.0,46,120.0
4325,C5,654.25,0.25,35,120.0
4326,B-4,654.5,0.25,39,120.0
4327,C5,654.75,0.25,35,120.0
4328,B-4,655.0,0.25,38,120.0
4329,C4,655.0,0.5,37,120.0
4330,C5,655.25,0.25,34,120.0
4331,E-5,655.5,1.5,60,120.0
4332,B-4,655.5,0.25,39,120.0
4333,B-3,655.5,1.0,45,120.0
4334,C5,655.75,0.25,34,120.0
4335,B-4,656.0,0.25,38,120.0
4336,C5,656.25,0.25,33,120.0
4337,B-4,656.5,0.25,38,120.0
4338,G3,656.5,0.5,40,120.0
4339,C5,656.75,0.25,32,120.0
4340,B-4,657.0,0.25,37,120.0
4341,D5,657.0,1.5,60,120.0
4342,B-2,657.0,3.0,43,120.0
4343,F3,657.0,1.0,43,120.0
4344,C5,657.25,0.25,33,120.0
4345,B-4,657.5,0.25,37,120.0
4346,C5,657.75,0.25,32,120.0
4347,B-4,658.0,0.25,35,120.0
4348,C4,658.0,0.5,34,120.0
4349,C5,658.25,0.25,32,120.0
4350,G#5,658.5,1.5,56,120.0
4351,B-4,658.5,0.25,36,120.0
4352,B-3,658.5,1.0,42,120.0
4353,C5,658.75,0.25,32,120.0
4354,B-4,659.0,0.25,36,120.0
4355,C5,659.25,0.25,30,120.0
4356,B-4,659.5,0.25,35,120.0
4357,F3,659.5,0.5,37,120.0
4358,C5,659.75,0.25,30,120.0
4359,B-4,660.0,0.25,50,120.0
4360,G5,660.0,0.25,50,120.0
4361,B-3,660.0,0.25,37,120.0
4362,E-3,660.0,0.25,37,120.0
4363,C5,660.25,0.25,45,120.0
4364,D5,660.5,0.25,50,120.0
4365,G3,660.5,0.25,31,120.0
4366,B-3,660.5,0.25,31,120.0
4367,E-4,660.5,0.25,31,120.0
4368,E-5,660.75,0.25,52,120.0
4369,F5,661.0,0.167,54,120.0
4370,G3,661.0,0.25,31,120.0
4371,B-3,661.0,0.25,31,120.0
4372,E-4,661.0,0.25,31,120.0
4373,G5,661.167,0.167,56,120.0
4374,G#5,661.333,0.167,59,120.0
4375,B-5,661.5,0.25,61,120.0
4376,G3,661.5,0.25,31,120.0
4377,B-3,661.5,0.25,31,120.0
4378,E-4,661.5,0.25,31,120.0
4379,G#5,661.75,0.25,60,120.0
4380,G5,662.0,0.167,58,120.0
4381,G3,662.0,0.25,31,120.0
4382,B-3,662.0,0.25,31,120.0
4383,E-4,662.0,0.25,31,120.0
4384,F5,662.167,0.167,56,120.0
4385,E-5,662.333,0.167,54,120.0
4386,D5,662.5,0.167,53,120.0
4387,G3,662.5,0.25,31,120.0
4388,B3,662.5,0.25,31,120.0
4389,E-4,662.5,0.25,31,120.0
4390,C5,662.667,0.167,51,120.0
4391,B4,662.833,0.167,49,120.0
4392,C5,663.0,0.25,54,120.0
4393,E-5,663.25,0.25,45,120.0
4394,F5,663.5,0.25,48,120.0
4395,G#3,663.5,0.25,31,120.0
4396,C4,663.5,0.25,31,120.0
4397,E-4,663.5,0.25,31,120.0
4398,G5,663.75,0.25,50,120.0
4399,G#5,664.0,0.25,56,120.0
4400,G#3,664.0,0.25,31,120.0
4401,C4,664.0,0.25,31,120.0
4402,E-4,664.0,0.25,31,120.0
4403,B-5,664.25,0.25,59,120.0
4404,C6,664.5,0.25,61,120.0
4405,G#3,664.5,0.25,31,120.0
4406,C4,664.5,0.25,31,120.0
4407,E-4,664.5,0.25,31,120.0
4408,B-5,664.75,0.25,60,120.0
4409,G#5,665.0,0.167,58,120.0
4410,G#3,665.0,0.25,31,120.0
4411,C4,665.0,0.25,31,120.0
4412,E-4,665.0,0.25,31,120.0
4413,G5,665.167,0.167,57,120.0
4414,F5,665.333,0.167,56,120.0
4415,E-5,665.5,0.167,55,120.0
4416,A3,665.5,0.25,31,120.0
4417,E-4,665.5,0.25,31,120.0
4418,F4,665.5,0.25,31,120.0
4419,D5,665.667,0.167,54,120.0
4420,C5,665.833,0.167,53,120.0
4421,B-4,666.0,0.25,57,120.0
4422,G5,666.25,0.25,49,120.0
4423,E-5,666.5,0.25,59,120.0
4424,B-3,666.5,0.25,31,120.0
4425,E-4,666.5,0.25,31,120.0
4426,G4,666.5,0.25,31,120.0
4427,B-5,666.75,0.25,55,120.0
4428,G5,667.0,0.25,62,120.0
4429,B-3,667.0,0.25,31,120.0
4430,E-4,667.0,0.25,31,120.0
4431,G4,667.0,0.25,31,120.0
4432,E-6,667.25,0.25,57,120.0
4433,B-5,667.5,0.25,62,120.0
4434,B-3,667.5,0.25,31,120.0
4435,E-4,667.5,0.25,31,120.0
4436,G4,667.5,0.25,31,120.0
4437,G6,667.75,0.25,57,120.0
4438,E-6,668.0,0.25,55,120.0
4439,B-3,668.0,0.25,31,120.0
4440,E-4,668.0,0.25,31,120.0
4441,G4,668.0,0.25,31,120.0
4442,B-6,668.235,0.25,61,120.0
4443,G6,668.5,0.25,53,120.0
4444,B-3,668.5,0.25,31,120.0
4445,E-4,668.5,0.25,31,120.0
4446,G4,668.5,0.25,31,120.0
4447,E-6,668.75,0.25,54,120.0
4448,B-5,669.0,1.0,59,120.0
4449,G4,669.0,0.25,31,120.0
4450,B-3,669.0,0.25,31,120.0
4451,E-4,669.0,0.25,31,120.0
4452,B-3,669.5,0.25,31,120.0
4453,E-4,669.5,0.25,31,120.0
4454,G4,669.5,0.25,31,120.0
4455,B-3,670.0,0.25,31,120.0
4456,E-4,670.0,0.25,31,120.0
4457,G4,670.0,0.25,31,120.0
4458,F6,670.5,0.167,59,120.0
4459,B-3,670.5,0.25,31,120.0
4460,D4,670.5,0.25,31,120.0
4461,G#4,670.5,0.25,31,120.0
4462,G6,670.667,0.167,52,120.0
4463,F6,670.833,0.167,59,120.0
4464,G6,671.0,0.167,54,120.0
4465,B-3,671.0,0.25,31,120.0
4466,D4,671.0,0.25,31,120.0
4467,G#4,671.0,0.25,31,120.0
4468,F6,671.167,0.167,59,120.0
4469,G6,671.333,0.167,53,120.0
4470,F6,671.5,0.167,59,120.0
4471,B-3,671.5,0.25,31,120.0
4472,D4,671.5,0.25,31,120.0
4473,G#4,671.5,0.25,31,120.0
4474,G6,671.667,0.167,53,120.0
4475,F6,671.833,0.167,56,120.0
4476,G6,672.0,1.5,67,120.0
4477,B-5,672.0,0.25,45,120.0
4478,E-4,672.0,3.0,40,120.0
4479,G4,672.0,1.0,40,120.0
4480,C6,672.25,0.25,34,120.0
4481,B-5,672.5,0.25,38,120.0
4482,C6,672.75,0.25,34,120.0
4483,B-5,673.0,0.25,37,120.0
4484,C5,673.0,0.5,33,120.0
4485,C6,673.25,0.25,34,120.0
4486,E-6,673.5,1.5,60,120.0
4487,B-5,673.5,0.25,39,120.0
4488,B-4,673.5,1.0,42,120.0
4489,C6,673.75,0.25,35,120.0
4490,B-5,674.0,0.25,39,120.0
4491,C6,674.25,0.25,34,120.0
4492,B-5,674.5,0.25,40,120.0
4493,G4,674.5,0.5,39,120.0
4494,C6,674.75,0.25,34,120.0
4495,B-5,675.0,0.25,40,120.0
4496,D6,675.0,1.5,64,120.0
4497,B-3,675.0,3.0,42,120.0
4498,F4,675.0,1.0,42,120.0
4499,C6,675.25,0.25,36,120.0
4500,B-5,675.5,0.25,40,120.0
4501,C6,675.75,0.25,36,120.0
4502,B-5,676.0,0.25,40,120.0
4503,C5,676.0,0.5,36,120.0
4504,C6,676.25,0.25,37,120.0
4505,G#6,676.5,1.5,64,120.0
4506,B-5,676.5,0.25,41,120.0
4507,B-4,676.5,1.0,45,120.0
4508,C6,676.75,0.25,37,120.0
4509,B-5,677.0,0.25,42,120.0
4510,C6,677.25,0.25,36,120.0
4511,B-5,677.5,0.25,42,120.0
4512,F4,677.5,0.5,41,120.0
4513,C6,677.75,0.25,37,120.0
4514,G6,678.0,1.5,70,120.0
4515,B-5,678.0,0.25,44,120.0
4516,E-4,678.0,3.0,46,120.0
4517,G4,678.0,1.0,46,120.0
4518,C6,678.25,0.25,38,120.0
4519,B-5,678.5,0.25,42,120.0
4520,C6,678.75,0.25,38,120.0
4521,B-5,679.0,0.25,41,120.0
4522,C5,679.0,0.5,37,120.0
4523,C6,679.25,0.25,37,120.0
4524,B-5,679.5,0.25,42,120.0
4525,E-6,679.5,1.5,66,120.0
4526,B-4,679.5,1.0,45,120.0
4527,C6,679.75,0.25,37,120.0
4528,B-5,680.0,0.25,41,120.0
4529,C6,680.25,0.25,36,120.0
4530,B-5,680.5,0.25,41,120.0
4531,G4,680.5,0.5,40,120.0
4532,C6,680.75,0.25,35,120.0
4533,D6,681.0,1.5,66,120.0
4534,B-5,681.0,0.25,40,120.0
4535,B-3,681.0,3.0,43,120.0
4536,F4,681.0,1.0,43,120.0
4537,C6,681.25,0.25,36,120.0
4538,B-5,681.5,0.25,40,120.0
4539,C6,681.75,0.25,35,120.0
4540,B-5,682.0,0.25,38,120.0
4541,C5,682.0,0.5,34,120.0
4542,C6,682.25,0.25,35,120.0
4543,B-5,682.5,0.25,39,120.0
4544,G#6,682.5,1.5,61,120.0
4545,B-4,682.5,1.0,42,120.0
4546,C6,682.75,0.25,35,120.0
4547,B-5,683.0,0.25,39,120.0
4548,C6,683.25,0.25,33,120.0
4549,B-5,683.5,0.25,38,120.0
4550,F4,683.5,0.5,37,120.0
4551,C6,683.75,0.25,33,120.0
4552,E-4,684.0,0.25,51,120.0
4553,G4,684.25,0.25,45,120.0
4554,G#4,684.5,0.25,50,120.0
4555,E-6,684.5,0.25,49,120.0
4556,G6,684.5,0.25,49,120.0
4557,B-4,684.75,0.25,52,120.0
4558,C5,685.0,0.25,54,120.0
4559,G6,685.0,0.25,49,120.0
4560,E-6,685.0,0.25,49,120.0
4561,D5,685.25,0.25,56,120.0
4562,E-5,685.5,0.25,61,120.0
4563,E-6,685.5,0.25,52,120.0
4564,G6,685.5,0.25,52,120.0
4565,D5,685.75,0.25,60,120.0
4566,C5,686.0,0.25,58,120.0
4567,E-6,686.0,0.25,46,120.0
4568,G6,686.0,0.25,46,120.0
4569,B-4,686.25,0.25,57,120.0
4570,G#4,686.5,0.25,55,120.0
4571,E-6,686.5,0.25,46,120.0
4572,G6,686.5,0.25,46,120.0
4573,G4,686.75,0.25,54,120.0
4574,G#4,687.0,0.25,51,120.0
4575,C5,687.25,0.25,45,120.0
4576,D5,687.5,0.25,48,120.0
4577,E-6,687.5,0.25,49,120.0
4578,F6,687.5,0.25,49,120.0
4579,E-5,687.75,0.25,50,120.0
4580,F5,688.0,0.25,55,120.0
4581,F6,688.0,0.25,49,120.0
4582,E-6,688.0,0.25,49,120.0
4583,G5,688.25,0.25,57,120.0
4584,G#5,688.5,0.25,62,120.0
4585,F6,688.5,0.25,53,120.0
4586,E-6,688.5,0.25,53,120.0
4587,G5,688.75,0.25,60,120.0
4588,F5,689.0,0.25,59,120.0
4589,F6,689.0,0.25,48,120.0
4590,E-6,689.0,0.25,48,120.0
4591,E-5,689.25,0.25,58,120.0
4592,D5,689.5,0.25,57,120.0
4593,F6,689.5,0.25,50,120.0
4594,E-6,689.5,0.25,50,120.0
4595,C5,689.75,0.25,55,120.0
4596,B-4,690.0,0.25,60,120.0
4597,B-3,690.25,0.25,52,120.0
4598,E-4,690.5,0.25,63,120.0
4599,G6,690.5,0.25,52,120.0
4600,E-6,690.5,0.25,52,120.0
4601,G4,690.75,0.25,59,120.0
4602,B-4,691.0,0.25,68,120.0
4603,G6,691.0,0.25,53,120.0
4604,E-6,691.0,0.25,53,120.0
4605,E-5,691.25,0.25,62,120.0
4606,G5,691.5,0.25,63,120.0
4607,G6,691.5,0.25,57,120.0
4608,E-6,691.5,0.25,57,120.0
4609,E-5,691.75,0.25,54,120.0
4610,B-5,692.0,0.25,66,120.0
4611,G6,692.0,0.25,51,120.0
4612,E-6,692.0,0.25,51,120.0
4613,G5,692.25,0.25,62,120.0
4614,E-5,692.5,0.25,70,120.0
4615,G6,692.5,0.25,52,120.0
4616,E-6,692.5,0.25,52,120.0
4617,B-4,692.75,0.25,64,120.0
4618,B-4,693.0,0.5,60,120.0
4619,F5,693.0,0.167,67,120.0
4620,F6,693.0,0.25,64,120.0
4621,D6,693.0,0.25,64,120.0
4622,G5,693.167,0.167,59,120.0
4623,F5,693.333,0.167,67,120.0
4624,G5,693.5,0.167,61,120.0
4625,F6,693.5,0.25,50,120.0
4626,D6,693.5,0.25,50,120.0
4627,F5,693.667,0.167,66,120.0
4628,G5,693.833,0.167,59,120.0
4629,F5,694.0,0.167,66,120.0
4630,F6,694.0,0.25,49,120.0
4631,D6,694.0,0.25,49,120.0
4632,G5,694.167,0.167,59,120.0
4633,F5,694.333,0.167,62,120.0
4634,G5,694.5,0.167,56,120.0
4635,D6,694.5,0.25,58,120.0
4636,F6,694.5,0.25,58,120.0
4637,F5,694.667,0.167,63,120.0
4638,G5,694.833,0.167,55,120.0
4639,F5,695.0,0.167,63,120.0
4640,D6,695.0,0.25,49,120.0
4641,F6,695.0,0.25,49,120.0
4642,G5,695.167,0.167,55,120.0
4643,F5,695.333,0.167,63,120.0
4644,G5,695.5,0.167,55,120.0
4645,D6,695.5,0.25,48,120.0
4646,F6,695.5,0.25,48,120.0
4647,F5,695.667,0.167,63,120.0
4648,G5,695.833,0.167,59,120.0
4649,B-4,696.0,0.25,62,120.0
4650,E5,696.25,0.25,55,120.0
4651,F5,696.5,0.25,58,120.0
4652,G5,696.75,0.25,60,120.0
4653,F5,697.0,0.25,58,120.0
4654,C#6,697.0,1.5,74,120.0
4655,C#7,697.0,1.5,74,120.0
4656,E5,697.25,0.25,58,120.0
4657,G#4,697.5,0.25,61,120.0
4658,F5,697.75,0.25,56,120.0
4659,G5,698.0,0.25,59,120.0
4660,G#5,698.25,0.25,61,120.0
4661,G5,698.5,0.25,57,120.0
4662,C7,698.5,0.5,70,120.0
4663,C6,698.5,0.5,70,120.0
4664,F5,698.75,0.25,57,120.0
4665,G#3,699.013,0.25,62,120.0
4666,D4,699.25,0.25,55,120.0
4667,E-4,699.5,0.25,58,120.0
4668,F4,699.74,0.25,60,120.0
4669,E-4,700.0,0.25,59,120.0
4670,B4,700.0,1.5,75,120.0
4671,B5,700.0,1.5,75,120.0
4672,D4,700.25,0.25,59,120.0
4673,G3,700.5,0.25,62,120.0
4674,E-4,700.75,0.25,57,120.0
4675,F4,701.0,0.25,61,120.0
4676,G4,701.25,0.25,64,120.0
4677,F4,701.5,0.25,59,120.0
4678,B-4,701.5,0.5,74,120.0
4679,B-5,701.5,0.5,74,120.0
4680,E-4,701.75,0.25,60,120.0
4681,B-2,702.013,0.25,65,120.0
4682,E3,702.25,0.25,58,120.0
4683,F3,702.5,0.25,62,120.0
4684,G3,702.74,0.25,64,120.0
4685,F3,703.0,0.25,62,120.0
4686,C#4,703.0,1.5,80,120.0
4687,C#5,703.0,1.5,80,120.0
4688,E3,703.25,0.25,63,120.0
4689,G#2,703.5,0.25,67,120.0
4690,F3,703.75,0.25,61,120.0
4691,G3,704.0,0.25,65,120.0
4692,G#3,704.25,0.25,67,120.0
4693,G3,704.5,0.25,63,120.0
4694,C4,704.5,0.5,70,120.0
4695,C5,704.5,0.5,70,120.0
4696,F3,704.75,0.25,63,120.0
4697,G#1,705.013,0.25,70,120.0
4698,D2,705.25,0.25,62,120.0
4699,E-2,705.5,0.25,66,120.0
4700,F2,705.74,0.25,68,120.0
4701,E-2,706.0,0.25,66,120.0
4702,B2,706.0,1.5,85,120.0
4703,B3,706.0,1.5,85,120.0
4704,D2,706.25,0.25,67,120.0
4705,G1,706.5,0.25,70,120.0
4706,E-2,706.75,0.25,65,120.0
4707,F2,707.0,0.25,69,120.0
4708,G2,707.25,0.25,71,120.0
4709,F2,707.5,0.25,67,120.0
4710,B-2,707.5,0.5,82,120.0
4711,B-3,707.5,0.5,82,120.0
4712,E-2,707.75,0.25,67,120.0
4713,G1,708.0,0.25,70,120.0
4714,B-1,708.25,0.25,62,120.0
4715,E-2,708.5,0.25,66,120.0
4716,B-4,708.5,0.25,66,120.0
4717,B-3,708.5,0.25,66,120.0
4718,G2,708.75,0.25,68,120.0
4719,E-2,709.0,0.25,66,120.0
4720,B-4,709.0,0.25,62,120.0
4721,B-3,709.0,0.25,62,120.0
4722,B-1,709.25,0.25,63,120.0
4723,C2,709.5,0.25,70,120.0
4724,E-2,709.75,0.25,65,120.0
4725,G2,710.0,0.25,69,120.0
4726,G#4,710.0,0.25,64,120.0
4727,G#3,710.0,0.25,64,120.0
4728,C3,710.25,0.25,71,120.0
4729,G2,710.5,0.25,67,120.0
4730,G4,710.5,0.25,60,120.0
4731,G3,710.5,0.25,60,120.0
4732,E-2,710.75,0.25,64,120.0
4733,G#1,711.0,0.25,70,120.0
4734,C2,711.25,0.25,62,120.0
4735,F2,711.5,0.25,66,120.0
4736,G4,711.5,0.25,66,120.0
4737,G3,711.5,0.25,66,120.0
4738,G#2,711.75,0.25,68,120.0
4739,F2,712.0,0.25,66,120.0
4740,F4,712.0,0.25,62,120.0
4741,F3,712.0,0.25,62,120.0
4742,C2,712.25,0.25,63,120.0
4743,B-1,712.5,0.25,70,120.0
4744,F2,712.75,0.25,65,120.0
4745,G#2,713.0,0.25,69,120.0
4746,E-4,713.0,0.25,64,120.0
4747,E-3,713.0,0.25,64,120.0
4748,B-2,713.25,0.25,71,120.0
4749,G#2,713.5,0.25,67,120.0
4750,D4,713.5,0.25,60,120.0
4751,D3,713.5,0.25,60,120.0
4752,F2,713.75,0.25,64,120.0
4753,G2,714.0,0.25,70,120.0
4754,B-2,714.25,0.25,62,120.0
4755,E-3,714.5,0.25,66,120.0
4756,B-5,714.5,0.25,66,120.0
4757,B-4,714.5,0.25,66,120.0
4758,G3,714.75,0.25,68,120.0
4759,E-3,715.0,0.25,66,120.0
4760,B-5,715.0,0.25,62,120.0
4761,B-4,715.0,0.25,62,120.0
4762,B-2,715.25,0.25,63,120.0
4763,C3,715.5,0.25,70,120.0
4764,E-3,715.75,0.25,65,120.0
4765,G3,716.0,0.25,69,120.0
4766,G#5,716.0,0.25,64,120.0
4767,G#4,716.0,0.25,64,120.0
4768,C4,716.25,0.25,71,120.0
4769,G3,716.5,0.25,67,120.0
4770,G5,716.5,0.25,60,120.0
4771,G4,716.5,0.25,60,120.0
4772,E-3,716.75,0.25,64,120.0
4773,G#2,717.0,0.25,70,120.0
4774,C3,717.25,0.25,62,120.0
4775,F3,717.5,0.25,66,120.0
4776,G5,717.5,0.25,66,120.0
4777,G4,717.5,0.25,66,120.0
4778,G#3,717.75,0.25,68,120.0
4779,F3,718.0,0.25,66,120.0
4780,F5,718.0,0.25,62,120.0
4781,F4,718.0,0.25,62,120.0
4782,C3,718.25,0.25,63,120.0
4783,B-1,718.5,0.25,70,120.0
4784,F2,718.75,0.25,65,120.0
4785,G#2,719.0,0.25,69,120.0
4786,E-5,719.0,0.25,64,120.0
4787,E-4,719.0,0.25,64,120.0
4788,B-2,719.25,0.25,71,120.0
4789,G#2,719.5,0.25,67,120.0
4790,D5,719.5,0.25,60,120.0
4791,D4,719.5,0.25,60,120.0
4792,F2,719.75,0.25,64,120.0
4793,G1,720.0,0.25,70,120.0
4794,B-1,720.25,0.25,62,120.0
4795,E-2,720.5,0.25,66,120.0
4796,E-5,720.5,0.25,64,120.0
4797,G4,720.5,0.25,64,120.0
4798,E-4,720.5,0.25,64,120.0
4799,G2,720.75,0.25,68,120.0
4800,E-2,721.0,0.25,67,120.0
4801,B-4,721.0,0.25,62,120.0
4802,G4,721.0,0.25,62,120.0
4803,E-4,721.0,0.25,62,120.0
4804,B-1,721.25,0.25,64,120.0
4805,C2,721.5,0.25,72,120.0
4806,E-2,721.75,0.25,67,120.0
4807,G2,722.0,0.25,72,120.0
4808,C4,722.0,0.25,69,120.0
4809,G#4,722.0,0.25,69,120.0
4810,E-4,722.0,0.25,69,120.0
4811,C3,722.25,0.25,74,120.0
4812,G2,722.5,0.25,71,120.0
4813,G4,722.5,0.25,61,120.0
4814,E-4,722.5,0.25,61,120.0
4815,C4,722.5,0.25,61,120.0
4816,E-2,722.75,0.25,67,120.0
4817,G#1,723.0,0.25,74,120.0
4818,C2,723.25,0.25,66,120.0
4819,F2,723.5,0.25,71,120.0
4820,G4,723.5,0.25,68,120.0
4821,C4,723.5,0.25,68,120.0
4822,G#3,723.5,0.25,68,120.0
4823,G#2,723.75,0.25,74,120.0
4824,F2,724.0,0.25,72,120.0
4825,F4,724.0,0.25,66,120.0
4826,C4,724.0,0.25,66,120.0
4827,G#3,724.0,0.25,66,120.0
4828,C2,724.25,0.25,67,120.0
4829,B-1,724.5,0.25,77,120.0
4830,F2,724.75,0.25,72,120.0
4831,G#2,725.0,0.25,77,120.0
4832,F3,725.0,0.25,73,120.0
4833,E-4,725.0,0.25,73,120.0
4834,G#3,725.0,0.25,73,120.0
4835,B-2,725.25,0.25,80,120.0
4836,B-1,725.5,0.25,75,120.0
4837,D4,725.5,0.25,66,120.0
4838,G#3,725.5,0.25,66,120.0
4839,F3,725.5,0.25,66,120.0
4840,B-2,725.75,0.25,72,120.0
4841,E-3,726.0,0.25,62,120.0
4842,E-2,726.0,0.25,75,120.0
4843,F3,726.25,0.25,63,120.0
4844,G3,726.5,0.25,65,120.0
4845,E-3,726.5,0.25,75,120.0
4846,G#3,726.75,0.25,66,120.0
4847,B-3,727.0,0.167,67,120.0
4848,G3,727.0,0.25,70,120.0
4849,E-3,727.0,0.25,70,120.0
4850,C4,727.167,0.167,68,120.0
4851,D4,727.333,0.167,68,120.0
4852,E-4,727.5,0.167,69,120.0
4853,E-3,727.5,1.0,74,120.0
4854,G3,727.5,1.0,74,120.0
4855,B-3,727.5,1.0,74,120.0
4856,F4,727.667,0.167,70,120.0
4857,G4,727.833,0.167,71,120.0
4858,G#4,728.0,0.167,72,120.0
4859,B-4,728.167,0.167,72,120.0
4860,C5,728.333,0.167,73,120.0
4861,D5,728.5,0.25,85,120.0
4862,B-2,728.5,0.25,64,120.0
4863,F3,728.5,0.25,64,120.0
4864,B-3,728.5,0.25,64,120.0
4865,D4,728.75,0.25,67,120.0
4866,E-4,729.0,0.25,62,120.0
4867,E-3,729.0,0.25,71,120.0
4868,G3,729.0,0.25,71,120.0
4869,B-3,729.0,0.25,71,120.0
4870,F4,729.25,0.25,63,120.0
4871,G4,729.5,0.25,65,120.0
4872,E-3,729.5,0.25,67,120.0
4873,G3,729.5,0.25,67,120.0
4874,B-3,729.5,0.25,67,120.0
4875,G#4,729.75,0.25,66,120.0
4876,B-4,730.0,0.167,67,120.0
4877,E-3,730.0,0.25,66,120.0
4878,G3,730.0,0.25,66,120.0
4879,B-3,730.0,0.25,66,120.0
4880,C5,730.167,0.167,68,120.0
4881,D5,730.333,0.167,68,120.0
4882,E-5,730.5,0.167,69,120.0
4883,E-3,730.5,1.0,73,120.0
4884,G3,730.5,1.0,73,120.0
4885,B-3,730.5,1.0,73,120.0
4886,F5,730.667,0.167,70,120.0
4887,G5,730.833,0.167,71,120.0
4888,G#5,731.0,0.167,72,120.0
4889,B-5,731.167,0.167,72,120.0
4890,C6,731.333,0.167,73,120.0
4891,D6,731.5,0.25,85,120.0
4892,B-2,731.5,0.25,67,120.0
4893,F3,731.5,0.25,67,120.0
4894,B-3,731.5,0.25,67,120.0
4895,D5,731.75,0.25,67,120.0
4896,E-5,732.0,0.25,62,120.0
4897,E-3,732.0,0.25,68,120.0
4898,G3,732.0,0.25,68,120.0
4899,B-3,732.0,0.25,68,120.0
4900,F5,732.25,0.25,63,120.0
4901,G5,732.5,0.25,65,120.0
4902,E-3,732.5,0.25,67,120.0
4903,G3,732.5,0.25,67,120.0
4904,B-3,732.5,0.25,67,120.0
4905,G#5,732.75,0.25,66,120.0
4906,B-5,733.0,0.167,68,120.0
4907,E-3,733.0,0.25,65,120.0
4908,G3,733.0,0.25,65,120.0
4909,B-3,733.0,0.25,65,120.0
4910,C6,733.167,0.167,70,120.0
4911,D6,733.333,0.167,72,120.0
4912,E-6,733.5,0.25,74,120.0
4913,E-3,733.5,1.0,74,120.0
4914,G3,733.5,1.0,74,120.0
4915,B-3,733.5,1.0,74,120.0
4916,F6,733.75,0.25,78,120.0
4917,G6,734.0,0.25,82,120.0
4918,G#6,734.25,0.25,86,120.0
4919,B-6,734.5,0.167,90,120.0
4920,B-2,734.5,0.25,67,120.0
4921,F3,734.5,0.25,67,120.0
4922,B-3,734.5,0.25,67,120.0
4923,C7,734.667,0.167,92,120.0
4924,D7,734.833,0.167,95,120.0
4925,E-7,735.0,1.0,103,120.0
4926,E-3,735.0,1.0,73,120.0
4927,G3,735.0,1.0,73,120.0
4928,B-3,735.0,1.0,73,120.0
4929,G4,736.5,1.0,80,120.0
4930,B-4,736.5,1.0,80,120.0
4931,E-5,736.5,1.0,80,120.0
4932,E-2,736.5,1.0,76,120.0
4933,E-3,736.5,1.0,76,120.0
4934,G3,738.0,1.0,79,120.0
4935,B-3,738.0,1.0,79,120.0
4936,E-4,738.0,1.0,79,120.0
4937,E-2,738.0,1.0,76,120.0
4938,E-3,738.0,1.0,76,120.0
4939,B-4,739.5,1.0,70,120.0
4940,B-4,740.5,0.5,60,120.0
4941,B-4,741.0,0.5,45,120.0
4942,E-3,741.0,1.0,36,120.0
4943,G3,741.0,1.0,36,120.0
4944,B-3,741.0,1.0,36,120.0
4945,G4,741.5,0.5,45,120.0
4946,E-4,742.0,0.5,39,120.0
4947,D4,742.5,0.5,45,120.0
4948,F3,742.5,1.0,30,120.0
4949,G#3,742.5,1.0,30,120.0
4950,B-2,742.5,1.0,30,120.0
4951,B-3,742.5,1.0,30,120.0
4952,F4,743.0,0.5,40,120.0
4953,B-4,743.5,0.375,40,120.0
4954,B-4,744.0,0.5,45,120.0
4955,E-3,744.0,1.0,36,120.0
4956,B-3,744.0,1.0,36,120.0
4957,G3,744.0,1.0,36,120.0
4958,G4,744.5,0.5,41,120.0
4959,E-4,745.0,0.5,41,120.0
4960,E4,745.5,0.5,45,120.0
4961,C3,745.5,0.5,30,120.0
4962,G3,745.5,0.5,30,120.0
4963,C4,745.5,0.5,30,120.0
4964,G4,746.0,0.5,39,120.0
4965,C5,746.5,0.375,46,120.0
4966,E3,746.5,0.375,30,120.0
4967,G3,746.5,0.375,30,120.0
4968,B-3,746.5,0.375,30,120.0
4969,C4,746.5,0.375,30,120.0
4970,C5,747.0,0.5,50,120.0
4971,G#3,747.0,1.0,36,120.0
4972,F3,747.0,1.0,36,120.0
4973,C4,747.0,1.0,36,120.0
4974,G#4,747.5,0.5,45,120.0
4975,F4,748.0,0.5,45,120.0
4976,F#4,748.5,0.5,49,120.0
4977,D4,748.5,0.5,30,120.0
4978,D3,748.5,0.5,30,120.0
4979,A3,748.5,0.5,30,120.0
4980,A4,749.0,0.5,44,120.0
4981,D5,749.5,0.375,47,120.0
4982,F#3,749.5,0.375,30,120.0
4983,A3,749.5,0.375,30,120.0
4984,D4,749.5,0.375,30,120.0
4985,D5,750.0,0.5,56,120.0
4986,G3,750.0,1.0,36,120.0
4987,B-3,750.0,1.0,36,120.0
4988,D4,750.0,1.0,36,120.0
4989,B-4,750.5,0.5,45,120.0
4990,G4,751.0,0.5,45,120.0
4991,G#4,751.5,0.5,51,120.0
4992,F3,751.5,1.0,36,120.0
4993,G#3,751.5,1.0,36,120.0
4994,B-3,751.5,1.0,36,120.0
4995,D4,751.5,1.0,36,120.0
4996,B-4,752.0,0.5,45,120.0
4997,D5,752.5,0.375,45,120.0
4998,E-5,753.0,0.5,50,120.0
4999,B-3,753.0,1.0,34,120.0
5000,G3,753.0,1.0,34,120.0
5001,E-4,753.0,1.0,34,120.0
5002,E-3,753.0,1.0,34,120.0
5003,B-4,753.5,0.5,43,120.0
5004,G4,754.0,0.375,43,120.0
5005,G4,754.5,0.5,45,120.0
5006,B-4,755.0,0.5,41,120.0
5007,E-5,755.5,0.375,41,120.0
5008,G5,756.0,0.5,50,120.0
5009,E-4,756.0,0.5,42,120.0
5010,E-5,756.5,0.5,43,120.0
5011,B-3,756.5,0.5,36,120.0
5012,B-4,757.0,0.375,44,120.0
5013,G3,757.0,0.375,37,120.0
5014,B-4,757.5,0.5,47,120.0
5015,G3,757.5,0.5,39,120.0
5016,E-5,758.0,0.5,43,120.0
5017,B-3,758.0,0.5,36,120.0
5018,G5,758.5,0.375,44,120.0
5019,E-4,758.5,0.375,36,120.0
5020,G5,759.0,0.5,50,120.0
5021,B-5,759.0,0.5,50,120.0
5022,E-2,759.0,0.5,42,120.0
5023,G2,759.0,0.5,42,120.0
5024,E-5,759.5,0.5,43,120.0
5025,G5,759.5,0.5,43,120.0
5026,B-2,759.5,0.5,36,120.0
5027,G2,759.5,0.5,36,120.0
5028,E-5,760.0,0.5,44,120.0
5029,B-4,760.0,0.5,44,120.0
5030,B-2,760.0,0.5,36,120.0
5031,E-3,760.0,0.5,36,120.0
5032,G5,760.5,0.5,47,120.0
5033,E-5,760.5,0.5,47,120.0
5034,B-2,760.5,0.5,40,120.0
5035,G2,760.5,0.5,40,120.0
5036,B-4,761.0,0.5,43,120.0
5037,E-5,761.0,0.5,43,120.0
5038,B-2,761.0,0.5,36,120.0
5039,E-3,761.0,0.5,36,120.0
5040,G4,761.5,0.375,44,120.0
5041,B-4,761.5,0.375,44,120.0
5042,E-3,761.5,0.375,36,120.0
5043,G3,761.5,0.375,36,120.0
5044,B-4,762.0,0.5,55,120.0
5045,E-5,762.0,0.5,55,120.0
5046,B-2,762.0,0.5,46,120.0
5047,E-3,762.0,0.5,46,120.0
5048,G4,762.5,0.5,48,120.0
5049,B-4,762.5,0.5,48,120.0
5050,G3,762.5,0.5,40,120.0
5051,E-3,762.5,0.5,40,120.0
5052,G4,763.0,0.5,48,120.0
5053,E-4,763.0,0.5,48,120.0
5054,G3,763.0,0.5,40,120.0
5055,B-3,763.0,0.5,40,120.0
5056,B-4,763.5,0.5,54,120.0
5057,C4,764.0,0.5,42,120.0
5058,G#4,764.0,0.5,42,120.0
5059,B-2,764.0,0.5,34,120.0
5060,F3,764.0,0.5,34,120.0
5061,D4,764.5,0.375,40,120.0
5062,F4,764.5,0.375,40,120.0
5063,B-2,764.5,0.375,32,120.0
5064,B-3,764.5,0.375,32,120.0
5065,G4,765.0,0.25,54,120.0
5066,E-5,765.0,0.25,54,120.0
5067,E-3,765.0,1.0,32,120.0
5068,G3,765.0,1.0,32,120.0
5069,B-3,765.0,1.0,32,120.0
5070,D5,765.25,0.25,46,120.0
5071,E-5,765.5,0.25,46,120.0
5072,B-4,765.75,0.25,42,120.0
5073,G4,766.0,0.25,54,120.0
5074,G#4,766.375,0.125,47,120.0
5075,G4,766.5,0.25,54,120.0
5076,F#4,766.75,0.25,43,120.0
5077,G4,767.0,0.25,48,120.0
5078,B-4,767.25,0.25,43,120.0
5079,E-5,767.5,0.25,56,120.0
5080,G4,768.0,1.5,48,120.0
5081,G5,768.0,0.25,54,120.0
5082,E-3,768.0,1.5,40,120.0
5083,E-4,768.0,0.25,45,120.0
5084,F#5,768.25,0.25,46,120.0
5085,D4,768.25,0.25,39,120.0
5086,G5,768.5,0.25,46,120.0
5087,E-4,768.5,0.25,39,120.0
5088,E-5,768.75,0.25,42,120.0
5089,B-3,768.75,0.25,35,120.0
5090,B-4,769.0,0.25,54,120.0
5091,G3,769.0,0.25,45,120.0
5092,C5,769.375,0.125,47,120.0
5093,G#3,769.375,0.125,39,120.0
5094,B-4,769.5,0.25,54,120.0
5095,G3,769.5,0.25,45,120.0
5096,A4,769.75,0.25,43,120.0
5097,F#3,769.75,0.25,36,120.0
5098,B-4,770.0,0.25,48,120.0
5099,G3,770.0,0.25,40,120.0
5100,E-5,770.25,0.25,43,120.0
5101,B-3,770.25,0.25,36,120.0
5102,G5,770.5,0.25,56,120.0
5103,E-4,770.5,0.25,47,120.0
5104,E-2,771.0,0.25,45,120.0
5105,B-5,771.0,0.25,50,120.0
5106,G5,771.0,0.25,50,120.0
5107,D2,771.25,0.25,36,120.0
5108,C6,771.25,0.25,46,120.0
5109,G#5,771.25,0.25,46,120.0
5110,E-2,771.5,0.25,41,120.0
5111,B-5,771.5,0.25,50,120.0
5112,G5,771.5,0.25,50,120.0
5113,G2,771.75,0.25,37,120.0
5114,G5,771.75,0.25,45,120.0
5115,E-5,771.75,0.25,45,120.0
5116,B-2,772.0,0.5,47,120.0
5117,G4,772.0,0.5,52,120.0
5118,E-5,772.0,0.5,52,120.0
5119,G2,772.5,0.25,48,120.0
5120,G5,772.5,0.25,52,120.0
5121,E-5,772.5,0.25,52,120.0
5122,G#5,772.75,0.25,54,120.0
5123,F2,772.75,0.25,38,120.0
5124,G2,773.0,0.25,45,120.0
5125,G5,773.0,0.25,54,120.0
5126,E-5,773.0,0.25,54,120.0
5127,B-2,773.25,0.25,39,120.0
5128,E-5,773.25,0.25,48,120.0
5129,B-4,773.25,0.25,48,120.0
5130,E-3,773.5,0.5,50,120.0
5131,G4,773.5,0.5,55,120.0
5132,B-4,773.5,0.5,55,120.0
5133,B-2,774.0,0.25,51,120.0
5134,E-5,774.0,0.25,56,120.0
5135,G4,774.0,0.25,56,120.0
5136,F5,774.25,0.25,56,120.0
5137,A2,774.25,0.25,40,120.0
5138,B-2,774.5,0.25,45,120.0
5139,E-5,774.5,0.25,54,120.0
5140,G4,774.5,0.25,54,120.0
5141,E-3,774.75,0.25,38,120.0
5142,B-4,774.75,0.25,47,120.0
5143,G4,774.75,0.25,47,120.0
5144,G3,775.0,0.5,47,120.0
5145,E-4,775.0,0.5,52,120.0
5146,G4,775.0,0.5,52,120.0
5147,B-4,775.5,0.5,54,120.0
5148,C4,776.0,0.5,42,120.0
5149,G#4,776.0,0.5,42,120.0
5150,B-2,776.0,0.5,34,120.0
5151,F3,776.0,0.5,34,120.0
5152,D4,776.5,0.375,40,120.0
5153,F4,776.5,0.375,40,120.0
5154,B-2,776.5,0.375,32,120.0
5155,B-3,776.5,0.375,32,120.0
5156,E-2,777.0,0.5,42,120.0
5157,G2,777.0,0.5,42,120.0
5158,G5,777.25,0.5,50,120.0
5159,B-5,777.25,0.5,50,120.0
5160,B-2,777.5,0.5,36,120.0
5161,G2,777.5,0.5,36,120.0
5162,E-5,777.75,0.496,43,120.0
5163,G5,777.75,0.496,43,120.0
5164,B-2,778.0,0.5,36,120.0
5165,E-3,778.0,0.5,36,120.0
5166,E-5,778.25,0.496,44,120.0
5167,B-4,778.25,0.496,44,120.0
5168,B-2,778.5,0.5,40,120.0
5169,G2,778.5,0.5,40,120.0
5170,G5,778.75,0.496,47,120.0
5171,E-5,778.75,0.496,47,120.0
5172,B-2,779.0,0.5,36,120.0
5173,E-3,779.0,0.5,36,120.0
5174,B-4,779.25,0.496,43,120.0
5175,E-5,779.25,0.496,43,120.0
5176,E-3,779.5,0.479,36,120.0
5177,G3,779.5,0.479,36,120.0
5178,G4,779.75,0.496,44,120.0
5179,B-4,779.75,0.496,44,120.0
5180,B-2,780.0,0.5,46,120.0
5181,E-3,780.0,0.5,46,120.0
5182,B-4,780.25,0.496,55,120.0
5183,E-5,780.25,0.496,55,120.0
5184,G3,780.5,0.5,40,120.0
5185,E-3,780.5,0.5,40,120.0
5186,G4,780.75,0.496,48,120.0
5187,B-4,780.75,0.496,48,120.0
5188,B-2,781.0,0.496,39,120.0
5189,E-3,781.0,0.496,39,120.0
5190,B-3,781.0,0.496,39,120.0
5191,G4,781.25,0.496,52,120.0
5192,B-2,781.5,0.496,45,120.0
5193,F3,781.5,0.496,45,120.0
5194,B-3,781.5,0.496,45,120.0
5195,D4,781.75,0.496,50,120.0
5196,B-4,781.75,0.496,50,120.0
5197,F3,782.0,0.496,33,120.0
5198,B-2,782.0,0.496,33,120.0
5199,B-3,782.0,0.496,33,120.0
5200,D4,782.25,0.496,42,120.0
5201,G#4,782.25,0.496,42,120.0
5202,G#3,782.5,0.5,34,120.0
5203,B-2,782.5,0.5,34,120.0
5204,B-3,782.5,0.5,34,120.0
5205,D4,782.75,0.25,40,120.0
5206,F4,782.75,0.25,40,120.0
5207,B-5,783.0,0.25,80,120.0
5208,B-4,783.0,0.25,80,120.0
5209,B-6,783.25,0.25,63,120.0
5210,G5,783.5,0.25,69,120.0
5211,G4,783.5,0.25,67,120.0
5212,G6,783.75,0.25,64,120.0
5213,E-5,784.0,0.25,69,120.0
5214,E-4,784.0,0.25,67,120.0
5215,E-6,784.25,0.25,64,120.0
5216,G5,784.5,0.25,80,120.0
5217,G4,784.5,0.25,80,120.0
5218,G6,784.75,0.25,64,120.0
5219,E-5,785.0,0.25,69,120.0
5220,E-4,785.0,0.25,70,120.0
5221,E-6,785.25,0.25,64,120.0
5222,B-4,785.5,0.25,69,120.0
5223,B-3,785.5,0.25,70,120.0
5224,B-5,785.75,0.25,65,120.0
5225,E-5,786.0,0.25,80,120.0
5226,E-4,786.0,0.25,80,120.0
5227,E-6,786.25,0.25,65,120.0
5228,B-4,786.5,0.25,70,120.0
5229,B-3,786.5,0.25,71,120.0
5230,B-5,786.75,0.25,65,120.0
5231,G4,787.0,0.25,70,120.0
5232,G3,787.0,0.25,71,120.0
5233,G5,787.25,0.25,66,120.0
5234,B-4,787.5,0.25,80,120.0
5235,B-3,787.5,0.25,80,120.0
5236,B-5,787.75,0.25,64,120.0
5237,G#4,788.0,0.25,69,120.0
5238,G#3,788.0,0.25,69,120.0
5239,G#5,788.25,0.25,65,120.0
5240,F4,788.5,0.25,69,120.0
5241,B-2,788.5,0.25,62,120.0
5242,F3,788.5,0.25,62,120.0
5243,F5,788.75,0.25,66,120.0
5244,E-4,789.0,0.25,80,120.0
5245,E-2,789.0,0.25,74,120.0
5246,E-3,789.0,0.25,74,120.0
5247,E-5,789.25,0.25,65,120.0
5248,G4,789.5,0.25,70,120.0
5249,E-3,789.5,0.25,54,120.0
5250,G3,789.5,0.25,54,120.0
5251,B-3,789.5,0.25,54,120.0
5252,E-4,789.5,0.25,54,120.0
5253,G5,789.75,0.25,66,120.0
5254,G4,790.0,0.25,71,120.0
5255,E-3,790.0,0.25,54,120.0
5256,G3,790.0,0.25,54,120.0
5257,B-3,790.0,0.25,54,120.0
5258,E-4,790.0,0.25,54,120.0
5259,G5,790.25,0.25,67,120.0
5260,G4,790.5,0.25,82,120.0
5261,E-3,790.5,0.25,54,120.0
5262,G3,790.5,0.25,54,120.0
5263,B-3,790.5,0.25,54,120.0
5264,E-4,790.5,0.25,54,120.0
5265,G5,790.75,0.25,66,120.0
5266,B-4,791.0,0.25,72,120.0
5267,E-3,791.0,0.25,54,120.0
5268,G3,791.0,0.25,54,120.0
5269,B-3,791.0,0.25,54,120.0
5270,E-4,791.0,0.25,54,120.0
5271,B-5,791.25,0.25,68,120.0
5272,B-4,791.5,0.25,73,120.0
5273,E-3,791.5,0.25,54,120.0
5274,G3,791.5,0.25,54,120.0
5275,B-3,791.5,0.25,54,120.0
5276,E-4,791.5,0.25,54,120.0
5277,B-5,791.75,0.25,69,120.0
5278,B-4,792.0,0.25,85,120.0
5279,E-3,792.0,0.25,63,120.0
5280,G3,792.0,0.25,63,120.0
5281,B-3,792.0,0.25,63,120.0
5282,E-4,792.0,0.25,63,120.0
5283,B-5,792.25,0.25,70,120.0
5284,E-5,792.5,0.25,75,120.0
5285,E-3,792.5,0.25,51,120.0
5286,G3,792.5,0.25,51,120.0
5287,B-3,792.5,0.25,51,120.0
5288,E-4,792.5,0.25,51,120.0
5289,E-6,792.75,0.25,70,120.0
5290,E-5,793.0,0.25,76,120.0
5291,E-3,793.0,0.25,52,120.0
5292,G3,793.0,0.25,52,120.0
5293,B-3,793.0,0.25,52,120.0
5294,E-4,793.0,0.25,52,120.0
5295,E-6,793.25,0.25,72,120.0
5296,E-5,793.5,0.25,88,120.0
5297,E-3,793.5,0.25,53,120.0
5298,G3,793.5,0.25,53,120.0
5299,B-3,793.5,0.25,53,120.0
5300,E-4,793.5,0.25,53,120.0
5301,E-6,793.75,0.25,77,120.0
5302,G5,794.0,0.25,88,120.0
5303,E-3,794.0,0.25,54,120.0
5304,G3,794.0,0.25,54,120.0
5305,B-3,794.0,0.25,54,120.0
5306,E-4,794.0,0.25,54,120.0
5307,G6,794.25,0.25,81,120.0
5308,B-5,794.5,0.25,92,120.0
5309,E-3,794.5,0.25,54,120.0
5310,G3,794.5,0.25,54,120.0
5311,B-3,794.5,0.25,54,120.0
5312,E-4,794.5,0.25,54,120.0
5313,B-6,794.75,0.25,84,120.0
5314,E-6,795.0,1.0,105,120.0
5315,E-7,795.0,1.0,105,120.0
5316,E-3,795.0,1.0,63,120.0
5317,G3,795.0,1.0,63,120.0
5318,B-3,795.0,1.0,63,120.0
5319,E-4,795.0,1.0,63,120.0
5320,D5,796.5,1.0,78,120.0
5321,G#4,796.5,1.0,78,120.0
5322,F4,796.5,1.0,78,120.0
5323,B-4,796.5,1.0,78,120.0
5324,B-2,796.5,1.0,62,120.0
5325,B-3,796.5,1.0,62,120.0
5326,G4,798.0,1.0,84,120.0
5327,B-4,798.0,1.0,84,120.0
5328,E-5,798.0,1.0,84,120.0
5329,E-2,798.0,1.0,68,120.0
5330,E-3,798.0,1.0,68,120.0
,note_name,start_time,duration,velocity,tempo
0,E-4,0.0,1.5,73,183.32
1,G4,0.0,1.5,73,183.32
2,C5,0.0,1.5,73,183.32
3,C4,0.0,1.5,62,183.32
4,G3,0.0,1.5,62,183.32
5,E-3,0.0,1.5,62,183.32
6,C3,0.0,1.5,62,183.32
7,G4,1.75,0.25,70,183.32
8,E-5,2.0,0.75,78,183.32
9,C5,2.75,0.25,70,183.32
10,G5,3.0,0.75,79,183.32
11,E-5,3.75,0.25,70,183.32
12,C6,4.0,0.75,79,183.32
13,G5,4.75,0.25,70,183.32
14,E-6,5.0,0.25,84,183.32
15,E-6,6.0,0.25,84,183.32
16,G4,8.0,0.5,42,183.32
17,C5,8.0,0.5,42,183.32
18,C4,8.0,0.5,38,183.32
19,E-4,8.0,0.5,38,183.32
20,G4,9.0,2.0,46,183.32
21,C5,9.0,2.0,46,183.32
22,E-4,9.0,2.0,38,183.32
23,C4,9.0,2.0,38,183.32
24,G4,11.0,0.958,42,183.32
25,B4,11.0,0.958,42,183.32
26,D4,11.0,0.979,35,183.32
27,F4,11.0,0.979,35,183.32
28,G#4,12.0,1.5,73,183.32
29,F4,12.0,1.5,73,183.32
30,B4,12.0,1.5,73,183.32
31,F3,12.0,1.5,61,183.32
32,B3,12.0,1.5,61,183.32
33,G#3,12.0,1.5,61,183.32
34,D4,12.0,1.5,61,183.32
35,D3,12.0,1.5,61,183.32
36,B4,13.75,0.25,70,183.32
37,F5,14.0,0.75,78,183.32
38,D5,14.75,0.25,70,183.32
39,B5,15.0,0.75,79,183.32
40,F5,15.75,0.25,70,183.32
41,D6,16.0,0.75,79,183.32
42,B5,16.75,0.25,70,183.32
43,F6,17.0,0.25,84,183.32
44,F6,18.0,0.25,84,183.32
45,B4,20.0,0.5,42,183.32
46,D5,20.0,0.5,42,183.32
47,D4,20.0,0.5,36,183.32
48,G#4,20.0,0.5,36,183.32
49,F4,20.0,0.5,36,183.32
50,B4,21.0,2.0,46,183.32
51,D5,21.0,2.0,46,183.32
52,G#4,21.0,2.0,36,183.32
53,F4,21.0,2.0,36,183.32
54,D4,21.0,2.0,36,183.32
55,C5,23.0,0.75,46,183.32
56,G4,23.0,1.0,35,183.32
57,E-4,23.0,1.0,35,183.32
58,C5,23.75,0.125,45,183.32
59,E-5,23.875,0.125,48,183.32
60,G5,24.0,1.5,53,183.32
61,F5,25.5,0.5,41,183.32
62,E-5,26.0,1.0,51,183.32
63,C4,26.0,1.0,31,183.32
64,G3,26.0,1.0,31,183.32
65,E-3,26.0,1.0,31,183.32
66,D5,27.0,2.0,47,183.32
67,F3,27.0,2.0,35,183.32
68,G#3,27.0,2.0,35,183.32
69,B3,27.0,2.0,35,183.32
70,C5,29.0,0.75,39,183.32
71,C4,29.0,1.0,30,183.32
72,G3,29.0,1.0,30,183.32
73,E-3,29.0,1.0,30,183.32
74,G4,29.75,0.083,27,183.32
75,C5,29.833,0.083,45,183.32
76,E-5,29.917,0.083,48,183.32
77,G5,30.0,1.5,53,183.32
78,F5,31.5,0.5,41,183.32
79,C5,32.0,1.0,47,183.32
80,E-5,32.0,1.0,47,183.32
81,E-4,32.0,1.0,32,183.32
82,G4,32.0,1.0,32,183.32
83,B4,33.0,2.0,43,183.32
84,D5,33.0,2.0,43,183.32
85,G#4,33.0,2.0,36,183.32
86,F4,33.0,2.0,36,183.32
87,C5,35.0,0.75,39,183.32
88,E-4,35.0,1.0,31,183.32
89,G4,35.0,1.0,31,183.32
90,G4,35.75,0.083,60,183.32
91,C5,35.833,0.083,63,183.32
92,E-5,35.917,0.083,69,183.32
93,G4,36.0,1.5,75,183.32
94,G5,36.0,1.5,75,183.32
95,F5,37.5,0.5,56,183.32
96,F4,37.5,0.5,56,183.32
97,E-5,38.0,2.0,68,183.32
98,E-4,38.0,2.0,68,183.32
99,G3,38.0,1.0,42,183.32
100,C4,38.0,1.0,42,183.32
101,E-3,38.0,1.0,42,183.32
102,B3,39.0,2.0,48,183.32
103,F3,39.0,2.0,48,183.32
104,G#3,39.0,2.0,48,183.32
105,D5,40.0,0.25,66,183.32
106,D4,40.0,0.25,66,183.32
107,C5,41.0,2.0,69,183.32
108,C4,41.0,2.0,69,183.32
109,G3,41.0,1.0,42,183.32
110,E-3,41.0,1.0,42,183.32
111,D3,42.0,2.0,51,183.32
112,F3,42.0,2.0,51,183.32
113,B3,43.0,0.25,69,183.32
114,B4,43.0,0.25,69,183.32
115,G#3,44.0,2.0,68,183.32
116,G#4,44.0,2.0,68,183.32
117,E-3,44.0,1.0,45,183.32
118,C3,44.0,1.0,45,183.32
119,D3,45.0,1.0,51,183.32
120,B2,45.0,1.0,51,183.32
121,G3,46.0,0.5,62,183.32
122,G4,46.0,0.5,62,183.32
123,B3,49.0,0.333,42,183.32
124,D4,49.333,0.333,35,183.32
125,F4,49.667,0.333,35,183.32
126,G#4,50.0,0.333,43,183.32
127,G#3,50.0,1.0,30,183.32
128,F3,50.0,1.0,30,183.32
129,D3,50.0,1.0,30,183.32
130,B2,50.0,1.0,30,183.32
131,G4,50.333,0.333,36,183.32
132,F4,50.667,0.333,36,183.32
133,E-4,51.0,0.25,43,183.32
134,G3,51.0,0.25,30,183.32
135,E-3,51.0,0.25,30,183.32
136,C3,51.0,0.25,30,183.32
137,F3,55.0,0.333,42,183.32
138,G#3,55.333,0.333,35,183.32
139,D4,55.667,0.333,35,183.32
140,F4,56.0,0.333,43,183.32
141,D3,56.0,1.0,30,183.32
142,G#2,56.0,1.0,30,183.32
143,F2,56.0,1.0,30,183.32
144,E-4,56.333,0.333,36,183.32
145,D4,56.667,0.333,36,183.32
146,C4,57.0,0.25,43,183.32
147,C3,57.0,0.25,30,183.32
148,G2,57.0,0.25,30,183.32
149,E-3,57.0,0.25,30,183.32
150,G3,61.0,0.333,66,183.32
151,B3,61.333,0.333,69,183.32
152,D4,61.667,0.333,72,183.32
153,F4,62.0,0.333,75,183.32
154,G2,62.0,0.5,73,183.32
155,G1,62.0,0.5,73,183.32
156,D4,62.333,0.333,67,183.32
157,B3,62.667,0.333,67,183.32
158,G3,63.0,1.5,84,183.32
159,E-3,63.0,1.5,84,183.32
160,C4,63.0,1.5,84,183.32
161,G2,63.0,1.5,70,183.32
162,C2,63.0,1.5,70,183.32
163,C3,63.0,1.5,70,183.32
164,E-2,63.0,1.5,70,183.32
165,C4,64.75,0.25,70,183.32
166,G4,65.0,0.75,78,183.32
167,E-4,65.75,0.25,70,183.32
168,C5,66.0,0.75,85,183.32
169,G4,66.75,0.25,72,183.32
170,E-5,67.0,0.75,80,183.32
171,C5,67.75,0.25,83,183.32
172,G5,68.0,0.25,88,183.32
173,G4,68.0,0.25,88,183.32
174,C3,68.0,0.25,62,183.32
175,G3,68.0,0.25,62,183.32
176,E-3,68.0,0.25,62,183.32
177,G5,69.0,0.25,88,183.32
178,G4,69.0,0.25,88,183.32
179,B2,69.0,0.25,62,183.32
180,D3,69.0,0.25,62,183.32
181,G3,69.0,0.25,62,183.32
182,B3,70.75,0.25,70,183.32
183,G4,71.0,0.75,78,183.32
184,D4,71.75,0.25,70,183.32
185,B4,72.0,0.75,85,183.32
186,G4,72.75,0.25,74,183.32
187,D5,73.0,0.75,86,183.32
188,B4,73.75,0.25,83,183.32
189,G5,74.0,0.25,88,183.32
190,G4,74.0,0.25,88,183.32
191,G3,74.0,0.25,62,183.32
192,B2,74.0,0.25,62,183.32
193,D3,74.0,0.25,62,183.32
194,G5,75.0,0.25,88,183.32
195,G4,75.0,0.25,88,183.32
196,G3,75.0,0.25,62,183.32
197,C3,75.0,0.25,62,183.32
198,E-3,75.0,0.25,62,183.32
199,E-4,76.75,0.25,70,183.32
200,G4,77.0,0.75,78,183.32
201,E-4,77.75,0.25,70,183.32
202,C5,78.0,0.75,85,183.32
203,G4,78.75,0.25,74,183.32
204,E-5,79.0,0.75,86,183.32
205,C5,79.75,0.25,83,183.32
206,G5,80.0,0.75,90,183.32
207,E-3,80.0,0.25,62,183.32
208,C4,80.0,0.25,62,183.32
209,G3,80.0,0.25,62,183.32
210,E-5,80.75,0.25,83,183.32
211,D5,81.0,0.25,96,183.32
212,G#3,81.0,0.25,62,183.32
213,D4,81.0,0.25,62,183.32
214,F3,81.0,0.25,62,183.32
215,F6,82.0,0.25,96,183.32
216,B4,84.0,0.25,96,183.32
217,D4,84.0,0.25,62,183.32
218,B3,84.0,0.25,62,183.32
219,G3,84.0,0.25,62,183.32
220,D6,85.0,0.25,96,183.32
221,C5,87.0,0.25,96,183.32
222,G3,87.0,0.25,61,183.32
223,C3,87.0,0.25,61,183.32
224,C4,87.0,0.25,61,183.32
225,E-3,87.0,0.25,61,183.32
226,C6,88.0,0.25,96,183.32
227,E-4,93.0,9.0,69,183.32
228,C#4,96.0,3.0,50,183.32
229,G4,97.0,2.0,50,183.32
230,E-5,98.0,1.0,45,183.32
231,G#4,99.0,3.0,42,183.32
232,E-5,99.0,2.0,50,183.32
233,C4,99.0,3.0,49,183.32
234,E-5,101.0,2.0,45,183.32
235,G4,102.0,3.0,42,183.32
236,C#4,102.0,3.0,31,183.32
237,B-3,102.0,3.0,31,183.32
238,F5,103.0,1.0,45,183.32
239,C#5,104.0,2.0,44,183.32
240,G#4,105.0,3.0,42,183.32
241,G#3,105.0,3.0,30,183.32
242,E-4,105.0,3.0,30,183.32
243,B4,106.0,1.0,45,183.32
244,C5,107.0,1.0,45,183.32
245,B-4,108.0,3.0,50,183.32
246,C5,108.0,6.0,60,183.32
247,E5,109.0,2.0,50,183.32
248,C6,110.0,1.0,45,183.32
249,F5,111.0,3.0,42,183.32
250,C6,111.0,2.0,50,183.32
251,G#4,111.0,3.0,49,183.32
252,C6,113.0,2.0,45,183.32
253,E5,114.0,3.0,42,183.32
254,G4,114.0,3.0,31,183.32
255,B-4,114.0,3.0,31,183.32
256,C#6,115.0,1.0,45,183.32
257,B-5,116.0,2.0,44,183.32
258,C5,117.0,3.0,42,183.32
259,F4,117.0,3.0,30,183.32
260,G#4,117.0,3.0,30,183.32
261,G5,118.0,1.0,45,183.32
262,G#5,119.0,1.0,45,183.32
263,F#4,120.0,3.0,50,183.32
264,G#4,120.0,6.0,60,183.32
265,C5,121.0,2.0,50,183.32
266,G#5,122.0,1.0,45,183.32
267,C#5,123.0,3.0,42,183.32
268,G#5,123.0,2.0,50,183.32
269,F4,123.0,3.0,49,183.32
270,G#5,125.0,2.0,45,183.32
271,C5,126.0,3.0,42,183.32
272,E-4,126.0,3.0,44,183.32
273,F#4,126.0,3.0,44,183.32
274,B-5,127.0,1.0,45,183.32
275,F#5,128.0,2.0,44,183.32
276,G#4,129.0,3.0,49,183.32
277,C#4,129.0,3.0,30,183.32
278,F4,129.0,3.0,30,183.32
279,E5,130.0,1.0,52,183.32
280,F5,131.0,2.0,52,183.32
281,A4,132.0,3.0,50,183.32
282,B3,132.0,3.0,45,183.32
283,E-4,132.0,3.0,45,183.32
284,F#5,133.0,1.0,55,183.32
285,E-5,134.0,2.0,50,183.32
286,F4,135.0,3.0,42,183.32
287,B-3,135.0,3.0,33,183.32
288,E-5,136.0,1.0,45,183.32
289,D5,137.0,2.0,45,183.32
290,F#4,138.0,2.0,42,183.32
291,A3,138.0,3.0,33,183.32
292,E-5,139.0,1.0,45,183.32
293,E-4,140.0,1.0,30,183.32
294,F#4,140.0,1.0,30,183.32
295,B-2,141.0,6.0,33,183.32
296,D4,141.0,1.0,35,183.32
297,F4,141.0,1.0,35,183.32
298,F3,142.0,1.0,33,183.32
299,G3,143.0,1.0,37,183.32
300,G#3,144.0,1.0,41,183.32
301,C5,145.0,0.5,38,183.32
302,E3,145.0,1.0,33,183.32
303,C5,146.0,0.5,38,183.32
304,F3,146.0,1.0,35,183.32
305,C5,147.0,1.0,46,183.32
306,B-2,147.0,6.0,42,183.32
307,G3,147.0,1.0,42,183.32
308,B-4,148.0,1.0,38,183.32
309,D3,148.0,1.0,33,183.32
310,E-3,149.0,1.0,33,183.32
311,F3,150.0,1.0,40,183.32
312,G#4,151.0,0.5,38,183.32
313,C3,151.0,1.0,33,183.32
314,G#4,152.0,0.5,38,183.32
315,D3,152.0,1.0,33,183.32
316,G#4,153.0,1.0,43,183.32
317,B-2,153.0,6.0,39,183.32
318,E-3,153.0,1.0,39,183.32
319,G4,154.0,1.0,38,183.32
320,F3,154.0,1.0,33,183.32
321,G3,155.0,1.0,36,183.32
322,G#3,156.0,1.0,40,183.32
323,C5,156.5,0.5,37,183.32
324,B4,157.0,0.5,38,183.32
325,E3,157.0,1.0,33,183.32
326,C5,157.5,0.5,34,183.32
327,D5,158.0,0.5,43,183.32
328,F3,158.0,1.0,33,183.32
329,C5,158.5,0.5,38,183.32
330,G3,159.0,1.0,42,183.32
331,B-2,159.0,6.0,42,183.32
332,B-4,159.5,0.5,36,183.32
333,A4,160.0,0.5,38,183.32
334,D3,160.0,1.0,33,183.32
335,B-4,160.5,0.5,36,183.32
336,C5,161.0,0.5,44,183.32
337,E-3,161.0,1.0,33,183.32
338,B-4,161.5,0.5,38,183.32
339,F3,162.0,1.0,40,183.32
340,G#4,162.5,0.5,36,183.32
341,G4,163.0,0.5,38,183.32
342,C3,163.0,1.0,33,183.32
343,G#4,163.5,0.5,35,183.32
344,B-4,164.0,0.5,44,183.32
345,D3,164.0,1.0,33,183.32
346,G#4,164.5,0.5,37,183.32
347,G4,165.0,4.5,46,183.32
348,E-3,165.0,0.5,40,183.32
349,B-3,165.5,0.5,28,183.32
350,G3,166.0,0.5,33,183.32
351,B-3,166.5,0.5,27,183.32
352,F3,167.029,0.5,33,183.32
353,B-3,167.5,0.5,30,183.32
354,E-3,168.0,0.5,38,183.32
355,B-3,168.5,0.5,28,183.32
356,F3,169.0,0.5,42,183.32
357,B-4,169.5,0.5,56,183.32
358,B-3,169.5,0.5,35,183.32
359,E-5,170.0,0.979,62,183.32
360,G3,170.0,0.5,46,183.32
361,B-3,170.5,0.5,40,183.32
362,E-5,171.0,3.0,63,183.32
363,F3,171.0,0.5,51,183.32
364,B-3,171.5,0.5,44,183.32
365,G3,172.0,0.5,52,183.32
366,B-3,172.5,0.5,43,183.32
367,G#3,173.0,0.5,55,183.32
368,B-3,173.5,0.5,47,183.32
369,D5,174.0,1.0,57,183.32
370,F3,174.0,0.5,60,183.32
371,B-3,174.5,0.5,39,183.32
372,G3,175.0,0.5,46,183.32
373,B-3,175.5,0.5,33,183.32
374,G#3,176.0,0.5,41,183.32
375,B-3,176.5,0.5,33,183.32
376,B-4,177.0,3.0,51,183.32
377,D3,177.0,0.5,40,183.32
378,B-3,177.5,0.5,28,183.32
379,F3,178.0,0.5,33,183.32
380,B-3,178.5,0.5,27,183.32
381,E-3,179.0,0.5,33,183.32
382,B-3,179.5,0.5,30,183.32
383,B-4,180.0,0.5,61,183.32
384,D3,180.0,0.5,38,183.32
385,C5,180.5,0.167,57,183.32
386,B-3,180.5,0.5,31,183.32
387,B-4,180.667,0.167,52,183.32
388,A4,180.833,0.167,52,183.32
389,B-4,181.0,0.5,61,183.32
390,E-3,181.0,0.5,46,183.32
391,F5,181.5,0.5,65,183.32
392,B-3,181.5,0.5,38,183.32
393,G#5,182.0,1.0,73,183.32
394,F3,182.0,0.5,50,183.32
395,B-3,182.5,0.5,43,183.32
396,G#5,183.0,3.0,74,183.32
397,E-3,183.0,0.5,56,183.32
398,B-3,183.5,0.5,42,183.32
399,F3,184.0,0.5,54,183.32
400,B-3,184.5,0.5,44,183.32
401,G3,185.0,0.5,46,183.32
402,B-3,185.5,0.5,33,183.32
403,G5,186.0,1.0,69,183.32
404,E-3,186.0,0.5,48,183.32
405,B-3,186.5,0.5,39,183.32
406,F3,187.0,0.5,41,183.32
407,B-3,187.5,0.5,33,183.32
408,G3,188.0,0.5,41,183.32
409,B-3,188.5,0.5,33,183.32
410,G4,189.0,0.25,56,183.32
411,E-3,189.0,0.5,40,183.32
412,G#4,189.5,0.25,58,183.32
413,B-3,189.5,0.5,28,183.32
414,B-4,190.0,0.25,60,183.32
415,G3,190.0,0.5,33,183.32
416,C5,190.5,0.25,62,183.32
417,B-3,190.5,0.5,27,183.32
418,D5,191.0,0.25,64,183.32
419,E-3,191.0,0.5,35,183.32
420,E-5,191.5,0.25,65,183.32
421,B-3,191.5,0.5,32,183.32
422,F5,192.0,0.25,70,183.32
423,E-3,192.0,0.5,41,183.32
424,G5,192.5,0.25,73,183.32
425,B-3,192.5,0.5,38,183.32
426,G#5,193.0,0.25,76,183.32
427,G3,193.0,0.5,48,183.32
428,B-5,193.5,0.25,78,183.32
429,B-3,193.5,0.5,41,183.32
430,C6,194.0,0.25,81,183.32
431,E-3,194.0,0.5,54,183.32
432,D6,194.5,0.25,84,183.32
433,B-3,194.5,0.5,51,183.32
434,E-6,195.0,3.0,91,183.32
435,F3,195.0,0.5,52,183.32
436,B-3,195.5,0.5,48,183.32
437,G#3,196.0,0.5,52,183.32
438,B-3,196.5,0.5,44,183.32
439,F3,197.0,0.5,46,183.32
440,B-3,197.5,0.5,43,183.32
441,D6,198.0,1.0,71,183.32
442,F3,198.0,0.5,43,183.32
443,B-3,198.5,0.5,31,183.32
444,G#3,199.0,0.5,39,183.32
445,B-3,199.5,0.5,31,183.32
446,F3,200.0,0.5,39,183.32
447,B-3,200.5,0.496,31,183.32
448,B-3,201.0,0.25,56,183.32
449,D3,201.0,0.5,40,183.32
450,C4,201.5,0.25,58,183.32
451,B-3,201.5,0.5,32,183.32
452,D4,202.0,0.25,60,183.32
453,F3,202.0,0.5,39,183.32
454,E-4,202.5,0.25,62,183.32
455,B-3,202.5,0.5,29,183.32
456,F4,203.0,0.25,64,183.32
457,D3,203.0,0.5,46,183.32
458,G4,203.5,0.25,65,183.32
459,B-3,203.5,0.5,37,183.32
460,G#4,204.0,0.25,67,183.32
461,D3,204.0,0.5,52,183.32
462,B-4,204.5,0.25,72,183.32
463,B-3,204.5,0.5,43,183.32
464,C5,205.0,0.25,74,183.32
465,F3,205.0,0.5,57,183.32
466,D5,205.5,0.25,76,183.32
467,B-3,205.5,0.5,49,183.32
468,E-5,206.0,0.25,78,183.32
469,D3,206.0,0.5,62,183.32
470,F5,206.5,0.25,80,183.32
471,B-3,206.5,0.5,51,183.32
472,G5,207.0,3.0,94,183.32
473,E-3,207.5,0.5,43,183.32
474,D3,208.0,0.5,50,183.32
475,E-3,208.5,0.5,44,183.32
476,D3,209.0,0.5,53,183.32
477,E-3,209.5,0.5,44,183.32
478,E-6,210.0,2.0,100,183.32
479,G2,210.0,0.5,67,183.32
480,E-3,210.5,0.5,45,183.32
481,G#2,211.0,0.5,59,183.32
482,E-3,211.5,0.5,47,183.32
483,G3,212.0,1.0,77,183.32
484,B-2,212.0,0.5,61,183.32
485,E-3,212.5,0.5,44,183.32
486,G#3,213.0,3.0,82,183.32
487,G#2,213.0,0.5,65,183.32
488,E-3,213.5,0.5,45,183.32
489,B-2,214.0,0.5,57,183.32
490,E-3,214.5,0.5,42,183.32
491,C3,215.0,0.5,55,183.32
492,E-3,215.5,0.5,45,183.32
493,A3,216.0,3.0,84,183.32
494,A2,216.0,0.5,67,183.32
495,E-3,216.5,0.5,45,183.32
496,B-2,217.0,0.5,56,183.32
497,E-3,217.5,0.5,47,183.32
498,C3,218.0,0.5,55,183.32
499,E-3,218.5,0.5,44,183.32
500,B-3,219.0,3.0,84,183.32
501,B-2,219.0,0.5,64,183.32
502,G3,219.5,0.5,46,183.32
503,E-3,220.0,0.5,56,183.32
504,G3,220.5,0.5,45,183.32
505,B-2,221.0,0.5,57,183.32
506,G3,221.5,0.5,46,183.32
507,G#3,222.0,0.25,84,183.32
508,B-2,222.0,0.5,64,183.32
509,B-3,222.25,0.25,57,183.32
510,G#3,222.5,0.167,61,183.32
511,F3,222.5,0.5,46,183.32
512,B-3,222.667,0.167,57,183.32
513,G#3,222.833,0.167,64,183.32
514,B-3,223.0,0.167,56,183.32
515,D3,223.0,0.5,55,183.32
516,G#3,223.167,0.167,64,183.32
517,B-3,223.333,0.167,56,183.32
518,G#3,223.5,0.167,64,183.32
519,F3,223.5,0.5,45,183.32
520,B-3,223.667,0.167,55,183.32
521,G#3,223.833,0.167,64,183.32
522,B-3,224.0,0.25,54,183.32
523,B-2,224.0,0.5,55,183.32
524,G#3,224.25,0.25,59,183.32
525,G3,224.5,0.25,55,183.32
526,F3,224.5,0.5,46,183.32
527,G#3,224.75,0.25,57,183.32
528,G3,225.0,0.5,74,183.32
529,E-2,225.0,1.0,64,183.32
530,E-3,225.0,1.0,64,183.32
531,B-3,225.5,0.5,60,183.32
532,E-4,226.0,0.5,68,183.32
533,B-3,226.5,0.5,61,183.32
534,E-4,227.0,0.5,69,183.32
535,G4,227.5,0.5,63,183.32
536,B-4,228.0,0.5,69,183.32
537,G4,228.5,0.5,60,183.32
538,B-4,229.0,0.5,69,183.32
539,E-5,229.5,0.5,62,183.32
540,G5,230.0,0.5,73,183.32
541,B-5,230.5,0.5,65,183.32
542,E-6,231.0,0.5,89,183.32
543,G2,231.0,0.5,67,183.32
544,E-3,231.5,0.5,45,183.32
545,G#2,232.0,0.5,59,183.32
546,E-3,232.5,0.5,47,183.32
547,E-4,233.0,3.0,84,183.32
548,B-2,233.0,0.5,61,183.32
549,E-3,233.5,0.5,44,183.32
550,G2,234.0,0.5,67,183.32
551,E-3,234.5,0.5,45,183.32
552,G#2,235.0,0.5,57,183.32
553,E-3,235.5,0.5,52,183.32
554,G3,236.0,1.0,81,183.32
555,B-2,236.0,0.5,61,183.32
556,E-3,236.5,0.5,44,183.32
557,G#3,237.0,2.0,84,183.32
558,G#2,237.0,0.5,65,183.32
559,E-3,237.5,0.5,45,183.32
560,B-2,238.0,0.5,58,183.32
561,E-3,238.5,0.5,42,183.32
562,E-4,239.0,1.0,84,183.32
563,C3,239.0,0.5,57,183.32
564,E-3,239.5,0.5,45,183.32
565,A3,240.0,2.0,92,183.32
566,A2,240.0,0.5,67,183.32
567,E-3,240.5,0.5,45,183.32
568,B-2,241.0,0.5,56,183.32
569,E-3,241.5,0.5,47,183.32
570,E-4,242.0,1.0,84,183.32
571,C3,242.0,0.5,58,183.32
572,E-3,242.5,0.5,44,183.32
573,B-3,243.0,0.5,77,183.32
574,B-2,243.0,0.5,67,183.32
575,E-4,243.5,0.5,59,183.32
576,E-3,243.5,0.5,52,183.32
577,D4,244.0,0.5,68,183.32
578,D3,244.0,0.5,61,183.32
579,E-4,244.5,0.5,55,183.32
580,E-3,244.5,0.5,48,183.32
581,B3,245.0,0.5,65,183.32
582,B2,245.0,0.5,62,183.32
583,E-4,245.5,0.5,59,183.32
584,E-3,245.5,0.5,53,183.32
585,C4,246.0,0.5,82,183.32
586,C3,246.0,0.5,71,183.32
587,E-4,246.5,0.5,62,183.32
588,E-3,246.5,0.5,54,183.32
589,D4,247.0,0.5,71,183.32
590,D3,247.0,0.5,65,183.32
591,E-4,247.5,0.5,59,183.32
592,E-3,247.5,0.5,52,183.32
593,A3,248.0,0.5,66,183.32
594,A2,248.0,0.5,64,183.32
595,E-4,248.5,0.5,56,183.32
596,E-3,248.5,0.5,49,183.32
597,B-3,249.0,0.5,88,183.32
598,B-2,249.0,0.5,77,183.32
599,E-4,249.5,0.5,58,183.32
600,E-3,249.5,0.5,58,183.32
601,C#4,250.0,0.5,72,183.32
602,C#3,250.0,0.5,65,183.32
603,E-4,250.5,0.5,62,183.32
604,E-3,250.5,0.5,56,183.32
605,B3,251.0,0.5,72,183.32
606,B2,251.0,0.5,70,183.32
607,E-4,251.5,0.5,64,183.32
608,E-3,251.5,0.5,54,183.32
609,C4,252.0,0.5,88,183.32
610,C3,252.0,0.5,77,183.32
611,E-4,252.5,0.5,65,183.32
612,E-3,252.5,0.5,57,183.32
613,D4,253.0,0.5,75,183.32
614,D3,253.0,0.5,63,183.32
615,E-4,253.5,0.5,65,183.32
616,E-3,253.5,0.5,58,183.32
617,A3,254.0,0.5,80,183.32
618,A2,254.0,0.5,71,183.32
619,E-4,254.5,0.5,72,183.32
620,E-3,254.5,0.5,65,183.32
621,B-3,255.0,1.0,93,183.32
622,B-2,255.0,1.0,82,183.32
623,B-2,256.0,0.25,80,183.32
624,E-3,256.0,0.25,80,183.32
625,G3,256.0,0.25,80,183.32
626,E-4,256.75,0.25,81,183.32
627,B-4,257.0,0.75,87,183.32
628,G4,257.75,0.25,84,183.32
629,E-5,258.0,0.25,93,183.32
630,E-3,259.0,0.25,80,183.32
631,C3,259.0,0.25,80,183.32
632,F#3,259.0,0.25,80,183.32
633,E-4,259.75,0.25,81,183.32
634,A4,260.0,0.75,87,183.32
635,F#4,260.75,0.25,84,183.32
636,E-5,261.0,0.25,93,183.32
637,G3,262.0,0.25,80,183.32
638,B-2,262.0,0.25,80,183.32
639,E-3,262.0,0.25,80,183.32
640,E-4,262.75,0.25,81,183.32
641,B-4,263.0,0.75,87,183.32
642,G4,263.75,0.25,84,183.32
643,E-5,264.0,0.25,93,183.32
644,A3,265.0,0.25,80,183.32
645,E-3,265.0,0.25,80,183.32
646,F#3,265.0,0.25,80,183.32
647,A2,265.0,0.25,80,183.32
648,C5,265.75,0.25,81,183.32
649,F#5,266.0,0.75,87,183.32
650,E-5,266.75,0.25,84,183.32
651,G5,267.0,1.5,95,183.32
652,B-2,268.0,0.25,80,183.32
653,B-3,268.0,0.25,80,183.32
654,G3,268.0,0.25,80,183.32
655,E-3,268.0,0.25,80,183.32
656,E-5,268.5,0.5,85,183.32
657,E-5,269.0,0.5,93,183.32
658,B-4,269.5,0.375,79,183.32
659,B-4,270.0,0.5,88,183.32
660,G4,270.5,0.375,78,183.32
661,G4,271.0,0.5,85,183.32
662,E-4,271.5,0.375,77,183.32
663,E-4,272.0,0.5,81,183.32
664,B-3,272.5,0.375,77,183.32
665,B-3,273.0,0.5,81,183.32
666,G3,273.5,0.375,77,183.32
667,G3,274.0,0.5,82,183.32
668,E-3,274.5,0.375,77,183.32
669,E-3,275.0,0.5,83,183.32
670,B-2,275.5,0.375,77,183.32
671,B-2,276.0,3.0,85,183.32
672,B-1,276.0,3.0,85,183.32
673,B-3,278.0,1.0,72,183.32
674,D4,278.0,1.0,72,183.32
675,G#3,278.0,1.0,64,183.32
676,F3,278.0,1.0,64,183.32
677,B-3,279.0,1.0,76,183.32
678,E-4,279.0,1.0,76,183.32
679,G3,279.0,1.0,73,183.32
680,E-2,279.0,1.0,73,183.32
681,B-2,280.0,5.0,51,183.32
682,A2,281.0,1.0,51,183.32
683,G#2,282.0,1.0,51,183.32
684,G2,283.0,1.0,49,183.32
685,B-4,283.0,1.0,45,183.32
686,F4,283.0,1.0,45,183.32
687,G#4,283.0,1.0,45,183.32
688,D4,283.0,1.0,45,183.32
689,F2,284.0,1.0,49,183.32
690,D4,284.0,1.0,40,183.32
691,F4,284.0,1.0,40,183.32
692,G#4,284.0,1.0,40,183.32
693,B-4,284.0,1.0,40,183.32
694,C5,285.0,1.0,53,183.32
695,E-2,285.0,1.0,51,183.32
696,E-4,285.0,2.0,42,183.32
697,G4,285.0,2.0,42,183.32
698,B-4,286.0,1.0,49,183.32
699,G2,286.0,1.0,47,183.32
700,B-2,287.0,1.0,47,183.32
701,B-1,288.0,1.0,51,183.32
702,F2,289.0,1.0,48,183.32
703,F4,289.0,1.0,46,183.32
704,G#4,289.0,1.0,46,183.32
705,D5,289.0,1.0,46,183.32
706,B-2,290.0,1.0,48,183.32
707,F4,290.0,1.0,41,183.32
708,G#4,290.0,1.0,41,183.32
709,D5,290.0,1.0,41,183.32
710,F5,291.0,1.0,53,183.32
711,E-2,291.0,1.0,67,183.32
712,G4,291.0,2.0,42,183.32
713,B-4,291.0,2.0,42,183.32
714,E-5,292.0,1.0,49,183.32
715,B-2,292.0,5.0,51,183.32
716,A2,293.0,1.0,51,183.32
717,G#2,294.0,1.0,51,183.32
718,G2,295.0,1.0,49,183.32
719,D4,295.0,1.0,45,183.32
720,F4,295.0,1.0,45,183.32
721,G#4,295.0,1.0,45,183.32
722,B-4,295.0,1.0,45,183.32
723,F2,296.0,1.0,49,183.32
724,B-4,296.0,1.0,40,183.32
725,F4,296.0,1.0,40,183.32
726,G#4,296.0,1.0,40,183.32
727,D4,296.0,1.0,40,183.32
728,C5,297.0,1.0,53,183.32
729,E-2,297.0,1.0,51,183.32
730,E-4,297.0,2.0,42,183.32
731,G4,297.0,2.0,42,183.32
732,B-4,298.0,1.0,49,183.32
733,G2,298.0,1.0,47,183.32
734,B-2,299.0,1.0,47,183.32
735,B-1,300.0,1.0,51,183.32
736,F2,301.0,1.0,48,183.32
737,F3,301.0,1.0,46,183.32
738,G#3,301.0,1.0,46,183.32
739,D4,301.0,1.0,46,183.32
740,B-2,302.0,1.0,48,183.32
741,F3,302.0,1.0,41,183.32
742,G#3,302.0,1.0,41,183.32
743,D4,302.0,1.0,41,183.32
744,F4,303.0,1.0,53,183.32
745,E-2,303.0,1.0,51,183.32
746,G3,303.0,2.0,42,183.32
747,B-3,303.0,2.0,42,183.32
748,E-4,304.0,1.0,49,183.32
749,G2,304.0,1.0,47,183.32
750,B-2,305.0,1.0,47,183.32
751,B-1,306.0,1.0,51,183.32
752,F2,307.0,1.0,48,183.32
753,F3,307.0,1.0,46,183.32
754,G#3,307.0,1.0,46,183.32
755,D4,307.0,1.0,46,183.32
756,B-2,308.0,1.0,48,183.32
757,F3,308.0,1.0,41,183.32
758,G#3,308.0,1.0,41,183.32
759,D4,308.0,1.0,41,183.32
760,E-2,309.0,1.0,51,183.32
761,G#3,309.0,3.0,46,183.32
762,D4,309.0,3.0,46,183.32
763,F4,309.0,3.0,46,183.32
764,G2,310.0,1.0,47,183.32
765,B-2,311.0,1.0,47,183.32
766,B-3,312.0,1.0,46,183.32
767,E-4,312.0,1.0,46,183.32
768,E-3,312.0,1.0,42,183.32
769,G3,312.0,1.0,42,183.32
770,E-4,315.0,1.5,73,183.32
771,G4,315.0,1.5,73,183.32
772,C5,315.0,1.5,73,183.32
773,C4,315.0,1.5,62,183.32
774,G3,315.0,1.5,62,183.32
775,E-3,315.0,1.5,62,183.32
776,C3,315.0,1.5,62,183.32
777,G4,316.75,0.25,70,183.32
778,E-5,317.0,0.75,78,183.32
779,C5,317.75,0.25,70,183.32
780,G5,318.0,0.75,79,183.32
781,E-5,318.75,0.25,70,183.32
782,C6,319.0,0.75,79,183.32
783,G5,319.75,0.25,70,183.32
784,E-6,320.0,0.25,84,183.32
785,E-6,321.0,0.25,84,183.32
786,G4,323.0,0.5,42,183.32
787,C5,323.0,0.5,42,183.32
788,C4,323.0,0.5,38,183.32
789,E-4,323.0,0.5,38,183.32
790,G4,324.0,2.0,46,183.32
791,C5,324.0,2.0,46,183.32
792,E-4,324.0,2.0,38,183.32
793,C4,324.0,2.0,38,183.32
794,G4,326.0,0.958,42,183.32
795,B4,326.0,0.958,42,183.32
796,D4,326.0,0.979,35,183.32
797,F4,326.0,0.979,35,183.32
798,G#4,327.0,1.5,73,183.32
799,F4,327.0,1.5,73,183.32
800,B4,327.0,1.5,73,183.32
801,F3,327.0,1.5,61,183.32
802,B3,327.0,1.5,61,183.32
803,G#3,327.0,1.5,61,183.32
804,D4,327.0,1.5,61,183.32
805,D3,327.0,1.5,61,183.32
806,B4,328.75,0.25,70,183.32
807,F5,329.0,0.75,78,183.32
808,D5,329.75,0.25,70,183.32
809,B5,330.0,0.75,79,183.32
810,F5,330.75,0.25,70,183.32
811,D6,331.0,0.75,79,183.32
812,B5,331.75,0.25,70,183.32
813,F6,332.0,0.25,84,183.32
814,F6,333.0,0.25,84,183.32
815,B4,335.0,0.5,42,183.32
816,D5,335.0,0.5,42,183.32
817,D4,335.0,0.5,36,183.32
818,G#4,335.0,0.5,36,183.32
819,F4,335.0,0.5,36,183.32
820,B4,336.0,2.0,46,183.32
821,D5,336.0,2.0,46,183.32
822,G#4,336.0,2.0,36,183.32
823,F4,336.0,2.0,36,183.32
824,D4,336.0,2.0,36,183.32
825,C5,338.0,0.75,46,183.32
826,G4,338.0,1.0,35,183.32
827,E-4,338.0,1.0,35,183.32
828,C5,338.75,0.125,45,183.32
829,E-5,338.875,0.125,48,183.32
830,G5,339.0,1.5,53,183.32
831,F5,340.5,0.5,41,183.32
832,E-5,341.0,1.0,51,183.32
833,C4,341.0,1.0,31,183.32
834,G3,341.0,1.0,31,183.32
835,E-3,341.0,1.0,31,183.32
836,D5,342.0,2.0,47,183.32
837,F3,342.0,2.0,35,183.32
838,G#3,342.0,2.0,35,183.32
839,B3,342.0,2.0,35,183.32
840,C5,344.0,0.75,39,183.32
841,C4,344.0,1.0,30,183.32
842,G3,344.0,1.0,30,183.32
843,E-3,344.0,1.0,30,183.32
844,G4,344.75,0.083,27,183.32
845,C5,344.833,0.083,45,183.32
846,E-5,344.917,0.083,48,183.32
847,G5,345.0,1.5,53,183.32
848,F5,346.5,0.5,41,183.32
849,C5,347.0,1.0,47,183.32
850,E-5,347.0,1.0,47,183.32
851,E-4,347.0,1.0,32,183.32
852,G4,347.0,1.0,32,183.32
853,B4,348.0,2.0,43,183.32
854,D5,348.0,2.0,43,183.32
855,G#4,348.0,2.0,36,183.32
856,F4,348.0,2.0,36,183.32
857,C5,350.0,0.75,39,183.32
858,E-4,350.0,1.0,31,183.32
859,G4,350.0,1.0,31,183.32
860,G4,350.75,0.083,60,183.32
861,C5,350.833,0.083,63,183.32
862,E-5,350.917,0.083,69,183.32
863,G4,351.0,1.5,75,183.32
864,G5,351.0,1.5,75,183.32
865,F5,352.5,0.5,56,183.32
866,F4,352.5,0.5,56,183.32
867,E-5,353.0,2.0,68,183.32
868,E-4,353.0,2.0,68,183.32
869,G3,353.0,1.0,42,183.32
870,C4,353.0,1.0,42,183.32
871,E-3,353.0,1.0,42,183.32
872,B3,354.0,2.0,48,183.32
873,F3,354.0,2.0,48,183.32
874,G#3,354.0,2.0,48,183.32
875,D5,355.0,0.25,66,183.32
876,D4,355.0,0.25,66,183.32
877,C5,356.0,2.0,69,183.32
878,C4,356.0,2.0,69,183.32
879,G3,356.0,1.0,42,183.32
880,E-3,356.0,1.0,42,183.32
881,D3,357.0,2.0,51,183.32
882,F3,357.0,2.0,51,183.32
883,B3,358.0,0.25,69,183.32
884,B4,358.0,0.25,69,183.32
885,G#3,359.0,2.0,68,183.32
886,G#4,359.0,2.0,68,183.32
887,E-3,359.0,1.0,45,183.32
888,C3,359.0,1.0,45,183.32
889,D3,360.0,1.0,52,183.32
890,B2,360.0,1.0,52,183.32
891,G3,361.0,0.5,63,183.32
892,G4,361.0,0.5,63,183.32
893,B3,364.0,0.333,42,183.32
894,D4,364.333,0.333,35,183.32
895,F4,364.667,0.333,35,183.32
896,G#4,365.0,0.333,43,183.32
897,G#3,365.0,1.0,30,183.32
898,F3,365.0,1.0,30,183.32
899,D3,365.0,1.0,30,183.32
900,B2,365.0,1.0,30,183.32
901,G4,365.333,0.333,36,183.32
902,F4,365.667,0.333,36,183.32
903,E-4,366.0,0.25,43,183.32
904,G3,366.0,0.25,30,183.32
905,E-3,366.0,0.25,30,183.32
906,C3,366.0,0.25,30,183.32
907,F3,370.0,0.333,42,183.32
908,G#3,370.333,0.333,35,183.32
909,D4,370.667,0.333,35,183.32
910,F4,371.0,0.333,43,183.32
911,D3,371.0,1.0,30,183.32
912,G#2,371.0,1.0,30,183.32
913,F2,371.0,1.0,30,183.32
914,E-4,371.333,0.333,36,183.32
915,D4,371.667,0.333,36,183.32
916,C4,372.0,0.25,43,183.32
917,C3,372.0,0.25,30,183.32
918,G2,372.0,0.25,30,183.32
919,E-3,372.0,0.25,30,183.32
920,G3,376.0,0.333,66,183.32
921,B3,376.333,0.333,69,183.32
922,D4,376.667,0.333,72,183.32
923,F4,377.0,0.333,75,183.32
924,G2,377.0,0.5,73,183.32
925,G1,377.0,0.5,73,183.32
926,D4,377.333,0.333,67,183.32
927,B3,377.667,0.333,67,183.32
928,G3,378.0,1.5,84,183.32
929,E-3,378.0,1.5,84,183.32
930,C4,378.0,1.5,84,183.32
931,G2,378.0,1.5,70,183.32
932,C2,378.0,1.5,70,183.32
933,C3,378.0,1.5,70,183.32
934,E-2,378.0,1.5,70,183.32
935,C4,379.75,0.25,70,183.32
936,G4,380.0,0.75,78,183.32
937,E-4,380.75,0.25,70,183.32
938,C5,381.0,0.75,85,183.32
939,G4,381.75,0.25,72,183.32
940,E-5,382.0,0.75,80,183.32
941,C5,382.75,0.25,83,183.32
942,G5,383.0,0.25,88,183.32
943,G4,383.0,0.25,88,183.32
944,C3,383.0,0.25,62,183.32
945,G3,383.0,0.25,62,183.32
946,E-3,383.0,0.25,62,183.32
947,G5,384.0,0.25,88,183.32
948,G4,384.0,0.25,88,183.32
949,B2,384.0,0.25,62,183.32
950,D3,384.0,0.25,62,183.32
951,G3,384.0,0.25,62,183.32
952,B3,385.75,0.25,70,183.32
953,G4,386.0,0.75,78,183.32
954,D4,386.75,0.25,70,183.32
955,B4,387.0,0.75,85,183.32
956,G4,387.75,0.25,74,183.32
957,D5,388.0,0.75,86,183.32
958,B4,388.75,0.25,83,183.32
959,G5,389.0,0.25,88,183.32
960,G4,389.0,0.25,88,183.32
961,G3,389.0,0.25,62,183.32
962,B2,389.0,0.25,62,183.32
963,D3,389.0,0.25,62,183.32
964,G5,390.0,0.25,88,183.32
965,G4,390.0,0.25,88,183.32
966,G3,390.0,0.25,62,183.32
967,C3,390.0,0.25,62,183.32
968,E-3,390.0,0.25,62,183.32
969,E-4,391.75,0.25,70,183.32
970,G4,392.0,0.75,78,183.32
971,E-4,392.75,0.25,70,183.32
972,C5,393.0,0.75,85,183.32
973,G4,393.75,0.25,74,183.32
974,E-5,394.0,0.75,86,183.32
975,C5,394.75,0.25,83,183.32
976,G5,395.0,0.75,90,183.32
977,E-3,395.0,0.25,62,183.32
978,C4,395.0,0.25,62,183.32
979,G3,395.0,0.25,62,183.32
980,E-5,395.75,0.25,83,183.32
981,D5,396.0,0.25,96,183.32
982,G#3,396.0,0.25,62,183.32
983,D4,396.0,0.25,62,183.32
984,F3,396.0,0.25,62,183.32
985,F6,397.0,0.25,96,183.32
986,B4,399.0,0.25,96,183.32
987,D4,399.0,0.25,62,183.32
988,B3,399.0,0.25,62,183.32
989,G3,399.0,0.25,62,183.32
990,D6,400.0,0.25,96,183.32
991,C5,402.0,0.25,96,183.32
992,G3,402.0,0.25,61,183.32
993,C3,402.0,0.25,61,183.32
994,C4,402.0,0.25,61,183.32
995,E-3,402.0,0.25,61,183.32
996,C6,403.0,0.25,96,183.32
997,E-4,408.0,9.0,69,183.32
998,C#4,411.0,3.0,50,183.32
999,G4,412.0,2.0,50,183.32
1000,E-5,413.0,1.0,45,183.32
1001,G#4,414.0,3.0,42,183.32
1002,E-5,414.0,2.0,50,183.32
1003,C4,414.0,3.0,49,183.32
1004,E-5,416.0,2.0,45,183.32
1005,G4,417.0,3.0,42,183.32
1006,C#4,417.0,3.0,31,183.32
1007,B-3,417.0,3.0,31,183.32
1008,F5,418.0,1.0,45,183.32
1009,C#5,419.0,2.0,44,183.32
1010,G#4,420.0,3.0,42,183.32
1011,G#3,420.0,3.0,30,183.32
1012,E-4,420.0,3.0,30,183.32
1013,B4,421.0,1.0,45,183.32
1014,C5,422.0,1.0,45,183.32
1015,B-4,423.0,3.0,50,183.32
1016,C5,423.0,6.0,60,183.32
1017,E5,424.0,2.0,50,183.32
1018,C6,425.0,1.0,45,183.32
1019,F5,426.0,3.0,42,183.32
1020,C6,426.0,2.0,50,183.32
1021,G#4,426.0,3.0,49,183.32
1022,C6,428.0,2.0,45,183.32
1023,E5,429.0,3.0,42,183.32
1024,G4,429.0,3.0,31,183.32
1025,B-4,429.0,3.0,31,183.32
1026,C#6,430.0,1.0,45,183.32
1027,B-5,431.0,2.0,44,183.32
1028,C5,432.0,3.0,42,183.32
1029,F4,432.0,3.0,30,183.32
1030,G#4,432.0,3.0,30,183.32
1031,G5,433.0,1.0,45,183.32
1032,G#5,434.0,1.0,45,183.32
1033,F#4,435.0,3.0,50,183.32
1034,G#4,435.0,6.0,60,183.32
1035,C5,436.0,2.0,50,183.32
1036,G#5,437.0,1.0,45,183.32
1037,C#5,438.0,3.0,42,183.32
1038,G#5,438.0,2.0,50,183.32
1039,F4,438.0,3.0,49,183.32
1040,G#5,440.0,2.0,45,183.32
1041,C5,441.0,3.0,42,183.32
1042,E-4,441.0,3.0,44,183.32
1043,F#4,441.0,3.0,44,183.32
1044,B-5,442.0,1.0,45,183.32
1045,F#5,443.0,2.0,44,183.32
1046,G#4,444.0,3.0,49,183.32
1047,C#4,444.0,3.0,30,183.32
1048,F4,444.0,3.0,30,183.32
1049,E5,445.0,1.0,52,183.32
1050,F5,446.0,2.0,52,183.32
1051,A4,447.0,3.0,50,183.32
1052,B3,447.0,3.0,45,183.32
1053,E-4,447.0,3.0,45,183.32
1054,F#5,448.0,1.0,55,183.32
1055,E-5,449.0,2.0,50,183.32
1056,F4,450.0,3.0,42,183.32
1057,B-3,450.0,3.0,33,183.32
1058,E-5,451.0,1.0,45,183.32
1059,D5,452.0,2.0,45,183.32
1060,F#4,453.0,2.0,42,183.32
1061,A3,453.0,3.0,33,183.32
1062,E-5,454.0,1.0,45,183.32
1063,E-4,455.0,1.0,30,183.32
1064,F#4,455.0,1.0,30,183.32
1065,B-2,456.0,6.0,33,183.32
1066,D4,456.0,1.0,35,183.32
1067,F4,456.0,1.0,35,183.32
1068,F3,457.0,1.0,33,183.32
1069,G3,458.0,1.0,37,183.32
1070,G#3,459.0,1.0,41,183.32
1071,C5,460.0,0.5,38,183.32
1072,E3,460.0,1.0,33,183.32
1073,C5,461.0,0.5,38,183.32
1074,F3,461.0,1.0,35,183.32
1075,C5,462.0,1.0,46,183.32
1076,B-2,462.0,6.0,42,183.32
1077,G3,462.0,1.0,42,183.32
1078,B-4,463.0,1.0,38,183.32
1079,D3,463.0,1.0,33,183.32
1080,E-3,464.0,1.0,33,183.32
1081,F3,465.0,1.0,40,183.32
1082,G#4,466.0,0.5,38,183.32
1083,C3,466.0,1.0,33,183.32
1084,G#4,467.0,0.5,38,183.32
1085,D3,467.0,1.0,33,183.32
1086,G#4,468.0,1.0,43,183.32
1087,B-2,468.0,6.0,39,183.32
1088,E-3,468.0,1.0,39,183.32
1089,G4,469.0,1.0,38,183.32
1090,F3,469.0,1.0,33,183.32
1091,G3,470.0,1.0,36,183.32
1092,G#3,471.0,1.0,40,183.32
1093,C5,471.5,0.5,37,183.32
1094,B4,472.0,0.5,38,183.32
1095,E3,472.0,1.0,33,183.32
1096,C5,472.5,0.5,34,183.32
1097,D5,473.0,0.5,43,183.32
1098,F3,473.0,1.0,33,183.32
1099,C5,473.5,0.5,38,183.32
1100,G3,474.0,1.0,42,183.32
1101,B-2,474.0,6.0,42,183.32
1102,B-4,474.5,0.5,36,183.32
1103,A4,475.0,0.5,38,183.32
1104,D3,475.0,1.0,33,183.32
1105,B-4,475.5,0.5,36,183.32
1106,C5,476.0,0.5,44,183.32
1107,E-3,476.0,1.0,33,183.32
1108,B-4,476.5,0.5,38,183.32
1109,F3,477.0,1.0,40,183.32
1110,G#4,477.5,0.5,36,183.32
1111,G4,478.0,0.5,38,183.32
1112,C3,478.0,1.0,33,183.32
1113,G#4,478.5,0.5,35,183.32
1114,B-4,479.0,0.5,44,183.32
1115,D3,479.0,1.0,33,183.32
1116,G#4,479.5,0.5,37,183.32
1117,G4,480.0,4.5,46,183.32
1118,E-3,480.0,0.5,40,183.32
1119,B-3,480.5,0.5,28,183.32
1120,G3,481.0,0.5,33,183.32
1121,B-3,481.5,0.5,27,183.32
1122,F3,482.029,0.5,33,183.32
1123,B-3,482.5,0.5,30,183.32
1124,E-3,483.0,0.5,38,183.32
1125,B-3,483.5,0.5,33,183.32
1126,F3,484.0,0.5,45,183.32
1127,B-4,484.5,0.5,56,183.32
1128,B-3,484.5,0.5,37,183.32
1129,E-5,485.0,0.979,62,183.32
1130,G3,485.0,0.5,48,183.32
1131,B-3,485.5,0.5,43,183.32
1132,E-5,486.0,3.0,63,183.32
1133,F3,486.0,0.5,55,183.32
1134,B-3,486.5,0.5,40,183.32
1135,G3,487.0,0.5,48,183.32
1136,B-3,487.5,0.5,30,183.32
1137,G#3,488.0,0.5,40,183.32
1138,B-3,488.5,0.5,33,183.32
1139,D5,489.0,1.0,57,183.32
1140,F3,489.0,0.5,39,183.32
1141,B-3,489.5,0.5,33,183.32
1142,G3,490.0,0.5,41,183.32
1143,B-3,490.5,0.5,33,183.32
1144,G#3,491.0,0.5,41,183.32
1145,B-3,491.5,0.5,33,183.32
1146,B-4,492.0,3.0,51,183.32
1147,D3,492.0,0.5,40,183.32
1148,B-3,492.5,0.5,28,183.32
1149,F3,493.0,0.5,33,183.32
1150,B-3,493.5,0.5,27,183.32
1151,E-3,494.0,0.5,38,183.32
1152,B-3,494.5,0.5,34,183.32
1153,B-4,495.0,0.5,61,183.32
1154,D3,495.0,0.5,38,183.32
1155,C5,495.5,0.167,57,183.32
1156,B-3,495.5,0.5,34,183.32
1157,B-4,495.667,0.167,52,183.32
1158,A4,495.833,0.167,52,183.32
1159,B-4,496.0,0.5,61,183.32
1160,E-3,496.0,0.5,46,183.32
1161,F5,496.5,0.5,65,183.32
1162,B-3,496.5,0.5,39,183.32
1163,G#5,497.0,1.0,75,183.32
1164,F3,497.0,0.5,48,183.32
1165,B-3,497.5,0.5,44,183.32
1166,G#5,498.0,3.0,78,183.32
1167,E-3,498.0,0.5,55,183.32
1168,B-3,498.5,0.5,43,183.32
1169,F3,499.0,0.5,52,183.32
1170,B-3,499.5,0.5,37,183.32
1171,G3,500.0,0.5,46,183.32
1172,B-3,500.5,0.5,33,183.32
1173,G5,501.0,1.0,69,183.32
1174,E-3,501.0,0.5,44,183.32
1175,B-3,501.5,0.5,39,183.32
1176,F3,502.0,0.5,41,183.32
1177,B-3,502.5,0.5,33,183.32
1178,G3,503.0,0.5,41,183.32
1179,B-3,503.5,0.5,33,183.32
1180,G4,504.0,0.25,56,183.32
1181,E-3,504.0,0.5,40,183.32
1182,G#4,504.5,0.25,58,183.32
1183,B-3,504.5,0.5,28,183.32
1184,B-4,505.0,0.25,60,183.32
1185,G3,505.0,0.5,33,183.32
1186,C5,505.5,0.25,62,183.32
1187,B-3,505.5,0.5,27,183.32
1188,D5,506.0,0.25,64,183.32
1189,E-3,506.0,0.5,40,183.32
1190,E-5,506.5,0.25,65,183.32
1191,B-3,506.5,0.5,31,183.32
1192,F5,507.0,0.25,68,183.32
1193,E-3,507.0,0.5,43,183.32
1194,G5,507.5,0.25,70,183.32
1195,B-3,507.5,0.5,38,183.32
1196,G#5,508.0,0.25,73,183.32
1197,G3,508.0,0.5,52,183.32
1198,B-5,508.5,0.25,76,183.32
1199,B-3,508.5,0.5,45,183.32
1200,C6,509.0,0.25,79,183.32
1201,E-3,509.0,0.5,54,183.32
1202,D6,509.5,0.25,81,183.32
1203,B-3,509.5,0.5,47,183.32
1204,E-6,510.0,3.0,88,183.32
1205,F3,510.0,0.5,52,183.32
1206,B-3,510.5,0.5,43,183.32
1207,G#3,511.0,0.5,51,183.32
1208,B-3,511.5,0.5,40,183.32
1209,F3,512.0,0.5,46,183.32
1210,B-3,512.5,0.5,37,183.32
1211,D6,513.0,1.0,81,183.32
1212,F3,513.0,0.5,37,183.32
1213,B-3,513.5,0.5,31,183.32
1214,G#3,514.0,0.5,39,183.32
1215,B-3,514.5,0.5,31,183.32
1216,F3,515.0,0.5,39,183.32
1217,B-3,515.5,0.496,31,183.32
1218,B-3,516.0,0.25,56,183.32
1219,D3,516.0,0.5,40,183.32
1220,C4,516.5,0.25,58,183.32
1221,B-3,516.5,0.5,32,183.32
1222,D4,517.0,0.25,60,183.32
1223,F3,517.0,0.5,39,183.32
1224,E-4,517.5,0.25,62,183.32
1225,B-3,517.5,0.5,29,183.32
1226,F4,518.0,0.25,64,183.32
1227,D3,518.0,0.5,45,183.32
1228,G4,518.5,0.25,65,183.32
1229,B-3,518.5,0.5,36,183.32
1230,G#4,519.0,0.25,67,183.32
1231,D3,519.0,0.5,48,183.32
1232,B-4,519.5,0.25,70,183.32
1233,B-3,519.5,0.5,40,183.32
1234,C5,520.0,0.25,73,183.32
1235,F3,520.0,0.5,53,183.32
1236,D5,520.5,0.25,76,183.32
1237,B-3,520.5,0.5,45,183.32
1238,E-5,521.0,0.25,79,183.32
1239,D3,521.0,0.5,60,183.32
1240,F5,521.5,0.25,82,183.32
1241,B-3,521.5,0.5,50,183.32
1242,G5,522.0,3.0,89,183.32
1243,E-3,522.5,0.5,43,183.32
1244,D3,523.0,0.5,61,183.32
1245,E-3,523.5,0.5,48,183.32
1246,D3,524.0,0.5,60,183.32
1247,E-3,524.5,0.5,50,183.32
1248,E-6,525.0,2.0,100,183.32
1249,G2,525.0,0.5,67,183.32
1250,E-3,525.5,0.5,45,183.32
1251,G#2,526.0,0.5,59,183.32
1252,E-3,526.5,0.5,51,183.32
1253,G3,527.0,1.0,77,183.32
1254,B-2,527.0,0.5,60,183.32
1255,E-3,527.5,0.5,44,183.32
1256,G#3,528.0,3.0,82,183.32
1257,G#2,528.0,0.5,65,183.32
1258,E-3,528.5,0.5,49,183.32
1259,B-2,529.0,0.5,60,183.32
1260,E-3,529.5,0.5,47,183.32
1261,C3,530.0,0.5,59,183.32
1262,E-3,530.5,0.5,48,183.32
1263,A3,531.0,3.0,84,183.32
1264,A2,531.0,0.5,67,183.32
1265,E-3,531.5,0.5,49,183.32
1266,B-2,532.0,0.5,59,183.32
1267,E-3,532.5,0.5,47,183.32
1268,C3,533.0,0.5,57,183.32
1269,E-3,533.5,0.5,44,183.32
1270,B-3,534.0,3.0,84,183.32
1271,B-2,534.0,0.5,64,183.32
1272,G3,534.5,0.5,46,183.32
1273,E-3,535.0,0.5,57,183.32
1274,G3,535.5,0.5,45,183.32
1275,B-2,536.0,0.5,56,183.32
1276,G3,536.5,0.5,56,183.32
1277,G#3,537.0,0.25,84,183.32
1278,B-2,537.0,0.5,64,183.32
1279,B-3,537.25,0.25,57,183.32
1280,G#3,537.5,0.167,61,183.32
1281,F3,537.5,0.5,46,183.32
1282,B-3,537.667,0.167,57,183.32
1283,G#3,537.833,0.167,64,183.32
1284,B-3,538.0,0.167,56,183.32
1285,D3,538.0,0.5,56,183.32
1286,G#3,538.167,0.167,64,183.32
1287,B-3,538.333,0.167,56,183.32
1288,G#3,538.5,0.167,64,183.32
1289,F3,538.5,0.5,45,183.32
1290,B-3,538.667,0.167,55,183.32
1291,G#3,538.833,0.167,64,183.32
1292,B-3,539.0,0.25,54,183.32
1293,B-2,539.0,0.5,58,183.32
1294,G#3,539.25,0.25,59,183.32
1295,G3,539.5,0.25,55,183.32
1296,F3,539.5,0.5,53,183.32
1297,G#3,539.75,0.25,57,183.32
1298,G3,540.0,0.5,74,183.32
1299,E-2,540.0,1.0,64,183.32
1300,E-3,540.0,1.0,64,183.32
1301,B-3,540.5,0.5,60,183.32
1302,E-4,541.0,0.5,68,183.32
1303,B-3,541.5,0.5,61,183.32
1304,E-4,542.0,0.5,69,183.32
1305,G4,542.5,0.5,63,183.32
1306,B-4,543.0,0.5,69,183.32
1307,G4,543.5,0.5,60,183.32
1308,B-4,544.0,0.5,69,183.32
1309,E-5,544.5,0.5,62,183.32
1310,G5,545.0,0.5,78,183.32
1311,B-5,545.5,0.5,73,183.32
1312,E-6,546.0,0.5,89,183.32
1313,G2,546.0,0.5,67,183.32
1314,E-3,546.5,0.5,45,183.32
1315,G#2,547.0,0.5,50,183.32
1316,E-3,547.5,0.5,47,183.32
1317,E-4,548.0,3.0,84,183.32
1318,B-2,548.0,0.5,54,183.32
1319,E-3,548.5,0.5,44,183.32
1320,G2,549.0,0.5,67,183.32
1321,E-3,549.5,0.5,45,183.32
1322,G#2,550.0,0.5,50,183.32
1323,E-3,550.5,0.5,47,183.32
1324,G3,551.0,1.0,81,183.32
1325,B-2,551.0,0.5,54,183.32
1326,E-3,551.5,0.5,44,183.32
1327,G#3,552.0,2.0,84,183.32
1328,G#2,552.0,0.5,65,183.32
1329,E-3,552.5,0.5,45,183.32
1330,B-2,553.0,0.5,59,183.32
1331,E-3,553.5,0.5,42,183.32
1332,E-4,554.0,1.0,84,183.32
1333,C3,554.0,0.5,58,183.32
1334,E-3,554.5,0.5,45,183.32
1335,A3,555.0,2.0,92,183.32
1336,A2,555.0,0.5,67,183.32
1337,E-3,555.5,0.5,45,183.32
1338,B-2,556.0,0.5,60,183.32
1339,E-3,556.5,0.5,47,183.32
1340,E-4,557.0,1.0,84,183.32
1341,C3,557.0,0.5,58,183.32
1342,E-3,557.5,0.5,44,183.32
1343,B-3,558.0,0.5,77,183.32
1344,B-2,558.0,0.5,67,183.32
1345,E-4,558.5,0.5,60,183.32
1346,E-3,558.5,0.5,53,183.32
1347,D4,559.0,0.5,69,183.32
1348,D3,559.0,0.5,61,183.32
1349,E-4,559.5,0.5,55,183.32
1350,E-3,559.5,0.5,48,183.32
1351,B3,560.0,0.5,68,183.32
1352,B2,560.0,0.5,61,183.32
1353,E-4,560.5,0.5,61,183.32
1354,E-3,560.5,0.5,49,183.32
1355,C4,561.0,0.5,82,183.32
1356,C3,561.0,0.5,71,183.32
1357,E-4,561.5,0.5,63,183.32
1358,E-3,561.5,0.5,52,183.32
1359,D4,562.0,0.5,70,183.32
1360,D3,562.0,0.5,63,183.32
1361,E-4,562.5,0.5,62,183.32
1362,E-3,562.5,0.5,55,183.32
1363,A3,563.0,0.5,70,183.32
1364,A2,563.0,0.5,66,183.32
1365,E-4,563.5,0.5,61,183.32
1366,E-3,563.5,0.5,49,183.32
1367,B-3,564.0,0.5,88,183.32
1368,B-2,564.0,0.5,77,183.32
1369,E-4,564.5,0.5,66,183.32
1370,E-3,564.5,0.5,56,183.32
1371,C#4,565.0,0.5,75,183.32
1372,C#3,565.0,0.5,66,183.32
1373,E-4,565.5,0.5,62,183.32
1374,E-3,565.5,0.5,54,183.32
1375,B3,566.0,0.5,74,183.32
1376,B2,566.0,0.5,67,183.32
1377,E-4,566.5,0.5,65,183.32
1378,E-3,566.5,0.5,56,183.32
1379,C4,567.0,0.5,88,183.32
1380,C3,567.0,0.5,77,183.32
1381,E-4,567.5,0.5,65,183.32
1382,E-3,567.5,0.5,58,183.32
1383,D4,568.0,0.5,71,183.32
1384,D3,568.0,0.5,63,183.32
1385,E-4,568.5,0.5,65,183.32
1386,E-3,568.5,0.5,58,183.32
1387,A3,569.0,0.5,80,183.32
1388,A2,569.0,0.5,71,183.32
1389,E-4,569.5,0.5,72,183.32
1390,E-3,569.5,0.5,65,183.32
1391,B-3,570.0,1.0,93,183.32
1392,B-2,570.0,1.0,82,183.32
1393,B-2,571.0,0.25,80,183.32
1394,E-3,571.0,0.25,80,183.32
1395,G3,571.0,0.25,80,183.32
1396,E-4,571.75,0.25,81,183.32
1397,B-4,572.0,0.75,87,183.32
1398,G4,572.75,0.25,84,183.32
1399,E-5,573.0,0.25,93,183.32
1400,E-3,574.0,0.25,80,183.32
1401,C3,574.0,0.25,80,183.32
1402,F#3,574.0,0.25,80,183.32
1403,E-4,574.75,0.25,81,183.32
1404,A4,575.0,0.75,87,183.32
1405,F#4,575.75,0.25,84,183.32
1406,E-5,576.0,0.25,93,183.32
1407,G3,577.0,0.25,80,183.32
1408,B-2,577.0,0.25,80,183.32
1409,E-3,577.0,0.25,80,183.32
1410,E-4,577.75,0.25,81,183.32
1411,B-4,578.0,0.75,87,183.32
1412,G4,578.75,0.25,84,183.32
1413,E-5,579.0,0.25,93,183.32
1414,A3,580.0,0.25,80,183.32
1415,E-3,580.0,0.25,80,183.32
1416,F#3,580.0,0.25,80,183.32
1417,A2,580.0,0.25,80,183.32
1418,C5,580.75,0.25,81,183.32
1419,F#5,581.0,0.75,87,183.32
1420,E-5,581.75,0.25,84,183.32
1421,G5,582.0,1.5,95,183.32
1422,B-2,583.0,0.25,80,183.32
1423,B-3,583.0,0.25,80,183.32
1424,G3,583.0,0.25,80,183.32
1425,E-3,583.0,0.25,80,183.32
1426,E-5,583.5,0.5,85,183.32
1427,E-5,584.0,0.5,93,183.32
1428,B-4,584.5,0.375,79,183.32
1429,B-4,585.0,0.5,88,183.32
1430,G4,585.5,0.375,78,183.32
1431,G4,586.0,0.5,85,183.32
1432,E-4,586.5,0.375,77,183.32
1433,E-4,587.0,0.5,81,183.32
1434,B-3,587.5,0.375,77,183.32
1435,B-3,588.0,0.5,81,183.32
1436,G3,588.5,0.375,77,183.32
1437,G3,589.0,0.5,82,183.32
1438,E-3,589.5,0.375,77,183.32
1439,E-3,590.0,0.5,83,183.32
1440,B-2,590.5,0.375,77,183.32
1441,B-2,591.0,3.0,85,183.32
1442,B-1,591.0,3.0,85,183.32
1443,B-3,593.0,1.0,72,183.32
1444,D4,593.0,1.0,72,183.32
1445,G#3,593.0,1.0,64,183.32
1446,F3,593.0,1.0,64,183.32
1447,B-3,594.0,1.0,76,183.32
1448,E-4,594.0,1.0,76,183.32
1449,G3,594.0,1.0,73,183.32
1450,E-2,594.0,1.0,73,183.32
1451,B-2,595.0,5.0,51,183.32
1452,A2,596.0,1.0,51,183.32
1453,G#2,597.0,1.0,51,183.32
1454,G2,598.0,1.0,49,183.32
1455,B-4,598.0,1.0,45,183.32
1456,F4,598.0,1.0,45,183.32
1457,G#4,598.0,1.0,45,183.32
1458,D4,598.0,1.0,45,183.32
1459,F2,599.0,1.0,49,183.32
1460,D4,599.0,1.0,40,183.32
1461,F4,599.0,1.0,40,183.32
1462,G#4,599.0,1.0,40,183.32
1463,B-4,599.0,1.0,40,183.32
1464,C5,600.0,1.0,53,183.32
1465,E-2,600.0,1.0,51,183.32
1466,E-4,600.0,2.0,42,183.32
1467,G4,600.0,2.0,42,183.32
1468,B-4,601.0,1.0,49,183.32
1469,G2,601.0,1.0,47,183.32
1470,B-2,602.0,1.0,47,183.32
1471,B-1,603.0,1.0,51,183.32
1472,F2,604.0,1.0,48,183.32
1473,F4,604.0,1.0,46,183.32
1474,G#4,604.0,1.0,46,183.32
1475,D5,604.0,1.0,46,183.32
1476,B-2,605.0,1.0,48,183.32
1477,F4,605.0,1.0,41,183.32
1478,G#4,605.0,1.0,41,183.32
1479,D5,605.0,1.0,41,183.32
1480,F5,606.0,1.0,53,183.32
1481,E-2,606.0,1.0,67,183.32
1482,G4,606.0,2.0,42,183.32
1483,B-4,606.0,2.0,42,183.32
1484,E-5,607.0,1.0,49,183.32
1485,B-2,607.0,5.0,51,183.32
1486,A2,608.0,1.0,51,183.32
1487,G#2,609.0,1.0,51,183.32
1488,G2,610.0,1.0,49,183.32
1489,D4,610.0,1.0,45,183.32
1490,F4,610.0,1.0,45,183.32
1491,G#4,610.0,1.0,45,183.32
1492,B-4,610.0,1.0,45,183.32
1493,F2,611.0,1.0,49,183.32
1494,B-4,611.0,1.0,40,183.32
1495,F4,611.0,1.0,40,183.32
1496,G#4,611.0,1.0,40,183.32
1497,D4,611.0,1.0,40,183.32
1498,C5,612.0,1.0,53,183.32
1499,E-2,612.0,1.0,51,183.32
1500,E-4,612.0,2.0,42,183.32
1501,G4,612.0,2.0,42,183.32
1502,B-4,613.0,1.0,49,183.32
1503,G2,613.0,1.0,47,183.32
1504,B-2,614.0,1.0,47,183.32
1505,B-1,615.0,1.0,51,183.32
1506,F2,616.0,1.0,48,183.32
1507,F3,616.0,1.0,46,183.32
1508,G#3,616.0,1.0,46,183.32
1509,D4,616.0,1.0,46,183.32
1510,B-2,617.0,1.0,48,183.32
1511,F3,617.0,1.0,41,183.32
1512,G#3,617.0,1.0,41,183.32
1513,D4,617.0,1.0,41,183.32
1514,F4,618.0,1.0,53,183.32
1515,E-2,618.0,1.0,51,183.32
1516,G3,618.0,2.0,42,183.32
1517,B-3,618.0,2.0,42,183.32
1518,E-4,619.0,1.0,49,183.32
1519,G2,619.0,1.0,47,183.32
1520,B-2,620.0,1.0,47,183.32
1521,B-1,621.0,1.0,51,183.32
1522,F2,622.0,1.0,48,183.32
1523,F3,622.0,1.0,46,183.32
1524,G#3,622.0,1.0,46,183.32
1525,D4,622.0,1.0,46,183.32
1526,B-2,623.0,1.0,48,183.32
1527,F3,623.0,1.0,41,183.32
1528,G#3,623.0,1.0,41,183.32
1529,D4,623.0,1.0,41,183.32
1530,E-2,624.0,1.0,51,183.32
1531,G#3,624.0,3.0,46,183.32
1532,D4,624.0,3.0,46,183.32
1533,F4,624.0,3.0,46,183.32
1534,G2,625.0,1.0,47,183.32
1535,B-2,626.0,1.0,47,183.32
1536,B-3,627.0,1.0,46,183.32
1537,E-4,627.0,1.0,46,183.32
1538,E-3,627.0,1.0,42,183.32
1539,G3,627.0,1.0,42,183.32
1540,E4,630.0,1.5,73,183.32
1541,G4,630.0,1.5,73,183.32
1542,C5,630.0,1.5,73,183.32
1543,C4,630.0,1.5,62,183.32
1544,G3,630.0,1.5,62,183.32
1545,E3,630.0,1.5,62,183.32
1546,C3,630.0,1.5,62,183.32
1547,G4,631.75,0.25,70,183.32
1548,E5,632.0,0.75,78,183.32
1549,C5,632.75,0.25,70,183.32
1550,G5,633.0,0.75,79,183.32
1551,E5,633.75,0.25,70,183.32
1552,C6,634.0,0.75,79,183.32
1553,G5,634.75,0.25,70,183.32
1554,E6,635.0,0.25,84,183.32
1555,E6,636.0,0.25,84,183.32
1556,C5,638.0,0.5,42,183.32
1557,E5,638.0,0.5,42,183.32
1558,E4,638.0,0.5,38,183.32
1559,G4,638.0,0.5,38,183.32
1560,C5,639.0,2.0,46,183.32
1561,E5,639.0,2.0,46,183.32
1562,G4,639.0,2.0,38,183.32
1563,E4,639.0,2.0,38,183.32
1564,D5,641.0,0.979,42,183.32
1565,B4,641.0,0.979,42,183.32
1566,F4,641.0,0.979,35,183.32
1567,G#4,641.0,0.979,35,183.32
1568,B4,642.0,1.5,46,183.32
1569,D5,642.0,1.5,46,183.32
1570,F4,642.0,1.5,38,183.32
1571,G#4,642.0,1.5,38,183.32
1572,B4,643.75,0.25,70,183.32
1573,F5,644.0,0.75,78,183.32
1574,D5,644.75,0.25,70,183.32
1575,B5,645.0,0.75,79,183.32
1576,F5,645.75,0.25,70,183.32
1577,D6,646.0,0.75,79,183.32
1578,B5,646.75,0.25,70,183.32
1579,F6,647.0,0.25,84,183.32
1580,F6,648.0,0.25,84,183.32
1581,D5,650.0,0.5,42,183.32
1582,F5,650.0,0.5,42,183.32
1583,F4,650.0,0.5,38,183.32
1584,G#4,650.0,0.5,38,183.32
1585,D5,651.0,2.0,46,183.32
1586,F5,651.0,2.0,46,183.32
1587,G#4,651.0,2.0,38,183.32
1588,F4,651.0,2.0,38,183.32
1589,E5,653.0,0.979,42,183.32
1590,C#5,653.0,0.979,42,183.32
1591,G4,653.0,0.979,35,183.32
1592,B-4,653.0,0.979,35,183.32
1593,C#5,654.0,1.5,46,183.32
1594,E5,654.0,1.5,46,183.32
1595,G4,654.0,1.5,38,183.32
1596,B-4,654.0,1.5,38,183.32
1597,B-4,655.75,0.25,70,183.32
1598,E5,656.0,0.75,78,183.32
1599,C#5,656.75,0.25,70,183.32
1600,G5,657.0,0.75,84,183.32
1601,E5,657.75,0.25,70,183.32
1602,B-5,658.0,0.75,85,183.32
1603,G5,658.75,0.25,70,183.32
1604,C#6,659.0,0.25,89,183.32
1605,G4,660.0,0.25,87,183.32
1606,B-5,661.0,0.25,86,183.32
1607,E4,663.0,0.25,85,183.32
1608,G5,664.0,0.25,79,183.32
1609,F3,666.0,0.5,40,183.32
1610,F4,666.0,3.0,46,183.32
1611,F5,666.0,3.0,46,183.32
1612,C4,666.5,0.5,32,183.32
1613,G#3,667.0,0.5,34,183.32
1614,C4,667.5,0.5,32,183.32
1615,F3,668.0,0.5,34,183.32
1616,C4,668.5,0.5,32,183.32
1617,F3,669.0,0.5,40,183.32
1618,C6,669.0,1.979,49,183.32
1619,C5,669.0,1.979,49,183.32
1620,C4,669.5,0.5,33,183.32
1621,G#3,670.0,0.5,34,183.32
1622,C4,670.5,0.5,32,183.32
1623,F3,671.0,0.5,35,183.32
1624,C6,671.0,0.979,46,183.32
1625,C5,671.0,0.979,46,183.32
1626,C4,671.5,0.5,32,183.32
1627,G3,672.0,0.5,40,183.32
1628,C6,672.0,1.0,50,183.32
1629,C5,672.0,1.0,50,183.32
1630,C4,672.5,0.5,32,183.32
1631,B-3,673.0,0.5,34,183.32
1632,B5,673.0,1.0,46,183.32
1633,B4,673.0,1.0,46,183.32
1634,C4,673.5,0.5,32,183.32
1635,G3,674.0,0.5,37,183.32
1636,C#6,674.0,1.0,46,183.32
1637,C#5,674.0,1.0,46,183.32
1638,C4,674.5,0.5,32,183.32
1639,E3,675.0,0.5,32,183.32
1640,C5,675.0,1.0,46,183.32
1641,C6,675.0,1.0,46,183.32
1642,C4,675.5,0.5,32,183.32
1643,G3,676.0,0.5,35,183.32
1644,B-5,676.0,1.0,46,183.32
1645,B-4,676.0,1.0,46,183.32
1646,C4,676.5,0.5,32,183.32
1647,E3,677.0,0.5,37,183.32
1648,G5,677.0,1.0,46,183.32
1649,G4,677.0,1.0,46,183.32
1650,C4,677.5,0.5,32,183.32
1651,C3,678.0,0.5,40,183.32
1652,E5,678.0,2.0,52,183.32
1653,E4,678.0,2.0,52,183.32
1654,C4,678.5,0.5,31,183.32
1655,E3,679.0,0.5,36,183.32
1656,C4,679.5,0.5,32,183.32
1657,G3,680.0,0.5,38,183.32
1658,G4,680.0,1.0,54,183.32
1659,G5,680.0,1.0,54,183.32
1660,C4,680.5,0.5,33,183.32
1661,E3,681.0,0.5,45,183.32
1662,C6,681.0,2.0,60,183.32
1663,C5,681.0,2.0,60,183.32
1664,C4,681.5,0.5,35,183.32
1665,G3,682.0,0.5,38,183.32
1666,C4,682.5,0.5,31,183.32
1667,B-3,683.0,0.5,37,183.32
1668,G5,683.0,1.0,54,183.32
1669,G4,683.0,1.0,54,183.32
1670,C4,683.5,0.5,31,183.32
1671,F3,684.0,0.5,45,183.32
1672,B-4,684.0,3.0,59,183.32
1673,B-5,684.0,3.0,59,183.32
1674,C4,684.5,0.5,31,183.32
1675,G#3,685.0,0.5,36,183.32
1676,C4,685.5,0.5,31,183.32
1677,F3,686.0,0.5,36,183.32
1678,C4,686.5,0.5,31,183.32
1679,F3,687.0,0.5,40,183.32
1680,G#5,687.0,1.0,54,183.32
1681,G#4,687.0,1.0,54,183.32
1682,C4,687.5,0.5,30,183.32
1683,E3,688.0,0.5,42,183.32
1684,F3,688.5,0.5,40,183.32
1685,E-3,689.0,0.5,49,183.32
1686,A4,689.0,1.0,52,183.32
1687,A5,689.0,1.0,52,183.32
1688,F3,689.5,0.5,43,183.32
1689,C#3,690.0,0.5,52,183.32
1690,B-4,690.0,3.0,57,183.32
1691,B-5,690.0,3.0,57,183.32
1692,F3,690.5,0.5,38,183.32
1693,C3,691.0,0.5,43,183.32
1694,F3,691.5,0.5,32,183.32
1695,C#3,692.0,0.5,38,183.32
1696,F3,692.5,0.5,32,183.32
1697,B-2,693.0,0.5,45,183.32
1698,F6,693.0,1.979,61,183.32
1699,F5,693.0,1.979,61,183.32
1700,F3,693.5,0.5,33,183.32
1701,C3,694.0,0.5,34,183.32
1702,F3,694.5,0.5,32,183.32
1703,C#3,695.0,0.5,35,183.32
1704,F6,695.0,0.979,57,183.32
1705,F5,695.0,0.979,57,183.32
1706,F3,695.5,0.5,32,183.32
1707,C3,696.0,0.5,46,183.32
1708,F6,696.0,1.0,62,183.32
1709,F5,696.0,1.0,62,183.32
1710,F3,696.5,0.5,32,183.32
1711,E-3,697.0,0.5,34,183.32
1712,E6,697.0,1.0,57,183.32
1713,E5,697.0,1.0,57,183.32
1714,F3,697.5,0.5,32,183.32
1715,C3,698.0,0.5,37,183.32
1716,F#6,698.0,1.0,57,183.32
1717,F#5,698.0,1.0,57,183.32
1718,F3,698.5,0.5,32,183.32
1719,A2,699.0,0.5,40,183.32
1720,F5,699.0,1.0,57,183.32
1721,F6,699.0,1.0,57,183.32
1722,F3,699.5,0.5,32,183.32
1723,C3,700.0,0.5,35,183.32
1724,E-6,700.0,1.0,57,183.32
1725,E-5,700.0,1.0,57,183.32
1726,F3,700.5,0.5,32,183.32
1727,A2,701.0,0.5,37,183.32
1728,C6,701.0,1.0,57,183.32
1729,C5,701.0,1.0,57,183.32
1730,F3,701.5,0.5,32,183.32
1731,F2,702.0,0.5,40,183.32
1732,A5,702.0,2.0,64,183.32
1733,A4,702.0,2.0,64,183.32
1734,F3,702.5,0.5,31,183.32
1735,A2,703.0,0.5,45,183.32
1736,F3,703.5,0.5,37,183.32
1737,C3,704.0,0.5,46,183.32
1738,C5,704.0,1.0,67,183.32
1739,C6,704.0,1.0,67,183.32
1740,F3,704.5,0.5,39,183.32
1741,A2,705.0,0.5,51,183.32
1742,F6,705.0,2.0,74,183.32
1743,F5,705.0,2.0,74,183.32
1744,F3,705.5,0.5,44,183.32
1745,C3,706.0,0.5,38,183.32
1746,F3,706.5,0.5,31,183.32
1747,E-3,707.0,0.5,37,183.32
1748,C6,707.0,1.0,67,183.32
1749,C5,707.0,1.0,67,183.32
1750,F3,707.5,0.5,31,183.32
1751,B-2,708.0,0.5,45,183.32
1752,E-5,708.0,3.0,74,183.32
1753,E-6,708.0,3.0,74,183.32
1754,F3,708.5,0.5,31,183.32
1755,C#3,709.0,0.5,36,183.32
1756,F3,709.5,0.5,31,183.32
1757,B-2,710.0,0.5,36,183.32
1758,F3,710.5,0.5,31,183.32
1759,B-2,711.0,0.5,40,183.32
1760,C#6,711.0,1.0,66,183.32
1761,C#5,711.0,1.0,66,183.32
1762,F3,711.5,0.5,30,183.32
1763,C#3,712.0,0.5,33,183.32
1764,F3,712.5,0.5,30,183.32
1765,C#5,713.0,1.0,61,183.32
1766,B-2,713.0,0.5,33,183.32
1767,F3,713.5,0.5,30,183.32
1768,C5,714.0,2.0,67,183.32
1769,G#2,714.0,0.5,40,183.32
1770,F#3,714.5,0.5,32,183.32
1771,E-3,715.0,0.5,48,183.32
1772,F#3,715.5,0.5,40,183.32
1773,E-5,716.0,0.25,61,183.32
1774,G#2,716.0,0.5,51,183.32
1775,F5,716.25,0.167,57,183.32
1776,E-5,716.417,0.167,61,183.32
1777,F#3,716.5,0.5,46,183.32
1778,D5,716.583,0.167,65,183.32
1779,E-5,716.75,0.25,69,183.32
1780,G#5,717.0,2.0,74,183.32
1781,G#2,717.0,0.5,52,183.32
1782,F#3,717.5,0.5,40,183.32
1783,C3,718.0,0.5,40,183.32
1784,F#3,718.5,0.5,35,183.32
1785,E-5,719.0,1.0,66,183.32
1786,G#2,719.0,0.5,40,183.32
1787,F#3,719.5,0.5,34,183.32
1788,F5,720.0,1.0,70,183.32
1789,C#3,720.0,1.0,40,183.32
1790,F3,720.0,1.0,40,183.32
1791,E5,721.0,1.0,61,183.32
1792,F#5,722.0,1.0,61,183.32
1793,F5,723.0,1.0,70,183.32
1794,G#4,723.0,1.0,45,183.32
1795,E-5,724.0,1.0,61,183.32
1796,F#4,724.0,1.0,38,183.32
1797,C5,725.0,1.0,61,183.32
1798,E-4,725.0,1.0,38,183.32
1799,G#5,726.0,1.0,70,183.32
1800,F4,726.0,1.0,45,183.32
1801,G5,727.0,1.0,61,183.32
1802,E4,727.0,1.0,38,183.32
1803,B-5,728.0,1.0,61,183.32
1804,F#4,728.0,1.0,38,183.32
1805,G#5,729.0,1.0,70,183.32
1806,F4,729.0,1.0,45,183.32
1807,F#5,730.0,1.0,61,183.32
1808,E-4,730.0,1.0,38,183.32
1809,E-5,731.0,1.0,61,183.32
1810,C4,731.0,1.0,38,183.32
1811,F5,732.0,1.0,70,183.32
1812,C#4,732.0,1.0,45,183.32
1813,E5,733.0,1.0,61,183.32
1814,C4,733.0,1.0,38,183.32
1815,F#5,734.0,1.0,61,183.32
1816,E-4,734.0,1.0,38,183.32
1817,F5,735.0,1.0,70,183.32
1818,C#4,735.0,1.0,45,183.32
1819,E-5,736.0,1.0,61,183.32
1820,C4,736.0,1.0,38,183.32
1821,C5,737.0,1.0,61,183.32
1822,A3,737.0,1.0,38,183.32
1823,C#5,738.0,3.0,66,183.32
1824,B-3,738.0,1.0,45,183.32
1825,C#4,739.0,1.0,37,183.32
1826,G#3,740.0,1.0,37,183.32
1827,G3,741.0,1.0,45,183.32
1828,B-5,741.0,1.979,64,183.32
1829,C#5,741.0,1.979,64,183.32
1830,B-3,742.0,1.0,43,183.32
1831,F3,743.0,1.0,48,183.32
1832,B-5,743.0,0.979,67,183.32
1833,C#5,743.0,0.979,67,183.32
1834,E3,744.0,1.0,53,183.32
1835,B-5,744.0,5.0,70,183.32
1836,C5,744.0,5.0,70,183.32
1837,G3,745.0,1.0,44,183.32
1838,D3,746.0,1.0,44,183.32
1839,C3,747.0,1.0,52,183.32
1840,D3,748.0,1.0,44,183.32
1841,E3,749.0,1.0,44,183.32
1842,G4,749.0,1.0,66,183.32
1843,B-4,749.0,1.0,66,183.32
1844,F3,750.0,1.0,53,183.32
1845,F4,750.0,3.0,64,183.32
1846,G#4,750.0,3.0,64,183.32
1847,G#3,751.0,1.0,45,183.32
1848,E-3,752.0,1.0,45,183.32
1849,D3,753.0,1.0,45,183.32
1850,G#5,753.0,1.979,70,183.32
1851,F5,753.0,1.979,70,183.32
1852,F3,754.0,1.0,43,183.32
1853,C3,755.0,1.0,48,183.32
1854,F5,755.0,1.0,74,183.32
1855,G#5,755.0,1.0,74,183.32
1856,B2,756.0,1.0,56,183.32
1857,G5,756.0,5.0,77,183.32
1858,F5,756.0,5.0,77,183.32
1859,D3,757.0,1.0,46,183.32
1860,A2,758.0,1.0,46,183.32
1861,G2,759.0,1.0,55,183.32
1862,A2,760.0,1.0,48,183.32
1863,B2,761.0,1.0,48,183.32
1864,D4,761.0,1.0,66,183.32
1865,F4,761.0,1.0,66,183.32
1866,C3,762.0,1.0,62,183.32
1867,C4,762.0,1.0,64,183.32
1868,E-4,762.0,1.0,64,183.32
1869,E-3,763.0,1.0,52,183.32
1870,B-2,764.0,1.0,52,183.32
1871,G#2,765.0,1.0,61,183.32
1872,C5,765.0,1.979,76,183.32
1873,C6,765.0,1.979,76,183.32
1874,E-5,765.0,1.979,76,183.32
1875,C3,766.0,1.0,53,183.32
1876,G2,767.0,1.0,53,183.32
1877,C5,767.0,0.979,75,183.32
1878,E-5,767.0,0.979,75,183.32
1879,C6,767.0,0.979,75,183.32
1880,F2,768.0,1.0,61,183.32
1881,C5,768.0,3.0,81,183.32
1882,C6,768.0,3.0,81,183.32
1883,G#5,768.0,3.0,81,183.32
1884,G#2,769.0,1.0,53,183.32
1885,E-2,770.0,1.0,53,183.32
1886,D2,771.0,1.0,70,183.32
1887,F5,771.0,1.979,87,183.32
1888,F6,771.0,1.979,87,183.32
1889,G#5,771.0,1.979,87,183.32
1890,F2,772.0,1.0,60,183.32
1891,C2,773.0,1.0,60,183.32
1892,F5,773.0,0.979,86,183.32
1893,G#5,773.0,0.979,86,183.32
1894,F6,773.0,0.979,86,183.32
1895,B1,774.0,1.0,70,183.32
1896,G5,774.0,5.0,91,183.32
1897,F5,774.0,5.0,91,183.32
1898,F6,774.0,5.0,91,183.32
1899,D6,774.0,5.0,91,183.32
1900,D2,775.0,1.0,60,183.32
1901,A1,776.0,1.0,60,183.32
1902,G1,777.0,1.0,66,183.32
1903,A1,778.0,1.0,57,183.32
1904,B1,779.0,1.0,57,183.32
1905,D5,779.0,1.0,73,183.32
1906,F5,779.0,1.0,73,183.32
1907,C2,780.0,1.0,62,183.32
1908,C5,780.0,2.0,78,183.32
1909,E-5,780.0,2.0,78,183.32
1910,D2,781.0,1.0,57,183.32
1911,E-2,782.0,1.0,62,183.32
1912,G4,782.0,2.0,70,183.32
1913,E-5,782.0,2.0,70,183.32
1914,G#4,783.0,2.0,80,183.32
1915,F2,783.0,2.0,57,183.32
1916,F4,784.0,1.0,68,183.32
1917,D5,784.0,1.0,68,183.32
1918,F#2,785.0,1.0,50,183.32
1919,E-4,785.0,1.0,64,183.32
1920,A4,785.0,1.0,64,183.32
1921,C5,785.0,1.0,64,183.32
1922,G2,786.0,0.5,57,183.32
1923,D4,786.0,1.0,68,183.32
1924,G4,786.0,1.0,68,183.32
1925,B4,786.0,1.0,68,183.32
1926,G3,787.0,1.0,54,183.32
1927,B4,788.0,1.0,51,183.32
1928,D5,788.0,1.0,51,183.32
1929,G5,788.0,1.0,51,183.32
1930,G#4,789.0,1.0,54,183.32
1931,C5,789.0,1.0,54,183.32
1932,F5,789.0,1.0,54,183.32
1933,G3,790.0,1.0,45,183.32
1934,G4,791.0,1.0,50,183.32
1935,B-4,791.0,1.0,50,183.32
1936,E-5,791.0,1.0,50,183.32
1937,F4,792.0,1.0,54,183.32
1938,G#4,792.0,1.0,54,183.32
1939,D5,792.0,1.0,54,183.32
1940,G3,793.0,1.0,46,183.32
1941,E-4,794.0,1.0,51,183.32
1942,G4,794.0,1.0,51,183.32
1943,C5,794.0,1.0,51,183.32
1944,D4,795.0,1.0,54,183.32
1945,F4,795.0,1.0,54,183.32
1946,B4,795.0,1.0,54,183.32
1947,G3,796.0,1.0,47,183.32
1948,C4,797.0,1.0,48,183.32
1949,E-4,797.0,1.0,48,183.32
1950,G#4,797.0,1.0,48,183.32
1951,B3,798.0,1.0,54,183.32
1952,D4,798.0,1.0,54,183.32
1953,G4,798.0,1.0,54,183.32
1954,G2,799.0,1.0,47,183.32
1955,B4,800.0,1.0,46,183.32
1956,D5,800.0,1.0,46,183.32
1957,G5,800.0,1.0,46,183.32
1958,G#4,801.0,1.0,48,183.32
1959,C5,801.0,1.0,48,183.32
1960,F5,801.0,1.0,48,183.32
1961,G2,802.0,1.0,39,183.32
1962,G4,803.0,1.0,43,183.32
1963,B-4,803.0,1.0,43,183.32
1964,E-5,803.0,1.0,43,183.32
1965,F4,804.0,1.0,46,183.32
1966,G#4,804.0,1.0,46,183.32
1967,D5,804.0,1.0,46,183.32
1968,G2,805.0,1.0,38,183.32
1969,E-4,806.0,1.0,42,183.32
1970,G4,806.0,1.0,42,183.32
1971,C5,806.0,1.0,42,183.32
1972,D4,807.0,1.0,44,183.32
1973,F4,807.0,1.0,44,183.32
1974,B4,807.0,1.0,44,183.32
1975,G2,808.0,1.0,37,183.32
1976,C4,809.0,1.0,37,183.32
1977,E-4,809.0,1.0,37,183.32
1978,G#4,809.0,1.0,37,183.32
1979,B3,810.0,1.0,41,183.32
1980,D4,810.0,1.0,41,183.32
1981,G4,810.0,1.0,41,183.32
1982,G1,811.0,1.0,36,183.32
1983,G2,811.0,1.0,36,183.32
1984,C4,812.0,1.0,36,183.32
1985,G#3,812.0,1.0,36,183.32
1986,F4,812.0,1.0,36,183.32
1987,G3,813.0,1.0,38,183.32
1988,C4,813.0,1.0,38,183.32
1989,E-4,813.0,1.0,38,183.32
1990,G1,814.0,1.0,30,183.32
1991,G2,814.0,1.0,30,183.32
1992,F3,815.0,1.0,34,183.32
1993,B3,815.0,1.0,34,183.32
1994,D4,815.0,1.0,34,183.32
1995,E-3,816.0,1.5,73,183.32
1996,G3,816.0,1.5,73,183.32
1997,C4,816.0,1.5,73,183.32
1998,C3,816.0,1.5,62,183.32
1999,G2,816.0,1.5,62,183.32
2000,E-2,816.0,1.5,62,183.32
2001,C2,816.0,1.5,62,183.32
2002,G4,817.75,0.25,70,183.32
2003,E-5,818.0,0.75,78,183.32
2004,C5,818.75,0.25,70,183.32
2005,G5,819.0,0.75,79,183.32
2006,E-5,819.75,0.25,70,183.32
2007,C6,820.0,0.75,79,183.32
2008,G5,820.75,0.25,70,183.32
2009,E-6,821.0,0.25,84,183.32
2010,E-6,822.0,0.25,84,183.32
2011,G4,824.0,0.5,42,183.32
2012,C5,824.0,0.5,42,183.32
2013,C4,824.0,0.5,38,183.32
2014,E-4,824.0,0.5,38,183.32
2015,G4,825.0,2.0,46,183.32
2016,C5,825.0,2.0,46,183.32
2017,E-4,825.0,2.0,38,183.32
2018,C4,825.0,2.0,38,183.32
2019,G4,827.0,0.958,42,183.32
2020,B4,827.0,0.958,42,183.32
2021,D4,827.0,0.979,35,183.32
2022,F4,827.0,0.979,35,183.32
2023,G#4,828.0,1.5,73,183.32
2024,F4,828.0,1.5,73,183.32
2025,B4,828.0,1.5,73,183.32
2026,F3,828.0,1.5,61,183.32
2027,B3,828.0,1.5,61,183.32
2028,G#3,828.0,1.5,61,183.32
2029,D4,828.0,1.5,61,183.32
2030,D3,828.0,1.5,61,183.32
2031,B4,829.75,0.25,70,183.32
2032,F5,830.0,0.75,78,183.32
2033,D5,830.75,0.25,70,183.32
2034,B5,831.0,0.75,79,183.32
2035,F5,831.75,0.25,70,183.32
2036,D6,832.0,0.75,79,183.32
2037,B5,832.75,0.25,70,183.32
2038,F6,833.0,0.25,84,183.32
2039,F6,834.0,0.25,84,183.32
2040,B4,836.0,0.5,42,183.32
2041,D5,836.0,0.5,42,183.32
2042,D4,836.0,0.5,36,183.32
2043,G#4,836.0,0.5,36,183.32
2044,F4,836.0,0.5,36,183.32
2045,B4,837.0,2.0,46,183.32
2046,D5,837.0,2.0,46,183.32
2047,G#4,837.0,2.0,36,183.32
2048,F4,837.0,2.0,36,183.32
2049,D4,837.0,2.0,36,183.32
2050,C5,839.0,0.75,46,183.32
2051,G4,839.0,1.0,35,183.32
2052,E-4,839.0,1.0,35,183.32
2053,C5,839.75,0.125,45,183.32
2054,E-5,839.875,0.125,48,183.32
2055,G5,840.0,1.5,53,183.32
2056,F5,841.5,0.5,41,183.32
2057,E-5,842.0,1.0,51,183.32
2058,C4,842.0,1.0,31,183.32
2059,G3,842.0,1.0,31,183.32
2060,E-3,842.0,1.0,31,183.32
2061,D5,843.0,2.0,47,183.32
2062,F3,843.0,2.0,35,183.32
2063,G#3,843.0,2.0,35,183.32
2064,B3,843.0,2.0,35,183.32
2065,C5,845.0,0.75,39,183.32
2066,C4,845.0,1.0,30,183.32
2067,G3,845.0,1.0,30,183.32
2068,E-3,845.0,1.0,30,183.32
2069,G4,845.75,0.083,27,183.32
2070,C5,845.833,0.083,45,183.32
2071,E-5,845.917,0.083,48,183.32
2072,G5,846.0,1.5,53,183.32
2073,F5,847.5,0.5,41,183.32
2074,C5,848.0,1.0,47,183.32
2075,E-5,848.0,1.0,47,183.32
2076,E-4,848.0,1.0,32,183.32
2077,G4,848.0,1.0,32,183.32
2078,B4,849.0,2.0,43,183.32
2079,D5,849.0,2.0,43,183.32
2080,G#4,849.0,2.0,36,183.32
2081,F4,849.0,2.0,36,183.32
2082,C5,851.0,0.75,39,183.32
2083,E-4,851.0,1.0,31,183.32
2084,G4,851.0,1.0,31,183.32
2085,G4,851.75,0.083,60,183.32
2086,C5,851.833,0.083,63,183.32
2087,E-5,851.917,0.083,69,183.32
2088,G4,852.0,1.5,75,183.32
2089,G5,852.0,1.5,75,183.32
2090,F5,853.5,0.5,56,183.32
2091,F4,853.5,0.5,56,183.32
2092,E-5,854.0,2.0,68,183.32
2093,E-4,854.0,2.0,68,183.32
2094,G3,854.0,1.0,42,183.32
2095,C4,854.0,1.0,42,183.32
2096,E-3,854.0,1.0,42,183.32
2097,B3,855.0,2.0,48,183.32
2098,F3,855.0,2.0,48,183.32
2099,G#3,855.0,2.0,48,183.32
2100,D5,856.0,0.25,66,183.32
2101,D4,856.0,0.25,66,183.32
2102,C5,857.0,2.0,69,183.32
2103,C4,857.0,2.0,69,183.32
2104,G3,857.0,1.0,42,183.32
2105,E-3,857.0,1.0,42,183.32
2106,D3,858.0,2.0,51,183.32
2107,F3,858.0,2.0,51,183.32
2108,B3,859.0,0.25,69,183.32
2109,B4,859.0,0.25,69,183.32
2110,G#3,860.0,2.0,68,183.32
2111,G#4,860.0,2.0,68,183.32
2112,E-3,860.0,1.0,45,183.32
2113,C3,860.0,1.0,45,183.32
2114,D3,861.0,1.0,52,183.32
2115,B2,861.0,1.0,52,183.32
2116,G3,862.0,0.5,62,183.32
2117,G4,862.0,0.5,62,183.32
2118,B3,865.0,0.333,42,183.32
2119,D4,865.333,0.333,35,183.32
2120,F4,865.667,0.333,35,183.32
2121,G#4,866.0,0.333,43,183.32
2122,G#3,866.0,1.0,30,183.32
2123,F3,866.0,1.0,30,183.32
2124,D3,866.0,1.0,30,183.32
2125,B2,866.0,1.0,30,183.32
2126,G4,866.333,0.333,36,183.32
2127,F4,866.667,0.333,36,183.32
2128,E-4,867.0,0.25,43,183.32
2129,G3,867.0,0.25,30,183.32
2130,E-3,867.0,0.25,30,183.32
2131,C3,867.0,0.25,30,183.32
2132,F3,871.0,0.333,42,183.32
2133,G#3,871.333,0.333,35,183.32
2134,D4,871.667,0.333,35,183.32
2135,F4,872.0,0.333,43,183.32
2136,D3,872.0,1.0,30,183.32
2137,G#2,872.0,1.0,30,183.32
2138,F2,872.0,1.0,30,183.32
2139,E-4,872.333,0.333,36,183.32
2140,D4,872.667,0.333,36,183.32
2141,C4,873.0,0.25,43,183.32
2142,C3,873.0,0.25,30,183.32
2143,G2,873.0,0.25,30,183.32
2144,E-3,873.0,0.25,30,183.32
2145,G3,877.0,0.333,66,183.32
2146,B3,877.333,0.333,69,183.32
2147,D4,877.667,0.333,72,183.32
2148,F4,878.0,0.333,75,183.32
2149,G2,878.0,0.5,73,183.32
2150,G1,878.0,0.5,73,183.32
2151,D4,878.333,0.333,67,183.32
2152,B3,878.667,0.333,71,183.32
2153,C4,879.0,0.5,94,183.32
2154,C2,879.0,0.5,74,183.32
2155,C3,879.0,0.5,74,183.32
2156,C#4,885.0,9.0,69,183.32
2157,B3,888.0,3.0,50,183.32
2158,F4,889.0,2.0,50,183.32
2159,C#5,890.0,1.0,45,183.32
2160,F#4,891.0,3.0,42,183.32
2161,C#5,891.0,2.0,50,183.32
2162,B-3,891.0,3.0,49,183.32
2163,C#5,893.0,2.0,45,183.32
2164,F4,894.0,3.0,42,183.32
2165,B3,894.0,3.0,31,183.32
2166,G#3,894.0,3.0,31,183.32
2167,E-5,895.0,1.0,45,183.32
2168,B4,896.0,2.0,44,183.32
2169,F#4,897.0,3.0,42,183.32
2170,F#3,897.0,3.0,30,183.32
2171,C#4,897.0,3.0,30,183.32
2172,A4,898.0,1.0,45,183.32
2173,B-4,899.0,1.0,45,183.32
2174,B4,900.0,3.0,50,183.32
2175,C#5,900.0,6.0,60,183.32
2176,F5,901.0,2.0,50,183.32
2177,C#6,902.0,1.0,45,183.32
2178,F#5,903.0,3.0,42,183.32
2179,C#6,903.0,2.0,50,183.32
2180,B-4,903.0,3.0,49,183.32
2181,C#6,905.0,2.0,45,183.32
2182,F5,906.0,3.0,42,183.32
2183,G#4,906.0,3.0,31,183.32
2184,B4,906.0,3.0,31,183.32
2185,E-6,907.0,1.0,45,183.32
2186,B5,908.0,2.0,44,183.32
2187,F#5,909.0,3.0,42,183.32
2188,F#4,909.0,3.0,30,183.32
2189,C#5,909.0,3.0,30,183.32
2190,A5,910.0,1.0,45,183.32
2191,B-5,911.0,1.0,45,183.32
2192,G#4,912.0,3.0,50,183.32
2193,B-4,912.0,6.0,60,183.32
2194,D5,913.0,2.0,50,183.32
2195,B-5,914.0,1.0,45,183.32
2196,E-5,915.0,3.0,42,183.32
2197,B-5,915.0,2.0,50,183.32
2198,F#4,915.0,3.0,49,183.32
2199,B-5,917.0,2.0,45,183.32
2200,D5,918.0,3.0,42,183.32
2201,F4,918.0,3.0,44,183.32
2202,G#4,918.0,3.0,44,183.32
2203,B5,919.0,1.0,45,183.32
2204,G#5,920.0,2.0,44,183.32
2205,B-4,921.0,3.0,49,183.32
2206,E-4,921.0,3.0,30,183.32
2207,F#4,921.0,3.0,30,183.32
2208,F5,922.0,1.0,52,183.32
2209,F#5,923.0,2.0,52,183.32
2210,B4,924.0,3.0,50,183.32
2211,C#4,924.0,3.0,45,183.32
2212,F4,924.0,3.0,45,183.32
2213,G#5,925.0,1.0,55,183.32
2214,F5,926.0,2.0,50,183.32
2215,C5,927.0,3.0,42,183.32
2216,G4,927.0,3.0,30,183.32
2217,C4,927.0,3.0,30,183.32
2218,F5,928.0,1.0,45,183.32
2219,E5,929.0,2.0,45,183.32
2220,G#4,930.0,2.0,42,183.32
2221,B3,930.0,3.0,33,183.32
2222,F5,931.0,1.0,45,183.32
2223,F4,932.0,1.0,30,183.32
2224,G#4,932.0,1.0,30,183.32
2225,C4,933.0,1.0,42,183.32
2226,C3,933.0,6.0,33,183.32
2227,E4,933.0,1.0,35,183.32
2228,G4,933.0,1.0,35,183.32
2229,G3,934.0,1.0,33,183.32
2230,G#3,935.0,1.0,37,183.32
2231,B-3,936.0,1.0,41,183.32
2232,C#5,937.0,0.5,38,183.32
2233,F3,937.0,1.0,33,183.32
2234,C#5,938.0,0.5,38,183.32
2235,G3,938.0,1.0,35,183.32
2236,C#5,939.0,1.0,46,183.32
2237,C3,939.0,6.0,42,183.32
2238,G#3,939.0,1.0,42,183.32
2239,C5,940.0,1.0,38,183.32
2240,E3,940.0,1.0,33,183.32
2241,F3,941.0,1.0,33,183.32
2242,G3,942.0,1.0,40,183.32
2243,B-4,943.0,0.5,38,183.32
2244,D3,943.0,1.0,33,183.32
2245,B-4,944.0,0.5,38,183.32
2246,E3,944.0,1.0,33,183.32
2247,B-4,945.0,1.0,43,183.32
2248,C3,945.0,6.0,39,183.32
2249,F3,945.0,1.0,39,183.32
2250,A4,946.0,1.0,38,183.32
2251,G3,946.0,1.0,33,183.32
2252,A3,947.0,1.0,36,183.32
2253,B-3,948.0,1.0,40,183.32
2254,D5,948.5,0.5,37,183.32
2255,C#5,949.0,0.5,38,183.32
2256,F#3,949.0,1.0,33,183.32
2257,D5,949.5,0.5,34,183.32
2258,E5,950.0,0.5,43,183.32
2259,G3,950.0,1.0,33,183.32
2260,D5,950.5,0.5,38,183.32
2261,A3,951.0,1.0,42,183.32
2262,C3,951.0,6.0,42,183.32
2263,C5,951.5,0.5,36,183.32
2264,B4,952.0,0.5,38,183.32
2265,E3,952.0,1.0,33,183.32
2266,C5,952.5,0.5,36,183.32
2267,D5,953.0,0.5,44,183.32
2268,F3,953.0,1.0,33,183.32
2269,C5,953.5,0.5,38,183.32
2270,G3,954.0,1.0,40,183.32
2271,B-4,954.5,0.5,36,183.32
2272,A4,955.0,0.5,38,183.32
2273,D3,955.0,1.0,33,183.32
2274,B-4,955.5,0.5,35,183.32
2275,C5,956.0,0.5,44,183.32
2276,E3,956.0,1.0,33,183.32
2277,B-4,956.5,0.5,37,183.32
2278,A4,957.0,4.5,46,183.32
2279,F3,957.0,0.5,40,183.32
2280,C4,957.5,0.5,28,183.32
2281,A3,958.0,0.5,33,183.32
2282,C4,958.5,0.5,27,183.32
2283,G3,959.029,0.5,33,183.32
2284,C4,959.5,0.5,30,183.32
2285,F3,960.0,0.5,38,183.32
2286,C4,960.5,0.5,28,183.32
2287,G3,961.0,0.5,43,183.32
2288,C5,961.5,0.5,56,183.32
2289,C4,961.5,0.5,38,183.32
2290,F5,962.0,1.0,62,183.32
2291,A3,962.0,0.5,51,183.32
2292,C4,962.5,0.5,41,183.32
2293,F5,963.0,3.0,63,183.32
2294,G3,963.0,0.5,53,183.32
2295,C4,963.5,0.5,40,183.32
2296,A3,964.0,0.5,45,183.32
2297,C4,964.5,0.5,35,183.32
2298,B-3,965.0,0.5,40,183.32
2299,C4,965.5,0.5,33,183.32
2300,E5,966.0,1.0,57,183.32
2301,G3,966.0,0.5,39,183.32
2302,C4,966.5,0.5,33,183.32
2303,A3,967.0,0.5,41,183.32
2304,C4,967.5,0.5,33,183.32
2305,B-3,968.0,0.5,41,183.32
2306,C4,968.5,0.5,33,183.32
2307,C5,969.0,3.0,51,183.32
2308,E3,969.0,0.5,40,183.32
2309,C4,969.5,0.5,28,183.32
2310,G3,970.0,0.5,33,183.32
2311,C4,970.5,0.5,27,183.32
2312,F3,971.0,0.5,33,183.32
2313,C4,971.5,0.5,30,183.32
2314,C5,972.0,0.5,61,183.32
2315,E3,972.0,0.5,38,183.32
2316,D5,972.5,0.167,57,183.32
2317,C4,972.5,0.5,28,183.32
2318,C5,972.667,0.167,52,183.32
2319,B4,972.833,0.167,52,183.32
2320,C5,973.0,0.5,61,183.32
2321,F3,973.0,0.5,47,183.32
2322,G5,973.5,0.5,71,183.32
2323,C4,973.5,0.5,41,183.32
2324,B-5,974.0,1.0,76,183.32
2325,G3,974.0,0.5,49,183.32
2326,C4,974.5,0.5,40,183.32
2327,B-5,975.0,3.0,78,183.32
2328,F3,975.0,0.5,54,183.32
2329,C4,975.5,0.5,43,183.32
2330,G3,976.0,0.5,45,183.32
2331,C4,976.5,0.5,37,183.32
2332,A3,977.0,0.5,46,183.32
2333,C4,977.5,0.5,33,183.32
2334,A5,978.0,1.0,69,183.32
2335,F3,978.0,0.5,44,183.32
2336,C4,978.5,0.5,39,183.32
2337,G3,979.029,0.5,41,183.32
2338,C4,979.5,0.5,33,183.32
2339,A3,980.0,0.5,41,183.32
2340,C4,980.5,0.5,33,183.32
2341,A4,981.0,0.25,56,183.32
2342,F3,981.0,0.5,40,183.32
2343,B-4,981.5,0.25,58,183.32
2344,C4,981.5,0.5,28,183.32
2345,C5,982.0,0.25,60,183.32
2346,A3,982.0,0.5,33,183.32
2347,D5,982.5,0.25,62,183.32
2348,C4,982.5,0.5,27,183.32
2349,E5,983.0,0.25,64,183.32
2350,F3,983.0,0.5,34,183.32
2351,F5,983.5,0.25,65,183.32
2352,C4,983.5,0.5,31,183.32
2353,G5,984.0,0.25,67,183.32
2354,F3,984.0,0.5,40,183.32
2355,A5,984.5,0.25,71,183.32
2356,C4,984.5,0.5,36,183.32
2357,B-5,985.0,0.25,74,183.32
2358,A3,985.0,0.5,48,183.32
2359,C6,985.5,0.25,77,183.32
2360,C4,985.5,0.5,40,183.32
2361,D6,986.0,0.25,80,183.32
2362,F3,986.0,0.5,51,183.32
2363,E6,986.5,0.25,83,183.32
2364,C4,986.5,0.5,42,183.32
2365,F6,987.0,3.0,90,183.32
2366,G3,987.0,0.5,59,183.32
2367,C4,987.5,0.5,47,183.32
2368,B-3,988.0,0.5,46,183.32
2369,C4,988.5,0.5,38,183.32
2370,G3,989.0,0.5,46,183.32
2371,C4,989.5,0.5,37,183.32
2372,E6,990.0,1.0,71,183.32
2373,G3,990.0,0.5,44,183.32
2374,C4,990.5,0.5,37,183.32
2375,B-3,991.0,0.5,47,183.32
2376,C4,991.5,0.5,37,183.32
2377,G3,992.0,0.5,47,183.32
2378,C4,992.5,0.496,37,183.32
2379,C4,993.0,0.25,56,183.32
2380,E3,993.0,0.5,40,183.32
2381,D4,993.5,0.25,58,183.32
2382,C4,993.5,0.5,32,183.32
2383,E4,994.0,0.25,60,183.32
2384,G3,994.0,0.5,39,183.32
2385,F4,994.5,0.25,62,183.32
2386,C4,994.5,0.5,29,183.32
2387,G4,995.0,0.25,64,183.32
2388,E3,995.0,0.5,40,183.32
2389,A4,995.5,0.25,65,183.32
2390,C4,995.5,0.5,31,183.32
2391,B-4,996.0,0.25,71,183.32
2392,E3,996.0,0.5,46,183.32
2393,C5,996.5,0.25,71,183.32
2394,C4,996.5,0.5,41,183.32
2395,D5,997.0,0.25,73,183.32
2396,G3,997.0,0.5,52,183.32
2397,E5,997.5,0.25,75,183.32
2398,C4,997.5,0.5,40,183.32
2399,F5,998.0,0.25,82,183.32
2400,E3,998.0,0.5,57,183.32
2401,G5,998.5,0.25,84,183.32
2402,C4,998.5,0.5,44,183.32
2403,G#5,999.0,4.0,92,183.32
2404,F3,999.0,0.5,45,183.32
2405,C4,999.5,0.5,36,183.32
2406,G3,1000.0,0.5,49,183.32
2407,C4,1000.5,0.5,42,183.32
2408,G#3,1001.0,0.5,51,183.32
2409,C4,1001.5,0.5,44,183.32
2410,F3,1002.0,0.5,47,183.32
2411,C4,1002.5,0.5,37,183.32
2412,G5,1003.0,1.0,77,183.32
2413,G3,1003.0,0.5,41,183.32
2414,C4,1003.5,0.5,37,183.32
2415,F5,1004.0,1.0,77,183.32
2416,G#3,1004.0,0.5,41,183.32
2417,C4,1004.5,0.5,37,183.32
2418,E-5,1005.0,2.25,84,183.32
2419,G3,1005.0,0.5,51,183.32
2420,E-4,1005.5,0.5,36,183.32
2421,C4,1006.0,0.5,41,183.32
2422,E-4,1006.5,0.5,36,183.32
2423,G3,1007.0,0.5,41,183.32
2424,F5,1007.25,0.167,57,183.32
2425,E-5,1007.417,0.167,61,183.32
2426,E-4,1007.5,0.5,36,183.32
2427,D5,1007.583,0.167,65,183.32
2428,E-5,1007.75,0.25,69,183.32
2429,G5,1008.0,1.0,84,183.32
2430,G3,1008.0,0.5,47,183.32
2431,D4,1008.5,0.5,36,183.32
2432,F5,1009.0,1.0,78,183.32
2433,B3,1009.0,0.5,42,183.32
2434,D4,1009.5,0.5,34,183.32
2435,D5,1010.0,1.0,78,183.32
2436,G3,1010.0,0.5,40,183.32
2437,D4,1010.5,0.5,35,183.32
2438,C3,1011.0,0.5,60,183.32
2439,E-4,1011.0,4.5,78,183.32
2440,E-5,1011.0,4.5,78,183.32
2441,G3,1011.5,0.5,37,183.32
2442,E-3,1012.0,0.5,52,183.32
2443,G3,1012.5,0.5,36,183.32
2444,D3,1013.029,0.5,52,183.32
2445,G3,1013.5,0.5,46,183.32
2446,C3,1014.0,0.5,57,183.32
2447,G3,1014.5,0.5,46,183.32
2448,D3,1015.0,0.5,57,183.32
2449,G3,1015.5,0.5,50,183.32
2450,G4,1015.5,0.5,74,183.32
2451,G5,1015.5,0.5,74,183.32
2452,E-3,1016.0,0.5,61,183.32
2453,C5,1016.0,1.0,84,183.32
2454,C6,1016.0,1.0,84,183.32
2455,G3,1016.5,0.5,56,183.32
2456,D3,1017.0,0.5,66,183.32
2457,C5,1017.0,3.0,86,183.32
2458,C6,1017.0,3.0,86,183.32
2459,G3,1017.5,0.5,43,183.32
2460,E-3,1018.0,0.5,59,183.32
2461,G3,1018.5,0.5,51,183.32
2462,F3,1019.0,0.5,60,183.32
2463,G3,1019.5,0.5,53,183.32
2464,D3,1020.0,0.5,63,183.32
2465,B4,1020.0,1.0,74,183.32
2466,B5,1020.0,1.0,74,183.32
2467,G3,1020.5,0.5,44,183.32
2468,E-3,1021.0,0.5,54,183.32
2469,G3,1021.5,0.5,44,183.32
2470,F3,1022.0,0.5,54,183.32
2471,G3,1022.5,0.5,44,183.32
2472,B2,1023.0,0.5,54,183.32
2473,G4,1023.0,4.5,78,183.32
2474,G5,1023.0,4.5,78,183.32
2475,G3,1023.5,0.5,37,183.32
2476,D3,1024.0,0.5,44,183.32
2477,G3,1024.5,0.5,36,183.32
2478,C3,1025.0,0.5,44,183.32
2479,G3,1025.5,0.5,40,183.32
2480,B2,1026.0,0.5,51,183.32
2481,G3,1026.5,0.5,44,183.32
2482,C3,1027.0,0.5,57,183.32
2483,G3,1027.5,0.5,52,183.32
2484,D5,1027.5,0.5,74,183.32
2485,D6,1027.5,0.5,74,183.32
2486,D3,1028.0,0.5,61,183.32
2487,F5,1028.0,0.979,84,183.32
2488,F6,1028.0,0.979,84,183.32
2489,G3,1028.5,0.5,46,183.32
2490,C3,1029.0,0.5,69,183.32
2491,F5,1029.0,3.0,86,183.32
2492,F6,1029.0,3.0,86,183.32
2493,G3,1029.5,0.5,53,183.32
2494,D3,1030.0,0.5,60,183.32
2495,G3,1030.5,0.5,44,183.32
2496,E-3,1031.0,0.5,54,183.32
2497,G3,1031.5,0.5,44,183.32
2498,C3,1032.0,0.5,52,183.32
2499,E-5,1032.0,1.0,77,183.32
2500,E-6,1032.0,1.0,77,183.32
2501,G3,1032.5,0.5,44,183.32
2502,D3,1033.0,0.5,54,183.32
2503,G3,1033.5,0.5,44,183.32
2504,E-3,1034.0,0.5,54,183.32
2505,G3,1034.5,0.5,44,183.32
2506,E-4,1035.0,0.5,89,183.32
2507,C3,1035.0,0.5,54,183.32
2508,G4,1035.5,0.5,75,183.32
2509,G3,1035.5,0.5,37,183.32
2510,C5,1036.0,0.5,79,183.32
2511,E-3,1036.0,0.5,44,183.32
2512,G4,1036.5,0.5,79,183.32
2513,G3,1036.5,0.5,36,183.32
2514,C5,1037.0,0.5,83,183.32
2515,C3,1037.0,0.5,44,183.32
2516,E-5,1037.5,0.5,89,183.32
2517,G3,1037.5,0.5,40,183.32
2518,C5,1038.0,0.5,89,183.32
2519,C3,1038.0,0.5,51,183.32
2520,E-5,1038.5,0.5,77,183.32
2521,G3,1038.5,0.5,42,183.32
2522,G5,1039.0,0.5,83,183.32
2523,E-3,1039.0,0.5,51,183.32
2524,E-5,1039.5,0.5,89,183.32
2525,G3,1039.5,0.5,42,183.32
2526,G5,1040.0,0.5,83,183.32
2527,C3,1040.0,0.5,60,183.32
2528,C6,1040.5,0.479,89,183.32
2529,G3,1040.5,0.5,53,183.32
2530,C6,1041.0,3.0,98,183.32
2531,D3,1041.0,0.5,66,183.32
2532,G3,1041.5,0.5,43,183.32
2533,F3,1042.0,0.5,54,183.32
2534,G3,1042.5,0.5,45,183.32
2535,D3,1043.0,0.5,54,183.32
2536,G3,1043.5,0.5,44,183.32
2537,B5,1044.0,1.0,92,183.32
2538,D3,1044.0,0.5,52,183.32
2539,G3,1044.5,0.5,44,183.32
2540,F3,1045.0,0.5,54,183.32
2541,G3,1045.5,0.5,44,183.32
2542,D3,1046.0,0.5,54,183.32
2543,G3,1046.5,0.496,44,183.32
2544,G3,1047.0,0.5,80,183.32
2545,B2,1047.0,0.5,54,183.32
2546,B3,1047.5,0.5,67,183.32
2547,G3,1047.5,0.5,37,183.32
2548,D4,1048.0,0.5,71,183.32
2549,D3,1048.0,0.5,49,183.32
2550,B3,1048.5,0.5,71,183.32
2551,G3,1048.5,0.5,36,183.32
2552,D4,1049.0,0.5,74,183.32
2553,B2,1049.0,0.5,50,183.32
2554,G4,1049.5,0.5,80,183.32
2555,G3,1049.5,0.5,40,183.32
2556,D4,1050.0,0.5,80,183.32
2557,B2,1050.0,0.5,58,183.32
2558,G4,1050.5,0.5,69,183.32
2559,G3,1050.5,0.5,45,183.32
2560,B4,1051.0,0.5,74,183.32
2561,D3,1051.0,0.5,51,183.32
2562,G4,1051.5,0.5,80,183.32
2563,G3,1051.5,0.5,45,183.32
2564,B4,1052.0,0.5,74,183.32
2565,B2,1052.0,0.5,56,183.32
2566,D5,1052.5,0.5,80,183.32
2567,G3,1052.5,0.5,37,183.32
2568,E-5,1053.0,1.0,86,183.32
2569,C3,1053.5,0.5,43,183.32
2570,B2,1054.0,0.5,61,183.32
2571,C3,1054.5,0.5,44,183.32
2572,C6,1055.0,3.0,100,183.32
2573,B2,1055.0,0.5,63,183.32
2574,C3,1055.5,0.5,50,183.32
2575,E2,1056.0,0.5,67,183.32
2576,C3,1056.5,0.5,52,183.32
2577,F2,1057.0,0.5,57,183.32
2578,C3,1057.5,0.5,47,183.32
2579,E3,1058.0,1.0,77,183.32
2580,G2,1058.0,0.5,61,183.32
2581,C3,1058.5,0.5,44,183.32
2582,F3,1059.0,3.0,82,183.32
2583,F2,1059.0,0.5,65,183.32
2584,C3,1059.5,0.5,45,183.32
2585,G2,1060.0,0.5,57,183.32
2586,C3,1060.5,0.5,48,183.32
2587,G#2,1061.0,0.5,56,183.32
2588,C3,1061.5,0.5,50,183.32
2589,F#3,1062.0,3.0,84,183.32
2590,F#2,1062.0,0.5,67,183.32
2591,C3,1062.5,0.5,51,183.32
2592,G2,1063.0,0.5,58,183.32
2593,C3,1063.5,0.5,49,183.32
2594,A2,1064.0,0.5,60,183.32
2595,C3,1064.5,0.5,44,183.32
2596,G3,1065.0,3.0,84,183.32
2597,G2,1065.0,0.5,64,183.32
2598,E-3,1065.5,0.5,51,183.32
2599,C3,1066.0,0.5,59,183.32
2600,E-3,1066.5,0.5,50,183.32
2601,G2,1067.0,0.5,57,183.32
2602,E-3,1067.5,0.5,46,183.32
2603,F3,1068.0,0.25,84,183.32
2604,G2,1068.0,0.5,64,183.32
2605,G3,1068.25,0.25,57,183.32
2606,F3,1068.5,0.167,61,183.32
2607,D3,1068.5,0.5,46,183.32
2608,G3,1068.667,0.167,57,183.32
2609,F3,1068.833,0.167,64,183.32
2610,G3,1069.0,0.167,56,183.32
2611,B2,1069.0,0.5,58,183.32
2612,F3,1069.167,0.167,64,183.32
2613,G3,1069.333,0.167,56,183.32
2614,F3,1069.5,0.167,64,183.32
2615,D3,1069.5,0.5,47,183.32
2616,G3,1069.667,0.167,55,183.32
2617,F3,1069.833,0.167,64,183.32
2618,G3,1070.0,0.25,54,183.32
2619,G2,1070.0,0.5,56,183.32
2620,F3,1070.25,0.25,59,183.32
2621,E3,1070.5,0.25,55,183.32
2622,D3,1070.5,0.5,46,183.32
2623,F3,1070.75,0.25,57,183.32
2624,E-3,1071.0,0.5,74,183.32
2625,C2,1071.0,1.0,64,183.32
2626,C3,1071.0,1.0,64,183.32
2627,G3,1071.5,0.5,60,183.32
2628,C4,1072.0,0.5,68,183.32
2629,G3,1072.5,0.5,61,183.32
2630,C4,1073.0,0.5,69,183.32
2631,E-4,1073.5,0.5,63,183.32
2632,G4,1074.0,0.5,69,183.32
2633,E-4,1074.5,0.5,60,183.32
2634,G4,1075.0,0.5,73,183.32
2635,C5,1075.5,0.5,68,183.32
2636,E-5,1076.0,0.5,80,183.32
2637,G5,1076.5,0.5,73,183.32
2638,C6,1077.0,0.5,89,183.32
2639,E-2,1077.0,0.5,67,183.32
2640,C3,1077.5,0.5,45,183.32
2641,F2,1078.0,0.5,50,183.32
2642,C3,1078.5,0.5,47,183.32
2643,C4,1079.0,3.0,84,183.32
2644,G2,1079.0,0.5,56,183.32
2645,C3,1079.5,0.5,50,183.32
2646,E2,1080.0,0.5,67,183.32
2647,C3,1080.5,0.5,45,183.32
2648,F2,1081.0,0.5,61,183.32
2649,C3,1081.5,0.5,47,183.32
2650,E3,1082.0,1.0,81,183.32
2651,G2,1082.0,0.5,60,183.32
2652,C3,1082.5,0.5,44,183.32
2653,F3,1083.0,2.0,84,183.32
2654,F2,1083.0,0.5,65,183.32
2655,C3,1083.5,0.5,45,183.32
2656,G2,1084.0,0.5,57,183.32
2657,C3,1084.5,0.5,42,183.32
2658,C4,1085.0,1.0,84,183.32
2659,G#2,1085.0,0.5,58,183.32
2660,C3,1085.5,0.5,45,183.32
2661,F#3,1086.0,2.0,92,183.32
2662,F#2,1086.0,0.5,67,183.32
2663,C3,1086.5,0.5,51,183.32
2664,G2,1087.0,0.5,58,183.32
2665,C3,1087.5,0.5,47,183.32
2666,C4,1088.0,1.0,84,183.32
2667,A2,1088.0,0.5,58,183.32
2668,C3,1088.5,0.5,44,183.32
2669,G3,1089.0,0.5,88,183.32
2670,G2,1089.0,0.5,67,183.32
2671,C4,1089.5,0.5,62,183.32
2672,C3,1089.5,0.5,51,183.32
2673,B3,1090.0,0.5,74,183.32
2674,B2,1090.0,0.5,57,183.32
2675,C4,1090.5,0.5,62,183.32
2676,C3,1090.5,0.5,48,183.32
2677,G3,1091.0,0.5,72,183.32
2678,G2,1091.0,0.5,61,183.32
2679,C4,1091.5,0.5,62,183.32
2680,C3,1091.5,0.5,50,183.32
2681,G#3,1092.0,0.5,82,183.32
2682,G#2,1092.0,0.5,71,183.32
2683,C4,1092.5,0.5,62,183.32
2684,C3,1092.5,0.5,56,183.32
2685,B3,1093.0,0.5,73,183.32
2686,B2,1093.0,0.5,64,183.32
2687,C4,1093.5,0.5,64,183.32
2688,C3,1093.5,0.5,55,183.32
2689,F#3,1094.0,0.5,73,183.32
2690,F#2,1094.0,0.5,65,183.32
2691,C4,1094.5,0.5,62,183.32
2692,C3,1094.5,0.5,54,183.32
2693,G3,1095.0,0.5,88,183.32
2694,G2,1095.0,0.5,77,183.32
2695,C4,1095.5,0.5,63,183.32
2696,C3,1095.5,0.5,58,183.32
2697,B3,1096.0,0.5,73,183.32
2698,B2,1096.0,0.5,68,183.32
2699,C4,1096.5,0.5,62,183.32
2700,C3,1096.5,0.5,54,183.32
2701,E3,1097.0,0.5,74,183.32
2702,E2,1097.0,0.5,65,183.32
2703,C4,1097.5,0.5,65,183.32
2704,C3,1097.5,0.5,50,183.32
2705,F3,1098.0,0.5,88,183.32
2706,F2,1098.0,0.5,77,183.32
2707,C4,1098.5,0.5,64,183.32
2708,C3,1098.5,0.5,51,183.32
2709,G#3,1099.0,0.5,71,183.32
2710,G#2,1099.0,0.5,63,183.32
2711,C4,1099.5,0.5,65,183.32
2712,C3,1099.5,0.5,58,183.32
2713,F#3,1100.0,0.5,80,183.32
2714,F#2,1100.0,0.5,71,183.32
2715,C4,1100.5,0.5,72,183.32
2716,C3,1100.5,0.5,65,183.32
2717,G3,1101.0,1.0,93,183.32
2718,G2,1101.0,1.0,82,183.32
2719,G3,1102.0,0.25,80,183.32
2720,C4,1102.0,0.25,80,183.32
2721,E-4,1102.0,0.25,80,183.32
2722,G4,1102.75,0.25,81,183.32
2723,E-5,1103.0,0.75,87,183.32
2724,C5,1103.75,0.25,84,183.32
2725,F#5,1104.0,0.25,93,183.32
2726,C4,1105.0,0.25,80,183.32
2727,G#3,1105.0,0.25,80,183.32
2728,E-4,1105.0,0.25,80,183.32
2729,F#4,1105.75,0.25,81,183.32
2730,E-5,1106.0,0.75,87,183.32
2731,C5,1106.75,0.25,84,183.32
2732,G5,1107.0,0.25,93,183.32
2733,E-4,1108.0,0.25,80,183.32
2734,G3,1108.0,0.25,80,183.32
2735,C4,1108.0,0.25,80,183.32
2736,G4,1108.75,0.25,81,183.32
2737,E-5,1109.0,0.75,87,183.32
2738,C5,1109.75,0.25,84,183.32
2739,A5,1110.0,0.25,93,183.32
2740,E-4,1111.0,0.25,80,183.32
2741,C4,1111.0,0.25,80,183.32
2742,F#3,1111.0,0.25,80,183.32
2743,A4,1111.75,0.25,81,183.32
2744,E-5,1112.0,0.75,87,183.32
2745,C5,1112.75,0.25,84,183.32
2746,G5,1113.0,1.5,95,183.32
2747,G3,1114.0,0.25,80,183.32
2748,E-4,1114.0,0.25,80,183.32
2749,C4,1114.0,0.25,80,183.32
2750,E-5,1114.5,0.5,85,183.32
2751,E-5,1115.0,0.5,93,183.32
2752,C5,1115.5,0.375,79,183.32
2753,C5,1116.0,0.5,88,183.32
2754,G4,1116.5,0.375,78,183.32
2755,G4,1117.0,0.5,85,183.32
2756,E-4,1117.5,0.375,77,183.32
2757,E-4,1118.0,0.5,81,183.32
2758,C4,1118.5,0.375,77,183.32
2759,C4,1119.0,0.5,81,183.32
2760,G3,1119.5,0.375,77,183.32
2761,G3,1120.0,0.5,82,183.32
2762,E-3,1120.5,0.375,77,183.32
2763,E-3,1121.0,0.5,83,183.32
2764,C3,1121.5,0.375,77,183.32
2765,G2,1122.0,3.0,85,183.32
2766,G1,1122.0,3.0,85,183.32
2767,G3,1124.0,1.0,72,183.32
2768,B3,1124.0,1.0,72,183.32
2769,F3,1124.0,1.0,64,183.32
2770,D3,1124.0,1.0,64,183.32
2771,G3,1125.0,1.0,76,183.32
2772,C4,1125.0,1.0,76,183.32
2773,E-3,1125.0,1.0,73,183.32
2774,C2,1125.0,1.0,73,183.32
2775,G2,1126.0,5.0,51,183.32
2776,F#2,1127.0,1.0,51,183.32
2777,F2,1128.0,1.0,51,183.32
2778,E-2,1129.0,1.0,49,183.32
2779,G4,1129.0,1.0,45,183.32
2780,D4,1129.0,1.0,45,183.32
2781,F4,1129.0,1.0,45,183.32
2782,B3,1129.0,1.0,45,183.32
2783,D2,1130.0,1.0,49,183.32
2784,B3,1130.0,1.0,40,183.32
2785,D4,1130.0,1.0,40,183.32
2786,F4,1130.0,1.0,40,183.32
2787,G4,1130.0,1.0,40,183.32
2788,G#4,1131.0,1.0,53,183.32
2789,C2,1131.0,1.0,51,183.32
2790,C4,1131.0,2.0,42,183.32
2791,E-4,1131.0,2.0,42,183.32
2792,G4,1132.0,1.0,49,183.32
2793,E-2,1132.0,1.0,47,183.32
2794,G2,1133.0,1.0,47,183.32
2795,G1,1134.0,1.0,51,183.32
2796,D2,1135.0,1.0,48,183.32
2797,D4,1135.0,1.0,46,183.32
2798,F4,1135.0,1.0,46,183.32
2799,B4,1135.0,1.0,46,183.32
2800,G2,1136.0,1.0,48,183.32
2801,D4,1136.0,1.0,41,183.32
2802,F4,1136.0,1.0,41,183.32
2803,B4,1136.0,1.0,41,183.32
2804,D5,1137.0,1.0,53,183.32
2805,C2,1137.0,1.0,67,183.32
2806,E-4,1137.0,2.0,42,183.32
2807,G4,1137.0,2.0,42,183.32
2808,C5,1138.0,1.0,49,183.32
2809,G2,1138.0,5.0,51,183.32
2810,F#2,1139.0,1.0,51,183.32
2811,F2,1140.0,1.0,51,183.32
2812,E-2,1141.0,1.0,49,183.32
2813,B3,1141.0,1.0,45,183.32
2814,D4,1141.0,1.0,45,183.32
2815,F4,1141.0,1.0,45,183.32
2816,G4,1141.0,1.0,45,183.32
2817,D2,1142.0,1.0,49,183.32
2818,G4,1142.0,1.0,40,183.32
2819,D4,1142.0,1.0,40,183.32
2820,F4,1142.0,1.0,40,183.32
2821,B3,1142.0,1.0,40,183.32
2822,G#4,1143.0,1.0,53,183.32
2823,C2,1143.0,1.0,51,183.32
2824,C4,1143.0,2.0,42,183.32
2825,E-4,1143.0,2.0,42,183.32
2826,G4,1144.0,1.0,49,183.32
2827,E-2,1144.0,1.0,47,183.32
2828,G2,1145.0,1.0,47,183.32
2829,G1,1146.0,1.0,51,183.32
2830,D2,1147.0,1.0,48,183.32
2831,D3,1147.0,1.0,46,183.32
2832,F3,1147.0,1.0,46,183.32
2833,B3,1147.0,1.0,46,183.32
2834,G2,1148.0,1.0,48,183.32
2835,D3,1148.0,1.0,41,183.32
2836,F3,1148.0,1.0,41,183.32
2837,B3,1148.0,1.0,41,183.32
2838,D4,1149.0,1.0,53,183.32
2839,C2,1149.0,1.0,51,183.32
2840,E-3,1149.0,2.0,42,183.32
2841,G3,1149.0,2.0,42,183.32
2842,C4,1150.0,1.0,49,183.32
2843,E-2,1150.0,1.0,47,183.32
2844,G2,1151.0,1.0,47,183.32
2845,G1,1152.0,1.0,51,183.32
2846,D2,1153.0,1.0,48,183.32
2847,D3,1153.0,1.0,46,183.32
2848,F3,1153.0,1.0,46,183.32
2849,B3,1153.0,1.0,46,183.32
2850,G2,1154.0,1.0,48,183.32
2851,D3,1154.0,1.0,41,183.32
2852,F3,1154.0,1.0,41,183.32
2853,B3,1154.0,1.0,41,183.32
2854,C2,1155.0,1.0,51,183.32
2855,E-3,1155.0,1.0,46,183.32
2856,G3,1155.0,1.0,46,183.32
2857,C4,1155.0,1.0,46,183.32
2858,G4,1158.0,1.0,86,183.32
2859,B4,1158.0,1.0,86,183.32
2860,D5,1158.0,1.0,86,183.32
2861,G5,1158.0,1.0,86,183.32
2862,G1,1158.0,1.0,63,183.32
2863,B1,1158.0,1.0,63,183.32
2864,D2,1158.0,1.0,63,183.32
2865,G2,1158.0,1.0,63,183.32
2866,C4,1161.0,1.0,86,183.32
2867,E-4,1161.0,1.0,86,183.32
2868,G4,1161.0,1.0,86,183.32
2869,C5,1161.0,1.0,86,183.32
2870,C2,1161.0,1.0,63,183.32
2871,E-2,1161.0,1.0,63,183.32
2872,G2,1161.0,1.0,63,183.32
2873,C3,1161.0,1.0,63,183.32
,note_name,start_time,duration,velocity,tempo
0,C4,0.0,2.0,42,68.5
1,G#4,0.0,1.5,50,68.5
2,G#2,0.0,2.0,29,68.5
3,E-3,0.0,2.0,29,68.5
4,G#3,0.0,2.0,29,68.5
5,B-4,1.5,0.125,50,68.5
6,G#4,1.625,0.125,46,68.5
7,G4,1.75,0.125,46,68.5
8,G#4,1.875,0.125,46,68.5
9,C5,2.0,1.5,54,68.5
10,C#4,2.0,2.0,45,68.5
11,G2,2.0,2.0,26,68.5
12,E-3,2.0,2.0,26,68.5
13,G3,2.0,2.0,26,68.5
14,B-4,3.5,0.5,45,68.5
15,C4,4.0,3.0,46,68.5
16,G#4,4.0,3.0,46,68.5
17,G#2,4.0,3.0,32,68.5
18,E-3,4.0,3.0,32,68.5
19,G#3,4.0,3.0,32,68.5
20,A4,7.0,1.0,50,68.5
21,E-4,8.0,2.0,42,68.5
22,B-4,8.0,1.0,50,68.5
23,G3,8.0,2.0,27,68.5
24,C#4,8.0,1.0,32,68.5
25,B-3,9.0,1.0,32,68.5
26,C5,9.5,0.125,50,68.5
27,B-4,9.625,0.125,46,68.5
28,A4,9.75,0.125,46,68.5
29,B-4,9.875,0.125,46,68.5
30,C#5,10.0,1.5,54,68.5
31,E-4,10.0,1.0,45,68.5
32,G#3,10.0,2.0,29,68.5
33,G#4,11.0,1.0,42,68.5
34,C4,11.0,1.0,32,68.5
35,C5,11.5,0.5,45,68.5
36,G4,12.0,3.0,46,68.5
37,B-4,12.0,3.0,46,68.5
38,E-3,12.0,3.0,33,68.5
39,E-4,12.0,3.0,33,68.5
40,B4,15.0,1.0,50,68.5
41,C5,16.0,1.75,63,68.5
42,E-4,16.0,2.0,63,68.5
43,G#3,16.0,2.0,32,68.5
44,G#4,17.75,0.25,52,68.5
45,E-5,18.0,1.75,64,68.5
46,G#4,18.0,2.0,60,68.5
47,E-4,18.0,2.0,60,68.5
48,C3,18.0,2.0,37,68.5
49,C4,18.0,2.0,37,68.5
50,G#3,18.0,2.0,37,68.5
51,C5,19.75,0.25,60,68.5
52,F5,20.0,1.75,70,68.5
53,F4,20.0,2.0,60,68.5
54,G#4,20.0,2.0,60,68.5
55,C#3,20.0,2.0,45,68.5
56,G#3,20.0,2.0,45,68.5
57,C#4,20.0,2.0,45,68.5
58,C#5,21.75,0.25,67,68.5
59,F3,22.0,3.938,43,68.5
60,G#3,22.0,3.938,43,68.5
61,C#4,22.125,3.812,51,68.5
62,F4,22.125,3.812,51,68.5
63,G#4,22.25,3.688,72,68.5
64,C#5,22.25,3.688,72,68.5
65,F5,22.375,1.625,78,68.5
66,G#5,22.438,2.062,82,68.5
67,G5,24.5,0.458,63,68.5
68,F5,25.0,0.458,59,68.5
69,E-5,25.5,0.458,56,68.5
70,B-4,26.0,1.0,56,68.5
71,C#5,26.0,1.0,56,68.5
72,G3,26.0,1.0,34,68.5
73,E-4,26.0,1.0,34,68.5
74,G#4,27.0,1.0,48,68.5
75,C5,27.0,1.0,48,68.5
76,E-4,27.0,1.0,31,68.5
77,G#3,27.0,1.0,31,68.5
78,E-4,28.0,1.0,46,68.5
79,E-5,28.0,1.5,55,68.5
80,C4,28.0,1.5,37,68.5
81,E-3,28.0,2.0,31,68.5
82,E-4,29.0,1.0,39,68.5
83,C5,29.5,0.5,51,68.5
84,G#3,29.5,0.5,31,68.5
85,E-4,30.0,1.0,45,68.5
86,B-4,30.0,1.0,53,68.5
87,E-3,30.0,1.0,28,68.5
88,G3,30.0,1.0,28,68.5
89,C5,30.062,1.0,48,68.5
90,B-4,30.062,1.0,48,68.5
91,C5,30.188,0.062,45,68.5
92,B-4,30.25,0.083,51,68.5
93,A4,30.333,0.083,46,68.5
94,B-4,30.417,0.083,46,68.5
95,C#5,30.5,0.25,57,68.5
96,C5,30.75,0.25,48,68.5
97,E-5,31.0,0.25,55,68.5
98,C#5,31.25,0.25,47,68.5
99,C5,31.5,0.167,51,68.5
100,C#5,31.667,0.167,47,68.5
101,B-4,31.833,0.167,47,68.5
102,C4,32.0,2.0,34,68.5
103,G#4,32.0,1.5,50,68.5
104,G#2,32.0,2.0,36,68.5
105,E-3,32.5,0.475,28,68.5
106,E-3,33.0,0.475,29,68.5
107,B-4,33.5,0.125,50,68.5
108,E-3,33.5,0.5,29,68.5
109,G#4,33.625,0.125,46,68.5
110,G4,33.75,0.125,46,68.5
111,G#4,33.875,0.125,46,68.5
112,C5,34.0,1.5,54,68.5
113,C#4,34.0,2.0,45,68.5
114,G2,34.0,2.0,36,68.5
115,E-3,34.5,0.475,28,68.5
116,E-3,35.0,0.475,28,68.5
117,B-4,35.5,0.5,45,68.5
118,E-3,35.5,0.5,28,68.5
119,G#2,36.0,0.5,36,68.5
120,C4,36.0,2.0,46,68.5
121,G#4,36.0,2.0,46,68.5
122,E-3,36.5,0.5,32,68.5
123,C3,37.0,0.5,36,68.5
124,G#3,37.5,0.5,32,68.5
125,E-3,38.0,0.5,40,68.5
126,C4,38.5,0.5,36,68.5
127,G#3,39.0,0.5,47,68.5
128,E-4,39.5,0.5,36,68.5
129,B-4,40.0,1.0,59,68.5
130,G3,40.0,2.0,45,68.5
131,E-4,40.5,0.475,29,68.5
132,E-4,41.0,0.475,29,68.5
133,C5,41.5,0.125,54,68.5
134,E-4,41.5,0.5,29,68.5
135,B-4,41.625,0.125,46,68.5
136,A4,41.75,0.125,49,68.5
137,B-4,41.875,0.125,50,68.5
138,C#5,42.0,1.5,62,68.5
139,G#4,42.0,2.0,62,68.5
140,G#3,42.0,2.0,36,68.5
141,E-4,42.5,0.475,29,68.5
142,E-4,43.0,0.475,29,68.5
143,C5,43.5,0.5,50,68.5
144,E-4,43.5,0.5,29,68.5
145,E-3,44.0,0.5,41,68.5
146,G4,44.0,2.0,57,68.5
147,B-4,44.0,2.0,57,68.5
148,E-4,44.5,0.5,32,68.5
149,D4,45.0,0.5,33,68.5
150,E-4,45.5,0.5,33,68.5
151,D4,46.0,0.5,36,68.5
152,E-4,46.5,0.5,31,68.5
153,F4,47.0,0.5,36,68.5
154,C#4,47.5,0.5,33,68.5
155,E-4,47.938,0.188,36,68.5
156,C5,48.0,1.75,63,68.5
157,G#3,48.5,0.5,32,68.5
158,C4,49.0,0.5,32,68.5
159,E-4,49.5,0.417,29,68.5
160,G#4,49.75,0.25,52,68.5
161,E-4,49.938,0.25,43,68.5
162,E-5,50.0,1.75,64,68.5
163,C3,50.5,0.5,32,68.5
164,E-3,51.0,0.5,32,68.5
165,G#3,51.5,0.5,30,68.5
166,C5,51.75,0.125,60,68.5
167,F4,51.938,0.188,44,68.5
168,F5,52.0,3.0,73,68.5
169,C#3,52.5,3.5,38,68.5
170,F3,52.5,0.525,38,68.5
171,G3,53.0,0.525,42,68.5
172,G#3,53.5,0.525,45,68.5
173,A3,54.0,0.525,49,68.5
174,B-3,54.5,0.525,52,68.5
175,C4,55.0,0.525,48,68.5
176,A4,55.0,0.5,64,68.5
177,E-5,55.0,0.5,64,68.5
178,C#4,55.5,0.525,51,68.5
179,B-4,55.5,0.5,57,68.5
180,C#5,55.5,0.5,57,68.5
181,G#4,56.0,2.0,59,68.5
182,C5,56.0,1.0,70,68.5
183,E-3,56.0,2.0,32,68.5
184,E-4,56.0,0.5,51,68.5
185,D4,56.5,0.5,45,68.5
186,E-5,57.0,1.0,63,68.5
187,C#4,57.0,0.5,46,68.5
188,C4,57.5,0.5,46,68.5
189,G4,58.0,2.0,59,68.5
190,C#5,58.0,1.0,70,68.5
191,E-3,58.0,2.0,32,68.5
192,B-3,58.0,0.5,51,68.5
193,C4,58.5,0.5,44,68.5
194,B-4,59.0,1.0,60,68.5
195,C#4,59.0,0.5,44,68.5
196,G3,59.5,0.479,44,68.5
197,C#4,60.0,1.0,59,68.5
198,B-4,60.0,2.0,70,68.5
199,G#2,60.0,3.0,32,68.5
200,G3,60.0,2.0,51,68.5
201,C4,61.0,0.25,34,68.5
202,C#4,61.25,0.25,32,68.5
203,E-4,61.5,0.25,36,68.5
204,C#4,61.75,0.25,31,68.5
205,G#3,62.0,1.0,31,68.5
206,C4,62.0,1.0,41,68.5
207,G#4,62.0,1.0,41,68.5
208,F5,63.938,0.188,78,68.5
209,F6,64.0,1.5,91,68.5
210,E-4,64.0,2.0,76,68.5
211,F4,64.0,2.0,76,68.5
212,C4,64.0,2.0,76,68.5
213,A3,64.0,2.0,76,68.5
214,E-6,65.5,0.073,65,68.5
215,C6,65.571,0.073,63,68.5
216,A5,65.644,0.071,62,68.5
217,F5,65.715,0.071,61,68.5
218,E-5,65.785,0.073,59,68.5
219,C5,65.856,0.073,57,68.5
220,A4,65.927,0.073,56,68.5
221,F4,66.0,0.5,78,68.5
222,C4,67.75,0.229,50,68.5
223,E-4,67.75,0.229,50,68.5
224,A2,67.75,0.229,33,68.5
225,F3,67.75,0.229,33,68.5
226,C4,68.0,2.0,52,68.5
227,E-4,68.0,2.0,52,68.5
228,B-2,68.0,3.0,38,68.5
229,F3,68.0,3.0,38,68.5
230,B-3,70.0,1.0,42,68.5
231,C#4,70.0,1.0,42,68.5
232,E-5,71.938,0.188,78,68.5
233,E-6,72.0,1.5,91,68.5
234,C#4,72.0,2.0,76,68.5
235,E-4,72.0,2.0,76,68.5
236,B-3,72.0,2.0,76,68.5
237,G3,72.0,2.0,76,68.5
238,C#6,73.5,0.073,65,68.5
239,B-5,73.571,0.073,63,68.5
240,G5,73.644,0.071,62,68.5
241,E-5,73.715,0.071,61,68.5
242,C#5,73.785,0.073,59,68.5
243,B-4,73.856,0.073,57,68.5
244,G4,73.927,0.073,56,68.5
245,E-4,74.0,0.5,78,68.5
246,B-3,75.75,0.229,50,68.5
247,C#4,75.75,0.229,50,68.5
248,G2,75.75,0.229,33,68.5
249,E-3,75.75,0.229,33,68.5
250,B-3,76.0,2.0,52,68.5
251,C#4,76.0,2.0,52,68.5
252,G#2,76.0,3.0,38,68.5
253,E-3,76.0,3.0,38,68.5
254,G#3,78.0,1.0,42,68.5
255,C4,78.0,1.0,42,68.5
256,B2,79.938,0.188,89,68.5
257,B3,80.0,1.5,92,68.5
258,B3,81.5,0.083,59,68.5
259,G#3,81.583,0.083,57,68.5
260,E-3,81.669,0.083,56,68.5
261,B2,81.75,0.083,56,68.5
262,G#2,81.835,0.083,55,68.5
263,E-2,81.919,0.083,53,68.5
264,B1,82.0,0.5,91,68.5
265,E-3,83.75,0.229,69,68.5
266,G#3,83.75,0.229,69,68.5
267,E-4,83.75,0.229,69,68.5
268,B1,83.75,0.229,46,68.5
269,B2,83.75,0.229,46,68.5
270,E-4,84.0,2.0,83,68.5
271,G#3,84.0,3.0,59,68.5
272,F3,84.0,3.0,59,68.5
273,B-1,84.0,3.0,59,68.5
274,B-2,84.0,3.0,59,68.5
275,D4,86.0,0.5,46,68.5
276,E4,86.5,0.525,46,68.5
277,F4,87.0,0.5,54,68.5
278,A4,87.5,0.525,46,68.5
279,B-4,88.0,0.5,54,68.5
280,C#5,88.5,0.525,46,68.5
281,D5,89.0,0.5,55,68.5
282,E5,89.5,0.525,46,68.5
283,F5,90.0,0.5,55,68.5
284,G5,90.5,0.525,46,68.5
285,G#5,91.0,0.5,55,68.5
286,F5,91.5,0.5,46,68.5
287,D5,92.0,2.5,55,68.5
288,B-3,92.0,0.95,32,68.5
289,G#3,92.0,0.95,32,68.5
290,B-3,93.0,0.95,28,68.5
291,G#3,93.0,0.95,28,68.5
292,B-3,94.0,0.95,28,68.5
293,G#3,94.0,0.95,28,68.5
294,E-5,94.5,0.125,50,68.5
295,D5,94.625,0.125,50,68.5
296,C5,94.75,0.125,50,68.5
297,D5,94.875,0.125,50,68.5
298,E-5,95.0,0.75,55,68.5
299,B-3,95.0,0.95,28,68.5
300,G#3,95.0,0.95,28,68.5
301,F5,95.75,0.229,55,68.5
302,F5,96.0,1.0,55,68.5
303,B-3,96.0,0.95,32,68.5
304,G3,96.0,0.95,32,68.5
305,E-5,97.0,2.0,55,68.5
306,B-3,97.0,0.95,26,68.5
307,G3,97.0,0.95,26,68.5
308,B-3,98.0,0.95,26,68.5
309,G3,98.0,0.95,26,68.5
310,E5,99.0,1.0,55,68.5
311,B-3,99.0,0.95,26,68.5
312,G3,99.0,0.95,26,68.5
313,F5,100.0,2.5,55,68.5
314,D3,100.0,0.95,31,68.5
315,B-3,100.0,0.95,31,68.5
316,G#3,100.0,0.95,31,68.5
317,D3,101.0,0.95,29,68.5
318,B-3,101.0,0.95,29,68.5
319,G#3,101.0,0.95,29,68.5
320,D3,102.0,0.95,29,68.5
321,B-3,102.0,0.95,29,68.5
322,G#3,102.0,0.95,29,68.5
323,G5,102.5,0.125,50,68.5
324,F5,102.625,0.125,47,68.5
325,E-5,102.75,0.125,49,68.5
326,F5,102.875,0.125,51,68.5
327,G5,103.0,0.75,53,68.5
328,G3,103.0,0.75,46,68.5
329,D3,103.0,1.0,28,68.5
330,B-3,103.0,1.0,28,68.5
331,G#5,103.75,0.229,60,68.5
332,F3,103.75,0.229,46,68.5
333,G#5,104.0,1.0,58,68.5
334,E-3,104.0,0.95,31,68.5
335,B-3,104.0,0.95,31,68.5
336,F#3,104.0,0.95,31,68.5
337,G5,105.0,1.0,55,68.5
338,E-3,105.0,0.95,25,68.5
339,B-3,105.0,0.95,25,68.5
340,G3,105.0,0.95,25,68.5
341,E-3,106.0,0.95,25,68.5
342,B-3,106.0,0.95,25,68.5
343,G3,106.0,0.95,25,68.5
344,E-3,107.0,0.95,26,68.5
345,B-3,107.0,0.95,26,68.5
346,G3,107.0,0.95,26,68.5
347,G#3,108.0,0.95,28,68.5
348,B-3,108.0,0.95,28,68.5
349,D4,108.083,0.083,30,68.5
350,E-4,108.169,0.083,30,68.5
351,F4,108.252,0.083,41,68.5
352,E-4,108.335,0.083,33,68.5
353,D4,108.419,0.083,33,68.5
354,G#4,108.502,0.083,42,68.5
355,G4,108.585,0.083,34,68.5
356,F4,108.669,0.083,34,68.5
357,D5,108.754,0.083,51,68.5
358,C5,108.838,0.083,37,68.5
359,B-4,108.921,0.083,36,68.5
360,F5,109.0,0.083,57,68.5
361,G#3,109.0,0.95,28,68.5
362,B-3,109.0,0.95,28,68.5
363,E-5,109.083,0.083,41,68.5
364,D5,109.167,0.083,44,68.5
365,G#5,109.25,0.083,59,68.5
366,G5,109.333,0.083,46,68.5
367,F5,109.417,0.083,48,68.5
368,C6,109.5,2.0,70,68.5
369,G#3,110.0,0.95,28,68.5
370,B-3,110.0,0.95,28,68.5
371,G#3,111.0,0.95,28,68.5
372,B-3,111.0,0.95,28,68.5
373,C6,111.5,0.071,54,68.5
374,B-5,111.571,0.071,53,68.5
375,G#5,111.644,0.071,52,68.5
376,G5,111.715,0.071,52,68.5
377,F5,111.785,0.071,51,68.5
378,E-5,111.856,0.071,50,68.5
379,D5,111.927,0.071,49,68.5
380,F5,112.0,0.75,56,68.5
381,E-5,112.75,0.25,40,68.5
382,D5,113.0,0.375,43,68.5
383,G3,113.0,0.95,28,68.5
384,B-3,113.0,0.95,28,68.5
385,E-5,113.375,0.125,40,68.5
386,F5,113.5,0.375,47,68.5
387,E-5,113.875,0.125,41,68.5
388,E-4,114.0,1.0,52,68.5
389,G3,114.0,0.95,28,68.5
390,B-3,114.0,0.95,28,68.5
391,G3,115.0,0.95,28,68.5
392,B-3,115.0,0.95,28,68.5
393,D3,116.0,0.95,27,68.5
394,G#3,116.0,0.95,27,68.5
395,B-3,116.0,0.95,27,68.5
396,F4,116.083,0.083,30,68.5
397,G4,116.169,0.083,30,68.5
398,G#4,116.252,0.083,41,68.5
399,G4,116.335,0.083,33,68.5
400,F4,116.419,0.083,33,68.5
401,D5,116.502,0.083,42,68.5
402,C5,116.585,0.083,34,68.5
403,B-4,116.669,0.083,34,68.5
404,F5,116.754,0.083,51,68.5
405,E-5,116.838,0.083,37,68.5
406,D5,116.921,0.083,36,68.5
407,G#5,117.0,0.083,57,68.5
408,D3,117.0,0.95,26,68.5
409,F3,117.0,0.95,26,68.5
410,G#3,117.0,0.95,26,68.5
411,B-3,117.0,0.95,26,68.5
412,G5,117.083,0.083,41,68.5
413,F5,117.167,0.083,44,68.5
414,D6,117.25,0.083,59,68.5
415,C6,117.333,0.083,46,68.5
416,B-5,117.417,0.083,48,68.5
417,F6,117.5,2.0,69,68.5
418,D3,118.0,0.95,26,68.5
419,F3,118.0,0.95,26,68.5
420,G#3,118.0,0.95,26,68.5
421,B-3,118.0,0.95,26,68.5
422,D3,119.0,0.95,26,68.5
423,F3,119.0,0.95,26,68.5
424,G#3,119.0,0.95,26,68.5
425,B-3,119.0,0.95,26,68.5
426,F6,119.5,0.081,54,68.5
427,E-6,119.581,0.081,53,68.5
428,D6,119.662,0.081,52,68.5
429,C6,119.744,0.081,52,68.5
430,B-5,119.825,0.081,51,68.5
431,G#5,119.906,0.081,50,68.5
432,G5,120.0,1.5,62,68.5
433,E-3,121.0,1.0,30,68.5
434,G3,121.0,1.0,30,68.5
435,B-3,121.0,1.0,30,68.5
436,G5,121.75,0.25,64,68.5
437,G#5,122.0,1.5,71,68.5
438,F3,123.0,1.0,32,68.5
439,G#3,123.0,1.0,32,68.5
440,B-3,123.0,1.0,32,68.5
441,D4,123.0,1.0,32,68.5
442,G#5,123.75,0.25,71,68.5
443,B-5,124.0,1.5,81,68.5
444,G3,125.0,1.0,37,68.5
445,B-3,125.0,1.0,37,68.5
446,E-4,125.0,1.0,37,68.5
447,B-5,125.75,0.25,78,68.5
448,B5,126.0,1.5,89,68.5
449,G3,127.0,1.0,43,68.5
450,B3,127.0,1.0,43,68.5
451,E-4,127.0,1.0,43,68.5
452,B5,127.75,0.25,84,68.5
453,C6,128.0,1.5,92,68.5
454,G#3,129.0,1.0,51,68.5
455,C4,129.0,1.0,51,68.5
456,E-4,129.0,1.0,51,68.5
457,C6,129.75,0.25,90,68.5
458,D6,130.0,1.5,96,68.5
459,B3,131.0,1.0,60,68.5
460,G#3,131.0,1.0,60,68.5
461,D4,131.0,1.0,60,68.5
462,F4,131.0,1.0,60,68.5
463,D6,131.75,0.25,99,68.5
464,E-6,132.0,1.5,103,68.5
465,A3,133.0,1.0,60,68.5
466,C4,133.0,1.0,60,68.5
467,E-4,133.0,1.0,60,68.5
468,F#4,133.0,1.0,60,68.5
469,F6,133.75,1.0,94,68.5
470,E-6,133.75,1.0,94,68.5
471,D6,133.875,1.0,94,68.5
472,E-6,133.875,1.0,94,68.5
473,F6,134.0,0.5,107,68.5
474,E-6,134.5,0.5,90,68.5
475,D6,135.0,0.375,74,68.5
476,C6,135.5,0.375,67,68.5
477,B-5,136.0,0.5,60,68.5
478,A5,136.5,0.5,55,68.5
479,C6,137.0,0.5,60,68.5
480,G4,137.0,1.0,31,68.5
481,E-4,137.0,1.0,31,68.5
482,B-3,137.0,1.0,31,68.5
483,B-5,137.5,0.5,55,68.5
484,G#5,138.0,0.5,60,68.5
485,G5,138.5,0.5,56,68.5
486,F5,139.0,0.5,60,68.5
487,G#4,139.0,1.0,31,68.5
488,D4,139.0,1.0,31,68.5
489,B-3,139.0,1.0,31,68.5
490,B-5,139.5,0.5,57,68.5
491,F#5,140.0,0.333,60,68.5
492,G5,140.333,0.333,51,68.5
493,G4,140.667,0.333,43,68.5
494,E-4,140.667,0.333,32,68.5
495,B-3,141.0,0.333,39,68.5
496,G5,141.333,0.333,60,68.5
497,G3,141.333,0.333,32,68.5
498,G4,141.667,0.333,52,68.5
499,E-3,141.667,0.333,32,68.5
500,G5,142.0,0.333,60,68.5
501,G#5,142.333,0.333,51,68.5
502,G#4,142.667,0.333,43,68.5
503,F4,142.667,0.333,34,68.5
504,D4,143.0,0.333,39,68.5
505,G#5,143.333,0.333,60,68.5
506,B-3,143.333,0.333,33,68.5
507,G#4,143.667,0.333,54,68.5
508,F3,143.667,0.333,33,68.5
509,A5,144.0,0.333,60,68.5
510,B-5,144.333,0.333,51,68.5
511,B-4,144.667,0.333,44,68.5
512,G4,144.667,0.333,33,68.5
513,E-4,145.0,0.333,40,68.5
514,B-5,145.333,0.333,64,68.5
515,B-3,145.333,0.333,34,68.5
516,B-4,145.667,0.333,56,68.5
517,G3,145.667,0.333,34,68.5
518,B-5,146.0,0.333,66,68.5
519,B5,146.333,0.333,63,68.5
520,B4,146.667,0.333,58,68.5
521,G4,146.667,0.333,46,68.5
522,E-4,147.0,0.333,53,68.5
523,B5,147.333,0.333,70,68.5
524,B3,147.333,0.333,46,68.5
525,B4,147.667,0.333,64,68.5
526,G3,147.667,0.333,46,68.5
527,B5,148.0,0.333,73,68.5
528,C6,148.333,0.333,70,68.5
529,C5,148.667,0.333,63,68.5
530,G#4,148.667,0.333,47,68.5
531,E-4,149.0,0.333,58,68.5
532,C6,149.333,0.333,77,68.5
533,C4,149.333,0.333,49,68.5
534,C5,149.667,0.333,68,68.5
535,G#3,149.667,0.333,49,68.5
536,C#6,150.0,0.333,79,68.5
537,D6,150.333,0.333,77,68.5
538,D5,150.667,0.333,69,68.5
539,G#4,150.667,0.333,56,68.5
540,F4,151.0,0.333,63,68.5
541,D6,151.333,0.333,84,68.5
542,D4,151.333,0.333,54,68.5
543,D5,151.667,0.333,76,68.5
544,B-3,151.667,0.333,55,68.5
545,D6,152.0,0.333,86,68.5
546,E-6,152.333,0.333,81,68.5
547,E-5,152.667,0.333,75,68.5
548,A4,152.667,3.333,78,68.5
549,F#4,153.0,3.0,57,68.5
550,E-6,153.333,0.333,87,68.5
551,E-4,153.333,2.667,61,68.5
552,E-5,153.667,0.333,81,68.5
553,B3,153.667,2.333,65,68.5
554,E-6,154.0,0.333,87,68.5
555,F#5,154.333,0.333,79,68.5
556,E-6,154.667,0.333,87,68.5
557,A5,155.0,0.333,79,68.5
558,E-6,155.333,0.333,86,68.5
559,A5,155.667,0.333,79,68.5
560,B-5,156.0,2.333,88,68.5
561,B-2,156.333,0.167,64,68.5
562,E-3,156.667,0.167,64,68.5
563,G3,157.0,0.167,64,68.5
564,B-3,157.333,0.167,58,68.5
565,E-4,157.667,0.167,58,68.5
566,G4,158.0,0.333,64,68.5
567,A5,158.333,0.333,79,68.5
568,F#4,158.333,0.333,58,68.5
569,C6,158.667,0.333,79,68.5
570,G#4,158.667,0.333,58,68.5
571,B-5,159.0,0.25,85,68.5
572,G4,159.0,0.25,64,68.5
573,G#5,159.333,0.25,79,68.5
574,F4,159.333,0.25,59,68.5
575,G5,159.667,0.25,79,68.5
576,E-4,159.667,0.25,59,68.5
577,E-5,160.0,2.0,79,68.5
578,F5,160.0,1.75,79,68.5
579,G#4,160.0,4.0,57,68.5
580,B-3,160.0,4.0,57,68.5
581,F5,161.75,1.0,71,68.5
582,G5,161.75,1.0,71,68.5
583,F5,161.85,1.0,70,68.5
584,E5,161.85,1.0,70,68.5
585,F5,161.95,0.05,67,68.5
586,D5,162.0,2.0,79,68.5
587,B-5,162.0,1.75,79,68.5
588,B-5,163.75,0.25,79,68.5
589,G4,164.0,1.0,80,68.5
590,E-5,164.0,1.0,80,68.5
591,B-1,164.333,0.167,64,68.5
592,E-2,164.667,0.167,64,68.5
593,G2,165.0,0.167,64,68.5
594,B-2,165.333,0.167,58,68.5
595,E-3,165.667,0.167,58,68.5
596,G3,166.0,0.333,64,68.5
597,A4,166.333,0.333,79,68.5
598,F#3,166.333,0.333,58,68.5
599,C5,166.667,0.333,79,68.5
600,G#3,166.667,0.333,58,68.5
601,B-4,167.0,0.25,85,68.5
602,G3,167.0,0.25,64,68.5
603,G#4,167.333,0.25,79,68.5
604,F3,167.333,0.25,59,68.5
605,G4,167.667,0.25,79,68.5
606,E-3,167.667,0.25,59,68.5
607,E-4,168.0,2.0,79,68.5
608,F4,168.0,1.75,79,68.5
609,G#3,168.0,4.0,57,68.5
610,B-2,168.0,4.0,57,68.5
611,F4,169.75,1.0,71,68.5
612,G4,169.75,1.0,71,68.5
613,F4,169.85,1.0,70,68.5
614,E4,169.85,1.0,70,68.5
615,F4,169.95,0.05,67,68.5
616,D4,170.0,2.0,79,68.5
617,B-4,170.0,1.75,79,68.5
618,B-4,171.75,0.25,47,68.5
619,E-4,172.0,1.0,51,68.5
620,E-3,172.0,1.0,40,68.5
621,G3,172.0,1.0,40,68.5
622,E-2,175.75,1.188,66,68.5
623,B-2,175.75,1.188,66,68.5
624,C#3,175.75,1.188,66,68.5
625,E-3,175.844,1.156,69,68.5
626,G3,175.875,1.062,77,68.5
627,B-3,175.875,1.062,77,68.5
628,C#4,175.875,1.062,77,68.5
629,E-4,175.969,1.0,88,68.5
630,G4,175.969,1.0,88,68.5
631,C4,180.0,2.0,42,68.5
632,G#4,180.0,1.5,50,68.5
633,G#2,180.0,1.0,39,68.5
634,E-3,181.0,1.0,32,68.5
635,B-4,181.5,0.125,50,68.5
636,G#4,181.625,0.125,46,68.5
637,G4,181.75,0.125,46,68.5
638,G#4,181.875,0.125,46,68.5
639,C5,182.0,1.5,54,68.5
640,C#4,182.0,2.0,45,68.5
641,G2,182.0,1.0,39,68.5
642,E-3,183.0,1.0,29,68.5
643,B-4,183.5,0.5,45,68.5
644,C4,184.0,2.0,42,68.5
645,G#4,184.0,2.5,50,68.5
646,G#2,184.0,1.0,42,68.5
647,E-3,185.0,1.0,36,68.5
648,G#3,186.0,1.0,38,68.5
649,G4,186.5,0.5,46,68.5
650,G#4,187.0,0.5,44,68.5
651,C4,187.0,1.0,40,68.5
652,A4,187.5,0.5,48,68.5
653,E-4,188.0,2.0,52,68.5
654,B-4,188.0,1.0,52,68.5
655,G3,188.0,2.0,46,68.5
656,C#4,188.0,1.0,46,68.5
657,B-3,189.0,1.0,32,68.5
658,C5,189.5,0.125,50,68.5
659,B-4,189.625,0.125,46,68.5
660,A4,189.75,0.125,46,68.5
661,B-4,189.875,0.125,46,68.5
662,C#5,190.0,1.5,54,68.5
663,E-4,190.0,1.0,45,68.5
664,G#3,190.0,2.0,29,68.5
665,G#4,191.0,1.0,45,68.5
666,C4,191.0,1.0,32,68.5
667,C5,191.5,0.5,45,68.5
668,G4,192.0,2.0,42,68.5
669,B-4,192.0,2.333,50,68.5
670,E-3,192.0,4.0,33,68.5
671,E-4,192.0,4.0,33,68.5
672,C#4,193.0,1.0,32,68.5
673,B-3,194.0,1.0,32,68.5
674,F5,194.333,0.333,61,68.5
675,E-5,194.667,0.333,55,68.5
676,C#5,195.0,0.25,62,68.5
677,G3,195.0,1.0,32,68.5
678,C5,195.333,0.25,60,68.5
679,B4,195.667,0.25,57,68.5
680,C5,196.0,1.75,63,68.5
681,G#3,196.75,0.25,37,68.5
682,E-4,197.0,1.0,46,68.5
683,G#4,197.75,0.25,52,68.5
684,E-5,198.0,1.75,64,68.5
685,C3,198.75,0.25,39,68.5
686,G#3,199.0,1.0,48,68.5
687,C5,199.75,0.25,60,68.5
688,F5,200.0,1.75,70,68.5
689,C#3,200.75,0.25,51,68.5
690,C#4,201.0,0.75,56,68.5
691,C#5,201.75,0.25,67,68.5
692,F3,201.75,3.25,56,68.5
693,G#5,202.0,2.5,87,68.5
694,C#4,202.0,0.75,62,68.5
695,G#3,202.75,0.25,56,68.5
696,F4,203.0,0.75,65,68.5
697,C#4,203.75,0.25,65,68.5
698,G#4,204.0,2.0,84,68.5
699,G#3,204.0,1.0,72,68.5
700,G5,204.5,0.5,63,68.5
701,F5,205.0,0.5,59,68.5
702,F3,205.0,1.0,44,68.5
703,G#3,205.0,1.0,44,68.5
704,E-5,205.5,0.458,56,68.5
705,E-4,206.0,1.0,37,68.5
706,E-5,206.0,0.5,59,68.5
707,G3,206.0,1.0,52,68.5
708,B-3,206.0,1.0,52,68.5
709,C#5,206.5,0.458,56,68.5
710,E-4,207.0,1.0,37,68.5
711,C#5,207.0,0.5,59,68.5
712,C4,207.0,1.0,44,68.5
713,G#3,207.0,1.0,44,68.5
714,C5,207.5,0.458,56,68.5
715,E-4,208.0,1.0,46,68.5
716,E-5,208.0,1.5,55,68.5
717,C4,208.0,1.5,43,68.5
718,E-3,208.0,2.0,43,68.5
719,E-4,209.0,1.0,39,68.5
720,C5,209.5,0.5,51,68.5
721,G#3,209.5,0.5,31,68.5
722,E-4,210.0,1.0,45,68.5
723,B-4,210.0,1.0,53,68.5
724,E-3,210.0,1.0,28,68.5
725,G3,210.0,1.0,28,68.5
726,C5,210.062,1.0,48,68.5
727,B-4,210.062,1.0,48,68.5
728,C5,210.188,0.062,45,68.5
729,B-4,210.25,0.083,51,68.5
730,A4,210.333,0.083,46,68.5
731,B-4,210.417,0.083,46,68.5
732,C#5,210.5,0.25,57,68.5
733,C5,210.75,0.25,48,68.5
734,E-5,211.0,0.25,55,68.5
735,C#5,211.25,0.25,47,68.5
736,C5,211.5,0.125,51,68.5
737,E-5,211.625,0.125,47,68.5
738,C#5,211.75,0.125,47,68.5
739,B-4,211.875,0.125,47,68.5
740,C4,212.0,2.0,42,68.5
741,G#4,212.0,1.5,50,68.5
742,G#2,212.0,2.0,36,68.5
743,E-3,212.5,0.475,28,68.5
744,E-3,213.0,0.475,29,68.5
745,B-4,213.5,0.125,50,68.5
746,E-3,213.5,0.475,29,68.5
747,G#4,213.625,0.125,46,68.5
748,G4,213.75,0.125,46,68.5
749,G#4,213.875,0.125,46,68.5
750,C5,214.0,1.5,54,68.5
751,C#4,214.0,2.0,45,68.5
752,G2,214.0,2.0,36,68.5
753,E-3,214.5,0.475,28,68.5
754,E-3,215.0,0.475,28,68.5
755,B-4,215.5,0.5,45,68.5
756,E-3,215.5,0.475,28,68.5
757,G#2,216.0,0.25,43,68.5
758,C4,216.0,2.0,46,68.5
759,G#4,216.0,2.0,46,68.5
760,E-3,216.333,0.25,36,68.5
761,C3,216.667,0.25,36,68.5
762,G#3,217.0,0.25,40,68.5
763,E-3,217.333,0.25,36,68.5
764,C4,217.667,0.25,36,68.5
765,G#3,218.0,0.25,43,68.5
766,E-4,218.333,0.25,36,68.5
767,C#4,218.667,0.25,36,68.5
768,C4,219.0,0.25,47,68.5
769,B-3,219.333,0.25,36,68.5
770,G#3,219.667,0.25,36,68.5
771,E-4,220.0,2.0,42,68.5
772,B-4,220.0,1.0,50,68.5
773,G3,220.0,2.0,45,68.5
774,E-3,220.5,0.475,29,68.5
775,E-3,221.0,0.475,29,68.5
776,C5,221.5,0.125,50,68.5
777,E-3,221.5,0.475,29,68.5
778,B-4,221.625,0.125,46,68.5
779,A4,221.75,0.125,46,68.5
780,B-4,221.875,0.125,46,68.5
781,C#5,222.0,1.5,54,68.5
782,G#3,222.0,2.0,36,68.5
783,E-4,222.0,2.0,45,68.5
784,G#4,222.0,2.0,45,68.5
785,E-3,222.5,0.475,29,68.5
786,E-3,223.0,0.475,29,68.5
787,C5,223.5,0.5,45,68.5
788,E-3,223.5,0.475,29,68.5
789,E-2,224.0,0.25,41,68.5
790,G4,224.0,2.0,46,68.5
791,B-4,224.0,2.0,46,68.5
792,G2,224.333,0.25,38,68.5
793,B-2,224.667,0.25,38,68.5
794,E-3,225.0,0.25,48,68.5
795,G3,225.333,0.25,48,68.5
796,B-3,225.667,0.25,51,68.5
797,C#4,226.0,0.25,55,68.5
798,F4,226.333,0.25,49,68.5
799,E-4,226.667,0.25,49,68.5
800,C#4,227.0,0.25,53,68.5
801,C4,227.333,0.25,44,68.5
802,B-3,227.667,0.25,44,68.5
803,E-4,227.938,0.188,36,68.5
804,C5,228.0,1.75,63,68.5
805,G#3,228.0,0.25,39,68.5
806,E-4,228.333,0.25,42,68.5
807,C4,228.667,0.25,37,68.5
808,G#3,229.0,0.25,42,68.5
809,E-3,229.333,0.25,32,68.5
810,C3,229.667,0.25,32,68.5
811,G#4,229.75,0.25,52,68.5
812,E-4,229.938,0.188,43,68.5
813,E-5,230.0,1.75,64,68.5
814,C4,230.333,0.25,36,68.5
815,G#3,230.667,0.25,36,68.5
816,E-3,231.0,0.25,47,68.5
817,C3,231.333,0.25,38,68.5
818,G#2,231.667,0.25,40,68.5
819,C5,231.75,0.188,60,68.5
820,F4,231.938,3.333,57,68.5
821,F5,231.938,3.333,57,68.5
822,C#3,232.333,3.667,32,68.5
823,E-3,232.667,0.35,36,68.5
824,F3,233.0,0.35,36,68.5
825,F#3,233.333,0.35,41,68.5
826,G3,233.667,0.35,43,68.5
827,G#3,234.0,0.35,46,68.5
828,A3,234.333,0.35,48,68.5
829,B-3,234.667,0.35,49,68.5
830,B3,235.0,0.35,52,68.5
831,C4,235.333,0.35,54,68.5
832,A4,235.333,0.333,64,68.5
833,E-5,235.333,0.333,64,68.5
834,C#4,235.667,0.333,57,68.5
835,B-4,235.667,0.333,57,68.5
836,C#5,235.667,0.333,57,68.5
837,G#4,236.0,2.0,59,68.5
838,C5,236.0,1.0,70,68.5
839,E-3,236.0,2.0,56,68.5
840,E-4,236.333,0.333,56,68.5
841,D4,236.667,0.333,45,68.5
842,E-5,237.0,1.0,63,68.5
843,C#4,237.333,0.333,46,68.5
844,C4,237.667,0.333,46,68.5
845,G4,238.0,2.0,59,68.5
846,C#5,238.0,1.0,70,68.5
847,E-3,238.0,2.0,32,68.5
848,B-3,238.333,0.333,51,68.5
849,C4,238.667,0.333,44,68.5
850,B-4,239.0,1.0,60,68.5
851,C#4,239.333,0.333,44,68.5
852,G3,239.667,0.333,44,68.5
853,C#4,240.0,1.25,59,68.5
854,B-4,240.0,2.0,70,68.5
855,G#2,240.0,3.0,32,68.5
856,G3,240.0,2.0,51,68.5
857,C4,241.25,0.125,37,68.5
858,C#4,241.375,0.125,34,68.5
859,E-4,241.5,0.125,38,68.5
860,C#4,241.625,0.125,34,68.5
861,C4,241.75,0.125,34,68.5
862,C#4,241.875,0.125,34,68.5
863,G#3,242.0,1.0,35,68.5
864,C4,242.0,1.0,46,68.5
865,G#4,242.0,1.0,46,68.5
866,F5,243.938,0.188,78,68.5
867,F6,244.0,1.5,91,68.5
868,E-4,244.0,2.0,76,68.5
869,F4,244.0,2.0,76,68.5
870,C4,244.0,2.0,76,68.5
871,A3,244.0,2.0,76,68.5
872,E-6,245.5,0.073,65,68.5
873,C6,245.571,0.073,63,68.5
874,A5,245.644,0.071,62,68.5
875,F5,245.715,0.071,61,68.5
876,E-5,245.785,0.073,59,68.5
877,C5,245.856,0.073,57,68.5
878,A4,245.927,0.073,56,68.5
879,F4,246.0,0.5,78,68.5
880,C4,247.75,0.229,50,68.5
881,E-4,247.75,0.229,50,68.5
882,A2,247.75,0.229,33,68.5
883,F3,247.75,0.229,33,68.5
884,C4,248.0,2.0,52,68.5
885,E-4,248.0,2.0,52,68.5
886,B-2,248.0,3.0,38,68.5
887,F3,248.0,3.0,38,68.5
888,B-3,250.0,1.0,42,68.5
889,C#4,250.0,1.0,42,68.5
890,E-5,251.938,0.188,78,68.5
891,E-6,252.0,1.5,91,68.5
892,C#4,252.0,2.0,76,68.5
893,E-4,252.0,2.0,76,68.5
894,B-3,252.0,2.0,76,68.5
895,G3,252.0,2.0,76,68.5
896,C#6,253.5,0.073,65,68.5
897,B-5,253.571,0.073,63,68.5
898,G5,253.644,0.071,62,68.5
899,E-5,253.715,0.071,61,68.5
900,C#5,253.785,0.073,59,68.5
901,B-4,253.856,0.073,57,68.5
902,G4,253.927,0.073,56,68.5
903,E-4,254.0,0.5,78,68.5
904,B-3,255.75,0.229,50,68.5
905,C#4,255.75,0.229,50,68.5
906,G2,255.75,0.229,33,68.5
907,E-3,255.75,0.229,33,68.5
908,B-3,256.0,2.0,52,68.5
909,C#4,256.0,2.0,52,68.5
910,G#2,256.0,3.0,38,68.5
911,E-3,256.0,3.0,38,68.5
912,G#3,258.0,1.0,42,68.5
913,B3,258.0,1.0,42,68.5
914,B2,259.938,0.188,89,68.5
915,B3,260.0,1.5,92,68.5
916,B3,261.5,0.083,59,68.5
917,G#3,261.583,0.083,57,68.5
918,E3,261.667,0.083,56,68.5
919,B2,261.75,0.083,56,68.5
920,G#2,261.835,0.083,55,68.5
921,E2,261.917,0.083,53,68.5
922,B1,262.0,0.5,91,68.5
923,G#3,263.75,0.229,69,68.5
924,E3,263.75,0.229,69,68.5
925,E4,263.75,0.229,69,68.5
926,B1,263.75,0.229,46,68.5
927,B2,263.75,0.229,46,68.5
928,E4,264.0,2.0,73,68.5
929,F#3,264.0,3.0,73,68.5
930,A3,264.0,3.0,73,68.5
931,B1,264.0,3.0,61,68.5
932,B2,264.0,3.0,61,68.5
933,E-4,266.0,1.0,61,68.5
934,G#3,267.75,0.229,69,68.5
935,F3,267.75,0.229,69,68.5
936,E-4,267.75,0.229,69,68.5
937,B1,267.75,0.229,46,68.5
938,B2,267.75,0.229,46,68.5
939,E-4,268.0,2.0,73,68.5
940,F3,268.0,3.0,73,68.5
941,G#3,268.0,3.0,73,68.5
942,B1,268.0,2.0,61,68.5
943,B2,268.0,2.0,61,68.5
944,D4,270.0,1.0,61,68.5
945,B-1,270.0,1.0,44,68.5
946,B-2,270.0,1.0,44,68.5
947,G#3,271.75,0.229,69,68.5
948,F3,271.75,0.229,69,68.5
949,D4,271.75,0.229,69,68.5
950,B-1,271.75,0.229,46,68.5
951,B-2,271.75,0.229,46,68.5
952,F3,272.0,3.0,73,68.5
953,G#3,272.0,2.0,73,68.5
954,D4,272.0,2.0,73,68.5
955,B-1,272.0,2.0,61,68.5
956,B-2,272.0,2.0,61,68.5
957,B-3,274.0,0.5,58,68.5
958,C#4,274.0,0.5,58,68.5
959,E-2,274.0,0.5,44,68.5
960,E-3,274.0,0.5,44,68.5
961,A4,274.5,0.525,46,68.5
962,B-4,275.0,0.45,54,68.5
963,C5,275.5,0.525,46,68.5
964,C#5,276.0,0.45,54,68.5
965,F#5,276.5,0.5,50,68.5
966,G5,277.0,0.45,60,68.5
967,A5,277.5,0.525,50,68.5
968,B-5,278.0,0.45,60,68.5
969,C6,278.5,0.525,50,68.5
970,C#6,279.0,0.5,60,68.5
971,B-5,279.5,0.5,50,68.5
972,G5,280.0,2.5,60,68.5
973,E-4,280.0,0.95,32,68.5
974,C#4,280.0,0.95,32,68.5
975,E-4,281.0,0.95,28,68.5
976,C#4,281.0,0.95,28,68.5
977,E-4,282.0,0.95,28,68.5
978,C#4,282.0,0.95,28,68.5
979,G#5,282.5,0.125,55,68.5
980,G5,282.625,0.125,55,68.5
981,F5,282.75,0.125,55,68.5
982,G5,282.875,0.125,55,68.5
983,G#5,283.0,0.75,60,68.5
984,E-4,283.0,0.95,28,68.5
985,C#4,283.0,0.95,28,68.5
986,B-5,283.75,0.25,60,68.5
987,B-5,284.0,1.0,60,68.5
988,E-4,284.0,0.95,32,68.5
989,C4,284.0,0.95,32,68.5
990,G#5,285.0,2.0,60,68.5
991,E-4,285.0,0.95,26,68.5
992,C4,285.0,0.95,26,68.5
993,E-4,286.0,0.95,26,68.5
994,C4,286.0,0.95,26,68.5
995,A5,287.0,1.0,60,68.5
996,E-4,287.0,0.95,26,68.5
997,C4,287.0,0.95,26,68.5
998,B-5,288.0,2.5,60,68.5
999,G3,288.0,0.95,31,68.5
1000,E-4,288.0,0.95,31,68.5
1001,C#4,288.0,0.95,31,68.5
1002,G3,289.0,0.95,27,68.5
1003,E-4,289.0,0.95,27,68.5
1004,C#4,289.0,0.95,27,68.5
1005,G3,290.0,0.95,27,68.5
1006,E-4,290.0,0.95,27,68.5
1007,C#4,290.0,0.95,27,68.5
1008,C6,290.5,0.125,55,68.5
1009,B-5,290.625,0.125,55,68.5
1010,A5,290.75,0.125,55,68.5
1011,B-5,290.875,0.125,55,68.5
1012,C6,291.0,0.75,60,68.5
1013,C4,291.0,0.75,25,68.5
1014,G3,291.0,1.0,28,68.5
1015,E-4,291.0,1.0,28,68.5
1016,C#6,291.75,0.25,60,68.5
1017,B-3,291.75,0.25,25,68.5
1018,C#6,292.0,1.0,60,68.5
1019,G#3,292.0,0.95,31,68.5
1020,E-4,292.0,0.95,31,68.5
1021,B3,292.0,0.95,31,68.5
1022,C6,293.0,1.0,60,68.5
1023,G#3,293.0,0.95,25,68.5
1024,E-4,293.0,0.95,25,68.5
1025,C4,293.0,0.95,25,68.5
1026,G#3,294.0,0.95,25,68.5
1027,E-4,294.0,0.95,25,68.5
1028,C4,294.0,0.95,25,68.5
1029,G#3,295.0,0.95,26,68.5
1030,E-4,295.0,0.95,26,68.5
1031,C4,295.0,0.95,26,68.5
1032,C#4,296.0,0.95,28,68.5
1033,E-4,296.0,0.95,28,68.5
1034,G4,296.083,0.083,30,68.5
1035,G#4,296.169,0.083,30,68.5
1036,B-4,296.252,0.083,41,68.5
1037,G#4,296.335,0.083,33,68.5
1038,G4,296.419,0.083,33,68.5
1039,C#5,296.502,0.083,42,68.5
1040,C5,296.585,0.083,36,68.5
1041,B-4,296.669,0.083,39,68.5
1042,G5,296.754,0.083,51,68.5
1043,F5,296.837,0.083,39,68.5
1044,E-5,296.921,0.083,42,68.5
1045,B-5,297.0,0.083,57,68.5
1046,C#4,297.0,0.95,28,68.5
1047,E-4,297.0,0.95,28,68.5
1048,G#5,297.083,0.083,46,68.5
1049,G5,297.167,0.083,49,68.5
1050,C#6,297.25,0.083,59,68.5
1051,C6,297.333,0.083,50,68.5
1052,B-5,297.417,0.083,55,68.5
1053,F6,297.5,2.0,69,68.5
1054,C#4,298.0,0.95,28,68.5
1055,E-4,298.0,0.95,28,68.5
1056,C#4,299.0,0.95,28,68.5
1057,E-4,299.0,0.95,28,68.5
1058,F6,299.5,0.071,54,68.5
1059,E-6,299.571,0.071,53,68.5
1060,C#6,299.644,0.071,52,68.5
1061,C6,299.715,0.071,52,68.5
1062,B-5,299.785,0.071,51,68.5
1063,G#5,299.856,0.071,50,68.5
1064,G5,299.927,0.071,49,68.5
1065,B-5,300.0,0.75,56,68.5
1066,G#5,300.75,0.25,44,68.5
1067,G5,301.0,0.375,47,68.5
1068,C4,301.0,0.95,28,68.5
1069,E-4,301.0,0.95,28,68.5
1070,G#5,301.375,0.125,44,68.5
1071,B-5,301.5,0.375,51,68.5
1072,G#5,301.875,0.125,45,68.5
1073,G#4,302.0,1.0,57,68.5
1074,C4,302.0,0.95,28,68.5
1075,E-4,302.0,0.95,28,68.5
1076,C4,303.0,0.95,28,68.5
1077,E-4,303.0,0.95,28,68.5
1078,G3,304.0,0.95,27,68.5
1079,C#4,304.0,0.95,27,68.5
1080,E-4,304.0,0.95,27,68.5
1081,B-4,304.083,0.083,30,68.5
1082,C5,304.169,0.083,30,68.5
1083,C#5,304.252,0.083,41,68.5
1084,C5,304.335,0.083,33,68.5
1085,B-4,304.419,0.083,33,68.5
1086,G5,304.502,0.083,47,68.5
1087,F5,304.585,0.083,38,68.5
1088,E-5,304.669,0.083,39,68.5
1089,B-5,304.754,0.083,51,68.5
1090,G#5,304.837,0.083,46,68.5
1091,G5,304.921,0.083,48,68.5
1092,C#6,305.0,2.5,69,68.5
1093,G3,305.0,0.95,26,68.5
1094,B-3,305.0,0.95,26,68.5
1095,C#4,305.0,0.95,26,68.5
1096,E-4,305.0,0.95,26,68.5
1097,G3,306.0,0.95,26,68.5
1098,B-3,306.0,0.95,26,68.5
1099,C#4,306.0,0.95,26,68.5
1100,E-4,306.0,0.95,26,68.5
1101,G3,307.0,0.95,26,68.5
1102,B-3,307.0,0.95,26,68.5
1103,C#4,307.0,0.95,26,68.5
1104,E-4,307.0,0.95,26,68.5
1105,C6,307.5,1.0,51,68.5
1106,C#6,307.5,1.0,51,68.5
1107,E-6,307.592,1.0,56,68.5
1108,C#6,307.592,1.0,56,68.5
1109,C6,307.683,1.0,58,68.5
1110,B-5,307.683,1.0,58,68.5
1111,G#5,307.775,1.0,56,68.5
1112,G5,307.775,1.0,56,68.5
1113,F5,307.865,1.0,54,68.5
1114,E-5,307.865,1.0,54,68.5
1115,C#5,307.956,0.046,52,68.5
1116,C5,308.0,1.5,62,68.5
1117,G#3,309.0,1.0,30,68.5
1118,C4,309.0,1.0,30,68.5
1119,E-4,309.0,1.0,30,68.5
1120,C5,309.75,0.25,64,68.5
1121,C#5,310.0,1.5,71,68.5
1122,B-3,311.0,1.0,32,68.5
1123,C#4,311.0,1.0,32,68.5
1124,E-4,311.0,1.0,32,68.5
1125,G4,311.0,1.0,32,68.5
1126,C#5,311.75,0.25,71,68.5
1127,E-5,312.0,1.5,81,68.5
1128,C4,313.0,1.0,37,68.5
1129,E-4,313.0,1.0,37,68.5
1130,G#4,313.0,1.0,37,68.5
1131,E-5,313.75,0.25,78,68.5
1132,E5,314.0,1.5,89,68.5
1133,C4,315.0,1.0,43,68.5
1134,E4,315.0,1.0,43,68.5
1135,G#4,315.0,1.0,43,68.5
1136,E5,315.75,0.25,84,68.5
1137,F5,316.0,1.5,92,68.5
1138,C#4,317.0,1.0,51,68.5
1139,F4,317.0,1.0,51,68.5
1140,G#4,317.0,1.0,51,68.5
1141,F5,317.75,0.25,88,68.5
1142,G5,318.0,1.5,94,68.5
1143,E4,319.0,1.0,60,68.5
1144,C#4,319.0,1.0,60,68.5
1145,G4,319.0,1.0,60,68.5
1146,B-4,319.0,1.0,60,68.5
1147,G5,319.75,0.25,93,68.5
1148,G#5,320.0,1.5,100,68.5
1149,D4,321.0,1.0,60,68.5
1150,F4,321.0,1.0,60,68.5
1151,G#4,321.0,1.0,60,68.5
1152,B4,321.0,1.0,60,68.5
1153,B-5,321.75,1.0,88,68.5
1154,G#5,321.75,1.0,88,68.5
1155,G5,321.875,1.0,92,68.5
1156,G#5,321.875,1.0,92,68.5
1157,B-5,322.0,0.5,95,68.5
1158,G#5,322.5,0.5,87,68.5
1159,G5,323.0,0.375,77,68.5
1160,F5,323.5,0.375,67,68.5
1161,E-5,324.0,0.525,60,68.5
1162,D5,324.5,0.525,55,68.5
1163,F5,325.0,0.525,60,68.5
1164,C4,325.0,1.0,36,68.5
1165,G#3,325.0,1.0,36,68.5
1166,E-3,325.0,1.0,36,68.5
1167,E-5,325.5,0.525,55,68.5
1168,C#5,326.0,0.525,60,68.5
1169,C5,326.5,0.525,56,68.5
1170,B-4,327.0,0.525,60,68.5
1171,C#4,327.0,1.0,36,68.5
1172,G3,327.0,1.0,36,68.5
1173,E-3,327.0,1.0,36,68.5
1174,E-5,327.5,0.5,57,68.5
1175,B4,328.0,0.333,60,68.5
1176,C5,328.333,0.333,51,68.5
1177,C4,328.667,0.333,43,68.5
1178,G#3,328.667,0.333,32,68.5
1179,E-3,329.0,0.333,39,68.5
1180,C5,329.333,0.333,60,68.5
1181,C3,329.333,0.333,32,68.5
1182,C4,329.667,0.333,52,68.5
1183,G#2,329.667,0.333,32,68.5
1184,C5,330.0,0.333,60,68.5
1185,C#5,330.333,0.333,51,68.5
1186,C#4,330.667,0.333,43,68.5
1187,B-3,330.667,0.333,34,68.5
1188,G3,331.0,0.333,39,68.5
1189,C#5,331.333,0.333,60,68.5
1190,E-3,331.333,0.333,33,68.5
1191,C#4,331.667,0.333,54,68.5
1192,B-2,331.667,0.333,33,68.5
1193,D5,332.0,0.333,60,68.5
1194,E-5,332.333,0.333,51,68.5
1195,E-4,332.667,0.333,44,68.5
1196,C4,332.667,0.333,33,68.5
1197,G#3,333.0,0.333,40,68.5
1198,E-5,333.333,0.333,64,68.5
1199,E-3,333.333,0.333,34,68.5
1200,E-4,333.667,0.333,56,68.5
1201,C3,333.667,0.333,34,68.5
1202,E-5,334.0,0.333,66,68.5
1203,E5,334.333,0.333,63,68.5
1204,E4,334.667,0.333,58,68.5
1205,C4,334.667,0.333,46,68.5
1206,G#3,335.0,0.333,53,68.5
1207,E5,335.333,0.333,70,68.5
1208,E3,335.333,0.333,46,68.5
1209,E4,335.667,0.333,64,68.5
1210,C3,335.667,0.333,46,68.5
1211,E5,336.0,0.333,73,68.5
1212,F5,336.333,0.333,70,68.5
1213,F4,336.667,0.333,63,68.5
1214,C#4,336.667,0.333,47,68.5
1215,G#3,337.0,0.333,58,68.5
1216,F5,337.333,0.333,77,68.5
1217,F3,337.333,0.333,49,68.5
1218,F4,337.667,0.333,68,68.5
1219,C#3,337.667,0.333,49,68.5
1220,F#5,338.0,0.333,79,68.5
1221,G5,338.333,0.333,77,68.5
1222,G4,338.667,0.333,69,68.5
1223,C#4,338.667,0.333,56,68.5
1224,B-3,339.0,0.333,63,68.5
1225,G5,339.333,0.333,84,68.5
1226,G3,339.333,0.333,54,68.5
1227,G4,339.667,0.333,76,68.5
1228,E-3,339.667,0.333,55,68.5
1229,G5,340.0,0.333,86,68.5
1230,G#5,340.333,0.333,81,68.5
1231,G#4,340.667,0.333,75,68.5
1232,D4,340.667,3.333,78,68.5
1233,B3,341.0,3.0,57,68.5
1234,G#5,341.333,0.333,87,68.5
1235,G#3,341.333,2.667,61,68.5
1236,G#4,341.667,0.333,81,68.5
1237,E3,341.667,2.333,65,68.5
1238,B5,342.0,0.333,87,68.5
1239,B4,342.333,0.333,79,68.5
1240,B5,342.667,0.333,87,68.5
1241,G#4,343.0,0.333,79,68.5
1242,G#5,343.333,0.333,86,68.5
1243,G#4,343.667,0.333,79,68.5
1244,E-5,344.0,2.333,88,68.5
1245,E-3,344.333,0.167,64,68.5
1246,G#3,344.667,0.167,64,68.5
1247,C4,345.0,0.167,64,68.5
1248,E-4,345.333,0.167,58,68.5
1249,G#4,345.667,0.167,58,68.5
1250,C5,346.0,0.333,64,68.5
1251,D6,346.333,0.333,79,68.5
1252,B4,346.333,0.333,58,68.5
1253,F6,346.667,0.333,79,68.5
1254,C#5,346.667,0.333,58,68.5
1255,E-6,347.0,0.25,85,68.5
1256,C5,347.0,0.25,64,68.5
1257,C#6,347.333,0.25,79,68.5
1258,B-4,347.333,0.25,59,68.5
1259,C6,347.667,0.25,79,68.5
1260,G#4,347.667,0.25,59,68.5
1261,G#5,348.0,2.0,79,68.5
1262,B-5,348.0,1.75,79,68.5
1263,C#5,348.0,4.0,57,68.5
1264,E-4,348.0,4.0,57,68.5
1265,B-5,349.75,1.0,71,68.5
1266,C6,349.75,1.0,71,68.5
1267,B-5,349.85,1.0,70,68.5
1268,A5,349.85,1.0,70,68.5
1269,B-5,349.95,0.05,67,68.5
1270,G5,350.0,2.0,79,68.5
1271,E-6,350.0,1.75,79,68.5
1272,E-6,351.75,0.25,79,68.5
1273,C5,352.0,1.0,80,68.5
1274,G#5,352.0,1.0,80,68.5
1275,E-2,352.333,0.167,64,68.5
1276,G#2,352.667,0.167,64,68.5
1277,C3,353.0,0.167,64,68.5
1278,E-3,353.333,0.167,58,68.5
1279,G#3,353.667,0.167,58,68.5
1280,C4,354.0,0.333,64,68.5
1281,D5,354.333,0.333,79,68.5
1282,B3,354.333,0.333,58,68.5
1283,F5,354.667,0.333,79,68.5
1284,C#4,354.667,0.333,58,68.5
1285,E-5,355.0,0.25,85,68.5
1286,C4,355.0,0.25,64,68.5
1287,C#5,355.333,0.25,79,68.5
1288,B-3,355.333,0.25,59,68.5
1289,C5,355.667,0.25,79,68.5
1290,G#3,355.667,0.25,59,68.5
1291,G#4,356.0,2.0,79,68.5
1292,B-4,356.0,1.75,79,68.5
1293,C#4,356.0,4.0,57,68.5
1294,E-3,356.0,4.0,57,68.5
1295,B-4,357.75,1.0,71,68.5
1296,C5,357.75,1.0,71,68.5
1297,B-4,357.85,1.0,70,68.5
1298,A4,357.85,1.0,70,68.5
1299,B-4,357.95,0.05,67,68.5
1300,G4,358.0,2.0,79,68.5
1301,E-5,358.0,1.75,79,68.5
1302,E-5,359.75,0.25,61,68.5
1303,G#4,360.0,2.0,50,68.5
1304,G#3,360.0,1.0,39,68.5
1305,C4,360.0,0.475,30,68.5
1306,E-4,360.0,0.475,30,68.5
1307,C4,360.5,0.95,30,68.5
1308,E-4,360.5,0.95,30,68.5
1309,E-3,361.0,1.0,32,68.5
1310,C4,361.5,0.475,30,68.5
1311,E-4,361.5,0.475,30,68.5
1312,C5,362.0,1.5,54,68.5
1313,G3,362.0,1.0,39,68.5
1314,C#4,362.0,0.475,30,68.5
1315,E-4,362.0,0.475,30,68.5
1316,C#4,362.5,0.95,30,68.5
1317,E-4,362.5,0.95,30,68.5
1318,E-3,363.0,1.0,29,68.5
1319,E-4,363.5,0.475,35,68.5
1320,C#4,363.5,0.475,35,68.5
1321,B-4,363.5,0.475,35,68.5
1322,G#4,364.0,3.5,50,68.5
1323,G#3,364.0,1.0,42,68.5
1324,C4,364.0,0.475,30,68.5
1325,E-4,364.0,0.475,30,68.5
1326,C4,364.5,0.95,30,68.5
1327,E-4,364.5,0.95,30,68.5
1328,E-3,365.0,1.0,36,68.5
1329,E-4,365.5,0.95,30,68.5
1330,C4,365.5,0.95,30,68.5
1331,C3,366.0,1.0,38,68.5
1332,C4,366.5,0.95,30,68.5
1333,E-4,366.5,0.95,30,68.5
1334,G#2,367.0,1.0,40,68.5
1335,A4,367.5,0.5,35,68.5
1336,C4,367.5,0.5,35,68.5
1337,E-4,367.5,0.5,35,68.5
1338,B-4,368.0,1.5,52,68.5
1339,G2,368.0,1.0,46,68.5
1340,C#4,368.0,0.475,30,68.5
1341,E-4,368.0,0.475,30,68.5
1342,E-4,368.5,0.95,35,68.5
1343,E-2,369.0,1.0,32,68.5
1344,E-4,369.5,0.95,30,68.5
1345,C5,369.5,0.125,50,68.5
1346,B-4,369.625,0.125,46,68.5
1347,A4,369.75,0.125,46,68.5
1348,B-4,369.875,0.125,46,68.5
1349,G#2,370.0,1.0,29,68.5
1350,C#5,370.0,1.5,50,68.5
1351,G#4,370.0,1.5,50,68.5
1352,E-4,370.5,0.95,30,68.5
1353,C3,371.0,1.0,32,68.5
1354,E-4,371.5,0.95,30,68.5
1355,G#4,371.5,0.5,45,68.5
1356,C5,371.5,0.5,45,68.5
1357,E-3,372.0,1.0,36,68.5
1358,G4,372.0,4.0,46,68.5
1359,B-4,372.0,4.0,46,68.5
1360,E-4,372.5,0.95,37,68.5
1361,F3,373.0,1.0,42,68.5
1362,E-4,373.5,0.95,41,68.5
1363,E-3,374.0,3.0,36,68.5
1364,E-4,374.5,0.95,39,68.5
1365,C#3,375.0,1.0,33,68.5
1366,E-4,375.5,0.95,34,68.5
1367,E-5,376.0,2.0,66,68.5
1368,C3,376.0,2.0,43,68.5
1369,E-4,376.5,0.95,53,68.5
1370,G#3,377.0,2.0,43,68.5
1371,E-4,377.5,0.95,52,68.5
1372,C#5,378.0,2.0,63,68.5
1373,B-2,378.0,2.0,36,68.5
1374,E-4,378.5,0.95,51,68.5
1375,G3,379.0,2.0,43,68.5
1376,E-4,379.5,0.95,52,68.5
1377,C5,380.0,2.0,66,68.5
1378,G#2,380.0,2.0,46,68.5
1379,E-4,380.5,0.95,49,68.5
1380,G#3,381.0,2.0,43,68.5
1381,E4,381.5,0.95,46,68.5
1382,B-4,382.0,1.0,58,68.5
1383,C#3,382.0,2.0,45,68.5
1384,F4,382.5,0.95,54,68.5
1385,C#5,383.0,0.75,64,68.5
1386,B-3,383.0,0.5,43,68.5
1387,F4,383.5,1.0,50,68.5
1388,C#4,383.5,0.5,41,68.5
1389,B-4,383.75,0.25,55,68.5
1390,G#4,384.0,2.0,66,68.5
1391,E-3,384.0,2.0,53,68.5
1392,E-4,384.5,0.95,47,68.5
1393,C4,385.0,2.0,53,68.5
1394,E-4,385.5,0.95,43,68.5
1395,A4,386.0,1.0,58,68.5
1396,E-3,386.0,2.0,36,68.5
1397,E-4,386.5,0.95,45,68.5
1398,B-4,387.0,1.0,59,68.5
1399,G3,387.0,2.0,53,68.5
1400,E-4,387.5,0.95,49,68.5
1401,B4,388.0,1.0,64,68.5
1402,G#2,388.0,2.0,49,68.5
1403,E-3,388.0,2.0,49,68.5
1404,E-4,388.5,0.95,55,68.5
1405,G#3,389.0,1.0,53,68.5
1406,C4,389.0,1.0,62,68.5
1407,C5,389.0,1.0,62,68.5
1408,E-4,389.5,0.95,55,68.5
1409,C#4,390.0,1.0,64,68.5
1410,C#5,390.0,1.0,64,68.5
1411,B-2,390.0,1.0,49,68.5
1412,E-3,390.0,1.0,49,68.5
1413,B-3,390.0,1.0,49,68.5
1414,E-4,390.5,0.95,58,68.5
1415,D4,391.0,1.0,68,68.5
1416,D5,391.0,1.0,68,68.5
1417,B2,391.0,1.0,53,68.5
1418,E-3,391.0,1.0,53,68.5
1419,B3,391.0,1.0,53,68.5
1420,E-4,391.5,0.475,62,68.5
1421,E-4,392.0,0.95,30,68.5
1422,E-5,392.0,2.0,77,68.5
1423,C4,392.0,1.0,53,68.5
1424,C3,392.0,2.0,64,68.5
1425,E-3,392.0,2.0,64,68.5
1426,G#3,392.5,1.0,53,68.5
1427,E-4,393.0,0.95,58,68.5
1428,G#3,393.5,1.0,53,68.5
1429,C#5,394.0,2.0,69,68.5
1430,C#4,394.0,0.95,30,68.5
1431,E-4,394.0,0.95,30,68.5
1432,B-2,394.0,2.0,52,68.5
1433,E-3,394.0,2.0,52,68.5
1434,G3,394.5,1.0,53,68.5
1435,C#4,395.0,0.95,58,68.5
1436,E-4,395.0,0.95,58,68.5
1437,G3,395.5,1.0,53,68.5
1438,C5,396.0,2.0,65,68.5
1439,G#2,396.0,2.0,55,68.5
1440,C4,396.0,0.95,30,68.5
1441,E-4,396.0,0.95,30,68.5
1442,G#3,396.5,1.0,53,68.5
1443,C4,397.0,0.95,52,68.5
1444,E4,397.0,0.95,52,68.5
1445,G#3,397.5,1.5,53,68.5
1446,F4,398.0,1.5,30,68.5
1447,B-4,398.0,0.5,62,68.5
1448,C#3,398.0,2.0,48,68.5
1449,C5,398.5,0.5,64,68.5
1450,A3,398.5,0.5,53,68.5
1451,C#5,399.0,0.75,67,68.5
1452,B-3,399.0,0.5,53,68.5
1453,F4,399.5,0.5,49,68.5
1454,C#4,399.5,1.5,53,68.5
1455,B-4,399.75,0.25,69,68.5
1456,E-4,400.0,3.0,30,68.5
1457,G#4,400.0,1.0,70,68.5
1458,E-3,400.0,2.0,58,68.5
1459,E-5,400.5,0.95,58,68.5
1460,A4,401.0,1.0,71,68.5
1461,C4,401.0,1.0,53,68.5
1462,E-5,401.5,0.95,58,68.5
1463,B-4,402.0,1.0,73,68.5
1464,C#4,402.0,1.0,53,68.5
1465,E-3,402.0,2.0,52,68.5
1466,E-5,402.5,0.95,43,68.5
1467,G4,403.0,1.0,51,68.5
1468,B-3,403.0,1.0,46,68.5
1469,C#4,403.0,1.0,46,68.5
1470,E-5,403.5,0.5,43,68.5
1471,G#4,404.0,1.0,57,68.5
1472,C4,404.0,0.475,30,68.5
1473,E-4,404.0,0.475,30,68.5
1474,G#2,404.0,1.0,40,68.5
1475,G#3,404.0,1.0,40,68.5
1476,E-4,404.5,0.95,30,68.5
1477,C3,405.0,1.0,36,68.5
1478,E-4,405.5,0.95,30,68.5
1479,E-3,406.0,1.0,36,68.5
1480,E-4,406.5,0.95,30,68.5
1481,G#3,407.0,1.0,36,68.5
1482,E-4,407.5,0.95,30,68.5
1483,G3,408.0,1.0,40,68.5
1484,B-4,408.0,2.0,57,68.5
1485,C#5,408.0,2.0,57,68.5
1486,E-4,408.5,0.95,30,68.5
1487,F3,409.0,1.0,36,68.5
1488,E-4,409.5,0.95,30,68.5
1489,E-3,410.0,1.0,36,68.5
1490,B-4,410.0,2.0,57,68.5
1491,C#5,410.0,2.0,57,68.5
1492,E-4,410.5,0.95,30,68.5
1493,G3,411.0,1.0,39,68.5
1494,E-4,411.5,0.95,30,68.5
1495,G#3,412.0,1.0,40,68.5
1496,G#4,412.0,1.0,61,68.5
1497,C5,412.0,1.0,61,68.5
1498,E-4,412.5,0.95,30,68.5
1499,E-3,413.0,1.0,36,68.5
1500,E-4,413.5,0.95,30,68.5
1501,C3,414.0,1.0,36,68.5
1502,E-4,414.5,0.95,30,68.5
1503,G#2,415.0,1.0,33,68.5
1504,E-4,415.5,0.95,30,68.5
1505,G2,416.0,1.0,40,68.5
1506,C#4,416.0,2.0,57,68.5
1507,B-4,416.0,2.0,57,68.5
1508,E-4,416.5,0.95,30,68.5
1509,F2,417.0,1.0,37,68.5
1510,E-4,417.5,0.95,30,68.5
1511,E-2,418.0,1.0,40,68.5
1512,C#4,418.0,2.0,57,68.5
1513,B-4,418.0,2.0,57,68.5
1514,E-4,418.5,0.95,30,68.5
1515,G2,419.0,1.0,38,68.5
1516,E-4,419.5,0.5,30,68.5
1517,G#2,420.0,1.0,40,68.5
1518,C4,420.0,0.5,41,68.5
1519,G#4,420.0,0.5,41,68.5
1520,E-4,420.5,0.95,28,68.5
1521,E-3,420.5,0.95,28,68.5
1522,E-2,421.0,1.0,36,68.5
1523,E-4,421.5,0.95,28,68.5
1524,E-3,421.5,0.95,28,68.5
1525,C2,422.0,1.0,36,68.5
1526,E-4,422.5,0.95,28,68.5
1527,E-3,422.5,0.95,28,68.5
1528,G#3,423.0,1.0,46,68.5
1529,C4,423.0,1.0,46,68.5
1530,G#1,423.0,1.0,33,68.5
1531,G#2,423.0,1.0,33,68.5
1532,E-4,423.5,0.95,28,68.5
1533,E-3,423.5,0.95,28,68.5
1534,B-3,424.0,1.0,52,68.5
1535,C#4,424.0,1.0,52,68.5
1536,G1,424.0,1.0,37,68.5
1537,G2,424.0,1.0,37,68.5
1538,E-4,424.5,1.0,28,68.5
1539,E-3,424.5,1.0,28,68.5
1540,F1,425.0,1.0,33,68.5
1541,F2,425.0,1.0,33,68.5
1542,E-4,425.5,0.95,28,68.5
1543,E-3,425.5,0.95,28,68.5
1544,B-3,426.0,1.0,48,68.5
1545,C#4,426.0,1.0,48,68.5
1546,G1,426.0,1.0,33,68.5
1547,G2,426.0,1.0,33,68.5
1548,E-4,426.5,1.0,28,68.5
1549,E-3,426.5,1.0,28,68.5
1550,E-2,427.0,1.0,39,68.5
1551,E-4,427.5,0.95,28,68.5
1552,E-3,427.5,0.95,28,68.5
1553,G#1,428.0,1.0,40,68.5
1554,G#3,428.0,0.475,51,68.5
1555,C4,428.0,0.475,51,68.5
1556,E-4,428.5,0.95,26,68.5
1557,C4,428.5,0.95,26,68.5
1558,G#3,428.5,0.95,26,68.5
1559,E-3,428.5,0.95,26,68.5
1560,G#2,429.0,4.0,35,68.5
1561,E-4,429.5,0.95,25,68.5
1562,C4,429.5,0.95,25,68.5
1563,G#3,429.5,0.95,25,68.5
1564,E-3,429.5,0.95,25,68.5
1565,E-2,430.0,1.0,34,68.5
1566,E-4,430.5,0.95,25,68.5
1567,C4,430.5,0.95,25,68.5
1568,G#3,430.5,0.95,25,68.5
1569,E-3,430.5,0.95,25,68.5
1570,C2,431.0,1.0,31,68.5
1571,E-4,431.5,0.95,24,68.5
1572,G#3,431.5,0.95,24,68.5
1573,E-3,431.5,0.95,24,68.5
1574,C4,431.5,0.95,24,68.5
1575,G#1,432.0,1.0,31,68.5
1576,C4,432.5,0.95,24,68.5
1577,G#3,432.5,0.95,24,68.5
1578,E-3,432.5,0.95,24,68.5
1579,G#2,433.0,4.0,33,68.5
1580,C4,433.5,0.95,24,68.5
1581,G#3,433.5,0.95,24,68.5
1582,E-3,433.5,0.95,24,68.5
1583,E-2,434.0,1.0,35,68.5
1584,C4,434.5,0.95,23,68.5
1585,G#3,434.5,0.95,23,68.5
1586,E-3,434.5,0.95,23,68.5
1587,C2,435.0,1.0,33,68.5
1588,C4,435.5,0.95,23,68.5
1589,G#3,435.5,0.95,23,68.5
1590,E-3,435.5,0.95,23,68.5
1591,G#1,436.0,1.0,29,68.5
1592,G#3,436.5,0.95,22,68.5
1593,E-3,436.5,0.95,22,68.5
1594,C3,436.5,0.95,22,68.5
1595,G#2,437.0,4.0,31,68.5
1596,G#3,437.5,0.95,21,68.5
1597,E-3,437.5,0.95,21,68.5
1598,C3,437.5,0.95,21,68.5
1599,E-2,438.0,1.0,32,68.5
1600,G#3,438.5,0.95,21,68.5
1601,E-3,438.5,0.95,21,68.5
1602,C3,438.5,0.95,21,68.5
1603,C2,439.0,1.0,30,68.5
1604,G#3,439.5,1.0,20,68.5
1605,E-3,439.5,1.0,20,68.5
1606,C3,439.5,1.0,20,68.5
1607,G#1,440.0,1.0,26,68.5
1608,G#1,442.0,1.0,24,68.5
1609,C3,442.0,1.0,24,68.5
1610,E-3,442.0,1.0,24,68.5
1611,G#1,444.0,4.0,25,68.5
1612,G#2,444.0,4.0,21,68.5
1613,C3,444.0,4.0,21,68.5
,note_name,start_time,duration,velocity,tempo
0,C4,1.5,0.5,40,203.5
1,C3,1.5,0.5,36,203.5
2,B3,2.0,0.5,45,203.5
3,B2,2.0,0.5,38,203.5
4,C4,2.5,0.5,40,203.5
5,C3,2.5,0.5,35,203.5
6,F4,3.0,0.25,45,203.5
7,F3,3.0,0.25,38,203.5
8,F4,3.5,0.25,38,203.5
9,F3,3.5,0.25,34,203.5
10,E-4,4.0,1.0,45,203.5
11,E-3,4.0,1.0,38,203.5
12,C4,5.5,0.5,40,203.5
13,C3,5.5,0.5,36,203.5
14,B3,6.0,0.5,45,203.5
15,B2,6.0,0.5,38,203.5
16,C4,6.5,0.5,40,203.5
17,C3,6.5,0.5,35,203.5
18,G#4,7.0,0.25,45,203.5
19,G#3,7.0,0.25,38,203.5
20,G#4,7.5,0.25,38,203.5
21,G#3,7.5,0.25,34,203.5
22,G4,8.0,1.0,45,203.5
23,G3,8.0,1.0,38,203.5
24,C4,9.5,0.5,40,203.5
25,B3,10.0,0.5,45,203.5
26,C4,10.5,0.5,40,203.5
27,C5,11.0,0.25,45,203.5
28,C5,11.5,0.25,38,203.5
29,C5,12.0,0.5,45,203.5
30,G#3,12.0,4.0,38,203.5
31,C4,12.0,4.0,38,203.5
32,F#4,12.0,4.0,38,203.5
33,D5,12.5,0.125,45,203.5
34,C5,12.625,0.125,45,203.5
35,B4,12.75,0.125,40,203.5
36,C5,12.875,0.125,45,203.5
37,E-5,13.0,0.5,50,203.5
38,D5,13.5,0.5,45,203.5
39,F5,14.0,0.5,56,203.5
40,E-5,14.5,0.5,53,203.5
41,D5,15.0,0.5,50,203.5
42,C5,15.5,0.5,47,203.5
43,B4,16.0,1.0,51,203.5
44,G4,16.0,1.0,34,203.5
45,D4,16.0,1.0,34,203.5
46,G3,16.0,1.0,34,203.5
47,G3,17.5,0.5,40,203.5
48,G2,17.5,0.5,36,203.5
49,F#3,18.0,0.5,45,203.5
50,F#2,18.0,0.5,38,203.5
51,G3,18.5,0.5,40,203.5
52,G2,18.5,0.5,35,203.5
53,C4,19.0,0.25,45,203.5
54,C3,19.0,0.25,38,203.5
55,C4,19.5,0.25,38,203.5
56,C3,19.5,0.25,34,203.5
57,B3,20.0,1.0,45,203.5
58,B2,20.0,1.0,38,203.5
59,G3,21.5,0.5,40,203.5
60,G2,21.5,0.5,36,203.5
61,F#3,22.0,0.5,45,203.5
62,F#2,22.0,0.5,38,203.5
63,G3,22.5,0.5,40,203.5
64,G2,22.5,0.5,35,203.5
65,E-4,23.0,0.25,45,203.5
66,E-3,23.0,0.25,38,203.5
67,E-4,23.5,0.25,38,203.5
68,E-3,23.5,0.25,34,203.5
69,D4,24.0,1.0,45,203.5
70,D3,24.0,1.0,38,203.5
71,G3,25.5,0.25,45,203.5
72,G2,25.5,0.25,37,203.5
73,B3,26.0,0.25,51,203.5
74,B2,26.0,0.25,43,203.5
75,D4,26.5,0.25,45,203.5
76,D3,26.5,0.25,37,203.5
77,F4,27.0,0.25,45,203.5
78,F3,27.0,0.25,37,203.5
79,G#4,27.5,0.25,45,203.5
80,G#3,27.5,0.25,37,203.5
81,B4,28.0,0.25,55,203.5
82,B3,28.0,0.25,46,203.5
83,D5,28.5,0.25,53,203.5
84,D4,28.5,0.25,45,203.5
85,F5,29.0,0.25,56,203.5
86,F4,29.0,0.25,47,203.5
87,G#5,29.5,0.25,60,203.5
88,G#4,29.5,0.25,50,203.5
89,G5,30.0,0.25,63,203.5
90,G4,30.0,0.25,53,203.5
91,F5,30.5,0.25,59,203.5
92,F4,30.5,0.25,50,203.5
93,E-5,31.0,0.25,55,203.5
94,E-4,31.0,0.25,46,203.5
95,D5,31.5,0.25,54,203.5
96,D4,31.5,0.25,45,203.5
97,C5,32.0,1.0,62,203.5
98,C4,32.0,0.25,42,203.5
99,E-4,32.5,0.25,35,203.5
100,G4,32.5,0.25,35,203.5
101,E-4,33.0,0.25,35,203.5
102,G4,33.0,0.25,35,203.5
103,C5,33.5,0.5,50,203.5
104,E-4,33.5,0.25,35,203.5
105,G4,33.5,0.25,35,203.5
106,B4,34.0,0.5,57,203.5
107,C4,34.0,0.25,42,203.5
108,C5,34.5,0.5,53,203.5
109,E4,34.5,0.25,33,203.5
110,G4,34.5,0.25,33,203.5
111,B-4,34.5,0.25,33,203.5
112,C6,35.0,0.25,60,203.5
113,E4,35.0,0.25,33,203.5
114,G4,35.0,0.25,33,203.5
115,B-4,35.0,0.25,33,203.5
116,C6,35.5,0.25,52,203.5
117,E4,35.5,0.25,33,203.5
118,G4,35.5,0.25,33,203.5
119,B-4,35.5,0.25,33,203.5
120,C6,36.0,1.0,60,203.5
121,C4,36.0,0.25,42,203.5
122,F4,36.5,0.25,35,203.5
123,G#4,36.5,0.25,35,203.5
124,F4,37.0,0.25,35,203.5
125,G#4,37.0,0.25,35,203.5
126,F6,37.5,0.5,59,203.5
127,F4,37.5,0.25,35,203.5
128,G#4,37.5,0.25,35,203.5
129,E-6,38.0,0.5,65,203.5
130,C4,38.0,0.25,42,203.5
131,D6,38.5,0.5,60,203.5
132,F4,38.5,0.25,33,203.5
133,G#4,38.5,0.25,33,203.5
134,B4,38.5,0.25,33,203.5
135,C6,39.0,0.5,66,203.5
136,F4,39.0,0.25,33,203.5
137,G#4,39.0,0.25,33,203.5
138,B4,39.0,0.25,33,203.5
139,B5,39.5,0.5,60,203.5
140,F4,39.5,0.25,33,203.5
141,G#4,39.5,0.25,33,203.5
142,B4,39.5,0.25,33,203.5
143,D6,40.0,0.5,69,203.5
144,C4,40.0,0.25,42,203.5
145,C6,40.5,0.5,60,203.5
146,E-4,40.5,0.25,35,203.5
147,G4,40.5,0.25,35,203.5
148,E-4,41.0,0.25,35,203.5
149,G4,41.0,0.25,35,203.5
150,C5,41.5,0.5,50,203.5
151,E-4,41.5,0.25,35,203.5
152,G4,41.5,0.25,35,203.5
153,B4,42.0,0.5,57,203.5
154,C4,42.0,0.25,42,203.5
155,C5,42.5,0.5,53,203.5
156,E4,42.5,0.25,33,203.5
157,G4,42.5,0.25,33,203.5
158,B-4,42.5,0.25,33,203.5
159,C6,43.0,0.25,60,203.5
160,E4,43.0,0.25,33,203.5
161,G4,43.0,0.25,33,203.5
162,B-4,43.0,0.25,33,203.5
163,C6,43.5,0.25,52,203.5
164,E4,43.5,0.25,33,203.5
165,G4,43.5,0.25,33,203.5
166,B-4,43.5,0.25,33,203.5
167,C6,44.0,1.0,60,203.5
168,C4,44.0,0.25,42,203.5
169,F4,44.5,0.25,35,203.5
170,G#4,44.5,0.25,35,203.5
171,D6,45.0,0.125,60,203.5
172,F4,45.0,0.25,35,203.5
173,G#4,45.0,0.25,35,203.5
174,C6,45.125,0.125,60,203.5
175,B5,45.25,0.125,60,203.5
176,C6,45.375,0.125,60,203.5
177,F6,45.5,0.5,59,203.5
178,F4,45.5,0.25,35,203.5
179,G#4,45.5,0.25,35,203.5
180,E-6,46.0,0.5,65,203.5
181,C4,46.0,0.25,42,203.5
182,D6,46.5,0.5,60,203.5
183,F4,46.5,0.25,33,203.5
184,G#4,46.5,0.25,33,203.5
185,B4,46.5,0.25,33,203.5
186,C6,47.0,0.5,66,203.5
187,F4,47.0,0.25,33,203.5
188,G#4,47.0,0.25,33,203.5
189,B4,47.0,0.25,33,203.5
190,B5,47.5,0.5,60,203.5
191,F4,47.5,0.25,33,203.5
192,G#4,47.5,0.25,33,203.5
193,B4,47.5,0.25,33,203.5
194,C6,48.0,0.25,69,203.5
195,C4,48.0,0.985,38,203.5
196,E-4,48.0,0.985,38,203.5
197,G4,48.0,0.985,38,203.5
198,C5,48.0,0.985,38,203.5
199,D6,48.25,0.25,63,203.5
200,C6,48.5,0.25,63,203.5
201,B5,48.75,0.25,63,203.5
202,C6,49.0,0.25,69,203.5
203,E-6,49.25,0.25,73,203.5
204,D6,49.5,0.25,72,203.5
205,F#4,49.5,0.5,42,203.5
206,C6,49.75,0.25,71,203.5
207,B5,50.0,0.25,72,203.5
208,G4,50.0,1.0,52,203.5
209,C6,50.25,0.25,65,203.5
210,B5,50.5,0.25,65,203.5
211,G#5,50.75,0.25,65,203.5
212,G5,51.0,0.25,69,203.5
213,F5,51.25,0.25,63,203.5
214,E-5,51.5,0.25,63,203.5
215,B3,51.5,0.5,48,203.5
216,D5,51.75,0.25,63,203.5
217,C5,52.0,0.25,69,203.5
218,C4,52.0,1.0,57,203.5
219,D5,52.25,0.25,63,203.5
220,C5,52.5,0.25,63,203.5
221,B4,52.75,0.25,61,203.5
222,C5,53.0,0.25,66,203.5
223,E-5,53.25,0.25,72,203.5
224,D5,53.5,0.25,70,203.5
225,F#3,53.5,0.5,54,203.5
226,C5,53.75,0.25,67,203.5
227,B4,54.0,0.25,69,203.5
228,G3,54.0,1.0,63,203.5
229,C5,54.25,0.25,63,203.5
230,B4,54.5,0.25,63,203.5
231,G#4,54.75,0.25,63,203.5
232,G4,55.0,0.25,69,203.5
233,F4,55.25,0.25,63,203.5
234,E-4,55.5,0.25,63,203.5
235,B2,55.5,0.5,57,203.5
236,D4,55.75,0.25,63,203.5
237,C4,56.0,0.25,77,203.5
238,C3,56.0,1.0,66,203.5
239,D4,56.25,0.25,69,203.5
240,C4,56.5,0.25,69,203.5
241,B3,56.75,0.25,69,203.5
242,C4,57.0,0.25,77,203.5
243,E-4,57.25,0.25,69,203.5
244,D4,57.5,0.25,69,203.5
245,F#2,57.5,0.5,58,203.5
246,C4,57.75,0.25,69,203.5
247,B3,58.0,0.25,77,203.5
248,G2,58.0,1.0,67,203.5
249,G4,58.25,0.25,69,203.5
250,D4,58.5,0.25,69,203.5
251,B3,58.75,0.25,69,203.5
252,G3,59.0,0.25,79,203.5
253,C2,59.0,0.5,89,203.5
254,C3,59.0,0.5,89,203.5
255,G4,59.25,0.25,69,203.5
256,E-4,59.5,0.25,69,203.5
257,C4,59.75,0.25,69,203.5
258,G3,60.0,0.25,81,203.5
259,G1,60.0,0.5,60,203.5
260,G2,60.0,0.5,60,203.5
261,G4,60.25,0.25,69,203.5
262,D4,60.5,0.25,69,203.5
263,B3,60.75,0.25,69,203.5
264,G3,61.0,0.25,80,203.5
265,C2,61.0,0.5,90,203.5
266,C3,61.0,0.5,90,203.5
267,G4,61.25,0.25,69,203.5
268,E-4,61.5,0.25,69,203.5
269,C4,61.75,0.25,69,203.5
270,G3,62.0,0.25,80,203.5
271,G1,62.0,0.5,62,203.5
272,G2,62.0,0.5,62,203.5
273,G4,62.25,0.25,69,203.5
274,D4,62.5,0.25,69,203.5
275,B3,62.75,0.25,69,203.5
276,G3,63.0,0.25,80,203.5
277,C2,63.0,0.5,90,203.5
278,C3,63.0,0.5,90,203.5
279,G4,63.25,0.25,69,203.5
280,E-4,63.5,0.25,69,203.5
281,C4,63.75,0.25,69,203.5
282,G3,64.0,2.0,78,203.5
283,B3,64.0,2.0,78,203.5
284,D4,64.0,2.0,78,203.5
285,G4,64.0,2.0,78,203.5
286,G1,64.0,2.0,69,203.5
287,B1,64.0,2.0,69,203.5
288,D2,64.0,2.0,69,203.5
289,G2,64.0,2.0,69,203.5
290,B-3,66.5,0.25,40,203.5
291,C4,67.0,0.25,37,203.5
292,D4,67.5,0.25,37,203.5
293,E-4,68.0,0.25,46,203.5
294,G3,68.0,2.0,39,203.5
295,B-3,68.0,2.0,39,203.5
296,E-2,68.0,2.0,28,203.5
297,E-3,68.0,2.0,28,203.5
298,F4,68.5,0.25,40,203.5
299,G4,69.0,0.25,40,203.5
300,B-3,70.0,0.25,40,203.5
301,D4,70.0,0.25,40,203.5
302,F4,70.0,0.25,40,203.5
303,G#2,70.0,0.25,28,203.5
304,G#3,70.0,0.25,28,203.5
305,B-3,71.0,0.25,36,203.5
306,E-4,71.0,0.25,36,203.5
307,G2,71.0,0.25,25,203.5
308,G3,71.0,0.25,25,203.5
309,G#3,72.0,2.0,39,203.5
310,B-3,72.0,2.0,39,203.5
311,D4,72.0,2.0,39,203.5
312,G#4,72.0,2.0,39,203.5
313,B-2,72.0,2.0,29,203.5
314,F2,72.0,2.0,29,203.5
315,F3,72.0,2.0,29,203.5
316,B-3,74.5,0.25,40,203.5
317,C4,75.0,0.25,37,203.5
318,D4,75.5,0.25,37,203.5
319,E-4,76.0,0.25,46,203.5
320,G3,76.0,2.0,39,203.5
321,B-3,76.0,2.0,39,203.5
322,E-2,76.0,2.0,28,203.5
323,E-3,76.0,2.0,28,203.5
324,F4,76.5,0.25,40,203.5
325,G4,77.0,0.25,40,203.5
326,F3,78.0,0.25,40,203.5
327,C4,78.0,0.25,40,203.5
328,F4,78.0,0.25,40,203.5
329,G#1,78.0,0.25,28,203.5
330,G#2,78.0,0.25,28,203.5
331,C4,79.0,0.25,35,203.5
332,F3,79.0,0.25,35,203.5
333,E-4,79.0,0.25,35,203.5
334,A1,79.0,0.25,25,203.5
335,A2,79.0,0.25,25,203.5
336,D3,80.0,2.0,33,203.5
337,F3,80.0,2.0,33,203.5
338,B-3,80.0,2.0,33,203.5
339,B-1,80.0,2.0,24,203.5
340,B-2,80.0,2.0,24,203.5
341,B-3,82.5,0.25,40,203.5
342,C4,83.0,0.25,37,203.5
343,D4,83.5,0.25,37,203.5
344,E-4,84.0,0.25,46,203.5
345,G3,84.0,2.0,39,203.5
346,B-3,84.0,2.0,39,203.5
347,E-2,84.0,2.0,28,203.5
348,E-3,84.0,2.0,28,203.5
349,F4,84.5,0.25,40,203.5
350,G4,85.0,0.25,40,203.5
351,B-3,86.0,0.25,40,203.5
352,D4,86.0,0.25,40,203.5
353,F4,86.0,0.25,40,203.5
354,G#2,86.0,0.25,28,203.5
355,G#3,86.0,0.25,28,203.5
356,B-3,87.0,0.25,36,203.5
357,E-4,87.0,0.25,36,203.5
358,G2,87.0,0.25,25,203.5
359,G3,87.0,0.25,25,203.5
360,G#2,87.781,1.156,32,203.5
361,C3,87.781,1.156,32,203.5
362,E-3,87.781,1.156,32,203.5
363,G#3,87.875,1.125,40,203.5
364,C4,87.906,2.031,53,203.5
365,E-4,87.906,2.031,53,203.5
366,G#4,87.906,2.031,53,203.5
367,C5,88.0,2.5,72,203.5
368,C5,90.5,0.25,48,203.5
369,B-4,91.0,0.25,53,203.5
370,G#4,91.5,0.25,50,203.5
371,G4,92.0,0.5,53,203.5
372,B-2,92.0,8.0,80,203.5
373,F4,92.5,0.5,48,203.5
374,E-4,93.0,0.25,48,203.5
375,D4,93.5,0.25,48,203.5
376,C4,94.0,1.0,53,203.5
377,F3,94.0,2.0,45,203.5
378,G#3,94.0,2.0,45,203.5
379,B-1,94.5,0.25,49,203.5
380,B-3,95.0,1.0,49,203.5
381,C2,95.0,0.25,53,203.5
382,D2,95.5,0.25,45,203.5
383,E-2,96.0,0.25,53,203.5
384,E-3,96.0,2.0,44,203.5
385,G3,96.0,2.0,44,203.5
386,B-3,96.0,2.0,44,203.5
387,F2,96.5,0.25,49,203.5
388,G2,97.0,0.25,51,203.5
389,F2,98.0,1.0,53,203.5
390,B-4,98.5,0.25,48,203.5
391,G#4,99.0,0.25,53,203.5
392,E-2,99.0,1.0,50,203.5
393,G4,99.5,0.25,50,203.5
394,G4,100.0,0.5,53,203.5
395,B-2,100.0,8.0,80,203.5
396,F4,100.5,0.5,48,203.5
397,E-4,101.0,0.25,48,203.5
398,D4,101.5,0.25,48,203.5
399,C4,102.0,1.0,53,203.5
400,F3,102.0,2.0,45,203.5
401,G#3,102.0,2.0,45,203.5
402,B-1,102.5,0.25,49,203.5
403,B-3,103.0,1.0,49,203.5
404,C2,103.0,0.25,53,203.5
405,D2,103.5,0.25,45,203.5
406,E-2,104.0,0.25,53,203.5
407,E-3,104.0,2.0,54,203.5
408,G3,104.0,2.0,54,203.5
409,B-3,104.0,2.0,54,203.5
410,F2,104.5,0.25,49,203.5
411,G2,105.0,0.25,51,203.5
412,F2,106.0,1.0,53,203.5
413,B-5,106.5,0.25,48,203.5
414,B-4,106.5,0.25,48,203.5
415,E-2,107.0,1.0,50,203.5
416,G#5,107.0,0.25,53,203.5
417,G#4,107.0,0.25,53,203.5
418,G5,107.5,0.25,50,203.5
419,G4,107.5,0.25,50,203.5
420,G5,108.0,0.5,55,203.5
421,G4,108.0,0.5,55,203.5
422,G#2,108.0,1.0,48,203.5
423,C3,108.0,1.0,48,203.5
424,F3,108.0,1.0,48,203.5
425,F5,108.5,0.5,48,203.5
426,F4,108.5,0.5,48,203.5
427,E-5,109.0,0.25,48,203.5
428,E-4,109.0,0.25,48,203.5
429,D5,109.5,0.25,48,203.5
430,D4,109.5,0.25,48,203.5
431,C4,110.0,0.25,55,203.5
432,C5,110.0,0.25,55,203.5
433,B-2,110.0,1.0,45,203.5
434,F3,110.0,1.0,45,203.5
435,G#3,110.0,1.0,45,203.5
436,B-3,110.5,0.25,48,203.5
437,B-4,110.5,0.25,48,203.5
438,C4,111.0,0.25,48,203.5
439,C5,111.0,0.25,48,203.5
440,D4,111.5,0.25,48,203.5
441,D5,111.5,0.25,48,203.5
442,E-4,112.0,0.25,48,203.5
443,G3,112.0,1.0,54,203.5
444,E-3,112.0,1.0,54,203.5
445,E-5,112.25,0.25,43,203.5
446,E-4,112.5,0.25,48,203.5
447,E-5,112.75,0.25,42,203.5
448,E-4,113.0,0.25,49,203.5
449,E-5,113.25,0.25,43,203.5
450,E-4,113.5,0.25,50,203.5
451,E-3,113.5,0.5,54,203.5
452,E-5,113.75,0.25,45,203.5
453,E-4,114.0,0.25,51,203.5
454,D3,114.0,0.5,60,203.5
455,E-5,114.25,0.25,44,203.5
456,E-4,114.5,0.25,52,203.5
457,E-3,114.5,0.5,55,203.5
458,E-5,114.75,0.25,47,203.5
459,E-4,115.0,0.25,53,203.5
460,C3,115.0,0.25,57,203.5
461,G#3,115.0,0.25,57,203.5
462,E-5,115.25,0.25,47,203.5
463,E-4,115.5,0.25,53,203.5
464,C3,115.5,0.25,52,203.5
465,G#3,115.5,0.25,52,203.5
466,E-5,115.75,0.25,47,203.5
467,E-4,116.0,0.25,54,203.5
468,G3,116.0,1.0,60,203.5
469,B-2,116.0,1.0,60,203.5
470,E-5,116.25,0.25,48,203.5
471,E-4,116.5,0.25,55,203.5
472,E-5,116.75,0.25,48,203.5
473,E-4,117.0,0.25,55,203.5
474,E-5,117.25,0.25,48,203.5
475,E-4,117.5,0.25,56,203.5
476,E-3,117.5,0.5,61,203.5
477,E-5,117.75,0.25,51,203.5
478,E-4,118.0,0.25,57,203.5
479,D3,118.0,0.5,68,203.5
480,E-5,118.25,0.25,49,203.5
481,E-4,118.5,0.25,58,203.5
482,E-3,118.5,0.5,63,203.5
483,E-5,118.75,0.25,53,203.5
484,E-4,119.0,0.25,59,203.5
485,G#3,119.0,0.25,64,203.5
486,C4,119.0,0.25,64,203.5
487,E-5,119.25,0.25,54,203.5
488,E-4,119.5,0.25,60,203.5
489,G#3,119.5,0.25,59,203.5
490,C4,119.5,0.25,59,203.5
491,E-5,119.75,0.25,54,203.5
492,E-4,120.0,1.0,70,203.5
493,E-5,120.0,1.0,70,203.5
494,B-3,120.0,0.5,71,203.5
495,G3,120.0,0.5,71,203.5
496,E-3,120.5,0.25,62,203.5
497,E-4,120.75,0.25,54,203.5
498,E-3,121.0,0.25,63,203.5
499,E-4,121.25,0.25,56,203.5
500,E-5,121.5,0.5,74,203.5
501,E-3,121.5,0.25,63,203.5
502,E-4,121.75,0.25,57,203.5
503,D5,122.0,0.5,84,203.5
504,E-3,122.0,0.25,63,203.5
505,E-4,122.25,0.25,55,203.5
506,E-5,122.5,0.5,77,203.5
507,E-3,122.5,0.25,64,203.5
508,E-4,122.75,0.25,59,203.5
509,E-3,123.0,0.25,65,203.5
510,C6,123.0,0.25,86,203.5
511,G#5,123.0,0.25,86,203.5
512,E-4,123.25,0.25,58,203.5
513,E-3,123.5,0.25,66,203.5
514,G#5,123.5,0.25,79,203.5
515,C6,123.5,0.25,79,203.5
516,E-4,123.75,0.25,61,203.5
517,G#5,124.0,1.0,92,203.5
518,C6,124.0,1.25,92,203.5
519,D3,124.0,3.944,52,203.5
520,F3,124.0,3.944,52,203.5
521,G#3,124.0,3.944,52,203.5
522,B-3,124.0,3.944,52,203.5
523,D4,124.0,3.944,52,203.5
524,B-5,125.25,0.25,74,203.5
525,G#5,125.5,0.25,73,203.5
526,G5,125.75,0.25,72,203.5
527,F5,126.0,0.25,72,203.5
528,E-5,126.25,0.25,72,203.5
529,D5,126.5,0.25,71,203.5
530,C5,126.75,0.25,70,203.5
531,B4,127.0,0.25,69,203.5
532,B-4,127.25,0.25,68,203.5
533,A4,127.5,0.25,67,203.5
534,G#4,127.75,0.25,66,203.5
535,G4,128.0,0.333,66,203.5
536,E-3,128.0,1.0,53,203.5
537,G3,128.0,1.0,53,203.5
538,B-3,128.0,1.0,53,203.5
539,E-4,128.0,1.0,53,203.5
540,G#4,128.333,0.333,62,203.5
541,B-4,128.667,0.333,62,203.5
542,G#4,129.0,0.333,66,203.5
543,G4,129.333,0.333,62,203.5
544,F4,129.667,0.333,62,203.5
545,E-4,130.0,0.333,66,203.5
546,D4,130.333,0.333,62,203.5
547,C4,130.667,0.333,62,203.5
548,B-3,131.0,0.333,66,203.5
549,G#3,131.333,0.333,60,203.5
550,G3,131.667,0.333,63,203.5
551,G#1,132.0,0.5,73,203.5
552,G#2,132.0,0.5,73,203.5
553,F3,132.25,0.25,59,203.5
554,G#3,132.5,0.25,63,203.5
555,C4,132.75,0.25,67,203.5
556,F4,133.0,0.5,72,203.5
557,G#1,133.5,0.25,63,203.5
558,G#2,133.5,0.25,63,203.5
559,B-1,134.0,0.5,70,203.5
560,B-2,134.0,0.5,70,203.5
561,F3,134.25,0.25,63,203.5
562,G#3,134.5,0.25,66,203.5
563,B-3,134.75,0.25,69,203.5
564,D4,135.0,0.5,72,203.5
565,B-1,135.5,0.25,63,203.5
566,B-2,135.5,0.25,63,203.5
567,D5,136.0,0.25,67,203.5
568,D6,136.25,0.25,60,203.5
569,D5,136.5,0.25,67,203.5
570,G#4,136.5,0.25,63,203.5
571,D6,136.75,0.25,60,203.5
572,B-4,136.75,0.25,65,203.5
573,D5,137.0,0.25,67,203.5
574,C5,137.0,0.25,69,203.5
575,D6,137.25,0.25,59,203.5
576,B-4,137.25,0.25,67,203.5
577,D5,137.5,0.25,67,203.5
578,G#4,137.5,0.25,65,203.5
579,D6,137.75,0.25,61,203.5
580,G4,137.75,0.25,64,203.5
581,D5,138.0,0.25,67,203.5
582,F4,138.0,0.333,67,203.5
583,D6,138.25,0.25,59,203.5
584,E-4,138.333,0.333,61,203.5
585,D5,138.5,0.25,67,203.5
586,D4,138.667,0.333,61,203.5
587,D6,138.75,0.25,59,203.5
588,D5,139.0,0.25,67,203.5
589,C4,139.0,0.333,67,203.5
590,D6,139.25,0.25,59,203.5
591,B-3,139.333,0.333,62,203.5
592,D5,139.5,0.25,67,203.5
593,G#3,139.667,0.333,62,203.5
594,D6,139.75,0.25,60,203.5
595,E-5,140.0,0.25,67,203.5
596,G3,140.0,0.333,67,203.5
597,E-6,140.25,0.25,60,203.5
598,G#3,140.333,0.333,63,203.5
599,E-5,140.5,0.25,69,203.5
600,B-3,140.667,0.333,63,203.5
601,E-6,140.75,0.25,62,203.5
602,E-5,141.0,0.25,71,203.5
603,G#3,141.0,0.333,67,203.5
604,E-6,141.25,0.25,63,203.5
605,G3,141.333,0.333,60,203.5
606,E-5,141.5,0.25,72,203.5
607,F3,141.667,0.333,60,203.5
608,E-6,141.75,0.25,67,203.5
609,E-5,142.0,0.25,75,203.5
610,E-3,142.0,0.333,70,203.5
611,E-6,142.25,0.25,67,203.5
612,D3,142.333,0.333,63,203.5
613,E-5,142.5,0.25,77,203.5
614,C3,142.667,0.333,66,203.5
615,E-6,142.75,0.25,69,203.5
616,E5,143.0,0.25,80,203.5
617,B-2,143.0,0.333,74,203.5
618,E6,143.25,0.25,71,203.5
619,G#2,143.333,0.333,67,203.5
620,E5,143.5,0.25,81,203.5
621,G2,143.667,0.333,67,203.5
622,E6,143.75,0.25,73,203.5
623,G#1,144.0,0.5,73,203.5
624,G#2,144.0,0.5,73,203.5
625,F5,144.25,0.25,71,203.5
626,G#5,144.5,0.25,76,203.5
627,C6,144.75,0.25,81,203.5
628,F6,145.0,0.5,86,203.5
629,G#1,145.5,0.25,63,203.5
630,G#2,145.5,0.25,63,203.5
631,B-1,146.0,0.5,70,203.5
632,B-2,146.0,0.5,70,203.5
633,D5,146.25,0.25,75,203.5
634,F5,146.5,0.25,79,203.5
635,G#5,146.75,0.25,82,203.5
636,D6,147.0,0.5,86,203.5
637,B-1,147.5,0.25,63,203.5
638,B-2,147.5,0.25,63,203.5
639,E-5,148.0,1.0,84,203.5
640,B-5,148.0,1.0,84,203.5
641,G5,148.0,1.0,84,203.5
642,E-6,148.0,1.0,84,203.5
643,E-2,148.0,1.0,62,203.5
644,G2,148.0,1.0,62,203.5
645,B-2,148.0,1.0,62,203.5
646,E-3,148.0,1.0,62,203.5
647,B-5,149.0,0.25,63,203.5
648,E4,149.0,0.25,58,203.5
649,G4,149.0,0.25,58,203.5
650,B-5,149.5,0.25,63,203.5
651,E4,149.5,0.25,58,203.5
652,G4,149.5,0.25,58,203.5
653,B-5,150.0,0.5,70,203.5
654,F4,150.0,0.5,64,203.5
655,G#4,150.0,0.5,64,203.5
656,B-5,151.0,0.25,63,203.5
657,E4,151.0,0.25,58,203.5
658,G4,151.0,0.25,58,203.5
659,B-5,151.5,0.25,63,203.5
660,E4,151.5,0.25,58,203.5
661,G4,151.5,0.25,58,203.5
662,B-5,152.0,0.5,69,203.5
663,F4,152.0,0.5,64,203.5
664,G#4,152.0,0.5,64,203.5
665,F3,153.0,0.5,64,203.5
666,G#3,153.0,0.5,64,203.5
667,D4,153.0,0.5,64,203.5
668,B-1,153.0,0.5,68,203.5
669,B-2,153.0,0.5,68,203.5
670,F3,155.0,0.25,35,203.5
671,G#3,155.0,0.25,35,203.5
672,D4,155.0,0.25,35,203.5
673,B1,155.0,0.25,33,203.5
674,B2,155.0,0.25,33,203.5
675,G3,156.0,0.25,41,203.5
676,E-4,156.0,0.25,41,203.5
677,C2,156.0,0.25,35,203.5
678,C3,156.0,0.25,35,203.5
679,C4,157.0,0.25,37,203.5
680,E-4,157.0,0.25,37,203.5
681,F4,157.0,0.25,37,203.5
682,A1,157.0,0.25,33,203.5
683,A2,157.0,0.25,33,203.5
684,B-3,158.0,0.25,40,203.5
685,E-4,158.0,0.25,40,203.5
686,G4,158.0,0.25,40,203.5
687,B-1,158.0,0.25,35,203.5
688,B-2,158.0,0.25,35,203.5
689,G#3,159.0,0.25,35,203.5
690,D4,159.0,0.25,35,203.5
691,F4,159.0,0.25,35,203.5
692,B-1,159.0,0.25,30,203.5
693,B-2,159.0,0.25,30,203.5
694,G3,160.0,0.25,41,203.5
695,E-4,160.0,0.25,41,203.5
696,E-2,160.0,0.25,35,203.5
697,E-3,160.0,0.25,35,203.5
698,B-5,161.0,0.25,63,203.5
699,E4,161.0,0.25,58,203.5
700,G4,161.0,0.25,58,203.5
701,C6,161.25,0.25,59,203.5
702,B-5,161.5,0.25,63,203.5
703,E4,161.5,0.25,58,203.5
704,G4,161.5,0.25,58,203.5
705,A5,161.75,0.25,59,203.5
706,B-5,162.0,0.5,70,203.5
707,F4,162.0,0.5,64,203.5
708,G#4,162.0,0.5,64,203.5
709,B-5,163.0,0.25,63,203.5
710,E4,163.0,0.25,58,203.5
711,G4,163.0,0.25,58,203.5
712,C6,163.25,0.25,58,203.5
713,B-5,163.5,0.25,63,203.5
714,E4,163.5,0.25,58,203.5
715,G4,163.5,0.25,58,203.5
716,A5,163.75,0.25,57,203.5
717,B-5,164.0,0.5,69,203.5
718,F4,164.0,0.5,64,203.5
719,G#4,164.0,0.5,64,203.5
720,F3,165.0,0.5,64,203.5
721,G#3,165.0,0.5,64,203.5
722,D4,165.0,0.5,64,203.5
723,B-1,165.0,0.5,68,203.5
724,B-2,165.0,0.5,68,203.5
725,E-3,167.0,2.0,58,203.5
726,F#3,167.0,2.0,58,203.5
727,A3,167.0,2.0,58,203.5
728,E-4,167.0,2.0,58,203.5
729,B1,167.0,2.0,58,203.5
730,E-2,167.0,2.0,58,203.5
731,F#2,167.0,2.0,58,203.5
732,B2,167.0,2.0,58,203.5
733,C4,169.0,0.25,37,203.5
734,E-4,169.0,0.25,37,203.5
735,F4,169.0,0.25,37,203.5
736,A1,169.0,0.25,33,203.5
737,A2,169.0,0.25,33,203.5
738,B-3,170.0,0.25,40,203.5
739,E-4,170.0,0.25,40,203.5
740,G4,170.0,0.25,40,203.5
741,B-1,170.0,0.25,35,203.5
742,B-2,170.0,0.25,35,203.5
743,G#3,171.0,0.25,35,203.5
744,D4,171.0,0.25,35,203.5
745,F4,171.0,0.25,35,203.5
746,B-1,171.0,0.25,30,203.5
747,B-2,171.0,0.25,30,203.5
748,E-2,172.0,0.5,32,203.5
749,G3,172.0,0.5,41,203.5
750,E-4,172.0,0.5,41,203.5
751,E-3,172.5,0.5,27,203.5
752,D4,173.0,0.5,33,203.5
753,G#4,173.0,0.5,33,203.5
754,E-4,173.5,0.5,30,203.5
755,G4,173.5,0.5,30,203.5
756,E-2,174.0,0.5,32,203.5
757,E-3,174.5,0.5,28,203.5
758,G#4,175.0,0.5,34,203.5
759,D5,175.0,0.5,34,203.5
760,G4,175.5,0.5,30,203.5
761,E-5,175.5,0.5,30,203.5
762,E-2,176.0,0.5,32,203.5
763,E-3,176.5,0.5,28,203.5
764,G#5,177.0,0.5,34,203.5
765,D5,177.0,0.5,34,203.5
766,E-5,177.5,0.5,30,203.5
767,G5,177.5,0.5,30,203.5
768,E-2,178.0,0.5,32,203.5
769,E-3,178.5,0.5,27,203.5
770,D6,179.0,0.5,40,203.5
771,G#5,179.0,0.5,40,203.5
772,G5,179.5,0.5,33,203.5
773,E-6,179.5,0.5,33,203.5
774,E-2,180.0,1.0,32,203.5
775,G3,181.0,1.0,51,203.5
776,B-3,181.0,1.0,51,203.5
777,E-4,181.0,1.0,51,203.5
778,C4,185.5,0.5,40,203.5
779,C3,185.5,0.5,36,203.5
780,B3,186.0,0.5,45,203.5
781,B2,186.0,0.5,38,203.5
782,C4,186.5,0.5,40,203.5
783,C3,186.5,0.5,35,203.5
784,F4,187.0,0.25,45,203.5
785,F3,187.0,0.25,38,203.5
786,F4,187.5,0.25,38,203.5
787,F3,187.5,0.25,34,203.5
788,E-4,188.0,1.0,45,203.5
789,E-3,188.0,1.0,38,203.5
790,C4,189.5,0.5,40,203.5
791,C3,189.5,0.5,36,203.5
792,B3,190.0,0.5,45,203.5
793,B2,190.0,0.5,38,203.5
794,C4,190.5,0.5,40,203.5
795,C3,190.5,0.5,35,203.5
796,G#4,191.0,0.25,45,203.5
797,G#3,191.0,0.25,38,203.5
798,G#4,191.5,0.25,38,203.5
799,G#3,191.5,0.25,34,203.5
800,G4,192.0,1.0,45,203.5
801,G3,192.0,1.0,38,203.5
802,C4,193.5,0.5,40,203.5
803,B3,194.0,0.5,45,203.5
804,C4,194.5,0.5,40,203.5
805,C5,195.0,0.25,45,203.5
806,C5,195.5,0.25,38,203.5
807,C5,196.0,0.5,45,203.5
808,G#3,196.0,4.0,38,203.5
809,C4,196.0,4.0,38,203.5
810,F#4,196.0,4.0,38,203.5
811,D5,196.5,0.125,45,203.5
812,C5,196.625,0.125,45,203.5
813,B4,196.75,0.125,40,203.5
814,C5,196.875,0.125,45,203.5
815,E-5,197.0,0.5,50,203.5
816,D5,197.5,0.5,45,203.5
817,F5,198.0,0.5,56,203.5
818,E-5,198.5,0.5,53,203.5
819,D5,199.0,0.5,50,203.5
820,C5,199.5,0.5,47,203.5
821,B4,200.0,1.0,51,203.5
822,G4,200.0,1.0,34,203.5
823,D4,200.0,1.0,34,203.5
824,G3,200.0,1.0,34,203.5
825,G3,201.5,0.5,40,203.5
826,G2,201.5,0.5,36,203.5
827,F#3,202.0,0.5,45,203.5
828,F#2,202.0,0.5,38,203.5
829,G3,202.5,0.5,40,203.5
830,G2,202.5,0.5,35,203.5
831,C4,203.0,0.25,45,203.5
832,C3,203.0,0.25,38,203.5
833,C4,203.5,0.25,38,203.5
834,C3,203.5,0.25,34,203.5
835,B3,204.0,1.0,45,203.5
836,B2,204.0,1.0,38,203.5
837,G3,205.5,0.5,40,203.5
838,G2,205.5,0.5,36,203.5
839,F#3,206.0,0.5,45,203.5
840,F#2,206.0,0.5,38,203.5
841,G3,206.5,0.5,40,203.5
842,G2,206.5,0.5,35,203.5
843,E-4,207.0,0.25,45,203.5
844,E-3,207.0,0.25,38,203.5
845,E-4,207.5,0.25,38,203.5
846,E-3,207.5,0.25,34,203.5
847,D4,208.0,1.0,45,203.5
848,D3,208.0,1.0,38,203.5
849,G3,209.5,0.25,45,203.5
850,G2,209.5,0.25,37,203.5
851,B3,210.0,0.25,51,203.5
852,B2,210.0,0.25,43,203.5
853,D4,210.5,0.25,45,203.5
854,D3,210.5,0.25,37,203.5
855,F4,211.0,0.25,45,203.5
856,F3,211.0,0.25,37,203.5
857,G#4,211.5,0.25,45,203.5
858,G#3,211.5,0.25,37,203.5
859,B4,212.0,0.25,55,203.5
860,B3,212.0,0.25,46,203.5
861,D5,212.5,0.25,53,203.5
862,D4,212.5,0.25,45,203.5
863,F5,213.0,0.25,56,203.5
864,F4,213.0,0.25,47,203.5
865,G#5,213.5,0.25,60,203.5
866,G#4,213.5,0.25,50,203.5
867,G5,214.0,0.25,63,203.5
868,G4,214.0,0.25,53,203.5
869,F5,214.5,0.25,59,203.5
870,F4,214.5,0.25,50,203.5
871,E-5,215.0,0.25,55,203.5
872,E-4,215.0,0.25,46,203.5
873,D5,215.5,0.25,54,203.5
874,D4,215.5,0.25,45,203.5
875,C5,216.0,1.0,62,203.5
876,C4,216.0,0.25,42,203.5
877,E-4,216.5,0.25,35,203.5
878,G4,216.5,0.25,35,203.5
879,E-4,217.0,0.25,35,203.5
880,G4,217.0,0.25,35,203.5
881,C5,217.5,0.5,50,203.5
882,E-4,217.5,0.25,35,203.5
883,G4,217.5,0.25,35,203.5
884,B4,218.0,0.5,57,203.5
885,C4,218.0,0.25,42,203.5
886,C5,218.5,0.5,53,203.5
887,E4,218.5,0.25,33,203.5
888,G4,218.5,0.25,33,203.5
889,B-4,218.5,0.25,33,203.5
890,C6,219.0,0.25,60,203.5
891,E4,219.0,0.25,33,203.5
892,G4,219.0,0.25,33,203.5
893,B-4,219.0,0.25,33,203.5
894,C6,219.5,0.25,52,203.5
895,E4,219.5,0.25,33,203.5
896,G4,219.5,0.25,33,203.5
897,B-4,219.5,0.25,33,203.5
898,C6,220.0,1.0,60,203.5
899,C4,220.0,0.25,42,203.5
900,F4,220.5,0.25,35,203.5
901,G#4,220.5,0.25,35,203.5
902,F4,221.0,0.25,35,203.5
903,G#4,221.0,0.25,35,203.5
904,F6,221.5,0.5,59,203.5
905,F4,221.5,0.25,35,203.5
906,G#4,221.5,0.25,35,203.5
907,E-6,222.0,0.5,65,203.5
908,C4,222.0,0.25,42,203.5
909,D6,222.5,0.5,60,203.5
910,F4,222.5,0.25,33,203.5
911,G#4,222.5,0.25,33,203.5
912,B4,222.5,0.25,33,203.5
913,C6,223.0,0.5,66,203.5
914,F4,223.0,0.25,33,203.5
915,G#4,223.0,0.25,33,203.5
916,B4,223.0,0.25,33,203.5
917,B5,223.5,0.5,60,203.5
918,F4,223.5,0.25,33,203.5
919,G#4,223.5,0.25,33,203.5
920,B4,223.5,0.25,33,203.5
921,D6,224.0,0.5,69,203.5
922,C4,224.0,0.25,42,203.5
923,C6,224.5,0.5,60,203.5
924,E-4,224.5,0.25,35,203.5
925,G4,224.5,0.25,35,203.5
926,E-4,225.0,0.25,35,203.5
927,G4,225.0,0.25,35,203.5
928,C5,225.5,0.5,50,203.5
929,E-4,225.5,0.25,35,203.5
930,G4,225.5,0.25,35,203.5
931,B4,226.0,0.5,57,203.5
932,C4,226.0,0.25,42,203.5
933,C5,226.5,0.5,53,203.5
934,E4,226.5,0.25,33,203.5
935,G4,226.5,0.25,33,203.5
936,B-4,226.5,0.25,33,203.5
937,C6,227.0,0.25,60,203.5
938,E4,227.0,0.25,33,203.5
939,G4,227.0,0.25,33,203.5
940,B-4,227.0,0.25,33,203.5
941,C6,227.5,0.25,52,203.5
942,E4,227.5,0.25,33,203.5
943,G4,227.5,0.25,33,203.5
944,B-4,227.5,0.25,33,203.5
945,C6,228.0,1.0,60,203.5
946,C4,228.0,0.25,42,203.5
947,F4,228.5,0.25,35,203.5
948,G#4,228.5,0.25,35,203.5
949,D6,229.0,0.125,60,203.5
950,F4,229.0,0.25,35,203.5
951,G#4,229.0,0.25,35,203.5
952,C6,229.125,0.125,60,203.5
953,B5,229.25,0.125,60,203.5
954,C6,229.375,0.125,60,203.5
955,F6,229.5,0.5,59,203.5
956,F4,229.5,0.25,35,203.5
957,G#4,229.5,0.25,35,203.5
958,E-6,230.0,0.5,65,203.5
959,C4,230.0,0.25,42,203.5
960,D6,230.5,0.5,60,203.5
961,F4,230.5,0.25,33,203.5
962,G#4,230.5,0.25,33,203.5
963,B4,230.5,0.25,33,203.5
964,C6,231.0,0.5,66,203.5
965,F4,231.0,0.25,33,203.5
966,G#4,231.0,0.25,33,203.5
967,B4,231.0,0.25,33,203.5
968,B5,231.5,0.5,60,203.5
969,F4,231.5,0.25,33,203.5
970,G#4,231.5,0.25,33,203.5
971,B4,231.5,0.25,33,203.5
972,C6,232.0,0.25,69,203.5
973,C4,232.0,0.985,38,203.5
974,E-4,232.0,0.985,38,203.5
975,G4,232.0,0.985,38,203.5
976,C5,232.0,0.985,38,203.5
977,D6,232.25,0.25,63,203.5
978,C6,232.5,0.25,63,203.5
979,B5,232.75,0.25,63,203.5
980,C6,233.0,0.25,69,203.5
981,E-6,233.25,0.25,73,203.5
982,D6,233.5,0.25,72,203.5
983,F#4,233.5,0.5,42,203.5
984,C6,233.75,0.25,71,203.5
985,B5,234.0,0.25,72,203.5
986,G4,234.0,1.0,52,203.5
987,C6,234.25,0.25,65,203.5
988,B5,234.5,0.25,65,203.5
989,G#5,234.75,0.25,65,203.5
990,G5,235.0,0.25,69,203.5
991,F5,235.25,0.25,63,203.5
992,E-5,235.5,0.25,63,203.5
993,B3,235.5,0.5,48,203.5
994,D5,235.75,0.25,63,203.5
995,C5,236.0,0.25,69,203.5
996,C4,236.0,1.0,57,203.5
997,D5,236.25,0.25,63,203.5
998,C5,236.5,0.25,63,203.5
999,B4,236.75,0.25,61,203.5
1000,C5,237.0,0.25,66,203.5
1001,E-5,237.25,0.25,72,203.5
1002,D5,237.5,0.25,70,203.5
1003,F#3,237.5,0.5,54,203.5
1004,C5,237.75,0.25,67,203.5
1005,B4,238.0,0.25,69,203.5
1006,G3,238.0,1.0,63,203.5
1007,C5,238.25,0.25,63,203.5
1008,B4,238.5,0.25,63,203.5
1009,G#4,238.75,0.25,63,203.5
1010,G4,239.0,0.25,69,203.5
1011,F4,239.25,0.25,63,203.5
1012,E-4,239.5,0.25,63,203.5
1013,B2,239.5,0.5,57,203.5
1014,D4,239.75,0.25,63,203.5
1015,C4,240.0,0.25,77,203.5
1016,C3,240.0,1.0,66,203.5
1017,D4,240.25,0.25,69,203.5
1018,C4,240.5,0.25,69,203.5
1019,B3,240.75,0.25,69,203.5
1020,C4,241.0,0.25,77,203.5
1021,E-4,241.25,0.25,69,203.5
1022,D4,241.5,0.25,69,203.5
1023,F#2,241.5,0.5,58,203.5
1024,C4,241.75,0.25,69,203.5
1025,B3,242.0,0.25,77,203.5
1026,G2,242.0,1.0,67,203.5
1027,G4,242.25,0.25,69,203.5
1028,D4,242.5,0.25,69,203.5
1029,B3,242.75,0.25,69,203.5
1030,G3,243.0,0.25,79,203.5
1031,C2,243.0,0.5,89,203.5
1032,C3,243.0,0.5,89,203.5
1033,G4,243.25,0.25,69,203.5
1034,E-4,243.5,0.25,69,203.5
1035,C4,243.75,0.25,69,203.5
1036,G3,244.0,0.25,81,203.5
1037,G1,244.0,0.5,60,203.5
1038,G2,244.0,0.5,60,203.5
1039,G4,244.25,0.25,69,203.5
1040,D4,244.5,0.25,69,203.5
1041,B3,244.75,0.25,69,203.5
1042,G3,245.0,0.25,80,203.5
1043,C2,245.0,0.5,90,203.5
1044,C3,245.0,0.5,90,203.5
1045,G4,245.25,0.25,69,203.5
1046,E-4,245.5,0.25,69,203.5
1047,C4,245.75,0.25,69,203.5
1048,G3,246.0,0.25,80,203.5
1049,G1,246.0,0.5,62,203.5
1050,G2,246.0,0.5,62,203.5
1051,G4,246.25,0.25,69,203.5
1052,D4,246.5,0.25,69,203.5
1053,B3,246.75,0.25,69,203.5
1054,G3,247.0,0.25,80,203.5
1055,C2,247.0,0.5,90,203.5
1056,C3,247.0,0.5,90,203.5
1057,G4,247.25,0.25,69,203.5
1058,E-4,247.5,0.25,69,203.5
1059,C4,247.75,0.25,69,203.5
1060,G3,248.0,2.0,78,203.5
1061,B3,248.0,2.0,78,203.5
1062,D4,248.0,2.0,78,203.5
1063,G4,248.0,2.0,78,203.5
1064,G1,248.0,2.0,69,203.5
1065,B1,248.0,2.0,69,203.5
1066,D2,248.0,2.0,69,203.5
1067,G2,248.0,2.0,69,203.5
1068,B-3,250.5,0.25,40,203.5
1069,C4,251.0,0.25,37,203.5
1070,D4,251.5,0.25,37,203.5
1071,E-4,252.0,0.25,46,203.5
1072,G3,252.0,2.0,39,203.5
1073,B-3,252.0,2.0,39,203.5
1074,E-2,252.0,2.0,28,203.5
1075,E-3,252.0,2.0,28,203.5
1076,F4,252.5,0.25,40,203.5
1077,G4,253.0,0.25,40,203.5
1078,B-3,254.0,0.25,40,203.5
1079,D4,254.0,0.25,40,203.5
1080,F4,254.0,0.25,40,203.5
1081,G#2,254.0,0.25,28,203.5
1082,G#3,254.0,0.25,28,203.5
1083,B-3,255.0,0.25,36,203.5
1084,E-4,255.0,0.25,36,203.5
1085,G2,255.0,0.25,25,203.5
1086,G3,255.0,0.25,25,203.5
1087,G#3,256.0,2.0,39,203.5
1088,B-3,256.0,2.0,39,203.5
1089,D4,256.0,2.0,39,203.5
1090,G#4,256.0,2.0,39,203.5
1091,B-2,256.0,2.0,29,203.5
1092,F2,256.0,2.0,29,203.5
1093,F3,256.0,2.0,29,203.5
1094,B-3,258.5,0.25,40,203.5
1095,C4,259.0,0.25,37,203.5
1096,D4,259.5,0.25,37,203.5
1097,E-4,260.0,0.25,46,203.5
1098,G3,260.0,2.0,39,203.5
1099,B-3,260.0,2.0,39,203.5
1100,E-2,260.0,2.0,28,203.5
1101,E-3,260.0,2.0,28,203.5
1102,F4,260.5,0.25,40,203.5
1103,G4,261.0,0.25,40,203.5
1104,F3,262.0,0.25,40,203.5
1105,C4,262.0,0.25,40,203.5
1106,F4,262.0,0.25,40,203.5
1107,G#1,262.0,0.25,28,203.5
1108,G#2,262.0,0.25,28,203.5
1109,C4,263.0,0.25,35,203.5
1110,F3,263.0,0.25,35,203.5
1111,E-4,263.0,0.25,35,203.5
1112,A1,263.0,0.25,25,203.5
1113,A2,263.0,0.25,25,203.5
1114,D3,264.0,2.0,33,203.5
1115,F3,264.0,2.0,33,203.5
1116,B-3,264.0,2.0,33,203.5
1117,B-1,264.0,2.0,24,203.5
1118,B-2,264.0,2.0,24,203.5
1119,B-3,266.5,0.25,40,203.5
1120,C4,267.0,0.25,37,203.5
1121,D4,267.5,0.25,37,203.5
1122,E-4,268.0,0.25,46,203.5
1123,G3,268.0,2.0,39,203.5
1124,B-3,268.0,2.0,39,203.5
1125,E-2,268.0,2.0,28,203.5
1126,E-3,268.0,2.0,28,203.5
1127,F4,268.5,0.25,40,203.5
1128,G4,269.0,0.25,40,203.5
1129,B-3,270.0,0.25,40,203.5
1130,D4,270.0,0.25,40,203.5
1131,F4,270.0,0.25,40,203.5
1132,G#2,270.0,0.25,28,203.5
1133,G#3,270.0,0.25,28,203.5
1134,B-3,271.0,0.25,36,203.5
1135,E-4,271.0,0.25,36,203.5
1136,G2,271.0,0.25,25,203.5
1137,G3,271.0,0.25,25,203.5
1138,G#2,271.781,1.156,32,203.5
1139,C3,271.781,1.156,32,203.5
1140,E-3,271.781,1.156,32,203.5
1141,G#3,271.875,1.125,40,203.5
1142,C4,271.906,2.031,53,203.5
1143,E-4,271.906,2.031,53,203.5
1144,G#4,271.906,2.031,53,203.5
1145,C5,272.0,2.5,72,203.5
1146,C5,274.5,0.25,48,203.5
1147,B-4,275.0,0.25,53,203.5
1148,G#4,275.5,0.25,50,203.5
1149,G4,276.0,0.5,53,203.5
1150,B-2,276.0,8.0,80,203.5
1151,F4,276.5,0.5,48,203.5
1152,E-4,277.0,0.25,48,203.5
1153,D4,277.5,0.25,48,203.5
1154,C4,278.0,1.0,53,203.5
1155,F3,278.0,2.0,45,203.5
1156,G#3,278.0,2.0,45,203.5
1157,B-1,278.5,0.25,49,203.5
1158,B-3,279.0,1.0,49,203.5
1159,C2,279.0,0.25,53,203.5
1160,D2,279.5,0.25,45,203.5
1161,E-2,280.0,0.25,53,203.5
1162,E-3,280.0,2.0,44,203.5
1163,G3,280.0,2.0,44,203.5
1164,B-3,280.0,2.0,44,203.5
1165,F2,280.5,0.25,49,203.5
1166,G2,281.0,0.25,51,203.5
1167,F2,282.0,1.0,53,203.5
1168,B-4,282.5,0.25,48,203.5
1169,G#4,283.0,0.25,53,203.5
1170,E-2,283.0,1.0,50,203.5
1171,G4,283.5,0.25,50,203.5
1172,G4,284.0,0.5,53,203.5
1173,B-2,284.0,8.0,80,203.5
1174,F4,284.5,0.5,48,203.5
1175,E-4,285.0,0.25,48,203.5
1176,D4,285.5,0.25,48,203.5
1177,C4,286.0,1.0,53,203.5
1178,F3,286.0,2.0,45,203.5
1179,G#3,286.0,2.0,45,203.5
1180,B-1,286.5,0.25,49,203.5
1181,B-3,287.0,1.0,49,203.5
1182,C2,287.0,0.25,53,203.5
1183,D2,287.5,0.25,45,203.5
1184,E-2,288.0,0.25,53,203.5
1185,E-3,288.0,2.0,54,203.5
1186,G3,288.0,2.0,54,203.5
1187,B-3,288.0,2.0,54,203.5
1188,F2,288.5,0.25,49,203.5
1189,G2,289.0,0.25,51,203.5
1190,F2,290.0,1.0,53,203.5
1191,B-5,290.5,0.25,48,203.5
1192,B-4,290.5,0.25,48,203.5
1193,E-2,291.0,1.0,50,203.5
1194,G#5,291.0,0.25,53,203.5
1195,G#4,291.0,0.25,53,203.5
1196,G5,291.5,0.25,50,203.5
1197,G4,291.5,0.25,50,203.5
1198,G5,292.0,0.5,55,203.5
1199,G4,292.0,0.5,55,203.5
1200,G#2,292.0,1.0,48,203.5
1201,C3,292.0,1.0,48,203.5
1202,F3,292.0,1.0,48,203.5
1203,F5,292.5,0.5,48,203.5
1204,F4,292.5,0.5,48,203.5
1205,E-5,293.0,0.25,48,203.5
1206,E-4,293.0,0.25,48,203.5
1207,D5,293.5,0.25,48,203.5
1208,D4,293.5,0.25,48,203.5
1209,C4,294.0,0.25,55,203.5
1210,C5,294.0,0.25,55,203.5
1211,F3,294.0,1.0,45,203.5
1212,B-2,294.0,1.0,45,203.5
1213,G#3,294.0,1.0,45,203.5
1214,B-3,294.5,0.25,48,203.5
1215,B-4,294.5,0.25,48,203.5
1216,C4,295.0,0.25,48,203.5
1217,C5,295.0,0.25,48,203.5
1218,D4,295.5,0.25,48,203.5
1219,D5,295.5,0.25,48,203.5
1220,E-4,296.0,0.25,48,203.5
1221,E-3,296.0,1.0,54,203.5
1222,G3,296.0,1.0,54,203.5
1223,E-5,296.25,0.25,43,203.5
1224,E-4,296.5,0.25,48,203.5
1225,E-5,296.75,0.25,42,203.5
1226,E-4,297.0,0.25,49,203.5
1227,E-5,297.25,0.25,43,203.5
1228,E-4,297.5,0.25,50,203.5
1229,E-3,297.5,0.5,54,203.5
1230,E-5,297.75,0.25,45,203.5
1231,E-4,298.0,0.25,51,203.5
1232,D3,298.0,0.5,60,203.5
1233,E-5,298.25,0.25,44,203.5
1234,E-4,298.5,0.25,52,203.5
1235,E-3,298.5,0.5,55,203.5
1236,E-5,298.75,0.25,47,203.5
1237,E-4,299.0,0.25,53,203.5
1238,C3,299.0,0.25,57,203.5
1239,G#3,299.0,0.25,57,203.5
1240,E-5,299.25,0.25,47,203.5
1241,E-4,299.5,0.25,53,203.5
1242,G#3,299.5,0.25,52,203.5
1243,C3,299.5,0.25,52,203.5
1244,E-5,299.75,0.25,47,203.5
1245,E-4,300.0,0.25,54,203.5
1246,G3,300.0,1.0,60,203.5
1247,B-2,300.0,1.0,60,203.5
1248,E-5,300.25,0.25,48,203.5
1249,E-4,300.5,0.25,55,203.5
1250,E-5,300.75,0.25,48,203.5
1251,E-4,301.0,0.25,55,203.5
1252,E-5,301.25,0.25,48,203.5
1253,E-4,301.5,0.25,56,203.5
1254,E-3,301.5,0.5,61,203.5
1255,E-5,301.75,0.25,51,203.5
1256,E-4,302.0,0.25,57,203.5
1257,D3,302.0,0.5,68,203.5
1258,E-5,302.25,0.25,49,203.5
1259,E-4,302.5,0.25,58,203.5
1260,E-3,302.5,0.5,63,203.5
1261,E-5,302.75,0.25,53,203.5
1262,E-4,303.0,0.25,59,203.5
1263,G#3,303.0,0.25,64,203.5
1264,C4,303.0,0.25,64,203.5
1265,E-5,303.25,0.25,54,203.5
1266,E-4,303.5,0.25,60,203.5
1267,G#3,303.5,0.25,59,203.5
1268,C4,303.5,0.25,59,203.5
1269,E-5,303.75,0.25,54,203.5
1270,E-4,304.0,1.0,70,203.5
1271,E-5,304.0,1.0,70,203.5
1272,G3,304.0,0.5,71,203.5
1273,B-3,304.0,0.5,71,203.5
1274,E-3,304.5,0.25,62,203.5
1275,E-4,304.75,0.25,54,203.5
1276,E-3,305.0,0.25,63,203.5
1277,E-4,305.25,0.25,56,203.5
1278,E-5,305.5,0.5,74,203.5
1279,E-3,305.5,0.25,63,203.5
1280,E-4,305.75,0.25,57,203.5
1281,D5,306.0,0.5,84,203.5
1282,E-3,306.0,0.25,63,203.5
1283,E-4,306.25,0.25,55,203.5
1284,E-5,306.5,0.5,77,203.5
1285,E-3,306.5,0.25,64,203.5
1286,E-4,306.75,0.25,59,203.5
1287,E-3,307.0,0.25,65,203.5
1288,C6,307.0,0.25,86,203.5
1289,G#5,307.0,0.25,86,203.5
1290,E-4,307.25,0.25,58,203.5
1291,E-3,307.5,0.25,66,203.5
1292,G#5,307.5,0.25,79,203.5
1293,C6,307.5,0.25,79,203.5
1294,E-4,307.75,0.25,61,203.5
1295,G#5,308.0,1.0,92,203.5
1296,C6,308.0,1.25,92,203.5
1297,F3,308.0,3.944,52,203.5
1298,D3,308.0,3.944,52,203.5
1299,G#3,308.0,3.944,52,203.5
1300,B-3,308.0,3.944,52,203.5
1301,D4,308.0,3.944,52,203.5
1302,B-5,309.25,0.25,74,203.5
1303,G#5,309.5,0.25,73,203.5
1304,G5,309.75,0.25,72,203.5
1305,F5,310.0,0.25,72,203.5
1306,E-5,310.25,0.25,72,203.5
1307,D5,310.5,0.25,71,203.5
1308,C5,310.75,0.25,70,203.5
1309,B4,311.0,0.25,69,203.5
1310,B-4,311.25,0.25,68,203.5
1311,A4,311.5,0.25,67,203.5
1312,G#4,311.75,0.25,66,203.5
1313,G4,312.0,0.333,66,203.5
1314,G3,312.0,1.0,53,203.5
1315,E-3,312.0,1.0,53,203.5
1316,E-4,312.0,1.0,53,203.5
1317,B-3,312.0,1.0,53,203.5
1318,G#4,312.333,0.333,62,203.5
1319,B-4,312.667,0.333,62,203.5
1320,G#4,313.0,0.333,66,203.5
1321,G4,313.333,0.333,62,203.5
1322,F4,313.667,0.333,62,203.5
1323,E-4,314.0,0.333,66,203.5
1324,D4,314.333,0.333,62,203.5
1325,C4,314.667,0.333,62,203.5
1326,B-3,315.0,0.333,66,203.5
1327,G#3,315.333,0.333,60,203.5
1328,G3,315.667,0.333,63,203.5
1329,G#2,316.0,0.5,73,203.5
1330,G#1,316.0,0.5,73,203.5
1331,F3,316.25,0.25,59,203.5
1332,G#3,316.5,0.25,63,203.5
1333,C4,316.75,0.25,67,203.5
1334,F4,317.0,0.5,72,203.5
1335,G#2,317.5,0.25,63,203.5
1336,G#1,317.5,0.25,63,203.5
1337,B-1,318.0,0.5,70,203.5
1338,B-2,318.0,0.5,70,203.5
1339,F3,318.25,0.25,63,203.5
1340,G#3,318.5,0.25,66,203.5
1341,B-3,318.75,0.25,69,203.5
1342,D4,319.0,0.5,72,203.5
1343,B-2,319.5,0.25,63,203.5
1344,B-1,319.5,0.25,63,203.5
1345,D5,320.0,0.25,67,203.5
1346,D6,320.25,0.25,60,203.5
1347,D5,320.5,0.25,67,203.5
1348,G#4,320.5,0.25,63,203.5
1349,D6,320.75,0.25,60,203.5
1350,B-4,320.75,0.25,65,203.5
1351,D5,321.0,0.25,67,203.5
1352,C5,321.0,0.25,69,203.5
1353,D6,321.25,0.25,59,203.5
1354,B-4,321.25,0.25,67,203.5
1355,D5,321.5,0.25,67,203.5
1356,G#4,321.5,0.25,65,203.5
1357,D6,321.75,0.25,61,203.5
1358,G4,321.75,0.25,64,203.5
1359,D5,322.0,0.25,67,203.5
1360,F4,322.0,0.333,67,203.5
1361,D6,322.25,0.25,59,203.5
1362,E-4,322.333,0.333,61,203.5
1363,D5,322.5,0.25,67,203.5
1364,D4,322.667,0.333,61,203.5
1365,D6,322.75,0.25,59,203.5
1366,D5,323.0,0.25,67,203.5
1367,C4,323.0,0.333,67,203.5
1368,D6,323.25,0.25,59,203.5
1369,B-3,323.333,0.333,62,203.5
1370,D5,323.5,0.25,67,203.5
1371,G#3,323.667,0.333,62,203.5
1372,D6,323.75,0.25,60,203.5
1373,E-5,324.0,0.25,67,203.5
1374,G3,324.0,0.333,67,203.5
1375,E-6,324.25,0.25,60,203.5
1376,G#3,324.333,0.333,63,203.5
1377,E-5,324.5,0.25,69,203.5
1378,B-3,324.667,0.333,63,203.5
1379,E-6,324.75,0.25,62,203.5
1380,E-5,325.0,0.25,71,203.5
1381,G#3,325.0,0.333,67,203.5
1382,E-6,325.25,0.25,63,203.5
1383,G3,325.333,0.333,60,203.5
1384,E-5,325.5,0.25,72,203.5
1385,F3,325.667,0.333,60,203.5
1386,E-6,325.75,0.25,67,203.5
1387,E-5,326.0,0.25,75,203.5
1388,E-3,326.0,0.333,70,203.5
1389,E-6,326.25,0.25,67,203.5
1390,D3,326.333,0.333,63,203.5
1391,E-5,326.5,0.25,77,203.5
1392,C3,326.667,0.333,66,203.5
1393,E-6,326.75,0.25,69,203.5
1394,E5,327.0,0.25,80,203.5
1395,B-2,327.0,0.333,74,203.5
1396,E6,327.25,0.25,71,203.5
1397,G#2,327.333,0.333,67,203.5
1398,E5,327.5,0.25,81,203.5
1399,G2,327.667,0.333,67,203.5
1400,E6,327.75,0.25,73,203.5
1401,G#2,328.0,0.5,73,203.5
1402,G#1,328.0,0.5,73,203.5
1403,F5,328.25,0.25,71,203.5
1404,G#5,328.5,0.25,76,203.5
1405,C6,328.75,0.25,81,203.5
1406,F6,329.0,0.5,86,203.5
1407,G#1,329.5,0.25,63,203.5
1408,G#2,329.5,0.25,63,203.5
1409,B-1,330.0,0.5,70,203.5
1410,B-2,330.0,0.5,70,203.5
1411,D5,330.25,0.25,75,203.5
1412,F5,330.5,0.25,79,203.5
1413,G#5,330.75,0.25,82,203.5
1414,D6,331.0,0.5,86,203.5
1415,B-2,331.5,0.25,63,203.5
1416,B-1,331.5,0.25,63,203.5
1417,E-5,332.0,1.0,84,203.5
1418,B-5,332.0,1.0,84,203.5
1419,G5,332.0,1.0,84,203.5
1420,E-6,332.0,1.0,84,203.5
1421,E-3,332.0,1.0,62,203.5
1422,E-2,332.0,1.0,62,203.5
1423,G2,332.0,1.0,62,203.5
1424,B-2,332.0,1.0,62,203.5
1425,B-5,333.0,0.25,63,203.5
1426,G4,333.0,0.25,58,203.5
1427,E4,333.0,0.25,58,203.5
1428,B-5,333.5,0.25,63,203.5
1429,E4,333.5,0.25,58,203.5
1430,G4,333.5,0.25,58,203.5
1431,B-5,334.0,0.5,70,203.5
1432,G#4,334.0,0.5,64,203.5
1433,F4,334.0,0.5,64,203.5
1434,B-5,335.0,0.25,63,203.5
1435,E4,335.0,0.25,58,203.5
1436,G4,335.0,0.25,58,203.5
1437,B-5,335.5,0.25,63,203.5
1438,E4,335.5,0.25,58,203.5
1439,G4,335.5,0.25,58,203.5
1440,B-5,336.0,0.5,69,203.5
1441,G#4,336.0,0.5,64,203.5
1442,F4,336.0,0.5,64,203.5
1443,F3,337.0,0.5,64,203.5
1444,G#3,337.0,0.5,64,203.5
1445,D4,337.0,0.5,64,203.5
1446,B-1,337.0,0.5,68,203.5
1447,B-2,337.0,0.5,68,203.5
1448,F3,339.0,0.25,35,203.5
1449,G#3,339.0,0.25,35,203.5
1450,D4,339.0,0.25,35,203.5
1451,B2,339.0,0.25,33,203.5
1452,B1,339.0,0.25,33,203.5
1453,G3,340.0,0.25,41,203.5
1454,E-4,340.0,0.25,41,203.5
1455,C2,340.0,0.25,35,203.5
1456,C3,340.0,0.25,35,203.5
1457,C4,341.0,0.25,37,203.5
1458,E-4,341.0,0.25,37,203.5
1459,F4,341.0,0.25,37,203.5
1460,A2,341.0,0.25,33,203.5
1461,A1,341.0,0.25,33,203.5
1462,B-3,342.0,0.25,40,203.5
1463,E-4,342.0,0.25,40,203.5
1464,G4,342.0,0.25,40,203.5
1465,B-2,342.0,0.25,35,203.5
1466,B-1,342.0,0.25,35,203.5
1467,G#3,343.0,0.25,35,203.5
1468,D4,343.0,0.25,35,203.5
1469,F4,343.0,0.25,35,203.5
1470,B-1,343.0,0.25,30,203.5
1471,B-2,343.0,0.25,30,203.5
1472,G3,344.0,0.25,41,203.5
1473,E-4,344.0,0.25,41,203.5
1474,E-2,344.0,0.25,35,203.5
1475,E-3,344.0,0.25,35,203.5
1476,B-5,345.0,0.25,63,203.5
1477,G4,345.0,0.25,58,203.5
1478,E4,345.0,0.25,58,203.5
1479,C6,345.25,0.25,59,203.5
1480,B-5,345.5,0.25,63,203.5
1481,E4,345.5,0.25,58,203.5
1482,G4,345.5,0.25,58,203.5
1483,A5,345.75,0.25,59,203.5
1484,B-5,346.0,0.5,70,203.5
1485,G#4,346.0,0.5,64,203.5
1486,F4,346.0,0.5,64,203.5
1487,B-5,347.0,0.25,63,203.5
1488,E4,347.0,0.25,58,203.5
1489,G4,347.0,0.25,58,203.5
1490,C6,347.25,0.25,58,203.5
1491,B-5,347.5,0.25,63,203.5
1492,E4,347.5,0.25,58,203.5
1493,G4,347.5,0.25,58,203.5
1494,A5,347.75,0.25,57,203.5
1495,B-5,348.0,0.5,69,203.5
1496,G#4,348.0,0.5,64,203.5
1497,F4,348.0,0.5,64,203.5
1498,F3,349.0,0.5,64,203.5
1499,G#3,349.0,0.5,64,203.5
1500,D4,349.0,0.5,64,203.5
1501,B-2,349.0,0.5,68,203.5
1502,B-1,349.0,0.5,68,203.5
1503,E-3,351.0,2.0,58,203.5
1504,F#3,351.0,2.0,58,203.5
1505,A3,351.0,2.0,58,203.5
1506,E-4,351.0,2.0,58,203.5
1507,E-2,351.0,2.0,58,203.5
1508,F#2,351.0,2.0,58,203.5
1509,B2,351.0,2.0,58,203.5
1510,B1,351.0,2.0,58,203.5
1511,C4,353.0,0.25,37,203.5
1512,E-4,353.0,0.25,37,203.5
1513,F4,353.0,0.25,37,203.5
1514,A1,353.0,0.25,33,203.5
1515,A2,353.0,0.25,33,203.5
1516,B-3,354.0,0.25,40,203.5
1517,E-4,354.0,0.25,40,203.5
1518,G4,354.0,0.25,40,203.5
1519,B-2,354.0,0.25,35,203.5
1520,B-1,354.0,0.25,35,203.5
1521,G#3,355.0,0.25,35,203.5
1522,D4,355.0,0.25,35,203.5
1523,F4,355.0,0.25,35,203.5
1524,B-1,355.0,0.25,30,203.5
1525,B-2,355.0,0.25,30,203.5
1526,E-2,356.0,0.5,32,203.5
1527,G3,356.0,0.5,41,203.5
1528,E-4,356.0,0.5,41,203.5
1529,E-3,356.5,0.5,27,203.5
1530,D4,357.0,0.5,33,203.5
1531,G#4,357.0,0.5,33,203.5
1532,E-4,357.5,0.5,30,203.5
1533,G4,357.5,0.5,30,203.5
1534,E-2,358.0,0.5,32,203.5
1535,E-3,358.5,0.5,28,203.5
1536,G#4,359.0,0.5,34,203.5
1537,D5,359.0,0.5,34,203.5
1538,G4,359.5,0.5,30,203.5
1539,E-5,359.5,0.5,30,203.5
1540,E-2,360.0,0.5,32,203.5
1541,E-3,360.5,0.5,28,203.5
1542,G#5,361.0,0.5,34,203.5
1543,D5,361.0,0.5,34,203.5
1544,E-5,361.5,0.5,30,203.5
1545,G5,361.5,0.5,30,203.5
1546,E-2,362.0,0.5,32,203.5
1547,E-3,362.5,0.5,27,203.5
1548,D6,363.0,0.5,40,203.5
1549,G#5,363.0,0.5,40,203.5
1550,G5,363.5,0.5,33,203.5
1551,E-6,363.5,0.5,33,203.5
1552,E-2,364.0,1.0,32,203.5
1553,G3,365.0,1.0,51,203.5
1554,B-3,365.0,1.0,51,203.5
1555,E-4,365.0,1.0,51,203.5
1556,C3,369.5,0.5,36,203.5
1557,B2,370.0,0.5,42,203.5
1558,C3,370.5,0.5,35,203.5
1559,B-3,371.0,0.25,41,203.5
1560,G3,371.0,0.25,41,203.5
1561,B-3,371.5,0.25,38,203.5
1562,G3,371.5,0.25,38,203.5
1563,B-3,372.0,4.0,70,203.5
1564,G3,372.0,4.0,70,203.5
1565,E-4,373.5,0.5,40,203.5
1566,D4,374.0,0.5,45,203.5
1567,E-4,374.5,0.5,40,203.5
1568,B-4,375.0,0.25,45,203.5
1569,B-4,375.5,0.25,38,203.5
1570,C#4,376.0,0.5,45,203.5
1571,B-3,376.0,1.0,35,203.5
1572,G#3,376.0,1.0,35,203.5
1573,D4,376.5,0.5,40,203.5
1574,B-4,377.0,0.25,45,203.5
1575,B-4,377.5,0.25,38,203.5
1576,B-2,377.5,0.5,36,203.5
1577,A2,378.0,0.5,42,203.5
1578,B-2,378.5,0.5,35,203.5
1579,B-3,379.0,0.25,41,203.5
1580,G#3,379.0,0.25,41,203.5
1581,B-3,379.5,0.25,38,203.5
1582,G#3,379.5,0.25,38,203.5
1583,B-3,380.0,4.0,70,203.5
1584,G#3,380.0,4.0,70,203.5
1585,F4,381.5,0.5,40,203.5
1586,E4,382.0,0.5,45,203.5
1587,F4,382.5,0.5,40,203.5
1588,B-4,383.0,0.25,45,203.5
1589,B-4,383.5,0.25,38,203.5
1590,E-4,384.0,0.5,45,203.5
1591,B-3,384.0,1.0,35,203.5
1592,G3,384.0,1.0,35,203.5
1593,E4,384.5,0.5,40,203.5
1594,B-4,385.0,0.25,45,203.5
1595,B-4,385.5,0.25,38,203.5
1596,E4,386.0,0.5,45,203.5
1597,B-3,386.0,1.0,35,203.5
1598,C#4,386.0,1.0,35,203.5
1599,F3,386.0,1.0,35,203.5
1600,F4,386.5,0.5,41,203.5
1601,C#5,387.0,0.25,46,203.5
1602,C#5,387.5,0.25,40,203.5
1603,F#4,388.0,0.5,47,203.5
1604,G3,388.0,1.0,36,203.5
1605,B-3,388.0,1.0,36,203.5
1606,C4,388.0,1.0,36,203.5
1607,E3,388.0,1.0,36,203.5
1608,G4,388.5,0.5,43,203.5
1609,C#5,389.0,0.25,48,203.5
1610,C#5,389.5,0.25,41,203.5
1611,C5,390.0,0.5,49,203.5
1612,B-4,390.5,0.5,42,203.5
1613,A4,391.0,0.5,47,203.5
1614,B-4,391.5,0.5,42,203.5
1615,G4,392.0,0.5,49,203.5
1616,F3,392.0,1.0,46,203.5
1617,G#3,392.0,1.0,46,203.5
1618,C4,392.0,1.0,46,203.5
1619,G#4,392.5,0.5,44,203.5
1620,F5,393.0,0.25,50,203.5
1621,F5,393.5,0.25,44,203.5
1622,B4,394.0,0.5,52,203.5
1623,E-3,394.0,1.0,48,203.5
1624,F3,394.0,1.0,48,203.5
1625,G#3,394.0,1.0,48,203.5
1626,C4,394.0,1.0,48,203.5
1627,C5,394.5,0.5,47,203.5
1628,G#5,395.0,0.25,54,203.5
1629,G#5,395.5,0.25,47,203.5
1630,E5,396.0,0.5,56,203.5
1631,D3,396.0,1.0,51,203.5
1632,F3,396.0,1.0,51,203.5
1633,G#3,396.0,1.0,51,203.5
1634,B3,396.0,1.0,51,203.5
1635,F5,396.5,0.5,50,203.5
1636,B5,397.0,0.25,57,203.5
1637,B5,397.5,0.25,50,203.5
1638,G5,398.0,0.5,63,203.5
1639,C3,398.0,1.0,55,203.5
1640,D3,398.0,1.0,55,203.5
1641,F3,398.0,1.0,55,203.5
1642,G#3,398.0,1.0,55,203.5
1643,G#5,398.5,0.5,56,203.5
1644,D6,399.0,0.25,66,203.5
1645,D6,399.5,0.25,60,203.5
1646,C#6,400.0,0.5,79,203.5
1647,B2,400.0,1.0,61,203.5
1648,D3,400.0,1.0,61,203.5
1649,F3,400.0,1.0,61,203.5
1650,G#3,400.0,1.0,61,203.5
1651,D6,400.5,0.5,72,203.5
1652,F6,401.0,0.25,69,203.5
1653,F6,401.5,0.25,64,203.5
1654,F6,402.0,2.0,76,203.5
1655,G#5,402.5,0.45,65,203.5
1656,G#5,403.0,0.45,65,203.5
1657,G#5,403.5,0.45,65,203.5
1658,B4,404.0,2.0,69,203.5
1659,G#4,404.5,0.45,65,203.5
1660,G#4,405.0,0.45,65,203.5
1661,G#4,405.5,0.45,65,203.5
1662,B3,406.0,2.0,74,203.5
1663,G#3,406.5,0.45,65,203.5
1664,G#3,407.0,0.45,65,203.5
1665,G#3,407.5,0.45,65,203.5
1666,B2,408.0,0.5,69,203.5
1667,G#2,408.5,0.45,64,203.5
1668,G#3,408.5,0.45,64,203.5
1669,G#2,409.0,0.45,64,203.5
1670,G#3,409.0,0.45,64,203.5
1671,G#2,409.5,0.45,64,203.5
1672,G#3,409.5,0.5,64,203.5
1673,B1,410.0,0.5,78,203.5
1674,B2,410.0,0.5,75,203.5
1675,G#2,410.5,0.45,70,203.5
1676,G#3,410.5,0.45,69,203.5
1677,G#2,411.0,0.45,70,203.5
1678,G#3,411.0,0.45,69,203.5
1679,G#2,411.5,0.45,70,203.5
1680,G#3,411.5,0.45,69,203.5
1681,B1,412.0,1.458,86,203.5
1682,B2,412.0,1.458,88,203.5
1683,C4,413.5,0.5,40,203.5
1684,C3,413.5,0.5,36,203.5
1685,B3,414.0,0.5,45,203.5
1686,B2,414.0,0.5,38,203.5
1687,C4,414.5,0.5,40,203.5
1688,C3,414.5,0.5,35,203.5
1689,F4,415.0,0.25,45,203.5
1690,F3,415.0,0.25,38,203.5
1691,F4,415.5,0.25,38,203.5
1692,F3,415.5,0.25,34,203.5
1693,E-4,416.0,1.0,45,203.5
1694,E-3,416.0,1.0,38,203.5
1695,C4,417.5,0.5,40,203.5
1696,C3,417.5,0.5,36,203.5
1697,B3,418.0,0.5,45,203.5
1698,B2,418.0,0.5,38,203.5
1699,C4,418.5,0.5,40,203.5
1700,C3,418.5,0.5,35,203.5
1701,G#4,419.0,0.25,45,203.5
1702,G#3,419.0,0.25,38,203.5
1703,G#4,419.5,0.25,38,203.5
1704,G#3,419.5,0.25,34,203.5
1705,G4,420.0,1.0,45,203.5
1706,G3,420.0,1.0,38,203.5
1707,C4,421.5,0.5,40,203.5
1708,B3,422.0,0.5,45,203.5
1709,C4,422.5,0.5,40,203.5
1710,C5,423.0,0.25,45,203.5
1711,C5,423.5,0.25,38,203.5
1712,C5,424.0,0.5,45,203.5
1713,G#3,424.0,4.0,38,203.5
1714,C4,424.0,4.0,38,203.5
1715,F#4,424.0,4.0,38,203.5
1716,D5,424.5,0.125,45,203.5
1717,C5,424.625,0.125,45,203.5
1718,B4,424.75,0.125,40,203.5
1719,C5,424.875,0.125,45,203.5
1720,E-5,425.0,0.5,50,203.5
1721,D5,425.5,0.5,45,203.5
1722,F5,426.0,0.5,56,203.5
1723,E-5,426.5,0.5,53,203.5
1724,D5,427.0,0.5,50,203.5
1725,C5,427.5,0.5,47,203.5
1726,B4,428.0,1.0,51,203.5
1727,G4,428.0,1.0,34,203.5
1728,D4,428.0,1.0,34,203.5
1729,G3,428.0,1.0,34,203.5
1730,G3,429.5,0.5,40,203.5
1731,G2,429.5,0.5,36,203.5
1732,F#3,430.0,0.5,45,203.5
1733,F#2,430.0,0.5,38,203.5
1734,G3,430.5,0.5,40,203.5
1735,G2,430.5,0.5,35,203.5
1736,C4,431.0,0.25,45,203.5
1737,C3,431.0,0.25,38,203.5
1738,C4,431.5,0.25,38,203.5
1739,C3,431.5,0.25,34,203.5
1740,B3,432.0,1.0,45,203.5
1741,B2,432.0,1.0,38,203.5
1742,G3,433.5,0.5,40,203.5
1743,G2,433.5,0.5,36,203.5
1744,F#3,434.0,0.5,45,203.5
1745,F#2,434.0,0.5,38,203.5
1746,G3,434.5,0.5,40,203.5
1747,G2,434.5,0.5,35,203.5
1748,E-4,435.0,0.25,45,203.5
1749,E-3,435.0,0.25,38,203.5
1750,E-4,435.5,0.25,38,203.5
1751,E-3,435.5,0.25,34,203.5
1752,D4,436.0,1.0,45,203.5
1753,D3,436.0,1.0,38,203.5
1754,G3,437.5,0.25,45,203.5
1755,G2,437.5,0.25,37,203.5
1756,B3,438.0,0.25,51,203.5
1757,B2,438.0,0.25,43,203.5
1758,D4,438.5,0.25,45,203.5
1759,D3,438.5,0.25,37,203.5
1760,F4,439.0,0.25,45,203.5
1761,F3,439.0,0.25,37,203.5
1762,G#4,439.5,0.25,45,203.5
1763,G#3,439.5,0.25,37,203.5
1764,B4,440.0,0.25,55,203.5
1765,B3,440.0,0.25,46,203.5
1766,D5,440.5,0.25,53,203.5
1767,D4,440.5,0.25,45,203.5
1768,F5,441.0,0.25,56,203.5
1769,F4,441.0,0.25,47,203.5
1770,G#5,441.5,0.25,60,203.5
1771,G#4,441.5,0.25,50,203.5
1772,G5,442.0,0.25,63,203.5
1773,G4,442.0,0.25,53,203.5
1774,F5,442.5,0.25,59,203.5
1775,F4,442.5,0.25,50,203.5
1776,E-5,443.0,0.25,55,203.5
1777,E-4,443.0,0.25,46,203.5
1778,D5,443.5,0.25,54,203.5
1779,D4,443.5,0.25,45,203.5
1780,C5,444.0,1.0,62,203.5
1781,C4,444.0,0.25,42,203.5
1782,E-4,444.5,0.25,35,203.5
1783,G4,444.5,0.25,35,203.5
1784,E-4,445.0,0.25,35,203.5
1785,G4,445.0,0.25,35,203.5
1786,C5,445.5,0.5,50,203.5
1787,E-4,445.5,0.25,35,203.5
1788,G4,445.5,0.25,35,203.5
1789,B4,446.0,0.5,57,203.5
1790,C4,446.0,0.25,42,203.5
1791,C5,446.5,0.5,53,203.5
1792,E4,446.5,0.25,33,203.5
1793,G4,446.5,0.25,33,203.5
1794,B-4,446.5,0.25,33,203.5
1795,C6,447.0,0.25,60,203.5
1796,E4,447.0,0.25,33,203.5
1797,G4,447.0,0.25,33,203.5
1798,B-4,447.0,0.25,33,203.5
1799,C6,447.5,0.25,52,203.5
1800,E4,447.5,0.25,33,203.5
1801,G4,447.5,0.25,33,203.5
1802,B-4,447.5,0.25,33,203.5
1803,C6,448.0,1.0,60,203.5
1804,C4,448.0,0.25,42,203.5
1805,F4,448.5,0.25,35,203.5
1806,G#4,448.5,0.25,35,203.5
1807,F4,449.0,0.25,35,203.5
1808,G#4,449.0,0.25,35,203.5
1809,F6,449.5,0.5,59,203.5
1810,F4,449.5,0.25,35,203.5
1811,G#4,449.5,0.25,35,203.5
1812,E-6,450.0,0.5,65,203.5
1813,C4,450.0,0.25,42,203.5
1814,D6,450.5,0.5,60,203.5
1815,F4,450.5,0.25,33,203.5
1816,G#4,450.5,0.25,33,203.5
1817,B4,450.5,0.25,33,203.5
1818,C6,451.0,0.5,66,203.5
1819,F4,451.0,0.25,33,203.5
1820,G#4,451.0,0.25,33,203.5
1821,B4,451.0,0.25,33,203.5
1822,B5,451.5,0.5,60,203.5
1823,F4,451.5,0.25,33,203.5
1824,G#4,451.5,0.25,33,203.5
1825,B4,451.5,0.25,33,203.5
1826,D6,452.0,0.5,69,203.5
1827,C4,452.0,0.25,42,203.5
1828,C6,452.5,0.5,60,203.5
1829,E-4,452.5,0.25,35,203.5
1830,G4,452.5,0.25,35,203.5
1831,E-4,453.0,0.25,35,203.5
1832,G4,453.0,0.25,35,203.5
1833,C5,453.5,0.5,50,203.5
1834,E-4,453.5,0.25,35,203.5
1835,G4,453.5,0.25,35,203.5
1836,B4,454.0,0.2,54,203.5
1837,C4,454.0,0.25,42,203.5
1838,C5,454.2,0.2,54,203.5
1839,C#5,454.4,0.2,55,203.5
1840,E4,454.5,0.25,33,203.5
1841,G4,454.5,0.25,33,203.5
1842,B-4,454.5,0.25,33,203.5
1843,D5,454.6,0.2,56,203.5
1844,E-5,454.8,0.2,56,203.5
1845,E5,455.0,0.25,57,203.5
1846,E4,455.0,0.25,33,203.5
1847,G4,455.0,0.25,33,203.5
1848,B-4,455.0,0.25,33,203.5
1849,F5,455.25,0.25,58,203.5
1850,F#5,455.5,0.25,59,203.5
1851,E4,455.5,0.25,33,203.5
1852,G4,455.5,0.25,33,203.5
1853,B-4,455.5,0.25,33,203.5
1854,G5,455.75,0.25,59,203.5
1855,G#5,456.0,0.25,60,203.5
1856,C4,456.0,0.25,42,203.5
1857,A5,456.25,0.25,61,203.5
1858,B-5,456.5,0.25,62,203.5
1859,F4,456.5,0.25,35,203.5
1860,G#4,456.5,0.25,35,203.5
1861,B5,456.75,0.25,62,203.5
1862,C6,457.0,0.5,68,203.5
1863,F4,457.0,0.25,35,203.5
1864,G#4,457.0,0.25,35,203.5
1865,F6,457.5,0.5,63,203.5
1866,F4,457.5,0.25,35,203.5
1867,G#4,457.5,0.25,35,203.5
1868,E-6,458.0,0.5,65,203.5
1869,C4,458.0,0.25,42,203.5
1870,D6,458.5,0.5,60,203.5
1871,F4,458.5,0.25,33,203.5
1872,G#4,458.5,0.25,33,203.5
1873,B4,458.5,0.25,33,203.5
1874,C6,459.0,0.5,66,203.5
1875,F4,459.0,0.25,33,203.5
1876,G#4,459.0,0.25,33,203.5
1877,B4,459.0,0.25,33,203.5
1878,B5,459.5,0.5,60,203.5
1879,F4,459.5,0.25,33,203.5
1880,G#4,459.5,0.25,33,203.5
1881,B4,459.5,0.25,33,203.5
1882,C6,460.0,0.25,69,203.5
1883,C4,460.0,0.985,38,203.5
1884,E-4,460.0,0.985,38,203.5
1885,G4,460.0,0.985,38,203.5
1886,C5,460.0,0.985,38,203.5
1887,D6,460.25,0.25,63,203.5
1888,C6,460.5,0.25,63,203.5
1889,B5,460.75,0.25,63,203.5
1890,C6,461.0,0.25,69,203.5
1891,E-6,461.25,0.25,73,203.5
1892,D6,461.5,0.25,72,203.5
1893,F#4,461.5,0.5,42,203.5
1894,C6,461.75,0.25,71,203.5
1895,B5,462.0,0.25,72,203.5
1896,G4,462.0,1.0,52,203.5
1897,C6,462.25,0.25,65,203.5
1898,B5,462.5,0.25,65,203.5
1899,G#5,462.75,0.25,65,203.5
1900,G5,463.0,0.25,69,203.5
1901,F5,463.25,0.25,63,203.5
1902,E-5,463.5,0.25,63,203.5
1903,B3,463.5,0.5,48,203.5
1904,D5,463.75,0.25,63,203.5
1905,C5,464.0,0.25,69,203.5
1906,C4,464.0,1.0,57,203.5
1907,D5,464.25,0.25,63,203.5
1908,C5,464.5,0.25,63,203.5
1909,B4,464.75,0.25,61,203.5
1910,C5,465.0,0.25,66,203.5
1911,E-5,465.25,0.25,72,203.5
1912,D5,465.5,0.25,70,203.5
1913,F#3,465.5,0.5,54,203.5
1914,C5,465.75,0.25,67,203.5
1915,B4,466.0,0.25,69,203.5
1916,G3,466.0,1.0,63,203.5
1917,C5,466.25,0.25,63,203.5
1918,B4,466.5,0.25,63,203.5
1919,G#4,466.75,0.25,63,203.5
1920,G4,467.0,0.25,69,203.5
1921,F4,467.25,0.25,63,203.5
1922,E-4,467.5,0.25,63,203.5
1923,B2,467.5,0.5,57,203.5
1924,D4,467.75,0.25,63,203.5
1925,C4,468.0,0.25,77,203.5
1926,C3,468.0,1.0,66,203.5
1927,D4,468.25,0.25,69,203.5
1928,C4,468.5,0.25,69,203.5
1929,B3,468.75,0.25,69,203.5
1930,C4,469.0,0.25,77,203.5
1931,E-4,469.25,0.25,69,203.5
1932,D4,469.5,0.25,69,203.5
1933,F#2,469.5,0.5,58,203.5
1934,C4,469.75,0.25,69,203.5
1935,B3,470.0,0.25,77,203.5
1936,G2,470.0,1.0,67,203.5
1937,G4,470.25,0.25,69,203.5
1938,D4,470.5,0.25,69,203.5
1939,B3,470.75,0.25,69,203.5
1940,G3,471.0,0.25,79,203.5
1941,C2,471.0,0.5,89,203.5
1942,C3,471.0,0.5,89,203.5
1943,G4,471.25,0.25,69,203.5
1944,E-4,471.5,0.25,69,203.5
1945,C4,471.75,0.25,69,203.5
1946,G3,472.0,0.25,81,203.5
1947,G1,472.0,0.5,60,203.5
1948,G2,472.0,0.5,60,203.5
1949,G4,472.25,0.25,69,203.5
1950,D4,472.5,0.25,69,203.5
1951,B3,472.75,0.25,69,203.5
1952,G3,473.0,0.25,80,203.5
1953,C2,473.0,0.5,90,203.5
1954,C3,473.0,0.5,90,203.5
1955,G4,473.25,0.25,69,203.5
1956,E-4,473.5,0.25,69,203.5
1957,C4,473.75,0.25,69,203.5
1958,G3,474.0,0.25,80,203.5
1959,G1,474.0,0.5,62,203.5
1960,G2,474.0,0.5,62,203.5
1961,G4,474.25,0.25,69,203.5
1962,D4,474.5,0.25,69,203.5
1963,B3,474.75,0.25,69,203.5
1964,G3,475.0,0.25,80,203.5
1965,C2,475.0,0.5,90,203.5
1966,C3,475.0,0.5,90,203.5
1967,G4,475.25,0.25,69,203.5
1968,E-4,475.5,0.25,69,203.5
1969,C4,475.75,0.25,69,203.5
1970,G3,476.0,2.0,78,203.5
1971,B3,476.0,2.0,78,203.5
1972,D4,476.0,2.0,78,203.5
1973,G4,476.0,2.0,78,203.5
1974,G1,476.0,2.0,69,203.5
1975,B1,476.0,2.0,69,203.5
1976,D2,476.0,2.0,69,203.5
1977,G2,476.0,2.0,69,203.5
1978,G4,478.5,0.25,40,203.5
1979,A4,479.0,0.25,37,203.5
1980,B4,479.5,0.25,37,203.5
1981,C5,480.0,0.25,46,203.5
1982,E4,480.0,2.0,39,203.5
1983,G4,480.0,2.0,39,203.5
1984,G3,480.0,2.0,28,203.5
1985,C3,480.0,2.0,28,203.5
1986,C4,480.0,2.0,28,203.5
1987,D5,480.5,0.25,40,203.5
1988,E5,481.0,0.25,40,203.5
1989,D4,482.0,0.25,40,203.5
1990,G4,482.0,0.25,40,203.5
1991,D5,482.0,0.25,40,203.5
1992,G3,482.0,0.25,27,203.5
1993,F3,482.0,0.25,27,203.5
1994,B3,482.0,0.25,27,203.5
1995,E4,483.0,0.25,35,203.5
1996,G4,483.0,0.25,35,203.5
1997,C5,483.0,0.25,35,203.5
1998,E3,483.0,0.25,24,203.5
1999,G3,483.0,0.25,24,203.5
2000,C4,483.0,0.25,24,203.5
2001,F4,484.0,2.0,39,203.5
2002,G4,484.0,2.0,39,203.5
2003,B4,484.0,2.0,39,203.5
2004,F5,484.0,2.0,39,203.5
2005,G3,484.0,2.0,29,203.5
2006,D3,484.0,2.0,29,203.5
2007,D4,484.0,2.0,29,203.5
2008,G4,486.5,0.25,40,203.5
2009,A4,487.0,0.25,37,203.5
2010,B4,487.5,0.25,37,203.5
2011,C5,488.0,0.25,46,203.5
2012,E4,488.0,2.0,39,203.5
2013,G4,488.0,2.0,39,203.5
2014,G3,488.0,2.0,28,203.5
2015,C3,488.0,2.0,28,203.5
2016,C4,488.0,2.0,28,203.5
2017,D5,488.5,0.25,40,203.5
2018,E5,489.0,0.25,40,203.5
2019,D4,490.0,0.25,40,203.5
2020,A4,490.0,0.25,40,203.5
2021,D5,490.0,0.25,40,203.5
2022,F3,490.0,0.25,28,203.5
2023,A3,490.0,0.25,28,203.5
2024,A4,491.0,0.25,35,203.5
2025,D4,491.0,0.25,35,203.5
2026,C5,491.0,0.25,35,203.5
2027,F#3,491.0,0.25,25,203.5
2028,A3,491.0,0.25,25,203.5
2029,B3,492.0,2.0,33,203.5
2030,D4,492.0,2.0,33,203.5
2031,G4,492.0,2.0,33,203.5
2032,G2,492.0,2.0,24,203.5
2033,G3,492.0,2.0,24,203.5
2034,G4,494.5,0.25,40,203.5
2035,A4,495.0,0.25,37,203.5
2036,B4,495.5,0.25,37,203.5
2037,C5,496.0,0.25,46,203.5
2038,E4,496.0,2.0,39,203.5
2039,G4,496.0,2.0,39,203.5
2040,G3,496.0,2.0,28,203.5
2041,C3,496.0,2.0,28,203.5
2042,C4,496.0,2.0,28,203.5
2043,D5,496.5,0.25,40,203.5
2044,E5,497.0,0.25,40,203.5
2045,D4,498.0,0.25,40,203.5
2046,G4,498.0,0.25,40,203.5
2047,D5,498.0,0.25,40,203.5
2048,G3,498.0,0.25,27,203.5
2049,F3,498.0,0.25,27,203.5
2050,B3,498.0,0.25,27,203.5
2051,E4,499.0,0.25,35,203.5
2052,G4,499.0,0.25,35,203.5
2053,C5,499.0,0.25,35,203.5
2054,G3,499.0,0.25,24,203.5
2055,E3,499.0,0.25,24,203.5
2056,C4,499.0,0.25,24,203.5
2057,F3,499.781,1.156,32,203.5
2058,A3,499.781,1.156,32,203.5
2059,C4,499.781,1.156,32,203.5
2060,F4,499.875,1.125,40,203.5
2061,A4,499.906,2.031,55,203.5
2062,C5,499.906,2.031,55,203.5
2063,F5,499.906,2.031,55,203.5
2064,A5,500.0,2.5,80,203.5
2065,A5,502.5,0.25,48,203.5
2066,G5,503.0,0.25,53,203.5
2067,F5,503.5,0.25,50,203.5
2068,E5,504.0,0.5,53,203.5
2069,G3,504.0,8.0,80,203.5
2070,D5,504.5,0.5,48,203.5
2071,C5,505.0,0.25,48,203.5
2072,B4,505.5,0.25,48,203.5
2073,A4,506.0,1.0,53,203.5
2074,D4,506.0,2.0,45,203.5
2075,F4,506.0,2.0,45,203.5
2076,G2,506.5,0.25,49,203.5
2077,G4,507.0,1.0,49,203.5
2078,A2,507.0,0.25,53,203.5
2079,B2,507.5,0.25,45,203.5
2080,C3,508.0,0.25,53,203.5
2081,C4,508.0,2.0,44,203.5
2082,E4,508.0,2.0,44,203.5
2083,G4,508.0,2.0,44,203.5
2084,D3,508.5,0.25,49,203.5
2085,E3,509.0,0.25,51,203.5
2086,D3,510.0,1.0,53,203.5
2087,G5,510.5,0.25,48,203.5
2088,F5,511.0,0.25,53,203.5
2089,C3,511.0,1.0,50,203.5
2090,E5,511.5,0.25,50,203.5
2091,E5,512.0,0.5,53,203.5
2092,G3,512.0,8.0,80,203.5
2093,D5,512.5,0.5,48,203.5
2094,C5,513.0,0.25,48,203.5
2095,B4,513.5,0.25,48,203.5
2096,G#4,514.0,1.0,53,203.5
2097,D4,514.0,2.0,45,203.5
2098,F4,514.0,2.0,45,203.5
2099,G2,514.5,0.25,49,203.5
2100,G4,515.0,1.0,49,203.5
2101,A2,515.0,0.25,53,203.5
2102,B2,515.5,0.25,45,203.5
2103,C3,516.0,0.25,53,203.5
2104,C4,516.0,2.0,54,203.5
2105,E-4,516.0,2.0,54,203.5
2106,G4,516.0,2.0,54,203.5
2107,D3,516.5,0.25,49,203.5
2108,E-3,517.0,0.25,51,203.5
2109,D3,518.0,1.0,53,203.5
2110,G5,518.5,0.25,48,203.5
2111,G4,518.5,0.25,48,203.5
2112,C3,519.0,1.0,50,203.5
2113,F5,519.0,0.25,53,203.5
2114,F4,519.0,0.25,53,203.5
2115,E-5,519.5,0.25,50,203.5
2116,E-4,519.5,0.25,50,203.5
2117,E-5,520.0,0.5,55,203.5
2118,E-4,520.0,0.5,55,203.5
2119,D3,520.0,1.0,47,203.5
2120,F3,520.0,1.0,47,203.5
2121,F2,520.0,1.0,47,203.5
2122,G#2,520.0,1.0,47,203.5
2123,D5,520.5,0.5,48,203.5
2124,D4,520.5,0.5,48,203.5
2125,C5,521.0,0.25,48,203.5
2126,C4,521.0,0.25,48,203.5
2127,B4,521.5,0.25,48,203.5
2128,B3,521.5,0.25,48,203.5
2129,G#3,522.0,0.25,55,203.5
2130,G#4,522.0,0.25,55,203.5
2131,B2,522.0,1.0,44,203.5
2132,G2,522.0,1.0,44,203.5
2133,D3,522.0,1.0,44,203.5
2134,F3,522.0,1.0,44,203.5
2135,G3,522.5,0.25,48,203.5
2136,G4,522.5,0.25,48,203.5
2137,A3,523.0,0.25,48,203.5
2138,A4,523.0,0.25,48,203.5
2139,B3,523.5,0.25,48,203.5
2140,B4,523.5,0.25,48,203.5
2141,C4,524.0,1.0,54,203.5
2142,C5,524.0,1.0,54,203.5
2143,E-3,524.0,0.5,54,203.5
2144,C3,524.0,0.5,54,203.5
2145,G3,524.5,0.25,48,203.5
2146,G3,525.0,0.25,48,203.5
2147,C5,525.5,0.5,54,203.5
2148,G3,525.5,0.25,48,203.5
2149,B4,526.0,0.5,60,203.5
2150,G3,526.0,0.5,54,203.5
2151,C5,526.5,0.5,55,203.5
2152,G3,526.5,0.25,47,203.5
2153,B2,527.0,0.25,47,203.5
2154,D5,527.0,0.25,57,203.5
2155,F5,527.0,0.25,57,203.5
2156,G3,527.5,0.25,47,203.5
2157,D5,527.5,0.25,52,203.5
2158,F5,527.5,0.25,52,203.5
2159,C3,528.0,0.5,63,203.5
2160,C5,528.0,1.0,60,203.5
2161,E-5,528.0,1.0,60,203.5
2162,G3,528.5,0.25,52,203.5
2163,G3,529.0,0.25,52,203.5
2164,C5,529.5,0.5,61,203.5
2165,G3,529.5,0.25,52,203.5
2166,B4,530.0,0.5,68,203.5
2167,G3,530.0,0.5,59,203.5
2168,C5,530.5,0.5,63,203.5
2169,G3,530.5,0.25,52,203.5
2170,B2,531.0,0.25,52,203.5
2171,F5,531.0,0.25,64,203.5
2172,G#5,531.0,0.25,64,203.5
2173,G3,531.5,0.25,52,203.5
2174,F5,531.5,0.25,59,203.5
2175,G#5,531.5,0.25,59,203.5
2176,C3,532.0,0.5,69,203.5
2177,E-5,532.0,1.0,70,203.5
2178,G5,532.0,1.0,70,203.5
2179,G3,532.5,0.25,55,203.5
2180,G3,533.0,0.25,55,203.5
2181,C6,533.5,0.5,74,203.5
2182,G3,533.5,0.25,55,203.5
2183,B5,534.0,0.5,84,203.5
2184,G3,534.0,0.5,71,203.5
2185,C6,534.5,0.5,77,203.5
2186,G3,534.5,0.25,62,203.5
2187,F6,535.0,0.25,94,203.5
2188,D6,535.0,0.25,94,203.5
2189,B2,535.0,0.25,60,203.5
2190,D3,535.0,0.25,60,203.5
2191,F3,535.0,0.25,60,203.5
2192,G3,535.0,0.25,60,203.5
2193,D6,535.5,0.25,86,203.5
2194,F6,535.5,0.25,86,203.5
2195,B2,535.5,0.25,61,203.5
2196,D3,535.5,0.25,61,203.5
2197,F3,535.5,0.25,61,203.5
2198,G3,535.5,0.25,61,203.5
2199,D6,536.0,1.0,101,203.5
2200,F6,536.0,1.25,101,203.5
2201,G3,536.0,4.0,58,203.5
2202,B2,536.0,4.0,58,203.5
2203,D3,536.0,4.0,58,203.5
2204,F3,536.0,4.0,58,203.5
2205,E-6,537.25,0.25,74,203.5
2206,D6,537.5,0.25,73,203.5
2207,C6,537.75,0.25,72,203.5
2208,B5,538.0,0.25,72,203.5
2209,C6,538.25,0.25,72,203.5
2210,D6,538.5,0.25,71,203.5
2211,C6,538.75,0.25,70,203.5
2212,B5,539.0,0.25,69,203.5
2213,G#5,539.25,0.25,68,203.5
2214,G5,539.5,0.25,67,203.5
2215,F5,539.75,0.25,66,203.5
2216,E-5,540.0,0.333,66,203.5
2217,C3,540.0,1.0,55,203.5
2218,E-3,540.0,1.0,55,203.5
2219,G3,540.0,1.0,55,203.5
2220,F5,540.333,0.333,62,203.5
2221,G5,540.667,0.333,62,203.5
2222,F5,541.0,0.333,66,203.5
2223,E-5,541.333,0.333,62,203.5
2224,D5,541.667,0.333,62,203.5
2225,C5,542.0,0.333,66,203.5
2226,B-4,542.333,0.333,62,203.5
2227,G#4,542.667,0.333,62,203.5
2228,G4,543.0,0.333,66,203.5
2229,F4,543.333,0.333,60,203.5
2230,E-4,543.667,0.333,63,203.5
2231,F2,544.0,0.5,73,203.5
2232,D4,544.25,0.25,59,203.5
2233,F4,544.5,0.25,63,203.5
2234,G#4,544.75,0.25,67,203.5
2235,D5,545.0,0.5,72,203.5
2236,F3,545.5,0.25,63,203.5
2237,G2,546.0,0.5,70,203.5
2238,B3,546.25,0.25,63,203.5
2239,D4,546.5,0.25,66,203.5
2240,F4,546.75,0.25,69,203.5
2241,B4,547.0,0.5,72,203.5
2242,G3,547.5,0.25,63,203.5
2243,B4,548.0,0.25,67,203.5
2244,B5,548.25,0.25,60,203.5
2245,B4,548.5,0.25,67,203.5
2246,F4,548.5,0.25,63,203.5
2247,B5,548.75,0.25,60,203.5
2248,G4,548.75,0.25,65,203.5
2249,B4,549.0,0.25,67,203.5
2250,G#4,549.0,0.25,69,203.5
2251,B5,549.25,0.25,59,203.5
2252,G4,549.25,0.25,67,203.5
2253,B4,549.5,0.25,67,203.5
2254,F4,549.5,0.25,65,203.5
2255,B5,549.75,0.25,61,203.5
2256,E-4,549.75,0.25,64,203.5
2257,B4,550.0,0.25,67,203.5
2258,D4,550.0,0.333,67,203.5
2259,B5,550.25,0.25,59,203.5
2260,C4,550.333,0.333,61,203.5
2261,B4,550.5,0.25,67,203.5
2262,B3,550.667,0.333,61,203.5
2263,B5,550.75,0.25,59,203.5
2264,B4,551.0,0.25,67,203.5
2265,G#3,551.0,0.333,67,203.5
2266,B5,551.25,0.25,59,203.5
2267,G3,551.333,0.333,62,203.5
2268,B4,551.5,0.25,67,203.5
2269,F3,551.667,0.333,62,203.5
2270,B5,551.75,0.25,60,203.5
2271,C5,552.0,0.25,67,203.5
2272,E-3,552.0,0.333,67,203.5
2273,C6,552.25,0.25,60,203.5
2274,F3,552.333,0.333,63,203.5
2275,C5,552.5,0.25,69,203.5
2276,G3,552.667,0.333,63,203.5
2277,C6,552.75,0.25,62,203.5
2278,C5,553.0,0.25,71,203.5
2279,F3,553.0,0.333,67,203.5
2280,C6,553.25,0.25,63,203.5
2281,E-3,553.333,0.333,60,203.5
2282,C5,553.5,0.25,72,203.5
2283,D3,553.667,0.333,60,203.5
2284,C6,553.75,0.25,67,203.5
2285,C5,554.0,0.25,75,203.5
2286,C3,554.0,0.333,70,203.5
2287,C6,554.25,0.25,67,203.5
2288,B-2,554.333,0.333,63,203.5
2289,C5,554.5,0.25,77,203.5
2290,G#2,554.667,0.333,66,203.5
2291,C6,554.75,0.25,69,203.5
2292,C5,555.0,0.25,80,203.5
2293,G2,555.0,0.333,74,203.5
2294,C6,555.25,0.25,71,203.5
2295,F2,555.333,0.333,67,203.5
2296,C5,555.5,0.25,81,203.5
2297,E-2,555.667,0.333,67,203.5
2298,C6,555.75,0.25,73,203.5
2299,F1,556.0,0.5,73,203.5
2300,F2,556.0,0.5,73,203.5
2301,F5,556.25,0.25,71,203.5
2302,G#5,556.5,0.25,76,203.5
2303,D6,556.75,0.25,81,203.5
2304,F6,557.0,0.5,86,203.5
2305,F1,557.5,0.25,63,203.5
2306,F2,557.5,0.25,63,203.5
2307,G1,558.0,0.5,70,203.5
2308,G2,558.0,0.5,70,203.5
2309,D5,558.25,0.25,75,203.5
2310,F5,558.5,0.25,79,203.5
2311,B5,558.75,0.25,82,203.5
2312,D6,559.0,0.5,86,203.5
2313,G1,559.5,0.25,63,203.5
2314,G2,559.5,0.25,63,203.5
2315,C5,560.0,1.0,84,203.5
2316,G5,560.0,1.0,84,203.5
2317,E-5,560.0,1.0,84,203.5
2318,C6,560.0,1.0,84,203.5
2319,C2,560.0,1.0,62,203.5
2320,E-2,560.0,1.0,62,203.5
2321,G2,560.0,1.0,62,203.5
2322,C3,560.0,1.0,62,203.5
2323,G5,561.0,0.25,63,203.5
2324,C#4,561.0,0.25,58,203.5
2325,E4,561.0,0.25,58,203.5
2326,G5,561.5,0.25,63,203.5
2327,C#4,561.5,0.25,58,203.5
2328,E4,561.5,0.25,58,203.5
2329,G5,562.0,0.5,70,203.5
2330,D4,562.0,0.5,64,203.5
2331,F4,562.0,0.5,64,203.5
2332,G5,563.0,0.25,63,203.5
2333,C#4,563.0,0.25,58,203.5
2334,E4,563.0,0.25,58,203.5
2335,G5,563.5,0.25,63,203.5
2336,C#4,563.5,0.25,58,203.5
2337,E4,563.5,0.25,58,203.5
2338,G5,564.0,0.5,69,203.5
2339,D4,564.0,0.5,64,203.5
2340,F4,564.0,0.5,64,203.5
2341,D3,565.0,0.5,64,203.5
2342,F3,565.0,0.5,64,203.5
2343,B3,565.0,0.5,64,203.5
2344,G1,565.0,0.5,68,203.5
2345,G2,565.0,0.5,68,203.5
2346,D3,567.0,0.25,35,203.5
2347,F3,567.0,0.25,35,203.5
2348,B3,567.0,0.25,35,203.5
2349,G1,567.0,0.25,33,203.5
2350,G2,567.0,0.25,33,203.5
2351,C3,568.0,0.25,40,203.5
2352,E-3,568.0,0.25,40,203.5
2353,C4,568.0,0.25,40,203.5
2354,G#1,568.0,0.25,35,203.5
2355,G#2,568.0,0.25,35,203.5
2356,A3,569.0,0.25,37,203.5
2357,C4,569.0,0.25,37,203.5
2358,D4,569.0,0.25,37,203.5
2359,F#1,569.0,0.25,33,203.5
2360,F#2,569.0,0.25,33,203.5
2361,G3,570.0,0.25,40,203.5
2362,C4,570.0,0.25,40,203.5
2363,E-4,570.0,0.25,40,203.5
2364,G1,570.0,0.25,35,203.5
2365,G2,570.0,0.25,35,203.5
2366,F3,571.0,0.25,35,203.5
2367,B3,571.0,0.25,35,203.5
2368,D4,571.0,0.25,35,203.5
2369,G1,571.0,0.25,30,203.5
2370,G2,571.0,0.25,30,203.5
2371,E-3,572.0,0.25,40,203.5
2372,G3,572.0,0.25,40,203.5
2373,C4,572.0,0.25,40,203.5
2374,C2,572.0,0.25,35,203.5
2375,C3,572.0,0.25,35,203.5
2376,G5,573.0,0.25,63,203.5
2377,C#4,573.0,0.25,58,203.5
2378,E4,573.0,0.25,58,203.5
2379,G#5,573.25,0.25,59,203.5
2380,G5,573.5,0.25,63,203.5
2381,C#4,573.5,0.25,58,203.5
2382,E4,573.5,0.25,58,203.5
2383,F#5,573.75,0.25,59,203.5
2384,G5,574.0,0.5,70,203.5
2385,D4,574.0,0.5,64,203.5
2386,F4,574.0,0.5,64,203.5
2387,G5,575.0,0.25,63,203.5
2388,C#4,575.0,0.25,58,203.5
2389,E4,575.0,0.25,58,203.5
2390,G#5,575.25,0.25,58,203.5
2391,G5,575.5,0.25,63,203.5
2392,E4,575.5,0.25,58,203.5
2393,C#4,575.5,0.25,58,203.5
2394,F#5,575.75,0.25,57,203.5
2395,G5,576.0,0.5,69,203.5
2396,D4,576.0,0.5,64,203.5
2397,F4,576.0,0.5,64,203.5
2398,D3,577.0,0.5,64,203.5
2399,F3,577.0,0.5,64,203.5
2400,B3,577.0,0.5,64,203.5
2401,G1,577.0,0.5,68,203.5
2402,G2,577.0,0.5,68,203.5
2403,C3,579.0,2.0,58,203.5
2404,E-3,579.0,2.0,58,203.5
2405,F#3,579.0,2.0,58,203.5
2406,C4,579.0,2.0,58,203.5
2407,G#1,579.0,2.0,58,203.5
2408,C2,579.0,2.0,58,203.5
2409,E-2,579.0,2.0,58,203.5
2410,G#2,579.0,2.0,58,203.5
2411,A3,581.0,0.25,37,203.5
2412,C4,581.0,0.25,37,203.5
2413,D4,581.0,0.25,37,203.5
2414,F#1,581.0,0.25,33,203.5
2415,F#2,581.0,0.25,33,203.5
2416,G3,582.0,0.25,40,203.5
2417,C4,582.0,0.25,40,203.5
2418,E-4,582.0,0.25,40,203.5
2419,G1,582.0,0.25,35,203.5
2420,G2,582.0,0.25,35,203.5
2421,F3,583.0,0.25,35,203.5
2422,B3,583.0,0.25,35,203.5
2423,D4,583.0,0.25,35,203.5
2424,G1,583.0,0.25,30,203.5
2425,G2,583.0,0.25,30,203.5
2426,C2,584.0,0.5,32,203.5
2427,E-3,584.0,0.5,40,203.5
2428,G3,584.0,0.5,40,203.5
2429,C4,584.0,0.5,40,203.5
2430,C3,584.5,0.5,27,203.5
2431,B3,585.0,0.5,33,203.5
2432,F4,585.0,0.5,33,203.5
2433,C4,585.5,0.5,30,203.5
2434,E-4,585.5,0.5,30,203.5
2435,C2,586.0,0.5,32,203.5
2436,C3,586.5,0.5,28,203.5
2437,F4,587.0,0.5,34,203.5
2438,B4,587.0,0.5,34,203.5
2439,E-4,587.5,0.5,30,203.5
2440,C5,587.5,0.5,30,203.5
2441,C2,588.0,0.5,32,203.5
2442,C3,588.5,0.5,28,203.5
2443,F5,589.0,0.5,34,203.5
2444,B4,589.0,0.5,34,203.5
2445,C5,589.5,0.5,30,203.5
2446,E-5,589.5,0.5,30,203.5
2447,C2,590.0,0.5,32,203.5
2448,C3,590.5,0.5,27,203.5
2449,B5,591.0,0.5,40,203.5
2450,F5,591.0,0.5,40,203.5
2451,E-5,591.5,0.5,33,203.5
2452,C6,591.5,0.5,33,203.5
2453,G#1,592.0,0.5,36,203.5
2454,G#2,592.5,0.5,32,203.5
2455,C4,593.0,0.5,40,203.5
2456,F#4,593.0,0.5,40,203.5
2457,C#4,593.5,0.5,36,203.5
2458,F4,593.5,0.5,36,203.5
2459,G#1,594.0,0.5,42,203.5
2460,G#2,594.5,0.5,38,203.5
2461,F4,595.0,0.5,48,203.5
2462,C#5,595.0,0.5,48,203.5
2463,F#4,595.5,0.5,42,203.5
2464,C5,595.5,0.5,42,203.5
2465,G#1,596.0,0.5,55,203.5
2466,G#2,596.5,0.5,51,203.5
2467,F5,597.0,0.5,60,203.5
2468,C#5,597.0,0.5,60,203.5
2469,C5,597.5,0.5,52,203.5
2470,F#5,597.5,0.5,52,203.5
2471,G#1,598.0,0.5,64,203.5
2472,G#2,598.5,0.5,56,203.5
2473,C#6,599.0,0.5,70,203.5
2474,F5,599.0,0.5,70,203.5
2475,F#5,599.5,0.5,60,203.5
2476,C6,599.5,0.5,60,203.5
2477,E-6,600.0,4.0,81,203.5
2478,F#5,600.0,4.0,81,203.5
2479,G#1,600.0,10.0,68,203.5
2480,G#2,600.0,10.0,68,203.5
2481,C#6,604.0,1.0,59,203.5
2482,E-5,604.0,2.0,40,203.5
2483,C6,605.0,1.0,54,203.5
2484,B-5,606.0,1.0,57,203.5
2485,C5,606.0,4.0,40,203.5
2486,G#5,607.0,0.5,50,203.5
2487,F5,607.5,0.167,41,203.5
2488,F#5,607.667,0.167,36,203.5
2489,G#5,607.833,0.167,36,203.5
2490,F#5,608.0,2.0,50,203.5
2491,G#3,610.5,0.25,34,203.5
2492,B-3,611.0,0.25,31,203.5
2493,C4,611.5,0.25,31,203.5
2494,C#4,612.0,0.25,39,203.5
2495,F3,612.0,2.0,33,203.5
2496,G#3,612.0,2.0,33,203.5
2497,C#2,612.0,2.0,24,203.5
2498,C#3,612.0,2.0,24,203.5
2499,E-4,612.5,0.25,34,203.5
2500,F4,613.0,0.25,34,203.5
2501,G#3,614.0,0.25,35,203.5
2502,E-4,614.0,0.25,35,203.5
2503,F#2,614.0,0.25,22,203.5
2504,C3,614.0,0.25,22,203.5
2505,G#3,615.0,0.25,30,203.5
2506,C#4,615.0,0.25,30,203.5
2507,F2,615.0,0.25,21,203.5
2508,C#3,615.0,0.25,21,203.5
2509,F#3,616.0,2.5,32,203.5
2510,G#3,616.0,2.5,32,203.5
2511,C4,616.0,2.5,32,203.5
2512,F#4,616.0,2.5,32,203.5
2513,G#2,616.0,2.5,24,203.5
2514,E-3,616.0,2.5,24,203.5
2515,G#3,618.5,0.25,34,203.5
2516,B-3,619.0,0.25,31,203.5
2517,C4,619.5,0.25,31,203.5
2518,C#4,620.0,0.25,39,203.5
2519,F3,620.0,2.0,33,203.5
2520,G#3,620.0,2.0,33,203.5
2521,C#2,620.0,2.0,24,203.5
2522,C#3,620.0,2.0,24,203.5
2523,E-4,620.5,0.25,34,203.5
2524,F4,621.0,0.25,34,203.5
2525,E-3,622.0,0.25,34,203.5
2526,B-3,622.0,0.25,34,203.5
2527,E-4,622.0,0.25,34,203.5
2528,F#1,622.0,0.25,22,203.5
2529,F#2,622.0,0.25,22,203.5
2530,B-3,623.0,0.25,29,203.5
2531,E-3,623.0,0.25,29,203.5
2532,C#4,623.0,0.25,29,203.5
2533,G1,623.0,0.25,21,203.5
2534,G2,623.0,0.25,21,203.5
2535,C3,624.0,2.0,28,203.5
2536,E-3,624.0,2.0,28,203.5
2537,G#3,624.0,2.0,28,203.5
2538,G#1,624.0,2.0,20,203.5
2539,G#2,624.0,2.0,20,203.5
2540,G#3,626.5,0.25,34,203.5
2541,B-3,627.0,0.25,31,203.5
2542,C4,627.5,0.25,31,203.5
2543,C#4,628.0,0.25,39,203.5
2544,F3,628.0,2.0,33,203.5
2545,G#3,628.0,2.0,33,203.5
2546,C#2,628.0,2.0,24,203.5
2547,C#3,628.0,2.0,24,203.5
2548,E-4,628.5,0.25,34,203.5
2549,F4,629.0,0.25,34,203.5
2550,G#3,630.0,0.25,35,203.5
2551,E-4,630.0,0.25,35,203.5
2552,F#2,630.0,0.25,22,203.5
2553,C3,630.0,0.25,22,203.5
2554,G#3,631.0,0.25,30,203.5
2555,C#4,631.0,0.25,30,203.5
2556,F2,631.0,0.25,21,203.5
2557,C#3,631.0,0.25,21,203.5
2558,C4,632.0,1.996,28,203.5
2559,F#4,632.0,1.5,35,203.5
2560,F#3,632.0,4.0,28,203.5
2561,G#3,632.0,4.0,28,203.5
2562,G#2,632.0,4.0,25,203.5
2563,C3,632.0,4.0,25,203.5
2564,E-3,632.0,4.0,25,203.5
2565,E-4,633.5,0.5,30,203.5
2566,C4,634.0,2.0,34,203.5
2567,A1,636.0,0.167,30,203.5
2568,C2,636.167,0.167,32,203.5
2569,E-2,636.333,0.167,33,203.5
2570,F#2,636.5,0.167,34,203.5
2571,A2,636.665,5.323,36,203.5
2572,C3,636.885,5.115,37,203.5
2573,E-3,637.108,4.892,39,203.5
2574,F#3,637.329,4.671,40,203.5
2575,A3,637.552,4.448,43,203.5
2576,C4,637.773,2.221,46,203.5
2577,F#4,638.0,1.5,49,203.5
2578,E-4,639.5,0.5,30,203.5
2579,C4,640.0,2.0,34,203.5
2580,G1,642.0,0.223,60,203.5
2581,C2,642.223,0.221,61,203.5
2582,E-2,642.444,0.223,62,203.5
2583,G2,642.665,0.223,63,203.5
2584,C3,642.888,0.221,63,203.5
2585,E-3,643.108,0.223,64,203.5
2586,G3,643.331,0.221,63,203.5
2587,C4,643.552,0.223,65,203.5
2588,E-4,643.773,0.227,67,203.5
2589,G4,644.0,0.25,70,203.5
2590,E-4,644.5,0.25,63,203.5
2591,C4,645.0,0.25,67,203.5
2592,G3,645.5,0.25,63,203.5
2593,E-3,646.0,0.25,70,203.5
2594,C3,646.5,0.25,57,203.5
2595,B2,647.0,0.25,63,203.5
2596,G1,647.0,1.0,42,203.5
2597,G2,647.0,1.0,42,203.5
2598,D3,647.5,0.25,53,203.5
2599,C3,648.0,0.5,43,203.5
2600,C2,648.0,0.25,64,203.5
2601,C3,648.5,0.25,38,203.5
2602,C3,649.0,0.25,38,203.5
2603,C3,649.5,0.25,38,203.5
2604,C3,650.0,0.25,41,203.5
2605,C4,650.5,0.25,44,203.5
2606,B-3,650.5,0.25,34,203.5
2607,G3,650.5,0.25,34,203.5
2608,D4,651.0,0.25,47,203.5
2609,B-3,651.0,0.25,34,203.5
2610,G3,651.0,0.25,34,203.5
2611,E4,651.5,0.25,51,203.5
2612,B-3,651.5,0.25,34,203.5
2613,G3,651.5,0.25,34,203.5
2614,F4,652.0,0.25,54,203.5
2615,C3,652.0,0.25,43,203.5
2616,G4,652.5,0.25,46,203.5
2617,F3,652.5,0.25,34,203.5
2618,G#3,652.5,0.25,34,203.5
2619,G#4,653.0,0.25,47,203.5
2620,F3,653.0,0.25,34,203.5
2621,G#3,653.0,0.25,34,203.5
2622,C6,653.5,0.5,56,203.5
2623,F3,653.5,0.25,34,203.5
2624,G#3,653.5,0.25,34,203.5
2625,B5,654.0,0.5,65,203.5
2626,C3,654.0,0.25,41,203.5
2627,C6,654.5,0.5,55,203.5
2628,B3,654.5,0.25,33,203.5
2629,G#3,654.5,0.25,33,203.5
2630,F3,654.5,0.25,33,203.5
2631,F6,655.0,0.25,66,203.5
2632,B3,655.0,0.25,33,203.5
2633,G#3,655.0,0.25,33,203.5
2634,F3,655.0,0.25,33,203.5
2635,F6,655.5,0.25,54,203.5
2636,B3,655.5,0.25,33,203.5
2637,G#3,655.5,0.25,33,203.5
2638,F3,655.5,0.25,33,203.5
2639,E6,656.0,1.0,66,203.5
2640,C3,656.0,0.5,43,203.5
2641,E3,656.5,0.25,34,203.5
2642,G3,656.5,0.25,34,203.5
2643,C4,656.5,0.25,34,203.5
2644,E3,657.0,0.25,34,203.5
2645,G3,657.0,0.25,34,203.5
2646,C4,657.0,0.25,34,203.5
2647,E3,657.5,0.25,34,203.5
2648,G3,657.5,0.25,34,203.5
2649,C4,657.5,0.25,34,203.5
2650,C3,658.0,0.25,41,203.5
2651,C4,658.5,0.25,44,203.5
2652,B-3,658.5,0.25,34,203.5
2653,G3,658.5,0.25,34,203.5
2654,D4,659.0,0.25,47,203.5
2655,B-3,659.0,0.25,34,203.5
2656,G3,659.0,0.25,34,203.5
2657,E4,659.5,0.25,51,203.5
2658,B-3,659.5,0.25,34,203.5
2659,G3,659.5,0.25,34,203.5
2660,F4,660.0,0.25,54,203.5
2661,C3,660.0,0.25,43,203.5
2662,G4,660.5,0.25,46,203.5
2663,F3,660.5,0.25,34,203.5
2664,G#3,660.5,0.25,34,203.5
2665,G#4,661.0,0.25,47,203.5
2666,F3,661.0,0.25,34,203.5
2667,G#3,661.0,0.25,34,203.5
2668,C6,661.5,0.5,56,203.5
2669,F3,661.5,0.25,34,203.5
2670,G#3,661.5,0.25,34,203.5
2671,B5,662.0,0.5,65,203.5
2672,C3,662.0,0.25,41,203.5
2673,C6,662.5,0.5,55,203.5
2674,B3,662.5,0.25,33,203.5
2675,G#3,662.5,0.25,33,203.5
2676,F3,662.5,0.25,33,203.5
2677,F6,663.0,0.25,66,203.5
2678,B3,663.0,0.25,33,203.5
2679,G#3,663.0,0.25,33,203.5
2680,F3,663.0,0.25,33,203.5
2681,F6,663.5,0.25,54,203.5
2682,B3,663.5,0.25,33,203.5
2683,G#3,663.5,0.25,33,203.5
2684,F3,663.5,0.25,33,203.5
2685,E6,664.0,1.0,66,203.5
2686,C3,664.0,0.5,43,203.5
2687,E3,664.5,0.25,34,203.5
2688,G3,664.5,0.25,34,203.5
2689,C4,664.5,0.25,34,203.5
2690,E3,665.0,0.25,34,203.5
2691,G3,665.0,0.25,34,203.5
2692,C4,665.0,0.25,34,203.5
2693,C5,665.5,0.5,50,203.5
2694,E3,665.5,0.25,34,203.5
2695,G3,665.5,0.25,34,203.5
2696,C4,665.5,0.25,34,203.5
2697,B4,666.0,0.5,57,203.5
2698,C3,666.0,0.25,40,203.5
2699,C5,666.5,0.5,47,203.5
2700,B3,666.5,0.25,32,203.5
2701,G#3,666.5,0.25,32,203.5
2702,F3,666.5,0.25,32,203.5
2703,F5,667.0,0.25,57,203.5
2704,B3,667.0,0.25,31,203.5
2705,G#3,667.0,0.25,31,203.5
2706,F3,667.0,0.25,31,203.5
2707,F5,667.5,0.25,45,203.5
2708,B3,667.5,0.25,31,203.5
2709,G#3,667.5,0.25,31,203.5
2710,F3,667.5,0.25,31,203.5
2711,E5,668.0,1.0,55,203.5
2712,C3,668.0,0.5,40,203.5
2713,E3,668.5,0.25,31,203.5
2714,G3,668.5,0.25,31,203.5
2715,C4,668.5,0.25,31,203.5
2716,E3,669.0,0.25,31,203.5
2717,G3,669.0,0.25,31,203.5
2718,C4,669.0,0.25,31,203.5
2719,C4,669.5,0.5,45,203.5
2720,E3,669.5,0.25,30,203.5
2721,G3,669.5,0.25,30,203.5
2722,C4,669.5,0.25,30,203.5
2723,B3,670.0,0.496,51,203.5
2724,C3,670.0,0.25,36,203.5
2725,C4,670.5,0.5,43,203.5
2726,B3,670.5,0.25,29,203.5
2727,G#3,670.5,0.25,29,203.5
2728,F3,670.5,0.25,29,203.5
2729,F4,671.0,0.25,51,203.5
2730,B3,671.0,0.25,28,203.5
2731,G#3,671.0,0.25,28,203.5
2732,F3,671.0,0.25,28,203.5
2733,F4,671.5,0.25,40,203.5
2734,B3,671.5,0.25,27,203.5
2735,G#3,671.5,0.25,27,203.5
2736,F3,671.5,0.25,27,203.5
2737,E4,672.0,1.0,49,203.5
2738,C3,672.0,0.5,32,203.5
2739,E3,672.5,0.25,24,203.5
2740,G3,672.5,0.25,24,203.5
2741,C4,672.5,0.25,24,203.5
2742,E3,673.0,0.25,24,203.5
2743,G3,673.0,0.25,24,203.5
2744,C4,673.0,0.25,24,203.5
2745,C2,673.5,0.496,30,203.5
2746,E3,673.5,0.25,24,203.5
2747,G3,673.5,0.25,24,203.5
2748,C4,673.5,0.25,24,203.5
2749,C2,674.0,1.0,40,203.5
2750,C3,674.0,0.5,32,203.5
2751,E3,674.5,0.25,23,203.5
2752,G3,674.5,0.25,23,203.5
2753,C4,674.5,0.25,23,203.5
2754,E3,675.0,0.25,23,203.5
2755,G3,675.0,0.25,23,203.5
2756,C4,675.0,0.25,23,203.5
2757,C2,675.5,0.5,26,203.5
2758,E3,675.5,0.25,22,203.5
2759,G3,675.5,0.25,22,203.5
2760,C4,675.5,0.25,22,203.5
2761,C2,676.0,1.0,33,203.5
2762,C3,676.0,1.0,21,203.5
2763,E3,676.0,1.0,21,203.5
2764,G3,676.0,1.0,21,203.5
,note_name,start_time,duration,velocity,tempo
0,B-3,3.0,0.25,42,141.2
1,D4,3.0,1.0,50,141.2
2,A3,3.25,0.25,40,141.2
3,B-3,3.5,0.25,45,141.2
4,F3,3.75,0.25,39,141.2
5,D4,4.0,0.188,38,141.2
6,F4,4.0,0.188,38,141.2
7,B-1,4.0,0.188,33,141.2
8,B-2,4.0,0.188,33,141.2
9,B-3,5.0,0.188,35,141.2
10,D4,5.0,0.188,35,141.2
11,B-1,5.0,0.188,30,141.2
12,B-2,5.0,0.188,30,141.2
13,B-3,7.0,0.25,42,141.2
14,D4,7.0,1.0,50,141.2
15,A3,7.25,0.25,40,141.2
16,B-3,7.5,0.25,45,141.2
17,F3,7.75,0.25,39,141.2
18,D4,8.0,0.188,38,141.2
19,F4,8.0,0.188,38,141.2
20,B-1,8.0,0.188,33,141.2
21,B-2,8.0,0.188,33,141.2
22,B-3,9.0,0.188,35,141.2
23,D4,9.0,0.188,35,141.2
24,B-1,9.0,0.188,30,141.2
25,B-2,9.0,0.188,30,141.2
26,D4,11.0,0.5,50,141.2
27,B-3,11.0,0.275,42,141.2
28,A3,11.25,0.275,40,141.2
29,B-3,11.5,0.275,46,141.2
30,F3,11.75,0.25,40,141.2
31,F4,12.0,0.5,53,141.2
32,D4,12.0,0.275,44,141.2
33,C#4,12.25,0.275,42,141.2
34,D4,12.5,0.275,49,141.2
35,B-3,12.75,0.25,42,141.2
36,F4,13.0,0.275,47,141.2
37,B-4,13.0,0.5,56,141.2
38,E4,13.25,0.275,45,141.2
39,F4,13.5,0.275,51,141.2
40,D4,13.75,0.25,45,141.2
41,B-4,14.0,0.275,49,141.2
42,D5,14.0,0.5,59,141.2
43,A4,14.25,0.275,47,141.2
44,B-4,14.5,0.275,54,141.2
45,F4,14.75,0.25,47,141.2
46,D5,15.0,0.275,52,141.2
47,F5,15.0,0.5,62,141.2
48,C#5,15.25,0.275,50,141.2
49,D5,15.5,0.275,57,141.2
50,B-4,15.75,0.25,49,141.2
51,B-5,16.0,3.0,72,141.2
52,B-2,16.0,0.25,44,141.2
53,D3,16.25,0.25,31,141.2
54,F3,16.5,0.25,31,141.2
55,B-3,16.75,0.25,31,141.2
56,B-2,17.0,0.25,44,141.2
57,D3,17.25,0.25,32,141.2
58,F3,17.5,0.25,32,141.2
59,B-3,17.75,0.25,32,141.2
60,B-2,18.0,0.25,44,141.2
61,D3,18.25,0.25,33,141.2
62,F3,18.5,0.25,33,141.2
63,B-3,18.75,0.25,33,141.2
64,A5,19.0,0.25,60,141.2
65,B-2,19.0,0.25,44,141.2
66,B-5,19.25,0.25,57,141.2
67,D3,19.25,0.25,33,141.2
68,C6,19.5,0.25,60,141.2
69,F3,19.5,0.25,33,141.2
70,B-5,19.75,0.25,54,141.2
71,B-3,19.75,0.25,33,141.2
72,A5,20.0,0.5,60,141.2
73,B-2,20.0,0.25,44,141.2
74,E-3,20.25,0.25,31,141.2
75,G5,20.5,0.5,51,141.2
76,G3,20.5,0.25,31,141.2
77,B-3,20.75,0.25,31,141.2
78,F5,21.0,0.5,54,141.2
79,B-2,21.0,0.25,42,141.2
80,E-3,21.25,0.25,28,141.2
81,E-5,21.5,0.5,50,141.2
82,G3,21.5,0.25,28,141.2
83,B-3,21.75,0.25,28,141.2
84,D5,22.0,0.5,59,141.2
85,B-2,22.0,0.25,41,141.2
86,E-3,22.25,0.25,29,141.2
87,C5,22.5,0.5,48,141.2
88,F3,22.5,0.25,29,141.2
89,A3,22.75,0.25,29,141.2
90,G5,23.0,0.5,56,141.2
91,B-2,23.0,0.25,41,141.2
92,E-3,23.25,0.25,31,141.2
93,F5,23.5,0.5,47,141.2
94,F3,23.5,0.25,31,141.2
95,A3,23.75,0.25,31,141.2
96,E-5,24.0,1.0,54,141.2
97,B-2,24.0,0.25,44,141.2
98,D3,24.25,0.25,31,141.2
99,F3,24.5,0.25,31,141.2
100,B-3,24.75,0.25,31,141.2
101,D5,25.0,1.0,47,141.2
102,B-2,25.0,0.25,44,141.2
103,D3,25.25,0.25,32,141.2
104,F3,25.5,0.25,32,141.2
105,B-3,25.75,0.25,32,141.2
106,B-2,26.0,0.25,44,141.2
107,D3,26.25,0.25,32,141.2
108,F3,26.5,0.25,32,141.2
109,G#3,26.75,0.25,32,141.2
110,A4,27.0,0.25,58,141.2
111,B-2,27.0,0.25,44,141.2
112,B-4,27.25,0.25,54,141.2
113,D3,27.25,0.25,32,141.2
114,C5,27.5,0.25,58,141.2
115,F3,27.5,0.25,32,141.2
116,B-4,27.75,0.25,54,141.2
117,G#3,27.75,0.25,32,141.2
118,G#4,28.0,0.5,60,141.2
119,B-2,28.0,0.25,44,141.2
120,E-3,28.25,0.25,32,141.2
121,G4,28.5,0.5,54,141.2
122,G3,28.5,0.25,32,141.2
123,E-3,28.75,0.25,32,141.2
124,F4,29.0,0.5,66,141.2
125,B-2,29.0,0.25,44,141.2
126,E-3,29.25,0.25,36,141.2
127,E-4,29.5,0.5,61,141.2
128,G3,29.5,0.25,36,141.2
129,E-3,29.75,0.25,36,141.2
130,D4,30.0,0.5,69,141.2
131,B-2,30.0,0.25,48,141.2
132,C3,30.25,0.25,37,141.2
133,C4,30.5,0.5,62,141.2
134,E-3,30.5,0.25,38,141.2
135,F3,30.75,0.25,40,141.2
136,E-4,31.0,0.5,73,141.2
137,B-2,31.0,0.25,50,141.2
138,C3,31.25,0.25,40,141.2
139,A3,31.5,0.5,63,141.2
140,E-3,31.5,0.25,39,141.2
141,F3,31.75,0.25,43,141.2
142,B-3,32.0,0.25,79,141.2
143,B-2,32.0,0.25,60,141.2
144,D4,32.5,0.25,68,141.2
145,C4,32.75,0.25,65,141.2
146,B-3,33.0,0.25,71,141.2
147,B-2,33.0,0.25,53,141.2
148,A3,33.25,0.25,65,141.2
149,A2,33.25,0.25,46,141.2
150,B-3,33.5,0.25,71,141.2
151,B-2,33.5,0.25,53,141.2
152,G3,33.75,0.25,65,141.2
153,G2,33.75,0.25,46,141.2
154,F3,34.0,0.25,79,141.2
155,F2,34.0,0.25,60,141.2
156,G4,34.5,0.25,68,141.2
157,F4,34.75,0.25,65,141.2
158,E-4,35.0,0.25,71,141.2
159,E-3,35.0,0.25,53,141.2
160,D4,35.25,0.25,65,141.2
161,D3,35.25,0.25,46,141.2
162,E-4,35.5,0.25,71,141.2
163,E-3,35.5,0.25,53,141.2
164,C4,35.75,0.25,65,141.2
165,C3,35.75,0.25,46,141.2
166,B-3,36.0,0.25,79,141.2
167,B-2,36.0,0.25,60,141.2
168,D5,36.5,0.25,68,141.2
169,C5,36.75,0.25,65,141.2
170,B-4,37.0,0.25,71,141.2
171,B-3,37.0,0.25,53,141.2
172,A4,37.25,0.25,65,141.2
173,A3,37.25,0.25,46,141.2
174,B-4,37.5,0.25,71,141.2
175,B-3,37.5,0.25,53,141.2
176,G4,37.75,0.25,65,141.2
177,G3,37.75,0.25,46,141.2
178,F4,38.0,0.25,79,141.2
179,F3,38.0,0.25,60,141.2
180,G5,38.5,0.25,78,141.2
181,F5,38.75,0.25,74,141.2
182,E-5,39.0,0.25,81,141.2
183,E-4,39.0,0.25,60,141.2
184,D5,39.25,0.25,74,141.2
185,D4,39.25,0.25,52,141.2
186,E-5,39.5,0.25,81,141.2
187,E-4,39.5,0.25,60,141.2
188,C5,39.75,0.25,74,141.2
189,C4,39.75,0.25,52,141.2
190,B-4,40.0,0.25,90,141.2
191,B-3,40.0,0.25,69,141.2
192,C5,40.5,0.25,68,141.2
193,C4,40.5,0.25,53,141.2
194,D5,40.75,0.25,68,141.2
195,D4,40.75,0.25,48,141.2
196,E-5,41.0,0.25,77,141.2
197,E-4,41.0,0.25,54,141.2
198,F5,41.25,0.25,70,141.2
199,F4,41.25,0.25,48,141.2
200,G5,41.5,0.25,70,141.2
201,G4,41.5,0.25,48,141.2
202,A5,41.75,0.25,71,141.2
203,A4,41.75,0.25,49,141.2
204,B-4,42.0,0.25,56,141.2
205,B-5,42.0,1.0,69,141.2
206,C6,42.0,1.0,69,141.2
207,B-5,42.125,0.125,81,141.2
208,A5,42.25,0.25,72,141.2
209,A4,42.25,0.25,50,141.2
210,B-5,42.5,0.25,73,141.2
211,B-4,42.5,0.25,50,141.2
212,C6,42.75,0.25,74,141.2
213,C5,42.75,0.25,51,141.2
214,D5,43.0,0.25,58,141.2
215,D6,43.0,1.0,70,141.2
216,E-6,43.0,1.0,70,141.2
217,D6,43.125,0.25,83,141.2
218,C6,43.25,0.25,75,141.2
219,C5,43.25,0.25,52,141.2
220,D6,43.5,0.25,76,141.2
221,D5,43.5,0.25,52,141.2
222,E6,43.75,0.25,76,141.2
223,E5,43.75,0.25,53,141.2
224,F6,44.0,0.25,92,141.2
225,F5,44.0,0.25,73,141.2
226,F4,45.0,0.25,79,141.2
227,F3,45.0,0.25,60,141.2
228,B-2,47.0,0.25,65,141.2
229,A2,47.25,0.25,57,141.2
230,B-2,47.5,0.25,62,141.2
231,F2,47.75,0.25,55,141.2
232,D3,48.0,0.25,65,141.2
233,C#3,48.25,0.25,58,141.2
234,D3,48.5,0.25,63,141.2
235,B-2,48.75,0.25,57,141.2
236,F3,49.0,0.25,65,141.2
237,E3,49.25,0.25,58,141.2
238,F3,49.5,0.25,63,141.2
239,D3,49.75,0.25,57,141.2
240,B-3,50.0,0.25,65,141.2
241,A3,50.25,0.25,58,141.2
242,B-3,50.5,0.25,63,141.2
243,F3,50.75,0.25,57,141.2
244,D4,51.0,0.25,63,141.2
245,C#4,51.25,0.25,58,141.2
246,D4,51.5,0.25,62,141.2
247,B-3,51.75,0.25,57,141.2
248,F4,52.0,1.75,72,141.2
249,E-4,53.75,0.25,63,141.2
250,F5,54.0,4.0,75,141.2
251,D4,54.0,0.75,71,141.2
252,C4,54.75,0.25,63,141.2
253,B-3,55.0,0.75,72,141.2
254,G#3,55.75,0.25,63,141.2
255,G3,56.0,2.0,72,141.2
256,B4,57.0,1.0,56,141.2
257,G#3,58.0,1.0,48,141.2
258,C5,58.0,1.0,48,141.2
259,E-5,58.0,1.0,48,141.2
260,A4,59.0,1.0,41,141.2
261,D5,59.0,2.0,49,141.2
262,F#3,59.0,1.0,42,141.2
263,B-4,60.0,1.0,55,141.2
264,G3,60.0,1.0,51,141.2
265,G4,61.0,1.0,41,141.2
266,C5,61.0,2.0,49,141.2
267,E3,61.0,1.0,44,141.2
268,A4,62.0,1.0,55,141.2
269,F3,62.0,1.0,52,141.2
270,D3,63.0,1.0,34,141.2
271,F4,63.0,1.0,46,141.2
272,B4,63.0,1.0,46,141.2
273,C5,64.0,0.25,68,141.2
274,C2,64.0,0.5,51,141.2
275,C3,64.0,0.5,51,141.2
276,E4,64.25,0.25,37,141.2
277,G4,64.25,0.25,37,141.2
278,C5,64.5,0.25,62,141.2
279,C4,64.5,0.285,42,141.2
280,E4,64.75,0.25,36,141.2
281,G4,64.75,0.25,36,141.2
282,C5,65.0,0.25,64,141.2
283,C4,65.0,0.285,42,141.2
284,E4,65.25,0.25,38,141.2
285,G4,65.25,0.25,38,141.2
286,D5,65.5,0.25,68,141.2
287,C4,65.5,0.285,42,141.2
288,E4,65.75,0.25,37,141.2
289,G4,65.75,0.25,37,141.2
290,E5,66.0,0.25,62,141.2
291,C4,66.0,0.285,51,141.2
292,G4,66.25,0.25,42,141.2
293,B-4,66.25,0.25,42,141.2
294,C5,66.5,0.25,68,141.2
295,C4,66.5,0.285,43,141.2
296,G4,66.75,0.25,42,141.2
297,B-4,66.75,0.25,42,141.2
298,D5,67.0,0.25,68,141.2
299,C4,67.0,0.285,43,141.2
300,G4,67.25,0.25,42,141.2
301,B-4,67.25,0.25,42,141.2
302,E5,67.5,0.25,70,141.2
303,C4,67.5,0.285,43,141.2
304,G4,67.75,0.25,42,141.2
305,B-4,67.75,0.25,42,141.2
306,F5,68.0,0.25,68,141.2
307,C4,68.0,0.285,51,141.2
308,F4,68.25,0.25,37,141.2
309,A4,68.25,0.25,37,141.2
310,F5,68.5,0.25,62,141.2
311,C4,68.5,0.285,42,141.2
312,F4,68.75,0.25,36,141.2
313,A4,68.75,0.25,36,141.2
314,F5,69.0,0.25,64,141.2
315,C4,69.0,0.285,42,141.2
316,F4,69.25,0.25,38,141.2
317,A4,69.25,0.25,38,141.2
318,E5,69.5,0.25,68,141.2
319,C4,69.5,0.285,42,141.2
320,F4,69.75,0.25,37,141.2
321,A4,69.75,0.25,37,141.2
322,D5,70.0,0.25,62,141.2
323,C4,70.0,0.285,51,141.2
324,F4,70.25,0.25,42,141.2
325,G#4,70.25,0.25,42,141.2
326,C5,70.5,0.25,68,141.2
327,C4,70.5,0.285,43,141.2
328,F4,70.75,0.25,42,141.2
329,G#4,70.75,0.25,42,141.2
330,B4,71.0,0.25,68,141.2
331,C4,71.0,0.285,43,141.2
332,F4,71.25,0.25,42,141.2
333,G#4,71.25,0.25,42,141.2
334,D5,71.5,0.25,70,141.2
335,C4,71.5,0.3,43,141.2
336,F4,71.75,0.25,42,141.2
337,G#4,71.75,0.25,42,141.2
338,C5,72.0,0.25,68,141.2
339,C2,72.0,0.5,51,141.2
340,C3,72.0,0.5,51,141.2
341,E4,72.25,0.25,37,141.2
342,G4,72.25,0.25,37,141.2
343,B4,72.5,0.25,62,141.2
344,C4,72.5,0.285,42,141.2
345,E4,72.75,0.25,36,141.2
346,G4,72.75,0.25,36,141.2
347,C5,73.0,0.25,64,141.2
348,C4,73.0,0.285,42,141.2
349,E4,73.25,0.25,38,141.2
350,G4,73.25,0.25,38,141.2
351,D5,73.5,0.25,68,141.2
352,C4,73.5,0.285,42,141.2
353,E4,73.75,0.25,37,141.2
354,G4,73.75,0.25,37,141.2
355,E5,74.0,0.25,62,141.2
356,C4,74.0,0.285,51,141.2
357,G4,74.25,0.25,42,141.2
358,B-4,74.25,0.25,42,141.2
359,C5,74.5,0.25,68,141.2
360,C4,74.5,0.285,43,141.2
361,G4,74.75,0.25,42,141.2
362,B-4,74.75,0.25,42,141.2
363,D5,75.0,0.25,68,141.2
364,C4,75.0,0.285,43,141.2
365,G4,75.25,0.25,42,141.2
366,B-4,75.25,0.25,42,141.2
367,E5,75.5,0.25,70,141.2
368,C4,75.5,0.285,43,141.2
369,G4,75.75,0.25,42,141.2
370,B-4,75.75,0.25,42,141.2
371,F5,76.0,0.25,68,141.2
372,C4,76.0,0.285,51,141.2
373,F4,76.25,0.25,37,141.2
374,A4,76.25,0.25,37,141.2
375,F5,76.5,0.25,62,141.2
376,C4,76.5,0.285,42,141.2
377,F4,76.75,0.25,36,141.2
378,A4,76.75,0.25,36,141.2
379,F5,77.0,0.25,64,141.2
380,C4,77.0,0.285,42,141.2
381,F4,77.25,0.25,38,141.2
382,A4,77.25,0.25,38,141.2
383,E5,77.5,0.25,68,141.2
384,C4,77.5,0.285,42,141.2
385,F4,77.75,0.25,37,141.2
386,A4,77.75,0.25,37,141.2
387,D5,78.0,0.25,62,141.2
388,C4,78.0,0.285,51,141.2
389,F4,78.25,0.25,42,141.2
390,G#4,78.25,0.25,42,141.2
391,C5,78.5,0.25,68,141.2
392,C4,78.5,0.285,43,141.2
393,F4,78.75,0.25,42,141.2
394,G#4,78.75,0.25,42,141.2
395,B4,79.0,0.25,68,141.2
396,C4,79.0,0.285,43,141.2
397,F4,79.25,0.25,42,141.2
398,G#4,79.25,0.25,42,141.2
399,D5,79.5,0.25,70,141.2
400,C4,79.5,0.3,43,141.2
401,F4,79.75,0.25,42,141.2
402,G#4,79.75,0.25,42,141.2
403,C5,80.0,0.25,78,141.2
404,C3,80.0,0.475,51,141.2
405,E4,80.25,0.25,42,141.2
406,G4,80.25,0.25,42,141.2
407,C5,80.5,0.25,68,141.2
408,C4,80.5,0.285,43,141.2
409,E4,80.75,0.25,42,141.2
410,G4,80.75,0.25,42,141.2
411,B4,81.0,0.25,68,141.2
412,C4,81.0,0.285,43,141.2
413,F4,81.25,0.25,42,141.2
414,G#4,81.25,0.25,42,141.2
415,D5,81.5,0.25,70,141.2
416,C4,81.5,0.3,43,141.2
417,F4,81.75,0.25,42,141.2
418,G#4,81.75,0.25,42,141.2
419,C5,82.0,0.25,76,141.2
420,C3,82.0,0.475,51,141.2
421,E4,82.25,0.25,42,141.2
422,G4,82.25,0.25,42,141.2
423,C5,82.5,0.25,68,141.2
424,C4,82.5,0.285,43,141.2
425,E4,82.75,0.25,42,141.2
426,G4,82.75,0.25,42,141.2
427,B4,83.0,0.25,68,141.2
428,C4,83.0,0.285,43,141.2
429,F4,83.25,0.25,42,141.2
430,G#4,83.25,0.25,42,141.2
431,D5,83.5,0.25,70,141.2
432,C4,83.5,0.3,43,141.2
433,F4,83.75,0.25,42,141.2
434,G#4,83.75,0.25,42,141.2
435,C3,84.0,1.0,51,141.2
436,E4,84.0,0.25,63,141.2
437,G4,84.0,0.25,63,141.2
438,C5,84.0,0.25,63,141.2
439,C4,84.25,0.275,35,141.2
440,D4,84.5,0.275,40,141.2
441,E4,84.75,0.275,35,141.2
442,F4,85.0,0.275,40,141.2
443,G4,85.25,0.275,35,141.2
444,A4,85.5,0.275,40,141.2
445,B4,85.75,0.275,33,141.2
446,C5,86.0,0.275,40,141.2
447,B4,86.25,0.275,33,141.2
448,C5,86.5,0.275,40,141.2
449,B4,86.75,0.275,33,141.2
450,C5,87.0,0.275,40,141.2
451,B4,87.25,0.275,34,141.2
452,C5,87.5,0.275,40,141.2
453,B4,87.75,0.25,33,141.2
454,A4,88.0,2.0,40,141.2
455,C5,88.0,2.0,40,141.2
456,F3,88.25,0.275,31,141.2
457,G3,88.5,0.275,36,141.2
458,A3,88.75,0.275,31,141.2
459,B-3,89.0,0.275,36,141.2
460,C4,89.25,0.275,31,141.2
461,D4,89.5,0.275,36,141.2
462,E4,89.75,0.275,29,141.2
463,A4,90.0,1.0,49,141.2
464,F4,90.0,0.275,36,141.2
465,E4,90.25,0.275,29,141.2
466,F4,90.5,0.275,36,141.2
467,E4,90.75,0.275,29,141.2
468,F5,91.0,1.0,47,141.2
469,F4,91.0,0.275,36,141.2
470,E4,91.25,0.275,27,141.2
471,F4,91.5,0.275,34,141.2
472,E4,91.75,0.25,26,141.2
473,F4,92.0,0.275,30,141.2
474,A4,92.0,1.0,45,141.2
475,C5,92.0,1.0,45,141.2
476,E4,92.25,0.275,25,141.2
477,F4,92.5,0.275,30,141.2
478,E4,92.75,0.275,25,141.2
479,F4,93.0,0.275,30,141.2
480,A5,93.0,1.0,40,141.2
481,F5,93.0,1.0,40,141.2
482,E4,93.25,0.275,25,141.2
483,F4,93.5,0.275,30,141.2
484,E4,93.75,0.275,25,141.2
485,F4,94.0,0.275,30,141.2
486,A4,94.0,1.0,46,141.2
487,C5,94.0,1.0,46,141.2
488,E4,94.25,0.275,25,141.2
489,F4,94.5,0.275,30,141.2
490,E4,94.75,0.275,25,141.2
491,F4,95.0,0.275,30,141.2
492,C6,95.0,1.0,40,141.2
493,A5,95.0,1.0,40,141.2
494,E4,95.25,0.275,25,141.2
495,F4,95.5,0.275,30,141.2
496,E4,95.75,0.25,25,141.2
497,F4,96.0,0.25,30,141.2
498,A4,96.0,2.0,40,141.2
499,C5,96.0,2.0,40,141.2
500,F3,96.25,0.275,31,141.2
501,G3,96.5,0.275,36,141.2
502,A3,96.75,0.275,31,141.2
503,B-3,97.0,0.275,36,141.2
504,C4,97.25,0.275,31,141.2
505,D4,97.5,0.275,36,141.2
506,E4,97.75,0.275,29,141.2
507,A4,98.0,1.0,49,141.2
508,F4,98.0,0.275,36,141.2
509,E4,98.25,0.275,29,141.2
510,F4,98.5,0.275,36,141.2
511,E4,98.75,0.275,29,141.2
512,F5,99.0,1.0,46,141.2
513,F4,99.0,0.275,36,141.2
514,E4,99.25,0.275,27,141.2
515,F4,99.5,0.275,34,141.2
516,E4,99.75,0.25,26,141.2
517,F4,100.0,0.275,30,141.2
518,A4,100.0,1.0,45,141.2
519,C5,100.0,1.0,45,141.2
520,E4,100.25,0.275,25,141.2
521,F4,100.5,0.275,30,141.2
522,E4,100.75,0.275,25,141.2
523,F4,101.0,0.275,30,141.2
524,A5,101.0,1.0,40,141.2
525,F5,101.0,1.0,40,141.2
526,E4,101.25,0.275,25,141.2
527,F4,101.5,0.275,30,141.2
528,E4,101.75,0.275,25,141.2
529,F4,102.0,0.275,30,141.2
530,A4,102.0,1.0,46,141.2
531,C5,102.0,1.0,46,141.2
532,E4,102.25,0.275,25,141.2
533,F4,102.5,0.275,30,141.2
534,E4,102.75,0.275,25,141.2
535,F4,103.0,0.275,30,141.2
536,C6,103.0,1.0,40,141.2
537,A5,103.0,1.0,40,141.2
538,E-4,103.25,0.275,25,141.2
539,F4,103.5,0.275,30,141.2
540,E-4,103.75,0.25,25,141.2
541,C#4,104.0,0.375,39,141.2
542,A4,104.0,2.0,45,141.2
543,C5,104.0,2.0,45,141.2
544,D5,104.0,2.0,45,141.2
545,F#5,104.0,2.0,45,141.2
546,D4,104.25,0.25,34,141.2
547,C#4,104.5,0.375,39,141.2
548,D4,104.75,0.25,35,141.2
549,B3,105.0,0.375,41,141.2
550,C4,105.25,0.25,35,141.2
551,B3,105.5,0.375,42,141.2
552,C4,105.75,0.25,36,141.2
553,G#3,106.0,0.375,44,141.2
554,A3,106.25,0.25,37,141.2
555,G#3,106.5,0.375,45,141.2
556,A3,106.75,0.25,37,141.2
557,F3,107.0,0.375,44,141.2
558,F#3,107.25,0.25,38,141.2
559,F3,107.5,0.375,44,141.2
560,F#3,107.75,0.25,39,141.2
561,C#3,108.0,0.375,45,141.2
562,D3,108.25,0.25,39,141.2
563,C#3,108.5,0.375,46,141.2
564,D3,108.75,0.25,40,141.2
565,F#5,109.0,1.0,70,141.2
566,B2,109.0,0.375,48,141.2
567,C3,109.25,0.25,41,141.2
568,B2,109.5,0.375,48,141.2
569,C3,109.75,0.25,41,141.2
570,A5,110.0,1.0,68,141.2
571,G#2,110.0,0.375,54,141.2
572,A2,110.25,0.25,42,141.2
573,G#2,110.5,0.375,52,141.2
574,A2,110.75,0.25,43,141.2
575,C6,111.0,2.0,66,141.2
576,F2,111.0,0.375,55,141.2
577,F#2,111.25,0.25,44,141.2
578,F2,111.5,0.375,51,141.2
579,F#2,111.75,0.25,44,141.2
580,F#5,112.0,2.0,72,141.2
581,C#2,112.0,0.375,57,141.2
582,D2,112.25,0.25,44,141.2
583,C#2,112.5,0.375,51,141.2
584,D2,112.75,0.25,44,141.2
585,B-5,113.0,4.0,73,141.2
586,C#2,113.0,0.375,56,141.2
587,D2,113.25,0.25,50,141.2
588,C#2,113.5,0.375,57,141.2
589,D2,113.75,0.229,44,141.2
590,G5,114.0,3.0,75,141.2
591,D2,114.0,0.375,61,141.2
592,E-2,114.25,0.25,52,141.2
593,D2,114.5,0.375,58,141.2
594,E-2,114.75,0.25,52,141.2
595,C#5,115.0,1.0,66,141.2
596,E-2,115.0,0.375,58,141.2
597,E2,115.25,0.25,44,141.2
598,E-2,115.5,0.375,54,141.2
599,E2,115.75,0.25,44,141.2
600,C5,116.0,2.0,74,141.2
601,E2,116.0,0.375,56,141.2
602,F2,116.25,0.25,48,141.2
603,E2,116.5,0.375,51,141.2
604,F2,116.75,0.25,44,141.2
605,E2,117.0,0.375,51,141.2
606,A5,117.0,1.0,62,141.2
607,F5,117.0,1.0,62,141.2
608,F2,117.25,0.25,44,141.2
609,E2,117.5,0.375,51,141.2
610,F2,117.75,0.229,44,141.2
611,A1,118.0,0.375,51,141.2
612,B-4,118.0,1.0,65,141.2
613,D5,118.0,1.0,65,141.2
614,G5,118.0,1.0,65,141.2
615,B-1,118.25,0.25,44,141.2
616,A1,118.5,0.375,51,141.2
617,B-1,118.75,0.229,44,141.2
618,B1,119.0,0.375,51,141.2
619,G4,119.0,1.0,57,141.2
620,B-4,119.0,1.0,57,141.2
621,E5,119.0,1.0,57,141.2
622,C2,119.25,0.25,44,141.2
623,B1,119.5,0.375,51,141.2
624,C2,119.75,0.229,44,141.2
625,F1,120.0,0.5,48,141.2
626,F4,120.0,0.5,68,141.2
627,A4,120.0,0.5,68,141.2
628,F5,120.0,0.5,68,141.2
629,F4,122.0,1.979,80,141.2
630,A4,122.0,1.979,80,141.2
631,F3,122.0,1.979,59,141.2
632,A3,122.0,1.979,59,141.2
633,D4,124.0,0.979,62,141.2
634,F4,124.0,0.979,62,141.2
635,D3,124.0,0.979,45,141.2
636,F3,124.0,0.979,45,141.2
637,B-3,125.0,0.5,64,141.2
638,D4,125.0,0.5,64,141.2
639,B-2,125.0,0.5,45,141.2
640,D3,125.0,0.5,45,141.2
641,G4,126.0,1.5,80,141.2
642,B-4,126.0,1.5,80,141.2
643,G3,126.0,1.5,59,141.2
644,B-3,126.0,1.5,59,141.2
645,F4,127.5,0.5,62,141.2
646,A4,127.5,0.5,62,141.2
647,F3,127.5,0.5,45,141.2
648,A3,127.5,0.5,45,141.2
649,G4,128.0,1.0,70,141.2
650,E4,128.0,1.0,70,141.2
651,E3,128.0,0.979,54,141.2
652,G3,128.0,0.979,54,141.2
653,C4,129.0,0.5,62,141.2
654,E4,129.0,0.5,62,141.2
655,C3,129.0,0.5,48,141.2
656,E3,129.0,0.5,48,141.2
657,A4,130.0,1.979,80,141.2
658,C5,130.0,1.979,80,141.2
659,A3,130.0,1.979,59,141.2
660,C4,130.0,1.979,59,141.2
661,F4,132.0,0.979,62,141.2
662,A4,132.0,0.979,62,141.2
663,F3,132.0,0.979,45,141.2
664,A3,132.0,0.979,45,141.2
665,D4,133.0,0.5,64,141.2
666,F4,133.0,0.5,64,141.2
667,D3,133.0,0.5,45,141.2
668,F3,133.0,0.5,45,141.2
669,B-4,134.0,1.5,80,141.2
670,D5,134.0,1.5,80,141.2
671,B-3,134.0,1.5,59,141.2
672,D4,134.0,1.5,59,141.2
673,A4,135.5,0.5,62,141.2
674,C5,135.5,0.5,62,141.2
675,A3,135.5,0.5,45,141.2
676,C4,135.5,0.5,45,141.2
677,B-4,136.0,1.0,70,141.2
678,G4,136.0,1.0,70,141.2
679,G3,136.0,0.979,54,141.2
680,B-3,136.0,0.979,54,141.2
681,E4,137.0,0.5,62,141.2
682,G4,137.0,0.5,62,141.2
683,E3,137.0,0.5,48,141.2
684,G3,137.0,0.5,48,141.2
685,B-4,138.0,1.5,80,141.2
686,G5,138.0,1.5,80,141.2
687,B-3,138.0,1.5,59,141.2
688,G4,138.0,1.5,59,141.2
689,A4,139.5,0.5,62,141.2
690,F5,139.5,0.5,62,141.2
691,A3,139.5,0.5,45,141.2
692,F4,139.5,0.5,45,141.2
693,G4,140.0,1.5,80,141.2
694,E5,140.0,1.5,80,141.2
695,G3,140.0,1.5,59,141.2
696,E4,140.0,1.5,59,141.2
697,F4,141.5,0.5,62,141.2
698,D5,141.5,0.5,62,141.2
699,F3,141.5,0.5,41,141.2
700,D4,141.5,0.5,41,141.2
701,E4,142.0,1.0,56,141.2
702,C5,142.0,1.0,56,141.2
703,E3,142.0,1.0,45,141.2
704,C4,142.0,1.0,45,141.2
705,B-3,143.0,1.0,48,141.2
706,B-4,143.0,1.0,48,141.2
707,D3,143.0,1.0,38,141.2
708,F3,143.0,1.0,38,141.2
709,A3,144.0,1.0,54,141.2
710,A4,144.0,1.0,54,141.2
711,C#3,144.0,1.0,40,141.2
712,E3,144.0,1.0,40,141.2
713,C#4,145.0,1.0,42,141.2
714,G4,145.0,1.0,42,141.2
715,A2,145.0,1.0,30,141.2
716,E3,145.0,1.0,30,141.2
717,D4,146.0,1.0,49,141.2
718,F4,146.0,1.0,49,141.2
719,B-2,146.0,1.0,36,141.2
720,D3,146.0,1.0,36,141.2
721,B2,147.0,1.0,31,141.2
722,F3,147.0,1.0,43,141.2
723,G3,147.0,1.0,43,141.2
724,D4,147.0,1.0,43,141.2
725,C3,148.0,2.0,38,141.2
726,F3,149.0,0.5,34,141.2
727,A3,149.0,0.5,34,141.2
728,C4,149.0,0.5,34,141.2
729,C2,150.0,2.0,32,141.2
730,C3,151.0,0.5,32,141.2
731,E3,151.0,0.5,32,141.2
732,G3,151.0,0.5,32,141.2
733,C4,151.0,0.5,32,141.2
734,F1,152.0,2.0,35,141.2
735,A3,153.0,0.938,31,141.2
736,F3,153.0,0.938,31,141.2
737,C3,153.0,0.938,31,141.2
738,A3,154.0,1.5,60,141.2
739,F3,154.0,1.5,60,141.2
740,F4,154.5,1.0,60,141.2
741,A4,154.5,1.0,60,141.2
742,F4,155.5,0.25,47,141.2
743,A4,155.5,0.25,47,141.2
744,F3,155.5,0.25,40,141.2
745,A3,155.5,0.25,40,141.2
746,D3,156.0,0.25,49,141.2
747,F3,156.0,0.25,49,141.2
748,D4,156.5,0.25,45,141.2
749,F4,156.5,0.25,45,141.2
750,B-2,157.0,0.25,43,141.2
751,D3,157.0,0.25,43,141.2
752,B-3,157.5,0.25,42,141.2
753,D4,157.5,0.25,42,141.2
754,B-3,158.0,1.5,60,141.2
755,G3,158.0,1.5,60,141.2
756,G4,158.5,1.0,66,141.2
757,B-4,158.5,1.0,66,141.2
758,F4,159.5,0.25,47,141.2
759,A4,159.5,0.25,47,141.2
760,F3,159.5,0.25,40,141.2
761,A3,159.5,0.25,40,141.2
762,E3,160.0,0.25,49,141.2
763,G3,160.0,0.25,49,141.2
764,E4,160.5,0.25,45,141.2
765,G4,160.5,0.25,45,141.2
766,C3,161.0,0.25,43,141.2
767,E3,161.0,0.25,43,141.2
768,C4,161.5,0.25,42,141.2
769,E4,161.5,0.25,42,141.2
770,C4,162.0,1.5,66,141.2
771,A3,162.0,1.5,66,141.2
772,A4,162.5,1.0,66,141.2
773,C5,162.5,1.0,66,141.2
774,A4,163.5,0.25,52,141.2
775,C5,163.5,0.25,52,141.2
776,A3,163.5,0.25,44,141.2
777,C4,163.5,0.25,44,141.2
778,F3,164.0,0.25,54,141.2
779,A3,164.0,0.25,54,141.2
780,F4,164.5,0.25,49,141.2
781,A4,164.5,0.25,49,141.2
782,D3,165.0,0.25,46,141.2
783,F3,165.0,0.25,46,141.2
784,D4,165.5,0.25,45,141.2
785,F4,165.5,0.25,45,141.2
786,D4,166.0,1.5,68,141.2
787,B-3,166.0,1.5,68,141.2
788,B-4,166.5,1.0,76,141.2
789,D5,166.5,1.0,76,141.2
790,A4,167.5,0.25,54,141.2
791,C5,167.5,0.25,54,141.2
792,A3,167.5,0.25,46,141.2
793,C4,167.5,0.25,46,141.2
794,G3,168.0,0.25,56,141.2
795,B-3,168.0,0.25,56,141.2
796,G4,168.5,0.25,51,141.2
797,B-4,168.5,0.25,51,141.2
798,E3,169.0,0.25,48,141.2
799,G3,169.0,0.25,48,141.2
800,E4,169.5,0.25,47,141.2
801,G4,169.5,0.25,47,141.2
802,G4,170.0,1.5,72,141.2
803,B-3,170.0,1.5,72,141.2
804,B-4,170.5,1.0,88,141.2
805,G5,170.5,1.0,88,141.2
806,A4,171.5,0.25,62,141.2
807,F5,171.5,0.25,62,141.2
808,A3,171.5,0.25,48,141.2
809,F4,171.5,0.25,48,141.2
810,E4,172.0,1.5,72,141.2
811,G3,172.0,1.5,72,141.2
812,G4,172.5,1.0,88,141.2
813,E5,172.5,1.0,88,141.2
814,F4,173.5,0.25,62,141.2
815,D5,173.5,0.25,62,141.2
816,F3,173.5,0.25,48,141.2
817,D4,173.5,0.25,48,141.2
818,E3,174.0,0.25,54,141.2
819,C4,174.0,0.25,54,141.2
820,E4,174.5,0.25,48,141.2
821,C5,174.5,0.25,48,141.2
822,D3,175.0,0.25,44,141.2
823,F3,175.0,0.25,44,141.2
824,B-3,175.5,0.25,42,141.2
825,B-4,175.5,0.25,42,141.2
826,A4,176.0,0.25,54,141.2
827,C#3,176.0,4.0,36,141.2
828,E3,176.0,4.0,36,141.2
829,G3,176.0,4.0,36,141.2
830,A3,176.25,0.25,46,141.2
831,C#4,176.5,0.25,43,141.2
832,E4,176.75,0.25,43,141.2
833,A4,177.0,0.25,53,141.2
834,C#5,177.25,0.25,42,141.2
835,E5,177.5,0.25,42,141.2
836,G#5,177.75,0.25,42,141.2
837,A5,178.0,0.25,49,141.2
838,G#5,178.25,0.25,39,141.2
839,A5,178.5,0.25,42,141.2
840,G#5,178.75,0.25,38,141.2
841,A5,179.0,0.25,48,141.2
842,E5,179.25,0.25,38,141.2
843,C#5,179.5,0.25,38,141.2
844,A4,179.75,0.25,38,141.2
845,D3,180.0,4.0,37,141.2
846,F3,180.0,4.0,37,141.2
847,A3,180.25,0.25,46,141.2
848,D4,180.5,0.25,43,141.2
849,F4,180.75,0.25,43,141.2
850,A4,181.0,0.25,53,141.2
851,D5,181.25,0.25,42,141.2
852,F5,181.5,0.25,42,141.2
853,G#5,181.75,0.25,42,141.2
854,A5,182.0,0.25,49,141.2
855,G#5,182.25,0.25,39,141.2
856,A5,182.5,0.25,42,141.2
857,G#5,182.75,0.25,38,141.2
858,A5,183.0,0.25,48,141.2
859,F5,183.25,0.25,38,141.2
860,D5,183.5,0.25,38,141.2
861,A4,183.75,0.25,38,141.2
862,B2,184.0,4.0,36,141.2
863,D3,184.0,4.0,36,141.2
864,F3,184.0,4.0,36,141.2
865,G#3,184.25,0.25,46,141.2
866,B3,184.5,0.25,43,141.2
867,D4,184.75,0.25,43,141.2
868,F4,185.0,0.25,50,141.2
869,G#4,185.25,0.25,42,141.2
870,B4,185.5,0.25,42,141.2
871,D5,185.75,0.25,42,141.2
872,F5,186.0,0.25,49,141.2
873,D5,186.25,0.25,41,141.2
874,G#5,186.5,0.25,48,141.2
875,F5,186.75,0.25,41,141.2
876,D5,187.0,0.25,48,141.2
877,B4,187.25,0.25,45,141.2
878,G#4,187.5,0.25,42,141.2
879,F4,187.75,0.25,39,141.2
880,B-2,188.0,2.5,60,141.2
881,C#3,188.0,2.5,60,141.2
882,E3,188.0,2.5,60,141.2
883,G3,188.0,2.5,60,141.2
884,E4,188.25,0.25,48,141.2
885,G4,188.5,0.25,50,141.2
886,B-4,188.75,0.25,51,141.2
887,C#5,189.0,0.25,53,141.2
888,E5,189.25,0.25,55,141.2
889,G5,189.5,0.25,57,141.2
890,B-5,189.75,0.25,59,141.2
891,C#6,190.0,0.25,65,141.2
892,E6,190.25,0.25,57,141.2
893,E5,190.5,0.25,64,141.2
894,B-2,190.5,0.25,53,141.2
895,C3,190.5,0.25,53,141.2
896,G3,190.5,0.25,53,141.2
897,E6,190.75,0.25,56,141.2
898,E5,191.0,0.25,64,141.2
899,B-2,191.0,0.25,65,141.2
900,C3,191.0,0.25,65,141.2
901,G3,191.0,0.25,65,141.2
902,E6,191.25,0.25,58,141.2
903,E5,191.5,0.25,64,141.2
904,B-2,191.5,0.25,54,141.2
905,C3,191.5,0.25,54,141.2
906,G3,191.5,0.25,54,141.2
907,E6,191.75,0.25,59,141.2
908,F5,192.0,0.25,74,141.2
909,A2,192.0,1.0,73,141.2
910,C3,192.0,1.0,73,141.2
911,F3,192.0,1.0,73,141.2
912,F6,192.25,0.25,59,141.2
913,E5,192.5,0.25,67,141.2
914,E6,192.75,0.25,54,141.2
915,F5,193.0,0.25,66,141.2
916,F6,193.25,0.25,57,141.2
917,B-4,193.5,0.25,59,141.2
918,E2,193.5,0.25,62,141.2
919,C3,193.5,0.25,62,141.2
920,B-5,193.75,0.25,50,141.2
921,A4,194.0,0.25,79,141.2
922,F2,194.0,0.25,69,141.2
923,C3,194.0,0.25,69,141.2
924,A5,194.25,0.25,54,141.2
925,E5,194.5,0.25,65,141.2
926,B-2,194.5,0.25,62,141.2
927,C3,194.5,0.25,62,141.2
928,E6,194.75,0.25,57,141.2
929,F5,195.0,0.25,68,141.2
930,A2,195.0,0.25,69,141.2
931,C3,195.0,0.25,69,141.2
932,F6,195.25,0.25,60,141.2
933,B-4,195.5,0.25,67,141.2
934,E2,195.5,0.25,62,141.2
935,C3,195.5,0.25,62,141.2
936,B-5,195.75,0.25,58,141.2
937,A4,196.0,0.25,81,141.2
938,F2,196.0,0.25,69,141.2
939,C3,196.0,0.25,69,141.2
940,A5,196.25,0.25,58,141.2
941,E5,196.5,0.25,64,141.2
942,B-2,196.5,0.25,62,141.2
943,C3,196.5,0.25,62,141.2
944,E6,196.75,0.25,59,141.2
945,F5,197.0,0.25,67,141.2
946,A2,197.0,0.25,69,141.2
947,C3,197.0,0.25,69,141.2
948,F6,197.25,0.25,55,141.2
949,B-4,197.5,0.25,62,141.2
950,E2,197.5,0.25,62,141.2
951,C3,197.5,0.25,62,141.2
952,B-5,197.75,0.25,51,141.2
953,A4,198.0,0.25,72,141.2
954,F2,198.0,0.25,69,141.2
955,C3,198.0,0.25,69,141.2
956,A5,198.25,0.25,52,141.2
957,E5,198.5,0.25,64,141.2
958,B-2,198.5,0.25,62,141.2
959,C3,198.5,0.25,62,141.2
960,E6,198.75,0.25,54,141.2
961,F5,199.0,0.25,64,141.2
962,A2,199.0,0.25,69,141.2
963,C3,199.0,0.25,69,141.2
964,F6,199.25,0.25,51,141.2
965,B-4,199.5,0.25,60,141.2
966,E2,199.5,0.25,62,141.2
967,C3,199.5,0.25,62,141.2
968,B-5,199.75,0.25,51,141.2
969,A4,200.0,0.25,83,141.2
970,F2,200.0,2.0,89,141.2
971,A5,200.25,0.25,53,141.2
972,G4,200.5,0.25,62,141.2
973,G5,200.75,0.25,54,141.2
974,F4,201.0,0.25,62,141.2
975,F5,201.25,0.25,54,141.2
976,E4,201.5,0.25,62,141.2
977,E5,201.75,0.25,53,141.2
978,D4,202.0,0.25,81,141.2
979,D2,202.0,2.0,80,141.2
980,D5,202.25,0.25,53,141.2
981,C4,202.5,0.25,60,141.2
982,C5,202.75,0.25,52,141.2
983,B-3,203.0,0.25,59,141.2
984,B-4,203.25,0.25,52,141.2
985,A3,203.5,0.25,59,141.2
986,A4,203.75,0.25,50,141.2
987,G3,204.0,0.25,79,141.2
988,B-1,204.0,2.0,88,141.2
989,G4,204.25,0.25,50,141.2
990,F3,204.5,0.25,59,141.2
991,F4,204.75,0.25,49,141.2
992,E3,205.0,0.25,59,141.2
993,E4,205.25,0.25,49,141.2
994,D3,205.5,0.25,59,141.2
995,D4,205.75,0.25,51,141.2
996,C3,206.0,0.25,79,141.2
997,C2,206.0,2.0,84,141.2
998,C4,206.25,0.25,49,141.2
999,B-2,206.5,0.25,59,141.2
1000,B-3,206.75,0.25,50,141.2
1001,A2,207.0,0.25,59,141.2
1002,A3,207.25,0.25,48,141.2
1003,G2,207.5,0.25,58,141.2
1004,G3,207.75,0.25,49,141.2
1005,F1,208.0,0.25,81,141.2
1006,F3,208.0,0.25,70,141.2
1007,F2,208.0,0.25,70,141.2
1008,E3,208.5,0.25,49,141.2
1009,B-2,208.5,0.25,54,141.2
1010,C4,208.75,0.25,42,141.2
1011,F3,209.0,0.25,49,141.2
1012,A2,209.0,0.25,60,141.2
1013,C4,209.25,0.25,41,141.2
1014,B-3,209.5,0.25,49,141.2
1015,E2,209.5,0.25,54,141.2
1016,C4,209.75,0.25,42,141.2
1017,A3,210.0,0.25,49,141.2
1018,F2,210.0,0.25,60,141.2
1019,C4,210.25,0.25,41,141.2
1020,E3,210.5,0.25,49,141.2
1021,B-2,210.5,0.25,52,141.2
1022,C4,210.75,0.25,42,141.2
1023,F3,211.0,0.25,49,141.2
1024,A2,211.0,0.25,60,141.2
1025,C4,211.25,0.25,43,141.2
1026,B-3,211.5,0.25,49,141.2
1027,E2,211.5,0.25,58,141.2
1028,C4,211.75,0.25,40,141.2
1029,A3,212.0,0.25,49,141.2
1030,F2,212.0,0.25,60,141.2
1031,C4,212.25,0.25,41,141.2
1032,E3,212.5,0.25,49,141.2
1033,B-2,212.5,0.25,52,141.2
1034,C4,212.75,0.25,42,141.2
1035,F3,213.0,0.25,49,141.2
1036,A2,213.0,0.25,60,141.2
1037,C4,213.25,0.25,43,141.2
1038,B-3,213.5,0.25,49,141.2
1039,E2,213.5,0.25,58,141.2
1040,C4,213.75,0.25,40,141.2
1041,A3,214.0,0.25,56,141.2
1042,F2,214.0,0.25,67,141.2
1043,C4,214.25,0.25,45,141.2
1044,C#3,214.5,0.25,60,141.2
1045,G2,214.5,0.25,59,141.2
1046,C#4,214.75,0.25,52,141.2
1047,D3,215.0,0.25,61,141.2
1048,F2,215.0,0.25,72,141.2
1049,D4,215.25,0.25,49,141.2
1050,E3,215.5,0.25,67,141.2
1051,E2,215.5,0.25,67,141.2
1052,E4,215.75,0.25,60,141.2
1053,F3,216.0,0.25,71,141.2
1054,D2,216.0,0.25,75,141.2
1055,F4,216.25,0.25,62,141.2
1056,F#3,216.5,0.25,70,141.2
1057,C2,216.5,0.25,77,141.2
1058,F#4,216.75,0.25,64,141.2
1059,G3,217.0,0.25,70,141.2
1060,B-1,217.0,0.25,80,141.2
1061,G4,217.25,0.25,64,141.2
1062,A3,217.5,0.25,74,141.2
1063,A1,217.5,0.25,82,141.2
1064,A4,217.75,0.25,65,141.2
1065,B-3,218.0,0.25,82,141.2
1066,G1,218.0,4.0,94,141.2
1067,B-4,218.25,0.25,71,141.2
1068,C4,218.5,0.25,79,141.2
1069,C5,218.75,0.25,70,141.2
1070,D4,219.0,0.25,83,141.2
1071,D5,219.25,0.25,72,141.2
1072,C4,219.5,0.25,81,141.2
1073,C5,219.75,0.25,69,141.2
1074,B-3,220.0,0.25,84,141.2
1075,B-4,220.25,0.25,69,141.2
1076,A3,220.5,0.25,81,141.2
1077,A4,220.75,0.25,69,141.2
1078,G3,221.0,0.25,79,141.2
1079,G4,221.25,0.25,69,141.2
1080,F3,221.5,0.25,78,141.2
1081,F4,221.75,0.25,65,141.2
1082,E3,222.0,0.25,79,141.2
1083,C2,222.0,2.0,87,141.2
1084,E4,222.25,0.25,69,141.2
1085,D3,222.5,0.25,77,141.2
1086,D4,222.75,0.25,65,141.2
1087,C3,223.0,0.25,77,141.2
1088,C4,223.25,0.25,67,141.2
1089,E3,223.5,0.25,75,141.2
1090,E4,223.75,0.25,66,141.2
1091,F1,224.0,0.25,30,141.2
1092,F4,224.0,1.0,79,141.2
1093,F3,224.0,1.0,79,141.2
1094,F2,224.25,0.25,26,141.2
1095,F1,224.5,0.25,30,141.2
1096,F2,224.75,0.25,25,141.2
1097,F1,225.0,0.25,30,141.2
1098,F2,225.25,0.25,26,141.2
1099,F1,225.5,0.25,30,141.2
1100,F2,225.75,0.25,27,141.2
1101,F1,226.0,0.25,30,141.2
1102,C4,226.0,2.0,37,141.2
1103,A3,226.0,2.0,37,141.2
1104,F2,226.25,0.25,27,141.2
1105,F1,226.5,0.25,30,141.2
1106,F2,226.75,0.25,25,141.2
1107,F1,227.0,0.25,30,141.2
1108,F2,227.25,0.25,26,141.2
1109,F3,227.5,0.5,39,141.2
1110,F1,227.5,0.25,30,141.2
1111,F2,227.75,0.25,26,141.2
1112,F1,228.0,0.25,30,141.2
1113,C#4,228.0,2.0,42,141.2
1114,B-3,228.0,2.0,42,141.2
1115,F2,228.25,0.25,26,141.2
1116,F1,228.5,0.25,30,141.2
1117,F2,228.75,0.25,25,141.2
1118,F1,229.0,0.25,30,141.2
1119,F2,229.25,0.25,26,141.2
1120,G#3,229.5,0.5,40,141.2
1121,F1,229.5,0.25,30,141.2
1122,F2,229.75,0.25,27,141.2
1123,F#3,230.0,0.5,45,141.2
1124,F1,230.0,0.25,30,141.2
1125,C4,230.0,1.0,32,141.2
1126,B-3,230.0,1.0,32,141.2
1127,F2,230.25,0.25,27,141.2
1128,F3,230.5,0.5,40,141.2
1129,F1,230.5,0.25,30,141.2
1130,F2,230.75,0.25,25,141.2
1131,F#3,231.0,0.5,46,141.2
1132,F1,231.0,0.25,30,141.2
1133,C4,231.0,1.0,33,141.2
1134,B-3,231.0,1.0,33,141.2
1135,F2,231.25,0.25,26,141.2
1136,E3,231.5,0.5,40,141.2
1137,F1,231.5,0.25,30,141.2
1138,F2,231.75,0.25,26,141.2
1139,F1,232.0,0.25,30,141.2
1140,C4,232.0,1.5,41,141.2
1141,A3,232.0,1.5,41,141.2
1142,F3,232.0,1.5,41,141.2
1143,F2,232.25,0.25,26,141.2
1144,F1,232.5,0.25,30,141.2
1145,F2,232.75,0.25,25,141.2
1146,F1,233.0,0.25,30,141.2
1147,F2,233.25,0.25,26,141.2
1148,F1,233.5,0.25,30,141.2
1149,F2,233.75,0.25,27,141.2
1150,A4,234.0,1.5,52,141.2
1151,F1,234.0,0.25,30,141.2
1152,C4,234.0,2.0,48,141.2
1153,A3,234.0,2.0,48,141.2
1154,F2,234.25,0.25,27,141.2
1155,F1,234.5,0.25,35,141.2
1156,F2,234.75,0.25,29,141.2
1157,F1,235.0,0.25,34,141.2
1158,F2,235.25,0.25,26,141.2
1159,F4,235.5,0.5,50,141.2
1160,F1,235.5,0.25,35,141.2
1161,F2,235.75,0.25,31,141.2
1162,B-4,236.0,1.5,52,141.2
1163,F1,236.0,0.25,38,141.2
1164,C#4,236.0,2.0,54,141.2
1165,B-3,236.0,2.0,54,141.2
1166,F2,236.25,0.25,30,141.2
1167,F1,236.5,0.25,34,141.2
1168,F2,236.75,0.25,25,141.2
1169,F1,237.0,0.25,33,141.2
1170,F2,237.25,0.25,26,141.2
1171,G#4,237.5,0.5,52,141.2
1172,F1,237.5,0.25,30,141.2
1173,F2,237.75,0.25,27,141.2
1174,F#4,238.0,0.5,58,141.2
1175,F1,238.0,0.25,30,141.2
1176,C#4,238.0,1.0,41,141.2
1177,B-3,238.0,1.0,41,141.2
1178,F2,238.25,0.25,27,141.2
1179,F4,238.5,0.5,52,141.2
1180,F1,238.5,0.25,30,141.2
1181,F2,238.75,0.25,25,141.2
1182,F#4,239.0,0.5,59,141.2
1183,F1,239.0,0.25,30,141.2
1184,C#4,239.0,1.0,42,141.2
1185,B-3,239.0,1.0,42,141.2
1186,F2,239.25,0.25,26,141.2
1187,E4,239.5,0.5,52,141.2
1188,F1,239.5,0.25,30,141.2
1189,F2,239.75,0.25,26,141.2
1190,F1,240.0,0.25,30,141.2
1191,F4,240.0,1.5,53,141.2
1192,C4,240.0,1.5,53,141.2
1193,A3,240.0,1.5,53,141.2
1194,F2,240.25,0.25,25,141.2
1195,F1,240.5,0.25,29,141.2
1196,F2,240.75,0.25,24,141.2
1197,F1,241.0,0.25,28,141.2
1198,F2,241.25,0.25,24,141.2
1199,F1,241.5,0.25,28,141.2
1200,F2,241.75,0.25,25,141.2
1201,G4,242.0,0.5,53,141.2
1202,F1,242.0,0.25,27,141.2
1203,C#4,242.0,1.0,37,141.2
1204,B-3,242.0,1.0,37,141.2
1205,F2,242.25,0.25,24,141.2
1206,F4,242.5,0.5,46,141.2
1207,F1,242.5,0.25,27,141.2
1208,F2,242.75,0.25,22,141.2
1209,G4,243.0,0.5,51,141.2
1210,F1,243.0,0.25,26,141.2
1211,C#4,243.0,1.0,36,141.2
1212,B-3,243.0,1.0,36,141.2
1213,F2,243.25,0.25,22,141.2
1214,E4,243.5,0.5,44,141.2
1215,F1,243.5,0.25,25,141.2
1216,F2,243.75,0.25,22,141.2
1217,F1,244.0,0.25,25,141.2
1218,F4,244.0,1.5,44,141.2
1219,C4,244.0,1.5,44,141.2
1220,A3,244.0,1.5,44,141.2
1221,F2,244.25,0.25,21,141.2
1222,F1,244.5,0.25,24,141.2
1223,F2,244.75,0.25,20,141.2
1224,F1,245.0,0.25,24,141.2
1225,F2,245.25,0.25,20,141.2
1226,F1,245.5,0.25,23,141.2
1227,F2,245.75,0.25,20,141.2
1228,F#4,246.0,0.5,43,141.2
1229,F1,246.0,0.25,22,141.2
1230,C#4,246.0,1.0,30,141.2
1231,B-3,246.0,1.0,30,141.2
1232,F2,246.25,0.25,20,141.2
1233,F4,246.5,0.5,39,141.2
1234,F1,246.5,0.25,22,141.2
1235,F2,246.75,0.25,18,141.2
1236,F#4,247.0,0.5,44,141.2
1237,F1,247.0,0.25,22,141.2
1238,C#4,247.0,1.0,31,141.2
1239,B-3,247.0,1.0,31,141.2
1240,F2,247.25,0.25,19,141.2
1241,E4,247.5,0.5,39,141.2
1242,F1,247.5,0.25,22,141.2
1243,F2,247.75,0.25,19,141.2
1244,F3,248.0,1.5,81,141.2
1245,F4,248.0,1.5,81,141.2
1246,F1,248.0,1.5,61,141.2
1247,F2,248.0,1.5,61,141.2
1248,G3,249.5,0.25,73,141.2
1249,G4,249.5,0.25,73,141.2
1250,G1,249.5,0.25,54,141.2
1251,G2,249.5,0.25,54,141.2
1252,A3,250.0,1.5,82,141.2
1253,A4,250.0,1.5,82,141.2
1254,A1,250.0,1.5,61,141.2
1255,A2,250.0,1.5,61,141.2
1256,B-3,251.5,0.25,74,141.2
1257,B-4,251.5,0.25,74,141.2
1258,B-1,251.5,0.25,55,141.2
1259,B-2,251.5,0.25,55,141.2
1260,C4,252.0,1.5,84,141.2
1261,C5,252.0,1.5,84,141.2
1262,C2,252.0,1.5,62,141.2
1263,C3,252.0,1.5,62,141.2
1264,D4,253.5,0.25,68,141.2
1265,D5,253.5,0.25,68,141.2
1266,D2,253.5,0.25,52,141.2
1267,D3,253.5,0.25,52,141.2
1268,E4,254.0,0.25,78,141.2
1269,E5,254.0,0.25,78,141.2
1270,E2,254.0,0.25,58,141.2
1271,E3,254.0,0.25,58,141.2
1272,F4,254.5,0.25,74,141.2
1273,F5,254.5,0.25,74,141.2
1274,F2,254.5,0.25,55,141.2
1275,F3,254.5,0.25,55,141.2
1276,G4,255.0,0.25,80,141.2
1277,G5,255.0,0.25,80,141.2
1278,G2,255.0,0.25,60,141.2
1279,G3,255.0,0.25,60,141.2
1280,A4,255.5,0.25,76,141.2
1281,A5,255.5,0.25,76,141.2
1282,A2,255.5,0.25,56,141.2
1283,A3,255.5,0.25,56,141.2
1284,B-4,256.0,1.5,88,141.2
1285,B-5,256.0,1.5,88,141.2
1286,B-2,256.0,1.5,66,141.2
1287,B-3,256.0,1.5,66,141.2
1288,A4,257.5,0.25,78,141.2
1289,A5,257.5,0.25,78,141.2
1290,A2,257.5,0.25,58,141.2
1291,A3,257.5,0.25,58,141.2
1292,G4,258.0,1.5,86,141.2
1293,G5,258.0,1.5,86,141.2
1294,G2,258.0,1.5,64,141.2
1295,G3,258.0,1.5,64,141.2
1296,F4,259.5,0.25,76,141.2
1297,F5,259.5,0.25,76,141.2
1298,F2,259.5,0.25,56,141.2
1299,F3,259.5,0.25,56,141.2
1300,E4,260.0,1.5,85,141.2
1301,E5,260.0,1.5,85,141.2
1302,E2,260.0,1.5,64,141.2
1303,E3,260.0,1.5,64,141.2
1304,D4,261.5,0.25,68,141.2
1305,D5,261.5,0.25,68,141.2
1306,D2,261.5,0.25,52,141.2
1307,D3,261.5,0.25,52,141.2
1308,C4,262.0,0.25,76,141.2
1309,C5,262.0,0.25,76,141.2
1310,C2,262.0,0.25,57,141.2
1311,C3,262.0,0.25,57,141.2
1312,B-3,262.5,0.25,72,141.2
1313,B-4,262.5,0.25,72,141.2
1314,B-1,262.5,0.25,54,141.2
1315,B-2,262.5,0.25,54,141.2
1316,A3,263.0,0.25,76,141.2
1317,A4,263.0,0.25,76,141.2
1318,A1,263.0,0.25,57,141.2
1319,A2,263.0,0.25,57,141.2
1320,G3,263.5,0.25,70,141.2
1321,G4,263.5,0.25,70,141.2
1322,G1,263.5,0.25,52,141.2
1323,G2,263.5,0.25,52,141.2
1324,F3,264.0,0.25,84,141.2
1325,F4,264.0,0.25,84,141.2
1326,F1,264.0,0.25,64,141.2
1327,F2,264.0,0.25,64,141.2
1328,E4,265.0,0.25,53,141.2
1329,C3,265.0,0.25,36,141.2
1330,G3,265.0,0.25,36,141.2
1331,B-3,265.0,0.25,36,141.2
1332,E-4,265.25,0.25,45,141.2
1333,E4,265.5,0.25,53,141.2
1334,C4,265.75,0.25,43,141.2
1335,F4,266.0,0.25,57,141.2
1336,F3,266.0,0.25,45,141.2
1337,A3,266.0,0.25,45,141.2
1338,E5,267.0,0.25,53,141.2
1339,C4,267.0,0.25,36,141.2
1340,G4,267.0,0.25,36,141.2
1341,B-4,267.0,0.25,36,141.2
1342,E-5,267.25,0.25,45,141.2
1343,E5,267.5,0.25,53,141.2
1344,C5,267.75,0.25,43,141.2
1345,F5,268.0,0.25,57,141.2
1346,F4,268.0,0.25,45,141.2
1347,A4,268.0,0.25,45,141.2
1348,E6,270.0,1.0,80,141.2
1349,C6,270.0,1.0,80,141.2
1350,B-5,270.0,1.0,80,141.2
1351,G5,270.0,1.0,80,141.2
1352,E5,270.0,1.0,80,141.2
1353,C3,270.0,1.0,62,141.2
1354,C4,270.0,1.0,62,141.2
1355,F6,272.0,1.0,86,141.2
1356,C6,272.0,1.0,86,141.2
1357,A5,272.0,1.0,86,141.2
1358,F5,272.0,1.0,86,141.2
1359,F2,272.0,1.0,70,141.2
1360,F3,272.0,1.0,70,141.2
1361,B-3,275.0,0.25,42,141.2
1362,D4,275.0,1.0,50,141.2
1363,A3,275.25,0.25,40,141.2
1364,B-3,275.5,0.25,45,141.2
1365,F3,275.75,0.25,39,141.2
1366,D4,276.0,0.188,38,141.2
1367,F4,276.0,0.188,38,141.2
1368,B-1,276.0,0.188,33,141.2
1369,B-2,276.0,0.188,33,141.2
1370,B-3,277.0,0.188,35,141.2
1371,D4,277.0,0.188,35,141.2
1372,B-1,277.0,0.188,30,141.2
1373,B-2,277.0,0.188,30,141.2
1374,B-3,279.0,0.25,42,141.2
1375,D4,279.0,1.0,50,141.2
1376,A3,279.25,0.25,40,141.2
1377,B-3,279.5,0.25,45,141.2
1378,F3,279.75,0.25,39,141.2
1379,D4,280.0,0.188,38,141.2
1380,F4,280.0,0.188,38,141.2
1381,B-1,280.0,0.188,33,141.2
1382,B-2,280.0,0.188,33,141.2
1383,B-3,281.0,0.188,35,141.2
1384,D4,281.0,0.188,35,141.2
1385,B-1,281.0,0.188,30,141.2
1386,B-2,281.0,0.188,30,141.2
1387,D4,283.0,0.5,50,141.2
1388,B-3,283.0,0.275,42,141.2
1389,A3,283.25,0.275,40,141.2
1390,B-3,283.5,0.275,46,141.2
1391,F3,283.75,0.25,40,141.2
1392,F4,284.0,0.5,53,141.2
1393,D4,284.0,0.275,44,141.2
1394,C#4,284.25,0.275,42,141.2
1395,D4,284.5,0.275,49,141.2
1396,B-3,284.75,0.25,42,141.2
1397,F4,285.0,0.275,47,141.2
1398,B-4,285.0,0.5,56,141.2
1399,E4,285.25,0.275,45,141.2
1400,F4,285.5,0.275,51,141.2
1401,D4,285.75,0.25,45,141.2
1402,B-4,286.0,0.275,49,141.2
1403,D5,286.0,0.5,59,141.2
1404,A4,286.25,0.275,47,141.2
1405,B-4,286.5,0.275,54,141.2
1406,F4,286.75,0.25,47,141.2
1407,D5,287.0,0.275,52,141.2
1408,F5,287.0,0.5,62,141.2
1409,C#5,287.25,0.275,50,141.2
1410,D5,287.5,0.275,57,141.2
1411,B-4,287.75,0.25,49,141.2
1412,B-5,288.0,3.0,72,141.2
1413,B-2,288.0,0.25,44,141.2
1414,D3,288.25,0.25,31,141.2
1415,F3,288.5,0.25,31,141.2
1416,B-3,288.75,0.25,31,141.2
1417,B-2,289.0,0.25,44,141.2
1418,D3,289.25,0.25,32,141.2
1419,F3,289.5,0.25,32,141.2
1420,B-3,289.75,0.25,32,141.2
1421,B-2,290.0,0.25,44,141.2
1422,D3,290.25,0.25,33,141.2
1423,F3,290.5,0.25,33,141.2
1424,B-3,290.75,0.25,33,141.2
1425,A5,291.0,0.25,60,141.2
1426,B-2,291.0,0.25,44,141.2
1427,B-5,291.25,0.25,57,141.2
1428,D3,291.25,0.25,33,141.2
1429,C6,291.5,0.25,60,141.2
1430,F3,291.5,0.25,33,141.2
1431,B-5,291.75,0.25,54,141.2
1432,B-3,291.75,0.25,33,141.2
1433,A5,292.0,0.5,60,141.2
1434,B-2,292.0,0.25,44,141.2
1435,E-3,292.25,0.25,31,141.2
1436,G5,292.5,0.5,51,141.2
1437,G3,292.5,0.25,31,141.2
1438,B-3,292.75,0.25,31,141.2
1439,F5,293.0,0.5,54,141.2
1440,B-2,293.0,0.25,42,141.2
1441,E-3,293.25,0.25,28,141.2
1442,E-5,293.5,0.5,50,141.2
1443,G3,293.5,0.25,28,141.2
1444,B-3,293.75,0.25,28,141.2
1445,D5,294.0,0.5,59,141.2
1446,B-2,294.0,0.25,41,141.2
1447,E-3,294.25,0.25,29,141.2
1448,C5,294.5,0.5,48,141.2
1449,F3,294.5,0.25,29,141.2
1450,A3,294.75,0.25,29,141.2
1451,G5,295.0,0.5,56,141.2
1452,B-2,295.0,0.25,41,141.2
1453,E-3,295.25,0.25,31,141.2
1454,F5,295.5,0.5,47,141.2
1455,F3,295.5,0.25,31,141.2
1456,A3,295.75,0.25,31,141.2
1457,E-5,296.0,1.0,54,141.2
1458,B-2,296.0,0.25,44,141.2
1459,D3,296.25,0.25,31,141.2
1460,F3,296.5,0.25,31,141.2
1461,B-3,296.75,0.25,31,141.2
1462,D5,297.0,1.0,47,141.2
1463,B-2,297.0,0.25,44,141.2
1464,D3,297.25,0.25,32,141.2
1465,F3,297.5,0.25,32,141.2
1466,B-3,297.75,0.25,32,141.2
1467,B-2,298.0,0.25,44,141.2
1468,D3,298.25,0.25,32,141.2
1469,F3,298.5,0.25,32,141.2
1470,G#3,298.75,0.25,32,141.2
1471,A4,299.0,0.25,58,141.2
1472,B-2,299.0,0.25,44,141.2
1473,B-4,299.25,0.25,54,141.2
1474,D3,299.25,0.25,32,141.2
1475,C5,299.5,0.25,58,141.2
1476,F3,299.5,0.25,32,141.2
1477,B-4,299.75,0.25,54,141.2
1478,G#3,299.75,0.25,32,141.2
1479,G#4,300.0,0.5,60,141.2
1480,B-2,300.0,0.25,44,141.2
1481,E-3,300.25,0.25,32,141.2
1482,G4,300.5,0.5,54,141.2
1483,G3,300.5,0.25,32,141.2
1484,E-3,300.75,0.25,32,141.2
1485,F4,301.0,0.5,66,141.2
1486,B-2,301.0,0.25,44,141.2
1487,E-3,301.25,0.25,36,141.2
1488,E-4,301.5,0.5,61,141.2
1489,G3,301.5,0.25,36,141.2
1490,E-3,301.75,0.25,36,141.2
1491,D4,302.0,0.5,69,141.2
1492,B-2,302.0,0.25,48,141.2
1493,C3,302.25,0.25,37,141.2
1494,C4,302.5,0.5,62,141.2
1495,E-3,302.5,0.25,38,141.2
1496,F3,302.75,0.25,40,141.2
1497,E-4,303.0,0.5,73,141.2
1498,B-2,303.0,0.25,50,141.2
1499,C3,303.25,0.25,40,141.2
1500,A3,303.5,0.5,63,141.2
1501,E-3,303.5,0.25,39,141.2
1502,F3,303.75,0.25,43,141.2
1503,B-3,304.0,0.25,79,141.2
1504,B-2,304.0,0.25,60,141.2
1505,D4,304.5,0.25,68,141.2
1506,C4,304.75,0.25,65,141.2
1507,B-3,305.0,0.25,71,141.2
1508,B-2,305.0,0.25,53,141.2
1509,A3,305.25,0.25,65,141.2
1510,A2,305.25,0.25,46,141.2
1511,B-3,305.5,0.25,71,141.2
1512,B-2,305.5,0.25,53,141.2
1513,G3,305.75,0.25,65,141.2
1514,G2,305.75,0.25,46,141.2
1515,F3,306.0,0.25,79,141.2
1516,F2,306.0,0.25,60,141.2
1517,G4,306.5,0.25,68,141.2
1518,F4,306.75,0.25,65,141.2
1519,E-4,307.0,0.25,71,141.2
1520,E-3,307.0,0.25,53,141.2
1521,D4,307.25,0.25,65,141.2
1522,D3,307.25,0.25,46,141.2
1523,E-4,307.5,0.25,71,141.2
1524,E-3,307.5,0.25,53,141.2
1525,C4,307.75,0.25,65,141.2
1526,C3,307.75,0.25,46,141.2
1527,B-3,308.0,0.25,79,141.2
1528,B-2,308.0,0.25,60,141.2
1529,D5,308.5,0.25,68,141.2
1530,C5,308.75,0.25,65,141.2
1531,B-4,309.0,0.25,71,141.2
1532,B-3,309.0,0.25,53,141.2
1533,A4,309.25,0.25,65,141.2
1534,A3,309.25,0.25,46,141.2
1535,B-4,309.5,0.25,71,141.2
1536,B-3,309.5,0.25,53,141.2
1537,G4,309.75,0.25,65,141.2
1538,G3,309.75,0.25,46,141.2
1539,F4,310.0,0.25,79,141.2
1540,F3,310.0,0.25,60,141.2
1541,G5,310.5,0.25,78,141.2
1542,F5,310.75,0.25,74,141.2
1543,E-5,311.0,0.25,81,141.2
1544,E-4,311.0,0.25,60,141.2
1545,D5,311.25,0.25,74,141.2
1546,D4,311.25,0.25,52,141.2
1547,E-5,311.5,0.25,81,141.2
1548,E-4,311.5,0.25,60,141.2
1549,C5,311.75,0.25,74,141.2
1550,C4,311.75,0.25,52,141.2
1551,B-4,312.0,0.25,90,141.2
1552,B-3,312.0,0.25,69,141.2
1553,C5,312.5,0.25,68,141.2
1554,C4,312.5,0.25,53,141.2
1555,D5,312.75,0.25,68,141.2
1556,D4,312.75,0.25,48,141.2
1557,E-5,313.0,0.25,77,141.2
1558,E-4,313.0,0.25,54,141.2
1559,F5,313.25,0.25,70,141.2
1560,F4,313.25,0.25,48,141.2
1561,G5,313.5,0.25,70,141.2
1562,G4,313.5,0.25,48,141.2
1563,A5,313.75,0.25,71,141.2
1564,A4,313.75,0.25,49,141.2
1565,B-4,314.0,0.25,56,141.2
1566,B-5,314.0,1.0,69,141.2
1567,C6,314.0,1.0,69,141.2
1568,B-5,314.125,0.125,81,141.2
1569,A5,314.25,0.25,72,141.2
1570,A4,314.25,0.25,50,141.2
1571,B-5,314.5,0.25,73,141.2
1572,B-4,314.5,0.25,50,141.2
1573,C6,314.75,0.25,74,141.2
1574,C5,314.75,0.25,51,141.2
1575,D5,315.0,0.25,58,141.2
1576,D6,315.0,1.0,70,141.2
1577,E-6,315.0,1.0,70,141.2
1578,D6,315.125,0.25,83,141.2
1579,C6,315.25,0.25,75,141.2
1580,C5,315.25,0.25,52,141.2
1581,D6,315.5,0.25,76,141.2
1582,D5,315.5,0.25,52,141.2
1583,E6,315.75,0.25,76,141.2
1584,E5,315.75,0.25,53,141.2
1585,F6,316.0,0.25,97,141.2
1586,F5,316.0,0.25,73,141.2
1587,F4,317.0,0.25,79,141.2
1588,F3,317.0,0.25,60,141.2
1589,B-2,319.0,0.25,65,141.2
1590,A2,319.25,0.25,57,141.2
1591,B-2,319.5,0.25,62,141.2
1592,F2,319.75,0.25,55,141.2
1593,D3,320.0,0.25,65,141.2
1594,C#3,320.25,0.25,58,141.2
1595,D3,320.5,0.25,63,141.2
1596,B-2,320.75,0.25,57,141.2
1597,F3,321.0,0.25,65,141.2
1598,E3,321.25,0.25,58,141.2
1599,F3,321.5,0.25,63,141.2
1600,D3,321.75,0.25,57,141.2
1601,B-3,322.0,0.25,65,141.2
1602,A3,322.25,0.25,58,141.2
1603,B-3,322.5,0.25,63,141.2
1604,F3,322.75,0.25,57,141.2
1605,D4,323.0,0.25,63,141.2
1606,C#4,323.25,0.25,58,141.2
1607,D4,323.5,0.25,62,141.2
1608,B-3,323.75,0.25,57,141.2
1609,F4,324.0,1.75,72,141.2
1610,E-4,325.75,0.25,63,141.2
1611,F5,326.0,4.0,75,141.2
1612,D4,326.0,0.75,71,141.2
1613,C4,326.75,0.25,63,141.2
1614,B-3,327.0,0.75,72,141.2
1615,G#3,327.75,0.25,63,141.2
1616,G3,328.0,2.0,72,141.2
1617,B4,329.0,1.0,56,141.2
1618,G#3,330.0,1.0,48,141.2
1619,C5,330.0,1.0,48,141.2
1620,E-5,330.0,1.0,48,141.2
1621,A4,331.0,1.0,41,141.2
1622,D5,331.0,2.0,49,141.2
1623,F#3,331.0,1.0,42,141.2
1624,B-4,332.0,1.0,55,141.2
1625,G3,332.0,1.0,51,141.2
1626,G4,333.0,1.0,41,141.2
1627,C5,333.0,2.0,49,141.2
1628,E3,333.0,1.0,44,141.2
1629,A4,334.0,1.0,55,141.2
1630,F3,334.0,1.0,52,141.2
1631,D3,335.0,1.0,34,141.2
1632,F4,335.0,1.0,46,141.2
1633,B4,335.0,1.0,46,141.2
1634,C5,336.0,0.25,68,141.2
1635,C2,336.0,0.5,51,141.2
1636,C3,336.0,0.5,51,141.2
1637,E4,336.25,0.25,37,141.2
1638,G4,336.25,0.25,37,141.2
1639,C5,336.5,0.25,62,141.2
1640,C4,336.5,0.285,42,141.2
1641,E4,336.75,0.25,36,141.2
1642,G4,336.75,0.25,36,141.2
1643,C5,337.0,0.25,64,141.2
1644,C4,337.0,0.285,42,141.2
1645,E4,337.25,0.25,38,141.2
1646,G4,337.25,0.25,38,141.2
1647,D5,337.5,0.25,68,141.2
1648,C4,337.5,0.285,42,141.2
1649,E4,337.75,0.25,37,141.2
1650,G4,337.75,0.25,37,141.2
1651,E5,338.0,0.25,62,141.2
1652,C4,338.0,0.285,51,141.2
1653,G4,338.25,0.25,42,141.2
1654,B-4,338.25,0.25,42,141.2
1655,C5,338.5,0.25,68,141.2
1656,C4,338.5,0.285,43,141.2
1657,G4,338.75,0.25,42,141.2
1658,B-4,338.75,0.25,42,141.2
1659,D5,339.0,0.25,68,141.2
1660,C4,339.0,0.285,43,141.2
1661,G4,339.25,0.25,42,141.2
1662,B-4,339.25,0.25,42,141.2
1663,E5,339.5,0.25,70,141.2
1664,C4,339.5,0.285,43,141.2
1665,G4,339.75,0.25,42,141.2
1666,B-4,339.75,0.25,42,141.2
1667,F5,340.0,0.25,68,141.2
1668,C4,340.0,0.285,51,141.2
1669,F4,340.25,0.25,37,141.2
1670,A4,340.25,0.25,37,141.2
1671,F5,340.5,0.25,62,141.2
1672,C4,340.5,0.285,42,141.2
1673,F4,340.75,0.25,36,141.2
1674,A4,340.75,0.25,36,141.2
1675,F5,341.0,0.25,64,141.2
1676,C4,341.0,0.285,42,141.2
1677,F4,341.25,0.25,38,141.2
1678,A4,341.25,0.25,38,141.2
1679,E5,341.5,0.25,68,141.2
1680,C4,341.5,0.285,42,141.2
1681,F4,341.75,0.25,37,141.2
1682,A4,341.75,0.25,37,141.2
1683,D5,342.0,0.25,62,141.2
1684,C4,342.0,0.285,51,141.2
1685,F4,342.25,0.25,42,141.2
1686,G#4,342.25,0.25,42,141.2
1687,C5,342.5,0.25,68,141.2
1688,C4,342.5,0.285,43,141.2
1689,F4,342.75,0.25,42,141.2
1690,G#4,342.75,0.25,42,141.2
1691,B4,343.0,0.25,68,141.2
1692,C4,343.0,0.285,43,141.2
1693,F4,343.25,0.25,42,141.2
1694,G#4,343.25,0.25,42,141.2
1695,D5,343.5,0.25,70,141.2
1696,C4,343.5,0.3,43,141.2
1697,F4,343.75,0.25,42,141.2
1698,G#4,343.75,0.25,42,141.2
1699,C5,344.0,0.25,68,141.2
1700,C2,344.0,0.5,51,141.2
1701,C3,344.0,0.5,51,141.2
1702,E4,344.25,0.25,37,141.2
1703,G4,344.25,0.25,37,141.2
1704,B4,344.5,0.25,62,141.2
1705,C4,344.5,0.285,42,141.2
1706,E4,344.75,0.25,36,141.2
1707,G4,344.75,0.25,36,141.2
1708,C5,345.0,0.25,64,141.2
1709,C4,345.0,0.285,42,141.2
1710,E4,345.25,0.25,38,141.2
1711,G4,345.25,0.25,38,141.2
1712,D5,345.5,0.25,68,141.2
1713,C4,345.5,0.285,42,141.2
1714,E4,345.75,0.25,37,141.2
1715,G4,345.75,0.25,37,141.2
1716,E5,346.0,0.25,62,141.2
1717,C4,346.0,0.285,51,141.2
1718,G4,346.25,0.25,42,141.2
1719,B-4,346.25,0.25,42,141.2
1720,C5,346.5,0.25,68,141.2
1721,C4,346.5,0.285,43,141.2
1722,G4,346.75,0.25,42,141.2
1723,B-4,346.75,0.25,42,141.2
1724,D5,347.0,0.25,68,141.2
1725,C4,347.0,0.285,43,141.2
1726,G4,347.25,0.25,42,141.2
1727,B-4,347.25,0.25,42,141.2
1728,E5,347.5,0.25,70,141.2
1729,C4,347.5,0.285,43,141.2
1730,G4,347.75,0.25,42,141.2
1731,B-4,347.75,0.25,42,141.2
1732,F5,348.0,0.25,68,141.2
1733,C4,348.0,0.285,51,141.2
1734,F4,348.25,0.25,37,141.2
1735,A4,348.25,0.25,37,141.2
1736,F5,348.5,0.25,62,141.2
1737,C4,348.5,0.285,42,141.2
1738,F4,348.75,0.25,36,141.2
1739,A4,348.75,0.25,36,141.2
1740,F5,349.0,0.25,64,141.2
1741,C4,349.0,0.285,42,141.2
1742,F4,349.25,0.25,38,141.2
1743,A4,349.25,0.25,38,141.2
1744,E5,349.5,0.25,68,141.2
1745,C4,349.5,0.285,42,141.2
1746,F4,349.75,0.25,37,141.2
1747,A4,349.75,0.25,37,141.2
1748,D5,350.0,0.25,62,141.2
1749,C4,350.0,0.285,51,141.2
1750,F4,350.25,0.25,42,141.2
1751,G#4,350.25,0.25,42,141.2
1752,C5,350.5,0.25,68,141.2
1753,C4,350.5,0.285,43,141.2
1754,F4,350.75,0.25,42,141.2
1755,G#4,350.75,0.25,42,141.2
1756,B4,351.0,0.25,68,141.2
1757,C4,351.0,0.285,43,141.2
1758,F4,351.25,0.25,42,141.2
1759,G#4,351.25,0.25,42,141.2
1760,D5,351.5,0.25,70,141.2
1761,C4,351.5,0.3,43,141.2
1762,F4,351.75,0.25,42,141.2
1763,G#4,351.75,0.25,42,141.2
1764,C5,352.0,0.25,78,141.2
1765,C3,352.0,0.475,51,141.2
1766,E4,352.25,0.25,42,141.2
1767,G4,352.25,0.25,42,141.2
1768,C5,352.5,0.25,68,141.2
1769,C4,352.5,0.285,43,141.2
1770,E4,352.75,0.25,42,141.2
1771,G4,352.75,0.25,42,141.2
1772,B4,353.0,0.25,68,141.2
1773,C4,353.0,0.285,43,141.2
1774,F4,353.25,0.25,42,141.2
1775,G#4,353.25,0.25,42,141.2
1776,D5,353.5,0.25,70,141.2
1777,C4,353.5,0.3,43,141.2
1778,F4,353.75,0.25,42,141.2
1779,G#4,353.75,0.25,42,141.2
1780,C5,354.0,0.25,76,141.2
1781,C3,354.0,0.475,51,141.2
1782,E4,354.25,0.25,42,141.2
1783,G4,354.25,0.25,42,141.2
1784,C5,354.5,0.25,68,141.2
1785,C4,354.5,0.285,43,141.2
1786,E4,354.75,0.25,42,141.2
1787,G4,354.75,0.25,42,141.2
1788,B4,355.0,0.25,68,141.2
1789,C4,355.0,0.285,43,141.2
1790,F4,355.25,0.25,42,141.2
1791,G#4,355.25,0.25,42,141.2
1792,D5,355.5,0.25,70,141.2
1793,C4,355.5,0.3,43,141.2
1794,F4,355.75,0.25,42,141.2
1795,G#4,355.75,0.25,42,141.2
1796,C3,356.0,1.0,51,141.2
1797,E4,356.0,0.25,63,141.2
1798,G4,356.0,0.25,63,141.2
1799,C5,356.0,0.25,63,141.2
1800,C4,356.25,0.275,35,141.2
1801,D4,356.5,0.275,40,141.2
1802,E4,356.75,0.275,35,141.2
1803,F4,357.0,0.275,40,141.2
1804,G4,357.25,0.275,35,141.2
1805,A4,357.5,0.275,40,141.2
1806,B4,357.75,0.275,33,141.2
1807,C5,358.0,0.275,40,141.2
1808,B4,358.25,0.275,33,141.2
1809,C5,358.5,0.275,40,141.2
1810,B4,358.75,0.275,33,141.2
1811,C5,359.0,0.275,40,141.2
1812,B4,359.25,0.275,34,141.2
1813,C5,359.5,0.275,40,141.2
1814,B4,359.75,0.25,33,141.2
1815,A4,360.0,2.0,40,141.2
1816,C5,360.0,2.0,40,141.2
1817,F3,360.25,0.275,31,141.2
1818,G3,360.5,0.275,36,141.2
1819,A3,360.75,0.275,31,141.2
1820,B-3,361.0,0.275,36,141.2
1821,C4,361.25,0.275,31,141.2
1822,D4,361.5,0.275,36,141.2
1823,E4,361.75,0.275,29,141.2
1824,A4,362.0,1.0,49,141.2
1825,F4,362.0,0.275,36,141.2
1826,E4,362.25,0.275,29,141.2
1827,F4,362.5,0.275,36,141.2
1828,E4,362.75,0.275,29,141.2
1829,F5,363.0,1.0,47,141.2
1830,F4,363.0,0.275,36,141.2
1831,E4,363.25,0.275,27,141.2
1832,F4,363.5,0.275,34,141.2
1833,E4,363.75,0.25,26,141.2
1834,F4,364.0,0.275,30,141.2
1835,A4,364.0,1.0,45,141.2
1836,C5,364.0,1.0,45,141.2
1837,E4,364.25,0.275,25,141.2
1838,F4,364.5,0.275,30,141.2
1839,E4,364.75,0.275,25,141.2
1840,F4,365.0,0.275,30,141.2
1841,A5,365.0,1.0,40,141.2
1842,F5,365.0,1.0,40,141.2
1843,E4,365.25,0.275,25,141.2
1844,F4,365.5,0.275,30,141.2
1845,E4,365.75,0.275,25,141.2
1846,F4,366.0,0.275,30,141.2
1847,A4,366.0,1.0,46,141.2
1848,C5,366.0,1.0,46,141.2
1849,E4,366.25,0.275,25,141.2
1850,F4,366.5,0.275,30,141.2
1851,E4,366.75,0.275,25,141.2
1852,F4,367.0,0.275,30,141.2
1853,C6,367.0,1.0,40,141.2
1854,A5,367.0,1.0,40,141.2
1855,E4,367.25,0.275,25,141.2
1856,F4,367.5,0.275,30,141.2
1857,E4,367.75,0.25,25,141.2
1858,F4,368.0,0.25,30,141.2
1859,A4,368.0,2.0,40,141.2
1860,C5,368.0,2.0,40,141.2
1861,F3,368.25,0.275,31,141.2
1862,G3,368.5,0.275,36,141.2
1863,A3,368.75,0.275,31,141.2
1864,B-3,369.0,0.275,36,141.2
1865,C4,369.25,0.275,31,141.2
1866,D4,369.5,0.275,36,141.2
1867,E4,369.75,0.275,29,141.2
1868,A4,370.0,1.0,49,141.2
1869,F4,370.0,0.275,36,141.2
1870,E4,370.25,0.275,29,141.2
1871,F4,370.5,0.275,36,141.2
1872,E4,370.75,0.275,29,141.2
1873,F5,371.0,1.0,46,141.2
1874,F4,371.0,0.275,36,141.2
1875,E4,371.25,0.275,27,141.2
1876,F4,371.5,0.275,34,141.2
1877,E4,371.75,0.25,26,141.2
1878,F4,372.0,0.275,30,141.2
1879,A4,372.0,1.0,45,141.2
1880,C5,372.0,1.0,45,141.2
1881,E4,372.25,0.275,25,141.2
1882,F4,372.5,0.275,30,141.2
1883,E4,372.75,0.275,25,141.2
1884,F4,373.0,0.275,30,141.2
1885,A5,373.0,1.0,40,141.2
1886,F5,373.0,1.0,40,141.2
1887,E4,373.25,0.275,25,141.2
1888,F4,373.5,0.275,30,141.2
1889,E4,373.75,0.275,25,141.2
1890,F4,374.0,0.275,30,141.2
1891,A4,374.0,1.0,46,141.2
1892,C5,374.0,1.0,46,141.2
1893,E4,374.25,0.275,25,141.2
1894,F4,374.5,0.275,30,141.2
1895,E4,374.75,0.275,25,141.2
1896,F4,375.0,0.275,30,141.2
1897,C6,375.0,1.0,40,141.2
1898,A5,375.0,1.0,40,141.2
1899,E-4,375.25,0.275,25,141.2
1900,F4,375.5,0.275,30,141.2
1901,E-4,375.75,0.25,25,141.2
1902,C#4,376.0,0.375,39,141.2
1903,A4,376.0,2.0,45,141.2
1904,C5,376.0,2.0,45,141.2
1905,D5,376.0,2.0,45,141.2
1906,F#5,376.0,2.0,45,141.2
1907,D4,376.25,0.25,34,141.2
1908,C#4,376.5,0.375,39,141.2
1909,D4,376.75,0.25,35,141.2
1910,B3,377.0,0.375,41,141.2
1911,C4,377.25,0.25,35,141.2
1912,B3,377.5,0.375,42,141.2
1913,C4,377.75,0.25,36,141.2
1914,G#3,378.0,0.375,44,141.2
1915,A3,378.25,0.25,37,141.2
1916,G#3,378.5,0.375,45,141.2
1917,A3,378.75,0.25,37,141.2
1918,F3,379.0,0.375,44,141.2
1919,F#3,379.25,0.25,38,141.2
1920,F3,379.5,0.375,44,141.2
1921,F#3,379.75,0.25,39,141.2
1922,C#3,380.0,0.375,45,141.2
1923,D3,380.25,0.25,39,141.2
1924,C#3,380.5,0.375,46,141.2
1925,D3,380.75,0.25,40,141.2
1926,F#5,381.0,1.0,70,141.2
1927,B2,381.0,0.375,48,141.2
1928,C3,381.25,0.25,41,141.2
1929,B2,381.5,0.375,48,141.2
1930,C3,381.75,0.25,41,141.2
1931,A5,382.0,1.0,68,141.2
1932,G#2,382.0,0.375,54,141.2
1933,A2,382.25,0.25,42,141.2
1934,G#2,382.5,0.375,52,141.2
1935,A2,382.75,0.25,43,141.2
1936,C6,383.0,2.0,66,141.2
1937,F2,383.0,0.375,55,141.2
1938,F#2,383.25,0.25,44,141.2
1939,F2,383.5,0.375,51,141.2
1940,F#2,383.75,0.25,44,141.2
1941,F#5,384.0,2.0,72,141.2
1942,C#2,384.0,0.375,57,141.2
1943,D2,384.25,0.25,44,141.2
1944,C#2,384.5,0.375,51,141.2
1945,D2,384.75,0.25,44,141.2
1946,B-5,385.0,4.0,73,141.2
1947,C#2,385.0,0.375,56,141.2
1948,D2,385.25,0.25,50,141.2
1949,C#2,385.5,0.375,57,141.2
1950,D2,385.75,0.229,44,141.2
1951,G5,386.0,3.0,75,141.2
1952,D2,386.0,0.375,61,141.2
1953,E-2,386.25,0.25,52,141.2
1954,D2,386.5,0.375,58,141.2
1955,E-2,386.75,0.25,52,141.2
1956,C#5,387.0,1.0,66,141.2
1957,E-2,387.0,0.375,58,141.2
1958,E2,387.25,0.25,44,141.2
1959,E-2,387.5,0.375,54,141.2
1960,E2,387.75,0.25,44,141.2
1961,C5,388.0,2.0,74,141.2
1962,E2,388.0,0.375,56,141.2
1963,F2,388.25,0.25,48,141.2
1964,E2,388.5,0.375,51,141.2
1965,F2,388.75,0.25,44,141.2
1966,E2,389.0,0.375,51,141.2
1967,A5,389.0,1.0,62,141.2
1968,F5,389.0,1.0,62,141.2
1969,F2,389.25,0.25,44,141.2
1970,E2,389.5,0.375,51,141.2
1971,F2,389.75,0.229,44,141.2
1972,A1,390.0,0.375,51,141.2
1973,B-4,390.0,1.0,65,141.2
1974,D5,390.0,1.0,65,141.2
1975,G5,390.0,1.0,65,141.2
1976,B-1,390.25,0.25,44,141.2
1977,A1,390.5,0.375,51,141.2
1978,B-1,390.75,0.229,44,141.2
1979,B1,391.0,0.375,51,141.2
1980,G4,391.0,1.0,57,141.2
1981,B-4,391.0,1.0,57,141.2
1982,E5,391.0,1.0,57,141.2
1983,C2,391.25,0.25,44,141.2
1984,B1,391.5,0.375,51,141.2
1985,C2,391.75,0.229,44,141.2
1986,F1,392.0,0.5,48,141.2
1987,F4,392.0,0.5,68,141.2
1988,A4,392.0,0.5,68,141.2
1989,F5,392.0,0.5,68,141.2
1990,F4,394.0,1.979,80,141.2
1991,A4,394.0,1.979,80,141.2
1992,F3,394.0,1.979,59,141.2
1993,A3,394.0,1.979,59,141.2
1994,D4,396.0,0.979,62,141.2
1995,F4,396.0,0.979,62,141.2
1996,D3,396.0,0.979,45,141.2
1997,F3,396.0,0.979,45,141.2
1998,B-3,397.0,0.5,64,141.2
1999,D4,397.0,0.5,64,141.2
2000,B-2,397.0,0.5,45,141.2
2001,D3,397.0,0.5,45,141.2
2002,G4,398.0,1.5,80,141.2
2003,B-4,398.0,1.5,80,141.2
2004,G3,398.0,1.5,59,141.2
2005,B-3,398.0,1.5,59,141.2
2006,F4,399.5,0.5,62,141.2
2007,A4,399.5,0.5,62,141.2
2008,F3,399.5,0.5,45,141.2
2009,A3,399.5,0.5,45,141.2
2010,G4,400.0,1.0,70,141.2
2011,E4,400.0,1.0,70,141.2
2012,E3,400.0,0.979,54,141.2
2013,G3,400.0,0.979,54,141.2
2014,C4,401.0,0.5,62,141.2
2015,E4,401.0,0.5,62,141.2
2016,C3,401.0,0.5,48,141.2
2017,E3,401.0,0.5,48,141.2
2018,A4,402.0,1.979,80,141.2
2019,C5,402.0,1.979,80,141.2
2020,A3,402.0,1.979,59,141.2
2021,C4,402.0,1.979,59,141.2
2022,F4,404.0,0.979,62,141.2
2023,A4,404.0,0.979,62,141.2
2024,F3,404.0,0.979,45,141.2
2025,A3,404.0,0.979,45,141.2
2026,D4,405.0,0.5,64,141.2
2027,F4,405.0,0.5,64,141.2
2028,D3,405.0,0.5,45,141.2
2029,F3,405.0,0.5,45,141.2
2030,B-4,406.0,1.5,80,141.2
2031,D5,406.0,1.5,80,141.2
2032,B-3,406.0,1.5,59,141.2
2033,D4,406.0,1.5,59,141.2
2034,A4,407.5,0.5,62,141.2
2035,C5,407.5,0.5,62,141.2
2036,A3,407.5,0.5,45,141.2
2037,C4,407.5,0.5,45,141.2
2038,B-4,408.0,1.0,70,141.2
2039,G4,408.0,1.0,70,141.2
2040,G3,408.0,0.979,54,141.2
2041,B-3,408.0,0.979,54,141.2
2042,E4,409.0,0.5,62,141.2
2043,G4,409.0,0.5,62,141.2
2044,E3,409.0,0.5,48,141.2
2045,G3,409.0,0.5,48,141.2
2046,B-4,410.0,1.5,80,141.2
2047,G5,410.0,1.5,80,141.2
2048,B-3,410.0,1.5,59,141.2
2049,G4,410.0,1.5,59,141.2
2050,A4,411.5,0.5,62,141.2
2051,F5,411.5,0.5,62,141.2
2052,A3,411.5,0.5,45,141.2
2053,F4,411.5,0.5,45,141.2
2054,G4,412.0,1.5,80,141.2
2055,E5,412.0,1.5,80,141.2
2056,G3,412.0,1.5,59,141.2
2057,E4,412.0,1.5,59,141.2
2058,F4,413.5,0.5,62,141.2
2059,D5,413.5,0.5,62,141.2
2060,F3,413.5,0.5,41,141.2
2061,D4,413.5,0.5,41,141.2
2062,E4,414.0,1.0,56,141.2
2063,C5,414.0,1.0,56,141.2
2064,E3,414.0,1.0,45,141.2
2065,C4,414.0,1.0,45,141.2
2066,B-3,415.0,1.0,48,141.2
2067,B-4,415.0,1.0,48,141.2
2068,D3,415.0,1.0,38,141.2
2069,F3,415.0,1.0,38,141.2
2070,A3,416.0,1.0,54,141.2
2071,A4,416.0,1.0,54,141.2
2072,C#3,416.0,1.0,40,141.2
2073,E3,416.0,1.0,40,141.2
2074,C#4,417.0,1.0,42,141.2
2075,G4,417.0,1.0,42,141.2
2076,A2,417.0,1.0,30,141.2
2077,E3,417.0,1.0,30,141.2
2078,D4,418.0,1.0,49,141.2
2079,F4,418.0,1.0,49,141.2
2080,B-2,418.0,1.0,36,141.2
2081,D3,418.0,1.0,36,141.2
2082,B2,419.0,1.0,31,141.2
2083,F3,419.0,1.0,43,141.2
2084,G3,419.0,1.0,43,141.2
2085,D4,419.0,1.0,43,141.2
2086,C3,420.0,2.0,38,141.2
2087,F3,421.0,0.5,34,141.2
2088,A3,421.0,0.5,34,141.2
2089,C4,421.0,0.5,34,141.2
2090,C2,422.0,2.0,32,141.2
2091,C3,423.0,0.5,32,141.2
2092,E3,423.0,0.5,32,141.2
2093,G3,423.0,0.5,32,141.2
2094,C4,423.0,0.5,32,141.2
2095,F1,424.0,2.0,35,141.2
2096,A3,425.0,0.938,31,141.2
2097,F3,425.0,0.938,31,141.2
2098,C3,425.0,0.938,31,141.2
2099,A3,426.0,1.5,60,141.2
2100,F3,426.0,1.5,60,141.2
2101,F4,426.5,1.0,60,141.2
2102,A4,426.5,1.0,60,141.2
2103,F4,427.5,0.25,47,141.2
2104,A4,427.5,0.25,47,141.2
2105,F3,427.5,0.25,40,141.2
2106,A3,427.5,0.25,40,141.2
2107,D3,428.0,0.25,49,141.2
2108,F3,428.0,0.25,49,141.2
2109,D4,428.5,0.25,45,141.2
2110,F4,428.5,0.25,45,141.2
2111,B-2,429.0,0.25,43,141.2
2112,D3,429.0,0.25,43,141.2
2113,B-3,429.5,0.25,42,141.2
2114,D4,429.5,0.25,42,141.2
2115,B-3,430.0,1.5,60,141.2
2116,G3,430.0,1.5,60,141.2
2117,G4,430.5,1.0,66,141.2
2118,B-4,430.5,1.0,66,141.2
2119,F4,431.5,0.25,47,141.2
2120,A4,431.5,0.25,47,141.2
2121,F3,431.5,0.25,40,141.2
2122,A3,431.5,0.25,40,141.2
2123,E3,432.0,0.25,49,141.2
2124,G3,432.0,0.25,49,141.2
2125,E4,432.5,0.25,45,141.2
2126,G4,432.5,0.25,45,141.2
2127,C3,433.0,0.25,43,141.2
2128,E3,433.0,0.25,43,141.2
2129,C4,433.5,0.25,42,141.2
2130,E4,433.5,0.25,42,141.2
2131,C4,434.0,1.5,66,141.2
2132,A3,434.0,1.5,66,141.2
2133,A4,434.5,1.0,66,141.2
2134,C5,434.5,1.0,66,141.2
2135,A4,435.5,0.25,52,141.2
2136,C5,435.5,0.25,52,141.2
2137,A3,435.5,0.25,44,141.2
2138,C4,435.5,0.25,44,141.2
2139,F3,436.0,0.25,54,141.2
2140,A3,436.0,0.25,54,141.2
2141,F4,436.5,0.25,49,141.2
2142,A4,436.5,0.25,49,141.2
2143,D3,437.0,0.25,46,141.2
2144,F3,437.0,0.25,46,141.2
2145,D4,437.5,0.25,45,141.2
2146,F4,437.5,0.25,45,141.2
2147,D4,438.0,1.5,68,141.2
2148,B-3,438.0,1.5,68,141.2
2149,B-4,438.5,1.0,76,141.2
2150,D5,438.5,1.0,76,141.2
2151,A4,439.5,0.25,54,141.2
2152,C5,439.5,0.25,54,141.2
2153,A3,439.5,0.25,46,141.2
2154,C4,439.5,0.25,46,141.2
2155,G3,440.0,0.25,56,141.2
2156,B-3,440.0,0.25,56,141.2
2157,G4,440.5,0.25,51,141.2
2158,B-4,440.5,0.25,51,141.2
2159,E3,441.0,0.25,48,141.2
2160,G3,441.0,0.25,48,141.2
2161,E4,441.5,0.25,47,141.2
2162,G4,441.5,0.25,47,141.2
2163,G4,442.0,1.5,72,141.2
2164,B-3,442.0,1.5,72,141.2
2165,B-4,442.5,1.0,88,141.2
2166,G5,442.5,1.0,88,141.2
2167,A4,443.5,0.25,62,141.2
2168,F5,443.5,0.25,62,141.2
2169,A3,443.5,0.25,48,141.2
2170,F4,443.5,0.25,48,141.2
2171,E4,444.0,1.5,72,141.2
2172,G3,444.0,1.5,72,141.2
2173,G4,444.5,1.0,88,141.2
2174,E5,444.5,1.0,88,141.2
2175,F4,445.5,0.25,62,141.2
2176,D5,445.5,0.25,62,141.2
2177,F3,445.5,0.25,48,141.2
2178,D4,445.5,0.25,48,141.2
2179,E3,446.0,0.25,54,141.2
2180,C4,446.0,0.25,54,141.2
2181,E4,446.5,0.25,48,141.2
2182,C5,446.5,0.25,48,141.2
2183,D3,447.0,0.25,44,141.2
2184,F3,447.0,0.25,44,141.2
2185,B-3,447.5,0.25,42,141.2
2186,B-4,447.5,0.25,42,141.2
2187,A4,448.0,0.25,54,141.2
2188,C#3,448.0,4.0,36,141.2
2189,E3,448.0,4.0,36,141.2
2190,G3,448.0,4.0,36,141.2
2191,A3,448.25,0.25,46,141.2
2192,C#4,448.5,0.25,43,141.2
2193,E4,448.75,0.25,43,141.2
2194,A4,449.0,0.25,53,141.2
2195,C#5,449.25,0.25,42,141.2
2196,E5,449.5,0.25,42,141.2
2197,G#5,449.75,0.25,42,141.2
2198,A5,450.0,0.25,49,141.2
2199,G#5,450.25,0.25,39,141.2
2200,A5,450.5,0.25,42,141.2
2201,G#5,450.75,0.25,38,141.2
2202,A5,451.0,0.25,48,141.2
2203,E5,451.25,0.25,38,141.2
2204,C#5,451.5,0.25,38,141.2
2205,A4,451.75,0.25,38,141.2
2206,D3,452.0,4.0,37,141.2
2207,F3,452.0,4.0,37,141.2
2208,A3,452.25,0.25,46,141.2
2209,D4,452.5,0.25,43,141.2
2210,F4,452.75,0.25,43,141.2
2211,A4,453.0,0.25,53,141.2
2212,D5,453.25,0.25,42,141.2
2213,F5,453.5,0.25,42,141.2
2214,G#5,453.75,0.25,42,141.2
2215,A5,454.0,0.25,49,141.2
2216,G#5,454.25,0.25,39,141.2
2217,A5,454.5,0.25,42,141.2
2218,G#5,454.75,0.25,38,141.2
2219,A5,455.0,0.25,48,141.2
2220,F5,455.25,0.25,38,141.2
2221,D5,455.5,0.25,38,141.2
2222,A4,455.75,0.25,38,141.2
2223,B2,456.0,4.0,36,141.2
2224,D3,456.0,4.0,36,141.2
2225,F3,456.0,4.0,36,141.2
2226,G#3,456.25,0.25,46,141.2
2227,B3,456.5,0.25,43,141.2
2228,D4,456.75,0.25,43,141.2
2229,F4,457.0,0.25,50,141.2
2230,G#4,457.25,0.25,42,141.2
2231,B4,457.5,0.25,42,141.2
2232,D5,457.75,0.25,42,141.2
2233,F5,458.0,0.25,49,141.2
2234,D5,458.25,0.25,41,141.2
2235,G#5,458.5,0.25,48,141.2
2236,F5,458.75,0.25,41,141.2
2237,D5,459.0,0.25,48,141.2
2238,B4,459.25,0.25,45,141.2
2239,G#4,459.5,0.25,42,141.2
2240,F4,459.75,0.25,39,141.2
2241,B-2,460.0,2.5,60,141.2
2242,C#3,460.0,2.5,60,141.2
2243,E3,460.0,2.5,60,141.2
2244,G3,460.0,2.5,60,141.2
2245,E4,460.25,0.25,48,141.2
2246,G4,460.5,0.25,50,141.2
2247,B-4,460.75,0.25,51,141.2
2248,C#5,461.0,0.25,53,141.2
2249,E5,461.25,0.25,55,141.2
2250,G5,461.5,0.25,57,141.2
2251,B-5,461.75,0.25,59,141.2
2252,C#6,462.0,0.25,65,141.2
2253,E6,462.25,0.25,57,141.2
2254,E5,462.5,0.25,64,141.2
2255,B-2,462.5,0.25,53,141.2
2256,C3,462.5,0.25,53,141.2
2257,G3,462.5,0.25,53,141.2
2258,E6,462.75,0.25,56,141.2
2259,E5,463.0,0.25,64,141.2
2260,B-2,463.0,0.25,65,141.2
2261,C3,463.0,0.25,65,141.2
2262,G3,463.0,0.25,65,141.2
2263,E6,463.25,0.25,58,141.2
2264,E5,463.5,0.25,64,141.2
2265,B-2,463.5,0.25,54,141.2
2266,C3,463.5,0.25,54,141.2
2267,G3,463.5,0.25,54,141.2
2268,E6,463.75,0.25,59,141.2
2269,F5,464.0,0.25,74,141.2
2270,A2,464.0,1.0,73,141.2
2271,C3,464.0,1.0,73,141.2
2272,F3,464.0,1.0,73,141.2
2273,F6,464.25,0.25,59,141.2
2274,E5,464.5,0.25,67,141.2
2275,E6,464.75,0.25,54,141.2
2276,F5,465.0,0.25,66,141.2
2277,F6,465.25,0.25,57,141.2
2278,B-4,465.5,0.25,59,141.2
2279,E2,465.5,0.25,62,141.2
2280,C3,465.5,0.25,62,141.2
2281,B-5,465.75,0.25,50,141.2
2282,A4,466.0,0.25,79,141.2
2283,F2,466.0,0.25,69,141.2
2284,C3,466.0,0.25,69,141.2
2285,A5,466.25,0.25,54,141.2
2286,E5,466.5,0.25,65,141.2
2287,B-2,466.5,0.25,62,141.2
2288,C3,466.5,0.25,62,141.2
2289,E6,466.75,0.25,57,141.2
2290,F5,467.0,0.25,68,141.2
2291,A2,467.0,0.25,69,141.2
2292,C3,467.0,0.25,69,141.2
2293,F6,467.25,0.25,60,141.2
2294,B-4,467.5,0.25,67,141.2
2295,E2,467.5,0.25,62,141.2
2296,C3,467.5,0.25,62,141.2
2297,B-5,467.75,0.25,58,141.2
2298,A4,468.0,0.25,81,141.2
2299,F2,468.0,0.25,69,141.2
2300,C3,468.0,0.25,69,141.2
2301,A5,468.25,0.25,58,141.2
2302,E5,468.5,0.25,64,141.2
2303,B-2,468.5,0.25,62,141.2
2304,C3,468.5,0.25,62,141.2
2305,E6,468.75,0.25,59,141.2
2306,F5,469.0,0.25,67,141.2
2307,A2,469.0,0.25,69,141.2
2308,C3,469.0,0.25,69,141.2
2309,F6,469.25,0.25,55,141.2
2310,B-4,469.5,0.25,62,141.2
2311,E2,469.5,0.25,62,141.2
2312,C3,469.5,0.25,62,141.2
2313,B-5,469.75,0.25,51,141.2
2314,A4,470.0,0.25,72,141.2
2315,F2,470.0,0.25,69,141.2
2316,C3,470.0,0.25,69,141.2
2317,A5,470.25,0.25,52,141.2
2318,E5,470.5,0.25,64,141.2
2319,B-2,470.5,0.25,62,141.2
2320,C3,470.5,0.25,62,141.2
2321,E6,470.75,0.25,54,141.2
2322,F5,471.0,0.25,64,141.2
2323,A2,471.0,0.25,69,141.2
2324,C3,471.0,0.25,69,141.2
2325,F6,471.25,0.25,51,141.2
2326,B-4,471.5,0.25,60,141.2
2327,E2,471.5,0.25,62,141.2
2328,C3,471.5,0.25,62,141.2
2329,B-5,471.75,0.25,51,141.2
2330,A4,472.0,0.25,83,141.2
2331,F2,472.0,2.0,89,141.2
2332,A5,472.25,0.25,53,141.2
2333,G4,472.5,0.25,62,141.2
2334,G5,472.75,0.25,54,141.2
2335,F4,473.0,0.25,62,141.2
2336,F5,473.25,0.25,54,141.2
2337,E4,473.5,0.25,62,141.2
2338,E5,473.75,0.25,53,141.2
2339,D4,474.0,0.25,81,141.2
2340,D2,474.0,2.0,80,141.2
2341,D5,474.25,0.25,53,141.2
2342,C4,474.5,0.25,60,141.2
2343,C5,474.75,0.25,52,141.2
2344,B-3,475.0,0.25,59,141.2
2345,B-4,475.25,0.25,52,141.2
2346,A3,475.5,0.25,59,141.2
2347,A4,475.75,0.25,50,141.2
2348,G3,476.0,0.25,79,141.2
2349,B-1,476.0,2.0,88,141.2
2350,G4,476.25,0.25,50,141.2
2351,F3,476.5,0.25,59,141.2
2352,F4,476.75,0.25,49,141.2
2353,E3,477.0,0.25,59,141.2
2354,E4,477.25,0.25,49,141.2
2355,D3,477.5,0.25,59,141.2
2356,D4,477.75,0.25,51,141.2
2357,C3,478.0,0.25,79,141.2
2358,C2,478.0,2.0,84,141.2
2359,C4,478.25,0.25,49,141.2
2360,B-2,478.5,0.25,59,141.2
2361,B-3,478.75,0.25,50,141.2
2362,A2,479.0,0.25,59,141.2
2363,A3,479.25,0.25,48,141.2
2364,G2,479.5,0.25,58,141.2
2365,G3,479.75,0.25,49,141.2
2366,F1,480.0,0.25,81,141.2
2367,F3,480.0,0.25,70,141.2
2368,F2,480.0,0.25,70,141.2
2369,E3,480.5,0.25,49,141.2
2370,B-2,480.5,0.25,54,141.2
2371,C4,480.75,0.25,42,141.2
2372,F3,481.0,0.25,49,141.2
2373,A2,481.0,0.25,60,141.2
2374,C4,481.25,0.25,41,141.2
2375,B-3,481.5,0.25,49,141.2
2376,E2,481.5,0.25,54,141.2
2377,C4,481.75,0.25,42,141.2
2378,A3,482.0,0.25,49,141.2
2379,F2,482.0,0.25,60,141.2
2380,C4,482.25,0.25,41,141.2
2381,E3,482.5,0.25,49,141.2
2382,B-2,482.5,0.25,52,141.2
2383,C4,482.75,0.25,42,141.2
2384,F3,483.0,0.25,49,141.2
2385,A2,483.0,0.25,60,141.2
2386,C4,483.25,0.25,43,141.2
2387,B-3,483.5,0.25,49,141.2
2388,E2,483.5,0.25,58,141.2
2389,C4,483.75,0.25,40,141.2
2390,A3,484.0,0.25,49,141.2
2391,F2,484.0,0.25,60,141.2
2392,C4,484.25,0.25,41,141.2
2393,E3,484.5,0.25,49,141.2
2394,B-2,484.5,0.25,52,141.2
2395,C4,484.75,0.25,42,141.2
2396,F3,485.0,0.25,49,141.2
2397,A2,485.0,0.25,60,141.2
2398,C4,485.25,0.25,43,141.2
2399,B-3,485.5,0.25,49,141.2
2400,E2,485.5,0.25,58,141.2
2401,C4,485.75,0.25,40,141.2
2402,A3,486.0,0.25,56,141.2
2403,F2,486.0,0.25,67,141.2
2404,C4,486.25,0.25,45,141.2
2405,C#3,486.5,0.25,60,141.2
2406,G2,486.5,0.25,59,141.2
2407,C#4,486.75,0.25,52,141.2
2408,D3,487.0,0.25,61,141.2
2409,F2,487.0,0.25,72,141.2
2410,D4,487.25,0.25,49,141.2
2411,E3,487.5,0.25,67,141.2
2412,E2,487.5,0.25,67,141.2
2413,E4,487.75,0.25,60,141.2
2414,F3,488.0,0.25,71,141.2
2415,D2,488.0,0.25,75,141.2
2416,F4,488.25,0.25,62,141.2
2417,F#3,488.5,0.25,70,141.2
2418,C2,488.5,0.25,77,141.2
2419,F#4,488.75,0.25,64,141.2
2420,G3,489.0,0.25,70,141.2
2421,B-1,489.0,0.25,80,141.2
2422,G4,489.25,0.25,64,141.2
2423,A3,489.5,0.25,74,141.2
2424,A1,489.5,0.25,82,141.2
2425,A4,489.75,0.25,65,141.2
2426,B-3,490.0,0.25,82,141.2
2427,G1,490.0,4.0,94,141.2
2428,B-4,490.25,0.25,71,141.2
2429,C4,490.5,0.25,79,141.2
2430,C5,490.75,0.25,70,141.2
2431,D4,491.0,0.25,83,141.2
2432,D5,491.25,0.25,72,141.2
2433,C4,491.5,0.25,81,141.2
2434,C5,491.75,0.25,69,141.2
2435,B-3,492.0,0.25,84,141.2
2436,B-4,492.25,0.25,69,141.2
2437,A3,492.5,0.25,81,141.2
2438,A4,492.75,0.25,69,141.2
2439,G3,493.0,0.25,79,141.2
2440,G4,493.25,0.25,69,141.2
2441,F3,493.5,0.25,78,141.2
2442,F4,493.75,0.25,65,141.2
2443,E3,494.0,0.25,79,141.2
2444,C2,494.0,2.0,87,141.2
2445,E4,494.25,0.25,69,141.2
2446,D3,494.5,0.25,77,141.2
2447,D4,494.75,0.25,65,141.2
2448,C3,495.0,0.25,77,141.2
2449,C4,495.25,0.25,67,141.2
2450,E3,495.5,0.25,75,141.2
2451,E4,495.75,0.25,66,141.2
2452,F1,496.0,0.25,30,141.2
2453,F4,496.0,1.0,79,141.2
2454,F3,496.0,1.0,79,141.2
2455,F2,496.25,0.25,26,141.2
2456,F1,496.5,0.25,30,141.2
2457,F2,496.75,0.25,25,141.2
2458,F1,497.0,0.25,30,141.2
2459,F2,497.25,0.25,26,141.2
2460,F1,497.5,0.25,30,141.2
2461,F2,497.75,0.25,27,141.2
2462,F1,498.0,0.25,30,141.2
2463,C4,498.0,2.0,37,141.2
2464,A3,498.0,2.0,37,141.2
2465,F2,498.25,0.25,27,141.2
2466,F1,498.5,0.25,30,141.2
2467,F2,498.75,0.25,25,141.2
2468,F1,499.0,0.25,30,141.2
2469,F2,499.25,0.25,26,141.2
2470,F3,499.5,0.5,39,141.2
2471,F1,499.5,0.25,30,141.2
2472,F2,499.75,0.25,26,141.2
2473,F1,500.0,0.25,30,141.2
2474,C#4,500.0,2.0,42,141.2
2475,B-3,500.0,2.0,42,141.2
2476,F2,500.25,0.25,26,141.2
2477,F1,500.5,0.25,30,141.2
2478,F2,500.75,0.25,25,141.2
2479,F1,501.0,0.25,30,141.2
2480,F2,501.25,0.25,26,141.2
2481,G#3,501.5,0.5,40,141.2
2482,F1,501.5,0.25,30,141.2
2483,F2,501.75,0.25,27,141.2
2484,F#3,502.0,0.5,45,141.2
2485,F1,502.0,0.25,30,141.2
2486,C4,502.0,1.0,32,141.2
2487,B-3,502.0,1.0,32,141.2
2488,F2,502.25,0.25,27,141.2
2489,F3,502.5,0.5,40,141.2
2490,F1,502.5,0.25,30,141.2
2491,F2,502.75,0.25,25,141.2
2492,F#3,503.0,0.5,46,141.2
2493,F1,503.0,0.25,30,141.2
2494,C4,503.0,1.0,33,141.2
2495,B-3,503.0,1.0,33,141.2
2496,F2,503.25,0.25,26,141.2
2497,E3,503.5,0.5,40,141.2
2498,F1,503.5,0.25,30,141.2
2499,F2,503.75,0.25,26,141.2
2500,F1,504.0,0.25,30,141.2
2501,C4,504.0,1.5,41,141.2
2502,A3,504.0,1.5,41,141.2
2503,F3,504.0,1.5,41,141.2
2504,F2,504.25,0.25,26,141.2
2505,F1,504.5,0.25,30,141.2
2506,F2,504.75,0.25,25,141.2
2507,F1,505.0,0.25,30,141.2
2508,F2,505.25,0.25,26,141.2
2509,F1,505.5,0.25,30,141.2
2510,F2,505.75,0.25,27,141.2
2511,A4,506.0,1.5,52,141.2
2512,F1,506.0,0.25,30,141.2
2513,C4,506.0,2.0,48,141.2
2514,A3,506.0,2.0,48,141.2
2515,F2,506.25,0.25,27,141.2
2516,F1,506.5,0.25,35,141.2
2517,F2,506.75,0.25,29,141.2
2518,F1,507.0,0.25,34,141.2
2519,F2,507.25,0.25,26,141.2
2520,F4,507.5,0.5,50,141.2
2521,F1,507.5,0.25,35,141.2
2522,F2,507.75,0.25,31,141.2
2523,B-4,508.0,1.5,52,141.2
2524,F1,508.0,0.25,38,141.2
2525,C#4,508.0,2.0,54,141.2
2526,B-3,508.0,2.0,54,141.2
2527,F2,508.25,0.25,30,141.2
2528,F1,508.5,0.25,34,141.2
2529,F2,508.75,0.25,25,141.2
2530,F1,509.0,0.25,33,141.2
2531,F2,509.25,0.25,26,141.2
2532,G#4,509.5,0.5,52,141.2
2533,F1,509.5,0.25,30,141.2
2534,F2,509.75,0.25,27,141.2
2535,F#4,510.0,0.5,58,141.2
2536,F1,510.0,0.25,30,141.2
2537,C#4,510.0,1.0,41,141.2
2538,B-3,510.0,1.0,41,141.2
2539,F2,510.25,0.25,27,141.2
2540,F4,510.5,0.5,52,141.2
2541,F1,510.5,0.25,30,141.2
2542,F2,510.75,0.25,25,141.2
2543,F#4,511.0,0.5,59,141.2
2544,F1,511.0,0.25,30,141.2
2545,C#4,511.0,1.0,42,141.2
2546,B-3,511.0,1.0,42,141.2
2547,F2,511.25,0.25,26,141.2
2548,E4,511.5,0.5,52,141.2
2549,F1,511.5,0.25,30,141.2
2550,F2,511.75,0.25,26,141.2
2551,F1,512.0,0.25,30,141.2
2552,F4,512.0,1.5,53,141.2
2553,C4,512.0,1.5,53,141.2
2554,A3,512.0,1.5,53,141.2
2555,F2,512.25,0.25,25,141.2
2556,F1,512.5,0.25,29,141.2
2557,F2,512.75,0.25,24,141.2
2558,F1,513.0,0.25,28,141.2
2559,F2,513.25,0.25,24,141.2
2560,F1,513.5,0.25,28,141.2
2561,F2,513.75,0.25,25,141.2
2562,G4,514.0,0.5,53,141.2
2563,F1,514.0,0.25,27,141.2
2564,C#4,514.0,1.0,37,141.2
2565,B-3,514.0,1.0,37,141.2
2566,F2,514.25,0.25,24,141.2
2567,F4,514.5,0.5,46,141.2
2568,F1,514.5,0.25,27,141.2
2569,F2,514.75,0.25,22,141.2
2570,G4,515.0,0.5,51,141.2
2571,F1,515.0,0.25,26,141.2
2572,C#4,515.0,1.0,36,141.2
2573,B-3,515.0,1.0,36,141.2
2574,F2,515.25,0.25,22,141.2
2575,E4,515.5,0.5,44,141.2
2576,F1,515.5,0.25,25,141.2
2577,F2,515.75,0.25,22,141.2
2578,F1,516.0,0.25,25,141.2
2579,F4,516.0,1.5,44,141.2
2580,C4,516.0,1.5,44,141.2
2581,A3,516.0,1.5,44,141.2
2582,F2,516.25,0.25,21,141.2
2583,F1,516.5,0.25,24,141.2
2584,F2,516.75,0.25,20,141.2
2585,F1,517.0,0.25,24,141.2
2586,F2,517.25,0.25,20,141.2
2587,F1,517.5,0.25,23,141.2
2588,F2,517.75,0.25,20,141.2
2589,F#4,518.0,0.5,43,141.2
2590,F1,518.0,0.25,22,141.2
2591,C#4,518.0,1.0,30,141.2
2592,B-3,518.0,1.0,30,141.2
2593,F2,518.25,0.25,20,141.2
2594,F4,518.5,0.5,39,141.2
2595,F1,518.5,0.25,22,141.2
2596,F2,518.75,0.25,18,141.2
2597,F#4,519.0,0.5,44,141.2
2598,F1,519.0,0.25,22,141.2
2599,C#4,519.0,1.0,31,141.2
2600,B-3,519.0,1.0,31,141.2
2601,F2,519.25,0.25,19,141.2
2602,E4,519.5,0.5,39,141.2
2603,F1,519.5,0.25,22,141.2
2604,F2,519.75,0.25,19,141.2
2605,F3,520.0,1.5,81,141.2
2606,F4,520.0,1.5,81,141.2
2607,F1,520.0,1.5,61,141.2
2608,F2,520.0,1.5,61,141.2
2609,G3,521.5,0.25,73,141.2
2610,G4,521.5,0.25,73,141.2
2611,G1,521.5,0.25,54,141.2
2612,G2,521.5,0.25,54,141.2
2613,A3,522.0,1.5,82,141.2
2614,A4,522.0,1.5,82,141.2
2615,A1,522.0,1.5,61,141.2
2616,A2,522.0,1.5,61,141.2
2617,B-3,523.5,0.25,74,141.2
2618,B-4,523.5,0.25,74,141.2
2619,B-1,523.5,0.25,55,141.2
2620,B-2,523.5,0.25,55,141.2
2621,C4,524.0,1.5,84,141.2
2622,C5,524.0,1.5,84,141.2
2623,C2,524.0,1.5,62,141.2
2624,C3,524.0,1.5,62,141.2
2625,D4,525.5,0.25,68,141.2
2626,D5,525.5,0.25,68,141.2
2627,D2,525.5,0.25,52,141.2
2628,D3,525.5,0.25,52,141.2
2629,E4,526.0,0.25,78,141.2
2630,E5,526.0,0.25,78,141.2
2631,E2,526.0,0.25,58,141.2
2632,E3,526.0,0.25,58,141.2
2633,F4,526.5,0.25,74,141.2
2634,F5,526.5,0.25,74,141.2
2635,F2,526.5,0.25,55,141.2
2636,F3,526.5,0.25,55,141.2
2637,G4,527.0,0.25,80,141.2
2638,G5,527.0,0.25,80,141.2
2639,G2,527.0,0.25,60,141.2
2640,G3,527.0,0.25,60,141.2
2641,A4,527.5,0.25,76,141.2
2642,A5,527.5,0.25,76,141.2
2643,A2,527.5,0.25,56,141.2
2644,A3,527.5,0.25,56,141.2
2645,B-4,528.0,1.5,88,141.2
2646,B-5,528.0,1.5,88,141.2
2647,B-2,528.0,1.5,66,141.2
2648,B-3,528.0,1.5,66,141.2
2649,A4,529.5,0.25,78,141.2
2650,A5,529.5,0.25,78,141.2
2651,A2,529.5,0.25,58,141.2
2652,A3,529.5,0.25,58,141.2
2653,G4,530.0,1.5,86,141.2
2654,G5,530.0,1.5,86,141.2
2655,G2,530.0,1.5,64,141.2
2656,G3,530.0,1.5,64,141.2
2657,F4,531.5,0.25,76,141.2
2658,F5,531.5,0.25,76,141.2
2659,F2,531.5,0.25,56,141.2
2660,F3,531.5,0.25,56,141.2
2661,E4,532.0,1.5,85,141.2
2662,E5,532.0,1.5,85,141.2
2663,E2,532.0,1.5,64,141.2
2664,E3,532.0,1.5,64,141.2
2665,D4,533.5,0.25,68,141.2
2666,D5,533.5,0.25,68,141.2
2667,D2,533.5,0.25,52,141.2
2668,D3,533.5,0.25,52,141.2
2669,C4,534.0,0.25,76,141.2
2670,C5,534.0,0.25,76,141.2
2671,C2,534.0,0.25,57,141.2
2672,C3,534.0,0.25,57,141.2
2673,B-3,534.5,0.25,72,141.2
2674,B-4,534.5,0.25,72,141.2
2675,B-1,534.5,0.25,54,141.2
2676,B-2,534.5,0.25,54,141.2
2677,A3,535.0,0.25,76,141.2
2678,A4,535.0,0.25,76,141.2
2679,A1,535.0,0.25,57,141.2
2680,A2,535.0,0.25,57,141.2
2681,G3,535.5,0.25,70,141.2
2682,G4,535.5,0.25,70,141.2
2683,G1,535.5,0.25,52,141.2
2684,G2,535.5,0.25,52,141.2
2685,F3,536.0,0.25,84,141.2
2686,F4,536.0,0.25,84,141.2
2687,F1,536.0,0.25,64,141.2
2688,F2,536.0,0.25,64,141.2
2689,E4,537.0,0.25,53,141.2
2690,C3,537.0,0.25,36,141.2
2691,G3,537.0,0.25,36,141.2
2692,B-3,537.0,0.25,36,141.2
2693,E-4,537.25,0.25,45,141.2
2694,E4,537.5,0.25,53,141.2
2695,C4,537.75,0.25,43,141.2
2696,F4,538.0,0.25,57,141.2
2697,F3,538.0,0.25,45,141.2
2698,A3,538.0,0.25,45,141.2
2699,E5,539.0,0.25,53,141.2
2700,C4,539.0,0.25,36,141.2
2701,G4,539.0,0.25,36,141.2
2702,B-4,539.0,0.25,36,141.2
2703,E-5,539.25,0.25,45,141.2
2704,E5,539.5,0.25,53,141.2
2705,C5,539.75,0.25,43,141.2
2706,F5,540.0,0.25,57,141.2
2707,F4,540.0,0.25,45,141.2
2708,A4,540.0,0.25,45,141.2
2709,E6,542.0,1.0,80,141.2
2710,C6,542.0,1.0,80,141.2
2711,B-5,542.0,1.0,80,141.2
2712,G5,542.0,1.0,80,141.2
2713,E5,542.0,1.0,80,141.2
2714,C3,542.0,1.0,62,141.2
2715,C4,542.0,1.0,62,141.2
2716,F6,544.0,1.0,86,141.2
2717,C6,544.0,1.0,86,141.2
2718,A5,544.0,1.0,86,141.2
2719,F5,544.0,1.0,86,141.2
2720,F2,544.0,1.0,70,141.2
2721,F3,544.0,1.0,70,141.2
2722,C4,547.0,0.25,42,141.2
2723,B3,547.25,0.25,40,141.2
2724,C4,547.5,0.25,45,141.2
2725,A3,547.75,0.25,39,141.2
2726,F4,548.0,0.25,50,141.2
2727,C3,549.0,0.25,42,141.2
2728,B2,549.25,0.25,40,141.2
2729,C3,549.5,0.25,45,141.2
2730,A2,549.75,0.25,39,141.2
2731,F3,550.0,0.25,50,141.2
2732,C4,551.0,0.25,42,141.2
2733,B3,551.25,0.25,40,141.2
2734,C4,551.5,0.25,45,141.2
2735,A3,551.75,0.25,39,141.2
2736,F4,552.0,0.25,50,141.2
2737,C3,553.0,0.25,42,141.2
2738,B2,553.25,0.25,40,141.2
2739,C3,553.5,0.25,45,141.2
2740,A2,553.75,0.25,39,141.2
2741,F3,554.0,0.25,50,141.2
2742,C4,555.0,0.25,70,141.2
2743,B3,555.25,0.25,66,141.2
2744,C4,555.5,0.25,77,141.2
2745,A3,555.75,0.25,71,141.2
2746,F4,556.0,1.5,92,141.2
2747,F2,556.0,1.5,61,141.2
2748,F3,556.0,1.5,61,141.2
2749,G4,557.5,0.25,82,141.2
2750,G2,557.5,0.25,54,141.2
2751,G3,557.5,0.25,54,141.2
2752,A4,558.0,1.5,93,141.2
2753,A2,558.0,1.5,61,141.2
2754,A3,558.0,1.5,61,141.2
2755,B-4,559.5,0.25,86,141.2
2756,B-2,559.5,0.25,55,141.2
2757,B-3,559.5,0.25,55,141.2
2758,C5,560.0,1.5,97,141.2
2759,C3,560.0,1.5,62,141.2
2760,C4,560.0,1.5,62,141.2
2761,D5,561.5,0.25,82,141.2
2762,D3,561.5,0.25,52,141.2
2763,D4,561.5,0.25,52,141.2
2764,E-5,562.0,0.25,90,141.2
2765,E-3,562.0,0.25,58,141.2
2766,E-4,562.0,0.25,58,141.2
2767,D5,562.5,0.25,85,141.2
2768,D3,562.5,0.25,55,141.2
2769,D4,562.5,0.25,55,141.2
2770,C5,563.0,0.25,93,141.2
2771,C3,563.0,0.25,60,141.2
2772,C4,563.0,0.25,60,141.2
2773,D5,563.5,0.25,86,141.2
2774,D3,563.5,0.25,56,141.2
2775,D4,563.5,0.25,56,141.2
2776,E-5,564.0,1.5,97,141.2
2777,E-3,564.0,1.5,62,141.2
2778,E-4,564.0,1.5,62,141.2
2779,D5,565.5,0.25,77,141.2
2780,D3,565.5,0.25,48,141.2
2781,D4,565.5,0.25,48,141.2
2782,C5,566.0,0.25,85,141.2
2783,C3,566.0,0.25,54,141.2
2784,C4,566.0,0.25,54,141.2
2785,B-4,566.5,0.25,80,141.2
2786,B-2,566.5,0.25,52,141.2
2787,B-3,566.5,0.25,52,141.2
2788,A4,567.0,0.25,88,141.2
2789,A2,567.0,0.25,56,141.2
2790,A3,567.0,0.25,56,141.2
2791,B-4,567.5,0.25,81,141.2
2792,B-2,567.5,0.25,52,141.2
2793,B-3,567.5,0.25,52,141.2
2794,C5,568.0,1.5,92,141.2
2795,C3,568.0,1.5,59,141.2
2796,C4,568.0,1.5,59,141.2
2797,B-4,569.5,0.25,76,141.2
2798,B-2,569.5,0.25,48,141.2
2799,B-3,569.5,0.25,48,141.2
2800,A4,570.0,0.25,81,141.2
2801,A2,570.0,0.25,52,141.2
2802,A3,570.0,0.25,52,141.2
2803,G4,570.5,0.25,74,141.2
2804,G2,570.5,0.25,48,141.2
2805,G3,570.5,0.25,48,141.2
2806,F#4,571.0,0.25,79,141.2
2807,F#2,571.0,0.25,50,141.2
2808,F#3,571.0,0.25,50,141.2
2809,E4,571.5,0.25,71,141.2
2810,E2,571.5,0.25,46,141.2
2811,E3,571.5,0.25,46,141.2
2812,D4,572.0,2.0,75,141.2
2813,D2,572.0,0.25,30,141.2
2814,D3,572.25,0.25,26,141.2
2815,D2,572.5,0.25,30,141.2
2816,D3,572.75,0.25,25,141.2
2817,D2,573.0,0.25,30,141.2
2818,D3,573.25,0.25,26,141.2
2819,D2,573.5,0.25,30,141.2
2820,D3,573.75,0.25,27,141.2
2821,F#4,574.0,1.5,34,141.2
2822,D2,574.0,0.25,30,141.2
2823,A3,574.0,2.0,40,141.2
2824,C4,574.0,2.0,40,141.2
2825,D3,574.25,0.25,27,141.2
2826,D2,574.5,0.25,30,141.2
2827,D3,574.75,0.25,25,141.2
2828,D2,575.0,0.25,30,141.2
2829,D3,575.25,0.25,26,141.2
2830,D4,575.5,0.5,39,141.2
2831,D2,575.5,0.25,30,141.2
2832,D3,575.75,0.25,26,141.2
2833,G4,576.0,1.5,46,141.2
2834,D2,576.0,0.25,30,141.2
2835,G3,576.0,2.0,39,141.2
2836,B-3,576.0,2.0,39,141.2
2837,D3,576.25,0.25,26,141.2
2838,D2,576.5,0.25,30,141.2
2839,D3,576.75,0.25,25,141.2
2840,D2,577.0,0.25,30,141.2
2841,D3,577.25,0.25,26,141.2
2842,F4,577.5,0.5,40,141.2
2843,D2,577.5,0.25,30,141.2
2844,D3,577.75,0.25,27,141.2
2845,E-4,578.0,0.5,45,141.2
2846,D2,578.0,0.25,30,141.2
2847,B-3,578.0,1.0,32,141.2
2848,G3,578.0,1.0,32,141.2
2849,D3,578.25,0.25,27,141.2
2850,D4,578.5,0.5,40,141.2
2851,D2,578.5,0.25,30,141.2
2852,D3,578.75,0.25,25,141.2
2853,E-4,579.0,0.5,46,141.2
2854,D2,579.0,0.25,30,141.2
2855,B-3,579.0,1.0,33,141.2
2856,G3,579.0,1.0,33,141.2
2857,D3,579.25,0.25,26,141.2
2858,C#4,579.5,0.5,40,141.2
2859,D2,579.5,0.25,30,141.2
2860,D3,579.75,0.25,26,141.2
2861,D2,580.0,0.25,30,141.2
2862,D4,580.0,1.5,41,141.2
2863,A3,580.0,1.5,41,141.2
2864,F#3,580.0,1.5,41,141.2
2865,D3,580.25,0.25,26,141.2
2866,D2,580.5,0.25,30,141.2
2867,D3,580.75,0.25,25,141.2
2868,D2,581.0,0.25,30,141.2
2869,D3,581.25,0.25,26,141.2
2870,D2,581.5,0.25,30,141.2
2871,D3,581.75,0.25,27,141.2
2872,F#5,582.0,1.5,41,141.2
2873,D2,582.0,0.25,30,141.2
2874,A4,582.0,2.0,40,141.2
2875,C5,582.0,2.0,40,141.2
2876,D3,582.25,0.25,27,141.2
2877,D2,582.5,0.25,30,141.2
2878,D3,582.75,0.25,25,141.2
2879,D2,583.0,0.25,30,141.2
2880,D3,583.25,0.25,26,141.2
2881,D5,583.5,0.5,42,141.2
2882,D2,583.5,0.25,30,141.2
2883,D3,583.75,0.25,26,141.2
2884,G5,584.0,1.5,53,141.2
2885,D2,584.0,0.25,30,141.2
2886,G4,584.0,2.0,39,141.2
2887,B-4,584.0,2.0,39,141.2
2888,D3,584.25,0.25,26,141.2
2889,D2,584.5,0.25,30,141.2
2890,D3,584.75,0.25,25,141.2
2891,D2,585.0,0.25,30,141.2
2892,D3,585.25,0.25,26,141.2
2893,F5,585.5,0.5,44,141.2
2894,D2,585.5,0.25,30,141.2
2895,D3,585.75,0.25,27,141.2
2896,E-5,586.0,0.5,49,141.2
2897,D2,586.0,0.25,30,141.2
2898,B-4,586.0,1.0,32,141.2
2899,G4,586.0,1.0,32,141.2
2900,D3,586.25,0.25,27,141.2
2901,D5,586.5,0.5,44,141.2
2902,D2,586.5,0.25,30,141.2
2903,D3,586.75,0.25,25,141.2
2904,E-5,587.0,0.5,50,141.2
2905,D2,587.0,0.25,30,141.2
2906,B-4,587.0,1.0,33,141.2
2907,G4,587.0,1.0,33,141.2
2908,D3,587.25,0.25,26,141.2
2909,C#5,587.5,0.5,44,141.2
2910,D2,587.5,0.25,30,141.2
2911,D3,587.75,0.25,26,141.2
2912,D2,588.0,0.25,30,141.2
2913,D5,588.0,1.5,43,141.2
2914,A4,588.0,1.5,43,141.2
2915,F#4,588.0,1.5,43,141.2
2916,D3,588.25,0.25,26,141.2
2917,D2,588.5,0.25,30,141.2
2918,D3,588.75,0.25,25,141.2
2919,D2,589.0,0.25,30,141.2
2920,D3,589.25,0.25,26,141.2
2921,D2,589.5,0.25,30,141.2
2922,D3,589.75,0.25,27,141.2
2923,E5,590.0,0.5,49,141.2
2924,D2,590.0,0.25,30,141.2
2925,B-4,590.0,1.0,32,141.2
2926,G4,590.0,1.0,32,141.2
2927,D3,590.25,0.25,27,141.2
2928,D5,590.5,0.5,44,141.2
2929,D2,590.5,0.25,30,141.2
2930,D3,590.75,0.25,25,141.2
2931,E5,591.0,0.5,50,141.2
2932,D2,591.0,0.25,30,141.2
2933,B-4,591.0,1.0,33,141.2
2934,G4,591.0,1.0,33,141.2
2935,D3,591.25,0.25,26,141.2
2936,C#5,591.5,0.5,44,141.2
2937,D2,591.5,0.25,30,141.2
2938,D3,591.75,0.25,26,141.2
2939,D2,592.0,0.25,30,141.2
2940,D5,592.0,1.5,43,141.2
2941,A4,592.0,1.5,43,141.2
2942,F#4,592.0,1.5,43,141.2
2943,D3,592.25,0.25,26,141.2
2944,D2,592.5,0.25,30,141.2
2945,D3,592.75,0.25,25,141.2
2946,D2,593.0,0.25,30,141.2
2947,D3,593.25,0.25,26,141.2
2948,D2,593.5,0.25,30,141.2
2949,D3,593.75,0.25,27,141.2
2950,E-5,594.0,0.5,39,141.2
2951,D2,594.0,0.25,24,141.2
2952,B-4,594.0,1.0,25,141.2
2953,G4,594.0,1.0,25,141.2
2954,D3,594.25,0.25,21,141.2
2955,D5,594.5,0.5,35,141.2
2956,D2,594.5,0.25,24,141.2
2957,D3,594.75,0.25,20,141.2
2958,E-5,595.0,0.5,40,141.2
2959,D2,595.0,0.25,24,141.2
2960,B-4,595.0,1.0,26,141.2
2961,G4,595.0,1.0,26,141.2
2962,D3,595.25,0.25,20,141.2
2963,C#5,595.5,0.5,35,141.2
2964,D2,595.5,0.25,24,141.2
2965,D3,595.75,0.25,20,141.2
2966,D2,596.0,1.5,97,141.2
2967,D5,596.0,1.5,43,141.2
2968,A4,596.0,1.5,43,141.2
2969,F#4,596.0,1.5,43,141.2
2970,E2,597.5,0.25,70,141.2
2971,F#2,598.0,1.5,74,141.2
2972,D3,598.0,1.5,74,141.2
2973,G2,599.5,0.25,62,141.2
2974,E3,599.5,0.25,62,141.2
2975,C3,600.0,1.5,68,141.2
2976,A2,600.0,1.5,68,141.2
2977,F#3,600.0,1.5,68,141.2
2978,E-5,601.0,0.25,86,141.2
2979,D5,601.5,0.25,75,141.2
2980,D3,601.5,0.25,57,141.2
2981,B-2,601.5,0.25,57,141.2
2982,G3,601.5,0.25,57,141.2
2983,C5,602.0,0.25,84,141.2
2984,F#3,602.0,0.25,66,141.2
2985,A3,602.0,0.25,66,141.2
2986,B-4,602.5,0.25,74,141.2
2987,G3,602.5,0.25,61,141.2
2988,B-3,602.5,0.25,61,141.2
2989,A4,603.0,0.25,84,141.2
2990,A3,603.0,0.25,68,141.2
2991,C4,603.0,0.25,68,141.2
2992,G4,603.5,0.25,75,141.2
2993,B-3,603.5,0.25,61,141.2
2994,D4,603.5,0.25,61,141.2
2995,F#4,604.0,0.25,84,141.2
2996,C4,604.0,0.25,70,141.2
2997,E-4,604.0,0.25,70,141.2
2998,A5,605.0,0.25,61,141.2
2999,G#5,605.25,0.25,50,141.2
3000,A5,605.5,0.25,54,141.2
3001,F#5,605.75,0.25,50,141.2
3002,C6,606.0,0.25,61,141.2
3003,B5,606.25,0.25,50,141.2
3004,C6,606.5,0.25,54,141.2
3005,A5,606.75,0.25,50,141.2
3006,E-6,607.0,0.25,63,141.2
3007,D6,607.25,0.25,50,141.2
3008,C6,607.5,0.25,57,141.2
3009,B-5,607.75,0.25,50,141.2
3010,A5,608.0,0.25,58,141.2
3011,B-5,608.25,0.25,50,141.2
3012,C6,608.5,0.25,59,141.2
3013,B-5,608.75,0.25,49,141.2
3014,A5,609.0,0.25,58,141.2
3015,G5,609.25,0.25,50,141.2
3016,F#5,609.5,0.25,55,141.2
3017,G5,609.75,0.25,50,141.2
3018,A5,610.0,0.25,60,141.2
3019,G5,610.25,0.25,47,141.2
3020,F#5,610.5,0.25,53,141.2
3021,E-5,610.75,0.25,46,141.2
3022,D5,611.0,0.25,64,141.2
3023,C5,611.25,0.25,51,141.2
3024,B4,611.5,0.25,57,141.2
3025,C5,611.75,0.25,52,141.2
3026,B4,612.0,1.0,72,141.2
3027,G2,612.0,1.5,97,141.2
3028,A2,613.5,0.25,70,141.2
3029,B2,614.0,1.5,74,141.2
3030,G3,614.0,1.5,74,141.2
3031,C3,615.5,0.25,62,141.2
3032,A3,615.5,0.25,62,141.2
3033,F3,616.0,1.5,68,141.2
3034,D3,616.0,1.5,68,141.2
3035,B3,616.0,1.5,68,141.2
3036,G#5,617.0,0.25,81,141.2
3037,G5,617.5,0.25,75,141.2
3038,G3,617.5,0.25,57,141.2
3039,E-3,617.5,0.25,57,141.2
3040,C4,617.5,0.25,57,141.2
3041,F5,618.0,0.25,84,141.2
3042,B3,618.0,0.25,66,141.2
3043,D4,618.0,0.25,66,141.2
3044,E-5,618.5,0.25,74,141.2
3045,C4,618.5,0.25,61,141.2
3046,E-4,618.5,0.25,61,141.2
3047,D5,619.0,0.25,84,141.2
3048,D4,619.0,0.25,68,141.2
3049,F4,619.0,0.25,68,141.2
3050,C5,619.5,0.25,75,141.2
3051,E-4,619.5,0.25,61,141.2
3052,G4,619.5,0.25,61,141.2
3053,B4,620.0,0.25,84,141.2
3054,F4,620.0,0.25,70,141.2
3055,G#4,620.0,0.25,70,141.2
3056,D5,621.0,0.25,61,141.2
3057,C#5,621.25,0.25,50,141.2
3058,D5,621.5,0.25,54,141.2
3059,B4,621.75,0.25,50,141.2
3060,F5,622.0,0.25,61,141.2
3061,E5,622.25,0.25,50,141.2
3062,F5,622.5,0.25,54,141.2
3063,D5,622.75,0.25,50,141.2
3064,G#5,623.0,0.25,63,141.2
3065,G5,623.25,0.25,50,141.2
3066,F5,623.5,0.25,57,141.2
3067,E-5,623.75,0.25,50,141.2
3068,D5,624.0,0.25,58,141.2
3069,E-5,624.25,0.25,50,141.2
3070,F5,624.5,0.25,59,141.2
3071,E-5,624.75,0.25,49,141.2
3072,D5,625.0,0.25,62,141.2
3073,C5,625.25,0.25,50,141.2
3074,B4,625.5,0.25,55,141.2
3075,C5,625.75,0.25,50,141.2
3076,D5,626.0,0.25,62,141.2
3077,C5,626.25,0.25,51,141.2
3078,B4,626.5,0.25,55,141.2
3079,G#4,626.75,0.25,46,141.2
3080,G4,627.0,0.25,65,141.2
3081,F4,627.25,0.25,47,141.2
3082,E4,627.5,0.25,55,141.2
3083,F4,627.75,0.25,50,141.2
3084,E4,628.0,1.0,71,141.2
3085,C2,628.0,1.5,97,141.2
3086,D2,629.5,0.25,70,141.2
3087,E2,630.0,1.5,74,141.2
3088,C3,630.0,1.5,74,141.2
3089,F2,631.5,0.25,62,141.2
3090,D3,631.5,0.25,62,141.2
3091,B-2,632.0,1.5,68,141.2
3092,G2,632.0,1.5,68,141.2
3093,E3,632.0,1.5,68,141.2
3094,C#5,633.0,0.25,86,141.2
3095,C5,633.5,0.25,75,141.2
3096,C3,633.5,0.25,57,141.2
3097,G#2,633.5,0.25,57,141.2
3098,F3,633.5,0.25,57,141.2
3099,B-4,634.0,0.25,84,141.2
3100,E3,634.0,0.25,66,141.2
3101,G3,634.0,0.25,66,141.2
3102,G#4,634.5,0.25,74,141.2
3103,F3,634.5,0.25,61,141.2
3104,G#3,634.5,0.25,61,141.2
3105,G4,635.0,0.25,84,141.2
3106,G3,635.0,0.25,68,141.2
3107,B-3,635.0,0.25,68,141.2
3108,F4,635.5,0.25,75,141.2
3109,G#3,635.5,0.25,61,141.2
3110,C4,635.5,0.25,61,141.2
3111,E4,636.0,0.25,84,141.2
3112,B-3,636.0,0.25,70,141.2
3113,C#4,636.0,0.25,70,141.2
3114,G5,637.0,0.25,67,141.2
3115,F#5,637.25,0.25,55,141.2
3116,G5,637.5,0.25,59,141.2
3117,E5,637.75,0.25,55,141.2
3118,B-5,638.0,0.25,67,141.2
3119,A5,638.25,0.25,55,141.2
3120,B-5,638.5,0.25,59,141.2
3121,G5,638.75,0.25,55,141.2
3122,C#6,639.0,0.25,69,141.2
3123,C6,639.25,0.25,55,141.2
3124,C#6,639.5,0.25,62,141.2
3125,C6,639.75,0.25,55,141.2
3126,C#6,640.0,0.25,73,141.2
3127,B-2,640.0,4.0,76,141.2
3128,B-5,640.25,0.25,55,141.2
3129,G5,640.5,0.25,64,141.2
3130,E5,640.75,0.25,53,141.2
3131,B-5,641.0,0.25,71,141.2
3132,C#3,641.0,3.0,67,141.2
3133,G5,641.25,0.25,55,141.2
3134,E5,641.5,0.25,64,141.2
3135,C#5,641.75,0.25,55,141.2
3136,G5,642.0,0.25,71,141.2
3137,E3,642.0,2.0,67,141.2
3138,E5,642.25,0.25,51,141.2
3139,C#5,642.5,0.25,63,141.2
3140,B-4,642.75,0.25,50,141.2
3141,E5,643.0,0.25,69,141.2
3142,G3,643.0,1.0,67,141.2
3143,C#5,643.25,0.25,51,141.2
3144,B-4,643.5,0.25,60,141.2
3145,G4,643.75,0.25,50,141.2
3146,G#2,644.0,4.0,76,141.2
3147,F5,645.0,0.25,67,141.2
3148,C3,645.0,3.0,67,141.2
3149,E5,645.25,0.25,55,141.2
3150,F5,645.5,0.25,59,141.2
3151,C5,645.75,0.25,55,141.2
3152,G#5,646.0,0.25,67,141.2
3153,F3,646.0,2.0,67,141.2
3154,G5,646.25,0.25,55,141.2
3155,G#5,646.5,0.25,59,141.2
3156,F5,646.75,0.25,55,141.2
3157,C6,647.0,0.25,69,141.2
3158,G#3,647.0,1.0,67,141.2
3159,B5,647.25,0.25,55,141.2
3160,C6,647.5,0.25,62,141.2
3161,G#5,647.75,0.25,55,141.2
3162,F6,648.0,0.25,73,141.2
3163,G#2,648.0,4.0,76,141.2
3164,C6,648.25,0.25,55,141.2
3165,G#5,648.5,0.25,64,141.2
3166,F5,648.75,0.25,53,141.2
3167,C6,649.0,0.25,71,141.2
3168,C3,649.0,3.0,67,141.2
3169,G#5,649.25,0.25,55,141.2
3170,F5,649.5,0.25,64,141.2
3171,C5,649.75,0.25,55,141.2
3172,G#5,650.0,0.25,71,141.2
3173,F3,650.0,2.0,67,141.2
3174,F5,650.25,0.25,51,141.2
3175,C5,650.5,0.25,63,141.2
3176,G#4,650.75,0.25,50,141.2
3177,F5,651.0,0.25,69,141.2
3178,G#3,651.0,1.0,67,141.2
3179,C5,651.25,0.25,51,141.2
3180,G#4,651.5,0.25,60,141.2
3181,F4,651.75,0.25,50,141.2
3182,G2,652.0,4.0,76,141.2
3183,F5,653.0,0.25,67,141.2
3184,D3,653.0,3.0,67,141.2
3185,E5,653.25,0.25,55,141.2
3186,F5,653.5,0.25,59,141.2
3187,D5,653.75,0.25,55,141.2
3188,B5,654.0,0.25,67,141.2
3189,F3,654.0,2.0,67,141.2
3190,B-5,654.25,0.25,55,141.2
3191,B5,654.5,0.25,59,141.2
3192,F5,654.75,0.25,55,141.2
3193,D6,655.0,0.25,69,141.2
3194,G3,655.0,1.0,67,141.2
3195,C#6,655.25,0.25,55,141.2
3196,D6,655.5,0.25,62,141.2
3197,B5,655.75,0.25,55,141.2
3198,F6,656.0,0.25,73,141.2
3199,G2,656.0,4.0,76,141.2
3200,D6,656.25,0.25,55,141.2
3201,B5,656.5,0.25,64,141.2
3202,F5,656.75,0.25,53,141.2
3203,D6,657.0,0.25,71,141.2
3204,B2,657.0,3.0,67,141.2
3205,B5,657.25,0.25,55,141.2
3206,F5,657.5,0.25,64,141.2
3207,D5,657.75,0.25,55,141.2
3208,B5,658.0,0.25,71,141.2
3209,D3,658.0,2.0,67,141.2
3210,F5,658.25,0.25,51,141.2
3211,D5,658.5,0.25,63,141.2
3212,B4,658.75,0.25,50,141.2
3213,F5,659.0,0.25,69,141.2
3214,G3,659.0,1.0,67,141.2
3215,D5,659.25,0.25,51,141.2
3216,B4,659.5,0.25,60,141.2
3217,F4,659.75,0.25,50,141.2
3218,G2,660.0,4.0,76,141.2
3219,E-5,661.0,0.25,67,141.2
3220,C3,661.0,3.0,67,141.2
3221,D5,661.25,0.25,54,141.2
3222,E-5,661.5,0.25,58,141.2
3223,C5,661.75,0.25,54,141.2
3224,G5,662.0,0.25,66,141.2
3225,E-3,662.0,2.0,66,141.2
3226,F#5,662.25,0.25,53,141.2
3227,G5,662.5,0.25,57,141.2
3228,E-5,662.75,0.25,53,141.2
3229,C6,663.0,0.25,67,141.2
3230,G3,663.0,1.0,65,141.2
3231,B5,663.25,0.25,53,141.2
3232,C6,663.5,0.25,60,141.2
3233,G5,663.75,0.25,53,141.2
3234,E-6,664.0,0.25,70,141.2
3235,F#2,664.0,4.0,73,141.2
3236,C6,664.25,0.25,53,141.2
3237,A5,664.5,0.25,61,141.2
3238,E-5,664.75,0.25,50,141.2
3239,C6,665.0,0.25,68,141.2
3240,C3,665.0,3.0,64,141.2
3241,A5,665.25,0.25,52,141.2
3242,E-5,665.5,0.25,60,141.2
3243,C5,665.75,0.25,52,141.2
3244,A5,666.0,0.25,67,141.2
3245,E-3,666.0,2.0,63,141.2
3246,E-5,666.25,0.25,48,141.2
3247,C5,666.5,0.25,59,141.2
3248,A4,666.75,0.25,47,141.2
3249,E-5,667.0,0.25,64,141.2
3250,F#3,667.0,1.0,62,141.2
3251,C5,667.25,0.25,47,141.2
3252,A4,667.5,0.25,55,141.2
3253,E-4,667.75,0.25,46,141.2
3254,F2,668.0,4.0,70,141.2
3255,E-5,669.0,0.25,61,141.2
3256,C3,669.0,3.0,61,141.2
3257,D5,669.25,0.25,50,141.2
3258,E-5,669.5,0.25,54,141.2
3259,C5,669.75,0.25,50,141.2
3260,A5,670.0,0.25,60,141.2
3261,E-3,670.0,2.0,60,141.2
3262,G#5,670.25,0.25,50,141.2
3263,A5,670.5,0.25,53,141.2
3264,E-5,670.75,0.25,49,141.2
3265,C6,671.0,0.25,62,141.2
3266,F3,671.0,1.0,60,141.2
3267,B5,671.25,0.25,49,141.2
3268,C6,671.5,0.25,55,141.2
3269,A5,671.75,0.25,48,141.2
3270,E-6,672.0,0.25,64,141.2
3271,F2,672.0,4.0,67,141.2
3272,C6,672.25,0.25,48,141.2
3273,A5,672.5,0.25,56,141.2
3274,E-5,672.75,0.25,47,141.2
3275,C6,673.0,0.25,62,141.2
3276,A2,673.0,3.0,58,141.2
3277,A5,673.25,0.25,48,141.2
3278,E-5,673.5,0.25,56,141.2
3279,C5,673.75,0.25,48,141.2
3280,A5,674.0,0.25,61,141.2
3281,C3,674.0,2.0,58,141.2
3282,E-5,674.25,0.25,44,141.2
3283,C5,674.5,0.25,54,141.2
3284,A4,674.75,0.25,43,141.2
3285,E-5,675.0,0.25,59,141.2
3286,F3,675.0,1.0,57,141.2
3287,C5,675.25,0.25,43,141.2
3288,A4,675.5,0.25,51,141.2
3289,E-4,675.75,0.25,43,141.2
3290,F2,676.0,4.0,64,141.2
3291,C#5,677.0,0.25,56,141.2
3292,B-2,677.0,3.0,56,141.2
3293,C5,677.25,0.25,46,141.2
3294,C#5,677.5,0.25,49,141.2
3295,B-4,677.75,0.25,46,141.2
3296,F5,678.0,0.25,56,141.2
3297,C#3,678.0,2.0,56,141.2
3298,E5,678.25,0.25,45,141.2
3299,F5,678.5,0.25,48,141.2
3300,C#5,678.75,0.25,45,141.2
3301,B-5,679.0,0.25,57,141.2
3302,F3,679.0,1.0,55,141.2
3303,A5,679.25,0.25,45,141.2
3304,B-5,679.5,0.25,50,141.2
3305,F5,679.75,0.25,45,141.2
3306,C#6,680.0,0.25,59,141.2
3307,E2,680.0,4.0,62,141.2
3308,B-5,680.25,0.25,44,141.2
3309,G5,680.5,0.25,51,141.2
3310,C#5,680.75,0.25,42,141.2
3311,B-5,681.0,0.25,57,141.2
3312,B-2,681.0,3.0,54,141.2
3313,G5,681.25,0.25,44,141.2
3314,C#5,681.5,0.25,51,141.2
3315,B-4,681.75,0.25,44,141.2
3316,G5,682.0,0.25,56,141.2
3317,C#3,682.0,2.0,53,141.2
3318,C#5,682.25,0.25,40,141.2
3319,B-4,682.5,0.25,49,141.2
3320,G4,682.75,0.25,39,141.2
3321,C#5,683.0,0.25,54,141.2
3322,E3,683.0,1.0,52,141.2
3323,B-4,683.25,0.25,40,141.2
3324,G4,683.5,0.25,46,141.2
3325,C#4,683.75,0.25,39,141.2
3326,E-2,684.0,4.0,59,141.2
3327,C#5,685.0,0.25,51,141.2
3328,B-2,685.0,3.0,51,141.2
3329,C5,685.25,0.25,42,141.2
3330,C#5,685.5,0.25,45,141.2
3331,B-4,685.75,0.25,41,141.2
3332,G5,686.0,0.25,50,141.2
3333,C#3,686.0,2.0,50,141.2
3334,F#5,686.25,0.25,41,141.2
3335,G5,686.5,0.25,44,141.2
3336,C#5,686.75,0.25,41,141.2
3337,B-5,687.0,0.25,51,141.2
3338,E-3,687.0,1.0,50,141.2
3339,A5,687.25,0.25,41,141.2
3340,B-5,687.5,0.25,46,141.2
3341,G5,687.75,0.25,40,141.2
3342,C#6,688.0,0.25,54,141.2
3343,E-2,688.0,4.0,56,141.2
3344,B-5,688.25,0.25,40,141.2
3345,G5,688.5,0.25,47,141.2
3346,C#5,688.75,0.25,38,141.2
3347,B-5,689.0,0.25,51,141.2
3348,B-2,689.0,3.0,48,141.2
3349,G5,689.25,0.25,40,141.2
3350,C#5,689.5,0.25,46,141.2
3351,B-4,689.75,0.25,40,141.2
3352,G5,690.0,0.25,51,141.2
3353,C#3,690.0,2.0,48,141.2
3354,C#5,690.25,0.25,36,141.2
3355,B-4,690.5,0.25,45,141.2
3356,G4,690.75,0.25,36,141.2
3357,C#5,691.0,0.25,48,141.2
3358,E-3,691.0,1.0,47,141.2
3359,B-4,691.25,0.25,36,141.2
3360,G4,691.5,0.25,42,141.2
3361,C#4,691.75,0.25,35,141.2
3362,B-4,692.0,0.25,37,141.2
3363,E-2,692.0,1.5,49,141.2
3364,G4,692.25,0.25,28,141.2
3365,C#4,692.5,0.25,28,141.2
3366,B-3,692.75,0.25,28,141.2
3367,G4,693.0,0.25,35,141.2
3368,C#4,693.25,0.25,28,141.2
3369,B-3,693.5,0.25,28,141.2
3370,F2,693.5,0.5,44,141.2
3371,G3,693.75,0.25,28,141.2
3372,E-4,694.0,0.25,34,141.2
3373,G2,694.0,1.5,49,141.2
3374,C#4,694.25,0.25,29,141.2
3375,B-3,694.5,0.25,29,141.2
3376,G3,694.75,0.25,28,141.2
3377,E-4,695.0,0.25,34,141.2
3378,C#4,695.25,0.25,28,141.2
3379,B-3,695.5,0.25,28,141.2
3380,G#2,695.5,0.5,44,141.2
3381,G3,695.75,0.25,28,141.2
3382,E-4,696.0,0.25,37,141.2
3383,B-2,696.0,1.5,47,141.2
3384,C#4,696.25,0.25,28,141.2
3385,B-3,696.5,0.25,28,141.2
3386,G3,696.75,0.25,28,141.2
3387,E-4,697.0,0.25,35,141.2
3388,C#4,697.25,0.25,28,141.2
3389,B-3,697.5,0.25,28,141.2
3390,C3,697.5,0.5,44,141.2
3391,G3,697.75,0.25,28,141.2
3392,E-4,698.0,0.25,34,141.2
3393,C#3,698.0,0.5,46,141.2
3394,C#4,698.25,0.25,29,141.2
3395,B-3,698.5,0.25,29,141.2
3396,C3,698.5,0.5,44,141.2
3397,G3,698.75,0.25,28,141.2
3398,E-4,699.0,0.25,34,141.2
3399,B-2,699.0,0.5,46,141.2
3400,C#4,699.25,0.25,28,141.2
3401,B-3,699.5,0.25,28,141.2
3402,G#2,699.5,0.5,38,141.2
3403,G3,699.75,0.25,28,141.2
3404,E-4,700.0,0.25,37,141.2
3405,G2,700.0,1.5,47,141.2
3406,C#4,700.25,0.25,28,141.2
3407,B-3,700.5,0.25,28,141.2
3408,G3,700.75,0.25,28,141.2
3409,E-4,701.0,0.25,35,141.2
3410,C#4,701.25,0.25,28,141.2
3411,B-3,701.5,0.25,28,141.2
3412,G#2,701.5,0.5,44,141.2
3413,G3,701.75,0.25,28,141.2
3414,E-4,702.0,0.25,34,141.2
3415,B-2,702.0,0.5,46,141.2
3416,C#4,702.25,0.25,29,141.2
3417,B-3,702.5,0.25,29,141.2
3418,G#2,702.5,0.5,44,141.2
3419,G3,702.75,0.25,28,141.2
3420,E-4,703.0,0.25,34,141.2
3421,G2,703.0,0.5,46,141.2
3422,C#4,703.25,0.25,28,141.2
3423,B-3,703.5,0.25,28,141.2
3424,F2,703.5,0.5,38,141.2
3425,G3,703.75,0.25,28,141.2
3426,E-4,704.0,0.25,37,141.2
3427,E-2,704.01,1.5,47,141.2
3428,C#4,704.25,0.25,27,141.2
3429,B-3,704.5,0.25,27,141.2
3430,G3,704.75,0.25,27,141.2
3431,E-4,705.0,0.25,32,141.2
3432,C#4,705.25,0.25,25,141.2
3433,B-3,705.5,0.25,24,141.2
3434,G3,705.75,0.25,24,141.2
3435,E-4,706.0,0.25,32,141.2
3436,C#4,706.25,0.25,23,141.2
3437,B-3,706.5,0.25,23,141.2
3438,G3,706.75,0.25,21,141.2
3439,E-4,707.0,0.25,27,141.2
3440,C#4,707.25,0.25,20,141.2
3441,B-3,707.5,0.25,20,141.2
3442,G3,707.75,0.25,19,141.2
3443,E4,708.0,0.25,29,141.2
3444,C2,708.0,1.5,39,141.2
3445,C#4,708.25,0.25,22,141.2
3446,B-3,708.5,0.25,22,141.2
3447,G3,708.75,0.25,22,141.2
3448,E4,709.0,0.25,27,141.2
3449,C#4,709.25,0.25,22,141.2
3450,B-3,709.5,0.25,22,141.2
3451,D2,709.5,0.5,35,141.2
3452,G3,709.75,0.25,22,141.2
3453,E4,710.0,0.25,27,141.2
3454,E2,710.0,1.5,39,141.2
3455,C#4,710.25,0.25,23,141.2
3456,B-3,710.5,0.25,23,141.2
3457,G3,710.75,0.25,22,141.2
3458,E4,711.0,0.25,27,141.2
3459,C#4,711.25,0.25,22,141.2
3460,B-3,711.5,0.25,22,141.2
3461,F2,711.5,0.5,35,141.2
3462,G3,711.75,0.25,22,141.2
3463,E4,712.0,0.25,29,141.2
3464,G2,712.0,1.5,37,141.2
3465,C#4,712.25,0.25,22,141.2
3466,B-3,712.5,0.25,22,141.2
3467,G3,712.75,0.25,22,141.2
3468,E4,713.0,0.25,27,141.2
3469,C#4,713.25,0.25,22,141.2
3470,B-3,713.5,0.25,22,141.2
3471,G#2,713.5,0.5,35,141.2
3472,G3,713.75,0.25,22,141.2
3473,E4,714.0,0.25,27,141.2
3474,B-2,714.0,0.5,36,141.2
3475,C#4,714.25,0.25,23,141.2
3476,B-3,714.5,0.25,23,141.2
3477,G#2,714.5,0.5,35,141.2
3478,G3,714.75,0.25,22,141.2
3479,E4,715.0,0.25,27,141.2
3480,G2,715.0,0.5,36,141.2
3481,C#4,715.25,0.25,22,141.2
3482,B-3,715.5,0.25,22,141.2
3483,F2,715.5,0.5,30,141.2
3484,G3,715.75,0.25,22,141.2
3485,E4,716.0,0.25,29,141.2
3486,E2,716.0,1.5,37,141.2
3487,C#4,716.25,0.25,22,141.2
3488,B-3,716.5,0.25,22,141.2
3489,G3,716.75,0.25,22,141.2
3490,E4,717.0,0.25,27,141.2
3491,C#4,717.25,0.25,22,141.2
3492,B-3,717.5,0.25,22,141.2
3493,F2,717.5,0.5,35,141.2
3494,G3,717.75,0.25,22,141.2
3495,E4,718.0,0.25,27,141.2
3496,G2,718.0,0.5,36,141.2
3497,C#4,718.25,0.25,23,141.2
3498,B-3,718.5,0.25,23,141.2
3499,F2,718.5,0.5,35,141.2
3500,G3,718.75,0.25,22,141.2
3501,E4,719.0,0.25,27,141.2
3502,E2,719.0,0.5,36,141.2
3503,C#4,719.25,0.25,22,141.2
3504,B-3,719.5,0.25,22,141.2
3505,D2,719.5,0.5,30,141.2
3506,G3,719.75,0.25,22,141.2
3507,E4,720.0,0.25,29,141.2
3508,C2,720.0,1.5,37,141.2
3509,C#4,720.25,0.25,22,141.2
3510,B-3,720.5,0.25,22,141.2
3511,G3,720.75,0.25,22,141.2
3512,E4,721.0,0.25,27,141.2
3513,C#4,721.25,0.25,22,141.2
3514,B-3,721.5,0.25,22,141.2
3515,G3,721.75,0.25,22,141.2
3516,E4,722.0,0.25,27,141.2
3517,C#4,722.25,0.25,23,141.2
3518,B-3,722.5,0.25,23,141.2
3519,G3,722.75,0.25,22,141.2
3520,E4,723.0,0.25,27,141.2
3521,C#4,723.25,0.25,22,141.2
3522,B-3,723.5,0.25,22,141.2
3523,G3,723.75,0.25,22,141.2
3524,E-4,724.0,0.25,29,141.2
3525,F1,724.0,1.5,39,141.2
3526,C4,724.25,0.25,22,141.2
3527,A3,724.5,0.25,22,141.2
3528,F#3,724.75,0.25,22,141.2
3529,E-4,725.0,0.25,27,141.2
3530,C4,725.25,0.25,22,141.2
3531,A3,725.5,0.25,22,141.2
3532,G1,725.5,0.5,35,141.2
3533,F#3,725.75,0.25,22,141.2
3534,E-4,726.0,0.25,27,141.2
3535,A1,726.0,1.5,39,141.2
3536,C4,726.25,0.25,23,141.2
3537,A3,726.5,0.25,23,141.2
3538,F#3,726.75,0.25,22,141.2
3539,E-4,727.0,0.25,27,141.2
3540,C4,727.25,0.25,22,141.2
3541,A3,727.5,0.25,22,141.2
3542,B-1,727.5,0.5,35,141.2
3543,F#3,727.75,0.25,22,141.2
3544,E-4,728.0,0.25,29,141.2
3545,C2,728.0,1.5,37,141.2
3546,C4,728.25,0.25,22,141.2
3547,A3,728.5,0.25,22,141.2
3548,F#3,728.75,0.25,22,141.2
3549,E-4,729.0,0.25,27,141.2
3550,C4,729.25,0.25,22,141.2
3551,A3,729.5,0.25,22,141.2
3552,C#2,729.5,0.5,35,141.2
3553,F#3,729.75,0.25,22,141.2
3554,E-4,730.0,0.25,27,141.2
3555,E-2,730.0,0.5,36,141.2
3556,C4,730.25,0.25,23,141.2
3557,A3,730.5,0.25,23,141.2
3558,C#2,730.5,0.5,35,141.2
3559,F#3,730.75,0.25,22,141.2
3560,E-4,731.0,0.25,27,141.2
3561,C2,731.0,0.5,36,141.2
3562,C4,731.25,0.25,22,141.2
3563,A3,731.5,0.25,22,141.2
3564,B-1,731.5,0.5,30,141.2
3565,F#3,731.75,0.25,22,141.2
3566,E-4,732.0,0.25,29,141.2
3567,A1,732.0,1.5,37,141.2
3568,C4,732.25,0.25,22,141.2
3569,A3,732.5,0.25,22,141.2
3570,F#3,732.75,0.25,22,141.2
3571,E-4,733.0,0.25,27,141.2
3572,C4,733.25,0.25,22,141.2
3573,A3,733.5,0.25,22,141.2
3574,B-1,733.5,0.5,35,141.2
3575,F#3,733.75,0.25,22,141.2
3576,E-4,734.0,0.25,27,141.2
3577,C2,734.0,0.5,36,141.2
3578,C4,734.25,0.25,23,141.2
3579,A3,734.5,0.25,23,141.2
3580,B-1,734.5,0.5,35,141.2
3581,F#3,734.75,0.25,22,141.2
3582,E-4,735.0,0.25,27,141.2
3583,A1,735.0,0.5,36,141.2
3584,C4,735.25,0.25,22,141.2
3585,A3,735.5,0.25,22,141.2
3586,G1,735.5,0.5,30,141.2
3587,F#3,735.75,0.25,22,141.2
3588,E-4,736.0,0.25,29,141.2
3589,F1,736.0,6.0,37,141.2
3590,C4,736.25,0.25,22,141.2
3591,A3,736.5,0.25,22,141.2
3592,F#3,736.75,0.25,22,141.2
3593,E-4,737.0,0.25,27,141.2
3594,C4,737.25,0.25,22,141.2
3595,A3,737.5,0.25,22,141.2
3596,F#3,737.75,0.25,22,141.2
3597,E-4,738.0,0.25,27,141.2
3598,C4,738.25,0.25,23,141.2
3599,A3,738.5,0.25,23,141.2
3600,F3,738.75,0.25,22,141.2
3601,E-4,739.0,0.25,27,141.2
3602,C4,739.25,0.25,22,141.2
3603,A3,739.5,0.25,22,141.2
3604,F3,739.75,0.25,22,141.2
3605,E-4,740.0,0.25,29,141.2
3606,C4,740.25,0.25,22,141.2
3607,A3,740.5,0.25,22,141.2
3608,F3,740.75,0.25,22,141.2
3609,E-4,741.0,0.25,27,141.2
3610,C4,741.25,0.25,22,141.2
3611,A3,741.5,0.25,22,141.2
3612,F3,741.75,0.25,22,141.2
3613,E-4,742.0,0.25,27,141.2
3614,C2,742.0,0.5,36,141.2
3615,C4,742.25,0.25,23,141.2
3616,A3,742.5,0.25,23,141.2
3617,B-1,742.5,0.5,35,141.2
3618,F3,742.75,0.25,22,141.2
3619,E-4,743.0,0.25,27,141.2
3620,A1,743.0,0.5,36,141.2
3621,C4,743.25,0.25,22,141.2
3622,A3,743.5,0.25,22,141.2
3623,G1,743.5,0.5,30,141.2
3624,F3,743.75,0.25,22,141.2
3625,E-4,744.0,0.25,29,141.2
3626,F1,744.0,6.0,37,141.2
3627,C4,744.25,0.25,22,141.2
3628,A3,744.5,0.25,22,141.2
3629,F3,744.75,0.25,22,141.2
3630,E-4,745.0,0.25,27,141.2
3631,C4,745.25,0.25,22,141.2
3632,A3,745.5,0.25,22,141.2
3633,F3,745.75,0.25,22,141.2
3634,E-4,746.0,0.25,27,141.2
3635,C4,746.25,0.25,23,141.2
3636,A3,746.5,0.25,23,141.2
3637,F3,746.75,0.25,22,141.2
3638,E-4,747.0,0.25,27,141.2
3639,C4,747.25,0.25,22,141.2
3640,A3,747.5,0.25,22,141.2
3641,F3,747.75,0.25,22,141.2
3642,E-4,748.0,0.25,29,141.2
3643,C4,748.25,0.25,22,141.2
3644,A3,748.5,0.25,22,141.2
3645,F3,748.75,0.25,22,141.2
3646,E-4,749.0,0.25,28,141.2
3647,C4,749.25,0.25,23,141.2
3648,A3,749.5,0.25,23,141.2
3649,F3,749.75,0.25,23,141.2
3650,E-4,750.0,0.25,28,141.2
3651,C2,750.0,0.5,41,141.2
3652,C4,750.25,0.25,24,141.2
3653,A3,750.5,0.25,24,141.2
3654,B-1,750.5,0.5,40,141.2
3655,F3,750.75,0.25,24,141.2
3656,E-4,751.0,0.25,29,141.2
3657,A1,751.0,0.5,41,141.2
3658,C4,751.25,0.25,24,141.2
3659,A3,751.5,0.25,24,141.2
3660,G1,751.5,0.5,34,141.2
3661,F3,751.75,0.25,24,141.2
3662,E-4,752.0,0.25,33,141.2
3663,F1,752.0,2.0,42,141.2
3664,C4,752.25,0.25,25,141.2
3665,A3,752.5,0.25,25,141.2
3666,F3,752.75,0.25,25,141.2
3667,E-4,753.0,0.25,32,141.2
3668,C4,753.25,0.25,26,141.2
3669,A3,753.5,0.25,26,141.2
3670,F3,753.75,0.25,26,141.2
3671,E-4,754.0,0.25,32,141.2
3672,C2,754.0,0.5,43,141.2
3673,C4,754.25,0.25,28,141.2
3674,A3,754.5,0.25,28,141.2
3675,B-1,754.5,0.5,43,141.2
3676,F3,754.75,0.25,27,141.2
3677,E-4,755.0,0.25,33,141.2
3678,A1,755.0,0.5,46,141.2
3679,C4,755.25,0.25,28,141.2
3680,A3,755.5,0.25,28,141.2
3681,G1,755.5,0.5,39,141.2
3682,F3,755.75,0.25,28,141.2
3683,E-4,756.0,0.25,38,141.2
3684,F1,756.0,2.0,48,141.2
3685,C4,756.25,0.25,29,141.2
3686,A3,756.5,0.25,29,141.2
3687,F3,756.75,0.25,29,141.2
3688,E-4,757.0,0.25,37,141.2
3689,C4,757.25,0.25,30,141.2
3690,A3,757.5,0.25,30,141.2
3691,F3,757.75,0.25,30,141.2
3692,E-4,758.0,0.25,37,141.2
3693,C2,758.0,0.5,51,141.2
3694,C4,758.25,0.25,32,141.2
3695,A3,758.5,0.25,33,141.2
3696,B-1,758.5,0.5,50,141.2
3697,F3,758.75,0.25,32,141.2
3698,E-4,759.0,0.25,38,141.2
3699,A1,759.0,0.5,52,141.2
3700,C4,759.25,0.25,32,141.2
3701,A3,759.5,0.25,33,141.2
3702,G1,759.5,0.5,44,141.2
3703,F3,759.75,0.25,33,141.2
3704,E-4,760.0,0.25,44,141.2
3705,F1,760.0,1.5,56,141.2
3706,C4,760.25,0.25,33,141.2
3707,A3,760.5,0.25,34,141.2
3708,F3,760.75,0.25,34,141.2
3709,E-4,761.0,0.25,43,141.2
3710,C4,761.25,0.25,36,141.2
3711,A3,761.5,0.25,39,141.2
3712,G1,761.5,0.5,54,141.2
3713,F3,761.75,0.25,41,141.2
3714,E-4,762.0,0.25,53,141.2
3715,A1,762.0,0.5,59,141.2
3716,C4,762.25,0.25,43,141.2
3717,A3,762.5,0.25,44,141.2
3718,B-1,762.5,0.5,54,141.2
3719,F3,762.75,0.25,44,141.2
3720,E-4,763.0,0.25,55,141.2
3721,C2,763.0,0.5,62,141.2
3722,C4,763.25,0.25,45,141.2
3723,A3,763.5,0.25,45,141.2
3724,D2,763.5,0.5,54,141.2
3725,F3,763.75,0.25,45,141.2
3726,E-4,764.0,0.25,56,141.2
3727,E-2,764.0,0.5,59,141.2
3728,C4,764.25,0.25,46,141.2
3729,A3,764.5,0.25,46,141.2
3730,E2,764.5,0.5,54,141.2
3731,F3,764.75,0.25,46,141.2
3732,E-4,765.0,0.25,57,141.2
3733,F2,765.0,0.5,64,141.2
3734,C4,765.25,0.25,47,141.2
3735,A3,765.5,0.25,47,141.2
3736,G2,765.5,0.5,57,141.2
3737,F3,765.75,0.25,47,141.2
3738,E-4,766.0,0.25,59,141.2
3739,A2,766.0,0.5,59,141.2
3740,C4,766.25,0.25,48,141.2
3741,A3,766.5,0.25,48,141.2
3742,B-2,766.5,0.5,55,141.2
3743,F3,766.75,0.25,49,141.2
3744,E-4,767.0,0.25,60,141.2
3745,C3,767.0,0.5,66,141.2
3746,C4,767.25,0.25,49,141.2
3747,A3,767.5,0.25,49,141.2
3748,D3,767.5,0.5,60,141.2
3749,F3,767.75,0.25,50,141.2
3750,E-3,768.0,4.0,63,141.2
3751,F2,768.0,4.0,63,141.2
3752,E3,768.5,0.525,54,141.2
3753,F3,769.0,0.525,44,141.2
3754,G3,769.5,0.525,44,141.2
3755,A3,770.0,0.525,53,141.2
3756,B-3,770.5,0.525,40,141.2
3757,C4,771.0,0.525,40,141.2
3758,D4,771.5,0.525,40,141.2
3759,E-4,772.0,0.525,52,141.2
3760,F2,772.0,2.0,50,141.2
3761,C3,772.0,2.0,50,141.2
3762,E4,772.5,0.525,45,141.2
3763,F4,773.0,0.525,43,141.2
3764,G4,773.5,0.525,41,141.2
3765,A4,774.0,0.525,45,141.2
3766,F2,774.0,2.0,42,141.2
3767,B-2,774.0,2.0,42,141.2
3768,B-4,774.5,0.525,41,141.2
3769,C5,775.0,0.525,38,141.2
3770,D5,775.5,0.525,38,141.2
3771,E-4,776.0,6.5,40,141.2
3772,C5,776.0,6.5,40,141.2
3773,E-5,776.0,6.5,40,141.2
3774,F2,776.0,6.5,22,141.2
3775,A2,776.0,6.5,22,141.2
3776,F3,776.0,6.5,22,141.2
3777,B-3,783.0,0.25,42,141.2
3778,D4,783.0,1.0,50,141.2
3779,A3,783.25,0.25,40,141.2
3780,B-3,783.5,0.25,45,141.2
3781,F3,783.75,0.25,39,141.2
3782,D4,784.0,0.188,38,141.2
3783,F4,784.0,0.188,38,141.2
3784,B-1,784.0,0.188,33,141.2
3785,B-2,784.0,0.188,33,141.2
3786,B-3,785.0,0.188,35,141.2
3787,D4,785.0,0.188,35,141.2
3788,B-1,785.0,0.188,30,141.2
3789,B-2,785.0,0.188,30,141.2
3790,B-3,787.0,0.25,42,141.2
3791,D4,787.0,1.0,50,141.2
3792,A3,787.25,0.25,40,141.2
3793,B-3,787.5,0.25,45,141.2
3794,F3,787.75,0.25,39,141.2
3795,D4,788.0,0.188,38,141.2
3796,F4,788.0,0.188,38,141.2
3797,B-1,788.0,0.188,33,141.2
3798,B-2,788.0,0.188,33,141.2
3799,B-3,789.0,0.188,35,141.2
3800,D4,789.0,0.188,35,141.2
3801,B-1,789.0,0.188,30,141.2
3802,B-2,789.0,0.188,30,141.2
3803,D4,791.0,0.5,50,141.2
3804,B-3,791.0,0.275,42,141.2
3805,A3,791.25,0.275,40,141.2
3806,B-3,791.5,0.275,46,141.2
3807,F3,791.75,0.25,40,141.2
3808,F4,792.0,0.5,53,141.2
3809,D4,792.0,0.275,44,141.2
3810,C#4,792.25,0.275,42,141.2
3811,D4,792.5,0.275,49,141.2
3812,B-3,792.75,0.25,42,141.2
3813,F4,793.0,0.275,47,141.2
3814,B-4,793.0,0.5,56,141.2
3815,E4,793.25,0.275,45,141.2
3816,F4,793.5,0.275,51,141.2
3817,D4,793.75,0.25,45,141.2
3818,B-4,794.0,0.275,49,141.2
3819,D5,794.0,0.5,59,141.2
3820,A4,794.25,0.275,47,141.2
3821,B-4,794.5,0.275,54,141.2
3822,F4,794.75,0.25,47,141.2
3823,D5,795.0,0.275,52,141.2
3824,F5,795.0,0.5,62,141.2
3825,C#5,795.25,0.275,50,141.2
3826,D5,795.5,0.275,57,141.2
3827,B-4,795.75,0.25,49,141.2
3828,B-5,796.0,3.0,72,141.2
3829,B-2,796.0,0.25,44,141.2
3830,D3,796.25,0.25,31,141.2
3831,F3,796.5,0.25,31,141.2
3832,B-3,796.75,0.25,31,141.2
3833,B-2,797.0,0.25,44,141.2
3834,D3,797.25,0.25,32,141.2
3835,F3,797.5,0.25,32,141.2
3836,B-3,797.75,0.25,32,141.2
3837,B-2,798.0,0.25,44,141.2
3838,D3,798.25,0.25,33,141.2
3839,F3,798.5,0.25,33,141.2
3840,B-3,798.75,0.25,33,141.2
3841,A5,799.0,0.25,60,141.2
3842,B-2,799.0,0.25,44,141.2
3843,B-5,799.25,0.25,57,141.2
3844,D3,799.25,0.25,33,141.2
3845,C6,799.5,0.25,60,141.2
3846,F3,799.5,0.25,33,141.2
3847,B-5,799.75,0.25,54,141.2
3848,B-3,799.75,0.25,33,141.2
3849,A5,800.0,0.5,60,141.2
3850,B-2,800.0,0.25,44,141.2
3851,E-3,800.25,0.25,31,141.2
3852,G5,800.5,0.5,51,141.2
3853,G3,800.5,0.25,31,141.2
3854,B-3,800.75,0.25,31,141.2
3855,F5,801.0,0.5,54,141.2
3856,B-2,801.0,0.25,42,141.2
3857,E-3,801.25,0.25,28,141.2
3858,E-5,801.5,0.5,50,141.2
3859,G3,801.5,0.25,28,141.2
3860,B-3,801.75,0.25,28,141.2
3861,D5,802.0,0.5,59,141.2
3862,B-2,802.0,0.25,41,141.2
3863,E-3,802.25,0.25,29,141.2
3864,C5,802.5,0.5,48,141.2
3865,F3,802.5,0.25,29,141.2
3866,A3,802.75,0.25,29,141.2
3867,G5,803.0,0.5,56,141.2
3868,B-2,803.0,0.25,41,141.2
3869,E-3,803.25,0.25,31,141.2
3870,F5,803.5,0.5,47,141.2
3871,F3,803.5,0.25,31,141.2
3872,A3,803.75,0.25,31,141.2
3873,E-5,804.0,1.0,54,141.2
3874,B-2,804.0,0.25,44,141.2
3875,D3,804.25,0.25,31,141.2
3876,F3,804.5,0.25,31,141.2
3877,B-3,804.75,0.25,31,141.2
3878,D5,805.0,1.0,47,141.2
3879,B-2,805.0,0.25,44,141.2
3880,D3,805.25,0.25,32,141.2
3881,F3,805.5,0.25,32,141.2
3882,B-3,805.75,0.25,32,141.2
3883,B-2,806.0,0.25,44,141.2
3884,D3,806.25,0.25,32,141.2
3885,F3,806.5,0.25,32,141.2
3886,G#3,806.75,0.25,32,141.2
3887,A4,807.0,0.25,58,141.2
3888,B-2,807.0,0.25,44,141.2
3889,B-4,807.25,0.25,54,141.2
3890,D3,807.25,0.25,32,141.2
3891,C5,807.5,0.25,58,141.2
3892,F3,807.5,0.25,32,141.2
3893,B-4,807.75,0.25,54,141.2
3894,G#3,807.75,0.25,32,141.2
3895,G#4,808.0,0.5,60,141.2
3896,B-2,808.0,0.25,44,141.2
3897,E-3,808.25,0.25,32,141.2
3898,G4,808.5,0.5,54,141.2
3899,G3,808.5,0.25,32,141.2
3900,E-3,808.75,0.25,32,141.2
3901,F4,809.0,0.5,66,141.2
3902,B-2,809.0,0.25,44,141.2
3903,E-3,809.25,0.25,36,141.2
3904,E-4,809.5,0.5,61,141.2
3905,G3,809.5,0.25,36,141.2
3906,E-3,809.75,0.25,36,141.2
3907,D4,810.0,0.5,69,141.2
3908,B-2,810.0,0.25,48,141.2
3909,C3,810.25,0.25,37,141.2
3910,C4,810.5,0.5,62,141.2
3911,E-3,810.5,0.25,38,141.2
3912,F3,810.75,0.25,40,141.2
3913,E-4,811.0,0.5,73,141.2
3914,B-2,811.0,0.25,50,141.2
3915,C3,811.25,0.25,40,141.2
3916,A3,811.5,0.5,63,141.2
3917,E-3,811.5,0.25,39,141.2
3918,F3,811.75,0.25,43,141.2
3919,B-3,812.0,0.25,79,141.2
3920,B-2,812.0,0.25,60,141.2
3921,D4,812.5,0.25,68,141.2
3922,C4,812.75,0.25,65,141.2
3923,B-3,813.0,0.25,71,141.2
3924,B-2,813.0,0.25,53,141.2
3925,A3,813.25,0.25,65,141.2
3926,A2,813.25,0.25,46,141.2
3927,B-3,813.5,0.25,71,141.2
3928,B-2,813.5,0.25,53,141.2
3929,G3,813.75,0.25,65,141.2
3930,G2,813.75,0.25,46,141.2
3931,F3,814.0,0.25,79,141.2
3932,F2,814.0,0.25,60,141.2
3933,G4,814.5,0.25,68,141.2
3934,F4,814.75,0.25,65,141.2
3935,E-4,815.0,0.25,71,141.2
3936,E-3,815.0,0.25,53,141.2
3937,D4,815.25,0.25,65,141.2
3938,D3,815.25,0.25,46,141.2
3939,E-4,815.5,0.25,71,141.2
3940,E-3,815.5,0.25,53,141.2
3941,C4,815.75,0.25,65,141.2
3942,C3,815.75,0.25,46,141.2
3943,B-3,816.0,0.25,79,141.2
3944,B-2,816.0,0.25,60,141.2
3945,D5,816.5,0.25,68,141.2
3946,C5,816.75,0.25,65,141.2
3947,B-4,817.0,0.25,71,141.2
3948,B-3,817.0,0.25,53,141.2
3949,A4,817.25,0.25,65,141.2
3950,A3,817.25,0.25,46,141.2
3951,B-4,817.5,0.25,71,141.2
3952,B-3,817.5,0.25,53,141.2
3953,G4,817.75,0.25,65,141.2
3954,G3,817.75,0.25,46,141.2
3955,F4,818.0,0.25,79,141.2
3956,F3,818.0,0.25,60,141.2
3957,G5,818.5,0.25,78,141.2
3958,F5,818.75,0.25,74,141.2
3959,E-5,819.0,0.25,81,141.2
3960,E-4,819.0,0.25,60,141.2
3961,D5,819.25,0.25,74,141.2
3962,D4,819.25,0.25,52,141.2
3963,E-5,819.5,0.25,81,141.2
3964,E-4,819.5,0.25,60,141.2
3965,C5,819.75,0.25,74,141.2
3966,C4,819.75,0.25,52,141.2
3967,B-4,820.0,0.25,90,141.2
3968,B-3,820.0,0.25,69,141.2
3969,C5,820.5,0.25,68,141.2
3970,C4,820.5,0.25,53,141.2
3971,D5,820.75,0.25,68,141.2
3972,D4,820.75,0.25,48,141.2
3973,E-5,821.0,0.25,77,141.2
3974,E-4,821.0,0.25,54,141.2
3975,F5,821.25,0.25,70,141.2
3976,F4,821.25,0.25,48,141.2
3977,G5,821.5,0.25,70,141.2
3978,G4,821.5,0.25,48,141.2
3979,A5,821.75,0.25,71,141.2
3980,A4,821.75,0.25,49,141.2
3981,B-4,822.0,0.25,56,141.2
3982,B-5,822.0,1.0,69,141.2
3983,C6,822.0,1.0,69,141.2
3984,B-5,822.125,0.125,81,141.2
3985,A5,822.25,0.25,72,141.2
3986,A4,822.25,0.25,50,141.2
3987,B-5,822.5,0.25,73,141.2
3988,B-4,822.5,0.25,50,141.2
3989,C6,822.75,0.25,74,141.2
3990,C5,822.75,0.25,51,141.2
3991,D5,823.0,0.25,58,141.2
3992,D6,823.0,1.0,70,141.2
3993,E-6,823.0,1.0,70,141.2
3994,D6,823.125,0.25,83,141.2
3995,C6,823.25,0.25,75,141.2
3996,C5,823.25,0.25,52,141.2
3997,D6,823.5,0.25,76,141.2
3998,D5,823.5,0.25,52,141.2
3999,E6,823.75,0.25,76,141.2
4000,E5,823.75,0.25,53,141.2
4001,F6,824.0,0.25,94,141.2
4002,F5,824.0,0.25,73,141.2
4003,F4,825.0,0.25,79,141.2
4004,F3,825.0,0.25,60,141.2
4005,B-2,827.0,0.25,54,141.2
4006,D3,827.0,1.0,65,141.2
4007,A2,827.25,0.25,52,141.2
4008,B-2,827.5,0.25,58,141.2
4009,F2,827.75,0.25,50,141.2
4010,D3,828.0,0.25,65,141.2
4011,F3,828.0,0.25,65,141.2
4012,D4,829.0,0.25,54,141.2
4013,F4,829.0,1.0,65,141.2
4014,B-2,829.0,0.25,58,141.2
4015,D3,829.0,0.25,58,141.2
4016,C#4,829.25,0.25,52,141.2
4017,D4,829.5,0.25,58,141.2
4018,B-3,829.75,0.25,50,141.2
4019,F4,830.0,0.25,65,141.2
4020,D5,830.0,0.25,65,141.2
4021,B-2,831.0,0.25,54,141.2
4022,D3,831.0,1.0,65,141.2
4023,D4,831.0,0.25,58,141.2
4024,B-4,831.0,0.25,58,141.2
4025,A2,831.25,0.25,52,141.2
4026,B-2,831.5,0.25,58,141.2
4027,F2,831.75,0.25,50,141.2
4028,D3,832.0,0.25,65,141.2
4029,F3,832.0,0.25,65,141.2
4030,D4,833.0,0.25,54,141.2
4031,F4,833.0,1.0,65,141.2
4032,B-2,833.0,0.25,58,141.2
4033,D3,833.0,0.25,58,141.2
4034,C#4,833.25,0.25,52,141.2
4035,D4,833.5,0.25,58,141.2
4036,B-3,833.75,0.25,50,141.2
4037,F4,834.0,0.25,65,141.2
4038,D5,834.0,0.25,65,141.2
4039,D3,835.0,0.25,65,141.2
4040,D4,835.0,0.25,58,141.2
4041,B-4,835.0,0.25,58,141.2
4042,C#3,835.25,0.25,57,141.2
4043,D3,835.5,0.25,62,141.2
4044,B-2,835.75,0.25,55,141.2
4045,F3,836.0,0.25,65,141.2
4046,E3,836.25,0.25,58,141.2
4047,F3,836.5,0.25,63,141.2
4048,D3,836.75,0.25,57,141.2
4049,B-3,837.0,0.25,65,141.2
4050,A3,837.25,0.25,58,141.2
4051,B-3,837.5,0.25,63,141.2
4052,F3,837.75,0.25,57,141.2
4053,D4,838.0,0.25,65,141.2
4054,C#4,838.25,0.25,58,141.2
4055,D4,838.5,0.25,63,141.2
4056,B-3,838.75,0.25,57,141.2
4057,F4,839.0,0.25,63,141.2
4058,E4,839.25,0.25,58,141.2
4059,F4,839.5,0.25,62,141.2
4060,D4,839.75,0.25,57,141.2
4061,G#4,840.0,1.75,75,141.2
4062,G4,841.75,0.25,63,141.2
4063,G#5,842.0,4.0,75,141.2
4064,F4,842.0,0.75,71,141.2
4065,E-4,842.75,0.25,63,141.2
4066,D4,843.0,0.75,72,141.2
4067,C4,843.75,0.25,63,141.2
4068,D5,844.0,2.0,56,141.2
4069,B3,844.0,2.0,72,141.2
4070,G5,845.0,2.0,53,141.2
4071,E-5,846.0,1.0,44,141.2
4072,C4,846.0,1.0,48,141.2
4073,C5,847.0,1.0,41,141.2
4074,F5,847.0,2.0,49,141.2
4075,A3,847.0,1.0,42,141.2
4076,D5,848.0,1.0,55,141.2
4077,B-3,848.0,1.0,51,141.2
4078,B4,849.0,1.0,41,141.2
4079,E-5,849.0,2.0,49,141.2
4080,G3,849.0,1.0,44,141.2
4081,C5,850.0,1.0,55,141.2
4082,G#3,850.0,1.0,52,141.2
4083,A4,851.0,1.0,42,141.2
4084,D5,851.0,2.0,50,141.2
4085,F#3,851.0,1.0,34,141.2
4086,B-4,852.0,1.0,55,141.2
4087,G3,852.0,1.0,51,141.2
4088,G4,853.0,1.0,41,141.2
4089,C5,853.0,2.0,49,141.2
4090,E3,853.0,1.0,44,141.2
4091,G#4,854.0,1.0,55,141.2
4092,F3,854.0,1.0,52,141.2
4093,F4,855.0,1.0,42,141.2
4094,B-4,855.0,2.0,50,141.2
4095,D3,855.0,1.0,34,141.2
4096,G4,856.0,1.0,55,141.2
4097,E-3,856.0,1.0,51,141.2
4098,C3,857.0,1.0,44,141.2
4099,E-4,857.0,1.0,45,141.2
4100,A4,857.0,1.0,45,141.2
4101,D3,858.0,1.0,52,141.2
4102,B-4,858.0,1.0,52,141.2
4103,D4,858.0,1.0,52,141.2
4104,E3,859.0,1.0,34,141.2
4105,B-3,859.0,1.0,42,141.2
4106,D4,859.0,1.0,42,141.2
4107,F2,860.0,0.5,51,141.2
4108,A3,860.0,0.5,64,141.2
4109,C4,860.0,0.5,64,141.2
4110,F4,860.5,0.25,62,141.2
4111,F3,860.5,0.285,42,141.2
4112,A3,860.75,0.25,36,141.2
4113,C4,860.75,0.25,36,141.2
4114,F4,861.0,0.25,64,141.2
4115,F3,861.0,0.285,42,141.2
4116,A3,861.25,0.25,38,141.2
4117,C4,861.25,0.25,38,141.2
4118,G4,861.5,0.25,68,141.2
4119,F3,861.5,0.285,42,141.2
4120,A3,861.75,0.25,37,141.2
4121,C4,861.75,0.25,37,141.2
4122,A4,862.0,0.25,62,141.2
4123,F3,862.0,0.285,51,141.2
4124,C4,862.25,0.25,42,141.2
4125,E-4,862.25,0.25,42,141.2
4126,F4,862.5,0.25,68,141.2
4127,F3,862.5,0.285,43,141.2
4128,C4,862.75,0.25,42,141.2
4129,E-4,862.75,0.25,42,141.2
4130,G4,863.0,0.25,68,141.2
4131,F3,863.0,0.285,43,141.2
4132,C4,863.25,0.25,42,141.2
4133,E-4,863.25,0.25,42,141.2
4134,A4,863.5,0.25,70,141.2
4135,F3,863.5,0.285,43,141.2
4136,C4,863.75,0.25,42,141.2
4137,E-4,863.75,0.25,42,141.2
4138,B-4,864.0,0.25,68,141.2
4139,F3,864.0,0.285,51,141.2
4140,B-3,864.25,0.25,37,141.2
4141,C#4,864.25,0.25,37,141.2
4142,B-4,864.5,0.25,62,141.2
4143,F3,864.5,0.285,42,141.2
4144,B-3,864.75,0.25,36,141.2
4145,C#4,864.75,0.25,36,141.2
4146,B-4,865.0,0.25,64,141.2
4147,F3,865.0,0.285,42,141.2
4148,B-3,865.25,0.25,38,141.2
4149,C#4,865.25,0.25,38,141.2
4150,G#4,865.5,0.25,68,141.2
4151,F3,865.5,0.285,42,141.2
4152,B-3,865.75,0.25,37,141.2
4153,C#4,865.75,0.25,37,141.2
4154,G4,866.0,0.25,62,141.2
4155,F3,866.0,0.285,51,141.2
4156,B-3,866.25,0.25,42,141.2
4157,C#4,866.25,0.25,42,141.2
4158,F4,866.5,0.25,68,141.2
4159,F3,866.5,0.285,43,141.2
4160,B-3,866.75,0.25,42,141.2
4161,C#4,866.75,0.25,42,141.2
4162,E4,867.0,0.25,68,141.2
4163,F3,867.0,0.285,43,141.2
4164,B-3,867.25,0.25,42,141.2
4165,C#4,867.25,0.25,42,141.2
4166,G4,867.5,0.25,70,141.2
4167,F3,867.5,0.3,43,141.2
4168,B-3,867.75,0.25,42,141.2
4169,C#4,867.75,0.25,42,141.2
4170,C4,868.0,0.5,63,141.2
4171,A3,868.0,0.5,63,141.2
4172,F4,868.0,0.5,63,141.2
4173,F2,868.0,0.5,48,141.2
4174,F3,868.0,0.5,48,141.2
4175,F5,868.5,0.25,62,141.2
4176,F4,868.5,0.285,42,141.2
4177,A4,868.75,0.25,36,141.2
4178,C5,868.75,0.25,36,141.2
4179,F5,869.0,0.25,64,141.2
4180,F4,869.0,0.285,42,141.2
4181,A4,869.25,0.25,38,141.2
4182,C5,869.25,0.25,38,141.2
4183,G5,869.5,0.25,68,141.2
4184,F4,869.5,0.285,42,141.2
4185,A4,869.75,0.25,37,141.2
4186,C5,869.75,0.25,37,141.2
4187,A5,870.0,0.25,62,141.2
4188,F4,870.0,0.285,51,141.2
4189,C5,870.25,0.25,42,141.2
4190,E-5,870.25,0.25,42,141.2
4191,F5,870.5,0.25,68,141.2
4192,F4,870.5,0.285,43,141.2
4193,C5,870.75,0.25,42,141.2
4194,E-5,870.75,0.25,42,141.2
4195,G5,871.0,0.25,68,141.2
4196,F4,871.0,0.285,43,141.2
4197,C5,871.25,0.25,42,141.2
4198,E-5,871.25,0.25,42,141.2
4199,A5,871.5,0.25,70,141.2
4200,F4,871.5,0.285,43,141.2
4201,C5,871.75,0.25,42,141.2
4202,E-5,871.75,0.25,42,141.2
4203,B-5,872.0,0.25,68,141.2
4204,F4,872.0,0.285,51,141.2
4205,B-4,872.25,0.25,37,141.2
4206,C#5,872.25,0.25,37,141.2
4207,B-5,872.5,0.25,62,141.2
4208,F4,872.5,0.285,42,141.2
4209,B-4,872.75,0.25,36,141.2
4210,C#5,872.75,0.25,36,141.2
4211,B-5,873.0,0.25,64,141.2
4212,F4,873.0,0.285,42,141.2
4213,B-4,873.25,0.25,38,141.2
4214,C#5,873.25,0.25,38,141.2
4215,G#5,873.5,0.25,68,141.2
4216,F4,873.5,0.285,42,141.2
4217,B-4,873.75,0.25,37,141.2
4218,C#5,873.75,0.25,37,141.2
4219,G5,874.0,0.25,62,141.2
4220,F4,874.0,0.285,51,141.2
4221,B-4,874.25,0.25,42,141.2
4222,C#5,874.25,0.25,42,141.2
4223,F5,874.5,0.25,68,141.2
4224,F4,874.5,0.285,43,141.2
4225,B-4,874.75,0.25,42,141.2
4226,C#5,874.75,0.25,42,141.2
4227,E5,875.0,0.25,68,141.2
4228,F4,875.0,0.285,43,141.2
4229,B-4,875.25,0.25,42,141.2
4230,C#5,875.25,0.25,42,141.2
4231,G5,875.5,0.25,70,141.2
4232,F4,875.5,0.3,43,141.2
4233,B-4,875.75,0.25,42,141.2
4234,C#5,875.75,0.25,42,141.2
4235,F5,876.0,0.25,78,141.2
4236,F3,876.0,0.475,51,141.2
4237,A4,876.25,0.25,42,141.2
4238,C5,876.25,0.25,42,141.2
4239,F5,876.5,0.25,68,141.2
4240,F4,876.5,0.285,43,141.2
4241,A4,876.75,0.25,42,141.2
4242,C5,876.75,0.25,42,141.2
4243,E5,877.0,0.25,68,141.2
4244,F4,877.0,0.285,43,141.2
4245,B-4,877.25,0.25,42,141.2
4246,C#5,877.25,0.25,42,141.2
4247,G5,877.5,0.25,70,141.2
4248,F4,877.5,0.3,43,141.2
4249,B-4,877.75,0.25,42,141.2
4250,C#5,877.75,0.25,42,141.2
4251,F5,878.0,0.25,76,141.2
4252,F3,878.0,0.475,51,141.2
4253,A4,878.25,0.25,42,141.2
4254,C5,878.25,0.25,42,141.2
4255,F5,878.5,0.25,68,141.2
4256,F4,878.5,0.285,43,141.2
4257,A4,878.75,0.25,42,141.2
4258,C5,878.75,0.25,42,141.2
4259,E5,879.0,0.25,68,141.2
4260,F4,879.0,0.285,43,141.2
4261,B-4,879.25,0.25,42,141.2
4262,C#5,879.25,0.25,42,141.2
4263,G5,879.5,0.25,70,141.2
4264,F4,879.5,0.3,43,141.2
4265,B-4,879.75,0.25,42,141.2
4266,C#5,879.75,0.25,42,141.2
4267,F3,880.0,1.0,51,141.2
4268,A4,880.0,0.25,63,141.2
4269,C5,880.0,0.25,63,141.2
4270,F5,880.0,0.25,63,141.2
4271,F4,880.25,0.275,35,141.2
4272,G4,880.5,0.275,40,141.2
4273,A4,880.75,0.275,35,141.2
4274,B-4,881.0,0.275,40,141.2
4275,C5,881.25,0.275,35,141.2
4276,D5,881.5,0.275,40,141.2
4277,E5,881.75,0.275,33,141.2
4278,F5,882.0,0.275,40,141.2
4279,E5,882.25,0.275,33,141.2
4280,F5,882.5,0.275,40,141.2
4281,E5,882.75,0.275,33,141.2
4282,F5,883.0,0.275,40,141.2
4283,E5,883.25,0.275,34,141.2
4284,F5,883.5,0.275,40,141.2
4285,E5,883.75,0.25,33,141.2
4286,D5,884.0,2.0,40,141.2
4287,F5,884.0,2.0,40,141.2
4288,B-3,884.25,0.275,31,141.2
4289,C4,884.5,0.275,36,141.2
4290,D4,884.75,0.275,31,141.2
4291,E-4,885.0,0.275,36,141.2
4292,F4,885.25,0.275,31,141.2
4293,G4,885.5,0.275,36,141.2
4294,A4,885.75,0.275,29,141.2
4295,D5,886.0,1.0,49,141.2
4296,B-4,886.0,0.275,36,141.2
4297,A4,886.25,0.275,29,141.2
4298,B-4,886.5,0.275,36,141.2
4299,A4,886.75,0.275,29,141.2
4300,B-5,887.0,1.0,47,141.2
4301,B-4,887.0,0.275,36,141.2
4302,A4,887.25,0.275,27,141.2
4303,B-4,887.5,0.275,34,141.2
4304,A4,887.75,0.25,26,141.2
4305,B-4,888.0,0.275,30,141.2
4306,D5,888.0,1.0,45,141.2
4307,F5,888.0,1.0,45,141.2
4308,A4,888.25,0.275,25,141.2
4309,B-4,888.5,0.275,30,141.2
4310,A4,888.75,0.275,25,141.2
4311,B-4,889.0,0.275,30,141.2
4312,D6,889.0,1.0,40,141.2
4313,B-5,889.0,1.0,40,141.2
4314,A4,889.25,0.275,25,141.2
4315,B-4,889.5,0.275,30,141.2
4316,A4,889.75,0.275,25,141.2
4317,B-4,890.0,0.275,30,141.2
4318,D5,890.0,1.0,46,141.2
4319,F5,890.0,1.0,46,141.2
4320,A4,890.25,0.275,25,141.2
4321,B-4,890.5,0.275,30,141.2
4322,A4,890.75,0.275,25,141.2
4323,B-4,891.0,0.275,30,141.2
4324,F6,891.0,1.0,40,141.2
4325,D6,891.0,1.0,40,141.2
4326,A4,891.25,0.275,25,141.2
4327,B-4,891.5,0.275,30,141.2
4328,A4,891.75,0.25,25,141.2
4329,B-4,892.0,0.25,30,141.2
4330,D5,892.0,2.0,40,141.2
4331,F5,892.0,2.0,40,141.2
4332,B-3,892.25,0.275,31,141.2
4333,C4,892.5,0.275,36,141.2
4334,D4,892.75,0.275,31,141.2
4335,E-4,893.0,0.275,36,141.2
4336,F4,893.25,0.275,31,141.2
4337,G4,893.5,0.275,36,141.2
4338,A4,893.75,0.275,29,141.2
4339,D5,894.0,1.0,49,141.2
4340,B-4,894.0,0.275,36,141.2
4341,A4,894.25,0.275,29,141.2
4342,B-4,894.5,0.275,36,141.2
4343,A4,894.75,0.275,29,141.2
4344,B-5,895.0,1.0,46,141.2
4345,B-4,895.0,0.275,36,141.2
4346,A4,895.25,0.275,27,141.2
4347,B-4,895.5,0.275,34,141.2
4348,A4,895.75,0.25,26,141.2
4349,B-4,896.0,0.275,30,141.2
4350,D5,896.0,1.0,45,141.2
4351,F5,896.0,1.0,45,141.2
4352,A4,896.25,0.275,25,141.2
4353,B-4,896.5,0.275,30,141.2
4354,A4,896.75,0.275,25,141.2
4355,B-4,897.0,0.275,30,141.2
4356,D6,897.0,1.0,40,141.2
4357,B-5,897.0,1.0,40,141.2
4358,A4,897.25,0.275,25,141.2
4359,B-4,897.5,0.275,30,141.2
4360,A4,897.75,0.275,25,141.2
4361,B-4,898.0,0.275,30,141.2
4362,D5,898.0,1.0,46,141.2
4363,F5,898.0,1.0,46,141.2
4364,A4,898.25,0.275,25,141.2
4365,B-4,898.5,0.275,30,141.2
4366,A4,898.75,0.275,25,141.2
4367,B-4,899.0,0.275,30,141.2
4368,F6,899.0,1.0,40,141.2
4369,D6,899.0,1.0,40,141.2
4370,G#4,899.25,0.275,25,141.2
4371,B-4,899.5,0.275,30,141.2
4372,G#4,899.75,0.25,25,141.2
4373,F#4,900.0,0.375,39,141.2
4374,D5,900.0,2.0,49,141.2
4375,F5,900.0,2.0,49,141.2
4376,G5,900.0,2.0,49,141.2
4377,B5,900.0,2.0,49,141.2
4378,G4,900.25,0.25,34,141.2
4379,F#4,900.5,0.375,39,141.2
4380,G4,900.75,0.25,35,141.2
4381,E4,901.0,0.375,41,141.2
4382,F4,901.25,0.25,35,141.2
4383,E4,901.5,0.375,42,141.2
4384,F4,901.75,0.25,36,141.2
4385,C#4,902.0,0.375,44,141.2
4386,D4,902.25,0.25,37,141.2
4387,C#4,902.5,0.375,45,141.2
4388,D4,902.75,0.25,37,141.2
4389,B-3,903.0,0.375,44,141.2
4390,B3,903.25,0.25,38,141.2
4391,B-3,903.5,0.375,44,141.2
4392,B3,903.75,0.25,39,141.2
4393,F#3,904.0,0.375,45,141.2
4394,G3,904.25,0.25,39,141.2
4395,F#3,904.5,0.375,46,141.2
4396,G3,904.75,0.25,40,141.2
4397,B5,905.0,1.0,70,141.2
4398,E3,905.0,0.375,48,141.2
4399,F3,905.25,0.25,41,141.2
4400,E3,905.5,0.375,48,141.2
4401,F3,905.75,0.25,41,141.2
4402,D6,906.0,1.0,70,141.2
4403,C#3,906.0,0.375,54,141.2
4404,D3,906.25,0.25,42,141.2
4405,C#3,906.5,0.375,52,141.2
4406,D3,906.75,0.25,43,141.2
4407,F6,907.0,2.0,66,141.2
4408,B-2,907.0,0.375,55,141.2
4409,B2,907.25,0.25,44,141.2
4410,B-2,907.5,0.375,51,141.2
4411,B2,907.75,0.25,44,141.2
4412,B5,908.0,2.0,72,141.2
4413,F#2,908.0,0.375,57,141.2
4414,G2,908.25,0.25,44,141.2
4415,F#2,908.5,0.375,51,141.2
4416,G2,908.75,0.25,44,141.2
4417,E-6,909.0,4.0,75,141.2
4418,F#2,909.0,0.375,56,141.2
4419,G2,909.25,0.25,50,141.2
4420,F#2,909.5,0.375,57,141.2
4421,G2,909.75,0.229,44,141.2
4422,C6,910.0,3.0,75,141.2
4423,G2,910.0,0.375,61,141.2
4424,G#2,910.25,0.25,52,141.2
4425,G2,910.5,0.375,58,141.2
4426,G#2,910.75,0.25,52,141.2
4427,F#5,911.0,1.0,66,141.2
4428,G#2,911.0,0.375,58,141.2
4429,A2,911.25,0.25,44,141.2
4430,G#2,911.5,0.375,54,141.2
4431,A2,911.75,0.25,44,141.2
4432,F5,912.0,2.0,74,141.2
4433,A2,912.0,0.375,56,141.2
4434,B-2,912.25,0.25,48,141.2
4435,A2,912.5,0.375,51,141.2
4436,B-2,912.75,0.25,44,141.2
4437,A2,913.0,0.375,51,141.2
4438,D6,913.0,1.0,64,141.2
4439,B-5,913.0,1.0,64,141.2
4440,B-2,913.25,0.25,44,141.2
4441,A2,913.5,0.375,51,141.2
4442,B-2,913.75,0.229,44,141.2
4443,D2,914.0,0.375,51,141.2
4444,E-5,914.0,1.0,64,141.2
4445,G5,914.0,1.0,64,141.2
4446,C6,914.0,1.0,64,141.2
4447,E-2,914.25,0.25,44,141.2
4448,D2,914.5,0.375,51,141.2
4449,E-2,914.75,0.229,44,141.2
4450,E2,915.0,0.375,51,141.2
4451,C5,915.0,1.0,57,141.2
4452,E-5,915.0,1.0,57,141.2
4453,A5,915.0,1.0,57,141.2
4454,F2,915.25,0.25,44,141.2
4455,E2,915.5,0.375,51,141.2
4456,F2,915.75,0.229,44,141.2
4457,B-1,916.0,0.5,48,141.2
4458,B-4,916.0,0.5,68,141.2
4459,D5,916.0,0.5,68,141.2
4460,B-5,916.0,0.5,68,141.2
4461,B-4,918.0,1.979,80,141.2
4462,D5,918.0,1.979,80,141.2
4463,B-3,918.0,1.979,59,141.2
4464,D4,918.0,1.979,59,141.2
4465,G4,920.0,0.979,62,141.2
4466,B-4,920.0,0.979,62,141.2
4467,G3,920.0,0.979,45,141.2
4468,B-3,920.0,0.979,45,141.2
4469,E-4,921.0,0.5,64,141.2
4470,G4,921.0,0.5,64,141.2
4471,E-3,921.0,0.5,45,141.2
4472,G3,921.0,0.5,45,141.2
4473,C5,922.0,1.5,80,141.2
4474,E-5,922.0,1.5,80,141.2
4475,C4,922.0,1.5,59,141.2
4476,E-4,922.0,1.5,59,141.2
4477,B-4,923.5,0.5,62,141.2
4478,D5,923.5,0.5,62,141.2
4479,B-3,923.5,0.5,45,141.2
4480,D4,923.5,0.5,45,141.2
4481,C5,924.0,1.0,70,141.2
4482,A4,924.0,1.0,70,141.2
4483,A3,924.0,0.979,54,141.2
4484,C4,924.0,0.979,54,141.2
4485,F4,925.0,0.5,62,141.2
4486,A4,925.0,0.5,62,141.2
4487,F3,925.0,0.5,48,141.2
4488,A3,925.0,0.5,48,141.2
4489,D5,926.0,1.979,80,141.2
4490,F5,926.0,1.979,80,141.2
4491,D4,926.0,1.979,59,141.2
4492,F4,926.0,1.979,59,141.2
4493,B-4,928.0,0.979,62,141.2
4494,D5,928.0,0.979,62,141.2
4495,B-3,928.0,0.979,45,141.2
4496,D4,928.0,0.979,45,141.2
4497,G4,929.0,0.5,64,141.2
4498,B-4,929.0,0.5,64,141.2
4499,G3,929.0,0.5,45,141.2
4500,B-3,929.0,0.5,45,141.2
4501,E-5,930.0,1.5,80,141.2
4502,G5,930.0,1.5,80,141.2
4503,E-4,930.0,1.5,59,141.2
4504,G4,930.0,1.5,59,141.2
4505,D5,931.5,0.5,62,141.2
4506,F5,931.5,0.5,62,141.2
4507,D4,931.5,0.5,45,141.2
4508,F4,931.5,0.5,45,141.2
4509,E-5,932.0,1.0,70,141.2
4510,C5,932.0,1.0,70,141.2
4511,C4,932.0,0.979,54,141.2
4512,E-4,932.0,0.979,54,141.2
4513,A4,933.0,0.5,62,141.2
4514,C5,933.0,0.5,62,141.2
4515,A3,933.0,0.5,48,141.2
4516,C4,933.0,0.5,48,141.2
4517,E-5,934.0,1.5,80,141.2
4518,C6,934.0,1.5,80,141.2
4519,E-4,934.0,1.5,59,141.2
4520,C5,934.0,1.5,59,141.2
4521,D5,935.5,0.5,62,141.2
4522,B-5,935.5,0.5,62,141.2
4523,D4,935.5,0.5,45,141.2
4524,B-4,935.5,0.5,45,141.2
4525,C5,936.0,1.5,80,141.2
4526,A5,936.0,1.5,80,141.2
4527,C4,936.0,1.5,59,141.2
4528,A4,936.0,1.5,59,141.2
4529,B-4,937.5,0.5,62,141.2
4530,G5,937.5,0.5,62,141.2
4531,B-3,937.5,0.5,41,141.2
4532,G4,937.5,0.5,41,141.2
4533,A4,938.0,1.0,56,141.2
4534,F5,938.0,1.0,56,141.2
4535,A3,938.0,1.0,45,141.2
4536,F4,938.0,1.0,45,141.2
4537,E-4,939.0,1.0,48,141.2
4538,E-5,939.0,1.0,48,141.2
4539,G3,939.0,1.0,38,141.2
4540,B-3,939.0,1.0,38,141.2
4541,D4,940.0,1.0,54,141.2
4542,D5,940.0,1.0,54,141.2
4543,F#3,940.0,1.0,40,141.2
4544,A3,940.0,1.0,40,141.2
4545,F#4,941.0,1.0,42,141.2
4546,C5,941.0,1.0,42,141.2
4547,D3,941.0,1.0,30,141.2
4548,A3,941.0,1.0,30,141.2
4549,G4,942.0,1.0,49,141.2
4550,B-4,942.0,1.0,49,141.2
4551,E-3,942.0,1.0,36,141.2
4552,G3,942.0,1.0,36,141.2
4553,C4,943.0,1.0,44,141.2
4554,G4,943.0,1.0,44,141.2
4555,B-3,943.0,1.0,36,141.2
4556,E3,943.0,1.0,36,141.2
4557,F3,944.0,2.0,38,141.2
4558,B-3,945.0,0.5,34,141.2
4559,D4,945.0,0.5,34,141.2
4560,F4,945.0,0.5,34,141.2
4561,F2,946.0,2.0,32,141.2
4562,A3,947.0,0.5,33,141.2
4563,C4,947.0,0.5,33,141.2
4564,F4,947.0,0.5,33,141.2
4565,B-1,948.0,2.0,35,141.2
4566,D4,949.0,0.938,31,141.2
4567,B-3,949.0,0.938,31,141.2
4568,F3,949.0,0.938,31,141.2
4569,D4,950.0,1.5,60,141.2
4570,B-3,950.0,1.5,60,141.2
4571,B-4,950.5,1.0,66,141.2
4572,D5,950.5,1.0,66,141.2
4573,B-4,951.5,0.25,52,141.2
4574,D5,951.5,0.25,52,141.2
4575,B-3,951.5,0.25,40,141.2
4576,D4,951.5,0.25,40,141.2
4577,G3,952.0,0.25,49,141.2
4578,B-3,952.0,0.25,49,141.2
4579,G4,952.5,0.25,45,141.2
4580,B-4,952.5,0.25,45,141.2
4581,E-3,953.0,0.25,43,141.2
4582,G3,953.0,0.25,43,141.2
4583,E-4,953.5,0.25,42,141.2
4584,G4,953.5,0.25,42,141.2
4585,E-4,954.0,1.5,60,141.2
4586,C4,954.0,1.5,60,141.2
4587,C5,954.5,1.0,66,141.2
4588,E-5,954.5,1.0,66,141.2
4589,B-4,955.5,0.25,47,141.2
4590,D5,955.5,0.25,47,141.2
4591,B-3,955.5,0.25,40,141.2
4592,D4,955.5,0.25,40,141.2
4593,A3,956.0,0.25,49,141.2
4594,C4,956.0,0.25,49,141.2
4595,A4,956.5,0.25,45,141.2
4596,C5,956.5,0.25,45,141.2
4597,F3,957.0,0.25,43,141.2
4598,A3,957.0,0.25,43,141.2
4599,F4,957.5,0.25,42,141.2
4600,A4,957.5,0.25,42,141.2
4601,F4,958.0,1.5,66,141.2
4602,D4,958.0,1.5,66,141.2
4603,D5,958.5,1.0,66,141.2
4604,F5,958.5,1.0,66,141.2
4605,D5,959.5,0.25,52,141.2
4606,F5,959.5,0.25,52,141.2
4607,D4,959.5,0.25,44,141.2
4608,F4,959.5,0.25,44,141.2
4609,B-3,960.0,0.25,54,141.2
4610,D4,960.0,0.25,54,141.2
4611,B-4,960.5,0.25,49,141.2
4612,D5,960.5,0.25,49,141.2
4613,G3,961.0,0.25,46,141.2
4614,B-3,961.0,0.25,46,141.2
4615,G4,961.5,0.25,45,141.2
4616,B-4,961.5,0.25,45,141.2
4617,G4,962.0,1.5,68,141.2
4618,E-4,962.0,1.5,68,141.2
4619,E-5,962.5,1.0,76,141.2
4620,G5,962.5,1.0,76,141.2
4621,D5,963.5,0.25,54,141.2
4622,F5,963.5,0.25,54,141.2
4623,D4,963.5,0.25,46,141.2
4624,F4,963.5,0.25,46,141.2
4625,C4,964.0,0.25,56,141.2
4626,E-4,964.0,0.25,56,141.2
4627,C5,964.5,0.25,51,141.2
4628,E-5,964.5,0.25,51,141.2
4629,A3,965.0,0.25,48,141.2
4630,C4,965.0,0.25,48,141.2
4631,A4,965.5,0.25,47,141.2
4632,C5,965.5,0.25,47,141.2
4633,C5,966.0,1.5,72,141.2
4634,E-4,966.0,1.5,72,141.2
4635,E-5,966.5,1.0,84,141.2
4636,C6,966.5,1.0,84,141.2
4637,D5,967.5,0.25,62,141.2
4638,B-5,967.5,0.25,62,141.2
4639,D4,967.5,0.25,48,141.2
4640,B-4,967.5,0.25,48,141.2
4641,A4,968.0,1.5,72,141.2
4642,C4,968.0,1.5,72,141.2
4643,C5,968.5,1.0,76,141.2
4644,A5,968.5,1.0,76,141.2
4645,B-4,969.5,0.25,62,141.2
4646,G5,969.5,0.25,62,141.2
4647,B-3,969.5,0.25,48,141.2
4648,G4,969.5,0.25,48,141.2
4649,A3,970.0,0.25,54,141.2
4650,F4,970.0,0.25,54,141.2
4651,A4,970.5,0.25,48,141.2
4652,F5,970.5,0.25,48,141.2
4653,G3,971.0,0.25,44,141.2
4654,B-3,971.0,0.25,44,141.2
4655,E-4,971.5,0.25,42,141.2
4656,E-5,971.5,0.25,42,141.2
4657,D5,972.0,0.25,54,141.2
4658,F#3,972.0,4.0,36,141.2
4659,A3,972.0,4.0,36,141.2
4660,C4,972.0,4.0,36,141.2
4661,D4,972.25,0.25,46,141.2
4662,F#4,972.5,0.25,43,141.2
4663,A4,972.75,0.25,43,141.2
4664,D5,973.0,0.25,53,141.2
4665,F#5,973.25,0.25,42,141.2
4666,A5,973.5,0.25,42,141.2
4667,C#6,973.75,0.25,42,141.2
4668,D6,974.0,0.25,49,141.2
4669,C#6,974.25,0.25,39,141.2
4670,D6,974.5,0.25,42,141.2
4671,C#6,974.75,0.25,38,141.2
4672,D6,975.0,0.25,48,141.2
4673,A5,975.25,0.25,38,141.2
4674,F#5,975.5,0.25,38,141.2
4675,D5,975.75,0.25,38,141.2
4676,G3,976.0,4.0,37,141.2
4677,B-3,976.0,4.0,37,141.2
4678,D4,976.25,0.25,46,141.2
4679,G4,976.5,0.25,43,141.2
4680,B-4,976.75,0.25,43,141.2
4681,D5,977.0,0.25,53,141.2
4682,G5,977.25,0.25,42,141.2
4683,B-5,977.5,0.25,42,141.2
4684,C#6,977.75,0.25,42,141.2
4685,D6,978.0,0.25,49,141.2
4686,C#6,978.25,0.25,39,141.2
4687,D6,978.5,0.25,42,141.2
4688,C#6,978.75,0.25,38,141.2
4689,D6,979.0,0.25,48,141.2
4690,B-5,979.25,0.25,38,141.2
4691,G5,979.5,0.25,38,141.2
4692,D5,979.75,0.25,38,141.2
4693,E3,980.0,4.0,37,141.2
4694,G3,980.0,4.0,37,141.2
4695,C#4,980.25,0.25,46,141.2
4696,E4,980.5,0.25,43,141.2
4697,G4,980.75,0.25,43,141.2
4698,B-4,981.0,0.25,50,141.2
4699,C#5,981.25,0.25,42,141.2
4700,E5,981.5,0.25,42,141.2
4701,G5,981.75,0.25,42,141.2
4702,B-5,982.0,0.25,49,141.2
4703,G5,982.25,0.25,41,141.2
4704,C#6,982.5,0.25,48,141.2
4705,B-5,982.75,0.25,41,141.2
4706,G5,983.0,0.25,48,141.2
4707,E5,983.25,0.25,45,141.2
4708,C#5,983.5,0.25,42,141.2
4709,B-4,983.75,0.25,39,141.2
4710,E-3,984.0,2.5,62,141.2
4711,F#3,984.0,2.5,62,141.2
4712,A3,984.25,0.25,48,141.2
4713,C4,984.5,0.25,50,141.2
4714,E-4,984.75,0.25,51,141.2
4715,F#4,985.0,0.25,53,141.2
4716,A4,985.25,0.25,55,141.2
4717,C5,985.5,0.25,57,141.2
4718,E-5,985.75,0.25,59,141.2
4719,F#5,986.0,0.25,65,141.2
4720,A5,986.25,0.25,57,141.2
4721,A4,986.5,0.25,64,141.2
4722,E-3,986.5,0.25,53,141.2
4723,F3,986.5,0.25,53,141.2
4724,C4,986.5,0.25,53,141.2
4725,A5,986.75,0.25,56,141.2
4726,A4,987.0,0.25,64,141.2
4727,E-3,987.0,0.25,65,141.2
4728,F3,987.0,0.25,65,141.2
4729,C4,987.0,0.25,65,141.2
4730,A5,987.25,0.25,58,141.2
4731,A4,987.5,0.25,64,141.2
4732,E-3,987.5,0.25,54,141.2
4733,F3,987.5,0.25,54,141.2
4734,C4,987.5,0.25,54,141.2
4735,A5,987.75,0.25,59,141.2
4736,B-4,988.0,0.25,74,141.2
4737,D3,988.0,1.0,73,141.2
4738,F3,988.0,1.0,73,141.2
4739,B-3,988.0,1.0,73,141.2
4740,B-5,988.25,0.25,59,141.2
4741,A4,988.5,0.25,67,141.2
4742,A5,988.75,0.25,54,141.2
4743,B-4,989.0,0.25,66,141.2
4744,B-5,989.25,0.25,57,141.2
4745,E-4,989.5,0.25,59,141.2
4746,A2,989.5,0.25,62,141.2
4747,F3,989.5,0.25,62,141.2
4748,E-5,989.75,0.25,50,141.2
4749,D4,990.0,0.25,79,141.2
4750,B-2,990.0,0.25,69,141.2
4751,F3,990.0,0.25,69,141.2
4752,D5,990.25,0.25,54,141.2
4753,A4,990.5,0.25,65,141.2
4754,E-3,990.5,0.25,62,141.2
4755,F3,990.5,0.25,62,141.2
4756,A5,990.75,0.25,57,141.2
4757,B-4,991.0,0.25,68,141.2
4758,D3,991.0,0.25,69,141.2
4759,F3,991.0,0.25,69,141.2
4760,B-5,991.25,0.25,60,141.2
4761,E-4,991.5,0.25,67,141.2
4762,A2,991.5,0.25,62,141.2
4763,F3,991.5,0.25,62,141.2
4764,E-5,991.75,0.25,58,141.2
4765,D4,992.0,0.25,81,141.2
4766,B-2,992.0,0.25,69,141.2
4767,F3,992.0,0.25,69,141.2
4768,D5,992.25,0.25,58,141.2
4769,A4,992.5,0.25,64,141.2
4770,E-3,992.5,0.25,62,141.2
4771,F3,992.5,0.25,62,141.2
4772,A5,992.75,0.25,59,141.2
4773,B-4,993.0,0.25,67,141.2
4774,D3,993.0,0.25,69,141.2
4775,F3,993.0,0.25,69,141.2
4776,B-5,993.25,0.25,55,141.2
4777,E-4,993.5,0.25,62,141.2
4778,A2,993.5,0.25,62,141.2
4779,F3,993.5,0.25,62,141.2
4780,E-5,993.75,0.25,51,141.2
4781,D4,994.0,0.25,72,141.2
4782,B-2,994.0,0.25,69,141.2
4783,F3,994.0,0.25,69,141.2
4784,D5,994.25,0.25,52,141.2
4785,A4,994.5,0.25,64,141.2
4786,E-3,994.5,0.25,62,141.2
4787,F3,994.5,0.25,62,141.2
4788,A5,994.75,0.25,54,141.2
4789,B-4,995.0,0.25,64,141.2
4790,D3,995.0,0.25,69,141.2
4791,F3,995.0,0.25,69,141.2
4792,B-5,995.25,0.25,51,141.2
4793,E-4,995.5,0.25,60,141.2
4794,A2,995.5,0.25,62,141.2
4795,F3,995.5,0.25,62,141.2
4796,E-5,995.75,0.25,51,141.2
4797,D4,996.0,0.25,83,141.2
4798,B-2,996.0,2.0,89,141.2
4799,D5,996.25,0.25,53,141.2
4800,A4,996.5,0.25,62,141.2
4801,A5,996.75,0.25,54,141.2
4802,B-4,997.0,0.25,62,141.2
4803,B-5,997.25,0.25,54,141.2
4804,A4,997.5,0.25,62,141.2
4805,A5,997.75,0.25,53,141.2
4806,G4,998.0,0.25,81,141.2
4807,G2,998.0,2.0,80,141.2
4808,G5,998.25,0.25,53,141.2
4809,F4,998.5,0.25,60,141.2
4810,F5,998.75,0.25,52,141.2
4811,E-4,999.0,0.25,59,141.2
4812,E-5,999.25,0.25,52,141.2
4813,D4,999.5,0.25,59,141.2
4814,D5,999.75,0.25,50,141.2
4815,C4,1000.0,0.25,79,141.2
4816,E-2,1000.0,2.0,88,141.2
4817,C5,1000.25,0.25,50,141.2
4818,B-3,1000.5,0.25,59,141.2
4819,B-4,1000.75,0.25,49,141.2
4820,A3,1001.0,0.25,59,141.2
4821,A4,1001.25,0.25,49,141.2
4822,G3,1001.5,0.25,59,141.2
4823,G4,1001.75,0.25,51,141.2
4824,F3,1002.0,0.25,79,141.2
4825,F2,1002.0,2.0,84,141.2
4826,F4,1002.25,0.25,49,141.2
4827,E-3,1002.5,0.25,59,141.2
4828,E-4,1002.75,0.25,50,141.2
4829,D3,1003.0,0.25,59,141.2
4830,D4,1003.25,0.25,48,141.2
4831,C3,1003.5,0.25,58,141.2
4832,C4,1003.75,0.25,49,141.2
4833,B-1,1004.0,0.25,81,141.2
4834,B-3,1004.0,0.25,70,141.2
4835,B-2,1004.0,0.25,70,141.2
4836,A3,1004.5,0.25,49,141.2
4837,E-3,1004.5,0.25,54,141.2
4838,F3,1004.75,0.25,42,141.2
4839,B-3,1005.0,0.25,49,141.2
4840,D3,1005.0,0.25,60,141.2
4841,F3,1005.25,0.25,41,141.2
4842,E-4,1005.5,0.25,49,141.2
4843,A2,1005.5,0.25,54,141.2
4844,F3,1005.75,0.25,42,141.2
4845,D4,1006.0,0.25,49,141.2
4846,B-2,1006.0,0.25,60,141.2
4847,F3,1006.25,0.25,41,141.2
4848,A3,1006.5,0.25,49,141.2
4849,E-3,1006.5,0.25,52,141.2
4850,F3,1006.75,0.25,42,141.2
4851,B-3,1007.0,0.25,49,141.2
4852,D3,1007.0,0.25,60,141.2
4853,F3,1007.25,0.25,43,141.2
4854,E-4,1007.5,0.25,49,141.2
4855,A2,1007.5,0.25,58,141.2
4856,F3,1007.75,0.25,40,141.2
4857,D4,1008.0,0.25,49,141.2
4858,B-2,1008.0,0.25,60,141.2
4859,F3,1008.25,0.25,41,141.2
4860,A3,1008.5,0.25,49,141.2
4861,E-3,1008.5,0.25,52,141.2
4862,F3,1008.75,0.25,42,141.2
4863,B-3,1009.0,0.25,49,141.2
4864,D3,1009.0,0.25,60,141.2
4865,F3,1009.25,0.25,43,141.2
4866,E-4,1009.5,0.25,49,141.2
4867,A2,1009.5,0.25,58,141.2
4868,F3,1009.75,0.25,40,141.2
4869,D4,1010.0,0.5,56,141.2
4870,B-2,1010.0,0.25,67,141.2
4871,F#3,1010.5,0.25,60,141.2
4872,C3,1010.5,0.25,59,141.2
4873,F#4,1010.75,0.25,52,141.2
4874,G3,1011.0,0.25,61,141.2
4875,B-2,1011.0,0.25,72,141.2
4876,G4,1011.25,0.25,49,141.2
4877,A3,1011.5,0.25,67,141.2
4878,A2,1011.5,0.25,67,141.2
4879,A4,1011.75,0.25,60,141.2
4880,B-3,1012.0,0.25,71,141.2
4881,G2,1012.0,0.25,75,141.2
4882,B-4,1012.25,0.25,62,141.2
4883,B3,1012.5,0.25,70,141.2
4884,F2,1012.5,0.25,77,141.2
4885,B4,1012.75,0.25,64,141.2
4886,C4,1013.0,0.25,70,141.2
4887,E-2,1013.0,0.25,80,141.2
4888,C5,1013.25,0.25,64,141.2
4889,D4,1013.5,0.25,74,141.2
4890,D2,1013.5,0.25,82,141.2
4891,D5,1013.75,0.25,65,141.2
4892,E-4,1014.0,0.25,82,141.2
4893,C2,1014.0,4.0,94,141.2
4894,E-5,1014.25,0.25,71,141.2
4895,F4,1014.5,0.25,79,141.2
4896,F5,1014.75,0.25,70,141.2
4897,G4,1015.0,0.25,83,141.2
4898,G5,1015.25,0.25,72,141.2
4899,F4,1015.5,0.25,81,141.2
4900,F5,1015.75,0.25,69,141.2
4901,E-4,1016.0,0.25,84,141.2
4902,E-5,1016.25,0.25,69,141.2
4903,D4,1016.5,0.25,81,141.2
4904,D5,1016.75,0.25,69,141.2
4905,C4,1017.0,0.25,79,141.2
4906,C5,1017.25,0.25,69,141.2
4907,B-3,1017.5,0.25,78,141.2
4908,B-4,1017.75,0.25,65,141.2
4909,A3,1018.0,0.25,79,141.2
4910,F1,1018.0,2.0,80,141.2
4911,F2,1018.0,2.0,80,141.2
4912,A4,1018.25,0.25,69,141.2
4913,G3,1018.5,0.25,77,141.2
4914,G4,1018.75,0.25,65,141.2
4915,F3,1019.0,0.25,77,141.2
4916,F4,1019.25,0.25,67,141.2
4917,A3,1019.5,0.25,75,141.2
4918,A4,1019.75,0.25,66,141.2
4919,B-1,1020.0,0.25,30,141.2
4920,B-4,1020.0,1.0,79,141.2
4921,B-3,1020.0,1.0,79,141.2
4922,B-2,1020.25,0.25,26,141.2
4923,B-1,1020.5,0.25,30,141.2
4924,B-2,1020.75,0.25,25,141.2
4925,B-1,1021.0,0.25,30,141.2
4926,B-2,1021.25,0.25,26,141.2
4927,B-1,1021.5,0.25,30,141.2
4928,B-2,1021.75,0.25,27,141.2
4929,B-1,1022.0,0.25,30,141.2
4930,F4,1022.0,2.0,37,141.2
4931,D4,1022.0,2.0,37,141.2
4932,B-2,1022.25,0.25,27,141.2
4933,B-1,1022.5,0.25,30,141.2
4934,B-2,1022.75,0.25,25,141.2
4935,B-1,1023.0,0.25,30,141.2
4936,B-2,1023.25,0.25,26,141.2
4937,B-3,1023.5,0.5,39,141.2
4938,B-1,1023.5,0.25,30,141.2
4939,B-2,1023.75,0.25,26,141.2
4940,B-1,1024.0,0.25,30,141.2
4941,F#4,1024.0,2.0,42,141.2
4942,E-4,1024.0,2.0,42,141.2
4943,B-2,1024.25,0.25,26,141.2
4944,B-1,1024.5,0.25,30,141.2
4945,B-2,1024.75,0.25,25,141.2
4946,B-1,1025.0,0.25,30,141.2
4947,B-2,1025.25,0.25,26,141.2
4948,C#4,1025.5,0.5,40,141.2
4949,B-1,1025.5,0.25,30,141.2
4950,B-2,1025.75,0.25,27,141.2
4951,B3,1026.0,0.5,45,141.2
4952,B-1,1026.0,0.25,30,141.2
4953,F#4,1026.0,1.0,32,141.2
4954,E-4,1026.0,1.0,32,141.2
4955,B-2,1026.25,0.25,27,141.2
4956,B-3,1026.5,0.5,40,141.2
4957,B-1,1026.5,0.25,30,141.2
4958,B-2,1026.75,0.25,25,141.2
4959,B3,1027.0,0.5,46,141.2
4960,B-1,1027.0,0.25,30,141.2
4961,F#4,1027.0,1.0,33,141.2
4962,E-4,1027.0,1.0,33,141.2
4963,B-2,1027.25,0.25,26,141.2
4964,A3,1027.5,0.5,40,141.2
4965,B-1,1027.5,0.25,30,141.2
4966,B-2,1027.75,0.25,26,141.2
4967,B-1,1028.0,0.25,30,141.2
4968,F4,1028.0,1.5,41,141.2
4969,D4,1028.0,1.5,41,141.2
4970,B-3,1028.0,1.5,41,141.2
4971,B-2,1028.25,0.25,26,141.2
4972,B-1,1028.5,0.25,30,141.2
4973,B-2,1028.75,0.25,25,141.2
4974,B-1,1029.0,0.25,30,141.2
4975,B-2,1029.25,0.25,26,141.2
4976,B-1,1029.5,0.25,30,141.2
4977,B-2,1029.75,0.25,27,141.2
4978,D5,1030.0,1.5,52,141.2
4979,B-1,1030.0,0.25,30,141.2
4980,F4,1030.0,2.0,48,141.2
4981,D4,1030.0,2.0,48,141.2
4982,B-2,1030.25,0.25,27,141.2
4983,B-1,1030.5,0.25,35,141.2
4984,B-2,1030.75,0.25,29,141.2
4985,B-1,1031.0,0.25,34,141.2
4986,B-2,1031.25,0.25,26,141.2
4987,B-4,1031.5,0.5,50,141.2
4988,B-1,1031.5,0.25,35,141.2
4989,B-2,1031.75,0.25,31,141.2
4990,E-5,1032.0,1.5,52,141.2
4991,B-1,1032.0,0.25,38,141.2
4992,F#4,1032.0,2.0,54,141.2
4993,E-4,1032.0,2.0,54,141.2
4994,B-2,1032.25,0.25,30,141.2
4995,B-1,1032.5,0.25,34,141.2
4996,B-2,1032.75,0.25,25,141.2
4997,B-1,1033.0,0.25,33,141.2
4998,B-2,1033.25,0.25,26,141.2
4999,C#5,1033.5,0.5,52,141.2
5000,B-1,1033.5,0.25,30,141.2
5001,B-2,1033.75,0.25,27,141.2
5002,B4,1034.0,0.5,58,141.2
5003,B-1,1034.0,0.25,30,141.2
5004,F#4,1034.0,1.0,41,141.2
5005,E-4,1034.0,1.0,41,141.2
5006,B-2,1034.25,0.25,27,141.2
5007,B-4,1034.5,0.5,52,141.2
5008,B-1,1034.5,0.25,30,141.2
5009,B-2,1034.75,0.25,25,141.2
5010,B4,1035.0,0.5,59,141.2
5011,B-1,1035.0,0.25,30,141.2
5012,F#4,1035.0,1.0,42,141.2
5013,E-4,1035.0,1.0,42,141.2
5014,B-2,1035.25,0.25,26,141.2
5015,A4,1035.5,0.5,52,141.2
5016,B-1,1035.5,0.25,30,141.2
5017,B-2,1035.75,0.25,26,141.2
5018,B-1,1036.0,0.25,30,141.2
5019,B-4,1036.0,1.5,53,141.2
5020,F4,1036.0,1.5,53,141.2
5021,D4,1036.0,1.5,53,141.2
5022,B-2,1036.25,0.25,25,141.2
5023,B-1,1036.5,0.25,29,141.2
5024,B-2,1036.75,0.25,24,141.2
5025,B-1,1037.0,0.25,28,141.2
5026,B-2,1037.25,0.25,24,141.2
5027,B-1,1037.5,0.25,28,141.2
5028,B-2,1037.75,0.25,25,141.2
5029,C5,1038.0,0.5,53,141.2
5030,B-1,1038.0,0.25,27,141.2
5031,F#4,1038.0,1.0,37,141.2
5032,E-4,1038.0,1.0,37,141.2
5033,B-2,1038.25,0.25,24,141.2
5034,B-4,1038.5,0.5,46,141.2
5035,B-1,1038.5,0.25,27,141.2
5036,B-2,1038.75,0.25,22,141.2
5037,C5,1039.0,0.5,51,141.2
5038,B-1,1039.0,0.25,26,141.2
5039,F#4,1039.0,1.0,36,141.2
5040,E-4,1039.0,1.0,36,141.2
5041,B-2,1039.25,0.25,22,141.2
5042,A4,1039.5,0.5,44,141.2
5043,B-1,1039.5,0.25,25,141.2
5044,B-2,1039.75,0.25,22,141.2
5045,B-1,1040.0,0.25,25,141.2
5046,B-4,1040.0,1.5,44,141.2
5047,F4,1040.0,1.5,44,141.2
5048,D4,1040.0,1.5,44,141.2
5049,B-2,1040.25,0.25,21,141.2
5050,B-1,1040.5,0.25,24,141.2
5051,B-2,1040.75,0.25,20,141.2
5052,B-1,1041.0,0.25,24,141.2
5053,B-2,1041.25,0.25,20,141.2
5054,B-1,1041.5,0.25,23,141.2
5055,B-2,1041.75,0.25,20,141.2
5056,B4,1042.0,0.5,43,141.2
5057,B-1,1042.0,0.25,22,141.2
5058,F#4,1042.0,1.0,30,141.2
5059,E-4,1042.0,1.0,30,141.2
5060,B-2,1042.25,0.25,20,141.2
5061,B-4,1042.5,0.5,39,141.2
5062,B-1,1042.5,0.25,22,141.2
5063,B-2,1042.75,0.25,18,141.2
5064,B4,1043.0,0.5,44,141.2
5065,B-1,1043.0,0.25,22,141.2
5066,F#4,1043.0,1.0,31,141.2
5067,E-4,1043.0,1.0,31,141.2
5068,B-2,1043.25,0.25,19,141.2
5069,A4,1043.5,0.5,39,141.2
5070,B-1,1043.5,0.25,22,141.2
5071,B-2,1043.75,0.25,19,141.2
5072,B-3,1044.0,1.5,81,141.2
5073,B-4,1044.0,1.5,81,141.2
5074,B-1,1044.0,1.5,61,141.2
5075,B-2,1044.0,1.5,61,141.2
5076,C4,1045.5,0.25,73,141.2
5077,C5,1045.5,0.25,73,141.2
5078,C2,1045.5,0.25,54,141.2
5079,C3,1045.5,0.25,54,141.2
5080,D4,1046.0,1.5,82,141.2
5081,D5,1046.0,1.5,82,141.2
5082,D2,1046.0,1.5,61,141.2
5083,D3,1046.0,1.5,61,141.2
5084,E-4,1047.5,0.25,74,141.2
5085,E-5,1047.5,0.25,74,141.2
5086,E-2,1047.5,0.25,55,141.2
5087,E-3,1047.5,0.25,55,141.2
5088,F4,1048.0,1.5,84,141.2
5089,F5,1048.0,1.5,84,141.2
5090,F2,1048.0,1.5,62,141.2
5091,F3,1048.0,1.5,62,141.2
5092,G4,1049.5,0.25,68,141.2
5093,G5,1049.5,0.25,68,141.2
5094,G2,1049.5,0.25,52,141.2
5095,G3,1049.5,0.25,52,141.2
5096,A4,1050.0,0.25,78,141.2
5097,A5,1050.0,0.25,78,141.2
5098,A2,1050.0,0.25,58,141.2
5099,A3,1050.0,0.25,58,141.2
5100,B-4,1050.5,0.25,74,141.2
5101,B-5,1050.5,0.25,74,141.2
5102,B-2,1050.5,0.25,55,141.2
5103,B-3,1050.5,0.25,55,141.2
5104,C5,1051.0,0.25,80,141.2
5105,C6,1051.0,0.25,80,141.2
5106,C3,1051.0,0.25,60,141.2
5107,C4,1051.0,0.25,60,141.2
5108,D5,1051.5,0.25,76,141.2
5109,D6,1051.5,0.25,76,141.2
5110,D3,1051.5,0.25,56,141.2
5111,D4,1051.5,0.25,56,141.2
5112,E-5,1052.0,1.5,88,141.2
5113,E-6,1052.0,1.5,88,141.2
5114,E-3,1052.0,1.5,66,141.2
5115,E-4,1052.0,1.5,66,141.2
5116,D5,1053.5,0.25,78,141.2
5117,D6,1053.5,0.25,78,141.2
5118,D3,1053.5,0.25,58,141.2
5119,D4,1053.5,0.25,58,141.2
5120,C5,1054.0,1.5,86,141.2
5121,C6,1054.0,1.5,86,141.2
5122,C3,1054.0,1.5,64,141.2
5123,C4,1054.0,1.5,64,141.2
5124,B-4,1055.5,0.25,76,141.2
5125,B-5,1055.5,0.25,76,141.2
5126,B-2,1055.5,0.25,56,141.2
5127,B-3,1055.5,0.25,56,141.2
5128,A4,1056.0,1.5,85,141.2
5129,A5,1056.0,1.5,85,141.2
5130,A2,1056.0,1.5,64,141.2
5131,A3,1056.0,1.5,64,141.2
5132,G4,1057.5,0.25,68,141.2
5133,G5,1057.5,0.25,68,141.2
5134,G2,1057.5,0.25,52,141.2
5135,G3,1057.5,0.25,52,141.2
5136,F4,1058.0,0.25,76,141.2
5137,F5,1058.0,0.25,76,141.2
5138,F2,1058.0,0.25,57,141.2
5139,F3,1058.0,0.25,57,141.2
5140,E-4,1058.5,0.25,72,141.2
5141,E-5,1058.5,0.25,72,141.2
5142,E-2,1058.5,0.25,54,141.2
5143,E-3,1058.5,0.25,54,141.2
5144,D4,1059.0,0.25,76,141.2
5145,D5,1059.0,0.25,76,141.2
5146,D2,1059.0,0.25,57,141.2
5147,D3,1059.0,0.25,57,141.2
5148,C4,1059.5,0.25,70,141.2
5149,C5,1059.5,0.25,70,141.2
5150,C2,1059.5,0.25,52,141.2
5151,C3,1059.5,0.25,52,141.2
5152,B-3,1060.0,0.25,84,141.2
5153,B-4,1060.0,0.25,84,141.2
5154,B-1,1060.0,0.25,64,141.2
5155,B-2,1060.0,0.25,64,141.2
5156,A4,1061.0,0.25,53,141.2
5157,F3,1061.0,0.25,36,141.2
5158,C4,1061.0,0.25,36,141.2
5159,E-4,1061.0,0.25,36,141.2
5160,G#4,1061.25,0.25,45,141.2
5161,A4,1061.5,0.25,53,141.2
5162,F4,1061.75,0.25,43,141.2
5163,B-4,1062.0,0.25,57,141.2
5164,B-3,1062.0,0.25,45,141.2
5165,D4,1062.0,0.25,45,141.2
5166,A5,1063.0,0.25,53,141.2
5167,F4,1063.0,0.25,36,141.2
5168,C5,1063.0,0.25,36,141.2
5169,E-5,1063.0,0.25,36,141.2
5170,G#5,1063.25,0.25,45,141.2
5171,A5,1063.5,0.25,53,141.2
5172,F5,1063.75,0.25,43,141.2
5173,B-5,1064.0,0.25,57,141.2
5174,B-4,1064.0,0.25,45,141.2
5175,D5,1064.0,0.25,45,141.2
5176,A5,1066.0,1.0,80,141.2
5177,F5,1066.0,1.0,80,141.2
5178,E-5,1066.0,1.0,80,141.2
5179,C5,1066.0,1.0,80,141.2
5180,A4,1066.0,1.0,80,141.2
5181,F2,1066.0,1.0,62,141.2
5182,F3,1066.0,1.0,62,141.2
5183,B-5,1068.0,1.0,86,141.2
5184,F5,1068.0,1.0,86,141.2
5185,D5,1068.0,1.0,86,141.2
5186,B-4,1068.0,1.0,86,141.2
5187,B-1,1068.0,1.0,70,141.2
5188,B-2,1068.0,1.0,70,141.2
,note_name,start_time,duration,velocity,tempo
0,E-3,0.0,0.45,19,65.1
1,G3,0.0,0.45,19,65.1
2,B-3,0.0,0.45,19,65.1
3,E-3,0.5,0.45,16,65.1
4,G3,0.5,0.45,16,65.1
5,B-3,0.5,0.45,16,65.1
6,E-3,1.0,0.45,16,65.1
7,G3,1.0,0.45,16,65.1
8,B-3,1.0,0.45,16,65.1
9,E-3,1.5,0.45,18,65.1
10,G3,1.5,0.45,18,65.1
11,B-3,1.5,0.45,18,65.1
12,E-3,2.0,0.45,16,65.1
13,G3,2.0,0.45,16,65.1
14,B-3,2.0,0.45,16,65.1
15,E-3,2.5,0.45,16,65.1
16,G3,2.5,0.45,16,65.1
17,B-3,2.5,0.45,16,65.1
18,G4,3.0,0.375,38,65.1
19,E-3,3.0,0.45,19,65.1
20,G3,3.0,0.45,19,65.1
21,B-3,3.0,0.45,19,65.1
22,G#4,3.375,0.125,36,65.1
23,G4,3.5,0.25,39,65.1
24,E-3,3.5,0.45,16,65.1
25,G3,3.5,0.45,16,65.1
26,B-3,3.5,0.45,16,65.1
27,F4,3.75,0.25,36,65.1
28,G4,4.0,0.25,40,65.1
29,E-3,4.0,0.45,16,65.1
30,G3,4.0,0.45,16,65.1
31,B-3,4.0,0.45,16,65.1
32,G#4,4.25,0.25,36,65.1
33,A4,4.5,1.5,44,65.1
34,E-3,4.5,0.45,19,65.1
35,G3,4.5,0.45,19,65.1
36,B-3,4.5,0.45,19,65.1
37,E-3,5.0,0.45,16,65.1
38,G3,5.0,0.45,16,65.1
39,B-3,5.0,0.45,16,65.1
40,E-3,5.5,0.45,16,65.1
41,G3,5.5,0.45,16,65.1
42,B-3,5.5,0.45,16,65.1
43,B-4,6.0,1.875,51,65.1
44,E-3,6.0,0.45,18,65.1
45,G3,6.0,0.45,18,65.1
46,B-3,6.0,0.45,18,65.1
47,E-3,6.5,0.45,16,65.1
48,G3,6.5,0.45,16,65.1
49,B-3,6.5,0.45,16,65.1
50,E-3,7.0,0.45,16,65.1
51,G3,7.0,0.45,16,65.1
52,B-3,7.0,0.45,16,65.1
53,E-3,7.5,0.45,19,65.1
54,G3,7.5,0.45,19,65.1
55,B-3,7.5,0.45,19,65.1
56,C5,7.875,0.125,39,65.1
57,B-4,8.0,0.25,49,65.1
58,E-3,8.0,0.45,16,65.1
59,G3,8.0,0.45,16,65.1
60,B-3,8.0,0.45,16,65.1
61,A4,8.25,0.25,42,65.1
62,B-4,8.5,0.25,51,65.1
63,E-3,8.5,0.45,16,65.1
64,G3,8.5,0.45,16,65.1
65,B-3,8.5,0.45,16,65.1
66,B4,8.75,0.25,46,65.1
67,B4,9.0,0.812,50,65.1
68,D3,9.0,0.45,19,65.1
69,G#3,9.0,0.45,19,65.1
70,B-3,9.0,0.45,19,65.1
71,D3,9.5,0.45,16,65.1
72,G#3,9.5,0.45,16,65.1
73,B-3,9.5,0.45,16,65.1
74,C5,9.75,0.062,39,65.1
75,A4,9.875,1.0,39,65.1
76,B4,9.875,1.0,39,65.1
77,D5,10.0,0.375,53,65.1
78,D3,10.0,0.45,16,65.1
79,G#3,10.0,0.45,16,65.1
80,B-3,10.0,0.45,16,65.1
81,C5,10.375,0.125,44,65.1
82,F4,10.5,1.875,55,65.1
83,D3,10.5,0.45,18,65.1
84,G#3,10.5,0.45,18,65.1
85,B-3,10.5,0.45,18,65.1
86,D3,11.0,0.45,16,65.1
87,G#3,11.0,0.45,16,65.1
88,B-3,11.0,0.45,16,65.1
89,D3,11.5,0.45,16,65.1
90,G#3,11.5,0.45,16,65.1
91,B-3,11.5,0.45,16,65.1
92,D3,12.0,0.45,19,65.1
93,G#3,12.0,0.45,19,65.1
94,B-3,12.0,0.45,19,65.1
95,G4,12.375,0.125,39,65.1
96,F4,12.5,0.25,46,65.1
97,D3,12.5,0.45,16,65.1
98,G#3,12.5,0.45,16,65.1
99,B-3,12.5,0.45,16,65.1
100,E4,12.75,0.25,42,65.1
101,F4,13.0,0.25,49,65.1
102,D3,13.0,0.45,16,65.1
103,G#3,13.0,0.45,16,65.1
104,B-3,13.0,0.45,16,65.1
105,G4,13.25,0.25,46,65.1
106,G#4,13.5,1.75,55,65.1
107,F3,13.5,0.45,19,65.1
108,D3,13.5,0.45,19,65.1
109,G#3,13.5,0.45,19,65.1
110,B-3,13.5,0.45,19,65.1
111,F3,14.0,0.45,16,65.1
112,D3,14.0,0.45,16,65.1
113,G#3,14.0,0.45,16,65.1
114,B-3,14.0,0.45,16,65.1
115,F3,14.5,0.45,16,65.1
116,D3,14.5,0.45,16,65.1
117,G#3,14.5,0.45,16,65.1
118,B-3,14.5,0.45,16,65.1
119,F3,15.0,0.45,18,65.1
120,D3,15.0,0.45,18,65.1
121,G#3,15.0,0.45,18,65.1
122,B-3,15.0,0.45,18,65.1
123,G4,15.25,0.25,47,65.1
124,F4,15.5,0.25,48,65.1
125,F3,15.5,0.45,16,65.1
126,D3,15.5,0.45,16,65.1
127,G#3,15.5,0.45,16,65.1
128,B-3,15.5,0.45,16,65.1
129,E4,15.75,0.25,44,65.1
130,F4,16.0,0.25,49,65.1
131,F3,16.0,0.45,16,65.1
132,D3,16.0,0.45,16,65.1
133,G#3,16.0,0.45,16,65.1
134,B-3,16.0,0.45,16,65.1
135,G4,16.25,0.25,44,65.1
136,G#4,16.5,0.25,50,65.1
137,F3,16.5,0.45,19,65.1
138,D3,16.5,0.45,19,65.1
139,G#3,16.5,0.45,19,65.1
140,B-3,16.5,0.45,19,65.1
141,B-4,16.75,0.25,45,65.1
142,C5,17.0,0.25,54,65.1
143,F3,17.0,0.45,16,65.1
144,D3,17.0,0.45,16,65.1
145,G#3,17.0,0.45,16,65.1
146,B-3,17.0,0.45,16,65.1
147,B4,17.25,0.25,45,65.1
148,C5,17.5,0.25,48,65.1
149,F3,17.5,0.45,16,65.1
150,D3,17.5,0.45,16,65.1
151,G#3,17.5,0.45,16,65.1
152,B-3,17.5,0.45,16,65.1
153,G#4,17.75,0.25,39,65.1
154,F#4,18.0,1.5,58,65.1
155,E-3,18.0,0.45,19,65.1
156,G#3,18.0,0.45,19,65.1
157,B-3,18.0,0.45,19,65.1
158,E-3,18.5,0.45,16,65.1
159,G#3,18.5,0.45,16,65.1
160,B-3,18.5,0.45,16,65.1
161,E-3,19.0,0.45,16,65.1
162,G#3,19.0,0.45,16,65.1
163,B-3,19.0,0.45,16,65.1
164,G4,19.5,1.75,55,65.1
165,E-3,19.5,0.45,18,65.1
166,G3,19.5,0.45,18,65.1
167,B-3,19.5,0.45,18,65.1
168,E-3,20.0,0.45,16,65.1
169,G3,20.0,0.45,16,65.1
170,B-3,20.0,0.45,16,65.1
171,E-3,20.5,0.45,16,65.1
172,G3,20.5,0.45,16,65.1
173,B-3,20.5,0.45,16,65.1
174,E-3,21.0,0.5,36,65.1
175,E-4,21.25,0.25,55,65.1
176,G4,21.5,0.25,59,65.1
177,B-2,21.5,0.5,40,65.1
178,B-4,21.75,0.25,62,65.1
179,E-5,22.0,0.25,66,65.1
180,G#2,22.0,0.5,43,65.1
181,G5,22.25,0.25,69,65.1
182,B-5,22.5,2.0,72,65.1
183,G2,22.5,0.5,48,65.1
184,G2,23.0,0.45,31,65.1
185,B-2,23.0,0.45,31,65.1
186,E-3,23.0,0.45,31,65.1
187,G2,23.5,0.45,31,65.1
188,B-2,23.5,0.45,31,65.1
189,E-3,23.5,0.45,31,65.1
190,G2,24.0,0.45,31,65.1
191,B-2,24.0,0.45,31,65.1
192,E-3,24.0,0.45,31,65.1
193,G5,24.5,0.5,69,65.1
194,G2,24.5,0.45,29,65.1
195,B-2,24.5,0.45,29,65.1
196,E-3,24.5,0.45,29,65.1
197,E-5,25.0,0.5,65,65.1
198,G2,25.0,0.45,29,65.1
199,B-2,25.0,0.45,29,65.1
200,E-3,25.0,0.45,29,65.1
201,B-4,25.5,0.5,65,65.1
202,G2,25.5,0.45,31,65.1
203,B-2,25.5,0.45,31,65.1
204,E-3,25.5,0.45,31,65.1
205,G4,26.0,0.5,68,65.1
206,G2,26.0,0.45,27,65.1
207,B-2,26.0,0.45,27,65.1
208,E-3,26.0,0.45,27,65.1
209,E-4,26.5,0.5,66,65.1
210,G2,26.5,0.45,27,65.1
211,B-2,26.5,0.45,27,65.1
212,E-3,26.5,0.45,27,65.1
213,C4,27.0,1.5,72,65.1
214,G#2,27.0,0.45,33,65.1
215,C3,27.0,0.45,33,65.1
216,E-3,27.0,0.45,33,65.1
217,G#2,27.5,0.45,29,65.1
218,C3,27.5,0.45,29,65.1
219,E-3,27.5,0.45,29,65.1
220,G#2,28.0,0.45,29,65.1
221,C3,28.0,0.45,29,65.1
222,E-3,28.0,0.45,29,65.1
223,C6,28.5,2.0,72,65.1
224,G#2,28.5,0.45,33,65.1
225,C3,28.5,0.45,33,65.1
226,E3,28.5,0.45,33,65.1
227,G#2,29.0,0.45,29,65.1
228,C3,29.0,0.45,29,65.1
229,E3,29.0,0.45,29,65.1
230,G#2,29.5,0.45,29,65.1
231,C3,29.5,0.45,29,65.1
232,E3,29.5,0.45,29,65.1
233,G#2,30.0,0.45,33,65.1
234,C3,30.0,0.45,33,65.1
235,F3,30.0,0.45,33,65.1
236,B-5,30.5,0.25,67,65.1
237,G#2,30.5,0.45,27,65.1
238,C3,30.5,0.45,27,65.1
239,F3,30.5,0.45,27,65.1
240,G#5,30.75,0.25,61,65.1
241,G5,31.0,0.25,67,65.1
242,G#2,31.0,0.45,27,65.1
243,C3,31.0,0.45,27,65.1
244,F3,31.0,0.45,27,65.1
245,F5,31.25,0.229,60,65.1
246,F5,31.5,0.5,67,65.1
247,B-2,31.5,0.45,31,65.1
248,E-3,31.5,0.45,31,65.1
249,G3,31.5,0.45,31,65.1
250,E-5,32.0,1.5,60,65.1
251,B-2,32.0,0.45,25,65.1
252,E-3,32.0,0.45,25,65.1
253,G3,32.0,0.45,25,65.1
254,B-2,32.5,0.45,25,65.1
255,E-3,32.5,0.45,25,65.1
256,G3,32.5,0.45,25,65.1
257,B-2,33.0,0.45,22,65.1
258,E-3,33.0,0.45,22,65.1
259,G3,33.0,0.45,22,65.1
260,E-5,33.5,0.5,56,65.1
261,B-2,33.5,0.45,19,65.1
262,E-3,33.5,0.45,19,65.1
263,G3,33.5,0.45,19,65.1
264,E-5,34.0,0.5,54,65.1
265,B-2,34.0,0.45,18,65.1
266,E-3,34.0,0.45,18,65.1
267,G3,34.0,0.45,18,65.1
268,E-5,34.5,1.0,48,65.1
269,F5,34.5,1.0,48,65.1
270,B-2,34.5,0.45,21,65.1
271,F3,34.5,0.45,21,65.1
272,G#3,34.5,0.45,21,65.1
273,E-5,34.625,1.0,50,65.1
274,F5,34.625,1.0,50,65.1
275,E-5,34.75,1.0,48,65.1
276,F5,34.75,1.0,48,65.1
277,E-5,34.875,1.0,47,65.1
278,D5,34.875,1.0,47,65.1
279,E-5,34.958,0.042,43,65.1
280,F5,35.0,0.5,54,65.1
281,B-2,35.0,0.45,18,65.1
282,F3,35.0,0.45,18,65.1
283,G#3,35.0,0.45,18,65.1
284,D5,35.5,0.5,47,65.1
285,B-2,35.5,0.45,17,65.1
286,F3,35.5,0.45,17,65.1
287,G#3,35.5,0.45,17,65.1
288,E-5,36.0,0.5,47,65.1
289,E-3,36.0,1.0,28,65.1
290,G3,36.0,1.0,28,65.1
291,B-4,36.5,0.45,43,65.1
292,B-4,37.0,0.45,43,65.1
293,B-4,37.5,0.5,49,65.1
294,C5,38.0,0.5,41,65.1
295,G#4,38.5,0.5,32,65.1
296,E-4,39.0,1.0,36,65.1
297,G4,39.0,0.5,43,65.1
298,B-2,39.0,1.5,26,65.1
299,B-3,39.0,1.0,31,65.1
300,G#4,39.5,0.5,37,65.1
301,G#3,40.0,0.5,29,65.1
302,D4,40.0,0.5,30,65.1
303,F4,40.0,0.5,30,65.1
304,E-4,40.5,0.5,47,65.1
305,E-3,40.5,1.0,28,65.1
306,G3,40.5,1.0,28,65.1
307,B-3,41.0,0.45,38,65.1
308,B-3,41.5,0.45,38,65.1
309,B-3,42.0,1.0,30,65.1
310,C4,42.0,1.0,30,65.1
311,B-3,42.125,1.0,32,65.1
312,C4,42.125,1.0,32,65.1
313,B-3,42.25,1.0,30,65.1
314,C4,42.25,1.0,30,65.1
315,B-3,42.375,1.0,30,65.1
316,A3,42.375,1.0,30,65.1
317,B-3,42.458,0.042,27,65.1
318,C4,42.5,0.5,34,65.1
319,G#3,43.0,0.5,28,65.1
320,E-3,43.5,1.0,28,65.1
321,B-2,43.5,1.0,31,65.1
322,B-1,43.5,1.5,26,65.1
323,G3,43.5,1.0,30,65.1
324,G#3,43.5,1.0,30,65.1
325,G3,43.625,1.0,32,65.1
326,G#3,43.625,1.0,32,65.1
327,G3,43.75,1.0,30,65.1
328,G#3,43.75,1.0,30,65.1
329,G3,43.875,1.0,30,65.1
330,F3,43.875,1.0,30,65.1
331,G3,43.958,0.042,27,65.1
332,G#3,44.0,0.5,34,65.1
333,F3,44.49,0.5,28,65.1
334,G#2,44.5,0.5,24,65.1
335,F3,44.5,0.5,24,65.1
336,E-3,45.0,1.0,28,65.1
337,E-2,45.0,1.0,22,65.1
338,G2,45.0,1.0,22,65.1
339,D3,46.0,0.5,36,65.1
340,F3,46.0,0.5,36,65.1
341,B-1,46.0,0.5,30,65.1
342,G#2,46.0,0.5,30,65.1
343,E-3,46.5,1.0,28,65.1
344,E-2,46.5,1.0,24,65.1
345,G2,46.5,1.0,24,65.1
346,D3,47.5,0.5,37,65.1
347,F3,47.5,0.5,37,65.1
348,B-1,47.5,0.5,31,65.1
349,G#2,47.5,0.5,31,65.1
350,E-3,48.0,1.0,28,65.1
351,E-2,48.0,1.0,23,65.1
352,G2,48.0,1.0,23,65.1
353,D3,49.0,0.458,38,65.1
354,F3,49.0,0.458,38,65.1
355,B-3,49.0,0.458,38,65.1
356,B-1,49.0,0.458,32,65.1
357,G#2,49.0,0.458,32,65.1
358,D3,49.5,1.5,25,65.1
359,F3,49.5,1.5,25,65.1
360,B-3,49.5,1.5,25,65.1
361,E-2,49.5,1.479,23,65.1
362,G#2,49.5,1.479,23,65.1
363,E-3,51.0,1.0,25,65.1
364,E-2,51.0,1.0,21,65.1
365,G2,51.0,1.0,21,65.1
366,G3,52.5,0.5,32,65.1
367,B-3,53.0,0.5,37,65.1
368,E-4,53.5,0.479,42,65.1
369,E-2,54.0,0.5,32,65.1
370,G3,54.0,1.979,40,65.1
371,B-3,54.0,1.979,40,65.1
372,E-4,54.0,1.979,40,65.1
373,G4,54.0,1.979,40,65.1
374,G2,54.5,0.5,32,65.1
375,B-2,55.0,0.5,32,65.1
376,E-3,55.5,0.5,36,65.1
377,G3,56.0,0.5,38,65.1
378,B-3,56.0,0.479,38,65.1
379,E-4,56.0,0.479,38,65.1
380,G4,56.0,0.479,38,65.1
381,B-3,56.5,0.479,40,65.1
382,E-4,56.5,0.479,38,65.1
383,G4,56.5,0.479,38,65.1
384,E-4,57.0,1.0,23,65.1
385,G4,57.0,1.0,30,65.1
386,G#4,57.0,1.0,30,65.1
387,B-2,57.0,1.0,40,65.1
388,B-3,57.0,1.0,40,65.1
389,G4,57.125,1.0,32,65.1
390,G#4,57.125,1.0,32,65.1
391,G4,57.25,1.0,30,65.1
392,G#4,57.25,1.0,30,65.1
393,G4,57.375,1.0,30,65.1
394,F4,57.375,1.0,30,65.1
395,G4,57.458,0.042,27,65.1
396,F4,57.5,0.5,42,65.1
397,G#4,57.5,0.5,42,65.1
398,B-3,58.0,0.479,34,65.1
399,D4,58.0,0.479,34,65.1
400,F4,58.0,0.479,34,65.1
401,B-2,58.0,0.479,36,65.1
402,G#3,58.0,0.479,36,65.1
403,B-3,58.5,2.0,28,65.1
404,E-3,58.5,2.0,32,65.1
405,G#3,58.5,1.5,38,65.1
406,D4,58.5,1.5,31,65.1
407,F4,58.5,1.5,31,65.1
408,E-4,60.0,0.5,32,65.1
409,G3,60.0,0.5,30,65.1
410,G3,61.5,0.5,40,65.1
411,B-3,61.5,0.5,40,65.1
412,B-3,62.0,0.5,44,65.1
413,E-4,62.0,0.5,44,65.1
414,E-4,62.5,0.5,50,65.1
415,G4,62.5,0.5,50,65.1
416,E-2,63.0,0.5,37,65.1
417,G4,63.0,3.5,56,65.1
418,B-4,63.0,3.5,56,65.1
419,G2,63.5,0.5,40,65.1
420,B-2,64.0,0.5,44,65.1
421,E-3,64.5,0.5,49,65.1
422,E-5,65.0,0.456,70,65.1
423,G3,65.0,0.5,53,65.1
424,E-5,65.5,0.456,64,65.1
425,B-3,65.5,0.479,57,65.1
426,E-5,66.0,0.475,67,65.1
427,E-4,66.0,0.5,62,65.1
428,C4,66.5,0.5,58,65.1
429,F#4,66.5,0.5,48,65.1
430,A4,66.5,0.5,48,65.1
431,E-5,66.5,0.5,48,65.1
432,B-3,67.0,0.479,54,65.1
433,E-5,67.0,0.475,55,65.1
434,F#4,67.0,0.475,55,65.1
435,B-4,67.0,0.475,55,65.1
436,F#4,67.5,1.0,45,65.1
437,A3,67.5,1.5,53,65.1
438,C5,67.5,1.5,56,65.1
439,E-5,67.5,1.5,56,65.1
440,F4,68.5,0.5,38,65.1
441,G#3,69.0,1.5,43,65.1
442,F#4,69.5,0.5,34,65.1
443,C5,69.5,1.0,37,65.1
444,E-5,69.5,1.0,37,65.1
445,F4,70.0,0.5,29,65.1
446,B-3,70.5,1.5,40,65.1
447,F#4,71.0,0.5,34,65.1
448,B-4,71.0,1.0,37,65.1
449,C#5,71.0,1.0,37,65.1
450,F4,71.5,0.5,27,65.1
451,E-3,72.0,1.5,35,65.1
452,C#5,72.5,0.5,34,65.1
453,E-4,72.5,1.0,37,65.1
454,F#4,72.5,1.0,37,65.1
455,B4,73.0,0.5,34,65.1
456,E3,73.5,1.5,35,65.1
457,B4,74.0,0.5,34,65.1
458,C#4,74.0,1.0,37,65.1
459,G4,74.0,1.0,37,65.1
460,B-4,74.5,0.5,34,65.1
461,F3,75.0,1.5,35,65.1
462,B-4,75.5,0.5,34,65.1
463,C4,75.5,1.0,37,65.1
464,E-4,75.5,1.0,37,65.1
465,A4,76.0,0.5,34,65.1
466,B-1,76.5,4.5,35,65.1
467,D4,76.5,1.0,34,65.1
468,B-4,76.5,1.0,34,65.1
469,B-2,77.0,0.45,29,65.1
470,B-2,77.5,0.45,29,65.1
471,B-2,78.0,0.45,32,65.1
472,B-2,78.5,0.45,29,65.1
473,B-2,79.0,0.45,29,65.1
474,D5,79.5,1.0,57,65.1
475,B-2,79.5,0.45,32,65.1
476,B-2,80.0,0.45,27,65.1
477,C5,80.5,0.25,48,65.1
478,B-2,80.5,0.45,27,65.1
479,B-4,80.75,0.25,47,65.1
480,B-4,81.0,0.5,54,65.1
481,B-2,81.0,0.45,32,65.1
482,C4,81.0,1.0,32,65.1
483,E-4,81.0,1.0,32,65.1
484,A4,81.5,0.5,47,65.1
485,B-2,81.5,0.45,28,65.1
486,E-4,82.0,0.479,37,65.1
487,B-2,82.0,0.45,28,65.1
488,B-3,82.0,0.25,47,65.1
489,G4,82.0,0.25,47,65.1
490,A3,82.25,0.229,40,65.1
491,F4,82.25,0.229,40,65.1
492,A3,82.5,1.0,48,65.1
493,E-4,82.5,3.0,35,65.1
494,F4,82.5,2.0,50,65.1
495,B-2,82.5,0.45,32,65.1
496,B-2,83.0,0.45,28,65.1
497,G3,83.5,0.25,45,65.1
498,B-2,83.5,0.45,28,65.1
499,F3,83.75,0.229,38,65.1
500,F3,84.0,0.75,51,65.1
501,B-2,84.0,0.45,32,65.1
502,G4,84.5,0.5,44,65.1
503,B-2,84.5,0.45,28,65.1
504,E-3,84.75,0.25,38,65.1
505,D3,85.0,0.25,38,65.1
506,A4,85.0,0.5,46,65.1
507,B-2,85.0,0.45,28,65.1
508,E-3,85.25,0.25,38,65.1
509,B-4,85.5,0.25,51,65.1
510,D3,85.5,1.0,51,65.1
511,B-2,85.5,0.45,32,65.1
512,C5,85.75,0.083,44,65.1
513,B-4,85.833,0.083,38,65.1
514,A4,85.917,0.083,38,65.1
515,B-4,86.0,0.25,51,65.1
516,B-2,86.0,0.45,28,65.1
517,C5,86.25,0.25,47,65.1
518,D5,86.5,0.25,49,65.1
519,B-2,86.5,0.45,28,65.1
520,E-5,86.75,0.188,50,65.1
521,D5,86.938,0.062,48,65.1
522,F5,87.0,1.5,57,65.1
523,B-2,87.0,0.45,32,65.1
524,B-2,87.5,0.45,28,65.1
525,B-2,88.0,0.45,28,65.1
526,E5,88.5,0.25,47,65.1
527,B-2,88.5,0.45,32,65.1
528,F5,88.75,0.25,52,65.1
529,G5,89.0,0.25,53,65.1
530,B-2,89.0,0.45,28,65.1
531,F5,89.25,0.25,51,65.1
532,E-5,89.5,0.25,53,65.1
533,B-2,89.5,0.45,28,65.1
534,D5,89.75,0.229,51,65.1
535,D5,90.0,0.5,57,65.1
536,B-2,90.0,0.45,32,65.1
537,E-4,90.0,1.0,32,65.1
538,G4,90.0,1.0,32,65.1
539,C5,90.5,0.5,47,65.1
540,B-2,90.5,0.45,28,65.1
541,B-2,91.0,0.45,28,65.1
542,D4,91.0,0.25,43,65.1
543,B-4,91.0,0.25,43,65.1
544,F4,91.0,0.25,43,65.1
545,C4,91.25,0.229,36,65.1
546,A4,91.25,0.229,36,65.1
547,E-4,91.25,0.229,36,65.1
548,B-2,91.5,0.45,32,65.1
549,C4,91.5,1.0,42,65.1
550,A4,91.5,1.0,42,65.1
551,E-4,91.5,1.0,42,65.1
552,B-2,92.0,0.45,28,65.1
553,E-4,92.5,0.479,35,65.1
554,B-2,92.5,0.45,28,65.1
555,B-3,92.5,0.25,48,65.1
556,G4,92.5,0.25,48,65.1
557,F4,92.75,0.25,40,65.1
558,A3,92.75,0.25,40,65.1
559,E-4,93.0,1.5,35,65.1
560,F4,93.0,0.5,54,65.1
561,A3,93.0,0.25,51,65.1
562,B-2,93.0,0.45,32,65.1
563,G3,93.25,0.25,38,65.1
564,F3,93.5,0.25,38,65.1
565,G4,93.5,0.5,44,65.1
566,B-2,93.5,0.45,28,65.1
567,E-3,93.75,0.25,38,65.1
568,D3,94.0,0.25,38,65.1
569,A4,94.0,0.5,46,65.1
570,B-2,94.0,0.45,28,65.1
571,C3,94.25,0.25,38,65.1
572,B-2,94.5,1.0,32,65.1
573,D4,94.5,0.5,54,65.1
574,B-4,94.5,0.5,54,65.1
575,C#5,95.0,0.5,40,65.1
576,D5,95.5,0.5,44,65.1
577,B-3,96.0,1.0,25,65.1
578,F3,96.0,1.0,25,65.1
579,D3,96.0,1.0,25,65.1
580,E5,96.5,0.5,41,65.1
581,F5,97.0,0.5,44,65.1
582,D4,97.5,1.0,25,65.1
583,F4,97.5,1.0,25,65.1
584,B-4,97.5,1.0,25,65.1
585,A5,98.0,0.5,40,65.1
586,B-5,98.5,0.5,44,65.1
587,E-4,99.0,1.0,25,65.1
588,G4,99.0,1.0,25,65.1
589,B-4,99.0,1.0,25,65.1
590,F#5,99.5,0.5,41,65.1
591,G5,100.0,0.5,44,65.1
592,E-4,100.5,1.0,25,65.1
593,B-3,100.5,1.0,25,65.1
594,G3,100.5,1.0,25,65.1
595,D5,101.0,0.5,40,65.1
596,E-5,101.5,0.5,42,65.1
597,E3,102.0,1.0,25,65.1
598,C4,102.0,1.0,25,65.1
599,B-3,102.0,1.0,25,65.1
600,B4,102.5,0.5,38,65.1
601,C5,103.0,0.5,42,65.1
602,F3,103.5,2.979,35,65.1
603,F5,104.0,1.25,59,65.1
604,D4,104.0,0.5,26,65.1
605,B-3,104.0,0.5,26,65.1
606,D4,104.5,0.5,28,65.1
607,B-3,104.5,0.5,28,65.1
608,B-3,105.0,0.5,36,65.1
609,D4,105.0,0.5,36,65.1
610,G5,105.25,0.125,60,65.1
611,A5,105.375,0.125,62,65.1
612,B-5,105.5,0.125,64,65.1
613,B-3,105.5,0.5,38,65.1
614,D4,105.5,0.5,38,65.1
615,C6,105.625,0.125,66,65.1
616,D6,105.75,0.125,68,65.1
617,E-6,105.875,0.125,70,65.1
618,F6,106.0,1.0,72,65.1
619,B-3,106.0,0.5,42,65.1
620,D4,106.0,0.5,42,65.1
621,F3,106.5,1.5,37,65.1
622,E-4,106.5,0.5,40,65.1
623,A3,106.5,0.5,40,65.1
624,E-6,107.0,0.5,70,65.1
625,A3,107.0,0.5,36,65.1
626,E-4,107.0,0.5,36,65.1
627,C6,107.5,0.5,66,65.1
628,A3,107.5,0.5,35,65.1
629,E-4,107.5,0.5,35,65.1
630,B-5,108.0,0.625,58,65.1
631,D4,108.0,1.0,39,65.1
632,B-3,108.0,1.0,39,65.1
633,A5,108.625,0.125,50,65.1
634,D6,108.75,0.138,57,65.1
635,C6,108.875,0.138,54,65.1
636,B-5,109.0,0.138,53,65.1
637,A5,109.125,0.138,51,65.1
638,G5,109.25,0.138,49,65.1
639,F5,109.375,0.138,47,65.1
640,E5,109.5,0.138,53,65.1
641,F5,109.625,0.138,51,65.1
642,B-5,109.75,0.138,59,65.1
643,A5,109.875,0.138,54,65.1
644,G5,110.0,0.138,54,65.1
645,F5,110.125,0.138,52,65.1
646,E-5,110.25,0.138,50,65.1
647,D5,110.375,0.138,50,65.1
648,C#5,110.5,0.138,52,65.1
649,D5,110.625,0.138,46,65.1
650,G5,110.75,0.138,56,65.1
651,F5,110.875,0.138,55,65.1
652,E-5,111.0,0.138,54,65.1
653,D5,111.125,0.138,52,65.1
654,C5,111.25,0.138,50,65.1
655,B-4,111.375,0.138,48,65.1
656,A4,111.5,0.138,46,65.1
657,B-4,111.625,0.138,45,65.1
658,E-5,111.75,0.138,52,65.1
659,D5,111.875,0.138,51,65.1
660,C5,112.0,0.138,49,65.1
661,B-4,112.125,0.138,47,65.1
662,A4,112.25,0.138,44,65.1
663,G4,112.375,0.138,42,65.1
664,E4,112.5,0.125,39,65.1
665,F2,112.5,2.979,35,65.1
666,F4,112.625,0.125,39,65.1
667,F#4,112.75,0.125,40,65.1
668,G4,112.875,0.125,41,65.1
669,G#4,113.0,0.125,42,65.1
670,D3,113.0,0.5,26,65.1
671,B-2,113.0,0.5,26,65.1
672,A4,113.125,0.125,42,65.1
673,B-4,113.25,0.125,43,65.1
674,B4,113.375,0.125,44,65.1
675,C5,113.5,0.125,45,65.1
676,D3,113.5,0.5,28,65.1
677,B-2,113.5,0.5,28,65.1
678,C#5,113.625,0.125,45,65.1
679,D5,113.75,0.125,46,65.1
680,E-5,113.875,0.125,47,65.1
681,E5,114.0,0.125,49,65.1
682,B-2,114.0,0.5,34,65.1
683,D3,114.0,0.5,34,65.1
684,F5,114.125,0.125,50,65.1
685,F#5,114.25,0.125,52,65.1
686,G5,114.375,0.125,54,65.1
687,G#5,114.5,0.125,56,65.1
688,B-2,114.5,0.5,38,65.1
689,D3,114.5,0.5,38,65.1
690,A5,114.625,0.125,58,65.1
691,B-5,114.75,0.125,60,65.1
692,B5,114.875,0.125,61,65.1
693,C6,115.0,0.1,64,65.1
694,B-2,115.0,0.5,42,65.1
695,D3,115.0,0.5,42,65.1
696,C#6,115.1,0.1,65,65.1
697,D6,115.2,0.1,67,65.1
698,E-6,115.3,0.1,69,65.1
699,E6,115.4,0.1,70,65.1
700,F6,115.5,0.625,80,65.1
701,F2,115.5,1.5,45,65.1
702,E-3,115.5,0.5,50,65.1
703,A2,115.5,0.5,50,65.1
704,C3,116.0,0.5,36,65.1
705,E-3,116.0,0.5,36,65.1
706,E-6,116.125,0.125,69,65.1
707,C6,116.25,0.125,66,65.1
708,A5,116.375,0.125,63,65.1
709,F5,116.5,0.125,60,65.1
710,C3,116.5,0.5,35,65.1
711,E-3,116.5,0.5,35,65.1
712,E-5,116.625,0.125,57,65.1
713,C5,116.75,0.125,54,65.1
714,A4,116.875,0.125,51,65.1
715,B-4,117.0,1.0,56,65.1
716,B-2,117.0,0.5,44,65.1
717,D3,117.5,0.5,39,65.1
718,F3,118.0,0.5,39,65.1
719,B-3,118.5,0.5,44,65.1
720,D4,119.0,0.5,38,65.1
721,B-4,119.5,1.5,56,65.1
722,C#5,119.5,1.0,67,65.1
723,E4,119.5,0.5,38,65.1
724,F4,120.0,1.0,44,65.1
725,D5,120.5,0.5,54,65.1
726,A4,121.0,0.5,50,65.1
727,E-5,121.0,0.375,59,65.1
728,C4,121.0,0.375,44,65.1
729,F3,121.0,0.5,37,65.1
730,C5,121.375,0.125,53,65.1
731,E-4,121.375,0.125,40,65.1
732,B-1,121.5,0.5,44,65.1
733,D4,121.5,1.0,51,65.1
734,B-4,121.5,1.0,51,65.1
735,D2,122.0,0.5,39,65.1
736,F2,122.5,0.5,39,65.1
737,B-2,123.0,0.5,44,65.1
738,D3,123.5,0.5,38,65.1
739,C#4,124.0,1.0,60,65.1
740,B-3,124.0,1.5,50,65.1
741,E3,124.0,0.5,34,65.1
742,F3,124.5,1.0,39,65.1
743,D4,125.0,0.5,48,65.1
744,E-4,125.5,0.375,53,65.1
745,A3,125.5,0.5,45,65.1
746,C3,125.5,0.375,39,65.1
747,F2,125.5,0.5,33,65.1
748,C4,125.875,0.125,43,65.1
749,E-3,125.875,0.125,36,65.1
750,B-3,126.0,0.5,48,65.1
751,B-2,126.0,0.5,37,65.1
752,D3,126.0,0.5,37,65.1
753,A3,126.5,1.0,43,65.1
754,E-4,126.5,0.75,51,65.1
755,F2,126.5,1.0,33,65.1
756,C3,126.5,0.75,39,65.1
757,C4,127.25,0.25,44,65.1
758,E-3,127.25,0.25,34,65.1
759,B-3,127.5,0.5,48,65.1
760,B-2,127.5,0.5,37,65.1
761,D3,127.5,0.5,37,65.1
762,A3,128.0,1.0,43,65.1
763,E-4,128.0,0.75,51,65.1
764,F2,128.0,1.0,33,65.1
765,C3,128.0,0.75,39,65.1
766,C4,128.75,0.25,44,65.1
767,E-3,128.75,0.25,34,65.1
768,B-3,129.0,0.5,48,65.1
769,B-2,129.0,0.5,37,65.1
770,D3,129.0,0.5,37,65.1
771,E-4,129.5,0.25,59,65.1
772,A3,129.5,0.5,50,65.1
773,F2,129.5,0.5,38,65.1
774,C3,129.5,0.25,45,65.1
775,D4,129.75,0.25,55,65.1
776,B2,129.75,0.25,42,65.1
777,E-4,130.0,0.25,69,65.1
778,A3,130.0,0.5,51,65.1
779,F2,130.0,0.5,39,65.1
780,C3,130.0,0.25,52,65.1
781,C4,130.25,0.25,62,65.1
782,E-3,130.25,0.25,48,65.1
783,B3,130.5,0.083,39,65.1
784,C4,130.583,0.083,38,65.1
785,D4,130.667,0.083,32,65.1
786,B-2,130.75,2.25,29,65.1
787,E-3,130.75,1.25,35,65.1
788,C4,130.75,1.25,38,65.1
789,A3,130.75,1.25,38,65.1
790,B-3,132.0,1.0,39,65.1
791,D3,132.0,1.0,35,65.1
792,G2,135.0,0.45,23,65.1
793,G1,135.0,0.45,23,65.1
794,G1,135.5,0.45,19,65.1
795,G2,135.5,0.45,19,65.1
796,G1,136.0,0.45,19,65.1
797,G2,136.0,0.45,19,65.1
798,G1,136.5,0.45,19,65.1
799,G2,136.5,0.45,19,65.1
800,G1,137.0,0.45,19,65.1
801,G2,137.0,0.45,19,65.1
802,G1,137.5,0.45,19,65.1
803,G2,137.5,0.45,19,65.1
804,B3,138.0,0.375,33,65.1
805,G1,138.0,0.45,19,65.1
806,G2,138.0,0.45,19,65.1
807,C4,138.375,0.125,28,65.1
808,B3,138.5,0.25,34,65.1
809,G1,138.5,0.45,19,65.1
810,G2,138.5,0.45,19,65.1
811,A3,138.75,0.25,29,65.1
812,B3,139.0,0.25,38,65.1
813,G1,139.0,0.45,19,65.1
814,G2,139.0,0.45,19,65.1
815,C4,139.25,0.25,37,65.1
816,C#4,139.5,1.5,34,65.1
817,F3,139.5,2.5,25,65.1
818,G#3,139.5,2.5,25,65.1
819,B3,139.5,2.5,25,65.1
820,G2,139.5,0.45,23,65.1
821,G1,139.5,0.45,23,65.1
822,G1,140.0,0.45,19,65.1
823,G2,140.0,0.45,19,65.1
824,G1,140.5,0.45,19,65.1
825,G2,140.5,0.45,19,65.1
826,D4,141.0,1.0,34,65.1
827,G1,141.0,0.45,19,65.1
828,G2,141.0,0.45,19,65.1
829,G1,141.5,0.45,19,65.1
830,G2,141.5,0.45,19,65.1
831,G1,142.0,0.45,19,65.1
832,G2,142.0,0.45,19,65.1
833,G1,142.5,0.45,19,65.1
834,G2,142.5,0.45,19,65.1
835,E-4,142.875,0.125,28,65.1
836,D4,143.0,0.25,38,65.1
837,G1,143.0,0.45,19,65.1
838,G2,143.0,0.45,19,65.1
839,C#4,143.25,0.25,33,65.1
840,D4,143.5,0.25,39,65.1
841,G1,143.5,0.45,19,65.1
842,G2,143.5,0.45,19,65.1
843,E-4,143.75,0.25,41,65.1
844,E4,144.0,1.5,34,65.1
845,D4,144.0,2.5,25,65.1
846,G#3,144.0,2.5,25,65.1
847,B3,144.0,2.5,25,65.1
848,G2,144.0,0.45,23,65.1
849,G1,144.0,0.45,23,65.1
850,G1,144.5,0.45,19,65.1
851,G2,144.5,0.45,19,65.1
852,G1,145.0,0.45,19,65.1
853,G2,145.0,0.45,19,65.1
854,F4,145.5,1.0,34,65.1
855,G1,145.5,0.45,19,65.1
856,G2,145.5,0.45,19,65.1
857,G1,146.0,0.45,19,65.1
858,G2,146.0,0.45,19,65.1
859,G1,146.5,0.45,19,65.1
860,G2,146.5,0.45,19,65.1
861,G1,147.0,0.45,19,65.1
862,G2,147.0,0.45,19,65.1
863,C5,147.375,0.125,42,65.1
864,C4,147.375,0.125,42,65.1
865,B3,147.5,0.25,48,65.1
866,B4,147.5,0.25,48,65.1
867,G1,147.5,0.45,19,65.1
868,G2,147.5,0.45,19,65.1
869,A3,147.75,0.25,47,65.1
870,A4,147.75,0.25,47,65.1
871,B3,148.0,0.25,54,65.1
872,B4,148.0,0.25,54,65.1
873,G1,148.0,0.45,19,65.1
874,G2,148.0,0.45,19,65.1
875,C5,148.25,0.25,56,65.1
876,C4,148.25,0.25,56,65.1
877,C#5,148.5,1.5,64,65.1
878,C#4,148.5,1.5,64,65.1
879,G1,148.5,0.5,54,65.1
880,G2,148.5,0.5,54,65.1
881,G2,149.0,0.45,22,65.1
882,B2,149.0,0.45,22,65.1
883,D3,149.0,0.45,22,65.1
884,F3,149.0,0.45,22,65.1
885,G2,149.5,0.45,22,65.1
886,B2,149.5,0.45,22,65.1
887,D3,149.5,0.45,22,65.1
888,F3,149.5,0.45,22,65.1
889,D4,150.0,0.375,45,65.1
890,D5,150.0,0.375,45,65.1
891,G2,150.0,0.45,24,65.1
892,B2,150.0,0.45,24,65.1
893,D3,150.0,0.45,24,65.1
894,F3,150.0,0.45,24,65.1
895,E-5,150.375,0.125,52,65.1
896,D5,150.5,0.25,57,65.1
897,G2,150.5,0.45,22,65.1
898,B2,150.5,0.45,22,65.1
899,D3,150.5,0.45,22,65.1
900,F3,150.5,0.45,22,65.1
901,C#5,150.75,0.25,52,65.1
902,D5,151.0,0.25,52,65.1
903,G2,151.0,0.45,22,65.1
904,B2,151.0,0.45,22,65.1
905,D3,151.0,0.45,22,65.1
906,F3,151.0,0.45,22,65.1
907,E-5,151.25,0.25,52,65.1
908,F5,151.5,0.25,58,65.1
909,G2,151.5,0.45,26,65.1
910,B2,151.5,0.45,26,65.1
911,D3,151.5,0.45,26,65.1
912,F3,151.5,0.45,26,65.1
913,G5,151.75,0.25,55,65.1
914,G#5,152.0,0.25,62,65.1
915,G2,152.0,0.45,25,65.1
916,B2,152.0,0.45,25,65.1
917,D3,152.0,0.45,25,65.1
918,F3,152.0,0.45,25,65.1
919,G5,152.25,0.25,55,65.1
920,G#5,152.5,0.25,66,65.1
921,G2,152.5,0.45,26,65.1
922,B2,152.5,0.45,26,65.1
923,D3,152.5,0.45,26,65.1
924,F3,152.5,0.45,26,65.1
925,F5,152.75,0.25,60,65.1
926,F5,153.0,1.5,70,65.1
927,C2,153.0,0.5,54,65.1
928,C3,153.0,0.5,54,65.1
929,C3,153.5,0.45,22,65.1
930,G3,153.5,0.45,22,65.1
931,B-3,153.5,0.45,22,65.1
932,C3,154.0,0.45,22,65.1
933,G3,154.0,0.45,22,65.1
934,B-3,154.0,0.45,22,65.1
935,G4,154.5,0.375,45,65.1
936,E5,154.5,0.375,45,65.1
937,C3,154.5,0.45,25,65.1
938,G3,154.5,0.45,25,65.1
939,B-3,154.5,0.45,25,65.1
940,G#4,154.875,0.125,48,65.1
941,G4,155.0,0.25,52,65.1
942,C3,155.0,0.45,22,65.1
943,G3,155.0,0.45,22,65.1
944,B-3,155.0,0.45,22,65.1
945,F#4,155.25,0.25,48,65.1
946,G4,155.5,0.25,48,65.1
947,C3,155.5,0.45,22,65.1
948,G3,155.5,0.45,22,65.1
949,B-3,155.5,0.45,22,65.1
950,A4,155.75,0.25,48,65.1
951,B-4,156.0,0.25,55,65.1
952,C3,156.0,0.45,26,65.1
953,G3,156.0,0.45,26,65.1
954,B-3,156.0,0.45,26,65.1
955,C5,156.25,0.25,50,65.1
956,C#5,156.5,0.25,64,65.1
957,C3,156.5,0.45,25,65.1
958,G3,156.5,0.45,25,65.1
959,B-3,156.5,0.45,25,65.1
960,C5,156.75,0.25,60,65.1
961,C#5,157.0,0.25,68,65.1
962,C3,157.0,0.45,26,65.1
963,G3,157.0,0.45,26,65.1
964,B-3,157.0,0.45,26,65.1
965,B-4,157.25,0.25,64,65.1
966,B-4,157.5,1.5,70,65.1
967,F2,157.5,0.5,54,65.1
968,F3,157.5,0.5,54,65.1
969,F3,158.0,0.45,22,65.1
970,C4,158.0,0.45,22,65.1
971,E-4,158.0,0.45,22,65.1
972,F3,158.5,0.45,22,65.1
973,C4,158.5,0.45,22,65.1
974,E-4,158.5,0.45,22,65.1
975,C5,159.0,0.375,45,65.1
976,A4,159.0,0.375,45,65.1
977,F3,159.0,0.45,25,65.1
978,C4,159.0,0.45,25,65.1
979,E-4,159.0,0.45,25,65.1
980,C#5,159.375,0.125,48,65.1
981,C5,159.5,0.25,52,65.1
982,F3,159.5,0.45,22,65.1
983,C4,159.5,0.45,22,65.1
984,E-4,159.5,0.45,22,65.1
985,B4,159.75,0.25,48,65.1
986,C5,160.0,0.25,48,65.1
987,F3,160.0,0.45,22,65.1
988,C4,160.0,0.45,22,65.1
989,E-4,160.0,0.45,22,65.1
990,D5,160.25,0.25,48,65.1
991,E-5,160.5,0.25,60,65.1
992,F3,160.5,0.45,26,65.1
993,C4,160.5,0.45,26,65.1
994,E-4,160.5,0.45,26,65.1
995,F5,160.75,0.25,56,65.1
996,F#5,161.0,0.25,64,65.1
997,F3,161.0,0.45,26,65.1
998,C4,161.0,0.45,26,65.1
999,E-4,161.0,0.45,26,65.1
1000,F5,161.25,0.25,58,65.1
1001,F#5,161.5,0.25,67,65.1
1002,F3,161.5,0.45,28,65.1
1003,C4,161.5,0.45,28,65.1
1004,E-4,161.5,0.45,28,65.1
1005,E-5,161.75,0.25,64,65.1
1006,E-5,162.0,1.5,70,65.1
1007,B-1,162.0,0.5,54,65.1
1008,B-2,162.0,0.5,54,65.1
1009,B-2,162.5,0.45,22,65.1
1010,F3,162.5,0.45,22,65.1
1011,G#3,162.5,0.45,22,65.1
1012,B-2,163.0,0.45,22,65.1
1013,F3,163.0,0.45,22,65.1
1014,G#3,163.0,0.45,22,65.1
1015,F4,163.5,0.375,45,65.1
1016,D5,163.5,0.375,45,65.1
1017,B-2,163.5,0.45,25,65.1
1018,F3,163.5,0.45,25,65.1
1019,G#3,163.5,0.45,25,65.1
1020,F#4,163.875,0.125,48,65.1
1021,F4,164.0,0.25,52,65.1
1022,B-2,164.0,0.45,22,65.1
1023,F3,164.0,0.45,22,65.1
1024,G#3,164.0,0.45,22,65.1
1025,E4,164.25,0.25,48,65.1
1026,F4,164.5,0.25,48,65.1
1027,B-2,164.5,0.45,22,65.1
1028,F3,164.5,0.45,22,65.1
1029,G#3,164.5,0.45,22,65.1
1030,G4,164.75,0.25,48,65.1
1031,G#4,165.0,0.25,60,65.1
1032,B-2,165.0,0.45,26,65.1
1033,F3,165.0,0.45,26,65.1
1034,G#3,165.0,0.45,26,65.1
1035,B-4,165.25,0.25,54,65.1
1036,B4,165.5,0.25,64,65.1
1037,B-2,165.5,0.45,25,65.1
1038,F3,165.5,0.45,25,65.1
1039,G#3,165.5,0.45,25,65.1
1040,B-4,165.75,0.25,56,65.1
1041,B4,166.0,0.25,67,65.1
1042,B-2,166.0,0.45,26,65.1
1043,F3,166.0,0.45,26,65.1
1044,G#3,166.0,0.45,26,65.1
1045,G#4,166.25,0.25,59,65.1
1046,G#4,166.5,1.5,70,65.1
1047,E-2,166.5,0.5,54,65.1
1048,E-3,166.5,0.5,54,65.1
1049,E-3,167.0,0.45,22,65.1
1050,B-3,167.0,0.45,22,65.1
1051,C#4,167.0,0.45,22,65.1
1052,E-3,167.5,0.45,22,65.1
1053,B-3,167.5,0.45,22,65.1
1054,C#4,167.5,0.45,22,65.1
1055,G4,168.0,1.979,41,65.1
1056,B-4,168.0,0.375,49,65.1
1057,E-3,168.0,0.45,25,65.1
1058,B-3,168.0,0.45,25,65.1
1059,C#4,168.0,0.45,25,65.1
1060,B4,168.375,0.125,48,65.1
1061,B-4,168.5,0.25,53,65.1
1062,E-3,168.5,0.45,22,65.1
1063,B-3,168.5,0.45,22,65.1
1064,C#4,168.5,0.45,22,65.1
1065,A4,168.75,0.25,49,65.1
1066,B-4,169.0,0.25,50,65.1
1067,E-3,169.0,0.45,23,65.1
1068,B-3,169.0,0.45,23,65.1
1069,C#4,169.0,0.45,23,65.1
1070,B4,169.25,0.25,50,65.1
1071,C#5,169.5,0.25,64,65.1
1072,E-3,169.5,0.45,28,65.1
1073,B-3,169.5,0.45,28,65.1
1074,C#4,169.5,0.45,28,65.1
1075,E-5,169.75,0.25,60,65.1
1076,E5,170.0,0.25,70,65.1
1077,G4,170.0,0.45,45,65.1
1078,E-3,170.0,0.45,30,65.1
1079,B-3,170.0,0.45,30,65.1
1080,C#4,170.0,0.45,30,65.1
1081,E-5,170.25,0.25,64,65.1
1082,G4,170.5,0.5,45,65.1
1083,E5,170.5,0.25,75,65.1
1084,E-3,170.5,0.45,32,65.1
1085,B-3,170.5,0.45,32,65.1
1086,C#4,170.5,0.45,32,65.1
1087,C#5,170.75,0.25,69,65.1
1088,G#4,171.0,1.0,49,65.1
1089,B4,171.0,0.25,49,65.1
1090,E-3,171.0,1.0,26,65.1
1091,B3,171.0,1.0,26,65.1
1092,E-4,171.0,1.0,26,65.1
1093,C#5,171.25,0.25,46,65.1
1094,E-5,171.5,0.25,52,65.1
1095,C#5,171.75,0.25,45,65.1
1096,E-5,172.0,0.25,51,65.1
1097,B4,172.25,0.25,48,65.1
1098,B-4,172.5,0.25,49,65.1
1099,C#4,172.5,0.25,41,65.1
1100,B4,172.75,0.25,44,65.1
1101,E-4,172.75,0.25,34,65.1
1102,C#5,173.0,0.25,52,65.1
1103,E4,173.0,0.25,41,65.1
1104,B4,173.25,0.25,46,65.1
1105,E-4,173.25,0.25,36,65.1
1106,C#5,173.5,0.25,49,65.1
1107,E4,173.5,0.25,41,65.1
1108,B-4,173.75,0.25,42,65.1
1109,C#4,173.75,0.25,37,65.1
1110,G#4,174.0,0.25,49,65.1
1111,B3,174.0,0.25,41,65.1
1112,B-4,174.25,0.25,45,65.1
1113,C#4,174.25,0.25,38,65.1
1114,B4,174.5,0.25,49,65.1
1115,E-5,174.5,0.479,60,65.1
1116,E-4,174.5,0.25,41,65.1
1117,B-4,174.75,0.25,45,65.1
1118,C#4,174.75,0.25,35,65.1
1119,B4,175.0,0.25,49,65.1
1120,E-5,175.0,0.5,60,65.1
1121,E-4,175.0,0.25,41,65.1
1122,G#4,175.25,0.25,45,65.1
1123,B3,175.25,0.25,35,65.1
1124,E5,175.5,1.0,65,65.1
1125,G4,175.5,0.25,44,65.1
1126,B-3,175.5,0.25,41,65.1
1127,G#4,175.75,0.25,41,65.1
1128,B3,175.75,0.25,34,65.1
1129,B-4,176.0,0.25,46,65.1
1130,C#4,176.0,0.25,41,65.1
1131,G#4,176.25,0.25,40,65.1
1132,B3,176.25,0.25,36,65.1
1133,B-4,176.5,0.25,45,65.1
1134,E-5,176.5,0.5,60,65.1
1135,C#4,176.5,0.25,41,65.1
1136,G4,176.75,0.25,43,65.1
1137,B-3,176.75,0.25,37,65.1
1138,G#4,177.0,0.25,44,65.1
1139,B3,177.0,0.25,41,65.1
1140,B-4,177.25,0.25,39,65.1
1141,C#4,177.25,0.25,34,65.1
1142,B4,177.5,0.25,46,65.1
1143,E-4,177.5,0.25,41,65.1
1144,B-4,177.75,0.25,41,65.1
1145,C#4,177.75,0.25,36,65.1
1146,B4,178.0,0.25,44,65.1
1147,E-4,178.0,0.25,41,65.1
1148,G#4,178.25,0.25,37,65.1
1149,B3,178.25,0.25,37,65.1
1150,F4,178.5,0.25,44,65.1
1151,G#3,178.5,0.25,41,65.1
1152,F#4,178.75,0.25,40,65.1
1153,B-3,178.75,0.25,38,65.1
1154,D5,179.0,0.479,60,65.1
1155,G#4,179.0,0.25,44,65.1
1156,B3,179.0,0.25,41,65.1
1157,F#4,179.25,0.25,40,65.1
1158,B-3,179.25,0.25,35,65.1
1159,D5,179.5,0.5,60,65.1
1160,G#4,179.5,0.25,44,65.1
1161,B3,179.5,0.25,41,65.1
1162,F4,179.75,0.25,40,65.1
1163,G#3,179.75,0.25,35,65.1
1164,E-5,180.0,1.0,65,65.1
1165,E-4,180.0,0.25,44,65.1
1166,F#3,180.0,0.25,41,65.1
1167,F4,180.25,0.25,41,65.1
1168,G#3,180.25,0.25,34,65.1
1169,F#4,180.5,0.25,46,65.1
1170,B-3,180.5,0.25,41,65.1
1171,F4,180.75,0.25,40,65.1
1172,G#3,180.75,0.25,36,65.1
1173,B-4,181.0,0.5,60,65.1
1174,F#4,181.0,0.25,45,65.1
1175,B-3,181.0,0.25,41,65.1
1176,E-4,181.25,0.25,43,65.1
1177,F#3,181.25,0.25,37,65.1
1178,D4,181.5,0.25,44,65.1
1179,F3,181.5,0.25,41,65.1
1180,E-4,181.75,0.25,39,65.1
1181,F#3,181.75,0.25,34,65.1
1182,F4,182.0,0.25,46,65.1
1183,G#3,182.0,0.25,41,65.1
1184,E-4,182.25,0.25,41,65.1
1185,F#3,182.25,0.25,36,65.1
1186,F4,182.5,0.25,44,65.1
1187,G#3,182.5,0.25,41,65.1
1188,D4,182.75,0.25,37,65.1
1189,F3,182.75,0.25,37,65.1
1190,E-4,183.0,0.25,44,65.1
1191,F#3,183.0,0.25,41,65.1
1192,F4,183.25,0.25,40,65.1
1193,G#3,183.25,0.25,38,65.1
1194,F#4,183.5,0.25,44,65.1
1195,B-4,183.5,0.479,60,65.1
1196,B-3,183.5,0.25,41,65.1
1197,F4,183.75,0.25,40,65.1
1198,G#3,183.75,0.25,35,65.1
1199,B-4,184.0,0.5,60,65.1
1200,F#4,184.0,0.25,44,65.1
1201,B-3,184.0,0.25,41,65.1
1202,E-4,184.25,0.25,40,65.1
1203,F#3,184.25,0.25,35,65.1
1204,B4,184.5,1.0,65,65.1
1205,F4,184.5,0.25,44,65.1
1206,D3,184.5,0.25,41,65.1
1207,F#4,184.75,0.25,41,65.1
1208,E-3,184.75,0.25,34,65.1
1209,G#4,185.0,0.25,46,65.1
1210,F3,185.0,0.25,41,65.1
1211,F#4,185.25,0.25,40,65.1
1212,E-3,185.25,0.25,36,65.1
1213,B-4,185.5,0.5,60,65.1
1214,G#4,185.5,0.25,45,65.1
1215,F3,185.5,0.25,41,65.1
1216,F4,185.75,0.25,43,65.1
1217,D3,185.75,0.25,37,65.1
1218,F#4,186.0,0.25,44,65.1
1219,E-3,186.0,0.25,41,65.1
1220,G#4,186.25,0.25,39,65.1
1221,F3,186.25,0.25,34,65.1
1222,B-4,186.5,0.25,46,65.1
1223,F#3,186.5,0.25,41,65.1
1224,G#4,186.75,0.25,41,65.1
1225,F3,186.75,0.25,36,65.1
1226,B-4,187.0,0.25,44,65.1
1227,F#3,187.0,0.25,41,65.1
1228,F#4,187.25,0.25,37,65.1
1229,E-3,187.25,0.25,37,65.1
1230,E-4,187.5,0.25,44,65.1
1231,C3,187.5,0.25,41,65.1
1232,F4,187.75,0.25,40,65.1
1233,D3,187.75,0.25,38,65.1
1234,F#4,188.0,0.25,44,65.1
1235,A4,188.0,0.479,60,65.1
1236,E-3,188.0,0.25,41,65.1
1237,F4,188.25,0.25,40,65.1
1238,D3,188.25,0.25,35,65.1
1239,F#4,188.5,0.25,44,65.1
1240,A4,188.5,0.5,60,65.1
1241,E-3,188.5,0.25,41,65.1
1242,E-4,188.75,0.25,40,65.1
1243,B2,188.75,0.25,35,65.1
1244,B-4,189.0,3.5,65,65.1
1245,D4,189.0,0.25,44,65.1
1246,B-2,189.0,1.0,41,65.1
1247,E-4,189.25,0.25,41,65.1
1248,C3,189.25,0.25,34,65.1
1249,F4,189.5,0.25,46,65.1
1250,D3,189.5,0.25,41,65.1
1251,E-4,189.75,0.25,40,65.1
1252,C3,189.75,0.25,36,65.1
1253,D4,190.0,0.25,45,65.1
1254,E-4,190.25,0.25,43,65.1
1255,C3,190.25,0.25,37,65.1
1256,F4,190.5,0.25,44,65.1
1257,D3,190.5,0.25,41,65.1
1258,F#4,190.75,0.25,39,65.1
1259,E-3,190.75,0.25,34,65.1
1260,G#4,191.0,0.25,46,65.1
1261,F3,191.0,0.25,41,65.1
1262,F#4,191.25,0.25,41,65.1
1263,E-3,191.25,0.25,36,65.1
1264,F4,191.5,0.25,44,65.1
1265,D3,191.5,0.25,41,65.1
1266,G#4,191.75,0.25,37,65.1
1267,F3,191.75,0.25,37,65.1
1268,F#4,192.0,0.25,44,65.1
1269,E-3,192.0,0.25,41,65.1
1270,F4,192.25,0.25,40,65.1
1271,D3,192.25,0.25,38,65.1
1272,A4,192.5,0.479,60,65.1
1273,E-4,192.5,0.25,44,65.1
1274,B-2,192.5,0.479,39,65.1
1275,C3,192.5,0.25,41,65.1
1276,F4,192.75,0.25,40,65.1
1277,D3,192.75,0.25,35,65.1
1278,A4,193.0,0.5,60,65.1
1279,F#4,193.0,0.25,44,65.1
1280,B-2,193.0,0.479,39,65.1
1281,E-3,193.0,0.25,41,65.1
1282,E-4,193.25,0.25,40,65.1
1283,C3,193.25,0.25,35,65.1
1284,B-3,193.5,0.25,44,65.1
1285,B-4,193.5,3.5,65,65.1
1286,D3,193.5,0.25,41,65.1
1287,B-2,193.5,3.479,41,65.1
1288,C4,193.75,0.25,41,65.1
1289,E-3,193.75,0.25,34,65.1
1290,D4,194.0,0.25,46,65.1
1291,F3,194.0,0.25,41,65.1
1292,C4,194.25,0.25,40,65.1
1293,E-3,194.25,0.25,36,65.1
1294,B-3,194.5,0.25,45,65.1
1295,D3,194.5,0.25,41,65.1
1296,C4,194.75,0.25,43,65.1
1297,E-3,194.75,0.25,37,65.1
1298,D4,195.0,0.25,44,65.1
1299,F3,195.0,0.25,41,65.1
1300,E-4,195.25,0.25,39,65.1
1301,F#3,195.25,0.25,34,65.1
1302,F4,195.5,0.25,46,65.1
1303,G#3,195.5,0.25,41,65.1
1304,E-4,195.75,0.25,41,65.1
1305,F#3,195.75,0.25,36,65.1
1306,D4,196.0,0.25,44,65.1
1307,F3,196.0,0.25,41,65.1
1308,F4,196.25,0.25,37,65.1
1309,G#3,196.25,0.25,37,65.1
1310,E-4,196.5,0.25,44,65.1
1311,F#3,196.5,0.25,41,65.1
1312,D4,196.75,0.25,40,65.1
1313,F3,196.75,0.25,38,65.1
1314,A4,197.0,0.479,60,65.1
1315,C4,197.0,0.25,44,65.1
1316,B-2,197.0,0.479,39,65.1
1317,E-3,197.0,0.25,41,65.1
1318,D4,197.25,0.25,40,65.1
1319,F3,197.25,0.25,35,65.1
1320,E-4,197.5,0.25,44,65.1
1321,A4,197.5,0.5,60,65.1
1322,B-2,197.5,0.479,39,65.1
1323,F#3,197.5,0.25,41,65.1
1324,C4,197.75,0.25,40,65.1
1325,E-3,197.75,0.25,35,65.1
1326,B-3,198.0,0.25,44,65.1
1327,B-2,198.0,1.0,39,65.1
1328,D3,198.0,1.0,39,65.1
1329,F3,198.0,1.0,39,65.1
1330,C4,198.25,0.25,37,65.1
1331,D4,198.5,0.25,44,65.1
1332,C#4,198.75,0.25,38,65.1
1333,D4,199.0,0.25,41,65.1
1334,B-3,199.25,0.25,34,65.1
1335,D4,199.5,0.275,44,65.1
1336,E4,199.75,0.275,39,65.1
1337,F4,200.0,0.275,40,65.1
1338,E4,200.25,0.275,33,65.1
1339,F4,200.5,0.275,39,65.1
1340,D4,200.75,0.275,34,65.1
1341,F4,201.0,0.275,47,65.1
1342,G4,201.25,0.275,43,65.1
1343,G#4,201.5,0.275,50,65.1
1344,G4,201.75,0.275,42,65.1
1345,G#4,202.0,0.275,53,65.1
1346,F4,202.25,0.275,37,65.1
1347,G#4,202.5,0.275,41,65.1
1348,B4,202.75,0.275,36,65.1
1349,C5,203.0,0.275,41,65.1
1350,B4,203.25,0.275,37,65.1
1351,D5,203.5,0.275,41,65.1
1352,C5,203.75,0.275,36,65.1
1353,B-4,204.0,0.275,41,65.1
1354,G#4,204.25,0.275,36,65.1
1355,G4,204.5,0.275,41,65.1
1356,F4,204.75,0.275,35,65.1
1357,E4,205.0,0.275,35,65.1
1358,F4,205.25,0.275,29,65.1
1359,G4,205.5,0.275,41,65.1
1360,F4,205.75,0.275,36,65.1
1361,G#4,206.0,0.275,41,65.1
1362,F4,206.25,0.275,32,65.1
1363,C4,206.5,0.275,38,65.1
1364,D4,206.75,0.25,32,65.1
1365,E-4,207.0,1.0,38,65.1
1366,E-2,207.0,0.45,25,65.1
1367,B-3,207.5,0.45,18,65.1
1368,G3,207.5,0.45,18,65.1
1369,E-3,207.5,0.45,18,65.1
1370,E-3,208.0,0.45,18,65.1
1371,G3,208.0,0.45,18,65.1
1372,B-3,208.0,0.45,18,65.1
1373,E-3,208.5,0.45,20,65.1
1374,G3,208.5,0.45,20,65.1
1375,B-3,208.5,0.45,20,65.1
1376,G3,209.0,0.45,18,65.1
1377,E-3,209.0,0.45,18,65.1
1378,B-3,209.0,0.45,18,65.1
1379,E-3,209.5,0.45,18,65.1
1380,G3,209.5,0.45,18,65.1
1381,B-3,209.5,0.45,18,65.1
1382,G4,210.0,0.375,38,65.1
1383,B-3,210.0,0.45,21,65.1
1384,G3,210.0,0.45,21,65.1
1385,E-3,210.0,0.45,21,65.1
1386,G#4,210.375,0.125,36,65.1
1387,G4,210.5,0.25,39,65.1
1388,E-3,210.5,0.45,18,65.1
1389,G3,210.5,0.45,18,65.1
1390,B-3,210.5,0.45,18,65.1
1391,F4,210.75,0.25,36,65.1
1392,G4,211.0,0.25,40,65.1
1393,E-3,211.0,0.45,18,65.1
1394,G3,211.0,0.45,18,65.1
1395,B-3,211.0,0.45,18,65.1
1396,G#4,211.25,0.25,36,65.1
1397,A4,211.5,1.5,44,65.1
1398,G3,211.5,0.45,22,65.1
1399,E-3,211.5,0.45,22,65.1
1400,B-3,211.5,0.45,22,65.1
1401,E-3,212.0,0.45,18,65.1
1402,G3,212.0,0.45,18,65.1
1403,B-3,212.0,0.45,18,65.1
1404,B-3,212.5,0.45,18,65.1
1405,G3,212.5,0.45,18,65.1
1406,E-3,212.5,0.45,18,65.1
1407,B-4,213.0,1.875,51,65.1
1408,E-3,213.0,0.45,20,65.1
1409,G3,213.0,0.45,20,65.1
1410,B-3,213.0,0.45,20,65.1
1411,E-3,213.5,0.45,18,65.1
1412,G3,213.5,0.45,18,65.1
1413,B-3,213.5,0.45,18,65.1
1414,G3,214.0,0.45,18,65.1
1415,E-3,214.0,0.45,18,65.1
1416,B-3,214.0,0.45,18,65.1
1417,E-3,214.5,0.45,21,65.1
1418,G3,214.5,0.45,21,65.1
1419,B-3,214.5,0.45,21,65.1
1420,C5,214.875,0.125,39,65.1
1421,B-4,215.0,0.25,49,65.1
1422,B-3,215.0,0.45,18,65.1
1423,G3,215.0,0.45,18,65.1
1424,E-3,215.0,0.45,18,65.1
1425,A4,215.25,0.25,42,65.1
1426,B-4,215.5,0.25,51,65.1
1427,E-3,215.5,0.45,18,65.1
1428,G3,215.5,0.45,18,65.1
1429,B-3,215.5,0.45,18,65.1
1430,B4,215.75,0.25,46,65.1
1431,B4,216.0,0.812,50,65.1
1432,D3,216.0,0.45,22,65.1
1433,G#3,216.0,0.45,22,65.1
1434,B-3,216.0,0.45,22,65.1
1435,G#3,216.5,0.45,18,65.1
1436,D3,216.5,0.45,18,65.1
1437,B-3,216.5,0.45,18,65.1
1438,C5,216.75,0.062,39,65.1
1439,A4,216.875,1.0,39,65.1
1440,B4,216.875,1.0,39,65.1
1441,D5,217.0,0.375,53,65.1
1442,D3,217.0,0.45,18,65.1
1443,G#3,217.0,0.45,18,65.1
1444,B-3,217.0,0.45,18,65.1
1445,C5,217.375,0.125,44,65.1
1446,F4,217.5,1.875,55,65.1
1447,B-3,217.5,0.45,20,65.1
1448,G#3,217.5,0.45,20,65.1
1449,D3,217.5,0.45,20,65.1
1450,D3,218.0,0.45,18,65.1
1451,G#3,218.0,0.45,18,65.1
1452,B-3,218.0,0.45,18,65.1
1453,D3,218.5,0.45,18,65.1
1454,G#3,218.5,0.45,18,65.1
1455,B-3,218.5,0.45,18,65.1
1456,G#3,219.0,0.45,21,65.1
1457,D3,219.0,0.45,21,65.1
1458,B-3,219.0,0.45,21,65.1
1459,G4,219.375,0.125,39,65.1
1460,F4,219.5,0.25,46,65.1
1461,D3,219.5,0.45,18,65.1
1462,G#3,219.5,0.45,18,65.1
1463,B-3,219.5,0.45,18,65.1
1464,E4,219.75,0.25,42,65.1
1465,F4,220.0,0.25,49,65.1
1466,B-3,220.0,0.45,18,65.1
1467,G#3,220.0,0.45,18,65.1
1468,D3,220.0,0.45,18,65.1
1469,G4,220.25,0.25,46,65.1
1470,G#4,220.5,1.625,55,65.1
1471,F3,220.5,0.45,22,65.1
1472,D3,220.5,0.45,22,65.1
1473,G#3,220.5,0.45,22,65.1
1474,B-3,220.5,0.45,22,65.1
1475,B-3,221.0,0.45,18,65.1
1476,F3,221.0,0.45,18,65.1
1477,D3,221.0,0.45,18,65.1
1478,G#3,221.0,0.45,18,65.1
1479,F3,221.5,0.45,18,65.1
1480,D3,221.5,0.45,18,65.1
1481,G#3,221.5,0.45,18,65.1
1482,B-3,221.5,0.45,18,65.1
1483,G#3,222.0,0.45,21,65.1
1484,B-3,222.0,0.45,21,65.1
1485,F3,222.0,0.45,21,65.1
1486,D3,222.0,0.45,21,65.1
1487,G4,222.125,0.125,47,65.1
1488,F4,222.25,0.125,48,65.1
1489,E4,222.375,0.125,48,65.1
1490,F4,222.5,0.125,49,65.1
1491,F3,222.5,0.45,20,65.1
1492,D3,222.5,0.45,20,65.1
1493,G#3,222.5,0.45,20,65.1
1494,B-3,222.5,0.45,20,65.1
1495,G4,222.625,0.125,50,65.1
1496,G#4,222.75,0.125,50,65.1
1497,B-4,222.875,0.125,51,65.1
1498,C5,223.0,0.125,52,65.1
1499,G#3,223.0,0.45,21,65.1
1500,F3,223.0,0.45,21,65.1
1501,D3,223.0,0.45,21,65.1
1502,B-3,223.0,0.45,21,65.1
1503,D5,223.125,0.125,51,65.1
1504,E-5,223.25,0.125,53,65.1
1505,E5,223.375,0.125,54,65.1
1506,F5,223.5,0.125,56,65.1
1507,F3,223.5,0.45,26,65.1
1508,D3,223.5,0.45,26,65.1
1509,B-3,223.5,0.45,26,65.1
1510,G#3,223.5,0.45,26,65.1
1511,G5,223.625,0.125,57,65.1
1512,G#5,223.75,0.125,59,65.1
1513,B-5,223.875,0.125,60,65.1
1514,C6,224.0,0.125,63,65.1
1515,G#3,224.0,0.45,23,65.1
1516,D3,224.0,0.45,23,65.1
1517,F3,224.0,0.45,23,65.1
1518,B-3,224.0,0.45,23,65.1
1519,B5,224.125,0.125,59,65.1
1520,D6,224.25,0.125,63,65.1
1521,C6,224.375,0.125,61,65.1
1522,B-5,224.5,0.125,60,65.1
1523,F3,224.5,0.45,24,65.1
1524,D3,224.5,0.45,24,65.1
1525,G#3,224.5,0.45,24,65.1
1526,B-3,224.5,0.45,24,65.1
1527,G#5,224.625,0.125,58,65.1
1528,G5,224.75,0.125,56,65.1
1529,F5,224.875,0.125,53,65.1
1530,F#5,225.0,1.5,58,65.1
1531,G#3,225.0,0.45,22,65.1
1532,E-3,225.0,0.45,22,65.1
1533,B-3,225.0,0.45,22,65.1
1534,E-3,225.5,0.45,18,65.1
1535,G#3,225.5,0.45,18,65.1
1536,B-3,225.5,0.45,18,65.1
1537,B-3,226.0,0.45,18,65.1
1538,G#3,226.0,0.45,18,65.1
1539,E-3,226.0,0.45,18,65.1
1540,G5,226.5,1.75,55,65.1
1541,E-3,226.5,0.45,20,65.1
1542,G3,226.5,0.45,20,65.1
1543,B-3,226.5,0.45,20,65.1
1544,E-3,227.0,0.45,18,65.1
1545,G3,227.0,0.45,18,65.1
1546,B-3,227.0,0.45,18,65.1
1547,G3,227.5,0.45,18,65.1
1548,E-3,227.5,0.45,18,65.1
1549,B-3,227.5,0.45,18,65.1
1550,E-3,228.0,0.5,36,65.1
1551,E-4,228.25,0.25,55,65.1
1552,G4,228.5,0.25,59,65.1
1553,B-2,228.5,0.5,40,65.1
1554,B-4,228.75,0.25,62,65.1
1555,E-5,229.0,0.25,66,65.1
1556,G#2,229.0,0.5,43,65.1
1557,G5,229.25,0.25,69,65.1
1558,B-5,229.5,1.75,72,65.1
1559,G2,229.5,0.5,48,65.1
1560,E-3,230.0,0.45,31,65.1
1561,B-2,230.0,0.45,31,65.1
1562,G2,230.0,0.45,31,65.1
1563,G2,230.5,0.45,31,65.1
1564,B-2,230.5,0.45,31,65.1
1565,E-3,230.5,0.45,31,65.1
1566,E-3,231.0,0.45,31,65.1
1567,G2,231.0,0.45,31,65.1
1568,B-2,231.0,0.45,31,65.1
1569,F#5,231.25,0.25,55,65.1
1570,G5,231.5,0.25,62,65.1
1571,G2,231.5,0.45,29,65.1
1572,B-2,231.5,0.45,29,65.1
1573,E-3,231.5,0.45,29,65.1
1574,D5,231.75,0.25,57,65.1
1575,E-5,232.0,0.25,64,65.1
1576,G2,232.0,0.45,29,65.1
1577,E-3,232.0,0.45,29,65.1
1578,B-2,232.0,0.45,29,65.1
1579,A4,232.25,0.25,57,65.1
1580,B-4,232.5,0.25,66,65.1
1581,E-3,232.5,0.45,31,65.1
1582,B-2,232.5,0.45,31,65.1
1583,G2,232.5,0.45,31,65.1
1584,F#4,232.75,0.25,57,65.1
1585,G4,233.0,0.25,68,65.1
1586,G2,233.0,0.45,27,65.1
1587,B-2,233.0,0.45,27,65.1
1588,E-3,233.0,0.45,27,65.1
1589,D4,233.25,0.25,59,65.1
1590,E-4,233.5,0.25,69,65.1
1591,E-3,233.5,0.45,27,65.1
1592,G2,233.5,0.45,27,65.1
1593,B-2,233.5,0.45,27,65.1
1594,G4,233.75,0.25,57,65.1
1595,G4,234.0,0.5,69,65.1
1596,G#2,234.0,0.5,38,65.1
1597,C3,234.0,0.5,38,65.1
1598,E-3,234.0,0.5,38,65.1
1599,C4,234.5,1.5,63,65.1
1600,G#2,234.5,0.45,31,65.1
1601,E-3,234.5,0.45,31,65.1
1602,C3,234.5,0.45,31,65.1
1603,E-3,235.0,0.45,31,65.1
1604,C3,235.0,0.45,31,65.1
1605,G#2,235.0,0.45,31,65.1
1606,G#2,235.5,0.45,36,65.1
1607,C3,235.5,0.45,36,65.1
1608,E3,235.5,0.45,36,65.1
1609,C5,236.0,1.5,69,65.1
1610,E3,236.0,0.45,31,65.1
1611,G#2,236.0,0.45,31,65.1
1612,C3,236.0,0.45,31,65.1
1613,G#2,236.5,0.45,35,65.1
1614,C3,236.5,0.45,35,65.1
1615,E3,236.5,0.45,35,65.1
1616,G#2,237.0,0.45,39,65.1
1617,F3,237.0,0.45,39,65.1
1618,C3,237.0,0.45,39,65.1
1619,C6,237.5,0.125,69,65.1
1620,F3,237.5,0.45,32,65.1
1621,C3,237.5,0.45,32,65.1
1622,G#2,237.5,0.45,32,65.1
1623,B5,237.625,0.125,62,65.1
1624,D6,237.75,0.125,69,65.1
1625,C6,237.875,0.125,68,65.1
1626,B-5,238.0,0.125,67,65.1
1627,G#2,238.0,0.45,32,65.1
1628,C3,238.0,0.45,32,65.1
1629,F3,238.0,0.45,32,65.1
1630,G#5,238.125,0.125,65,65.1
1631,G5,238.25,0.125,64,65.1
1632,F5,238.375,0.104,62,65.1
1633,F5,238.5,0.5,67,65.1
1634,G3,238.5,0.45,31,65.1
1635,B-2,238.5,0.45,31,65.1
1636,E-3,238.5,0.45,31,65.1
1637,E-5,239.0,1.5,60,65.1
1638,B-2,239.0,0.45,25,65.1
1639,E-3,239.0,0.45,25,65.1
1640,G3,239.0,0.45,25,65.1
1641,B-2,239.5,0.45,25,65.1
1642,G3,239.5,0.45,25,65.1
1643,E-3,239.5,0.45,25,65.1
1644,G3,240.0,0.45,28,65.1
1645,E-3,240.0,0.45,28,65.1
1646,B-2,240.0,0.45,28,65.1
1647,E-5,240.5,0.5,56,65.1
1648,B-2,240.5,0.45,24,65.1
1649,E-3,240.5,0.45,24,65.1
1650,G3,240.5,0.45,24,65.1
1651,E-5,241.0,0.5,54,65.1
1652,G3,241.0,0.45,24,65.1
1653,B-2,241.0,0.45,24,65.1
1654,E-3,241.0,0.45,24,65.1
1655,E-5,241.5,1.0,48,65.1
1656,F5,241.5,1.0,48,65.1
1657,B-2,241.5,0.45,27,65.1
1658,F3,241.5,0.45,27,65.1
1659,G#3,241.5,0.45,27,65.1
1660,E-5,241.625,1.0,50,65.1
1661,F5,241.625,1.0,50,65.1
1662,E-5,241.75,1.0,48,65.1
1663,F5,241.75,1.0,48,65.1
1664,E-5,241.875,1.0,47,65.1
1665,D5,241.875,1.0,47,65.1
1666,E-5,241.958,0.042,43,65.1
1667,F5,242.0,0.5,54,65.1
1668,B-2,242.0,0.45,23,65.1
1669,G#3,242.0,0.45,23,65.1
1670,F3,242.0,0.45,23,65.1
1671,D5,242.5,0.5,47,65.1
1672,G#3,242.5,0.45,23,65.1
1673,F3,242.5,0.45,23,65.1
1674,B-2,242.5,0.45,23,65.1
1675,E-5,243.0,0.5,47,65.1
1676,E-3,243.0,1.0,28,65.1
1677,G3,243.0,1.0,28,65.1
1678,B-4,243.5,0.45,43,65.1
1679,B-4,244.0,0.45,43,65.1
1680,B-4,244.5,0.5,49,65.1
1681,C5,245.0,0.5,41,65.1
1682,G#4,245.5,0.5,32,65.1
1683,G4,246.0,0.5,43,65.1
1684,E-4,246.0,1.0,36,65.1
1685,B-2,246.0,1.5,26,65.1
1686,B-3,246.0,1.0,31,65.1
1687,G#4,246.5,0.5,37,65.1
1688,G#3,247.0,0.5,29,65.1
1689,F4,247.0,0.5,30,65.1
1690,D4,247.0,0.5,30,65.1
1691,E-4,247.5,0.5,47,65.1
1692,G3,247.5,1.0,28,65.1
1693,E-3,247.5,1.0,28,65.1
1694,B-3,248.0,0.45,38,65.1
1695,B-3,248.5,0.45,38,65.1
1696,B-3,249.0,1.0,30,65.1
1697,C4,249.0,1.0,30,65.1
1698,B-3,249.125,1.0,32,65.1
1699,C4,249.125,1.0,32,65.1
1700,B-3,249.25,1.0,30,65.1
1701,C4,249.25,1.0,30,65.1
1702,B-3,249.375,1.0,30,65.1
1703,A3,249.375,1.0,30,65.1
1704,B-3,249.458,0.042,27,65.1
1705,C4,249.5,0.5,34,65.1
1706,G#3,250.0,0.5,28,65.1
1707,E-3,250.5,1.0,28,65.1
1708,B-2,250.5,1.0,31,65.1
1709,B-1,250.5,1.5,26,65.1
1710,G3,250.5,1.0,30,65.1
1711,G#3,250.5,1.0,30,65.1
1712,G3,250.625,1.0,32,65.1
1713,G#3,250.625,1.0,32,65.1
1714,G3,250.75,1.0,30,65.1
1715,G#3,250.75,1.0,30,65.1
1716,G3,250.875,1.0,30,65.1
1717,F3,250.875,1.0,30,65.1
1718,G3,250.958,0.042,27,65.1
1719,G#3,251.0,0.5,34,65.1
1720,F3,251.49,0.5,28,65.1
1721,G#2,251.5,0.5,24,65.1
1722,F3,251.5,0.5,24,65.1
1723,E-3,252.0,0.5,30,65.1
1724,E-2,252.0,1.0,27,65.1
1725,G2,252.0,1.0,27,65.1
1726,G3,252.5,0.5,28,65.1
1727,B-3,253.0,0.5,29,65.1
1728,G3,253.5,0.5,34,65.1
1729,B-3,254.0,0.5,31,65.1
1730,E-4,254.5,0.5,31,65.1
1731,B-3,255.0,0.5,32,65.1
1732,E-4,255.5,0.5,37,65.1
1733,G4,256.0,0.479,42,65.1
1734,E-2,256.5,0.5,32,65.1
1735,G4,256.5,1.979,40,65.1
1736,B-3,256.5,1.979,40,65.1
1737,E-4,256.5,1.979,40,65.1
1738,G3,256.5,1.979,40,65.1
1739,G2,257.0,0.5,32,65.1
1740,B-2,257.5,0.5,32,65.1
1741,E-3,258.0,0.5,36,65.1
1742,G3,258.5,0.5,38,65.1
1743,G4,258.5,0.479,38,65.1
1744,E-4,258.5,0.479,38,65.1
1745,B-3,258.5,0.479,38,65.1
1746,B-3,259.0,0.479,40,65.1
1747,E-4,259.0,0.479,38,65.1
1748,G4,259.0,0.479,38,65.1
1749,E-4,259.5,1.0,23,65.1
1750,G4,259.5,1.0,30,65.1
1751,G#4,259.5,1.0,30,65.1
1752,B-2,259.5,1.0,40,65.1
1753,B-3,259.5,1.0,40,65.1
1754,G4,259.625,1.0,32,65.1
1755,G#4,259.625,1.0,32,65.1
1756,G4,259.75,1.0,30,65.1
1757,G#4,259.75,1.0,30,65.1
1758,G4,259.875,1.0,30,65.1
1759,F4,259.875,1.0,30,65.1
1760,G4,259.958,0.042,27,65.1
1761,F4,260.0,0.5,42,65.1
1762,G#4,260.0,0.5,42,65.1
1763,D4,260.5,0.479,34,65.1
1764,F4,260.5,0.479,34,65.1
1765,B-3,260.5,0.479,34,65.1
1766,B-2,260.5,0.479,36,65.1
1767,G#3,260.5,0.479,36,65.1
1768,B-3,261.0,2.0,28,65.1
1769,G#3,261.0,1.5,38,65.1
1770,E-3,261.0,2.0,32,65.1
1771,D4,261.0,1.5,31,65.1
1772,F4,261.0,1.5,31,65.1
1773,E-4,262.5,0.5,32,65.1
1774,G3,262.5,0.5,30,65.1
1775,B-3,264.0,0.5,40,65.1
1776,F#3,264.0,0.5,40,65.1
1777,B-3,264.5,0.5,44,65.1
1778,E-4,264.5,0.5,44,65.1
1779,F#4,265.0,0.479,50,65.1
1780,E-4,265.0,0.479,50,65.1
1781,E-2,265.5,0.5,37,65.1
1782,F#4,265.5,3.5,56,65.1
1783,B-4,265.5,3.5,56,65.1
1784,F#2,266.0,0.5,40,65.1
1785,B-2,266.5,0.5,44,65.1
1786,E-3,267.0,0.5,49,65.1
1787,E-5,267.5,0.456,70,65.1
1788,F#3,267.5,0.5,53,65.1
1789,E-5,268.0,0.456,64,65.1
1790,B-3,268.0,0.479,57,65.1
1791,E-5,268.5,0.475,67,65.1
1792,E-4,268.5,0.5,62,65.1
1793,B3,269.0,0.5,58,65.1
1794,G#4,269.0,0.5,50,65.1
1795,E-5,269.0,0.5,50,65.1
1796,B-3,269.5,0.479,54,65.1
1797,B-4,269.5,0.479,55,65.1
1798,F#4,269.5,0.479,55,65.1
1799,E-5,269.5,0.479,55,65.1
1800,E-5,270.0,1.0,68,65.1
1801,G#3,270.0,1.5,53,65.1
1802,B4,270.0,1.5,45,65.1
1803,F4,270.0,1.5,45,65.1
1804,C#5,271.0,0.5,38,65.1
1805,F3,271.5,1.5,43,65.1
1806,E-5,272.0,0.5,40,65.1
1807,G#4,272.0,1.0,34,65.1
1808,B4,272.0,1.0,34,65.1
1809,C#5,272.5,0.5,29,65.1
1810,F#3,273.0,1.5,40,65.1
1811,E-5,273.5,0.5,40,65.1
1812,F#4,273.5,1.0,34,65.1
1813,B-4,273.5,1.0,34,65.1
1814,C#5,274.0,0.5,27,65.1
1815,B2,274.5,1.5,32,65.1
1816,C#5,275.0,0.5,40,65.1
1817,G#4,275.0,1.0,34,65.1
1818,E-4,275.0,1.0,34,65.1
1819,B4,275.5,0.5,27,65.1
1820,C#3,276.0,1.5,32,65.1
1821,B4,276.5,0.5,40,65.1
1822,C#4,276.5,1.0,34,65.1
1823,F#4,276.5,1.0,34,65.1
1824,B-4,277.0,0.5,27,65.1
1825,C#2,277.5,1.5,32,65.1
1826,B-4,278.0,0.5,40,65.1
1827,F4,278.0,0.979,34,65.1
1828,B3,278.0,0.979,34,65.1
1829,G#4,278.5,0.5,27,65.1
1830,B3,279.0,1.0,68,65.1
1831,D2,279.0,1.5,53,65.1
1832,G#4,279.0,1.5,45,65.1
1833,F4,279.0,1.5,45,65.1
1834,B-3,280.0,0.5,38,65.1
1835,D3,280.5,1.5,43,65.1
1836,B3,281.0,0.5,40,65.1
1837,G#4,281.0,1.0,34,65.1
1838,F4,281.0,1.0,34,65.1
1839,B-3,281.5,0.5,29,65.1
1840,E-3,282.0,1.5,40,65.1
1841,B3,282.5,0.5,40,65.1
1842,F#4,282.5,1.0,34,65.1
1843,E-4,282.5,1.0,34,65.1
1844,B-3,283.0,0.5,27,65.1
1845,G#2,283.5,1.5,32,65.1
1846,F#4,284.0,0.5,40,65.1
1847,G#3,284.0,1.0,34,65.1
1848,B3,284.0,1.0,34,65.1
1849,E4,284.5,0.5,27,65.1
1850,A2,285.0,1.5,32,65.1
1851,E4,285.5,0.5,40,65.1
1852,F#3,285.5,1.0,34,65.1
1853,C4,285.5,1.0,34,65.1
1854,E-4,286.0,0.5,27,65.1
1855,B-2,286.5,1.5,32,65.1
1856,E-4,287.0,0.5,40,65.1
1857,F3,287.0,1.0,34,65.1
1858,G#3,287.0,1.0,34,65.1
1859,D4,287.5,0.5,27,65.1
1860,E-2,288.0,4.5,35,65.1
1861,E-4,288.0,1.0,34,65.1
1862,G3,288.0,1.0,34,65.1
1863,E-3,288.5,0.45,29,65.1
1864,E-3,289.0,0.45,29,65.1
1865,E-3,289.5,0.45,32,65.1
1866,E-3,290.0,0.45,29,65.1
1867,E-3,290.5,0.45,29,65.1
1868,G5,291.0,1.0,57,65.1
1869,E-3,291.0,0.45,32,65.1
1870,E-3,291.5,0.45,27,65.1
1871,F5,292.0,0.25,48,65.1
1872,E-3,292.0,0.45,27,65.1
1873,E-5,292.25,0.25,47,65.1
1874,E-5,292.5,0.5,54,65.1
1875,E-3,292.5,0.45,32,65.1
1876,F4,292.5,1.0,32,65.1
1877,G#4,292.5,1.0,32,65.1
1878,D5,293.0,0.5,47,65.1
1879,E-3,293.0,0.45,28,65.1
1880,G#4,293.5,0.479,37,65.1
1881,E-3,293.5,0.45,28,65.1
1882,C5,293.5,0.25,47,65.1
1883,E-4,293.5,0.25,47,65.1
1884,B-4,293.75,0.229,40,65.1
1885,D4,293.75,0.229,40,65.1
1886,G#4,294.0,3.0,35,65.1
1887,B-4,294.0,2.0,50,65.1
1888,D4,294.0,1.0,48,65.1
1889,E-3,294.0,0.45,32,65.1
1890,E-3,294.5,0.45,28,65.1
1891,C4,295.0,0.25,45,65.1
1892,E-3,295.0,0.45,28,65.1
1893,B-3,295.25,0.229,38,65.1
1894,B-3,295.5,0.75,51,65.1
1895,E-3,295.5,0.45,32,65.1
1896,C5,296.0,0.5,44,65.1
1897,E-3,296.0,0.45,28,65.1
1898,G#3,296.25,0.25,38,65.1
1899,G3,296.5,0.25,38,65.1
1900,D5,296.5,0.5,46,65.1
1901,E-3,296.5,0.45,28,65.1
1902,G#3,296.75,0.25,38,65.1
1903,G3,297.0,1.0,51,65.1
1904,E-5,297.0,0.25,51,65.1
1905,E-3,297.0,0.45,32,65.1
1906,F5,297.25,0.083,44,65.1
1907,E-5,297.333,0.083,38,65.1
1908,D5,297.417,0.083,38,65.1
1909,E-5,297.5,0.25,51,65.1
1910,E-3,297.5,0.45,28,65.1
1911,F5,297.75,0.25,47,65.1
1912,G5,298.0,0.25,49,65.1
1913,E-3,298.0,0.45,28,65.1
1914,G#5,298.25,0.188,50,65.1
1915,G5,298.438,0.062,48,65.1
1916,B-5,298.5,1.5,57,65.1
1917,E-3,298.5,0.45,32,65.1
1918,E-3,299.0,0.45,28,65.1
1919,E-3,299.5,0.45,28,65.1
1920,A5,300.0,0.25,47,65.1
1921,E-3,300.0,0.45,32,65.1
1922,B-5,300.25,0.25,52,65.1
1923,C6,300.5,0.25,53,65.1
1924,E-3,300.5,0.45,28,65.1
1925,B-5,300.75,0.25,51,65.1
1926,G#5,301.0,0.25,53,65.1
1927,E-3,301.0,0.45,28,65.1
1928,G5,301.25,0.229,51,65.1
1929,G5,301.5,0.5,57,65.1
1930,E-3,301.5,0.45,32,65.1
1931,G#4,301.5,1.0,32,65.1
1932,C5,301.5,1.0,32,65.1
1933,F5,302.0,0.5,47,65.1
1934,E-3,302.0,0.45,28,65.1
1935,E-3,302.5,0.45,28,65.1
1936,B-4,302.5,0.25,43,65.1
1937,E-5,302.5,0.25,43,65.1
1938,G4,302.5,0.25,43,65.1
1939,D5,302.75,0.25,36,65.1
1940,F4,302.75,0.25,36,65.1
1941,G#4,302.75,0.25,36,65.1
1942,E-3,303.0,0.45,32,65.1
1943,F4,303.0,1.0,42,65.1
1944,D5,303.0,1.0,42,65.1
1945,G#4,303.0,1.0,42,65.1
1946,E-3,303.5,0.45,28,65.1
1947,G#4,304.0,0.479,35,65.1
1948,E-3,304.0,0.45,28,65.1
1949,E-4,304.0,0.25,48,65.1
1950,C5,304.0,0.25,48,65.1
1951,B-4,304.25,0.25,40,65.1
1952,D4,304.25,0.25,40,65.1
1953,G#4,304.5,1.5,35,65.1
1954,D4,304.5,0.25,51,65.1
1955,B-4,304.5,0.5,54,65.1
1956,E-3,304.5,0.45,32,65.1
1957,C4,304.75,0.25,38,65.1
1958,B-3,305.0,0.25,38,65.1
1959,C5,305.0,0.5,44,65.1
1960,E-3,305.0,0.45,28,65.1
1961,G#3,305.25,0.25,38,65.1
1962,D5,305.5,0.5,46,65.1
1963,G3,305.5,0.25,38,65.1
1964,E-3,305.5,0.45,28,65.1
1965,F3,305.75,0.25,38,65.1
1966,E-3,306.0,1.0,32,65.1
1967,E-5,306.0,0.5,54,65.1
1968,G4,306.0,0.5,54,65.1
1969,F#5,306.5,0.5,40,65.1
1970,G5,307.0,0.5,44,65.1
1971,E-4,307.5,1.0,25,65.1
1972,B-3,307.5,1.0,25,65.1
1973,G3,307.5,1.0,25,65.1
1974,A5,308.0,0.5,41,65.1
1975,B-5,308.5,0.5,44,65.1
1976,G4,309.0,1.0,25,65.1
1977,B-4,309.0,1.0,25,65.1
1978,E-5,309.0,1.0,25,65.1
1979,D6,309.5,0.5,40,65.1
1980,E-6,310.0,0.5,44,65.1
1981,G#4,310.5,1.0,25,65.1
1982,C5,310.5,1.0,25,65.1
1983,E-5,310.5,1.0,25,65.1
1984,B5,311.0,0.5,41,65.1
1985,C6,311.5,0.5,44,65.1
1986,E-4,312.0,1.0,25,65.1
1987,C4,312.0,1.0,25,65.1
1988,G#3,312.0,1.0,25,65.1
1989,B4,312.5,0.5,40,65.1
1990,C5,313.0,0.5,42,65.1
1991,A3,313.5,1.0,25,65.1
1992,E-4,313.5,1.0,25,65.1
1993,C4,313.5,1.0,25,65.1
1994,E4,314.0,0.5,38,65.1
1995,F4,314.5,0.5,42,65.1
1996,B-3,315.0,2.979,35,65.1
1997,B-4,315.5,1.25,59,65.1
1998,G4,315.5,0.5,26,65.1
1999,E-4,315.5,0.5,26,65.1
2000,G4,316.0,0.5,28,65.1
2001,E-4,316.0,0.5,28,65.1
2002,E-4,316.5,0.5,34,65.1
2003,G4,316.5,0.5,34,65.1
2004,C5,316.75,0.125,60,65.1
2005,D5,316.875,0.125,62,65.1
2006,E-5,317.0,0.125,64,65.1
2007,E-4,317.0,0.5,38,65.1
2008,G4,317.0,0.5,38,65.1
2009,F5,317.125,0.125,66,65.1
2010,G5,317.25,0.125,68,65.1
2011,G#5,317.375,0.125,70,65.1
2012,B-5,317.5,1.0,72,65.1
2013,E-4,317.5,0.5,42,65.1
2014,G4,317.5,0.5,42,65.1
2015,B-3,318.0,1.5,37,65.1
2016,G#4,318.0,0.5,40,65.1
2017,D4,318.0,0.5,40,65.1
2018,G#5,318.5,0.5,70,65.1
2019,D4,318.5,0.5,36,65.1
2020,G#4,318.5,0.5,36,65.1
2021,F5,319.0,0.5,66,65.1
2022,D4,319.0,0.5,35,65.1
2023,G#4,319.0,0.5,35,65.1
2024,E-5,319.5,0.625,58,65.1
2025,G4,319.5,1.0,39,65.1
2026,E-4,319.5,1.0,39,65.1
2027,D5,320.125,0.125,50,65.1
2028,G5,320.25,0.138,57,65.1
2029,F5,320.375,0.138,54,65.1
2030,E-5,320.5,0.138,53,65.1
2031,D5,320.625,0.138,51,65.1
2032,C5,320.75,0.138,49,65.1
2033,B-4,320.875,0.138,47,65.1
2034,A4,321.0,0.138,53,65.1
2035,B-4,321.125,0.138,51,65.1
2036,E-5,321.25,0.138,59,65.1
2037,D5,321.375,0.138,54,65.1
2038,C5,321.5,0.138,54,65.1
2039,B-4,321.625,0.138,52,65.1
2040,G#4,321.75,0.138,50,65.1
2041,G4,321.875,0.138,50,65.1
2042,F#4,322.0,0.138,52,65.1
2043,G4,322.125,0.138,46,65.1
2044,C5,322.25,0.138,56,65.1
2045,B-4,322.375,0.138,55,65.1
2046,G#4,322.5,0.138,54,65.1
2047,G4,322.625,0.138,52,65.1
2048,F4,322.75,0.138,50,65.1
2049,E-4,322.875,0.138,48,65.1
2050,D4,323.0,0.138,46,65.1
2051,E-4,323.125,0.138,45,65.1
2052,G#4,323.25,0.138,52,65.1
2053,G4,323.375,0.138,51,65.1
2054,F4,323.5,0.138,49,65.1
2055,E-4,323.625,0.138,47,65.1
2056,D4,323.75,0.138,44,65.1
2057,C4,323.875,0.138,42,65.1
2058,A3,324.0,0.125,39,65.1
2059,B-2,324.0,2.979,35,65.1
2060,B-3,324.125,0.125,39,65.1
2061,B3,324.25,0.125,40,65.1
2062,C4,324.375,0.125,41,65.1
2063,C#4,324.5,0.125,42,65.1
2064,G3,324.5,0.5,26,65.1
2065,E-3,324.5,0.5,26,65.1
2066,D4,324.625,0.125,42,65.1
2067,E-4,324.75,0.125,43,65.1
2068,E4,324.875,0.125,44,65.1
2069,F4,325.0,0.125,45,65.1
2070,G3,325.0,0.5,30,65.1
2071,E-3,325.0,0.5,30,65.1
2072,F#4,325.125,0.125,45,65.1
2073,G4,325.25,0.125,46,65.1
2074,G#4,325.375,0.125,47,65.1
2075,A4,325.5,0.125,49,65.1
2076,E-3,325.5,0.5,39,65.1
2077,G3,325.5,0.5,39,65.1
2078,B-4,325.625,0.125,50,65.1
2079,B4,325.75,0.125,52,65.1
2080,C5,325.875,0.125,54,65.1
2081,C#5,326.0,0.125,56,65.1
2082,E-3,326.0,0.5,45,65.1
2083,G3,326.0,0.5,45,65.1
2084,D5,326.125,0.125,58,65.1
2085,E-5,326.25,0.125,60,65.1
2086,E5,326.375,0.125,61,65.1
2087,F5,326.5,0.1,64,65.1
2088,E-3,326.5,0.5,51,65.1
2089,G3,326.5,0.5,51,65.1
2090,F#5,326.6,0.1,65,65.1
2091,G5,326.7,0.1,67,65.1
2092,G#5,326.8,0.1,69,65.1
2093,A5,326.9,0.1,70,65.1
2094,B-5,327.0,0.625,80,65.1
2095,B-2,327.0,1.5,45,65.1
2096,G#3,327.0,0.5,57,65.1
2097,D3,327.0,0.5,57,65.1
2098,D3,327.5,0.5,36,65.1
2099,G#3,327.5,0.5,36,65.1
2100,G#5,327.625,0.125,69,65.1
2101,F5,327.75,0.125,66,65.1
2102,D5,327.875,0.125,63,65.1
2103,B-4,328.0,0.125,60,65.1
2104,D3,328.0,0.5,35,65.1
2105,G#3,328.0,0.5,35,65.1
2106,G#4,328.125,0.125,57,65.1
2107,F4,328.25,0.125,54,65.1
2108,D4,328.375,0.125,51,65.1
2109,E-4,328.5,1.0,56,65.1
2110,E-3,328.5,0.5,44,65.1
2111,G3,329.0,0.5,39,65.1
2112,B-3,329.5,0.5,39,65.1
2113,E-4,330.0,0.5,44,65.1
2114,G4,330.5,0.5,38,65.1
2115,E-5,331.0,1.5,56,65.1
2116,F#5,331.0,1.0,67,65.1
2117,A4,331.0,0.5,38,65.1
2118,B-4,331.5,1.0,44,65.1
2119,G5,332.0,0.5,54,65.1
2120,G#5,332.5,0.375,59,65.1
2121,D5,332.5,0.5,50,65.1
2122,F4,332.5,0.375,44,65.1
2123,B-3,332.5,0.5,37,65.1
2124,F5,332.875,0.125,53,65.1
2125,G#4,332.875,0.125,40,65.1
2126,E-2,333.0,0.5,44,65.1
2127,G4,333.0,1.0,52,65.1
2128,E-5,333.0,1.0,52,65.1
2129,G2,333.5,0.5,39,65.1
2130,B-2,334.0,0.5,39,65.1
2131,E-3,334.5,0.5,44,65.1
2132,G3,335.0,0.5,38,65.1
2133,F#4,335.5,1.0,60,65.1
2134,E-4,335.5,1.5,50,65.1
2135,A3,335.5,0.5,34,65.1
2136,B-3,336.0,1.0,39,65.1
2137,G4,336.5,0.5,48,65.1
2138,G#4,337.0,0.375,53,65.1
2139,D4,337.0,0.5,45,65.1
2140,F3,337.0,0.375,39,65.1
2141,B-2,337.0,0.5,33,65.1
2142,F4,337.375,0.125,43,65.1
2143,G#3,337.375,0.125,36,65.1
2144,E-4,337.5,0.5,48,65.1
2145,E-3,337.5,0.5,37,65.1
2146,G3,337.5,0.5,37,65.1
2147,G#4,338.0,0.75,51,65.1
2148,D4,338.0,1.0,43,65.1
2149,B-2,338.0,1.0,33,65.1
2150,F3,338.0,0.75,39,65.1
2151,F4,338.75,0.25,44,65.1
2152,G#3,338.75,0.25,34,65.1
2153,E-4,339.0,0.5,48,65.1
2154,E-3,339.0,0.5,37,65.1
2155,G3,339.0,0.5,37,65.1
2156,G#4,339.5,0.75,51,65.1
2157,D4,339.5,1.0,43,65.1
2158,B-2,339.5,1.0,33,65.1
2159,F3,339.5,0.75,39,65.1
2160,F4,340.25,0.25,44,65.1
2161,G#3,340.25,0.25,34,65.1
2162,E-4,340.5,0.5,48,65.1
2163,E-3,340.5,0.5,37,65.1
2164,G3,340.5,0.5,37,65.1
2165,G#4,341.0,0.25,60,65.1
2166,G#3,341.0,0.479,50,65.1
2167,B-2,341.0,0.5,38,65.1
2168,F3,341.0,0.25,46,65.1
2169,G4,341.25,0.25,56,65.1
2170,E3,341.25,0.25,43,65.1
2171,G#3,341.5,0.479,49,65.1
2172,G#4,341.5,0.25,66,65.1
2173,B-2,341.5,0.5,38,65.1
2174,F3,341.5,0.25,51,65.1
2175,F4,341.75,0.25,61,65.1
2176,D3,341.75,0.25,47,65.1
2177,E4,342.0,0.083,35,65.1
2178,F4,342.083,0.083,34,65.1
2179,G4,342.167,0.083,28,65.1
2180,D3,342.25,1.25,31,65.1
2181,G#3,342.25,1.25,34,65.1
2182,F4,342.25,1.25,34,65.1
2183,E-2,342.25,2.25,26,65.1
2184,B-2,342.25,2.25,26,65.1
2185,E-3,343.5,1.0,25,65.1
2186,G3,343.5,1.0,27,65.1
2187,E-4,343.5,1.0,27,65.1
,note_name,start_time,duration,velocity,tempo
0,D4,2.0,0.75,50,110.97
1,E-4,2.75,0.25,46,110.97
2,F4,3.0,1.938,50,110.97
3,B-2,3.0,0.25,40,110.97
4,B-3,3.5,0.5,29,110.97
5,D4,4.0,0.5,34,110.97
6,B-3,4.5,0.5,29,110.97
7,A4,4.938,0.062,46,110.97
8,G4,5.0,0.25,50,110.97
9,E-4,5.0,0.5,34,110.97
10,F4,5.25,0.25,45,110.97
11,G4,5.5,0.25,50,110.97
12,C4,5.5,0.5,31,110.97
13,A4,5.75,0.25,43,110.97
14,B-4,6.0,1.0,50,110.97
15,D4,6.0,0.5,40,110.97
16,C#4,6.5,0.5,30,110.97
17,F4,7.0,0.875,41,110.97
18,D4,7.0,0.5,34,110.97
19,B-3,7.5,0.5,30,110.97
20,A4,7.938,0.062,43,110.97
21,G4,8.0,0.25,50,110.97
22,E-4,8.0,0.5,34,110.97
23,F4,8.25,0.25,46,110.97
24,G4,8.5,0.25,50,110.97
25,C4,8.5,0.5,29,110.97
26,A4,8.75,0.25,50,110.97
27,B-4,9.0,0.125,50,110.97
28,D4,9.0,0.5,40,110.97
29,C#4,9.5,0.5,30,110.97
30,A4,9.75,0.125,46,110.97
31,B-4,10.0,0.125,56,110.97
32,D4,10.0,0.5,34,110.97
33,A3,10.5,0.5,30,110.97
34,C5,10.75,0.125,48,110.97
35,D5,11.0,0.125,55,110.97
36,B-3,11.0,0.5,34,110.97
37,G3,11.5,0.479,30,110.97
38,E5,11.75,0.125,59,110.97
39,F3,12.0,1.5,40,110.97
40,B-4,12.0,1.0,58,110.97
41,E5,12.0,1.0,58,110.97
42,F4,13.0,0.5,35,110.97
43,A4,13.0,0.5,52,110.97
44,F5,13.0,0.5,52,110.97
45,F5,13.938,0.062,43,110.97
46,E-5,14.0,0.25,50,110.97
47,D5,14.25,0.25,46,110.97
48,E-5,14.5,0.25,54,110.97
49,F5,14.75,0.25,51,110.97
50,G5,15.0,1.0,59,110.97
51,F3,15.5,3.0,36,110.97
52,C5,16.0,0.875,50,110.97
53,A3,16.0,0.5,40,110.97
54,C4,16.5,0.5,37,110.97
55,D5,16.938,0.062,43,110.97
56,C5,17.0,0.25,50,110.97
57,E-4,17.0,1.5,40,110.97
58,B4,17.25,0.25,46,110.97
59,C5,17.5,0.25,54,110.97
60,D5,17.75,0.25,51,110.97
61,E-5,18.0,1.0,59,110.97
62,F3,18.5,3.5,42,110.97
63,A4,19.0,0.875,50,110.97
64,C4,19.0,0.5,48,110.97
65,E-4,19.5,0.5,41,110.97
66,B-4,19.938,0.062,43,110.97
67,A4,20.0,0.25,50,110.97
68,F#4,20.0,2.0,55,110.97
69,G4,20.25,0.25,46,110.97
70,A4,20.5,0.25,52,110.97
71,B-4,20.75,0.167,48,110.97
72,D5,20.938,0.062,43,110.97
73,C5,21.0,0.25,53,110.97
74,B4,21.25,0.25,50,110.97
75,C5,21.5,0.25,54,110.97
76,D5,21.75,0.167,51,110.97
77,F5,21.938,0.062,43,110.97
78,E-5,22.0,0.25,57,110.97
79,F4,22.0,1.0,38,110.97
80,F3,22.0,1.0,38,110.97
81,D5,22.25,0.25,52,110.97
82,E-5,22.5,0.25,58,110.97
83,F5,22.75,0.25,55,110.97
84,G5,23.0,0.125,64,110.97
85,F3,23.0,1.0,32,110.97
86,E-4,23.0,1.0,32,110.97
87,A4,23.75,0.25,42,110.97
88,C5,24.0,1.0,50,110.97
89,B-3,24.0,1.5,30,110.97
90,E-4,24.0,1.0,36,110.97
91,B-4,25.0,0.5,44,110.97
92,D4,25.0,0.5,32,110.97
93,D4,26.0,0.75,50,110.97
94,E-4,26.75,0.25,46,110.97
95,F4,27.0,1.938,50,110.97
96,B-2,27.0,0.25,40,110.97
97,B-3,27.5,0.5,29,110.97
98,D4,28.0,0.5,34,110.97
99,B-3,28.5,0.5,29,110.97
100,A4,28.938,0.062,46,110.97
101,G4,29.0,0.25,50,110.97
102,E-4,29.0,0.5,34,110.97
103,F4,29.25,0.25,45,110.97
104,G4,29.5,0.25,50,110.97
105,C4,29.5,0.5,31,110.97
106,A4,29.75,0.25,43,110.97
107,B-4,30.0,1.0,50,110.97
108,D4,30.0,0.5,40,110.97
109,C#4,30.5,0.5,30,110.97
110,F4,31.0,0.875,41,110.97
111,D4,31.0,0.5,34,110.97
112,B-3,31.5,0.5,30,110.97
113,A4,31.938,0.062,43,110.97
114,G4,32.0,0.25,50,110.97
115,E-4,32.0,0.5,34,110.97
116,F4,32.25,0.25,46,110.97
117,G4,32.5,0.25,50,110.97
118,C4,32.5,0.5,29,110.97
119,A4,32.75,0.25,50,110.97
120,B-4,33.0,0.125,50,110.97
121,D4,33.0,0.5,40,110.97
122,C#4,33.5,0.5,30,110.97
123,A4,33.75,0.125,46,110.97
124,B-4,34.0,0.125,56,110.97
125,D4,34.0,0.5,34,110.97
126,A3,34.5,0.5,30,110.97
127,C5,34.75,0.125,48,110.97
128,D5,35.0,0.125,55,110.97
129,B-3,35.0,0.5,34,110.97
130,G3,35.5,0.479,30,110.97
131,E5,35.75,0.125,59,110.97
132,F3,36.0,1.5,40,110.97
133,B-4,36.0,1.0,58,110.97
134,E5,36.0,1.0,58,110.97
135,F4,37.0,0.5,35,110.97
136,A4,37.0,0.5,52,110.97
137,F5,37.0,0.5,52,110.97
138,F5,37.938,0.062,43,110.97
139,E-5,38.0,0.25,50,110.97
140,D5,38.25,0.25,46,110.97
141,E-5,38.5,0.25,54,110.97
142,F5,38.75,0.25,51,110.97
143,G5,39.0,1.0,59,110.97
144,F3,39.5,3.0,36,110.97
145,C5,40.0,0.875,50,110.97
146,A3,40.0,0.5,40,110.97
147,C4,40.5,0.5,37,110.97
148,D5,40.938,0.062,43,110.97
149,C5,41.0,0.25,50,110.97
150,E-4,41.0,1.5,40,110.97
151,B4,41.25,0.25,46,110.97
152,C5,41.5,0.25,54,110.97
153,D5,41.75,0.25,51,110.97
154,E-5,42.0,1.0,59,110.97
155,F3,42.5,3.5,42,110.97
156,A4,43.0,0.875,50,110.97
157,C4,43.0,0.5,48,110.97
158,E-4,43.5,0.5,41,110.97
159,B-4,43.938,0.062,43,110.97
160,A4,44.0,0.25,50,110.97
161,F#4,44.0,2.0,55,110.97
162,G4,44.25,0.25,46,110.97
163,A4,44.5,0.25,52,110.97
164,B-4,44.75,0.167,48,110.97
165,D5,44.938,0.062,43,110.97
166,C5,45.0,0.25,53,110.97
167,B4,45.25,0.25,50,110.97
168,C5,45.5,0.25,54,110.97
169,D5,45.75,0.167,51,110.97
170,F5,45.938,0.062,43,110.97
171,E-5,46.0,0.25,57,110.97
172,F4,46.0,1.0,38,110.97
173,F3,46.0,1.0,38,110.97
174,D5,46.25,0.25,52,110.97
175,E-5,46.5,0.25,58,110.97
176,F5,46.75,0.25,55,110.97
177,G5,47.0,0.125,64,110.97
178,F3,47.0,1.0,32,110.97
179,E-4,47.0,1.0,32,110.97
180,A4,47.75,0.25,42,110.97
181,C5,48.0,1.0,50,110.97
182,B-3,48.0,1.5,30,110.97
183,E-4,48.0,1.0,36,110.97
184,B-4,49.0,0.5,44,110.97
185,D4,49.0,0.5,32,110.97
186,F#4,50.0,0.25,38,110.97
187,A4,50.0,0.25,42,110.97
188,D5,50.0,0.25,42,110.97
189,G4,50.25,0.25,33,110.97
190,B-4,50.25,0.25,38,110.97
191,C#5,50.25,0.25,38,110.97
192,F#4,50.5,0.25,42,110.97
193,A4,50.5,0.25,46,110.97
194,D5,50.5,0.25,46,110.97
195,G4,50.75,0.25,38,110.97
196,B-4,50.75,0.25,37,110.97
197,C#5,50.75,0.25,37,110.97
198,F#4,51.0,0.25,45,110.97
199,A4,51.0,0.25,50,110.97
200,D5,51.0,0.25,50,110.97
201,G4,51.25,0.25,39,110.97
202,B-4,51.25,0.25,44,110.97
203,C#5,51.25,0.25,44,110.97
204,F#4,51.5,0.25,49,110.97
205,A4,51.5,0.25,53,110.97
206,D5,51.5,0.25,53,110.97
207,G4,51.75,0.25,45,110.97
208,B-4,51.75,0.25,43,110.97
209,C#5,51.75,0.25,43,110.97
210,F#4,52.0,0.25,52,110.97
211,A4,52.0,0.25,57,110.97
212,D5,52.0,0.25,57,110.97
213,G4,52.25,0.25,45,110.97
214,B-4,52.25,0.25,52,110.97
215,C#5,52.25,0.25,52,110.97
216,F#4,52.5,0.25,55,110.97
217,A4,52.5,0.25,60,110.97
218,D5,52.5,0.25,60,110.97
219,G4,52.75,0.25,52,110.97
220,B-4,52.75,0.25,50,110.97
221,C#5,52.75,0.25,50,110.97
222,F#4,53.0,0.25,59,110.97
223,A4,53.0,0.25,65,110.97
224,D5,53.0,0.25,65,110.97
225,G4,53.25,0.25,52,110.97
226,B-4,53.25,0.25,58,110.97
227,C#5,53.25,0.25,58,110.97
228,F#4,53.5,0.25,63,110.97
229,A4,53.5,0.25,69,110.97
230,D5,53.5,0.25,69,110.97
231,G4,53.75,0.25,58,110.97
232,B-4,53.75,0.25,57,110.97
233,C#5,53.75,0.25,57,110.97
234,F#4,54.0,0.5,70,110.97
235,A4,54.0,0.5,83,110.97
236,D5,54.0,0.5,83,110.97
237,D6,55.0,1.5,92,110.97
238,F#5,55.0,1.5,92,110.97
239,D3,55.0,1.5,68,110.97
240,D4,55.0,1.5,68,110.97
241,C6,56.5,0.25,69,110.97
242,F#5,56.5,0.25,69,110.97
243,D3,56.5,0.25,51,110.97
244,D4,56.5,0.25,51,110.97
245,B-5,57.0,0.5,84,110.97
246,G5,57.0,0.5,84,110.97
247,E-3,57.0,0.5,62,110.97
248,E-4,57.0,0.5,62,110.97
249,A5,57.75,0.125,67,110.97
250,E-5,57.75,0.125,67,110.97
251,C3,57.75,0.125,49,110.97
252,C4,57.75,0.125,49,110.97
253,B-4,58.0,0.5,78,110.97
254,G5,58.0,0.5,78,110.97
255,D3,58.0,0.5,58,110.97
256,D4,58.0,0.5,58,110.97
257,C5,59.0,0.5,75,110.97
258,F#5,59.0,0.5,75,110.97
259,D2,59.0,0.5,56,110.97
260,D3,59.0,0.5,56,110.97
261,C5,60.0,1.0,76,110.97
262,A5,60.0,1.0,76,110.97
263,G2,60.0,1.5,56,110.97
264,G3,60.0,1.5,56,110.97
265,B-4,61.0,0.5,66,110.97
266,G5,61.0,0.5,66,110.97
267,D3,62.0,0.252,25,110.97
268,G#3,62.0,0.252,28,110.97
269,B-3,62.0,0.252,28,110.97
270,B3,62.25,0.252,27,110.97
271,E-3,62.25,0.252,22,110.97
272,D3,62.5,0.252,27,110.97
273,G#3,62.5,0.252,30,110.97
274,B-3,62.5,0.252,30,110.97
275,B3,62.75,0.252,26,110.97
276,E-3,62.75,0.252,24,110.97
277,D3,63.0,0.252,28,110.97
278,G#3,63.0,0.252,31,110.97
279,B-3,63.0,0.252,31,110.97
280,B3,63.25,0.252,30,110.97
281,E-3,63.25,0.252,24,110.97
282,D3,63.5,0.252,30,110.97
283,G#3,63.5,0.252,33,110.97
284,B-3,63.5,0.252,33,110.97
285,B3,63.75,0.252,29,110.97
286,E-3,63.75,0.252,28,110.97
287,D3,64.0,0.252,33,110.97
288,G#3,64.0,0.252,36,110.97
289,B-3,64.0,0.252,36,110.97
290,B3,64.25,0.252,36,110.97
291,E-3,64.25,0.252,29,110.97
292,D3,64.5,0.252,36,110.97
293,G#3,64.5,0.252,39,110.97
294,B-3,64.5,0.252,39,110.97
295,B3,64.75,0.252,34,110.97
296,E-3,64.75,0.252,33,110.97
297,D3,65.0,0.252,38,110.97
298,G#3,65.0,0.252,42,110.97
299,B-3,65.0,0.252,42,110.97
300,B3,65.25,0.252,41,110.97
301,E-3,65.25,0.252,33,110.97
302,D3,65.5,0.252,40,110.97
303,G#3,65.5,0.252,44,110.97
304,B-3,65.5,0.252,44,110.97
305,B3,65.75,0.252,40,110.97
306,E-3,65.75,0.252,38,110.97
307,D3,66.0,0.5,54,110.97
308,G#3,66.0,0.5,65,110.97
309,B-3,66.0,0.5,65,110.97
310,G#5,67.0,1.5,78,110.97
311,B4,67.0,1.5,78,110.97
312,D3,67.0,1.5,58,110.97
313,F3,67.0,1.5,58,110.97
314,G5,68.5,0.5,54,110.97
315,C5,68.5,0.5,54,110.97
316,E-3,68.5,0.5,40,110.97
317,G3,68.5,0.5,40,110.97
318,F5,69.0,0.75,64,110.97
319,G#4,69.0,0.75,64,110.97
320,B2,69.0,0.75,47,110.97
321,D3,69.0,0.75,47,110.97
322,E-5,69.75,0.25,49,110.97
323,G4,69.75,0.25,49,110.97
324,C3,69.75,0.25,36,110.97
325,E-3,69.75,0.25,36,110.97
326,F4,70.0,1.0,56,110.97
327,D5,70.0,1.0,56,110.97
328,D3,70.0,1.0,42,110.97
329,F3,70.0,1.0,42,110.97
330,E-4,71.0,1.0,50,110.97
331,C5,71.0,1.0,50,110.97
332,E-3,71.0,1.0,38,110.97
333,G3,71.0,1.0,38,110.97
334,F3,72.0,1.0,36,110.97
335,D4,72.0,1.0,44,110.97
336,B-4,72.0,1.0,44,110.97
337,F2,73.0,0.5,30,110.97
338,C4,73.0,0.5,39,110.97
339,A4,73.0,0.5,39,110.97
340,D4,74.0,0.75,50,110.97
341,E-4,74.75,0.25,46,110.97
342,F4,75.0,1.938,50,110.97
343,B-2,75.0,0.25,40,110.97
344,B-3,75.5,0.5,29,110.97
345,D4,76.0,0.5,34,110.97
346,B-3,76.5,0.5,29,110.97
347,A4,76.938,0.062,46,110.97
348,G4,77.0,0.25,50,110.97
349,E-4,77.0,0.5,34,110.97
350,F4,77.25,0.25,45,110.97
351,G4,77.5,0.25,50,110.97
352,C4,77.5,0.5,31,110.97
353,A4,77.75,0.25,43,110.97
354,B-4,78.0,1.0,50,110.97
355,D4,78.0,0.5,40,110.97
356,C#4,78.5,0.5,30,110.97
357,F4,79.0,0.875,41,110.97
358,D4,79.0,0.5,34,110.97
359,B-3,79.5,0.5,30,110.97
360,A4,79.938,0.062,43,110.97
361,G4,80.0,0.25,50,110.97
362,E-4,80.0,0.5,34,110.97
363,F4,80.25,0.25,46,110.97
364,G4,80.5,0.25,50,110.97
365,C4,80.5,0.5,29,110.97
366,A4,80.75,0.25,50,110.97
367,B-4,81.0,0.125,50,110.97
368,D4,81.0,0.5,40,110.97
369,C#4,81.5,0.5,30,110.97
370,A4,81.75,0.125,46,110.97
371,B-4,82.0,0.125,56,110.97
372,D4,82.0,0.5,34,110.97
373,A3,82.5,0.5,30,110.97
374,C5,82.75,0.125,48,110.97
375,D5,83.0,0.125,55,110.97
376,B-3,83.0,0.5,34,110.97
377,G3,83.5,0.479,30,110.97
378,E5,83.75,0.125,59,110.97
379,F3,84.0,1.5,40,110.97
380,B-4,84.0,1.0,58,110.97
381,E5,84.0,1.0,58,110.97
382,F4,85.0,0.5,35,110.97
383,A4,85.0,0.5,52,110.97
384,F5,85.0,0.5,52,110.97
385,F5,85.938,0.062,43,110.97
386,E-5,86.0,0.25,50,110.97
387,D5,86.25,0.25,46,110.97
388,E-5,86.5,0.25,54,110.97
389,F5,86.75,0.25,51,110.97
390,G5,87.0,1.0,59,110.97
391,F2,87.25,0.25,37,110.97
392,A2,87.5,0.25,38,110.97
393,C3,87.75,0.25,39,110.97
394,C5,88.0,0.875,50,110.97
395,F3,88.0,0.25,40,110.97
396,A3,88.25,0.25,41,110.97
397,C4,88.5,0.25,42,110.97
398,D4,88.75,0.25,43,110.97
399,D5,88.938,0.062,43,110.97
400,C5,89.0,0.25,50,110.97
401,E-4,89.0,1.25,48,110.97
402,B4,89.25,0.25,46,110.97
403,C5,89.5,0.25,54,110.97
404,D5,89.75,0.25,51,110.97
405,E-5,90.0,1.0,59,110.97
406,F2,90.25,0.25,37,110.97
407,A2,90.5,0.25,41,110.97
408,C3,90.75,0.25,43,110.97
409,A4,91.0,0.875,50,110.97
410,F3,91.0,0.25,44,110.97
411,A3,91.25,0.25,46,110.97
412,C4,91.5,0.25,48,110.97
413,E-4,91.75,0.25,49,110.97
414,B-4,91.938,0.062,43,110.97
415,A4,92.0,0.25,50,110.97
416,F#4,92.0,2.0,55,110.97
417,G4,92.25,0.25,46,110.97
418,A4,92.5,0.25,52,110.97
419,B-4,92.75,0.167,48,110.97
420,D5,92.938,0.062,43,110.97
421,C5,93.0,0.25,53,110.97
422,B4,93.25,0.25,50,110.97
423,C5,93.5,0.25,54,110.97
424,D5,93.75,0.167,51,110.97
425,F5,93.938,0.062,43,110.97
426,E-5,94.0,0.25,57,110.97
427,F4,94.0,1.0,38,110.97
428,F3,94.0,1.0,38,110.97
429,D5,94.25,0.25,52,110.97
430,E-5,94.5,0.25,58,110.97
431,F5,94.75,0.25,55,110.97
432,G5,95.0,0.25,61,110.97
433,F3,95.0,1.0,32,110.97
434,E-4,95.0,1.0,32,110.97
435,E-5,95.25,0.25,59,110.97
436,C5,95.5,0.25,52,110.97
437,A4,95.75,0.25,42,110.97
438,B-4,96.0,1.0,50,110.97
439,B-2,96.0,0.25,40,110.97
440,B-3,96.5,0.5,29,110.97
441,D4,97.0,0.5,34,110.97
442,B-3,97.5,0.5,29,110.97
443,A5,97.938,0.062,46,110.97
444,G5,98.0,0.25,50,110.97
445,E-4,98.0,0.5,34,110.97
446,F#5,98.25,0.25,45,110.97
447,G5,98.5,0.25,50,110.97
448,B-3,98.5,0.5,31,110.97
449,A5,98.75,0.25,43,110.97
450,B-5,99.0,1.0,50,110.97
451,D4,99.0,0.5,40,110.97
452,C#4,99.5,0.5,30,110.97
453,F5,100.0,0.875,41,110.97
454,D4,100.0,0.5,34,110.97
455,B-3,100.5,0.5,30,110.97
456,A4,100.938,0.062,43,110.97
457,E-5,101.0,1.0,41,110.97
458,G4,101.0,0.25,50,110.97
459,C4,101.0,0.5,34,110.97
460,F4,101.25,0.25,46,110.97
461,G4,101.5,0.25,50,110.97
462,F3,101.5,0.5,29,110.97
463,A4,101.75,0.25,46,110.97
464,B-3,102.0,0.5,40,110.97
465,D5,102.0,1.0,47,110.97
466,B-4,102.0,1.0,47,110.97
467,B-2,102.5,0.5,30,110.97
468,F4,103.0,0.5,41,110.97
469,D3,103.0,0.5,34,110.97
470,B-2,103.5,0.5,30,110.97
471,A4,103.938,0.062,43,110.97
472,G4,104.0,0.25,50,110.97
473,E-3,104.0,0.5,34,110.97
474,F#4,104.25,0.25,46,110.97
475,G4,104.5,0.25,50,110.97
476,B-2,104.5,0.5,29,110.97
477,A4,104.75,0.25,46,110.97
478,B-4,105.0,1.0,50,110.97
479,D3,105.0,0.5,40,110.97
480,C#3,105.5,0.5,30,110.97
481,F4,106.0,0.875,41,110.97
482,D3,106.0,0.5,34,110.97
483,B-2,106.5,0.5,30,110.97
484,A3,106.938,0.062,36,110.97
485,E-4,107.0,1.0,34,110.97
486,G3,107.0,0.25,42,110.97
487,C3,107.0,0.5,34,110.97
488,F3,107.25,0.25,39,110.97
489,G3,107.5,0.25,42,110.97
490,F2,107.5,0.5,29,110.97
491,A3,107.75,0.25,39,110.97
492,D4,108.0,1.0,34,110.97
493,B-3,108.0,0.5,42,110.97
494,B-2,108.0,0.5,40,110.97
495,F3,108.5,0.417,33,110.97
496,D3,108.5,0.5,30,110.97
497,A3,108.938,0.062,37,110.97
498,E-4,109.0,1.0,39,110.97
499,G3,109.0,0.25,43,110.97
500,C3,109.0,0.5,35,110.97
501,F3,109.25,0.25,40,110.97
502,G3,109.5,0.25,44,110.97
503,F2,109.5,0.5,31,110.97
504,A3,109.75,0.25,40,110.97
505,D4,110.0,1.0,36,110.97
506,B-3,110.0,0.5,44,110.97
507,B-2,110.0,0.5,36,110.97
508,F3,110.5,0.375,34,110.97
509,D3,110.5,0.5,31,110.97
510,A3,110.938,0.062,39,110.97
511,E-4,111.0,1.0,44,110.97
512,G3,111.0,0.25,46,110.97
513,C3,111.0,0.5,44,110.97
514,F3,111.25,0.25,43,110.97
515,G3,111.5,0.25,47,110.97
516,F2,111.5,0.5,33,110.97
517,A3,111.75,0.25,44,110.97
518,D4,112.0,0.5,42,110.97
519,B-3,112.0,0.25,48,110.97
520,B-2,112.0,0.25,45,110.97
521,F3,112.25,0.25,41,110.97
522,D3,112.25,0.25,37,110.97
523,E-4,112.5,0.5,40,110.97
524,A3,112.5,0.25,50,110.97
525,F2,112.5,0.25,46,110.97
526,F3,112.75,0.25,43,110.97
527,C3,112.75,0.25,39,110.97
528,D4,113.0,0.5,49,110.97
529,B-3,113.0,0.25,51,110.97
530,B-2,113.0,0.25,47,110.97
531,F3,113.25,0.25,46,110.97
532,D3,113.25,0.25,41,110.97
533,E-4,113.5,0.5,42,110.97
534,A3,113.5,0.25,52,110.97
535,F2,113.5,0.25,49,110.97
536,F3,113.75,0.25,47,110.97
537,C3,113.75,0.25,43,110.97
538,B-3,114.0,0.25,37,110.97
539,D4,114.0,0.25,37,110.97
540,B-2,114.0,0.25,27,110.97
541,D3,114.0,0.25,27,110.97
542,D4,115.0,0.25,37,110.97
543,B-4,115.0,0.25,37,110.97
544,B-1,115.0,0.25,27,110.97
545,B-2,115.0,0.25,27,110.97
546,F#4,116.0,0.25,38,110.97
547,A4,116.0,0.25,42,110.97
548,D5,116.0,0.25,42,110.97
549,G4,116.25,0.25,33,110.97
550,B-4,116.25,0.25,38,110.97
551,C#5,116.25,0.25,38,110.97
552,F#4,116.5,0.25,42,110.97
553,A4,116.5,0.25,46,110.97
554,D5,116.5,0.25,46,110.97
555,G4,116.75,0.25,38,110.97
556,B-4,116.75,0.25,37,110.97
557,C#5,116.75,0.25,37,110.97
558,F#4,117.0,0.25,45,110.97
559,A4,117.0,0.25,49,110.97
560,D5,117.0,0.25,49,110.97
561,G4,117.25,0.25,39,110.97
562,B-4,117.25,0.25,44,110.97
563,C#5,117.25,0.25,44,110.97
564,F#4,117.5,0.25,48,110.97
565,A4,117.5,0.25,52,110.97
566,D5,117.5,0.25,52,110.97
567,G4,117.75,0.25,45,110.97
568,B-4,117.75,0.25,43,110.97
569,C#5,117.75,0.25,43,110.97
570,F#4,118.0,0.25,52,110.97
571,A4,118.0,0.25,57,110.97
572,D5,118.0,0.25,57,110.97
573,G4,118.25,0.25,45,110.97
574,B-4,118.25,0.25,52,110.97
575,C#5,118.25,0.25,52,110.97
576,F#4,118.5,0.25,55,110.97
577,A4,118.5,0.25,60,110.97
578,D5,118.5,0.25,60,110.97
579,G4,118.75,0.25,52,110.97
580,B-4,118.75,0.25,50,110.97
581,C#5,118.75,0.25,50,110.97
582,F#4,119.0,0.25,59,110.97
583,A4,119.0,0.25,65,110.97
584,D5,119.0,0.25,65,110.97
585,G4,119.25,0.25,51,110.97
586,B-4,119.25,0.25,58,110.97
587,C#5,119.25,0.25,58,110.97
588,F#4,119.5,0.25,63,110.97
589,A4,119.5,0.25,69,110.97
590,D5,119.5,0.25,69,110.97
591,G4,119.75,0.25,58,110.97
592,B-4,119.75,0.25,56,110.97
593,C#5,119.75,0.25,56,110.97
594,F#4,120.0,0.5,70,110.97
595,A4,120.0,0.5,83,110.97
596,D5,120.0,0.5,83,110.97
597,D6,121.0,1.5,92,110.97
598,F#5,121.0,1.5,92,110.97
599,D3,121.0,1.5,68,110.97
600,D4,121.0,1.5,68,110.97
601,C6,122.5,0.25,69,110.97
602,F#5,122.5,0.25,69,110.97
603,D3,122.5,0.25,51,110.97
604,D4,122.5,0.25,51,110.97
605,B-5,123.0,0.5,84,110.97
606,G5,123.0,0.5,84,110.97
607,E-3,123.0,0.5,62,110.97
608,E-4,123.0,0.5,62,110.97
609,A5,123.75,0.125,67,110.97
610,E-5,123.75,0.125,67,110.97
611,C3,123.75,0.125,49,110.97
612,C4,123.75,0.125,49,110.97
613,B-4,124.0,0.5,78,110.97
614,G5,124.0,0.5,78,110.97
615,D3,124.0,0.5,58,110.97
616,D4,124.0,0.5,58,110.97
617,C5,125.0,0.5,75,110.97
618,F#5,125.0,0.5,75,110.97
619,D2,125.0,0.5,56,110.97
620,D3,125.0,0.5,56,110.97
621,C5,126.0,1.0,76,110.97
622,A5,126.0,1.0,76,110.97
623,G2,126.0,1.5,56,110.97
624,G3,126.0,1.5,56,110.97
625,B-4,127.0,0.5,66,110.97
626,G5,127.0,0.5,66,110.97
627,D3,128.0,0.252,25,110.97
628,G#3,128.0,0.252,28,110.97
629,B-3,128.0,0.252,28,110.97
630,B3,128.25,0.252,27,110.97
631,E-3,128.25,0.252,22,110.97
632,D3,128.5,0.252,27,110.97
633,G#3,128.5,0.252,30,110.97
634,B-3,128.5,0.252,30,110.97
635,B3,128.75,0.252,27,110.97
636,E-3,128.75,0.252,24,110.97
637,D3,129.0,0.252,29,110.97
638,G#3,129.0,0.252,32,110.97
639,B-3,129.0,0.252,32,110.97
640,B3,129.25,0.252,32,110.97
641,E-3,129.25,0.252,25,110.97
642,D3,129.5,0.252,32,110.97
643,G#3,129.5,0.252,34,110.97
644,B-3,129.5,0.252,34,110.97
645,B3,129.75,0.252,30,110.97
646,E-3,129.75,0.252,29,110.97
647,D3,130.0,0.252,34,110.97
648,G#3,130.0,0.252,38,110.97
649,B-3,130.0,0.252,38,110.97
650,B3,130.25,0.252,38,110.97
651,E-3,130.25,0.252,30,110.97
652,D3,130.5,0.252,37,110.97
653,G#3,130.5,0.252,40,110.97
654,B-3,130.5,0.252,40,110.97
655,B3,130.75,0.252,35,110.97
656,E-3,130.75,0.252,34,110.97
657,D3,131.0,0.252,39,110.97
658,G#3,131.0,0.252,42,110.97
659,B-3,131.0,0.252,42,110.97
660,B3,131.25,0.252,42,110.97
661,E-3,131.25,0.252,34,110.97
662,D3,131.5,0.252,42,110.97
663,G#3,131.5,0.252,46,110.97
664,B-3,131.5,0.252,46,110.97
665,B3,131.75,0.252,41,110.97
666,E-3,131.75,0.252,38,110.97
667,D3,132.0,0.5,54,110.97
668,G#3,132.0,0.5,65,110.97
669,B-3,132.0,0.5,65,110.97
670,G#5,133.0,1.5,78,110.97
671,B4,133.0,1.5,78,110.97
672,D3,133.0,1.5,58,110.97
673,F3,133.0,1.5,58,110.97
674,G5,134.5,0.5,54,110.97
675,C5,134.5,0.5,54,110.97
676,E-3,134.5,0.5,40,110.97
677,G3,134.5,0.5,40,110.97
678,F5,135.0,0.75,64,110.97
679,G#4,135.0,0.75,64,110.97
680,B2,135.0,0.75,47,110.97
681,D3,135.0,0.75,47,110.97
682,E-5,135.75,0.25,49,110.97
683,G4,135.75,0.25,49,110.97
684,C3,135.75,0.25,36,110.97
685,E-3,135.75,0.25,36,110.97
686,F4,136.0,1.0,56,110.97
687,D5,136.0,1.0,56,110.97
688,D3,136.0,1.0,42,110.97
689,F3,136.0,1.0,42,110.97
690,E-4,137.0,1.0,50,110.97
691,C5,137.0,1.0,50,110.97
692,E-3,137.0,1.0,38,110.97
693,G3,137.0,1.0,38,110.97
694,F3,138.0,1.0,36,110.97
695,D4,138.0,1.0,44,110.97
696,B-4,138.0,1.0,44,110.97
697,F2,139.0,0.5,30,110.97
698,C4,139.0,0.5,39,110.97
699,A4,139.0,0.5,39,110.97
700,D4,140.0,0.75,50,110.97
701,E-4,140.75,0.25,46,110.97
702,F4,141.0,1.938,50,110.97
703,B-2,141.0,0.25,40,110.97
704,B-3,141.5,0.5,29,110.97
705,D4,142.0,0.5,34,110.97
706,B-3,142.5,0.5,29,110.97
707,A4,142.938,0.062,46,110.97
708,G4,143.0,0.25,50,110.97
709,E-4,143.0,0.5,34,110.97
710,F4,143.25,0.25,45,110.97
711,G4,143.5,0.25,50,110.97
712,C4,143.5,0.5,31,110.97
713,A4,143.75,0.25,43,110.97
714,B-4,144.0,1.0,50,110.97
715,D4,144.0,0.5,40,110.97
716,C#4,144.5,0.5,30,110.97
717,F4,145.0,0.875,41,110.97
718,D4,145.0,0.5,34,110.97
719,B-3,145.5,0.5,30,110.97
720,A4,145.938,0.062,43,110.97
721,G4,146.0,0.25,50,110.97
722,E-4,146.0,0.5,34,110.97
723,F4,146.25,0.25,46,110.97
724,G4,146.5,0.25,50,110.97
725,C4,146.5,0.5,29,110.97
726,A4,146.75,0.25,50,110.97
727,B-4,147.0,0.125,50,110.97
728,D4,147.0,0.5,40,110.97
729,C#4,147.5,0.5,30,110.97
730,A4,147.75,0.125,46,110.97
731,B-4,148.0,0.125,56,110.97
732,D4,148.0,0.5,34,110.97
733,A3,148.5,0.5,30,110.97
734,C5,148.75,0.125,48,110.97
735,D5,149.0,0.125,55,110.97
736,B-3,149.0,0.5,34,110.97
737,G3,149.5,0.479,30,110.97
738,E5,149.75,0.125,59,110.97
739,F3,150.0,1.5,40,110.97
740,B-4,150.0,1.0,58,110.97
741,E5,150.0,1.0,58,110.97
742,F4,151.0,0.5,35,110.97
743,A4,151.0,0.5,52,110.97
744,F5,151.0,0.5,52,110.97
745,F5,151.938,0.062,43,110.97
746,E-5,152.0,0.25,50,110.97
747,D5,152.25,0.25,46,110.97
748,E-5,152.5,0.25,54,110.97
749,F5,152.75,0.25,51,110.97
750,G5,153.0,1.0,59,110.97
751,F2,153.25,0.25,37,110.97
752,A2,153.5,0.25,38,110.97
753,C3,153.75,0.25,39,110.97
754,C5,154.0,0.875,50,110.97
755,F3,154.0,0.25,40,110.97
756,A3,154.25,0.25,41,110.97
757,C4,154.5,0.25,42,110.97
758,D4,154.75,0.25,43,110.97
759,D5,154.938,0.062,43,110.97
760,C5,155.0,0.25,50,110.97
761,E-4,155.0,1.25,48,110.97
762,B4,155.25,0.25,46,110.97
763,C5,155.5,0.25,54,110.97
764,D5,155.75,0.25,51,110.97
765,E-5,156.0,1.0,59,110.97
766,F2,156.25,0.25,37,110.97
767,A2,156.5,0.25,41,110.97
768,C3,156.75,0.25,43,110.97
769,A4,157.0,0.875,50,110.97
770,F3,157.0,0.25,44,110.97
771,A3,157.25,0.25,46,110.97
772,C4,157.5,0.25,48,110.97
773,E-4,157.75,0.25,49,110.97
774,B-4,157.938,0.062,43,110.97
775,A4,158.0,0.25,50,110.97
776,F#4,158.0,2.0,55,110.97
777,G4,158.25,0.25,46,110.97
778,A4,158.5,0.25,52,110.97
779,B-4,158.75,0.167,48,110.97
780,D5,158.938,0.062,43,110.97
781,C5,159.0,0.25,53,110.97
782,B4,159.25,0.25,50,110.97
783,C5,159.5,0.25,54,110.97
784,D5,159.75,0.167,51,110.97
785,F5,159.938,0.062,43,110.97
786,E-5,160.0,0.25,57,110.97
787,F4,160.0,1.0,38,110.97
788,F3,160.0,1.0,38,110.97
789,D5,160.25,0.25,52,110.97
790,E-5,160.5,0.25,58,110.97
791,F5,160.75,0.25,55,110.97
792,G5,161.0,0.25,61,110.97
793,F3,161.0,1.0,32,110.97
794,E-4,161.0,1.0,32,110.97
795,E-5,161.25,0.25,59,110.97
796,C5,161.5,0.25,52,110.97
797,A4,161.75,0.25,42,110.97
798,B-4,162.0,1.0,50,110.97
799,B-2,162.0,0.25,40,110.97
800,B-3,162.5,0.5,29,110.97
801,D4,163.0,0.5,34,110.97
802,B-3,163.5,0.5,29,110.97
803,A5,163.938,0.062,46,110.97
804,G5,164.0,0.25,50,110.97
805,E-4,164.0,0.5,34,110.97
806,F#5,164.25,0.25,45,110.97
807,G5,164.5,0.25,50,110.97
808,B-3,164.5,0.5,31,110.97
809,A5,164.75,0.25,43,110.97
810,B-5,165.0,1.0,50,110.97
811,D4,165.0,0.5,40,110.97
812,C#4,165.5,0.5,30,110.97
813,F5,166.0,0.875,41,110.97
814,D4,166.0,0.5,34,110.97
815,B-3,166.5,0.5,30,110.97
816,A4,166.938,0.062,43,110.97
817,E-5,167.0,1.0,41,110.97
818,G4,167.0,0.25,50,110.97
819,C4,167.0,0.5,34,110.97
820,F4,167.25,0.25,46,110.97
821,G4,167.5,0.25,50,110.97
822,F3,167.5,0.5,29,110.97
823,A4,167.75,0.25,46,110.97
824,B-3,168.0,0.5,40,110.97
825,D5,168.0,1.0,47,110.97
826,B-4,168.0,1.0,47,110.97
827,B-2,168.5,0.5,30,110.97
828,F4,169.0,0.5,41,110.97
829,D3,169.0,0.5,34,110.97
830,B-2,169.5,0.5,30,110.97
831,A4,169.938,0.062,43,110.97
832,G4,170.0,0.25,50,110.97
833,E-3,170.0,0.5,34,110.97
834,F#4,170.25,0.25,46,110.97
835,G4,170.5,0.25,50,110.97
836,B-2,170.5,0.5,29,110.97
837,A4,170.75,0.25,46,110.97
838,B-4,171.0,1.0,50,110.97
839,D3,171.0,0.5,40,110.97
840,C#3,171.5,0.5,30,110.97
841,F4,172.0,0.875,41,110.97
842,D3,172.0,0.5,34,110.97
843,B-2,172.5,0.5,30,110.97
844,A3,172.938,0.062,36,110.97
845,E-4,173.0,1.0,34,110.97
846,G3,173.0,0.25,42,110.97
847,C3,173.0,0.5,34,110.97
848,F3,173.25,0.25,39,110.97
849,G3,173.5,0.25,42,110.97
850,F2,173.5,0.5,29,110.97
851,A3,173.75,0.25,39,110.97
852,D4,174.0,1.0,34,110.97
853,B-3,174.0,0.5,42,110.97
854,B-2,174.0,0.5,40,110.97
855,F3,174.5,0.417,33,110.97
856,D3,174.5,0.5,30,110.97
857,A3,174.938,0.062,37,110.97
858,E-4,175.0,1.0,39,110.97
859,G3,175.0,0.25,43,110.97
860,C3,175.0,0.5,35,110.97
861,F3,175.25,0.25,40,110.97
862,G3,175.5,0.25,44,110.97
863,F2,175.5,0.5,31,110.97
864,A3,175.75,0.25,40,110.97
865,D4,176.0,1.0,36,110.97
866,B-3,176.0,0.5,44,110.97
867,B-2,176.0,0.5,36,110.97
868,F3,176.5,0.375,34,110.97
869,D3,176.5,0.5,31,110.97
870,A3,176.938,0.062,39,110.97
871,E-4,177.0,1.0,44,110.97
872,G3,177.0,0.25,46,110.97
873,C3,177.0,0.5,44,110.97
874,F3,177.25,0.25,43,110.97
875,G3,177.5,0.25,47,110.97
876,F2,177.5,0.5,33,110.97
877,A3,177.75,0.25,44,110.97
878,D4,178.0,0.5,42,110.97
879,B-3,178.0,0.25,48,110.97
880,B-2,178.0,0.25,45,110.97
881,F3,178.25,0.25,41,110.97
882,D3,178.25,0.25,37,110.97
883,E-4,178.5,0.5,40,110.97
884,A3,178.5,0.25,50,110.97
885,F2,178.5,0.25,46,110.97
886,F3,178.75,0.25,43,110.97
887,C3,178.75,0.25,39,110.97
888,D4,179.0,0.5,49,110.97
889,B-3,179.0,0.25,51,110.97
890,B-2,179.0,0.25,47,110.97
891,F3,179.25,0.25,46,110.97
892,D3,179.25,0.25,41,110.97
893,E-4,179.5,0.5,42,110.97
894,A3,179.5,0.25,52,110.97
895,F2,179.5,0.25,49,110.97
896,F3,179.75,0.25,47,110.97
897,C3,179.75,0.25,43,110.97
898,B-3,180.0,0.25,37,110.97
899,D4,180.0,0.25,37,110.97
900,B-2,180.0,0.25,27,110.97
901,D3,180.0,0.25,27,110.97
902,D4,181.0,0.25,37,110.97
903,B-4,181.0,0.25,37,110.97
904,B-1,181.0,0.25,27,110.97
905,B-2,181.0,0.25,27,110.97
906,D4,182.0,0.25,62,110.97
907,E-4,182.25,0.25,48,110.97
908,D4,182.5,0.25,48,110.97
909,C4,182.75,0.25,48,110.97
910,B-3,183.0,0.25,62,110.97
911,C4,183.25,0.25,48,110.97
912,B-3,183.5,0.25,47,110.97
913,A3,183.75,0.25,47,110.97
914,G3,184.0,0.25,63,110.97
915,D4,184.0,2.979,70,110.97
916,D5,184.0,2.979,70,110.97
917,G4,184.0,1.979,61,110.97
918,B-4,184.0,1.979,61,110.97
919,A3,184.25,0.25,46,110.97
920,B-3,184.5,0.25,46,110.97
921,A3,184.75,0.25,46,110.97
922,G3,185.0,0.25,58,110.97
923,B-3,185.25,0.25,46,110.97
924,A3,185.5,0.25,46,110.97
925,G3,185.75,0.25,45,110.97
926,F#3,186.0,0.25,59,110.97
927,A4,186.0,0.25,62,110.97
928,C5,186.0,0.25,62,110.97
929,G3,186.25,0.25,45,110.97
930,F#3,186.5,0.25,45,110.97
931,E-3,186.75,0.25,44,110.97
932,D3,187.0,0.25,57,110.97
933,D4,187.0,2.979,70,110.97
934,D5,187.0,2.979,70,110.97
935,A4,187.0,1.979,59,110.97
936,F#4,187.0,1.979,59,110.97
937,E-3,187.25,0.25,44,110.97
938,D3,187.5,0.25,42,110.97
939,C3,187.75,0.25,42,110.97
940,B-2,188.0,0.25,55,110.97
941,C3,188.25,0.25,41,110.97
942,B-2,188.5,0.25,41,110.97
943,A2,188.75,0.25,41,110.97
944,G2,189.0,0.25,56,110.97
945,B-4,189.0,0.25,62,110.97
946,G4,189.0,0.25,62,110.97
947,F#2,189.25,0.25,42,110.97
948,G2,189.5,0.25,42,110.97
949,A2,189.75,0.25,42,110.97
950,B-2,190.0,0.25,55,110.97
951,G4,190.0,2.0,75,110.97
952,B-4,190.0,2.0,75,110.97
953,G5,190.0,2.0,75,110.97
954,A2,190.25,0.25,42,110.97
955,B-2,190.5,0.25,41,110.97
956,B2,190.75,0.25,41,110.97
957,C3,191.0,0.25,59,110.97
958,B2,191.25,0.25,47,110.97
959,C3,191.5,0.25,48,110.97
960,C#3,191.738,0.25,48,110.97
961,D3,192.0,0.25,60,110.97
962,F#4,192.0,1.0,67,110.97
963,A4,192.0,1.0,67,110.97
964,F#5,192.0,1.0,67,110.97
965,D2,192.25,0.25,46,110.97
966,F#2,192.5,0.25,46,110.97
967,A2,192.75,0.25,42,110.97
968,D3,193.0,0.25,57,110.97
969,F#3,193.25,0.25,53,110.97
970,A3,193.512,0.25,56,110.97
971,C#4,193.75,0.25,58,110.97
972,D4,194.0,0.25,66,110.97
973,E-4,194.25,0.25,59,110.97
974,D4,194.5,0.25,57,110.97
975,C4,194.75,0.25,56,110.97
976,B-3,195.0,0.25,62,110.97
977,C4,195.25,0.25,48,110.97
978,B-3,195.5,0.25,47,110.97
979,A3,195.75,0.25,47,110.97
980,D5,196.0,1.0,61,110.97
981,G3,196.0,0.25,63,110.97
982,G4,196.0,2.979,67,110.97
983,B-4,196.0,2.979,67,110.97
984,G5,196.0,2.979,67,110.97
985,A3,196.25,0.25,46,110.97
986,G3,196.5,0.25,46,110.97
987,F3,196.75,0.25,46,110.97
988,C#5,197.0,1.0,74,110.97
989,E3,197.0,0.25,58,110.97
990,F3,197.25,0.25,46,110.97
991,E3,197.5,0.25,46,110.97
992,D3,197.75,0.25,45,110.97
993,E5,198.0,0.25,80,110.97
994,C#3,198.0,0.25,59,110.97
995,D3,198.25,0.25,45,110.97
996,C#3,198.5,0.25,45,110.97
997,B-2,198.75,0.25,44,110.97
998,E5,199.0,1.0,59,110.97
999,A2,199.0,0.25,57,110.97
1000,C#6,199.0,2.0,76,110.97
1001,C#5,199.0,2.0,76,110.97
1002,B-2,199.25,0.25,44,110.97
1003,A2,199.5,0.25,42,110.97
1004,G2,199.75,0.25,42,110.97
1005,G5,200.0,1.0,80,110.97
1006,F2,200.0,0.25,55,110.97
1007,G2,200.25,0.25,41,110.97
1008,F2,200.5,0.25,41,110.97
1009,E2,200.75,0.25,41,110.97
1010,D2,201.0,0.25,56,110.97
1011,D5,201.0,0.25,79,110.97
1012,D6,201.0,0.25,79,110.97
1013,F5,201.0,0.25,79,110.97
1014,E2,201.25,0.25,42,110.97
1015,F2,201.5,0.25,42,110.97
1016,D2,201.75,0.25,42,110.97
1017,G2,202.0,0.25,55,110.97
1018,D5,202.0,0.5,79,110.97
1019,E5,202.0,0.5,79,110.97
1020,D6,202.0,0.5,79,110.97
1021,A2,202.25,0.25,42,110.97
1022,B-2,202.5,0.25,41,110.97
1023,G2,202.75,0.25,41,110.97
1024,A2,203.0,0.25,57,110.97
1025,C#5,203.0,0.5,74,110.97
1026,E5,203.0,0.5,74,110.97
1027,C#6,203.0,0.5,74,110.97
1028,G#2,203.25,0.25,45,110.97
1029,A2,203.5,0.25,45,110.97
1030,A1,203.75,0.25,45,110.97
1031,D2,204.0,0.25,60,110.97
1032,D5,204.0,1.0,79,110.97
1033,F5,204.0,1.0,79,110.97
1034,D6,204.0,1.0,79,110.97
1035,F2,204.25,0.25,46,110.97
1036,A2,204.5,0.25,46,110.97
1037,D3,204.75,0.25,42,110.97
1038,D2,205.0,0.938,57,110.97
1039,D4,206.0,0.25,62,110.97
1040,E-4,206.25,0.25,48,110.97
1041,D4,206.5,0.25,48,110.97
1042,C4,206.75,0.25,48,110.97
1043,B-3,207.0,0.25,62,110.97
1044,C4,207.25,0.25,48,110.97
1045,B-3,207.5,0.25,47,110.97
1046,A3,207.75,0.25,47,110.97
1047,G3,208.0,0.25,63,110.97
1048,D4,208.0,2.979,70,110.97
1049,D5,208.0,2.979,70,110.97
1050,G4,208.0,1.979,61,110.97
1051,B-4,208.0,1.979,61,110.97
1052,A3,208.25,0.25,46,110.97
1053,B-3,208.5,0.25,46,110.97
1054,A3,208.75,0.25,46,110.97
1055,G3,209.0,0.25,58,110.97
1056,B-3,209.25,0.25,46,110.97
1057,A3,209.5,0.25,46,110.97
1058,G3,209.75,0.25,45,110.97
1059,F#3,210.0,0.25,59,110.97
1060,A4,210.0,0.25,62,110.97
1061,C5,210.0,0.25,62,110.97
1062,G3,210.25,0.25,45,110.97
1063,F#3,210.5,0.25,45,110.97
1064,E-3,210.75,0.25,44,110.97
1065,D3,211.0,0.25,57,110.97
1066,D4,211.0,2.979,70,110.97
1067,D5,211.0,2.979,70,110.97
1068,A4,211.0,1.979,59,110.97
1069,F#4,211.0,1.979,59,110.97
1070,E-3,211.25,0.25,44,110.97
1071,D3,211.5,0.25,42,110.97
1072,C3,211.75,0.25,42,110.97
1073,B-2,212.0,0.25,55,110.97
1074,C3,212.25,0.25,41,110.97
1075,B-2,212.5,0.25,41,110.97
1076,A2,212.75,0.25,41,110.97
1077,G2,213.0,0.25,56,110.97
1078,B-4,213.0,0.25,62,110.97
1079,G4,213.0,0.25,62,110.97
1080,F#2,213.25,0.25,42,110.97
1081,G2,213.5,0.25,42,110.97
1082,A2,213.75,0.25,42,110.97
1083,B-2,214.0,0.25,55,110.97
1084,G4,214.0,2.0,75,110.97
1085,B-4,214.0,2.0,75,110.97
1086,G5,214.0,2.0,75,110.97
1087,A2,214.25,0.25,42,110.97
1088,B-2,214.5,0.25,41,110.97
1089,B2,214.75,0.25,41,110.97
1090,C3,215.0,0.25,59,110.97
1091,B2,215.25,0.25,47,110.97
1092,C3,215.5,0.25,48,110.97
1093,C#3,215.75,0.25,48,110.97
1094,D3,216.0,0.25,60,110.97
1095,F#4,216.0,1.0,67,110.97
1096,A4,216.0,1.0,67,110.97
1097,F#5,216.0,1.0,67,110.97
1098,D2,216.25,0.25,46,110.97
1099,F#2,216.5,0.25,47,110.97
1100,A2,216.75,0.25,48,110.97
1101,D3,217.0,0.25,57,110.97
1102,F#3,217.25,0.25,49,110.97
1103,A3,217.512,0.25,53,110.97
1104,C#4,217.75,0.25,57,110.97
1105,D4,218.0,0.25,62,110.97
1106,E-4,218.25,0.25,57,110.97
1107,D4,218.5,0.25,52,110.97
1108,C4,218.75,0.25,49,110.97
1109,B-3,219.0,0.25,62,110.97
1110,C4,219.25,0.25,48,110.97
1111,B-3,219.5,0.25,47,110.97
1112,A3,219.75,0.25,47,110.97
1113,D5,220.0,1.0,61,110.97
1114,G3,220.0,0.25,63,110.97
1115,G4,220.0,2.979,67,110.97
1116,B-4,220.0,2.979,67,110.97
1117,G5,220.0,2.979,67,110.97
1118,A3,220.25,0.25,46,110.97
1119,G3,220.5,0.25,46,110.97
1120,F3,220.75,0.25,46,110.97
1121,C#5,221.0,1.0,74,110.97
1122,E3,221.0,0.25,58,110.97
1123,F3,221.25,0.25,46,110.97
1124,E3,221.5,0.25,46,110.97
1125,D3,221.75,0.25,45,110.97
1126,E5,222.0,0.25,80,110.97
1127,C#3,222.0,0.25,59,110.97
1128,D3,222.25,0.25,45,110.97
1129,C#3,222.5,0.25,45,110.97
1130,B-2,222.75,0.25,44,110.97
1131,E5,223.0,1.0,59,110.97
1132,A2,223.0,0.25,57,110.97
1133,C#6,223.0,2.0,76,110.97
1134,C#5,223.0,2.0,76,110.97
1135,B-2,223.25,0.25,44,110.97
1136,A2,223.5,0.25,42,110.97
1137,G2,223.75,0.25,42,110.97
1138,G5,224.0,1.0,80,110.97
1139,F2,224.0,0.25,55,110.97
1140,G2,224.25,0.25,41,110.97
1141,F2,224.5,0.25,41,110.97
1142,E2,224.75,0.25,41,110.97
1143,D2,225.0,0.25,56,110.97
1144,D5,225.0,0.25,79,110.97
1145,D6,225.0,0.25,79,110.97
1146,F5,225.0,0.25,79,110.97
1147,E2,225.25,0.25,42,110.97
1148,F2,225.5,0.25,42,110.97
1149,D2,225.75,0.25,42,110.97
1150,G2,226.0,0.25,55,110.97
1151,D5,226.0,0.5,79,110.97
1152,E5,226.0,0.5,79,110.97
1153,D6,226.0,0.5,79,110.97
1154,A2,226.25,0.25,42,110.97
1155,B-2,226.5,0.25,41,110.97
1156,G2,226.75,0.25,41,110.97
1157,A2,227.0,0.25,57,110.97
1158,C#5,227.0,0.5,74,110.97
1159,E5,227.0,0.5,74,110.97
1160,C#6,227.0,0.5,74,110.97
1161,G#2,227.25,0.25,45,110.97
1162,A2,227.5,0.25,45,110.97
1163,A1,227.75,0.25,45,110.97
1164,D2,228.0,0.25,60,110.97
1165,D5,228.0,1.0,79,110.97
1166,F5,228.0,1.0,79,110.97
1167,D6,228.0,1.0,79,110.97
1168,F2,228.25,0.25,46,110.97
1169,A2,228.5,0.25,46,110.97
1170,D3,228.75,0.25,42,110.97
1171,D2,229.0,0.938,57,110.97
1172,G#5,230.0,0.25,74,110.97
1173,B-5,230.25,0.25,48,110.97
1174,G#5,230.5,0.25,48,110.97
1175,G5,230.75,0.25,48,110.97
1176,F5,231.0,0.25,68,110.97
1177,G#4,231.0,0.25,67,110.97
1178,G5,231.25,0.25,48,110.97
1179,B-4,231.25,0.25,46,110.97
1180,F5,231.5,0.25,47,110.97
1181,G#4,231.5,0.25,46,110.97
1182,E-5,231.75,0.25,47,110.97
1183,G4,231.75,0.25,46,110.97
1184,D5,232.0,0.25,63,110.97
1185,F4,232.0,0.25,59,110.97
1186,E-5,232.25,0.25,46,110.97
1187,G4,232.25,0.25,46,110.97
1188,D5,232.5,0.25,46,110.97
1189,F4,232.5,0.25,46,110.97
1190,C5,232.75,0.25,46,110.97
1191,E-4,232.75,0.25,46,110.97
1192,G5,233.0,0.25,74,110.97
1193,B4,233.0,1.0,84,110.97
1194,G3,233.0,1.0,62,110.97
1195,D4,233.0,1.0,62,110.97
1196,G#5,233.25,0.25,48,110.97
1197,G5,233.5,0.25,48,110.97
1198,F5,233.75,0.25,48,110.97
1199,C5,234.0,0.5,66,110.97
1200,E-5,234.0,0.25,68,110.97
1201,C4,234.0,0.5,62,110.97
1202,E-4,234.0,0.5,62,110.97
1203,F5,234.25,0.25,48,110.97
1204,E-5,234.5,0.25,47,110.97
1205,D5,234.75,0.25,47,110.97
1206,C5,235.0,0.5,63,110.97
1207,B4,235.25,0.25,46,110.97
1208,C5,235.5,0.25,46,110.97
1209,D5,235.75,0.25,46,110.97
1210,E-5,236.0,0.25,74,110.97
1211,F5,236.25,0.25,48,110.97
1212,E-5,236.5,0.25,48,110.97
1213,D5,236.75,0.25,48,110.97
1214,C5,237.0,0.25,68,110.97
1215,E-4,237.0,0.25,67,110.97
1216,D5,237.25,0.25,48,110.97
1217,F4,237.25,0.25,46,110.97
1218,C5,237.5,0.25,47,110.97
1219,E-4,237.5,0.25,46,110.97
1220,B-4,237.75,0.25,47,110.97
1221,D4,237.75,0.25,46,110.97
1222,A4,238.0,0.25,63,110.97
1223,C4,238.0,0.25,59,110.97
1224,B-4,238.25,0.25,46,110.97
1225,D4,238.25,0.25,46,110.97
1226,A4,238.5,0.25,46,110.97
1227,C4,238.5,0.25,46,110.97
1228,G4,238.75,0.25,46,110.97
1229,B-3,238.75,0.25,46,110.97
1230,D5,239.0,0.25,74,110.97
1231,F#4,239.0,1.0,79,110.97
1232,D3,239.0,1.0,62,110.97
1233,A3,239.0,1.0,62,110.97
1234,E-5,239.25,0.25,48,110.97
1235,D5,239.5,0.25,48,110.97
1236,C5,239.75,0.25,48,110.97
1237,G4,240.0,0.5,66,110.97
1238,B-4,240.0,0.25,68,110.97
1239,G3,240.0,0.5,62,110.97
1240,B-3,240.0,0.5,62,110.97
1241,C5,240.25,0.25,48,110.97
1242,B-4,240.5,0.25,47,110.97
1243,A4,240.75,0.25,47,110.97
1244,G4,241.0,0.25,63,110.97
1245,F#4,241.25,0.25,46,110.97
1246,G4,241.5,0.25,46,110.97
1247,A4,241.75,0.25,46,110.97
1248,D4,242.0,0.25,62,110.97
1249,G4,242.0,2.0,65,110.97
1250,B-4,242.0,2.0,65,110.97
1251,D5,242.0,2.0,65,110.97
1252,E-4,242.25,0.25,48,110.97
1253,D4,242.5,0.25,48,110.97
1254,C4,242.75,0.25,48,110.97
1255,B-3,243.0,0.25,62,110.97
1256,C4,243.25,0.25,48,110.97
1257,B-3,243.5,0.25,47,110.97
1258,A3,243.75,0.25,47,110.97
1259,D5,244.0,2.0,61,110.97
1260,G3,244.0,0.25,63,110.97
1261,G4,244.0,2.979,69,110.97
1262,B-4,244.0,2.979,69,110.97
1263,G5,244.0,2.979,69,110.97
1264,A3,244.25,0.25,46,110.97
1265,G3,244.5,0.25,46,110.97
1266,F3,244.75,0.25,46,110.97
1267,E-3,245.0,0.25,58,110.97
1268,F3,245.25,0.25,46,110.97
1269,E-3,245.5,0.25,46,110.97
1270,D3,245.75,0.25,45,110.97
1271,C3,246.0,0.25,59,110.97
1272,C5,246.0,0.25,76,110.97
1273,E-5,246.0,0.25,76,110.97
1274,D3,246.25,0.25,45,110.97
1275,C3,246.5,0.25,45,110.97
1276,B-2,246.75,0.25,44,110.97
1277,E-5,247.0,1.0,59,110.97
1278,G#2,247.0,0.25,57,110.97
1279,C6,247.0,2.25,76,110.97
1280,C5,247.0,2.25,76,110.97
1281,B-2,247.25,0.25,44,110.97
1282,G#2,247.5,0.25,42,110.97
1283,G2,247.75,0.25,42,110.97
1284,A5,248.0,0.979,69,110.97
1285,F#2,248.0,0.25,55,110.97
1286,G2,248.25,0.25,41,110.97
1287,F#2,248.5,0.25,41,110.97
1288,E2,248.75,0.25,41,110.97
1289,D2,249.0,0.25,56,110.97
1290,F#5,249.0,0.25,70,110.97
1291,A5,249.0,0.25,70,110.97
1292,E2,249.25,0.25,42,110.97
1293,F#2,249.5,0.25,42,110.97
1294,D2,249.75,0.25,42,110.97
1295,G2,250.0,0.25,55,110.97
1296,G5,250.0,0.5,74,110.97
1297,B-4,250.0,0.5,74,110.97
1298,D5,250.0,0.5,74,110.97
1299,B-5,250.0,0.5,74,110.97
1300,A2,250.25,0.25,42,110.97
1301,B-2,250.5,0.25,41,110.97
1302,G2,250.75,0.25,41,110.97
1303,D3,251.0,0.25,57,110.97
1304,A4,251.0,0.5,69,110.97
1305,F#4,251.0,0.5,69,110.97
1306,D5,251.0,0.5,69,110.97
1307,F#5,251.0,0.5,69,110.97
1308,C3,251.25,0.25,45,110.97
1309,B-2,251.5,0.25,45,110.97
1310,A2,251.75,0.25,45,110.97
1311,G2,252.0,0.25,60,110.97
1312,B-4,252.0,1.0,74,110.97
1313,G4,252.0,1.0,74,110.97
1314,D5,252.0,1.0,74,110.97
1315,G5,252.0,1.0,74,110.97
1316,B-2,252.25,0.25,46,110.97
1317,D3,252.5,0.25,46,110.97
1318,G3,252.75,0.25,42,110.97
1319,G2,253.0,0.938,57,110.97
1320,G#5,254.0,0.25,74,110.97
1321,B-5,254.25,0.25,48,110.97
1322,G#5,254.5,0.25,48,110.97
1323,G5,254.75,0.25,48,110.97
1324,F5,255.0,0.25,68,110.97
1325,G#4,255.0,0.25,67,110.97
1326,G5,255.25,0.25,48,110.97
1327,B-4,255.25,0.25,46,110.97
1328,F5,255.5,0.25,47,110.97
1329,G#4,255.5,0.25,46,110.97
1330,E-5,255.75,0.25,47,110.97
1331,G4,255.75,0.25,46,110.97
1332,D5,256.0,0.25,63,110.97
1333,F4,256.0,0.25,59,110.97
1334,E-5,256.25,0.25,46,110.97
1335,G4,256.25,0.25,46,110.97
1336,D5,256.5,0.25,46,110.97
1337,F4,256.5,0.25,46,110.97
1338,C5,256.75,0.25,46,110.97
1339,E-4,256.75,0.25,46,110.97
1340,G5,257.0,0.25,74,110.97
1341,B4,257.0,1.0,84,110.97
1342,G3,257.0,1.0,62,110.97
1343,D4,257.0,1.0,62,110.97
1344,G#5,257.25,0.25,48,110.97
1345,G5,257.5,0.25,48,110.97
1346,F5,257.75,0.25,48,110.97
1347,C5,258.0,0.5,66,110.97
1348,E-5,258.0,0.25,68,110.97
1349,C4,258.0,0.5,62,110.97
1350,E-4,258.0,0.5,62,110.97
1351,F5,258.25,0.25,48,110.97
1352,E-5,258.5,0.25,47,110.97
1353,D5,258.75,0.25,47,110.97
1354,C5,259.0,0.5,63,110.97
1355,B4,259.25,0.25,46,110.97
1356,C5,259.5,0.25,46,110.97
1357,D5,259.75,0.25,46,110.97
1358,E-5,260.0,0.25,74,110.97
1359,F5,260.25,0.25,48,110.97
1360,E-5,260.5,0.25,48,110.97
1361,D5,260.75,0.25,48,110.97
1362,C5,261.0,0.25,68,110.97
1363,E-4,261.0,0.25,67,110.97
1364,D5,261.25,0.25,48,110.97
1365,F4,261.25,0.25,46,110.97
1366,C5,261.5,0.25,47,110.97
1367,E-4,261.5,0.25,46,110.97
1368,B-4,261.75,0.25,47,110.97
1369,D4,261.75,0.25,46,110.97
1370,A4,262.0,0.25,63,110.97
1371,C4,262.0,0.25,59,110.97
1372,B-4,262.25,0.25,46,110.97
1373,D4,262.25,0.25,46,110.97
1374,A4,262.5,0.25,46,110.97
1375,C4,262.5,0.25,46,110.97
1376,G4,262.75,0.25,46,110.97
1377,B-3,262.75,0.25,46,110.97
1378,D5,263.0,0.25,74,110.97
1379,F#4,263.0,1.0,79,110.97
1380,D3,263.0,1.0,62,110.97
1381,A3,263.0,1.0,62,110.97
1382,E-5,263.25,0.25,48,110.97
1383,D5,263.5,0.25,48,110.97
1384,C5,263.75,0.25,48,110.97
1385,G4,264.0,0.5,66,110.97
1386,B-4,264.0,0.25,68,110.97
1387,G3,264.0,0.5,62,110.97
1388,B-3,264.0,0.5,62,110.97
1389,C5,264.25,0.25,48,110.97
1390,B-4,264.5,0.25,47,110.97
1391,A4,264.75,0.25,47,110.97
1392,G4,265.0,0.25,63,110.97
1393,F#4,265.25,0.25,46,110.97
1394,G4,265.5,0.25,46,110.97
1395,A4,265.75,0.25,46,110.97
1396,D4,266.0,0.25,62,110.97
1397,G4,266.0,2.0,65,110.97
1398,B-4,266.0,2.0,65,110.97
1399,D5,266.0,2.0,65,110.97
1400,E-4,266.25,0.25,48,110.97
1401,D4,266.5,0.25,48,110.97
1402,C4,266.75,0.25,48,110.97
1403,B-3,267.0,0.25,62,110.97
1404,C4,267.25,0.25,48,110.97
1405,B-3,267.5,0.25,47,110.97
1406,A3,267.75,0.25,47,110.97
1407,D5,268.0,2.0,61,110.97
1408,G3,268.0,0.25,63,110.97
1409,G4,268.0,2.979,69,110.97
1410,B-4,268.0,2.979,69,110.97
1411,G5,268.0,2.979,69,110.97
1412,A3,268.25,0.25,46,110.97
1413,G3,268.5,0.25,46,110.97
1414,F3,268.75,0.25,46,110.97
1415,E-3,269.0,0.25,58,110.97
1416,F3,269.25,0.25,46,110.97
1417,E-3,269.5,0.25,46,110.97
1418,D3,269.75,0.25,45,110.97
1419,C3,270.0,0.25,59,110.97
1420,C5,270.0,0.25,76,110.97
1421,E-5,270.0,0.25,76,110.97
1422,D3,270.25,0.25,45,110.97
1423,C3,270.5,0.25,45,110.97
1424,B-2,270.75,0.25,44,110.97
1425,E-5,271.0,1.0,59,110.97
1426,G#2,271.0,0.25,57,110.97
1427,C6,271.0,2.25,76,110.97
1428,C5,271.0,2.25,76,110.97
1429,B-2,271.25,0.25,44,110.97
1430,G#2,271.5,0.25,42,110.97
1431,G2,271.75,0.25,42,110.97
1432,A5,272.0,0.979,69,110.97
1433,F#2,272.0,0.25,55,110.97
1434,G2,272.25,0.25,41,110.97
1435,F#2,272.5,0.25,41,110.97
1436,E2,272.75,0.25,41,110.97
1437,D2,273.0,0.25,56,110.97
1438,F#5,273.0,0.25,70,110.97
1439,A5,273.0,0.25,70,110.97
1440,E2,273.25,0.25,42,110.97
1441,F#2,273.5,0.25,42,110.97
1442,D2,273.75,0.25,42,110.97
1443,G2,274.0,0.25,55,110.97
1444,G5,274.0,0.5,74,110.97
1445,B-4,274.0,0.5,74,110.97
1446,D5,274.0,0.5,74,110.97
1447,B-5,274.0,0.5,74,110.97
1448,A2,274.25,0.25,42,110.97
1449,B-2,274.5,0.25,41,110.97
1450,G2,274.75,0.25,41,110.97
1451,D3,275.0,0.25,57,110.97
1452,A4,275.0,0.5,69,110.97
1453,F#4,275.0,0.5,69,110.97
1454,D5,275.0,0.5,69,110.97
1455,F#5,275.0,0.5,69,110.97
1456,C3,275.25,0.25,45,110.97
1457,B-2,275.5,0.25,45,110.97
1458,A2,275.75,0.25,45,110.97
1459,G2,276.0,0.25,60,110.97
1460,B-4,276.0,1.0,74,110.97
1461,G4,276.0,1.0,74,110.97
1462,D5,276.0,1.0,74,110.97
1463,G5,276.0,1.0,74,110.97
1464,B-2,276.25,0.25,46,110.97
1465,D3,276.5,0.25,46,110.97
1466,G3,276.75,0.25,42,110.97
1467,G2,277.0,0.938,57,110.97
1468,D4,278.0,0.75,50,110.97
1469,E-4,278.75,0.25,46,110.97
1470,F4,279.0,1.938,50,110.97
1471,B-2,279.0,0.25,40,110.97
1472,B-3,279.5,0.5,29,110.97
1473,D4,280.0,0.5,34,110.97
1474,B-3,280.5,0.5,29,110.97
1475,A4,280.938,0.062,46,110.97
1476,G4,281.0,0.25,50,110.97
1477,E-4,281.0,0.5,34,110.97
1478,F4,281.25,0.25,45,110.97
1479,G4,281.5,0.25,50,110.97
1480,C4,281.5,0.5,31,110.97
1481,A4,281.75,0.25,43,110.97
1482,B-4,282.0,1.0,50,110.97
1483,D4,282.0,0.5,40,110.97
1484,C#4,282.5,0.5,30,110.97
1485,F4,283.0,0.875,41,110.97
1486,D4,283.0,0.5,34,110.97
1487,B-3,283.5,0.5,30,110.97
1488,A4,283.938,0.062,43,110.97
1489,G4,284.0,0.25,50,110.97
1490,E-4,284.0,0.5,34,110.97
1491,F4,284.25,0.25,46,110.97
1492,G4,284.5,0.25,50,110.97
1493,C4,284.5,0.5,29,110.97
1494,A4,284.75,0.25,50,110.97
1495,B-4,285.0,0.125,50,110.97
1496,D4,285.0,0.5,40,110.97
1497,C#4,285.5,0.5,30,110.97
1498,A4,285.75,0.125,46,110.97
1499,B-4,286.0,0.125,56,110.97
1500,D4,286.0,0.5,34,110.97
1501,A3,286.5,0.5,30,110.97
1502,C5,286.75,0.125,48,110.97
1503,D5,287.0,0.125,55,110.97
1504,B-3,287.0,0.5,34,110.97
1505,G3,287.5,0.479,30,110.97
1506,E5,287.75,0.125,59,110.97
1507,F3,288.0,1.5,40,110.97
1508,B-4,288.0,1.0,58,110.97
1509,E5,288.0,1.0,58,110.97
1510,F4,289.0,0.5,35,110.97
1511,A4,289.0,0.5,52,110.97
1512,F5,289.0,0.5,52,110.97
1513,F5,289.938,0.062,43,110.97
1514,E-5,290.0,0.25,50,110.97
1515,D5,290.25,0.25,46,110.97
1516,E-5,290.5,0.25,54,110.97
1517,F5,290.75,0.25,51,110.97
1518,G5,291.0,1.0,59,110.97
1519,F3,291.5,3.0,36,110.97
1520,C5,292.0,0.875,50,110.97
1521,A3,292.0,0.5,40,110.97
1522,C4,292.5,0.5,37,110.97
1523,D5,292.938,0.062,43,110.97
1524,C5,293.0,0.25,50,110.97
1525,E-4,293.0,1.5,40,110.97
1526,B4,293.25,0.25,46,110.97
1527,C5,293.5,0.25,54,110.97
1528,D5,293.75,0.25,51,110.97
1529,E-5,294.0,1.0,59,110.97
1530,F3,294.5,3.5,42,110.97
1531,A4,295.0,0.875,50,110.97
1532,C4,295.0,0.5,48,110.97
1533,E-4,295.5,0.5,41,110.97
1534,B-4,295.938,0.062,43,110.97
1535,A4,296.0,0.25,50,110.97
1536,F#4,296.0,2.0,55,110.97
1537,G4,296.25,0.25,46,110.97
1538,A4,296.5,0.25,52,110.97
1539,B-4,296.75,0.167,48,110.97
1540,D5,296.938,0.062,43,110.97
1541,C5,297.0,0.25,53,110.97
1542,B4,297.25,0.25,50,110.97
1543,C5,297.5,0.25,54,110.97
1544,D5,297.75,0.167,51,110.97
1545,F5,297.938,0.062,43,110.97
1546,E-5,298.0,0.25,57,110.97
1547,F4,298.0,1.0,38,110.97
1548,F3,298.0,1.0,38,110.97
1549,D5,298.25,0.25,52,110.97
1550,E-5,298.5,0.25,58,110.97
1551,F5,298.75,0.25,55,110.97
1552,G5,299.0,0.125,64,110.97
1553,F3,299.0,1.0,32,110.97
1554,E-4,299.0,1.0,32,110.97
1555,A4,299.75,0.25,42,110.97
1556,C5,300.0,1.0,50,110.97
1557,B-3,300.0,1.5,30,110.97
1558,E-4,300.0,1.0,36,110.97
1559,B-4,301.0,0.5,44,110.97
1560,D4,301.0,0.5,32,110.97
1561,F#4,302.0,0.25,38,110.97
1562,A4,302.0,0.25,42,110.97
1563,D5,302.0,0.25,42,110.97
1564,G4,302.25,0.25,33,110.97
1565,B-4,302.25,0.25,38,110.97
1566,C#5,302.25,0.25,38,110.97
1567,F#4,302.5,0.25,41,110.97
1568,A4,302.5,0.25,45,110.97
1569,D5,302.5,0.25,45,110.97
1570,G4,302.75,0.25,38,110.97
1571,B-4,302.75,0.25,37,110.97
1572,C#5,302.75,0.25,37,110.97
1573,F#4,303.0,0.25,45,110.97
1574,A4,303.0,0.25,49,110.97
1575,D5,303.0,0.25,49,110.97
1576,G4,303.25,0.25,39,110.97
1577,B-4,303.25,0.25,44,110.97
1578,C#5,303.25,0.25,44,110.97
1579,F#4,303.5,0.25,48,110.97
1580,A4,303.5,0.25,52,110.97
1581,D5,303.5,0.25,52,110.97
1582,G4,303.75,0.25,44,110.97
1583,B-4,303.75,0.25,42,110.97
1584,C#5,303.75,0.25,42,110.97
1585,F#4,304.0,0.25,52,110.97
1586,A4,304.0,0.25,57,110.97
1587,D5,304.0,0.25,57,110.97
1588,G4,304.25,0.25,44,110.97
1589,B-4,304.25,0.25,52,110.97
1590,C#5,304.25,0.25,52,110.97
1591,F#4,304.5,0.25,55,110.97
1592,A4,304.5,0.25,60,110.97
1593,D5,304.5,0.25,60,110.97
1594,G4,304.75,0.25,51,110.97
1595,B-4,304.75,0.25,50,110.97
1596,C#5,304.75,0.25,50,110.97
1597,F#4,305.0,0.25,59,110.97
1598,A4,305.0,0.25,64,110.97
1599,D5,305.0,0.25,64,110.97
1600,G4,305.25,0.25,51,110.97
1601,B-4,305.25,0.25,58,110.97
1602,C#5,305.25,0.25,58,110.97
1603,F#4,305.5,0.25,63,110.97
1604,A4,305.5,0.25,68,110.97
1605,D5,305.5,0.25,68,110.97
1606,G4,305.75,0.25,58,110.97
1607,B-4,305.75,0.25,56,110.97
1608,C#5,305.75,0.25,56,110.97
1609,F#4,306.0,0.5,69,110.97
1610,A4,306.0,0.5,82,110.97
1611,D5,306.0,0.5,82,110.97
1612,D6,307.0,1.5,92,110.97
1613,F#5,307.0,1.5,92,110.97
1614,D3,307.0,1.5,68,110.97
1615,D4,307.0,1.5,68,110.97
1616,C6,308.5,0.25,69,110.97
1617,F#5,308.5,0.25,69,110.97
1618,D3,308.5,0.25,51,110.97
1619,D4,308.5,0.25,51,110.97
1620,B-5,309.0,0.5,84,110.97
1621,G5,309.0,0.5,84,110.97
1622,E-3,309.0,0.5,62,110.97
1623,E-4,309.0,0.5,62,110.97
1624,A5,309.75,0.125,67,110.97
1625,E-5,309.75,0.125,67,110.97
1626,C3,309.75,0.125,49,110.97
1627,C4,309.75,0.125,49,110.97
1628,B-4,310.0,0.5,78,110.97
1629,G5,310.0,0.5,78,110.97
1630,D3,310.0,0.5,58,110.97
1631,D4,310.0,0.5,58,110.97
1632,C5,311.0,0.5,75,110.97
1633,F#5,311.0,0.5,75,110.97
1634,D2,311.0,0.5,56,110.97
1635,D3,311.0,0.5,56,110.97
1636,C5,312.0,1.0,76,110.97
1637,A5,312.0,1.0,76,110.97
1638,G2,312.0,1.5,56,110.97
1639,G3,312.0,1.5,56,110.97
1640,B-4,313.0,0.5,66,110.97
1641,G5,313.0,0.5,66,110.97
1642,D3,314.0,0.252,25,110.97
1643,G#3,314.0,0.252,28,110.97
1644,B-3,314.0,0.252,28,110.97
1645,B3,314.25,0.252,27,110.97
1646,E-3,314.25,0.252,22,110.97
1647,D3,314.5,0.252,27,110.97
1648,G#3,314.5,0.252,30,110.97
1649,B-3,314.5,0.252,30,110.97
1650,B3,314.75,0.252,27,110.97
1651,E-3,314.75,0.252,24,110.97
1652,D3,315.0,0.252,29,110.97
1653,G#3,315.0,0.252,32,110.97
1654,B-3,315.0,0.252,32,110.97
1655,B3,315.25,0.252,32,110.97
1656,E-3,315.25,0.252,25,110.97
1657,D3,315.5,0.252,32,110.97
1658,G#3,315.5,0.252,34,110.97
1659,B-3,315.5,0.252,34,110.97
1660,B3,315.75,0.252,30,110.97
1661,E-3,315.75,0.252,29,110.97
1662,D3,316.0,0.252,34,110.97
1663,G#3,316.0,0.252,38,110.97
1664,B-3,316.0,0.252,38,110.97
1665,B3,316.25,0.252,38,110.97
1666,E-3,316.25,0.252,30,110.97
1667,D3,316.5,0.252,37,110.97
1668,G#3,316.5,0.252,40,110.97
1669,B-3,316.5,0.252,40,110.97
1670,B3,316.75,0.252,35,110.97
1671,E-3,316.75,0.252,34,110.97
1672,D3,317.0,0.252,39,110.97
1673,G#3,317.0,0.252,42,110.97
1674,B-3,317.0,0.252,42,110.97
1675,B3,317.25,0.252,42,110.97
1676,E-3,317.25,0.252,34,110.97
1677,D3,317.5,0.252,41,110.97
1678,G#3,317.5,0.252,45,110.97
1679,B-3,317.5,0.252,45,110.97
1680,B3,317.75,0.252,41,110.97
1681,E-3,317.75,0.252,38,110.97
1682,D3,318.0,0.5,54,110.97
1683,G#3,318.0,0.5,65,110.97
1684,B-3,318.0,0.5,65,110.97
1685,G#5,319.0,1.5,78,110.97
1686,B4,319.0,1.5,78,110.97
1687,D3,319.0,1.5,58,110.97
1688,F3,319.0,1.5,58,110.97
1689,G5,320.5,0.5,54,110.97
1690,C5,320.5,0.5,54,110.97
1691,E-3,320.5,0.5,40,110.97
1692,G3,320.5,0.5,40,110.97
1693,F5,321.0,0.75,64,110.97
1694,G#4,321.0,0.75,64,110.97
1695,B2,321.0,0.75,47,110.97
1696,D3,321.0,0.75,47,110.97
1697,E-5,321.75,0.25,49,110.97
1698,G4,321.75,0.25,49,110.97
1699,C3,321.75,0.25,36,110.97
1700,E-3,321.75,0.25,36,110.97
1701,F4,322.0,1.0,56,110.97
1702,D5,322.0,1.0,56,110.97
1703,D3,322.0,1.0,42,110.97
1704,F3,322.0,1.0,42,110.97
1705,E-4,323.0,1.0,50,110.97
1706,C5,323.0,1.0,50,110.97
1707,E-3,323.0,1.0,38,110.97
1708,G3,323.0,1.0,38,110.97
1709,F3,324.0,1.0,36,110.97
1710,D4,324.0,1.0,44,110.97
1711,B-4,324.0,1.0,44,110.97
1712,F2,325.0,0.5,30,110.97
1713,C4,325.0,0.5,39,110.97
1714,A4,325.0,0.5,39,110.97
1715,D4,326.0,0.75,50,110.97
1716,E-4,326.75,0.25,46,110.97
1717,F4,327.0,1.938,50,110.97
1718,B-2,327.0,0.25,40,110.97
1719,B-3,327.5,0.5,29,110.97
1720,D4,328.0,0.5,34,110.97
1721,B-3,328.5,0.5,29,110.97
1722,A4,328.938,0.062,46,110.97
1723,G4,329.0,0.25,50,110.97
1724,E-4,329.0,0.5,34,110.97
1725,F4,329.25,0.25,45,110.97
1726,G4,329.5,0.25,50,110.97
1727,C4,329.5,0.5,31,110.97
1728,A4,329.75,0.25,43,110.97
1729,B-4,330.0,1.0,50,110.97
1730,D4,330.0,0.5,40,110.97
1731,C#4,330.5,0.5,30,110.97
1732,F4,331.0,0.875,41,110.97
1733,D4,331.0,0.5,34,110.97
1734,B-3,331.5,0.5,30,110.97
1735,A4,331.938,0.062,43,110.97
1736,G4,332.0,0.25,50,110.97
1737,E-4,332.0,0.5,34,110.97
1738,F4,332.25,0.25,46,110.97
1739,G4,332.5,0.25,50,110.97
1740,C4,332.5,0.5,29,110.97
1741,A4,332.75,0.25,50,110.97
1742,B-4,333.0,0.125,50,110.97
1743,D4,333.0,0.5,40,110.97
1744,C#4,333.5,0.5,30,110.97
1745,A4,333.75,0.125,46,110.97
1746,B-4,334.0,0.125,56,110.97
1747,D4,334.0,0.5,34,110.97
1748,A3,334.5,0.5,30,110.97
1749,C5,334.75,0.125,48,110.97
1750,D5,335.0,0.125,55,110.97
1751,B-3,335.0,0.5,34,110.97
1752,G3,335.5,0.479,30,110.97
1753,E5,335.75,0.125,59,110.97
1754,F3,336.0,1.5,40,110.97
1755,B-4,336.0,1.0,58,110.97
1756,E5,336.0,1.0,58,110.97
1757,F4,337.0,0.5,35,110.97
1758,A4,337.0,0.5,52,110.97
1759,F5,337.0,0.5,52,110.97
1760,F5,337.938,0.062,43,110.97
1761,E-5,338.0,0.25,50,110.97
1762,D5,338.25,0.25,46,110.97
1763,E-5,338.5,0.25,54,110.97
1764,F5,338.75,0.25,51,110.97
1765,G5,339.0,1.0,59,110.97
1766,F2,339.25,0.25,37,110.97
1767,A2,339.5,0.25,38,110.97
1768,C3,339.75,0.25,39,110.97
1769,C5,340.0,0.875,50,110.97
1770,F3,340.0,0.25,40,110.97
1771,A3,340.25,0.25,41,110.97
1772,C4,340.5,0.25,42,110.97
1773,D4,340.75,0.25,43,110.97
1774,D5,340.938,0.062,43,110.97
1775,C5,341.0,0.25,50,110.97
1776,E-4,341.0,1.25,48,110.97
1777,B4,341.25,0.25,46,110.97
1778,C5,341.5,0.25,54,110.97
1779,D5,341.75,0.25,51,110.97
1780,E-5,342.0,1.0,59,110.97
1781,F2,342.25,0.25,37,110.97
1782,A2,342.5,0.25,41,110.97
1783,C3,342.75,0.25,43,110.97
1784,A4,343.0,0.875,50,110.97
1785,F3,343.0,0.25,44,110.97
1786,A3,343.25,0.25,46,110.97
1787,C4,343.5,0.25,48,110.97
1788,E-4,343.75,0.25,49,110.97
1789,B-4,343.938,0.062,43,110.97
1790,A4,344.0,0.25,50,110.97
1791,F#4,344.0,2.0,55,110.97
1792,G4,344.25,0.25,46,110.97
1793,A4,344.5,0.25,52,110.97
1794,B-4,344.75,0.167,48,110.97
1795,D5,344.938,0.062,43,110.97
1796,C5,345.0,0.25,53,110.97
1797,B4,345.25,0.25,50,110.97
1798,C5,345.5,0.25,54,110.97
1799,D5,345.75,0.167,51,110.97
1800,F5,345.938,0.062,43,110.97
1801,E-5,346.0,0.25,57,110.97
1802,F4,346.0,1.0,38,110.97
1803,F3,346.0,1.0,38,110.97
1804,D5,346.25,0.25,52,110.97
1805,E-5,346.5,0.25,58,110.97
1806,F5,346.75,0.25,55,110.97
1807,G5,347.0,0.25,61,110.97
1808,F3,347.0,1.0,32,110.97
1809,E-4,347.0,1.0,32,110.97
1810,E-5,347.25,0.25,59,110.97
1811,C5,347.5,0.25,52,110.97
1812,A4,347.75,0.25,42,110.97
1813,B-4,348.0,1.0,50,110.97
1814,B-2,348.0,0.25,40,110.97
1815,B-3,348.5,0.5,29,110.97
1816,D4,349.0,0.5,34,110.97
1817,B-3,349.5,0.5,29,110.97
1818,A5,349.938,0.062,46,110.97
1819,G5,350.0,0.25,50,110.97
1820,E-4,350.0,0.5,34,110.97
1821,F#5,350.25,0.25,45,110.97
1822,G5,350.5,0.25,50,110.97
1823,B-3,350.5,0.5,31,110.97
1824,A5,350.75,0.25,43,110.97
1825,B-5,351.0,1.0,50,110.97
1826,D4,351.0,0.5,40,110.97
1827,C#4,351.5,0.5,30,110.97
1828,F5,352.0,0.875,41,110.97
1829,D4,352.0,0.5,34,110.97
1830,B-3,352.5,0.5,30,110.97
1831,A4,352.938,0.062,43,110.97
1832,E-5,353.0,1.0,41,110.97
1833,G4,353.0,0.25,50,110.97
1834,C4,353.0,0.5,34,110.97
1835,F4,353.25,0.25,46,110.97
1836,G4,353.5,0.25,50,110.97
1837,F3,353.5,0.5,29,110.97
1838,A4,353.75,0.25,46,110.97
1839,B-3,354.0,0.5,40,110.97
1840,D5,354.0,1.0,47,110.97
1841,B-4,354.0,1.0,47,110.97
1842,B-2,354.5,0.5,30,110.97
1843,F4,355.0,0.5,41,110.97
1844,D3,355.0,0.5,34,110.97
1845,B-2,355.5,0.5,30,110.97
1846,A4,355.938,0.062,43,110.97
1847,G4,356.0,0.25,50,110.97
1848,E-3,356.0,0.5,34,110.97
1849,F#4,356.25,0.25,46,110.97
1850,G4,356.5,0.25,50,110.97
1851,B-2,356.5,0.5,29,110.97
1852,A4,356.75,0.25,46,110.97
1853,B-4,357.0,1.0,50,110.97
1854,D3,357.0,0.5,40,110.97
1855,C#3,357.5,0.5,30,110.97
1856,F4,358.0,0.875,41,110.97
1857,D3,358.0,0.5,34,110.97
1858,B-2,358.5,0.5,30,110.97
1859,A3,358.938,0.062,36,110.97
1860,E-4,359.0,1.0,34,110.97
1861,G3,359.0,0.25,42,110.97
1862,C3,359.0,0.5,34,110.97
1863,F3,359.25,0.25,39,110.97
1864,G3,359.5,0.25,42,110.97
1865,F2,359.5,0.5,29,110.97
1866,A3,359.75,0.25,39,110.97
1867,D4,360.0,1.0,34,110.97
1868,B-3,360.0,0.5,42,110.97
1869,B-2,360.0,0.5,40,110.97
1870,F3,360.5,0.417,33,110.97
1871,D3,360.5,0.5,30,110.97
1872,A3,360.938,0.062,37,110.97
1873,E-4,361.0,1.0,39,110.97
1874,G3,361.0,0.25,43,110.97
1875,C3,361.0,0.5,35,110.97
1876,F3,361.25,0.25,40,110.97
1877,G3,361.5,0.25,44,110.97
1878,F2,361.5,0.5,31,110.97
1879,A3,361.75,0.25,40,110.97
1880,D4,362.0,1.0,36,110.97
1881,B-3,362.0,0.5,44,110.97
1882,B-2,362.0,0.5,36,110.97
1883,F3,362.5,0.375,34,110.97
1884,D3,362.5,0.5,31,110.97
1885,A3,362.938,0.062,39,110.97
1886,E-4,363.0,1.0,44,110.97
1887,G3,363.0,0.25,46,110.97
1888,C3,363.0,0.5,44,110.97
1889,F3,363.25,0.25,43,110.97
1890,G3,363.5,0.25,47,110.97
1891,F2,363.5,0.5,33,110.97
1892,A3,363.75,0.25,44,110.97
1893,D4,364.0,0.5,42,110.97
1894,B-3,364.0,0.25,48,110.97
1895,B-2,364.0,0.25,45,110.97
1896,F3,364.25,0.25,41,110.97
1897,D3,364.25,0.25,37,110.97
1898,E-4,364.5,0.5,40,110.97
1899,A3,364.5,0.25,50,110.97
1900,F2,364.5,0.25,46,110.97
1901,F3,364.75,0.25,43,110.97
1902,C3,364.75,0.25,39,110.97
1903,D4,365.0,0.5,49,110.97
1904,B-3,365.0,0.25,51,110.97
1905,B-2,365.0,0.25,47,110.97
1906,F3,365.25,0.25,46,110.97
1907,D3,365.25,0.25,41,110.97
1908,E-4,365.5,0.5,42,110.97
1909,A3,365.5,0.25,52,110.97
1910,F2,365.5,0.25,49,110.97
1911,F3,365.75,0.25,47,110.97
1912,C3,365.75,0.25,43,110.97
1913,B-3,366.0,0.25,37,110.97
1914,D4,366.0,0.25,37,110.97
1915,B-2,366.0,0.25,27,110.97
1916,D3,366.0,0.25,27,110.97
1917,D4,367.0,0.25,37,110.97
1918,B-4,367.0,0.25,37,110.97
1919,B-1,367.0,0.25,27,110.97
1920,B-2,367.0,0.25,27,110.97
,note_name,start_time,duration,velocity,tempo
0,F5,1.25,0.25,45,85.5
1,G5,1.5,0.25,50,85.5
2,F5,1.75,0.25,46,85.5
3,E-5,2.0,0.25,50,85.5
4,B-3,2.0,0.5,42,85.5
5,D5,2.25,0.25,46,85.5
6,F4,2.25,0.25,34,85.5
7,C5,2.5,0.25,46,85.5
8,D4,2.5,0.5,38,85.5
9,B-4,2.75,0.25,46,85.5
10,F4,2.75,0.25,34,85.5
11,A4,3.0,0.5,50,85.5
12,E-4,3.0,0.25,38,85.5
13,C4,3.0,0.5,38,85.5
14,F4,3.25,0.25,34,85.5
15,B-4,3.5,0.5,47,85.5
16,D4,3.5,0.25,37,85.5
17,B-3,3.5,0.5,37,85.5
18,F4,3.75,0.25,34,85.5
19,B4,4.0,0.5,53,85.5
20,A3,4.0,2.0,43,85.5
21,E-4,4.0,2.0,43,85.5
22,F4,4.25,0.125,34,85.5
23,C5,4.5,0.75,49,85.5
24,F4,4.5,0.125,34,85.5
25,F4,4.75,0.125,34,85.5
26,F4,5.0,0.125,37,85.5
27,F#5,5.25,0.25,45,85.5
28,F4,5.25,0.125,34,85.5
29,A5,5.5,0.25,50,85.5
30,F4,5.5,0.125,34,85.5
31,G5,5.75,0.25,46,85.5
32,F4,5.75,0.125,34,85.5
33,F5,6.0,0.25,50,85.5
34,A3,6.0,0.5,42,85.5
35,E-5,6.25,0.25,46,85.5
36,F4,6.25,0.25,34,85.5
37,D5,6.5,0.25,46,85.5
38,E-4,6.5,0.5,38,85.5
39,C5,6.75,0.25,46,85.5
40,F4,6.75,0.25,34,85.5
41,B-4,7.0,0.5,50,85.5
42,D4,7.0,0.5,38,85.5
43,F4,7.25,0.25,34,85.5
44,C5,7.5,0.5,47,85.5
45,A3,7.5,0.5,37,85.5
46,F4,7.75,0.25,34,85.5
47,C#5,8.0,0.5,53,85.5
48,B-3,8.0,1.5,43,85.5
49,F4,8.25,0.125,34,85.5
50,D5,8.5,0.75,49,85.5
51,F4,8.5,0.125,34,85.5
52,F4,8.75,0.125,34,85.5
53,F4,9.0,0.125,37,85.5
54,F5,9.25,0.25,51,85.5
55,F4,9.25,0.125,34,85.5
56,G5,9.5,0.25,58,85.5
57,B3,9.5,0.5,34,85.5
58,D5,9.75,0.25,52,85.5
59,F4,9.75,0.125,34,85.5
60,F5,10.0,0.25,56,85.5
61,C4,10.0,0.5,42,85.5
62,E-5,10.25,0.25,52,85.5
63,F4,10.25,0.25,34,85.5
64,F5,10.5,0.25,57,85.5
65,A3,10.5,0.5,38,85.5
66,C5,10.75,0.25,52,85.5
67,F4,10.75,0.25,34,85.5
68,E-5,11.0,0.25,57,85.5
69,B-3,11.0,0.5,42,85.5
70,D5,11.25,0.25,52,85.5
71,F4,11.25,0.25,34,85.5
72,G5,11.5,0.25,59,85.5
73,B3,11.5,0.5,38,85.5
74,D5,11.75,0.25,52,85.5
75,F4,11.75,0.25,34,85.5
76,F5,12.0,0.25,62,85.5
77,C4,12.0,0.5,47,85.5
78,E-5,12.25,0.25,56,85.5
79,F4,12.25,0.25,34,85.5
80,F5,12.5,0.25,62,85.5
81,A3,12.5,0.5,42,85.5
82,C5,12.75,0.25,54,85.5
83,F4,12.75,0.25,34,85.5
84,D5,13.0,0.25,67,85.5
85,B-3,13.0,0.5,52,85.5
86,E-5,13.25,0.25,57,85.5
87,D4,13.25,0.25,38,85.5
88,E5,13.5,0.25,59,85.5
89,A3,13.5,0.5,47,85.5
90,F5,13.75,0.25,61,85.5
91,C4,13.75,0.25,42,85.5
92,F#5,14.0,0.25,67,85.5
93,G3,14.0,0.479,58,85.5
94,G5,14.25,0.25,64,85.5
95,B-3,14.25,0.25,42,85.5
96,A5,14.5,0.25,67,85.5
97,G3,14.5,0.5,49,85.5
98,B-5,14.75,0.25,69,85.5
99,B-3,14.75,0.25,41,85.5
100,C6,15.0,0.25,70,85.5
101,C3,15.0,0.479,63,85.5
102,C#6,15.25,0.25,74,85.5
103,B-3,15.25,0.25,39,85.5
104,D6,15.5,0.25,81,85.5
105,C3,15.5,0.5,43,85.5
106,E5,15.75,0.25,54,85.5
107,B-3,15.75,0.25,34,85.5
108,G5,16.0,0.5,58,85.5
109,F3,16.0,1.5,43,85.5
110,B-3,16.25,0.25,29,85.5
111,F5,16.5,0.5,53,85.5
112,A3,16.5,0.25,35,85.5
113,G3,16.75,0.25,29,85.5
114,A3,17.0,0.5,34,85.5
115,F4,17.25,0.25,42,85.5
116,F5,17.25,0.25,42,85.5
117,G4,17.5,0.25,46,85.5
118,G5,17.5,0.25,46,85.5
119,F4,17.75,0.25,42,85.5
120,F5,17.75,0.25,42,85.5
121,B-2,18.0,0.5,42,85.5
122,E-4,18.0,0.25,46,85.5
123,E-5,18.0,0.25,46,85.5
124,F3,18.25,0.25,34,85.5
125,D4,18.25,0.25,42,85.5
126,D5,18.25,0.25,42,85.5
127,D3,18.5,0.5,38,85.5
128,C4,18.5,0.25,42,85.5
129,C5,18.5,0.25,42,85.5
130,F3,18.75,0.25,34,85.5
131,B-3,18.75,0.25,42,85.5
132,B-4,18.75,0.25,42,85.5
133,E-3,19.0,0.25,38,85.5
134,C3,19.0,0.5,38,85.5
135,A3,19.0,0.5,42,85.5
136,A4,19.0,0.5,42,85.5
137,F3,19.25,0.25,34,85.5
138,D3,19.5,0.25,37,85.5
139,B-2,19.5,0.5,37,85.5
140,B-3,19.5,0.5,43,85.5
141,B-4,19.5,0.5,43,85.5
142,F3,19.75,0.25,34,85.5
143,B3,20.0,0.5,49,85.5
144,B4,20.0,0.5,49,85.5
145,A2,20.0,2.0,43,85.5
146,E-3,20.0,2.0,43,85.5
147,F3,20.25,0.125,34,85.5
148,F3,20.5,0.125,34,85.5
149,C4,20.5,0.75,45,85.5
150,C5,20.5,0.75,45,85.5
151,F3,20.75,0.125,34,85.5
152,F3,21.0,0.125,37,85.5
153,F3,21.25,0.125,34,85.5
154,F#4,21.25,0.25,42,85.5
155,F#5,21.25,0.25,42,85.5
156,F3,21.5,0.125,34,85.5
157,A4,21.5,0.25,46,85.5
158,A5,21.5,0.25,46,85.5
159,F3,21.75,0.125,34,85.5
160,G4,21.75,0.25,42,85.5
161,G5,21.75,0.25,42,85.5
162,A2,22.0,0.5,42,85.5
163,F4,22.0,0.25,46,85.5
164,F5,22.0,0.25,46,85.5
165,F3,22.25,0.25,34,85.5
166,E-4,22.25,0.25,42,85.5
167,E-5,22.25,0.25,42,85.5
168,E-3,22.5,0.5,38,85.5
169,D4,22.5,0.25,42,85.5
170,D5,22.5,0.25,42,85.5
171,F3,22.75,0.25,34,85.5
172,C4,22.75,0.25,42,85.5
173,C5,22.75,0.25,42,85.5
174,D3,23.0,0.5,38,85.5
175,B-3,23.0,0.5,46,85.5
176,B-4,23.0,0.5,46,85.5
177,F3,23.25,0.25,34,85.5
178,A2,23.5,0.5,37,85.5
179,C4,23.5,0.5,43,85.5
180,C5,23.5,0.5,43,85.5
181,F3,23.75,0.25,34,85.5
182,B-2,24.0,1.5,43,85.5
183,C#4,24.0,0.5,49,85.5
184,C#5,24.0,0.5,49,85.5
185,F3,24.25,0.125,34,85.5
186,F3,24.5,0.125,34,85.5
187,D4,24.5,0.75,45,85.5
188,D5,24.5,0.75,45,85.5
189,F3,24.75,0.125,34,85.5
190,F3,25.0,0.125,37,85.5
191,F5,25.25,0.25,56,85.5
192,F3,25.25,0.125,37,85.5
193,G#4,25.5,1.0,45,85.5
194,G5,25.5,0.25,63,85.5
195,B2,25.5,0.5,37,85.5
196,D5,25.75,0.25,57,85.5
197,F3,25.75,0.125,37,85.5
198,F5,26.0,0.25,62,85.5
199,C3,26.0,0.5,46,85.5
200,E-5,26.25,0.25,58,85.5
201,F3,26.25,0.25,38,85.5
202,A4,26.5,0.5,45,85.5
203,F5,26.5,0.25,63,85.5
204,F2,26.5,0.5,42,85.5
205,C5,26.75,0.25,58,85.5
206,F3,26.75,0.25,38,85.5
207,B-4,27.0,0.5,46,85.5
208,E-5,27.0,0.25,64,85.5
209,B-2,27.0,0.5,47,85.5
210,D5,27.25,0.25,59,85.5
211,F3,27.25,0.25,38,85.5
212,G#4,27.5,1.0,46,85.5
213,G5,27.5,0.25,67,85.5
214,B2,27.5,0.5,43,85.5
215,D5,27.75,0.25,59,85.5
216,F3,27.75,0.25,39,85.5
217,F5,28.0,0.25,71,85.5
218,C3,28.0,0.5,54,85.5
219,E-5,28.25,0.25,64,85.5
220,F3,28.25,0.25,39,85.5
221,A4,28.5,0.5,47,85.5
222,F5,28.5,0.25,71,85.5
223,F2,28.5,0.5,48,85.5
224,C5,28.75,0.25,63,85.5
225,F3,28.75,0.25,39,85.5
226,B-2,29.0,0.5,56,85.5
227,B-4,29.0,0.25,65,85.5
228,E-5,29.0,0.25,65,85.5
229,F3,29.25,0.25,41,85.5
230,D4,29.25,0.25,58,85.5
231,D5,29.25,0.25,58,85.5
232,G#2,29.5,0.5,50,85.5
233,E-4,29.5,0.25,62,85.5
234,E-5,29.5,0.25,62,85.5
235,B-2,29.75,0.25,45,85.5
236,F4,29.75,0.25,66,85.5
237,F5,29.75,0.25,66,85.5
238,G2,30.0,0.479,65,85.5
239,F#4,30.0,0.25,74,85.5
240,F#5,30.0,0.25,74,85.5
241,B-2,30.25,0.25,53,85.5
242,G4,30.25,0.25,69,85.5
243,G5,30.25,0.25,69,85.5
244,E-2,30.5,0.5,61,85.5
245,A4,30.5,0.125,74,85.5
246,A5,30.5,0.125,74,85.5
247,E-3,30.75,0.25,53,85.5
248,B-4,30.75,0.125,76,85.5
249,B-5,30.75,0.125,76,85.5
250,F2,31.0,0.479,56,85.5
251,B-3,31.0,0.5,70,85.5
252,B-4,31.0,0.5,70,85.5
253,D3,31.25,0.25,42,85.5
254,F2,31.5,0.5,49,85.5
255,C4,31.5,0.5,64,85.5
256,C5,31.5,0.5,64,85.5
257,A2,31.75,0.25,43,85.5
258,B-1,32.0,0.25,43,85.5
259,C#4,32.0,0.5,45,85.5
260,C#5,32.0,0.5,45,85.5
261,B-2,32.25,1.25,29,85.5
262,B-3,32.5,0.125,35,85.5
263,D4,32.5,0.625,42,85.5
264,D5,32.5,0.625,42,85.5
265,B-3,32.75,0.125,29,85.5
266,B-3,33.0,0.125,37,85.5
267,B-4,33.125,0.125,59,85.5
268,A4,33.25,0.125,61,85.5
269,B-3,33.25,0.125,35,85.5
270,B-4,33.375,0.125,62,85.5
271,B4,33.5,0.125,62,85.5
272,G#3,33.5,0.5,43,85.5
273,C5,33.625,0.125,64,85.5
274,C#5,33.75,0.125,65,85.5
275,B-3,33.75,0.25,39,85.5
276,D5,33.875,0.125,67,85.5
277,E-5,34.0,0.125,69,85.5
278,G3,34.0,0.5,52,85.5
279,E5,34.125,0.125,70,85.5
280,F5,34.25,0.125,71,85.5
281,B-3,34.25,0.25,46,85.5
282,F#5,34.375,0.125,73,85.5
283,G5,34.5,0.125,74,85.5
284,E-3,34.5,0.5,56,85.5
285,G#5,34.625,0.125,76,85.5
286,A5,34.75,0.125,77,85.5
287,E-4,34.75,0.25,50,85.5
288,B-5,34.875,0.125,78,85.5
289,B-4,35.0,0.1,53,85.5
290,F3,35.0,0.479,35,85.5
291,C5,35.1,0.1,48,85.5
292,B-4,35.2,0.1,45,85.5
293,D4,35.25,0.25,29,85.5
294,A4,35.3,0.1,45,85.5
295,B-4,35.4,0.1,45,85.5
296,E-4,35.5,0.5,42,85.5
297,D5,35.5,0.375,52,85.5
298,F3,35.5,0.5,35,85.5
299,A3,35.75,0.25,29,85.5
300,C5,35.875,0.125,41,85.5
301,D4,36.0,0.5,46,85.5
302,B-4,36.0,0.5,46,85.5
303,B-2,36.0,0.5,36,85.5
304,B-3,36.0,0.5,36,85.5
305,F4,37.0,1.0,74,85.5
306,D5,37.0,1.0,74,85.5
307,B-3,37.0,1.0,55,85.5
308,D4,37.0,1.0,55,85.5
309,G4,38.0,1.0,45,85.5
310,C5,38.0,0.108,53,85.5
311,E-3,38.0,1.5,42,85.5
312,C4,38.0,1.5,42,85.5
313,D5,38.108,0.106,50,85.5
314,C5,38.215,0.108,53,85.5
315,D5,38.323,0.108,50,85.5
316,C5,38.431,0.106,53,85.5
317,B4,38.538,0.108,49,85.5
318,C5,38.646,0.106,49,85.5
319,D5,38.75,0.125,49,85.5
320,E-5,38.875,0.125,50,85.5
321,G4,39.0,0.5,57,85.5
322,E-4,39.5,0.5,50,85.5
323,A4,39.5,0.5,50,85.5
324,F3,39.5,0.5,38,85.5
325,C4,39.5,0.5,38,85.5
326,D4,40.0,1.0,47,85.5
327,B-4,40.0,0.5,56,85.5
328,B-2,40.0,0.5,46,85.5
329,B-3,40.0,0.5,46,85.5
330,F4,40.5,0.25,46,85.5
331,F4,41.0,1.0,74,85.5
332,D5,41.0,1.0,74,85.5
333,B-3,41.0,1.0,55,85.5
334,D4,41.0,1.0,55,85.5
335,G4,42.0,1.0,45,85.5
336,C5,42.0,0.25,63,85.5
337,E3,42.0,1.0,41,85.5
338,G3,42.0,1.0,41,85.5
339,D5,42.25,0.083,56,85.5
340,C5,42.333,0.083,56,85.5
341,B4,42.417,0.083,56,85.5
342,C5,42.5,0.375,63,85.5
343,D5,42.875,0.125,58,85.5
344,E4,43.0,1.0,45,85.5
345,B-4,43.0,0.25,63,85.5
346,C3,43.0,1.0,41,85.5
347,C4,43.0,1.0,41,85.5
348,C5,43.25,0.083,56,85.5
349,B-4,43.333,0.083,56,85.5
350,A4,43.417,0.083,56,85.5
351,B-4,43.5,0.375,63,85.5
352,C5,43.875,0.125,58,85.5
353,F4,44.0,1.0,47,85.5
354,B-4,44.0,0.5,56,85.5
355,F3,44.0,1.0,46,85.5
356,C4,44.0,1.0,46,85.5
357,A4,44.5,0.25,46,85.5
358,A2,45.0,1.0,62,85.5
359,F3,45.125,0.875,52,85.5
360,A3,45.25,0.75,54,85.5
361,A4,45.5,1.0,55,85.5
362,F5,45.625,0.875,64,85.5
363,A5,45.75,0.75,69,85.5
364,B-2,46.0,1.0,65,85.5
365,F3,46.125,0.875,54,85.5
366,A3,46.25,0.75,57,85.5
367,A4,46.5,1.0,57,85.5
368,F5,46.625,0.875,68,85.5
369,A5,46.75,0.75,73,85.5
370,C3,47.0,1.0,68,85.5
371,F3,47.125,0.875,57,85.5
372,A3,47.25,0.75,59,85.5
373,A4,47.5,1.0,60,85.5
374,F5,47.625,0.875,71,85.5
375,A5,47.75,0.75,76,85.5
376,D3,48.0,1.0,71,85.5
377,F3,48.125,0.875,59,85.5
378,A3,48.25,0.75,62,85.5
379,A4,48.5,0.5,63,85.5
380,F5,48.625,0.375,74,85.5
381,A5,48.75,0.25,79,85.5
382,A4,49.0,0.5,63,85.5
383,D4,49.0,1.0,53,85.5
384,F4,49.0,1.0,53,85.5
385,B4,49.5,1.0,59,85.5
386,F6,49.5,1.0,76,85.5
387,F5,49.5,1.0,76,85.5
388,C4,50.0,1.0,59,85.5
389,G4,50.0,1.0,59,85.5
390,C5,50.5,0.25,58,85.5
391,E6,50.5,0.25,57,85.5
392,E5,50.5,0.25,57,85.5
393,F4,51.0,0.5,63,85.5
394,B-3,51.0,1.0,53,85.5
395,D4,51.0,1.0,53,85.5
396,D6,51.5,1.0,76,85.5
397,D5,51.5,1.0,76,85.5
398,E4,51.5,1.0,54,85.5
399,G4,51.5,1.0,54,85.5
400,A3,52.0,1.0,54,85.5
401,C6,52.5,0.25,57,85.5
402,C5,52.5,0.25,57,85.5
403,F4,52.5,0.25,54,85.5
404,A4,52.5,0.25,54,85.5
405,D4,53.0,0.5,63,85.5
406,G3,53.0,1.0,53,85.5
407,B-3,53.0,1.0,53,85.5
408,E4,53.5,0.5,59,85.5
409,B-5,53.5,0.75,76,85.5
410,B-4,53.5,0.75,76,85.5
411,C4,54.0,0.5,58,85.5
412,F4,54.0,0.5,58,85.5
413,F3,54.0,0.5,58,85.5
414,A4,54.25,0.5,57,85.5
415,A5,54.25,0.5,57,85.5
416,B-2,54.5,0.25,49,85.5
417,B-3,54.5,0.25,49,85.5
418,G4,54.75,0.5,60,85.5
419,G5,54.75,0.5,60,85.5
420,C3,55.0,0.25,56,85.5
421,A3,55.0,0.25,56,85.5
422,F4,55.25,0.5,57,85.5
423,F5,55.25,0.5,57,85.5
424,C3,55.5,0.25,50,85.5
425,E3,55.5,0.25,50,85.5
426,G4,55.75,0.25,56,85.5
427,G5,55.75,0.25,56,85.5
428,G#4,56.0,0.5,61,85.5
429,G#5,56.0,0.5,61,85.5
430,F2,56.0,0.5,56,85.5
431,F3,56.0,0.5,56,85.5
432,A4,56.5,0.5,56,85.5
433,A5,56.5,0.5,56,85.5
434,F4,57.0,1.5,57,85.5
435,A4,57.0,0.5,57,85.5
436,D3,57.0,1.0,58,85.5
437,F3,57.0,0.5,58,85.5
438,B4,57.5,1.0,49,85.5
439,G#3,57.5,1.0,52,85.5
440,C3,58.0,1.0,62,85.5
441,A3,58.5,0.25,58,85.5
442,C5,58.5,0.25,57,85.5
443,E4,58.5,0.25,57,85.5
444,D4,59.0,1.5,57,85.5
445,F4,59.0,0.5,57,85.5
446,B-2,59.0,1.0,58,85.5
447,D3,59.0,0.5,58,85.5
448,G4,59.5,0.5,49,85.5
449,E3,59.5,1.0,52,85.5
450,G#4,60.0,0.5,53,85.5
451,A2,60.0,1.0,62,85.5
452,F3,60.5,0.25,58,85.5
453,A4,60.5,0.25,57,85.5
454,C4,60.5,0.25,57,85.5
455,B-3,61.0,1.25,57,85.5
456,D4,61.0,0.5,57,85.5
457,G2,61.0,1.0,62,85.5
458,D3,61.0,0.5,58,85.5
459,E4,61.5,0.5,49,85.5
460,C#3,61.5,0.75,52,85.5
461,F4,62.0,0.25,53,85.5
462,F2,62.0,0.5,62,85.5
463,A3,62.25,0.5,57,85.5
464,C3,62.25,0.5,51,85.5
465,B-1,62.5,0.5,57,85.5
466,G3,62.75,0.5,62,85.5
467,B-2,62.75,0.5,54,85.5
468,C2,63.0,0.5,59,85.5
469,F3,63.25,0.5,67,85.5
470,A2,63.25,0.5,55,85.5
471,C2,63.5,0.5,62,85.5
472,E3,63.75,0.25,72,85.5
473,G2,63.75,0.25,57,85.5
474,F3,64.0,0.125,70,85.5
475,F1,64.0,0.5,64,85.5
476,A2,64.125,0.125,50,85.5
477,C3,64.25,0.125,50,85.5
478,F3,64.375,0.125,50,85.5
479,A3,64.5,0.125,53,85.5
480,F2,64.5,1.5,46,85.5
481,C4,64.625,0.125,50,85.5
482,F4,64.75,0.125,50,85.5
483,A4,64.875,0.125,50,85.5
484,C4,65.0,0.125,55,85.5
485,A2,65.0,1.0,46,85.5
486,F4,65.125,0.125,50,85.5
487,A4,65.25,0.125,50,85.5
488,C5,65.375,0.125,50,85.5
489,F4,65.5,0.125,55,85.5
490,C3,65.5,0.5,46,85.5
491,A4,65.625,0.125,50,85.5
492,C5,65.75,0.125,50,85.5
493,F5,65.875,0.125,50,85.5
494,E5,66.0,0.125,74,85.5
495,F2,66.0,2.0,54,85.5
496,G2,66.0,2.0,54,85.5
497,B-5,66.125,0.125,50,85.5
498,G5,66.25,0.125,50,85.5
499,E5,66.375,0.125,50,85.5
500,C5,66.5,0.125,54,85.5
501,B-2,66.5,1.5,47,85.5
502,G5,66.625,0.125,50,85.5
503,E5,66.75,0.125,50,85.5
504,C5,66.875,0.125,50,85.5
505,B-4,67.0,0.125,56,85.5
506,C3,67.0,1.0,47,85.5
507,E5,67.125,0.125,50,85.5
508,C5,67.25,0.125,50,85.5
509,B-4,67.375,0.125,50,85.5
510,G4,67.5,0.125,54,85.5
511,E3,67.5,0.5,47,85.5
512,C5,67.625,0.125,50,85.5
513,B-4,67.75,0.125,50,85.5
514,G4,67.875,0.125,50,85.5
515,F4,68.0,0.125,70,85.5
516,F2,68.0,0.5,64,85.5
517,A3,68.125,0.125,50,85.5
518,C4,68.25,0.125,50,85.5
519,F4,68.375,0.125,50,85.5
520,A4,68.5,0.125,53,85.5
521,F3,68.5,1.5,46,85.5
522,C5,68.625,0.125,50,85.5
523,F5,68.75,0.125,50,85.5
524,A5,68.875,0.125,50,85.5
525,C5,69.0,0.125,55,85.5
526,A3,69.0,1.0,46,85.5
527,F5,69.125,0.125,50,85.5
528,A5,69.25,0.125,50,85.5
529,C6,69.375,0.125,50,85.5
530,F5,69.5,0.125,55,85.5
531,C4,69.5,0.5,46,85.5
532,A5,69.625,0.125,50,85.5
533,C6,69.75,0.125,50,85.5
534,F6,69.875,0.125,50,85.5
535,B-5,70.0,0.125,74,85.5
536,F3,70.0,2.0,54,85.5
537,G3,70.0,2.0,54,85.5
538,E6,70.125,0.125,50,85.5
539,C6,70.25,0.125,50,85.5
540,B-5,70.375,0.125,50,85.5
541,G5,70.5,0.125,54,85.5
542,B-3,70.5,1.5,47,85.5
543,C6,70.625,0.125,50,85.5
544,B-5,70.75,0.125,50,85.5
545,G5,70.875,0.125,50,85.5
546,E5,71.0,0.125,56,85.5
547,C4,71.0,1.0,47,85.5
548,B-5,71.125,0.125,50,85.5
549,G5,71.25,0.125,50,85.5
550,E5,71.375,0.125,50,85.5
551,B-4,71.5,0.125,54,85.5
552,E4,71.5,0.5,47,85.5
553,G5,71.625,0.125,50,85.5
554,E5,71.75,0.125,50,85.5
555,B-4,71.875,0.125,50,85.5
556,F4,72.0,0.125,77,85.5
557,F2,72.0,0.5,75,85.5
558,A3,72.125,0.125,55,85.5
559,C4,72.25,0.125,55,85.5
560,F4,72.375,0.125,55,85.5
561,A4,72.5,0.125,58,85.5
562,F3,72.5,1.5,57,85.5
563,C5,72.625,0.125,55,85.5
564,F5,72.75,0.125,55,85.5
565,A5,72.875,0.125,55,85.5
566,C5,73.0,0.125,61,85.5
567,A3,73.0,1.0,57,85.5
568,F5,73.125,0.125,55,85.5
569,A5,73.25,0.125,56,85.5
570,C6,73.375,0.125,56,85.5
571,F5,73.5,0.125,61,85.5
572,C4,73.5,0.5,58,85.5
573,A5,73.625,0.125,56,85.5
574,C6,73.75,0.125,56,85.5
575,F6,73.875,0.125,56,85.5
576,E-2,74.0,0.5,82,85.5
577,A3,74.125,0.125,62,85.5
578,C4,74.25,0.125,62,85.5
579,F4,74.375,0.125,62,85.5
580,A4,74.5,0.125,66,85.5
581,E-3,74.5,1.5,63,85.5
582,C5,74.625,0.125,62,85.5
583,F5,74.75,0.125,62,85.5
584,A5,74.875,0.125,62,85.5
585,C5,75.0,0.125,69,85.5
586,A3,75.0,1.0,64,85.5
587,F5,75.125,0.125,63,85.5
588,A5,75.25,0.125,63,85.5
589,C6,75.375,0.125,63,85.5
590,F5,75.5,0.125,69,85.5
591,C4,75.5,0.5,64,85.5
592,A5,75.625,0.125,63,85.5
593,C6,75.75,0.125,63,85.5
594,F6,75.875,0.125,63,85.5
595,C#2,76.0,0.5,91,85.5
596,B-3,76.125,0.125,63,85.5
597,C#4,76.25,0.125,70,85.5
598,F4,76.375,0.125,70,85.5
599,B-4,76.5,0.125,73,85.5
600,C#3,76.5,1.5,66,85.5
601,C#5,76.625,0.125,70,85.5
602,F5,76.75,0.125,70,85.5
603,B-5,76.875,0.125,70,85.5
604,C#5,77.0,0.125,77,85.5
605,F3,77.0,1.0,67,85.5
606,F5,77.125,0.125,70,85.5
607,B-5,77.25,0.125,70,85.5
608,C#6,77.375,0.125,70,85.5
609,F5,77.5,0.125,78,85.5
610,B-3,77.5,0.5,67,85.5
611,B-5,77.625,0.125,71,85.5
612,C#6,77.75,0.125,71,85.5
613,F6,77.875,0.125,71,85.5
614,E5,78.0,0.125,79,85.5
615,F#2,78.0,2.0,94,85.5
616,E6,78.125,0.125,70,85.5
617,C#6,78.25,0.125,70,85.5
618,B-5,78.375,0.125,70,85.5
619,E5,78.5,0.125,80,85.5
620,B-2,78.5,0.5,68,85.5
621,C#5,78.625,0.125,68,85.5
622,B-4,78.75,0.125,70,85.5
623,E4,78.875,0.125,70,85.5
624,C#4,79.0,0.125,79,85.5
625,C#3,79.0,0.5,72,85.5
626,E-4,79.125,0.125,68,85.5
627,C#4,79.25,0.125,69,85.5
628,C4,79.375,0.125,69,85.5
629,B-3,79.5,0.125,78,85.5
630,E3,79.5,0.5,75,85.5
631,C#4,79.625,0.125,72,85.5
632,C4,79.75,0.125,76,85.5
633,B-3,79.875,0.125,81,85.5
634,A3,80.0,0.5,86,85.5
635,F2,80.0,1.25,78,85.5
636,F3,80.0,1.25,78,85.5
637,C3,81.25,0.25,40,85.5
638,D3,81.5,0.25,45,85.5
639,C3,81.75,0.25,41,85.5
640,B-2,82.0,0.25,45,85.5
641,A2,82.25,0.25,40,85.5
642,G2,82.5,0.25,43,85.5
643,F2,82.75,0.188,40,85.5
644,F2,83.0,0.5,45,85.5
645,C4,83.25,0.25,40,85.5
646,D4,83.5,0.25,45,85.5
647,C4,83.75,0.25,41,85.5
648,B-3,84.0,0.25,45,85.5
649,A3,84.25,0.25,40,85.5
650,G3,84.5,0.25,43,85.5
651,F3,84.75,0.188,40,85.5
652,F3,85.0,0.5,45,85.5
653,E-3,85.25,0.083,38,85.5
654,F3,85.333,0.083,40,85.5
655,E-3,85.417,0.083,38,85.5
656,F3,85.5,0.25,45,85.5
657,E-3,85.75,0.25,41,85.5
658,D3,86.0,0.25,45,85.5
659,C3,86.25,0.25,40,85.5
660,B-2,86.5,0.25,43,85.5
661,A2,86.75,0.188,40,85.5
662,A2,87.0,0.5,45,85.5
663,E-4,87.25,0.083,38,85.5
664,F4,87.333,0.083,40,85.5
665,E-4,87.417,0.083,38,85.5
666,F4,87.5,0.25,45,85.5
667,E-4,87.75,0.25,41,85.5
668,D4,88.0,0.25,45,85.5
669,C4,88.25,0.25,40,85.5
670,B-3,88.5,0.25,43,85.5
671,A3,88.75,0.188,40,85.5
672,A3,89.0,0.5,45,85.5
673,C4,89.25,0.25,40,85.5
674,D4,89.5,0.25,45,85.5
675,C5,89.75,0.25,44,85.5
676,C4,89.75,0.25,41,85.5
677,D5,90.0,0.25,49,85.5
678,B-3,90.0,0.25,45,85.5
679,C5,90.25,0.25,45,85.5
680,A3,90.25,0.25,40,85.5
681,B-4,90.5,0.25,49,85.5
682,G3,90.5,0.25,43,85.5
683,A4,90.75,0.25,44,85.5
684,F3,90.75,0.188,40,85.5
685,G4,91.0,0.25,47,85.5
686,F4,91.25,0.188,44,85.5
687,E-4,91.25,0.25,40,85.5
688,F4,91.5,0.25,45,85.5
689,E-5,91.75,0.25,44,85.5
690,E-4,91.75,0.25,41,85.5
691,F5,92.0,0.25,49,85.5
692,D4,92.0,0.25,45,85.5
693,E-5,92.25,0.25,45,85.5
694,C4,92.25,0.25,40,85.5
695,D5,92.5,0.25,49,85.5
696,B-3,92.5,0.25,43,85.5
697,C5,92.75,0.25,44,85.5
698,A3,92.75,0.188,40,85.5
699,B-4,93.0,0.25,47,85.5
700,A4,93.25,0.25,44,85.5
701,F5,93.5,0.25,49,85.5
702,E-5,93.75,0.25,47,85.5
703,D5,94.0,0.25,47,85.5
704,C5,94.25,0.25,47,85.5
705,B-4,94.5,0.25,44,85.5
706,A4,94.75,0.25,44,85.5
707,F5,95.0,0.25,53,85.5
708,E-5,95.25,0.25,49,85.5
709,D5,95.5,0.25,46,85.5
710,C5,95.75,0.25,46,85.5
711,B-4,96.0,0.167,49,85.5
712,A4,96.167,0.167,49,85.5
713,F5,96.333,0.167,54,85.5
714,E-5,96.5,0.167,49,85.5
715,D5,96.667,0.167,49,85.5
716,C5,96.833,0.167,49,85.5
717,B-4,97.0,0.125,49,85.5
718,A4,97.125,0.125,49,85.5
719,F5,97.25,0.125,58,85.5
720,E-5,97.375,0.125,50,85.5
721,D5,97.5,0.125,50,85.5
722,C5,97.625,0.125,50,85.5
723,B-4,97.75,0.125,50,85.5
724,A4,97.875,0.125,50,85.5
725,F5,98.0,0.125,59,85.5
726,E-5,98.125,0.125,52,85.5
727,D5,98.25,0.125,52,85.5
728,C5,98.375,0.125,52,85.5
729,B-4,98.5,0.125,52,85.5
730,A4,98.625,0.125,52,85.5
731,F#5,98.75,0.125,61,85.5
732,F5,98.875,0.125,55,85.5
733,E-5,99.0,0.1,56,85.5
734,D5,99.1,0.1,57,85.5
735,C5,99.2,0.1,58,85.5
736,B-4,99.3,0.1,58,85.5
737,A4,99.4,0.1,59,85.5
738,G5,99.5,0.25,50,85.5
739,F5,99.75,0.25,46,85.5
740,E-5,100.0,0.25,50,85.5
741,B-3,100.0,0.5,42,85.5
742,D5,100.25,0.25,46,85.5
743,F4,100.25,0.25,34,85.5
744,C5,100.5,0.25,46,85.5
745,D4,100.5,0.5,38,85.5
746,B-4,100.75,0.25,46,85.5
747,F4,100.75,0.25,34,85.5
748,A4,101.0,0.5,50,85.5
749,E-4,101.0,0.25,38,85.5
750,C4,101.0,0.5,38,85.5
751,F4,101.25,0.25,34,85.5
752,B-4,101.5,0.5,47,85.5
753,D4,101.5,0.25,37,85.5
754,B-3,101.5,0.5,37,85.5
755,F4,101.75,0.25,34,85.5
756,B4,102.0,0.5,53,85.5
757,A3,102.0,2.0,43,85.5
758,E-4,102.0,2.0,43,85.5
759,F4,102.25,0.125,34,85.5
760,C5,102.5,0.5,49,85.5
761,F4,102.5,0.125,34,85.5
762,F4,102.75,0.125,34,85.5
763,F4,103.0,0.125,37,85.5
764,F#5,103.25,0.25,45,85.5
765,F4,103.25,0.125,34,85.5
766,A5,103.5,0.25,50,85.5
767,F4,103.5,0.125,34,85.5
768,G5,103.75,0.25,46,85.5
769,F4,103.75,0.125,34,85.5
770,F5,104.0,0.25,50,85.5
771,A3,104.0,0.5,42,85.5
772,E-5,104.25,0.25,44,85.5
773,F4,104.25,0.25,34,85.5
774,D5,104.5,0.25,46,85.5
775,E-4,104.5,0.5,38,85.5
776,C5,104.75,0.25,44,85.5
777,F4,104.75,0.25,34,85.5
778,A4,105.0,0.25,50,85.5
779,D4,105.0,0.5,38,85.5
780,B-4,105.25,0.25,41,85.5
781,F4,105.25,0.25,34,85.5
782,B4,105.5,0.25,47,85.5
783,A3,105.5,0.5,37,85.5
784,C5,105.75,0.25,44,85.5
785,F4,105.75,0.25,34,85.5
786,C#5,106.0,0.5,58,85.5
787,B-3,106.0,1.5,47,85.5
788,F4,106.25,0.125,37,85.5
789,D5,106.5,0.75,53,85.5
790,F4,106.5,0.125,37,85.5
791,F4,106.75,0.125,37,85.5
792,F4,107.0,0.125,41,85.5
793,F5,107.25,0.25,56,85.5
794,F4,107.25,0.125,37,85.5
795,G5,107.5,0.25,64,85.5
796,B3,107.5,0.5,37,85.5
797,D5,107.75,0.25,58,85.5
798,F4,107.75,0.125,38,85.5
799,F5,108.0,0.25,62,85.5
800,C4,108.0,0.5,47,85.5
801,E-5,108.25,0.25,58,85.5
802,F4,108.25,0.25,38,85.5
803,F5,108.5,0.25,64,85.5
804,A3,108.5,0.5,42,85.5
805,C5,108.75,0.25,58,85.5
806,F4,108.75,0.25,38,85.5
807,E-5,109.0,0.25,64,85.5
808,B-3,109.0,0.5,47,85.5
809,D5,109.25,0.25,59,85.5
810,F4,109.25,0.25,38,85.5
811,G5,109.5,0.25,67,85.5
812,B3,109.5,0.5,43,85.5
813,D5,109.75,0.25,59,85.5
814,F4,109.75,0.25,38,85.5
815,F5,110.0,0.25,71,85.5
816,C4,110.0,0.5,54,85.5
817,E-5,110.25,0.25,64,85.5
818,F4,110.25,0.25,39,85.5
819,F5,110.5,0.25,71,85.5
820,A3,110.5,0.5,48,85.5
821,C5,110.75,0.25,62,85.5
822,F4,110.75,0.25,39,85.5
823,D5,111.0,0.25,70,85.5
824,B-3,111.0,0.5,55,85.5
825,E-5,111.25,0.25,60,85.5
826,D4,111.25,0.25,40,85.5
827,E5,111.5,0.25,62,85.5
828,A3,111.5,0.5,49,85.5
829,F5,111.75,0.25,64,85.5
830,C4,111.75,0.25,44,85.5
831,F#5,112.0,0.25,70,85.5
832,G3,112.0,0.479,60,85.5
833,G5,112.25,0.25,66,85.5
834,B-3,112.25,0.25,43,85.5
835,A5,112.5,0.25,69,85.5
836,G3,112.5,0.5,50,85.5
837,B-5,112.75,0.25,70,85.5
838,B-3,112.75,0.25,42,85.5
839,C6,113.0,0.25,71,85.5
840,C3,113.0,0.479,57,85.5
841,C#6,113.25,0.25,76,85.5
842,B-3,113.25,0.25,40,85.5
843,D6,113.5,0.25,81,85.5
844,C3,113.5,0.5,44,85.5
845,E5,113.75,0.25,64,85.5
846,B-3,113.75,0.25,40,85.5
847,G5,114.0,0.5,58,85.5
848,F3,114.0,1.5,43,85.5
849,B-3,114.25,0.25,29,85.5
850,F5,114.5,0.5,53,85.5
851,A3,114.5,0.25,35,85.5
852,G3,114.75,0.25,29,85.5
853,A3,115.0,0.5,34,85.5
854,F4,115.25,0.25,42,85.5
855,F5,115.25,0.25,42,85.5
856,G4,115.5,0.25,46,85.5
857,G5,115.5,0.25,46,85.5
858,F4,115.75,0.25,42,85.5
859,F5,115.75,0.25,42,85.5
860,B-2,116.0,0.5,42,85.5
861,E-4,116.0,0.25,46,85.5
862,E-5,116.0,0.25,46,85.5
863,F3,116.25,0.25,34,85.5
864,D4,116.25,0.25,42,85.5
865,D5,116.25,0.25,42,85.5
866,D3,116.5,0.5,38,85.5
867,C4,116.5,0.25,42,85.5
868,C5,116.5,0.25,42,85.5
869,F3,116.75,0.25,34,85.5
870,B-3,116.75,0.25,42,85.5
871,B-4,116.75,0.25,42,85.5
872,E-3,117.0,0.25,38,85.5
873,C3,117.0,0.5,38,85.5
874,A3,117.0,0.5,42,85.5
875,A4,117.0,0.5,42,85.5
876,F3,117.25,0.25,34,85.5
877,D3,117.5,0.25,37,85.5
878,B-2,117.5,0.5,37,85.5
879,B-3,117.5,0.5,43,85.5
880,B-4,117.5,0.5,43,85.5
881,F3,117.75,0.25,34,85.5
882,B3,118.0,0.5,49,85.5
883,B4,118.0,0.5,49,85.5
884,A2,118.0,2.0,43,85.5
885,E-3,118.0,2.0,43,85.5
886,F3,118.25,0.125,34,85.5
887,F3,118.5,0.125,34,85.5
888,C4,118.5,0.75,45,85.5
889,C5,118.5,0.75,45,85.5
890,F3,118.75,0.125,34,85.5
891,F3,119.0,0.125,37,85.5
892,F3,119.25,0.125,34,85.5
893,F#4,119.25,0.25,42,85.5
894,F#5,119.25,0.25,42,85.5
895,F3,119.5,0.125,34,85.5
896,A4,119.5,0.25,46,85.5
897,A5,119.5,0.25,46,85.5
898,F3,119.75,0.125,34,85.5
899,G4,119.75,0.25,42,85.5
900,G5,119.75,0.25,42,85.5
901,A2,120.0,0.5,42,85.5
902,F4,120.0,0.25,46,85.5
903,F5,120.0,0.25,46,85.5
904,F3,120.25,0.25,34,85.5
905,E-4,120.25,0.25,43,85.5
906,E-5,120.25,0.25,43,85.5
907,E-3,120.5,0.5,38,85.5
908,D4,120.5,0.25,42,85.5
909,D5,120.5,0.25,42,85.5
910,F3,120.75,0.25,34,85.5
911,C4,120.75,0.25,43,85.5
912,C5,120.75,0.25,43,85.5
913,D3,121.0,0.5,38,85.5
914,A3,121.0,0.25,46,85.5
915,A4,121.0,0.25,46,85.5
916,F3,121.25,0.25,34,85.5
917,B-3,121.25,0.25,44,85.5
918,B-4,121.25,0.25,44,85.5
919,A2,121.5,0.5,37,85.5
920,B3,121.5,0.25,43,85.5
921,B4,121.5,0.25,43,85.5
922,F3,121.75,0.25,34,85.5
923,C4,121.75,0.25,45,85.5
924,C5,121.75,0.25,45,85.5
925,B-2,122.0,1.5,43,85.5
926,C#4,122.0,0.5,49,85.5
927,C#5,122.0,0.5,49,85.5
928,F3,122.25,0.125,34,85.5
929,F3,122.5,0.125,34,85.5
930,D4,122.5,0.75,45,85.5
931,D5,122.5,0.75,45,85.5
932,F3,122.75,0.125,34,85.5
933,F3,123.0,0.125,37,85.5
934,F5,123.25,0.25,56,85.5
935,F3,123.25,0.125,37,85.5
936,G#4,123.5,1.0,45,85.5
937,G5,123.5,0.25,63,85.5
938,B2,123.5,0.5,37,85.5
939,D5,123.75,0.25,57,85.5
940,F3,123.75,0.125,37,85.5
941,F5,124.0,0.25,62,85.5
942,C3,124.0,0.5,46,85.5
943,E-5,124.25,0.25,58,85.5
944,F3,124.25,0.25,38,85.5
945,A4,124.5,0.5,45,85.5
946,F5,124.5,0.25,63,85.5
947,F2,124.5,0.5,42,85.5
948,C5,124.75,0.25,58,85.5
949,F3,124.75,0.25,38,85.5
950,B-4,125.0,0.5,46,85.5
951,E-5,125.0,0.25,64,85.5
952,B-2,125.0,0.5,47,85.5
953,D5,125.25,0.25,59,85.5
954,F3,125.25,0.25,38,85.5
955,G#4,125.5,1.0,46,85.5
956,G5,125.5,0.25,67,85.5
957,B2,125.5,0.5,43,85.5
958,D5,125.75,0.25,59,85.5
959,F3,125.75,0.25,39,85.5
960,F5,126.0,0.25,71,85.5
961,C3,126.0,0.5,54,85.5
962,E-5,126.25,0.25,64,85.5
963,F3,126.25,0.25,39,85.5
964,A4,126.5,0.5,47,85.5
965,F5,126.5,0.25,71,85.5
966,F2,126.5,0.5,48,85.5
967,C5,126.75,0.25,63,85.5
968,F3,126.75,0.25,39,85.5
969,B-2,127.0,0.5,56,85.5
970,B-4,127.0,0.25,65,85.5
971,E-5,127.0,0.25,65,85.5
972,F3,127.25,0.25,41,85.5
973,D4,127.25,0.25,58,85.5
974,D5,127.25,0.25,58,85.5
975,G#2,127.5,0.5,50,85.5
976,E-4,127.5,0.25,62,85.5
977,E-5,127.5,0.25,62,85.5
978,B-2,127.75,0.25,45,85.5
979,F4,127.75,0.25,66,85.5
980,F5,127.75,0.25,66,85.5
981,G2,128.0,0.479,62,85.5
982,F#4,128.0,0.25,70,85.5
983,F#5,128.0,0.25,70,85.5
984,B-2,128.25,0.25,51,85.5
985,G4,128.25,0.25,66,85.5
986,G5,128.25,0.25,66,85.5
987,E-2,128.5,0.5,58,85.5
988,A4,128.5,0.125,70,85.5
989,A5,128.5,0.125,70,85.5
990,E-3,128.75,0.25,51,85.5
991,B-4,128.75,0.125,74,85.5
992,B-5,128.75,0.125,74,85.5
993,F2,129.0,0.479,56,85.5
994,B-3,129.0,0.5,71,85.5
995,B-4,129.0,0.5,71,85.5
996,D3,129.25,0.25,42,85.5
997,F2,129.5,0.5,49,85.5
998,C4,129.5,0.5,64,85.5
999,C5,129.5,0.5,64,85.5
1000,A2,129.75,0.25,43,85.5
1001,B-1,130.0,0.25,43,85.5
1002,C#4,130.0,0.5,45,85.5
1003,C#5,130.0,0.5,45,85.5
1004,B-2,130.25,1.25,29,85.5
1005,B-3,130.5,0.125,35,85.5
1006,D4,130.5,0.625,42,85.5
1007,D5,130.5,0.625,42,85.5
1008,B-3,130.75,0.125,29,85.5
1009,B-3,131.0,0.125,40,85.5
1010,B-4,131.125,0.125,59,85.5
1011,A4,131.25,0.125,61,85.5
1012,B-3,131.25,0.125,35,85.5
1013,B-4,131.375,0.125,62,85.5
1014,B4,131.5,0.125,62,85.5
1015,G#3,131.5,0.5,43,85.5
1016,C5,131.625,0.125,64,85.5
1017,C#5,131.75,0.125,65,85.5
1018,B-3,131.75,0.25,39,85.5
1019,D5,131.875,0.125,67,85.5
1020,E-5,132.0,0.125,69,85.5
1021,G3,132.0,0.5,52,85.5
1022,E5,132.125,0.125,70,85.5
1023,F5,132.25,0.125,71,85.5
1024,B-3,132.25,0.25,46,85.5
1025,F#5,132.375,0.125,73,85.5
1026,G5,132.5,0.125,74,85.5
1027,E-3,132.5,0.5,56,85.5
1028,G#5,132.625,0.125,76,85.5
1029,A5,132.75,0.125,78,85.5
1030,E-4,132.75,0.25,51,85.5
1031,B-5,132.875,0.125,78,85.5
1032,B-4,133.0,0.1,53,85.5
1033,F3,133.0,0.479,35,85.5
1034,C5,133.1,0.1,48,85.5
1035,B-4,133.2,0.1,45,85.5
1036,D4,133.25,0.25,29,85.5
1037,A4,133.3,0.1,45,85.5
1038,B-4,133.4,0.1,45,85.5
1039,E-4,133.5,0.5,42,85.5
1040,D5,133.5,0.375,52,85.5
1041,F3,133.5,0.5,35,85.5
1042,A3,133.75,0.25,29,85.5
1043,C5,133.875,0.125,41,85.5
1044,D4,134.0,0.5,46,85.5
1045,B-4,134.0,0.5,46,85.5
1046,B-2,134.0,0.5,36,85.5
1047,B-3,134.0,0.5,36,85.5
1048,F3,135.0,1.0,88,85.5
1049,C#4,135.0,1.0,88,85.5
1050,B-2,135.0,1.0,65,85.5
1051,C#3,135.0,1.0,65,85.5
1052,F#3,136.0,1.0,85,85.5
1053,B3,136.0,0.75,96,85.5
1054,E-2,136.0,1.5,53,85.5
1055,B2,136.0,0.75,64,85.5
1056,C#4,136.75,0.125,70,85.5
1057,C#3,136.75,0.125,64,85.5
1058,E-4,136.875,0.125,71,85.5
1059,E-3,136.875,0.125,64,85.5
1060,F#3,137.0,0.5,81,85.5
1061,F#2,137.0,0.5,58,85.5
1062,E-3,137.5,0.5,70,85.5
1063,A3,137.5,0.5,70,85.5
1064,F2,137.5,0.5,53,85.5
1065,A2,137.5,0.5,53,85.5
1066,C#3,138.0,1.0,67,85.5
1067,B-3,138.0,0.5,79,85.5
1068,B-1,138.0,0.75,65,85.5
1069,B-2,138.0,0.75,65,85.5
1070,F3,138.5,0.25,65,85.5
1071,F3,139.0,1.0,88,85.5
1072,C#4,139.0,1.0,88,85.5
1073,B-2,139.0,1.0,65,85.5
1074,C#3,139.0,1.0,65,85.5
1075,G3,140.0,1.0,96,85.5
1076,C4,140.0,1.0,96,85.5
1077,E2,140.0,1.0,71,85.5
1078,C3,140.0,1.0,71,85.5
1079,C4,141.0,1.0,96,85.5
1080,B-4,141.0,1.0,96,85.5
1081,E3,141.0,1.0,71,85.5
1082,G3,141.0,1.0,71,85.5
1083,C4,142.0,0.25,88,85.5
1084,G#4,142.0,0.25,88,85.5
1085,F3,142.0,0.25,65,85.5
1086,G#3,142.0,0.25,65,85.5
1087,F4,142.5,1.0,91,85.5
1088,G#4,142.5,1.0,91,85.5
1089,F5,142.5,1.0,91,85.5
1090,B2,142.5,0.25,70,85.5
1091,B3,142.5,0.25,70,85.5
1092,C3,143.0,0.25,65,85.5
1093,C4,143.0,0.25,65,85.5
1094,E4,143.5,0.25,86,85.5
1095,G4,143.5,0.25,86,85.5
1096,E5,143.5,0.25,86,85.5
1097,C2,143.5,0.25,65,85.5
1098,C3,143.5,0.25,65,85.5
1099,F4,144.0,0.25,91,85.5
1100,G#4,144.0,0.25,91,85.5
1101,F5,144.0,0.25,91,85.5
1102,F2,144.0,0.25,76,85.5
1103,F3,144.0,0.25,76,85.5
1104,C4,144.25,0.138,36,85.5
1105,E2,144.25,0.125,33,85.5
1106,G2,144.25,0.125,33,85.5
1107,B-3,144.375,0.125,31,85.5
1108,C4,144.5,0.138,36,85.5
1109,F2,144.5,0.125,33,85.5
1110,G#2,144.5,0.125,33,85.5
1111,G#3,144.625,0.125,32,85.5
1112,C4,144.75,0.138,36,85.5
1113,G2,144.75,0.125,33,85.5
1114,B-2,144.75,0.125,33,85.5
1115,G3,144.875,0.125,31,85.5
1116,C4,145.0,0.138,42,85.5
1117,G#2,145.0,0.125,37,85.5
1118,C3,145.0,0.125,37,85.5
1119,F3,145.125,0.125,31,85.5
1120,C4,145.25,0.138,36,85.5
1121,B-2,145.25,0.125,32,85.5
1122,C#3,145.25,0.125,32,85.5
1123,E3,145.375,0.125,31,85.5
1124,C4,145.5,0.138,36,85.5
1125,G#2,145.5,0.125,32,85.5
1126,C3,145.5,0.125,32,85.5
1127,F3,145.625,0.125,30,85.5
1128,C4,145.75,0.138,36,85.5
1129,G2,145.75,0.125,32,85.5
1130,B-2,145.75,0.125,32,85.5
1131,G3,145.875,0.125,31,85.5
1132,C4,146.0,0.138,45,85.5
1133,F2,146.0,0.125,37,85.5
1134,G#2,146.0,0.125,37,85.5
1135,G#3,146.125,0.125,31,85.5
1136,F4,146.25,0.138,36,85.5
1137,A2,146.25,0.125,33,85.5
1138,C3,146.25,0.125,33,85.5
1139,E-4,146.375,0.125,31,85.5
1140,F4,146.5,0.138,36,85.5
1141,B-2,146.5,0.125,33,85.5
1142,C#3,146.5,0.125,33,85.5
1143,C#4,146.625,0.125,32,85.5
1144,F4,146.75,0.138,36,85.5
1145,E-3,146.75,0.125,33,85.5
1146,C3,146.75,0.125,33,85.5
1147,C4,146.875,0.125,31,85.5
1148,F4,147.0,0.138,42,85.5
1149,F3,147.0,0.125,37,85.5
1150,C#3,147.0,0.125,37,85.5
1151,B-3,147.125,0.125,31,85.5
1152,F4,147.25,0.138,36,85.5
1153,E-3,147.25,0.125,33,85.5
1154,F#3,147.25,0.125,33,85.5
1155,A3,147.375,0.125,31,85.5
1156,F4,147.5,0.138,36,85.5
1157,C#3,147.5,0.125,33,85.5
1158,F3,147.5,0.125,33,85.5
1159,B-3,147.625,0.125,30,85.5
1160,F4,147.75,0.138,36,85.5
1161,C3,147.75,0.125,33,85.5
1162,E-3,147.75,0.125,33,85.5
1163,C4,147.875,0.125,31,85.5
1164,F4,148.0,0.138,49,85.5
1165,B-2,148.0,0.125,42,85.5
1166,C#3,148.0,0.125,42,85.5
1167,C#4,148.125,0.125,34,85.5
1168,F4,148.25,0.138,39,85.5
1169,B-2,148.25,0.125,33,85.5
1170,C#3,148.25,0.125,33,85.5
1171,C#4,148.375,0.125,34,85.5
1172,G4,148.5,0.138,39,85.5
1173,B2,148.5,0.125,33,85.5
1174,D3,148.5,0.125,33,85.5
1175,F4,148.625,0.125,35,85.5
1176,G4,148.75,0.138,39,85.5
1177,B2,148.75,0.125,33,85.5
1178,D3,148.75,0.125,33,85.5
1179,F4,148.875,0.125,34,85.5
1180,G#4,149.0,0.138,46,85.5
1181,C3,149.0,0.125,43,85.5
1182,F3,149.0,0.125,43,85.5
1183,F4,149.125,0.125,34,85.5
1184,G#4,149.25,0.138,39,85.5
1185,C3,149.25,0.125,35,85.5
1186,F3,149.25,0.125,35,85.5
1187,F4,149.375,0.125,34,85.5
1188,B-4,149.5,0.138,39,85.5
1189,C3,149.5,0.125,35,85.5
1190,G3,149.5,0.125,35,85.5
1191,E4,149.625,0.125,33,85.5
1192,B-4,149.75,0.138,39,85.5
1193,C3,149.75,0.125,35,85.5
1194,G3,149.75,0.125,35,85.5
1195,E4,149.875,0.125,34,85.5
1196,F4,150.0,0.25,78,85.5
1197,F3,150.0,0.25,66,85.5
1198,G#3,150.0,0.25,66,85.5
1199,C4,150.25,0.125,39,85.5
1200,C5,150.25,0.125,39,85.5
1201,E2,150.25,0.125,39,85.5
1202,E3,150.25,0.125,39,85.5
1203,B-4,150.375,0.125,37,85.5
1204,C4,150.5,0.125,40,85.5
1205,C5,150.5,0.125,40,85.5
1206,F2,150.5,0.125,40,85.5
1207,F3,150.5,0.125,40,85.5
1208,G#4,150.625,0.125,39,85.5
1209,C4,150.75,0.125,40,85.5
1210,C5,150.75,0.125,40,85.5
1211,G2,150.75,0.125,40,85.5
1212,G3,150.75,0.125,40,85.5
1213,G4,150.875,0.125,39,85.5
1214,C4,151.0,0.125,48,85.5
1215,C5,151.0,0.125,48,85.5
1216,G#2,151.0,0.125,46,85.5
1217,G#3,151.0,0.125,46,85.5
1218,F4,151.125,0.125,39,85.5
1219,C4,151.25,0.125,42,85.5
1220,C5,151.25,0.125,42,85.5
1221,B-2,151.25,0.125,41,85.5
1222,B-3,151.25,0.125,41,85.5
1223,E4,151.375,0.125,39,85.5
1224,C4,151.5,0.125,43,85.5
1225,C5,151.5,0.125,43,85.5
1226,G#2,151.5,0.125,42,85.5
1227,G#3,151.5,0.125,42,85.5
1228,F4,151.625,0.125,40,85.5
1229,C4,151.75,0.125,44,85.5
1230,C5,151.75,0.125,44,85.5
1231,G2,151.75,0.125,42,85.5
1232,G3,151.75,0.125,42,85.5
1233,G4,151.875,0.125,41,85.5
1234,C4,152.0,0.125,56,85.5
1235,C5,152.0,0.125,56,85.5
1236,F2,152.0,0.125,50,85.5
1237,F3,152.0,0.125,50,85.5
1238,G#4,152.125,0.125,42,85.5
1239,F4,152.25,0.125,46,85.5
1240,F5,152.25,0.125,46,85.5
1241,A2,152.25,0.125,46,85.5
1242,A3,152.25,0.125,46,85.5
1243,E-5,152.375,0.125,43,85.5
1244,F4,152.5,0.125,46,85.5
1245,F5,152.5,0.125,46,85.5
1246,B-2,152.5,0.125,46,85.5
1247,B-3,152.5,0.125,46,85.5
1248,C#5,152.625,0.125,46,85.5
1249,F4,152.75,0.125,47,85.5
1250,F5,152.75,0.125,47,85.5
1251,C4,152.75,0.125,47,85.5
1252,C3,152.75,0.125,47,85.5
1253,C5,152.875,0.125,45,85.5
1254,F4,153.0,0.125,56,85.5
1255,F5,153.0,0.125,56,85.5
1256,C#4,153.0,0.125,54,85.5
1257,C#3,153.0,0.125,54,85.5
1258,B-4,153.125,0.125,45,85.5
1259,F4,153.25,0.125,49,85.5
1260,F5,153.25,0.125,49,85.5
1261,E-3,153.25,0.125,49,85.5
1262,E-4,153.25,0.125,49,85.5
1263,A4,153.375,0.125,47,85.5
1264,F4,153.5,0.125,49,85.5
1265,F5,153.5,0.125,49,85.5
1266,C#3,153.5,0.125,49,85.5
1267,C#4,153.5,0.125,49,85.5
1268,B-4,153.625,0.125,46,85.5
1269,F4,153.75,0.125,51,85.5
1270,F5,153.75,0.125,51,85.5
1271,C3,153.75,0.125,51,85.5
1272,C4,153.75,0.125,51,85.5
1273,C5,153.875,0.125,47,85.5
1274,F4,154.0,0.125,70,85.5
1275,F5,154.0,0.125,70,85.5
1276,B-2,154.0,0.125,66,85.5
1277,B-3,154.0,0.125,66,85.5
1278,C#5,154.125,0.125,54,85.5
1279,F4,154.25,0.125,57,85.5
1280,F5,154.25,0.125,57,85.5
1281,B-3,154.25,0.125,52,85.5
1282,C#4,154.25,0.125,52,85.5
1283,C#5,154.375,0.125,54,85.5
1284,G4,154.5,0.125,58,85.5
1285,G5,154.5,0.125,58,85.5
1286,B3,154.5,0.125,53,85.5
1287,D4,154.5,0.125,53,85.5
1288,F5,154.625,0.125,57,85.5
1289,G4,154.75,0.125,58,85.5
1290,G5,154.75,0.125,58,85.5
1291,B3,154.75,0.125,53,85.5
1292,D4,154.75,0.125,53,85.5
1293,F5,154.875,0.125,56,85.5
1294,G#4,155.0,0.125,70,85.5
1295,G#5,155.0,0.125,70,85.5
1296,C4,155.0,0.125,72,85.5
1297,F4,155.0,0.125,72,85.5
1298,F5,155.125,0.125,57,85.5
1299,G#4,155.25,0.125,61,85.5
1300,G#5,155.25,0.125,61,85.5
1301,C4,155.25,0.125,59,85.5
1302,F4,155.25,0.125,59,85.5
1303,F5,155.375,0.125,58,85.5
1304,B-4,155.5,0.125,62,85.5
1305,B-5,155.5,0.125,62,85.5
1306,C4,155.5,0.125,60,85.5
1307,G4,155.5,0.125,60,85.5
1308,E5,155.625,0.125,57,85.5
1309,B-4,155.75,0.125,63,85.5
1310,B-5,155.75,0.125,63,85.5
1311,C4,155.75,0.125,62,85.5
1312,G4,155.75,0.125,62,85.5
1313,E5,155.875,0.125,60,85.5
1314,F5,156.0,0.25,94,85.5
1315,F3,156.0,0.125,56,85.5
1316,G#3,156.0,0.125,56,85.5
1317,C4,156.0,0.125,56,85.5
1318,F4,156.0,0.125,56,85.5
1319,F6,156.25,0.5,93,85.5
1320,F3,156.25,0.125,56,85.5
1321,G#3,156.25,0.125,56,85.5
1322,C4,156.25,0.125,56,85.5
1323,F4,156.25,0.125,56,85.5
1324,F3,156.5,0.125,49,85.5
1325,G#3,156.5,0.125,49,85.5
1326,C4,156.5,0.125,49,85.5
1327,F4,156.5,0.125,49,85.5
1328,F6,156.75,0.25,89,85.5
1329,F3,156.75,0.125,49,85.5
1330,G#3,156.75,0.125,49,85.5
1331,C4,156.75,0.125,49,85.5
1332,F4,156.75,0.125,49,85.5
1333,E6,157.0,0.125,90,85.5
1334,F3,157.0,0.125,51,85.5
1335,G3,157.0,0.125,51,85.5
1336,B-3,157.0,0.125,51,85.5
1337,C4,157.0,0.125,51,85.5
1338,E4,157.0,0.125,51,85.5
1339,C#6,157.125,0.125,73,85.5
1340,B-5,157.25,0.125,78,85.5
1341,F3,157.25,0.125,44,85.5
1342,G3,157.25,0.125,44,85.5
1343,B-3,157.25,0.125,44,85.5
1344,C4,157.25,0.125,44,85.5
1345,E4,157.25,0.125,44,85.5
1346,G5,157.375,0.125,74,85.5
1347,E5,157.5,0.25,67,85.5
1348,C#5,157.5,0.125,56,85.5
1349,F3,157.5,0.125,44,85.5
1350,G3,157.5,0.125,44,85.5
1351,B-3,157.5,0.125,44,85.5
1352,C4,157.5,0.125,44,85.5
1353,E4,157.5,0.125,44,85.5
1354,C5,157.625,0.125,61,85.5
1355,E5,157.75,0.25,61,85.5
1356,C#5,157.75,0.125,51,85.5
1357,F3,157.75,0.125,44,85.5
1358,G3,157.75,0.125,44,85.5
1359,B-3,157.75,0.125,44,85.5
1360,C4,157.75,0.125,44,85.5
1361,E4,157.75,0.125,44,85.5
1362,B-4,157.875,0.125,60,85.5
1363,F5,158.0,0.229,80,85.5
1364,G#4,158.0,0.229,80,85.5
1365,F2,158.0,0.125,56,85.5
1366,G#2,158.0,0.125,56,85.5
1367,C3,158.0,0.125,56,85.5
1368,F3,158.0,0.125,56,85.5
1369,F5,158.25,0.5,93,85.5
1370,F2,158.25,0.125,56,85.5
1371,G#2,158.25,0.125,56,85.5
1372,C3,158.25,0.125,56,85.5
1373,F3,158.25,0.125,56,85.5
1374,F2,158.5,0.125,49,85.5
1375,G#2,158.5,0.125,49,85.5
1376,C3,158.5,0.125,49,85.5
1377,F3,158.5,0.125,49,85.5
1378,F5,158.75,0.25,89,85.5
1379,F2,158.75,0.125,49,85.5
1380,G#2,158.75,0.125,49,85.5
1381,C3,158.75,0.125,49,85.5
1382,F3,158.75,0.125,49,85.5
1383,E5,159.0,0.125,90,85.5
1384,F2,159.0,0.125,51,85.5
1385,G2,159.0,0.125,51,85.5
1386,B-2,159.0,0.125,51,85.5
1387,C3,159.0,0.125,51,85.5
1388,E3,159.0,0.125,51,85.5
1389,C#5,159.125,0.125,75,85.5
1390,B-4,159.25,0.125,78,85.5
1391,F2,159.25,0.125,44,85.5
1392,G2,159.25,0.125,44,85.5
1393,B-2,159.25,0.125,44,85.5
1394,C3,159.25,0.125,44,85.5
1395,E3,159.25,0.125,44,85.5
1396,G4,159.375,0.125,74,85.5
1397,E4,159.5,0.25,67,85.5
1398,C#4,159.5,0.125,56,85.5
1399,F2,159.5,0.125,44,85.5
1400,G2,159.5,0.125,44,85.5
1401,B-2,159.5,0.125,44,85.5
1402,C3,159.5,0.125,44,85.5
1403,E3,159.5,0.125,44,85.5
1404,C4,159.625,0.125,61,85.5
1405,E4,159.75,0.25,61,85.5
1406,C#4,159.75,0.125,51,85.5
1407,F2,159.75,0.125,44,85.5
1408,G2,159.75,0.125,44,85.5
1409,B-2,159.75,0.125,44,85.5
1410,C3,159.75,0.125,44,85.5
1411,E3,159.75,0.125,44,85.5
1412,B-3,159.875,0.125,60,85.5
1413,G#3,160.0,0.5,76,85.5
1414,F4,160.0,0.5,76,85.5
1415,F2,160.0,1.0,56,85.5
1416,F3,160.0,1.0,56,85.5
1417,G#2,161.0,1.0,79,85.5
1418,G2,162.0,0.75,83,85.5
1419,B-3,162.5,1.125,88,85.5
1420,G#2,162.75,0.125,70,85.5
1421,B-2,162.875,0.125,70,85.5
1422,D2,163.0,0.25,85,85.5
1423,E2,163.5,0.25,80,85.5
1424,C#4,163.625,0.125,71,85.5
1425,C4,163.75,0.125,71,85.5
1426,B-3,163.875,0.125,64,85.5
1427,G#3,164.0,0.5,81,85.5
1428,F2,164.0,0.25,90,85.5
1429,F3,164.5,0.5,73,85.5
1430,C#3,165.0,1.0,79,85.5
1431,C3,166.0,0.75,83,85.5
1432,E-4,166.5,1.125,88,85.5
1433,C#3,166.75,0.125,70,85.5
1434,E-3,166.875,0.125,70,85.5
1435,G2,167.0,0.25,85,85.5
1436,A2,167.5,0.25,80,85.5
1437,F#4,167.625,0.125,71,85.5
1438,F4,167.75,0.125,71,85.5
1439,E-4,167.875,0.125,64,85.5
1440,C#4,168.0,0.5,81,85.5
1441,B-2,168.0,0.25,90,85.5
1442,B-3,168.5,0.5,73,85.5
1443,C#5,169.0,1.0,79,85.5
1444,E-4,170.0,1.625,72,85.5
1445,C5,170.0,0.75,83,85.5
1446,C#5,170.75,0.125,70,85.5
1447,E-5,170.875,0.125,70,85.5
1448,G4,171.0,0.25,85,85.5
1449,F3,171.0,1.0,80,85.5
1450,A4,171.5,0.25,80,85.5
1451,F#4,171.625,0.125,71,85.5
1452,F4,171.75,0.125,71,85.5
1453,E-4,171.875,0.125,64,85.5
1454,C#4,172.0,0.5,81,85.5
1455,B-4,172.0,1.0,81,85.5
1456,B-2,172.0,0.5,90,85.5
1457,B-3,172.5,0.5,73,85.5
1458,F#5,173.0,1.0,79,85.5
1459,G#4,174.0,1.625,72,85.5
1460,F5,174.0,0.75,83,85.5
1461,F#5,174.75,0.125,70,85.5
1462,G#5,174.875,0.125,70,85.5
1463,C5,175.0,0.25,85,85.5
1464,B-3,175.0,1.0,80,85.5
1465,D5,175.5,0.25,80,85.5
1466,B4,175.625,0.125,71,85.5
1467,B-4,175.75,0.125,71,85.5
1468,G#4,175.875,0.125,64,85.5
1469,F#4,176.0,0.5,81,85.5
1470,E-5,176.0,1.0,81,85.5
1471,E-3,176.0,0.5,90,85.5
1472,E-4,176.5,0.5,73,85.5
1473,B-3,177.0,1.0,73,85.5
1474,F#3,177.0,1.0,73,85.5
1475,G#3,178.0,0.75,76,85.5
1476,F3,178.0,0.75,76,85.5
1477,B5,178.5,1.25,86,85.5
1478,G#5,178.5,1.25,86,85.5
1479,F#3,178.75,0.138,64,85.5
1480,B-3,178.75,0.138,64,85.5
1481,G#3,178.875,0.138,64,85.5
1482,B3,178.875,0.138,64,85.5
1483,C3,179.0,0.25,78,85.5
1484,E-3,179.0,0.25,78,85.5
1485,D3,179.5,0.25,74,85.5
1486,F3,179.5,0.25,74,85.5
1487,F#5,179.75,0.138,74,85.5
1488,B-5,179.75,0.138,74,85.5
1489,F5,179.875,0.138,68,85.5
1490,G#5,179.875,0.138,68,85.5
1491,E-5,180.0,0.25,90,85.5
1492,F#5,180.0,0.25,90,85.5
1493,F#3,180.0,0.75,76,85.5
1494,E-3,180.0,0.75,76,85.5
1495,B-5,180.5,1.25,86,85.5
1496,F#5,180.5,1.25,86,85.5
1497,F3,180.75,0.138,64,85.5
1498,G#3,180.75,0.138,64,85.5
1499,F#3,180.875,0.138,64,85.5
1500,B-3,180.875,0.138,64,85.5
1501,B-2,181.0,0.25,78,85.5
1502,C#3,181.0,0.25,78,85.5
1503,C3,181.5,0.25,74,85.5
1504,E-3,181.5,0.25,74,85.5
1505,F5,181.75,0.138,74,85.5
1506,G#5,181.75,0.138,74,85.5
1507,E-5,181.875,0.138,68,85.5
1508,F#5,181.875,0.138,68,85.5
1509,F5,182.0,0.75,84,85.5
1510,C#5,182.0,0.75,84,85.5
1511,C#3,182.0,0.25,80,85.5
1512,F3,182.0,0.25,80,85.5
1513,G#3,182.5,1.25,76,85.5
1514,F3,182.5,1.25,76,85.5
1515,E-5,182.75,0.138,70,85.5
1516,F#5,182.75,0.138,70,85.5
1517,F5,182.875,0.138,70,85.5
1518,G#5,182.875,0.138,70,85.5
1519,G#4,183.0,0.25,86,85.5
1520,C5,183.0,0.25,86,85.5
1521,B-4,183.5,0.25,81,85.5
1522,C#5,183.5,0.25,81,85.5
1523,E-3,183.75,0.138,66,85.5
1524,F#3,183.75,0.138,66,85.5
1525,C#3,183.875,0.138,62,85.5
1526,F3,183.875,0.138,62,85.5
1527,E-5,184.0,0.75,84,85.5
1528,C5,184.0,0.75,84,85.5
1529,C3,184.0,0.25,80,85.5
1530,E-3,184.0,0.25,80,85.5
1531,F#4,184.5,1.25,76,85.5
1532,E-4,184.5,1.25,76,85.5
1533,C#5,184.75,0.138,70,85.5
1534,F5,184.75,0.138,70,85.5
1535,E-5,184.875,0.138,70,85.5
1536,F#5,184.875,0.138,70,85.5
1537,G4,185.0,0.25,86,85.5
1538,B-4,185.0,0.25,86,85.5
1539,A4,185.5,0.25,81,85.5
1540,C5,185.5,0.25,81,85.5
1541,C#4,185.75,0.138,66,85.5
1542,F4,185.75,0.138,66,85.5
1543,C4,185.875,0.138,62,85.5
1544,E-4,185.875,0.138,62,85.5
1545,C#5,186.0,0.75,91,85.5
1546,B-4,186.0,1.0,77,85.5
1547,C#4,186.0,0.75,76,85.5
1548,B-3,186.0,0.75,76,85.5
1549,E-5,186.75,0.125,77,85.5
1550,G#3,186.75,0.25,64,85.5
1551,C4,186.75,0.25,64,85.5
1552,F5,186.875,0.125,77,85.5
1553,F#5,187.0,0.75,91,85.5
1554,B-4,187.0,1.0,77,85.5
1555,B-3,187.0,0.75,76,85.5
1556,F#3,187.0,0.75,76,85.5
1557,G#5,187.75,0.125,77,85.5
1558,F3,187.75,0.25,64,85.5
1559,G#3,187.75,0.25,64,85.5
1560,B-5,187.875,0.125,77,85.5
1561,B5,188.0,0.75,91,85.5
1562,F#5,188.0,1.0,77,85.5
1563,F#3,188.0,0.5,83,85.5
1564,E-3,188.0,1.0,70,85.5
1565,E-4,188.5,0.5,70,85.5
1566,C#6,188.75,0.125,77,85.5
1567,E-6,188.875,0.125,77,85.5
1568,F4,189.0,0.25,84,85.5
1569,B-4,189.0,0.25,84,85.5
1570,F3,189.0,0.25,76,85.5
1571,C#4,189.0,0.25,76,85.5
1572,E-4,189.5,0.25,81,85.5
1573,A4,189.5,0.25,81,85.5
1574,C4,189.5,0.25,73,85.5
1575,F3,189.5,0.25,73,85.5
1576,C#4,190.0,0.25,82,85.5
1577,B-4,190.0,0.25,82,85.5
1578,B-2,190.0,0.25,66,85.5
1579,B-3,190.0,0.25,66,85.5
1580,F4,190.25,0.138,36,85.5
1581,A2,190.25,0.125,33,85.5
1582,C3,190.25,0.125,33,85.5
1583,E-4,190.375,0.125,31,85.5
1584,F4,190.5,0.138,36,85.5
1585,B-2,190.5,0.125,33,85.5
1586,C#3,190.5,0.125,33,85.5
1587,C#4,190.625,0.125,32,85.5
1588,F4,190.75,0.138,36,85.5
1589,C3,190.75,0.125,33,85.5
1590,E-3,190.75,0.125,33,85.5
1591,C4,190.875,0.125,31,85.5
1592,F4,191.0,0.138,42,85.5
1593,C#3,191.0,0.125,37,85.5
1594,F3,191.0,0.125,37,85.5
1595,B-3,191.125,0.125,31,85.5
1596,F4,191.25,0.138,36,85.5
1597,E-3,191.25,0.125,32,85.5
1598,F#3,191.25,0.125,32,85.5
1599,A3,191.375,0.125,31,85.5
1600,F4,191.5,0.138,36,85.5
1601,C#3,191.5,0.125,32,85.5
1602,F3,191.5,0.125,32,85.5
1603,B-3,191.625,0.125,30,85.5
1604,F4,191.75,0.138,36,85.5
1605,C3,191.75,0.125,32,85.5
1606,E-3,191.75,0.125,32,85.5
1607,C4,191.875,0.125,31,85.5
1608,F4,192.0,0.138,45,85.5
1609,B-2,192.0,0.125,37,85.5
1610,C#3,192.0,0.125,37,85.5
1611,C#4,192.125,0.125,31,85.5
1612,B-4,192.25,0.138,36,85.5
1613,D3,192.25,0.125,33,85.5
1614,F3,192.25,0.125,33,85.5
1615,G#4,192.375,0.125,31,85.5
1616,B-4,192.5,0.138,36,85.5
1617,E-3,192.5,0.125,33,85.5
1618,F#3,192.5,0.125,33,85.5
1619,F#4,192.625,0.125,32,85.5
1620,B-4,192.75,0.138,36,85.5
1621,G#3,192.75,0.125,33,85.5
1622,F3,192.75,0.125,33,85.5
1623,F4,192.875,0.125,31,85.5
1624,B-4,193.0,0.138,42,85.5
1625,B-3,193.0,0.125,37,85.5
1626,F#3,193.0,0.125,37,85.5
1627,E-4,193.125,0.125,31,85.5
1628,B-4,193.25,0.138,36,85.5
1629,G#3,193.25,0.125,33,85.5
1630,B3,193.25,0.125,33,85.5
1631,D4,193.375,0.125,31,85.5
1632,B-4,193.5,0.138,36,85.5
1633,F#3,193.5,0.125,33,85.5
1634,B-3,193.5,0.125,33,85.5
1635,E-4,193.625,0.125,30,85.5
1636,B-4,193.75,0.138,36,85.5
1637,F3,193.75,0.125,33,85.5
1638,G#3,193.75,0.125,33,85.5
1639,F4,193.875,0.125,31,85.5
1640,B-4,194.0,0.138,49,85.5
1641,E-3,194.0,0.125,42,85.5
1642,F#3,194.0,0.125,42,85.5
1643,F#4,194.125,0.125,34,85.5
1644,B-4,194.25,0.138,39,85.5
1645,E-3,194.25,0.125,33,85.5
1646,F#3,194.25,0.125,33,85.5
1647,F#4,194.375,0.125,34,85.5
1648,C5,194.5,0.138,39,85.5
1649,E3,194.5,0.125,33,85.5
1650,G3,194.5,0.125,33,85.5
1651,B-4,194.625,0.125,35,85.5
1652,C5,194.75,0.138,39,85.5
1653,E3,194.75,0.125,33,85.5
1654,G3,194.75,0.125,33,85.5
1655,B-4,194.875,0.125,34,85.5
1656,C#5,195.0,0.138,46,85.5
1657,F3,195.0,0.125,43,85.5
1658,B-3,195.0,0.125,43,85.5
1659,B-4,195.125,0.125,34,85.5
1660,C#5,195.25,0.138,39,85.5
1661,F3,195.25,0.125,35,85.5
1662,B-3,195.25,0.125,35,85.5
1663,B-4,195.375,0.125,34,85.5
1664,E-5,195.5,0.138,39,85.5
1665,F3,195.5,0.125,35,85.5
1666,C4,195.5,0.125,35,85.5
1667,A4,195.625,0.125,33,85.5
1668,E-5,195.75,0.138,39,85.5
1669,F3,195.75,0.125,35,85.5
1670,C4,195.75,0.125,35,85.5
1671,A4,195.875,0.125,34,85.5
1672,B-4,196.0,0.25,74,85.5
1673,B-2,196.0,0.25,64,85.5
1674,B-3,196.0,0.25,64,85.5
1675,F5,196.25,0.138,44,85.5
1676,F4,196.25,0.138,44,85.5
1677,A2,196.25,0.125,44,85.5
1678,A3,196.25,0.125,44,85.5
1679,E-5,196.375,0.125,42,85.5
1680,F4,196.5,0.125,44,85.5
1681,F5,196.5,0.125,44,85.5
1682,B-2,196.5,0.125,44,85.5
1683,B-3,196.5,0.125,44,85.5
1684,C#5,196.625,0.125,43,85.5
1685,F4,196.75,0.125,45,85.5
1686,F5,196.75,0.125,45,85.5
1687,C3,196.75,0.125,45,85.5
1688,C4,196.75,0.125,45,85.5
1689,C5,196.875,0.125,45,85.5
1690,F5,197.0,0.138,54,85.5
1691,F4,197.0,0.138,54,85.5
1692,C#3,197.0,0.125,52,85.5
1693,C#4,197.0,0.125,52,85.5
1694,B-4,197.125,0.125,45,85.5
1695,F4,197.25,0.125,49,85.5
1696,F5,197.25,0.125,49,85.5
1697,E-3,197.25,0.125,47,85.5
1698,E-4,197.25,0.125,47,85.5
1699,A4,197.375,0.125,45,85.5
1700,F4,197.5,0.125,49,85.5
1701,F5,197.5,0.125,49,85.5
1702,C#3,197.5,0.125,48,85.5
1703,C#4,197.5,0.125,48,85.5
1704,B-4,197.625,0.125,45,85.5
1705,F5,197.75,0.138,51,85.5
1706,F4,197.75,0.138,51,85.5
1707,C3,197.75,0.125,48,85.5
1708,C4,197.75,0.125,48,85.5
1709,C5,197.875,0.125,47,85.5
1710,F4,198.0,0.125,66,85.5
1711,F5,198.0,0.125,66,85.5
1712,B-2,198.0,0.125,59,85.5
1713,B-3,198.0,0.125,59,85.5
1714,C#5,198.125,0.125,48,85.5
1715,B-4,198.25,0.125,53,85.5
1716,B-5,198.25,0.125,53,85.5
1717,D3,198.25,0.125,53,85.5
1718,D4,198.25,0.125,53,85.5
1719,G#5,198.375,0.125,50,85.5
1720,B-4,198.5,0.125,54,85.5
1721,B-5,198.5,0.125,54,85.5
1722,E-3,198.5,0.125,54,85.5
1723,E-4,198.5,0.125,54,85.5
1724,F#5,198.625,0.125,55,85.5
1725,B-5,198.75,0.138,56,85.5
1726,B-4,198.75,0.138,56,85.5
1727,F4,198.75,0.125,56,85.5
1728,F3,198.75,0.125,56,85.5
1729,F5,198.875,0.125,54,85.5
1730,B-4,199.0,0.125,68,85.5
1731,B-5,199.0,0.125,68,85.5
1732,F#4,199.0,0.125,64,85.5
1733,F#3,199.0,0.125,64,85.5
1734,E-5,199.125,0.125,54,85.5
1735,B-5,199.25,0.138,60,85.5
1736,B-4,199.25,0.138,60,85.5
1737,G#3,199.25,0.125,60,85.5
1738,G#4,199.25,0.125,60,85.5
1739,D5,199.375,0.125,55,85.5
1740,B-4,199.5,0.125,60,85.5
1741,B-5,199.5,0.125,60,85.5
1742,F#3,199.5,0.125,60,85.5
1743,F#4,199.5,0.125,60,85.5
1744,E-5,199.625,0.125,55,85.5
1745,B-4,199.75,0.125,63,85.5
1746,B-5,199.75,0.125,63,85.5
1747,F3,199.75,0.125,63,85.5
1748,F4,199.75,0.125,63,85.5
1749,F5,199.875,0.125,58,85.5
1750,B-5,200.0,0.138,78,85.5
1751,B-4,200.0,0.138,78,85.5
1752,E-3,200.0,0.125,81,85.5
1753,E-4,200.0,0.125,81,85.5
1754,F#5,200.125,0.125,66,85.5
1755,B-4,200.25,0.125,69,85.5
1756,B-5,200.25,0.125,69,85.5
1757,E-4,200.25,0.125,64,85.5
1758,F#4,200.25,0.125,64,85.5
1759,F#5,200.375,0.125,68,85.5
1760,C5,200.5,0.125,72,85.5
1761,C6,200.5,0.125,72,85.5
1762,E4,200.5,0.125,66,85.5
1763,G4,200.5,0.125,66,85.5
1764,B-5,200.625,0.125,71,85.5
1765,C6,200.75,0.138,72,85.5
1766,C5,200.75,0.138,72,85.5
1767,E4,200.75,0.125,66,85.5
1768,G4,200.75,0.125,66,85.5
1769,B-5,200.875,0.125,71,85.5
1770,C#6,201.0,0.138,90,85.5
1771,C#5,201.0,0.138,90,85.5
1772,F4,201.0,0.125,82,85.5
1773,B-4,201.0,0.125,82,85.5
1774,B-5,201.125,0.125,71,85.5
1775,C#5,201.25,0.125,78,85.5
1776,C#6,201.25,0.125,78,85.5
1777,F4,201.25,0.125,74,85.5
1778,B-4,201.25,0.125,74,85.5
1779,B-5,201.375,0.125,74,85.5
1780,E-5,201.5,0.125,80,85.5
1781,E-6,201.5,0.125,80,85.5
1782,F4,201.5,0.125,78,85.5
1783,C5,201.5,0.125,78,85.5
1784,A5,201.625,0.125,73,85.5
1785,E-6,201.75,0.138,81,85.5
1786,E-5,201.75,0.138,81,85.5
1787,F4,201.75,0.125,78,85.5
1788,C5,201.75,0.125,78,85.5
1789,A5,201.875,0.125,77,85.5
1790,B-5,202.0,0.25,100,85.5
1791,B-3,202.0,0.125,69,85.5
1792,C#4,202.0,0.125,69,85.5
1793,F4,202.0,0.125,69,85.5
1794,B-4,202.0,0.125,69,85.5
1795,F6,202.25,0.5,97,85.5
1796,B-3,202.25,0.125,58,85.5
1797,C#4,202.25,0.125,58,85.5
1798,F4,202.25,0.125,58,85.5
1799,B-4,202.25,0.125,58,85.5
1800,B-3,202.5,0.125,51,85.5
1801,C#4,202.5,0.125,51,85.5
1802,F4,202.5,0.125,51,85.5
1803,B-4,202.5,0.125,51,85.5
1804,F6,202.75,0.25,93,85.5
1805,B-3,202.75,0.125,51,85.5
1806,C#4,202.75,0.125,51,85.5
1807,F4,202.75,0.125,51,85.5
1808,B-4,202.75,0.125,51,85.5
1809,E-6,203.0,0.125,94,85.5
1810,B-3,203.0,0.125,53,85.5
1811,C4,203.0,0.125,53,85.5
1812,E-4,203.0,0.125,53,85.5
1813,F4,203.0,0.125,53,85.5
1814,A4,203.0,0.125,53,85.5
1815,C6,203.125,0.125,74,85.5
1816,A5,203.25,0.125,81,85.5
1817,B-3,203.25,0.125,46,85.5
1818,C4,203.25,0.125,46,85.5
1819,E-4,203.25,0.125,46,85.5
1820,F4,203.25,0.125,46,85.5
1821,A4,203.25,0.125,46,85.5
1822,F5,203.375,0.125,77,85.5
1823,E-5,203.5,0.125,58,85.5
1824,B-3,203.5,0.125,46,85.5
1825,C4,203.5,0.125,46,85.5
1826,E-4,203.5,0.125,46,85.5
1827,F4,203.5,0.125,46,85.5
1828,A4,203.5,0.125,46,85.5
1829,D5,203.625,0.125,64,85.5
1830,E-5,203.75,0.125,53,85.5
1831,B-3,203.75,0.125,46,85.5
1832,C4,203.75,0.125,46,85.5
1833,E-4,203.75,0.125,46,85.5
1834,F4,203.75,0.125,46,85.5
1835,A4,203.75,0.125,46,85.5
1836,C5,203.875,0.125,63,85.5
1837,B-4,204.0,0.229,87,85.5
1838,B-2,204.0,0.125,58,85.5
1839,C#3,204.0,0.125,58,85.5
1840,F3,204.0,0.125,58,85.5
1841,B-3,204.0,0.125,58,85.5
1842,F5,204.25,0.5,97,85.5
1843,B-2,204.25,0.125,58,85.5
1844,C#3,204.25,0.125,58,85.5
1845,F3,204.25,0.125,58,85.5
1846,B-3,204.25,0.125,58,85.5
1847,B-2,204.5,0.125,51,85.5
1848,C#3,204.5,0.125,51,85.5
1849,F3,204.5,0.125,51,85.5
1850,B-3,204.5,0.125,51,85.5
1851,F5,204.75,0.25,93,85.5
1852,B-2,204.75,0.125,51,85.5
1853,C#3,204.75,0.125,51,85.5
1854,F3,204.75,0.125,51,85.5
1855,B-3,204.75,0.125,51,85.5
1856,E-5,205.0,0.125,94,85.5
1857,B-2,205.0,0.125,53,85.5
1858,C3,205.0,0.125,53,85.5
1859,E-3,205.0,0.125,53,85.5
1860,F3,205.0,0.125,53,85.5
1861,A3,205.0,0.125,53,85.5
1862,C5,205.125,0.125,73,85.5
1863,A4,205.25,0.125,81,85.5
1864,B-2,205.25,0.125,46,85.5
1865,C3,205.25,0.125,46,85.5
1866,E-3,205.25,0.125,46,85.5
1867,F3,205.25,0.125,46,85.5
1868,A3,205.25,0.125,46,85.5
1869,F4,205.375,0.125,74,85.5
1870,E-4,205.5,0.125,58,85.5
1871,B-2,205.5,0.125,46,85.5
1872,C3,205.5,0.125,46,85.5
1873,E-3,205.5,0.125,46,85.5
1874,F3,205.5,0.125,46,85.5
1875,A3,205.5,0.125,46,85.5
1876,D4,205.625,0.125,64,85.5
1877,E-4,205.75,0.125,53,85.5
1878,B-2,205.75,0.125,46,85.5
1879,C3,205.75,0.125,46,85.5
1880,E-3,205.75,0.125,46,85.5
1881,F3,205.75,0.125,46,85.5
1882,A3,205.75,0.125,46,85.5
1883,C4,205.875,0.125,63,85.5
1884,B-3,206.0,0.5,87,85.5
1885,B-2,206.0,1.25,64,85.5
1886,C#3,207.25,0.275,45,85.5
1887,E-3,207.5,0.275,50,85.5
1888,C#3,207.75,0.275,46,85.5
1889,B2,208.0,0.275,50,85.5
1890,B-2,208.25,0.275,46,85.5
1891,G#2,208.5,0.275,46,85.5
1892,F#2,208.75,0.275,46,85.5
1893,F2,209.0,0.5,50,85.5
1894,F#2,209.5,0.5,47,85.5
1895,E-4,210.0,1.0,36,85.5
1896,G2,210.0,0.5,53,85.5
1897,B-3,210.0,0.5,40,85.5
1898,C#4,210.0,0.5,40,85.5
1899,G#2,210.5,0.75,49,85.5
1900,G#3,210.5,0.5,37,85.5
1901,B3,210.5,0.5,37,85.5
1902,E-3,211.25,0.275,45,85.5
1903,E3,211.5,0.275,50,85.5
1904,E-3,211.75,0.275,46,85.5
1905,C#3,212.0,0.275,50,85.5
1906,B2,212.25,0.275,41,85.5
1907,B-2,212.5,0.275,46,85.5
1908,G#2,212.75,0.275,40,85.5
1909,G2,213.0,0.5,48,85.5
1910,G#2,213.5,0.5,40,85.5
1911,F#4,214.0,0.5,36,85.5
1912,A2,214.0,2.0,45,85.5
1913,E-4,214.0,2.0,30,85.5
1914,C4,214.0,2.0,30,85.5
1915,F4,214.5,0.729,34,85.5
1916,F4,215.25,0.275,34,85.5
1917,F#4,215.5,0.275,34,85.5
1918,F4,215.75,0.25,34,85.5
1919,F#4,216.0,0.5,36,85.5
1920,B-2,216.0,2.0,45,85.5
1921,E-4,216.0,2.0,30,85.5
1922,C4,216.0,2.0,30,85.5
1923,F4,216.5,0.729,34,85.5
1924,F4,217.25,0.275,34,85.5
1925,F#4,217.5,0.275,34,85.5
1926,F4,217.75,0.25,34,85.5
1927,F#4,218.0,0.75,36,85.5
1928,A2,218.0,0.5,45,85.5
1929,E-4,218.0,0.5,30,85.5
1930,C4,218.0,0.5,30,85.5
1931,F4,218.75,0.25,34,85.5
1932,F#4,219.0,0.75,36,85.5
1933,F4,219.75,0.25,29,85.5
1934,F#4,220.0,0.125,34,85.5
1935,F4,220.125,0.125,29,85.5
1936,F#4,220.25,0.125,34,85.5
1937,F4,220.375,0.125,29,85.5
1938,F#4,220.5,0.125,34,85.5
1939,F4,220.625,0.125,29,85.5
1940,F#4,220.75,0.125,34,85.5
1941,F4,220.875,0.125,30,85.5
1942,F#4,221.0,0.125,34,85.5
1943,F4,221.125,0.125,30,85.5
1944,F#4,221.25,0.125,34,85.5
1945,F4,221.375,0.125,29,85.5
1946,F#4,221.5,0.125,34,85.5
1947,F4,221.625,0.125,29,85.5
1948,F#4,221.75,0.125,34,85.5
1949,F4,221.875,0.125,31,85.5
1950,G4,222.0,0.125,34,85.5
1951,F4,222.125,0.125,29,85.5
1952,G4,222.25,0.125,35,85.5
1953,F4,222.375,0.125,30,85.5
1954,G4,222.5,0.125,36,85.5
1955,F4,222.625,0.125,31,85.5
1956,G4,222.75,0.125,37,85.5
1957,F4,222.875,0.125,33,85.5
1958,G4,223.0,0.125,39,85.5
1959,F4,223.125,0.125,34,85.5
1960,G4,223.25,0.125,40,85.5
1961,F4,223.375,0.125,34,85.5
1962,G4,223.5,0.125,41,85.5
1963,F4,223.625,0.125,35,85.5
1964,G4,223.75,0.125,42,85.5
1965,F4,223.875,0.125,39,85.5
1966,G3,224.0,0.25,38,85.5
1967,E-4,224.0,0.25,38,85.5
1968,F4,224.25,0.25,42,85.5
1969,F3,224.25,0.25,36,85.5
1970,D4,224.25,0.25,36,85.5
1971,F5,224.5,0.25,48,85.5
1972,E-3,224.5,0.25,36,85.5
1973,C4,224.5,0.25,36,85.5
1974,F4,224.75,0.25,42,85.5
1975,D3,224.75,0.25,36,85.5
1976,B-3,224.75,0.25,36,85.5
1977,C3,225.0,0.5,35,85.5
1978,A3,225.0,0.5,35,85.5
1979,F4,225.25,0.25,42,85.5
1980,F5,225.5,0.25,47,85.5
1981,D3,225.5,0.5,36,85.5
1982,B-3,225.5,0.5,36,85.5
1983,F4,225.75,0.25,42,85.5
1984,G#3,226.0,0.5,42,85.5
1985,B3,226.0,0.5,42,85.5
1986,F4,226.25,0.25,42,85.5
1987,F5,226.5,0.25,48,85.5
1988,A3,226.5,0.75,38,85.5
1989,C4,226.5,0.75,38,85.5
1990,F4,226.75,0.25,42,85.5
1991,F5,227.0,0.25,48,85.5
1992,F#4,227.25,0.25,38,85.5
1993,A4,227.5,0.25,42,85.5
1994,G4,227.75,0.25,39,85.5
1995,F4,228.0,0.229,42,85.5
1996,F4,228.25,0.25,42,85.5
1997,G3,228.25,0.25,36,85.5
1998,E-4,228.25,0.25,36,85.5
1999,F5,228.5,0.25,48,85.5
2000,F3,228.5,0.25,36,85.5
2001,D4,228.5,0.25,36,85.5
2002,F4,228.75,0.25,42,85.5
2003,E-3,228.75,0.25,36,85.5
2004,C4,228.75,0.25,36,85.5
2005,D3,229.0,0.5,38,85.5
2006,B-3,229.0,0.5,38,85.5
2007,F4,229.25,0.25,42,85.5
2008,F5,229.5,0.25,47,85.5
2009,A3,229.5,0.5,36,85.5
2010,C4,229.5,0.5,36,85.5
2011,F4,229.75,0.25,42,85.5
2012,A3,230.0,0.5,42,85.5
2013,C#4,230.0,0.5,42,85.5
2014,F4,230.25,0.25,42,85.5
2015,F5,230.5,0.25,48,85.5
2016,B-3,230.5,0.75,38,85.5
2017,D4,230.5,0.75,38,85.5
2018,F4,230.75,0.25,42,85.5
2019,F5,231.0,0.5,48,85.5
2020,F4,231.25,0.25,43,85.5
2021,B3,231.5,0.5,34,85.5
2022,G4,231.5,0.25,49,85.5
2023,D4,231.75,0.25,44,85.5
2024,C4,232.0,0.5,37,85.5
2025,F4,232.0,0.25,51,85.5
2026,F5,232.25,0.25,56,85.5
2027,E-4,232.25,0.25,48,85.5
2028,F6,232.5,0.5,67,85.5
2029,A3,232.5,0.5,37,85.5
2030,F4,232.5,0.25,53,85.5
2031,C4,232.75,0.25,48,85.5
2032,B-3,233.0,0.5,38,85.5
2033,E-4,233.0,0.25,53,85.5
2034,F4,233.25,0.25,47,85.5
2035,D4,233.25,0.25,49,85.5
2036,F5,233.5,0.5,54,85.5
2037,B3,233.5,0.5,38,85.5
2038,G4,233.5,0.25,56,85.5
2039,D4,233.75,0.25,50,85.5
2040,C4,234.0,0.5,39,85.5
2041,F4,234.0,0.25,59,85.5
2042,F5,234.25,0.25,66,85.5
2043,E-4,234.25,0.25,54,85.5
2044,F6,234.5,0.75,78,85.5
2045,A3,234.5,0.5,39,85.5
2046,F4,234.5,0.25,60,85.5
2047,C4,234.75,0.25,52,85.5
2048,B-3,235.0,0.5,50,85.5
2049,E-4,235.0,0.25,59,85.5
2050,F5,235.25,0.5,71,85.5
2051,D4,235.25,0.5,53,85.5
2052,A3,235.5,0.5,47,85.5
2053,G5,235.75,0.125,67,85.5
2054,C4,235.75,0.75,60,85.5
2055,A5,235.875,0.125,70,85.5
2056,B-5,236.0,0.125,72,85.5
2057,G3,236.0,1.0,66,85.5
2058,C6,236.125,0.125,73,85.5
2059,D6,236.25,0.125,75,85.5
2060,C6,236.375,0.125,73,85.5
2061,B-5,236.5,0.125,74,85.5
2062,B-3,236.5,1.0,60,85.5
2063,A5,236.625,0.125,70,85.5
2064,G5,236.75,0.125,71,85.5
2065,F5,236.875,0.125,69,85.5
2066,E5,237.0,0.125,68,85.5
2067,C3,237.0,1.0,62,85.5
2068,D5,237.125,0.125,66,85.5
2069,C5,237.25,0.125,63,85.5
2070,B-4,237.375,0.125,62,85.5
2071,A4,237.5,0.125,60,85.5
2072,B-3,237.5,1.0,58,85.5
2073,G4,237.625,0.125,58,85.5
2074,F4,237.75,0.125,57,85.5
2075,E4,237.875,0.125,55,85.5
2076,G4,238.0,0.125,54,85.5
2077,F3,238.0,1.0,58,85.5
2078,F4,238.125,0.125,49,85.5
2079,A4,238.25,0.125,54,85.5
2080,G4,238.375,0.125,48,85.5
2081,B-4,238.5,0.125,54,85.5
2082,A3,238.5,0.5,47,85.5
2083,A4,238.625,0.125,50,85.5
2084,C5,238.75,0.125,54,85.5
2085,B-4,238.875,0.125,49,85.5
2086,D5,239.0,0.125,54,85.5
2087,C5,239.125,0.125,48,85.5
2088,E-5,239.25,0.125,54,85.5
2089,D5,239.375,0.125,49,85.5
2090,F5,239.5,0.125,54,85.5
2091,E5,239.625,0.125,48,85.5
2092,G5,239.75,0.125,53,85.5
2093,F5,239.875,0.125,49,85.5
2094,B-2,240.0,0.5,42,85.5
2095,E-4,240.0,0.25,46,85.5
2096,E-5,240.0,0.25,46,85.5
2097,F3,240.25,0.25,34,85.5
2098,D4,240.25,0.25,42,85.5
2099,D5,240.25,0.25,42,85.5
2100,D3,240.5,0.5,38,85.5
2101,C4,240.5,0.25,42,85.5
2102,C5,240.5,0.25,42,85.5
2103,F3,240.75,0.25,34,85.5
2104,B-3,240.75,0.25,42,85.5
2105,B-4,240.75,0.25,42,85.5
2106,E-3,241.0,0.25,38,85.5
2107,C3,241.0,0.5,38,85.5
2108,A3,241.0,0.5,42,85.5
2109,A4,241.0,0.5,42,85.5
2110,F3,241.25,0.25,34,85.5
2111,D3,241.5,0.25,37,85.5
2112,B-2,241.5,0.5,37,85.5
2113,B-3,241.5,0.5,43,85.5
2114,B-4,241.5,0.5,43,85.5
2115,F3,241.75,0.25,34,85.5
2116,B3,242.0,0.5,49,85.5
2117,B4,242.0,0.5,49,85.5
2118,A2,242.0,2.0,43,85.5
2119,E-3,242.0,2.0,43,85.5
2120,F3,242.25,0.125,34,85.5
2121,F3,242.5,0.125,34,85.5
2122,C4,242.5,0.75,45,85.5
2123,C5,242.5,0.75,45,85.5
2124,F3,242.75,0.125,34,85.5
2125,F3,243.0,0.125,37,85.5
2126,F#4,243.25,0.125,48,85.5
2127,F3,243.25,0.125,34,85.5
2128,F#5,243.375,0.125,45,85.5
2129,A4,243.5,0.125,43,85.5
2130,F3,243.5,0.125,34,85.5
2131,A5,243.625,0.125,46,85.5
2132,G4,243.75,0.125,53,85.5
2133,F3,243.75,0.125,34,85.5
2134,G5,243.875,0.125,46,85.5
2135,F4,244.0,0.125,52,85.5
2136,A2,244.0,0.5,42,85.5
2137,F5,244.125,0.125,47,85.5
2138,E-4,244.25,0.125,51,85.5
2139,F3,244.25,0.25,34,85.5
2140,E-5,244.375,0.125,46,85.5
2141,D4,244.5,0.125,51,85.5
2142,E-3,244.5,0.5,38,85.5
2143,D5,244.625,0.125,46,85.5
2144,C4,244.75,0.125,51,85.5
2145,F3,244.75,0.25,34,85.5
2146,C5,244.875,0.125,46,85.5
2147,A3,245.0,0.125,50,85.5
2148,D3,245.0,0.5,38,85.5
2149,A4,245.125,0.125,42,85.5
2150,B-3,245.25,0.125,47,85.5
2151,F3,245.25,0.25,34,85.5
2152,B-4,245.375,0.125,42,85.5
2153,B3,245.5,0.125,49,85.5
2154,A2,245.5,0.5,37,85.5
2155,B4,245.625,0.125,42,85.5
2156,C4,245.75,0.125,49,85.5
2157,F3,245.75,0.25,34,85.5
2158,C5,245.875,0.125,42,85.5
2159,B-2,246.0,1.5,43,85.5
2160,C#4,246.0,0.5,49,85.5
2161,C#5,246.0,0.5,49,85.5
2162,F3,246.25,0.125,34,85.5
2163,F3,246.5,0.125,34,85.5
2164,D4,246.5,0.75,45,85.5
2165,D5,246.5,0.75,45,85.5
2166,F3,246.75,0.125,34,85.5
2167,F3,247.0,0.125,40,85.5
2168,F4,247.25,0.125,56,85.5
2169,F3,247.25,0.125,37,85.5
2170,F5,247.375,0.125,52,85.5
2171,G4,247.5,0.125,64,85.5
2172,F3,247.5,0.125,37,85.5
2173,B2,247.5,0.5,37,85.5
2174,G5,247.625,0.125,58,85.5
2175,D4,247.75,0.125,57,85.5
2176,F3,247.75,0.125,37,85.5
2177,D5,247.875,0.125,52,85.5
2178,F4,248.0,0.125,62,85.5
2179,C3,248.0,0.5,47,85.5
2180,F5,248.125,0.125,59,85.5
2181,E-4,248.25,0.125,58,85.5
2182,F3,248.25,0.25,38,85.5
2183,E-5,248.375,0.125,53,85.5
2184,F4,248.5,0.125,64,85.5
2185,A2,248.5,0.5,42,85.5
2186,F5,248.625,0.125,58,85.5
2187,C4,248.75,0.125,58,85.5
2188,F3,248.75,0.25,38,85.5
2189,C5,248.875,0.125,51,85.5
2190,E-4,249.0,0.125,64,85.5
2191,B-2,249.0,0.5,47,85.5
2192,E-5,249.125,0.125,59,85.5
2193,D4,249.25,0.125,59,85.5
2194,F3,249.25,0.25,38,85.5
2195,D5,249.375,0.125,53,85.5
2196,G4,249.5,0.125,67,85.5
2197,B2,249.5,0.5,43,85.5
2198,G5,249.625,0.125,60,85.5
2199,D4,249.75,0.125,59,85.5
2200,F3,249.75,0.25,39,85.5
2201,D5,249.875,0.125,55,85.5
2202,F4,250.0,0.125,71,85.5
2203,C3,250.0,0.5,54,85.5
2204,F5,250.125,0.125,67,85.5
2205,E-4,250.25,0.125,64,85.5
2206,F3,250.25,0.25,39,85.5
2207,E-5,250.375,0.125,59,85.5
2208,F4,250.5,0.125,72,85.5
2209,A2,250.5,0.5,49,85.5
2210,F5,250.625,0.125,67,85.5
2211,C4,250.75,0.125,63,85.5
2212,F3,250.75,0.25,39,85.5
2213,C5,250.875,0.125,60,85.5
2214,E-4,251.0,0.125,71,85.5
2215,B-2,251.0,0.5,56,85.5
2216,E-5,251.125,0.125,64,85.5
2217,D4,251.25,0.125,64,85.5
2218,F3,251.25,0.25,41,85.5
2219,D5,251.375,0.125,57,85.5
2220,E-4,251.5,0.125,67,85.5
2221,G#2,251.5,0.5,51,85.5
2222,E-5,251.625,0.125,58,85.5
2223,F4,251.75,0.125,71,85.5
2224,B-2,251.75,0.25,45,85.5
2225,F5,251.875,0.125,64,85.5
2226,F#4,252.0,0.125,76,85.5
2227,G2,252.0,0.479,62,85.5
2228,F#5,252.125,0.125,69,85.5
2229,G4,252.25,0.125,76,85.5
2230,B-2,252.25,0.25,51,85.5
2231,G5,252.375,0.125,69,85.5
2232,A4,252.5,0.125,76,85.5
2233,E-2,252.5,0.5,58,85.5
2234,A5,252.625,0.125,66,85.5
2235,B-4,252.75,0.125,78,85.5
2236,E-3,252.75,0.25,51,85.5
2237,B-5,252.875,0.125,70,85.5
2238,F2,253.0,0.479,56,85.5
2239,B-3,253.0,0.5,71,85.5
2240,B-4,253.0,0.5,71,85.5
2241,D3,253.25,0.25,42,85.5
2242,F2,253.5,0.5,49,85.5
2243,C4,253.5,0.5,64,85.5
2244,C5,253.5,0.5,64,85.5
2245,A2,253.75,0.25,43,85.5
2246,B-1,254.0,0.25,43,85.5
2247,C#4,254.0,0.5,45,85.5
2248,C#5,254.0,0.5,45,85.5
2249,B-2,254.25,1.25,29,85.5
2250,B-3,254.5,0.125,35,85.5
2251,D4,254.5,0.625,42,85.5
2252,D5,254.5,0.625,42,85.5
2253,B-3,254.75,0.125,29,85.5
2254,B-3,255.0,0.125,37,85.5
2255,B-4,255.125,0.125,59,85.5
2256,A4,255.25,0.125,61,85.5
2257,B-3,255.25,0.125,35,85.5
2258,B-4,255.375,0.125,62,85.5
2259,B4,255.5,0.125,62,85.5
2260,G#3,255.5,0.5,43,85.5
2261,C5,255.625,0.125,64,85.5
2262,C#5,255.75,0.125,65,85.5
2263,B-3,255.75,0.25,39,85.5
2264,D5,255.875,0.125,67,85.5
2265,E-5,256.0,0.125,69,85.5
2266,G3,256.0,0.5,52,85.5
2267,E5,256.125,0.125,70,85.5
2268,F5,256.25,0.125,71,85.5
2269,B-3,256.25,0.25,46,85.5
2270,F#5,256.375,0.125,73,85.5
2271,G5,256.5,0.125,74,85.5
2272,E-3,256.5,0.5,56,85.5
2273,G#5,256.625,0.125,76,85.5
2274,A5,256.75,0.125,77,85.5
2275,E-4,256.75,0.25,50,85.5
2276,B-5,256.875,0.125,78,85.5
2277,B-4,257.0,0.1,53,85.5
2278,F3,257.0,0.479,35,85.5
2279,C5,257.1,0.1,48,85.5
2280,B-4,257.2,0.1,45,85.5
2281,D4,257.25,0.25,29,85.5
2282,A4,257.3,0.1,45,85.5
2283,B-4,257.4,0.1,45,85.5
2284,E-4,257.5,0.5,42,85.5
2285,D5,257.5,0.375,52,85.5
2286,F3,257.5,0.5,35,85.5
2287,A3,257.75,0.25,29,85.5
2288,C5,257.875,0.125,41,85.5
2289,D4,258.0,0.5,46,85.5
2290,B-4,258.0,0.5,46,85.5
2291,B-2,258.0,0.5,36,85.5
2292,B-3,258.0,0.5,36,85.5
2293,F4,259.0,1.0,74,85.5
2294,D5,259.0,1.0,74,85.5
2295,B-3,259.0,1.0,55,85.5
2296,D4,259.0,1.0,55,85.5
2297,G4,260.0,1.0,45,85.5
2298,C5,260.0,0.108,53,85.5
2299,E-3,260.0,1.5,42,85.5
2300,C4,260.0,1.5,42,85.5
2301,D5,260.108,0.106,50,85.5
2302,C5,260.215,0.108,53,85.5
2303,D5,260.323,0.108,50,85.5
2304,C5,260.431,0.106,53,85.5
2305,B4,260.538,0.108,49,85.5
2306,C5,260.646,0.106,49,85.5
2307,D5,260.75,0.125,49,85.5
2308,E-5,260.875,0.125,50,85.5
2309,G4,261.0,0.5,57,85.5
2310,E-4,261.5,0.5,50,85.5
2311,A4,261.5,0.5,50,85.5
2312,F3,261.5,0.5,38,85.5
2313,C4,261.5,0.5,38,85.5
2314,D4,262.0,0.979,47,85.5
2315,B-4,262.0,0.5,56,85.5
2316,B-2,262.0,0.979,46,85.5
2317,B-3,262.0,0.979,46,85.5
2318,F4,262.5,0.25,46,85.5
2319,F4,263.0,1.0,74,85.5
2320,D5,263.0,1.0,74,85.5
2321,B-3,263.0,1.0,55,85.5
2322,D4,263.0,1.0,55,85.5
2323,G4,264.0,1.0,45,85.5
2324,C5,264.0,0.25,63,85.5
2325,E3,264.0,1.0,41,85.5
2326,G3,264.0,1.0,41,85.5
2327,D5,264.25,0.083,56,85.5
2328,C5,264.333,0.083,56,85.5
2329,B4,264.417,0.083,56,85.5
2330,C5,264.5,0.375,63,85.5
2331,D5,264.875,0.125,58,85.5
2332,E4,265.0,1.0,45,85.5
2333,B-4,265.0,0.25,63,85.5
2334,C3,265.0,1.0,41,85.5
2335,C4,265.0,1.0,41,85.5
2336,C5,265.25,0.083,56,85.5
2337,B-4,265.333,0.083,56,85.5
2338,A4,265.417,0.083,56,85.5
2339,B-4,265.5,0.375,63,85.5
2340,C5,265.875,0.125,58,85.5
2341,F4,266.0,1.0,47,85.5
2342,B-4,266.0,0.5,56,85.5
2343,F3,266.0,1.0,46,85.5
2344,C4,266.0,1.0,46,85.5
2345,A4,266.5,0.25,46,85.5
2346,G4,267.0,1.0,74,85.5
2347,G5,267.0,1.0,74,85.5
2348,B-3,267.0,1.0,55,85.5
2349,D4,267.0,1.0,55,85.5
2350,C5,268.0,1.0,45,85.5
2351,F5,268.0,0.25,63,85.5
2352,A3,268.0,1.0,41,85.5
2353,C4,268.0,1.0,41,85.5
2354,G5,268.25,0.083,56,85.5
2355,F5,268.333,0.083,56,85.5
2356,E5,268.417,0.083,56,85.5
2357,F5,268.5,0.375,63,85.5
2358,G5,268.875,0.125,58,85.5
2359,A4,269.0,1.0,45,85.5
2360,E-5,269.0,0.25,63,85.5
2361,F3,269.0,1.0,41,85.5
2362,F4,269.0,1.0,41,85.5
2363,F5,269.25,0.083,56,85.5
2364,E-5,269.333,0.083,56,85.5
2365,D5,269.417,0.083,56,85.5
2366,E-5,269.5,0.375,63,85.5
2367,F5,269.875,0.125,58,85.5
2368,B-4,270.0,0.979,47,85.5
2369,E-5,270.0,0.5,56,85.5
2370,B-3,270.0,0.979,46,85.5
2371,F4,270.0,0.979,46,85.5
2372,D5,270.5,0.25,46,85.5
2373,D3,271.0,1.0,62,85.5
2374,B-3,271.125,0.875,52,85.5
2375,D4,271.25,0.75,54,85.5
2376,D5,271.5,1.0,54,85.5
2377,B-5,271.625,0.875,69,85.5
2378,D6,271.75,0.75,73,85.5
2379,E-3,272.0,1.0,69,85.5
2380,B-3,272.125,0.875,58,85.5
2381,D4,272.25,0.75,60,85.5
2382,D5,272.5,1.0,61,85.5
2383,B-5,272.625,0.875,73,85.5
2384,D6,272.75,0.75,78,85.5
2385,F3,273.0,1.0,73,85.5
2386,B-3,273.125,0.875,61,85.5
2387,D4,273.25,0.75,64,85.5
2388,D5,273.5,1.0,65,85.5
2389,B-5,273.625,0.875,76,85.5
2390,D6,273.75,0.75,81,85.5
2391,G3,274.0,1.0,77,85.5
2392,B-3,274.125,0.875,64,85.5
2393,D4,274.25,0.75,68,85.5
2394,D5,274.5,0.5,68,85.5
2395,B-5,274.625,0.375,80,85.5
2396,D6,274.75,0.25,86,85.5
2397,D4,275.0,0.5,62,85.5
2398,F4,275.0,0.5,62,85.5
2399,B-4,275.0,0.5,62,85.5
2400,B-4,275.5,1.0,64,85.5
2401,D6,275.5,1.0,82,85.5
2402,D5,275.5,1.0,82,85.5
2403,E4,275.5,0.5,58,85.5
2404,G4,275.5,0.5,58,85.5
2405,F4,276.0,1.0,59,85.5
2406,A4,276.5,0.25,63,85.5
2407,C6,276.5,0.25,62,85.5
2408,C5,276.5,0.25,62,85.5
2409,B-3,277.0,0.5,62,85.5
2410,D4,277.0,0.5,62,85.5
2411,G4,277.0,0.5,62,85.5
2412,C#4,277.5,0.5,55,85.5
2413,B-5,277.5,1.0,82,85.5
2414,B-4,277.5,1.0,82,85.5
2415,E4,277.5,1.0,60,85.5
2416,G4,277.5,1.0,60,85.5
2417,D4,278.0,0.75,59,85.5
2418,F4,278.5,0.25,63,85.5
2419,A5,278.5,0.25,62,85.5
2420,A4,278.5,0.25,62,85.5
2421,G3,279.0,0.5,62,85.5
2422,B-3,279.0,0.5,62,85.5
2423,E-4,279.0,0.5,62,85.5
2424,E-4,279.5,1.0,64,85.5
2425,G5,279.5,0.75,82,85.5
2426,G4,279.5,0.75,82,85.5
2427,A3,279.5,0.5,58,85.5
2428,C4,279.5,0.5,58,85.5
2429,B-3,280.0,0.5,68,85.5
2430,D4,280.25,0.5,58,85.5
2431,F4,280.25,0.5,62,85.5
2432,F5,280.25,0.5,62,85.5
2433,E-3,280.5,0.5,49,85.5
2434,C4,280.75,0.5,66,85.5
2435,E-4,280.75,0.5,66,85.5
2436,E-5,280.75,0.5,66,85.5
2437,F3,281.0,0.479,56,85.5
2438,B-3,281.25,0.5,59,85.5
2439,D4,281.25,0.5,62,85.5
2440,D5,281.25,0.5,62,85.5
2441,F3,281.5,0.5,49,85.5
2442,A3,281.75,0.75,59,85.5
2443,C4,281.75,0.25,61,85.5
2444,C5,281.75,0.25,61,85.5
2445,B-2,282.0,0.75,56,85.5
2446,C#4,282.0,0.5,66,85.5
2447,C#5,282.0,0.5,66,85.5
2448,B-3,282.5,0.25,66,85.5
2449,D4,282.5,0.25,61,85.5
2450,D5,282.5,0.25,61,85.5
2451,D4,283.0,0.5,62,85.5
2452,B-2,283.0,1.0,63,85.5
2453,F3,283.0,0.5,63,85.5
2454,G3,283.5,1.0,57,85.5
2455,D5,283.5,1.0,55,85.5
2456,E4,283.5,1.0,55,85.5
2457,A2,284.0,1.0,68,85.5
2458,A3,284.5,0.25,63,85.5
2459,F4,284.5,0.25,62,85.5
2460,C5,284.5,0.25,62,85.5
2461,B-3,285.0,0.5,62,85.5
2462,G2,285.0,1.0,63,85.5
2463,D3,285.0,0.5,63,85.5
2464,E3,285.5,1.0,57,85.5
2465,B-4,285.5,1.0,55,85.5
2466,C#4,285.5,1.0,55,85.5
2467,F2,286.0,1.0,68,85.5
2468,F3,286.5,0.25,63,85.5
2469,D4,286.5,0.25,62,85.5
2470,A4,286.5,0.25,62,85.5
2471,E-2,287.0,1.0,68,85.5
2472,B-2,287.0,0.5,63,85.5
2473,G3,287.0,0.5,62,85.5
2474,G4,287.0,0.5,62,85.5
2475,A3,287.5,0.5,59,85.5
2476,F#4,287.5,1.0,53,85.5
2477,C3,287.5,0.5,57,85.5
2478,B-3,288.0,0.5,59,85.5
2479,F3,288.0,0.5,62,85.5
2480,D2,288.0,0.5,62,85.5
2481,F4,288.25,0.5,69,85.5
2482,E-2,288.5,0.5,69,85.5
2483,G3,288.5,0.5,69,85.5
2484,C4,288.5,0.5,69,85.5
2485,E-4,288.75,0.5,77,85.5
2486,B-3,289.0,0.5,70,85.5
2487,F3,289.0,0.5,70,85.5
2488,F2,289.0,0.5,70,85.5
2489,D4,289.25,0.5,84,85.5
2490,A3,289.5,0.5,74,85.5
2491,E-3,289.5,0.5,74,85.5
2492,F1,289.5,0.5,74,85.5
2493,C4,289.75,0.25,92,85.5
2494,B-3,290.0,0.125,92,85.5
2495,B-1,290.0,0.5,83,85.5
2496,D3,290.125,0.125,50,85.5
2497,F3,290.25,0.125,50,85.5
2498,B-3,290.375,0.125,50,85.5
2499,D4,290.5,0.125,53,85.5
2500,B-2,290.5,1.5,46,85.5
2501,F4,290.625,0.125,50,85.5
2502,B-4,290.75,0.125,50,85.5
2503,D5,290.875,0.125,50,85.5
2504,F4,291.0,0.125,55,85.5
2505,D3,291.0,1.0,46,85.5
2506,B-4,291.125,0.125,50,85.5
2507,D5,291.25,0.125,50,85.5
2508,F5,291.375,0.125,50,85.5
2509,B-4,291.5,0.125,55,85.5
2510,F3,291.5,0.5,46,85.5
2511,D5,291.625,0.125,50,85.5
2512,F5,291.75,0.125,50,85.5
2513,B-5,291.875,0.125,50,85.5
2514,A5,292.0,0.125,69,85.5
2515,B-2,292.0,2.0,54,85.5
2516,C3,292.0,2.0,54,85.5
2517,E-6,292.125,0.125,50,85.5
2518,C6,292.25,0.125,50,85.5
2519,A5,292.375,0.125,50,85.5
2520,F5,292.5,0.125,54,85.5
2521,E-3,292.5,1.5,47,85.5
2522,C6,292.625,0.125,50,85.5
2523,A5,292.75,0.125,50,85.5
2524,F5,292.875,0.125,50,85.5
2525,E-5,293.0,0.125,56,85.5
2526,F3,293.0,1.0,47,85.5
2527,A5,293.125,0.125,50,85.5
2528,F5,293.25,0.125,50,85.5
2529,E-5,293.375,0.125,50,85.5
2530,C5,293.5,0.125,54,85.5
2531,A3,293.5,0.5,47,85.5
2532,F5,293.625,0.125,50,85.5
2533,E-5,293.75,0.125,50,85.5
2534,C5,293.875,0.125,50,85.5
2535,B-4,294.0,0.125,69,85.5
2536,B-1,294.0,0.5,64,85.5
2537,D3,294.125,0.125,50,85.5
2538,F3,294.25,0.125,50,85.5
2539,B-3,294.375,0.125,50,85.5
2540,D4,294.5,0.125,53,85.5
2541,B-2,294.5,1.5,46,85.5
2542,F4,294.625,0.125,50,85.5
2543,B-4,294.75,0.125,50,85.5
2544,D5,294.875,0.125,50,85.5
2545,F4,295.0,0.125,55,85.5
2546,D3,295.0,1.0,46,85.5
2547,B-4,295.125,0.125,50,85.5
2548,D5,295.25,0.125,50,85.5
2549,F5,295.375,0.125,50,85.5
2550,B-4,295.5,0.125,55,85.5
2551,F3,295.5,0.5,46,85.5
2552,D5,295.625,0.125,50,85.5
2553,F5,295.75,0.125,50,85.5
2554,B-5,295.875,0.125,50,85.5
2555,A5,296.0,0.125,72,85.5
2556,B-2,296.0,2.0,54,85.5
2557,C3,296.0,2.0,54,85.5
2558,E-6,296.125,0.125,50,85.5
2559,C6,296.25,0.125,50,85.5
2560,A5,296.375,0.125,50,85.5
2561,F5,296.5,0.125,54,85.5
2562,E-3,296.5,1.5,47,85.5
2563,C6,296.625,0.125,50,85.5
2564,A5,296.75,0.125,50,85.5
2565,F5,296.875,0.125,50,85.5
2566,E-5,297.0,0.125,56,85.5
2567,F3,297.0,1.0,47,85.5
2568,A5,297.125,0.125,50,85.5
2569,F5,297.25,0.125,50,85.5
2570,E-5,297.375,0.125,50,85.5
2571,C5,297.5,0.125,54,85.5
2572,A3,297.5,0.5,47,85.5
2573,F5,297.625,0.125,50,85.5
2574,E-5,297.75,0.125,50,85.5
2575,C5,297.875,0.125,50,85.5
2576,B-4,298.0,0.125,74,85.5
2577,B-1,298.0,0.5,69,85.5
2578,D3,298.125,0.125,50,85.5
2579,F3,298.25,0.125,50,85.5
2580,B-3,298.375,0.125,50,85.5
2581,D4,298.5,0.125,53,85.5
2582,B-2,298.5,1.5,52,85.5
2583,F4,298.625,0.125,50,85.5
2584,B-4,298.75,0.125,50,85.5
2585,D5,298.875,0.125,50,85.5
2586,F4,299.0,0.125,55,85.5
2587,D3,299.0,1.0,52,85.5
2588,B-4,299.125,0.125,50,85.5
2589,D5,299.25,0.125,50,85.5
2590,F5,299.375,0.125,50,85.5
2591,B-4,299.5,0.125,55,85.5
2592,F3,299.5,0.5,52,85.5
2593,D5,299.625,0.125,50,85.5
2594,F5,299.75,0.125,50,85.5
2595,B-5,299.875,0.125,50,85.5
2596,G#1,300.0,0.5,77,85.5
2597,D3,300.125,0.125,55,85.5
2598,F3,300.25,0.125,55,85.5
2599,B-3,300.375,0.125,55,85.5
2600,D4,300.5,0.125,58,85.5
2601,G#2,300.5,1.5,56,85.5
2602,F4,300.625,0.125,55,85.5
2603,B-4,300.75,0.125,55,85.5
2604,D5,300.875,0.125,55,85.5
2605,F4,301.0,0.125,60,85.5
2606,D3,301.0,1.0,56,85.5
2607,B-4,301.125,0.125,55,85.5
2608,D5,301.25,0.125,55,85.5
2609,F5,301.375,0.125,55,85.5
2610,B-4,301.5,0.125,60,85.5
2611,F3,301.5,0.5,56,85.5
2612,D5,301.625,0.125,55,85.5
2613,F5,301.75,0.125,55,85.5
2614,B-5,301.875,0.125,55,85.5
2615,G1,302.0,0.5,83,85.5
2616,E-3,302.125,0.125,55,85.5
2617,G3,302.25,0.125,60,85.5
2618,B-3,302.375,0.125,60,85.5
2619,E-4,302.5,0.125,63,85.5
2620,G2,302.5,1.5,57,85.5
2621,G4,302.625,0.125,60,85.5
2622,B-4,302.75,0.125,60,85.5
2623,E-5,302.875,0.125,60,85.5
2624,G4,303.0,0.125,66,85.5
2625,B-2,303.0,1.0,57,85.5
2626,B-4,303.125,0.125,60,85.5
2627,E-5,303.25,0.125,60,85.5
2628,G5,303.375,0.125,60,85.5
2629,B-4,303.5,0.125,66,85.5
2630,E-3,303.5,0.5,57,85.5
2631,E-5,303.625,0.125,60,85.5
2632,G5,303.75,0.125,60,85.5
2633,B-5,303.875,0.125,60,85.5
2634,D2,304.0,0.125,59,85.5
2635,F2,304.125,0.125,60,85.5
2636,G#2,304.25,0.125,61,85.5
2637,B-2,304.375,0.125,61,85.5
2638,D3,304.5,0.125,62,85.5
2639,F3,304.625,0.125,64,85.5
2640,G#3,304.75,0.125,65,85.5
2641,B-3,304.875,0.125,66,85.5
2642,D4,305.0,0.125,66,85.5
2643,F4,305.125,0.125,59,85.5
2644,G#4,305.25,0.125,61,85.5
2645,B-4,305.375,0.125,64,85.5
2646,D5,305.5,0.1,67,85.5
2647,F5,305.6,0.1,68,85.5
2648,G#5,305.7,0.1,70,85.5
2649,C6,305.8,0.1,68,85.5
2650,B-5,305.9,0.1,65,85.5
2651,G#5,306.0,0.25,50,85.5
2652,E-4,306.0,0.5,42,85.5
2653,G5,306.25,0.25,46,85.5
2654,B-4,306.25,0.25,34,85.5
2655,F5,306.5,0.25,46,85.5
2656,G4,306.5,0.5,38,85.5
2657,E-5,306.75,0.25,46,85.5
2658,B-4,306.75,0.25,34,85.5
2659,D5,307.0,0.5,50,85.5
2660,G#4,307.0,0.25,38,85.5
2661,F4,307.0,0.5,38,85.5
2662,B-4,307.25,0.25,34,85.5
2663,E-5,307.5,0.5,47,85.5
2664,G4,307.5,0.25,37,85.5
2665,E-4,307.5,0.5,37,85.5
2666,B-4,307.75,0.25,34,85.5
2667,E5,308.0,0.5,53,85.5
2668,D4,308.0,2.0,43,85.5
2669,G#4,308.0,2.0,43,85.5
2670,B-4,308.25,0.125,34,85.5
2671,F5,308.5,0.5,49,85.5
2672,B-4,308.5,0.125,34,85.5
2673,B-4,308.75,0.125,34,85.5
2674,B-4,309.0,0.125,37,85.5
2675,B-4,309.25,0.125,34,85.5
2676,B5,309.25,1.0,44,85.5
2677,C6,309.25,1.0,44,85.5
2678,B5,309.35,1.0,44,85.5
2679,A5,309.35,1.0,44,85.5
2680,B5,309.45,0.05,42,85.5
2681,D6,309.5,0.25,50,85.5
2682,B-4,309.5,0.125,34,85.5
2683,C6,309.75,0.25,46,85.5
2684,B-4,309.75,0.125,34,85.5
2685,B-5,310.0,0.25,50,85.5
2686,D4,310.0,0.5,42,85.5
2687,G#5,310.25,0.25,44,85.5
2688,B-4,310.25,0.25,34,85.5
2689,G5,310.5,0.25,46,85.5
2690,G#4,310.5,0.5,38,85.5
2691,F5,310.75,0.25,43,85.5
2692,B-4,310.75,0.25,34,85.5
2693,D5,311.0,0.25,50,85.5
2694,G4,311.0,0.5,38,85.5
2695,E-5,311.25,0.25,44,85.5
2696,B-4,311.25,0.25,34,85.5
2697,E5,311.5,0.25,47,85.5
2698,D4,311.5,0.5,37,85.5
2699,F5,311.75,0.25,43,85.5
2700,B-4,311.75,0.25,34,85.5
2701,F#5,312.0,0.5,53,85.5
2702,E-4,312.0,0.5,43,85.5
2703,B-4,312.25,0.125,34,85.5
2704,G5,312.5,0.75,49,85.5
2705,E-4,312.5,0.5,43,85.5
2706,B4,312.75,0.125,34,85.5
2707,E-4,313.0,0.5,43,85.5
2708,G5,313.25,0.25,51,85.5
2709,C5,313.25,0.125,34,85.5
2710,G#5,313.5,0.25,58,85.5
2711,G5,313.75,0.25,52,85.5
2712,F5,314.0,0.25,50,85.5
2713,E-5,314.25,0.25,44,85.5
2714,G4,314.25,0.25,34,85.5
2715,D5,314.5,0.25,46,85.5
2716,E-4,314.5,0.5,38,85.5
2717,C5,314.75,0.25,43,85.5
2718,G4,314.75,0.25,34,85.5
2719,B4,315.0,0.5,50,85.5
2720,F4,315.0,0.25,38,85.5
2721,D4,315.0,0.5,38,85.5
2722,G4,315.25,0.25,34,85.5
2723,C5,315.5,0.5,47,85.5
2724,E-4,315.5,0.25,37,85.5
2725,C4,315.5,0.5,37,85.5
2726,G4,315.75,0.25,34,85.5
2727,C#5,316.0,0.5,53,85.5
2728,B3,316.0,1.25,43,85.5
2729,F4,316.0,1.25,43,85.5
2730,G4,316.25,0.125,34,85.5
2731,D5,316.5,0.5,49,85.5
2732,G4,316.5,0.125,34,85.5
2733,G4,316.75,0.125,34,85.5
2734,G4,317.0,0.25,34,85.5
2735,G5,317.25,0.25,34,85.5
2736,G#5,317.5,0.25,40,85.5
2737,G5,317.75,0.25,36,85.5
2738,F5,318.0,0.25,40,85.5
2739,E-5,318.25,0.25,36,85.5
2740,D5,318.5,0.25,38,85.5
2741,C5,318.75,0.25,36,85.5
2742,E-5,319.25,0.25,34,85.5
2743,G4,319.25,0.25,28,85.5
2744,F5,319.5,0.25,40,85.5
2745,G#4,319.5,0.25,34,85.5
2746,E-5,319.75,0.25,36,85.5
2747,G4,319.75,0.25,30,85.5
2748,D5,320.0,0.25,40,85.5
2749,F4,320.0,0.25,34,85.5
2750,C5,320.25,0.25,36,85.5
2751,E-4,320.25,0.25,30,85.5
2752,B-4,320.5,0.25,38,85.5
2753,D4,320.5,0.25,32,85.5
2754,A4,320.75,0.25,36,85.5
2755,C4,320.75,0.25,30,85.5
2756,E-4,321.25,0.25,40,85.5
2757,F4,321.5,0.25,45,85.5
2758,E-4,321.75,0.25,41,85.5
2759,D4,322.0,0.25,45,85.5
2760,C4,322.25,0.25,40,85.5
2761,B-3,322.5,0.25,43,85.5
2762,A3,322.75,0.25,40,85.5
2763,G3,323.0,0.25,46,85.5
2764,F3,323.25,0.25,40,85.5
2765,E-3,323.5,0.25,40,85.5
2766,D3,323.75,0.25,40,85.5
2767,C3,324.0,0.25,51,85.5
2768,A3,324.125,0.125,36,85.5
2769,B-3,324.25,0.125,36,85.5
2770,B-2,324.25,0.25,41,85.5
2771,C4,324.375,0.125,37,85.5
2772,D4,324.5,0.125,37,85.5
2773,A2,324.5,0.25,45,85.5
2774,E-4,324.625,0.125,38,85.5
2775,F4,324.75,0.125,39,85.5
2776,G2,324.75,0.25,47,85.5
2777,G4,324.875,0.125,39,85.5
2778,A4,325.0,0.167,40,85.5
2779,F2,325.0,5.0,51,85.5
2780,B-4,325.167,0.167,42,85.5
2781,B4,325.333,0.167,43,85.5
2782,C5,325.5,0.167,44,85.5
2783,C#5,325.667,0.167,44,85.5
2784,D5,325.833,0.167,45,85.5
2785,E-5,326.0,0.167,49,85.5
2786,A4,326.167,0.167,42,85.5
2787,B-4,326.333,0.167,42,85.5
2788,B4,326.5,0.167,45,85.5
2789,C5,326.667,0.167,48,85.5
2790,D5,326.833,0.167,50,85.5
2791,E-5,327.0,0.167,52,85.5
2792,A4,327.167,0.167,47,85.5
2793,B-4,327.333,0.167,49,85.5
2794,B4,327.5,0.167,50,85.5
2795,C5,327.667,0.167,52,85.5
2796,D5,327.833,0.167,53,85.5
2797,E-5,328.0,0.125,62,85.5
2798,A4,328.125,0.125,54,85.5
2799,G#4,328.25,0.125,51,85.5
2800,A4,328.375,0.125,52,85.5
2801,B-4,328.5,0.125,53,85.5
2802,B4,328.625,0.125,54,85.5
2803,C5,328.75,0.125,56,85.5
2804,C#5,328.875,0.125,57,85.5
2805,D5,329.0,0.167,59,85.5
2806,E-5,329.167,0.167,61,85.5
2807,E5,329.333,0.167,59,85.5
2808,G5,329.5,0.25,50,85.5
2809,F5,329.75,0.229,46,85.5
2810,F5,330.0,0.083,50,85.5
2811,G4,330.0,0.125,42,85.5
2812,E-5,330.167,0.083,46,85.5
2813,F4,330.25,0.25,34,85.5
2814,D5,330.333,0.083,46,85.5
2815,D5,330.5,0.083,46,85.5
2816,D4,330.5,0.5,38,85.5
2817,C5,330.667,0.083,46,85.5
2818,F4,330.75,0.25,34,85.5
2819,B-4,330.833,0.083,46,85.5
2820,B-4,331.0,0.083,50,85.5
2821,E-4,331.0,0.25,38,85.5
2822,C4,331.0,0.5,38,85.5
2823,G#4,331.167,0.083,44,85.5
2824,F4,331.25,0.25,34,85.5
2825,A4,331.333,0.083,44,85.5
2826,C5,331.5,0.083,47,85.5
2827,D4,331.5,0.25,37,85.5
2828,B-3,331.5,0.5,37,85.5
2829,A4,331.667,0.083,44,85.5
2830,F4,331.75,0.25,34,85.5
2831,B-4,331.833,0.083,44,85.5
2832,B4,332.0,0.5,53,85.5
2833,A3,332.0,2.0,43,85.5
2834,E-4,332.0,2.0,43,85.5
2835,F4,332.25,0.125,34,85.5
2836,C5,332.5,0.5,49,85.5
2837,F4,332.5,0.125,34,85.5
2838,F4,332.75,0.125,34,85.5
2839,F4,333.0,0.125,37,85.5
2840,F#5,333.25,0.25,45,85.5
2841,F4,333.25,0.125,34,85.5
2842,A5,333.5,0.25,50,85.5
2843,F4,333.5,0.125,34,85.5
2844,G5,333.75,0.25,46,85.5
2845,F4,333.75,0.125,34,85.5
2846,G5,334.0,0.083,50,85.5
2847,A3,334.0,0.5,42,85.5
2848,F5,334.167,0.083,46,85.5
2849,F4,334.25,0.25,34,85.5
2850,E-5,334.333,0.083,46,85.5
2851,E-5,334.5,0.083,46,85.5
2852,E-4,334.5,0.5,38,85.5
2853,D5,334.667,0.083,42,85.5
2854,F4,334.75,0.25,34,85.5
2855,C5,334.833,0.083,42,85.5
2856,C5,335.0,0.083,50,85.5
2857,D4,335.0,0.5,38,85.5
2858,A4,335.167,0.083,44,85.5
2859,F4,335.25,0.25,34,85.5
2860,B-4,335.333,0.083,44,85.5
2861,D5,335.5,0.083,47,85.5
2862,A3,335.5,0.5,37,85.5
2863,B4,335.667,0.083,44,85.5
2864,F4,335.75,0.25,34,85.5
2865,C5,335.833,0.083,44,85.5
2866,C#5,336.0,0.5,53,85.5
2867,B-3,336.0,1.5,43,85.5
2868,F4,336.25,0.125,34,85.5
2869,D5,336.5,0.667,49,85.5
2870,F4,336.5,0.125,34,85.5
2871,F4,336.75,0.125,34,85.5
2872,F4,337.0,0.125,37,85.5
2873,F5,337.167,0.167,51,85.5
2874,F4,337.25,0.125,34,85.5
2875,E5,337.333,0.167,48,85.5
2876,F5,337.5,0.167,58,85.5
2877,B3,337.5,0.5,34,85.5
2878,G5,337.667,0.167,52,85.5
2879,F4,337.75,0.125,34,85.5
2880,D5,337.833,0.167,49,85.5
2881,F5,338.0,0.167,56,85.5
2882,C4,338.0,0.5,42,85.5
2883,E-5,338.167,0.167,52,85.5
2884,F4,338.25,0.25,34,85.5
2885,D5,338.333,0.167,51,85.5
2886,E-5,338.5,0.167,57,85.5
2887,A3,338.5,0.5,38,85.5
2888,F5,338.667,0.167,52,85.5
2889,F4,338.75,0.25,34,85.5
2890,C5,338.833,0.167,52,85.5
2891,E-5,339.0,0.167,57,85.5
2892,B-3,339.0,0.5,42,85.5
2893,D5,339.167,0.167,52,85.5
2894,F4,339.25,0.25,34,85.5
2895,C#5,339.333,0.167,51,85.5
2896,D5,339.5,0.167,59,85.5
2897,B3,339.5,0.5,38,85.5
2898,G5,339.667,0.167,52,85.5
2899,F4,339.75,0.25,34,85.5
2900,D5,339.833,0.167,55,85.5
2901,F5,340.0,0.167,62,85.5
2902,C4,340.0,0.5,47,85.5
2903,E-5,340.167,0.167,56,85.5
2904,F4,340.25,0.25,34,85.5
2905,D5,340.333,0.167,56,85.5
2906,E-5,340.5,0.167,62,85.5
2907,A3,340.5,0.5,42,85.5
2908,F5,340.667,0.167,54,85.5
2909,F4,340.75,0.25,34,85.5
2910,C5,340.833,0.167,54,85.5
2911,E-5,341.0,0.125,61,85.5
2912,B-3,341.0,0.5,48,85.5
2913,D5,341.125,0.125,55,85.5
2914,C#5,341.25,0.125,52,85.5
2915,D4,341.25,0.25,35,85.5
2916,D5,341.375,0.125,53,85.5
2917,E-5,341.5,0.125,55,85.5
2918,A3,341.5,0.5,44,85.5
2919,E5,341.625,0.125,56,85.5
2920,F5,341.75,0.125,57,85.5
2921,C4,341.75,0.25,39,85.5
2922,F#5,341.875,0.125,58,85.5
2923,G5,342.0,0.125,64,85.5
2924,G3,342.0,0.479,55,85.5
2925,G#5,342.125,0.125,60,85.5
2926,A5,342.25,0.125,61,85.5
2927,B-3,342.25,0.25,47,85.5
2928,B-5,342.375,0.125,62,85.5
2929,B5,342.5,0.125,63,85.5
2930,G3,342.5,0.5,57,85.5
2931,C6,342.625,0.125,65,85.5
2932,C#6,342.75,0.125,67,85.5
2933,B-3,342.75,0.25,50,85.5
2934,D6,342.875,0.125,68,85.5
2935,E6,343.0,0.125,79,85.5
2936,C3,343.0,0.479,63,85.5
2937,D6,343.125,0.125,62,85.5
2938,C6,343.25,0.125,65,85.5
2939,B-3,343.25,0.25,46,85.5
2940,B-5,343.375,0.125,59,85.5
2941,A5,343.5,0.125,64,85.5
2942,C3,343.5,0.5,53,85.5
2943,G5,343.625,0.125,59,85.5
2944,F5,343.75,0.125,58,85.5
2945,B-3,343.75,0.479,34,85.5
2946,E5,343.875,0.125,54,85.5
2947,G5,344.0,0.5,58,85.5
2948,F3,344.0,1.5,43,85.5
2949,B-3,344.25,0.25,29,85.5
2950,F5,344.5,0.5,53,85.5
2951,A3,344.5,0.25,35,85.5
2952,G3,344.75,0.25,29,85.5
2953,A3,345.0,0.5,34,85.5
2954,F4,345.25,0.25,42,85.5
2955,F5,345.25,0.25,42,85.5
2956,G4,345.5,0.25,46,85.5
2957,G5,345.5,0.25,46,85.5
2958,F4,345.75,0.25,42,85.5
2959,F5,345.75,0.25,42,85.5
2960,B-2,346.0,0.5,42,85.5
2961,E-4,346.167,0.083,46,85.5
2962,E-5,346.167,0.083,46,85.5
2963,F3,346.25,0.25,34,85.5
2964,D4,346.333,0.083,38,85.5
2965,D5,346.333,0.083,38,85.5
2966,D3,346.5,0.5,38,85.5
2967,C4,346.667,0.083,42,85.5
2968,C5,346.667,0.083,42,85.5
2969,F3,346.75,0.25,34,85.5
2970,B-3,346.833,0.083,38,85.5
2971,B-4,346.833,0.083,38,85.5
2972,E-3,347.0,0.25,38,85.5
2973,C3,347.0,0.5,38,85.5
2974,G#3,347.167,0.083,46,85.5
2975,G#4,347.167,0.083,46,85.5
2976,F3,347.25,0.25,34,85.5
2977,A3,347.333,0.083,38,85.5
2978,A4,347.333,0.083,38,85.5
2979,D3,347.5,0.25,37,85.5
2980,B-2,347.5,0.5,37,85.5
2981,A3,347.667,0.083,42,85.5
2982,A4,347.667,0.083,42,85.5
2983,F3,347.75,0.25,34,85.5
2984,B-4,347.833,0.083,38,85.5
2985,B-3,347.833,0.083,38,85.5
2986,B3,348.0,0.5,49,85.5
2987,B4,348.0,0.5,49,85.5
2988,A2,348.0,2.0,43,85.5
2989,E-3,348.0,2.0,43,85.5
2990,F3,348.25,0.125,34,85.5
2991,F3,348.5,0.125,34,85.5
2992,C5,348.5,0.75,45,85.5
2993,C4,348.5,0.75,45,85.5
2994,F3,348.75,0.125,34,85.5
2995,F3,349.0,0.125,37,85.5
2996,F3,349.25,0.125,34,85.5
2997,F#5,349.25,0.25,42,85.5
2998,F#4,349.25,0.25,42,85.5
2999,F3,349.5,0.125,34,85.5
3000,A4,349.5,0.25,46,85.5
3001,A5,349.5,0.25,46,85.5
3002,F3,349.75,0.125,34,85.5
3003,G4,349.75,0.25,42,85.5
3004,G5,349.75,0.25,42,85.5
3005,A2,350.0,0.5,42,85.5
3006,F4,350.167,0.083,46,85.5
3007,F5,350.167,0.083,46,85.5
3008,F3,350.25,0.25,34,85.5
3009,E-4,350.333,0.083,38,85.5
3010,E-5,350.333,0.083,38,85.5
3011,E-3,350.5,0.5,38,85.5
3012,D4,350.667,0.083,42,85.5
3013,D5,350.667,0.083,42,85.5
3014,F3,350.75,0.25,34,85.5
3015,C5,350.833,0.083,38,85.5
3016,C4,350.833,0.083,38,85.5
3017,D3,351.0,0.5,38,85.5
3018,A3,351.167,0.083,46,85.5
3019,A4,351.167,0.083,46,85.5
3020,F3,351.25,0.25,34,85.5
3021,B-3,351.333,0.083,38,85.5
3022,B-4,351.333,0.083,38,85.5
3023,A2,351.5,0.5,37,85.5
3024,B3,351.667,0.083,42,85.5
3025,B4,351.667,0.083,42,85.5
3026,F3,351.75,0.25,34,85.5
3027,C5,351.833,0.083,38,85.5
3028,C4,351.833,0.083,38,85.5
3029,B-2,352.0,1.5,43,85.5
3030,C#4,352.0,0.5,49,85.5
3031,C#5,352.0,0.5,49,85.5
3032,F3,352.25,0.125,34,85.5
3033,D5,352.5,0.667,49,85.5
3034,D4,352.5,1.0,41,85.5
3035,F3,352.5,0.125,34,85.5
3036,F3,352.75,0.125,34,85.5
3037,F3,353.0,0.125,40,85.5
3038,F5,353.167,0.167,56,85.5
3039,F3,353.25,0.125,37,85.5
3040,E5,353.333,0.167,56,85.5
3041,G#4,353.5,1.0,54,85.5
3042,F5,353.5,0.167,62,85.5
3043,B2,353.5,0.5,37,85.5
3044,G5,353.667,0.167,57,85.5
3045,F3,353.75,0.125,37,85.5
3046,D5,353.833,0.167,51,85.5
3047,F5,354.0,0.167,62,85.5
3048,C3,354.0,0.5,47,85.5
3049,E-5,354.167,0.167,58,85.5
3050,F3,354.25,0.25,38,85.5
3051,D5,354.333,0.167,54,85.5
3052,E-5,354.5,0.167,63,85.5
3053,A4,354.5,0.5,46,85.5
3054,F2,354.5,0.5,42,85.5
3055,F5,354.667,0.167,58,85.5
3056,F3,354.75,0.25,38,85.5
3057,C5,354.833,0.167,53,85.5
3058,E-5,355.0,0.167,64,85.5
3059,B-4,355.0,0.5,46,85.5
3060,B-2,355.0,0.5,47,85.5
3061,D5,355.167,0.167,59,85.5
3062,F3,355.25,0.25,38,85.5
3063,C#5,355.333,0.167,59,85.5
3064,D5,355.5,0.167,67,85.5
3065,G#4,355.5,1.0,47,85.5
3066,B2,355.5,0.5,43,85.5
3067,G5,355.667,0.167,62,85.5
3068,F3,355.75,0.25,39,85.5
3069,D5,355.833,0.167,59,85.5
3070,F5,356.0,0.167,71,85.5
3071,C3,356.0,0.5,54,85.5
3072,E-5,356.167,0.167,64,85.5
3073,F3,356.25,0.25,47,85.5
3074,D5,356.333,0.167,61,85.5
3075,E-5,356.5,0.167,72,85.5
3076,A4,356.5,0.5,47,85.5
3077,F2,356.5,0.5,53,85.5
3078,F5,356.667,0.167,66,85.5
3079,F3,356.75,0.25,44,85.5
3080,C5,356.833,0.125,63,85.5
3081,B-2,357.0,0.5,64,85.5
3082,B-4,357.0,0.167,66,85.5
3083,E-5,357.0,0.167,66,85.5
3084,D4,357.167,0.167,58,85.5
3085,D5,357.167,0.167,58,85.5
3086,F3,357.25,0.25,49,85.5
3087,C#4,357.333,0.167,58,85.5
3088,C#5,357.333,0.167,58,85.5
3089,G#2,357.5,0.5,60,85.5
3090,D4,357.5,0.167,62,85.5
3091,D5,357.5,0.167,62,85.5
3092,E-4,357.667,0.083,66,85.5
3093,E-5,357.667,0.083,66,85.5
3094,B-2,357.75,0.25,45,85.5
3095,E4,357.833,0.083,66,85.5
3096,E5,357.833,0.083,66,85.5
3097,G2,358.0,0.479,73,85.5
3098,F4,358.0,0.083,70,85.5
3099,F5,358.0,0.083,70,85.5
3100,F#4,358.167,0.083,66,85.5
3101,F#5,358.167,0.083,66,85.5
3102,B-2,358.25,0.25,60,85.5
3103,G4,358.333,0.083,66,85.5
3104,G5,358.333,0.083,66,85.5
3105,E-2,358.5,0.5,69,85.5
3106,G#4,358.5,0.083,70,85.5
3107,G#5,358.5,0.083,70,85.5
3108,A4,358.667,0.083,74,85.5
3109,A5,358.667,0.083,74,85.5
3110,E-3,358.75,0.25,60,85.5
3111,B-4,358.833,0.083,74,85.5
3112,B-5,358.833,0.083,74,85.5
3113,F2,359.0,0.479,56,85.5
3114,B-4,359.0,0.5,71,85.5
3115,B-3,359.0,0.5,71,85.5
3116,D3,359.25,0.25,42,85.5
3117,F2,359.5,0.5,49,85.5
3118,C5,359.5,0.5,64,85.5
3119,C4,359.5,0.5,64,85.5
3120,A2,359.75,0.25,43,85.5
3121,B-1,360.0,0.25,43,85.5
3122,C#4,360.0,0.5,45,85.5
3123,C#5,360.0,0.5,45,85.5
3124,B-2,360.25,1.25,29,85.5
3125,B-3,360.5,0.125,35,85.5
3126,D4,360.5,0.625,42,85.5
3127,D5,360.5,0.625,42,85.5
3128,B-3,360.75,0.125,29,85.5
3129,B-3,361.0,0.125,49,85.5
3130,B-4,361.125,0.125,59,85.5
3131,A4,361.25,0.125,61,85.5
3132,B-3,361.25,0.125,39,85.5
3133,B-4,361.375,0.125,62,85.5
3134,B4,361.5,0.125,62,85.5
3135,G#3,361.5,0.5,50,85.5
3136,C5,361.625,0.125,64,85.5
3137,C#5,361.75,0.125,65,85.5
3138,B-3,361.75,0.25,39,85.5
3139,D5,361.875,0.125,67,85.5
3140,E-5,362.0,0.125,69,85.5
3141,G3,362.0,0.5,63,85.5
3142,E5,362.125,0.125,70,85.5
3143,F5,362.25,0.125,71,85.5
3144,B-3,362.25,0.25,52,85.5
3145,F#5,362.375,0.125,73,85.5
3146,G5,362.5,0.125,74,85.5
3147,E-3,362.5,0.5,56,85.5
3148,G#5,362.625,0.125,76,85.5
3149,A5,362.75,0.125,77,85.5
3150,E-4,362.75,0.25,50,85.5
3151,B-5,362.875,0.125,78,85.5
3152,B-4,363.0,0.1,53,85.5
3153,F3,363.0,0.479,35,85.5
3154,C5,363.1,0.1,48,85.5
3155,B-4,363.2,0.1,45,85.5
3156,D4,363.25,0.25,29,85.5
3157,A4,363.3,0.1,45,85.5
3158,B-4,363.4,0.1,45,85.5
3159,E-4,363.5,0.5,44,85.5
3160,D5,363.5,0.375,52,85.5
3161,F3,363.5,0.5,35,85.5
3162,A3,363.75,0.25,29,85.5
3163,C5,363.875,0.125,41,85.5
3164,B-4,364.0,0.125,53,85.5
3165,D4,364.0,0.5,53,85.5
3166,B-2,364.0,0.5,36,85.5
3167,B-3,364.0,0.5,36,85.5
3168,F4,364.125,0.125,59,85.5
3169,G4,364.25,0.125,62,85.5
3170,A4,364.375,0.125,64,85.5
3171,B-4,364.5,0.125,67,85.5
3172,C5,364.625,0.125,71,85.5
3173,D5,364.75,0.125,78,85.5
3174,E-5,364.875,0.125,84,85.5
3175,B-4,365.0,1.0,93,85.5
3176,F5,365.0,1.0,93,85.5
3177,D4,365.0,1.0,74,85.5
3178,F4,365.0,1.0,74,85.5
3179,A4,366.0,1.0,93,85.5
3180,F5,366.0,1.0,93,85.5
3181,C4,366.0,1.0,72,85.5
3182,E-4,366.0,1.0,72,85.5
3183,F4,366.0,1.0,72,85.5
3184,B-4,367.0,0.75,85,85.5
3185,F5,367.0,1.0,101,85.5
3186,B-3,367.0,1.0,72,85.5
3187,D4,367.0,1.0,72,85.5
3188,F4,367.0,1.0,72,85.5
3189,C5,367.75,0.125,85,85.5
3190,D5,367.875,0.125,85,85.5
3191,E-5,368.0,1.0,93,85.5
3192,F5,368.0,1.0,93,85.5
3193,F4,368.0,1.0,72,85.5
3194,C4,368.0,1.0,72,85.5
3195,A3,368.0,1.0,72,85.5
3196,D5,369.0,0.75,85,85.5
3197,B-5,369.0,1.0,101,85.5
3198,F4,369.0,1.0,77,85.5
3199,G#3,369.0,1.0,77,85.5
3200,B-3,369.0,1.0,77,85.5
3201,E-5,369.75,0.125,56,85.5
3202,F5,369.875,0.125,57,85.5
3203,B-5,370.0,0.125,74,85.5
3204,G5,370.0,0.125,74,85.5
3205,E-4,370.0,0.125,58,85.5
3206,B-3,370.0,0.125,58,85.5
3207,G3,370.0,0.125,58,85.5
3208,C5,370.5,0.125,48,85.5
3209,C6,370.5,0.125,48,85.5
3210,G5,370.5,0.125,48,85.5
3211,C4,370.5,0.125,31,85.5
3212,B-3,370.5,0.125,31,85.5
3213,E3,370.5,0.125,31,85.5
3214,D6,371.0,0.125,56,85.5
3215,F5,371.0,0.125,56,85.5
3216,D5,371.0,0.125,56,85.5
3217,D4,371.0,0.125,35,85.5
3218,B-3,371.0,0.125,35,85.5
3219,F3,371.0,0.125,35,85.5
3220,E-6,371.5,0.125,50,85.5
3221,E-5,371.5,0.125,50,85.5
3222,C4,371.5,0.125,31,85.5
3223,A3,371.5,0.125,31,85.5
3224,F3,371.5,0.125,31,85.5
3225,D5,372.0,1.0,51,85.5
3226,D6,372.0,0.5,61,85.5
3227,B-2,372.0,0.5,36,85.5
3228,B-3,372.0,0.5,36,85.5
3229,B-5,372.5,0.25,53,85.5
3230,D4,373.0,0.138,70,85.5
3231,B-4,373.0,1.0,89,85.5
3232,F5,373.0,1.0,89,85.5
3233,C#4,373.125,0.138,56,85.5
3234,D4,373.25,0.138,60,85.5
3235,C#4,373.375,0.138,55,85.5
3236,D4,373.5,0.138,60,85.5
3237,F4,373.625,0.138,55,85.5
3238,E-4,373.75,0.138,55,85.5
3239,D4,373.875,0.125,55,85.5
3240,C4,374.0,0.138,70,85.5
3241,A4,374.0,1.0,89,85.5
3242,F5,374.0,1.0,89,85.5
3243,B3,374.125,0.138,56,85.5
3244,C4,374.25,0.138,60,85.5
3245,B3,374.375,0.138,55,85.5
3246,C4,374.5,0.138,60,85.5
3247,E-4,374.625,0.138,55,85.5
3248,D4,374.75,0.138,55,85.5
3249,C4,374.875,0.125,55,85.5
3250,B-4,375.0,0.75,81,85.5
3251,F5,375.0,1.0,97,85.5
3252,B-3,375.0,0.138,70,85.5
3253,A3,375.125,0.138,56,85.5
3254,B-3,375.25,0.138,60,85.5
3255,A3,375.375,0.138,55,85.5
3256,B-3,375.5,0.138,60,85.5
3257,D4,375.625,0.138,55,85.5
3258,C5,375.75,0.125,81,85.5
3259,C4,375.75,0.138,55,85.5
3260,D5,375.875,0.125,81,85.5
3261,B-3,375.875,0.125,55,85.5
3262,A3,376.0,0.138,70,85.5
3263,E-5,376.0,1.0,89,85.5
3264,F5,376.0,1.0,89,85.5
3265,G#3,376.125,0.138,56,85.5
3266,A3,376.25,0.138,60,85.5
3267,G#3,376.375,0.138,55,85.5
3268,A3,376.5,0.138,60,85.5
3269,C4,376.625,0.138,55,85.5
3270,B-3,376.75,0.138,55,85.5
3271,A3,376.875,0.125,55,85.5
3272,D5,377.0,0.75,81,85.5
3273,B-5,377.0,1.125,97,85.5
3274,G#3,377.0,0.138,70,85.5
3275,G3,377.125,0.138,56,85.5
3276,G#3,377.25,0.138,60,85.5
3277,G3,377.375,0.138,55,85.5
3278,G#3,377.5,0.138,60,85.5
3279,C4,377.625,0.138,55,85.5
3280,E-5,377.75,0.125,67,85.5
3281,B-3,377.75,0.138,55,85.5
3282,F5,377.875,0.125,68,85.5
3283,G#3,377.875,0.125,55,85.5
3284,G3,378.0,0.138,70,85.5
3285,G5,378.0,0.125,89,85.5
3286,E-5,378.0,0.125,89,85.5
3287,B-3,378.125,0.138,48,85.5
3288,A3,378.25,0.138,43,85.5
3289,B-3,378.375,0.125,43,85.5
3290,E3,378.5,0.138,49,85.5
3291,C5,378.5,0.125,71,85.5
3292,C6,378.5,0.125,71,85.5
3293,G5,378.5,0.125,71,85.5
3294,B-3,378.625,0.138,43,85.5
3295,A3,378.75,0.138,42,85.5
3296,B-3,378.875,0.125,43,85.5
3297,F3,379.0,0.138,57,85.5
3298,D6,379.0,0.125,87,85.5
3299,F5,379.0,0.125,87,85.5
3300,D5,379.0,0.125,87,85.5
3301,B-3,379.125,0.138,46,85.5
3302,A3,379.25,0.138,50,85.5
3303,B-3,379.375,0.125,50,85.5
3304,F3,379.5,0.138,60,85.5
3305,E-6,379.5,0.125,80,85.5
3306,E-5,379.5,0.125,80,85.5
3307,A3,379.625,0.138,50,85.5
3308,G#3,379.75,0.138,50,85.5
3309,A3,379.875,0.125,51,85.5
3310,D5,380.0,1.0,75,85.5
3311,D6,380.0,0.5,104,85.5
3312,B-3,380.0,0.125,61,85.5
3313,C4,380.125,0.125,56,85.5
3314,D4,380.25,0.125,58,85.5
3315,E-4,380.375,0.125,61,85.5
3316,B-5,380.5,0.25,81,85.5
3317,F4,380.5,0.125,63,85.5
3318,G4,380.625,0.125,66,85.5
3319,A4,380.75,0.125,68,85.5
3320,B-4,380.875,0.125,72,85.5
3321,B-5,381.0,1.125,106,85.5
3322,G#4,381.0,0.138,76,85.5
3323,B-4,381.0,0.75,81,85.5
3324,D5,381.0,0.75,81,85.5
3325,G4,381.125,0.138,61,85.5
3326,F4,381.25,0.138,66,85.5
3327,E-4,381.375,0.138,60,85.5
3328,D4,381.5,0.138,66,85.5
3329,C4,381.625,0.138,60,85.5
3330,B-3,381.75,0.138,60,85.5
3331,C5,381.75,0.125,67,85.5
3332,E-5,381.75,0.125,67,85.5
3333,G#3,381.875,0.125,60,85.5
3334,D5,381.875,0.125,68,85.5
3335,F5,381.875,0.125,68,85.5
3336,G3,382.0,0.138,76,85.5
3337,G5,382.0,0.125,97,85.5
3338,E-5,382.0,0.125,97,85.5
3339,B-3,382.125,0.138,52,85.5
3340,A3,382.25,0.138,46,85.5
3341,B-3,382.375,0.125,46,85.5
3342,E3,382.5,0.138,44,85.5
3343,C5,382.5,0.125,77,85.5
3344,C6,382.5,0.125,77,85.5
3345,G5,382.5,0.125,77,85.5
3346,B-3,382.625,0.138,52,85.5
3347,A3,382.75,0.138,46,85.5
3348,B-3,382.875,0.125,48,85.5
3349,F3,383.0,0.138,62,85.5
3350,D6,383.0,0.125,96,85.5
3351,F5,383.0,0.125,96,85.5
3352,D5,383.0,0.125,96,85.5
3353,B-3,383.125,0.138,50,85.5
3354,A3,383.25,0.138,55,85.5
3355,B-3,383.375,0.125,55,85.5
3356,F3,383.5,0.138,66,85.5
3357,E-6,383.5,0.125,90,85.5
3358,E-5,383.5,0.125,90,85.5
3359,A3,383.625,0.138,55,85.5
3360,G#3,383.75,0.138,55,85.5
3361,A3,383.875,0.125,56,85.5
3362,D5,384.0,0.979,82,85.5
3363,D6,384.0,0.5,114,85.5
3364,B-3,384.0,0.125,67,85.5
3365,A3,384.125,0.125,61,85.5
3366,G3,384.25,0.125,63,85.5
3367,F3,384.375,0.125,67,85.5
3368,B-5,384.5,0.25,88,85.5
3369,E-3,384.5,0.125,69,85.5
3370,D3,384.625,0.125,72,85.5
3371,C3,384.75,0.125,74,85.5
3372,B-2,384.875,0.125,79,85.5
3373,B-5,385.0,1.125,111,85.5
3374,G#2,385.0,0.138,76,85.5
3375,B-4,385.0,0.75,94,85.5
3376,D5,385.0,0.75,94,85.5
3377,G2,385.125,0.138,61,85.5
3378,F2,385.25,0.138,66,85.5
3379,E-2,385.375,0.138,60,85.5
3380,D2,385.5,0.138,66,85.5
3381,C2,385.625,0.138,60,85.5
3382,B-1,385.75,0.138,60,85.5
3383,C5,385.75,0.125,80,85.5
3384,E-5,385.75,0.125,80,85.5
3385,G#1,385.875,0.125,60,85.5
3386,D5,385.875,0.125,82,85.5
3387,F5,385.875,0.125,82,85.5
3388,G1,386.0,0.138,87,85.5
3389,G5,386.0,0.125,90,85.5
3390,E-5,386.0,0.125,90,85.5
3391,G2,386.125,0.138,56,85.5
3392,F#2,386.25,0.138,58,85.5
3393,G2,386.375,0.125,58,85.5
3394,F#1,386.5,0.138,84,85.5
3395,E5,386.5,0.125,89,85.5
3396,C5,386.5,0.125,89,85.5
3397,C6,386.5,0.125,89,85.5
3398,B-5,386.5,0.125,89,85.5
3399,F#2,386.625,0.138,63,85.5
3400,F2,386.75,0.138,62,85.5
3401,F#2,386.875,0.125,62,85.5
3402,F1,387.0,0.138,93,85.5
3403,B-5,387.0,0.125,95,85.5
3404,D6,387.0,0.125,95,85.5
3405,F5,387.0,0.125,95,85.5
3406,D5,387.0,0.125,95,85.5
3407,F2,387.125,0.138,66,85.5
3408,E2,387.25,0.138,66,85.5
3409,F2,387.375,0.125,66,85.5
3410,F1,387.5,0.138,90,85.5
3411,E-5,387.5,0.125,87,85.5
3412,A5,387.5,0.125,87,85.5
3413,A4,387.5,0.125,87,85.5
3414,F2,387.625,0.138,68,85.5
3415,E2,387.75,0.138,68,85.5
3416,F2,387.875,0.125,68,85.5
3417,B-1,388.0,0.5,96,85.5
3418,D5,388.0,0.125,92,85.5
3419,B-4,388.0,0.125,92,85.5
3420,B-5,388.0,0.125,92,85.5
3421,F5,388.25,0.25,45,85.5
3422,G5,388.5,0.25,50,85.5
3423,F5,388.75,0.25,46,85.5
3424,F4,388.75,0.25,39,85.5
3425,E-5,389.0,0.25,50,85.5
3426,G4,389.0,0.25,42,85.5
3427,D5,389.25,0.25,43,85.5
3428,F4,389.25,0.25,36,85.5
3429,C5,389.5,0.25,46,85.5
3430,E-4,389.5,0.25,39,85.5
3431,B-4,389.75,0.25,43,85.5
3432,D4,389.75,0.25,36,85.5
3433,E-4,390.0,1.479,40,85.5
3434,A4,390.0,0.25,50,85.5
3435,F3,390.0,1.0,35,85.5
3436,C4,390.0,0.25,42,85.5
3437,G4,390.25,0.25,46,85.5
3438,B-3,390.25,0.25,37,85.5
3439,F4,390.5,1.0,47,85.5
3440,A3,390.5,0.25,39,85.5
3441,G3,390.75,0.25,36,85.5
3442,F2,391.0,1.0,35,85.5
3443,F3,391.0,0.25,39,85.5
3444,E-3,391.25,0.25,37,85.5
3445,E-4,391.5,0.5,37,85.5
3446,G4,391.5,0.25,44,85.5
3447,D3,391.5,0.25,36,85.5
3448,A4,391.75,0.25,42,85.5
3449,C3,391.75,0.25,34,85.5
3450,B-2,392.0,0.5,53,85.5
3451,D4,392.0,0.125,38,85.5
3452,B-4,392.0,0.125,38,85.5
3453,F4,392.25,0.25,38,85.5
3454,G4,392.5,0.25,42,85.5
3455,F4,392.75,0.25,39,85.5
3456,F3,392.75,0.25,33,85.5
3457,E-4,393.0,0.25,42,85.5
3458,G3,393.0,0.25,35,85.5
3459,D4,393.25,0.25,37,85.5
3460,F3,393.25,0.25,32,85.5
3461,C4,393.5,0.25,39,85.5
3462,E-3,393.5,0.25,33,85.5
3463,B-3,393.75,0.25,37,85.5
3464,D3,393.75,0.25,32,85.5
3465,E-3,394.0,1.479,34,85.5
3466,A3,394.0,0.25,42,85.5
3467,F2,394.0,1.0,30,85.5
3468,C3,394.0,0.25,35,85.5
3469,G3,394.25,0.25,39,85.5
3470,B-2,394.25,0.25,32,85.5
3471,F3,394.5,1.0,39,85.5
3472,A2,394.5,0.25,33,85.5
3473,G2,394.75,0.25,29,85.5
3474,F1,395.0,1.0,30,85.5
3475,F2,395.0,0.25,33,85.5
3476,E-2,395.25,0.25,31,85.5
3477,E-3,395.5,0.5,31,85.5
3478,G3,395.5,0.25,37,85.5
3479,D2,395.5,0.25,30,85.5
3480,A3,395.75,0.25,35,85.5
3481,C2,395.75,0.25,28,85.5
3482,B-1,396.0,0.125,31,85.5
3483,D3,396.0,0.125,34,85.5
3484,B-3,396.0,0.125,34,85.5
3485,E-4,396.5,0.125,42,85.5
3486,A4,396.5,0.125,42,85.5
3487,F3,396.5,0.125,35,85.5
3488,C4,396.5,0.125,35,85.5
3489,B-3,397.0,0.125,35,85.5
3490,D4,397.0,0.125,42,85.5
3491,B-4,397.0,0.125,42,85.5
3492,C5,397.5,0.125,94,85.5
3493,E-5,397.5,0.125,94,85.5
3494,A5,397.5,0.125,94,85.5
3495,F2,397.5,0.125,77,85.5
3496,F3,397.5,0.125,77,85.5
3497,B-4,398.0,0.125,104,85.5
3498,D5,398.0,0.125,104,85.5
3499,B-5,398.0,0.125,104,85.5
3500,B-1,398.0,0.125,86,85.5
3501,B-2,398.0,0.125,86,85.5
,note_name,start_time,duration,velocity,tempo
0,G4,2.0,0.25,69,149.8
1,E4,2.0,0.25,69,149.8
2,B3,2.0,0.25,69,149.8
3,G3,2.0,0.25,69,149.8
4,E3,2.0,0.25,58,149.8
5,E2,2.0,0.25,58,149.8
6,G4,3.0,1.5,84,149.8
7,G3,3.0,2.0,70,149.8
8,B3,3.0,2.0,70,149.8
9,E4,3.0,2.0,70,149.8
10,E2,3.0,2.0,66,149.8
11,E3,3.0,2.0,66,149.8
12,F#4,4.5,0.5,77,149.8
13,E4,5.0,0.25,62,149.8
14,G3,5.0,0.25,62,149.8
15,E3,5.0,0.25,58,149.8
16,E2,5.0,0.25,58,149.8
17,A3,6.0,0.5,75,149.8
18,F#4,6.0,0.5,75,149.8
19,A4,6.0,0.5,75,149.8
20,D2,6.0,0.5,66,149.8
21,D3,6.0,0.5,66,149.8
22,D4,8.0,1.0,29,149.8
23,A4,8.0,1.0,34,149.8
24,F#4,8.0,1.0,34,149.8
25,F#4,9.0,1.5,41,149.8
26,A4,9.0,1.5,41,149.8
27,C4,9.0,1.5,33,149.8
28,D4,9.0,1.5,33,149.8
29,G4,10.5,0.5,40,149.8
30,D4,10.5,0.5,28,149.8
31,B3,10.5,0.5,28,149.8
32,A4,11.0,0.75,38,149.8
33,F#4,11.0,0.75,38,149.8
34,A3,11.0,0.75,26,149.8
35,C4,11.0,0.75,26,149.8
36,B4,12.0,0.75,40,149.8
37,G4,12.0,0.75,40,149.8
38,G3,12.0,0.75,33,149.8
39,B3,12.0,0.75,33,149.8
40,B4,14.0,0.25,69,149.8
41,G4,14.0,0.25,69,149.8
42,D4,14.0,0.25,69,149.8
43,B3,14.0,0.25,69,149.8
44,G3,14.0,0.25,58,149.8
45,G2,14.0,0.25,58,149.8
46,B4,15.0,1.5,84,149.8
47,D4,15.0,2.0,70,149.8
48,B3,15.0,2.0,70,149.8
49,G4,15.0,2.0,70,149.8
50,G2,15.0,2.0,66,149.8
51,G3,15.0,2.0,66,149.8
52,A4,16.5,0.5,77,149.8
53,G4,17.0,0.25,62,149.8
54,B3,17.0,0.25,62,149.8
55,G2,17.0,0.25,58,149.8
56,G1,17.0,0.25,58,149.8
57,C#4,18.0,0.5,75,149.8
58,B-4,18.0,0.5,75,149.8
59,C#5,18.0,0.5,75,149.8
60,F#1,18.0,0.5,66,149.8
61,F#2,18.0,0.5,66,149.8
62,F#4,20.0,1.0,29,149.8
63,C#5,20.0,1.0,34,149.8
64,B-4,20.0,1.0,34,149.8
65,B-4,21.0,1.5,41,149.8
66,C#5,21.0,1.5,41,149.8
67,E4,21.0,1.5,33,149.8
68,F#4,21.0,1.5,33,149.8
69,B4,22.5,0.5,40,149.8
70,F#4,22.5,0.5,28,149.8
71,D4,22.5,0.5,28,149.8
72,C#5,23.0,0.75,38,149.8
73,B-4,23.0,0.75,38,149.8
74,C#4,23.0,0.75,26,149.8
75,E4,23.0,0.75,26,149.8
76,D5,24.0,0.75,40,149.8
77,B4,24.0,0.75,40,149.8
78,B3,24.0,0.75,33,149.8
79,D4,24.0,0.75,33,149.8
80,D5,26.0,2.0,70,149.8
81,D4,27.0,2.0,38,149.8
82,B3,27.0,3.0,38,149.8
83,G4,27.0,5.0,45,149.8
84,G5,28.0,1.0,70,149.8
85,E5,29.0,1.0,62,149.8
86,E4,29.0,3.0,50,149.8
87,D5,30.0,1.0,66,149.8
88,A3,30.0,2.0,39,149.8
89,C5,31.0,0.95,56,149.8
90,C5,32.0,2.0,61,149.8
91,F#4,32.0,3.0,38,149.8
92,E-4,32.0,1.0,32,149.8
93,D4,33.0,2.0,34,149.8
94,A5,34.0,1.0,61,149.8
95,C5,35.0,2.0,52,149.8
96,F#4,35.0,1.0,46,149.8
97,G4,36.0,2.0,46,149.8
98,B4,37.0,0.95,61,149.8
99,B4,38.0,2.0,55,149.8
100,G3,38.0,1.0,45,149.8
101,E3,39.0,2.0,49,149.8
102,G4,40.0,0.95,50,149.8
103,G4,41.0,2.0,44,149.8
104,E4,41.0,1.0,41,149.8
105,C4,42.0,2.0,40,149.8
106,E4,43.0,0.95,43,149.8
107,E4,44.0,2.0,41,149.8
108,C3,44.0,4.0,28,149.8
109,C2,45.0,3.0,28,149.8
110,G3,46.0,1.0,36,149.8
111,E3,47.0,1.0,24,149.8
112,E-3,48.0,1.8,26,149.8
113,B3,48.0,1.8,26,149.8
114,B2,48.0,1.8,26,149.8
115,B1,48.0,1.8,26,149.8
116,E5,50.0,2.5,56,149.8
117,E6,50.0,2.5,56,149.8
118,E3,51.0,6.0,28,149.8
119,B3,51.0,3.0,31,149.8
120,G2,51.0,3.0,31,149.8
121,E-5,52.5,0.5,49,149.8
122,E-6,52.5,0.5,49,149.8
123,E5,53.0,1.0,52,149.8
124,E6,53.0,1.0,52,149.8
125,A2,54.0,2.0,39,149.8
126,C4,54.0,2.0,54,149.8
127,E4,54.0,2.0,54,149.8
128,F#4,54.0,2.0,54,149.8
129,B-2,56.0,1.0,43,149.8
130,F#4,56.0,1.0,59,149.8
131,E4,56.0,1.0,59,149.8
132,C#4,56.0,1.0,59,149.8
133,F#4,57.0,1.5,71,149.8
134,B2,57.0,3.0,49,149.8
135,A3,57.0,3.0,60,149.8
136,E-4,57.0,3.0,60,149.8
137,G4,58.5,0.5,51,149.8
138,A4,59.0,0.5,56,149.8
139,G4,59.5,0.5,43,149.8
140,F#4,60.0,1.0,47,149.8
141,G3,60.0,2.0,26,149.8
142,C3,60.0,2.0,26,149.8
143,E4,61.0,1.0,39,149.8
144,B2,62.0,0.5,32,149.8
145,E5,62.0,2.5,56,149.8
146,E6,62.0,2.5,56,149.8
147,A2,62.5,0.5,35,149.8
148,E3,63.0,6.0,39,149.8
149,G2,63.0,2.0,39,149.8
150,B3,63.0,3.0,39,149.8
151,E-5,64.5,0.5,56,149.8
152,E-6,64.5,0.5,56,149.8
153,G#2,65.0,1.0,37,149.8
154,E5,65.0,1.0,61,149.8
155,E6,65.0,1.0,61,149.8
156,A2,66.0,2.0,39,149.8
157,C4,66.0,2.0,54,149.8
158,E4,66.0,2.0,54,149.8
159,F#4,66.0,2.0,54,149.8
160,B-2,68.0,1.0,34,149.8
161,F#4,68.0,1.0,47,149.8
162,E4,68.0,1.0,47,149.8
163,C#4,68.0,1.0,47,149.8
164,F#4,69.0,1.5,55,149.8
165,A3,69.0,3.0,46,149.8
166,E-4,69.0,3.0,46,149.8
167,B1,69.0,3.0,34,149.8
168,B2,69.0,3.0,34,149.8
169,A4,70.5,0.5,38,149.8
170,G4,71.0,0.5,41,149.8
171,F#4,71.5,0.5,32,149.8
172,G3,72.0,1.0,33,149.8
173,E4,72.0,1.0,33,149.8
174,E3,72.0,1.0,20,149.8
175,E2,72.0,1.0,20,149.8
176,B3,74.0,0.25,33,149.8
177,B4,74.0,0.25,33,149.8
178,B1,74.0,0.25,28,149.8
179,B2,74.0,0.25,28,149.8
180,B4,75.0,2.0,38,149.8
181,B3,75.0,2.0,38,149.8
182,B1,75.0,2.0,31,149.8
183,B2,75.0,2.0,31,149.8
184,E4,77.0,0.25,33,149.8
185,E5,77.0,0.25,33,149.8
186,E2,77.0,0.25,28,149.8
187,E3,77.0,0.25,28,149.8
188,E5,78.0,2.0,38,149.8
189,E4,78.0,2.0,38,149.8
190,E2,78.0,2.0,31,149.8
191,E3,78.0,2.0,31,149.8
192,B4,80.0,0.25,33,149.8
193,B5,80.0,0.25,33,149.8
194,B2,80.0,0.25,28,149.8
195,B3,80.0,0.25,28,149.8
196,B5,81.0,2.0,37,149.8
197,B4,81.0,2.0,37,149.8
198,B2,81.0,2.0,31,149.8
199,B3,81.0,2.0,31,149.8
200,E6,83.0,0.25,33,149.8
201,E5,83.0,0.25,33,149.8
202,E3,83.0,0.25,28,149.8
203,E4,83.0,0.25,28,149.8
204,E5,84.0,2.0,38,149.8
205,E6,84.0,2.0,38,149.8
206,E3,84.0,2.0,31,149.8
207,E4,84.0,2.0,31,149.8
208,F5,86.0,0.25,73,149.8
209,B5,86.0,0.25,73,149.8
210,D6,86.0,0.25,73,149.8
211,F6,86.0,0.25,73,149.8
212,G3,86.0,0.25,57,149.8
213,B3,86.0,0.25,57,149.8
214,D4,86.0,0.25,57,149.8
215,F4,86.0,0.25,57,149.8
216,F5,87.0,1.5,80,149.8
217,B5,87.0,1.5,80,149.8
218,D6,87.0,1.5,80,149.8
219,F6,87.0,1.5,80,149.8
220,G3,87.0,1.5,62,149.8
221,B3,87.0,1.5,62,149.8
222,D4,87.0,1.5,62,149.8
223,F4,87.0,1.5,62,149.8
224,E6,88.5,0.275,70,149.8
225,D6,88.75,0.275,69,149.8
226,C6,89.0,0.275,68,149.8
227,B5,89.25,0.275,68,149.8
228,A5,89.5,0.275,68,149.8
229,G5,89.75,0.275,66,149.8
230,F5,90.0,0.275,64,149.8
231,E5,90.25,0.275,64,149.8
232,D5,90.5,0.275,64,149.8
233,C5,90.75,0.275,64,149.8
234,B4,91.0,0.183,63,149.8
235,A4,91.167,0.183,63,149.8
236,G4,91.333,0.183,63,149.8
237,F4,91.5,0.183,63,149.8
238,E4,91.667,0.183,63,149.8
239,D4,91.833,0.183,63,149.8
240,C4,92.0,0.221,63,149.8
241,B3,92.2,0.221,63,149.8
242,A3,92.4,0.221,63,149.8
243,G3,92.6,0.221,62,149.8
244,F#3,92.8,0.221,62,149.8
245,G3,93.0,0.5,89,149.8
246,F4,95.0,0.25,36,149.8
247,D4,95.0,0.25,36,149.8
248,G3,95.0,0.25,36,149.8
249,B2,95.0,0.25,26,149.8
250,B1,95.0,0.25,26,149.8
251,E4,96.0,0.5,40,149.8
252,C4,96.0,0.5,40,149.8
253,G3,96.0,0.5,40,149.8
254,C2,96.0,0.5,32,149.8
255,C3,96.0,0.5,32,149.8
256,D5,98.0,0.25,80,149.8
257,G#5,98.0,0.25,80,149.8
258,B5,98.0,0.25,80,149.8
259,D6,98.0,0.25,80,149.8
260,E3,98.0,0.25,62,149.8
261,G#3,98.0,0.25,62,149.8
262,B3,98.0,0.25,62,149.8
263,D4,98.0,0.25,62,149.8
264,D5,99.0,1.5,88,149.8
265,G#5,99.0,1.5,88,149.8
266,B5,99.0,1.5,88,149.8
267,D6,99.0,1.5,88,149.8
268,E3,99.0,1.5,68,149.8
269,G#3,99.0,1.5,68,149.8
270,B3,99.0,1.5,68,149.8
271,D4,99.0,1.5,68,149.8
272,C6,100.5,0.275,70,149.8
273,B5,100.75,0.275,69,149.8
274,A5,101.0,0.275,68,149.8
275,G#5,101.25,0.275,68,149.8
276,F#5,101.5,0.275,68,149.8
277,E5,101.75,0.275,66,149.8
278,D5,102.0,0.275,64,149.8
279,C5,102.25,0.275,64,149.8
280,B4,102.5,0.275,64,149.8
281,A4,102.75,0.275,64,149.8
282,G#4,103.0,0.183,63,149.8
283,F#4,103.167,0.183,63,149.8
284,E4,103.333,0.183,63,149.8
285,D4,103.5,0.183,63,149.8
286,C4,103.667,0.183,63,149.8
287,B3,103.833,0.183,63,149.8
288,A3,104.0,0.221,63,149.8
289,G#3,104.2,0.221,63,149.8
290,F#3,104.4,0.221,63,149.8
291,E3,104.6,0.221,62,149.8
292,E-3,104.8,0.221,62,149.8
293,E3,105.0,1.0,89,149.8
294,D4,107.0,0.25,36,149.8
295,B3,107.0,0.25,36,149.8
296,E3,107.0,0.25,36,149.8
297,G#2,107.0,0.25,26,149.8
298,G#1,107.0,0.25,26,149.8
299,C4,108.0,0.5,40,149.8
300,A3,108.0,0.5,40,149.8
301,E3,108.0,0.5,40,149.8
302,A1,108.0,0.5,32,149.8
303,A2,108.0,0.5,32,149.8
304,B-5,110.0,0.938,57,149.8
305,B-3,110.0,0.938,50,149.8
306,B-5,111.0,1.5,60,149.8
307,B-3,111.0,4.0,50,149.8
308,A5,112.5,0.275,53,149.8
309,G5,112.75,0.275,53,149.8
310,F5,113.0,0.275,51,149.8
311,E-5,113.25,0.275,51,149.8
312,D5,113.5,0.275,51,149.8
313,C5,113.75,0.275,51,149.8
314,B-4,114.0,0.275,51,149.8
315,A4,114.25,0.275,50,149.8
316,G4,114.5,0.275,49,149.8
317,F4,114.75,0.275,49,149.8
318,E-4,115.0,0.367,53,149.8
319,D4,115.333,0.367,49,149.8
320,C4,115.667,0.367,44,149.8
321,B-3,116.0,0.979,53,149.8
322,B-3,117.0,5.0,53,149.8
323,E4,119.0,0.9,53,149.8
324,E4,120.0,2.0,62,149.8
325,G4,122.0,0.9,53,149.8
326,B-3,122.0,0.9,49,149.8
327,E4,122.0,0.9,49,149.8
328,G4,123.0,2.0,59,149.8
329,E4,123.0,2.0,54,149.8
330,B-3,123.0,2.0,54,149.8
331,G4,125.0,0.9,58,149.8
332,C#5,125.0,0.9,58,149.8
333,B-3,125.0,0.9,49,149.8
334,E4,125.0,0.9,49,149.8
335,C#5,126.0,2.0,62,149.8
336,G4,126.0,2.0,62,149.8
337,E4,126.0,2.0,59,149.8
338,B-3,126.0,2.0,59,149.8
339,C#5,128.0,0.9,62,149.8
340,E5,128.0,0.9,62,149.8
341,G5,128.0,0.9,62,149.8
342,B-3,128.0,0.9,52,149.8
343,C#4,128.0,0.9,52,149.8
344,E4,128.0,0.9,52,149.8
345,G4,128.0,0.9,52,149.8
346,G5,129.0,2.0,78,149.8
347,G4,129.0,2.0,69,149.8
348,C#5,129.0,5.0,66,149.8
349,E5,129.0,5.0,66,149.8
350,B-3,129.0,5.0,58,149.8
351,C#4,129.0,5.0,58,149.8
352,E4,129.0,5.0,58,149.8
353,F#5,131.0,1.0,80,149.8
354,F#4,131.0,1.0,63,149.8
355,F5,132.0,2.0,84,149.8
356,F4,132.0,2.0,77,149.8
357,F#5,134.0,0.9,73,149.8
358,E5,134.0,0.9,73,149.8
359,C#5,134.0,0.9,73,149.8
360,F#4,134.0,0.9,66,149.8
361,E4,134.0,0.9,66,149.8
362,C#4,134.0,0.9,66,149.8
363,B-3,134.0,0.9,66,149.8
364,B4,135.0,3.0,85,149.8
365,D5,135.0,3.0,85,149.8
366,F#5,135.0,3.0,85,149.8
367,F#4,135.0,0.25,43,149.8
368,D4,135.0,0.25,43,149.8
369,B3,135.0,0.25,43,149.8
370,B3,135.5,0.25,35,149.8
371,D4,135.5,0.25,35,149.8
372,F#4,135.5,0.25,35,149.8
373,B3,136.0,0.25,35,149.8
374,D4,136.0,0.25,35,149.8
375,F#4,136.0,0.25,35,149.8
376,B3,136.5,0.25,35,149.8
377,D4,136.5,0.25,35,149.8
378,F#4,136.5,0.25,35,149.8
379,B3,137.0,0.25,35,149.8
380,D4,137.0,0.25,35,149.8
381,F#4,137.0,0.25,35,149.8
382,B3,137.5,0.25,35,149.8
383,D4,137.5,0.25,35,149.8
384,F#4,137.5,0.25,35,149.8
385,B4,138.0,3.0,85,149.8
386,F#5,138.0,3.0,85,149.8
387,B5,138.0,3.0,85,149.8
388,B3,138.0,0.25,43,149.8
389,F#3,138.0,0.25,43,149.8
390,D3,138.0,0.25,43,149.8
391,D3,138.5,0.25,36,149.8
392,F#3,138.5,0.25,36,149.8
393,B3,138.5,0.25,36,149.8
394,D3,139.0,0.25,36,149.8
395,F#3,139.0,0.25,36,149.8
396,B3,139.0,0.25,36,149.8
397,D3,139.5,0.25,36,149.8
398,F#3,139.5,0.25,36,149.8
399,B3,139.5,0.25,36,149.8
400,D3,140.0,0.25,36,149.8
401,F#3,140.0,0.25,36,149.8
402,B3,140.0,0.25,36,149.8
403,D3,140.5,0.25,36,149.8
404,F#3,140.5,0.25,36,149.8
405,B3,140.5,0.25,36,149.8
406,F#4,141.0,0.25,45,149.8
407,B4,141.0,0.25,45,149.8
408,A3,141.0,0.25,39,149.8
409,F#3,141.0,0.25,39,149.8
410,E-3,141.0,0.25,39,149.8
411,E-3,141.5,0.25,30,149.8
412,F#3,141.5,0.25,30,149.8
413,A3,141.5,0.25,30,149.8
414,C5,142.0,0.25,54,149.8
415,C4,142.0,0.25,54,149.8
416,G3,142.0,0.25,40,149.8
417,E3,142.0,0.25,40,149.8
418,G3,142.5,0.25,34,149.8
419,E3,142.5,0.25,34,149.8
420,G3,143.0,0.25,34,149.8
421,E3,143.0,0.25,34,149.8
422,G3,143.5,0.25,34,149.8
423,E3,143.5,0.25,34,149.8
424,C5,144.0,0.25,52,149.8
425,G4,144.0,0.25,52,149.8
426,B3,144.0,0.25,40,149.8
427,G3,144.0,0.25,40,149.8
428,E3,144.0,0.25,40,149.8
429,B3,144.5,0.25,32,149.8
430,G3,144.5,0.25,32,149.8
431,E3,144.5,0.25,32,149.8
432,E-5,145.0,0.25,54,149.8
433,E-4,145.0,0.25,54,149.8
434,A3,145.0,0.25,40,149.8
435,F#3,145.0,0.25,40,149.8
436,F#3,145.5,0.25,34,149.8
437,A3,145.5,0.25,34,149.8
438,F#3,146.0,0.25,34,149.8
439,A3,146.0,0.25,34,149.8
440,F#3,146.5,0.25,34,149.8
441,A3,146.5,0.25,34,149.8
442,E-5,147.0,0.25,52,149.8
443,A4,147.0,0.25,52,149.8
444,C4,147.0,0.25,39,149.8
445,A3,147.0,0.25,39,149.8
446,F#3,147.0,0.25,39,149.8
447,F#3,147.5,0.25,32,149.8
448,A3,147.5,0.25,32,149.8
449,C4,147.5,0.25,32,149.8
450,E5,148.0,0.25,58,149.8
451,E4,148.0,0.25,58,149.8
452,B3,148.0,0.25,40,149.8
453,G3,148.0,0.25,40,149.8
454,G3,148.5,0.25,36,149.8
455,B3,148.5,0.25,36,149.8
456,G3,149.0,0.25,36,149.8
457,B3,149.0,0.25,36,149.8
458,G3,149.5,0.25,36,149.8
459,B3,149.5,0.25,36,149.8
460,E5,150.0,0.25,55,149.8
461,B4,150.0,0.25,55,149.8
462,G#3,150.0,0.25,45,149.8
463,B3,150.0,0.25,45,149.8
464,G#3,150.5,0.25,39,149.8
465,B3,150.5,0.25,39,149.8
466,D4,150.5,0.25,39,149.8
467,F5,151.0,0.25,60,149.8
468,F4,151.0,0.25,60,149.8
469,G#3,151.0,0.25,42,149.8
470,B3,151.0,0.25,42,149.8
471,C#4,151.0,0.25,42,149.8
472,G#3,151.5,0.25,37,149.8
473,B3,151.5,0.25,37,149.8
474,C#4,151.5,0.25,37,149.8
475,G#3,152.0,0.25,38,149.8
476,B3,152.0,0.25,38,149.8
477,C#4,152.0,0.25,38,149.8
478,G#3,152.5,0.25,38,149.8
479,B3,152.5,0.25,38,149.8
480,C#4,152.5,0.25,38,149.8
481,C#4,153.0,0.25,34,149.8
482,G#4,153.0,0.25,41,149.8
483,B4,153.0,0.25,41,149.8
484,E5,153.0,0.25,41,149.8
485,C#4,153.5,0.25,32,149.8
486,F5,153.5,0.25,34,149.8
487,B4,153.5,0.25,34,149.8
488,G#4,153.5,0.25,34,149.8
489,C#4,154.0,0.25,32,149.8
490,F5,154.0,0.25,34,149.8
491,B4,154.0,0.25,34,149.8
492,G#4,154.0,0.25,34,149.8
493,C#4,154.5,0.25,32,149.8
494,F5,154.5,0.25,34,149.8
495,B4,154.5,0.25,34,149.8
496,G#4,154.5,0.25,34,149.8
497,C#4,155.0,0.25,32,149.8
498,F5,155.0,0.25,34,149.8
499,B4,155.0,0.25,34,149.8
500,G#4,155.0,0.25,34,149.8
501,C#4,155.5,0.25,32,149.8
502,F5,155.5,0.25,34,149.8
503,B4,155.5,0.25,34,149.8
504,G#4,155.5,0.25,34,149.8
505,C#4,156.0,0.25,40,149.8
506,G#4,156.0,0.25,41,149.8
507,B4,156.0,0.25,41,149.8
508,F5,156.0,0.25,41,149.8
509,C#4,156.5,0.25,45,149.8
510,F5,156.5,0.25,47,149.8
511,B4,156.5,0.25,47,149.8
512,G#4,156.5,0.25,47,149.8
513,C#4,157.0,0.25,49,149.8
514,F5,157.0,0.25,51,149.8
515,B4,157.0,0.25,51,149.8
516,G#4,157.0,0.25,51,149.8
517,C#4,157.5,0.25,52,149.8
518,F5,157.5,0.25,56,149.8
519,B4,157.5,0.25,56,149.8
520,G#4,157.5,0.25,56,149.8
521,C#4,158.0,0.25,56,149.8
522,F5,158.0,0.25,62,149.8
523,B4,158.0,0.25,62,149.8
524,G#4,158.0,0.25,62,149.8
525,C#4,158.5,0.25,58,149.8
526,F5,158.5,0.25,67,149.8
527,B4,158.5,0.25,67,149.8
528,G#4,158.5,0.25,67,149.8
529,F#5,159.0,0.25,83,149.8
530,B-5,159.0,0.25,83,149.8
531,C#6,159.0,0.25,83,149.8
532,E6,159.0,0.25,83,149.8
533,F#6,159.0,0.25,83,149.8
534,F#3,159.0,0.25,63,149.8
535,B-3,159.0,0.25,63,149.8
536,C#4,159.0,0.25,63,149.8
537,E4,159.0,0.25,63,149.8
538,G5,159.5,0.25,75,149.8
539,B-5,159.5,0.25,75,149.8
540,C#6,159.5,0.25,75,149.8
541,E6,159.5,0.25,75,149.8
542,G6,159.5,0.25,75,149.8
543,E4,159.5,0.25,52,149.8
544,C#4,159.5,0.25,52,149.8
545,B-3,159.5,0.25,52,149.8
546,F#3,159.5,0.25,52,149.8
547,G5,160.0,0.25,75,149.8
548,B-5,160.0,0.25,75,149.8
549,C#6,160.0,0.25,75,149.8
550,E6,160.0,0.25,75,149.8
551,G6,160.0,0.25,75,149.8
552,E4,160.0,0.25,52,149.8
553,C#4,160.0,0.25,52,149.8
554,B-3,160.0,0.25,52,149.8
555,F#3,160.0,0.25,52,149.8
556,G5,160.5,0.25,75,149.8
557,B-5,160.5,0.25,75,149.8
558,C#6,160.5,0.25,75,149.8
559,E6,160.5,0.25,75,149.8
560,G6,160.5,0.25,75,149.8
561,E4,160.5,0.25,52,149.8
562,C#4,160.5,0.25,52,149.8
563,B-3,160.5,0.25,52,149.8
564,F#3,160.5,0.25,52,149.8
565,G5,161.0,0.25,75,149.8
566,B-5,161.0,0.25,75,149.8
567,C#6,161.0,0.25,75,149.8
568,E6,161.0,0.25,75,149.8
569,G6,161.0,0.25,75,149.8
570,E4,161.0,0.25,52,149.8
571,C#4,161.0,0.25,52,149.8
572,B-3,161.0,0.25,52,149.8
573,F#3,161.0,0.25,52,149.8
574,G5,161.5,0.25,75,149.8
575,B-5,161.5,0.25,75,149.8
576,C#6,161.5,0.25,75,149.8
577,E6,161.5,0.25,75,149.8
578,G6,161.5,0.25,75,149.8
579,E4,161.5,0.25,52,149.8
580,C#4,161.5,0.25,52,149.8
581,B-3,161.5,0.25,52,149.8
582,F#3,161.5,0.25,52,149.8
583,G5,162.0,0.25,77,149.8
584,B-5,162.0,0.25,77,149.8
585,C#6,162.0,0.25,77,149.8
586,E6,162.0,0.25,77,149.8
587,G6,162.0,0.25,77,149.8
588,E4,162.0,0.25,56,149.8
589,C#4,162.0,0.25,56,149.8
590,B-3,162.0,0.25,56,149.8
591,F#3,162.0,0.25,56,149.8
592,G5,162.5,0.25,70,149.8
593,B-5,162.5,0.25,70,149.8
594,C#6,162.5,0.25,70,149.8
595,E6,162.5,0.25,70,149.8
596,G6,162.5,0.25,70,149.8
597,F#3,162.5,0.25,53,149.8
598,B-3,162.5,0.25,53,149.8
599,C#4,162.5,0.25,53,149.8
600,E4,162.5,0.25,53,149.8
601,G5,163.0,0.25,67,149.8
602,B-5,163.0,0.25,67,149.8
603,C#6,163.0,0.25,67,149.8
604,E6,163.0,0.25,67,149.8
605,G6,163.0,0.25,67,149.8
606,F#3,163.0,0.25,50,149.8
607,B-3,163.0,0.25,50,149.8
608,C#4,163.0,0.25,50,149.8
609,E4,163.0,0.25,50,149.8
610,G5,163.5,0.25,61,149.8
611,B-5,163.5,0.25,61,149.8
612,C#6,163.5,0.25,61,149.8
613,E6,163.5,0.25,61,149.8
614,G6,163.5,0.25,61,149.8
615,F#3,163.5,0.25,46,149.8
616,B-3,163.5,0.25,46,149.8
617,C#4,163.5,0.25,46,149.8
618,E4,163.5,0.25,46,149.8
619,G5,164.0,0.25,55,149.8
620,B-5,164.0,0.25,55,149.8
621,C#6,164.0,0.25,55,149.8
622,E6,164.0,0.25,55,149.8
623,G6,164.0,0.25,55,149.8
624,F#3,164.0,0.25,41,149.8
625,B-3,164.0,0.25,41,149.8
626,C#4,164.0,0.25,41,149.8
627,E4,164.0,0.25,41,149.8
628,G5,164.5,0.25,51,149.8
629,B-5,164.5,0.25,51,149.8
630,C#6,164.5,0.25,51,149.8
631,E6,164.5,0.25,51,149.8
632,G6,164.5,0.25,51,149.8
633,F#3,164.5,0.25,41,149.8
634,B-3,164.5,0.25,41,149.8
635,C#4,164.5,0.25,41,149.8
636,E4,164.5,0.25,41,149.8
637,B2,165.0,0.25,40,149.8
638,G6,165.0,1.0,56,149.8
639,G5,165.0,1.0,56,149.8
640,D4,165.25,0.25,34,149.8
641,F#3,165.5,0.25,37,149.8
642,D4,165.75,0.25,34,149.8
643,C#3,166.0,0.25,40,149.8
644,F#6,166.0,3.0,56,149.8
645,F#5,166.0,3.0,56,149.8
646,E4,166.25,0.25,34,149.8
647,F#3,166.5,0.25,37,149.8
648,E4,166.75,0.25,34,149.8
649,D3,167.0,0.25,40,149.8
650,F#4,167.25,0.25,35,149.8
651,F#3,167.5,0.25,38,149.8
652,F#4,167.75,0.25,35,149.8
653,B2,168.0,0.25,40,149.8
654,D4,168.25,0.25,34,149.8
655,F#3,168.5,0.25,37,149.8
656,D4,168.75,0.25,34,149.8
657,C#3,169.0,0.25,40,149.8
658,B4,169.0,3.0,56,149.8
659,B5,169.0,3.0,56,149.8
660,E4,169.25,0.25,34,149.8
661,F#3,169.5,0.25,37,149.8
662,E4,169.75,0.25,34,149.8
663,D3,170.0,0.25,40,149.8
664,F#4,170.25,0.25,35,149.8
665,F#3,170.5,0.25,38,149.8
666,F#4,170.75,0.25,35,149.8
667,B2,171.0,0.25,40,149.8
668,D4,171.25,0.25,34,149.8
669,F#3,171.5,0.25,37,149.8
670,D4,171.75,0.25,34,149.8
671,C#3,172.0,0.25,40,149.8
672,F#4,172.0,3.0,56,149.8
673,F#5,172.0,3.0,56,149.8
674,E4,172.25,0.25,34,149.8
675,F#3,172.5,0.25,37,149.8
676,E4,172.75,0.25,34,149.8
677,D3,173.0,0.25,40,149.8
678,F#4,173.25,0.25,35,149.8
679,F#3,173.5,0.25,38,149.8
680,F#4,173.75,0.25,35,149.8
681,B2,174.0,0.25,40,149.8
682,D4,174.25,0.25,34,149.8
683,F#3,174.5,0.25,37,149.8
684,D4,174.75,0.25,34,149.8
685,B3,175.0,2.0,56,149.8
686,B4,175.0,3.0,56,149.8
687,C#3,175.0,0.25,40,149.8
688,E4,175.25,0.25,34,149.8
689,F#3,175.5,0.25,37,149.8
690,E4,175.75,0.25,34,149.8
691,D3,176.0,0.25,40,149.8
692,F#4,176.25,0.25,35,149.8
693,F#3,176.5,0.25,38,149.8
694,F#4,176.75,0.25,35,149.8
695,E3,177.0,0.25,40,149.8
696,D4,177.25,0.25,34,149.8
697,B3,177.5,0.25,37,149.8
698,D4,177.75,0.25,34,149.8
699,G4,178.0,1.0,63,149.8
700,F3,178.0,0.25,49,149.8
701,D4,178.25,0.25,34,149.8
702,B3,178.5,0.25,42,149.8
703,D4,178.75,0.25,34,149.8
704,F#4,179.0,0.979,57,149.8
705,F#3,179.0,0.25,48,149.8
706,D4,179.25,0.25,35,149.8
707,B3,179.5,0.25,38,149.8
708,D4,179.75,0.25,38,149.8
709,F#4,180.0,2.0,65,149.8
710,F#3,180.0,0.25,51,149.8
711,D4,180.25,0.25,39,149.8
712,B3,180.5,0.25,42,149.8
713,D4,180.75,0.25,39,149.8
714,F#3,181.0,0.25,48,149.8
715,D4,181.25,0.25,38,149.8
716,B3,181.5,0.25,39,149.8
717,D4,181.75,0.25,38,149.8
718,B-4,182.0,1.0,58,149.8
719,F#3,182.0,0.25,45,149.8
720,E4,182.25,0.25,41,149.8
721,C#4,182.5,0.25,45,149.8
722,E4,182.75,0.25,40,149.8
723,B4,183.0,0.5,56,149.8
724,B2,183.0,0.25,40,149.8
725,D4,183.25,0.25,36,149.8
726,G5,183.5,0.5,68,149.8
727,F#3,183.5,0.25,41,149.8
728,D4,183.75,0.25,40,149.8
729,G6,184.0,1.5,74,149.8
730,C#3,184.0,0.25,50,149.8
731,E4,184.25,0.25,41,149.8
732,F#3,184.5,0.25,44,149.8
733,E4,184.75,0.25,39,149.8
734,D3,185.0,0.25,45,149.8
735,F#4,185.25,0.25,38,149.8
736,F#6,185.5,0.5,56,149.8
737,F#3,185.5,0.25,40,149.8
738,F#4,185.75,0.25,36,149.8
739,B2,186.0,0.25,40,149.8
740,D4,186.25,0.25,36,149.8
741,F#6,186.5,0.5,69,149.8
742,F#3,186.5,0.25,41,149.8
743,D4,186.75,0.25,40,149.8
744,C#6,187.0,1.5,66,149.8
745,C#3,187.0,0.25,50,149.8
746,E4,187.25,0.25,41,149.8
747,F#3,187.5,0.25,44,149.8
748,E4,187.75,0.25,39,149.8
749,D3,188.0,0.25,45,149.8
750,F#4,188.25,0.25,38,149.8
751,B5,188.5,0.5,51,149.8
752,F#3,188.5,0.25,40,149.8
753,F#4,188.75,0.25,36,149.8
754,B2,189.0,0.25,40,149.8
755,D4,189.25,0.25,36,149.8
756,B5,189.5,0.5,73,149.8
757,F#3,189.5,0.25,41,149.8
758,D4,189.75,0.25,40,149.8
759,G5,190.0,1.5,70,149.8
760,C#3,190.0,0.25,50,149.8
761,E4,190.25,0.25,41,149.8
762,F#3,190.5,0.25,44,149.8
763,E4,190.75,0.25,39,149.8
764,D3,191.0,0.25,45,149.8
765,F#4,191.25,0.25,38,149.8
766,F#5,191.5,0.5,53,149.8
767,F#3,191.5,0.25,40,149.8
768,F#4,191.75,0.25,36,149.8
769,B2,192.0,0.25,40,149.8
770,D4,192.25,0.25,36,149.8
771,F#5,192.5,0.5,70,149.8
772,F#3,192.5,0.25,41,149.8
773,D4,192.75,0.25,40,149.8
774,C#5,193.0,1.5,65,149.8
775,C#3,193.0,0.25,50,149.8
776,E4,193.25,0.25,41,149.8
777,F#3,193.5,0.25,44,149.8
778,E4,193.75,0.25,39,149.8
779,D3,194.0,0.25,45,149.8
780,F#4,194.25,0.25,38,149.8
781,B4,194.5,0.479,56,149.8
782,F#3,194.5,0.25,40,149.8
783,F#4,194.75,0.25,36,149.8
784,B4,195.0,1.0,63,149.8
785,E3,195.0,0.25,40,149.8
786,D4,195.25,0.25,34,149.8
787,B3,195.5,0.25,37,149.8
788,D4,195.75,0.25,34,149.8
789,G4,196.0,1.0,63,149.8
790,F3,196.0,0.25,49,149.8
791,D4,196.25,0.25,34,149.8
792,B3,196.5,0.25,42,149.8
793,D4,196.75,0.25,34,149.8
794,F#4,197.0,0.979,65,149.8
795,F#3,197.0,0.25,48,149.8
796,D4,197.25,0.25,35,149.8
797,B3,197.5,0.25,38,149.8
798,D4,197.75,0.25,38,149.8
799,F#4,198.0,0.5,71,149.8
800,F#3,198.0,1.979,53,149.8
801,D4,198.5,0.5,65,149.8
802,B3,199.0,0.5,71,149.8
803,G3,199.5,0.5,65,149.8
804,F#3,200.0,0.5,70,149.8
805,F#2,200.0,1.0,52,149.8
806,F#1,200.0,1.0,52,149.8
807,B-3,200.5,0.5,76,149.8
808,B3,201.0,1.0,80,149.8
809,B2,201.0,0.25,86,149.8
810,B1,201.0,0.25,86,149.8
811,C#3,201.5,0.25,75,149.8
812,C#2,201.5,0.25,75,149.8
813,D3,202.0,0.25,75,149.8
814,D2,202.0,0.25,75,149.8
815,E3,202.5,0.25,80,149.8
816,E2,202.5,0.25,80,149.8
817,F#3,203.0,4.0,87,149.8
818,F#2,203.0,4.0,87,149.8
819,B3,204.0,3.0,73,149.8
820,G3,204.0,3.0,73,149.8
821,C4,207.0,2.0,34,149.8
822,G3,207.0,3.0,28,149.8
823,E2,207.0,3.0,40,149.8
824,E3,207.0,3.0,40,149.8
825,G4,209.0,3.0,39,149.8
826,E4,210.0,3.0,27,149.8
827,B-3,210.0,3.0,27,149.8
828,C#4,210.0,3.0,27,149.8
829,F#3,210.0,3.0,40,149.8
830,F#2,210.0,3.0,40,149.8
831,F#4,212.0,0.979,33,149.8
832,F#4,213.0,1.0,36,149.8
833,D4,213.0,1.0,36,149.8
834,B3,213.0,1.0,36,149.8
835,B2,213.0,0.25,86,149.8
836,B1,213.0,0.25,86,149.8
837,C#3,213.5,0.25,75,149.8
838,C#2,213.5,0.25,75,149.8
839,D3,214.0,0.25,75,149.8
840,D2,214.0,0.25,75,149.8
841,E3,214.5,0.25,80,149.8
842,E2,214.5,0.25,80,149.8
843,F#3,215.0,4.0,87,149.8
844,F#2,215.0,4.0,87,149.8
845,B3,216.0,3.0,73,149.8
846,G3,216.0,3.0,73,149.8
847,C4,219.0,2.0,34,149.8
848,G3,219.0,3.0,28,149.8
849,E2,219.0,3.0,40,149.8
850,E3,219.0,3.0,40,149.8
851,G4,221.0,3.0,39,149.8
852,E4,222.0,3.0,27,149.8
853,B-3,222.0,3.0,27,149.8
854,C#4,222.0,3.0,27,149.8
855,F#2,222.0,3.0,26,149.8
856,F#3,222.0,3.0,26,149.8
857,F#4,224.0,0.979,33,149.8
858,G4,227.056,3.0,39,149.8
859,B3,228.0,3.0,24,149.8
860,D4,228.0,3.0,24,149.8
861,B2,228.0,3.0,21,149.8
862,B1,228.0,3.0,21,149.8
863,F#4,230.056,1.0,33,149.8
864,G4,233.056,3.0,39,149.8
865,C#4,234.0,3.0,24,149.8
866,E4,234.0,3.0,24,149.8
867,F#2,234.0,3.0,21,149.8
868,F#1,234.0,3.0,21,149.8
869,B-4,236.0,1.0,33,149.8
870,B3,237.0,1.0,30,149.8
871,D4,237.0,1.0,30,149.8
872,B4,237.0,1.0,30,149.8
873,B1,237.0,1.0,21,149.8
874,B2,237.0,1.0,21,149.8
875,B3,240.0,1.0,30,149.8
876,D4,240.0,1.0,30,149.8
877,B4,240.0,1.0,30,149.8
878,B1,240.0,1.0,21,149.8
879,B2,240.0,1.0,21,149.8
880,B3,243.0,1.0,30,149.8
881,D4,243.0,1.0,30,149.8
882,B4,243.0,1.0,30,149.8
883,B1,243.0,1.0,21,149.8
884,B2,243.0,1.0,21,149.8
885,B4,246.0,2.979,33,149.8
886,B4,249.0,2.979,33,149.8
887,B4,252.0,1.979,33,149.8
888,A5,254.0,0.25,38,149.8
889,B4,254.0,0.25,38,149.8
890,A4,254.0,0.25,28,149.8
891,F#4,254.0,0.25,28,149.8
892,B4,254.5,0.25,33,149.8
893,B4,255.0,0.25,34,149.8
894,A5,255.0,1.5,46,149.8
895,F#4,255.0,1.0,31,149.8
896,A4,255.0,1.0,31,149.8
897,B4,255.5,0.25,30,149.8
898,B4,256.0,0.25,30,149.8
899,B4,256.5,0.25,30,149.8
900,G5,256.5,0.5,42,149.8
901,B4,257.0,0.25,34,149.8
902,F#5,257.0,0.25,34,149.8
903,A4,257.0,0.25,28,149.8
904,F#4,257.0,0.25,28,149.8
905,B4,257.5,0.25,30,149.8
906,B4,258.0,0.25,34,149.8
907,B5,258.0,0.5,46,149.8
908,G5,258.0,0.5,46,149.8
909,E4,258.0,1.0,31,149.8
910,G4,258.0,1.0,31,149.8
911,B4,258.5,0.25,30,149.8
912,B4,259.0,0.25,30,149.8
913,B4,259.5,0.25,30,149.8
914,B4,260.0,0.25,30,149.8
915,B5,260.0,1.0,31,149.8
916,G5,260.0,1.0,31,149.8
917,G4,260.0,1.0,28,149.8
918,E4,260.0,1.0,28,149.8
919,B4,260.5,0.25,30,149.8
920,B4,261.0,0.25,34,149.8
921,B5,261.0,1.5,36,149.8
922,G#5,261.0,1.5,36,149.8
923,D4,261.0,1.0,31,149.8
924,F4,261.0,1.0,31,149.8
925,B4,261.5,0.25,30,149.8
926,B4,262.0,0.25,30,149.8
927,B4,262.5,0.25,30,149.8
928,A5,262.5,0.5,40,149.8
929,B4,263.0,0.25,30,149.8
930,B5,263.0,0.5,30,149.8
931,G#5,263.0,0.5,30,149.8
932,F4,263.0,0.5,28,149.8
933,D4,263.0,0.5,28,149.8
934,B4,263.5,0.25,30,149.8
935,C5,264.0,1.0,35,149.8
936,A5,264.0,1.0,35,149.8
937,C6,264.0,1.0,35,149.8
938,C4,264.0,0.5,31,149.8
939,E4,264.0,0.5,31,149.8
940,E4,264.5,0.25,30,149.8
941,E4,265.0,0.25,30,149.8
942,E4,265.5,0.25,30,149.8
943,E4,266.0,0.25,39,149.8
944,C5,266.0,0.25,48,149.8
945,C6,266.0,0.25,48,149.8
946,E4,266.5,0.25,37,149.8
947,E4,267.0,0.25,40,149.8
948,C5,267.0,1.5,54,149.8
949,C6,267.0,1.5,54,149.8
950,A3,267.0,1.0,36,149.8
951,C4,267.0,1.0,36,149.8
952,E4,267.5,0.25,36,149.8
953,E4,268.0,0.25,37,149.8
954,E4,268.5,0.25,38,149.8
955,B4,268.5,0.5,54,149.8
956,B5,268.5,0.5,54,149.8
957,A4,269.0,0.25,48,149.8
958,A5,269.0,0.25,48,149.8
959,E4,269.0,0.25,38,149.8
960,C4,269.0,0.25,38,149.8
961,A3,269.0,0.25,38,149.8
962,E4,269.5,0.25,40,149.8
963,F4,270.0,0.25,47,149.8
964,D6,270.0,0.5,64,149.8
965,D5,270.0,0.5,64,149.8
966,G#3,270.0,1.0,42,149.8
967,B3,270.0,1.0,42,149.8
968,F4,270.5,0.25,42,149.8
969,F4,271.0,0.25,43,149.8
970,F4,271.5,0.25,45,149.8
971,D5,272.0,0.25,64,149.8
972,D6,272.0,0.25,64,149.8
973,G#3,272.0,0.25,49,149.8
974,B3,272.0,0.25,49,149.8
975,F4,272.0,0.25,49,149.8
976,F4,272.5,0.25,50,149.8
977,F4,273.0,0.25,53,149.8
978,D5,273.0,1.5,73,149.8
979,D6,273.0,1.5,73,149.8
980,G#3,273.0,1.0,49,149.8
981,B-3,273.0,1.0,49,149.8
982,F4,273.5,0.25,49,149.8
983,F4,274.0,0.25,49,149.8
984,F4,274.5,0.25,50,149.8
985,C5,274.5,0.5,69,149.8
986,C6,274.5,0.5,69,149.8
987,D5,275.0,0.25,64,149.8
988,D6,275.0,0.25,64,149.8
989,F4,275.0,0.25,49,149.8
990,B-3,275.0,0.25,49,149.8
991,G#3,275.0,0.25,49,149.8
992,F4,275.5,0.25,52,149.8
993,E-5,276.0,1.5,89,149.8
994,E-6,276.0,1.5,89,149.8
995,G3,276.0,0.25,60,149.8
996,B-3,276.0,0.25,60,149.8
997,E-4,276.0,0.25,60,149.8
998,E-4,276.5,0.25,54,149.8
999,B-3,276.5,0.25,54,149.8
1000,G3,276.5,0.25,54,149.8
1001,E-4,277.0,0.25,54,149.8
1002,B-3,277.0,0.25,54,149.8
1003,G3,277.0,0.25,54,149.8
1004,D5,277.5,0.5,68,149.8
1005,D6,277.5,0.5,68,149.8
1006,E-4,277.5,0.25,54,149.8
1007,B-3,277.5,0.25,54,149.8
1008,G3,277.5,0.25,54,149.8
1009,E-6,278.0,0.5,78,149.8
1010,E-5,278.0,0.5,78,149.8
1011,E-4,278.0,0.25,54,149.8
1012,B-3,278.0,0.25,54,149.8
1013,G3,278.0,0.25,54,149.8
1014,E-4,278.5,0.25,54,149.8
1015,B-3,278.5,0.25,54,149.8
1016,G3,278.5,0.25,54,149.8
1017,E-4,279.0,1.5,89,149.8
1018,F#3,279.0,0.25,56,149.8
1019,B-3,279.0,0.25,56,149.8
1020,B-3,279.5,0.25,51,149.8
1021,F#3,279.5,0.25,51,149.8
1022,B-3,280.0,0.25,51,149.8
1023,F#3,280.0,0.25,51,149.8
1024,D4,280.5,0.5,62,149.8
1025,B-3,280.5,0.25,51,149.8
1026,F#3,280.5,0.25,51,149.8
1027,E-4,281.0,0.5,71,149.8
1028,B-3,281.0,0.25,51,149.8
1029,F#3,281.0,0.25,51,149.8
1030,B-3,281.5,0.25,52,149.8
1031,F#3,281.5,0.25,52,149.8
1032,E-4,282.0,1.488,82,149.8
1033,F#4,282.0,1.488,82,149.8
1034,E-3,282.0,0.25,52,149.8
1035,F#3,282.0,0.25,52,149.8
1036,F#3,282.5,0.25,48,149.8
1037,E-3,282.5,0.25,48,149.8
1038,F#3,283.0,0.25,48,149.8
1039,E-3,283.0,0.25,48,149.8
1040,F4,283.5,0.5,58,149.8
1041,D4,283.5,0.5,58,149.8
1042,F#3,283.5,0.25,48,149.8
1043,E-3,283.5,0.25,48,149.8
1044,F#4,284.0,0.5,68,149.8
1045,E-4,284.0,0.5,68,149.8
1046,F#3,284.0,0.25,48,149.8
1047,E-3,284.0,0.25,48,149.8
1048,F#3,284.5,0.25,48,149.8
1049,E-3,284.5,0.25,48,149.8
1050,F#5,285.0,1.5,85,149.8
1051,E-5,285.0,1.5,85,149.8
1052,E-3,285.0,0.237,54,149.8
1053,C3,285.0,0.237,54,149.8
1054,E-3,285.5,0.25,49,149.8
1055,C3,285.5,0.25,49,149.8
1056,E-3,286.0,0.25,49,149.8
1057,C3,286.0,0.25,49,149.8
1058,F5,286.5,0.5,60,149.8
1059,D5,286.5,0.5,60,149.8
1060,E-3,286.5,0.25,50,149.8
1061,C3,286.5,0.25,50,149.8
1062,F#5,287.0,0.5,69,149.8
1063,E-5,287.0,0.5,69,149.8
1064,E-3,287.0,0.25,50,149.8
1065,C3,287.0,0.25,50,149.8
1066,E-3,287.5,0.25,50,149.8
1067,C3,287.5,0.25,50,149.8
1068,C6,288.0,1.5,86,149.8
1069,C5,288.0,1.5,86,149.8
1070,A2,288.0,0.25,54,149.8
1071,C3,288.0,0.25,54,149.8
1072,C3,288.5,0.25,50,149.8
1073,A2,288.5,0.25,50,149.8
1074,C3,289.0,0.25,50,149.8
1075,A2,289.0,0.25,50,149.8
1076,B5,289.5,0.5,61,149.8
1077,B4,289.5,0.5,61,149.8
1078,C3,289.5,0.25,50,149.8
1079,A2,289.5,0.25,50,149.8
1080,C6,290.0,0.5,71,149.8
1081,C5,290.0,0.5,71,149.8
1082,C3,290.0,0.25,50,149.8
1083,A2,290.0,0.25,50,149.8
1084,C3,290.5,0.25,50,149.8
1085,A2,290.5,0.25,50,149.8
1086,A3,291.0,1.5,97,149.8
1087,F#2,291.0,0.25,61,149.8
1088,A2,291.0,0.25,61,149.8
1089,C3,291.0,0.25,61,149.8
1090,F#2,291.5,0.25,56,149.8
1091,C3,291.5,0.25,56,149.8
1092,A2,291.5,0.25,56,149.8
1093,F#2,292.0,0.25,56,149.8
1094,C3,292.0,0.25,56,149.8
1095,A2,292.0,0.25,56,149.8
1096,G#3,292.5,0.5,68,149.8
1097,F#2,292.5,0.25,56,149.8
1098,C3,292.5,0.25,56,149.8
1099,A2,292.5,0.25,56,149.8
1100,A3,293.0,0.5,78,149.8
1101,F#2,293.0,0.25,56,149.8
1102,C3,293.0,0.25,56,149.8
1103,A2,293.0,0.25,56,149.8
1104,F#2,293.5,0.25,57,149.8
1105,C3,293.5,0.25,57,149.8
1106,A2,293.5,0.25,57,149.8
1107,F#6,294.0,1.5,90,149.8
1108,F#5,294.0,1.5,90,149.8
1109,E-2,294.0,0.25,54,149.8
1110,F#2,294.0,0.25,54,149.8
1111,A2,294.0,0.25,54,149.8
1112,C3,294.0,0.25,54,149.8
1113,E-2,294.5,0.25,50,149.8
1114,F#2,294.5,0.25,50,149.8
1115,C3,294.5,0.25,50,149.8
1116,A2,294.5,0.25,50,149.8
1117,E-2,295.0,0.25,50,149.8
1118,F#2,295.0,0.25,50,149.8
1119,C3,295.0,0.25,50,149.8
1120,A2,295.0,0.25,50,149.8
1121,F6,295.5,0.5,64,149.8
1122,F5,295.5,0.5,64,149.8
1123,E-2,295.5,0.25,50,149.8
1124,F#2,295.5,0.25,50,149.8
1125,C3,295.5,0.25,50,149.8
1126,A2,295.5,0.25,50,149.8
1127,F#6,296.0,0.5,74,149.8
1128,F#5,296.0,0.5,74,149.8
1129,E-2,296.0,0.25,51,149.8
1130,F#2,296.0,0.25,51,149.8
1131,C3,296.0,0.25,51,149.8
1132,A2,296.0,0.25,51,149.8
1133,E-2,296.5,0.25,51,149.8
1134,F#2,296.5,0.25,51,149.8
1135,C3,296.5,0.25,51,149.8
1136,A2,296.5,0.25,51,149.8
1137,F#4,297.0,1.5,76,149.8
1138,C5,297.0,1.5,76,149.8
1139,A4,297.0,1.5,76,149.8
1140,D2,297.0,0.25,56,149.8
1141,F#2,297.0,0.25,56,149.8
1142,A2,297.0,0.25,56,149.8
1143,C3,297.0,0.25,56,149.8
1144,D2,297.5,0.25,51,149.8
1145,F#2,297.5,0.25,51,149.8
1146,C3,297.5,0.25,51,149.8
1147,A2,297.5,0.25,51,149.8
1148,D2,298.0,0.25,51,149.8
1149,F#2,298.0,0.25,51,149.8
1150,C3,298.0,0.25,51,149.8
1151,A2,298.0,0.25,51,149.8
1152,F#4,298.5,0.5,63,149.8
1153,B4,298.5,0.5,63,149.8
1154,A4,298.5,0.5,63,149.8
1155,D2,298.5,0.25,51,149.8
1156,F#2,298.5,0.25,51,149.8
1157,C3,298.5,0.25,51,149.8
1158,A2,298.5,0.25,51,149.8
1159,F#4,299.0,0.5,73,149.8
1160,C5,299.0,0.5,73,149.8
1161,A4,299.0,0.5,73,149.8
1162,D2,299.0,0.25,51,149.8
1163,F#2,299.0,0.25,51,149.8
1164,C3,299.0,0.25,51,149.8
1165,A2,299.0,0.25,51,149.8
1166,D2,299.5,0.25,51,149.8
1167,F#2,299.5,0.25,51,149.8
1168,C3,299.5,0.25,51,149.8
1169,A2,299.5,0.25,51,149.8
1170,B4,300.0,1.0,84,149.8
1171,G#4,300.0,1.0,84,149.8
1172,F4,300.0,1.0,84,149.8
1173,G2,300.0,0.25,65,149.8
1174,G1,300.0,0.25,65,149.8
1175,G1,300.5,0.25,59,149.8
1176,G2,300.5,0.25,59,149.8
1177,G2,301.0,0.25,62,149.8
1178,G1,301.0,0.25,62,149.8
1179,A4,301.5,0.25,36,149.8
1180,B4,301.5,0.25,36,149.8
1181,F5,301.5,0.25,36,149.8
1182,G4,302.0,0.25,36,149.8
1183,C5,302.0,0.25,36,149.8
1184,E5,302.0,0.25,36,149.8
1185,E-5,303.0,1.0,42,149.8
1186,A4,303.0,1.0,42,149.8
1187,F#4,303.0,1.0,42,149.8
1188,G2,303.5,0.25,26,149.8
1189,G1,303.5,0.25,26,149.8
1190,G1,304.0,0.25,30,149.8
1191,G2,304.0,0.25,30,149.8
1192,F#4,304.5,0.25,36,149.8
1193,A4,304.5,0.25,36,149.8
1194,E-5,304.5,0.25,36,149.8
1195,F4,305.0,0.25,36,149.8
1196,B4,305.0,0.25,36,149.8
1197,D5,305.0,0.25,36,149.8
1198,C#5,306.0,1.0,40,149.8
1199,G4,306.0,1.0,40,149.8
1200,E4,306.0,1.0,40,149.8
1201,G2,306.5,0.25,26,149.8
1202,G1,306.5,0.25,26,149.8
1203,G1,307.0,0.25,30,149.8
1204,G2,307.0,0.25,30,149.8
1205,E-4,307.5,0.25,36,149.8
1206,G4,307.5,0.25,36,149.8
1207,C5,307.5,0.25,36,149.8
1208,D4,308.0,0.25,36,149.8
1209,G4,308.0,0.25,36,149.8
1210,B4,308.0,0.25,36,149.8
1211,C#4,309.0,0.25,45,149.8
1212,E4,309.0,0.25,45,149.8
1213,B-4,309.0,0.25,45,149.8
1214,G1,309.5,0.25,28,149.8
1215,G2,309.5,0.25,28,149.8
1216,C4,310.0,0.25,45,149.8
1217,E4,310.0,0.25,45,149.8
1218,A4,310.0,0.25,45,149.8
1219,G1,310.5,0.25,28,149.8
1220,G2,310.5,0.25,28,149.8
1221,C4,311.0,0.25,45,149.8
1222,E-4,311.0,0.25,45,149.8
1223,G#4,311.0,0.25,45,149.8
1224,G1,311.5,0.25,28,149.8
1225,G2,311.5,0.25,28,149.8
1226,G4,312.0,0.25,54,149.8
1227,G2,312.5,0.25,31,149.8
1228,G1,312.5,0.25,31,149.8
1229,F#4,313.0,0.25,55,149.8
1230,A2,313.5,0.25,35,149.8
1231,A1,313.5,0.25,35,149.8
1232,F4,314.0,0.25,58,149.8
1233,B2,314.5,0.25,36,149.8
1234,B1,314.5,0.25,36,149.8
1235,E4,315.0,0.25,60,149.8
1236,C3,315.5,0.25,36,149.8
1237,C2,315.5,0.25,36,149.8
1238,E-4,316.0,0.25,60,149.8
1239,C#2,316.5,0.25,37,149.8
1240,C#3,316.5,0.25,37,149.8
1241,D4,317.0,0.25,60,149.8
1242,D2,317.5,0.25,38,149.8
1243,D3,317.5,0.25,38,149.8
1244,C#4,318.0,0.25,60,149.8
1245,E-2,318.5,0.25,38,149.8
1246,E-3,318.5,0.25,38,149.8
1247,C4,319.0,0.25,64,149.8
1248,E2,319.5,0.25,42,149.8
1249,E3,319.5,0.25,42,149.8
1250,B3,320.0,0.25,68,149.8
1251,F2,320.5,0.25,44,149.8
1252,F3,320.5,0.25,44,149.8
1253,B-3,321.0,0.25,63,149.8
1254,F#3,321.5,0.25,32,149.8
1255,F#2,321.5,0.25,32,149.8
1256,A3,322.0,0.25,50,149.8
1257,G3,322.5,0.25,28,149.8
1258,G2,322.5,0.25,28,149.8
1259,G#3,323.0,0.25,46,149.8
1260,G3,323.5,0.25,24,149.8
1261,G2,323.5,0.25,24,149.8
1262,G#3,324.0,0.5,42,149.8
1263,G3,324.5,0.5,33,149.8
1264,G4,325.0,3.979,43,149.8
1265,F4,327.0,1.979,26,149.8
1266,G4,329.0,2.0,43,149.8
1267,B3,329.0,1.0,26,149.8
1268,F4,329.0,1.0,26,149.8
1269,C4,330.0,1.0,33,149.8
1270,E4,330.0,1.0,33,149.8
1271,C5,331.0,1.0,48,149.8
1272,C4,331.0,1.0,26,149.8
1273,A4,332.0,1.0,43,149.8
1274,C#4,332.0,1.0,26,149.8
1275,G4,333.0,1.0,47,149.8
1276,D4,333.0,1.0,33,149.8
1277,F4,334.0,0.979,43,149.8
1278,A3,334.0,1.0,26,149.8
1279,F4,335.0,2.0,45,149.8
1280,B-3,335.0,0.979,26,149.8
1281,B3,336.0,1.0,32,149.8
1282,D5,337.0,1.0,52,149.8
1283,G3,337.0,1.0,26,149.8
1284,F4,338.0,2.0,46,149.8
1285,D4,338.0,1.0,26,149.8
1286,C#4,339.0,1.0,31,149.8
1287,E4,340.0,0.938,43,149.8
1288,C4,340.0,0.938,26,149.8
1289,E4,341.0,0.25,36,149.8
1290,B-3,341.0,1.0,26,149.8
1291,C4,341.0,2.0,26,149.8
1292,G4,341.25,0.25,31,149.8
1293,C5,341.5,0.25,32,149.8
1294,E5,341.75,0.25,31,149.8
1295,F5,342.0,0.25,39,149.8
1296,A3,342.0,1.0,43,149.8
1297,C5,342.25,0.25,38,149.8
1298,A4,342.5,0.25,41,149.8
1299,F4,342.75,0.25,47,149.8
1300,A4,343.0,0.25,52,149.8
1301,F4,343.0,1.0,48,149.8
1302,F3,343.0,1.0,48,149.8
1303,C5,343.25,0.25,41,149.8
1304,F5,343.5,0.25,37,149.8
1305,A5,343.75,0.229,35,149.8
1306,A5,344.0,0.25,38,149.8
1307,D4,344.0,1.0,42,149.8
1308,F#3,344.0,1.0,42,149.8
1309,D5,344.25,0.25,32,149.8
1310,A5,344.5,0.25,35,149.8
1311,D6,344.75,0.25,35,149.8
1312,A5,345.0,0.25,39,149.8
1313,C4,345.0,1.0,47,149.8
1314,G3,345.0,1.0,47,149.8
1315,D5,345.25,0.25,34,149.8
1316,A5,345.5,0.25,41,149.8
1317,B-5,345.75,0.25,48,149.8
1318,G5,346.0,0.25,52,149.8
1319,B-3,346.0,0.979,47,149.8
1320,D3,346.0,0.979,47,149.8
1321,D5,346.25,0.25,41,149.8
1322,G5,346.5,0.25,37,149.8
1323,B-5,346.75,0.25,34,149.8
1324,G5,347.0,0.25,38,149.8
1325,F3,347.0,1.0,43,149.8
1326,B-3,347.0,2.0,43,149.8
1327,C#5,347.25,0.25,32,149.8
1328,G5,347.5,0.25,35,149.8
1329,B-5,347.75,0.25,35,149.8
1330,G5,348.0,0.25,39,149.8
1331,E3,348.0,1.0,41,149.8
1332,C5,348.25,0.25,38,149.8
1333,G5,348.5,0.25,40,149.8
1334,B-5,348.75,0.25,47,149.8
1335,E5,349.0,0.25,54,149.8
1336,G4,349.0,1.0,51,149.8
1337,C5,349.25,0.25,47,149.8
1338,E5,349.5,0.25,45,149.8
1339,G5,349.75,0.229,39,149.8
1340,G5,350.0,0.25,38,149.8
1341,C3,350.0,1.0,44,149.8
1342,B-3,350.0,2.0,44,149.8
1343,E5,350.25,0.25,32,149.8
1344,G5,350.5,0.25,35,149.8
1345,C6,350.75,0.25,35,149.8
1346,G5,351.0,0.25,39,149.8
1347,F3,351.0,1.0,49,149.8
1348,E5,351.25,0.25,35,149.8
1349,G5,351.5,0.25,36,149.8
1350,C6,351.75,0.25,41,149.8
1351,A5,352.0,0.25,46,149.8
1352,F3,352.0,1.0,44,149.8
1353,A3,352.0,1.0,44,149.8
1354,F5,352.25,0.25,32,149.8
1355,A5,352.5,0.25,32,149.8
1356,C6,352.75,0.25,32,149.8
1357,A5,353.0,0.25,38,149.8
1358,A2,353.0,2.0,50,149.8
1359,F5,353.25,0.25,32,149.8
1360,A5,353.5,0.25,35,149.8
1361,C6,353.75,0.25,35,149.8
1362,A5,354.0,0.25,46,149.8
1363,F5,354.25,0.25,37,149.8
1364,A5,354.5,0.25,38,149.8
1365,D6,354.75,0.25,37,149.8
1366,A5,355.0,0.25,45,149.8
1367,D3,355.0,1.0,56,149.8
1368,F5,355.25,0.25,38,149.8
1369,A5,355.5,0.25,38,149.8
1370,D6,355.75,0.25,38,149.8
1371,B-5,356.0,0.25,45,149.8
1372,B-2,356.0,1.0,48,149.8
1373,F5,356.25,0.25,39,149.8
1374,B-5,356.5,0.25,43,149.8
1375,D6,356.75,0.25,43,149.8
1376,B5,357.0,0.25,47,149.8
1377,A2,357.0,1.0,58,149.8
1378,F5,357.25,0.25,38,149.8
1379,B5,357.5,0.25,39,149.8
1380,D6,357.75,0.25,38,149.8
1381,B5,358.0,0.25,47,149.8
1382,G#2,358.0,0.979,50,149.8
1383,E5,358.25,0.25,39,149.8
1384,B5,358.5,0.25,40,149.8
1385,D6,358.75,0.25,40,149.8
1386,B5,359.0,0.25,47,149.8
1387,G#2,359.0,2.0,58,149.8
1388,E5,359.25,0.25,40,149.8
1389,B5,359.5,0.25,45,149.8
1390,D6,359.75,0.25,45,149.8
1391,B5,360.0,0.25,50,149.8
1392,E5,360.25,0.25,40,149.8
1393,B5,360.5,0.25,42,149.8
1394,D6,360.75,0.25,41,149.8
1395,B5,361.0,0.25,50,149.8
1396,E3,361.0,2.0,57,149.8
1397,E5,361.25,0.25,42,149.8
1398,B5,361.5,0.25,42,149.8
1399,D6,361.75,0.25,42,149.8
1400,B5,362.0,0.25,50,149.8
1401,G#2,362.0,1.0,50,149.8
1402,E5,362.25,0.25,43,149.8
1403,B5,362.5,0.25,47,149.8
1404,D6,362.75,0.25,48,149.8
1405,B5,363.0,0.25,53,149.8
1406,A2,363.0,1.0,55,149.8
1407,E5,363.25,0.25,44,149.8
1408,B5,363.5,0.25,51,149.8
1409,C6,363.75,0.25,55,149.8
1410,A5,364.0,0.25,52,149.8
1411,E3,364.0,2.0,59,149.8
1412,E5,364.25,0.25,50,149.8
1413,A5,364.5,0.25,48,149.8
1414,C6,364.75,0.25,47,149.8
1415,A5,365.0,0.25,54,149.8
1416,A2,365.0,1.0,51,149.8
1417,E5,365.25,0.25,45,149.8
1418,A5,365.5,0.25,50,149.8
1419,C6,365.75,0.25,48,149.8
1420,A5,366.0,0.25,56,149.8
1421,B2,366.0,1.0,56,149.8
1422,D5,366.25,0.25,48,149.8
1423,A5,366.5,0.25,55,149.8
1424,B5,366.75,0.25,56,149.8
1425,G#5,367.0,0.25,59,149.8
1426,E3,367.0,2.0,62,149.8
1427,D5,367.25,0.25,52,149.8
1428,G#5,367.5,0.25,51,149.8
1429,B5,367.75,0.25,48,149.8
1430,G#5,368.0,0.25,56,149.8
1431,B2,368.0,1.0,57,149.8
1432,D5,368.25,0.25,48,149.8
1433,G#5,368.5,0.25,54,149.8
1434,B5,368.75,0.25,51,149.8
1435,G#5,369.0,0.25,59,149.8
1436,C3,369.0,1.0,61,149.8
1437,C5,369.25,0.25,56,149.8
1438,G#5,369.5,0.25,58,149.8
1439,B5,369.75,0.25,60,149.8
1440,G#5,370.0,0.25,61,149.8
1441,E3,370.0,2.0,68,149.8
1442,A5,370.25,0.25,54,149.8
1443,C5,370.5,0.25,50,149.8
1444,A5,370.75,0.25,50,149.8
1445,G#5,371.0,0.25,59,149.8
1446,C3,371.0,1.0,59,149.8
1447,A5,371.25,0.25,50,149.8
1448,C5,371.5,0.25,56,149.8
1449,A5,371.75,0.229,53,149.8
1450,A5,372.0,0.25,62,149.8
1451,E-3,372.0,1.0,64,149.8
1452,B4,372.25,0.25,52,149.8
1453,A5,372.5,0.25,53,149.8
1454,B5,372.75,0.25,55,149.8
1455,A5,373.0,0.25,60,149.8
1456,B3,373.0,2.0,68,149.8
1457,B4,373.25,0.25,56,149.8
1458,A5,373.5,0.25,49,149.8
1459,B5,373.75,0.25,49,149.8
1460,A5,374.0,0.25,63,149.8
1461,E-3,374.0,1.0,63,149.8
1462,B4,374.25,0.25,53,149.8
1463,A5,374.5,0.25,58,149.8
1464,B5,374.75,0.25,58,149.8
1465,A5,375.0,0.25,65,149.8
1466,E3,375.0,1.0,67,149.8
1467,B4,375.25,0.25,54,149.8
1468,A5,375.5,0.25,58,149.8
1469,B5,375.75,0.25,60,149.8
1470,A5,376.0,0.25,62,149.8
1471,C4,376.0,2.0,73,149.8
1472,B4,376.25,0.25,60,149.8
1473,A5,376.5,0.25,56,149.8
1474,B5,376.75,0.25,54,149.8
1475,A5,377.0,0.25,64,149.8
1476,E3,377.0,1.0,63,149.8
1477,B4,377.25,0.25,56,149.8
1478,A5,377.5,0.25,62,149.8
1479,B5,377.75,0.25,58,149.8
1480,A5,378.0,0.25,68,149.8
1481,F#3,378.0,1.0,68,149.8
1482,B4,378.25,0.25,59,149.8
1483,A5,378.5,0.25,62,149.8
1484,B5,378.75,0.25,64,149.8
1485,A5,379.0,0.25,67,149.8
1486,E-4,379.0,2.0,76,149.8
1487,B4,379.25,0.25,64,149.8
1488,A5,379.5,0.25,62,149.8
1489,B5,379.75,0.25,62,149.8
1490,A5,380.0,0.25,69,149.8
1491,F#3,380.0,1.0,70,149.8
1492,B4,380.25,0.25,58,149.8
1493,A5,380.5,0.25,64,149.8
1494,B5,380.75,0.25,61,149.8
1495,G5,381.0,0.25,72,149.8
1496,G3,381.0,1.0,74,149.8
1497,B4,381.25,0.25,62,149.8
1498,G5,381.5,0.25,64,149.8
1499,B5,381.75,0.25,65,149.8
1500,G5,382.0,0.25,70,149.8
1501,E4,382.0,2.0,78,149.8
1502,B4,382.25,0.25,67,149.8
1503,G5,382.5,0.25,65,149.8
1504,B5,382.75,0.229,63,149.8
1505,B5,383.0,0.25,73,149.8
1506,G3,383.0,1.0,75,149.8
1507,E5,383.25,0.25,61,149.8
1508,B5,383.5,0.25,67,149.8
1509,E6,383.75,0.25,64,149.8
1510,C6,384.0,0.25,64,149.8
1511,A3,384.0,1.0,77,149.8
1512,E5,384.25,0.25,66,149.8
1513,C6,384.5,0.25,69,149.8
1514,E6,384.75,0.25,72,149.8
1515,C6,385.0,0.25,78,149.8
1516,F#4,385.0,2.0,85,149.8
1517,E5,385.25,0.25,74,149.8
1518,C6,385.5,0.25,67,149.8
1519,E6,385.75,0.25,67,149.8
1520,C6,386.0,0.25,74,149.8
1521,A3,386.0,1.0,81,149.8
1522,E5,386.25,0.25,63,149.8
1523,C6,386.5,0.25,70,149.8
1524,E6,386.75,0.25,67,149.8
1525,C#6,387.0,0.25,77,149.8
1526,B-3,387.0,1.0,83,149.8
1527,G5,387.25,0.25,67,149.8
1528,C#6,387.5,0.25,71,149.8
1529,E6,387.75,0.25,75,149.8
1530,C#6,388.0,0.25,77,149.8
1531,G4,388.0,2.0,90,149.8
1532,G5,388.25,0.25,72,149.8
1533,C#6,388.5,0.25,72,149.8
1534,E6,388.75,0.25,67,149.8
1535,C#6,389.0,0.25,78,149.8
1536,B-3,389.0,1.0,88,149.8
1537,G5,389.25,0.25,66,149.8
1538,C#6,389.5,0.25,73,149.8
1539,E6,389.75,0.25,66,149.8
1540,B5,390.0,0.25,87,149.8
1541,B3,390.0,3.0,99,149.8
1542,G5,390.25,0.25,74,149.8
1543,B5,390.5,0.25,79,149.8
1544,E6,390.75,0.25,74,149.8
1545,G6,391.0,0.25,85,149.8
1546,E4,391.0,1.0,85,149.8
1547,F#6,391.25,0.25,75,149.8
1548,E6,391.5,0.25,79,149.8
1549,E-6,391.75,0.25,75,149.8
1550,E6,392.0,0.25,86,149.8
1551,G4,392.0,1.0,85,149.8
1552,E-6,392.25,0.25,75,149.8
1553,E6,392.5,0.25,79,149.8
1554,F#6,392.75,0.25,76,149.8
1555,G6,393.0,0.25,85,149.8
1556,B4,393.0,1.0,96,149.8
1557,F#6,393.25,0.25,79,149.8
1558,E6,393.5,0.25,79,149.8
1559,E-6,393.75,0.25,75,149.8
1560,G6,394.0,0.25,85,149.8
1561,E5,394.0,1.0,85,149.8
1562,F#6,394.25,0.25,79,149.8
1563,E6,394.5,0.25,79,149.8
1564,E-6,394.75,0.25,75,149.8
1565,G6,395.0,0.25,85,149.8
1566,G5,395.0,1.0,85,149.8
1567,F#6,395.25,0.25,79,149.8
1568,E6,395.5,0.25,79,149.8
1569,E-6,395.75,0.25,76,149.8
1570,G6,396.0,0.25,85,149.8
1571,F#6,396.25,0.25,79,149.8
1572,E6,396.5,0.25,79,149.8
1573,E-6,396.75,0.25,76,149.8
1574,E6,397.0,0.5,88,149.8
1575,G5,397.0,0.25,86,149.8
1576,F#5,397.25,0.25,79,149.8
1577,E5,397.5,0.25,79,149.8
1578,E-5,397.75,0.25,74,149.8
1579,E5,398.0,0.5,85,149.8
1580,G6,399.0,0.5,50,149.8
1581,F#6,399.5,0.5,42,149.8
1582,E6,400.0,0.5,46,149.8
1583,G5,400.0,0.5,50,149.8
1584,E-6,400.5,0.5,46,149.8
1585,F#5,400.5,0.5,41,149.8
1586,E6,401.0,1.0,50,149.8
1587,E5,401.0,0.5,45,149.8
1588,E-5,401.5,0.5,42,149.8
1589,G6,402.0,1.0,50,149.8
1590,E5,402.0,1.0,50,149.8
1591,F#6,403.0,1.0,47,149.8
1592,E6,404.0,1.0,50,149.8
1593,G5,404.0,1.0,41,149.8
1594,E-6,405.0,1.0,54,149.8
1595,F#5,405.0,1.0,46,149.8
1596,E6,406.0,1.0,49,149.8
1597,E5,406.0,1.0,39,149.8
1598,E-5,407.0,1.0,39,149.8
1599,G6,408.0,2.0,50,149.8
1600,E5,408.0,1.0,45,149.8
1601,F#6,410.0,2.0,50,149.8
1602,G5,411.0,2.0,40,149.8
1603,E6,412.0,1.0,50,149.8
1604,F#5,413.0,2.0,37,149.8
1605,G4,414.0,2.0,50,149.8
1606,E5,415.0,1.0,41,149.8
1607,F#4,416.0,0.5,56,149.8
1608,E4,416.5,0.479,40,149.8
1609,E4,417.0,1.0,50,149.8
1610,G4,417.0,2.0,51,149.8
1611,F#4,419.0,0.5,59,149.8
1612,E4,419.5,0.479,42,149.8
1613,E4,420.0,1.0,50,149.8
1614,G4,421.0,0.979,50,149.8
1615,F#4,422.0,0.5,46,149.8
1616,G4,422.0,1.0,39,149.8
1617,E4,422.5,0.479,46,149.8
1618,E4,423.0,0.479,50,149.8
1619,F#4,423.0,0.5,39,149.8
1620,E4,423.5,0.479,39,149.8
1621,E4,424.0,0.5,39,149.8
1622,G4,424.5,0.5,53,149.8
1623,F#4,425.0,0.5,56,149.8
1624,E4,425.5,0.5,57,149.8
1625,G5,425.5,0.5,55,149.8
1626,F#5,426.0,0.5,61,149.8
1627,G6,426.5,0.5,61,149.8
1628,E5,426.5,0.5,56,149.8
1629,F#6,427.0,0.5,66,149.8
1630,E6,427.5,0.5,63,149.8
1631,G5,427.5,0.5,58,149.8
1632,F#5,428.0,0.5,65,149.8
1633,G4,428.5,0.5,63,149.8
1634,E5,428.5,0.5,61,149.8
1635,F#4,429.0,0.5,74,149.8
1636,E4,429.5,0.5,64,149.8
1637,G3,429.5,0.5,71,149.8
1638,F#3,430.0,0.5,77,149.8
1639,E3,430.5,0.25,74,149.8
1640,G4,431.0,0.25,69,149.8
1641,E4,431.0,0.25,69,149.8
1642,B3,431.0,0.25,69,149.8
1643,G3,431.0,0.25,69,149.8
1644,E2,431.0,0.25,70,149.8
1645,E3,431.0,0.25,70,149.8
1646,G4,432.0,1.5,84,149.8
1647,G3,432.0,2.0,70,149.8
1648,B3,432.0,2.0,70,149.8
1649,E4,432.0,2.0,70,149.8
1650,E2,432.0,2.0,66,149.8
1651,E3,432.0,2.0,66,149.8
1652,F#4,433.5,0.5,77,149.8
1653,E4,434.0,0.25,62,149.8
1654,G3,434.0,0.25,62,149.8
1655,E3,434.0,0.25,58,149.8
1656,E2,434.0,0.25,58,149.8
1657,A3,435.0,0.5,75,149.8
1658,F#4,435.0,0.5,75,149.8
1659,A4,435.0,0.5,75,149.8
1660,D2,435.0,0.5,66,149.8
1661,D3,435.0,0.5,66,149.8
1662,D4,437.0,1.0,29,149.8
1663,A4,437.0,1.0,34,149.8
1664,F#4,437.0,1.0,34,149.8
1665,F#4,438.0,1.5,41,149.8
1666,A4,438.0,1.5,41,149.8
1667,C4,438.0,1.5,33,149.8
1668,D4,438.0,1.5,33,149.8
1669,G4,439.5,0.5,40,149.8
1670,D4,439.5,0.5,28,149.8
1671,B3,439.5,0.5,28,149.8
1672,A4,440.0,0.75,38,149.8
1673,F#4,440.0,0.75,38,149.8
1674,A3,440.0,0.75,26,149.8
1675,C4,440.0,0.75,26,149.8
1676,B4,441.0,0.75,40,149.8
1677,G4,441.0,0.75,40,149.8
1678,G3,441.0,0.75,33,149.8
1679,B3,441.0,0.75,33,149.8
1680,B4,443.0,0.25,69,149.8
1681,G4,443.0,0.25,69,149.8
1682,D4,443.0,0.25,69,149.8
1683,B3,443.0,0.25,69,149.8
1684,G3,443.0,0.25,58,149.8
1685,G2,443.0,0.25,58,149.8
1686,B4,444.0,1.5,84,149.8
1687,D4,444.0,2.0,70,149.8
1688,B3,444.0,2.0,70,149.8
1689,G4,444.0,2.0,70,149.8
1690,G2,444.0,2.0,66,149.8
1691,G3,444.0,2.0,66,149.8
1692,A4,445.5,0.5,77,149.8
1693,G4,446.0,0.25,62,149.8
1694,B3,446.0,0.25,62,149.8
1695,G2,446.0,0.25,58,149.8
1696,G1,446.0,0.25,58,149.8
1697,C#4,447.0,0.5,75,149.8
1698,B-4,447.0,0.5,75,149.8
1699,C#5,447.0,0.5,75,149.8
1700,F#1,447.0,0.5,66,149.8
1701,F#2,447.0,0.5,66,149.8
1702,F#4,449.0,1.0,29,149.8
1703,C#5,449.0,1.0,34,149.8
1704,B-4,449.0,1.0,34,149.8
1705,B-4,450.0,1.5,41,149.8
1706,C#5,450.0,1.5,41,149.8
1707,E4,450.0,1.5,33,149.8
1708,F#4,450.0,1.5,33,149.8
1709,B4,451.5,0.5,40,149.8
1710,F#4,451.5,0.5,28,149.8
1711,D4,451.5,0.5,28,149.8
1712,C#5,452.0,0.75,38,149.8
1713,B-4,452.0,0.75,38,149.8
1714,C#4,452.0,0.75,26,149.8
1715,E4,452.0,0.75,26,149.8
1716,D5,453.0,0.75,40,149.8
1717,B4,453.0,0.75,40,149.8
1718,B3,453.0,0.75,33,149.8
1719,D4,453.0,0.75,33,149.8
1720,D5,455.0,2.0,70,149.8
1721,D4,456.0,2.0,38,149.8
1722,B3,456.0,3.0,38,149.8
1723,G4,456.0,5.0,45,149.8
1724,G5,457.0,1.0,70,149.8
1725,E5,458.0,1.0,62,149.8
1726,E4,458.0,3.0,50,149.8
1727,D5,459.0,1.0,66,149.8
1728,A3,459.0,2.0,39,149.8
1729,C5,460.0,0.95,56,149.8
1730,C5,461.0,2.0,61,149.8
1731,F#4,461.0,3.0,38,149.8
1732,E-4,461.0,1.0,32,149.8
1733,D4,462.0,2.0,34,149.8
1734,A5,463.0,1.0,61,149.8
1735,C5,464.0,2.0,52,149.8
1736,F#4,464.0,1.0,46,149.8
1737,G4,465.0,2.0,46,149.8
1738,B4,466.0,0.95,61,149.8
1739,B4,467.0,2.0,55,149.8
1740,G3,467.0,1.0,45,149.8
1741,E3,468.0,2.0,49,149.8
1742,G4,469.0,0.95,50,149.8
1743,G4,470.0,2.0,44,149.8
1744,E4,470.0,1.0,41,149.8
1745,C4,471.0,2.0,40,149.8
1746,E4,472.0,0.95,43,149.8
1747,E4,473.0,2.0,40,149.8
1748,C3,473.0,4.0,28,149.8
1749,C2,474.0,3.0,28,149.8
1750,G3,475.0,1.0,36,149.8
1751,E3,476.0,1.0,24,149.8
1752,E-3,477.0,1.8,26,149.8
1753,B3,477.0,1.8,26,149.8
1754,B2,477.0,1.8,26,149.8
1755,B1,477.0,1.8,26,149.8
1756,E5,479.0,2.5,56,149.8
1757,E6,479.0,2.5,56,149.8
1758,E3,480.0,6.0,28,149.8
1759,B3,480.0,3.0,31,149.8
1760,G2,480.0,3.0,31,149.8
1761,E-5,481.5,0.5,49,149.8
1762,E-6,481.5,0.5,49,149.8
1763,E5,482.0,1.0,52,149.8
1764,E6,482.0,1.0,52,149.8
1765,A2,483.0,2.0,39,149.8
1766,C4,483.0,2.0,54,149.8
1767,E4,483.0,2.0,54,149.8
1768,F#4,483.0,2.0,54,149.8
1769,B-2,485.0,1.0,43,149.8
1770,F#4,485.0,1.0,59,149.8
1771,E4,485.0,1.0,59,149.8
1772,C#4,485.0,1.0,59,149.8
1773,F#4,486.0,1.5,71,149.8
1774,B2,486.0,3.0,49,149.8
1775,A3,486.0,3.0,60,149.8
1776,E-4,486.0,3.0,60,149.8
1777,G4,487.5,0.5,51,149.8
1778,A4,488.0,0.5,56,149.8
1779,G4,488.5,0.5,43,149.8
1780,F#4,489.0,1.0,47,149.8
1781,G3,489.0,2.0,26,149.8
1782,C3,489.0,2.0,26,149.8
1783,E4,490.0,1.0,39,149.8
1784,B2,491.0,0.5,32,149.8
1785,E5,491.0,2.5,56,149.8
1786,E6,491.0,2.5,56,149.8
1787,A2,491.5,0.5,35,149.8
1788,E3,492.0,6.0,39,149.8
1789,G2,492.0,2.0,39,149.8
1790,B3,492.0,3.0,39,149.8
1791,E-5,493.5,0.5,56,149.8
1792,E-6,493.5,0.5,56,149.8
1793,G#2,494.0,1.0,37,149.8
1794,E5,494.0,1.0,61,149.8
1795,E6,494.0,1.0,61,149.8
1796,A2,495.0,2.0,39,149.8
1797,C4,495.0,2.0,54,149.8
1798,E4,495.0,2.0,54,149.8
1799,F#4,495.0,2.0,54,149.8
1800,B-2,497.0,1.0,34,149.8
1801,F#4,497.0,1.0,47,149.8
1802,E4,497.0,1.0,47,149.8
1803,C#4,497.0,1.0,47,149.8
1804,F#4,498.0,1.5,55,149.8
1805,A3,498.0,3.0,46,149.8
1806,E-4,498.0,3.0,46,149.8
1807,B1,498.0,3.0,34,149.8
1808,B2,498.0,3.0,34,149.8
1809,A4,499.5,0.5,38,149.8
1810,G4,500.0,0.5,41,149.8
1811,F#4,500.5,0.5,32,149.8
1812,G3,501.0,1.0,33,149.8
1813,E4,501.0,1.0,33,149.8
1814,E3,501.0,1.0,20,149.8
1815,E2,501.0,1.0,20,149.8
1816,G3,503.0,0.25,33,149.8
1817,G4,503.0,0.25,33,149.8
1818,G1,503.0,0.25,28,149.8
1819,G2,503.0,0.25,28,149.8
1820,G4,504.0,2.0,38,149.8
1821,G3,504.0,2.0,38,149.8
1822,G1,504.0,2.0,31,149.8
1823,G2,504.0,2.0,31,149.8
1824,C4,506.0,0.25,33,149.8
1825,C5,506.0,0.25,33,149.8
1826,C2,506.0,0.25,28,149.8
1827,C3,506.0,0.25,28,149.8
1828,C5,507.0,2.0,38,149.8
1829,C4,507.0,2.0,38,149.8
1830,C2,507.0,2.0,31,149.8
1831,C3,507.0,2.0,31,149.8
1832,G4,509.0,0.25,33,149.8
1833,G5,509.0,0.25,33,149.8
1834,G2,509.0,0.25,28,149.8
1835,G3,509.0,0.25,28,149.8
1836,G5,510.0,2.0,37,149.8
1837,G4,510.0,2.0,37,149.8
1838,G2,510.0,2.0,31,149.8
1839,G3,510.0,2.0,31,149.8
1840,C6,512.0,0.25,33,149.8
1841,C5,512.0,0.25,33,149.8
1842,C3,512.0,0.25,28,149.8
1843,C4,512.0,0.25,28,149.8
1844,C5,513.0,2.0,38,149.8
1845,C6,513.0,2.0,38,149.8
1846,C3,513.0,2.0,31,149.8
1847,C4,513.0,2.0,31,149.8
1848,F5,515.0,0.25,74,149.8
1849,D6,515.0,0.25,74,149.8
1850,F6,515.0,0.25,74,149.8
1851,B3,515.0,0.25,57,149.8
1852,D4,515.0,0.25,57,149.8
1853,F4,515.0,0.25,57,149.8
1854,G4,515.0,0.25,57,149.8
1855,F5,516.0,1.5,81,149.8
1856,D6,516.0,1.5,81,149.8
1857,F6,516.0,1.5,81,149.8
1858,B3,516.0,1.5,62,149.8
1859,D4,516.0,1.5,62,149.8
1860,F4,516.0,1.5,62,149.8
1861,G4,516.0,1.5,62,149.8
1862,E6,517.5,0.275,70,149.8
1863,D6,517.75,0.275,69,149.8
1864,C6,518.0,0.275,68,149.8
1865,B5,518.25,0.275,68,149.8
1866,A5,518.5,0.275,68,149.8
1867,G5,518.75,0.275,66,149.8
1868,F5,519.0,0.275,64,149.8
1869,E5,519.25,0.275,64,149.8
1870,D5,519.5,0.275,64,149.8
1871,C5,519.75,0.275,64,149.8
1872,B4,520.0,0.183,63,149.8
1873,A4,520.167,0.183,63,149.8
1874,G4,520.333,0.183,63,149.8
1875,F4,520.5,0.183,63,149.8
1876,E4,520.667,0.183,63,149.8
1877,D4,520.833,0.183,63,149.8
1878,C4,521.0,0.221,63,149.8
1879,B3,521.2,0.221,63,149.8
1880,A3,521.4,0.221,63,149.8
1881,G3,521.6,0.221,62,149.8
1882,F#3,521.8,0.221,62,149.8
1883,G3,522.0,0.5,89,149.8
1884,F4,524.0,0.25,36,149.8
1885,D4,524.0,0.25,36,149.8
1886,G3,524.0,0.25,36,149.8
1887,B2,524.0,0.25,26,149.8
1888,B1,524.0,0.25,26,149.8
1889,E4,525.0,0.5,40,149.8
1890,C4,525.0,0.5,40,149.8
1891,G3,525.0,0.5,40,149.8
1892,C2,525.0,0.5,32,149.8
1893,C3,525.0,0.5,32,149.8
1894,D5,527.0,0.25,80,149.8
1895,G#5,527.0,0.25,80,149.8
1896,B5,527.0,0.25,80,149.8
1897,D6,527.0,0.25,80,149.8
1898,E3,527.0,0.25,62,149.8
1899,G#3,527.0,0.25,62,149.8
1900,B3,527.0,0.25,62,149.8
1901,D4,527.0,0.25,62,149.8
1902,D5,528.0,1.5,88,149.8
1903,G#5,528.0,1.5,88,149.8
1904,B5,528.0,1.5,88,149.8
1905,D6,528.0,1.5,88,149.8
1906,E3,528.0,1.5,68,149.8
1907,G#3,528.0,1.5,68,149.8
1908,B3,528.0,1.5,68,149.8
1909,D4,528.0,1.5,68,149.8
1910,C6,529.5,0.275,70,149.8
1911,B5,529.75,0.275,69,149.8
1912,A5,530.0,0.275,68,149.8
1913,G#5,530.25,0.275,68,149.8
1914,F#5,530.5,0.275,68,149.8
1915,E5,530.75,0.275,66,149.8
1916,D5,531.0,0.275,64,149.8
1917,C5,531.25,0.275,64,149.8
1918,B4,531.5,0.275,64,149.8
1919,A4,531.75,0.275,64,149.8
1920,G#4,532.0,0.183,63,149.8
1921,F#4,532.167,0.183,63,149.8
1922,E4,532.333,0.183,63,149.8
1923,D4,532.5,0.183,63,149.8
1924,C4,532.667,0.183,63,149.8
1925,B3,532.833,0.183,63,149.8
1926,A3,533.0,0.221,63,149.8
1927,G#3,533.2,0.221,63,149.8
1928,F#3,533.4,0.221,63,149.8
1929,E3,533.6,0.221,62,149.8
1930,E-3,533.8,0.221,62,149.8
1931,E3,534.0,1.0,89,149.8
1932,D4,536.0,0.25,36,149.8
1933,B3,536.0,0.25,36,149.8
1934,E3,536.0,0.25,36,149.8
1935,G#2,536.0,0.25,26,149.8
1936,G#1,536.0,0.25,26,149.8
1937,C4,537.0,0.5,40,149.8
1938,A3,537.0,0.5,40,149.8
1939,E3,537.0,0.5,40,149.8
1940,A1,537.0,0.5,32,149.8
1941,A2,537.0,0.5,32,149.8
1942,C6,539.0,0.5,43,149.8
1943,F2,539.0,0.5,33,149.8
1944,C3,539.0,0.5,33,149.8
1945,A3,539.0,0.5,33,149.8
1946,C6,540.0,1.5,45,149.8
1947,F2,540.0,4.979,33,149.8
1948,C3,540.0,4.979,33,149.8
1949,A3,540.0,4.979,33,149.8
1950,B-5,541.5,0.25,42,149.8
1951,A5,541.75,0.25,42,149.8
1952,G5,542.0,0.25,40,149.8
1953,F5,542.25,0.25,40,149.8
1954,E5,542.5,0.25,40,149.8
1955,D5,542.75,0.25,40,149.8
1956,C5,543.0,0.25,40,149.8
1957,B-4,543.25,0.25,40,149.8
1958,A4,543.5,0.25,39,149.8
1959,G4,543.75,0.25,39,149.8
1960,F#4,544.0,0.2,37,149.8
1961,E4,544.2,0.2,36,149.8
1962,D4,544.4,0.2,35,149.8
1963,C4,544.6,0.2,35,149.8
1964,B-3,544.8,0.2,40,149.8
1965,A3,545.0,0.979,42,149.8
1966,F2,545.0,1.0,34,149.8
1967,C3,545.0,1.0,34,149.8
1968,A3,546.0,2.0,42,149.8
1969,F2,546.0,2.0,34,149.8
1970,C3,546.0,2.0,34,149.8
1971,A3,548.0,0.9,49,149.8
1972,E-4,548.0,0.9,49,149.8
1973,C3,548.0,0.9,37,149.8
1974,F2,548.0,0.9,37,149.8
1975,A3,549.0,2.0,49,149.8
1976,E-4,549.0,2.0,49,149.8
1977,F2,549.0,2.0,42,149.8
1978,C3,549.0,2.0,42,149.8
1979,E-4,551.0,0.9,53,149.8
1980,A4,551.0,0.9,53,149.8
1981,F#2,551.0,0.9,48,149.8
1982,C3,551.0,0.9,48,149.8
1983,A3,551.0,0.9,48,149.8
1984,E-4,552.0,2.0,59,149.8
1985,A4,552.0,2.0,59,149.8
1986,F#2,552.0,2.0,53,149.8
1987,A3,552.0,2.0,53,149.8
1988,C3,552.0,2.0,53,149.8
1989,E-4,554.0,0.9,56,149.8
1990,A4,554.0,0.9,56,149.8
1991,E-5,554.0,0.9,56,149.8
1992,F#2,554.0,0.9,48,149.8
1993,C3,554.0,0.9,48,149.8
1994,A3,554.0,0.9,48,149.8
1995,E-4,555.0,2.0,61,149.8
1996,E-5,555.0,2.0,61,149.8
1997,A4,555.0,2.0,61,149.8
1998,F#2,555.0,2.0,57,149.8
1999,A3,555.0,2.0,57,149.8
2000,C3,555.0,2.0,57,149.8
2001,E-5,557.0,0.9,61,149.8
2002,C5,557.0,0.9,61,149.8
2003,A5,557.0,0.9,61,149.8
2004,C6,557.0,0.9,61,149.8
2005,F#2,557.0,0.9,52,149.8
2006,C3,557.0,0.9,52,149.8
2007,A3,557.0,0.9,52,149.8
2008,C5,558.0,2.0,69,149.8
2009,E-5,558.0,2.0,69,149.8
2010,A5,558.0,2.0,69,149.8
2011,C6,558.0,2.0,69,149.8
2012,F#2,558.0,5.0,58,149.8
2013,B2,558.0,5.0,58,149.8
2014,A3,558.0,5.0,58,149.8
2015,B4,560.0,1.0,71,149.8
2016,E-5,560.0,1.0,71,149.8
2017,A5,560.0,1.0,71,149.8
2018,B5,560.0,1.0,71,149.8
2019,B-4,561.0,2.0,75,149.8
2020,E-5,561.0,2.0,75,149.8
2021,B-5,561.0,2.0,75,149.8
2022,B4,563.0,0.9,72,149.8
2023,B5,563.0,0.9,72,149.8
2024,A5,563.0,0.9,72,149.8
2025,E-5,563.0,0.9,72,149.8
2026,A3,563.0,0.9,67,149.8
2027,B2,563.0,0.9,67,149.8
2028,F#2,563.0,0.9,67,149.8
2029,B4,564.0,3.0,85,149.8
2030,E5,564.0,3.0,85,149.8
2031,B5,564.0,3.0,85,149.8
2032,G3,564.0,0.25,43,149.8
2033,B2,564.0,0.25,43,149.8
2034,G2,564.0,0.25,43,149.8
2035,G3,564.5,0.25,36,149.8
2036,B3,564.5,0.25,36,149.8
2037,G3,565.0,0.25,36,149.8
2038,B3,565.0,0.25,36,149.8
2039,G3,565.5,0.25,36,149.8
2040,B3,565.5,0.25,36,149.8
2041,G3,566.0,0.25,36,149.8
2042,B3,566.0,0.25,36,149.8
2043,G3,566.5,0.25,36,149.8
2044,B3,566.5,0.25,36,149.8
2045,E5,567.0,3.0,87,149.8
2046,E6,567.0,3.0,87,149.8
2047,B3,567.0,0.25,44,149.8
2048,G#3,567.0,0.25,44,149.8
2049,G#3,567.5,0.25,38,149.8
2050,B3,567.5,0.25,38,149.8
2051,G#3,568.0,0.25,38,149.8
2052,B3,568.0,0.25,38,149.8
2053,G#3,568.5,0.25,38,149.8
2054,B3,568.5,0.25,38,149.8
2055,G#3,569.0,0.25,38,149.8
2056,B3,569.0,0.25,38,149.8
2057,G#3,569.5,0.25,38,149.8
2058,B3,569.5,0.25,38,149.8
2059,B4,570.0,0.25,44,149.8
2060,D5,570.0,0.25,44,149.8
2061,E5,570.0,0.25,44,149.8
2062,D4,570.0,0.25,39,149.8
2063,B3,570.0,0.25,39,149.8
2064,G#3,570.0,0.25,39,149.8
2065,D4,570.49,0.24,30,149.8
2066,G#3,570.49,0.24,30,149.8
2067,B3,570.49,0.24,30,149.8
2068,C5,571.0,0.25,52,149.8
2069,F5,571.0,0.25,52,149.8
2070,F4,571.0,0.25,52,149.8
2071,C4,571.0,0.25,40,149.8
2072,A3,571.0,0.25,40,149.8
2073,C4,571.5,0.25,34,149.8
2074,A3,571.5,0.25,34,149.8
2075,C4,572.0,0.25,34,149.8
2076,A3,572.0,0.25,34,149.8
2077,C4,572.5,0.25,34,149.8
2078,A3,572.5,0.25,34,149.8
2079,E5,573.0,0.25,50,149.8
2080,F5,573.0,0.25,50,149.8
2081,C5,573.0,0.25,50,149.8
2082,E4,573.0,0.25,40,149.8
2083,C4,573.0,0.25,40,149.8
2084,A3,573.0,0.25,40,149.8
2085,E4,573.5,0.25,32,149.8
2086,C4,573.5,0.25,32,149.8
2087,A3,573.5,0.25,32,149.8
2088,D5,574.0,0.25,52,149.8
2089,G#5,574.0,0.25,52,149.8
2090,G#4,574.0,0.25,52,149.8
2091,D4,574.0,0.25,40,149.8
2092,B3,574.0,0.25,40,149.8
2093,B3,574.5,0.25,34,149.8
2094,D4,574.5,0.25,34,149.8
2095,B3,575.0,0.25,34,149.8
2096,D4,575.0,0.25,34,149.8
2097,B3,575.5,0.25,34,149.8
2098,D4,575.5,0.25,34,149.8
2099,E5,576.0,0.25,50,149.8
2100,D5,576.0,0.25,50,149.8
2101,G#5,576.0,0.25,50,149.8
2102,G#4,576.0,0.25,50,149.8
2103,E4,576.0,0.25,39,149.8
2104,D4,576.0,0.25,39,149.8
2105,B3,576.0,0.25,39,149.8
2106,B3,576.5,0.25,32,149.8
2107,D4,576.5,0.25,32,149.8
2108,E4,576.5,0.25,32,149.8
2109,E5,577.0,0.25,56,149.8
2110,A5,577.0,0.25,56,149.8
2111,A4,577.0,0.25,56,149.8
2112,E4,577.0,0.25,40,149.8
2113,C4,577.0,0.25,40,149.8
2114,C4,577.5,0.25,36,149.8
2115,E4,577.5,0.25,36,149.8
2116,C4,578.0,0.25,36,149.8
2117,E4,578.0,0.25,36,149.8
2118,C4,578.5,0.25,36,149.8
2119,E4,578.5,0.25,36,149.8
2120,A5,579.0,0.25,55,149.8
2121,E5,579.0,0.25,55,149.8
2122,C4,579.0,0.25,45,149.8
2123,E4,579.0,0.25,45,149.8
2124,C#4,579.5,0.25,40,149.8
2125,E4,579.5,0.25,40,149.8
2126,G5,580.0,0.25,57,149.8
2127,E5,580.0,0.25,57,149.8
2128,B-5,580.0,0.25,57,149.8
2129,B-4,580.0,0.25,57,149.8
2130,C#4,580.0,0.25,43,149.8
2131,E4,580.0,0.25,43,149.8
2132,C#4,580.5,0.25,38,149.8
2133,E4,580.5,0.25,38,149.8
2134,C#4,581.0,0.25,39,149.8
2135,E4,581.0,0.25,39,149.8
2136,C#4,581.5,0.25,39,149.8
2137,E4,581.5,0.25,39,149.8
2138,F#4,582.0,0.25,34,149.8
2139,C#5,582.0,0.25,41,149.8
2140,E5,582.0,0.25,41,149.8
2141,A5,582.0,0.25,41,149.8
2142,F#4,582.5,0.25,32,149.8
2143,B-5,582.5,0.25,34,149.8
2144,E5,582.5,0.25,34,149.8
2145,C#5,582.5,0.25,34,149.8
2146,F#4,583.0,0.25,32,149.8
2147,B-5,583.0,0.25,34,149.8
2148,E5,583.0,0.25,34,149.8
2149,C#5,583.0,0.25,34,149.8
2150,F#4,583.5,0.25,32,149.8
2151,B-5,583.5,0.25,34,149.8
2152,E5,583.5,0.25,34,149.8
2153,C#5,583.5,0.25,34,149.8
2154,F#4,584.0,0.25,32,149.8
2155,B-5,584.0,0.25,34,149.8
2156,E5,584.0,0.25,34,149.8
2157,C#5,584.0,0.25,34,149.8
2158,F#4,584.5,0.25,32,149.8
2159,B-5,584.5,0.25,34,149.8
2160,E5,584.5,0.25,34,149.8
2161,C#5,584.5,0.25,34,149.8
2162,F#4,585.0,0.25,40,149.8
2163,C#5,585.0,0.25,41,149.8
2164,E5,585.0,0.25,41,149.8
2165,B-5,585.0,0.25,41,149.8
2166,F#4,585.5,0.25,45,149.8
2167,B-5,585.5,0.25,47,149.8
2168,E5,585.5,0.25,47,149.8
2169,C#5,585.5,0.25,47,149.8
2170,F#4,586.0,0.25,49,149.8
2171,B-5,586.0,0.25,51,149.8
2172,E5,586.0,0.25,51,149.8
2173,C#5,586.0,0.25,51,149.8
2174,F#4,586.5,0.25,52,149.8
2175,B-5,586.5,0.25,56,149.8
2176,E5,586.5,0.25,56,149.8
2177,C#5,586.5,0.25,56,149.8
2178,F#4,587.0,0.25,56,149.8
2179,B-5,587.0,0.25,62,149.8
2180,E5,587.0,0.25,62,149.8
2181,C#5,587.0,0.25,62,149.8
2182,F#4,587.5,0.25,58,149.8
2183,B-5,587.5,0.25,67,149.8
2184,E5,587.5,0.25,67,149.8
2185,C#5,587.5,0.25,67,149.8
2186,B5,588.0,0.25,91,149.8
2187,B3,588.0,0.25,63,149.8
2188,E-4,588.0,0.25,63,149.8
2189,F#4,588.0,0.25,63,149.8
2190,A4,588.0,0.25,63,149.8
2191,C6,588.5,0.25,76,149.8
2192,C7,588.5,0.25,76,149.8
2193,A4,588.5,0.25,52,149.8
2194,F#4,588.5,0.25,52,149.8
2195,E-4,588.5,0.25,52,149.8
2196,B3,588.5,0.25,52,149.8
2197,C6,589.0,0.25,76,149.8
2198,C7,589.0,0.25,76,149.8
2199,A4,589.0,0.25,52,149.8
2200,F#4,589.0,0.25,52,149.8
2201,E-4,589.0,0.25,52,149.8
2202,B3,589.0,0.25,52,149.8
2203,C6,589.5,0.25,76,149.8
2204,C7,589.5,0.25,76,149.8
2205,A4,589.5,0.25,52,149.8
2206,F#4,589.5,0.25,52,149.8
2207,E-4,589.5,0.25,52,149.8
2208,B3,589.5,0.25,52,149.8
2209,C6,590.0,0.25,76,149.8
2210,C7,590.0,0.25,76,149.8
2211,A4,590.0,0.25,52,149.8
2212,F#4,590.0,0.25,52,149.8
2213,E-4,590.0,0.25,52,149.8
2214,B3,590.0,0.25,52,149.8
2215,C6,590.5,0.25,76,149.8
2216,C7,590.5,0.25,76,149.8
2217,A4,590.5,0.25,52,149.8
2218,F#4,590.5,0.25,52,149.8
2219,E-4,590.5,0.25,52,149.8
2220,B3,590.5,0.25,52,149.8
2221,C6,591.0,0.25,78,149.8
2222,C7,591.0,0.25,78,149.8
2223,A4,591.0,0.25,56,149.8
2224,F#4,591.0,0.25,56,149.8
2225,E-4,591.0,0.25,56,149.8
2226,B3,591.0,0.25,56,149.8
2227,C6,591.5,0.25,71,149.8
2228,C7,591.5,0.25,71,149.8
2229,B3,591.5,0.25,53,149.8
2230,E-4,591.5,0.25,53,149.8
2231,F#4,591.5,0.25,53,149.8
2232,A4,591.5,0.25,53,149.8
2233,C6,592.0,0.25,68,149.8
2234,C7,592.0,0.25,68,149.8
2235,B3,592.0,0.25,50,149.8
2236,E-4,592.0,0.25,50,149.8
2237,F#4,592.0,0.25,50,149.8
2238,A4,592.0,0.25,50,149.8
2239,C6,592.5,0.25,62,149.8
2240,C7,592.5,0.25,62,149.8
2241,B3,592.5,0.25,46,149.8
2242,E-4,592.5,0.25,46,149.8
2243,F#4,592.5,0.25,46,149.8
2244,A4,592.5,0.25,46,149.8
2245,C6,593.0,0.25,56,149.8
2246,C7,593.0,0.25,56,149.8
2247,B3,593.0,0.25,41,149.8
2248,E-4,593.0,0.25,41,149.8
2249,F#4,593.0,0.25,41,149.8
2250,A4,593.0,0.25,41,149.8
2251,C6,593.5,0.25,52,149.8
2252,C7,593.5,0.25,52,149.8
2253,B3,593.5,0.25,41,149.8
2254,E-4,593.5,0.25,41,149.8
2255,F#4,593.5,0.25,41,149.8
2256,A4,593.5,0.25,41,149.8
2257,E3,594.0,0.25,40,149.8
2258,C7,594.0,1.0,56,149.8
2259,C6,594.0,1.0,56,149.8
2260,G4,594.25,0.25,34,149.8
2261,B3,594.5,0.25,37,149.8
2262,G4,594.75,0.25,34,149.8
2263,F#3,595.0,0.25,40,149.8
2264,B6,595.0,3.0,56,149.8
2265,B5,595.0,3.0,56,149.8
2266,A4,595.25,0.25,34,149.8
2267,B3,595.5,0.25,37,149.8
2268,A4,595.75,0.25,34,149.8
2269,G3,596.0,0.25,40,149.8
2270,B4,596.25,0.25,35,149.8
2271,B3,596.5,0.25,38,149.8
2272,B4,596.75,0.25,35,149.8
2273,E3,597.0,0.25,40,149.8
2274,G4,597.25,0.25,34,149.8
2275,B3,597.5,0.25,37,149.8
2276,G4,597.75,0.25,34,149.8
2277,F#3,598.0,0.25,40,149.8
2278,E5,598.0,3.0,56,149.8
2279,E6,598.0,3.0,56,149.8
2280,A4,598.25,0.25,34,149.8
2281,B3,598.5,0.25,37,149.8
2282,A4,598.75,0.25,34,149.8
2283,G3,599.0,0.25,40,149.8
2284,B4,599.25,0.25,35,149.8
2285,B3,599.5,0.25,38,149.8
2286,B4,599.75,0.25,35,149.8
2287,E3,600.0,0.25,40,149.8
2288,G4,600.25,0.25,34,149.8
2289,B3,600.5,0.25,37,149.8
2290,G4,600.75,0.25,34,149.8
2291,F#3,601.0,0.25,40,149.8
2292,B4,601.0,3.0,56,149.8
2293,B5,601.0,3.0,56,149.8
2294,A4,601.25,0.25,34,149.8
2295,B3,601.5,0.25,37,149.8
2296,A4,601.75,0.25,34,149.8
2297,G3,602.0,0.25,40,149.8
2298,B4,602.25,0.25,35,149.8
2299,B3,602.5,0.25,38,149.8
2300,B4,602.75,0.25,35,149.8
2301,E3,603.0,0.25,40,149.8
2302,G4,603.25,0.25,34,149.8
2303,B3,603.5,0.25,37,149.8
2304,G4,603.75,0.25,34,149.8
2305,E4,604.0,2.0,56,149.8
2306,E5,604.0,3.0,56,149.8
2307,F#3,604.0,0.25,40,149.8
2308,A4,604.25,0.25,34,149.8
2309,B3,604.5,0.25,37,149.8
2310,A4,604.75,0.25,34,149.8
2311,G3,605.0,0.25,40,149.8
2312,B4,605.25,0.25,35,149.8
2313,B3,605.5,0.25,38,149.8
2314,B4,605.75,0.25,35,149.8
2315,A3,606.0,0.25,40,149.8
2316,G4,606.25,0.25,34,149.8
2317,E4,606.5,0.25,37,149.8
2318,G4,606.75,0.25,34,149.8
2319,C5,607.0,1.0,63,149.8
2320,B-3,607.0,0.25,49,149.8
2321,G4,607.25,0.25,34,149.8
2322,E4,607.5,0.25,42,149.8
2323,G4,607.75,0.25,34,149.8
2324,B4,608.0,0.979,57,149.8
2325,B3,608.0,0.25,48,149.8
2326,G4,608.25,0.25,35,149.8
2327,E4,608.5,0.25,38,149.8
2328,G4,608.75,0.25,38,149.8
2329,B4,609.0,2.0,65,149.8
2330,B3,609.0,0.25,51,149.8
2331,G4,609.25,0.25,39,149.8
2332,E4,609.5,0.25,42,149.8
2333,G4,609.75,0.25,39,149.8
2334,B3,610.0,0.25,48,149.8
2335,G4,610.25,0.25,38,149.8
2336,E4,610.5,0.25,39,149.8
2337,G4,610.75,0.25,38,149.8
2338,E-5,611.0,1.0,58,149.8
2339,B3,611.0,0.25,45,149.8
2340,A4,611.25,0.25,41,149.8
2341,F#4,611.5,0.25,45,149.8
2342,A4,611.75,0.25,36,149.8
2343,E5,612.0,0.5,56,149.8
2344,E2,612.0,0.25,36,149.8
2345,G3,612.25,0.25,31,149.8
2346,C5,612.5,0.5,69,149.8
2347,B2,612.5,0.25,36,149.8
2348,G3,612.75,0.25,35,149.8
2349,C6,613.0,1.5,73,149.8
2350,F#2,613.0,0.25,45,149.8
2351,A3,613.25,0.25,36,149.8
2352,B2,613.5,0.25,39,149.8
2353,A3,613.75,0.25,34,149.8
2354,G2,614.0,0.25,40,149.8
2355,B3,614.25,0.25,34,149.8
2356,B5,614.5,0.5,56,149.8
2357,B2,614.5,0.25,36,149.8
2358,B3,614.75,0.25,32,149.8
2359,E2,615.0,0.25,36,149.8
2360,G3,615.25,0.25,31,149.8
2361,B5,615.5,0.5,71,149.8
2362,B2,615.5,0.25,36,149.8
2363,G3,615.75,0.25,35,149.8
2364,F#5,616.0,1.5,68,149.8
2365,F#2,616.0,0.25,45,149.8
2366,A3,616.25,0.25,36,149.8
2367,B2,616.5,0.25,39,149.8
2368,A3,616.75,0.25,34,149.8
2369,G2,617.0,0.25,40,149.8
2370,B3,617.25,0.25,34,149.8
2371,E5,617.5,0.5,51,149.8
2372,B2,617.5,0.25,36,149.8
2373,B3,617.75,0.25,32,149.8
2374,E2,618.0,0.25,36,149.8
2375,G3,618.25,0.25,31,149.8
2376,E5,618.5,0.5,71,149.8
2377,B2,618.5,0.25,36,149.8
2378,G3,618.75,0.25,35,149.8
2379,C5,619.0,1.5,69,149.8
2380,F#2,619.0,0.25,45,149.8
2381,A3,619.25,0.25,36,149.8
2382,B2,619.5,0.25,39,149.8
2383,A3,619.75,0.25,34,149.8
2384,G2,620.0,0.25,40,149.8
2385,B3,620.25,0.25,34,149.8
2386,B4,620.5,0.5,53,149.8
2387,B2,620.5,0.25,36,149.8
2388,B3,620.75,0.25,32,149.8
2389,E2,621.0,0.25,36,149.8
2390,G3,621.25,0.25,30,149.8
2391,B4,621.5,0.5,69,149.8
2392,B2,621.5,0.25,33,149.8
2393,G3,621.75,0.25,30,149.8
2394,F#4,622.0,1.5,63,149.8
2395,F#2,622.0,0.25,36,149.8
2396,A3,622.25,0.25,30,149.8
2397,B2,622.5,0.25,33,149.8
2398,A3,622.75,0.25,30,149.8
2399,G2,623.0,0.25,36,149.8
2400,B3,623.25,0.25,31,149.8
2401,E4,623.5,0.479,56,149.8
2402,B2,623.5,0.25,34,149.8
2403,B3,623.75,0.25,31,149.8
2404,E4,624.0,1.0,63,149.8
2405,A2,624.0,0.25,40,149.8
2406,G3,624.25,0.25,34,149.8
2407,E3,624.5,0.25,37,149.8
2408,G3,624.75,0.25,34,149.8
2409,C4,625.0,1.0,63,149.8
2410,B-2,625.0,0.25,49,149.8
2411,G3,625.25,0.25,34,149.8
2412,E3,625.5,0.25,42,149.8
2413,G3,625.75,0.25,34,149.8
2414,B3,626.0,0.979,65,149.8
2415,B2,626.0,0.25,48,149.8
2416,G3,626.25,0.25,35,149.8
2417,E3,626.5,0.25,38,149.8
2418,G3,626.75,0.25,38,149.8
2419,B3,627.0,0.5,71,149.8
2420,B2,627.0,1.979,53,149.8
2421,G3,627.5,0.5,65,149.8
2422,E3,628.0,0.5,71,149.8
2423,C3,628.5,0.5,65,149.8
2424,B2,629.0,0.5,70,149.8
2425,B1,629.0,1.0,57,149.8
2426,E-3,629.5,0.5,76,149.8
2427,E3,630.0,1.0,80,149.8
2428,E2,630.0,0.25,79,149.8
2429,F#3,630.5,0.25,75,149.8
2430,F#2,630.5,0.25,75,149.8
2431,G3,631.0,0.25,75,149.8
2432,G2,631.0,0.25,75,149.8
2433,A3,631.5,0.25,80,149.8
2434,A2,631.5,0.25,80,149.8
2435,B3,632.0,4.0,87,149.8
2436,B2,632.0,4.0,87,149.8
2437,E4,633.0,3.0,73,149.8
2438,C4,633.0,3.0,73,149.8
2439,F4,636.0,2.0,34,149.8
2440,C4,636.0,3.0,28,149.8
2441,A2,636.0,3.0,40,149.8
2442,A3,636.0,3.0,40,149.8
2443,C5,638.0,3.0,39,149.8
2444,A4,639.0,3.0,27,149.8
2445,E-4,639.0,3.0,27,149.8
2446,F#4,639.0,3.0,27,149.8
2447,B3,639.0,3.0,40,149.8
2448,B2,639.0,3.0,40,149.8
2449,B4,641.0,0.979,33,149.8
2450,B4,642.0,1.0,36,149.8
2451,G4,642.0,1.0,36,149.8
2452,E4,642.0,1.0,36,149.8
2453,E2,642.0,0.25,86,149.8
2454,E1,642.0,0.25,86,149.8
2455,F#2,642.5,0.25,75,149.8
2456,F#1,642.5,0.25,75,149.8
2457,G2,643.0,0.25,75,149.8
2458,G1,643.0,0.25,75,149.8
2459,A2,643.5,0.25,80,149.8
2460,A1,643.5,0.25,80,149.8
2461,B2,644.0,4.0,87,149.8
2462,B1,644.0,4.0,87,149.8
2463,E3,645.0,3.0,73,149.8
2464,C3,645.0,3.0,73,149.8
2465,F3,648.0,2.0,34,149.8
2466,C3,648.0,3.0,28,149.8
2467,A1,648.0,3.0,40,149.8
2468,A2,648.0,3.0,40,149.8
2469,C4,650.0,3.0,39,149.8
2470,A3,651.0,3.0,27,149.8
2471,E-3,651.0,3.0,27,149.8
2472,F#3,651.0,3.0,27,149.8
2473,B1,651.0,3.0,26,149.8
2474,B2,651.0,3.0,26,149.8
2475,B3,653.0,0.979,33,149.8
2476,C4,656.056,3.0,39,149.8
2477,E3,657.0,3.0,24,149.8
2478,G3,657.0,3.0,24,149.8
2479,B2,657.0,3.0,21,149.8
2480,E2,657.0,3.0,21,149.8
2481,B3,659.056,1.0,33,149.8
2482,C4,662.056,3.0,39,149.8
2483,F#3,663.0,3.0,24,149.8
2484,A3,663.0,3.0,24,149.8
2485,B2,663.0,3.0,21,149.8
2486,B1,663.0,3.0,21,149.8
2487,E-4,665.0,1.0,33,149.8
2488,E2,666.0,1.0,23,149.8
2489,G3,666.0,1.0,30,149.8
2490,E4,666.0,1.0,30,149.8
2491,C5,668.056,3.0,35,149.8
2492,E-4,669.0,3.0,21,149.8
2493,F#4,669.0,3.0,21,149.8
2494,A4,669.0,3.0,21,149.8
2495,B3,669.0,3.0,18,149.8
2496,B2,669.0,3.0,18,149.8
2497,B4,671.056,1.0,29,149.8
2498,C5,674.0,3.0,35,149.8
2499,G4,675.0,3.0,21,149.8
2500,E4,675.0,3.0,21,149.8
2501,B3,675.0,3.0,18,149.8
2502,E3,675.0,3.0,18,149.8
2503,B4,677.0,1.0,29,149.8
2504,C5,680.056,3.0,35,149.8
2505,F#4,681.0,3.0,21,149.8
2506,A4,681.0,3.0,21,149.8
2507,B3,681.0,3.0,18,149.8
2508,B2,681.0,3.0,18,149.8
2509,E-5,683.0,1.0,29,149.8
2510,E3,684.0,1.0,20,149.8
2511,G4,684.0,1.0,27,149.8
2512,E5,684.0,1.0,27,149.8
2513,C6,686.056,3.0,35,149.8
2514,B4,687.0,3.0,20,149.8
2515,E-5,687.0,3.0,21,149.8
2516,F#5,687.0,3.0,21,149.8
2517,A5,687.0,3.0,21,149.8
2518,B5,689.056,1.0,29,149.8
2519,C5,692.0,2.0,29,149.8
2520,B4,694.0,1.0,38,149.8
2521,F#5,695.0,1.0,28,149.8
2522,E-5,695.0,1.0,28,149.8
2523,A4,695.0,1.0,22,149.8
2524,F#4,695.0,1.0,22,149.8
2525,E5,696.0,1.5,34,149.8
2526,G5,696.0,1.5,34,149.8
2527,E4,696.0,1.5,28,149.8
2528,G4,696.0,1.5,28,149.8
2529,E-5,697.5,0.5,30,149.8
2530,F#5,697.5,0.5,30,149.8
2531,A4,697.5,0.5,24,149.8
2532,F#4,697.5,0.5,24,149.8
2533,E5,698.0,0.75,34,149.8
2534,G4,698.0,0.75,23,149.8
2535,A5,699.0,0.75,33,149.8
2536,F#5,699.0,0.75,33,149.8
2537,D4,699.0,0.75,27,149.8
2538,F#4,699.0,0.75,27,149.8
2539,A4,699.0,0.75,27,149.8
2540,D5,701.0,0.95,24,149.8
2541,A5,701.0,0.95,28,149.8
2542,F#5,701.0,0.95,28,149.8
2543,F#5,702.0,1.5,34,149.8
2544,A5,702.0,1.5,34,149.8
2545,C5,702.0,1.5,28,149.8
2546,D5,702.0,1.5,28,149.8
2547,G5,703.5,0.5,34,149.8
2548,D5,703.5,0.5,24,149.8
2549,B4,703.5,0.5,24,149.8
2550,F#5,704.0,0.75,32,149.8
2551,A5,704.0,0.75,32,149.8
2552,A4,704.0,0.75,22,149.8
2553,C5,704.0,0.75,22,149.8
2554,B5,705.0,0.75,33,149.8
2555,G5,705.0,0.75,33,149.8
2556,G4,705.0,0.75,28,149.8
2557,B4,705.0,0.75,28,149.8
2558,B5,707.0,0.95,27,149.8
2559,G5,707.0,0.95,21,149.8
2560,B5,708.0,1.5,34,149.8
2561,G5,708.0,1.5,27,149.8
2562,A5,709.5,0.5,30,149.8
2563,F#5,709.5,0.5,23,149.8
2564,E5,710.0,0.75,20,149.8
2565,G5,710.0,0.75,28,149.8
2566,B5,710.0,0.75,28,149.8
2567,E-5,711.0,0.75,27,149.8
2568,C6,711.0,0.75,30,149.8
2569,A5,711.0,0.75,30,149.8
2570,E5,713.0,2.5,56,149.8
2571,E6,713.0,2.5,56,149.8
2572,B3,714.0,3.0,30,149.8
2573,G2,714.0,3.0,30,149.8
2574,E3,714.0,3.0,30,149.8
2575,E-5,715.5,0.5,56,149.8
2576,E-6,715.5,0.5,56,149.8
2577,E5,716.0,1.0,60,149.8
2578,E6,716.0,1.0,60,149.8
2579,A2,717.0,2.0,35,149.8
2580,C4,717.0,2.0,48,149.8
2581,E4,717.0,2.0,48,149.8
2582,F#4,717.0,2.0,48,149.8
2583,B-2,719.0,1.0,43,149.8
2584,F#4,719.0,1.0,59,149.8
2585,E4,719.0,1.0,59,149.8
2586,C#4,719.0,1.0,59,149.8
2587,F#4,720.0,1.5,71,149.8
2588,B2,720.0,3.0,49,149.8
2589,A3,720.0,3.0,60,149.8
2590,E-4,720.0,3.0,60,149.8
2591,G4,721.5,0.5,51,149.8
2592,A4,722.0,0.5,56,149.8
2593,G4,722.5,0.5,43,149.8
2594,F#4,723.0,1.0,47,149.8
2595,G3,723.0,2.0,26,149.8
2596,C3,723.0,2.0,26,149.8
2597,E4,724.0,1.0,39,149.8
2598,E5,725.0,2.5,58,149.8
2599,E6,725.0,2.5,58,149.8
2600,B1,725.0,0.5,34,149.8
2601,B2,725.0,0.5,34,149.8
2602,A1,725.5,0.5,36,149.8
2603,A2,725.5,0.5,36,149.8
2604,G1,726.0,2.0,40,149.8
2605,G2,726.0,2.0,40,149.8
2606,E-5,727.5,0.5,59,149.8
2607,E-6,727.5,0.5,59,149.8
2608,E5,728.0,1.0,61,149.8
2609,E6,728.0,1.0,61,149.8
2610,G#1,728.0,1.0,34,149.8
2611,G#2,728.0,1.0,34,149.8
2612,C4,729.0,2.0,43,149.8
2613,E4,729.0,2.0,43,149.8
2614,F#4,729.0,2.0,43,149.8
2615,A1,729.0,2.0,28,149.8
2616,A2,729.0,2.0,28,149.8
2617,F#4,731.0,1.0,36,149.8
2618,E4,731.0,1.0,36,149.8
2619,C#4,731.0,1.0,36,149.8
2620,B-1,731.0,1.0,24,149.8
2621,B-2,731.0,1.0,24,149.8
2622,F#4,732.0,1.5,41,149.8
2623,A3,732.0,3.0,34,149.8
2624,E-4,732.0,3.0,34,149.8
2625,B1,732.0,3.0,25,149.8
2626,B2,732.0,3.0,25,149.8
2627,A4,733.5,0.5,26,149.8
2628,G4,734.0,0.5,28,149.8
2629,F#4,734.5,0.5,21,149.8
2630,E2,735.0,1.0,14,149.8
2631,G3,735.0,1.0,22,149.8
2632,E4,735.0,1.0,22,149.8
,note_name,start_time,duration,velocity,tempo
0,E4,1.5,0.25,43,70.6
1,F#4,1.75,0.25,39,70.6
2,E4,2.0,0.25,34,70.6
3,G#4,2.0,1.0,50,70.6
4,E2,2.0,0.5,28,70.6
5,E3,2.0,0.5,28,70.6
6,B3,2.25,0.25,26,70.6
7,E4,2.5,0.25,31,70.6
8,B3,2.75,0.25,26,70.6
9,G#4,3.0,0.25,30,70.6
10,B4,3.0,0.5,46,70.6
11,B3,3.25,0.25,27,70.6
12,F#4,3.5,0.25,28,70.6
13,A4,3.5,0.5,43,70.6
14,B3,3.75,0.25,27,70.6
15,E4,4.0,0.25,34,70.6
16,G#4,4.0,0.5,50,70.6
17,B1,4.0,0.5,28,70.6
18,B2,4.0,0.5,28,70.6
19,B3,4.25,0.25,26,70.6
20,E-4,4.5,0.25,27,70.6
21,F#4,4.5,0.438,41,70.6
22,B3,4.75,0.188,25,70.6
23,E-4,5.0,0.25,27,70.6
24,F#4,5.0,0.5,41,70.6
25,B3,5.25,0.25,26,70.6
26,E4,5.5,0.25,28,70.6
27,G#4,5.5,0.5,43,70.6
28,B3,5.75,0.25,28,70.6
29,E4,6.0,0.25,30,70.6
30,A4,6.0,0.5,46,70.6
31,C#2,6.0,0.5,28,70.6
32,C#3,6.0,0.5,28,70.6
33,B3,6.25,0.25,28,70.6
34,E4,6.5,0.25,36,70.6
35,C#5,6.5,0.5,54,70.6
36,B3,6.75,0.25,31,70.6
37,F#4,7.0,0.25,37,70.6
38,B4,7.0,0.5,47,70.6
39,E-3,7.0,0.5,26,70.6
40,E-2,7.0,0.5,26,70.6
41,B3,7.25,0.25,26,70.6
42,E-4,7.5,0.25,25,70.6
43,F#4,7.5,0.5,38,70.6
44,B2,7.5,0.5,24,70.6
45,B1,7.5,0.5,24,70.6
46,B3,7.75,0.25,27,70.6
47,B3,8.0,1.0,37,70.6
48,E4,8.0,1.0,37,70.6
49,G#4,8.0,1.0,37,70.6
50,E2,8.0,0.25,28,70.6
51,E3,8.0,0.25,28,70.6
52,G#3,8.25,0.25,25,70.6
53,B3,8.5,0.25,28,70.6
54,A3,8.75,0.25,26,70.6
55,G#3,9.0,0.25,28,70.6
56,A3,9.25,0.25,25,70.6
57,E5,9.5,0.25,54,70.6
58,G#3,9.5,0.25,34,70.6
59,F#5,9.75,0.25,48,70.6
60,F#3,9.75,0.25,31,70.6
61,E3,10.0,0.25,42,70.6
62,G#4,10.0,1.0,63,70.6
63,G#5,10.0,1.0,63,70.6
64,B3,10.25,0.25,32,70.6
65,B2,10.5,0.25,39,70.6
66,B3,10.75,0.25,32,70.6
67,E3,11.0,0.25,37,70.6
68,B4,11.0,0.5,57,70.6
69,B5,11.0,0.5,57,70.6
70,B3,11.25,0.25,33,70.6
71,B2,11.5,0.25,34,70.6
72,A4,11.5,0.5,54,70.6
73,A5,11.5,0.5,54,70.6
74,B3,11.75,0.25,33,70.6
75,E-3,12.0,0.25,42,70.6
76,G#4,12.0,0.5,63,70.6
77,G#5,12.0,0.5,63,70.6
78,B3,12.25,0.25,32,70.6
79,B2,12.5,0.25,33,70.6
80,F#4,12.5,0.438,51,70.6
81,F#5,12.5,0.438,51,70.6
82,B3,12.75,0.188,31,70.6
83,E-3,13.0,0.25,33,70.6
84,F#4,13.0,0.5,51,70.6
85,F#5,13.0,0.5,51,70.6
86,B3,13.25,0.25,33,70.6
87,F3,13.5,0.25,37,70.6
88,G#4,13.5,0.5,58,70.6
89,G#5,13.5,0.5,58,70.6
90,B3,13.75,0.25,39,70.6
91,F#3,14.0,0.25,43,70.6
92,A4,14.0,0.5,63,70.6
93,A5,14.0,0.5,63,70.6
94,B3,14.25,0.25,43,70.6
95,A3,14.5,0.25,49,70.6
96,C#5,14.5,0.5,69,70.6
97,C#6,14.5,0.5,69,70.6
98,B3,14.75,0.25,43,70.6
99,G#3,15.0,0.25,44,70.6
100,B4,15.0,0.5,62,70.6
101,B5,15.0,0.5,62,70.6
102,B3,15.25,0.25,37,70.6
103,E-6,15.5,0.5,40,70.6
104,E-5,15.5,0.5,40,70.6
105,B2,15.5,0.25,25,70.6
106,F#3,15.5,0.25,25,70.6
107,A3,15.75,0.25,27,70.6
108,E6,16.0,1.0,46,70.6
109,E5,16.0,1.0,46,70.6
110,E3,16.0,0.25,31,70.6
111,G#3,16.0,0.25,31,70.6
112,B3,16.25,0.25,23,70.6
113,G#3,16.5,0.25,31,70.6
114,E3,16.75,0.25,25,70.6
115,E-3,17.0,0.25,31,70.6
116,B3,17.25,0.25,27,70.6
117,B4,17.5,0.5,47,70.6
118,F#3,17.5,0.25,31,70.6
119,E-3,17.75,0.25,32,70.6
120,B-4,18.0,1.0,51,70.6
121,C#3,18.0,0.25,38,70.6
122,B-3,18.25,0.25,29,70.6
123,F#3,18.5,0.25,31,70.6
124,C#3,18.75,0.25,27,70.6
125,E5,19.0,1.0,56,70.6
126,F#2,19.0,0.25,31,70.6
127,B-3,19.25,0.25,26,70.6
128,F#3,19.5,0.25,29,70.6
129,C#3,19.75,0.25,27,70.6
130,E-5,20.0,1.5,51,70.6
131,B2,20.0,0.25,31,70.6
132,B3,20.25,0.25,25,70.6
133,F#3,20.5,0.25,30,70.6
134,E-3,20.75,0.25,27,70.6
135,B2,21.0,0.25,37,70.6
136,B3,21.25,0.25,30,70.6
137,A4,21.5,0.5,49,70.6
138,C#3,21.5,0.25,40,70.6
139,A3,21.75,0.25,36,70.6
140,G#4,22.0,1.0,60,70.6
141,B2,22.0,0.25,34,70.6
142,G#3,22.25,0.25,31,70.6
143,E3,22.5,0.25,41,70.6
144,B2,22.75,0.25,37,70.6
145,D5,23.0,1.0,64,70.6
146,E2,23.0,0.25,47,70.6
147,G#3,23.25,0.25,35,70.6
148,E3,23.5,0.25,39,70.6
149,B2,23.75,0.25,31,70.6
150,C#5,24.0,1.5,56,70.6
151,A2,24.0,0.25,38,70.6
152,A3,24.25,0.25,29,70.6
153,E3,24.5,0.25,34,70.6
154,C#3,24.75,0.25,29,70.6
155,A2,25.0,0.25,34,70.6
156,E3,25.25,0.25,29,70.6
157,C#5,25.5,0.5,56,70.6
158,A2,25.5,0.25,31,70.6
159,E3,25.75,0.25,35,70.6
160,C5,26.0,0.5,58,70.6
161,A2,26.0,0.25,40,70.6
162,E3,26.25,0.25,35,70.6
163,C#5,26.5,0.5,58,70.6
164,A2,26.5,0.25,39,70.6
165,E3,26.75,0.25,35,70.6
166,A2,27.0,0.25,43,70.6
167,A4,27.0,0.375,49,70.6
168,E4,27.0,0.375,49,70.6
169,C#4,27.0,0.375,49,70.6
170,E3,27.25,0.25,35,70.6
171,B2,27.5,0.25,43,70.6
172,G#4,27.5,0.375,47,70.6
173,E4,27.5,0.375,47,70.6
174,B3,27.5,0.375,47,70.6
175,E3,27.75,0.25,35,70.6
176,G#4,28.0,0.5,72,70.6
177,C#3,28.0,0.25,52,70.6
178,E4,28.0,1.0,60,70.6
179,B-3,28.0,1.0,60,70.6
180,E3,28.25,0.25,46,70.6
181,F#4,28.5,1.0,58,70.6
182,C#3,28.5,0.25,50,70.6
183,E3,28.75,0.25,40,70.6
184,C3,29.0,0.25,46,70.6
185,E4,29.0,1.0,58,70.6
186,A3,29.0,1.0,58,70.6
187,E3,29.25,0.25,35,70.6
188,F#4,29.5,0.5,60,70.6
189,C3,29.5,0.25,44,70.6
190,E3,29.75,0.25,35,70.6
191,B2,30.0,0.25,31,70.6
192,F#4,30.0,0.5,44,70.6
193,E-4,30.0,0.5,44,70.6
194,A3,30.0,0.5,44,70.6
195,F#3,30.25,0.25,27,70.6
196,B4,30.5,0.5,38,70.6
197,E-4,30.5,1.0,32,70.6
198,B2,30.5,0.25,31,70.6
199,F#3,30.75,0.25,29,70.6
200,A3,30.75,0.25,29,70.6
201,B-4,31.0,0.5,46,70.6
202,B2,31.0,0.25,31,70.6
203,F#3,31.25,0.25,27,70.6
204,A3,31.25,0.25,27,70.6
205,B2,31.5,0.25,31,70.6
206,B4,31.5,0.5,37,70.6
207,E-4,31.5,0.5,37,70.6
208,A3,31.75,0.25,28,70.6
209,F#3,31.75,0.25,28,70.6
210,E4,32.0,1.0,51,70.6
211,E3,32.0,0.25,31,70.6
212,G#3,32.0,0.25,31,70.6
213,B3,32.25,0.25,23,70.6
214,G#3,32.5,0.25,31,70.6
215,E3,32.75,0.25,25,70.6
216,E-3,33.0,0.25,31,70.6
217,B3,33.25,0.25,27,70.6
218,F#3,33.5,0.25,31,70.6
219,B5,33.5,0.5,47,70.6
220,B4,33.5,0.5,47,70.6
221,E-3,33.75,0.25,32,70.6
222,C#3,34.0,0.25,38,70.6
223,B-5,34.0,1.0,51,70.6
224,B-4,34.0,1.0,51,70.6
225,B-3,34.25,0.25,29,70.6
226,F#3,34.5,0.25,31,70.6
227,C#3,34.75,0.25,27,70.6
228,F#2,35.0,0.25,31,70.6
229,E6,35.0,1.0,56,70.6
230,E5,35.0,1.0,56,70.6
231,B-3,35.25,0.25,26,70.6
232,F#3,35.5,0.25,29,70.6
233,C#3,35.75,0.25,27,70.6
234,B2,36.0,0.25,31,70.6
235,E-6,36.0,1.5,51,70.6
236,E-5,36.0,1.5,51,70.6
237,B3,36.25,0.25,25,70.6
238,F#3,36.5,0.25,30,70.6
239,E-3,36.75,0.25,27,70.6
240,B2,37.0,0.25,37,70.6
241,B3,37.25,0.25,30,70.6
242,C#3,37.5,0.25,42,70.6
243,A5,37.5,0.5,51,70.6
244,A4,37.5,0.5,51,70.6
245,A3,37.75,0.25,38,70.6
246,B2,38.0,0.25,37,70.6
247,G#5,38.0,1.0,62,70.6
248,G#4,38.0,1.0,62,70.6
249,G#3,38.25,0.25,36,70.6
250,E3,38.5,0.25,44,70.6
251,B2,38.75,0.25,38,70.6
252,E2,39.0,0.25,42,70.6
253,D6,39.0,1.0,59,70.6
254,D5,39.0,1.0,59,70.6
255,G#3,39.25,0.25,35,70.6
256,E3,39.5,0.25,39,70.6
257,B2,39.75,0.25,31,70.6
258,A2,40.0,0.25,38,70.6
259,C#6,40.0,1.5,56,70.6
260,C#5,40.0,1.5,56,70.6
261,A3,40.25,0.25,29,70.6
262,E3,40.5,0.25,34,70.6
263,C#3,40.75,0.25,29,70.6
264,A2,41.0,0.25,34,70.6
265,E3,41.25,0.25,29,70.6
266,A2,41.5,0.25,35,70.6
267,C#6,41.5,0.5,50,70.6
268,C#5,41.5,0.5,50,70.6
269,E3,41.75,0.25,40,70.6
270,G#2,42.0,0.25,40,70.6
271,C6,42.0,0.5,59,70.6
272,C5,42.0,0.5,59,70.6
273,E3,42.25,0.25,36,70.6
274,A2,42.5,0.25,40,70.6
275,C#6,42.5,0.5,60,70.6
276,C#5,42.5,0.5,60,70.6
277,E3,42.75,0.25,36,70.6
278,A5,43.0,0.375,58,70.6
279,A4,43.0,0.375,58,70.6
280,C#3,43.0,0.25,42,70.6
281,A2,43.0,0.25,42,70.6
282,E3,43.25,0.25,37,70.6
283,G#5,43.5,0.375,57,70.6
284,G#4,43.5,0.375,57,70.6
285,E3,43.5,0.25,42,70.6
286,B2,43.5,0.25,42,70.6
287,G#3,43.75,0.25,37,70.6
288,G#5,44.0,0.5,70,70.6
289,G#4,44.0,0.5,70,70.6
290,E3,44.0,0.25,40,70.6
291,C#3,44.0,0.25,40,70.6
292,B-3,44.25,0.25,39,70.6
293,F#5,44.5,0.99,64,70.6
294,F#4,44.5,0.99,64,70.6
295,E3,44.5,0.25,40,70.6
296,C#3,44.5,0.25,40,70.6
297,B-3,44.75,0.25,35,70.6
298,E3,45.0,0.25,37,70.6
299,C3,45.0,0.25,37,70.6
300,A3,45.25,0.25,31,70.6
301,F#5,45.5,0.475,53,70.6
302,F#4,45.5,0.475,53,70.6
303,E3,45.5,0.25,46,70.6
304,C3,45.5,0.25,46,70.6
305,A3,45.75,0.25,39,70.6
306,F#5,46.0,0.5,49,70.6
307,F#4,46.0,0.5,49,70.6
308,E-3,46.0,0.25,28,70.6
309,B2,46.0,0.25,28,70.6
310,A3,46.25,0.25,27,70.6
311,B5,46.5,0.5,38,70.6
312,B4,46.5,0.5,38,70.6
313,E-3,46.5,0.25,28,70.6
314,B2,46.5,0.25,28,70.6
315,A3,46.75,0.25,29,70.6
316,B-5,47.0,0.5,46,70.6
317,B-4,47.0,0.5,46,70.6
318,E-3,47.0,0.25,28,70.6
319,B2,47.0,0.25,28,70.6
320,A3,47.25,0.25,27,70.6
321,B5,47.5,0.5,40,70.6
322,B4,47.5,0.5,40,70.6
323,E-3,47.5,0.25,28,70.6
324,B2,47.5,0.25,28,70.6
325,A3,47.75,0.25,28,70.6
326,E5,48.0,1.0,51,70.6
327,E4,48.0,1.0,51,70.6
328,E3,48.0,0.25,31,70.6
329,G#3,48.0,0.25,31,70.6
330,E3,48.25,0.25,31,70.6
331,E-3,48.5,0.25,31,70.6
332,C#3,48.75,0.25,31,70.6
333,B2,49.0,0.25,31,70.6
334,A2,49.25,0.25,30,70.6
335,E4,49.5,0.25,43,70.6
336,G#2,49.5,0.25,25,70.6
337,F#4,49.75,0.25,39,70.6
338,F#2,49.75,0.25,25,70.6
339,E4,50.0,0.25,34,70.6
340,G#4,50.0,1.0,50,70.6
341,E2,50.0,0.5,25,70.6
342,B3,50.25,0.25,26,70.6
343,E4,50.5,0.25,31,70.6
344,B3,50.75,0.25,26,70.6
345,G#4,51.0,0.25,30,70.6
346,B4,51.0,0.5,46,70.6
347,B3,51.25,0.25,27,70.6
348,F#4,51.5,0.25,28,70.6
349,A4,51.5,0.5,43,70.6
350,B3,51.75,0.25,27,70.6
351,E4,52.0,0.25,34,70.6
352,G#4,52.0,0.5,50,70.6
353,B1,52.0,0.5,25,70.6
354,B3,52.25,0.25,26,70.6
355,E-4,52.5,0.25,27,70.6
356,F#4,52.5,0.438,41,70.6
357,B3,52.75,0.188,25,70.6
358,E-4,53.0,0.25,27,70.6
359,F#4,53.0,0.5,41,70.6
360,B3,53.25,0.25,26,70.6
361,E4,53.5,0.25,28,70.6
362,G#4,53.5,0.5,43,70.6
363,B3,53.75,0.25,28,70.6
364,E4,54.0,0.25,30,70.6
365,A4,54.0,0.5,46,70.6
366,C#2,54.0,0.5,25,70.6
367,B3,54.25,0.25,28,70.6
368,E4,54.5,0.25,36,70.6
369,C#5,54.5,0.5,54,70.6
370,B3,54.75,0.25,31,70.6
371,F#4,55.0,0.25,37,70.6
372,B4,55.0,0.5,47,70.6
373,E-2,55.0,0.5,23,70.6
374,B3,55.25,0.25,26,70.6
375,E-4,55.5,0.25,25,70.6
376,F#4,55.5,0.5,38,70.6
377,B1,55.5,0.5,22,70.6
378,B3,55.75,0.25,27,70.6
379,E2,56.0,0.5,28,70.6
380,B3,56.0,0.5,37,70.6
381,E4,56.0,0.5,37,70.6
382,G#4,56.0,0.5,37,70.6
383,E4,56.5,0.25,32,70.6
384,B3,56.75,0.25,25,70.6
385,F#5,56.938,0.062,48,70.6
386,E5,57.0,0.25,54,70.6
387,E4,57.0,0.25,32,70.6
388,E-5,57.25,0.25,48,70.6
389,B3,57.25,0.25,27,70.6
390,E5,57.5,0.25,56,70.6
391,E4,57.5,0.25,32,70.6
392,F#5,57.75,0.188,50,70.6
393,B3,57.75,0.25,29,70.6
394,A5,57.938,0.062,50,70.6
395,G#5,58.0,0.25,60,70.6
396,E4,58.0,0.25,35,70.6
397,F#5,58.25,0.25,55,70.6
398,B3,58.25,0.25,34,70.6
399,G#5,58.5,0.25,49,70.6
400,E4,58.5,0.25,38,70.6
401,A5,58.75,0.25,55,70.6
402,B3,58.75,0.25,36,70.6
403,G#4,59.0,0.25,42,70.6
404,B4,59.0,0.5,58,70.6
405,B5,59.0,0.5,58,70.6
406,B3,59.25,0.25,38,70.6
407,F#4,59.5,0.25,47,70.6
408,A5,59.5,0.5,59,70.6
409,A4,59.5,0.5,59,70.6
410,B3,59.75,0.25,43,70.6
411,E4,60.0,0.25,54,70.6
412,G#5,60.0,0.5,64,70.6
413,G#4,60.0,0.5,64,70.6
414,B3,60.25,0.25,45,70.6
415,E-4,60.5,0.25,52,70.6
416,F#4,60.5,0.475,62,70.6
417,F#5,60.5,0.475,62,70.6
418,B3,60.75,0.25,45,70.6
419,E-4,61.0,0.25,49,70.6
420,F#4,61.0,0.5,69,70.6
421,F#5,61.0,0.5,69,70.6
422,B3,61.25,0.25,42,70.6
423,F4,61.5,0.25,52,70.6
424,G#5,61.5,0.5,62,70.6
425,G#4,61.5,0.5,62,70.6
426,B3,61.75,0.25,46,70.6
427,F#4,62.0,0.25,60,70.6
428,A4,62.0,0.5,70,70.6
429,A5,62.0,0.5,70,70.6
430,B3,62.25,0.25,50,70.6
431,A4,62.5,0.25,54,70.6
432,C#6,62.5,0.5,64,70.6
433,C#5,62.5,0.5,64,70.6
434,B3,62.75,0.25,48,70.6
435,G#4,63.0,0.25,57,70.6
436,B5,63.0,0.5,74,70.6
437,B4,63.0,0.5,74,70.6
438,B3,63.25,0.25,45,70.6
439,F#4,63.5,0.25,54,70.6
440,E-5,63.5,0.375,74,70.6
441,A5,63.5,0.375,74,70.6
442,E-6,63.5,0.375,74,70.6
443,B3,63.75,0.25,46,70.6
444,E4,64.0,0.25,59,70.6
445,E5,64.0,1.0,78,70.6
446,G#5,64.0,1.0,78,70.6
447,E6,64.0,1.0,78,70.6
448,B3,64.25,0.25,49,70.6
449,G#3,64.5,0.25,58,70.6
450,B3,64.75,0.25,50,70.6
451,E3,65.0,0.5,59,70.6
452,E4,65.5,0.25,80,70.6
453,G#4,65.5,0.25,80,70.6
454,C#4,66.0,0.25,67,70.6
455,E4,66.0,1.5,88,70.6
456,G#4,66.0,1.5,88,70.6
457,G#3,66.25,0.25,57,70.6
458,E3,66.5,0.25,62,70.6
459,G#3,66.75,0.25,57,70.6
460,C#3,67.0,0.5,70,70.6
461,C#4,67.5,0.25,26,70.6
462,E5,67.5,0.25,30,70.6
463,G#4,67.5,0.25,30,70.6
464,E4,67.5,0.25,30,70.6
465,C4,68.0,0.25,33,70.6
466,E-5,68.0,1.5,34,70.6
467,G#4,68.0,1.5,34,70.6
468,F#4,68.0,1.5,34,70.6
469,E-4,68.0,1.5,34,70.6
470,G#3,68.25,0.25,27,70.6
471,E-3,68.5,0.25,33,70.6
472,G#3,68.75,0.25,27,70.6
473,C3,69.0,0.5,36,70.6
474,C4,69.5,0.25,77,70.6
475,E-4,69.5,0.25,78,70.6
476,F#4,69.5,0.25,78,70.6
477,G#4,69.5,0.25,78,70.6
478,G#3,70.0,0.25,67,70.6
479,F#4,70.0,1.5,86,70.6
480,E-4,70.0,1.5,86,70.6
481,G#4,70.0,1.5,86,70.6
482,E-3,70.25,0.25,57,70.6
483,C3,70.5,0.25,62,70.6
484,E-3,70.75,0.25,57,70.6
485,G#2,71.0,0.5,70,70.6
486,C4,71.5,0.25,26,70.6
487,E-4,71.5,0.25,30,70.6
488,E-5,71.5,0.25,30,70.6
489,G#4,71.5,0.25,30,70.6
490,F#4,71.5,0.25,30,70.6
491,C#4,72.0,0.25,33,70.6
492,E5,72.0,1.5,35,70.6
493,G#4,72.0,1.5,35,70.6
494,E4,72.0,1.5,35,70.6
495,G#3,72.25,0.25,27,70.6
496,E3,72.5,0.25,33,70.6
497,G#3,72.75,0.25,27,70.6
498,C#3,73.0,0.5,36,70.6
499,C#4,73.5,0.25,83,70.6
500,E4,73.5,0.25,80,70.6
501,G#4,73.5,0.25,80,70.6
502,B3,74.0,0.25,67,70.6
503,E4,74.0,1.5,88,70.6
504,G#4,74.0,1.5,88,70.6
505,G#3,74.25,0.25,57,70.6
506,E3,74.5,0.25,62,70.6
507,G#3,74.75,0.25,57,70.6
508,B2,75.0,0.5,70,70.6
509,B3,75.5,0.25,26,70.6
510,E5,75.5,0.25,30,70.6
511,G#4,75.5,0.25,30,70.6
512,E4,75.5,0.25,30,70.6
513,B-3,76.0,0.25,33,70.6
514,E5,76.0,1.5,35,70.6
515,F#4,76.0,1.5,35,70.6
516,E4,76.0,1.5,35,70.6
517,F#3,76.25,0.25,27,70.6
518,C#3,76.5,0.25,33,70.6
519,F#3,76.75,0.25,27,70.6
520,B-2,77.0,0.5,36,70.6
521,B-2,77.5,0.25,77,70.6
522,C#4,77.5,0.25,80,70.6
523,E4,77.5,0.25,80,70.6
524,G#2,78.0,0.25,67,70.6
525,B3,78.0,1.5,88,70.6
526,E4,78.0,1.5,88,70.6
527,E2,78.25,0.25,57,70.6
528,B1,78.5,0.25,62,70.6
529,E2,78.75,0.25,57,70.6
530,G#1,79.0,0.5,70,70.6
531,E4,79.5,0.25,75,70.6
532,E5,79.5,0.25,75,70.6
533,B4,79.5,0.25,75,70.6
534,G#1,79.5,0.25,62,70.6
535,G#2,79.5,0.25,62,70.6
536,E4,80.0,1.5,69,70.6
537,E5,80.0,1.5,69,70.6
538,C#5,80.0,1.5,69,70.6
539,B-4,80.0,1.5,69,70.6
540,F#1,80.0,0.5,78,70.6
541,F#2,80.0,0.5,78,70.6
542,F#4,80.5,0.25,33,70.6
543,G#4,80.75,0.25,27,70.6
544,F#4,81.0,0.25,33,70.6
545,G#4,81.25,0.25,29,70.6
546,F#4,81.5,0.25,33,70.6
547,G#4,81.75,0.25,29,70.6
548,F#4,82.0,0.25,32,70.6
549,E5,82.0,1.5,53,70.6
550,C#6,82.0,1.5,53,70.6
551,C#4,82.0,1.5,38,70.6
552,B-3,82.0,1.5,38,70.6
553,G#4,82.25,0.25,27,70.6
554,F#4,82.5,0.25,31,70.6
555,G#4,82.75,0.25,26,70.6
556,F#4,83.0,0.25,32,70.6
557,G#4,83.25,0.25,32,70.6
558,F#4,83.5,0.25,33,70.6
559,E-5,83.5,0.45,57,70.6
560,B5,83.5,0.45,57,70.6
561,E-4,83.5,0.45,38,70.6
562,B3,83.5,0.45,38,70.6
563,G#4,83.75,0.25,36,70.6
564,F#4,84.0,0.25,37,70.6
565,B5,84.0,0.5,62,70.6
566,E-5,84.0,0.5,62,70.6
567,E-4,84.0,0.5,43,70.6
568,B3,84.0,0.5,43,70.6
569,G#4,84.25,0.25,29,70.6
570,F#4,84.5,0.25,32,70.6
571,C#5,84.5,0.45,48,70.6
572,B-5,84.5,0.45,48,70.6
573,E4,84.5,0.45,38,70.6
574,C#4,84.5,0.45,38,70.6
575,G#4,84.75,0.25,28,70.6
576,F#4,85.0,0.25,26,70.6
577,B-5,85.0,0.5,47,70.6
578,C#5,85.0,0.5,47,70.6
579,C#4,85.0,0.5,30,70.6
580,E4,85.0,0.5,30,70.6
581,G#4,85.25,0.25,24,70.6
582,F#4,85.5,0.25,26,70.6
583,E-5,85.5,0.5,39,70.6
584,B5,85.5,0.5,39,70.6
585,B3,85.5,0.5,30,70.6
586,E-4,85.5,0.5,30,70.6
587,G#4,85.75,0.25,24,70.6
588,F#4,86.0,0.25,32,70.6
589,E5,86.0,1.5,53,70.6
590,C#6,86.0,1.5,53,70.6
591,C#4,86.0,1.5,38,70.6
592,B-3,86.0,1.5,38,70.6
593,G#4,86.25,0.25,27,70.6
594,F#4,86.5,0.25,31,70.6
595,G#4,86.75,0.25,26,70.6
596,F#4,87.0,0.25,32,70.6
597,G#4,87.25,0.25,32,70.6
598,F#4,87.5,0.25,33,70.6
599,E-5,87.5,0.45,57,70.6
600,B5,87.5,0.45,57,70.6
601,E-4,87.5,0.45,38,70.6
602,B3,87.5,0.45,38,70.6
603,G#4,87.75,0.25,36,70.6
604,F#4,88.0,0.25,37,70.6
605,B-5,88.0,0.5,62,70.6
606,C#5,88.0,0.5,62,70.6
607,E4,88.0,0.5,43,70.6
608,C#4,88.0,0.5,43,70.6
609,G#4,88.25,0.25,29,70.6
610,F#4,88.5,0.25,32,70.6
611,C#6,88.5,0.5,48,70.6
612,E5,88.5,0.5,48,70.6
613,C#4,88.5,0.45,38,70.6
614,B-3,88.5,0.45,38,70.6
615,G#4,88.75,0.25,28,70.6
616,F#4,89.0,0.25,26,70.6
617,B5,89.0,0.5,47,70.6
618,E-5,89.0,0.5,47,70.6
619,B3,89.0,0.5,30,70.6
620,E-4,89.0,0.5,30,70.6
621,G#4,89.25,0.25,24,70.6
622,F#4,89.5,0.25,26,70.6
623,C#5,89.5,0.5,39,70.6
624,B-5,89.5,0.5,39,70.6
625,C#4,89.5,0.5,30,70.6
626,E4,89.5,0.5,30,70.6
627,G#4,89.75,0.25,24,70.6
628,E-4,90.0,0.5,28,70.6
629,F#4,90.0,0.25,33,70.6
630,B5,90.0,0.5,39,70.6
631,F#5,90.0,0.5,39,70.6
632,B4,90.25,0.25,27,70.6
633,B-5,90.5,0.5,34,70.6
634,F#4,90.5,0.25,31,70.6
635,B4,90.75,0.25,27,70.6
636,G#5,91.0,0.5,39,70.6
637,E4,91.0,0.25,33,70.6
638,B4,91.25,0.25,26,70.6
639,F#5,91.5,0.5,35,70.6
640,E-4,91.5,0.25,30,70.6
641,B4,91.75,0.25,27,70.6
642,G#5,92.0,0.5,39,70.6
643,E4,92.0,0.25,33,70.6
644,B4,92.25,0.25,26,70.6
645,F#5,92.5,0.5,37,70.6
646,F#4,92.5,0.25,31,70.6
647,B4,92.75,0.25,25,70.6
648,E5,93.0,0.5,39,70.6
649,G#4,93.0,0.25,33,70.6
650,B4,93.25,0.25,25,70.6
651,E-5,93.5,0.479,34,70.6
652,F4,93.5,0.25,30,70.6
653,B4,93.75,0.25,27,70.6
654,E-5,94.0,1.5,39,70.6
655,F#4,94.0,2.0,33,70.6
656,G#4,94.25,0.25,27,70.6
657,B-4,94.5,0.25,32,70.6
658,B4,94.75,0.25,26,70.6
659,B-4,95.0,0.25,31,70.6
660,B4,95.25,0.25,27,70.6
661,E5,95.5,0.25,38,70.6
662,C#5,95.5,0.25,29,70.6
663,F#5,95.75,0.25,33,70.6
664,E-5,95.75,0.25,27,70.6
665,C#5,96.0,0.5,39,70.6
666,B-4,96.0,0.5,33,70.6
667,F#4,96.0,0.5,33,70.6
668,F#5,96.5,0.25,39,70.6
669,G#4,96.5,0.25,33,70.6
670,G#5,96.75,0.25,34,70.6
671,F#4,96.75,0.25,30,70.6
672,F#5,97.0,0.25,39,70.6
673,G#4,97.0,0.25,33,70.6
674,G#5,97.25,0.25,35,70.6
675,F#4,97.25,0.25,29,70.6
676,F#5,97.5,0.25,39,70.6
677,G#4,97.5,0.25,33,70.6
678,G#5,97.75,0.25,35,70.6
679,F#4,97.75,0.25,33,70.6
680,F#5,98.0,0.25,39,70.6
681,G#4,98.0,0.25,32,70.6
682,C#6,98.0,1.5,53,70.6
683,E6,98.0,1.5,53,70.6
684,C#4,98.0,1.5,38,70.6
685,B-3,98.0,1.5,38,70.6
686,G#5,98.25,0.25,35,70.6
687,F#4,98.25,0.25,27,70.6
688,F#5,98.5,0.25,39,70.6
689,G#4,98.5,0.25,31,70.6
690,G#5,98.75,0.25,35,70.6
691,F#4,98.75,0.25,26,70.6
692,F#5,99.0,0.25,39,70.6
693,G#4,99.0,0.25,32,70.6
694,G#5,99.25,0.25,37,70.6
695,F#4,99.25,0.25,32,70.6
696,F#5,99.5,0.25,43,70.6
697,G#4,99.5,0.25,33,70.6
698,E-6,99.5,0.45,57,70.6
699,B5,99.5,0.45,57,70.6
700,E-4,99.5,0.45,38,70.6
701,B3,99.5,0.45,38,70.6
702,G#5,99.75,0.25,41,70.6
703,F#4,99.75,0.25,36,70.6
704,F#5,100.0,0.25,48,70.6
705,G#4,100.0,0.25,37,70.6
706,E-6,100.0,0.5,62,70.6
707,B5,100.0,0.5,62,70.6
708,E-4,100.0,0.5,43,70.6
709,B3,100.0,0.5,43,70.6
710,G#5,100.25,0.25,42,70.6
711,F#4,100.25,0.25,29,70.6
712,F#5,100.5,0.25,46,70.6
713,G#4,100.5,0.25,32,70.6
714,B-5,100.5,0.45,48,70.6
715,C#6,100.5,0.45,48,70.6
716,E4,100.5,0.45,38,70.6
717,C#4,100.5,0.45,38,70.6
718,G#5,100.75,0.25,40,70.6
719,F#4,100.75,0.25,28,70.6
720,F#5,101.0,0.25,44,70.6
721,G#4,101.0,0.25,26,70.6
722,C#6,101.0,0.5,47,70.6
723,B-5,101.0,0.5,47,70.6
724,C#4,101.0,0.5,30,70.6
725,E4,101.0,0.5,30,70.6
726,G#5,101.25,0.25,38,70.6
727,F#4,101.25,0.25,24,70.6
728,F#5,101.5,0.25,41,70.6
729,G#4,101.5,0.25,26,70.6
730,E-6,101.5,0.5,39,70.6
731,B5,101.5,0.5,39,70.6
732,B3,101.5,0.5,30,70.6
733,E-4,101.5,0.5,30,70.6
734,G#5,101.75,0.25,36,70.6
735,F#4,101.75,0.25,24,70.6
736,F#5,102.0,0.25,39,70.6
737,G#4,102.0,0.25,32,70.6
738,E6,102.0,1.5,53,70.6
739,C#6,102.0,1.5,53,70.6
740,C#4,102.0,1.5,38,70.6
741,B-3,102.0,1.5,38,70.6
742,G#5,102.25,0.25,36,70.6
743,F#4,102.25,0.25,27,70.6
744,F#5,102.5,0.25,41,70.6
745,G#4,102.5,0.25,31,70.6
746,G#5,102.75,0.25,38,70.6
747,F#4,102.75,0.25,26,70.6
748,F#5,103.0,0.25,43,70.6
749,G#4,103.0,0.25,32,70.6
750,G#5,103.25,0.25,40,70.6
751,F#4,103.25,0.25,32,70.6
752,F#5,103.5,0.25,46,70.6
753,G#4,103.5,0.25,33,70.6
754,E-6,103.5,0.45,57,70.6
755,B5,103.5,0.45,57,70.6
756,E-4,103.5,0.45,38,70.6
757,B3,103.5,0.45,38,70.6
758,G#5,103.75,0.25,42,70.6
759,F#4,103.75,0.25,36,70.6
760,C#6,104.0,0.5,62,70.6
761,B-5,104.0,0.25,62,70.6
762,E4,104.0,0.25,32,70.6
763,C#4,104.0,0.5,39,70.6
764,F#5,104.25,0.25,36,70.6
765,F#4,104.25,0.25,29,70.6
766,G#6,104.5,0.5,48,70.6
767,E6,104.5,0.25,48,70.6
768,B-3,104.5,0.225,38,70.6
769,F#3,104.5,0.225,38,70.6
770,F#5,104.75,0.25,36,70.6
771,F#4,104.75,0.25,28,70.6
772,F#6,105.0,0.5,47,70.6
773,E-6,105.0,0.25,47,70.6
774,G#3,105.0,0.25,30,70.6
775,B3,105.0,0.25,30,70.6
776,F#5,105.25,0.25,36,70.6
777,F#4,105.25,0.25,24,70.6
778,C#6,105.5,0.25,39,70.6
779,E6,105.5,0.5,39,70.6
780,B-3,105.5,0.25,30,70.6
781,C#4,105.5,0.25,30,70.6
782,F#5,105.75,0.25,36,70.6
783,F#4,105.75,0.25,24,70.6
784,E-6,106.0,0.5,62,70.6
785,B5,106.0,0.25,62,70.6
786,E-4,106.0,0.25,36,70.6
787,B3,106.0,0.25,36,70.6
788,F#5,106.25,0.25,35,70.6
789,F#4,106.25,0.25,28,70.6
790,F#6,106.5,0.5,47,70.6
791,E-6,106.5,0.25,47,70.6
792,B3,106.5,0.225,36,70.6
793,G#3,106.5,0.225,36,70.6
794,F#5,106.75,0.25,34,70.6
795,F#4,106.75,0.25,27,70.6
796,E6,107.0,0.5,45,70.6
797,C#6,107.0,0.25,45,70.6
798,B-3,107.0,0.25,28,70.6
799,C#4,107.0,0.25,28,70.6
800,F#5,107.25,0.25,34,70.6
801,F#4,107.25,0.25,22,70.6
802,B5,107.5,0.25,36,70.6
803,E-6,107.5,0.5,36,70.6
804,B3,107.5,0.25,28,70.6
805,E-4,107.5,0.25,28,70.6
806,F#5,107.75,0.25,33,70.6
807,F#4,107.75,0.25,22,70.6
808,C#6,108.0,0.5,57,70.6
809,B-5,108.0,0.25,57,70.6
810,E4,108.0,0.25,32,70.6
811,C#4,108.0,0.25,32,70.6
812,F#5,108.25,0.25,32,70.6
813,F#4,108.25,0.25,26,70.6
814,E6,108.5,0.5,43,70.6
815,C#6,108.5,0.25,43,70.6
816,C#4,108.5,0.225,33,70.6
817,B-3,108.5,0.225,33,70.6
818,F#5,108.75,0.25,32,70.6
819,F#4,108.75,0.25,24,70.6
820,E-6,109.0,0.5,41,70.6
821,B5,109.0,0.25,41,70.6
822,B3,109.0,0.25,26,70.6
823,E-4,109.0,0.25,26,70.6
824,F#5,109.25,0.25,31,70.6
825,F#4,109.25,0.25,20,70.6
826,B-5,109.5,0.25,33,70.6
827,C#6,109.5,0.5,33,70.6
828,C#4,109.5,0.25,26,70.6
829,E4,109.5,0.25,26,70.6
830,F#5,109.75,0.25,30,70.6
831,F#4,109.75,0.25,20,70.6
832,B5,110.0,0.5,52,70.6
833,E-4,110.0,0.25,26,70.6
834,F#5,110.25,0.25,29,70.6
835,F#4,110.25,0.25,24,70.6
836,A5,110.5,0.5,39,70.6
837,E-4,110.5,0.225,33,70.6
838,C5,110.75,0.25,29,70.6
839,F#4,110.75,0.25,22,70.6
840,G#5,111.0,0.5,37,70.6
841,E-4,111.0,0.25,26,70.6
842,C5,111.25,0.25,28,70.6
843,F#4,111.25,0.25,18,70.6
844,G#5,111.5,0.5,30,70.6
845,E-4,111.5,0.25,25,70.6
846,C5,111.75,0.25,27,70.6
847,F#4,111.75,0.25,18,70.6
848,G#5,112.0,0.25,39,70.6
849,C5,112.0,0.25,39,70.6
850,E-4,112.0,0.5,24,70.6
851,F#4,112.0,0.5,24,70.6
852,G#4,112.25,0.25,33,70.6
853,B-4,112.5,0.25,34,70.6
854,C5,112.75,0.188,37,70.6
855,E-5,112.938,0.062,35,70.6
856,C#5,113.0,0.25,39,70.6
857,C5,113.25,0.25,32,70.6
858,G#3,113.25,0.25,27,70.6
859,C#5,113.5,0.25,35,70.6
860,B-3,113.5,0.25,29,70.6
861,E-5,113.75,0.25,32,70.6
862,C4,113.75,0.25,27,70.6
863,E5,114.0,0.25,39,70.6
864,C#4,114.0,0.25,33,70.6
865,C5,114.25,0.25,33,70.6
866,G#3,114.25,0.25,28,70.6
867,C#5,114.5,0.25,35,70.6
868,B-3,114.5,0.25,29,70.6
869,E-5,114.75,0.188,32,70.6
870,C4,114.75,0.188,27,70.6
871,F#5,114.938,0.062,32,70.6
872,E-4,114.938,0.062,27,70.6
873,E5,115.0,0.25,41,70.6
874,C#4,115.0,0.25,34,70.6
875,E-5,115.25,0.25,33,70.6
876,C4,115.25,0.25,28,70.6
877,E5,115.5,0.25,35,70.6
878,C#4,115.5,0.25,29,70.6
879,F#5,115.75,0.25,32,70.6
880,E-4,115.75,0.25,27,70.6
881,G#5,116.0,0.25,42,70.6
882,E4,116.0,0.25,35,70.6
883,F#5,116.25,0.25,35,70.6
884,E-4,116.25,0.25,29,70.6
885,E5,116.5,0.25,35,70.6
886,E4,116.5,0.25,29,70.6
887,E-5,116.75,0.25,34,70.6
888,F#4,116.75,0.25,28,70.6
889,E5,117.0,0.25,41,70.6
890,G#4,117.0,0.25,34,70.6
891,E-5,117.25,0.25,35,70.6
892,F#4,117.25,0.25,29,70.6
893,C#5,117.5,0.25,35,70.6
894,E4,117.5,0.25,29,70.6
895,G#5,117.75,0.25,34,70.6
896,F4,117.75,0.25,28,70.6
897,E-5,118.0,0.25,40,70.6
898,F#4,118.0,0.5,34,70.6
899,C#5,118.25,0.25,34,70.6
900,B4,118.5,0.25,35,70.6
901,F#5,118.75,0.25,35,70.6
902,C#5,119.0,0.25,40,70.6
903,F#3,119.0,0.5,34,70.6
904,B4,119.25,0.25,33,70.6
905,B-4,119.5,0.25,35,70.6
906,F#5,119.75,0.229,33,70.6
907,B2,120.0,0.333,32,70.6
908,F#5,120.0,2.0,41,70.6
909,E-5,120.0,2.0,41,70.6
910,F#4,120.0,2.0,41,70.6
911,F#3,120.333,0.333,27,70.6
912,E-3,120.667,0.333,27,70.6
913,B2,121.0,0.333,32,70.6
914,B3,121.333,0.333,27,70.6
915,F#3,121.667,0.333,27,70.6
916,C#3,122.0,0.333,32,70.6
917,E4,122.0,1.0,32,70.6
918,C#5,122.0,1.0,32,70.6
919,E5,122.0,1.0,32,70.6
920,B-3,122.333,0.333,27,70.6
921,F#3,122.667,0.333,27,70.6
922,E-3,123.0,0.333,33,70.6
923,E-4,123.0,1.0,28,70.6
924,B4,123.0,1.0,28,70.6
925,E-5,123.0,1.0,28,70.6
926,B3,123.333,0.333,27,70.6
927,F#3,123.667,0.333,29,70.6
928,E3,124.0,0.333,32,70.6
929,G#4,124.0,1.0,39,70.6
930,C#5,124.0,1.0,39,70.6
931,C#4,124.333,0.333,29,70.6
932,G#3,124.667,0.333,29,70.6
933,B4,125.0,2.0,35,70.6
934,G#4,125.0,1.0,29,70.6
935,F3,125.0,0.333,34,70.6
936,E-4,125.333,0.333,31,70.6
937,B3,125.667,0.333,30,70.6
938,F#4,126.0,1.0,33,70.6
939,F#3,126.0,0.333,37,70.6
940,E-4,126.333,0.333,32,70.6
941,B3,126.667,0.333,32,70.6
942,B-4,127.0,0.5,44,70.6
943,F#4,127.0,1.0,37,70.6
944,E3,127.0,0.333,42,70.6
945,C#4,127.333,0.333,36,70.6
946,F#5,127.5,0.5,43,70.6
947,B-3,127.667,0.333,36,70.6
948,E-3,128.0,0.25,43,70.6
949,F#4,128.0,2.0,60,70.6
950,A4,128.0,2.0,60,70.6
951,F#5,128.0,2.0,60,70.6
952,B3,128.25,0.25,36,70.6
953,F#3,128.5,0.25,36,70.6
954,E-3,128.75,0.25,34,70.6
955,B2,129.0,0.25,42,70.6
956,F#3,129.25,0.25,37,70.6
957,E-3,129.5,0.25,38,70.6
958,B2,129.75,0.25,35,70.6
959,C#3,130.0,0.25,50,70.6
960,E4,130.0,1.0,55,70.6
961,A4,130.0,1.0,55,70.6
962,E5,130.0,1.0,55,70.6
963,A3,130.25,0.25,40,70.6
964,E3,130.5,0.25,40,70.6
965,C#3,130.75,0.25,36,70.6
966,E-3,131.0,0.25,48,70.6
967,E-4,131.0,1.0,55,70.6
968,A4,131.0,1.0,55,70.6
969,E-5,131.0,1.0,55,70.6
970,F#4,131.0,1.0,55,70.6
971,B3,131.25,0.25,43,70.6
972,F#3,131.5,0.25,43,70.6
973,E-3,131.75,0.25,41,70.6
974,E3,132.0,0.25,61,70.6
975,A4,132.0,1.0,74,70.6
976,C#5,132.0,1.0,74,70.6
977,C#4,132.25,0.25,46,70.6
978,A3,132.5,0.25,45,70.6
979,E3,132.75,0.25,43,70.6
980,F#3,133.0,0.25,62,70.6
981,F#4,133.0,2.0,72,70.6
982,B4,133.0,2.0,72,70.6
983,E-4,133.0,2.0,72,70.6
984,B3,133.25,0.25,47,70.6
985,A3,133.5,0.25,48,70.6
986,F#3,133.75,0.229,46,70.6
987,F#3,134.0,0.25,66,70.6
988,B3,134.25,0.25,50,70.6
989,A3,134.5,0.25,50,70.6
990,F#3,134.75,0.25,48,70.6
991,C3,135.0,0.25,60,70.6
992,F#4,135.0,1.0,71,70.6
993,A4,135.0,1.0,71,70.6
994,E-4,135.0,1.0,71,70.6
995,A3,135.25,0.25,51,70.6
996,F#3,135.5,0.25,51,70.6
997,E-3,135.75,0.25,47,70.6
998,A4,136.0,0.25,82,70.6
999,C3,136.0,0.25,60,70.6
1000,E-5,136.25,0.25,75,70.6
1001,A3,136.25,0.25,51,70.6
1002,F#5,136.5,0.25,80,70.6
1003,F#3,136.5,0.25,51,70.6
1004,E-5,136.75,0.25,77,70.6
1005,E-3,136.75,0.25,43,70.6
1006,A5,137.0,0.25,68,70.6
1007,C3,137.0,0.25,48,70.6
1008,E-6,137.25,0.25,59,70.6
1009,A3,137.25,0.25,37,70.6
1010,F#6,137.5,0.25,50,70.6
1011,F#3,137.5,0.25,35,70.6
1012,E-6,137.75,0.25,41,70.6
1013,E-3,137.75,0.25,33,70.6
1014,A6,138.0,1.0,54,70.6
1015,B2,138.0,0.25,37,70.6
1016,A3,138.25,0.25,26,70.6
1017,F#3,138.5,0.25,30,70.6
1018,E-3,138.75,0.25,26,70.6
1019,B2,139.0,0.25,31,70.6
1020,E-4,139.25,0.25,39,70.6
1021,A3,139.25,0.25,26,70.6
1022,E4,139.5,0.25,39,70.6
1023,G#3,139.5,0.25,26,70.6
1024,F#4,139.75,0.25,41,70.6
1025,F#3,139.75,0.25,26,70.6
1026,E4,140.0,0.25,34,70.6
1027,G#4,140.0,1.0,50,70.6
1028,E2,140.0,0.5,28,70.6
1029,E3,140.0,0.5,28,70.6
1030,B3,140.25,0.25,26,70.6
1031,E4,140.5,0.25,31,70.6
1032,B3,140.75,0.25,26,70.6
1033,G#4,141.0,0.25,30,70.6
1034,B4,141.0,0.5,46,70.6
1035,B3,141.25,0.25,27,70.6
1036,F#4,141.5,0.25,28,70.6
1037,A4,141.5,0.5,43,70.6
1038,B3,141.75,0.25,27,70.6
1039,E4,142.0,0.25,34,70.6
1040,G#4,142.0,0.5,50,70.6
1041,B1,142.0,0.5,28,70.6
1042,B2,142.0,0.5,28,70.6
1043,B3,142.25,0.25,26,70.6
1044,E-4,142.5,0.25,27,70.6
1045,F#4,142.5,0.438,41,70.6
1046,B3,142.75,0.188,25,70.6
1047,E-4,143.0,0.25,27,70.6
1048,F#4,143.0,0.5,41,70.6
1049,B3,143.25,0.25,26,70.6
1050,E4,143.5,0.25,28,70.6
1051,G#4,143.5,0.5,43,70.6
1052,B3,143.75,0.25,28,70.6
1053,E4,144.0,0.25,30,70.6
1054,A4,144.0,0.5,46,70.6
1055,C#2,144.0,0.5,28,70.6
1056,C#3,144.0,0.5,28,70.6
1057,B3,144.25,0.25,28,70.6
1058,E4,144.5,0.25,36,70.6
1059,C#5,144.5,0.5,54,70.6
1060,B3,144.75,0.25,31,70.6
1061,F#4,145.0,0.25,37,70.6
1062,B4,145.0,0.5,47,70.6
1063,E-3,145.0,0.5,26,70.6
1064,E-2,145.0,0.5,26,70.6
1065,B3,145.25,0.25,26,70.6
1066,E-4,145.5,0.25,25,70.6
1067,F#4,145.5,0.5,38,70.6
1068,B2,145.5,0.5,24,70.6
1069,B1,145.5,0.5,24,70.6
1070,B3,145.75,0.25,27,70.6
1071,B3,146.0,1.0,37,70.6
1072,E4,146.0,1.0,37,70.6
1073,G#4,146.0,1.0,37,70.6
1074,E2,146.0,0.25,28,70.6
1075,E3,146.0,0.25,28,70.6
1076,G#3,146.25,0.25,25,70.6
1077,B3,146.5,0.25,28,70.6
1078,A3,146.75,0.25,26,70.6
1079,G#3,147.0,0.25,28,70.6
1080,A3,147.25,0.25,25,70.6
1081,E5,147.5,0.25,47,70.6
1082,G#3,147.5,0.25,30,70.6
1083,F#5,147.75,0.25,42,70.6
1084,F#3,147.75,0.25,27,70.6
1085,E3,148.0,0.25,37,70.6
1086,G#4,148.0,1.0,55,70.6
1087,G#5,148.0,1.0,55,70.6
1088,B3,148.25,0.25,28,70.6
1089,B2,148.5,0.25,34,70.6
1090,B3,148.75,0.25,28,70.6
1091,E3,149.0,0.25,33,70.6
1092,B4,149.0,0.5,50,70.6
1093,B5,149.0,0.5,50,70.6
1094,B3,149.25,0.25,29,70.6
1095,B2,149.5,0.25,30,70.6
1096,A4,149.5,0.5,47,70.6
1097,A5,149.5,0.5,47,70.6
1098,B3,149.75,0.25,29,70.6
1099,E-3,150.0,0.25,37,70.6
1100,G#4,150.0,0.5,55,70.6
1101,G#5,150.0,0.5,55,70.6
1102,B3,150.25,0.25,28,70.6
1103,B2,150.5,0.25,29,70.6
1104,F#4,150.5,0.438,45,70.6
1105,F#5,150.5,0.438,45,70.6
1106,B3,150.75,0.188,27,70.6
1107,E-3,151.0,0.25,29,70.6
1108,F#4,151.0,0.5,45,70.6
1109,F#5,151.0,0.5,45,70.6
1110,B3,151.25,0.25,28,70.6
1111,F3,151.5,0.25,31,70.6
1112,G#4,151.5,0.5,49,70.6
1113,G#5,151.5,0.5,49,70.6
1114,B3,151.75,0.25,33,70.6
1115,F#3,152.0,0.25,36,70.6
1116,A4,152.0,0.5,52,70.6
1117,A5,152.0,0.5,52,70.6
1118,B3,152.25,0.25,36,70.6
1119,A3,152.5,0.25,41,70.6
1120,C#5,152.5,0.5,56,70.6
1121,C#6,152.5,0.5,56,70.6
1122,B3,152.75,0.25,37,70.6
1123,G#3,153.0,0.25,38,70.6
1124,B4,153.0,0.5,52,70.6
1125,B5,153.0,0.5,52,70.6
1126,B3,153.25,0.25,32,70.6
1127,E-6,153.5,0.5,40,70.6
1128,E-5,153.5,0.5,40,70.6
1129,B2,153.5,0.25,25,70.6
1130,F#3,153.5,0.25,25,70.6
1131,A3,153.75,0.25,27,70.6
1132,E6,154.0,1.0,46,70.6
1133,E5,154.0,1.0,46,70.6
1134,E3,154.0,0.25,31,70.6
1135,G#3,154.0,0.25,31,70.6
1136,B3,154.25,0.25,23,70.6
1137,G#3,154.5,0.25,31,70.6
1138,E3,154.75,0.25,25,70.6
1139,E-3,155.0,0.25,31,70.6
1140,B3,155.25,0.25,27,70.6
1141,B4,155.5,0.5,47,70.6
1142,F#3,155.5,0.25,31,70.6
1143,E-3,155.75,0.25,32,70.6
1144,B-4,156.0,1.0,51,70.6
1145,C#3,156.0,0.25,38,70.6
1146,B-3,156.25,0.25,29,70.6
1147,F#3,156.5,0.25,31,70.6
1148,C#3,156.75,0.25,27,70.6
1149,E5,157.0,1.0,56,70.6
1150,F#2,157.0,0.25,31,70.6
1151,B-3,157.25,0.25,26,70.6
1152,F#3,157.5,0.25,29,70.6
1153,C#3,157.75,0.25,27,70.6
1154,E-5,158.0,1.5,51,70.6
1155,B2,158.0,0.25,31,70.6
1156,B3,158.25,0.25,25,70.6
1157,F#3,158.5,0.25,30,70.6
1158,E-3,158.75,0.25,27,70.6
1159,B2,159.0,0.25,37,70.6
1160,B3,159.25,0.25,30,70.6
1161,A4,159.5,0.5,45,70.6
1162,C#3,159.5,0.25,37,70.6
1163,A3,159.75,0.25,33,70.6
1164,G#4,160.0,1.0,51,70.6
1165,B2,160.0,0.25,31,70.6
1166,G#3,160.25,0.25,32,70.6
1167,E3,160.5,0.25,38,70.6
1168,B2,160.75,0.25,33,70.6
1169,D5,161.0,1.0,54,70.6
1170,E2,161.0,0.25,45,70.6
1171,G#3,161.25,0.25,32,70.6
1172,E3,161.5,0.25,36,70.6
1173,B2,161.75,0.25,29,70.6
1174,C#5,162.0,1.5,51,70.6
1175,A2,162.0,0.25,35,70.6
1176,A3,162.25,0.25,27,70.6
1177,E3,162.5,0.25,31,70.6
1178,C#3,162.75,0.25,27,70.6
1179,A2,163.0,0.25,31,70.6
1180,E3,163.25,0.25,29,70.6
1181,C#5,163.5,0.5,48,70.6
1182,A2,163.5,0.25,34,70.6
1183,E3,163.75,0.25,38,70.6
1184,C5,164.0,0.5,57,70.6
1185,A2,164.0,0.25,39,70.6
1186,E3,164.25,0.25,35,70.6
1187,C#5,164.5,0.5,58,70.6
1188,A2,164.5,0.25,38,70.6
1189,E3,164.75,0.25,35,70.6
1190,A2,165.0,0.25,44,70.6
1191,A4,165.0,0.375,49,70.6
1192,E4,165.0,0.375,49,70.6
1193,C#4,165.0,0.375,49,70.6
1194,E3,165.25,0.25,36,70.6
1195,B2,165.5,0.25,44,70.6
1196,G#4,165.5,0.375,49,70.6
1197,E4,165.5,0.375,49,70.6
1198,B3,165.5,0.375,49,70.6
1199,E3,165.75,0.25,37,70.6
1200,G#4,166.0,0.5,76,70.6
1201,C#3,166.0,0.25,55,70.6
1202,E4,166.0,1.0,64,70.6
1203,B-3,166.0,1.0,64,70.6
1204,E3,166.25,0.25,48,70.6
1205,F#4,166.5,1.0,62,70.6
1206,C#3,166.5,0.25,54,70.6
1207,E3,166.75,0.25,43,70.6
1208,C3,167.0,0.25,50,70.6
1209,E4,167.0,1.0,63,70.6
1210,A3,167.0,1.0,63,70.6
1211,E3,167.25,0.25,39,70.6
1212,F#4,167.5,0.5,67,70.6
1213,C3,167.5,0.25,49,70.6
1214,E3,167.75,0.25,39,70.6
1215,B2,168.0,0.25,31,70.6
1216,F#4,168.0,0.5,44,70.6
1217,E-4,168.0,0.5,44,70.6
1218,A3,168.0,0.5,44,70.6
1219,F#3,168.25,0.25,27,70.6
1220,B4,168.5,0.5,38,70.6
1221,E-4,168.5,1.0,32,70.6
1222,B2,168.5,0.25,31,70.6
1223,F#3,168.75,0.25,29,70.6
1224,A3,168.75,0.25,29,70.6
1225,B-4,169.0,0.5,46,70.6
1226,B2,169.0,0.25,31,70.6
1227,F#3,169.25,0.25,27,70.6
1228,A3,169.25,0.25,27,70.6
1229,B2,169.5,0.25,31,70.6
1230,B4,169.5,0.5,37,70.6
1231,E-4,169.5,0.5,37,70.6
1232,A3,169.75,0.25,28,70.6
1233,F#3,169.75,0.25,28,70.6
1234,E4,170.0,1.0,51,70.6
1235,E3,170.0,0.25,31,70.6
1236,G#3,170.0,0.25,31,70.6
1237,B3,170.25,0.25,23,70.6
1238,G#3,170.5,0.25,31,70.6
1239,E3,170.75,0.25,25,70.6
1240,E-3,171.0,0.25,31,70.6
1241,B3,171.25,0.25,27,70.6
1242,F#3,171.5,0.25,31,70.6
1243,B5,171.5,0.5,47,70.6
1244,B4,171.5,0.5,47,70.6
1245,E-3,171.75,0.25,32,70.6
1246,C#3,172.0,0.25,38,70.6
1247,B-5,172.0,1.0,51,70.6
1248,B-4,172.0,1.0,51,70.6
1249,B-3,172.25,0.25,29,70.6
1250,F#3,172.5,0.25,31,70.6
1251,C#3,172.75,0.25,27,70.6
1252,F#2,173.0,0.25,31,70.6
1253,E6,173.0,1.0,56,70.6
1254,E5,173.0,1.0,56,70.6
1255,B-3,173.25,0.25,26,70.6
1256,F#3,173.5,0.25,29,70.6
1257,C#3,173.75,0.25,27,70.6
1258,B2,174.0,0.25,31,70.6
1259,E-6,174.0,1.5,51,70.6
1260,E-5,174.0,1.5,51,70.6
1261,B3,174.25,0.25,25,70.6
1262,F#3,174.5,0.25,30,70.6
1263,E-3,174.75,0.25,27,70.6
1264,B2,175.0,0.25,37,70.6
1265,B3,175.25,0.25,30,70.6
1266,C#3,175.5,0.25,37,70.6
1267,A5,175.5,0.5,45,70.6
1268,A4,175.5,0.5,45,70.6
1269,A3,175.75,0.25,33,70.6
1270,B2,176.0,0.25,31,70.6
1271,G#5,176.0,1.0,51,70.6
1272,G#4,176.0,1.0,51,70.6
1273,G#3,176.25,0.25,33,70.6
1274,E3,176.5,0.25,37,70.6
1275,B2,176.75,0.25,37,70.6
1276,E2,177.0,0.25,42,70.6
1277,D6,177.0,1.0,54,70.6
1278,D5,177.0,1.0,54,70.6
1279,G#3,177.25,0.25,32,70.6
1280,E3,177.5,0.25,36,70.6
1281,B2,177.75,0.25,29,70.6
1282,A2,178.0,0.25,35,70.6
1283,C#6,178.0,1.5,51,70.6
1284,C#5,178.0,1.5,51,70.6
1285,A3,178.25,0.25,27,70.6
1286,E3,178.5,0.25,31,70.6
1287,C#3,178.75,0.25,27,70.6
1288,A2,179.0,0.25,31,70.6
1289,E3,179.25,0.25,29,70.6
1290,A2,179.5,0.25,35,70.6
1291,C#6,179.5,0.5,50,70.6
1292,C#5,179.5,0.5,50,70.6
1293,E3,179.75,0.25,40,70.6
1294,A2,180.0,0.25,40,70.6
1295,C6,180.0,0.5,59,70.6
1296,C5,180.0,0.5,59,70.6
1297,E3,180.25,0.25,36,70.6
1298,A2,180.5,0.25,40,70.6
1299,C#6,180.5,0.5,60,70.6
1300,C#5,180.5,0.5,60,70.6
1301,E3,180.75,0.25,37,70.6
1302,A5,181.0,0.375,58,70.6
1303,A4,181.0,0.375,58,70.6
1304,C#3,181.0,0.25,42,70.6
1305,A2,181.0,0.25,42,70.6
1306,E3,181.25,0.25,37,70.6
1307,G#5,181.5,0.375,57,70.6
1308,G#4,181.5,0.375,57,70.6
1309,E3,181.5,0.25,42,70.6
1310,B2,181.5,0.25,42,70.6
1311,G#3,181.75,0.25,38,70.6
1312,G#5,182.0,0.5,71,70.6
1313,G#4,182.0,0.5,71,70.6
1314,E3,182.0,0.25,53,70.6
1315,C#3,182.0,0.25,53,70.6
1316,B-3,182.25,0.25,50,70.6
1317,F#5,182.5,0.99,65,70.6
1318,F#4,182.5,0.99,65,70.6
1319,E3,182.5,0.25,52,70.6
1320,C#3,182.5,0.25,52,70.6
1321,B-3,182.75,0.25,45,70.6
1322,E3,183.0,0.25,48,70.6
1323,C3,183.0,0.25,48,70.6
1324,A3,183.25,0.25,40,70.6
1325,F#5,183.5,0.475,69,70.6
1326,F#4,183.5,0.475,69,70.6
1327,E3,183.5,0.25,47,70.6
1328,C3,183.5,0.25,47,70.6
1329,A3,183.75,0.25,41,70.6
1330,F#5,184.0,0.5,49,70.6
1331,F#4,184.0,0.5,49,70.6
1332,E-3,184.0,0.25,28,70.6
1333,B2,184.0,0.25,28,70.6
1334,A3,184.25,0.25,27,70.6
1335,B5,184.5,0.5,38,70.6
1336,B4,184.5,0.5,38,70.6
1337,E-3,184.5,0.25,28,70.6
1338,B2,184.5,0.25,28,70.6
1339,A3,184.75,0.25,29,70.6
1340,B-5,185.0,0.5,46,70.6
1341,B-4,185.0,0.5,46,70.6
1342,E-3,185.0,0.25,28,70.6
1343,B2,185.0,0.25,28,70.6
1344,A3,185.25,0.25,27,70.6
1345,B5,185.5,0.5,40,70.6
1346,B4,185.5,0.5,40,70.6
1347,E-3,185.5,0.25,28,70.6
1348,B2,185.5,0.25,28,70.6
1349,A3,185.75,0.25,28,70.6
1350,E5,186.0,1.0,51,70.6
1351,E4,186.0,1.0,51,70.6
1352,E3,186.0,0.25,31,70.6
1353,G#3,186.0,0.25,31,70.6
1354,E3,186.25,0.25,31,70.6
1355,E-3,186.5,0.25,31,70.6
1356,C#3,186.75,0.25,31,70.6
1357,B2,187.0,0.25,31,70.6
1358,A2,187.25,0.25,30,70.6
1359,E4,187.5,0.25,43,70.6
1360,G#2,187.5,0.25,25,70.6
1361,F#4,187.75,0.25,39,70.6
1362,F#2,187.75,0.25,25,70.6
1363,E4,188.0,0.25,34,70.6
1364,G#4,188.0,1.0,50,70.6
1365,E2,188.0,0.5,25,70.6
1366,B3,188.25,0.25,26,70.6
1367,E4,188.5,0.25,31,70.6
1368,B3,188.75,0.25,26,70.6
1369,G#4,189.0,0.25,30,70.6
1370,B4,189.0,0.5,46,70.6
1371,B3,189.25,0.25,27,70.6
1372,F#4,189.5,0.25,28,70.6
1373,A4,189.5,0.5,43,70.6
1374,B3,189.75,0.25,27,70.6
1375,E4,190.0,0.25,34,70.6
1376,G#4,190.0,0.5,50,70.6
1377,B1,190.0,0.5,25,70.6
1378,B3,190.25,0.25,26,70.6
1379,E-4,190.5,0.25,27,70.6
1380,F#4,190.5,0.438,41,70.6
1381,B3,190.75,0.188,25,70.6
1382,E-4,191.0,0.25,27,70.6
1383,F#4,191.0,0.5,41,70.6
1384,B3,191.25,0.25,26,70.6
1385,E4,191.5,0.25,28,70.6
1386,G#4,191.5,0.5,43,70.6
1387,B3,191.75,0.25,28,70.6
1388,E4,192.0,0.25,30,70.6
1389,A4,192.0,0.5,46,70.6
1390,C#2,192.0,0.5,25,70.6
1391,B3,192.25,0.25,28,70.6
1392,E4,192.5,0.25,36,70.6
1393,C#5,192.5,0.5,54,70.6
1394,B3,192.75,0.25,31,70.6
1395,F#4,193.0,0.25,37,70.6
1396,B4,193.0,0.5,47,70.6
1397,E-2,193.0,0.5,23,70.6
1398,B3,193.25,0.25,26,70.6
1399,E-4,193.5,0.25,25,70.6
1400,F#4,193.5,0.5,38,70.6
1401,B1,193.5,0.5,22,70.6
1402,B3,193.75,0.25,27,70.6
1403,E2,194.0,0.5,28,70.6
1404,B3,194.0,0.5,37,70.6
1405,E4,194.0,0.5,37,70.6
1406,G#4,194.0,0.5,37,70.6
1407,E4,194.5,0.25,28,70.6
1408,B3,194.75,0.25,22,70.6
1409,F#5,194.938,0.062,42,70.6
1410,E5,195.0,0.25,47,70.6
1411,E4,195.0,0.25,28,70.6
1412,E-5,195.25,0.25,42,70.6
1413,B3,195.25,0.25,24,70.6
1414,E5,195.5,0.25,48,70.6
1415,E4,195.5,0.25,28,70.6
1416,F#5,195.75,0.188,47,70.6
1417,B3,195.75,0.25,25,70.6
1418,A5,195.938,0.062,50,70.6
1419,G#5,196.0,0.25,52,70.6
1420,E4,196.0,0.25,30,70.6
1421,F#5,196.25,0.25,47,70.6
1422,B3,196.25,0.25,29,70.6
1423,G#5,196.5,0.25,42,70.6
1424,E4,196.5,0.25,32,70.6
1425,A5,196.75,0.25,47,70.6
1426,B3,196.75,0.25,31,70.6
1427,G#4,197.0,0.25,35,70.6
1428,B4,197.0,0.5,49,70.6
1429,B5,197.0,0.5,49,70.6
1430,B3,197.25,0.25,32,70.6
1431,F#4,197.5,0.25,39,70.6
1432,A5,197.5,0.5,49,70.6
1433,A4,197.5,0.5,49,70.6
1434,B3,197.75,0.25,36,70.6
1435,E4,198.0,0.25,45,70.6
1436,G#5,198.0,0.5,54,70.6
1437,G#4,198.0,0.5,54,70.6
1438,B3,198.25,0.25,37,70.6
1439,E-4,198.5,0.25,43,70.6
1440,F#4,198.5,0.475,50,70.6
1441,F#5,198.5,0.475,50,70.6
1442,B3,198.75,0.25,37,70.6
1443,E-4,199.0,0.25,46,70.6
1444,F#4,199.0,0.5,64,70.6
1445,F#5,199.0,0.5,64,70.6
1446,B3,199.25,0.25,39,70.6
1447,F4,199.5,0.25,49,70.6
1448,G#5,199.5,0.5,59,70.6
1449,G#4,199.5,0.5,59,70.6
1450,B3,199.75,0.25,44,70.6
1451,F#4,200.0,0.25,58,70.6
1452,A4,200.0,0.5,71,70.6
1453,A5,200.0,0.5,71,70.6
1454,B3,200.25,0.25,48,70.6
1455,A4,200.5,0.25,53,70.6
1456,C#6,200.5,0.5,62,70.6
1457,C#5,200.5,0.5,62,70.6
1458,B3,200.75,0.25,47,70.6
1459,G#4,201.0,0.25,57,70.6
1460,B5,201.0,0.5,74,70.6
1461,B4,201.0,0.5,74,70.6
1462,B3,201.25,0.25,44,70.6
1463,F#4,201.5,0.25,54,70.6
1464,E-5,201.5,0.375,74,70.6
1465,A5,201.5,0.375,74,70.6
1466,E-6,201.5,0.375,74,70.6
1467,B3,201.75,0.25,46,70.6
1468,E4,202.0,0.25,59,70.6
1469,E5,202.0,1.0,81,70.6
1470,G#5,202.0,1.0,81,70.6
1471,E6,202.0,1.0,81,70.6
1472,B3,202.25,0.25,49,70.6
1473,G#3,202.5,0.25,58,70.6
1474,B3,202.75,0.25,50,70.6
1475,E3,203.0,0.25,45,70.6
1476,B3,203.25,0.25,31,70.6
1477,B2,203.5,0.25,31,70.6
1478,G#4,203.5,0.5,38,70.6
1479,E4,203.5,0.5,38,70.6
1480,B3,203.75,0.25,31,70.6
1481,A4,204.0,0.5,46,70.6
1482,E-4,204.0,1.0,39,70.6
1483,F#3,204.0,0.25,40,70.6
1484,B3,204.25,0.25,33,70.6
1485,C#5,204.5,0.5,39,70.6
1486,A3,204.5,0.25,33,70.6
1487,B3,204.75,0.25,33,70.6
1488,G#3,205.0,0.25,37,70.6
1489,B4,205.0,0.5,42,70.6
1490,E4,205.0,0.5,42,70.6
1491,B3,205.25,0.25,33,70.6
1492,F#3,205.5,0.25,33,70.6
1493,E-5,205.5,0.375,44,70.6
1494,A4,205.5,0.375,44,70.6
1495,B3,205.75,0.25,33,70.6
1496,E3,206.0,0.25,40,70.6
1497,E5,206.0,0.5,42,70.6
1498,G#4,206.0,0.5,42,70.6
1499,B3,206.25,0.25,35,70.6
1500,G4,206.5,1.0,34,70.6
1501,E4,206.5,0.25,28,70.6
1502,B3,206.75,0.25,28,70.6
1503,E4,207.0,0.25,31,70.6
1504,B3,207.25,0.25,28,70.6
1505,G5,207.5,0.5,57,70.6
1506,E4,207.5,0.25,40,70.6
1507,B3,207.75,0.25,49,70.6
1508,A5,208.0,0.5,67,70.6
1509,F#4,208.0,0.25,47,70.6
1510,B3,208.25,0.25,48,70.6
1511,C6,208.5,0.5,65,70.6
1512,A4,208.5,0.25,45,70.6
1513,B3,208.75,0.25,49,70.6
1514,B5,209.0,0.5,76,70.6
1515,G4,209.0,0.25,55,70.6
1516,B3,209.25,0.25,52,70.6
1517,F#4,209.5,0.25,71,70.6
1518,E-6,209.5,0.375,84,70.6
1519,A5,209.5,0.375,84,70.6
1520,E-5,209.5,0.375,84,70.6
1521,B3,209.75,0.25,65,70.6
1522,E4,210.0,0.25,80,70.6
1523,E5,210.0,1.0,90,70.6
1524,G5,210.0,1.0,90,70.6
1525,E6,210.0,1.0,90,70.6
1526,B3,210.25,0.25,65,70.6
1527,G3,210.5,0.25,68,70.6
1528,B3,210.75,0.25,57,70.6
1529,E3,211.0,0.25,44,70.6
1530,B3,211.25,0.25,44,70.6
1531,G4,211.5,0.5,47,70.6
1532,B2,211.5,0.25,38,70.6
1533,B3,211.75,0.25,38,70.6
1534,A4,212.0,0.5,53,70.6
1535,F#3,212.0,0.25,35,70.6
1536,B3,212.25,0.25,36,70.6
1537,C5,212.5,0.5,48,70.6
1538,A3,212.5,0.25,36,70.6
1539,B3,212.75,0.25,37,70.6
1540,B4,213.0,0.5,49,70.6
1541,G3,213.0,0.25,39,70.6
1542,B3,213.25,0.25,39,70.6
1543,F#3,213.5,0.25,40,70.6
1544,A4,213.5,0.25,45,70.6
1545,E-5,213.5,0.25,45,70.6
1546,B3,213.75,0.25,42,70.6
1547,E3,214.0,0.25,43,70.6
1548,E5,214.0,0.25,52,70.6
1549,G4,214.0,0.25,52,70.6
1550,E4,214.25,0.25,41,70.6
1551,D3,214.5,0.25,44,70.6
1552,E5,214.5,0.25,67,70.6
1553,G5,214.5,0.25,67,70.6
1554,D4,214.75,0.25,42,70.6
1555,C3,215.0,0.25,49,70.6
1556,C6,215.0,0.25,73,70.6
1557,E5,215.0,0.25,73,70.6
1558,C4,215.25,0.25,45,70.6
1559,B2,215.5,0.25,51,70.6
1560,E5,215.5,0.25,73,70.6
1561,C6,215.5,0.25,73,70.6
1562,B3,215.75,0.25,47,70.6
1563,A2,216.0,0.25,52,70.6
1564,E5,216.0,0.25,84,70.6
1565,C6,216.0,0.25,84,70.6
1566,A3,216.25,0.25,51,70.6
1567,G2,216.5,0.25,57,70.6
1568,C6,216.5,0.25,83,70.6
1569,A5,216.5,0.25,83,70.6
1570,G3,216.75,0.25,53,70.6
1571,F2,217.0,0.25,57,70.6
1572,F6,217.0,0.25,87,70.6
1573,D6,217.0,0.25,87,70.6
1574,F3,217.25,0.25,55,70.6
1575,E2,217.5,0.25,63,70.6
1576,F6,217.5,0.25,85,70.6
1577,D6,217.5,0.25,85,70.6
1578,E3,217.75,0.25,59,70.6
1579,D2,218.0,0.25,69,70.6
1580,F6,218.0,0.25,90,70.6
1581,D6,218.0,0.25,90,70.6
1582,D3,218.25,0.25,67,70.6
1583,C2,218.5,0.25,74,70.6
1584,D6,218.5,0.25,86,70.6
1585,F6,218.5,0.25,86,70.6
1586,C3,218.75,0.25,77,70.6
1587,B1,219.0,0.25,81,70.6
1588,D6,219.0,0.25,88,70.6
1589,F6,219.0,0.25,88,70.6
1590,B2,219.25,0.25,76,70.6
1591,A1,219.5,0.25,83,70.6
1592,D6,219.5,0.25,94,70.6
1593,F6,219.5,0.25,94,70.6
1594,A2,219.75,0.25,80,70.6
1595,G1,220.0,0.25,86,70.6
1596,F6,220.0,4.5,102,70.6
1597,D6,220.0,4.5,102,70.6
1598,G2,220.25,0.25,80,70.6
1599,B1,220.5,0.25,86,70.6
1600,B2,220.75,0.25,80,70.6
1601,D2,221.0,0.25,86,70.6
1602,D3,221.25,0.25,81,70.6
1603,F#2,221.5,0.25,87,70.6
1604,F#3,221.75,0.25,81,70.6
1605,G2,222.0,0.25,86,70.6
1606,G3,222.25,0.25,76,70.6
1607,B2,222.5,0.25,81,70.6
1608,B3,222.75,0.25,73,70.6
1609,D3,223.0,0.25,77,70.6
1610,D4,223.25,0.25,76,70.6
1611,F#3,223.5,0.25,73,70.6
1612,F#4,223.75,0.25,73,70.6
1613,G3,224.0,0.25,81,70.6
1614,G4,224.25,0.25,53,70.6
1615,A3,224.5,0.25,50,70.6
1616,D6,224.5,1.0,62,70.6
1617,F6,224.5,1.0,62,70.6
1618,A4,224.75,0.25,49,70.6
1619,B3,225.0,0.25,49,70.6
1620,B4,225.25,0.25,48,70.6
1621,C4,225.5,0.25,46,70.6
1622,E6,225.5,0.25,54,70.6
1623,C6,225.5,0.25,54,70.6
1624,C5,225.75,0.25,42,70.6
1625,D6,226.0,0.25,46,70.6
1626,F4,226.0,0.25,42,70.6
1627,C5,226.25,0.25,35,70.6
1628,F#4,226.5,0.25,39,70.6
1629,D5,226.5,0.25,45,70.6
1630,A5,226.5,0.25,45,70.6
1631,C5,226.75,0.25,34,70.6
1632,G4,227.0,0.25,39,70.6
1633,G5,227.0,0.5,40,70.6
1634,E5,227.0,0.5,40,70.6
1635,C5,227.25,0.25,35,70.6
1636,G3,227.5,0.25,40,70.6
1637,G5,227.5,0.25,38,70.6
1638,D5,227.5,0.25,38,70.6
1639,B4,227.5,0.25,38,70.6
1640,G4,227.75,0.25,40,70.6
1641,C3,228.0,0.333,32,70.6
1642,E5,228.0,2.0,41,70.6
1643,C5,228.0,2.0,41,70.6
1644,G4,228.0,2.0,41,70.6
1645,G3,228.333,0.333,27,70.6
1646,E3,228.667,0.333,27,70.6
1647,C3,229.0,0.333,32,70.6
1648,C4,229.333,0.333,27,70.6
1649,G3,229.667,0.333,27,70.6
1650,D3,230.0,0.333,32,70.6
1651,F4,230.0,1.0,32,70.6
1652,D5,230.0,1.0,32,70.6
1653,F5,230.0,1.0,32,70.6
1654,B3,230.333,0.333,27,70.6
1655,G3,230.667,0.333,27,70.6
1656,E3,231.0,0.333,33,70.6
1657,G4,231.0,1.0,28,70.6
1658,C5,231.0,1.0,28,70.6
1659,E5,231.0,1.0,28,70.6
1660,C4,231.333,0.333,27,70.6
1661,G3,231.667,0.333,29,70.6
1662,F3,232.0,0.333,32,70.6
1663,A4,232.0,1.0,39,70.6
1664,D5,232.0,1.0,39,70.6
1665,D4,232.333,0.333,29,70.6
1666,A3,232.667,0.333,29,70.6
1667,C5,233.0,2.0,35,70.6
1668,A4,233.0,1.0,29,70.6
1669,F#3,233.0,0.333,34,70.6
1670,E-4,233.333,0.333,31,70.6
1671,C4,233.667,0.333,30,70.6
1672,G4,234.0,1.0,33,70.6
1673,G3,234.0,0.333,37,70.6
1674,E4,234.333,0.333,32,70.6
1675,C4,234.667,0.333,32,70.6
1676,B4,235.0,0.5,56,70.6
1677,G4,235.0,1.0,34,70.6
1678,F3,235.0,0.333,39,70.6
1679,F4,235.333,0.333,33,70.6
1680,G5,235.5,0.5,60,70.6
1681,D4,235.667,0.333,33,70.6
1682,B3,235.667,0.333,33,70.6
1683,C4,236.0,0.25,39,70.6
1684,G4,236.0,2.0,54,70.6
1685,E-5,236.0,2.0,54,70.6
1686,G5,236.0,2.0,54,70.6
1687,G3,236.25,0.25,32,70.6
1688,E-3,236.5,0.25,32,70.6
1689,G3,236.75,0.25,30,70.6
1690,C3,237.0,0.25,38,70.6
1691,C4,237.25,0.25,33,70.6
1692,G3,237.5,0.25,34,70.6
1693,C3,237.75,0.25,32,70.6
1694,D3,238.0,0.25,45,70.6
1695,F4,238.0,1.0,50,70.6
1696,D5,238.0,1.0,50,70.6
1697,F5,238.0,1.0,50,70.6
1698,B3,238.25,0.25,36,70.6
1699,G3,238.5,0.25,36,70.6
1700,D3,238.75,0.25,33,70.6
1701,E-3,239.0,0.25,43,70.6
1702,E-4,239.0,1.0,50,70.6
1703,C5,239.0,1.0,50,70.6
1704,E-5,239.0,1.0,50,70.6
1705,G4,239.0,1.0,50,70.6
1706,C4,239.25,0.25,39,70.6
1707,G3,239.5,0.25,39,70.6
1708,E-3,239.75,0.25,37,70.6
1709,F3,240.0,0.25,56,70.6
1710,G#4,240.0,1.0,68,70.6
1711,D5,240.0,1.0,68,70.6
1712,D4,240.25,0.25,42,70.6
1713,G#3,240.5,0.25,42,70.6
1714,F3,240.75,0.25,39,70.6
1715,A4,241.0,1.0,63,70.6
1716,C5,241.0,2.0,74,70.6
1717,F#3,241.0,0.25,57,70.6
1718,E-4,241.25,0.25,44,70.6
1719,C4,241.5,0.25,45,70.6
1720,F#3,241.75,0.229,43,70.6
1721,G4,242.0,1.0,64,70.6
1722,G3,242.0,0.25,62,70.6
1723,E-4,242.25,0.25,47,70.6
1724,C4,242.5,0.25,48,70.6
1725,G3,242.75,0.25,47,70.6
1726,G#3,243.0,0.25,58,70.6
1727,F#4,243.0,0.5,76,70.6
1728,C5,243.0,0.5,76,70.6
1729,E-4,243.25,0.25,52,70.6
1730,G#5,243.5,0.5,82,70.6
1731,C4,243.5,0.25,57,70.6
1732,E-4,243.75,0.25,58,70.6
1733,G#5,244.0,2.0,41,70.6
1734,E5,244.0,2.0,41,70.6
1735,G#4,244.0,2.0,41,70.6
1736,C#4,244.0,0.333,32,70.6
1737,C#3,244.0,0.333,32,70.6
1738,G#3,244.333,0.333,27,70.6
1739,E3,244.667,0.333,27,70.6
1740,C#3,245.0,0.333,32,70.6
1741,C#4,245.333,0.333,27,70.6
1742,G#3,245.667,0.333,27,70.6
1743,E-3,246.0,0.333,32,70.6
1744,F#4,246.0,1.0,32,70.6
1745,E-5,246.0,1.0,32,70.6
1746,F#5,246.0,1.0,32,70.6
1747,C4,246.333,0.333,27,70.6
1748,G#3,246.667,0.333,27,70.6
1749,E3,247.0,0.333,33,70.6
1750,G#4,247.0,1.0,28,70.6
1751,C#5,247.0,1.0,28,70.6
1752,E5,247.0,1.0,28,70.6
1753,C#4,247.333,0.333,27,70.6
1754,G#3,247.667,0.333,29,70.6
1755,F#3,248.0,0.333,32,70.6
1756,A4,248.0,1.0,39,70.6
1757,E-5,248.0,1.0,39,70.6
1758,E-4,248.333,0.333,29,70.6
1759,A3,248.667,0.333,29,70.6
1760,C#5,249.0,2.0,35,70.6
1761,B-4,249.0,1.0,29,70.6
1762,G3,249.0,0.333,34,70.6
1763,E4,249.333,0.333,31,70.6
1764,C#4,249.667,0.333,30,70.6
1765,G#4,250.0,1.0,33,70.6
1766,G#3,250.0,0.333,37,70.6
1767,E4,250.333,0.333,32,70.6
1768,C#4,250.667,0.333,32,70.6
1769,C5,251.0,0.5,56,70.6
1770,G#4,251.0,1.0,34,70.6
1771,G#3,251.0,0.25,39,70.6
1772,E-4,251.25,0.25,32,70.6
1773,G#5,251.5,0.5,60,70.6
1774,C4,251.5,0.25,34,70.6
1775,E-4,251.75,0.25,32,70.6
1776,G#4,252.0,2.0,54,70.6
1777,F5,252.0,2.0,54,70.6
1778,G#5,252.0,2.0,54,70.6
1779,C#3,252.0,0.25,38,70.6
1780,C#4,252.0,0.25,38,70.6
1781,G#3,252.25,0.25,32,70.6
1782,F3,252.5,0.25,32,70.6
1783,G#3,252.75,0.25,30,70.6
1784,C#3,253.0,0.25,38,70.6
1785,C#4,253.25,0.25,33,70.6
1786,G#3,253.5,0.25,34,70.6
1787,C#3,253.75,0.25,32,70.6
1788,E-3,254.0,0.25,45,70.6
1789,F#4,254.0,1.0,50,70.6
1790,E-5,254.0,1.0,50,70.6
1791,F#5,254.0,1.0,50,70.6
1792,C4,254.25,0.25,36,70.6
1793,G#3,254.5,0.25,36,70.6
1794,E-3,254.75,0.25,33,70.6
1795,F3,255.0,0.25,43,70.6
1796,F4,255.0,1.0,50,70.6
1797,C#5,255.0,1.0,50,70.6
1798,F5,255.0,1.0,50,70.6
1799,G#4,255.0,1.0,50,70.6
1800,C#4,255.25,0.25,39,70.6
1801,G#3,255.5,0.25,39,70.6
1802,F3,255.75,0.25,37,70.6
1803,F#3,256.0,0.25,56,70.6
1804,A4,256.0,1.0,68,70.6
1805,E-5,256.0,1.0,68,70.6
1806,C#4,256.25,0.25,42,70.6
1807,A3,256.5,0.25,42,70.6
1808,F#3,256.75,0.229,39,70.6
1809,A4,257.0,2.0,63,70.6
1810,C#5,257.0,1.0,74,70.6
1811,F#3,257.0,0.25,57,70.6
1812,C#4,257.25,0.25,44,70.6
1813,A3,257.5,0.25,45,70.6
1814,F#3,257.75,0.229,43,70.6
1815,C5,258.0,1.0,64,70.6
1816,F#3,258.0,0.25,62,70.6
1817,C#4,258.25,0.25,47,70.6
1818,A3,258.5,0.25,48,70.6
1819,F#3,258.75,0.25,47,70.6
1820,E3,259.0,0.25,58,70.6
1821,C#5,259.0,0.5,82,70.6
1822,A4,259.0,0.5,82,70.6
1823,C#4,259.25,0.25,52,70.6
1824,A3,259.5,0.25,57,70.6
1825,F#5,259.5,0.5,87,70.6
1826,A5,259.5,0.5,87,70.6
1827,E3,259.75,0.25,57,70.6
1828,A4,260.0,4.0,92,70.6
1829,F#5,260.0,4.0,92,70.6
1830,A5,260.0,4.0,92,70.6
1831,E-3,260.0,0.5,77,70.6
1832,B3,260.0,0.5,77,70.6
1833,A3,260.5,0.25,69,70.6
1834,C4,260.75,0.25,57,70.6
1835,B3,261.0,0.25,41,70.6
1836,B-3,261.25,0.25,37,70.6
1837,B3,261.5,0.25,41,70.6
1838,F#3,261.75,0.25,35,70.6
1839,E-3,262.0,0.25,41,70.6
1840,C#3,262.25,0.25,37,70.6
1841,E-3,262.5,0.25,41,70.6
1842,B2,262.75,0.25,40,70.6
1843,E-3,263.0,0.125,49,70.6
1844,F#3,263.5,0.125,41,70.6
1845,E-5,264.0,4.0,91,70.6
1846,F#5,264.0,4.0,91,70.6
1847,A5,264.0,4.0,91,70.6
1848,E-6,264.0,4.0,91,70.6
1849,A3,264.5,0.25,69,70.6
1850,C4,264.75,0.25,57,70.6
1851,B3,265.0,0.25,41,70.6
1852,B-3,265.25,0.25,37,70.6
1853,B3,265.5,0.25,41,70.6
1854,F#3,265.75,0.25,35,70.6
1855,E-3,266.0,0.25,41,70.6
1856,C#3,266.25,0.25,37,70.6
1857,E-3,266.5,0.25,41,70.6
1858,B2,266.75,0.25,40,70.6
1859,E-3,267.0,0.125,49,70.6
1860,F#3,267.5,0.125,41,70.6
1861,E-6,268.0,4.0,91,70.6
1862,F#5,268.0,4.0,91,70.6
1863,A5,268.0,4.0,91,70.6
1864,F#6,268.0,4.0,91,70.6
1865,A3,268.5,0.25,69,70.6
1866,C4,268.75,0.25,57,70.6
1867,B3,269.0,0.25,41,70.6
1868,B-3,269.25,0.25,37,70.6
1869,B3,269.5,0.25,41,70.6
1870,F#3,269.75,0.25,35,70.6
1871,E-3,270.0,0.25,41,70.6
1872,C#3,270.25,0.25,37,70.6
1873,E-3,270.5,0.25,41,70.6
1874,B2,270.75,0.25,40,70.6
1875,E-3,271.0,0.25,49,70.6
1876,C#3,271.25,0.25,47,70.6
1877,E-3,271.5,0.25,49,70.6
1878,F#3,271.75,0.25,50,70.6
1879,F#5,272.0,0.25,68,70.6
1880,A3,272.0,0.25,58,70.6
1881,A4,272.5,0.25,39,70.6
1882,E-3,272.5,0.5,26,70.6
1883,C5,272.75,0.25,32,70.6
1884,B4,273.0,0.25,40,70.6
1885,F#3,273.0,0.5,30,70.6
1886,B-4,273.25,0.25,37,70.6
1887,B4,273.5,0.25,41,70.6
1888,B3,273.5,0.5,29,70.6
1889,G#4,273.75,0.25,35,70.6
1890,F#5,274.0,0.25,68,70.6
1891,A3,274.0,0.25,58,70.6
1892,A4,274.5,0.25,39,70.6
1893,E-3,274.5,0.5,26,70.6
1894,C5,274.75,0.25,32,70.6
1895,B4,275.0,0.25,40,70.6
1896,F#3,275.0,0.5,30,70.6
1897,B-4,275.25,0.25,37,70.6
1898,B4,275.5,0.25,41,70.6
1899,B3,275.5,0.5,29,70.6
1900,G#4,275.75,0.25,35,70.6
1901,F#5,276.0,0.25,68,70.6
1902,A3,276.0,0.25,58,70.6
1903,A4,276.5,0.25,39,70.6
1904,E-3,276.5,0.5,26,70.6
1905,C5,276.75,0.25,32,70.6
1906,B4,277.0,0.25,40,70.6
1907,F#3,277.0,0.5,30,70.6
1908,B-4,277.25,0.25,37,70.6
1909,B4,277.5,0.25,41,70.6
1910,B3,277.5,0.75,29,70.6
1911,A4,277.75,0.25,35,70.6
1912,G#4,278.0,0.25,40,70.6
1913,F#4,278.25,0.25,31,70.6
1914,A3,278.25,0.25,27,70.6
1915,G#4,278.5,0.25,35,70.6
1916,B3,278.5,0.25,30,70.6
1917,F#4,278.75,0.25,30,70.6
1918,A3,278.75,0.25,26,70.6
1919,E4,279.0,0.25,37,70.6
1920,G#3,279.0,0.25,30,70.6
1921,E-4,279.25,0.25,29,70.6
1922,A3,279.25,0.25,25,70.6
1923,E4,279.5,0.25,29,70.6
1924,G#3,279.5,0.25,30,70.6
1925,F#4,279.75,0.25,29,70.6
1926,F#3,279.75,0.25,26,70.6
1927,G#4,280.0,1.0,42,70.6
1928,E4,280.0,0.25,31,70.6
1929,E2,280.0,0.5,28,70.6
1930,E3,280.0,0.5,28,70.6
1931,B3,280.25,0.25,26,70.6
1932,E4,280.5,0.25,31,70.6
1933,B3,280.75,0.25,26,70.6
1934,B4,281.0,0.5,45,70.6
1935,G#4,281.0,0.25,45,70.6
1936,B3,281.25,0.25,27,70.6
1937,A4,281.5,0.5,40,70.6
1938,F#4,281.5,0.25,40,70.6
1939,B3,281.75,0.25,27,70.6
1940,E4,282.0,0.25,34,70.6
1941,G#4,282.0,0.5,50,70.6
1942,B1,282.0,0.5,28,70.6
1943,B2,282.0,0.5,28,70.6
1944,B3,282.25,0.25,26,70.6
1945,E-4,282.5,0.25,27,70.6
1946,F#4,282.5,0.438,41,70.6
1947,B3,282.75,0.188,25,70.6
1948,E-4,283.0,0.25,27,70.6
1949,F#4,283.0,0.5,41,70.6
1950,B3,283.25,0.25,26,70.6
1951,E4,283.5,0.25,28,70.6
1952,G#4,283.5,0.5,43,70.6
1953,B3,283.75,0.25,28,70.6
1954,E4,284.0,0.25,30,70.6
1955,A4,284.0,0.5,46,70.6
1956,C#2,284.0,0.5,28,70.6
1957,C#3,284.0,0.5,28,70.6
1958,B3,284.25,0.25,28,70.6
1959,E4,284.5,0.25,36,70.6
1960,C#5,284.5,0.5,54,70.6
1961,B3,284.75,0.25,31,70.6
1962,F#4,285.0,0.25,37,70.6
1963,B4,285.0,0.5,47,70.6
1964,E-3,285.0,0.5,26,70.6
1965,E-2,285.0,0.5,26,70.6
1966,B3,285.25,0.25,26,70.6
1967,E-4,285.5,0.25,25,70.6
1968,F#4,285.5,0.5,38,70.6
1969,B2,285.5,0.5,24,70.6
1970,B1,285.5,0.5,24,70.6
1971,B3,285.75,0.25,27,70.6
1972,B3,286.0,1.0,37,70.6
1973,E4,286.0,1.0,37,70.6
1974,G#4,286.0,1.0,37,70.6
1975,E2,286.0,0.25,28,70.6
1976,E3,286.0,0.25,28,70.6
1977,G#3,286.25,0.25,25,70.6
1978,B3,286.5,0.25,28,70.6
1979,A3,286.75,0.25,26,70.6
1980,G#3,287.0,0.25,28,70.6
1981,A3,287.25,0.25,25,70.6
1982,E5,287.5,0.25,47,70.6
1983,G#3,287.5,0.25,30,70.6
1984,F#5,287.75,0.25,42,70.6
1985,F#3,287.75,0.25,27,70.6
1986,E3,288.0,0.25,37,70.6
1987,G#4,288.0,1.0,55,70.6
1988,G#5,288.0,1.0,55,70.6
1989,B3,288.25,0.25,28,70.6
1990,B2,288.5,0.25,34,70.6
1991,B3,288.75,0.25,28,70.6
1992,E3,289.0,0.25,33,70.6
1993,B4,289.0,0.5,50,70.6
1994,B5,289.0,0.5,50,70.6
1995,B3,289.25,0.25,29,70.6
1996,B2,289.5,0.25,30,70.6
1997,A4,289.5,0.5,47,70.6
1998,A5,289.5,0.5,47,70.6
1999,B3,289.75,0.25,29,70.6
2000,E-3,290.0,0.25,37,70.6
2001,G#4,290.0,0.5,55,70.6
2002,G#5,290.0,0.5,55,70.6
2003,B3,290.25,0.25,28,70.6
2004,B2,290.5,0.25,29,70.6
2005,F#4,290.5,0.438,45,70.6
2006,F#5,290.5,0.438,45,70.6
2007,B3,290.75,0.188,27,70.6
2008,E-3,291.0,0.25,29,70.6
2009,F#4,291.0,0.5,45,70.6
2010,F#5,291.0,0.5,45,70.6
2011,B3,291.25,0.25,28,70.6
2012,F3,291.5,0.25,31,70.6
2013,G#4,291.5,0.5,49,70.6
2014,G#5,291.5,0.5,49,70.6
2015,B3,291.75,0.25,33,70.6
2016,F#3,292.0,0.25,36,70.6
2017,A4,292.0,0.5,52,70.6
2018,A5,292.0,0.5,52,70.6
2019,B3,292.25,0.25,35,70.6
2020,A3,292.5,0.25,41,70.6
2021,C#5,292.5,0.5,55,70.6
2022,C#6,292.5,0.5,55,70.6
2023,B3,292.75,0.25,36,70.6
2024,G#3,293.0,0.25,37,70.6
2025,B4,293.0,0.5,51,70.6
2026,B5,293.0,0.5,51,70.6
2027,B3,293.25,0.25,31,70.6
2028,E-6,293.5,0.5,40,70.6
2029,E-5,293.5,0.5,40,70.6
2030,B2,293.5,0.25,25,70.6
2031,F#3,293.5,0.25,25,70.6
2032,A3,293.75,0.25,27,70.6
2033,E6,294.0,1.0,46,70.6
2034,E5,294.0,1.0,46,70.6
2035,E3,294.0,0.25,31,70.6
2036,G#3,294.0,0.25,31,70.6
2037,B3,294.25,0.25,23,70.6
2038,G#3,294.5,0.25,31,70.6
2039,E3,294.75,0.25,25,70.6
2040,E-3,295.0,0.25,31,70.6
2041,B3,295.25,0.25,27,70.6
2042,B4,295.5,0.5,47,70.6
2043,F#3,295.5,0.25,31,70.6
2044,E-3,295.75,0.25,32,70.6
2045,B-4,296.0,1.0,51,70.6
2046,C#3,296.0,0.25,38,70.6
2047,B-3,296.25,0.25,29,70.6
2048,F#3,296.5,0.25,31,70.6
2049,C#3,296.75,0.25,27,70.6
2050,E5,297.0,1.0,56,70.6
2051,F#2,297.0,0.25,31,70.6
2052,B-3,297.25,0.25,26,70.6
2053,F#3,297.5,0.25,29,70.6
2054,C#3,297.75,0.25,27,70.6
2055,E-5,298.0,1.5,51,70.6
2056,B2,298.0,0.25,31,70.6
2057,B3,298.25,0.25,25,70.6
2058,F#3,298.5,0.25,30,70.6
2059,E-3,298.75,0.25,27,70.6
2060,B2,299.0,0.25,37,70.6
2061,B3,299.25,0.25,30,70.6
2062,A4,299.5,0.5,45,70.6
2063,C#3,299.5,0.25,37,70.6
2064,A3,299.75,0.25,33,70.6
2065,G#4,300.0,1.0,51,70.6
2066,B2,300.0,0.25,31,70.6
2067,G#3,300.25,0.25,36,70.6
2068,E3,300.5,0.25,39,70.6
2069,B2,300.75,0.25,45,70.6
2070,D5,301.0,1.0,54,70.6
2071,E2,301.0,0.25,47,70.6
2072,G#3,301.25,0.25,32,70.6
2073,E3,301.5,0.25,36,70.6
2074,B2,301.75,0.25,29,70.6
2075,C#5,302.0,1.5,51,70.6
2076,A2,302.0,0.25,35,70.6
2077,A3,302.25,0.25,27,70.6
2078,E3,302.5,0.25,31,70.6
2079,C#3,302.75,0.25,27,70.6
2080,A2,303.0,0.25,31,70.6
2081,E3,303.25,0.25,29,70.6
2082,C#5,303.5,0.5,48,70.6
2083,A2,303.5,0.25,34,70.6
2084,E3,303.75,0.25,38,70.6
2085,C5,304.0,0.5,57,70.6
2086,A2,304.0,0.25,39,70.6
2087,E3,304.25,0.25,35,70.6
2088,C#5,304.5,0.5,58,70.6
2089,A2,304.5,0.25,38,70.6
2090,E3,304.75,0.25,35,70.6
2091,A2,305.0,0.25,44,70.6
2092,A4,305.0,0.375,49,70.6
2093,E4,305.0,0.375,49,70.6
2094,C#4,305.0,0.375,49,70.6
2095,E3,305.25,0.25,36,70.6
2096,B2,305.5,0.25,44,70.6
2097,G#4,305.5,0.375,49,70.6
2098,E4,305.5,0.375,49,70.6
2099,B3,305.5,0.375,49,70.6
2100,E3,305.75,0.25,37,70.6
2101,G#4,306.0,0.5,76,70.6
2102,C#3,306.0,0.25,55,70.6
2103,E4,306.0,1.0,64,70.6
2104,B-3,306.0,1.0,64,70.6
2105,E3,306.25,0.25,48,70.6
2106,F#4,306.5,0.979,62,70.6
2107,C#3,306.5,0.25,54,70.6
2108,E3,306.75,0.25,43,70.6
2109,C3,307.0,0.25,50,70.6
2110,E4,307.0,1.0,63,70.6
2111,A3,307.0,1.0,63,70.6
2112,E3,307.25,0.25,39,70.6
2113,F#4,307.5,0.479,67,70.6
2114,C3,307.5,0.25,49,70.6
2115,E3,307.75,0.25,39,70.6
2116,B2,308.0,0.25,31,70.6
2117,F#4,308.0,0.5,44,70.6
2118,E-4,308.0,0.5,44,70.6
2119,A3,308.0,0.5,44,70.6
2120,F#3,308.25,0.25,27,70.6
2121,B4,308.5,0.5,38,70.6
2122,E-4,308.5,1.0,32,70.6
2123,B2,308.5,0.25,31,70.6
2124,F#3,308.75,0.25,29,70.6
2125,A3,308.75,0.25,29,70.6
2126,B-4,309.0,0.5,46,70.6
2127,B2,309.0,0.25,31,70.6
2128,F#3,309.25,0.25,27,70.6
2129,A3,309.25,0.25,27,70.6
2130,B2,309.5,0.25,31,70.6
2131,B4,309.5,0.5,37,70.6
2132,E-4,309.5,0.5,37,70.6
2133,A3,309.75,0.25,28,70.6
2134,F#3,309.75,0.25,28,70.6
2135,E4,310.0,1.0,51,70.6
2136,E3,310.0,0.25,31,70.6
2137,G#3,310.0,0.25,31,70.6
2138,B3,310.25,0.25,23,70.6
2139,G#3,310.5,0.25,31,70.6
2140,E3,310.75,0.25,25,70.6
2141,E-3,311.0,0.25,31,70.6
2142,B3,311.25,0.25,27,70.6
2143,F#3,311.5,0.25,31,70.6
2144,B5,311.5,0.5,47,70.6
2145,B4,311.5,0.5,47,70.6
2146,E-3,311.75,0.25,32,70.6
2147,C#3,312.0,0.25,38,70.6
2148,B-5,312.0,1.0,51,70.6
2149,B-4,312.0,1.0,51,70.6
2150,B-3,312.25,0.25,37,70.6
2151,F#3,312.5,0.25,40,70.6
2152,C#3,312.75,0.25,43,70.6
2153,F#2,313.0,0.25,44,70.6
2154,E6,313.0,1.0,61,70.6
2155,E5,313.0,1.0,61,70.6
2156,B-3,313.25,0.25,33,70.6
2157,F#3,313.5,0.25,39,70.6
2158,C#3,313.75,0.25,27,70.6
2159,B2,314.0,0.25,31,70.6
2160,E-6,314.0,1.5,56,70.6
2161,E-5,314.0,1.5,56,70.6
2162,B3,314.25,0.25,25,70.6
2163,F#3,314.5,0.25,30,70.6
2164,E-3,314.75,0.25,27,70.6
2165,B2,315.0,0.25,37,70.6
2166,B3,315.25,0.25,30,70.6
2167,C#3,315.5,0.25,37,70.6
2168,A5,315.5,0.5,49,70.6
2169,A4,315.5,0.5,49,70.6
2170,A3,315.75,0.25,33,70.6
2171,B2,316.0,0.25,31,70.6
2172,G#5,316.0,1.0,56,70.6
2173,G#4,316.0,1.0,56,70.6
2174,G#3,316.25,0.25,29,70.6
2175,E3,316.5,0.25,38,70.6
2176,B2,316.75,0.25,38,70.6
2177,E2,317.0,0.25,46,70.6
2178,D6,317.0,1.0,59,70.6
2179,D5,317.0,1.0,59,70.6
2180,G#3,317.25,0.25,32,70.6
2181,E3,317.5,0.25,36,70.6
2182,B2,317.75,0.25,29,70.6
2183,A2,318.0,0.25,35,70.6
2184,C#6,318.0,1.5,56,70.6
2185,C#5,318.0,1.5,56,70.6
2186,A3,318.25,0.25,27,70.6
2187,E3,318.5,0.25,31,70.6
2188,C#3,318.75,0.25,27,70.6
2189,A2,319.0,0.25,31,70.6
2190,E3,319.25,0.25,29,70.6
2191,A2,319.5,0.25,34,70.6
2192,C#6,319.5,0.5,48,70.6
2193,C#5,319.5,0.5,48,70.6
2194,E3,319.75,0.25,38,70.6
2195,A2,320.0,0.25,39,70.6
2196,C6,320.0,0.5,57,70.6
2197,C5,320.0,0.5,57,70.6
2198,E3,320.25,0.25,35,70.6
2199,A2,320.5,0.25,38,70.6
2200,C#6,320.5,0.5,58,70.6
2201,C#5,320.5,0.5,58,70.6
2202,E3,320.75,0.25,35,70.6
2203,A5,321.0,0.375,55,70.6
2204,A4,321.0,0.375,55,70.6
2205,C#3,321.0,0.25,40,70.6
2206,A2,321.0,0.25,40,70.6
2207,E3,321.25,0.25,36,70.6
2208,G#5,321.5,0.375,55,70.6
2209,G#4,321.5,0.375,55,70.6
2210,E3,321.5,0.25,40,70.6
2211,B2,321.5,0.25,40,70.6
2212,G#3,321.75,0.25,37,70.6
2213,G#5,322.0,0.5,72,70.6
2214,G#4,322.0,0.5,72,70.6
2215,E3,322.0,0.25,51,70.6
2216,C#3,322.0,0.25,51,70.6
2217,B-3,322.25,0.25,48,70.6
2218,F#5,322.5,0.99,62,70.6
2219,F#4,322.5,0.99,62,70.6
2220,E3,322.5,0.25,50,70.6
2221,C#3,322.5,0.25,50,70.6
2222,B-3,322.75,0.25,43,70.6
2223,E3,323.0,0.25,46,70.6
2224,C3,323.0,0.25,46,70.6
2225,A3,323.25,0.25,39,70.6
2226,F#5,323.5,0.475,67,70.6
2227,F#4,323.5,0.475,67,70.6
2228,E3,323.5,0.25,45,70.6
2229,C3,323.5,0.25,45,70.6
2230,A3,323.75,0.25,39,70.6
2231,F#5,324.0,0.5,49,70.6
2232,F#4,324.0,0.5,49,70.6
2233,E-3,324.0,0.25,28,70.6
2234,B2,324.0,0.25,28,70.6
2235,A3,324.25,0.25,27,70.6
2236,B5,324.5,0.5,38,70.6
2237,B4,324.5,0.5,38,70.6
2238,E-3,324.5,0.25,28,70.6
2239,B2,324.5,0.25,28,70.6
2240,A3,324.75,0.25,29,70.6
2241,B-5,325.0,0.5,46,70.6
2242,B-4,325.0,0.5,46,70.6
2243,E-3,325.0,0.25,28,70.6
2244,B2,325.0,0.25,28,70.6
2245,A3,325.25,0.25,27,70.6
2246,B5,325.5,0.5,40,70.6
2247,B4,325.5,0.5,40,70.6
2248,E-3,325.5,0.25,28,70.6
2249,B2,325.5,0.25,28,70.6
2250,A3,325.75,0.25,28,70.6
2251,E5,326.0,1.0,51,70.6
2252,E4,326.0,1.0,51,70.6
2253,E3,326.0,0.25,31,70.6
2254,G#3,326.0,0.25,31,70.6
2255,E3,326.25,0.25,31,70.6
2256,E-3,326.5,0.25,31,70.6
2257,C#3,326.75,0.25,31,70.6
2258,B2,327.0,0.25,31,70.6
2259,A2,327.25,0.25,30,70.6
2260,E4,327.5,0.25,43,70.6
2261,G#2,327.5,0.25,25,70.6
2262,F#4,327.75,0.25,39,70.6
2263,F#2,327.75,0.25,25,70.6
2264,E4,328.0,0.25,34,70.6
2265,G#4,328.0,1.0,50,70.6
2266,E2,328.0,0.5,25,70.6
2267,B3,328.25,0.25,26,70.6
2268,E4,328.5,0.25,31,70.6
2269,B3,328.75,0.25,26,70.6
2270,G#4,329.0,0.25,30,70.6
2271,B4,329.0,0.5,46,70.6
2272,B3,329.25,0.25,27,70.6
2273,F#4,329.5,0.25,28,70.6
2274,A4,329.5,0.5,43,70.6
2275,B3,329.75,0.25,27,70.6
2276,E4,330.0,0.25,34,70.6
2277,G#4,330.0,0.5,50,70.6
2278,B1,330.0,0.5,25,70.6
2279,B3,330.25,0.25,26,70.6
2280,E-4,330.5,0.25,27,70.6
2281,F#4,330.5,0.438,41,70.6
2282,B3,330.75,0.188,25,70.6
2283,E-4,331.0,0.25,27,70.6
2284,F#4,331.0,0.5,41,70.6
2285,B3,331.25,0.25,26,70.6
2286,E4,331.5,0.25,28,70.6
2287,G#4,331.5,0.5,43,70.6
2288,B3,331.75,0.25,28,70.6
2289,E4,332.0,0.25,30,70.6
2290,A4,332.0,0.5,46,70.6
2291,C#2,332.0,0.5,25,70.6
2292,B3,332.25,0.25,28,70.6
2293,E4,332.5,0.25,36,70.6
2294,C#5,332.5,0.5,54,70.6
2295,B3,332.75,0.25,31,70.6
2296,F#4,333.0,0.25,37,70.6
2297,B4,333.0,0.5,47,70.6
2298,E-2,333.0,0.5,23,70.6
2299,B3,333.25,0.25,26,70.6
2300,E-4,333.5,0.25,25,70.6
2301,F#4,333.5,0.5,38,70.6
2302,B1,333.5,0.5,22,70.6
2303,B3,333.75,0.25,27,70.6
2304,E2,334.0,0.5,28,70.6
2305,B3,334.0,0.5,37,70.6
2306,E4,334.0,0.5,37,70.6
2307,G#4,334.0,0.5,37,70.6
2308,E4,334.5,0.25,28,70.6
2309,B3,334.75,0.25,22,70.6
2310,F#5,334.938,0.062,42,70.6
2311,E5,335.0,0.25,47,70.6
2312,E4,335.0,0.25,28,70.6
2313,E-5,335.25,0.25,42,70.6
2314,B3,335.25,0.25,24,70.6
2315,E5,335.5,0.25,48,70.6
2316,E4,335.5,0.25,28,70.6
2317,F#5,335.75,0.188,43,70.6
2318,B3,335.75,0.25,25,70.6
2319,A5,335.938,0.062,50,70.6
2320,G#5,336.0,0.25,55,70.6
2321,E4,336.0,0.25,30,70.6
2322,F#5,336.25,0.25,50,70.6
2323,B3,336.25,0.25,29,70.6
2324,G#5,336.5,0.25,52,70.6
2325,E4,336.5,0.25,32,70.6
2326,A5,336.75,0.25,54,70.6
2327,B3,336.75,0.25,31,70.6
2328,G#4,337.0,0.25,35,70.6
2329,B4,337.0,0.5,49,70.6
2330,B5,337.0,0.5,49,70.6
2331,B3,337.25,0.25,32,70.6
2332,F#4,337.5,0.25,39,70.6
2333,A5,337.5,0.5,49,70.6
2334,A4,337.5,0.5,49,70.6
2335,B3,337.75,0.25,36,70.6
2336,E4,338.0,0.25,49,70.6
2337,G#5,338.0,0.5,58,70.6
2338,G#4,338.0,0.5,58,70.6
2339,B3,338.25,0.25,41,70.6
2340,E-4,338.5,0.25,48,70.6
2341,F#4,338.5,0.475,56,70.6
2342,F#5,338.5,0.475,56,70.6
2343,B3,338.75,0.25,42,70.6
2344,E-4,339.0,0.25,46,70.6
2345,F#4,339.0,0.5,64,70.6
2346,F#5,339.0,0.5,64,70.6
2347,B3,339.25,0.25,39,70.6
2348,F4,339.5,0.25,49,70.6
2349,G#5,339.5,0.5,59,70.6
2350,G#4,339.5,0.5,59,70.6
2351,B3,339.75,0.25,44,70.6
2352,F#4,340.0,0.25,58,70.6
2353,A4,340.0,0.5,71,70.6
2354,A5,340.0,0.5,71,70.6
2355,B3,340.25,0.25,48,70.6
2356,A4,340.5,0.25,53,70.6
2357,C#6,340.5,0.5,62,70.6
2358,C#5,340.5,0.5,62,70.6
2359,B3,340.75,0.25,47,70.6
2360,G#4,341.0,0.25,57,70.6
2361,B5,341.0,0.5,74,70.6
2362,B4,341.0,0.5,74,70.6
2363,B3,341.25,0.25,44,70.6
2364,F#4,341.5,0.25,54,70.6
2365,E-5,341.5,0.375,74,70.6
2366,A5,341.5,0.375,74,70.6
2367,E-6,341.5,0.375,74,70.6
2368,B3,341.75,0.25,46,70.6
2369,E4,342.0,0.25,59,70.6
2370,E5,342.0,1.0,78,70.6
2371,G#5,342.0,1.0,78,70.6
2372,E6,342.0,1.0,78,70.6
2373,B3,342.25,0.25,49,70.6
2374,G#3,342.5,0.25,58,70.6
2375,B3,342.75,0.25,50,70.6
2376,E3,343.0,0.5,59,70.6
2377,E4,343.5,0.25,80,70.6
2378,G#4,343.5,0.25,80,70.6
2379,C#4,344.0,0.25,67,70.6
2380,E4,344.0,1.5,88,70.6
2381,G#4,344.0,1.5,88,70.6
2382,G#3,344.25,0.25,57,70.6
2383,E3,344.5,0.25,62,70.6
2384,G#3,344.75,0.25,57,70.6
2385,C#3,345.0,0.5,70,70.6
2386,C#4,345.5,0.25,26,70.6
2387,E5,345.5,0.25,30,70.6
2388,G#4,345.5,0.25,30,70.6
2389,E4,345.5,0.25,30,70.6
2390,C4,346.0,0.25,33,70.6
2391,E-5,346.0,1.5,34,70.6
2392,G#4,346.0,1.5,34,70.6
2393,F#4,346.0,1.5,34,70.6
2394,E-4,346.0,1.5,34,70.6
2395,G#3,346.25,0.25,27,70.6
2396,E-3,346.5,0.25,33,70.6
2397,G#3,346.75,0.25,27,70.6
2398,C3,347.0,0.5,36,70.6
2399,C4,347.5,0.25,77,70.6
2400,E-4,347.5,0.25,80,70.6
2401,G#4,347.5,0.25,80,70.6
2402,B3,348.0,0.25,67,70.6
2403,E4,348.0,1.5,86,70.6
2404,D4,348.0,1.5,86,70.6
2405,G#4,348.0,1.5,86,70.6
2406,G#3,348.25,0.25,57,70.6
2407,E3,348.5,0.25,62,70.6
2408,G#3,348.75,0.25,57,70.6
2409,B2,349.0,0.5,70,70.6
2410,B3,349.5,0.25,26,70.6
2411,D4,349.5,0.25,30,70.6
2412,D5,349.5,0.25,30,70.6
2413,E4,349.5,0.25,30,70.6
2414,A3,350.0,0.25,33,70.6
2415,C#5,350.0,1.5,35,70.6
2416,E4,350.0,1.5,35,70.6
2417,C#4,350.0,1.5,35,70.6
2418,E3,350.25,0.25,27,70.6
2419,C#3,350.5,0.25,33,70.6
2420,E3,350.75,0.25,27,70.6
2421,A2,351.0,0.5,36,70.6
2422,C#4,351.5,0.25,87,70.6
2423,A3,351.5,0.25,83,70.6
2424,G#3,352.0,0.25,67,70.6
2425,B3,352.0,1.5,88,70.6
2426,C#4,352.0,1.5,88,70.6
2427,F3,352.25,0.25,57,70.6
2428,C#3,352.5,0.25,62,70.6
2429,F3,352.75,0.25,57,70.6
2430,G#2,353.0,0.5,70,70.6
2431,G#3,353.5,0.25,26,70.6
2432,B4,353.5,0.25,30,70.6
2433,C#4,353.5,0.25,30,70.6
2434,B3,353.5,0.25,30,70.6
2435,F#3,354.0,0.25,33,70.6
2436,A4,354.0,1.5,35,70.6
2437,C#4,354.0,1.5,35,70.6
2438,A3,354.0,1.5,35,70.6
2439,C#3,354.25,0.25,27,70.6
2440,A2,354.5,0.25,33,70.6
2441,C#3,354.75,0.25,27,70.6
2442,F#2,355.0,0.5,36,70.6
2443,F#4,355.5,0.25,77,70.6
2444,C#5,355.5,0.25,78,70.6
2445,F#5,355.5,0.25,78,70.6
2446,A5,355.5,0.25,78,70.6
2447,E-4,356.0,0.25,67,70.6
2448,F#5,356.0,1.5,86,70.6
2449,B4,356.0,1.5,86,70.6
2450,A5,356.0,1.5,86,70.6
2451,B3,356.25,0.25,57,70.6
2452,F#3,356.5,0.25,62,70.6
2453,B3,356.75,0.25,57,70.6
2454,E-3,357.0,0.5,70,70.6
2455,E-3,357.5,0.25,77,70.6
2456,F#4,357.5,0.25,80,70.6
2457,A4,357.5,0.25,80,70.6
2458,C3,358.0,0.25,67,70.6
2459,E4,358.0,1.5,88,70.6
2460,A4,358.0,1.5,88,70.6
2461,A2,358.25,0.25,57,70.6
2462,E2,358.5,0.25,62,70.6
2463,A2,358.75,0.25,57,70.6
2464,C2,359.0,0.5,70,70.6
2465,A4,359.5,0.25,78,70.6
2466,E5,359.5,0.25,78,70.6
2467,A5,359.5,0.25,78,70.6
2468,C3,359.5,0.25,70,70.6
2469,C4,359.5,0.25,70,70.6
2470,E-5,360.0,0.5,85,70.6
2471,F#5,360.0,0.5,85,70.6
2472,A4,360.0,0.5,85,70.6
2473,A5,360.0,0.5,85,70.6
2474,B2,360.0,0.5,48,70.6
2475,B3,360.0,0.5,48,70.6
2476,B4,360.5,0.25,33,70.6
2477,C#5,360.75,0.25,27,70.6
2478,B4,361.0,0.25,33,70.6
2479,C#5,361.25,0.25,29,70.6
2480,B4,361.5,0.25,33,70.6
2481,C#5,361.75,0.25,29,70.6
2482,B4,362.0,0.25,32,70.6
2483,A5,362.0,1.5,53,70.6
2484,F#6,362.0,1.5,53,70.6
2485,F#4,362.0,1.5,38,70.6
2486,E-4,362.0,1.5,38,70.6
2487,C#5,362.25,0.25,27,70.6
2488,B4,362.5,0.25,31,70.6
2489,C#5,362.75,0.25,26,70.6
2490,B4,363.0,0.25,38,70.6
2491,C#5,363.25,0.25,32,70.6
2492,B4,363.5,0.25,46,70.6
2493,G#5,363.5,0.45,57,70.6
2494,E6,363.5,0.45,57,70.6
2495,E4,363.5,0.45,46,70.6
2496,G#4,363.5,0.45,46,70.6
2497,C#5,363.75,0.25,36,70.6
2498,B4,364.0,0.25,52,70.6
2499,E6,364.0,0.5,62,70.6
2500,G#5,364.0,0.5,62,70.6
2501,E4,364.0,0.5,52,70.6
2502,G#4,364.0,0.5,52,70.6
2503,C#5,364.25,0.25,29,70.6
2504,B4,364.5,0.25,32,70.6
2505,F#5,364.5,0.45,48,70.6
2506,E-6,364.5,0.45,48,70.6
2507,A4,364.5,0.45,38,70.6
2508,F#4,364.5,0.45,38,70.6
2509,C#5,364.75,0.25,28,70.6
2510,B4,365.0,0.25,26,70.6
2511,E-6,365.0,0.5,47,70.6
2512,F#5,365.0,0.5,47,70.6
2513,F#4,365.0,0.5,30,70.6
2514,A4,365.0,0.5,30,70.6
2515,C#5,365.25,0.25,24,70.6
2516,B4,365.5,0.25,26,70.6
2517,G#5,365.5,0.5,39,70.6
2518,E6,365.5,0.5,39,70.6
2519,E4,365.5,0.5,30,70.6
2520,G#4,365.5,0.5,30,70.6
2521,C#5,365.75,0.25,24,70.6
2522,B4,366.0,0.25,32,70.6
2523,A5,366.0,1.5,53,70.6
2524,F#6,366.0,1.5,53,70.6
2525,F#4,366.0,1.5,38,70.6
2526,E-4,366.0,1.5,38,70.6
2527,C#5,366.25,0.25,27,70.6
2528,B4,366.5,0.25,31,70.6
2529,C#5,366.75,0.25,26,70.6
2530,B4,367.0,0.25,32,70.6
2531,C#5,367.25,0.25,32,70.6
2532,B4,367.5,0.25,45,70.6
2533,G#5,367.5,0.45,57,70.6
2534,E6,367.5,0.45,57,70.6
2535,E4,367.5,0.45,45,70.6
2536,G#4,367.5,0.45,45,70.6
2537,C#5,367.75,0.25,41,70.6
2538,B4,368.0,0.25,37,70.6
2539,E-6,368.0,0.5,62,70.6
2540,F#5,368.0,0.5,62,70.6
2541,A4,368.0,0.5,43,70.6
2542,F#4,368.0,0.5,43,70.6
2543,C#5,368.25,0.25,29,70.6
2544,B4,368.5,0.25,32,70.6
2545,F#6,368.5,0.5,48,70.6
2546,A5,368.5,0.5,48,70.6
2547,F#4,368.5,0.45,38,70.6
2548,E-4,368.5,0.45,38,70.6
2549,C#5,368.75,0.25,28,70.6
2550,B4,369.0,0.25,26,70.6
2551,E6,369.0,0.5,47,70.6
2552,G#5,369.0,0.5,47,70.6
2553,E4,369.0,0.5,30,70.6
2554,G#4,369.0,0.5,30,70.6
2555,C#5,369.25,0.25,24,70.6
2556,B4,369.5,0.25,26,70.6
2557,E-5,369.5,0.5,39,70.6
2558,F#5,369.5,0.5,39,70.6
2559,E-6,369.5,0.5,39,70.6
2560,F#4,369.5,0.5,30,70.6
2561,A4,369.5,0.5,30,70.6
2562,C#5,369.75,0.25,24,70.6
2563,G#4,370.0,0.5,28,70.6
2564,B4,370.0,0.25,33,70.6
2565,E6,370.0,0.5,39,70.6
2566,E5,370.0,0.5,39,70.6
2567,E5,370.25,0.25,27,70.6
2568,E-6,370.5,0.5,34,70.6
2569,B4,370.5,0.25,31,70.6
2570,E5,370.75,0.25,27,70.6
2571,C#6,371.0,0.5,39,70.6
2572,A4,371.0,0.25,33,70.6
2573,E5,371.25,0.25,26,70.6
2574,B5,371.5,0.5,35,70.6
2575,G#4,371.5,0.25,30,70.6
2576,E5,371.75,0.25,27,70.6
2577,C#6,372.0,0.5,39,70.6
2578,A4,372.0,0.25,33,70.6
2579,E5,372.25,0.25,26,70.6
2580,B5,372.5,0.5,37,70.6
2581,B4,372.5,0.25,31,70.6
2582,E5,372.75,0.25,25,70.6
2583,A5,373.0,0.5,39,70.6
2584,C#5,373.0,0.25,33,70.6
2585,E5,373.25,0.25,25,70.6
2586,G#5,373.5,0.479,34,70.6
2587,B-4,373.5,0.25,30,70.6
2588,E5,373.75,0.25,27,70.6
2589,G#5,374.0,1.5,39,70.6
2590,B4,374.0,2.0,33,70.6
2591,C#5,374.25,0.25,27,70.6
2592,E-5,374.5,0.25,32,70.6
2593,E5,374.75,0.25,26,70.6
2594,E-5,375.0,0.25,31,70.6
2595,E5,375.25,0.25,27,70.6
2596,A5,375.5,0.25,38,70.6
2597,F#5,375.5,0.25,29,70.6
2598,B5,375.75,0.25,33,70.6
2599,G#5,375.75,0.25,27,70.6
2600,F#5,376.0,0.5,39,70.6
2601,E-5,376.0,0.5,33,70.6
2602,B4,376.0,0.5,33,70.6
2603,B4,376.5,0.25,39,70.6
2604,C#4,376.5,0.25,33,70.6
2605,C#5,376.75,0.25,34,70.6
2606,B3,376.75,0.25,30,70.6
2607,B4,377.0,0.25,39,70.6
2608,C#4,377.0,0.25,33,70.6
2609,C#5,377.25,0.25,35,70.6
2610,B3,377.25,0.25,29,70.6
2611,B4,377.5,0.25,39,70.6
2612,C#4,377.5,0.25,33,70.6
2613,C#5,377.75,0.25,35,70.6
2614,B3,377.75,0.25,33,70.6
2615,B4,378.0,0.25,39,70.6
2616,C#4,378.0,0.25,32,70.6
2617,F#5,378.0,1.5,53,70.6
2618,A5,378.0,1.5,53,70.6
2619,F#3,378.0,1.5,38,70.6
2620,E-3,378.0,1.5,38,70.6
2621,C#5,378.25,0.25,35,70.6
2622,B3,378.25,0.25,27,70.6
2623,B4,378.5,0.25,39,70.6
2624,C#4,378.5,0.25,31,70.6
2625,C#5,378.75,0.25,35,70.6
2626,B3,378.75,0.25,26,70.6
2627,B4,379.0,0.25,39,70.6
2628,C#4,379.0,0.25,32,70.6
2629,C#5,379.25,0.25,37,70.6
2630,B3,379.25,0.25,32,70.6
2631,B4,379.5,0.25,43,70.6
2632,C#4,379.5,0.25,33,70.6
2633,G#5,379.5,0.45,57,70.6
2634,E5,379.5,0.45,57,70.6
2635,G#3,379.5,0.45,38,70.6
2636,E3,379.5,0.45,38,70.6
2637,C#5,379.75,0.25,41,70.6
2638,B3,379.75,0.25,36,70.6
2639,B4,380.0,0.25,48,70.6
2640,C#4,380.0,0.25,37,70.6
2641,G#5,380.0,0.5,62,70.6
2642,E5,380.0,0.5,62,70.6
2643,G#3,380.0,0.5,43,70.6
2644,E3,380.0,0.5,43,70.6
2645,C#5,380.25,0.25,42,70.6
2646,B3,380.25,0.25,29,70.6
2647,B4,380.5,0.25,46,70.6
2648,C#4,380.5,0.25,32,70.6
2649,E-5,380.5,0.45,48,70.6
2650,F#5,380.5,0.45,48,70.6
2651,A3,380.5,0.45,38,70.6
2652,F#3,380.5,0.45,38,70.6
2653,C#5,380.75,0.25,40,70.6
2654,B3,380.75,0.25,28,70.6
2655,B4,381.0,0.25,44,70.6
2656,C#4,381.0,0.25,26,70.6
2657,F#5,381.0,0.5,47,70.6
2658,E-5,381.0,0.5,47,70.6
2659,F#3,381.0,0.5,30,70.6
2660,A3,381.0,0.5,30,70.6
2661,C#5,381.25,0.25,38,70.6
2662,B3,381.25,0.25,24,70.6
2663,B4,381.5,0.25,41,70.6
2664,C#4,381.5,0.25,26,70.6
2665,G#5,381.5,0.5,39,70.6
2666,E5,381.5,0.5,39,70.6
2667,E3,381.5,0.5,30,70.6
2668,G#3,381.5,0.5,30,70.6
2669,C#5,381.75,0.25,36,70.6
2670,B3,381.75,0.25,24,70.6
2671,B4,382.0,0.25,39,70.6
2672,C#4,382.0,0.25,32,70.6
2673,A5,382.0,1.5,53,70.6
2674,F#5,382.0,1.5,53,70.6
2675,F#3,382.0,1.5,38,70.6
2676,E-3,382.0,1.5,38,70.6
2677,C#5,382.25,0.25,36,70.6
2678,B3,382.25,0.25,27,70.6
2679,B4,382.5,0.25,41,70.6
2680,C#4,382.5,0.25,31,70.6
2681,C#5,382.75,0.25,38,70.6
2682,B3,382.75,0.25,26,70.6
2683,B4,383.0,0.25,43,70.6
2684,C#4,383.0,0.25,32,70.6
2685,C#5,383.25,0.25,40,70.6
2686,B3,383.25,0.25,32,70.6
2687,B4,383.5,0.25,46,70.6
2688,C#4,383.5,0.25,33,70.6
2689,G#5,383.5,0.45,57,70.6
2690,E5,383.5,0.45,57,70.6
2691,G#3,383.5,0.45,38,70.6
2692,E3,383.5,0.45,38,70.6
2693,C#5,383.75,0.25,42,70.6
2694,B3,383.75,0.25,36,70.6
2695,F#5,384.0,0.5,62,70.6
2696,E-5,384.0,0.25,62,70.6
2697,A3,384.0,0.25,32,70.6
2698,F#3,384.0,0.5,39,70.6
2699,B4,384.25,0.25,36,70.6
2700,B3,384.25,0.25,29,70.6
2701,C#6,384.5,0.5,48,70.6
2702,A5,384.5,0.25,48,70.6
2703,E-3,384.5,0.225,38,70.6
2704,B2,384.5,0.225,38,70.6
2705,B4,384.75,0.25,36,70.6
2706,B3,384.75,0.25,28,70.6
2707,B5,385.0,0.5,47,70.6
2708,G#5,385.0,0.25,47,70.6
2709,C#3,385.0,0.25,30,70.6
2710,E3,385.0,0.25,30,70.6
2711,B4,385.25,0.25,36,70.6
2712,B3,385.25,0.25,24,70.6
2713,F#5,385.5,0.25,39,70.6
2714,A5,385.5,0.5,39,70.6
2715,E-3,385.5,0.25,30,70.6
2716,F#3,385.5,0.25,30,70.6
2717,B4,385.75,0.25,36,70.6
2718,B3,385.75,0.25,24,70.6
2719,G#5,386.0,0.5,62,70.6
2720,E5,386.0,0.25,62,70.6
2721,G#3,386.0,0.25,36,70.6
2722,E3,386.0,0.25,36,70.6
2723,B4,386.25,0.25,35,70.6
2724,B3,386.25,0.25,28,70.6
2725,B5,386.5,0.5,47,70.6
2726,G#5,386.5,0.25,47,70.6
2727,E3,386.5,0.225,36,70.6
2728,C#3,386.5,0.225,36,70.6
2729,B4,386.75,0.25,34,70.6
2730,B3,386.75,0.25,27,70.6
2731,A5,387.0,0.5,45,70.6
2732,F#5,387.0,0.25,45,70.6
2733,E-3,387.0,0.25,28,70.6
2734,F#3,387.0,0.25,28,70.6
2735,B4,387.25,0.25,34,70.6
2736,B3,387.25,0.25,22,70.6
2737,E5,387.5,0.25,36,70.6
2738,G#5,387.5,0.5,36,70.6
2739,E3,387.5,0.25,28,70.6
2740,G#3,387.5,0.25,28,70.6
2741,B4,387.75,0.25,33,70.6
2742,B3,387.75,0.25,22,70.6
2743,F#5,388.0,0.5,57,70.6
2744,E-5,388.0,0.25,57,70.6
2745,A3,388.0,0.25,32,70.6
2746,F#3,388.0,0.25,32,70.6
2747,B4,388.25,0.25,32,70.6
2748,B3,388.25,0.25,26,70.6
2749,A5,388.5,0.5,43,70.6
2750,F#5,388.5,0.25,43,70.6
2751,F#3,388.5,0.225,33,70.6
2752,E-3,388.5,0.225,33,70.6
2753,B4,388.75,0.25,32,70.6
2754,B3,388.75,0.25,24,70.6
2755,G#5,389.0,0.5,41,70.6
2756,E5,389.0,0.25,41,70.6
2757,E3,389.0,0.25,26,70.6
2758,G#3,389.0,0.25,26,70.6
2759,B4,389.25,0.25,31,70.6
2760,B3,389.25,0.25,20,70.6
2761,E-5,389.5,0.25,33,70.6
2762,F#5,389.5,0.5,33,70.6
2763,F#3,389.5,0.25,26,70.6
2764,A3,389.5,0.25,26,70.6
2765,A4,389.75,0.25,30,70.6
2766,E-4,389.75,0.25,20,70.6
2767,B4,390.0,0.25,41,70.6
2768,E5,390.0,0.5,52,70.6
2769,G#3,390.0,0.25,26,70.6
2770,G#4,390.25,0.25,29,70.6
2771,B3,390.25,0.25,24,70.6
2772,B4,390.5,0.25,29,70.6
2773,D5,390.5,0.5,39,70.6
2774,G#3,390.5,0.225,33,70.6
2775,F4,390.75,0.25,29,70.6
2776,B3,390.75,0.25,22,70.6
2777,B4,391.0,0.25,29,70.6
2778,C#5,391.0,0.5,37,70.6
2779,G#3,391.0,0.25,26,70.6
2780,F4,391.25,0.25,28,70.6
2781,B3,391.25,0.25,18,70.6
2782,B4,391.5,0.25,29,70.6
2783,C#5,391.5,0.5,30,70.6
2784,G#3,391.5,0.25,25,70.6
2785,F4,391.75,0.25,27,70.6
2786,B3,391.75,0.25,18,70.6
2787,C#5,392.0,0.25,39,70.6
2788,F4,392.0,0.25,39,70.6
2789,G#3,392.0,0.5,24,70.6
2790,B3,392.0,0.5,24,70.6
2791,C#5,392.25,0.25,33,70.6
2792,E-5,392.5,0.25,34,70.6
2793,F5,392.75,0.188,37,70.6
2794,G#5,392.938,0.062,35,70.6
2795,F#5,393.0,0.25,39,70.6
2796,F5,393.25,0.25,32,70.6
2797,C#4,393.25,0.25,27,70.6
2798,F#5,393.5,0.25,35,70.6
2799,E-4,393.5,0.25,29,70.6
2800,G#5,393.75,0.25,32,70.6
2801,F4,393.75,0.25,27,70.6
2802,A5,394.0,0.25,39,70.6
2803,F#4,394.0,0.25,33,70.6
2804,F5,394.25,0.25,33,70.6
2805,C#4,394.25,0.25,28,70.6
2806,F#5,394.5,0.25,35,70.6
2807,E-4,394.5,0.25,29,70.6
2808,G#5,394.75,0.188,32,70.6
2809,F4,394.75,0.188,27,70.6
2810,B5,394.938,0.062,32,70.6
2811,G#4,394.938,0.062,27,70.6
2812,A5,395.0,0.25,41,70.6
2813,F#4,395.0,0.25,34,70.6
2814,G#5,395.25,0.25,33,70.6
2815,F4,395.25,0.25,28,70.6
2816,A5,395.5,0.25,35,70.6
2817,F#4,395.5,0.25,29,70.6
2818,B5,395.75,0.25,32,70.6
2819,G#4,395.75,0.25,27,70.6
2820,C#6,396.0,0.25,42,70.6
2821,A4,396.0,0.25,35,70.6
2822,B5,396.25,0.25,35,70.6
2823,G#4,396.25,0.25,29,70.6
2824,A5,396.5,0.25,35,70.6
2825,A4,396.5,0.25,29,70.6
2826,G#5,396.75,0.25,34,70.6
2827,B4,396.75,0.25,28,70.6
2828,A5,397.0,0.25,41,70.6
2829,C#5,397.0,0.25,34,70.6
2830,G#5,397.25,0.25,35,70.6
2831,B4,397.25,0.25,29,70.6
2832,F#5,397.5,0.25,35,70.6
2833,A4,397.5,0.25,29,70.6
2834,C#6,397.75,0.25,34,70.6
2835,B-4,397.75,0.25,28,70.6
2836,G#5,398.0,0.25,40,70.6
2837,B4,398.0,0.5,34,70.6
2838,F#5,398.25,0.25,34,70.6
2839,E5,398.5,0.25,35,70.6
2840,B5,398.75,0.25,35,70.6
2841,F#5,399.0,0.25,40,70.6
2842,B3,399.0,0.5,34,70.6
2843,E5,399.25,0.25,33,70.6
2844,E-5,399.5,0.25,35,70.6
2845,B5,399.75,0.229,33,70.6
2846,E3,400.0,0.333,32,70.6
2847,B5,400.0,2.0,41,70.6
2848,G#5,400.0,2.0,41,70.6
2849,B4,400.0,2.0,41,70.6
2850,B3,400.333,0.333,27,70.6
2851,G#3,400.667,0.333,27,70.6
2852,E3,401.0,0.333,32,70.6
2853,E4,401.333,0.333,27,70.6
2854,B3,401.667,0.333,27,70.6
2855,F#3,402.0,0.333,32,70.6
2856,A4,402.0,1.0,32,70.6
2857,F#5,402.0,1.0,32,70.6
2858,A5,402.0,1.0,32,70.6
2859,E-4,402.333,0.333,27,70.6
2860,B3,402.667,0.333,27,70.6
2861,G#3,403.0,0.333,33,70.6
2862,B4,403.0,1.0,28,70.6
2863,E5,403.0,1.0,28,70.6
2864,G#5,403.0,1.0,28,70.6
2865,E4,403.333,0.333,27,70.6
2866,B3,403.667,0.333,29,70.6
2867,A3,404.0,0.333,32,70.6
2868,C#5,404.0,1.0,39,70.6
2869,F#5,404.0,1.0,39,70.6
2870,F#4,404.333,0.333,29,70.6
2871,C#4,404.667,0.333,29,70.6
2872,E5,405.0,2.0,35,70.6
2873,C#5,405.0,1.0,29,70.6
2874,B-3,405.0,0.333,34,70.6
2875,G#4,405.333,0.333,31,70.6
2876,E4,405.667,0.333,30,70.6
2877,B4,406.0,1.0,33,70.6
2878,B3,406.0,0.333,37,70.6
2879,G#4,406.333,0.333,32,70.6
2880,E4,406.667,0.333,32,70.6
2881,E-5,407.0,0.5,44,70.6
2882,B4,407.0,1.0,37,70.6
2883,A3,407.0,0.333,42,70.6
2884,F#4,407.333,0.333,36,70.6
2885,B5,407.5,0.5,43,70.6
2886,E-4,407.667,0.333,36,70.6
2887,G#3,408.0,0.25,43,70.6
2888,B4,408.0,2.0,60,70.6
2889,D5,408.0,2.0,60,70.6
2890,B5,408.0,2.0,60,70.6
2891,E4,408.25,0.25,36,70.6
2892,B3,408.5,0.25,36,70.6
2893,G#3,408.75,0.25,34,70.6
2894,E3,409.0,0.25,42,70.6
2895,B3,409.25,0.25,37,70.6
2896,G#3,409.5,0.25,38,70.6
2897,E3,409.75,0.25,35,70.6
2898,F#3,410.0,0.25,50,70.6
2899,A4,410.0,1.0,55,70.6
2900,D5,410.0,1.0,55,70.6
2901,A5,410.0,1.0,55,70.6
2902,D4,410.25,0.25,40,70.6
2903,A3,410.5,0.25,40,70.6
2904,F#3,410.75,0.25,36,70.6
2905,G#3,411.0,0.25,48,70.6
2906,G#4,411.0,1.0,55,70.6
2907,D5,411.0,1.0,55,70.6
2908,G#5,411.0,1.0,55,70.6
2909,B4,411.0,1.0,55,70.6
2910,E4,411.25,0.25,43,70.6
2911,B3,411.5,0.25,43,70.6
2912,G#3,411.75,0.25,41,70.6
2913,A3,412.0,0.25,61,70.6
2914,D5,412.0,1.0,74,70.6
2915,F#5,412.0,1.0,74,70.6
2916,F#4,412.25,0.25,46,70.6
2917,D4,412.5,0.25,45,70.6
2918,A3,412.75,0.25,43,70.6
2919,B3,413.0,0.25,62,70.6
2920,D5,413.0,1.0,74,70.6
2921,E5,413.0,1.0,74,70.6
2922,G#4,413.25,0.25,47,70.6
2923,D4,413.5,0.25,49,70.6
2924,B3,413.75,0.229,46,70.6
2925,G#3,414.0,0.25,63,70.6
2926,E5,414.0,1.0,78,70.6
2927,D5,414.0,1.0,78,70.6
2928,B4,414.0,1.0,78,70.6
2929,D4,414.25,0.25,53,70.6
2930,B3,414.5,0.25,62,70.6
2931,G#3,414.75,0.25,68,70.6
2932,F3,415.0,0.25,79,70.6
2933,D6,415.0,1.0,87,70.6
2934,D5,415.0,1.0,87,70.6
2935,D4,415.25,0.25,65,70.6
2936,B3,415.5,0.25,70,70.6
2937,G#3,415.75,0.229,65,70.6
2938,F3,416.0,0.25,79,70.6
2939,D6,416.0,2.0,94,70.6
2940,D5,416.0,2.0,94,70.6
2941,D4,416.25,0.25,70,70.6
2942,B3,416.5,0.25,70,70.6
2943,G#3,416.75,0.25,65,70.6
2944,F3,417.0,0.25,79,70.6
2945,D4,417.25,0.25,66,70.6
2946,B3,417.5,0.25,72,70.6
2947,G#3,417.75,0.25,66,70.6
2948,D3,418.0,0.25,79,70.6
2949,F5,418.0,2.0,94,70.6
2950,F6,418.0,2.0,94,70.6
2951,B3,418.25,0.25,59,70.6
2952,G#3,418.5,0.25,68,70.6
2953,F3,418.75,0.25,58,70.6
2954,D3,419.0,0.25,72,70.6
2955,B3,419.25,0.25,57,70.6
2956,G#3,419.5,0.25,63,70.6
2957,F3,419.75,0.25,56,70.6
2958,B2,420.0,0.25,73,70.6
2959,F5,420.0,0.25,102,70.6
2960,F6,420.0,0.25,102,70.6
2961,F4,420.25,0.25,63,70.6
2962,G#3,420.25,0.25,54,70.6
2963,B4,420.5,0.25,70,70.6
2964,F3,420.5,0.25,54,70.6
2965,D5,420.75,0.25,56,70.6
2966,D3,420.75,0.25,46,70.6
2967,F5,421.0,0.25,53,70.6
2968,B2,421.0,0.25,53,70.6
2969,B5,421.25,0.25,49,70.6
2970,G#3,421.25,0.25,39,70.6
2971,D6,421.5,0.25,46,70.6
2972,F3,421.5,0.25,42,70.6
2973,B5,421.75,0.25,42,70.6
2974,D3,421.75,0.25,35,70.6
2975,D6,422.0,1.0,39,70.6
2976,B2,422.0,0.25,42,70.6
2977,G3,422.25,0.25,33,70.6
2978,F3,422.5,0.25,37,70.6
2979,D3,422.75,0.25,32,70.6
2980,B2,423.0,0.25,37,70.6
2981,G3,423.25,0.25,31,70.6
2982,E5,423.5,0.5,39,70.6
2983,B2,423.5,0.25,34,70.6
2984,G3,423.75,0.25,29,70.6
2985,F5,424.0,0.5,42,70.6
2986,G3,424.0,1.0,34,70.6
2987,B2,424.0,1.0,34,70.6
2988,G#5,424.5,0.5,34,70.6
2989,G5,425.0,0.5,39,70.6
2990,D5,425.5,0.5,37,70.6
2991,G4,425.5,0.5,31,70.6
2992,E5,426.0,0.5,39,70.6
2993,G4,426.0,0.5,33,70.6
2994,F5,426.5,0.5,34,70.6
2995,G#4,426.5,0.5,28,70.6
2996,E5,427.0,0.5,39,70.6
2997,G4,427.0,0.5,33,70.6
2998,B4,427.5,0.5,37,70.6
2999,G3,427.5,0.5,24,70.6
3000,D4,427.5,0.5,24,70.6
3001,C5,428.0,1.0,39,70.6
3002,E4,428.0,2.0,39,70.6
3003,G3,428.0,0.5,33,70.6
3004,B-3,428.5,0.5,28,70.6
3005,C#5,429.0,1.0,47,70.6
3006,A3,429.0,0.5,33,70.6
3007,E3,429.5,0.5,24,70.6
3008,G3,429.5,0.5,24,70.6
3009,D4,430.0,1.0,45,70.6
3010,D5,430.0,1.0,45,70.6
3011,F3,430.0,0.5,30,70.6
3012,A3,430.0,0.5,30,70.6
3013,G3,430.5,0.5,26,70.6
3014,B-3,430.5,0.5,26,70.6
3015,A5,431.0,1.5,49,70.6
3016,F3,431.0,0.5,30,70.6
3017,A3,431.0,0.5,30,70.6
3018,C#3,431.5,0.5,24,70.6
3019,E3,431.5,0.5,24,70.6
3020,D3,432.0,0.5,30,70.6
3021,F3,432.0,0.5,30,70.6
3022,B-5,432.5,0.5,39,70.6
3023,F4,432.5,1.0,30,70.6
3024,D4,432.5,1.0,30,70.6
3025,A5,433.0,0.5,43,70.6
3026,F5,433.5,0.5,39,70.6
3027,E-4,433.5,1.0,28,70.6
3028,C4,433.5,1.0,28,70.6
3029,B-5,434.0,0.5,43,70.6
3030,F5,434.5,0.5,39,70.6
3031,B-3,434.5,1.0,28,70.6
3032,C#4,434.5,1.0,28,70.6
3033,F5,435.0,0.5,39,70.6
3034,C#5,435.5,0.5,36,70.6
3035,B3,435.5,1.0,28,70.6
3036,G#3,435.5,1.0,28,70.6
3037,F#5,436.0,0.5,37,70.6
3038,C#5,436.5,0.5,39,70.6
3039,F#3,436.5,1.0,28,70.6
3040,B-3,436.5,1.0,28,70.6
3041,C#5,437.0,0.5,43,70.6
3042,B-4,437.5,0.5,39,70.6
3043,F#3,437.5,1.0,28,70.6
3044,B-3,437.5,1.0,28,70.6
3045,B-5,438.0,0.5,46,70.6
3046,F#5,438.5,0.5,38,70.6
3047,F#3,438.5,1.0,28,70.6
3048,B-3,438.5,1.0,28,70.6
3049,F#5,439.0,0.5,42,70.6
3050,C#5,439.5,0.5,39,70.6
3051,F#3,439.5,1.0,39,70.6
3052,B-3,439.5,1.0,39,70.6
3053,C#6,440.0,0.5,54,70.6
3054,A5,440.5,0.5,49,70.6
3055,C4,440.5,1.0,39,70.6
3056,F#3,440.5,1.0,39,70.6
3057,A3,440.5,1.0,39,70.6
3058,A5,441.0,0.5,64,70.6
3059,F#5,441.5,0.5,64,70.6
3060,E3,441.5,1.0,50,70.6
3061,C4,441.5,1.0,50,70.6
3062,F#3,441.5,1.0,50,70.6
3063,A3,441.5,1.0,50,70.6
3064,C6,442.0,0.5,79,70.6
3065,F#5,442.5,0.5,73,70.6
3066,E-3,442.5,0.5,66,70.6
3067,B3,442.5,0.5,66,70.6
3068,F#3,442.5,0.5,66,70.6
3069,A3,442.5,0.5,66,70.6
3070,B5,443.0,0.5,97,70.6
3071,E-3,443.0,0.25,63,70.6
3072,B3,443.25,0.25,57,70.6
3073,F#5,443.5,0.25,87,70.6
3074,E-3,443.5,0.25,57,70.6
3075,E3,443.75,0.25,58,70.6
3076,F#3,444.0,0.25,45,70.6
3077,B3,444.25,0.25,41,70.6
3078,F#3,444.5,0.25,41,70.6
3079,G#3,444.75,0.25,44,70.6
3080,E-5,445.0,0.25,72,70.6
3081,A3,445.0,0.25,49,70.6
3082,B5,445.25,0.25,59,70.6
3083,B3,445.25,0.25,40,70.6
3084,E-5,445.5,0.25,61,70.6
3085,A3,445.5,0.25,40,70.6
3086,E5,445.75,0.25,64,70.6
3087,G#3,445.75,0.25,44,70.6
3088,F#5,446.0,0.25,74,70.6
3089,F#3,446.0,0.25,49,70.6
3090,B5,446.25,0.25,59,70.6
3091,B3,446.25,0.25,37,70.6
3092,F#5,446.5,0.25,61,70.6
3093,F#3,446.5,0.25,39,70.6
3094,G#5,446.75,0.25,64,70.6
3095,E3,446.75,0.25,42,70.6
3096,A5,447.0,0.25,74,70.6
3097,E-3,447.0,0.25,49,70.6
3098,B5,447.25,0.25,59,70.6
3099,B3,447.25,0.25,40,70.6
3100,A5,447.5,0.25,62,70.6
3101,E-3,447.5,0.25,39,70.6
3102,G#5,447.75,0.25,69,70.6
3103,E3,447.75,0.25,43,70.6
3104,F#5,448.0,0.25,74,70.6
3105,F#3,448.0,0.25,49,70.6
3106,B5,448.25,0.25,59,70.6
3107,B3,448.25,0.25,37,70.6
3108,F#5,448.5,0.25,61,70.6
3109,F#3,448.5,0.25,39,70.6
3110,E5,448.75,0.25,64,70.6
3111,G#3,448.75,0.25,42,70.6
3112,E-5,449.0,0.25,66,70.6
3113,A3,449.0,0.25,44,70.6
3114,B5,449.25,0.25,52,70.6
3115,B3,449.25,0.25,35,70.6
3116,E-5,449.5,0.25,53,70.6
3117,A3,449.5,0.25,33,70.6
3118,E5,449.75,0.25,58,70.6
3119,G#3,449.75,0.25,36,70.6
3120,F#5,450.0,0.25,61,70.6
3121,F#3,450.0,0.25,40,70.6
3122,B5,450.25,0.25,47,70.6
3123,B3,450.25,0.25,29,70.6
3124,F#5,450.5,0.25,48,70.6
3125,F#3,450.5,0.25,30,70.6
3126,G#5,450.75,0.25,49,70.6
3127,E3,450.75,0.25,32,70.6
3128,A5,451.0,0.25,55,70.6
3129,E-3,451.0,0.25,36,70.6
3130,B5,451.25,0.25,43,70.6
3131,B3,451.25,0.25,29,70.6
3132,A5,451.5,0.25,44,70.6
3133,E-3,451.5,0.25,28,70.6
3134,G#5,451.75,0.25,48,70.6
3135,E3,451.75,0.25,30,70.6
3136,F#5,452.0,0.25,50,70.6
3137,F#3,452.0,0.25,33,70.6
3138,B5,452.25,0.25,38,70.6
3139,B3,452.25,0.25,24,70.6
3140,F#5,452.5,0.25,39,70.6
3141,F#3,452.5,0.25,24,70.6
3142,E5,452.75,0.25,39,70.6
3143,G#3,452.75,0.25,26,70.6
3144,E-5,453.0,0.25,44,70.6
3145,A3,453.0,0.25,29,70.6
3146,B5,453.25,0.25,35,70.6
3147,B3,453.25,0.25,24,70.6
3148,E-5,453.5,0.25,37,70.6
3149,A3,453.5,0.25,23,70.6
3150,E5,453.75,0.25,41,70.6
3151,G#3,453.75,0.25,25,70.6
3152,F#5,454.0,0.25,44,70.6
3153,F#3,454.0,0.25,29,70.6
3154,B5,454.25,0.25,35,70.6
3155,B3,454.25,0.25,22,70.6
3156,F#5,454.5,0.25,36,70.6
3157,F#3,454.5,0.25,23,70.6
3158,G#5,454.75,0.25,38,70.6
3159,E3,454.75,0.25,25,70.6
3160,A5,455.0,0.25,44,70.6
3161,E-3,455.0,0.25,29,70.6
3162,B5,455.25,0.25,35,70.6
3163,B3,455.25,0.25,24,70.6
3164,A5,455.5,0.25,37,70.6
3165,E-3,455.5,0.25,23,70.6
3166,G#5,455.75,0.25,41,70.6
3167,E3,455.75,0.25,25,70.6
3168,F#5,456.0,0.25,44,70.6
3169,F#3,456.0,0.25,29,70.6
3170,B5,456.25,0.25,35,70.6
3171,B3,456.25,0.25,22,70.6
3172,F#5,456.5,0.25,36,70.6
3173,F#3,456.5,0.25,23,70.6
3174,E5,456.75,0.25,38,70.6
3175,G#3,456.75,0.25,25,70.6
3176,E-5,457.0,0.25,44,70.6
3177,A3,457.0,0.25,29,70.6
3178,E5,457.25,0.25,35,70.6
3179,G#3,457.25,0.25,24,70.6
3180,E-5,457.5,0.25,37,70.6
3181,A3,457.5,0.25,23,70.6
3182,C#5,457.75,0.25,41,70.6
3183,B-3,457.75,0.25,25,70.6
3184,B4,458.0,0.25,44,70.6
3185,B3,458.0,0.25,29,70.6
3186,C#5,458.25,0.25,35,70.6
3187,B-3,458.25,0.25,24,70.6
3188,E-4,458.5,0.25,35,70.6
3189,A3,458.5,0.25,24,70.6
3190,E4,458.75,0.25,35,70.6
3191,G#3,458.75,0.25,24,70.6
3192,F#4,459.0,0.25,35,70.6
3193,F#3,459.0,0.25,27,70.6
3194,A4,459.25,0.25,32,70.6
3195,E-3,459.25,0.25,24,70.6
3196,B2,459.25,0.25,24,70.6
3197,G#4,459.5,0.25,32,70.6
3198,E3,459.5,0.25,24,70.6
3199,C#3,459.5,0.25,24,70.6
3200,F#4,459.75,0.25,32,70.6
3201,F#3,459.75,0.25,24,70.6
3202,E-3,459.75,0.25,24,70.6
3203,G#4,460.0,0.25,34,70.6
3204,G#3,460.0,1.0,40,70.6
3205,E3,460.0,0.5,24,70.6
3206,B4,460.25,0.25,26,70.6
3207,B3,460.5,0.25,31,70.6
3208,B4,460.75,0.25,26,70.6
3209,G#4,461.0,0.25,30,70.6
3210,B3,461.0,0.5,36,70.6
3211,B4,461.25,0.25,27,70.6
3212,F#4,461.5,0.25,28,70.6
3213,A3,461.5,0.5,34,70.6
3214,B4,461.75,0.25,27,70.6
3215,E4,462.0,0.25,34,70.6
3216,G#3,462.0,0.5,32,70.6
3217,B2,462.0,0.5,32,70.6
3218,B4,462.25,0.25,26,70.6
3219,E-4,462.5,0.25,27,70.6
3220,F#3,462.5,0.438,32,70.6
3221,B4,462.75,0.188,25,70.6
3222,E-4,463.0,0.25,27,70.6
3223,F#3,463.0,0.5,32,70.6
3224,B4,463.25,0.25,26,70.6
3225,F4,463.5,0.25,28,70.6
3226,G#3,463.5,0.5,34,70.6
3227,B4,463.75,0.25,28,70.6
3228,F#4,464.0,0.25,30,70.6
3229,A3,464.0,0.5,30,70.6
3230,B2,464.0,0.5,30,70.6
3231,B4,464.25,0.25,28,70.6
3232,A4,464.5,0.25,36,70.6
3233,C#4,464.5,0.5,43,70.6
3234,B4,464.75,0.25,31,70.6
3235,G#4,465.0,0.25,37,70.6
3236,B3,465.0,0.5,30,70.6
3237,B2,465.0,0.5,30,70.6
3238,B4,465.25,0.229,26,70.6
3239,B4,465.5,0.25,25,70.6
3240,F#3,465.5,0.5,25,70.6
3241,A2,465.5,0.5,25,70.6
3242,E-5,465.75,0.25,27,70.6
3243,B4,466.0,0.25,36,70.6
3244,G#2,466.0,0.5,22,70.6
3245,G#3,466.0,0.5,22,70.6
3246,E5,466.25,0.25,30,70.6
3247,B4,466.5,0.25,38,70.6
3248,F#5,466.75,0.25,30,70.6
3249,B4,467.0,0.25,45,70.6
3250,G5,467.25,0.25,33,70.6
3251,B4,467.5,0.25,49,70.6
3252,G#5,467.75,0.25,40,70.6
3253,B4,468.0,0.25,34,70.6
3254,G#5,468.0,1.0,57,70.6
3255,E3,468.0,0.25,30,70.6
3256,E5,468.25,0.25,26,70.6
3257,E4,468.25,0.25,23,70.6
3258,B4,468.5,0.25,31,70.6
3259,E3,468.5,0.25,27,70.6
3260,E5,468.75,0.25,26,70.6
3261,E4,468.75,0.25,23,70.6
3262,E5,469.0,0.25,30,70.6
3263,B5,469.0,0.5,52,70.6
3264,C#3,469.0,0.25,27,70.6
3265,A4,469.25,0.25,27,70.6
3266,C#4,469.25,0.25,24,70.6
3267,C#5,469.5,0.25,28,70.6
3268,A5,469.5,0.5,49,70.6
3269,A2,469.5,0.25,25,70.6
3270,E5,469.75,0.25,27,70.6
3271,A3,469.75,0.25,24,70.6
3272,E5,470.0,0.25,34,70.6
3273,G#5,470.0,0.5,57,70.6
3274,B2,470.0,0.25,30,70.6
3275,B4,470.25,0.25,26,70.6
3276,B3,470.25,0.25,23,70.6
3277,E-5,470.5,0.25,27,70.6
3278,F#5,470.5,0.438,47,70.6
3279,B2,470.5,0.25,24,70.6
3280,B4,470.75,0.25,25,70.6
3281,B3,470.75,0.25,22,70.6
3282,E-5,471.0,0.25,27,70.6
3283,F#5,471.0,0.5,47,70.6
3284,A3,471.0,0.25,24,70.6
3285,B4,471.25,0.25,26,70.6
3286,A4,471.25,0.25,23,70.6
3287,E5,471.5,0.25,28,70.6
3288,G#5,471.5,0.5,49,70.6
3289,G#3,471.5,0.25,25,70.6
3290,B4,471.75,0.25,28,70.6
3291,G#4,471.75,0.25,25,70.6
3292,F#5,472.0,0.25,33,70.6
3293,A5,472.0,0.5,57,70.6
3294,F#3,472.0,0.25,29,70.6
3295,B4,472.25,0.25,42,70.6
3296,F#4,472.25,0.25,28,70.6
3297,C#6,472.5,0.5,56,70.6
3298,G#5,472.5,0.25,56,70.6
3299,E3,472.5,0.25,37,70.6
3300,B4,472.75,0.25,49,70.6
3301,E4,472.75,0.25,31,70.6
3302,F#5,473.0,0.25,66,70.6
3303,B5,473.0,0.5,66,70.6
3304,E-3,473.0,0.25,48,70.6
3305,B4,473.25,0.25,55,70.6
3306,E-4,473.25,0.25,40,70.6
3307,B2,473.5,0.25,22,70.6
3308,A5,473.5,0.25,29,70.6
3309,F#5,473.5,0.25,29,70.6
3310,E-6,473.5,0.25,29,70.6
3311,B3,473.75,0.25,20,70.6
3312,E6,474.0,0.188,40,70.6
3313,G#5,474.0,0.188,40,70.6
3314,E5,474.0,0.188,40,70.6
3315,E3,474.0,1.0,28,70.6
3316,E4,474.0,1.0,28,70.6
3317,E5,474.25,0.25,36,70.6
3318,B4,474.5,0.25,40,70.6
3319,G#4,474.75,0.25,36,70.6
3320,B4,475.0,0.25,41,70.6
3321,G#4,475.25,0.25,36,70.6
3322,F#4,475.5,0.25,40,70.6
3323,E-3,475.5,0.5,42,70.6
3324,B3,475.5,0.5,42,70.6
3325,E-5,475.75,0.25,36,70.6
3326,F#4,476.0,0.25,47,70.6
3327,C#3,476.0,1.0,42,70.6
3328,B-3,476.0,1.0,42,70.6
3329,E5,476.25,0.25,36,70.6
3330,C#5,476.5,0.25,38,70.6
3331,F#4,476.75,0.188,34,70.6
3332,F#4,477.0,0.25,38,70.6
3333,B-3,477.0,1.0,47,70.6
3334,E4,477.0,1.0,47,70.6
3335,F#5,477.25,0.25,31,70.6
3336,C#5,477.5,0.25,36,70.6
3337,F#4,477.75,0.188,34,70.6
3338,F#4,478.0,0.25,38,70.6
3339,B3,478.0,1.0,42,70.6
3340,E-4,478.0,1.0,42,70.6
3341,E-5,478.25,0.25,30,70.6
3342,B4,478.5,0.25,37,70.6
3343,F#4,478.75,0.25,34,70.6
3344,E-4,479.0,0.25,46,70.6
3345,B2,479.0,0.5,38,70.6
3346,B3,479.0,0.5,38,70.6
3347,B4,479.25,0.25,37,70.6
3348,E4,479.5,0.25,46,70.6
3349,C#3,479.5,0.5,38,70.6
3350,A3,479.5,0.5,38,70.6
3351,A4,479.75,0.25,40,70.6
3352,E4,480.0,0.25,38,70.6
3353,D3,480.0,1.0,42,70.6
3354,G#3,480.0,1.0,42,70.6
3355,B4,480.25,0.25,36,70.6
3356,G#4,480.5,0.25,42,70.6
3357,E4,480.75,0.188,36,70.6
3358,E4,481.0,0.25,48,70.6
3359,G#3,481.0,1.0,45,70.6
3360,D4,481.0,1.0,45,70.6
3361,E5,481.25,0.25,39,70.6
3362,B4,481.5,0.25,45,70.6
3363,E4,481.75,0.188,36,70.6
3364,E4,482.0,0.25,44,70.6
3365,A3,482.0,1.5,42,70.6
3366,C#4,482.0,1.5,42,70.6
3367,E5,482.25,0.25,34,70.6
3368,C#5,482.5,0.25,38,70.6
3369,A4,482.75,0.25,34,70.6
3370,E4,483.0,0.25,38,70.6
3371,E5,483.25,0.25,36,70.6
3372,E4,483.5,0.25,41,70.6
3373,A3,483.5,0.5,40,70.6
3374,C#4,483.5,0.5,40,70.6
3375,E5,483.75,0.25,48,70.6
3376,E4,484.0,0.25,48,70.6
3377,C4,484.0,0.5,54,70.6
3378,G#3,484.0,0.5,54,70.6
3379,E5,484.25,0.25,42,70.6
3380,E4,484.5,0.25,53,70.6
3381,C#4,484.5,0.5,51,70.6
3382,A3,484.5,0.5,51,70.6
3383,E5,484.75,0.25,43,70.6
3384,E4,485.0,0.25,54,70.6
3385,C#3,485.0,0.375,60,70.6
3386,A3,485.0,0.375,60,70.6
3387,E5,485.25,0.25,50,70.6
3388,E4,485.5,0.25,60,70.6
3389,B2,485.5,0.375,58,70.6
3390,G#3,485.5,0.375,58,70.6
3391,E5,485.75,0.25,53,70.6
3392,E4,486.0,0.25,67,70.6
3393,G#3,486.0,0.5,68,70.6
3394,E5,486.25,0.25,59,70.6
3395,E4,486.5,0.25,66,70.6
3396,F#3,486.5,1.0,64,70.6
3397,B-2,486.5,1.0,64,70.6
3398,E5,486.75,0.25,52,70.6
3399,E4,487.0,0.25,60,70.6
3400,E5,487.25,0.25,46,70.6
3401,E4,487.5,0.25,59,70.6
3402,B-2,487.5,0.5,52,70.6
3403,F#3,487.5,0.5,52,70.6
3404,E5,487.75,0.25,47,70.6
3405,E-4,488.0,0.25,38,70.6
3406,F#3,488.0,0.5,41,70.6
3407,B2,488.0,2.0,34,70.6
3408,E-5,488.25,0.25,34,70.6
3409,B4,488.5,0.25,38,70.6
3410,B3,488.5,0.5,32,70.6
3411,F#4,488.75,0.188,36,70.6
3412,F#4,489.0,0.25,38,70.6
3413,B-3,489.0,0.5,38,70.6
3414,F#5,489.25,0.25,34,70.6
3415,E-5,489.5,0.25,38,70.6
3416,B3,489.5,0.5,34,70.6
3417,A4,489.75,0.25,35,70.6
3418,G#4,490.0,1.0,51,70.6
3419,E3,490.0,0.25,31,70.6
3420,B3,490.25,0.25,23,70.6
3421,G#3,490.5,0.25,31,70.6
3422,E3,490.75,0.25,25,70.6
3423,E-3,491.0,0.25,31,70.6
3424,B3,491.25,0.25,27,70.6
3425,F#3,491.5,0.25,31,70.6
3426,B5,491.5,0.5,47,70.6
3427,B4,491.5,0.5,47,70.6
3428,E-3,491.75,0.25,32,70.6
3429,C#3,492.0,0.25,38,70.6
3430,B-5,492.0,1.0,51,70.6
3431,B-4,492.0,1.0,51,70.6
3432,B-3,492.25,0.25,29,70.6
3433,F#3,492.5,0.25,31,70.6
3434,C#3,492.75,0.25,27,70.6
3435,F#2,493.0,0.25,31,70.6
3436,E6,493.0,1.0,56,70.6
3437,E5,493.0,1.0,56,70.6
3438,B-3,493.25,0.25,26,70.6
3439,F#3,493.5,0.25,29,70.6
3440,C#3,493.75,0.25,27,70.6
3441,B2,494.0,0.25,31,70.6
3442,E-6,494.0,1.5,51,70.6
3443,E-5,494.0,1.5,51,70.6
3444,B3,494.25,0.25,25,70.6
3445,F#3,494.5,0.25,30,70.6
3446,E-3,494.75,0.25,27,70.6
3447,B2,495.0,0.25,37,70.6
3448,B3,495.25,0.25,30,70.6
3449,C#3,495.5,0.25,37,70.6
3450,A5,495.5,0.5,45,70.6
3451,A4,495.5,0.5,45,70.6
3452,A3,495.75,0.25,33,70.6
3453,B2,496.0,0.25,31,70.6
3454,G#5,496.0,1.0,51,70.6
3455,G#4,496.0,1.0,51,70.6
3456,G#3,496.25,0.25,29,70.6
3457,E3,496.5,0.25,34,70.6
3458,B2,496.75,0.25,29,70.6
3459,E2,497.0,0.25,39,70.6
3460,D6,497.0,1.0,54,70.6
3461,D5,497.0,1.0,54,70.6
3462,G#3,497.25,0.25,32,70.6
3463,E3,497.5,0.25,36,70.6
3464,B2,497.75,0.25,29,70.6
3465,A2,498.0,0.25,35,70.6
3466,C#6,498.0,1.5,51,70.6
3467,C#5,498.0,1.5,51,70.6
3468,A3,498.25,0.25,27,70.6
3469,E3,498.5,0.25,31,70.6
3470,C#3,498.75,0.25,27,70.6
3471,A2,499.0,0.25,31,70.6
3472,E3,499.25,0.25,29,70.6
3473,A2,499.5,0.25,34,70.6
3474,C#6,499.5,0.5,48,70.6
3475,C#5,499.5,0.5,48,70.6
3476,E3,499.75,0.25,38,70.6
3477,G#2,500.0,0.25,38,70.6
3478,C6,500.0,0.5,56,70.6
3479,C5,500.0,0.5,56,70.6
3480,E3,500.25,0.25,34,70.6
3481,A2,500.5,0.25,38,70.6
3482,C#6,500.5,0.5,57,70.6
3483,C#5,500.5,0.5,57,70.6
3484,E3,500.75,0.25,35,70.6
3485,A5,501.0,0.375,55,70.6
3486,A4,501.0,0.375,55,70.6
3487,A2,501.0,0.25,40,70.6
3488,C#3,501.0,0.25,40,70.6
3489,E3,501.25,0.25,35,70.6
3490,G#5,501.5,0.375,54,70.6
3491,G#4,501.5,0.375,54,70.6
3492,B2,501.5,0.25,40,70.6
3493,E3,501.5,0.25,40,70.6
3494,G#3,501.75,0.25,36,70.6
3495,G#5,502.0,0.5,70,70.6
3496,G#4,502.0,0.5,70,70.6
3497,E3,502.0,0.25,50,70.6
3498,C#3,502.0,0.25,50,70.6
3499,B-3,502.25,0.25,47,70.6
3500,F#5,502.5,0.99,61,70.6
3501,F#4,502.5,0.99,61,70.6
3502,E3,502.5,0.25,48,70.6
3503,C#3,502.5,0.25,48,70.6
3504,B-3,502.75,0.25,42,70.6
3505,E3,503.0,0.25,44,70.6
3506,C3,503.0,0.25,44,70.6
3507,A3,503.25,0.25,37,70.6
3508,F#5,503.5,0.475,65,70.6
3509,F#4,503.5,0.475,65,70.6
3510,C3,503.5,0.25,44,70.6
3511,E3,503.5,0.25,44,70.6
3512,A3,503.75,0.25,38,70.6
3513,B2,504.0,0.25,31,70.6
3514,F#5,504.0,0.5,49,70.6
3515,F#4,504.0,0.5,49,70.6
3516,E-3,504.25,0.25,23,70.6
3517,F#3,504.25,0.25,23,70.6
3518,A3,504.25,0.25,23,70.6
3519,B2,504.5,0.25,31,70.6
3520,B5,504.5,0.5,38,70.6
3521,B4,504.5,0.5,38,70.6
3522,E-3,504.75,0.25,25,70.6
3523,F#3,504.75,0.25,25,70.6
3524,A3,504.75,0.25,25,70.6
3525,B2,505.0,0.25,31,70.6
3526,B-5,505.0,0.5,46,70.6
3527,B-4,505.0,0.5,46,70.6
3528,E-3,505.25,0.25,23,70.6
3529,F#3,505.25,0.25,23,70.6
3530,A3,505.25,0.25,23,70.6
3531,B2,505.5,0.25,31,70.6
3532,B5,505.5,0.5,40,70.6
3533,B4,505.5,0.5,40,70.6
3534,E-3,505.75,0.25,24,70.6
3535,F#3,505.75,0.25,24,70.6
3536,A3,505.75,0.25,24,70.6
3537,B2,506.0,0.25,31,70.6
3538,E5,506.0,0.5,49,70.6
3539,E4,506.0,0.5,49,70.6
3540,E3,506.25,0.25,24,70.6
3541,G#3,506.25,0.25,24,70.6
3542,B2,506.5,0.25,31,70.6
3543,B5,506.5,0.5,38,70.6
3544,B4,506.5,0.5,38,70.6
3545,E3,506.75,0.25,26,70.6
3546,G#3,506.75,0.25,26,70.6
3547,B2,507.0,0.25,31,70.6
3548,B-5,507.0,0.5,46,70.6
3549,B-4,507.0,0.5,46,70.6
3550,E3,507.25,0.25,24,70.6
3551,G#3,507.25,0.25,24,70.6
3552,B2,507.5,0.25,31,70.6
3553,B5,507.5,0.5,40,70.6
3554,B4,507.5,0.5,40,70.6
3555,E3,507.75,0.25,25,70.6
3556,G#3,507.75,0.25,25,70.6
3557,F#3,508.0,2.0,46,70.6
3558,B2,508.0,2.0,46,70.6
3559,E-5,508.25,0.25,33,70.6
3560,B5,508.5,0.25,38,70.6
3561,B3,508.5,0.5,34,70.6
3562,A5,508.75,0.25,34,70.6
3563,F#5,509.0,0.25,39,70.6
3564,B-3,509.0,0.5,43,70.6
3565,E-5,509.25,0.25,32,70.6
3566,B4,509.5,0.25,37,70.6
3567,B3,509.5,0.5,35,70.6
3568,A4,509.75,0.25,32,70.6
3569,E3,510.0,2.0,46,70.6
3570,B2,510.0,2.0,46,70.6
3571,G#4,510.25,0.25,33,70.6
3572,B5,510.5,0.25,38,70.6
3573,B3,510.5,0.5,34,70.6
3574,G#5,510.75,0.25,34,70.6
3575,E5,511.0,0.25,39,70.6
3576,B-3,511.0,0.5,43,70.6
3577,B4,511.25,0.25,32,70.6
3578,A4,511.5,0.25,37,70.6
3579,B3,511.5,0.5,35,70.6
3580,G#4,511.75,0.25,32,70.6
3581,B2,512.0,0.25,37,70.6
3582,F#5,512.0,0.5,58,70.6
3583,F#4,512.0,0.5,58,70.6
3584,E-3,512.25,0.25,27,70.6
3585,F#3,512.25,0.25,27,70.6
3586,A3,512.25,0.25,27,70.6
3587,B2,512.5,0.25,37,70.6
3588,B5,512.5,0.5,46,70.6
3589,B4,512.5,0.5,46,70.6
3590,E-3,512.75,0.25,30,70.6
3591,F#3,512.75,0.25,30,70.6
3592,A3,512.75,0.25,30,70.6
3593,B2,513.0,0.25,39,70.6
3594,B-5,513.0,0.5,58,70.6
3595,B-4,513.0,0.5,58,70.6
3596,E-3,513.25,0.25,30,70.6
3597,F#3,513.25,0.25,30,70.6
3598,A3,513.25,0.25,30,70.6
3599,B2,513.5,0.25,40,70.6
3600,B5,513.5,0.5,51,70.6
3601,B4,513.5,0.5,51,70.6
3602,E-3,513.75,0.25,31,70.6
3603,F#3,513.75,0.25,31,70.6
3604,A3,513.75,0.25,31,70.6
3605,B2,514.0,0.25,48,70.6
3606,F4,514.0,0.5,70,70.6
3607,F5,514.0,0.5,70,70.6
3608,D3,514.25,0.25,35,70.6
3609,F3,514.25,0.25,35,70.6
3610,G#3,514.25,0.25,35,70.6
3611,B2,514.5,0.25,48,70.6
3612,D5,514.5,0.5,64,70.6
3613,D6,514.5,0.5,64,70.6
3614,D3,514.75,0.25,40,70.6
3615,F3,514.75,0.25,40,70.6
3616,G#3,514.75,0.25,40,70.6
3617,B2,515.0,0.25,50,70.6
3618,C#5,515.0,0.5,74,70.6
3619,C#6,515.0,0.5,74,70.6
3620,D3,515.25,0.25,38,70.6
3621,F3,515.25,0.25,38,70.6
3622,G#3,515.25,0.25,38,70.6
3623,B2,515.5,0.25,51,70.6
3624,D5,515.5,0.5,69,70.6
3625,D6,515.5,0.5,69,70.6
3626,D3,515.75,0.25,41,70.6
3627,F3,515.75,0.25,41,70.6
3628,G#3,515.75,0.25,41,70.6
3629,C#6,516.0,0.5,79,70.6
3630,A2,516.0,0.25,51,70.6
3631,F#3,516.25,0.25,38,70.6
3632,C#3,516.25,0.25,38,70.6
3633,F#5,516.5,0.5,67,70.6
3634,A2,516.5,0.25,49,70.6
3635,C#3,516.75,0.25,38,70.6
3636,F#3,516.75,0.25,38,70.6
3637,A5,517.0,0.5,77,70.6
3638,A2,517.0,0.25,52,70.6
3639,F#3,517.25,0.25,39,70.6
3640,C#3,517.25,0.25,39,70.6
3641,C#5,517.5,0.5,68,70.6
3642,A2,517.5,0.25,49,70.6
3643,C#3,517.75,0.25,42,70.6
3644,F#3,517.75,0.25,42,70.6
3645,F#5,518.0,0.5,59,70.6
3646,B-2,518.0,0.25,43,70.6
3647,F#3,518.25,0.25,31,70.6
3648,E3,518.25,0.25,31,70.6
3649,C#3,518.25,0.25,31,70.6
3650,C#5,518.5,0.5,54,70.6
3651,B-2,518.5,0.25,40,70.6
3652,F#3,518.75,0.25,30,70.6
3653,E3,518.75,0.25,30,70.6
3654,C#3,518.75,0.25,30,70.6
3655,E5,519.0,0.5,59,70.6
3656,B-2,519.0,0.25,43,70.6
3657,F#3,519.25,0.25,30,70.6
3658,E3,519.25,0.25,30,70.6
3659,C#3,519.25,0.25,30,70.6
3660,F#4,519.5,0.5,45,70.6
3661,B-2,519.5,0.25,39,70.6
3662,F#3,519.75,0.25,30,70.6
3663,E3,519.75,0.25,30,70.6
3664,C#3,519.75,0.25,30,70.6
3665,B4,520.0,0.5,51,70.6
3666,B2,520.0,0.25,38,70.6
3667,E3,520.25,0.25,28,70.6
3668,G#3,520.25,0.25,28,70.6
3669,G#4,520.5,0.5,38,70.6
3670,B2,520.5,0.25,35,70.6
3671,G#3,520.75,0.25,24,70.6
3672,E3,520.75,0.25,24,70.6
3673,B4,521.0,0.5,47,70.6
3674,B2,521.0,0.25,32,70.6
3675,E3,521.25,0.25,23,70.6
3676,G#3,521.25,0.25,23,70.6
3677,E4,521.5,0.5,30,70.6
3678,B2,521.5,0.25,32,70.6
3679,G#3,521.75,0.25,23,70.6
3680,E3,521.75,0.25,23,70.6
3681,E-4,522.0,0.5,42,70.6
3682,B2,522.0,0.25,32,70.6
3683,F#3,522.25,0.25,25,70.6
3684,B4,522.5,0.5,34,70.6
3685,B2,522.5,0.25,32,70.6
3686,E-3,522.75,0.25,26,70.6
3687,B2,523.0,0.25,32,70.6
3688,F#4,523.0,0.5,38,70.6
3689,E-4,523.0,0.5,38,70.6
3690,B3,523.25,0.25,26,70.6
3691,B2,523.5,0.25,32,70.6
3692,B4,523.5,0.5,31,70.6
3693,E-4,523.5,0.5,31,70.6
3694,B3,523.75,0.229,27,70.6
3695,B3,524.0,1.0,50,70.6
3696,D4,524.25,0.25,49,70.6
3697,G#4,524.5,0.25,57,70.6
3698,F4,524.75,0.25,50,70.6
3699,A3,525.0,1.0,56,70.6
3700,C#4,525.25,0.25,53,70.6
3701,A4,525.5,0.25,60,70.6
3702,F#4,525.75,0.25,55,70.6
3703,G#3,526.0,1.0,64,70.6
3704,B3,526.0,1.0,64,70.6
3705,B4,526.25,0.25,65,70.6
3706,B5,526.5,0.25,71,70.6
3707,G#5,526.75,0.25,67,70.6
3708,F#3,527.0,1.0,70,70.6
3709,A3,527.0,1.0,70,70.6
3710,C#5,527.25,0.25,70,70.6
3711,C#6,527.5,0.25,81,70.6
3712,A5,527.75,0.25,76,70.6
3713,G#3,528.0,0.5,80,70.6
3714,F3,528.0,0.5,80,70.6
3715,D5,528.25,0.25,91,70.6
3716,D6,528.5,0.25,97,70.6
3717,B5,528.75,0.25,89,70.6
3718,G#3,529.0,0.5,81,70.6
3719,F3,529.0,0.5,81,70.6
3720,C#5,529.25,0.25,89,70.6
3721,C#6,529.5,0.25,98,70.6
3722,B5,529.75,0.25,91,70.6
3723,C#4,531.5,0.25,45,70.6
3724,E-4,531.75,0.25,41,70.6
3725,E4,532.0,0.5,47,70.6
3726,B-3,532.0,2.0,40,70.6
3727,G4,532.5,0.5,50,70.6
3728,F#4,533.0,0.5,46,70.6
3729,C#4,533.5,0.5,46,70.6
3730,F#5,534.0,0.5,48,70.6
3731,E-4,534.0,2.5,48,70.6
3732,B3,534.0,7.479,40,70.6
3733,C#6,534.5,0.5,55,70.6
3734,B5,535.0,0.5,49,70.6
3735,F#5,535.5,0.5,48,70.6
3736,A5,536.0,2.5,50,70.6
3737,F#4,536.5,0.5,40,70.6
3738,E4,537.0,0.5,43,70.6
3739,C#4,537.5,0.5,40,70.6
3740,E4,538.0,2.5,42,70.6
3741,A5,538.5,0.5,48,70.6
3742,G#5,539.0,0.5,47,70.6
3743,E5,539.5,0.5,43,70.6
3744,G#5,540.0,2.5,50,70.6
3745,E4,540.5,0.5,38,70.6
3746,E-4,541.0,0.5,41,70.6
3747,B3,541.5,0.5,39,70.6
3748,E-4,542.0,0.5,41,70.6
3749,B-3,542.5,0.5,32,70.6
3750,E5,542.5,0.5,37,70.6
3751,G#5,542.5,0.5,37,70.6
3752,B3,543.0,0.5,36,70.6
3753,F#5,543.0,0.5,38,70.6
3754,E-5,543.0,0.5,38,70.6
3755,E-4,543.5,0.5,32,70.6
3756,B4,543.5,0.5,37,70.6
3757,E-5,543.5,0.5,37,70.6
3758,B3,544.0,0.475,38,70.6
3759,E-5,544.0,0.475,44,70.6
3760,F#5,544.0,0.475,44,70.6
3761,G#3,544.5,0.5,30,70.6
3762,C5,544.5,0.5,37,70.6
3763,F#5,544.5,0.5,37,70.6
3764,A3,545.0,0.5,34,70.6
3765,E5,545.0,0.5,38,70.6
3766,C#5,545.0,0.5,38,70.6
3767,C#4,545.5,0.5,31,70.6
3768,A4,545.5,0.5,36,70.6
3769,C#5,545.5,0.5,36,70.6
3770,A3,546.0,0.475,38,70.6
3771,C#5,546.0,0.475,44,70.6
3772,E5,546.0,0.475,44,70.6
3773,G3,546.5,0.5,31,70.6
3774,B-4,546.5,0.5,37,70.6
3775,E5,546.5,0.5,37,70.6
3776,E-5,547.0,0.5,42,70.6
3777,B4,547.0,0.5,42,70.6
3778,B2,547.0,0.5,35,70.6
3779,G#3,547.0,0.5,35,70.6
3780,B3,547.5,0.5,32,70.6
3781,G#4,547.5,0.5,38,70.6
3782,B4,547.5,0.5,38,70.6
3783,G#3,548.0,0.475,36,70.6
3784,B4,548.0,0.475,44,70.6
3785,D5,548.0,0.475,44,70.6
3786,F3,548.5,0.5,30,70.6
3787,G#4,548.5,0.5,35,70.6
3788,D5,548.5,0.5,35,70.6
3789,C#5,549.0,0.5,40,70.6
3790,A4,549.0,0.5,40,70.6
3791,B2,549.0,0.5,33,70.6
3792,F#3,549.0,0.5,33,70.6
3793,A3,549.5,0.5,33,70.6
3794,B2,549.5,1.0,28,70.6
3795,E-4,549.5,0.5,36,70.6
3796,C5,549.5,0.5,36,70.6
3797,G#3,550.0,0.5,49,70.6
3798,B4,550.0,0.5,52,70.6
3799,E4,550.0,0.5,52,70.6
3800,B2,550.5,1.0,39,70.6
3801,E3,550.5,0.5,46,70.6
3802,C#4,550.5,0.5,49,70.6
3803,B4,550.5,0.5,49,70.6
3804,F#3,551.0,0.25,52,70.6
3805,A4,551.0,0.25,55,70.6
3806,E-4,551.0,0.25,55,70.6
3807,F#4,551.25,0.25,53,70.6
3808,A3,551.25,0.25,50,70.6
3809,E4,551.5,0.25,42,70.6
3810,G#3,551.5,0.25,45,70.6
3811,B2,551.5,0.5,37,70.6
3812,F#4,551.75,0.25,38,70.6
3813,F#3,551.75,0.25,40,70.6
3814,G#4,552.0,1.0,45,70.6
3815,E4,552.0,0.25,45,70.6
3816,E2,552.0,0.5,28,70.6
3817,E3,552.0,0.5,28,70.6
3818,B3,552.25,0.25,26,70.6
3819,E4,552.5,0.25,31,70.6
3820,B3,552.75,0.25,26,70.6
3821,G#4,553.0,0.25,30,70.6
3822,B4,553.0,0.5,46,70.6
3823,B3,553.25,0.25,27,70.6
3824,F#4,553.5,0.25,28,70.6
3825,A4,553.5,0.5,43,70.6
3826,B3,553.75,0.25,27,70.6
3827,E4,554.0,0.25,34,70.6
3828,G#4,554.0,0.5,50,70.6
3829,B1,554.0,0.5,28,70.6
3830,B2,554.0,0.5,28,70.6
3831,B3,554.25,0.25,26,70.6
3832,E-4,554.5,0.25,27,70.6
3833,F#4,554.5,0.438,41,70.6
3834,B3,554.75,0.188,25,70.6
3835,E-4,555.0,0.25,27,70.6
3836,F#4,555.0,0.5,41,70.6
3837,B3,555.25,0.25,26,70.6
3838,E4,555.5,0.25,28,70.6
3839,G#4,555.5,0.5,43,70.6
3840,B3,555.75,0.25,28,70.6
3841,E4,556.0,0.25,30,70.6
3842,A4,556.0,0.5,46,70.6
3843,C#2,556.0,0.5,28,70.6
3844,C#3,556.0,0.5,28,70.6
3845,B3,556.25,0.25,28,70.6
3846,E4,556.5,0.25,36,70.6
3847,C#5,556.5,0.5,54,70.6
3848,B3,556.75,0.25,31,70.6
3849,F#4,557.0,0.25,37,70.6
3850,B4,557.0,0.5,47,70.6
3851,E-3,557.0,0.5,26,70.6
3852,E-2,557.0,0.5,26,70.6
3853,B3,557.25,0.25,26,70.6
3854,E-4,557.5,0.25,25,70.6
3855,F#4,557.5,0.5,38,70.6
3856,B2,557.5,0.5,24,70.6
3857,B1,557.5,0.5,24,70.6
3858,B3,557.75,0.25,27,70.6
3859,B3,558.0,0.229,30,70.6
3860,G#4,558.0,1.0,42,70.6
3861,E2,558.0,1.0,28,70.6
3862,E3,558.0,1.0,28,70.6
3863,B3,558.25,0.25,28,70.6
3864,E4,558.5,0.25,36,70.6
3865,B3,558.75,0.25,31,70.6
3866,E4,559.0,0.25,37,70.6
3867,B3,559.25,0.25,31,70.6
3868,E4,559.5,0.25,28,70.6
3869,G#4,559.5,0.5,43,70.6
3870,B2,559.5,0.5,26,70.6
3871,B3,559.75,0.25,28,70.6
3872,E4,560.0,0.25,30,70.6
3873,A4,560.0,0.5,46,70.6
3874,C#3,560.0,1.0,30,70.6
3875,B3,560.25,0.25,28,70.6
3876,E4,560.5,0.25,36,70.6
3877,C#5,560.5,0.5,54,70.6
3878,B3,560.75,0.25,31,70.6
3879,F#4,561.0,0.25,37,70.6
3880,B4,561.0,0.5,47,70.6
3881,E-3,561.0,0.5,28,70.6
3882,B3,561.25,0.25,26,70.6
3883,E-4,561.5,0.25,25,70.6
3884,F#4,561.5,0.5,38,70.6
3885,A3,561.5,0.5,24,70.6
3886,B2,561.5,0.5,24,70.6
3887,B3,561.75,0.25,27,70.6
3888,B3,562.0,1.0,37,70.6
3889,E4,562.0,1.0,37,70.6
3890,G#4,562.0,1.0,37,70.6
3891,E3,562.0,0.25,30,70.6
3892,G#3,562.0,0.25,30,70.6
3893,B2,562.25,0.25,27,70.6
3894,E3,562.5,0.25,30,70.6
3895,G#3,562.5,0.25,30,70.6
3896,B2,562.75,0.25,30,70.6
3897,G#3,563.0,0.25,28,70.6
3898,E3,563.0,0.25,28,70.6
3899,B2,563.25,0.25,26,70.6
3900,G#4,563.5,0.5,45,70.6
3901,G#5,563.5,0.5,45,70.6
3902,G#3,563.5,0.25,28,70.6
3903,F3,563.5,0.25,28,70.6
3904,B2,563.75,0.25,26,70.6
3905,A4,564.0,0.5,47,70.6
3906,A5,564.0,0.5,47,70.6
3907,F#3,564.0,0.25,30,70.6
3908,A3,564.0,0.25,30,70.6
3909,B2,564.25,0.25,26,70.6
3910,C#5,564.5,0.5,48,70.6
3911,C#6,564.5,0.5,48,70.6
3912,A3,564.5,0.25,30,70.6
3913,C#4,564.5,0.25,30,70.6
3914,B2,564.75,0.25,27,70.6
3915,B4,565.0,0.5,43,70.6
3916,B5,565.0,0.5,43,70.6
3917,B3,565.0,0.25,28,70.6
3918,G#3,565.0,0.25,28,70.6
3919,B2,565.25,0.25,26,70.6
3920,E-6,565.5,0.5,40,70.6
3921,E-5,565.5,0.5,40,70.6
3922,A3,565.5,0.25,26,70.6
3923,F#3,565.5,0.25,26,70.6
3924,B2,565.75,0.25,27,70.6
3925,E6,566.0,1.0,46,70.6
3926,E5,566.0,1.0,46,70.6
3927,E3,566.0,0.5,28,70.6
3928,G#3,566.0,0.5,28,70.6
3929,F#2,566.5,0.5,31,70.6
3930,E2,567.0,0.5,34,70.6
3931,C#3,567.5,0.5,37,70.6
3932,B2,568.0,1.5,34,70.6
3933,A3,568.5,0.5,40,70.6
3934,G#3,569.0,0.5,39,70.6
3935,G#4,569.5,0.5,31,70.6
3936,E4,569.5,0.5,45,70.6
3937,C#3,569.5,0.25,45,70.6
3938,B2,569.75,0.25,49,70.6
3939,F#4,570.0,0.5,31,70.6
3940,E4,570.0,0.5,52,70.6
3941,B-2,570.0,1.0,52,70.6
3942,F#5,570.5,0.5,37,70.6
3943,E5,570.5,0.5,37,70.6
3944,C#5,570.5,0.5,37,70.6
3945,C#5,571.0,1.0,38,70.6
3946,E5,571.0,0.5,45,70.6
3947,B-3,571.0,1.0,42,70.6
3948,E4,571.0,1.0,42,70.6
3949,F#4,571.0,1.0,42,70.6
3950,C#6,571.5,0.5,50,70.6
3951,C#6,572.0,0.25,45,70.6
3952,B3,572.0,0.5,24,70.6
3953,E4,572.0,0.5,24,70.6
3954,G#4,572.0,0.5,24,70.6
3955,B5,572.25,0.25,37,70.6
3956,G#5,572.5,0.25,38,70.6
3957,E5,572.75,0.25,38,70.6
3958,E-5,573.0,0.25,39,70.6
3959,F#4,573.0,0.5,25,70.6
3960,B3,573.0,0.5,25,70.6
3961,C#5,573.25,0.25,39,70.6
3962,B4,573.5,0.25,39,70.6
3963,A4,573.75,0.25,40,70.6
3964,G#4,574.0,0.25,43,70.6
3965,E4,574.0,0.5,26,70.6
3966,C#4,574.0,0.5,26,70.6
3967,F#4,574.25,0.25,40,70.6
3968,E4,574.5,0.188,36,70.6
3969,E5,574.75,0.25,49,70.6
3970,E-5,575.0,0.25,46,70.6
3971,C#4,575.0,0.5,28,70.6
3972,A3,575.0,0.5,28,70.6
3973,C#5,575.25,0.188,45,70.6
3974,C#6,575.5,0.25,55,70.6
3975,B5,575.75,0.25,52,70.6
3976,A5,576.0,0.25,50,70.6
3977,F#3,576.0,0.5,28,70.6
3978,A3,576.0,0.5,28,70.6
3979,G#5,576.25,0.188,49,70.6
3980,A6,576.5,0.25,59,70.6
3981,G#6,576.75,0.188,56,70.6
3982,G#6,577.0,0.25,57,70.6
3983,E-3,577.0,0.5,29,70.6
3984,F#3,577.0,0.5,29,70.6
3985,F#6,577.25,0.25,55,70.6
3986,A6,577.5,0.25,58,70.6
3987,F#6,577.75,0.25,56,70.6
3988,E6,578.0,0.25,55,70.6
3989,E-4,578.0,0.5,30,70.6
3990,B3,578.0,0.5,30,70.6
3991,E-6,578.25,0.25,56,70.6
3992,F#6,578.5,0.25,63,70.6
3993,A5,578.75,0.188,54,70.6
3994,A5,579.0,0.25,50,70.6
3995,E4,579.0,0.5,28,70.6
3996,C#4,579.0,0.5,28,70.6
3997,G#5,579.25,0.25,47,70.6
3998,E6,579.5,0.25,50,70.6
3999,E4,579.5,0.5,28,70.6
4000,C#4,579.5,0.5,28,70.6
4001,G#5,579.75,0.25,46,70.6
4002,F#5,580.0,0.25,40,70.6
4003,A3,580.0,0.5,28,70.6
4004,C#6,580.25,0.25,37,70.6
4005,B5,580.5,0.25,40,70.6
4006,B3,580.5,0.5,24,70.6
4007,E-5,580.75,0.25,36,70.6
4008,E5,581.0,0.5,40,70.6
4009,E3,581.0,0.5,27,70.6
,note_name,start_time,duration,velocity,tempo
0,E5,1.0,0.25,36,69.18
1,E-5,1.25,0.25,33,69.18
2,E5,1.5,0.25,39,69.18
3,E-5,1.75,0.25,36,69.18
4,E5,2.0,0.25,45,69.18
5,B4,2.25,0.25,40,69.18
6,D5,2.5,0.25,47,69.18
7,C5,2.75,0.25,39,69.18
8,A4,3.0,0.5,51,69.18
9,A2,3.0,0.25,37,69.18
10,E3,3.25,0.25,33,69.18
11,A3,3.5,0.25,33,69.18
12,C4,3.75,0.25,34,69.18
13,E4,4.0,0.25,38,69.18
14,A4,4.25,0.25,42,69.18
15,B4,4.5,0.5,46,69.18
16,E2,4.5,0.25,40,69.18
17,E3,4.75,0.25,33,69.18
18,G#3,5.0,0.25,34,69.18
19,E4,5.25,0.25,36,69.18
20,G#4,5.5,0.25,39,69.18
21,B4,5.75,0.25,42,69.18
22,C5,6.0,0.5,45,69.18
23,A2,6.0,0.25,38,69.18
24,E3,6.25,0.25,35,69.18
25,A3,6.5,0.25,35,69.18
26,E4,6.75,0.25,35,69.18
27,E5,7.0,0.25,38,69.18
28,E-5,7.25,0.25,34,69.18
29,E5,7.5,0.25,41,69.18
30,E-5,7.75,0.25,37,69.18
31,E5,8.0,0.25,46,69.18
32,B4,8.25,0.25,39,69.18
33,D5,8.5,0.25,48,69.18
34,C5,8.75,0.25,39,69.18
35,A4,9.0,0.5,48,69.18
36,A2,9.0,0.25,36,69.18
37,E3,9.25,0.25,35,69.18
38,A3,9.5,0.25,34,69.18
39,C4,9.75,0.25,34,69.18
40,E4,10.0,0.25,37,69.18
41,A4,10.25,0.25,41,69.18
42,B4,10.5,0.5,45,69.18
43,E2,10.5,0.25,38,69.18
44,E3,10.75,0.25,35,69.18
45,G#3,11.0,0.25,36,69.18
46,E4,11.25,0.25,37,69.18
47,C5,11.5,0.25,40,69.18
48,B4,11.75,0.25,38,69.18
49,A4,12.0,0.5,40,69.18
50,A2,12.0,0.25,38,69.18
51,E3,12.25,0.25,32,69.18
52,A3,12.5,0.25,32,69.18
53,E5,13.0,0.25,36,69.18
54,E-5,13.25,0.25,33,69.18
55,E5,13.5,0.25,39,69.18
56,E-5,13.75,0.25,36,69.18
57,E5,14.0,0.25,45,69.18
58,B4,14.25,0.25,40,69.18
59,D5,14.5,0.25,47,69.18
60,C5,14.75,0.25,39,69.18
61,A4,15.0,0.5,51,69.18
62,A2,15.0,0.25,37,69.18
63,E3,15.25,0.25,33,69.18
64,A3,15.5,0.25,33,69.18
65,C4,15.75,0.25,34,69.18
66,E4,16.0,0.25,38,69.18
67,A4,16.25,0.25,42,69.18
68,B4,16.5,0.5,46,69.18
69,E2,16.5,0.25,40,69.18
70,E3,16.75,0.25,33,69.18
71,G#3,17.0,0.25,34,69.18
72,E4,17.25,0.25,36,69.18
73,G#4,17.5,0.25,39,69.18
74,B4,17.75,0.25,42,69.18
75,C5,18.0,0.5,45,69.18
76,A2,18.0,0.25,38,69.18
77,E3,18.25,0.25,35,69.18
78,A3,18.5,0.25,35,69.18
79,E4,18.75,0.25,35,69.18
80,E5,19.0,0.25,38,69.18
81,E-5,19.25,0.25,34,69.18
82,E5,19.5,0.25,41,69.18
83,E-5,19.75,0.25,37,69.18
84,E5,20.0,0.25,46,69.18
85,B4,20.25,0.25,39,69.18
86,D5,20.5,0.25,48,69.18
87,C5,20.75,0.25,39,69.18
88,A4,21.0,0.5,48,69.18
89,A2,21.0,0.25,38,69.18
90,E3,21.25,0.25,35,69.18
91,A3,21.5,0.25,34,69.18
92,C4,21.75,0.25,34,69.18
93,E4,22.0,0.25,37,69.18
94,A4,22.25,0.25,41,69.18
95,B4,22.5,0.5,45,69.18
96,E2,22.5,0.25,38,69.18
97,E3,22.75,0.25,37,69.18
98,G#3,23.0,0.25,37,69.18
99,E4,23.25,0.25,37,69.18
100,C5,23.5,0.25,40,69.18
101,B4,23.75,0.25,38,69.18
102,A4,24.0,0.5,40,69.18
103,A2,24.0,0.25,38,69.18
104,E3,24.25,0.25,32,69.18
105,A3,24.5,0.25,32,69.18
106,B4,24.75,0.25,42,69.18
107,C5,25.0,0.25,45,69.18
108,D5,25.25,0.25,48,69.18
109,E5,25.5,0.75,51,69.18
110,C3,25.5,0.25,44,69.18
111,G3,25.75,0.25,38,69.18
112,C4,26.0,0.25,39,69.18
113,G4,26.25,0.25,40,69.18
114,F5,26.5,0.25,46,69.18
115,E5,26.75,0.25,43,69.18
116,D5,27.0,0.75,50,69.18
117,G2,27.0,0.25,44,69.18
118,G3,27.25,0.25,38,69.18
119,B3,27.5,0.25,39,69.18
120,F4,27.75,0.25,40,69.18
121,E5,28.0,0.25,46,69.18
122,D5,28.25,0.25,43,69.18
123,C5,28.5,0.75,50,69.18
124,A2,28.5,0.25,44,69.18
125,E3,28.75,0.25,38,69.18
126,A3,29.0,0.25,39,69.18
127,E4,29.25,0.25,40,69.18
128,D5,29.5,0.25,46,69.18
129,C5,29.75,0.25,43,69.18
130,B4,30.0,0.5,50,69.18
131,E2,30.0,0.25,44,69.18
132,E3,30.25,0.25,38,69.18
133,E4,30.5,0.188,39,69.18
134,E4,30.75,0.25,39,69.18
135,E5,31.0,0.188,45,69.18
136,E4,31.25,0.25,39,69.18
137,E5,31.5,0.188,44,69.18
138,E5,31.75,0.25,43,69.18
139,E6,32.0,0.188,48,69.18
140,E-5,32.25,0.25,42,69.18
141,E5,32.5,0.188,50,69.18
142,E-5,32.75,0.25,42,69.18
143,E5,33.0,0.188,48,69.18
144,E-5,33.25,0.25,39,69.18
145,E5,33.5,0.188,41,69.18
146,E-5,33.75,0.25,35,69.18
147,E5,34.0,0.25,37,69.18
148,E-5,34.25,0.25,34,69.18
149,E5,34.5,0.25,40,69.18
150,E-5,34.75,0.25,36,69.18
151,E5,35.0,0.25,40,69.18
152,B4,35.25,0.25,35,69.18
153,D5,35.5,0.25,42,69.18
154,C5,35.75,0.25,37,69.18
155,A4,36.0,0.5,45,69.18
156,A2,36.0,0.25,36,69.18
157,E3,36.25,0.25,33,69.18
158,A3,36.5,0.25,33,69.18
159,C4,36.75,0.25,34,69.18
160,E4,37.0,0.25,38,69.18
161,A4,37.25,0.25,42,69.18
162,B4,37.5,0.5,46,69.18
163,E2,37.5,0.25,40,69.18
164,E3,37.75,0.25,33,69.18
165,G#3,38.0,0.25,34,69.18
166,E4,38.25,0.25,36,69.18
167,G#4,38.5,0.25,39,69.18
168,B4,38.75,0.25,42,69.18
169,C5,39.0,0.5,45,69.18
170,A2,39.0,0.25,38,69.18
171,E3,39.25,0.25,35,69.18
172,A3,39.5,0.25,35,69.18
173,E4,39.75,0.25,35,69.18
174,E5,40.0,0.25,38,69.18
175,E-5,40.25,0.25,34,69.18
176,E5,40.5,0.25,41,69.18
177,E-5,40.75,0.25,37,69.18
178,E5,41.0,0.25,46,69.18
179,B4,41.25,0.25,39,69.18
180,D5,41.5,0.25,48,69.18
181,C5,41.75,0.25,39,69.18
182,A4,42.0,0.5,46,69.18
183,A2,42.0,0.25,38,69.18
184,E3,42.25,0.25,35,69.18
185,A3,42.5,0.25,34,69.18
186,C4,42.75,0.25,34,69.18
187,E4,43.0,0.25,37,69.18
188,A4,43.25,0.25,41,69.18
189,B4,43.5,0.5,45,69.18
190,E2,43.5,0.25,38,69.18
191,E3,43.75,0.25,37,69.18
192,G#3,44.0,0.25,37,69.18
193,E4,44.25,0.25,37,69.18
194,C5,44.5,0.25,40,69.18
195,B4,44.75,0.25,38,69.18
196,A4,45.0,0.5,40,69.18
197,A2,45.0,0.25,38,69.18
198,E3,45.25,0.25,32,69.18
199,A3,45.5,0.25,32,69.18
200,B4,45.75,0.25,43,69.18
201,C5,46.0,0.25,45,69.18
202,D5,46.25,0.25,47,69.18
203,E5,46.5,0.75,50,69.18
204,C3,46.5,0.25,44,69.18
205,G3,46.75,0.25,38,69.18
206,C4,47.0,0.25,39,69.18
207,G4,47.25,0.25,40,69.18
208,F5,47.5,0.25,46,69.18
209,E5,47.75,0.25,43,69.18
210,D5,48.0,0.75,50,69.18
211,G2,48.0,0.25,44,69.18
212,G3,48.25,0.25,38,69.18
213,B3,48.5,0.25,39,69.18
214,F4,48.75,0.25,40,69.18
215,E5,49.0,0.25,46,69.18
216,D5,49.25,0.25,43,69.18
217,C5,49.5,0.75,50,69.18
218,A2,49.5,0.25,44,69.18
219,E3,49.75,0.25,38,69.18
220,A3,50.0,0.25,39,69.18
221,E4,50.25,0.25,40,69.18
222,D5,50.5,0.25,46,69.18
223,C5,50.75,0.25,43,69.18
224,B4,51.0,0.5,50,69.18
225,E2,51.0,0.25,44,69.18
226,E3,51.25,0.25,38,69.18
227,E4,51.5,0.188,39,69.18
228,E4,51.75,0.25,39,69.18
229,E5,52.0,0.188,45,69.18
230,E4,52.25,0.25,39,69.18
231,E5,52.5,0.188,44,69.18
232,E5,52.75,0.25,43,69.18
233,E6,53.0,0.188,48,69.18
234,E-5,53.25,0.25,42,69.18
235,E5,53.5,0.188,50,69.18
236,E-5,53.75,0.25,42,69.18
237,E5,54.0,0.188,48,69.18
238,E-5,54.25,0.25,39,69.18
239,E5,54.5,0.188,41,69.18
240,E-5,54.75,0.25,35,69.18
241,E5,55.0,0.25,37,69.18
242,E-5,55.25,0.25,34,69.18
243,E5,55.5,0.25,39,69.18
244,E-5,55.75,0.25,36,69.18
245,E5,56.0,0.25,39,69.18
246,B4,56.25,0.25,35,69.18
247,D5,56.5,0.25,40,69.18
248,C5,56.75,0.25,33,69.18
249,A4,57.0,0.5,46,69.18
250,A2,57.0,0.25,34,69.18
251,E3,57.25,0.25,32,69.18
252,A3,57.5,0.25,32,69.18
253,C4,57.75,0.25,34,69.18
254,E4,58.0,0.25,38,69.18
255,A4,58.25,0.25,42,69.18
256,B4,58.5,0.5,46,69.18
257,E2,58.5,0.25,38,69.18
258,E3,58.75,0.25,33,69.18
259,G#3,59.0,0.25,34,69.18
260,E4,59.25,0.25,36,69.18
261,G#4,59.5,0.25,39,69.18
262,B4,59.75,0.25,42,69.18
263,C5,60.0,0.5,45,69.18
264,A2,60.0,0.25,38,69.18
265,E3,60.25,0.25,35,69.18
266,A3,60.5,0.25,35,69.18
267,E4,60.75,0.25,35,69.18
268,E5,61.0,0.25,38,69.18
269,E-5,61.25,0.25,34,69.18
270,E5,61.5,0.25,41,69.18
271,E-5,61.75,0.25,37,69.18
272,E5,62.0,0.25,46,69.18
273,B4,62.25,0.25,39,69.18
274,D5,62.5,0.25,48,69.18
275,C5,62.75,0.25,39,69.18
276,A4,63.0,0.5,48,69.18
277,A2,63.0,0.25,38,69.18
278,E3,63.25,0.25,35,69.18
279,A3,63.5,0.25,34,69.18
280,C4,63.75,0.25,34,69.18
281,E4,64.0,0.25,37,69.18
282,A4,64.25,0.25,41,69.18
283,B4,64.5,0.5,45,69.18
284,E2,64.5,0.25,38,69.18
285,E3,64.75,0.25,37,69.18
286,G#3,65.0,0.25,37,69.18
287,E4,65.25,0.25,37,69.18
288,C5,65.5,0.25,40,69.18
289,B4,65.75,0.25,38,69.18
290,A4,66.0,0.5,40,69.18
291,A2,66.0,0.25,38,69.18
292,E3,66.25,0.25,32,69.18
293,A3,66.5,0.25,32,69.18
294,E4,66.75,0.188,43,69.18
295,C5,66.75,0.188,43,69.18
296,B-3,66.75,0.188,34,69.18
297,C4,66.75,0.188,34,69.18
298,F4,67.0,0.188,44,69.18
299,C5,67.0,0.188,44,69.18
300,A3,67.0,0.188,34,69.18
301,C4,67.0,0.188,34,69.18
302,E4,67.25,0.125,45,69.18
303,G4,67.25,0.125,45,69.18
304,C5,67.25,0.125,45,69.18
305,G3,67.25,0.125,34,69.18
306,B-3,67.25,0.125,34,69.18
307,C4,67.25,0.125,34,69.18
308,F4,67.375,1.0,42,69.18
309,A4,67.375,1.0,42,69.18
310,C5,67.5,1.0,55,69.18
311,F3,67.5,0.25,44,69.18
312,A3,67.75,0.25,38,69.18
313,C4,68.0,0.25,36,69.18
314,A3,68.25,0.25,37,69.18
315,F5,68.5,0.375,57,69.18
316,C4,68.5,0.25,37,69.18
317,A3,68.75,0.25,37,69.18
318,E5,68.875,0.121,52,69.18
319,E5,69.0,0.5,57,69.18
320,F3,69.0,0.25,44,69.18
321,B-3,69.25,0.25,38,69.18
322,D5,69.5,0.5,51,69.18
323,D4,69.5,0.25,37,69.18
324,B-3,69.75,0.25,37,69.18
325,B-5,70.0,0.375,62,69.18
326,D4,70.0,0.25,37,69.18
327,B-3,70.25,0.25,38,69.18
328,A5,70.375,0.121,56,69.18
329,A5,70.5,0.25,56,69.18
330,F3,70.5,0.25,44,69.18
331,G5,70.75,0.25,56,69.18
332,E4,70.75,0.25,37,69.18
333,F5,71.0,0.25,55,69.18
334,F3,71.0,0.25,36,69.18
335,B-3,71.0,0.25,36,69.18
336,G3,71.0,0.25,36,69.18
337,E5,71.25,0.25,55,69.18
338,E4,71.25,0.25,36,69.18
339,D5,71.5,0.25,55,69.18
340,F3,71.5,0.25,36,69.18
341,G3,71.5,0.25,36,69.18
342,B-3,71.5,0.25,36,69.18
343,C5,71.75,0.25,54,69.18
344,E4,71.75,0.25,36,69.18
345,B-4,72.0,0.5,54,69.18
346,F3,72.0,0.25,44,69.18
347,A3,72.25,0.25,36,69.18
348,A4,72.5,0.438,51,69.18
349,C4,72.5,0.25,36,69.18
350,A3,72.75,0.25,36,69.18
351,B-4,72.938,0.062,44,69.18
352,A4,73.0,0.125,49,69.18
353,C4,73.0,0.25,36,69.18
354,G4,73.125,0.125,50,69.18
355,A4,73.25,0.125,51,69.18
356,A3,73.25,0.25,36,69.18
357,B-4,73.375,0.125,52,69.18
358,C5,73.5,1.0,54,69.18
359,F3,73.5,0.25,42,69.18
360,A3,73.75,0.25,34,69.18
361,C4,74.0,0.25,35,69.18
362,A3,74.25,0.25,36,69.18
363,D5,74.5,0.25,55,69.18
364,C4,74.5,0.25,38,69.18
365,E-5,74.75,0.25,57,69.18
366,A3,74.75,0.25,39,69.18
367,E5,75.0,0.75,59,69.18
368,E3,75.0,0.25,49,69.18
369,A3,75.25,0.25,38,69.18
370,C4,75.5,0.25,38,69.18
371,E5,75.75,0.25,58,69.18
372,A3,75.75,0.25,38,69.18
373,F5,76.0,0.25,63,69.18
374,D3,76.0,0.25,38,69.18
375,D4,76.0,0.25,38,69.18
376,A4,76.25,0.25,58,69.18
377,F3,76.25,0.25,38,69.18
378,C5,76.5,1.0,64,69.18
379,G3,76.5,0.25,47,69.18
380,E4,76.75,0.25,38,69.18
381,G3,77.0,0.25,40,69.18
382,E4,77.25,0.25,38,69.18
383,D5,77.5,0.375,64,69.18
384,G3,77.5,0.25,41,69.18
385,F4,77.75,0.25,38,69.18
386,B4,77.875,0.125,57,69.18
387,C5,78.0,0.125,64,69.18
388,C4,78.0,0.5,45,69.18
389,E4,78.0,0.5,45,69.18
390,G5,78.125,0.125,57,69.18
391,G4,78.25,0.125,64,69.18
392,G5,78.375,0.125,57,69.18
393,A4,78.5,0.125,64,69.18
394,G5,78.625,0.125,63,69.18
395,B4,78.75,0.125,66,69.18
396,F4,78.75,0.188,40,69.18
397,G4,78.75,0.188,40,69.18
398,G5,78.875,0.125,63,69.18
399,C5,79.0,0.125,68,69.18
400,E4,79.0,0.188,43,69.18
401,G4,79.0,0.188,43,69.18
402,G5,79.125,0.125,66,69.18
403,D5,79.25,0.125,70,69.18
404,D4,79.25,0.188,46,69.18
405,F4,79.25,0.188,46,69.18
406,G4,79.25,0.188,46,69.18
407,G5,79.375,0.125,65,69.18
408,E5,79.5,0.125,72,69.18
409,C4,79.5,0.5,49,69.18
410,E4,79.5,0.5,49,69.18
411,G4,79.5,0.5,49,69.18
412,G5,79.625,0.125,63,69.18
413,C6,79.75,0.125,67,69.18
414,B5,79.875,0.125,62,69.18
415,A5,80.0,0.125,67,69.18
416,F3,80.0,0.5,42,69.18
417,A3,80.0,0.5,42,69.18
418,G5,80.125,0.125,62,69.18
419,F5,80.25,0.125,67,69.18
420,E5,80.375,0.125,61,69.18
421,D5,80.5,0.125,69,69.18
422,G3,80.5,0.5,42,69.18
423,B3,80.5,0.5,42,69.18
424,G5,80.625,0.125,63,69.18
425,F5,80.75,0.125,69,69.18
426,D5,80.875,0.125,64,69.18
427,C5,81.0,0.125,64,69.18
428,C4,81.0,0.5,45,69.18
429,G5,81.125,0.125,57,69.18
430,G4,81.25,0.125,64,69.18
431,G5,81.375,0.125,57,69.18
432,A4,81.5,0.125,64,69.18
433,G5,81.625,0.125,63,69.18
434,B4,81.75,0.125,66,69.18
435,F4,81.75,0.188,40,69.18
436,G4,81.75,0.188,40,69.18
437,G5,81.875,0.125,63,69.18
438,C5,82.0,0.125,68,69.18
439,E4,82.0,0.188,43,69.18
440,G4,82.0,0.188,43,69.18
441,G5,82.125,0.125,66,69.18
442,D5,82.25,0.125,70,69.18
443,D4,82.25,0.188,46,69.18
444,F4,82.25,0.188,46,69.18
445,G4,82.25,0.188,46,69.18
446,G5,82.375,0.125,65,69.18
447,E5,82.5,0.125,72,69.18
448,C4,82.5,0.5,49,69.18
449,E4,82.5,0.5,49,69.18
450,G4,82.5,0.5,49,69.18
451,G5,82.625,0.125,65,69.18
452,C6,82.75,0.125,69,69.18
453,B5,82.875,0.125,64,69.18
454,A5,83.0,0.125,70,69.18
455,F3,83.0,0.5,42,69.18
456,A3,83.0,0.5,42,69.18
457,G5,83.125,0.125,60,69.18
458,F5,83.25,0.125,64,69.18
459,E5,83.375,0.125,55,69.18
460,D5,83.5,0.125,65,69.18
461,G3,83.5,0.5,42,69.18
462,B3,83.5,0.5,42,69.18
463,G5,83.625,0.125,57,69.18
464,F5,83.75,0.125,63,69.18
465,D5,83.875,0.125,53,69.18
466,E5,84.0,0.125,57,69.18
467,B3,84.0,0.5,42,69.18
468,G#3,84.0,0.5,42,69.18
469,F5,84.125,0.125,50,69.18
470,E5,84.25,0.125,50,69.18
471,E-5,84.375,0.125,50,69.18
472,E5,84.5,0.125,57,69.18
473,B4,84.625,0.125,49,69.18
474,E5,84.75,0.125,54,69.18
475,E-5,84.875,0.125,52,69.18
476,E5,85.0,0.125,57,69.18
477,B4,85.125,0.125,51,69.18
478,E5,85.25,0.125,54,69.18
479,E-5,85.375,0.125,49,69.18
480,E5,85.5,0.75,57,69.18
481,B4,86.25,0.25,52,69.18
482,E5,86.5,0.25,57,69.18
483,E-5,86.75,0.25,49,69.18
484,E5,87.0,0.75,56,69.18
485,B4,87.75,0.25,42,69.18
486,E5,88.0,0.188,50,69.18
487,E-5,88.25,0.25,42,69.18
488,E5,88.5,0.188,48,69.18
489,E-5,88.75,0.25,39,69.18
490,E5,89.0,0.188,41,69.18
491,E-5,89.25,0.25,35,69.18
492,E5,89.5,0.188,37,69.18
493,E-5,89.75,0.25,34,69.18
494,E5,90.0,0.25,40,69.18
495,E-5,90.25,0.25,36,69.18
496,E5,90.5,0.25,40,69.18
497,B4,90.75,0.25,36,69.18
498,D5,91.0,0.25,43,69.18
499,C5,91.25,0.25,35,69.18
500,A4,91.5,0.5,45,69.18
501,A2,91.5,0.25,35,69.18
502,E3,91.75,0.25,31,69.18
503,A3,92.0,0.25,31,69.18
504,C4,92.25,0.25,34,69.18
505,E4,92.5,0.25,38,69.18
506,A4,92.75,0.25,42,69.18
507,B4,93.0,0.5,46,69.18
508,E2,93.0,0.25,40,69.18
509,E3,93.25,0.25,33,69.18
510,G#3,93.5,0.25,34,69.18
511,E4,93.75,0.25,36,69.18
512,G#4,94.0,0.25,39,69.18
513,B4,94.25,0.25,42,69.18
514,C5,94.5,0.5,45,69.18
515,A2,94.5,0.25,38,69.18
516,E3,94.75,0.25,35,69.18
517,A3,95.0,0.25,35,69.18
518,E4,95.25,0.25,35,69.18
519,E5,95.5,0.25,38,69.18
520,E-5,95.75,0.25,34,69.18
521,E5,96.0,0.25,41,69.18
522,E-5,96.25,0.25,37,69.18
523,E5,96.5,0.25,46,69.18
524,B4,96.75,0.25,39,69.18
525,D5,97.0,0.25,48,69.18
526,C5,97.25,0.25,39,69.18
527,A4,97.5,0.5,48,69.18
528,A2,97.5,0.25,38,69.18
529,E3,97.75,0.25,35,69.18
530,A3,98.0,0.25,34,69.18
531,C4,98.25,0.25,34,69.18
532,E4,98.5,0.25,37,69.18
533,A4,98.75,0.25,41,69.18
534,B4,99.0,0.5,45,69.18
535,E2,99.0,0.25,38,69.18
536,E3,99.25,0.25,37,69.18
537,G#3,99.5,0.25,37,69.18
538,E4,99.75,0.25,37,69.18
539,C5,100.0,0.25,40,69.18
540,B4,100.25,0.25,38,69.18
541,A4,100.5,0.5,40,69.18
542,A2,100.5,0.25,38,69.18
543,E3,100.75,0.25,32,69.18
544,A3,101.0,0.25,32,69.18
545,B4,101.25,0.25,44,69.18
546,C5,101.5,0.25,46,69.18
547,D5,101.75,0.25,48,69.18
548,E5,102.0,0.75,52,69.18
549,C3,102.0,0.25,44,69.18
550,G3,102.25,0.25,38,69.18
551,C4,102.5,0.25,39,69.18
552,G4,102.75,0.25,40,69.18
553,F5,103.0,0.25,46,69.18
554,E5,103.25,0.25,43,69.18
555,D5,103.5,0.75,50,69.18
556,G2,103.5,0.25,44,69.18
557,G3,103.75,0.25,38,69.18
558,B3,104.0,0.25,39,69.18
559,F4,104.25,0.25,40,69.18
560,E5,104.5,0.25,46,69.18
561,D5,104.75,0.25,43,69.18
562,C5,105.0,0.75,50,69.18
563,A2,105.0,0.25,44,69.18
564,E3,105.25,0.25,38,69.18
565,A3,105.5,0.25,39,69.18
566,E4,105.75,0.25,40,69.18
567,D5,106.0,0.25,46,69.18
568,C5,106.25,0.25,43,69.18
569,B4,106.5,0.5,50,69.18
570,E2,106.5,0.25,44,69.18
571,E3,106.75,0.25,38,69.18
572,E4,107.0,0.188,39,69.18
573,E4,107.25,0.25,39,69.18
574,E5,107.5,0.188,45,69.18
575,E4,107.75,0.25,39,69.18
576,E5,108.0,0.188,44,69.18
577,E5,108.25,0.25,43,69.18
578,E6,108.5,0.188,48,69.18
579,E-5,108.75,0.25,42,69.18
580,E5,109.0,0.188,50,69.18
581,E-5,109.25,0.25,42,69.18
582,E5,109.5,0.188,48,69.18
583,E-5,109.75,0.25,39,69.18
584,E5,110.0,0.188,41,69.18
585,E-5,110.25,0.25,35,69.18
586,E5,110.5,0.25,37,69.18
587,E-5,110.75,0.25,34,69.18
588,E5,111.0,0.25,40,69.18
589,E-5,111.25,0.25,36,69.18
590,E5,111.5,0.25,43,69.18
591,B4,111.75,0.25,38,69.18
592,D5,112.0,0.25,44,69.18
593,C5,112.25,0.25,38,69.18
594,A4,112.5,0.5,47,69.18
595,A2,112.5,0.25,35,69.18
596,E3,112.75,0.25,33,69.18
597,A3,113.0,0.25,33,69.18
598,C4,113.25,0.25,34,69.18
599,E4,113.5,0.25,38,69.18
600,A4,113.75,0.25,42,69.18
601,B4,114.0,0.5,46,69.18
602,E2,114.0,0.25,37,69.18
603,E3,114.25,0.25,33,69.18
604,G#3,114.5,0.25,34,69.18
605,E4,114.75,0.25,36,69.18
606,G#4,115.0,0.25,39,69.18
607,B4,115.25,0.25,42,69.18
608,C5,115.5,0.5,45,69.18
609,A2,115.5,0.25,38,69.18
610,E3,115.75,0.25,33,69.18
611,A3,116.0,0.25,33,69.18
612,E4,116.25,0.25,35,69.18
613,E5,116.5,0.25,38,69.18
614,E-5,116.75,0.25,34,69.18
615,E5,117.0,0.25,41,69.18
616,E-5,117.25,0.25,37,69.18
617,E5,117.5,0.25,41,69.18
618,B4,117.75,0.25,34,69.18
619,D5,118.0,0.25,45,69.18
620,C5,118.25,0.25,36,69.18
621,A4,118.5,0.5,46,69.18
622,A2,118.5,0.25,36,69.18
623,E3,118.75,0.25,35,69.18
624,A3,119.0,0.25,34,69.18
625,C4,119.25,0.25,34,69.18
626,E4,119.5,0.25,37,69.18
627,A4,119.75,0.25,41,69.18
628,B4,120.0,0.5,45,69.18
629,E2,120.0,0.25,38,69.18
630,E3,120.25,0.25,37,69.18
631,G#3,120.5,0.25,37,69.18
632,E4,120.75,0.25,37,69.18
633,C5,121.0,0.25,40,69.18
634,B4,121.25,0.25,38,69.18
635,A4,121.5,0.5,40,69.18
636,A2,121.5,0.188,38,69.18
637,A2,121.75,0.188,35,69.18
638,A2,122.0,0.188,38,69.18
639,A2,122.25,0.188,34,69.18
640,A2,122.5,0.188,38,69.18
641,A2,122.75,0.188,35,69.18
642,A2,123.0,0.188,44,69.18
643,E4,123.0,1.5,47,69.18
644,G4,123.0,1.5,47,69.18
645,B-4,123.0,1.5,47,69.18
646,C#5,123.0,1.5,47,69.18
647,A2,123.25,0.188,38,69.18
648,A2,123.5,0.188,45,69.18
649,A2,123.75,0.188,39,69.18
650,A2,124.0,0.188,46,69.18
651,A2,124.25,0.188,40,69.18
652,A2,124.5,0.188,47,69.18
653,F4,124.5,1.0,52,69.18
654,A4,124.5,1.0,52,69.18
655,D5,124.5,1.0,52,69.18
656,A2,124.75,0.188,42,69.18
657,A2,125.0,0.188,48,69.18
658,A2,125.25,0.188,43,69.18
659,A2,125.5,0.188,50,69.18
660,C#5,125.5,0.188,59,69.18
661,E5,125.5,0.188,59,69.18
662,A2,125.75,0.188,47,69.18
663,D5,125.75,0.188,64,69.18
664,F5,125.75,0.188,64,69.18
665,A2,126.0,0.188,53,69.18
666,G#4,126.0,1.0,69,69.18
667,D5,126.0,1.0,69,69.18
668,F5,126.0,1.0,69,69.18
669,A2,126.25,0.188,48,69.18
670,A2,126.5,0.188,53,69.18
671,A2,126.75,0.188,50,69.18
672,A2,127.0,0.188,54,69.18
673,G#4,127.0,0.5,67,69.18
674,D5,127.0,0.5,67,69.18
675,F5,127.0,0.5,67,69.18
676,A2,127.25,0.188,50,69.18
677,A2,127.5,0.188,55,69.18
678,A4,127.5,1.5,64,69.18
679,C5,127.5,1.5,64,69.18
680,E5,127.5,1.5,64,69.18
681,A2,127.75,0.188,49,69.18
682,A2,128.0,0.188,55,69.18
683,A2,128.25,0.188,51,69.18
684,A2,128.5,0.188,55,69.18
685,A2,128.75,0.188,52,69.18
686,F4,129.0,1.0,76,69.18
687,D5,129.0,1.0,76,69.18
688,D2,129.0,0.188,55,69.18
689,A2,129.0,0.188,55,69.18
690,D2,129.25,0.188,50,69.18
691,A2,129.25,0.188,50,69.18
692,D2,129.5,0.188,54,69.18
693,A2,129.5,0.188,54,69.18
694,D2,129.75,0.188,50,69.18
695,A2,129.75,0.188,50,69.18
696,E4,130.0,0.188,67,69.18
697,C5,130.0,0.188,67,69.18
698,D2,130.0,0.188,52,69.18
699,A2,130.0,0.188,52,69.18
700,D4,130.25,0.188,67,69.18
701,B4,130.25,0.188,67,69.18
702,D2,130.25,0.188,48,69.18
703,A2,130.25,0.188,48,69.18
704,C4,130.5,1.0,71,69.18
705,F#4,130.5,1.0,71,69.18
706,A4,130.5,1.0,71,69.18
707,E-2,130.5,0.188,50,69.18
708,A2,130.5,0.188,50,69.18
709,E-2,130.75,0.188,46,69.18
710,A2,130.75,0.188,46,69.18
711,E-2,131.0,0.188,49,69.18
712,A2,131.0,0.188,49,69.18
713,E-2,131.25,0.188,45,69.18
714,A2,131.25,0.188,45,69.18
715,C4,131.5,0.5,72,69.18
716,A4,131.5,0.5,72,69.18
717,E-2,131.5,0.188,46,69.18
718,A2,131.5,0.188,46,69.18
719,E-2,131.75,0.188,46,69.18
720,A2,131.75,0.188,46,69.18
721,C4,132.0,0.5,74,69.18
722,A4,132.0,0.5,74,69.18
723,E2,132.0,0.188,52,69.18
724,A2,132.0,0.188,52,69.18
725,E2,132.25,0.188,45,69.18
726,A2,132.25,0.188,45,69.18
727,E4,132.5,0.5,72,69.18
728,C5,132.5,0.5,72,69.18
729,E2,132.5,0.188,48,69.18
730,A2,132.5,0.188,48,69.18
731,E2,132.75,0.188,45,69.18
732,A2,132.75,0.188,45,69.18
733,D4,133.0,0.5,67,69.18
734,B4,133.0,0.5,67,69.18
735,G#2,133.0,0.188,46,69.18
736,E2,133.0,0.188,46,69.18
737,G#2,133.25,0.188,46,69.18
738,E2,133.25,0.188,46,69.18
739,C4,133.5,1.5,62,69.18
740,A4,133.5,1.5,62,69.18
741,A1,133.5,0.188,46,69.18
742,A2,133.5,0.188,46,69.18
743,A2,133.75,0.188,42,69.18
744,A2,134.0,0.188,45,69.18
745,A2,134.25,0.188,42,69.18
746,A2,134.5,0.188,44,69.18
747,A2,134.75,0.188,42,69.18
748,A2,135.0,0.188,44,69.18
749,E4,135.0,1.5,47,69.18
750,G4,135.0,1.5,47,69.18
751,B-4,135.0,1.5,47,69.18
752,C#5,135.0,1.5,47,69.18
753,A2,135.25,0.188,38,69.18
754,A2,135.5,0.188,45,69.18
755,A2,135.75,0.188,39,69.18
756,A2,136.0,0.188,46,69.18
757,A2,136.25,0.188,40,69.18
758,A2,136.5,0.188,47,69.18
759,F4,136.5,1.0,52,69.18
760,A4,136.5,1.0,52,69.18
761,D5,136.5,1.0,52,69.18
762,A2,136.75,0.188,42,69.18
763,A2,137.0,0.188,48,69.18
764,A2,137.25,0.188,43,69.18
765,A2,137.5,0.188,50,69.18
766,C#5,137.5,0.188,59,69.18
767,E5,137.5,0.188,59,69.18
768,A2,137.75,0.188,47,69.18
769,D5,137.75,0.188,64,69.18
770,F5,137.75,0.188,64,69.18
771,A2,138.0,0.188,53,69.18
772,D5,138.0,1.0,71,69.18
773,F5,138.0,1.0,71,69.18
774,A2,138.25,0.188,48,69.18
775,A2,138.5,0.188,53,69.18
776,A2,138.75,0.188,50,69.18
777,A2,139.0,0.188,54,69.18
778,D5,139.0,0.5,69,69.18
779,F5,139.0,0.5,69,69.18
780,A2,139.25,0.188,50,69.18
781,B-2,139.5,0.188,55,69.18
782,D5,139.5,1.5,66,69.18
783,F5,139.5,1.5,66,69.18
784,B-2,139.75,0.188,49,69.18
785,B-2,140.0,0.188,55,69.18
786,B-2,140.25,0.188,51,69.18
787,B-2,140.5,0.188,55,69.18
788,B-2,140.75,0.188,52,69.18
789,B-2,141.0,0.188,60,69.18
790,G4,141.0,1.0,76,69.18
791,E-5,141.0,1.0,76,69.18
792,B-2,141.25,0.188,55,69.18
793,B-2,141.5,0.188,58,69.18
794,B-2,141.75,0.188,55,69.18
795,B-2,142.0,0.188,57,69.18
796,F4,142.0,0.188,67,69.18
797,D5,142.0,0.188,67,69.18
798,B-2,142.25,0.188,52,69.18
799,E-4,142.25,0.188,67,69.18
800,C5,142.25,0.188,67,69.18
801,B-2,142.5,0.188,55,69.18
802,D4,142.5,1.0,71,69.18
803,F4,142.5,1.0,71,69.18
804,B-4,142.5,1.0,71,69.18
805,B-2,142.75,0.188,50,69.18
806,B-2,143.0,0.188,53,69.18
807,B-2,143.25,0.188,49,69.18
808,B-2,143.5,0.188,51,69.18
809,F4,143.5,0.5,70,69.18
810,D4,143.5,0.5,70,69.18
811,A4,143.5,0.5,70,69.18
812,B-2,143.75,0.188,50,69.18
813,B2,144.0,0.188,56,69.18
814,F4,144.0,1.0,72,69.18
815,D4,144.0,1.0,72,69.18
816,G#4,144.0,1.0,72,69.18
817,B2,144.25,0.188,49,69.18
818,B2,144.5,0.188,52,69.18
819,B2,144.75,0.188,49,69.18
820,B2,145.0,0.188,50,69.18
821,F4,145.0,0.5,65,69.18
822,D4,145.0,0.5,65,69.18
823,G#4,145.0,0.5,65,69.18
824,B2,145.25,0.188,50,69.18
825,C3,145.5,1.0,55,69.18
826,E4,145.5,1.0,65,69.18
827,C4,145.5,1.0,65,69.18
828,A4,145.5,1.0,65,69.18
829,E4,147.0,0.5,54,69.18
830,B4,147.0,0.5,54,69.18
831,E3,147.0,0.5,42,69.18
832,G#3,147.0,0.5,42,69.18
833,A3,148.5,0.167,42,69.18
834,A1,148.5,0.5,35,69.18
835,C4,148.667,0.167,44,69.18
836,E4,148.833,0.167,45,69.18
837,A4,149.0,0.167,47,69.18
838,C5,149.167,0.167,43,69.18
839,E5,149.333,0.167,43,69.18
840,D5,149.5,0.167,47,69.18
841,E4,149.5,0.5,29,69.18
842,C4,149.5,0.5,29,69.18
843,A3,149.5,0.5,29,69.18
844,C5,149.667,0.167,43,69.18
845,B4,149.833,0.167,43,69.18
846,A4,150.0,0.167,45,69.18
847,E4,150.0,0.5,30,69.18
848,C4,150.0,0.5,30,69.18
849,A3,150.0,0.5,30,69.18
850,C5,150.167,0.167,47,69.18
851,E5,150.333,0.167,48,69.18
852,A5,150.5,0.167,50,69.18
853,C6,150.667,0.167,47,69.18
854,E6,150.833,0.167,47,69.18
855,D6,151.0,0.167,52,69.18
856,E4,151.0,0.5,29,69.18
857,C4,151.0,0.5,29,69.18
858,A3,151.0,0.5,29,69.18
859,C6,151.167,0.167,47,69.18
860,B5,151.333,0.167,47,69.18
861,A5,151.5,0.167,49,69.18
862,E4,151.5,0.5,30,69.18
863,C4,151.5,0.5,30,69.18
864,A3,151.5,0.5,30,69.18
865,C6,151.667,0.167,51,69.18
866,E6,151.833,0.167,53,69.18
867,A6,152.0,0.167,53,69.18
868,C7,152.167,0.167,50,69.18
869,E7,152.333,0.167,50,69.18
870,D7,152.5,0.167,54,69.18
871,E4,152.5,0.5,29,69.18
872,C4,152.5,0.5,29,69.18
873,A3,152.5,0.5,29,69.18
874,C7,152.667,0.167,49,69.18
875,B6,152.833,0.167,50,69.18
876,B-6,153.0,0.167,54,69.18
877,E4,153.0,0.5,30,69.18
878,C4,153.0,0.5,30,69.18
879,A3,153.0,0.5,30,69.18
880,A6,153.167,0.167,50,69.18
881,G#6,153.333,0.167,49,69.18
882,G6,153.5,0.167,51,69.18
883,F#6,153.667,0.167,49,69.18
884,F6,153.833,0.167,48,69.18
885,E6,154.0,0.167,51,69.18
886,E-6,154.167,0.167,49,69.18
887,D6,154.333,0.167,50,69.18
888,C#6,154.5,0.167,50,69.18
889,C6,154.667,0.167,49,69.18
890,B5,154.833,0.167,49,69.18
891,B-5,155.0,0.167,48,69.18
892,A5,155.167,0.167,48,69.18
893,G#5,155.333,0.167,47,69.18
894,G5,155.5,0.167,47,69.18
895,F#5,155.667,0.167,46,69.18
896,F5,155.833,0.167,46,69.18
897,E5,156.0,0.25,39,69.18
898,E-5,156.25,0.25,36,69.18
899,E5,156.5,0.25,41,69.18
900,B4,156.75,0.25,35,69.18
901,D5,157.0,0.25,43,69.18
902,C5,157.25,0.25,39,69.18
903,A4,157.5,0.5,46,69.18
904,A2,157.5,0.25,37,69.18
905,E3,157.75,0.25,33,69.18
906,A3,158.0,0.25,33,69.18
907,C4,158.25,0.25,34,69.18
908,E4,158.5,0.25,38,69.18
909,A4,158.75,0.25,42,69.18
910,B4,159.0,0.5,46,69.18
911,E2,159.0,0.25,40,69.18
912,E3,159.25,0.25,33,69.18
913,G#3,159.5,0.25,34,69.18
914,E4,159.75,0.25,36,69.18
915,G#4,160.0,0.25,39,69.18
916,B4,160.25,0.25,42,69.18
917,C5,160.5,0.5,45,69.18
918,A2,160.5,0.25,38,69.18
919,E3,160.75,0.25,35,69.18
920,A3,161.0,0.25,35,69.18
921,E4,161.25,0.25,35,69.18
922,E5,161.5,0.25,38,69.18
923,E-5,161.75,0.25,34,69.18
924,E5,162.0,0.25,41,69.18
925,E-5,162.25,0.25,37,69.18
926,E5,162.5,0.25,46,69.18
927,B4,162.75,0.25,39,69.18
928,D5,163.0,0.25,48,69.18
929,C5,163.25,0.25,39,69.18
930,A4,163.5,0.5,48,69.18
931,A2,163.5,0.25,38,69.18
932,E3,163.75,0.25,35,69.18
933,A3,164.0,0.25,34,69.18
934,C4,164.25,0.25,34,69.18
935,E4,164.5,0.25,37,69.18
936,A4,164.75,0.25,41,69.18
937,B4,165.0,0.5,45,69.18
938,E2,165.0,0.25,38,69.18
939,E3,165.25,0.25,37,69.18
940,G#3,165.5,0.25,37,69.18
941,E4,165.75,0.25,37,69.18
942,C5,166.0,0.25,40,69.18
943,B4,166.25,0.25,38,69.18
944,A4,166.5,0.5,40,69.18
945,A2,166.5,0.25,38,69.18
946,E3,166.75,0.25,32,69.18
947,A3,167.0,0.25,32,69.18
948,B4,167.25,0.25,38,69.18
949,C5,167.5,0.25,42,69.18
950,D5,167.75,0.25,46,69.18
951,E5,168.0,0.75,50,69.18
952,C3,168.0,0.25,44,69.18
953,G3,168.25,0.25,38,69.18
954,C4,168.5,0.25,39,69.18
955,G4,168.75,0.25,40,69.18
956,F5,169.0,0.25,46,69.18
957,E5,169.25,0.25,43,69.18
958,D5,169.5,0.75,50,69.18
959,G2,169.5,0.25,44,69.18
960,G3,169.75,0.25,38,69.18
961,B3,170.0,0.25,39,69.18
962,F4,170.25,0.25,40,69.18
963,E5,170.5,0.25,46,69.18
964,D5,170.75,0.25,43,69.18
965,C5,171.0,0.75,50,69.18
966,A2,171.0,0.25,44,69.18
967,E3,171.25,0.25,38,69.18
968,A3,171.5,0.25,39,69.18
969,E4,171.75,0.25,40,69.18
970,D5,172.0,0.25,46,69.18
971,C5,172.25,0.25,43,69.18
972,B4,172.5,0.5,50,69.18
973,E2,172.5,0.25,44,69.18
974,E3,172.75,0.25,38,69.18
975,E4,173.0,0.188,39,69.18
976,E4,173.25,0.25,39,69.18
977,E5,173.5,0.188,45,69.18
978,E4,173.75,0.25,39,69.18
979,E5,174.0,0.188,44,69.18
980,E5,174.25,0.25,43,69.18
981,E6,174.5,0.188,48,69.18
982,E-5,174.75,0.25,42,69.18
983,E5,175.0,0.188,50,69.18
984,E-5,175.25,0.25,42,69.18
985,E5,175.5,0.188,48,69.18
986,E-5,175.75,0.25,39,69.18
987,E5,176.0,0.188,41,69.18
988,E-5,176.25,0.25,35,69.18
989,E5,176.5,0.25,37,69.18
990,E-5,176.75,0.25,34,69.18
991,E5,177.0,0.25,40,69.18
992,E-5,177.25,0.25,36,69.18
993,E5,177.5,0.25,42,69.18
994,B4,177.75,0.25,36,69.18
995,D5,178.0,0.25,43,69.18
996,C5,178.25,0.25,35,69.18
997,A4,178.5,0.5,48,69.18
998,A2,178.5,0.25,36,69.18
999,E3,178.75,0.25,33,69.18
1000,A3,179.0,0.25,33,69.18
1001,C4,179.25,0.25,34,69.18
1002,E4,179.5,0.25,38,69.18
1003,A4,179.75,0.25,42,69.18
1004,B4,180.0,0.5,46,69.18
1005,E2,180.0,0.25,40,69.18
1006,E3,180.25,0.25,33,69.18
1007,G#3,180.5,0.25,34,69.18
1008,E4,180.75,0.25,36,69.18
1009,G#4,181.0,0.25,39,69.18
1010,B4,181.25,0.25,42,69.18
1011,C5,181.5,0.5,45,69.18
1012,A2,181.5,0.25,38,69.18
1013,E3,181.75,0.25,35,69.18
1014,A3,182.0,0.25,35,69.18
1015,E4,182.25,0.25,35,69.18
1016,E5,182.5,0.25,38,69.18
1017,E-5,182.75,0.25,34,69.18
1018,E5,183.0,0.25,41,69.18
1019,E-5,183.25,0.25,37,69.18
1020,E5,183.5,0.25,46,69.18
1021,B4,183.75,0.25,39,69.18
1022,D5,184.0,0.25,48,69.18
1023,C5,184.25,0.25,39,69.18
1024,A4,184.5,0.5,48,69.18
1025,A2,184.5,0.25,38,69.18
1026,E3,184.75,0.25,35,69.18
1027,A3,185.0,0.25,34,69.18
1028,C4,185.25,0.25,34,69.18
1029,E4,185.5,0.25,37,69.18
1030,A4,185.75,0.25,41,69.18
1031,B4,186.0,0.5,45,69.18
1032,E2,186.0,0.25,38,69.18
1033,E3,186.25,0.25,37,69.18
1034,G#3,186.5,0.25,37,69.18
1035,E4,186.75,0.25,37,69.18
1036,C5,187.0,0.25,40,69.18
1037,B4,187.25,0.25,38,69.18
1038,A4,187.5,0.5,36,69.18
1039,A1,187.5,0.5,21,69.18
1040,A2,187.5,0.5,21,69.18
,note_name,start_time,duration,velocity,tempo
0,G#3,0.0,0.333,33,49.49
1,C#2,0.0,4.0,35,49.49
2,C#3,0.0,4.0,35,49.49
3,C#4,0.333,0.333,26,49.49
4,E4,0.667,0.333,26,49.49
5,G#3,1.0,0.333,33,49.49
6,C#4,1.333,0.333,26,49.49
7,E4,1.667,0.333,26,49.49
8,G#3,2.0,0.333,32,49.49
9,C#4,2.333,0.333,26,49.49
10,E4,2.667,0.333,26,49.49
11,G#3,3.0,0.333,35,49.49
12,C#4,3.333,0.333,26,49.49
13,E4,3.667,0.333,26,49.49
14,G#3,4.0,0.333,33,49.49
15,B1,4.0,4.0,35,49.49
16,B2,4.0,4.0,35,49.49
17,C#4,4.333,0.333,26,49.49
18,E4,4.667,0.333,23,49.49
19,G#3,5.0,0.333,30,49.49
20,C#4,5.333,0.333,26,49.49
21,E4,5.667,0.333,23,49.49
22,G#3,6.0,0.333,33,49.49
23,C#4,6.333,0.333,26,49.49
24,E4,6.667,0.333,23,49.49
25,G#3,7.0,0.333,32,49.49
26,C#4,7.333,0.333,26,49.49
27,E4,7.667,0.333,23,49.49
28,A3,8.0,0.333,45,49.49
29,A2,8.0,2.0,41,49.49
30,A1,8.0,2.0,41,49.49
31,C#4,8.333,0.333,38,49.49
32,E4,8.667,0.333,38,49.49
33,A3,9.0,0.333,35,49.49
34,C#4,9.333,0.333,32,49.49
35,E4,9.667,0.333,32,49.49
36,A3,10.0,0.333,41,49.49
37,F#1,10.0,2.0,38,49.49
38,F#2,10.0,2.0,38,49.49
39,D4,10.333,0.333,33,49.49
40,F#4,10.667,0.333,28,49.49
41,A3,11.0,0.333,38,49.49
42,D4,11.333,0.333,33,49.49
43,F#4,11.667,0.333,30,49.49
44,G#3,12.0,0.333,38,49.49
45,G#1,12.0,2.0,41,49.49
46,G#2,12.0,2.0,41,49.49
47,C4,12.333,0.333,31,49.49
48,F#4,12.667,0.333,31,49.49
49,G#3,13.0,0.333,35,49.49
50,C#4,13.333,0.333,30,49.49
51,E4,13.667,0.333,30,49.49
52,G#3,14.0,0.333,35,49.49
53,G#2,14.0,2.0,35,49.49
54,G#1,14.0,2.0,35,49.49
55,C#4,14.333,0.333,27,49.49
56,E-4,14.667,0.333,25,49.49
57,F#3,15.0,0.333,35,49.49
58,C4,15.333,0.333,30,49.49
59,E-4,15.667,0.333,30,49.49
60,E3,16.0,0.333,32,49.49
61,C#2,16.0,4.0,35,49.49
62,C#3,16.0,4.0,35,49.49
63,G#2,16.0,4.0,35,49.49
64,G#3,16.333,0.333,26,49.49
65,C#4,16.667,0.333,26,49.49
66,G#3,17.0,0.333,32,49.49
67,C#4,17.333,0.333,26,49.49
68,E4,17.667,0.333,26,49.49
69,G#3,18.0,0.333,31,49.49
70,C#4,18.333,0.333,25,49.49
71,E4,18.667,0.333,25,49.49
72,G#4,19.0,0.75,56,49.49
73,G#3,19.0,0.333,31,49.49
74,C#4,19.333,0.333,25,49.49
75,E4,19.667,0.333,22,49.49
76,G#4,19.75,0.25,50,49.49
77,G#4,20.0,3.0,50,49.49
78,G#3,20.0,0.333,31,49.49
79,C2,20.0,4.0,38,49.49
80,G#2,20.0,4.0,38,49.49
81,C3,20.0,4.0,38,49.49
82,E-4,20.333,0.333,26,49.49
83,F#4,20.667,0.333,23,49.49
84,G#3,21.0,0.333,31,49.49
85,E-4,21.333,0.333,26,49.49
86,F#4,21.667,0.333,25,49.49
87,G#3,22.0,0.333,31,49.49
88,E-4,22.333,0.333,26,49.49
89,F#4,22.667,0.333,25,49.49
90,G#4,23.0,0.75,56,49.49
91,G#3,23.0,0.333,31,49.49
92,E-4,23.333,0.333,25,49.49
93,F#4,23.667,0.333,23,49.49
94,G#4,23.75,0.25,53,49.49
95,G#4,24.0,2.0,53,49.49
96,G#3,24.0,0.333,31,49.49
97,C#2,24.0,2.0,35,49.49
98,C#3,24.0,2.0,35,49.49
99,C#4,24.333,0.333,26,49.49
100,E4,24.667,0.333,25,49.49
101,G#3,25.0,0.333,31,49.49
102,C#4,25.333,0.333,26,49.49
103,E4,25.667,0.333,23,49.49
104,A4,26.0,2.0,56,49.49
105,A3,26.0,0.333,31,49.49
106,F#2,26.0,2.0,32,49.49
107,F#1,26.0,2.0,32,49.49
108,C#4,26.333,0.333,25,49.49
109,F#4,26.667,0.333,25,49.49
110,A3,27.0,0.333,27,49.49
111,C#4,27.333,0.333,25,49.49
112,F#4,27.667,0.333,25,49.49
113,G#4,28.0,2.0,56,49.49
114,G#3,28.0,0.333,33,49.49
115,B1,28.0,2.0,41,49.49
116,B2,28.0,2.0,41,49.49
117,B3,28.333,0.333,23,49.49
118,E4,28.667,0.333,23,49.49
119,G#3,29.0,0.333,33,49.49
120,B3,29.333,0.333,26,49.49
121,E4,29.667,0.333,26,49.49
122,F#4,30.0,1.0,53,49.49
123,A3,30.0,0.333,33,49.49
124,B1,30.0,2.0,41,49.49
125,B2,30.0,2.0,41,49.49
126,B3,30.333,0.333,27,49.49
127,E-4,30.667,0.333,25,49.49
128,B4,31.0,1.0,50,49.49
129,A3,31.0,0.333,30,49.49
130,B3,31.333,0.333,26,49.49
131,E-4,31.667,0.333,27,49.49
132,E4,32.0,0.646,47,49.49
133,G#3,32.0,0.333,33,49.49
134,E3,32.0,4.0,35,49.49
135,E2,32.0,4.0,35,49.49
136,B3,32.333,0.333,26,49.49
137,E4,32.667,0.333,26,49.49
138,G#3,33.0,0.333,27,49.49
139,B3,33.333,0.333,26,49.49
140,E4,33.667,0.333,26,49.49
141,G#3,34.0,0.333,27,49.49
142,B3,34.333,0.333,26,49.49
143,E4,34.667,0.333,23,49.49
144,G#3,35.0,0.333,27,49.49
145,B3,35.333,0.333,26,49.49
146,E4,35.667,0.333,23,49.49
147,G3,36.0,0.333,32,49.49
148,E3,36.0,4.0,38,49.49
149,E2,36.0,4.0,38,49.49
150,B3,36.333,0.333,25,49.49
151,E4,36.667,0.333,23,49.49
152,G3,37.0,0.333,27,49.49
153,B3,37.333,0.333,26,49.49
154,E4,37.667,0.333,23,49.49
155,G3,38.0,0.333,27,49.49
156,B3,38.333,0.333,26,49.49
157,E4,38.667,0.333,22,49.49
158,G4,39.0,0.75,46,49.49
159,G3,39.0,0.333,26,49.49
160,B3,39.333,0.333,25,49.49
161,E4,39.667,0.333,21,49.49
162,G4,39.75,0.25,45,49.49
163,G4,40.0,3.0,45,49.49
164,G3,40.0,0.333,32,49.49
165,D2,40.0,4.0,35,49.49
166,D3,40.0,4.0,35,49.49
167,B3,40.333,0.333,26,49.49
168,F4,40.667,0.333,26,49.49
169,G3,41.0,0.333,32,49.49
170,B3,41.333,0.333,27,49.49
171,F4,41.667,0.333,25,49.49
172,G3,42.0,0.333,31,49.49
173,B3,42.333,0.333,27,49.49
174,F4,42.667,0.333,25,49.49
175,G4,43.0,0.75,50,49.49
176,G3,43.0,0.333,30,49.49
177,B3,43.333,0.333,25,49.49
178,F4,43.667,0.333,22,49.49
179,G4,43.75,0.25,50,49.49
180,G4,44.0,3.0,57,49.49
181,G3,44.0,0.333,33,49.49
182,C2,44.0,1.0,40,49.49
183,C3,44.0,1.0,40,49.49
184,C4,44.333,0.333,27,49.49
185,E4,44.667,0.333,27,49.49
186,G3,45.0,0.333,40,49.49
187,B2,45.0,1.0,46,49.49
188,B1,45.0,1.0,46,49.49
189,B3,45.333,0.333,33,49.49
190,E4,45.667,0.333,33,49.49
191,G3,46.0,0.333,38,49.49
192,B-1,46.0,2.0,53,49.49
193,B-2,46.0,2.0,53,49.49
194,C#4,46.333,0.333,42,49.49
195,E4,46.667,0.333,47,49.49
196,F#4,47.0,1.0,56,49.49
197,F#3,47.0,0.333,41,49.49
198,C#4,47.333,0.333,35,49.49
199,E4,47.667,0.333,27,49.49
200,F#4,48.0,2.0,65,49.49
201,F#3,48.0,0.333,38,49.49
202,B1,48.0,2.0,42,49.49
203,B2,48.0,2.0,42,49.49
204,B3,48.333,0.333,32,49.49
205,D4,48.667,0.333,27,49.49
206,F#3,49.0,0.333,33,49.49
207,B3,49.333,0.333,27,49.49
208,D4,49.667,0.333,27,49.49
209,G4,50.0,1.0,56,49.49
210,G3,50.0,0.333,35,49.49
211,E2,50.0,1.0,41,49.49
212,B3,50.333,0.333,27,49.49
213,C#4,50.667,0.333,27,49.49
214,E4,51.0,1.0,47,49.49
215,E3,51.0,0.333,35,49.49
216,G2,51.0,1.0,40,49.49
217,B3,51.333,0.333,27,49.49
218,C#4,51.667,0.333,23,49.49
219,F#4,52.0,2.0,53,49.49
220,F#3,52.0,0.333,41,49.49
221,F#2,52.0,2.0,46,49.49
222,B3,52.333,0.333,35,49.49
223,D4,52.667,0.333,32,49.49
224,F#3,53.0,0.333,38,49.49
225,B3,53.333,0.333,31,49.49
226,D4,53.667,0.333,28,49.49
227,F#4,54.0,2.0,47,49.49
228,F#3,54.0,0.333,31,49.49
229,F#1,54.0,2.0,35,49.49
230,F#2,54.0,2.0,35,49.49
231,B-3,54.333,0.333,26,49.49
232,C#4,54.667,0.333,23,49.49
233,F#3,55.0,0.333,31,49.49
234,B-3,55.333,0.333,26,49.49
235,C#4,55.667,0.333,23,49.49
236,B3,56.0,0.333,32,49.49
237,B1,56.0,5.0,35,49.49
238,B2,56.0,5.0,35,49.49
239,D4,56.333,0.333,27,49.49
240,F#4,56.667,0.333,25,49.49
241,B3,57.0,0.333,27,49.49
242,D4,57.333,0.333,26,49.49
243,F#4,57.667,0.333,26,49.49
244,B3,58.0,0.333,41,49.49
245,E-4,58.333,0.333,38,49.49
246,F#4,58.667,0.333,38,49.49
247,B4,59.0,1.0,56,49.49
248,B3,59.0,0.333,41,49.49
249,E-4,59.333,0.333,38,49.49
250,F#4,59.667,0.333,35,49.49
251,C5,60.0,3.0,63,49.49
252,B3,60.0,0.333,41,49.49
253,E4,60.333,0.333,41,49.49
254,G4,60.667,0.333,45,49.49
255,B3,61.0,0.333,47,49.49
256,E3,61.0,1.0,53,49.49
257,E2,61.0,1.0,53,49.49
258,E4,61.333,0.333,53,49.49
259,G4,61.667,0.333,56,49.49
260,B3,62.0,0.333,61,49.49
261,G2,62.0,1.0,60,49.49
262,G3,62.0,1.0,60,49.49
263,E4,62.333,0.333,60,49.49
264,G4,62.667,0.333,56,49.49
265,B-4,63.0,1.0,56,49.49
266,B3,63.0,0.333,52,49.49
267,E2,63.0,1.0,48,49.49
268,E3,63.0,1.0,48,49.49
269,E4,63.333,0.333,46,49.49
270,G4,63.667,0.333,31,49.49
271,B4,64.0,3.0,56,49.49
272,B3,64.0,0.333,37,49.49
273,B2,64.0,5.0,42,49.49
274,B1,64.0,5.0,42,49.49
275,E-4,64.333,0.333,35,49.49
276,F#4,64.667,0.333,35,49.49
277,B3,65.0,0.333,40,49.49
278,E-4,65.333,0.333,35,49.49
279,F#4,65.667,0.333,35,49.49
280,B3,66.0,0.333,41,49.49
281,E-4,66.333,0.333,37,49.49
282,F#4,66.667,0.333,33,49.49
283,B4,67.0,1.0,56,49.49
284,B3,67.0,0.333,41,49.49
285,E-4,67.333,0.333,37,49.49
286,F#4,67.667,0.333,37,49.49
287,C5,68.0,3.0,63,49.49
288,B3,68.0,0.333,41,49.49
289,E4,68.333,0.333,45,49.49
290,G4,68.667,0.333,52,49.49
291,B3,69.0,0.333,55,49.49
292,E3,69.0,1.0,50,49.49
293,E2,69.0,1.0,50,49.49
294,E4,69.333,0.333,56,49.49
295,G4,69.667,0.333,57,49.49
296,B3,70.0,0.333,60,49.49
297,G2,70.0,1.0,55,49.49
298,G3,70.0,1.0,55,49.49
299,E4,70.333,0.333,60,49.49
300,G4,70.667,0.333,56,49.49
301,B-4,71.0,1.0,56,49.49
302,B3,71.0,0.333,52,49.49
303,E3,71.0,1.0,41,49.49
304,E2,71.0,1.0,41,49.49
305,E4,71.333,0.333,41,49.49
306,G4,71.667,0.333,35,49.49
307,B4,72.0,2.0,56,49.49
308,B3,72.0,0.333,41,49.49
309,B1,72.0,2.0,37,49.49
310,B2,72.0,2.0,37,49.49
311,E-4,72.333,0.333,35,49.49
312,F#4,72.667,0.333,33,49.49
313,B3,73.0,0.333,35,49.49
314,E-4,73.333,0.333,30,49.49
315,F#4,73.667,0.333,30,49.49
316,B4,74.0,2.0,47,49.49
317,B3,74.0,0.333,35,49.49
318,G#1,74.0,2.0,35,49.49
319,G#2,74.0,2.0,35,49.49
320,D4,74.333,0.333,27,49.49
321,F4,74.667,0.333,27,49.49
322,B3,75.0,0.333,30,49.49
323,D4,75.333,0.333,25,49.49
324,F4,75.667,0.333,25,49.49
325,B4,76.0,2.0,47,49.49
326,B3,76.0,0.333,30,49.49
327,F2,76.0,2.0,35,49.49
328,F1,76.0,2.0,35,49.49
329,C#4,76.333,0.333,27,49.49
330,G#4,76.667,0.333,25,49.49
331,B3,77.0,0.333,30,49.49
332,C#4,77.333,0.333,26,49.49
333,G#4,77.667,0.333,26,49.49
334,A4,78.0,2.0,52,49.49
335,A3,78.0,0.333,30,49.49
336,F#1,78.0,2.0,41,49.49
337,F#2,78.0,2.0,41,49.49
338,C#4,78.333,0.333,26,49.49
339,F#4,78.667,0.333,26,49.49
340,A3,79.0,0.333,35,49.49
341,C#4,79.333,0.333,31,49.49
342,F#4,79.667,0.333,31,49.49
343,G4,80.0,2.0,56,49.49
344,G3,80.0,0.333,41,49.49
345,B2,80.0,2.0,41,49.49
346,B1,80.0,2.0,41,49.49
347,B3,80.333,0.333,38,49.49
348,D4,80.667,0.333,38,49.49
349,G3,81.0,0.333,41,49.49
350,B3,81.333,0.333,38,49.49
351,D4,81.667,0.333,38,49.49
352,F#4,82.0,2.0,52,49.49
353,F#3,82.0,0.333,41,49.49
354,C2,82.0,2.0,45,49.49
355,C3,82.0,2.0,45,49.49
356,A3,82.333,0.333,38,49.49
357,E-4,82.667,0.333,38,49.49
358,F#3,83.0,0.333,35,49.49
359,A3,83.333,0.333,31,49.49
360,E-4,83.667,0.333,26,49.49
361,C#4,84.0,2.0,47,49.49
362,C#3,84.0,0.333,30,49.49
363,C#2,84.0,2.0,35,49.49
364,F#3,84.333,0.333,27,49.49
365,A3,84.667,0.333,27,49.49
366,C#3,85.0,0.333,30,49.49
367,F#3,85.333,0.333,27,49.49
368,A3,85.667,0.333,27,49.49
369,C#4,86.0,1.0,47,49.49
370,C#3,86.0,0.333,30,49.49
371,C#2,86.0,2.0,35,49.49
372,F#3,86.333,0.333,26,49.49
373,G#3,86.667,0.333,26,49.49
374,C#4,87.0,1.0,41,49.49
375,C#3,87.0,0.333,30,49.49
376,F3,87.333,0.333,26,49.49
377,G#3,87.667,0.333,22,49.49
378,F#3,88.0,0.333,32,49.49
379,C#2,88.0,4.0,35,49.49
380,F#2,88.0,4.0,35,49.49
381,F#1,88.0,4.0,35,49.49
382,A3,88.333,0.333,26,49.49
383,C#4,88.667,0.333,26,49.49
384,A3,89.0,0.333,30,49.49
385,C#4,89.333,0.333,26,49.49
386,F#4,89.667,0.333,26,49.49
387,C#4,90.0,0.333,30,49.49
388,F#4,90.333,0.333,26,49.49
389,A4,90.667,0.333,26,49.49
390,C#5,91.0,0.75,56,49.49
391,C#4,91.0,0.333,41,49.49
392,F#4,91.333,0.333,33,49.49
393,A4,91.667,0.333,26,49.49
394,C#5,91.75,0.25,56,49.49
395,C#5,92.0,3.0,61,49.49
396,C#4,92.0,0.333,37,49.49
397,C#3,92.0,4.0,33,49.49
398,F3,92.0,4.0,33,49.49
399,F2,92.0,4.0,33,49.49
400,G#4,92.333,0.333,32,49.49
401,B4,92.667,0.333,32,49.49
402,C#4,93.0,0.333,41,49.49
403,G#4,93.333,0.333,35,49.49
404,B4,93.667,0.333,35,49.49
405,C#4,94.0,0.333,41,49.49
406,G#4,94.333,0.333,35,49.49
407,B4,94.667,0.333,35,49.49
408,C#5,95.0,0.75,56,49.49
409,C#4,95.0,0.333,41,49.49
410,G#4,95.333,0.333,35,49.49
411,B4,95.667,0.333,35,49.49
412,C#5,95.75,0.25,56,49.49
413,C#5,96.0,2.0,65,49.49
414,C#4,96.0,0.333,41,49.49
415,F#3,96.0,2.0,40,49.49
416,F#2,96.0,2.0,40,49.49
417,F#4,96.333,0.333,38,49.49
418,A4,96.667,0.333,38,49.49
419,C#4,97.0,0.333,41,49.49
420,F#4,97.333,0.333,42,49.49
421,A4,97.667,0.333,45,49.49
422,C5,98.0,1.0,61,49.49
423,C4,98.0,0.333,46,49.49
424,E-3,98.0,1.0,46,49.49
425,E-2,98.0,1.0,46,49.49
426,F#4,98.333,0.333,42,49.49
427,A4,98.667,0.333,41,49.49
428,C#5,99.0,1.0,63,49.49
429,C#4,99.0,0.333,47,49.49
430,C#2,99.0,1.0,46,49.49
431,C#3,99.0,1.0,46,49.49
432,F#4,99.333,0.333,42,49.49
433,A4,99.667,0.333,42,49.49
434,E-5,100.0,3.0,65,49.49
435,E-4,100.0,0.333,52,49.49
436,C2,100.0,3.0,50,49.49
437,G#2,100.0,3.0,50,49.49
438,C3,100.0,3.0,50,49.49
439,F#4,100.333,0.333,50,49.49
440,G#4,100.667,0.333,48,49.49
441,E-4,101.0,0.333,53,49.49
442,F#4,101.333,0.333,50,49.49
443,G#4,101.667,0.333,50,49.49
444,E-4,102.0,0.333,56,49.49
445,F#4,102.333,0.333,52,49.49
446,G#4,102.667,0.333,52,49.49
447,E-5,103.0,1.0,72,49.49
448,E-4,103.0,0.333,57,49.49
449,C2,103.0,1.0,48,49.49
450,G#2,103.0,1.0,48,49.49
451,C3,103.0,1.0,48,49.49
452,F#4,103.333,0.333,56,49.49
453,G#4,103.667,0.333,56,49.49
454,E5,104.0,2.0,86,49.49
455,E4,104.0,0.333,61,49.49
456,C#2,104.0,2.0,55,49.49
457,G#2,104.0,2.0,55,49.49
458,C#3,104.0,2.0,55,49.49
459,G#4,104.333,0.333,57,49.49
460,C#5,104.667,0.333,55,49.49
461,E4,105.0,0.333,52,49.49
462,G#4,105.333,0.333,48,49.49
463,C#5,105.667,0.333,48,49.49
464,E-5,106.0,1.0,65,49.49
465,E-4,106.0,0.333,45,49.49
466,F#2,106.0,1.0,46,49.49
467,F#1,106.0,1.0,46,49.49
468,F#4,106.333,0.333,41,49.49
469,A4,106.667,0.333,41,49.49
470,C#5,107.0,1.0,56,49.49
471,C#4,107.0,0.333,40,49.49
472,G1,107.0,1.0,45,49.49
473,G2,107.0,1.0,45,49.49
474,E4,107.333,0.333,38,49.49
475,B-4,107.667,0.333,33,49.49
476,C5,108.0,0.333,52,49.49
477,G#1,108.0,4.0,41,49.49
478,G#2,108.0,4.0,41,49.49
479,C4,108.333,0.333,52,49.49
480,E-4,108.667,0.333,52,49.49
481,G#4,109.0,1.0,65,49.49
482,C4,109.333,0.333,52,49.49
483,E-4,109.667,0.333,53,49.49
484,A4,110.0,1.0,77,49.49
485,C4,110.333,0.333,52,49.49
486,E-4,110.667,0.333,52,49.49
487,F#4,111.0,1.0,65,49.49
488,C4,111.333,0.333,52,49.49
489,E-4,111.667,0.333,53,49.49
490,G#2,112.0,4.0,53,49.49
491,G#1,112.0,4.0,53,49.49
492,C4,112.333,0.333,52,49.49
493,E-4,112.667,0.333,52,49.49
494,G#3,113.0,1.0,65,49.49
495,C4,113.333,0.333,53,49.49
496,E-4,113.667,0.333,53,49.49
497,A3,114.0,1.0,76,49.49
498,C4,114.333,0.333,53,49.49
499,E-4,114.667,0.333,53,49.49
500,F#3,115.0,1.0,60,49.49
501,C4,115.333,0.333,52,49.49
502,E-4,115.667,0.333,46,49.49
503,E3,116.0,0.333,52,49.49
504,G#1,116.0,4.0,46,49.49
505,G#2,116.0,4.0,46,49.49
506,E4,116.333,0.333,52,49.49
507,G#4,116.667,0.333,52,49.49
508,C#5,117.0,1.0,65,49.49
509,E4,117.333,0.333,52,49.49
510,G#4,117.667,0.333,47,49.49
511,E5,118.0,1.0,76,49.49
512,E4,118.333,0.333,65,49.49
513,G#4,118.667,0.333,65,49.49
514,C#5,119.0,1.0,65,49.49
515,E4,119.333,0.333,53,49.49
516,G#4,119.667,0.333,50,49.49
517,G#1,120.0,4.0,52,49.49
518,G#2,120.0,4.0,52,49.49
519,E3,120.333,0.333,52,49.49
520,G#3,120.667,0.333,52,49.49
521,C#4,121.0,1.0,61,49.49
522,E3,121.333,0.333,52,49.49
523,G#3,121.667,0.333,52,49.49
524,E4,122.0,1.0,75,49.49
525,E3,122.333,0.333,48,49.49
526,G#3,122.667,0.333,48,49.49
527,C#4,123.0,1.0,65,49.49
528,E3,123.333,0.333,53,49.49
529,G#3,123.667,0.333,50,49.49
530,E-3,124.0,0.333,65,49.49
531,G#2,124.0,4.0,46,49.49
532,G#1,124.0,4.0,46,49.49
533,A3,124.333,0.333,52,49.49
534,F#3,124.667,0.333,52,49.49
535,C4,125.0,0.333,53,49.49
536,A3,125.333,0.333,52,49.49
537,E-4,125.667,0.333,52,49.49
538,C4,126.0,0.333,52,49.49
539,F#4,126.333,0.333,52,49.49
540,E-4,126.667,0.333,52,49.49
541,A4,127.0,0.333,52,49.49
542,F#4,127.333,0.333,52,49.49
543,C5,127.667,0.333,52,49.49
544,E3,128.0,0.333,65,49.49
545,G#2,128.0,4.0,46,49.49
546,G#1,128.0,4.0,46,49.49
547,C#4,128.333,0.333,52,49.49
548,G#3,128.667,0.333,52,49.49
549,E4,129.0,0.333,48,49.49
550,C#4,129.333,0.333,52,49.49
551,G#4,129.667,0.333,52,49.49
552,E4,130.0,0.333,53,49.49
553,C#5,130.333,0.333,52,49.49
554,G#4,130.667,0.333,52,49.49
555,E5,131.0,0.333,53,49.49
556,C#5,131.333,0.333,52,49.49
557,G#4,131.667,0.333,52,49.49
558,C#4,132.0,0.333,65,49.49
559,G#1,132.0,4.0,45,49.49
560,G#2,132.0,4.0,45,49.49
561,G4,132.333,0.333,55,49.49
562,E4,132.667,0.333,55,49.49
563,B-4,133.0,0.333,56,49.49
564,G4,133.333,0.333,56,49.49
565,C#5,133.667,0.333,62,49.49
566,B-4,134.0,0.333,62,49.49
567,E5,134.333,0.333,68,49.49
568,C#5,134.667,0.333,67,49.49
569,G5,135.0,0.333,71,49.49
570,E5,135.333,0.333,68,49.49
571,B-5,135.667,0.333,68,49.49
572,F#4,136.0,0.333,76,49.49
573,G#1,136.0,12.0,46,49.49
574,G#2,136.0,12.0,46,49.49
575,C5,136.333,0.333,72,49.49
576,A4,136.667,0.333,70,49.49
577,E-5,137.0,0.333,78,49.49
578,C5,137.333,0.333,76,49.49
579,F#5,137.667,0.333,82,49.49
580,E-5,138.0,0.333,80,49.49
581,A5,138.333,0.333,83,49.49
582,F#5,138.667,0.333,81,49.49
583,C6,139.0,0.333,88,49.49
584,A5,139.333,0.333,83,49.49
585,E-6,139.667,0.333,92,49.49
586,C6,140.0,0.333,97,49.49
587,F#5,140.333,0.333,90,49.49
588,A5,140.667,0.333,82,49.49
589,E-5,141.0,0.333,90,49.49
590,F#5,141.333,0.333,83,49.49
591,C5,141.667,0.333,90,49.49
592,E-5,142.0,0.333,82,49.49
593,A4,142.333,0.333,90,49.49
594,C5,142.667,0.333,82,49.49
595,F#4,143.0,0.333,90,49.49
596,A4,143.333,0.333,82,49.49
597,E-4,143.667,0.333,88,49.49
598,F#4,144.0,0.333,82,49.49
599,C4,144.333,0.333,87,49.49
600,E-4,144.667,0.333,81,49.49
601,A3,145.0,0.333,85,49.49
602,C4,145.333,0.333,77,49.49
603,F#3,145.667,0.333,85,49.49
604,A3,146.0,0.333,80,49.49
605,E-3,146.333,0.667,82,49.49
606,F#3,146.667,0.333,75,49.49
607,C#3,147.0,1.0,83,49.49
608,F#3,147.333,0.333,75,49.49
609,A3,147.667,0.333,71,49.49
610,C3,148.0,2.0,80,49.49
611,G#1,148.0,4.0,56,49.49
612,G#2,148.0,4.0,56,49.49
613,F#3,148.333,0.333,70,49.49
614,G#3,148.667,0.333,70,49.49
615,A3,149.0,0.333,70,49.49
616,G#3,149.333,0.333,67,49.49
617,F#3,149.667,0.333,67,49.49
618,E-3,150.0,1.0,78,49.49
619,F#3,150.333,0.333,68,49.49
620,A3,150.667,0.333,68,49.49
621,C#3,151.0,1.0,78,49.49
622,F#3,151.333,0.333,65,49.49
623,A3,151.667,0.333,65,49.49
624,C3,152.0,2.0,77,49.49
625,G#1,152.0,4.0,47,49.49
626,G#2,152.0,4.0,47,49.49
627,F#3,152.333,0.333,65,49.49
628,G#3,152.667,0.333,65,49.49
629,A3,153.0,0.333,63,49.49
630,G#3,153.333,0.333,62,49.49
631,F#3,153.667,0.333,62,49.49
632,D3,154.0,1.0,78,49.49
633,F#3,154.333,0.333,70,49.49
634,A3,154.667,0.333,71,49.49
635,C#3,155.0,1.0,76,49.49
636,F#3,155.333,0.333,65,49.49
637,A3,155.667,0.333,65,49.49
638,C3,156.0,2.0,78,49.49
639,G#1,156.0,2.0,42,49.49
640,G#2,156.0,2.0,42,49.49
641,F#3,156.333,0.333,68,49.49
642,G#3,156.667,0.333,68,49.49
643,A3,157.0,0.333,66,49.49
644,G#3,157.333,0.333,65,49.49
645,F#3,157.667,0.333,63,49.49
646,C#3,158.0,0.333,68,49.49
647,A2,158.0,2.0,41,49.49
648,A1,158.0,2.0,41,49.49
649,E3,158.333,0.333,63,49.49
650,C#4,158.667,0.333,62,49.49
651,C#3,159.0,0.333,68,49.49
652,E3,159.333,0.333,62,49.49
653,C#4,159.667,0.333,62,49.49
654,E-3,160.0,0.333,76,49.49
655,F#1,160.0,2.0,35,49.49
656,F#2,160.0,2.0,35,49.49
657,A3,160.333,0.333,65,49.49
658,C#4,160.667,0.333,61,49.49
659,E-3,161.0,0.333,65,49.49
660,A3,161.333,0.333,57,49.49
661,C#4,161.667,0.333,56,49.49
662,E-3,162.0,0.333,60,49.49
663,G#2,162.0,2.0,46,49.49
664,G#1,162.0,2.0,46,49.49
665,G#3,162.333,0.333,52,49.49
666,C4,162.667,0.333,52,49.49
667,E-3,163.0,0.333,47,49.49
668,F#3,163.333,0.333,45,49.49
669,C4,163.667,0.333,40,49.49
670,E3,164.0,0.333,41,49.49
671,C#2,164.0,4.0,41,49.49
672,C#3,164.0,4.0,41,49.49
673,G#2,164.0,4.0,41,49.49
674,G#3,164.333,0.333,38,49.49
675,C#4,164.667,0.333,37,49.49
676,G#3,165.0,0.333,41,49.49
677,C#4,165.333,0.333,38,49.49
678,E4,165.667,0.333,38,49.49
679,G#3,166.0,0.333,41,49.49
680,C#4,166.333,0.333,38,49.49
681,E4,166.667,0.333,38,49.49
682,G#4,167.0,0.75,56,49.49
683,G#3,167.0,0.333,41,49.49
684,C#4,167.333,0.333,37,49.49
685,E4,167.667,0.333,33,49.49
686,G#4,167.75,0.25,56,49.49
687,G#4,168.0,3.0,56,49.49
688,G#3,168.0,0.333,41,49.49
689,C2,168.0,4.0,46,49.49
690,C3,168.0,4.0,46,49.49
691,G#2,168.0,4.0,46,49.49
692,E-4,168.333,0.333,37,49.49
693,F#4,168.667,0.333,37,49.49
694,G#3,169.0,0.333,40,49.49
695,E-4,169.333,0.333,38,49.49
696,F#4,169.667,0.333,38,49.49
697,G#3,170.0,0.333,41,49.49
698,E-4,170.333,0.333,38,49.49
699,F#4,170.667,0.333,37,49.49
700,G#4,171.0,0.75,56,49.49
701,G#3,171.0,0.333,41,49.49
702,E-4,171.333,0.333,38,49.49
703,F#4,171.667,0.333,35,49.49
704,G#4,171.75,0.25,56,49.49
705,G#4,172.0,2.0,56,49.49
706,G#3,172.0,0.333,41,49.49
707,C#2,172.0,2.0,46,49.49
708,C#3,172.0,2.0,46,49.49
709,C#4,172.333,0.333,40,49.49
710,E4,172.667,0.333,40,49.49
711,G#3,173.0,0.333,41,49.49
712,C#4,173.333,0.333,38,49.49
713,E4,173.667,0.333,37,49.49
714,A4,174.0,2.0,56,49.49
715,A3,174.0,0.333,41,49.49
716,F#2,174.0,2.0,46,49.49
717,F#1,174.0,2.0,46,49.49
718,C#4,174.333,0.333,40,49.49
719,F#4,174.667,0.333,38,49.49
720,A3,175.0,0.333,41,49.49
721,C#4,175.333,0.333,38,49.49
722,F#4,175.667,0.333,36,49.49
723,G#4,176.0,2.0,56,49.49
724,G#3,176.0,0.333,41,49.49
725,B1,176.0,2.0,46,49.49
726,B2,176.0,2.0,46,49.49
727,B3,176.333,0.333,37,49.49
728,E4,176.667,0.333,37,49.49
729,G#3,177.0,0.333,40,49.49
730,B3,177.333,0.333,37,49.49
731,E4,177.667,0.333,37,49.49
732,F#4,178.0,1.0,56,49.49
733,A3,178.0,0.333,40,49.49
734,B2,178.0,2.0,46,49.49
735,B1,178.0,2.0,46,49.49
736,B3,178.333,0.333,35,49.49
737,E-4,178.667,0.333,35,49.49
738,B4,179.0,1.0,56,49.49
739,A3,179.0,0.333,40,49.49
740,B3,179.333,0.333,35,49.49
741,E-4,179.667,0.333,32,49.49
742,E4,180.0,0.646,56,49.49
743,G#3,180.0,0.333,40,49.49
744,E2,180.0,4.0,45,49.49
745,E3,180.0,4.0,45,49.49
746,B3,180.333,0.333,37,49.49
747,E4,180.667,0.333,37,49.49
748,B3,181.0,0.333,40,49.49
749,E4,181.333,0.333,37,49.49
750,G#4,181.667,0.333,37,49.49
751,B3,182.0,0.333,40,49.49
752,E4,182.333,0.333,37,49.49
753,G#4,182.667,0.333,37,49.49
754,B4,183.0,0.75,61,49.49
755,B3,183.0,0.333,40,49.49
756,E4,183.333,0.333,37,49.49
757,G#4,183.667,0.333,32,49.49
758,B4,183.75,0.25,56,49.49
759,B4,184.0,3.0,61,49.49
760,B3,184.0,0.333,40,49.49
761,E-2,184.0,4.0,35,49.49
762,E-3,184.0,4.0,35,49.49
763,F#4,184.333,0.333,33,49.49
764,A4,184.667,0.333,31,49.49
765,B3,185.0,0.333,40,49.49
766,F#4,185.333,0.333,32,49.49
767,A4,185.667,0.333,32,49.49
768,B3,186.0,0.333,40,49.49
769,F#4,186.333,0.333,32,49.49
770,A4,186.667,0.333,32,49.49
771,B4,187.0,0.75,63,49.49
772,B3,187.0,0.333,40,49.49
773,F#4,187.333,0.333,33,49.49
774,A4,187.667,0.333,33,49.49
775,B4,187.75,0.25,56,49.49
776,B4,188.0,2.0,63,49.49
777,B3,188.0,0.333,40,49.49
778,E3,188.0,2.0,37,49.49
779,E2,188.0,2.0,37,49.49
780,E4,188.333,0.333,35,49.49
781,G#4,188.667,0.333,35,49.49
782,B3,189.0,0.333,40,49.49
783,E4,189.333,0.333,35,49.49
784,G#4,189.667,0.333,35,49.49
785,C5,190.0,1.0,65,49.49
786,C4,190.0,0.333,40,49.49
787,E-2,190.0,1.0,37,49.49
788,E-3,190.0,1.0,37,49.49
789,F#4,190.333,0.333,46,49.49
790,G#4,190.667,0.333,50,49.49
791,C#5,191.0,1.0,72,49.49
792,C#4,191.0,0.333,55,49.49
793,C#3,191.0,1.0,40,49.49
794,C#2,191.0,1.0,40,49.49
795,E4,191.333,0.333,60,49.49
796,G#4,191.667,0.333,60,49.49
797,E-5,192.0,2.0,75,49.49
798,E-4,192.0,0.333,60,49.49
799,C2,192.0,2.0,45,49.49
800,C3,192.0,2.0,45,49.49
801,G#2,192.0,2.0,45,49.49
802,F#4,192.333,0.333,52,49.49
803,G#4,192.667,0.333,52,49.49
804,E-4,193.0,0.333,53,49.49
805,F#4,193.333,0.333,50,49.49
806,G#4,193.667,0.333,50,49.49
807,E5,194.0,2.0,56,49.49
808,E4,194.0,0.333,48,49.49
809,C#2,194.0,2.0,38,49.49
810,C#3,194.0,2.0,38,49.49
811,G#2,194.0,2.0,38,49.49
812,G#4,194.333,0.333,40,49.49
813,C#5,194.667,0.333,40,49.49
814,E4,195.0,0.333,40,49.49
815,G#4,195.333,0.333,33,49.49
816,C#5,195.667,0.333,33,49.49
817,D5,196.0,2.0,56,49.49
818,D4,196.0,0.333,40,49.49
819,F#1,196.0,2.0,41,49.49
820,F#2,196.0,2.0,41,49.49
821,F#4,196.333,0.333,37,49.49
822,A4,196.667,0.333,37,49.49
823,D4,197.0,0.333,40,49.49
824,F#4,197.333,0.333,37,49.49
825,A4,197.667,0.333,37,49.49
826,C5,198.0,2.0,56,49.49
827,C4,198.0,0.333,40,49.49
828,G#1,198.0,2.0,41,49.49
829,G#2,198.0,2.0,41,49.49
830,F#4,198.333,0.333,37,49.49
831,G#4,198.667,0.333,37,49.49
832,C4,199.0,0.333,40,49.49
833,F#4,199.333,0.333,37,49.49
834,G#4,199.667,0.333,35,49.49
835,C#5,200.0,3.0,56,49.49
836,C#4,200.0,0.333,40,49.49
837,C#3,200.0,5.0,38,49.49
838,C#2,200.0,5.0,38,49.49
839,E4,200.333,0.333,33,49.49
840,G#4,200.667,0.333,30,49.49
841,C#4,201.0,0.333,40,49.49
842,E4,201.333,0.333,33,49.49
843,G#4,201.667,0.333,31,49.49
844,C#4,202.0,0.333,40,49.49
845,F4,202.333,0.333,33,49.49
846,G#4,202.667,0.333,33,49.49
847,C#5,203.0,1.0,56,49.49
848,C#4,203.0,0.333,40,49.49
849,F4,203.333,0.333,31,49.49
850,G#4,203.667,0.333,30,49.49
851,D5,204.0,3.0,71,49.49
852,C#4,204.0,0.333,40,49.49
853,F#4,204.333,0.333,42,49.49
854,A4,204.667,0.333,40,49.49
855,C#4,205.0,0.333,46,49.49
856,F#3,205.0,1.0,47,49.49
857,F#2,205.0,1.0,47,49.49
858,F#4,205.333,0.333,47,49.49
859,A4,205.667,0.333,47,49.49
860,C#4,206.0,0.333,53,49.49
861,A2,206.0,1.0,56,49.49
862,A3,206.0,1.0,56,49.49
863,F#4,206.333,0.333,55,49.49
864,A4,206.667,0.333,53,49.49
865,C5,207.0,1.0,56,49.49
866,C#4,207.0,0.333,61,49.49
867,F#3,207.0,1.0,50,49.49
868,F#2,207.0,1.0,50,49.49
869,F#4,207.333,0.333,60,49.49
870,A4,207.667,0.333,52,49.49
871,C#5,208.0,3.0,56,49.49
872,C#4,208.0,0.333,45,49.49
873,C#2,208.0,5.0,41,49.49
874,C#3,208.0,5.0,41,49.49
875,F4,208.333,0.333,37,49.49
876,G#4,208.667,0.333,36,49.49
877,C#4,209.0,0.333,40,49.49
878,F4,209.333,0.333,35,49.49
879,G#4,209.667,0.333,35,49.49
880,C#4,210.0,0.333,40,49.49
881,F4,210.333,0.333,33,49.49
882,G#4,210.667,0.333,33,49.49
883,C#5,211.0,1.0,56,49.49
884,C#4,211.0,0.333,40,49.49
885,F4,211.333,0.333,33,49.49
886,G#4,211.667,0.333,28,49.49
887,D5,212.0,3.0,68,49.49
888,C#4,212.0,0.333,40,49.49
889,F#4,212.333,0.333,42,49.49
890,A4,212.667,0.333,46,49.49
891,C#4,213.0,0.333,47,49.49
892,F#2,213.0,1.0,48,49.49
893,F#3,213.0,1.0,48,49.49
894,F#4,213.333,0.333,48,49.49
895,A4,213.667,0.333,55,49.49
896,C#4,214.0,0.333,57,49.49
897,A3,214.0,1.0,57,49.49
898,A2,214.0,1.0,57,49.49
899,F#4,214.333,0.333,56,49.49
900,A4,214.667,0.333,55,49.49
901,C5,215.0,1.0,56,49.49
902,C#4,215.0,0.333,61,49.49
903,F#2,215.0,1.0,48,49.49
904,F#3,215.0,1.0,48,49.49
905,F#4,215.333,0.333,55,49.49
906,A4,215.667,0.333,37,49.49
907,C#5,216.0,2.0,61,49.49
908,C#4,216.0,0.333,46,49.49
909,C#3,216.0,2.0,40,49.49
910,C#2,216.0,2.0,40,49.49
911,F4,216.333,0.333,38,49.49
912,G#4,216.667,0.333,38,49.49
913,C#4,217.0,0.333,40,49.49
914,F4,217.333,0.333,37,49.49
915,G#4,217.667,0.333,37,49.49
916,C#5,218.0,2.0,56,49.49
917,C#4,218.0,0.333,42,49.49
918,F#1,218.0,2.0,42,49.49
919,F#2,218.0,2.0,42,49.49
920,F#4,218.333,0.333,37,49.49
921,A4,218.667,0.333,37,49.49
922,C#4,219.0,0.333,40,49.49
923,F#4,219.333,0.333,37,49.49
924,A4,219.667,0.333,37,49.49
925,B4,220.0,3.0,56,49.49
926,B3,220.0,0.333,47,49.49
927,E-2,220.0,3.0,45,49.49
928,E-3,220.0,3.0,45,49.49
929,F#4,220.333,0.333,40,49.49
930,A4,220.667,0.333,40,49.49
931,B3,221.0,0.333,40,49.49
932,F#4,221.333,0.333,38,49.49
933,A4,221.667,0.333,37,49.49
934,B3,222.0,0.333,40,49.49
935,F#4,222.333,0.333,38,49.49
936,A4,222.667,0.333,37,49.49
937,B4,223.0,1.0,56,49.49
938,B3,223.0,0.333,40,49.49
939,E2,223.0,1.0,41,49.49
940,E3,223.0,1.0,41,49.49
941,E4,223.333,0.333,38,49.49
942,G#4,223.667,0.333,33,49.49
943,A4,224.0,1.0,56,49.49
944,A3,224.0,0.333,40,49.49
945,C#2,224.0,1.0,46,49.49
946,C#3,224.0,1.0,46,49.49
947,E4,224.333,0.333,37,49.49
948,G#4,224.667,0.333,37,49.49
949,A4,225.0,1.0,56,49.49
950,A3,225.0,0.333,40,49.49
951,E-2,225.0,1.0,40,49.49
952,E-3,225.0,1.0,40,49.49
953,E-4,225.333,0.333,37,49.49
954,F#4,225.667,0.333,37,49.49
955,G#4,226.0,1.0,56,49.49
956,G#3,226.0,0.333,40,49.49
957,C3,226.0,1.0,46,49.49
958,C2,226.0,1.0,46,49.49
959,E-4,226.333,0.333,37,49.49
960,F#4,226.667,0.333,37,49.49
961,G#4,227.0,1.0,56,49.49
962,G#3,227.0,0.333,40,49.49
963,C#3,227.0,1.0,40,49.49
964,C#2,227.0,1.0,40,49.49
965,C#4,227.333,0.333,37,49.49
966,E4,227.667,0.333,37,49.49
967,F#4,228.0,2.0,56,49.49
968,F#3,228.0,0.333,40,49.49
969,A1,228.0,2.0,46,49.49
970,A2,228.0,2.0,46,49.49
971,C#4,228.333,0.333,42,49.49
972,E-4,228.667,0.333,46,49.49
973,F#3,229.0,0.333,46,49.49
974,C#4,229.333,0.333,47,49.49
975,E-4,229.667,0.333,50,49.49
976,G#4,230.0,1.0,67,49.49
977,G#3,230.0,0.333,53,49.49
978,G#1,230.0,1.0,50,49.49
979,G#2,230.0,1.0,50,49.49
980,C#4,230.333,0.333,53,49.49
981,E-4,230.667,0.333,53,49.49
982,A4,231.0,1.0,77,49.49
983,A3,231.0,0.333,60,49.49
984,F#2,231.0,1.0,57,49.49
985,F#1,231.0,1.0,57,49.49
986,C#4,231.333,0.333,57,49.49
987,E-4,231.667,0.333,55,49.49
988,G#4,232.0,2.0,56,49.49
989,G#3,232.0,0.333,40,49.49
990,G#1,232.0,2.0,46,49.49
991,G#2,232.0,2.0,46,49.49
992,C#4,232.333,0.333,37,49.49
993,E4,232.667,0.333,35,49.49
994,G#3,233.0,0.333,40,49.49
995,C#4,233.333,0.333,37,49.49
996,E4,233.667,0.333,37,49.49
997,G#4,234.0,2.0,47,49.49
998,F#3,234.0,0.333,40,49.49
999,G#1,234.0,2.0,46,49.49
1000,G#2,234.0,2.0,46,49.49
1001,C4,234.333,0.333,35,49.49
1002,E-4,234.667,0.333,31,49.49
1003,F#3,235.0,0.333,30,49.49
1004,C4,235.333,0.333,26,49.49
1005,E-4,235.667,0.333,26,49.49
1006,G#2,236.0,3.0,53,49.49
1007,C#4,236.0,1.0,41,49.49
1008,E3,236.0,0.333,37,49.49
1009,C#2,236.0,4.0,37,49.49
1010,G#3,236.333,0.333,32,49.49
1011,C#4,236.667,0.333,32,49.49
1012,G#3,237.0,0.333,37,49.49
1013,C#4,237.333,0.333,32,49.49
1014,E4,237.667,0.333,32,49.49
1015,G#3,238.0,0.333,37,49.49
1016,C#4,238.333,0.333,31,49.49
1017,E4,238.667,0.333,31,49.49
1018,G#2,239.0,0.75,53,49.49
1019,G#3,239.0,0.333,37,49.49
1020,C#4,239.333,0.333,30,49.49
1021,E4,239.667,0.333,30,49.49
1022,G#2,239.75,0.25,53,49.49
1023,G#2,240.0,3.0,53,49.49
1024,G#3,240.0,0.333,37,49.49
1025,C2,240.0,4.0,37,49.49
1026,E-4,240.333,0.333,33,49.49
1027,F#4,240.667,0.333,33,49.49
1028,G#3,241.0,0.333,37,49.49
1029,E-4,241.333,0.333,30,49.49
1030,F#4,241.667,0.333,30,49.49
1031,G#3,242.0,0.333,37,49.49
1032,E-4,242.333,0.333,30,49.49
1033,F#4,242.667,0.333,30,49.49
1034,G#2,243.0,0.75,53,49.49
1035,G#3,243.0,0.333,37,49.49
1036,E-4,243.333,0.333,30,49.49
1037,F#4,243.667,0.333,30,49.49
1038,G#2,243.75,0.25,53,49.49
1039,G#2,244.0,3.0,53,49.49
1040,G#3,244.0,0.333,37,49.49
1041,C#2,244.0,4.0,37,49.49
1042,E4,244.333,0.333,35,49.49
1043,C#4,244.667,0.333,40,49.49
1044,G#4,245.0,0.333,45,49.49
1045,E4,245.333,0.333,48,49.49
1046,C#5,245.667,0.333,50,49.49
1047,G#4,246.0,0.333,48,49.49
1048,E5,246.333,0.333,53,49.49
1049,C#5,246.667,0.333,60,49.49
1050,G#2,247.0,0.75,53,49.49
1051,G#5,247.0,0.333,62,49.49
1052,E5,247.333,0.333,65,49.49
1053,C#5,247.667,0.333,71,49.49
1054,G#2,247.75,0.25,60,49.49
1055,G#2,248.0,3.0,63,49.49
1056,C5,248.0,0.333,75,49.49
1057,G#1,248.0,4.0,37,49.49
1058,E-5,248.333,0.333,75,49.49
1059,A4,248.667,0.333,75,49.49
1060,C5,249.0,0.333,70,49.49
1061,F#4,249.333,0.333,65,49.49
1062,A4,249.667,0.333,63,49.49
1063,E-4,250.0,0.333,61,49.49
1064,F#4,250.333,0.333,57,49.49
1065,A3,250.667,0.667,52,49.49
1066,G#2,251.0,0.75,62,49.49
1067,C4,251.0,1.0,50,49.49
1068,G#3,251.333,0.333,47,49.49
1069,F#3,251.667,0.333,47,49.49
1070,G#2,251.75,0.25,60,49.49
1071,G#2,252.0,3.0,53,49.49
1072,C#2,252.0,4.0,37,49.49
1073,E3,252.0,0.333,42,49.49
1074,C#4,252.0,0.333,42,49.49
1075,E4,252.333,0.333,40,49.49
1076,C#4,252.667,0.333,45,49.49
1077,G#4,253.0,0.333,48,49.49
1078,E4,253.333,0.333,53,49.49
1079,C#5,253.667,0.333,60,49.49
1080,G#4,254.0,0.333,61,49.49
1081,E5,254.333,0.333,63,49.49
1082,C#5,254.667,0.333,65,49.49
1083,G#2,255.0,0.75,53,49.49
1084,G#5,255.0,0.333,67,49.49
1085,E5,255.333,0.333,68,49.49
1086,C#5,255.667,0.333,70,49.49
1087,G#2,255.75,0.25,56,49.49
1088,G#2,256.0,3.0,63,49.49
1089,C5,256.0,0.333,75,49.49
1090,G#1,256.0,4.0,37,49.49
1091,E-5,256.333,0.333,68,49.49
1092,A4,256.667,0.333,65,49.49
1093,C5,257.0,0.333,61,49.49
1094,F#4,257.333,0.333,60,49.49
1095,A4,257.667,0.333,53,49.49
1096,E-4,258.0,0.333,50,49.49
1097,F#4,258.333,0.333,48,49.49
1098,A3,258.667,0.667,46,49.49
1099,G#2,259.0,0.75,61,49.49
1100,C4,259.0,1.0,41,49.49
1101,G#3,259.333,0.333,37,49.49
1102,F#3,259.667,0.333,35,49.49
1103,G#2,259.75,0.25,53,49.49
1104,G#2,260.0,2.0,53,49.49
1105,C#2,260.0,6.0,37,49.49
1106,C#4,260.0,0.333,50,49.49
1107,E3,260.0,0.333,50,49.49
1108,G#3,260.333,0.333,50,49.49
1109,C#4,260.667,0.333,50,49.49
1110,E4,261.0,0.333,48,49.49
1111,C#4,261.333,0.333,48,49.49
1112,G#3,261.667,0.333,47,49.49
1113,C#3,262.0,2.0,53,49.49
1114,E3,262.333,0.333,47,49.49
1115,G#3,262.667,0.333,47,49.49
1116,C#4,263.0,0.333,47,49.49
1117,G#3,263.333,0.333,46,49.49
1118,E3,263.667,0.333,46,49.49
1119,G#2,264.0,1.99,50,49.49
1120,C#3,264.333,0.333,45,49.49
1121,E3,264.625,0.333,45,49.49
1122,G#3,265.0,0.333,42,49.49
1123,E3,265.333,0.333,42,49.49
1124,C#3,265.667,0.333,41,49.49
1125,G#2,266.0,0.333,41,49.49
1126,C#3,266.333,0.333,41,49.49
1127,G#2,266.667,0.333,40,49.49
1128,E2,267.0,0.333,40,49.49
1129,G#2,267.333,0.333,38,49.49
1130,E2,267.667,0.333,37,49.49
1131,C#2,268.0,2.0,38,49.49
1132,C#4,270.0,2.0,33,49.49
1133,E3,270.0,2.0,33,49.49
1134,G#3,270.0,2.0,33,49.49
1135,G#2,270.0,2.0,28,49.49
1136,C#3,270.0,2.0,28,49.49
1137,C#2,270.0,2.0,28,49.49
1138,C#4,272.0,4.0,33,49.49
1139,E3,272.0,4.0,33,49.49
1140,G#3,272.0,4.0,33,49.49
1141,G#2,272.0,4.0,28,49.49
1142,C#3,272.0,4.0,28,49.49
1143,C#2,272.0,4.0,28,49.49
,note_name,start_time,duration,velocity,tempo
0,F4,2.0,1.0,52,210.0
1,G#4,2.0,1.0,62,210.0
2,C#5,2.0,1.0,62,210.0
3,E-4,3.002,2.0,55,210.0
4,C5,3.002,2.0,65,210.0
5,G#4,3.002,2.0,65,210.0
6,C#4,5.0,1.0,49,210.0
7,G4,5.0,1.0,58,210.0
8,B-4,5.0,1.0,58,210.0
9,C4,6.0,0.188,46,210.0
10,G#4,6.0,0.188,54,210.0
11,E-5,6.0,0.188,54,210.0
12,F4,8.0,0.188,53,210.0
13,C#5,8.0,0.188,53,210.0
14,C#3,8.0,0.188,44,210.0
15,B-3,8.0,0.188,44,210.0
16,G#4,9.0,0.188,53,210.0
17,C5,9.0,0.188,53,210.0
18,E-4,9.0,0.188,45,210.0
19,E-3,9.0,0.188,45,210.0
20,G4,11.0,0.188,52,210.0
21,B-4,11.0,0.188,52,210.0
22,E-3,11.0,0.188,42,210.0
23,C#4,11.0,0.188,42,210.0
24,G#4,12.0,0.188,51,210.0
25,G#3,12.0,0.188,41,210.0
26,C4,12.0,0.188,41,210.0
27,B-4,14.0,1.0,55,210.0
28,C#5,14.0,1.0,65,210.0
29,F#5,14.0,1.0,65,210.0
30,G#4,15.0,2.0,55,210.0
31,C#5,15.0,2.0,65,210.0
32,F5,15.0,2.0,65,210.0
33,F#4,17.0,1.0,52,210.0
34,C5,17.0,1.0,61,210.0
35,E-5,17.0,1.0,61,210.0
36,F4,18.0,0.188,47,210.0
37,C#5,18.0,0.188,56,210.0
38,G#5,18.0,0.188,56,210.0
39,B-4,20.0,0.188,55,210.0
40,F#5,20.0,0.188,55,210.0
41,F#3,20.0,0.188,47,210.0
42,E-4,20.0,0.188,47,210.0
43,C#5,21.0,0.188,55,210.0
44,F5,21.0,0.188,55,210.0
45,G#3,21.0,0.188,47,210.0
46,G#4,21.0,0.188,47,210.0
47,C5,23.0,0.188,53,210.0
48,E-5,23.0,0.188,53,210.0
49,G#3,23.0,0.188,45,210.0
50,F#4,23.0,0.188,45,210.0
51,C#5,24.0,0.188,50,210.0
52,C#4,24.0,0.188,44,210.0
53,F4,24.0,0.188,44,210.0
54,C#4,26.0,2.0,65,210.0
55,C#5,26.0,2.0,65,210.0
56,F3,26.0,1.0,47,210.0
57,G#3,26.0,1.0,47,210.0
58,E-3,27.0,2.0,55,210.0
59,G#3,27.0,2.0,55,210.0
60,C4,28.0,1.0,65,210.0
61,C5,28.0,1.0,65,210.0
62,B-3,29.0,1.0,65,210.0
63,B-4,29.0,2.0,65,210.0
64,G3,29.0,1.0,49,210.0
65,C#3,29.0,1.0,49,210.0
66,E-4,30.0,1.0,65,210.0
67,C3,30.0,1.0,55,210.0
68,C4,30.0,1.0,55,210.0
69,E-5,31.0,0.25,65,210.0
70,C#5,32.0,2.0,62,210.0
71,F4,32.0,1.0,62,210.0
72,C#3,32.0,0.5,48,210.0
73,B-3,32.0,0.5,48,210.0
74,G#4,33.0,1.0,62,210.0
75,E-3,33.0,0.5,52,210.0
76,E-4,33.0,0.5,52,210.0
77,C5,34.0,1.0,62,210.0
78,G4,35.0,1.0,58,210.0
79,B-4,35.0,2.0,58,210.0
80,E-3,35.0,0.5,45,210.0
81,C#4,35.0,0.5,45,210.0
82,G#3,36.0,0.5,48,210.0
83,C4,36.0,0.5,48,210.0
84,G#4,37.0,0.5,56,210.0
85,F#4,38.0,2.0,66,210.0
86,F#5,38.0,2.0,66,210.0
87,B-3,38.0,1.0,49,210.0
88,C#4,38.0,1.0,49,210.0
89,G#3,39.0,2.0,56,210.0
90,C#4,39.0,2.0,56,210.0
91,F4,40.0,1.0,65,210.0
92,F5,40.0,1.0,65,210.0
93,E-4,41.0,1.0,65,210.0
94,E-5,41.0,2.0,65,210.0
95,F#3,41.0,1.0,55,210.0
96,C4,41.0,1.0,55,210.0
97,G#4,42.0,1.0,73,210.0
98,F3,42.0,1.0,60,210.0
99,F4,42.0,1.0,60,210.0
100,G#5,43.0,0.25,73,210.0
101,B-4,44.0,1.0,62,210.0
102,F#5,44.0,2.0,62,210.0
103,F#3,44.0,0.5,46,210.0
104,E-4,44.0,0.5,46,210.0
105,C#5,45.0,1.0,62,210.0
106,G#3,45.0,0.5,52,210.0
107,G#4,45.0,0.5,52,210.0
108,F5,46.0,1.0,62,210.0
109,E-5,47.0,2.0,62,210.0
110,C5,47.0,1.0,62,210.0
111,G#3,47.0,0.5,45,210.0
112,F#4,47.0,0.5,45,210.0
113,C#4,48.0,0.5,47,210.0
114,F4,48.0,0.5,47,210.0
115,C#5,49.0,0.5,59,210.0
116,C#4,50.0,1.0,46,210.0
117,C#5,50.0,1.0,53,210.0
118,F4,50.0,1.0,53,210.0
119,B-3,51.0,2.0,50,210.0
120,C#5,51.0,2.0,58,210.0
121,F4,51.0,2.0,58,210.0
122,G#3,53.0,1.0,50,210.0
123,F4,53.0,1.0,57,210.0
124,C#5,53.0,1.0,57,210.0
125,E-4,54.0,2.0,57,210.0
126,C#5,54.0,1.0,57,210.0
127,G3,54.0,1.0,50,210.0
128,C5,55.0,0.5,58,210.0
129,G#3,55.0,0.5,47,210.0
130,G#3,56.0,1.0,47,210.0
131,E-4,56.0,1.0,58,210.0
132,B4,56.0,1.0,58,210.0
133,G#3,57.0,2.0,47,210.0
134,E-4,57.0,2.0,58,210.0
135,B4,57.0,2.0,58,210.0
136,F#3,59.0,1.0,47,210.0
137,E-4,59.0,1.0,56,210.0
138,B4,59.0,1.0,56,210.0
139,E-4,60.0,2.0,56,210.0
140,B4,60.0,1.0,56,210.0
141,F3,60.0,1.0,48,210.0
142,B-4,61.0,0.5,56,210.0
143,F#3,61.0,0.5,48,210.0
144,F#3,62.0,1.0,55,210.0
145,C#4,62.0,1.0,65,210.0
146,B-4,62.0,1.0,65,210.0
147,F#4,63.0,2.0,75,210.0
148,C5,63.0,2.0,75,210.0
149,E-3,63.0,2.0,58,210.0
150,G#3,63.0,2.0,58,210.0
151,F4,65.0,1.0,78,210.0
152,C#5,65.0,1.0,78,210.0
153,C#3,65.0,1.0,65,210.0
154,G#3,65.0,1.0,65,210.0
155,F#4,66.0,2.0,90,210.0
156,E-5,66.0,2.0,90,210.0
157,C3,66.0,3.0,73,210.0
158,G#3,66.0,3.0,73,210.0
159,E-4,68.0,2.0,77,210.0
160,F#4,68.0,2.0,77,210.0
161,C#3,69.0,2.0,56,210.0
162,G#3,69.0,2.0,56,210.0
163,C#4,70.0,1.0,65,210.0
164,F4,70.0,1.0,65,210.0
165,B-4,71.0,0.5,65,210.0
166,B-3,71.0,1.0,65,210.0
167,F#3,71.0,0.5,55,210.0
168,F#2,71.0,1.0,55,210.0
169,F#4,71.5,0.5,65,210.0
170,E-3,71.5,0.5,55,210.0
171,C#4,72.0,1.0,71,210.0
172,F4,72.0,1.0,71,210.0
173,F#2,72.0,1.5,55,210.0
174,G#3,72.0,1.5,55,210.0
175,C4,73.0,0.5,65,210.0
176,E-4,73.0,0.5,65,210.0
177,C#4,74.0,1.0,65,210.0
178,C#5,74.0,1.0,65,210.0
179,F3,74.0,1.0,51,210.0
180,G#3,74.0,1.0,51,210.0
181,C4,75.0,2.0,66,210.0
182,C5,75.0,2.0,66,210.0
183,E-3,75.0,2.0,56,210.0
184,G#3,75.0,2.0,56,210.0
185,B-4,77.0,1.0,61,210.0
186,B-3,77.0,1.0,61,210.0
187,C#3,77.0,1.0,47,210.0
188,G3,77.0,1.0,47,210.0
189,E-4,78.0,0.188,59,210.0
190,E-5,78.0,0.188,59,210.0
191,C3,78.0,0.188,49,210.0
192,C4,78.0,0.188,49,210.0
193,F4,80.0,1.0,64,210.0
194,C#5,80.0,2.0,64,210.0
195,C#3,80.0,0.5,48,210.0
196,B-3,80.0,0.5,48,210.0
197,G#4,81.0,1.0,64,210.0
198,E-3,81.0,0.5,54,210.0
199,E-4,81.0,0.5,54,210.0
200,C5,82.0,1.0,64,210.0
201,G4,83.0,1.0,60,210.0
202,B-4,83.0,2.0,60,210.0
203,E-3,83.0,0.5,47,210.0
204,C#4,83.0,0.5,47,210.0
205,G#3,84.0,0.5,51,210.0
206,C4,84.0,0.5,51,210.0
207,G#4,85.0,0.5,60,210.0
208,F#4,86.0,1.0,64,210.0
209,F#5,86.0,1.0,64,210.0
210,B-3,86.0,1.0,49,210.0
211,C#4,86.0,1.0,49,210.0
212,F4,87.0,2.0,65,210.0
213,F5,87.0,2.0,65,210.0
214,G#3,87.0,2.0,56,210.0
215,C#4,87.0,2.0,56,210.0
216,E-4,89.0,1.0,64,210.0
217,E-5,89.0,1.0,64,210.0
218,F#3,89.0,1.0,49,210.0
219,C4,89.0,1.0,49,210.0
220,G#4,90.0,0.188,62,210.0
221,G#5,90.0,0.188,62,210.0
222,F3,90.0,0.188,53,210.0
223,C#4,90.0,0.188,53,210.0
224,F#4,92.0,2.0,64,210.0
225,F#5,92.0,2.0,64,210.0
226,B-3,92.0,1.0,47,210.0
227,C#4,92.0,1.0,47,210.0
228,G#3,93.0,2.0,55,210.0
229,C#4,93.0,2.0,55,210.0
230,F4,94.0,1.0,64,210.0
231,F5,94.0,1.0,64,210.0
232,E-4,95.0,0.5,64,210.0
233,E-5,95.0,0.5,64,210.0
234,F#3,95.0,1.0,47,210.0
235,C4,95.0,1.0,47,210.0
236,G#4,96.0,0.188,65,210.0
237,G#5,96.0,0.188,65,210.0
238,F3,96.0,0.188,56,210.0
239,C#4,96.0,0.188,56,210.0
240,F#4,98.0,2.0,74,210.0
241,F#5,98.0,2.0,74,210.0
242,B-3,98.0,1.0,54,210.0
243,C#4,98.0,1.0,54,210.0
244,G#3,99.0,2.0,61,210.0
245,C#4,99.0,2.0,61,210.0
246,F4,100.0,1.0,80,210.0
247,F5,100.0,1.0,80,210.0
248,B-4,101.0,2.0,97,210.0
249,B-5,101.0,2.0,97,210.0
250,G3,101.0,1.0,71,210.0
251,E4,101.0,1.0,71,210.0
252,C#4,101.0,1.0,71,210.0
253,G#3,102.0,1.0,74,210.0
254,C#4,102.0,1.0,74,210.0
255,F4,102.0,1.0,74,210.0
256,G#4,103.0,1.0,77,210.0
257,G#5,103.0,1.0,77,210.0
258,F#3,105.0,3.0,64,210.0
259,C4,105.0,2.0,64,210.0
260,G#1,105.0,3.0,54,210.0
261,G#2,105.0,3.0,54,210.0
262,E-4,107.0,0.5,61,210.0
263,C#4,107.5,0.5,61,210.0
264,F3,108.0,1.0,56,210.0
265,C#4,108.0,1.0,56,210.0
266,C#2,108.0,1.0,51,210.0
267,G#2,108.0,1.0,51,210.0
268,C#4,110.0,1.0,54,210.0
269,C#5,110.0,1.0,64,210.0
270,F4,110.0,1.0,64,210.0
271,B-3,111.0,2.0,54,210.0
272,C#5,111.0,2.0,64,210.0
273,F4,111.0,2.0,64,210.0
274,G#3,113.0,1.0,54,210.0
275,F4,113.0,1.0,64,210.0
276,C#5,113.0,1.0,64,210.0
277,E-4,114.0,2.0,64,210.0
278,C#5,114.0,1.0,64,210.0
279,G3,114.0,1.0,54,210.0
280,C5,115.0,0.5,64,210.0
281,G#3,115.0,0.5,54,210.0
282,G#3,116.0,1.0,51,210.0
283,E-4,116.0,1.0,61,210.0
284,B4,116.0,1.0,61,210.0
285,G#3,117.0,2.0,51,210.0
286,E-4,117.0,2.0,61,210.0
287,B4,117.0,2.0,61,210.0
288,F#3,119.0,1.0,51,210.0
289,E-4,119.0,1.0,58,210.0
290,B4,119.0,1.0,58,210.0
291,E-4,120.0,2.0,58,210.0
292,B4,120.0,1.0,58,210.0
293,F3,120.0,1.0,51,210.0
294,B-4,121.0,0.5,58,210.0
295,F#3,121.0,0.5,51,210.0
296,F#3,122.0,1.0,54,210.0
297,C#4,122.0,1.0,64,210.0
298,B-4,122.0,1.0,64,210.0
299,F#4,123.0,2.0,74,210.0
300,C5,123.0,2.0,74,210.0
301,E-3,123.0,2.0,58,210.0
302,G#3,123.0,2.0,58,210.0
303,F4,125.0,1.0,77,210.0
304,C#5,125.0,1.0,77,210.0
305,C#3,125.0,1.0,64,210.0
306,G#3,125.0,1.0,64,210.0
307,F#4,126.0,2.0,89,210.0
308,E-5,126.0,2.0,89,210.0
309,C3,126.0,3.0,72,210.0
310,G#3,126.0,3.0,72,210.0
311,E-4,128.0,2.0,76,210.0
312,F#4,128.0,2.0,76,210.0
313,C#3,129.0,2.0,56,210.0
314,G#3,129.0,2.0,56,210.0
315,C#4,130.0,1.0,64,210.0
316,F4,130.0,1.0,64,210.0
317,B-4,131.0,0.5,64,210.0
318,B-3,131.0,1.0,64,210.0
319,F#3,131.0,0.5,54,210.0
320,F#2,131.0,1.0,54,210.0
321,F#4,131.5,0.5,64,210.0
322,E-3,131.5,0.5,54,210.0
323,C#4,132.0,1.0,71,210.0
324,F4,132.0,1.0,71,210.0
325,F#2,132.0,1.5,54,210.0
326,G#3,132.0,1.5,54,210.0
327,C4,133.0,0.5,64,210.0
328,E-4,133.0,0.5,64,210.0
329,C#4,134.0,1.0,64,210.0
330,C#5,134.0,1.0,64,210.0
331,F3,134.0,1.0,50,210.0
332,G#3,134.0,1.0,50,210.0
333,C4,135.0,2.0,65,210.0
334,C5,135.0,2.0,65,210.0
335,E-3,135.0,2.0,56,210.0
336,G#3,135.0,2.0,56,210.0
337,B-4,137.0,1.0,62,210.0
338,B-3,137.0,1.0,62,210.0
339,C#3,137.0,1.0,48,210.0
340,G3,137.0,1.0,48,210.0
341,E-4,138.0,0.188,60,210.0
342,E-5,138.0,0.188,60,210.0
343,C3,138.0,0.188,50,210.0
344,C4,138.0,0.188,50,210.0
345,F4,140.0,1.0,61,210.0
346,C#5,140.0,2.0,61,210.0
347,C#3,140.0,0.5,46,210.0
348,B-3,140.0,0.5,46,210.0
349,G#4,141.0,1.0,61,210.0
350,E-3,141.0,0.5,51,210.0
351,E-4,141.0,0.5,51,210.0
352,C5,142.0,1.0,61,210.0
353,G4,143.0,1.0,61,210.0
354,B-4,143.0,2.0,61,210.0
355,E-3,143.0,0.5,47,210.0
356,C#4,143.0,0.5,47,210.0
357,G#3,144.0,0.5,51,210.0
358,C4,144.0,0.5,51,210.0
359,G#4,145.0,0.5,59,210.0
360,F#4,146.0,1.0,64,210.0
361,F#5,146.0,1.0,64,210.0
362,B-3,146.0,1.0,54,210.0
363,C#4,146.0,1.0,54,210.0
364,F4,147.0,2.0,65,210.0
365,F5,147.0,2.0,65,210.0
366,G#3,147.0,2.0,56,210.0
367,C#4,147.0,2.0,56,210.0
368,E-4,149.0,1.0,63,210.0
369,E-5,149.0,1.0,63,210.0
370,F#3,149.0,1.0,47,210.0
371,C4,149.0,1.0,47,210.0
372,G#4,150.0,0.188,59,210.0
373,G#5,150.0,0.188,59,210.0
374,F3,150.0,0.188,49,210.0
375,C#4,150.0,0.188,49,210.0
376,F#4,152.0,2.0,64,210.0
377,F#5,152.0,2.0,64,210.0
378,B-3,152.0,1.0,49,210.0
379,C#4,152.0,1.0,49,210.0
380,G#3,153.0,2.0,55,210.0
381,C#4,153.0,2.0,55,210.0
382,F4,154.0,1.0,64,210.0
383,F5,154.0,1.0,64,210.0
384,E-4,155.0,0.5,64,210.0
385,E-5,155.0,0.5,64,210.0
386,F#3,155.0,1.0,54,210.0
387,C4,155.0,1.0,54,210.0
388,G#4,156.0,0.188,69,210.0
389,G#5,156.0,0.188,69,210.0
390,F3,156.0,0.188,58,210.0
391,C#4,156.0,0.188,58,210.0
392,F#4,158.0,2.0,74,210.0
393,F#5,158.0,2.0,74,210.0
394,B-3,158.0,1.0,54,210.0
395,C#4,158.0,1.0,54,210.0
396,G#3,159.0,2.0,61,210.0
397,C#4,159.0,2.0,61,210.0
398,F4,160.0,1.0,84,210.0
399,F5,160.0,1.0,84,210.0
400,B-4,161.0,2.0,99,210.0
401,B-5,161.0,2.0,99,210.0
402,G3,161.0,1.0,67,210.0
403,E4,161.0,1.0,67,210.0
404,C#4,161.0,1.0,67,210.0
405,G#3,162.0,1.0,74,210.0
406,C#4,162.0,1.0,74,210.0
407,F4,162.0,1.0,74,210.0
408,G#4,163.0,1.0,77,210.0
409,G#5,163.0,1.0,77,210.0
410,F#3,165.0,3.0,64,210.0
411,C4,165.0,2.0,64,210.0
412,G#1,165.0,3.0,54,210.0
413,G#2,165.0,3.0,54,210.0
414,E-4,167.0,0.5,61,210.0
415,C#4,167.5,0.5,61,210.0
416,F3,168.0,1.0,56,210.0
417,C#4,168.0,1.0,56,210.0
418,C#2,168.0,1.0,51,210.0
419,G#2,168.0,1.0,51,210.0
420,F3,170.0,3.0,92,210.0
421,F4,170.0,3.0,92,210.0
422,C#2,171.0,3.0,65,210.0
423,G#2,171.0,12.0,77,210.0
424,F#3,173.0,3.0,90,210.0
425,F#4,173.0,3.0,90,210.0
426,E-2,174.0,3.0,62,210.0
427,E-4,176.0,2.0,94,210.0
428,E-5,176.0,2.0,94,210.0
429,F#2,177.0,3.0,73,210.0
430,C4,178.0,1.0,80,210.0
431,C5,178.0,1.0,80,210.0
432,G#3,179.0,0.25,81,210.0
433,G#4,179.0,0.25,81,210.0
434,F2,180.0,3.0,73,210.0
435,C#4,180.0,1.0,82,210.0
436,C#5,180.0,1.0,82,210.0
437,F4,181.0,0.5,76,210.0
438,F5,181.0,0.5,76,210.0
439,F3,182.0,3.0,92,210.0
440,F4,182.0,3.0,92,210.0
441,C#2,183.0,3.0,67,210.0
442,G#2,183.0,8.0,79,210.0
443,F#3,185.0,3.0,92,210.0
444,F#4,185.0,3.0,92,210.0
445,E-2,186.0,3.0,74,210.0
446,F#4,188.0,2.0,80,210.0
447,F#5,188.0,2.0,80,210.0
448,G#1,189.0,3.0,73,210.0
449,B-4,190.0,0.5,76,210.0
450,B-5,190.0,0.5,76,210.0
451,G#2,191.0,3.0,72,210.0
452,C4,191.0,0.25,73,210.0
453,C5,191.0,0.25,73,210.0
454,C#2,192.0,2.0,73,210.0
455,E-4,192.0,1.0,78,210.0
456,E-5,192.0,1.0,78,210.0
457,C#4,193.0,1.0,72,210.0
458,C#5,193.0,1.0,72,210.0
459,F3,194.0,3.0,92,210.0
460,F4,194.0,3.0,92,210.0
461,C#2,195.0,3.0,67,210.0
462,G#2,195.0,12.0,79,210.0
463,F#3,197.0,3.0,92,210.0
464,F#4,197.0,3.0,92,210.0
465,E-2,198.0,3.0,73,210.0
466,E-4,200.0,2.0,92,210.0
467,E-5,200.0,2.0,92,210.0
468,F#2,201.0,3.0,73,210.0
469,C4,202.0,1.0,80,210.0
470,C5,202.0,1.0,80,210.0
471,G#3,203.0,0.25,81,210.0
472,G#4,203.0,0.25,81,210.0
473,F2,204.0,3.0,73,210.0
474,C#4,204.0,1.0,82,210.0
475,C#5,204.0,1.0,82,210.0
476,F4,205.0,0.5,76,210.0
477,F5,205.0,0.5,76,210.0
478,F3,206.0,3.0,92,210.0
479,F4,206.0,3.0,92,210.0
480,C#2,207.0,3.0,67,210.0
481,G#2,207.0,8.0,79,210.0
482,F#3,209.0,3.0,94,210.0
483,F#4,209.0,3.0,94,210.0
484,E-2,210.0,3.0,74,210.0
485,F#4,212.0,2.0,80,210.0
486,F#5,212.0,2.0,80,210.0
487,G#1,213.0,3.0,73,210.0
488,B-4,214.0,0.5,80,210.0
489,B-5,214.0,0.5,80,210.0
490,G#2,215.0,3.0,72,210.0
491,C4,215.0,0.25,78,210.0
492,C5,215.0,0.25,78,210.0
493,C#2,216.0,2.0,66,210.0
494,E-4,216.0,1.0,73,210.0
495,E-5,216.0,1.0,73,210.0
496,C#4,217.0,1.0,68,210.0
497,C#5,217.0,1.0,68,210.0
498,F4,218.0,3.0,50,210.0
499,F5,218.0,3.0,50,210.0
500,D3,219.0,3.0,38,210.0
501,G#3,219.0,3.0,38,210.0
502,B-3,221.0,3.0,50,210.0
503,B-4,221.0,3.0,50,210.0
504,C#3,222.0,3.0,36,210.0
505,G3,222.0,3.0,36,210.0
506,E-4,224.0,3.0,44,210.0
507,E-5,224.0,3.0,44,210.0
508,C3,225.0,3.0,33,210.0
509,F#3,225.0,3.0,33,210.0
510,G#3,227.0,3.0,45,210.0
511,G#4,227.0,3.0,45,210.0
512,B2,228.0,3.0,32,210.0
513,F3,228.0,3.0,32,210.0
514,C#4,230.0,3.0,45,210.0
515,C#5,230.0,3.0,45,210.0
516,B-2,231.0,3.0,42,210.0
517,C#3,231.0,12.0,50,210.0
518,F#3,233.0,3.0,40,210.0
519,F#4,233.0,3.0,40,210.0
520,G#2,234.0,3.0,37,210.0
521,F3,236.0,2.0,40,210.0
522,F4,236.0,2.0,40,210.0
523,C#2,237.0,1.0,36,210.0
524,F2,238.0,1.0,36,210.0
525,G#3,238.0,1.0,40,210.0
526,G#4,238.0,1.0,40,210.0
527,G#2,239.0,1.0,41,210.0
528,B3,239.0,2.0,40,210.0
529,B4,239.0,2.0,40,210.0
530,F#2,240.0,3.0,36,210.0
531,B-3,241.0,0.5,40,210.0
532,B-4,241.0,0.5,40,210.0
533,C#4,242.0,3.0,44,210.0
534,C#5,242.0,3.0,44,210.0
535,B-2,243.0,3.0,41,210.0
536,C#3,243.0,12.0,49,210.0
537,F#3,245.0,3.0,44,210.0
538,F#4,245.0,3.0,44,210.0
539,G#2,246.0,3.0,37,210.0
540,F3,248.0,3.0,43,210.0
541,F4,248.0,3.0,43,210.0
542,G2,249.0,3.0,37,210.0
543,E3,251.0,3.0,46,210.0
544,E4,251.0,3.0,46,210.0
545,G#2,252.0,3.0,37,210.0
546,F3,254.0,3.0,59,210.0
547,F4,254.0,3.0,59,210.0
548,B-2,255.0,3.0,45,210.0
549,C#3,255.0,6.0,38,210.0
550,F#3,257.0,3.0,80,210.0
551,F#4,257.0,3.0,80,210.0
552,G#2,258.0,5.0,54,210.0
553,F3,260.0,2.0,61,210.0
554,F4,260.0,2.0,61,210.0
555,G#1,261.0,2.0,54,210.0
556,F#3,262.0,0.5,59,210.0
557,F#4,262.0,0.5,59,210.0
558,G#2,263.0,0.25,48,210.0
559,C3,263.0,0.25,52,210.0
560,C4,263.0,0.25,52,210.0
561,C#2,264.0,0.25,48,210.0
562,C#3,264.0,0.25,52,210.0
563,C#4,264.0,0.25,52,210.0
564,F4,266.0,3.0,48,210.0
565,F5,266.0,3.0,48,210.0
566,D3,267.0,3.0,36,210.0
567,G#3,267.0,3.0,36,210.0
568,B-3,269.0,3.0,45,210.0
569,B-4,269.0,3.0,45,210.0
570,C#3,270.0,3.0,32,210.0
571,G3,270.0,3.0,32,210.0
572,E-4,272.0,3.0,45,210.0
573,E-5,272.0,3.0,45,210.0
574,C3,273.0,3.0,34,210.0
575,F#3,273.0,3.0,34,210.0
576,G#3,275.0,3.0,43,210.0
577,G#4,275.0,3.0,43,210.0
578,B2,276.0,3.0,31,210.0
579,F3,276.0,3.0,31,210.0
580,C#4,278.0,3.0,45,210.0
581,C#5,278.0,3.0,45,210.0
582,B-2,279.0,3.0,42,210.0
583,C#3,279.0,12.0,50,210.0
584,F#3,281.0,3.0,38,210.0
585,F#4,281.0,3.0,38,210.0
586,G#2,282.0,3.0,36,210.0
587,F3,284.0,2.0,40,210.0
588,F4,284.0,2.0,40,210.0
589,C#2,285.0,1.0,35,210.0
590,F2,286.0,1.0,35,210.0
591,G#3,286.0,1.0,40,210.0
592,G#4,286.0,1.0,40,210.0
593,G#2,287.0,1.0,39,210.0
594,B3,287.0,2.0,46,210.0
595,B4,287.0,2.0,46,210.0
596,F#2,288.0,3.0,41,210.0
597,B-3,289.0,0.5,40,210.0
598,B-4,289.0,0.5,40,210.0
599,C#4,290.0,3.0,47,210.0
600,C#5,290.0,3.0,47,210.0
601,B-2,291.0,3.0,39,210.0
602,C#3,291.0,12.0,47,210.0
603,F#3,293.0,3.0,45,210.0
604,F#4,293.0,3.0,45,210.0
605,G#2,294.0,3.0,39,210.0
606,F3,296.0,3.0,42,210.0
607,F4,296.0,3.0,42,210.0
608,G2,297.0,3.0,39,210.0
609,E3,299.0,3.0,43,210.0
610,E4,299.0,3.0,43,210.0
611,G#2,300.0,3.0,39,210.0
612,F3,302.0,3.0,59,210.0
613,F4,302.0,3.0,59,210.0
614,B-2,303.0,3.0,38,210.0
615,C#3,303.0,6.0,45,210.0
616,F#3,305.0,3.0,78,210.0
617,F#4,305.0,3.0,78,210.0
618,G#2,306.0,5.0,54,210.0
619,F3,308.0,2.0,61,210.0
620,F4,308.0,2.0,61,210.0
621,G#1,309.0,2.0,54,210.0
622,F#3,310.0,0.5,59,210.0
623,F#4,310.0,0.5,59,210.0
624,G#2,311.0,0.25,52,210.0
625,C3,311.0,0.25,54,210.0
626,C4,311.0,0.25,54,210.0
627,C#2,312.0,0.25,52,210.0
628,C#3,312.0,0.25,54,210.0
629,C#4,312.0,0.25,54,210.0
630,F4,314.0,1.0,54,210.0
631,G#4,314.0,1.0,64,210.0
632,C#5,314.0,1.0,64,210.0
633,E-4,315.002,2.0,54,210.0
634,C5,315.002,2.0,64,210.0
635,G#4,315.002,2.0,64,210.0
636,C#4,317.0,1.0,50,210.0
637,G4,317.0,1.0,59,210.0
638,B-4,317.0,1.0,59,210.0
639,C4,318.0,0.188,46,210.0
640,G#4,318.0,0.188,55,210.0
641,E-5,318.0,0.188,55,210.0
642,F4,320.0,0.188,55,210.0
643,C#5,320.0,0.188,55,210.0
644,C#3,320.0,0.188,45,210.0
645,B-3,320.0,0.188,45,210.0
646,G#4,321.0,0.188,55,210.0
647,C5,321.0,0.188,55,210.0
648,E-4,321.0,0.188,47,210.0
649,E-3,321.0,0.188,47,210.0
650,G4,323.0,0.188,50,210.0
651,B-4,323.0,0.188,50,210.0
652,E-3,323.0,0.188,40,210.0
653,C#4,323.0,0.188,40,210.0
654,G#4,324.0,0.188,48,210.0
655,G#3,324.0,0.188,42,210.0
656,C4,324.0,0.188,42,210.0
657,B-4,326.0,1.0,49,210.0
658,C#5,326.0,1.0,64,210.0
659,F#5,326.0,1.0,64,210.0
660,G#4,327.0,2.0,54,210.0
661,C#5,327.0,2.0,64,210.0
662,F5,327.0,2.0,64,210.0
663,F#4,329.0,1.0,46,210.0
664,C5,329.0,1.0,60,210.0
665,E-5,329.0,1.0,60,210.0
666,F4,330.0,0.188,48,210.0
667,C#5,330.0,0.188,56,210.0
668,G#5,330.0,0.188,56,210.0
669,B-4,332.0,0.188,55,210.0
670,F#5,332.0,0.188,55,210.0
671,F#3,332.0,0.188,45,210.0
672,E-4,332.0,0.188,45,210.0
673,C#5,333.0,0.188,56,210.0
674,F5,333.0,0.188,56,210.0
675,G#3,333.0,0.188,47,210.0
676,G#4,333.0,0.188,47,210.0
677,C5,335.0,0.188,54,210.0
678,E-5,335.0,0.188,54,210.0
679,G#3,335.0,0.188,40,210.0
680,F#4,335.0,0.188,40,210.0
681,C#5,336.0,0.188,51,210.0
682,C#4,336.0,0.188,42,210.0
683,F4,336.0,0.188,42,210.0
684,C#4,338.0,2.0,64,210.0
685,C#5,338.0,2.0,64,210.0
686,F3,338.0,1.0,49,210.0
687,G#3,338.0,1.0,49,210.0
688,E-3,339.0,2.0,54,210.0
689,G#3,339.0,2.0,54,210.0
690,C4,340.0,1.0,64,210.0
691,C5,340.0,1.0,64,210.0
692,B-3,341.0,1.0,64,210.0
693,B-4,341.0,2.0,64,210.0
694,G3,341.0,1.0,49,210.0
695,C#3,341.0,1.0,49,210.0
696,E-4,342.0,1.0,64,210.0
697,C3,342.0,1.0,54,210.0
698,C4,342.0,1.0,54,210.0
699,E-5,343.0,0.25,64,210.0
700,C#5,344.0,2.0,59,210.0
701,F4,344.0,1.0,59,210.0
702,C#3,344.0,0.5,46,210.0
703,B-3,344.0,0.5,46,210.0
704,G#4,345.0,1.0,59,210.0
705,E-3,345.0,0.5,49,210.0
706,E-4,345.0,0.5,49,210.0
707,C5,346.0,1.0,59,210.0
708,G4,347.0,1.0,59,210.0
709,B-4,347.0,2.0,59,210.0
710,E-3,347.0,0.5,45,210.0
711,C#4,347.0,0.5,45,210.0
712,G#3,348.0,0.5,46,210.0
713,C4,348.0,0.5,46,210.0
714,G#4,349.0,0.5,64,210.0
715,F#4,350.0,2.0,64,210.0
716,F#5,350.0,2.0,64,210.0
717,B-3,350.0,1.0,49,210.0
718,C#4,350.0,1.0,49,210.0
719,G#3,351.0,2.0,54,210.0
720,C#4,351.0,2.0,54,210.0
721,F4,352.0,1.0,64,210.0
722,F5,352.0,1.0,64,210.0
723,E-4,353.0,1.0,64,210.0
724,E-5,353.0,2.0,64,210.0
725,F#3,353.0,1.0,54,210.0
726,C4,353.0,1.0,54,210.0
727,G#4,354.0,1.0,69,210.0
728,F3,354.0,1.0,57,210.0
729,F4,354.0,1.0,57,210.0
730,G#5,355.0,0.25,69,210.0
731,B-4,356.0,1.0,64,210.0
732,F#5,356.0,2.0,64,210.0
733,F#3,356.0,0.5,50,210.0
734,E-4,356.0,0.5,50,210.0
735,C#5,357.0,1.0,64,210.0
736,G#3,357.0,0.5,54,210.0
737,G#4,357.0,0.5,54,210.0
738,F5,358.0,0.5,59,210.0
739,E-5,359.0,2.0,59,210.0
740,C5,359.0,1.0,59,210.0
741,G#3,359.0,0.5,45,210.0
742,F#4,359.0,0.5,45,210.0
743,C#4,360.0,0.5,48,210.0
744,F4,360.0,0.5,48,210.0
745,C#5,361.0,0.5,56,210.0
746,C#4,362.0,1.0,54,210.0
747,C#5,362.0,1.0,64,210.0
748,F4,362.0,1.0,64,210.0
749,B-3,363.0,2.0,54,210.0
750,C#5,363.0,2.0,64,210.0
751,F4,363.0,2.0,64,210.0
752,G#3,365.0,1.0,54,210.0
753,F4,365.0,1.0,64,210.0
754,C#5,365.0,1.0,64,210.0
755,E-4,366.0,2.0,64,210.0
756,C#5,366.0,1.0,64,210.0
757,G3,366.0,1.0,54,210.0
758,C5,367.0,0.5,64,210.0
759,G#3,367.0,0.5,54,210.0
760,G#3,368.0,1.0,50,210.0
761,E-4,368.0,1.0,57,210.0
762,B4,368.0,1.0,57,210.0
763,G#3,369.0,2.0,50,210.0
764,E-4,369.0,2.0,58,210.0
765,B4,369.0,2.0,58,210.0
766,F#3,371.0,1.0,48,210.0
767,E-4,371.0,1.0,58,210.0
768,B4,371.0,1.0,58,210.0
769,E-4,372.0,2.0,58,210.0
770,B4,372.0,1.0,58,210.0
771,F3,372.0,1.0,48,210.0
772,B-4,373.0,0.5,58,210.0
773,F#3,373.0,0.5,48,210.0
774,F#3,374.0,1.0,54,210.0
775,C#4,374.0,1.0,64,210.0
776,B-4,374.0,1.0,64,210.0
777,F#4,375.0,2.0,73,210.0
778,C5,375.0,2.0,73,210.0
779,E-3,375.0,2.0,54,210.0
780,G#3,375.0,2.0,54,210.0
781,F4,377.0,1.0,77,210.0
782,C#5,377.0,1.0,77,210.0
783,C#3,377.0,1.0,54,210.0
784,G#3,377.0,1.0,54,210.0
785,F#4,378.0,2.0,88,210.0
786,E-5,378.0,2.0,88,210.0
787,C3,378.0,3.0,54,210.0
788,G#3,378.0,3.0,54,210.0
789,E-4,380.0,2.0,75,210.0
790,F#4,380.0,2.0,75,210.0
791,C#3,381.0,2.0,54,210.0
792,G#3,381.0,2.0,54,210.0
793,C#4,382.0,1.0,64,210.0
794,F4,382.0,1.0,64,210.0
795,B-4,383.0,0.5,64,210.0
796,B-3,383.0,1.0,64,210.0
797,F#3,383.0,0.5,54,210.0
798,F#2,383.0,1.0,54,210.0
799,F#4,383.5,0.5,64,210.0
800,E-3,383.5,0.5,54,210.0
801,C#4,384.0,1.0,70,210.0
802,F4,384.0,1.0,70,210.0
803,F#2,384.0,2.0,54,210.0
804,G#3,384.0,2.0,54,210.0
805,C4,385.0,1.0,64,210.0
806,E-4,385.0,1.0,64,210.0
807,C#4,386.0,1.0,64,210.0
808,C#5,386.0,1.0,64,210.0
809,F3,386.0,1.0,49,210.0
810,G#3,386.0,1.0,49,210.0
811,C4,387.0,2.0,65,210.0
812,C5,387.0,2.0,65,210.0
813,E-3,387.0,2.0,54,210.0
814,G#3,387.0,2.0,54,210.0
815,B-4,389.0,1.0,68,210.0
816,B-3,389.0,1.0,68,210.0
817,C#3,389.0,1.0,47,210.0
818,G3,389.0,1.0,47,210.0
819,E-4,390.0,0.188,65,210.0
820,E-5,390.0,0.188,65,210.0
821,C3,390.0,0.188,54,210.0
822,C4,390.0,0.188,54,210.0
823,F4,392.0,1.0,64,210.0
824,C#5,392.0,2.0,64,210.0
825,C#3,392.0,0.5,49,210.0
826,B-3,392.0,0.5,49,210.0
827,G#4,393.0,1.0,64,210.0
828,E-3,393.0,0.5,54,210.0
829,E-4,393.0,0.5,54,210.0
830,C5,394.0,1.0,64,210.0
831,G4,395.0,1.0,59,210.0
832,B-4,395.0,2.0,59,210.0
833,E-3,395.0,0.5,45,210.0
834,C#4,395.0,0.5,45,210.0
835,G#3,396.0,0.5,51,210.0
836,C4,396.0,0.5,51,210.0
837,G#4,397.0,0.5,58,210.0
838,F#4,398.0,1.0,64,210.0
839,F#5,398.0,1.0,64,210.0
840,B-3,398.0,1.0,49,210.0
841,C#4,398.0,1.0,49,210.0
842,F4,399.0,2.0,65,210.0
843,F5,399.0,2.0,65,210.0
844,G#3,399.0,2.0,54,210.0
845,C#4,399.0,2.0,54,210.0
846,E-4,401.0,1.0,68,210.0
847,E-5,401.0,1.0,68,210.0
848,F#3,401.0,1.0,49,210.0
849,C4,401.0,1.0,49,210.0
850,G#4,402.0,0.188,65,210.0
851,G#5,402.0,0.188,65,210.0
852,F3,402.0,0.188,55,210.0
853,C#4,402.0,0.188,55,210.0
854,F#4,404.0,2.0,64,210.0
855,F#5,404.0,2.0,64,210.0
856,B-3,404.0,1.0,48,210.0
857,C#4,404.0,1.0,48,210.0
858,G#3,405.0,2.0,54,210.0
859,C#4,405.0,2.0,54,210.0
860,F4,406.0,1.0,64,210.0
861,F5,406.0,1.0,64,210.0
862,E-4,407.0,0.5,64,210.0
863,E-5,407.0,0.5,64,210.0
864,F#3,407.0,1.0,48,210.0
865,C4,407.0,1.0,48,210.0
866,G#4,408.0,0.188,64,210.0
867,G#5,408.0,0.188,64,210.0
868,F3,408.0,0.188,54,210.0
869,C#4,408.0,0.188,54,210.0
870,F#4,410.0,2.0,73,210.0
871,F#5,410.0,2.0,73,210.0
872,B-3,410.0,1.0,49,210.0
873,C#4,410.0,1.0,49,210.0
874,G#3,411.0,2.0,54,210.0
875,C#4,411.0,2.0,54,210.0
876,F4,412.0,1.0,85,210.0
877,F5,412.0,1.0,85,210.0
878,B-4,413.0,2.0,103,210.0
879,B-5,413.0,2.0,103,210.0
880,G3,413.0,1.0,62,210.0
881,E4,413.0,1.0,62,210.0
882,C#4,413.0,1.0,62,210.0
883,G#3,414.0,1.0,65,210.0
884,C#4,414.0,1.0,65,210.0
885,F4,414.0,1.0,65,210.0
886,G#4,415.0,1.0,77,210.0
887,G#5,415.0,1.0,77,210.0
888,F#3,417.0,3.0,64,210.0
889,C4,417.0,2.0,64,210.0
890,G#1,417.0,3.0,54,210.0
891,G#2,417.0,3.0,54,210.0
892,E-4,419.0,0.5,60,210.0
893,C#4,419.5,0.5,60,210.0
894,F3,420.0,1.0,56,210.0
895,C#4,420.0,1.0,56,210.0
896,C#2,420.0,1.0,54,210.0
897,G#2,420.0,1.0,54,210.0
,note_name,start_time,duration,velocity,tempo
0,C#2,0.002,0.25,42,166.74
1,G#2,0.25,0.24,46,166.74
2,C#3,0.5,0.292,48,166.74
3,G#2,0.5,0.25,39,166.74
4,E3,0.75,0.292,50,166.74
5,G#3,1.0,0.292,51,166.74
6,C#2,1.0,0.25,43,166.74
7,C#3,1.25,0.292,46,166.74
8,E3,1.5,0.292,47,166.74
9,G#2,1.5,0.25,39,166.74
10,G#3,1.75,0.292,49,166.74
11,C#4,2.0,0.292,51,166.74
12,C#2,2.0,0.25,41,166.74
13,E3,2.25,0.292,46,166.74
14,G#3,2.5,0.292,47,166.74
15,G#2,2.5,0.25,39,166.74
16,C#4,2.75,0.292,49,166.74
17,E4,3.0,0.292,51,166.74
18,C#2,3.0,0.25,42,166.74
19,G#3,3.25,0.292,47,166.74
20,C#4,3.5,0.292,48,166.74
21,G#2,3.5,0.25,39,166.74
22,E4,3.75,0.292,49,166.74
23,G#4,4.0,0.292,50,166.74
24,C#2,4.0,0.25,43,166.74
25,C#4,4.25,0.292,47,166.74
26,E4,4.5,0.292,47,166.74
27,G#2,4.5,0.25,41,166.74
28,G#4,4.75,0.292,49,166.74
29,C#5,5.0,0.292,50,166.74
30,C#2,5.0,0.25,43,166.74
31,E4,5.25,0.292,51,166.74
32,G#4,5.5,0.292,47,166.74
33,G#2,5.5,0.25,40,166.74
34,C#5,5.75,0.292,51,166.74
35,E5,6.0,0.292,52,166.74
36,C#2,6.0,0.25,41,166.74
37,G#4,6.25,0.292,50,166.74
38,C#5,6.5,0.292,51,166.74
39,G#2,6.5,0.25,39,166.74
40,E5,6.75,0.25,54,166.74
41,G#4,7.0,0.25,86,166.74
42,E5,7.0,0.25,86,166.74
43,G#5,7.0,0.25,86,166.74
44,C#5,7.0,0.25,86,166.74
45,C#3,7.0,0.25,72,166.74
46,C#2,7.0,0.25,72,166.74
47,G#2,7.5,0.25,67,166.74
48,G#4,7.5,0.25,73,166.74
49,C#5,7.5,0.25,73,166.74
50,G#5,7.5,0.25,73,166.74
51,E5,7.5,0.25,73,166.74
52,C2,8.0,0.25,41,166.74
53,G#2,8.25,0.24,47,166.74
54,C3,8.5,0.292,48,166.74
55,G#2,8.5,0.25,37,166.74
56,E-3,8.75,0.292,50,166.74
57,G#3,9.0,0.292,51,166.74
58,C2,9.0,0.25,41,166.74
59,C3,9.25,0.292,47,166.74
60,E-3,9.5,0.292,48,166.74
61,G#2,9.5,0.25,37,166.74
62,G#3,9.75,0.292,51,166.74
63,C4,10.0,0.292,52,166.74
64,C2,10.0,0.25,40,166.74
65,E-3,10.25,0.292,47,166.74
66,G#3,10.5,0.292,48,166.74
67,G#2,10.5,0.25,37,166.74
68,C4,10.75,0.292,50,166.74
69,E-4,11.0,0.292,51,166.74
70,C2,11.0,0.25,40,166.74
71,G#3,11.25,0.292,46,166.74
72,C4,11.5,0.292,47,166.74
73,G#2,11.5,0.25,38,166.74
74,E-4,11.75,0.292,49,166.74
75,G#4,12.0,0.292,51,166.74
76,C2,12.0,0.25,40,166.74
77,C4,12.25,0.292,47,166.74
78,E-4,12.5,0.292,48,166.74
79,G#2,12.5,0.25,36,166.74
80,G#4,12.75,0.292,50,166.74
81,C5,13.0,0.292,51,166.74
82,C2,13.0,0.25,40,166.74
83,E-4,13.25,0.292,47,166.74
84,G#4,13.5,0.292,48,166.74
85,G#2,13.5,0.25,37,166.74
86,C5,13.75,0.292,51,166.74
87,E-5,14.0,0.292,52,166.74
88,C2,14.0,0.25,40,166.74
89,G#4,14.25,0.292,51,166.74
90,C5,14.5,0.292,51,166.74
91,G#2,14.5,0.25,37,166.74
92,E-5,14.75,0.25,52,166.74
93,G#4,15.0,0.25,86,166.74
94,C5,15.0,0.25,86,166.74
95,E-5,15.0,0.25,86,166.74
96,G#5,15.0,0.25,86,166.74
97,C3,15.0,0.25,72,166.74
98,C2,15.0,0.25,72,166.74
99,G#2,15.5,0.25,65,166.74
100,C5,15.5,0.25,72,166.74
101,G#5,15.5,0.25,72,166.74
102,G#4,15.5,0.25,72,166.74
103,E-5,15.5,0.25,72,166.74
104,B1,16.0,0.25,55,166.74
105,C#3,16.25,0.292,66,166.74
106,F3,16.5,0.292,62,166.74
107,G#2,16.5,0.25,50,166.74
108,G#3,16.75,0.292,66,166.74
109,C#4,17.0,0.292,68,166.74
110,B1,17.0,0.25,56,166.74
111,F3,17.25,0.292,62,166.74
112,G#3,17.5,0.292,62,166.74
113,G#2,17.5,0.25,51,166.74
114,C#4,17.75,0.292,65,166.74
115,F4,18.0,0.292,68,166.74
116,B1,18.0,0.25,56,166.74
117,G#3,18.25,0.292,62,166.74
118,C#4,18.5,0.292,65,166.74
119,G#2,18.5,0.25,52,166.74
120,F4,18.75,0.292,67,166.74
121,G#4,19.0,0.292,68,166.74
122,B1,19.0,0.25,56,166.74
123,C#4,19.25,0.292,62,166.74
124,F4,19.5,0.292,63,166.74
125,G#2,19.5,0.25,52,166.74
126,G#4,19.75,0.292,66,166.74
127,C#5,20.0,0.292,67,166.74
128,B1,20.0,0.25,56,166.74
129,F4,20.25,0.292,62,166.74
130,G#4,20.5,0.292,62,166.74
131,G#2,20.5,0.25,52,166.74
132,C#5,20.75,0.292,66,166.74
133,F5,21.0,0.292,68,166.74
134,B1,21.0,0.25,56,166.74
135,G#4,21.25,0.292,62,166.74
136,C#5,21.5,0.292,66,166.74
137,G#2,21.5,0.25,51,166.74
138,F5,21.75,0.292,68,166.74
139,G#5,22.0,0.292,66,166.74
140,B1,22.0,0.25,56,166.74
141,C#5,22.25,0.292,68,166.74
142,F5,22.5,0.292,69,166.74
143,G#2,22.5,0.25,51,166.74
144,G#5,22.75,0.25,71,166.74
145,F5,23.0,0.25,95,166.74
146,C#6,23.0,0.25,95,166.74
147,G#5,23.0,0.25,95,166.74
148,C#5,23.0,0.25,95,166.74
149,B1,23.0,0.25,82,166.74
150,B2,23.0,0.25,82,166.74
151,G#2,23.5,0.25,73,166.74
152,G#5,23.5,0.25,84,166.74
153,C#6,23.5,0.25,84,166.74
154,C#5,23.5,0.25,84,166.74
155,F5,23.5,0.25,84,166.74
156,A1,24.0,0.25,50,166.74
157,C#3,24.25,0.292,61,166.74
158,F#3,24.5,0.292,63,166.74
159,A2,24.5,0.25,51,166.74
160,A3,24.75,0.292,62,166.74
161,C#4,25.0,0.125,69,166.74
162,A1,25.0,0.25,57,166.74
163,C#4,25.25,0.292,72,166.74
164,F#4,25.5,0.292,76,166.74
165,A2,25.5,0.25,60,166.74
166,A4,25.75,0.292,73,166.74
167,C#5,26.0,0.125,79,166.74
168,A1,26.0,0.25,57,166.74
169,C#5,26.25,0.292,77,166.74
170,F#5,26.5,0.292,81,166.74
171,A2,26.5,0.25,57,166.74
172,A5,26.75,0.25,76,166.74
173,A1,27.0,0.25,77,166.74
174,C#5,27.0,0.25,96,166.74
175,C#6,27.0,0.25,96,166.74
176,F#5,27.0,0.25,96,166.74
177,A2,27.5,0.25,77,166.74
178,C#5,27.5,0.25,93,166.74
179,F#5,27.5,0.25,93,166.74
180,C#6,27.5,0.25,93,166.74
181,A1,28.0,0.25,67,166.74
182,C#3,28.25,0.292,75,166.74
183,E3,28.5,0.292,77,166.74
184,A2,28.5,0.25,63,166.74
185,G3,28.75,0.292,79,166.74
186,C#4,29.0,0.125,76,166.74
187,A1,29.0,0.25,67,166.74
188,C#4,29.25,0.292,77,166.74
189,E4,29.5,0.292,79,166.74
190,A2,29.5,0.25,63,166.74
191,G4,29.75,0.292,79,166.74
192,C#5,30.0,0.125,80,166.74
193,A1,30.0,0.25,67,166.74
194,C#5,30.25,0.292,77,166.74
195,E5,30.5,0.292,79,166.74
196,A2,30.5,0.25,63,166.74
197,G5,30.75,0.25,80,166.74
198,A1,31.0,0.25,83,166.74
199,C#6,31.0,0.25,100,166.74
200,C#5,31.0,0.25,100,166.74
201,G5,31.0,0.25,100,166.74
202,A2,31.5,0.25,83,166.74
203,C#5,31.5,0.25,100,166.74
204,G5,31.5,0.25,100,166.74
205,C#6,31.5,0.25,100,166.74
206,C5,32.0,0.5,99,166.74
207,C6,32.0,0.5,99,166.74
208,G#5,32.0,0.5,99,166.74
209,G#2,32.0,0.5,70,166.74
210,G#1,32.0,0.5,70,166.74
211,G#4,32.5,0.25,74,166.74
212,C4,32.5,0.5,62,166.74
213,G#3,32.5,7.5,62,166.74
214,G#5,32.75,0.25,58,166.74
215,G#4,33.0,0.25,75,166.74
216,C4,33.0,0.5,62,166.74
217,G#5,33.25,0.25,60,166.74
218,B-4,33.5,0.25,76,166.74
219,C#4,33.5,0.5,62,166.74
220,G#5,33.75,0.25,60,166.74
221,C5,34.0,0.25,76,166.74
222,E-4,34.0,0.5,64,166.74
223,G#5,34.25,0.25,61,166.74
224,C#5,34.5,0.25,78,166.74
225,E4,34.5,0.5,66,166.74
226,G#5,34.75,0.25,62,166.74
227,E-5,35.0,0.25,79,166.74
228,F#4,35.0,0.5,67,166.74
229,G#5,35.25,0.25,62,166.74
230,C5,35.5,0.25,79,166.74
231,E-4,35.5,0.5,68,166.74
232,G#5,35.75,0.25,62,166.74
233,E-5,36.0,0.25,80,166.74
234,F#4,36.0,0.5,69,166.74
235,G#5,36.25,0.25,62,166.74
236,C#5,36.5,0.25,80,166.74
237,E4,36.5,0.5,71,166.74
238,G#5,36.75,0.25,62,166.74
239,F#5,37.0,0.25,84,166.74
240,A4,37.0,0.5,72,166.74
241,G#5,37.25,0.25,62,166.74
242,E5,37.5,0.25,80,166.74
243,G#4,37.5,0.5,71,166.74
244,G#5,37.75,0.25,62,166.74
245,E-5,38.0,0.25,80,166.74
246,F#4,38.0,0.5,69,166.74
247,G#5,38.25,0.25,62,166.74
248,C#5,38.5,0.25,79,166.74
249,E4,38.5,0.5,68,166.74
250,G#5,38.75,0.25,62,166.74
251,C5,39.0,0.25,79,166.74
252,E-4,39.0,0.5,67,166.74
253,G#5,39.25,0.25,62,166.74
254,A4,39.5,0.25,77,166.74
255,C#4,39.5,0.5,66,166.74
256,G5,39.75,0.25,61,166.74
257,G#4,40.0,0.25,76,166.74
258,C4,40.0,0.5,64,166.74
259,G#3,40.0,8.0,64,166.74
260,G#5,40.25,0.25,60,166.74
261,G#4,40.5,0.25,75,166.74
262,C4,40.5,0.5,63,166.74
263,G#5,40.75,0.25,59,166.74
264,G#4,41.0,0.25,74,166.74
265,C4,41.0,0.5,62,166.74
266,G#5,41.25,0.25,59,166.74
267,B-4,41.5,0.25,74,166.74
268,C#4,41.5,0.5,60,166.74
269,G#5,41.75,0.25,61,166.74
270,C5,42.0,0.25,76,166.74
271,E-4,42.0,0.5,62,166.74
272,G#5,42.25,0.25,59,166.74
273,C#5,42.5,0.25,76,166.74
274,E4,42.5,0.5,62,166.74
275,G#5,42.75,0.25,62,166.74
276,E-5,43.0,0.25,77,166.74
277,F#4,43.0,0.5,65,166.74
278,G#5,43.25,0.25,61,166.74
279,C5,43.5,0.25,79,166.74
280,E-4,43.5,0.5,67,166.74
281,G#5,43.75,0.25,62,166.74
282,E-5,44.0,0.25,79,166.74
283,F#4,44.0,0.5,68,166.74
284,G#5,44.25,0.25,62,166.74
285,C#5,44.5,0.25,80,166.74
286,E4,44.5,0.5,68,166.74
287,G#5,44.75,0.25,65,166.74
288,F#5,45.0,0.25,84,166.74
289,A4,45.0,0.5,68,166.74
290,G#5,45.25,0.25,68,166.74
291,E5,45.5,0.25,84,166.74
292,G#4,45.5,0.5,67,166.74
293,G#5,45.75,0.25,67,166.74
294,E-5,46.0,0.25,84,166.74
295,F#4,46.0,0.5,67,166.74
296,G#5,46.25,0.25,67,166.74
297,C#5,46.5,0.25,84,166.74
298,E4,46.5,0.5,67,166.74
299,G#5,46.75,0.25,66,166.74
300,C5,47.0,0.25,84,166.74
301,E-4,47.0,0.5,67,166.74
302,G#5,47.25,0.25,67,166.74
303,A4,47.5,0.25,84,166.74
304,C#4,47.5,0.5,67,166.74
305,G5,47.75,0.25,66,166.74
306,G#4,48.0,0.25,84,166.74
307,G#3,48.0,0.25,66,166.74
308,C4,48.0,0.25,66,166.74
309,G#5,48.25,0.25,66,166.74
310,A4,48.5,0.25,79,166.74
311,C#4,48.5,0.25,57,166.74
312,G#3,48.5,0.25,57,166.74
313,G5,48.75,0.25,67,166.74
314,G#4,49.0,0.25,84,166.74
315,G#3,49.0,0.25,62,166.74
316,C4,49.0,0.25,62,166.74
317,G#5,49.25,0.25,66,166.74
318,A4,49.5,0.25,79,166.74
319,C#4,49.5,0.25,57,166.74
320,G#3,49.5,0.25,57,166.74
321,G5,49.75,0.25,67,166.74
322,G#4,50.0,0.25,84,166.74
323,G#3,50.0,0.25,66,166.74
324,C4,50.0,0.25,66,166.74
325,G#5,50.25,0.25,66,166.74
326,A4,50.5,0.25,79,166.74
327,G#3,50.5,0.25,57,166.74
328,C#4,50.5,0.25,57,166.74
329,G5,50.75,0.25,65,166.74
330,G#4,51.0,0.25,84,166.74
331,G#3,51.0,0.25,62,166.74
332,C4,51.0,0.25,62,166.74
333,G#5,51.25,0.25,66,166.74
334,A4,51.5,0.25,79,166.74
335,C#4,51.5,0.25,56,166.74
336,G#3,51.5,0.25,56,166.74
337,G5,51.75,0.25,65,166.74
338,G#4,52.0,0.5,84,166.74
339,G#5,52.0,0.5,84,166.74
340,G#3,52.0,0.5,66,166.74
341,C4,52.0,0.5,66,166.74
342,G#3,53.0,3.0,113,166.74
343,G#1,53.0,3.0,84,166.74
344,G#2,53.0,3.0,84,166.74
345,C#2,56.0,0.25,43,166.74
346,G#2,56.25,0.24,45,166.74
347,C#3,56.5,0.292,47,166.74
348,G#2,56.5,0.25,39,166.74
349,E3,56.75,0.292,49,166.74
350,G#3,57.0,0.292,51,166.74
351,C#2,57.0,0.25,43,166.74
352,C#3,57.25,0.292,47,166.74
353,E3,57.5,0.292,49,166.74
354,G#2,57.5,0.25,39,166.74
355,G#3,57.75,0.292,51,166.74
356,C#4,58.0,0.292,51,166.74
357,C#2,58.0,0.25,43,166.74
358,E3,58.25,0.292,47,166.74
359,G#3,58.5,0.292,48,166.74
360,G#2,58.5,0.25,39,166.74
361,C#4,58.75,0.292,50,166.74
362,E4,59.0,0.292,51,166.74
363,C#2,59.0,0.25,43,166.74
364,G#3,59.25,0.292,47,166.74
365,C#4,59.5,0.292,48,166.74
366,G#2,59.5,0.25,39,166.74
367,E4,59.75,0.292,50,166.74
368,G#4,60.0,0.292,51,166.74
369,C#2,60.0,0.25,43,166.74
370,C#4,60.25,0.292,47,166.74
371,E4,60.5,0.292,48,166.74
372,G#2,60.5,0.25,39,166.74
373,G#4,60.75,0.292,50,166.74
374,C#5,61.0,0.292,51,166.74
375,C#2,61.0,0.25,43,166.74
376,E4,61.25,0.292,47,166.74
377,G#4,61.5,0.292,49,166.74
378,G#2,61.5,0.25,39,166.74
379,C#5,61.75,0.292,51,166.74
380,E5,62.0,0.229,51,166.74
381,C#2,62.0,0.25,43,166.74
382,E5,62.25,0.292,51,166.74
383,G#5,62.5,0.292,51,166.74
384,G#2,62.5,0.25,39,166.74
385,C#6,62.75,0.292,53,166.74
386,E5,63.0,0.25,104,166.74
387,E6,63.0,0.25,104,166.74
388,C#2,63.0,0.25,80,166.74
389,C#3,63.0,0.25,80,166.74
390,G#2,63.5,0.25,74,166.74
391,E5,63.5,0.25,81,166.74
392,E6,63.5,0.25,81,166.74
393,B-1,64.0,0.25,40,166.74
394,E3,64.25,0.292,47,166.74
395,G3,64.5,0.292,49,166.74
396,C#3,64.5,0.25,36,166.74
397,C#4,64.75,0.292,51,166.74
398,E4,65.0,0.292,51,166.74
399,B-2,65.0,0.25,40,166.74
400,G3,65.25,0.292,47,166.74
401,C#4,65.5,0.292,48,166.74
402,C#3,65.5,0.25,37,166.74
403,E4,65.75,0.292,50,166.74
404,G4,66.0,0.292,51,166.74
405,B-2,66.0,0.25,40,166.74
406,C#4,66.25,0.292,47,166.74
407,E4,66.5,0.292,48,166.74
408,C#3,66.5,0.25,37,166.74
409,G4,66.75,0.292,51,166.74
410,C#5,67.0,0.292,52,166.74
411,B-2,67.0,0.25,40,166.74
412,E4,67.25,0.292,47,166.74
413,G4,67.5,0.292,49,166.74
414,C#3,67.5,0.25,37,166.74
415,C#5,67.75,0.292,51,166.74
416,E5,68.0,0.292,53,166.74
417,B-2,68.0,0.25,40,166.74
418,G4,68.25,0.292,47,166.74
419,C#5,68.5,0.292,50,166.74
420,C#3,68.5,0.25,37,166.74
421,E5,68.75,0.292,51,166.74
422,G5,69.0,0.292,53,166.74
423,B-2,69.0,0.25,40,166.74
424,C#5,69.25,0.292,47,166.74
425,E5,69.5,0.292,49,166.74
426,C#3,69.5,0.25,36,166.74
427,G5,69.75,0.292,51,166.74
428,C#6,70.0,0.292,52,166.74
429,B-2,70.0,0.25,40,166.74
430,E5,70.25,0.292,49,166.74
431,G5,70.5,0.292,51,166.74
432,C#3,70.5,0.25,37,166.74
433,C#6,70.75,0.292,54,166.74
434,E5,71.0,0.25,102,166.74
435,E6,71.0,0.25,102,166.74
436,B-2,71.0,0.25,80,166.74
437,B-1,71.0,0.25,80,166.74
438,C#3,71.5,0.25,72,166.74
439,E5,71.5,0.25,80,166.74
440,E6,71.5,0.25,80,166.74
441,G1,72.0,0.25,39,166.74
442,E-3,72.25,0.24,50,166.74
443,B-3,72.5,0.292,51,166.74
444,E-3,72.5,0.25,36,166.74
445,C#4,72.75,0.292,49,166.74
446,E-4,73.0,0.292,51,166.74
447,G2,73.0,0.25,40,166.74
448,B-3,73.25,0.292,52,166.74
449,C#4,73.5,0.292,53,166.74
450,E-3,73.5,0.25,39,166.74
451,E-4,73.75,0.292,51,166.74
452,B-4,74.0,0.292,56,166.74
453,G2,74.0,0.25,43,166.74
454,C#4,74.25,0.292,56,166.74
455,E-4,74.5,0.292,57,166.74
456,E-3,74.5,0.25,40,166.74
457,B-4,74.75,0.292,52,166.74
458,C#5,75.0,0.292,58,166.74
459,G2,75.0,0.25,45,166.74
460,E-4,75.25,0.292,59,166.74
461,B-4,75.5,0.292,60,166.74
462,E-3,75.5,0.25,43,166.74
463,C#5,75.75,0.292,56,166.74
464,E-5,76.0,0.292,62,166.74
465,G2,76.0,0.25,47,166.74
466,B-4,76.25,0.292,62,166.74
467,C#5,76.5,0.292,62,166.74
468,E-3,76.5,0.25,44,166.74
469,E-5,76.75,0.292,59,166.74
470,B-5,77.0,0.292,63,166.74
471,G2,77.0,0.25,49,166.74
472,C#5,77.25,0.292,65,166.74
473,E-5,77.5,0.292,66,166.74
474,E-3,77.5,0.25,45,166.74
475,B-5,77.75,0.292,62,166.74
476,C#6,78.0,0.292,67,166.74
477,G2,78.0,0.25,51,166.74
478,B-5,78.25,0.292,65,166.74
479,E-5,78.5,0.292,62,166.74
480,E-3,78.5,0.25,48,166.74
481,C#5,78.75,0.292,61,166.74
482,B-5,79.0,0.292,59,166.74
483,G2,79.0,0.25,47,166.74
484,E-5,79.25,0.292,57,166.74
485,C#5,79.5,0.292,56,166.74
486,E-3,79.5,0.25,45,166.74
487,B-4,79.75,0.292,52,166.74
488,B4,80.0,0.5,49,166.74
489,G#2,80.0,0.292,33,166.74
490,E-3,80.25,0.292,26,166.74
491,B2,80.5,0.292,28,166.74
492,E-3,80.75,0.292,25,166.74
493,E-5,81.0,2.042,61,166.74
494,G#2,81.0,0.248,33,166.74
495,E-3,81.25,0.248,25,166.74
496,B2,81.5,0.248,28,166.74
497,E-3,81.75,0.248,24,166.74
498,G#2,82.0,0.248,33,166.74
499,E-3,82.25,0.248,26,166.74
500,B2,82.5,0.248,29,166.74
501,E-3,82.75,0.248,25,166.74
502,B4,83.0,0.792,50,166.74
503,G#2,83.0,0.248,33,166.74
504,E-3,83.25,0.248,26,166.74
505,B2,83.5,0.248,29,166.74
506,G#4,83.75,0.125,50,166.74
507,E-3,83.75,0.248,25,166.74
508,G4,83.875,1.0,40,166.74
509,G#4,83.875,1.0,40,166.74
510,B-4,83.958,0.042,40,166.74
511,G#4,84.0,1.042,58,166.74
512,B-2,84.0,0.292,33,166.74
513,E-3,84.25,0.292,26,166.74
514,C#3,84.5,0.292,29,166.74
515,E-3,84.75,0.292,26,166.74
516,G4,85.0,1.5,50,166.74
517,B-2,85.0,0.248,41,166.74
518,E-3,85.25,0.248,35,166.74
519,C#3,85.5,0.248,40,166.74
520,E-3,85.75,0.248,37,166.74
521,B-2,86.0,0.248,49,166.74
522,E-3,86.25,0.248,40,166.74
523,G4,86.5,0.542,50,166.74
524,C#3,86.5,0.248,46,166.74
525,E-3,86.75,0.248,42,166.74
526,E-5,87.0,0.75,61,166.74
527,B-2,87.0,0.248,56,166.74
528,E-3,87.25,0.248,41,166.74
529,C#3,87.5,0.248,43,166.74
530,G4,87.75,0.25,52,166.74
531,E-3,87.75,0.248,36,166.74
532,B-4,88.0,1.042,47,166.74
533,B2,88.0,0.248,33,166.74
534,E-3,88.25,0.248,28,166.74
535,B2,88.5,0.248,30,166.74
536,E-3,88.75,0.248,26,166.74
537,G#4,89.0,1.5,51,166.74
538,B2,89.0,0.248,41,166.74
539,E-3,89.25,0.248,37,166.74
540,B2,89.5,0.248,39,166.74
541,E-3,89.75,0.248,36,166.74
542,B2,90.0,0.248,49,166.74
543,E-3,90.25,0.248,43,166.74
544,G#4,90.5,0.542,49,166.74
545,B2,90.5,0.248,48,166.74
546,E-3,90.75,0.248,42,166.74
547,E-5,91.0,0.75,61,166.74
548,B2,91.0,0.248,54,166.74
549,E-3,91.25,0.248,41,166.74
550,B2,91.5,0.248,43,166.74
551,G#4,91.75,0.292,50,166.74
552,E-3,91.75,0.248,36,166.74
553,B4,92.0,1.042,52,166.74
554,G2,92.0,0.248,32,166.74
555,E-3,92.25,0.248,25,166.74
556,G2,92.5,0.248,29,166.74
557,E-3,92.75,0.248,26,166.74
558,B-4,93.0,1.5,50,166.74
559,G2,93.0,0.248,41,166.74
560,E-3,93.25,0.248,37,166.74
561,G2,93.5,0.248,42,166.74
562,E-3,93.75,0.248,43,166.74
563,G2,94.0,0.248,48,166.74
564,E-3,94.25,0.248,43,166.74
565,B-4,94.5,0.542,52,166.74
566,G2,94.5,0.248,49,166.74
567,E-3,94.75,0.248,46,166.74
568,E-5,95.0,0.75,49,166.74
569,G2,95.0,0.248,54,166.74
570,E-3,95.25,0.248,38,166.74
571,G2,95.5,0.248,42,166.74
572,B-4,95.75,0.25,52,166.74
573,E-3,95.75,0.248,36,166.74
574,B4,96.0,0.25,56,166.74
575,G#2,96.0,0.292,39,166.74
576,E-3,96.25,0.292,32,166.74
577,B2,96.5,0.248,35,166.74
578,E-6,96.5,1.0,52,166.74
579,E-5,96.5,1.0,52,166.74
580,E-3,96.75,0.248,31,166.74
581,G#2,97.0,0.248,40,166.74
582,E-3,97.25,0.248,31,166.74
583,B2,97.5,0.248,34,166.74
584,E-6,97.5,1.0,54,166.74
585,E-5,97.5,1.0,54,166.74
586,E-3,97.75,0.248,31,166.74
587,G#2,98.0,0.248,41,166.74
588,E-3,98.25,0.248,32,166.74
589,B2,98.5,0.248,35,166.74
590,E-5,98.5,0.25,52,166.74
591,E-6,98.5,0.25,52,166.74
592,E-3,98.75,0.248,32,166.74
593,G#2,99.0,0.292,43,166.74
594,B4,99.0,0.25,54,166.74
595,B5,99.0,0.25,54,166.74
596,E-3,99.25,0.292,37,166.74
597,B2,99.5,0.292,37,166.74
598,G#5,99.5,0.25,54,166.74
599,G#4,99.5,0.25,54,166.74
600,E-3,99.75,0.292,34,166.74
601,B-2,100.0,0.292,46,166.74
602,G#5,100.0,0.25,56,166.74
603,G#4,100.0,0.25,56,166.74
604,E-3,100.25,0.292,34,166.74
605,C#3,100.5,0.248,39,166.74
606,G5,100.5,1.0,57,166.74
607,G4,100.5,1.0,57,166.74
608,E-3,100.75,0.248,34,166.74
609,B-2,101.0,0.248,47,166.74
610,E-3,101.25,0.248,35,166.74
611,C#3,101.5,0.248,40,166.74
612,G5,101.5,1.0,62,166.74
613,G4,101.5,1.0,62,166.74
614,E-3,101.75,0.248,35,166.74
615,B-2,102.0,0.248,49,166.74
616,E-3,102.25,0.248,35,166.74
617,C#3,102.5,0.248,41,166.74
618,G4,102.5,0.25,64,166.74
619,G5,102.5,0.25,64,166.74
620,E-3,102.75,0.248,37,166.74
621,B-2,103.0,0.292,50,166.74
622,E-6,103.0,0.25,66,166.74
623,E-5,103.0,0.25,66,166.74
624,E-3,103.25,0.292,40,166.74
625,C#3,103.5,0.292,45,166.74
626,G4,103.5,0.25,67,166.74
627,G5,103.5,0.25,67,166.74
628,E-3,103.75,0.292,41,166.74
629,B2,104.0,0.292,51,166.74
630,B-4,104.0,0.25,68,166.74
631,B-5,104.0,0.25,68,166.74
632,E-3,104.25,0.292,44,166.74
633,B2,104.5,0.248,47,166.74
634,G#4,104.5,1.0,69,166.74
635,G#5,104.5,1.0,69,166.74
636,E-3,104.75,0.248,43,166.74
637,B2,105.0,0.248,52,166.74
638,E-3,105.25,0.248,44,166.74
639,B2,105.5,0.248,48,166.74
640,G#4,105.5,1.0,74,166.74
641,G#5,105.5,1.0,74,166.74
642,E-3,105.75,0.248,48,166.74
643,B2,106.0,0.248,56,166.74
644,E-3,106.25,0.248,47,166.74
645,B2,106.5,0.248,50,166.74
646,G#4,106.5,0.25,76,166.74
647,G#5,106.5,0.25,76,166.74
648,E-3,106.75,0.292,45,166.74
649,B2,107.0,0.292,57,166.74
650,E-5,107.0,0.25,78,166.74
651,E-6,107.0,0.25,78,166.74
652,E-3,107.25,0.292,49,166.74
653,B2,107.5,0.292,51,166.74
654,G#5,107.5,0.25,80,166.74
655,G#4,107.5,0.25,80,166.74
656,E-3,107.75,0.292,47,166.74
657,G2,108.0,0.292,59,166.74
658,B4,108.0,0.25,80,166.74
659,B5,108.0,0.25,80,166.74
660,E-3,108.25,0.292,53,166.74
661,G2,108.5,0.248,56,166.74
662,B-5,108.5,1.0,82,166.74
663,B-4,108.5,1.0,82,166.74
664,E-3,108.75,0.248,56,166.74
665,G2,109.0,0.248,60,166.74
666,E-3,109.25,0.248,52,166.74
667,G2,109.5,0.248,57,166.74
668,B-4,109.5,1.0,86,166.74
669,B-5,109.5,1.0,86,166.74
670,E-3,109.75,0.248,52,166.74
671,G2,110.0,0.248,62,166.74
672,E-3,110.25,0.248,53,166.74
673,G2,110.5,0.292,59,166.74
674,B-5,110.5,0.25,86,166.74
675,B-4,110.5,0.25,86,166.74
676,E-3,110.75,0.292,53,166.74
677,G2,111.0,0.292,62,166.74
678,E-6,111.0,0.25,86,166.74
679,E-5,111.0,0.25,86,166.74
680,E-3,111.25,0.292,54,166.74
681,G2,111.5,0.292,60,166.74
682,B-5,111.5,0.25,86,166.74
683,B-4,111.5,0.25,86,166.74
684,E-3,111.75,0.292,54,166.74
685,F#2,112.0,0.285,66,166.74
686,C5,112.0,2.0,88,166.74
687,C6,112.0,2.0,88,166.74
688,E-3,112.25,0.285,54,166.74
689,G#2,112.5,0.285,61,166.74
690,E-3,112.75,0.285,54,166.74
691,F#2,113.0,0.285,66,166.74
692,E-3,113.25,0.285,56,166.74
693,G#2,113.5,0.285,61,166.74
694,E-3,113.75,0.285,56,166.74
695,E2,114.0,0.285,66,166.74
696,C#6,114.0,2.0,88,166.74
697,C#5,114.0,2.0,88,166.74
698,C#3,114.25,0.285,56,166.74
699,G#2,114.5,0.285,62,166.74
700,C#3,114.75,0.285,56,166.74
701,E2,115.0,0.285,66,166.74
702,C#3,115.25,0.285,56,166.74
703,G#2,115.5,0.285,61,166.74
704,C#3,115.75,0.285,56,166.74
705,B-5,116.0,0.135,80,166.74
706,B-4,116.0,1.0,68,166.74
707,E2,116.0,0.248,66,166.74
708,B5,116.135,0.133,75,166.74
709,C#3,116.25,0.248,56,166.74
710,B-5,116.269,0.135,80,166.74
711,B5,116.404,0.133,80,166.74
712,F#2,116.5,0.248,61,166.74
713,B-5,116.573,0.163,80,166.74
714,G#5,116.723,0.16,75,166.74
715,C#3,116.75,0.248,56,166.74
716,B-5,116.86,0.14,75,166.74
717,E-2,117.0,0.285,66,166.74
718,B5,117.0,3.0,88,166.74
719,B4,117.0,3.0,88,166.74
720,B2,117.25,0.285,57,166.74
721,F#2,117.5,0.285,62,166.74
722,B2,117.75,0.285,57,166.74
723,E-2,118.0,0.285,66,166.74
724,B2,118.25,0.285,56,166.74
725,F#2,118.5,0.285,61,166.74
726,B2,118.75,0.285,56,166.74
727,E-2,119.0,0.285,66,166.74
728,B2,119.25,0.285,56,166.74
729,F#2,119.5,0.285,60,166.74
730,B2,119.75,0.285,56,166.74
731,D2,120.0,0.292,66,166.74
732,G#5,120.0,2.0,88,166.74
733,G#4,120.0,2.0,88,166.74
734,B2,120.25,0.292,58,166.74
735,E2,120.5,0.292,62,166.74
736,B2,120.75,0.292,58,166.74
737,D2,121.0,0.292,66,166.74
738,B2,121.25,0.292,58,166.74
739,E2,121.5,0.292,62,166.74
740,B2,121.75,0.292,57,166.74
741,C#2,122.0,0.248,66,166.74
742,A4,122.0,2.0,87,166.74
743,A5,122.0,2.0,87,166.74
744,A2,122.25,0.248,57,166.74
745,E2,122.5,0.248,62,166.74
746,A2,122.75,0.248,56,166.74
747,C#2,123.0,0.248,66,166.74
748,A2,123.25,0.248,57,166.74
749,E2,123.5,0.248,62,166.74
750,A2,123.75,0.248,57,166.74
751,G4,124.0,1.0,68,166.74
752,G5,124.0,0.135,80,166.74
753,C#2,124.0,0.248,66,166.74
754,G#5,124.135,0.135,75,166.74
755,B-2,124.25,0.248,56,166.74
756,G5,124.269,0.135,80,166.74
757,G#5,124.404,0.135,80,166.74
758,E-2,124.5,0.248,60,166.74
759,G5,124.573,0.163,80,166.74
760,F5,124.723,0.163,75,166.74
761,B-2,124.75,0.248,56,166.74
762,G5,124.86,0.14,75,166.74
763,B1,125.0,0.285,66,166.74
764,G#4,125.0,3.0,88,166.74
765,G#5,125.0,3.0,88,166.74
766,G#2,125.25,0.285,57,166.74
767,E-2,125.5,0.285,61,166.74
768,G#2,125.75,0.285,57,166.74
769,B1,126.0,0.285,66,166.74
770,G#2,126.25,0.285,56,166.74
771,E-2,126.5,0.285,61,166.74
772,G#2,126.75,0.285,57,166.74
773,B1,127.0,0.285,66,166.74
774,G#2,127.25,0.285,56,166.74
775,E-2,127.5,0.285,61,166.74
776,G#2,127.75,0.285,58,166.74
777,E5,128.0,2.25,92,166.74
778,A4,128.0,2.25,92,166.74
779,C#5,128.0,2.25,92,166.74
780,A5,128.0,2.25,92,166.74
781,A2,128.0,3.0,70,166.74
782,E2,128.0,3.0,70,166.74
783,C#3,128.0,3.0,70,166.74
784,C#2,128.0,3.0,70,166.74
785,E5,130.25,0.25,47,166.74
786,F#5,130.5,0.25,47,166.74
787,G#5,130.75,0.25,48,166.74
788,A5,131.0,0.25,49,166.74
789,B5,131.25,0.25,50,166.74
790,C#6,131.5,0.25,51,166.74
791,B5,131.75,0.25,51,166.74
792,A5,132.0,0.25,49,166.74
793,E4,132.0,1.0,45,166.74
794,C#4,132.0,1.0,45,166.74
795,A4,132.0,1.0,45,166.74
796,E5,132.25,0.25,47,166.74
797,F#5,132.5,0.25,47,166.74
798,G#5,132.75,0.25,47,166.74
799,A5,133.0,0.25,48,166.74
800,B5,133.25,0.25,49,166.74
801,C#6,133.5,0.25,50,166.74
802,B5,133.75,0.25,48,166.74
803,A5,134.0,0.25,48,166.74
804,E4,134.0,1.0,44,166.74
805,C#4,134.0,1.0,44,166.74
806,A4,134.0,1.0,44,166.74
807,E5,134.25,0.25,47,166.74
808,F#5,134.5,0.25,48,166.74
809,G#5,134.75,0.25,49,166.74
810,A5,135.0,0.25,50,166.74
811,B5,135.25,0.25,51,166.74
812,C#6,135.5,0.25,51,166.74
813,B5,135.75,0.25,49,166.74
814,A5,136.0,0.25,47,166.74
815,E4,136.0,1.0,44,166.74
816,C#4,136.0,1.0,44,166.74
817,A4,136.0,1.0,44,166.74
818,E5,136.25,0.25,48,166.74
819,F#5,136.5,0.25,51,166.74
820,G#5,136.75,0.25,51,166.74
821,A5,137.0,0.25,54,166.74
822,E4,137.0,1.0,47,166.74
823,C#4,137.0,1.0,47,166.74
824,A4,137.0,1.0,47,166.74
825,B5,137.25,0.25,56,166.74
826,C#6,137.5,0.25,57,166.74
827,D6,137.75,0.25,60,166.74
828,E6,138.0,0.25,61,166.74
829,A4,138.0,1.0,54,166.74
830,E4,138.0,1.0,54,166.74
831,C#4,138.0,1.0,54,166.74
832,E-6,138.25,0.25,59,166.74
833,E6,138.5,0.25,57,166.74
834,E-6,138.75,0.25,56,166.74
835,E6,139.0,0.25,54,166.74
836,A4,139.0,1.0,50,166.74
837,E4,139.0,1.0,50,166.74
838,C#4,139.0,1.0,50,166.74
839,C#6,139.25,0.25,52,166.74
840,B5,139.5,0.25,51,166.74
841,A5,139.75,0.25,50,166.74
842,G#5,140.0,2.0,48,166.74
843,E-4,140.0,0.248,49,166.74
844,B4,140.25,0.248,44,166.74
845,G#4,140.5,0.248,47,166.74
846,B4,140.75,0.248,44,166.74
847,E-4,141.0,0.248,51,166.74
848,B4,141.25,0.248,43,166.74
849,G#4,141.5,0.248,47,166.74
850,B4,141.75,0.248,43,166.74
851,B-5,142.0,0.167,50,166.74
852,E-4,142.0,0.248,51,166.74
853,B5,142.167,0.167,50,166.74
854,C#5,142.25,0.248,45,166.74
855,B-5,142.333,0.156,50,166.74
856,B5,142.49,0.156,50,166.74
857,G4,142.5,0.248,47,166.74
858,B-5,142.646,0.156,50,166.74
859,C#5,142.75,0.248,43,166.74
860,B5,142.802,0.156,50,166.74
861,B-5,142.958,0.146,48,166.74
862,E-4,143.0,0.248,51,166.74
863,B5,143.104,0.146,48,166.74
864,B-5,143.25,0.125,49,166.74
865,C#5,143.25,0.248,43,166.74
866,B5,143.375,0.125,50,166.74
867,B-5,143.5,0.125,51,166.74
868,G4,143.5,0.248,47,166.74
869,B5,143.625,0.125,51,166.74
870,B-5,143.75,0.125,51,166.74
871,C#5,143.75,0.248,43,166.74
872,B5,143.875,0.125,52,166.74
873,G#5,144.0,0.5,56,166.74
874,G#4,144.0,0.5,56,166.74
875,E4,144.0,0.5,56,166.74
876,B4,144.0,0.5,56,166.74
877,E4,145.0,1.25,84,166.74
878,A3,145.0,1.25,84,166.74
879,C#4,145.0,1.25,84,166.74
880,A4,145.0,1.25,84,166.74
881,E2,145.0,2.0,68,166.74
882,A2,145.0,2.0,68,166.74
883,C#3,145.0,2.0,68,166.74
884,C#2,145.0,2.0,68,166.74
885,E4,146.25,0.25,50,166.74
886,F#4,146.5,0.25,50,166.74
887,G#4,146.75,0.25,50,166.74
888,A4,147.0,0.25,48,166.74
889,B4,147.25,0.25,47,166.74
890,C#5,147.5,0.25,49,166.74
891,B4,147.75,0.25,48,166.74
892,A4,148.0,0.25,47,166.74
893,E4,148.25,0.25,47,166.74
894,F#4,148.5,0.25,48,166.74
895,G#4,148.75,0.25,49,166.74
896,A4,149.0,0.25,51,166.74
897,E3,149.0,1.0,44,166.74
898,C#3,149.0,1.0,44,166.74
899,A3,149.0,1.0,44,166.74
900,B4,149.25,0.25,51,166.74
901,C#5,149.5,0.25,49,166.74
902,B4,149.75,0.25,48,166.74
903,A4,150.0,0.25,48,166.74
904,E4,150.25,0.25,48,166.74
905,F#4,150.5,0.25,48,166.74
906,G#4,150.75,0.25,50,166.74
907,A4,151.0,0.25,50,166.74
908,E3,151.0,1.0,44,166.74
909,C#3,151.0,1.0,44,166.74
910,A3,151.0,1.0,44,166.74
911,B4,151.25,0.25,50,166.74
912,C#5,151.5,0.25,50,166.74
913,B4,151.75,0.25,50,166.74
914,A4,152.0,0.25,49,166.74
915,E4,152.25,0.25,50,166.74
916,F#4,152.5,0.25,51,166.74
917,A3,152.5,0.5,46,166.74
918,C#3,152.5,0.5,46,166.74
919,E3,152.5,0.5,46,166.74
920,G#4,152.75,0.25,51,166.74
921,A4,153.0,0.25,52,166.74
922,B4,153.25,0.25,53,166.74
923,C#5,153.5,0.25,56,166.74
924,A3,153.5,0.5,54,166.74
925,C#3,153.5,0.5,54,166.74
926,E3,153.5,0.5,54,166.74
927,B4,153.75,0.25,56,166.74
928,A4,154.0,0.25,57,166.74
929,E4,154.25,0.25,58,166.74
930,F#4,154.5,0.25,59,166.74
931,A3,154.5,0.5,61,166.74
932,E3,154.5,0.5,61,166.74
933,C#3,154.5,0.5,61,166.74
934,G#4,154.75,0.25,60,166.74
935,A4,155.0,0.25,62,166.74
936,B4,155.25,0.25,62,166.74
937,C#5,155.5,0.25,62,166.74
938,A3,155.5,0.5,61,166.74
939,E3,155.5,0.5,61,166.74
940,C#3,155.5,0.5,61,166.74
941,B4,155.75,0.25,63,166.74
942,A4,156.0,0.25,66,166.74
943,E3,156.0,1.0,60,166.74
944,A3,156.0,1.0,60,166.74
945,C#3,156.0,1.0,60,166.74
946,E4,156.25,0.25,67,166.74
947,F#4,156.5,0.25,68,166.74
948,G#4,156.75,0.25,68,166.74
949,A4,157.0,0.25,70,166.74
950,B4,157.25,0.25,71,166.74
951,C#5,157.5,0.25,72,166.74
952,D5,157.75,0.25,73,166.74
953,E5,158.0,0.25,74,166.74
954,F#5,158.25,0.25,75,166.74
955,G#5,158.5,0.25,76,166.74
956,A5,158.75,0.25,77,166.74
957,B5,159.0,0.25,79,166.74
958,C#6,159.25,0.25,79,166.74
959,D6,159.5,0.25,79,166.74
960,E-6,159.75,0.25,80,166.74
961,C#3,160.0,0.248,70,166.74
962,E5,160.0,2.0,84,166.74
963,E6,160.0,2.0,84,166.74
964,A3,160.25,0.248,61,166.74
965,E3,160.5,0.248,66,166.74
966,A3,160.75,0.248,62,166.74
967,C#3,161.0,0.248,70,166.74
968,A3,161.25,0.248,61,166.74
969,E3,161.5,0.248,65,166.74
970,A3,161.75,0.248,61,166.74
971,D3,162.0,0.248,70,166.74
972,G#4,162.0,2.0,84,166.74
973,G#5,162.0,2.0,84,166.74
974,B3,162.25,0.248,61,166.74
975,F3,162.5,0.248,66,166.74
976,B3,162.75,0.248,62,166.74
977,D3,163.0,0.248,70,166.74
978,B3,163.25,0.248,61,166.74
979,F3,163.5,0.248,63,166.74
980,B3,163.75,0.248,61,166.74
981,E-3,164.0,0.248,70,166.74
982,B4,164.0,2.0,84,166.74
983,B5,164.0,2.0,84,166.74
984,B3,164.25,0.248,61,166.74
985,G#3,164.5,0.248,66,166.74
986,B3,164.75,0.248,66,166.74
987,E-3,165.0,0.248,70,166.74
988,B3,165.25,0.248,62,166.74
989,G#3,165.5,0.248,66,166.74
990,B3,165.75,0.248,62,166.74
991,E-2,166.0,0.248,70,166.74
992,G3,166.0,2.0,75,166.74
993,C#4,166.0,2.0,75,166.74
994,G4,166.0,2.0,75,166.74
995,E-3,166.25,0.248,62,166.74
996,D3,166.5,0.248,67,166.74
997,E-3,166.75,0.248,62,166.74
998,D3,167.0,0.248,70,166.74
999,E-3,167.25,0.248,62,166.74
1000,D3,167.5,0.248,67,166.74
1001,E-3,167.75,0.212,61,166.74
1002,G#2,168.0,0.5,71,166.74
1003,E-4,168.0,0.5,84,166.74
1004,G#4,168.0,0.5,84,166.74
1005,B3,168.0,0.5,84,166.74
1006,E-4,168.5,0.25,51,166.74
1007,B4,168.5,0.25,51,166.74
1008,G#3,169.0,0.25,43,166.74
1009,E-4,169.0,0.25,51,166.74
1010,B4,169.0,0.25,51,166.74
1011,G#3,169.5,0.25,43,166.74
1012,E-4,169.5,0.25,51,166.74
1013,B4,169.5,0.25,51,166.74
1014,G#3,170.0,0.25,43,166.74
1015,E-4,170.0,0.25,51,166.74
1016,B4,170.0,0.25,51,166.74
1017,G#3,170.5,0.25,43,166.74
1018,E-4,170.5,0.25,51,166.74
1019,B4,170.5,0.25,51,166.74
1020,B-3,171.0,0.25,42,166.74
1021,B-4,171.0,0.25,49,166.74
1022,E-4,171.0,0.25,49,166.74
1023,B3,171.5,0.25,42,166.74
1024,E-4,171.5,0.25,48,166.74
1025,G#4,171.5,0.25,48,166.74
1026,E-4,172.0,0.5,59,166.74
1027,G4,172.0,0.5,59,166.74
1028,E-3,172.0,0.5,47,166.74
1029,C#4,172.0,0.5,47,166.74
1030,E-5,172.5,0.25,49,166.74
1031,G4,172.5,0.25,49,166.74
1032,E-4,172.5,0.25,42,166.74
1033,C#4,172.5,0.25,42,166.74
1034,G4,173.0,0.25,49,166.74
1035,E-5,173.0,0.25,49,166.74
1036,C#4,173.0,0.25,41,166.74
1037,E-4,173.0,0.25,41,166.74
1038,G4,173.5,0.25,50,166.74
1039,E-5,173.5,0.25,50,166.74
1040,C#4,173.5,0.25,41,166.74
1041,E-4,173.5,0.25,41,166.74
1042,G4,174.0,0.25,51,166.74
1043,E-5,174.0,0.25,51,166.74
1044,E-4,174.0,0.25,41,166.74
1045,C#4,174.0,0.25,41,166.74
1046,E-5,174.5,0.25,51,166.74
1047,G4,174.5,0.25,51,166.74
1048,C#4,174.5,0.25,41,166.74
1049,E-4,174.5,0.25,41,166.74
1050,E-5,175.0,0.25,51,166.74
1051,G#4,175.0,0.25,51,166.74
1052,E-4,175.0,0.25,41,166.74
1053,B3,175.0,0.25,41,166.74
1054,B-4,175.5,0.25,50,166.74
1055,E-5,175.5,0.25,50,166.74
1056,B-3,175.5,0.25,40,166.74
1057,E-4,175.5,0.25,40,166.74
1058,B4,176.0,0.5,58,166.74
1059,E-5,176.0,0.5,58,166.74
1060,G#3,176.0,0.5,47,166.74
1061,G#2,176.0,0.5,47,166.74
1062,G#3,176.5,0.25,42,166.74
1063,B4,176.5,0.25,50,166.74
1064,E-4,176.5,0.25,50,166.74
1065,G#3,177.0,0.25,42,166.74
1066,B4,177.0,0.25,50,166.74
1067,E-4,177.0,0.25,50,166.74
1068,G#3,177.5,0.25,42,166.74
1069,E-4,177.5,0.25,50,166.74
1070,B4,177.5,0.25,50,166.74
1071,G#3,178.0,0.25,43,166.74
1072,B4,178.0,0.25,50,166.74
1073,E-4,178.0,0.25,50,166.74
1074,G#3,178.5,0.25,42,166.74
1075,B4,178.5,0.25,50,166.74
1076,E-4,178.5,0.25,50,166.74
1077,B-3,179.0,0.25,43,166.74
1078,B-4,179.0,0.25,50,166.74
1079,E-4,179.0,0.25,50,166.74
1080,B3,179.5,0.25,43,166.74
1081,E-4,179.5,0.25,48,166.74
1082,G#4,179.5,0.25,48,166.74
1083,E-4,180.0,0.5,58,166.74
1084,G4,180.0,0.5,58,166.74
1085,C#4,180.0,0.5,47,166.74
1086,E-3,180.0,0.5,47,166.74
1087,E-5,180.5,0.25,49,166.74
1088,G4,180.5,0.25,49,166.74
1089,C#4,180.5,0.25,41,166.74
1090,E-4,180.5,0.25,41,166.74
1091,G4,181.0,0.25,49,166.74
1092,E-5,181.0,0.25,49,166.74
1093,C#4,181.0,0.25,43,166.74
1094,E-4,181.0,0.25,43,166.74
1095,G4,181.5,0.25,51,166.74
1096,E-5,181.5,0.25,51,166.74
1097,E-4,181.5,0.25,42,166.74
1098,C#4,181.5,0.25,42,166.74
1099,G4,182.0,0.25,49,166.74
1100,E-5,182.0,0.25,49,166.74
1101,C#4,182.0,0.25,42,166.74
1102,E-4,182.0,0.25,42,166.74
1103,E-5,182.5,0.25,49,166.74
1104,G4,182.5,0.25,49,166.74
1105,E-4,182.5,0.25,42,166.74
1106,C#4,182.5,0.25,42,166.74
1107,G#4,183.0,0.25,50,166.74
1108,E-5,183.0,0.25,50,166.74
1109,B3,183.0,0.25,42,166.74
1110,E-4,183.0,0.25,42,166.74
1111,B-4,183.5,0.25,51,166.74
1112,E-5,183.5,0.25,51,166.74
1113,E-4,183.5,0.25,42,166.74
1114,B-3,183.5,0.25,42,166.74
1115,G#2,184.0,0.25,48,166.74
1116,B4,184.0,0.25,56,166.74
1117,E-5,184.0,0.25,56,166.74
1118,E-5,184.5,0.25,50,166.74
1119,B4,184.5,0.25,50,166.74
1120,B3,184.5,0.25,39,166.74
1121,G#3,184.5,0.25,39,166.74
1122,E-5,185.0,0.5,50,166.74
1123,B4,185.0,0.5,50,166.74
1124,G#3,185.0,0.5,39,166.74
1125,B3,185.0,0.5,39,166.74
1126,G#4,185.5,0.5,47,166.74
1127,B4,185.5,0.5,47,166.74
1128,E-4,185.5,0.5,39,166.74
1129,B3,185.5,0.5,39,166.74
1130,C#3,186.0,0.25,47,166.74
1131,E5,186.5,0.25,50,166.74
1132,C#5,186.5,0.25,50,166.74
1133,C#4,186.5,0.25,43,166.74
1134,G#3,186.5,0.25,43,166.74
1135,C#5,187.0,0.5,50,166.74
1136,E5,187.0,0.5,50,166.74
1137,C#4,187.0,0.5,43,166.74
1138,G#3,187.0,0.5,43,166.74
1139,C#5,187.5,0.5,48,166.74
1140,G#4,187.5,0.5,48,166.74
1141,E4,187.5,0.5,40,166.74
1142,C#4,187.5,0.5,40,166.74
1143,E-3,188.0,0.25,47,166.74
1144,E-5,188.5,0.25,47,166.74
1145,B4,188.5,0.25,47,166.74
1146,G#3,188.5,0.25,41,166.74
1147,B3,188.5,0.25,41,166.74
1148,B4,189.0,0.5,47,166.74
1149,E-5,189.0,0.5,47,166.74
1150,B3,189.0,0.5,42,166.74
1151,G#3,189.0,0.5,42,166.74
1152,B4,189.5,0.5,44,166.74
1153,G#4,189.5,0.5,44,166.74
1154,E-4,189.5,0.5,39,166.74
1155,B3,189.5,0.5,39,166.74
1156,E-3,190.0,0.25,47,166.74
1157,B-4,190.5,0.25,49,166.74
1158,E-5,190.5,0.25,49,166.74
1159,B-3,190.5,0.25,39,166.74
1160,G3,190.5,0.25,39,166.74
1161,B-4,191.0,0.5,47,166.74
1162,E-5,191.0,0.5,47,166.74
1163,B-3,191.0,0.5,39,166.74
1164,G3,191.0,0.5,39,166.74
1165,B-4,191.5,0.5,45,166.74
1166,G4,191.5,0.5,45,166.74
1167,B-3,191.5,0.5,39,166.74
1168,E-4,191.5,0.5,39,166.74
1169,B4,192.0,0.5,49,166.74
1170,G#4,192.0,0.5,49,166.74
1171,G#1,192.0,0.5,42,166.74
1172,G#2,192.0,0.5,42,166.74
1173,B4,192.5,0.25,48,166.74
1174,E-5,192.5,0.25,48,166.74
1175,B5,192.5,0.25,48,166.74
1176,E-3,192.5,0.25,41,166.74
1177,G#2,192.5,0.25,41,166.74
1178,E-5,193.0,0.25,53,166.74
1179,B4,193.0,0.25,53,166.74
1180,B5,193.0,0.25,53,166.74
1181,G#2,193.0,0.25,43,166.74
1182,E-3,193.0,0.25,43,166.74
1183,B5,193.5,0.25,55,166.74
1184,E-5,193.5,0.25,55,166.74
1185,B4,193.5,0.25,55,166.74
1186,E-3,193.5,0.25,47,166.74
1187,G#2,193.5,0.25,47,166.74
1188,B4,194.0,0.25,59,166.74
1189,E-5,194.0,0.25,59,166.74
1190,B5,194.0,0.25,59,166.74
1191,G#2,194.0,0.25,50,166.74
1192,E-3,194.0,0.25,50,166.74
1193,B4,194.5,0.25,63,166.74
1194,E-5,194.5,0.25,63,166.74
1195,B5,194.5,0.25,63,166.74
1196,E-3,194.5,0.25,52,166.74
1197,G#2,194.5,0.25,52,166.74
1198,B-5,195.0,0.25,64,166.74
1199,B-4,195.0,0.25,64,166.74
1200,C#5,195.0,0.25,64,166.74
1201,E-3,195.0,0.25,57,166.74
1202,B-2,195.0,0.25,57,166.74
1203,G#4,195.5,0.25,68,166.74
1204,B4,195.5,0.25,68,166.74
1205,G#5,195.5,0.25,68,166.74
1206,E-3,195.5,0.25,59,166.74
1207,B2,195.5,0.25,59,166.74
1208,G4,196.0,0.5,71,166.74
1209,B-4,196.0,0.5,71,166.74
1210,G5,196.0,0.5,71,166.74
1211,E-3,196.0,0.5,59,166.74
1212,C#3,196.0,0.5,59,166.74
1213,E-2,196.0,0.5,59,166.74
1214,G5,196.5,0.25,72,166.74
1215,E5,196.5,0.25,72,166.74
1216,E6,196.5,0.25,72,166.74
1217,E-3,196.5,0.25,62,166.74
1218,C#4,196.5,0.25,62,166.74
1219,G5,197.0,0.25,78,166.74
1220,E6,197.0,0.25,78,166.74
1221,E5,197.0,0.25,78,166.74
1222,E-3,197.0,0.25,67,166.74
1223,C#4,197.0,0.25,67,166.74
1224,E5,197.5,0.25,75,166.74
1225,E6,197.5,0.25,75,166.74
1226,G5,197.5,0.25,75,166.74
1227,C#4,197.5,0.25,63,166.74
1228,E-3,197.5,0.25,63,166.74
1229,E6,198.0,0.25,78,166.74
1230,G5,198.0,0.25,78,166.74
1231,E5,198.0,0.25,78,166.74
1232,E-3,198.0,0.25,66,166.74
1233,C#4,198.0,0.25,66,166.74
1234,E6,198.5,0.25,74,166.74
1235,G5,198.5,0.25,74,166.74
1236,E5,198.5,0.25,74,166.74
1237,C#4,198.5,0.25,62,166.74
1238,E-3,198.5,0.25,62,166.74
1239,G5,199.0,0.25,76,166.74
1240,E-5,199.0,0.25,76,166.74
1241,E-6,199.0,0.25,76,166.74
1242,B3,199.0,0.25,67,166.74
1243,E-3,199.0,0.25,67,166.74
1244,G5,199.5,0.25,74,166.74
1245,C#5,199.5,0.25,74,166.74
1246,C#6,199.5,0.25,74,166.74
1247,B-3,199.5,0.25,63,166.74
1248,E-3,199.5,0.25,63,166.74
1249,B4,200.0,0.5,78,166.74
1250,G#5,200.0,0.5,78,166.74
1251,B5,200.0,0.5,78,166.74
1252,G#1,200.0,0.5,69,166.74
1253,G#2,200.0,0.5,69,166.74
1254,B4,200.5,0.25,46,166.74
1255,E-5,200.5,0.25,46,166.74
1256,B5,200.5,0.25,46,166.74
1257,E-3,200.5,0.25,41,166.74
1258,G#2,200.5,0.25,41,166.74
1259,E-5,201.0,0.25,49,166.74
1260,B5,201.0,0.25,49,166.74
1261,B4,201.0,0.25,49,166.74
1262,E-3,201.0,0.25,44,166.74
1263,G#2,201.0,0.25,44,166.74
1264,B4,201.5,0.25,54,166.74
1265,E-5,201.5,0.25,54,166.74
1266,B5,201.5,0.25,54,166.74
1267,G#2,201.5,0.25,48,166.74
1268,E-3,201.5,0.25,48,166.74
1269,E-5,202.0,0.25,58,166.74
1270,B5,202.0,0.25,58,166.74
1271,B4,202.0,0.25,58,166.74
1272,E-3,202.0,0.25,51,166.74
1273,G#2,202.0,0.25,51,166.74
1274,B5,202.5,0.25,63,166.74
1275,B4,202.5,0.25,63,166.74
1276,E-5,202.5,0.25,63,166.74
1277,E-3,202.5,0.25,56,166.74
1278,G#2,202.5,0.25,56,166.74
1279,B-4,203.0,0.25,65,166.74
1280,B-5,203.0,0.25,65,166.74
1281,C#5,203.0,0.25,65,166.74
1282,B-2,203.0,0.25,58,166.74
1283,E-3,203.0,0.25,58,166.74
1284,G#4,203.5,0.25,69,166.74
1285,B4,203.5,0.25,69,166.74
1286,G#5,203.5,0.25,69,166.74
1287,E-3,203.5,0.25,62,166.74
1288,B2,203.5,0.25,62,166.74
1289,G4,204.0,0.5,74,166.74
1290,B-4,204.0,0.5,74,166.74
1291,G5,204.0,0.5,74,166.74
1292,E-2,204.0,0.5,66,166.74
1293,C#3,204.0,0.5,66,166.74
1294,E-3,204.0,0.5,66,166.74
1295,G5,204.5,0.25,75,166.74
1296,E6,204.5,0.25,75,166.74
1297,E5,204.5,0.25,75,166.74
1298,E-3,204.5,0.25,63,166.74
1299,C#4,204.5,0.25,63,166.74
1300,G5,205.0,0.25,77,166.74
1301,E5,205.0,0.25,77,166.74
1302,E6,205.0,0.25,77,166.74
1303,E-3,205.0,0.25,67,166.74
1304,C#4,205.0,0.25,67,166.74
1305,E5,205.5,0.25,74,166.74
1306,E6,205.5,0.25,74,166.74
1307,G5,205.5,0.25,74,166.74
1308,C#4,205.5,0.25,62,166.74
1309,E-3,205.5,0.25,62,166.74
1310,G5,206.0,0.25,78,166.74
1311,E5,206.0,0.25,78,166.74
1312,E6,206.0,0.25,78,166.74
1313,E-3,206.0,0.25,67,166.74
1314,C#4,206.0,0.25,67,166.74
1315,E5,206.5,0.25,74,166.74
1316,E6,206.5,0.25,74,166.74
1317,G5,206.5,0.25,74,166.74
1318,C#4,206.5,0.25,63,166.74
1319,E-3,206.5,0.25,63,166.74
1320,E-6,207.0,0.25,75,166.74
1321,G5,207.0,0.25,75,166.74
1322,E-5,207.0,0.25,75,166.74
1323,B3,207.0,0.25,67,166.74
1324,E-3,207.0,0.25,67,166.74
1325,C#6,207.5,0.25,75,166.74
1326,C#5,207.5,0.25,75,166.74
1327,G5,207.5,0.25,75,166.74
1328,B-3,207.5,0.25,67,166.74
1329,E-3,207.5,0.25,67,166.74
1330,G#5,208.0,0.5,78,166.74
1331,B5,208.0,0.5,78,166.74
1332,B4,208.0,0.5,78,166.74
1333,G#2,208.0,0.5,69,166.74
1334,G#3,208.0,0.5,69,166.74
1335,B5,208.5,0.25,50,166.74
1336,G#5,208.5,0.25,50,166.74
1337,B3,208.5,0.25,43,166.74
1338,E-4,208.5,0.25,43,166.74
1339,B5,209.0,0.5,50,166.74
1340,G#5,209.0,0.5,50,166.74
1341,B3,209.0,0.5,41,166.74
1342,E-4,209.0,0.5,41,166.74
1343,E-6,209.5,0.5,48,166.74
1344,B5,209.5,0.5,48,166.74
1345,G#3,209.5,0.5,39,166.74
1346,B3,209.5,0.5,39,166.74
1347,C#3,210.0,0.25,48,166.74
1348,C#6,210.5,0.25,49,166.74
1349,G#5,210.5,0.25,49,166.74
1350,E4,210.5,0.25,42,166.74
1351,C#4,210.5,0.25,42,166.74
1352,C#6,211.0,0.5,49,166.74
1353,G#5,211.0,0.5,49,166.74
1354,E4,211.0,0.5,42,166.74
1355,C#4,211.0,0.5,42,166.74
1356,E6,211.5,0.5,48,166.74
1357,C#6,211.5,0.5,48,166.74
1358,C#4,211.5,0.5,39,166.74
1359,G#3,211.5,0.5,39,166.74
1360,E-3,212.0,0.25,48,166.74
1361,G#5,212.5,0.25,49,166.74
1362,B5,212.5,0.25,49,166.74
1363,B3,212.5,0.25,42,166.74
1364,E-4,212.5,0.25,42,166.74
1365,B5,213.0,0.5,49,166.74
1366,G#5,213.0,0.5,49,166.74
1367,B3,213.0,0.5,42,166.74
1368,E-4,213.0,0.5,42,166.74
1369,E-6,213.5,0.5,48,166.74
1370,B5,213.5,0.5,48,166.74
1371,G#3,213.5,0.5,39,166.74
1372,B3,213.5,0.5,39,166.74
1373,C#3,214.0,0.25,49,166.74
1374,B-5,214.5,0.25,51,166.74
1375,G5,214.5,0.25,51,166.74
1376,E-4,214.5,0.25,42,166.74
1377,B-3,214.5,0.25,42,166.74
1378,B-5,215.0,0.5,51,166.74
1379,G5,215.0,0.5,51,166.74
1380,E-4,215.0,0.5,42,166.74
1381,B-3,215.0,0.5,42,166.74
1382,E-6,215.5,0.5,48,166.74
1383,B-5,215.5,0.5,48,166.74
1384,B-3,215.5,0.5,40,166.74
1385,G3,215.5,0.5,40,166.74
1386,B2,216.0,0.5,45,166.74
1387,E-5,216.5,0.25,56,166.74
1388,B5,216.5,0.25,56,166.74
1389,G#4,216.5,0.25,39,166.74
1390,E-4,216.5,0.25,39,166.74
1391,B5,217.0,0.5,51,166.74
1392,E-5,217.0,0.5,51,166.74
1393,E-4,217.0,0.5,41,166.74
1394,G#4,217.0,0.5,41,166.74
1395,G#5,217.5,0.5,51,166.74
1396,E-6,217.5,0.5,51,166.74
1397,E-4,217.5,0.5,41,166.74
1398,B3,217.5,0.5,41,166.74
1399,C#3,218.0,0.5,50,166.74
1400,A5,218.5,0.25,62,166.74
1401,C#5,218.5,0.25,62,166.74
1402,E4,218.5,0.25,47,166.74
1403,A4,218.5,0.25,47,166.74
1404,A5,219.0,0.5,56,166.74
1405,C#5,219.0,0.5,56,166.74
1406,A4,219.0,0.5,45,166.74
1407,E4,219.0,0.5,45,166.74
1408,E5,219.5,0.5,56,166.74
1409,C#6,219.5,0.5,56,166.74
1410,E4,219.5,0.5,45,166.74
1411,C#4,219.5,0.5,45,166.74
1412,E-3,220.0,0.5,52,166.74
1413,G#5,220.5,0.25,57,166.74
1414,B4,220.5,0.25,57,166.74
1415,G#4,220.5,0.25,48,166.74
1416,E-4,220.5,0.25,48,166.74
1417,G#5,221.0,0.5,57,166.74
1418,B4,221.0,0.5,57,166.74
1419,E-4,221.0,0.5,48,166.74
1420,G#4,221.0,0.5,48,166.74
1421,E-5,221.5,0.5,51,166.74
1422,B5,221.5,0.5,51,166.74
1423,E-4,221.5,0.5,45,166.74
1424,B3,221.5,0.5,45,166.74
1425,E-3,222.0,0.5,51,166.74
1426,G5,222.5,0.25,52,166.74
1427,B-4,222.5,0.25,52,166.74
1428,G4,222.5,0.25,43,166.74
1429,C#4,222.5,0.25,43,166.74
1430,B-4,223.0,0.5,51,166.74
1431,G5,223.0,0.5,51,166.74
1432,C#4,223.0,0.5,43,166.74
1433,G4,223.0,0.5,43,166.74
1434,C#5,223.5,0.5,42,166.74
1435,B-5,223.5,0.5,42,166.74
1436,C#4,223.5,0.5,35,166.74
1437,B-3,223.5,0.5,35,166.74
1438,G#2,224.0,0.248,41,166.74
1439,G#5,224.0,1.0,50,166.74
1440,B4,224.0,1.0,50,166.74
1441,G#3,224.25,0.248,33,166.74
1442,E-3,224.5,0.248,36,166.74
1443,G#3,224.75,0.248,32,166.74
1444,G#2,225.0,0.248,41,166.74
1445,G#3,225.25,0.248,33,166.74
1446,E-3,225.5,0.248,36,166.74
1447,G#3,225.75,0.248,33,166.74
1448,G#2,226.0,0.248,41,166.74
1449,G#3,226.25,0.248,33,166.74
1450,E-3,226.5,0.248,37,166.74
1451,G#3,226.75,0.248,33,166.74
1452,B4,227.0,0.75,50,166.74
1453,G#2,227.0,0.248,41,166.74
1454,G#3,227.25,0.248,33,166.74
1455,E-3,227.5,0.248,37,166.74
1456,G#4,227.75,0.25,50,166.74
1457,G#3,227.75,0.248,33,166.74
1458,G4,228.0,1.0,57,166.74
1459,G#2,228.0,0.248,41,166.74
1460,B-3,228.25,0.248,33,166.74
1461,E-3,228.5,0.248,38,166.74
1462,B-3,228.75,0.248,33,166.74
1463,G#2,229.0,0.248,41,166.74
1464,E-5,229.0,0.75,44,166.74
1465,C#4,229.0,0.75,44,166.74
1466,G4,229.0,0.75,44,166.74
1467,B-3,229.25,0.248,33,166.74
1468,E-3,229.5,0.248,37,166.74
1469,B-3,229.75,0.248,33,166.74
1470,G#2,230.0,0.248,41,166.74
1471,G4,230.0,0.75,44,166.74
1472,E-5,230.0,0.75,44,166.74
1473,C#4,230.0,0.75,44,166.74
1474,B-3,230.25,0.248,34,166.74
1475,E-3,230.5,0.248,38,166.74
1476,B-3,230.75,0.248,34,166.74
1477,G#2,231.0,0.248,41,166.74
1478,G4,231.0,0.75,47,166.74
1479,E-5,231.0,0.75,47,166.74
1480,C#4,231.0,0.75,47,166.74
1481,B-3,231.25,0.248,34,166.74
1482,E-3,231.5,0.248,36,166.74
1483,B3,231.75,0.167,50,166.74
1484,B-3,231.75,0.248,33,166.74
1485,G#4,231.875,0.167,50,166.74
1486,E-5,232.0,3.0,57,166.74
1487,G#2,232.0,0.248,41,166.74
1488,G#3,232.25,0.248,33,166.74
1489,E-3,232.5,0.248,37,166.74
1490,G#3,232.75,0.248,33,166.74
1491,G#2,233.0,0.248,41,166.74
1492,G#3,233.25,0.248,34,166.74
1493,E-3,233.5,0.248,38,166.74
1494,G#3,233.75,0.248,34,166.74
1495,G#2,234.0,0.248,41,166.74
1496,G#3,234.25,0.248,34,166.74
1497,E-3,234.5,0.248,38,166.74
1498,G#3,234.75,0.248,34,166.74
1499,B5,235.0,0.75,58,166.74
1500,G#2,235.0,0.248,41,166.74
1501,G#3,235.25,0.248,33,166.74
1502,E-3,235.5,0.248,36,166.74
1503,G#5,235.75,0.25,58,166.74
1504,G#3,235.75,0.248,33,166.74
1505,G5,236.0,1.0,67,166.74
1506,G#2,236.0,0.248,41,166.74
1507,B-3,236.25,0.248,36,166.74
1508,E-3,236.5,0.248,36,166.74
1509,B-3,236.75,0.248,34,166.74
1510,G#2,237.0,0.248,41,166.74
1511,E-6,237.0,0.75,54,166.74
1512,C#5,237.0,0.75,54,166.74
1513,G5,237.0,0.75,54,166.74
1514,B-3,237.25,0.248,34,166.74
1515,E-3,237.5,0.248,36,166.74
1516,B-3,237.75,0.248,33,166.74
1517,G#2,238.0,0.248,41,166.74
1518,C#5,238.0,0.75,54,166.74
1519,E-6,238.0,0.75,54,166.74
1520,G5,238.0,0.75,54,166.74
1521,B-3,238.25,0.248,34,166.74
1522,E-3,238.5,0.248,36,166.74
1523,B-3,238.75,0.248,33,166.74
1524,G#2,239.0,0.248,41,166.74
1525,G5,239.0,0.75,54,166.74
1526,C#5,239.0,0.75,54,166.74
1527,E-6,239.0,0.75,54,166.74
1528,B-3,239.25,0.248,34,166.74
1529,E-3,239.5,0.248,39,166.74
1530,B4,239.75,0.167,47,166.74
1531,B-3,239.75,0.248,34,166.74
1532,G#5,239.875,0.167,53,166.74
1533,E-6,240.0,1.75,73,166.74
1534,G#2,240.0,0.248,41,166.74
1535,G#3,240.25,0.248,33,166.74
1536,E-3,240.5,0.248,36,166.74
1537,G#3,240.75,0.248,33,166.74
1538,G#2,241.0,0.248,42,166.74
1539,G#3,241.25,0.248,33,166.74
1540,E-3,241.5,0.248,35,166.74
1541,C#5,241.75,0.167,43,166.74
1542,G#3,241.75,0.248,33,166.74
1543,G5,241.875,0.167,53,166.74
1544,E-6,242.0,1.75,72,166.74
1545,G#2,242.0,0.248,41,166.74
1546,B-3,242.25,0.248,34,166.74
1547,E-3,242.5,0.248,37,166.74
1548,B-3,242.75,0.248,37,166.74
1549,G#2,243.0,0.248,41,166.74
1550,B-3,243.25,0.248,34,166.74
1551,E-3,243.5,0.248,38,166.74
1552,B4,243.75,0.167,40,166.74
1553,B-3,243.75,0.248,34,166.74
1554,G#5,243.875,0.167,53,166.74
1555,E-6,244.0,1.75,72,166.74
1556,G#2,244.0,0.248,41,166.74
1557,G#3,244.25,0.248,33,166.74
1558,E-3,244.5,0.248,36,166.74
1559,G#3,244.75,0.248,33,166.74
1560,G#2,245.0,0.248,41,166.74
1561,G#3,245.25,0.248,33,166.74
1562,E-3,245.5,0.248,36,166.74
1563,C#5,245.75,0.167,45,166.74
1564,G#3,245.75,0.248,33,166.74
1565,G5,245.875,0.167,52,166.74
1566,E-6,246.0,2.0,71,166.74
1567,G#2,246.0,0.248,41,166.74
1568,B-3,246.25,0.248,34,166.74
1569,E-3,246.5,0.248,37,166.74
1570,B-3,246.75,0.248,33,166.74
1571,G#2,247.0,0.248,41,166.74
1572,B-3,247.25,0.248,34,166.74
1573,E-3,247.5,0.248,37,166.74
1574,B-3,247.75,0.248,34,166.74
1575,B3,248.0,0.248,49,166.74
1576,G#2,248.0,0.248,42,166.74
1577,G#4,248.25,0.248,50,166.74
1578,G#3,248.25,0.248,41,166.74
1579,E-4,248.5,0.248,51,166.74
1580,E-3,248.5,0.248,42,166.74
1581,G#4,248.75,0.248,48,166.74
1582,G#3,248.75,0.248,40,166.74
1583,B3,249.0,0.248,52,166.74
1584,G#2,249.0,0.248,43,166.74
1585,G#4,249.25,0.248,53,166.74
1586,G#3,249.25,0.248,44,166.74
1587,E-4,249.5,0.248,54,166.74
1588,E-3,249.5,0.248,45,166.74
1589,G#4,249.75,0.248,51,166.74
1590,G#3,249.75,0.248,43,166.74
1591,B3,250.0,0.248,57,166.74
1592,G#2,250.0,0.248,47,166.74
1593,G#4,250.25,0.248,57,166.74
1594,G#3,250.25,0.248,48,166.74
1595,E-4,250.5,0.248,58,166.74
1596,E-3,250.5,0.248,48,166.74
1597,G#4,250.75,0.248,52,166.74
1598,G#3,250.75,0.248,49,166.74
1599,B3,251.0,0.248,61,166.74
1600,G#2,251.0,0.248,51,166.74
1601,G#4,251.25,0.248,62,166.74
1602,G#3,251.25,0.248,51,166.74
1603,E-4,251.5,0.248,62,166.74
1604,E-3,251.5,0.248,52,166.74
1605,G#4,251.75,0.248,57,166.74
1606,G#3,251.75,0.248,47,166.74
1607,C4,252.0,0.248,66,166.74
1608,G#2,252.0,0.248,53,166.74
1609,F#4,252.25,0.248,67,166.74
1610,F#3,252.25,0.248,56,166.74
1611,E-4,252.5,0.248,68,166.74
1612,E-3,252.5,0.248,56,166.74
1613,F#4,252.75,0.248,62,166.74
1614,F#3,252.75,0.248,51,166.74
1615,C4,253.0,0.248,69,166.74
1616,G#2,253.0,0.248,57,166.74
1617,F#4,253.25,0.248,70,166.74
1618,F#3,253.25,0.248,58,166.74
1619,E-4,253.5,0.248,71,166.74
1620,E-3,253.5,0.248,60,166.74
1621,F#4,253.75,0.248,68,166.74
1622,F#3,253.75,0.248,56,166.74
1623,C4,254.0,0.248,73,166.74
1624,G#2,254.0,0.248,62,166.74
1625,F#4,254.25,0.248,74,166.74
1626,F#3,254.25,0.248,62,166.74
1627,E-4,254.5,0.248,75,166.74
1628,E-3,254.5,0.248,63,166.74
1629,F#4,254.75,0.248,76,166.74
1630,F#3,254.75,0.248,57,166.74
1631,C4,255.0,0.248,78,166.74
1632,G#2,255.0,0.248,65,166.74
1633,F#4,255.25,0.248,79,166.74
1634,F#3,255.25,0.248,67,166.74
1635,E-4,255.5,0.248,79,166.74
1636,E-3,255.5,0.248,67,166.74
1637,F#4,255.75,0.248,73,166.74
1638,F#3,255.75,0.248,62,166.74
1639,C#2,256.0,0.25,69,166.74
1640,E3,256.0,0.25,76,166.74
1641,G#3,256.0,0.25,76,166.74
1642,C#4,256.0,0.25,76,166.74
1643,E4,256.0,0.25,76,166.74
1644,G#2,256.25,0.24,54,166.74
1645,C#3,256.5,0.292,56,166.74
1646,G#2,256.5,0.25,39,166.74
1647,E3,256.75,0.292,57,166.74
1648,G#3,257.0,0.292,59,166.74
1649,C#2,257.0,0.25,43,166.74
1650,C#3,257.25,0.292,54,166.74
1651,E3,257.5,0.292,56,166.74
1652,G#2,257.5,0.25,40,166.74
1653,G#3,257.75,0.292,56,166.74
1654,C#4,258.0,0.292,57,166.74
1655,C#2,258.0,0.25,42,166.74
1656,E3,258.25,0.292,51,166.74
1657,G#3,258.5,0.292,53,166.74
1658,G#2,258.5,0.25,39,166.74
1659,C#4,258.75,0.292,54,166.74
1660,E4,259.0,0.292,56,166.74
1661,C#2,259.0,0.25,39,166.74
1662,G#3,259.25,0.292,52,166.74
1663,C#4,259.5,0.292,53,166.74
1664,G#2,259.5,0.25,39,166.74
1665,E4,259.75,0.292,56,166.74
1666,G#4,260.0,0.292,57,166.74
1667,C#2,260.0,0.25,43,166.74
1668,C#4,260.25,0.292,52,166.74
1669,E4,260.5,0.292,53,166.74
1670,G#2,260.5,0.25,40,166.74
1671,G#4,260.75,0.292,56,166.74
1672,C#5,261.0,0.292,57,166.74
1673,C#2,261.0,0.25,43,166.74
1674,E4,261.25,0.292,52,166.74
1675,G#4,261.5,0.292,53,166.74
1676,G#2,261.5,0.25,40,166.74
1677,C#5,261.75,0.292,56,166.74
1678,E5,262.0,0.292,56,166.74
1679,C#2,262.0,0.25,41,166.74
1680,G#4,262.25,0.292,52,166.74
1681,C#5,262.5,0.292,56,166.74
1682,G#2,262.5,0.25,38,166.74
1683,E5,262.75,0.25,57,166.74
1684,E5,263.0,0.25,86,166.74
1685,G#5,263.0,0.25,86,166.74
1686,C#5,263.0,0.25,86,166.74
1687,G#4,263.0,0.25,86,166.74
1688,C#3,263.0,0.25,70,166.74
1689,C#2,263.0,0.25,70,166.74
1690,G#2,263.5,0.25,67,166.74
1691,G#4,263.5,0.25,73,166.74
1692,G#5,263.5,0.25,73,166.74
1693,C#5,263.5,0.25,73,166.74
1694,E5,263.5,0.25,73,166.74
1695,C2,264.0,0.25,41,166.74
1696,G#2,264.25,0.24,48,166.74
1697,C3,264.5,0.292,50,166.74
1698,G#2,264.5,0.25,39,166.74
1699,E-3,264.75,0.292,51,166.74
1700,G#3,265.0,0.292,52,166.74
1701,C2,265.0,0.25,41,166.74
1702,C3,265.25,0.292,48,166.74
1703,E-3,265.5,0.292,49,166.74
1704,G#2,265.5,0.25,38,166.74
1705,G#3,265.75,0.292,51,166.74
1706,C4,266.0,0.292,53,166.74
1707,C2,266.0,0.25,40,166.74
1708,E-3,266.25,0.292,47,166.74
1709,G#3,266.5,0.292,49,166.74
1710,G#2,266.5,0.25,37,166.74
1711,C4,266.75,0.292,51,166.74
1712,E-4,267.0,0.292,51,166.74
1713,C2,267.0,0.25,40,166.74
1714,G#3,267.25,0.292,48,166.74
1715,C4,267.5,0.292,51,166.74
1716,G#2,267.5,0.25,38,166.74
1717,E-4,267.75,0.292,52,166.74
1718,G#4,268.0,0.292,53,166.74
1719,C2,268.0,0.25,40,166.74
1720,C4,268.25,0.292,48,166.74
1721,E-4,268.5,0.292,49,166.74
1722,G#2,268.5,0.25,38,166.74
1723,G#4,268.75,0.292,51,166.74
1724,C5,269.0,0.292,51,166.74
1725,C2,269.0,0.25,40,166.74
1726,E-4,269.25,0.292,48,166.74
1727,G#4,269.5,0.292,50,166.74
1728,G#2,269.5,0.25,37,166.74
1729,C5,269.75,0.292,51,166.74
1730,E-5,270.0,0.292,52,166.74
1731,C2,270.0,0.25,40,166.74
1732,G#4,270.25,0.292,51,166.74
1733,C5,270.5,0.292,52,166.74
1734,G#2,270.5,0.25,37,166.74
1735,E-5,270.75,0.25,56,166.74
1736,G#4,271.0,0.25,86,166.74
1737,C5,271.0,0.25,86,166.74
1738,E-5,271.0,0.25,86,166.74
1739,G#5,271.0,0.25,86,166.74
1740,C3,271.0,0.25,70,166.74
1741,C2,271.0,0.25,70,166.74
1742,G#2,271.5,0.25,58,166.74
1743,G#4,271.5,0.25,72,166.74
1744,C5,271.5,0.25,72,166.74
1745,E-5,271.5,0.25,72,166.74
1746,G#5,271.5,0.25,72,166.74
1747,B1,272.0,0.25,55,166.74
1748,C#3,272.25,0.292,63,166.74
1749,F3,272.5,0.292,66,166.74
1750,G#2,272.5,0.25,51,166.74
1751,G#3,272.75,0.292,63,166.74
1752,C#4,273.0,0.292,68,166.74
1753,B1,273.0,0.25,56,166.74
1754,F3,273.25,0.292,62,166.74
1755,G#3,273.5,0.292,63,166.74
1756,G#2,273.5,0.25,52,166.74
1757,C#4,273.75,0.292,62,166.74
1758,F4,274.0,0.292,68,166.74
1759,B1,274.0,0.25,56,166.74
1760,G#3,274.25,0.292,62,166.74
1761,C#4,274.5,0.292,63,166.74
1762,G#2,274.5,0.25,52,166.74
1763,F4,274.75,0.292,65,166.74
1764,G#4,275.0,0.292,68,166.74
1765,B1,275.0,0.25,56,166.74
1766,C#4,275.25,0.292,62,166.74
1767,F4,275.5,0.292,65,166.74
1768,G#2,275.5,0.25,52,166.74
1769,G#4,275.75,0.292,62,166.74
1770,C#5,276.0,0.292,68,166.74
1771,B1,276.0,0.25,56,166.74
1772,F4,276.25,0.292,61,166.74
1773,G#4,276.5,0.292,62,166.74
1774,G#2,276.5,0.25,52,166.74
1775,C#5,276.75,0.292,62,166.74
1776,F5,277.0,0.292,68,166.74
1777,B1,277.0,0.25,56,166.74
1778,G#4,277.25,0.292,63,166.74
1779,C#5,277.5,0.292,66,166.74
1780,G#2,277.5,0.25,52,166.74
1781,F5,277.75,0.292,65,166.74
1782,G#5,278.0,0.292,69,166.74
1783,B1,278.0,0.25,56,166.74
1784,C#5,278.25,0.292,63,166.74
1785,F5,278.5,0.292,68,166.74
1786,G#2,278.5,0.25,52,166.74
1787,G#5,278.75,0.25,68,166.74
1788,F5,279.0,0.25,95,166.74
1789,G#5,279.0,0.25,95,166.74
1790,C#5,279.0,0.25,95,166.74
1791,C#6,279.0,0.25,95,166.74
1792,B2,279.0,0.25,74,166.74
1793,B1,279.0,0.25,74,166.74
1794,G#2,279.5,0.25,73,166.74
1795,F5,279.5,0.25,84,166.74
1796,C#5,279.5,0.25,84,166.74
1797,G#5,279.5,0.25,84,166.74
1798,C#6,279.5,0.25,84,166.74
1799,A1,280.0,0.25,50,166.74
1800,C#3,280.25,0.292,61,166.74
1801,F#3,280.5,0.292,63,166.74
1802,A2,280.5,0.25,51,166.74
1803,A3,280.75,0.292,62,166.74
1804,C#4,281.0,0.125,69,166.74
1805,A1,281.0,0.25,57,166.74
1806,C#4,281.25,0.292,72,166.74
1807,F#4,281.5,0.292,76,166.74
1808,A2,281.5,0.25,62,166.74
1809,A4,281.75,0.292,76,166.74
1810,C#5,282.0,0.125,79,166.74
1811,A1,282.0,0.25,67,166.74
1812,C#5,282.25,0.292,83,166.74
1813,F#5,282.5,0.292,84,166.74
1814,A2,282.5,0.25,68,166.74
1815,A5,282.75,0.292,80,166.74
1816,A1,283.0,0.25,86,166.74
1817,F#5,283.0,0.25,97,166.74
1818,C#5,283.0,0.25,97,166.74
1819,C#6,283.0,0.25,97,166.74
1820,A2,283.5,0.25,85,166.74
1821,C#5,283.5,0.25,96,166.74
1822,F#5,283.5,0.25,96,166.74
1823,C#6,283.5,0.25,96,166.74
1824,A1,284.0,0.25,67,166.74
1825,C#3,284.25,0.292,75,166.74
1826,E3,284.5,0.292,77,166.74
1827,A2,284.5,0.25,63,166.74
1828,G3,284.75,0.292,75,166.74
1829,C#4,285.0,0.125,80,166.74
1830,A1,285.0,0.25,67,166.74
1831,C#4,285.25,0.292,76,166.74
1832,E4,285.5,0.292,79,166.74
1833,A2,285.5,0.25,63,166.74
1834,G4,285.75,0.292,77,166.74
1835,C#5,286.0,0.125,81,166.74
1836,A1,286.0,0.25,67,166.74
1837,C#5,286.25,0.292,79,166.74
1838,E5,286.5,0.292,80,166.74
1839,A2,286.5,0.25,63,166.74
1840,G5,286.75,0.25,80,166.74
1841,A1,287.0,0.25,90,166.74
1842,G5,287.0,0.25,102,166.74
1843,C#5,287.0,0.25,102,166.74
1844,C#6,287.0,0.25,102,166.74
1845,A2,287.5,0.25,90,166.74
1846,C#6,287.5,0.25,102,166.74
1847,C#5,287.5,0.25,102,166.74
1848,G5,287.5,0.25,102,166.74
1849,C6,288.0,0.5,102,166.74
1850,G#5,288.0,0.5,102,166.74
1851,C5,288.0,0.5,102,166.74
1852,G#2,288.0,0.5,77,166.74
1853,G#1,288.0,0.5,77,166.74
1854,G#4,288.5,0.25,74,166.74
1855,C4,288.5,0.5,62,166.74
1856,G#3,288.5,7.5,62,166.74
1857,G#5,288.75,0.25,58,166.74
1858,G#4,289.0,0.25,75,166.74
1859,C4,289.0,0.5,62,166.74
1860,G#5,289.25,0.25,60,166.74
1861,B-4,289.5,0.25,76,166.74
1862,C#4,289.5,0.5,62,166.74
1863,G#5,289.75,0.25,60,166.74
1864,C5,290.0,0.25,76,166.74
1865,E-4,290.0,0.5,64,166.74
1866,G#5,290.25,0.25,61,166.74
1867,C#5,290.5,0.25,78,166.74
1868,E4,290.5,0.5,66,166.74
1869,G#5,290.75,0.25,62,166.74
1870,E-5,291.0,0.25,79,166.74
1871,F#4,291.0,0.5,67,166.74
1872,G#5,291.25,0.25,62,166.74
1873,C5,291.5,0.25,79,166.74
1874,E-4,291.5,0.5,68,166.74
1875,G#5,291.75,0.25,62,166.74
1876,E-5,292.0,0.25,80,166.74
1877,F#4,292.0,0.5,69,166.74
1878,G#5,292.25,0.25,62,166.74
1879,C#5,292.5,0.25,80,166.74
1880,E4,292.5,0.5,71,166.74
1881,G#5,292.75,0.25,62,166.74
1882,F#5,293.0,0.25,84,166.74
1883,A4,293.0,0.5,72,166.74
1884,G#5,293.25,0.25,62,166.74
1885,E5,293.5,0.25,80,166.74
1886,G#4,293.5,0.5,71,166.74
1887,G#5,293.75,0.25,62,166.74
1888,E-5,294.0,0.25,80,166.74
1889,F#4,294.0,0.5,69,166.74
1890,G#5,294.25,0.25,62,166.74
1891,C#5,294.5,0.25,79,166.74
1892,E4,294.5,0.5,68,166.74
1893,G#5,294.75,0.25,62,166.74
1894,C5,295.0,0.25,79,166.74
1895,E-4,295.0,0.5,67,166.74
1896,G#5,295.25,0.25,62,166.74
1897,A4,295.5,0.25,77,166.74
1898,C#4,295.5,0.5,66,166.74
1899,G5,295.75,0.25,61,166.74
1900,G#4,296.0,0.25,76,166.74
1901,C4,296.0,0.5,64,166.74
1902,G#3,296.0,8.0,64,166.74
1903,G#5,296.25,0.25,60,166.74
1904,G#4,296.5,0.25,75,166.74
1905,C4,296.5,0.5,63,166.74
1906,G#5,296.75,0.25,59,166.74
1907,G#4,297.0,0.25,74,166.74
1908,C4,297.0,0.5,62,166.74
1909,G#5,297.25,0.25,59,166.74
1910,B-4,297.5,0.25,74,166.74
1911,C#4,297.5,0.5,60,166.74
1912,G#5,297.75,0.25,61,166.74
1913,C5,298.0,0.25,76,166.74
1914,E-4,298.0,0.5,62,166.74
1915,G#5,298.25,0.25,59,166.74
1916,C#5,298.5,0.25,76,166.74
1917,E4,298.5,0.5,62,166.74
1918,G#5,298.75,0.25,62,166.74
1919,E-5,299.0,0.25,77,166.74
1920,F#4,299.0,0.5,65,166.74
1921,G#5,299.25,0.25,61,166.74
1922,C5,299.5,0.25,79,166.74
1923,E-4,299.5,0.5,67,166.74
1924,G#5,299.75,0.25,62,166.74
1925,E-5,300.0,0.25,79,166.74
1926,F#4,300.0,0.5,68,166.74
1927,G#5,300.25,0.25,62,166.74
1928,C#5,300.5,0.25,80,166.74
1929,E4,300.5,0.5,68,166.74
1930,G#5,300.75,0.25,65,166.74
1931,F#5,301.0,0.25,84,166.74
1932,A4,301.0,0.5,68,166.74
1933,G#5,301.25,0.25,68,166.74
1934,E5,301.5,0.25,84,166.74
1935,G#4,301.5,0.5,67,166.74
1936,G#5,301.75,0.25,67,166.74
1937,E-5,302.0,0.25,84,166.74
1938,F#4,302.0,0.5,67,166.74
1939,G#5,302.25,0.25,67,166.74
1940,C#5,302.5,0.25,84,166.74
1941,E4,302.5,0.5,67,166.74
1942,G#5,302.75,0.25,66,166.74
1943,C5,303.0,0.25,84,166.74
1944,E-4,303.0,0.5,67,166.74
1945,G#5,303.25,0.25,67,166.74
1946,A4,303.5,0.25,84,166.74
1947,C#4,303.5,0.5,67,166.74
1948,G5,303.75,0.25,66,166.74
1949,G#4,304.0,0.25,84,166.74
1950,G#3,304.0,0.25,71,166.74
1951,C4,304.0,0.25,71,166.74
1952,G#5,304.25,0.25,66,166.74
1953,A4,304.5,0.25,79,166.74
1954,C#4,304.5,0.25,62,166.74
1955,G#3,304.5,0.25,62,166.74
1956,G5,304.75,0.25,67,166.74
1957,G#4,305.0,0.25,84,166.74
1958,C4,305.0,0.25,67,166.74
1959,G#3,305.0,0.25,67,166.74
1960,G#5,305.25,0.25,66,166.74
1961,A4,305.5,0.25,79,166.74
1962,C#4,305.5,0.25,62,166.74
1963,G#3,305.5,0.25,62,166.74
1964,G5,305.75,0.25,67,166.74
1965,G#4,306.0,0.25,84,166.74
1966,C4,306.0,0.25,71,166.74
1967,G#3,306.0,0.25,71,166.74
1968,G#5,306.25,0.25,66,166.74
1969,A4,306.5,0.25,79,166.74
1970,C#4,306.5,0.25,62,166.74
1971,G#3,306.5,0.25,62,166.74
1972,G5,306.75,0.25,65,166.74
1973,G#4,307.0,0.25,84,166.74
1974,C4,307.0,0.25,67,166.74
1975,G#3,307.0,0.25,67,166.74
1976,G#5,307.25,0.25,66,166.74
1977,A4,307.5,0.25,79,166.74
1978,C#4,307.5,0.25,61,166.74
1979,G#3,307.5,0.25,61,166.74
1980,G5,307.75,0.25,65,166.74
1981,G#4,308.0,0.5,84,166.74
1982,G#5,308.0,0.5,84,166.74
1983,G#3,308.0,0.5,71,166.74
1984,C4,308.0,0.5,71,166.74
1985,G#3,309.0,3.0,113,166.74
1986,G#1,309.0,3.0,96,166.74
1987,G#2,309.0,3.0,96,166.74
1988,C#2,312.0,0.25,43,166.74
1989,G#2,312.25,0.24,47,166.74
1990,C#3,312.5,0.292,49,166.74
1991,G#2,312.5,0.25,39,166.74
1992,E3,312.75,0.292,51,166.74
1993,G#3,313.0,0.292,52,166.74
1994,C#2,313.0,0.25,43,166.74
1995,C#3,313.25,0.292,47,166.74
1996,E3,313.5,0.292,49,166.74
1997,G#2,313.5,0.25,39,166.74
1998,G#3,313.75,0.292,51,166.74
1999,C#4,314.0,0.292,52,166.74
2000,C#2,314.0,0.25,43,166.74
2001,E3,314.25,0.292,47,166.74
2002,G#3,314.5,0.292,49,166.74
2003,G#2,314.5,0.25,39,166.74
2004,C#4,314.75,0.292,51,166.74
2005,E4,315.0,0.292,52,166.74
2006,C#2,315.0,0.25,43,166.74
2007,G#3,315.25,0.292,48,166.74
2008,C#4,315.5,0.292,50,166.74
2009,G#2,315.5,0.25,39,166.74
2010,E4,315.75,0.292,51,166.74
2011,G#4,316.0,0.292,52,166.74
2012,C#2,316.0,0.25,43,166.74
2013,C#4,316.25,0.292,47,166.74
2014,E4,316.5,0.292,47,166.74
2015,G#2,316.5,0.25,39,166.74
2016,G#4,316.75,0.292,50,166.74
2017,C#5,317.0,0.292,52,166.74
2018,C#2,317.0,0.25,43,166.74
2019,E4,317.25,0.292,47,166.74
2020,G#4,317.5,0.292,50,166.74
2021,G#2,317.5,0.25,39,166.74
2022,C#5,317.75,0.292,51,166.74
2023,E5,318.0,0.24,54,166.74
2024,C#2,318.0,0.25,43,166.74
2025,E5,318.25,0.292,51,166.74
2026,G#5,318.5,0.292,51,166.74
2027,G#2,318.5,0.25,43,166.74
2028,C#6,318.75,0.25,53,166.74
2029,E5,319.0,0.25,104,166.74
2030,E6,319.0,0.25,104,166.74
2031,C#3,319.0,0.25,82,166.74
2032,C#2,319.0,0.25,82,166.74
2033,G#2,319.5,0.25,74,166.74
2034,E5,319.5,0.25,81,166.74
2035,E6,319.5,0.25,81,166.74
2036,B-1,320.0,0.25,40,166.74
2037,E3,320.25,0.292,46,166.74
2038,G3,320.5,0.292,48,166.74
2039,C#3,320.5,0.25,37,166.74
2040,C#4,320.75,0.292,50,166.74
2041,E4,321.0,0.292,51,166.74
2042,B-2,321.0,0.25,40,166.74
2043,G3,321.25,0.292,47,166.74
2044,C#4,321.5,0.292,49,166.74
2045,C#3,321.5,0.25,40,166.74
2046,E4,321.75,0.292,51,166.74
2047,G4,322.0,0.292,51,166.74
2048,B-2,322.0,0.25,40,166.74
2049,C#4,322.25,0.292,50,166.74
2050,E4,322.5,0.292,49,166.74
2051,C#3,322.5,0.25,37,166.74
2052,G4,322.75,0.292,51,166.74
2053,C#5,323.0,0.292,52,166.74
2054,B-2,323.0,0.25,40,166.74
2055,E4,323.25,0.292,47,166.74
2056,G4,323.5,0.292,49,166.74
2057,C#3,323.5,0.25,40,166.74
2058,C#5,323.75,0.292,51,166.74
2059,E5,324.0,0.292,52,166.74
2060,B-2,324.0,0.25,40,166.74
2061,G4,324.25,0.292,48,166.74
2062,C#5,324.5,0.292,48,166.74
2063,C#3,324.5,0.25,37,166.74
2064,E5,324.75,0.292,50,166.74
2065,G5,325.0,0.292,52,166.74
2066,B-2,325.0,0.25,40,166.74
2067,C#5,325.25,0.292,47,166.74
2068,E5,325.5,0.292,50,166.74
2069,C#3,325.5,0.25,37,166.74
2070,G5,325.75,0.292,51,166.74
2071,C#6,326.0,0.292,54,166.74
2072,B-2,326.0,0.25,40,166.74
2073,E5,326.25,0.292,51,166.74
2074,G5,326.5,0.292,54,166.74
2075,C#3,326.5,0.25,38,166.74
2076,C#6,326.75,0.25,57,166.74
2077,E6,327.0,0.25,102,166.74
2078,E5,327.0,0.25,102,166.74
2079,B-2,327.0,0.25,77,166.74
2080,B-1,327.0,0.25,77,166.74
2081,C#3,327.5,0.25,72,166.74
2082,E5,327.5,0.25,80,166.74
2083,E6,327.5,0.25,80,166.74
2084,G1,328.0,0.25,39,166.74
2085,E-3,328.25,0.24,50,166.74
2086,B-3,328.5,0.292,51,166.74
2087,E-3,328.5,0.25,39,166.74
2088,C#4,328.75,0.292,51,166.74
2089,E-4,329.0,0.292,51,166.74
2090,G2,329.0,0.25,40,166.74
2091,B-3,329.25,0.292,52,166.74
2092,C#4,329.5,0.292,53,166.74
2093,E-3,329.5,0.25,42,166.74
2094,E-4,329.75,0.292,54,166.74
2095,B-4,330.0,0.292,56,166.74
2096,G2,330.0,0.25,43,166.74
2097,C#4,330.25,0.292,56,166.74
2098,E-4,330.5,0.292,57,166.74
2099,E-3,330.5,0.25,43,166.74
2100,B-4,330.75,0.292,57,166.74
2101,C#5,331.0,0.292,58,166.74
2102,G2,331.0,0.25,45,166.74
2103,E-4,331.25,0.292,59,166.74
2104,B-4,331.5,0.292,60,166.74
2105,E-3,331.5,0.25,45,166.74
2106,C#5,331.75,0.292,61,166.74
2107,E-5,332.0,0.292,62,166.74
2108,G2,332.0,0.25,47,166.74
2109,B-4,332.25,0.292,62,166.74
2110,C#5,332.5,0.292,62,166.74
2111,E-3,332.5,0.25,48,166.74
2112,E-5,332.75,0.292,62,166.74
2113,B-5,333.0,0.292,63,166.74
2114,G2,333.0,0.25,49,166.74
2115,C#5,333.25,0.292,65,166.74
2116,E-5,333.5,0.292,66,166.74
2117,E-3,333.5,0.25,51,166.74
2118,B-5,333.75,0.292,67,166.74
2119,C#6,334.0,0.292,67,166.74
2120,G2,334.0,0.25,51,166.74
2121,B-5,334.25,0.292,65,166.74
2122,E-5,334.5,0.292,62,166.74
2123,E-3,334.5,0.25,48,166.74
2124,C#5,334.75,0.292,61,166.74
2125,B-5,335.0,0.292,59,166.74
2126,G2,335.0,0.25,47,166.74
2127,E-5,335.25,0.292,57,166.74
2128,C#5,335.5,0.292,56,166.74
2129,E-3,335.5,0.25,45,166.74
2130,B-4,335.75,0.292,52,166.74
2131,B4,336.0,0.5,49,166.74
2132,G#2,336.0,0.292,33,166.74
2133,E-3,336.25,0.292,25,166.74
2134,B2,336.5,0.292,28,166.74
2135,E-3,336.75,0.292,25,166.74
2136,E-5,337.0,2.042,61,166.74
2137,G#2,337.0,0.248,35,166.74
2138,E-3,337.25,0.248,27,166.74
2139,B2,337.5,0.248,35,166.74
2140,E-3,337.75,0.248,30,166.74
2141,G#2,338.0,0.248,37,166.74
2142,E-3,338.25,0.248,27,166.74
2143,B2,338.5,0.248,39,166.74
2144,E-3,338.75,0.248,30,166.74
2145,B4,339.0,0.75,56,166.74
2146,G#2,339.0,0.248,39,166.74
2147,E-3,339.25,0.248,31,166.74
2148,B2,339.5,0.248,40,166.74
2149,G#4,339.75,0.125,56,166.74
2150,E-3,339.75,0.248,33,166.74
2151,G4,339.875,1.0,44,166.74
2152,G#4,339.875,1.0,44,166.74
2153,B-4,339.958,0.042,44,166.74
2154,G#4,340.0,1.042,63,166.74
2155,B-2,340.0,0.292,33,166.74
2156,E-3,340.25,0.292,26,166.74
2157,C#3,340.5,0.292,29,166.74
2158,E-3,340.75,0.292,26,166.74
2159,G4,341.0,1.5,56,166.74
2160,B-2,341.0,0.248,42,166.74
2161,E-3,341.25,0.248,32,166.74
2162,C#3,341.5,0.248,40,166.74
2163,E-3,341.75,0.248,40,166.74
2164,B-2,342.0,0.248,49,166.74
2165,E-3,342.25,0.248,40,166.74
2166,G4,342.5,0.542,56,166.74
2167,C#3,342.5,0.248,46,166.74
2168,E-3,342.75,0.248,41,166.74
2169,E-5,343.0,0.75,68,166.74
2170,B-2,343.0,0.248,56,166.74
2171,E-3,343.25,0.248,41,166.74
2172,C#3,343.5,0.248,43,166.74
2173,G4,343.75,0.25,57,166.74
2174,E-3,343.75,0.248,36,166.74
2175,B-4,344.0,1.042,51,166.74
2176,B2,344.0,0.248,33,166.74
2177,E-3,344.25,0.248,29,166.74
2178,B2,344.5,0.248,30,166.74
2179,E-3,344.75,0.248,26,166.74
2180,G#4,345.0,1.5,56,166.74
2181,B2,345.0,0.248,41,166.74
2182,E-3,345.25,0.248,32,166.74
2183,B2,345.5,0.248,39,166.74
2184,E-3,345.75,0.248,36,166.74
2185,B2,346.0,0.248,49,166.74
2186,E-3,346.25,0.248,38,166.74
2187,G#4,346.5,0.542,53,166.74
2188,B2,346.5,0.248,48,166.74
2189,E-3,346.75,0.248,42,166.74
2190,E-5,347.0,0.75,68,166.74
2191,B2,347.0,0.248,54,166.74
2192,E-3,347.25,0.248,41,166.74
2193,B2,347.5,0.248,43,166.74
2194,G#4,347.75,0.25,56,166.74
2195,E-3,347.75,0.248,35,166.74
2196,B4,348.0,1.042,57,166.74
2197,G2,348.0,0.248,32,166.74
2198,E-3,348.25,0.248,29,166.74
2199,G2,348.5,0.248,29,166.74
2200,E-3,348.75,0.248,26,166.74
2201,B-4,349.0,1.5,56,166.74
2202,G2,349.0,0.248,41,166.74
2203,E-3,349.25,0.248,40,166.74
2204,G2,349.5,0.248,42,166.74
2205,E-3,349.75,0.248,40,166.74
2206,G2,350.0,0.248,48,166.74
2207,E-3,350.25,0.248,43,166.74
2208,B-4,350.5,0.542,57,166.74
2209,G2,350.5,0.248,49,166.74
2210,E-3,350.75,0.248,42,166.74
2211,E-5,351.0,0.75,53,166.74
2212,G2,351.0,0.248,54,166.74
2213,E-3,351.25,0.248,38,166.74
2214,G2,351.5,0.248,42,166.74
2215,B-4,351.75,0.25,57,166.74
2216,E-3,351.75,0.248,35,166.74
2217,B4,352.0,0.5,59,166.74
2218,G#2,352.0,0.292,39,166.74
2219,E-3,352.25,0.292,33,166.74
2220,B2,352.5,0.248,35,166.74
2221,E-6,352.5,1.0,54,166.74
2222,E-5,352.5,1.0,54,166.74
2223,E-3,352.75,0.248,31,166.74
2224,G#2,353.0,0.248,40,166.74
2225,E-3,353.25,0.248,31,166.74
2226,B2,353.5,0.248,34,166.74
2227,E-5,353.5,1.0,54,166.74
2228,E-6,353.5,1.0,54,166.74
2229,E-3,353.75,0.248,31,166.74
2230,G#2,354.0,0.248,41,166.74
2231,E-3,354.25,0.248,32,166.74
2232,B2,354.5,0.248,35,166.74
2233,E-5,354.5,0.25,52,166.74
2234,E-6,354.5,0.25,52,166.74
2235,E-3,354.75,0.248,32,166.74
2236,G#2,355.0,0.292,43,166.74
2237,B4,355.0,0.25,54,166.74
2238,B5,355.0,0.25,54,166.74
2239,E-3,355.25,0.292,33,166.74
2240,B2,355.5,0.292,37,166.74
2241,G#5,355.5,0.25,54,166.74
2242,G#4,355.5,0.25,54,166.74
2243,E-3,355.75,0.292,33,166.74
2244,B-2,356.0,0.292,46,166.74
2245,G#4,356.0,0.25,56,166.74
2246,G#5,356.0,0.25,56,166.74
2247,E-3,356.25,0.292,34,166.74
2248,C#3,356.5,0.248,39,166.74
2249,G4,356.5,1.0,57,166.74
2250,G5,356.5,1.0,57,166.74
2251,E-3,356.75,0.248,34,166.74
2252,B-2,357.0,0.248,47,166.74
2253,E-3,357.25,0.248,35,166.74
2254,C#3,357.5,0.248,40,166.74
2255,G5,357.5,1.0,62,166.74
2256,G4,357.5,1.0,62,166.74
2257,E-3,357.75,0.248,40,166.74
2258,B-2,358.0,0.248,49,166.74
2259,E-3,358.25,0.248,35,166.74
2260,C#3,358.5,0.248,41,166.74
2261,G5,358.5,0.25,64,166.74
2262,G4,358.5,0.25,64,166.74
2263,E-3,358.75,0.248,35,166.74
2264,B-2,359.0,0.292,50,166.74
2265,E-5,359.0,0.25,66,166.74
2266,E-6,359.0,0.25,66,166.74
2267,E-3,359.25,0.292,42,166.74
2268,C#3,359.5,0.292,45,166.74
2269,G4,359.5,0.25,67,166.74
2270,G5,359.5,0.25,67,166.74
2271,E-3,359.75,0.292,42,166.74
2272,B2,360.0,0.292,51,166.74
2273,B-5,360.0,0.25,68,166.74
2274,B-4,360.0,0.25,68,166.74
2275,E-3,360.25,0.292,43,166.74
2276,B2,360.5,0.248,47,166.74
2277,G#4,360.5,1.0,69,166.74
2278,G#5,360.5,1.0,69,166.74
2279,E-3,360.75,0.248,43,166.74
2280,B2,361.0,0.248,52,166.74
2281,E-3,361.25,0.248,44,166.74
2282,B2,361.5,0.248,48,166.74
2283,G#4,361.5,1.0,74,166.74
2284,G#5,361.5,1.0,74,166.74
2285,E-3,361.75,0.248,44,166.74
2286,B2,362.0,0.248,56,166.74
2287,E-3,362.25,0.248,46,166.74
2288,B2,362.5,0.292,50,166.74
2289,G#5,362.5,0.25,76,166.74
2290,G#4,362.5,0.25,76,166.74
2291,E-3,362.75,0.292,45,166.74
2292,B2,363.0,0.292,57,166.74
2293,E-6,363.0,0.25,78,166.74
2294,E-5,363.0,0.25,78,166.74
2295,E-3,363.25,0.292,47,166.74
2296,B2,363.5,0.292,51,166.74
2297,G#4,363.5,0.25,80,166.74
2298,G#5,363.5,0.25,80,166.74
2299,E-3,363.75,0.292,47,166.74
2300,G2,364.0,0.292,59,166.74
2301,B4,364.0,0.25,80,166.74
2302,B5,364.0,0.25,80,166.74
2303,E-3,364.25,0.292,52,166.74
2304,G2,364.5,0.248,56,166.74
2305,B-4,364.5,1.0,82,166.74
2306,B-5,364.5,1.0,82,166.74
2307,E-3,364.75,0.248,51,166.74
2308,G2,365.0,0.248,60,166.74
2309,E-3,365.25,0.248,53,166.74
2310,G2,365.5,0.248,57,166.74
2311,B-4,365.5,1.0,86,166.74
2312,B-5,365.5,1.0,86,166.74
2313,E-3,365.75,0.248,52,166.74
2314,G2,366.0,0.248,62,166.74
2315,E-3,366.25,0.248,54,166.74
2316,G2,366.5,0.292,59,166.74
2317,B-4,366.5,0.25,86,166.74
2318,B-5,366.5,0.25,86,166.74
2319,E-3,366.75,0.292,53,166.74
2320,G2,367.0,0.292,62,166.74
2321,E-6,367.0,0.25,93,166.74
2322,E-5,367.0,0.25,93,166.74
2323,E-3,367.25,0.292,54,166.74
2324,G2,367.5,0.292,60,166.74
2325,B-5,367.5,0.25,86,166.74
2326,B-4,367.5,0.25,86,166.74
2327,E-3,367.75,0.292,53,166.74
2328,F#2,368.0,0.292,66,166.74
2329,C5,368.0,2.0,88,166.74
2330,C6,368.0,2.0,88,166.74
2331,E-3,368.25,0.292,57,166.74
2332,G#2,368.5,0.292,61,166.74
2333,E-3,368.75,0.292,56,166.74
2334,F#2,369.0,0.292,66,166.74
2335,E-3,369.25,0.292,56,166.74
2336,G#2,369.5,0.292,61,166.74
2337,E-3,369.75,0.292,56,166.74
2338,E2,370.0,0.292,66,166.74
2339,C#5,370.0,2.0,88,166.74
2340,C#6,370.0,2.0,88,166.74
2341,C#3,370.25,0.292,58,166.74
2342,G#2,370.5,0.292,62,166.74
2343,C#3,370.75,0.292,56,166.74
2344,E2,371.0,0.292,66,166.74
2345,C#3,371.25,0.292,56,166.74
2346,G#2,371.5,0.292,61,166.74
2347,C#3,371.75,0.292,61,166.74
2348,B-4,372.0,1.0,68,166.74
2349,B-5,372.0,0.135,80,166.74
2350,E2,372.0,0.248,66,166.74
2351,B5,372.135,0.133,75,166.74
2352,C#3,372.25,0.248,56,166.74
2353,B-5,372.269,0.135,80,166.74
2354,B5,372.404,0.133,80,166.74
2355,F#2,372.5,0.248,61,166.74
2356,B-5,372.573,0.163,80,166.74
2357,G#5,372.723,0.16,75,166.74
2358,C#3,372.75,0.248,54,166.74
2359,B-5,372.86,0.14,75,166.74
2360,E-2,373.0,0.292,66,166.74
2361,B4,373.0,3.0,88,166.74
2362,B5,373.0,3.0,88,166.74
2363,B2,373.25,0.292,56,166.74
2364,F#2,373.5,0.292,62,166.74
2365,B2,373.75,0.292,56,166.74
2366,E-2,374.0,0.292,66,166.74
2367,B2,374.25,0.292,56,166.74
2368,F#2,374.5,0.292,61,166.74
2369,B2,374.75,0.292,56,166.74
2370,E-2,375.0,0.292,66,166.74
2371,B2,375.25,0.292,54,166.74
2372,F#2,375.5,0.292,60,166.74
2373,B2,375.75,0.292,60,166.74
2374,D2,376.0,0.292,66,166.74
2375,G#5,376.0,2.0,88,166.74
2376,G#4,376.0,2.0,88,166.74
2377,B2,376.25,0.292,56,166.74
2378,E2,376.5,0.292,62,166.74
2379,B2,376.75,0.292,54,166.74
2380,D2,377.0,0.292,66,166.74
2381,B2,377.25,0.292,56,166.74
2382,E2,377.5,0.292,62,166.74
2383,B2,377.75,0.292,56,166.74
2384,C#2,378.0,0.292,66,166.74
2385,A4,378.0,2.0,87,166.74
2386,A5,378.0,2.0,87,166.74
2387,A2,378.25,0.292,56,166.74
2388,E2,378.5,0.292,62,166.74
2389,A2,378.75,0.292,56,166.74
2390,C#2,379.0,0.292,66,166.74
2391,A2,379.25,0.292,56,166.74
2392,E2,379.5,0.292,62,166.74
2393,A2,379.75,0.292,56,166.74
2394,G4,380.0,1.0,68,166.74
2395,G5,380.0,0.135,80,166.74
2396,C#2,380.0,0.248,66,166.74
2397,G#5,380.135,0.135,75,166.74
2398,B-2,380.25,0.248,56,166.74
2399,G5,380.269,0.135,80,166.74
2400,G#5,380.404,0.135,80,166.74
2401,E-2,380.5,0.248,60,166.74
2402,G5,380.573,0.163,80,166.74
2403,F5,380.723,0.163,75,166.74
2404,B-2,380.75,0.248,56,166.74
2405,G5,380.86,0.14,75,166.74
2406,B1,381.0,0.292,66,166.74
2407,G#5,381.0,3.0,88,166.74
2408,G#4,381.0,3.0,88,166.74
2409,G#2,381.25,0.292,56,166.74
2410,E-2,381.5,0.292,61,166.74
2411,G#2,381.75,0.292,56,166.74
2412,B1,382.0,0.292,66,166.74
2413,G#2,382.25,0.292,56,166.74
2414,E-2,382.5,0.292,61,166.74
2415,G#2,382.75,0.292,54,166.74
2416,B1,383.0,0.292,66,166.74
2417,G#2,383.25,0.292,56,166.74
2418,E-2,383.5,0.292,61,166.74
2419,G#2,383.75,0.25,54,166.74
2420,E5,384.0,2.25,96,166.74
2421,A4,384.0,2.25,96,166.74
2422,C#5,384.0,2.25,96,166.74
2423,A5,384.0,2.25,96,166.74
2424,A2,384.0,3.0,70,166.74
2425,C#3,384.0,3.0,70,166.74
2426,E2,384.0,3.0,70,166.74
2427,C#2,384.0,3.0,70,166.74
2428,E5,386.25,0.25,48,166.74
2429,F#5,386.5,0.25,49,166.74
2430,G#5,386.75,0.25,51,166.74
2431,A5,387.0,0.25,51,166.74
2432,B5,387.25,0.25,52,166.74
2433,C#6,387.5,0.25,53,166.74
2434,B5,387.75,0.25,51,166.74
2435,A5,388.0,0.25,49,166.74
2436,E4,388.0,1.0,45,166.74
2437,C#4,388.0,1.0,45,166.74
2438,A4,388.0,1.0,45,166.74
2439,E5,388.25,0.25,47,166.74
2440,F#5,388.5,0.25,48,166.74
2441,G#5,388.75,0.25,48,166.74
2442,A5,389.0,0.25,49,166.74
2443,B5,389.25,0.25,50,166.74
2444,C#6,389.5,0.25,51,166.74
2445,B5,389.75,0.25,50,166.74
2446,A5,390.0,0.25,48,166.74
2447,A4,390.0,1.0,44,166.74
2448,E4,390.0,1.0,44,166.74
2449,C#4,390.0,1.0,44,166.74
2450,E5,390.25,0.25,49,166.74
2451,F#5,390.5,0.25,50,166.74
2452,G#5,390.75,0.25,50,166.74
2453,A5,391.0,0.25,51,166.74
2454,B5,391.25,0.25,51,166.74
2455,C#6,391.5,0.25,51,166.74
2456,B5,391.75,0.25,49,166.74
2457,A5,392.0,0.25,47,166.74
2458,A4,392.0,1.0,44,166.74
2459,E4,392.0,1.0,44,166.74
2460,C#4,392.0,1.0,44,166.74
2461,E5,392.25,0.25,48,166.74
2462,F#5,392.5,0.25,51,166.74
2463,G#5,392.75,0.25,51,166.74
2464,A5,393.0,0.25,54,166.74
2465,A4,393.0,1.0,47,166.74
2466,E4,393.0,1.0,47,166.74
2467,C#4,393.0,1.0,47,166.74
2468,B5,393.25,0.25,56,166.74
2469,C#6,393.5,0.25,57,166.74
2470,D6,393.75,0.25,60,166.74
2471,E6,394.0,0.25,61,166.74
2472,A4,394.0,1.0,54,166.74
2473,E4,394.0,1.0,54,166.74
2474,C#4,394.0,1.0,54,166.74
2475,E-6,394.25,0.25,59,166.74
2476,E6,394.5,0.25,57,166.74
2477,E-6,394.75,0.25,56,166.74
2478,E6,395.0,0.25,54,166.74
2479,C#4,395.0,1.0,50,166.74
2480,A4,395.0,1.0,50,166.74
2481,E4,395.0,1.0,50,166.74
2482,C#6,395.25,0.25,52,166.74
2483,B5,395.5,0.25,51,166.74
2484,A5,395.75,0.25,50,166.74
2485,G#5,396.0,2.0,48,166.74
2486,E-4,396.0,0.25,49,166.74
2487,B4,396.25,0.25,43,166.74
2488,G#4,396.5,0.25,49,166.74
2489,B4,396.75,0.25,49,166.74
2490,E-4,397.0,0.25,51,166.74
2491,B4,397.25,0.25,44,166.74
2492,G#4,397.5,0.25,47,166.74
2493,B4,397.75,0.25,43,166.74
2494,B-5,398.0,0.167,50,166.74
2495,E-4,398.0,0.25,51,166.74
2496,B5,398.167,0.167,50,166.74
2497,C#5,398.25,0.25,44,166.74
2498,B-5,398.333,0.156,50,166.74
2499,B5,398.49,0.156,50,166.74
2500,G4,398.5,0.25,48,166.74
2501,B-5,398.646,0.156,50,166.74
2502,C#5,398.75,0.25,44,166.74
2503,B5,398.802,0.156,50,166.74
2504,B-5,398.958,0.146,50,166.74
2505,E-4,399.0,0.25,51,166.74
2506,B5,399.104,0.146,48,166.74
2507,B-5,399.25,0.125,49,166.74
2508,C#5,399.25,0.25,45,166.74
2509,B5,399.375,0.125,50,166.74
2510,B-5,399.5,0.125,51,166.74
2511,G4,399.5,0.25,48,166.74
2512,B5,399.625,0.125,51,166.74
2513,B-5,399.75,0.125,51,166.74
2514,C#5,399.75,0.25,45,166.74
2515,B5,399.875,0.125,52,166.74
2516,G#5,400.0,0.5,56,166.74
2517,B4,400.0,0.5,53,166.74
2518,E4,400.0,0.5,53,166.74
2519,G#4,400.0,0.5,53,166.74
2520,A3,401.0,1.25,80,166.74
2521,C#4,401.0,1.25,80,166.74
2522,A4,401.0,1.25,80,166.74
2523,E4,401.0,1.25,80,166.74
2524,C#3,401.0,2.0,68,166.74
2525,A2,401.0,2.0,68,166.74
2526,E2,401.0,2.0,68,166.74
2527,C#2,401.0,2.0,68,166.74
2528,E4,402.25,0.25,48,166.74
2529,F#4,402.5,0.25,49,166.74
2530,G#4,402.75,0.25,50,166.74
2531,A4,403.0,0.25,51,166.74
2532,B4,403.25,0.25,51,166.74
2533,C#5,403.5,0.25,52,166.74
2534,B4,403.75,0.25,51,166.74
2535,A4,404.0,0.25,48,166.74
2536,E4,404.25,0.25,48,166.74
2537,F#4,404.5,0.25,48,166.74
2538,G#4,404.75,0.25,49,166.74
2539,A4,405.0,0.25,50,166.74
2540,E3,405.0,1.0,44,166.74
2541,C#3,405.0,1.0,44,166.74
2542,A3,405.0,1.0,44,166.74
2543,B4,405.25,0.25,50,166.74
2544,C#5,405.5,0.25,51,166.74
2545,B4,405.75,0.25,51,166.74
2546,A4,406.0,0.25,48,166.74
2547,E4,406.25,0.25,48,166.74
2548,F#4,406.5,0.25,48,166.74
2549,G#4,406.75,0.25,50,166.74
2550,A4,407.0,0.25,51,166.74
2551,E3,407.0,1.0,44,166.74
2552,A3,407.0,1.0,44,166.74
2553,C#3,407.0,1.0,44,166.74
2554,B4,407.25,0.25,51,166.74
2555,C#5,407.5,0.25,51,166.74
2556,B4,407.75,0.25,50,166.74
2557,A4,408.0,0.25,49,166.74
2558,E4,408.25,0.25,50,166.74
2559,F#4,408.5,0.25,51,166.74
2560,C#3,408.5,0.5,46,166.74
2561,A3,408.5,0.5,46,166.74
2562,E3,408.5,0.5,46,166.74
2563,G#4,408.75,0.25,51,166.74
2564,A4,409.0,0.25,52,166.74
2565,B4,409.25,0.25,53,166.74
2566,C#5,409.5,0.25,56,166.74
2567,C#3,409.5,0.5,54,166.74
2568,A3,409.5,0.5,54,166.74
2569,E3,409.5,0.5,54,166.74
2570,B4,409.75,0.25,56,166.74
2571,A4,410.0,0.25,57,166.74
2572,E4,410.25,0.25,58,166.74
2573,F#4,410.5,0.25,59,166.74
2574,C#3,410.5,0.5,61,166.74
2575,A3,410.5,0.5,61,166.74
2576,E3,410.5,0.5,61,166.74
2577,G#4,410.75,0.25,60,166.74
2578,A4,411.0,0.25,62,166.74
2579,B4,411.25,0.25,62,166.74
2580,C#5,411.5,0.25,62,166.74
2581,A3,411.5,0.5,61,166.74
2582,E3,411.5,0.5,61,166.74
2583,C#3,411.5,0.5,61,166.74
2584,B4,411.75,0.25,63,166.74
2585,A4,412.0,0.25,66,166.74
2586,E3,412.0,1.0,60,166.74
2587,C#3,412.0,1.0,60,166.74
2588,A3,412.0,1.0,60,166.74
2589,E4,412.25,0.25,67,166.74
2590,F#4,412.5,0.25,68,166.74
2591,G#4,412.75,0.25,68,166.74
2592,A4,413.0,0.25,70,166.74
2593,B4,413.25,0.25,71,166.74
2594,C#5,413.5,0.25,72,166.74
2595,D5,413.75,0.25,73,166.74
2596,E5,414.0,0.25,74,166.74
2597,F#5,414.25,0.25,75,166.74
2598,G#5,414.5,0.25,76,166.74
2599,A5,414.75,0.25,77,166.74
2600,B5,415.0,0.25,79,166.74
2601,C#6,415.25,0.25,79,166.74
2602,D6,415.5,0.25,79,166.74
2603,E-6,415.75,0.25,80,166.74
2604,C#3,416.0,0.248,70,166.74
2605,E6,416.0,2.0,78,166.74
2606,E5,416.0,2.0,78,166.74
2607,A3,416.25,0.248,61,166.74
2608,E3,416.5,0.248,66,166.74
2609,A3,416.75,0.248,62,166.74
2610,C#3,417.0,0.248,70,166.74
2611,A3,417.25,0.248,61,166.74
2612,E3,417.5,0.248,65,166.74
2613,A3,417.75,0.248,62,166.74
2614,D3,418.0,0.248,70,166.74
2615,G#4,418.0,2.0,78,166.74
2616,G#5,418.0,2.0,78,166.74
2617,B3,418.25,0.248,61,166.74
2618,F3,418.5,0.248,66,166.74
2619,B3,418.75,0.248,62,166.74
2620,D3,419.0,0.248,70,166.74
2621,B3,419.25,0.248,59,166.74
2622,F3,419.5,0.248,63,166.74
2623,B3,419.75,0.248,61,166.74
2624,E-3,420.0,0.248,70,166.74
2625,B4,420.0,2.0,78,166.74
2626,B5,420.0,2.0,78,166.74
2627,B3,420.25,0.248,61,166.74
2628,G#3,420.5,0.248,66,166.74
2629,B3,420.75,0.248,62,166.74
2630,E-3,421.0,0.248,70,166.74
2631,B3,421.25,0.248,62,166.74
2632,G#3,421.5,0.248,66,166.74
2633,B3,421.75,0.248,61,166.74
2634,E-2,422.0,0.248,70,166.74
2635,C#4,422.0,2.0,72,166.74
2636,G3,422.0,2.0,72,166.74
2637,G4,422.0,2.0,72,166.74
2638,E-3,422.25,0.248,62,166.74
2639,D3,422.5,0.248,67,166.74
2640,E-3,422.75,0.248,62,166.74
2641,D3,423.0,0.248,70,166.74
2642,E-3,423.25,0.248,62,166.74
2643,D3,423.5,0.248,67,166.74
2644,E-3,423.75,0.212,62,166.74
2645,G#2,424.0,0.5,71,166.74
2646,E-4,424.0,0.5,75,166.74
2647,B3,424.0,0.5,75,166.74
2648,G#4,424.0,0.5,75,166.74
2649,B4,424.5,0.25,51,166.74
2650,E-4,424.5,0.25,51,166.74
2651,G#3,425.0,0.25,43,166.74
2652,B4,425.0,0.25,51,166.74
2653,E-4,425.0,0.25,51,166.74
2654,G#3,425.5,0.25,43,166.74
2655,E-4,425.5,0.25,51,166.74
2656,B4,425.5,0.25,51,166.74
2657,G#3,426.0,0.25,43,166.74
2658,B4,426.0,0.25,51,166.74
2659,E-4,426.0,0.25,51,166.74
2660,G#3,426.5,0.25,43,166.74
2661,B4,426.5,0.25,51,166.74
2662,E-4,426.5,0.25,51,166.74
2663,B-3,427.0,0.25,40,166.74
2664,E-4,427.0,0.25,49,166.74
2665,B-4,427.0,0.25,49,166.74
2666,B3,427.5,0.25,39,166.74
2667,G#4,427.5,0.25,47,166.74
2668,E-4,427.5,0.25,47,166.74
2669,E-4,428.0,0.5,59,166.74
2670,G4,428.0,0.5,59,166.74
2671,E-3,428.0,0.5,47,166.74
2672,C#4,428.0,0.5,47,166.74
2673,G4,428.5,0.25,49,166.74
2674,E-5,428.5,0.25,49,166.74
2675,C#4,428.5,0.25,42,166.74
2676,E-4,428.5,0.25,42,166.74
2677,G4,429.0,0.25,49,166.74
2678,E-5,429.0,0.25,49,166.74
2679,C#4,429.0,0.25,41,166.74
2680,E-4,429.0,0.25,41,166.74
2681,E-5,429.5,0.25,50,166.74
2682,G4,429.5,0.25,50,166.74
2683,C#4,429.5,0.25,41,166.74
2684,E-4,429.5,0.25,41,166.74
2685,G4,430.0,0.25,51,166.74
2686,E-5,430.0,0.25,51,166.74
2687,E-4,430.0,0.25,41,166.74
2688,C#4,430.0,0.25,41,166.74
2689,G4,430.5,0.25,51,166.74
2690,E-5,430.5,0.25,51,166.74
2691,E-4,430.5,0.25,41,166.74
2692,C#4,430.5,0.25,41,166.74
2693,E-5,431.0,0.25,51,166.74
2694,G#4,431.0,0.25,51,166.74
2695,E-4,431.0,0.25,41,166.74
2696,B3,431.0,0.25,41,166.74
2697,B-4,431.5,0.25,53,166.74
2698,E-5,431.5,0.25,53,166.74
2699,B-3,431.5,0.25,43,166.74
2700,E-4,431.5,0.25,43,166.74
2701,B4,432.0,0.5,58,166.74
2702,E-5,432.0,0.5,58,166.74
2703,G#3,432.0,0.5,47,166.74
2704,G#2,432.0,0.5,47,166.74
2705,G#3,432.5,0.25,42,166.74
2706,B4,432.5,0.25,50,166.74
2707,E-4,432.5,0.25,50,166.74
2708,G#3,433.0,0.25,42,166.74
2709,E-4,433.0,0.25,50,166.74
2710,B4,433.0,0.25,50,166.74
2711,G#3,433.5,0.25,42,166.74
2712,B4,433.5,0.25,50,166.74
2713,E-4,433.5,0.25,50,166.74
2714,G#3,434.0,0.25,43,166.74
2715,B4,434.0,0.25,50,166.74
2716,E-4,434.0,0.25,50,166.74
2717,G#3,434.5,0.25,42,166.74
2718,E-4,434.5,0.25,50,166.74
2719,B4,434.5,0.25,50,166.74
2720,B-3,435.0,0.25,41,166.74
2721,E-4,435.0,0.25,48,166.74
2722,B-4,435.0,0.25,48,166.74
2723,B3,435.5,0.25,39,166.74
2724,G#4,435.5,0.25,47,166.74
2725,E-4,435.5,0.25,47,166.74
2726,E-4,436.0,0.5,58,166.74
2727,G4,436.0,0.5,58,166.74
2728,E-3,436.0,0.5,47,166.74
2729,C#4,436.0,0.5,47,166.74
2730,E-5,436.5,0.25,49,166.74
2731,G4,436.5,0.25,49,166.74
2732,C#4,436.5,0.25,41,166.74
2733,E-4,436.5,0.25,41,166.74
2734,E-5,437.0,0.25,49,166.74
2735,G4,437.0,0.25,49,166.74
2736,E-4,437.0,0.25,43,166.74
2737,C#4,437.0,0.25,43,166.74
2738,G4,437.5,0.25,51,166.74
2739,E-5,437.5,0.25,51,166.74
2740,C#4,437.5,0.25,42,166.74
2741,E-4,437.5,0.25,42,166.74
2742,G4,438.0,0.25,49,166.74
2743,E-5,438.0,0.25,49,166.74
2744,C#4,438.0,0.25,42,166.74
2745,E-4,438.0,0.25,42,166.74
2746,G4,438.5,0.25,49,166.74
2747,E-5,438.5,0.25,49,166.74
2748,E-4,438.5,0.25,42,166.74
2749,C#4,438.5,0.25,42,166.74
2750,G#4,439.0,0.25,51,166.74
2751,E-5,439.0,0.25,51,166.74
2752,E-4,439.0,0.25,43,166.74
2753,B3,439.0,0.25,43,166.74
2754,E-5,439.5,0.25,51,166.74
2755,B-4,439.5,0.25,51,166.74
2756,E-4,439.5,0.25,45,166.74
2757,B-3,439.5,0.25,45,166.74
2758,G#2,440.0,0.25,48,166.74
2759,E-5,440.0,0.25,56,166.74
2760,B4,440.0,0.25,56,166.74
2761,B4,440.5,0.25,50,166.74
2762,E-5,440.5,0.25,50,166.74
2763,B3,440.5,0.25,39,166.74
2764,G#3,440.5,0.25,39,166.74
2765,B4,441.0,0.5,50,166.74
2766,E-5,441.0,0.5,50,166.74
2767,G#3,441.0,0.5,39,166.74
2768,B3,441.0,0.5,39,166.74
2769,B4,441.5,0.5,49,166.74
2770,G#4,441.5,0.5,49,166.74
2771,B3,441.5,0.5,39,166.74
2772,E-4,441.5,0.5,39,166.74
2773,C#3,442.0,0.25,47,166.74
2774,C#5,442.5,0.25,50,166.74
2775,E5,442.5,0.25,50,166.74
2776,G#3,442.5,0.25,43,166.74
2777,C#4,442.5,0.25,43,166.74
2778,E5,443.0,0.5,50,166.74
2779,C#5,443.0,0.5,50,166.74
2780,C#4,443.0,0.5,43,166.74
2781,G#3,443.0,0.5,43,166.74
2782,C#5,443.5,0.5,49,166.74
2783,G#4,443.5,0.5,49,166.74
2784,C#4,443.5,0.5,41,166.74
2785,E4,443.5,0.5,41,166.74
2786,E-3,444.0,0.25,47,166.74
2787,E-5,444.5,0.25,47,166.74
2788,B4,444.5,0.25,47,166.74
2789,B3,444.5,0.25,41,166.74
2790,G#3,444.5,0.25,41,166.74
2791,E-5,445.0,0.5,47,166.74
2792,B4,445.0,0.5,47,166.74
2793,G#3,445.0,0.5,42,166.74
2794,B3,445.0,0.5,42,166.74
2795,G#4,445.5,0.5,49,166.74
2796,B4,445.5,0.5,49,166.74
2797,E-4,445.5,0.5,42,166.74
2798,B3,445.5,0.5,42,166.74
2799,E-3,446.0,0.25,47,166.74
2800,E-5,446.5,0.25,49,166.74
2801,B-4,446.5,0.25,49,166.74
2802,G3,446.5,0.25,39,166.74
2803,B-3,446.5,0.25,39,166.74
2804,E-5,447.0,0.5,47,166.74
2805,B-4,447.0,0.5,47,166.74
2806,B-3,447.0,0.5,39,166.74
2807,G3,447.0,0.5,39,166.74
2808,G4,447.5,0.5,47,166.74
2809,B-4,447.5,0.5,47,166.74
2810,B-3,447.5,0.5,39,166.74
2811,E-4,447.5,0.5,39,166.74
2812,G#4,448.0,0.5,49,166.74
2813,B4,448.0,0.5,49,166.74
2814,G#1,448.0,0.5,42,166.74
2815,G#2,448.0,0.5,42,166.74
2816,E-5,448.5,0.25,48,166.74
2817,B5,448.5,0.25,48,166.74
2818,B4,448.5,0.25,48,166.74
2819,G#2,448.5,0.25,41,166.74
2820,E-3,448.5,0.25,41,166.74
2821,B5,449.0,0.25,53,166.74
2822,E-5,449.0,0.25,53,166.74
2823,B4,449.0,0.25,53,166.74
2824,G#2,449.0,0.25,43,166.74
2825,E-3,449.0,0.25,43,166.74
2826,B5,449.5,0.25,55,166.74
2827,B4,449.5,0.25,55,166.74
2828,E-5,449.5,0.25,55,166.74
2829,E-3,449.5,0.25,47,166.74
2830,G#2,449.5,0.25,47,166.74
2831,B4,450.0,0.25,59,166.74
2832,E-5,450.0,0.25,59,166.74
2833,B5,450.0,0.25,59,166.74
2834,E-3,450.0,0.25,50,166.74
2835,G#2,450.0,0.25,50,166.74
2836,B5,450.5,0.25,63,166.74
2837,E-5,450.5,0.25,63,166.74
2838,B4,450.5,0.25,63,166.74
2839,E-3,450.5,0.25,52,166.74
2840,G#2,450.5,0.25,52,166.74
2841,C#5,451.0,0.25,64,166.74
2842,B-4,451.0,0.25,64,166.74
2843,B-5,451.0,0.25,64,166.74
2844,E-3,451.0,0.25,57,166.74
2845,B-2,451.0,0.25,57,166.74
2846,G#5,451.5,0.25,68,166.74
2847,G#4,451.5,0.25,68,166.74
2848,B4,451.5,0.25,68,166.74
2849,E-3,451.5,0.25,59,166.74
2850,B2,451.5,0.25,59,166.74
2851,G5,452.0,0.5,71,166.74
2852,G4,452.0,0.5,71,166.74
2853,B-4,452.0,0.5,71,166.74
2854,E-3,452.0,0.5,62,166.74
2855,C#3,452.0,0.5,62,166.74
2856,E-2,452.0,0.5,62,166.74
2857,E5,452.5,0.25,72,166.74
2858,E6,452.5,0.25,72,166.74
2859,G5,452.5,0.25,72,166.74
2860,C#4,452.5,0.25,62,166.74
2861,E-3,452.5,0.25,62,166.74
2862,G5,453.0,0.25,78,166.74
2863,E5,453.0,0.25,78,166.74
2864,E6,453.0,0.25,78,166.74
2865,E-3,453.0,0.25,66,166.74
2866,C#4,453.0,0.25,66,166.74
2867,G5,453.5,0.25,75,166.74
2868,E6,453.5,0.25,75,166.74
2869,E5,453.5,0.25,75,166.74
2870,C#4,453.5,0.25,62,166.74
2871,E-3,453.5,0.25,62,166.74
2872,E6,454.0,0.25,78,166.74
2873,E5,454.0,0.25,78,166.74
2874,G5,454.0,0.25,78,166.74
2875,C#4,454.0,0.25,66,166.74
2876,E-3,454.0,0.25,66,166.74
2877,G5,454.5,0.25,75,166.74
2878,E5,454.5,0.25,75,166.74
2879,E6,454.5,0.25,75,166.74
2880,C#4,454.5,0.25,62,166.74
2881,E-3,454.5,0.25,62,166.74
2882,G5,455.0,0.25,77,166.74
2883,E-5,455.0,0.25,77,166.74
2884,E-6,455.0,0.25,77,166.74
2885,E-3,455.0,0.25,66,166.74
2886,B3,455.0,0.25,66,166.74
2887,G5,455.5,0.25,75,166.74
2888,C#6,455.5,0.25,75,166.74
2889,C#5,455.5,0.25,75,166.74
2890,E-3,455.5,0.25,62,166.74
2891,B-3,455.5,0.25,62,166.74
2892,B5,456.0,0.5,78,166.74
2893,G#5,456.0,0.5,78,166.74
2894,B4,456.0,0.5,78,166.74
2895,G#2,456.0,0.5,67,166.74
2896,G#1,456.0,0.5,67,166.74
2897,B4,456.5,0.25,45,166.74
2898,E-5,456.5,0.25,45,166.74
2899,E-3,456.5,0.25,41,166.74
2900,G#2,456.5,0.25,41,166.74
2901,B5,457.0,0.25,49,166.74
2902,B4,457.0,0.25,49,166.74
2903,E-5,457.0,0.25,49,166.74
2904,E-3,457.0,0.25,44,166.74
2905,G#2,457.0,0.25,44,166.74
2906,B4,457.5,0.25,54,166.74
2907,B5,457.5,0.25,54,166.74
2908,E-5,457.5,0.25,54,166.74
2909,G#2,457.5,0.25,48,166.74
2910,E-3,457.5,0.25,48,166.74
2911,B4,458.0,0.25,58,166.74
2912,E-5,458.0,0.25,58,166.74
2913,B5,458.0,0.25,58,166.74
2914,G#2,458.0,0.25,51,166.74
2915,E-3,458.0,0.25,51,166.74
2916,E-5,458.5,0.25,63,166.74
2917,B5,458.5,0.25,63,166.74
2918,B4,458.5,0.25,63,166.74
2919,G#2,458.5,0.25,56,166.74
2920,E-3,458.5,0.25,56,166.74
2921,B-5,459.0,0.25,65,166.74
2922,B-4,459.0,0.25,65,166.74
2923,C#5,459.0,0.25,65,166.74
2924,E-3,459.0,0.25,58,166.74
2925,B-2,459.0,0.25,58,166.74
2926,G#5,459.5,0.25,69,166.74
2927,G#4,459.5,0.25,69,166.74
2928,B4,459.5,0.25,69,166.74
2929,B2,459.5,0.25,62,166.74
2930,E-3,459.5,0.25,62,166.74
2931,B-4,460.0,0.5,74,166.74
2932,G4,460.0,0.5,74,166.74
2933,G5,460.0,0.5,74,166.74
2934,C#3,460.0,0.5,66,166.74
2935,E-2,460.0,0.5,66,166.74
2936,E-3,460.0,0.5,66,166.74
2937,E6,460.5,0.25,74,166.74
2938,G5,460.5,0.25,74,166.74
2939,E5,460.5,0.25,74,166.74
2940,E-3,460.5,0.25,62,166.74
2941,C#4,460.5,0.25,62,166.74
2942,E6,461.0,0.25,78,166.74
2943,E5,461.0,0.25,78,166.74
2944,G5,461.0,0.25,78,166.74
2945,E-3,461.0,0.25,67,166.74
2946,C#4,461.0,0.25,67,166.74
2947,E5,461.5,0.25,74,166.74
2948,E6,461.5,0.25,74,166.74
2949,G5,461.5,0.25,74,166.74
2950,E-3,461.5,0.25,62,166.74
2951,C#4,461.5,0.25,62,166.74
2952,G5,462.0,0.25,78,166.74
2953,E5,462.0,0.25,78,166.74
2954,E6,462.0,0.25,78,166.74
2955,C#4,462.0,0.25,67,166.74
2956,E-3,462.0,0.25,67,166.74
2957,G5,462.5,0.25,75,166.74
2958,E5,462.5,0.25,75,166.74
2959,E6,462.5,0.25,75,166.74
2960,E-3,462.5,0.25,62,166.74
2961,C#4,462.5,0.25,62,166.74
2962,E-5,463.0,0.25,76,166.74
2963,G5,463.0,0.25,76,166.74
2964,E-6,463.0,0.25,76,166.74
2965,B3,463.0,0.25,67,166.74
2966,E-3,463.0,0.25,67,166.74
2967,G5,463.5,0.25,75,166.74
2968,C#5,463.5,0.25,75,166.74
2969,C#6,463.5,0.25,75,166.74
2970,E-3,463.5,0.25,62,166.74
2971,B-3,463.5,0.25,62,166.74
2972,B5,464.0,0.5,78,166.74
2973,G#5,464.0,0.5,78,166.74
2974,B4,464.0,0.5,78,166.74
2975,G#2,464.0,0.5,68,166.74
2976,G#3,464.0,0.5,68,166.74
2977,B5,464.5,0.25,50,166.74
2978,G#5,464.5,0.25,50,166.74
2979,B3,464.5,0.25,43,166.74
2980,E-4,464.5,0.25,43,166.74
2981,B5,465.0,0.5,50,166.74
2982,G#5,465.0,0.5,50,166.74
2983,E-4,465.0,0.5,41,166.74
2984,B3,465.0,0.5,41,166.74
2985,B5,465.5,0.5,48,166.74
2986,E-6,465.5,0.5,48,166.74
2987,G#3,465.5,0.5,39,166.74
2988,B3,465.5,0.5,39,166.74
2989,C#3,466.0,0.25,48,166.74
2990,C#6,466.5,0.25,49,166.74
2991,G#5,466.5,0.25,49,166.74
2992,E4,466.5,0.25,42,166.74
2993,C#4,466.5,0.25,42,166.74
2994,C#6,467.0,0.5,49,166.74
2995,G#5,467.0,0.5,49,166.74
2996,C#4,467.0,0.5,42,166.74
2997,E4,467.0,0.5,42,166.74
2998,E6,467.5,0.5,47,166.74
2999,C#6,467.5,0.5,47,166.74
3000,G#3,467.5,0.5,39,166.74
3001,C#4,467.5,0.5,39,166.74
3002,E-3,468.0,0.25,48,166.74
3003,B5,468.5,0.25,49,166.74
3004,G#5,468.5,0.25,49,166.74
3005,E-4,468.5,0.25,42,166.74
3006,B3,468.5,0.25,42,166.74
3007,G#5,469.0,0.5,49,166.74
3008,B5,469.0,0.5,49,166.74
3009,E-4,469.0,0.5,42,166.74
3010,B3,469.0,0.5,42,166.74
3011,E-6,469.5,0.5,47,166.74
3012,B5,469.5,0.5,47,166.74
3013,B3,469.5,0.5,39,166.74
3014,G#3,469.5,0.5,39,166.74
3015,C#3,470.0,0.25,49,166.74
3016,B-5,470.5,0.25,51,166.74
3017,G5,470.5,0.25,51,166.74
3018,E-4,470.5,0.25,42,166.74
3019,B-3,470.5,0.25,42,166.74
3020,B-5,471.0,0.5,51,166.74
3021,G5,471.0,0.5,51,166.74
3022,B-3,471.0,0.5,42,166.74
3023,E-4,471.0,0.5,42,166.74
3024,E-6,471.5,0.5,47,166.74
3025,B-5,471.5,0.5,47,166.74
3026,B-3,471.5,0.5,39,166.74
3027,G3,471.5,0.5,39,166.74
3028,B2,472.0,0.5,45,166.74
3029,B5,472.5,0.25,56,166.74
3030,E-5,472.5,0.25,56,166.74
3031,E-4,472.5,0.25,39,166.74
3032,G#4,472.5,0.25,39,166.74
3033,E-5,473.0,0.5,51,166.74
3034,B5,473.0,0.5,51,166.74
3035,G#4,473.0,0.5,41,166.74
3036,E-4,473.0,0.5,41,166.74
3037,E-6,473.5,0.5,51,166.74
3038,G#5,473.5,0.5,51,166.74
3039,E-4,473.5,0.5,41,166.74
3040,B3,473.5,0.5,41,166.74
3041,C#3,474.0,0.5,50,166.74
3042,A5,474.5,0.25,62,166.74
3043,C#5,474.5,0.25,62,166.74
3044,E4,474.5,0.25,47,166.74
3045,A4,474.5,0.25,47,166.74
3046,A5,475.0,0.5,56,166.74
3047,C#5,475.0,0.5,56,166.74
3048,A4,475.0,0.5,45,166.74
3049,E4,475.0,0.5,45,166.74
3050,E5,475.5,0.5,56,166.74
3051,C#6,475.5,0.5,56,166.74
3052,E4,475.5,0.5,45,166.74
3053,C#4,475.5,0.5,45,166.74
3054,E-3,476.0,0.5,52,166.74
3055,G#5,476.5,0.25,57,166.74
3056,B4,476.5,0.25,57,166.74
3057,G#4,476.5,0.25,48,166.74
3058,E-4,476.5,0.25,48,166.74
3059,B4,477.0,0.5,57,166.74
3060,G#5,477.0,0.5,57,166.74
3061,G#4,477.0,0.5,48,166.74
3062,E-4,477.0,0.5,48,166.74
3063,E-5,477.5,0.5,51,166.74
3064,B5,477.5,0.5,51,166.74
3065,E-4,477.5,0.5,45,166.74
3066,B3,477.5,0.5,45,166.74
3067,E-3,478.0,0.5,51,166.74
3068,B-4,478.5,0.25,52,166.74
3069,G5,478.5,0.25,52,166.74
3070,G4,478.5,0.25,43,166.74
3071,C#4,478.5,0.25,43,166.74
3072,B-4,479.0,0.5,51,166.74
3073,G5,479.0,0.5,51,166.74
3074,G4,479.0,0.5,43,166.74
3075,C#4,479.0,0.5,43,166.74
3076,C#5,479.5,0.5,42,166.74
3077,B-5,479.5,0.5,42,166.74
3078,B-3,479.5,0.5,35,166.74
3079,C#4,479.5,0.5,35,166.74
3080,G#2,480.0,0.248,41,166.74
3081,G#5,480.0,1.0,50,166.74
3082,B4,480.0,1.0,50,166.74
3083,G#3,480.25,0.248,32,166.74
3084,E-3,480.5,0.248,36,166.74
3085,G#3,480.75,0.248,33,166.74
3086,G#2,481.0,0.248,41,166.74
3087,G#3,481.25,0.248,33,166.74
3088,E-3,481.5,0.248,36,166.74
3089,G#3,481.75,0.248,33,166.74
3090,G#2,482.0,0.248,41,166.74
3091,G#3,482.25,0.248,33,166.74
3092,E-3,482.5,0.248,37,166.74
3093,G#3,482.75,0.248,33,166.74
3094,B4,483.0,0.75,50,166.74
3095,G#2,483.0,0.248,41,166.74
3096,G#3,483.25,0.248,33,166.74
3097,E-3,483.5,0.248,37,166.74
3098,G#4,483.75,0.25,50,166.74
3099,G#3,483.75,0.248,33,166.74
3100,G4,484.0,1.0,57,166.74
3101,G#2,484.0,0.248,41,166.74
3102,B-3,484.25,0.248,33,166.74
3103,E-3,484.5,0.248,38,166.74
3104,B-3,484.75,0.248,33,166.74
3105,G#2,485.0,0.248,41,166.74
3106,C#4,485.0,0.75,44,166.74
3107,G4,485.0,0.75,44,166.74
3108,E-5,485.0,0.75,44,166.74
3109,B-3,485.25,0.248,33,166.74
3110,E-3,485.5,0.248,37,166.74
3111,B-3,485.75,0.248,34,166.74
3112,G#2,486.0,0.248,41,166.74
3113,E-5,486.0,0.75,44,166.74
3114,C#4,486.0,0.75,44,166.74
3115,G4,486.0,0.75,44,166.74
3116,B-3,486.25,0.248,34,166.74
3117,E-3,486.5,0.248,38,166.74
3118,B-3,486.75,0.248,33,166.74
3119,G#2,487.0,0.248,41,166.74
3120,G4,487.0,0.75,47,166.74
3121,E-5,487.0,0.75,47,166.74
3122,C#4,487.0,0.75,47,166.74
3123,B-3,487.25,0.248,33,166.74
3124,E-3,487.5,0.248,36,166.74
3125,B3,487.75,0.167,50,166.74
3126,B-3,487.75,0.248,33,166.74
3127,G#4,487.875,0.167,50,166.74
3128,E-5,488.0,3.0,57,166.74
3129,G#2,488.0,0.248,41,166.74
3130,G#3,488.25,0.248,32,166.74
3131,E-3,488.5,0.248,37,166.74
3132,G#3,488.75,0.248,32,166.74
3133,G#2,489.0,0.248,41,166.74
3134,G#3,489.25,0.248,33,166.74
3135,E-3,489.5,0.248,38,166.74
3136,G#3,489.75,0.248,34,166.74
3137,G#2,490.0,0.248,41,166.74
3138,G#3,490.25,0.248,34,166.74
3139,E-3,490.5,0.248,38,166.74
3140,G#3,490.75,0.248,33,166.74
3141,B5,491.0,0.75,58,166.74
3142,G#2,491.0,0.248,41,166.74
3143,G#3,491.25,0.248,33,166.74
3144,E-3,491.5,0.248,36,166.74
3145,G#5,491.75,0.25,58,166.74
3146,G#3,491.75,0.248,34,166.74
3147,G5,492.0,1.0,67,166.74
3148,G#2,492.0,0.248,41,166.74
3149,B-3,492.25,0.248,33,166.74
3150,E-3,492.5,0.248,36,166.74
3151,B-3,492.75,0.248,33,166.74
3152,G#2,493.0,0.248,41,166.74
3153,G5,493.0,0.75,54,166.74
3154,E-6,493.0,0.75,54,166.74
3155,C#5,493.0,0.75,54,166.74
3156,B-3,493.25,0.248,33,166.74
3157,E-3,493.5,0.248,36,166.74
3158,B-3,493.75,0.248,33,166.74
3159,G#2,494.0,0.248,41,166.74
3160,C#5,494.0,0.75,54,166.74
3161,E-6,494.0,0.75,54,166.74
3162,G5,494.0,0.75,54,166.74
3163,B-3,494.25,0.248,33,166.74
3164,E-3,494.5,0.248,36,166.74
3165,B-3,494.75,0.248,33,166.74
3166,G#2,495.0,0.248,41,166.74
3167,E-6,495.0,0.75,54,166.74
3168,G5,495.0,0.75,54,166.74
3169,C#5,495.0,0.75,54,166.74
3170,B-3,495.25,0.248,34,166.74
3171,E-3,495.5,0.248,39,166.74
3172,B4,495.75,0.167,47,166.74
3173,B-3,495.75,0.248,34,166.74
3174,G#5,495.875,0.167,52,166.74
3175,E-6,496.0,1.75,73,166.74
3176,G#2,496.0,0.248,41,166.74
3177,G#3,496.25,0.248,33,166.74
3178,E-3,496.5,0.248,36,166.74
3179,G#3,496.75,0.248,33,166.74
3180,G#2,497.0,0.248,42,166.74
3181,G#3,497.25,0.248,33,166.74
3182,E-3,497.5,0.248,35,166.74
3183,C#5,497.75,0.167,43,166.74
3184,G#3,497.75,0.248,33,166.74
3185,G5,497.875,0.167,51,166.74
3186,E-6,498.0,1.75,72,166.74
3187,G#2,498.0,0.248,41,166.74
3188,B-3,498.25,0.248,34,166.74
3189,E-3,498.5,0.248,37,166.74
3190,B-3,498.75,0.248,34,166.74
3191,G#2,499.0,0.248,41,166.74
3192,B-3,499.25,0.248,33,166.74
3193,E-3,499.5,0.248,38,166.74
3194,B4,499.75,0.167,40,166.74
3195,B-3,499.75,0.248,33,166.74
3196,G#5,499.875,0.167,50,166.74
3197,E-6,500.0,1.75,72,166.74
3198,G#2,500.0,0.248,41,166.74
3199,G#3,500.25,0.248,33,166.74
3200,E-3,500.5,0.248,36,166.74
3201,G#3,500.75,0.248,33,166.74
3202,G#2,501.0,0.248,41,166.74
3203,G#3,501.25,0.248,34,166.74
3204,E-3,501.5,0.248,36,166.74
3205,C#5,501.75,0.167,45,166.74
3206,G#3,501.75,0.248,33,166.74
3207,G5,501.875,0.167,52,166.74
3208,E-6,502.0,2.0,71,166.74
3209,G#2,502.0,0.248,41,166.74
3210,B-3,502.25,0.248,34,166.74
3211,E-3,502.5,0.248,37,166.74
3212,B-3,502.75,0.248,34,166.74
3213,G#2,503.0,0.248,41,166.74
3214,B-3,503.25,0.248,34,166.74
3215,E-3,503.5,0.248,37,166.74
3216,B-3,503.75,0.248,34,166.74
3217,B3,504.0,0.248,49,166.74
3218,G#2,504.0,0.248,42,166.74
3219,G#4,504.25,0.248,50,166.74
3220,G#3,504.25,0.248,41,166.74
3221,E-4,504.5,0.248,51,166.74
3222,E-3,504.5,0.248,42,166.74
3223,G#4,504.75,0.248,47,166.74
3224,G#3,504.75,0.248,39,166.74
3225,B3,505.0,0.248,52,166.74
3226,G#2,505.0,0.248,43,166.74
3227,G#4,505.25,0.248,53,166.74
3228,G#3,505.25,0.248,44,166.74
3229,E-4,505.5,0.248,54,166.74
3230,E-3,505.5,0.248,45,166.74
3231,G#4,505.75,0.248,52,166.74
3232,G#3,505.75,0.248,42,166.74
3233,B3,506.0,0.248,57,166.74
3234,G#2,506.0,0.248,47,166.74
3235,G#4,506.25,0.248,57,166.74
3236,G#3,506.25,0.248,48,166.74
3237,E-4,506.5,0.248,58,166.74
3238,E-3,506.5,0.248,48,166.74
3239,G#4,506.75,0.248,54,166.74
3240,G#3,506.75,0.248,44,166.74
3241,B3,507.0,0.248,61,166.74
3242,G#2,507.0,0.248,51,166.74
3243,G#4,507.25,0.248,62,166.74
3244,G#3,507.25,0.248,51,166.74
3245,E-4,507.5,0.248,62,166.74
3246,E-3,507.5,0.248,52,166.74
3247,G#4,507.75,0.248,57,166.74
3248,G#3,507.75,0.248,47,166.74
3249,C4,508.0,0.248,66,166.74
3250,G#2,508.0,0.248,53,166.74
3251,F#4,508.25,0.248,67,166.74
3252,F#3,508.25,0.248,56,166.74
3253,E-4,508.5,0.248,68,166.74
3254,E-3,508.5,0.248,56,166.74
3255,F#4,508.75,0.248,63,166.74
3256,F#3,508.75,0.248,52,166.74
3257,C4,509.0,0.248,69,166.74
3258,G#2,509.0,0.248,57,166.74
3259,F#4,509.25,0.248,70,166.74
3260,F#3,509.25,0.248,58,166.74
3261,E-4,509.5,0.248,71,166.74
3262,E-3,509.5,0.248,60,166.74
3263,F#4,509.75,0.248,68,166.74
3264,F#3,509.75,0.248,57,166.74
3265,C4,510.0,0.248,73,166.74
3266,G#2,510.0,0.248,62,166.74
3267,F#4,510.25,0.248,74,166.74
3268,F#3,510.25,0.248,62,166.74
3269,E-4,510.5,0.248,75,166.74
3270,E-3,510.5,0.248,63,166.74
3271,F#4,510.75,0.248,70,166.74
3272,F#3,510.75,0.248,59,166.74
3273,C4,511.0,0.248,78,166.74
3274,G#2,511.0,0.248,65,166.74
3275,F#4,511.25,0.248,79,166.74
3276,F#3,511.25,0.248,67,166.74
3277,E-4,511.5,0.248,79,166.74
3278,E-3,511.5,0.248,67,166.74
3279,F#4,511.75,0.248,73,166.74
3280,F#3,511.75,0.248,60,166.74
3281,C#4,512.0,0.25,80,166.74
3282,F4,512.0,0.25,80,166.74
3283,C#2,512.0,0.25,54,166.74
3284,F3,512.0,0.25,54,166.74
3285,G#3,512.0,0.25,54,166.74
3286,C#3,512.25,0.292,51,166.74
3287,F3,512.5,0.292,51,166.74
3288,G#2,512.5,0.25,34,166.74
3289,G#3,512.75,0.292,52,166.74
3290,C#4,513.0,0.292,54,166.74
3291,C#2,513.0,0.25,36,166.74
3292,F3,513.25,0.292,49,166.74
3293,G#3,513.5,0.292,50,166.74
3294,G#2,513.5,0.25,34,166.74
3295,C#4,513.75,0.292,51,166.74
3296,F4,514.0,0.292,51,166.74
3297,C#2,514.0,0.25,36,166.74
3298,G#3,514.25,0.292,48,166.74
3299,C#4,514.5,0.292,50,166.74
3300,G#2,514.5,0.25,34,166.74
3301,F4,514.75,0.292,51,166.74
3302,G#4,515.0,0.292,52,166.74
3303,C#2,515.0,0.25,35,166.74
3304,C#4,515.25,0.292,49,166.74
3305,F4,515.5,0.292,50,166.74
3306,G#2,515.5,0.25,33,166.74
3307,G#4,515.75,0.292,51,166.74
3308,C#5,516.0,0.292,51,166.74
3309,C#2,516.0,0.25,42,166.74
3310,F4,516.25,0.292,49,166.74
3311,G#4,516.5,0.292,51,166.74
3312,G#2,516.5,0.25,39,166.74
3313,C#5,516.75,0.292,51,166.74
3314,F5,517.0,0.292,54,166.74
3315,C#2,517.0,0.25,43,166.74
3316,G#4,517.25,0.292,49,166.74
3317,C#5,517.5,0.292,51,166.74
3318,G#2,517.5,0.25,39,166.74
3319,F5,517.75,0.292,51,166.74
3320,G#5,518.0,0.292,53,166.74
3321,C#2,518.0,0.25,43,166.74
3322,C#5,518.25,0.292,50,166.74
3323,F5,518.5,0.292,51,166.74
3324,G#2,518.5,0.25,39,166.74
3325,G#5,518.75,0.25,52,166.74
3326,C#5,519.0,0.25,86,166.74
3327,F5,519.0,0.25,86,166.74
3328,G#5,519.0,0.25,86,166.74
3329,C#6,519.0,0.25,86,166.74
3330,C#3,519.0,0.25,70,166.74
3331,C#2,519.0,0.25,70,166.74
3332,G#2,519.5,0.25,64,166.74
3333,G#5,519.5,0.25,72,166.74
3334,C#5,519.5,0.25,72,166.74
3335,C#6,519.5,0.25,72,166.74
3336,F5,519.5,0.25,72,166.74
3337,B1,520.0,0.25,68,166.74
3338,C#3,520.25,0.292,51,166.74
3339,F3,520.5,0.292,52,166.74
3340,G#2,520.5,0.25,43,166.74
3341,G#3,520.75,0.292,54,166.74
3342,C#4,521.0,0.292,56,166.74
3343,B1,521.0,0.25,47,166.74
3344,F3,521.25,0.292,51,166.74
3345,G#3,521.5,0.292,53,166.74
3346,G#2,521.5,0.25,44,166.74
3347,C#4,521.75,0.292,54,166.74
3348,F4,522.0,0.292,56,166.74
3349,B1,522.0,0.25,48,166.74
3350,G#3,522.25,0.292,51,166.74
3351,C#4,522.5,0.292,53,166.74
3352,G#2,522.5,0.25,43,166.74
3353,F4,522.75,0.292,56,166.74
3354,G#4,523.0,0.292,57,166.74
3355,B1,523.0,0.25,48,166.74
3356,C#4,523.25,0.292,51,166.74
3357,F4,523.5,0.292,53,166.74
3358,G#2,523.5,0.25,44,166.74
3359,G#4,523.75,0.292,56,166.74
3360,C#5,524.0,0.292,57,166.74
3361,B1,524.0,0.25,48,166.74
3362,F4,524.25,0.292,53,166.74
3363,G#4,524.5,0.292,56,166.74
3364,G#2,524.5,0.25,44,166.74
3365,C#5,524.75,0.292,57,166.74
3366,F5,525.0,0.292,57,166.74
3367,B1,525.0,0.25,48,166.74
3368,G#4,525.25,0.292,52,166.74
3369,C#5,525.5,0.292,54,166.74
3370,G#2,525.5,0.25,44,166.74
3371,F5,525.75,0.292,56,166.74
3372,G#5,526.0,0.292,58,166.74
3373,B1,526.0,0.25,48,166.74
3374,C#5,526.25,0.292,52,166.74
3375,F5,526.5,0.292,56,166.74
3376,G#2,526.5,0.25,44,166.74
3377,G#5,526.75,0.25,59,166.74
3378,C#5,527.0,0.25,86,166.74
3379,F5,527.0,0.25,86,166.74
3380,C#6,527.0,0.25,86,166.74
3381,G#5,527.0,0.25,86,166.74
3382,B1,527.0,0.25,70,166.74
3383,B2,527.0,0.25,70,166.74
3384,G#2,527.5,0.25,64,166.74
3385,F5,527.5,0.25,74,166.74
3386,G#5,527.5,0.25,74,166.74
3387,C#5,527.5,0.25,74,166.74
3388,C#6,527.5,0.25,74,166.74
3389,A1,528.0,0.25,68,166.74
3390,C#3,528.25,0.292,62,166.74
3391,F#3,528.5,0.292,62,166.74
3392,A2,528.5,0.25,51,166.74
3393,A3,528.75,0.292,65,166.74
3394,C#4,529.0,0.125,67,166.74
3395,A1,529.0,0.25,55,166.74
3396,C#4,529.25,0.292,62,166.74
3397,F#4,529.5,0.292,65,166.74
3398,A2,529.5,0.25,51,166.74
3399,A4,529.75,0.292,67,166.74
3400,C#5,530.0,0.125,68,166.74
3401,A1,530.0,0.25,55,166.74
3402,C#5,530.25,0.292,62,166.74
3403,F#5,530.5,0.292,65,166.74
3404,A2,530.5,0.25,51,166.74
3405,A5,530.75,0.25,68,166.74
3406,A1,531.0,0.25,83,166.74
3407,F#5,531.0,0.25,93,166.74
3408,C#5,531.0,0.25,93,166.74
3409,A5,531.0,0.25,93,166.74
3410,C#6,531.0,0.25,93,166.74
3411,A2,531.5,0.25,71,166.74
3412,F#5,531.5,0.25,79,166.74
3413,C#6,531.5,0.25,79,166.74
3414,A5,531.5,0.25,79,166.74
3415,C#5,531.5,0.25,79,166.74
3416,F1,532.0,0.25,56,166.74
3417,C#3,532.25,0.292,62,166.74
3418,G#3,532.5,0.292,62,166.74
3419,F2,532.5,0.25,52,166.74
3420,B3,532.75,0.292,66,166.74
3421,C#4,533.0,0.125,68,166.74
3422,F1,533.0,0.25,53,166.74
3423,C#4,533.25,0.292,62,166.74
3424,G#4,533.5,0.292,63,166.74
3425,F2,533.5,0.25,51,166.74
3426,B4,533.75,0.292,67,166.74
3427,C#5,534.0,0.125,68,166.74
3428,F1,534.0,0.25,53,166.74
3429,C#5,534.25,0.292,62,166.74
3430,G#5,534.5,0.292,63,166.74
3431,F2,534.5,0.25,50,166.74
3432,B5,534.75,0.25,67,166.74
3433,F1,535.0,0.25,83,166.74
3434,C#5,535.0,0.25,96,166.74
3435,G#5,535.0,0.25,96,166.74
3436,C#6,535.0,0.25,96,166.74
3437,B5,535.0,0.25,96,166.74
3438,F2,535.5,0.25,77,166.74
3439,C#6,535.5,0.25,84,166.74
3440,B5,535.5,0.25,84,166.74
3441,G#5,535.5,0.25,84,166.74
3442,C#5,535.5,0.25,84,166.74
3443,C#5,536.0,0.5,88,166.74
3444,C#6,536.0,0.5,88,166.74
3445,A5,536.0,0.5,88,166.74
3446,F#5,536.0,0.5,88,166.74
3447,F#1,536.0,0.25,78,166.74
3448,F#2,536.0,0.25,78,166.74
3449,C#4,536.25,0.292,29,166.74
3450,A3,536.5,0.292,34,166.74
3451,C#4,536.75,0.292,29,166.74
3452,C#5,537.0,2.042,68,166.74
3453,F#3,537.0,0.248,41,166.74
3454,C#4,537.25,0.248,28,166.74
3455,A3,537.5,0.248,31,166.74
3456,C#4,537.75,0.248,28,166.74
3457,F#3,538.0,0.248,38,166.74
3458,C#4,538.25,0.248,28,166.74
3459,A3,538.5,0.248,32,166.74
3460,C#4,538.75,0.248,29,166.74
3461,A4,539.0,0.792,51,166.74
3462,F#3,539.0,0.248,38,166.74
3463,C#4,539.25,0.248,29,166.74
3464,A3,539.5,0.248,32,166.74
3465,F#4,539.75,0.125,51,166.74
3466,C#4,539.75,0.248,28,166.74
3467,F4,539.875,1.0,41,166.74
3468,F#4,539.875,1.0,41,166.74
3469,G#4,539.958,0.042,41,166.74
3470,F#4,540.0,1.042,62,166.74
3471,G#3,540.0,0.292,37,166.74
3472,C#4,540.25,0.292,28,166.74
3473,B3,540.5,0.292,31,166.74
3474,C#4,540.75,0.292,26,166.74
3475,F4,541.0,1.5,51,166.74
3476,G#3,541.0,0.248,43,166.74
3477,C#4,541.25,0.248,39,166.74
3478,B3,541.5,0.248,47,166.74
3479,C#4,541.75,0.248,43,166.74
3480,G#3,542.0,0.248,55,166.74
3481,C#4,542.25,0.248,44,166.74
3482,F4,542.5,0.542,51,166.74
3483,B3,542.5,0.248,51,166.74
3484,C#4,542.75,0.248,47,166.74
3485,C#5,543.0,0.75,56,166.74
3486,G#3,543.0,0.248,62,166.74
3487,C#4,543.25,0.248,49,166.74
3488,B3,543.5,0.248,51,166.74
3489,F4,543.75,0.25,51,166.74
3490,C#4,543.75,0.248,43,166.74
3491,G#4,544.0,1.042,51,166.74
3492,A3,544.0,0.248,37,166.74
3493,C#4,544.25,0.248,30,166.74
3494,A3,544.5,0.248,34,166.74
3495,C#4,544.75,0.248,29,166.74
3496,F#4,545.0,1.5,51,166.74
3497,A3,545.0,0.248,43,166.74
3498,C#4,545.25,0.248,37,166.74
3499,A3,545.5,0.248,47,166.74
3500,C#4,545.75,0.248,43,166.74
3501,A3,546.0,0.248,55,166.74
3502,C#4,546.25,0.248,44,166.74
3503,F#4,546.5,0.542,52,166.74
3504,A3,546.5,0.248,52,166.74
3505,C#4,546.75,0.248,47,166.74
3506,C#5,547.0,0.792,56,166.74
3507,A3,547.0,0.248,64,166.74
3508,C#4,547.25,0.248,48,166.74
3509,A3,547.5,0.248,49,166.74
3510,F#4,547.75,0.25,51,166.74
3511,C#4,547.75,0.248,40,166.74
3512,A4,548.0,1.042,49,166.74
3513,F3,548.0,0.248,39,166.74
3514,C#4,548.25,0.248,29,166.74
3515,F3,548.5,0.248,32,166.74
3516,C#4,548.75,0.248,29,166.74
3517,G#4,549.0,1.5,52,166.74
3518,F3,549.0,0.248,39,166.74
3519,C#4,549.25,0.248,34,166.74
3520,F3,549.5,0.248,46,166.74
3521,C#4,549.75,0.248,42,166.74
3522,F3,550.0,0.248,55,166.74
3523,C#4,550.25,0.248,44,166.74
3524,G#4,550.5,0.542,52,166.74
3525,F3,550.5,0.248,54,166.74
3526,C#4,550.75,0.248,51,166.74
3527,C#5,551.0,0.75,58,166.74
3528,F3,551.0,0.248,62,166.74
3529,C#4,551.25,0.248,46,166.74
3530,F3,551.5,0.248,48,166.74
3531,G#4,551.75,0.25,51,166.74
3532,C#4,551.75,0.248,39,166.74
3533,A4,552.0,0.292,39,166.74
3534,F#3,552.0,0.5,41,166.74
3535,C#5,552.25,0.292,31,166.74
3536,A4,552.5,0.292,34,166.74
3537,C#5,552.75,0.292,30,166.74
3538,F#4,553.0,0.292,39,166.74
3539,C#4,553.0,2.0,56,166.74
3540,C#5,553.25,0.292,31,166.74
3541,A4,553.5,0.292,34,166.74
3542,C#5,553.75,0.292,31,166.74
3543,F#4,554.0,0.292,39,166.74
3544,C#5,554.25,0.292,32,166.74
3545,A4,554.5,0.292,34,166.74
3546,C#5,554.75,0.292,30,166.74
3547,F#4,555.0,0.292,39,166.74
3548,A3,555.0,0.75,48,166.74
3549,C#5,555.25,0.292,32,166.74
3550,A4,555.5,0.292,34,166.74
3551,C#5,555.75,0.292,31,166.74
3552,F#3,555.75,0.24,48,166.74
3553,G#4,556.0,0.292,39,166.74
3554,F#3,556.0,1.0,54,166.74
3555,C#5,556.25,0.292,32,166.74
3556,B4,556.5,0.292,34,166.74
3557,C#5,556.75,0.292,32,166.74
3558,G#4,557.0,0.292,47,166.74
3559,F3,557.0,1.5,47,166.74
3560,C#5,557.25,0.292,41,166.74
3561,B4,557.5,0.292,47,166.74
3562,C#5,557.75,0.292,44,166.74
3563,G#4,558.0,0.292,58,166.74
3564,C#5,558.25,0.292,47,166.74
3565,B4,558.5,0.292,54,166.74
3566,F3,558.5,0.5,47,166.74
3567,C#5,558.75,0.292,50,166.74
3568,G#4,559.0,0.292,64,166.74
3569,C#4,559.0,0.75,56,166.74
3570,C#5,559.25,0.292,49,166.74
3571,B4,559.5,0.292,51,166.74
3572,C#5,559.75,0.292,44,166.74
3573,F3,559.75,0.24,47,166.74
3574,F#4,560.0,0.292,39,166.74
3575,G#3,560.0,1.0,43,166.74
3576,C#5,560.25,0.292,31,166.74
3577,A4,560.5,0.292,34,166.74
3578,C#5,560.75,0.292,39,166.74
3579,F#4,561.0,0.292,48,166.74
3580,F#3,561.0,1.5,47,166.74
3581,C#5,561.25,0.292,42,166.74
3582,A4,561.5,0.292,48,166.74
3583,C#5,561.75,0.292,45,166.74
3584,F#4,562.0,0.292,58,166.74
3585,C#5,562.25,0.292,48,166.74
3586,A4,562.5,0.292,54,166.74
3587,F#3,562.5,0.5,48,166.74
3588,C#5,562.75,0.292,50,166.74
3589,F#4,563.0,0.292,64,166.74
3590,C#4,563.0,0.75,53,166.74
3591,C#5,563.25,0.292,51,166.74
3592,A4,563.5,0.292,51,166.74
3593,C#5,563.75,0.292,45,166.74
3594,F#3,563.75,0.24,47,166.74
3595,F#4,564.0,0.292,39,166.74
3596,F#3,564.0,0.25,54,166.74
3597,D5,564.25,0.292,31,166.74
3598,A4,564.5,0.292,34,166.74
3599,F#3,564.5,0.5,49,166.74
3600,D5,564.75,0.292,32,166.74
3601,F#4,565.0,0.292,45,166.74
3602,D4,565.0,0.75,53,166.74
3603,D5,565.25,0.292,31,166.74
3604,A4,565.5,0.292,34,166.74
3605,D5,565.75,0.292,34,166.74
3606,F#3,565.75,0.25,58,166.74
3607,A4,566.0,0.292,48,166.74
3608,F#3,566.0,0.25,58,166.74
3609,D5,566.25,0.292,34,166.74
3610,C5,566.5,0.292,38,166.74
3611,F#3,566.5,0.5,61,166.74
3612,D5,566.75,0.292,34,166.74
3613,A4,567.0,0.292,53,166.74
3614,D4,567.0,0.75,62,166.74
3615,D5,567.25,0.292,34,166.74
3616,C5,567.5,0.292,39,166.74
3617,D5,567.75,0.292,34,166.74
3618,F#3,567.75,0.25,62,166.74
3619,G4,568.0,0.292,53,166.74
3620,G3,568.0,0.5,66,166.74
3621,D5,568.25,0.292,32,166.74
3622,B4,568.5,0.292,34,166.74
3623,D5,568.75,0.292,32,166.74
3624,G4,569.0,0.292,39,166.74
3625,D3,569.0,2.0,48,166.74
3626,D5,569.25,0.292,33,166.74
3627,B4,569.5,0.292,35,166.74
3628,D5,569.75,0.292,31,166.74
3629,G4,570.0,0.292,39,166.74
3630,D5,570.25,0.292,32,166.74
3631,B4,570.5,0.292,34,166.74
3632,D5,570.75,0.292,31,166.74
3633,G4,571.0,0.292,39,166.74
3634,B2,571.0,0.75,48,166.74
3635,D5,571.25,0.292,32,166.74
3636,B4,571.5,0.292,34,166.74
3637,D5,571.75,0.292,32,166.74
3638,G2,571.75,0.25,48,166.74
3639,A4,572.0,0.292,39,166.74
3640,G2,572.0,1.0,57,166.74
3641,D5,572.25,0.292,32,166.74
3642,C5,572.5,0.292,35,166.74
3643,D5,572.75,0.292,32,166.74
3644,A4,573.0,0.292,50,166.74
3645,F#2,573.0,1.5,48,166.74
3646,D5,573.25,0.292,41,166.74
3647,C5,573.5,0.292,47,166.74
3648,D5,573.75,0.292,44,166.74
3649,A4,574.0,0.292,58,166.74
3650,D5,574.25,0.292,46,166.74
3651,C5,574.5,0.292,54,166.74
3652,F#2,574.5,0.5,48,166.74
3653,D5,574.75,0.292,49,166.74
3654,A4,575.0,0.292,63,166.74
3655,D3,575.0,0.75,60,166.74
3656,D5,575.25,0.292,49,166.74
3657,C5,575.5,0.292,51,166.74
3658,D5,575.75,0.292,44,166.74
3659,F#2,575.75,0.25,47,166.74
3660,G4,576.0,0.292,39,166.74
3661,A2,576.0,1.0,66,166.74
3662,D5,576.25,0.292,32,166.74
3663,B4,576.5,0.292,34,166.74
3664,D5,576.75,0.292,31,166.74
3665,G4,577.0,0.292,50,166.74
3666,G2,577.0,1.5,57,166.74
3667,D5,577.25,0.292,42,166.74
3668,B4,577.5,0.292,48,166.74
3669,D5,577.75,0.292,46,166.74
3670,G4,578.0,0.292,61,166.74
3671,D5,578.25,0.292,49,166.74
3672,B4,578.5,0.292,55,166.74
3673,G2,578.5,0.5,59,166.74
3674,D5,578.75,0.292,52,166.74
3675,G4,579.0,0.292,69,166.74
3676,D3,579.0,0.75,66,166.74
3677,D5,579.25,0.292,54,166.74
3678,B4,579.5,0.292,55,166.74
3679,D5,579.75,0.292,45,166.74
3680,F#2,579.75,0.24,57,166.74
3681,G#4,580.0,0.292,43,166.74
3682,F#2,580.0,1.0,73,166.74
3683,D5,580.25,0.292,34,166.74
3684,B4,580.5,0.292,38,166.74
3685,D5,580.75,0.292,34,166.74
3686,G#4,581.0,0.292,56,166.74
3687,F2,581.0,1.5,62,166.74
3688,C#5,581.25,0.292,45,166.74
3689,B4,581.5,0.292,54,166.74
3690,C#5,581.75,0.292,48,166.74
3691,G#4,582.0,0.292,67,166.74
3692,C#5,582.25,0.292,52,166.74
3693,B4,582.5,0.292,65,166.74
3694,F2,582.5,0.5,62,166.74
3695,C#5,582.75,0.292,55,166.74
3696,G#4,583.0,0.292,78,166.74
3697,C#3,583.0,0.75,71,166.74
3698,C#5,583.25,0.292,59,166.74
3699,B4,583.5,0.292,61,166.74
3700,C#5,583.75,0.292,49,166.74
3701,F2,583.75,0.25,62,166.74
3702,F#4,584.0,0.292,57,166.74
3703,F#2,584.0,0.25,75,166.74
3704,C#5,584.25,0.292,44,166.74
3705,A4,584.5,0.292,47,166.74
3706,F#2,584.5,0.5,67,166.74
3707,C#5,584.75,0.292,43,166.74
3708,F#4,585.0,0.292,56,166.74
3709,A2,585.0,0.5,67,166.74
3710,C#5,585.25,0.292,44,166.74
3711,A4,585.5,0.292,47,166.74
3712,F#2,585.5,0.5,61,166.74
3713,C#5,585.75,0.292,44,166.74
3714,F#4,586.0,0.292,56,166.74
3715,D2,586.0,0.25,75,166.74
3716,F#5,586.25,0.292,43,166.74
3717,A4,586.5,0.292,46,166.74
3718,D2,586.5,0.5,68,166.74
3719,F#5,586.75,0.292,42,166.74
3720,F#4,587.0,0.292,54,166.74
3721,F#2,587.0,0.5,67,166.74
3722,F#5,587.25,0.292,45,166.74
3723,A4,587.5,0.292,47,166.74
3724,D2,587.5,0.5,62,166.74
3725,F#5,587.75,0.292,43,166.74
3726,F#4,588.0,0.292,62,166.74
3727,C2,588.0,2.25,76,166.74
3728,F#5,588.25,0.292,41,166.74
3729,E-5,588.5,0.292,47,166.74
3730,G#4,588.5,0.292,47,166.74
3731,F#5,588.75,0.292,42,166.74
3732,F#4,589.0,0.292,59,166.74
3733,F#5,589.25,0.292,43,166.74
3734,E-5,589.5,0.292,47,166.74
3735,G#4,589.5,0.292,47,166.74
3736,F#5,589.75,0.292,44,166.74
3737,F#4,590.0,0.292,58,166.74
3738,F#5,590.25,0.292,45,166.74
3739,C2,590.5,0.5,68,166.74
3740,G#4,590.5,0.292,47,166.74
3741,E-5,590.5,0.292,47,166.74
3742,F#5,590.75,0.292,42,166.74
3743,F#4,591.0,0.292,58,166.74
3744,E-2,591.0,0.5,68,166.74
3745,F#5,591.25,0.292,43,166.74
3746,C2,591.5,0.5,65,166.74
3747,E-5,591.5,0.292,47,166.74
3748,G#4,591.5,0.292,47,166.74
3749,F#5,591.75,0.292,42,166.74
3750,E4,592.0,0.292,65,166.74
3751,C#2,592.0,0.25,73,166.74
3752,E5,592.25,0.292,52,166.74
3753,C#5,592.5,0.292,56,166.74
3754,C#2,592.5,0.5,68,166.74
3755,E5,592.75,0.292,52,166.74
3756,E4,593.0,0.292,65,166.74
3757,E2,593.0,0.5,68,166.74
3758,E5,593.25,0.292,52,166.74
3759,C#5,593.5,0.292,56,166.74
3760,C#2,593.5,0.5,65,166.74
3761,E5,593.75,0.292,51,166.74
3762,E4,594.0,0.292,65,166.74
3763,A1,594.0,0.25,76,166.74
3764,E5,594.25,0.292,53,166.74
3765,C#5,594.5,0.292,57,166.74
3766,A1,594.5,0.5,68,166.74
3767,E5,594.75,0.292,51,166.74
3768,E4,595.0,0.292,65,166.74
3769,C#2,595.0,0.5,68,166.74
3770,E5,595.25,0.292,53,166.74
3771,C#5,595.5,0.292,57,166.74
3772,A1,595.5,0.5,67,166.74
3773,E5,595.75,0.292,52,166.74
3774,E-4,596.0,0.292,65,166.74
3775,F#1,596.0,0.25,75,166.74
3776,E-5,596.25,0.292,53,166.74
3777,C#5,596.5,0.292,58,166.74
3778,F#1,596.5,0.5,68,166.74
3779,E-5,596.75,0.292,52,166.74
3780,E-4,597.0,0.292,65,166.74
3781,A1,597.0,0.5,68,166.74
3782,E-5,597.25,0.292,51,166.74
3783,C#5,597.5,0.292,57,166.74
3784,F#1,597.5,0.5,67,166.74
3785,E-5,597.75,0.292,52,166.74
3786,E-4,598.0,0.292,65,166.74
3787,G1,598.0,0.25,77,166.74
3788,E-5,598.25,0.292,51,166.74
3789,C#5,598.5,0.292,56,166.74
3790,G1,598.5,0.5,67,166.74
3791,E-5,598.75,0.292,51,166.74
3792,E-4,599.0,0.292,65,166.74
3793,B-1,599.0,0.5,67,166.74
3794,E-5,599.25,0.292,51,166.74
3795,C#5,599.5,0.292,56,166.74
3796,G1,599.5,0.5,67,166.74
3797,E-5,599.75,0.25,51,166.74
3798,G#1,600.0,0.292,39,166.74
3799,E-4,600.0,0.5,75,166.74
3800,C5,600.0,0.5,75,166.74
3801,E-5,600.0,0.5,75,166.74
3802,G#2,600.25,0.292,33,166.74
3803,G#1,600.5,0.292,39,166.74
3804,G#2,600.75,0.292,31,166.74
3805,G#4,601.0,2.0,54,166.74
3806,G#1,601.0,0.248,39,166.74
3807,G#2,601.25,0.248,32,166.74
3808,G#1,601.5,0.248,39,166.74
3809,G#2,601.75,0.248,32,166.74
3810,G#1,602.0,0.248,39,166.74
3811,G#2,602.25,0.248,34,166.74
3812,G#1,602.5,0.248,39,166.74
3813,G#2,602.75,0.248,34,166.74
3814,A4,603.0,0.5,51,166.74
3815,G#1,603.0,0.248,39,166.74
3816,G#2,603.25,0.248,32,166.74
3817,G#4,603.5,0.5,51,166.74
3818,G#1,603.5,0.248,39,166.74
3819,G#2,603.75,0.248,34,166.74
3820,F#4,604.0,1.0,59,166.74
3821,G#1,604.0,0.248,39,166.74
3822,A3,604.0,2.0,50,166.74
3823,C#4,604.0,2.0,50,166.74
3824,G#2,604.25,0.248,33,166.74
3825,G#1,604.5,0.248,39,166.74
3826,G#2,604.75,0.248,32,166.74
3827,G#4,605.0,0.5,49,166.74
3828,G#1,605.0,0.248,39,166.74
3829,G#2,605.25,0.248,33,166.74
3830,F#4,605.5,0.5,49,166.74
3831,G#1,605.5,0.248,39,166.74
3832,G#2,605.75,0.248,33,166.74
3833,E4,606.0,1.0,59,166.74
3834,G#1,606.0,0.248,39,166.74
3835,B3,606.0,2.0,50,166.74
3836,G#3,606.0,2.0,50,166.74
3837,G#2,606.25,0.248,33,166.74
3838,G#1,606.5,0.248,39,166.74
3839,G#2,606.75,0.248,34,166.74
3840,F#4,607.0,0.5,48,166.74
3841,G#1,607.0,0.248,39,166.74
3842,G#2,607.25,0.248,33,166.74
3843,E4,607.5,0.5,48,166.74
3844,G#1,607.5,0.248,39,166.74
3845,G#2,607.75,0.248,32,166.74
3846,E-4,608.0,1.0,58,166.74
3847,G#1,608.0,0.248,39,166.74
3848,F#3,608.0,2.0,49,166.74
3849,A3,608.0,2.0,49,166.74
3850,G#2,608.25,0.248,33,166.74
3851,G#1,608.5,0.248,39,166.74
3852,G#2,608.75,0.248,33,166.74
3853,E4,609.0,0.5,47,166.74
3854,G#1,609.0,0.248,39,166.74
3855,G#2,609.25,0.248,33,166.74
3856,E-4,609.5,0.5,47,166.74
3857,G#1,609.5,0.248,39,166.74
3858,G#2,609.75,0.248,33,166.74
3859,C#4,610.0,1.0,58,166.74
3860,G#1,610.0,0.248,39,166.74
3861,E3,610.0,2.0,49,166.74
3862,G#3,610.0,2.0,49,166.74
3863,G#2,610.25,0.248,33,166.74
3864,G#1,610.5,0.248,39,166.74
3865,G#2,610.75,0.248,33,166.74
3866,E-4,611.0,0.5,51,166.74
3867,G#1,611.0,0.248,39,166.74
3868,G#2,611.25,0.248,33,166.74
3869,C#4,611.5,0.5,51,166.74
3870,G#1,611.5,0.248,39,166.74
3871,G#2,611.75,0.248,34,166.74
3872,G#1,612.0,0.248,39,166.74
3873,C4,612.0,2.0,52,166.74
3874,F#3,612.0,2.0,52,166.74
3875,E-3,612.0,2.0,52,166.74
3876,G#2,612.25,0.248,34,166.74
3877,G#1,612.5,0.248,39,166.74
3878,G#2,612.75,0.248,33,166.74
3879,G#1,613.0,0.248,39,166.74
3880,G#2,613.25,0.248,34,166.74
3881,G#1,613.5,0.248,39,166.74
3882,G#2,613.75,0.248,34,166.74
3883,G#1,614.0,0.292,39,166.74
3884,C#3,614.0,1.75,51,166.74
3885,C#4,614.0,1.75,51,166.74
3886,E3,614.0,1.75,51,166.74
3887,G#2,614.25,0.292,34,166.74
3888,G#1,614.5,0.292,39,166.74
3889,G#2,614.75,0.292,32,166.74
3890,G#1,615.0,0.292,37,166.74
3891,G#2,615.25,0.292,33,166.74
3892,G#1,615.5,0.292,37,166.74
3893,C3,615.75,0.125,48,166.74
3894,G#2,615.75,0.292,31,166.74
3895,G#3,615.875,0.125,48,166.74
3896,E-4,616.0,0.75,58,166.74
3897,G#1,616.0,0.248,37,166.74
3898,G#2,616.25,0.248,33,166.74
3899,G#1,616.5,0.248,37,166.74
3900,G#2,616.75,0.248,32,166.74
3901,G#5,617.0,1.5,63,166.74
3902,G#1,617.0,0.248,37,166.74
3903,G#2,617.25,0.248,32,166.74
3904,G#1,617.5,0.248,37,166.74
3905,G#2,617.75,0.248,33,166.74
3906,G#1,618.0,0.248,39,166.74
3907,G#2,618.25,0.248,34,166.74
3908,G#5,618.5,0.25,67,166.74
3909,G#1,618.5,0.248,40,166.74
3910,G#2,618.75,0.248,34,166.74
3911,A5,619.0,0.25,68,166.74
3912,G#1,619.0,0.292,41,166.74
3913,G#2,619.25,0.292,37,166.74
3914,G#5,619.5,0.25,66,166.74
3915,G#1,619.5,0.292,41,166.74
3916,G#2,619.75,0.292,38,166.74
3917,F#5,620.0,0.25,68,166.74
3918,G#1,620.0,0.292,43,166.74
3919,G#2,620.25,0.292,38,166.74
3920,G#1,620.5,0.292,44,166.74
3921,C#5,620.5,0.25,53,166.74
3922,A4,620.5,0.25,53,166.74
3923,F#5,620.5,0.25,53,166.74
3924,G#2,620.75,0.292,39,166.74
3925,G#1,621.0,0.292,45,166.74
3926,B4,621.0,0.25,54,166.74
3927,G#5,621.0,0.25,54,166.74
3928,E-5,621.0,0.25,54,166.74
3929,G#2,621.25,0.292,40,166.74
3930,G#1,621.5,0.292,46,166.74
3931,A4,621.5,0.25,54,166.74
3932,C#5,621.5,0.25,54,166.74
3933,F#5,621.5,0.25,54,166.74
3934,G#2,621.75,0.292,41,166.74
3935,G#1,622.0,0.292,47,166.74
3936,B4,622.0,0.25,56,166.74
3937,E5,622.0,0.25,56,166.74
3938,G#4,622.0,0.25,56,166.74
3939,G#2,622.25,0.292,41,166.74
3940,G#1,622.5,0.292,48,166.74
3941,G#4,622.5,0.25,57,166.74
3942,B4,622.5,0.25,57,166.74
3943,E5,622.5,0.25,57,166.74
3944,G#2,622.75,0.292,43,166.74
3945,G#1,623.0,0.292,49,166.74
3946,A4,623.0,0.25,58,166.74
3947,C#5,623.0,0.25,58,166.74
3948,F#5,623.0,0.25,58,166.74
3949,G#2,623.25,0.292,44,166.74
3950,G#1,623.5,0.292,50,166.74
3951,E5,623.5,0.25,59,166.74
3952,G#4,623.5,0.25,59,166.74
3953,B4,623.5,0.25,59,166.74
3954,G#2,623.75,0.292,45,166.74
3955,G#1,624.0,0.292,51,166.74
3956,A4,624.0,0.25,59,166.74
3957,E-5,624.0,0.25,59,166.74
3958,F#4,624.0,0.25,59,166.74
3959,G#2,624.25,0.292,46,166.74
3960,G#1,624.5,0.292,51,166.74
3961,A4,624.5,0.25,60,166.74
3962,E-5,624.5,0.25,60,166.74
3963,F#4,624.5,0.25,60,166.74
3964,G#2,624.75,0.292,47,166.74
3965,G#1,625.0,0.292,53,166.74
3966,G#4,625.0,0.25,63,166.74
3967,B4,625.0,0.25,63,166.74
3968,E5,625.0,0.25,63,166.74
3969,G#2,625.25,0.292,50,166.74
3970,G#1,625.5,0.292,54,166.74
3971,F#4,625.5,0.25,63,166.74
3972,A4,625.5,0.25,63,166.74
3973,E-5,625.5,0.25,63,166.74
3974,G#2,625.75,0.292,51,166.74
3975,G#1,626.0,0.292,54,166.74
3976,C#5,626.0,0.25,64,166.74
3977,G#4,626.0,0.25,64,166.74
3978,E4,626.0,0.25,64,166.74
3979,G#2,626.25,0.292,51,166.74
3980,G#1,626.5,0.292,49,166.74
3981,E4,626.5,0.25,64,166.74
3982,C#5,626.5,0.25,64,166.74
3983,G#4,626.5,0.25,64,166.74
3984,G#2,626.75,0.292,47,166.74
3985,G#1,627.0,0.292,44,166.74
3986,F#4,627.0,0.25,57,166.74
3987,E-5,627.0,0.25,57,166.74
3988,A4,627.0,0.25,57,166.74
3989,G#2,627.25,0.292,35,166.74
3990,G#1,627.5,0.292,39,166.74
3991,G#4,627.5,0.25,51,166.74
3992,E4,627.5,0.25,51,166.74
3993,C#5,627.5,0.25,51,166.74
3994,G#2,627.75,0.292,34,166.74
3995,G#1,628.0,0.248,39,166.74
3996,C5,628.0,2.0,45,166.74
3997,E-4,628.0,2.0,45,166.74
3998,F#4,628.0,2.0,45,166.74
3999,G#2,628.25,0.248,33,166.74
4000,G#1,628.5,0.248,37,166.74
4001,G#2,628.75,0.248,35,166.74
4002,G#1,629.0,0.248,37,166.74
4003,G#2,629.25,0.248,32,166.74
4004,G#1,629.5,0.248,37,166.74
4005,G#2,629.75,0.248,33,166.74
4006,G#1,630.0,0.248,39,166.74
4007,E4,630.0,1.75,53,166.74
4008,C#5,630.0,1.75,53,166.74
4009,C#4,630.0,1.75,53,166.74
4010,G#2,630.25,0.248,34,166.74
4011,G#1,630.5,0.248,39,166.74
4012,G#2,630.75,0.248,35,166.74
4013,G#1,631.0,0.248,41,166.74
4014,G#2,631.25,0.248,39,166.74
4015,G#1,631.5,0.248,45,166.74
4016,C4,631.75,0.125,49,166.74
4017,G#2,631.75,0.248,41,166.74
4018,F#4,631.875,3.125,59,166.74
4019,E-5,632.0,3.0,80,166.74
4020,G#1,632.0,0.248,46,166.74
4021,G#2,632.25,0.248,42,166.74
4022,G#1,632.5,0.248,49,166.74
4023,G#2,632.75,0.248,44,166.74
4024,G#1,633.0,0.248,51,166.74
4025,G#2,633.25,0.248,45,166.74
4026,G#1,633.5,0.248,51,166.74
4027,G#2,633.75,0.248,44,166.74
4028,G#1,634.0,0.248,45,166.74
4029,G#2,634.25,0.248,41,166.74
4030,G#1,634.5,0.248,41,166.74
4031,G#2,634.75,0.248,37,166.74
4032,G#1,635.0,0.292,41,166.74
4033,C#5,635.0,1.0,55,166.74
4034,E4,635.0,1.0,55,166.74
4035,C#4,635.0,1.0,55,166.74
4036,G#2,635.25,0.292,35,166.74
4037,G#1,635.5,0.292,39,166.74
4038,G#2,635.75,0.292,33,166.74
4039,G#1,636.0,0.292,37,166.74
4040,E-4,636.0,0.5,44,166.74
4041,C5,636.0,0.5,44,166.74
4042,F#4,636.0,0.5,44,166.74
4043,G#2,636.25,0.292,34,166.74
4044,G#1,636.5,0.292,37,166.74
4045,G#2,636.75,0.292,32,166.74
4046,G#1,637.0,0.292,37,166.74
4047,F#4,637.0,0.5,50,166.74
4048,C5,637.0,0.5,50,166.74
4049,E-4,637.0,0.5,50,166.74
4050,G#2,637.25,0.292,33,166.74
4051,G#1,637.5,0.292,37,166.74
4052,G#2,637.75,0.292,35,166.74
4053,G#1,638.0,0.292,35,166.74
4054,C#5,638.0,0.5,59,166.74
4055,E4,638.0,0.5,59,166.74
4056,C#4,638.0,0.5,59,166.74
4057,G#2,638.25,0.292,34,166.74
4058,G#1,638.5,0.292,41,166.74
4059,G#2,638.75,0.292,37,166.74
4060,G#1,639.0,0.292,43,166.74
4061,E4,639.0,0.5,64,166.74
4062,C#4,639.0,0.5,64,166.74
4063,C#5,639.0,0.5,64,166.74
4064,G#2,639.25,0.292,39,166.74
4065,G#1,639.5,0.292,47,166.74
4066,C4,639.75,0.125,51,166.74
4067,G#2,639.75,0.292,42,166.74
4068,F#4,639.875,3.125,59,166.74
4069,E-5,640.0,3.0,80,166.74
4070,G#1,640.0,0.248,47,166.74
4071,G#2,640.25,0.248,43,166.74
4072,G#1,640.5,0.248,51,166.74
4073,G#2,640.75,0.248,47,166.74
4074,G#1,641.0,0.248,56,166.74
4075,G#2,641.25,0.248,48,166.74
4076,G#1,641.5,0.248,54,166.74
4077,G#2,641.75,0.248,47,166.74
4078,G#1,642.0,0.248,49,166.74
4079,G#2,642.25,0.248,45,166.74
4080,G#1,642.5,0.248,49,166.74
4081,G#2,642.75,0.248,41,166.74
4082,G#1,643.0,0.248,45,166.74
4083,E4,643.0,0.5,44,166.74
4084,C#4,643.0,0.5,44,166.74
4085,G#2,643.25,0.248,39,166.74
4086,C#5,643.5,0.5,43,166.74
4087,G#1,643.5,0.248,41,166.74
4088,G#2,643.75,0.248,35,166.74
4089,G#1,644.0,0.248,40,166.74
4090,F#4,644.0,0.5,47,166.74
4091,E-4,644.0,0.5,47,166.74
4092,G#2,644.25,0.248,34,166.74
4093,C5,644.5,0.5,47,166.74
4094,G#1,644.5,0.248,39,166.74
4095,G#2,644.75,0.248,34,166.74
4096,G#1,645.0,0.248,39,166.74
4097,E-4,645.0,0.5,52,166.74
4098,F#4,645.0,0.5,52,166.74
4099,G#2,645.25,0.248,34,166.74
4100,C5,645.5,0.5,53,166.74
4101,G#1,645.5,0.248,41,166.74
4102,G#2,645.75,0.248,39,166.74
4103,G#1,646.0,0.248,45,166.74
4104,C#4,646.0,0.5,62,166.74
4105,E4,646.0,0.5,62,166.74
4106,G#2,646.25,0.248,39,166.74
4107,C#5,646.5,0.5,57,166.74
4108,G#1,646.5,0.248,45,166.74
4109,G#2,646.75,0.248,40,166.74
4110,G#1,647.0,0.248,47,166.74
4111,C#4,647.0,0.5,66,166.74
4112,E4,647.0,0.5,66,166.74
4113,G#2,647.25,0.248,43,166.74
4114,C#5,647.5,0.5,65,166.74
4115,G#1,647.5,0.248,51,166.74
4116,G#2,647.75,0.248,45,166.74
4117,G#1,648.0,0.248,56,166.74
4118,C4,648.0,0.5,74,166.74
4119,F#4,648.0,0.5,74,166.74
4120,G#2,648.25,0.248,51,166.74
4121,E-5,648.5,0.5,69,166.74
4122,G#1,648.5,0.248,56,166.74
4123,G#2,648.75,0.248,49,166.74
4124,G#1,649.0,0.248,51,166.74
4125,C4,649.0,0.5,68,166.74
4126,F#4,649.0,0.5,68,166.74
4127,G#2,649.25,0.248,43,166.74
4128,E-5,649.5,0.5,58,166.74
4129,G#1,649.5,0.248,47,166.74
4130,G#2,649.75,0.248,40,166.74
4131,A1,650.0,0.248,44,166.74
4132,E4,650.0,0.5,58,166.74
4133,C#4,650.0,0.5,58,166.74
4134,A2,650.25,0.248,38,166.74
4135,C#5,650.5,0.5,51,166.74
4136,A1,650.5,0.248,41,166.74
4137,A2,650.75,0.248,35,166.74
4138,A1,651.0,0.248,39,166.74
4139,E4,651.0,0.5,52,166.74
4140,C#4,651.0,0.5,52,166.74
4141,A2,651.25,0.248,34,166.74
4142,C#5,651.5,0.5,53,166.74
4143,A1,651.5,0.248,39,166.74
4144,A2,651.75,0.248,34,166.74
4145,E-4,652.0,4.0,43,166.74
4146,A3,652.0,4.0,43,166.74
4147,C#4,652.0,4.0,43,166.74
4148,A4,652.0,4.0,43,166.74
4149,F#1,652.0,4.0,36,166.74
4150,F#2,652.0,4.0,36,166.74
4151,E-4,656.0,4.0,28,166.74
4152,G#4,656.0,4.0,28,166.74
4153,G#3,656.0,4.0,28,166.74
4154,C4,656.0,4.0,28,166.74
4155,G#1,656.0,4.0,30,166.74
4156,G#2,656.0,4.0,30,166.74
4157,C#2,660.0,0.25,62,166.74
4158,G#2,660.25,0.24,47,166.74
4159,C#3,660.5,0.292,48,166.74
4160,G#2,660.5,0.25,40,166.74
4161,E3,660.75,0.292,50,166.74
4162,G#3,661.0,0.292,51,166.74
4163,C#2,661.0,0.25,43,166.74
4164,C#3,661.25,0.292,51,166.74
4165,E3,661.5,0.292,49,166.74
4166,G#2,661.5,0.25,39,166.74
4167,G#3,661.75,0.292,51,166.74
4168,C#4,662.0,0.292,51,166.74
4169,C#2,662.0,0.25,41,166.74
4170,E3,662.25,0.292,47,166.74
4171,G#3,662.5,0.292,48,166.74
4172,G#2,662.5,0.25,39,166.74
4173,C#4,662.75,0.292,50,166.74
4174,E4,663.0,0.292,51,166.74
4175,C#2,663.0,0.25,42,166.74
4176,G#3,663.25,0.292,48,166.74
4177,C#4,663.5,0.292,49,166.74
4178,G#2,663.5,0.25,39,166.74
4179,E4,663.75,0.292,51,166.74
4180,G#4,664.0,0.292,53,166.74
4181,C#2,664.0,0.25,43,166.74
4182,C#4,664.25,0.292,47,166.74
4183,E4,664.5,0.292,49,166.74
4184,G#2,664.5,0.25,40,166.74
4185,G#4,664.75,0.292,51,166.74
4186,C#5,665.0,0.292,52,166.74
4187,C#2,665.0,0.25,43,166.74
4188,E4,665.25,0.292,51,166.74
4189,G#4,665.5,0.292,50,166.74
4190,G#2,665.5,0.25,40,166.74
4191,C#5,665.75,0.292,51,166.74
4192,E5,666.0,0.292,53,166.74
4193,C#2,666.0,0.25,41,166.74
4194,G#4,666.25,0.292,51,166.74
4195,C#5,666.5,0.292,51,166.74
4196,G#2,666.5,0.25,38,166.74
4197,E5,666.75,0.25,56,166.74
4198,C#5,667.0,0.25,86,166.74
4199,G#5,667.0,0.25,86,166.74
4200,G#4,667.0,0.25,86,166.74
4201,E5,667.0,0.25,86,166.74
4202,C#2,667.0,0.25,72,166.74
4203,C#3,667.0,0.25,72,166.74
4204,G#2,667.5,0.25,67,166.74
4205,G#5,667.5,0.25,73,166.74
4206,E5,667.5,0.25,73,166.74
4207,C#5,667.5,0.25,73,166.74
4208,G#4,667.5,0.25,73,166.74
4209,C2,668.0,0.25,41,166.74
4210,G#2,668.25,0.24,47,166.74
4211,C3,668.5,0.292,49,166.74
4212,G#2,668.5,0.25,38,166.74
4213,E-3,668.75,0.292,51,166.74
4214,G#3,669.0,0.292,51,166.74
4215,C2,669.0,0.25,41,166.74
4216,C3,669.25,0.292,48,166.74
4217,E-3,669.5,0.292,50,166.74
4218,G#2,669.5,0.25,38,166.74
4219,G#3,669.75,0.292,51,166.74
4220,C4,670.0,0.292,52,166.74
4221,C2,670.0,0.25,40,166.74
4222,E-3,670.25,0.292,51,166.74
4223,G#3,670.5,0.292,51,166.74
4224,G#2,670.5,0.25,37,166.74
4225,C4,670.75,0.292,51,166.74
4226,E-4,671.0,0.292,52,166.74
4227,C2,671.0,0.25,40,166.74
4228,G#3,671.25,0.292,47,166.74
4229,C4,671.5,0.292,50,166.74
4230,G#2,671.5,0.25,36,166.74
4231,E-4,671.75,0.292,51,166.74
4232,G#4,672.0,0.292,53,166.74
4233,C2,672.0,0.25,40,166.74
4234,C4,672.25,0.292,49,166.74
4235,E-4,672.5,0.292,50,166.74
4236,G#2,672.5,0.25,36,166.74
4237,G#4,672.75,0.292,51,166.74
4238,C5,673.0,0.292,52,166.74
4239,C2,673.0,0.25,40,166.74
4240,E-4,673.25,0.292,51,166.74
4241,G#4,673.5,0.292,50,166.74
4242,G#2,673.5,0.25,36,166.74
4243,C5,673.75,0.292,51,166.74
4244,E-5,674.0,0.292,52,166.74
4245,C2,674.0,0.25,40,166.74
4246,G#4,674.25,0.292,49,166.74
4247,C5,674.5,0.292,51,166.74
4248,G#2,674.5,0.25,36,166.74
4249,E-5,674.75,0.25,53,166.74
4250,C5,675.0,0.25,86,166.74
4251,E-5,675.0,0.25,86,166.74
4252,G#5,675.0,0.25,86,166.74
4253,G#4,675.0,0.25,86,166.74
4254,C3,675.0,0.25,72,166.74
4255,C2,675.0,0.25,72,166.74
4256,G#2,675.5,0.25,65,166.74
4257,E-5,675.5,0.25,72,166.74
4258,G#4,675.5,0.25,72,166.74
4259,G#5,675.5,0.25,72,166.74
4260,C5,675.5,0.25,72,166.74
4261,B1,676.0,0.25,55,166.74
4262,C#3,676.25,0.292,62,166.74
4263,F3,676.5,0.292,65,166.74
4264,G#2,676.5,0.25,51,166.74
4265,G#3,676.75,0.292,67,166.74
4266,C#4,677.0,0.292,68,166.74
4267,B1,677.0,0.25,56,166.74
4268,F3,677.25,0.292,65,166.74
4269,G#3,677.5,0.292,67,166.74
4270,G#2,677.5,0.25,52,166.74
4271,C#4,677.75,0.292,68,166.74
4272,F4,678.0,0.292,69,166.74
4273,B1,678.0,0.25,56,166.74
4274,G#3,678.25,0.292,66,166.74
4275,C#4,678.5,0.292,68,166.74
4276,G#2,678.5,0.25,52,166.74
4277,F4,678.75,0.292,69,166.74
4278,G#4,679.0,0.292,71,166.74
4279,B1,679.0,0.25,56,166.74
4280,C#4,679.25,0.292,66,166.74
4281,F4,679.5,0.292,68,166.74
4282,G#2,679.5,0.25,51,166.74
4283,G#4,679.75,0.292,68,166.74
4284,C#5,680.0,0.292,69,166.74
4285,B1,680.0,0.25,56,166.74
4286,F4,680.25,0.292,66,166.74
4287,G#4,680.5,0.292,68,166.74
4288,G#2,680.5,0.25,51,166.74
4289,C#5,680.75,0.292,68,166.74
4290,F5,681.0,0.292,70,166.74
4291,B1,681.0,0.25,56,166.74
4292,G#4,681.25,0.292,63,166.74
4293,C#5,681.5,0.292,66,166.74
4294,G#2,681.5,0.25,52,166.74
4295,F5,681.75,0.292,68,166.74
4296,G#5,682.0,0.292,68,166.74
4297,B1,682.0,0.25,56,166.74
4298,C#5,682.25,0.292,66,166.74
4299,F5,682.5,0.292,68,166.74
4300,G#2,682.5,0.25,52,166.74
4301,G#5,682.75,0.25,70,166.74
4302,C#5,683.0,0.25,95,166.74
4303,F5,683.0,0.25,95,166.74
4304,G#5,683.0,0.25,95,166.74
4305,C#6,683.0,0.25,95,166.74
4306,B2,683.0,0.25,78,166.74
4307,B1,683.0,0.25,78,166.74
4308,G#2,683.5,0.25,73,166.74
4309,F5,683.5,0.25,84,166.74
4310,G#5,683.5,0.25,84,166.74
4311,C#6,683.5,0.25,84,166.74
4312,C#5,683.5,0.25,84,166.74
4313,A1,684.0,0.25,50,166.74
4314,C#3,684.25,0.292,61,166.74
4315,F#3,684.5,0.292,63,166.74
4316,A2,684.5,0.25,51,166.74
4317,A3,684.75,0.292,62,166.74
4318,C#4,685.0,0.125,69,166.74
4319,A1,685.0,0.25,57,166.74
4320,C#4,685.25,0.292,72,166.74
4321,F#4,685.5,0.292,76,166.74
4322,A2,685.5,0.25,62,166.74
4323,A4,685.75,0.292,76,166.74
4324,C#5,686.0,0.125,82,166.74
4325,A1,686.0,0.25,67,166.74
4326,C#5,686.25,0.292,85,166.74
4327,F#5,686.5,0.292,87,166.74
4328,A2,686.5,0.25,67,166.74
4329,A5,686.75,0.292,84,166.74
4330,A1,687.0,0.25,86,166.74
4331,F#5,687.0,0.25,97,166.74
4332,C#6,687.0,0.25,97,166.74
4333,C#5,687.0,0.25,97,166.74
4334,A2,687.5,0.25,85,166.74
4335,C#5,687.5,0.25,96,166.74
4336,F#5,687.5,0.25,96,166.74
4337,C#6,687.5,0.25,96,166.74
4338,A1,688.0,0.25,67,166.74
4339,C#3,688.25,0.292,75,166.74
4340,E3,688.5,0.292,77,166.74
4341,A2,688.5,0.25,62,166.74
4342,G3,688.75,0.292,75,166.74
4343,C#4,689.0,0.125,80,166.74
4344,A1,689.0,0.25,67,166.74
4345,C#4,689.25,0.292,77,166.74
4346,E4,689.5,0.292,79,166.74
4347,A2,689.5,0.25,63,166.74
4348,G4,689.75,0.292,77,166.74
4349,C#5,690.0,0.125,81,166.74
4350,A1,690.0,0.25,67,166.74
4351,C#5,690.25,0.292,80,166.74
4352,E5,690.5,0.292,81,166.74
4353,A2,690.5,0.25,64,166.74
4354,G5,690.75,0.25,79,166.74
4355,A1,691.0,0.25,90,166.74
4356,G5,691.0,0.25,102,166.74
4357,C#6,691.0,0.25,102,166.74
4358,C#5,691.0,0.25,102,166.74
4359,A2,691.5,0.25,90,166.74
4360,C#6,691.5,0.25,102,166.74
4361,G5,691.5,0.25,102,166.74
4362,C#5,691.5,0.25,102,166.74
4363,G#5,692.0,0.5,102,166.74
4364,C5,692.0,0.5,102,166.74
4365,C6,692.0,0.5,102,166.74
4366,G#2,692.0,0.5,77,166.74
4367,G#1,692.0,0.5,77,166.74
4368,G#4,692.5,0.25,74,166.74
4369,C4,692.5,0.5,62,166.74
4370,G#3,692.5,7.5,62,166.74
4371,G#5,692.75,0.25,58,166.74
4372,G#4,693.0,0.25,75,166.74
4373,C4,693.0,0.5,62,166.74
4374,G#5,693.25,0.25,60,166.74
4375,B-4,693.5,0.25,76,166.74
4376,C#4,693.5,0.5,62,166.74
4377,G#5,693.75,0.25,60,166.74
4378,C5,694.0,0.25,76,166.74
4379,E-4,694.0,0.5,64,166.74
4380,G#5,694.25,0.25,61,166.74
4381,C#5,694.5,0.25,78,166.74
4382,E4,694.5,0.5,66,166.74
4383,G#5,694.75,0.25,62,166.74
4384,E-5,695.0,0.25,79,166.74
4385,F#4,695.0,0.5,67,166.74
4386,G#5,695.25,0.25,62,166.74
4387,C5,695.5,0.25,79,166.74
4388,E-4,695.5,0.5,68,166.74
4389,G#5,695.75,0.25,62,166.74
4390,E-5,696.0,0.25,80,166.74
4391,F#4,696.0,0.5,69,166.74
4392,G#5,696.25,0.25,62,166.74
4393,C#5,696.5,0.25,80,166.74
4394,E4,696.5,0.5,71,166.74
4395,G#5,696.75,0.25,62,166.74
4396,F#5,697.0,0.25,84,166.74
4397,A4,697.0,0.5,72,166.74
4398,G#5,697.25,0.25,62,166.74
4399,E5,697.5,0.25,80,166.74
4400,G#4,697.5,0.5,71,166.74
4401,G#5,697.75,0.25,62,166.74
4402,E-5,698.0,0.25,80,166.74
4403,F#4,698.0,0.5,69,166.74
4404,G#5,698.25,0.25,62,166.74
4405,C#5,698.5,0.25,79,166.74
4406,E4,698.5,0.5,68,166.74
4407,G#5,698.75,0.25,62,166.74
4408,C5,699.0,0.25,79,166.74
4409,E-4,699.0,0.5,67,166.74
4410,G#5,699.25,0.25,62,166.74
4411,A4,699.5,0.25,77,166.74
4412,C#4,699.5,0.5,66,166.74
4413,G5,699.75,0.25,61,166.74
4414,G#4,700.0,0.25,76,166.74
4415,G#3,700.0,8.0,64,166.74
4416,C4,700.0,0.5,64,166.74
4417,G#5,700.25,0.25,60,166.74
4418,G#4,700.5,0.25,75,166.74
4419,C4,700.5,0.5,63,166.74
4420,G#5,700.75,0.25,59,166.74
4421,G#4,701.0,0.25,74,166.74
4422,C4,701.0,0.5,62,166.74
4423,G#5,701.25,0.25,59,166.74
4424,B-4,701.5,0.25,74,166.74
4425,C#4,701.5,0.5,60,166.74
4426,G#5,701.75,0.25,61,166.74
4427,C5,702.0,0.25,76,166.74
4428,E-4,702.0,0.5,62,166.74
4429,G#5,702.25,0.25,59,166.74
4430,C#5,702.5,0.25,76,166.74
4431,E4,702.5,0.5,62,166.74
4432,G#5,702.75,0.25,62,166.74
4433,E-5,703.0,0.25,77,166.74
4434,F#4,703.0,0.5,65,166.74
4435,G#5,703.25,0.25,61,166.74
4436,C5,703.5,0.25,79,166.74
4437,E-4,703.5,0.5,67,166.74
4438,G#5,703.75,0.25,62,166.74
4439,E-5,704.0,0.25,79,166.74
4440,F#4,704.0,0.5,68,166.74
4441,G#5,704.25,0.25,62,166.74
4442,C#5,704.5,0.25,80,166.74
4443,E4,704.5,0.5,68,166.74
4444,G#5,704.75,0.25,65,166.74
4445,F#5,705.0,0.25,84,166.74
4446,A4,705.0,0.5,68,166.74
4447,G#5,705.25,0.25,68,166.74
4448,E5,705.5,0.25,84,166.74
4449,G#4,705.5,0.5,67,166.74
4450,G#5,705.75,0.25,67,166.74
4451,E-5,706.0,0.25,84,166.74
4452,F#4,706.0,0.5,67,166.74
4453,G#5,706.25,0.25,67,166.74
4454,C#5,706.5,0.25,84,166.74
4455,E4,706.5,0.5,67,166.74
4456,G#5,706.75,0.25,66,166.74
4457,C5,707.0,0.25,84,166.74
4458,E-4,707.0,0.5,67,166.74
4459,G#5,707.25,0.25,67,166.74
4460,A4,707.5,0.25,84,166.74
4461,C#4,707.5,0.5,67,166.74
4462,G5,707.75,0.25,66,166.74
4463,G#4,708.0,0.25,84,166.74
4464,C4,708.0,0.25,71,166.74
4465,G#3,708.0,0.25,71,166.74
4466,G#5,708.25,0.25,66,166.74
4467,A4,708.5,0.25,79,166.74
4468,C#4,708.5,0.25,62,166.74
4469,G#3,708.5,0.25,62,166.74
4470,G5,708.75,0.25,67,166.74
4471,G#4,709.0,0.25,84,166.74
4472,G#3,709.0,0.25,68,166.74
4473,C4,709.0,0.25,68,166.74
4474,G#5,709.25,0.25,66,166.74
4475,A4,709.5,0.25,79,166.74
4476,C#4,709.5,0.25,62,166.74
4477,G#3,709.5,0.25,62,166.74
4478,G5,709.75,0.25,67,166.74
4479,G#4,710.0,0.25,84,166.74
4480,C4,710.0,0.25,71,166.74
4481,G#3,710.0,0.25,71,166.74
4482,G#5,710.25,0.25,66,166.74
4483,A4,710.5,0.25,79,166.74
4484,G#3,710.5,0.25,62,166.74
4485,C#4,710.5,0.25,62,166.74
4486,G5,710.75,0.25,65,166.74
4487,G#4,711.0,0.25,84,166.74
4488,C4,711.0,0.25,67,166.74
4489,G#3,711.0,0.25,67,166.74
4490,G#5,711.25,0.25,66,166.74
4491,A4,711.5,0.25,79,166.74
4492,C#4,711.5,0.25,61,166.74
4493,G#3,711.5,0.25,61,166.74
4494,G5,711.75,0.25,65,166.74
4495,G#5,712.0,0.5,84,166.74
4496,G#4,712.0,0.5,84,166.74
4497,C4,712.0,0.5,71,166.74
4498,G#3,712.0,0.5,71,166.74
4499,G#3,713.0,3.0,113,166.74
4500,G#1,713.0,3.0,84,166.74
4501,G#2,713.0,3.0,84,166.74
4502,C#3,716.0,0.292,39,166.74
4503,G#3,716.25,0.292,29,166.74
4504,E3,716.5,0.292,34,166.74
4505,G#3,716.75,0.292,29,166.74
4506,G#4,717.0,2.042,56,166.74
4507,C#3,717.0,0.248,39,166.74
4508,G#3,717.25,0.248,29,166.74
4509,E3,717.5,0.248,34,166.74
4510,G#3,717.75,0.248,30,166.74
4511,C#3,718.0,0.248,39,166.74
4512,G#3,718.25,0.248,30,166.74
4513,E3,718.5,0.248,34,166.74
4514,G#3,718.75,0.248,30,166.74
4515,E4,719.0,0.792,47,166.74
4516,C#3,719.0,0.248,39,166.74
4517,G#3,719.25,0.248,30,166.74
4518,E3,719.5,0.248,34,166.74
4519,C#4,719.75,0.125,47,166.74
4520,G#3,719.75,0.248,30,166.74
4521,C4,719.875,1.0,37,166.74
4522,C#4,719.875,1.0,37,166.74
4523,E-4,719.958,0.042,37,166.74
4524,C#4,720.0,1.042,53,166.74
4525,E-3,720.0,0.292,39,166.74
4526,G#3,720.25,0.292,30,166.74
4527,F#3,720.5,0.292,34,166.74
4528,G#3,720.75,0.292,30,166.74
4529,C4,721.0,1.5,47,166.74
4530,E-3,721.0,0.248,48,166.74
4531,G#3,721.25,0.248,43,166.74
4532,F#3,721.5,0.248,47,166.74
4533,G#3,721.75,0.248,49,166.74
4534,E-3,722.0,0.248,58,166.74
4535,G#3,722.25,0.248,46,166.74
4536,C4,722.5,0.542,47,166.74
4537,F#3,722.5,0.248,54,166.74
4538,G#3,722.75,0.248,47,166.74
4539,G#4,723.0,0.75,56,166.74
4540,E-3,723.0,0.248,66,166.74
4541,G#3,723.25,0.248,46,166.74
4542,F#3,723.5,0.248,51,166.74
4543,C4,723.75,0.25,48,166.74
4544,G#3,723.75,0.248,40,166.74
4545,E-4,724.0,1.042,43,166.74
4546,E3,724.0,0.248,39,166.74
4547,G#3,724.25,0.248,32,166.74
4548,E3,724.5,0.248,35,166.74
4549,G#3,724.75,0.248,31,166.74
4550,C#4,725.0,1.5,47,166.74
4551,E3,725.0,0.248,50,166.74
4552,G#3,725.25,0.248,41,166.74
4553,E3,725.5,0.248,47,166.74
4554,G#3,725.75,0.248,42,166.74
4555,E3,726.0,0.248,58,166.74
4556,G#3,726.25,0.248,48,166.74
4557,C#4,726.5,0.542,45,166.74
4558,E3,726.5,0.248,56,166.74
4559,G#3,726.75,0.248,51,166.74
4560,G#4,727.0,0.75,57,166.74
4561,E3,727.0,0.248,66,166.74
4562,G#3,727.25,0.248,49,166.74
4563,E3,727.5,0.248,51,166.74
4564,C#4,727.75,0.25,47,166.74
4565,G#3,727.75,0.248,47,166.74
4566,E4,728.0,1.042,48,166.74
4567,C3,728.0,0.248,39,166.74
4568,G#3,728.25,0.248,31,166.74
4569,C3,728.5,0.248,34,166.74
4570,G#3,728.75,0.248,32,166.74
4571,E-4,729.0,1.5,47,166.74
4572,C3,729.0,0.248,50,166.74
4573,G#3,729.25,0.248,43,166.74
4574,C3,729.5,0.248,49,166.74
4575,G#3,729.75,0.248,44,166.74
4576,C3,730.0,0.248,58,166.74
4577,G#3,730.25,0.248,51,166.74
4578,E-4,730.5,0.542,48,166.74
4579,C3,730.5,0.248,59,166.74
4580,G#3,730.75,0.248,54,166.74
4581,G#4,731.0,0.792,54,166.74
4582,C3,731.0,0.248,66,166.74
4583,G#3,731.25,0.248,48,166.74
4584,C3,731.5,0.248,51,166.74
4585,E-4,731.75,0.25,48,166.74
4586,G#3,731.75,0.248,39,166.74
4587,E4,732.0,0.25,51,166.74
4588,C#3,732.0,0.292,39,166.74
4589,G#3,732.25,0.292,32,166.74
4590,E3,732.5,0.248,35,166.74
4591,G#5,732.5,1.0,53,166.74
4592,G#4,732.5,1.0,53,166.74
4593,G#3,732.75,0.248,31,166.74
4594,C#3,733.0,0.248,40,166.74
4595,G#3,733.25,0.248,31,166.74
4596,E3,733.5,0.248,34,166.74
4597,G#4,733.5,1.0,49,166.74
4598,G#5,733.5,1.0,49,166.74
4599,G#3,733.75,0.248,31,166.74
4600,C#3,734.0,0.248,41,166.74
4601,G#3,734.25,0.248,31,166.74
4602,E3,734.5,0.248,35,166.74
4603,G#5,734.5,0.25,52,166.74
4604,G#4,734.5,0.25,52,166.74
4605,G#3,734.75,0.248,31,166.74
4606,C#3,735.0,0.292,43,166.74
4607,E4,735.0,0.25,54,166.74
4608,E5,735.0,0.25,54,166.74
4609,G#3,735.25,0.292,34,166.74
4610,E3,735.5,0.292,37,166.74
4611,C#5,735.5,0.25,52,166.74
4612,C#4,735.5,0.25,52,166.74
4613,G#3,735.75,0.292,33,166.74
4614,E-3,736.0,0.292,46,166.74
4615,C#4,736.0,0.25,56,166.74
4616,C#5,736.0,0.25,56,166.74
4617,G#3,736.25,0.292,33,166.74
4618,F#3,736.5,0.248,39,166.74
4619,C4,736.5,1.0,57,166.74
4620,C5,736.5,1.0,57,166.74
4621,G#3,736.75,0.248,33,166.74
4622,E-3,737.0,0.248,47,166.74
4623,G#3,737.25,0.248,35,166.74
4624,F#3,737.5,0.248,40,166.74
4625,C5,737.5,1.0,62,166.74
4626,C4,737.5,1.0,62,166.74
4627,G#3,737.75,0.248,34,166.74
4628,E-3,738.0,0.248,49,166.74
4629,G#3,738.25,0.248,35,166.74
4630,F#3,738.5,0.248,41,166.74
4631,C4,738.5,0.25,64,166.74
4632,C5,738.5,0.25,64,166.74
4633,G#3,738.75,0.248,35,166.74
4634,E-3,739.0,0.292,50,166.74
4635,G#5,739.0,0.25,66,166.74
4636,G#4,739.0,0.25,66,166.74
4637,G#3,739.25,0.292,40,166.74
4638,F#3,739.5,0.292,45,166.74
4639,C5,739.5,0.25,64,166.74
4640,C4,739.5,0.25,64,166.74
4641,G#3,739.75,0.292,42,166.74
4642,E3,740.0,0.292,51,166.74
4643,E-5,740.0,0.25,68,166.74
4644,E-4,740.0,0.25,68,166.74
4645,G#3,740.25,0.292,43,166.74
4646,E3,740.5,0.248,47,166.74
4647,C#4,740.5,1.0,69,166.74
4648,C#5,740.5,1.0,69,166.74
4649,G#3,740.75,0.248,43,166.74
4650,E3,741.0,0.248,52,166.74
4651,G#3,741.25,0.248,43,166.74
4652,E3,741.5,0.248,48,166.74
4653,C#4,741.5,1.0,74,166.74
4654,C#5,741.5,1.0,74,166.74
4655,G#3,741.75,0.248,44,166.74
4656,E3,742.0,0.248,56,166.74
4657,G#3,742.25,0.248,46,166.74
4658,E3,742.5,0.248,50,166.74
4659,C#5,742.5,0.25,69,166.74
4660,C#4,742.5,0.25,69,166.74
4661,G#3,742.75,0.248,47,166.74
4662,E3,743.0,0.292,57,166.74
4663,G#5,743.0,0.25,78,166.74
4664,G#4,743.0,0.25,78,166.74
4665,G#3,743.25,0.292,49,166.74
4666,E3,743.5,0.292,51,166.74
4667,C#5,743.5,0.25,80,166.74
4668,C#4,743.5,0.25,80,166.74
4669,G#3,743.75,0.292,48,166.74
4670,C3,744.0,0.292,59,166.74
4671,E4,744.0,0.25,80,166.74
4672,E5,744.0,0.25,80,166.74
4673,G#3,744.25,0.292,53,166.74
4674,C3,744.5,0.248,56,166.74
4675,E-4,744.5,1.0,78,166.74
4676,E-5,744.5,1.0,78,166.74
4677,G#3,744.75,0.248,52,166.74
4678,C3,745.0,0.248,60,166.74
4679,G#3,745.25,0.248,52,166.74
4680,C3,745.5,0.248,57,166.74
4681,E-5,745.5,1.0,86,166.74
4682,E-4,745.5,1.0,86,166.74
4683,G#3,745.75,0.248,52,166.74
4684,C3,746.0,0.248,62,166.74
4685,G#3,746.25,0.248,52,166.74
4686,C3,746.5,0.248,59,166.74
4687,E-4,746.5,0.25,82,166.74
4688,E-5,746.5,0.25,82,166.74
4689,G#3,746.75,0.248,53,166.74
4690,C3,747.0,0.292,62,166.74
4691,G#4,747.0,0.25,86,166.74
4692,G#5,747.0,0.25,86,166.74
4693,G#3,747.25,0.292,53,166.74
4694,C3,747.5,0.292,60,166.74
4695,E-5,747.5,0.25,82,166.74
4696,E-4,747.5,0.25,82,166.74
4697,G#3,747.75,0.292,54,166.74
4698,B2,748.0,0.292,66,166.74
4699,F4,748.0,2.0,88,166.74
4700,F5,748.0,2.0,88,166.74
4701,G#3,748.25,0.292,56,166.74
4702,C#3,748.5,0.292,61,166.74
4703,G#3,748.75,0.292,56,166.74
4704,B2,749.0,0.292,66,166.74
4705,G#3,749.25,0.292,56,166.74
4706,C#3,749.5,0.292,61,166.74
4707,G#3,749.75,0.292,56,166.74
4708,A2,750.0,0.292,66,166.74
4709,F#4,750.0,2.0,88,166.74
4710,F#5,750.0,2.0,88,166.74
4711,F#3,750.25,0.292,56,166.74
4712,C#3,750.5,0.292,62,166.74
4713,F#3,750.75,0.292,57,166.74
4714,A2,751.0,0.292,66,166.74
4715,F#3,751.25,0.292,56,166.74
4716,C#3,751.5,0.292,61,166.74
4717,F#3,751.75,0.292,56,166.74
4718,E-4,752.0,1.0,67,166.74
4719,E-5,752.0,0.135,80,166.74
4720,A2,752.0,0.248,66,166.74
4721,E5,752.135,0.135,75,166.74
4722,F#3,752.25,0.248,56,166.74
4723,E-5,752.269,0.135,80,166.74
4724,E5,752.404,0.135,80,166.74
4725,B2,752.5,0.248,61,166.74
4726,E-5,752.573,0.163,80,166.74
4727,C#5,752.723,0.163,75,166.74
4728,F#3,752.75,0.248,56,166.74
4729,E-5,752.86,0.14,75,166.74
4730,G#2,753.0,0.292,66,166.74
4731,E5,753.0,3.0,88,166.74
4732,E4,753.0,3.0,88,166.74
4733,E3,753.25,0.292,56,166.74
4734,B2,753.5,0.292,62,166.74
4735,E3,753.75,0.292,56,166.74
4736,G#2,754.0,0.292,66,166.74
4737,E3,754.25,0.292,56,166.74
4738,B2,754.5,0.292,61,166.74
4739,E3,754.75,0.292,56,166.74
4740,G#2,755.0,0.292,66,166.74
4741,E3,755.25,0.292,54,166.74
4742,B2,755.5,0.292,60,166.74
4743,E3,755.75,0.292,56,166.74
4744,G2,756.0,0.292,66,166.74
4745,C#5,756.0,2.0,88,166.74
4746,C#4,756.0,2.0,88,166.74
4747,E3,756.25,0.292,58,166.74
4748,A2,756.5,0.292,62,166.74
4749,E3,756.75,0.292,58,166.74
4750,G2,757.0,0.292,66,166.74
4751,E3,757.25,0.292,57,166.74
4752,A2,757.5,0.292,62,166.74
4753,E3,757.75,0.292,58,166.74
4754,F#2,758.0,0.292,66,166.74
4755,D4,758.0,2.0,87,166.74
4756,D5,758.0,2.0,87,166.74
4757,D3,758.25,0.292,54,166.74
4758,A2,758.5,0.292,62,166.74
4759,D3,758.75,0.292,56,166.74
4760,F#2,759.0,0.292,66,166.74
4761,D3,759.25,0.292,54,166.74
4762,A2,759.5,0.292,62,166.74
4763,D3,759.75,0.292,54,166.74
4764,C4,760.0,1.0,67,166.74
4765,C5,760.0,0.135,80,166.74
4766,F#2,760.0,0.248,66,166.74
4767,C#5,760.135,0.135,75,166.74
4768,E-3,760.25,0.248,56,166.74
4769,C5,760.269,0.135,80,166.74
4770,C#5,760.404,0.135,80,166.74
4771,G#2,760.5,0.248,60,166.74
4772,C5,760.573,0.163,80,166.74
4773,B-4,760.723,0.163,75,166.74
4774,E-3,760.75,0.248,60,166.74
4775,C5,760.86,0.14,75,166.74
4776,E2,761.0,0.292,66,166.74
4777,C#4,761.0,3.0,88,166.74
4778,C#5,761.0,3.0,88,166.74
4779,C#3,761.25,0.292,56,166.74
4780,G#2,761.5,0.292,61,166.74
4781,C#3,761.75,0.292,57,166.74
4782,E2,762.0,0.292,66,166.74
4783,C#3,762.25,0.292,56,166.74
4784,G#2,762.5,0.292,61,166.74
4785,C#3,762.75,0.292,56,166.74
4786,E2,763.0,0.292,66,166.74
4787,C#3,763.25,0.292,56,166.74
4788,G#2,763.5,0.292,61,166.74
4789,C#3,763.75,0.292,61,166.74
4790,F#4,764.0,2.25,92,166.74
4791,A4,764.0,2.25,92,166.74
4792,D5,764.0,2.25,92,166.74
4793,D4,764.0,2.25,92,166.74
4794,A2,764.0,3.0,70,166.74
4795,F#3,764.0,3.0,70,166.74
4796,D3,764.0,3.0,70,166.74
4797,F#2,764.0,3.0,70,166.74
4798,A4,766.25,0.25,48,166.74
4799,B4,766.5,0.25,48,166.74
4800,C#5,766.75,0.25,49,166.74
4801,D5,767.0,0.25,50,166.74
4802,E5,767.25,0.25,51,166.74
4803,F#5,767.5,0.25,51,166.74
4804,E5,767.75,0.25,49,166.74
4805,D5,768.0,0.25,49,166.74
4806,F#3,768.0,1.0,45,166.74
4807,D4,768.0,1.0,45,166.74
4808,A3,768.0,1.0,45,166.74
4809,A4,768.25,0.25,47,166.74
4810,B4,768.5,0.25,48,166.74
4811,C#5,768.75,0.25,49,166.74
4812,D5,769.0,0.25,50,166.74
4813,E5,769.25,0.25,51,166.74
4814,F#5,769.5,0.25,51,166.74
4815,E5,769.75,0.25,50,166.74
4816,D5,770.0,0.25,48,166.74
4817,A3,770.0,1.0,44,166.74
4818,D4,770.0,1.0,44,166.74
4819,F#3,770.0,1.0,44,166.74
4820,A4,770.25,0.25,48,166.74
4821,B4,770.5,0.25,50,166.74
4822,C#5,770.75,0.25,51,166.74
4823,D5,771.0,0.25,51,166.74
4824,E5,771.25,0.25,52,166.74
4825,F#5,771.5,0.25,52,166.74
4826,E5,771.75,0.25,51,166.74
4827,D5,772.0,0.25,47,166.74
4828,F#3,772.0,1.0,44,166.74
4829,A3,772.0,1.0,44,166.74
4830,D4,772.0,1.0,44,166.74
4831,A4,772.25,0.25,48,166.74
4832,B4,772.5,0.25,51,166.74
4833,C#5,772.75,0.25,51,166.74
4834,D5,773.0,0.25,54,166.74
4835,D4,773.0,1.0,47,166.74
4836,A3,773.0,1.0,47,166.74
4837,F#3,773.0,1.0,47,166.74
4838,E5,773.25,0.25,56,166.74
4839,F#5,773.5,0.25,57,166.74
4840,G5,773.75,0.25,60,166.74
4841,A5,774.0,0.25,61,166.74
4842,F#3,774.0,1.0,54,166.74
4843,D4,774.0,1.0,54,166.74
4844,A3,774.0,1.0,54,166.74
4845,G#5,774.25,0.25,59,166.74
4846,B5,774.5,0.25,57,166.74
4847,A5,774.75,0.25,56,166.74
4848,G5,775.0,0.25,54,166.74
4849,F#3,775.0,1.0,50,166.74
4850,D4,775.0,1.0,50,166.74
4851,A3,775.0,1.0,50,166.74
4852,F#5,775.25,0.25,52,166.74
4853,E5,775.5,0.25,51,166.74
4854,D5,775.75,0.25,50,166.74
4855,C#5,776.0,2.0,48,166.74
4856,G#3,776.0,0.292,49,166.74
4857,E4,776.25,0.292,44,166.74
4858,C#4,776.5,0.292,47,166.74
4859,E4,776.75,0.292,43,166.74
4860,G#3,777.0,0.292,51,166.74
4861,E4,777.25,0.292,43,166.74
4862,C#4,777.5,0.292,47,166.74
4863,E4,777.75,0.292,42,166.74
4864,E-5,778.0,0.167,50,166.74
4865,G#3,778.0,0.248,51,166.74
4866,E5,778.167,0.167,50,166.74
4867,F#4,778.25,0.248,43,166.74
4868,E-5,778.333,0.156,50,166.74
4869,E5,778.49,0.156,50,166.74
4870,C4,778.5,0.248,47,166.74
4871,E-5,778.646,0.156,50,166.74
4872,F#4,778.75,0.248,43,166.74
4873,E5,778.802,0.156,50,166.74
4874,E-5,778.958,0.146,49,166.74
4875,G#3,779.0,0.248,51,166.74
4876,E5,779.104,0.146,49,166.74
4877,E-5,779.25,0.125,50,166.74
4878,F#4,779.25,0.248,44,166.74
4879,E5,779.375,0.125,51,166.74
4880,E-5,779.5,0.167,51,166.74
4881,C4,779.5,0.248,47,166.74
4882,C#5,779.667,0.167,51,166.74
4883,F#4,779.75,0.248,42,166.74
4884,E-5,779.833,0.167,52,166.74
4885,C#5,780.0,0.5,56,166.74
4886,E4,780.0,0.5,56,166.74
4887,C#4,780.0,0.5,56,166.74
4888,A3,780.0,0.5,56,166.74
4889,D4,781.0,1.25,80,166.74
4890,F#3,781.0,1.25,80,166.74
4891,A3,781.0,1.25,80,166.74
4892,D3,781.0,1.25,80,166.74
4893,F#1,781.0,2.0,74,166.74
4894,A1,781.0,2.0,74,166.74
4895,D2,781.0,2.0,74,166.74
4896,F#2,781.0,2.0,74,166.74
4897,A3,782.25,0.25,48,166.74
4898,B3,782.5,0.25,48,166.74
4899,C#4,782.75,0.25,49,166.74
4900,D4,783.0,0.25,50,166.74
4901,E4,783.25,0.25,51,166.74
4902,F#4,783.5,0.25,51,166.74
4903,E4,783.75,0.25,51,166.74
4904,D4,784.0,0.25,48,166.74
4905,A3,784.25,0.25,47,166.74
4906,B3,784.5,0.25,48,166.74
4907,C#4,784.75,0.25,48,166.74
4908,D4,785.0,0.25,49,166.74
4909,D3,785.0,1.0,44,166.74
4910,A2,785.0,1.0,44,166.74
4911,F#2,785.0,1.0,44,166.74
4912,E4,785.25,0.25,50,166.74
4913,F#4,785.5,0.25,51,166.74
4914,E4,785.75,0.25,48,166.74
4915,D4,786.0,0.25,48,166.74
4916,A3,786.25,0.25,48,166.74
4917,B3,786.5,0.25,48,166.74
4918,C#4,786.75,0.25,50,166.74
4919,D4,787.0,0.25,50,166.74
4920,D3,787.0,1.0,44,166.74
4921,F#2,787.0,1.0,44,166.74
4922,A2,787.0,1.0,44,166.74
4923,E4,787.25,0.25,50,166.74
4924,F#4,787.5,0.25,50,166.74
4925,E4,787.75,0.25,50,166.74
4926,D4,788.0,0.25,49,166.74
4927,A3,788.25,0.25,51,166.74
4928,B3,788.5,0.25,51,166.74
4929,D3,788.5,0.5,46,166.74
4930,A2,788.5,0.5,46,166.74
4931,F#2,788.5,0.5,46,166.74
4932,C#4,788.75,0.25,53,166.74
4933,D4,789.0,0.25,56,166.74
4934,E4,789.25,0.25,56,166.74
4935,F#4,789.5,0.25,57,166.74
4936,D3,789.5,0.5,54,166.74
4937,A2,789.5,0.5,54,166.74
4938,F#2,789.5,0.5,54,166.74
4939,G4,789.75,0.25,59,166.74
4940,A4,790.0,0.25,61,166.74
4941,B4,790.25,0.25,62,166.74
4942,C#5,790.5,0.25,63,166.74
4943,A2,790.5,0.5,61,166.74
4944,D3,790.5,0.5,61,166.74
4945,F#2,790.5,0.5,61,166.74
4946,D5,790.75,0.25,66,166.74
4947,E5,791.0,0.25,68,166.74
4948,F#5,791.25,0.25,68,166.74
4949,G5,791.5,0.25,70,166.74
4950,F#2,791.5,0.5,61,166.74
4951,D3,791.5,0.5,61,166.74
4952,A2,791.5,0.5,61,166.74
4953,G#5,791.75,0.25,72,166.74
4954,F#2,792.0,0.248,66,166.74
4955,A5,792.0,2.0,73,166.74
4956,A4,792.0,2.0,73,166.74
4957,D3,792.25,0.248,56,166.74
4958,A2,792.5,0.248,62,166.74
4959,D3,792.75,0.248,56,166.74
4960,F#2,793.0,0.248,66,166.74
4961,D3,793.25,0.248,56,166.74
4962,A2,793.5,0.248,61,166.74
4963,D3,793.75,0.248,54,166.74
4964,G2,794.0,0.248,66,166.74
4965,C#5,794.0,2.0,71,166.74
4966,C#4,794.0,2.0,71,166.74
4967,E3,794.25,0.248,56,166.74
4968,B-2,794.5,0.248,62,166.74
4969,E3,794.75,0.248,56,166.74
4970,G2,795.0,0.248,66,166.74
4971,E3,795.25,0.248,54,166.74
4972,B-2,795.5,0.248,60,166.74
4973,E3,795.75,0.248,54,166.74
4974,G#2,796.0,0.248,66,166.74
4975,E4,796.0,2.0,71,166.74
4976,E5,796.0,2.0,71,166.74
4977,E3,796.25,0.248,58,166.74
4978,C#3,796.5,0.248,62,166.74
4979,E3,796.75,0.248,56,166.74
4980,G#2,797.0,0.248,66,166.74
4981,E3,797.25,0.248,56,166.74
4982,C#3,797.5,0.248,62,166.74
4983,E3,797.75,0.248,57,166.74
4984,G#1,798.0,0.248,66,166.74
4985,C3,798.0,2.0,69,166.74
4986,F#3,798.0,2.0,69,166.74
4987,C4,798.0,2.0,69,166.74
4988,G#2,798.25,0.248,57,166.74
4989,G2,798.5,0.248,62,166.74
4990,G#2,798.75,0.248,57,166.74
4991,G2,799.0,0.248,66,166.74
4992,G#2,799.25,0.248,57,166.74
4993,G2,799.5,0.248,62,166.74
4994,G#2,799.75,0.248,58,166.74
4995,C#2,800.0,0.5,59,166.74
4996,C#3,800.0,0.5,59,166.74
4997,E3,800.0,0.5,59,166.74
4998,C#4,800.0,0.5,59,166.74
4999,C#3,800.5,0.25,40,166.74
5000,E4,800.5,0.25,48,166.74
5001,G#3,800.5,0.25,48,166.74
5002,C#3,801.0,0.25,40,166.74
5003,E4,801.0,0.25,48,166.74
5004,G#3,801.0,0.25,48,166.74
5005,C#3,801.5,0.25,40,166.74
5006,E4,801.5,0.25,48,166.74
5007,G#3,801.5,0.25,48,166.74
5008,C#3,802.0,0.25,40,166.74
5009,E4,802.0,0.25,48,166.74
5010,G#3,802.0,0.25,48,166.74
5011,C#3,802.5,0.25,40,166.74
5012,E4,802.5,0.25,48,166.74
5013,G#3,802.5,0.25,48,166.74
5014,E-3,803.0,0.25,39,166.74
5015,E-4,803.0,0.25,46,166.74
5016,G#3,803.0,0.25,46,166.74
5017,E3,803.5,0.25,39,166.74
5018,G#3,803.5,0.25,45,166.74
5019,C#4,803.5,0.25,45,166.74
5020,C4,804.0,0.5,53,166.74
5021,G#3,804.0,0.5,53,166.74
5022,G#2,804.0,0.5,45,166.74
5023,F#3,804.0,0.5,45,166.74
5024,C4,804.5,0.25,48,166.74
5025,G#4,804.5,0.25,48,166.74
5026,G#3,804.5,0.25,39,166.74
5027,F#3,804.5,0.25,39,166.74
5028,G#4,805.0,0.25,48,166.74
5029,C4,805.0,0.25,48,166.74
5030,G#3,805.0,0.25,39,166.74
5031,F#3,805.0,0.25,39,166.74
5032,C4,805.5,0.25,48,166.74
5033,G#4,805.5,0.25,48,166.74
5034,G#3,805.5,0.25,39,166.74
5035,F#3,805.5,0.25,39,166.74
5036,C4,806.0,0.25,48,166.74
5037,G#4,806.0,0.25,48,166.74
5038,F#3,806.0,0.25,39,166.74
5039,G#3,806.0,0.25,39,166.74
5040,G#4,806.5,0.25,48,166.74
5041,C4,806.5,0.25,48,166.74
5042,F#3,806.5,0.25,39,166.74
5043,G#3,806.5,0.25,39,166.74
5044,G#4,807.0,0.25,48,166.74
5045,C#4,807.0,0.25,48,166.74
5046,G#3,807.0,0.25,39,166.74
5047,E3,807.0,0.25,39,166.74
5048,G#4,807.5,0.25,51,166.74
5049,E-4,807.5,0.25,51,166.74
5050,E-3,807.5,0.25,42,166.74
5051,G#3,807.5,0.25,42,166.74
5052,E4,808.0,0.5,59,166.74
5053,G#4,808.0,0.5,59,166.74
5054,C#3,808.0,0.5,45,166.74
5055,C#2,808.0,0.5,45,166.74
5056,C#3,808.5,0.25,39,166.74
5057,G#3,808.5,0.25,48,166.74
5058,E4,808.5,0.25,48,166.74
5059,C#3,809.0,0.25,39,166.74
5060,E4,809.0,0.25,48,166.74
5061,G#3,809.0,0.25,48,166.74
5062,C#3,809.5,0.25,39,166.74
5063,G#3,809.5,0.25,49,166.74
5064,E4,809.5,0.25,49,166.74
5065,C#3,810.0,0.25,39,166.74
5066,G#3,810.0,0.25,49,166.74
5067,E4,810.0,0.25,49,166.74
5068,C#3,810.5,0.25,40,166.74
5069,E4,810.5,0.25,49,166.74
5070,G#3,810.5,0.25,49,166.74
5071,E-3,811.0,0.25,39,166.74
5072,G#3,811.0,0.25,47,166.74
5073,E-4,811.0,0.25,47,166.74
5074,E3,811.5,0.25,39,166.74
5075,C#4,811.5,0.25,48,166.74
5076,G#3,811.5,0.25,48,166.74
5077,G#3,812.0,0.5,59,166.74
5078,C4,812.0,0.5,59,166.74
5079,F#3,812.0,0.5,47,166.74
5080,G#2,812.0,0.5,47,166.74
5081,G#4,812.5,0.25,47,166.74
5082,C4,812.5,0.25,47,166.74
5083,G#3,812.5,0.25,39,166.74
5084,F#3,812.5,0.25,39,166.74
5085,G#4,813.0,0.25,47,166.74
5086,C4,813.0,0.25,47,166.74
5087,F#3,813.0,0.25,39,166.74
5088,G#3,813.0,0.25,39,166.74
5089,C4,813.5,0.25,47,166.74
5090,G#4,813.5,0.25,47,166.74
5091,F#3,813.5,0.25,39,166.74
5092,G#3,813.5,0.25,39,166.74
5093,C4,814.0,0.25,47,166.74
5094,G#4,814.0,0.25,47,166.74
5095,F#3,814.0,0.25,39,166.74
5096,G#3,814.0,0.25,39,166.74
5097,C4,814.5,0.25,47,166.74
5098,G#4,814.5,0.25,47,166.74
5099,F#3,814.5,0.25,39,166.74
5100,G#3,814.5,0.25,39,166.74
5101,C#4,815.0,0.25,47,166.74
5102,G#4,815.0,0.25,47,166.74
5103,E3,815.0,0.25,41,166.74
5104,G#3,815.0,0.25,41,166.74
5105,G#4,815.5,0.25,51,166.74
5106,E-4,815.5,0.25,51,166.74
5107,E-3,815.5,0.25,43,166.74
5108,G#3,815.5,0.25,43,166.74
5109,G#4,816.0,0.25,61,166.74
5110,E4,816.0,0.25,61,166.74
5111,C#3,816.0,0.25,44,166.74
5112,C#2,816.0,0.25,44,166.74
5113,G#4,816.5,0.25,47,166.74
5114,E4,816.5,0.25,47,166.74
5115,C#3,816.5,0.25,40,166.74
5116,E3,816.5,0.25,40,166.74
5117,E4,817.0,0.5,48,166.74
5118,G#4,817.0,0.5,48,166.74
5119,E3,817.0,0.5,40,166.74
5120,C#3,817.0,0.5,40,166.74
5121,C#4,817.5,0.5,45,166.74
5122,E4,817.5,0.5,45,166.74
5123,G#3,817.5,0.5,39,166.74
5124,E3,817.5,0.5,39,166.74
5125,F#2,818.0,0.25,48,166.74
5126,F#4,818.5,0.25,48,166.74
5127,A4,818.5,0.25,48,166.74
5128,C#3,818.5,0.25,40,166.74
5129,F#3,818.5,0.25,40,166.74
5130,A4,819.0,0.5,48,166.74
5131,F#4,819.0,0.5,48,166.74
5132,F#3,819.0,0.5,40,166.74
5133,C#3,819.0,0.5,40,166.74
5134,C#4,819.5,0.5,46,166.74
5135,F#4,819.5,0.5,46,166.74
5136,A3,819.5,0.5,39,166.74
5137,F#3,819.5,0.5,39,166.74
5138,G#2,820.0,0.25,48,166.74
5139,G#4,820.5,0.25,47,166.74
5140,E4,820.5,0.25,47,166.74
5141,E3,820.5,0.25,39,166.74
5142,C#3,820.5,0.25,39,166.74
5143,G#4,821.0,0.5,47,166.74
5144,E4,821.0,0.5,47,166.74
5145,C#3,821.0,0.5,39,166.74
5146,E3,821.0,0.5,39,166.74
5147,E4,821.5,0.5,46,166.74
5148,C#4,821.5,0.5,46,166.74
5149,E3,821.5,0.5,39,166.74
5150,G#3,821.5,0.5,39,166.74
5151,G#2,822.0,0.25,48,166.74
5152,E-4,822.5,0.25,47,166.74
5153,G#4,822.5,0.25,47,166.74
5154,E-3,822.5,0.25,39,166.74
5155,C3,822.5,0.25,39,166.74
5156,E-4,823.0,0.5,47,166.74
5157,G#4,823.0,0.5,47,166.74
5158,C3,823.0,0.5,39,166.74
5159,E-3,823.0,0.5,39,166.74
5160,C4,823.5,0.5,45,166.74
5161,E-4,823.5,0.5,45,166.74
5162,G#3,823.5,0.5,38,166.74
5163,E-3,823.5,0.5,38,166.74
5164,C#4,824.0,0.5,59,166.74
5165,E4,824.0,0.5,59,166.74
5166,C#3,824.0,0.5,49,166.74
5167,C#2,824.0,0.5,49,166.74
5168,E4,824.5,0.25,44,166.74
5169,E5,824.5,0.25,44,166.74
5170,G#4,824.5,0.25,44,166.74
5171,C#3,824.5,0.25,39,166.74
5172,G#3,824.5,0.25,39,166.74
5173,E5,825.0,0.25,44,166.74
5174,E4,825.0,0.25,44,166.74
5175,G#4,825.0,0.25,44,166.74
5176,G#3,825.0,0.25,42,166.74
5177,C#3,825.0,0.25,42,166.74
5178,E4,825.5,0.25,44,166.74
5179,G#4,825.5,0.25,44,166.74
5180,E5,825.5,0.25,44,166.74
5181,G#3,825.5,0.25,41,166.74
5182,C#3,825.5,0.25,41,166.74
5183,G#4,826.0,0.25,44,166.74
5184,E4,826.0,0.25,44,166.74
5185,E5,826.0,0.25,44,166.74
5186,C#3,826.0,0.25,39,166.74
5187,G#3,826.0,0.25,39,166.74
5188,G#4,826.5,0.25,44,166.74
5189,E4,826.5,0.25,44,166.74
5190,E5,826.5,0.25,44,166.74
5191,C#3,826.5,0.25,39,166.74
5192,G#3,826.5,0.25,39,166.74
5193,F#4,827.0,0.25,47,166.74
5194,E-4,827.0,0.25,47,166.74
5195,E-5,827.0,0.25,47,166.74
5196,G#3,827.0,0.25,41,166.74
5197,E-3,827.0,0.25,41,166.74
5198,C#4,827.5,0.25,49,166.74
5199,C#5,827.5,0.25,49,166.74
5200,E4,827.5,0.25,49,166.74
5201,G#3,827.5,0.25,44,166.74
5202,E3,827.5,0.25,44,166.74
5203,E-4,828.0,0.5,55,166.74
5204,C5,828.0,0.5,55,166.74
5205,C4,828.0,0.5,55,166.74
5206,G#2,828.0,0.5,47,166.74
5207,G#3,828.0,0.5,47,166.74
5208,F#3,828.0,0.5,47,166.74
5209,C5,828.5,0.25,77,166.74
5210,E-5,828.5,0.25,77,166.74
5211,C6,828.5,0.25,77,166.74
5212,F#4,828.5,0.25,58,166.74
5213,G#3,828.5,0.25,58,166.74
5214,E-5,829.0,0.25,82,166.74
5215,C5,829.0,0.25,82,166.74
5216,C6,829.0,0.25,82,166.74
5217,F#4,829.0,0.25,68,166.74
5218,G#3,829.0,0.25,68,166.74
5219,C5,829.5,0.25,76,166.74
5220,C6,829.5,0.25,76,166.74
5221,E-5,829.5,0.25,76,166.74
5222,G#3,829.5,0.25,62,166.74
5223,F#4,829.5,0.25,62,166.74
5224,C5,830.0,0.25,82,166.74
5225,E-5,830.0,0.25,82,166.74
5226,C6,830.0,0.25,82,166.74
5227,G#3,830.0,0.25,68,166.74
5228,F#4,830.0,0.25,68,166.74
5229,C5,830.5,0.25,77,166.74
5230,C6,830.5,0.25,77,166.74
5231,E-5,830.5,0.25,77,166.74
5232,F#4,830.5,0.25,62,166.74
5233,G#3,830.5,0.25,62,166.74
5234,E5,831.0,0.25,84,166.74
5235,C#5,831.0,0.25,84,166.74
5236,C#6,831.0,0.25,84,166.74
5237,G#3,831.0,0.25,68,166.74
5238,E4,831.0,0.25,68,166.74
5239,E-6,831.5,0.25,80,166.74
5240,E-5,831.5,0.25,80,166.74
5241,F#5,831.5,0.25,80,166.74
5242,E-4,831.5,0.25,62,166.74
5243,G#3,831.5,0.25,62,166.74
5244,E6,832.0,0.5,91,166.74
5245,G#5,832.0,0.5,91,166.74
5246,E5,832.0,0.5,91,166.74
5247,C#2,832.0,0.5,68,166.74
5248,C#3,832.0,0.5,68,166.74
5249,G#4,832.5,0.25,44,166.74
5250,E4,832.5,0.25,44,166.74
5251,E5,832.5,0.25,44,166.74
5252,G#3,832.5,0.25,39,166.74
5253,C#3,832.5,0.25,39,166.74
5254,E4,833.0,0.25,44,166.74
5255,G#4,833.0,0.25,44,166.74
5256,E5,833.0,0.25,44,166.74
5257,G#3,833.0,0.25,39,166.74
5258,C#3,833.0,0.25,39,166.74
5259,G#4,833.5,0.25,44,166.74
5260,E4,833.5,0.25,44,166.74
5261,E5,833.5,0.25,44,166.74
5262,G#3,833.5,0.25,39,166.74
5263,C#3,833.5,0.25,39,166.74
5264,E5,834.0,0.25,45,166.74
5265,E4,834.0,0.25,45,166.74
5266,G#4,834.0,0.25,45,166.74
5267,C#3,834.0,0.25,39,166.74
5268,G#3,834.0,0.25,39,166.74
5269,G#4,834.5,0.25,45,166.74
5270,E4,834.5,0.25,45,166.74
5271,E5,834.5,0.25,45,166.74
5272,C#3,834.5,0.25,39,166.74
5273,G#3,834.5,0.25,39,166.74
5274,E-4,835.0,0.25,45,166.74
5275,F#4,835.0,0.25,45,166.74
5276,E-5,835.0,0.25,45,166.74
5277,E-3,835.0,0.25,39,166.74
5278,G#3,835.0,0.25,39,166.74
5279,E4,835.5,0.25,47,166.74
5280,C#5,835.5,0.25,47,166.74
5281,C#4,835.5,0.25,47,166.74
5282,G#3,835.5,0.25,41,166.74
5283,E3,835.5,0.25,41,166.74
5284,C5,836.0,0.5,53,166.74
5285,E-4,836.0,0.5,53,166.74
5286,C4,836.0,0.5,53,166.74
5287,G#2,836.0,0.5,45,166.74
5288,G#3,836.0,0.5,45,166.74
5289,F#3,836.0,0.5,45,166.74
5290,E-5,836.5,0.25,74,166.74
5291,C6,836.5,0.25,74,166.74
5292,C5,836.5,0.25,74,166.74
5293,F#4,836.5,0.25,57,166.74
5294,G#3,836.5,0.25,57,166.74
5295,E-5,837.0,0.25,82,166.74
5296,C5,837.0,0.25,82,166.74
5297,C6,837.0,0.25,82,166.74
5298,G#3,837.0,0.25,68,166.74
5299,F#4,837.0,0.25,68,166.74
5300,E-5,837.5,0.25,76,166.74
5301,C5,837.5,0.25,76,166.74
5302,C6,837.5,0.25,76,166.74
5303,F#4,837.5,0.25,60,166.74
5304,G#3,837.5,0.25,60,166.74
5305,C6,838.0,0.25,82,166.74
5306,C5,838.0,0.25,82,166.74
5307,E-5,838.0,0.25,82,166.74
5308,G#3,838.0,0.25,68,166.74
5309,F#4,838.0,0.25,68,166.74
5310,E-5,838.5,0.25,82,166.74
5311,C6,838.5,0.25,82,166.74
5312,C5,838.5,0.25,82,166.74
5313,F#4,838.5,0.25,60,166.74
5314,G#3,838.5,0.25,60,166.74
5315,C#5,839.0,0.25,82,166.74
5316,C#6,839.0,0.25,82,166.74
5317,E5,839.0,0.25,82,166.74
5318,E4,839.0,0.25,68,166.74
5319,G#3,839.0,0.25,68,166.74
5320,E-6,839.5,0.25,76,166.74
5321,E-5,839.5,0.25,76,166.74
5322,F#5,839.5,0.25,76,166.74
5323,G#3,839.5,0.25,59,166.74
5324,E-4,839.5,0.25,59,166.74
5325,E5,840.0,0.5,92,166.74
5326,G#5,840.0,0.5,92,166.74
5327,E6,840.0,0.5,92,166.74
5328,C#4,840.0,0.5,69,166.74
5329,C#3,840.0,0.5,69,166.74
5330,G#5,840.5,0.25,50,166.74
5331,C#6,840.5,0.25,50,166.74
5332,C#4,840.5,0.25,42,166.74
5333,E4,840.5,0.25,42,166.74
5334,C#6,841.0,0.5,50,166.74
5335,G#5,841.0,0.5,50,166.74
5336,E4,841.0,0.5,43,166.74
5337,C#4,841.0,0.5,43,166.74
5338,G#5,841.5,0.5,48,166.74
5339,E5,841.5,0.5,48,166.74
5340,G#4,841.5,0.5,39,166.74
5341,E4,841.5,0.5,39,166.74
5342,F#3,842.0,0.25,48,166.74
5343,A5,842.5,0.25,49,166.74
5344,C#6,842.5,0.25,49,166.74
5345,F#4,842.5,0.25,40,166.74
5346,C#4,842.5,0.25,40,166.74
5347,C#6,843.0,0.5,49,166.74
5348,A5,843.0,0.5,49,166.74
5349,F#4,843.0,0.5,42,166.74
5350,C#4,843.0,0.5,42,166.74
5351,F#5,843.5,0.5,48,166.74
5352,A5,843.5,0.5,48,166.74
5353,F#4,843.5,0.5,39,166.74
5354,A4,843.5,0.5,39,166.74
5355,G#3,844.0,0.25,47,166.74
5356,G#5,844.5,0.25,49,166.74
5357,E5,844.5,0.25,49,166.74
5358,C#4,844.5,0.25,42,166.74
5359,E4,844.5,0.25,42,166.74
5360,E5,845.0,0.5,49,166.74
5361,G#5,845.0,0.5,49,166.74
5362,E4,845.0,0.5,42,166.74
5363,C#4,845.0,0.5,42,166.74
5364,C#5,845.5,0.5,47,166.74
5365,E5,845.5,0.5,47,166.74
5366,G#4,845.5,0.5,39,166.74
5367,E4,845.5,0.5,39,166.74
5368,F#3,846.0,0.25,47,166.74
5369,G#5,846.5,0.25,51,166.74
5370,E-5,846.5,0.25,51,166.74
5371,E-4,846.5,0.25,42,166.74
5372,C4,846.5,0.25,42,166.74
5373,E-5,847.0,0.5,51,166.74
5374,G#5,847.0,0.5,51,166.74
5375,E-4,847.0,0.5,42,166.74
5376,C4,847.0,0.5,42,166.74
5377,C5,847.5,0.5,49,166.74
5378,E-5,847.5,0.5,49,166.74
5379,E-4,847.5,0.5,40,166.74
5380,G#4,847.5,0.5,40,166.74
5381,E3,848.0,0.5,47,166.74
5382,E5,848.5,0.25,56,166.74
5383,G#5,848.5,0.25,56,166.74
5384,C#4,848.5,0.25,42,166.74
5385,G#3,848.5,0.25,42,166.74
5386,E5,849.0,0.5,56,166.74
5387,G#5,849.0,0.5,56,166.74
5388,C#4,849.0,0.5,42,166.74
5389,G#3,849.0,0.5,42,166.74
5390,G#4,849.5,0.5,54,166.74
5391,E5,849.5,0.5,54,166.74
5392,E4,849.5,0.5,39,166.74
5393,C#4,849.5,0.5,39,166.74
5394,F#2,850.0,0.5,47,166.74
5395,F#5,850.5,0.25,65,166.74
5396,A4,850.5,0.25,65,166.74
5397,A3,850.5,0.25,43,166.74
5398,F#3,850.5,0.25,43,166.74
5399,F#5,851.0,0.5,63,166.74
5400,A4,851.0,0.5,63,166.74
5401,F#3,851.0,0.5,43,166.74
5402,A3,851.0,0.5,43,166.74
5403,F#4,851.5,0.5,62,166.74
5404,D5,851.5,0.5,62,166.74
5405,D4,851.5,0.5,41,166.74
5406,A3,851.5,0.5,41,166.74
5407,G#2,852.0,0.5,45,166.74
5408,E5,852.5,0.25,57,166.74
5409,G#4,852.5,0.25,57,166.74
5410,G#3,852.5,0.25,39,166.74
5411,E3,852.5,0.25,39,166.74
5412,G#4,853.0,0.5,57,166.74
5413,E5,853.0,0.5,57,166.74
5414,E3,853.0,0.5,40,166.74
5415,G#3,853.0,0.5,40,166.74
5416,E4,853.5,0.5,57,166.74
5417,C#5,853.5,0.5,57,166.74
5418,G#3,853.5,0.5,42,166.74
5419,C#4,853.5,0.5,42,166.74
5420,G#2,854.0,0.5,48,166.74
5421,E-5,854.5,0.25,49,166.74
5422,F#4,854.5,0.25,49,166.74
5423,E-3,854.5,0.25,39,166.74
5424,F#3,854.5,0.25,39,166.74
5425,E-5,855.0,0.5,49,166.74
5426,F#4,855.0,0.5,49,166.74
5427,F#3,855.0,0.5,39,166.74
5428,E-3,855.0,0.5,39,166.74
5429,C5,855.5,0.5,47,166.74
5430,E-4,855.5,0.5,47,166.74
5431,F#3,855.5,0.5,39,166.74
5432,C4,855.5,0.5,39,166.74
5433,C#2,856.0,0.248,49,166.74
5434,C#5,856.0,1.0,50,166.74
5435,E4,856.0,1.0,50,166.74
5436,C#3,856.25,0.248,31,166.74
5437,G#2,856.5,0.248,36,166.74
5438,C#3,856.75,0.248,32,166.74
5439,C#2,857.0,0.248,41,166.74
5440,C#3,857.25,0.248,32,166.74
5441,G#2,857.5,0.248,36,166.74
5442,C#3,857.75,0.248,32,166.74
5443,C#2,858.0,0.248,41,166.74
5444,C#3,858.25,0.248,32,166.74
5445,G#2,858.5,0.248,37,166.74
5446,C#3,858.75,0.248,37,166.74
5447,E4,859.0,0.75,50,166.74
5448,C#2,859.0,0.248,41,166.74
5449,C#3,859.25,0.248,32,166.74
5450,G#2,859.5,0.248,37,166.74
5451,C#4,859.75,0.25,50,166.74
5452,C#3,859.75,0.248,33,166.74
5453,C4,860.0,1.0,57,166.74
5454,C#2,860.0,0.248,41,166.74
5455,E-3,860.25,0.248,33,166.74
5456,G#2,860.5,0.248,38,166.74
5457,E-3,860.75,0.248,33,166.74
5458,C#2,861.0,0.248,41,166.74
5459,C4,861.0,0.75,44,166.74
5460,F#3,861.0,0.75,44,166.74
5461,G#4,861.0,0.75,44,166.74
5462,E-3,861.25,0.248,32,166.74
5463,G#2,861.5,0.248,37,166.74
5464,E-3,861.75,0.248,32,166.74
5465,C#2,862.0,0.248,41,166.74
5466,C4,862.0,0.75,44,166.74
5467,G#4,862.0,0.75,44,166.74
5468,F#3,862.0,0.75,44,166.74
5469,E-3,862.25,0.248,33,166.74
5470,G#2,862.5,0.248,38,166.74
5471,E-3,862.75,0.248,33,166.74
5472,C#2,863.0,0.248,41,166.74
5473,F#3,863.0,0.75,47,166.74
5474,C4,863.0,0.75,47,166.74
5475,G#4,863.0,0.75,47,166.74
5476,E-3,863.25,0.248,32,166.74
5477,G#2,863.5,0.248,36,166.74
5478,E3,863.75,0.125,50,166.74
5479,E-3,863.75,0.248,33,166.74
5480,C#4,863.875,0.125,50,166.74
5481,G#4,864.0,3.0,57,166.74
5482,C#2,864.0,0.248,41,166.74
5483,C#3,864.25,0.248,33,166.74
5484,G#2,864.5,0.248,37,166.74
5485,C#3,864.75,0.248,33,166.74
5486,C#2,865.0,0.248,41,166.74
5487,C#3,865.25,0.248,34,166.74
5488,G#2,865.5,0.248,38,166.74
5489,C#3,865.75,0.248,34,166.74
5490,C#2,866.0,0.248,41,166.74
5491,C#3,866.25,0.248,34,166.74
5492,G#2,866.5,0.248,38,166.74
5493,C#3,866.75,0.248,33,166.74
5494,E5,867.0,0.75,58,166.74
5495,C#2,867.0,0.248,41,166.74
5496,C#3,867.25,0.248,33,166.74
5497,G#2,867.5,0.248,36,166.74
5498,C#5,867.75,0.25,58,166.74
5499,C#3,867.75,0.248,32,166.74
5500,C5,868.0,1.0,67,166.74
5501,C#2,868.0,0.248,41,166.74
5502,E-3,868.25,0.248,33,166.74
5503,G#2,868.5,0.248,36,166.74
5504,E-3,868.75,0.248,33,166.74
5505,C#2,869.0,0.248,41,166.74
5506,G#5,869.0,0.75,54,166.74
5507,F#4,869.0,0.75,54,166.74
5508,C5,869.0,0.75,54,166.74
5509,E-3,869.25,0.248,33,166.74
5510,G#2,869.5,0.248,36,166.74
5511,E-3,869.75,0.248,33,166.74
5512,C#2,870.0,0.248,41,166.74
5513,C5,870.0,0.75,54,166.74
5514,F#4,870.0,0.75,54,166.74
5515,G#5,870.0,0.75,54,166.74
5516,E-3,870.25,0.248,32,166.74
5517,G#2,870.5,0.248,36,166.74
5518,E-3,870.75,0.248,33,166.74
5519,C#2,871.0,0.248,41,166.74
5520,C5,871.0,0.75,54,166.74
5521,G#5,871.0,0.75,54,166.74
5522,F#4,871.0,0.75,54,166.74
5523,E-3,871.25,0.248,35,166.74
5524,G#2,871.5,0.248,39,166.74
5525,E4,871.75,0.125,47,166.74
5526,E-3,871.75,0.248,34,166.74
5527,C#5,871.875,0.125,53,166.74
5528,G#5,872.0,1.75,73,166.74
5529,C#2,872.0,0.248,41,166.74
5530,C#3,872.25,0.248,33,166.74
5531,G#2,872.5,0.248,36,166.74
5532,C#3,872.75,0.248,33,166.74
5533,C#2,873.0,0.248,42,166.74
5534,C#3,873.25,0.248,31,166.74
5535,G#2,873.5,0.248,35,166.74
5536,F#4,873.75,0.125,45,166.74
5537,C#3,873.75,0.248,32,166.74
5538,C5,873.875,0.125,52,166.74
5539,G#5,874.0,1.75,72,166.74
5540,C#2,874.0,0.248,41,166.74
5541,E-3,874.25,0.248,33,166.74
5542,G#2,874.5,0.248,37,166.74
5543,E-3,874.75,0.248,33,166.74
5544,C#2,875.0,0.248,41,166.74
5545,E-3,875.25,0.248,33,166.74
5546,G#2,875.5,0.248,38,166.74
5547,E4,875.75,0.125,43,166.74
5548,E-3,875.75,0.248,34,166.74
5549,C#5,875.875,0.125,53,166.74
5550,G#5,876.0,1.75,72,166.74
5551,C#2,876.0,0.248,41,166.74
5552,C#3,876.25,0.248,33,166.74
5553,G#2,876.5,0.248,36,166.74
5554,C#3,876.75,0.248,32,166.74
5555,C#2,877.0,0.248,41,166.74
5556,C#3,877.25,0.248,33,166.74
5557,G#2,877.5,0.248,36,166.74
5558,F#4,877.75,0.125,45,166.74
5559,C#3,877.75,0.248,33,166.74
5560,C5,877.875,0.125,53,166.74
5561,G#5,878.0,2.0,71,166.74
5562,C#2,878.0,0.248,41,166.74
5563,E-3,878.25,0.248,33,166.74
5564,G#2,878.5,0.248,37,166.74
5565,E-3,878.75,0.248,33,166.74
5566,C#2,879.0,0.248,41,166.74
5567,E-3,879.25,0.248,33,166.74
5568,G#2,879.5,0.248,37,166.74
5569,E-3,879.75,0.248,34,166.74
5570,E3,880.0,0.248,51,166.74
5571,C#2,880.0,0.248,41,166.74
5572,C#4,880.25,0.248,48,166.74
5573,C#3,880.25,0.248,39,166.74
5574,G#3,880.5,0.248,51,166.74
5575,G#2,880.5,0.248,43,166.74
5576,C#4,880.75,0.248,49,166.74
5577,C#3,880.75,0.248,42,166.74
5578,E3,881.0,0.248,53,166.74
5579,C#2,881.0,0.248,45,166.74
5580,C#4,881.25,0.248,51,166.74
5581,C#3,881.25,0.248,43,166.74
5582,G#3,881.5,0.248,56,166.74
5583,G#2,881.5,0.248,47,166.74
5584,C#4,881.75,0.248,52,166.74
5585,C#3,881.75,0.248,43,166.74
5586,E3,882.0,0.248,57,166.74
5587,C#2,882.0,0.248,48,166.74
5588,C#4,882.25,0.248,53,166.74
5589,C#3,882.25,0.248,45,166.74
5590,G#3,882.5,0.248,59,166.74
5591,G#2,882.5,0.248,50,166.74
5592,C#4,882.75,0.248,56,166.74
5593,C#3,882.75,0.248,45,166.74
5594,E3,883.0,0.248,61,166.74
5595,C#2,883.0,0.248,51,166.74
5596,C#4,883.25,0.248,57,166.74
5597,C#3,883.25,0.248,47,166.74
5598,G#3,883.5,0.248,62,166.74
5599,G#2,883.5,0.248,52,166.74
5600,C#4,883.75,0.248,57,166.74
5601,C#3,883.75,0.248,49,166.74
5602,B1,884.0,0.248,55,166.74
5603,F3,884.0,0.248,65,166.74
5604,C#3,884.0,0.248,65,166.74
5605,C#4,884.25,0.248,58,166.74
5606,B2,884.25,0.248,50,166.74
5607,G#3,884.5,0.248,67,166.74
5608,C#2,884.5,0.248,56,166.74
5609,C#4,884.75,0.248,60,166.74
5610,B2,884.75,0.248,51,166.74
5611,B1,885.0,0.248,57,166.74
5612,F3,885.0,0.248,68,166.74
5613,C#3,885.0,0.248,68,166.74
5614,C#4,885.25,0.248,61,166.74
5615,B2,885.25,0.248,52,166.74
5616,G#3,885.5,0.248,69,166.74
5617,C#2,885.5,0.248,58,166.74
5618,C#4,885.75,0.248,65,166.74
5619,B2,885.75,0.248,53,166.74
5620,B1,886.0,0.248,61,166.74
5621,F3,886.0,0.248,72,166.74
5622,C#3,886.0,0.248,72,166.74
5623,C#4,886.25,0.248,67,166.74
5624,B2,886.25,0.248,57,166.74
5625,G#3,886.5,0.248,73,166.74
5626,C#2,886.5,0.248,62,166.74
5627,C#4,886.75,0.248,68,166.74
5628,B2,886.75,0.248,57,166.74
5629,B1,887.0,0.248,62,166.74
5630,C#3,887.0,0.248,74,166.74
5631,F3,887.0,0.248,74,166.74
5632,C#4,887.25,0.248,70,166.74
5633,B2,887.25,0.248,58,166.74
5634,G#3,887.5,0.248,76,166.74
5635,C#2,887.5,0.248,64,166.74
5636,C#4,887.75,0.212,71,166.74
5637,B2,887.75,0.212,60,166.74
5638,F#3,888.0,0.25,70,166.74
5639,C#4,888.0,0.25,70,166.74
5640,C#3,888.0,0.25,70,166.74
5641,A3,888.0,0.25,70,166.74
5642,A1,888.0,0.25,62,166.74
5643,A2,888.0,0.25,62,166.74
5644,C#3,888.25,0.292,53,166.74
5645,F#3,888.5,0.292,56,166.74
5646,F#2,888.5,0.25,39,166.74
5647,A3,888.75,0.292,57,166.74
5648,C#4,889.0,0.292,59,166.74
5649,A1,889.0,0.25,39,166.74
5650,F#3,889.25,0.292,54,166.74
5651,A3,889.5,0.292,54,166.74
5652,F#2,889.5,0.25,36,166.74
5653,C#4,889.75,0.292,56,166.74
5654,F#4,890.0,0.292,57,166.74
5655,A1,890.0,0.25,39,166.74
5656,A3,890.25,0.292,53,166.74
5657,C#4,890.5,0.292,56,166.74
5658,F#2,890.5,0.25,35,166.74
5659,F#4,890.75,0.292,57,166.74
5660,A4,891.0,0.292,58,166.74
5661,A1,891.0,0.25,39,166.74
5662,C#4,891.25,0.292,53,166.74
5663,F#4,891.5,0.292,53,166.74
5664,F#2,891.5,0.25,35,166.74
5665,A4,891.75,0.292,54,166.74
5666,C#5,892.0,0.292,57,166.74
5667,A1,892.0,0.25,39,166.74
5668,F#4,892.25,0.292,58,166.74
5669,A4,892.5,0.292,51,166.74
5670,F#2,892.5,0.25,40,166.74
5671,C#5,892.75,0.292,52,166.74
5672,F#5,893.0,0.292,56,166.74
5673,A1,893.0,0.25,40,166.74
5674,A4,893.25,0.292,51,166.74
5675,C#5,893.5,0.292,51,166.74
5676,F#2,893.5,0.25,40,166.74
5677,F#5,893.75,0.292,53,166.74
5678,A5,894.0,0.292,56,166.74
5679,A1,894.0,0.25,40,166.74
5680,C#5,894.25,0.292,51,166.74
5681,F#5,894.5,0.292,54,166.74
5682,F#2,894.5,0.25,36,166.74
5683,A5,894.75,0.25,57,166.74
5684,C#6,895.0,0.25,90,166.74
5685,C#5,895.0,0.25,90,166.74
5686,A5,895.0,0.25,90,166.74
5687,F#5,895.0,0.25,90,166.74
5688,A2,895.0,0.25,75,166.74
5689,A1,895.0,0.25,75,166.74
5690,F#2,895.5,0.25,69,166.74
5691,A5,895.5,0.25,75,166.74
5692,F#5,895.5,0.25,75,166.74
5693,C#6,895.5,0.25,75,166.74
5694,C#5,895.5,0.25,75,166.74
5695,G#1,896.0,0.25,52,166.74
5696,C#3,896.25,0.292,58,166.74
5697,E3,896.5,0.292,60,166.74
5698,E2,896.5,0.25,47,166.74
5699,G#3,896.75,0.292,62,166.74
5700,C#4,897.0,0.292,65,166.74
5701,G#1,897.0,0.25,52,166.74
5702,E3,897.25,0.292,60,166.74
5703,G#3,897.5,0.292,62,166.74
5704,E2,897.5,0.25,48,166.74
5705,C#4,897.75,0.292,63,166.74
5706,E4,898.0,0.292,66,166.74
5707,G#1,898.0,0.25,52,166.74
5708,G#3,898.25,0.292,61,166.74
5709,C#4,898.5,0.292,62,166.74
5710,E2,898.5,0.25,48,166.74
5711,E4,898.75,0.292,63,166.74
5712,G#4,899.0,0.292,67,166.74
5713,G#1,899.0,0.25,52,166.74
5714,C#4,899.25,0.292,61,166.74
5715,E4,899.5,0.292,62,166.74
5716,E2,899.5,0.25,52,166.74
5717,G#4,899.75,0.292,63,166.74
5718,C#5,900.0,0.292,66,166.74
5719,G#1,900.0,0.25,52,166.74
5720,E4,900.25,0.292,63,166.74
5721,G#4,900.5,0.292,63,166.74
5722,E2,900.5,0.25,52,166.74
5723,C#5,900.75,0.292,62,166.74
5724,E5,901.0,0.292,66,166.74
5725,G#1,901.0,0.25,52,166.74
5726,G#4,901.25,0.292,62,166.74
5727,C#5,901.5,0.292,62,166.74
5728,E2,901.5,0.25,48,166.74
5729,E5,901.75,0.292,67,166.74
5730,G#5,902.0,0.292,68,166.74
5731,G#1,902.0,0.25,52,166.74
5732,C#5,902.25,0.292,62,166.74
5733,E5,902.5,0.292,66,166.74
5734,E2,902.5,0.25,48,166.74
5735,G#5,902.75,0.25,68,166.74
5736,C#6,903.0,0.25,100,166.74
5737,E5,903.0,0.25,100,166.74
5738,C#5,903.0,0.25,100,166.74
5739,G#5,903.0,0.25,100,166.74
5740,G#1,903.0,0.25,79,166.74
5741,G#2,903.0,0.25,79,166.74
5742,E2,903.5,0.25,77,166.74
5743,C#5,903.5,0.25,88,166.74
5744,E5,903.5,0.25,88,166.74
5745,G#5,903.5,0.25,88,166.74
5746,C#6,903.5,0.25,88,166.74
5747,G1,904.0,1.5,39,166.74
5748,C#3,904.5,2.0,31,166.74
5749,E3,904.625,1.875,33,166.74
5750,G3,904.75,1.75,35,166.74
5751,B-3,904.875,1.625,39,166.74
5752,C#4,905.0,1.5,45,166.74
5753,G1,905.5,2.0,45,166.74
5754,B-1,905.625,1.875,47,166.74
5755,C#2,905.75,1.75,50,166.74
5756,E2,905.875,1.625,51,166.74
5757,G2,906.0,1.5,53,166.74
5758,C#4,906.5,2.0,53,166.74
5759,E4,906.625,1.875,56,166.74
5760,G4,906.75,1.75,58,166.74
5761,B-4,906.875,1.625,61,166.74
5762,C#5,907.0,1.0,62,166.74
5763,G2,907.5,1.5,51,166.74
5764,B-2,907.625,1.375,56,166.74
5765,C#3,907.75,1.25,58,166.74
5766,E3,907.875,1.125,61,166.74
5767,G3,908.0,0.5,63,166.74
5768,C#5,908.5,3.5,66,166.74
5769,E5,908.625,3.375,68,166.74
5770,G5,908.75,3.25,73,166.74
5771,B-5,908.875,3.125,76,166.74
5772,C#6,909.0,3.0,79,166.74
5773,E4,909.0,3.0,73,166.74
5774,C#4,909.0,3.0,73,166.74
5775,G3,909.0,3.0,73,166.74
5776,B-3,909.0,3.0,73,166.74
5777,F#1,912.0,1.5,47,166.74
5778,A2,912.5,2.0,29,166.74
5779,C3,912.625,1.875,32,166.74
5780,E-3,912.75,1.75,35,166.74
5781,F#3,912.875,1.625,38,166.74
5782,A3,913.0,1.5,41,166.74
5783,F#1,913.5,2.0,41,166.74
5784,A1,913.625,1.875,43,166.74
5785,C2,913.75,1.75,47,166.74
5786,E-2,913.875,1.625,49,166.74
5787,F#2,914.0,1.5,52,166.74
5788,A3,914.5,2.0,56,166.74
5789,C4,914.625,1.875,57,166.74
5790,E-4,914.75,1.75,58,166.74
5791,F#4,914.875,1.625,59,166.74
5792,A4,915.0,1.0,62,166.74
5793,F#2,915.5,1.5,54,166.74
5794,A2,915.625,1.375,56,166.74
5795,C3,915.75,1.25,58,166.74
5796,E-3,915.875,1.125,61,166.74
5797,F#3,916.0,0.5,62,166.74
5798,A4,916.25,3.75,73,166.74
5799,C5,916.5,3.5,77,166.74
5800,E-5,916.75,3.25,79,166.74
5801,A5,917.0,3.0,91,166.74
5802,E-4,917.0,3.0,73,166.74
5803,A3,917.0,3.0,73,166.74
5804,F#3,917.0,3.0,73,166.74
5805,C4,917.0,3.0,73,166.74
5806,C#3,920.0,0.5,41,166.74
5807,G#4,920.25,0.292,31,166.74
5808,E4,920.5,0.292,34,166.74
5809,G#4,920.75,0.292,30,166.74
5810,C#4,921.0,0.248,39,166.74
5811,G#3,921.0,2.0,56,166.74
5812,G#4,921.25,0.248,30,166.74
5813,E4,921.5,0.248,34,166.74
5814,G#4,921.75,0.248,30,166.74
5815,C#4,922.0,0.248,39,166.74
5816,G#4,922.25,0.248,31,166.74
5817,E4,922.5,0.248,34,166.74
5818,G#4,922.75,0.248,30,166.74
5819,C#4,923.0,0.248,39,166.74
5820,E3,923.0,0.75,48,166.74
5821,G#4,923.25,0.248,31,166.74
5822,E4,923.5,0.248,34,166.74
5823,G#4,923.75,0.248,31,166.74
5824,C#3,923.75,0.24,48,166.74
5825,E-4,924.0,0.292,39,166.74
5826,C#3,924.0,1.0,54,166.74
5827,G#4,924.25,0.292,31,166.74
5828,F#4,924.5,0.292,34,166.74
5829,G#4,924.75,0.292,30,166.74
5830,E-4,925.0,0.248,50,166.74
5831,C3,925.0,1.5,47,166.74
5832,G#4,925.25,0.248,43,166.74
5833,F#4,925.5,0.248,47,166.74
5834,G#4,925.75,0.248,44,166.74
5835,E-4,926.0,0.248,58,166.74
5836,G#4,926.25,0.248,46,166.74
5837,F#4,926.5,0.248,54,166.74
5838,C3,926.5,0.5,47,166.74
5839,G#4,926.75,0.248,51,166.74
5840,E-4,927.0,0.248,66,166.74
5841,G#3,927.0,0.75,56,166.74
5842,G#4,927.25,0.248,49,166.74
5843,F#4,927.5,0.248,51,166.74
5844,G#4,927.75,0.248,43,166.74
5845,C3,927.75,0.25,47,166.74
5846,C#4,928.0,0.292,39,166.74
5847,E-3,928.0,1.0,43,166.74
5848,G#4,928.25,0.292,30,166.74
5849,E4,928.5,0.292,34,166.74
5850,G#4,928.75,0.292,31,166.74
5851,C#4,929.0,0.248,50,166.74
5852,C#3,929.0,1.5,47,166.74
5853,G#4,929.25,0.248,40,166.74
5854,E4,929.5,0.248,47,166.74
5855,G#4,929.75,0.248,43,166.74
5856,C#4,930.0,0.248,58,166.74
5857,G#4,930.25,0.248,48,166.74
5858,E4,930.5,0.248,54,166.74
5859,C#3,930.5,0.5,48,166.74
5860,G#4,930.75,0.248,49,166.74
5861,C#4,931.0,0.248,66,166.74
5862,G#3,931.0,0.75,53,166.74
5863,G#4,931.25,0.248,49,166.74
5864,E4,931.5,0.248,51,166.74
5865,G#4,931.75,0.248,42,166.74
5866,C#3,931.75,0.25,47,166.74
5867,C4,932.0,0.292,39,166.74
5868,E3,932.0,1.0,43,166.74
5869,G#4,932.25,0.292,29,166.74
5870,F#4,932.5,0.292,34,166.74
5871,G#4,932.75,0.292,30,166.74
5872,C4,933.0,0.248,50,166.74
5873,E-3,933.0,1.5,47,166.74
5874,G#4,933.25,0.248,40,166.74
5875,F#4,933.5,0.248,47,166.74
5876,G#4,933.75,0.248,43,166.74
5877,C4,934.0,0.248,58,166.74
5878,G#4,934.25,0.248,49,166.74
5879,F#4,934.5,0.248,54,166.74
5880,E-3,934.5,0.5,48,166.74
5881,G#4,934.75,0.248,49,166.74
5882,C4,935.0,0.248,66,166.74
5883,G#3,935.0,0.75,53,166.74
5884,G#4,935.25,0.248,48,166.74
5885,F#4,935.5,0.248,51,166.74
5886,G#4,935.75,0.212,43,166.74
5887,E-3,935.75,0.25,47,166.74
5888,E3,936.0,0.292,40,166.74
5889,E4,936.0,0.5,41,166.74
5890,G#4,936.0,0.5,41,166.74
5891,C#4,936.0,0.5,41,166.74
5892,G#3,936.25,0.292,35,166.74
5893,E3,936.5,0.292,40,166.74
5894,G#3,936.75,0.292,34,166.74
5895,E3,937.0,0.248,47,166.74
5896,G#5,937.0,2.0,57,166.74
5897,G#4,937.0,2.0,57,166.74
5898,G#3,937.25,0.248,34,166.74
5899,E3,937.5,0.248,40,166.74
5900,G#3,937.75,0.248,34,166.74
5901,E3,938.0,0.248,47,166.74
5902,G#3,938.25,0.248,34,166.74
5903,E3,938.5,0.248,39,166.74
5904,G#3,938.75,0.248,34,166.74
5905,E3,939.0,0.248,47,166.74
5906,E4,939.0,0.75,47,166.74
5907,E5,939.0,0.75,47,166.74
5908,G#3,939.25,0.248,35,166.74
5909,E3,939.5,0.248,40,166.74
5910,G#3,939.75,0.248,34,166.74
5911,C#4,939.75,0.24,47,166.74
5912,C#5,939.75,0.24,47,166.74
5913,F#3,940.0,0.248,47,166.74
5914,C#5,940.0,1.0,54,166.74
5915,C#4,940.0,1.0,54,166.74
5916,G#3,940.25,0.248,33,166.74
5917,F#3,940.5,0.248,39,166.74
5918,G#3,940.75,0.248,34,166.74
5919,F#3,941.0,0.248,55,166.74
5920,C5,941.0,1.5,46,166.74
5921,C4,941.0,1.5,46,166.74
5922,G#3,941.25,0.248,45,166.74
5923,F#3,941.5,0.248,57,166.74
5924,G#3,941.75,0.248,53,166.74
5925,F#3,942.0,0.248,67,166.74
5926,G#3,942.25,0.248,52,166.74
5927,F#3,942.5,0.248,62,166.74
5928,C5,942.5,0.5,47,166.74
5929,C4,942.5,0.5,47,166.74
5930,G#3,942.75,0.248,56,166.74
5931,F#3,943.0,0.248,71,166.74
5932,G#5,943.0,0.75,56,166.74
5933,G#4,943.0,0.75,56,166.74
5934,G#3,943.25,0.248,56,166.74
5935,F#3,943.5,0.248,58,166.74
5936,G#3,943.75,0.248,49,166.74
5937,C4,943.75,0.25,47,166.74
5938,C5,943.75,0.25,47,166.74
5939,E3,944.0,0.248,47,166.74
5940,E-4,944.0,1.0,46,166.74
5941,E-5,944.0,1.0,46,166.74
5942,G#3,944.25,0.248,34,166.74
5943,E3,944.5,0.248,40,166.74
5944,G#3,944.75,0.248,34,166.74
5945,E3,945.0,0.248,56,166.74
5946,C#4,945.0,1.5,47,166.74
5947,C#5,945.0,1.5,47,166.74
5948,G#3,945.25,0.248,47,166.74
5949,E3,945.5,0.248,57,166.74
5950,G#3,945.75,0.248,50,166.74
5951,E3,946.0,0.248,68,166.74
5952,G#3,946.25,0.248,52,166.74
5953,E3,946.5,0.248,64,166.74
5954,C#5,946.5,0.5,46,166.74
5955,C#4,946.5,0.5,46,166.74
5956,G#3,946.75,0.248,57,166.74
5957,E3,947.0,0.248,75,166.74
5958,G#5,947.0,0.75,56,166.74
5959,G#4,947.0,0.75,56,166.74
5960,G#3,947.25,0.248,56,166.74
5961,E3,947.5,0.248,61,166.74
5962,G#3,947.75,0.248,49,166.74
5963,C#4,947.75,0.25,46,166.74
5964,C#5,947.75,0.25,46,166.74
5965,C3,948.0,0.248,47,166.74
5966,E5,948.0,1.0,49,166.74
5967,E4,948.0,1.0,49,166.74
5968,G#3,948.25,0.248,37,166.74
5969,C3,948.5,0.248,41,166.74
5970,G#3,948.75,0.248,35,166.74
5971,C3,949.0,0.248,59,166.74
5972,E-5,949.0,1.5,48,166.74
5973,E-4,949.0,1.5,48,166.74
5974,G#3,949.25,0.248,47,166.74
5975,C3,949.5,0.248,56,166.74
5976,G#3,949.75,0.248,49,166.74
5977,C3,950.0,0.248,69,166.74
5978,G#3,950.25,0.248,52,166.74
5979,C3,950.5,0.248,62,166.74
5980,E-4,950.5,0.5,47,166.74
5981,E-5,950.5,0.5,47,166.74
5982,G#3,950.75,0.248,56,166.74
5983,C3,951.0,0.248,77,166.74
5984,G#5,951.0,0.75,54,166.74
5985,G#4,951.0,0.75,54,166.74
5986,G#3,951.25,0.248,54,166.74
5987,C3,951.5,0.248,58,166.74
5988,G#3,951.75,0.248,47,166.74
5989,E-5,951.75,0.25,47,166.74
5990,E-4,951.75,0.25,47,166.74
5991,C#3,952.0,0.292,47,166.74
5992,F#4,952.0,0.5,50,166.74
5993,F#5,952.0,0.5,50,166.74
5994,G#3,952.25,0.292,43,166.74
5995,C#3,952.5,0.292,47,166.74
5996,E4,952.5,0.5,48,166.74
5997,E5,952.5,0.5,48,166.74
5998,G#3,952.75,0.292,43,166.74
5999,C#3,953.0,0.292,49,166.74
6000,C#6,953.0,0.25,54,166.74
6001,C#5,953.0,0.25,54,166.74
6002,G#3,953.25,0.292,46,166.74
6003,C#3,953.5,0.292,51,166.74
6004,E4,953.5,0.25,51,166.74
6005,E5,953.5,0.25,51,166.74
6006,G#3,953.75,0.292,48,166.74
6007,B2,954.0,0.292,53,166.74
6008,F#4,954.0,0.5,57,166.74
6009,F#5,954.0,0.5,57,166.74
6010,C#3,954.25,0.292,51,166.74
6011,B2,954.5,0.292,56,166.74
6012,F5,954.5,0.5,56,166.74
6013,F4,954.5,0.5,56,166.74
6014,C#3,954.75,0.292,51,166.74
6015,B2,955.0,0.292,57,166.74
6016,C#5,955.0,0.25,60,166.74
6017,C#6,955.0,0.25,60,166.74
6018,C#3,955.25,0.292,53,166.74
6019,B2,955.5,0.292,59,166.74
6020,F4,955.5,0.25,60,166.74
6021,F5,955.5,0.25,60,166.74
6022,C#3,955.75,0.292,53,166.74
6023,A2,956.0,0.292,62,166.74
6024,G#5,956.0,0.5,66,166.74
6025,G#4,956.0,0.5,66,166.74
6026,C#3,956.25,0.292,56,166.74
6027,A2,956.5,0.292,62,166.74
6028,F#4,956.5,0.5,63,166.74
6029,F#5,956.5,0.5,63,166.74
6030,C#3,956.75,0.292,58,166.74
6031,A2,957.0,0.292,66,166.74
6032,C#5,957.0,0.25,68,166.74
6033,C#6,957.0,0.25,68,166.74
6034,C#3,957.25,0.292,61,166.74
6035,A2,957.5,0.292,68,166.74
6036,F#4,957.5,0.25,68,166.74
6037,F#5,957.5,0.25,68,166.74
6038,C#3,957.75,0.292,62,166.74
6039,F2,958.0,0.292,69,166.74
6040,A5,958.0,0.5,73,166.74
6041,A4,958.0,0.5,73,166.74
6042,C#3,958.25,0.292,66,166.74
6043,F2,958.5,0.292,72,166.74
6044,G#5,958.5,0.5,72,166.74
6045,G#4,958.5,0.5,72,166.74
6046,C#3,958.75,0.292,68,166.74
6047,F2,959.0,0.292,73,166.74
6048,C#5,959.0,0.25,78,166.74
6049,C#6,959.0,0.25,78,166.74
6050,C#3,959.25,0.292,68,166.74
6051,F2,959.5,0.292,76,166.74
6052,G#4,959.5,0.25,76,166.74
6053,G#5,959.5,0.25,76,166.74
6054,C#3,959.75,0.292,70,166.74
6055,A5,960.0,0.333,84,166.74
6056,C#2,960.0,8.0,71,166.74
6057,F#2,960.0,8.0,71,166.74
6058,F#1,960.0,8.0,71,166.74
6059,F#5,960.333,0.333,67,166.74
6060,C#5,960.667,0.333,66,166.74
6061,A4,961.0,0.333,73,166.74
6062,F#4,961.333,0.333,62,166.74
6063,C#4,961.667,0.333,63,166.74
6064,A4,962.0,0.333,71,166.74
6065,F#4,962.333,0.333,63,166.74
6066,C#4,962.667,0.333,63,166.74
6067,A3,963.0,0.333,71,166.74
6068,F#3,963.333,0.333,61,166.74
6069,C#3,963.667,0.333,62,166.74
6070,A3,964.0,0.25,78,166.74
6071,F#3,964.25,0.25,61,166.74
6072,C#3,964.5,0.25,67,166.74
6073,A2,964.75,0.25,62,166.74
6074,C#3,965.0,0.25,71,166.74
6075,E3,965.25,0.25,62,166.74
6076,G#3,965.5,0.25,67,166.74
6077,C#4,965.75,0.25,62,166.74
6078,F#4,966.0,0.25,71,166.74
6079,A4,966.25,0.25,61,166.74
6080,C#5,966.5,0.25,67,166.74
6081,F#5,966.75,0.25,60,166.74
6082,A5,967.0,0.25,72,166.74
6083,F#5,967.25,0.25,63,166.74
6084,C#5,967.5,0.25,68,166.74
6085,A4,967.75,0.25,65,166.74
6086,A5,968.0,0.333,84,166.74
6087,D2,968.0,8.0,56,166.74
6088,F#2,968.0,8.0,56,166.74
6089,F#1,968.0,8.0,56,166.74
6090,F#5,968.333,0.333,65,166.74
6091,D5,968.667,0.333,66,166.74
6092,A4,969.0,0.333,71,166.74
6093,F#4,969.333,0.333,62,166.74
6094,D4,969.667,0.333,65,166.74
6095,A4,970.0,0.333,70,166.74
6096,F#4,970.333,0.333,62,166.74
6097,D4,970.667,0.333,63,166.74
6098,A3,971.0,0.333,72,166.74
6099,F#3,971.333,0.333,62,166.74
6100,D3,971.667,0.333,62,166.74
6101,A3,972.0,0.25,77,166.74
6102,F#3,972.25,0.25,65,166.74
6103,D3,972.5,0.25,70,166.74
6104,A2,972.75,0.25,66,166.74
6105,D3,973.0,0.25,73,166.74
6106,F#3,973.25,0.25,62,166.74
6107,A3,973.5,0.25,68,166.74
6108,D4,973.75,0.25,63,166.74
6109,F#4,974.0,0.25,72,166.74
6110,A4,974.25,0.25,62,166.74
6111,D5,974.5,0.25,68,166.74
6112,F#5,974.75,0.25,65,166.74
6113,A5,975.0,0.25,78,166.74
6114,F#5,975.25,0.25,66,166.74
6115,D5,975.5,0.25,70,166.74
6116,A4,975.75,0.25,67,166.74
6117,C#6,976.0,0.333,85,166.74
6118,C#2,976.0,8.0,56,166.74
6119,G1,976.0,8.0,56,166.74
6120,G2,976.0,8.0,56,166.74
6121,B-5,976.333,0.333,68,166.74
6122,G5,976.667,0.333,67,166.74
6123,E5,977.0,0.333,78,166.74
6124,C#5,977.333,0.333,65,166.74
6125,B-4,977.667,0.333,67,166.74
6126,E5,978.0,0.333,78,166.74
6127,C#5,978.333,0.333,68,166.74
6128,B-4,978.667,0.333,68,166.74
6129,G4,979.0,0.25,74,166.74
6130,E4,979.25,0.25,62,166.74
6131,C#4,979.5,0.25,67,166.74
6132,B-3,979.75,0.25,62,166.74
6133,E4,980.0,0.25,72,166.74
6134,C#4,980.25,0.25,63,166.74
6135,B-3,980.5,0.25,68,166.74
6136,G3,980.75,0.25,63,166.74
6137,E3,981.0,0.25,73,166.74
6138,C#3,981.25,0.25,65,166.74
6139,E3,981.5,0.25,68,166.74
6140,G3,981.75,0.25,63,166.74
6141,B-3,982.0,0.167,79,166.74
6142,C#4,982.167,0.167,64,166.74
6143,E4,982.333,0.167,69,166.74
6144,G4,982.5,0.167,66,166.74
6145,B-4,982.667,0.167,70,166.74
6146,C#5,982.833,0.167,65,166.74
6147,E5,983.0,0.167,71,166.74
6148,G5,983.167,0.167,67,166.74
6149,B-5,983.333,0.167,72,166.74
6150,C#6,983.5,0.167,67,166.74
6151,B-5,983.667,0.167,73,166.74
6152,E5,983.833,0.167,68,166.74
6153,E6,984.0,0.333,87,166.74
6154,C#2,984.0,8.0,55,166.74
6155,G#2,984.0,8.0,55,166.74
6156,G#1,984.0,8.0,55,166.74
6157,C#6,984.333,0.333,67,166.74
6158,G#5,984.667,0.333,67,166.74
6159,E5,985.0,0.333,78,166.74
6160,C#5,985.333,0.333,66,166.74
6161,G#4,985.667,0.333,67,166.74
6162,E5,986.0,0.333,78,166.74
6163,C#5,986.333,0.333,66,166.74
6164,G#4,986.667,0.333,66,166.74
6165,E4,987.0,0.25,78,166.74
6166,C#5,987.25,0.25,67,166.74
6167,G#4,987.5,0.25,70,166.74
6168,E4,987.75,0.25,68,166.74
6169,C#4,988.0,0.25,79,166.74
6170,G#4,988.25,0.25,65,166.74
6171,E4,988.5,0.25,68,166.74
6172,C#4,988.75,0.25,65,166.74
6173,G#3,989.0,0.25,78,166.74
6174,E4,989.25,0.25,63,166.74
6175,C#4,989.5,0.25,67,166.74
6176,G#3,989.75,0.25,62,166.74
6177,E3,990.0,0.25,79,166.74
6178,C#4,990.25,0.25,65,166.74
6179,G#3,990.5,0.25,68,166.74
6180,E3,990.75,0.25,65,166.74
6181,C#3,991.0,0.25,78,166.74
6182,G#3,991.25,0.25,63,166.74
6183,E3,991.5,0.25,68,166.74
6184,C#3,991.75,0.25,62,166.74
6185,G#2,992.0,0.25,47,166.74
6186,A2,992.25,0.25,47,166.74
6187,B-2,992.5,0.25,48,166.74
6188,B2,992.75,0.25,49,166.74
6189,C3,993.0,0.25,51,166.74
6190,C#3,993.25,0.25,51,166.74
6191,D3,993.5,0.25,51,166.74
6192,E-3,993.75,0.25,52,166.74
6193,E3,994.0,0.25,54,166.74
6194,F3,994.25,0.25,56,166.74
6195,F#3,994.5,0.25,56,166.74
6196,G3,994.75,0.25,57,166.74
6197,G#3,995.0,0.25,58,166.74
6198,A3,995.25,0.25,59,166.74
6199,B-3,995.5,0.25,60,166.74
6200,B3,995.75,0.25,61,166.74
6201,C4,996.0,0.25,62,166.74
6202,C#4,996.25,0.25,62,166.74
6203,D4,996.5,0.25,63,166.74
6204,E-4,996.75,0.25,65,166.74
6205,E4,997.0,0.2,67,166.74
6206,F4,997.2,0.2,68,166.74
6207,F#4,997.4,0.2,68,166.74
6208,G4,997.6,0.2,68,166.74
6209,G#4,997.8,0.2,69,166.74
6210,A4,998.0,0.2,70,166.74
6211,B-4,998.2,0.2,71,166.74
6212,B4,998.4,0.2,72,166.74
6213,C5,998.6,0.2,73,166.74
6214,C#5,998.8,0.2,73,166.74
6215,D5,999.0,0.167,74,166.74
6216,E-5,999.167,0.167,74,166.74
6217,E5,999.333,0.167,75,166.74
6218,F5,999.5,0.125,76,166.74
6219,F#5,999.625,0.125,77,166.74
6220,G5,999.75,0.125,77,166.74
6221,G#5,999.875,0.125,77,166.74
6222,A5,1000.0,0.188,81,166.74
6223,C4,1000.0,4.0,62,166.74
6224,F#4,1000.0,4.0,62,166.74
6225,G#3,1000.0,4.0,62,166.74
6226,B5,1000.188,0.188,72,166.74
6227,A5,1000.375,0.167,77,166.74
6228,B5,1000.542,0.167,71,166.74
6229,A5,1000.708,0.167,79,166.74
6230,B5,1000.875,0.167,71,166.74
6231,A5,1001.042,0.167,81,166.74
6232,B5,1001.208,0.167,74,166.74
6233,A5,1001.375,0.167,81,166.74
6234,B5,1001.542,0.167,73,166.74
6235,A5,1001.708,0.167,81,166.74
6236,B5,1001.875,0.167,79,166.74
6237,A5,1002.042,0.156,79,166.74
6238,B5,1002.198,0.156,76,166.74
6239,A5,1002.354,0.156,79,166.74
6240,B5,1002.51,0.156,76,166.74
6241,A5,1002.667,0.146,78,166.74
6242,B5,1002.812,0.156,74,166.74
6243,A5,1002.969,0.156,77,166.74
6244,B5,1003.125,0.167,70,166.74
6245,A5,1003.292,0.167,74,166.74
6246,B5,1003.458,0.167,68,166.74
6247,A5,1003.625,0.188,74,166.74
6248,B5,1003.812,0.188,68,166.74
6249,G#5,1004.0,0.333,75,166.74
6250,F#5,1004.333,0.333,62,166.74
6251,E5,1004.667,0.333,62,166.74
6252,E-5,1005.0,0.333,62,166.74
6253,F#5,1005.333,0.333,65,166.74
6254,C#5,1005.667,0.333,62,166.74
6255,C5,1006.0,0.333,62,166.74
6256,E-5,1006.333,0.333,65,166.74
6257,A4,1006.667,0.333,62,166.74
6258,G#4,1007.0,0.333,62,166.74
6259,F#4,1007.333,0.333,62,166.74
6260,A4,1007.667,0.333,65,166.74
6261,E4,1008.0,0.333,62,166.74
6262,E-4,1008.333,0.333,62,166.74
6263,F#4,1008.667,0.333,66,166.74
6264,C#4,1009.0,0.333,62,166.74
6265,C4,1009.333,0.333,62,166.74
6266,E-4,1009.667,0.333,62,166.74
6267,A3,1010.0,0.333,62,166.74
6268,G#3,1010.333,0.333,62,166.74
6269,F#3,1010.667,0.333,62,166.74
6270,A3,1011.0,0.333,63,166.74
6271,E3,1011.333,0.333,62,166.74
6272,E-3,1011.667,0.333,62,166.74
6273,F#3,1012.0,0.333,65,166.74
6274,C#3,1012.333,0.333,62,166.74
6275,C3,1012.667,0.333,62,166.74
6276,E-3,1013.0,0.25,61,166.74
6277,A2,1013.333,0.25,58,166.74
6278,G#2,1013.667,0.25,52,166.74
6279,G1,1014.0,4.0,36,166.74
6280,G2,1014.0,4.0,36,166.74
6281,G#1,1018.0,4.0,31,166.74
6282,G#2,1018.0,4.0,31,166.74
6283,C#2,1022.0,0.25,37,166.74
6284,C#3,1022.0,0.25,37,166.74
6285,C#3,1022.25,0.25,31,166.74
6286,G#2,1022.5,0.25,35,166.74
6287,C#3,1022.75,0.25,31,166.74
6288,C#2,1023.0,0.25,37,166.74
6289,C#3,1023.25,0.248,31,166.74
6290,G#2,1023.5,0.248,35,166.74
6291,C#3,1023.75,0.248,30,166.74
6292,C#2,1024.0,0.248,37,166.74
6293,C#3,1024.25,0.248,32,166.74
6294,G#2,1024.5,0.248,35,166.74
6295,C#3,1024.75,0.248,32,166.74
6296,E4,1025.0,0.75,41,166.74
6297,C#2,1025.0,0.248,37,166.74
6298,C#3,1025.25,0.248,32,166.74
6299,G#2,1025.5,0.248,35,166.74
6300,C#4,1025.75,0.25,41,166.74
6301,C#3,1025.75,0.248,30,166.74
6302,C4,1026.0,1.0,49,166.74
6303,C#2,1026.0,0.248,37,166.74
6304,E-3,1026.25,0.248,31,166.74
6305,G#2,1026.5,0.248,35,166.74
6306,E-3,1026.75,0.248,31,166.74
6307,C#2,1027.0,0.248,37,166.74
6308,C4,1027.0,1.0,40,166.74
6309,G#4,1027.0,1.0,40,166.74
6310,F#3,1027.0,1.0,40,166.74
6311,E-3,1027.25,0.248,30,166.74
6312,G#2,1027.5,0.248,35,166.74
6313,E-3,1027.75,0.248,31,166.74
6314,C#2,1028.0,0.248,37,166.74
6315,C4,1028.0,1.0,39,166.74
6316,F#3,1028.0,1.0,39,166.74
6317,G#4,1028.0,1.0,39,166.74
6318,E-3,1028.25,0.248,32,166.74
6319,G#2,1028.5,0.248,35,166.74
6320,E-3,1028.75,0.248,35,166.74
6321,C#2,1029.0,0.248,37,166.74
6322,F#3,1029.0,0.75,39,166.74
6323,G#4,1029.0,0.75,39,166.74
6324,C4,1029.0,0.75,39,166.74
6325,E-3,1029.25,0.248,30,166.74
6326,G#2,1029.5,0.248,35,166.74
6327,E3,1029.75,0.125,33,166.74
6328,E-3,1029.75,0.248,31,166.74
6329,C#4,1029.875,0.125,39,166.74
6330,G#4,1030.0,3.0,49,166.74
6331,C#2,1030.0,0.248,37,166.74
6332,C#3,1030.25,0.248,30,166.74
6333,G#2,1030.5,0.248,35,166.74
6334,C#3,1030.75,0.248,31,166.74
6335,C#2,1031.0,0.248,37,166.74
6336,C#3,1031.25,0.248,32,166.74
6337,G#2,1031.5,0.248,35,166.74
6338,C#3,1031.75,0.248,30,166.74
6339,C#2,1032.0,0.248,37,166.74
6340,C#3,1032.25,0.248,31,166.74
6341,G#2,1032.5,0.248,35,166.74
6342,C#3,1032.75,0.248,31,166.74
6343,E5,1033.0,0.75,47,166.74
6344,C#2,1033.0,0.248,37,166.74
6345,C#3,1033.25,0.248,31,166.74
6346,G#2,1033.5,0.248,35,166.74
6347,C#5,1033.75,0.25,47,166.74
6348,C#3,1033.75,0.248,30,166.74
6349,C5,1034.0,1.0,56,166.74
6350,C#2,1034.0,0.248,37,166.74
6351,E-3,1034.25,0.248,31,166.74
6352,G#2,1034.5,0.248,35,166.74
6353,E-3,1034.75,0.248,31,166.74
6354,C#2,1035.0,0.248,37,166.74
6355,F#4,1035.0,1.0,44,166.74
6356,C5,1035.0,1.0,44,166.74
6357,G#5,1035.0,1.0,44,166.74
6358,E-3,1035.25,0.248,33,166.74
6359,G#2,1035.5,0.248,35,166.74
6360,E-3,1035.75,0.248,30,166.74
6361,C#2,1036.0,0.248,37,166.74
6362,G#5,1036.0,1.0,44,166.74
6363,C5,1036.0,1.0,44,166.74
6364,F#4,1036.0,1.0,44,166.74
6365,E-3,1036.25,0.248,31,166.74
6366,G#2,1036.5,0.248,35,166.74
6367,E-3,1036.75,0.248,31,166.74
6368,C#2,1037.0,0.248,37,166.74
6369,C5,1037.0,0.75,44,166.74
6370,F#4,1037.0,0.75,44,166.74
6371,G#5,1037.0,0.75,44,166.74
6372,E-3,1037.25,0.248,32,166.74
6373,G#2,1037.5,0.248,35,166.74
6374,E4,1037.75,0.125,41,166.74
6375,E-3,1037.75,0.248,32,166.74
6376,C#5,1037.875,0.125,46,166.74
6377,G#5,1038.0,1.75,58,166.74
6378,C#2,1038.0,0.248,37,166.74
6379,C#3,1038.25,0.248,33,166.74
6380,G#2,1038.5,0.248,38,166.74
6381,C#3,1038.75,0.248,34,166.74
6382,C#2,1039.0,0.248,39,166.74
6383,C#3,1039.25,0.248,34,166.74
6384,G#2,1039.5,0.248,40,166.74
6385,F#4,1039.75,0.125,49,166.74
6386,C#3,1039.75,0.248,35,166.74
6387,C5,1039.875,0.125,53,166.74
6388,G#5,1040.0,1.75,63,166.74
6389,C#2,1040.0,0.248,41,166.74
6390,E-3,1040.25,0.248,39,166.74
6391,G#2,1040.5,0.248,43,166.74
6392,E-3,1040.75,0.248,39,166.74
6393,C#2,1041.0,0.248,45,166.74
6394,E-3,1041.25,0.248,40,166.74
6395,G#2,1041.5,0.248,47,166.74
6396,E4,1041.75,0.125,56,166.74
6397,E-3,1041.75,0.248,41,166.74
6398,C#5,1041.875,0.125,62,166.74
6399,G#5,1042.0,1.75,70,166.74
6400,C#2,1042.0,0.248,47,166.74
6401,C#3,1042.25,0.248,42,166.74
6402,G#2,1042.5,0.248,50,166.74
6403,C#3,1042.75,0.248,44,166.74
6404,C#2,1043.0,0.248,51,166.74
6405,C#3,1043.25,0.248,47,166.74
6406,G#2,1043.5,0.248,51,166.74
6407,F#4,1043.75,0.125,60,166.74
6408,C#3,1043.75,0.248,46,166.74
6409,C5,1043.875,0.125,68,166.74
6410,G#5,1044.0,1.75,80,166.74
6411,C#2,1044.0,0.248,52,166.74
6412,E-3,1044.25,0.248,50,166.74
6413,G#2,1044.5,0.248,54,166.74
6414,E-3,1044.75,0.248,50,166.74
6415,C#2,1045.0,0.248,56,166.74
6416,E-3,1045.25,0.248,51,166.74
6417,G#2,1045.5,0.248,57,166.74
6418,E4,1045.75,0.125,68,166.74
6419,E-3,1045.75,0.248,51,166.74
6420,C#5,1045.875,0.125,68,166.74
6421,G#5,1046.0,0.292,74,166.74
6422,G#2,1046.0,0.292,64,166.74
6423,C#3,1046.0,0.292,64,166.74
6424,C#2,1046.0,0.292,64,166.74
6425,E4,1046.25,0.292,68,166.74
6426,E3,1046.25,0.292,57,166.74
6427,G#4,1046.5,0.292,71,166.74
6428,G#3,1046.5,0.292,60,166.74
6429,C#5,1046.75,0.292,68,166.74
6430,C#4,1046.75,0.292,56,166.74
6431,E5,1047.0,0.292,74,166.74
6432,E4,1047.0,0.292,62,166.74
6433,G#4,1047.25,0.292,69,166.74
6434,G#3,1047.25,0.292,57,166.74
6435,C#5,1047.5,0.292,72,166.74
6436,C#4,1047.5,0.292,58,166.74
6437,E5,1047.75,0.292,68,166.74
6438,E4,1047.75,0.292,57,166.74
6439,G#5,1048.0,0.292,74,166.74
6440,G#4,1048.0,0.292,62,166.74
6441,C#5,1048.25,0.292,68,166.74
6442,C#4,1048.25,0.292,58,166.74
6443,E5,1048.5,0.292,71,166.74
6444,E4,1048.5,0.292,58,166.74
6445,G#5,1048.75,0.292,69,166.74
6446,G#4,1048.75,0.292,57,166.74
6447,C#6,1049.0,0.292,75,166.74
6448,C#5,1049.0,0.292,63,166.74
6449,E5,1049.25,0.292,72,166.74
6450,E4,1049.25,0.292,60,166.74
6451,G#5,1049.5,0.292,74,166.74
6452,G#4,1049.5,0.292,62,166.74
6453,C#6,1049.75,0.292,72,166.74
6454,C#5,1049.75,0.292,60,166.74
6455,E6,1050.0,0.292,80,166.74
6456,E5,1050.0,0.292,68,166.74
6457,C#6,1050.25,0.292,80,166.74
6458,C#5,1050.25,0.292,64,166.74
6459,G#5,1050.5,0.292,79,166.74
6460,G#4,1050.5,0.292,63,166.74
6461,E5,1050.75,0.292,74,166.74
6462,E4,1050.75,0.292,61,166.74
6463,C#6,1051.0,0.292,81,166.74
6464,C#5,1051.0,0.292,67,166.74
6465,G#5,1051.25,0.292,80,166.74
6466,G#4,1051.25,0.292,64,166.74
6467,E5,1051.5,0.292,79,166.74
6468,E4,1051.5,0.292,62,166.74
6469,C#5,1051.75,0.292,73,166.74
6470,C#4,1051.75,0.292,62,166.74
6471,G#5,1052.0,0.292,80,166.74
6472,G#4,1052.0,0.292,67,166.74
6473,E5,1052.25,0.292,79,166.74
6474,E4,1052.25,0.292,64,166.74
6475,C#5,1052.5,0.292,78,166.74
6476,C#4,1052.5,0.292,62,166.74
6477,G#4,1052.75,0.292,74,166.74
6478,G#3,1052.75,0.292,62,166.74
6479,E5,1053.0,0.292,80,166.74
6480,E4,1053.0,0.292,67,166.74
6481,C#5,1053.25,0.292,80,166.74
6482,C#4,1053.25,0.292,64,166.74
6483,G#4,1053.5,0.292,78,166.74
6484,G#3,1053.5,0.292,62,166.74
6485,E4,1053.75,0.292,73,166.74
6486,E3,1053.75,0.292,62,166.74
6487,C#5,1054.0,0.292,78,166.74
6488,C#4,1054.0,0.292,63,166.74
6489,G#4,1054.25,0.292,75,166.74
6490,G#3,1054.25,0.292,62,166.74
6491,E4,1054.5,0.292,74,166.74
6492,E3,1054.5,0.292,62,166.74
6493,C#4,1054.75,0.292,69,166.74
6494,C#3,1054.75,0.292,60,166.74
6495,G#4,1055.0,0.292,78,166.74
6496,G#3,1055.0,0.292,64,166.74
6497,E4,1055.25,0.292,75,166.74
6498,E3,1055.25,0.292,63,166.74
6499,C#4,1055.5,0.292,74,166.74
6500,C#3,1055.5,0.292,62,166.74
6501,G#3,1055.75,0.292,71,166.74
6502,G#2,1055.75,0.292,60,166.74
6503,E4,1056.0,0.292,78,166.74
6504,E3,1056.0,0.292,66,166.74
6505,C#4,1056.25,0.292,75,166.74
6506,C#3,1056.25,0.292,66,166.74
6507,G#3,1056.5,0.292,74,166.74
6508,G#2,1056.5,0.292,63,166.74
6509,E3,1056.75,0.292,71,166.74
6510,E2,1056.75,0.292,61,166.74
6511,C#4,1057.0,0.292,78,166.74
6512,C#3,1057.0,0.292,66,166.74
6513,G#3,1057.25,0.292,75,166.74
6514,G#2,1057.25,0.292,64,166.74
6515,E3,1057.5,0.292,74,166.74
6516,E2,1057.5,0.292,63,166.74
6517,G#3,1057.75,0.292,71,166.74
6518,G#2,1057.75,0.292,62,166.74
6519,C#3,1058.0,1.0,74,166.74
6520,C#2,1058.0,1.0,62,166.74
6521,C#5,1060.0,0.75,90,166.74
6522,G#5,1060.0,0.75,90,166.74
6523,E5,1060.0,0.75,90,166.74
6524,C#6,1060.0,0.75,90,166.74
6525,C#2,1060.0,0.75,73,166.74
6526,E2,1060.0,0.75,73,166.74
6527,G#2,1060.0,0.75,73,166.74
6528,C#3,1060.0,0.75,73,166.74
6529,C#4,1062.0,0.75,90,166.74
6530,E4,1062.0,0.75,90,166.74
6531,G#4,1062.0,0.75,90,166.74
6532,C#5,1062.0,0.75,90,166.74
6533,G#2,1062.0,0.75,73,166.74
6534,C#2,1062.0,0.75,73,166.74
6535,E2,1062.0,0.75,73,166.74
6536,C#3,1062.0,0.75,73,166.74
,note_name,start_time,duration,velocity,tempo
0,E-3,0.0,2.75,84,40.0
1,G3,0.0,2.75,84,40.0
2,C4,0.0,2.75,84,40.0
3,C2,0.0,2.75,73,40.0
4,E-2,0.0,2.75,73,40.0
5,G2,0.0,2.75,73,40.0
6,C3,0.0,2.75,73,40.0
7,E-3,2.75,0.25,36,40.0
8,G3,2.75,0.25,44,40.0
9,C4,2.75,0.25,44,40.0
10,D3,3.0,0.75,41,40.0
11,G3,3.0,0.75,45,40.0
12,B3,3.0,0.75,45,40.0
13,D4,3.0,0.75,45,40.0
14,C3,3.75,0.225,36,40.0
15,G3,3.75,0.225,44,40.0
16,C4,3.75,0.225,44,40.0
17,E-4,3.75,0.225,44,40.0
18,F#3,4.0,2.0,39,40.0
19,A3,4.0,2.0,47,40.0
20,C4,4.0,2.0,47,40.0
21,E-4,4.0,2.0,47,40.0
22,G3,6.0,1.0,25,40.0
23,B3,6.0,1.0,32,40.0
24,D4,6.0,1.0,32,40.0
25,G#2,7.75,0.25,89,40.0
26,G#3,8.0,2.75,93,40.0
27,B3,8.0,2.75,95,40.0
28,D4,8.0,2.75,95,40.0
29,F4,8.0,2.75,95,40.0
30,G#3,10.75,0.225,38,40.0
31,D4,10.75,0.225,45,40.0
32,B3,10.75,0.225,45,40.0
33,F4,10.75,0.225,45,40.0
34,G3,11.0,0.75,43,40.0
35,B3,11.0,0.75,47,40.0
36,D4,11.0,0.75,47,40.0
37,G4,11.0,0.75,47,40.0
38,F3,11.75,0.225,38,40.0
39,D4,11.75,0.225,46,40.0
40,G#4,11.75,0.225,46,40.0
41,B3,11.75,0.225,46,40.0
42,E-3,12.0,3.0,37,40.0
43,G#4,12.0,2.0,50,40.0
44,B3,12.0,2.0,50,40.0
45,D4,12.0,2.0,50,40.0
46,C4,14.0,1.0,33,40.0
47,G4,14.0,1.0,33,40.0
48,E-4,14.0,1.0,33,40.0
49,E-3,15.75,0.25,86,40.0
50,E-4,16.0,2.75,91,40.0
51,F#4,16.0,2.75,93,40.0
52,A4,16.0,2.75,93,40.0
53,C5,16.0,2.75,93,40.0
54,E-4,18.75,0.225,45,40.0
55,A4,18.75,0.225,52,40.0
56,F#4,18.75,0.225,52,40.0
57,C5,18.75,0.225,52,40.0
58,D4,19.0,0.75,52,40.0
59,F#4,19.0,0.75,57,40.0
60,A4,19.0,0.75,57,40.0
61,D5,19.0,0.75,57,40.0
62,C4,19.75,0.225,52,40.0
63,A4,19.75,0.225,64,40.0
64,E-5,19.75,0.225,64,40.0
65,F#4,19.75,0.225,64,40.0
66,C4,20.0,2.0,65,40.0
67,E-5,20.0,2.0,66,40.0
68,F#4,20.0,2.0,66,40.0
69,A4,20.0,2.0,66,40.0
70,B3,22.0,0.25,35,40.0
71,D4,22.0,0.25,37,40.0
72,D5,22.0,0.25,37,40.0
73,G4,22.0,0.25,37,40.0
74,E-4,22.75,0.225,47,40.0
75,A4,22.75,0.225,54,40.0
76,F#4,22.75,0.225,54,40.0
77,C5,22.75,0.225,54,40.0
78,D4,23.0,0.75,54,40.0
79,F#4,23.0,0.75,60,40.0
80,A4,23.0,0.75,60,40.0
81,D5,23.0,0.75,60,40.0
82,C4,23.75,0.225,54,40.0
83,A4,23.75,0.225,66,40.0
84,E-5,23.75,0.225,66,40.0
85,F#4,23.75,0.225,66,40.0
86,C4,24.0,2.0,71,40.0
87,E-5,24.0,2.0,69,40.0
88,F#4,24.0,2.0,69,40.0
89,A4,24.0,2.0,69,40.0
90,G4,26.0,1.0,51,40.0
91,D5,26.0,1.0,51,40.0
92,B3,26.0,1.0,47,40.0
93,D4,26.0,1.0,47,40.0
94,G4,27.0,1.0,56,40.0
95,C5,27.0,1.0,56,40.0
96,E5,27.0,1.0,56,40.0
97,E4,27.0,1.0,51,40.0
98,B-3,27.0,1.0,51,40.0
99,C4,27.0,1.0,51,40.0
100,G#4,28.0,0.5,62,40.0
101,C5,28.0,0.5,62,40.0
102,F5,28.0,0.5,62,40.0
103,F4,28.0,0.5,57,40.0
104,C4,28.0,0.5,57,40.0
105,G#3,28.0,0.5,57,40.0
106,G#5,29.0,1.25,84,40.0
107,B-1,30.0,2.0,84,40.0
108,B-2,30.0,2.0,84,40.0
109,G5,30.25,0.125,61,40.0
110,G#5,30.375,0.125,63,40.0
111,B-5,30.5,0.125,65,40.0
112,G#5,30.625,0.125,67,40.0
113,G5,30.75,0.125,67,40.0
114,F5,30.875,0.125,67,40.0
115,E-5,31.0,0.125,67,40.0
116,D5,31.125,0.125,67,40.0
117,C5,31.25,0.125,67,40.0
118,B-4,31.375,0.125,67,40.0
119,G#4,31.5,1.0,62,40.0
120,G4,31.5,1.0,62,40.0
121,F4,31.613,1.0,60,40.0
122,E-4,31.613,1.0,60,40.0
123,D4,31.725,1.0,58,40.0
124,F4,31.725,1.0,58,40.0
125,G#4,31.837,1.0,54,40.0
126,F4,31.837,1.0,54,40.0
127,D4,31.95,0.05,53,40.0
128,E-4,32.0,0.5,50,40.0
129,E-2,32.0,0.475,48,40.0
130,E-3,32.0,0.475,48,40.0
131,E-3,32.5,0.475,27,40.0
132,G3,32.5,0.475,27,40.0
133,B-3,32.5,0.475,27,40.0
134,E-4,33.0,1.75,50,40.0
135,E-5,33.0,1.75,50,40.0
136,E-3,33.0,0.475,27,40.0
137,G3,33.0,0.475,27,40.0
138,B-3,33.0,0.475,27,40.0
139,E-3,33.5,0.475,27,40.0
140,G3,33.5,0.475,27,40.0
141,B-3,33.5,0.475,27,40.0
142,E-3,34.0,0.475,27,40.0
143,G3,34.0,0.475,27,40.0
144,B-3,34.0,0.475,27,40.0
145,E-3,34.5,0.475,27,40.0
146,G3,34.5,0.475,27,40.0
147,B-3,34.5,0.475,27,40.0
148,E-4,34.75,0.25,50,40.0
149,E-5,34.75,0.25,50,40.0
150,F4,35.0,0.75,52,40.0
151,F5,35.0,0.75,52,40.0
152,E-3,35.0,0.475,27,40.0
153,G3,35.0,0.475,27,40.0
154,B-3,35.0,0.475,27,40.0
155,E-3,35.5,0.475,27,40.0
156,G3,35.5,0.475,27,40.0
157,B-3,35.5,0.475,27,40.0
158,G4,35.75,0.237,54,40.0
159,G5,35.75,0.237,54,40.0
160,G4,36.0,1.0,54,40.0
161,G5,36.0,1.0,54,40.0
162,E-3,36.0,0.475,28,40.0
163,G#3,36.0,0.475,28,40.0
164,C4,36.0,0.475,28,40.0
165,E-3,36.5,0.475,29,40.0
166,G#3,36.5,0.475,29,40.0
167,C4,36.5,0.475,29,40.0
168,F4,37.0,0.5,46,40.0
169,F5,37.0,0.5,46,40.0
170,E-3,37.0,0.475,29,40.0
171,G#3,37.0,0.475,29,40.0
172,C4,37.0,0.475,29,40.0
173,E-3,37.5,0.475,29,40.0
174,G#3,37.5,0.475,29,40.0
175,C4,37.5,0.475,29,40.0
176,F4,37.75,0.25,90,40.0
177,F3,38.0,0.75,85,40.0
178,G#3,38.0,0.75,85,40.0
179,B3,38.0,0.75,85,40.0
180,F4,38.0,0.75,85,40.0
181,D2,38.0,0.475,74,40.0
182,D3,38.0,0.475,74,40.0
183,D2,38.5,0.475,74,40.0
184,D3,38.5,0.475,74,40.0
185,F3,38.75,0.237,78,40.0
186,G#3,38.75,0.237,78,40.0
187,B3,38.75,0.237,78,40.0
188,F4,38.75,0.237,78,40.0
189,F3,39.0,0.75,82,40.0
190,G#3,39.0,0.75,82,40.0
191,C4,39.0,0.75,82,40.0
192,F4,39.0,0.75,82,40.0
193,C2,39.0,0.475,74,40.0
194,C3,39.0,0.475,74,40.0
195,C2,39.5,0.475,74,40.0
196,C3,39.5,0.475,74,40.0
197,F3,39.75,0.237,82,40.0
198,G#3,39.75,0.237,82,40.0
199,C4,39.75,0.237,82,40.0
200,F4,39.75,0.237,82,40.0
201,F3,40.0,1.0,82,40.0
202,G#3,40.0,1.0,82,40.0
203,D4,40.0,1.0,82,40.0
204,F4,40.0,1.0,82,40.0
205,B1,40.0,0.475,74,40.0
206,B2,40.0,0.475,74,40.0
207,B2,40.5,0.475,22,40.0
208,D3,40.5,0.475,22,40.0
209,F3,40.5,0.475,22,40.0
210,G#3,40.5,0.475,22,40.0
211,F4,41.0,1.75,50,40.0
212,F5,41.0,1.75,50,40.0
213,B2,41.0,0.475,22,40.0
214,D3,41.0,0.475,22,40.0
215,F3,41.0,0.475,22,40.0
216,G#3,41.0,0.475,22,40.0
217,B2,41.5,0.475,22,40.0
218,D3,41.5,0.475,22,40.0
219,F3,41.5,0.475,22,40.0
220,G#3,41.5,0.475,22,40.0
221,B-2,42.0,0.475,22,40.0
222,D3,42.0,0.475,22,40.0
223,F3,42.0,0.475,22,40.0
224,G#3,42.0,0.475,22,40.0
225,B-2,42.5,0.475,22,40.0
226,D3,42.5,0.475,22,40.0
227,F3,42.5,0.475,22,40.0
228,G#3,42.5,0.475,22,40.0
229,F4,42.75,0.25,50,40.0
230,F5,42.75,0.25,50,40.0
231,G4,43.0,0.75,52,40.0
232,G5,43.0,0.75,52,40.0
233,B-2,43.0,0.475,22,40.0
234,D3,43.0,0.475,22,40.0
235,F3,43.0,0.475,22,40.0
236,G#3,43.0,0.475,22,40.0
237,B-2,43.5,0.475,22,40.0
238,D3,43.5,0.475,22,40.0
239,F3,43.5,0.475,22,40.0
240,G#3,43.5,0.475,22,40.0
241,G#4,43.75,0.237,54,40.0
242,G#5,43.75,0.237,54,40.0
243,G#4,44.0,1.0,54,40.0
244,G#5,44.0,1.0,54,40.0
245,B-2,44.0,0.475,22,40.0
246,C#3,44.0,0.475,22,40.0
247,E3,44.0,0.475,22,40.0
248,G3,44.0,0.475,22,40.0
249,B-2,44.5,0.475,23,40.0
250,C#3,44.5,0.475,23,40.0
251,E3,44.5,0.475,23,40.0
252,G3,44.5,0.475,23,40.0
253,G4,45.0,0.5,50,40.0
254,G5,45.0,0.5,50,40.0
255,B-2,45.0,0.475,23,40.0
256,C#3,45.0,0.475,23,40.0
257,E3,45.0,0.475,23,40.0
258,G3,45.0,0.475,23,40.0
259,B-2,45.5,0.475,23,40.0
260,C#3,45.5,0.475,23,40.0
261,E3,45.5,0.475,23,40.0
262,G3,45.5,0.475,23,40.0
263,G3,45.75,0.25,79,40.0
264,C#4,45.75,0.25,79,40.0
265,E4,45.75,0.25,79,40.0
266,G4,45.75,0.25,79,40.0
267,A3,46.0,0.75,85,40.0
268,C#4,46.0,0.75,85,40.0
269,E-4,46.0,0.75,85,40.0
270,A4,46.0,0.75,85,40.0
271,A1,46.0,0.475,74,40.0
272,A2,46.0,0.475,74,40.0
273,A1,46.5,0.475,74,40.0
274,A2,46.5,0.475,74,40.0
275,A3,46.75,0.237,78,40.0
276,C#4,46.75,0.237,78,40.0
277,E-4,46.75,0.237,78,40.0
278,A4,46.75,0.237,78,40.0
279,B-3,47.0,0.75,82,40.0
280,C#4,47.0,0.75,82,40.0
281,E-4,47.0,0.75,82,40.0
282,B-4,47.0,0.75,82,40.0
283,G1,47.0,0.475,74,40.0
284,G2,47.0,0.475,74,40.0
285,G1,47.5,0.475,74,40.0
286,G2,47.5,0.475,74,40.0
287,B-3,47.75,0.237,82,40.0
288,C#4,47.75,0.237,82,40.0
289,E-4,47.75,0.237,82,40.0
290,B-4,47.75,0.237,82,40.0
291,A3,48.0,1.0,82,40.0
292,D4,48.0,1.0,82,40.0
293,F#4,48.0,1.0,82,40.0
294,A4,48.0,1.0,82,40.0
295,F#1,48.0,0.475,74,40.0
296,F#2,48.0,0.475,74,40.0
297,F#3,48.5,0.475,29,40.0
298,A3,48.5,0.475,29,40.0
299,D4,48.5,0.475,29,40.0
300,A4,49.0,1.75,50,40.0
301,A5,49.0,1.75,50,40.0
302,F#3,49.0,0.475,29,40.0
303,A3,49.0,0.475,29,40.0
304,D4,49.0,0.475,29,40.0
305,F#3,49.5,0.475,29,40.0
306,A3,49.5,0.475,29,40.0
307,D4,49.5,0.475,29,40.0
308,F#3,50.0,0.475,29,40.0
309,A3,50.0,0.475,29,40.0
310,D4,50.0,0.475,29,40.0
311,F#3,50.5,0.475,29,40.0
312,A3,50.5,0.475,29,40.0
313,D4,50.5,0.475,29,40.0
314,A4,50.75,0.25,50,40.0
315,A5,50.75,0.25,50,40.0
316,B4,51.0,0.75,52,40.0
317,B5,51.0,0.75,52,40.0
318,F#3,51.0,0.475,29,40.0
319,A3,51.0,0.475,29,40.0
320,D4,51.0,0.475,29,40.0
321,F#3,51.5,0.475,29,40.0
322,A3,51.5,0.475,29,40.0
323,D4,51.5,0.475,29,40.0
324,C5,51.75,0.237,54,40.0
325,C6,51.75,0.237,54,40.0
326,C5,52.0,1.0,54,40.0
327,C6,52.0,1.0,54,40.0
328,F3,52.0,0.475,30,40.0
329,G#3,52.0,0.475,30,40.0
330,D4,52.0,0.475,30,40.0
331,F3,52.5,0.475,30,40.0
332,G#3,52.5,0.475,30,40.0
333,D4,52.5,0.475,30,40.0
334,B4,53.0,0.5,50,40.0
335,B5,53.0,0.5,50,40.0
336,F3,53.0,0.475,30,40.0
337,G#3,53.0,0.475,30,40.0
338,D4,53.0,0.475,30,40.0
339,F3,53.5,0.475,30,40.0
340,G#3,53.5,0.475,30,40.0
341,D4,53.5,0.475,30,40.0
342,D3,54.0,0.475,42,40.0
343,F3,54.0,0.475,42,40.0
344,B3,54.0,0.475,42,40.0
345,D3,54.5,0.475,42,40.0
346,F3,54.5,0.475,42,40.0
347,B3,54.5,0.475,42,40.0
348,B4,55.0,0.75,71,40.0
349,B5,55.0,0.75,71,40.0
350,D3,55.0,0.475,42,40.0
351,F3,55.0,0.475,42,40.0
352,B3,55.0,0.475,42,40.0
353,D3,55.5,0.475,42,40.0
354,F3,55.5,0.475,42,40.0
355,B3,55.5,0.475,42,40.0
356,C5,55.75,0.25,68,40.0
357,C6,55.75,0.25,68,40.0
358,C#5,56.0,1.0,80,40.0
359,C#6,56.0,1.0,80,40.0
360,B2,56.0,0.475,50,40.0
361,D3,56.0,0.475,50,40.0
362,G#3,56.0,0.475,50,40.0
363,B2,56.5,0.475,52,40.0
364,D3,56.5,0.475,52,40.0
365,G#3,56.5,0.475,52,40.0
366,D5,57.0,1.0,85,40.0
367,D6,57.0,1.0,85,40.0
368,B2,57.0,0.475,47,40.0
369,D3,57.0,0.475,47,40.0
370,G#3,57.0,0.475,47,40.0
371,B2,57.5,0.475,47,40.0
372,D3,57.5,0.475,47,40.0
373,G#3,57.5,0.475,47,40.0
374,G#2,58.0,0.475,54,40.0
375,B2,58.0,0.475,54,40.0
376,F3,58.0,0.475,54,40.0
377,G#2,58.5,0.475,54,40.0
378,B2,58.5,0.475,54,40.0
379,F3,58.5,0.475,54,40.0
380,D5,59.0,0.75,90,40.0
381,D6,59.0,0.75,90,40.0
382,G#2,59.0,0.475,54,40.0
383,B2,59.0,0.475,54,40.0
384,F3,59.0,0.475,54,40.0
385,G#2,59.5,0.475,54,40.0
386,B2,59.5,0.475,54,40.0
387,F3,59.5,0.475,54,40.0
388,E-5,59.75,0.25,81,40.0
389,E-6,59.75,0.25,81,40.0
390,E5,60.0,1.0,88,40.0
391,E6,60.0,1.0,88,40.0
392,G2,60.0,0.475,54,40.0
393,B2,60.0,0.475,54,40.0
394,F3,60.0,0.475,54,40.0
395,G2,60.5,0.475,54,40.0
396,B2,60.5,0.475,54,40.0
397,F3,60.5,0.475,54,40.0
398,F5,61.0,1.979,89,40.0
399,F6,61.0,1.979,89,40.0
400,G2,61.0,0.475,54,40.0
401,B2,61.0,0.475,54,40.0
402,F3,61.0,0.475,54,40.0
403,G2,61.5,0.475,54,40.0
404,B2,61.5,0.475,54,40.0
405,F3,61.5,0.475,54,40.0
406,G#2,62.0,0.475,56,40.0
407,C3,62.0,0.475,56,40.0
408,F3,62.0,0.475,56,40.0
409,G#2,62.5,0.475,58,40.0
410,C3,62.5,0.475,58,40.0
411,F3,62.5,0.475,58,40.0
412,F5,63.0,0.979,96,40.0
413,F6,63.0,0.979,96,40.0
414,G#2,63.0,0.475,60,40.0
415,C3,63.0,0.475,60,40.0
416,F3,63.0,0.475,60,40.0
417,G#2,63.5,0.475,62,40.0
418,C3,63.5,0.475,62,40.0
419,F3,63.5,0.475,62,40.0
420,F5,64.0,1.25,96,40.0
421,F6,64.0,1.25,96,40.0
422,G2,64.0,1.0,75,40.0
423,B2,64.0,1.0,75,40.0
424,F3,64.0,1.0,75,40.0
425,E-6,65.25,0.125,62,40.0
426,D6,65.375,0.125,62,40.0
427,F6,65.5,0.125,62,40.0
428,E-6,65.625,0.125,62,40.0
429,D6,65.75,0.125,62,40.0
430,C6,65.875,0.125,62,40.0
431,B5,66.0,0.25,62,40.0
432,B5,66.5,0.25,52,40.0
433,F5,67.0,0.25,43,40.0
434,B5,67.0,0.25,43,40.0
435,G4,67.0,0.25,38,40.0
436,D5,67.0,0.25,38,40.0
437,F5,67.5,0.25,44,40.0
438,B5,67.5,0.25,44,40.0
439,G4,67.5,0.25,38,40.0
440,D5,67.5,0.25,38,40.0
441,E-5,68.0,1.0,44,40.0
442,C6,68.0,1.0,44,40.0
443,G#4,68.0,1.0,38,40.0
444,C5,68.0,1.0,38,40.0
445,C6,72.0,1.25,65,40.0
446,B5,73.25,0.125,61,40.0
447,C6,73.375,0.125,63,40.0
448,D6,73.5,0.083,66,40.0
449,C6,73.583,0.083,65,40.0
450,B-5,73.667,0.083,64,40.0
451,G#5,73.75,0.083,63,40.0
452,G5,73.833,0.083,61,40.0
453,B-5,73.917,0.083,60,40.0
454,G#5,74.0,0.25,62,40.0
455,G#5,74.5,0.25,49,40.0
456,G#5,75.0,0.25,47,40.0
457,C4,75.0,0.25,30,40.0
458,F3,75.0,0.25,30,40.0
459,D4,75.0,0.25,30,40.0
460,G#5,75.5,0.25,48,40.0
461,C4,75.5,0.25,30,40.0
462,F3,75.5,0.25,30,40.0
463,D4,75.5,0.25,30,40.0
464,G5,76.0,0.5,50,40.0
465,C4,76.0,1.0,30,40.0
466,G3,76.0,1.0,30,40.0
467,E-4,76.0,1.0,30,40.0
468,E-6,76.5,0.583,65,40.0
469,D6,77.083,0.083,52,40.0
470,C#6,77.167,0.083,52,40.0
471,C6,77.25,0.083,52,40.0
472,B5,77.333,0.083,52,40.0
473,B-5,77.417,0.083,53,40.0
474,A5,77.5,0.071,53,40.0
475,G#5,77.571,0.071,53,40.0
476,G5,77.642,0.071,53,40.0
477,F#5,77.713,0.071,54,40.0
478,F5,77.783,0.071,54,40.0
479,E5,77.854,0.071,54,40.0
480,E-5,77.925,0.075,54,40.0
481,D5,78.0,0.125,54,40.0
482,G2,78.0,1.0,35,40.0
483,D3,78.0,1.0,35,40.0
484,F3,78.0,1.0,35,40.0
485,C#5,78.125,0.125,55,40.0
486,C5,78.25,0.125,55,40.0
487,B4,78.375,0.125,56,40.0
488,B-4,78.5,0.125,56,40.0
489,A4,78.625,0.125,56,40.0
490,G#4,78.75,0.125,57,40.0
491,G4,78.875,0.125,57,40.0
492,F#4,79.0,0.125,57,40.0
493,F4,79.125,0.125,58,40.0
494,E4,79.25,0.125,57,40.0
495,E-4,79.375,0.125,57,40.0
496,D4,79.5,0.125,58,40.0
497,C#4,79.625,0.125,63,40.0
498,C4,79.75,0.125,68,40.0
499,B3,79.875,0.125,73,40.0
500,G#4,80.0,0.75,82,40.0
501,B3,80.75,0.25,68,40.0
502,C4,81.0,1.5,50,40.0
503,C2,81.0,0.475,44,40.0
504,C3,81.25,0.25,41,40.0
505,C2,81.5,0.475,44,40.0
506,C3,81.75,0.25,41,40.0
507,C2,82.0,0.475,44,40.0
508,C3,82.25,0.25,41,40.0
509,C2,82.5,0.475,45,40.0
510,B-3,82.5,0.188,52,40.0
511,E4,82.5,0.188,52,40.0
512,C3,82.75,0.25,41,40.0
513,C2,83.0,0.475,45,40.0
514,G#3,83.0,0.188,54,40.0
515,F4,83.0,0.188,54,40.0
516,C3,83.25,0.25,46,40.0
517,C2,83.5,0.475,47,40.0
518,E4,83.5,0.188,56,40.0
519,G4,83.5,0.188,56,40.0
520,C3,83.75,0.25,47,40.0
521,C2,84.0,0.475,49,40.0
522,F4,84.0,0.188,57,40.0
523,G#4,84.0,0.188,57,40.0
524,C3,84.25,0.25,50,40.0
525,C2,84.5,0.475,51,40.0
526,D4,84.5,0.188,59,40.0
527,B4,84.5,0.188,59,40.0
528,C3,84.75,0.25,53,40.0
529,C2,85.0,0.475,55,40.0
530,E-4,85.0,0.188,61,40.0
531,C5,85.0,0.188,61,40.0
532,C3,85.25,0.25,50,40.0
533,C2,85.5,0.475,53,40.0
534,E4,85.5,1.0,55,40.0
535,C5,85.5,1.0,55,40.0
536,C3,85.75,0.25,47,40.0
537,C2,86.0,0.475,53,40.0
538,C3,86.25,0.25,47,40.0
539,C2,86.5,0.475,44,40.0
540,B-4,86.5,0.188,51,40.0
541,E5,86.5,0.188,51,40.0
542,C3,86.75,0.25,40,40.0
543,C2,87.0,0.475,43,40.0
544,G#4,87.0,0.188,53,40.0
545,F5,87.0,0.188,53,40.0
546,C3,87.25,0.25,45,40.0
547,C2,87.5,0.475,46,40.0
548,E5,87.5,0.188,55,40.0
549,G5,87.5,0.188,55,40.0
550,C3,87.75,0.25,47,40.0
551,C2,88.0,0.475,48,40.0
552,F5,88.0,0.188,57,40.0
553,G#5,88.0,0.188,57,40.0
554,C3,88.25,0.25,50,40.0
555,C2,88.5,0.475,51,40.0
556,D5,88.5,0.188,59,40.0
557,B5,88.5,0.188,59,40.0
558,C3,88.75,0.25,53,40.0
559,C2,89.0,0.475,55,40.0
560,C5,89.0,1.0,56,40.0
561,G5,89.0,1.0,56,40.0
562,E-5,89.0,1.0,56,40.0
563,C6,89.0,1.0,56,40.0
564,C3,89.25,0.25,50,40.0
565,C2,89.5,0.475,53,40.0
566,C3,89.75,0.25,47,40.0
567,D2,90.0,0.475,55,40.0
568,G4,90.0,1.0,58,40.0
569,B4,90.0,1.0,58,40.0
570,F5,90.0,1.0,58,40.0
571,G5,90.0,1.0,58,40.0
572,D3,90.25,0.25,50,40.0
573,D2,90.5,0.475,55,40.0
574,D3,90.75,0.25,51,40.0
575,E-2,91.0,0.475,55,40.0
576,G4,91.0,1.0,60,40.0
577,C5,91.0,1.0,60,40.0
578,E-5,91.0,1.0,60,40.0
579,E-3,91.25,0.25,55,40.0
580,E-2,91.5,0.475,55,40.0
581,E-3,91.75,0.25,55,40.0
582,F2,92.0,0.475,55,40.0
583,F4,92.0,1.0,64,40.0
584,G#4,92.0,1.0,64,40.0
585,D5,92.0,1.0,64,40.0
586,F3,92.25,0.25,53,40.0
587,F2,92.5,0.475,55,40.0
588,F3,92.75,0.25,55,40.0
589,G4,93.0,1.0,74,40.0
590,G2,93.0,0.475,56,40.0
591,E-4,93.0,3.0,68,40.0
592,C5,93.0,3.0,68,40.0
593,G3,93.25,0.25,56,40.0
594,G2,93.5,0.475,57,40.0
595,G3,93.75,0.25,57,40.0
596,F#4,94.0,1.0,74,40.0
597,G#2,94.0,0.475,58,40.0
598,G#3,94.25,0.25,59,40.0
599,G#2,94.5,0.475,59,40.0
600,G#3,94.75,0.25,60,40.0
601,A4,95.0,1.0,77,40.0
602,F#2,95.0,0.475,60,40.0
603,F#3,95.25,0.25,55,40.0
604,F#2,95.5,0.475,61,40.0
605,F#3,95.75,0.25,55,40.0
606,G2,96.0,0.475,58,40.0
607,D4,96.0,1.0,66,40.0
608,F4,96.0,1.0,66,40.0
609,B4,96.0,1.0,66,40.0
610,G3,96.25,0.25,55,40.0
611,G2,96.5,0.475,58,40.0
612,G3,96.75,0.25,55,40.0
613,C2,97.0,0.475,48,40.0
614,C4,97.0,0.188,71,40.0
615,E-4,97.0,0.188,71,40.0
616,C5,97.0,0.188,71,40.0
617,C3,97.25,0.25,45,40.0
618,C4,97.5,1.0,67,40.0
619,C2,97.5,0.475,44,40.0
620,C3,97.75,0.25,41,40.0
621,C2,98.0,0.475,44,40.0
622,C3,98.25,0.25,40,40.0
623,C2,98.5,0.475,44,40.0
624,B-3,98.5,0.188,52,40.0
625,E4,98.5,0.188,52,40.0
626,C3,98.75,0.25,41,40.0
627,C2,99.0,0.475,44,40.0
628,G#3,99.0,0.188,54,40.0
629,F4,99.0,0.188,54,40.0
630,C3,99.25,0.25,46,40.0
631,C2,99.5,0.475,47,40.0
632,E4,99.5,0.188,55,40.0
633,G4,99.5,0.188,55,40.0
634,C3,99.75,0.25,47,40.0
635,C2,100.0,0.475,49,40.0
636,F4,100.0,0.188,57,40.0
637,G#4,100.0,0.188,57,40.0
638,C3,100.25,0.25,50,40.0
639,C2,100.5,0.475,51,40.0
640,D4,100.5,0.188,59,40.0
641,B4,100.5,0.188,59,40.0
642,C3,100.75,0.25,53,40.0
643,C2,101.0,0.475,55,40.0
644,E-4,101.0,0.188,61,40.0
645,C5,101.0,0.188,61,40.0
646,C3,101.25,0.25,50,40.0
647,C2,101.5,0.475,53,40.0
648,E4,101.5,1.0,55,40.0
649,C5,101.5,1.0,55,40.0
650,C3,101.75,0.25,47,40.0
651,C2,102.0,0.475,53,40.0
652,C3,102.25,0.25,47,40.0
653,C2,102.5,0.475,44,40.0
654,B-4,102.5,0.188,51,40.0
655,E5,102.5,0.188,51,40.0
656,C3,102.75,0.25,40,40.0
657,C2,103.0,0.475,43,40.0
658,G#4,103.0,0.188,53,40.0
659,F5,103.0,0.188,53,40.0
660,C3,103.25,0.25,45,40.0
661,C2,103.5,0.475,46,40.0
662,E5,103.5,0.188,55,40.0
663,G5,103.5,0.188,55,40.0
664,C3,103.75,0.25,47,40.0
665,C2,104.0,0.475,48,40.0
666,F5,104.0,0.188,57,40.0
667,G#5,104.0,0.188,57,40.0
668,C3,104.25,0.25,50,40.0
669,C2,104.5,0.475,51,40.0
670,D5,104.5,0.188,59,40.0
671,B5,104.5,0.188,59,40.0
672,C3,104.75,0.25,53,40.0
673,C2,105.0,0.475,55,40.0
674,C5,105.0,1.0,56,40.0
675,G5,105.0,1.0,56,40.0
676,E-5,105.0,1.0,56,40.0
677,C6,105.0,1.0,56,40.0
678,C3,105.25,0.25,50,40.0
679,C2,105.5,0.475,53,40.0
680,C3,105.75,0.25,47,40.0
681,D2,106.0,0.475,55,40.0
682,G4,106.0,1.0,58,40.0
683,B4,106.0,1.0,58,40.0
684,F5,106.0,1.0,58,40.0
685,G5,106.0,1.0,58,40.0
686,D3,106.25,0.25,50,40.0
687,D2,106.5,0.475,55,40.0
688,D3,106.75,0.25,51,40.0
689,E-2,107.0,0.475,55,40.0
690,G4,107.0,1.0,60,40.0
691,C5,107.0,1.0,60,40.0
692,E-5,107.0,1.0,60,40.0
693,E-3,107.25,0.25,55,40.0
694,E-2,107.5,0.475,55,40.0
695,E-3,107.75,0.25,55,40.0
696,F2,108.0,0.475,55,40.0
697,F4,108.0,1.0,64,40.0
698,G#4,108.0,1.0,64,40.0
699,D5,108.0,1.0,64,40.0
700,F3,108.25,0.25,53,40.0
701,F2,108.5,0.475,55,40.0
702,F3,108.75,0.25,55,40.0
703,G4,109.0,1.0,74,40.0
704,G2,109.0,0.475,56,40.0
705,E-4,109.0,4.0,68,40.0
706,C5,109.0,4.0,68,40.0
707,G3,109.25,0.25,56,40.0
708,G2,109.5,0.475,57,40.0
709,G3,109.75,0.25,57,40.0
710,F#4,110.0,1.0,74,40.0
711,G#2,110.0,0.475,58,40.0
712,G#3,110.25,0.25,59,40.0
713,G#2,110.5,0.475,59,40.0
714,G#3,110.75,0.25,60,40.0
715,A4,111.0,2.0,77,40.0
716,F#2,111.0,0.475,60,40.0
717,F#3,111.25,0.25,55,40.0
718,F#2,111.5,0.475,61,40.0
719,F#3,111.75,0.25,55,40.0
720,F#2,112.0,0.475,58,40.0
721,F#3,112.25,0.25,55,40.0
722,F#2,112.5,0.475,58,40.0
723,F#3,112.75,0.25,55,40.0
724,D4,113.0,0.5,55,40.0
725,G4,113.0,0.5,55,40.0
726,B4,113.0,0.5,55,40.0
727,G2,113.0,0.5,55,40.0
728,G3,113.0,0.5,55,40.0
729,D4,113.5,0.475,50,40.0
730,B3,113.5,0.475,50,40.0
731,G4,114.0,1.5,80,40.0
732,G5,114.0,1.5,80,40.0
733,D4,114.0,0.475,50,40.0
734,B3,114.0,0.475,50,40.0
735,B3,114.5,0.475,50,40.0
736,D4,114.5,0.475,50,40.0
737,G3,115.0,0.5,50,40.0
738,E-4,115.5,0.475,50,40.0
739,C4,115.5,0.475,50,40.0
740,G4,116.0,1.25,80,40.0
741,G5,116.0,1.25,80,40.0
742,E-4,116.0,0.475,50,40.0
743,C4,116.0,0.475,50,40.0
744,E-4,116.5,0.475,50,40.0
745,C4,116.5,0.475,50,40.0
746,F4,117.0,0.5,50,40.0
747,D4,117.0,0.5,50,40.0
748,F5,117.25,0.25,70,40.0
749,D5,117.5,0.25,69,40.0
750,B4,117.75,0.25,69,40.0
751,G4,118.0,0.25,68,40.0
752,F4,118.25,0.25,67,40.0
753,D4,118.5,0.25,66,40.0
754,B3,118.75,0.25,65,40.0
755,C4,119.0,0.25,65,40.0
756,E-4,119.25,0.25,64,40.0
757,C4,119.5,0.25,65,40.0
758,G3,119.75,0.25,65,40.0
759,F#3,120.0,0.25,64,40.0
760,G#1,120.0,0.25,55,40.0
761,C4,120.25,0.25,64,40.0
762,G#2,120.25,0.25,55,40.0
763,G#3,120.5,0.25,63,40.0
764,G#1,120.5,0.25,55,40.0
765,F#3,120.75,0.25,65,40.0
766,G#2,120.75,0.25,55,40.0
767,G3,121.0,0.5,67,40.0
768,G1,121.0,0.5,50,40.0
769,G2,121.0,0.5,50,40.0
770,D4,121.5,0.475,50,40.0
771,B3,121.5,0.475,50,40.0
772,G4,122.0,1.5,80,40.0
773,G5,122.0,1.5,80,40.0
774,D4,122.0,0.475,50,40.0
775,B3,122.0,0.475,50,40.0
776,B3,122.5,0.475,50,40.0
777,D4,122.5,0.475,50,40.0
778,G3,123.0,0.5,50,40.0
779,E-4,123.5,0.475,50,40.0
780,C4,123.5,0.475,50,40.0
781,G4,124.0,1.25,80,40.0
782,G5,124.0,1.25,80,40.0
783,E-4,124.0,0.475,50,40.0
784,C4,124.0,0.475,50,40.0
785,E-4,124.5,0.475,50,40.0
786,C4,124.5,0.475,50,40.0
787,F4,125.0,0.5,50,40.0
788,D4,125.0,0.5,50,40.0
789,F5,125.25,0.25,72,40.0
790,D5,125.5,0.25,71,40.0
791,B4,125.75,0.25,70,40.0
792,G4,126.0,0.25,69,40.0
793,F4,126.25,0.25,68,40.0
794,D4,126.5,0.25,67,40.0
795,B3,126.75,0.25,66,40.0
796,C4,127.0,0.25,65,40.0
797,E-4,127.25,0.25,64,40.0
798,C4,127.5,0.25,64,40.0
799,G3,127.75,0.25,67,40.0
800,F#3,128.0,0.25,66,40.0
801,G#1,128.0,0.475,55,40.0
802,C4,128.25,0.25,64,40.0
803,G#2,128.25,0.25,55,40.0
804,G#3,128.5,0.25,62,40.0
805,G#1,128.5,0.475,55,40.0
806,F#3,128.75,0.25,60,40.0
807,G#2,128.75,0.25,49,40.0
808,G3,129.0,0.5,67,40.0
809,G1,129.0,0.475,50,40.0
810,G2,129.25,0.25,51,40.0
811,F#4,129.5,0.188,67,40.0
812,G1,129.5,0.475,51,40.0
813,G2,129.75,0.25,52,40.0
814,G4,130.0,0.188,69,40.0
815,G1,130.0,0.475,53,40.0
816,G2,130.25,0.25,54,40.0
817,G1,130.5,0.475,55,40.0
818,F#4,130.5,0.188,71,40.0
819,C5,130.5,0.188,71,40.0
820,G2,130.75,0.25,56,40.0
821,G1,131.0,0.475,57,40.0
822,G4,131.0,0.188,73,40.0
823,B4,131.0,0.188,73,40.0
824,G2,131.25,0.25,58,40.0
825,G1,131.5,0.475,59,40.0
826,C5,131.5,0.188,75,40.0
827,F#5,131.5,0.188,75,40.0
828,G2,131.75,0.25,60,40.0
829,G1,132.0,0.475,61,40.0
830,B4,132.0,0.188,77,40.0
831,G5,132.0,0.188,77,40.0
832,G2,132.25,0.25,61,40.0
833,G1,132.5,0.475,62,40.0
834,C6,132.5,0.188,79,40.0
835,F#5,132.5,0.188,79,40.0
836,G2,132.75,0.25,63,40.0
837,G1,133.0,0.475,64,40.0
838,B5,133.0,0.25,81,40.0
839,G5,133.0,0.25,81,40.0
840,G2,133.25,0.25,55,40.0
841,G1,133.5,0.475,61,40.0
842,G2,133.75,0.25,55,40.0
843,G1,134.0,0.475,61,40.0
844,G2,134.25,0.25,55,40.0
845,G1,134.5,0.475,60,40.0
846,G2,134.75,0.25,55,40.0
847,E-4,135.0,2.5,84,40.0
848,G1,135.0,0.475,64,40.0
849,B-3,135.0,2.0,81,40.0
850,C#4,135.0,2.0,81,40.0
851,G2,135.25,0.25,55,40.0
852,G1,135.5,0.475,61,40.0
853,G2,135.75,0.25,55,40.0
854,G1,136.0,0.475,61,40.0
855,G2,136.25,0.25,55,40.0
856,G1,136.5,0.475,60,40.0
857,G2,136.75,0.25,55,40.0
858,C4,137.0,0.5,67,40.0
859,G#1,137.0,0.475,50,40.0
860,G#2,137.25,0.25,51,40.0
861,C#5,137.5,0.188,67,40.0
862,G#1,137.5,0.475,51,40.0
863,G#2,137.75,0.25,52,40.0
864,C5,138.0,0.188,69,40.0
865,G#1,138.0,0.475,53,40.0
866,G#2,138.25,0.25,54,40.0
867,G#1,138.5,0.475,55,40.0
868,C#5,138.5,0.188,71,40.0
869,G5,138.5,0.188,71,40.0
870,G#2,138.75,0.25,56,40.0
871,G#1,139.0,0.475,57,40.0
872,C5,139.0,0.188,73,40.0
873,G#5,139.0,0.188,73,40.0
874,G#2,139.25,0.25,58,40.0
875,G#1,139.5,0.475,59,40.0
876,G5,139.5,0.188,75,40.0
877,C#6,139.5,0.188,75,40.0
878,G#2,139.75,0.25,60,40.0
879,G#1,140.0,0.475,61,40.0
880,G#5,140.0,0.188,77,40.0
881,C6,140.0,0.188,77,40.0
882,G#2,140.25,0.25,61,40.0
883,G#1,140.5,0.475,62,40.0
884,C#6,140.5,0.188,79,40.0
885,G5,140.5,0.188,79,40.0
886,G#2,140.75,0.25,63,40.0
887,G#1,141.0,0.475,64,40.0
888,C6,141.0,0.25,81,40.0
889,G#5,141.0,0.25,81,40.0
890,G#2,141.25,0.25,55,40.0
891,G#1,141.5,0.475,61,40.0
892,G#2,141.75,0.25,55,40.0
893,G#1,142.0,0.475,61,40.0
894,G#2,142.25,0.25,55,40.0
895,G#1,142.5,0.475,60,40.0
896,G#2,142.75,0.25,55,40.0
897,A1,143.0,0.475,64,40.0
898,C4,143.0,2.0,82,40.0
899,E-4,143.0,2.0,82,40.0
900,F#4,143.0,2.0,82,40.0
901,A2,143.25,0.25,55,40.0
902,A1,143.5,0.475,61,40.0
903,A2,143.75,0.25,55,40.0
904,A1,144.0,0.475,61,40.0
905,A2,144.25,0.25,55,40.0
906,A1,144.5,0.475,60,40.0
907,A2,144.75,0.25,55,40.0
908,B-1,145.0,0.475,50,40.0
909,D4,145.0,0.5,67,40.0
910,F4,145.0,0.5,67,40.0
911,B-2,145.25,0.25,51,40.0
912,B-1,145.5,0.475,51,40.0
913,A4,145.5,0.188,64,40.0
914,E-5,145.5,0.188,64,40.0
915,B-2,145.75,0.25,52,40.0
916,B-1,146.0,0.475,53,40.0
917,B-4,146.0,0.188,67,40.0
918,D5,146.0,0.188,67,40.0
919,B-2,146.25,0.25,54,40.0
920,B-1,146.5,0.475,55,40.0
921,E-5,146.5,0.188,71,40.0
922,A5,146.5,0.188,71,40.0
923,B-2,146.75,0.25,56,40.0
924,B-1,147.0,0.475,57,40.0
925,D5,147.0,0.188,73,40.0
926,B-5,147.0,0.188,73,40.0
927,B-2,147.25,0.25,58,40.0
928,B-1,147.5,0.475,59,40.0
929,A5,147.5,0.188,75,40.0
930,E-6,147.5,0.188,75,40.0
931,B-2,147.75,0.25,60,40.0
932,B-1,148.0,0.475,61,40.0
933,B-5,148.0,0.188,77,40.0
934,D6,148.0,0.188,77,40.0
935,B-2,148.25,0.25,61,40.0
936,B-1,148.5,0.475,62,40.0
937,E-6,148.5,0.188,79,40.0
938,A5,148.5,0.188,79,40.0
939,B-2,148.75,0.25,63,40.0
940,B-1,149.0,0.475,64,40.0
941,D6,149.0,0.25,81,40.0
942,B-5,149.0,0.25,81,40.0
943,B-2,149.25,0.25,55,40.0
944,B-1,149.5,0.475,61,40.0
945,B-2,149.75,0.25,55,40.0
946,B-1,150.0,0.475,61,40.0
947,E-5,150.0,1.0,81,40.0
948,A5,150.0,1.0,81,40.0
949,B-2,150.25,0.25,55,40.0
950,B-1,150.5,0.475,60,40.0
951,B-2,150.75,0.25,55,40.0
952,B-1,151.0,0.475,64,40.0
953,D5,151.0,0.5,81,40.0
954,B-5,151.0,0.5,81,40.0
955,B-2,151.25,0.25,55,40.0
956,B-1,151.5,0.475,61,40.0
957,B-2,151.75,0.25,55,40.0
958,B-1,152.0,0.475,61,40.0
959,A4,152.0,1.0,81,40.0
960,E-5,152.0,1.0,81,40.0
961,B-2,152.25,0.25,55,40.0
962,B-1,152.5,0.475,60,40.0
963,B-2,152.75,0.25,55,40.0
964,B-1,153.0,0.475,64,40.0
965,B-4,153.0,0.5,81,40.0
966,D5,153.0,0.5,81,40.0
967,B-2,153.25,0.25,55,40.0
968,B-1,153.5,0.475,61,40.0
969,B-2,153.75,0.25,55,40.0
970,B-1,154.0,0.475,61,40.0
971,E-4,154.0,1.0,81,40.0
972,A4,154.0,1.0,81,40.0
973,B-2,154.25,0.25,55,40.0
974,B-1,154.5,0.475,60,40.0
975,B-2,154.75,0.25,55,40.0
976,B-1,155.0,0.475,64,40.0
977,D4,155.0,0.5,81,40.0
978,B-4,155.0,0.5,81,40.0
979,B-2,155.25,0.25,55,40.0
980,B-1,155.5,0.475,61,40.0
981,B-2,155.75,0.25,55,40.0
982,B-1,156.0,0.475,61,40.0
983,A3,156.0,1.0,81,40.0
984,E-4,156.0,1.0,81,40.0
985,B-2,156.25,0.25,55,40.0
986,B-1,156.5,0.475,60,40.0
987,B-2,156.75,0.25,55,40.0
988,B-3,157.0,0.5,81,40.0
989,D4,157.0,0.5,81,40.0
990,B-2,157.0,0.5,60,40.0
991,B-1,157.0,0.5,60,40.0
992,A3,157.5,0.5,50,40.0
993,B-3,158.0,0.5,59,40.0
994,A3,158.5,0.5,56,40.0
995,B-3,159.0,0.5,57,40.0
996,A3,159.5,0.5,49,40.0
997,B-3,160.0,0.5,57,40.0
998,A3,160.5,0.5,51,40.0
999,B-3,161.0,2.0,44,40.0
1000,B-2,161.5,0.25,55,40.0
1001,E-4,161.5,0.475,38,40.0
1002,F#4,161.5,0.475,38,40.0
1003,E-3,162.0,0.25,58,40.0
1004,E-4,162.0,0.475,38,40.0
1005,F#4,162.0,0.475,38,40.0
1006,F3,162.5,0.25,61,40.0
1007,E-4,162.5,0.475,38,40.0
1008,F#4,162.5,0.475,38,40.0
1009,F#3,163.0,0.25,64,40.0
1010,B-3,163.0,2.0,44,40.0
1011,B-4,163.5,0.25,62,40.0
1012,E-4,163.5,0.475,38,40.0
1013,F#4,163.5,0.475,38,40.0
1014,E-5,164.0,0.25,64,40.0
1015,E-4,164.0,0.475,38,40.0
1016,F#4,164.0,0.475,38,40.0
1017,F5,164.5,0.25,66,40.0
1018,E-4,164.5,0.475,38,40.0
1019,F#4,164.5,0.475,38,40.0
1020,B-4,164.875,0.125,65,40.0
1021,F#5,165.0,1.5,75,40.0
1022,B-3,165.0,2.0,44,40.0
1023,E-4,165.5,0.475,38,40.0
1024,F#4,165.5,0.475,38,40.0
1025,E-4,166.0,0.475,38,40.0
1026,F#4,166.0,0.475,38,40.0
1027,E-5,166.5,0.5,63,40.0
1028,E-4,166.5,0.475,38,40.0
1029,F#4,166.5,0.475,38,40.0
1030,B-4,166.875,0.125,60,40.0
1031,F#5,167.0,1.5,71,40.0
1032,B-3,167.0,2.0,44,40.0
1033,E-4,167.5,0.475,38,40.0
1034,F#4,167.5,0.475,38,40.0
1035,E-4,168.0,0.475,38,40.0
1036,F#4,168.0,0.475,38,40.0
1037,E-5,168.5,0.5,58,40.0
1038,E-4,168.5,0.5,38,40.0
1039,F#4,168.5,0.5,38,40.0
1040,D5,169.0,0.5,60,40.0
1041,B-3,169.0,2.0,44,40.0
1042,B-2,169.5,0.25,57,40.0
1043,F4,169.5,0.475,38,40.0
1044,G#4,169.5,0.475,38,40.0
1045,F3,170.0,0.25,60,40.0
1046,F4,170.0,0.475,38,40.0
1047,G#4,170.0,0.475,38,40.0
1048,F#3,170.5,0.25,63,40.0
1049,F4,170.5,0.475,38,40.0
1050,G#4,170.5,0.475,38,40.0
1051,G#3,171.0,0.25,66,40.0
1052,B-3,171.0,2.0,44,40.0
1053,B-4,171.5,0.5,59,40.0
1054,F4,171.5,0.475,38,40.0
1055,G#4,171.5,0.475,38,40.0
1056,G#5,172.0,0.5,62,40.0
1057,F4,172.0,0.475,38,40.0
1058,G#4,172.0,0.475,38,40.0
1059,F#5,172.5,0.5,65,40.0
1060,F4,172.5,0.475,38,40.0
1061,G#4,172.5,0.475,38,40.0
1062,F#5,173.0,0.125,60,40.0
1063,B-3,173.0,2.0,44,40.0
1064,G#5,173.125,0.125,60,40.0
1065,F#5,173.25,0.25,67,40.0
1066,F5,173.5,0.5,60,40.0
1067,F4,173.5,0.475,38,40.0
1068,G#4,173.5,0.475,38,40.0
1069,F5,174.0,0.125,60,40.0
1070,F4,174.0,0.475,38,40.0
1071,G#4,174.0,0.475,38,40.0
1072,F#5,174.125,0.125,60,40.0
1073,F5,174.25,0.25,67,40.0
1074,E-5,174.5,0.5,60,40.0
1075,F4,174.5,0.475,38,40.0
1076,G#4,174.5,0.475,38,40.0
1077,E-5,175.0,0.125,60,40.0
1078,B-3,175.0,2.0,44,40.0
1079,F5,175.125,0.125,60,40.0
1080,E-5,175.25,0.25,66,40.0
1081,D5,175.5,0.5,60,40.0
1082,F4,175.5,0.475,38,40.0
1083,G#4,175.5,0.475,38,40.0
1084,C5,176.0,0.25,60,40.0
1085,F4,176.0,0.475,38,40.0
1086,G#4,176.0,0.475,38,40.0
1087,D5,176.5,0.25,60,40.0
1088,F4,176.5,0.475,38,40.0
1089,G#4,176.5,0.475,38,40.0
1090,E-5,177.0,0.5,60,40.0
1091,B-3,177.0,2.0,44,40.0
1092,B-2,177.5,0.25,55,40.0
1093,E-4,177.5,0.475,38,40.0
1094,F#4,177.5,0.475,38,40.0
1095,E-3,178.0,0.25,58,40.0
1096,E-4,178.0,0.475,38,40.0
1097,F#4,178.0,0.475,38,40.0
1098,F3,178.5,0.25,61,40.0
1099,E-4,178.5,0.475,38,40.0
1100,F#4,178.5,0.475,38,40.0
1101,F#3,179.0,0.25,64,40.0
1102,B-3,179.0,2.0,44,40.0
1103,B-4,179.5,0.25,62,40.0
1104,E-4,179.5,0.475,38,40.0
1105,F#4,179.5,0.475,38,40.0
1106,E-5,180.0,0.25,64,40.0
1107,E-4,180.0,0.475,38,40.0
1108,F#4,180.0,0.475,38,40.0
1109,F5,180.5,0.25,66,40.0
1110,E-4,180.5,0.475,38,40.0
1111,F#4,180.5,0.475,38,40.0
1112,B-4,180.875,0.125,65,40.0
1113,F#5,181.0,1.5,75,40.0
1114,B-3,181.0,2.0,44,40.0
1115,E-4,181.5,0.475,38,40.0
1116,F#4,181.5,0.475,38,40.0
1117,E-4,182.0,0.475,38,40.0
1118,F#4,182.0,0.475,38,40.0
1119,E-5,182.5,0.5,63,40.0
1120,E-4,182.5,0.475,38,40.0
1121,F#4,182.5,0.475,38,40.0
1122,B-4,182.875,0.125,60,40.0
1123,F#5,183.0,1.5,71,40.0
1124,B-3,183.0,2.0,44,40.0
1125,E-4,183.5,0.475,38,40.0
1126,F#4,183.5,0.475,38,40.0
1127,E-4,184.0,0.475,38,40.0
1128,F#4,184.0,0.475,38,40.0
1129,E-5,184.5,0.5,58,40.0
1130,E-4,184.5,0.475,38,40.0
1131,F#4,184.5,0.475,38,40.0
1132,C5,185.0,0.5,60,40.0
1133,G#3,185.0,2.0,44,40.0
1134,G#2,185.5,0.25,57,40.0
1135,E-4,185.5,0.475,38,40.0
1136,F#4,185.5,0.475,38,40.0
1137,E-3,186.0,0.25,60,40.0
1138,E-4,186.0,0.475,38,40.0
1139,F#4,186.0,0.475,38,40.0
1140,F3,186.5,0.25,63,40.0
1141,E-4,186.5,0.475,38,40.0
1142,F#4,186.5,0.475,38,40.0
1143,F#3,187.0,0.25,66,40.0
1144,G#3,187.0,2.0,44,40.0
1145,G#4,187.5,0.5,59,40.0
1146,E-4,187.5,0.475,38,40.0
1147,F#4,187.5,0.475,38,40.0
1148,F#5,188.0,0.5,62,40.0
1149,E-4,188.0,0.475,38,40.0
1150,F#4,188.0,0.475,38,40.0
1151,F5,188.5,0.5,65,40.0
1152,E-4,188.5,0.475,38,40.0
1153,F#4,188.5,0.475,38,40.0
1154,F5,189.0,0.125,60,40.0
1155,G#3,189.0,2.0,44,40.0
1156,F#5,189.125,0.125,60,40.0
1157,F5,189.25,0.25,67,40.0
1158,E-5,189.5,0.5,60,40.0
1159,E-4,189.5,0.475,38,40.0
1160,F#4,189.5,0.475,38,40.0
1161,E-5,190.0,0.125,60,40.0
1162,E-4,190.0,0.475,38,40.0
1163,F#4,190.0,0.475,38,40.0
1164,F5,190.125,0.125,60,40.0
1165,E-5,190.25,0.25,67,40.0
1166,C#5,190.5,0.5,60,40.0
1167,E-4,190.5,0.475,38,40.0
1168,F#4,190.5,0.475,38,40.0
1169,C#5,191.0,0.125,60,40.0
1170,G#3,191.0,2.0,44,40.0
1171,E-5,191.125,0.125,60,40.0
1172,C#5,191.25,0.25,66,40.0
1173,C5,191.5,0.5,60,40.0
1174,E-4,191.5,0.475,38,40.0
1175,F#4,191.5,0.475,38,40.0
1176,B-4,192.0,0.25,60,40.0
1177,E-4,192.0,0.475,38,40.0
1178,F#4,192.0,0.475,38,40.0
1179,C5,192.5,0.25,60,40.0
1180,E-4,192.5,0.475,38,40.0
1181,F#4,192.5,0.475,38,40.0
1182,C#5,193.0,0.5,60,40.0
1183,G#3,193.0,2.0,44,40.0
1184,G#2,193.5,0.25,55,40.0
1185,C#4,193.5,0.475,38,40.0
1186,F4,193.5,0.475,38,40.0
1187,C#3,194.0,0.25,58,40.0
1188,C#4,194.0,0.475,38,40.0
1189,F4,194.0,0.475,38,40.0
1190,E-3,194.5,0.25,61,40.0
1191,C#4,194.5,0.475,38,40.0
1192,F4,194.5,0.475,38,40.0
1193,F3,195.0,0.25,64,40.0
1194,G#3,195.0,2.0,44,40.0
1195,G#4,195.5,0.25,62,40.0
1196,C#4,195.5,0.475,38,40.0
1197,F4,195.5,0.475,38,40.0
1198,C#5,196.0,0.25,64,40.0
1199,C#4,196.0,0.475,38,40.0
1200,F4,196.0,0.475,38,40.0
1201,E-5,196.5,0.25,66,40.0
1202,C#4,196.5,0.475,38,40.0
1203,F4,196.5,0.475,38,40.0
1204,G#4,196.875,0.125,65,40.0
1205,F5,197.0,1.5,75,40.0
1206,G#3,197.0,2.0,44,40.0
1207,C#4,197.5,0.475,38,40.0
1208,F4,197.5,0.475,38,40.0
1209,C#4,198.0,0.475,38,40.0
1210,F4,198.0,0.475,38,40.0
1211,C#5,198.5,0.5,63,40.0
1212,C#4,198.5,0.475,38,40.0
1213,F4,198.5,0.475,38,40.0
1214,G#4,198.875,0.125,60,40.0
1215,F5,199.0,1.5,71,40.0
1216,G#3,199.0,2.0,44,40.0
1217,C#4,199.5,0.475,38,40.0
1218,F4,199.5,0.475,38,40.0
1219,C#4,200.0,0.475,38,40.0
1220,F4,200.0,0.475,38,40.0
1221,C#5,200.5,0.5,58,40.0
1222,C#4,200.5,0.475,38,40.0
1223,F4,200.5,0.475,38,40.0
1224,C5,201.0,0.5,60,40.0
1225,G#3,201.0,2.0,44,40.0
1226,G#2,201.5,0.25,57,40.0
1227,E-4,201.5,0.475,38,40.0
1228,F#4,201.5,0.475,38,40.0
1229,E-3,202.0,0.25,60,40.0
1230,E-4,202.0,0.475,38,40.0
1231,F#4,202.0,0.475,38,40.0
1232,F3,202.5,0.25,63,40.0
1233,E-4,202.5,0.475,38,40.0
1234,F#4,202.5,0.475,38,40.0
1235,F#3,203.0,0.25,66,40.0
1236,G#3,203.0,2.0,44,40.0
1237,G#4,203.5,0.5,59,40.0
1238,E-4,203.5,0.475,38,40.0
1239,F#4,203.5,0.475,38,40.0
1240,F#5,204.0,0.5,62,40.0
1241,E-4,204.0,0.475,38,40.0
1242,F#4,204.0,0.475,38,40.0
1243,F5,204.5,0.5,65,40.0
1244,E-4,204.5,0.475,38,40.0
1245,F#4,204.5,0.475,38,40.0
1246,F5,205.0,0.125,60,40.0
1247,G#3,205.0,2.0,44,40.0
1248,F#5,205.125,0.125,60,40.0
1249,F5,205.25,0.25,67,40.0
1250,E-5,205.5,0.5,60,40.0
1251,E-4,205.5,0.475,38,40.0
1252,F#4,205.5,0.475,38,40.0
1253,E-5,206.0,0.125,60,40.0
1254,E-4,206.0,0.475,38,40.0
1255,F#4,206.0,0.475,38,40.0
1256,F5,206.125,0.125,60,40.0
1257,E-5,206.25,0.25,67,40.0
1258,C#5,206.5,0.5,60,40.0
1259,E-4,206.5,0.475,38,40.0
1260,F#4,206.5,0.475,38,40.0
1261,C#5,207.0,0.125,60,40.0
1262,G#3,207.0,2.0,44,40.0
1263,E-5,207.125,0.125,60,40.0
1264,C#5,207.25,0.25,66,40.0
1265,C5,207.5,0.5,60,40.0
1266,E-4,207.5,0.475,38,40.0
1267,F#4,207.5,0.475,38,40.0
1268,B-4,208.0,0.25,60,40.0
1269,E-4,208.0,0.475,38,40.0
1270,F#4,208.0,0.475,38,40.0
1271,C5,208.5,0.25,57,40.0
1272,E-4,208.5,0.475,38,40.0
1273,F#4,208.5,0.475,38,40.0
1274,C#5,209.0,0.5,60,40.0
1275,C#4,209.0,1.0,54,40.0
1276,C#3,209.5,0.5,73,40.0
1277,F4,209.5,0.5,53,40.0
1278,G#4,209.5,0.5,53,40.0
1279,G#3,210.0,0.5,77,40.0
1280,B3,210.0,1.0,60,40.0
1281,B2,210.5,0.25,73,40.0
1282,F4,210.5,0.5,53,40.0
1283,G#4,210.5,0.5,53,40.0
1284,B-2,211.0,0.25,77,40.0
1285,B-3,211.0,2.0,53,40.0
1286,B-4,211.5,0.5,59,40.0
1287,F4,211.5,0.475,38,40.0
1288,G#4,211.5,0.475,38,40.0
1289,G#5,212.0,0.5,62,40.0
1290,F4,212.0,0.475,38,40.0
1291,G#4,212.0,0.475,38,40.0
1292,F#5,212.5,0.5,65,40.0
1293,F4,212.5,0.475,38,40.0
1294,G#4,212.5,0.475,38,40.0
1295,F#5,213.0,0.125,60,40.0
1296,B-3,213.0,2.0,44,40.0
1297,G#5,213.125,0.125,60,40.0
1298,F#5,213.25,0.25,67,40.0
1299,F5,213.5,0.5,60,40.0
1300,F4,213.5,0.475,38,40.0
1301,G#4,213.5,0.475,38,40.0
1302,F5,214.0,0.125,60,40.0
1303,F4,214.0,0.475,38,40.0
1304,G#4,214.0,0.475,38,40.0
1305,F#5,214.125,0.125,60,40.0
1306,F5,214.25,0.25,67,40.0
1307,E-5,214.5,0.5,60,40.0
1308,F4,214.5,0.475,38,40.0
1309,G#4,214.5,0.475,38,40.0
1310,E-5,215.0,0.125,60,40.0
1311,B-3,215.0,2.0,44,40.0
1312,F5,215.125,0.125,60,40.0
1313,E-5,215.25,0.25,66,40.0
1314,D5,215.5,0.5,60,40.0
1315,F4,215.5,0.475,38,40.0
1316,G#4,215.5,0.475,38,40.0
1317,C5,216.0,0.25,60,40.0
1318,F4,216.0,0.475,38,40.0
1319,G#4,216.0,0.475,38,40.0
1320,D5,216.5,0.25,57,40.0
1321,F4,216.5,0.475,38,40.0
1322,G#4,216.5,0.475,38,40.0
1323,E-5,217.0,0.5,60,40.0
1324,E-4,217.0,1.0,54,40.0
1325,E-3,217.5,0.5,73,40.0
1326,F#4,217.5,0.5,53,40.0
1327,B-4,217.5,0.5,53,40.0
1328,B-3,218.0,0.5,77,40.0
1329,C#4,218.0,1.0,60,40.0
1330,C#3,218.5,0.25,73,40.0
1331,F4,218.5,0.5,53,40.0
1332,B-4,218.5,0.5,53,40.0
1333,C3,219.0,0.25,77,40.0
1334,C4,219.0,2.0,53,40.0
1335,C5,219.5,0.5,59,40.0
1336,G4,219.5,0.475,38,40.0
1337,B-4,219.5,0.475,38,40.0
1338,B-5,220.0,0.5,62,40.0
1339,G4,220.0,0.475,38,40.0
1340,B-4,220.0,0.475,38,40.0
1341,G#5,220.5,0.5,65,40.0
1342,G4,220.5,0.475,38,40.0
1343,B-4,220.5,0.475,38,40.0
1344,G#5,221.0,0.125,60,40.0
1345,C4,221.0,2.0,44,40.0
1346,B-5,221.125,0.125,60,40.0
1347,G#5,221.25,0.25,67,40.0
1348,G5,221.5,0.5,60,40.0
1349,G4,221.5,0.475,38,40.0
1350,B-4,221.5,0.475,38,40.0
1351,G5,222.0,0.125,60,40.0
1352,G4,222.0,0.475,38,40.0
1353,B-4,222.0,0.475,38,40.0
1354,G#5,222.125,0.125,60,40.0
1355,G5,222.25,0.25,67,40.0
1356,F5,222.5,0.5,60,40.0
1357,G4,222.5,0.475,38,40.0
1358,B-4,222.5,0.475,38,40.0
1359,F5,223.0,0.125,60,40.0
1360,C4,223.0,2.0,44,40.0
1361,G5,223.125,0.125,60,40.0
1362,F5,223.25,0.25,66,40.0
1363,E5,223.5,0.5,60,40.0
1364,G4,223.5,0.475,38,40.0
1365,B-4,223.5,0.475,38,40.0
1366,D5,224.0,0.5,60,40.0
1367,G4,224.0,0.475,38,40.0
1368,B-4,224.0,0.475,38,40.0
1369,E5,224.5,0.5,57,40.0
1370,G4,224.5,0.475,38,40.0
1371,B-4,224.5,0.475,38,40.0
1372,G5,225.0,0.125,60,40.0
1373,F4,225.0,2.0,44,40.0
1374,G#5,225.125,0.125,60,40.0
1375,G5,225.25,0.25,67,40.0
1376,F5,225.5,0.5,60,40.0
1377,G#4,225.5,0.475,38,40.0
1378,C5,225.5,0.475,38,40.0
1379,F5,226.0,0.125,60,40.0
1380,G#4,226.0,0.475,38,40.0
1381,C5,226.0,0.475,38,40.0
1382,G5,226.125,0.125,60,40.0
1383,F5,226.25,0.25,67,40.0
1384,E-5,226.5,0.5,60,40.0
1385,G#4,226.5,0.475,38,40.0
1386,C5,226.5,0.475,38,40.0
1387,E-5,227.0,0.125,60,40.0
1388,B-3,227.0,1.0,44,40.0
1389,F5,227.125,0.125,60,40.0
1390,E-5,227.25,0.25,66,40.0
1391,D5,227.5,0.5,60,40.0
1392,F4,227.5,0.475,38,40.0
1393,G#4,227.5,0.475,38,40.0
1394,C5,228.0,0.5,60,40.0
1395,B3,228.0,1.0,44,40.0
1396,F4,228.0,0.475,38,40.0
1397,G#4,228.0,0.475,38,40.0
1398,D5,228.5,0.5,57,40.0
1399,F4,228.5,0.475,38,40.0
1400,G#4,228.5,0.475,38,40.0
1401,F5,229.0,0.125,60,40.0
1402,C4,229.0,2.0,44,40.0
1403,G5,229.125,0.125,60,40.0
1404,F5,229.25,0.25,67,40.0
1405,E-5,229.5,0.5,59,40.0
1406,E-4,229.5,0.475,37,40.0
1407,G4,229.5,0.475,37,40.0
1408,E-5,230.0,0.125,58,40.0
1409,E-4,230.0,0.475,36,40.0
1410,G4,230.0,0.475,36,40.0
1411,F5,230.125,0.125,58,40.0
1412,E-5,230.25,0.25,64,40.0
1413,D5,230.5,0.5,57,40.0
1414,E-4,230.5,0.475,36,40.0
1415,G4,230.5,0.475,36,40.0
1416,D5,231.0,0.125,56,40.0
1417,G#3,231.0,2.0,41,40.0
1418,E-5,231.125,0.125,55,40.0
1419,D5,231.25,0.25,61,40.0
1420,C5,231.5,0.5,55,40.0
1421,E-4,231.5,0.475,34,40.0
1422,F4,231.5,0.475,34,40.0
1423,C5,232.0,0.125,54,40.0
1424,E-4,232.0,0.475,34,40.0
1425,F4,232.0,0.475,34,40.0
1426,D5,232.125,0.125,54,40.0
1427,C5,232.25,0.25,59,40.0
1428,B4,232.5,0.5,53,40.0
1429,E-4,232.5,0.475,33,40.0
1430,F4,232.5,0.475,33,40.0
1431,C5,233.0,0.125,52,40.0
1432,B-3,233.0,2.0,38,40.0
1433,D5,233.125,0.125,52,40.0
1434,C5,233.25,0.25,56,40.0
1435,B-4,233.5,0.5,51,40.0
1436,E-4,233.5,0.475,32,40.0
1437,G4,233.5,0.475,32,40.0
1438,B-4,234.0,0.188,50,40.0
1439,E-4,234.0,0.475,31,40.0
1440,G4,234.0,0.475,31,40.0
1441,B-4,234.5,0.188,46,40.0
1442,E-4,234.5,0.475,31,40.0
1443,G4,234.5,0.475,31,40.0
1444,C5,235.0,0.125,37,40.0
1445,B-3,235.0,2.0,27,40.0
1446,D5,235.125,0.125,37,40.0
1447,C5,235.25,0.25,41,40.0
1448,B-4,235.5,0.5,37,40.0
1449,D4,235.5,0.475,23,40.0
1450,F4,235.5,0.475,23,40.0
1451,B-4,236.0,0.188,37,40.0
1452,D4,236.0,0.475,23,40.0
1453,F4,236.0,0.475,23,40.0
1454,B-4,236.5,0.188,35,40.0
1455,D4,236.5,0.475,23,40.0
1456,F4,236.5,0.475,23,40.0
1457,E-3,237.0,3.0,36,40.0
1458,E-4,237.25,0.25,25,40.0
1459,B-3,237.25,0.25,24,40.0
1460,G4,237.5,0.25,29,40.0
1461,G3,237.5,0.25,26,40.0
1462,E-4,237.75,0.25,29,40.0
1463,B-3,237.75,0.25,24,40.0
1464,E-5,238.0,2.0,45,40.0
1465,G3,238.0,0.25,32,40.0
1466,E-4,238.25,0.25,28,40.0
1467,B-3,238.25,0.25,25,40.0
1468,G4,238.5,0.25,30,40.0
1469,G3,238.5,0.25,28,40.0
1470,E-4,238.75,0.25,28,40.0
1471,B-3,238.75,0.25,26,40.0
1472,G4,239.0,0.25,31,40.0
1473,G3,239.0,0.25,34,40.0
1474,E-4,239.25,0.25,30,40.0
1475,B-3,239.25,0.25,26,40.0
1476,G4,239.5,0.25,32,40.0
1477,G3,239.5,0.25,29,40.0
1478,E-4,239.75,0.25,29,40.0
1479,B-3,239.75,0.25,26,40.0
1480,E-5,240.0,1.0,50,40.0
1481,E-3,240.0,1.0,36,40.0
1482,E-4,240.25,0.25,30,40.0
1483,B-3,240.25,0.25,28,40.0
1484,G4,240.5,0.25,33,40.0
1485,G3,240.5,0.25,32,40.0
1486,E-4,240.75,0.25,32,40.0
1487,B-3,240.75,0.25,28,40.0
1488,C#3,241.0,3.0,45,40.0
1489,E-4,241.25,0.25,32,40.0
1490,B-3,241.25,0.25,30,40.0
1491,G4,241.5,0.25,36,40.0
1492,G3,241.5,0.25,32,40.0
1493,E-4,241.75,0.25,35,40.0
1494,B-3,241.75,0.25,29,40.0
1495,E-5,242.0,2.0,54,40.0
1496,G3,242.0,0.25,38,40.0
1497,E-4,242.25,0.25,33,40.0
1498,B-3,242.25,0.25,30,40.0
1499,G4,242.5,0.25,35,40.0
1500,G3,242.5,0.25,33,40.0
1501,E-4,242.75,0.25,32,40.0
1502,B-3,242.75,0.25,30,40.0
1503,G4,243.0,0.25,35,40.0
1504,G3,243.0,0.25,38,40.0
1505,E-4,243.25,0.25,33,40.0
1506,B-3,243.25,0.25,29,40.0
1507,G4,243.5,0.25,35,40.0
1508,G3,243.5,0.25,32,40.0
1509,E-4,243.75,0.25,32,40.0
1510,B-3,243.75,0.25,29,40.0
1511,E-5,244.0,1.0,53,40.0
1512,C#3,244.0,1.0,38,40.0
1513,E-4,244.25,0.25,32,40.0
1514,B-3,244.25,0.25,30,40.0
1515,G4,244.5,0.25,35,40.0
1516,G3,244.5,0.25,33,40.0
1517,E-4,244.75,0.25,33,40.0
1518,B-3,244.75,0.25,29,40.0
1519,E-5,245.0,0.188,66,40.0
1520,C3,245.0,0.188,55,40.0
1521,E-4,245.25,0.25,41,40.0
1522,G#3,245.25,0.25,36,40.0
1523,G#4,245.5,0.25,45,40.0
1524,E-3,245.5,0.25,39,40.0
1525,E-4,245.75,0.25,42,40.0
1526,G#3,245.75,0.25,35,40.0
1527,E5,246.0,0.188,67,40.0
1528,B-2,246.0,0.188,56,40.0
1529,E4,246.25,0.25,43,40.0
1530,G3,246.25,0.25,36,40.0
1531,C5,246.5,0.25,47,40.0
1532,C3,246.5,0.25,43,40.0
1533,E4,246.75,0.25,43,40.0
1534,G3,246.75,0.25,41,40.0
1535,F5,247.0,0.188,71,40.0
1536,G#2,247.0,0.188,58,40.0
1537,F4,247.25,0.25,45,40.0
1538,G#3,247.25,0.25,38,40.0
1539,C5,247.5,0.25,50,40.0
1540,C3,247.5,0.25,43,40.0
1541,F4,247.75,0.25,45,40.0
1542,G#3,247.75,0.25,38,40.0
1543,G5,248.0,0.188,72,40.0
1544,G2,248.0,0.188,60,40.0
1545,G4,248.25,0.25,47,40.0
1546,G3,248.25,0.25,40,40.0
1547,C5,248.5,0.25,50,40.0
1548,C3,248.5,0.25,43,40.0
1549,G4,248.75,0.25,47,40.0
1550,G3,248.75,0.25,38,40.0
1551,G#5,249.0,0.188,74,40.0
1552,F2,249.0,0.188,63,40.0
1553,G#4,249.25,0.25,49,40.0
1554,F3,249.25,0.25,42,40.0
1555,C5,249.5,0.25,54,40.0
1556,C3,249.5,0.25,45,40.0
1557,G#4,249.75,0.25,49,40.0
1558,F3,249.75,0.25,42,40.0
1559,A5,250.0,0.188,80,40.0
1560,E-2,250.0,0.188,66,40.0
1561,A4,250.25,0.25,50,40.0
1562,E-3,250.25,0.25,41,40.0
1563,C5,250.5,0.25,55,40.0
1564,F2,250.5,0.25,47,40.0
1565,A4,250.75,0.25,51,40.0
1566,E-3,250.75,0.25,41,40.0
1567,B-5,251.0,0.188,84,40.0
1568,D2,251.0,0.188,68,40.0
1569,B-4,251.25,0.25,51,40.0
1570,D3,251.25,0.25,45,40.0
1571,F5,251.5,0.25,58,40.0
1572,F2,251.5,0.25,49,40.0
1573,B-4,251.75,0.25,53,40.0
1574,D3,251.75,0.25,43,40.0
1575,C6,252.0,0.188,85,40.0
1576,C2,252.0,0.188,70,40.0
1577,C5,252.25,0.25,53,40.0
1578,C3,252.25,0.25,45,40.0
1579,F5,252.5,0.25,58,40.0
1580,F2,252.5,0.25,51,40.0
1581,C5,252.75,0.25,54,40.0
1582,C3,252.75,0.25,43,40.0
1583,C#6,253.0,0.188,85,40.0
1584,B-1,253.0,0.188,70,40.0
1585,C#5,253.25,0.25,55,40.0
1586,B-2,253.25,0.25,47,40.0
1587,F5,253.5,0.25,63,40.0
1588,F2,253.5,0.25,53,40.0
1589,C#5,253.75,0.25,55,40.0
1590,B-2,253.75,0.25,48,40.0
1591,D6,254.0,0.188,90,40.0
1592,G#1,254.0,0.188,72,40.0
1593,D5,254.25,0.25,57,40.0
1594,G#2,254.25,0.25,47,40.0
1595,F5,254.5,0.25,62,40.0
1596,F2,254.5,0.25,53,40.0
1597,D5,254.75,0.25,57,40.0
1598,G#2,254.75,0.25,50,40.0
1599,E-6,255.0,0.188,89,40.0
1600,G1,255.0,0.188,75,40.0
1601,E-5,255.25,0.25,59,40.0
1602,G2,255.25,0.25,50,40.0
1603,B-5,255.5,0.25,64,40.0
1604,E-2,255.5,0.25,55,40.0
1605,E-5,255.75,0.25,59,40.0
1606,G2,255.75,0.25,50,40.0
1607,B5,256.0,0.188,91,40.0
1608,G1,256.0,0.188,76,40.0
1609,B4,256.25,0.25,61,40.0
1610,G2,256.25,0.25,56,40.0
1611,E-5,256.5,0.25,67,40.0
1612,E-2,256.5,0.25,58,40.0
1613,B4,256.75,0.25,61,40.0
1614,G2,256.75,0.25,55,40.0
1615,G#1,257.0,0.5,78,40.0
1616,G#2,257.0,0.5,78,40.0
1617,C5,257.25,0.25,78,40.0
1618,E-5,257.5,0.25,84,40.0
1619,C5,257.75,0.25,78,40.0
1620,C6,258.0,0.188,88,40.0
1621,C5,258.25,0.25,78,40.0
1622,E-5,258.5,0.25,84,40.0
1623,C5,258.75,0.25,76,40.0
1624,B-2,259.0,0.5,78,40.0
1625,B-1,259.0,0.5,78,40.0
1626,F4,259.25,0.25,78,40.0
1627,G#4,259.5,0.25,84,40.0
1628,F4,259.75,0.25,78,40.0
1629,D5,260.0,0.188,88,40.0
1630,F4,260.25,0.25,78,40.0
1631,G#4,260.5,0.25,84,40.0
1632,F4,260.75,0.25,76,40.0
1633,E-3,261.0,3.0,45,40.0
1634,E-4,261.25,0.25,32,40.0
1635,B-3,261.25,0.25,30,40.0
1636,G4,261.5,0.25,36,40.0
1637,G3,261.5,0.25,32,40.0
1638,E-4,261.75,0.25,35,40.0
1639,B-3,261.75,0.25,29,40.0
1640,E-5,262.0,2.0,54,40.0
1641,G3,262.0,0.25,38,40.0
1642,E-4,262.25,0.25,33,40.0
1643,B-3,262.25,0.25,30,40.0
1644,G4,262.5,0.25,35,40.0
1645,G3,262.5,0.25,33,40.0
1646,E-4,262.75,0.25,32,40.0
1647,B-3,262.75,0.25,30,40.0
1648,G4,263.0,0.25,35,40.0
1649,G3,263.0,0.25,38,40.0
1650,E-4,263.25,0.25,33,40.0
1651,B-3,263.25,0.25,29,40.0
1652,G4,263.5,0.25,35,40.0
1653,G3,263.5,0.25,32,40.0
1654,E-4,263.75,0.25,32,40.0
1655,B-3,263.75,0.25,29,40.0
1656,E-5,264.0,1.0,53,40.0
1657,E-3,264.0,1.0,38,40.0
1658,E-4,264.25,0.25,32,40.0
1659,B-3,264.25,0.25,30,40.0
1660,G4,264.5,0.25,35,40.0
1661,G3,264.5,0.25,33,40.0
1662,E-4,264.75,0.25,33,40.0
1663,B-3,264.75,0.25,29,40.0
1664,C#3,265.0,3.0,45,40.0
1665,E-4,265.25,0.25,32,40.0
1666,B-3,265.25,0.25,30,40.0
1667,G4,265.5,0.25,36,40.0
1668,G3,265.5,0.25,32,40.0
1669,E-4,265.75,0.25,35,40.0
1670,B-3,265.75,0.25,29,40.0
1671,E-5,266.0,2.0,54,40.0
1672,G3,266.0,0.25,38,40.0
1673,E-4,266.25,0.25,33,40.0
1674,B-3,266.25,0.25,30,40.0
1675,G4,266.5,0.25,35,40.0
1676,G3,266.5,0.25,33,40.0
1677,E-4,266.75,0.25,32,40.0
1678,B-3,266.75,0.25,30,40.0
1679,G4,267.0,0.25,35,40.0
1680,G3,267.0,0.25,38,40.0
1681,E-4,267.25,0.25,33,40.0
1682,B-3,267.25,0.25,29,40.0
1683,G4,267.5,0.25,35,40.0
1684,G3,267.5,0.25,32,40.0
1685,E-4,267.75,0.25,32,40.0
1686,B-3,267.75,0.25,29,40.0
1687,E-5,268.0,1.0,53,40.0
1688,C#3,268.0,1.0,38,40.0
1689,E-4,268.25,0.25,32,40.0
1690,B-3,268.25,0.25,30,40.0
1691,G4,268.5,0.25,35,40.0
1692,G3,268.5,0.25,33,40.0
1693,E-4,268.75,0.25,33,40.0
1694,B-3,268.75,0.25,29,40.0
1695,E-5,269.0,0.188,66,40.0
1696,C3,269.0,0.188,55,40.0
1697,E-4,269.25,0.25,41,40.0
1698,G#3,269.25,0.25,36,40.0
1699,G#4,269.5,0.25,45,40.0
1700,E-3,269.5,0.25,39,40.0
1701,E-4,269.75,0.25,42,40.0
1702,G#3,269.75,0.25,35,40.0
1703,E5,270.0,0.188,67,40.0
1704,B-2,270.0,0.188,56,40.0
1705,E4,270.25,0.25,43,40.0
1706,G3,270.25,0.25,36,40.0
1707,C5,270.5,0.25,47,40.0
1708,C3,270.5,0.25,43,40.0
1709,E4,270.75,0.25,43,40.0
1710,G3,270.75,0.25,41,40.0
1711,F5,271.0,0.188,71,40.0
1712,G#2,271.0,0.188,58,40.0
1713,F4,271.25,0.25,45,40.0
1714,G#3,271.25,0.25,38,40.0
1715,C5,271.5,0.25,50,40.0
1716,C3,271.5,0.25,43,40.0
1717,F4,271.75,0.25,45,40.0
1718,G#3,271.75,0.25,38,40.0
1719,G5,272.0,0.188,72,40.0
1720,G2,272.0,0.188,60,40.0
1721,G4,272.25,0.25,47,40.0
1722,G3,272.25,0.25,40,40.0
1723,C5,272.5,0.25,50,40.0
1724,C3,272.5,0.25,43,40.0
1725,G4,272.75,0.25,47,40.0
1726,G3,272.75,0.25,38,40.0
1727,G#5,273.0,0.188,74,40.0
1728,F2,273.0,0.188,63,40.0
1729,G#4,273.25,0.25,49,40.0
1730,F3,273.25,0.25,42,40.0
1731,C5,273.5,0.25,54,40.0
1732,C3,273.5,0.25,45,40.0
1733,G#4,273.75,0.25,49,40.0
1734,F3,273.75,0.25,42,40.0
1735,A5,274.0,0.188,80,40.0
1736,E-2,274.0,0.188,66,40.0
1737,A4,274.25,0.25,50,40.0
1738,E-3,274.25,0.25,41,40.0
1739,C5,274.5,0.25,55,40.0
1740,F2,274.5,0.25,47,40.0
1741,A4,274.75,0.25,51,40.0
1742,E-3,274.75,0.25,41,40.0
1743,B-5,275.0,0.188,84,40.0
1744,D2,275.0,0.188,68,40.0
1745,B-4,275.25,0.25,51,40.0
1746,D3,275.25,0.25,45,40.0
1747,F5,275.5,0.25,58,40.0
1748,F2,275.5,0.25,49,40.0
1749,B-4,275.75,0.25,53,40.0
1750,D3,275.75,0.25,43,40.0
1751,C6,276.0,0.188,85,40.0
1752,C2,276.0,0.188,70,40.0
1753,C5,276.25,0.25,53,40.0
1754,C3,276.25,0.25,45,40.0
1755,F5,276.5,0.25,58,40.0
1756,F2,276.5,0.25,51,40.0
1757,C5,276.75,0.25,54,40.0
1758,C3,276.75,0.25,43,40.0
1759,C#6,277.0,0.188,85,40.0
1760,B-1,277.0,0.188,70,40.0
1761,C#5,277.25,0.25,55,40.0
1762,B-2,277.25,0.25,47,40.0
1763,F5,277.5,0.25,63,40.0
1764,F2,277.5,0.25,53,40.0
1765,C#5,277.75,0.25,55,40.0
1766,B-2,277.75,0.25,48,40.0
1767,D6,278.0,0.188,90,40.0
1768,G#1,278.0,0.188,72,40.0
1769,D5,278.25,0.25,57,40.0
1770,G#2,278.25,0.25,47,40.0
1771,F5,278.5,0.25,62,40.0
1772,F2,278.5,0.25,53,40.0
1773,D5,278.75,0.25,57,40.0
1774,G#2,278.75,0.25,50,40.0
1775,E-6,279.0,0.188,89,40.0
1776,G1,279.0,0.188,75,40.0
1777,E-5,279.25,0.25,59,40.0
1778,G2,279.25,0.25,50,40.0
1779,B-5,279.5,0.25,64,40.0
1780,E-2,279.5,0.25,55,40.0
1781,E-5,279.75,0.25,59,40.0
1782,G2,279.75,0.25,50,40.0
1783,E6,280.0,0.188,91,40.0
1784,G1,280.0,0.188,76,40.0
1785,E5,280.25,0.25,61,40.0
1786,G2,280.25,0.25,56,40.0
1787,B-5,280.5,0.25,67,40.0
1788,G1,280.5,0.25,58,40.0
1789,E5,280.75,0.25,61,40.0
1790,G2,280.75,0.25,55,40.0
1791,G#1,281.0,0.5,78,40.0
1792,G#2,281.0,0.5,78,40.0
1793,G#5,281.25,0.25,78,40.0
1794,C6,281.5,0.25,84,40.0
1795,G#5,281.75,0.25,78,40.0
1796,F6,282.0,0.188,88,40.0
1797,G#5,282.25,0.25,78,40.0
1798,C6,282.5,0.25,84,40.0
1799,G#5,282.75,0.25,76,40.0
1800,B-2,283.0,0.5,78,40.0
1801,B-1,283.0,0.5,78,40.0
1802,F5,283.25,0.25,78,40.0
1803,G#5,283.5,0.25,84,40.0
1804,F5,283.75,0.25,78,40.0
1805,D6,284.0,0.188,88,40.0
1806,F5,284.25,0.25,78,40.0
1807,G#5,284.5,0.25,84,40.0
1808,F5,284.75,0.25,76,40.0
1809,G5,285.0,0.188,81,40.0
1810,E-2,285.0,0.5,84,40.0
1811,E-3,285.0,0.5,84,40.0
1812,E-6,285.5,1.0,62,40.0
1813,E-4,285.5,0.475,34,40.0
1814,G4,285.5,0.475,34,40.0
1815,E-4,286.0,0.475,34,40.0
1816,G4,286.0,0.475,34,40.0
1817,D6,286.5,0.25,46,40.0
1818,E-4,286.5,0.475,34,40.0
1819,G4,286.5,0.475,34,40.0
1820,E-6,286.75,0.25,48,40.0
1821,F6,287.0,0.25,49,40.0
1822,C4,287.0,2.0,34,40.0
1823,E-6,287.25,0.25,49,40.0
1824,D6,287.5,0.25,48,40.0
1825,E-4,287.5,0.475,34,40.0
1826,G4,287.5,0.475,34,40.0
1827,C6,287.75,0.25,47,40.0
1828,B5,288.0,0.25,45,40.0
1829,E-4,288.0,0.475,34,40.0
1830,G4,288.0,0.475,34,40.0
1831,C6,288.25,0.25,46,40.0
1832,D6,288.5,0.25,49,40.0
1833,E-4,288.5,0.475,34,40.0
1834,G4,288.5,0.475,34,40.0
1835,C6,288.75,0.25,47,40.0
1836,B-5,289.0,0.25,49,40.0
1837,G#3,289.0,2.0,34,40.0
1838,G#5,289.25,0.25,47,40.0
1839,G5,289.5,0.25,46,40.0
1840,F4,289.5,0.475,34,40.0
1841,E-4,289.5,0.475,34,40.0
1842,F5,289.75,0.25,45,40.0
1843,E5,290.0,0.25,45,40.0
1844,E-4,290.0,0.475,34,40.0
1845,F4,290.0,0.475,34,40.0
1846,F5,290.25,0.25,45,40.0
1847,G5,290.5,0.25,47,40.0
1848,E-4,290.5,0.475,34,40.0
1849,F4,290.5,0.475,34,40.0
1850,F5,290.75,0.25,45,40.0
1851,E-5,291.0,0.25,46,40.0
1852,B-3,291.0,2.0,34,40.0
1853,D5,291.25,0.25,46,40.0
1854,C5,291.5,0.25,45,40.0
1855,D4,291.5,0.475,34,40.0
1856,F4,291.5,0.475,34,40.0
1857,B-4,291.75,0.25,45,40.0
1858,A4,292.0,0.25,45,40.0
1859,D4,292.0,0.475,34,40.0
1860,F4,292.0,0.475,34,40.0
1861,B-4,292.25,0.25,42,40.0
1862,C5,292.5,0.25,46,40.0
1863,D4,292.5,0.475,34,40.0
1864,F4,292.5,0.475,34,40.0
1865,G#4,292.75,0.25,42,40.0
1866,G4,293.0,0.188,66,40.0
1867,E-3,293.0,2.0,59,40.0
1868,E-5,293.5,1.0,68,40.0
1869,E-6,293.5,1.0,68,40.0
1870,G3,293.5,0.475,44,40.0
1871,E-4,293.5,0.475,44,40.0
1872,G3,294.0,0.475,44,40.0
1873,E-4,294.0,0.475,44,40.0
1874,D6,294.5,0.25,61,40.0
1875,G3,294.5,0.475,44,40.0
1876,E-4,294.5,0.475,44,40.0
1877,E-6,294.75,0.25,64,40.0
1878,F6,295.0,0.25,66,40.0
1879,C3,295.0,2.0,45,40.0
1880,E-6,295.25,0.25,66,40.0
1881,D6,295.5,0.25,65,40.0
1882,G3,295.5,0.475,46,40.0
1883,E-3,295.5,0.475,46,40.0
1884,C4,295.5,0.475,46,40.0
1885,C6,295.75,0.25,64,40.0
1886,B5,296.0,0.25,62,40.0
1887,G3,296.0,0.475,46,40.0
1888,E-3,296.0,0.475,46,40.0
1889,C4,296.0,0.475,46,40.0
1890,C6,296.25,0.25,64,40.0
1891,D6,296.5,0.25,68,40.0
1892,G3,296.5,0.475,47,40.0
1893,E-3,296.5,0.475,47,40.0
1894,C4,296.5,0.475,47,40.0
1895,C6,296.75,0.25,66,40.0
1896,B-5,297.0,0.25,69,40.0
1897,G#2,297.0,2.0,47,40.0
1898,G#5,297.25,0.25,67,40.0
1899,G5,297.5,0.25,66,40.0
1900,F3,297.5,0.475,48,40.0
1901,G#3,297.5,0.475,48,40.0
1902,E-3,297.5,0.475,48,40.0
1903,F5,297.75,0.25,65,40.0
1904,E5,298.0,0.25,65,40.0
1905,F3,298.0,0.475,48,40.0
1906,E-3,298.0,0.475,48,40.0
1907,G#3,298.0,0.475,48,40.0
1908,F5,298.25,0.25,64,40.0
1909,G5,298.5,0.25,68,40.0
1910,F3,298.5,0.475,49,40.0
1911,E-3,298.5,0.475,49,40.0
1912,G#3,298.5,0.475,49,40.0
1913,F5,298.75,0.25,66,40.0
1914,E-5,299.0,0.25,68,40.0
1915,B-2,299.0,2.0,49,40.0
1916,D5,299.25,0.25,68,40.0
1917,C5,299.5,0.25,68,40.0
1918,F3,299.5,0.475,50,40.0
1919,D3,299.5,0.475,50,40.0
1920,B-3,299.5,0.475,50,40.0
1921,B-4,299.75,0.25,68,40.0
1922,A4,300.0,0.25,67,40.0
1923,F3,300.0,0.475,50,40.0
1924,D3,300.0,0.475,50,40.0
1925,B-3,300.0,0.475,50,40.0
1926,B-4,300.25,0.25,64,40.0
1927,C5,300.5,0.25,70,40.0
1928,F3,300.5,0.475,51,40.0
1929,D3,300.5,0.475,51,40.0
1930,B-3,300.5,0.475,51,40.0
1931,B-4,300.75,0.25,64,40.0
1932,E-5,301.0,0.25,83,40.0
1933,E-2,301.0,0.475,67,40.0
1934,E-3,301.25,0.25,60,40.0
1935,E-4,301.5,1.0,82,40.0
1936,E-2,301.5,0.475,67,40.0
1937,E-3,301.75,0.25,59,40.0
1938,E-2,302.0,0.475,67,40.0
1939,E-3,302.25,0.25,60,40.0
1940,E-2,302.5,0.475,66,40.0
1941,C#4,302.5,0.25,80,40.0
1942,G4,302.5,0.25,80,40.0
1943,E-3,302.75,0.25,60,40.0
1944,E-2,303.0,0.475,66,40.0
1945,C4,303.0,0.25,81,40.0
1946,G#4,303.0,0.25,81,40.0
1947,E-3,303.25,0.25,59,40.0
1948,E-2,303.5,0.475,66,40.0
1949,G4,303.5,0.25,82,40.0
1950,B-4,303.5,0.25,82,40.0
1951,E-3,303.75,0.25,60,40.0
1952,E-2,304.0,0.475,66,40.0
1953,G#4,304.0,0.25,83,40.0
1954,C5,304.0,0.25,83,40.0
1955,E-3,304.25,0.25,60,40.0
1956,E-2,304.5,0.475,66,40.0
1957,G#4,304.5,0.25,85,40.0
1958,D5,304.5,0.25,85,40.0
1959,E-3,304.75,0.25,61,40.0
1960,E-2,305.0,0.475,67,40.0
1961,G4,305.0,0.25,83,40.0
1962,E-5,305.0,0.25,83,40.0
1963,E-3,305.25,0.25,60,40.0
1964,E-5,305.5,1.0,82,40.0
1965,E-2,305.5,0.475,67,40.0
1966,E-3,305.75,0.25,59,40.0
1967,E-2,306.0,0.475,67,40.0
1968,E-3,306.25,0.25,60,40.0
1969,E-2,306.5,0.475,66,40.0
1970,C#5,306.5,0.25,80,40.0
1971,G5,306.5,0.25,80,40.0
1972,E-3,306.75,0.25,60,40.0
1973,E-2,307.0,0.475,66,40.0
1974,C5,307.0,0.25,81,40.0
1975,G#5,307.0,0.25,81,40.0
1976,E-3,307.25,0.25,59,40.0
1977,E-2,307.5,0.475,66,40.0
1978,G5,307.5,0.25,82,40.0
1979,B-5,307.5,0.25,82,40.0
1980,E-3,307.75,0.25,60,40.0
1981,E-2,308.0,0.475,66,40.0
1982,G#5,308.0,0.25,83,40.0
1983,C6,308.0,0.25,83,40.0
1984,E-3,308.25,0.25,60,40.0
1985,E-2,308.5,0.475,66,40.0
1986,G#5,308.5,0.25,85,40.0
1987,D6,308.5,0.25,85,40.0
1988,E-3,308.75,0.25,61,40.0
1989,E-2,309.0,0.475,66,40.0
1990,E-6,309.0,2.0,94,40.0
1991,G5,309.0,2.0,94,40.0
1992,E-3,309.25,0.25,59,40.0
1993,E-2,309.5,0.475,66,40.0
1994,E-3,309.75,0.25,60,40.0
1995,E-2,310.0,0.475,66,40.0
1996,E-3,310.25,0.25,60,40.0
1997,E-2,310.5,0.475,66,40.0
1998,E-3,310.75,0.25,61,40.0
1999,D2,311.0,0.475,66,40.0
2000,G4,311.0,2.0,88,40.0
2001,E-5,311.0,2.0,88,40.0
2002,D3,311.25,0.25,59,40.0
2003,D2,311.5,0.475,66,40.0
2004,D3,311.75,0.25,60,40.0
2005,D2,312.0,0.475,66,40.0
2006,D3,312.25,0.25,60,40.0
2007,D2,312.5,0.475,66,40.0
2008,D3,312.75,0.25,61,40.0
2009,C2,313.0,0.475,66,40.0
2010,E-6,313.0,2.0,99,40.0
2011,G5,313.0,2.0,99,40.0
2012,C3,313.25,0.25,59,40.0
2013,C2,313.5,0.475,66,40.0
2014,C3,313.75,0.25,60,40.0
2015,C2,314.0,0.475,66,40.0
2016,C3,314.25,0.25,60,40.0
2017,C2,314.5,0.475,66,40.0
2018,C3,314.75,0.25,61,40.0
2019,B-1,315.0,0.475,66,40.0
2020,G4,315.0,2.0,92,40.0
2021,E-5,315.0,2.0,92,40.0
2022,B-2,315.25,0.25,59,40.0
2023,B-1,315.5,0.475,66,40.0
2024,B-2,315.75,0.25,60,40.0
2025,B-1,316.0,0.475,66,40.0
2026,B-2,316.25,0.25,60,40.0
2027,B-1,316.5,0.475,66,40.0
2028,B-2,316.75,0.25,61,40.0
2029,G#1,317.0,0.475,66,40.0
2030,E-6,317.0,2.0,102,40.0
2031,C6,317.0,2.0,102,40.0
2032,G#2,317.25,0.25,59,40.0
2033,G#1,317.5,0.475,66,40.0
2034,G#2,317.75,0.25,60,40.0
2035,G#1,318.0,0.475,66,40.0
2036,G#2,318.25,0.25,60,40.0
2037,G#1,318.5,0.475,66,40.0
2038,G#2,318.75,0.25,61,40.0
2039,G1,319.0,0.475,66,40.0
2040,C5,319.0,2.0,96,40.0
2041,E-5,319.0,2.0,96,40.0
2042,G2,319.25,0.25,59,40.0
2043,G1,319.5,0.475,66,40.0
2044,G2,319.75,0.25,60,40.0
2045,G1,320.0,0.475,66,40.0
2046,G2,320.25,0.25,60,40.0
2047,G1,320.5,0.475,66,40.0
2048,G2,320.75,0.25,61,40.0
2049,C6,321.0,2.0,93,40.0
2050,A5,321.0,2.0,93,40.0
2051,D6,321.0,2.0,93,40.0
2052,F#1,321.0,2.0,68,40.0
2053,F#2,321.0,2.0,68,40.0
2054,F3,323.0,2.0,97,40.0
2055,B3,323.0,2.0,97,40.0
2056,D4,323.0,2.0,97,40.0
2057,G1,323.0,2.0,78,40.0
2058,G2,323.0,2.0,78,40.0
2059,C4,325.0,1.5,50,40.0
2060,C2,325.0,0.475,44,40.0
2061,C3,325.25,0.25,41,40.0
2062,C2,325.5,0.475,44,40.0
2063,C3,325.75,0.25,41,40.0
2064,C2,326.0,0.475,44,40.0
2065,C3,326.25,0.25,41,40.0
2066,C2,326.5,0.475,45,40.0
2067,B-3,326.5,0.188,52,40.0
2068,E4,326.5,0.188,52,40.0
2069,C3,326.75,0.25,41,40.0
2070,C2,327.0,0.475,45,40.0
2071,G#3,327.0,0.188,54,40.0
2072,F4,327.0,0.188,54,40.0
2073,C3,327.25,0.25,46,40.0
2074,C2,327.5,0.475,47,40.0
2075,E4,327.5,0.188,56,40.0
2076,G4,327.5,0.188,56,40.0
2077,C3,327.75,0.25,47,40.0
2078,C2,328.0,0.475,49,40.0
2079,F4,328.0,0.188,57,40.0
2080,G#4,328.0,0.188,57,40.0
2081,C3,328.25,0.25,50,40.0
2082,C2,328.5,0.475,51,40.0
2083,D4,328.5,0.188,59,40.0
2084,B4,328.5,0.188,59,40.0
2085,C3,328.75,0.25,53,40.0
2086,C2,329.0,0.475,55,40.0
2087,E-4,329.0,0.188,61,40.0
2088,C5,329.0,0.188,61,40.0
2089,C3,329.25,0.25,50,40.0
2090,C2,329.5,0.475,53,40.0
2091,E4,329.5,1.0,55,40.0
2092,C5,329.5,1.0,55,40.0
2093,C3,329.75,0.25,47,40.0
2094,C2,330.0,0.475,53,40.0
2095,C3,330.25,0.25,47,40.0
2096,C2,330.5,0.475,44,40.0
2097,B-4,330.5,0.188,51,40.0
2098,E5,330.5,0.188,51,40.0
2099,C3,330.75,0.25,40,40.0
2100,C2,331.0,0.475,43,40.0
2101,G#4,331.0,0.188,53,40.0
2102,F5,331.0,0.188,53,40.0
2103,C3,331.25,0.25,45,40.0
2104,C2,331.5,0.475,46,40.0
2105,E5,331.5,0.188,55,40.0
2106,G5,331.5,0.188,55,40.0
2107,C3,331.75,0.25,47,40.0
2108,C2,332.0,0.475,48,40.0
2109,F5,332.0,0.188,57,40.0
2110,G#5,332.0,0.188,57,40.0
2111,C3,332.25,0.25,50,40.0
2112,C2,332.5,0.475,51,40.0
2113,D5,332.5,0.188,59,40.0
2114,B5,332.5,0.188,59,40.0
2115,C3,332.75,0.25,53,40.0
2116,C2,333.0,0.475,55,40.0
2117,C5,333.0,1.0,56,40.0
2118,G5,333.0,1.0,56,40.0
2119,E-5,333.0,1.0,56,40.0
2120,C6,333.0,1.0,56,40.0
2121,C3,333.25,0.25,50,40.0
2122,C2,333.5,0.475,53,40.0
2123,C3,333.75,0.25,47,40.0
2124,D2,334.0,0.475,55,40.0
2125,G4,334.0,1.0,58,40.0
2126,B4,334.0,1.0,58,40.0
2127,F5,334.0,1.0,58,40.0
2128,G5,334.0,1.0,58,40.0
2129,D3,334.25,0.25,50,40.0
2130,D2,334.5,0.475,55,40.0
2131,D3,334.75,0.25,51,40.0
2132,E-2,335.0,0.475,55,40.0
2133,G4,335.0,1.0,60,40.0
2134,C5,335.0,1.0,60,40.0
2135,E-5,335.0,1.0,60,40.0
2136,E-3,335.25,0.25,55,40.0
2137,E-2,335.5,0.475,55,40.0
2138,E-3,335.75,0.25,55,40.0
2139,F2,336.0,0.475,55,40.0
2140,F4,336.0,1.0,64,40.0
2141,G#4,336.0,1.0,64,40.0
2142,D5,336.0,1.0,64,40.0
2143,F3,336.25,0.25,53,40.0
2144,F2,336.5,0.475,55,40.0
2145,F3,336.75,0.25,55,40.0
2146,G4,337.0,1.0,74,40.0
2147,G2,337.0,0.475,56,40.0
2148,E-4,337.0,3.0,68,40.0
2149,C5,337.0,3.0,68,40.0
2150,G3,337.25,0.25,56,40.0
2151,G2,337.5,0.475,57,40.0
2152,G3,337.75,0.25,57,40.0
2153,F#4,338.0,1.0,74,40.0
2154,G#2,338.0,0.475,58,40.0
2155,G#3,338.25,0.25,59,40.0
2156,G#2,338.5,0.475,59,40.0
2157,G#3,338.75,0.25,60,40.0
2158,A4,339.0,1.0,77,40.0
2159,F#2,339.0,0.475,60,40.0
2160,F#3,339.25,0.25,55,40.0
2161,F#2,339.5,0.475,61,40.0
2162,F#3,339.75,0.25,55,40.0
2163,G2,340.0,0.475,58,40.0
2164,D4,340.0,1.0,66,40.0
2165,F4,340.0,1.0,66,40.0
2166,B4,340.0,1.0,66,40.0
2167,G3,340.25,0.25,55,40.0
2168,G2,340.5,0.475,58,40.0
2169,G3,340.75,0.25,55,40.0
2170,C2,341.0,0.475,48,40.0
2171,C4,341.0,0.188,71,40.0
2172,E-4,341.0,0.188,71,40.0
2173,C5,341.0,0.188,71,40.0
2174,C3,341.25,0.25,45,40.0
2175,C4,341.5,1.0,67,40.0
2176,C2,341.5,0.475,44,40.0
2177,C3,341.75,0.25,41,40.0
2178,C2,342.0,0.475,44,40.0
2179,C3,342.25,0.25,40,40.0
2180,C2,342.5,0.475,44,40.0
2181,B-3,342.5,0.188,52,40.0
2182,E4,342.5,0.188,52,40.0
2183,C3,342.75,0.25,41,40.0
2184,C2,343.0,0.475,44,40.0
2185,G#3,343.0,0.188,54,40.0
2186,F4,343.0,0.188,54,40.0
2187,C3,343.25,0.25,46,40.0
2188,C2,343.5,0.475,47,40.0
2189,E4,343.5,0.188,55,40.0
2190,G4,343.5,0.188,55,40.0
2191,C3,343.75,0.25,47,40.0
2192,C2,344.0,0.475,49,40.0
2193,F4,344.0,0.188,57,40.0
2194,G#4,344.0,0.188,57,40.0
2195,C3,344.25,0.25,50,40.0
2196,C2,344.5,0.475,51,40.0
2197,D4,344.5,0.188,59,40.0
2198,B4,344.5,0.188,59,40.0
2199,C3,344.75,0.25,53,40.0
2200,C2,345.0,0.475,55,40.0
2201,E-4,345.0,0.188,61,40.0
2202,C5,345.0,0.188,61,40.0
2203,C3,345.25,0.25,50,40.0
2204,C2,345.5,0.475,53,40.0
2205,E4,345.5,1.0,55,40.0
2206,C5,345.5,1.0,55,40.0
2207,C3,345.75,0.25,47,40.0
2208,C2,346.0,0.475,53,40.0
2209,C3,346.25,0.25,47,40.0
2210,C2,346.5,0.475,44,40.0
2211,B-4,346.5,0.188,51,40.0
2212,E5,346.5,0.188,51,40.0
2213,C3,346.75,0.25,40,40.0
2214,C2,347.0,0.475,43,40.0
2215,G#4,347.0,0.188,53,40.0
2216,F5,347.0,0.188,53,40.0
2217,C3,347.25,0.25,45,40.0
2218,C2,347.5,0.475,46,40.0
2219,E5,347.5,0.188,55,40.0
2220,G5,347.5,0.188,55,40.0
2221,C3,347.75,0.25,47,40.0
2222,C2,348.0,0.475,48,40.0
2223,F5,348.0,0.188,57,40.0
2224,G#5,348.0,0.188,57,40.0
2225,C3,348.25,0.25,50,40.0
2226,C2,348.5,0.475,51,40.0
2227,D5,348.5,0.188,59,40.0
2228,B5,348.5,0.188,59,40.0
2229,C3,348.75,0.25,53,40.0
2230,C2,349.0,0.475,55,40.0
2231,C5,349.0,1.0,56,40.0
2232,G5,349.0,1.0,56,40.0
2233,E-5,349.0,1.0,56,40.0
2234,C6,349.0,1.0,56,40.0
2235,C3,349.25,0.25,50,40.0
2236,C2,349.5,0.475,53,40.0
2237,C3,349.75,0.25,47,40.0
2238,D2,350.0,0.475,55,40.0
2239,G4,350.0,1.0,58,40.0
2240,B4,350.0,1.0,58,40.0
2241,F5,350.0,1.0,58,40.0
2242,G5,350.0,1.0,58,40.0
2243,D3,350.25,0.25,50,40.0
2244,D2,350.5,0.475,55,40.0
2245,D3,350.75,0.25,51,40.0
2246,E-2,351.0,0.475,55,40.0
2247,G4,351.0,1.0,60,40.0
2248,C5,351.0,1.0,60,40.0
2249,E-5,351.0,1.0,60,40.0
2250,E-3,351.25,0.25,55,40.0
2251,E-2,351.5,0.475,55,40.0
2252,E-3,351.75,0.25,55,40.0
2253,F2,352.0,0.475,55,40.0
2254,F4,352.0,1.0,64,40.0
2255,G#4,352.0,1.0,64,40.0
2256,D5,352.0,1.0,64,40.0
2257,F3,352.25,0.25,53,40.0
2258,F2,352.5,0.475,55,40.0
2259,F3,352.75,0.25,55,40.0
2260,G4,353.0,1.0,74,40.0
2261,G2,353.0,0.475,56,40.0
2262,E-4,353.0,4.0,68,40.0
2263,C5,353.0,4.0,68,40.0
2264,G3,353.25,0.25,56,40.0
2265,G2,353.5,0.475,57,40.0
2266,G3,353.75,0.25,57,40.0
2267,F#4,354.0,1.0,74,40.0
2268,G#2,354.0,0.475,58,40.0
2269,G#3,354.25,0.25,59,40.0
2270,G#2,354.5,0.475,59,40.0
2271,G#3,354.75,0.25,60,40.0
2272,A4,355.0,2.0,77,40.0
2273,F#2,355.0,0.475,60,40.0
2274,F#3,355.25,0.25,55,40.0
2275,F#2,355.5,0.475,61,40.0
2276,F#3,355.75,0.25,55,40.0
2277,F#2,356.0,0.475,58,40.0
2278,F#3,356.25,0.25,55,40.0
2279,F#2,356.5,0.475,58,40.0
2280,F#3,356.75,0.25,55,40.0
2281,D4,357.0,0.5,55,40.0
2282,G4,357.0,0.5,55,40.0
2283,B4,357.0,0.5,55,40.0
2284,G2,357.0,0.5,55,40.0
2285,G3,357.0,0.5,55,40.0
2286,D4,357.5,0.475,50,40.0
2287,B3,357.5,0.475,50,40.0
2288,G4,358.0,1.5,80,40.0
2289,G5,358.0,1.5,80,40.0
2290,D4,358.0,0.475,50,40.0
2291,B3,358.0,0.475,50,40.0
2292,B3,358.5,0.475,50,40.0
2293,D4,358.5,0.475,50,40.0
2294,G3,359.0,0.5,50,40.0
2295,E-4,359.5,0.475,50,40.0
2296,C4,359.5,0.475,50,40.0
2297,G4,360.0,1.25,80,40.0
2298,G5,360.0,1.25,80,40.0
2299,E-4,360.0,0.475,50,40.0
2300,C4,360.0,0.475,50,40.0
2301,E-4,360.5,0.475,50,40.0
2302,C4,360.5,0.475,50,40.0
2303,F4,361.0,0.5,50,40.0
2304,D4,361.0,0.5,50,40.0
2305,F5,361.25,0.25,70,40.0
2306,D5,361.5,0.25,69,40.0
2307,B4,361.75,0.25,69,40.0
2308,G4,362.0,0.25,68,40.0
2309,F4,362.25,0.25,67,40.0
2310,D4,362.5,0.25,66,40.0
2311,B3,362.75,0.25,65,40.0
2312,C4,363.0,0.25,65,40.0
2313,E-4,363.25,0.25,64,40.0
2314,C4,363.5,0.25,65,40.0
2315,G3,363.75,0.25,65,40.0
2316,F#3,364.0,0.25,64,40.0
2317,G#1,364.0,0.25,55,40.0
2318,C4,364.25,0.25,64,40.0
2319,G#2,364.25,0.25,55,40.0
2320,G#3,364.5,0.25,63,40.0
2321,G#1,364.5,0.25,55,40.0
2322,F#3,364.75,0.25,65,40.0
2323,G#2,364.75,0.25,55,40.0
2324,G3,365.0,0.5,67,40.0
2325,G1,365.0,0.5,50,40.0
2326,G2,365.0,0.5,50,40.0
2327,D4,365.5,0.475,50,40.0
2328,B3,365.5,0.475,50,40.0
2329,G4,366.0,1.5,80,40.0
2330,G5,366.0,1.5,80,40.0
2331,D4,366.0,0.475,50,40.0
2332,B3,366.0,0.475,50,40.0
2333,B3,366.5,0.5,50,40.0
2334,D4,366.5,0.5,50,40.0
2335,G3,367.0,0.5,50,40.0
2336,E-4,367.5,0.475,50,40.0
2337,C4,367.5,0.475,50,40.0
2338,G4,368.0,1.25,80,40.0
2339,G5,368.0,1.25,80,40.0
2340,E-4,368.0,0.475,50,40.0
2341,C4,368.0,0.475,50,40.0
2342,E-4,368.5,0.475,50,40.0
2343,C4,368.5,0.475,50,40.0
2344,F4,369.0,0.5,50,40.0
2345,D4,369.0,0.5,50,40.0
2346,F5,369.25,0.25,72,40.0
2347,D5,369.5,0.25,71,40.0
2348,B4,369.75,0.25,70,40.0
2349,G4,370.0,0.25,69,40.0
2350,F4,370.25,0.25,68,40.0
2351,D4,370.5,0.25,67,40.0
2352,B3,370.75,0.25,66,40.0
2353,C4,371.0,0.25,65,40.0
2354,E-4,371.25,0.25,64,40.0
2355,C4,371.5,0.25,64,40.0
2356,G3,371.75,0.25,67,40.0
2357,F#3,372.0,0.25,66,40.0
2358,G#1,372.0,0.475,55,40.0
2359,C4,372.25,0.25,64,40.0
2360,G#2,372.25,0.25,55,40.0
2361,G#3,372.5,0.25,62,40.0
2362,G#1,372.5,0.475,55,40.0
2363,F#3,372.75,0.25,60,40.0
2364,G#2,372.75,0.25,49,40.0
2365,G3,373.0,0.5,67,40.0
2366,G1,373.0,0.475,50,40.0
2367,G2,373.25,0.25,51,40.0
2368,F#4,373.5,0.188,67,40.0
2369,G1,373.5,0.475,51,40.0
2370,G2,373.75,0.25,52,40.0
2371,G4,374.0,0.188,69,40.0
2372,G1,374.0,0.475,53,40.0
2373,G2,374.25,0.25,54,40.0
2374,G1,374.5,0.475,55,40.0
2375,F#4,374.5,0.188,71,40.0
2376,C5,374.5,0.188,71,40.0
2377,G2,374.75,0.25,56,40.0
2378,G1,375.0,0.475,57,40.0
2379,G4,375.0,0.188,73,40.0
2380,B4,375.0,0.188,73,40.0
2381,G2,375.25,0.25,58,40.0
2382,G1,375.5,0.475,59,40.0
2383,C5,375.5,0.188,75,40.0
2384,F#5,375.5,0.188,75,40.0
2385,G2,375.75,0.25,60,40.0
2386,G1,376.0,0.475,61,40.0
2387,B4,376.0,0.188,77,40.0
2388,G5,376.0,0.188,77,40.0
2389,G2,376.25,0.25,61,40.0
2390,G1,376.5,0.475,62,40.0
2391,C6,376.5,0.188,79,40.0
2392,F#5,376.5,0.188,79,40.0
2393,G2,376.75,0.25,63,40.0
2394,G1,377.0,0.475,64,40.0
2395,B5,377.0,0.25,81,40.0
2396,G5,377.0,0.25,81,40.0
2397,G2,377.25,0.25,55,40.0
2398,G1,377.5,0.475,61,40.0
2399,G2,377.75,0.25,55,40.0
2400,G1,378.0,0.475,61,40.0
2401,G2,378.25,0.25,55,40.0
2402,G1,378.5,0.475,60,40.0
2403,G2,378.75,0.25,55,40.0
2404,E-4,379.0,2.5,84,40.0
2405,G1,379.0,0.475,64,40.0
2406,B-3,379.0,2.0,81,40.0
2407,C#4,379.0,2.0,81,40.0
2408,G2,379.25,0.25,55,40.0
2409,G1,379.5,0.475,61,40.0
2410,G2,379.75,0.25,55,40.0
2411,G1,380.0,0.475,61,40.0
2412,G2,380.25,0.25,55,40.0
2413,G1,380.5,0.475,60,40.0
2414,G2,380.75,0.25,55,40.0
2415,C4,381.0,0.5,67,40.0
2416,G#1,381.0,0.475,50,40.0
2417,G#2,381.25,0.25,51,40.0
2418,C#5,381.5,0.188,67,40.0
2419,G#1,381.5,0.475,51,40.0
2420,G#2,381.75,0.25,52,40.0
2421,C5,382.0,0.188,69,40.0
2422,G#1,382.0,0.475,53,40.0
2423,G#2,382.25,0.25,54,40.0
2424,G#1,382.5,0.475,55,40.0
2425,C#5,382.5,0.188,71,40.0
2426,G5,382.5,0.188,71,40.0
2427,G#2,382.75,0.25,56,40.0
2428,G#1,383.0,0.475,57,40.0
2429,C5,383.0,0.188,73,40.0
2430,G#5,383.0,0.188,73,40.0
2431,G#2,383.25,0.25,58,40.0
2432,G#1,383.5,0.475,59,40.0
2433,G5,383.5,0.188,75,40.0
2434,C#6,383.5,0.188,75,40.0
2435,G#2,383.75,0.25,60,40.0
2436,G#1,384.0,0.475,61,40.0
2437,G#5,384.0,0.188,77,40.0
2438,C6,384.0,0.188,77,40.0
2439,G#2,384.25,0.25,61,40.0
2440,G#1,384.5,0.475,62,40.0
2441,C#6,384.5,0.188,79,40.0
2442,G5,384.5,0.188,79,40.0
2443,G#2,384.75,0.25,63,40.0
2444,G#1,385.0,0.475,64,40.0
2445,C6,385.0,0.25,81,40.0
2446,G#5,385.0,0.25,81,40.0
2447,G#2,385.25,0.25,55,40.0
2448,G#1,385.5,0.475,61,40.0
2449,G#2,385.75,0.25,55,40.0
2450,G#1,386.0,0.475,61,40.0
2451,G#2,386.25,0.25,55,40.0
2452,G#1,386.5,0.475,60,40.0
2453,G#2,386.75,0.25,55,40.0
2454,A1,387.0,0.475,64,40.0
2455,C4,387.0,2.0,82,40.0
2456,E-4,387.0,2.0,82,40.0
2457,F#4,387.0,2.0,82,40.0
2458,A2,387.25,0.25,55,40.0
2459,A1,387.5,0.475,61,40.0
2460,A2,387.75,0.25,55,40.0
2461,A1,388.0,0.475,61,40.0
2462,A2,388.25,0.25,55,40.0
2463,A1,388.5,0.475,60,40.0
2464,A2,388.75,0.25,55,40.0
2465,B-1,389.0,0.475,50,40.0
2466,D4,389.0,0.5,67,40.0
2467,F4,389.0,0.5,67,40.0
2468,B-2,389.25,0.25,51,40.0
2469,B-1,389.5,0.475,51,40.0
2470,A4,389.5,0.188,64,40.0
2471,E-5,389.5,0.188,64,40.0
2472,B-2,389.75,0.25,52,40.0
2473,B-1,390.0,0.475,53,40.0
2474,B-4,390.0,0.188,67,40.0
2475,D5,390.0,0.188,67,40.0
2476,B-2,390.25,0.25,54,40.0
2477,B-1,390.5,0.475,55,40.0
2478,E-5,390.5,0.188,71,40.0
2479,A5,390.5,0.188,71,40.0
2480,B-2,390.75,0.25,56,40.0
2481,B-1,391.0,0.475,57,40.0
2482,D5,391.0,0.188,73,40.0
2483,B-5,391.0,0.188,73,40.0
2484,B-2,391.25,0.25,58,40.0
2485,B-1,391.5,0.475,59,40.0
2486,A5,391.5,0.188,75,40.0
2487,E-6,391.5,0.188,75,40.0
2488,B-2,391.75,0.25,60,40.0
2489,B-1,392.0,0.475,61,40.0
2490,B-5,392.0,0.188,77,40.0
2491,D6,392.0,0.188,77,40.0
2492,B-2,392.25,0.25,61,40.0
2493,B-1,392.5,0.475,62,40.0
2494,E-6,392.5,0.188,79,40.0
2495,A5,392.5,0.188,79,40.0
2496,B-2,392.75,0.25,63,40.0
2497,B-1,393.0,0.475,64,40.0
2498,D6,393.0,0.25,81,40.0
2499,B-5,393.0,0.25,81,40.0
2500,B-2,393.25,0.25,55,40.0
2501,B-1,393.5,0.475,61,40.0
2502,B-2,393.75,0.25,55,40.0
2503,B-1,394.0,0.475,61,40.0
2504,E-5,394.0,1.0,81,40.0
2505,A5,394.0,1.0,81,40.0
2506,B-2,394.25,0.25,55,40.0
2507,B-1,394.5,0.475,60,40.0
2508,B-2,394.75,0.25,55,40.0
2509,B-1,395.0,0.475,64,40.0
2510,D5,395.0,0.5,81,40.0
2511,B-5,395.0,0.5,81,40.0
2512,B-2,395.25,0.25,55,40.0
2513,B-1,395.5,0.475,61,40.0
2514,B-2,395.75,0.25,55,40.0
2515,B-1,396.0,0.475,61,40.0
2516,A4,396.0,1.0,81,40.0
2517,E-5,396.0,1.0,81,40.0
2518,B-2,396.25,0.25,55,40.0
2519,B-1,396.5,0.475,60,40.0
2520,B-2,396.75,0.25,55,40.0
2521,B-1,397.0,0.475,64,40.0
2522,B-4,397.0,0.5,81,40.0
2523,D5,397.0,0.5,81,40.0
2524,B-2,397.25,0.25,55,40.0
2525,B-1,397.5,0.475,61,40.0
2526,B-2,397.75,0.25,55,40.0
2527,B-1,398.0,0.475,61,40.0
2528,E-4,398.0,1.0,81,40.0
2529,A4,398.0,1.0,81,40.0
2530,B-2,398.25,0.25,55,40.0
2531,B-1,398.5,0.475,60,40.0
2532,B-2,398.75,0.25,55,40.0
2533,B-1,399.0,0.475,64,40.0
2534,D4,399.0,0.5,81,40.0
2535,B-4,399.0,0.5,81,40.0
2536,B-2,399.25,0.25,55,40.0
2537,B-1,399.5,0.475,61,40.0
2538,B-2,399.75,0.25,55,40.0
2539,B-1,400.0,0.475,61,40.0
2540,A3,400.0,1.0,81,40.0
2541,E-4,400.0,1.0,81,40.0
2542,B-2,400.25,0.25,55,40.0
2543,B-1,400.5,0.475,60,40.0
2544,B-2,400.75,0.25,55,40.0
2545,B-3,401.0,0.5,81,40.0
2546,D4,401.0,0.5,81,40.0
2547,B-2,401.0,0.5,60,40.0
2548,B-1,401.0,0.5,60,40.0
2549,A3,401.5,0.5,50,40.0
2550,B-3,402.0,0.5,59,40.0
2551,A3,402.5,0.5,56,40.0
2552,B-3,403.0,0.5,57,40.0
2553,A3,403.5,0.5,49,40.0
2554,B-3,404.0,0.5,57,40.0
2555,A3,404.5,0.5,51,40.0
2556,B-3,405.0,2.0,44,40.0
2557,B-2,405.5,0.25,55,40.0
2558,E-4,405.5,0.475,38,40.0
2559,F#4,405.5,0.475,38,40.0
2560,E-3,406.0,0.25,58,40.0
2561,E-4,406.0,0.475,38,40.0
2562,F#4,406.0,0.475,38,40.0
2563,F3,406.5,0.25,61,40.0
2564,E-4,406.5,0.475,38,40.0
2565,F#4,406.5,0.475,38,40.0
2566,F#3,407.0,0.25,64,40.0
2567,B-3,407.0,2.0,44,40.0
2568,B-4,407.5,0.25,62,40.0
2569,E-4,407.5,0.475,38,40.0
2570,F#4,407.5,0.475,38,40.0
2571,E-5,408.0,0.25,64,40.0
2572,E-4,408.0,0.475,38,40.0
2573,F#4,408.0,0.475,38,40.0
2574,F5,408.5,0.25,66,40.0
2575,E-4,408.5,0.5,38,40.0
2576,F#4,408.5,0.5,38,40.0
2577,B-4,408.875,0.125,65,40.0
2578,F#5,409.0,1.5,75,40.0
2579,B-3,409.0,2.0,44,40.0
2580,E-4,409.5,0.475,38,40.0
2581,F#4,409.5,0.475,38,40.0
2582,E-4,410.0,0.475,38,40.0
2583,F#4,410.0,0.475,38,40.0
2584,E-5,410.5,0.5,63,40.0
2585,E-4,410.5,0.475,38,40.0
2586,F#4,410.5,0.475,38,40.0
2587,B-4,410.875,0.125,60,40.0
2588,F#5,411.0,1.5,71,40.0
2589,B-3,411.0,2.0,44,40.0
2590,E-4,411.5,0.475,38,40.0
2591,F#4,411.5,0.475,38,40.0
2592,E-4,412.0,0.475,38,40.0
2593,F#4,412.0,0.475,38,40.0
2594,E-5,412.5,0.5,58,40.0
2595,E-4,412.5,0.475,38,40.0
2596,F#4,412.5,0.475,38,40.0
2597,D5,413.0,0.5,60,40.0
2598,B-3,413.0,2.0,44,40.0
2599,B-2,413.5,0.25,57,40.0
2600,F4,413.5,0.475,38,40.0
2601,G#4,413.5,0.475,38,40.0
2602,F3,414.0,0.25,60,40.0
2603,F4,414.0,0.475,38,40.0
2604,G#4,414.0,0.475,38,40.0
2605,F#3,414.5,0.25,63,40.0
2606,F4,414.5,0.475,38,40.0
2607,G#4,414.5,0.475,38,40.0
2608,G#3,415.0,0.25,66,40.0
2609,B-3,415.0,2.0,44,40.0
2610,B-4,415.5,0.5,59,40.0
2611,F4,415.5,0.475,38,40.0
2612,G#4,415.5,0.475,38,40.0
2613,G#5,416.0,0.5,62,40.0
2614,F4,416.0,0.475,38,40.0
2615,G#4,416.0,0.475,38,40.0
2616,F#5,416.5,0.5,65,40.0
2617,F4,416.5,0.475,38,40.0
2618,G#4,416.5,0.475,38,40.0
2619,F#5,417.0,0.125,60,40.0
2620,B-3,417.0,2.0,44,40.0
2621,G#5,417.125,0.125,60,40.0
2622,F#5,417.25,0.25,67,40.0
2623,F5,417.5,0.5,60,40.0
2624,F4,417.5,0.475,38,40.0
2625,G#4,417.5,0.475,38,40.0
2626,F5,418.0,0.125,60,40.0
2627,F4,418.0,0.475,38,40.0
2628,G#4,418.0,0.475,38,40.0
2629,F#5,418.125,0.125,60,40.0
2630,F5,418.25,0.25,67,40.0
2631,E-5,418.5,0.5,60,40.0
2632,F4,418.5,0.475,38,40.0
2633,G#4,418.5,0.475,38,40.0
2634,E-5,419.0,0.125,60,40.0
2635,B-3,419.0,2.0,44,40.0
2636,F5,419.125,0.125,60,40.0
2637,E-5,419.25,0.25,66,40.0
2638,D5,419.5,0.5,60,40.0
2639,F4,419.5,0.475,38,40.0
2640,G#4,419.5,0.475,38,40.0
2641,C5,420.0,0.25,60,40.0
2642,F4,420.0,0.475,38,40.0
2643,G#4,420.0,0.475,38,40.0
2644,D5,420.5,0.25,60,40.0
2645,F4,420.5,0.475,38,40.0
2646,G#4,420.5,0.475,38,40.0
2647,E-5,421.0,0.5,60,40.0
2648,B-3,421.0,2.0,44,40.0
2649,B-2,421.5,0.25,55,40.0
2650,E-4,421.5,0.475,38,40.0
2651,F#4,421.5,0.475,38,40.0
2652,E-3,422.0,0.25,58,40.0
2653,E-4,422.0,0.475,38,40.0
2654,F#4,422.0,0.475,38,40.0
2655,F3,422.5,0.25,61,40.0
2656,E-4,422.5,0.475,38,40.0
2657,F#4,422.5,0.475,38,40.0
2658,F#3,423.0,0.25,64,40.0
2659,B-3,423.0,2.0,44,40.0
2660,B-4,423.5,0.25,62,40.0
2661,E-4,423.5,0.475,38,40.0
2662,F#4,423.5,0.475,38,40.0
2663,E-5,424.0,0.25,64,40.0
2664,E-4,424.0,0.475,38,40.0
2665,F#4,424.0,0.475,38,40.0
2666,F5,424.5,0.25,66,40.0
2667,E-4,424.5,0.475,38,40.0
2668,F#4,424.5,0.475,38,40.0
2669,B-4,424.875,0.125,65,40.0
2670,F#5,425.0,1.5,75,40.0
2671,B-3,425.0,2.0,44,40.0
2672,E-4,425.5,0.475,38,40.0
2673,F#4,425.5,0.475,38,40.0
2674,E-4,426.0,0.475,38,40.0
2675,F#4,426.0,0.475,38,40.0
2676,E-5,426.5,0.5,63,40.0
2677,E-4,426.5,0.475,38,40.0
2678,F#4,426.5,0.475,38,40.0
2679,B-4,426.875,0.125,60,40.0
2680,F#5,427.0,1.5,71,40.0
2681,B-3,427.0,2.0,44,40.0
2682,E-4,427.5,0.475,38,40.0
2683,F#4,427.5,0.475,38,40.0
2684,E-4,428.0,0.475,38,40.0
2685,F#4,428.0,0.475,38,40.0
2686,E-5,428.5,0.5,58,40.0
2687,E-4,428.5,0.475,38,40.0
2688,F#4,428.5,0.475,38,40.0
2689,C5,429.0,0.5,60,40.0
2690,G#3,429.0,2.0,44,40.0
2691,G#2,429.5,0.25,57,40.0
2692,E-4,429.5,0.475,38,40.0
2693,F#4,429.5,0.475,38,40.0
2694,E-3,430.0,0.25,60,40.0
2695,E-4,430.0,0.475,38,40.0
2696,F#4,430.0,0.475,38,40.0
2697,F3,430.5,0.25,63,40.0
2698,E-4,430.5,0.475,38,40.0
2699,F#4,430.5,0.475,38,40.0
2700,F#3,431.0,0.25,66,40.0
2701,G#3,431.0,2.0,44,40.0
2702,G#4,431.5,0.5,59,40.0
2703,E-4,431.5,0.475,38,40.0
2704,F#4,431.5,0.475,38,40.0
2705,F#5,432.0,0.5,62,40.0
2706,E-4,432.0,0.475,38,40.0
2707,F#4,432.0,0.475,38,40.0
2708,F5,432.5,0.5,65,40.0
2709,E-4,432.5,0.475,38,40.0
2710,F#4,432.5,0.475,38,40.0
2711,F5,433.0,0.125,60,40.0
2712,G#3,433.0,2.0,44,40.0
2713,F#5,433.125,0.125,60,40.0
2714,F5,433.25,0.25,67,40.0
2715,E-5,433.5,0.5,60,40.0
2716,E-4,433.5,0.475,38,40.0
2717,F#4,433.5,0.475,38,40.0
2718,E-5,434.0,0.125,60,40.0
2719,E-4,434.0,0.475,38,40.0
2720,F#4,434.0,0.475,38,40.0
2721,F5,434.125,0.125,60,40.0
2722,E-5,434.25,0.25,67,40.0
2723,C#5,434.5,0.5,60,40.0
2724,E-4,434.5,0.475,38,40.0
2725,F#4,434.5,0.475,38,40.0
2726,C#5,435.0,0.125,60,40.0
2727,G#3,435.0,2.0,44,40.0
2728,E-5,435.125,0.125,60,40.0
2729,C#5,435.25,0.25,66,40.0
2730,C5,435.5,0.5,60,40.0
2731,E-4,435.5,0.475,38,40.0
2732,F#4,435.5,0.475,38,40.0
2733,B-4,436.0,0.25,60,40.0
2734,E-4,436.0,0.475,38,40.0
2735,F#4,436.0,0.475,38,40.0
2736,C5,436.5,0.25,60,40.0
2737,E-4,436.5,0.475,38,40.0
2738,F#4,436.5,0.475,38,40.0
2739,C#5,437.0,0.5,60,40.0
2740,G#3,437.0,2.0,44,40.0
2741,G#2,437.5,0.25,55,40.0
2742,C#4,437.5,0.475,38,40.0
2743,F4,437.5,0.475,38,40.0
2744,C#3,438.0,0.25,58,40.0
2745,C#4,438.0,0.475,38,40.0
2746,F4,438.0,0.475,38,40.0
2747,E-3,438.5,0.25,61,40.0
2748,C#4,438.5,0.475,38,40.0
2749,F4,438.5,0.475,38,40.0
2750,F3,439.0,0.25,64,40.0
2751,G#3,439.0,2.0,44,40.0
2752,G#4,439.5,0.25,62,40.0
2753,C#4,439.5,0.475,38,40.0
2754,F4,439.5,0.475,38,40.0
2755,C#5,440.0,0.25,64,40.0
2756,C#4,440.0,0.475,38,40.0
2757,F4,440.0,0.475,38,40.0
2758,E-5,440.5,0.25,66,40.0
2759,C#4,440.5,0.475,38,40.0
2760,F4,440.5,0.475,38,40.0
2761,G#4,440.875,0.125,65,40.0
2762,F5,441.0,1.5,75,40.0
2763,G#3,441.0,2.0,44,40.0
2764,C#4,441.5,0.475,38,40.0
2765,F4,441.5,0.475,38,40.0
2766,C#4,442.0,0.475,38,40.0
2767,F4,442.0,0.475,38,40.0
2768,C#5,442.5,0.5,63,40.0
2769,C#4,442.5,0.475,38,40.0
2770,F4,442.5,0.475,38,40.0
2771,G#4,442.875,0.125,60,40.0
2772,F5,443.0,1.5,71,40.0
2773,G#3,443.0,2.0,44,40.0
2774,C#4,443.5,0.475,38,40.0
2775,F4,443.5,0.475,38,40.0
2776,C#4,444.0,0.475,38,40.0
2777,F4,444.0,0.475,38,40.0
2778,C#5,444.5,0.5,58,40.0
2779,C#4,444.5,0.475,38,40.0
2780,F4,444.5,0.475,38,40.0
2781,C5,445.0,0.5,60,40.0
2782,G#3,445.0,2.0,44,40.0
2783,G#2,445.5,0.25,57,40.0
2784,E-4,445.5,0.475,38,40.0
2785,F#4,445.5,0.475,38,40.0
2786,E-3,446.0,0.25,60,40.0
2787,E-4,446.0,0.475,38,40.0
2788,F#4,446.0,0.475,38,40.0
2789,F3,446.5,0.25,63,40.0
2790,E-4,446.5,0.475,38,40.0
2791,F#4,446.5,0.475,38,40.0
2792,F#3,447.0,0.25,66,40.0
2793,G#3,447.0,2.0,44,40.0
2794,G#4,447.5,0.5,59,40.0
2795,E-4,447.5,0.475,38,40.0
2796,F#4,447.5,0.475,38,40.0
2797,F#5,448.0,0.5,62,40.0
2798,E-4,448.0,0.475,38,40.0
2799,F#4,448.0,0.475,38,40.0
2800,F5,448.5,0.5,65,40.0
2801,E-4,448.5,0.475,38,40.0
2802,F#4,448.5,0.475,38,40.0
2803,F5,449.0,0.125,60,40.0
2804,G#3,449.0,2.0,44,40.0
2805,F#5,449.125,0.125,60,40.0
2806,F5,449.25,0.25,67,40.0
2807,E-5,449.5,0.5,60,40.0
2808,E-4,449.5,0.475,38,40.0
2809,F#4,449.5,0.475,38,40.0
2810,E-5,450.0,0.125,60,40.0
2811,E-4,450.0,0.475,38,40.0
2812,F#4,450.0,0.475,38,40.0
2813,F5,450.125,0.125,60,40.0
2814,E-5,450.25,0.25,67,40.0
2815,C#5,450.5,0.5,60,40.0
2816,E-4,450.5,0.475,38,40.0
2817,F#4,450.5,0.475,38,40.0
2818,C#5,451.0,0.125,60,40.0
2819,G#3,451.0,2.0,44,40.0
2820,E-5,451.125,0.125,60,40.0
2821,C#5,451.25,0.25,66,40.0
2822,C5,451.5,0.5,60,40.0
2823,E-4,451.5,0.475,38,40.0
2824,F#4,451.5,0.475,38,40.0
2825,B-4,452.0,0.25,60,40.0
2826,E-4,452.0,0.475,38,40.0
2827,F#4,452.0,0.475,38,40.0
2828,C5,452.5,0.25,57,40.0
2829,E-4,452.5,0.475,38,40.0
2830,F#4,452.5,0.475,38,40.0
2831,C#5,453.0,0.5,60,40.0
2832,C#4,453.0,1.0,54,40.0
2833,C#3,453.5,0.5,73,40.0
2834,F4,453.5,0.5,53,40.0
2835,G#4,453.5,0.5,53,40.0
2836,G#3,454.0,0.5,77,40.0
2837,B3,454.0,1.0,60,40.0
2838,B2,454.5,0.25,73,40.0
2839,F4,454.5,0.5,53,40.0
2840,G#4,454.5,0.5,53,40.0
2841,B-2,455.0,0.25,77,40.0
2842,B-3,455.0,2.0,53,40.0
2843,B-4,455.5,0.5,59,40.0
2844,F4,455.5,0.475,38,40.0
2845,G#4,455.5,0.475,38,40.0
2846,G#5,456.0,0.5,62,40.0
2847,F4,456.0,0.475,38,40.0
2848,G#4,456.0,0.475,38,40.0
2849,F#5,456.5,0.5,65,40.0
2850,F4,456.5,0.475,38,40.0
2851,G#4,456.5,0.475,38,40.0
2852,F#5,457.0,0.125,60,40.0
2853,B-3,457.0,2.0,44,40.0
2854,G#5,457.125,0.125,60,40.0
2855,F#5,457.25,0.25,67,40.0
2856,F5,457.5,0.5,60,40.0
2857,F4,457.5,0.475,38,40.0
2858,G#4,457.5,0.475,38,40.0
2859,F5,458.0,0.125,60,40.0
2860,F4,458.0,0.475,38,40.0
2861,G#4,458.0,0.475,38,40.0
2862,F#5,458.125,0.125,60,40.0
2863,F5,458.25,0.25,67,40.0
2864,E-5,458.5,0.5,60,40.0
2865,F4,458.5,0.475,38,40.0
2866,G#4,458.5,0.475,38,40.0
2867,E-5,459.0,0.125,60,40.0
2868,B-3,459.0,2.0,44,40.0
2869,F5,459.125,0.125,60,40.0
2870,E-5,459.25,0.25,66,40.0
2871,D5,459.5,0.5,60,40.0
2872,F4,459.5,0.475,38,40.0
2873,G#4,459.5,0.475,38,40.0
2874,C5,460.0,0.25,60,40.0
2875,F4,460.0,0.475,38,40.0
2876,G#4,460.0,0.475,38,40.0
2877,D5,460.5,0.25,57,40.0
2878,F4,460.5,0.475,38,40.0
2879,G#4,460.5,0.475,38,40.0
2880,E-5,461.0,0.5,60,40.0
2881,E-4,461.0,1.0,54,40.0
2882,E-3,461.5,0.5,73,40.0
2883,F#4,461.5,0.5,53,40.0
2884,B-4,461.5,0.5,53,40.0
2885,B-3,462.0,0.5,77,40.0
2886,C#4,462.0,1.0,60,40.0
2887,C#3,462.5,0.25,73,40.0
2888,F4,462.5,0.5,53,40.0
2889,B-4,462.5,0.5,53,40.0
2890,C3,463.0,0.25,77,40.0
2891,C4,463.0,2.0,53,40.0
2892,C5,463.5,0.5,59,40.0
2893,G4,463.5,0.475,38,40.0
2894,B-4,463.5,0.475,38,40.0
2895,B-5,464.0,0.5,62,40.0
2896,G4,464.0,0.475,38,40.0
2897,B-4,464.0,0.475,38,40.0
2898,G#5,464.5,0.5,65,40.0
2899,G4,464.5,0.475,38,40.0
2900,B-4,464.5,0.475,38,40.0
2901,G#5,465.0,0.125,60,40.0
2902,C4,465.0,2.0,44,40.0
2903,B-5,465.125,0.125,60,40.0
2904,G#5,465.25,0.25,67,40.0
2905,G5,465.5,0.5,60,40.0
2906,G4,465.5,0.475,38,40.0
2907,B-4,465.5,0.475,38,40.0
2908,G5,466.0,0.125,60,40.0
2909,G4,466.0,0.475,38,40.0
2910,B-4,466.0,0.475,38,40.0
2911,G#5,466.125,0.125,60,40.0
2912,G5,466.25,0.25,67,40.0
2913,F5,466.5,0.5,60,40.0
2914,G4,466.5,0.475,38,40.0
2915,B-4,466.5,0.475,38,40.0
2916,F5,467.0,0.125,60,40.0
2917,C4,467.0,2.0,44,40.0
2918,G5,467.125,0.125,60,40.0
2919,F5,467.25,0.25,66,40.0
2920,E5,467.5,0.5,60,40.0
2921,G4,467.5,0.475,38,40.0
2922,B-4,467.5,0.475,38,40.0
2923,D5,468.0,0.5,60,40.0
2924,G4,468.0,0.475,38,40.0
2925,B-4,468.0,0.475,38,40.0
2926,E5,468.5,0.5,57,40.0
2927,G4,468.5,0.475,38,40.0
2928,B-4,468.5,0.475,38,40.0
2929,G5,469.0,0.125,60,40.0
2930,F4,469.0,2.0,44,40.0
2931,G#5,469.125,0.125,60,40.0
2932,G5,469.25,0.25,67,40.0
2933,F5,469.5,0.5,60,40.0
2934,G#4,469.5,0.475,38,40.0
2935,C5,469.5,0.475,38,40.0
2936,F5,470.0,0.125,60,40.0
2937,G#4,470.0,0.475,38,40.0
2938,C5,470.0,0.475,38,40.0
2939,G5,470.125,0.125,60,40.0
2940,F5,470.25,0.25,67,40.0
2941,E-5,470.5,0.5,60,40.0
2942,G#4,470.5,0.475,38,40.0
2943,C5,470.5,0.475,38,40.0
2944,E-5,471.0,0.125,60,40.0
2945,B-3,471.0,1.0,44,40.0
2946,F5,471.125,0.125,60,40.0
2947,E-5,471.25,0.25,66,40.0
2948,D5,471.5,0.5,60,40.0
2949,F4,471.5,0.475,38,40.0
2950,G#4,471.5,0.475,38,40.0
2951,C5,472.0,0.5,60,40.0
2952,B3,472.0,1.0,44,40.0
2953,F4,472.0,0.475,38,40.0
2954,G#4,472.0,0.475,38,40.0
2955,D5,472.5,0.5,57,40.0
2956,F4,472.5,0.475,38,40.0
2957,G#4,472.5,0.475,38,40.0
2958,F5,473.0,0.125,60,40.0
2959,C4,473.0,2.0,44,40.0
2960,G5,473.125,0.125,60,40.0
2961,F5,473.25,0.25,67,40.0
2962,E-5,473.5,0.5,59,40.0
2963,E-4,473.5,0.475,37,40.0
2964,G4,473.5,0.475,37,40.0
2965,E-5,474.0,0.125,58,40.0
2966,E-4,474.0,0.475,36,40.0
2967,G4,474.0,0.475,36,40.0
2968,F5,474.125,0.125,58,40.0
2969,E-5,474.25,0.25,64,40.0
2970,D5,474.5,0.5,57,40.0
2971,E-4,474.5,0.475,36,40.0
2972,G4,474.5,0.475,36,40.0
2973,D5,475.0,0.125,56,40.0
2974,G#3,475.0,2.0,41,40.0
2975,E-5,475.125,0.125,55,40.0
2976,D5,475.25,0.25,61,40.0
2977,C5,475.5,0.5,55,40.0
2978,E-4,475.5,0.475,34,40.0
2979,F4,475.5,0.475,34,40.0
2980,C5,476.0,0.125,54,40.0
2981,E-4,476.0,0.475,34,40.0
2982,F4,476.0,0.475,34,40.0
2983,D5,476.125,0.125,54,40.0
2984,C5,476.25,0.25,59,40.0
2985,B4,476.5,0.5,53,40.0
2986,E-4,476.5,0.475,33,40.0
2987,F4,476.5,0.475,33,40.0
2988,C5,477.0,0.125,52,40.0
2989,B-3,477.0,2.0,38,40.0
2990,D5,477.125,0.125,52,40.0
2991,C5,477.25,0.25,56,40.0
2992,B-4,477.5,0.5,51,40.0
2993,E-4,477.5,0.475,32,40.0
2994,G4,477.5,0.475,32,40.0
2995,B-4,478.0,0.188,50,40.0
2996,E-4,478.0,0.475,31,40.0
2997,G4,478.0,0.475,31,40.0
2998,B-4,478.5,0.188,46,40.0
2999,E-4,478.5,0.475,31,40.0
3000,G4,478.5,0.475,31,40.0
3001,C5,479.0,0.125,37,40.0
3002,B-3,479.0,2.0,27,40.0
3003,D5,479.125,0.125,37,40.0
3004,C5,479.25,0.25,41,40.0
3005,B-4,479.5,0.5,37,40.0
3006,D4,479.5,0.475,23,40.0
3007,F4,479.5,0.475,23,40.0
3008,B-4,480.0,0.188,37,40.0
3009,D4,480.0,0.475,23,40.0
3010,F4,480.0,0.475,23,40.0
3011,B-4,480.5,0.188,35,40.0
3012,D4,480.5,0.475,23,40.0
3013,F4,480.5,0.475,23,40.0
3014,E-3,481.0,3.0,36,40.0
3015,E-4,481.25,0.25,25,40.0
3016,B-3,481.25,0.25,24,40.0
3017,G4,481.5,0.25,29,40.0
3018,G3,481.5,0.25,26,40.0
3019,E-4,481.75,0.25,29,40.0
3020,B-3,481.75,0.25,24,40.0
3021,E-5,482.0,2.0,45,40.0
3022,G3,482.0,0.25,32,40.0
3023,E-4,482.25,0.25,28,40.0
3024,B-3,482.25,0.25,25,40.0
3025,G4,482.5,0.25,30,40.0
3026,G3,482.5,0.25,28,40.0
3027,E-4,482.75,0.25,28,40.0
3028,B-3,482.75,0.25,26,40.0
3029,G4,483.0,0.25,31,40.0
3030,G3,483.0,0.25,34,40.0
3031,E-4,483.25,0.25,30,40.0
3032,B-3,483.25,0.25,26,40.0
3033,G4,483.5,0.25,32,40.0
3034,G3,483.5,0.25,29,40.0
3035,E-4,483.75,0.25,29,40.0
3036,B-3,483.75,0.25,26,40.0
3037,E-5,484.0,1.0,50,40.0
3038,E-3,484.0,1.0,36,40.0
3039,E-4,484.25,0.25,30,40.0
3040,B-3,484.25,0.25,28,40.0
3041,G4,484.5,0.25,33,40.0
3042,G3,484.5,0.25,32,40.0
3043,E-4,484.75,0.25,32,40.0
3044,B-3,484.75,0.25,28,40.0
3045,C#3,485.0,3.0,45,40.0
3046,E-4,485.25,0.25,32,40.0
3047,B-3,485.25,0.25,30,40.0
3048,G4,485.5,0.25,36,40.0
3049,G3,485.5,0.25,32,40.0
3050,E-4,485.75,0.25,35,40.0
3051,B-3,485.75,0.25,29,40.0
3052,E-5,486.0,2.0,54,40.0
3053,G3,486.0,0.25,38,40.0
3054,E-4,486.25,0.25,33,40.0
3055,B-3,486.25,0.25,30,40.0
3056,G4,486.5,0.25,35,40.0
3057,G3,486.5,0.25,33,40.0
3058,E-4,486.75,0.25,32,40.0
3059,B-3,486.75,0.25,30,40.0
3060,G4,487.0,0.25,35,40.0
3061,G3,487.0,0.25,38,40.0
3062,E-4,487.25,0.25,33,40.0
3063,B-3,487.25,0.25,29,40.0
3064,G4,487.5,0.25,35,40.0
3065,G3,487.5,0.25,32,40.0
3066,E-4,487.75,0.25,32,40.0
3067,B-3,487.75,0.25,29,40.0
3068,E-5,488.0,1.0,53,40.0
3069,C#3,488.0,1.0,38,40.0
3070,E-4,488.25,0.25,32,40.0
3071,B-3,488.25,0.25,30,40.0
3072,G4,488.5,0.25,35,40.0
3073,G3,488.5,0.25,33,40.0
3074,E-4,488.75,0.25,33,40.0
3075,B-3,488.75,0.25,29,40.0
3076,E-5,489.0,0.188,66,40.0
3077,C3,489.0,0.188,55,40.0
3078,E-4,489.25,0.25,41,40.0
3079,G#3,489.25,0.25,36,40.0
3080,G#4,489.5,0.25,45,40.0
3081,E-3,489.5,0.25,39,40.0
3082,E-4,489.75,0.25,42,40.0
3083,G#3,489.75,0.25,35,40.0
3084,E5,490.0,0.188,67,40.0
3085,B-2,490.0,0.188,56,40.0
3086,E4,490.25,0.25,43,40.0
3087,G3,490.25,0.25,36,40.0
3088,C5,490.5,0.25,47,40.0
3089,C3,490.5,0.25,43,40.0
3090,E4,490.75,0.25,43,40.0
3091,G3,490.75,0.25,41,40.0
3092,F5,491.0,0.188,71,40.0
3093,G#2,491.0,0.188,58,40.0
3094,F4,491.25,0.25,45,40.0
3095,G#3,491.25,0.25,38,40.0
3096,C5,491.5,0.25,50,40.0
3097,C3,491.5,0.25,43,40.0
3098,F4,491.75,0.25,45,40.0
3099,G#3,491.75,0.25,38,40.0
3100,G5,492.0,0.188,72,40.0
3101,G2,492.0,0.188,60,40.0
3102,G4,492.25,0.25,47,40.0
3103,G3,492.25,0.25,40,40.0
3104,C5,492.5,0.25,50,40.0
3105,C3,492.5,0.25,43,40.0
3106,G4,492.75,0.25,47,40.0
3107,G3,492.75,0.25,38,40.0
3108,G#5,493.0,0.188,74,40.0
3109,F2,493.0,0.188,63,40.0
3110,G#4,493.25,0.25,49,40.0
3111,F3,493.25,0.25,42,40.0
3112,C5,493.5,0.25,54,40.0
3113,C3,493.5,0.25,45,40.0
3114,G#4,493.75,0.25,49,40.0
3115,F3,493.75,0.25,42,40.0
3116,A5,494.0,0.188,80,40.0
3117,E-2,494.0,0.188,66,40.0
3118,A4,494.25,0.25,50,40.0
3119,E-3,494.25,0.25,41,40.0
3120,C5,494.5,0.25,55,40.0
3121,F2,494.5,0.25,47,40.0
3122,A4,494.75,0.25,51,40.0
3123,E-3,494.75,0.25,41,40.0
3124,B-5,495.0,0.188,84,40.0
3125,D2,495.0,0.188,68,40.0
3126,B-4,495.25,0.25,51,40.0
3127,D3,495.25,0.25,45,40.0
3128,F5,495.5,0.25,58,40.0
3129,F2,495.5,0.25,49,40.0
3130,B-4,495.75,0.25,53,40.0
3131,D3,495.75,0.25,43,40.0
3132,C6,496.0,0.188,85,40.0
3133,C2,496.0,0.188,70,40.0
3134,C5,496.25,0.25,53,40.0
3135,C3,496.25,0.25,45,40.0
3136,F5,496.5,0.25,58,40.0
3137,F2,496.5,0.25,51,40.0
3138,C5,496.75,0.25,54,40.0
3139,C3,496.75,0.25,43,40.0
3140,C#6,497.0,0.188,85,40.0
3141,B-1,497.0,0.188,70,40.0
3142,C#5,497.25,0.25,55,40.0
3143,B-2,497.25,0.25,47,40.0
3144,F5,497.5,0.25,63,40.0
3145,F2,497.5,0.25,53,40.0
3146,C#5,497.75,0.25,55,40.0
3147,B-2,497.75,0.25,48,40.0
3148,D6,498.0,0.188,90,40.0
3149,G#1,498.0,0.188,72,40.0
3150,D5,498.25,0.25,57,40.0
3151,G#2,498.25,0.25,47,40.0
3152,F5,498.5,0.25,62,40.0
3153,F2,498.5,0.25,53,40.0
3154,D5,498.75,0.25,57,40.0
3155,G#2,498.75,0.25,50,40.0
3156,E-6,499.0,0.188,89,40.0
3157,G1,499.0,0.188,75,40.0
3158,E-5,499.25,0.25,59,40.0
3159,G2,499.25,0.25,50,40.0
3160,B-5,499.5,0.25,64,40.0
3161,E-2,499.5,0.25,55,40.0
3162,E-5,499.75,0.25,59,40.0
3163,G2,499.75,0.25,50,40.0
3164,B5,500.0,0.188,91,40.0
3165,G1,500.0,0.188,76,40.0
3166,B4,500.25,0.25,61,40.0
3167,G2,500.25,0.25,56,40.0
3168,E-5,500.5,0.25,67,40.0
3169,E-2,500.5,0.25,58,40.0
3170,B4,500.75,0.25,61,40.0
3171,G2,500.75,0.25,55,40.0
3172,G#1,501.0,0.5,78,40.0
3173,G#2,501.0,0.5,78,40.0
3174,C5,501.25,0.25,78,40.0
3175,E-5,501.5,0.25,84,40.0
3176,C5,501.75,0.25,78,40.0
3177,C6,502.0,0.188,88,40.0
3178,C5,502.25,0.25,78,40.0
3179,E-5,502.5,0.25,84,40.0
3180,C5,502.75,0.25,76,40.0
3181,B-2,503.0,0.5,78,40.0
3182,B-1,503.0,0.5,78,40.0
3183,F4,503.25,0.25,78,40.0
3184,G#4,503.5,0.25,84,40.0
3185,F4,503.75,0.25,78,40.0
3186,D5,504.0,0.188,88,40.0
3187,F4,504.25,0.25,78,40.0
3188,G#4,504.5,0.25,84,40.0
3189,F4,504.75,0.25,76,40.0
3190,E-3,505.0,3.0,45,40.0
3191,E-4,505.25,0.25,32,40.0
3192,B-3,505.25,0.25,30,40.0
3193,G4,505.5,0.25,36,40.0
3194,G3,505.5,0.25,32,40.0
3195,E-4,505.75,0.25,35,40.0
3196,B-3,505.75,0.25,29,40.0
3197,E-5,506.0,2.0,54,40.0
3198,G3,506.0,0.25,38,40.0
3199,E-4,506.25,0.25,33,40.0
3200,B-3,506.25,0.25,30,40.0
3201,G4,506.5,0.25,35,40.0
3202,G3,506.5,0.25,33,40.0
3203,E-4,506.75,0.25,32,40.0
3204,B-3,506.75,0.25,30,40.0
3205,G4,507.0,0.25,35,40.0
3206,G3,507.0,0.25,38,40.0
3207,E-4,507.25,0.25,33,40.0
3208,B-3,507.25,0.25,29,40.0
3209,G4,507.5,0.25,35,40.0
3210,G3,507.5,0.25,32,40.0
3211,E-4,507.75,0.25,32,40.0
3212,B-3,507.75,0.25,29,40.0
3213,E-5,508.0,1.0,53,40.0
3214,E-3,508.0,1.0,38,40.0
3215,E-4,508.25,0.25,32,40.0
3216,B-3,508.25,0.25,30,40.0
3217,G4,508.5,0.25,35,40.0
3218,G3,508.5,0.25,33,40.0
3219,E-4,508.75,0.25,33,40.0
3220,B-3,508.75,0.25,29,40.0
3221,C#3,509.0,3.0,45,40.0
3222,E-4,509.25,0.25,32,40.0
3223,B-3,509.25,0.25,30,40.0
3224,G4,509.5,0.25,36,40.0
3225,G3,509.5,0.25,32,40.0
3226,E-4,509.75,0.25,35,40.0
3227,B-3,509.75,0.25,29,40.0
3228,E-5,510.0,2.0,54,40.0
3229,G3,510.0,0.25,38,40.0
3230,E-4,510.25,0.25,33,40.0
3231,B-3,510.25,0.25,30,40.0
3232,G4,510.5,0.25,35,40.0
3233,G3,510.5,0.25,33,40.0
3234,E-4,510.75,0.25,32,40.0
3235,B-3,510.75,0.25,30,40.0
3236,G4,511.0,0.25,35,40.0
3237,G3,511.0,0.25,38,40.0
3238,E-4,511.25,0.25,33,40.0
3239,B-3,511.25,0.25,29,40.0
3240,G4,511.5,0.25,35,40.0
3241,G3,511.5,0.25,32,40.0
3242,E-4,511.75,0.25,32,40.0
3243,B-3,511.75,0.25,29,40.0
3244,E-5,512.0,1.0,53,40.0
3245,C#3,512.0,1.0,38,40.0
3246,E-4,512.25,0.25,32,40.0
3247,B-3,512.25,0.25,30,40.0
3248,G4,512.5,0.25,35,40.0
3249,G3,512.5,0.25,33,40.0
3250,E-4,512.75,0.25,33,40.0
3251,B-3,512.75,0.25,29,40.0
3252,E-5,513.0,0.188,66,40.0
3253,C3,513.0,0.188,55,40.0
3254,E-4,513.25,0.25,41,40.0
3255,G#3,513.25,0.25,36,40.0
3256,G#4,513.5,0.25,45,40.0
3257,E-3,513.5,0.25,39,40.0
3258,E-4,513.75,0.25,42,40.0
3259,G#3,513.75,0.25,35,40.0
3260,E5,514.0,0.188,67,40.0
3261,B-2,514.0,0.188,56,40.0
3262,E4,514.25,0.25,43,40.0
3263,G3,514.25,0.25,36,40.0
3264,C5,514.5,0.25,47,40.0
3265,C3,514.5,0.25,43,40.0
3266,E4,514.75,0.25,43,40.0
3267,G3,514.75,0.25,41,40.0
3268,F5,515.0,0.188,71,40.0
3269,G#2,515.0,0.188,58,40.0
3270,F4,515.25,0.25,45,40.0
3271,G#3,515.25,0.25,38,40.0
3272,C5,515.5,0.25,50,40.0
3273,C3,515.5,0.25,43,40.0
3274,F4,515.75,0.25,45,40.0
3275,G#3,515.75,0.25,38,40.0
3276,G5,516.0,0.188,72,40.0
3277,G2,516.0,0.188,60,40.0
3278,G4,516.25,0.25,47,40.0
3279,G3,516.25,0.25,40,40.0
3280,C5,516.5,0.25,50,40.0
3281,C3,516.5,0.25,43,40.0
3282,G4,516.75,0.25,47,40.0
3283,G3,516.75,0.25,38,40.0
3284,G#5,517.0,0.188,74,40.0
3285,F2,517.0,0.188,63,40.0
3286,G#4,517.25,0.25,49,40.0
3287,F3,517.25,0.25,42,40.0
3288,C5,517.5,0.25,54,40.0
3289,C3,517.5,0.25,45,40.0
3290,G#4,517.75,0.25,49,40.0
3291,F3,517.75,0.25,42,40.0
3292,A5,518.0,0.188,80,40.0
3293,E-2,518.0,0.188,66,40.0
3294,A4,518.25,0.25,50,40.0
3295,E-3,518.25,0.25,41,40.0
3296,C5,518.5,0.25,55,40.0
3297,F2,518.5,0.25,47,40.0
3298,A4,518.75,0.25,51,40.0
3299,E-3,518.75,0.25,41,40.0
3300,B-5,519.0,0.188,84,40.0
3301,D2,519.0,0.188,68,40.0
3302,B-4,519.25,0.25,51,40.0
3303,D3,519.25,0.25,45,40.0
3304,F5,519.5,0.25,58,40.0
3305,F2,519.5,0.25,49,40.0
3306,B-4,519.75,0.25,53,40.0
3307,D3,519.75,0.25,43,40.0
3308,C6,520.0,0.188,85,40.0
3309,C2,520.0,0.188,70,40.0
3310,C5,520.25,0.25,53,40.0
3311,C3,520.25,0.25,45,40.0
3312,F5,520.5,0.25,58,40.0
3313,F2,520.5,0.25,51,40.0
3314,C5,520.75,0.25,54,40.0
3315,C3,520.75,0.25,43,40.0
3316,C#6,521.0,0.188,85,40.0
3317,B-1,521.0,0.188,70,40.0
3318,C#5,521.25,0.25,55,40.0
3319,B-2,521.25,0.25,47,40.0
3320,F5,521.5,0.25,63,40.0
3321,F2,521.5,0.25,53,40.0
3322,C#5,521.75,0.25,55,40.0
3323,B-2,521.75,0.25,48,40.0
3324,D6,522.0,0.188,90,40.0
3325,G#1,522.0,0.188,72,40.0
3326,D5,522.25,0.25,57,40.0
3327,G#2,522.25,0.25,47,40.0
3328,F5,522.5,0.25,62,40.0
3329,F2,522.5,0.25,53,40.0
3330,D5,522.75,0.25,57,40.0
3331,G#2,522.75,0.25,50,40.0
3332,E-6,523.0,0.188,89,40.0
3333,G1,523.0,0.188,75,40.0
3334,E-5,523.25,0.25,59,40.0
3335,G2,523.25,0.25,50,40.0
3336,B-5,523.5,0.25,64,40.0
3337,E-2,523.5,0.25,55,40.0
3338,E-5,523.75,0.25,59,40.0
3339,G2,523.75,0.25,50,40.0
3340,E6,524.0,0.188,91,40.0
3341,G1,524.0,0.188,76,40.0
3342,E5,524.25,0.25,61,40.0
3343,G2,524.25,0.25,56,40.0
3344,B-5,524.5,0.25,67,40.0
3345,G1,524.5,0.25,58,40.0
3346,E5,524.75,0.25,61,40.0
3347,G2,524.75,0.25,55,40.0
3348,G#1,525.0,0.5,78,40.0
3349,G#2,525.0,0.5,78,40.0
3350,G#5,525.25,0.25,78,40.0
3351,C6,525.5,0.25,84,40.0
3352,G#5,525.75,0.25,78,40.0
3353,F6,526.0,0.188,88,40.0
3354,G#5,526.25,0.25,78,40.0
3355,C6,526.5,0.25,84,40.0
3356,G#5,526.75,0.25,76,40.0
3357,B-2,527.0,0.5,78,40.0
3358,B-1,527.0,0.5,78,40.0
3359,F5,527.25,0.25,78,40.0
3360,G#5,527.5,0.25,84,40.0
3361,F5,527.75,0.25,78,40.0
3362,D6,528.0,0.188,88,40.0
3363,F5,528.25,0.25,78,40.0
3364,G#5,528.5,0.25,84,40.0
3365,F5,528.75,0.25,76,40.0
3366,G5,529.0,0.188,81,40.0
3367,E-2,529.0,0.5,84,40.0
3368,E-3,529.0,0.5,84,40.0
3369,E-6,529.5,1.0,64,40.0
3370,E-4,529.5,0.475,34,40.0
3371,G4,529.5,0.475,34,40.0
3372,E-4,530.0,0.475,34,40.0
3373,G4,530.0,0.475,34,40.0
3374,D6,530.5,0.25,46,40.0
3375,E-4,530.5,0.475,34,40.0
3376,G4,530.5,0.475,34,40.0
3377,E-6,530.75,0.25,48,40.0
3378,F6,531.0,0.25,49,40.0
3379,C4,531.0,2.0,34,40.0
3380,E-6,531.25,0.25,49,40.0
3381,D6,531.5,0.25,48,40.0
3382,E-4,531.5,0.475,34,40.0
3383,G4,531.5,0.475,34,40.0
3384,C6,531.75,0.25,47,40.0
3385,B5,532.0,0.25,45,40.0
3386,E-4,532.0,0.475,34,40.0
3387,G4,532.0,0.475,34,40.0
3388,C6,532.25,0.25,46,40.0
3389,D6,532.5,0.25,49,40.0
3390,E-4,532.5,0.475,34,40.0
3391,G4,532.5,0.475,34,40.0
3392,C6,532.75,0.25,47,40.0
3393,B-5,533.0,0.25,49,40.0
3394,G#3,533.0,2.0,34,40.0
3395,G#5,533.25,0.25,47,40.0
3396,G5,533.5,0.25,46,40.0
3397,F4,533.5,0.475,34,40.0
3398,E-4,533.5,0.475,34,40.0
3399,F5,533.75,0.25,45,40.0
3400,E5,534.0,0.25,45,40.0
3401,E-4,534.0,0.475,34,40.0
3402,F4,534.0,0.475,34,40.0
3403,F5,534.25,0.25,45,40.0
3404,G5,534.5,0.25,47,40.0
3405,E-4,534.5,0.475,34,40.0
3406,F4,534.5,0.475,34,40.0
3407,F5,534.75,0.25,45,40.0
3408,E-5,535.0,0.25,46,40.0
3409,B-3,535.0,2.0,34,40.0
3410,D5,535.25,0.25,46,40.0
3411,C5,535.5,0.25,45,40.0
3412,D4,535.5,0.475,34,40.0
3413,F4,535.5,0.475,34,40.0
3414,B-4,535.75,0.25,45,40.0
3415,A4,536.0,0.25,45,40.0
3416,D4,536.0,0.475,34,40.0
3417,F4,536.0,0.475,34,40.0
3418,B-4,536.25,0.25,42,40.0
3419,C5,536.5,0.25,46,40.0
3420,D4,536.5,0.475,34,40.0
3421,F4,536.5,0.475,34,40.0
3422,G#4,536.75,0.25,42,40.0
3423,G4,537.0,0.188,66,40.0
3424,E-3,537.0,2.0,59,40.0
3425,E-5,537.5,1.0,68,40.0
3426,E-6,537.5,1.0,68,40.0
3427,G3,537.5,0.475,44,40.0
3428,E-4,537.5,0.475,44,40.0
3429,G3,538.0,0.475,44,40.0
3430,E-4,538.0,0.475,44,40.0
3431,D6,538.5,0.25,61,40.0
3432,G3,538.5,0.475,44,40.0
3433,E-4,538.5,0.475,44,40.0
3434,E-6,538.75,0.25,64,40.0
3435,F6,539.0,0.25,66,40.0
3436,C3,539.0,2.0,45,40.0
3437,E-6,539.25,0.25,66,40.0
3438,D6,539.5,0.25,65,40.0
3439,G3,539.5,0.475,46,40.0
3440,E-3,539.5,0.475,46,40.0
3441,C4,539.5,0.475,46,40.0
3442,C6,539.75,0.25,64,40.0
3443,B5,540.0,0.25,62,40.0
3444,G3,540.0,0.475,46,40.0
3445,E-3,540.0,0.475,46,40.0
3446,C4,540.0,0.475,46,40.0
3447,C6,540.25,0.25,64,40.0
3448,D6,540.5,0.25,68,40.0
3449,G3,540.5,0.475,47,40.0
3450,E-3,540.5,0.475,47,40.0
3451,C4,540.5,0.475,47,40.0
3452,C6,540.75,0.25,66,40.0
3453,B-5,541.0,0.25,69,40.0
3454,G#2,541.0,2.0,47,40.0
3455,G#5,541.25,0.25,67,40.0
3456,G5,541.5,0.25,66,40.0
3457,F3,541.5,0.475,48,40.0
3458,G#3,541.5,0.475,48,40.0
3459,E-3,541.5,0.475,48,40.0
3460,F5,541.75,0.25,65,40.0
3461,E5,542.0,0.25,65,40.0
3462,F3,542.0,0.475,48,40.0
3463,E-3,542.0,0.475,48,40.0
3464,G#3,542.0,0.475,48,40.0
3465,F5,542.25,0.25,64,40.0
3466,G5,542.5,0.25,68,40.0
3467,F3,542.5,0.475,49,40.0
3468,E-3,542.5,0.475,49,40.0
3469,G#3,542.5,0.475,49,40.0
3470,F5,542.75,0.25,66,40.0
3471,E-5,543.0,0.25,68,40.0
3472,B-2,543.0,2.0,49,40.0
3473,D5,543.25,0.25,68,40.0
3474,C5,543.5,0.25,68,40.0
3475,F3,543.5,0.475,50,40.0
3476,D3,543.5,0.475,50,40.0
3477,B-3,543.5,0.475,50,40.0
3478,B-4,543.75,0.25,68,40.0
3479,A4,544.0,0.25,67,40.0
3480,F3,544.0,0.475,50,40.0
3481,D3,544.0,0.475,50,40.0
3482,B-3,544.0,0.475,50,40.0
3483,B-4,544.25,0.25,64,40.0
3484,C5,544.5,0.25,70,40.0
3485,F3,544.5,0.475,51,40.0
3486,D3,544.5,0.475,51,40.0
3487,B-3,544.5,0.475,51,40.0
3488,B-4,544.75,0.25,64,40.0
3489,E-5,545.0,0.25,83,40.0
3490,E-2,545.0,0.475,67,40.0
3491,E-3,545.25,0.25,60,40.0
3492,E-4,545.5,1.0,82,40.0
3493,E-2,545.5,0.475,67,40.0
3494,E-3,545.75,0.25,59,40.0
3495,E-2,546.0,0.475,67,40.0
3496,E-3,546.25,0.25,60,40.0
3497,E-2,546.5,0.475,66,40.0
3498,C#4,546.5,0.25,80,40.0
3499,G4,546.5,0.25,80,40.0
3500,E-3,546.75,0.25,60,40.0
3501,E-2,547.0,0.475,66,40.0
3502,C4,547.0,0.25,81,40.0
3503,G#4,547.0,0.25,81,40.0
3504,E-3,547.25,0.25,59,40.0
3505,E-2,547.5,0.475,66,40.0
3506,G4,547.5,0.25,82,40.0
3507,B-4,547.5,0.25,82,40.0
3508,E-3,547.75,0.25,60,40.0
3509,E-2,548.0,0.475,66,40.0
3510,G#4,548.0,0.25,83,40.0
3511,C5,548.0,0.25,83,40.0
3512,E-3,548.25,0.25,60,40.0
3513,E-2,548.5,0.475,66,40.0
3514,G#4,548.5,0.25,85,40.0
3515,D5,548.5,0.25,85,40.0
3516,E-3,548.75,0.25,61,40.0
3517,E-2,549.0,0.475,67,40.0
3518,G4,549.0,0.25,83,40.0
3519,E-5,549.0,0.25,83,40.0
3520,E-3,549.25,0.25,60,40.0
3521,E-5,549.5,1.0,82,40.0
3522,E-2,549.5,0.475,67,40.0
3523,E-3,549.75,0.25,59,40.0
3524,E-2,550.0,0.475,67,40.0
3525,E-3,550.25,0.25,60,40.0
3526,E-2,550.5,0.475,66,40.0
3527,C#5,550.5,0.25,80,40.0
3528,G5,550.5,0.25,80,40.0
3529,E-3,550.75,0.25,60,40.0
3530,E-2,551.0,0.475,66,40.0
3531,C5,551.0,0.25,81,40.0
3532,G#5,551.0,0.25,81,40.0
3533,E-3,551.25,0.25,59,40.0
3534,E-2,551.5,0.475,66,40.0
3535,G5,551.5,0.25,82,40.0
3536,B-5,551.5,0.25,82,40.0
3537,E-3,551.75,0.25,60,40.0
3538,E-2,552.0,0.475,66,40.0
3539,G#5,552.0,0.25,83,40.0
3540,C6,552.0,0.25,83,40.0
3541,E-3,552.25,0.25,60,40.0
3542,E-2,552.5,0.475,66,40.0
3543,G#5,552.5,0.25,85,40.0
3544,D6,552.5,0.25,85,40.0
3545,E-3,552.75,0.25,61,40.0
3546,E-2,553.0,0.475,66,40.0
3547,E-6,553.0,2.0,94,40.0
3548,G5,553.0,2.0,94,40.0
3549,E-3,553.25,0.25,59,40.0
3550,E-2,553.5,0.475,66,40.0
3551,E-3,553.75,0.25,60,40.0
3552,E-2,554.0,0.475,66,40.0
3553,E-3,554.25,0.25,60,40.0
3554,E-2,554.5,0.475,66,40.0
3555,E-3,554.75,0.25,61,40.0
3556,D2,555.0,0.475,66,40.0
3557,G4,555.0,2.0,88,40.0
3558,E-5,555.0,2.0,88,40.0
3559,D3,555.25,0.25,59,40.0
3560,D2,555.5,0.475,66,40.0
3561,D3,555.75,0.25,60,40.0
3562,D2,556.0,0.475,66,40.0
3563,D3,556.25,0.25,60,40.0
3564,D2,556.5,0.475,66,40.0
3565,D3,556.75,0.25,61,40.0
3566,C2,557.0,0.475,66,40.0
3567,E-6,557.0,2.0,99,40.0
3568,G5,557.0,2.0,99,40.0
3569,C3,557.25,0.25,59,40.0
3570,C2,557.5,0.475,66,40.0
3571,C3,557.75,0.25,60,40.0
3572,C2,558.0,0.475,66,40.0
3573,C3,558.25,0.25,60,40.0
3574,C2,558.5,0.475,66,40.0
3575,C3,558.75,0.25,61,40.0
3576,B-1,559.0,0.475,66,40.0
3577,G4,559.0,2.0,92,40.0
3578,E-5,559.0,2.0,92,40.0
3579,B-2,559.25,0.25,59,40.0
3580,B-1,559.5,0.475,66,40.0
3581,B-2,559.75,0.25,60,40.0
3582,B-1,560.0,0.475,66,40.0
3583,B-2,560.25,0.25,60,40.0
3584,B-1,560.5,0.475,66,40.0
3585,B-2,560.75,0.25,61,40.0
3586,G#1,561.0,0.475,66,40.0
3587,E-6,561.0,2.0,102,40.0
3588,C6,561.0,2.0,102,40.0
3589,G#2,561.25,0.25,59,40.0
3590,G#1,561.5,0.475,66,40.0
3591,G#2,561.75,0.25,60,40.0
3592,G#1,562.0,0.475,66,40.0
3593,G#2,562.25,0.25,60,40.0
3594,G#1,562.5,0.475,66,40.0
3595,G#2,562.75,0.25,61,40.0
3596,G1,563.0,0.475,66,40.0
3597,C5,563.0,2.0,96,40.0
3598,E-5,563.0,2.0,96,40.0
3599,G2,563.25,0.25,59,40.0
3600,G1,563.5,0.475,66,40.0
3601,G2,563.75,0.25,60,40.0
3602,G1,564.0,0.475,66,40.0
3603,G2,564.25,0.25,60,40.0
3604,G1,564.5,0.475,66,40.0
3605,G2,564.75,0.25,61,40.0
3606,C6,565.0,2.0,93,40.0
3607,A5,565.0,2.0,93,40.0
3608,D6,565.0,2.0,93,40.0
3609,F#1,565.0,2.0,68,40.0
3610,F#2,565.0,2.0,68,40.0
3611,A3,567.0,2.0,97,40.0
3612,C4,567.0,2.0,97,40.0
3613,D4,567.0,2.0,97,40.0
3614,F#2,567.0,2.0,78,40.0
3615,F#3,567.0,2.0,78,40.0
3616,G3,569.0,2.75,91,40.0
3617,B-3,569.0,2.75,91,40.0
3618,D4,569.0,2.75,91,40.0
3619,G4,569.0,2.75,91,40.0
3620,G1,569.0,2.75,79,40.0
3621,B-1,569.0,2.75,79,40.0
3622,D2,569.0,2.75,79,40.0
3623,G2,569.0,2.75,79,40.0
3624,B-3,571.75,0.237,39,40.0
3625,D4,571.75,0.237,48,40.0
3626,G4,571.75,0.237,48,40.0
3627,A3,572.0,0.75,45,40.0
3628,D4,572.0,0.75,49,40.0
3629,F#4,572.0,0.75,49,40.0
3630,A4,572.0,0.75,49,40.0
3631,G3,572.75,0.237,39,40.0
3632,D4,572.75,0.237,47,40.0
3633,G4,572.75,0.237,47,40.0
3634,B-4,572.75,0.237,47,40.0
3635,C#4,573.0,2.0,42,40.0
3636,E4,573.0,2.0,52,40.0
3637,G4,573.0,2.0,52,40.0
3638,B-4,573.0,2.0,52,40.0
3639,D4,575.0,1.0,27,40.0
3640,F#4,575.0,1.0,35,40.0
3641,A4,575.0,1.0,35,40.0
3642,E-3,576.75,0.25,86,40.0
3643,E-4,577.0,2.75,90,40.0
3644,F#4,577.0,2.75,91,40.0
3645,A4,577.0,2.75,91,40.0
3646,C5,577.0,2.75,91,40.0
3647,E-4,579.75,0.237,39,40.0
3648,A4,579.75,0.237,47,40.0
3649,F#4,579.75,0.237,47,40.0
3650,C5,579.75,0.237,47,40.0
3651,D4,580.0,0.75,45,40.0
3652,F#4,580.0,0.75,49,40.0
3653,A4,580.0,0.75,49,40.0
3654,D5,580.0,0.75,49,40.0
3655,C4,580.75,0.237,39,40.0
3656,A4,580.75,0.237,48,40.0
3657,E-5,580.75,0.237,48,40.0
3658,F#4,580.75,0.237,48,40.0
3659,B-3,581.0,3.0,38,40.0
3660,E-5,581.0,2.0,52,40.0
3661,F#4,581.0,2.0,52,40.0
3662,A4,581.0,2.0,52,40.0
3663,G4,583.0,1.0,34,40.0
3664,D5,583.0,1.0,34,40.0
3665,B-4,583.0,1.0,34,40.0
3666,E-3,584.75,0.25,81,40.0
3667,E-4,585.0,2.75,86,40.0
3668,F#4,585.0,2.75,88,40.0
3669,A4,585.0,2.75,88,40.0
3670,C5,585.0,2.75,88,40.0
3671,E-4,587.75,0.237,42,40.0
3672,A4,587.75,0.237,49,40.0
3673,F#4,587.75,0.237,49,40.0
3674,C5,587.75,0.237,49,40.0
3675,D4,588.0,0.75,49,40.0
3676,F#4,588.0,0.75,54,40.0
3677,A4,588.0,0.75,54,40.0
3678,D5,588.0,0.75,54,40.0
3679,C4,588.75,0.237,49,40.0
3680,A4,588.75,0.237,60,40.0
3681,E-5,588.75,0.237,60,40.0
3682,F#4,588.75,0.237,60,40.0
3683,C4,589.0,1.0,50,40.0
3684,E-5,589.0,2.0,53,40.0
3685,F#4,589.0,2.0,53,40.0
3686,A4,589.0,2.0,53,40.0
3687,B3,590.0,2.0,43,40.0
3688,E4,591.0,2.0,47,40.0
3689,G4,591.0,2.0,47,40.0
3690,E5,591.0,2.0,47,40.0
3691,B3,592.0,2.0,33,40.0
3692,E-4,593.0,2.0,42,40.0
3693,F#4,593.0,2.0,42,40.0
3694,A4,593.0,2.0,42,40.0
3695,B2,594.0,2.0,31,40.0
3696,B3,595.0,2.0,38,40.0
3697,E4,595.0,2.0,38,40.0
3698,G4,595.0,2.0,38,40.0
3699,B2,596.0,2.0,28,40.0
3700,A3,597.0,2.0,36,40.0
3701,C4,597.0,2.0,36,40.0
3702,E-4,597.0,2.0,36,40.0
3703,F#4,597.0,2.0,36,40.0
3704,B1,598.0,2.0,25,40.0
3705,F#3,599.0,2.0,30,40.0
3706,A3,599.0,2.0,30,40.0
3707,E-4,599.0,2.0,30,40.0
3708,B1,600.0,1.0,22,40.0
3709,E4,601.0,0.188,61,40.0
3710,E2,601.0,0.475,55,40.0
3711,E3,601.25,0.25,50,40.0
3712,A4,601.5,0.188,55,40.0
3713,E2,601.5,0.475,53,40.0
3714,E3,601.75,0.25,47,40.0
3715,G4,602.0,0.188,58,40.0
3716,E2,602.0,0.475,53,40.0
3717,E3,602.25,0.25,47,40.0
3718,E2,602.5,0.475,52,40.0
3719,A4,602.5,0.188,52,40.0
3720,E-5,602.5,0.188,52,40.0
3721,E3,602.75,0.25,48,40.0
3722,E2,603.0,0.475,50,40.0
3723,G4,603.0,0.188,56,40.0
3724,E5,603.0,0.188,56,40.0
3725,E3,603.25,0.25,53,40.0
3726,E2,603.5,0.475,54,40.0
3727,E-5,603.5,0.188,61,40.0
3728,A5,603.5,0.188,61,40.0
3729,E3,603.75,0.25,54,40.0
3730,E2,604.0,0.475,56,40.0
3731,E5,604.0,0.188,66,40.0
3732,G5,604.0,0.188,66,40.0
3733,E3,604.25,0.25,58,40.0
3734,E2,604.5,0.475,62,40.0
3735,A5,604.5,0.188,68,40.0
3736,E-6,604.5,0.188,68,40.0
3737,E3,604.75,0.25,57,40.0
3738,G5,605.0,0.5,74,40.0
3739,E6,605.0,0.5,74,40.0
3740,E3,605.0,0.475,58,40.0
3741,E2,605.0,0.475,58,40.0
3742,G3,605.5,0.475,50,40.0
3743,B3,605.5,0.475,50,40.0
3744,E4,606.0,0.5,74,40.0
3745,E5,606.0,0.5,74,40.0
3746,G3,606.0,0.475,50,40.0
3747,B3,606.0,0.475,50,40.0
3748,G3,606.5,0.475,50,40.0
3749,B3,606.5,0.475,50,40.0
3750,E3,607.0,0.475,63,40.0
3751,E4,607.5,0.188,57,40.0
3752,E5,607.5,0.188,57,40.0
3753,G3,607.5,0.475,50,40.0
3754,B3,607.5,0.475,50,40.0
3755,F#4,608.0,0.188,62,40.0
3756,F#5,608.0,0.188,62,40.0
3757,G3,608.0,0.475,50,40.0
3758,B3,608.0,0.475,50,40.0
3759,G4,608.5,0.188,57,40.0
3760,G5,608.5,0.188,57,40.0
3761,G3,608.5,0.475,47,40.0
3762,B3,608.5,0.475,47,40.0
3763,E3,609.0,0.475,55,40.0
3764,G4,609.0,1.0,61,40.0
3765,G5,609.0,1.0,61,40.0
3766,A3,609.5,0.475,44,40.0
3767,C4,609.5,0.475,44,40.0
3768,F#4,610.0,0.5,57,40.0
3769,F#5,610.0,0.5,57,40.0
3770,A3,610.0,0.475,44,40.0
3771,C4,610.0,0.475,44,40.0
3772,A3,610.5,0.475,44,40.0
3773,C4,610.5,0.475,44,40.0
3774,E-3,611.0,0.475,63,40.0
3775,F#4,611.5,0.188,57,40.0
3776,F#5,611.5,0.188,57,40.0
3777,A3,611.5,0.475,50,40.0
3778,C4,611.5,0.475,50,40.0
3779,G4,612.0,0.188,62,40.0
3780,G5,612.0,0.188,62,40.0
3781,A3,612.0,0.475,50,40.0
3782,C4,612.0,0.475,50,40.0
3783,A4,612.5,0.188,57,40.0
3784,A5,612.5,0.188,57,40.0
3785,A3,612.5,0.475,47,40.0
3786,C4,612.5,0.475,47,40.0
3787,D2,613.0,0.475,55,40.0
3788,A4,613.0,0.188,57,40.0
3789,A5,613.0,0.188,57,40.0
3790,D3,613.25,0.25,50,40.0
3791,G4,613.5,0.188,55,40.0
3792,D2,613.5,0.475,53,40.0
3793,D3,613.75,0.25,47,40.0
3794,F#4,614.0,0.188,58,40.0
3795,D2,614.0,0.475,53,40.0
3796,D3,614.25,0.25,47,40.0
3797,D2,614.5,0.475,52,40.0
3798,G4,614.5,0.188,52,40.0
3799,C#5,614.5,0.188,52,40.0
3800,D3,614.75,0.25,48,40.0
3801,D2,615.0,0.475,50,40.0
3802,F#4,615.0,0.188,56,40.0
3803,D5,615.0,0.188,56,40.0
3804,D3,615.25,0.25,53,40.0
3805,D2,615.5,0.475,54,40.0
3806,C#5,615.5,0.188,61,40.0
3807,G5,615.5,0.188,61,40.0
3808,D3,615.75,0.25,54,40.0
3809,D2,616.0,0.475,56,40.0
3810,D5,616.0,0.188,66,40.0
3811,F#5,616.0,0.188,66,40.0
3812,D3,616.25,0.25,58,40.0
3813,D2,616.5,0.475,62,40.0
3814,G5,616.5,0.188,68,40.0
3815,C#6,616.5,0.188,68,40.0
3816,D3,616.75,0.25,57,40.0
3817,F#5,617.0,0.5,74,40.0
3818,D6,617.0,0.5,74,40.0
3819,D3,617.0,0.475,58,40.0
3820,D2,617.0,0.475,58,40.0
3821,A3,617.5,0.475,50,40.0
3822,C4,617.5,0.475,50,40.0
3823,F#4,618.0,0.5,74,40.0
3824,F#5,618.0,0.5,74,40.0
3825,A3,618.0,0.475,50,40.0
3826,C4,618.0,0.475,50,40.0
3827,A3,618.5,0.475,50,40.0
3828,C4,618.5,0.475,50,40.0
3829,D3,619.0,0.475,63,40.0
3830,F#4,619.5,0.188,57,40.0
3831,F#5,619.5,0.188,57,40.0
3832,A3,619.5,0.475,50,40.0
3833,C4,619.5,0.475,50,40.0
3834,G4,620.0,0.188,62,40.0
3835,G5,620.0,0.188,62,40.0
3836,A3,620.0,0.475,50,40.0
3837,C4,620.0,0.475,50,40.0
3838,A4,620.5,0.188,57,40.0
3839,A5,620.5,0.188,57,40.0
3840,A3,620.5,0.475,47,40.0
3841,C4,620.5,0.475,47,40.0
3842,D3,621.0,0.475,55,40.0
3843,A4,621.0,1.0,61,40.0
3844,A5,621.0,1.0,61,40.0
3845,G3,621.5,0.475,44,40.0
3846,B-3,621.5,0.475,44,40.0
3847,G4,622.0,0.5,57,40.0
3848,G5,622.0,0.5,57,40.0
3849,G3,622.0,0.475,44,40.0
3850,B-3,622.0,0.475,44,40.0
3851,G3,622.5,0.475,44,40.0
3852,B-3,622.5,0.475,44,40.0
3853,C#3,623.0,0.475,63,40.0
3854,G4,623.5,0.188,57,40.0
3855,G5,623.5,0.188,57,40.0
3856,G3,623.5,0.475,50,40.0
3857,B-3,623.5,0.475,50,40.0
3858,A4,624.0,0.188,62,40.0
3859,A5,624.0,0.188,62,40.0
3860,G3,624.0,0.475,50,40.0
3861,B-3,624.0,0.475,50,40.0
3862,B-4,624.5,0.188,57,40.0
3863,B-5,624.5,0.188,57,40.0
3864,G3,624.5,0.475,47,40.0
3865,B-3,624.5,0.475,47,40.0
3866,B-4,625.0,0.475,58,40.0
3867,C2,625.0,0.5,53,40.0
3868,C3,625.0,0.5,53,40.0
3869,B-5,625.25,0.25,52,40.0
3870,B-4,625.5,0.475,58,40.0
3871,C#3,625.5,0.5,55,40.0
3872,B-5,625.75,0.25,53,40.0
3873,B-4,626.0,0.475,58,40.0
3874,C3,626.0,0.5,51,40.0
3875,B-5,626.25,0.25,52,40.0
3876,B-4,626.5,0.475,58,40.0
3877,F3,626.5,0.5,55,40.0
3878,B-5,626.75,0.25,52,40.0
3879,B-4,627.0,0.475,58,40.0
3880,E3,627.0,0.5,52,40.0
3881,B-5,627.25,0.25,52,40.0
3882,B-4,627.5,0.475,58,40.0
3883,C#4,627.5,0.5,55,40.0
3884,B-5,627.75,0.25,53,40.0
3885,B-4,628.0,0.475,58,40.0
3886,C4,628.0,0.5,51,40.0
3887,B-5,628.25,0.25,52,40.0
3888,B-4,628.5,0.475,58,40.0
3889,F4,628.5,0.5,55,40.0
3890,B-5,628.75,0.25,52,40.0
3891,B-4,629.0,0.475,58,40.0
3892,E4,629.0,0.5,51,40.0
3893,B-5,629.25,0.25,52,40.0
3894,B-4,629.5,0.475,58,40.0
3895,F#4,629.5,0.5,55,40.0
3896,B-5,629.75,0.25,53,40.0
3897,B-4,630.0,0.475,58,40.0
3898,G4,630.0,0.5,57,40.0
3899,B-5,630.25,0.25,52,40.0
3900,B-4,630.5,0.475,58,40.0
3901,B-5,630.75,0.25,52,40.0
3902,B-4,631.0,0.475,58,40.0
3903,B-5,631.25,0.25,52,40.0
3904,B-4,631.5,0.475,58,40.0
3905,B-5,631.75,0.25,53,40.0
3906,B-4,632.0,0.475,58,40.0
3907,B-5,632.25,0.25,52,40.0
3908,B-4,632.5,0.475,58,40.0
3909,B-5,632.75,0.25,52,40.0
3910,A4,633.0,0.475,58,40.0
3911,A5,633.25,0.25,52,40.0
3912,A4,633.5,0.475,58,40.0
3913,F#2,633.5,0.5,55,40.0
3914,A5,633.75,0.25,53,40.0
3915,A4,634.0,0.475,58,40.0
3916,F2,634.0,0.5,51,40.0
3917,A5,634.25,0.25,52,40.0
3918,A4,634.5,0.475,58,40.0
3919,C#3,634.5,0.5,55,40.0
3920,A5,634.75,0.25,52,40.0
3921,A4,635.0,0.475,58,40.0
3922,C3,635.0,0.5,52,40.0
3923,A5,635.25,0.25,52,40.0
3924,A4,635.5,0.475,58,40.0
3925,F#3,635.5,0.5,55,40.0
3926,A5,635.75,0.25,53,40.0
3927,A4,636.0,0.475,58,40.0
3928,F3,636.0,0.5,51,40.0
3929,A5,636.25,0.25,52,40.0
3930,A4,636.5,0.475,58,40.0
3931,C#4,636.5,0.5,55,40.0
3932,A5,636.75,0.25,52,40.0
3933,A4,637.0,0.475,58,40.0
3934,C4,637.0,0.5,51,40.0
3935,A5,637.25,0.25,52,40.0
3936,A4,637.5,0.475,58,40.0
3937,E4,637.5,0.5,55,40.0
3938,A5,637.75,0.25,53,40.0
3939,A4,638.0,0.475,58,40.0
3940,F4,638.0,0.5,57,40.0
3941,A5,638.25,0.25,52,40.0
3942,A4,638.5,0.475,58,40.0
3943,A5,638.75,0.25,52,40.0
3944,A4,639.0,0.475,58,40.0
3945,A5,639.25,0.25,52,40.0
3946,A4,639.5,0.475,58,40.0
3947,A5,639.75,0.25,53,40.0
3948,A4,640.0,0.475,58,40.0
3949,A5,640.25,0.25,52,40.0
3950,A4,640.5,0.475,58,40.0
3951,A5,640.75,0.25,52,40.0
3952,G#4,641.0,0.475,58,40.0
3953,G#5,641.25,0.25,52,40.0
3954,G#4,641.5,0.475,58,40.0
3955,C3,641.5,0.5,55,40.0
3956,G#5,641.75,0.25,53,40.0
3957,G#4,642.0,0.475,58,40.0
3958,B2,642.0,0.5,51,40.0
3959,G#5,642.25,0.25,52,40.0
3960,G#4,642.5,0.475,58,40.0
3961,D3,642.5,0.5,55,40.0
3962,G#5,642.75,0.25,52,40.0
3963,G#4,643.0,0.475,58,40.0
3964,F3,643.0,0.5,52,40.0
3965,G#5,643.25,0.25,52,40.0
3966,G#4,643.5,0.475,58,40.0
3967,C4,643.5,0.5,55,40.0
3968,G#5,643.75,0.25,53,40.0
3969,G#4,644.0,0.475,58,40.0
3970,B3,644.0,0.5,51,40.0
3971,G#5,644.25,0.25,52,40.0
3972,G#4,644.5,0.475,58,40.0
3973,D4,644.5,0.5,55,40.0
3974,G#5,644.75,0.25,52,40.0
3975,G#4,645.0,0.475,58,40.0
3976,F4,645.0,0.237,54,40.0
3977,G#5,645.25,0.25,52,40.0
3978,G#4,645.5,0.475,58,40.0
3979,G#5,645.75,0.25,53,40.0
3980,G#4,646.0,0.475,58,40.0
3981,D4,646.0,0.25,54,40.0
3982,G#5,646.25,0.25,52,40.0
3983,G#4,646.5,0.475,58,40.0
3984,G#5,646.75,0.25,52,40.0
3985,G#4,647.0,0.475,58,40.0
3986,B3,647.0,0.25,53,40.0
3987,G#5,647.25,0.25,54,40.0
3988,G4,647.5,0.475,58,40.0
3989,G5,647.75,0.25,54,40.0
3990,G4,648.0,0.475,58,40.0
3991,G3,648.0,0.25,52,40.0
3992,G5,648.25,0.25,54,40.0
3993,F4,648.5,0.475,58,40.0
3994,F5,648.75,0.25,54,40.0
3995,F4,649.0,0.475,56,40.0
3996,C#3,649.0,0.5,47,40.0
3997,C#4,649.0,0.5,47,40.0
3998,F5,649.25,0.25,56,40.0
3999,E4,649.5,0.475,56,40.0
4000,E5,649.75,0.25,56,40.0
4001,E4,650.0,0.475,55,40.0
4002,B-2,650.0,0.5,46,40.0
4003,B-3,650.0,0.5,46,40.0
4004,E5,650.25,0.25,55,40.0
4005,C#4,650.5,0.475,55,40.0
4006,C#5,650.75,0.25,55,40.0
4007,C#4,651.0,0.475,54,40.0
4008,G2,651.0,0.5,45,40.0
4009,G3,651.0,0.5,45,40.0
4010,C#5,651.25,0.25,51,40.0
4011,C4,651.5,0.475,54,40.0
4012,C5,651.75,0.25,51,40.0
4013,C4,652.0,0.475,53,40.0
4014,E2,652.0,0.5,44,40.0
4015,E3,652.0,0.5,44,40.0
4016,C5,652.25,0.25,50,40.0
4017,B-3,652.5,0.475,53,40.0
4018,B-4,652.75,0.25,49,40.0
4019,B-3,653.0,0.475,53,40.0
4020,F2,653.0,0.5,44,40.0
4021,F3,653.0,0.5,44,40.0
4022,B-4,653.25,0.25,51,40.0
4023,G#3,653.5,0.475,53,40.0
4024,G#4,653.75,0.25,50,40.0
4025,G#3,654.0,0.475,53,40.0
4026,G#4,654.25,0.25,50,40.0
4027,G3,654.5,0.475,53,40.0
4028,G4,654.75,0.25,49,40.0
4029,G3,655.0,0.475,53,40.0
4030,F1,655.0,0.5,44,40.0
4031,F2,655.0,0.5,44,40.0
4032,G4,655.25,0.25,53,40.0
4033,F3,655.5,0.475,53,40.0
4034,F4,655.75,0.25,48,40.0
4035,F3,656.0,0.475,53,40.0
4036,F4,656.25,0.25,49,40.0
4037,E-3,656.5,0.475,53,40.0
4038,E-4,656.75,0.25,49,40.0
4039,E-3,657.0,0.475,53,40.0
4040,F#1,657.0,0.5,44,40.0
4041,F#2,657.0,0.5,44,40.0
4042,E-4,657.25,0.25,49,40.0
4043,D3,657.5,0.475,53,40.0
4044,D4,657.75,0.25,49,40.0
4045,D3,658.0,0.475,53,40.0
4046,D4,658.25,0.25,49,40.0
4047,E-3,658.5,0.475,53,40.0
4048,E-4,658.75,0.25,48,40.0
4049,E-3,659.0,0.475,53,40.0
4050,F#1,659.0,0.5,44,40.0
4051,F#2,659.0,0.5,44,40.0
4052,E-4,659.25,0.25,49,40.0
4053,D3,659.5,0.475,53,40.0
4054,D4,659.75,0.25,49,40.0
4055,D3,660.0,0.475,53,40.0
4056,D4,660.25,0.25,49,40.0
4057,C3,660.5,0.475,53,40.0
4058,C4,660.75,0.25,49,40.0
4059,G1,661.0,0.25,33,40.0
4060,B2,661.0,0.5,53,40.0
4061,B3,661.0,0.5,53,40.0
4062,G2,661.25,0.25,33,40.0
4063,G1,661.5,0.25,34,40.0
4064,G2,661.75,0.25,34,40.0
4065,C#3,662.0,0.25,40,40.0
4066,G1,662.0,0.25,34,40.0
4067,G#3,662.25,0.25,34,40.0
4068,G2,662.25,0.25,34,40.0
4069,E3,662.5,0.25,34,40.0
4070,G1,662.5,0.25,34,40.0
4071,C#3,662.75,0.25,34,40.0
4072,G2,662.75,0.25,34,40.0
4073,D3,663.0,0.25,41,40.0
4074,G1,663.0,0.25,34,40.0
4075,G#3,663.25,0.25,34,40.0
4076,G2,663.25,0.25,34,40.0
4077,F3,663.5,0.25,34,40.0
4078,G1,663.5,0.25,34,40.0
4079,D3,663.75,0.25,34,40.0
4080,G2,663.75,0.25,34,40.0
4081,C3,664.0,0.25,41,40.0
4082,G1,664.0,0.25,34,40.0
4083,G#3,664.25,0.25,34,40.0
4084,G2,664.25,0.25,34,40.0
4085,E-3,664.5,0.25,34,40.0
4086,G1,664.5,0.25,34,40.0
4087,C3,664.75,0.25,34,40.0
4088,G2,664.75,0.25,34,40.0
4089,B2,665.0,0.25,40,40.0
4090,G1,665.0,0.25,33,40.0
4091,G3,665.25,0.25,34,40.0
4092,G2,665.25,0.25,33,40.0
4093,D3,665.5,0.25,34,40.0
4094,G1,665.5,0.25,33,40.0
4095,B2,665.75,0.25,34,40.0
4096,G2,665.75,0.25,33,40.0
4097,C#3,666.0,0.25,40,40.0
4098,G1,666.0,0.25,33,40.0
4099,G#3,666.25,0.25,34,40.0
4100,G2,666.25,0.25,33,40.0
4101,E3,666.5,0.25,34,40.0
4102,G1,666.5,0.25,33,40.0
4103,C#3,666.75,0.25,34,40.0
4104,G2,666.75,0.25,33,40.0
4105,D3,667.0,0.25,40,40.0
4106,G1,667.0,0.25,33,40.0
4107,G#3,667.25,0.25,34,40.0
4108,G2,667.25,0.25,33,40.0
4109,F3,667.5,0.25,34,40.0
4110,G1,667.5,0.25,33,40.0
4111,D3,667.75,0.25,34,40.0
4112,G2,667.75,0.25,33,40.0
4113,C3,668.0,0.25,39,40.0
4114,G1,668.0,0.25,33,40.0
4115,G#3,668.25,0.25,34,40.0
4116,G2,668.25,0.25,33,40.0
4117,E-3,668.5,0.25,34,40.0
4118,G1,668.5,0.25,33,40.0
4119,C3,668.75,0.25,34,40.0
4120,G2,668.75,0.25,33,40.0
4121,G1,669.0,0.475,55,40.0
4122,B2,669.0,0.5,34,40.0
4123,D3,669.0,0.5,34,40.0
4124,G3,669.0,0.5,34,40.0
4125,G2,669.25,0.25,50,40.0
4126,E4,669.5,0.188,55,40.0
4127,G1,669.5,0.475,53,40.0
4128,G2,669.75,0.25,47,40.0
4129,F4,670.0,0.188,58,40.0
4130,G1,670.0,0.475,53,40.0
4131,G2,670.25,0.25,47,40.0
4132,G1,670.5,0.475,52,40.0
4133,E4,670.5,0.188,52,40.0
4134,C#5,670.5,0.188,52,40.0
4135,G2,670.75,0.25,48,40.0
4136,G1,671.0,0.475,50,40.0
4137,F4,671.0,0.188,56,40.0
4138,D5,671.0,0.188,56,40.0
4139,G2,671.25,0.25,53,40.0
4140,G1,671.5,0.475,54,40.0
4141,C#5,671.5,0.188,61,40.0
4142,E5,671.5,0.188,61,40.0
4143,G2,671.75,0.25,54,40.0
4144,G1,672.0,0.475,56,40.0
4145,D5,672.0,0.188,66,40.0
4146,F5,672.0,0.188,66,40.0
4147,G2,672.25,0.25,58,40.0
4148,G1,672.5,0.475,62,40.0
4149,E5,672.5,0.188,68,40.0
4150,C#6,672.5,0.188,68,40.0
4151,G2,672.75,0.25,57,40.0
4152,G1,673.0,1.0,69,40.0
4153,F5,673.0,0.188,68,40.0
4154,D6,673.0,0.188,68,40.0
4155,G2,673.5,1.0,62,40.0
4156,C#6,673.5,0.188,77,40.0
4157,E6,673.5,0.188,77,40.0
4158,B1,674.0,1.0,67,40.0
4159,D6,674.0,2.0,82,40.0
4160,F6,674.0,2.0,82,40.0
4161,G2,674.5,1.0,62,40.0
4162,C2,675.0,1.0,67,40.0
4163,G2,675.5,1.0,62,40.0
4164,C6,676.0,1.0,58,40.0
4165,E-6,676.0,0.125,58,40.0
4166,F#1,676.0,1.0,64,40.0
4167,F6,676.125,0.125,54,40.0
4168,E-6,676.25,0.125,54,40.0
4169,F6,676.375,0.125,54,40.0
4170,E-6,676.5,0.125,59,40.0
4171,G2,676.5,0.5,62,40.0
4172,F6,676.625,0.125,54,40.0
4173,E-6,676.75,0.125,54,40.0
4174,F6,676.875,0.125,54,40.0
4175,G1,677.0,0.25,33,40.0
4176,B5,677.0,0.5,59,40.0
4177,D6,677.0,0.5,59,40.0
4178,G2,677.25,0.25,33,40.0
4179,G1,677.5,0.25,34,40.0
4180,G2,677.75,0.25,34,40.0
4181,C#3,678.0,0.25,40,40.0
4182,G1,678.0,0.25,34,40.0
4183,G#3,678.25,0.25,34,40.0
4184,G2,678.25,0.25,34,40.0
4185,E3,678.5,0.25,34,40.0
4186,G1,678.5,0.25,34,40.0
4187,C#3,678.75,0.25,34,40.0
4188,G2,678.75,0.25,34,40.0
4189,D3,679.0,0.25,41,40.0
4190,G1,679.0,0.25,34,40.0
4191,G#3,679.25,0.25,34,40.0
4192,G2,679.25,0.25,34,40.0
4193,F3,679.5,0.25,34,40.0
4194,G1,679.5,0.25,34,40.0
4195,D3,679.75,0.25,34,40.0
4196,G2,679.75,0.25,34,40.0
4197,C3,680.0,0.25,41,40.0
4198,G1,680.0,0.25,34,40.0
4199,G#3,680.25,0.25,34,40.0
4200,G2,680.25,0.25,34,40.0
4201,E-3,680.5,0.25,34,40.0
4202,G1,680.5,0.25,34,40.0
4203,C3,680.75,0.25,34,40.0
4204,G2,680.75,0.25,34,40.0
4205,B2,681.0,0.25,40,40.0
4206,G1,681.0,0.25,33,40.0
4207,G3,681.25,0.25,34,40.0
4208,G2,681.25,0.25,33,40.0
4209,D3,681.5,0.25,34,40.0
4210,G1,681.5,0.25,33,40.0
4211,B2,681.75,0.25,34,40.0
4212,G2,681.75,0.25,33,40.0
4213,C#3,682.0,0.25,40,40.0
4214,G1,682.0,0.25,33,40.0
4215,G#3,682.25,0.25,34,40.0
4216,G2,682.25,0.25,33,40.0
4217,E3,682.5,0.25,34,40.0
4218,G1,682.5,0.25,33,40.0
4219,C#3,682.75,0.25,34,40.0
4220,G2,682.75,0.25,33,40.0
4221,D3,683.0,0.25,40,40.0
4222,G1,683.0,0.25,33,40.0
4223,G#3,683.25,0.25,34,40.0
4224,G2,683.25,0.25,33,40.0
4225,F3,683.5,0.25,34,40.0
4226,G1,683.5,0.25,33,40.0
4227,D3,683.75,0.25,34,40.0
4228,G2,683.75,0.25,33,40.0
4229,C3,684.0,0.25,39,40.0
4230,G1,684.0,0.25,33,40.0
4231,G#3,684.25,0.25,34,40.0
4232,G2,684.25,0.25,33,40.0
4233,E-3,684.5,0.25,34,40.0
4234,G1,684.5,0.25,33,40.0
4235,C3,684.75,0.25,34,40.0
4236,G2,684.75,0.25,33,40.0
4237,G1,685.0,0.475,55,40.0
4238,B2,685.0,0.5,34,40.0
4239,D3,685.0,0.5,34,40.0
4240,G3,685.0,0.5,34,40.0
4241,G2,685.25,0.25,50,40.0
4242,E4,685.5,0.188,55,40.0
4243,G1,685.5,0.475,53,40.0
4244,G2,685.75,0.25,47,40.0
4245,F4,686.0,0.188,58,40.0
4246,G1,686.0,0.475,53,40.0
4247,G2,686.25,0.25,47,40.0
4248,G1,686.5,0.475,52,40.0
4249,E4,686.5,0.188,52,40.0
4250,C#5,686.5,0.188,52,40.0
4251,G2,686.75,0.25,48,40.0
4252,G1,687.0,0.475,50,40.0
4253,F4,687.0,0.188,56,40.0
4254,D5,687.0,0.188,56,40.0
4255,G2,687.25,0.25,53,40.0
4256,G1,687.5,0.475,54,40.0
4257,C#5,687.5,0.188,61,40.0
4258,E5,687.5,0.188,61,40.0
4259,G2,687.75,0.25,54,40.0
4260,G1,688.0,0.475,56,40.0
4261,D5,688.0,0.188,66,40.0
4262,F5,688.0,0.188,66,40.0
4263,G2,688.25,0.25,58,40.0
4264,G1,688.5,0.475,62,40.0
4265,E5,688.5,0.188,68,40.0
4266,C#6,688.5,0.188,68,40.0
4267,G2,688.75,0.25,57,40.0
4268,G1,689.0,1.0,69,40.0
4269,F5,689.0,0.188,68,40.0
4270,D6,689.0,0.188,68,40.0
4271,G2,689.5,1.0,62,40.0
4272,C#6,689.5,0.188,77,40.0
4273,E6,689.5,0.188,77,40.0
4274,B1,690.0,1.0,67,40.0
4275,D6,690.0,2.0,82,40.0
4276,F6,690.0,2.0,82,40.0
4277,G2,690.5,1.0,62,40.0
4278,C2,691.0,1.0,67,40.0
4279,G2,691.5,1.0,62,40.0
4280,C6,692.0,1.0,58,40.0
4281,E-6,692.0,0.125,58,40.0
4282,F#1,692.0,1.0,64,40.0
4283,F6,692.125,0.125,54,40.0
4284,E-6,692.25,0.125,54,40.0
4285,F6,692.375,0.125,54,40.0
4286,E-6,692.5,0.083,59,40.0
4287,G2,692.5,0.5,62,40.0
4288,F6,692.583,0.083,54,40.0
4289,E-6,692.667,0.083,54,40.0
4290,D6,692.75,0.125,54,40.0
4291,E-6,692.875,0.125,54,40.0
4292,G1,693.0,1.0,69,40.0
4293,B5,693.0,0.188,68,40.0
4294,D6,693.0,0.188,68,40.0
4295,G2,693.5,1.0,62,40.0
4296,C#6,693.5,0.188,77,40.0
4297,E6,693.5,0.188,77,40.0
4298,B1,694.0,1.0,67,40.0
4299,D6,694.0,2.0,82,40.0
4300,F6,694.0,2.0,82,40.0
4301,G2,694.5,1.0,62,40.0
4302,C2,695.0,1.0,67,40.0
4303,G2,695.5,1.0,62,40.0
4304,C6,696.0,1.0,58,40.0
4305,E-6,696.0,0.125,58,40.0
4306,F#1,696.0,1.0,64,40.0
4307,F6,696.125,0.125,54,40.0
4308,E-6,696.25,0.125,54,40.0
4309,F6,696.375,0.125,54,40.0
4310,E-6,696.5,0.083,59,40.0
4311,G2,696.5,0.5,62,40.0
4312,F6,696.583,0.083,54,40.0
4313,E-6,696.667,0.083,54,40.0
4314,D6,696.75,0.125,54,40.0
4315,E-6,696.875,0.125,54,40.0
4316,G1,697.0,1.0,69,40.0
4317,B5,697.0,0.188,68,40.0
4318,D6,697.0,0.188,68,40.0
4319,G2,697.5,1.0,62,40.0
4320,C#6,697.5,0.188,77,40.0
4321,E6,697.5,0.188,77,40.0
4322,B1,698.0,1.0,67,40.0
4323,D6,698.0,2.0,82,40.0
4324,F6,698.0,2.0,82,40.0
4325,G2,698.5,1.0,62,40.0
4326,C2,699.0,1.0,67,40.0
4327,G2,699.5,1.0,62,40.0
4328,C6,700.0,1.0,58,40.0
4329,E-6,700.0,0.125,58,40.0
4330,F#1,700.0,1.0,64,40.0
4331,F6,700.125,0.125,54,40.0
4332,E-6,700.25,0.125,54,40.0
4333,F6,700.375,0.125,54,40.0
4334,E-6,700.5,0.083,59,40.0
4335,G2,700.5,0.5,62,40.0
4336,F6,700.583,0.083,54,40.0
4337,E-6,700.667,0.083,54,40.0
4338,D6,700.75,0.125,54,40.0
4339,E-6,700.875,0.125,54,40.0
4340,B5,701.0,0.25,58,40.0
4341,D6,701.0,0.25,58,40.0
4342,F6,701.25,0.25,53,40.0
4343,D6,701.5,0.25,54,40.0
4344,C6,701.75,0.25,54,40.0
4345,B5,702.0,0.25,58,40.0
4346,F6,702.25,0.25,53,40.0
4347,D6,702.5,0.25,53,40.0
4348,C6,702.75,0.25,53,40.0
4349,B5,703.0,0.25,58,40.0
4350,F6,703.25,0.25,55,40.0
4351,D6,703.5,0.25,55,40.0
4352,C6,703.75,0.25,55,40.0
4353,B5,704.0,0.25,58,40.0
4354,D6,704.25,0.25,55,40.0
4355,B5,704.5,0.25,55,40.0
4356,G5,704.75,0.25,55,40.0
4357,G#5,705.0,0.25,58,40.0
4358,B-5,705.25,0.25,55,40.0
4359,G#5,705.5,0.25,55,40.0
4360,G5,705.75,0.25,55,40.0
4361,F5,706.0,0.25,58,40.0
4362,G#5,706.25,0.25,55,40.0
4363,F5,706.5,0.25,55,40.0
4364,E-5,706.75,0.25,55,40.0
4365,D5,707.0,0.25,58,40.0
4366,F5,707.25,0.25,54,40.0
4367,D5,707.5,0.25,54,40.0
4368,C5,707.75,0.25,54,40.0
4369,B4,708.0,0.25,58,40.0
4370,D5,708.25,0.25,54,40.0
4371,B4,708.5,0.25,54,40.0
4372,G4,708.75,0.25,54,40.0
4373,G#4,709.0,0.25,58,40.0
4374,B-4,709.25,0.25,55,40.0
4375,G#4,709.5,0.25,55,40.0
4376,G4,709.75,0.25,55,40.0
4377,F4,710.0,0.25,58,40.0
4378,G#4,710.25,0.25,58,40.0
4379,F4,710.5,0.25,55,40.0
4380,E-4,710.75,0.25,55,40.0
4381,D4,711.0,0.25,58,40.0
4382,F4,711.25,0.25,55,40.0
4383,D4,711.5,0.25,55,40.0
4384,C4,711.75,0.25,55,40.0
4385,B3,712.0,0.25,58,40.0
4386,D4,712.25,0.25,55,40.0
4387,B3,712.5,0.25,55,40.0
4388,G3,712.75,0.25,55,40.0
4389,G#3,713.0,0.25,58,40.0
4390,B-3,713.25,0.25,54,40.0
4391,G#3,713.5,0.25,54,40.0
4392,G3,713.75,0.25,54,40.0
4393,F3,714.0,0.25,58,40.0
4394,E-3,714.25,0.25,53,40.0
4395,D3,714.5,0.25,53,40.0
4396,C3,714.75,0.25,53,40.0
4397,B2,715.0,0.25,58,40.0
4398,C3,715.25,0.25,55,40.0
4399,B2,715.5,0.25,55,40.0
4400,G#2,715.75,0.25,56,40.0
4401,G2,716.0,0.25,58,40.0
4402,F2,716.25,0.25,55,40.0
4403,E-2,716.5,0.25,55,40.0
4404,D2,716.75,0.25,55,40.0
4405,C4,717.0,1.5,50,40.0
4406,C2,717.0,0.475,44,40.0
4407,C3,717.25,0.25,41,40.0
4408,C2,717.5,0.475,44,40.0
4409,C3,717.75,0.25,41,40.0
4410,C2,718.0,0.475,44,40.0
4411,C3,718.25,0.25,41,40.0
4412,C2,718.5,0.475,45,40.0
4413,B-3,718.5,0.188,52,40.0
4414,E4,718.5,0.188,52,40.0
4415,C3,718.75,0.25,41,40.0
4416,C2,719.0,0.475,45,40.0
4417,G#3,719.0,0.188,54,40.0
4418,F4,719.0,0.188,54,40.0
4419,C3,719.25,0.25,46,40.0
4420,C2,719.5,0.475,47,40.0
4421,E4,719.5,0.188,56,40.0
4422,G4,719.5,0.188,56,40.0
4423,C3,719.75,0.25,47,40.0
4424,C2,720.0,0.475,49,40.0
4425,F4,720.0,0.188,57,40.0
4426,G#4,720.0,0.188,57,40.0
4427,C3,720.25,0.25,50,40.0
4428,C2,720.5,0.475,51,40.0
4429,D4,720.5,0.188,59,40.0
4430,B4,720.5,0.188,59,40.0
4431,C3,720.75,0.25,53,40.0
4432,C2,721.0,0.475,55,40.0
4433,E-4,721.0,0.188,61,40.0
4434,C5,721.0,0.188,61,40.0
4435,C3,721.25,0.25,50,40.0
4436,C2,721.5,0.475,53,40.0
4437,E4,721.5,1.0,55,40.0
4438,C5,721.5,1.0,55,40.0
4439,C3,721.75,0.25,47,40.0
4440,C2,722.0,0.475,53,40.0
4441,C3,722.25,0.25,47,40.0
4442,C2,722.5,0.475,44,40.0
4443,B-4,722.5,0.188,51,40.0
4444,E5,722.5,0.188,51,40.0
4445,C3,722.75,0.25,40,40.0
4446,C2,723.0,0.475,43,40.0
4447,G#4,723.0,0.188,53,40.0
4448,F5,723.0,0.188,53,40.0
4449,C3,723.25,0.25,45,40.0
4450,C2,723.5,0.475,46,40.0
4451,E5,723.5,0.188,55,40.0
4452,G5,723.5,0.188,55,40.0
4453,C3,723.75,0.25,47,40.0
4454,C2,724.0,0.475,48,40.0
4455,F5,724.0,0.188,57,40.0
4456,G#5,724.0,0.188,57,40.0
4457,C3,724.25,0.25,50,40.0
4458,C2,724.5,0.475,51,40.0
4459,D5,724.5,0.188,59,40.0
4460,B5,724.5,0.188,59,40.0
4461,C3,724.75,0.25,53,40.0
4462,C2,725.0,0.475,55,40.0
4463,C5,725.0,1.0,56,40.0
4464,G5,725.0,1.0,56,40.0
4465,E-5,725.0,1.0,56,40.0
4466,C6,725.0,1.0,56,40.0
4467,C3,725.25,0.25,50,40.0
4468,C2,725.5,0.475,53,40.0
4469,C3,725.75,0.25,47,40.0
4470,D2,726.0,0.475,55,40.0
4471,G4,726.0,1.0,58,40.0
4472,B4,726.0,1.0,58,40.0
4473,F5,726.0,1.0,58,40.0
4474,G5,726.0,1.0,58,40.0
4475,D3,726.25,0.25,50,40.0
4476,D2,726.5,0.475,55,40.0
4477,D3,726.75,0.25,51,40.0
4478,E-2,727.0,0.475,55,40.0
4479,G4,727.0,1.0,60,40.0
4480,C5,727.0,1.0,60,40.0
4481,E-5,727.0,1.0,60,40.0
4482,E-3,727.25,0.25,55,40.0
4483,E-2,727.5,0.475,55,40.0
4484,E-3,727.75,0.25,55,40.0
4485,F2,728.0,0.475,55,40.0
4486,F4,728.0,1.0,64,40.0
4487,G#4,728.0,1.0,64,40.0
4488,D5,728.0,1.0,64,40.0
4489,F3,728.25,0.25,53,40.0
4490,F2,728.5,0.475,55,40.0
4491,F3,728.75,0.25,55,40.0
4492,G4,729.0,1.0,74,40.0
4493,G2,729.0,0.475,56,40.0
4494,E-4,729.0,3.0,68,40.0
4495,C5,729.0,3.0,68,40.0
4496,G3,729.25,0.25,56,40.0
4497,G2,729.5,0.475,57,40.0
4498,G3,729.75,0.25,57,40.0
4499,F#4,730.0,1.0,74,40.0
4500,G#2,730.0,0.475,58,40.0
4501,G#3,730.25,0.25,59,40.0
4502,G#2,730.5,0.475,59,40.0
4503,G#3,730.75,0.25,60,40.0
4504,A4,731.0,1.0,77,40.0
4505,F#2,731.0,0.475,60,40.0
4506,F#3,731.25,0.25,55,40.0
4507,F#2,731.5,0.475,61,40.0
4508,F#3,731.75,0.25,55,40.0
4509,G2,732.0,0.475,58,40.0
4510,D4,732.0,1.0,66,40.0
4511,F4,732.0,1.0,66,40.0
4512,B4,732.0,1.0,66,40.0
4513,G3,732.25,0.25,55,40.0
4514,G2,732.5,0.475,58,40.0
4515,G3,732.75,0.25,55,40.0
4516,C2,733.0,0.475,48,40.0
4517,C4,733.0,0.188,71,40.0
4518,E-4,733.0,0.188,71,40.0
4519,C5,733.0,0.188,71,40.0
4520,C3,733.25,0.25,45,40.0
4521,C4,733.5,1.0,67,40.0
4522,C2,733.5,0.475,44,40.0
4523,C3,733.75,0.25,41,40.0
4524,C2,734.0,0.475,44,40.0
4525,C3,734.25,0.25,40,40.0
4526,C2,734.5,0.475,44,40.0
4527,B-3,734.5,0.188,52,40.0
4528,E4,734.5,0.188,52,40.0
4529,C3,734.75,0.25,41,40.0
4530,C2,735.0,0.475,44,40.0
4531,G#3,735.0,0.188,54,40.0
4532,F4,735.0,0.188,54,40.0
4533,C3,735.25,0.25,46,40.0
4534,C2,735.5,0.475,47,40.0
4535,E4,735.5,0.188,55,40.0
4536,G4,735.5,0.188,55,40.0
4537,C3,735.75,0.25,47,40.0
4538,C2,736.0,0.475,49,40.0
4539,F4,736.0,0.188,57,40.0
4540,G#4,736.0,0.188,57,40.0
4541,C3,736.25,0.25,50,40.0
4542,C2,736.5,0.475,51,40.0
4543,D4,736.5,0.188,59,40.0
4544,B4,736.5,0.188,59,40.0
4545,C3,736.75,0.25,53,40.0
4546,C2,737.0,0.475,55,40.0
4547,E-4,737.0,0.188,61,40.0
4548,C5,737.0,0.188,61,40.0
4549,C3,737.25,0.25,50,40.0
4550,C2,737.5,0.475,53,40.0
4551,E4,737.5,1.0,55,40.0
4552,C5,737.5,1.0,55,40.0
4553,C3,737.75,0.25,47,40.0
4554,C2,738.0,0.475,53,40.0
4555,C3,738.25,0.25,47,40.0
4556,C2,738.5,0.475,44,40.0
4557,B-4,738.5,0.188,51,40.0
4558,E5,738.5,0.188,51,40.0
4559,C3,738.75,0.25,40,40.0
4560,C2,739.0,0.475,43,40.0
4561,G#4,739.0,0.188,53,40.0
4562,F5,739.0,0.188,53,40.0
4563,C3,739.25,0.25,45,40.0
4564,C2,739.5,0.475,46,40.0
4565,E5,739.5,0.188,55,40.0
4566,G5,739.5,0.188,55,40.0
4567,C3,739.75,0.25,47,40.0
4568,C2,740.0,0.475,48,40.0
4569,F5,740.0,0.188,57,40.0
4570,G#5,740.0,0.188,57,40.0
4571,C3,740.25,0.25,50,40.0
4572,C2,740.5,0.475,51,40.0
4573,D5,740.5,0.188,59,40.0
4574,B5,740.5,0.188,59,40.0
4575,C3,740.75,0.25,53,40.0
4576,C2,741.0,0.475,55,40.0
4577,C5,741.0,1.0,56,40.0
4578,G5,741.0,1.0,56,40.0
4579,E-5,741.0,1.0,56,40.0
4580,C6,741.0,1.0,56,40.0
4581,C3,741.25,0.25,50,40.0
4582,C2,741.5,0.475,53,40.0
4583,C3,741.75,0.25,47,40.0
4584,C2,742.0,0.475,55,40.0
4585,G#4,742.0,1.0,60,40.0
4586,E-5,742.0,1.0,60,40.0
4587,G#5,742.0,1.0,60,40.0
4588,C3,742.25,0.25,50,40.0
4589,C2,742.5,0.475,55,40.0
4590,C3,742.75,0.25,51,40.0
4591,C#2,743.0,0.475,55,40.0
4592,G#4,743.0,1.0,60,40.0
4593,C#5,743.0,1.0,60,40.0
4594,F5,743.0,1.0,60,40.0
4595,C#3,743.25,0.25,55,40.0
4596,C#2,743.5,0.475,55,40.0
4597,C#3,743.75,0.25,55,40.0
4598,E-2,744.0,0.475,55,40.0
4599,F#4,744.0,1.0,64,40.0
4600,C5,744.0,1.0,64,40.0
4601,E-5,744.0,1.0,64,40.0
4602,E-3,744.25,0.25,53,40.0
4603,E-2,744.5,0.475,55,40.0
4604,E-3,744.75,0.25,55,40.0
4605,F2,745.0,0.475,56,40.0
4606,F4,745.0,1.0,70,40.0
4607,G#4,745.0,1.0,70,40.0
4608,C#5,745.0,1.0,70,40.0
4609,F3,745.25,0.25,56,40.0
4610,F2,745.5,0.475,57,40.0
4611,F3,745.75,0.25,57,40.0
4612,F#2,746.0,0.475,58,40.0
4613,B-4,746.0,1.0,74,40.0
4614,F#4,746.0,1.0,74,40.0
4615,C#4,746.0,1.0,74,40.0
4616,F#3,746.25,0.25,59,40.0
4617,F#2,746.5,0.475,59,40.0
4618,F#3,746.75,0.25,60,40.0
4619,G#4,747.0,2.0,77,40.0
4620,G#2,747.0,0.475,60,40.0
4621,C#4,747.0,1.0,74,40.0
4622,F4,747.0,1.0,74,40.0
4623,G#3,747.25,0.25,55,40.0
4624,G#2,747.5,0.475,61,40.0
4625,G#3,747.75,0.25,55,40.0
4626,G#2,748.0,0.475,58,40.0
4627,C4,748.0,1.0,74,40.0
4628,E-4,748.0,1.0,74,40.0
4629,G#3,748.25,0.25,55,40.0
4630,G#2,748.5,0.475,58,40.0
4631,G#3,748.75,0.25,55,40.0
4632,G#2,749.0,0.475,52,40.0
4633,D4,749.0,1.0,54,40.0
4634,F4,749.0,1.0,54,40.0
4635,B-4,749.0,1.0,54,40.0
4636,G#3,749.25,0.25,45,40.0
4637,G#2,749.5,0.475,53,40.0
4638,G#3,749.75,0.25,47,40.0
4639,D2,750.0,0.475,55,40.0
4640,B-4,750.0,1.0,60,40.0
4641,F5,750.0,1.0,60,40.0
4642,B-5,750.0,1.0,60,40.0
4643,D3,750.25,0.25,50,40.0
4644,D2,750.5,0.475,55,40.0
4645,D3,750.75,0.25,51,40.0
4646,E-2,751.0,0.475,55,40.0
4647,B-4,751.0,1.0,60,40.0
4648,E-5,751.0,1.0,60,40.0
4649,F#5,751.0,1.0,60,40.0
4650,E-3,751.25,0.25,55,40.0
4651,E-2,751.5,0.475,55,40.0
4652,E-3,751.75,0.25,55,40.0
4653,F2,752.0,0.475,55,40.0
4654,G#4,752.0,1.0,64,40.0
4655,D5,752.0,1.0,64,40.0
4656,F5,752.0,1.0,64,40.0
4657,F3,752.25,0.25,53,40.0
4658,F2,752.5,0.475,55,40.0
4659,F3,752.75,0.25,55,40.0
4660,F#2,753.0,0.475,56,40.0
4661,F#4,753.0,1.0,70,40.0
4662,B-4,753.0,1.0,70,40.0
4663,E-5,753.0,1.0,70,40.0
4664,F#3,753.25,0.25,56,40.0
4665,F#2,753.5,0.475,57,40.0
4666,F#3,753.75,0.25,57,40.0
4667,G#2,754.0,0.475,58,40.0
4668,E-4,754.0,1.0,74,40.0
4669,B4,754.0,1.0,74,40.0
4670,G#4,754.0,1.0,74,40.0
4671,G#3,754.25,0.25,59,40.0
4672,G#2,754.5,0.475,59,40.0
4673,G#3,754.75,0.25,60,40.0
4674,B-4,755.0,2.0,77,40.0
4675,B-2,755.0,0.475,60,40.0
4676,E-4,755.0,1.0,74,40.0
4677,F#4,755.0,1.0,74,40.0
4678,B-3,755.25,0.25,55,40.0
4679,B-2,755.5,0.475,61,40.0
4680,B-3,755.75,0.25,55,40.0
4681,B-2,756.0,0.475,58,40.0
4682,D4,756.0,1.0,74,40.0
4683,F4,756.0,1.0,74,40.0
4684,B-3,756.25,0.25,55,40.0
4685,B-2,756.5,0.475,58,40.0
4686,B-3,756.75,0.25,55,40.0
4687,B-2,757.0,0.475,53,40.0
4688,E4,757.0,1.0,54,40.0
4689,G4,757.0,1.0,54,40.0
4690,C5,757.0,1.0,54,40.0
4691,B-3,757.25,0.25,46,40.0
4692,B-2,757.5,0.475,50,40.0
4693,B-3,757.75,0.25,47,40.0
4694,E2,758.0,0.475,55,40.0
4695,C5,758.0,1.0,60,40.0
4696,G5,758.0,1.0,60,40.0
4697,C6,758.0,1.0,60,40.0
4698,E3,758.25,0.25,50,40.0
4699,E2,758.5,0.475,55,40.0
4700,E3,758.75,0.25,51,40.0
4701,F2,759.0,0.475,55,40.0
4702,C5,759.0,1.0,60,40.0
4703,F5,759.0,1.0,60,40.0
4704,G#5,759.0,1.0,60,40.0
4705,F3,759.25,0.25,55,40.0
4706,F2,759.5,0.475,55,40.0
4707,F3,759.75,0.25,55,40.0
4708,G2,760.0,0.475,55,40.0
4709,B-4,760.0,1.0,64,40.0
4710,E5,760.0,1.0,64,40.0
4711,G5,760.0,1.0,64,40.0
4712,G3,760.25,0.25,53,40.0
4713,G2,760.5,0.475,55,40.0
4714,G3,760.75,0.25,55,40.0
4715,G#2,761.0,0.475,56,40.0
4716,G#4,761.0,1.0,70,40.0
4717,C5,761.0,1.0,70,40.0
4718,F5,761.0,1.0,70,40.0
4719,G#3,761.25,0.25,56,40.0
4720,G#2,761.5,0.475,57,40.0
4721,G#3,761.75,0.25,57,40.0
4722,B-2,762.0,0.475,58,40.0
4723,C#5,762.0,1.0,74,40.0
4724,F4,762.0,1.0,74,40.0
4725,B-3,762.25,0.25,59,40.0
4726,B-2,762.5,0.475,59,40.0
4727,B-3,762.75,0.25,60,40.0
4728,C3,763.0,0.475,60,40.0
4729,F4,763.0,1.0,76,40.0
4730,C5,763.0,1.0,76,40.0
4731,C4,763.25,0.25,55,40.0
4732,C3,763.5,0.475,61,40.0
4733,C4,763.75,0.25,55,40.0
4734,C#3,764.0,0.475,58,40.0
4735,F4,764.0,1.0,74,40.0
4736,B4,764.0,1.0,74,40.0
4737,C#4,764.25,0.25,55,40.0
4738,C#3,764.5,0.475,58,40.0
4739,C#4,764.75,0.25,55,40.0
4740,E4,765.0,0.5,69,40.0
4741,C5,765.0,0.5,69,40.0
4742,C3,765.0,0.5,58,40.0
4743,C4,765.0,0.5,58,40.0
4744,B3,765.5,0.5,50,40.0
4745,C4,766.0,0.5,59,40.0
4746,B3,766.5,0.5,56,40.0
4747,C4,767.0,0.5,57,40.0
4748,B3,767.5,0.5,49,40.0
4749,C4,768.0,0.5,57,40.0
4750,B3,768.5,0.5,51,40.0
4751,C4,769.0,2.0,44,40.0
4752,C3,769.5,0.25,55,40.0
4753,F4,769.5,0.475,38,40.0
4754,G#4,769.5,0.475,38,40.0
4755,F3,770.0,0.25,58,40.0
4756,F4,770.0,0.475,38,40.0
4757,G#4,770.0,0.475,38,40.0
4758,G3,770.5,0.25,61,40.0
4759,F4,770.5,0.475,38,40.0
4760,G#4,770.5,0.475,38,40.0
4761,G#3,771.0,0.25,64,40.0
4762,C4,771.0,2.0,44,40.0
4763,C5,771.5,0.25,62,40.0
4764,F4,771.5,0.475,38,40.0
4765,G#4,771.5,0.475,38,40.0
4766,F5,772.0,0.25,64,40.0
4767,F4,772.0,0.475,38,40.0
4768,G#4,772.0,0.475,38,40.0
4769,G5,772.5,0.25,66,40.0
4770,F4,772.5,0.475,38,40.0
4771,G#4,772.5,0.475,38,40.0
4772,C5,772.875,0.125,65,40.0
4773,G#5,773.0,1.5,75,40.0
4774,C4,773.0,2.0,44,40.0
4775,F4,773.5,0.475,38,40.0
4776,G#4,773.5,0.475,38,40.0
4777,F4,774.0,0.475,38,40.0
4778,G#4,774.0,0.475,38,40.0
4779,F5,774.5,0.5,63,40.0
4780,F4,774.5,0.475,38,40.0
4781,G#4,774.5,0.475,38,40.0
4782,C5,774.875,0.125,60,40.0
4783,G#5,775.0,1.5,71,40.0
4784,C4,775.0,2.0,44,40.0
4785,F4,775.5,0.475,38,40.0
4786,G#4,775.5,0.475,38,40.0
4787,F4,776.0,0.475,38,40.0
4788,G#4,776.0,0.475,38,40.0
4789,F5,776.5,0.5,58,40.0
4790,F4,776.5,0.475,38,40.0
4791,G#4,776.5,0.475,38,40.0
4792,E5,777.0,0.5,60,40.0
4793,C4,777.0,2.0,44,40.0
4794,C3,777.5,0.25,57,40.0
4795,G4,777.5,0.475,38,40.0
4796,B-4,777.5,0.475,38,40.0
4797,G3,778.0,0.25,60,40.0
4798,G4,778.0,0.475,38,40.0
4799,B-4,778.0,0.475,38,40.0
4800,G#3,778.5,0.25,63,40.0
4801,G4,778.5,0.475,38,40.0
4802,B-4,778.5,0.475,38,40.0
4803,B-3,779.0,0.25,66,40.0
4804,C4,779.0,2.0,44,40.0
4805,C5,779.5,0.5,59,40.0
4806,G4,779.5,0.475,38,40.0
4807,B-4,779.5,0.475,38,40.0
4808,B-5,780.0,0.5,62,40.0
4809,G4,780.0,0.475,38,40.0
4810,B-4,780.0,0.475,38,40.0
4811,G#5,780.5,0.5,65,40.0
4812,G4,780.5,0.475,38,40.0
4813,B-4,780.5,0.475,38,40.0
4814,G#5,781.0,0.125,60,40.0
4815,C4,781.0,2.0,44,40.0
4816,B-5,781.125,0.125,60,40.0
4817,G#5,781.25,0.25,67,40.0
4818,G5,781.5,0.5,60,40.0
4819,G4,781.5,0.475,38,40.0
4820,B-4,781.5,0.475,38,40.0
4821,G5,782.0,0.125,60,40.0
4822,G4,782.0,0.475,38,40.0
4823,B-4,782.0,0.475,38,40.0
4824,G#5,782.125,0.125,60,40.0
4825,G5,782.25,0.25,67,40.0
4826,F5,782.5,0.5,60,40.0
4827,G4,782.5,0.475,38,40.0
4828,B-4,782.5,0.475,38,40.0
4829,F5,783.0,0.125,60,40.0
4830,C4,783.0,2.0,44,40.0
4831,G5,783.125,0.125,60,40.0
4832,F5,783.25,0.25,66,40.0
4833,E5,783.5,0.5,60,40.0
4834,G4,783.5,0.475,38,40.0
4835,B-4,783.5,0.475,38,40.0
4836,D5,784.0,0.25,60,40.0
4837,G4,784.0,0.475,38,40.0
4838,B-4,784.0,0.475,38,40.0
4839,E5,784.5,0.25,60,40.0
4840,G4,784.5,0.475,38,40.0
4841,B-4,784.5,0.475,38,40.0
4842,F5,785.0,0.5,60,40.0
4843,C4,785.0,2.0,44,40.0
4844,C3,785.5,0.25,55,40.0
4845,F4,785.5,0.475,38,40.0
4846,G#4,785.5,0.475,38,40.0
4847,F3,786.0,0.25,58,40.0
4848,F4,786.0,0.475,38,40.0
4849,G#4,786.0,0.475,38,40.0
4850,G3,786.5,0.25,61,40.0
4851,F4,786.5,0.475,38,40.0
4852,G#4,786.5,0.475,38,40.0
4853,G#3,787.0,0.25,64,40.0
4854,C4,787.0,2.0,44,40.0
4855,C5,787.5,0.25,62,40.0
4856,F4,787.5,0.475,38,40.0
4857,G#4,787.5,0.475,38,40.0
4858,F5,788.0,0.25,64,40.0
4859,F4,788.0,0.475,38,40.0
4860,G#4,788.0,0.475,38,40.0
4861,G#5,788.5,0.25,66,40.0
4862,F4,788.5,0.475,38,40.0
4863,G#4,788.5,0.475,38,40.0
4864,C5,788.875,0.125,65,40.0
4865,C6,789.0,1.5,75,40.0
4866,G#3,789.0,2.0,44,40.0
4867,C4,789.5,0.475,38,40.0
4868,F4,789.5,0.475,38,40.0
4869,C4,790.0,0.475,38,40.0
4870,F4,790.0,0.475,38,40.0
4871,F5,790.5,0.333,63,40.0
4872,C4,790.5,0.475,38,40.0
4873,F4,790.5,0.475,38,40.0
4874,F5,790.875,0.125,60,40.0
4875,F6,791.0,1.5,71,40.0
4876,G#3,791.0,2.0,44,40.0
4877,C4,791.5,0.475,38,40.0
4878,F4,791.5,0.475,38,40.0
4879,C4,792.0,0.475,38,40.0
4880,F4,792.0,0.475,38,40.0
4881,C6,792.5,0.5,58,40.0
4882,C4,792.5,0.475,38,40.0
4883,F4,792.5,0.475,38,40.0
4884,B5,793.0,0.5,60,40.0
4885,G3,793.0,2.0,44,40.0
4886,G2,793.5,0.25,57,40.0
4887,D4,793.5,0.475,38,40.0
4888,F4,793.5,0.475,38,40.0
4889,D3,794.0,0.25,60,40.0
4890,D4,794.0,0.475,38,40.0
4891,F4,794.0,0.475,38,40.0
4892,E-3,794.5,0.25,63,40.0
4893,D4,794.5,0.475,38,40.0
4894,F4,794.5,0.475,38,40.0
4895,F3,795.0,0.25,66,40.0
4896,G3,795.0,2.0,44,40.0
4897,G4,795.5,0.5,59,40.0
4898,D4,795.5,0.475,38,40.0
4899,F4,795.5,0.475,38,40.0
4900,F5,796.0,0.5,62,40.0
4901,D4,796.0,0.475,38,40.0
4902,F4,796.0,0.475,38,40.0
4903,E-5,796.5,0.5,65,40.0
4904,D4,796.5,0.475,38,40.0
4905,F4,796.5,0.475,38,40.0
4906,E-5,797.0,0.125,60,40.0
4907,G3,797.0,2.0,44,40.0
4908,F5,797.125,0.125,60,40.0
4909,E-5,797.25,0.25,67,40.0
4910,D5,797.5,0.5,60,40.0
4911,D4,797.5,0.475,38,40.0
4912,F4,797.5,0.475,38,40.0
4913,D5,798.0,0.125,60,40.0
4914,D4,798.0,0.475,38,40.0
4915,F4,798.0,0.475,38,40.0
4916,E-5,798.125,0.125,60,40.0
4917,D5,798.25,0.25,67,40.0
4918,C5,798.5,0.5,60,40.0
4919,D4,798.5,0.475,38,40.0
4920,F4,798.5,0.475,38,40.0
4921,C5,799.0,0.125,60,40.0
4922,G3,799.0,2.0,44,40.0
4923,D5,799.125,0.125,60,40.0
4924,C5,799.25,0.25,66,40.0
4925,B4,799.5,0.5,60,40.0
4926,D4,799.5,0.475,38,40.0
4927,F4,799.5,0.475,38,40.0
4928,A4,800.0,0.25,60,40.0
4929,D4,800.0,0.475,38,40.0
4930,F4,800.0,0.475,38,40.0
4931,B4,800.5,0.25,60,40.0
4932,D4,800.5,0.475,38,40.0
4933,F4,800.5,0.475,38,40.0
4934,C5,801.0,0.5,60,40.0
4935,G3,801.0,2.0,44,40.0
4936,G2,801.5,0.25,55,40.0
4937,C4,801.5,0.475,38,40.0
4938,E-4,801.5,0.475,38,40.0
4939,C3,802.0,0.25,58,40.0
4940,C4,802.0,0.475,38,40.0
4941,E-4,802.0,0.475,38,40.0
4942,D3,802.5,0.25,61,40.0
4943,C4,802.5,0.475,38,40.0
4944,E-4,802.5,0.475,38,40.0
4945,E-3,803.0,0.25,64,40.0
4946,G3,803.0,2.0,44,40.0
4947,G5,803.5,0.25,62,40.0
4948,C4,803.5,0.475,38,40.0
4949,E-4,803.5,0.475,38,40.0
4950,C6,804.0,0.25,64,40.0
4951,C4,804.0,0.475,38,40.0
4952,E-4,804.0,0.475,38,40.0
4953,D6,804.5,0.25,66,40.0
4954,C4,804.5,0.475,38,40.0
4955,E-4,804.5,0.475,38,40.0
4956,G5,804.875,0.125,65,40.0
4957,E-6,805.0,1.5,75,40.0
4958,G3,805.0,2.0,44,40.0
4959,C4,805.5,0.475,38,40.0
4960,E-4,805.5,0.475,38,40.0
4961,C4,806.0,0.475,38,40.0
4962,E-4,806.0,0.475,38,40.0
4963,C6,806.5,0.5,63,40.0
4964,C4,806.5,0.475,38,40.0
4965,E-4,806.5,0.475,38,40.0
4966,G5,806.875,0.125,60,40.0
4967,E-6,807.0,1.5,71,40.0
4968,G3,807.0,2.0,44,40.0
4969,C4,807.5,0.475,38,40.0
4970,E-4,807.5,0.475,38,40.0
4971,C4,808.0,0.475,38,40.0
4972,E-4,808.0,0.475,38,40.0
4973,C6,808.5,0.5,58,40.0
4974,C4,808.5,0.475,38,40.0
4975,E-4,808.5,0.475,38,40.0
4976,B5,809.0,0.5,60,40.0
4977,G3,809.0,2.0,44,40.0
4978,G2,809.5,0.25,57,40.0
4979,D4,809.5,0.475,38,40.0
4980,F4,809.5,0.475,38,40.0
4981,D3,810.0,0.25,60,40.0
4982,D4,810.0,0.475,38,40.0
4983,F4,810.0,0.475,38,40.0
4984,E-3,810.5,0.25,63,40.0
4985,D4,810.5,0.475,38,40.0
4986,F4,810.5,0.475,38,40.0
4987,F3,811.0,0.25,66,40.0
4988,G3,811.0,2.0,44,40.0
4989,G5,811.5,0.5,59,40.0
4990,D4,811.5,0.475,38,40.0
4991,F4,811.5,0.475,38,40.0
4992,F6,812.0,0.5,62,40.0
4993,D4,812.0,0.475,38,40.0
4994,F4,812.0,0.475,38,40.0
4995,E-6,812.5,0.5,65,40.0
4996,D4,812.5,0.475,38,40.0
4997,F4,812.5,0.475,38,40.0
4998,E-6,813.0,0.125,60,40.0
4999,G3,813.0,2.0,44,40.0
5000,F6,813.125,0.125,60,40.0
5001,E-6,813.25,0.25,67,40.0
5002,D6,813.5,0.5,60,40.0
5003,D4,813.5,0.475,38,40.0
5004,F4,813.5,0.475,38,40.0
5005,D6,814.0,0.125,60,40.0
5006,D4,814.0,0.475,38,40.0
5007,F4,814.0,0.475,38,40.0
5008,E-6,814.125,0.125,60,40.0
5009,D6,814.25,0.25,67,40.0
5010,C6,814.5,0.5,60,40.0
5011,D4,814.5,0.475,38,40.0
5012,F4,814.5,0.475,38,40.0
5013,C6,815.0,0.125,60,40.0
5014,G3,815.0,2.0,44,40.0
5015,D6,815.125,0.125,60,40.0
5016,C6,815.25,0.25,66,40.0
5017,B5,815.5,0.5,60,40.0
5018,D4,815.5,0.475,38,40.0
5019,F4,815.5,0.475,38,40.0
5020,A5,816.0,0.25,60,40.0
5021,D4,816.0,0.475,38,40.0
5022,F4,816.0,0.475,38,40.0
5023,B5,816.5,0.25,60,40.0
5024,D4,816.5,0.475,38,40.0
5025,F4,816.5,0.475,38,40.0
5026,D6,817.0,0.125,60,40.0
5027,C4,817.0,2.0,44,40.0
5028,E-6,817.125,0.125,60,40.0
5029,D6,817.25,0.25,67,40.0
5030,C6,817.5,0.5,59,40.0
5031,E-4,817.5,0.475,37,40.0
5032,G4,817.5,0.475,37,40.0
5033,C6,818.0,0.125,58,40.0
5034,E-4,818.0,0.475,37,40.0
5035,G4,818.0,0.475,37,40.0
5036,D6,818.125,0.125,58,40.0
5037,C6,818.25,0.25,65,40.0
5038,B-5,818.5,0.5,58,40.0
5039,E-4,818.5,0.475,36,40.0
5040,G4,818.5,0.475,36,40.0
5041,B-5,819.0,0.125,57,40.0
5042,F3,819.0,2.0,42,40.0
5043,C6,819.125,0.125,57,40.0
5044,B-5,819.25,0.25,63,40.0
5045,A5,819.5,0.5,57,40.0
5046,E-4,819.5,0.475,36,40.0
5047,F4,819.5,0.475,36,40.0
5048,G5,820.0,0.25,56,40.0
5049,E-4,820.0,0.475,35,40.0
5050,F4,820.0,0.475,35,40.0
5051,A5,820.5,0.25,55,40.0
5052,E-4,820.5,0.475,35,40.0
5053,F4,820.5,0.475,35,40.0
5054,C6,821.0,0.125,55,40.0
5055,B-3,821.0,2.0,40,40.0
5056,C#6,821.125,0.125,55,40.0
5057,C6,821.25,0.25,61,40.0
5058,B-5,821.5,0.5,54,40.0
5059,C#4,821.5,0.475,34,40.0
5060,F4,821.5,0.475,34,40.0
5061,B-5,822.0,0.125,54,40.0
5062,C#4,822.0,0.475,34,40.0
5063,F4,822.0,0.475,34,40.0
5064,C6,822.125,0.125,54,40.0
5065,B-5,822.25,0.25,60,40.0
5066,G#5,822.5,0.5,53,40.0
5067,C#4,822.5,0.475,33,40.0
5068,F4,822.5,0.475,33,40.0
5069,G#5,823.0,0.125,52,40.0
5070,E-3,823.0,2.0,38,40.0
5071,B-5,823.125,0.125,52,40.0
5072,G#5,823.25,0.25,57,40.0
5073,G5,823.5,0.5,52,40.0
5074,C#4,823.5,0.475,33,40.0
5075,E-4,823.5,0.475,33,40.0
5076,F5,824.0,0.25,51,40.0
5077,C#4,824.0,0.475,32,40.0
5078,E-4,824.0,0.475,32,40.0
5079,G5,824.5,0.25,51,40.0
5080,C#4,824.5,0.475,32,40.0
5081,E-4,824.5,0.475,32,40.0
5082,B-5,825.0,0.125,50,40.0
5083,G#3,825.0,2.0,36,40.0
5084,C6,825.125,0.125,50,40.0
5085,B-5,825.25,0.25,55,40.0
5086,G#5,825.5,0.5,49,40.0
5087,C4,825.5,0.475,31,40.0
5088,E-4,825.5,0.475,31,40.0
5089,G#5,826.0,0.125,49,40.0
5090,C4,826.0,0.475,31,40.0
5091,E-4,826.0,0.475,31,40.0
5092,B-5,826.125,0.125,48,40.0
5093,G#5,826.25,0.25,54,40.0
5094,G5,826.5,0.5,48,40.0
5095,C4,826.5,0.475,30,40.0
5096,E-4,826.5,0.475,30,40.0
5097,G5,827.0,0.125,48,40.0
5098,G#3,827.0,2.0,35,40.0
5099,G#5,827.125,0.125,47,40.0
5100,G5,827.25,0.25,52,40.0
5101,F#5,827.5,0.5,47,40.0
5102,C4,827.5,0.475,30,40.0
5103,E-4,827.5,0.475,30,40.0
5104,F#5,828.0,0.25,46,40.0
5105,C4,828.0,0.475,29,40.0
5106,E-4,828.0,0.475,29,40.0
5107,F#5,828.5,0.25,46,40.0
5108,C4,828.5,0.475,29,40.0
5109,E-4,828.5,0.475,29,40.0
5110,G#5,829.0,0.125,42,40.0
5111,G3,829.0,2.0,30,40.0
5112,B-5,829.125,0.125,42,40.0
5113,G#5,829.25,0.25,46,40.0
5114,G5,829.5,0.5,42,40.0
5115,C4,829.5,0.475,26,40.0
5116,E-4,829.5,0.475,26,40.0
5117,G5,830.0,0.25,42,40.0
5118,C4,830.0,0.475,26,40.0
5119,E-4,830.0,0.475,26,40.0
5120,G5,830.5,0.25,42,40.0
5121,C4,830.5,0.475,26,40.0
5122,E-4,830.5,0.475,26,40.0
5123,G#5,831.0,0.125,42,40.0
5124,G3,831.0,2.0,30,40.0
5125,B-5,831.125,0.125,42,40.0
5126,G#5,831.25,0.25,46,40.0
5127,G5,831.5,0.5,42,40.0
5128,B3,831.5,0.475,26,40.0
5129,D4,831.5,0.475,26,40.0
5130,G5,832.0,0.25,42,40.0
5131,B3,832.0,0.475,26,40.0
5132,D4,832.0,0.475,26,40.0
5133,G5,832.5,0.25,42,40.0
5134,B3,832.5,0.475,26,40.0
5135,D4,832.5,0.475,26,40.0
5136,C3,833.0,3.0,36,40.0
5137,C4,833.25,0.25,25,40.0
5138,G3,833.25,0.25,24,40.0
5139,E-4,833.5,0.25,29,40.0
5140,E-3,833.5,0.25,26,40.0
5141,C4,833.75,0.25,29,40.0
5142,G3,833.75,0.25,24,40.0
5143,C5,834.0,2.0,45,40.0
5144,E-3,834.0,0.25,32,40.0
5145,C4,834.25,0.25,28,40.0
5146,G3,834.25,0.25,25,40.0
5147,E-4,834.5,0.25,30,40.0
5148,E-3,834.5,0.25,28,40.0
5149,C4,834.75,0.25,28,40.0
5150,G3,834.75,0.25,26,40.0
5151,E-4,835.0,0.25,31,40.0
5152,E-3,835.0,0.25,34,40.0
5153,C4,835.25,0.25,30,40.0
5154,G3,835.25,0.25,26,40.0
5155,E-4,835.5,0.25,32,40.0
5156,E-3,835.5,0.25,29,40.0
5157,C4,835.75,0.25,29,40.0
5158,G3,835.75,0.25,26,40.0
5159,C5,836.0,1.0,50,40.0
5160,C3,836.0,1.0,36,40.0
5161,C4,836.25,0.25,30,40.0
5162,G3,836.25,0.25,28,40.0
5163,E-4,836.5,0.25,33,40.0
5164,E-3,836.5,0.25,32,40.0
5165,C4,836.75,0.25,32,40.0
5166,G3,836.75,0.25,28,40.0
5167,B-2,837.0,3.0,45,40.0
5168,C#4,837.25,0.25,32,40.0
5169,G3,837.25,0.25,30,40.0
5170,E4,837.5,0.25,36,40.0
5171,E3,837.5,0.25,32,40.0
5172,C#4,837.75,0.25,35,40.0
5173,G3,837.75,0.25,29,40.0
5174,C#5,838.0,2.0,54,40.0
5175,E3,838.0,0.25,38,40.0
5176,C#4,838.25,0.25,33,40.0
5177,G3,838.25,0.25,30,40.0
5178,E4,838.5,0.25,35,40.0
5179,E3,838.5,0.25,33,40.0
5180,C#4,838.75,0.25,32,40.0
5181,G3,838.75,0.25,30,40.0
5182,E4,839.0,0.25,35,40.0
5183,E3,839.0,0.25,38,40.0
5184,C#4,839.25,0.25,33,40.0
5185,G3,839.25,0.25,29,40.0
5186,E4,839.5,0.25,35,40.0
5187,E3,839.5,0.25,32,40.0
5188,C#4,839.75,0.25,32,40.0
5189,G3,839.75,0.25,29,40.0
5190,C#5,840.0,1.0,53,40.0
5191,B-2,840.0,1.0,38,40.0
5192,C#4,840.25,0.25,32,40.0
5193,G3,840.25,0.25,30,40.0
5194,E4,840.5,0.25,35,40.0
5195,E3,840.5,0.25,33,40.0
5196,C#4,840.75,0.25,33,40.0
5197,G3,840.75,0.25,29,40.0
5198,C5,841.0,0.188,66,40.0
5199,G#2,841.0,0.188,55,40.0
5200,C4,841.25,0.25,41,40.0
5201,G#3,841.25,0.25,36,40.0
5202,F4,841.5,0.25,45,40.0
5203,C3,841.5,0.25,39,40.0
5204,C4,841.75,0.25,42,40.0
5205,G#3,841.75,0.25,35,40.0
5206,E5,842.0,0.188,67,40.0
5207,B-2,842.0,0.188,56,40.0
5208,E4,842.25,0.25,43,40.0
5209,B-3,842.25,0.25,36,40.0
5210,C5,842.5,0.25,47,40.0
5211,C3,842.5,0.25,43,40.0
5212,E4,842.75,0.25,43,40.0
5213,B-3,842.75,0.25,41,40.0
5214,F5,843.0,0.188,71,40.0
5215,G#2,843.0,0.188,58,40.0
5216,F4,843.25,0.25,45,40.0
5217,G#3,843.25,0.25,38,40.0
5218,C5,843.5,0.25,50,40.0
5219,C3,843.5,0.25,43,40.0
5220,F4,843.75,0.25,45,40.0
5221,G#3,843.75,0.25,38,40.0
5222,G5,844.0,0.188,72,40.0
5223,G2,844.0,0.188,60,40.0
5224,G4,844.25,0.25,47,40.0
5225,G3,844.25,0.25,40,40.0
5226,C5,844.5,0.25,50,40.0
5227,C3,844.5,0.25,43,40.0
5228,G4,844.75,0.25,47,40.0
5229,G3,844.75,0.25,38,40.0
5230,G#5,845.0,0.188,74,40.0
5231,F2,845.0,0.188,63,40.0
5232,G#4,845.25,0.25,49,40.0
5233,F3,845.25,0.25,42,40.0
5234,C5,845.5,0.25,54,40.0
5235,C3,845.5,0.25,45,40.0
5236,G#4,845.75,0.25,49,40.0
5237,F3,845.75,0.25,42,40.0
5238,A5,846.0,0.188,80,40.0
5239,E-2,846.0,0.188,66,40.0
5240,A4,846.25,0.25,50,40.0
5241,E-3,846.25,0.25,41,40.0
5242,C5,846.5,0.25,55,40.0
5243,C3,846.5,0.25,47,40.0
5244,A4,846.75,0.25,51,40.0
5245,E-3,846.75,0.25,41,40.0
5246,B5,847.0,0.188,84,40.0
5247,D2,847.0,0.188,68,40.0
5248,B4,847.25,0.25,51,40.0
5249,D3,847.25,0.25,45,40.0
5250,F5,847.5,0.25,58,40.0
5251,G2,847.5,0.25,49,40.0
5252,B4,847.75,0.25,53,40.0
5253,D3,847.75,0.25,43,40.0
5254,C6,848.0,0.188,85,40.0
5255,C2,848.0,0.188,70,40.0
5256,C5,848.25,0.25,53,40.0
5257,C3,848.25,0.25,45,40.0
5258,F5,848.5,0.25,58,40.0
5259,G2,848.5,0.25,51,40.0
5260,C5,848.75,0.25,54,40.0
5261,C3,848.75,0.25,43,40.0
5262,D6,849.0,0.188,85,40.0
5263,B1,849.0,0.188,70,40.0
5264,D5,849.25,0.25,55,40.0
5265,B2,849.25,0.25,47,40.0
5266,F5,849.5,0.25,63,40.0
5267,G2,849.5,0.25,53,40.0
5268,D5,849.75,0.25,55,40.0
5269,B2,849.75,0.25,48,40.0
5270,E6,850.0,0.188,90,40.0
5271,B-1,850.0,0.188,72,40.0
5272,E5,850.25,0.25,57,40.0
5273,B-2,850.25,0.25,47,40.0
5274,G5,850.5,0.25,62,40.0
5275,C2,850.5,0.25,53,40.0
5276,E5,850.75,0.25,57,40.0
5277,B-2,850.75,0.25,50,40.0
5278,F6,851.0,0.188,89,40.0
5279,G#1,851.0,0.188,75,40.0
5280,F5,851.25,0.25,59,40.0
5281,G#2,851.25,0.25,50,40.0
5282,G#5,851.5,0.25,64,40.0
5283,C2,851.5,0.25,55,40.0
5284,F5,851.75,0.25,59,40.0
5285,G#2,851.75,0.25,50,40.0
5286,D6,852.0,0.188,91,40.0
5287,F1,852.0,0.188,76,40.0
5288,F5,852.25,0.25,61,40.0
5289,F2,852.25,0.25,56,40.0
5290,G#5,852.5,0.25,67,40.0
5291,C2,852.5,0.25,58,40.0
5292,F5,852.75,0.25,61,40.0
5293,F2,852.75,0.25,55,40.0
5294,G1,853.0,0.5,78,40.0
5295,G2,853.0,0.5,78,40.0
5296,E-5,853.25,0.25,78,40.0
5297,G5,853.5,0.25,84,40.0
5298,E-5,853.75,0.25,78,40.0
5299,C6,854.0,0.188,88,40.0
5300,E-5,854.25,0.25,78,40.0
5301,G5,854.5,0.25,84,40.0
5302,E-5,854.75,0.25,76,40.0
5303,G3,855.0,0.5,78,40.0
5304,G2,855.0,0.5,78,40.0
5305,D5,855.25,0.25,78,40.0
5306,F5,855.5,0.25,84,40.0
5307,D5,855.75,0.25,78,40.0
5308,B5,856.0,0.188,88,40.0
5309,D5,856.25,0.25,78,40.0
5310,F5,856.5,0.25,84,40.0
5311,D5,856.75,0.25,76,40.0
5312,C3,857.0,3.0,45,40.0
5313,C4,857.25,0.25,32,40.0
5314,G3,857.25,0.25,30,40.0
5315,E-4,857.5,0.25,36,40.0
5316,E-3,857.5,0.25,32,40.0
5317,C4,857.75,0.25,35,40.0
5318,G3,857.75,0.25,29,40.0
5319,C5,858.0,2.0,54,40.0
5320,E-3,858.0,0.25,38,40.0
5321,C4,858.25,0.25,33,40.0
5322,G3,858.25,0.25,30,40.0
5323,E-4,858.5,0.25,35,40.0
5324,E-3,858.5,0.25,33,40.0
5325,C4,858.75,0.25,32,40.0
5326,G3,858.75,0.25,30,40.0
5327,E-4,859.0,0.25,35,40.0
5328,E-3,859.0,0.25,38,40.0
5329,C4,859.25,0.25,33,40.0
5330,G3,859.25,0.25,29,40.0
5331,E-4,859.5,0.25,35,40.0
5332,E-3,859.5,0.25,32,40.0
5333,C4,859.75,0.25,32,40.0
5334,G3,859.75,0.25,29,40.0
5335,C5,860.0,1.0,53,40.0
5336,C3,860.0,1.0,38,40.0
5337,C4,860.25,0.25,32,40.0
5338,G3,860.25,0.25,30,40.0
5339,E-4,860.5,0.25,35,40.0
5340,E-3,860.5,0.25,33,40.0
5341,C4,860.75,0.25,33,40.0
5342,G3,860.75,0.25,29,40.0
5343,B-2,861.0,3.0,45,40.0
5344,C#4,861.25,0.25,32,40.0
5345,G3,861.25,0.25,30,40.0
5346,E4,861.5,0.25,36,40.0
5347,E3,861.5,0.25,32,40.0
5348,C#4,861.75,0.25,35,40.0
5349,G3,861.75,0.25,29,40.0
5350,C#5,862.0,2.0,54,40.0
5351,E3,862.0,0.25,38,40.0
5352,C#4,862.25,0.25,33,40.0
5353,G3,862.25,0.25,30,40.0
5354,E4,862.5,0.25,35,40.0
5355,E3,862.5,0.25,33,40.0
5356,C#4,862.75,0.25,32,40.0
5357,G3,862.75,0.25,30,40.0
5358,E4,863.0,0.25,35,40.0
5359,E3,863.0,0.25,38,40.0
5360,C#4,863.25,0.25,33,40.0
5361,G3,863.25,0.25,29,40.0
5362,E4,863.5,0.25,35,40.0
5363,E3,863.5,0.25,32,40.0
5364,C#4,863.75,0.25,32,40.0
5365,G3,863.75,0.25,29,40.0
5366,C#5,864.0,1.0,53,40.0
5367,B-2,864.0,1.0,38,40.0
5368,C#4,864.25,0.25,32,40.0
5369,G3,864.25,0.25,30,40.0
5370,E4,864.5,0.25,35,40.0
5371,E3,864.5,0.25,33,40.0
5372,C#4,864.75,0.25,33,40.0
5373,G3,864.75,0.25,29,40.0
5374,C5,865.0,0.188,66,40.0
5375,G#2,865.0,0.188,55,40.0
5376,C4,865.25,0.25,41,40.0
5377,G#3,865.25,0.25,36,40.0
5378,F4,865.5,0.25,45,40.0
5379,C3,865.5,0.25,39,40.0
5380,C4,865.75,0.25,42,40.0
5381,G#3,865.75,0.25,35,40.0
5382,E5,866.0,0.188,67,40.0
5383,B-2,866.0,0.188,56,40.0
5384,E4,866.25,0.25,43,40.0
5385,B-3,866.25,0.25,36,40.0
5386,C5,866.5,0.25,47,40.0
5387,C3,866.5,0.25,43,40.0
5388,E4,866.75,0.25,43,40.0
5389,B-3,866.75,0.25,41,40.0
5390,F5,867.0,0.188,71,40.0
5391,G#2,867.0,0.188,58,40.0
5392,F4,867.25,0.25,45,40.0
5393,G#3,867.25,0.25,38,40.0
5394,C5,867.5,0.25,50,40.0
5395,C3,867.5,0.25,43,40.0
5396,F4,867.75,0.25,45,40.0
5397,G#3,867.75,0.25,38,40.0
5398,G5,868.0,0.188,72,40.0
5399,G2,868.0,0.188,60,40.0
5400,G4,868.25,0.25,47,40.0
5401,G3,868.25,0.25,40,40.0
5402,C5,868.5,0.25,50,40.0
5403,C3,868.5,0.25,43,40.0
5404,G4,868.75,0.25,47,40.0
5405,G3,868.75,0.25,38,40.0
5406,G#5,869.0,0.188,74,40.0
5407,F2,869.0,0.188,63,40.0
5408,G#4,869.25,0.25,49,40.0
5409,F3,869.25,0.25,42,40.0
5410,C5,869.5,0.25,54,40.0
5411,C3,869.5,0.25,45,40.0
5412,G#4,869.75,0.25,49,40.0
5413,F3,869.75,0.25,42,40.0
5414,A5,870.0,0.188,80,40.0
5415,E-2,870.0,0.188,66,40.0
5416,A4,870.25,0.25,50,40.0
5417,E-3,870.25,0.25,41,40.0
5418,C5,870.5,0.25,55,40.0
5419,C3,870.5,0.25,47,40.0
5420,A4,870.75,0.25,51,40.0
5421,E-3,870.75,0.25,41,40.0
5422,B5,871.0,0.188,84,40.0
5423,D2,871.0,0.188,68,40.0
5424,B4,871.25,0.25,51,40.0
5425,D3,871.25,0.25,45,40.0
5426,F5,871.5,0.25,58,40.0
5427,G2,871.5,0.25,49,40.0
5428,B4,871.75,0.25,53,40.0
5429,D3,871.75,0.25,43,40.0
5430,C6,872.0,0.188,85,40.0
5431,C2,872.0,0.188,70,40.0
5432,C5,872.25,0.25,53,40.0
5433,C3,872.25,0.25,45,40.0
5434,F5,872.5,0.25,58,40.0
5435,G2,872.5,0.25,51,40.0
5436,C5,872.75,0.25,54,40.0
5437,C3,872.75,0.25,43,40.0
5438,D6,873.0,0.188,85,40.0
5439,B1,873.0,0.188,70,40.0
5440,D5,873.25,0.25,55,40.0
5441,B2,873.25,0.25,47,40.0
5442,F5,873.5,0.25,63,40.0
5443,G2,873.5,0.25,53,40.0
5444,D5,873.75,0.25,55,40.0
5445,B2,873.75,0.25,48,40.0
5446,E6,874.0,0.188,90,40.0
5447,B-1,874.0,0.188,72,40.0
5448,E5,874.25,0.25,57,40.0
5449,B-2,874.25,0.25,47,40.0
5450,G5,874.5,0.25,62,40.0
5451,C2,874.5,0.25,53,40.0
5452,E5,874.75,0.25,57,40.0
5453,B-2,874.75,0.25,50,40.0
5454,F6,875.0,0.188,89,40.0
5455,G#1,875.0,0.188,75,40.0
5456,F5,875.25,0.25,59,40.0
5457,G#2,875.25,0.25,50,40.0
5458,G#5,875.5,0.25,64,40.0
5459,C2,875.5,0.25,55,40.0
5460,F5,875.75,0.25,59,40.0
5461,G#2,875.75,0.25,50,40.0
5462,D6,876.0,0.188,91,40.0
5463,F1,876.0,0.188,76,40.0
5464,F5,876.25,0.25,61,40.0
5465,F2,876.25,0.25,56,40.0
5466,G#5,876.5,0.25,67,40.0
5467,C2,876.5,0.25,58,40.0
5468,F5,876.75,0.25,61,40.0
5469,F2,876.75,0.25,55,40.0
5470,G1,877.0,0.5,78,40.0
5471,G2,877.0,0.5,78,40.0
5472,E-5,877.25,0.25,78,40.0
5473,G5,877.5,0.25,84,40.0
5474,E-5,877.75,0.25,78,40.0
5475,C6,878.0,0.188,88,40.0
5476,E-5,878.25,0.25,78,40.0
5477,G5,878.5,0.25,84,40.0
5478,E-5,878.75,0.25,76,40.0
5479,G3,879.0,0.5,78,40.0
5480,G2,879.0,0.5,78,40.0
5481,D5,879.25,0.25,78,40.0
5482,F5,879.5,0.25,84,40.0
5483,D5,879.75,0.25,78,40.0
5484,B5,880.0,0.188,88,40.0
5485,D5,880.25,0.25,78,40.0
5486,F5,880.5,0.25,84,40.0
5487,D5,880.75,0.25,76,40.0
5488,C5,881.0,0.188,81,40.0
5489,C3,881.0,0.5,84,40.0
5490,C6,881.5,1.0,58,40.0
5491,C4,881.5,0.475,34,40.0
5492,E-4,881.5,0.475,34,40.0
5493,C4,882.0,0.475,34,40.0
5494,E-4,882.0,0.475,34,40.0
5495,B5,882.5,0.25,46,40.0
5496,C4,882.5,0.475,34,40.0
5497,E-4,882.5,0.475,34,40.0
5498,C6,882.75,0.25,48,40.0
5499,D6,883.0,0.25,49,40.0
5500,G#3,883.0,2.0,34,40.0
5501,C6,883.25,0.25,49,40.0
5502,B-5,883.5,0.25,48,40.0
5503,C4,883.5,0.475,34,40.0
5504,E-4,883.5,0.475,34,40.0
5505,G#5,883.75,0.25,47,40.0
5506,G5,884.0,0.25,45,40.0
5507,C4,884.0,0.475,34,40.0
5508,E-4,884.0,0.475,34,40.0
5509,G#5,884.25,0.25,46,40.0
5510,B-5,884.5,0.25,49,40.0
5511,C4,884.5,0.475,34,40.0
5512,E-4,884.5,0.475,34,40.0
5513,G#5,884.75,0.25,47,40.0
5514,G5,885.0,0.25,49,40.0
5515,F3,885.0,2.0,34,40.0
5516,F5,885.25,0.25,47,40.0
5517,E-5,885.5,0.25,46,40.0
5518,D4,885.5,0.475,34,40.0
5519,C4,885.5,0.475,34,40.0
5520,D5,885.75,0.25,45,40.0
5521,C#5,886.0,0.25,45,40.0
5522,C4,886.0,0.475,34,40.0
5523,D4,886.0,0.475,34,40.0
5524,D5,886.25,0.25,45,40.0
5525,E-5,886.5,0.25,47,40.0
5526,C4,886.5,0.475,34,40.0
5527,D4,886.5,0.475,34,40.0
5528,D5,886.75,0.25,45,40.0
5529,C5,887.0,0.25,46,40.0
5530,G3,887.0,2.0,34,40.0
5531,B4,887.25,0.25,46,40.0
5532,G#4,887.5,0.25,45,40.0
5533,B3,887.5,0.475,34,40.0
5534,D4,887.5,0.475,34,40.0
5535,G4,887.75,0.25,45,40.0
5536,F#4,888.0,0.25,45,40.0
5537,B3,888.0,0.475,34,40.0
5538,D4,888.0,0.475,34,40.0
5539,G4,888.25,0.25,42,40.0
5540,G#4,888.5,0.25,46,40.0
5541,B3,888.5,0.475,34,40.0
5542,D4,888.5,0.475,34,40.0
5543,F4,888.75,0.25,42,40.0
5544,E-4,889.0,0.188,66,40.0
5545,C3,889.0,2.0,59,40.0
5546,C5,889.5,1.0,68,40.0
5547,C6,889.5,1.0,68,40.0
5548,E-3,889.5,0.475,44,40.0
5549,C4,889.5,0.475,44,40.0
5550,E-3,890.0,0.475,44,40.0
5551,C4,890.0,0.475,44,40.0
5552,B5,890.5,0.25,61,40.0
5553,E-3,890.5,0.475,44,40.0
5554,C4,890.5,0.475,44,40.0
5555,C6,890.75,0.25,64,40.0
5556,D6,891.0,0.25,66,40.0
5557,G#2,891.0,2.0,45,40.0
5558,C6,891.25,0.25,66,40.0
5559,B-5,891.5,0.25,65,40.0
5560,E-3,891.5,0.475,46,40.0
5561,C3,891.5,0.475,46,40.0
5562,G#3,891.5,0.475,46,40.0
5563,G#5,891.75,0.25,64,40.0
5564,G5,892.0,0.25,62,40.0
5565,E-3,892.0,0.475,46,40.0
5566,C3,892.0,0.475,46,40.0
5567,G#3,892.0,0.475,46,40.0
5568,G#5,892.25,0.25,64,40.0
5569,B-5,892.5,0.25,68,40.0
5570,E-3,892.5,0.475,47,40.0
5571,C3,892.5,0.475,47,40.0
5572,G#3,892.5,0.475,47,40.0
5573,G#5,892.75,0.25,66,40.0
5574,G5,893.0,0.25,69,40.0
5575,F2,893.0,2.0,47,40.0
5576,F5,893.25,0.25,67,40.0
5577,E-5,893.5,0.25,66,40.0
5578,D3,893.5,0.475,48,40.0
5579,F3,893.5,0.475,48,40.0
5580,C3,893.5,0.475,48,40.0
5581,D5,893.75,0.25,65,40.0
5582,C#5,894.0,0.25,65,40.0
5583,D3,894.0,0.475,48,40.0
5584,C3,894.0,0.475,48,40.0
5585,F3,894.0,0.475,48,40.0
5586,D5,894.25,0.25,64,40.0
5587,E-5,894.5,0.25,68,40.0
5588,D3,894.5,0.475,49,40.0
5589,C3,894.5,0.475,49,40.0
5590,F3,894.5,0.475,49,40.0
5591,D5,894.75,0.25,66,40.0
5592,C5,895.0,0.25,68,40.0
5593,G2,895.0,2.0,49,40.0
5594,B4,895.25,0.25,68,40.0
5595,G#4,895.5,0.25,68,40.0
5596,D3,895.5,0.475,50,40.0
5597,B2,895.5,0.475,50,40.0
5598,G3,895.5,0.475,50,40.0
5599,G4,895.75,0.25,68,40.0
5600,F#4,896.0,0.25,67,40.0
5601,D3,896.0,0.475,50,40.0
5602,B2,896.0,0.475,50,40.0
5603,G3,896.0,0.475,50,40.0
5604,G4,896.25,0.25,64,40.0
5605,G#4,896.5,0.25,70,40.0
5606,D3,896.5,0.475,51,40.0
5607,B2,896.5,0.475,51,40.0
5608,G3,896.5,0.475,51,40.0
5609,G4,896.75,0.25,64,40.0
5610,C5,897.0,0.25,83,40.0
5611,C2,897.0,0.475,67,40.0
5612,C3,897.25,0.25,60,40.0
5613,C4,897.5,1.0,82,40.0
5614,C2,897.5,0.475,67,40.0
5615,C3,897.75,0.25,59,40.0
5616,C2,898.0,0.475,67,40.0
5617,C3,898.25,0.25,60,40.0
5618,C2,898.5,0.475,66,40.0
5619,B-3,898.5,0.25,80,40.0
5620,E4,898.5,0.25,80,40.0
5621,C3,898.75,0.25,60,40.0
5622,C2,899.0,0.475,66,40.0
5623,G#3,899.0,0.25,81,40.0
5624,F4,899.0,0.25,81,40.0
5625,C3,899.25,0.25,59,40.0
5626,C2,899.5,0.475,66,40.0
5627,E4,899.5,0.25,82,40.0
5628,G4,899.5,0.25,82,40.0
5629,C3,899.75,0.25,60,40.0
5630,C2,900.0,0.475,66,40.0
5631,F4,900.0,0.25,83,40.0
5632,G#4,900.0,0.25,83,40.0
5633,C3,900.25,0.25,60,40.0
5634,C2,900.5,0.475,66,40.0
5635,D4,900.5,0.25,85,40.0
5636,B4,900.5,0.25,85,40.0
5637,C3,900.75,0.25,61,40.0
5638,C2,901.0,0.475,67,40.0
5639,E-4,901.0,0.25,83,40.0
5640,C5,901.0,0.25,83,40.0
5641,C3,901.25,0.25,60,40.0
5642,C2,901.5,0.475,67,40.0
5643,E4,901.5,1.0,82,40.0
5644,C5,901.5,1.0,82,40.0
5645,C3,901.75,0.25,59,40.0
5646,C2,902.0,0.475,67,40.0
5647,C3,902.25,0.25,60,40.0
5648,C2,902.5,0.475,66,40.0
5649,B-4,902.5,0.25,80,40.0
5650,E5,902.5,0.25,80,40.0
5651,C3,902.75,0.25,60,40.0
5652,C2,903.0,0.475,66,40.0
5653,G#4,903.0,0.25,81,40.0
5654,F5,903.0,0.25,81,40.0
5655,C3,903.25,0.25,59,40.0
5656,C2,903.5,0.475,66,40.0
5657,E5,903.5,0.25,82,40.0
5658,G5,903.5,0.25,82,40.0
5659,C3,903.75,0.25,60,40.0
5660,C2,904.0,0.475,66,40.0
5661,F5,904.0,0.25,83,40.0
5662,G#5,904.0,0.25,83,40.0
5663,C3,904.25,0.25,60,40.0
5664,C2,904.5,0.475,66,40.0
5665,D5,904.5,0.25,85,40.0
5666,B5,904.5,0.25,85,40.0
5667,C3,904.75,0.25,61,40.0
5668,C2,905.0,0.475,66,40.0
5669,C5,905.0,2.0,94,40.0
5670,C6,905.0,2.0,94,40.0
5671,E-5,905.0,2.0,94,40.0
5672,C3,905.25,0.25,59,40.0
5673,C2,905.5,0.475,66,40.0
5674,C3,905.75,0.25,60,40.0
5675,C2,906.0,0.475,66,40.0
5676,C3,906.25,0.25,60,40.0
5677,C2,906.5,0.475,66,40.0
5678,C3,906.75,0.25,61,40.0
5679,B-1,907.0,0.475,66,40.0
5680,C4,907.0,2.0,88,40.0
5681,E-4,907.0,2.0,88,40.0
5682,C5,907.0,2.0,88,40.0
5683,B-2,907.25,0.25,59,40.0
5684,B-1,907.5,0.475,66,40.0
5685,B-2,907.75,0.25,60,40.0
5686,B-1,908.0,0.475,66,40.0
5687,B-2,908.25,0.25,60,40.0
5688,B-1,908.5,0.475,66,40.0
5689,B-2,908.75,0.25,61,40.0
5690,G#1,909.0,0.475,66,40.0
5691,C5,909.0,2.0,99,40.0
5692,C6,909.0,2.0,99,40.0
5693,E-5,909.0,2.0,99,40.0
5694,G#2,909.25,0.25,59,40.0
5695,G#1,909.5,0.475,66,40.0
5696,G#2,909.75,0.25,60,40.0
5697,G#1,910.0,0.475,66,40.0
5698,G#2,910.25,0.25,60,40.0
5699,G#1,910.5,0.475,66,40.0
5700,G#2,910.75,0.25,61,40.0
5701,G1,911.0,0.475,66,40.0
5702,C4,911.0,2.0,92,40.0
5703,E-4,911.0,2.0,92,40.0
5704,C5,911.0,2.0,92,40.0
5705,G2,911.25,0.25,59,40.0
5706,G1,911.5,0.475,66,40.0
5707,G2,911.75,0.25,60,40.0
5708,G1,912.0,0.475,66,40.0
5709,G2,912.25,0.25,60,40.0
5710,G1,912.5,0.475,66,40.0
5711,G2,912.75,0.25,61,40.0
5712,A5,913.0,2.0,102,40.0
5713,C6,913.0,2.0,102,40.0
5714,E-5,913.0,2.0,102,40.0
5715,E-6,913.0,2.0,102,40.0
5716,F#1,913.0,2.0,74,40.0
5717,F#2,913.0,2.0,74,40.0
5718,C4,915.0,2.0,98,40.0
5719,F#3,915.0,2.0,98,40.0
5720,A3,915.0,2.0,98,40.0
5721,E-4,915.0,2.0,98,40.0
5722,A2,915.0,2.0,81,40.0
5723,C3,915.0,2.0,81,40.0
5724,F#2,915.0,2.0,81,40.0
5725,E-3,915.0,2.0,81,40.0
5726,E-4,919.75,0.237,39,40.0
5727,F#4,919.75,0.237,46,40.0
5728,A4,919.75,0.237,46,40.0
5729,C5,919.75,0.237,46,40.0
5730,D4,920.0,0.75,45,40.0
5731,F#4,920.0,0.75,49,40.0
5732,A4,920.0,0.75,49,40.0
5733,D5,920.0,0.75,49,40.0
5734,C4,920.75,0.237,39,40.0
5735,F#4,920.75,0.237,47,40.0
5736,A4,920.75,0.237,47,40.0
5737,E-5,920.75,0.237,47,40.0
5738,C4,921.0,2.0,42,40.0
5739,F#4,921.0,2.0,52,40.0
5740,A4,921.0,2.0,52,40.0
5741,E-5,921.0,2.0,52,40.0
5742,B3,923.0,1.0,27,40.0
5743,G4,923.0,1.0,34,40.0
5744,B4,923.0,1.0,34,40.0
5745,D5,923.0,1.0,34,40.0
5746,G#4,927.75,0.25,39,40.0
5747,D5,927.75,0.25,47,40.0
5748,B4,927.75,0.25,47,40.0
5749,F5,927.75,0.25,47,40.0
5750,G4,928.0,0.75,45,40.0
5751,B4,928.0,0.75,49,40.0
5752,D5,928.0,0.75,49,40.0
5753,G5,928.0,0.75,49,40.0
5754,F4,928.75,0.237,39,40.0
5755,D5,928.75,0.237,48,40.0
5756,G#5,928.75,0.237,48,40.0
5757,B4,928.75,0.237,48,40.0
5758,F4,929.0,2.0,38,40.0
5759,G#5,929.0,2.0,52,40.0
5760,B4,929.0,2.0,52,40.0
5761,D5,929.0,2.0,52,40.0
5762,E-4,931.0,1.0,27,40.0
5763,C5,931.0,1.0,34,40.0
5764,G5,931.0,1.0,34,40.0
5765,E-5,931.0,1.0,34,40.0
5766,B-4,935.75,0.25,58,40.0
5767,G5,935.75,0.25,58,40.0
5768,E5,935.75,0.25,58,40.0
5769,B-5,935.75,0.25,58,40.0
5770,C#4,935.75,0.25,45,40.0
5771,E4,935.75,0.25,45,40.0
5772,G4,935.75,0.25,45,40.0
5773,C5,936.0,0.75,64,40.0
5774,E5,936.0,0.75,64,40.0
5775,G5,936.0,0.75,64,40.0
5776,C6,936.0,0.75,64,40.0
5777,C4,936.0,0.75,52,40.0
5778,E4,936.0,0.75,52,40.0
5779,G4,936.0,0.75,52,40.0
5780,C#5,936.75,0.237,70,40.0
5781,G5,936.75,0.237,70,40.0
5782,C#6,936.75,0.237,70,40.0
5783,E5,936.75,0.237,70,40.0
5784,B-3,936.75,0.237,52,40.0
5785,E4,936.75,0.237,52,40.0
5786,G4,936.75,0.237,52,40.0
5787,G#3,937.0,4.0,60,40.0
5788,C#5,937.0,2.0,75,40.0
5789,C#6,937.0,2.0,75,40.0
5790,E5,937.0,2.0,75,40.0
5791,G5,937.0,2.0,75,40.0
5792,B-3,937.0,2.0,64,40.0
5793,E4,937.0,2.0,64,40.0
5794,G4,937.0,2.0,64,40.0
5795,C5,939.0,1.0,57,40.0
5796,C6,939.0,1.0,57,40.0
5797,C4,939.0,1.0,49,40.0
5798,F4,939.0,1.0,49,40.0
5799,G#4,939.0,1.0,49,40.0
5800,B-4,940.0,1.0,60,40.0
5801,B-5,940.0,1.0,60,40.0
5802,G3,940.0,1.0,47,40.0
5803,C4,940.0,1.0,47,40.0
5804,E4,940.0,1.0,47,40.0
5805,G#4,941.0,1.0,45,40.0
5806,G#5,941.0,1.0,45,40.0
5807,F3,941.0,1.0,37,40.0
5808,C4,941.0,1.0,37,40.0
5809,F4,941.0,1.0,37,40.0
5810,G4,942.0,1.0,44,40.0
5811,G5,942.0,1.0,44,40.0
5812,E-3,942.0,1.0,36,40.0
5813,G3,942.0,1.0,36,40.0
5814,C4,942.0,1.0,36,40.0
5815,F4,943.0,1.0,42,40.0
5816,F5,943.0,1.0,42,40.0
5817,D3,943.0,1.0,34,40.0
5818,G3,943.0,1.0,34,40.0
5819,B3,943.0,1.0,34,40.0
5820,E-4,944.0,1.0,40,40.0
5821,E-5,944.0,1.0,40,40.0
5822,C3,944.0,1.0,32,40.0
5823,G3,944.0,1.0,32,40.0
5824,C4,944.0,1.0,32,40.0
5825,F3,945.0,1.0,34,40.0
5826,F4,946.0,1.0,34,40.0
5827,G#4,946.0,1.0,34,40.0
5828,D5,946.0,1.0,34,40.0
5829,G1,947.0,1.0,33,40.0
5830,G2,947.0,1.0,33,40.0
5831,D3,948.0,1.0,31,40.0
5832,F3,948.0,1.0,31,40.0
5833,B3,948.0,1.0,31,40.0
5834,C4,949.0,1.5,50,40.0
5835,C2,949.0,0.475,44,40.0
5836,C3,949.25,0.25,41,40.0
5837,C2,949.5,0.475,44,40.0
5838,C3,949.75,0.25,41,40.0
5839,C2,950.0,0.475,44,40.0
5840,C3,950.25,0.25,41,40.0
5841,C2,950.5,0.475,45,40.0
5842,B-3,950.5,0.188,52,40.0
5843,E4,950.5,0.188,52,40.0
5844,C3,950.75,0.25,41,40.0
5845,C2,951.0,0.475,45,40.0
5846,G#3,951.0,0.188,54,40.0
5847,F4,951.0,0.188,54,40.0
5848,C3,951.25,0.25,46,40.0
5849,C2,951.5,0.475,47,40.0
5850,E4,951.5,0.188,56,40.0
5851,G4,951.5,0.188,56,40.0
5852,C3,951.75,0.25,47,40.0
5853,C2,952.0,0.475,49,40.0
5854,F4,952.0,0.188,57,40.0
5855,G#4,952.0,0.188,57,40.0
5856,C3,952.25,0.25,50,40.0
5857,C2,952.5,0.475,51,40.0
5858,D4,952.5,0.188,59,40.0
5859,B4,952.5,0.188,59,40.0
5860,C3,952.75,0.25,53,40.0
5861,C2,953.0,0.475,55,40.0
5862,E-4,953.0,0.188,61,40.0
5863,C5,953.0,0.188,61,40.0
5864,C3,953.25,0.25,50,40.0
5865,C2,953.5,0.475,53,40.0
5866,E4,953.5,1.0,55,40.0
5867,C5,953.5,1.0,55,40.0
5868,C3,953.75,0.25,47,40.0
5869,C2,954.0,0.475,53,40.0
5870,C3,954.25,0.25,47,40.0
5871,C2,954.5,0.475,44,40.0
5872,B-4,954.5,0.188,51,40.0
5873,E5,954.5,0.188,51,40.0
5874,C3,954.75,0.25,40,40.0
5875,C2,955.0,0.475,40,40.0
5876,G#4,955.0,0.188,50,40.0
5877,F5,955.0,0.188,50,40.0
5878,C3,955.25,0.25,43,40.0
5879,C2,955.5,0.475,44,40.0
5880,E5,955.5,0.188,53,40.0
5881,G5,955.5,0.188,53,40.0
5882,C3,955.75,0.25,46,40.0
5883,C2,956.0,0.475,48,40.0
5884,F5,956.0,0.188,57,40.0
5885,G#5,956.0,0.188,57,40.0
5886,C3,956.25,0.25,50,40.0
5887,C2,956.5,0.475,52,40.0
5888,D5,956.5,0.188,60,40.0
5889,B5,956.5,0.188,60,40.0
5890,C3,956.75,0.25,54,40.0
5891,C2,957.0,0.475,63,40.0
5892,E-5,957.0,1.0,64,40.0
5893,C6,957.0,1.0,64,40.0
5894,C3,957.25,0.25,57,40.0
5895,C2,957.5,0.475,62,40.0
5896,C3,957.75,0.25,56,40.0
5897,B-1,958.0,0.475,66,40.0
5898,C5,958.0,1.0,71,40.0
5899,E-5,958.0,1.0,71,40.0
5900,C6,958.0,1.0,71,40.0
5901,B-2,958.25,0.25,61,40.0
5902,B-1,958.5,0.475,68,40.0
5903,B-2,958.75,0.25,64,40.0
5904,G#1,959.0,0.475,70,40.0
5905,C5,959.0,1.0,77,40.0
5906,E-5,959.0,1.0,77,40.0
5907,C6,959.0,1.0,77,40.0
5908,G#2,959.25,0.25,72,40.0
5909,G#1,959.5,0.475,73,40.0
5910,G#2,959.75,0.25,74,40.0
5911,G1,960.0,0.475,75,40.0
5912,C5,960.0,1.0,86,40.0
5913,E-5,960.0,1.0,86,40.0
5914,C6,960.0,1.0,86,40.0
5915,G2,960.25,0.25,73,40.0
5916,G1,960.5,0.475,76,40.0
5917,G2,960.75,0.25,78,40.0
5918,E-5,961.0,0.5,100,40.0
5919,A5,961.0,0.5,100,40.0
5920,C6,961.0,0.5,100,40.0
5921,E-6,961.0,0.5,100,40.0
5922,F#1,961.0,0.5,93,40.0
5923,F#2,961.0,0.5,93,40.0
5924,F#4,963.0,0.5,86,40.0
5925,A4,963.0,0.5,86,40.0
5926,C5,963.0,0.5,86,40.0
5927,E-5,963.0,0.5,86,40.0
5928,A3,963.0,0.5,86,40.0
5929,E-4,963.0,0.5,86,40.0
5930,C4,963.0,0.5,86,40.0
5931,F#3,963.0,0.5,86,40.0
5932,E-5,965.0,0.5,86,40.0
5933,G4,965.0,0.5,86,40.0
5934,C5,965.0,0.5,86,40.0
5935,G5,965.0,0.5,86,40.0
5936,C4,965.0,0.5,88,40.0
5937,G3,965.0,0.5,88,40.0
5938,E-4,965.0,0.5,88,40.0
5939,D3,967.0,0.5,94,40.0
5940,G3,967.0,0.5,94,40.0
5941,B3,967.0,0.5,94,40.0
5942,F3,967.0,0.5,94,40.0
5943,G2,967.0,0.5,78,40.0
5944,D2,967.0,0.5,78,40.0
5945,G1,967.0,0.5,78,40.0
5946,B1,967.0,0.5,78,40.0
5947,G3,969.0,0.5,97,40.0
5948,C4,969.0,0.5,97,40.0
5949,E-3,969.0,0.5,97,40.0
5950,C3,969.0,0.5,78,40.0
5951,C2,969.0,0.5,78,40.0
5952,E-2,969.0,0.5,78,40.0
5953,G2,969.0,0.5,78,40.0
,note_name,start_time,duration,velocity,tempo
0,C4,0.0,1.0,50,26.67
1,G#2,0.0,1.0,40,26.67
2,G#3,0.0,0.25,28,26.67
3,E-3,0.25,0.25,24,26.67
4,G#3,0.5,0.25,26,26.67
5,E-3,0.75,0.25,23,26.67
6,B-3,1.0,1.0,46,26.67
7,C#3,1.0,1.0,35,26.67
8,G3,1.0,0.25,28,26.67
9,E-3,1.25,0.25,24,26.67
10,G3,1.5,0.25,26,26.67
11,E-3,1.75,0.25,24,26.67
12,E-4,2.0,1.5,50,26.67
13,C3,2.0,1.0,40,26.67
14,G#3,2.0,0.25,28,26.67
15,E-3,2.25,0.25,25,26.67
16,G#3,2.5,0.25,25,26.67
17,E-3,2.75,0.25,25,26.67
18,G2,3.0,1.0,37,26.67
19,B-3,3.0,0.25,28,26.67
20,E-3,3.25,0.25,25,26.67
21,C#4,3.5,0.5,48,26.67
22,B-3,3.5,0.25,25,26.67
23,E-3,3.75,0.25,25,26.67
24,C4,4.0,0.5,47,26.67
25,G#2,4.0,0.5,33,26.67
26,G#3,4.0,0.25,29,26.67
27,E-3,4.25,0.25,25,26.67
28,E-4,4.5,0.5,49,26.67
29,G2,4.5,0.5,35,26.67
30,B-3,4.5,0.25,26,26.67
31,E-3,4.75,0.25,23,26.67
32,G#4,5.0,0.5,51,26.67
33,F2,5.0,0.5,38,26.67
34,C4,5.0,0.25,30,26.67
35,G#3,5.25,0.25,25,26.67
36,B-4,5.5,0.5,56,26.67
37,F3,5.5,0.5,40,26.67
38,D4,5.5,0.25,27,26.67
39,G#3,5.75,0.25,22,26.67
40,E-4,6.0,1.5,50,26.67
41,E-3,6.0,1.0,36,26.67
42,G3,6.0,0.25,28,26.67
43,B-3,6.25,0.25,23,26.67
44,G3,6.5,0.25,23,26.67
45,B-3,6.75,0.25,23,26.67
46,E-2,7.0,1.0,35,26.67
47,G3,7.0,0.25,28,26.67
48,B-3,7.25,0.25,23,26.67
49,E4,7.5,0.5,46,26.67
50,G3,7.5,0.25,25,26.67
51,B-3,7.75,0.25,24,26.67
52,F4,8.0,1.0,50,26.67
53,C#2,8.0,1.0,40,26.67
54,G3,8.0,0.25,28,26.67
55,B-3,8.25,0.25,24,26.67
56,G3,8.5,0.25,26,26.67
57,B-3,8.75,0.246,23,26.67
58,B-3,9.0,0.75,50,26.67
59,C#3,9.0,1.0,36,26.67
60,G3,9.0,0.25,28,26.67
61,E-3,9.25,0.25,24,26.67
62,G3,9.5,0.25,24,26.67
63,C4,9.75,0.125,46,26.67
64,E-3,9.75,0.25,24,26.67
65,C#4,9.875,0.125,46,26.67
66,E-4,10.0,1.0,50,26.67
67,C3,10.0,1.0,40,26.67
68,G#3,10.0,0.25,28,26.67
69,E-3,10.25,0.25,27,26.67
70,G#3,10.5,0.25,27,26.67
71,E-3,10.75,0.25,25,26.67
72,A3,11.0,1.0,48,26.67
73,F2,11.0,1.0,36,26.67
74,E-3,11.0,0.25,28,26.67
75,C3,11.25,0.25,24,26.67
76,E-3,11.5,0.25,26,26.67
77,C3,11.75,0.25,24,26.67
78,C#4,12.0,1.0,50,26.67
79,B-1,12.0,1.0,40,26.67
80,F3,12.0,0.25,29,26.67
81,C#3,12.25,0.25,25,26.67
82,F3,12.5,0.25,27,26.67
83,C#3,12.75,0.225,24,26.67
84,C4,13.0,0.25,48,26.67
85,E-2,13.0,1.0,34,26.67
86,C#3,13.0,0.225,30,26.67
87,B-3,13.25,0.25,48,26.67
88,C#3,13.25,0.225,26,26.67
89,G#3,13.5,0.25,48,26.67
90,C#3,13.5,0.225,28,26.67
91,G3,13.75,0.25,48,26.67
92,C#3,13.75,0.225,26,26.67
93,G#1,14.0,0.5,37,26.67
94,C#3,14.0,0.25,31,26.67
95,G3,14.0,1.0,45,26.67
96,B-3,14.0,1.0,45,26.67
97,E-3,14.25,0.25,26,26.67
98,G#2,14.5,0.5,29,26.67
99,C#3,14.5,0.25,28,26.67
100,E-3,14.75,0.25,24,26.67
101,G#3,15.0,0.5,50,26.67
102,C3,15.0,0.125,36,26.67
103,G#1,15.0,0.5,36,26.67
104,E-3,15.167,0.125,34,26.67
105,G#3,15.333,0.125,34,26.67
106,C4,15.5,0.125,36,26.67
107,E-4,15.667,0.125,35,26.67
108,G#4,15.833,0.125,35,26.67
109,C5,16.0,1.0,50,26.67
110,C4,16.0,0.25,28,26.67
111,G#2,16.0,1.0,40,26.67
112,G#3,16.0,0.25,25,26.67
113,E-4,16.25,0.25,24,26.67
114,E-3,16.25,0.25,21,26.67
115,C4,16.5,0.25,26,26.67
116,G#3,16.5,0.25,23,26.67
117,E-4,16.75,0.25,23,26.67
118,E-3,16.75,0.25,20,26.67
119,B-4,17.0,1.0,46,26.67
120,B-3,17.0,0.25,28,26.67
121,C#3,17.0,1.0,35,26.67
122,G3,17.0,0.25,25,26.67
123,E-4,17.25,0.25,24,26.67
124,E-3,17.25,0.25,21,26.67
125,B-3,17.5,0.25,26,26.67
126,G3,17.5,0.25,23,26.67
127,E-4,17.75,0.25,24,26.67
128,E-3,17.75,0.25,21,26.67
129,E-5,18.0,1.5,50,26.67
130,E-4,18.0,0.25,28,26.67
131,C3,18.0,1.0,40,26.67
132,G#3,18.0,0.25,25,26.67
133,G#4,18.25,0.25,25,26.67
134,E-3,18.25,0.25,22,26.67
135,E-4,18.5,0.25,25,26.67
136,G#3,18.5,0.25,22,26.67
137,G#4,18.75,0.25,25,26.67
138,E-3,18.75,0.25,22,26.67
139,E-4,19.0,0.25,28,26.67
140,G2,19.0,1.0,37,26.67
141,G3,19.0,0.25,25,26.67
142,B-4,19.25,0.25,25,26.67
143,E-3,19.25,0.25,22,26.67
144,C#5,19.5,0.5,48,26.67
145,E-4,19.5,0.25,25,26.67
146,G3,19.5,0.25,22,26.67
147,B-4,19.75,0.25,25,26.67
148,E-3,19.75,0.25,22,26.67
149,C5,20.0,0.5,47,26.67
150,E-4,20.0,0.25,31,26.67
151,G#2,20.0,0.5,41,26.67
152,G#3,20.0,0.25,30,26.67
153,G#4,20.25,0.25,31,26.67
154,E-3,20.25,0.25,30,26.67
155,E-5,20.5,0.5,49,26.67
156,E-4,20.5,0.25,32,26.67
157,G2,20.5,0.5,44,26.67
158,G3,20.5,0.25,30,26.67
159,B-4,20.75,0.25,33,26.67
160,E-3,20.75,0.25,31,26.67
161,G#5,21.0,0.5,51,26.67
162,G#4,21.0,0.25,33,26.67
163,F2,21.0,0.5,46,26.67
164,F3,21.0,0.25,31,26.67
165,C5,21.25,0.25,34,26.67
166,G#2,21.25,0.25,32,26.67
167,B-5,21.5,0.5,56,26.67
168,G#4,21.5,0.25,35,26.67
169,F2,21.5,0.5,49,26.67
170,F3,21.5,0.25,32,26.67
171,D5,21.75,0.25,35,26.67
172,G#2,21.75,0.25,32,26.67
173,E-5,22.0,1.5,50,26.67
174,G4,22.0,0.25,33,26.67
175,E-2,22.0,0.25,46,26.67
176,B-4,22.25,0.25,25,26.67
177,G2,22.25,0.25,25,26.67
178,G4,22.5,0.25,25,26.67
179,B-2,22.5,0.25,25,26.67
180,B-4,22.75,0.25,25,26.67
181,E-3,22.75,0.25,25,26.67
182,G4,23.0,0.25,29,26.67
183,G3,23.0,0.25,28,26.67
184,B-4,23.25,0.25,30,26.67
185,B-3,23.25,0.25,30,26.67
186,E5,23.5,0.5,46,26.67
187,G4,23.5,0.25,33,26.67
188,G3,23.5,0.25,33,26.67
189,B-4,23.75,0.25,34,26.67
190,B-3,23.75,0.25,35,26.67
191,F5,24.0,1.0,50,26.67
192,G4,24.0,0.25,30,26.67
193,C#2,24.0,0.25,40,26.67
194,B-4,24.25,0.25,24,26.67
195,G2,24.25,0.25,24,26.67
196,G4,24.5,0.25,26,26.67
197,B-2,24.5,0.25,26,26.67
198,B-4,24.75,0.246,23,26.67
199,C#3,24.75,0.25,23,26.67
200,B-4,25.0,0.75,50,26.67
201,G4,25.0,0.25,28,26.67
202,G3,25.0,0.25,25,26.67
203,E-4,25.25,0.25,24,26.67
204,B-3,25.25,0.25,21,26.67
205,G4,25.5,0.25,24,26.67
206,G3,25.5,0.25,21,26.67
207,C5,25.75,0.125,46,26.67
208,E-4,25.75,0.25,24,26.67
209,C#3,25.75,0.25,21,26.67
210,C#5,25.875,0.125,46,26.67
211,E-5,26.0,1.0,50,26.67
212,G#4,26.0,0.25,30,26.67
213,C3,26.0,0.5,40,26.67
214,E-4,26.25,0.25,27,26.67
215,E-3,26.25,0.25,27,26.67
216,G#4,26.5,0.25,27,26.67
217,C3,26.5,0.5,27,26.67
218,E-4,26.75,0.188,25,26.67
219,E-3,26.75,0.25,25,26.67
220,A4,27.0,1.0,48,26.67
221,E-4,27.0,0.25,28,26.67
222,F2,27.0,1.0,36,26.67
223,C3,27.0,0.25,25,26.67
224,C4,27.25,0.25,24,26.67
225,F3,27.25,0.25,21,26.67
226,E-4,27.5,0.25,26,26.67
227,C3,27.5,0.25,23,26.67
228,C4,27.75,0.25,24,26.67
229,F3,27.75,0.25,21,26.67
230,C#5,28.0,1.0,50,26.67
231,F4,28.0,0.25,29,26.67
232,B-2,28.0,1.0,40,26.67
233,C#3,28.0,0.25,26,26.67
234,C#4,28.25,0.25,25,26.67
235,F3,28.25,0.25,22,26.67
236,F4,28.5,0.25,27,26.67
237,C#3,28.5,0.25,24,26.67
238,C#4,28.75,0.188,24,26.67
239,F3,28.75,0.25,21,26.67
240,C5,29.0,0.25,48,26.67
241,C#4,29.0,0.188,30,26.67
242,E-2,29.0,1.0,34,26.67
243,B-2,29.0,0.25,27,26.67
244,B-4,29.25,0.25,48,26.67
245,C#4,29.25,0.188,26,26.67
246,E-3,29.25,0.25,23,26.67
247,G#4,29.5,0.25,48,26.67
248,C#4,29.5,0.188,28,26.67
249,B-2,29.5,0.25,25,26.67
250,G4,29.75,0.25,48,26.67
251,C#4,29.75,0.188,26,26.67
252,E-3,29.75,0.25,23,26.67
253,B-4,30.0,1.0,50,26.67
254,C#4,30.0,0.25,30,26.67
255,G#2,30.0,1.5,37,26.67
256,E-4,30.25,0.25,26,26.67
257,E-3,30.25,0.25,23,26.67
258,C#4,30.5,0.25,28,26.67
259,G3,30.5,0.25,25,26.67
260,E-4,30.75,0.25,24,26.67
261,E-3,30.75,0.25,21,26.67
262,G#4,31.0,0.5,50,26.67
263,C4,31.0,0.5,36,26.67
264,G#3,31.0,0.5,36,26.67
265,C4,31.875,0.125,45,26.67
266,C5,32.0,1.25,50,26.67
267,C4,32.25,0.225,25,26.67
268,C4,32.5,0.225,25,26.67
269,C4,32.75,0.225,25,26.67
270,C4,33.0,0.225,29,26.67
271,G#5,33.25,0.25,50,26.67
272,C4,33.25,0.225,25,26.67
273,G5,33.5,0.25,51,26.67
274,C4,33.5,0.225,25,26.67
275,F5,33.75,0.25,48,26.67
276,C4,33.75,0.225,25,26.67
277,C6,34.0,1.25,54,26.67
278,E3,34.0,0.225,26,26.67
279,G3,34.0,0.225,26,26.67
280,C4,34.0,0.225,26,26.67
281,E3,34.25,0.225,22,26.67
282,G3,34.25,0.225,22,26.67
283,C4,34.25,0.225,22,26.67
284,E3,34.5,0.225,22,26.67
285,G3,34.5,0.225,22,26.67
286,C4,34.5,0.225,22,26.67
287,E3,34.75,0.225,22,26.67
288,G3,34.75,0.225,22,26.67
289,C4,34.75,0.225,22,26.67
290,F3,35.0,0.225,26,26.67
291,G#3,35.0,0.225,26,26.67
292,C4,35.0,0.225,26,26.67
293,G#5,35.25,0.25,50,26.67
294,F3,35.25,0.225,22,26.67
295,G#3,35.25,0.225,22,26.67
296,C4,35.25,0.225,22,26.67
297,G5,35.5,0.25,50,26.67
298,F3,35.5,0.225,22,26.67
299,G#3,35.5,0.225,22,26.67
300,C4,35.5,0.225,22,26.67
301,F5,35.75,0.25,48,26.67
302,F3,35.75,0.225,22,26.67
303,G#3,35.75,0.225,22,26.67
304,C4,35.75,0.225,22,26.67
305,C5,36.0,1.25,52,26.67
306,G3,36.0,0.225,26,26.67
307,B-3,36.0,0.225,26,26.67
308,E4,36.0,0.225,26,26.67
309,G3,36.25,0.225,22,26.67
310,B-3,36.25,0.225,22,26.67
311,E4,36.25,0.225,22,26.67
312,G3,36.5,0.225,22,26.67
313,B-3,36.5,0.225,22,26.67
314,E4,36.5,0.225,22,26.67
315,G3,36.75,0.225,22,26.67
316,B-3,36.75,0.225,22,26.67
317,E4,36.75,0.225,22,26.67
318,G#3,37.0,0.225,28,26.67
319,C4,37.0,0.225,28,26.67
320,F4,37.0,0.225,28,26.67
321,G#5,37.25,0.25,46,26.67
322,G#3,37.25,0.225,25,26.67
323,C4,37.25,0.225,25,26.67
324,F4,37.25,0.225,25,26.67
325,G5,37.5,0.25,49,26.67
326,G#3,37.5,0.225,26,26.67
327,C4,37.5,0.225,26,26.67
328,F4,37.5,0.225,26,26.67
329,F5,37.75,0.25,51,26.67
330,G#3,37.75,0.225,26,26.67
331,C4,37.75,0.225,26,26.67
332,F4,37.75,0.225,26,26.67
333,E-5,38.0,0.5,57,26.67
334,B-3,38.0,0.225,27,26.67
335,F4,38.0,0.225,27,26.67
336,G#4,38.0,0.225,27,26.67
337,B-3,38.25,0.225,28,26.67
338,F4,38.25,0.225,28,26.67
339,G#4,38.25,0.225,28,26.67
340,D5,38.5,0.75,53,26.67
341,B-3,38.5,0.225,30,26.67
342,F4,38.5,0.225,30,26.67
343,G#4,38.5,0.225,30,26.67
344,B-3,38.75,0.225,32,26.67
345,F4,38.75,0.225,32,26.67
346,G#4,38.75,0.225,32,26.67
347,B3,39.0,0.225,34,26.67
348,F4,39.0,0.225,34,26.67
349,G#4,39.0,0.225,34,26.67
350,E-5,39.25,1.0,55,26.67
351,D5,39.25,1.0,55,26.67
352,B3,39.25,0.225,29,26.67
353,F4,39.25,0.225,29,26.67
354,G#4,39.25,0.225,29,26.67
355,C5,39.375,1.0,54,26.67
356,D5,39.375,1.0,54,26.67
357,F5,39.5,0.375,63,26.67
358,B3,39.5,0.225,29,26.67
359,D4,39.5,0.225,29,26.67
360,G#4,39.5,0.225,29,26.67
361,B3,39.75,0.225,27,26.67
362,D4,39.75,0.225,27,26.67
363,G#4,39.75,0.225,27,26.67
364,E-5,39.875,0.125,55,26.67
365,E-5,40.0,1.0,62,26.67
366,C4,40.0,0.225,29,26.67
367,E-4,40.0,0.225,29,26.67
368,G4,40.0,0.225,29,26.67
369,C4,40.25,0.225,24,26.67
370,E-4,40.25,0.225,24,26.67
371,G4,40.25,0.225,24,26.67
372,C4,40.5,0.225,24,26.67
373,E-4,40.5,0.225,24,26.67
374,G4,40.5,0.225,24,26.67
375,C4,40.75,0.225,24,26.67
376,E-4,40.75,0.225,24,26.67
377,G4,40.75,0.225,24,26.67
378,F4,41.0,0.562,55,26.67
379,G#3,41.0,0.225,30,26.67
380,E-4,41.0,0.225,30,26.67
381,G#3,41.25,0.225,28,26.67
382,E-4,41.25,0.225,28,26.67
383,G4,41.5,0.062,54,26.67
384,G#3,41.5,0.225,28,26.67
385,E-4,41.5,0.225,28,26.67
386,E4,41.625,1.0,53,26.67
387,F4,41.625,1.0,53,26.67
388,G#4,41.75,0.125,58,26.67
389,G#3,41.75,0.225,28,26.67
390,E-4,41.75,0.225,28,26.67
391,C5,41.875,0.125,51,26.67
392,B4,42.0,0.083,45,26.67
393,C5,42.083,0.083,45,26.67
394,D5,42.167,0.083,45,26.67
395,C5,42.25,0.125,49,26.67
396,B-4,42.375,0.125,45,26.67
397,G5,42.5,0.5,52,26.67
398,B-3,42.5,0.225,27,26.67
399,E-4,42.5,0.225,27,26.67
400,G4,42.5,0.225,27,26.67
401,B-3,42.75,0.225,27,26.67
402,E-4,42.75,0.225,27,26.67
403,G4,42.75,0.225,27,26.67
404,F5,43.0,0.125,50,26.67
405,B-3,43.0,0.225,27,26.67
406,E-4,43.0,0.225,27,26.67
407,G4,43.0,0.225,27,26.67
408,E-5,43.125,0.125,49,26.67
409,D5,43.25,0.125,47,26.67
410,C5,43.375,0.125,46,26.67
411,B-4,43.5,0.125,44,26.67
412,B-2,43.5,0.225,27,26.67
413,D3,43.5,0.225,27,26.67
414,G#3,43.5,0.225,27,26.67
415,A4,43.625,0.125,43,26.67
416,C5,43.75,0.125,47,26.67
417,B-2,43.75,0.225,27,26.67
418,D3,43.75,0.225,27,26.67
419,G#3,43.75,0.225,27,26.67
420,B-4,43.875,0.125,46,26.67
421,G#4,44.0,0.125,45,26.67
422,B-2,44.0,0.225,27,26.67
423,D3,44.0,0.225,27,26.67
424,G#3,44.0,0.225,27,26.67
425,F4,44.125,0.125,43,26.67
426,E-4,44.25,0.5,49,26.67
427,E-3,44.25,0.5,29,26.67
428,G3,44.25,0.5,29,26.67
429,B-3,45.0,0.25,44,26.67
430,G3,45.25,0.25,49,26.67
431,B-3,45.5,0.25,45,26.67
432,G3,45.75,0.25,49,26.67
433,E-3,46.0,0.25,45,26.67
434,E-3,46.25,0.25,49,26.67
435,B-1,46.25,2.0,33,26.67
436,F3,46.25,0.49,42,26.67
437,G#3,46.25,0.49,42,26.67
438,D3,46.5,0.188,44,26.67
439,D3,46.75,0.25,49,26.67
440,F3,46.75,0.49,43,26.67
441,G#3,46.75,0.49,43,26.67
442,C3,47.0,0.188,45,26.67
443,C3,47.25,0.25,53,26.67
444,F3,47.25,0.49,46,26.67
445,G#3,47.25,0.49,46,26.67
446,B2,47.5,0.188,47,26.67
447,B2,47.75,0.25,53,26.67
448,D3,47.75,0.49,42,26.67
449,F3,47.75,0.49,42,26.67
450,G#3,47.75,0.49,42,26.67
451,B-2,48.0,0.25,49,26.67
452,E-2,48.25,0.5,36,26.67
453,B-2,48.25,0.5,42,26.67
454,E-3,48.25,0.5,42,26.67
455,G3,48.25,0.5,42,26.67
456,B-2,49.0,0.25,44,26.67
457,G2,49.25,0.25,49,26.67
458,B-2,49.5,0.25,45,26.67
459,B-3,49.75,0.375,49,26.67
460,G2,49.75,0.25,41,26.67
461,E-2,50.0,0.25,38,26.67
462,E-4,50.125,0.125,49,26.67
463,E-4,50.25,0.25,49,26.67
464,F3,50.25,1.0,39,26.67
465,B-1,50.25,1.0,39,26.67
466,G#3,50.25,1.0,39,26.67
467,D4,50.5,0.24,44,26.67
468,D4,50.75,0.25,49,26.67
469,C4,51.0,0.24,45,26.67
470,C4,51.25,0.25,53,26.67
471,B-2,51.25,1.0,42,26.67
472,F3,51.25,1.0,42,26.67
473,G#3,51.25,1.0,42,26.67
474,B3,51.5,0.24,47,26.67
475,B3,51.75,0.25,53,26.67
476,B-3,52.0,0.24,49,26.67
477,E-2,52.25,4.0,51,26.67
478,F3,52.25,0.25,51,26.67
479,G3,52.25,4.0,50,26.67
480,B-3,52.25,4.0,50,26.67
481,E3,52.5,0.188,48,26.67
482,E3,52.75,0.25,53,26.67
483,E-3,53.0,0.188,48,26.67
484,E-3,53.25,0.25,53,26.67
485,D3,53.5,0.188,49,26.67
486,D3,53.75,0.25,55,26.67
487,E-3,54.0,0.188,50,26.67
488,E-3,54.25,0.25,55,26.67
489,E3,54.5,0.188,40,26.67
490,E3,54.75,0.25,44,26.67
491,E-3,55.0,0.188,37,26.67
492,E-3,55.25,0.25,44,26.67
493,D3,55.5,0.188,31,26.67
494,D3,55.75,0.25,37,26.67
495,C#3,56.0,0.25,29,26.67
496,C4,56.25,1.0,47,26.67
497,G#3,56.25,0.25,28,26.67
498,G#1,56.25,1.0,35,26.67
499,G#2,56.25,1.0,35,26.67
500,E-3,56.5,0.25,24,26.67
501,G#3,56.75,0.25,26,26.67
502,E-3,57.0,0.25,23,26.67
503,B-3,57.25,1.0,46,26.67
504,C#3,57.25,1.0,35,26.67
505,G3,57.25,0.25,28,26.67
506,E-3,57.5,0.25,24,26.67
507,G3,57.75,0.25,26,26.67
508,E-3,58.0,0.25,24,26.67
509,E-4,58.25,1.5,50,26.67
510,C3,58.25,1.0,40,26.67
511,G#3,58.25,0.25,28,26.67
512,E-3,58.5,0.25,25,26.67
513,G#3,58.75,0.25,25,26.67
514,E-3,59.0,0.25,25,26.67
515,G2,59.25,1.0,37,26.67
516,B-3,59.25,0.25,28,26.67
517,E-3,59.5,0.25,25,26.67
518,C#4,59.75,0.5,48,26.67
519,B-3,59.75,0.25,25,26.67
520,E-3,60.0,0.25,25,26.67
521,C4,60.25,0.5,47,26.67
522,G#2,60.25,0.5,33,26.67
523,G#3,60.25,0.25,29,26.67
524,E-3,60.5,0.25,25,26.67
525,E-4,60.75,0.5,49,26.67
526,G2,60.75,0.5,36,26.67
527,B-3,60.75,0.25,27,26.67
528,E-3,61.0,0.25,24,26.67
529,G#4,61.25,0.5,51,26.67
530,F2,61.25,0.5,40,26.67
531,C4,61.25,0.25,33,26.67
532,G#3,61.5,0.25,28,26.67
533,B-4,61.75,0.5,56,26.67
534,F3,61.75,0.5,44,26.67
535,D4,61.75,0.25,31,26.67
536,G#3,62.0,0.25,26,26.67
537,E-4,62.25,1.5,50,26.67
538,E-3,62.25,1.0,36,26.67
539,G3,62.25,0.25,28,26.67
540,B-3,62.5,0.25,23,26.67
541,G3,62.75,0.25,23,26.67
542,B-3,63.0,0.25,23,26.67
543,E-2,63.25,1.0,35,26.67
544,G3,63.25,0.25,28,26.67
545,B-3,63.5,0.25,23,26.67
546,E4,63.75,0.5,46,26.67
547,G3,63.75,0.25,25,26.67
548,B-3,64.0,0.25,24,26.67
549,F4,64.25,1.0,50,26.67
550,C#2,64.25,1.0,40,26.67
551,G3,64.25,0.25,28,26.67
552,B-3,64.5,0.25,24,26.67
553,G3,64.75,0.25,26,26.67
554,B-3,65.0,0.246,23,26.67
555,B-3,65.25,0.75,50,26.67
556,C#3,65.25,1.0,36,26.67
557,G3,65.25,0.25,28,26.67
558,E-3,65.5,0.25,24,26.67
559,G3,65.75,0.25,24,26.67
560,C4,66.0,0.125,46,26.67
561,E-3,66.0,0.25,24,26.67
562,C#4,66.125,0.125,46,26.67
563,E-4,66.25,1.0,50,26.67
564,C3,66.25,1.0,40,26.67
565,G#3,66.25,0.25,28,26.67
566,E-3,66.5,0.25,27,26.67
567,G#3,66.75,0.25,27,26.67
568,E-3,67.0,0.25,25,26.67
569,A3,67.25,1.0,48,26.67
570,F2,67.25,1.0,36,26.67
571,E-3,67.25,0.25,28,26.67
572,C3,67.5,0.25,24,26.67
573,E-3,67.75,0.25,26,26.67
574,C3,68.0,0.25,24,26.67
575,C#4,68.25,1.0,50,26.67
576,B-1,68.25,1.0,40,26.67
577,F3,68.25,0.25,29,26.67
578,C#3,68.5,0.25,25,26.67
579,F3,68.75,0.25,27,26.67
580,C#3,69.0,0.188,24,26.67
581,C4,69.25,0.25,48,26.67
582,E-2,69.25,1.0,34,26.67
583,C#3,69.25,0.188,30,26.67
584,B-3,69.5,0.25,48,26.67
585,C#3,69.5,0.188,26,26.67
586,G#3,69.75,0.25,48,26.67
587,C#3,69.75,0.188,28,26.67
588,G3,70.0,0.25,48,26.67
589,C#3,70.0,0.188,26,26.67
590,G#1,70.25,0.5,37,26.67
591,C#3,70.25,0.25,31,26.67
592,G3,70.25,1.0,45,26.67
593,B-3,70.25,1.0,45,26.67
594,E-3,70.5,0.25,26,26.67
595,G#2,70.75,0.5,29,26.67
596,C#3,70.75,0.25,28,26.67
597,E-3,71.0,0.25,24,26.67
598,G#3,71.25,0.5,50,26.67
599,G#1,71.25,0.5,36,26.67
600,E-4,71.75,0.5,47,26.67
601,G#4,72.25,0.5,50,26.67
602,B3,72.25,0.125,26,26.67
603,E-4,72.25,0.125,26,26.67
604,G#2,72.25,1.0,33,26.67
605,G#3,72.25,1.0,33,26.67
606,B3,72.417,0.125,26,26.67
607,E-4,72.417,0.125,26,26.67
608,B3,72.583,0.125,26,26.67
609,E-4,72.583,0.125,26,26.67
610,B4,72.75,0.5,47,26.67
611,B3,72.75,0.125,26,26.67
612,E-4,72.75,0.125,26,26.67
613,B3,72.917,0.125,28,26.67
614,E-4,72.917,0.125,28,26.67
615,B3,73.083,0.125,28,26.67
616,E-4,73.083,0.125,28,26.67
617,B-4,73.25,0.5,47,26.67
618,B3,73.25,0.125,28,26.67
619,E-4,73.25,0.125,28,26.67
620,B3,73.417,0.125,28,26.67
621,E-4,73.417,0.125,28,26.67
622,B3,73.583,0.125,28,26.67
623,E-4,73.583,0.125,28,26.67
624,G#4,73.75,0.5,46,26.67
625,B3,73.75,0.125,28,26.67
626,E-4,73.75,0.125,28,26.67
627,B3,73.917,0.125,28,26.67
628,E-4,73.917,0.125,28,26.67
629,B3,74.083,0.125,28,26.67
630,E-4,74.083,0.125,28,26.67
631,G4,74.25,0.5,51,26.67
632,B-3,74.25,0.667,36,26.67
633,C#4,74.25,0.125,28,26.67
634,E-4,74.25,0.125,28,26.67
635,C#4,74.417,0.125,28,26.67
636,E-4,74.417,0.125,28,26.67
637,C#4,74.583,0.125,28,26.67
638,E-4,74.583,0.125,28,26.67
639,C#5,74.75,0.5,47,26.67
640,C#4,74.75,0.125,28,26.67
641,E-4,74.75,0.125,28,26.67
642,B-3,74.917,0.167,36,26.67
643,C#4,74.917,0.125,28,26.67
644,E-4,74.917,0.125,28,26.67
645,A3,75.083,0.167,36,26.67
646,C#4,75.083,0.125,28,26.67
647,E-4,75.083,0.125,28,26.67
648,B-3,75.25,0.125,36,26.67
649,C#4,75.25,0.125,28,26.67
650,E-4,75.25,0.125,28,26.67
651,B-3,75.417,0.125,36,26.67
652,C#4,75.417,0.125,28,26.67
653,E-4,75.417,0.125,28,26.67
654,G#3,75.583,0.125,33,26.67
655,C#4,75.583,0.125,28,26.67
656,E-4,75.583,0.125,28,26.67
657,G3,75.75,0.125,36,26.67
658,C#4,75.75,0.125,28,26.67
659,E-4,75.75,0.125,28,26.67
660,F3,75.917,0.125,32,26.67
661,C#4,75.917,0.125,28,26.67
662,E-4,75.917,0.125,28,26.67
663,E-3,76.083,0.125,32,26.67
664,C#4,76.083,0.125,28,26.67
665,E-4,76.083,0.125,28,26.67
666,G#4,76.25,0.5,50,26.67
667,B3,76.25,0.125,26,26.67
668,E-4,76.25,0.125,26,26.67
669,G#2,76.25,1.0,33,26.67
670,G#3,76.25,1.0,33,26.67
671,B3,76.417,0.125,26,26.67
672,E-4,76.417,0.125,26,26.67
673,B3,76.583,0.125,26,26.67
674,E-4,76.583,0.125,26,26.67
675,B4,76.75,0.5,47,26.67
676,B3,76.75,0.125,26,26.67
677,E-4,76.75,0.125,26,26.67
678,B3,76.917,0.125,28,26.67
679,E-4,76.917,0.125,28,26.67
680,B3,77.083,0.125,28,26.67
681,E-4,77.083,0.125,28,26.67
682,B-4,77.25,0.5,47,26.67
683,B3,77.25,0.125,28,26.67
684,E-4,77.25,0.125,28,26.67
685,B3,77.417,0.125,28,26.67
686,E-4,77.417,0.125,28,26.67
687,B3,77.583,0.125,28,26.67
688,E-4,77.583,0.125,28,26.67
689,G#4,77.75,0.5,46,26.67
690,B3,77.75,0.125,28,26.67
691,E-4,77.75,0.125,28,26.67
692,B3,77.917,0.125,28,26.67
693,E-4,77.917,0.125,28,26.67
694,B3,78.083,0.125,28,26.67
695,E-4,78.083,0.125,28,26.67
696,G#4,78.25,0.5,51,26.67
697,E-3,78.25,0.667,36,26.67
698,B-3,78.25,0.125,28,26.67
699,E-4,78.25,0.125,28,26.67
700,B-3,78.417,0.125,28,26.67
701,E-4,78.417,0.125,28,26.67
702,B-3,78.583,0.125,28,26.67
703,E-4,78.583,0.125,28,26.67
704,G4,78.75,0.5,47,26.67
705,B-3,78.75,0.125,28,26.67
706,E-4,78.75,0.125,28,26.67
707,E-3,78.917,0.167,36,26.67
708,B-3,78.917,0.125,28,26.67
709,E-4,78.917,0.125,28,26.67
710,D3,79.083,0.167,36,26.67
711,B-3,79.083,0.125,28,26.67
712,E-4,79.083,0.125,28,26.67
713,E-3,79.25,0.125,36,26.67
714,G3,79.25,0.125,27,26.67
715,B-3,79.25,0.125,27,26.67
716,E-4,79.25,0.125,27,26.67
717,E3,79.417,0.125,36,26.67
718,G3,79.417,0.125,27,26.67
719,B-3,79.417,0.125,27,26.67
720,E-4,79.417,0.125,27,26.67
721,E-3,79.583,0.125,33,26.67
722,G3,79.583,0.125,27,26.67
723,B-3,79.583,0.125,27,26.67
724,E-4,79.583,0.125,27,26.67
725,C#3,79.75,0.125,36,26.67
726,G3,79.75,0.125,27,26.67
727,B-3,79.75,0.125,27,26.67
728,E-4,79.75,0.125,27,26.67
729,B2,79.917,0.125,32,26.67
730,G3,79.917,0.125,27,26.67
731,B-3,79.917,0.125,27,26.67
732,E-4,79.917,0.125,27,26.67
733,B-2,80.083,0.125,32,26.67
734,G3,80.083,0.125,27,26.67
735,B-3,80.083,0.125,27,26.67
736,E-4,80.083,0.125,27,26.67
737,G#4,80.25,0.5,55,26.67
738,B3,80.25,0.125,28,26.67
739,E-4,80.25,0.125,28,26.67
740,G#2,80.25,1.0,36,26.67
741,G#3,80.25,1.0,36,26.67
742,B3,80.417,0.125,29,26.67
743,E-4,80.417,0.125,29,26.67
744,B3,80.583,0.125,30,26.67
745,E-4,80.583,0.125,30,26.67
746,B4,80.75,0.5,56,26.67
747,B3,80.75,0.125,31,26.67
748,E-4,80.75,0.125,31,26.67
749,B3,80.917,0.125,33,26.67
750,E-4,80.917,0.125,33,26.67
751,B3,81.083,0.125,34,26.67
752,E-4,81.083,0.125,34,26.67
753,B-4,81.25,0.5,61,26.67
754,B3,81.25,0.125,36,26.67
755,E-4,81.25,0.125,36,26.67
756,B3,81.417,0.125,36,26.67
757,E-4,81.417,0.125,36,26.67
758,B3,81.583,0.125,36,26.67
759,E-4,81.583,0.125,36,26.67
760,G#4,81.75,0.5,65,26.67
761,B3,81.75,0.125,38,26.67
762,E-4,81.75,0.125,38,26.67
763,B3,81.917,0.125,38,26.67
764,E-4,81.917,0.125,38,26.67
765,B3,82.083,0.125,40,26.67
766,E-4,82.083,0.125,40,26.67
767,F#4,82.25,0.5,73,26.67
768,F#5,82.25,0.667,86,26.67
769,A2,82.25,0.125,53,26.67
770,B2,82.25,0.125,53,26.67
771,E-3,82.25,0.125,53,26.67
772,F#3,82.25,0.125,53,26.67
773,A2,82.417,0.125,50,26.67
774,B2,82.417,0.125,50,26.67
775,E-3,82.417,0.125,50,26.67
776,F#3,82.417,0.125,50,26.67
777,A2,82.583,0.125,50,26.67
778,B2,82.583,0.125,50,26.67
779,E-3,82.583,0.125,50,26.67
780,F#3,82.583,0.125,50,26.67
781,A2,82.75,0.125,50,26.67
782,B2,82.75,0.125,50,26.67
783,E-3,82.75,0.125,50,26.67
784,F#3,82.75,0.125,50,26.67
785,E-5,82.917,0.167,85,26.67
786,A2,82.917,0.125,50,26.67
787,B2,82.917,0.125,50,26.67
788,E-3,82.917,0.125,50,26.67
789,F#3,82.917,0.125,50,26.67
790,B4,83.083,0.167,85,26.67
791,A2,83.083,0.125,50,26.67
792,B2,83.083,0.125,50,26.67
793,E-3,83.083,0.125,50,26.67
794,F#3,83.083,0.125,50,26.67
795,B4,83.25,0.5,81,26.67
796,B5,83.25,0.667,96,26.67
797,G#2,83.25,0.125,56,26.67
798,B2,83.25,0.125,56,26.67
799,E3,83.25,0.125,56,26.67
800,G#3,83.25,0.125,56,26.67
801,G#2,83.417,0.125,50,26.67
802,B2,83.417,0.125,50,26.67
803,E3,83.417,0.125,50,26.67
804,G#3,83.417,0.125,50,26.67
805,G#2,83.583,0.125,50,26.67
806,B2,83.583,0.125,50,26.67
807,E3,83.583,0.125,50,26.67
808,G#3,83.583,0.125,50,26.67
809,G#2,83.75,0.125,50,26.67
810,B2,83.75,0.125,50,26.67
811,E3,83.75,0.125,50,26.67
812,G#3,83.75,0.125,50,26.67
813,G#5,83.917,0.167,93,26.67
814,G#2,83.917,0.125,50,26.67
815,B2,83.917,0.125,50,26.67
816,E3,83.917,0.125,50,26.67
817,G#3,83.917,0.125,50,26.67
818,E5,84.083,0.167,93,26.67
819,G#2,84.083,0.125,50,26.67
820,B2,84.083,0.125,50,26.67
821,E3,84.083,0.125,50,26.67
822,G#3,84.083,0.125,50,26.67
823,E5,84.25,0.5,88,26.67
824,E6,84.25,0.667,104,26.67
825,C#3,84.25,0.125,56,26.67
826,E3,84.25,0.125,56,26.67
827,F#3,84.25,0.125,56,26.67
828,B-3,84.25,0.125,56,26.67
829,C#3,84.417,0.125,48,26.67
830,E3,84.417,0.125,48,26.67
831,F#3,84.417,0.125,48,26.67
832,B-3,84.417,0.125,48,26.67
833,C#3,84.583,0.125,48,26.67
834,E3,84.583,0.125,48,26.67
835,F#3,84.583,0.125,48,26.67
836,B-3,84.583,0.125,48,26.67
837,C#3,84.75,0.125,48,26.67
838,E3,84.75,0.125,48,26.67
839,F#3,84.75,0.125,48,26.67
840,B-3,84.75,0.125,48,26.67
841,C#6,84.917,0.167,92,26.67
842,C#3,84.917,0.125,48,26.67
843,E3,84.917,0.125,48,26.67
844,F#3,84.917,0.125,48,26.67
845,B-3,84.917,0.125,48,26.67
846,B-5,85.083,0.167,92,26.67
847,C#3,85.083,0.125,48,26.67
848,E3,85.083,0.125,48,26.67
849,F#3,85.083,0.125,48,26.67
850,B-3,85.083,0.125,48,26.67
851,B4,85.25,0.25,88,26.67
852,B5,85.25,0.25,88,26.67
853,B2,85.25,0.125,62,26.67
854,E3,85.25,0.125,62,26.67
855,G#3,85.25,0.125,62,26.67
856,B3,85.25,0.125,62,26.67
857,B2,85.417,0.125,56,26.67
858,E3,85.417,0.125,56,26.67
859,G#3,85.417,0.125,56,26.67
860,B3,85.417,0.125,56,26.67
861,B2,85.583,0.125,56,26.67
862,E3,85.583,0.125,56,26.67
863,G#3,85.583,0.125,56,26.67
864,B3,85.583,0.125,56,26.67
865,F#3,85.75,0.25,80,26.67
866,A3,85.75,0.25,80,26.67
867,B3,85.75,0.25,80,26.67
868,E-4,85.75,0.25,80,26.67
869,B1,85.75,0.125,60,26.67
870,B2,85.75,0.125,60,26.67
871,B1,85.917,0.125,60,26.67
872,B2,85.917,0.125,60,26.67
873,B1,86.083,0.125,60,26.67
874,B2,86.083,0.125,60,26.67
875,E4,86.25,0.25,86,26.67
876,G#3,86.25,0.125,58,26.67
877,B3,86.25,0.125,58,26.67
878,E2,86.25,0.5,55,26.67
879,E3,86.25,0.5,55,26.67
880,G#3,86.417,0.125,35,26.67
881,B3,86.417,0.125,35,26.67
882,G#3,86.583,0.125,35,26.67
883,B3,86.583,0.125,35,26.67
884,G#3,86.75,0.125,35,26.67
885,B3,86.75,0.125,35,26.67
886,G#3,86.917,0.125,35,26.67
887,B3,86.917,0.125,35,26.67
888,G#3,87.083,0.125,35,26.67
889,B3,87.083,0.125,35,26.67
890,G#3,87.25,0.125,33,26.67
891,B3,87.25,0.125,33,26.67
892,G#3,87.417,0.125,33,26.67
893,B3,87.417,0.125,33,26.67
894,G#3,87.583,0.125,32,26.67
895,B3,87.583,0.125,32,26.67
896,G#3,87.75,0.125,31,26.67
897,B3,87.75,0.125,31,26.67
898,G#3,87.917,0.125,30,26.67
899,B3,87.917,0.125,30,26.67
900,G#3,88.083,0.125,29,26.67
901,B3,88.083,0.125,29,26.67
902,E4,88.25,0.5,50,26.67
903,G#3,88.25,0.125,26,26.67
904,B3,88.25,0.125,26,26.67
905,E2,88.25,1.0,33,26.67
906,E3,88.25,1.0,33,26.67
907,G#3,88.417,0.125,26,26.67
908,B3,88.417,0.125,26,26.67
909,G#3,88.583,0.125,26,26.67
910,B3,88.583,0.125,26,26.67
911,G#4,88.75,0.5,47,26.67
912,G#3,88.75,0.125,26,26.67
913,B3,88.75,0.125,26,26.67
914,G#3,88.917,0.125,28,26.67
915,B3,88.917,0.125,28,26.67
916,G#3,89.083,0.125,28,26.67
917,B3,89.083,0.125,28,26.67
918,F#4,89.25,0.5,47,26.67
919,G#3,89.25,0.125,28,26.67
920,B3,89.25,0.125,28,26.67
921,G#3,89.417,0.125,28,26.67
922,B3,89.417,0.125,28,26.67
923,G#3,89.583,0.125,28,26.67
924,B3,89.583,0.125,28,26.67
925,E4,89.75,0.5,46,26.67
926,G#3,89.75,0.125,28,26.67
927,B3,89.75,0.125,28,26.67
928,G#3,89.917,0.125,28,26.67
929,B3,89.917,0.125,28,26.67
930,G#3,90.083,0.125,28,26.67
931,B3,90.083,0.125,28,26.67
932,E-4,90.25,0.5,51,26.67
933,F#3,90.25,0.667,36,26.67
934,A3,90.25,0.125,28,26.67
935,B3,90.25,0.125,28,26.67
936,A3,90.417,0.125,28,26.67
937,B3,90.417,0.125,28,26.67
938,A3,90.583,0.125,28,26.67
939,B3,90.583,0.125,28,26.67
940,A4,90.75,0.5,47,26.67
941,A3,90.75,0.125,28,26.67
942,B3,90.75,0.125,28,26.67
943,F#3,90.917,0.167,36,26.67
944,A3,90.917,0.125,28,26.67
945,B3,90.917,0.125,28,26.67
946,F3,91.083,0.167,36,26.67
947,A3,91.083,0.125,28,26.67
948,B3,91.083,0.125,28,26.67
949,F#3,91.25,0.125,36,26.67
950,A3,91.25,0.125,28,26.67
951,B3,91.25,0.125,28,26.67
952,F#3,91.417,0.125,36,26.67
953,A3,91.417,0.125,28,26.67
954,B3,91.417,0.125,28,26.67
955,E3,91.583,0.125,33,26.67
956,A3,91.583,0.125,28,26.67
957,B3,91.583,0.125,28,26.67
958,E-3,91.75,0.125,36,26.67
959,A3,91.75,0.125,28,26.67
960,B3,91.75,0.125,28,26.67
961,C#3,91.917,0.125,32,26.67
962,A3,91.917,0.125,28,26.67
963,B3,91.917,0.125,28,26.67
964,B2,92.083,0.125,32,26.67
965,A3,92.083,0.125,28,26.67
966,B3,92.083,0.125,28,26.67
967,E4,92.25,0.5,50,26.67
968,E3,92.25,1.0,33,26.67
969,G#3,92.25,0.125,26,26.67
970,B3,92.25,0.125,26,26.67
971,G#3,92.417,0.125,26,26.67
972,B3,92.417,0.125,26,26.67
973,G#3,92.583,0.125,26,26.67
974,B3,92.583,0.125,26,26.67
975,G#4,92.75,0.5,47,26.67
976,G#3,92.75,0.125,26,26.67
977,B3,92.75,0.125,26,26.67
978,G#3,92.917,0.125,28,26.67
979,B3,92.917,0.125,28,26.67
980,G#3,93.083,0.125,28,26.67
981,B3,93.083,0.125,28,26.67
982,E4,93.25,0.5,47,26.67
983,G#3,93.25,0.125,28,26.67
984,B3,93.25,0.125,28,26.67
985,G#3,93.417,0.125,28,26.67
986,B3,93.417,0.125,28,26.67
987,G#3,93.583,0.125,28,26.67
988,B3,93.583,0.125,28,26.67
989,E-4,93.75,0.5,46,26.67
990,G#3,93.75,0.125,28,26.67
991,B3,93.75,0.125,28,26.67
992,G#3,93.917,0.125,28,26.67
993,B3,93.917,0.125,28,26.67
994,G#3,94.083,0.125,28,26.67
995,B3,94.083,0.125,28,26.67
996,D4,94.25,1.5,54,26.67
997,D3,94.25,0.125,26,26.67
998,G#3,94.25,0.125,26,26.67
999,B3,94.25,0.125,26,26.67
1000,F1,94.417,0.083,41,26.67
1001,D3,94.417,0.125,26,26.67
1002,G#3,94.417,0.125,26,26.67
1003,B3,94.417,0.125,26,26.67
1004,G#1,94.583,0.083,44,26.67
1005,D3,94.583,0.125,26,26.67
1006,G#3,94.583,0.125,26,26.67
1007,B3,94.583,0.125,26,26.67
1008,B1,94.75,0.083,46,26.67
1009,D3,94.75,0.125,26,26.67
1010,G#3,94.75,0.125,26,26.67
1011,B3,94.75,0.125,26,26.67
1012,D2,94.917,0.083,47,26.67
1013,D3,94.917,0.125,26,26.67
1014,G#3,94.917,0.125,26,26.67
1015,B3,94.917,0.125,26,26.67
1016,F2,95.083,0.083,49,26.67
1017,D3,95.083,0.125,26,26.67
1018,G#3,95.083,0.125,26,26.67
1019,B3,95.083,0.125,26,26.67
1020,G#2,95.25,0.5,51,26.67
1021,D3,95.25,0.125,26,26.67
1022,G#3,95.25,0.125,26,26.67
1023,B3,95.25,0.125,26,26.67
1024,D3,95.417,0.125,26,26.67
1025,G#3,95.417,0.125,26,26.67
1026,B3,95.417,0.125,26,26.67
1027,D3,95.583,0.125,26,26.67
1028,G#3,95.583,0.125,26,26.67
1029,B3,95.583,0.125,26,26.67
1030,D4,95.75,0.5,51,26.67
1031,D3,95.75,0.125,26,26.67
1032,G#3,95.75,0.125,26,26.67
1033,B3,95.75,0.125,26,26.67
1034,D3,95.917,0.125,26,26.67
1035,G#3,95.917,0.125,26,26.67
1036,B3,95.917,0.125,26,26.67
1037,D3,96.083,0.125,26,26.67
1038,G#3,96.083,0.125,26,26.67
1039,B3,96.083,0.125,26,26.67
1040,D4,96.25,1.5,56,26.67
1041,D3,96.25,0.125,27,26.67
1042,G#3,96.25,0.125,27,26.67
1043,B3,96.25,0.125,27,26.67
1044,F1,96.417,0.083,42,26.67
1045,D3,96.417,0.125,27,26.67
1046,G#3,96.417,0.125,27,26.67
1047,B3,96.417,0.125,27,26.67
1048,G#1,96.583,0.083,46,26.67
1049,D3,96.583,0.125,27,26.67
1050,G#3,96.583,0.125,27,26.67
1051,B3,96.583,0.125,27,26.67
1052,B1,96.75,0.083,48,26.67
1053,D3,96.75,0.125,27,26.67
1054,G#3,96.75,0.125,27,26.67
1055,B3,96.75,0.125,27,26.67
1056,D2,96.917,0.083,49,26.67
1057,D3,96.917,0.125,27,26.67
1058,G#3,96.917,0.125,27,26.67
1059,B3,96.917,0.125,27,26.67
1060,F2,97.083,0.083,51,26.67
1061,D3,97.083,0.125,27,26.67
1062,G#3,97.083,0.125,27,26.67
1063,B3,97.083,0.125,27,26.67
1064,G#2,97.25,0.5,53,26.67
1065,D3,97.25,0.125,27,26.67
1066,G#3,97.25,0.125,27,26.67
1067,B3,97.25,0.125,27,26.67
1068,D3,97.417,0.125,27,26.67
1069,G#3,97.417,0.125,27,26.67
1070,B3,97.417,0.125,27,26.67
1071,D3,97.583,0.125,27,26.67
1072,G#3,97.583,0.125,27,26.67
1073,B3,97.583,0.125,27,26.67
1074,D4,97.75,0.5,53,26.67
1075,D3,97.75,0.125,27,26.67
1076,G#3,97.75,0.125,27,26.67
1077,B3,97.75,0.125,27,26.67
1078,D3,97.917,0.125,27,26.67
1079,G#3,97.917,0.125,27,26.67
1080,B3,97.917,0.125,27,26.67
1081,D3,98.083,0.125,27,26.67
1082,G#3,98.083,0.125,27,26.67
1083,B3,98.083,0.125,27,26.67
1084,C#4,98.25,1.5,59,26.67
1085,C#3,98.25,0.125,28,26.67
1086,G#3,98.25,0.125,28,26.67
1087,B-3,98.25,0.125,28,26.67
1088,E2,98.417,0.083,45,26.67
1089,C#3,98.417,0.125,28,26.67
1090,G#3,98.417,0.125,28,26.67
1091,B-3,98.417,0.125,28,26.67
1092,G#2,98.583,0.083,48,26.67
1093,C#3,98.583,0.125,28,26.67
1094,G#3,98.583,0.125,28,26.67
1095,B-3,98.583,0.125,28,26.67
1096,B-2,98.75,0.25,51,26.67
1097,C#3,98.75,0.125,28,26.67
1098,G#3,98.75,0.125,28,26.67
1099,B-3,98.75,0.125,28,26.67
1100,C#3,98.917,0.125,29,26.67
1101,G#3,98.917,0.125,29,26.67
1102,B-3,98.917,0.125,29,26.67
1103,C#3,99.083,0.125,30,26.67
1104,G#3,99.083,0.125,30,26.67
1105,B-3,99.083,0.125,30,26.67
1106,C#3,99.25,0.125,30,26.67
1107,G3,99.25,0.125,30,26.67
1108,B-3,99.25,0.125,30,26.67
1109,E-2,99.417,0.083,57,26.67
1110,C#3,99.417,0.125,30,26.67
1111,G3,99.417,0.125,30,26.67
1112,B-3,99.417,0.125,30,26.67
1113,G2,99.583,0.083,60,26.67
1114,C#3,99.583,0.125,30,26.67
1115,G3,99.583,0.125,30,26.67
1116,B-3,99.583,0.125,30,26.67
1117,C#4,99.75,0.5,72,26.67
1118,B-2,99.75,0.25,64,26.67
1119,E-3,99.75,0.125,29,26.67
1120,C#3,99.75,0.125,29,26.67
1121,G3,99.75,0.125,29,26.67
1122,B-3,99.75,0.125,29,26.67
1123,E-3,99.917,0.125,29,26.67
1124,C#3,99.917,0.125,29,26.67
1125,G3,99.917,0.125,29,26.67
1126,B-3,99.917,0.125,29,26.67
1127,E-3,100.083,0.125,29,26.67
1128,C#3,100.083,0.125,29,26.67
1129,G3,100.083,0.125,29,26.67
1130,B-3,100.083,0.125,29,26.67
1131,C4,100.25,1.0,50,26.67
1132,C3,100.25,0.167,28,26.67
1133,G#1,100.25,1.0,37,26.67
1134,G#2,100.25,1.0,37,26.67
1135,E-3,100.417,0.125,26,26.67
1136,E-3,100.583,0.125,26,26.67
1137,G#3,100.75,0.167,28,26.67
1138,E-3,100.917,0.125,26,26.67
1139,E-3,101.083,0.125,26,26.67
1140,B-3,101.25,1.0,46,26.67
1141,C#3,101.25,1.0,35,26.67
1142,G3,101.25,0.167,28,26.67
1143,E-3,101.417,0.125,26,26.67
1144,E-3,101.583,0.125,26,26.67
1145,G3,101.75,0.167,28,26.67
1146,E-3,101.917,0.125,27,26.67
1147,E-3,102.083,0.125,27,26.67
1148,E-4,102.25,1.5,50,26.67
1149,C3,102.25,1.0,40,26.67
1150,G#3,102.25,0.167,28,26.67
1151,E-3,102.417,0.125,26,26.67
1152,E-3,102.583,0.125,26,26.67
1153,G#3,102.75,0.167,28,26.67
1154,E-3,102.917,0.125,26,26.67
1155,E-3,103.083,0.125,26,26.67
1156,G2,103.25,1.0,37,26.67
1157,B-3,103.25,0.167,28,26.67
1158,E-3,103.417,0.125,25,26.67
1159,E-3,103.583,0.125,25,26.67
1160,C#4,103.75,0.5,48,26.67
1161,B-3,103.75,0.167,25,26.67
1162,E-3,103.917,0.125,25,26.67
1163,E-3,104.083,0.125,25,26.67
1164,C4,104.25,0.5,47,26.67
1165,G#2,104.25,0.5,33,26.67
1166,G#3,104.25,0.167,29,26.67
1167,E-3,104.417,0.125,27,26.67
1168,E-3,104.583,0.125,27,26.67
1169,E-4,104.75,0.5,49,26.67
1170,G2,104.75,0.5,35,26.67
1171,B-3,104.75,0.167,26,26.67
1172,E-3,104.917,0.125,26,26.67
1173,E-3,105.083,0.125,26,26.67
1174,G#4,105.25,0.5,51,26.67
1175,F2,105.25,0.5,38,26.67
1176,C4,105.25,0.167,30,26.67
1177,G#3,105.417,0.125,27,26.67
1178,G#3,105.583,0.125,27,26.67
1179,B-4,105.75,0.5,56,26.67
1180,F3,105.75,0.5,40,26.67
1181,D4,105.75,0.167,27,26.67
1182,G#3,105.917,0.125,27,26.67
1183,G#3,106.083,0.125,25,26.67
1184,E-4,106.25,1.5,50,26.67
1185,E-3,106.25,1.0,36,26.67
1186,G3,106.25,0.167,28,26.67
1187,B-3,106.417,0.125,27,26.67
1188,B-3,106.583,0.125,27,26.67
1189,G3,106.75,0.167,23,26.67
1190,B-3,106.917,0.125,23,26.67
1191,B-3,107.083,0.125,23,26.67
1192,E-2,107.25,1.0,35,26.67
1193,G3,107.25,0.167,28,26.67
1194,B-3,107.417,0.125,26,26.67
1195,B-3,107.583,0.125,26,26.67
1196,E4,107.75,0.5,46,26.67
1197,G3,107.75,0.167,25,26.67
1198,B-3,107.917,0.125,25,26.67
1199,B-3,108.083,0.125,25,26.67
1200,F4,108.25,1.0,50,26.67
1201,C#2,108.25,1.0,40,26.67
1202,G3,108.25,0.167,28,26.67
1203,B-3,108.417,0.125,25,26.67
1204,B-3,108.583,0.125,25,26.67
1205,G3,108.75,0.167,26,26.67
1206,B-3,108.917,0.125,26,26.67
1207,B-3,109.083,0.123,26,26.67
1208,B-3,109.25,0.75,50,26.67
1209,C#3,109.25,1.0,36,26.67
1210,G3,109.25,0.167,28,26.67
1211,E-3,109.417,0.125,26,26.67
1212,E-3,109.583,0.125,26,26.67
1213,G3,109.75,0.167,24,26.67
1214,E-3,109.917,0.125,24,26.67
1215,C4,110.0,0.125,46,26.67
1216,E-3,110.083,0.125,24,26.67
1217,C#4,110.125,0.125,46,26.67
1218,E-4,110.25,1.0,50,26.67
1219,C3,110.25,1.0,40,26.67
1220,G#3,110.25,0.167,28,26.67
1221,E-3,110.417,0.125,26,26.67
1222,E-3,110.583,0.125,26,26.67
1223,G#3,110.75,0.167,27,26.67
1224,E-3,110.917,0.125,25,26.67
1225,E-3,111.083,0.125,25,26.67
1226,A3,111.25,1.0,48,26.67
1227,F2,111.25,1.0,36,26.67
1228,E-3,111.25,0.167,28,26.67
1229,C3,111.417,0.125,25,26.67
1230,C3,111.583,0.125,25,26.67
1231,E-3,111.75,0.167,26,26.67
1232,C3,111.917,0.125,26,26.67
1233,C3,112.083,0.125,26,26.67
1234,C#4,112.25,1.0,50,26.67
1235,B-1,112.25,1.0,40,26.67
1236,F3,112.25,0.167,29,26.67
1237,C#3,112.417,0.125,26,26.67
1238,C#3,112.583,0.125,26,26.67
1239,F3,112.75,0.167,27,26.67
1240,C#3,112.917,0.125,25,26.67
1241,C#3,113.083,0.125,25,26.67
1242,C#4,113.25,0.167,52,26.67
1243,E-2,113.25,1.0,34,26.67
1244,G3,113.25,0.167,30,26.67
1245,C4,113.417,0.167,46,26.67
1246,C#3,113.417,0.125,28,26.67
1247,B-3,113.583,0.167,46,26.67
1248,C#3,113.583,0.125,28,26.67
1249,B-3,113.75,0.167,51,26.67
1250,C#3,113.75,0.125,28,26.67
1251,G#3,113.917,0.167,47,26.67
1252,C#3,113.917,0.125,25,26.67
1253,G3,114.083,0.167,47,26.67
1254,C#3,114.083,0.125,25,26.67
1255,G#1,114.25,0.5,37,26.67
1256,C#3,114.25,0.167,31,26.67
1257,G3,114.25,1.0,45,26.67
1258,B-3,114.25,1.0,45,26.67
1259,E-3,114.417,0.125,28,26.67
1260,E-3,114.583,0.125,28,26.67
1261,G#2,114.75,0.5,29,26.67
1262,C#3,114.75,0.167,28,26.67
1263,E-3,114.917,0.125,25,26.67
1264,E-3,115.083,0.125,25,26.67
1265,G#3,115.25,0.5,50,26.67
1266,C3,115.25,0.125,36,26.67
1267,G#1,115.25,0.5,36,26.67
1268,E-3,115.417,0.125,34,26.67
1269,G#3,115.583,0.125,34,26.67
1270,C4,115.75,0.125,36,26.67
1271,E-4,115.917,0.125,35,26.67
1272,G#4,116.083,0.125,35,26.67
1273,C5,116.25,1.0,50,26.67
1274,C4,116.25,0.167,28,26.67
1275,G#2,116.25,1.0,40,26.67
1276,G#3,116.25,0.167,28,26.67
1277,E-4,116.417,0.125,26,26.67
1278,E-3,116.417,0.125,26,26.67
1279,E-4,116.583,0.125,26,26.67
1280,E-3,116.583,0.125,26,26.67
1281,C4,116.75,0.167,26,26.67
1282,G#3,116.75,0.167,28,26.67
1283,E-4,116.917,0.125,26,26.67
1284,E-3,116.917,0.125,26,26.67
1285,E-4,117.083,0.125,26,26.67
1286,E-3,117.083,0.125,26,26.67
1287,B-4,117.25,1.0,46,26.67
1288,B-3,117.25,0.167,28,26.67
1289,C#3,117.25,1.0,35,26.67
1290,G3,117.25,0.167,28,26.67
1291,E-4,117.417,0.125,26,26.67
1292,E-3,117.417,0.125,26,26.67
1293,E-4,117.583,0.125,26,26.67
1294,E-3,117.583,0.125,26,26.67
1295,B-3,117.75,0.167,26,26.67
1296,G3,117.75,0.167,28,26.67
1297,E-4,117.917,0.125,26,26.67
1298,E-3,117.917,0.125,27,26.67
1299,E-4,118.083,0.125,26,26.67
1300,E-3,118.083,0.125,27,26.67
1301,E-5,118.25,1.5,50,26.67
1302,E-4,118.25,0.167,28,26.67
1303,C3,118.25,1.0,40,26.67
1304,G#3,118.25,0.167,28,26.67
1305,G#4,118.417,0.125,26,26.67
1306,E-3,118.417,0.125,26,26.67
1307,G#4,118.583,0.125,26,26.67
1308,E-3,118.583,0.125,26,26.67
1309,E-4,118.75,0.167,25,26.67
1310,G#3,118.75,0.167,28,26.67
1311,G#4,118.917,0.125,25,26.67
1312,E-3,118.917,0.125,26,26.67
1313,G#4,119.083,0.125,25,26.67
1314,E-3,119.083,0.125,26,26.67
1315,E-4,119.25,0.167,28,26.67
1316,G2,119.25,1.0,37,26.67
1317,G3,119.25,0.167,28,26.67
1318,B-4,119.417,0.125,26,26.67
1319,E-3,119.417,0.125,25,26.67
1320,B-4,119.583,0.125,26,26.67
1321,E-3,119.583,0.125,25,26.67
1322,C#5,119.75,0.5,48,26.67
1323,E-4,119.75,0.167,25,26.67
1324,G3,119.75,0.167,25,26.67
1325,B-4,119.917,0.125,25,26.67
1326,E-3,119.917,0.125,25,26.67
1327,B-4,120.083,0.125,25,26.67
1328,E-3,120.083,0.125,25,26.67
1329,C5,120.25,0.5,47,26.67
1330,E-4,120.25,0.167,29,26.67
1331,G#2,120.25,0.5,33,26.67
1332,G#3,120.25,0.167,29,26.67
1333,G#4,120.417,0.125,27,26.67
1334,E-3,120.417,0.125,27,26.67
1335,G#4,120.583,0.125,26,26.67
1336,E-3,120.583,0.125,27,26.67
1337,E-5,120.75,0.5,49,26.67
1338,E-4,120.75,0.167,26,26.67
1339,G2,120.75,0.5,35,26.67
1340,G3,120.75,0.167,26,26.67
1341,B-4,120.917,0.125,26,26.67
1342,E-3,120.917,0.125,26,26.67
1343,B-4,121.083,0.125,26,26.67
1344,E-3,121.083,0.125,26,26.67
1345,G#5,121.25,0.5,51,26.67
1346,G#4,121.25,0.167,30,26.67
1347,F2,121.25,0.5,38,26.67
1348,F3,121.25,0.167,30,26.67
1349,C5,121.417,0.125,28,26.67
1350,G#2,121.417,0.125,27,26.67
1351,C5,121.583,0.125,28,26.67
1352,G#2,121.583,0.125,27,26.67
1353,B-5,121.75,0.5,56,26.67
1354,G#4,121.75,0.167,27,26.67
1355,F2,121.75,0.5,40,26.67
1356,F3,121.75,0.167,27,26.67
1357,D5,121.917,0.125,27,26.67
1358,G#2,121.917,0.125,27,26.67
1359,D5,122.083,0.125,27,26.67
1360,G#2,122.083,0.125,25,26.67
1361,E-5,122.25,1.5,50,26.67
1362,G4,122.25,0.167,30,26.67
1363,E-2,122.25,0.083,50,26.67
1364,B-4,122.417,0.125,28,26.67
1365,G2,122.417,0.083,44,26.67
1366,B-4,122.583,0.125,28,26.67
1367,B-2,122.583,0.083,45,26.67
1368,G4,122.75,0.167,27,26.67
1369,E-3,122.75,0.083,47,26.67
1370,B-4,122.917,0.125,23,26.67
1371,G3,122.917,0.083,49,26.67
1372,B-4,123.083,0.125,23,26.67
1373,B-3,123.083,0.083,50,26.67
1374,G4,123.25,0.167,32,26.67
1375,E-4,123.25,1.0,52,26.67
1376,B-4,123.417,0.125,28,26.67
1377,B-4,123.583,0.125,28,26.67
1378,E5,123.75,0.5,55,26.67
1379,G4,123.75,0.167,33,26.67
1380,B-4,123.917,0.125,29,26.67
1381,B-4,124.083,0.125,28,26.67
1382,F5,124.25,1.0,59,26.67
1383,G4,124.25,0.167,35,26.67
1384,C#2,124.25,0.083,50,26.67
1385,B-4,124.417,0.125,28,26.67
1386,G2,124.417,0.083,43,26.67
1387,B-4,124.583,0.125,28,26.67
1388,B-2,124.583,0.083,44,26.67
1389,G4,124.75,0.167,32,26.67
1390,C#3,124.75,0.083,46,26.67
1391,B-4,124.917,0.125,26,26.67
1392,G3,124.917,0.083,47,26.67
1393,B-4,125.083,0.123,26,26.67
1394,B-3,125.083,0.083,49,26.67
1395,B-4,125.25,0.75,57,26.67
1396,G4,125.25,0.167,34,26.67
1397,C#4,125.25,1.0,50,26.67
1398,E-4,125.417,0.125,27,26.67
1399,E-4,125.583,0.125,27,26.67
1400,G4,125.75,0.167,33,26.67
1401,E-4,125.917,0.125,27,26.67
1402,C5,126.0,0.125,56,26.67
1403,E-4,126.083,0.125,25,26.67
1404,C#5,126.125,0.125,58,26.67
1405,E-5,126.25,1.0,60,26.67
1406,G#4,126.25,0.167,30,26.67
1407,C4,126.25,1.0,40,26.67
1408,E-4,126.417,0.125,28,26.67
1409,E-4,126.583,0.125,28,26.67
1410,G#4,126.75,0.167,27,26.67
1411,E-4,126.917,0.125,23,26.67
1412,E-4,127.083,0.125,23,26.67
1413,A4,127.25,1.0,48,26.67
1414,E-4,127.25,0.167,28,26.67
1415,F3,127.25,1.0,36,26.67
1416,C4,127.417,0.125,26,26.67
1417,C4,127.583,0.125,26,26.67
1418,E-4,127.75,0.167,28,26.67
1419,C4,127.917,0.125,25,26.67
1420,C4,128.083,0.125,25,26.67
1421,C#5,128.25,1.0,50,26.67
1422,F4,128.25,0.167,29,26.67
1423,B-2,128.25,1.0,40,26.67
1424,C#4,128.417,0.125,28,26.67
1425,C#4,128.583,0.125,27,26.67
1426,F4,128.75,0.167,27,26.67
1427,C#4,128.917,0.125,27,26.67
1428,C#4,129.083,0.125,27,26.67
1429,C#5,129.25,0.167,48,26.67
1430,G4,129.25,0.167,30,26.67
1431,E-2,129.25,0.5,34,26.67
1432,B-2,129.25,0.167,27,26.67
1433,C5,129.417,0.167,47,26.67
1434,C#4,129.417,0.125,28,26.67
1435,E-3,129.417,0.125,25,26.67
1436,B-4,129.583,0.125,47,26.67
1437,C#4,129.583,0.125,28,26.67
1438,E-3,129.583,0.125,25,26.67
1439,B-4,129.75,0.167,48,26.67
1440,C#4,129.75,0.125,28,26.67
1441,E-2,129.75,0.5,30,26.67
1442,G#4,129.917,0.167,46,26.67
1443,C#4,129.917,0.125,28,26.67
1444,E-3,129.917,0.125,25,26.67
1445,G4,130.083,0.167,46,26.67
1446,C#4,130.083,0.125,28,26.67
1447,E-3,130.083,0.125,25,26.67
1448,G#2,130.25,0.167,29,26.67
1449,C4,130.25,0.5,52,26.67
1450,G#4,130.25,0.5,52,26.67
1451,E-3,130.417,0.125,25,26.67
1452,E-3,130.583,0.125,25,26.67
1453,E-3,130.75,0.125,25,26.67
1454,E-3,130.917,0.125,25,26.67
1455,E-3,131.083,0.125,25,26.67
1456,E-3,131.25,0.15,25,26.67
1457,E-3,131.417,0.15,25,26.67
1458,E-3,131.583,0.15,25,26.67
1459,E-5,131.75,0.375,50,26.67
1460,E-3,131.75,0.15,26,26.67
1461,E-3,131.917,0.15,27,26.67
1462,E-3,132.083,0.15,28,26.67
1463,E5,132.125,0.125,50,26.67
1464,F5,132.25,0.667,55,26.67
1465,E-2,132.25,0.15,26,26.67
1466,C#3,132.25,0.15,26,26.67
1467,E-3,132.25,0.15,26,26.67
1468,E-2,132.417,0.15,22,26.67
1469,C#3,132.417,0.15,22,26.67
1470,E-3,132.417,0.15,22,26.67
1471,E-2,132.583,0.15,22,26.67
1472,C#3,132.583,0.15,22,26.67
1473,E-3,132.583,0.15,22,26.67
1474,E-2,132.75,0.15,22,26.67
1475,C#3,132.75,0.15,22,26.67
1476,E-3,132.75,0.15,22,26.67
1477,E-5,132.917,0.167,51,26.67
1478,E-2,132.917,0.15,22,26.67
1479,C#3,132.917,0.15,22,26.67
1480,E-3,132.917,0.15,22,26.67
1481,C#5,133.083,0.167,51,26.67
1482,E-2,133.083,0.15,22,26.67
1483,C#3,133.083,0.15,22,26.67
1484,E-3,133.083,0.15,22,26.67
1485,C5,133.25,0.167,52,26.67
1486,E-2,133.25,0.15,23,26.67
1487,C#3,133.25,0.15,23,26.67
1488,E-3,133.25,0.15,23,26.67
1489,B-4,133.417,0.167,53,26.67
1490,E-2,133.417,0.15,23,26.67
1491,C#3,133.417,0.15,23,26.67
1492,E-3,133.417,0.15,23,26.67
1493,G#4,133.583,0.167,54,26.67
1494,E-2,133.583,0.15,24,26.67
1495,C#3,133.583,0.15,24,26.67
1496,E-3,133.583,0.15,24,26.67
1497,G4,133.75,0.125,58,26.67
1498,E-2,133.75,0.15,22,26.67
1499,C#3,133.75,0.15,22,26.67
1500,E-3,133.75,0.15,22,26.67
1501,C#5,133.875,0.125,53,26.67
1502,E-2,133.917,0.15,22,26.67
1503,C#3,133.917,0.15,22,26.67
1504,E-3,133.917,0.15,22,26.67
1505,B-4,134.0,0.125,51,26.67
1506,E-2,134.083,0.15,22,26.67
1507,C#3,134.083,0.15,22,26.67
1508,E-3,134.083,0.15,22,26.67
1509,G4,134.125,0.125,50,26.67
1510,G#4,134.25,0.167,52,26.67
1511,G#2,134.25,0.15,22,26.67
1512,C3,134.25,0.15,22,26.67
1513,E-3,134.25,0.15,22,26.67
1514,E-3,134.417,0.15,25,26.67
1515,B-4,134.417,1.0,42,26.67
1516,G#4,134.417,1.0,42,26.67
1517,G4,134.525,0.054,39,26.67
1518,G#4,134.583,0.125,44,26.67
1519,E-3,134.583,0.15,25,26.67
1520,C5,134.708,0.042,46,26.67
1521,E-4,134.75,0.5,46,26.67
1522,E-3,134.75,0.15,25,26.67
1523,E-3,134.917,0.15,25,26.67
1524,E-3,135.083,0.15,25,26.67
1525,E-3,135.25,0.15,25,26.67
1526,E-3,135.417,0.15,25,26.67
1527,E-3,135.583,0.15,25,26.67
1528,E-3,135.75,0.15,26,26.67
1529,E-6,135.75,0.375,46,26.67
1530,E-5,135.75,0.375,46,26.67
1531,E-3,135.917,0.15,27,26.67
1532,E-3,136.083,0.15,28,26.67
1533,E6,136.125,0.125,46,26.67
1534,E5,136.125,0.125,46,26.67
1535,F6,136.25,0.667,50,26.67
1536,F5,136.25,0.667,50,26.67
1537,E-2,136.25,0.15,26,26.67
1538,C#3,136.25,0.15,26,26.67
1539,E-3,136.25,0.15,26,26.67
1540,E-2,136.417,0.15,22,26.67
1541,C#3,136.417,0.15,22,26.67
1542,E-3,136.417,0.15,22,26.67
1543,E-2,136.583,0.15,22,26.67
1544,C#3,136.583,0.15,22,26.67
1545,E-3,136.583,0.15,22,26.67
1546,E-2,136.75,0.15,22,26.67
1547,C#3,136.75,0.15,22,26.67
1548,E-3,136.75,0.15,22,26.67
1549,E-6,136.917,0.167,47,26.67
1550,E-5,136.917,0.167,47,26.67
1551,E-2,136.917,0.15,22,26.67
1552,C#3,136.917,0.15,22,26.67
1553,E-3,136.917,0.15,22,26.67
1554,C#6,137.083,0.167,49,26.67
1555,C#5,137.083,0.167,49,26.67
1556,E-2,137.083,0.15,22,26.67
1557,C#3,137.083,0.15,22,26.67
1558,E-3,137.083,0.15,22,26.67
1559,C6,137.25,0.167,49,26.67
1560,C5,137.25,0.167,49,26.67
1561,E-2,137.25,0.15,23,26.67
1562,C#3,137.25,0.15,23,26.67
1563,E-3,137.25,0.15,23,26.67
1564,B-5,137.417,0.167,48,26.67
1565,B-4,137.417,0.167,48,26.67
1566,E-2,137.417,0.15,23,26.67
1567,C#3,137.417,0.15,23,26.67
1568,E-3,137.417,0.15,23,26.67
1569,G#5,137.583,0.167,46,26.67
1570,G#4,137.583,0.167,46,26.67
1571,E-2,137.583,0.15,24,26.67
1572,C#3,137.583,0.15,24,26.67
1573,E-3,137.583,0.15,24,26.67
1574,G4,137.75,0.167,47,26.67
1575,G5,137.75,0.167,47,26.67
1576,E-2,137.75,0.15,22,26.67
1577,C#3,137.75,0.15,22,26.67
1578,E-3,137.75,0.15,22,26.67
1579,C#5,137.917,0.167,46,26.67
1580,C#6,137.917,0.167,46,26.67
1581,E-2,137.917,0.15,22,26.67
1582,C#3,137.917,0.15,22,26.67
1583,E-3,137.917,0.15,22,26.67
1584,G4,138.083,0.167,48,26.67
1585,G5,138.083,0.167,48,26.67
1586,E-2,138.083,0.15,22,26.67
1587,C#3,138.083,0.15,22,26.67
1588,E-3,138.083,0.15,22,26.67
1589,G#5,138.25,0.5,48,26.67
1590,G#4,138.25,0.5,48,26.67
1591,G#2,138.25,0.5,22,26.67
1592,C3,138.25,0.5,22,26.67
1593,E-3,138.25,0.5,22,26.67
1594,E-5,139.188,0.062,52,26.67
1595,C#5,139.25,0.167,63,26.67
1596,E-4,139.25,1.0,46,26.67
1597,G4,139.25,1.0,46,26.67
1598,C5,139.417,0.167,55,26.67
1599,C#5,139.583,0.167,55,26.67
1600,F5,139.75,0.167,58,26.67
1601,E-5,139.917,0.167,55,26.67
1602,C#5,140.083,0.167,54,26.67
1603,C5,140.25,0.5,52,26.67
1604,G#3,140.25,0.5,44,26.67
1605,G#4,140.25,0.5,44,26.67
1606,C5,141.188,0.062,54,26.67
1607,G4,141.25,1.0,47,26.67
1608,B-4,141.25,0.167,64,26.67
1609,E-3,141.25,1.0,44,26.67
1610,C#4,141.25,1.0,44,26.67
1611,A4,141.417,0.167,52,26.67
1612,B-4,141.583,0.167,52,26.67
1613,C#5,141.75,0.167,54,26.67
1614,C5,141.917,0.167,52,26.67
1615,B-4,142.083,0.167,52,26.67
1616,G#4,142.25,0.5,46,26.67
1617,G#3,142.25,0.5,36,26.67
1618,C4,142.25,0.5,36,26.67
1619,C4,143.188,0.062,54,26.67
1620,B-3,143.25,0.167,64,26.67
1621,G3,143.25,1.0,39,26.67
1622,E-2,143.25,1.0,39,26.67
1623,C#3,143.25,1.0,39,26.67
1624,A3,143.417,0.167,48,26.67
1625,B-3,143.583,0.167,48,26.67
1626,C#4,143.75,0.167,50,26.67
1627,C4,143.917,0.167,47,26.67
1628,B-3,144.083,0.167,44,26.67
1629,G#3,144.25,0.25,35,26.67
1630,G#2,144.25,0.25,28,26.67
1631,C3,144.25,0.25,28,26.67
1632,G#1,144.75,0.25,30,26.67
1633,C3,144.75,0.25,30,26.67
1634,E-3,144.75,0.25,30,26.67
1635,G#3,144.75,0.25,30,26.67
1636,G#1,145.25,1.0,30,26.67
1637,G#2,145.25,1.0,30,26.67
1638,C3,145.25,1.0,30,26.67
1639,G#3,145.25,1.0,30,26.67
,note_name,start_time,duration,velocity,tempo
0,G4,2.5,0.25,48,206.99
1,C5,3.0,0.25,49,206.99
2,D5,3.5,0.25,51,206.99
3,E-5,4.0,1.5,52,206.99
4,C3,4.0,0.5,40,206.99
5,E-3,4.5,0.5,36,206.99
6,G3,5.0,0.5,36,206.99
7,F5,5.5,0.5,50,206.99
8,C4,5.5,0.5,36,206.99
9,D5,6.0,1.5,53,206.99
10,C3,6.0,0.5,40,206.99
11,F3,6.5,0.5,40,206.99
12,G3,7.0,0.5,36,206.99
13,E-5,7.5,0.5,50,206.99
14,B3,7.5,0.5,36,206.99
15,C5,8.0,1.875,52,206.99
16,C3,8.0,0.5,40,206.99
17,E-3,8.5,0.5,40,206.99
18,G3,9.0,0.5,36,206.99
19,C4,9.5,0.5,36,206.99
20,D5,9.875,0.125,48,206.99
21,C5,10.0,0.5,52,206.99
22,E-4,10.0,0.5,40,206.99
23,B4,10.5,0.5,51,206.99
24,G4,10.5,0.5,36,206.99
25,C5,11.0,0.5,51,206.99
26,E-4,11.0,0.5,36,206.99
27,D5,11.5,0.375,50,206.99
28,D4,11.5,0.5,36,206.99
29,F5,11.875,0.125,49,206.99
30,E-5,12.0,0.5,56,206.99
31,C4,12.0,0.5,40,206.99
32,D5,12.5,0.5,52,206.99
33,G4,12.5,0.5,36,206.99
34,E-5,13.0,0.5,52,206.99
35,C4,13.0,0.5,36,206.99
36,E-4,13.0,0.5,36,206.99
37,F5,13.5,0.5,52,206.99
38,G4,13.5,0.5,36,206.99
39,G5,14.0,0.5,56,206.99
40,B3,14.0,0.5,41,206.99
41,D4,14.0,0.5,41,206.99
42,G4,14.5,0.5,36,206.99
43,G5,15.0,0.5,55,206.99
44,C4,15.0,0.5,36,206.99
45,G#3,15.0,0.5,36,206.99
46,G4,15.5,0.5,36,206.99
47,G5,16.0,3.0,57,206.99
48,G3,16.0,0.5,40,206.99
49,B3,16.5,0.5,29,206.99
50,D4,17.0,0.5,28,206.99
51,G4,17.5,0.5,28,206.99
52,G3,18.0,0.5,40,206.99
53,B3,18.5,0.5,31,206.99
54,F5,19.0,0.5,51,206.99
55,D4,19.0,0.5,31,206.99
56,G5,19.5,0.25,53,206.99
57,G4,19.5,0.5,31,206.99
58,F5,19.75,0.125,48,206.99
59,G5,19.875,0.125,48,206.99
60,G#5,20.0,2.0,56,206.99
61,F3,20.0,0.5,40,206.99
62,G#3,20.5,0.5,36,206.99
63,B3,21.0,0.5,37,206.99
64,D4,21.5,0.5,37,206.99
65,D5,22.0,1.0,52,206.99
66,F3,22.0,0.5,40,206.99
67,G#3,22.5,0.5,36,206.99
68,E-5,23.0,0.5,51,206.99
69,B3,23.0,0.5,36,206.99
70,F5,23.5,0.25,53,206.99
71,D4,23.5,0.5,36,206.99
72,E-5,23.75,0.125,50,206.99
73,F5,23.875,0.125,50,206.99
74,G5,24.0,2.0,56,206.99
75,E-3,24.0,0.5,40,206.99
76,G3,24.5,0.5,34,206.99
77,C4,25.0,0.5,34,206.99
78,E-4,25.5,0.5,33,206.99
79,C5,26.0,0.988,52,206.99
80,G#3,26.0,0.5,41,206.99
81,C4,26.5,0.5,35,206.99
82,C5,27.0,0.5,53,206.99
83,E-4,27.0,0.5,35,206.99
84,D5,27.5,0.5,54,206.99
85,F#4,27.5,0.5,35,206.99
86,E-5,28.0,0.5,57,206.99
87,G3,28.0,0.5,40,206.99
88,C4,28.5,0.5,40,206.99
89,E-5,29.0,0.5,53,206.99
90,E-4,29.0,0.5,35,206.99
91,F5,29.5,0.5,46,206.99
92,G4,29.5,0.5,35,206.99
93,D5,30.0,0.5,57,206.99
94,G3,30.0,0.5,40,206.99
95,B3,30.5,0.5,36,206.99
96,D5,31.0,0.5,51,206.99
97,D4,31.0,0.5,36,206.99
98,E-5,31.5,0.5,54,206.99
99,G4,31.5,0.5,36,206.99
100,C5,32.0,1.0,57,206.99
101,C3,32.5,0.5,38,206.99
102,E-3,33.0,0.5,42,206.99
103,G3,33.5,0.5,45,206.99
104,C4,34.0,1.0,49,206.99
105,F5,35.0,0.5,56,206.99
106,G5,35.5,0.5,58,206.99
107,G#4,36.0,2.0,56,206.99
108,G#5,36.0,2.0,56,206.99
109,F2,36.5,0.5,43,206.99
110,B2,37.0,0.5,45,206.99
111,D3,37.5,0.5,47,206.99
112,D5,38.0,1.0,57,206.99
113,F3,38.0,0.5,49,206.99
114,G#3,38.5,0.5,43,206.99
115,E-5,39.0,0.5,56,206.99
116,G3,39.0,0.5,43,206.99
117,F5,39.5,0.5,58,206.99
118,F3,39.5,0.5,43,206.99
119,G4,40.0,2.0,56,206.99
120,G5,40.0,2.0,56,206.99
121,E-2,40.5,0.5,40,206.99
122,G2,41.0,0.5,42,206.99
123,C3,41.5,0.5,45,206.99
124,C5,42.0,1.0,57,206.99
125,E-3,42.0,0.5,48,206.99
126,G3,42.5,0.5,40,206.99
127,C5,43.0,0.5,58,206.99
128,G#3,43.0,0.5,39,206.99
129,D5,43.5,0.5,59,206.99
130,F#3,43.5,0.5,39,206.99
131,E-5,44.0,0.5,62,206.99
132,G2,44.0,0.5,48,206.99
133,G3,44.5,0.5,44,206.99
134,E-5,45.0,0.5,58,206.99
135,C4,45.0,0.5,38,206.99
136,F5,45.5,0.5,60,206.99
137,G3,45.5,0.5,38,206.99
138,D5,46.0,0.5,62,206.99
139,G2,46.0,0.5,48,206.99
140,G3,46.5,0.5,39,206.99
141,D5,47.0,0.5,56,206.99
142,B3,47.0,0.5,39,206.99
143,E-5,47.5,0.5,59,206.99
144,G3,47.5,0.5,39,206.99
145,C5,48.0,0.5,62,206.99
146,C3,48.0,0.5,52,206.99
147,C4,48.5,0.5,45,206.99
148,B-5,49.0,2.0,74,206.99
149,B3,49.0,0.5,45,206.99
150,C4,49.5,0.5,45,206.99
151,E3,50.0,0.5,52,206.99
152,C4,50.5,0.5,48,206.99
153,B-5,51.0,1.5,73,206.99
154,G3,51.0,0.5,48,206.99
155,C4,51.5,0.5,48,206.99
156,F3,52.0,0.5,53,206.99
157,G#5,52.5,0.5,71,206.99
158,C4,52.5,0.5,49,206.99
159,G5,53.0,0.5,72,206.99
160,G#3,53.0,0.5,50,206.99
161,F5,53.5,0.5,72,206.99
162,C4,53.5,0.5,49,206.99
163,E-5,54.0,0.5,71,206.99
164,G3,54.0,0.5,54,206.99
165,D5,54.5,0.5,71,206.99
166,F4,54.5,0.5,52,206.99
167,C5,55.0,0.5,71,206.99
168,B3,55.0,0.5,46,206.99
169,B4,55.5,0.5,71,206.99
170,F4,55.5,0.5,50,206.99
171,C5,56.0,0.5,73,206.99
172,G#3,56.0,0.5,54,206.99
173,E-4,56.5,0.5,47,206.99
174,C4,57.0,0.5,47,206.99
175,C5,57.0,2.0,73,206.99
176,C6,57.0,2.0,73,206.99
177,E-4,57.5,0.5,47,206.99
178,G3,58.0,0.5,62,206.99
179,E4,58.5,0.5,54,206.99
180,B-5,59.0,1.5,80,206.99
181,C4,59.0,0.5,55,206.99
182,E4,59.5,0.5,55,206.99
183,F3,60.0,0.5,64,206.99
184,G#5,60.5,0.5,81,206.99
185,F4,60.5,0.5,57,206.99
186,G5,61.0,0.5,82,206.99
187,C4,61.0,0.5,58,206.99
188,F5,61.5,0.5,81,206.99
189,F4,61.5,0.5,57,206.99
190,E-5,62.0,0.5,79,206.99
191,G3,62.0,0.5,63,206.99
192,D5,62.5,0.5,79,206.99
193,G4,62.5,0.5,57,206.99
194,C5,63.0,0.5,79,206.99
195,G3,63.0,0.5,57,206.99
196,B4,63.5,0.5,78,206.99
197,G4,63.5,0.5,56,206.99
198,C5,64.0,0.5,89,206.99
199,C4,64.0,0.5,68,206.99
200,D5,65.0,0.167,81,206.99
201,G3,65.0,0.5,62,206.99
202,B3,65.0,0.5,62,206.99
203,E-5,65.167,0.167,81,206.99
204,D5,65.333,0.167,81,206.99
205,E-5,65.5,0.125,81,206.99
206,D5,65.625,0.125,81,206.99
207,C5,65.75,0.125,80,206.99
208,D5,65.875,0.125,80,206.99
209,E-5,66.0,0.5,92,206.99
210,C3,66.0,0.5,62,206.99
211,C4,66.0,0.5,62,206.99
212,B4,67.0,0.5,92,206.99
213,D5,67.0,0.5,92,206.99
214,B5,67.0,0.5,92,206.99
215,G2,67.0,0.5,62,206.99
216,G3,67.0,0.5,62,206.99
217,C5,68.0,0.5,92,206.99
218,E-5,68.0,0.5,92,206.99
219,C6,68.0,0.5,92,206.99
220,C2,68.0,0.5,69,206.99
221,C3,68.0,0.5,69,206.99
222,G3,72.0,4.0,77,206.99
223,C4,72.0,4.0,77,206.99
224,E4,72.0,4.0,77,206.99
225,B-1,72.0,4.0,64,206.99
226,B-2,72.0,4.0,64,206.99
227,F4,76.0,0.5,50,206.99
228,G#1,76.0,1.0,62,206.99
229,G#2,76.0,1.0,62,206.99
230,C5,76.5,0.5,51,206.99
231,G#4,77.0,0.5,53,206.99
232,F5,77.5,0.5,54,206.99
233,C5,78.0,0.5,55,206.99
234,G#5,78.5,0.5,56,206.99
235,F5,79.0,0.5,57,206.99
236,C6,79.5,0.5,59,206.99
237,B-5,80.0,0.5,59,206.99
238,G5,80.5,0.5,59,206.99
239,E5,81.0,0.5,58,206.99
240,E3,81.0,1.0,50,206.99
241,C4,81.0,1.0,50,206.99
242,C5,81.5,0.5,57,206.99
243,B-4,82.0,0.5,56,206.99
244,E3,82.0,1.0,50,206.99
245,C4,82.0,1.0,50,206.99
246,B4,82.5,0.5,55,206.99
247,C5,83.0,0.5,55,206.99
248,E3,83.0,1.0,50,206.99
249,C4,83.0,1.0,50,206.99
250,G4,83.5,0.5,54,206.99
251,B-4,84.0,2.0,60,206.99
252,F3,84.0,3.0,50,206.99
253,C4,84.0,3.0,50,206.99
254,G#4,86.0,1.0,56,206.99
255,F3,88.0,4.0,77,206.99
256,B-3,88.0,4.0,77,206.99
257,D4,88.0,4.0,77,206.99
258,G#1,88.0,4.0,64,206.99
259,G#2,88.0,4.0,64,206.99
260,E-4,92.0,0.5,50,206.99
261,G1,92.0,1.0,62,206.99
262,G2,92.0,1.0,62,206.99
263,B-4,92.5,0.5,51,206.99
264,G4,93.0,0.5,53,206.99
265,E-5,93.5,0.5,54,206.99
266,B-4,94.0,0.5,55,206.99
267,G5,94.5,0.5,56,206.99
268,E-5,95.0,0.5,57,206.99
269,B-5,95.5,0.5,59,206.99
270,G#5,96.0,0.5,59,206.99
271,G5,96.5,0.5,59,206.99
272,F5,97.0,0.5,58,206.99
273,D3,97.0,1.0,50,206.99
274,B-3,97.0,1.0,50,206.99
275,E-5,97.5,0.5,57,206.99
276,D5,98.0,0.5,56,206.99
277,D3,98.0,1.0,50,206.99
278,B-3,98.0,1.0,50,206.99
279,C5,98.5,0.5,55,206.99
280,B-4,99.0,0.5,55,206.99
281,D3,99.0,1.0,50,206.99
282,B-3,99.0,1.0,50,206.99
283,G#4,99.5,0.5,54,206.99
284,G4,100.0,0.5,60,206.99
285,E-3,100.0,0.5,46,206.99
286,B-3,100.5,0.5,31,206.99
287,B-4,101.0,2.0,60,206.99
288,E-4,101.0,0.5,31,206.99
289,B-3,101.5,0.5,31,206.99
290,G#3,102.0,0.5,42,206.99
291,B-3,102.5,0.5,30,206.99
292,B-4,103.0,1.5,56,206.99
293,D4,103.0,0.5,30,206.99
294,B-3,103.5,0.5,30,206.99
295,G3,104.0,0.5,42,206.99
296,C5,104.5,0.5,54,206.99
297,B-3,104.5,0.5,33,206.99
298,D5,105.0,0.5,55,206.99
299,E-4,105.0,0.5,33,206.99
300,E-5,105.5,0.5,57,206.99
301,B-3,105.5,0.5,34,206.99
302,F5,106.0,0.5,58,206.99
303,D3,106.0,0.5,41,206.99
304,G5,106.5,0.5,60,206.99
305,B-3,106.5,0.5,33,206.99
306,G#5,107.0,0.5,61,206.99
307,D4,107.0,0.5,33,206.99
308,F5,107.5,0.5,58,206.99
309,B-3,107.5,0.5,33,206.99
310,G#5,108.0,0.5,61,206.99
311,E-3,108.0,0.5,40,206.99
312,G5,108.5,0.5,60,206.99
313,B-3,108.5,0.5,35,206.99
314,F5,109.0,0.5,59,206.99
315,E-4,109.0,0.5,35,206.99
316,E-5,109.5,0.458,58,206.99
317,B-3,109.5,0.5,35,206.99
318,E-5,110.0,0.5,60,206.99
319,G#3,110.0,0.5,40,206.99
320,D5,110.5,0.5,58,206.99
321,B-3,110.5,0.5,35,206.99
322,C5,111.0,0.5,58,206.99
323,F4,111.0,0.5,36,206.99
324,D5,111.5,0.5,58,206.99
325,B-3,111.5,0.5,36,206.99
326,F5,112.0,0.5,63,206.99
327,G3,112.0,0.5,40,206.99
328,E-5,112.5,0.5,57,206.99
329,B-3,112.5,0.5,35,206.99
330,D5,113.0,0.5,57,206.99
331,E-4,113.0,0.5,36,206.99
332,C5,113.5,0.5,57,206.99
333,B-3,113.5,0.5,36,206.99
334,D3,114.0,0.5,40,206.99
335,G#4,114.0,0.9,60,206.99
336,B-4,114.0,0.9,60,206.99
337,B-3,114.5,0.5,34,206.99
338,D3,115.0,0.5,34,206.99
339,G#4,115.0,0.9,60,206.99
340,B-4,115.0,0.9,60,206.99
341,B-3,115.5,0.5,34,206.99
342,G#4,116.0,0.5,60,206.99
343,B-4,116.0,4.5,60,206.99
344,E-3,116.0,0.5,41,206.99
345,G4,116.5,0.5,53,206.99
346,B-3,116.5,0.5,34,206.99
347,F4,117.0,0.5,53,206.99
348,E-3,117.0,0.5,34,206.99
349,E-4,117.5,0.458,53,206.99
350,B-3,117.5,0.5,34,206.99
351,E-4,118.0,0.5,57,206.99
352,G#3,118.0,0.5,40,206.99
353,D4,118.5,0.5,52,206.99
354,B-3,118.5,0.5,34,206.99
355,C4,119.0,0.5,52,206.99
356,G#3,119.0,0.5,34,206.99
357,D4,119.5,0.5,52,206.99
358,B-3,119.5,0.5,34,206.99
359,E-4,120.0,0.5,55,206.99
360,F#3,120.0,0.5,40,206.99
361,C5,120.5,0.5,56,206.99
362,B-3,120.5,0.5,36,206.99
363,D5,121.0,0.5,58,206.99
364,F#3,121.0,0.5,37,206.99
365,E-5,121.5,0.5,59,206.99
366,B-3,121.5,0.5,37,206.99
367,F5,122.0,0.5,61,206.99
368,D3,122.0,0.5,41,206.99
369,F#5,122.5,0.5,63,206.99
370,B-3,122.5,0.5,36,206.99
371,G#5,123.0,0.5,64,206.99
372,D3,123.0,0.5,36,206.99
373,F5,123.5,0.5,62,206.99
374,B-3,123.5,0.5,36,206.99
375,F#5,124.0,1.0,65,206.99
376,E-3,124.0,0.5,39,206.99
377,B-3,124.5,0.5,39,206.99
378,B-5,125.0,1.979,72,206.99
379,F#3,125.0,0.5,41,206.99
380,B-3,125.5,0.5,41,206.99
381,B-2,126.0,0.5,42,206.99
382,B-3,126.5,0.5,43,206.99
383,B-5,127.0,2.0,74,206.99
384,D3,127.0,0.5,44,206.99
385,B-3,127.5,0.5,45,206.99
386,B2,128.0,0.5,45,206.99
387,B-3,128.5,0.5,47,206.99
388,E-6,129.0,2.0,91,206.99
389,E-3,129.0,0.5,51,206.99
390,B-3,129.5,0.5,54,206.99
391,B2,130.0,0.5,58,206.99
392,A3,130.5,0.5,49,206.99
393,A5,131.0,1.0,78,206.99
394,E-3,131.0,0.5,49,206.99
395,A3,131.5,0.5,49,206.99
396,B-5,132.0,2.333,60,206.99
397,B-2,132.0,1.0,60,206.99
398,B-3,133.0,0.5,49,206.99
399,D4,133.0,0.5,49,206.99
400,F4,133.0,0.5,49,206.99
401,B-3,134.0,2.0,63,206.99
402,F#4,134.0,2.0,63,206.99
403,E-4,134.0,2.0,63,206.99
404,A5,134.333,0.333,49,206.99
405,B-5,134.667,0.333,51,206.99
406,C6,135.0,0.333,53,206.99
407,B-5,135.333,0.333,50,206.99
408,A5,135.667,0.333,50,206.99
409,B-5,136.0,2.333,50,206.99
410,B-3,137.0,0.5,49,206.99
411,D4,137.0,0.5,49,206.99
412,F4,137.0,0.5,49,206.99
413,B-3,138.0,2.0,63,206.99
414,F#4,138.0,2.0,63,206.99
415,E-4,138.0,2.0,63,206.99
416,A5,138.333,0.333,49,206.99
417,B-5,138.667,0.333,51,206.99
418,C6,139.0,0.333,53,206.99
419,B-5,139.333,0.333,50,206.99
420,A5,139.667,0.333,50,206.99
421,B-3,140.0,1.0,49,206.99
422,D4,140.0,1.0,49,206.99
423,F4,140.0,1.0,49,206.99
424,B-5,140.333,0.333,54,206.99
425,C6,140.667,0.333,56,206.99
426,D6,141.0,0.333,58,206.99
427,C6,141.333,0.333,55,206.99
428,B-5,141.667,0.333,52,206.99
429,B-3,142.0,1.0,49,206.99
430,F4,142.0,1.0,49,206.99
431,G#4,142.0,1.0,49,206.99
432,D6,142.333,0.333,54,206.99
433,E-6,142.667,0.333,57,206.99
434,F6,143.0,0.333,59,206.99
435,E-6,143.333,0.333,57,206.99
436,D6,143.667,0.333,55,206.99
437,F6,144.0,0.333,63,206.99
438,B-3,144.0,1.0,48,206.99
439,D4,144.0,1.0,48,206.99
440,F4,144.0,1.0,48,206.99
441,G#4,144.0,1.0,48,206.99
442,E-6,144.333,0.333,63,206.99
443,D6,144.667,0.333,62,206.99
444,C6,145.0,0.333,61,206.99
445,B-5,145.333,0.333,60,206.99
446,G#5,145.667,0.333,59,206.99
447,G5,146.0,0.333,59,206.99
448,F5,146.333,0.333,58,206.99
449,E-5,146.667,0.333,57,206.99
450,D5,147.0,0.25,56,206.99
451,C5,147.25,0.25,56,206.99
452,B-4,147.5,0.25,55,206.99
453,G#4,147.75,0.25,54,206.99
454,G4,148.0,0.354,59,206.99
455,E-3,148.0,1.0,55,206.99
456,E-4,148.333,0.354,55,206.99
457,F4,148.667,0.354,55,206.99
458,G4,149.0,0.354,59,206.99
459,F4,149.333,0.354,55,206.99
460,E-4,149.667,0.354,55,206.99
461,G#4,150.0,2.0,59,206.99
462,B-3,150.333,0.354,45,206.99
463,C4,150.667,0.354,48,206.99
464,D4,151.0,0.354,50,206.99
465,C4,151.333,0.354,48,206.99
466,B-3,151.667,0.354,45,206.99
467,G4,152.0,0.354,59,206.99
468,E-4,152.0,1.0,55,206.99
469,E-5,152.333,0.354,55,206.99
470,F5,152.667,0.354,55,206.99
471,G5,153.0,0.354,59,206.99
472,F5,153.333,0.354,55,206.99
473,E-5,153.667,0.354,55,206.99
474,G#5,154.0,2.0,59,206.99
475,B-3,154.333,0.354,43,206.99
476,C4,154.667,0.354,47,206.99
477,D4,155.0,0.354,50,206.99
478,C4,155.333,0.354,48,206.99
479,B-3,155.667,0.354,45,206.99
480,G5,156.0,0.333,59,206.99
481,E-4,156.0,1.0,55,206.99
482,E-5,156.333,0.333,59,206.99
483,F5,156.667,0.333,59,206.99
484,G5,157.0,0.333,64,206.99
485,F5,157.333,0.333,57,206.99
486,E-5,157.667,0.333,58,206.99
487,B-5,158.0,0.333,67,206.99
488,E-4,158.0,1.0,55,206.99
489,G5,158.333,0.333,59,206.99
490,G#5,158.667,0.333,59,206.99
491,B-5,159.0,0.333,62,206.99
492,G#5,159.333,0.333,65,206.99
493,G5,159.667,0.333,67,206.99
494,C#6,160.0,0.354,69,206.99
495,C#4,160.0,1.0,55,206.99
496,G3,160.0,1.0,55,206.99
497,B-3,160.0,1.0,55,206.99
498,E-4,160.0,1.0,55,206.99
499,C6,160.333,0.354,68,206.99
500,B-5,160.667,0.354,67,206.99
501,G#5,161.0,0.354,66,206.99
502,G5,161.333,0.354,65,206.99
503,F5,161.667,0.354,63,206.99
504,E-5,162.0,0.354,59,206.99
505,D5,162.333,0.354,55,206.99
506,E-5,162.667,0.354,55,206.99
507,E5,163.0,0.354,59,206.99
508,F5,163.333,0.354,56,206.99
509,C#5,163.667,0.354,56,206.99
510,G#2,164.0,0.333,52,206.99
511,C3,164.333,0.333,54,206.99
512,E-3,164.667,0.333,56,206.99
513,C4,165.0,0.333,57,206.99
514,G#3,165.0,1.0,59,206.99
515,E-4,165.333,0.333,59,206.99
516,G#4,165.667,0.333,62,206.99
517,C5,166.0,0.333,64,206.99
518,E-5,166.333,0.333,66,206.99
519,G#5,166.667,0.333,68,206.99
520,C6,167.0,0.25,70,206.99
521,C6,167.5,0.25,70,206.99
522,C6,168.0,0.5,70,206.99
523,B-3,168.0,1.0,51,206.99
524,E-4,168.0,1.0,51,206.99
525,G4,168.0,1.0,51,206.99
526,B-5,168.5,0.5,68,206.99
527,G#5,169.0,0.25,66,206.99
528,G5,169.5,0.25,64,206.99
529,G5,170.0,0.5,65,206.99
530,B-3,170.0,1.0,52,206.99
531,F4,170.0,1.0,52,206.99
532,G#4,170.0,1.0,52,206.99
533,F5,170.5,0.5,63,206.99
534,E-5,171.0,0.25,61,206.99
535,D5,171.5,0.25,59,206.99
536,E-5,172.0,1.0,63,206.99
537,E-4,172.0,1.0,54,206.99
538,G4,172.0,1.0,54,206.99
539,B-3,175.0,0.979,45,206.99
540,D4,176.0,0.5,41,206.99
541,F4,176.0,0.5,41,206.99
542,B-3,176.0,0.5,36,206.99
543,G#3,176.0,0.5,36,206.99
544,D4,177.0,0.5,42,206.99
545,F4,177.0,0.5,42,206.99
546,G#3,177.0,0.5,37,206.99
547,B-3,177.0,0.5,37,206.99
548,D4,178.0,0.5,42,206.99
549,F4,178.0,0.5,42,206.99
550,B-3,178.0,0.5,38,206.99
551,G#3,178.0,0.5,38,206.99
552,D4,179.0,0.5,42,206.99
553,F4,179.0,0.5,42,206.99
554,G#3,179.0,0.5,40,206.99
555,B-3,179.0,0.5,40,206.99
556,E-4,180.0,3.0,44,206.99
557,B-4,180.0,3.0,44,206.99
558,G3,180.0,3.0,41,206.99
559,B-3,180.0,3.0,41,206.99
560,G3,183.0,1.0,42,206.99
561,E-4,183.0,1.0,46,206.99
562,B-4,183.0,1.0,46,206.99
563,C4,184.0,2.0,45,206.99
564,E-4,184.0,2.0,44,206.99
565,G#4,184.0,2.0,44,206.99
566,B3,186.0,2.0,43,206.99
567,F4,186.0,2.0,40,206.99
568,E-4,186.0,2.0,40,206.99
569,A4,186.0,2.0,40,206.99
570,B-3,188.0,3.0,43,206.99
571,D4,188.0,3.0,41,206.99
572,F4,188.0,3.0,41,206.99
573,B-4,188.0,3.0,41,206.99
574,B-4,191.0,0.979,50,206.99
575,B-4,192.0,0.5,46,206.99
576,F5,192.0,0.5,46,206.99
577,D4,192.0,0.5,40,206.99
578,G#3,192.0,0.5,40,206.99
579,B-4,193.0,0.5,49,206.99
580,F5,193.0,0.5,49,206.99
581,G#3,193.0,0.5,43,206.99
582,D4,193.0,0.5,43,206.99
583,B-4,194.0,0.5,52,206.99
584,F5,194.0,0.5,52,206.99
585,D4,194.0,0.5,46,206.99
586,G#3,194.0,0.5,46,206.99
587,B-4,195.0,0.5,54,206.99
588,F5,195.0,0.5,54,206.99
589,G#3,195.0,0.5,50,206.99
590,D4,195.0,0.5,50,206.99
591,B-4,196.0,2.0,73,206.99
592,B-5,196.0,3.0,73,206.99
593,G3,196.0,4.0,55,206.99
594,E-4,196.0,4.0,55,206.99
595,C#5,198.0,2.0,80,206.99
596,B5,199.0,1.0,72,206.99
597,C5,200.0,1.0,80,206.99
598,C6,200.0,1.0,80,206.99
599,G#3,200.0,1.0,66,206.99
600,E-4,200.0,1.0,66,206.99
601,F4,202.0,1.0,78,206.99
602,G#4,202.0,1.0,78,206.99
603,D5,202.0,1.0,78,206.99
604,B-2,202.0,1.0,66,206.99
605,B-3,202.0,1.0,66,206.99
606,G4,204.0,1.0,52,206.99
607,E-5,204.0,1.0,52,206.99
608,E-4,204.333,0.354,55,206.99
609,F4,204.667,0.354,55,206.99
610,G4,205.0,0.354,59,206.99
611,F4,205.333,0.354,55,206.99
612,E-4,205.667,0.354,55,206.99
613,G#4,206.0,2.0,59,206.99
614,B-4,206.333,0.354,54,206.99
615,C5,206.667,0.354,56,206.99
616,D5,207.0,0.354,57,206.99
617,C5,207.333,0.354,54,206.99
618,B-4,207.667,0.354,51,206.99
619,E-5,208.0,1.0,55,206.99
620,G4,208.0,0.354,59,206.99
621,E-4,208.333,0.354,55,206.99
622,F4,208.667,0.354,55,206.99
623,G4,209.0,0.354,59,206.99
624,F4,209.333,0.354,55,206.99
625,E-4,209.667,0.354,55,206.99
626,G#4,210.0,2.0,59,206.99
627,B-4,210.333,0.354,54,206.99
628,C5,210.667,0.354,56,206.99
629,D5,211.0,0.354,57,206.99
630,C5,211.333,0.354,54,206.99
631,B-4,211.667,0.354,51,206.99
632,E-5,212.0,0.333,56,206.99
633,G4,212.0,0.5,55,206.99
634,E-4,212.0,0.5,55,206.99
635,G5,212.333,0.333,59,206.99
636,F5,212.667,0.333,52,206.99
637,E-5,213.0,0.333,59,206.99
638,C4,213.012,0.5,52,206.99
639,D5,213.333,0.333,57,206.99
640,C5,213.667,0.333,58,206.99
641,B4,214.0,0.333,54,206.99
642,G#3,214.0,0.5,52,206.99
643,C5,214.333,0.333,54,206.99
644,B-4,214.667,0.333,53,206.99
645,G#4,215.0,0.333,53,206.99
646,B-3,215.0,0.5,52,206.99
647,G4,215.333,0.333,52,206.99
648,F4,215.667,0.333,52,206.99
649,E-4,216.0,1.0,55,206.99
650,E-2,216.333,0.354,49,206.99
651,F2,216.667,0.354,49,206.99
652,G2,217.0,0.354,53,206.99
653,F2,217.333,0.354,49,206.99
654,E-2,217.667,0.354,49,206.99
655,G#2,218.0,2.0,70,206.99
656,B-3,218.333,0.354,54,206.99
657,C4,218.667,0.354,56,206.99
658,D4,219.0,0.354,57,206.99
659,C4,219.333,0.354,54,206.99
660,B-3,219.667,0.354,51,206.99
661,E-4,220.0,1.0,55,206.99
662,G2,220.0,0.354,53,206.99
663,E-2,220.333,0.354,49,206.99
664,F2,220.667,0.354,49,206.99
665,G2,221.0,0.354,53,206.99
666,F2,221.333,0.354,49,206.99
667,E-2,221.667,0.354,49,206.99
668,G#2,222.0,2.0,70,206.99
669,B-3,222.333,0.354,54,206.99
670,C4,222.667,0.354,56,206.99
671,D4,223.0,0.354,57,206.99
672,C4,223.333,0.354,54,206.99
673,B-3,223.667,0.354,51,206.99
674,E-4,224.0,1.0,55,206.99
675,G2,224.0,0.354,53,206.99
676,E-2,224.333,0.354,49,206.99
677,F2,224.667,0.354,49,206.99
678,G2,225.0,0.354,53,206.99
679,F2,225.333,0.354,49,206.99
680,E-2,225.667,0.354,49,206.99
681,G#2,226.0,6.0,70,206.99
682,B3,226.333,0.354,54,206.99
683,C4,226.667,0.354,56,206.99
684,D4,227.0,0.354,57,206.99
685,C4,227.333,0.354,54,206.99
686,B3,227.667,0.354,51,206.99
687,F4,228.0,0.354,64,206.99
688,E-4,228.338,0.354,54,206.99
689,D4,228.669,0.333,58,206.99
690,G#4,228.985,0.354,66,206.99
691,G4,229.338,0.354,58,206.99
692,F4,229.669,0.333,61,206.99
693,D5,230.0,0.354,70,206.99
694,C5,230.331,0.354,60,206.99
695,B4,230.669,0.333,64,206.99
696,F5,231.012,0.354,74,206.99
697,E-5,231.331,0.354,64,206.99
698,D5,231.669,0.333,68,206.99
699,F6,232.0,3.0,100,206.99
700,G1,232.0,8.0,78,206.99
701,G2,232.0,8.0,78,206.99
702,E-6,235.0,0.333,86,206.99
703,D6,235.333,0.333,85,206.99
704,C6,235.667,0.333,83,206.99
705,B5,236.0,0.333,82,206.99
706,G#5,236.333,0.333,81,206.99
707,G5,236.667,0.333,79,206.99
708,F5,237.0,0.333,78,206.99
709,E-5,237.333,0.333,77,206.99
710,D5,237.667,0.333,75,206.99
711,C5,238.0,0.333,74,206.99
712,B4,238.333,0.333,72,206.99
713,G#4,238.667,0.333,71,206.99
714,G4,239.0,0.2,70,206.99
715,F4,239.2,0.2,68,206.99
716,E-4,239.4,0.2,69,206.99
717,D4,239.6,0.2,70,206.99
718,C4,239.8,0.2,71,206.99
719,B3,240.0,6.0,93,206.99
720,G2,240.0,6.0,73,206.99
721,D3,240.0,6.0,73,206.99
722,F3,240.0,6.0,73,206.99
723,G4,246.5,0.25,48,206.99
724,C5,247.0,0.25,49,206.99
725,D5,247.5,0.25,51,206.99
726,E-5,248.0,1.5,52,206.99
727,C3,248.0,0.5,40,206.99
728,E-3,248.5,0.5,36,206.99
729,G3,249.0,0.5,36,206.99
730,F5,249.5,0.5,50,206.99
731,C4,249.5,0.5,36,206.99
732,D5,250.0,1.5,53,206.99
733,C3,250.0,0.5,40,206.99
734,F3,250.5,0.5,40,206.99
735,G3,251.0,0.5,36,206.99
736,E-5,251.5,0.5,50,206.99
737,B3,251.5,0.5,36,206.99
738,C5,252.0,1.875,52,206.99
739,C3,252.0,0.5,40,206.99
740,E-3,252.5,0.5,40,206.99
741,G3,253.0,0.5,36,206.99
742,C4,253.5,0.5,36,206.99
743,D5,253.875,0.125,48,206.99
744,C5,254.0,0.5,52,206.99
745,E-4,254.0,0.5,40,206.99
746,B4,254.5,0.5,51,206.99
747,G4,254.5,0.5,36,206.99
748,C5,255.0,0.5,51,206.99
749,E-4,255.0,0.5,36,206.99
750,D5,255.5,0.375,50,206.99
751,D4,255.5,0.5,36,206.99
752,F5,255.875,0.125,49,206.99
753,E-5,256.0,0.5,56,206.99
754,C4,256.0,0.5,40,206.99
755,D5,256.5,0.5,52,206.99
756,G4,256.5,0.5,36,206.99
757,E-5,257.0,0.5,52,206.99
758,C4,257.0,0.5,36,206.99
759,E-4,257.0,0.5,36,206.99
760,F5,257.5,0.5,52,206.99
761,G4,257.5,0.5,36,206.99
762,G5,258.0,0.5,56,206.99
763,B3,258.0,0.5,41,206.99
764,D4,258.0,0.5,41,206.99
765,G4,258.5,0.5,36,206.99
766,G5,259.0,0.5,55,206.99
767,C4,259.0,0.5,36,206.99
768,G#3,259.0,0.5,36,206.99
769,G4,259.5,0.5,36,206.99
770,G5,260.0,3.0,57,206.99
771,G3,260.0,0.5,40,206.99
772,B3,260.5,0.5,29,206.99
773,D4,261.0,0.5,28,206.99
774,G4,261.5,0.5,28,206.99
775,G3,262.0,0.5,40,206.99
776,B3,262.5,0.5,31,206.99
777,F5,263.0,0.5,51,206.99
778,D4,263.0,0.5,31,206.99
779,G5,263.5,0.25,53,206.99
780,G4,263.5,0.5,31,206.99
781,F5,263.75,0.125,48,206.99
782,G5,263.875,0.125,48,206.99
783,G#5,264.0,2.0,56,206.99
784,F3,264.0,0.5,40,206.99
785,G#3,264.5,0.5,36,206.99
786,B3,265.0,0.5,37,206.99
787,D4,265.5,0.5,37,206.99
788,D5,266.0,1.0,52,206.99
789,F3,266.0,0.5,40,206.99
790,G#3,266.5,0.5,36,206.99
791,E-5,267.0,0.5,51,206.99
792,B3,267.0,0.5,36,206.99
793,F5,267.5,0.25,53,206.99
794,D4,267.5,0.5,36,206.99
795,E-5,267.75,0.125,50,206.99
796,F5,267.875,0.125,50,206.99
797,G5,268.0,2.0,56,206.99
798,E-3,268.0,0.5,40,206.99
799,G3,268.5,0.5,34,206.99
800,C4,269.0,0.5,34,206.99
801,E-4,269.5,0.5,33,206.99
802,C5,270.0,0.979,52,206.99
803,G#3,270.0,0.5,41,206.99
804,C4,270.5,0.5,35,206.99
805,C5,271.0,0.5,53,206.99
806,E-4,271.0,0.5,35,206.99
807,D5,271.5,0.5,54,206.99
808,F#4,271.5,0.5,35,206.99
809,E-5,272.0,0.5,57,206.99
810,G3,272.0,0.5,40,206.99
811,C4,272.5,0.5,40,206.99
812,E-5,273.0,0.5,53,206.99
813,E-4,273.0,0.5,35,206.99
814,F5,273.5,0.5,55,206.99
815,G4,273.5,0.5,35,206.99
816,D5,274.0,0.5,57,206.99
817,G3,274.0,0.5,40,206.99
818,B3,274.5,0.5,36,206.99
819,D5,275.0,0.5,51,206.99
820,D4,275.0,0.5,36,206.99
821,E-5,275.5,0.5,54,206.99
822,G4,275.5,0.5,36,206.99
823,C5,276.0,1.0,57,206.99
824,C3,276.5,0.5,38,206.99
825,E-3,277.0,0.5,42,206.99
826,G3,277.5,0.5,45,206.99
827,C4,278.0,1.0,49,206.99
828,F5,279.0,0.5,56,206.99
829,G5,279.5,0.5,58,206.99
830,G#4,280.0,2.0,56,206.99
831,G#5,280.0,2.0,56,206.99
832,F2,280.5,0.5,43,206.99
833,B2,281.0,0.5,45,206.99
834,D3,281.5,0.5,47,206.99
835,D5,282.0,1.0,57,206.99
836,F3,282.0,0.5,49,206.99
837,G#3,282.5,0.5,43,206.99
838,E-5,283.0,0.5,56,206.99
839,G3,283.0,0.5,43,206.99
840,F5,283.5,0.5,58,206.99
841,F3,283.5,0.5,43,206.99
842,G4,284.0,2.0,56,206.99
843,G5,284.0,2.0,56,206.99
844,E-2,284.5,0.5,40,206.99
845,G2,285.0,0.5,42,206.99
846,C3,285.5,0.5,45,206.99
847,C5,286.0,0.979,57,206.99
848,E-3,286.0,0.5,48,206.99
849,G3,286.5,0.5,40,206.99
850,C5,287.0,0.5,58,206.99
851,G#3,287.0,0.5,39,206.99
852,D5,287.5,0.5,59,206.99
853,F#3,287.5,0.5,39,206.99
854,E-5,288.0,0.5,62,206.99
855,G2,288.0,0.5,48,206.99
856,G3,288.5,0.5,44,206.99
857,E-5,289.0,0.5,58,206.99
858,C4,289.0,0.5,38,206.99
859,F5,289.5,0.5,60,206.99
860,G3,289.5,0.5,38,206.99
861,D5,290.0,0.5,62,206.99
862,G2,290.0,0.5,48,206.99
863,G3,290.5,0.5,39,206.99
864,D5,291.0,0.5,56,206.99
865,B3,291.0,0.5,39,206.99
866,E-5,291.5,0.5,59,206.99
867,G3,291.5,0.5,39,206.99
868,C5,292.0,0.5,62,206.99
869,C3,292.0,0.5,52,206.99
870,C4,292.5,0.5,45,206.99
871,B-5,293.0,2.0,74,206.99
872,B3,293.0,0.5,45,206.99
873,C4,293.5,0.5,45,206.99
874,E3,294.0,0.5,52,206.99
875,C4,294.5,0.5,48,206.99
876,B-5,295.0,1.5,73,206.99
877,G3,295.0,0.5,48,206.99
878,C4,295.5,0.5,48,206.99
879,F3,296.0,0.5,53,206.99
880,G#5,296.5,0.5,71,206.99
881,C4,296.5,0.5,49,206.99
882,G5,297.0,0.5,72,206.99
883,G#3,297.0,0.5,50,206.99
884,F5,297.5,0.5,72,206.99
885,C4,297.5,0.5,49,206.99
886,E-5,298.0,0.5,71,206.99
887,G3,298.0,0.5,54,206.99
888,D5,298.5,0.5,71,206.99
889,F4,298.5,0.5,52,206.99
890,C5,299.0,0.5,71,206.99
891,B3,299.0,0.5,43,206.99
892,B4,299.5,0.5,71,206.99
893,F4,299.5,0.5,50,206.99
894,C5,300.0,0.5,73,206.99
895,G#3,300.0,0.5,54,206.99
896,E-4,300.5,0.5,47,206.99
897,C4,301.0,0.5,47,206.99
898,C5,301.0,2.0,73,206.99
899,C6,301.0,2.0,73,206.99
900,E-4,301.5,0.5,47,206.99
901,G3,302.0,0.5,62,206.99
902,E4,302.5,0.5,54,206.99
903,B-5,303.0,1.5,80,206.99
904,C4,303.0,0.5,55,206.99
905,E4,303.5,0.5,55,206.99
906,F3,304.0,0.5,64,206.99
907,G#5,304.5,0.5,81,206.99
908,F4,304.5,0.5,57,206.99
909,G5,305.0,0.5,82,206.99
910,C4,305.0,0.5,58,206.99
911,F5,305.5,0.5,81,206.99
912,F4,305.5,0.5,57,206.99
913,E-5,306.0,0.5,79,206.99
914,G3,306.0,0.5,63,206.99
915,D5,306.5,0.5,79,206.99
916,G4,306.5,0.5,57,206.99
917,C5,307.0,0.5,79,206.99
918,G3,307.0,0.5,57,206.99
919,B4,307.5,0.5,78,206.99
920,G4,307.5,0.5,56,206.99
921,C5,308.0,0.5,89,206.99
922,C4,308.0,0.5,68,206.99
923,D5,309.0,0.167,81,206.99
924,G3,309.0,0.5,62,206.99
925,B3,309.0,0.5,62,206.99
926,E-5,309.167,0.167,81,206.99
927,D5,309.333,0.167,81,206.99
928,E-5,309.5,0.125,81,206.99
929,D5,309.625,0.125,81,206.99
930,C5,309.75,0.125,80,206.99
931,D5,309.875,0.125,80,206.99
932,E-5,310.0,0.5,92,206.99
933,C3,310.0,0.5,62,206.99
934,C4,310.0,0.5,62,206.99
935,B4,311.0,0.5,92,206.99
936,D5,311.0,0.5,92,206.99
937,B5,311.0,0.5,92,206.99
938,G2,311.0,0.5,62,206.99
939,G3,311.0,0.5,62,206.99
940,C5,312.0,0.5,92,206.99
941,E-5,312.0,0.5,92,206.99
942,C6,312.0,0.5,92,206.99
943,C2,312.0,0.5,69,206.99
944,C3,312.0,0.5,69,206.99
945,G#2,314.5,0.5,46,206.99
946,C3,315.0,0.5,48,206.99
947,E-3,315.5,0.5,50,206.99
948,C4,316.0,2.0,53,206.99
949,G#3,316.0,2.0,51,206.99
950,F4,318.0,2.0,48,206.99
951,C#3,318.0,2.0,48,206.99
952,B-3,320.0,2.0,51,206.99
953,G3,320.0,2.0,48,206.99
954,E-4,322.0,2.0,48,206.99
955,C3,322.0,2.0,45,206.99
956,G#3,324.0,2.0,52,206.99
957,F3,324.0,1.0,48,206.99
958,B-2,325.0,2.0,48,206.99
959,C#4,326.0,1.0,48,206.99
960,C4,327.0,1.0,48,206.99
961,C3,327.0,1.0,48,206.99
962,B-3,328.0,1.0,53,206.99
963,C#3,328.0,1.0,51,206.99
964,G#3,329.0,1.0,48,206.99
965,D3,329.0,1.0,46,206.99
966,G3,330.0,1.0,48,206.99
967,E-3,330.0,1.0,46,206.99
968,E-2,331.0,1.0,42,206.99
969,G#2,332.0,2.0,51,206.99
970,C5,333.0,2.0,55,206.99
971,C#3,334.0,2.0,49,206.99
972,F4,335.0,2.0,53,206.99
973,G2,336.0,2.0,51,206.99
974,B-4,337.0,2.0,56,206.99
975,C3,338.0,2.0,49,206.99
976,E-4,339.0,2.0,53,206.99
977,F2,340.0,2.0,52,206.99
978,G#4,341.0,1.0,53,206.99
979,G4,342.0,1.0,51,206.99
980,G2,342.0,1.0,51,206.99
981,F4,343.0,1.0,51,206.99
982,G#2,343.0,1.0,49,206.99
983,E-4,344.0,1.0,53,206.99
984,A2,344.0,1.0,53,206.99
985,D4,345.0,1.0,49,206.99
986,B-2,345.0,1.0,50,206.99
987,F4,346.0,1.0,53,206.99
988,E-2,346.0,1.0,49,206.99
989,E-4,347.0,1.0,49,206.99
990,C5,348.0,2.0,57,206.99
991,G#3,349.0,2.0,47,206.99
992,C4,349.0,2.0,47,206.99
993,F4,350.0,2.0,44,206.99
994,F5,350.0,2.0,44,206.99
995,C#3,351.0,2.0,44,206.99
996,F3,351.0,2.0,44,206.99
997,B-4,352.0,2.0,57,206.99
998,G3,353.0,2.0,47,206.99
999,B-3,353.0,2.0,47,206.99
1000,E-4,354.0,3.0,40,206.99
1001,E-5,354.0,2.0,48,206.99
1002,C3,355.0,2.0,44,206.99
1003,E-3,355.0,2.0,44,206.99
1004,G#4,356.0,2.0,52,206.99
1005,C4,357.0,1.0,48,206.99
1006,F3,357.0,1.0,47,206.99
1007,G#3,357.0,1.0,47,206.99
1008,B-2,358.0,1.0,51,206.99
1009,F4,358.0,1.0,49,206.99
1010,C#5,358.0,1.0,49,206.99
1011,C3,359.0,1.0,51,206.99
1012,E-4,359.0,1.0,44,206.99
1013,C5,359.0,1.0,44,206.99
1014,C#3,360.0,1.0,49,206.99
1015,C#4,360.0,1.0,46,206.99
1016,B-4,360.0,1.0,46,206.99
1017,D3,361.0,1.0,49,206.99
1018,C4,361.0,1.0,44,206.99
1019,G#4,361.0,1.0,44,206.99
1020,E-3,362.0,1.0,49,206.99
1021,B-3,362.0,1.0,44,206.99
1022,G4,362.0,1.0,44,206.99
1023,E-4,363.0,1.0,48,206.99
1024,C4,364.0,2.0,47,206.99
1025,G#3,364.0,2.0,47,206.99
1026,C5,365.0,2.0,50,206.99
1027,C6,365.0,2.0,50,206.99
1028,F4,366.0,2.0,46,206.99
1029,C#4,366.0,2.0,46,206.99
1030,F5,367.0,2.0,55,206.99
1031,B-3,368.0,2.0,50,206.99
1032,G3,368.0,2.0,50,206.99
1033,B-4,369.0,2.0,56,206.99
1034,B-5,369.0,2.0,56,206.99
1035,E-4,370.0,2.0,50,206.99
1036,C4,370.0,2.0,50,206.99
1037,E-5,371.0,2.0,59,206.99
1038,C5,372.0,2.0,51,206.99
1039,F3,372.0,2.0,59,206.99
1040,G#5,373.0,1.0,61,206.99
1041,G3,374.0,1.0,60,206.99
1042,B-4,374.0,1.0,55,206.99
1043,G5,374.0,1.0,55,206.99
1044,G#3,375.0,1.0,58,206.99
1045,G#4,375.0,1.0,56,206.99
1046,F5,375.0,1.0,56,206.99
1047,A3,376.0,1.0,64,206.99
1048,G4,376.0,1.0,59,206.99
1049,E-5,376.0,1.0,59,206.99
1050,B-3,377.0,1.0,62,206.99
1051,F4,377.0,1.0,55,206.99
1052,D5,377.0,1.0,55,206.99
1053,E-3,378.0,1.0,61,206.99
1054,G#4,378.0,1.0,61,206.99
1055,F5,378.0,1.0,61,206.99
1056,E-4,379.0,1.0,64,206.99
1057,G4,379.0,1.0,57,206.99
1058,E-5,379.0,1.0,57,206.99
1059,D4,380.0,1.0,65,206.99
1060,E-4,381.0,1.0,65,206.99
1061,F#4,382.0,1.0,65,206.99
1062,E-5,383.0,1.0,65,206.99
1063,A3,383.0,1.0,61,206.99
1064,C5,384.0,1.0,68,206.99
1065,B-3,384.0,0.5,62,206.99
1066,C#5,385.0,1.0,65,206.99
1067,F5,386.0,1.0,67,206.99
1068,G4,387.0,1.0,63,206.99
1069,C#4,387.0,1.0,60,206.99
1070,E-3,387.0,1.0,60,206.99
1071,B-4,388.0,1.0,68,206.99
1072,C4,388.0,1.0,62,206.99
1073,G#3,388.0,1.0,62,206.99
1074,G#4,389.0,1.0,65,206.99
1075,C5,390.0,1.0,67,206.99
1076,D4,391.0,1.0,65,206.99
1077,B-2,391.0,1.0,58,206.99
1078,G#3,391.0,1.0,58,206.99
1079,E-4,392.0,0.5,65,206.99
1080,E-3,392.0,1.0,63,206.99
1081,G3,392.0,1.0,63,206.99
1082,B-5,393.0,1.0,61,206.99
1083,E-6,394.0,1.0,66,206.99
1084,E-5,394.5,0.25,49,206.99
1085,C#6,395.0,1.0,62,206.99
1086,F5,395.0,0.25,49,206.99
1087,G5,395.5,0.25,49,206.99
1088,C6,396.0,2.0,69,206.99
1089,G#5,396.0,0.5,49,206.99
1090,G5,396.5,0.5,49,206.99
1091,F5,397.0,0.5,49,206.99
1092,E-5,397.5,0.5,49,206.99
1093,F6,398.0,2.0,70,206.99
1094,C#5,398.0,0.5,49,206.99
1095,C5,398.5,0.5,49,206.99
1096,B-4,399.0,0.5,49,206.99
1097,G#4,399.5,0.5,49,206.99
1098,B-5,400.0,2.0,70,206.99
1099,G4,400.0,0.5,49,206.99
1100,F4,400.5,0.5,49,206.99
1101,E-4,401.0,0.5,49,206.99
1102,C#4,401.5,0.5,49,206.99
1103,E-6,402.0,2.0,67,206.99
1104,C4,402.0,0.5,49,206.99
1105,B-3,402.5,0.5,49,206.99
1106,G#3,403.0,0.5,49,206.99
1107,G3,403.5,0.5,49,206.99
1108,G#5,404.0,2.0,70,206.99
1109,F3,404.0,0.5,51,206.99
1110,E-3,404.5,0.5,51,206.99
1111,C#3,405.0,0.5,52,206.99
1112,C3,405.5,0.5,53,206.99
1113,B-2,406.0,0.5,53,206.99
1114,C#5,406.0,0.5,72,206.99
1115,C#6,406.0,0.5,72,206.99
1116,A2,406.5,0.5,54,206.99
1117,B-2,407.0,0.5,55,206.99
1118,C6,407.0,0.5,73,206.99
1119,C5,407.0,0.5,73,206.99
1120,C3,407.5,0.5,55,206.99
1121,C#3,408.0,0.5,55,206.99
1122,B-4,408.0,0.5,75,206.99
1123,B-5,408.0,0.5,75,206.99
1124,C3,408.5,0.5,56,206.99
1125,C#3,409.0,0.5,57,206.99
1126,G#5,409.0,0.5,77,206.99
1127,G#4,409.0,0.5,77,206.99
1128,D3,409.5,0.5,58,206.99
1129,E-3,410.0,0.5,59,206.99
1130,G4,410.0,0.5,79,206.99
1131,G5,410.0,0.5,79,206.99
1132,F3,410.5,0.5,60,206.99
1133,C#5,411.0,0.5,80,206.99
1134,F#3,411.0,0.5,61,206.99
1135,G3,411.5,0.5,62,206.99
1136,C6,412.0,0.5,80,206.99
1137,G#2,412.0,2.0,76,206.99
1138,B-5,412.5,0.5,79,206.99
1139,G#5,413.0,0.5,79,206.99
1140,G5,413.5,0.5,78,206.99
1141,F5,414.0,0.5,77,206.99
1142,C#3,414.0,2.0,72,206.99
1143,E-5,414.5,0.5,76,206.99
1144,C#5,415.0,0.5,76,206.99
1145,C5,415.5,0.5,76,206.99
1146,B-4,416.0,0.5,77,206.99
1147,G2,416.0,2.0,77,206.99
1148,G#4,416.5,0.5,77,206.99
1149,G4,417.0,0.5,77,206.99
1150,F4,417.5,0.5,77,206.99
1151,E4,418.0,0.5,77,206.99
1152,C3,418.0,2.0,71,206.99
1153,C#4,418.5,0.5,76,206.99
1154,C4,419.0,0.5,76,206.99
1155,B-3,419.5,0.5,75,206.99
1156,G#3,420.0,0.5,75,206.99
1157,F2,420.0,2.0,76,206.99
1158,G3,420.5,0.5,74,206.99
1159,F3,421.0,0.5,73,206.99
1160,E3,421.5,0.5,71,206.99
1161,F3,422.0,0.5,70,206.99
1162,F1,422.0,4.0,76,206.99
1163,F2,422.0,4.0,76,206.99
1164,G3,422.5,0.5,72,206.99
1165,G#3,423.0,0.5,74,206.99
1166,G3,423.5,0.5,71,206.99
1167,F3,424.0,0.5,73,206.99
1168,E-3,424.5,0.5,72,206.99
1169,D3,425.0,0.5,71,206.99
1170,C3,425.5,0.5,70,206.99
1171,B2,426.0,0.5,67,206.99
1172,F#1,426.0,2.0,75,206.99
1173,F#2,426.0,2.0,75,206.99
1174,C3,426.5,0.5,69,206.99
1175,D3,427.0,0.5,71,206.99
1176,C3,427.5,0.5,70,206.99
1177,G1,428.0,1.0,75,206.99
1178,G2,428.25,0.25,56,206.99
1179,B2,428.5,0.25,56,206.99
1180,D3,428.75,0.25,56,206.99
1181,G3,429.0,0.25,69,206.99
1182,D2,429.5,0.25,54,206.99
1183,B1,429.75,0.25,55,206.99
1184,G1,430.0,0.25,67,206.99
1185,G2,430.25,0.25,58,206.99
1186,C3,430.5,0.25,58,206.99
1187,E-3,430.75,0.25,58,206.99
1188,G3,431.0,0.25,70,206.99
1189,E-2,431.5,0.25,55,206.99
1190,C2,431.75,0.25,55,206.99
1191,G1,432.0,0.25,69,206.99
1192,G2,432.25,0.25,60,206.99
1193,D3,432.5,0.25,60,206.99
1194,F3,432.75,0.25,60,206.99
1195,G3,433.0,0.25,71,206.99
1196,F2,433.5,0.25,57,206.99
1197,D2,433.75,0.25,57,206.99
1198,G1,434.0,0.25,70,206.99
1199,G2,434.25,0.25,61,206.99
1200,C3,434.5,0.25,61,206.99
1201,E-3,434.75,0.25,61,206.99
1202,G3,435.0,0.25,71,206.99
1203,E-2,435.5,0.25,59,206.99
1204,C2,435.75,0.25,59,206.99
1205,G1,436.0,0.25,81,206.99
1206,G3,436.25,0.25,60,206.99
1207,B3,436.5,0.25,60,206.99
1208,D4,436.75,0.25,60,206.99
1209,G4,437.0,0.25,76,206.99
1210,D3,437.5,0.25,59,206.99
1211,B2,437.75,0.25,59,206.99
1212,G2,438.0,0.25,74,206.99
1213,G3,438.25,0.25,64,206.99
1214,C4,438.5,0.25,64,206.99
1215,E-4,438.75,0.25,64,206.99
1216,G4,439.0,0.25,76,206.99
1217,E-3,439.5,0.25,59,206.99
1218,C3,439.75,0.25,59,206.99
1219,G2,440.0,0.25,76,206.99
1220,G3,440.25,0.25,66,206.99
1221,D4,440.5,0.25,66,206.99
1222,F4,440.75,0.25,66,206.99
1223,G4,441.0,0.25,77,206.99
1224,F3,441.5,0.25,62,206.99
1225,D3,441.75,0.25,62,206.99
1226,G2,442.0,0.25,76,206.99
1227,G3,442.25,0.25,67,206.99
1228,C4,442.5,0.25,67,206.99
1229,E-4,442.75,0.25,67,206.99
1230,G4,443.0,0.25,77,206.99
1231,E-3,443.5,0.25,65,206.99
1232,C3,443.75,0.25,65,206.99
1233,G2,444.0,0.25,88,206.99
1234,G4,444.25,0.25,72,206.99
1235,B4,444.5,0.25,72,206.99
1236,D5,444.75,0.25,72,206.99
1237,G5,445.0,0.25,89,206.99
1238,D4,445.5,0.25,70,206.99
1239,B3,445.75,0.25,70,206.99
1240,G3,446.0,0.25,86,206.99
1241,G4,446.25,0.25,75,206.99
1242,C5,446.5,0.25,75,206.99
1243,E-5,446.75,0.25,75,206.99
1244,G5,447.0,0.25,88,206.99
1245,E-4,447.5,0.25,68,206.99
1246,C4,447.75,0.25,68,206.99
1247,G3,448.0,0.25,86,206.99
1248,G4,448.25,0.25,75,206.99
1249,D5,448.5,0.25,75,206.99
1250,F5,448.75,0.25,75,206.99
1251,G5,449.0,0.25,87,206.99
1252,F4,449.5,0.25,70,206.99
1253,D4,449.75,0.25,70,206.99
1254,G3,450.0,0.25,86,206.99
1255,G4,450.25,0.25,75,206.99
1256,C5,450.5,0.25,75,206.99
1257,E-5,450.75,0.25,75,206.99
1258,G5,451.0,0.25,86,206.99
1259,E-4,451.5,0.25,71,206.99
1260,C4,451.75,0.25,71,206.99
1261,G3,452.0,0.25,80,206.99
1262,G4,452.333,0.333,66,206.99
1263,F#4,452.667,0.333,68,206.99
1264,G4,453.0,0.333,70,206.99
1265,B4,453.333,0.333,72,206.99
1266,D5,453.667,0.333,75,206.99
1267,G5,454.0,0.333,84,206.99
1268,D5,454.333,0.333,72,206.99
1269,B4,454.667,0.333,64,206.99
1270,G4,455.0,0.25,70,206.99
1271,G3,455.0,0.333,67,206.99
1272,D3,455.333,0.333,67,206.99
1273,B2,455.667,0.333,66,206.99
1274,G2,456.0,1.0,80,206.99
1275,B4,456.333,0.333,66,206.99
1276,B-4,456.667,0.333,68,206.99
1277,B4,457.0,0.333,70,206.99
1278,D5,457.333,0.333,72,206.99
1279,G5,457.667,0.333,75,206.99
1280,B5,458.0,0.333,84,206.99
1281,G5,458.333,0.333,72,206.99
1282,D5,458.667,0.333,64,206.99
1283,B4,459.0,0.25,70,206.99
1284,G3,459.0,0.333,67,206.99
1285,D3,459.333,0.333,67,206.99
1286,B2,459.667,0.333,66,206.99
1287,G2,460.0,1.0,80,206.99
1288,D5,460.333,0.333,66,206.99
1289,C#5,460.667,0.333,68,206.99
1290,D5,461.0,0.333,70,206.99
1291,F5,461.333,0.333,72,206.99
1292,B5,461.667,0.333,75,206.99
1293,D6,462.0,0.333,84,206.99
1294,B5,462.333,0.333,72,206.99
1295,F5,462.667,0.333,64,206.99
1296,D5,463.0,0.25,70,206.99
1297,G2,463.0,0.333,67,206.99
1298,D2,463.333,0.333,67,206.99
1299,B1,463.667,0.333,66,206.99
1300,G1,464.0,1.0,80,206.99
1301,F5,464.333,0.333,66,206.99
1302,E5,464.667,0.333,68,206.99
1303,F5,465.0,0.333,70,206.99
1304,B5,465.333,0.333,72,206.99
1305,D6,465.667,0.333,75,206.99
1306,F6,466.0,0.333,84,206.99
1307,D6,466.333,0.333,72,206.99
1308,B5,466.667,0.333,64,206.99
1309,F6,467.0,0.333,84,206.99
1310,D6,467.333,0.333,72,206.99
1311,B5,467.667,0.333,64,206.99
1312,F6,468.0,3.0,100,206.99
1313,G1,468.0,8.0,78,206.99
1314,G2,468.0,8.0,78,206.99
1315,E-6,471.0,0.333,86,206.99
1316,D6,471.333,0.333,85,206.99
1317,C6,471.667,0.333,83,206.99
1318,B5,472.0,0.333,82,206.99
1319,G#5,472.333,0.333,81,206.99
1320,G5,472.667,0.333,79,206.99
1321,F5,473.0,0.333,78,206.99
1322,E-5,473.333,0.333,77,206.99
1323,D5,473.667,0.333,75,206.99
1324,C5,474.0,0.333,74,206.99
1325,B4,474.333,0.333,72,206.99
1326,G#4,474.667,0.333,71,206.99
1327,G4,475.0,0.2,70,206.99
1328,F4,475.2,0.2,68,206.99
1329,E-4,475.4,0.2,69,206.99
1330,D4,475.6,0.2,70,206.99
1331,C4,475.8,0.2,71,206.99
1332,B3,476.0,6.0,93,206.99
1333,G2,476.0,6.0,73,206.99
1334,F3,476.0,6.0,73,206.99
1335,D3,476.0,6.0,73,206.99
1336,G4,482.5,0.25,48,206.99
1337,C5,483.0,0.25,49,206.99
1338,D5,483.5,0.25,51,206.99
1339,E-5,484.0,1.5,52,206.99
1340,C3,484.0,0.5,40,206.99
1341,E-3,484.5,0.5,36,206.99
1342,G3,485.0,0.5,36,206.99
1343,F5,485.5,0.5,50,206.99
1344,C4,485.5,0.5,36,206.99
1345,D5,486.0,1.5,53,206.99
1346,C3,486.0,0.5,40,206.99
1347,F3,486.5,0.5,40,206.99
1348,G3,487.0,0.5,36,206.99
1349,E-5,487.5,0.5,50,206.99
1350,B3,487.5,0.5,36,206.99
1351,C5,488.0,1.875,52,206.99
1352,C3,488.0,0.5,40,206.99
1353,E-3,488.5,0.5,40,206.99
1354,G3,489.0,0.5,36,206.99
1355,C4,489.5,0.5,36,206.99
1356,D5,489.875,0.125,48,206.99
1357,C5,490.0,0.5,52,206.99
1358,E-4,490.0,0.5,40,206.99
1359,B4,490.5,0.5,51,206.99
1360,G4,490.5,0.5,36,206.99
1361,C5,491.0,0.5,51,206.99
1362,E-4,491.0,0.5,36,206.99
1363,D5,491.5,0.375,50,206.99
1364,D4,491.5,0.5,36,206.99
1365,F5,491.875,0.125,49,206.99
1366,E-5,492.0,0.5,56,206.99
1367,C4,492.0,0.5,40,206.99
1368,D5,492.5,0.5,52,206.99
1369,G4,492.5,0.5,36,206.99
1370,E-5,493.0,0.5,52,206.99
1371,C4,493.0,0.5,36,206.99
1372,E-4,493.0,0.5,36,206.99
1373,F5,493.5,0.5,52,206.99
1374,G4,493.5,0.5,36,206.99
1375,G5,494.0,0.5,56,206.99
1376,B3,494.0,0.5,41,206.99
1377,D4,494.0,0.5,41,206.99
1378,G4,494.5,0.5,36,206.99
1379,G5,495.0,0.5,55,206.99
1380,C4,495.0,0.5,36,206.99
1381,G#3,495.0,0.5,36,206.99
1382,G4,495.5,0.5,36,206.99
1383,G5,496.0,3.0,57,206.99
1384,G3,496.0,0.5,40,206.99
1385,B3,496.5,0.5,29,206.99
1386,D4,497.0,0.5,28,206.99
1387,G4,497.5,0.5,28,206.99
1388,G3,498.0,0.5,40,206.99
1389,B3,498.5,0.5,31,206.99
1390,F5,499.0,0.5,51,206.99
1391,D4,499.0,0.5,31,206.99
1392,G5,499.5,0.25,53,206.99
1393,G4,499.5,0.5,31,206.99
1394,F5,499.75,0.125,48,206.99
1395,G5,499.875,0.125,48,206.99
1396,G#5,500.0,2.0,56,206.99
1397,F3,500.0,0.5,40,206.99
1398,G#3,500.5,0.5,36,206.99
1399,B3,501.0,0.5,37,206.99
1400,D4,501.5,0.5,37,206.99
1401,D5,502.0,1.0,52,206.99
1402,F3,502.0,0.5,40,206.99
1403,G#3,502.5,0.5,36,206.99
1404,E-5,503.0,0.5,51,206.99
1405,B3,503.0,0.5,36,206.99
1406,F5,503.5,0.25,53,206.99
1407,D4,503.5,0.5,36,206.99
1408,E-5,503.75,0.125,50,206.99
1409,F5,503.875,0.125,50,206.99
1410,G5,504.0,2.0,56,206.99
1411,E-3,504.0,0.5,40,206.99
1412,G3,504.5,0.5,34,206.99
1413,C4,505.0,0.5,34,206.99
1414,E-4,505.5,0.5,33,206.99
1415,C5,506.0,0.979,52,206.99
1416,G#3,506.0,0.5,41,206.99
1417,C4,506.5,0.5,35,206.99
1418,C5,507.0,0.5,53,206.99
1419,E-4,507.0,0.5,35,206.99
1420,D5,507.5,0.5,54,206.99
1421,F#4,507.5,0.5,35,206.99
1422,E-5,508.0,0.5,57,206.99
1423,G3,508.0,0.5,40,206.99
1424,C4,508.5,0.5,40,206.99
1425,E-5,509.0,0.5,53,206.99
1426,E-4,509.0,0.5,35,206.99
1427,F5,509.5,0.5,55,206.99
1428,G4,509.5,0.5,35,206.99
1429,D5,510.0,0.5,57,206.99
1430,G3,510.0,0.5,40,206.99
1431,B3,510.5,0.5,36,206.99
1432,D5,511.0,0.5,51,206.99
1433,D4,511.0,0.5,36,206.99
1434,E-5,511.5,0.5,54,206.99
1435,G4,511.5,0.5,36,206.99
1436,C5,512.0,1.0,57,206.99
1437,C2,512.5,0.5,38,206.99
1438,E-2,513.0,0.5,42,206.99
1439,G2,513.5,0.5,45,206.99
1440,C3,514.0,0.5,45,206.99
1441,E-3,514.5,0.5,45,206.99
1442,F3,515.0,0.5,50,206.99
1443,G3,515.5,0.5,52,206.99
1444,G#3,516.0,2.0,54,206.99
1445,B3,516.5,0.5,47,206.99
1446,D4,517.0,0.5,49,206.99
1447,F4,517.5,0.5,51,206.99
1448,D3,518.0,1.0,51,206.99
1449,F5,518.5,0.5,51,206.99
1450,D5,519.0,0.5,50,206.99
1451,E-3,519.0,0.5,50,206.99
1452,B4,519.5,0.5,48,206.99
1453,F3,519.5,0.5,52,206.99
1454,G3,520.0,2.0,54,206.99
1455,C4,520.5,0.5,44,206.99
1456,E-4,521.0,0.5,46,206.99
1457,G4,521.5,0.5,49,206.99
1458,C3,522.0,1.0,51,206.99
1459,G5,522.5,0.5,48,206.99
1460,E-5,523.0,0.5,47,206.99
1461,B-3,523.0,0.5,50,206.99
1462,C5,523.5,0.5,45,206.99
1463,C4,523.5,0.5,52,206.99
1464,C#4,524.0,2.0,54,206.99
1465,E4,524.5,0.5,47,206.99
1466,G4,525.0,0.5,49,206.99
1467,B-4,525.5,0.5,51,206.99
1468,G3,526.0,1.0,51,206.99
1469,B-5,526.5,0.5,51,206.99
1470,G5,527.0,0.5,50,206.99
1471,G#3,527.0,0.5,50,206.99
1472,E5,527.5,0.5,48,206.99
1473,B-3,527.5,0.5,52,206.99
1474,C4,528.0,2.0,54,206.99
1475,F4,528.5,0.5,48,206.99
1476,G#4,529.0,0.5,50,206.99
1477,C5,529.5,0.5,53,206.99
1478,F5,530.0,0.5,55,206.99
1479,F3,530.0,1.0,51,206.99
1480,G#5,530.5,0.5,58,206.99
1481,C6,531.0,0.5,60,206.99
1482,F6,531.5,1.5,69,206.99
1483,C4,532.0,1.0,54,206.99
1484,G#3,532.0,2.0,54,206.99
1485,E-6,533.0,1.0,63,206.99
1486,F4,533.0,1.0,54,206.99
1487,D6,534.0,1.0,61,206.99
1488,C4,534.0,1.0,54,206.99
1489,G#3,534.0,2.0,54,206.99
1490,C6,535.0,1.0,60,206.99
1491,F#4,535.0,1.0,54,206.99
1492,B5,536.0,0.5,60,206.99
1493,G3,536.0,1.0,46,206.99
1494,G5,537.0,2.0,60,206.99
1495,G4,537.0,1.0,31,206.99
1496,F4,538.0,1.0,42,206.99
1497,G5,539.0,1.5,56,206.99
1498,G4,539.0,1.0,30,206.99
1499,E4,540.0,1.0,42,206.99
1500,A5,540.5,0.5,54,206.99
1501,B5,541.0,0.5,55,206.99
1502,G4,541.0,1.0,33,206.99
1503,C6,541.5,0.5,57,206.99
1504,D6,542.0,0.5,58,206.99
1505,B3,542.0,1.0,41,206.99
1506,E6,542.5,0.5,60,206.99
1507,F6,543.0,0.5,61,206.99
1508,G4,543.0,1.0,33,206.99
1509,D6,543.5,0.5,58,206.99
1510,F6,544.0,0.5,61,206.99
1511,C4,544.0,1.0,40,206.99
1512,E6,544.5,0.5,60,206.99
1513,D6,545.0,0.5,59,206.99
1514,G4,545.0,1.0,35,206.99
1515,C6,545.5,0.458,58,206.99
1516,C6,546.0,0.5,60,206.99
1517,D5,546.0,2.0,40,206.99
1518,F4,546.0,1.0,40,206.99
1519,B5,546.5,0.5,58,206.99
1520,A5,547.0,0.5,58,206.99
1521,G4,547.0,1.0,36,206.99
1522,B5,547.5,0.5,58,206.99
1523,D6,548.0,0.5,63,206.99
1524,C5,548.0,2.0,40,206.99
1525,E4,548.0,1.0,40,206.99
1526,C6,548.5,0.5,57,206.99
1527,B5,549.0,0.5,57,206.99
1528,G4,549.0,1.0,36,206.99
1529,A5,549.5,0.5,57,206.99
1530,B3,550.0,1.0,40,206.99
1531,F5,550.0,0.9,54,206.99
1532,G5,550.0,0.9,54,206.99
1533,G4,551.0,1.0,34,206.99
1534,F5,551.0,0.9,54,206.99
1535,G5,551.0,0.9,54,206.99
1536,F5,552.0,0.5,60,206.99
1537,G5,552.0,4.5,60,206.99
1538,C4,552.0,1.0,41,206.99
1539,E5,552.5,0.5,53,206.99
1540,D5,553.0,0.5,53,206.99
1541,G4,553.0,1.0,34,206.99
1542,C5,553.5,0.458,53,206.99
1543,C5,554.0,0.5,57,206.99
1544,F4,554.0,1.0,40,206.99
1545,B4,554.5,0.5,52,206.99
1546,A4,555.0,0.5,52,206.99
1547,G4,555.0,1.0,34,206.99
1548,B4,555.5,0.5,52,206.99
1549,C5,556.0,1.0,52,206.99
1550,E4,556.0,1.0,42,206.99
1551,A5,556.5,0.5,54,206.99
1552,B5,557.0,0.5,55,206.99
1553,G4,557.0,1.0,33,206.99
1554,C6,557.5,0.5,57,206.99
1555,D6,558.0,0.5,58,206.99
1556,B3,558.0,1.0,41,206.99
1557,E6,558.5,0.5,60,206.99
1558,F6,559.0,0.5,61,206.99
1559,G4,559.0,1.0,33,206.99
1560,D6,559.5,0.5,58,206.99
1561,F6,560.0,0.5,61,206.99
1562,C4,560.0,1.0,40,206.99
1563,E6,560.5,0.5,60,206.99
1564,D6,561.0,0.5,59,206.99
1565,G4,561.0,1.0,35,206.99
1566,C6,561.5,0.5,58,206.99
1567,B5,562.0,0.5,60,206.99
1568,E4,562.0,2.0,40,206.99
1569,C5,562.0,1.0,40,206.99
1570,C6,562.5,0.5,58,206.99
1571,E6,563.0,0.5,59,206.99
1572,G4,563.0,1.0,36,206.99
1573,C6,563.5,0.5,59,206.99
1574,B5,564.0,0.5,66,206.99
1575,F4,564.0,1.979,38,206.99
1576,C5,564.0,1.0,42,206.99
1577,A5,564.5,0.5,57,206.99
1578,C6,565.0,0.5,58,206.99
1579,A4,565.0,1.0,38,206.99
1580,A5,565.5,0.5,59,206.99
1581,G5,566.0,0.5,69,206.99
1582,F4,566.0,2.0,37,206.99
1583,C#5,566.0,1.0,44,206.99
1584,F5,566.5,0.5,63,206.99
1585,A5,567.0,0.5,63,206.99
1586,A4,567.0,1.0,38,206.99
1587,F5,567.5,0.5,64,206.99
1588,E5,568.0,0.5,72,206.99
1589,F4,568.0,1.0,46,206.99
1590,D5,568.0,1.0,46,206.99
1591,D5,568.5,0.5,62,206.99
1592,F5,569.0,0.5,64,206.99
1593,A4,569.0,1.0,42,206.99
1594,D5,569.5,0.5,64,206.99
1595,A5,570.0,0.5,75,206.99
1596,F4,570.0,1.0,48,206.99
1597,F5,570.5,0.5,67,206.99
1598,D5,571.0,0.5,67,206.99
1599,F#4,571.0,1.0,41,206.99
1600,C5,571.5,0.5,67,206.99
1601,B4,572.0,0.354,59,206.99
1602,G4,572.0,0.312,55,206.99
1603,G4,572.333,0.354,55,206.99
1604,A4,572.667,0.354,55,206.99
1605,B4,573.0,0.354,59,206.99
1606,A4,573.333,0.354,55,206.99
1607,G4,573.667,0.354,55,206.99
1608,C5,574.0,2.0,59,206.99
1609,D4,574.333,0.354,45,206.99
1610,E4,574.667,0.354,48,206.99
1611,F#4,575.0,0.354,50,206.99
1612,E4,575.333,0.354,48,206.99
1613,D4,575.667,0.354,45,206.99
1614,B4,576.0,0.354,59,206.99
1615,G4,576.0,0.312,55,206.99
1616,G4,576.333,0.354,55,206.99
1617,A4,576.667,0.354,55,206.99
1618,B4,577.0,0.354,59,206.99
1619,A4,577.333,0.354,55,206.99
1620,G4,577.667,0.354,55,206.99
1621,C5,578.0,2.0,59,206.99
1622,D4,578.333,0.354,43,206.99
1623,E4,578.667,0.354,47,206.99
1624,F#4,579.0,0.354,50,206.99
1625,E4,579.333,0.354,48,206.99
1626,D4,579.667,0.354,45,206.99
1627,B4,580.0,0.333,59,206.99
1628,G4,580.0,0.312,55,206.99
1629,G4,580.333,0.333,59,206.99
1630,A4,580.667,0.333,59,206.99
1631,B4,581.0,0.333,64,206.99
1632,A4,581.333,0.333,57,206.99
1633,G4,581.667,0.333,58,206.99
1634,D5,582.0,0.333,67,206.99
1635,G4,582.0,1.0,55,206.99
1636,B4,582.333,0.333,59,206.99
1637,C5,582.667,0.333,59,206.99
1638,D5,583.0,0.333,62,206.99
1639,C5,583.333,0.333,65,206.99
1640,B4,583.667,0.333,67,206.99
1641,F5,584.0,0.354,69,206.99
1642,D4,584.0,1.0,48,206.99
1643,G3,584.0,1.0,48,206.99
1644,B3,584.0,1.0,48,206.99
1645,F4,584.0,1.0,48,206.99
1646,E5,584.333,0.354,68,206.99
1647,D5,584.667,0.354,67,206.99
1648,C5,585.0,0.354,66,206.99
1649,B4,585.333,0.354,65,206.99
1650,A4,585.667,0.354,63,206.99
1651,G4,586.0,0.354,59,206.99
1652,A4,586.333,0.354,55,206.99
1653,G4,586.667,0.354,55,206.99
1654,F4,587.0,0.354,59,206.99
1655,E4,587.333,0.354,56,206.99
1656,D4,587.667,0.354,56,206.99
1657,E4,588.0,0.354,59,206.99
1658,C3,588.0,1.0,55,206.99
1659,C4,588.333,0.354,55,206.99
1660,D4,588.667,0.354,55,206.99
1661,E4,589.0,0.354,59,206.99
1662,D4,589.333,0.354,55,206.99
1663,C4,589.667,0.354,55,206.99
1664,F4,590.0,2.0,59,206.99
1665,G3,590.333,0.354,45,206.99
1666,A3,590.667,0.354,48,206.99
1667,B3,591.0,0.354,50,206.99
1668,A3,591.333,0.354,48,206.99
1669,G3,591.667,0.354,45,206.99
1670,E4,592.0,0.354,59,206.99
1671,C4,592.0,1.0,55,206.99
1672,C5,592.333,0.354,55,206.99
1673,D5,592.667,0.354,55,206.99
1674,E5,593.0,0.354,59,206.99
1675,D5,593.333,0.354,55,206.99
1676,C5,593.667,0.354,55,206.99
1677,F5,594.0,2.0,59,206.99
1678,G3,594.333,0.354,43,206.99
1679,A3,594.667,0.354,47,206.99
1680,B3,595.0,0.354,50,206.99
1681,A3,595.333,0.354,48,206.99
1682,G3,595.667,0.354,45,206.99
1683,E5,596.0,0.333,59,206.99
1684,C4,596.0,1.0,55,206.99
1685,C5,596.333,0.333,59,206.99
1686,D5,596.667,0.333,59,206.99
1687,E5,597.0,0.333,64,206.99
1688,D5,597.333,0.333,57,206.99
1689,C5,597.667,0.333,58,206.99
1690,G5,598.0,0.333,67,206.99
1691,C4,598.0,1.0,55,206.99
1692,E5,598.333,0.333,59,206.99
1693,F5,598.667,0.333,59,206.99
1694,G5,599.0,0.333,62,206.99
1695,F5,599.333,0.333,65,206.99
1696,E5,599.667,0.333,67,206.99
1697,B-5,600.0,0.354,69,206.99
1698,B-3,600.0,1.0,48,206.99
1699,E3,600.0,1.0,48,206.99
1700,G3,600.0,1.0,48,206.99
1701,C4,600.0,1.0,48,206.99
1702,A5,600.333,0.354,68,206.99
1703,G5,600.667,0.354,67,206.99
1704,F5,601.0,0.354,66,206.99
1705,E5,601.333,0.354,65,206.99
1706,D5,601.667,0.354,63,206.99
1707,C5,602.0,0.354,59,206.99
1708,B4,602.333,0.354,55,206.99
1709,C5,602.667,0.354,55,206.99
1710,C#5,603.0,0.354,59,206.99
1711,D5,603.333,0.354,56,206.99
1712,B-4,603.667,0.354,56,206.99
1713,F2,604.0,0.333,52,206.99
1714,A2,604.333,0.333,54,206.99
1715,C3,604.667,0.333,56,206.99
1716,A3,605.0,0.333,57,206.99
1717,F3,605.0,1.0,59,206.99
1718,C4,605.333,0.333,59,206.99
1719,F4,605.667,0.333,62,206.99
1720,A4,606.0,0.333,64,206.99
1721,C5,606.333,0.333,66,206.99
1722,F5,606.667,0.333,68,206.99
1723,A5,607.0,0.25,70,206.99
1724,A5,607.5,0.25,70,206.99
1725,A5,608.0,0.5,70,206.99
1726,G3,608.0,1.0,51,206.99
1727,C4,608.0,1.0,51,206.99
1728,E4,608.0,1.0,51,206.99
1729,G5,608.5,0.5,68,206.99
1730,F5,609.0,0.25,66,206.99
1731,E5,609.5,0.25,64,206.99
1732,E5,610.0,0.5,65,206.99
1733,G3,610.0,1.0,52,206.99
1734,D4,610.0,1.0,52,206.99
1735,F4,610.0,1.0,52,206.99
1736,D5,610.5,0.5,63,206.99
1737,C5,611.0,0.25,61,206.99
1738,B4,611.5,0.25,59,206.99
1739,C5,612.0,1.0,63,206.99
1740,C4,612.0,1.0,54,206.99
1741,E4,612.0,1.0,54,206.99
1742,G4,615.0,0.979,45,206.99
1743,B4,616.0,0.5,41,206.99
1744,D5,616.0,0.5,41,206.99
1745,G4,616.0,0.5,36,206.99
1746,F4,616.0,0.5,36,206.99
1747,B4,617.0,0.5,42,206.99
1748,D5,617.0,0.5,42,206.99
1749,F4,617.0,0.5,37,206.99
1750,G4,617.0,0.5,37,206.99
1751,B4,618.0,0.5,42,206.99
1752,D5,618.0,0.5,42,206.99
1753,G4,618.0,0.5,38,206.99
1754,F4,618.0,0.5,38,206.99
1755,B4,619.0,0.5,42,206.99
1756,D5,619.0,0.5,42,206.99
1757,F4,619.0,0.5,40,206.99
1758,G4,619.0,0.5,40,206.99
1759,C5,620.0,3.0,44,206.99
1760,G5,620.0,3.0,44,206.99
1761,E4,620.0,2.979,41,206.99
1762,G4,620.0,2.979,41,206.99
1763,E4,623.0,1.0,42,206.99
1764,C5,623.0,1.0,46,206.99
1765,G5,623.0,1.0,46,206.99
1766,A4,624.0,1.96,45,206.99
1767,E-5,624.0,1.96,43,206.99
1768,C5,624.0,1.96,43,206.99
1769,F#5,624.0,1.96,43,206.99
1770,A4,626.0,1.96,43,206.99
1771,D5,626.0,1.96,40,206.99
1772,C5,626.0,1.96,40,206.99
1773,F#5,626.0,1.96,40,206.99
1774,G4,628.0,1.0,43,206.99
1775,B4,628.0,1.0,41,206.99
1776,D5,628.0,1.0,41,206.99
1777,G5,628.0,1.0,41,206.99
1778,G3,631.0,0.988,45,206.99
1779,B3,632.0,0.5,41,206.99
1780,D4,632.0,0.5,41,206.99
1781,G3,632.0,0.5,36,206.99
1782,F3,632.0,0.5,36,206.99
1783,B3,633.0,0.5,42,206.99
1784,D4,633.0,0.5,42,206.99
1785,F3,633.0,0.5,37,206.99
1786,G3,633.0,0.5,37,206.99
1787,B3,634.0,0.5,42,206.99
1788,D4,634.0,0.5,42,206.99
1789,G3,634.0,0.5,38,206.99
1790,F3,634.0,0.5,38,206.99
1791,B3,635.0,0.5,42,206.99
1792,D4,635.0,0.5,42,206.99
1793,F3,635.0,0.5,40,206.99
1794,G3,635.0,0.5,40,206.99
1795,G4,636.0,3.0,47,206.99
1796,E-3,636.0,3.0,41,206.99
1797,G3,636.0,3.0,41,206.99
1798,B3,637.0,1.0,40,206.99
1799,C4,638.0,2.5,40,206.99
1800,G4,639.0,1.0,45,206.99
1801,E-3,639.0,1.0,41,206.99
1802,F4,640.0,0.5,50,206.99
1803,G#3,640.0,0.5,39,206.99
1804,G#3,641.0,0.5,44,206.99
1805,C4,641.0,0.5,49,206.99
1806,F4,641.0,0.5,49,206.99
1807,D4,642.0,0.5,49,206.99
1808,F4,642.0,0.5,49,206.99
1809,B-3,642.0,0.5,44,206.99
1810,G#3,642.0,0.5,44,206.99
1811,D4,643.0,2.0,49,206.99
1812,F4,643.0,0.5,49,206.99
1813,G#3,643.0,0.5,46,206.99
1814,B-3,643.0,0.5,46,206.99
1815,B-4,644.0,3.0,54,206.99
1816,G3,644.0,3.0,50,206.99
1817,B-3,644.0,3.0,50,206.99
1818,D4,645.0,1.0,51,206.99
1819,E-4,646.0,3.0,51,206.99
1820,B-4,647.0,1.0,53,206.99
1821,G3,647.0,1.0,51,206.99
1822,A4,648.0,0.5,59,206.99
1823,C4,648.0,0.5,47,206.99
1824,F#4,649.0,0.5,56,206.99
1825,A4,649.0,0.5,56,206.99
1826,C4,649.0,0.5,48,206.99
1827,E-4,649.0,0.5,48,206.99
1828,F#4,650.0,0.5,56,206.99
1829,A4,650.0,0.5,56,206.99
1830,E-4,650.0,0.5,50,206.99
1831,C4,650.0,0.5,50,206.99
1832,F#4,651.0,2.0,55,206.99
1833,A4,651.0,0.5,55,206.99
1834,C4,651.0,0.5,51,206.99
1835,E-4,651.0,0.5,51,206.99
1836,D5,652.0,3.0,61,206.99
1837,B3,652.0,3.0,54,206.99
1838,D4,652.0,3.0,54,206.99
1839,F#4,653.0,1.0,54,206.99
1840,G4,654.0,1.0,54,206.99
1841,F#4,655.0,2.0,62,206.99
1842,A4,655.0,1.0,62,206.99
1843,C4,655.0,1.0,53,206.99
1844,E-4,655.0,1.0,53,206.99
1845,D5,656.0,3.0,63,206.99
1846,B3,656.0,3.0,55,206.99
1847,D4,656.0,3.0,55,206.99
1848,F#4,657.0,1.0,55,206.99
1849,G4,658.0,1.0,50,206.99
1850,B4,659.0,2.0,54,206.99
1851,D5,659.0,1.0,54,206.99
1852,F4,659.0,1.0,54,206.99
1853,G#4,659.0,1.0,54,206.99
1854,G5,660.0,3.0,58,206.99
1855,E-4,660.0,3.0,56,206.99
1856,G4,660.0,3.0,56,206.99
1857,B4,661.0,1.0,52,206.99
1858,C5,662.0,1.0,55,206.99
1859,B4,663.0,2.0,57,206.99
1860,D5,663.0,1.0,57,206.99
1861,F4,663.0,1.0,49,206.99
1862,G#4,663.0,1.0,49,206.99
1863,G5,664.0,3.0,63,206.99
1864,E-4,664.0,3.0,52,206.99
1865,G4,664.0,3.0,52,206.99
1866,B4,665.0,1.0,55,206.99
1867,C5,666.0,1.0,55,206.99
1868,B4,667.0,2.0,60,206.99
1869,D5,667.0,1.0,60,206.99
1870,F4,667.0,1.0,40,206.99
1871,G#4,667.0,1.0,40,206.99
1872,G#5,668.0,3.0,69,206.99
1873,B-4,669.0,1.0,49,206.99
1874,B4,670.0,1.0,49,206.99
1875,D5,671.0,1.0,56,206.99
1876,G5,672.0,3.0,65,206.99
1877,B-4,673.0,1.0,47,206.99
1878,B4,674.0,1.0,48,206.99
1879,D5,675.0,1.0,54,206.99
1880,F#5,676.0,3.0,60,206.99
1881,B-4,677.0,1.0,38,206.99
1882,B4,678.0,1.0,38,206.99
1883,D5,679.0,2.0,40,206.99
1884,F5,680.0,3.0,47,206.99
1885,B-4,681.0,1.0,37,206.99
1886,B4,682.0,2.0,37,206.99
1887,G2,683.0,1.0,42,206.99
1888,C3,684.0,0.5,40,206.99
1889,G4,684.0,1.5,47,206.99
1890,C5,684.0,1.5,47,206.99
1891,E-5,684.0,1.5,47,206.99
1892,E-3,684.5,0.5,36,206.99
1893,G3,685.0,0.5,36,206.99
1894,F5,685.5,0.5,50,206.99
1895,C4,685.5,0.5,36,206.99
1896,D5,686.0,1.5,53,206.99
1897,C3,686.0,0.5,40,206.99
1898,F3,686.5,0.5,40,206.99
1899,G3,687.0,0.5,36,206.99
1900,E-5,687.5,0.5,50,206.99
1901,B3,687.5,0.5,36,206.99
1902,C5,688.0,1.875,52,206.99
1903,C3,688.0,0.5,40,206.99
1904,E-3,688.5,0.5,40,206.99
1905,G3,689.0,0.5,36,206.99
1906,C4,689.5,0.5,36,206.99
1907,D5,689.875,0.125,48,206.99
1908,C5,690.0,0.5,52,206.99
1909,E-4,690.0,0.5,40,206.99
1910,B4,690.5,0.5,51,206.99
1911,G4,690.5,0.5,36,206.99
1912,C5,691.0,0.5,51,206.99
1913,E-4,691.0,0.5,36,206.99
1914,D5,691.5,0.375,50,206.99
1915,D4,691.5,0.5,36,206.99
1916,F5,691.875,0.125,49,206.99
1917,E-5,692.0,0.5,56,206.99
1918,C4,692.0,0.5,40,206.99
1919,D5,692.5,0.5,52,206.99
1920,G4,692.5,0.5,36,206.99
1921,E-5,693.0,0.5,52,206.99
1922,C4,693.0,0.5,36,206.99
1923,E-4,693.0,0.5,36,206.99
1924,F5,693.5,0.5,52,206.99
1925,G4,693.5,0.5,36,206.99
1926,G5,694.0,0.5,56,206.99
1927,B3,694.0,0.5,41,206.99
1928,D4,694.0,0.5,41,206.99
1929,G4,694.5,0.5,36,206.99
1930,G5,695.0,0.5,55,206.99
1931,C4,695.0,0.5,36,206.99
1932,G#3,695.0,0.5,36,206.99
1933,G4,695.5,0.5,36,206.99
1934,G5,696.0,3.0,57,206.99
1935,G3,696.0,0.5,40,206.99
1936,B3,696.5,0.5,29,206.99
1937,D4,697.0,0.5,28,206.99
1938,G4,697.5,0.5,28,206.99
1939,G3,698.0,0.5,40,206.99
1940,B3,698.5,0.5,31,206.99
1941,F5,699.0,0.5,51,206.99
1942,D4,699.0,0.5,31,206.99
1943,G5,699.5,0.25,53,206.99
1944,G4,699.5,0.5,31,206.99
1945,F5,699.75,0.125,48,206.99
1946,G5,699.875,0.125,48,206.99
1947,G#5,700.0,2.0,56,206.99
1948,F3,700.0,0.5,40,206.99
1949,G#3,700.5,0.5,36,206.99
1950,B3,701.0,0.5,37,206.99
1951,D4,701.5,0.5,37,206.99
1952,D5,702.0,1.0,52,206.99
1953,F3,702.0,0.5,40,206.99
1954,G#3,702.5,0.5,36,206.99
1955,E-5,703.0,0.5,51,206.99
1956,B3,703.0,0.5,36,206.99
1957,F5,703.5,0.25,53,206.99
1958,D4,703.5,0.5,36,206.99
1959,E-5,703.75,0.125,50,206.99
1960,F5,703.875,0.125,50,206.99
1961,G5,704.0,2.0,56,206.99
1962,E-3,704.0,0.5,40,206.99
1963,G3,704.5,0.5,34,206.99
1964,C4,705.0,0.5,34,206.99
1965,E-4,705.5,0.5,33,206.99
1966,C5,706.0,0.979,52,206.99
1967,G#3,706.0,0.5,41,206.99
1968,C4,706.5,0.5,35,206.99
1969,C5,707.0,0.5,53,206.99
1970,E-4,707.0,0.5,35,206.99
1971,D5,707.5,0.5,54,206.99
1972,F#4,707.5,0.5,35,206.99
1973,E-5,708.0,0.5,57,206.99
1974,G3,708.0,0.5,40,206.99
1975,C4,708.5,0.5,40,206.99
1976,E-5,709.0,0.5,53,206.99
1977,E-4,709.0,0.5,35,206.99
1978,F5,709.5,0.5,55,206.99
1979,G4,709.5,0.5,35,206.99
1980,D5,710.0,0.5,57,206.99
1981,G3,710.0,0.5,40,206.99
1982,B3,710.5,0.5,36,206.99
1983,D5,711.0,0.5,51,206.99
1984,D4,711.0,0.5,36,206.99
1985,E-5,711.5,0.5,54,206.99
1986,G4,711.5,0.5,36,206.99
1987,C5,712.0,0.5,57,206.99
1988,C4,712.0,1.0,57,206.99
1989,B4,712.5,0.5,52,206.99
1990,C5,713.0,0.5,53,206.99
1991,D5,713.5,0.5,54,206.99
1992,E-5,714.0,0.5,55,206.99
1993,E5,714.5,0.5,56,206.99
1994,F5,715.0,0.5,58,206.99
1995,G5,715.5,0.5,59,206.99
1996,G#5,716.0,0.5,60,206.99
1997,F2,716.0,0.5,58,206.99
1998,G5,716.5,0.5,57,206.99
1999,G#2,716.5,0.5,48,206.99
2000,B-5,717.0,0.5,63,206.99
2001,B2,717.0,0.5,49,206.99
2002,G#5,717.5,0.5,62,206.99
2003,D3,717.5,0.5,51,206.99
2004,G5,718.0,0.5,62,206.99
2005,F2,718.0,0.5,53,206.99
2006,F5,718.5,0.5,61,206.99
2007,G#2,718.5,0.5,54,206.99
2008,E-5,719.0,0.5,60,206.99
2009,B2,719.0,0.5,56,206.99
2010,D5,719.5,0.5,58,206.99
2011,D3,719.5,0.5,57,206.99
2012,G5,720.0,0.5,66,206.99
2013,E-2,720.0,0.5,58,206.99
2014,F#5,720.5,0.5,60,206.99
2015,G2,720.5,0.5,57,206.99
2016,G#5,721.0,0.5,67,206.99
2017,C3,721.0,0.5,55,206.99
2018,G5,721.5,0.5,66,206.99
2019,E-3,721.5,0.5,56,206.99
2020,F5,722.0,0.5,66,206.99
2021,G#2,722.0,0.5,57,206.99
2022,E-5,722.5,0.5,65,206.99
2023,C3,722.5,0.5,57,206.99
2024,D5,723.0,0.5,65,206.99
2025,E-3,723.0,0.5,58,206.99
2026,C5,723.5,0.5,64,206.99
2027,F#3,723.5,0.5,60,206.99
2028,E-5,724.0,0.5,71,206.99
2029,G2,724.0,0.5,64,206.99
2030,D5,724.5,0.5,64,206.99
2031,C3,724.5,0.5,58,206.99
2032,F5,725.0,0.5,70,206.99
2033,E-3,725.0,0.5,63,206.99
2034,E-5,725.5,0.5,62,206.99
2035,G3,725.5,0.5,63,206.99
2036,D5,726.0,0.5,69,206.99
2037,G2,726.0,0.5,62,206.99
2038,C#5,726.5,0.5,66,206.99
2039,G3,726.5,0.5,61,206.99
2040,E-5,727.0,0.5,64,206.99
2041,G2,727.0,0.5,58,206.99
2042,D5,727.5,0.5,60,206.99
2043,G3,727.5,0.5,57,206.99
2044,C5,728.0,1.0,66,206.99
2045,C3,728.0,0.5,67,206.99
2046,C4,728.5,0.5,52,206.99
2047,B3,729.0,0.5,60,206.99
2048,C4,729.5,0.5,52,206.99
2049,B-3,730.0,0.5,64,206.99
2050,C6,730.333,0.333,68,206.99
2051,C4,730.5,0.5,51,206.99
2052,D6,730.667,0.333,70,206.99
2053,E6,731.0,0.333,73,206.99
2054,G3,731.0,0.5,57,206.99
2055,D6,731.333,0.333,70,206.99
2056,C4,731.5,0.5,50,206.99
2057,C6,731.667,0.333,66,206.99
2058,F6,732.0,0.5,77,206.99
2059,G#3,732.0,0.5,63,206.99
2060,C4,732.5,0.5,50,206.99
2061,F3,733.0,0.5,57,206.99
2062,C4,733.5,0.5,50,206.99
2063,B-3,734.0,0.5,59,206.99
2064,C6,734.333,0.333,66,206.99
2065,C4,734.5,0.5,50,206.99
2066,D6,734.667,0.333,69,206.99
2067,E6,735.0,0.333,72,206.99
2068,G3,735.0,0.5,55,206.99
2069,D6,735.333,0.333,70,206.99
2070,C4,735.5,0.5,50,206.99
2071,C6,735.667,0.333,67,206.99
2072,F6,736.0,0.5,77,206.99
2073,G#3,736.0,0.5,63,206.99
2074,C4,736.5,0.5,50,206.99
2075,F3,737.0,0.5,57,206.99
2076,C4,737.5,0.5,50,206.99
2077,B-3,738.0,0.5,59,206.99
2078,C6,738.333,0.333,66,206.99
2079,C4,738.5,0.5,50,206.99
2080,D6,738.667,0.333,69,206.99
2081,E6,739.0,0.333,72,206.99
2082,G3,739.0,0.5,55,206.99
2083,D6,739.333,0.333,70,206.99
2084,C4,739.5,0.5,50,206.99
2085,C6,739.667,0.333,67,206.99
2086,F6,740.0,0.5,86,206.99
2087,G#3,740.0,0.5,77,206.99
2088,C5,741.0,0.5,80,206.99
2089,E-5,741.0,0.5,80,206.99
2090,F#5,741.0,0.5,80,206.99
2091,C6,741.0,0.5,80,206.99
2092,G#2,741.0,0.5,65,206.99
2093,C3,741.0,0.5,65,206.99
2094,E-3,741.0,0.5,65,206.99
2095,G#3,741.0,0.5,65,206.99
2096,C5,742.0,0.5,80,206.99
2097,E-5,742.0,0.5,80,206.99
2098,G5,742.0,0.5,80,206.99
2099,C6,742.0,0.5,80,206.99
2100,G2,742.0,0.5,65,206.99
2101,C3,742.0,0.5,65,206.99
2102,E-3,742.0,0.5,65,206.99
2103,G3,742.0,0.5,65,206.99
2104,B4,743.0,0.5,80,206.99
2105,D5,743.0,0.5,80,206.99
2106,G5,743.0,0.5,80,206.99
2107,B5,743.0,0.5,80,206.99
2108,G2,743.0,0.5,65,206.99
2109,B2,743.0,0.5,65,206.99
2110,D3,743.0,0.5,65,206.99
2111,G3,743.0,0.5,65,206.99
2112,C2,744.0,0.5,76,206.99
2113,C5,744.0,0.5,80,206.99
2114,E-5,744.0,0.5,80,206.99
2115,G5,744.0,0.5,80,206.99
2116,C6,744.0,0.5,80,206.99
2117,C3,744.5,0.5,52,206.99
2118,B2,745.0,0.5,60,206.99
2119,C3,745.5,0.5,52,206.99
2120,B-2,746.0,0.5,64,206.99
2121,C5,746.333,0.333,68,206.99
2122,C3,746.5,0.5,51,206.99
2123,D5,746.667,0.333,70,206.99
2124,E5,747.0,0.333,73,206.99
2125,G2,747.0,0.5,57,206.99
2126,D5,747.333,0.333,70,206.99
2127,C3,747.5,0.5,50,206.99
2128,C5,747.667,0.333,66,206.99
2129,F5,748.0,0.5,77,206.99
2130,G#2,748.0,0.5,63,206.99
2131,C3,748.5,0.5,50,206.99
2132,F2,749.0,0.5,57,206.99
2133,C3,749.5,0.5,50,206.99
2134,B-2,750.0,0.5,59,206.99
2135,C5,750.333,0.333,66,206.99
2136,C3,750.5,0.5,50,206.99
2137,D5,750.667,0.333,69,206.99
2138,E5,751.0,0.333,72,206.99
2139,G2,751.0,0.5,55,206.99
2140,D5,751.333,0.333,70,206.99
2141,C3,751.5,0.5,50,206.99
2142,C5,751.667,0.333,67,206.99
2143,F5,752.0,0.5,77,206.99
2144,G#2,752.0,0.5,63,206.99
2145,C3,752.5,0.5,50,206.99
2146,F2,753.0,0.5,57,206.99
2147,C3,753.5,0.5,50,206.99
2148,B-2,754.0,0.5,59,206.99
2149,C4,754.333,0.333,66,206.99
2150,C3,754.5,0.5,50,206.99
2151,D4,754.667,0.333,69,206.99
2152,E4,755.0,0.333,72,206.99
2153,G2,755.0,0.5,55,206.99
2154,D4,755.333,0.333,70,206.99
2155,C3,755.5,0.5,50,206.99
2156,C4,755.667,0.333,67,206.99
2157,F4,756.0,0.333,63,206.99
2158,G#2,756.0,1.0,45,206.99
2159,C4,756.333,0.333,50,206.99
2160,D4,756.667,0.333,50,206.99
2161,E-4,757.0,0.333,63,206.99
2162,G#2,757.0,1.0,45,206.99
2163,G#3,757.0,1.0,45,206.99
2164,D4,757.333,0.333,50,206.99
2165,C4,757.667,0.333,50,206.99
2166,F#4,758.0,0.333,68,206.99
2167,C4,758.333,0.333,52,206.99
2168,D4,758.667,0.333,53,206.99
2169,E-4,759.0,0.333,60,206.99
2170,G#2,759.0,0.5,43,206.99
2171,C3,759.0,0.5,43,206.99
2172,E-3,759.0,0.5,43,206.99
2173,G#3,759.0,0.5,43,206.99
2174,D4,759.333,0.333,50,206.99
2175,C4,759.667,0.333,50,206.99
2176,G4,760.0,0.333,69,206.99
2177,C4,760.333,0.333,51,206.99
2178,D4,760.667,0.333,52,206.99
2179,E-4,761.0,0.333,58,206.99
2180,G2,761.0,0.5,46,206.99
2181,C3,761.0,0.5,46,206.99
2182,E-3,761.0,0.5,46,206.99
2183,G3,761.0,0.5,46,206.99
2184,D4,761.333,0.333,51,206.99
2185,C4,761.667,0.333,52,206.99
2186,A4,762.0,0.333,69,206.99
2187,C4,762.333,0.333,54,206.99
2188,D4,762.667,0.333,55,206.99
2189,E-4,763.0,0.333,62,206.99
2190,F#2,763.0,0.5,48,206.99
2191,C3,763.0,0.5,48,206.99
2192,E-3,763.0,0.5,48,206.99
2193,F#3,763.0,0.5,48,206.99
2194,D4,763.333,0.333,55,206.99
2195,C4,763.667,0.333,55,206.99
2196,B4,764.0,0.333,70,206.99
2197,B3,764.333,0.333,55,206.99
2198,C4,764.667,0.333,55,206.99
2199,D4,765.0,0.333,61,206.99
2200,F2,765.0,0.5,50,206.99
2201,B2,765.0,0.5,50,206.99
2202,D3,765.0,0.5,50,206.99
2203,F3,765.0,0.5,50,206.99
2204,C4,765.333,0.333,55,206.99
2205,B3,765.667,0.333,54,206.99
2206,C5,766.0,0.333,72,206.99
2207,C4,766.333,0.333,55,206.99
2208,D4,766.667,0.333,55,206.99
2209,E-4,767.0,0.333,63,206.99
2210,E-2,767.0,0.5,53,206.99
2211,G2,767.0,0.5,53,206.99
2212,C3,767.0,0.5,53,206.99
2213,E-3,767.0,0.5,53,206.99
2214,D4,767.333,0.333,56,206.99
2215,C4,767.667,0.333,58,206.99
2216,D5,768.0,0.333,74,206.99
2217,D4,768.333,0.333,56,206.99
2218,E-4,768.667,0.333,56,206.99
2219,F4,769.0,0.333,62,206.99
2220,F2,769.0,0.5,56,206.99
2221,G#2,769.0,0.5,56,206.99
2222,D3,769.0,0.5,56,206.99
2223,F3,769.0,0.5,56,206.99
2224,E-4,769.333,0.333,54,206.99
2225,D4,769.667,0.333,54,206.99
2226,B4,770.0,0.333,75,206.99
2227,B3,770.333,0.333,53,206.99
2228,C4,770.667,0.333,53,206.99
2229,D4,771.0,0.333,65,206.99
2230,G2,771.0,0.5,58,206.99
2231,B2,771.0,0.5,58,206.99
2232,D3,771.0,0.5,58,206.99
2233,G3,771.0,0.5,58,206.99
2234,C4,771.333,0.333,55,206.99
2235,B3,771.667,0.333,55,206.99
2236,C4,772.0,1.0,73,206.99
2237,C5,772.0,1.0,73,206.99
2238,C2,772.0,0.5,71,206.99
2239,C3,772.0,0.5,71,206.99
2240,E-3,773.0,3.0,74,206.99
2241,G3,773.0,3.0,74,206.99
2242,C4,773.0,3.0,74,206.99
2243,G5,774.0,1.0,84,206.99
2244,F5,775.0,0.25,80,206.99
2245,E-5,775.25,0.25,79,206.99
2246,D5,775.5,0.25,78,206.99
2247,C5,775.75,0.25,77,206.99
2248,D5,776.0,0.5,79,206.99
2249,F3,776.0,0.5,68,206.99
2250,G#3,776.0,0.5,68,206.99
2251,C4,776.0,0.5,68,206.99
2252,D4,776.0,0.5,68,206.99
2253,G3,777.0,3.0,74,206.99
2254,B3,777.0,3.0,74,206.99
2255,D4,777.0,3.0,74,206.99
2256,F5,778.0,1.0,84,206.99
2257,E-5,779.0,0.25,80,206.99
2258,D5,779.25,0.25,79,206.99
2259,C5,779.5,0.25,78,206.99
2260,B4,779.75,0.25,77,206.99
2261,C5,780.0,0.5,79,206.99
2262,E-3,780.0,0.5,69,206.99
2263,G3,780.0,0.5,69,206.99
2264,C4,780.0,0.5,69,206.99
2265,E-3,781.0,3.0,74,206.99
2266,G3,781.0,3.0,74,206.99
2267,C4,781.0,3.0,74,206.99
2268,G5,782.0,1.0,84,206.99
2269,F5,783.0,0.25,80,206.99
2270,E-5,783.25,0.25,79,206.99
2271,D5,783.5,0.25,78,206.99
2272,C5,783.75,0.25,77,206.99
2273,D5,784.0,0.5,79,206.99
2274,F3,784.0,0.5,68,206.99
2275,G#3,784.0,0.5,68,206.99
2276,C4,784.0,0.5,68,206.99
2277,D4,784.0,0.5,68,206.99
2278,G3,785.0,3.0,74,206.99
2279,B3,785.0,3.0,74,206.99
2280,D4,785.0,3.0,74,206.99
2281,F5,786.0,1.0,84,206.99
2282,E-5,787.0,0.25,80,206.99
2283,D5,787.25,0.25,79,206.99
2284,C5,787.5,0.25,78,206.99
2285,B4,787.75,0.25,77,206.99
2286,C5,788.0,0.5,79,206.99
2287,E-3,788.0,0.5,69,206.99
2288,G3,788.0,0.5,69,206.99
2289,C4,788.0,0.5,69,206.99
2290,E-3,789.0,3.0,74,206.99
2291,G3,789.0,3.0,74,206.99
2292,C4,789.0,3.0,74,206.99
2293,G5,790.0,1.0,84,206.99
2294,F5,791.0,0.25,80,206.99
2295,E-5,791.25,0.25,79,206.99
2296,D5,791.5,0.25,78,206.99
2297,C5,791.75,0.25,77,206.99
2298,C#5,792.0,0.5,79,206.99
2299,F3,792.0,0.5,69,206.99
2300,G#3,792.0,0.5,69,206.99
2301,C#4,792.0,0.5,69,206.99
2302,F3,793.0,2.0,74,206.99
2303,G#3,793.0,2.0,74,206.99
2304,C#4,793.0,2.0,74,206.99
2305,F6,794.0,5.0,100,206.99
2306,F3,795.0,0.5,75,206.99
2307,G#3,795.0,0.5,75,206.99
2308,C#4,795.0,0.5,75,206.99
2309,G3,796.0,6.0,80,206.99
2310,B-3,796.0,6.0,80,206.99
2311,C#4,796.0,6.0,80,206.99
2312,E-4,796.0,6.0,80,206.99
2313,E-6,799.0,0.333,86,206.99
2314,C#6,799.333,0.333,85,206.99
2315,C6,799.667,0.333,83,206.99
2316,B-5,800.0,0.333,82,206.99
2317,G#5,800.333,0.333,81,206.99
2318,G5,800.667,0.333,79,206.99
2319,F5,801.0,0.333,78,206.99
2320,E-5,801.333,0.333,77,206.99
2321,C#5,801.667,0.333,75,206.99
2322,C5,802.0,0.167,74,206.99
2323,B-4,802.167,0.167,72,206.99
2324,G#4,802.333,0.167,71,206.99
2325,G4,802.5,0.167,70,206.99
2326,F4,802.667,0.167,68,206.99
2327,E-4,802.833,0.167,69,206.99
2328,C#4,803.0,0.142,70,206.99
2329,C4,803.142,0.142,71,206.99
2330,B-3,803.283,0.142,71,206.99
2331,G#3,803.425,0.142,71,206.99
2332,G3,803.567,0.142,71,206.99
2333,F3,803.708,0.142,71,206.99
2334,E-3,803.85,0.15,71,206.99
2335,C#3,804.0,6.0,93,206.99
2336,G1,804.0,6.0,73,206.99
2337,E-2,804.0,6.0,73,206.99
2338,G2,804.0,6.0,73,206.99
2339,G#3,811.0,0.5,49,206.99
2340,B-3,811.5,0.5,51,206.99
2341,C4,812.0,1.5,52,206.99
2342,G#2,812.0,4.0,40,206.99
2343,E-3,812.0,2.0,40,206.99
2344,C#4,813.5,0.5,50,206.99
2345,B-3,814.0,1.5,53,206.99
2346,C#3,814.0,2.0,40,206.99
2347,C4,815.5,0.5,50,206.99
2348,G#3,816.0,1.0,52,206.99
2349,G#2,816.0,1.0,40,206.99
2350,C3,816.0,1.0,40,206.99
2351,G#4,819.0,0.5,46,206.99
2352,B-4,819.5,0.5,48,206.99
2353,C5,820.0,1.5,49,206.99
2354,G#3,820.0,4.0,38,206.99
2355,E-4,820.0,2.0,38,206.99
2356,C#5,821.5,0.5,47,206.99
2357,B-4,822.0,1.5,49,206.99
2358,C#4,822.0,2.0,37,206.99
2359,C5,823.5,0.5,46,206.99
2360,G#4,824.0,1.0,47,206.99
2361,G#3,824.0,1.0,36,206.99
2362,C4,824.0,1.0,36,206.99
2363,C5,827.0,1.0,40,206.99
2364,G#4,828.0,1.0,35,206.99
2365,F#5,828.0,1.0,40,206.99
2366,E-5,828.0,1.0,40,206.99
2367,C5,831.0,1.0,40,206.99
2368,G4,832.0,1.0,34,206.99
2369,G5,832.0,1.0,40,206.99
2370,E-5,832.0,1.0,40,206.99
2371,E-6,835.0,0.333,97,206.99
2372,D6,835.333,0.333,90,206.99
2373,C6,835.667,0.333,90,206.99
2374,F6,836.0,0.333,96,206.99
2375,G2,836.0,1.0,70,206.99
2376,B2,836.0,1.0,70,206.99
2377,D3,836.0,1.0,70,206.99
2378,G3,836.0,1.0,70,206.99
2379,E-6,836.333,0.333,89,206.99
2380,D6,836.667,0.333,90,206.99
2381,C6,837.0,0.333,97,206.99
2382,B5,837.333,0.333,92,206.99
2383,G#5,837.667,0.333,92,206.99
2384,G5,838.0,0.333,90,206.99
2385,F5,838.333,0.333,92,206.99
2386,E-5,838.667,0.333,93,206.99
2387,D5,839.0,0.333,95,206.99
2388,C5,839.333,0.333,97,206.99
2389,B4,839.667,0.333,99,206.99
2390,C5,840.0,1.0,101,206.99
2391,C2,840.0,1.0,72,206.99
2392,E-2,840.0,1.0,72,206.99
2393,G2,840.0,1.0,72,206.99
2394,C3,840.0,1.0,72,206.99
,note_name,start_time,duration,velocity,tempo
0,C2,0.0,0.375,25,160.47
1,C3,0.5,0.375,30,160.47
2,E3,0.5,0.375,30,160.47
3,G2,0.5,0.375,24,160.47
4,C2,0.5,0.375,24,160.47
5,C3,1.0,0.375,30,160.47
6,E3,1.0,0.375,30,160.47
7,G2,1.0,0.375,24,160.47
8,C2,1.0,0.375,24,160.47
9,C3,1.5,0.375,31,160.47
10,E3,1.5,0.375,31,160.47
11,G2,1.5,0.375,24,160.47
12,C2,1.5,0.375,24,160.47
13,C3,2.0,0.375,31,160.47
14,E3,2.0,0.375,31,160.47
15,G2,2.0,0.375,24,160.47
16,C2,2.0,0.375,24,160.47
17,C3,2.5,0.375,31,160.47
18,E3,2.5,0.375,31,160.47
19,G2,2.5,0.375,26,160.47
20,C2,2.5,0.375,26,160.47
21,C3,3.0,0.375,32,160.47
22,E3,3.0,0.375,32,160.47
23,G2,3.0,0.375,26,160.47
24,C2,3.0,0.375,26,160.47
25,C3,3.5,0.375,32,160.47
26,E3,3.5,0.375,32,160.47
27,G2,3.5,0.375,26,160.47
28,C2,3.5,0.375,26,160.47
29,C3,4.0,0.375,33,160.47
30,E3,4.0,0.375,33,160.47
31,C2,4.0,0.375,28,160.47
32,G2,4.0,0.375,28,160.47
33,C3,4.5,0.375,33,160.47
34,E3,4.5,0.375,33,160.47
35,C2,4.5,0.375,24,160.47
36,G2,4.5,0.375,24,160.47
37,C3,5.0,0.375,34,160.47
38,E3,5.0,0.375,34,160.47
39,C2,5.0,0.375,26,160.47
40,G2,5.0,0.375,26,160.47
41,C3,5.5,0.375,35,160.47
42,E3,5.5,0.375,35,160.47
43,C2,5.5,0.375,26,160.47
44,G2,5.5,0.375,26,160.47
45,C3,6.0,0.375,36,160.47
46,E3,6.0,0.375,36,160.47
47,C2,6.0,0.375,28,160.47
48,G2,6.0,0.375,28,160.47
49,C3,6.5,0.375,37,160.47
50,E3,6.5,0.375,37,160.47
51,C2,6.5,0.375,28,160.47
52,G2,6.5,0.375,28,160.47
53,D3,7.0,0.375,37,160.47
54,F#3,7.0,0.375,37,160.47
55,C2,7.0,0.375,28,160.47
56,A2,7.0,0.375,28,160.47
57,D3,7.5,0.375,37,160.47
58,F#3,7.5,0.375,37,160.47
59,C2,7.5,0.375,28,160.47
60,A2,7.5,0.375,28,160.47
61,D3,8.0,1.5,42,160.47
62,G3,8.0,1.5,42,160.47
63,B1,8.0,0.375,28,160.47
64,G2,8.0,0.375,28,160.47
65,B1,8.5,0.375,28,160.47
66,G2,8.5,0.375,28,160.47
67,B1,9.0,0.375,28,160.47
68,G2,9.0,0.375,28,160.47
69,B3,9.5,0.25,40,160.47
70,B1,9.5,0.375,28,160.47
71,G2,9.5,0.375,28,160.47
72,A3,9.75,0.25,40,160.47
73,G3,10.0,0.25,45,160.47
74,B1,10.0,0.375,28,160.47
75,G2,10.0,0.375,28,160.47
76,B1,10.5,0.375,28,160.47
77,G2,10.5,0.375,28,160.47
78,B1,11.0,0.375,28,160.47
79,G2,11.0,0.375,28,160.47
80,B1,11.5,0.375,28,160.47
81,G2,11.5,0.375,28,160.47
82,C#6,11.875,0.125,46,160.47
83,D6,12.0,1.25,57,160.47
84,B1,12.0,0.375,28,160.47
85,G2,12.0,0.375,28,160.47
86,B1,12.5,0.375,28,160.47
87,G2,12.5,0.375,28,160.47
88,B1,13.0,0.375,28,160.47
89,G2,13.0,0.375,28,160.47
90,C6,13.25,0.25,48,160.47
91,B5,13.5,0.25,47,160.47
92,B1,13.5,0.375,28,160.47
93,G2,13.5,0.375,28,160.47
94,A5,13.75,0.25,45,160.47
95,G5,14.0,0.5,44,160.47
96,B1,14.0,0.375,28,160.47
97,G2,14.0,0.375,28,160.47
98,B1,14.5,0.375,28,160.47
99,G2,14.5,0.375,28,160.47
100,B1,15.0,0.375,28,160.47
101,G2,15.0,0.375,28,160.47
102,B1,15.5,0.375,28,160.47
103,G2,15.5,0.375,28,160.47
104,B-2,16.0,0.375,32,160.47
105,D3,16.0,0.375,32,160.47
106,F2,16.0,0.375,28,160.47
107,B-1,16.0,0.375,28,160.47
108,B-2,16.5,0.375,32,160.47
109,D3,16.5,0.375,32,160.47
110,F2,16.5,0.375,28,160.47
111,B-1,16.5,0.375,28,160.47
112,B-2,17.0,0.375,32,160.47
113,D3,17.0,0.375,32,160.47
114,F2,17.0,0.375,28,160.47
115,B-1,17.0,0.375,28,160.47
116,B-2,17.5,0.375,33,160.47
117,D3,17.5,0.375,33,160.47
118,F2,17.5,0.375,28,160.47
119,B-1,17.5,0.375,28,160.47
120,B-2,18.0,0.375,34,160.47
121,D3,18.0,0.375,34,160.47
122,F2,18.0,0.375,28,160.47
123,B-1,18.0,0.375,28,160.47
124,B-2,18.5,0.375,34,160.47
125,D3,18.5,0.375,34,160.47
126,F2,18.5,0.375,28,160.47
127,B-1,18.5,0.375,28,160.47
128,B-2,19.0,0.375,35,160.47
129,D3,19.0,0.375,35,160.47
130,F2,19.0,0.375,28,160.47
131,B-1,19.0,0.375,28,160.47
132,B-2,19.5,0.375,36,160.47
133,D3,19.5,0.375,36,160.47
134,F2,19.5,0.375,28,160.47
135,B-1,19.5,0.375,28,160.47
136,B-2,20.0,0.375,36,160.47
137,D3,20.0,0.375,36,160.47
138,B-1,20.0,0.375,28,160.47
139,F2,20.0,0.375,28,160.47
140,B-2,20.5,0.375,37,160.47
141,D3,20.5,0.375,37,160.47
142,B-1,20.5,0.375,28,160.47
143,F2,20.5,0.375,28,160.47
144,B-2,21.0,0.375,37,160.47
145,D3,21.0,0.375,37,160.47
146,B-1,21.0,0.375,28,160.47
147,F2,21.0,0.375,28,160.47
148,B-2,21.5,0.375,37,160.47
149,D3,21.5,0.375,37,160.47
150,B-1,21.5,0.375,28,160.47
151,F2,21.5,0.375,28,160.47
152,B-2,22.0,0.375,37,160.47
153,D3,22.0,0.375,37,160.47
154,B-1,22.0,0.375,28,160.47
155,F2,22.0,0.375,28,160.47
156,B-2,22.5,0.375,37,160.47
157,D3,22.5,0.375,37,160.47
158,B-1,22.5,0.375,28,160.47
159,F2,22.5,0.375,28,160.47
160,C3,23.0,0.375,37,160.47
161,E3,23.0,0.375,37,160.47
162,B-1,23.0,0.375,28,160.47
163,G2,23.0,0.375,28,160.47
164,C3,23.5,0.375,37,160.47
165,E3,23.5,0.375,37,160.47
166,B-1,23.5,0.375,28,160.47
167,G2,23.5,0.375,28,160.47
168,C3,24.0,1.5,42,160.47
169,F3,24.0,1.5,42,160.47
170,A1,24.0,0.375,28,160.47
171,F2,24.0,0.375,28,160.47
172,A1,24.5,0.375,28,160.47
173,F2,24.5,0.375,28,160.47
174,A1,25.0,0.375,28,160.47
175,F2,25.0,0.375,28,160.47
176,A3,25.5,0.25,40,160.47
177,A1,25.5,0.375,28,160.47
178,F2,25.5,0.375,28,160.47
179,G3,25.75,0.25,40,160.47
180,F3,26.0,0.25,45,160.47
181,A1,26.0,0.375,28,160.47
182,F2,26.0,0.375,28,160.47
183,A1,26.5,0.375,28,160.47
184,F2,26.5,0.375,28,160.47
185,A1,27.0,0.375,28,160.47
186,F2,27.0,0.375,28,160.47
187,A1,27.5,0.375,28,160.47
188,F2,27.5,0.375,28,160.47
189,B5,27.875,0.125,46,160.47
190,C6,28.0,1.25,57,160.47
191,G#1,28.0,0.375,28,160.47
192,F2,28.0,0.375,28,160.47
193,G#1,28.5,0.375,28,160.47
194,F2,28.5,0.375,28,160.47
195,G#1,29.0,0.375,28,160.47
196,F2,29.0,0.375,28,160.47
197,B-5,29.25,0.25,50,160.47
198,G#5,29.5,0.25,49,160.47
199,G#1,29.5,0.375,28,160.47
200,F2,29.5,0.375,28,160.47
201,G5,29.75,0.25,47,160.47
202,F5,30.0,0.5,46,160.47
203,G#1,30.0,0.375,28,160.47
204,F2,30.0,0.375,28,160.47
205,G#1,30.5,0.375,28,160.47
206,F2,30.5,0.375,28,160.47
207,G#1,31.0,0.375,28,160.47
208,F2,31.0,0.375,28,160.47
209,G#1,31.5,0.375,28,160.47
210,F2,31.5,0.375,28,160.47
211,E6,31.875,0.125,67,160.47
212,F6,32.0,3.0,73,160.47
213,G1,32.0,0.375,33,160.47
214,F2,32.0,0.375,33,160.47
215,G1,32.5,0.375,35,160.47
216,F2,32.5,0.375,35,160.47
217,G1,33.0,0.375,36,160.47
218,F2,33.0,0.375,36,160.47
219,G1,33.5,0.375,38,160.47
220,F2,33.5,0.375,38,160.47
221,G1,34.0,0.375,40,160.47
222,F2,34.0,0.375,40,160.47
223,G1,34.5,0.375,42,160.47
224,F2,34.5,0.375,42,160.47
225,F6,35.0,0.25,74,160.47
226,G#1,35.0,0.375,42,160.47
227,F2,35.0,0.375,42,160.47
228,E-6,35.25,0.25,73,160.47
229,D6,35.5,0.25,71,160.47
230,G#1,35.5,0.375,44,160.47
231,F2,35.5,0.375,44,160.47
232,C6,35.75,0.25,70,160.47
233,B5,36.0,0.25,72,160.47
234,G1,36.0,0.375,48,160.47
235,F2,36.0,0.375,48,160.47
236,C6,36.25,0.25,71,160.47
237,D6,36.5,0.25,72,160.47
238,G1,36.5,0.375,48,160.47
239,F2,36.5,0.375,48,160.47
240,E-6,36.75,0.25,73,160.47
241,F6,37.0,0.25,74,160.47
242,G#1,37.0,0.375,50,160.47
243,F2,37.0,0.375,50,160.47
244,E-6,37.25,0.25,72,160.47
245,D6,37.5,0.25,71,160.47
246,G#1,37.5,0.375,50,160.47
247,F2,37.5,0.375,50,160.47
248,C6,37.75,0.25,69,160.47
249,B5,38.0,0.25,72,160.47
250,G1,38.0,0.375,53,160.47
251,F2,38.0,0.375,53,160.47
252,C6,38.25,0.25,75,160.47
253,D6,38.5,0.25,77,160.47
254,G1,38.5,0.375,56,160.47
255,F2,38.5,0.375,56,160.47
256,E-6,38.75,0.25,80,160.47
257,F6,39.0,0.25,80,160.47
258,G#1,39.0,0.375,59,160.47
259,F2,39.0,0.375,59,160.47
260,E-6,39.25,0.25,80,160.47
261,D6,39.5,0.25,79,160.47
262,G#1,39.5,0.375,61,160.47
263,F2,39.5,0.375,61,160.47
264,C6,39.75,0.25,81,160.47
265,B5,40.0,0.25,85,160.47
266,G1,40.0,1.0,78,160.47
267,F2,40.0,1.0,78,160.47
268,C6,40.25,0.25,89,160.47
269,D6,40.5,0.25,94,160.47
270,E-6,40.75,0.25,98,160.47
271,F6,41.0,0.25,100,160.47
272,G2,41.0,2.5,88,160.47
273,G3,41.0,2.5,88,160.47
274,E-6,41.25,0.25,98,160.47
275,D6,41.5,0.25,96,160.47
276,C6,41.75,0.25,94,160.47
277,B5,42.0,0.25,93,160.47
278,G#5,42.25,0.25,91,160.47
279,G5,42.5,0.25,89,160.47
280,F5,42.75,0.25,87,160.47
281,E-5,43.0,0.25,85,160.47
282,D5,43.25,0.25,83,160.47
283,C5,43.5,0.25,81,160.47
284,A3,43.5,0.25,67,160.47
285,B4,43.75,0.25,79,160.47
286,B3,43.75,0.25,70,160.47
287,C5,44.0,0.375,93,160.47
288,C4,44.0,0.375,72,160.47
289,G4,45.0,0.375,83,160.47
290,G2,45.0,0.375,61,160.47
291,G3,45.0,0.375,61,160.47
292,E-4,46.0,0.375,72,160.47
293,E-2,46.0,0.375,57,160.47
294,E-3,46.0,0.375,57,160.47
295,C4,47.0,0.375,64,160.47
296,C2,47.0,0.375,52,160.47
297,C3,47.0,0.375,52,160.47
298,G3,48.0,4.0,60,160.47
299,G1,48.0,4.0,50,160.47
300,G2,48.0,4.0,50,160.47
301,E4,52.0,0.248,37,160.47
302,C2,52.0,4.0,30,160.47
303,C3,52.0,0.5,30,160.47
304,C4,52.25,0.25,33,160.47
305,E4,52.5,0.248,37,160.47
306,C3,52.5,0.248,31,160.47
307,C4,52.75,0.25,33,160.47
308,G3,52.75,0.25,26,160.47
309,E4,53.0,0.248,37,160.47
310,C3,53.0,0.248,31,160.47
311,C4,53.25,0.25,33,160.47
312,G3,53.25,0.25,27,160.47
313,E4,53.5,0.248,36,160.47
314,C3,53.5,0.248,31,160.47
315,C4,53.75,0.25,33,160.47
316,G3,53.75,0.25,27,160.47
317,E4,54.0,0.248,36,160.47
318,C3,54.0,0.248,31,160.47
319,C4,54.25,0.25,33,160.47
320,G3,54.25,0.25,26,160.47
321,E4,54.5,0.248,37,160.47
322,C3,54.5,0.248,31,160.47
323,C4,54.75,0.25,33,160.47
324,G3,54.75,0.25,27,160.47
325,E4,55.0,0.248,36,160.47
326,C3,55.0,0.248,31,160.47
327,C4,55.25,0.25,33,160.47
328,G3,55.25,0.25,27,160.47
329,E4,55.5,0.248,36,160.47
330,C3,55.5,0.248,31,160.47
331,C4,55.75,0.25,33,160.47
332,G3,55.75,0.25,25,160.47
333,E4,56.0,0.248,37,160.47
334,C3,56.0,0.248,31,160.47
335,C4,56.25,0.25,33,160.47
336,G3,56.25,0.25,26,160.47
337,E4,56.5,0.248,37,160.47
338,C3,56.5,0.248,31,160.47
339,C4,56.75,0.25,33,160.47
340,G3,56.75,0.25,26,160.47
341,E4,57.0,0.248,37,160.47
342,C3,57.0,0.248,31,160.47
343,C4,57.25,0.25,33,160.47
344,G3,57.25,0.25,27,160.47
345,E4,57.5,0.248,36,160.47
346,C3,57.5,0.248,31,160.47
347,C4,57.75,0.25,33,160.47
348,G3,57.75,0.25,27,160.47
349,E4,58.0,0.248,36,160.47
350,C3,58.0,0.248,31,160.47
351,C4,58.25,0.25,33,160.47
352,G3,58.25,0.25,26,160.47
353,E4,58.5,0.248,37,160.47
354,C3,58.5,0.248,31,160.47
355,C4,58.75,0.25,33,160.47
356,G3,58.75,0.25,27,160.47
357,F#4,59.0,0.248,36,160.47
358,C3,59.0,0.248,31,160.47
359,D4,59.25,0.25,33,160.47
360,A3,59.25,0.25,27,160.47
361,F#4,59.5,0.248,36,160.47
362,C3,59.5,0.248,31,160.47
363,D4,59.75,0.25,33,160.47
364,A3,59.75,0.25,25,160.47
365,G4,60.0,1.5,46,160.47
366,B2,60.0,0.375,28,160.47
367,D3,60.0,0.375,28,160.47
368,G3,60.25,0.25,25,160.47
369,B2,60.5,0.375,28,160.47
370,D3,60.5,0.375,28,160.47
371,G3,60.75,0.25,25,160.47
372,B2,61.0,0.375,28,160.47
373,D3,61.0,0.375,28,160.47
374,G3,61.25,0.25,25,160.47
375,B4,61.5,0.25,40,160.47
376,B2,61.5,0.375,28,160.47
377,D3,61.5,0.375,28,160.47
378,A4,61.75,0.25,40,160.47
379,G3,61.75,0.25,25,160.47
380,G4,62.0,0.25,45,160.47
381,B2,62.0,0.375,28,160.47
382,D3,62.0,0.375,28,160.47
383,G3,62.25,0.25,25,160.47
384,B2,62.5,0.375,28,160.47
385,D3,62.5,0.375,28,160.47
386,G3,62.75,0.25,25,160.47
387,B2,63.0,0.375,28,160.47
388,D3,63.0,0.375,28,160.47
389,G3,63.25,0.25,25,160.47
390,B2,63.5,0.375,28,160.47
391,D3,63.5,0.375,28,160.47
392,G3,63.75,0.25,25,160.47
393,C#6,63.875,0.125,46,160.47
394,D6,64.0,1.25,57,160.47
395,B2,64.0,0.375,28,160.47
396,D3,64.0,0.375,28,160.47
397,G3,64.25,0.25,25,160.47
398,B2,64.5,0.375,28,160.47
399,D3,64.5,0.375,28,160.47
400,G3,64.75,0.25,25,160.47
401,B2,65.0,0.375,28,160.47
402,D3,65.0,0.375,28,160.47
403,C6,65.25,0.25,48,160.47
404,G3,65.25,0.25,25,160.47
405,B5,65.5,0.25,47,160.47
406,B2,65.5,0.375,28,160.47
407,D3,65.5,0.375,28,160.47
408,A5,65.75,0.25,45,160.47
409,G3,65.75,0.25,25,160.47
410,G5,66.0,0.5,44,160.47
411,B2,66.0,0.375,28,160.47
412,D3,66.0,0.375,28,160.47
413,G3,66.25,0.25,25,160.47
414,B2,66.5,0.375,28,160.47
415,D3,66.5,0.375,28,160.47
416,G3,66.75,0.25,25,160.47
417,B2,67.0,0.375,28,160.47
418,D3,67.0,0.375,28,160.47
419,G3,67.25,0.25,25,160.47
420,B2,67.5,0.375,28,160.47
421,D3,67.5,0.375,28,160.47
422,G3,67.75,0.25,25,160.47
423,F4,68.0,0.248,40,160.47
424,D2,68.0,4.0,33,160.47
425,D3,68.0,0.5,33,160.47
426,D4,68.25,0.25,36,160.47
427,F4,68.5,0.248,40,160.47
428,D3,68.5,0.248,34,160.47
429,D4,68.75,0.25,36,160.47
430,A3,68.75,0.25,28,160.47
431,F4,69.0,0.248,40,160.47
432,D3,69.0,0.248,34,160.47
433,D4,69.25,0.25,36,160.47
434,A3,69.25,0.25,29,160.47
435,F4,69.5,0.248,39,160.47
436,D3,69.5,0.248,34,160.47
437,D4,69.75,0.25,36,160.47
438,A3,69.75,0.25,29,160.47
439,F4,70.0,0.248,39,160.47
440,D3,70.0,0.248,34,160.47
441,D4,70.25,0.25,36,160.47
442,A3,70.25,0.25,28,160.47
443,F4,70.5,0.248,41,160.47
444,D3,70.5,0.248,34,160.47
445,D4,70.75,0.25,36,160.47
446,A3,70.75,0.25,29,160.47
447,F4,71.0,0.248,40,160.47
448,D3,71.0,0.248,34,160.47
449,D4,71.25,0.25,37,160.47
450,A3,71.25,0.25,30,160.47
451,F4,71.5,0.248,40,160.47
452,D3,71.5,0.248,35,160.47
453,D4,71.75,0.25,37,160.47
454,A3,71.75,0.25,28,160.47
455,F4,72.0,0.248,41,160.47
456,D3,72.0,0.248,35,160.47
457,D4,72.25,0.25,37,160.47
458,A3,72.25,0.25,29,160.47
459,F4,72.5,0.248,41,160.47
460,D3,72.5,0.248,35,160.47
461,D4,72.75,0.25,37,160.47
462,A3,72.75,0.25,29,160.47
463,F4,73.0,0.248,42,160.47
464,D3,73.0,0.248,35,160.47
465,D4,73.25,0.25,37,160.47
466,A3,73.25,0.25,30,160.47
467,F4,73.5,0.248,41,160.47
468,D3,73.5,0.248,35,160.47
469,D4,73.75,0.25,38,160.47
470,A3,73.75,0.25,30,160.47
471,F4,74.0,0.248,41,160.47
472,D3,74.0,0.248,36,160.47
473,D4,74.25,0.25,38,160.47
474,A3,74.25,0.25,29,160.47
475,F4,74.5,0.248,42,160.47
476,D3,74.5,0.248,36,160.47
477,D4,74.75,0.25,38,160.47
478,A3,74.75,0.25,31,160.47
479,G#4,75.0,0.248,41,160.47
480,D3,75.0,0.248,36,160.47
481,E4,75.25,0.25,38,160.47
482,B3,75.25,0.25,31,160.47
483,G#4,75.5,0.248,42,160.47
484,D3,75.5,0.248,36,160.47
485,E4,75.75,0.25,38,160.47
486,B3,75.75,0.25,29,160.47
487,A4,76.0,1.5,55,160.47
488,C3,76.0,0.375,34,160.47
489,E3,76.0,0.375,34,160.47
490,A3,76.25,0.25,29,160.47
491,C3,76.5,0.375,34,160.47
492,E3,76.5,0.375,34,160.47
493,A3,76.75,0.25,29,160.47
494,C3,77.0,0.375,34,160.47
495,E3,77.0,0.375,34,160.47
496,A3,77.25,0.25,29,160.47
497,C5,77.5,0.25,48,160.47
498,C3,77.5,0.375,34,160.47
499,E3,77.5,0.375,34,160.47
500,B4,77.75,0.25,48,160.47
501,A3,77.75,0.25,29,160.47
502,A4,78.0,0.25,53,160.47
503,C3,78.0,0.375,34,160.47
504,E3,78.0,0.375,34,160.47
505,A3,78.25,0.25,29,160.47
506,C3,78.5,0.375,34,160.47
507,E3,78.5,0.375,34,160.47
508,A3,78.75,0.25,29,160.47
509,C3,79.0,0.375,34,160.47
510,E3,79.0,0.375,34,160.47
511,A3,79.25,0.25,29,160.47
512,C3,79.5,0.375,34,160.47
513,E3,79.5,0.375,34,160.47
514,A3,79.75,0.25,29,160.47
515,E-6,79.875,0.125,55,160.47
516,E6,80.0,1.25,68,160.47
517,C3,80.0,0.375,34,160.47
518,E3,80.0,0.375,34,160.47
519,A3,80.25,0.25,29,160.47
520,C3,80.5,0.375,34,160.47
521,E3,80.5,0.375,34,160.47
522,A3,80.75,0.25,29,160.47
523,C3,81.0,0.375,34,160.47
524,E3,81.0,0.375,34,160.47
525,D6,81.25,0.25,59,160.47
526,A3,81.25,0.25,29,160.47
527,C6,81.5,0.25,58,160.47
528,C3,81.5,0.375,34,160.47
529,E3,81.5,0.375,34,160.47
530,B5,81.75,0.25,57,160.47
531,A3,81.75,0.25,31,160.47
532,A5,82.0,0.5,57,160.47
533,C3,82.0,0.375,36,160.47
534,E3,82.0,0.375,36,160.47
535,A3,82.25,0.25,31,160.47
536,C3,82.5,0.375,36,160.47
537,E3,82.5,0.375,36,160.47
538,A3,82.75,0.25,31,160.47
539,C3,83.0,0.375,37,160.47
540,E3,83.0,0.375,37,160.47
541,A3,83.25,0.25,33,160.47
542,C3,83.5,0.375,38,160.47
543,E3,83.5,0.375,38,160.47
544,A3,83.75,0.25,33,160.47
545,E-6,83.875,0.125,66,160.47
546,E6,84.0,1.25,85,160.47
547,C3,84.0,0.375,41,160.47
548,E3,84.0,0.375,41,160.47
549,B-3,84.25,0.25,36,160.47
550,C3,84.5,0.375,42,160.47
551,E3,84.5,0.375,42,160.47
552,B-3,84.75,0.25,37,160.47
553,C3,85.0,0.375,43,160.47
554,E3,85.0,0.375,43,160.47
555,D6,85.25,0.25,76,160.47
556,B-3,85.25,0.25,38,160.47
557,C6,85.5,0.25,75,160.47
558,C3,85.5,0.375,43,160.47
559,E3,85.5,0.375,43,160.47
560,B5,85.75,0.25,71,160.47
561,B-3,85.75,0.25,38,160.47
562,B-5,86.0,0.5,71,160.47
563,C3,86.0,0.375,46,160.47
564,E3,86.0,0.375,46,160.47
565,B-3,86.25,0.25,40,160.47
566,C3,86.5,0.375,46,160.47
567,E3,86.5,0.375,46,160.47
568,B-3,86.75,0.25,40,160.47
569,C3,87.0,0.375,46,160.47
570,E3,87.0,0.375,46,160.47
571,B-3,87.25,0.25,42,160.47
572,C3,87.5,0.375,48,160.47
573,E3,87.5,0.375,48,160.47
574,B-3,87.75,0.25,42,160.47
575,B5,88.0,1.292,56,160.47
576,B2,88.0,0.292,40,160.47
577,E-3,88.25,0.292,35,160.47
578,F#3,88.5,0.292,35,160.47
579,B3,88.75,0.25,35,160.47
580,B2,89.0,0.292,41,160.47
581,A5,89.25,0.292,54,160.47
582,E-3,89.25,0.292,35,160.47
583,G5,89.5,0.292,53,160.47
584,F#3,89.5,0.292,35,160.47
585,F#5,89.75,0.292,51,160.47
586,B3,89.75,0.25,35,160.47
587,G5,90.0,0.292,53,160.47
588,B2,90.0,0.292,39,160.47
589,F#5,90.25,0.292,52,160.47
590,E3,90.25,0.292,35,160.47
591,E5,90.5,0.292,51,160.47
592,G3,90.5,0.292,35,160.47
593,E-5,90.75,0.292,50,160.47
594,B3,90.75,0.25,35,160.47
595,E5,91.0,0.292,50,160.47
596,B2,91.0,0.292,40,160.47
597,G5,91.25,0.292,52,160.47
598,E3,91.25,0.292,35,160.47
599,F#5,91.5,0.292,50,160.47
600,G3,91.5,0.292,35,160.47
601,E5,91.75,0.292,50,160.47
602,B3,91.75,0.25,35,160.47
603,E-5,92.0,0.292,50,160.47
604,B2,92.0,0.292,40,160.47
605,C#5,92.25,0.292,49,160.47
606,F#3,92.25,0.292,35,160.47
607,B4,92.5,0.292,48,160.47
608,A3,92.5,0.292,35,160.47
609,B-4,92.75,0.292,47,160.47
610,B3,92.75,0.25,35,160.47
611,B4,93.0,0.292,49,160.47
612,B2,93.0,0.292,40,160.47
613,C#5,93.25,0.292,49,160.47
614,F#3,93.25,0.292,35,160.47
615,D5,93.5,0.292,49,160.47
616,A3,93.5,0.292,35,160.47
617,E-5,93.75,0.292,50,160.47
618,B3,93.75,0.25,35,160.47
619,E5,94.0,0.292,50,160.47
620,B2,94.0,0.292,40,160.47
621,E-5,94.25,0.292,50,160.47
622,E3,94.25,0.292,35,160.47
623,E5,94.5,0.292,51,160.47
624,G3,94.5,0.292,35,160.47
625,F#5,94.75,0.292,51,160.47
626,B3,94.75,0.25,35,160.47
627,G5,95.0,0.292,49,160.47
628,B2,95.0,0.292,40,160.47
629,G#5,95.25,0.292,50,160.47
630,E3,95.25,0.292,35,160.47
631,A5,95.5,0.292,52,160.47
632,G3,95.5,0.292,35,160.47
633,B-5,95.75,0.292,53,160.47
634,B3,95.75,0.25,35,160.47
635,B5,96.0,0.292,55,160.47
636,B2,96.0,0.292,40,160.47
637,B-5,96.25,0.292,53,160.47
638,E-3,96.25,0.292,35,160.47
639,B5,96.5,0.292,53,160.47
640,F#3,96.5,0.292,35,160.47
641,B-5,96.75,0.292,50,160.47
642,B3,96.75,0.25,35,160.47
643,B5,97.0,0.292,52,160.47
644,B2,97.0,0.292,40,160.47
645,A5,97.25,0.292,52,160.47
646,E-3,97.25,0.292,35,160.47
647,G5,97.5,0.292,51,160.47
648,F#3,97.5,0.292,35,160.47
649,F#5,97.75,0.292,50,160.47
650,B3,97.75,0.25,35,160.47
651,G5,98.0,0.292,52,160.47
652,B2,98.0,0.292,40,160.47
653,F#5,98.25,0.292,51,160.47
654,E3,98.25,0.292,35,160.47
655,E5,98.5,0.292,49,160.47
656,G3,98.5,0.292,35,160.47
657,E-5,98.75,0.292,50,160.47
658,B3,98.75,0.25,35,160.47
659,E5,99.0,0.292,50,160.47
660,B2,99.0,0.292,41,160.47
661,G5,99.25,0.292,53,160.47
662,E3,99.25,0.292,35,160.47
663,F#5,99.5,0.292,50,160.47
664,G3,99.5,0.292,35,160.47
665,E5,99.75,0.292,50,160.47
666,B3,99.75,0.25,35,160.47
667,E-5,100.0,0.292,50,160.47
668,B2,100.0,0.292,40,160.47
669,C#5,100.25,0.292,49,160.47
670,F#3,100.25,0.292,35,160.47
671,B4,100.5,0.292,48,160.47
672,A3,100.5,0.292,35,160.47
673,B-4,100.75,0.292,47,160.47
674,B3,100.75,0.25,35,160.47
675,B4,101.0,0.292,49,160.47
676,B2,101.0,0.292,40,160.47
677,C#5,101.25,0.292,50,160.47
678,F#3,101.25,0.292,36,160.47
679,D5,101.5,0.292,50,160.47
680,A3,101.5,0.292,36,160.47
681,E-5,101.75,0.292,52,160.47
682,B3,101.75,0.25,36,160.47
683,E5,102.0,0.292,52,160.47
684,B2,102.0,0.292,42,160.47
685,E-5,102.25,0.292,52,160.47
686,E3,102.25,0.292,36,160.47
687,E5,102.5,0.292,54,160.47
688,G3,102.5,0.292,37,160.47
689,F#5,102.75,0.292,54,160.47
690,B3,102.75,0.25,37,160.47
691,G5,103.0,0.292,56,160.47
692,B2,103.0,0.292,42,160.47
693,G#5,103.25,0.292,58,160.47
694,E3,103.25,0.292,37,160.47
695,A5,103.5,0.292,60,160.47
696,G3,103.5,0.292,37,160.47
697,B-5,103.75,0.292,62,160.47
698,B3,103.75,0.25,38,160.47
699,B5,104.0,0.25,68,160.47
700,B2,104.0,0.25,44,160.47
701,F#5,104.25,0.25,60,160.47
702,E-3,104.25,0.25,38,160.47
703,E-5,104.5,0.25,61,160.47
704,F#3,104.5,0.25,38,160.47
705,B4,104.75,0.25,61,160.47
706,B3,104.75,0.25,38,160.47
707,B-4,105.0,0.25,75,160.47
708,B-3,105.0,0.25,50,160.47
709,B4,105.25,0.25,63,160.47
710,B3,105.25,0.25,41,160.47
711,E5,105.5,0.25,63,160.47
712,G3,105.5,0.25,40,160.47
713,G5,105.75,0.25,63,160.47
714,E3,105.75,0.25,41,160.47
715,B5,106.0,0.25,74,160.47
716,B2,106.0,0.25,52,160.47
717,F#5,106.25,0.25,65,160.47
718,E-3,106.25,0.25,44,160.47
719,E-5,106.5,0.25,68,160.47
720,F#3,106.5,0.25,45,160.47
721,B4,106.75,0.25,68,160.47
722,B3,106.75,0.25,45,160.47
723,B-4,107.0,0.25,80,160.47
724,B-3,107.0,0.25,60,160.47
725,B4,107.25,0.25,71,160.47
726,B3,107.25,0.25,51,160.47
727,E5,107.5,0.25,71,160.47
728,G3,107.5,0.25,51,160.47
729,G5,107.75,0.25,72,160.47
730,E3,107.75,0.25,52,160.47
731,B5,108.0,0.25,91,160.47
732,B2,108.0,0.25,63,160.47
733,F#5,108.25,0.25,82,160.47
734,E-3,108.25,0.25,52,160.47
735,E-5,108.5,0.25,82,160.47
736,F#3,108.5,0.25,52,160.47
737,B4,108.75,0.25,82,160.47
738,B3,108.75,0.25,52,160.47
739,B5,109.0,0.25,91,160.47
740,B2,109.0,0.25,63,160.47
741,G5,109.25,0.25,82,160.47
742,E3,109.25,0.25,52,160.47
743,E5,109.5,0.25,82,160.47
744,G3,109.5,0.25,52,160.47
745,B4,109.75,0.25,82,160.47
746,B3,109.75,0.25,52,160.47
747,B5,110.0,0.25,91,160.47
748,B2,110.0,0.25,63,160.47
749,F#5,110.25,0.25,82,160.47
750,E-3,110.25,0.25,52,160.47
751,E-5,110.5,0.25,81,160.47
752,F#3,110.5,0.25,52,160.47
753,B4,110.75,0.25,81,160.47
754,B3,110.75,0.25,52,160.47
755,B5,111.0,0.25,91,160.47
756,B2,111.0,0.25,63,160.47
757,G5,111.25,0.25,81,160.47
758,E3,111.25,0.25,52,160.47
759,E5,111.5,0.25,81,160.47
760,G3,111.5,0.25,52,160.47
761,B4,111.75,0.25,82,160.47
762,B3,111.75,0.25,52,160.47
763,B5,112.0,0.25,91,160.47
764,B2,112.0,1.0,56,160.47
765,E-3,112.0,1.0,56,160.47
766,F#3,112.0,1.0,56,160.47
767,B3,112.0,1.0,56,160.47
768,F#5,112.25,0.25,82,160.47
769,E-5,112.5,0.25,82,160.47
770,B4,112.75,0.25,82,160.47
771,F#5,113.0,0.25,91,160.47
772,E-5,113.25,0.25,82,160.47
773,B4,113.5,0.25,82,160.47
774,F#4,113.75,0.25,82,160.47
775,E-5,114.0,0.25,91,160.47
776,B4,114.25,0.25,82,160.47
777,F#4,114.5,0.25,81,160.47
778,E-4,114.75,0.25,81,160.47
779,B4,115.0,0.25,91,160.47
780,F#4,115.25,0.25,81,160.47
781,E-4,115.5,0.25,81,160.47
782,B3,115.75,0.25,82,160.47
783,F#4,116.0,0.25,91,160.47
784,E-4,116.25,0.25,81,160.47
785,B3,116.5,0.25,80,160.47
786,F#3,116.75,0.25,80,160.47
787,E-4,117.0,0.25,89,160.47
788,B3,117.25,0.25,79,160.47
789,F#3,117.5,0.25,79,160.47
790,E-3,117.75,0.25,78,160.47
791,B3,118.0,0.25,87,160.47
792,F#3,118.25,0.25,78,160.47
793,E-3,118.5,0.25,77,160.47
794,B2,118.75,0.25,77,160.47
795,B1,119.0,0.25,85,160.47
796,E-2,119.25,0.25,76,160.47
797,F#2,119.5,0.25,76,160.47
798,B2,119.75,0.25,75,160.47
799,B1,120.0,0.25,77,160.47
800,B2,120.5,0.25,68,160.47
801,C#2,121.0,0.25,73,160.47
802,C#3,121.5,0.25,66,160.47
803,B4,122.0,0.25,75,160.47
804,E-2,122.0,0.25,71,160.47
805,B3,122.5,0.25,69,160.47
806,E-3,122.5,0.25,65,160.47
807,C#5,123.0,0.25,74,160.47
808,C#4,123.5,0.25,65,160.47
809,E-5,124.0,0.25,71,160.47
810,E-2,124.0,0.25,69,160.47
811,E-4,124.5,0.25,64,160.47
812,E-3,124.5,0.25,61,160.47
813,E2,125.0,0.25,65,160.47
814,E3,125.5,0.25,59,160.47
815,E-5,126.0,0.25,67,160.47
816,F#2,126.0,0.25,65,160.47
817,E-4,126.5,0.25,53,160.47
818,F#3,126.5,0.25,54,160.47
819,E5,127.0,0.25,59,160.47
820,E4,127.5,0.25,50,160.47
821,F#5,128.0,0.25,52,160.47
822,F#4,128.5,0.25,49,160.47
823,G#5,129.0,0.25,52,160.47
824,G#4,129.5,0.25,49,160.47
825,A5,130.0,0.25,52,160.47
826,F#2,130.0,0.25,41,160.47
827,A4,130.5,0.25,48,160.47
828,F#3,130.5,0.25,36,160.47
829,A5,131.0,0.25,52,160.47
830,G#2,131.0,0.25,41,160.47
831,B4,131.5,0.25,46,160.47
832,G#3,131.5,0.25,36,160.47
833,A5,132.0,0.25,51,160.47
834,A2,132.0,0.25,40,160.47
835,C#5,132.5,0.25,46,160.47
836,A3,132.5,0.25,37,160.47
837,A5,133.0,0.25,51,160.47
838,B2,133.0,0.25,39,160.47
839,E-5,133.5,0.25,46,160.47
840,B3,133.5,0.25,36,160.47
841,A5,134.0,0.25,51,160.47
842,C#3,134.0,0.25,38,160.47
843,E5,134.5,0.25,47,160.47
844,C#4,134.5,0.25,37,160.47
845,A5,135.0,0.25,50,160.47
846,E-3,135.0,0.25,40,160.47
847,F#5,135.5,0.25,46,160.47
848,E-4,135.5,0.25,37,160.47
849,B4,136.0,2.0,46,160.47
850,E5,136.0,2.0,46,160.47
851,G#5,136.0,2.0,46,160.47
852,G#4,136.0,2.0,36,160.47
853,E4,136.0,2.0,36,160.47
854,A4,138.0,1.0,44,160.47
855,E-5,138.0,1.0,44,160.47
856,F#5,138.0,1.0,44,160.47
857,F#4,138.0,1.0,31,160.47
858,E-4,138.0,1.0,31,160.47
859,B3,138.0,1.0,31,160.47
860,G#4,139.0,1.0,44,160.47
861,C#5,139.0,1.0,44,160.47
862,E5,139.0,1.0,44,160.47
863,E4,139.0,1.0,32,160.47
864,C#4,139.0,1.0,32,160.47
865,F#4,140.0,2.0,46,160.47
866,C5,140.0,2.0,46,160.47
867,E-5,140.0,2.0,46,160.47
868,E-4,140.0,2.0,35,160.47
869,C4,140.0,2.0,35,160.47
870,G#3,140.0,2.0,35,160.47
871,E4,142.0,2.0,46,160.47
872,C#5,142.0,2.0,46,160.47
873,C#4,142.0,2.0,31,160.47
874,A3,142.0,2.0,31,160.47
875,A4,144.0,2.0,54,160.47
876,B4,144.0,2.0,54,160.47
877,E-5,144.0,2.0,54,160.47
878,F#3,144.0,2.0,41,160.47
879,A3,144.0,2.0,41,160.47
880,B3,144.0,2.0,41,160.47
881,E-4,144.0,2.0,41,160.47
882,B4,146.0,1.0,58,160.47
883,E5,146.0,1.0,58,160.47
884,G#3,146.0,1.0,43,160.47
885,B3,146.0,1.0,43,160.47
886,E4,146.0,1.0,43,160.47
887,C#5,147.0,1.0,58,160.47
888,E5,147.0,1.0,58,160.47
889,F#5,147.0,1.0,58,160.47
890,F#4,147.0,1.0,46,160.47
891,A3,147.0,1.0,46,160.47
892,C#4,147.0,1.0,46,160.47
893,B4,148.0,3.0,59,160.47
894,B3,148.0,3.996,49,160.47
895,E5,148.0,2.0,68,160.47
896,G#5,148.0,2.0,68,160.47
897,E4,148.0,2.0,54,160.47
898,G#4,148.0,2.0,54,160.47
899,E-5,150.0,2.0,40,160.47
900,F#5,150.0,2.0,40,160.47
901,E-4,150.0,2.0,30,160.47
902,F#4,150.0,2.0,30,160.47
903,A4,151.0,1.0,48,160.47
904,B3,152.0,2.0,40,160.47
905,E4,152.0,2.0,40,160.47
906,G#4,152.0,2.0,40,160.47
907,G#3,152.0,2.0,32,160.47
908,E3,152.0,2.0,32,160.47
909,A3,154.0,1.0,38,160.47
910,E-4,154.0,1.0,38,160.47
911,F#4,154.0,1.0,38,160.47
912,F#3,154.0,1.0,28,160.47
913,E-3,154.0,1.0,28,160.47
914,B2,154.0,1.0,28,160.47
915,G#3,155.0,1.0,38,160.47
916,C#4,155.0,1.0,38,160.47
917,E4,155.0,1.0,38,160.47
918,E3,155.0,1.0,28,160.47
919,C#3,155.0,1.0,28,160.47
920,F#3,156.0,2.0,40,160.47
921,C4,156.0,2.0,40,160.47
922,E-4,156.0,2.0,40,160.47
923,E-3,156.0,2.0,31,160.47
924,C3,156.0,2.0,31,160.47
925,G#2,156.0,2.0,31,160.47
926,A3,158.0,2.0,38,160.47
927,E3,158.0,2.0,38,160.47
928,C#4,158.0,2.0,38,160.47
929,C#3,158.0,2.0,28,160.47
930,A2,158.0,2.0,28,160.47
931,B3,160.0,2.0,52,160.47
932,E3,160.0,1.0,44,160.47
933,G#3,160.0,1.0,44,160.47
934,B1,160.0,4.0,36,160.47
935,B2,160.0,4.0,36,160.47
936,F#3,161.0,3.0,50,160.47
937,A3,161.0,3.0,50,160.47
938,C#4,162.0,1.0,61,160.47
939,E-4,163.0,1.0,69,160.47
940,G#3,164.0,0.333,43,160.47
941,E4,164.0,0.25,49,160.47
942,E2,164.0,1.0,40,160.47
943,E3,164.0,1.0,40,160.47
944,F#4,164.333,0.25,48,160.47
945,G#4,164.667,0.25,49,160.47
946,A4,165.0,0.25,47,160.47
947,B4,165.333,0.25,48,160.47
948,C#5,165.667,0.25,49,160.47
949,D5,166.0,0.25,50,160.47
950,E-5,166.333,0.25,51,160.47
951,E5,166.667,0.25,52,160.47
952,F5,167.0,0.25,52,160.47
953,F#5,167.333,0.25,53,160.47
954,G5,167.667,0.25,53,160.47
955,B4,168.0,2.0,45,160.47
956,G#5,168.0,0.333,57,160.47
957,G#4,168.0,2.0,40,160.47
958,E4,168.0,2.0,40,160.47
959,G5,168.333,0.333,53,160.47
960,G#5,168.667,0.333,53,160.47
961,A5,169.0,0.333,53,160.47
962,G5,169.333,0.333,53,160.47
963,G#5,169.667,0.333,53,160.47
964,A4,170.0,1.0,60,160.47
965,F#4,170.0,1.0,35,160.47
966,E-4,170.0,1.0,35,160.47
967,B3,170.0,1.0,35,160.47
968,G#5,170.333,0.333,54,160.47
969,F#5,170.667,0.333,54,160.47
970,G#4,171.0,1.0,60,160.47
971,E4,171.0,1.0,36,160.47
972,C#4,171.0,1.0,36,160.47
973,F#5,171.333,0.333,53,160.47
974,E5,171.667,0.333,53,160.47
975,F#4,172.0,2.0,60,160.47
976,E-4,172.0,2.0,39,160.47
977,C4,172.0,2.0,39,160.47
978,G#3,172.0,2.0,39,160.47
979,C5,172.333,0.333,54,160.47
980,E-5,172.667,0.333,54,160.47
981,E5,173.0,0.333,54,160.47
982,C5,173.333,0.333,54,160.47
983,E-5,173.667,0.333,54,160.47
984,E4,174.0,2.0,60,160.47
985,C#4,174.0,2.0,36,160.47
986,A3,174.0,2.0,36,160.47
987,A4,174.333,0.333,54,160.47
988,C#5,174.667,0.333,54,160.47
989,E-5,175.0,0.333,54,160.47
990,A4,175.333,0.333,54,160.47
991,C#5,175.667,0.333,54,160.47
992,A4,176.0,2.0,62,160.47
993,F#3,176.0,2.0,43,160.47
994,A3,176.0,2.0,43,160.47
995,B3,176.0,2.0,43,160.47
996,E-4,176.0,2.0,43,160.47
997,D5,176.333,0.333,62,160.47
998,E-5,176.667,0.333,57,160.47
999,E5,177.0,0.333,57,160.47
1000,D5,177.333,0.333,59,160.47
1001,E-5,177.667,0.333,59,160.47
1002,B4,178.0,1.0,71,160.47
1003,G#3,178.0,1.0,48,160.47
1004,B3,178.0,1.0,48,160.47
1005,E4,178.0,1.0,48,160.47
1006,F#5,178.333,0.333,63,160.47
1007,E5,178.667,0.333,64,160.47
1008,C#5,179.0,1.0,74,160.47
1009,F#4,179.0,1.0,52,160.47
1010,A3,179.0,1.0,52,160.47
1011,C#4,179.0,1.0,52,160.47
1012,G#5,179.333,0.333,65,160.47
1013,F#5,179.667,0.333,65,160.47
1014,G#5,180.0,0.333,79,160.47
1015,E5,180.0,2.0,79,160.47
1016,B3,180.0,3.996,53,160.47
1017,E4,180.0,2.0,59,160.47
1018,G#4,180.0,2.0,59,160.47
1019,G5,180.333,0.333,72,160.47
1020,G#5,180.667,0.333,72,160.47
1021,B5,181.0,0.333,68,160.47
1022,A5,181.333,0.333,72,160.47
1023,G#5,181.667,0.333,69,160.47
1024,E-5,182.0,0.333,67,160.47
1025,F#5,182.0,0.333,67,160.47
1026,E-4,182.0,1.0,49,160.47
1027,F#4,182.0,1.0,49,160.47
1028,C#5,182.333,0.333,64,160.47
1029,E5,182.333,0.333,64,160.47
1030,E-5,182.667,0.333,60,160.47
1031,B4,182.667,0.333,60,160.47
1032,B2,183.0,0.333,44,160.47
1033,A4,183.0,0.333,60,160.47
1034,C#5,183.0,0.333,60,160.47
1035,C#3,183.333,0.333,43,160.47
1036,G#4,183.333,0.333,56,160.47
1037,B4,183.333,0.333,56,160.47
1038,E-3,183.667,0.333,41,160.47
1039,F#4,183.667,0.333,53,160.47
1040,A4,183.667,0.333,53,160.47
1041,B3,184.0,2.0,57,160.47
1042,G#4,184.0,0.333,57,160.47
1043,G#3,184.0,2.0,41,160.47
1044,E3,184.0,2.0,41,160.47
1045,G4,184.333,0.333,49,160.47
1046,G#4,184.667,0.333,49,160.47
1047,A4,185.0,0.333,49,160.47
1048,G4,185.333,0.333,49,160.47
1049,G#4,185.667,0.333,49,160.47
1050,A3,186.0,1.0,56,160.47
1051,F#3,186.0,1.0,36,160.47
1052,E-3,186.0,1.0,36,160.47
1053,B2,186.0,1.0,36,160.47
1054,G#4,186.333,0.333,50,160.47
1055,F#4,186.667,0.333,50,160.47
1056,G#3,187.0,1.0,56,160.47
1057,E3,187.0,1.0,37,160.47
1058,C#3,187.0,1.0,37,160.47
1059,F#4,187.333,0.333,49,160.47
1060,E4,187.667,0.333,49,160.47
1061,E-3,188.0,2.0,40,160.47
1062,F#3,188.0,2.0,40,160.47
1063,C3,188.0,2.0,40,160.47
1064,G#2,188.0,2.0,40,160.47
1065,C4,188.333,0.333,50,160.47
1066,E-4,188.667,0.333,50,160.47
1067,E4,189.0,0.333,53,160.47
1068,C4,189.333,0.333,50,160.47
1069,E-4,189.667,0.333,50,160.47
1070,A2,190.0,2.0,37,160.47
1071,C#3,190.0,2.0,37,160.47
1072,E3,190.0,2.0,37,160.47
1073,A3,190.333,0.333,50,160.47
1074,C#4,190.667,0.333,50,160.47
1075,E-4,191.0,0.333,53,160.47
1076,A3,191.333,0.333,50,160.47
1077,C#4,191.667,0.333,50,160.47
1078,E3,192.0,1.0,60,160.47
1079,B1,192.0,4.0,50,160.47
1080,B2,192.0,4.0,50,160.47
1081,G#3,192.333,0.333,56,160.47
1082,B3,192.667,0.333,57,160.47
1083,F#3,193.0,1.0,66,160.47
1084,A3,193.333,0.333,61,160.47
1085,B3,193.667,0.333,61,160.47
1086,F#3,194.0,1.0,74,160.47
1087,A3,194.333,0.333,67,160.47
1088,C#4,194.667,0.333,65,160.47
1089,F#3,195.0,1.0,80,160.47
1090,A3,195.333,0.333,71,160.47
1091,E-4,195.667,0.333,70,160.47
1092,G#3,196.0,0.333,80,160.47
1093,E4,196.0,0.333,80,160.47
1094,E2,196.0,1.0,55,160.47
1095,E3,196.0,1.0,55,160.47
1096,B3,196.333,0.333,75,160.47
1097,G#3,196.667,0.333,77,160.47
1098,B3,197.0,0.333,82,160.47
1099,B2,197.0,2.0,76,160.47
1100,E4,197.333,0.333,77,160.47
1101,G#4,197.667,0.333,77,160.47
1102,F#4,198.0,0.333,82,160.47
1103,E-4,198.333,0.333,77,160.47
1104,B3,198.667,0.333,77,160.47
1105,E-4,199.0,0.333,82,160.47
1106,B2,199.0,2.0,76,160.47
1107,F#4,199.333,0.333,77,160.47
1108,A4,199.667,0.333,77,160.47
1109,G#4,200.0,0.333,82,160.47
1110,E4,200.333,0.333,75,160.47
1111,B3,200.667,0.333,77,160.47
1112,E4,201.0,0.333,82,160.47
1113,B2,201.0,2.0,75,160.47
1114,G#4,201.333,0.333,77,160.47
1115,B4,201.667,0.333,77,160.47
1116,A4,202.0,0.333,82,160.47
1117,F#4,202.333,0.333,77,160.47
1118,E-4,202.667,0.333,77,160.47
1119,E-5,203.0,0.333,82,160.47
1120,B2,203.0,1.0,74,160.47
1121,A4,203.333,0.333,77,160.47
1122,F#4,203.667,0.333,77,160.47
1123,E3,204.0,0.333,73,160.47
1124,G#4,204.0,1.0,69,160.47
1125,E5,204.0,1.0,69,160.47
1126,B2,204.333,0.333,67,160.47
1127,G#2,204.667,0.333,69,160.47
1128,B4,205.0,2.0,80,160.47
1129,B2,205.0,0.333,73,160.47
1130,E3,205.333,0.333,69,160.47
1131,G#3,205.667,0.333,69,160.47
1132,F#3,206.0,0.333,73,160.47
1133,E-3,206.333,0.333,69,160.47
1134,B2,206.667,0.333,69,160.47
1135,B4,207.0,2.0,80,160.47
1136,E-3,207.0,0.333,73,160.47
1137,F#3,207.333,0.333,69,160.47
1138,A3,207.667,0.333,69,160.47
1139,G#3,208.0,0.333,73,160.47
1140,E3,208.333,0.333,67,160.47
1141,B2,208.667,0.333,69,160.47
1142,B4,209.0,2.0,80,160.47
1143,E3,209.0,0.333,73,160.47
1144,G#3,209.333,0.333,69,160.47
1145,B3,209.667,0.333,69,160.47
1146,A3,210.0,0.333,73,160.47
1147,F#3,210.333,0.333,69,160.47
1148,E-3,210.667,0.333,69,160.47
1149,B4,211.0,1.0,80,160.47
1150,E-4,211.0,0.333,73,160.47
1151,A3,211.333,0.333,69,160.47
1152,F#3,211.667,0.333,69,160.47
1153,E5,212.0,0.333,82,160.47
1154,G#3,212.0,0.333,64,160.47
1155,B4,212.333,0.333,75,160.47
1156,B3,212.333,0.333,56,160.47
1157,G#4,212.667,0.333,77,160.47
1158,E4,212.667,0.333,56,160.47
1159,B4,213.0,0.333,82,160.47
1160,B3,213.0,0.333,64,160.47
1161,E5,213.333,0.333,77,160.47
1162,G#3,213.333,0.333,57,160.47
1163,G#5,213.667,0.333,77,160.47
1164,E3,213.667,0.333,57,160.47
1165,F#5,214.0,0.333,82,160.47
1166,E-3,214.0,0.333,64,160.47
1167,E-5,214.333,0.333,77,160.47
1168,F#3,214.333,0.333,56,160.47
1169,B4,214.667,0.333,77,160.47
1170,A3,214.667,0.333,56,160.47
1171,E-5,215.0,0.333,82,160.47
1172,F#3,215.0,0.333,64,160.47
1173,F#5,215.333,0.333,77,160.47
1174,E-3,215.333,0.333,57,160.47
1175,A5,215.667,0.333,77,160.47
1176,B2,215.667,0.333,58,160.47
1177,G#5,216.0,0.333,82,160.47
1178,E3,216.012,0.333,64,160.47
1179,E5,216.333,0.333,75,160.47
1180,G#3,216.333,0.333,56,160.47
1181,B4,216.667,0.333,77,160.47
1182,B3,216.667,0.333,56,160.47
1183,E5,217.0,0.333,82,160.47
1184,G#3,217.0,0.333,64,160.47
1185,G#5,217.333,0.333,77,160.47
1186,E3,217.333,0.333,57,160.47
1187,B5,217.667,0.333,77,160.47
1188,B2,217.679,0.333,57,160.47
1189,A5,218.0,0.333,82,160.47
1190,E-3,218.0,0.333,64,160.47
1191,F#5,218.333,0.333,77,160.47
1192,A3,218.333,0.333,56,160.47
1193,E-5,218.667,0.333,77,160.47
1194,B3,218.679,0.333,56,160.47
1195,E-6,219.0,0.333,82,160.47
1196,A3,219.0,0.333,64,160.47
1197,A5,219.333,0.333,77,160.47
1198,B3,219.333,0.333,57,160.47
1199,F#5,219.667,0.333,77,160.47
1200,F#4,219.667,0.333,58,160.47
1201,E6,220.0,0.5,84,160.47
1202,G#3,220.0,0.333,64,160.47
1203,B5,220.333,0.333,74,160.47
1204,B3,220.333,0.333,55,160.47
1205,G#5,220.667,0.333,74,160.47
1206,E4,220.667,0.333,55,160.47
1207,B5,221.0,0.5,79,160.47
1208,E3,221.0,0.333,62,160.47
1209,G#5,221.333,0.333,73,160.47
1210,G#3,221.333,0.333,55,160.47
1211,E5,221.667,0.333,72,160.47
1212,B3,221.667,0.333,54,160.47
1213,A5,222.0,0.5,78,160.47
1214,F#3,222.0,0.333,59,160.47
1215,F#5,222.333,0.333,71,160.47
1216,A3,222.333,0.333,51,160.47
1217,E-5,222.667,0.333,70,160.47
1218,B3,222.667,0.333,51,160.47
1219,E-6,223.0,0.5,77,160.47
1220,A3,223.0,0.333,57,160.47
1221,B5,223.333,0.333,69,160.47
1222,B3,223.333,0.333,51,160.47
1223,F#5,223.667,0.333,67,160.47
1224,F#4,223.667,0.333,51,160.47
1225,E6,224.0,0.5,74,160.47
1226,G#3,224.0,0.333,56,160.47
1227,B5,224.333,0.333,65,160.47
1228,B3,224.333,0.333,48,160.47
1229,G#5,224.667,0.333,65,160.47
1230,E4,224.667,0.333,48,160.47
1231,B5,225.0,0.5,72,160.47
1232,E3,225.0,0.333,54,160.47
1233,G#5,225.333,0.333,64,160.47
1234,G#3,225.333,0.333,48,160.47
1235,E5,225.667,0.333,63,160.47
1236,B3,225.667,0.333,47,160.47
1237,A5,226.0,0.5,69,160.47
1238,F#3,226.0,0.333,51,160.47
1239,F#5,226.333,0.333,62,160.47
1240,A3,226.333,0.333,44,160.47
1241,E-5,226.667,0.333,60,160.47
1242,B3,226.667,0.333,44,160.47
1243,E-6,227.0,0.5,68,160.47
1244,A3,227.0,0.333,50,160.47
1245,B5,227.333,0.333,59,160.47
1246,B3,227.333,0.333,44,160.47
1247,F#5,227.667,0.333,58,160.47
1248,F#4,227.667,0.333,44,160.47
1249,E6,228.0,0.25,64,160.47
1250,G#3,228.0,0.25,50,160.47
1251,B5,228.25,0.25,58,160.47
1252,B3,228.25,0.25,43,160.47
1253,G#5,228.5,0.25,58,160.47
1254,E3,228.5,0.25,43,160.47
1255,E5,228.75,0.25,59,160.47
1256,B3,228.75,0.25,44,160.47
1257,A5,229.0,0.25,65,160.47
1258,F#3,229.0,0.25,51,160.47
1259,F#5,229.25,0.25,59,160.47
1260,B3,229.25,0.25,44,160.47
1261,E-6,229.5,0.25,62,160.47
1262,A3,229.5,0.25,44,160.47
1263,B5,229.75,0.25,63,160.47
1264,B3,229.75,0.25,44,160.47
1265,E6,230.0,0.25,69,160.47
1266,G#3,230.0,0.25,52,160.47
1267,B5,230.25,0.25,63,160.47
1268,B3,230.25,0.25,46,160.47
1269,G#5,230.5,0.25,63,160.47
1270,E3,230.5,0.25,47,160.47
1271,E5,230.75,0.25,64,160.47
1272,B3,230.75,0.25,49,160.47
1273,A5,231.0,0.25,71,160.47
1274,F#3,231.0,0.25,55,160.47
1275,F#5,231.25,0.25,66,160.47
1276,B3,231.25,0.25,48,160.47
1277,E-6,231.5,0.25,67,160.47
1278,A3,231.5,0.25,48,160.47
1279,B5,231.75,0.25,67,160.47
1280,B3,231.75,0.25,49,160.47
1281,E6,232.0,0.25,74,160.47
1282,G#3,232.0,0.25,58,160.47
1283,B5,232.25,0.25,67,160.47
1284,B3,232.25,0.25,50,160.47
1285,E-6,232.5,0.25,69,160.47
1286,A3,232.5,0.25,51,160.47
1287,B5,232.75,0.25,69,160.47
1288,B3,232.75,0.25,52,160.47
1289,E6,233.0,0.25,77,160.47
1290,G#3,233.0,0.25,60,160.47
1291,B5,233.25,0.25,77,160.47
1292,B3,233.25,0.25,52,160.47
1293,E-6,233.5,0.25,72,160.47
1294,A3,233.5,0.25,52,160.47
1295,B5,233.75,0.25,73,160.47
1296,B3,233.75,0.25,54,160.47
1297,E6,234.0,0.25,80,160.47
1298,G#3,234.0,0.25,62,160.47
1299,B5,234.25,0.25,73,160.47
1300,B3,234.25,0.25,55,160.47
1301,E-6,234.5,0.25,74,160.47
1302,A3,234.5,0.25,55,160.47
1303,B5,234.75,0.25,74,160.47
1304,B3,234.75,0.25,57,160.47
1305,E6,235.0,0.25,82,160.47
1306,G#3,235.0,0.25,65,160.47
1307,B5,235.25,0.25,85,160.47
1308,B3,235.25,0.25,57,160.47
1309,E-6,235.5,0.25,78,160.47
1310,A3,235.5,0.25,57,160.47
1311,B5,235.75,0.25,79,160.47
1312,B3,235.75,0.25,58,160.47
1313,E6,236.0,0.25,89,160.47
1314,G#3,236.0,0.25,70,160.47
1315,B5,236.25,0.25,81,160.47
1316,B3,236.25,0.25,60,160.47
1317,D6,236.5,0.25,81,160.47
1318,G#2,236.5,0.25,60,160.47
1319,B5,236.75,0.25,81,160.47
1320,E3,236.75,0.25,62,160.47
1321,D6,237.0,0.25,89,160.47
1322,G#2,237.0,0.25,70,160.47
1323,B5,237.25,0.25,83,160.47
1324,E3,237.25,0.25,60,160.47
1325,D6,237.5,0.25,82,160.47
1326,G#2,237.5,0.25,60,160.47
1327,B5,237.75,0.25,82,160.47
1328,E3,237.75,0.25,60,160.47
1329,D6,238.0,0.25,89,160.47
1330,G#2,238.0,0.25,70,160.47
1331,B5,238.25,0.25,81,160.47
1332,E3,238.25,0.25,60,160.47
1333,D6,238.5,0.25,81,160.47
1334,G#2,238.5,0.25,60,160.47
1335,B5,238.75,0.25,81,160.47
1336,E3,238.75,0.25,62,160.47
1337,D6,239.0,0.25,89,160.47
1338,G#2,239.0,0.25,70,160.47
1339,B5,239.25,0.25,83,160.47
1340,E3,239.25,0.25,60,160.47
1341,D6,239.5,0.25,82,160.47
1342,G#2,239.5,0.25,60,160.47
1343,B5,239.75,0.25,82,160.47
1344,E3,239.75,0.25,60,160.47
1345,D6,240.0,0.5,89,160.47
1346,G#2,240.0,0.25,70,160.47
1347,E3,240.25,0.25,60,160.47
1348,C#6,240.5,0.25,81,160.47
1349,G#2,240.5,0.25,60,160.47
1350,B5,240.75,0.25,81,160.47
1351,E3,240.75,0.25,62,160.47
1352,A5,241.0,0.25,88,160.47
1353,G#2,241.0,0.25,70,160.47
1354,G#5,241.25,0.25,83,160.47
1355,E3,241.25,0.25,60,160.47
1356,F#5,241.5,0.25,83,160.47
1357,G#2,241.5,0.25,60,160.47
1358,E5,241.75,0.25,83,160.47
1359,E3,241.75,0.25,61,160.47
1360,D5,242.0,0.25,88,160.47
1361,G#2,242.0,0.25,71,160.47
1362,C#5,242.25,0.25,82,160.47
1363,E3,242.25,0.25,61,160.47
1364,B4,242.5,0.25,83,160.47
1365,G#2,242.5,0.25,61,160.47
1366,A4,242.75,0.25,83,160.47
1367,E3,242.75,0.25,63,160.47
1368,G#4,243.0,0.25,91,160.47
1369,G#2,243.0,0.25,72,160.47
1370,F#4,243.25,0.25,86,160.47
1371,E3,243.25,0.25,62,160.47
1372,E4,243.5,0.25,85,160.47
1373,G#2,243.5,0.25,62,160.47
1374,D4,243.75,0.25,85,160.47
1375,E3,243.75,0.25,62,160.47
1376,C#4,244.0,0.25,93,160.47
1377,A2,244.0,0.375,71,160.47
1378,C#3,244.0,0.375,71,160.47
1379,E3,244.0,0.375,71,160.47
1380,E-4,244.25,0.25,84,160.47
1381,E4,244.5,0.25,84,160.47
1382,A2,244.5,0.375,64,160.47
1383,C#3,244.5,0.375,64,160.47
1384,E3,244.5,0.375,64,160.47
1385,E-4,244.75,0.25,86,160.47
1386,E4,245.0,0.25,92,160.47
1387,G#4,245.25,0.25,85,160.47
1388,A4,245.5,0.25,85,160.47
1389,A2,245.5,0.375,64,160.47
1390,C#3,245.5,0.375,64,160.47
1391,E3,245.5,0.375,64,160.47
1392,G#4,245.75,0.25,85,160.47
1393,A4,246.0,0.25,93,160.47
1394,A2,246.0,0.375,71,160.47
1395,C#3,246.0,0.375,71,160.47
1396,E3,246.0,0.375,71,160.47
1397,C5,246.25,0.25,84,160.47
1398,C#5,246.5,0.25,84,160.47
1399,A2,246.5,0.375,64,160.47
1400,C#3,246.5,0.375,64,160.47
1401,E3,246.5,0.375,64,160.47
1402,C5,246.75,0.25,84,160.47
1403,C#5,247.0,0.25,93,160.47
1404,E-5,247.25,0.25,84,160.47
1405,E5,247.5,0.25,84,160.47
1406,A2,247.5,0.375,64,160.47
1407,C#3,247.5,0.375,64,160.47
1408,E3,247.5,0.375,64,160.47
1409,E-5,247.75,0.25,84,160.47
1410,E5,248.0,0.25,95,160.47
1411,A2,248.0,0.375,71,160.47
1412,C#3,248.0,0.375,71,160.47
1413,E3,248.0,0.375,71,160.47
1414,G#5,248.25,0.25,86,160.47
1415,A5,248.5,0.25,86,160.47
1416,A2,248.5,0.375,64,160.47
1417,C#3,248.5,0.375,64,160.47
1418,E3,248.5,0.375,64,160.47
1419,G#5,248.75,0.25,86,160.47
1420,A5,249.0,0.25,95,160.47
1421,C6,249.25,0.25,86,160.47
1422,C#6,249.5,0.25,86,160.47
1423,A2,249.5,0.375,64,160.47
1424,C#3,249.5,0.375,64,160.47
1425,E3,249.5,0.375,64,160.47
1426,C6,249.75,0.25,86,160.47
1427,C#6,250.0,0.25,95,160.47
1428,A2,250.0,0.375,71,160.47
1429,C#3,250.0,0.375,71,160.47
1430,E3,250.0,0.375,71,160.47
1431,E-6,250.25,0.25,86,160.47
1432,E6,250.5,0.25,86,160.47
1433,A2,250.5,0.375,64,160.47
1434,C#3,250.5,0.375,64,160.47
1435,E3,250.5,0.375,64,160.47
1436,E-6,250.75,0.25,86,160.47
1437,E6,251.0,0.25,95,160.47
1438,E-6,251.25,0.25,86,160.47
1439,C#6,251.5,0.25,86,160.47
1440,A2,251.5,0.375,64,160.47
1441,C#3,251.5,0.375,64,160.47
1442,E3,251.5,0.375,64,160.47
1443,C6,251.75,0.25,86,160.47
1444,C#6,252.0,0.25,95,160.47
1445,E3,252.0,0.375,70,160.47
1446,B-2,252.0,0.375,70,160.47
1447,C#3,252.0,0.375,70,160.47
1448,F#3,252.0,0.375,70,160.47
1449,C6,252.25,0.25,86,160.47
1450,C#6,252.5,0.25,86,160.47
1451,E3,252.5,0.375,63,160.47
1452,B-2,252.5,0.375,63,160.47
1453,C#3,252.5,0.375,63,160.47
1454,F#3,252.5,0.375,63,160.47
1455,E-6,252.75,0.25,86,160.47
1456,E6,253.0,0.25,95,160.47
1457,E-6,253.25,0.25,86,160.47
1458,C#6,253.5,0.25,86,160.47
1459,E3,253.5,0.375,63,160.47
1460,B-2,253.5,0.375,63,160.47
1461,C#3,253.5,0.375,63,160.47
1462,F#3,253.5,0.375,63,160.47
1463,C6,253.75,0.25,86,160.47
1464,C#6,254.0,0.25,95,160.47
1465,E3,254.0,0.375,70,160.47
1466,B-2,254.0,0.375,70,160.47
1467,C#3,254.0,0.375,70,160.47
1468,F#3,254.0,0.375,70,160.47
1469,C6,254.25,0.25,86,160.47
1470,C#6,254.5,0.25,86,160.47
1471,E3,254.5,0.375,63,160.47
1472,B-2,254.5,0.375,63,160.47
1473,C#3,254.5,0.375,63,160.47
1474,F#3,254.5,0.375,63,160.47
1475,E-6,254.75,0.25,86,160.47
1476,E6,255.0,0.25,95,160.47
1477,E-6,255.25,0.25,86,160.47
1478,C#6,255.5,0.25,86,160.47
1479,E3,255.5,0.375,63,160.47
1480,B-2,255.5,0.375,63,160.47
1481,C#3,255.5,0.375,63,160.47
1482,F#3,255.5,0.375,63,160.47
1483,C6,255.75,0.25,86,160.47
1484,C#6,256.0,0.25,95,160.47
1485,E3,256.0,0.375,70,160.47
1486,B-2,256.0,0.375,70,160.47
1487,C#3,256.0,0.375,70,160.47
1488,F#3,256.0,0.375,70,160.47
1489,C6,256.25,0.25,86,160.47
1490,C#6,256.5,0.25,86,160.47
1491,E3,256.5,0.375,63,160.47
1492,B-2,256.5,0.375,63,160.47
1493,C#3,256.5,0.375,63,160.47
1494,F#3,256.5,0.375,63,160.47
1495,E-6,256.75,0.25,86,160.47
1496,E6,257.0,0.25,95,160.47
1497,E-6,257.25,0.25,86,160.47
1498,C#6,257.5,0.25,86,160.47
1499,E3,257.5,0.375,63,160.47
1500,B-2,257.5,0.375,63,160.47
1501,C#3,257.5,0.375,63,160.47
1502,F#3,257.5,0.375,63,160.47
1503,C6,257.75,0.25,86,160.47
1504,C#6,258.0,0.25,95,160.47
1505,E3,258.0,0.375,70,160.47
1506,B-2,258.0,0.375,70,160.47
1507,C#3,258.0,0.375,70,160.47
1508,F#3,258.0,0.375,70,160.47
1509,C6,258.25,0.25,86,160.47
1510,C#6,258.5,0.25,86,160.47
1511,E3,258.5,0.375,63,160.47
1512,B-2,258.5,0.375,63,160.47
1513,C#3,258.5,0.375,63,160.47
1514,F#3,258.5,0.375,63,160.47
1515,E-6,258.75,0.25,86,160.47
1516,E6,259.0,0.25,95,160.47
1517,E-6,259.25,0.25,86,160.47
1518,E6,259.5,0.25,86,160.47
1519,E3,259.5,0.375,63,160.47
1520,B-2,259.5,0.375,63,160.47
1521,C#3,259.5,0.375,63,160.47
1522,F#3,259.5,0.375,63,160.47
1523,C#6,259.75,0.25,86,160.47
1524,B2,260.0,0.25,78,160.47
1525,B4,260.0,0.25,95,160.47
1526,B5,260.0,0.25,95,160.47
1527,E3,260.25,0.25,70,160.47
1528,G#3,260.5,0.25,70,160.47
1529,B4,260.5,0.25,80,160.47
1530,B5,260.5,0.25,80,160.47
1531,B3,260.75,0.25,70,160.47
1532,B2,261.0,0.25,77,160.47
1533,G#4,261.0,0.25,81,160.47
1534,G#5,261.0,0.25,81,160.47
1535,E3,261.25,0.25,70,160.47
1536,G#3,261.5,0.25,70,160.47
1537,E4,261.5,0.25,80,160.47
1538,E5,261.5,0.25,80,160.47
1539,B3,261.75,0.25,70,160.47
1540,B2,262.0,0.25,75,160.47
1541,E5,262.0,0.25,95,160.47
1542,E6,262.0,0.25,95,160.47
1543,E3,262.25,0.25,70,160.47
1544,G#3,262.5,0.25,70,160.47
1545,E5,262.5,0.25,80,160.47
1546,E6,262.5,0.25,80,160.47
1547,B3,262.75,0.25,70,160.47
1548,B2,263.0,0.25,75,160.47
1549,B4,263.0,0.25,80,160.47
1550,B5,263.0,0.25,80,160.47
1551,E3,263.25,0.25,70,160.47
1552,G#3,263.5,0.25,70,160.47
1553,G#4,263.5,0.25,80,160.47
1554,G#5,263.5,0.25,80,160.47
1555,B3,263.75,0.25,70,160.47
1556,B2,264.0,0.25,78,160.47
1557,B4,264.0,0.25,95,160.47
1558,B5,264.0,0.25,95,160.47
1559,E3,264.25,0.25,70,160.47
1560,G#3,264.5,0.25,70,160.47
1561,B4,264.5,0.25,80,160.47
1562,B5,264.5,0.25,80,160.47
1563,B3,264.75,0.25,70,160.47
1564,B2,265.0,0.25,77,160.47
1565,G#4,265.0,0.25,81,160.47
1566,G#5,265.0,0.25,81,160.47
1567,E3,265.25,0.25,70,160.47
1568,G#3,265.5,0.25,70,160.47
1569,E4,265.5,0.25,80,160.47
1570,E5,265.5,0.25,80,160.47
1571,B3,265.75,0.25,70,160.47
1572,G#3,266.0,0.25,75,160.47
1573,E5,266.0,0.25,95,160.47
1574,E6,266.0,0.25,95,160.47
1575,G#3,266.5,0.25,70,160.47
1576,E5,266.5,0.25,80,160.47
1577,E6,266.5,0.25,80,160.47
1578,E3,267.0,0.25,75,160.47
1579,B4,267.0,0.25,80,160.47
1580,B5,267.0,0.25,80,160.47
1581,B2,267.5,0.25,70,160.47
1582,G#4,267.5,0.25,80,160.47
1583,G#5,267.5,0.25,80,160.47
1584,B3,268.0,0.25,86,160.47
1585,G#5,268.25,0.25,47,160.47
1586,B5,268.5,0.248,50,160.47
1587,G#3,268.5,0.25,47,160.47
1588,G#5,268.75,0.25,47,160.47
1589,B5,269.0,0.248,51,160.47
1590,E4,269.0,0.25,53,160.47
1591,G#5,269.25,0.25,47,160.47
1592,B5,269.5,0.248,50,160.47
1593,B3,269.5,0.25,48,160.47
1594,G#5,269.75,0.25,47,160.47
1595,B5,270.0,0.248,51,160.47
1596,G#4,270.0,0.25,52,160.47
1597,G#5,270.25,0.25,47,160.47
1598,B5,270.5,0.248,50,160.47
1599,E4,270.5,0.25,41,160.47
1600,G#5,270.75,0.25,47,160.47
1601,B5,271.0,0.248,52,160.47
1602,B4,271.0,0.25,50,160.47
1603,G#5,271.25,0.25,47,160.47
1604,B5,271.5,0.248,51,160.47
1605,G#4,271.5,0.25,41,160.47
1606,G#5,271.75,0.25,47,160.47
1607,B5,272.0,0.248,50,160.47
1608,E5,272.0,0.25,50,160.47
1609,G#5,272.25,0.25,47,160.47
1610,B5,272.5,0.248,50,160.47
1611,B4,272.5,0.25,41,160.47
1612,G#5,272.75,0.25,47,160.47
1613,B5,273.0,0.248,51,160.47
1614,E5,273.0,0.25,50,160.47
1615,G#5,273.25,0.25,47,160.47
1616,B5,273.5,0.248,50,160.47
1617,B4,273.5,0.25,39,160.47
1618,G#5,273.75,0.25,47,160.47
1619,B5,274.0,0.248,51,160.47
1620,E5,274.0,0.25,50,160.47
1621,G#5,274.25,0.25,47,160.47
1622,B5,274.5,0.248,50,160.47
1623,B4,274.5,0.25,41,160.47
1624,G#5,274.75,0.25,47,160.47
1625,B5,275.0,0.248,52,160.47
1626,E5,275.0,0.25,50,160.47
1627,G#5,275.25,0.25,47,160.47
1628,B5,275.5,0.248,51,160.47
1629,B4,275.5,0.25,42,160.47
1630,G#5,275.75,0.25,47,160.47
1631,E-5,276.0,0.25,46,160.47
1632,A5,276.25,0.25,42,160.47
1633,B5,276.5,0.248,45,160.47
1634,B4,276.5,0.25,37,160.47
1635,A5,276.75,0.25,41,160.47
1636,C6,277.0,0.248,44,160.47
1637,E-5,277.0,0.25,43,160.47
1638,A5,277.25,0.25,40,160.47
1639,B5,277.5,0.248,42,160.47
1640,B4,277.5,0.25,36,160.47
1641,A5,277.75,0.25,39,160.47
1642,C6,278.0,0.248,42,160.47
1643,E-5,278.0,0.25,41,160.47
1644,A5,278.25,0.25,38,160.47
1645,B5,278.5,0.248,40,160.47
1646,B4,278.5,0.25,32,160.47
1647,A5,278.75,0.25,37,160.47
1648,C6,279.0,0.248,40,160.47
1649,E-5,279.0,0.25,39,160.47
1650,A5,279.25,0.25,36,160.47
1651,B5,279.5,0.248,39,160.47
1652,B4,279.5,0.25,31,160.47
1653,A5,279.75,0.25,35,160.47
1654,C6,280.0,0.248,37,160.47
1655,E-5,280.0,0.25,36,160.47
1656,A5,280.25,0.25,34,160.47
1657,B5,280.5,0.248,36,160.47
1658,B4,280.5,0.25,30,160.47
1659,A5,280.75,0.25,34,160.47
1660,C6,281.0,0.248,37,160.47
1661,E-5,281.0,0.25,36,160.47
1662,A5,281.25,0.25,34,160.47
1663,B5,281.5,0.248,36,160.47
1664,B4,281.5,0.25,31,160.47
1665,A5,281.75,0.25,34,160.47
1666,C6,282.0,0.248,37,160.47
1667,E-5,282.0,0.25,36,160.47
1668,A5,282.25,0.25,34,160.47
1669,B5,282.5,0.248,36,160.47
1670,B4,282.5,0.25,29,160.47
1671,A5,282.75,0.25,34,160.47
1672,C6,283.0,0.248,38,160.47
1673,E-5,283.0,0.25,36,160.47
1674,A5,283.25,0.25,34,160.47
1675,B5,283.5,0.248,37,160.47
1676,B4,283.5,0.25,30,160.47
1677,A5,283.75,0.25,34,160.47
1678,C#6,284.0,0.252,37,160.47
1679,E-5,284.0,0.167,37,160.47
1680,E5,284.167,0.167,32,160.47
1681,A5,284.25,0.188,34,160.47
1682,E-5,284.333,0.167,36,160.47
1683,B5,284.5,0.252,36,160.47
1684,E5,284.5,0.167,31,160.47
1685,E-5,284.667,0.167,36,160.47
1686,A5,284.75,0.25,35,160.47
1687,E5,284.833,0.167,33,160.47
1688,C#6,285.0,0.252,38,160.47
1689,E-5,285.0,0.167,37,160.47
1690,E5,285.167,0.167,33,160.47
1691,A5,285.25,0.25,36,160.47
1692,E-5,285.333,0.167,37,160.47
1693,B5,285.5,0.252,38,160.47
1694,E5,285.5,0.167,33,160.47
1695,E-5,285.667,0.167,38,160.47
1696,A5,285.75,0.25,36,160.47
1697,E5,285.833,0.167,34,160.47
1698,C#6,286.0,0.252,40,160.47
1699,E-5,286.0,0.167,38,160.47
1700,E5,286.167,0.167,35,160.47
1701,A5,286.25,0.25,37,160.47
1702,E-5,286.333,0.167,39,160.47
1703,B5,286.5,0.252,40,160.47
1704,E5,286.5,0.167,35,160.47
1705,E-5,286.667,0.167,39,160.47
1706,A5,286.75,0.25,38,160.47
1707,E5,286.833,0.167,36,160.47
1708,C#6,287.0,0.252,43,160.47
1709,E-5,287.0,0.167,40,160.47
1710,E5,287.167,0.167,36,160.47
1711,A5,287.25,0.25,39,160.47
1712,E-5,287.333,0.167,40,160.47
1713,B5,287.5,0.252,43,160.47
1714,E5,287.5,0.167,36,160.47
1715,E-5,287.667,0.167,41,160.47
1716,A5,287.75,0.25,40,160.47
1717,E5,287.833,0.167,37,160.47
1718,F#6,288.0,0.252,44,160.47
1719,E-5,288.0,0.167,41,160.47
1720,E5,288.167,0.167,36,160.47
1721,B5,288.25,0.25,41,160.47
1722,A5,288.25,0.25,41,160.47
1723,E-5,288.333,0.167,42,160.47
1724,F#6,288.5,0.252,43,160.47
1725,E5,288.5,0.167,37,160.47
1726,E-5,288.667,0.167,42,160.47
1727,B5,288.75,0.25,41,160.47
1728,A5,288.75,0.25,41,160.47
1729,E5,288.833,0.167,37,160.47
1730,F#6,289.0,0.252,46,160.47
1731,E-5,289.0,0.167,43,160.47
1732,E5,289.167,0.167,38,160.47
1733,B5,289.25,0.25,42,160.47
1734,A5,289.25,0.25,42,160.47
1735,E-5,289.333,0.167,43,160.47
1736,F#6,289.5,0.252,46,160.47
1737,E5,289.5,0.167,39,160.47
1738,E-5,289.667,0.167,44,160.47
1739,B5,289.75,0.25,44,160.47
1740,A5,289.75,0.25,44,160.47
1741,E5,289.833,0.167,39,160.47
1742,F#6,290.0,0.169,49,160.47
1743,E-5,290.0,0.167,44,160.47
1744,E5,290.167,0.167,38,160.47
1745,B5,290.25,0.25,45,160.47
1746,A5,290.25,0.25,45,160.47
1747,E-5,290.333,0.167,45,160.47
1748,F#6,290.5,0.252,49,160.47
1749,E5,290.5,0.167,38,160.47
1750,E-5,290.667,0.167,45,160.47
1751,B5,290.75,0.25,47,160.47
1752,A5,290.75,0.25,47,160.47
1753,E5,290.833,0.167,40,160.47
1754,F#6,291.0,0.252,54,160.47
1755,E-5,291.0,0.2,50,160.47
1756,E5,291.2,0.2,44,160.47
1757,B5,291.25,0.25,48,160.47
1758,A5,291.25,0.25,48,160.47
1759,E-5,291.4,0.2,50,160.47
1760,F#6,291.5,0.252,53,160.47
1761,C#5,291.6,0.2,52,160.47
1762,B5,291.75,0.25,49,160.47
1763,A5,291.75,0.25,49,160.47
1764,E-5,291.8,0.2,47,160.47
1765,E4,292.0,8.0,48,160.47
1766,E5,292.0,2.0,57,160.47
1767,G#5,292.0,3.0,72,160.47
1768,B5,292.0,3.0,72,160.47
1769,E6,292.0,3.0,72,160.47
1770,G#4,294.0,2.0,40,160.47
1771,D5,294.0,2.0,40,160.47
1772,B4,294.0,2.0,40,160.47
1773,E6,295.0,0.25,58,160.47
1774,D6,295.25,0.25,57,160.47
1775,C6,295.5,0.25,56,160.47
1776,B5,295.75,0.25,55,160.47
1777,C6,296.0,0.25,58,160.47
1778,C5,296.0,2.0,43,160.47
1779,A4,296.0,2.0,43,160.47
1780,B5,296.25,0.25,57,160.47
1781,A5,296.5,0.25,56,160.47
1782,G#5,296.75,0.25,55,160.47
1783,A5,297.0,0.25,51,160.47
1784,B5,297.25,0.25,52,160.47
1785,C6,297.5,0.25,53,160.47
1786,D6,297.75,0.25,54,160.47
1787,E6,298.0,0.25,56,160.47
1788,D5,298.0,2.0,41,160.47
1789,B4,298.0,2.0,41,160.47
1790,G#4,298.0,2.0,41,160.47
1791,F6,298.25,0.25,57,160.47
1792,E6,298.5,0.25,57,160.47
1793,E-6,298.75,0.25,56,160.47
1794,E6,299.0,0.25,56,160.47
1795,D6,299.25,0.25,56,160.47
1796,C6,299.5,0.25,56,160.47
1797,B5,299.75,0.25,56,160.47
1798,C6,300.0,0.25,57,160.47
1799,A4,300.0,1.0,44,160.47
1800,C5,300.0,1.0,44,160.47
1801,D6,300.25,0.25,57,160.47
1802,C6,300.5,0.25,57,160.47
1803,B5,300.75,0.25,53,160.47
1804,A5,301.0,0.25,56,160.47
1805,G#5,301.25,0.25,52,160.47
1806,A5,301.5,0.25,56,160.47
1807,B5,301.75,0.25,52,160.47
1808,C5,302.0,2.0,45,160.47
1809,C6,302.0,1.0,59,160.47
1810,A3,302.0,2.0,41,160.47
1811,C4,302.0,2.0,41,160.47
1812,F#4,302.0,2.0,41,160.47
1813,A4,302.0,2.0,41,160.47
1814,A5,303.0,0.5,52,160.47
1815,F#5,303.5,0.5,52,160.47
1816,B4,304.0,2.0,45,160.47
1817,B5,304.0,1.0,57,160.47
1818,B3,304.0,2.0,41,160.47
1819,E4,304.0,2.0,41,160.47
1820,G4,304.0,2.0,41,160.47
1821,G5,305.0,0.5,52,160.47
1822,E5,305.5,0.5,52,160.47
1823,A4,306.0,2.0,45,160.47
1824,A5,306.0,1.0,57,160.47
1825,E-4,306.0,2.0,39,160.47
1826,F#4,306.0,2.0,39,160.47
1827,B3,306.0,2.0,39,160.47
1828,F#5,307.0,0.5,52,160.47
1829,E-5,307.5,0.5,52,160.47
1830,E5,308.0,3.0,72,160.47
1831,E4,308.0,2.0,56,160.47
1832,E3,308.0,8.0,45,160.47
1833,D4,310.0,2.0,40,160.47
1834,B3,310.0,2.0,40,160.47
1835,G#3,310.0,2.0,40,160.47
1836,E5,311.0,0.25,58,160.47
1837,D5,311.25,0.25,57,160.47
1838,C5,311.5,0.25,56,160.47
1839,B4,311.75,0.25,55,160.47
1840,C5,312.0,0.25,58,160.47
1841,A3,312.0,2.0,43,160.47
1842,C4,312.0,2.0,43,160.47
1843,B4,312.25,0.25,57,160.47
1844,A4,312.5,0.25,56,160.47
1845,G#4,312.75,0.25,55,160.47
1846,A4,313.0,0.25,51,160.47
1847,B4,313.25,0.25,52,160.47
1848,C5,313.5,0.25,53,160.47
1849,D5,313.75,0.25,54,160.47
1850,E5,314.0,0.25,56,160.47
1851,D4,314.0,2.0,41,160.47
1852,B3,314.0,2.0,41,160.47
1853,G#3,314.0,2.0,41,160.47
1854,F5,314.25,0.25,57,160.47
1855,E5,314.5,0.25,57,160.47
1856,E-5,314.75,0.25,56,160.47
1857,E5,315.0,0.25,56,160.47
1858,D5,315.25,0.25,56,160.47
1859,C5,315.5,0.25,56,160.47
1860,B4,315.75,0.25,56,160.47
1861,C5,316.0,0.25,57,160.47
1862,A3,316.0,1.0,48,160.47
1863,C4,316.0,1.0,48,160.47
1864,D5,316.25,0.25,57,160.47
1865,C5,316.5,0.25,57,160.47
1866,B4,316.75,0.25,53,160.47
1867,A4,317.0,0.25,56,160.47
1868,G#4,317.25,0.25,52,160.47
1869,A4,317.5,0.25,56,160.47
1870,B4,317.75,0.25,52,160.47
1871,C4,318.0,2.0,45,160.47
1872,C5,318.0,1.0,59,160.47
1873,A2,318.0,2.0,41,160.47
1874,C3,318.0,2.0,41,160.47
1875,F#3,318.0,2.0,41,160.47
1876,A3,318.0,2.0,41,160.47
1877,A4,319.0,0.5,52,160.47
1878,F#4,319.5,0.5,52,160.47
1879,B3,320.0,2.0,45,160.47
1880,B4,320.0,1.0,57,160.47
1881,B2,320.0,2.0,41,160.47
1882,E3,320.0,2.0,41,160.47
1883,G3,320.0,2.0,41,160.47
1884,G4,321.0,0.5,52,160.47
1885,E4,321.5,0.5,52,160.47
1886,A3,322.0,2.0,45,160.47
1887,A4,322.0,1.0,57,160.47
1888,F#3,322.0,2.0,39,160.47
1889,E-3,322.0,2.0,39,160.47
1890,B2,322.0,2.0,39,160.47
1891,F#4,323.0,0.5,52,160.47
1892,E-4,323.5,0.5,52,160.47
1893,E4,324.0,0.5,55,160.47
1894,G3,324.0,0.5,40,160.47
1895,E3,324.0,0.5,40,160.47
1896,E5,325.0,0.5,67,160.47
1897,G2,325.0,1.0,42,160.47
1898,E3,325.0,1.5,51,160.47
1899,D5,325.5,0.5,62,160.47
1900,C5,326.0,1.0,66,160.47
1901,A2,326.0,2.0,42,160.47
1902,F3,326.5,0.5,49,160.47
1903,A4,327.0,0.5,61,160.47
1904,G3,327.0,0.5,51,160.47
1905,F4,327.5,0.5,54,160.47
1906,A3,327.5,0.5,55,160.47
1907,B4,328.0,1.0,51,160.47
1908,B2,328.0,4.0,35,160.47
1909,B3,328.0,2.0,38,160.47
1910,G3,328.0,2.0,38,160.47
1911,G4,329.0,0.5,46,160.47
1912,E4,329.5,0.5,46,160.47
1913,A4,330.0,1.0,51,160.47
1914,F#3,330.0,2.0,36,160.47
1915,A3,330.0,2.0,36,160.47
1916,F#4,331.0,0.5,46,160.47
1917,E-4,331.5,0.5,46,160.47
1918,E4,332.0,0.5,55,160.47
1919,C3,332.0,0.5,39,160.47
1920,E3,332.0,0.5,39,160.47
1921,G3,332.0,0.5,39,160.47
1922,C5,333.0,0.5,66,160.47
1923,E2,333.0,1.0,42,160.47
1924,C3,333.0,1.5,51,160.47
1925,B4,333.5,0.5,62,160.47
1926,A4,334.0,1.0,66,160.47
1927,F2,334.0,2.0,42,160.47
1928,D3,334.5,0.5,49,160.47
1929,F4,335.0,0.5,61,160.47
1930,E3,335.0,0.5,51,160.47
1931,D4,335.5,0.5,54,160.47
1932,F3,335.5,0.5,55,160.47
1933,G4,336.0,1.0,51,160.47
1934,G2,336.0,4.0,35,160.47
1935,E3,336.0,2.0,38,160.47
1936,G3,336.0,2.0,38,160.47
1937,E4,337.0,0.5,46,160.47
1938,C4,337.5,0.5,46,160.47
1939,F4,338.0,1.0,51,160.47
1940,F3,338.0,2.0,36,160.47
1941,D3,338.0,2.0,36,160.47
1942,D4,339.0,0.5,46,160.47
1943,B3,339.5,0.5,46,160.47
1944,C4,340.0,0.5,40,160.47
1945,C2,340.0,0.375,25,160.47
1946,C3,340.0,0.375,30,160.47
1947,E3,340.0,0.375,30,160.47
1948,C3,340.5,0.375,30,160.47
1949,E3,340.5,0.375,30,160.47
1950,G2,340.5,0.375,24,160.47
1951,C2,340.5,0.375,24,160.47
1952,C3,341.0,0.375,30,160.47
1953,E3,341.0,0.375,30,160.47
1954,G2,341.0,0.375,24,160.47
1955,C2,341.0,0.375,24,160.47
1956,C3,341.5,0.375,31,160.47
1957,E3,341.5,0.375,31,160.47
1958,G2,341.5,0.375,24,160.47
1959,C2,341.5,0.375,24,160.47
1960,C3,342.0,0.375,31,160.47
1961,E3,342.0,0.375,31,160.47
1962,G2,342.0,0.375,24,160.47
1963,C2,342.0,0.375,24,160.47
1964,C3,342.5,0.375,31,160.47
1965,E3,342.5,0.375,31,160.47
1966,G2,342.5,0.375,26,160.47
1967,C2,342.5,0.375,26,160.47
1968,C3,343.0,0.375,32,160.47
1969,E3,343.0,0.375,32,160.47
1970,G2,343.0,0.375,26,160.47
1971,C2,343.0,0.375,26,160.47
1972,C3,343.5,0.375,32,160.47
1973,E3,343.5,0.375,32,160.47
1974,G2,343.5,0.375,26,160.47
1975,C2,343.5,0.375,26,160.47
1976,C3,344.0,0.375,33,160.47
1977,E3,344.0,0.375,33,160.47
1978,C2,344.0,0.375,28,160.47
1979,G2,344.0,0.375,28,160.47
1980,C3,344.5,0.375,33,160.47
1981,E3,344.5,0.375,33,160.47
1982,C2,344.5,0.375,24,160.47
1983,G2,344.5,0.375,24,160.47
1984,C3,345.0,0.375,34,160.47
1985,E3,345.0,0.375,34,160.47
1986,C2,345.0,0.375,26,160.47
1987,G2,345.0,0.375,26,160.47
1988,C3,345.5,0.375,35,160.47
1989,E3,345.5,0.375,35,160.47
1990,C2,345.5,0.375,26,160.47
1991,G2,345.5,0.375,26,160.47
1992,C3,346.0,0.375,36,160.47
1993,E3,346.0,0.375,36,160.47
1994,C2,346.0,0.375,28,160.47
1995,G2,346.0,0.375,28,160.47
1996,C3,346.5,0.375,37,160.47
1997,E3,346.5,0.375,37,160.47
1998,C2,346.5,0.375,28,160.47
1999,G2,346.5,0.375,28,160.47
2000,D3,347.0,0.375,37,160.47
2001,F#3,347.0,0.375,37,160.47
2002,C2,347.0,0.375,28,160.47
2003,A2,347.0,0.375,28,160.47
2004,D3,347.5,0.375,37,160.47
2005,F#3,347.5,0.375,37,160.47
2006,C2,347.5,0.375,28,160.47
2007,A2,347.5,0.375,28,160.47
2008,D3,348.0,1.5,42,160.47
2009,G3,348.0,1.5,42,160.47
2010,B1,348.0,0.375,28,160.47
2011,G2,348.0,0.375,28,160.47
2012,B1,348.5,0.375,28,160.47
2013,G2,348.5,0.375,28,160.47
2014,B1,349.0,0.375,28,160.47
2015,G2,349.0,0.375,28,160.47
2016,B3,349.5,0.25,40,160.47
2017,B1,349.5,0.375,28,160.47
2018,G2,349.5,0.375,28,160.47
2019,A3,349.75,0.25,40,160.47
2020,G3,350.0,0.25,45,160.47
2021,B1,350.0,0.375,28,160.47
2022,G2,350.0,0.375,28,160.47
2023,B1,350.5,0.375,28,160.47
2024,G2,350.5,0.375,28,160.47
2025,B1,351.0,0.375,28,160.47
2026,G2,351.0,0.375,28,160.47
2027,B1,351.5,0.375,28,160.47
2028,G2,351.5,0.375,28,160.47
2029,C#6,351.875,0.125,46,160.47
2030,D6,352.0,1.25,57,160.47
2031,B1,352.0,0.375,28,160.47
2032,G2,352.0,0.375,28,160.47
2033,B1,352.5,0.375,28,160.47
2034,G2,352.5,0.375,28,160.47
2035,B1,353.0,0.375,28,160.47
2036,G2,353.0,0.375,28,160.47
2037,C6,353.25,0.25,48,160.47
2038,B5,353.5,0.25,47,160.47
2039,B1,353.5,0.375,28,160.47
2040,G2,353.5,0.375,28,160.47
2041,A5,353.75,0.25,45,160.47
2042,G5,354.0,0.5,44,160.47
2043,B1,354.0,0.375,28,160.47
2044,G2,354.0,0.375,28,160.47
2045,B1,354.5,0.375,28,160.47
2046,G2,354.5,0.375,28,160.47
2047,B1,355.0,0.375,28,160.47
2048,G2,355.0,0.375,28,160.47
2049,B1,355.5,0.375,28,160.47
2050,G2,355.5,0.375,28,160.47
2051,B-2,356.0,0.375,32,160.47
2052,D3,356.0,0.375,32,160.47
2053,F2,356.0,0.375,28,160.47
2054,B-1,356.0,0.375,28,160.47
2055,B-2,356.5,0.375,32,160.47
2056,D3,356.5,0.375,32,160.47
2057,F2,356.5,0.375,28,160.47
2058,B-1,356.5,0.375,28,160.47
2059,B-2,357.0,0.375,32,160.47
2060,D3,357.0,0.375,32,160.47
2061,F2,357.0,0.375,28,160.47
2062,B-1,357.0,0.375,28,160.47
2063,B-2,357.5,0.375,33,160.47
2064,D3,357.5,0.375,33,160.47
2065,F2,357.5,0.375,28,160.47
2066,B-1,357.5,0.375,28,160.47
2067,B-2,358.0,0.375,34,160.47
2068,D3,358.0,0.375,34,160.47
2069,F2,358.0,0.375,28,160.47
2070,B-1,358.0,0.375,28,160.47
2071,B-2,358.5,0.375,34,160.47
2072,D3,358.5,0.375,34,160.47
2073,F2,358.5,0.375,28,160.47
2074,B-1,358.5,0.375,28,160.47
2075,B-2,359.0,0.375,35,160.47
2076,D3,359.0,0.375,35,160.47
2077,F2,359.0,0.375,28,160.47
2078,B-1,359.0,0.375,28,160.47
2079,B-2,359.5,0.375,36,160.47
2080,D3,359.5,0.375,36,160.47
2081,F2,359.5,0.375,28,160.47
2082,B-1,359.5,0.375,28,160.47
2083,B-2,360.0,0.375,36,160.47
2084,D3,360.0,0.375,36,160.47
2085,B-1,360.0,0.375,28,160.47
2086,F2,360.0,0.375,28,160.47
2087,B-2,360.5,0.375,37,160.47
2088,D3,360.5,0.375,37,160.47
2089,B-1,360.5,0.375,28,160.47
2090,F2,360.5,0.375,28,160.47
2091,B-2,361.0,0.375,37,160.47
2092,D3,361.0,0.375,37,160.47
2093,B-1,361.0,0.375,28,160.47
2094,F2,361.0,0.375,28,160.47
2095,B-2,361.5,0.375,37,160.47
2096,D3,361.5,0.375,37,160.47
2097,B-1,361.5,0.375,28,160.47
2098,F2,361.5,0.375,28,160.47
2099,B-2,362.0,0.375,37,160.47
2100,D3,362.0,0.375,37,160.47
2101,B-1,362.0,0.375,28,160.47
2102,F2,362.0,0.375,28,160.47
2103,B-2,362.5,0.375,37,160.47
2104,D3,362.5,0.375,37,160.47
2105,B-1,362.5,0.375,28,160.47
2106,F2,362.5,0.375,28,160.47
2107,C3,363.0,0.375,37,160.47
2108,E3,363.0,0.375,37,160.47
2109,B-1,363.0,0.375,28,160.47
2110,G2,363.0,0.375,28,160.47
2111,C3,363.5,0.375,37,160.47
2112,E3,363.5,0.375,37,160.47
2113,B-1,363.5,0.375,28,160.47
2114,G2,363.5,0.375,28,160.47
2115,C3,364.0,1.5,42,160.47
2116,F3,364.0,1.5,42,160.47
2117,A1,364.0,0.375,28,160.47
2118,F2,364.0,0.375,28,160.47
2119,A1,364.5,0.375,28,160.47
2120,F2,364.5,0.375,28,160.47
2121,A1,365.0,0.375,28,160.47
2122,F2,365.0,0.375,28,160.47
2123,A3,365.5,0.25,40,160.47
2124,A1,365.5,0.375,28,160.47
2125,F2,365.5,0.375,28,160.47
2126,G3,365.75,0.25,40,160.47
2127,F3,366.0,0.25,45,160.47
2128,A1,366.0,0.375,28,160.47
2129,F2,366.0,0.375,28,160.47
2130,A1,366.5,0.375,28,160.47
2131,F2,366.5,0.375,28,160.47
2132,A1,367.0,0.375,28,160.47
2133,F2,367.0,0.375,28,160.47
2134,A1,367.5,0.375,28,160.47
2135,F2,367.5,0.375,28,160.47
2136,B5,367.875,0.125,46,160.47
2137,C6,368.0,1.25,57,160.47
2138,G#1,368.0,0.375,28,160.47
2139,F2,368.0,0.375,28,160.47
2140,G#1,368.5,0.375,28,160.47
2141,F2,368.5,0.375,28,160.47
2142,G#1,369.0,0.375,28,160.47
2143,F2,369.0,0.375,28,160.47
2144,B-5,369.25,0.25,50,160.47
2145,G#5,369.5,0.25,49,160.47
2146,G#1,369.5,0.375,28,160.47
2147,F2,369.5,0.375,28,160.47
2148,G5,369.75,0.25,47,160.47
2149,F5,370.0,0.5,46,160.47
2150,G#1,370.0,0.375,28,160.47
2151,F2,370.0,0.375,28,160.47
2152,G#1,370.5,0.375,28,160.47
2153,F2,370.5,0.375,28,160.47
2154,G#1,371.0,0.375,28,160.47
2155,F2,371.0,0.375,28,160.47
2156,G#1,371.5,0.375,28,160.47
2157,F2,371.5,0.375,28,160.47
2158,E6,371.875,0.125,67,160.47
2159,F6,372.0,3.0,73,160.47
2160,G1,372.0,0.375,33,160.47
2161,F2,372.0,0.375,33,160.47
2162,G1,372.5,0.375,35,160.47
2163,F2,372.5,0.375,35,160.47
2164,G1,373.0,0.375,36,160.47
2165,F2,373.0,0.375,36,160.47
2166,G1,373.5,0.375,38,160.47
2167,F2,373.5,0.375,38,160.47
2168,G1,374.0,0.375,40,160.47
2169,F2,374.0,0.375,40,160.47
2170,G1,374.5,0.375,42,160.47
2171,F2,374.5,0.375,42,160.47
2172,F6,375.0,0.25,74,160.47
2173,G#1,375.0,0.375,42,160.47
2174,F2,375.0,0.375,42,160.47
2175,E-6,375.25,0.25,73,160.47
2176,D6,375.5,0.25,71,160.47
2177,G#1,375.5,0.375,44,160.47
2178,F2,375.5,0.375,44,160.47
2179,C6,375.75,0.25,70,160.47
2180,B5,376.0,0.25,72,160.47
2181,G1,376.0,0.375,48,160.47
2182,F2,376.0,0.375,48,160.47
2183,C6,376.25,0.25,71,160.47
2184,D6,376.5,0.25,72,160.47
2185,G1,376.5,0.375,48,160.47
2186,F2,376.5,0.375,48,160.47
2187,E-6,376.75,0.25,73,160.47
2188,F6,377.0,0.25,74,160.47
2189,G#1,377.0,0.375,50,160.47
2190,F2,377.0,0.375,50,160.47
2191,E-6,377.25,0.25,72,160.47
2192,D6,377.5,0.25,71,160.47
2193,G#1,377.5,0.375,50,160.47
2194,F2,377.5,0.375,50,160.47
2195,C6,377.75,0.25,69,160.47
2196,B5,378.0,0.25,72,160.47
2197,G1,378.0,0.375,53,160.47
2198,F2,378.0,0.375,53,160.47
2199,C6,378.25,0.25,75,160.47
2200,D6,378.5,0.25,77,160.47
2201,G1,378.5,0.375,56,160.47
2202,F2,378.5,0.375,56,160.47
2203,E-6,378.75,0.25,80,160.47
2204,F6,379.0,0.25,80,160.47
2205,G#1,379.0,0.375,59,160.47
2206,F2,379.0,0.375,59,160.47
2207,E-6,379.25,0.25,80,160.47
2208,D6,379.5,0.25,79,160.47
2209,G#1,379.5,0.375,61,160.47
2210,F2,379.5,0.375,61,160.47
2211,C6,379.75,0.25,81,160.47
2212,B5,380.0,0.25,85,160.47
2213,G1,380.0,1.0,78,160.47
2214,F2,380.0,1.0,78,160.47
2215,C6,380.25,0.25,89,160.47
2216,D6,380.5,0.25,94,160.47
2217,E-6,380.75,0.25,98,160.47
2218,F6,381.0,0.25,100,160.47
2219,G2,381.0,2.5,88,160.47
2220,G3,381.0,2.5,88,160.47
2221,E-6,381.25,0.25,98,160.47
2222,D6,381.5,0.25,96,160.47
2223,C6,381.75,0.25,94,160.47
2224,B5,382.0,0.25,93,160.47
2225,G#5,382.25,0.25,91,160.47
2226,G5,382.5,0.25,89,160.47
2227,F5,382.75,0.25,87,160.47
2228,E-5,383.0,0.25,85,160.47
2229,D5,383.25,0.25,83,160.47
2230,C5,383.5,0.25,81,160.47
2231,A3,383.5,0.25,67,160.47
2232,B4,383.75,0.25,79,160.47
2233,B3,383.75,0.25,70,160.47
2234,C5,384.0,0.375,93,160.47
2235,C4,384.0,0.375,72,160.47
2236,G4,385.0,0.375,83,160.47
2237,G2,385.0,0.375,61,160.47
2238,G3,385.0,0.375,61,160.47
2239,E-4,386.0,0.375,72,160.47
2240,E-2,386.0,0.375,57,160.47
2241,E-3,386.0,0.375,57,160.47
2242,C4,387.0,0.375,64,160.47
2243,C2,387.0,0.375,52,160.47
2244,C3,387.0,0.375,52,160.47
2245,G3,388.0,4.0,60,160.47
2246,G1,388.0,4.0,50,160.47
2247,G2,388.0,4.0,50,160.47
2248,E4,392.0,0.248,37,160.47
2249,C2,392.0,4.0,30,160.47
2250,C3,392.0,0.5,30,160.47
2251,C4,392.25,0.25,33,160.47
2252,E4,392.5,0.248,37,160.47
2253,C3,392.5,0.248,31,160.47
2254,C4,392.75,0.25,33,160.47
2255,G3,392.75,0.25,26,160.47
2256,E4,393.0,0.248,37,160.47
2257,C3,393.0,0.248,31,160.47
2258,C4,393.25,0.25,33,160.47
2259,G3,393.25,0.25,27,160.47
2260,E4,393.5,0.248,36,160.47
2261,C3,393.5,0.248,31,160.47
2262,C4,393.75,0.25,33,160.47
2263,G3,393.75,0.25,27,160.47
2264,E4,394.0,0.248,36,160.47
2265,C3,394.0,0.248,31,160.47
2266,C4,394.25,0.25,33,160.47
2267,G3,394.25,0.25,26,160.47
2268,E4,394.5,0.248,37,160.47
2269,C3,394.5,0.248,31,160.47
2270,C4,394.75,0.25,33,160.47
2271,G3,394.75,0.25,27,160.47
2272,E4,395.0,0.248,36,160.47
2273,C3,395.0,0.248,31,160.47
2274,C4,395.25,0.25,33,160.47
2275,G3,395.25,0.25,27,160.47
2276,E4,395.5,0.248,36,160.47
2277,C3,395.5,0.248,31,160.47
2278,C4,395.75,0.25,33,160.47
2279,G3,395.75,0.25,25,160.47
2280,E4,396.0,0.248,37,160.47
2281,C3,396.0,0.248,31,160.47
2282,C4,396.25,0.25,33,160.47
2283,G3,396.25,0.25,26,160.47
2284,E4,396.5,0.248,37,160.47
2285,C3,396.5,0.248,31,160.47
2286,C4,396.75,0.25,33,160.47
2287,G3,396.75,0.25,26,160.47
2288,E4,397.0,0.248,37,160.47
2289,C3,397.0,0.248,31,160.47
2290,C4,397.25,0.25,33,160.47
2291,G3,397.25,0.25,27,160.47
2292,E4,397.5,0.248,36,160.47
2293,C3,397.5,0.248,31,160.47
2294,C4,397.75,0.25,33,160.47
2295,G3,397.75,0.25,27,160.47
2296,E4,398.0,0.248,36,160.47
2297,C3,398.0,0.248,31,160.47
2298,C4,398.25,0.25,33,160.47
2299,G3,398.25,0.25,26,160.47
2300,E4,398.5,0.248,37,160.47
2301,C3,398.5,0.248,31,160.47
2302,C4,398.75,0.25,33,160.47
2303,G3,398.75,0.25,27,160.47
2304,F#4,399.0,0.248,36,160.47
2305,C3,399.0,0.248,31,160.47
2306,D4,399.25,0.25,33,160.47
2307,A3,399.25,0.25,27,160.47
2308,F#4,399.5,0.248,36,160.47
2309,C3,399.5,0.248,31,160.47
2310,D4,399.75,0.25,33,160.47
2311,A3,399.75,0.25,25,160.47
2312,G4,400.0,1.5,46,160.47
2313,B2,400.0,0.375,28,160.47
2314,D3,400.0,0.375,28,160.47
2315,G3,400.25,0.25,25,160.47
2316,B2,400.5,0.375,28,160.47
2317,D3,400.5,0.375,28,160.47
2318,G3,400.75,0.25,25,160.47
2319,B2,401.0,0.375,28,160.47
2320,D3,401.0,0.375,28,160.47
2321,G3,401.25,0.25,25,160.47
2322,B4,401.5,0.25,40,160.47
2323,B2,401.5,0.375,28,160.47
2324,D3,401.5,0.375,28,160.47
2325,A4,401.75,0.25,40,160.47
2326,G3,401.75,0.25,25,160.47
2327,G4,402.0,0.25,45,160.47
2328,B2,402.0,0.375,28,160.47
2329,D3,402.0,0.375,28,160.47
2330,G3,402.25,0.25,25,160.47
2331,B2,402.5,0.375,28,160.47
2332,D3,402.5,0.375,28,160.47
2333,G3,402.75,0.25,25,160.47
2334,B2,403.0,0.375,28,160.47
2335,D3,403.0,0.375,28,160.47
2336,G3,403.25,0.25,25,160.47
2337,B2,403.5,0.375,28,160.47
2338,D3,403.5,0.375,28,160.47
2339,G3,403.75,0.25,25,160.47
2340,C#6,403.875,0.125,46,160.47
2341,D6,404.0,1.25,57,160.47
2342,B2,404.0,0.375,28,160.47
2343,D3,404.0,0.375,28,160.47
2344,G3,404.25,0.25,25,160.47
2345,B2,404.5,0.375,28,160.47
2346,D3,404.5,0.375,28,160.47
2347,G3,404.75,0.25,25,160.47
2348,B2,405.0,0.375,28,160.47
2349,D3,405.0,0.375,28,160.47
2350,C6,405.25,0.25,48,160.47
2351,G3,405.25,0.25,25,160.47
2352,B5,405.5,0.25,47,160.47
2353,B2,405.5,0.375,28,160.47
2354,D3,405.5,0.375,28,160.47
2355,A5,405.75,0.25,45,160.47
2356,G3,405.75,0.25,25,160.47
2357,G5,406.0,0.5,44,160.47
2358,B2,406.0,0.375,28,160.47
2359,D3,406.0,0.375,28,160.47
2360,G3,406.25,0.25,25,160.47
2361,B2,406.5,0.375,28,160.47
2362,D3,406.5,0.375,28,160.47
2363,G3,406.75,0.25,25,160.47
2364,B2,407.0,0.375,28,160.47
2365,D3,407.0,0.375,28,160.47
2366,G3,407.25,0.25,25,160.47
2367,B2,407.5,0.375,28,160.47
2368,D3,407.5,0.375,28,160.47
2369,G3,407.75,0.25,25,160.47
2370,F4,408.0,0.248,40,160.47
2371,D2,408.0,4.0,33,160.47
2372,D3,408.0,0.5,33,160.47
2373,D4,408.25,0.25,36,160.47
2374,F4,408.5,0.248,40,160.47
2375,D3,408.5,0.248,34,160.47
2376,D4,408.75,0.25,36,160.47
2377,A3,408.75,0.25,28,160.47
2378,F4,409.0,0.248,40,160.47
2379,D3,409.0,0.248,34,160.47
2380,D4,409.25,0.25,36,160.47
2381,A3,409.25,0.25,29,160.47
2382,F4,409.5,0.248,39,160.47
2383,D3,409.5,0.248,34,160.47
2384,D4,409.75,0.25,36,160.47
2385,A3,409.75,0.25,29,160.47
2386,F4,410.0,0.248,39,160.47
2387,D3,410.0,0.248,34,160.47
2388,D4,410.25,0.25,36,160.47
2389,A3,410.25,0.25,28,160.47
2390,F4,410.5,0.248,41,160.47
2391,D3,410.5,0.248,34,160.47
2392,D4,410.75,0.25,36,160.47
2393,A3,410.75,0.25,29,160.47
2394,F4,411.0,0.248,40,160.47
2395,D3,411.0,0.248,34,160.47
2396,D4,411.25,0.25,37,160.47
2397,A3,411.25,0.25,30,160.47
2398,F4,411.5,0.248,40,160.47
2399,D3,411.5,0.248,35,160.47
2400,D4,411.75,0.25,37,160.47
2401,A3,411.75,0.25,28,160.47
2402,F4,412.0,0.248,41,160.47
2403,D3,412.0,0.248,35,160.47
2404,D4,412.25,0.25,37,160.47
2405,A3,412.25,0.25,29,160.47
2406,F4,412.5,0.248,41,160.47
2407,D3,412.5,0.248,35,160.47
2408,D4,412.75,0.25,37,160.47
2409,A3,412.75,0.25,29,160.47
2410,F4,413.0,0.248,42,160.47
2411,D3,413.0,0.248,35,160.47
2412,D4,413.25,0.25,37,160.47
2413,A3,413.25,0.25,30,160.47
2414,F4,413.5,0.248,41,160.47
2415,D3,413.5,0.248,35,160.47
2416,D4,413.75,0.25,38,160.47
2417,A3,413.75,0.25,30,160.47
2418,F4,414.0,0.248,41,160.47
2419,D3,414.0,0.248,36,160.47
2420,D4,414.25,0.25,38,160.47
2421,A3,414.25,0.25,29,160.47
2422,F4,414.5,0.248,42,160.47
2423,D3,414.5,0.248,36,160.47
2424,D4,414.75,0.25,38,160.47
2425,A3,414.75,0.25,31,160.47
2426,G#4,415.0,0.248,41,160.47
2427,D3,415.0,0.248,36,160.47
2428,E4,415.25,0.25,38,160.47
2429,B3,415.25,0.25,31,160.47
2430,G#4,415.5,0.248,42,160.47
2431,D3,415.5,0.248,36,160.47
2432,E4,415.75,0.25,38,160.47
2433,B3,415.75,0.25,29,160.47
2434,A4,416.0,1.5,55,160.47
2435,C3,416.0,0.375,34,160.47
2436,E3,416.0,0.375,34,160.47
2437,A3,416.25,0.25,29,160.47
2438,C3,416.5,0.375,34,160.47
2439,E3,416.5,0.375,34,160.47
2440,A3,416.75,0.25,29,160.47
2441,C3,417.0,0.375,34,160.47
2442,E3,417.0,0.375,34,160.47
2443,A3,417.25,0.25,29,160.47
2444,C5,417.5,0.25,48,160.47
2445,C3,417.5,0.375,34,160.47
2446,E3,417.5,0.375,34,160.47
2447,B4,417.75,0.25,48,160.47
2448,A3,417.75,0.25,29,160.47
2449,A4,418.0,0.25,53,160.47
2450,C3,418.0,0.375,34,160.47
2451,E3,418.0,0.375,34,160.47
2452,A3,418.25,0.25,29,160.47
2453,C3,418.5,0.375,34,160.47
2454,E3,418.5,0.375,34,160.47
2455,A3,418.75,0.25,29,160.47
2456,C3,419.0,0.375,34,160.47
2457,E3,419.0,0.375,34,160.47
2458,A3,419.25,0.25,29,160.47
2459,C3,419.5,0.375,34,160.47
2460,E3,419.5,0.375,34,160.47
2461,A3,419.75,0.25,29,160.47
2462,E-6,419.875,0.125,55,160.47
2463,E6,420.0,1.25,68,160.47
2464,C3,420.0,0.375,34,160.47
2465,E3,420.0,0.375,34,160.47
2466,A3,420.25,0.25,29,160.47
2467,C3,420.5,0.375,34,160.47
2468,E3,420.5,0.375,34,160.47
2469,A3,420.75,0.25,29,160.47
2470,C3,421.0,0.375,34,160.47
2471,E3,421.0,0.375,34,160.47
2472,D6,421.25,0.25,59,160.47
2473,A3,421.25,0.25,29,160.47
2474,C6,421.5,0.25,58,160.47
2475,C3,421.5,0.375,34,160.47
2476,E3,421.5,0.375,34,160.47
2477,B5,421.75,0.25,57,160.47
2478,A3,421.75,0.25,31,160.47
2479,A5,422.0,0.5,57,160.47
2480,C3,422.0,0.375,36,160.47
2481,E3,422.0,0.375,36,160.47
2482,A3,422.25,0.25,31,160.47
2483,C3,422.5,0.375,36,160.47
2484,E3,422.5,0.375,36,160.47
2485,A3,422.75,0.25,31,160.47
2486,C3,423.0,0.375,37,160.47
2487,E3,423.0,0.375,37,160.47
2488,A3,423.25,0.25,33,160.47
2489,C3,423.5,0.375,38,160.47
2490,E3,423.5,0.375,38,160.47
2491,A3,423.75,0.25,33,160.47
2492,E-6,423.875,0.125,66,160.47
2493,E6,424.0,1.25,85,160.47
2494,C3,424.0,0.375,41,160.47
2495,E3,424.0,0.375,41,160.47
2496,B-3,424.25,0.25,36,160.47
2497,C3,424.5,0.375,42,160.47
2498,E3,424.5,0.375,42,160.47
2499,B-3,424.75,0.25,37,160.47
2500,C3,425.0,0.375,43,160.47
2501,E3,425.0,0.375,43,160.47
2502,D6,425.25,0.25,76,160.47
2503,B-3,425.25,0.25,38,160.47
2504,C6,425.5,0.25,75,160.47
2505,C3,425.5,0.375,43,160.47
2506,E3,425.5,0.375,43,160.47
2507,B5,425.75,0.25,71,160.47
2508,B-3,425.75,0.25,38,160.47
2509,B-5,426.0,0.5,71,160.47
2510,C3,426.0,0.375,46,160.47
2511,E3,426.0,0.375,46,160.47
2512,B-3,426.25,0.25,40,160.47
2513,C3,426.5,0.375,46,160.47
2514,E3,426.5,0.375,46,160.47
2515,B-3,426.75,0.25,40,160.47
2516,C3,427.0,0.375,46,160.47
2517,E3,427.0,0.375,46,160.47
2518,B-3,427.25,0.25,42,160.47
2519,C3,427.5,0.375,48,160.47
2520,E3,427.5,0.375,48,160.47
2521,B-3,427.75,0.25,42,160.47
2522,B5,428.0,1.292,56,160.47
2523,B2,428.0,0.292,40,160.47
2524,E-3,428.25,0.292,35,160.47
2525,F#3,428.5,0.292,35,160.47
2526,B3,428.75,0.25,35,160.47
2527,B2,429.0,0.292,41,160.47
2528,A5,429.25,0.292,54,160.47
2529,E-3,429.25,0.292,35,160.47
2530,G5,429.5,0.292,53,160.47
2531,F#3,429.5,0.292,35,160.47
2532,F#5,429.75,0.292,51,160.47
2533,B3,429.75,0.25,35,160.47
2534,G5,430.0,0.292,53,160.47
2535,B2,430.0,0.292,39,160.47
2536,F#5,430.25,0.292,52,160.47
2537,E3,430.25,0.292,35,160.47
2538,E5,430.5,0.292,51,160.47
2539,G3,430.5,0.292,35,160.47
2540,E-5,430.75,0.292,50,160.47
2541,B3,430.75,0.25,35,160.47
2542,E5,431.0,0.292,50,160.47
2543,B2,431.0,0.292,40,160.47
2544,G5,431.25,0.292,52,160.47
2545,E3,431.25,0.292,35,160.47
2546,F#5,431.5,0.292,50,160.47
2547,G3,431.5,0.292,35,160.47
2548,E5,431.75,0.292,50,160.47
2549,B3,431.75,0.25,35,160.47
2550,E-5,432.0,0.292,50,160.47
2551,B2,432.0,0.292,40,160.47
2552,C#5,432.25,0.292,49,160.47
2553,F#3,432.25,0.292,35,160.47
2554,B4,432.5,0.292,48,160.47
2555,A3,432.5,0.292,35,160.47
2556,B-4,432.75,0.292,47,160.47
2557,B3,432.75,0.25,35,160.47
2558,B4,433.0,0.292,49,160.47
2559,B2,433.0,0.292,40,160.47
2560,C#5,433.25,0.292,49,160.47
2561,F#3,433.25,0.292,35,160.47
2562,D5,433.5,0.292,49,160.47
2563,A3,433.5,0.292,35,160.47
2564,E-5,433.75,0.292,50,160.47
2565,B3,433.75,0.25,35,160.47
2566,E5,434.0,0.292,50,160.47
2567,B2,434.0,0.292,40,160.47
2568,E-5,434.25,0.292,50,160.47
2569,E3,434.25,0.292,35,160.47
2570,E5,434.5,0.292,51,160.47
2571,G3,434.5,0.292,35,160.47
2572,F#5,434.75,0.292,51,160.47
2573,B3,434.75,0.25,35,160.47
2574,G5,435.0,0.292,49,160.47
2575,B2,435.0,0.292,40,160.47
2576,G#5,435.25,0.292,50,160.47
2577,E3,435.25,0.292,35,160.47
2578,A5,435.5,0.292,52,160.47
2579,G3,435.5,0.292,35,160.47
2580,B-5,435.75,0.292,53,160.47
2581,B3,435.75,0.25,35,160.47
2582,B5,436.0,0.292,55,160.47
2583,B2,436.0,0.292,40,160.47
2584,B-5,436.25,0.292,53,160.47
2585,E-3,436.25,0.292,35,160.47
2586,B5,436.5,0.292,53,160.47
2587,F#3,436.5,0.292,35,160.47
2588,B-5,436.75,0.292,50,160.47
2589,B3,436.75,0.25,35,160.47
2590,B5,437.0,0.292,52,160.47
2591,B2,437.0,0.292,40,160.47
2592,A5,437.25,0.292,52,160.47
2593,E-3,437.25,0.292,35,160.47
2594,G5,437.5,0.292,51,160.47
2595,F#3,437.5,0.292,35,160.47
2596,F#5,437.75,0.292,50,160.47
2597,B3,437.75,0.25,35,160.47
2598,G5,438.0,0.292,52,160.47
2599,B2,438.0,0.292,40,160.47
2600,F#5,438.25,0.292,51,160.47
2601,E3,438.25,0.292,35,160.47
2602,E5,438.5,0.292,49,160.47
2603,G3,438.5,0.292,35,160.47
2604,E-5,438.75,0.292,50,160.47
2605,B3,438.75,0.25,35,160.47
2606,E5,439.0,0.292,50,160.47
2607,B2,439.0,0.292,41,160.47
2608,G5,439.25,0.292,53,160.47
2609,E3,439.25,0.292,35,160.47
2610,F#5,439.5,0.292,50,160.47
2611,G3,439.5,0.292,35,160.47
2612,E5,439.75,0.292,50,160.47
2613,B3,439.75,0.25,35,160.47
2614,E-5,440.0,0.292,50,160.47
2615,B2,440.0,0.292,40,160.47
2616,C#5,440.25,0.292,49,160.47
2617,F#3,440.25,0.292,35,160.47
2618,B4,440.5,0.292,48,160.47
2619,A3,440.5,0.292,35,160.47
2620,B-4,440.75,0.292,47,160.47
2621,B3,440.75,0.25,35,160.47
2622,B4,441.0,0.292,49,160.47
2623,B2,441.0,0.292,40,160.47
2624,C#5,441.25,0.292,50,160.47
2625,F#3,441.25,0.292,36,160.47
2626,D5,441.5,0.292,50,160.47
2627,A3,441.5,0.292,36,160.47
2628,E-5,441.75,0.292,52,160.47
2629,B3,441.75,0.25,36,160.47
2630,E5,442.0,0.292,52,160.47
2631,B2,442.0,0.292,42,160.47
2632,E-5,442.25,0.292,52,160.47
2633,E3,442.25,0.292,36,160.47
2634,E5,442.5,0.292,54,160.47
2635,G3,442.5,0.292,37,160.47
2636,F#5,442.75,0.292,54,160.47
2637,B3,442.75,0.25,37,160.47
2638,G5,443.0,0.292,56,160.47
2639,B2,443.0,0.292,42,160.47
2640,G#5,443.25,0.292,58,160.47
2641,E3,443.25,0.292,37,160.47
2642,A5,443.5,0.292,60,160.47
2643,G3,443.5,0.292,37,160.47
2644,B-5,443.75,0.292,62,160.47
2645,B3,443.75,0.25,38,160.47
2646,B5,444.0,0.25,68,160.47
2647,B2,444.0,0.25,44,160.47
2648,F#5,444.25,0.25,60,160.47
2649,E-3,444.25,0.25,38,160.47
2650,E-5,444.5,0.25,61,160.47
2651,F3,444.5,0.25,38,160.47
2652,B4,444.75,0.25,61,160.47
2653,B3,444.75,0.25,38,160.47
2654,B-4,445.0,0.25,75,160.47
2655,B-3,445.0,0.25,50,160.47
2656,B4,445.25,0.25,63,160.47
2657,B3,445.25,0.25,41,160.47
2658,E5,445.5,0.25,63,160.47
2659,G3,445.5,0.25,40,160.47
2660,G5,445.75,0.25,63,160.47
2661,E3,445.75,0.25,41,160.47
2662,B5,446.0,0.25,74,160.47
2663,B2,446.0,0.25,52,160.47
2664,F#5,446.25,0.25,65,160.47
2665,E-3,446.25,0.25,44,160.47
2666,E-5,446.5,0.25,68,160.47
2667,F#3,446.5,0.25,45,160.47
2668,B4,446.75,0.25,68,160.47
2669,B3,446.75,0.25,45,160.47
2670,B-4,447.0,0.25,80,160.47
2671,B-3,447.0,0.25,60,160.47
2672,B4,447.25,0.25,71,160.47
2673,B3,447.25,0.25,51,160.47
2674,E5,447.5,0.25,71,160.47
2675,G3,447.5,0.25,51,160.47
2676,G5,447.75,0.25,72,160.47
2677,E3,447.75,0.25,52,160.47
2678,B5,448.0,0.25,91,160.47
2679,B2,448.0,0.25,63,160.47
2680,F#5,448.25,0.25,82,160.47
2681,E-3,448.25,0.25,52,160.47
2682,E-5,448.5,0.25,82,160.47
2683,F#3,448.5,0.25,52,160.47
2684,B4,448.75,0.25,82,160.47
2685,B3,448.75,0.25,52,160.47
2686,B5,449.0,0.25,91,160.47
2687,B2,449.0,0.25,63,160.47
2688,G5,449.25,0.25,82,160.47
2689,E3,449.25,0.25,52,160.47
2690,E5,449.5,0.25,82,160.47
2691,G3,449.5,0.25,52,160.47
2692,B4,449.75,0.25,82,160.47
2693,B3,449.75,0.25,52,160.47
2694,B5,450.0,0.25,91,160.47
2695,B2,450.0,0.25,63,160.47
2696,F#5,450.25,0.25,82,160.47
2697,E-3,450.25,0.25,52,160.47
2698,E-5,450.5,0.25,81,160.47
2699,F#3,450.5,0.25,52,160.47
2700,B4,450.75,0.25,81,160.47
2701,B3,450.75,0.25,52,160.47
2702,B5,451.0,0.25,91,160.47
2703,B2,451.0,0.25,63,160.47
2704,G5,451.25,0.25,81,160.47
2705,E3,451.25,0.25,52,160.47
2706,E5,451.5,0.25,81,160.47
2707,G3,451.5,0.25,52,160.47
2708,B4,451.75,0.25,82,160.47
2709,B3,451.75,0.25,52,160.47
2710,B5,452.0,0.25,91,160.47
2711,B2,452.0,1.0,56,160.47
2712,E-3,452.0,1.0,56,160.47
2713,F#3,452.0,1.0,56,160.47
2714,B3,452.0,1.0,56,160.47
2715,F#5,452.25,0.25,82,160.47
2716,E-5,452.5,0.25,82,160.47
2717,B4,452.75,0.25,82,160.47
2718,F#5,453.0,0.25,91,160.47
2719,E-5,453.25,0.25,82,160.47
2720,B4,453.5,0.25,82,160.47
2721,F#4,453.75,0.25,82,160.47
2722,E-5,454.0,0.25,91,160.47
2723,B4,454.25,0.25,82,160.47
2724,F#4,454.5,0.25,81,160.47
2725,E-4,454.75,0.25,81,160.47
2726,B4,455.0,0.25,91,160.47
2727,F#4,455.25,0.25,81,160.47
2728,E-4,455.5,0.25,81,160.47
2729,B3,455.75,0.25,82,160.47
2730,F#4,456.0,0.25,91,160.47
2731,E-4,456.25,0.25,81,160.47
2732,B3,456.5,0.25,80,160.47
2733,F#3,456.75,0.25,80,160.47
2734,E-4,457.0,0.25,89,160.47
2735,B3,457.25,0.25,79,160.47
2736,F#3,457.5,0.25,79,160.47
2737,E-3,457.75,0.25,78,160.47
2738,B3,458.0,0.25,87,160.47
2739,F#3,458.25,0.25,78,160.47
2740,E-3,458.5,0.25,77,160.47
2741,B2,458.75,0.25,77,160.47
2742,B1,459.0,0.25,85,160.47
2743,E-2,459.25,0.25,76,160.47
2744,F#2,459.5,0.25,76,160.47
2745,B2,459.75,0.25,75,160.47
2746,B1,460.0,0.25,77,160.47
2747,B2,460.5,0.25,68,160.47
2748,C#2,461.0,0.25,73,160.47
2749,C#3,461.5,0.25,66,160.47
2750,B4,462.0,0.25,75,160.47
2751,E-2,462.0,0.25,71,160.47
2752,B3,462.5,0.25,69,160.47
2753,E-3,462.5,0.25,65,160.47
2754,C#5,463.0,0.25,74,160.47
2755,C#4,463.5,0.25,65,160.47
2756,E-5,464.0,0.25,71,160.47
2757,E-2,464.0,0.25,69,160.47
2758,E-4,464.5,0.25,64,160.47
2759,E-3,464.5,0.25,61,160.47
2760,E2,465.0,0.25,65,160.47
2761,E3,465.5,0.25,59,160.47
2762,E-5,466.0,0.25,67,160.47
2763,F#2,466.0,0.25,65,160.47
2764,E-4,466.5,0.25,53,160.47
2765,F#3,466.5,0.25,54,160.47
2766,E5,467.0,0.25,59,160.47
2767,E4,467.5,0.25,50,160.47
2768,F#5,468.0,0.25,52,160.47
2769,F#4,468.5,0.25,49,160.47
2770,G#5,469.0,0.25,52,160.47
2771,G#4,469.5,0.25,49,160.47
2772,A5,470.0,0.25,52,160.47
2773,F#2,470.0,0.25,41,160.47
2774,A4,470.5,0.25,48,160.47
2775,F#3,470.5,0.25,36,160.47
2776,A5,471.0,0.25,52,160.47
2777,G#2,471.0,0.25,41,160.47
2778,B4,471.5,0.25,46,160.47
2779,G#3,471.5,0.25,36,160.47
2780,A5,472.0,0.25,51,160.47
2781,A2,472.0,0.25,40,160.47
2782,C#5,472.5,0.25,46,160.47
2783,A3,472.5,0.25,37,160.47
2784,A5,473.0,0.25,51,160.47
2785,B2,473.0,0.25,39,160.47
2786,E-5,473.5,0.25,46,160.47
2787,B3,473.5,0.25,36,160.47
2788,A5,474.0,0.25,51,160.47
2789,C#3,474.0,0.25,38,160.47
2790,E5,474.5,0.25,47,160.47
2791,C#4,474.5,0.25,37,160.47
2792,A5,475.0,0.25,50,160.47
2793,E-3,475.0,0.25,40,160.47
2794,F#5,475.5,0.25,46,160.47
2795,E-4,475.5,0.25,37,160.47
2796,B4,476.0,2.0,46,160.47
2797,E5,476.0,2.0,46,160.47
2798,G#5,476.0,2.0,46,160.47
2799,G#4,476.0,2.0,36,160.47
2800,E4,476.0,2.0,36,160.47
2801,A4,478.0,1.0,44,160.47
2802,E-5,478.0,1.0,44,160.47
2803,F#5,478.0,1.0,44,160.47
2804,F#4,478.0,1.0,31,160.47
2805,E-4,478.0,1.0,31,160.47
2806,B3,478.0,1.0,31,160.47
2807,G#4,479.0,1.0,44,160.47
2808,C#5,479.0,1.0,44,160.47
2809,E5,479.0,1.0,44,160.47
2810,E4,479.0,1.0,32,160.47
2811,C#4,479.0,1.0,32,160.47
2812,F#4,480.0,2.0,46,160.47
2813,C5,480.0,2.0,46,160.47
2814,E-5,480.0,2.0,46,160.47
2815,E-4,480.0,2.0,35,160.47
2816,C4,480.0,2.0,35,160.47
2817,G#3,480.0,2.0,35,160.47
2818,E4,482.0,2.0,46,160.47
2819,C#5,482.0,2.0,46,160.47
2820,C#4,482.0,2.0,31,160.47
2821,A3,482.0,2.0,31,160.47
2822,A4,484.0,2.0,54,160.47
2823,B4,484.0,2.0,54,160.47
2824,E-5,484.0,2.0,54,160.47
2825,F#3,484.0,2.0,41,160.47
2826,A3,484.0,2.0,41,160.47
2827,B3,484.0,2.0,41,160.47
2828,E-4,484.0,2.0,41,160.47
2829,B4,486.0,1.0,58,160.47
2830,E5,486.0,1.0,58,160.47
2831,G#3,486.0,1.0,43,160.47
2832,B3,486.0,1.0,43,160.47
2833,E4,486.0,1.0,43,160.47
2834,C#5,487.0,1.0,59,160.47
2835,E5,487.0,1.0,59,160.47
2836,F#5,487.0,1.0,59,160.47
2837,F#4,487.0,1.0,47,160.47
2838,A3,487.0,1.0,47,160.47
2839,C#4,487.0,1.0,47,160.47
2840,B4,488.0,3.0,59,160.47
2841,B3,488.0,3.996,49,160.47
2842,E5,488.0,2.0,68,160.47
2843,G#5,488.0,2.0,68,160.47
2844,E4,488.0,2.0,54,160.47
2845,G#4,488.0,2.0,54,160.47
2846,E-5,490.0,2.0,40,160.47
2847,F#5,490.0,2.0,40,160.47
2848,E-4,490.0,2.0,30,160.47
2849,F#4,490.0,2.0,30,160.47
2850,A4,491.0,1.0,48,160.47
2851,B3,492.0,2.0,40,160.47
2852,E4,492.0,2.0,40,160.47
2853,G#4,492.0,2.0,40,160.47
2854,G#3,492.0,2.0,32,160.47
2855,E3,492.0,2.0,32,160.47
2856,A3,494.0,1.0,38,160.47
2857,E-4,494.0,1.0,38,160.47
2858,F#4,494.0,1.0,38,160.47
2859,F#3,494.0,1.0,28,160.47
2860,E-3,494.0,1.0,28,160.47
2861,B2,494.0,1.0,28,160.47
2862,G#3,495.0,1.0,38,160.47
2863,C#4,495.0,1.0,38,160.47
2864,E4,495.0,1.0,38,160.47
2865,E3,495.0,1.0,28,160.47
2866,C#3,495.0,1.0,28,160.47
2867,F#3,496.0,2.0,40,160.47
2868,C4,496.0,2.0,40,160.47
2869,E-4,496.0,2.0,40,160.47
2870,E-3,496.0,2.0,31,160.47
2871,C3,496.0,2.0,31,160.47
2872,G#2,496.0,2.0,31,160.47
2873,A3,498.0,2.0,38,160.47
2874,E3,498.0,2.0,38,160.47
2875,C#4,498.0,2.0,38,160.47
2876,C#3,498.0,2.0,28,160.47
2877,A2,498.0,2.0,28,160.47
2878,B3,500.0,2.0,52,160.47
2879,E3,500.0,1.0,44,160.47
2880,G#3,500.0,1.0,44,160.47
2881,B1,500.0,4.0,36,160.47
2882,B2,500.0,4.0,36,160.47
2883,F#3,501.0,3.0,49,160.47
2884,A3,501.0,3.0,49,160.47
2885,C#4,502.0,1.0,61,160.47
2886,E-4,503.0,1.0,68,160.47
2887,G#3,504.0,0.333,42,160.47
2888,E4,504.0,0.25,49,160.47
2889,E2,504.0,1.0,44,160.47
2890,E3,504.0,1.0,44,160.47
2891,F#4,504.333,0.25,48,160.47
2892,G#4,504.667,0.25,49,160.47
2893,A4,505.0,0.25,46,160.47
2894,B4,505.333,0.25,47,160.47
2895,C#5,505.667,0.25,48,160.47
2896,D5,506.0,0.25,50,160.47
2897,E-5,506.333,0.25,51,160.47
2898,E5,506.667,0.25,52,160.47
2899,F5,507.0,0.25,53,160.47
2900,F#5,507.333,0.25,51,160.47
2901,G5,507.667,0.25,52,160.47
2902,B4,508.0,2.0,46,160.47
2903,G#5,508.0,0.333,56,160.47
2904,G#4,508.0,2.0,40,160.47
2905,E4,508.0,2.0,40,160.47
2906,G5,508.333,0.333,53,160.47
2907,G#5,508.667,0.333,53,160.47
2908,A5,509.0,0.333,53,160.47
2909,G5,509.333,0.333,53,160.47
2910,G#5,509.667,0.333,53,160.47
2911,A4,510.0,1.0,60,160.47
2912,F#4,510.0,1.0,34,160.47
2913,E-4,510.0,1.0,34,160.47
2914,B3,510.0,1.0,34,160.47
2915,G#5,510.333,0.333,54,160.47
2916,F#5,510.667,0.333,54,160.47
2917,G#4,511.0,1.0,60,160.47
2918,E4,511.0,1.0,36,160.47
2919,C#4,511.0,1.0,36,160.47
2920,F#5,511.333,0.333,53,160.47
2921,E5,511.667,0.333,53,160.47
2922,F#4,512.0,2.0,60,160.47
2923,E-4,512.0,2.0,38,160.47
2924,C4,512.0,2.0,38,160.47
2925,G#3,512.0,2.0,38,160.47
2926,C5,512.333,0.333,54,160.47
2927,E-5,512.667,0.333,54,160.47
2928,E5,513.0,0.333,54,160.47
2929,C5,513.333,0.333,54,160.47
2930,E-5,513.667,0.333,54,160.47
2931,E4,514.0,2.0,60,160.47
2932,C#4,514.0,2.0,34,160.47
2933,A3,514.0,2.0,34,160.47
2934,A4,514.333,0.333,54,160.47
2935,C#5,514.667,0.333,54,160.47
2936,E-5,515.0,0.333,54,160.47
2937,A4,515.333,0.333,54,160.47
2938,C#5,515.667,0.333,54,160.47
2939,A4,516.0,2.0,62,160.47
2940,F#3,516.0,2.0,43,160.47
2941,A3,516.0,2.0,43,160.47
2942,B3,516.0,2.0,43,160.47
2943,E-4,516.0,2.0,43,160.47
2944,D5,516.333,0.333,62,160.47
2945,E-5,516.667,0.333,57,160.47
2946,E5,517.0,0.333,57,160.47
2947,D5,517.333,0.333,59,160.47
2948,E-5,517.667,0.333,59,160.47
2949,B4,518.0,1.0,71,160.47
2950,G#3,518.0,1.0,48,160.47
2951,B3,518.0,1.0,48,160.47
2952,E4,518.0,1.0,48,160.47
2953,F#5,518.333,0.333,63,160.47
2954,E5,518.667,0.333,64,160.47
2955,C#5,519.0,1.0,74,160.47
2956,F#4,519.0,1.0,52,160.47
2957,A3,519.0,1.0,52,160.47
2958,C#4,519.0,1.0,52,160.47
2959,G#5,519.333,0.333,65,160.47
2960,F#5,519.667,0.333,65,160.47
2961,G#5,520.0,0.333,79,160.47
2962,E5,520.0,2.0,79,160.47
2963,B3,520.0,3.996,53,160.47
2964,E4,520.0,2.0,59,160.47
2965,G#4,520.0,2.0,59,160.47
2966,G5,520.333,0.333,72,160.47
2967,G#5,520.667,0.333,72,160.47
2968,B5,521.0,0.333,68,160.47
2969,A5,521.333,0.333,72,160.47
2970,G#5,521.667,0.333,69,160.47
2971,E-5,522.0,0.333,67,160.47
2972,F#5,522.0,0.333,67,160.47
2973,E-4,522.0,1.0,49,160.47
2974,F#4,522.0,1.0,49,160.47
2975,C#5,522.333,0.333,64,160.47
2976,E5,522.333,0.333,64,160.47
2977,E-5,522.667,0.333,60,160.47
2978,B4,522.667,0.333,60,160.47
2979,B2,523.0,0.333,44,160.47
2980,A4,523.0,0.333,60,160.47
2981,C#5,523.0,0.333,60,160.47
2982,C#3,523.333,0.333,43,160.47
2983,G#4,523.333,0.333,56,160.47
2984,B4,523.333,0.333,56,160.47
2985,E-3,523.667,0.333,41,160.47
2986,F#4,523.667,0.333,53,160.47
2987,A4,523.667,0.333,53,160.47
2988,B3,524.0,2.0,57,160.47
2989,G#4,524.0,0.333,57,160.47
2990,G#3,524.0,2.0,41,160.47
2991,E3,524.0,2.0,41,160.47
2992,G4,524.333,0.333,49,160.47
2993,G#4,524.667,0.333,49,160.47
2994,A4,525.0,0.333,49,160.47
2995,G4,525.333,0.333,49,160.47
2996,G#4,525.667,0.333,49,160.47
2997,A3,526.0,1.0,56,160.47
2998,F#3,526.0,1.0,36,160.47
2999,E-3,526.0,1.0,36,160.47
3000,B2,526.0,1.0,36,160.47
3001,G#4,526.333,0.333,50,160.47
3002,F#4,526.667,0.333,50,160.47
3003,G#3,527.0,1.0,56,160.47
3004,E3,527.0,1.0,37,160.47
3005,C#3,527.0,1.0,37,160.47
3006,F#4,527.333,0.333,49,160.47
3007,E4,527.667,0.333,49,160.47
3008,E-3,528.0,2.0,40,160.47
3009,F#3,528.0,2.0,40,160.47
3010,C3,528.0,2.0,40,160.47
3011,G#2,528.0,2.0,40,160.47
3012,C4,528.333,0.333,50,160.47
3013,E-4,528.667,0.333,50,160.47
3014,E4,529.0,0.333,53,160.47
3015,C4,529.333,0.333,50,160.47
3016,E-4,529.667,0.333,50,160.47
3017,A2,530.0,2.0,37,160.47
3018,C#3,530.0,2.0,37,160.47
3019,E3,530.0,2.0,37,160.47
3020,A3,530.333,0.333,50,160.47
3021,C#4,530.667,0.333,50,160.47
3022,E-4,531.0,0.333,53,160.47
3023,A3,531.333,0.333,50,160.47
3024,C#4,531.667,0.333,50,160.47
3025,E3,532.0,1.0,60,160.47
3026,B1,532.0,4.0,50,160.47
3027,B2,532.0,4.0,50,160.47
3028,G#3,532.333,0.333,56,160.47
3029,B3,532.667,0.333,57,160.47
3030,F#3,533.0,1.0,66,160.47
3031,A3,533.333,0.333,61,160.47
3032,B3,533.667,0.333,61,160.47
3033,F#3,534.0,1.0,74,160.47
3034,A3,534.333,0.333,67,160.47
3035,C#4,534.667,0.333,65,160.47
3036,F#3,535.0,1.0,80,160.47
3037,A3,535.333,0.333,71,160.47
3038,E-4,535.667,0.333,70,160.47
3039,G#3,536.0,0.333,80,160.47
3040,E4,536.0,0.333,80,160.47
3041,E2,536.0,1.0,55,160.47
3042,E3,536.0,1.0,55,160.47
3043,B3,536.333,0.333,75,160.47
3044,G#3,536.667,0.333,77,160.47
3045,B3,537.0,0.333,82,160.47
3046,B2,537.0,2.0,74,160.47
3047,E4,537.333,0.333,77,160.47
3048,G#4,537.667,0.333,77,160.47
3049,F#4,538.0,0.333,82,160.47
3050,E-4,538.333,0.333,77,160.47
3051,B3,538.667,0.333,77,160.47
3052,E-4,539.0,0.333,82,160.47
3053,B2,539.0,2.0,74,160.47
3054,F#4,539.333,0.333,77,160.47
3055,A4,539.667,0.333,77,160.47
3056,G#4,540.0,0.333,82,160.47
3057,E4,540.333,0.333,75,160.47
3058,B3,540.667,0.333,77,160.47
3059,E4,541.0,0.333,82,160.47
3060,B2,541.0,2.0,74,160.47
3061,G#4,541.333,0.333,77,160.47
3062,B4,541.667,0.333,77,160.47
3063,A4,542.0,0.333,82,160.47
3064,F#4,542.333,0.333,77,160.47
3065,E-4,542.667,0.333,77,160.47
3066,E-5,543.0,0.333,82,160.47
3067,B2,543.0,1.0,73,160.47
3068,A4,543.333,0.333,77,160.47
3069,F#4,543.667,0.333,77,160.47
3070,E3,544.0,0.333,73,160.47
3071,G#4,544.0,1.0,69,160.47
3072,E5,544.0,1.0,69,160.47
3073,B2,544.333,0.333,67,160.47
3074,G#2,544.667,0.333,69,160.47
3075,B4,545.0,2.0,80,160.47
3076,B2,545.0,0.333,73,160.47
3077,E3,545.333,0.333,69,160.47
3078,G#3,545.667,0.333,69,160.47
3079,F#3,546.0,0.333,73,160.47
3080,E-3,546.333,0.333,69,160.47
3081,B2,546.667,0.333,69,160.47
3082,B4,547.0,2.0,80,160.47
3083,E-3,547.0,0.333,73,160.47
3084,F#3,547.333,0.333,69,160.47
3085,A3,547.667,0.333,69,160.47
3086,G#3,548.0,0.333,73,160.47
3087,E3,548.333,0.333,67,160.47
3088,B2,548.667,0.333,69,160.47
3089,B4,549.0,2.0,80,160.47
3090,E3,549.0,0.333,73,160.47
3091,G#3,549.333,0.333,69,160.47
3092,B3,549.667,0.333,69,160.47
3093,A3,550.0,0.333,73,160.47
3094,F#3,550.333,0.333,69,160.47
3095,E-3,550.667,0.333,69,160.47
3096,B4,551.0,1.0,80,160.47
3097,E-4,551.0,0.333,73,160.47
3098,A3,551.333,0.333,69,160.47
3099,F#3,551.667,0.333,69,160.47
3100,E5,552.0,0.333,82,160.47
3101,G#3,552.0,0.333,64,160.47
3102,B4,552.333,0.333,75,160.47
3103,B3,552.333,0.333,56,160.47
3104,G#4,552.667,0.333,77,160.47
3105,E4,552.667,0.333,56,160.47
3106,B4,553.0,0.333,82,160.47
3107,B3,553.0,0.333,64,160.47
3108,E5,553.333,0.333,77,160.47
3109,G#3,553.333,0.333,57,160.47
3110,G#5,553.667,0.333,77,160.47
3111,E3,553.667,0.333,57,160.47
3112,F#5,554.0,0.333,82,160.47
3113,E-3,554.0,0.333,64,160.47
3114,E-5,554.333,0.333,77,160.47
3115,F#3,554.333,0.333,56,160.47
3116,B4,554.667,0.333,77,160.47
3117,A3,554.667,0.333,56,160.47
3118,E-5,555.0,0.333,82,160.47
3119,F#3,555.0,0.333,64,160.47
3120,F#5,555.333,0.333,77,160.47
3121,E-3,555.333,0.333,57,160.47
3122,A5,555.667,0.333,77,160.47
3123,B2,555.667,0.333,58,160.47
3124,G#5,556.0,0.333,82,160.47
3125,E3,556.013,0.333,64,160.47
3126,E5,556.333,0.333,75,160.47
3127,G#3,556.333,0.333,56,160.47
3128,B4,556.667,0.333,77,160.47
3129,B3,556.667,0.333,56,160.47
3130,E5,557.0,0.333,82,160.47
3131,G#3,557.0,0.333,64,160.47
3132,G#5,557.333,0.333,77,160.47
3133,E3,557.333,0.333,57,160.47
3134,B5,557.667,0.333,77,160.47
3135,B2,557.679,0.333,57,160.47
3136,A5,558.0,0.333,82,160.47
3137,E-3,558.0,0.333,64,160.47
3138,F#5,558.333,0.333,77,160.47
3139,A3,558.333,0.333,56,160.47
3140,E-5,558.667,0.333,77,160.47
3141,B3,558.679,0.333,56,160.47
3142,E-6,559.0,0.333,82,160.47
3143,A3,559.0,0.333,64,160.47
3144,A5,559.333,0.333,77,160.47
3145,B3,559.333,0.333,57,160.47
3146,F#5,559.667,0.333,77,160.47
3147,F#4,559.667,0.333,58,160.47
3148,E6,560.0,0.5,86,160.47
3149,G#3,560.0,0.333,64,160.47
3150,B5,560.333,0.333,74,160.47
3151,B3,560.333,0.333,55,160.47
3152,G#5,560.667,0.333,74,160.47
3153,E4,560.667,0.333,55,160.47
3154,B5,561.0,0.5,82,160.47
3155,E3,561.0,0.333,62,160.47
3156,G#5,561.333,0.333,73,160.47
3157,G#3,561.333,0.333,55,160.47
3158,E5,561.667,0.333,72,160.47
3159,B3,561.667,0.333,54,160.47
3160,A5,562.0,0.5,79,160.47
3161,F#3,562.0,0.333,59,160.47
3162,F#5,562.333,0.333,71,160.47
3163,A3,562.333,0.333,51,160.47
3164,E-5,562.667,0.333,70,160.47
3165,B3,562.667,0.333,51,160.47
3166,E-6,563.0,0.5,76,160.47
3167,A3,563.0,0.333,57,160.47
3168,B5,563.333,0.333,69,160.47
3169,B3,563.333,0.333,51,160.47
3170,F#5,563.667,0.333,67,160.47
3171,F#4,563.667,0.333,51,160.47
3172,E6,564.0,0.5,75,160.47
3173,G#3,564.0,0.333,56,160.47
3174,B5,564.333,0.333,65,160.47
3175,B3,564.333,0.333,48,160.47
3176,G#5,564.667,0.333,65,160.47
3177,E4,564.667,0.333,48,160.47
3178,B5,565.0,0.5,72,160.47
3179,E3,565.0,0.333,54,160.47
3180,G#5,565.333,0.333,64,160.47
3181,G#3,565.333,0.333,48,160.47
3182,E5,565.667,0.333,63,160.47
3183,B3,565.667,0.333,47,160.47
3184,A5,566.0,0.5,69,160.47
3185,F#3,566.0,0.333,51,160.47
3186,F#5,566.333,0.333,62,160.47
3187,A3,566.333,0.333,44,160.47
3188,E-5,566.667,0.333,60,160.47
3189,B3,566.667,0.333,44,160.47
3190,E-6,567.0,0.5,69,160.47
3191,A3,567.0,0.333,50,160.47
3192,B5,567.333,0.333,59,160.47
3193,B3,567.333,0.333,44,160.47
3194,F#5,567.667,0.333,58,160.47
3195,F#4,567.667,0.333,44,160.47
3196,E6,568.0,0.25,64,160.47
3197,G#3,568.0,0.25,50,160.47
3198,B5,568.25,0.25,58,160.47
3199,B3,568.25,0.25,43,160.47
3200,G#5,568.5,0.25,58,160.47
3201,E3,568.5,0.25,43,160.47
3202,E5,568.75,0.25,59,160.47
3203,B3,568.75,0.25,44,160.47
3204,A5,569.0,0.25,65,160.47
3205,F#3,569.0,0.25,51,160.47
3206,F#5,569.25,0.25,59,160.47
3207,B3,569.25,0.25,44,160.47
3208,E-6,569.5,0.25,62,160.47
3209,A3,569.5,0.25,44,160.47
3210,B5,569.75,0.25,63,160.47
3211,B3,569.75,0.25,44,160.47
3212,E6,570.0,0.25,69,160.47
3213,G#3,570.0,0.25,52,160.47
3214,B5,570.25,0.25,63,160.47
3215,B3,570.25,0.25,46,160.47
3216,G#5,570.5,0.25,63,160.47
3217,E3,570.5,0.25,47,160.47
3218,E5,570.75,0.25,64,160.47
3219,B3,570.75,0.25,49,160.47
3220,A5,571.0,0.25,71,160.47
3221,F#3,571.0,0.25,55,160.47
3222,F#5,571.25,0.25,66,160.47
3223,B3,571.25,0.25,48,160.47
3224,E-6,571.5,0.25,67,160.47
3225,A3,571.5,0.25,48,160.47
3226,B5,571.75,0.25,67,160.47
3227,B3,571.75,0.25,49,160.47
3228,E6,572.0,0.25,74,160.47
3229,G#3,572.0,0.25,58,160.47
3230,B5,572.25,0.25,67,160.47
3231,B3,572.25,0.25,50,160.47
3232,E-6,572.5,0.25,69,160.47
3233,A3,572.5,0.25,51,160.47
3234,B5,572.75,0.25,69,160.47
3235,B3,572.75,0.25,52,160.47
3236,E6,573.0,0.25,77,160.47
3237,G#3,573.0,0.25,60,160.47
3238,B5,573.25,0.25,77,160.47
3239,B3,573.25,0.25,52,160.47
3240,E-6,573.5,0.25,72,160.47
3241,A3,573.5,0.25,52,160.47
3242,B5,573.75,0.25,73,160.47
3243,B3,573.75,0.25,54,160.47
3244,E6,574.0,0.25,80,160.47
3245,G#3,574.0,0.25,62,160.47
3246,B5,574.25,0.25,73,160.47
3247,B3,574.25,0.25,55,160.47
3248,E-6,574.5,0.25,74,160.47
3249,A3,574.5,0.25,55,160.47
3250,B5,574.75,0.25,74,160.47
3251,B3,574.75,0.25,57,160.47
3252,E6,575.0,0.25,82,160.47
3253,G#3,575.0,0.25,65,160.47
3254,B5,575.25,0.25,85,160.47
3255,B3,575.25,0.25,57,160.47
3256,E-6,575.5,0.25,78,160.47
3257,A3,575.5,0.25,57,160.47
3258,B5,575.75,0.25,79,160.47
3259,B3,575.75,0.25,58,160.47
3260,E6,576.0,0.25,89,160.47
3261,G#3,576.0,0.25,70,160.47
3262,B5,576.25,0.25,81,160.47
3263,B3,576.25,0.25,60,160.47
3264,D6,576.5,0.25,81,160.47
3265,G#2,576.5,0.25,60,160.47
3266,B5,576.75,0.25,81,160.47
3267,E3,576.75,0.25,62,160.47
3268,D6,577.0,0.25,89,160.47
3269,G#2,577.0,0.25,70,160.47
3270,B5,577.25,0.25,83,160.47
3271,E3,577.25,0.25,60,160.47
3272,D6,577.5,0.25,82,160.47
3273,G#2,577.5,0.25,60,160.47
3274,B5,577.75,0.25,82,160.47
3275,E3,577.75,0.25,60,160.47
3276,D6,578.0,0.25,89,160.47
3277,G#2,578.0,0.25,70,160.47
3278,B5,578.25,0.25,81,160.47
3279,E3,578.25,0.25,60,160.47
3280,D6,578.5,0.25,81,160.47
3281,G#2,578.5,0.25,60,160.47
3282,B5,578.75,0.25,81,160.47
3283,E3,578.75,0.25,62,160.47
3284,D6,579.0,0.25,89,160.47
3285,G#2,579.0,0.25,70,160.47
3286,B5,579.25,0.25,83,160.47
3287,E3,579.25,0.25,60,160.47
3288,D6,579.5,0.25,82,160.47
3289,G#2,579.5,0.25,60,160.47
3290,B5,579.75,0.25,82,160.47
3291,E3,579.75,0.25,60,160.47
3292,D6,580.0,0.5,89,160.47
3293,G#2,580.0,0.25,70,160.47
3294,E3,580.25,0.25,60,160.47
3295,C#6,580.5,0.25,81,160.47
3296,G#2,580.5,0.25,60,160.47
3297,B5,580.75,0.25,81,160.47
3298,E3,580.75,0.25,62,160.47
3299,A5,581.0,0.25,86,160.47
3300,G#2,581.0,0.25,70,160.47
3301,G#5,581.25,0.25,82,160.47
3302,E3,581.25,0.25,60,160.47
3303,F#5,581.5,0.25,83,160.47
3304,G#2,581.5,0.25,60,160.47
3305,E5,581.75,0.25,83,160.47
3306,E3,581.75,0.25,61,160.47
3307,D5,582.0,0.25,86,160.47
3308,G#2,582.0,0.25,71,160.47
3309,C#5,582.25,0.25,82,160.47
3310,E3,582.25,0.25,61,160.47
3311,B4,582.5,0.25,83,160.47
3312,G#2,582.5,0.25,61,160.47
3313,A4,582.75,0.25,83,160.47
3314,E3,582.75,0.25,63,160.47
3315,G#4,583.0,0.25,88,160.47
3316,G#2,583.0,0.25,72,160.47
3317,F#4,583.25,0.25,85,160.47
3318,E3,583.25,0.25,62,160.47
3319,E4,583.5,0.25,85,160.47
3320,G#2,583.5,0.25,62,160.47
3321,D4,583.75,0.25,85,160.47
3322,E3,583.75,0.25,62,160.47
3323,C#4,584.0,0.25,93,160.47
3324,A2,584.0,0.375,71,160.47
3325,C#3,584.0,0.375,71,160.47
3326,E3,584.0,0.375,71,160.47
3327,E-4,584.25,0.25,83,160.47
3328,E4,584.5,0.25,83,160.47
3329,A2,584.5,0.375,64,160.47
3330,C#3,584.5,0.375,64,160.47
3331,E3,584.5,0.375,64,160.47
3332,E-4,584.75,0.25,84,160.47
3333,E4,585.0,0.25,92,160.47
3334,G#4,585.25,0.25,84,160.47
3335,A4,585.5,0.25,84,160.47
3336,A2,585.5,0.375,64,160.47
3337,C#3,585.5,0.375,64,160.47
3338,E3,585.5,0.375,64,160.47
3339,G#4,585.75,0.25,84,160.47
3340,A4,586.0,0.25,93,160.47
3341,A2,586.0,0.375,71,160.47
3342,C#3,586.0,0.375,71,160.47
3343,E3,586.0,0.375,71,160.47
3344,C5,586.25,0.25,84,160.47
3345,C#5,586.5,0.25,84,160.47
3346,A2,586.5,0.375,64,160.47
3347,C#3,586.5,0.375,64,160.47
3348,E3,586.5,0.375,64,160.47
3349,C5,586.75,0.25,84,160.47
3350,C#5,587.0,0.25,93,160.47
3351,E-5,587.25,0.25,84,160.47
3352,E5,587.5,0.25,84,160.47
3353,A2,587.5,0.375,64,160.47
3354,C#3,587.5,0.375,64,160.47
3355,E3,587.5,0.375,64,160.47
3356,E-5,587.75,0.25,84,160.47
3357,E5,588.0,0.25,95,160.47
3358,A2,588.0,0.375,71,160.47
3359,C#3,588.0,0.375,71,160.47
3360,E3,588.0,0.375,71,160.47
3361,G#5,588.25,0.25,85,160.47
3362,A5,588.5,0.25,85,160.47
3363,A2,588.5,0.375,64,160.47
3364,C#3,588.5,0.375,64,160.47
3365,E3,588.5,0.375,64,160.47
3366,G#5,588.75,0.25,85,160.47
3367,A5,589.0,0.25,95,160.47
3368,C6,589.25,0.25,85,160.47
3369,C#6,589.5,0.25,85,160.47
3370,A2,589.5,0.375,64,160.47
3371,C#3,589.5,0.375,64,160.47
3372,E3,589.5,0.375,64,160.47
3373,C6,589.75,0.25,86,160.47
3374,C#6,590.0,0.25,95,160.47
3375,A2,590.0,0.375,71,160.47
3376,C#3,590.0,0.375,71,160.47
3377,E3,590.0,0.375,71,160.47
3378,E-6,590.25,0.25,86,160.47
3379,E6,590.5,0.25,86,160.47
3380,A2,590.5,0.375,64,160.47
3381,C#3,590.5,0.375,64,160.47
3382,E3,590.5,0.375,64,160.47
3383,E-6,590.75,0.25,86,160.47
3384,E6,591.0,0.25,95,160.47
3385,E-6,591.25,0.25,86,160.47
3386,C#6,591.5,0.25,86,160.47
3387,A2,591.5,0.375,64,160.47
3388,C#3,591.5,0.375,64,160.47
3389,E3,591.5,0.375,64,160.47
3390,C6,591.75,0.25,86,160.47
3391,C#6,592.0,0.25,95,160.47
3392,E3,592.0,0.375,70,160.47
3393,B-2,592.0,0.375,70,160.47
3394,C#3,592.0,0.375,70,160.47
3395,F#3,592.0,0.375,70,160.47
3396,C6,592.25,0.25,86,160.47
3397,C#6,592.5,0.25,86,160.47
3398,E3,592.5,0.375,63,160.47
3399,B-2,592.5,0.375,63,160.47
3400,C#3,592.5,0.375,63,160.47
3401,F#3,592.5,0.375,63,160.47
3402,E-6,592.75,0.25,86,160.47
3403,E6,593.0,0.25,95,160.47
3404,E-6,593.25,0.25,86,160.47
3405,C#6,593.5,0.25,86,160.47
3406,E3,593.5,0.375,63,160.47
3407,B-2,593.5,0.375,63,160.47
3408,C#3,593.5,0.375,63,160.47
3409,F#3,593.5,0.375,63,160.47
3410,C6,593.75,0.25,86,160.47
3411,C#6,594.0,0.25,95,160.47
3412,E3,594.0,0.375,70,160.47
3413,B-2,594.0,0.375,70,160.47
3414,C#3,594.0,0.375,70,160.47
3415,F#3,594.0,0.375,70,160.47
3416,C6,594.25,0.25,86,160.47
3417,C#6,594.5,0.25,86,160.47
3418,E3,594.5,0.375,63,160.47
3419,B-2,594.5,0.375,63,160.47
3420,C#3,594.5,0.375,63,160.47
3421,F#3,594.5,0.375,63,160.47
3422,E-6,594.75,0.25,86,160.47
3423,E6,595.0,0.25,95,160.47
3424,E-6,595.25,0.25,86,160.47
3425,C#6,595.5,0.25,86,160.47
3426,E3,595.5,0.375,63,160.47
3427,B-2,595.5,0.375,63,160.47
3428,C#3,595.5,0.375,63,160.47
3429,F#3,595.5,0.375,63,160.47
3430,C6,595.75,0.25,86,160.47
3431,C#6,596.0,0.25,95,160.47
3432,E3,596.0,0.375,70,160.47
3433,B-2,596.0,0.375,70,160.47
3434,C#3,596.0,0.375,70,160.47
3435,F#3,596.0,0.375,70,160.47
3436,C6,596.25,0.25,86,160.47
3437,C#6,596.5,0.25,86,160.47
3438,E3,596.5,0.375,63,160.47
3439,B-2,596.5,0.375,63,160.47
3440,C#3,596.5,0.375,63,160.47
3441,F#3,596.5,0.375,63,160.47
3442,E-6,596.75,0.25,86,160.47
3443,E6,597.0,0.25,95,160.47
3444,E-6,597.25,0.25,86,160.47
3445,C#6,597.5,0.25,86,160.47
3446,E3,597.5,0.375,63,160.47
3447,B-2,597.5,0.375,63,160.47
3448,C#3,597.5,0.375,63,160.47
3449,F#3,597.5,0.375,63,160.47
3450,C6,597.75,0.25,86,160.47
3451,C#6,598.0,0.25,95,160.47
3452,E3,598.0,0.375,70,160.47
3453,B-2,598.0,0.375,70,160.47
3454,C#3,598.0,0.375,70,160.47
3455,F#3,598.0,0.375,70,160.47
3456,C6,598.25,0.25,86,160.47
3457,C#6,598.5,0.25,86,160.47
3458,E3,598.5,0.375,63,160.47
3459,B-2,598.5,0.375,63,160.47
3460,C#3,598.5,0.375,63,160.47
3461,F#3,598.5,0.375,63,160.47
3462,E-6,598.75,0.25,86,160.47
3463,E6,599.0,0.25,95,160.47
3464,E-6,599.25,0.25,86,160.47
3465,E6,599.5,0.25,86,160.47
3466,E3,599.5,0.375,63,160.47
3467,B-2,599.5,0.375,63,160.47
3468,C#3,599.5,0.375,63,160.47
3469,F#3,599.5,0.375,63,160.47
3470,C#6,599.75,0.25,86,160.47
3471,B2,600.0,0.25,78,160.47
3472,B4,600.0,0.25,95,160.47
3473,B5,600.0,0.25,95,160.47
3474,E3,600.25,0.25,70,160.47
3475,G#3,600.5,0.25,70,160.47
3476,B4,600.5,0.25,80,160.47
3477,B5,600.5,0.25,80,160.47
3478,B3,600.75,0.25,70,160.47
3479,B2,601.0,0.25,77,160.47
3480,G#4,601.0,0.25,81,160.47
3481,G#5,601.0,0.25,81,160.47
3482,E3,601.25,0.25,70,160.47
3483,G#3,601.5,0.25,70,160.47
3484,E4,601.5,0.25,80,160.47
3485,E5,601.5,0.25,80,160.47
3486,B3,601.75,0.25,70,160.47
3487,B2,602.0,0.25,75,160.47
3488,E5,602.0,0.25,95,160.47
3489,E6,602.0,0.25,95,160.47
3490,E3,602.25,0.25,70,160.47
3491,G#3,602.5,0.25,70,160.47
3492,E5,602.5,0.25,80,160.47
3493,E6,602.5,0.25,80,160.47
3494,B3,602.75,0.25,70,160.47
3495,B2,603.0,0.25,75,160.47
3496,B4,603.0,0.25,80,160.47
3497,B5,603.0,0.25,80,160.47
3498,E3,603.25,0.25,70,160.47
3499,G#3,603.5,0.25,70,160.47
3500,G#4,603.5,0.25,80,160.47
3501,G#5,603.5,0.25,80,160.47
3502,B3,603.75,0.25,70,160.47
3503,B2,604.0,0.25,78,160.47
3504,B4,604.0,0.25,95,160.47
3505,B5,604.0,0.25,95,160.47
3506,E3,604.25,0.25,70,160.47
3507,G#3,604.5,0.25,70,160.47
3508,B4,604.5,0.25,80,160.47
3509,B5,604.5,0.25,80,160.47
3510,B3,604.75,0.25,70,160.47
3511,B2,605.0,0.25,77,160.47
3512,G#4,605.0,0.25,81,160.47
3513,G#5,605.0,0.25,81,160.47
3514,E3,605.25,0.25,70,160.47
3515,G#3,605.5,0.25,70,160.47
3516,E4,605.5,0.25,80,160.47
3517,E5,605.5,0.25,80,160.47
3518,B3,605.75,0.25,70,160.47
3519,G#3,606.0,0.25,75,160.47
3520,E5,606.0,0.25,95,160.47
3521,E6,606.0,0.25,95,160.47
3522,G#3,606.5,0.25,70,160.47
3523,E5,606.5,0.25,80,160.47
3524,E6,606.5,0.25,80,160.47
3525,E3,607.0,0.25,75,160.47
3526,B4,607.0,0.25,80,160.47
3527,B5,607.0,0.25,80,160.47
3528,B2,607.5,0.25,70,160.47
3529,G#4,607.5,0.25,80,160.47
3530,G#5,607.5,0.25,80,160.47
3531,B3,608.0,0.25,82,160.47
3532,G#5,608.25,0.25,47,160.47
3533,B5,608.5,0.248,50,160.47
3534,G#3,608.5,0.25,47,160.47
3535,G#5,608.75,0.25,47,160.47
3536,B5,609.0,0.248,51,160.47
3537,E4,609.0,0.25,53,160.47
3538,G#5,609.25,0.25,47,160.47
3539,B5,609.5,0.248,50,160.47
3540,B3,609.5,0.25,48,160.47
3541,G#5,609.75,0.25,47,160.47
3542,B5,610.0,0.248,51,160.47
3543,G#4,610.0,0.25,52,160.47
3544,G#5,610.25,0.25,47,160.47
3545,B5,610.5,0.248,50,160.47
3546,E4,610.5,0.25,41,160.47
3547,G#5,610.75,0.25,47,160.47
3548,B5,611.0,0.248,52,160.47
3549,B4,611.0,0.25,50,160.47
3550,G#5,611.25,0.25,47,160.47
3551,B5,611.5,0.248,51,160.47
3552,G#4,611.5,0.25,41,160.47
3553,G#5,611.75,0.25,47,160.47
3554,B5,612.0,0.248,50,160.47
3555,E5,612.0,0.25,50,160.47
3556,G#5,612.25,0.25,47,160.47
3557,B5,612.5,0.248,50,160.47
3558,B4,612.5,0.25,41,160.47
3559,G#5,612.75,0.25,47,160.47
3560,B5,613.0,0.248,51,160.47
3561,E5,613.0,0.25,50,160.47
3562,G#5,613.25,0.25,47,160.47
3563,B5,613.5,0.248,50,160.47
3564,B4,613.5,0.25,39,160.47
3565,G#5,613.75,0.25,47,160.47
3566,B5,614.0,0.248,51,160.47
3567,E5,614.0,0.25,50,160.47
3568,G#5,614.25,0.25,47,160.47
3569,B5,614.5,0.248,50,160.47
3570,B4,614.5,0.25,41,160.47
3571,G#5,614.75,0.25,47,160.47
3572,B5,615.0,0.248,52,160.47
3573,E5,615.0,0.25,50,160.47
3574,G#5,615.25,0.25,47,160.47
3575,B5,615.5,0.248,51,160.47
3576,B4,615.5,0.25,42,160.47
3577,G#5,615.75,0.25,47,160.47
3578,E-5,616.0,0.25,46,160.47
3579,A5,616.25,0.25,42,160.47
3580,B5,616.5,0.248,45,160.47
3581,B4,616.5,0.25,37,160.47
3582,A5,616.75,0.25,41,160.47
3583,C6,617.0,0.248,44,160.47
3584,E-5,617.0,0.25,43,160.47
3585,A5,617.25,0.25,40,160.47
3586,B5,617.5,0.248,42,160.47
3587,B4,617.5,0.25,36,160.47
3588,A5,617.75,0.25,39,160.47
3589,C6,618.0,0.248,42,160.47
3590,E-5,618.0,0.25,41,160.47
3591,A5,618.25,0.25,38,160.47
3592,B5,618.5,0.248,40,160.47
3593,B4,618.5,0.25,32,160.47
3594,A5,618.75,0.25,37,160.47
3595,C6,619.0,0.248,40,160.47
3596,E-5,619.0,0.25,39,160.47
3597,A5,619.25,0.25,36,160.47
3598,B5,619.5,0.248,39,160.47
3599,B4,619.5,0.25,31,160.47
3600,A5,619.75,0.25,35,160.47
3601,C6,620.0,0.248,37,160.47
3602,E-5,620.0,0.25,36,160.47
3603,A5,620.25,0.25,34,160.47
3604,B5,620.5,0.248,36,160.47
3605,B4,620.5,0.25,30,160.47
3606,A5,620.75,0.25,34,160.47
3607,C6,621.0,0.248,37,160.47
3608,E-5,621.0,0.25,36,160.47
3609,A5,621.25,0.25,34,160.47
3610,B5,621.5,0.248,36,160.47
3611,B4,621.5,0.25,31,160.47
3612,A5,621.75,0.25,34,160.47
3613,C6,622.0,0.248,37,160.47
3614,E-5,622.0,0.25,36,160.47
3615,A5,622.25,0.25,34,160.47
3616,B5,622.5,0.248,36,160.47
3617,B4,622.5,0.25,29,160.47
3618,A5,622.75,0.25,34,160.47
3619,C6,623.0,0.248,38,160.47
3620,E-5,623.0,0.25,36,160.47
3621,A5,623.25,0.25,34,160.47
3622,B5,623.5,0.248,37,160.47
3623,B4,623.5,0.25,30,160.47
3624,A5,623.75,0.25,34,160.47
3625,C#6,624.0,0.25,37,160.47
3626,E-5,624.0,0.167,37,160.47
3627,E5,624.167,0.167,32,160.47
3628,A5,624.25,0.25,34,160.47
3629,E-5,624.333,0.167,36,160.47
3630,B5,624.5,0.25,36,160.47
3631,E5,624.5,0.167,31,160.47
3632,E-5,624.667,0.167,36,160.47
3633,A5,624.75,0.25,35,160.47
3634,E5,624.833,0.167,33,160.47
3635,C#6,625.0,0.25,38,160.47
3636,E-5,625.0,0.167,37,160.47
3637,E5,625.167,0.167,33,160.47
3638,A5,625.25,0.25,36,160.47
3639,E-5,625.333,0.167,37,160.47
3640,B5,625.5,0.25,38,160.47
3641,E5,625.5,0.167,33,160.47
3642,E-5,625.667,0.167,38,160.47
3643,A5,625.75,0.25,36,160.47
3644,E5,625.833,0.167,34,160.47
3645,C#6,626.0,0.25,40,160.47
3646,E-5,626.0,0.167,38,160.47
3647,E5,626.167,0.167,35,160.47
3648,A5,626.25,0.25,37,160.47
3649,E-5,626.333,0.167,39,160.47
3650,B5,626.5,0.25,40,160.47
3651,E5,626.5,0.167,35,160.47
3652,E-5,626.667,0.167,39,160.47
3653,A5,626.75,0.25,38,160.47
3654,E5,626.833,0.167,36,160.47
3655,C#6,627.0,0.25,43,160.47
3656,E-5,627.0,0.167,40,160.47
3657,E5,627.167,0.167,36,160.47
3658,A5,627.25,0.25,39,160.47
3659,E-5,627.333,0.167,40,160.47
3660,B5,627.5,0.25,43,160.47
3661,E5,627.5,0.167,36,160.47
3662,E-5,627.667,0.167,41,160.47
3663,A5,627.75,0.25,40,160.47
3664,E5,627.833,0.167,37,160.47
3665,F#6,628.0,0.25,44,160.47
3666,E-5,628.0,0.167,41,160.47
3667,E5,628.167,0.167,36,160.47
3668,B5,628.25,0.25,41,160.47
3669,A5,628.25,0.25,41,160.47
3670,E-5,628.333,0.167,42,160.47
3671,F#6,628.5,0.25,43,160.47
3672,E5,628.5,0.167,37,160.47
3673,E-5,628.667,0.167,42,160.47
3674,B5,628.75,0.25,41,160.47
3675,A5,628.75,0.25,41,160.47
3676,E5,628.833,0.167,37,160.47
3677,F#6,629.0,0.25,46,160.47
3678,E-5,629.0,0.167,43,160.47
3679,E5,629.167,0.167,38,160.47
3680,B5,629.25,0.25,42,160.47
3681,A5,629.25,0.25,42,160.47
3682,E-5,629.333,0.167,43,160.47
3683,F#6,629.5,0.25,46,160.47
3684,E5,629.5,0.167,39,160.47
3685,E-5,629.667,0.167,44,160.47
3686,B5,629.75,0.25,44,160.47
3687,A5,629.75,0.25,44,160.47
3688,E5,629.833,0.167,39,160.47
3689,F#6,630.0,0.25,49,160.47
3690,E-5,630.0,0.167,44,160.47
3691,E5,630.167,0.167,38,160.47
3692,B5,630.25,0.25,45,160.47
3693,A5,630.25,0.25,45,160.47
3694,E-5,630.333,0.167,45,160.47
3695,F#6,630.5,0.25,49,160.47
3696,E5,630.5,0.167,38,160.47
3697,E-5,630.667,0.167,45,160.47
3698,B5,630.75,0.25,47,160.47
3699,A5,630.75,0.25,47,160.47
3700,E5,630.833,0.167,40,160.47
3701,F#6,631.0,0.25,54,160.47
3702,E-5,631.0,0.2,50,160.47
3703,E5,631.2,0.2,44,160.47
3704,B5,631.25,0.25,48,160.47
3705,A5,631.25,0.25,48,160.47
3706,E-5,631.4,0.2,50,160.47
3707,F#6,631.5,0.25,53,160.47
3708,C#5,631.6,0.2,52,160.47
3709,B5,631.75,0.25,49,160.47
3710,A5,631.75,0.25,49,160.47
3711,E-5,631.8,0.2,47,160.47
3712,E4,632.0,8.0,48,160.47
3713,E5,632.0,2.0,57,160.47
3714,G#5,632.0,3.0,72,160.47
3715,B5,632.0,3.0,72,160.47
3716,E6,632.0,3.0,72,160.47
3717,D5,634.0,2.0,40,160.47
3718,B4,634.0,2.0,40,160.47
3719,G#4,634.0,2.0,40,160.47
3720,E6,635.0,0.25,58,160.47
3721,D6,635.25,0.25,57,160.47
3722,C6,635.5,0.25,56,160.47
3723,B5,635.75,0.25,55,160.47
3724,C6,636.0,0.25,58,160.47
3725,A4,636.0,2.0,43,160.47
3726,C5,636.0,2.0,43,160.47
3727,B5,636.25,0.25,57,160.47
3728,A5,636.5,0.25,56,160.47
3729,G#5,636.75,0.25,55,160.47
3730,A5,637.0,0.25,51,160.47
3731,B5,637.25,0.25,52,160.47
3732,C6,637.5,0.25,53,160.47
3733,D6,637.75,0.25,54,160.47
3734,E6,638.0,0.25,56,160.47
3735,D5,638.0,2.0,41,160.47
3736,G#4,638.0,2.0,41,160.47
3737,B4,638.0,2.0,41,160.47
3738,F6,638.25,0.25,57,160.47
3739,E6,638.5,0.25,57,160.47
3740,E-6,638.75,0.25,56,160.47
3741,E6,639.0,0.25,56,160.47
3742,D6,639.25,0.25,56,160.47
3743,C6,639.5,0.25,56,160.47
3744,B5,639.75,0.25,56,160.47
3745,C6,640.0,0.25,57,160.47
3746,C5,640.0,1.0,44,160.47
3747,A4,640.0,1.0,44,160.47
3748,D6,640.25,0.25,57,160.47
3749,C6,640.5,0.25,57,160.47
3750,B5,640.75,0.25,53,160.47
3751,A5,641.0,0.25,56,160.47
3752,G#5,641.25,0.25,52,160.47
3753,A5,641.5,0.25,56,160.47
3754,B5,641.75,0.25,52,160.47
3755,C5,642.0,2.0,45,160.47
3756,C6,642.0,1.0,59,160.47
3757,A4,642.0,2.0,41,160.47
3758,A3,642.0,2.0,41,160.47
3759,C4,642.0,2.0,41,160.47
3760,F#4,642.0,2.0,41,160.47
3761,A5,643.0,0.5,52,160.47
3762,F#5,643.5,0.5,52,160.47
3763,B4,644.0,2.0,45,160.47
3764,B5,644.0,1.0,57,160.47
3765,G4,644.0,2.0,41,160.47
3766,B3,644.0,2.0,41,160.47
3767,E4,644.0,2.0,41,160.47
3768,G5,645.0,0.5,52,160.47
3769,E5,645.5,0.5,52,160.47
3770,A4,646.0,2.0,45,160.47
3771,A5,646.0,1.0,57,160.47
3772,E-4,646.0,2.0,39,160.47
3773,F#4,646.0,2.0,39,160.47
3774,B3,646.0,2.0,39,160.47
3775,F#5,647.0,0.5,52,160.47
3776,E-5,647.5,0.5,52,160.47
3777,E5,648.0,3.0,72,160.47
3778,E4,648.0,2.0,56,160.47
3779,E3,648.0,8.0,45,160.47
3780,G#3,650.0,2.0,40,160.47
3781,D4,650.0,2.0,40,160.47
3782,B3,650.0,2.0,40,160.47
3783,E5,651.0,0.25,58,160.47
3784,D5,651.25,0.25,57,160.47
3785,C5,651.5,0.25,56,160.47
3786,B4,651.75,0.25,55,160.47
3787,C5,652.0,0.25,58,160.47
3788,A3,652.0,2.0,43,160.47
3789,C4,652.0,2.0,43,160.47
3790,B4,652.25,0.25,57,160.47
3791,A4,652.5,0.25,56,160.47
3792,G#4,652.75,0.25,55,160.47
3793,A4,653.0,0.25,51,160.47
3794,B4,653.25,0.25,52,160.47
3795,C5,653.5,0.25,53,160.47
3796,D5,653.75,0.25,54,160.47
3797,E5,654.0,0.25,56,160.47
3798,D4,654.0,2.0,41,160.47
3799,B3,654.0,2.0,41,160.47
3800,G#3,654.0,2.0,41,160.47
3801,F5,654.25,0.25,57,160.47
3802,E5,654.5,0.25,57,160.47
3803,E-5,654.75,0.25,56,160.47
3804,E5,655.0,0.25,56,160.47
3805,D5,655.25,0.25,56,160.47
3806,C5,655.5,0.25,56,160.47
3807,B4,655.75,0.25,56,160.47
3808,C5,656.0,0.25,57,160.47
3809,C4,656.0,1.0,48,160.47
3810,A3,656.0,1.0,48,160.47
3811,D5,656.25,0.25,57,160.47
3812,C5,656.5,0.25,57,160.47
3813,B4,656.75,0.25,53,160.47
3814,A4,657.0,0.25,56,160.47
3815,G#4,657.25,0.25,52,160.47
3816,A4,657.5,0.25,56,160.47
3817,B4,657.75,0.25,52,160.47
3818,C4,658.0,2.0,45,160.47
3819,C5,658.0,1.0,59,160.47
3820,A2,658.0,2.0,41,160.47
3821,F#3,658.0,2.0,41,160.47
3822,A3,658.0,2.0,41,160.47
3823,C3,658.0,2.0,41,160.47
3824,A4,659.0,0.5,52,160.47
3825,F#4,659.5,0.5,52,160.47
3826,B3,660.0,2.0,45,160.47
3827,B4,660.0,1.0,57,160.47
3828,G3,660.0,2.0,41,160.47
3829,B2,660.0,2.0,41,160.47
3830,E3,660.0,2.0,41,160.47
3831,G4,661.0,0.5,52,160.47
3832,E4,661.5,0.5,52,160.47
3833,A3,662.0,2.0,45,160.47
3834,A4,662.0,1.0,57,160.47
3835,F#3,662.0,2.0,39,160.47
3836,E-3,662.0,2.0,39,160.47
3837,B2,662.0,2.0,39,160.47
3838,F#4,663.0,0.5,52,160.47
3839,E-4,663.5,0.5,52,160.47
3840,E4,664.0,0.5,55,160.47
3841,G3,664.0,0.5,40,160.47
3842,E3,664.0,0.5,40,160.47
3843,E5,665.0,0.5,68,160.47
3844,G2,665.0,1.0,42,160.47
3845,E3,665.0,1.5,51,160.47
3846,D5,665.5,0.5,63,160.47
3847,C5,666.0,1.0,66,160.47
3848,A2,666.0,2.0,42,160.47
3849,F3,666.5,0.5,49,160.47
3850,A4,667.0,0.5,61,160.47
3851,G3,667.0,0.5,51,160.47
3852,F4,667.5,0.5,54,160.47
3853,A3,667.5,0.5,55,160.47
3854,B4,668.0,1.0,51,160.47
3855,B2,668.0,4.0,35,160.47
3856,B3,668.0,2.0,38,160.47
3857,G3,668.0,2.0,38,160.47
3858,G4,669.0,0.5,46,160.47
3859,E4,669.5,0.5,46,160.47
3860,A4,670.0,1.0,51,160.47
3861,A3,670.0,2.0,36,160.47
3862,F#3,670.0,2.0,36,160.47
3863,F#4,671.0,0.5,46,160.47
3864,E-4,671.5,0.5,46,160.47
3865,E4,672.0,0.5,55,160.47
3866,E3,672.0,0.5,39,160.47
3867,G3,672.0,0.5,39,160.47
3868,C3,672.0,0.5,39,160.47
3869,C5,673.0,0.5,67,160.47
3870,C3,673.0,1.5,51,160.47
3871,E2,673.0,1.0,42,160.47
3872,B4,673.5,0.5,63,160.47
3873,A4,674.0,1.0,66,160.47
3874,F2,674.0,2.0,42,160.47
3875,D3,674.5,0.5,49,160.47
3876,F4,675.0,0.5,61,160.47
3877,E3,675.0,0.5,51,160.47
3878,D4,675.5,0.5,54,160.47
3879,F3,675.5,0.5,55,160.47
3880,G4,676.0,1.0,51,160.47
3881,G2,676.0,4.0,35,160.47
3882,E3,676.0,2.0,38,160.47
3883,G3,676.0,2.0,38,160.47
3884,E4,677.0,0.5,46,160.47
3885,C4,677.5,0.5,46,160.47
3886,F4,678.0,1.0,51,160.47
3887,D3,678.0,2.0,36,160.47
3888,F3,678.0,2.0,36,160.47
3889,D4,679.0,0.5,46,160.47
3890,B3,679.5,0.5,46,160.47
3891,C4,680.0,1.0,55,160.47
3892,C3,680.0,1.0,40,160.47
3893,E3,680.0,1.0,40,160.47
3894,F5,681.0,0.5,69,160.47
3895,A2,681.0,1.0,42,160.47
3896,F3,681.0,1.5,51,160.47
3897,E5,681.5,0.5,64,160.47
3898,D5,682.0,1.0,66,160.47
3899,B-2,682.0,2.0,42,160.47
3900,G3,682.5,0.5,49,160.47
3901,B-4,683.0,0.5,61,160.47
3902,A3,683.0,0.5,51,160.47
3903,G4,683.5,0.5,54,160.47
3904,B-3,683.5,0.5,55,160.47
3905,C5,684.0,1.0,51,160.47
3906,C3,684.0,4.0,35,160.47
3907,C4,684.0,2.0,38,160.47
3908,A3,684.0,2.0,38,160.47
3909,A4,685.0,0.5,46,160.47
3910,F4,685.5,0.5,46,160.47
3911,B-4,686.0,1.0,51,160.47
3912,G3,686.0,2.0,36,160.47
3913,B-3,686.0,2.0,36,160.47
3914,G4,687.0,0.5,46,160.47
3915,E4,687.5,0.5,46,160.47
3916,F4,688.0,0.5,55,160.47
3917,D3,688.0,1.0,39,160.47
3918,F3,688.0,1.0,39,160.47
3919,A3,688.0,1.0,39,160.47
3920,F4,689.0,0.5,68,160.47
3921,A1,689.0,1.0,42,160.47
3922,F2,689.0,1.5,51,160.47
3923,E4,689.5,0.5,63,160.47
3924,D4,690.0,1.0,66,160.47
3925,B-1,690.0,2.0,42,160.47
3926,G2,690.5,0.5,49,160.47
3927,B-3,691.0,0.5,61,160.47
3928,A2,691.0,0.5,51,160.47
3929,G3,691.5,0.5,54,160.47
3930,B-2,691.5,0.5,55,160.47
3931,C4,692.0,1.0,51,160.47
3932,C2,692.0,4.0,35,160.47
3933,C3,692.0,2.0,38,160.47
3934,A2,692.0,2.0,38,160.47
3935,A3,693.0,0.5,46,160.47
3936,F3,693.5,0.5,46,160.47
3937,B-3,694.0,1.0,51,160.47
3938,G2,694.0,2.0,36,160.47
3939,B-2,694.0,2.0,36,160.47
3940,G3,695.0,0.5,46,160.47
3941,E3,695.5,0.5,46,160.47
3942,A2,696.0,0.25,33,160.47
3943,F3,696.0,0.5,40,160.47
3944,F2,696.0,0.25,26,160.47
3945,F1,696.0,0.25,26,160.47
3946,F2,696.5,0.25,30,160.47
3947,A2,696.5,0.25,30,160.47
3948,C2,696.5,0.25,24,160.47
3949,F1,696.5,0.25,24,160.47
3950,F2,697.0,0.25,30,160.47
3951,A2,697.0,0.25,30,160.47
3952,C2,697.0,0.25,24,160.47
3953,F1,697.0,0.25,24,160.47
3954,F2,697.5,0.25,31,160.47
3955,A2,697.5,0.25,31,160.47
3956,C2,697.5,0.25,24,160.47
3957,F1,697.5,0.25,24,160.47
3958,F2,698.0,0.25,31,160.47
3959,A2,698.0,0.25,31,160.47
3960,C2,698.0,0.25,24,160.47
3961,F1,698.0,0.25,24,160.47
3962,F2,698.5,0.25,31,160.47
3963,A2,698.5,0.25,31,160.47
3964,C2,698.5,0.25,26,160.47
3965,F1,698.5,0.25,26,160.47
3966,F2,699.0,0.25,32,160.47
3967,A2,699.0,0.25,32,160.47
3968,C2,699.0,0.25,26,160.47
3969,F1,699.0,0.25,26,160.47
3970,F2,699.5,0.25,32,160.47
3971,A2,699.5,0.25,32,160.47
3972,C2,699.5,0.25,26,160.47
3973,F1,699.5,0.25,26,160.47
3974,F2,700.0,0.25,33,160.47
3975,A2,700.0,0.25,33,160.47
3976,F1,700.0,0.25,28,160.47
3977,C2,700.0,0.25,28,160.47
3978,F2,700.5,0.25,33,160.47
3979,A2,700.5,0.25,33,160.47
3980,F1,700.5,0.25,24,160.47
3981,C2,700.5,0.25,24,160.47
3982,F2,701.0,0.25,34,160.47
3983,A2,701.0,0.25,34,160.47
3984,F1,701.0,0.25,26,160.47
3985,C2,701.0,0.25,26,160.47
3986,F2,701.5,0.25,35,160.47
3987,A2,701.5,0.25,35,160.47
3988,F1,701.5,0.25,26,160.47
3989,C2,701.5,0.25,26,160.47
3990,F2,702.0,0.25,36,160.47
3991,A2,702.0,0.25,36,160.47
3992,F1,702.0,0.25,28,160.47
3993,C2,702.0,0.25,28,160.47
3994,F2,702.5,0.25,37,160.47
3995,A2,702.5,0.25,37,160.47
3996,F1,702.5,0.25,28,160.47
3997,C2,702.5,0.25,28,160.47
3998,G2,703.0,0.25,37,160.47
3999,B2,703.0,0.25,37,160.47
4000,F1,703.0,0.25,28,160.47
4001,D2,703.0,0.25,28,160.47
4002,G2,703.5,0.25,37,160.47
4003,B2,703.5,0.25,37,160.47
4004,F1,703.5,0.25,28,160.47
4005,D2,703.5,0.25,28,160.47
4006,C3,704.0,1.5,46,160.47
4007,E2,704.0,0.375,28,160.47
4008,G2,704.0,0.375,28,160.47
4009,E2,704.5,0.375,28,160.47
4010,G2,704.5,0.375,28,160.47
4011,E2,705.0,0.375,28,160.47
4012,G2,705.0,0.375,28,160.47
4013,E3,705.5,0.25,40,160.47
4014,E2,705.5,0.375,28,160.47
4015,G2,705.5,0.375,28,160.47
4016,D3,705.75,0.25,40,160.47
4017,C3,706.0,0.25,45,160.47
4018,E2,706.0,0.375,28,160.47
4019,G2,706.0,0.375,28,160.47
4020,E2,706.5,0.375,28,160.47
4021,G2,706.5,0.375,28,160.47
4022,E2,707.0,0.375,28,160.47
4023,G2,707.0,0.375,28,160.47
4024,E2,707.5,0.375,28,160.47
4025,G2,707.5,0.375,28,160.47
4026,F#5,707.875,0.125,46,160.47
4027,G5,708.0,1.25,57,160.47
4028,E-2,708.0,0.375,28,160.47
4029,G2,708.0,0.375,28,160.47
4030,E-2,708.5,0.375,28,160.47
4031,G2,708.5,0.375,28,160.47
4032,E-2,709.0,0.375,28,160.47
4033,G2,709.0,0.375,28,160.47
4034,F5,709.25,0.25,48,160.47
4035,E-5,709.5,0.25,47,160.47
4036,E-2,709.5,0.375,28,160.47
4037,G2,709.5,0.375,28,160.47
4038,D5,709.75,0.25,45,160.47
4039,C5,710.0,0.5,44,160.47
4040,E-2,710.0,0.375,28,160.47
4041,G2,710.0,0.375,28,160.47
4042,E-2,710.5,0.375,28,160.47
4043,G2,710.5,0.375,28,160.47
4044,E-2,711.0,0.375,28,160.47
4045,G2,711.0,0.375,28,160.47
4046,E-2,711.5,0.375,28,160.47
4047,G2,711.5,0.375,28,160.47
4048,F#3,712.0,1.5,46,160.47
4049,D2,712.0,0.375,28,160.47
4050,A2,712.0,0.375,28,160.47
4051,D2,712.5,0.375,28,160.47
4052,A2,712.5,0.375,28,160.47
4053,D2,713.0,0.375,28,160.47
4054,A2,713.0,0.375,28,160.47
4055,A3,713.5,0.25,40,160.47
4056,D2,713.5,0.375,28,160.47
4057,A2,713.5,0.375,28,160.47
4058,G3,713.75,0.25,40,160.47
4059,F#3,714.0,0.25,45,160.47
4060,D2,714.0,0.375,28,160.47
4061,A2,714.0,0.375,28,160.47
4062,D2,714.5,0.375,28,160.47
4063,A2,714.5,0.375,28,160.47
4064,D2,715.0,0.375,28,160.47
4065,A2,715.0,0.375,28,160.47
4066,D2,715.5,0.375,28,160.47
4067,A2,715.5,0.375,28,160.47
4068,D6,715.875,0.125,46,160.47
4069,E-6,716.0,1.25,57,160.47
4070,F#2,716.0,0.375,28,160.47
4071,D3,716.0,0.375,28,160.47
4072,F#2,716.5,0.375,28,160.47
4073,D3,716.5,0.375,28,160.47
4074,F#2,717.0,0.375,28,160.47
4075,D3,717.0,0.375,28,160.47
4076,D6,717.25,0.25,48,160.47
4077,C6,717.5,0.25,47,160.47
4078,F#2,717.5,0.375,28,160.47
4079,D3,717.5,0.375,28,160.47
4080,B-5,717.75,0.25,45,160.47
4081,A5,718.0,0.5,44,160.47
4082,F#2,718.0,0.375,28,160.47
4083,D3,718.0,0.375,28,160.47
4084,F#2,718.5,0.375,28,160.47
4085,D3,718.5,0.375,28,160.47
4086,F#2,719.0,0.375,28,160.47
4087,D3,719.0,0.375,28,160.47
4088,F#2,719.5,0.375,28,160.47
4089,D3,719.5,0.375,28,160.47
4090,B-3,720.0,0.5,57,160.47
4091,G2,720.0,0.344,30,160.47
4092,D3,720.25,0.25,26,160.47
4093,D4,720.5,0.25,48,160.47
4094,G2,720.5,0.344,30,160.47
4095,C4,720.75,0.25,48,160.47
4096,D3,720.75,0.25,27,160.47
4097,B-3,721.0,0.5,51,160.47
4098,G2,721.0,0.344,30,160.47
4099,D3,721.25,0.25,26,160.47
4100,G2,721.5,0.344,30,160.47
4101,D3,721.75,0.25,25,160.47
4102,C6,722.0,0.25,54,160.47
4103,A2,722.0,0.344,31,160.47
4104,B-5,722.25,0.25,52,160.47
4105,D3,722.25,0.25,26,160.47
4106,A5,722.5,0.25,50,160.47
4107,A2,722.5,0.344,31,160.47
4108,G5,722.75,0.25,48,160.47
4109,D3,722.75,0.25,27,160.47
4110,F#5,723.0,0.5,51,160.47
4111,A2,723.0,0.344,31,160.47
4112,D3,723.25,0.25,28,160.47
4113,A2,723.5,0.344,31,160.47
4114,D3,723.75,0.25,27,160.47
4115,G4,724.0,0.5,57,160.47
4116,B-2,724.0,0.344,30,160.47
4117,D3,724.25,0.25,26,160.47
4118,B-4,724.5,0.25,48,160.47
4119,B-2,724.5,0.344,30,160.47
4120,A4,724.75,0.25,48,160.47
4121,D3,724.75,0.25,27,160.47
4122,G4,725.0,0.5,51,160.47
4123,B-2,725.0,0.344,30,160.47
4124,D3,725.25,0.25,26,160.47
4125,B-2,725.5,0.344,30,160.47
4126,D3,725.75,0.25,25,160.47
4127,E-6,726.0,0.25,54,160.47
4128,F#2,726.0,0.344,31,160.47
4129,D6,726.25,0.25,52,160.47
4130,D3,726.25,0.25,26,160.47
4131,C6,726.5,0.25,50,160.47
4132,F#2,726.5,0.344,31,160.47
4133,B-5,726.75,0.25,48,160.47
4134,D3,726.75,0.25,27,160.47
4135,A5,727.0,0.5,51,160.47
4136,F#2,727.0,0.344,31,160.47
4137,D3,727.25,0.25,28,160.47
4138,F#2,727.5,0.344,31,160.47
4139,D3,727.75,0.25,27,160.47
4140,B-3,728.0,0.5,59,160.47
4141,G2,728.0,0.344,31,160.47
4142,D3,728.25,0.25,27,160.47
4143,D4,728.5,0.25,50,160.47
4144,G2,728.5,0.344,31,160.47
4145,C4,728.75,0.25,51,160.47
4146,D3,728.75,0.25,29,160.47
4147,B-3,729.0,0.5,56,160.47
4148,G2,729.0,0.344,32,160.47
4149,D3,729.25,0.25,28,160.47
4150,G2,729.5,0.344,34,160.47
4151,D3,729.75,0.25,29,160.47
4152,C6,730.0,0.25,63,160.47
4153,A2,730.0,0.344,36,160.47
4154,B-5,730.25,0.25,63,160.47
4155,D3,730.25,0.25,31,160.47
4156,A5,730.5,0.25,62,160.47
4157,A2,730.5,0.344,38,160.47
4158,G5,730.75,0.25,60,160.47
4159,D3,730.75,0.25,35,160.47
4160,F#5,731.0,0.5,64,160.47
4161,A2,731.0,0.344,40,160.47
4162,D3,731.25,0.25,37,160.47
4163,A2,731.5,0.344,43,160.47
4164,D3,731.75,0.25,38,160.47
4165,D5,732.0,0.25,73,160.47
4166,B-2,732.0,0.344,45,160.47
4167,C5,732.25,0.25,71,160.47
4168,D3,732.25,0.25,39,160.47
4169,B-4,732.5,0.25,71,160.47
4170,B-2,732.5,0.344,48,160.47
4171,A4,732.75,0.25,67,160.47
4172,D3,732.75,0.25,42,160.47
4173,G4,733.0,0.5,74,160.47
4174,B-2,733.0,0.344,50,160.47
4175,G3,733.25,0.25,46,160.47
4176,B-2,733.5,0.344,54,160.47
4177,G3,733.75,0.25,51,160.47
4178,G#5,734.0,0.25,87,160.47
4179,B2,734.0,0.344,64,160.47
4180,G5,734.25,0.25,83,160.47
4181,G3,734.25,0.25,53,160.47
4182,F5,734.5,0.25,81,160.47
4183,B2,734.5,0.344,64,160.47
4184,E-5,734.75,0.25,78,160.47
4185,G3,734.75,0.25,56,160.47
4186,D5,735.0,0.5,83,160.47
4187,B2,735.0,0.344,66,160.47
4188,G3,735.25,0.25,59,160.47
4189,B2,735.5,0.344,66,160.47
4190,G3,735.75,0.25,57,160.47
4191,E-4,736.0,0.5,57,160.47
4192,C3,736.0,0.344,30,160.47
4193,G3,736.25,0.25,26,160.47
4194,G4,736.5,0.25,48,160.47
4195,C3,736.5,0.344,30,160.47
4196,F4,736.75,0.25,48,160.47
4197,G3,736.75,0.25,27,160.47
4198,E-4,737.0,0.5,51,160.47
4199,C3,737.0,0.344,30,160.47
4200,G3,737.25,0.25,26,160.47
4201,C3,737.5,0.344,30,160.47
4202,G3,737.75,0.25,25,160.47
4203,F5,738.0,0.25,54,160.47
4204,D3,738.0,0.344,31,160.47
4205,E-5,738.25,0.25,52,160.47
4206,G3,738.25,0.25,26,160.47
4207,D5,738.5,0.25,50,160.47
4208,D3,738.5,0.344,31,160.47
4209,C5,738.75,0.25,48,160.47
4210,G3,738.75,0.25,27,160.47
4211,B4,739.0,0.5,51,160.47
4212,D3,739.0,0.344,31,160.47
4213,G3,739.25,0.25,28,160.47
4214,D3,739.5,0.344,31,160.47
4215,G3,739.75,0.25,27,160.47
4216,C4,740.0,0.5,57,160.47
4217,E-3,740.0,0.344,30,160.47
4218,G3,740.25,0.25,26,160.47
4219,E-4,740.5,0.25,48,160.47
4220,E-3,740.5,0.344,30,160.47
4221,D4,740.75,0.25,48,160.47
4222,G3,740.75,0.25,27,160.47
4223,C4,741.0,0.5,51,160.47
4224,E-3,741.0,0.344,30,160.47
4225,G3,741.25,0.25,26,160.47
4226,E-3,741.5,0.344,30,160.47
4227,G3,741.75,0.25,25,160.47
4228,G#5,742.0,0.25,54,160.47
4229,B2,742.0,0.344,31,160.47
4230,G5,742.25,0.25,52,160.47
4231,G3,742.25,0.25,26,160.47
4232,F5,742.5,0.25,50,160.47
4233,B2,742.5,0.344,31,160.47
4234,E-5,742.75,0.25,48,160.47
4235,G3,742.75,0.25,27,160.47
4236,D5,743.0,0.5,51,160.47
4237,B2,743.0,0.344,31,160.47
4238,G3,743.25,0.25,28,160.47
4239,B2,743.5,0.344,31,160.47
4240,G3,743.75,0.25,27,160.47
4241,E-4,744.0,0.5,59,160.47
4242,C3,744.0,0.344,31,160.47
4243,G3,744.25,0.25,27,160.47
4244,G4,744.5,0.25,50,160.47
4245,C3,744.5,0.344,31,160.47
4246,F4,744.75,0.25,51,160.47
4247,G3,744.75,0.25,29,160.47
4248,E-4,745.0,0.5,56,160.47
4249,C3,745.0,0.344,32,160.47
4250,G3,745.25,0.25,28,160.47
4251,C3,745.5,0.344,34,160.47
4252,G3,745.75,0.25,29,160.47
4253,F5,746.0,0.25,63,160.47
4254,D3,746.0,0.344,36,160.47
4255,E-5,746.25,0.25,63,160.47
4256,G3,746.25,0.25,31,160.47
4257,D5,746.5,0.25,62,160.47
4258,D3,746.5,0.344,38,160.47
4259,C5,746.75,0.25,60,160.47
4260,G3,746.75,0.25,35,160.47
4261,B4,747.0,0.5,64,160.47
4262,D3,747.0,0.344,40,160.47
4263,G3,747.25,0.25,37,160.47
4264,D3,747.5,0.344,43,160.47
4265,G3,747.75,0.25,38,160.47
4266,G5,748.0,0.25,73,160.47
4267,E-3,748.0,0.344,45,160.47
4268,F5,748.25,0.25,71,160.47
4269,G3,748.25,0.25,39,160.47
4270,E-5,748.5,0.25,71,160.47
4271,E-3,748.5,0.344,48,160.47
4272,D5,748.75,0.25,67,160.47
4273,G3,748.75,0.25,42,160.47
4274,C5,749.0,0.5,74,160.47
4275,E-3,749.0,0.344,50,160.47
4276,C4,749.25,0.25,46,160.47
4277,E-3,749.5,0.344,54,160.47
4278,C4,749.75,0.25,47,160.47
4279,C#6,750.0,0.25,87,160.47
4280,E3,750.0,0.344,64,160.47
4281,C6,750.25,0.25,83,160.47
4282,C4,750.25,0.25,53,160.47
4283,B-5,750.5,0.25,81,160.47
4284,E3,750.5,0.344,64,160.47
4285,G#5,750.75,0.25,78,160.47
4286,C4,750.75,0.25,56,160.47
4287,G5,751.0,0.5,83,160.47
4288,E3,751.0,0.344,66,160.47
4289,C4,751.25,0.25,59,160.47
4290,E3,751.5,0.344,66,160.47
4291,C4,751.75,0.25,57,160.47
4292,G#5,752.0,0.5,48,160.47
4293,F3,752.0,0.25,25,160.47
4294,G#3,752.25,0.25,22,160.47
4295,C6,752.5,0.25,40,160.47
4296,C4,752.5,0.25,22,160.47
4297,B-5,752.75,0.25,40,160.47
4298,F4,752.75,0.25,22,160.47
4299,G#5,753.0,0.5,43,160.47
4300,F3,753.0,0.25,25,160.47
4301,G#3,753.25,0.25,22,160.47
4302,C4,753.5,0.25,22,160.47
4303,F4,753.75,0.25,22,160.47
4304,C#6,754.0,0.5,48,160.47
4305,F3,754.0,0.25,26,160.47
4306,B-3,754.25,0.25,22,160.47
4307,F6,754.5,0.25,40,160.47
4308,C#4,754.5,0.25,22,160.47
4309,E-6,754.75,0.25,40,160.47
4310,F4,754.75,0.25,22,160.47
4311,C#6,755.0,0.5,43,160.47
4312,F3,755.0,0.25,26,160.47
4313,B-3,755.25,0.25,23,160.47
4314,C#4,755.5,0.25,22,160.47
4315,F4,755.75,0.25,22,160.47
4316,F#4,756.0,0.5,40,160.47
4317,E3,756.0,0.25,25,160.47
4318,F#3,756.25,0.25,22,160.47
4319,B-4,756.5,0.25,34,160.47
4320,B-3,756.5,0.25,22,160.47
4321,G#4,756.75,0.25,34,160.47
4322,C#4,756.75,0.25,22,160.47
4323,F#4,757.0,0.5,36,160.47
4324,E3,757.0,0.25,25,160.47
4325,F#3,757.25,0.25,22,160.47
4326,B-3,757.5,0.25,22,160.47
4327,C#4,757.75,0.25,22,160.47
4328,B4,758.0,2.0,40,160.47
4329,E-3,758.0,0.25,26,160.47
4330,F#3,758.25,0.25,22,160.47
4331,B3,758.5,0.25,22,160.47
4332,E-4,758.75,0.25,22,160.47
4333,E-3,759.0,0.25,26,160.47
4334,F#3,759.25,0.25,23,160.47
4335,B3,759.5,0.25,22,160.47
4336,E-4,759.75,0.25,22,160.47
4337,F5,760.0,0.5,48,160.47
4338,E-3,760.0,0.25,25,160.47
4339,F3,760.25,0.25,22,160.47
4340,A5,760.5,0.25,40,160.47
4341,A3,760.5,0.25,22,160.47
4342,G5,760.75,0.25,40,160.47
4343,C4,760.75,0.25,22,160.47
4344,F5,761.0,0.5,43,160.47
4345,E-3,761.0,0.25,25,160.47
4346,F3,761.25,0.25,22,160.47
4347,A3,761.5,0.25,22,160.47
4348,C4,761.75,0.25,22,160.47
4349,B-5,762.0,0.5,48,160.47
4350,C#3,762.0,0.25,26,160.47
4351,F3,762.25,0.25,22,160.47
4352,C#6,762.5,0.25,40,160.47
4353,B-3,762.5,0.25,22,160.47
4354,C6,762.75,0.25,40,160.47
4355,C#4,762.75,0.25,22,160.47
4356,B-5,763.0,0.5,43,160.47
4357,C#3,763.0,0.25,26,160.47
4358,F3,763.25,0.25,23,160.47
4359,B-3,763.5,0.25,22,160.47
4360,C#4,763.75,0.25,22,160.47
4361,E-4,764.0,0.5,40,160.47
4362,C#3,764.0,0.25,25,160.47
4363,E-3,764.25,0.25,22,160.47
4364,G4,764.5,0.25,34,160.47
4365,G3,764.5,0.25,22,160.47
4366,F4,764.75,0.25,34,160.47
4367,B-3,764.75,0.25,22,160.47
4368,E-4,765.0,0.5,36,160.47
4369,C#3,765.0,0.25,25,160.47
4370,E-3,765.25,0.25,22,160.47
4371,G3,765.5,0.25,22,160.47
4372,B-3,765.75,0.25,22,160.47
4373,G#4,766.0,2.0,40,160.47
4374,C3,766.0,0.25,26,160.47
4375,E-3,766.25,0.25,22,160.47
4376,G#3,766.5,0.25,22,160.47
4377,C4,766.75,0.25,22,160.47
4378,C3,767.0,0.25,26,160.47
4379,E-3,767.25,0.25,23,160.47
4380,G#3,767.5,0.25,22,160.47
4381,C4,767.75,0.25,22,160.47
4382,C#5,768.0,0.5,48,160.47
4383,B2,768.0,0.25,25,160.47
4384,C#3,768.25,0.25,22,160.47
4385,F5,768.5,0.25,40,160.47
4386,F3,768.5,0.25,22,160.47
4387,E-5,768.75,0.25,40,160.47
4388,G#3,768.75,0.25,22,160.47
4389,C#5,769.0,0.5,43,160.47
4390,B2,769.0,0.25,25,160.47
4391,C#3,769.25,0.25,22,160.47
4392,F3,769.5,0.25,22,160.47
4393,G#3,769.75,0.25,22,160.47
4394,F#5,770.0,0.5,48,160.47
4395,B-2,770.0,0.25,26,160.47
4396,C#3,770.25,0.25,22,160.47
4397,B-5,770.5,0.25,40,160.47
4398,F#3,770.5,0.25,22,160.47
4399,G#5,770.75,0.25,40,160.47
4400,B-3,770.75,0.25,22,160.47
4401,F#5,771.0,0.5,43,160.47
4402,B-2,771.0,0.25,26,160.47
4403,C#3,771.25,0.25,23,160.47
4404,F#3,771.5,0.25,22,160.47
4405,B-3,771.75,0.25,22,160.47
4406,C4,772.0,0.5,42,160.47
4407,B-2,772.0,0.25,26,160.47
4408,C3,772.25,0.25,23,160.47
4409,E4,772.5,0.25,35,160.47
4410,E3,772.5,0.25,23,160.47
4411,D4,772.75,0.25,35,160.47
4412,G3,772.75,0.25,23,160.47
4413,C4,773.0,0.5,38,160.47
4414,B-2,773.0,0.25,26,160.47
4415,C3,773.25,0.25,23,160.47
4416,E3,773.5,0.25,23,160.47
4417,G3,773.75,0.25,23,160.47
4418,C5,774.0,2.0,42,160.47
4419,G#2,774.0,0.25,27,160.47
4420,C3,774.25,0.25,23,160.47
4421,F3,774.5,0.25,23,160.47
4422,G#3,774.75,0.25,23,160.47
4423,G#2,775.0,0.25,28,160.47
4424,C3,775.25,0.25,25,160.47
4425,F3,775.5,0.25,23,160.47
4426,G#3,775.75,0.25,23,160.47
4427,C5,776.0,0.5,59,160.47
4428,G2,776.0,0.25,32,160.47
4429,B-2,776.25,0.25,28,160.47
4430,E5,776.5,0.25,52,160.47
4431,E3,776.5,0.25,28,160.47
4432,D5,776.75,0.25,52,160.47
4433,G3,776.75,0.25,29,160.47
4434,C5,777.0,0.5,56,160.47
4435,G2,777.0,0.25,34,160.47
4436,B-2,777.25,0.25,29,160.47
4437,E3,777.5,0.25,31,160.47
4438,G3,777.75,0.25,32,160.47
4439,C6,778.0,2.0,69,160.47
4440,F2,778.0,0.25,39,160.47
4441,G#2,778.25,0.25,33,160.47
4442,C3,778.5,0.25,33,160.47
4443,F3,778.75,0.25,34,160.47
4444,F2,779.0,0.333,41,160.47
4445,G#2,779.333,0.333,35,160.47
4446,F3,779.667,0.333,36,160.47
4447,C6,780.0,0.5,68,160.47
4448,E2,780.0,0.333,44,160.47
4449,G2,780.333,0.333,45,160.47
4450,E6,780.5,0.25,70,160.47
4451,E3,780.667,0.333,47,160.47
4452,D6,780.75,0.25,71,160.47
4453,C6,781.0,0.25,73,160.47
4454,E-2,781.0,0.333,47,160.47
4455,G2,781.333,0.333,49,160.47
4456,C6,781.5,0.25,77,160.47
4457,E-3,781.667,0.333,51,160.47
4458,C6,782.0,0.25,81,160.47
4459,D2,782.0,0.333,54,160.47
4460,F2,782.333,0.333,53,160.47
4461,C6,782.5,0.5,83,160.47
4462,D3,782.667,0.333,56,160.47
4463,F6,783.0,0.5,86,160.47
4464,C#2,783.0,0.333,56,160.47
4465,F2,783.333,0.333,58,160.47
4466,B5,783.5,0.5,90,160.47
4467,C#3,783.667,0.333,59,160.47
4468,C6,784.0,1.0,93,160.47
4469,C2,784.0,0.333,68,160.47
4470,C3,784.0,0.333,68,160.47
4471,G2,784.333,0.333,61,160.47
4472,E2,784.667,0.333,62,160.47
4473,G4,785.0,2.0,75,160.47
4474,G2,785.0,0.333,70,160.47
4475,C3,785.333,0.333,63,160.47
4476,E3,785.667,0.333,64,160.47
4477,D3,786.0,0.333,70,160.47
4478,B2,786.333,0.333,63,160.47
4479,G2,786.667,0.333,64,160.47
4480,G4,787.0,1.0,75,160.47
4481,B2,787.0,0.333,70,160.47
4482,D3,787.333,0.333,65,160.47
4483,F3,787.667,0.333,65,160.47
4484,C5,788.0,0.333,82,160.47
4485,E3,788.0,0.333,64,160.47
4486,G4,788.333,0.333,74,160.47
4487,G3,788.333,0.333,56,160.47
4488,E4,788.667,0.333,74,160.47
4489,C4,788.667,0.333,56,160.47
4490,G4,789.0,0.333,82,160.47
4491,G3,789.0,0.333,64,160.47
4492,C5,789.333,0.333,74,160.47
4493,E3,789.333,0.333,57,160.47
4494,E5,789.667,0.333,73,160.47
4495,C3,789.667,0.333,57,160.47
4496,D5,790.0,0.333,82,160.47
4497,F3,790.0,0.333,64,160.47
4498,B4,790.333,0.333,74,160.47
4499,G#3,790.333,0.333,56,160.47
4500,G#4,790.667,0.333,74,160.47
4501,C4,790.667,0.333,56,160.47
4502,B4,791.0,0.333,82,160.47
4503,G#3,791.0,0.333,64,160.47
4504,D5,791.333,0.333,75,160.47
4505,F3,791.333,0.333,57,160.47
4506,F5,791.667,0.333,75,160.47
4507,C3,791.667,0.333,58,160.47
4508,E5,792.0,0.333,82,160.47
4509,G3,792.0,1.333,64,160.47
4510,C#5,792.333,0.333,74,160.47
4511,B-3,792.333,0.667,56,160.47
4512,B-4,792.667,0.333,77,160.47
4513,C4,792.667,7.333,56,160.47
4514,C#5,793.0,0.333,82,160.47
4515,B-3,793.0,7.0,64,160.47
4516,E5,793.333,0.333,75,160.47
4517,G3,793.333,6.667,57,160.47
4518,G5,793.667,0.333,74,160.47
4519,C3,793.667,6.333,57,160.47
4520,B-5,794.0,0.333,82,160.47
4521,E5,794.333,0.333,74,160.47
4522,C#6,794.667,0.333,74,160.47
4523,E5,795.0,0.333,82,160.47
4524,C#5,795.333,0.333,74,160.47
4525,B-5,795.667,0.333,74,160.47
4526,C#5,796.0,0.333,82,160.47
4527,B-4,796.333,0.333,74,160.47
4528,E5,796.667,0.333,74,160.47
4529,B-4,797.0,0.333,78,160.47
4530,E4,797.333,0.333,74,160.47
4531,C#5,797.667,0.333,74,160.47
4532,B-4,798.0,0.333,77,160.47
4533,E4,798.333,0.333,71,160.47
4534,C5,798.667,0.333,71,160.47
4535,B-4,799.0,0.333,76,160.47
4536,E4,799.333,0.333,71,160.47
4537,C5,799.667,0.333,71,160.47
4538,F4,800.0,1.0,71,160.47
4539,A4,800.0,1.0,71,160.47
4540,C5,800.0,1.0,71,160.47
4541,F2,800.0,0.333,68,160.47
4542,F3,800.0,0.333,68,160.47
4543,C3,800.333,0.333,61,160.47
4544,A2,800.667,0.333,62,160.47
4545,C5,801.0,2.0,75,160.47
4546,C3,801.0,0.333,70,160.47
4547,F3,801.333,0.333,63,160.47
4548,A3,801.667,0.333,64,160.47
4549,G3,802.0,0.333,70,160.47
4550,E3,802.333,0.333,63,160.47
4551,C3,802.667,0.333,64,160.47
4552,C5,803.0,1.0,75,160.47
4553,E3,803.0,0.333,70,160.47
4554,G3,803.333,0.333,65,160.47
4555,B-3,803.667,0.333,65,160.47
4556,F5,804.0,0.333,82,160.47
4557,A3,804.0,0.333,64,160.47
4558,C5,804.333,0.333,74,160.47
4559,C4,804.333,0.333,56,160.47
4560,A4,804.667,0.333,74,160.47
4561,F4,804.667,0.333,56,160.47
4562,C5,805.0,0.333,82,160.47
4563,C4,805.0,0.333,64,160.47
4564,F5,805.333,0.333,74,160.47
4565,A3,805.333,0.333,57,160.47
4566,A5,805.667,0.333,73,160.47
4567,F3,805.667,0.333,57,160.47
4568,G5,806.0,0.333,82,160.47
4569,B-3,806.0,0.333,64,160.47
4570,E5,806.333,0.333,74,160.47
4571,C#4,806.333,0.333,56,160.47
4572,C#5,806.667,0.333,74,160.47
4573,F4,806.667,0.333,56,160.47
4574,E5,807.0,0.333,82,160.47
4575,C#4,807.0,0.333,64,160.47
4576,G5,807.333,0.333,75,160.47
4577,B-3,807.333,0.333,57,160.47
4578,B-5,807.667,0.333,75,160.47
4579,F3,807.667,0.333,58,160.47
4580,A5,808.0,0.333,82,160.47
4581,C4,808.0,1.333,64,160.47
4582,F#5,808.333,0.333,74,160.47
4583,E-4,808.333,0.667,56,160.47
4584,E-5,808.667,0.333,77,160.47
4585,F4,808.667,7.333,56,160.47
4586,F#5,809.0,0.333,82,160.47
4587,E-4,809.0,7.0,64,160.47
4588,A5,809.333,0.333,75,160.47
4589,C4,809.333,6.667,57,160.47
4590,C6,809.667,0.333,74,160.47
4591,F3,809.667,6.333,57,160.47
4592,A5,810.0,0.333,82,160.47
4593,F#5,810.333,0.333,74,160.47
4594,E-6,810.667,0.333,74,160.47
4595,F#5,811.0,0.333,82,160.47
4596,E-5,811.333,0.333,74,160.47
4597,C6,811.667,0.333,74,160.47
4598,E-5,812.0,0.333,82,160.47
4599,C5,812.333,0.333,74,160.47
4600,A5,812.667,0.333,74,160.47
4601,E-5,813.0,0.333,78,160.47
4602,A4,813.333,0.333,74,160.47
4603,F#5,813.667,0.333,74,160.47
4604,E-5,814.0,0.333,77,160.47
4605,A4,814.333,0.333,71,160.47
4606,F5,814.667,0.333,71,160.47
4607,E-5,815.0,0.333,76,160.47
4608,A4,815.333,0.333,71,160.47
4609,F5,815.667,0.333,71,160.47
4610,B-4,816.0,1.0,71,160.47
4611,D5,816.0,1.0,71,160.47
4612,F5,816.0,1.0,71,160.47
4613,B-1,816.0,0.333,68,160.47
4614,B-2,816.0,0.333,68,160.47
4615,F2,816.333,0.333,61,160.47
4616,D2,816.667,0.333,62,160.47
4617,F4,817.0,2.0,75,160.47
4618,F2,817.0,0.333,70,160.47
4619,B-2,817.333,0.333,63,160.47
4620,D3,817.667,0.333,64,160.47
4621,C3,818.0,0.333,70,160.47
4622,A2,818.333,0.333,63,160.47
4623,F2,818.667,0.333,64,160.47
4624,F4,819.0,1.0,75,160.47
4625,A2,819.0,0.333,70,160.47
4626,C3,819.333,0.333,65,160.47
4627,E-3,819.667,0.333,65,160.47
4628,B-4,820.0,0.333,82,160.47
4629,D3,820.0,0.333,64,160.47
4630,F4,820.333,0.333,74,160.47
4631,F3,820.333,0.333,56,160.47
4632,D4,820.667,0.333,74,160.47
4633,B-3,820.667,0.333,56,160.47
4634,F4,821.0,0.333,82,160.47
4635,F3,821.0,0.333,64,160.47
4636,B-4,821.333,0.333,74,160.47
4637,D3,821.333,0.333,57,160.47
4638,D5,821.667,0.333,73,160.47
4639,B-2,821.667,0.333,57,160.47
4640,C5,822.0,0.333,82,160.47
4641,E-3,822.0,0.333,64,160.47
4642,A4,822.333,0.333,74,160.47
4643,F#3,822.333,0.333,56,160.47
4644,F#4,822.667,0.333,74,160.47
4645,B-3,822.667,0.333,56,160.47
4646,A4,823.0,0.333,82,160.47
4647,F#3,823.0,0.333,64,160.47
4648,C5,823.333,0.333,75,160.47
4649,E-3,823.333,0.333,57,160.47
4650,E-5,823.667,0.333,75,160.47
4651,B-2,823.667,0.333,58,160.47
4652,D5,824.0,0.333,82,160.47
4653,F3,824.0,1.333,64,160.47
4654,B4,824.333,0.333,74,160.47
4655,G#3,824.333,0.667,56,160.47
4656,G#4,824.667,0.333,77,160.47
4657,B-3,824.667,7.333,56,160.47
4658,B4,825.0,0.333,82,160.47
4659,G#3,825.0,7.0,64,160.47
4660,D5,825.333,0.333,75,160.47
4661,F3,825.333,6.667,57,160.47
4662,F5,825.667,0.333,74,160.47
4663,B-2,825.667,6.333,57,160.47
4664,G#5,826.0,0.333,82,160.47
4665,D5,826.333,0.333,74,160.47
4666,B5,826.667,0.333,74,160.47
4667,D5,827.0,0.333,82,160.47
4668,B4,827.333,0.333,74,160.47
4669,G#5,827.667,0.333,74,160.47
4670,B4,828.0,0.333,82,160.47
4671,G#4,828.333,0.333,74,160.47
4672,F5,828.667,0.333,74,160.47
4673,G#4,829.0,0.333,78,160.47
4674,F4,829.333,0.333,74,160.47
4675,D5,829.667,0.333,74,160.47
4676,G#4,830.0,0.333,77,160.47
4677,D4,830.333,0.333,71,160.47
4678,B4,830.667,0.333,71,160.47
4679,G#4,831.0,0.333,76,160.47
4680,D4,831.333,0.333,71,160.47
4681,B-4,831.667,0.333,71,160.47
4682,F#5,832.0,0.333,82,160.47
4683,E-3,832.0,1.333,64,160.47
4684,E-5,832.333,0.333,74,160.47
4685,F#3,832.333,0.667,56,160.47
4686,B-4,832.667,0.333,77,160.47
4687,B-3,832.667,7.333,56,160.47
4688,E-5,833.0,0.333,82,160.47
4689,F#3,833.0,7.0,64,160.47
4690,F#5,833.333,0.333,75,160.47
4691,E-3,833.333,6.667,57,160.47
4692,B-5,833.667,0.333,74,160.47
4693,B-2,833.667,6.333,57,160.47
4694,F#5,834.0,0.333,82,160.47
4695,E-5,834.333,0.333,74,160.47
4696,E-6,834.667,0.333,74,160.47
4697,E-5,835.0,0.333,82,160.47
4698,B-4,835.333,0.333,74,160.47
4699,B-5,835.667,0.333,74,160.47
4700,B-4,836.0,0.333,82,160.47
4701,F#4,836.333,0.333,74,160.47
4702,F#5,836.667,0.333,74,160.47
4703,F#4,837.0,0.333,78,160.47
4704,E-4,837.333,0.333,74,160.47
4705,E-5,837.667,0.333,74,160.47
4706,F#4,838.0,0.333,77,160.47
4707,E-4,838.333,0.333,71,160.47
4708,E-5,838.667,0.333,71,160.47
4709,F#4,839.0,0.333,76,160.47
4710,E-4,839.333,0.333,71,160.47
4711,E-5,839.667,0.333,71,160.47
4712,F#5,840.0,0.333,82,160.47
4713,C#3,840.0,1.333,64,160.47
4714,E5,840.333,0.333,74,160.47
4715,F#3,840.333,0.667,56,160.47
4716,C#5,840.667,0.333,77,160.47
4717,B-3,840.667,7.333,56,160.47
4718,E5,841.0,0.333,82,160.47
4719,F#3,841.0,7.0,64,160.47
4720,F#5,841.333,0.333,75,160.47
4721,C#3,841.333,6.667,57,160.47
4722,C#6,841.667,0.333,74,160.47
4723,B-2,841.667,6.333,57,160.47
4724,F#5,842.0,0.333,82,160.47
4725,E5,842.333,0.333,74,160.47
4726,E6,842.667,0.333,74,160.47
4727,E5,843.0,0.333,82,160.47
4728,C#5,843.333,0.333,74,160.47
4729,C#6,843.667,0.333,74,160.47
4730,C#5,844.0,0.333,82,160.47
4731,F#4,844.333,0.333,74,160.47
4732,F#5,844.667,0.333,74,160.47
4733,F#4,845.0,0.333,78,160.47
4734,E4,845.333,0.333,74,160.47
4735,E5,845.667,0.333,74,160.47
4736,F#4,846.0,0.333,77,160.47
4737,E4,846.333,0.333,71,160.47
4738,E5,846.667,0.333,71,160.47
4739,F#4,847.0,0.333,76,160.47
4740,E4,847.333,0.333,71,160.47
4741,E5,847.667,0.333,71,160.47
4742,F#5,848.0,0.333,82,160.47
4743,D3,848.0,1.333,64,160.47
4744,D5,848.333,0.333,74,160.47
4745,F#3,848.333,0.667,56,160.47
4746,B4,848.667,0.333,77,160.47
4747,B3,848.667,7.333,56,160.47
4748,D5,849.0,0.333,82,160.47
4749,F#3,849.0,7.0,64,160.47
4750,F#5,849.333,0.333,75,160.47
4751,D3,849.333,6.667,57,160.47
4752,B5,849.667,0.333,74,160.47
4753,B2,849.667,6.333,57,160.47
4754,F#5,850.0,0.333,82,160.47
4755,D5,850.333,0.333,74,160.47
4756,D6,850.667,0.333,74,160.47
4757,D5,851.0,0.333,82,160.47
4758,B4,851.333,0.333,74,160.47
4759,B5,851.667,0.333,74,160.47
4760,B4,852.0,0.333,82,160.47
4761,F#4,852.333,0.333,74,160.47
4762,F#5,852.667,0.333,74,160.47
4763,F#4,853.0,0.333,78,160.47
4764,D4,853.333,0.333,74,160.47
4765,D5,853.667,0.333,74,160.47
4766,F#4,854.0,0.333,77,160.47
4767,D4,854.333,0.333,71,160.47
4768,D5,854.667,0.333,71,160.47
4769,F#4,855.0,0.333,76,160.47
4770,D4,855.333,0.333,71,160.47
4771,D5,855.667,0.333,71,160.47
4772,G5,856.0,0.333,82,160.47
4773,D3,856.0,1.333,64,160.47
4774,D5,856.333,0.333,74,160.47
4775,G3,856.333,0.667,56,160.47
4776,B4,856.667,0.333,77,160.47
4777,B3,856.667,7.333,56,160.47
4778,D5,857.0,0.333,82,160.47
4779,G3,857.0,7.0,64,160.47
4780,G5,857.333,0.333,75,160.47
4781,D3,857.333,6.667,57,160.47
4782,B5,857.667,0.333,74,160.47
4783,B2,857.667,6.333,57,160.47
4784,G5,858.0,0.333,82,160.47
4785,D5,858.333,0.333,74,160.47
4786,D6,858.667,0.333,74,160.47
4787,D5,859.0,0.333,82,160.47
4788,B4,859.333,0.333,74,160.47
4789,B5,859.667,0.333,74,160.47
4790,B4,860.0,0.333,82,160.47
4791,G4,860.333,0.333,74,160.47
4792,G5,860.667,0.333,74,160.47
4793,G4,861.0,0.333,78,160.47
4794,F4,861.333,0.333,74,160.47
4795,F5,861.667,0.333,74,160.47
4796,G4,862.0,0.333,77,160.47
4797,D4,862.333,0.333,71,160.47
4798,D5,862.667,0.333,71,160.47
4799,G4,863.0,0.333,76,160.47
4800,D4,863.333,0.333,71,160.47
4801,D5,863.667,0.333,71,160.47
4802,C6,864.0,0.333,82,160.47
4803,E-3,864.0,1.333,64,160.47
4804,G5,864.333,0.333,74,160.47
4805,G3,864.333,0.667,56,160.47
4806,E-5,864.667,0.333,77,160.47
4807,C4,864.667,7.333,56,160.47
4808,G5,865.0,0.333,82,160.47
4809,G3,865.0,7.0,64,160.47
4810,C6,865.333,0.333,75,160.47
4811,E-3,865.333,6.667,57,160.47
4812,E-6,865.667,0.333,74,160.47
4813,C3,865.667,6.333,57,160.47
4814,G5,866.0,0.333,82,160.47
4815,E-5,866.333,0.333,74,160.47
4816,E-6,866.667,0.333,74,160.47
4817,E-5,867.0,0.333,82,160.47
4818,C5,867.333,0.333,74,160.47
4819,C6,867.667,0.333,74,160.47
4820,C5,868.0,0.333,82,160.47
4821,G4,868.333,0.333,74,160.47
4822,G5,868.667,0.333,74,160.47
4823,G4,869.0,0.333,78,160.47
4824,E-4,869.333,0.333,74,160.47
4825,E-5,869.667,0.333,74,160.47
4826,G4,870.0,0.333,77,160.47
4827,E-4,870.333,0.333,71,160.47
4828,E-5,870.667,0.333,71,160.47
4829,G4,871.0,0.333,76,160.47
4830,E-4,871.333,0.333,71,160.47
4831,E-5,871.667,0.333,71,160.47
4832,F5,872.0,0.333,82,160.47
4833,G#3,872.0,1.333,64,160.47
4834,C#5,872.333,0.333,74,160.47
4835,C#4,872.333,0.667,56,160.47
4836,G#4,872.667,0.333,77,160.47
4837,F4,872.667,3.333,56,160.47
4838,C#5,873.0,0.333,82,160.47
4839,C#4,873.0,3.0,64,160.47
4840,F5,873.333,0.333,75,160.47
4841,G#3,873.333,2.667,57,160.47
4842,G#5,873.667,0.333,74,160.47
4843,F3,873.667,2.333,57,160.47
4844,F5,874.0,0.333,82,160.47
4845,C#5,874.333,0.333,74,160.47
4846,G#4,874.667,0.333,74,160.47
4847,F5,875.0,0.333,82,160.47
4848,C#5,875.333,0.333,74,160.47
4849,G#4,875.667,0.333,74,160.47
4850,E-5,876.0,0.333,82,160.47
4851,C4,876.0,1.333,64,160.47
4852,C5,876.333,0.333,74,160.47
4853,E-4,876.333,0.667,56,160.47
4854,A4,876.667,0.333,77,160.47
4855,F#4,876.667,3.333,56,160.47
4856,C5,877.0,0.333,82,160.47
4857,E-4,877.0,1.0,64,160.47
4858,E-5,877.333,0.333,75,160.47
4859,C4,877.333,2.667,57,160.47
4860,A5,877.667,0.333,74,160.47
4861,F#3,877.667,2.333,57,160.47
4862,E-5,878.0,0.333,82,160.47
4863,C5,878.333,0.333,74,160.47
4864,A4,878.667,0.333,74,160.47
4865,E-5,879.0,0.333,82,160.47
4866,C5,879.333,0.333,74,160.47
4867,A4,879.667,0.333,74,160.47
4868,B3,880.0,1.333,70,160.47
4869,D4,880.333,0.667,61,160.47
4870,G4,880.667,2.333,61,160.47
4871,B4,881.0,0.333,83,160.47
4872,D4,881.0,2.0,70,160.47
4873,D5,881.333,0.333,72,160.47
4874,B3,881.333,1.667,62,160.47
4875,G5,881.667,0.333,72,160.47
4876,G3,881.667,3.333,62,160.47
4877,D5,882.0,0.333,83,160.47
4878,B4,882.333,0.333,71,160.47
4879,G4,882.667,0.333,70,160.47
4880,F5,883.0,0.333,58,160.47
4881,D4,883.0,1.0,36,160.47
4882,B4,883.333,0.333,47,160.47
4883,G4,883.667,0.333,47,160.47
4884,F5,884.0,0.333,55,160.47
4885,B3,884.0,1.0,41,160.47
4886,D5,884.333,0.333,47,160.47
4887,G4,884.667,0.333,47,160.47
4888,E-5,885.0,0.333,55,160.47
4889,G3,885.0,3.0,36,160.47
4890,D5,885.333,0.333,47,160.47
4891,G4,885.667,0.333,47,160.47
4892,E-5,886.0,0.333,55,160.47
4893,C4,886.0,1.0,36,160.47
4894,C5,886.333,0.333,48,160.47
4895,G4,886.667,0.333,48,160.47
4896,D5,887.0,0.333,55,160.47
4897,F#4,887.0,1.0,36,160.47
4898,C5,887.333,0.333,47,160.47
4899,A4,887.667,0.333,47,160.47
4900,B2,888.0,1.333,62,160.47
4901,D3,888.333,0.667,55,160.47
4902,G3,888.667,1.99,55,160.47
4903,B3,889.0,0.333,78,160.47
4904,D3,889.0,2.0,62,160.47
4905,D4,889.333,0.333,71,160.47
4906,B2,889.333,1.667,56,160.47
4907,G4,889.667,0.333,71,160.47
4908,G2,889.667,3.333,56,160.47
4909,D4,890.0,0.333,74,160.47
4910,B3,890.333,0.333,63,160.47
4911,G3,890.667,0.333,62,160.47
4912,F4,891.0,0.333,52,160.47
4913,D3,891.0,1.0,32,160.47
4914,B3,891.333,0.333,42,160.47
4915,G3,891.667,0.333,42,160.47
4916,F4,892.0,0.333,49,160.47
4917,B2,892.0,1.0,36,160.47
4918,D4,892.333,0.333,42,160.47
4919,G3,892.667,0.333,42,160.47
4920,E-4,893.0,0.333,49,160.47
4921,G2,893.0,3.5,32,160.47
4922,D4,893.333,0.333,42,160.47
4923,G3,893.667,0.333,42,160.47
4924,E-4,894.0,0.333,49,160.47
4925,C3,894.0,1.0,32,160.47
4926,C4,894.333,0.333,43,160.47
4927,G3,894.667,0.333,43,160.47
4928,D4,895.0,0.333,49,160.47
4929,F#3,895.0,1.0,32,160.47
4930,C4,895.333,0.333,42,160.47
4931,A3,895.667,0.333,42,160.47
4932,D4,896.0,0.333,49,160.47
4933,G3,896.0,0.5,36,160.47
4934,B3,896.333,0.333,42,160.47
4935,G3,896.667,0.333,42,160.47
4936,C4,897.0,0.333,49,160.47
4937,C3,897.0,1.0,32,160.47
4938,G3,897.333,0.333,42,160.47
4939,E-3,897.667,0.333,41,160.47
4940,B3,898.0,0.333,48,160.47
4941,G2,898.0,1.0,31,160.47
4942,G3,898.333,0.333,41,160.47
4943,D3,898.667,0.333,41,160.47
4944,A3,899.0,0.333,46,160.47
4945,C2,899.0,1.0,30,160.47
4946,E-3,899.333,0.333,39,160.47
4947,C3,899.667,0.333,39,160.47
4948,G3,900.0,0.333,45,160.47
4949,G1,900.0,1.0,33,160.47
4950,D3,900.333,0.333,38,160.47
4951,B2,900.667,0.333,37,160.47
4952,F#3,901.0,0.333,43,160.47
4953,C2,901.0,1.0,28,160.47
4954,E-3,901.333,0.333,36,160.47
4955,A2,901.667,0.333,36,160.47
4956,G3,902.0,0.333,42,160.47
4957,G1,902.0,1.0,27,160.47
4958,D3,902.333,0.333,36,160.47
4959,B2,902.667,0.333,36,160.47
4960,F#3,903.0,0.333,40,160.47
4961,C2,903.0,1.0,26,160.47
4962,E-3,903.333,0.333,34,160.47
4963,A2,903.667,0.333,34,160.47
4964,G1,904.0,0.25,37,160.47
4965,B2,904.0,4.25,40,160.47
4966,D3,904.0,4.25,40,160.47
4967,G3,904.0,4.25,40,160.47
4968,C2,904.25,0.25,33,160.47
4969,B1,904.5,0.25,33,160.47
4970,A1,904.75,0.25,33,160.47
4971,G1,905.0,0.25,37,160.47
4972,C2,905.25,0.25,33,160.47
4973,B1,905.5,0.25,33,160.47
4974,A1,905.75,0.25,33,160.47
4975,G1,906.0,0.25,37,160.47
4976,C2,906.25,0.25,33,160.47
4977,B1,906.5,0.25,33,160.47
4978,A1,906.75,0.25,33,160.47
4979,G1,907.0,0.25,37,160.47
4980,C2,907.25,0.25,33,160.47
4981,B1,907.5,0.25,33,160.47
4982,A1,907.75,0.25,33,160.47
4983,G1,908.0,4.25,33,160.47
4984,D3,908.25,0.25,40,160.47
4985,E3,908.5,0.25,40,160.47
4986,F#3,908.75,0.25,40,160.47
4987,G3,909.0,0.25,45,160.47
4988,D3,909.25,0.25,40,160.47
4989,E3,909.5,0.25,40,160.47
4990,F#3,909.75,0.25,40,160.47
4991,G3,910.0,0.25,45,160.47
4992,D3,910.25,0.25,40,160.47
4993,E3,910.5,0.25,40,160.47
4994,F#3,910.75,0.25,40,160.47
4995,G3,911.0,0.25,46,160.47
4996,D3,911.25,0.25,40,160.47
4997,E3,911.5,0.25,40,160.47
4998,F#3,911.75,0.25,40,160.47
4999,G3,912.0,4.25,45,160.47
5000,C2,912.25,0.25,33,160.47
5001,B1,912.5,0.25,33,160.47
5002,A1,912.75,0.25,33,160.47
5003,G1,913.0,0.25,37,160.47
5004,C2,913.25,0.25,33,160.47
5005,B1,913.5,0.25,33,160.47
5006,A1,913.75,0.25,33,160.47
5007,G1,914.0,0.25,37,160.47
5008,C2,914.25,0.25,33,160.47
5009,B1,914.5,0.25,33,160.47
5010,A1,914.75,0.25,33,160.47
5011,G1,915.0,0.25,37,160.47
5012,C2,915.25,0.25,33,160.47
5013,B1,915.5,0.25,33,160.47
5014,A1,915.75,0.25,33,160.47
5015,G1,916.0,4.25,33,160.47
5016,F#3,916.25,0.25,40,160.47
5017,G3,916.5,0.25,40,160.47
5018,A3,916.75,0.25,40,160.47
5019,B3,917.0,0.25,45,160.47
5020,F#3,917.25,0.25,40,160.47
5021,G3,917.5,0.25,40,160.47
5022,A3,917.75,0.25,40,160.47
5023,B3,918.0,0.25,45,160.47
5024,F#3,918.25,0.25,40,160.47
5025,G3,918.5,0.25,40,160.47
5026,A3,918.75,0.25,40,160.47
5027,B3,919.0,0.25,46,160.47
5028,F#3,919.25,0.25,40,160.47
5029,G3,919.5,0.25,40,160.47
5030,A3,919.75,0.25,40,160.47
5031,B3,920.0,0.5,45,160.47
5032,C2,920.25,0.25,33,160.47
5033,B1,920.5,0.25,33,160.47
5034,A1,920.75,0.25,33,160.47
5035,G1,921.0,0.25,37,160.47
5036,C2,921.25,0.25,33,160.47
5037,B3,921.5,0.25,41,160.47
5038,B1,921.5,0.25,33,160.47
5039,C4,921.75,0.25,44,160.47
5040,A1,921.75,0.25,33,160.47
5041,D4,922.0,0.25,48,160.47
5042,G1,922.0,0.25,38,160.47
5043,C2,922.25,0.25,33,160.47
5044,B1,922.5,0.25,34,160.47
5045,A1,922.75,0.25,34,160.47
5046,G1,923.0,0.25,38,160.47
5047,C2,923.25,0.25,34,160.47
5048,D4,923.5,0.167,45,160.47
5049,B1,923.5,0.25,34,160.47
5050,E4,923.667,0.167,47,160.47
5051,A1,923.75,0.25,34,160.47
5052,F#4,923.833,0.167,48,160.47
5053,G4,924.0,0.5,53,160.47
5054,G1,924.0,0.25,39,160.47
5055,C2,924.25,0.25,35,160.47
5056,B1,924.5,0.25,35,160.47
5057,A1,924.75,0.25,35,160.47
5058,G1,925.0,0.25,39,160.47
5059,C2,925.25,0.25,35,160.47
5060,G4,925.5,0.25,51,160.47
5061,B1,925.5,0.25,35,160.47
5062,A4,925.75,0.25,51,160.47
5063,A1,925.75,0.25,35,160.47
5064,B4,926.0,0.25,55,160.47
5065,G1,926.0,0.25,40,160.47
5066,C2,926.25,0.25,36,160.47
5067,B4,926.5,0.25,51,160.47
5068,B1,926.5,0.25,36,160.47
5069,C5,926.75,0.25,52,160.47
5070,A1,926.75,0.25,36,160.47
5071,D5,927.0,0.25,55,160.47
5072,G1,927.0,0.25,40,160.47
5073,C2,927.25,0.25,36,160.47
5074,D5,927.5,0.167,52,160.47
5075,B1,927.5,0.25,36,160.47
5076,E5,927.667,0.167,54,160.47
5077,A1,927.75,0.25,36,160.47
5078,F#5,927.833,0.167,56,160.47
5079,G5,928.0,0.5,58,160.47
5080,G1,928.0,0.25,41,160.47
5081,C2,928.25,0.25,36,160.47
5082,B1,928.5,0.25,37,160.47
5083,A1,928.75,0.25,37,160.47
5084,G1,929.0,0.25,42,160.47
5085,C2,929.25,0.25,37,160.47
5086,D4,929.5,0.167,50,160.47
5087,B1,929.5,0.25,37,160.47
5088,E4,929.667,0.167,53,160.47
5089,A1,929.75,0.25,37,160.47
5090,F#4,929.833,0.167,55,160.47
5091,G4,930.0,0.5,58,160.47
5092,G1,930.0,0.25,42,160.47
5093,C2,930.25,0.25,38,160.47
5094,B1,930.5,0.25,38,160.47
5095,A1,930.75,0.25,38,160.47
5096,G1,931.0,0.25,44,160.47
5097,C2,931.25,0.25,38,160.47
5098,G4,931.5,0.25,55,160.47
5099,B1,931.5,0.25,38,160.47
5100,A4,931.75,0.25,59,160.47
5101,A1,931.75,0.25,38,160.47
5102,B4,932.0,0.25,63,160.47
5103,G1,932.0,0.25,44,160.47
5104,C2,932.25,0.25,39,160.47
5105,B1,932.5,0.25,39,160.47
5106,A1,932.75,0.25,39,160.47
5107,G1,933.0,0.25,45,160.47
5108,C2,933.25,0.25,39,160.47
5109,B4,933.5,0.25,57,160.47
5110,B1,933.5,0.25,39,160.47
5111,C5,933.75,0.25,58,160.47
5112,A1,933.75,0.25,39,160.47
5113,D5,934.0,0.25,63,160.47
5114,G1,934.0,0.25,45,160.47
5115,C2,934.25,0.25,39,160.47
5116,D5,934.5,0.167,58,160.47
5117,B1,934.5,0.25,40,160.47
5118,E5,934.667,0.167,60,160.47
5119,A1,934.75,0.25,40,160.47
5120,F#5,934.833,0.167,63,160.47
5121,G5,935.0,0.25,66,160.47
5122,G1,935.0,0.25,46,160.47
5123,C2,935.25,0.25,40,160.47
5124,G5,935.5,0.25,65,160.47
5125,B1,935.5,0.25,40,160.47
5126,A5,935.75,0.25,68,160.47
5127,A1,935.75,0.25,40,160.47
5128,B5,936.0,0.25,70,160.47
5129,G1,936.0,0.25,46,160.47
5130,C2,936.25,0.25,41,160.47
5131,B1,936.5,0.25,41,160.47
5132,A1,936.75,0.25,41,160.47
5133,G1,937.0,0.25,47,160.47
5134,C2,937.25,0.25,41,160.47
5135,D5,937.5,0.167,65,160.47
5136,B1,937.5,0.25,41,160.47
5137,E5,937.667,0.167,68,160.47
5138,A1,937.75,0.25,41,160.47
5139,F#5,937.833,0.167,69,160.47
5140,G5,938.0,0.25,71,160.47
5141,G1,938.0,0.25,48,160.47
5142,C2,938.25,0.25,42,160.47
5143,B1,938.5,0.25,42,160.47
5144,A1,938.75,0.25,42,160.47
5145,G1,939.0,0.25,48,160.47
5146,C2,939.25,0.25,42,160.47
5147,G5,939.5,0.25,66,160.47
5148,B1,939.5,0.25,42,160.47
5149,A5,939.75,0.25,68,160.47
5150,A1,939.75,0.25,42,160.47
5151,B5,940.0,0.25,73,160.47
5152,G1,940.0,0.25,49,160.47
5153,C2,940.25,0.25,42,160.47
5154,B1,940.5,0.25,44,160.47
5155,A1,940.75,0.25,44,160.47
5156,G1,941.0,0.25,49,160.47
5157,C2,941.25,0.25,44,160.47
5158,G5,941.5,0.25,68,160.47
5159,B1,941.5,0.25,44,160.47
5160,A5,941.75,0.25,72,160.47
5161,A1,941.75,0.25,44,160.47
5162,B5,942.0,0.25,76,160.47
5163,G1,942.0,0.25,50,160.47
5164,C2,942.25,0.25,45,160.47
5165,B5,942.5,0.25,68,160.47
5166,B1,942.5,0.25,45,160.47
5167,C6,942.75,0.25,71,160.47
5168,A1,942.75,0.25,45,160.47
5169,D6,943.0,0.25,75,160.47
5170,G1,943.0,0.25,50,160.47
5171,C2,943.25,0.25,45,160.47
5172,D6,943.5,0.25,70,160.47
5173,B1,943.5,0.25,45,160.47
5174,E6,943.75,0.25,75,160.47
5175,A1,943.75,0.25,45,160.47
5176,F6,944.0,0.25,79,160.47
5177,G1,944.0,0.25,51,160.47
5178,C2,944.25,0.25,46,160.47
5179,B1,944.5,0.25,46,160.47
5180,A1,944.75,0.25,46,160.47
5181,G1,945.0,0.25,52,160.47
5182,C2,945.25,0.25,47,160.47
5183,D6,945.5,0.25,77,160.47
5184,B1,945.5,0.25,48,160.47
5185,E6,945.75,0.25,82,160.47
5186,A1,945.75,0.25,48,160.47
5187,F6,946.0,0.25,86,160.47
5188,G1,946.0,0.25,54,160.47
5189,C#2,946.25,0.25,49,160.47
5190,B1,946.5,0.25,49,160.47
5191,A1,946.75,0.25,50,160.47
5192,G1,947.0,0.25,56,160.47
5193,C#2,947.25,0.25,51,160.47
5194,D6,947.5,0.25,79,160.47
5195,B1,947.5,0.25,51,160.47
5196,E6,947.75,0.25,84,160.47
5197,A1,947.75,0.25,51,160.47
5198,F6,948.0,0.25,88,160.47
5199,G1,948.0,0.292,57,160.47
5200,D2,948.25,0.292,52,160.47
5201,D6,948.5,0.25,79,160.47
5202,B1,948.5,0.292,52,160.47
5203,E6,948.75,0.25,84,160.47
5204,A1,948.75,0.292,53,160.47
5205,F6,949.0,0.25,88,160.47
5206,G1,949.0,0.292,59,160.47
5207,D2,949.25,0.292,54,160.47
5208,D6,949.5,0.25,81,160.47
5209,B1,949.5,0.292,54,160.47
5210,E6,949.75,0.25,85,160.47
5211,A1,949.75,0.292,54,160.47
5212,F6,950.0,0.25,89,160.47
5213,G1,950.0,0.292,61,160.47
5214,D2,950.25,0.292,55,160.47
5215,D6,950.5,0.25,81,160.47
5216,B1,950.5,0.292,56,160.47
5217,E6,950.75,0.25,86,160.47
5218,A1,950.75,0.292,56,160.47
5219,F6,951.0,0.25,92,160.47
5220,G1,951.0,0.292,63,160.47
5221,D2,951.25,0.292,57,160.47
5222,D6,951.5,0.25,85,160.47
5223,B1,951.5,0.292,57,160.47
5224,E6,951.75,0.25,91,160.47
5225,A1,951.75,0.292,57,160.47
5226,F6,952.0,0.292,96,160.47
5227,G1,952.0,0.292,67,160.47
5228,E6,952.25,0.292,94,160.47
5229,A1,952.25,0.292,66,160.47
5230,D6,952.5,0.292,92,160.47
5231,B1,952.5,0.292,65,160.47
5232,C6,952.75,0.292,91,160.47
5233,C2,952.75,0.292,63,160.47
5234,B5,953.0,0.292,89,160.47
5235,D2,953.0,0.292,62,160.47
5236,C6,953.25,0.292,91,160.47
5237,C2,953.25,0.292,63,160.47
5238,D6,953.5,0.292,92,160.47
5239,B1,953.5,0.292,64,160.47
5240,E6,953.75,0.292,93,160.47
5241,A1,953.75,0.292,66,160.47
5242,F6,954.0,0.292,96,160.47
5243,G1,954.0,0.292,66,160.47
5244,E6,954.25,0.292,95,160.47
5245,A1,954.25,0.292,65,160.47
5246,D6,954.5,0.292,94,160.47
5247,B1,954.5,0.292,64,160.47
5248,C6,954.75,0.292,93,160.47
5249,C2,954.75,0.292,64,160.47
5250,B5,955.0,0.292,93,160.47
5251,D2,955.0,0.292,61,160.47
5252,C6,955.25,0.292,93,160.47
5253,C2,955.25,0.292,63,160.47
5254,D6,955.5,0.292,95,160.47
5255,B1,955.5,0.292,65,160.47
5256,E6,955.75,0.292,97,160.47
5257,A1,955.75,0.292,67,160.47
5258,F6,956.0,0.542,99,160.47
5259,G1,956.0,0.542,69,160.47
5260,E6,956.5,0.292,97,160.47
5261,A1,956.5,0.292,66,160.47
5262,D6,956.75,0.292,96,160.47
5263,B1,956.75,0.292,65,160.47
5264,C6,957.0,0.292,95,160.47
5265,C2,957.0,0.292,64,160.47
5266,B5,957.25,0.292,93,160.47
5267,D2,957.25,0.292,63,160.47
5268,A5,957.5,0.292,92,160.47
5269,E2,957.5,0.292,63,160.47
5270,G5,957.75,0.292,91,160.47
5271,F2,957.75,0.292,62,160.47
5272,F5,958.0,0.292,90,160.47
5273,G2,958.0,0.292,61,160.47
5274,E5,958.25,0.292,88,160.47
5275,A2,958.25,0.292,60,160.47
5276,D5,958.5,0.292,87,160.47
5277,B2,958.5,0.292,59,160.47
5278,C5,958.75,0.292,86,160.47
5279,C3,958.75,0.292,58,160.47
5280,B4,959.0,0.292,85,160.47
5281,D3,959.0,0.292,57,160.47
5282,A4,959.25,0.292,83,160.47
5283,E3,959.25,0.292,56,160.47
5284,G4,959.5,0.292,82,160.47
5285,F3,959.5,0.292,55,160.47
5286,F4,959.75,0.292,81,160.47
5287,G3,959.75,0.292,55,160.47
5288,E4,960.0,0.5,80,160.47
5289,C3,960.0,0.5,54,160.47
5290,C3,960.5,0.375,30,160.47
5291,E3,960.5,0.375,30,160.47
5292,G2,960.5,0.375,24,160.47
5293,C2,960.5,0.375,24,160.47
5294,C3,961.0,0.375,30,160.47
5295,E3,961.0,0.375,30,160.47
5296,G2,961.0,0.375,24,160.47
5297,C2,961.0,0.375,24,160.47
5298,C3,961.5,0.375,31,160.47
5299,E3,961.5,0.375,31,160.47
5300,G2,961.5,0.375,24,160.47
5301,C2,961.5,0.375,24,160.47
5302,C3,962.0,0.375,31,160.47
5303,E3,962.0,0.375,31,160.47
5304,G2,962.0,0.375,24,160.47
5305,C2,962.0,0.375,24,160.47
5306,C3,962.5,0.375,31,160.47
5307,E3,962.5,0.375,31,160.47
5308,G2,962.5,0.375,26,160.47
5309,C2,962.5,0.375,26,160.47
5310,C3,963.0,0.375,32,160.47
5311,E3,963.0,0.375,32,160.47
5312,G2,963.0,0.375,26,160.47
5313,C2,963.0,0.375,26,160.47
5314,C3,963.5,0.375,32,160.47
5315,E3,963.5,0.375,32,160.47
5316,G2,963.5,0.375,26,160.47
5317,C2,963.5,0.375,26,160.47
5318,C3,964.0,0.375,33,160.47
5319,E3,964.0,0.375,33,160.47
5320,C2,964.0,0.375,28,160.47
5321,G2,964.0,0.375,28,160.47
5322,C3,964.5,0.375,33,160.47
5323,E3,964.5,0.375,33,160.47
5324,C2,964.5,0.375,24,160.47
5325,G2,964.5,0.375,24,160.47
5326,C3,965.0,0.375,34,160.47
5327,E3,965.0,0.375,34,160.47
5328,C2,965.0,0.375,26,160.47
5329,G2,965.0,0.375,26,160.47
5330,C3,965.5,0.375,35,160.47
5331,E3,965.5,0.375,35,160.47
5332,C2,965.5,0.375,26,160.47
5333,G2,965.5,0.375,26,160.47
5334,C3,966.0,0.375,36,160.47
5335,E3,966.0,0.375,36,160.47
5336,C2,966.0,0.375,28,160.47
5337,G2,966.0,0.375,28,160.47
5338,C3,966.5,0.375,37,160.47
5339,E3,966.5,0.375,37,160.47
5340,C2,966.5,0.375,28,160.47
5341,G2,966.5,0.375,28,160.47
5342,D3,967.0,0.375,37,160.47
5343,F#3,967.0,0.375,37,160.47
5344,C2,967.0,0.375,28,160.47
5345,A2,967.0,0.375,28,160.47
5346,D3,967.5,0.375,37,160.47
5347,F#3,967.5,0.375,37,160.47
5348,C2,967.5,0.375,28,160.47
5349,A2,967.5,0.375,28,160.47
5350,D3,968.0,1.5,42,160.47
5351,G3,968.0,1.5,42,160.47
5352,B1,968.0,0.375,28,160.47
5353,G2,968.0,0.375,28,160.47
5354,B1,968.5,0.375,28,160.47
5355,G2,968.5,0.375,28,160.47
5356,B1,969.0,0.375,28,160.47
5357,G2,969.0,0.375,28,160.47
5358,B3,969.5,0.25,40,160.47
5359,B1,969.5,0.375,28,160.47
5360,G2,969.5,0.375,28,160.47
5361,A3,969.75,0.25,40,160.47
5362,G3,970.0,0.25,45,160.47
5363,B1,970.0,0.375,28,160.47
5364,G2,970.0,0.375,28,160.47
5365,B1,970.5,0.375,28,160.47
5366,G2,970.5,0.375,28,160.47
5367,B1,971.0,0.375,28,160.47
5368,G2,971.0,0.375,28,160.47
5369,B1,971.5,0.375,28,160.47
5370,G2,971.5,0.375,28,160.47
5371,C#6,971.875,0.125,46,160.47
5372,D6,972.0,1.25,57,160.47
5373,B1,972.0,0.375,28,160.47
5374,G2,972.0,0.375,28,160.47
5375,B1,972.5,0.375,28,160.47
5376,G2,972.5,0.375,28,160.47
5377,B1,973.0,0.375,28,160.47
5378,G2,973.0,0.375,28,160.47
5379,C6,973.25,0.25,48,160.47
5380,B5,973.5,0.25,47,160.47
5381,B1,973.5,0.375,28,160.47
5382,G2,973.5,0.375,28,160.47
5383,A5,973.75,0.25,45,160.47
5384,G5,974.0,0.5,44,160.47
5385,B1,974.0,0.375,28,160.47
5386,G2,974.0,0.375,28,160.47
5387,B1,974.5,0.375,28,160.47
5388,G2,974.5,0.375,28,160.47
5389,B1,975.0,0.375,28,160.47
5390,G2,975.0,0.375,28,160.47
5391,B1,975.5,0.375,28,160.47
5392,G2,975.5,0.375,28,160.47
5393,B-2,976.0,0.375,33,160.47
5394,D3,976.0,0.375,33,160.47
5395,F2,976.0,0.375,28,160.47
5396,B-1,976.0,0.375,28,160.47
5397,B-2,976.5,0.375,32,160.47
5398,D3,976.5,0.375,32,160.47
5399,F2,976.5,0.375,28,160.47
5400,B-1,976.5,0.375,28,160.47
5401,B-2,977.0,0.375,32,160.47
5402,D3,977.0,0.375,32,160.47
5403,F2,977.0,0.375,28,160.47
5404,B-1,977.0,0.375,28,160.47
5405,B-2,977.5,0.375,33,160.47
5406,D3,977.5,0.375,33,160.47
5407,F2,977.5,0.375,28,160.47
5408,B-1,977.5,0.375,28,160.47
5409,B-2,978.0,0.375,34,160.47
5410,D3,978.0,0.375,34,160.47
5411,F2,978.0,0.375,28,160.47
5412,B-1,978.0,0.375,28,160.47
5413,B-2,978.5,0.375,34,160.47
5414,D3,978.5,0.375,34,160.47
5415,F2,978.5,0.375,28,160.47
5416,B-1,978.5,0.375,28,160.47
5417,B-2,979.0,0.375,35,160.47
5418,D3,979.0,0.375,35,160.47
5419,F2,979.0,0.375,28,160.47
5420,B-1,979.0,0.375,28,160.47
5421,B-2,979.5,0.375,36,160.47
5422,D3,979.5,0.375,36,160.47
5423,F2,979.5,0.375,28,160.47
5424,B-1,979.5,0.375,28,160.47
5425,B-2,980.0,0.375,36,160.47
5426,D3,980.0,0.375,36,160.47
5427,B-1,980.0,0.375,28,160.47
5428,F2,980.0,0.375,28,160.47
5429,B-2,980.5,0.375,37,160.47
5430,D3,980.5,0.375,37,160.47
5431,B-1,980.5,0.375,28,160.47
5432,F2,980.5,0.375,28,160.47
5433,B-2,981.0,0.375,37,160.47
5434,D3,981.0,0.375,37,160.47
5435,B-1,981.0,0.375,28,160.47
5436,F2,981.0,0.375,28,160.47
5437,B-2,981.5,0.375,37,160.47
5438,D3,981.5,0.375,37,160.47
5439,B-1,981.5,0.375,28,160.47
5440,F2,981.5,0.375,28,160.47
5441,B-2,982.0,0.375,37,160.47
5442,D3,982.0,0.375,37,160.47
5443,B-1,982.0,0.375,28,160.47
5444,F2,982.0,0.375,28,160.47
5445,B-2,982.5,0.375,37,160.47
5446,D3,982.5,0.375,37,160.47
5447,B-1,982.5,0.375,28,160.47
5448,F2,982.5,0.375,28,160.47
5449,C3,983.0,0.375,37,160.47
5450,E3,983.0,0.375,37,160.47
5451,B-1,983.0,0.375,28,160.47
5452,G2,983.0,0.375,28,160.47
5453,C3,983.5,0.375,37,160.47
5454,E3,983.5,0.375,37,160.47
5455,B-1,983.5,0.375,28,160.47
5456,G2,983.5,0.375,28,160.47
5457,C3,984.0,1.5,42,160.47
5458,F3,984.0,1.5,42,160.47
5459,A1,984.0,0.375,28,160.47
5460,F2,984.0,0.375,28,160.47
5461,A1,984.5,0.375,28,160.47
5462,F2,984.5,0.375,28,160.47
5463,A1,985.0,0.375,28,160.47
5464,F2,985.0,0.375,28,160.47
5465,A3,985.5,0.25,40,160.47
5466,A1,985.5,0.375,28,160.47
5467,F2,985.5,0.375,28,160.47
5468,G3,985.75,0.25,40,160.47
5469,F3,986.0,0.25,45,160.47
5470,A1,986.0,0.375,28,160.47
5471,F2,986.0,0.375,28,160.47
5472,A1,986.5,0.375,28,160.47
5473,F2,986.5,0.375,28,160.47
5474,A1,987.0,0.375,28,160.47
5475,F2,987.0,0.375,28,160.47
5476,A1,987.5,0.375,28,160.47
5477,F2,987.5,0.375,28,160.47
5478,B5,987.875,0.125,46,160.47
5479,C6,988.0,1.25,57,160.47
5480,G#1,988.0,0.375,28,160.47
5481,F2,988.0,0.375,28,160.47
5482,G#1,988.5,0.375,28,160.47
5483,F2,988.5,0.375,28,160.47
5484,G#1,989.0,0.375,28,160.47
5485,F2,989.0,0.375,28,160.47
5486,B-5,989.25,0.25,50,160.47
5487,G#5,989.5,0.25,49,160.47
5488,G#1,989.5,0.375,28,160.47
5489,F2,989.5,0.375,28,160.47
5490,G5,989.75,0.25,47,160.47
5491,F5,990.0,0.5,46,160.47
5492,G#1,990.0,0.375,28,160.47
5493,F2,990.0,0.375,28,160.47
5494,G#1,990.5,0.375,28,160.47
5495,F2,990.5,0.375,28,160.47
5496,G#1,991.0,0.375,28,160.47
5497,F2,991.0,0.375,28,160.47
5498,G#1,991.5,0.375,28,160.47
5499,F2,991.5,0.375,28,160.47
5500,E6,991.875,0.125,67,160.47
5501,F6,992.0,3.0,73,160.47
5502,G1,992.0,0.375,33,160.47
5503,F2,992.0,0.375,33,160.47
5504,G1,992.5,0.375,35,160.47
5505,F2,992.5,0.375,35,160.47
5506,G1,993.0,0.375,36,160.47
5507,F2,993.0,0.375,36,160.47
5508,G1,993.5,0.375,38,160.47
5509,F2,993.5,0.375,38,160.47
5510,G1,994.0,0.375,40,160.47
5511,F2,994.0,0.375,40,160.47
5512,G1,994.5,0.375,42,160.47
5513,F2,994.5,0.375,42,160.47
5514,F6,995.0,0.25,74,160.47
5515,G#1,995.0,0.375,42,160.47
5516,F2,995.0,0.375,42,160.47
5517,E-6,995.25,0.25,73,160.47
5518,D6,995.5,0.25,71,160.47
5519,G#1,995.5,0.375,44,160.47
5520,F2,995.5,0.375,44,160.47
5521,C6,995.75,0.25,70,160.47
5522,B5,996.0,0.25,72,160.47
5523,G1,996.0,0.375,48,160.47
5524,F2,996.0,0.375,48,160.47
5525,C6,996.25,0.25,71,160.47
5526,D6,996.5,0.25,72,160.47
5527,G1,996.5,0.375,48,160.47
5528,F2,996.5,0.375,48,160.47
5529,E-6,996.75,0.25,73,160.47
5530,F6,997.0,0.25,74,160.47
5531,G#1,997.0,0.375,50,160.47
5532,F2,997.0,0.375,50,160.47
5533,E-6,997.25,0.25,72,160.47
5534,D6,997.5,0.25,71,160.47
5535,G#1,997.5,0.375,50,160.47
5536,F2,997.5,0.375,50,160.47
5537,C6,997.75,0.25,69,160.47
5538,B5,998.0,0.25,72,160.47
5539,G1,998.0,0.375,53,160.47
5540,F2,998.0,0.375,53,160.47
5541,C6,998.25,0.25,75,160.47
5542,D6,998.5,0.25,77,160.47
5543,G1,998.5,0.375,56,160.47
5544,F2,998.5,0.375,56,160.47
5545,E-6,998.75,0.25,80,160.47
5546,F6,999.0,0.25,80,160.47
5547,G#1,999.0,0.375,59,160.47
5548,F2,999.0,0.375,59,160.47
5549,E-6,999.25,0.25,80,160.47
5550,D6,999.5,0.25,79,160.47
5551,G#1,999.5,0.375,61,160.47
5552,F2,999.5,0.375,61,160.47
5553,C6,999.75,0.25,81,160.47
5554,B5,1000.0,0.25,85,160.47
5555,F2,1000.0,0.988,78,160.47
5556,G1,1000.0,0.988,78,160.47
5557,C6,1000.25,0.25,89,160.47
5558,D6,1000.5,0.25,94,160.47
5559,E-6,1000.75,0.25,98,160.47
5560,F6,1001.0,0.25,100,160.47
5561,G2,1001.0,2.5,88,160.47
5562,G3,1001.0,2.5,88,160.47
5563,E-6,1001.25,0.25,98,160.47
5564,D6,1001.5,0.25,96,160.47
5565,C6,1001.75,0.25,94,160.47
5566,B5,1002.0,0.25,93,160.47
5567,G#5,1002.25,0.25,91,160.47
5568,G5,1002.5,0.25,89,160.47
5569,F5,1002.75,0.25,87,160.47
5570,E-5,1003.0,0.25,85,160.47
5571,D5,1003.25,0.25,83,160.47
5572,C5,1003.5,0.25,81,160.47
5573,A3,1003.5,0.25,67,160.47
5574,B4,1003.75,0.25,79,160.47
5575,B3,1003.75,0.25,70,160.47
5576,C5,1004.0,0.375,93,160.47
5577,C4,1004.0,0.375,72,160.47
5578,G4,1005.0,0.375,83,160.47
5579,G2,1005.0,0.375,61,160.47
5580,G3,1005.0,0.375,61,160.47
5581,E-4,1006.0,0.375,72,160.47
5582,E-2,1006.0,0.375,57,160.47
5583,E-3,1006.0,0.375,57,160.47
5584,C4,1007.0,0.375,64,160.47
5585,C2,1007.0,0.375,52,160.47
5586,C3,1007.0,0.375,52,160.47
5587,G#3,1008.0,4.0,60,160.47
5588,G#1,1008.0,4.0,50,160.47
5589,G#2,1008.0,4.0,50,160.47
5590,C#5,1012.0,0.375,54,160.47
5591,C#4,1012.0,0.375,37,160.47
5592,G#4,1013.0,0.375,52,160.47
5593,G#3,1013.0,0.375,33,160.47
5594,F4,1014.0,0.375,48,160.47
5595,F3,1014.0,0.375,32,160.47
5596,C#4,1015.0,0.375,43,160.47
5597,C#3,1015.0,0.375,29,160.47
5598,B-3,1016.0,4.0,39,160.47
5599,B-1,1016.0,4.0,26,160.47
5600,B-2,1016.0,4.0,26,160.47
5601,E-4,1020.0,0.375,41,160.47
5602,G4,1020.25,0.25,37,160.47
5603,B-4,1020.5,0.25,37,160.47
5604,E-5,1020.75,0.25,37,160.47
5605,B-3,1021.0,0.375,37,160.47
5606,G4,1021.25,0.25,37,160.47
5607,B-4,1021.5,0.25,37,160.47
5608,E-5,1021.75,0.25,37,160.47
5609,G3,1022.0,0.375,37,160.47
5610,G4,1022.25,0.25,37,160.47
5611,B-4,1022.5,0.25,37,160.47
5612,E-5,1022.75,0.25,37,160.47
5613,E-3,1023.0,0.375,37,160.47
5614,G4,1023.25,0.25,37,160.47
5615,B-4,1023.5,0.25,37,160.47
5616,E-5,1023.75,0.25,37,160.47
5617,F3,1024.0,0.375,35,160.47
5618,F4,1024.25,0.25,37,160.47
5619,G#4,1024.5,0.25,37,160.47
5620,E-5,1024.75,0.25,37,160.47
5621,G#3,1025.0,0.375,38,160.47
5622,F4,1025.25,0.25,41,160.47
5623,B4,1025.5,0.25,41,160.47
5624,D5,1025.75,0.25,41,160.47
5625,A3,1026.0,0.375,39,160.47
5626,E-4,1026.25,0.25,45,160.47
5627,F#4,1026.5,0.25,45,160.47
5628,D5,1026.75,0.25,45,160.47
5629,F#3,1027.0,0.375,37,160.47
5630,E-4,1027.25,0.25,39,160.47
5631,A4,1027.5,0.25,39,160.47
5632,C5,1027.75,0.25,39,160.47
5633,G3,1028.0,0.375,46,160.47
5634,D4,1028.25,0.25,44,160.47
5635,G4,1028.5,0.25,44,160.47
5636,C5,1028.75,0.25,44,160.47
5637,F#3,1029.0,0.375,44,160.47
5638,D4,1029.25,0.25,48,160.47
5639,G4,1029.5,0.25,48,160.47
5640,C5,1029.75,0.25,48,160.47
5641,G3,1030.0,0.375,60,160.47
5642,D4,1030.25,0.25,53,160.47
5643,G4,1030.5,0.25,53,160.47
5644,B4,1030.75,0.25,53,160.47
5645,G2,1031.0,0.375,56,160.47
5646,D4,1031.25,0.25,58,160.47
5647,F4,1031.5,0.25,59,160.47
5648,B4,1031.75,0.25,59,160.47
5649,C2,1032.0,4.0,70,160.47
5650,C3,1032.0,0.5,70,160.47
5651,E4,1032.0,0.5,76,160.47
5652,C5,1032.0,0.5,76,160.47
5653,E4,1032.5,0.248,37,160.47
5654,C3,1032.5,0.248,31,160.47
5655,C4,1032.75,0.25,33,160.47
5656,G3,1032.75,0.25,26,160.47
5657,E4,1033.0,0.248,37,160.47
5658,C3,1033.0,0.248,31,160.47
5659,C4,1033.25,0.25,33,160.47
5660,G3,1033.25,0.25,27,160.47
5661,E4,1033.5,0.248,36,160.47
5662,C3,1033.5,0.248,31,160.47
5663,C4,1033.75,0.25,33,160.47
5664,G3,1033.75,0.25,27,160.47
5665,E4,1034.0,0.248,36,160.47
5666,C3,1034.0,0.248,31,160.47
5667,C4,1034.25,0.25,33,160.47
5668,G3,1034.25,0.25,26,160.47
5669,E4,1034.5,0.248,37,160.47
5670,C3,1034.5,0.248,31,160.47
5671,C4,1034.75,0.25,33,160.47
5672,G3,1034.75,0.25,27,160.47
5673,E4,1035.0,0.248,36,160.47
5674,C3,1035.0,0.248,31,160.47
5675,C4,1035.25,0.25,33,160.47
5676,G3,1035.25,0.25,27,160.47
5677,E4,1035.5,0.248,36,160.47
5678,C3,1035.5,0.248,31,160.47
5679,C4,1035.75,0.25,33,160.47
5680,G3,1035.75,0.25,25,160.47
5681,E4,1036.0,0.248,37,160.47
5682,C3,1036.0,0.248,31,160.47
5683,C4,1036.25,0.25,33,160.47
5684,G3,1036.25,0.25,26,160.47
5685,E4,1036.5,0.248,37,160.47
5686,C3,1036.5,0.248,31,160.47
5687,C4,1036.75,0.25,33,160.47
5688,G3,1036.75,0.25,26,160.47
5689,E4,1037.0,0.248,37,160.47
5690,C3,1037.0,0.248,31,160.47
5691,C4,1037.25,0.25,33,160.47
5692,G3,1037.25,0.25,27,160.47
5693,E4,1037.5,0.248,36,160.47
5694,C3,1037.5,0.248,31,160.47
5695,C4,1037.75,0.25,33,160.47
5696,G3,1037.75,0.25,27,160.47
5697,E4,1038.0,0.248,36,160.47
5698,C3,1038.0,0.248,31,160.47
5699,C4,1038.25,0.25,33,160.47
5700,G3,1038.25,0.25,26,160.47
5701,E4,1038.5,0.248,37,160.47
5702,C3,1038.5,0.248,31,160.47
5703,C4,1038.75,0.25,33,160.47
5704,G3,1038.75,0.25,27,160.47
5705,F#4,1039.0,0.248,36,160.47
5706,C3,1039.0,0.248,31,160.47
5707,D4,1039.25,0.25,33,160.47
5708,A3,1039.25,0.25,27,160.47
5709,F#4,1039.5,0.248,36,160.47
5710,C3,1039.5,0.248,31,160.47
5711,D4,1039.75,0.25,33,160.47
5712,A3,1039.75,0.25,25,160.47
5713,G4,1040.0,1.5,46,160.47
5714,B2,1040.0,0.375,28,160.47
5715,D3,1040.0,0.375,28,160.47
5716,G3,1040.25,0.25,25,160.47
5717,B2,1040.5,0.375,28,160.47
5718,D3,1040.5,0.375,28,160.47
5719,G3,1040.75,0.25,25,160.47
5720,B2,1041.0,0.375,28,160.47
5721,D3,1041.0,0.375,28,160.47
5722,G3,1041.25,0.25,25,160.47
5723,B4,1041.5,0.25,40,160.47
5724,B2,1041.5,0.375,28,160.47
5725,D3,1041.5,0.375,28,160.47
5726,A4,1041.75,0.25,40,160.47
5727,G3,1041.75,0.25,25,160.47
5728,G4,1042.0,0.25,45,160.47
5729,B2,1042.0,0.375,28,160.47
5730,D3,1042.0,0.375,28,160.47
5731,G3,1042.25,0.25,25,160.47
5732,B2,1042.5,0.375,28,160.47
5733,D3,1042.5,0.375,28,160.47
5734,G3,1042.75,0.25,25,160.47
5735,B2,1043.0,0.375,28,160.47
5736,D3,1043.0,0.375,28,160.47
5737,G3,1043.25,0.25,25,160.47
5738,B2,1043.5,0.375,28,160.47
5739,D3,1043.5,0.375,28,160.47
5740,G3,1043.75,0.25,25,160.47
5741,C#6,1043.875,0.125,46,160.47
5742,D6,1044.0,1.25,57,160.47
5743,B2,1044.0,0.375,28,160.47
5744,D3,1044.0,0.375,28,160.47
5745,G3,1044.25,0.25,25,160.47
5746,B2,1044.5,0.375,28,160.47
5747,D3,1044.5,0.375,28,160.47
5748,G3,1044.75,0.25,25,160.47
5749,B2,1045.0,0.375,28,160.47
5750,D3,1045.0,0.375,28,160.47
5751,C6,1045.25,0.25,48,160.47
5752,G3,1045.25,0.25,25,160.47
5753,B5,1045.5,0.25,47,160.47
5754,B2,1045.5,0.375,28,160.47
5755,D3,1045.5,0.375,28,160.47
5756,A5,1045.75,0.25,45,160.47
5757,G3,1045.75,0.25,25,160.47
5758,G5,1046.0,0.5,44,160.47
5759,B2,1046.0,0.375,28,160.47
5760,D3,1046.0,0.375,28,160.47
5761,G3,1046.25,0.25,25,160.47
5762,B2,1046.5,0.375,28,160.47
5763,D3,1046.5,0.375,28,160.47
5764,G3,1046.75,0.25,25,160.47
5765,B2,1047.0,0.375,28,160.47
5766,D3,1047.0,0.375,28,160.47
5767,G3,1047.25,0.25,25,160.47
5768,B2,1047.5,0.375,28,160.47
5769,D3,1047.5,0.375,28,160.47
5770,G3,1047.75,0.25,25,160.47
5771,F4,1048.0,0.248,40,160.47
5772,D2,1048.0,4.0,33,160.47
5773,D3,1048.0,0.5,33,160.47
5774,D4,1048.25,0.25,36,160.47
5775,F4,1048.5,0.248,40,160.47
5776,D3,1048.5,0.248,34,160.47
5777,D4,1048.75,0.25,36,160.47
5778,A3,1048.75,0.25,28,160.47
5779,F4,1049.0,0.248,40,160.47
5780,D3,1049.0,0.248,34,160.47
5781,D4,1049.25,0.25,36,160.47
5782,A3,1049.25,0.25,29,160.47
5783,F4,1049.5,0.248,39,160.47
5784,D3,1049.5,0.248,34,160.47
5785,D4,1049.75,0.25,36,160.47
5786,A3,1049.75,0.25,29,160.47
5787,F4,1050.0,0.248,39,160.47
5788,D3,1050.0,0.248,34,160.47
5789,D4,1050.25,0.25,36,160.47
5790,A3,1050.25,0.25,28,160.47
5791,F4,1050.5,0.248,41,160.47
5792,D3,1050.5,0.248,34,160.47
5793,D4,1050.75,0.25,36,160.47
5794,A3,1050.75,0.25,29,160.47
5795,F4,1051.0,0.248,40,160.47
5796,D3,1051.0,0.248,34,160.47
5797,D4,1051.25,0.25,37,160.47
5798,A3,1051.25,0.25,30,160.47
5799,F4,1051.5,0.248,40,160.47
5800,D3,1051.5,0.248,35,160.47
5801,D4,1051.75,0.25,37,160.47
5802,A3,1051.75,0.25,28,160.47
5803,F4,1052.0,0.248,41,160.47
5804,D3,1052.0,0.248,35,160.47
5805,D4,1052.25,0.25,37,160.47
5806,A3,1052.25,0.25,29,160.47
5807,F4,1052.5,0.248,41,160.47
5808,D3,1052.5,0.248,35,160.47
5809,D4,1052.75,0.25,37,160.47
5810,A3,1052.75,0.25,29,160.47
5811,F4,1053.0,0.248,42,160.47
5812,D3,1053.0,0.248,35,160.47
5813,D4,1053.25,0.25,37,160.47
5814,A3,1053.25,0.25,30,160.47
5815,F4,1053.5,0.248,41,160.47
5816,D3,1053.5,0.248,35,160.47
5817,D4,1053.75,0.25,38,160.47
5818,A3,1053.75,0.25,30,160.47
5819,F4,1054.0,0.248,41,160.47
5820,D3,1054.0,0.248,36,160.47
5821,D4,1054.25,0.25,38,160.47
5822,A3,1054.25,0.25,29,160.47
5823,F4,1054.5,0.248,42,160.47
5824,D3,1054.5,0.248,36,160.47
5825,D4,1054.75,0.25,38,160.47
5826,A3,1054.75,0.25,31,160.47
5827,G#4,1055.0,0.248,41,160.47
5828,D3,1055.0,0.248,36,160.47
5829,E4,1055.25,0.25,38,160.47
5830,B3,1055.25,0.25,31,160.47
5831,G#4,1055.5,0.248,42,160.47
5832,D3,1055.5,0.248,36,160.47
5833,E4,1055.75,0.25,38,160.47
5834,B3,1055.75,0.25,29,160.47
5835,A4,1056.0,1.5,55,160.47
5836,C3,1056.0,0.375,34,160.47
5837,E3,1056.0,0.375,34,160.47
5838,A3,1056.25,0.25,29,160.47
5839,C3,1056.5,0.375,34,160.47
5840,E3,1056.5,0.375,34,160.47
5841,A3,1056.75,0.25,29,160.47
5842,C3,1057.0,0.375,34,160.47
5843,E3,1057.0,0.375,34,160.47
5844,A3,1057.25,0.25,29,160.47
5845,C5,1057.5,0.25,48,160.47
5846,C3,1057.5,0.375,34,160.47
5847,E3,1057.5,0.375,34,160.47
5848,B4,1057.75,0.25,48,160.47
5849,A3,1057.75,0.25,29,160.47
5850,A4,1058.0,0.25,53,160.47
5851,C3,1058.0,0.375,34,160.47
5852,E3,1058.0,0.375,34,160.47
5853,A3,1058.25,0.25,29,160.47
5854,C3,1058.5,0.375,34,160.47
5855,E3,1058.5,0.375,34,160.47
5856,A3,1058.75,0.25,29,160.47
5857,C3,1059.0,0.375,34,160.47
5858,E3,1059.0,0.375,34,160.47
5859,A3,1059.25,0.25,29,160.47
5860,C3,1059.5,0.375,34,160.47
5861,E3,1059.5,0.375,34,160.47
5862,A3,1059.75,0.25,29,160.47
5863,E-6,1059.875,0.125,55,160.47
5864,E6,1060.0,1.25,68,160.47
5865,C3,1060.0,0.375,34,160.47
5866,E3,1060.0,0.375,34,160.47
5867,A3,1060.25,0.25,29,160.47
5868,C3,1060.5,0.375,34,160.47
5869,E3,1060.5,0.375,34,160.47
5870,A3,1060.75,0.25,29,160.47
5871,C3,1061.0,0.375,34,160.47
5872,E3,1061.0,0.375,34,160.47
5873,D6,1061.25,0.25,58,160.47
5874,A3,1061.25,0.25,29,160.47
5875,C6,1061.5,0.25,57,160.47
5876,C3,1061.5,0.375,34,160.47
5877,E3,1061.5,0.375,34,160.47
5878,B5,1061.75,0.25,55,160.47
5879,A3,1061.75,0.25,30,160.47
5880,A5,1062.0,0.5,55,160.47
5881,C3,1062.0,0.375,34,160.47
5882,E3,1062.0,0.375,34,160.47
5883,A3,1062.25,0.25,30,160.47
5884,C3,1062.5,0.375,35,160.47
5885,E3,1062.5,0.375,35,160.47
5886,A3,1062.75,0.25,30,160.47
5887,C3,1063.0,0.375,35,160.47
5888,E3,1063.0,0.375,35,160.47
5889,A3,1063.25,0.25,31,160.47
5890,C3,1063.5,0.375,36,160.47
5891,E3,1063.5,0.375,36,160.47
5892,A3,1063.75,0.25,31,160.47
5893,B5,1063.875,0.125,61,160.47
5894,C6,1064.0,1.25,78,160.47
5895,F3,1064.0,0.375,38,160.47
5896,A3,1064.0,0.375,38,160.47
5897,C4,1064.25,0.25,33,160.47
5898,F3,1064.5,0.375,38,160.47
5899,A3,1064.5,0.375,38,160.47
5900,C4,1064.75,0.25,34,160.47
5901,F3,1065.0,0.375,38,160.47
5902,A3,1065.0,0.375,38,160.47
5903,B5,1065.25,0.25,68,160.47
5904,C4,1065.25,0.25,34,160.47
5905,A5,1065.5,0.25,67,160.47
5906,F3,1065.5,0.375,38,160.47
5907,A3,1065.5,0.375,38,160.47
5908,G#5,1065.75,0.25,64,160.47
5909,C4,1065.75,0.25,34,160.47
5910,A5,1066.0,0.5,63,160.47
5911,F3,1066.0,0.375,40,160.47
5912,A3,1066.0,0.375,40,160.47
5913,D4,1066.25,0.25,35,160.47
5914,F3,1066.5,0.375,41,160.47
5915,A3,1066.5,0.375,41,160.47
5916,D4,1066.75,0.25,36,160.47
5917,F3,1067.0,0.375,41,160.47
5918,A3,1067.0,0.375,41,160.47
5919,D4,1067.25,0.25,37,160.47
5920,F3,1067.5,0.375,42,160.47
5921,A3,1067.5,0.375,42,160.47
5922,D4,1067.75,0.25,37,160.47
5923,B5,1067.875,0.125,63,160.47
5924,C6,1068.0,1.25,81,160.47
5925,F3,1068.0,0.375,39,160.47
5926,A3,1068.0,0.375,39,160.47
5927,E-4,1068.25,0.25,34,160.47
5928,F3,1068.5,0.375,40,160.47
5929,A3,1068.5,0.375,40,160.47
5930,E-4,1068.75,0.25,35,160.47
5931,F3,1069.0,0.375,40,160.47
5932,A3,1069.0,0.375,40,160.47
5933,B5,1069.25,0.25,72,160.47
5934,E-4,1069.25,0.25,36,160.47
5935,A5,1069.5,0.25,71,160.47
5936,F3,1069.5,0.375,40,160.47
5937,A3,1069.5,0.375,40,160.47
5938,G#5,1069.75,0.25,67,160.47
5939,E-4,1069.75,0.25,36,160.47
5940,A5,1070.0,0.25,70,160.47
5941,F3,1070.0,0.375,42,160.47
5942,A3,1070.0,0.375,42,160.47
5943,G#5,1070.25,0.25,66,160.47
5944,C4,1070.25,0.25,37,160.47
5945,A5,1070.5,0.25,66,160.47
5946,F3,1070.5,0.375,42,160.47
5947,A3,1070.5,0.375,42,160.47
5948,B5,1070.75,0.25,66,160.47
5949,C4,1070.75,0.25,37,160.47
5950,C6,1071.0,0.25,69,160.47
5951,F3,1071.0,0.375,47,160.47
5952,C#6,1071.25,0.25,70,160.47
5953,A3,1071.25,0.25,39,160.47
5954,D6,1071.5,0.25,71,160.47
5955,F3,1071.5,0.375,49,160.47
5956,E-6,1071.75,0.25,74,160.47
5957,A3,1071.75,0.25,39,160.47
5958,E6,1072.0,1.292,68,160.47
5959,E3,1072.0,0.292,40,160.47
5960,G#3,1072.25,0.292,35,160.47
5961,B3,1072.5,0.292,35,160.47
5962,E4,1072.75,0.25,35,160.47
5963,E3,1073.0,0.292,41,160.47
5964,D6,1073.25,0.292,54,160.47
5965,G#3,1073.25,0.292,35,160.47
5966,C6,1073.5,0.292,53,160.47
5967,B3,1073.5,0.292,35,160.47
5968,B5,1073.75,0.292,51,160.47
5969,E4,1073.75,0.25,35,160.47
5970,C6,1074.0,0.292,53,160.47
5971,E3,1074.0,0.292,39,160.47
5972,B5,1074.25,0.292,52,160.47
5973,A3,1074.25,0.292,35,160.47
5974,A5,1074.5,0.292,51,160.47
5975,C4,1074.5,0.292,35,160.47
5976,G#5,1074.75,0.292,50,160.47
5977,E4,1074.75,0.25,35,160.47
5978,A5,1075.0,0.292,50,160.47
5979,E3,1075.0,0.292,40,160.47
5980,C6,1075.25,0.292,52,160.47
5981,A3,1075.25,0.292,35,160.47
5982,B5,1075.5,0.292,50,160.47
5983,C4,1075.5,0.292,35,160.47
5984,A5,1075.75,0.292,50,160.47
5985,E4,1075.75,0.25,35,160.47
5986,G#5,1076.0,0.292,50,160.47
5987,E3,1076.0,0.292,40,160.47
5988,F#5,1076.25,0.292,49,160.47
5989,B3,1076.25,0.292,35,160.47
5990,E5,1076.5,0.292,48,160.47
5991,D4,1076.5,0.292,35,160.47
5992,E-5,1076.75,0.292,47,160.47
5993,E4,1076.75,0.25,35,160.47
5994,E5,1077.0,0.292,49,160.47
5995,E3,1077.0,0.292,40,160.47
5996,F#5,1077.25,0.292,49,160.47
5997,B3,1077.25,0.292,35,160.47
5998,G5,1077.5,0.292,49,160.47
5999,D4,1077.5,0.292,35,160.47
6000,G#5,1077.75,0.292,50,160.47
6001,E4,1077.75,0.25,35,160.47
6002,A5,1078.0,0.292,50,160.47
6003,E3,1078.0,0.292,40,160.47
6004,G#5,1078.25,0.292,50,160.47
6005,A3,1078.25,0.292,35,160.47
6006,A5,1078.5,0.292,51,160.47
6007,C4,1078.5,0.292,35,160.47
6008,B5,1078.75,0.292,51,160.47
6009,E4,1078.75,0.25,35,160.47
6010,C6,1079.0,0.292,49,160.47
6011,E3,1079.0,0.292,40,160.47
6012,C#6,1079.25,0.292,50,160.47
6013,A3,1079.25,0.292,35,160.47
6014,D6,1079.5,0.292,52,160.47
6015,C4,1079.5,0.292,35,160.47
6016,E-6,1079.75,0.292,53,160.47
6017,E4,1079.75,0.25,35,160.47
6018,E6,1080.0,0.292,55,160.47
6019,E3,1080.0,0.292,40,160.47
6020,E-6,1080.25,0.292,53,160.47
6021,G#3,1080.25,0.292,35,160.47
6022,E6,1080.5,0.292,53,160.47
6023,B3,1080.5,0.292,35,160.47
6024,E-6,1080.75,0.292,50,160.47
6025,E4,1080.75,0.25,35,160.47
6026,E6,1081.0,0.292,52,160.47
6027,E3,1081.0,0.292,40,160.47
6028,D6,1081.25,0.292,52,160.47
6029,G#3,1081.25,0.292,35,160.47
6030,C6,1081.5,0.292,51,160.47
6031,B3,1081.5,0.292,35,160.47
6032,B5,1081.75,0.292,50,160.47
6033,E4,1081.75,0.25,35,160.47
6034,C6,1082.0,0.292,52,160.47
6035,E3,1082.0,0.292,40,160.47
6036,B5,1082.25,0.292,51,160.47
6037,A3,1082.25,0.292,35,160.47
6038,A5,1082.5,0.292,49,160.47
6039,C4,1082.5,0.292,35,160.47
6040,G#5,1082.75,0.292,50,160.47
6041,E4,1082.75,0.25,35,160.47
6042,A5,1083.0,0.292,50,160.47
6043,E3,1083.0,0.292,41,160.47
6044,C6,1083.25,0.292,53,160.47
6045,A3,1083.25,0.292,35,160.47
6046,B5,1083.5,0.292,50,160.47
6047,C4,1083.5,0.292,35,160.47
6048,A5,1083.75,0.292,50,160.47
6049,E4,1083.75,0.25,35,160.47
6050,G#5,1084.0,0.292,50,160.47
6051,E3,1084.0,0.292,40,160.47
6052,F#5,1084.25,0.292,49,160.47
6053,B3,1084.25,0.292,35,160.47
6054,E5,1084.5,0.292,48,160.47
6055,D4,1084.5,0.292,35,160.47
6056,E-5,1084.75,0.292,47,160.47
6057,E4,1084.75,0.25,35,160.47
6058,E5,1085.0,0.292,49,160.47
6059,E3,1085.0,0.292,40,160.47
6060,F#5,1085.25,0.292,50,160.47
6061,B3,1085.25,0.292,36,160.47
6062,G5,1085.5,0.292,50,160.47
6063,D4,1085.5,0.292,36,160.47
6064,G#5,1085.75,0.292,52,160.47
6065,E4,1085.75,0.25,36,160.47
6066,A5,1086.0,0.292,52,160.47
6067,E3,1086.0,0.292,42,160.47
6068,G#5,1086.25,0.292,52,160.47
6069,A3,1086.25,0.292,36,160.47
6070,A5,1086.5,0.292,54,160.47
6071,C4,1086.5,0.292,37,160.47
6072,B5,1086.75,0.292,54,160.47
6073,E4,1086.75,0.25,37,160.47
6074,C6,1087.0,0.292,56,160.47
6075,E3,1087.0,0.292,42,160.47
6076,C#6,1087.25,0.292,58,160.47
6077,A3,1087.25,0.292,37,160.47
6078,D6,1087.5,0.292,60,160.47
6079,C4,1087.5,0.292,37,160.47
6080,E-6,1087.75,0.292,62,160.47
6081,E4,1087.75,0.25,38,160.47
6082,E6,1088.0,0.25,68,160.47
6083,E3,1088.0,0.25,44,160.47
6084,B5,1088.25,0.25,60,160.47
6085,G#3,1088.25,0.25,38,160.47
6086,G#5,1088.5,0.25,61,160.47
6087,B3,1088.5,0.25,38,160.47
6088,E5,1088.75,0.25,61,160.47
6089,E4,1088.75,0.25,38,160.47
6090,E-5,1089.0,0.25,75,160.47
6091,E-4,1089.0,0.25,50,160.47
6092,E5,1089.25,0.25,63,160.47
6093,E4,1089.25,0.25,41,160.47
6094,A5,1089.5,0.25,63,160.47
6095,C4,1089.5,0.25,40,160.47
6096,C6,1089.75,0.25,63,160.47
6097,A3,1089.75,0.25,41,160.47
6098,E6,1090.0,0.25,74,160.47
6099,E3,1090.0,0.25,52,160.47
6100,B5,1090.25,0.25,65,160.47
6101,G#3,1090.25,0.25,44,160.47
6102,G#5,1090.5,0.25,68,160.47
6103,B3,1090.5,0.25,45,160.47
6104,E5,1090.75,0.25,68,160.47
6105,E4,1090.75,0.25,45,160.47
6106,E-5,1091.0,0.25,80,160.47
6107,E-4,1091.0,0.25,60,160.47
6108,E5,1091.25,0.25,71,160.47
6109,E4,1091.25,0.25,51,160.47
6110,A5,1091.5,0.25,71,160.47
6111,C4,1091.5,0.25,51,160.47
6112,C6,1091.75,0.25,72,160.47
6113,A3,1091.75,0.25,52,160.47
6114,E6,1092.0,0.25,91,160.47
6115,E3,1092.0,0.25,63,160.47
6116,B5,1092.25,0.25,82,160.47
6117,G#3,1092.25,0.25,52,160.47
6118,G#5,1092.5,0.25,82,160.47
6119,B3,1092.5,0.25,52,160.47
6120,E5,1092.75,0.25,82,160.47
6121,E4,1092.75,0.25,52,160.47
6122,E6,1093.0,0.25,91,160.47
6123,E3,1093.0,0.25,63,160.47
6124,C6,1093.25,0.25,82,160.47
6125,A3,1093.25,0.25,52,160.47
6126,A5,1093.5,0.25,82,160.47
6127,C4,1093.5,0.25,52,160.47
6128,E5,1093.75,0.25,82,160.47
6129,E4,1093.75,0.25,52,160.47
6130,E6,1094.0,0.25,91,160.47
6131,E3,1094.0,0.25,63,160.47
6132,B5,1094.25,0.25,82,160.47
6133,G#3,1094.25,0.25,52,160.47
6134,G#5,1094.5,0.25,81,160.47
6135,B3,1094.5,0.25,52,160.47
6136,E5,1094.75,0.25,81,160.47
6137,E4,1094.75,0.25,52,160.47
6138,E6,1095.0,0.25,91,160.47
6139,E3,1095.0,0.25,63,160.47
6140,C6,1095.25,0.25,81,160.47
6141,A3,1095.25,0.25,52,160.47
6142,A5,1095.5,0.25,81,160.47
6143,C4,1095.5,0.25,52,160.47
6144,E5,1095.75,0.25,82,160.47
6145,E4,1095.75,0.25,52,160.47
6146,E6,1096.0,0.25,91,160.47
6147,E3,1096.0,1.0,56,160.47
6148,G#3,1096.0,1.0,56,160.47
6149,B3,1096.0,1.0,56,160.47
6150,E4,1096.0,1.0,56,160.47
6151,B5,1096.25,0.25,82,160.47
6152,G#5,1096.5,0.25,82,160.47
6153,E5,1096.75,0.25,82,160.47
6154,B5,1097.0,0.25,91,160.47
6155,G#5,1097.25,0.25,82,160.47
6156,E5,1097.5,0.25,82,160.47
6157,B4,1097.75,0.25,82,160.47
6158,G#5,1098.0,0.25,91,160.47
6159,E5,1098.25,0.25,82,160.47
6160,B4,1098.5,0.25,81,160.47
6161,G#4,1098.75,0.25,81,160.47
6162,E5,1099.0,0.25,91,160.47
6163,B4,1099.25,0.25,81,160.47
6164,G#4,1099.5,0.25,81,160.47
6165,E4,1099.75,0.25,82,160.47
6166,B4,1100.0,0.25,91,160.47
6167,G#4,1100.25,0.25,81,160.47
6168,E4,1100.5,0.25,80,160.47
6169,B3,1100.75,0.25,80,160.47
6170,G#4,1101.0,0.25,89,160.47
6171,E4,1101.25,0.25,79,160.47
6172,B3,1101.5,0.25,79,160.47
6173,G#3,1101.75,0.25,78,160.47
6174,E4,1102.0,0.25,87,160.47
6175,B3,1102.25,0.25,78,160.47
6176,G#3,1102.5,0.25,77,160.47
6177,E3,1102.75,0.25,77,160.47
6178,E2,1103.0,0.25,85,160.47
6179,G#2,1103.25,0.25,76,160.47
6180,B2,1103.5,0.25,76,160.47
6181,E3,1103.75,0.25,75,160.47
6182,E2,1104.0,0.25,77,160.47
6183,E3,1104.5,0.25,68,160.47
6184,F#2,1105.0,0.25,73,160.47
6185,F#3,1105.5,0.25,66,160.47
6186,E5,1106.0,0.25,75,160.47
6187,G#2,1106.0,0.25,71,160.47
6188,E4,1106.5,0.25,69,160.47
6189,G#3,1106.5,0.25,65,160.47
6190,F#5,1107.0,0.25,74,160.47
6191,F#4,1107.5,0.25,65,160.47
6192,G#5,1108.0,0.25,71,160.47
6193,G#2,1108.0,0.25,69,160.47
6194,G#4,1108.5,0.25,64,160.47
6195,G#3,1108.5,0.25,61,160.47
6196,A2,1109.0,0.25,65,160.47
6197,A3,1109.5,0.25,59,160.47
6198,G#5,1110.0,0.25,67,160.47
6199,B2,1110.0,0.25,65,160.47
6200,G#4,1110.5,0.25,53,160.47
6201,B3,1110.5,0.25,54,160.47
6202,A5,1111.0,0.25,59,160.47
6203,A4,1111.5,0.25,50,160.47
6204,B5,1112.0,0.25,52,160.47
6205,B4,1112.5,0.25,49,160.47
6206,C#6,1113.0,0.25,52,160.47
6207,C#5,1113.5,0.25,49,160.47
6208,D6,1114.0,0.25,52,160.47
6209,B2,1114.0,0.25,41,160.47
6210,D5,1114.5,0.25,48,160.47
6211,B3,1114.5,0.25,36,160.47
6212,D6,1115.0,0.25,52,160.47
6213,C#3,1115.0,0.25,41,160.47
6214,E5,1115.5,0.25,46,160.47
6215,C#4,1115.5,0.25,36,160.47
6216,D6,1116.0,0.25,51,160.47
6217,D3,1116.0,0.25,40,160.47
6218,F#5,1116.5,0.25,46,160.47
6219,D4,1116.5,0.25,37,160.47
6220,D6,1117.0,0.25,51,160.47
6221,E3,1117.0,0.25,39,160.47
6222,G#5,1117.5,0.25,46,160.47
6223,E4,1117.5,0.25,36,160.47
6224,D6,1118.0,0.25,51,160.47
6225,F#3,1118.0,0.25,38,160.47
6226,A5,1118.5,0.25,47,160.47
6227,F#4,1118.5,0.25,37,160.47
6228,D6,1119.0,0.25,50,160.47
6229,G#3,1119.0,0.25,40,160.47
6230,B5,1119.5,0.25,46,160.47
6231,G#4,1119.5,0.25,37,160.47
6232,C#5,1120.0,2.0,45,160.47
6233,E5,1120.0,2.0,45,160.47
6234,A5,1120.0,2.0,45,160.47
6235,C#6,1120.0,2.0,45,160.47
6236,E4,1120.0,2.0,34,160.47
6237,C#4,1120.0,2.0,34,160.47
6238,A4,1120.0,2.0,34,160.47
6239,A3,1120.0,2.0,34,160.47
6240,B4,1122.0,1.0,43,160.47
6241,E5,1122.0,1.0,43,160.47
6242,G#5,1122.0,1.0,43,160.47
6243,B5,1122.0,1.0,43,160.47
6244,B3,1122.0,1.0,30,160.47
6245,E4,1122.0,1.0,30,160.47
6246,G#3,1122.0,1.0,30,160.47
6247,E3,1122.0,1.0,30,160.47
6248,A4,1123.0,1.0,43,160.47
6249,C#5,1123.0,1.0,43,160.47
6250,F#5,1123.0,1.0,43,160.47
6251,A5,1123.0,1.0,43,160.47
6252,A3,1123.0,1.0,30,160.47
6253,C#4,1123.0,1.0,30,160.47
6254,F#4,1123.0,1.0,30,160.47
6255,F#3,1123.0,1.0,30,160.47
6256,G#4,1124.0,2.0,45,160.47
6257,B4,1124.0,2.0,45,160.47
6258,F5,1124.0,2.0,45,160.47
6259,G#5,1124.0,2.0,45,160.47
6260,C#3,1124.0,2.0,34,160.47
6261,C#4,1124.0,2.0,34,160.47
6262,G#3,1124.0,2.0,34,160.47
6263,F3,1124.0,2.0,34,160.47
6264,D5,1126.0,2.0,43,160.47
6265,F#4,1126.0,2.0,43,160.47
6266,A4,1126.0,2.0,43,160.47
6267,F#5,1126.0,2.0,43,160.47
6268,F#3,1126.0,2.0,30,160.47
6269,D3,1126.0,2.0,30,160.47
6270,D4,1126.0,2.0,30,160.47
6271,A3,1126.0,2.0,30,160.47
6272,G#4,1128.0,2.0,52,160.47
6273,D5,1128.0,2.0,52,160.47
6274,E5,1128.0,2.0,52,160.47
6275,G#5,1128.0,2.0,52,160.47
6276,B2,1128.0,2.0,41,160.47
6277,E3,1128.0,2.0,41,160.47
6278,G#3,1128.0,2.0,41,160.47
6279,B3,1128.0,2.0,41,160.47
6280,A4,1130.0,1.0,55,160.47
6281,E5,1130.0,1.0,55,160.47
6282,A5,1130.0,1.0,55,160.47
6283,A3,1130.0,1.0,42,160.47
6284,C#3,1130.0,1.0,42,160.47
6285,E3,1130.0,1.0,42,160.47
6286,C#4,1130.0,1.0,42,160.47
6287,B4,1131.0,1.0,59,160.47
6288,F#5,1131.0,1.0,59,160.47
6289,A5,1131.0,1.0,59,160.47
6290,B5,1131.0,1.0,59,160.47
6291,B3,1131.0,1.0,44,160.47
6292,D4,1131.0,1.0,44,160.47
6293,D3,1131.0,1.0,44,160.47
6294,F#3,1131.0,1.0,44,160.47
6295,E5,1132.0,3.0,59,160.47
6296,E3,1132.0,4.0,49,160.47
6297,C#5,1132.0,2.0,65,160.47
6298,A5,1132.0,2.0,65,160.47
6299,C#6,1132.0,2.0,65,160.47
6300,C#4,1132.0,2.0,52,160.47
6301,A3,1132.0,2.0,52,160.47
6302,E4,1132.0,2.0,52,160.47
6303,B4,1134.0,2.0,38,160.47
6304,G#5,1134.0,2.0,38,160.47
6305,B5,1134.0,2.0,38,160.47
6306,B3,1134.0,2.0,29,160.47
6307,G#3,1134.0,2.0,29,160.47
6308,E4,1134.0,2.0,29,160.47
6309,D5,1135.0,1.0,55,160.47
6310,E4,1136.0,2.0,40,160.47
6311,A4,1136.0,2.0,40,160.47
6312,C5,1136.0,2.0,40,160.47
6313,C4,1136.0,2.0,32,160.47
6314,A3,1136.0,2.0,32,160.47
6315,E4,1138.0,1.0,38,160.47
6316,G4,1138.0,1.0,38,160.47
6317,B4,1138.0,1.0,38,160.47
6318,B3,1138.0,1.0,28,160.47
6319,G3,1138.0,1.0,28,160.47
6320,E3,1138.0,1.0,28,160.47
6321,C4,1139.0,1.0,38,160.47
6322,F4,1139.0,1.0,38,160.47
6323,A4,1139.0,1.0,38,160.47
6324,A3,1139.0,1.0,28,160.47
6325,F3,1139.0,1.0,28,160.47
6326,C4,1140.0,2.0,40,160.47
6327,E4,1140.0,2.0,40,160.47
6328,G4,1140.0,2.0,40,160.47
6329,G3,1140.0,2.0,31,160.47
6330,E3,1140.0,2.0,31,160.47
6331,C3,1140.0,2.0,31,160.47
6332,D4,1142.0,2.0,38,160.47
6333,A3,1142.0,2.0,38,160.47
6334,F4,1142.0,2.0,38,160.47
6335,F3,1142.0,2.0,28,160.47
6336,D3,1142.0,2.0,28,160.47
6337,G4,1144.0,2.0,52,160.47
6338,G2,1144.0,4.0,26,160.47
6339,C4,1144.0,1.0,44,160.47
6340,E4,1144.0,1.0,44,160.47
6341,C3,1144.0,1.0,35,160.47
6342,E3,1144.0,1.0,35,160.47
6343,D4,1145.0,3.0,45,160.47
6344,F4,1145.0,3.0,45,160.47
6345,D3,1145.0,3.0,35,160.47
6346,F3,1145.0,3.0,35,160.47
6347,A4,1146.0,1.0,61,160.47
6348,B4,1147.0,1.0,69,160.47
6349,C5,1148.0,0.25,51,160.47
6350,C4,1148.0,0.333,41,160.47
6351,E4,1148.0,0.333,41,160.47
6352,C3,1148.0,1.0,38,160.47
6353,E3,1148.0,1.0,38,160.47
6354,D5,1148.333,0.25,48,160.47
6355,E5,1148.667,0.25,49,160.47
6356,F5,1149.0,0.25,50,160.47
6357,G5,1149.333,0.25,50,160.47
6358,A5,1149.667,0.25,51,160.47
6359,B-5,1150.0,0.25,52,160.47
6360,B5,1150.333,0.25,48,160.47
6361,C6,1150.667,0.25,49,160.47
6362,C#6,1151.0,0.25,51,160.47
6363,D6,1151.333,0.25,53,160.47
6364,E-6,1151.667,0.25,54,160.47
6365,C6,1152.0,2.0,48,160.47
6366,E6,1152.0,0.333,58,160.47
6367,E5,1152.0,2.0,40,160.47
6368,C5,1152.0,2.0,40,160.47
6369,E-6,1152.333,0.333,53,160.47
6370,E6,1152.667,0.333,53,160.47
6371,F6,1153.0,0.333,53,160.47
6372,E-6,1153.333,0.333,53,160.47
6373,E6,1153.667,0.333,53,160.47
6374,B5,1154.0,1.0,60,160.47
6375,F5,1154.0,1.0,36,160.47
6376,D5,1154.0,1.0,36,160.47
6377,B4,1154.0,1.0,36,160.47
6378,G#4,1154.0,1.0,36,160.47
6379,E6,1154.333,0.333,54,160.47
6380,D6,1154.667,0.333,54,160.47
6381,E5,1155.0,1.0,60,160.47
6382,E5,1155.0,1.0,38,160.47
6383,C5,1155.0,1.0,38,160.47
6384,A4,1155.0,1.0,38,160.47
6385,D6,1155.333,0.333,53,160.47
6386,C6,1155.667,0.333,53,160.47
6387,G#5,1156.0,2.0,60,160.47
6388,D5,1156.0,2.0,40,160.47
6389,B4,1156.0,2.0,40,160.47
6390,G#4,1156.0,2.0,40,160.47
6391,E4,1156.0,2.0,40,160.47
6392,B-5,1156.333,0.333,54,160.47
6393,B5,1156.667,0.333,54,160.47
6394,C6,1157.0,0.333,54,160.47
6395,B-5,1157.333,0.333,54,160.47
6396,B5,1157.667,0.333,54,160.47
6397,F5,1158.0,2.0,60,160.47
6398,C5,1158.0,2.0,37,160.47
6399,A4,1158.0,2.0,37,160.47
6400,F4,1158.0,2.0,37,160.47
6401,G#5,1158.333,0.333,54,160.47
6402,A5,1158.667,0.333,54,160.47
6403,B5,1159.0,0.333,54,160.47
6404,G#5,1159.333,0.333,54,160.47
6405,A5,1159.667,0.333,54,160.47
6406,F5,1160.0,2.0,62,160.47
6407,D4,1160.0,2.0,43,160.47
6408,F4,1160.0,2.0,43,160.47
6409,G4,1160.0,2.0,43,160.47
6410,B4,1160.0,2.0,43,160.47
6411,B-5,1160.333,0.333,62,160.47
6412,B5,1160.667,0.333,57,160.47
6413,C6,1161.0,0.333,57,160.47
6414,B-5,1161.333,0.333,59,160.47
6415,B5,1161.667,0.333,59,160.47
6416,G5,1162.0,1.0,71,160.47
6417,E4,1162.0,1.0,48,160.47
6418,G4,1162.0,1.0,48,160.47
6419,C5,1162.0,1.0,48,160.47
6420,D6,1162.333,0.333,63,160.47
6421,C6,1162.667,0.333,64,160.47
6422,A5,1163.0,1.0,74,160.47
6423,C5,1163.0,1.0,52,160.47
6424,D5,1163.0,1.0,52,160.47
6425,F4,1163.0,1.0,52,160.47
6426,A4,1163.0,1.0,52,160.47
6427,E6,1163.333,0.333,65,160.47
6428,D6,1163.667,0.333,65,160.47
6429,E6,1164.0,0.333,79,160.47
6430,C6,1164.0,2.0,79,160.47
6431,G4,1164.0,3.0,53,160.47
6432,C5,1164.0,2.0,59,160.47
6433,E5,1164.0,2.0,59,160.47
6434,E-6,1164.333,0.333,72,160.47
6435,E6,1164.667,0.333,72,160.47
6436,G6,1165.0,0.333,68,160.47
6437,F6,1165.333,0.333,72,160.47
6438,E6,1165.667,0.333,69,160.47
6439,B5,1166.0,0.333,67,160.47
6440,D6,1166.0,0.333,67,160.47
6441,B4,1166.0,1.0,49,160.47
6442,D5,1166.0,1.0,49,160.47
6443,A5,1166.333,0.333,64,160.47
6444,C6,1166.333,0.333,64,160.47
6445,B5,1166.667,0.333,60,160.47
6446,G5,1166.667,0.333,60,160.47
6447,G3,1167.0,0.333,44,160.47
6448,F5,1167.0,0.333,60,160.47
6449,A5,1167.0,0.333,60,160.47
6450,A3,1167.333,0.333,43,160.47
6451,E5,1167.333,0.333,56,160.47
6452,G5,1167.333,0.333,56,160.47
6453,B3,1167.667,0.333,41,160.47
6454,D5,1167.667,0.333,53,160.47
6455,F5,1167.667,0.333,53,160.47
6456,G4,1168.0,2.0,57,160.47
6457,E5,1168.0,0.333,57,160.47
6458,E4,1168.0,2.0,41,160.47
6459,C4,1168.0,2.0,41,160.47
6460,E-5,1168.333,0.333,49,160.47
6461,E5,1168.667,0.333,49,160.47
6462,F5,1169.0,0.333,49,160.47
6463,E-5,1169.333,0.333,49,160.47
6464,E5,1169.667,0.333,49,160.47
6465,F4,1170.0,1.0,56,160.47
6466,D4,1170.0,1.0,36,160.47
6467,B3,1170.0,1.0,36,160.47
6468,G#3,1170.0,1.0,36,160.47
6469,E5,1170.333,0.333,50,160.47
6470,D5,1170.667,0.333,50,160.47
6471,E4,1171.0,1.0,56,160.47
6472,C4,1171.0,1.0,37,160.47
6473,A3,1171.0,1.0,37,160.47
6474,D5,1171.333,0.333,49,160.47
6475,C5,1171.667,0.333,49,160.47
6476,B3,1172.0,2.0,42,160.47
6477,D4,1172.0,2.0,42,160.47
6478,G#3,1172.0,2.0,42,160.47
6479,E3,1172.0,2.0,42,160.47
6480,B-4,1172.333,0.333,50,160.47
6481,B4,1172.667,0.333,50,160.47
6482,C5,1173.0,0.333,53,160.47
6483,B-4,1173.333,0.333,50,160.47
6484,B4,1173.667,0.333,50,160.47
6485,F3,1174.0,2.0,37,160.47
6486,A3,1174.0,2.0,37,160.47
6487,C4,1174.0,2.0,37,160.47
6488,G#4,1174.333,0.333,50,160.47
6489,A4,1174.667,0.333,50,160.47
6490,B4,1175.0,0.333,53,160.47
6491,G#4,1175.333,0.333,50,160.47
6492,A4,1175.667,0.333,50,160.47
6493,C4,1176.0,0.333,60,160.47
6494,G2,1176.0,4.0,46,160.47
6495,C3,1176.0,1.0,54,160.47
6496,E3,1176.0,1.0,54,160.47
6497,E4,1176.333,0.333,56,160.47
6498,G4,1176.667,0.333,57,160.47
6499,D4,1177.0,0.333,66,160.47
6500,D3,1177.0,3.0,56,160.47
6501,F3,1177.0,3.0,56,160.47
6502,F4,1177.333,0.333,61,160.47
6503,G4,1177.667,0.333,61,160.47
6504,D4,1178.0,0.333,74,160.47
6505,F4,1178.333,0.333,67,160.47
6506,A4,1178.667,0.333,65,160.47
6507,D4,1179.0,0.333,80,160.47
6508,F4,1179.333,0.333,71,160.47
6509,B4,1179.667,0.333,70,160.47
6510,E4,1180.0,0.333,80,160.47
6511,C5,1180.0,0.333,80,160.47
6512,C2,1180.0,1.0,55,160.47
6513,C3,1180.0,1.0,55,160.47
6514,G3,1180.333,0.333,75,160.47
6515,E3,1180.667,0.333,77,160.47
6516,G3,1181.0,0.333,82,160.47
6517,G2,1181.0,2.0,60,160.47
6518,C4,1181.333,0.333,77,160.47
6519,E4,1181.667,0.333,77,160.47
6520,D4,1182.0,0.333,82,160.47
6521,B3,1182.333,0.333,77,160.47
6522,G3,1182.667,0.333,77,160.47
6523,B3,1183.0,0.333,82,160.47
6524,G2,1183.0,2.0,60,160.47
6525,D4,1183.333,0.333,77,160.47
6526,F4,1183.667,0.333,77,160.47
6527,E4,1184.0,0.333,82,160.47
6528,C4,1184.333,0.333,75,160.47
6529,G3,1184.667,0.333,77,160.47
6530,C4,1185.0,0.333,82,160.47
6531,G2,1185.0,2.0,60,160.47
6532,E4,1185.333,0.333,77,160.47
6533,G4,1185.667,0.333,77,160.47
6534,F4,1186.0,0.333,82,160.47
6535,D4,1186.333,0.333,77,160.47
6536,B3,1186.667,0.333,77,160.47
6537,B4,1187.0,0.333,82,160.47
6538,G2,1187.0,1.0,60,160.47
6539,F4,1187.333,0.333,77,160.47
6540,D4,1187.667,0.333,77,160.47
6541,C3,1188.0,0.333,73,160.47
6542,E4,1188.0,1.0,69,160.47
6543,C5,1188.0,1.0,69,160.47
6544,G2,1188.333,0.333,67,160.47
6545,E2,1188.667,0.333,69,160.47
6546,G4,1189.0,2.0,75,160.47
6547,G2,1189.0,0.333,73,160.47
6548,C3,1189.333,0.333,69,160.47
6549,E3,1189.667,0.333,69,160.47
6550,D3,1190.0,0.333,73,160.47
6551,B2,1190.333,0.333,69,160.47
6552,G2,1190.667,0.333,69,160.47
6553,G4,1191.0,2.0,75,160.47
6554,B2,1191.0,0.333,73,160.47
6555,D3,1191.333,0.333,69,160.47
6556,F3,1191.667,0.333,69,160.47
6557,E3,1192.0,0.333,73,160.47
6558,C3,1192.333,0.333,67,160.47
6559,G2,1192.667,0.333,69,160.47
6560,G4,1193.0,2.0,75,160.47
6561,C3,1193.0,0.333,73,160.47
6562,E3,1193.333,0.333,69,160.47
6563,G3,1193.667,0.333,69,160.47
6564,F3,1194.0,0.333,73,160.47
6565,D3,1194.333,0.333,69,160.47
6566,B2,1194.667,0.333,69,160.47
6567,G4,1195.0,1.0,75,160.47
6568,B3,1195.0,0.333,73,160.47
6569,F3,1195.333,0.333,69,160.47
6570,D3,1195.667,0.333,69,160.47
6571,C5,1196.0,0.333,82,160.47
6572,E3,1196.0,0.333,64,160.47
6573,G4,1196.333,0.333,75,160.47
6574,G3,1196.333,0.333,56,160.47
6575,E4,1196.667,0.333,77,160.47
6576,C4,1196.667,0.333,56,160.47
6577,G4,1197.0,0.333,82,160.47
6578,G3,1197.0,0.333,64,160.47
6579,C5,1197.333,0.333,77,160.47
6580,E3,1197.333,0.333,57,160.47
6581,E5,1197.667,0.333,77,160.47
6582,C3,1197.667,0.333,57,160.47
6583,D5,1198.0,0.333,82,160.47
6584,B2,1198.0,0.333,64,160.47
6585,B4,1198.333,0.333,77,160.47
6586,D3,1198.333,0.333,56,160.47
6587,G4,1198.667,0.333,77,160.47
6588,F3,1198.667,0.333,56,160.47
6589,B4,1199.0,0.333,82,160.47
6590,D3,1199.0,0.333,64,160.47
6591,D5,1199.333,0.333,77,160.47
6592,B2,1199.333,0.333,57,160.47
6593,F5,1199.667,0.333,77,160.47
6594,G2,1199.667,0.333,58,160.47
6595,E5,1200.0,0.333,82,160.47
6596,C3,1200.013,0.333,64,160.47
6597,C5,1200.333,0.333,75,160.47
6598,E3,1200.333,0.333,56,160.47
6599,G4,1200.667,0.333,77,160.47
6600,G3,1200.667,0.333,56,160.47
6601,C5,1201.0,0.333,82,160.47
6602,E3,1201.0,0.333,64,160.47
6603,E5,1201.333,0.333,77,160.47
6604,C3,1201.333,0.333,57,160.47
6605,G5,1201.667,0.333,77,160.47
6606,G2,1201.679,0.333,57,160.47
6607,F5,1202.0,0.333,82,160.47
6608,B2,1202.0,0.333,64,160.47
6609,D5,1202.333,0.333,77,160.47
6610,F3,1202.333,0.333,56,160.47
6611,B4,1202.667,0.333,77,160.47
6612,G3,1202.679,0.333,56,160.47
6613,B5,1203.0,0.333,82,160.47
6614,F3,1203.0,0.333,64,160.47
6615,F5,1203.333,0.333,77,160.47
6616,G3,1203.333,0.333,57,160.47
6617,D5,1203.667,0.333,77,160.47
6618,D4,1203.667,0.333,58,160.47
6619,C6,1204.0,0.5,82,160.47
6620,E3,1204.0,0.333,64,160.47
6621,G5,1204.333,0.333,74,160.47
6622,G3,1204.333,0.333,55,160.47
6623,E5,1204.667,0.333,74,160.47
6624,C4,1204.667,0.333,55,160.47
6625,G5,1205.0,0.5,79,160.47
6626,C3,1205.0,0.333,62,160.47
6627,E5,1205.333,0.333,73,160.47
6628,E3,1205.333,0.333,55,160.47
6629,C5,1205.667,0.333,72,160.47
6630,G3,1205.667,0.333,54,160.47
6631,F5,1206.0,0.5,77,160.47
6632,D3,1206.0,0.333,59,160.47
6633,D5,1206.333,0.333,71,160.47
6634,F3,1206.333,0.333,51,160.47
6635,B4,1206.667,0.333,70,160.47
6636,G3,1206.667,0.333,51,160.47
6637,B5,1207.0,0.5,74,160.47
6638,F3,1207.0,0.333,57,160.47
6639,G5,1207.333,0.333,69,160.47
6640,G3,1207.333,0.333,51,160.47
6641,D5,1207.667,0.333,67,160.47
6642,D4,1207.667,0.333,51,160.47
6643,C6,1208.0,0.5,72,160.47
6644,E3,1208.0,0.333,56,160.47
6645,G5,1208.333,0.333,65,160.47
6646,G3,1208.333,0.333,48,160.47
6647,E5,1208.667,0.333,65,160.47
6648,C4,1208.667,0.333,48,160.47
6649,G5,1209.0,0.5,70,160.47
6650,C3,1209.0,0.333,54,160.47
6651,E5,1209.333,0.333,64,160.47
6652,E3,1209.333,0.333,48,160.47
6653,C5,1209.667,0.333,63,160.47
6654,G3,1209.667,0.333,47,160.47
6655,F5,1210.0,0.5,67,160.47
6656,D3,1210.0,0.333,51,160.47
6657,D5,1210.333,0.333,62,160.47
6658,F3,1210.333,0.333,44,160.47
6659,B4,1210.667,0.333,60,160.47
6660,G3,1210.667,0.333,44,160.47
6661,B5,1211.0,0.5,64,160.47
6662,F3,1211.0,0.333,50,160.47
6663,G5,1211.333,0.333,59,160.47
6664,G3,1211.333,0.333,44,160.47
6665,D5,1211.667,0.333,58,160.47
6666,D4,1211.667,0.333,44,160.47
6667,C6,1212.0,0.25,64,160.47
6668,E3,1212.0,0.25,50,160.47
6669,G5,1212.25,0.25,58,160.47
6670,G3,1212.25,0.25,43,160.47
6671,E5,1212.5,0.25,58,160.47
6672,C3,1212.5,0.25,43,160.47
6673,C5,1212.75,0.25,59,160.47
6674,G3,1212.75,0.25,44,160.47
6675,F5,1213.0,0.25,65,160.47
6676,D3,1213.0,0.25,51,160.47
6677,D5,1213.25,0.25,59,160.47
6678,G3,1213.25,0.25,44,160.47
6679,B5,1213.5,0.25,62,160.47
6680,F3,1213.5,0.25,44,160.47
6681,G5,1213.75,0.25,63,160.47
6682,G3,1213.75,0.25,44,160.47
6683,C6,1214.0,0.25,69,160.47
6684,E3,1214.0,0.25,52,160.47
6685,G5,1214.25,0.25,63,160.47
6686,G3,1214.25,0.25,46,160.47
6687,E5,1214.5,0.25,63,160.47
6688,C3,1214.5,0.25,47,160.47
6689,C5,1214.75,0.25,64,160.47
6690,G3,1214.75,0.25,49,160.47
6691,F5,1215.0,0.25,71,160.47
6692,D3,1215.0,0.25,55,160.47
6693,D5,1215.25,0.25,66,160.47
6694,G3,1215.25,0.25,48,160.47
6695,B5,1215.5,0.25,67,160.47
6696,F3,1215.5,0.25,48,160.47
6697,G5,1215.75,0.25,67,160.47
6698,G3,1215.75,0.25,49,160.47
6699,C6,1216.0,0.25,74,160.47
6700,E3,1216.0,0.25,58,160.47
6701,G5,1216.25,0.25,67,160.47
6702,G3,1216.25,0.25,50,160.47
6703,B5,1216.5,0.25,69,160.47
6704,F3,1216.5,0.25,51,160.47
6705,G5,1216.75,0.25,69,160.47
6706,G3,1216.75,0.25,52,160.47
6707,C6,1217.0,0.25,77,160.47
6708,E3,1217.0,0.25,60,160.47
6709,G5,1217.25,0.25,77,160.47
6710,G3,1217.25,0.25,52,160.47
6711,B5,1217.5,0.25,72,160.47
6712,F3,1217.5,0.25,52,160.47
6713,G5,1217.75,0.25,73,160.47
6714,G3,1217.75,0.25,54,160.47
6715,C6,1218.0,0.25,80,160.47
6716,E3,1218.0,0.25,62,160.47
6717,G5,1218.25,0.25,73,160.47
6718,G3,1218.25,0.25,55,160.47
6719,B5,1218.5,0.25,74,160.47
6720,F3,1218.5,0.25,55,160.47
6721,G5,1218.75,0.25,74,160.47
6722,G3,1218.75,0.25,57,160.47
6723,C6,1219.0,0.25,82,160.47
6724,E3,1219.0,0.25,65,160.47
6725,G5,1219.25,0.25,85,160.47
6726,G3,1219.25,0.25,57,160.47
6727,B5,1219.5,0.25,78,160.47
6728,F3,1219.5,0.25,57,160.47
6729,G5,1219.75,0.25,79,160.47
6730,G3,1219.75,0.25,58,160.47
6731,C6,1220.0,0.25,89,160.47
6732,E3,1220.0,0.25,70,160.47
6733,G5,1220.25,0.25,81,160.47
6734,G3,1220.25,0.25,60,160.47
6735,B-5,1220.5,0.25,81,160.47
6736,E2,1220.5,0.25,60,160.47
6737,G5,1220.75,0.25,81,160.47
6738,C3,1220.75,0.25,62,160.47
6739,B-5,1221.0,0.25,89,160.47
6740,E2,1221.0,0.25,70,160.47
6741,G5,1221.25,0.25,83,160.47
6742,C3,1221.25,0.25,60,160.47
6743,B-5,1221.5,0.25,82,160.47
6744,E2,1221.5,0.25,60,160.47
6745,G5,1221.75,0.25,82,160.47
6746,C3,1221.75,0.25,60,160.47
6747,B-5,1222.0,0.25,89,160.47
6748,E2,1222.0,0.25,70,160.47
6749,G5,1222.25,0.25,81,160.47
6750,C3,1222.25,0.25,60,160.47
6751,B-5,1222.5,0.25,81,160.47
6752,E2,1222.5,0.25,60,160.47
6753,G5,1222.75,0.25,81,160.47
6754,C3,1222.75,0.25,62,160.47
6755,B-5,1223.0,0.25,89,160.47
6756,E2,1223.0,0.25,70,160.47
6757,G5,1223.25,0.25,83,160.47
6758,C3,1223.25,0.25,60,160.47
6759,B-5,1223.5,0.25,82,160.47
6760,E2,1223.5,0.25,60,160.47
6761,G5,1223.75,0.25,82,160.47
6762,C3,1223.75,0.25,60,160.47
6763,B-5,1224.0,0.5,89,160.47
6764,E2,1224.0,0.25,70,160.47
6765,C3,1224.25,0.25,60,160.47
6766,A5,1224.5,0.25,81,160.47
6767,E2,1224.5,0.25,60,160.47
6768,G5,1224.75,0.25,81,160.47
6769,C3,1224.75,0.25,62,160.47
6770,F5,1225.0,0.25,84,160.47
6771,E2,1225.0,0.25,70,160.47
6772,E5,1225.25,0.25,78,160.47
6773,C3,1225.25,0.25,60,160.47
6774,D5,1225.5,0.25,78,160.47
6775,E2,1225.5,0.25,60,160.47
6776,C5,1225.75,0.25,80,160.47
6777,C3,1225.75,0.25,61,160.47
6778,B-4,1226.0,0.25,84,160.47
6779,E2,1226.0,0.25,71,160.47
6780,A4,1226.25,0.25,80,160.47
6781,C3,1226.25,0.25,61,160.47
6782,G4,1226.5,0.25,80,160.47
6783,E2,1226.5,0.25,61,160.47
6784,F4,1226.75,0.25,81,160.47
6785,C3,1226.75,0.25,63,160.47
6786,E4,1227.0,0.25,86,160.47
6787,E2,1227.0,0.25,72,160.47
6788,D4,1227.25,0.25,84,160.47
6789,C3,1227.25,0.25,62,160.47
6790,C4,1227.5,0.25,85,160.47
6791,E2,1227.5,0.25,62,160.47
6792,B-3,1227.75,0.25,85,160.47
6793,C3,1227.75,0.25,62,160.47
6794,A3,1228.0,0.25,93,160.47
6795,F2,1228.0,0.375,71,160.47
6796,A2,1228.0,0.375,71,160.47
6797,C3,1228.0,0.375,71,160.47
6798,B3,1228.25,0.25,81,160.47
6799,C4,1228.5,0.25,81,160.47
6800,F2,1228.5,0.375,64,160.47
6801,A2,1228.5,0.375,64,160.47
6802,C3,1228.5,0.375,64,160.47
6803,B3,1228.75,0.25,81,160.47
6804,C4,1229.0,0.25,92,160.47
6805,E4,1229.25,0.25,81,160.47
6806,F4,1229.5,0.25,81,160.47
6807,F2,1229.5,0.375,64,160.47
6808,A2,1229.5,0.375,64,160.47
6809,C3,1229.5,0.375,64,160.47
6810,E4,1229.75,0.25,82,160.47
6811,F4,1230.0,0.25,93,160.47
6812,F2,1230.0,0.375,71,160.47
6813,A2,1230.0,0.375,71,160.47
6814,C3,1230.0,0.375,71,160.47
6815,G#4,1230.25,0.25,80,160.47
6816,A4,1230.5,0.25,80,160.47
6817,F2,1230.5,0.375,64,160.47
6818,A2,1230.5,0.375,64,160.47
6819,C3,1230.5,0.375,64,160.47
6820,G#4,1230.75,0.25,81,160.47
6821,A4,1231.0,0.25,93,160.47
6822,B4,1231.25,0.25,83,160.47
6823,C5,1231.5,0.25,83,160.47
6824,F2,1231.5,0.375,64,160.47
6825,A2,1231.5,0.375,64,160.47
6826,C3,1231.5,0.375,64,160.47
6827,B4,1231.75,0.25,83,160.47
6828,C5,1232.0,0.25,95,160.47
6829,F2,1232.0,0.375,71,160.47
6830,A2,1232.0,0.375,71,160.47
6831,C3,1232.0,0.375,71,160.47
6832,E5,1232.25,0.25,84,160.47
6833,F5,1232.5,0.25,84,160.47
6834,F2,1232.5,0.375,64,160.47
6835,A2,1232.5,0.375,64,160.47
6836,C3,1232.5,0.375,64,160.47
6837,E5,1232.75,0.25,84,160.47
6838,F5,1233.0,0.25,95,160.47
6839,G#5,1233.25,0.25,82,160.47
6840,A5,1233.5,0.25,82,160.47
6841,F2,1233.5,0.375,64,160.47
6842,A2,1233.5,0.375,64,160.47
6843,C3,1233.5,0.375,64,160.47
6844,G#5,1233.75,0.25,82,160.47
6845,A5,1234.0,0.25,95,160.47
6846,F2,1234.0,0.375,71,160.47
6847,A2,1234.0,0.375,71,160.47
6848,C3,1234.0,0.375,71,160.47
6849,B5,1234.25,0.25,82,160.47
6850,C6,1234.5,0.25,82,160.47
6851,F2,1234.5,0.375,64,160.47
6852,A2,1234.5,0.375,64,160.47
6853,C3,1234.5,0.375,64,160.47
6854,B5,1234.75,0.25,82,160.47
6855,C6,1235.0,0.25,95,160.47
6856,B5,1235.25,0.25,82,160.47
6857,A5,1235.5,0.25,83,160.47
6858,F2,1235.5,0.375,64,160.47
6859,A2,1235.5,0.375,64,160.47
6860,C3,1235.5,0.375,64,160.47
6861,G#5,1235.75,0.25,83,160.47
6862,A5,1236.0,0.25,95,160.47
6863,C3,1236.0,0.375,70,160.47
6864,F#2,1236.0,0.375,70,160.47
6865,A2,1236.0,0.375,70,160.47
6866,D3,1236.0,0.375,70,160.47
6867,G#5,1236.25,0.25,83,160.47
6868,A5,1236.5,0.25,83,160.47
6869,C3,1236.5,0.375,63,160.47
6870,F#2,1236.5,0.375,63,160.47
6871,A2,1236.5,0.375,63,160.47
6872,D3,1236.5,0.375,63,160.47
6873,B5,1236.75,0.25,83,160.47
6874,C6,1237.0,0.25,95,160.47
6875,B5,1237.25,0.25,85,160.47
6876,A5,1237.5,0.25,85,160.47
6877,C3,1237.5,0.375,63,160.47
6878,F#2,1237.5,0.375,63,160.47
6879,A2,1237.5,0.375,63,160.47
6880,D3,1237.5,0.375,63,160.47
6881,G#5,1237.75,0.25,85,160.47
6882,A5,1238.0,0.25,95,160.47
6883,C3,1238.0,0.375,70,160.47
6884,F#2,1238.0,0.375,70,160.47
6885,A2,1238.0,0.375,70,160.47
6886,D3,1238.0,0.375,70,160.47
6887,G#5,1238.25,0.25,84,160.47
6888,A5,1238.5,0.25,84,160.47
6889,C3,1238.5,0.375,63,160.47
6890,F#2,1238.5,0.375,63,160.47
6891,A2,1238.5,0.375,63,160.47
6892,D3,1238.5,0.375,63,160.47
6893,B5,1238.75,0.25,84,160.47
6894,C6,1239.0,0.25,95,160.47
6895,B5,1239.25,0.25,84,160.47
6896,A5,1239.5,0.25,84,160.47
6897,C3,1239.5,0.375,63,160.47
6898,F#2,1239.5,0.375,63,160.47
6899,A2,1239.5,0.375,63,160.47
6900,D3,1239.5,0.375,63,160.47
6901,G#5,1239.75,0.25,84,160.47
6902,A5,1240.0,0.25,95,160.47
6903,C3,1240.0,0.375,70,160.47
6904,F#2,1240.0,0.375,70,160.47
6905,A2,1240.0,0.375,70,160.47
6906,D3,1240.0,0.375,70,160.47
6907,G#5,1240.25,0.25,84,160.47
6908,A5,1240.5,0.25,84,160.47
6909,C3,1240.5,0.375,63,160.47
6910,F#2,1240.5,0.375,63,160.47
6911,A2,1240.5,0.375,63,160.47
6912,D3,1240.5,0.375,63,160.47
6913,B5,1240.75,0.25,84,160.47
6914,C6,1241.0,0.25,95,160.47
6915,B5,1241.25,0.25,83,160.47
6916,A5,1241.5,0.25,83,160.47
6917,C3,1241.5,0.375,63,160.47
6918,F#2,1241.5,0.375,63,160.47
6919,A2,1241.5,0.375,63,160.47
6920,D3,1241.5,0.375,63,160.47
6921,G#5,1241.75,0.25,83,160.47
6922,A5,1242.0,0.25,95,160.47
6923,C3,1242.0,0.375,70,160.47
6924,F#2,1242.0,0.375,70,160.47
6925,A2,1242.0,0.375,70,160.47
6926,D3,1242.0,0.375,70,160.47
6927,G#5,1242.25,0.25,83,160.47
6928,A5,1242.5,0.25,83,160.47
6929,C3,1242.5,0.375,63,160.47
6930,F#2,1242.5,0.375,63,160.47
6931,A2,1242.5,0.375,63,160.47
6932,D3,1242.5,0.375,63,160.47
6933,B5,1242.75,0.25,83,160.47
6934,C6,1243.0,0.25,95,160.47
6935,B5,1243.25,0.25,84,160.47
6936,C6,1243.5,0.25,84,160.47
6937,C3,1243.5,0.375,63,160.47
6938,F#2,1243.5,0.375,63,160.47
6939,A2,1243.5,0.375,63,160.47
6940,D3,1243.5,0.375,63,160.47
6941,A5,1243.75,0.25,86,160.47
6942,G2,1244.0,0.25,78,160.47
6943,G4,1244.0,0.25,95,160.47
6944,G5,1244.0,0.25,95,160.47
6945,C3,1244.25,0.25,70,160.47
6946,E3,1244.5,0.25,70,160.47
6947,G4,1244.5,0.25,80,160.47
6948,G5,1244.5,0.25,80,160.47
6949,G3,1244.75,0.25,70,160.47
6950,G2,1245.0,0.25,77,160.47
6951,E4,1245.0,0.25,81,160.47
6952,E5,1245.0,0.25,81,160.47
6953,C3,1245.25,0.25,70,160.47
6954,E3,1245.5,0.25,70,160.47
6955,C4,1245.5,0.25,80,160.47
6956,C5,1245.5,0.25,80,160.47
6957,G3,1245.75,0.25,70,160.47
6958,G2,1246.0,0.25,75,160.47
6959,C5,1246.0,0.25,95,160.47
6960,C6,1246.0,0.25,95,160.47
6961,C3,1246.25,0.25,70,160.47
6962,E3,1246.5,0.25,70,160.47
6963,C5,1246.5,0.25,80,160.47
6964,C6,1246.5,0.25,80,160.47
6965,G3,1246.75,0.25,70,160.47
6966,G2,1247.0,0.25,75,160.47
6967,G4,1247.0,0.25,80,160.47
6968,G5,1247.0,0.25,80,160.47
6969,C3,1247.25,0.25,70,160.47
6970,E3,1247.5,0.25,70,160.47
6971,E4,1247.5,0.25,80,160.47
6972,E5,1247.5,0.25,80,160.47
6973,G3,1247.75,0.25,70,160.47
6974,G2,1248.0,0.25,78,160.47
6975,G4,1248.0,0.25,95,160.47
6976,G5,1248.0,0.25,95,160.47
6977,C3,1248.25,0.25,70,160.47
6978,E3,1248.5,0.25,70,160.47
6979,G4,1248.5,0.25,80,160.47
6980,G5,1248.5,0.25,80,160.47
6981,G3,1248.75,0.25,70,160.47
6982,G2,1249.0,0.25,77,160.47
6983,E4,1249.0,0.25,81,160.47
6984,E5,1249.0,0.25,81,160.47
6985,C3,1249.25,0.25,70,160.47
6986,E3,1249.5,0.25,70,160.47
6987,C4,1249.5,0.25,80,160.47
6988,C5,1249.5,0.25,80,160.47
6989,G3,1249.75,0.25,70,160.47
6990,E3,1250.0,0.25,75,160.47
6991,C5,1250.0,0.25,95,160.47
6992,C6,1250.0,0.25,95,160.47
6993,E3,1250.5,0.25,70,160.47
6994,C5,1250.5,0.25,80,160.47
6995,C6,1250.5,0.25,80,160.47
6996,C3,1251.0,0.25,75,160.47
6997,G4,1251.0,0.25,80,160.47
6998,G5,1251.0,0.25,80,160.47
6999,G2,1251.5,0.25,70,160.47
7000,E4,1251.5,0.25,80,160.47
7001,E5,1251.5,0.25,80,160.47
7002,G3,1252.0,0.25,86,160.47
7003,C6,1252.25,0.25,47,160.47
7004,E6,1252.5,0.248,50,160.47
7005,E3,1252.5,0.25,47,160.47
7006,C6,1252.75,0.25,47,160.47
7007,G6,1253.0,0.248,51,160.47
7008,C4,1253.0,0.25,53,160.47
7009,E6,1253.25,0.25,47,160.47
7010,G6,1253.5,0.248,50,160.47
7011,G3,1253.5,0.25,48,160.47
7012,E6,1253.75,0.25,47,160.47
7013,G6,1254.0,0.248,51,160.47
7014,E4,1254.0,0.25,52,160.47
7015,E6,1254.25,0.25,47,160.47
7016,G6,1254.5,0.248,50,160.47
7017,C4,1254.5,0.25,41,160.47
7018,E6,1254.75,0.25,47,160.47
7019,G6,1255.0,0.248,52,160.47
7020,G4,1255.0,0.25,50,160.47
7021,E6,1255.25,0.25,47,160.47
7022,G6,1255.5,0.248,51,160.47
7023,E4,1255.5,0.25,41,160.47
7024,E6,1255.75,0.25,47,160.47
7025,G6,1256.0,0.248,50,160.47
7026,C5,1256.0,0.25,50,160.47
7027,E6,1256.25,0.25,47,160.47
7028,G6,1256.5,0.248,50,160.47
7029,G4,1256.5,0.25,41,160.47
7030,E6,1256.75,0.25,47,160.47
7031,G6,1257.0,0.248,51,160.47
7032,E5,1257.0,0.25,50,160.47
7033,E6,1257.25,0.25,47,160.47
7034,G6,1257.5,0.248,50,160.47
7035,C5,1257.5,0.25,39,160.47
7036,E6,1257.75,0.25,47,160.47
7037,G6,1258.0,0.248,51,160.47
7038,G5,1258.0,0.25,50,160.47
7039,E6,1258.25,0.25,47,160.47
7040,G6,1258.5,0.248,50,160.47
7041,E5,1258.5,0.25,41,160.47
7042,E6,1258.75,0.25,47,160.47
7043,G6,1259.0,0.248,52,160.47
7044,C6,1259.0,0.25,50,160.47
7045,E6,1259.25,0.25,47,160.47
7046,G6,1259.5,0.248,51,160.47
7047,G5,1259.5,0.25,42,160.47
7048,E6,1259.75,0.25,47,160.47
7049,B5,1260.0,0.25,46,160.47
7050,F6,1260.25,0.25,42,160.47
7051,G6,1260.5,0.375,45,160.47
7052,G5,1260.5,0.25,37,160.47
7053,F6,1260.75,0.25,41,160.47
7054,G#6,1261.0,0.375,44,160.47
7055,B5,1261.0,0.25,43,160.47
7056,F6,1261.25,0.25,40,160.47
7057,G6,1261.5,0.375,42,160.47
7058,G5,1261.5,0.25,36,160.47
7059,F6,1261.75,0.25,39,160.47
7060,G#6,1262.0,0.375,42,160.47
7061,B5,1262.0,0.25,41,160.47
7062,F6,1262.25,0.25,38,160.47
7063,G6,1262.5,0.375,40,160.47
7064,G5,1262.5,0.25,32,160.47
7065,F6,1262.75,0.25,37,160.47
7066,G#6,1263.0,0.375,40,160.47
7067,B5,1263.0,0.25,39,160.47
7068,F6,1263.25,0.25,36,160.47
7069,G6,1263.5,0.375,39,160.47
7070,G5,1263.5,0.25,31,160.47
7071,F6,1263.75,0.25,35,160.47
7072,G#6,1264.0,0.375,37,160.47
7073,B5,1264.0,0.25,36,160.47
7074,F6,1264.25,0.25,34,160.47
7075,G6,1264.5,0.375,36,160.47
7076,G5,1264.5,0.25,30,160.47
7077,F6,1264.75,0.25,34,160.47
7078,G#6,1265.0,0.375,37,160.47
7079,B5,1265.0,0.25,36,160.47
7080,F6,1265.25,0.25,34,160.47
7081,G6,1265.5,0.375,36,160.47
7082,G5,1265.5,0.25,31,160.47
7083,F6,1265.75,0.25,34,160.47
7084,G#6,1266.0,0.375,37,160.47
7085,B5,1266.0,0.25,36,160.47
7086,F6,1266.25,0.25,34,160.47
7087,G6,1266.5,0.375,36,160.47
7088,G5,1266.5,0.25,29,160.47
7089,F6,1266.75,0.25,34,160.47
7090,G#6,1267.0,0.375,38,160.47
7091,B5,1267.0,0.25,36,160.47
7092,F6,1267.25,0.25,34,160.47
7093,G6,1267.5,0.375,37,160.47
7094,G5,1267.5,0.25,30,160.47
7095,F6,1267.75,0.25,34,160.47
7096,A6,1268.0,0.25,37,160.47
7097,B5,1268.0,0.167,37,160.47
7098,C6,1268.167,0.167,32,160.47
7099,F6,1268.25,0.25,34,160.47
7100,B5,1268.333,0.167,36,160.47
7101,G6,1268.5,0.25,36,160.47
7102,C6,1268.5,0.167,31,160.47
7103,B5,1268.667,0.167,36,160.47
7104,F6,1268.75,0.25,35,160.47
7105,C6,1268.833,0.167,33,160.47
7106,A6,1269.0,0.25,38,160.47
7107,B5,1269.0,0.167,37,160.47
7108,C6,1269.167,0.167,33,160.47
7109,F6,1269.25,0.25,36,160.47
7110,B5,1269.333,0.167,37,160.47
7111,G6,1269.5,0.25,38,160.47
7112,C6,1269.5,0.167,33,160.47
7113,B5,1269.667,0.167,38,160.47
7114,F6,1269.75,0.25,36,160.47
7115,C6,1269.833,0.167,34,160.47
7116,A6,1270.0,0.25,40,160.47
7117,B5,1270.0,0.167,38,160.47
7118,C6,1270.167,0.167,35,160.47
7119,F6,1270.25,0.25,37,160.47
7120,B5,1270.333,0.167,39,160.47
7121,G6,1270.5,0.25,40,160.47
7122,C6,1270.5,0.167,35,160.47
7123,B5,1270.667,0.167,39,160.47
7124,F6,1270.75,0.25,38,160.47
7125,C6,1270.833,0.167,36,160.47
7126,A6,1271.0,0.25,43,160.47
7127,B5,1271.0,0.167,40,160.47
7128,C6,1271.167,0.167,36,160.47
7129,F6,1271.25,0.25,39,160.47
7130,B5,1271.333,0.167,40,160.47
7131,G6,1271.5,0.25,43,160.47
7132,C6,1271.5,0.167,36,160.47
7133,B5,1271.667,0.167,41,160.47
7134,F6,1271.75,0.25,40,160.47
7135,C6,1271.833,0.167,37,160.47
7136,A6,1272.0,0.25,44,160.47
7137,B5,1272.0,0.167,41,160.47
7138,C6,1272.167,0.167,36,160.47
7139,B5,1272.333,0.167,42,160.47
7140,C6,1272.5,0.167,37,160.47
7141,F6,1272.5,0.25,43,160.47
7142,G6,1272.5,0.25,43,160.47
7143,B5,1272.667,0.167,42,160.47
7144,C6,1272.833,0.167,37,160.47
7145,B5,1273.0,0.167,43,160.47
7146,F6,1273.0,0.25,46,160.47
7147,G6,1273.0,0.25,46,160.47
7148,C6,1273.167,0.167,38,160.47
7149,B5,1273.333,0.167,43,160.47
7150,C6,1273.5,0.167,39,160.47
7151,F6,1273.5,0.25,46,160.47
7152,G6,1273.5,0.25,46,160.47
7153,B5,1273.667,0.167,44,160.47
7154,C6,1273.833,0.167,39,160.47
7155,B5,1274.0,0.167,44,160.47
7156,F6,1274.0,0.25,49,160.47
7157,G6,1274.0,0.25,49,160.47
7158,C6,1274.167,0.167,38,160.47
7159,B5,1274.333,0.167,45,160.47
7160,C6,1274.5,0.167,38,160.47
7161,F6,1274.5,0.25,49,160.47
7162,G6,1274.5,0.25,49,160.47
7163,B5,1274.667,0.167,45,160.47
7164,C6,1274.833,0.167,40,160.47
7165,B5,1275.0,0.2,50,160.47
7166,F6,1275.0,0.25,54,160.47
7167,G6,1275.0,0.25,54,160.47
7168,C6,1275.2,0.2,44,160.47
7169,B5,1275.4,0.2,50,160.47
7170,F6,1275.5,0.25,53,160.47
7171,G6,1275.5,0.25,53,160.47
7172,A5,1275.6,0.2,52,160.47
7173,B5,1275.8,0.2,47,160.47
7174,C6,1276.0,3.0,82,160.47
7175,C4,1276.0,8.0,52,160.47
7176,C5,1276.0,2.0,62,160.47
7177,E4,1278.0,2.0,40,160.47
7178,G4,1278.0,2.0,40,160.47
7179,B-4,1278.0,2.0,40,160.47
7180,C6,1279.0,0.25,58,160.47
7181,B-5,1279.25,0.25,57,160.47
7182,G#5,1279.5,0.25,56,160.47
7183,G5,1279.75,0.25,55,160.47
7184,G#5,1280.0,0.25,58,160.47
7185,F4,1280.0,2.0,43,160.47
7186,G#4,1280.0,2.0,43,160.47
7187,G5,1280.25,0.25,57,160.47
7188,F5,1280.5,0.25,56,160.47
7189,E5,1280.75,0.25,55,160.47
7190,F5,1281.0,0.25,51,160.47
7191,G5,1281.25,0.25,52,160.47
7192,G#5,1281.5,0.25,53,160.47
7193,B-5,1281.75,0.25,54,160.47
7194,C6,1282.0,0.25,56,160.47
7195,E4,1282.0,2.0,41,160.47
7196,G4,1282.0,2.0,41,160.47
7197,B-4,1282.0,2.0,41,160.47
7198,C#6,1282.25,0.25,57,160.47
7199,C6,1282.5,0.25,57,160.47
7200,B5,1282.75,0.25,56,160.47
7201,C6,1283.0,0.25,56,160.47
7202,B-5,1283.25,0.25,56,160.47
7203,G#5,1283.5,0.25,56,160.47
7204,G5,1283.75,0.25,56,160.47
7205,G#5,1284.0,0.25,57,160.47
7206,G#4,1284.0,1.0,44,160.47
7207,F4,1284.0,1.0,44,160.47
7208,B-5,1284.25,0.25,57,160.47
7209,G#5,1284.5,0.25,57,160.47
7210,G5,1284.75,0.25,53,160.47
7211,F5,1285.0,0.25,56,160.47
7212,E5,1285.25,0.25,52,160.47
7213,F5,1285.5,0.25,56,160.47
7214,G5,1285.75,0.25,52,160.47
7215,G#4,1286.0,2.0,45,160.47
7216,G#5,1286.0,1.0,59,160.47
7217,F4,1286.0,2.0,41,160.47
7218,C#4,1286.0,2.0,41,160.47
7219,G#3,1286.0,2.0,41,160.47
7220,F3,1286.0,2.0,41,160.47
7221,F5,1287.0,0.5,52,160.47
7222,C#5,1287.5,0.5,52,160.47
7223,G4,1288.0,2.0,45,160.47
7224,G5,1288.0,1.0,57,160.47
7225,C4,1288.0,2.0,41,160.47
7226,G3,1288.0,2.0,41,160.47
7227,E-4,1288.0,2.0,41,160.47
7228,E-5,1289.0,0.5,52,160.47
7229,C5,1289.5,0.5,52,160.47
7230,F4,1290.0,2.0,45,160.47
7231,F5,1290.0,1.0,57,160.47
7232,G3,1290.0,2.0,39,160.47
7233,B3,1290.0,2.0,39,160.47
7234,D4,1290.0,2.0,39,160.47
7235,D5,1291.0,0.5,52,160.47
7236,B4,1291.5,0.5,52,160.47
7237,C5,1292.0,3.0,72,160.47
7238,C4,1292.0,2.0,56,160.47
7239,C3,1292.0,8.0,45,160.47
7240,E3,1294.0,2.0,40,160.47
7241,G3,1294.0,2.0,40,160.47
7242,B-3,1294.0,2.0,40,160.47
7243,C5,1295.0,0.25,58,160.47
7244,B-4,1295.25,0.25,57,160.47
7245,A4,1295.5,0.25,56,160.47
7246,G4,1295.75,0.25,55,160.47
7247,A4,1296.0,0.25,58,160.47
7248,F3,1296.0,2.0,43,160.47
7249,A3,1296.0,2.0,43,160.47
7250,G4,1296.25,0.25,57,160.47
7251,F4,1296.5,0.25,56,160.47
7252,E4,1296.75,0.25,55,160.47
7253,F4,1297.0,0.25,51,160.47
7254,G4,1297.25,0.25,52,160.47
7255,A4,1297.5,0.25,53,160.47
7256,B-4,1297.75,0.25,54,160.47
7257,C5,1298.0,0.25,56,160.47
7258,G3,1298.0,2.0,41,160.47
7259,B-3,1298.0,2.0,41,160.47
7260,E3,1298.0,2.0,41,160.47
7261,D5,1298.25,0.25,57,160.47
7262,C5,1298.5,0.25,57,160.47
7263,B4,1298.75,0.25,56,160.47
7264,C5,1299.0,0.25,56,160.47
7265,B-4,1299.25,0.25,56,160.47
7266,A4,1299.5,0.25,56,160.47
7267,G4,1299.75,0.25,56,160.47
7268,A4,1300.0,0.25,57,160.47
7269,F3,1300.0,1.0,48,160.47
7270,A3,1300.0,1.0,48,160.47
7271,B-4,1300.25,0.25,57,160.47
7272,A4,1300.5,0.25,57,160.47
7273,G4,1300.75,0.25,53,160.47
7274,F4,1301.0,0.25,56,160.47
7275,E4,1301.25,0.25,52,160.47
7276,F4,1301.5,0.25,56,160.47
7277,G4,1301.75,0.25,52,160.47
7278,A3,1302.0,2.0,45,160.47
7279,A4,1302.0,1.0,59,160.47
7280,F2,1302.0,2.0,42,160.47
7281,D3,1302.0,2.0,42,160.47
7282,A2,1302.0,2.0,42,160.47
7283,F4,1303.0,0.5,52,160.47
7284,D4,1303.5,0.5,52,160.47
7285,G3,1304.0,4.0,45,160.47
7286,G4,1304.0,1.0,57,160.47
7287,G2,1304.0,4.0,39,160.47
7288,C3,1304.0,2.0,42,160.47
7289,E3,1304.0,2.0,42,160.47
7290,E4,1305.0,0.5,52,160.47
7291,C4,1305.5,0.5,52,160.47
7292,F4,1306.0,1.0,57,160.47
7293,D3,1306.0,2.0,40,160.47
7294,F3,1306.0,2.0,40,160.47
7295,D4,1307.0,0.5,52,160.47
7296,B3,1307.5,0.5,52,160.47
7297,G3,1308.0,1.0,53,160.47
7298,C4,1308.0,1.0,53,160.47
7299,C3,1308.0,1.0,40,160.47
7300,E3,1308.0,1.0,40,160.47
7301,C5,1309.0,0.5,68,160.47
7302,C3,1309.0,1.5,51,160.47
7303,E2,1309.0,1.0,42,160.47
7304,B4,1309.5,0.5,64,160.47
7305,A4,1310.0,1.0,66,160.47
7306,F2,1310.0,2.0,42,160.47
7307,D3,1310.5,0.5,49,160.47
7308,F4,1311.0,0.5,61,160.47
7309,E3,1311.0,0.5,51,160.47
7310,D4,1311.5,0.5,54,160.47
7311,F3,1311.5,0.5,55,160.47
7312,G4,1312.0,1.0,51,160.47
7313,G2,1312.0,4.0,35,160.47
7314,E3,1312.0,2.0,38,160.47
7315,G3,1312.0,2.0,38,160.47
7316,E4,1313.0,0.5,46,160.47
7317,C4,1313.5,0.5,46,160.47
7318,F4,1314.0,1.0,51,160.47
7319,D3,1314.0,2.0,36,160.47
7320,F3,1314.0,2.0,36,160.47
7321,D4,1315.0,0.5,46,160.47
7322,B3,1315.5,0.5,46,160.47
7323,C4,1316.0,1.0,55,160.47
7324,E3,1316.0,1.0,40,160.47
7325,C3,1316.0,1.0,40,160.47
7326,F5,1317.0,0.5,68,160.47
7327,A2,1317.0,1.0,42,160.47
7328,F3,1317.0,1.5,51,160.47
7329,E5,1317.5,0.5,64,160.47
7330,D5,1318.0,1.0,66,160.47
7331,B-2,1318.0,2.0,42,160.47
7332,G3,1318.5,0.5,49,160.47
7333,B-4,1319.0,0.5,61,160.47
7334,A3,1319.0,0.5,51,160.47
7335,G4,1319.5,0.5,54,160.47
7336,B-3,1319.5,0.5,55,160.47
7337,C5,1320.0,1.0,51,160.47
7338,C3,1320.0,4.0,35,160.47
7339,C4,1320.0,2.0,38,160.47
7340,A3,1320.0,2.0,38,160.47
7341,A4,1321.0,0.5,46,160.47
7342,F4,1321.5,0.5,46,160.47
7343,B-4,1322.0,1.0,51,160.47
7344,G3,1322.0,2.0,36,160.47
7345,B-3,1322.0,2.0,36,160.47
7346,G4,1323.0,0.5,46,160.47
7347,E4,1323.5,0.5,46,160.47
7348,F4,1324.0,1.0,55,160.47
7349,G#3,1324.0,1.0,40,160.47
7350,F3,1324.0,1.0,40,160.47
7351,F5,1325.0,0.5,67,160.47
7352,G#2,1325.0,1.0,42,160.47
7353,F3,1325.0,1.5,51,160.47
7354,E-5,1325.5,0.5,63,160.47
7355,C#5,1326.0,1.0,66,160.47
7356,B-2,1326.0,2.0,42,160.47
7357,G3,1326.5,0.5,49,160.47
7358,B-4,1327.0,0.5,61,160.47
7359,G#3,1327.0,0.5,51,160.47
7360,G4,1327.5,0.5,54,160.47
7361,B-3,1327.5,0.5,55,160.47
7362,C5,1328.0,1.0,51,160.47
7363,C3,1328.0,4.0,35,160.47
7364,C4,1328.0,2.0,38,160.47
7365,G#3,1328.0,2.0,38,160.47
7366,G#4,1329.0,0.5,46,160.47
7367,F4,1329.5,0.5,46,160.47
7368,B-4,1330.0,1.0,51,160.47
7369,G3,1330.0,2.0,36,160.47
7370,B-3,1330.0,2.0,36,160.47
7371,G4,1331.0,0.5,46,160.47
7372,E4,1331.5,0.5,46,160.47
7373,F4,1332.0,0.5,40,160.47
7374,C#3,1332.0,0.25,26,160.47
7375,G#3,1332.0,0.25,26,160.47
7376,F3,1332.0,0.25,26,160.47
7377,C#3,1332.5,0.25,30,160.47
7378,F3,1332.5,0.25,30,160.47
7379,C#2,1332.5,0.25,24,160.47
7380,G#2,1332.5,0.25,24,160.47
7381,C#3,1333.0,0.25,30,160.47
7382,F3,1333.0,0.25,30,160.47
7383,G#2,1333.0,0.25,24,160.47
7384,C#2,1333.0,0.25,24,160.47
7385,C#3,1333.5,0.25,31,160.47
7386,F3,1333.5,0.25,31,160.47
7387,G#2,1333.5,0.25,24,160.47
7388,C#2,1333.5,0.25,24,160.47
7389,C#3,1334.0,0.25,31,160.47
7390,F3,1334.0,0.25,31,160.47
7391,C#2,1334.0,0.25,24,160.47
7392,G#2,1334.0,0.25,24,160.47
7393,C#3,1334.5,0.25,31,160.47
7394,F3,1334.5,0.25,31,160.47
7395,G#2,1334.5,0.25,26,160.47
7396,C#2,1334.5,0.25,26,160.47
7397,C#3,1335.0,0.25,32,160.47
7398,F3,1335.0,0.25,32,160.47
7399,G#2,1335.0,0.25,26,160.47
7400,C#2,1335.0,0.25,26,160.47
7401,C#3,1335.5,0.25,32,160.47
7402,F3,1335.5,0.25,32,160.47
7403,C#2,1335.5,0.25,26,160.47
7404,G#2,1335.5,0.25,26,160.47
7405,C#3,1336.0,0.25,33,160.47
7406,F3,1336.0,0.25,33,160.47
7407,C#2,1336.0,0.25,28,160.47
7408,G#2,1336.0,0.25,28,160.47
7409,C#3,1336.5,0.25,33,160.47
7410,F3,1336.5,0.25,33,160.47
7411,G#2,1336.5,0.25,24,160.47
7412,C#2,1336.5,0.25,24,160.47
7413,C#3,1337.0,0.25,34,160.47
7414,F3,1337.0,0.25,34,160.47
7415,C#2,1337.0,0.25,26,160.47
7416,G#2,1337.0,0.25,26,160.47
7417,C#3,1337.5,0.25,35,160.47
7418,F3,1337.5,0.25,35,160.47
7419,G#2,1337.5,0.25,26,160.47
7420,C#2,1337.5,0.25,26,160.47
7421,C#3,1338.0,0.25,36,160.47
7422,F3,1338.0,0.25,36,160.47
7423,C#2,1338.0,0.25,28,160.47
7424,G#2,1338.0,0.25,28,160.47
7425,C#3,1338.5,0.25,37,160.47
7426,F3,1338.5,0.25,37,160.47
7427,C#2,1338.5,0.25,28,160.47
7428,G#2,1338.5,0.25,28,160.47
7429,E-3,1339.0,0.25,37,160.47
7430,G3,1339.0,0.25,37,160.47
7431,C#2,1339.0,0.25,28,160.47
7432,B-2,1339.0,0.25,28,160.47
7433,E-3,1339.5,0.25,37,160.47
7434,G3,1339.5,0.25,37,160.47
7435,C#2,1339.5,0.25,28,160.47
7436,B-2,1339.5,0.25,28,160.47
7437,G#3,1340.0,1.5,46,160.47
7438,C2,1340.0,0.375,27,160.47
7439,G#2,1340.0,0.375,27,160.47
7440,E-2,1340.0,0.375,27,160.47
7441,C2,1340.5,0.375,27,160.47
7442,E-2,1340.5,0.375,27,160.47
7443,G#2,1340.5,0.375,27,160.47
7444,C2,1341.0,0.375,27,160.47
7445,E-2,1341.0,0.375,27,160.47
7446,G#2,1341.0,0.375,27,160.47
7447,C4,1341.5,0.25,40,160.47
7448,C2,1341.5,0.375,27,160.47
7449,E-2,1341.5,0.375,27,160.47
7450,G#2,1341.5,0.375,27,160.47
7451,B-3,1341.75,0.25,40,160.47
7452,G#3,1342.0,0.25,45,160.47
7453,C2,1342.0,0.375,27,160.47
7454,E-2,1342.0,0.375,27,160.47
7455,G#2,1342.0,0.375,27,160.47
7456,G#2,1342.5,0.375,27,160.47
7457,E-2,1342.5,0.375,27,160.47
7458,C2,1342.5,0.375,27,160.47
7459,C2,1343.0,0.375,27,160.47
7460,E-2,1343.0,0.375,27,160.47
7461,G#2,1343.0,0.375,27,160.47
7462,C2,1343.5,0.375,27,160.47
7463,E-2,1343.5,0.375,27,160.47
7464,G#2,1343.5,0.375,27,160.47
7465,D6,1343.875,0.125,72,160.47
7466,E-6,1344.0,1.25,89,160.47
7467,F2,1344.0,0.375,40,160.47
7468,E-2,1344.0,0.375,40,160.47
7469,C2,1344.0,0.375,40,160.47
7470,A2,1344.0,0.375,40,160.47
7471,E-2,1344.5,0.375,40,160.47
7472,C2,1344.5,0.375,40,160.47
7473,A2,1344.5,0.375,40,160.47
7474,F2,1344.5,0.375,40,160.47
7475,E-2,1345.0,0.375,40,160.47
7476,C2,1345.0,0.375,40,160.47
7477,F2,1345.0,0.375,40,160.47
7478,A2,1345.0,0.375,40,160.47
7479,C#6,1345.25,0.25,75,160.47
7480,C6,1345.5,0.25,73,160.47
7481,F2,1345.5,0.375,40,160.47
7482,E-2,1345.5,0.375,40,160.47
7483,C2,1345.5,0.375,40,160.47
7484,A2,1345.5,0.375,40,160.47
7485,B-5,1345.75,0.25,70,160.47
7486,A5,1346.0,0.5,69,160.47
7487,F2,1346.0,0.375,40,160.47
7488,A2,1346.0,0.375,40,160.47
7489,C2,1346.0,0.375,40,160.47
7490,E-2,1346.0,0.375,40,160.47
7491,C2,1346.5,0.375,39,160.47
7492,E-2,1346.5,0.375,39,160.47
7493,F2,1346.5,0.375,39,160.47
7494,A2,1346.5,0.375,39,160.47
7495,F2,1347.0,0.375,39,160.47
7496,E-2,1347.0,0.375,39,160.47
7497,C2,1347.0,0.375,39,160.47
7498,A2,1347.0,0.375,39,160.47
7499,F2,1347.5,0.375,39,160.47
7500,A2,1347.5,0.375,39,160.47
7501,E-2,1347.5,0.375,39,160.47
7502,C2,1347.5,0.375,39,160.47
7503,B-3,1348.0,1.5,46,160.47
7504,F2,1348.0,0.375,27,160.47
7505,C#2,1348.0,0.375,27,160.47
7506,B-2,1348.0,0.375,27,160.47
7507,F2,1348.5,0.375,27,160.47
7508,C#2,1348.5,0.375,27,160.47
7509,B-2,1348.5,0.375,27,160.47
7510,F2,1349.0,0.375,27,160.47
7511,C#2,1349.0,0.375,27,160.47
7512,B-2,1349.0,0.375,27,160.47
7513,C#4,1349.5,0.25,40,160.47
7514,F2,1349.5,0.375,27,160.47
7515,C#2,1349.5,0.375,27,160.47
7516,B-2,1349.5,0.375,27,160.47
7517,C4,1349.75,0.25,40,160.47
7518,B-3,1350.0,0.25,45,160.47
7519,B-2,1350.0,0.375,27,160.47
7520,F2,1350.0,0.375,27,160.47
7521,C#2,1350.0,0.375,27,160.47
7522,C#2,1350.5,0.375,27,160.47
7523,B-2,1350.5,0.375,27,160.47
7524,F2,1350.5,0.375,27,160.47
7525,C#2,1351.0,0.375,27,160.47
7526,B-2,1351.0,0.375,27,160.47
7527,F2,1351.0,0.375,27,160.47
7528,C#2,1351.5,0.375,27,160.47
7529,B-2,1351.5,0.375,27,160.47
7530,F2,1351.5,0.375,27,160.47
7531,E6,1351.875,0.125,72,160.47
7532,F6,1352.0,1.25,89,160.47
7533,B2,1352.0,0.375,41,160.47
7534,F2,1352.0,0.375,41,160.47
7535,D2,1352.0,0.375,41,160.47
7536,F2,1352.5,0.375,41,160.47
7537,D2,1352.5,0.375,41,160.47
7538,B2,1352.5,0.375,41,160.47
7539,F2,1353.0,0.375,41,160.47
7540,D2,1353.0,0.375,41,160.47
7541,B2,1353.0,0.375,41,160.47
7542,E-6,1353.25,0.25,75,160.47
7543,D6,1353.5,0.25,73,160.47
7544,F2,1353.5,0.375,41,160.47
7545,D2,1353.5,0.375,41,160.47
7546,B2,1353.5,0.375,41,160.47
7547,C6,1353.75,0.25,70,160.47
7548,B5,1354.0,0.5,69,160.47
7549,F2,1354.0,0.375,40,160.47
7550,D2,1354.0,0.375,40,160.47
7551,B2,1354.0,0.375,40,160.47
7552,B2,1354.5,0.375,40,160.47
7553,F2,1354.5,0.375,40,160.47
7554,D2,1354.5,0.375,40,160.47
7555,F2,1355.0,0.375,40,160.47
7556,B2,1355.0,0.375,40,160.47
7557,D2,1355.0,0.375,40,160.47
7558,D2,1355.5,0.375,40,160.47
7559,F2,1355.5,0.375,40,160.47
7560,B2,1355.5,0.375,40,160.47
7561,C4,1356.0,0.5,82,160.47
7562,G2,1356.0,0.375,40,160.47
7563,E-2,1356.0,0.375,40,160.47
7564,B2,1356.0,0.375,40,160.47
7565,E-4,1356.5,0.25,70,160.47
7566,G2,1356.5,0.375,40,160.47
7567,E-2,1356.5,0.375,40,160.47
7568,B2,1356.5,0.375,40,160.47
7569,D4,1356.75,0.25,70,160.47
7570,C4,1357.0,0.5,74,160.47
7571,G2,1357.0,0.375,40,160.47
7572,E-2,1357.0,0.375,40,160.47
7573,C3,1357.0,0.375,40,160.47
7574,E-2,1357.5,0.375,40,160.47
7575,C3,1357.5,0.375,40,160.47
7576,G2,1357.5,0.375,40,160.47
7577,G#5,1358.0,0.25,78,160.47
7578,F2,1358.0,0.375,40,160.47
7579,C3,1358.0,0.375,40,160.47
7580,G#2,1358.0,0.375,40,160.47
7581,G5,1358.25,0.25,75,160.47
7582,F5,1358.5,0.25,73,160.47
7583,F2,1358.5,0.375,41,160.47
7584,C3,1358.5,0.375,41,160.47
7585,G#2,1358.5,0.375,41,160.47
7586,E-5,1358.75,0.25,70,160.47
7587,D5,1359.0,0.5,74,160.47
7588,G#2,1359.0,0.375,41,160.47
7589,F2,1359.0,0.375,41,160.47
7590,D3,1359.0,0.375,41,160.47
7591,D3,1359.5,0.375,41,160.47
7592,F2,1359.5,0.375,41,160.47
7593,G#2,1359.5,0.375,41,160.47
7594,E4,1360.0,0.5,82,160.47
7595,G2,1360.0,0.375,41,160.47
7596,B-2,1360.0,0.375,41,160.47
7597,D3,1360.0,0.375,41,160.47
7598,G4,1360.5,0.25,70,160.47
7599,G2,1360.5,0.375,41,160.47
7600,B-2,1360.5,0.375,41,160.47
7601,D3,1360.5,0.375,41,160.47
7602,F4,1360.75,0.25,70,160.47
7603,E4,1361.0,0.5,74,160.47
7604,G2,1361.0,0.375,42,160.47
7605,B-2,1361.0,0.375,42,160.47
7606,E3,1361.0,0.375,42,160.47
7607,B-2,1361.5,0.375,42,160.47
7608,G2,1361.5,0.375,42,160.47
7609,E3,1361.5,0.375,42,160.47
7610,C6,1362.0,0.25,78,160.47
7611,G#2,1362.0,0.375,42,160.47
7612,E3,1362.0,0.375,42,160.47
7613,C3,1362.0,0.375,42,160.47
7614,B-5,1362.25,0.25,75,160.47
7615,G#5,1362.5,0.25,73,160.47
7616,G#2,1362.5,0.375,42,160.47
7617,E3,1362.5,0.375,42,160.47
7618,C3,1362.5,0.375,42,160.47
7619,G5,1362.75,0.25,70,160.47
7620,F5,1363.0,0.5,74,160.47
7621,G#2,1363.0,0.375,43,160.47
7622,F3,1363.0,0.375,43,160.47
7623,C3,1363.0,0.375,43,160.47
7624,C3,1363.5,0.375,43,160.47
7625,G#2,1363.5,0.375,43,160.47
7626,F3,1363.5,0.375,43,160.47
7627,E-6,1364.0,0.25,90,160.47
7628,F#3,1364.0,0.375,45,160.47
7629,A2,1364.0,0.375,45,160.47
7630,C3,1364.0,0.375,45,160.47
7631,D6,1364.25,0.25,86,160.47
7632,C6,1364.5,0.25,84,160.47
7633,F#3,1364.5,0.375,45,160.47
7634,A2,1364.5,0.375,45,160.47
7635,C3,1364.5,0.375,45,160.47
7636,B5,1364.75,0.25,80,160.47
7637,C6,1365.0,0.5,85,160.47
7638,C3,1365.0,0.375,45,160.47
7639,A2,1365.0,0.375,45,160.47
7640,F#3,1365.0,0.375,45,160.47
7641,C3,1365.5,0.375,45,160.47
7642,A2,1365.5,0.375,45,160.47
7643,F#3,1365.5,0.375,45,160.47
7644,E-5,1366.0,0.25,90,160.47
7645,F#3,1366.0,0.375,45,160.47
7646,C3,1366.0,0.375,45,160.47
7647,A2,1366.0,0.375,45,160.47
7648,D5,1366.25,0.25,86,160.47
7649,C5,1366.5,0.25,84,160.47
7650,C3,1366.5,0.375,45,160.47
7651,A2,1366.5,0.375,45,160.47
7652,F#3,1366.5,0.375,45,160.47
7653,B4,1366.75,0.25,80,160.47
7654,C5,1367.0,0.5,85,160.47
7655,C3,1367.0,0.375,45,160.47
7656,A2,1367.0,0.375,45,160.47
7657,F#3,1367.0,0.375,45,160.47
7658,C3,1367.5,0.375,45,160.47
7659,A2,1367.5,0.375,45,160.47
7660,F#3,1367.5,0.375,45,160.47
7661,E-4,1368.0,0.25,90,160.47
7662,C3,1368.0,0.375,45,160.47
7663,F#3,1368.0,0.375,45,160.47
7664,G#2,1368.0,0.375,45,160.47
7665,D4,1368.25,0.25,86,160.47
7666,C4,1368.5,0.25,84,160.47
7667,F#3,1368.5,0.375,45,160.47
7668,G#2,1368.5,0.375,45,160.47
7669,C3,1368.5,0.375,45,160.47
7670,B3,1368.75,0.25,80,160.47
7671,C4,1369.0,0.5,85,160.47
7672,C3,1369.0,0.375,45,160.47
7673,G#2,1369.0,0.375,45,160.47
7674,F#3,1369.0,0.375,45,160.47
7675,C3,1369.5,0.375,45,160.47
7676,G#2,1369.5,0.375,45,160.47
7677,F#3,1369.5,0.375,45,160.47
7678,E-5,1370.0,0.25,90,160.47
7679,C3,1370.0,0.375,45,160.47
7680,G#2,1370.0,0.375,45,160.47
7681,E-3,1370.0,0.375,45,160.47
7682,D5,1370.25,0.25,86,160.47
7683,C5,1370.5,0.25,84,160.47
7684,E-3,1370.5,0.375,45,160.47
7685,C3,1370.5,0.375,45,160.47
7686,G#2,1370.5,0.375,45,160.47
7687,B4,1370.75,0.25,80,160.47
7688,C5,1371.0,0.25,85,160.47
7689,G#2,1371.0,0.375,46,160.47
7690,C3,1371.0,0.375,46,160.47
7691,D5,1371.25,0.25,85,160.47
7692,E-5,1371.5,0.25,85,160.47
7693,C3,1371.5,0.375,46,160.47
7694,G#2,1371.5,0.375,46,160.47
7695,F#5,1371.75,0.25,85,160.47
7696,G5,1372.0,0.458,85,160.47
7697,G2,1372.0,0.458,46,160.47
7698,B2,1372.0,0.458,46,160.47
7699,G4,1372.5,0.458,42,160.47
7700,G5,1372.5,0.458,42,160.47
7701,G4,1373.0,0.458,42,160.47
7702,G5,1373.0,0.458,42,160.47
7703,G4,1373.5,0.458,42,160.47
7704,G5,1373.5,0.458,42,160.47
7705,G4,1374.0,0.458,42,160.47
7706,G5,1374.0,0.458,42,160.47
7707,G4,1374.5,0.458,42,160.47
7708,G5,1374.5,0.458,42,160.47
7709,G4,1375.0,0.458,42,160.47
7710,G5,1375.0,0.458,42,160.47
7711,G4,1375.5,0.458,42,160.47
7712,G5,1375.5,0.458,42,160.47
7713,G4,1376.0,0.458,39,160.47
7714,B-4,1376.0,0.458,39,160.47
7715,C#5,1376.0,0.458,39,160.47
7716,G5,1376.0,0.458,39,160.47
7717,G4,1376.5,0.458,41,160.47
7718,B-4,1376.5,0.458,41,160.47
7719,C#5,1376.5,0.458,41,160.47
7720,G5,1376.5,0.458,41,160.47
7721,G4,1377.0,0.458,43,160.47
7722,B-4,1377.0,0.458,43,160.47
7723,C#5,1377.0,0.458,43,160.47
7724,G5,1377.0,0.458,43,160.47
7725,G4,1377.5,0.458,45,160.47
7726,B-4,1377.5,0.458,45,160.47
7727,C#5,1377.5,0.458,45,160.47
7728,G5,1377.5,0.458,45,160.47
7729,G4,1378.0,0.458,47,160.47
7730,B-4,1378.0,0.458,47,160.47
7731,C#5,1378.0,0.458,47,160.47
7732,G5,1378.0,0.458,47,160.47
7733,G4,1378.5,0.458,48,160.47
7734,B-4,1378.5,0.458,48,160.47
7735,C#5,1378.5,0.458,48,160.47
7736,G5,1378.5,0.458,48,160.47
7737,G4,1379.0,0.458,52,160.47
7738,B-4,1379.0,0.458,52,160.47
7739,C#5,1379.0,0.458,52,160.47
7740,G5,1379.0,0.458,52,160.47
7741,G4,1379.5,0.458,54,160.47
7742,B-4,1379.5,0.458,54,160.47
7743,C#5,1379.5,0.458,54,160.47
7744,G5,1379.5,0.458,54,160.47
7745,G4,1380.0,0.5,43,160.47
7746,B4,1380.0,0.5,43,160.47
7747,D5,1380.0,0.5,43,160.47
7748,G5,1380.0,0.5,43,160.47
7749,B2,1380.0,0.375,32,160.47
7750,D3,1380.0,0.375,32,160.47
7751,G6,1380.5,1.0,54,160.47
7752,G5,1380.5,1.0,54,160.47
7753,D3,1380.5,0.375,32,160.47
7754,B2,1380.5,0.375,32,160.47
7755,D3,1381.0,0.375,32,160.47
7756,B2,1381.0,0.375,32,160.47
7757,F6,1381.5,1.0,53,160.47
7758,F5,1381.5,1.0,53,160.47
7759,B2,1381.5,0.375,32,160.47
7760,D3,1381.5,0.375,32,160.47
7761,B2,1382.0,0.375,32,160.47
7762,D3,1382.0,0.375,32,160.47
7763,E6,1382.5,1.0,50,160.47
7764,E5,1382.5,1.0,50,160.47
7765,D3,1382.5,0.375,32,160.47
7766,B2,1382.5,0.375,32,160.47
7767,B2,1383.0,0.375,32,160.47
7768,D3,1383.0,0.375,32,160.47
7769,D6,1383.5,1.0,49,160.47
7770,D5,1383.5,1.0,49,160.47
7771,B2,1383.5,0.375,32,160.47
7772,D3,1383.5,0.375,32,160.47
7773,B2,1384.0,0.375,32,160.47
7774,D3,1384.0,0.375,32,160.47
7775,C6,1384.5,1.0,48,160.47
7776,C5,1384.5,1.0,48,160.47
7777,B2,1384.5,0.375,32,160.47
7778,D3,1384.5,0.375,32,160.47
7779,B2,1385.0,0.375,32,160.47
7780,D3,1385.0,0.375,32,160.47
7781,B5,1385.5,1.0,46,160.47
7782,B4,1385.5,1.0,46,160.47
7783,B2,1385.5,0.375,32,160.47
7784,D3,1385.5,0.375,32,160.47
7785,D3,1386.0,0.375,32,160.47
7786,B2,1386.0,0.375,32,160.47
7787,A5,1386.5,1.0,45,160.47
7788,A4,1386.5,1.0,45,160.47
7789,B2,1386.5,0.375,32,160.47
7790,D3,1386.5,0.375,32,160.47
7791,E3,1387.0,0.375,32,160.47
7792,C#3,1387.0,0.375,32,160.47
7793,G5,1387.5,0.5,43,160.47
7794,G4,1387.5,0.5,43,160.47
7795,C#3,1387.5,0.375,32,160.47
7796,E3,1387.5,0.375,32,160.47
7797,F3,1388.0,1.5,42,160.47
7798,D3,1388.0,2.5,42,160.47
7799,F4,1388.0,0.25,42,160.47
7800,F5,1388.0,0.25,42,160.47
7801,D4,1388.25,0.25,37,160.47
7802,E4,1388.5,0.25,39,160.47
7803,F4,1388.75,0.25,40,160.47
7804,G4,1389.0,0.25,42,160.47
7805,A4,1389.25,0.25,44,160.47
7806,B4,1389.5,0.25,45,160.47
7807,A3,1389.5,0.25,40,160.47
7808,C#5,1389.75,0.25,47,160.47
7809,G3,1389.75,0.25,40,160.47
7810,D5,1390.0,0.25,48,160.47
7811,F3,1390.0,0.5,45,160.47
7812,F4,1390.25,0.25,42,160.47
7813,G4,1390.5,0.25,43,160.47
7814,A4,1390.75,0.25,45,160.47
7815,B4,1391.0,0.25,46,160.47
7816,C#5,1391.25,0.25,48,160.47
7817,D5,1391.5,0.25,49,160.47
7818,E5,1391.75,0.25,50,160.47
7819,F5,1392.0,0.25,52,160.47
7820,A4,1392.0,1.25,46,160.47
7821,D5,1392.25,0.25,46,160.47
7822,E5,1392.5,0.25,46,160.47
7823,F5,1392.75,0.25,47,160.47
7824,G5,1393.0,0.25,48,160.47
7825,A5,1393.25,0.25,49,160.47
7826,G4,1393.25,0.25,40,160.47
7827,B5,1393.5,0.25,50,160.47
7828,F4,1393.5,0.25,40,160.47
7829,C#6,1393.75,0.25,51,160.47
7830,E4,1393.75,0.25,40,160.47
7831,D6,1394.0,0.25,52,160.47
7832,D4,1394.0,0.5,45,160.47
7833,C#6,1394.25,0.25,46,160.47
7834,D6,1394.5,0.25,47,160.47
7835,E6,1394.75,0.25,48,160.47
7836,F6,1395.0,0.25,49,160.47
7837,C#6,1395.25,0.25,51,160.47
7838,D6,1395.5,0.25,52,160.47
7839,E6,1395.75,0.25,53,160.47
7840,F6,1396.0,0.5,49,160.47
7841,A2,1396.0,0.375,32,160.47
7842,C3,1396.0,0.375,32,160.47
7843,F6,1396.5,1.0,54,160.47
7844,F5,1396.5,1.0,54,160.47
7845,A2,1396.5,0.375,32,160.47
7846,C3,1396.5,0.375,32,160.47
7847,C3,1397.0,0.375,32,160.47
7848,A2,1397.0,0.375,32,160.47
7849,E6,1397.5,1.0,53,160.47
7850,E5,1397.5,1.0,53,160.47
7851,A2,1397.5,0.375,32,160.47
7852,C3,1397.5,0.375,32,160.47
7853,A2,1398.0,0.375,32,160.47
7854,C3,1398.0,0.375,32,160.47
7855,D6,1398.5,1.0,50,160.47
7856,D5,1398.5,1.0,50,160.47
7857,C3,1398.5,0.375,32,160.47
7858,A2,1398.5,0.375,32,160.47
7859,A2,1399.0,0.375,32,160.47
7860,C3,1399.0,0.375,32,160.47
7861,C6,1399.5,1.0,49,160.47
7862,C5,1399.5,1.0,49,160.47
7863,A2,1399.5,0.375,32,160.47
7864,C3,1399.5,0.375,32,160.47
7865,C3,1400.0,0.375,32,160.47
7866,A2,1400.0,0.375,32,160.47
7867,B5,1400.5,1.0,48,160.47
7868,B4,1400.5,1.0,48,160.47
7869,A2,1400.5,0.375,32,160.47
7870,C3,1400.5,0.375,32,160.47
7871,A2,1401.0,0.375,32,160.47
7872,C3,1401.0,0.375,32,160.47
7873,A5,1401.5,1.0,46,160.47
7874,A4,1401.5,1.0,46,160.47
7875,C3,1401.5,0.375,32,160.47
7876,A2,1401.5,0.375,32,160.47
7877,A2,1402.0,0.375,32,160.47
7878,C3,1402.0,0.375,32,160.47
7879,G5,1402.5,1.0,45,160.47
7880,G4,1402.5,1.0,45,160.47
7881,C3,1402.5,0.375,32,160.47
7882,A2,1402.5,0.375,32,160.47
7883,B2,1403.0,0.375,32,160.47
7884,D3,1403.0,0.375,32,160.47
7885,F5,1403.5,0.5,43,160.47
7886,F4,1403.5,0.5,43,160.47
7887,B2,1403.5,0.375,32,160.47
7888,D3,1403.5,0.375,32,160.47
7889,E3,1404.0,1.5,42,160.47
7890,C3,1404.0,2.5,42,160.47
7891,E4,1404.0,0.25,42,160.47
7892,E5,1404.0,0.25,42,160.47
7893,E4,1404.25,0.25,37,160.47
7894,F4,1404.5,0.25,39,160.47
7895,G4,1404.75,0.25,40,160.47
7896,A4,1405.0,0.25,42,160.47
7897,B4,1405.25,0.25,44,160.47
7898,C5,1405.5,0.25,45,160.47
7899,G3,1405.5,0.25,40,160.47
7900,D5,1405.75,0.25,47,160.47
7901,F3,1405.75,0.25,40,160.47
7902,E5,1406.0,0.25,48,160.47
7903,E3,1406.0,0.5,45,160.47
7904,A4,1406.25,0.25,42,160.47
7905,B4,1406.5,0.25,43,160.47
7906,C5,1406.75,0.25,45,160.47
7907,D5,1407.0,0.25,46,160.47
7908,E5,1407.25,0.25,48,160.47
7909,F#5,1407.5,0.25,49,160.47
7910,G#5,1407.75,0.25,50,160.47
7911,C3,1407.875,0.125,36,160.47
7912,A5,1408.0,0.25,52,160.47
7913,E4,1408.0,1.25,46,160.47
7914,E5,1408.25,0.25,46,160.47
7915,F#5,1408.5,0.25,46,160.47
7916,G#5,1408.75,0.25,47,160.47
7917,A5,1409.0,0.25,48,160.47
7918,B5,1409.25,0.25,49,160.47
7919,D4,1409.25,0.25,40,160.47
7920,C6,1409.5,0.25,50,160.47
7921,C4,1409.5,0.25,40,160.47
7922,D6,1409.75,0.25,51,160.47
7923,B3,1409.75,0.25,40,160.47
7924,E6,1410.0,0.25,52,160.47
7925,A3,1410.0,0.5,45,160.47
7926,D6,1410.25,0.25,46,160.47
7927,C6,1410.5,0.25,47,160.47
7928,B5,1410.75,0.25,48,160.47
7929,A5,1411.0,0.25,49,160.47
7930,B5,1411.25,0.25,51,160.47
7931,C6,1411.5,0.25,52,160.47
7932,A5,1411.75,0.25,53,160.47
7933,F3,1412.0,1.5,44,160.47
7934,D3,1412.0,2.5,44,160.47
7935,F4,1412.25,0.25,38,160.47
7936,G4,1412.5,0.25,41,160.47
7937,A4,1412.75,0.25,42,160.47
7938,B4,1413.0,0.25,44,160.47
7939,C5,1413.25,0.25,47,160.47
7940,D5,1413.5,0.25,48,160.47
7941,A3,1413.5,0.25,43,160.47
7942,E5,1413.75,0.25,50,160.47
7943,G3,1413.75,0.25,43,160.47
7944,F5,1414.0,0.25,52,160.47
7945,F3,1414.0,0.5,49,160.47
7946,B4,1414.25,0.25,45,160.47
7947,C5,1414.5,0.25,47,160.47
7948,D5,1414.75,0.25,49,160.47
7949,E5,1415.0,0.25,51,160.47
7950,F5,1415.25,0.25,53,160.47
7951,G5,1415.5,0.25,54,160.47
7952,A5,1415.75,0.25,56,160.47
7953,D3,1415.875,0.125,35,160.47
7954,B5,1416.0,0.25,58,160.47
7955,F4,1416.0,1.25,55,160.47
7956,F5,1416.25,0.25,51,160.47
7957,G5,1416.5,0.25,52,160.47
7958,A5,1416.75,0.25,53,160.47
7959,B5,1417.0,0.25,55,160.47
7960,C6,1417.25,0.25,56,160.47
7961,E4,1417.25,0.25,46,160.47
7962,D6,1417.5,0.25,58,160.47
7963,D4,1417.5,0.25,46,160.47
7964,E6,1417.75,0.25,59,160.47
7965,C4,1417.75,0.25,46,160.47
7966,F6,1418.0,0.25,60,160.47
7967,B3,1418.0,1.0,52,160.47
7968,E6,1418.25,0.25,54,160.47
7969,D6,1418.5,0.25,55,160.47
7970,C6,1418.75,0.25,57,160.47
7971,B5,1419.0,0.25,58,160.47
7972,C6,1419.25,0.25,61,160.47
7973,D6,1419.5,0.25,62,160.47
7974,B5,1419.75,0.25,64,160.47
7975,E3,1419.875,0.125,40,160.47
7976,G4,1420.0,1.25,64,160.47
7977,G5,1420.25,0.25,56,160.47
7978,A5,1420.5,0.25,56,160.47
7979,B5,1420.75,0.25,57,160.47
7980,C6,1421.0,0.25,59,160.47
7981,D6,1421.25,0.25,60,160.47
7982,F4,1421.25,0.25,52,160.47
7983,E6,1421.5,0.25,62,160.47
7984,E4,1421.5,0.25,51,160.47
7985,F6,1421.75,0.25,63,160.47
7986,D4,1421.75,0.25,51,160.47
7987,G6,1422.0,0.25,65,160.47
7988,C#4,1422.0,1.0,56,160.47
7989,F6,1422.25,0.25,57,160.47
7990,E6,1422.5,0.25,59,160.47
7991,D6,1422.75,0.25,60,160.47
7992,C#6,1423.0,0.25,62,160.47
7993,D6,1423.25,0.25,65,160.47
7994,E6,1423.5,0.25,66,160.47
7995,C#6,1423.75,0.25,68,160.47
7996,F3,1423.875,0.125,46,160.47
7997,A4,1424.0,1.0,73,160.47
7998,C#5,1424.25,0.25,59,160.47
7999,D5,1424.5,0.25,59,160.47
8000,E5,1424.75,0.25,61,160.47
8001,F5,1425.0,0.25,63,160.47
8002,G4,1425.0,0.25,60,160.47
8003,G5,1425.25,0.25,64,160.47
8004,F4,1425.25,0.25,60,160.47
8005,A5,1425.5,0.25,66,160.47
8006,E4,1425.5,0.25,60,160.47
8007,F5,1425.75,0.5,67,160.47
8008,D4,1425.75,0.125,59,160.47
8009,G3,1425.875,0.125,47,160.47
8010,B4,1426.0,1.0,75,160.47
8011,E-5,1426.25,0.25,61,160.47
8012,E5,1426.5,0.25,61,160.47
8013,F5,1426.75,0.25,64,160.47
8014,G5,1427.0,0.25,65,160.47
8015,A4,1427.0,0.25,62,160.47
8016,A5,1427.25,0.25,66,160.47
8017,G4,1427.25,0.25,62,160.47
8018,B5,1427.5,0.25,69,160.47
8019,F4,1427.5,0.25,63,160.47
8020,G5,1427.75,0.5,70,160.47
8021,E4,1427.75,0.125,62,160.47
8022,A3,1427.875,0.125,50,160.47
8023,C5,1428.0,1.0,78,160.47
8024,E5,1428.25,0.25,63,160.47
8025,F5,1428.5,0.25,64,160.47
8026,G5,1428.75,0.25,66,160.47
8027,A5,1429.0,0.25,68,160.47
8028,B4,1429.0,0.25,64,160.47
8029,B5,1429.25,0.25,69,160.47
8030,A4,1429.25,0.25,64,160.47
8031,C6,1429.5,0.25,72,160.47
8032,G4,1429.5,0.25,65,160.47
8033,A5,1429.75,0.5,73,160.47
8034,F4,1429.75,0.125,64,160.47
8035,B3,1429.875,0.125,54,160.47
8036,D5,1430.0,1.0,81,160.47
8037,F#5,1430.25,0.25,66,160.47
8038,G5,1430.5,0.25,66,160.47
8039,A5,1430.75,0.25,68,160.47
8040,B5,1431.0,0.25,70,160.47
8041,C5,1431.0,0.25,67,160.47
8042,C6,1431.25,0.25,71,160.47
8043,B4,1431.25,0.25,67,160.47
8044,D6,1431.5,0.25,74,160.47
8045,A4,1431.5,0.25,67,160.47
8046,B5,1431.75,0.5,75,160.47
8047,G4,1431.75,0.125,66,160.47
8048,C4,1431.875,0.125,56,160.47
8049,E5,1432.0,1.0,84,160.47
8050,G#5,1432.25,0.25,69,160.47
8051,A5,1432.5,0.25,69,160.47
8052,B5,1432.75,0.25,71,160.47
8053,C6,1433.0,0.25,73,160.47
8054,D5,1433.0,0.25,69,160.47
8055,D6,1433.25,0.25,74,160.47
8056,C5,1433.25,0.25,70,160.47
8057,E6,1433.5,0.25,77,160.47
8058,B4,1433.5,0.25,70,160.47
8059,C6,1433.75,0.5,79,160.47
8060,A4,1433.75,0.125,69,160.47
8061,D4,1433.875,0.125,58,160.47
8062,F5,1434.0,1.0,87,160.47
8063,B-5,1434.25,0.25,71,160.47
8064,B5,1434.5,0.25,71,160.47
8065,C6,1434.75,0.25,74,160.47
8066,D6,1435.0,0.25,75,160.47
8067,E5,1435.0,0.25,71,160.47
8068,E6,1435.25,0.25,77,160.47
8069,D5,1435.25,0.25,72,160.47
8070,F6,1435.5,0.25,79,160.47
8071,C5,1435.5,0.25,72,160.47
8072,D6,1435.75,0.25,81,160.47
8073,B4,1435.75,0.25,71,160.47
8074,E4,1436.0,0.167,78,160.47
8075,C5,1436.167,0.167,74,160.47
8076,E5,1436.333,0.167,74,160.47
8077,G5,1436.5,0.167,76,160.47
8078,C6,1436.667,0.167,69,160.47
8079,G6,1436.833,0.167,70,160.47
8080,E4,1437.0,0.167,79,160.47
8081,C5,1437.167,0.167,74,160.47
8082,E5,1437.333,0.167,75,160.47
8083,G5,1437.5,0.167,78,160.47
8084,C6,1437.667,0.167,72,160.47
8085,G6,1437.833,0.167,71,160.47
8086,E4,1438.0,0.167,81,160.47
8087,C5,1438.167,0.167,77,160.47
8088,E5,1438.333,0.167,77,160.47
8089,G#5,1438.5,0.167,80,160.47
8090,C6,1438.667,0.167,73,160.47
8091,G#6,1438.833,0.167,74,160.47
8092,E4,1439.0,0.167,81,160.47
8093,C5,1439.167,0.167,78,160.47
8094,E5,1439.333,0.167,79,160.47
8095,G#5,1439.5,0.167,82,160.47
8096,C6,1439.667,0.167,75,160.47
8097,G#6,1439.833,0.167,75,160.47
8098,A5,1440.0,0.25,85,160.47
8099,C5,1440.0,1.0,75,160.47
8100,F5,1440.0,1.0,75,160.47
8101,F4,1440.0,1.0,75,160.47
8102,A6,1440.25,0.25,88,160.47
8103,G6,1440.5,0.25,87,160.47
8104,F6,1440.75,0.25,86,160.47
8105,E6,1441.0,0.25,86,160.47
8106,D6,1441.25,0.25,85,160.47
8107,C6,1441.5,0.25,84,160.47
8108,B5,1441.75,0.25,83,160.47
8109,A5,1442.0,0.25,82,160.47
8110,G5,1442.25,0.25,81,160.47
8111,F5,1442.5,0.25,80,160.47
8112,E5,1442.75,0.25,79,160.47
8113,D5,1443.0,0.25,78,160.47
8114,C5,1443.25,0.25,77,160.47
8115,B4,1443.5,0.25,77,160.47
8116,A4,1443.75,0.25,76,160.47
8117,G#4,1444.0,0.25,75,160.47
8118,A4,1444.25,0.25,78,160.47
8119,G4,1444.5,0.25,77,160.47
8120,F4,1444.75,0.25,77,160.47
8121,E4,1445.0,0.25,77,160.47
8122,F1,1445.0,1.25,75,160.47
8123,D4,1445.25,0.25,77,160.47
8124,C4,1445.5,0.25,76,160.47
8125,B3,1445.75,0.25,76,160.47
8126,A3,1446.0,0.25,76,160.47
8127,G3,1446.25,0.25,75,160.47
8128,G1,1446.25,0.25,68,160.47
8129,F3,1446.5,0.25,75,160.47
8130,A1,1446.5,0.25,69,160.47
8131,E3,1446.75,0.25,75,160.47
8132,B1,1446.75,0.25,70,160.47
8133,D3,1447.0,0.25,75,160.47
8134,C2,1447.0,0.25,71,160.47
8135,C3,1447.25,0.25,74,160.47
8136,D2,1447.25,0.25,73,160.47
8137,B2,1447.5,0.25,74,160.47
8138,E2,1447.5,0.25,74,160.47
8139,A2,1447.75,0.25,74,160.47
8140,F2,1447.75,0.25,75,160.47
8141,G2,1448.0,0.25,75,160.47
8142,G1,1448.0,1.0,67,160.47
8143,C2,1448.0,1.0,67,160.47
8144,E2,1448.0,1.0,67,160.47
8145,C3,1448.25,0.25,75,160.47
8146,B2,1448.5,0.25,47,160.47
8147,D3,1448.75,0.25,47,160.47
8148,C3,1449.0,0.25,47,160.47
8149,E3,1449.25,0.25,48,160.47
8150,E-3,1449.5,0.25,48,160.47
8151,F3,1449.75,0.25,48,160.47
8152,E3,1450.0,0.25,48,160.47
8153,G3,1450.25,0.25,49,160.47
8154,F#3,1450.5,0.25,49,160.47
8155,A3,1450.75,0.25,49,160.47
8156,G3,1451.0,0.25,50,160.47
8157,C4,1451.25,0.25,50,160.47
8158,B3,1451.5,0.25,50,160.47
8159,D4,1451.75,0.25,51,160.47
8160,C4,1452.0,0.25,51,160.47
8161,E4,1452.25,0.25,51,160.47
8162,E-4,1452.5,0.25,52,160.47
8163,F4,1452.75,0.25,52,160.47
8164,E4,1453.0,0.25,52,160.47
8165,G4,1453.25,0.25,53,160.47
8166,F#4,1453.5,0.25,53,160.47
8167,A4,1453.75,0.25,53,160.47
8168,G4,1454.0,0.25,54,160.47
8169,C5,1454.25,0.25,54,160.47
8170,B4,1454.5,0.25,54,160.47
8171,D5,1454.75,0.25,55,160.47
8172,C5,1455.0,0.25,55,160.47
8173,E5,1455.25,0.25,55,160.47
8174,E-5,1455.5,0.25,56,160.47
8175,F5,1455.75,0.25,56,160.47
8176,E5,1456.0,0.25,56,160.47
8177,G5,1456.25,0.25,58,160.47
8178,F#5,1456.5,0.25,60,160.47
8179,A5,1456.75,0.25,62,160.47
8180,G5,1457.0,0.125,70,160.47
8181,C6,1457.25,0.25,62,160.47
8182,E5,1457.25,0.25,52,160.47
8183,B5,1457.5,0.25,62,160.47
8184,E-5,1457.5,0.25,52,160.47
8185,C6,1457.75,0.25,63,160.47
8186,E5,1457.75,0.25,53,160.47
8187,G5,1458.0,0.125,70,160.47
8188,G4,1458.0,0.125,60,160.47
8189,E6,1458.25,0.25,63,160.47
8190,C5,1458.25,0.25,54,160.47
8191,E-6,1458.5,0.25,64,160.47
8192,B4,1458.5,0.25,55,160.47
8193,E6,1458.75,0.25,65,160.47
8194,C5,1458.75,0.25,55,160.47
8195,G5,1459.0,0.125,72,160.47
8196,G4,1459.0,0.125,61,160.47
8197,C6,1459.25,0.25,65,160.47
8198,E5,1459.25,0.25,56,160.47
8199,B5,1459.5,0.25,66,160.47
8200,E-5,1459.5,0.25,56,160.47
8201,C6,1459.75,0.25,66,160.47
8202,E5,1459.75,0.25,56,160.47
8203,G5,1460.0,0.125,74,160.47
8204,G4,1460.0,0.125,63,160.47
8205,E6,1460.25,0.25,67,160.47
8206,C5,1460.25,0.25,57,160.47
8207,E-6,1460.5,0.25,68,160.47
8208,B4,1460.5,0.25,58,160.47
8209,E6,1460.75,0.25,68,160.47
8210,C5,1460.75,0.25,58,160.47
8211,G5,1461.0,0.125,76,160.47
8212,G4,1461.0,0.125,65,160.47
8213,C6,1461.25,0.25,69,160.47
8214,E5,1461.25,0.25,59,160.47
8215,B5,1461.5,0.25,69,160.47
8216,E-5,1461.5,0.25,59,160.47
8217,C6,1461.75,0.25,70,160.47
8218,E5,1461.75,0.25,59,160.47
8219,G5,1462.0,0.125,78,160.47
8220,G4,1462.0,0.125,67,160.47
8221,E6,1462.25,0.25,71,160.47
8222,C5,1462.25,0.25,60,160.47
8223,E-6,1462.5,0.25,71,160.47
8224,B4,1462.5,0.25,60,160.47
8225,E6,1462.75,0.25,71,160.47
8226,C5,1462.75,0.25,61,160.47
8227,G5,1463.0,0.125,80,160.47
8228,G4,1463.0,0.125,69,160.47
8229,C6,1463.25,0.25,72,160.47
8230,E5,1463.25,0.25,62,160.47
8231,B5,1463.5,0.25,73,160.47
8232,E-5,1463.5,0.25,62,160.47
8233,C6,1463.75,0.25,73,160.47
8234,E5,1463.75,0.25,63,160.47
8235,F6,1464.0,2.5,87,160.47
8236,B5,1464.0,2.5,87,160.47
8237,D5,1464.0,4.0,73,160.47
8238,G4,1464.0,4.0,73,160.47
8239,F5,1464.0,4.0,73,160.47
8240,F6,1466.5,0.125,73,160.47
8241,E6,1466.625,0.125,73,160.47
8242,D6,1466.75,0.125,72,160.47
8243,C6,1466.875,0.125,71,160.47
8244,B5,1467.0,0.125,70,160.47
8245,A5,1467.125,0.125,69,160.47
8246,G5,1467.25,0.125,68,160.47
8247,F5,1467.375,0.125,68,160.47
8248,E5,1467.5,0.125,66,160.47
8249,D5,1467.625,0.125,66,160.47
8250,C5,1467.75,0.125,65,160.47
8251,B4,1467.875,0.125,65,160.47
8252,B4,1468.0,3.0,78,160.47
8253,F5,1468.0,3.0,78,160.47
8254,F4,1468.0,4.0,65,160.47
8255,G3,1468.0,4.0,65,160.47
8256,D4,1468.0,4.0,65,160.47
8257,F5,1471.0,0.125,64,160.47
8258,E5,1471.125,0.125,62,160.47
8259,D5,1471.25,0.125,60,160.47
8260,C5,1471.375,0.125,60,160.47
8261,B4,1471.5,0.125,60,160.47
8262,A4,1471.625,0.125,59,160.47
8263,G4,1471.75,0.125,56,160.47
8264,F4,1471.875,0.125,54,160.47
8265,G3,1472.0,2.0,45,160.47
8266,C4,1472.0,2.0,45,160.47
8267,E4,1472.0,2.0,45,160.47
8268,C3,1472.0,2.0,36,160.47
8269,C2,1472.0,2.0,36,160.47
8270,F3,1474.0,1.0,43,160.47
8271,B3,1474.0,1.0,43,160.47
8272,D4,1474.0,1.0,43,160.47
8273,G#2,1474.0,1.0,29,160.47
8274,G#1,1474.0,1.0,29,160.47
8275,E3,1475.0,1.0,43,160.47
8276,A3,1475.0,1.0,43,160.47
8277,C4,1475.0,1.0,43,160.47
8278,A2,1475.0,1.0,32,160.47
8279,A1,1475.0,1.0,32,160.47
8280,E2,1476.0,2.0,39,160.47
8281,D3,1476.0,2.0,45,160.47
8282,G#3,1476.0,2.0,45,160.47
8283,B3,1476.0,2.0,45,160.47
8284,F2,1478.0,2.0,34,160.47
8285,C3,1478.0,2.0,44,160.47
8286,A3,1478.0,2.0,44,160.47
8287,F4,1480.0,2.0,48,160.47
8288,G4,1480.0,2.0,48,160.47
8289,B4,1480.0,2.0,48,160.47
8290,F3,1480.0,2.0,38,160.47
8291,G3,1480.0,2.0,38,160.47
8292,B3,1480.0,2.0,38,160.47
8293,D3,1480.0,2.0,38,160.47
8294,G4,1482.0,1.0,52,160.47
8295,C5,1482.0,1.0,52,160.47
8296,G3,1482.0,1.0,41,160.47
8297,C4,1482.0,1.0,41,160.47
8298,E3,1482.0,1.0,41,160.47
8299,A4,1483.0,1.0,55,160.47
8300,C5,1483.0,1.0,55,160.47
8301,D5,1483.0,1.0,55,160.47
8302,D4,1483.0,1.0,45,160.47
8303,F3,1483.0,1.0,45,160.47
8304,C4,1483.0,1.0,45,160.47
8305,A3,1483.0,1.0,45,160.47
8306,G4,1484.0,3.0,56,160.47
8307,G3,1484.0,4.0,46,160.47
8308,C5,1484.0,2.0,62,160.47
8309,E5,1484.0,2.0,62,160.47
8310,C4,1484.0,2.0,51,160.47
8311,E4,1484.0,2.0,51,160.47
8312,B4,1486.0,2.0,55,160.47
8313,D5,1486.0,2.0,55,160.47
8314,B3,1486.0,2.0,45,160.47
8315,D4,1486.0,2.0,45,160.47
8316,G5,1487.0,0.5,50,160.47
8317,F5,1487.5,0.5,49,160.47
8318,E5,1488.0,2.0,46,160.47
8319,C5,1488.0,2.0,46,160.47
8320,E6,1489.0,1.0,48,160.47
8321,C6,1489.0,1.0,48,160.47
8322,D6,1490.0,1.0,45,160.47
8323,B5,1490.0,1.0,45,160.47
8324,F5,1490.0,1.0,45,160.47
8325,D5,1490.0,1.0,43,160.47
8326,G#4,1490.0,1.0,43,160.47
8327,B4,1490.0,1.0,43,160.47
8328,C6,1491.0,1.0,45,160.47
8329,A5,1491.0,1.0,45,160.47
8330,E5,1491.0,1.0,45,160.47
8331,A4,1491.0,1.0,44,160.47
8332,C5,1491.0,1.0,44,160.47
8333,D5,1492.0,2.0,48,160.47
8334,G#5,1492.0,2.0,48,160.47
8335,B5,1492.0,2.0,48,160.47
8336,E4,1492.0,2.0,45,160.47
8337,G#4,1492.0,2.0,45,160.47
8338,B4,1492.0,2.0,45,160.47
8339,C5,1494.0,2.0,46,160.47
8340,A5,1494.0,2.0,46,160.47
8341,F4,1494.0,2.0,44,160.47
8342,A4,1494.0,2.0,44,160.47
8343,G5,1496.0,2.0,53,160.47
8344,G3,1496.0,4.0,34,160.47
8345,C5,1496.0,1.0,45,160.47
8346,E5,1496.0,1.0,45,160.47
8347,C4,1496.0,1.0,37,160.47
8348,E4,1496.0,1.0,37,160.47
8349,D5,1497.0,3.0,44,160.47
8350,F5,1497.0,3.0,44,160.47
8351,F4,1497.0,3.0,32,160.47
8352,D4,1497.0,3.0,32,160.47
8353,A5,1498.0,1.0,53,160.47
8354,B5,1499.0,1.0,51,160.47
8355,G4,1500.0,4.0,53,160.47
8356,G2,1500.0,8.0,34,160.47
8357,C4,1500.0,1.0,45,160.47
8358,E4,1500.0,1.0,45,160.47
8359,E3,1500.0,1.0,37,160.47
8360,C3,1500.0,1.0,37,160.47
8361,D4,1501.0,7.0,44,160.47
8362,F4,1501.0,7.0,44,160.47
8363,D3,1501.0,7.0,32,160.47
8364,F3,1501.0,7.0,32,160.47
8365,G#4,1504.0,2.0,56,160.47
8366,B4,1506.0,2.0,46,160.47
8367,G3,1508.0,4.0,53,160.47
8368,G1,1508.0,8.0,34,160.47
8369,C3,1508.0,1.0,45,160.47
8370,E3,1508.0,1.0,45,160.47
8371,C2,1508.0,1.0,37,160.47
8372,E2,1508.0,1.0,37,160.47
8373,D3,1509.0,7.0,44,160.47
8374,F3,1509.0,7.0,44,160.47
8375,D2,1509.0,7.0,32,160.47
8376,F2,1509.0,7.0,32,160.47
8377,A3,1512.0,2.0,56,160.47
8378,B3,1514.0,2.0,46,160.47
8379,E3,1516.0,0.25,28,160.47
8380,C4,1516.0,0.5,40,160.47
8381,C3,1516.0,0.25,25,160.47
8382,C2,1516.0,0.25,25,160.47
8383,C4,1516.5,0.25,30,160.47
8384,E4,1516.5,0.25,30,160.47
8385,G3,1516.5,0.25,24,160.47
8386,C3,1516.5,0.25,24,160.47
8387,C4,1517.0,0.25,30,160.47
8388,E4,1517.0,0.25,30,160.47
8389,G3,1517.0,0.25,24,160.47
8390,C3,1517.0,0.25,24,160.47
8391,C4,1517.5,0.25,31,160.47
8392,E4,1517.5,0.25,31,160.47
8393,G3,1517.5,0.25,24,160.47
8394,C3,1517.5,0.25,24,160.47
8395,C4,1518.0,0.25,31,160.47
8396,E4,1518.0,0.25,31,160.47
8397,C3,1518.0,0.25,24,160.47
8398,G3,1518.0,0.25,24,160.47
8399,C4,1518.5,0.25,31,160.47
8400,E4,1518.5,0.25,31,160.47
8401,G3,1518.5,0.25,26,160.47
8402,C3,1518.5,0.25,26,160.47
8403,C4,1519.0,0.25,32,160.47
8404,E4,1519.0,0.25,32,160.47
8405,G3,1519.0,0.25,26,160.47
8406,C3,1519.0,0.25,26,160.47
8407,C4,1519.5,0.25,32,160.47
8408,E4,1519.5,0.25,32,160.47
8409,G3,1519.5,0.25,26,160.47
8410,C3,1519.5,0.25,26,160.47
8411,C4,1520.0,0.25,33,160.47
8412,E4,1520.0,0.25,33,160.47
8413,C3,1520.0,0.25,28,160.47
8414,G3,1520.0,0.25,28,160.47
8415,C4,1520.5,0.25,33,160.47
8416,E4,1520.5,0.25,33,160.47
8417,C3,1520.5,0.25,24,160.47
8418,G3,1520.5,0.25,24,160.47
8419,C4,1521.0,0.25,34,160.47
8420,E4,1521.0,0.25,34,160.47
8421,C3,1521.0,0.25,26,160.47
8422,G3,1521.0,0.25,26,160.47
8423,C4,1521.5,0.25,35,160.47
8424,E4,1521.5,0.25,35,160.47
8425,G3,1521.5,0.25,26,160.47
8426,C3,1521.5,0.25,26,160.47
8427,C4,1522.0,0.25,36,160.47
8428,E4,1522.0,0.25,36,160.47
8429,G3,1522.0,0.25,28,160.47
8430,C3,1522.0,0.25,28,160.47
8431,C4,1522.5,0.25,37,160.47
8432,E4,1522.5,0.25,37,160.47
8433,C3,1522.5,0.25,28,160.47
8434,G3,1522.5,0.25,28,160.47
8435,D4,1523.0,0.25,37,160.47
8436,F#4,1523.0,0.25,37,160.47
8437,A3,1523.0,0.25,28,160.47
8438,C3,1523.0,0.25,28,160.47
8439,D4,1523.5,0.25,37,160.47
8440,F#4,1523.5,0.25,37,160.47
8441,C3,1523.5,0.25,28,160.47
8442,A3,1523.5,0.25,28,160.47
8443,G4,1524.0,0.5,52,160.47
8444,B2,1524.0,0.375,30,160.47
8445,D3,1524.0,0.375,30,160.47
8446,G3,1524.0,0.375,30,160.47
8447,B4,1524.5,0.25,46,160.47
8448,G3,1524.5,0.375,30,160.47
8449,B2,1524.5,0.375,30,160.47
8450,D3,1524.5,0.375,30,160.47
8451,A4,1524.75,0.25,46,160.47
8452,G4,1525.0,0.25,52,160.47
8453,B2,1525.0,0.375,30,160.47
8454,D3,1525.0,0.375,30,160.47
8455,G3,1525.0,0.375,30,160.47
8456,B2,1525.5,0.375,30,160.47
8457,D3,1525.5,0.375,30,160.47
8458,G3,1525.5,0.375,30,160.47
8459,C5,1526.0,0.5,65,160.47
8460,B-2,1526.0,0.375,37,160.47
8461,C3,1526.0,0.375,37,160.47
8462,G3,1526.0,0.375,37,160.47
8463,E5,1526.5,0.25,58,160.47
8464,G3,1526.5,0.375,37,160.47
8465,B-2,1526.5,0.375,37,160.47
8466,C3,1526.5,0.375,37,160.47
8467,D5,1526.75,0.25,58,160.47
8468,C5,1527.0,0.25,64,160.47
8469,G3,1527.0,0.375,37,160.47
8470,C3,1527.0,0.375,37,160.47
8471,B-2,1527.0,0.375,37,160.47
8472,G3,1527.5,0.375,38,160.47
8473,B-2,1527.5,0.375,38,160.47
8474,C3,1527.5,0.375,38,160.47
8475,F5,1528.0,0.5,75,160.47
8476,A2,1528.0,0.375,41,160.47
8477,C3,1528.0,0.375,41,160.47
8478,F3,1528.0,0.375,41,160.47
8479,A5,1528.5,0.25,65,160.47
8480,A2,1528.5,0.375,41,160.47
8481,C3,1528.5,0.375,41,160.47
8482,F3,1528.5,0.375,41,160.47
8483,G5,1528.75,0.25,65,160.47
8484,F5,1529.0,0.25,73,160.47
8485,A2,1529.0,0.375,42,160.47
8486,C3,1529.0,0.375,42,160.47
8487,F3,1529.0,0.375,42,160.47
8488,A2,1529.5,0.375,42,160.47
8489,F3,1529.5,0.375,42,160.47
8490,C3,1529.5,0.375,42,160.47
8491,F6,1530.0,0.25,87,160.47
8492,G#2,1530.0,0.375,62,160.47
8493,C3,1530.0,0.375,62,160.47
8494,F3,1530.0,0.375,62,160.47
8495,E6,1530.25,0.25,79,160.47
8496,F6,1530.5,0.25,79,160.47
8497,G#1,1530.5,0.375,55,160.47
8498,G#2,1530.5,0.375,55,160.47
8499,E6,1530.75,0.25,79,160.47
8500,F6,1531.0,0.25,79,160.47
8501,G#1,1531.0,0.375,55,160.47
8502,G#2,1531.0,0.375,55,160.47
8503,E6,1531.25,0.25,79,160.47
8504,F6,1531.5,0.25,79,160.47
8505,G#1,1531.5,0.375,55,160.47
8506,G#2,1531.5,0.375,55,160.47
8507,E6,1531.75,0.25,79,160.47
8508,F6,1532.0,0.25,78,160.47
8509,G2,1532.0,0.25,56,160.47
8510,G1,1532.0,0.25,56,160.47
8511,E6,1532.25,0.25,78,160.47
8512,A1,1532.25,0.25,57,160.47
8513,D6,1532.5,0.25,79,160.47
8514,B1,1532.5,0.25,57,160.47
8515,C6,1532.75,0.25,80,160.47
8516,C2,1532.75,0.25,58,160.47
8517,B5,1533.0,0.25,81,160.47
8518,D2,1533.0,0.25,59,160.47
8519,A5,1533.25,0.25,82,160.47
8520,E2,1533.25,0.25,59,160.47
8521,G5,1533.5,0.25,83,160.47
8522,F2,1533.5,0.25,60,160.47
8523,F5,1533.75,0.25,84,160.47
8524,G2,1533.75,0.25,62,160.47
8525,E5,1534.0,0.25,85,160.47
8526,A2,1534.0,0.25,62,160.47
8527,D5,1534.25,0.25,86,160.47
8528,B2,1534.25,0.25,63,160.47
8529,C5,1534.5,0.25,88,160.47
8530,C3,1534.5,0.25,63,160.47
8531,B4,1534.75,0.25,89,160.47
8532,D3,1534.75,0.25,64,160.47
8533,A4,1535.0,0.25,90,160.47
8534,E3,1535.0,0.25,65,160.47
8535,G4,1535.25,0.25,92,160.47
8536,F3,1535.25,0.25,66,160.47
8537,F4,1535.5,0.25,92,160.47
8538,G3,1535.5,0.25,67,160.47
8539,E4,1535.75,0.25,93,160.47
8540,A3,1535.75,0.25,68,160.47
8541,D4,1536.0,0.5,100,160.47
8542,F3,1536.0,0.5,72,160.47
8543,F2,1536.0,0.5,72,160.47
8544,G4,1537.0,0.5,92,160.47
8545,B4,1537.0,0.5,92,160.47
8546,D5,1537.0,0.5,92,160.47
8547,G5,1537.0,0.5,92,160.47
8548,G2,1537.0,0.5,72,160.47
8549,B2,1537.0,0.5,72,160.47
8550,D3,1537.0,0.5,72,160.47
8551,G3,1537.0,0.5,72,160.47
8552,E4,1540.0,0.5,98,160.47
8553,G4,1540.0,0.5,98,160.47
8554,C5,1540.0,0.5,98,160.47
8555,E5,1540.0,0.5,98,160.47
8556,C4,1540.0,0.5,72,160.47
8557,G3,1540.0,0.5,72,160.47
8558,C3,1540.0,0.5,72,160.47
8559,E3,1540.0,0.5,72,160.47
8560,G4,1542.0,0.5,98,160.47
8561,B4,1542.0,0.5,98,160.47
8562,D5,1542.0,0.5,98,160.47
8563,G5,1542.0,0.5,98,160.47
8564,B2,1542.0,0.5,72,160.47
8565,G2,1542.0,0.5,72,160.47
8566,D3,1542.0,0.5,72,160.47
8567,G3,1542.0,0.5,72,160.47
8568,C6,1544.0,0.5,98,160.47
8569,G5,1544.0,0.5,98,160.47
8570,E5,1544.0,0.5,98,160.47
8571,C5,1544.0,0.5,98,160.47
8572,C2,1544.0,0.5,71,160.47
8573,E2,1544.0,0.5,71,160.47
8574,G2,1544.0,0.5,71,160.47
8575,C3,1544.0,0.5,71,160.47
,note_name,start_time,duration,velocity,tempo
0,F1,0.0,1.5,32,20.0
1,F2,0.0,1.5,32,20.0
2,C3,0.5,0.375,41,20.0
3,C3,0.875,0.125,41,20.0
4,A3,1.0,0.5,47,20.0
5,F1,1.5,1.5,32,20.0
6,F2,1.5,1.5,32,20.0
7,A3,2.0,0.375,40,20.0
8,A3,2.375,0.125,40,20.0
9,E-4,2.5,0.5,46,20.0
10,G#3,3.5,0.475,36,20.0
11,E4,3.5,0.475,36,20.0
12,E2,3.5,0.475,28,20.0
13,E3,3.5,0.475,28,20.0
14,B3,4.0,0.475,28,20.0
15,G#3,4.0,0.475,28,20.0
16,E4,4.0,0.475,28,20.0
17,E2,4.0,0.475,23,20.0
18,E3,4.0,0.475,23,20.0
19,G#3,4.5,1.0,27,20.0
20,B3,4.5,1.0,27,20.0
21,E4,4.5,1.0,27,20.0
22,E2,4.5,1.0,22,20.0
23,E3,4.5,1.0,22,20.0
24,E2,6.0,1.5,34,20.0
25,E3,6.0,1.5,34,20.0
26,B3,6.5,0.375,41,20.0
27,B3,6.875,0.125,41,20.0
28,G4,7.0,0.5,47,20.0
29,E2,7.5,1.5,34,20.0
30,E3,7.5,1.5,34,20.0
31,C#4,8.0,0.375,40,20.0
32,C#4,8.375,0.125,40,20.0
33,B-4,8.5,0.5,46,20.0
34,F#4,9.5,0.475,35,20.0
35,B3,9.5,0.475,35,20.0
36,B4,9.5,0.475,35,20.0
37,B2,9.5,0.475,28,20.0
38,E-2,9.5,0.475,28,20.0
39,E-3,9.5,0.475,28,20.0
40,F#4,10.0,0.475,30,20.0
41,B3,10.0,0.475,30,20.0
42,B4,10.0,0.475,30,20.0
43,B2,10.0,0.475,24,20.0
44,E-2,10.0,0.475,24,20.0
45,E-3,10.0,0.475,24,20.0
46,B3,10.5,1.0,27,20.0
47,F#4,10.5,1.0,27,20.0
48,B4,10.5,1.0,27,20.0
49,B2,10.5,1.0,21,20.0
50,E-2,10.5,1.0,21,20.0
51,E-3,10.5,1.0,21,20.0
52,D2,12.0,1.5,42,20.0
53,D3,12.0,1.5,42,20.0
54,F4,12.5,0.375,46,20.0
55,F4,12.875,0.125,54,20.0
56,B4,13.0,0.5,60,20.0
57,C#2,13.5,1.5,46,20.0
58,C#3,13.5,1.5,46,20.0
59,B4,14.0,0.375,60,20.0
60,B4,14.375,0.125,60,20.0
61,F5,14.5,1.0,70,20.0
62,C2,15.0,0.475,48,20.0
63,C3,15.0,0.475,48,20.0
64,E5,15.5,0.5,65,20.0
65,C2,15.5,0.475,48,20.0
66,C3,15.5,0.475,48,20.0
67,G5,16.0,0.5,68,20.0
68,C2,16.0,0.475,48,20.0
69,C3,16.0,0.475,48,20.0
70,E4,16.5,1.0,36,20.0
71,B-4,16.5,1.0,36,20.0
72,C2,16.5,1.0,34,20.0
73,C3,16.5,1.0,34,20.0
74,F4,18.5,0.475,38,20.0
75,A4,18.5,0.475,38,20.0
76,D2,18.5,0.475,31,20.0
77,D3,18.5,0.475,31,20.0
78,A4,19.0,0.475,44,20.0
79,F5,19.0,0.475,44,20.0
80,D2,19.0,0.475,38,20.0
81,D3,19.0,0.475,38,20.0
82,F4,19.5,1.0,33,20.0
83,A4,19.5,1.0,33,20.0
84,D2,19.5,1.0,26,20.0
85,D3,19.5,1.0,26,20.0
86,B-1,21.0,0.5,42,20.0
87,B-2,21.0,0.5,42,20.0
88,B-3,21.5,0.5,38,20.0
89,D4,21.5,0.5,38,20.0
90,G4,21.5,0.5,38,20.0
91,C2,22.5,0.5,38,20.0
92,C3,22.5,0.5,38,20.0
93,G3,23.0,0.5,36,20.0
94,B-3,23.0,0.5,36,20.0
95,E4,23.0,0.5,36,20.0
96,F1,24.0,0.475,35,20.0
97,F2,24.0,0.475,35,20.0
98,A3,24.5,0.475,29,20.0
99,C4,24.5,0.475,29,20.0
100,F4,24.5,0.475,29,20.0
101,F1,24.5,0.475,25,20.0
102,F2,24.5,0.475,25,20.0
103,A3,25.0,0.475,29,20.0
104,C4,25.0,0.475,29,20.0
105,A4,25.0,0.475,29,20.0
106,F1,25.0,0.475,25,20.0
107,F2,25.0,0.475,25,20.0
108,A3,25.5,1.0,29,20.0
109,C4,25.5,1.0,29,20.0
110,F4,25.5,1.0,29,20.0
111,F1,25.5,1.0,25,20.0
112,F2,25.5,1.0,25,20.0
113,C3,26.5,0.375,53,20.0
114,C3,26.875,1.0,53,20.0
115,C3,26.875,1.0,53,20.0
116,A3,27.0,0.75,61,20.0
117,F2,27.0,0.75,45,20.0
118,C3,27.0,0.75,45,20.0
119,G3,27.75,0.229,58,20.0
120,E2,27.75,0.229,44,20.0
121,C3,27.75,0.229,44,20.0
122,A3,28.0,0.229,61,20.0
123,F2,28.0,0.229,46,20.0
124,C3,28.0,0.229,46,20.0
125,B-3,28.25,0.229,64,20.0
126,G2,28.25,0.229,49,20.0
127,C3,28.25,0.229,49,20.0
128,B3,28.5,0.25,68,20.0
129,G#2,28.5,0.25,53,20.0
130,C3,28.5,0.25,53,20.0
131,C4,28.75,0.5,73,20.0
132,A2,28.75,0.5,55,20.0
133,C3,28.75,0.5,55,20.0
134,D4,29.25,0.5,71,20.0
135,B-2,29.25,0.5,56,20.0
136,C3,29.25,0.5,56,20.0
137,B-3,29.75,0.125,48,20.0
138,G2,29.75,0.125,40,20.0
139,C3,29.75,0.25,40,20.0
140,A3,29.875,0.125,43,20.0
141,F2,29.875,0.125,35,20.0
142,G3,30.0,0.25,45,20.0
143,E2,30.0,0.75,40,20.0
144,C3,30.0,0.75,40,20.0
145,F#4,30.25,0.229,48,20.0
146,G4,30.5,0.229,48,20.0
147,A4,30.75,0.229,49,20.0
148,F#3,30.75,0.229,32,20.0
149,C4,30.75,0.229,32,20.0
150,B-4,31.0,0.229,53,20.0
151,G3,31.0,0.229,35,20.0
152,C4,31.0,0.229,35,20.0
153,F#5,31.25,0.229,54,20.0
154,A3,31.25,0.229,37,20.0
155,C4,31.25,0.229,37,20.0
156,G5,31.5,0.229,55,20.0
157,B-3,31.5,0.229,51,20.0
158,C4,31.5,0.229,51,20.0
159,A5,31.75,0.229,56,20.0
160,F#2,31.75,0.229,51,20.0
161,B-5,32.0,0.229,57,20.0
162,G2,32.0,0.229,55,20.0
163,A2,32.25,0.229,51,20.0
164,C3,32.5,0.375,57,20.0
165,B-2,32.5,0.229,57,20.0
166,G2,32.75,0.229,50,20.0
167,C3,32.875,1.0,55,20.0
168,C3,32.875,1.0,55,20.0
169,B-3,33.0,0.75,69,20.0
170,E2,33.0,0.25,41,20.0
171,G2,33.25,0.5,43,20.0
172,C3,33.25,0.5,43,20.0
173,A3,33.75,0.229,63,20.0
174,F#2,33.75,0.229,47,20.0
175,C3,33.75,0.229,47,20.0
176,B-3,34.0,0.229,66,20.0
177,G2,34.0,0.229,50,20.0
178,C3,34.0,0.229,50,20.0
179,C4,34.25,0.229,68,20.0
180,A2,34.25,0.229,54,20.0
181,C3,34.25,0.229,54,20.0
182,C#4,34.5,0.25,71,20.0
183,B-2,34.5,0.25,52,20.0
184,C3,34.5,0.75,63,20.0
185,D4,34.75,0.5,69,20.0
186,B-2,34.75,0.5,55,20.0
187,C4,35.25,0.5,74,20.0
188,E2,35.25,0.5,54,20.0
189,C3,35.25,0.5,54,20.0
190,G3,35.25,0.5,54,20.0
191,D4,35.75,0.125,55,20.0
192,C2,35.75,0.25,30,20.0
193,C3,35.75,0.25,30,20.0
194,E3,35.75,0.25,30,20.0
195,B-3,35.875,0.125,50,20.0
196,F3,36.0,0.25,44,20.0
197,A3,36.0,0.25,44,20.0
198,F2,36.0,0.75,34,20.0
199,C3,36.0,0.75,34,20.0
200,G#4,36.25,0.229,48,20.0
201,A4,36.5,0.229,48,20.0
202,B4,36.75,0.229,49,20.0
203,G#3,36.75,0.229,35,20.0
204,C5,37.0,0.229,49,20.0
205,A3,37.0,0.229,38,20.0
206,G#5,37.25,0.229,54,20.0
207,B3,37.25,0.229,40,20.0
208,A5,37.5,0.229,55,20.0
209,C4,37.5,0.229,47,20.0
210,B5,37.75,0.229,56,20.0
211,G#2,37.75,0.229,41,20.0
212,C6,38.0,0.229,57,20.0
213,A2,38.0,0.229,50,20.0
214,B2,38.25,0.229,51,20.0
215,C5,38.5,0.375,61,20.0
216,C3,38.5,0.229,56,20.0
217,B-2,38.75,0.229,51,20.0
218,C5,38.875,0.125,61,20.0
219,F4,39.0,1.0,68,20.0
220,A2,39.0,0.5,56,20.0
221,F5,39.5,0.375,68,20.0
222,C4,39.5,0.5,50,20.0
223,A3,39.5,0.5,50,20.0
224,F5,39.875,0.125,59,20.0
225,G4,40.0,1.0,58,20.0
226,E5,40.0,0.5,69,20.0
227,C4,40.0,1.0,60,20.0
228,B-3,40.0,0.5,51,20.0
229,G5,40.5,0.5,66,20.0
230,E3,40.5,0.5,46,20.0
231,E4,41.0,0.5,53,20.0
232,B-4,41.0,0.358,63,20.0
233,C3,41.0,0.5,50,20.0
234,G3,41.0,0.5,50,20.0
235,B-4,41.375,-0.01,58,20.0
236,B-4,41.375,-0.01,58,20.0
237,F4,41.5,0.5,43,20.0
238,A4,41.5,0.125,52,20.0
239,F3,41.5,0.5,49,20.0
240,A3,41.5,0.5,49,20.0
241,G#4,41.625,0.125,51,20.0
242,A4,41.75,0.125,51,20.0
243,C5,41.875,0.125,47,20.0
244,F4,42.0,1.0,52,20.0
245,F5,42.5,0.375,62,20.0
246,C4,42.5,0.5,50,20.0
247,A3,42.5,0.5,50,20.0
248,F5,42.875,0.125,54,20.0
249,G4,43.0,1.0,58,20.0
250,E5,43.0,0.5,69,20.0
251,C4,43.0,1.0,60,20.0
252,B-3,43.0,0.5,51,20.0
253,G5,43.5,0.5,60,20.0
254,E3,43.5,0.5,46,20.0
255,E4,44.0,0.5,49,20.0
256,B-4,44.0,0.375,58,20.0
257,C3,44.0,0.5,50,20.0
258,G3,44.0,0.5,50,20.0
259,B-4,44.375,0.125,49,20.0
260,F4,44.5,0.5,54,20.0
261,A4,44.5,0.5,54,20.0
262,D3,44.5,0.5,49,20.0
263,F3,44.5,0.5,49,20.0
264,B-1,45.0,0.5,42,20.0
265,B-2,45.0,0.5,42,20.0
266,B-3,45.5,0.5,43,20.0
267,D4,45.5,0.5,43,20.0
268,G4,45.5,0.5,43,20.0
269,C2,46.5,0.5,38,20.0
270,C3,46.5,0.5,38,20.0
271,G3,47.0,0.5,40,20.0
272,B-3,47.0,0.5,40,20.0
273,E4,47.0,0.5,40,20.0
274,F1,48.0,1.5,32,20.0
275,F2,48.0,1.5,32,20.0
276,C3,48.5,0.375,41,20.0
277,C3,48.875,0.125,41,20.0
278,A3,49.0,0.5,47,20.0
279,F1,49.5,1.0,31,20.0
280,F2,49.5,1.125,38,20.0
281,A3,50.0,0.375,40,20.0
282,A3,50.375,0.125,40,20.0
283,E-4,50.5,0.5,50,20.0
284,A2,50.625,0.125,39,20.0
285,C3,50.75,0.125,44,20.0
286,A2,50.875,0.125,38,20.0
287,E4,51.0,0.475,47,20.0
288,E2,51.0,0.475,41,20.0
289,B3,51.5,0.475,36,20.0
290,G#3,51.5,0.475,36,20.0
291,E4,51.5,0.475,36,20.0
292,E2,51.5,0.475,28,20.0
293,E3,51.5,0.475,28,20.0
294,B3,52.0,0.475,28,20.0
295,G#3,52.0,0.475,28,20.0
296,E4,52.0,0.475,28,20.0
297,E2,52.0,0.475,23,20.0
298,E3,52.0,0.475,23,20.0
299,G#3,52.5,0.475,27,20.0
300,B3,52.5,0.475,27,20.0
301,E4,52.5,0.475,27,20.0
302,E2,52.5,1.0,22,20.0
303,E3,52.5,1.0,22,20.0
304,G3,53.0,0.475,58,20.0
305,G3,53.5,0.475,63,20.0
306,G3,54.0,1.5,46,20.0
307,E2,54.0,1.5,30,20.0
308,E3,54.0,1.5,30,20.0
309,B3,54.5,0.375,41,20.0
310,B3,54.875,0.125,41,20.0
311,G4,55.0,0.5,47,20.0
312,E2,55.5,1.5,31,20.0
313,E3,55.5,1.125,38,20.0
314,C#4,56.0,0.375,40,20.0
315,C#4,56.375,0.125,40,20.0
316,B-4,56.5,0.5,46,20.0
317,E3,56.625,0.125,38,20.0
318,G3,56.75,0.125,42,20.0
319,E3,56.875,0.125,38,20.0
320,B4,57.0,0.475,47,20.0
321,E-3,57.0,0.475,46,20.0
322,F#4,57.5,0.475,35,20.0
323,B3,57.5,0.475,35,20.0
324,B4,57.5,0.475,35,20.0
325,B2,57.5,0.475,28,20.0
326,E-2,57.5,0.475,28,20.0
327,E-3,57.5,0.475,28,20.0
328,F#4,58.0,0.475,30,20.0
329,B3,58.0,0.475,30,20.0
330,B4,58.0,0.475,30,20.0
331,B2,58.0,0.475,24,20.0
332,E-2,58.0,0.475,24,20.0
333,E-3,58.0,0.475,24,20.0
334,B3,58.5,0.475,30,20.0
335,F#4,58.5,0.475,30,20.0
336,B4,58.5,0.475,30,20.0
337,B2,58.5,0.5,24,20.0
338,E-2,58.5,0.5,24,20.0
339,E-3,58.5,0.5,24,20.0
340,D3,59.0,0.475,50,20.0
341,F3,59.0,0.475,50,20.0
342,D3,59.5,0.475,54,20.0
343,F3,59.5,0.475,54,20.0
344,F3,60.0,1.0,37,20.0
345,D3,60.0,1.125,30,20.0
346,F4,60.5,0.375,46,20.0
347,F4,60.875,0.125,48,20.0
348,B4,61.0,1.0,54,20.0
349,F3,61.125,0.125,40,20.0
350,G#3,61.25,0.125,45,20.0
351,F3,61.375,0.125,41,20.0
352,C#3,61.5,1.125,52,20.0
353,B4,62.0,0.375,50,20.0
354,B4,62.375,0.125,54,20.0
355,F5,62.5,1.0,58,20.0
356,F3,62.625,0.125,46,20.0
357,G#3,62.75,0.125,50,20.0
358,F3,62.875,0.125,46,20.0
359,C3,63.0,1.125,56,20.0
360,F5,63.5,0.375,51,20.0
361,F5,63.875,0.125,53,20.0
362,G#5,64.0,1.0,66,20.0
363,F3,64.125,0.125,51,20.0
364,G#3,64.25,0.125,55,20.0
365,F3,64.375,0.125,50,20.0
366,B2,64.5,1.125,62,20.0
367,F5,65.0,0.375,61,20.0
368,F5,65.375,0.125,61,20.0
369,D6,65.5,1.0,75,20.0
370,F3,65.625,0.125,58,20.0
371,G#3,65.75,0.125,62,20.0
372,F3,65.875,0.125,56,20.0
373,G#2,66.0,1.125,70,20.0
374,F5,66.5,0.375,70,20.0
375,F5,66.875,0.125,70,20.0
376,F6,67.0,1.0,82,20.0
377,F3,67.125,0.125,68,20.0
378,B3,67.25,0.125,73,20.0
379,F3,67.375,0.125,68,20.0
380,G2,67.5,1.125,82,20.0
381,F5,68.0,0.375,73,20.0
382,F5,68.375,0.125,66,20.0
383,F6,68.5,1.0,88,20.0
384,F3,68.625,0.125,76,20.0
385,B3,68.75,0.125,80,20.0
386,F3,68.875,0.125,76,20.0
387,G#2,69.0,1.125,92,20.0
388,F5,69.5,0.375,72,20.0
389,F5,69.875,0.125,74,20.0
390,F6,70.0,0.875,90,20.0
391,F3,70.125,0.125,75,20.0
392,B3,70.25,0.125,82,20.0
393,F3,70.375,0.125,74,20.0
394,G#2,70.5,0.125,90,20.0
395,F3,70.625,0.125,72,20.0
396,B3,70.75,0.125,81,20.0
397,F5,70.875,0.125,79,20.0
398,F3,70.875,0.125,64,20.0
399,F6,71.0,0.125,93,20.0
400,G#2,71.0,0.125,71,20.0
401,F3,71.125,0.125,52,20.0
402,B3,71.25,0.125,54,20.0
403,D5,71.375,0.125,74,20.0
404,F3,71.375,0.125,51,20.0
405,D6,71.5,0.125,89,20.0
406,G#2,71.5,0.125,57,20.0
407,F3,71.625,0.125,49,20.0
408,B3,71.75,0.125,52,20.0
409,B4,71.875,0.125,64,20.0
410,F3,71.875,0.125,48,20.0
411,B5,72.0,0.125,75,20.0
412,G2,72.0,0.125,55,20.0
413,F3,72.125,0.125,47,20.0
414,B3,72.25,0.125,50,20.0
415,F4,72.375,0.125,63,20.0
416,F3,72.375,0.125,46,20.0
417,F5,72.5,0.125,72,20.0
418,G2,72.5,0.125,53,20.0
419,D3,72.625,0.125,45,20.0
420,F3,72.75,0.125,48,20.0
421,D4,72.875,0.125,52,20.0
422,D3,72.875,0.125,44,20.0
423,D5,73.0,0.125,60,20.0
424,G2,73.0,0.125,51,20.0
425,B2,73.125,0.125,42,20.0
426,D3,73.25,0.125,44,20.0
427,B3,73.375,0.125,47,20.0
428,B2,73.375,0.125,40,20.0
429,B4,73.5,0.125,55,20.0
430,G2,73.5,0.125,45,20.0
431,B2,73.625,0.125,37,20.0
432,D3,73.75,0.125,39,20.0
433,F3,73.875,0.125,42,20.0
434,B2,73.875,0.125,35,20.0
435,F4,74.0,0.125,48,20.0
436,G2,74.0,0.125,42,20.0
437,B2,74.125,0.125,33,20.0
438,D3,74.25,0.121,36,20.0
439,D3,74.375,0.125,38,20.0
440,B2,74.375,0.125,32,20.0
441,D4,74.5,0.125,42,20.0
442,G2,74.5,0.125,37,20.0
443,D2,74.625,0.125,30,20.0
444,B1,74.75,0.125,31,20.0
445,B2,74.875,0.125,32,20.0
446,D2,74.875,0.125,28,20.0
447,B3,75.0,0.475,40,20.0
448,G1,75.0,0.475,32,20.0
449,B2,75.5,0.475,27,20.0
450,D3,75.5,0.475,27,20.0
451,F3,75.5,0.475,27,20.0
452,G2,75.5,0.475,23,20.0
453,G1,75.5,0.475,23,20.0
454,B2,76.0,0.475,25,20.0
455,D3,76.0,0.475,25,20.0
456,F3,76.0,0.475,25,20.0
457,G2,76.0,0.475,23,20.0
458,G1,76.0,0.475,23,20.0
459,B2,76.5,1.0,25,20.0
460,D3,76.5,1.0,25,20.0
461,F3,76.5,1.0,25,20.0
462,G#1,76.5,1.0,23,20.0
463,G#2,76.5,1.0,23,20.0
464,F5,77.5,0.5,40,20.0
465,E5,78.0,0.5,40,20.0
466,C3,78.5,0.475,23,20.0
467,E3,78.5,0.475,23,20.0
468,A1,78.5,0.475,23,20.0
469,A2,78.5,0.475,23,20.0
470,A2,79.0,0.475,22,20.0
471,A1,79.0,0.475,22,20.0
472,E3,79.0,0.475,22,20.0
473,C3,79.0,0.475,22,20.0
474,E3,79.5,1.0,21,20.0
475,C3,79.5,1.0,21,20.0
476,A1,79.5,1.0,21,20.0
477,A2,79.5,1.0,21,20.0
478,E5,80.5,0.5,40,20.0
479,D5,81.0,0.5,40,20.0
480,F1,81.0,0.5,23,20.0
481,F2,81.0,0.5,23,20.0
482,D3,81.5,0.5,25,20.0
483,F3,81.5,0.5,25,20.0
484,A3,81.5,0.5,25,20.0
485,D5,82.0,0.5,40,20.0
486,G5,82.5,0.5,40,20.0
487,G1,82.5,0.5,23,20.0
488,G2,82.5,0.5,23,20.0
489,B2,83.0,0.5,25,20.0
490,D3,83.0,0.5,25,20.0
491,G3,83.0,0.5,25,20.0
492,G5,83.5,0.5,71,20.0
,note_name,start_time,duration,velocity,tempo
0,C2,0.0,0.5,50,91.91
1,E3,0.25,0.25,28,91.91
2,G3,0.5,0.25,30,91.91
3,C4,0.75,0.25,32,91.91
4,E4,1.0,0.25,34,91.91
5,G5,1.0,0.5,50,91.91
6,E3,1.25,0.25,31,91.91
7,G3,1.5,0.25,31,91.91
8,C4,1.75,0.25,31,91.91
9,E4,2.0,0.25,35,91.91
10,G5,2.0,1.5,54,91.91
11,E3,2.25,0.25,30,91.91
12,G3,2.5,0.25,31,91.91
13,C4,2.75,0.25,33,91.91
14,E4,3.0,0.25,36,91.91
15,E3,3.25,0.25,33,91.91
16,G3,3.5,0.25,33,91.91
17,E5,3.5,0.5,47,91.91
18,C4,3.75,0.25,33,91.91
19,D5,4.0,1.0,50,91.91
20,F3,4.25,0.25,28,91.91
21,G3,4.5,0.25,31,91.91
22,B3,4.75,0.25,33,91.91
23,D4,5.0,0.25,36,91.91
24,G4,5.0,1.0,41,91.91
25,F3,5.25,0.25,33,91.91
26,G3,5.5,0.25,33,91.91
27,B3,5.75,0.25,34,91.91
28,C5,6.0,1.0,50,91.91
29,E3,6.25,0.25,28,91.91
30,G3,6.5,0.25,30,91.91
31,C4,6.75,0.25,32,91.91
32,E4,7.0,0.25,34,91.91
33,E5,7.0,0.5,47,91.91
34,E3,7.25,0.25,32,91.91
35,G3,7.5,0.25,32,91.91
36,C4,7.75,0.25,33,91.91
37,C3,7.75,0.25,31,91.91
38,C2,8.0,0.5,50,91.91
39,E3,8.25,0.25,28,91.91
40,G3,8.5,0.25,30,91.91
41,C4,8.75,0.25,32,91.91
42,E4,9.0,0.25,34,91.91
43,G5,9.0,0.5,50,91.91
44,E3,9.25,0.25,31,91.91
45,G3,9.5,0.25,31,91.91
46,C4,9.75,0.25,31,91.91
47,E4,10.0,0.25,35,91.91
48,G5,10.0,1.5,54,91.91
49,E3,10.25,0.25,30,91.91
50,G3,10.5,0.25,31,91.91
51,C4,10.75,0.25,33,91.91
52,E4,11.0,0.25,36,91.91
53,E3,11.25,0.25,33,91.91
54,G3,11.5,0.25,33,91.91
55,E5,11.5,0.5,47,91.91
56,C4,11.75,0.25,33,91.91
57,D5,12.0,1.0,50,91.91
58,F3,12.25,0.25,28,91.91
59,G3,12.5,0.25,31,91.91
60,B3,12.75,0.25,33,91.91
61,D4,13.0,0.25,36,91.91
62,G4,13.0,1.0,41,91.91
63,F3,13.25,0.25,33,91.91
64,G3,13.5,0.25,33,91.91
65,B3,13.75,0.25,34,91.91
66,C5,14.0,0.5,50,91.91
67,E3,14.5,0.25,30,91.91
68,G3,14.75,0.25,32,91.91
69,C4,15.0,0.25,34,91.91
70,E4,15.25,0.25,32,91.91
71,D4,15.5,0.25,32,91.91
72,C4,15.75,0.25,33,91.91
73,G2,15.75,0.25,30,91.91
74,B3,16.0,0.25,35,91.91
75,G1,16.0,0.5,45,91.91
76,G3,16.25,0.25,28,91.91
77,B3,16.5,0.25,30,91.91
78,D4,16.75,0.25,32,91.91
79,G4,17.0,0.25,34,91.91
80,F5,17.0,0.5,50,91.91
81,G3,17.25,0.25,31,91.91
82,B3,17.5,0.25,31,91.91
83,D4,17.75,0.25,31,91.91
84,G4,18.0,0.25,35,91.91
85,F5,18.0,1.5,54,91.91
86,G3,18.25,0.25,30,91.91
87,B3,18.5,0.25,31,91.91
88,D4,18.75,0.25,33,91.91
89,G4,19.0,0.25,36,91.91
90,G3,19.25,0.25,33,91.91
91,B3,19.5,0.25,33,91.91
92,D5,19.5,0.5,47,91.91
93,G4,19.75,0.25,33,91.91
94,E5,20.0,1.0,50,91.91
95,G3,20.25,0.25,28,91.91
96,C4,20.5,0.25,31,91.91
97,G4,20.75,0.25,33,91.91
98,C5,21.0,1.0,41,91.91
99,G3,21.25,0.25,28,91.91
100,E4,21.5,0.25,31,91.91
101,G4,21.75,0.25,33,91.91
102,B4,22.0,1.0,50,91.91
103,G3,22.25,0.25,28,91.91
104,D4,22.5,0.25,30,91.91
105,G4,22.75,0.25,32,91.91
106,D5,23.0,0.5,47,91.91
107,G3,23.25,0.25,28,91.91
108,B3,23.5,0.25,30,91.91
109,G4,23.75,0.25,32,91.91
110,G2,23.75,0.25,32,91.91
111,G1,24.0,0.5,48,91.91
112,G3,24.25,0.25,28,91.91
113,B3,24.5,0.25,30,91.91
114,D4,24.75,0.25,32,91.91
115,G4,25.0,0.25,34,91.91
116,F5,25.0,0.5,50,91.91
117,G3,25.25,0.25,31,91.91
118,B3,25.5,0.25,31,91.91
119,D4,25.75,0.25,31,91.91
120,G4,26.0,0.25,35,91.91
121,F5,26.0,1.5,54,91.91
122,G3,26.25,0.25,30,91.91
123,B3,26.5,0.25,31,91.91
124,D4,26.75,0.25,33,91.91
125,G4,27.0,0.25,36,91.91
126,G3,27.25,0.25,33,91.91
127,B3,27.5,0.25,33,91.91
128,D5,27.5,0.5,47,91.91
129,G4,27.75,0.25,33,91.91
130,E-5,28.0,1.0,50,91.91
131,G3,28.25,0.25,28,91.91
132,C4,28.5,0.25,31,91.91
133,G4,28.75,0.25,33,91.91
134,C5,29.0,1.0,41,91.91
135,G3,29.25,0.25,28,91.91
136,E-4,29.5,0.25,31,91.91
137,G4,29.75,0.25,33,91.91
138,B4,30.0,1.0,50,91.91
139,G3,30.25,0.25,28,91.91
140,D4,30.5,0.25,30,91.91
141,G4,30.75,0.25,32,91.91
142,D5,31.0,1.0,47,91.91
143,G3,31.25,0.25,28,91.91
144,B3,31.5,0.25,30,91.91
145,G4,31.75,0.25,32,91.91
146,E5,32.0,1.0,50,91.91
147,G3,32.25,0.25,28,91.91
148,C4,32.5,0.25,31,91.91
149,G4,32.75,0.25,33,91.91
150,C5,33.0,1.0,41,91.91
151,G3,33.25,0.25,28,91.91
152,E4,33.5,0.25,31,91.91
153,G4,33.75,0.25,33,91.91
154,B4,34.0,1.0,50,91.91
155,G3,34.25,0.25,28,91.91
156,D4,34.5,0.25,30,91.91
157,G4,34.75,0.25,32,91.91
158,D5,35.0,1.0,47,91.91
159,G3,35.25,0.25,28,91.91
160,B3,35.5,0.25,30,91.91
161,G4,35.75,0.25,32,91.91
162,E-5,36.0,1.0,50,91.91
163,G3,36.25,0.25,28,91.91
164,C4,36.5,0.25,31,91.91
165,G4,36.75,0.25,33,91.91
166,C5,37.0,1.0,41,91.91
167,G3,37.25,0.25,28,91.91
168,C4,37.5,0.25,31,91.91
169,E-4,37.75,0.25,33,91.91
170,G5,38.0,0.99,50,91.91
171,G3,38.25,0.25,28,91.91
172,B3,38.5,0.25,30,91.91
173,D4,38.75,0.25,32,91.91
174,G5,39.0,0.99,47,91.91
175,G3,39.25,0.25,28,91.91
176,C4,39.5,0.25,30,91.91
177,E-4,39.75,0.25,32,91.91
178,G5,40.0,0.99,50,91.91
179,G3,40.25,0.25,28,91.91
180,B3,40.5,0.25,30,91.91
181,D4,40.75,0.25,32,91.91
182,G5,41.0,0.99,47,91.91
183,G3,41.25,0.25,28,91.91
184,C4,41.5,0.25,30,91.91
185,E-4,41.75,0.25,32,91.91
186,G5,42.0,0.99,50,91.91
187,G3,42.25,0.25,28,91.91
188,B3,42.5,0.25,30,91.91
189,D4,42.75,0.25,32,91.91
190,G5,43.0,0.99,47,91.91
191,G3,43.25,0.25,28,91.91
192,A3,43.5,0.25,30,91.91
193,C4,43.75,0.25,32,91.91
194,G5,44.0,1.0,47,91.91
195,G3,44.25,0.25,36,91.91
196,B3,44.5,0.25,38,91.91
197,D4,44.75,0.25,35,91.91
198,G4,45.0,0.25,43,91.91
199,B4,45.25,0.25,39,91.91
200,A4,45.5,0.25,41,91.91
201,F#4,45.75,0.25,38,91.91
202,G4,46.0,0.25,43,91.91
203,B3,46.25,0.25,38,91.91
204,D4,46.5,0.25,41,91.91
205,G4,46.75,0.25,38,91.91
206,B4,47.0,0.25,46,91.91
207,D5,47.25,0.25,41,91.91
208,C5,47.5,0.25,41,91.91
209,A4,47.75,0.25,37,91.91
210,B4,48.0,0.25,47,91.91
211,G4,48.25,0.25,42,91.91
212,B4,48.5,0.25,47,91.91
213,D5,48.75,0.25,43,91.91
214,G5,49.0,0.25,51,91.91
215,B5,49.25,0.25,46,91.91
216,A5,49.5,0.25,48,91.91
217,F#5,49.75,0.25,43,91.91
218,G5,50.0,0.25,52,91.91
219,B5,50.25,0.25,52,91.91
220,A5,50.5,0.25,53,91.91
221,C6,50.75,0.25,54,91.91
222,B5,51.0,0.25,55,91.91
223,D6,51.25,0.25,56,91.91
224,C#6,51.5,0.25,56,91.91
225,E6,51.75,0.25,57,91.91
226,D6,52.0,0.25,58,91.91
227,F6,52.25,0.25,59,91.91
228,E6,52.5,0.25,60,91.91
229,G6,52.75,0.25,56,91.91
230,F6,53.0,0.25,61,91.91
231,A6,53.25,0.25,62,91.91
232,F6,53.5,0.25,63,91.91
233,E6,53.75,0.25,59,91.91
234,D6,54.0,0.25,65,91.91
235,F6,54.25,0.25,66,91.91
236,E6,54.5,0.25,66,91.91
237,G6,54.75,0.25,64,91.91
238,F6,55.0,0.25,68,91.91
239,A6,55.25,0.25,69,91.91
240,F6,55.5,0.25,70,91.91
241,E6,55.75,0.25,66,91.91
242,D6,56.0,0.25,69,91.91
243,F6,56.25,0.25,65,91.91
244,E6,56.5,0.25,67,91.91
245,C6,56.75,0.25,60,91.91
246,B5,57.0,0.25,64,91.91
247,D6,57.25,0.25,59,91.91
248,C6,57.5,0.25,62,91.91
249,A5,57.75,0.25,55,91.91
250,G5,58.0,0.25,59,91.91
251,B5,58.25,0.25,54,91.91
252,A5,58.5,0.25,56,91.91
253,F5,58.75,0.25,51,91.91
254,E5,59.0,0.25,54,91.91
255,G5,59.25,0.25,46,91.91
256,F5,59.5,0.25,49,91.91
257,D5,59.75,0.25,42,91.91
258,C5,60.0,0.25,49,91.91
259,C2,60.0,0.25,50,91.91
260,G2,60.25,0.25,30,91.91
261,C3,60.5,0.25,32,91.91
262,E3,60.75,0.25,34,91.91
263,G3,61.0,0.25,31,91.91
264,G6,61.0,0.5,50,91.91
265,G5,61.0,0.5,50,91.91
266,C3,61.25,0.25,31,91.91
267,E3,61.5,0.25,31,91.91
268,G3,61.75,0.25,35,91.91
269,C4,62.0,0.25,30,91.91
270,G6,62.0,1.5,54,91.91
271,G5,62.0,1.5,54,91.91
272,E3,62.25,0.25,31,91.91
273,G3,62.5,0.25,33,91.91
274,C4,62.75,0.25,36,91.91
275,E4,63.0,0.25,33,91.91
276,G3,63.25,0.25,33,91.91
277,C4,63.5,0.25,33,91.91
278,E6,63.5,0.5,47,91.91
279,E5,63.5,0.5,47,91.91
280,E4,63.75,0.25,36,91.91
281,F4,64.0,0.25,28,91.91
282,D6,64.0,1.0,50,91.91
283,D5,64.0,1.0,50,91.91
284,E4,64.25,0.25,31,91.91
285,D4,64.5,0.25,33,91.91
286,C4,64.75,0.25,36,91.91
287,B3,65.0,0.25,33,91.91
288,G5,65.0,1.0,41,91.91
289,G4,65.0,1.0,41,91.91
290,A3,65.25,0.25,33,91.91
291,G3,65.5,0.25,34,91.91
292,F3,65.75,0.25,34,91.91
293,E3,66.0,0.25,28,91.91
294,C6,66.0,1.0,50,91.91
295,C5,66.0,1.0,50,91.91
296,G3,66.25,0.25,30,91.91
297,C3,66.5,0.25,32,91.91
298,E3,66.75,0.25,34,91.91
299,G2,67.0,0.25,32,91.91
300,E6,67.0,0.5,47,91.91
301,E5,67.0,0.5,47,91.91
302,C3,67.25,0.25,32,91.91
303,E2,67.5,0.25,33,91.91
304,G2,67.75,0.25,34,91.91
305,C2,68.0,0.25,50,91.91
306,G2,68.25,0.25,30,91.91
307,C3,68.5,0.25,32,91.91
308,E3,68.75,0.25,34,91.91
309,G3,69.0,0.25,31,91.91
310,G6,69.0,0.5,50,91.91
311,G5,69.0,0.5,50,91.91
312,C3,69.25,0.25,31,91.91
313,E3,69.5,0.25,31,91.91
314,G3,69.75,0.25,35,91.91
315,C4,70.0,0.25,30,91.91
316,G6,70.0,1.5,54,91.91
317,G5,70.0,1.5,54,91.91
318,E3,70.25,0.25,31,91.91
319,G3,70.5,0.25,33,91.91
320,C4,70.75,0.25,36,91.91
321,E4,71.0,0.25,33,91.91
322,G3,71.25,0.25,33,91.91
323,C4,71.5,0.25,33,91.91
324,E6,71.5,0.5,47,91.91
325,E5,71.5,0.5,47,91.91
326,E4,71.75,0.25,33,91.91
327,F4,72.0,0.25,28,91.91
328,D6,72.0,1.0,50,91.91
329,D5,72.0,1.0,50,91.91
330,E4,72.25,0.25,31,91.91
331,D4,72.5,0.25,33,91.91
332,C4,72.75,0.25,36,91.91
333,B3,73.0,0.25,33,91.91
334,G5,73.0,1.0,41,91.91
335,G4,73.0,1.0,41,91.91
336,G3,73.25,0.25,33,91.91
337,A3,73.5,0.25,34,91.91
338,B3,73.75,0.25,34,91.91
339,C4,74.0,0.25,28,91.91
340,C6,74.0,0.5,50,91.91
341,C5,74.0,0.5,50,91.91
342,B3,74.25,0.25,30,91.91
343,A3,74.5,0.25,32,91.91
344,G3,74.75,0.25,34,91.91
345,F3,75.0,0.25,32,91.91
346,E3,75.25,0.25,32,91.91
347,D3,75.5,0.25,33,91.91
348,C3,75.75,0.25,35,91.91
349,G2,76.0,0.25,45,91.91
350,B2,76.25,0.25,30,91.91
351,D3,76.5,0.25,32,91.91
352,G3,76.75,0.25,34,91.91
353,B2,77.0,0.25,31,91.91
354,F6,77.0,0.5,50,91.91
355,F5,77.0,0.5,50,91.91
356,D3,77.25,0.25,31,91.91
357,G3,77.5,0.25,31,91.91
358,B3,77.75,0.25,35,91.91
359,D3,78.0,0.25,30,91.91
360,F6,78.0,1.5,54,91.91
361,F5,78.0,1.5,54,91.91
362,G3,78.25,0.25,31,91.91
363,B3,78.5,0.25,33,91.91
364,D4,78.75,0.25,36,91.91
365,G3,79.0,0.25,33,91.91
366,B3,79.25,0.25,33,91.91
367,D4,79.5,0.25,33,91.91
368,D6,79.5,0.5,47,91.91
369,D5,79.5,0.5,47,91.91
370,G4,79.75,0.25,36,91.91
371,G3,80.0,0.25,28,91.91
372,E6,80.0,1.0,50,91.91
373,E5,80.0,1.0,50,91.91
374,C4,80.25,0.25,31,91.91
375,G4,80.5,0.25,33,91.91
376,C4,80.75,0.25,36,91.91
377,G3,81.0,0.25,28,91.91
378,C6,81.0,1.0,41,91.91
379,C5,81.0,1.0,41,91.91
380,E4,81.25,0.25,31,91.91
381,G4,81.5,0.25,33,91.91
382,E4,81.75,0.25,36,91.91
383,G3,82.0,0.25,28,91.91
384,B5,82.0,1.0,50,91.91
385,B4,82.0,1.0,50,91.91
386,D4,82.25,0.25,30,91.91
387,G4,82.5,0.25,32,91.91
388,D4,82.75,0.25,36,91.91
389,G3,83.0,0.25,28,91.91
390,D6,83.0,0.5,47,91.91
391,D5,83.0,0.5,47,91.91
392,B3,83.25,0.25,30,91.91
393,G4,83.5,0.25,32,91.91
394,B3,83.75,0.25,35,91.91
395,G2,84.0,0.25,48,91.91
396,B2,84.25,0.25,30,91.91
397,D3,84.5,0.25,32,91.91
398,G3,84.75,0.25,34,91.91
399,B2,85.0,0.25,31,91.91
400,F6,85.0,0.5,50,91.91
401,F5,85.0,0.5,50,91.91
402,D3,85.25,0.25,31,91.91
403,G3,85.5,0.25,31,91.91
404,B3,85.75,0.25,35,91.91
405,D3,86.0,0.25,30,91.91
406,F6,86.0,1.5,54,91.91
407,F5,86.0,1.5,54,91.91
408,G3,86.25,0.25,31,91.91
409,B3,86.5,0.25,33,91.91
410,D4,86.75,0.25,36,91.91
411,G3,87.0,0.25,33,91.91
412,B3,87.25,0.25,33,91.91
413,D4,87.5,0.25,33,91.91
414,D6,87.5,0.5,47,91.91
415,D5,87.5,0.5,47,91.91
416,G4,87.75,0.25,36,91.91
417,G3,88.0,0.25,28,91.91
418,E-6,88.0,1.0,50,91.91
419,E-5,88.0,1.0,50,91.91
420,C4,88.25,0.25,31,91.91
421,G4,88.5,0.25,33,91.91
422,C4,88.75,0.25,35,91.91
423,G3,89.0,0.25,28,91.91
424,C6,89.0,1.0,41,91.91
425,C5,89.0,1.0,41,91.91
426,E-4,89.25,0.25,31,91.91
427,G4,89.5,0.25,33,91.91
428,E-4,89.75,0.25,35,91.91
429,G3,90.0,0.25,28,91.91
430,B5,90.0,1.0,50,91.91
431,B4,90.0,1.0,50,91.91
432,D4,90.25,0.25,30,91.91
433,G4,90.5,0.25,32,91.91
434,D4,90.75,0.25,35,91.91
435,G3,91.0,0.25,28,91.91
436,D6,91.0,1.0,47,91.91
437,D5,91.0,1.0,47,91.91
438,B3,91.25,0.25,30,91.91
439,G4,91.5,0.25,32,91.91
440,B3,91.75,0.25,35,91.91
441,G3,92.0,0.25,28,91.91
442,E6,92.0,1.0,50,91.91
443,E5,92.0,1.0,50,91.91
444,C4,92.25,0.25,31,91.91
445,G4,92.5,0.25,33,91.91
446,C4,92.75,0.25,35,91.91
447,G3,93.0,0.25,28,91.91
448,C6,93.0,1.0,42,91.91
449,C5,93.0,1.0,42,91.91
450,E4,93.25,0.25,32,91.91
451,G4,93.5,0.25,34,91.91
452,E4,93.75,0.25,37,91.91
453,G3,94.0,0.25,29,91.91
454,B5,94.0,1.0,53,91.91
455,B4,94.0,1.0,53,91.91
456,D4,94.25,0.25,32,91.91
457,G4,94.5,0.25,34,91.91
458,D4,94.75,0.25,38,91.91
459,G3,95.0,0.25,31,91.91
460,D6,95.0,1.0,52,91.91
461,D5,95.0,1.0,52,91.91
462,B3,95.25,0.25,33,91.91
463,G4,95.5,0.25,36,91.91
464,B3,95.75,0.25,39,91.91
465,G3,96.0,0.25,28,91.91
466,E-6,96.0,1.0,50,91.91
467,E-5,96.0,1.0,50,91.91
468,C4,96.25,0.25,31,91.91
469,G4,96.5,0.25,33,91.91
470,C4,96.75,0.25,35,91.91
471,G3,97.0,0.25,28,91.91
472,C6,97.0,1.0,41,91.91
473,C5,97.0,1.0,41,91.91
474,C4,97.25,0.25,31,91.91
475,E-4,97.5,0.25,33,91.91
476,C4,97.75,0.25,35,91.91
477,G5,98.0,1.0,50,91.91
478,G3,98.0,0.25,28,91.91
479,B3,98.25,0.25,30,91.91
480,D4,98.5,0.25,32,91.91
481,B3,98.75,0.25,35,91.91
482,G5,99.0,1.0,47,91.91
483,G3,99.0,0.25,28,91.91
484,C4,99.25,0.25,30,91.91
485,E-4,99.5,0.25,32,91.91
486,C4,99.75,0.25,35,91.91
487,A5,100.0,0.167,33,91.91
488,G3,100.0,0.125,42,91.91
489,G5,100.167,0.167,33,91.91
490,B3,100.25,0.25,27,91.91
491,A5,100.333,0.167,33,91.91
492,G5,100.5,0.167,33,91.91
493,D4,100.5,0.25,27,91.91
494,A5,100.667,0.167,34,91.91
495,B3,100.75,0.25,28,91.91
496,G5,100.833,0.167,34,91.91
497,A5,101.0,0.167,35,91.91
498,G3,101.0,0.125,48,91.91
499,G5,101.167,0.167,35,91.91
500,C4,101.25,0.25,29,91.91
501,A5,101.333,0.167,35,91.91
502,G5,101.5,0.167,35,91.91
503,E4,101.5,0.25,30,91.91
504,A5,101.667,0.167,36,91.91
505,C4,101.75,0.25,31,91.91
506,G5,101.833,0.167,36,91.91
507,A5,102.0,0.167,37,91.91
508,G3,102.0,0.125,51,91.91
509,G5,102.167,0.167,37,91.91
510,B3,102.25,0.25,32,91.91
511,A5,102.333,0.167,37,91.91
512,G5,102.5,0.167,39,91.91
513,D4,102.5,0.25,34,91.91
514,A5,102.667,0.167,39,91.91
515,B3,102.75,0.25,34,91.91
516,G5,102.833,0.167,39,91.91
517,A5,103.0,0.167,39,91.91
518,G3,103.0,0.125,58,91.91
519,G5,103.167,0.167,39,91.91
520,A3,103.25,0.25,35,91.91
521,A5,103.333,0.167,41,91.91
522,G5,103.5,0.167,41,91.91
523,C4,103.5,0.25,37,91.91
524,A5,103.667,0.167,41,91.91
525,A3,103.75,0.25,39,91.91
526,G5,103.833,0.167,41,91.91
527,A5,104.0,0.167,42,91.91
528,G3,104.0,0.125,64,91.91
529,G5,104.167,0.167,42,91.91
530,B3,104.25,0.25,42,91.91
531,A5,104.333,0.167,42,91.91
532,G5,104.5,0.167,42,91.91
533,A3,104.5,0.25,44,91.91
534,A5,104.667,0.167,42,91.91
535,G3,104.75,0.25,45,91.91
536,G5,104.833,0.167,44,91.91
537,A5,105.0,0.167,44,91.91
538,F3,105.0,0.125,69,91.91
539,G5,105.167,0.167,44,91.91
540,A3,105.25,0.25,50,91.91
541,A5,105.333,0.167,45,91.91
542,G5,105.5,0.167,45,91.91
543,G3,105.5,0.25,53,91.91
544,A5,105.667,0.167,45,91.91
545,F3,105.75,0.25,56,91.91
546,G5,105.833,0.167,46,91.91
547,A5,106.0,0.167,46,91.91
548,E3,106.0,0.125,77,91.91
549,G5,106.167,0.167,47,91.91
550,G3,106.25,0.25,60,91.91
551,A5,106.333,0.167,47,91.91
552,G5,106.5,0.167,48,91.91
553,F3,106.5,0.25,62,91.91
554,A5,106.667,0.167,49,91.91
555,E3,106.75,0.25,64,91.91
556,G5,106.833,0.167,49,91.91
557,A5,107.0,0.167,49,91.91
558,D3,107.0,0.125,82,91.91
559,G5,107.167,0.167,49,91.91
560,F3,107.25,0.25,64,91.91
561,A5,107.333,0.167,50,91.91
562,G5,107.5,0.167,50,91.91
563,E3,107.5,0.25,67,91.91
564,A5,107.667,0.167,51,91.91
565,D3,107.75,0.25,71,91.91
566,G5,107.833,0.167,51,91.91
567,A5,108.0,0.167,48,91.91
568,C2,108.0,0.5,94,91.91
569,C3,108.0,0.5,94,91.91
570,G5,108.167,0.167,35,91.91
571,D3,108.25,0.125,56,91.91
572,A5,108.333,0.167,38,91.91
573,E3,108.375,0.125,57,91.91
574,G5,108.5,0.167,35,91.91
575,F3,108.5,0.125,60,91.91
576,G3,108.625,0.125,60,91.91
577,A5,108.667,0.167,38,91.91
578,A3,108.75,0.125,62,91.91
579,G5,108.833,0.167,36,91.91
580,B3,108.875,0.125,63,91.91
581,A5,109.0,0.167,40,91.91
582,G6,109.0,0.5,89,91.91
583,C4,109.0,0.25,63,91.91
584,G5,109.167,0.167,36,91.91
585,D4,109.25,0.125,65,91.91
586,A5,109.333,0.167,40,91.91
587,E4,109.375,0.125,66,91.91
588,G5,109.5,0.167,36,91.91
589,F4,109.5,0.125,67,91.91
590,G4,109.625,0.125,69,91.91
591,A5,109.667,0.167,40,91.91
592,A4,109.75,0.125,70,91.91
593,G5,109.833,0.167,36,91.91
594,B4,109.875,0.125,71,91.91
595,A5,110.0,0.167,40,91.91
596,G6,110.0,1.5,90,91.91
597,C5,110.0,0.125,74,91.91
598,G5,110.167,0.167,37,91.91
599,B4,110.25,0.125,71,91.91
600,A5,110.333,0.167,40,91.91
601,G5,110.5,0.167,36,91.91
602,A4,110.5,0.125,71,91.91
603,A5,110.667,0.167,40,91.91
604,G4,110.75,0.125,71,91.91
605,G5,110.833,0.167,36,91.91
606,A5,111.0,0.167,40,91.91
607,F4,111.0,0.125,72,91.91
608,G5,111.167,0.167,35,91.91
609,E4,111.25,0.125,69,91.91
610,A5,111.333,0.167,38,91.91
611,G5,111.5,0.167,33,91.91
612,E6,111.5,0.5,85,91.91
613,D4,111.5,0.125,69,91.91
614,A5,111.667,0.167,38,91.91
615,C4,111.75,0.125,67,91.91
616,G5,111.833,0.167,34,91.91
617,A5,112.0,0.167,38,91.91
618,D6,112.0,1.0,90,91.91
619,B3,112.0,0.125,73,91.91
620,G5,112.167,0.167,34,91.91
621,C4,112.25,0.125,69,91.91
622,A5,112.333,0.167,36,91.91
623,G5,112.5,0.167,33,91.91
624,B3,112.5,0.125,69,91.91
625,A5,112.667,0.167,37,91.91
626,A3,112.75,0.125,69,91.91
627,G5,112.833,0.167,33,91.91
628,A5,113.0,0.167,37,91.91
629,G5,113.0,0.146,84,91.91
630,G3,113.0,0.125,75,91.91
631,G5,113.167,0.167,33,91.91
632,F3,113.25,0.125,69,91.91
633,A5,113.333,0.167,38,91.91
634,G5,113.5,0.167,32,91.91
635,E3,113.5,0.125,69,91.91
636,A5,113.667,0.167,37,91.91
637,D3,113.75,0.125,69,91.91
638,G5,113.833,0.167,32,91.91
639,A5,114.0,0.167,38,91.91
640,C6,114.0,1.0,87,91.91
641,C3,114.0,0.125,75,91.91
642,G5,114.167,0.167,32,91.91
643,C3,114.25,0.125,69,91.91
644,A5,114.333,0.167,37,91.91
645,G5,114.5,0.167,32,91.91
646,B2,114.5,0.125,69,91.91
647,A5,114.667,0.167,36,91.91
648,A2,114.75,0.125,69,91.91
649,G5,114.833,0.167,32,91.91
650,A5,115.0,0.167,36,91.91
651,E6,115.0,0.5,84,91.91
652,G2,115.0,0.125,72,91.91
653,G5,115.167,0.167,34,91.91
654,F2,115.25,0.125,71,91.91
655,A5,115.333,0.167,37,91.91
656,G5,115.5,0.167,33,91.91
657,E2,115.5,0.125,75,91.91
658,A5,115.667,0.167,36,91.91
659,D2,115.75,0.125,80,91.91
660,G5,115.833,0.167,32,91.91
661,A5,116.0,0.167,36,91.91
662,C2,116.0,0.5,95,91.91
663,C3,116.0,0.5,95,91.91
664,G5,116.167,0.167,32,91.91
665,D3,116.25,0.125,56,91.91
666,A5,116.333,0.167,37,91.91
667,E3,116.375,0.125,57,91.91
668,G5,116.5,0.167,33,91.91
669,F3,116.5,0.125,60,91.91
670,G3,116.625,0.125,60,91.91
671,A5,116.667,0.167,38,91.91
672,A3,116.75,0.125,62,91.91
673,G5,116.833,0.167,33,91.91
674,B3,116.875,0.125,63,91.91
675,A5,117.0,0.167,39,91.91
676,G6,117.0,0.5,90,91.91
677,C4,117.0,0.25,63,91.91
678,G5,117.167,0.167,35,91.91
679,D4,117.25,0.125,65,91.91
680,A5,117.333,0.167,40,91.91
681,E4,117.375,0.125,66,91.91
682,G5,117.5,0.167,36,91.91
683,F4,117.5,0.125,67,91.91
684,G4,117.625,0.125,69,91.91
685,A5,117.667,0.167,40,91.91
686,A4,117.75,0.125,70,91.91
687,G5,117.833,0.167,36,91.91
688,B4,117.875,0.125,71,91.91
689,A5,118.0,0.167,40,91.91
690,G6,118.0,1.5,92,91.91
691,C5,118.0,0.125,74,91.91
692,G5,118.167,0.167,37,91.91
693,B4,118.25,0.125,71,91.91
694,A5,118.333,0.167,40,91.91
695,G5,118.5,0.167,36,91.91
696,A4,118.5,0.125,71,91.91
697,A5,118.667,0.167,40,91.91
698,G4,118.75,0.125,71,91.91
699,G5,118.833,0.167,36,91.91
700,A5,119.0,0.167,39,91.91
701,F4,119.0,0.125,72,91.91
702,G5,119.167,0.167,36,91.91
703,E4,119.25,0.125,69,91.91
704,A5,119.333,0.167,38,91.91
705,G5,119.5,0.167,32,91.91
706,E6,119.5,0.5,84,91.91
707,D4,119.5,0.125,69,91.91
708,A5,119.667,0.167,37,91.91
709,C4,119.75,0.125,67,91.91
710,G5,119.833,0.167,33,91.91
711,A5,120.0,0.167,39,91.91
712,D6,120.0,1.0,90,91.91
713,B3,120.0,0.125,73,91.91
714,G5,120.167,0.167,32,91.91
715,C4,120.25,0.125,69,91.91
716,A5,120.333,0.167,36,91.91
717,G5,120.5,0.167,31,91.91
718,B3,120.5,0.125,69,91.91
719,A5,120.667,0.167,36,91.91
720,A3,120.75,0.125,69,91.91
721,G5,120.833,0.167,30,91.91
722,A5,121.0,0.167,36,91.91
723,G5,121.0,0.146,82,91.91
724,G3,121.0,0.125,75,91.91
725,G5,121.167,0.167,31,91.91
726,F3,121.25,0.125,69,91.91
727,A5,121.333,0.167,36,91.91
728,G5,121.5,0.167,34,91.91
729,E3,121.5,0.125,69,91.91
730,F#5,121.667,0.167,36,91.91
731,D3,121.75,0.125,69,91.91
732,G5,121.833,0.167,31,91.91
733,C6,122.0,0.5,86,91.91
734,C3,122.0,0.5,75,91.91
735,C2,122.5,0.5,75,91.91
736,C4,123.0,0.167,68,91.91
737,E4,123.167,0.167,62,91.91
738,C4,123.333,0.167,62,91.91
739,G3,123.5,0.167,62,91.91
740,C2,123.5,0.5,66,91.91
741,C3,123.5,0.5,66,91.91
742,E3,123.667,0.167,62,91.91
743,G3,123.833,0.167,62,91.91
744,C4,124.0,0.167,68,91.91
745,F4,124.167,0.167,62,91.91
746,C4,124.333,0.167,62,91.91
747,A3,124.5,0.167,62,91.91
748,C2,124.5,0.5,66,91.91
749,C3,124.5,0.5,66,91.91
750,F3,124.667,0.167,62,91.91
751,A3,124.833,0.167,62,91.91
752,C4,125.0,0.167,68,91.91
753,E4,125.167,0.167,61,91.91
754,C4,125.333,0.167,61,91.91
755,G3,125.5,0.167,61,91.91
756,C2,125.5,0.5,62,91.91
757,C3,125.5,0.5,62,91.91
758,E3,125.667,0.167,61,91.91
759,G3,125.833,0.167,61,91.91
760,C4,126.0,0.167,63,91.91
761,D4,126.167,0.167,59,91.91
762,C4,126.333,0.167,59,91.91
763,F3,126.5,0.167,59,91.91
764,C2,126.5,0.5,58,91.91
765,C3,126.5,0.5,58,91.91
766,D3,126.667,0.167,59,91.91
767,F3,126.833,0.167,59,91.91
768,C4,127.0,0.167,68,91.91
769,E-4,127.167,0.167,61,91.91
770,C4,127.333,0.167,61,91.91
771,F#3,127.5,0.167,61,91.91
772,C2,127.5,0.5,64,91.91
773,C3,127.5,0.5,64,91.91
774,E-3,127.667,0.167,61,91.91
775,F#3,127.833,0.167,61,91.91
776,C4,128.0,0.167,68,91.91
777,E4,128.167,0.167,62,91.91
778,C4,128.333,0.167,62,91.91
779,G3,128.5,0.167,62,91.91
780,C2,128.5,0.5,66,91.91
781,C3,128.5,0.5,66,91.91
782,E3,128.667,0.167,62,91.91
783,G3,128.833,0.167,62,91.91
784,B3,129.0,0.167,68,91.91
785,D4,129.167,0.167,61,91.91
786,B3,129.333,0.167,61,91.91
787,F3,129.5,0.167,61,91.91
788,C2,129.5,0.5,66,91.91
789,C3,129.5,0.5,66,91.91
790,D3,129.667,0.167,61,91.91
791,F3,129.833,0.167,61,91.91
792,G3,130.0,0.167,68,91.91
793,C4,130.167,0.167,62,91.91
794,G3,130.333,0.167,62,91.91
795,E3,130.5,0.167,62,91.91
796,C2,130.5,0.5,71,91.91
797,C3,130.667,0.167,62,91.91
798,E3,130.833,0.167,62,91.91
799,E4,131.0,0.167,68,91.91
800,G4,131.167,0.167,62,91.91
801,E4,131.333,0.167,62,91.91
802,C4,131.5,0.167,62,91.91
803,C3,131.5,0.5,64,91.91
804,E2,131.5,0.5,64,91.91
805,E3,131.5,0.5,64,91.91
806,G3,131.667,0.167,62,91.91
807,C4,131.833,0.167,62,91.91
808,F4,132.0,0.167,68,91.91
809,A4,132.167,0.167,62,91.91
810,F4,132.333,0.167,62,91.91
811,C4,132.5,0.167,62,91.91
812,C3,132.5,0.5,64,91.91
813,F2,132.5,0.5,64,91.91
814,F3,132.5,0.5,64,91.91
815,A3,132.667,0.167,62,91.91
816,C4,132.833,0.167,62,91.91
817,E4,133.0,0.167,68,91.91
818,G4,133.167,0.167,61,91.91
819,E4,133.333,0.167,61,91.91
820,C4,133.5,0.167,61,91.91
821,C3,133.5,0.5,61,91.91
822,E2,133.5,0.5,61,91.91
823,E3,133.5,0.5,61,91.91
824,G3,133.667,0.167,61,91.91
825,C4,133.833,0.167,61,91.91
826,D4,134.0,0.167,63,91.91
827,F4,134.167,0.167,59,91.91
828,D4,134.333,0.167,59,91.91
829,C4,134.5,0.167,59,91.91
830,C3,134.5,0.5,56,91.91
831,D2,134.5,0.5,56,91.91
832,D3,134.5,0.5,56,91.91
833,F3,134.667,0.167,59,91.91
834,C4,134.833,0.167,59,91.91
835,E-4,135.0,0.167,68,91.91
836,F#4,135.167,0.167,61,91.91
837,E-4,135.333,0.167,61,91.91
838,C4,135.5,0.167,61,91.91
839,C3,135.5,0.5,63,91.91
840,E-2,135.5,0.5,63,91.91
841,E-3,135.5,0.5,63,91.91
842,F#3,135.667,0.167,61,91.91
843,C4,135.833,0.167,61,91.91
844,E4,136.0,0.167,68,91.91
845,G4,136.167,0.167,62,91.91
846,E4,136.333,0.167,62,91.91
847,C4,136.5,0.167,62,91.91
848,C3,136.5,0.5,64,91.91
849,E2,136.5,0.5,64,91.91
850,E3,136.5,0.5,64,91.91
851,G3,136.667,0.167,62,91.91
852,C4,136.833,0.167,62,91.91
853,D4,137.0,0.167,68,91.91
854,F4,137.167,0.167,61,91.91
855,D4,137.333,0.167,61,91.91
856,B3,137.5,0.167,61,91.91
857,C3,137.5,0.5,64,91.91
858,D2,137.5,0.5,64,91.91
859,D3,137.5,0.5,64,91.91
860,F3,137.667,0.167,61,91.91
861,B3,137.833,0.167,61,91.91
862,C4,138.0,0.167,68,91.91
863,E4,138.167,0.167,62,91.91
864,C4,138.333,0.167,62,91.91
865,E3,138.5,0.167,62,91.91
866,C2,138.5,0.5,63,91.91
867,C3,138.5,0.5,63,91.91
868,E4,138.667,0.167,62,91.91
869,E3,138.833,0.167,62,91.91
870,E2,139.0,0.25,82,91.91
871,E3,139.167,0.167,70,91.91
872,E4,139.333,0.167,70,91.91
873,E2,139.5,0.25,82,91.91
874,E3,139.667,0.167,71,91.91
875,E4,139.833,0.167,72,91.91
876,A1,140.0,0.25,74,91.91
877,A2,140.0,0.25,74,91.91
878,A3,140.167,0.167,73,91.91
879,A4,140.333,0.167,74,91.91
880,B1,140.5,0.25,76,91.91
881,B2,140.5,0.25,76,91.91
882,B3,140.667,0.167,75,91.91
883,B4,140.833,0.167,77,91.91
884,C2,141.0,0.25,78,91.91
885,C3,141.0,0.25,78,91.91
886,C4,141.167,0.167,78,91.91
887,C5,141.333,0.167,79,91.91
888,D2,141.5,0.25,82,91.91
889,D3,141.5,0.25,82,91.91
890,D4,141.667,0.167,80,91.91
891,D5,141.833,0.167,81,91.91
892,E5,142.0,0.167,85,91.91
893,E2,142.0,1.0,88,91.91
894,E3,142.0,1.0,88,91.91
895,E4,142.167,0.167,85,91.91
896,E5,142.333,0.167,84,91.91
897,E4,142.5,0.167,84,91.91
898,E5,142.667,0.167,84,91.91
899,E4,142.833,0.167,82,91.91
900,E2,143.0,0.25,81,91.91
901,E3,143.0,0.25,81,91.91
902,E4,143.167,0.167,79,91.91
903,E5,143.333,0.167,78,91.91
904,D2,143.5,0.25,80,91.91
905,D3,143.5,0.25,80,91.91
906,D4,143.667,0.167,77,91.91
907,D5,143.833,0.167,77,91.91
908,C2,144.0,0.25,78,91.91
909,C3,144.0,0.25,78,91.91
910,C4,144.167,0.167,75,91.91
911,C5,144.333,0.167,75,91.91
912,B1,144.5,0.25,76,91.91
913,B2,144.5,0.25,76,91.91
914,B3,144.667,0.167,74,91.91
915,B4,144.833,0.167,74,91.91
916,C2,145.0,0.25,74,91.91
917,C3,145.0,0.25,74,91.91
918,C4,145.167,0.167,73,91.91
919,C5,145.333,0.167,73,91.91
920,A1,145.5,0.25,73,91.91
921,A2,145.5,0.25,73,91.91
922,A3,145.667,0.167,72,91.91
923,A4,145.833,0.167,73,91.91
924,E4,146.0,0.167,85,91.91
925,E2,146.0,1.0,92,91.91
926,E3,146.167,0.167,77,91.91
927,E4,146.333,0.167,77,91.91
928,E3,146.5,0.167,77,91.91
929,E4,146.667,0.167,77,91.91
930,E3,146.833,0.167,77,91.91
931,E2,147.0,0.25,76,91.91
932,E3,147.0,0.25,76,91.91
933,E4,147.167,0.167,70,91.91
934,E5,147.333,0.167,70,91.91
935,E2,147.5,0.25,76,91.91
936,E3,147.5,0.25,76,91.91
937,E4,147.667,0.167,71,91.91
938,E5,147.833,0.167,72,91.91
939,A2,148.0,0.25,74,91.91
940,A3,148.0,0.25,74,91.91
941,A4,148.167,0.167,73,91.91
942,A5,148.333,0.167,74,91.91
943,B2,148.5,0.25,76,91.91
944,B3,148.5,0.25,76,91.91
945,B4,148.667,0.167,75,91.91
946,B5,148.833,0.167,77,91.91
947,C3,149.0,0.25,78,91.91
948,C4,149.0,0.25,78,91.91
949,C5,149.167,0.167,78,91.91
950,C6,149.333,0.167,79,91.91
951,D3,149.5,0.25,82,91.91
952,D4,149.5,0.25,82,91.91
953,D5,149.667,0.167,80,91.91
954,D6,149.833,0.167,81,91.91
955,E6,150.0,0.167,85,91.91
956,E3,150.0,1.0,88,91.91
957,E4,150.0,1.0,88,91.91
958,E5,150.167,0.167,85,91.91
959,E6,150.333,0.167,84,91.91
960,E5,150.5,0.167,84,91.91
961,E6,150.667,0.167,84,91.91
962,E5,150.833,0.167,82,91.91
963,E3,151.0,0.25,81,91.91
964,E4,151.0,0.25,81,91.91
965,E5,151.167,0.167,79,91.91
966,E6,151.333,0.167,78,91.91
967,D3,151.5,0.25,80,91.91
968,D4,151.5,0.25,80,91.91
969,D5,151.667,0.167,77,91.91
970,D6,151.833,0.167,77,91.91
971,C3,152.0,0.25,78,91.91
972,C4,152.0,0.25,78,91.91
973,C5,152.167,0.167,75,91.91
974,C6,152.333,0.167,75,91.91
975,B2,152.5,0.25,76,91.91
976,B3,152.5,0.25,76,91.91
977,B4,152.667,0.167,74,91.91
978,B5,152.833,0.167,74,91.91
979,C3,153.0,0.25,74,91.91
980,C4,153.0,0.25,74,91.91
981,C5,153.167,0.167,73,91.91
982,C6,153.333,0.167,73,91.91
983,A2,153.5,0.25,73,91.91
984,A3,153.5,0.25,73,91.91
985,A4,153.667,0.167,72,91.91
986,A5,153.833,0.167,73,91.91
987,E5,154.0,0.167,82,91.91
988,E2,154.0,1.0,76,91.91
989,E3,154.0,1.0,76,91.91
990,E4,154.167,0.167,78,91.91
991,E5,154.333,0.167,78,91.91
992,E4,154.5,0.167,78,91.91
993,E5,154.667,0.167,78,91.91
994,E4,154.833,0.167,78,91.91
995,A5,155.0,0.167,80,91.91
996,F2,155.0,0.25,67,91.91
997,A2,155.0,0.25,67,91.91
998,F3,155.0,0.25,67,91.91
999,A4,155.167,0.167,75,91.91
1000,A5,155.333,0.167,75,91.91
1001,A4,155.5,0.167,75,91.91
1002,F2,155.5,0.25,64,91.91
1003,A2,155.5,0.25,64,91.91
1004,F3,155.5,0.25,64,91.91
1005,A5,155.667,0.167,75,91.91
1006,A4,155.833,0.167,75,91.91
1007,A5,156.0,0.167,82,91.91
1008,E2,156.0,0.25,67,91.91
1009,A2,156.0,0.25,67,91.91
1010,E3,156.0,0.25,67,91.91
1011,A4,156.167,0.167,75,91.91
1012,A5,156.333,0.167,75,91.91
1013,A4,156.5,0.167,75,91.91
1014,E2,156.5,0.25,67,91.91
1015,A2,156.5,0.25,67,91.91
1016,E3,156.5,0.25,67,91.91
1017,A5,156.667,0.167,75,91.91
1018,A4,156.833,0.167,75,91.91
1019,A5,157.0,0.167,82,91.91
1020,D2,157.0,0.25,67,91.91
1021,A2,157.0,0.25,67,91.91
1022,D3,157.0,0.25,67,91.91
1023,A4,157.167,0.167,75,91.91
1024,A5,157.333,0.167,75,91.91
1025,A4,157.5,0.167,75,91.91
1026,D2,157.5,0.25,67,91.91
1027,A2,157.5,0.25,67,91.91
1028,D3,157.5,0.25,67,91.91
1029,A5,157.667,0.167,75,91.91
1030,A4,157.833,0.167,75,91.91
1031,A5,158.0,0.167,81,91.91
1032,C2,158.0,0.25,67,91.91
1033,A2,158.0,0.25,67,91.91
1034,C3,158.0,0.25,67,91.91
1035,A4,158.167,0.167,75,91.91
1036,A5,158.333,0.167,75,91.91
1037,A4,158.5,0.167,75,91.91
1038,C2,158.5,0.25,67,91.91
1039,A2,158.5,0.25,67,91.91
1040,C3,158.5,0.25,67,91.91
1041,A5,158.667,0.167,75,91.91
1042,A4,158.833,0.167,75,91.91
1043,F5,159.0,0.167,81,91.91
1044,D2,159.0,0.25,64,91.91
1045,A2,159.0,0.25,64,91.91
1046,D3,159.0,0.25,64,91.91
1047,G5,159.167,0.167,77,91.91
1048,A5,159.333,0.167,77,91.91
1049,F5,159.5,0.167,79,91.91
1050,D2,159.5,0.25,63,91.91
1051,A2,159.5,0.25,63,91.91
1052,D3,159.5,0.25,63,91.91
1053,E5,159.667,0.167,75,91.91
1054,D5,159.833,0.167,75,91.91
1055,C5,160.0,0.167,80,91.91
1056,E2,160.0,0.25,67,91.91
1057,A2,160.0,0.25,67,91.91
1058,E3,160.0,0.25,67,91.91
1059,D5,160.167,0.167,74,91.91
1060,E5,160.333,0.167,74,91.91
1061,C5,160.5,0.167,78,91.91
1062,E2,160.5,0.25,70,91.91
1063,E3,160.5,0.25,70,91.91
1064,B4,160.667,0.167,71,91.91
1065,A4,160.833,0.167,71,91.91
1066,B4,161.0,0.167,81,91.91
1067,E2,161.0,0.25,68,91.91
1068,E3,161.0,0.25,68,91.91
1069,C5,161.167,0.167,73,91.91
1070,D5,161.333,0.167,73,91.91
1071,B4,161.5,0.167,79,91.91
1072,E2,161.5,0.25,68,91.91
1073,E3,161.5,0.25,68,91.91
1074,A4,161.667,0.167,75,91.91
1075,G#4,161.833,0.167,75,91.91
1076,A4,162.0,0.167,79,91.91
1077,C2,162.0,0.25,80,91.91
1078,A3,162.167,0.167,75,91.91
1079,A2,162.25,0.25,66,91.91
1080,A4,162.333,0.167,75,91.91
1081,A3,162.5,0.167,75,91.91
1082,G#2,162.5,0.25,66,91.91
1083,A4,162.667,0.167,75,91.91
1084,A2,162.75,0.25,66,91.91
1085,A3,162.833,0.167,75,91.91
1086,A4,163.0,0.167,80,91.91
1087,F2,163.0,0.25,84,91.91
1088,A3,163.167,0.167,75,91.91
1089,A2,163.25,0.25,64,91.91
1090,A4,163.333,0.167,75,91.91
1091,A3,163.5,0.167,75,91.91
1092,G#2,163.5,0.25,64,91.91
1093,A4,163.667,0.167,75,91.91
1094,A2,163.75,0.25,64,91.91
1095,A3,163.833,0.167,75,91.91
1096,A4,164.0,0.167,82,91.91
1097,E2,164.0,0.25,84,91.91
1098,A3,164.167,0.167,75,91.91
1099,A2,164.25,0.25,67,91.91
1100,A4,164.333,0.167,75,91.91
1101,A3,164.5,0.167,75,91.91
1102,G#2,164.5,0.25,67,91.91
1103,A4,164.667,0.167,75,91.91
1104,A2,164.75,0.25,67,91.91
1105,A3,164.833,0.167,75,91.91
1106,A4,165.0,0.167,82,91.91
1107,D2,165.0,0.25,82,91.91
1108,A3,165.167,0.167,75,91.91
1109,A2,165.25,0.25,66,91.91
1110,A4,165.333,0.167,75,91.91
1111,A3,165.5,0.167,75,91.91
1112,G#2,165.5,0.25,66,91.91
1113,A4,165.667,0.167,75,91.91
1114,A2,165.75,0.25,66,91.91
1115,A3,165.833,0.167,75,91.91
1116,A4,166.0,0.167,81,91.91
1117,C2,166.0,0.25,82,91.91
1118,A3,166.167,0.167,75,91.91
1119,A2,166.25,0.25,63,91.91
1120,A4,166.333,0.167,75,91.91
1121,A3,166.5,0.167,75,91.91
1122,G#2,166.5,0.25,66,91.91
1123,A4,166.667,0.167,75,91.91
1124,A2,166.75,0.25,67,91.91
1125,A3,166.833,0.167,75,91.91
1126,F4,167.0,0.167,81,91.91
1127,D2,167.0,0.25,85,91.91
1128,G4,167.167,0.167,77,91.91
1129,A2,167.25,0.25,66,91.91
1130,A4,167.333,0.167,77,91.91
1131,F4,167.5,0.167,79,91.91
1132,D2,167.5,0.25,66,91.91
1133,E4,167.667,0.167,75,91.91
1134,A2,167.75,0.25,66,91.91
1135,D4,167.833,0.167,75,91.91
1136,C4,168.0,0.167,80,91.91
1137,E2,168.0,0.25,85,91.91
1138,D4,168.167,0.167,74,91.91
1139,A2,168.25,0.25,67,91.91
1140,E4,168.333,0.167,74,91.91
1141,C4,168.5,0.167,78,91.91
1142,E2,168.5,0.25,74,91.91
1143,B3,168.667,0.167,71,91.91
1144,E3,168.75,0.25,67,91.91
1145,A3,168.833,0.167,71,91.91
1146,B3,169.0,0.167,81,91.91
1147,E2,169.0,0.25,83,91.91
1148,C4,169.167,0.167,73,91.91
1149,E3,169.25,0.25,66,91.91
1150,D4,169.333,0.167,73,91.91
1151,B3,169.5,0.167,79,91.91
1152,E2,169.5,0.25,69,91.91
1153,A3,169.667,0.167,75,91.91
1154,E3,169.75,0.25,63,91.91
1155,G#3,169.833,0.167,75,91.91
1156,A3,170.0,0.5,79,91.91
1157,A2,170.0,0.25,70,91.91
1158,E3,170.25,0.25,67,91.91
1159,C3,170.5,0.25,68,91.91
1160,E3,170.75,0.25,68,91.91
1161,A2,171.0,0.5,59,91.91
1162,B2,171.0,0.25,70,91.91
1163,E6,171.0,0.25,88,91.91
1164,E5,171.0,0.25,88,91.91
1165,E3,171.25,0.25,66,91.91
1166,A2,171.5,0.5,55,91.91
1167,D3,171.5,0.25,66,91.91
1168,E6,171.5,0.25,88,91.91
1169,E5,171.5,0.25,88,91.91
1170,E3,171.75,0.25,66,91.91
1171,A2,172.0,0.5,59,91.91
1172,C3,172.0,0.25,70,91.91
1173,E5,172.0,0.25,84,91.91
1174,E4,172.0,0.25,84,91.91
1175,E3,172.25,0.25,63,91.91
1176,A2,172.5,0.5,53,91.91
1177,C3,172.5,0.25,63,91.91
1178,E5,172.5,0.25,84,91.91
1179,E4,172.5,0.25,84,91.91
1180,E3,172.75,0.25,63,91.91
1181,A2,173.0,0.5,59,91.91
1182,B2,173.0,0.25,70,91.91
1183,E4,173.0,0.25,86,91.91
1184,E5,173.0,0.25,86,91.91
1185,E3,173.25,0.25,66,91.91
1186,A2,173.5,0.5,55,91.91
1187,D3,173.5,0.25,66,91.91
1188,G#4,173.5,0.25,90,91.91
1189,G#5,173.5,0.25,90,91.91
1190,E3,173.75,0.25,66,91.91
1191,A2,174.0,0.5,59,91.91
1192,C3,174.0,0.25,70,91.91
1193,A4,174.0,1.0,92,91.91
1194,A5,174.0,1.0,92,91.91
1195,A3,174.25,0.25,63,91.91
1196,E3,174.5,0.25,63,91.91
1197,A3,174.75,0.25,63,91.91
1198,B5,175.0,0.25,58,91.91
1199,A2,175.0,0.5,36,91.91
1200,D3,175.0,0.25,43,91.91
1201,D6,175.25,0.25,53,91.91
1202,G#3,175.25,0.25,37,91.91
1203,C6,175.5,0.25,53,91.91
1204,E3,175.5,0.25,37,91.91
1205,B5,175.75,0.25,53,91.91
1206,G#3,175.75,0.25,37,91.91
1207,C6,176.0,0.25,56,91.91
1208,A2,176.0,0.5,36,91.91
1209,C3,176.0,0.25,44,91.91
1210,E6,176.25,0.25,53,91.91
1211,A3,176.25,0.25,38,91.91
1212,D6,176.5,0.25,53,91.91
1213,E3,176.5,0.25,38,91.91
1214,C6,176.75,0.25,53,91.91
1215,A3,176.75,0.25,38,91.91
1216,B5,177.0,0.25,58,91.91
1217,A2,177.0,0.5,36,91.91
1218,D3,177.0,0.25,44,91.91
1219,D6,177.25,0.25,53,91.91
1220,G#3,177.25,0.25,38,91.91
1221,C6,177.5,0.25,53,91.91
1222,E3,177.5,0.25,38,91.91
1223,B5,177.75,0.25,53,91.91
1224,G#3,177.75,0.25,38,91.91
1225,A5,178.0,1.0,52,91.91
1226,A2,178.0,0.5,36,91.91
1227,C3,178.0,0.25,44,91.91
1228,A3,178.25,0.25,37,91.91
1229,E3,178.5,0.25,37,91.91
1230,A3,178.75,0.25,37,91.91
1231,A2,179.0,0.5,59,91.91
1232,B2,179.0,0.25,70,91.91
1233,E6,179.0,0.25,88,91.91
1234,E5,179.0,0.25,88,91.91
1235,E3,179.25,0.25,66,91.91
1236,A2,179.5,0.5,55,91.91
1237,D3,179.5,0.25,66,91.91
1238,E6,179.5,0.25,88,91.91
1239,E5,179.5,0.25,88,91.91
1240,E3,179.75,0.25,66,91.91
1241,A2,180.0,0.5,59,91.91
1242,C3,180.0,0.25,70,91.91
1243,E5,180.0,0.25,84,91.91
1244,E4,180.0,0.25,84,91.91
1245,E3,180.25,0.25,63,91.91
1246,A2,180.5,0.5,53,91.91
1247,C3,180.5,0.25,63,91.91
1248,E5,180.5,0.25,84,91.91
1249,E4,180.5,0.25,84,91.91
1250,E3,180.75,0.25,63,91.91
1251,A2,181.0,0.5,59,91.91
1252,B2,181.0,0.25,70,91.91
1253,E4,181.0,0.25,86,91.91
1254,E5,181.0,0.25,86,91.91
1255,E3,181.25,0.25,66,91.91
1256,A2,181.5,0.5,55,91.91
1257,D3,181.5,0.25,66,91.91
1258,G#4,181.5,0.25,90,91.91
1259,G#5,181.5,0.25,90,91.91
1260,E3,181.75,0.25,66,91.91
1261,A2,182.0,0.5,59,91.91
1262,C3,182.0,0.25,70,91.91
1263,A4,182.0,1.0,92,91.91
1264,A5,182.0,1.0,92,91.91
1265,A3,182.25,0.25,63,91.91
1266,E3,182.5,0.25,63,91.91
1267,A3,182.75,0.25,63,91.91
1268,B5,183.0,0.25,58,91.91
1269,D3,183.0,0.25,43,91.91
1270,A2,183.0,0.5,36,91.91
1271,D6,183.25,0.25,53,91.91
1272,G#3,183.25,0.25,37,91.91
1273,C6,183.5,0.25,53,91.91
1274,E3,183.5,0.25,37,91.91
1275,B5,183.75,0.25,52,91.91
1276,G#3,183.75,0.25,37,91.91
1277,C6,184.0,0.25,55,91.91
1278,C3,184.0,0.25,43,91.91
1279,A2,184.0,0.5,35,91.91
1280,E6,184.25,0.25,52,91.91
1281,A3,184.25,0.25,37,91.91
1282,D6,184.5,0.25,51,91.91
1283,E3,184.5,0.25,37,91.91
1284,C6,184.75,0.25,51,91.91
1285,A3,184.75,0.25,37,91.91
1286,B5,185.0,0.25,56,91.91
1287,D3,185.0,0.25,43,91.91
1288,A2,185.0,0.5,35,91.91
1289,D6,185.25,0.25,51,91.91
1290,G#3,185.25,0.25,37,91.91
1291,C6,185.5,0.25,51,91.91
1292,E3,185.5,0.25,37,91.91
1293,B5,185.75,0.25,51,91.91
1294,G#3,185.75,0.25,37,91.91
1295,A5,186.0,0.25,53,91.91
1296,A2,186.0,0.5,34,91.91
1297,C3,186.0,0.25,42,91.91
1298,C6,186.25,0.25,49,91.91
1299,A3,186.25,0.25,36,91.91
1300,B5,186.5,0.25,48,91.91
1301,E3,186.5,0.25,35,91.91
1302,A5,186.75,0.25,48,91.91
1303,A3,186.75,0.25,35,91.91
1304,B5,187.0,0.25,52,91.91
1305,D3,187.0,0.25,37,91.91
1306,A2,187.0,0.5,32,91.91
1307,D6,187.25,0.25,46,91.91
1308,G#3,187.25,0.25,33,91.91
1309,C6,187.5,0.25,46,91.91
1310,E3,187.5,0.25,33,91.91
1311,B5,187.75,0.25,45,91.91
1312,G#3,187.75,0.25,32,91.91
1313,C6,188.0,0.25,46,91.91
1314,C3,188.0,0.25,38,91.91
1315,A2,188.0,0.5,31,91.91
1316,E6,188.25,0.25,43,91.91
1317,A3,188.25,0.25,33,91.91
1318,D6,188.5,0.25,42,91.91
1319,E3,188.5,0.25,32,91.91
1320,C6,188.75,0.25,42,91.91
1321,A3,188.75,0.25,32,91.91
1322,B5,189.0,0.25,45,91.91
1323,D3,189.0,0.25,34,91.91
1324,A2,189.0,0.5,29,91.91
1325,D6,189.25,0.25,40,91.91
1326,G#3,189.25,0.25,31,91.91
1327,C6,189.5,0.25,39,91.91
1328,E3,189.5,0.25,29,91.91
1329,B5,189.75,0.25,39,91.91
1330,G#3,189.75,0.25,29,91.91
1331,A5,190.0,0.25,39,91.91
1332,A2,190.0,0.5,26,91.91
1333,C3,190.0,0.25,32,91.91
1334,C6,190.25,0.25,37,91.91
1335,A3,190.25,0.25,28,91.91
1336,B5,190.5,0.25,37,91.91
1337,E3,190.5,0.25,28,91.91
1338,A5,190.75,0.25,37,91.91
1339,A3,190.75,0.25,28,91.91
1340,B5,191.0,0.25,41,91.91
1341,D3,191.0,0.25,32,91.91
1342,A2,191.0,0.5,26,91.91
1343,D6,191.25,0.25,37,91.91
1344,G#3,191.25,0.25,28,91.91
1345,C6,191.5,0.25,37,91.91
1346,E3,191.5,0.25,28,91.91
1347,B5,191.75,0.25,37,91.91
1348,G#3,191.75,0.25,28,91.91
1349,A5,192.0,0.25,39,91.91
1350,A2,192.0,0.5,26,91.91
1351,C3,192.0,0.25,32,91.91
1352,C6,192.25,0.25,37,91.91
1353,A3,192.25,0.25,28,91.91
1354,B5,192.5,0.25,37,91.91
1355,E3,192.5,0.25,28,91.91
1356,A5,192.75,0.25,37,91.91
1357,A3,192.75,0.25,28,91.91
1358,B5,193.0,0.25,41,91.91
1359,D3,193.0,0.25,32,91.91
1360,A2,193.0,0.5,26,91.91
1361,D6,193.25,0.25,37,91.91
1362,G#3,193.25,0.25,28,91.91
1363,C6,193.5,0.25,37,91.91
1364,E3,193.5,0.25,28,91.91
1365,B5,193.75,0.25,37,91.91
1366,G#3,193.75,0.25,28,91.91
1367,A5,194.0,0.5,92,91.91
1368,A2,194.0,0.5,62,91.91
1369,A3,194.0,0.5,62,91.91
1370,E5,195.0,0.5,92,91.91
1371,E4,195.0,0.5,63,91.91
1372,E5,196.0,1.5,97,91.91
1373,E4,196.0,1.5,74,91.91
1374,C5,197.5,0.5,53,91.91
1375,C4,197.5,0.5,47,91.91
1376,B4,198.0,1.0,58,91.91
1377,B3,198.0,1.0,50,91.91
1378,E4,199.0,1.0,54,91.91
1379,E3,199.0,1.0,47,91.91
1380,A4,200.0,0.5,54,91.91
1381,A3,200.0,0.5,47,91.91
1382,F3,202.0,0.5,102,91.91
1383,F1,202.0,0.5,74,91.91
1384,F2,202.0,0.5,74,91.91
1385,C4,203.0,0.5,74,91.91
1386,C5,203.0,0.5,92,91.91
1387,C6,203.0,0.5,92,91.91
1388,C4,204.0,1.5,79,91.91
1389,C5,204.0,1.5,95,91.91
1390,C6,204.0,1.5,95,91.91
1391,A3,205.5,0.5,48,91.91
1392,A4,205.5,0.5,57,91.91
1393,A5,205.5,0.5,57,91.91
1394,G3,206.0,1.0,53,91.91
1395,G4,206.0,1.0,60,91.91
1396,G5,206.0,1.0,60,91.91
1397,C3,207.0,1.0,49,91.91
1398,C4,207.0,1.0,56,91.91
1399,C5,207.0,1.0,56,91.91
1400,F3,208.0,0.5,49,91.91
1401,F4,208.0,0.5,56,91.91
1402,F5,208.0,0.5,56,91.91
1403,G3,210.0,0.5,103,91.91
1404,G1,210.0,0.5,90,91.91
1405,G2,210.0,0.5,90,91.91
1406,F4,211.0,0.5,80,91.91
1407,F5,211.0,0.5,76,91.91
1408,F6,211.0,0.5,76,91.91
1409,F4,212.0,1.5,81,91.91
1410,F5,212.0,1.5,80,91.91
1411,F6,212.0,1.5,80,91.91
1412,D4,213.5,0.5,53,91.91
1413,D5,213.5,0.5,61,91.91
1414,D6,213.5,0.5,61,91.91
1415,B3,214.0,1.0,59,91.91
1416,B4,214.0,1.0,64,91.91
1417,B5,214.0,1.0,64,91.91
1418,G3,215.0,1.0,55,91.91
1419,G4,215.0,1.0,54,91.91
1420,G5,215.0,1.0,54,91.91
1421,F3,216.0,1.5,55,91.91
1422,F4,216.0,1.5,59,91.91
1423,F5,216.0,1.5,59,91.91
1424,D3,217.5,0.5,44,91.91
1425,D4,217.5,0.5,48,91.91
1426,D5,217.5,0.5,48,91.91
1427,B2,218.0,1.0,51,91.91
1428,B3,218.0,1.0,50,91.91
1429,B4,218.0,1.0,50,91.91
1430,G2,219.0,1.0,36,91.91
1431,G3,219.0,1.0,45,91.91
1432,G4,219.0,1.0,45,91.91
1433,F2,220.0,1.5,41,91.91
1434,F3,220.0,1.5,47,91.91
1435,F4,220.0,1.5,47,91.91
1436,D2,221.5,0.5,33,91.91
1437,D3,221.5,0.5,37,91.91
1438,D4,221.5,0.5,37,91.91
1439,B1,222.0,1.0,33,91.91
1440,B2,222.0,1.0,37,91.91
1441,B3,222.0,1.0,37,91.91
1442,G3,224.0,1.0,40,91.91
1443,G1,224.0,1.0,30,91.91
1444,G2,224.0,1.0,30,91.91
1445,C2,226.0,0.5,50,91.91
1446,E3,226.25,0.25,28,91.91
1447,G3,226.5,0.25,30,91.91
1448,C4,226.75,0.25,32,91.91
1449,E4,227.0,0.25,34,91.91
1450,G5,227.0,0.5,50,91.91
1451,E3,227.25,0.25,31,91.91
1452,G3,227.5,0.25,31,91.91
1453,C4,227.75,0.25,31,91.91
1454,E4,228.0,0.25,35,91.91
1455,G5,228.0,1.5,54,91.91
1456,E3,228.25,0.25,30,91.91
1457,G3,228.5,0.25,31,91.91
1458,C4,228.75,0.25,33,91.91
1459,E4,229.0,0.25,36,91.91
1460,E3,229.25,0.25,33,91.91
1461,G3,229.5,0.25,33,91.91
1462,E5,229.5,0.5,47,91.91
1463,C4,229.75,0.25,33,91.91
1464,D5,230.0,1.0,50,91.91
1465,F3,230.25,0.25,28,91.91
1466,G3,230.5,0.25,31,91.91
1467,B3,230.75,0.25,33,91.91
1468,D4,231.0,0.25,36,91.91
1469,G4,231.0,1.0,41,91.91
1470,F3,231.25,0.25,33,91.91
1471,G3,231.5,0.25,33,91.91
1472,B3,231.75,0.25,34,91.91
1473,C5,232.0,1.0,50,91.91
1474,E3,232.25,0.25,28,91.91
1475,G3,232.5,0.25,30,91.91
1476,C4,232.75,0.25,32,91.91
1477,E4,233.0,0.25,34,91.91
1478,E5,233.0,0.5,47,91.91
1479,E3,233.25,0.25,32,91.91
1480,G3,233.5,0.25,32,91.91
1481,C4,233.75,0.25,33,91.91
1482,C3,233.75,0.25,31,91.91
1483,C2,234.0,0.5,50,91.91
1484,E3,234.25,0.25,28,91.91
1485,G3,234.5,0.25,30,91.91
1486,C4,234.75,0.25,32,91.91
1487,E4,235.0,0.25,34,91.91
1488,G5,235.0,0.5,50,91.91
1489,E3,235.25,0.25,31,91.91
1490,G3,235.5,0.25,31,91.91
1491,C4,235.75,0.25,31,91.91
1492,E4,236.0,0.25,35,91.91
1493,G5,236.0,1.5,54,91.91
1494,E3,236.25,0.25,30,91.91
1495,G3,236.5,0.25,31,91.91
1496,C4,236.75,0.25,33,91.91
1497,E4,237.0,0.25,36,91.91
1498,E3,237.25,0.25,33,91.91
1499,G3,237.5,0.25,33,91.91
1500,E5,237.5,0.5,47,91.91
1501,C4,237.75,0.25,33,91.91
1502,D5,238.0,1.0,50,91.91
1503,F3,238.25,0.25,28,91.91
1504,G3,238.5,0.25,31,91.91
1505,B3,238.75,0.25,33,91.91
1506,D4,239.0,0.25,36,91.91
1507,G4,239.0,1.0,41,91.91
1508,F3,239.25,0.25,33,91.91
1509,G3,239.5,0.25,33,91.91
1510,B3,239.75,0.25,34,91.91
1511,C5,240.0,0.5,50,91.91
1512,E3,240.5,0.25,30,91.91
1513,G3,240.75,0.25,32,91.91
1514,C4,241.0,0.25,34,91.91
1515,E4,241.25,0.25,32,91.91
1516,D4,241.5,0.25,32,91.91
1517,C4,241.75,0.25,33,91.91
1518,G2,241.75,0.25,30,91.91
1519,B3,242.0,0.25,35,91.91
1520,G1,242.0,0.5,45,91.91
1521,G3,242.25,0.25,28,91.91
1522,B3,242.5,0.25,30,91.91
1523,D4,242.75,0.25,32,91.91
1524,G4,243.0,0.25,34,91.91
1525,F5,243.0,0.5,50,91.91
1526,G3,243.25,0.25,31,91.91
1527,B3,243.5,0.25,31,91.91
1528,D4,243.75,0.25,31,91.91
1529,G4,244.0,0.25,35,91.91
1530,F5,244.0,1.5,54,91.91
1531,G3,244.25,0.25,30,91.91
1532,B3,244.5,0.25,31,91.91
1533,D4,244.75,0.25,33,91.91
1534,G4,245.0,0.25,36,91.91
1535,G3,245.25,0.25,33,91.91
1536,B3,245.5,0.25,33,91.91
1537,D5,245.5,0.5,47,91.91
1538,G4,245.75,0.25,33,91.91
1539,E5,246.0,1.0,50,91.91
1540,G3,246.25,0.25,28,91.91
1541,C4,246.5,0.25,31,91.91
1542,G4,246.75,0.25,33,91.91
1543,C5,247.0,1.0,41,91.91
1544,G3,247.25,0.25,28,91.91
1545,E4,247.5,0.25,31,91.91
1546,G4,247.75,0.25,33,91.91
1547,B4,248.0,1.0,50,91.91
1548,G3,248.25,0.25,28,91.91
1549,D4,248.5,0.25,30,91.91
1550,G4,248.75,0.25,32,91.91
1551,D5,249.0,0.5,47,91.91
1552,G3,249.25,0.25,28,91.91
1553,B3,249.5,0.25,30,91.91
1554,G4,249.75,0.25,32,91.91
1555,G2,249.75,0.25,32,91.91
1556,G1,250.0,0.5,48,91.91
1557,G3,250.25,0.25,28,91.91
1558,B3,250.5,0.25,30,91.91
1559,D4,250.75,0.25,32,91.91
1560,G4,251.0,0.25,34,91.91
1561,F5,251.0,0.5,50,91.91
1562,G3,251.25,0.25,31,91.91
1563,B3,251.5,0.25,31,91.91
1564,D4,251.75,0.25,31,91.91
1565,G4,252.0,0.25,35,91.91
1566,F5,252.0,1.5,54,91.91
1567,G3,252.25,0.25,30,91.91
1568,B3,252.5,0.25,31,91.91
1569,D4,252.75,0.25,33,91.91
1570,G4,253.0,0.25,36,91.91
1571,G3,253.25,0.25,33,91.91
1572,B3,253.5,0.25,33,91.91
1573,D5,253.5,0.5,47,91.91
1574,G4,253.75,0.25,33,91.91
1575,E-5,254.0,1.0,50,91.91
1576,G3,254.25,0.25,28,91.91
1577,C4,254.5,0.25,31,91.91
1578,G4,254.75,0.25,33,91.91
1579,C5,255.0,1.0,41,91.91
1580,G3,255.25,0.25,28,91.91
1581,E-4,255.5,0.25,31,91.91
1582,G4,255.75,0.25,33,91.91
1583,B4,256.0,1.0,50,91.91
1584,G3,256.25,0.25,28,91.91
1585,D4,256.5,0.25,30,91.91
1586,G4,256.75,0.25,32,91.91
1587,D5,257.0,1.0,47,91.91
1588,G3,257.25,0.25,28,91.91
1589,B3,257.5,0.25,30,91.91
1590,G4,257.75,0.25,32,91.91
1591,E5,258.0,1.0,50,91.91
1592,G3,258.25,0.25,28,91.91
1593,C4,258.5,0.25,31,91.91
1594,G4,258.75,0.25,33,91.91
1595,C5,259.0,1.0,41,91.91
1596,G3,259.25,0.25,28,91.91
1597,E4,259.5,0.25,31,91.91
1598,G4,259.75,0.25,33,91.91
1599,B4,260.0,1.0,50,91.91
1600,G3,260.25,0.25,28,91.91
1601,D4,260.5,0.25,30,91.91
1602,G4,260.75,0.25,32,91.91
1603,D5,261.0,1.0,47,91.91
1604,G3,261.25,0.25,28,91.91
1605,B3,261.5,0.25,30,91.91
1606,G4,261.75,0.25,32,91.91
1607,E-5,262.0,1.0,50,91.91
1608,G3,262.25,0.25,28,91.91
1609,C4,262.5,0.25,31,91.91
1610,G4,262.75,0.25,33,91.91
1611,C5,263.0,1.0,41,91.91
1612,G3,263.25,0.25,28,91.91
1613,C4,263.5,0.25,31,91.91
1614,E-4,263.75,0.25,33,91.91
1615,G5,264.0,0.99,50,91.91
1616,G3,264.25,0.25,28,91.91
1617,B3,264.5,0.25,30,91.91
1618,D4,264.75,0.25,32,91.91
1619,G5,265.0,0.99,47,91.91
1620,G3,265.25,0.25,28,91.91
1621,C4,265.5,0.25,30,91.91
1622,E-4,265.75,0.25,32,91.91
1623,G5,266.0,0.99,50,91.91
1624,G3,266.25,0.25,28,91.91
1625,B3,266.5,0.25,30,91.91
1626,D4,266.75,0.25,32,91.91
1627,G5,267.0,0.99,47,91.91
1628,G3,267.25,0.25,28,91.91
1629,C4,267.5,0.25,30,91.91
1630,E-4,267.75,0.25,32,91.91
1631,G5,268.0,0.99,50,91.91
1632,G3,268.25,0.25,28,91.91
1633,B3,268.5,0.25,30,91.91
1634,D4,268.75,0.25,32,91.91
1635,G5,269.0,0.99,47,91.91
1636,G3,269.25,0.25,28,91.91
1637,A3,269.5,0.25,30,91.91
1638,C4,269.75,0.25,32,91.91
1639,G5,270.0,1.0,47,91.91
1640,G3,270.25,0.25,36,91.91
1641,B3,270.5,0.25,38,91.91
1642,D4,270.75,0.25,35,91.91
1643,G4,271.0,0.25,43,91.91
1644,B4,271.25,0.25,39,91.91
1645,A4,271.5,0.25,41,91.91
1646,F#4,271.75,0.25,38,91.91
1647,G4,272.0,0.25,43,91.91
1648,B3,272.25,0.25,38,91.91
1649,D4,272.5,0.25,41,91.91
1650,G4,272.75,0.25,38,91.91
1651,B4,273.0,0.25,46,91.91
1652,D5,273.25,0.25,41,91.91
1653,C5,273.5,0.25,41,91.91
1654,A4,273.75,0.25,37,91.91
1655,B4,274.0,0.25,47,91.91
1656,G4,274.25,0.25,42,91.91
1657,B4,274.5,0.25,47,91.91
1658,D5,274.75,0.25,43,91.91
1659,G5,275.0,0.25,51,91.91
1660,B5,275.25,0.25,46,91.91
1661,A5,275.5,0.25,48,91.91
1662,F#5,275.75,0.25,43,91.91
1663,G5,276.0,0.25,52,91.91
1664,B5,276.25,0.25,52,91.91
1665,A5,276.5,0.25,53,91.91
1666,C6,276.75,0.25,54,91.91
1667,B5,277.0,0.25,55,91.91
1668,D6,277.25,0.25,56,91.91
1669,C#6,277.5,0.25,56,91.91
1670,E6,277.75,0.25,57,91.91
1671,D6,278.0,0.25,58,91.91
1672,F6,278.25,0.25,59,91.91
1673,E6,278.5,0.25,60,91.91
1674,G6,278.75,0.25,56,91.91
1675,F6,279.0,0.25,61,91.91
1676,A6,279.25,0.25,62,91.91
1677,F6,279.5,0.25,63,91.91
1678,E6,279.75,0.25,59,91.91
1679,D6,280.0,0.25,65,91.91
1680,F6,280.25,0.25,66,91.91
1681,E6,280.5,0.25,66,91.91
1682,G6,280.75,0.25,64,91.91
1683,F6,281.0,0.25,68,91.91
1684,A6,281.25,0.25,69,91.91
1685,F6,281.5,0.25,70,91.91
1686,E6,281.75,0.25,66,91.91
1687,D6,282.0,0.25,69,91.91
1688,F6,282.25,0.25,65,91.91
1689,E6,282.5,0.25,67,91.91
1690,C6,282.75,0.25,60,91.91
1691,B5,283.0,0.25,64,91.91
1692,D6,283.25,0.25,59,91.91
1693,C6,283.5,0.25,62,91.91
1694,A5,283.75,0.25,55,91.91
1695,G5,284.0,0.25,59,91.91
1696,B5,284.25,0.25,54,91.91
1697,A5,284.5,0.25,56,91.91
1698,F5,284.75,0.25,51,91.91
1699,E5,285.0,0.25,54,91.91
1700,G5,285.25,0.25,46,91.91
1701,F5,285.5,0.25,49,91.91
1702,D5,285.75,0.25,42,91.91
1703,C5,286.0,0.25,49,91.91
1704,C2,286.0,0.25,50,91.91
1705,G2,286.25,0.25,30,91.91
1706,C3,286.5,0.25,32,91.91
1707,E3,286.75,0.25,34,91.91
1708,G3,287.0,0.25,31,91.91
1709,G6,287.0,0.5,50,91.91
1710,G5,287.0,0.5,50,91.91
1711,C3,287.25,0.25,31,91.91
1712,E3,287.5,0.25,31,91.91
1713,G3,287.75,0.25,35,91.91
1714,C4,288.0,0.25,30,91.91
1715,G6,288.0,1.5,54,91.91
1716,G5,288.0,1.5,54,91.91
1717,E3,288.25,0.25,31,91.91
1718,G3,288.5,0.25,33,91.91
1719,C4,288.75,0.25,36,91.91
1720,E4,289.0,0.25,33,91.91
1721,G3,289.25,0.25,33,91.91
1722,C4,289.5,0.25,33,91.91
1723,E6,289.5,0.5,47,91.91
1724,E5,289.5,0.5,47,91.91
1725,E4,289.75,0.25,36,91.91
1726,F4,290.0,0.25,28,91.91
1727,D6,290.0,1.0,50,91.91
1728,D5,290.0,1.0,50,91.91
1729,E4,290.25,0.25,31,91.91
1730,D4,290.5,0.25,33,91.91
1731,C4,290.75,0.25,36,91.91
1732,B3,291.0,0.25,33,91.91
1733,G5,291.0,1.0,41,91.91
1734,G4,291.0,1.0,41,91.91
1735,A3,291.25,0.25,33,91.91
1736,G3,291.5,0.25,34,91.91
1737,F3,291.75,0.25,34,91.91
1738,E3,292.0,0.25,28,91.91
1739,C6,292.0,1.0,50,91.91
1740,C5,292.0,1.0,50,91.91
1741,G3,292.25,0.25,30,91.91
1742,C3,292.5,0.25,32,91.91
1743,E3,292.75,0.25,34,91.91
1744,G2,293.0,0.25,32,91.91
1745,E6,293.0,0.5,47,91.91
1746,E5,293.0,0.5,47,91.91
1747,C3,293.25,0.25,32,91.91
1748,E2,293.5,0.25,33,91.91
1749,G2,293.75,0.25,34,91.91
1750,C2,294.0,0.25,50,91.91
1751,G2,294.25,0.25,30,91.91
1752,C3,294.5,0.25,32,91.91
1753,E3,294.75,0.25,34,91.91
1754,G3,295.0,0.25,31,91.91
1755,G6,295.0,0.5,50,91.91
1756,G5,295.0,0.5,50,91.91
1757,C3,295.25,0.25,31,91.91
1758,E3,295.5,0.25,31,91.91
1759,G3,295.75,0.25,35,91.91
1760,C4,296.0,0.25,30,91.91
1761,G6,296.0,1.5,54,91.91
1762,G5,296.0,1.5,54,91.91
1763,E3,296.25,0.25,31,91.91
1764,G3,296.5,0.25,33,91.91
1765,C4,296.75,0.25,36,91.91
1766,E4,297.0,0.25,33,91.91
1767,G3,297.25,0.25,33,91.91
1768,C4,297.5,0.25,33,91.91
1769,E6,297.5,0.5,47,91.91
1770,E5,297.5,0.5,47,91.91
1771,E4,297.75,0.25,33,91.91
1772,F4,298.0,0.25,28,91.91
1773,D6,298.0,1.0,50,91.91
1774,D5,298.0,1.0,50,91.91
1775,E4,298.25,0.25,31,91.91
1776,D4,298.5,0.25,33,91.91
1777,C4,298.75,0.25,36,91.91
1778,B3,299.0,0.25,33,91.91
1779,G5,299.0,1.0,41,91.91
1780,G4,299.0,1.0,41,91.91
1781,G3,299.25,0.25,33,91.91
1782,A3,299.5,0.25,34,91.91
1783,B3,299.75,0.25,34,91.91
1784,C4,300.0,0.25,28,91.91
1785,C6,300.0,0.5,50,91.91
1786,C5,300.0,0.5,50,91.91
1787,B3,300.25,0.25,30,91.91
1788,A3,300.5,0.25,32,91.91
1789,G3,300.75,0.25,34,91.91
1790,F3,301.0,0.25,32,91.91
1791,E3,301.25,0.25,32,91.91
1792,D3,301.5,0.25,33,91.91
1793,C3,301.75,0.25,35,91.91
1794,G2,302.0,0.25,45,91.91
1795,B2,302.25,0.25,30,91.91
1796,D3,302.5,0.25,32,91.91
1797,G3,302.75,0.25,34,91.91
1798,B2,303.0,0.25,31,91.91
1799,F6,303.0,0.5,50,91.91
1800,F5,303.0,0.5,50,91.91
1801,D3,303.25,0.25,31,91.91
1802,G3,303.5,0.25,31,91.91
1803,B3,303.75,0.25,35,91.91
1804,D3,304.0,0.25,30,91.91
1805,F6,304.0,1.5,54,91.91
1806,F5,304.0,1.5,54,91.91
1807,G3,304.25,0.25,31,91.91
1808,B3,304.5,0.25,33,91.91
1809,D4,304.75,0.25,36,91.91
1810,G3,305.0,0.25,33,91.91
1811,B3,305.25,0.25,33,91.91
1812,D4,305.5,0.25,33,91.91
1813,D6,305.5,0.5,47,91.91
1814,D5,305.5,0.5,47,91.91
1815,G4,305.75,0.25,36,91.91
1816,G3,306.0,0.25,28,91.91
1817,E6,306.0,1.0,50,91.91
1818,E5,306.0,1.0,50,91.91
1819,C4,306.25,0.25,31,91.91
1820,G4,306.5,0.25,33,91.91
1821,C4,306.75,0.25,36,91.91
1822,G3,307.0,0.25,28,91.91
1823,C6,307.0,1.0,41,91.91
1824,C5,307.0,1.0,41,91.91
1825,E4,307.25,0.25,31,91.91
1826,G4,307.5,0.25,33,91.91
1827,E4,307.75,0.25,36,91.91
1828,G3,308.0,0.25,28,91.91
1829,B5,308.0,1.0,50,91.91
1830,B4,308.0,1.0,50,91.91
1831,D4,308.25,0.25,30,91.91
1832,G4,308.5,0.25,32,91.91
1833,D4,308.75,0.25,36,91.91
1834,G3,309.0,0.25,28,91.91
1835,D6,309.0,0.5,47,91.91
1836,D5,309.0,0.5,47,91.91
1837,B3,309.25,0.25,30,91.91
1838,G4,309.5,0.25,32,91.91
1839,B3,309.75,0.25,35,91.91
1840,G2,310.0,0.25,48,91.91
1841,B2,310.25,0.25,30,91.91
1842,D3,310.5,0.25,32,91.91
1843,G3,310.75,0.25,34,91.91
1844,B2,311.0,0.25,31,91.91
1845,F6,311.0,0.5,50,91.91
1846,F5,311.0,0.5,50,91.91
1847,D3,311.25,0.25,31,91.91
1848,G3,311.5,0.25,31,91.91
1849,B3,311.75,0.25,35,91.91
1850,D3,312.0,0.25,30,91.91
1851,F6,312.0,1.5,54,91.91
1852,F5,312.0,1.5,54,91.91
1853,G3,312.25,0.25,31,91.91
1854,B3,312.5,0.25,33,91.91
1855,D4,312.75,0.25,36,91.91
1856,G3,313.0,0.25,33,91.91
1857,B3,313.25,0.25,33,91.91
1858,D4,313.5,0.25,33,91.91
1859,D6,313.5,0.5,47,91.91
1860,D5,313.5,0.5,47,91.91
1861,G4,313.75,0.25,36,91.91
1862,G3,314.0,0.25,28,91.91
1863,E-6,314.0,1.0,50,91.91
1864,E-5,314.0,1.0,50,91.91
1865,C4,314.25,0.25,31,91.91
1866,G4,314.5,0.25,33,91.91
1867,C4,314.75,0.25,35,91.91
1868,G3,315.0,0.25,28,91.91
1869,C6,315.0,1.0,41,91.91
1870,C5,315.0,1.0,41,91.91
1871,E-4,315.25,0.25,31,91.91
1872,G4,315.5,0.25,33,91.91
1873,E-4,315.75,0.25,35,91.91
1874,G3,316.0,0.25,28,91.91
1875,B5,316.0,1.0,50,91.91
1876,B4,316.0,1.0,50,91.91
1877,D4,316.25,0.25,30,91.91
1878,G4,316.5,0.25,32,91.91
1879,D4,316.75,0.25,35,91.91
1880,G3,317.0,0.25,28,91.91
1881,D6,317.0,1.0,47,91.91
1882,D5,317.0,1.0,47,91.91
1883,B3,317.25,0.25,30,91.91
1884,G4,317.5,0.25,32,91.91
1885,B3,317.75,0.25,35,91.91
1886,G3,318.0,0.25,28,91.91
1887,E6,318.0,1.0,50,91.91
1888,E5,318.0,1.0,50,91.91
1889,C4,318.25,0.25,31,91.91
1890,G4,318.5,0.25,33,91.91
1891,C4,318.75,0.25,35,91.91
1892,G3,319.0,0.25,28,91.91
1893,C6,319.0,1.0,42,91.91
1894,C5,319.0,1.0,42,91.91
1895,E4,319.25,0.25,32,91.91
1896,G4,319.5,0.25,34,91.91
1897,E4,319.75,0.25,37,91.91
1898,G3,320.0,0.25,29,91.91
1899,B5,320.0,1.0,53,91.91
1900,B4,320.0,1.0,53,91.91
1901,D4,320.25,0.25,32,91.91
1902,G4,320.5,0.25,34,91.91
1903,D4,320.75,0.25,38,91.91
1904,G3,321.0,0.25,31,91.91
1905,D6,321.0,1.0,52,91.91
1906,D5,321.0,1.0,52,91.91
1907,B3,321.25,0.25,33,91.91
1908,G4,321.5,0.25,36,91.91
1909,B3,321.75,0.25,39,91.91
1910,G3,322.0,0.25,28,91.91
1911,E-6,322.0,1.0,50,91.91
1912,E-5,322.0,1.0,50,91.91
1913,C4,322.25,0.25,31,91.91
1914,G4,322.5,0.25,33,91.91
1915,C4,322.75,0.25,35,91.91
1916,G3,323.0,0.25,28,91.91
1917,C6,323.0,1.0,41,91.91
1918,C5,323.0,1.0,41,91.91
1919,C4,323.25,0.25,31,91.91
1920,E-4,323.5,0.25,33,91.91
1921,C4,323.75,0.25,35,91.91
1922,G5,324.0,1.0,50,91.91
1923,G3,324.0,0.25,28,91.91
1924,B3,324.25,0.25,30,91.91
1925,D4,324.5,0.25,32,91.91
1926,B3,324.75,0.25,35,91.91
1927,G5,325.0,1.0,47,91.91
1928,G3,325.0,0.25,28,91.91
1929,C4,325.25,0.25,30,91.91
1930,E-4,325.5,0.25,32,91.91
1931,C4,325.75,0.25,35,91.91
1932,A5,326.0,0.167,37,91.91
1933,G3,326.0,0.125,47,91.91
1934,G5,326.167,0.167,37,91.91
1935,B3,326.25,0.25,30,91.91
1936,A5,326.333,0.167,37,91.91
1937,G5,326.5,0.167,37,91.91
1938,D4,326.5,0.25,31,91.91
1939,A5,326.667,0.167,38,91.91
1940,B3,326.75,0.25,32,91.91
1941,G5,326.833,0.167,38,91.91
1942,A5,327.0,0.167,39,91.91
1943,G3,327.0,0.125,53,91.91
1944,G5,327.167,0.167,39,91.91
1945,C4,327.25,0.25,32,91.91
1946,A5,327.333,0.167,39,91.91
1947,G5,327.5,0.167,39,91.91
1948,E4,327.5,0.25,33,91.91
1949,A5,327.667,0.167,40,91.91
1950,C4,327.75,0.25,34,91.91
1951,G5,327.833,0.167,40,91.91
1952,A5,328.0,0.167,41,91.91
1953,G3,328.0,0.125,57,91.91
1954,G5,328.167,0.167,41,91.91
1955,B3,328.25,0.25,35,91.91
1956,A5,328.333,0.167,41,91.91
1957,G5,328.5,0.167,43,91.91
1958,D4,328.5,0.25,38,91.91
1959,A5,328.667,0.167,43,91.91
1960,B3,328.75,0.25,38,91.91
1961,G5,328.833,0.167,43,91.91
1962,A5,329.0,0.167,44,91.91
1963,G3,329.0,0.125,64,91.91
1964,G5,329.167,0.167,44,91.91
1965,A3,329.25,0.25,39,91.91
1966,A5,329.333,0.167,45,91.91
1967,G5,329.5,0.167,45,91.91
1968,C4,329.5,0.25,41,91.91
1969,A5,329.667,0.167,45,91.91
1970,A3,329.75,0.25,43,91.91
1971,G5,329.833,0.167,45,91.91
1972,A5,330.0,0.167,47,91.91
1973,G3,330.0,0.125,71,91.91
1974,G5,330.167,0.167,47,91.91
1975,B3,330.25,0.25,47,91.91
1976,A5,330.333,0.167,47,91.91
1977,G5,330.5,0.167,47,91.91
1978,A3,330.5,0.25,49,91.91
1979,A5,330.667,0.167,47,91.91
1980,G3,330.75,0.25,50,91.91
1981,G5,330.833,0.167,48,91.91
1982,A5,331.0,0.167,48,91.91
1983,F3,331.0,0.125,76,91.91
1984,G5,331.167,0.167,48,91.91
1985,A3,331.25,0.25,55,91.91
1986,A5,331.333,0.167,49,91.91
1987,G5,331.5,0.167,49,91.91
1988,G3,331.5,0.25,58,91.91
1989,A5,331.667,0.167,50,91.91
1990,F3,331.75,0.25,62,91.91
1991,G5,331.833,0.167,51,91.91
1992,A5,332.0,0.167,51,91.91
1993,E3,332.0,0.125,85,91.91
1994,G5,332.167,0.167,52,91.91
1995,G3,332.25,0.25,63,91.91
1996,A5,332.333,0.167,52,91.91
1997,G5,332.5,0.167,52,91.91
1998,F3,332.5,0.25,68,91.91
1999,A5,332.667,0.167,54,91.91
2000,E3,332.75,0.25,70,91.91
2001,G5,332.833,0.167,54,91.91
2002,A5,333.0,0.167,54,91.91
2003,D3,333.0,0.125,90,91.91
2004,G5,333.167,0.167,55,91.91
2005,F3,333.25,0.25,72,91.91
2006,A5,333.333,0.167,55,91.91
2007,G5,333.5,0.167,55,91.91
2008,E3,333.5,0.25,73,91.91
2009,A5,333.667,0.167,56,91.91
2010,D3,333.75,0.25,79,91.91
2011,G5,333.833,0.167,56,91.91
2012,A5,334.0,0.167,48,91.91
2013,C2,334.0,0.5,94,91.91
2014,C3,334.0,0.5,94,91.91
2015,G5,334.167,0.167,35,91.91
2016,D3,334.25,0.125,56,91.91
2017,A5,334.333,0.167,38,91.91
2018,E3,334.375,0.125,57,91.91
2019,G5,334.5,0.167,35,91.91
2020,F3,334.5,0.125,60,91.91
2021,G3,334.625,0.125,60,91.91
2022,A5,334.667,0.167,38,91.91
2023,A3,334.75,0.125,62,91.91
2024,G5,334.833,0.167,36,91.91
2025,B3,334.875,0.125,63,91.91
2026,A5,335.0,0.167,40,91.91
2027,G6,335.0,0.5,89,91.91
2028,C4,335.0,0.25,63,91.91
2029,G5,335.167,0.167,36,91.91
2030,D4,335.25,0.125,65,91.91
2031,A5,335.333,0.167,40,91.91
2032,E4,335.375,0.125,66,91.91
2033,G5,335.5,0.167,36,91.91
2034,F4,335.5,0.125,67,91.91
2035,G4,335.625,0.125,69,91.91
2036,A5,335.667,0.167,40,91.91
2037,A4,335.75,0.125,70,91.91
2038,G5,335.833,0.167,36,91.91
2039,B4,335.875,0.125,71,91.91
2040,A5,336.0,0.167,40,91.91
2041,G6,336.0,1.5,90,91.91
2042,C5,336.0,0.125,74,91.91
2043,G5,336.167,0.167,37,91.91
2044,B4,336.25,0.125,71,91.91
2045,A5,336.333,0.167,40,91.91
2046,G5,336.5,0.167,36,91.91
2047,A4,336.5,0.125,71,91.91
2048,A5,336.667,0.167,40,91.91
2049,G4,336.75,0.125,71,91.91
2050,G5,336.833,0.167,36,91.91
2051,A5,337.0,0.167,40,91.91
2052,F4,337.0,0.125,72,91.91
2053,G5,337.167,0.167,35,91.91
2054,E4,337.25,0.125,69,91.91
2055,A5,337.333,0.167,38,91.91
2056,G5,337.5,0.167,33,91.91
2057,E6,337.5,0.5,85,91.91
2058,D4,337.5,0.125,69,91.91
2059,A5,337.667,0.167,38,91.91
2060,C4,337.75,0.125,67,91.91
2061,G5,337.833,0.167,34,91.91
2062,A5,338.0,0.167,38,91.91
2063,D6,338.0,1.0,90,91.91
2064,B3,338.0,0.125,73,91.91
2065,G5,338.167,0.167,34,91.91
2066,C4,338.25,0.125,69,91.91
2067,A5,338.333,0.167,36,91.91
2068,G5,338.5,0.167,33,91.91
2069,B3,338.5,0.125,69,91.91
2070,A5,338.667,0.167,37,91.91
2071,A3,338.75,0.125,69,91.91
2072,G5,338.833,0.167,33,91.91
2073,A5,339.0,0.167,37,91.91
2074,G5,339.0,0.146,84,91.91
2075,G3,339.0,0.125,75,91.91
2076,G5,339.167,0.167,33,91.91
2077,F3,339.25,0.125,69,91.91
2078,A5,339.333,0.167,38,91.91
2079,G5,339.5,0.167,32,91.91
2080,E3,339.5,0.125,69,91.91
2081,A5,339.667,0.167,37,91.91
2082,D3,339.75,0.125,69,91.91
2083,G5,339.833,0.167,32,91.91
2084,A5,340.0,0.167,38,91.91
2085,C6,340.0,1.0,87,91.91
2086,C3,340.0,0.125,75,91.91
2087,G5,340.167,0.167,32,91.91
2088,C3,340.25,0.125,69,91.91
2089,A5,340.333,0.167,37,91.91
2090,G5,340.5,0.167,32,91.91
2091,B2,340.5,0.125,69,91.91
2092,A5,340.667,0.167,36,91.91
2093,A2,340.75,0.125,69,91.91
2094,G5,340.833,0.167,32,91.91
2095,A5,341.0,0.167,36,91.91
2096,E6,341.0,0.5,84,91.91
2097,G2,341.0,0.125,72,91.91
2098,G5,341.167,0.167,34,91.91
2099,F2,341.25,0.125,71,91.91
2100,A5,341.333,0.167,37,91.91
2101,G5,341.5,0.167,33,91.91
2102,E2,341.5,0.125,75,91.91
2103,A5,341.667,0.167,36,91.91
2104,D2,341.75,0.125,80,91.91
2105,G5,341.833,0.167,32,91.91
2106,A5,342.0,0.167,36,91.91
2107,C2,342.0,0.5,95,91.91
2108,C3,342.0,0.5,95,91.91
2109,G5,342.167,0.167,32,91.91
2110,D3,342.25,0.125,56,91.91
2111,A5,342.333,0.167,37,91.91
2112,E3,342.375,0.125,57,91.91
2113,G5,342.5,0.167,33,91.91
2114,F3,342.5,0.125,60,91.91
2115,G3,342.625,0.125,60,91.91
2116,A5,342.667,0.167,38,91.91
2117,A3,342.75,0.125,62,91.91
2118,G5,342.833,0.167,33,91.91
2119,B3,342.875,0.125,63,91.91
2120,A5,343.0,0.167,39,91.91
2121,G6,343.0,0.5,90,91.91
2122,C4,343.0,0.25,63,91.91
2123,G5,343.167,0.167,35,91.91
2124,D4,343.25,0.125,65,91.91
2125,A5,343.333,0.167,40,91.91
2126,E4,343.375,0.125,66,91.91
2127,G5,343.5,0.167,36,91.91
2128,F4,343.5,0.125,67,91.91
2129,G4,343.625,0.125,69,91.91
2130,A5,343.667,0.167,40,91.91
2131,A4,343.75,0.125,70,91.91
2132,G5,343.833,0.167,36,91.91
2133,B4,343.875,0.125,71,91.91
2134,A5,344.0,0.167,40,91.91
2135,G6,344.0,1.5,92,91.91
2136,C5,344.0,0.125,74,91.91
2137,G5,344.167,0.167,37,91.91
2138,B4,344.25,0.125,71,91.91
2139,A5,344.333,0.167,40,91.91
2140,G5,344.5,0.167,36,91.91
2141,A4,344.5,0.125,71,91.91
2142,A5,344.667,0.167,40,91.91
2143,G4,344.75,0.125,71,91.91
2144,G5,344.833,0.167,36,91.91
2145,A5,345.0,0.167,39,91.91
2146,F4,345.0,0.125,72,91.91
2147,G5,345.167,0.167,36,91.91
2148,E4,345.25,0.125,69,91.91
2149,A5,345.333,0.167,38,91.91
2150,G5,345.5,0.167,32,91.91
2151,E6,345.5,0.5,84,91.91
2152,D4,345.5,0.125,69,91.91
2153,A5,345.667,0.167,37,91.91
2154,C4,345.75,0.125,67,91.91
2155,G5,345.833,0.167,33,91.91
2156,A5,346.0,0.167,39,91.91
2157,D6,346.0,1.0,90,91.91
2158,B3,346.0,0.125,73,91.91
2159,G5,346.167,0.167,32,91.91
2160,C4,346.25,0.125,69,91.91
2161,A5,346.333,0.167,36,91.91
2162,G5,346.5,0.167,31,91.91
2163,B3,346.5,0.125,69,91.91
2164,A5,346.667,0.167,36,91.91
2165,A3,346.75,0.125,69,91.91
2166,G5,346.833,0.167,30,91.91
2167,A5,347.0,0.167,36,91.91
2168,G5,347.0,0.146,82,91.91
2169,G3,347.0,0.125,75,91.91
2170,G5,347.167,0.167,31,91.91
2171,F3,347.25,0.125,69,91.91
2172,A5,347.333,0.167,36,91.91
2173,G5,347.5,0.167,34,91.91
2174,E3,347.5,0.125,69,91.91
2175,F#5,347.667,0.167,36,91.91
2176,D3,347.75,0.125,69,91.91
2177,G5,347.833,0.167,31,91.91
2178,C6,348.0,0.5,86,91.91
2179,C3,348.0,0.5,75,91.91
2180,G1,348.5,0.25,77,91.91
2181,G2,348.5,0.25,77,91.91
2182,G3,348.75,0.25,67,91.91
2183,E-2,349.0,0.25,68,91.91
2184,E-3,349.0,0.25,68,91.91
2185,E-4,349.25,0.25,62,91.91
2186,D2,349.5,0.25,68,91.91
2187,D3,349.5,0.25,68,91.91
2188,D4,349.75,0.25,62,91.91
2189,C2,350.0,0.25,71,91.91
2190,C3,350.0,0.25,71,91.91
2191,C4,350.25,0.25,65,91.91
2192,G1,350.5,0.25,66,91.91
2193,G2,350.5,0.25,66,91.91
2194,G3,350.75,0.25,61,91.91
2195,A1,351.0,0.25,68,91.91
2196,A2,351.0,0.25,68,91.91
2197,A3,351.25,0.25,62,91.91
2198,B1,351.5,0.25,68,91.91
2199,B2,351.5,0.25,68,91.91
2200,B3,351.75,0.25,62,91.91
2201,C2,352.0,0.25,71,91.91
2202,C3,352.0,0.25,71,91.91
2203,C4,352.25,0.25,65,91.91
2204,C2,352.5,0.25,66,91.91
2205,C3,352.5,0.25,66,91.91
2206,C4,352.75,0.25,61,91.91
2207,G#2,353.0,0.25,72,91.91
2208,G#3,353.0,0.25,72,91.91
2209,G#4,353.25,0.25,66,91.91
2210,G2,353.5,0.25,68,91.91
2211,G3,353.5,0.25,68,91.91
2212,G4,353.75,0.25,62,91.91
2213,F2,354.0,0.25,74,91.91
2214,F3,354.0,0.25,74,91.91
2215,F4,354.25,0.25,68,91.91
2216,C2,354.5,0.25,69,91.91
2217,C3,354.5,0.25,69,91.91
2218,C4,354.75,0.25,63,91.91
2219,D2,355.0,0.25,69,91.91
2220,D3,355.0,0.25,69,91.91
2221,D4,355.25,0.25,63,91.91
2222,E2,355.5,0.25,69,91.91
2223,E3,355.5,0.25,69,91.91
2224,E4,355.75,0.25,63,91.91
2225,F2,356.0,0.25,72,91.91
2226,F3,356.0,0.25,72,91.91
2227,F4,356.25,0.25,66,91.91
2228,F2,356.5,0.25,68,91.91
2229,F3,356.5,0.25,68,91.91
2230,F4,356.75,0.25,62,91.91
2231,C#3,357.0,0.25,74,91.91
2232,C#4,357.0,0.25,74,91.91
2233,C#5,357.25,0.25,68,91.91
2234,C3,357.5,0.25,70,91.91
2235,C4,357.5,0.25,70,91.91
2236,C5,357.75,0.25,64,91.91
2237,B-2,358.0,0.25,74,91.91
2238,B-3,358.0,0.25,74,91.91
2239,B-4,358.25,0.25,68,91.91
2240,G#2,358.5,0.25,68,91.91
2241,G#3,358.5,0.25,68,91.91
2242,G#4,358.75,0.25,62,91.91
2243,G2,359.0,0.25,68,91.91
2244,G3,359.0,0.25,68,91.91
2245,G4,359.25,0.25,62,91.91
2246,F2,359.5,0.25,68,91.91
2247,F3,359.5,0.25,68,91.91
2248,F4,359.75,0.25,62,91.91
2249,E-2,360.0,0.25,76,91.91
2250,E-3,360.0,0.25,76,91.91
2251,E-4,360.25,0.25,69,91.91
2252,C#3,360.5,0.25,75,91.91
2253,E-4,360.75,0.25,63,91.91
2254,C3,361.0,0.25,75,91.91
2255,E-3,361.25,0.25,48,91.91
2256,G3,361.25,0.25,48,91.91
2257,E-4,361.25,0.25,48,91.91
2258,B-2,361.5,0.25,75,91.91
2259,F3,361.75,0.25,51,91.91
2260,G#3,361.75,0.25,51,91.91
2261,E-4,361.75,0.25,51,91.91
2262,G#2,362.0,0.25,84,91.91
2263,G3,362.25,0.25,57,91.91
2264,B-3,362.25,0.25,57,91.91
2265,E-4,362.25,0.25,57,91.91
2266,G2,362.5,0.25,76,91.91
2267,G#3,362.75,0.25,52,91.91
2268,C4,362.75,0.25,52,91.91
2269,E-4,362.75,0.25,52,91.91
2270,F2,363.0,0.25,76,91.91
2271,B-3,363.25,0.25,52,91.91
2272,C#4,363.25,0.25,52,91.91
2273,E-4,363.25,0.25,52,91.91
2274,E-2,363.5,0.25,76,91.91
2275,G3,363.75,0.25,52,91.91
2276,B-3,363.75,0.25,52,91.91
2277,E-4,363.75,0.25,52,91.91
2278,C4,364.0,0.5,82,91.91
2279,G#2,364.0,0.5,84,91.91
2280,B1,364.5,0.167,63,91.91
2281,G3,364.5,0.25,79,91.91
2282,G4,364.5,0.25,79,91.91
2283,A1,364.667,0.167,56,91.91
2284,B1,364.833,0.167,57,91.91
2285,C2,365.0,0.167,57,91.91
2286,E-4,365.0,0.25,68,91.91
2287,E-5,365.0,0.25,68,91.91
2288,E-2,365.167,0.167,58,91.91
2289,F2,365.333,0.167,59,91.91
2290,G2,365.5,0.167,60,91.91
2291,D4,365.5,0.25,68,91.91
2292,D5,365.5,0.25,68,91.91
2293,A2,365.667,0.167,62,91.91
2294,B2,365.833,0.167,63,91.91
2295,C3,366.0,0.167,60,91.91
2296,C4,366.0,0.25,71,91.91
2297,C5,366.0,0.25,71,91.91
2298,D3,366.167,0.167,62,91.91
2299,E-3,366.333,0.167,63,91.91
2300,F3,366.5,0.167,65,91.91
2301,G3,366.5,0.25,66,91.91
2302,G4,366.5,0.25,66,91.91
2303,E-3,366.667,0.167,63,91.91
2304,D3,366.833,0.167,62,91.91
2305,C3,367.0,0.167,63,91.91
2306,A3,367.0,0.25,68,91.91
2307,A4,367.0,0.25,68,91.91
2308,D3,367.167,0.167,62,91.91
2309,E-3,367.333,0.167,63,91.91
2310,F3,367.5,0.167,65,91.91
2311,B3,367.5,0.25,68,91.91
2312,B4,367.5,0.25,68,91.91
2313,E-3,367.667,0.167,64,91.91
2314,D3,367.833,0.167,63,91.91
2315,C3,368.0,0.5,68,91.91
2316,C4,368.0,0.25,71,91.91
2317,C5,368.0,0.25,71,91.91
2318,E2,368.5,0.167,63,91.91
2319,C4,368.5,0.25,66,91.91
2320,C5,368.5,0.25,66,91.91
2321,D2,368.667,0.167,56,91.91
2322,E2,368.833,0.167,56,91.91
2323,F2,369.0,0.167,54,91.91
2324,G#4,369.0,0.25,72,91.91
2325,G#5,369.0,0.25,72,91.91
2326,G#2,369.167,0.167,56,91.91
2327,B-2,369.333,0.167,58,91.91
2328,C3,369.5,0.167,60,91.91
2329,G4,369.5,0.25,68,91.91
2330,G5,369.5,0.25,68,91.91
2331,D3,369.667,0.167,62,91.91
2332,E3,369.833,0.167,63,91.91
2333,F3,370.0,0.167,65,91.91
2334,F4,370.0,0.25,74,91.91
2335,F5,370.0,0.25,74,91.91
2336,G3,370.167,0.167,65,91.91
2337,G#3,370.333,0.167,66,91.91
2338,B-3,370.5,0.167,68,91.91
2339,C4,370.5,0.25,69,91.91
2340,C5,370.5,0.25,69,91.91
2341,G#3,370.667,0.167,65,91.91
2342,G3,370.833,0.167,63,91.91
2343,F3,371.0,0.167,60,91.91
2344,D4,371.0,0.25,69,91.91
2345,D5,371.0,0.25,69,91.91
2346,G3,371.167,0.167,62,91.91
2347,G#3,371.333,0.167,64,91.91
2348,B-3,371.5,0.167,66,91.91
2349,E4,371.5,0.25,69,91.91
2350,E5,371.5,0.25,69,91.91
2351,G#3,371.667,0.167,64,91.91
2352,G3,371.833,0.167,63,91.91
2353,F3,372.0,0.5,67,91.91
2354,F4,372.0,0.25,72,91.91
2355,F5,372.0,0.25,72,91.91
2356,A2,372.5,0.167,63,91.91
2357,F4,372.5,0.25,68,91.91
2358,F5,372.5,0.25,68,91.91
2359,G2,372.667,0.167,58,91.91
2360,A2,372.833,0.167,58,91.91
2361,B-2,373.0,0.167,63,91.91
2362,C#5,373.0,0.25,74,91.91
2363,C#6,373.0,0.25,74,91.91
2364,C3,373.167,0.167,58,91.91
2365,B-2,373.333,0.167,58,91.91
2366,A2,373.5,0.167,63,91.91
2367,C5,373.5,0.25,70,91.91
2368,C6,373.5,0.25,70,91.91
2369,G2,373.667,0.167,60,91.91
2370,A2,373.833,0.167,60,91.91
2371,B-2,374.0,0.167,59,91.91
2372,B-4,374.0,0.25,74,91.91
2373,B-5,374.0,0.25,74,91.91
2374,A2,374.167,0.167,59,91.91
2375,B-2,374.333,0.167,60,91.91
2376,C3,374.5,0.167,61,91.91
2377,G#4,374.5,0.25,68,91.91
2378,G#5,374.5,0.25,68,91.91
2379,B2,374.667,0.167,59,91.91
2380,C3,374.833,0.167,59,91.91
2381,C#3,375.0,0.167,63,91.91
2382,G4,375.0,0.25,68,91.91
2383,G5,375.0,0.25,68,91.91
2384,C3,375.167,0.167,61,91.91
2385,C#3,375.333,0.167,61,91.91
2386,D3,375.5,0.167,64,91.91
2387,F4,375.5,0.25,68,91.91
2388,F5,375.5,0.25,68,91.91
2389,C3,375.667,0.167,62,91.91
2390,D3,375.833,0.167,62,91.91
2391,E-3,376.0,0.167,67,91.91
2392,E-4,376.0,0.25,76,91.91
2393,E-5,376.0,0.25,76,91.91
2394,F3,376.167,0.167,63,91.91
2395,E-3,376.333,0.167,63,91.91
2396,C#3,376.5,0.167,67,91.91
2397,E-4,376.5,0.25,69,91.91
2398,E-5,376.5,0.25,69,91.91
2399,E-3,376.667,0.167,63,91.91
2400,C#3,376.833,0.167,63,91.91
2401,C3,377.0,0.167,66,91.91
2402,E-4,377.0,0.25,65,91.91
2403,G4,377.0,0.25,65,91.91
2404,E-5,377.0,0.25,65,91.91
2405,C#3,377.167,0.167,63,91.91
2406,C3,377.333,0.167,63,91.91
2407,B-2,377.5,0.167,66,91.91
2408,F4,377.5,0.25,65,91.91
2409,G#4,377.5,0.25,65,91.91
2410,E-5,377.5,0.25,65,91.91
2411,C3,377.667,0.167,62,91.91
2412,B-2,377.833,0.167,62,91.91
2413,G#2,378.0,0.167,64,91.91
2414,G4,378.0,0.25,73,91.91
2415,B-4,378.0,0.25,73,91.91
2416,E-5,378.0,0.25,73,91.91
2417,B-2,378.167,0.167,62,91.91
2418,G#2,378.333,0.167,62,91.91
2419,G2,378.5,0.167,64,91.91
2420,G#4,378.5,0.25,65,91.91
2421,C5,378.5,0.25,65,91.91
2422,E-5,378.5,0.25,65,91.91
2423,G#2,378.667,0.167,61,91.91
2424,G2,378.833,0.167,61,91.91
2425,F2,379.0,0.167,63,91.91
2426,B-4,379.0,0.25,65,91.91
2427,C#5,379.0,0.25,65,91.91
2428,E-5,379.0,0.25,65,91.91
2429,G2,379.167,0.167,62,91.91
2430,F2,379.333,0.167,62,91.91
2431,E-2,379.5,0.167,63,91.91
2432,G4,379.5,0.25,65,91.91
2433,B-4,379.5,0.25,65,91.91
2434,E-5,379.5,0.25,65,91.91
2435,F2,379.667,0.167,60,91.91
2436,E-2,379.833,0.167,60,91.91
2437,G#2,380.0,0.25,77,91.91
2438,G#4,380.0,0.5,74,91.91
2439,C5,380.0,0.5,74,91.91
2440,G4,380.5,0.167,55,91.91
2441,E-2,380.5,0.25,79,91.91
2442,E-3,380.5,0.25,79,91.91
2443,F4,380.667,0.167,56,91.91
2444,G4,380.833,0.167,57,91.91
2445,G#4,381.0,0.167,58,91.91
2446,C3,381.0,0.25,68,91.91
2447,C4,381.0,0.25,68,91.91
2448,C5,381.167,0.167,60,91.91
2449,C#5,381.333,0.167,61,91.91
2450,E-5,381.5,0.167,62,91.91
2451,B-2,381.5,0.25,68,91.91
2452,B-3,381.5,0.25,68,91.91
2453,F5,381.667,0.167,63,91.91
2454,G5,381.833,0.167,63,91.91
2455,G#5,382.0,0.167,63,91.91
2456,G#2,382.0,0.25,71,91.91
2457,G#3,382.0,0.25,71,91.91
2458,B-5,382.167,0.167,63,91.91
2459,C6,382.333,0.167,65,91.91
2460,C#6,382.5,0.167,66,91.91
2461,E-2,382.5,0.25,66,91.91
2462,E-3,382.5,0.25,66,91.91
2463,C6,382.667,0.167,63,91.91
2464,B-5,382.833,0.167,63,91.91
2465,C#6,383.0,0.167,66,91.91
2466,F2,383.0,0.25,68,91.91
2467,F3,383.0,0.25,68,91.91
2468,C6,383.167,0.167,63,91.91
2469,B-5,383.333,0.167,63,91.91
2470,C#6,383.5,0.167,67,91.91
2471,G2,383.5,0.25,68,91.91
2472,G3,383.5,0.25,68,91.91
2473,C6,383.667,0.167,63,91.91
2474,B-5,383.833,0.167,63,91.91
2475,G#5,384.0,0.5,76,91.91
2476,G#2,384.0,0.25,71,91.91
2477,G#3,384.0,0.25,71,91.91
2478,E4,384.5,0.167,55,91.91
2479,C2,384.5,0.25,66,91.91
2480,C3,384.5,0.25,66,91.91
2481,D4,384.667,0.167,56,91.91
2482,E4,384.833,0.167,57,91.91
2483,F4,385.0,0.167,58,91.91
2484,G#2,385.0,0.25,72,91.91
2485,G#3,385.0,0.25,72,91.91
2486,G#4,385.167,0.167,60,91.91
2487,B-4,385.333,0.167,61,91.91
2488,C5,385.5,0.167,62,91.91
2489,G2,385.5,0.25,68,91.91
2490,G3,385.5,0.25,68,91.91
2491,D5,385.667,0.167,63,91.91
2492,E5,385.833,0.167,63,91.91
2493,F5,386.0,0.167,63,91.91
2494,F2,386.0,0.25,74,91.91
2495,F3,386.0,0.25,74,91.91
2496,G5,386.167,0.167,63,91.91
2497,G#5,386.333,0.167,65,91.91
2498,B-5,386.5,0.167,66,91.91
2499,C2,386.5,0.25,69,91.91
2500,C3,386.5,0.25,69,91.91
2501,G#5,386.667,0.167,63,91.91
2502,G5,386.833,0.167,63,91.91
2503,B-5,387.0,0.167,66,91.91
2504,D2,387.0,0.25,69,91.91
2505,D3,387.0,0.25,69,91.91
2506,G#5,387.167,0.167,63,91.91
2507,G5,387.333,0.167,63,91.91
2508,B-5,387.5,0.167,67,91.91
2509,E2,387.5,0.25,69,91.91
2510,E3,387.5,0.25,69,91.91
2511,G#5,387.667,0.167,63,91.91
2512,G5,387.833,0.167,63,91.91
2513,G#5,388.0,0.167,70,91.91
2514,F2,388.0,0.25,72,91.91
2515,F3,388.0,0.25,72,91.91
2516,B-5,388.167,0.167,68,91.91
2517,G#5,388.333,0.167,68,91.91
2518,G5,388.5,0.167,70,91.91
2519,F3,388.5,0.25,68,91.91
2520,F4,388.5,0.25,68,91.91
2521,G#5,388.667,0.167,66,91.91
2522,G5,388.833,0.167,66,91.91
2523,F5,389.0,0.167,69,91.91
2524,G#3,389.0,0.25,74,91.91
2525,G#4,389.0,0.25,74,91.91
2526,G5,389.167,0.167,66,91.91
2527,F5,389.333,0.167,65,91.91
2528,E-5,389.5,0.167,69,91.91
2529,G3,389.5,0.25,70,91.91
2530,G4,389.5,0.25,70,91.91
2531,F5,389.667,0.167,64,91.91
2532,E-5,389.833,0.167,64,91.91
2533,D5,390.0,0.167,68,91.91
2534,F3,390.0,0.25,74,91.91
2535,F4,390.0,0.25,74,91.91
2536,E-5,390.167,0.167,64,91.91
2537,D5,390.333,0.167,64,91.91
2538,E-5,390.5,0.167,68,91.91
2539,E-3,390.5,0.25,68,91.91
2540,E-4,390.5,0.25,68,91.91
2541,F5,390.667,0.167,64,91.91
2542,E-5,390.833,0.167,64,91.91
2543,F5,391.0,0.167,70,91.91
2544,D3,391.0,0.25,68,91.91
2545,D4,391.0,0.25,68,91.91
2546,G5,391.167,0.167,65,91.91
2547,F5,391.333,0.167,66,91.91
2548,F#5,391.5,0.167,70,91.91
2549,C3,391.5,0.25,68,91.91
2550,C4,391.5,0.25,68,91.91
2551,G5,391.667,0.167,66,91.91
2552,F#5,391.833,0.167,66,91.91
2553,G5,392.0,0.167,72,91.91
2554,B2,392.0,1.0,76,91.91
2555,B3,392.0,1.0,76,91.91
2556,G#5,392.167,0.167,67,91.91
2557,G5,392.333,0.167,67,91.91
2558,F#5,392.5,0.167,67,91.91
2559,G5,392.667,0.167,67,91.91
2560,F#5,392.833,0.167,67,91.91
2561,G5,393.0,0.167,72,91.91
2562,G2,393.0,0.5,70,91.91
2563,G3,393.0,0.5,70,91.91
2564,G#5,393.167,0.167,67,91.91
2565,G5,393.333,0.167,67,91.91
2566,F#5,393.5,0.167,67,91.91
2567,G2,393.5,0.5,66,91.91
2568,G3,393.5,0.5,66,91.91
2569,G5,393.667,0.167,67,91.91
2570,F#5,393.833,0.167,67,91.91
2571,G5,394.0,0.167,72,91.91
2572,G2,394.0,0.5,70,91.91
2573,G3,394.0,0.5,70,91.91
2574,G#5,394.167,0.167,67,91.91
2575,G5,394.333,0.167,67,91.91
2576,F5,394.5,0.167,69,91.91
2577,G2,394.5,0.5,66,91.91
2578,G3,394.5,0.5,66,91.91
2579,G5,394.667,0.167,65,91.91
2580,F5,394.833,0.167,65,91.91
2581,E-5,395.0,0.167,68,91.91
2582,G2,395.0,0.5,70,91.91
2583,G3,395.0,0.5,70,91.91
2584,F5,395.167,0.167,63,91.91
2585,E-5,395.333,0.167,63,91.91
2586,D5,395.5,0.167,67,91.91
2587,G2,395.5,0.5,66,91.91
2588,G3,395.5,0.5,66,91.91
2589,E-5,395.667,0.167,62,91.91
2590,D5,395.833,0.167,62,91.91
2591,C5,396.0,0.5,82,91.91
2592,C3,396.0,0.5,78,91.91
2593,C4,396.0,0.5,78,91.91
2594,G2,396.5,0.167,63,91.91
2595,E-4,396.5,0.25,79,91.91
2596,E-5,396.5,0.25,79,91.91
2597,F2,396.667,0.167,56,91.91
2598,G2,396.833,0.167,57,91.91
2599,G#2,397.0,0.167,57,91.91
2600,C5,397.0,0.25,68,91.91
2601,C6,397.0,0.25,68,91.91
2602,C3,397.167,0.167,58,91.91
2603,C#3,397.333,0.167,59,91.91
2604,E-3,397.5,0.167,60,91.91
2605,B-4,397.5,0.25,68,91.91
2606,B-5,397.5,0.25,68,91.91
2607,F3,397.667,0.167,62,91.91
2608,G3,397.833,0.167,63,91.91
2609,G#3,398.0,0.167,60,91.91
2610,G#4,398.0,0.25,71,91.91
2611,G#5,398.0,0.25,71,91.91
2612,B-3,398.167,0.167,62,91.91
2613,C4,398.333,0.167,63,91.91
2614,C#4,398.5,0.167,65,91.91
2615,E-4,398.5,0.25,66,91.91
2616,E-5,398.5,0.25,66,91.91
2617,C4,398.667,0.167,63,91.91
2618,B-3,398.833,0.167,62,91.91
2619,G#3,399.0,0.167,63,91.91
2620,F4,399.0,0.25,68,91.91
2621,F5,399.0,0.25,68,91.91
2622,B-3,399.167,0.167,62,91.91
2623,C4,399.333,0.167,63,91.91
2624,C#4,399.5,0.167,65,91.91
2625,G4,399.5,0.25,68,91.91
2626,G5,399.5,0.25,68,91.91
2627,C4,399.667,0.167,64,91.91
2628,B-3,399.833,0.167,63,91.91
2629,G#3,400.0,0.5,68,91.91
2630,G#4,400.0,0.25,71,91.91
2631,G#5,400.0,0.25,71,91.91
2632,E2,400.5,0.167,63,91.91
2633,C4,400.5,0.25,66,91.91
2634,C5,400.5,0.25,66,91.91
2635,D2,400.667,0.167,56,91.91
2636,E2,400.833,0.167,56,91.91
2637,F2,401.0,0.167,54,91.91
2638,G#4,401.0,0.25,72,91.91
2639,G#5,401.0,0.25,72,91.91
2640,G#2,401.167,0.167,56,91.91
2641,B-2,401.333,0.167,58,91.91
2642,C3,401.5,0.167,60,91.91
2643,G4,401.5,0.25,68,91.91
2644,G5,401.5,0.25,68,91.91
2645,D3,401.667,0.167,62,91.91
2646,E3,401.833,0.167,63,91.91
2647,F3,402.0,0.167,65,91.91
2648,F4,402.0,0.25,74,91.91
2649,F5,402.0,0.25,74,91.91
2650,G3,402.167,0.167,65,91.91
2651,G#3,402.333,0.167,66,91.91
2652,B-3,402.5,0.167,68,91.91
2653,C4,402.5,0.25,69,91.91
2654,C5,402.5,0.25,69,91.91
2655,G#3,402.667,0.167,65,91.91
2656,G3,402.833,0.167,63,91.91
2657,F3,403.0,0.167,60,91.91
2658,D4,403.0,0.25,69,91.91
2659,D5,403.0,0.25,69,91.91
2660,G3,403.167,0.167,62,91.91
2661,G#3,403.333,0.167,64,91.91
2662,B-3,403.5,0.167,66,91.91
2663,E4,403.5,0.25,69,91.91
2664,E5,403.5,0.25,69,91.91
2665,G#3,403.667,0.167,64,91.91
2666,G3,403.833,0.167,63,91.91
2667,F3,404.0,0.5,67,91.91
2668,F4,404.0,0.25,72,91.91
2669,F5,404.0,0.25,72,91.91
2670,C2,404.5,0.167,63,91.91
2671,F5,404.5,0.25,68,91.91
2672,F6,404.5,0.25,68,91.91
2673,D2,404.667,0.167,58,91.91
2674,E2,404.833,0.167,58,91.91
2675,F2,405.0,0.167,63,91.91
2676,G#5,405.0,0.25,74,91.91
2677,G#6,405.0,0.25,74,91.91
2678,E2,405.167,0.167,58,91.91
2679,F2,405.333,0.167,58,91.91
2680,G2,405.5,0.167,63,91.91
2681,G5,405.5,0.25,70,91.91
2682,G6,405.5,0.25,70,91.91
2683,F2,405.667,0.167,60,91.91
2684,G2,405.833,0.167,60,91.91
2685,G#2,406.0,0.167,59,91.91
2686,F5,406.0,0.25,74,91.91
2687,F6,406.0,0.25,74,91.91
2688,B-2,406.167,0.167,59,91.91
2689,G#2,406.333,0.167,60,91.91
2690,G2,406.5,0.167,61,91.91
2691,E-5,406.5,0.25,68,91.91
2692,E-6,406.5,0.25,68,91.91
2693,G#2,406.667,0.167,59,91.91
2694,G2,406.833,0.167,59,91.91
2695,F2,407.0,0.167,63,91.91
2696,D5,407.0,0.25,68,91.91
2697,D6,407.0,0.25,68,91.91
2698,G2,407.167,0.167,61,91.91
2699,F2,407.333,0.167,61,91.91
2700,F#2,407.5,0.167,64,91.91
2701,C5,407.5,0.25,68,91.91
2702,C6,407.5,0.25,68,91.91
2703,G2,407.667,0.167,62,91.91
2704,F#2,407.833,0.167,62,91.91
2705,G2,408.0,0.167,67,91.91
2706,B4,408.0,1.0,76,91.91
2707,B5,408.0,1.0,76,91.91
2708,G#2,408.167,0.167,63,91.91
2709,G2,408.333,0.167,63,91.91
2710,F#2,408.5,0.167,67,91.91
2711,G2,408.667,0.167,63,91.91
2712,F#2,408.833,0.167,63,91.91
2713,G2,409.0,0.167,66,91.91
2714,G4,409.0,0.496,72,91.91
2715,G5,409.0,0.496,72,91.91
2716,G#2,409.167,0.167,63,91.91
2717,G2,409.333,0.167,63,91.91
2718,F#2,409.5,0.167,66,91.91
2719,G4,409.5,0.496,68,91.91
2720,G5,409.5,0.496,68,91.91
2721,G2,409.667,0.167,62,91.91
2722,F#2,409.833,0.167,62,91.91
2723,G2,410.0,0.167,64,91.91
2724,G4,410.0,0.496,72,91.91
2725,G5,410.0,0.496,72,91.91
2726,G#2,410.167,0.167,62,91.91
2727,G2,410.333,0.167,62,91.91
2728,F2,410.5,0.167,64,91.91
2729,G4,410.5,0.496,66,91.91
2730,G5,410.5,0.496,66,91.91
2731,G2,410.667,0.167,61,91.91
2732,F2,410.833,0.167,61,91.91
2733,E-2,411.0,0.167,63,91.91
2734,G4,411.0,0.496,72,91.91
2735,G5,411.0,0.496,72,91.91
2736,F2,411.167,0.167,62,91.91
2737,E-2,411.333,0.167,62,91.91
2738,D2,411.5,0.167,63,91.91
2739,G4,411.5,0.496,68,91.91
2740,G5,411.5,0.496,68,91.91
2741,E-2,411.667,0.167,60,91.91
2742,D2,411.833,0.167,60,91.91
2743,C2,412.0,0.25,77,91.91
2744,C5,412.0,0.5,74,91.91
2745,C6,412.0,0.5,74,91.91
2746,C5,412.5,0.167,55,91.91
2747,F2,412.5,0.25,79,91.91
2748,F3,412.5,0.25,79,91.91
2749,D5,412.667,0.167,56,91.91
2750,E5,412.833,0.167,57,91.91
2751,F5,413.0,0.167,58,91.91
2752,G#2,413.0,0.25,68,91.91
2753,G#3,413.0,0.25,68,91.91
2754,E5,413.167,0.167,60,91.91
2755,F5,413.333,0.167,61,91.91
2756,G5,413.5,0.167,62,91.91
2757,G2,413.5,0.25,68,91.91
2758,G3,413.5,0.25,68,91.91
2759,F5,413.667,0.167,63,91.91
2760,G5,413.833,0.167,63,91.91
2761,G#5,414.0,0.167,68,91.91
2762,F2,414.0,0.25,74,91.91
2763,F3,414.0,0.25,74,91.91
2764,B-5,414.167,0.167,64,91.91
2765,G#5,414.333,0.167,64,91.91
2766,G5,414.5,0.167,68,91.91
2767,E-2,414.5,0.25,68,91.91
2768,E-3,414.5,0.25,68,91.91
2769,G#5,414.667,0.167,64,91.91
2770,G5,414.833,0.167,64,91.91
2771,F5,415.0,0.167,70,91.91
2772,D2,415.0,0.25,68,91.91
2773,D3,415.0,0.25,68,91.91
2774,G5,415.167,0.167,65,91.91
2775,F5,415.333,0.167,66,91.91
2776,F#5,415.5,0.167,70,91.91
2777,C2,415.5,0.25,68,91.91
2778,C3,415.5,0.25,68,91.91
2779,G5,415.667,0.167,66,91.91
2780,F#5,415.833,0.167,66,91.91
2781,G5,416.0,0.167,72,91.91
2782,B1,416.0,1.0,76,91.91
2783,B2,416.0,1.0,76,91.91
2784,G#5,416.167,0.167,67,91.91
2785,G5,416.333,0.167,67,91.91
2786,F#5,416.5,0.167,67,91.91
2787,G5,416.667,0.167,67,91.91
2788,F#5,416.833,0.167,67,91.91
2789,G5,417.0,0.167,72,91.91
2790,G1,417.0,0.496,70,91.91
2791,G2,417.0,0.496,70,91.91
2792,G#5,417.167,0.167,67,91.91
2793,G5,417.333,0.167,67,91.91
2794,F#5,417.5,0.167,67,91.91
2795,G1,417.5,0.496,66,91.91
2796,G2,417.5,0.496,66,91.91
2797,G5,417.667,0.167,67,91.91
2798,F#5,417.833,0.167,67,91.91
2799,G5,418.0,0.167,72,91.91
2800,G1,418.0,0.496,70,91.91
2801,G2,418.0,0.496,70,91.91
2802,G#5,418.167,0.167,67,91.91
2803,G5,418.333,0.167,67,91.91
2804,F5,418.5,0.167,69,91.91
2805,G1,418.5,0.496,66,91.91
2806,G2,418.5,0.496,66,91.91
2807,G5,418.667,0.167,65,91.91
2808,F5,418.833,0.167,65,91.91
2809,E-5,419.0,0.167,68,91.91
2810,G1,419.0,0.496,70,91.91
2811,G2,419.0,0.496,70,91.91
2812,F5,419.167,0.167,63,91.91
2813,E-5,419.333,0.167,63,91.91
2814,D5,419.5,0.167,67,91.91
2815,G1,419.5,0.496,66,91.91
2816,G2,419.5,0.496,66,91.91
2817,E-5,419.667,0.167,62,91.91
2818,D5,419.833,0.167,62,91.91
2819,C5,420.0,0.167,72,91.91
2820,C2,420.0,0.5,76,91.91
2821,C3,420.0,0.5,76,91.91
2822,B4,420.167,0.167,67,91.91
2823,C5,420.333,0.167,67,91.91
2824,D5,420.5,0.167,67,91.91
2825,C5,420.667,0.167,67,91.91
2826,D5,420.833,0.167,67,91.91
2827,E-5,421.0,0.167,75,91.91
2828,G2,421.0,0.496,73,91.91
2829,G3,421.0,0.496,73,91.91
2830,D5,421.167,0.167,70,91.91
2831,E-5,421.333,0.167,70,91.91
2832,F5,421.5,0.167,70,91.91
2833,G2,421.5,0.496,70,91.91
2834,G3,421.5,0.496,70,91.91
2835,E-5,421.667,0.167,70,91.91
2836,F5,421.833,0.167,70,91.91
2837,G5,422.0,0.167,75,91.91
2838,G2,422.0,0.496,73,91.91
2839,G3,422.0,0.496,73,91.91
2840,G#5,422.167,0.167,70,91.91
2841,G5,422.333,0.167,70,91.91
2842,F5,422.5,0.167,72,91.91
2843,G2,422.5,0.496,68,91.91
2844,G3,422.5,0.496,68,91.91
2845,G5,422.667,0.167,68,91.91
2846,F5,422.833,0.167,68,91.91
2847,E-5,423.0,0.167,71,91.91
2848,G2,423.0,0.496,73,91.91
2849,G3,423.0,0.496,73,91.91
2850,F5,423.167,0.167,66,91.91
2851,E-5,423.333,0.167,66,91.91
2852,D5,423.5,0.167,70,91.91
2853,G2,423.5,0.496,70,91.91
2854,G3,423.5,0.496,70,91.91
2855,E-5,423.667,0.167,65,91.91
2856,D5,423.833,0.167,65,91.91
2857,C5,424.0,0.167,75,91.91
2858,C3,424.0,0.5,79,91.91
2859,C4,424.0,0.5,79,91.91
2860,B4,424.167,0.167,70,91.91
2861,C5,424.333,0.167,70,91.91
2862,D5,424.5,0.167,70,91.91
2863,C5,424.667,0.167,70,91.91
2864,D5,424.833,0.167,70,91.91
2865,E-5,425.0,0.167,79,91.91
2866,G1,425.0,0.496,88,91.91
2867,G2,425.0,0.496,88,91.91
2868,D5,425.167,0.167,73,91.91
2869,E-5,425.333,0.167,73,91.91
2870,F5,425.5,0.167,73,91.91
2871,G1,425.5,0.496,84,91.91
2872,G2,425.5,0.496,84,91.91
2873,E-5,425.667,0.167,73,91.91
2874,F5,425.833,0.167,73,91.91
2875,G5,426.0,0.167,79,91.91
2876,G1,426.0,0.496,88,91.91
2877,G2,426.0,0.496,88,91.91
2878,G#5,426.167,0.167,73,91.91
2879,G5,426.333,0.167,73,91.91
2880,F5,426.5,0.167,75,91.91
2881,G1,426.5,0.496,82,91.91
2882,G2,426.5,0.496,82,91.91
2883,G5,426.667,0.167,71,91.91
2884,F5,426.833,0.167,71,91.91
2885,E-5,427.0,0.167,74,91.91
2886,G1,427.0,0.496,88,91.91
2887,G2,427.0,0.496,88,91.91
2888,F5,427.167,0.167,69,91.91
2889,E-5,427.333,0.167,69,91.91
2890,D5,427.5,0.167,73,91.91
2891,G1,427.5,0.496,84,91.91
2892,G2,427.5,0.496,84,91.91
2893,E-5,427.667,0.167,68,91.91
2894,D5,427.833,0.167,68,91.91
2895,C5,428.0,0.167,79,91.91
2896,C2,428.0,0.5,94,91.91
2897,C3,428.0,0.5,94,91.91
2898,B4,428.167,0.167,69,91.91
2899,C5,428.333,0.167,71,91.91
2900,D5,428.5,0.167,73,91.91
2901,E-5,428.667,0.167,75,91.91
2902,F5,428.833,0.167,78,91.91
2903,G5,429.0,0.167,80,91.91
2904,G1,429.0,0.5,88,91.91
2905,G2,429.0,0.5,88,91.91
2906,G#5,429.167,0.167,77,91.91
2907,G5,429.333,0.167,75,91.91
2908,F5,429.5,0.167,74,91.91
2909,E-5,429.667,0.167,73,91.91
2910,D5,429.833,0.167,73,91.91
2911,C5,430.0,0.167,79,91.91
2912,C2,430.0,0.5,94,91.91
2913,C3,430.0,0.5,94,91.91
2914,B4,430.167,0.167,69,91.91
2915,C5,430.333,0.167,71,91.91
2916,D5,430.5,0.167,73,91.91
2917,E-5,430.667,0.167,75,91.91
2918,F5,430.833,0.167,78,91.91
2919,G5,431.0,0.167,80,91.91
2920,G1,431.0,0.5,88,91.91
2921,G2,431.0,0.5,88,91.91
2922,G#5,431.167,0.167,77,91.91
2923,G5,431.333,0.167,75,91.91
2924,F5,431.5,0.167,74,91.91
2925,E-5,431.667,0.167,73,91.91
2926,D5,431.833,0.167,73,91.91
2927,C4,432.0,0.25,93,91.91
2928,C5,432.0,0.25,93,91.91
2929,C2,432.0,0.25,80,91.91
2930,C3,432.0,0.25,80,91.91
2931,C4,433.0,0.25,93,91.91
2932,C5,433.0,0.25,93,91.91
2933,C2,433.0,0.25,80,91.91
2934,C3,433.0,0.25,80,91.91
2935,C4,434.0,0.5,91,91.91
2936,C5,434.0,0.5,91,91.91
2937,C2,434.0,0.5,80,91.91
2938,C3,434.0,0.5,80,91.91
2939,C4,436.0,1.0,68,91.91
2940,C5,436.0,1.0,68,91.91
2941,C2,436.0,1.0,52,91.91
2942,C3,436.0,1.0,52,91.91
2943,C4,438.0,1.0,52,91.91
2944,C5,438.0,1.0,52,91.91
2945,C2,438.0,1.0,42,91.91
2946,C3,438.0,1.0,42,91.91
2947,G#3,440.0,0.5,108,91.91
2948,G#1,440.0,0.5,76,91.91
2949,G#2,440.0,0.5,76,91.91
2950,E-4,441.0,0.5,85,91.91
2951,G#4,441.0,0.5,85,91.91
2952,C5,441.0,0.5,85,91.91
2953,E-5,441.0,0.5,85,91.91
2954,G#2,441.0,0.5,61,91.91
2955,C3,441.0,0.5,61,91.91
2956,E-3,441.0,0.5,61,91.91
2957,G#3,441.0,0.5,61,91.91
2958,E-5,442.0,1.5,85,91.91
2959,G#5,442.0,1.5,85,91.91
2960,C6,442.0,1.5,85,91.91
2961,E-6,442.0,1.5,85,91.91
2962,G#3,442.0,1.5,63,91.91
2963,C4,442.0,1.5,63,91.91
2964,E-4,442.0,1.5,63,91.91
2965,G#4,442.0,1.5,63,91.91
2966,C6,443.5,0.5,59,91.91
2967,E-5,443.5,0.5,59,91.91
2968,G#3,443.5,0.5,42,91.91
2969,C4,443.5,0.5,42,91.91
2970,E-4,443.5,0.5,42,91.91
2971,G#4,443.5,0.5,42,91.91
2972,C#5,444.0,1.0,62,91.91
2973,B-5,444.0,1.0,62,91.91
2974,G#3,444.0,1.0,46,91.91
2975,B-3,444.0,1.0,46,91.91
2976,C#4,444.0,1.0,46,91.91
2977,E-4,444.0,1.0,46,91.91
2978,G4,444.0,1.0,46,91.91
2979,C#5,445.0,1.0,55,91.91
2980,E-5,445.0,1.0,55,91.91
2981,G#3,445.0,1.0,34,91.91
2982,B-3,445.0,1.0,34,91.91
2983,C#4,445.0,1.0,34,91.91
2984,E-4,445.0,1.0,34,91.91
2985,G4,445.0,1.0,34,91.91
2986,C5,446.0,1.0,55,91.91
2987,G#5,446.0,1.0,55,91.91
2988,G#3,446.0,1.0,34,91.91
2989,C4,446.0,1.0,34,91.91
2990,E-4,446.0,1.0,34,91.91
2991,G#4,446.0,1.0,34,91.91
2992,F3,448.0,0.5,108,91.91
2993,F1,448.0,0.5,76,91.91
2994,F2,448.0,0.5,76,91.91
2995,C4,449.0,0.5,85,91.91
2996,F4,449.0,0.5,85,91.91
2997,G#4,449.0,0.5,85,91.91
2998,C5,449.0,0.5,85,91.91
2999,F2,449.0,0.5,61,91.91
3000,G#2,449.0,0.5,61,91.91
3001,C3,449.0,0.5,61,91.91
3002,F3,449.0,0.5,61,91.91
3003,C5,450.0,1.5,83,91.91
3004,F5,450.0,1.5,83,91.91
3005,G#5,450.0,1.5,83,91.91
3006,C6,450.0,1.5,83,91.91
3007,F3,450.0,1.5,62,91.91
3008,G#3,450.0,1.5,62,91.91
3009,C4,450.0,1.5,62,91.91
3010,F4,450.0,1.5,62,91.91
3011,G#5,451.5,0.5,59,91.91
3012,C5,451.5,0.5,59,91.91
3013,F3,451.5,0.5,42,91.91
3014,G#3,451.5,0.5,42,91.91
3015,C4,451.5,0.5,42,91.91
3016,F4,451.5,0.5,42,91.91
3017,B-4,452.0,1.0,62,91.91
3018,G5,452.0,1.0,62,91.91
3019,F3,452.0,1.0,46,91.91
3020,G3,452.0,1.0,46,91.91
3021,B-3,452.0,1.0,46,91.91
3022,C4,452.0,1.0,46,91.91
3023,E4,452.0,1.0,46,91.91
3024,B-4,453.0,1.0,55,91.91
3025,C5,453.0,1.0,55,91.91
3026,F3,453.0,1.0,34,91.91
3027,G3,453.0,1.0,34,91.91
3028,B-3,453.0,1.0,34,91.91
3029,C4,453.0,1.0,34,91.91
3030,E4,453.0,1.0,34,91.91
3031,G#4,454.0,1.0,55,91.91
3032,F5,454.0,1.0,55,91.91
3033,F3,454.0,1.0,34,91.91
3034,G#3,454.0,1.0,34,91.91
3035,C4,454.0,1.0,34,91.91
3036,F4,454.0,1.0,34,91.91
3037,C#4,456.0,0.5,108,91.91
3038,C#2,456.0,0.5,76,91.91
3039,C#3,456.0,0.5,76,91.91
3040,G#4,457.0,0.5,85,91.91
3041,C#5,457.0,0.5,85,91.91
3042,F5,457.0,0.5,85,91.91
3043,G#5,457.0,0.5,85,91.91
3044,C#3,457.0,0.5,61,91.91
3045,F3,457.0,0.5,61,91.91
3046,G#3,457.0,0.5,61,91.91
3047,C#4,457.0,0.5,61,91.91
3048,G#5,458.0,1.5,85,91.91
3049,C#6,458.0,1.5,85,91.91
3050,F6,458.0,1.5,85,91.91
3051,G#6,458.0,1.5,85,91.91
3052,C#4,458.0,1.5,63,91.91
3053,F4,458.0,1.5,63,91.91
3054,G#4,458.0,1.5,63,91.91
3055,C#5,458.0,1.5,63,91.91
3056,F6,459.5,0.5,59,91.91
3057,G#5,459.5,0.5,59,91.91
3058,C#4,459.5,0.5,42,91.91
3059,F4,459.5,0.5,42,91.91
3060,G#4,459.5,0.5,42,91.91
3061,C#5,459.5,0.5,42,91.91
3062,F#5,460.0,1.0,62,91.91
3063,E-6,460.0,1.0,62,91.91
3064,C#4,460.0,1.0,46,91.91
3065,E-4,460.0,1.0,46,91.91
3066,F#4,460.0,1.0,46,91.91
3067,G#4,460.0,1.0,46,91.91
3068,C5,460.0,1.0,46,91.91
3069,F#5,461.0,1.0,55,91.91
3070,G#5,461.0,1.0,55,91.91
3071,C#4,461.0,1.0,34,91.91
3072,E-4,461.0,1.0,34,91.91
3073,F#4,461.0,1.0,34,91.91
3074,G#4,461.0,1.0,34,91.91
3075,C5,461.0,1.0,34,91.91
3076,F5,462.0,1.5,55,91.91
3077,C#6,462.0,1.5,55,91.91
3078,C#4,462.0,1.5,34,91.91
3079,F4,462.0,1.5,34,91.91
3080,G#4,462.0,1.5,34,91.91
3081,C#5,462.0,1.5,34,91.91
3082,F5,463.5,0.5,47,91.91
3083,G#4,463.5,0.5,47,91.91
3084,C#3,463.5,0.5,34,91.91
3085,G#3,463.5,0.5,34,91.91
3086,C#4,463.5,0.5,34,91.91
3087,F#4,464.0,1.0,50,91.91
3088,E-5,464.0,1.0,50,91.91
3089,C#3,464.0,1.0,37,91.91
3090,G#3,464.0,1.0,37,91.91
3091,C4,464.0,1.0,37,91.91
3092,F#4,465.0,1.0,43,91.91
3093,G#4,465.0,1.0,43,91.91
3094,C#3,465.0,1.0,28,91.91
3095,G#3,465.0,1.0,28,91.91
3096,C4,465.0,1.0,28,91.91
3097,F4,466.0,1.5,43,91.91
3098,C#5,466.0,1.5,43,91.91
3099,C#3,466.0,1.5,28,91.91
3100,G#3,466.0,1.5,28,91.91
3101,C#4,466.0,1.5,28,91.91
3102,F4,467.5,0.5,35,91.91
3103,G#3,467.5,0.5,35,91.91
3104,C#2,467.5,0.5,23,91.91
3105,G#2,467.5,0.5,23,91.91
3106,C#3,467.5,0.5,23,91.91
3107,F#3,468.0,0.99,37,91.91
3108,E-4,468.0,0.99,37,91.91
3109,C#2,468.0,0.99,26,91.91
3110,G#2,468.0,0.99,26,91.91
3111,C3,468.0,0.99,26,91.91
3112,F#3,469.0,0.99,32,91.91
3113,G#3,469.0,0.99,32,91.91
3114,C#2,469.0,0.99,19,91.91
3115,G#2,469.0,0.99,19,91.91
3116,C3,469.0,0.99,19,91.91
3117,F3,470.0,0.99,32,91.91
3118,C#4,470.0,0.99,32,91.91
3119,C#2,470.0,0.99,19,91.91
3120,G#2,470.0,0.99,19,91.91
3121,C#3,470.0,0.99,19,91.91
3122,G#3,471.0,0.99,32,91.91
3123,F3,471.0,0.99,32,91.91
3124,C#2,471.0,0.99,19,91.91
3125,G#2,471.0,0.99,19,91.91
3126,C#3,471.0,0.99,19,91.91
3127,F#3,472.0,0.99,37,91.91
3128,E-4,472.0,0.99,37,91.91
3129,C3,472.0,0.99,26,91.91
3130,C#2,472.0,0.99,26,91.91
3131,G#2,472.0,0.99,26,91.91
3132,F#3,473.0,0.99,32,91.91
3133,G#3,473.0,0.99,32,91.91
3134,C3,473.0,0.99,19,91.91
3135,C#2,473.0,0.99,19,91.91
3136,G#2,473.0,0.99,19,91.91
3137,F#3,474.0,0.99,37,91.91
3138,E-4,474.0,0.99,37,91.91
3139,C3,474.0,0.99,26,91.91
3140,C#2,474.0,0.99,26,91.91
3141,G#2,474.0,0.99,26,91.91
3142,F#3,475.0,0.99,32,91.91
3143,G#3,475.0,0.99,32,91.91
3144,C3,475.0,0.99,19,91.91
3145,C#2,475.0,0.99,19,91.91
3146,G#2,475.0,0.99,19,91.91
3147,F3,476.0,0.5,33,91.91
3148,C#4,476.0,0.5,33,91.91
3149,C#2,476.0,0.5,19,91.91
3150,G#2,476.0,0.5,19,91.91
3151,C#3,476.0,0.5,19,91.91
3152,G#3,476.5,0.99,32,91.91
3153,C#4,476.5,0.99,32,91.91
3154,F4,476.5,0.99,32,91.91
3155,C#3,477.0,0.5,36,91.91
3156,G#3,477.5,0.99,32,91.91
3157,C#4,477.5,0.99,32,91.91
3158,F4,477.5,0.99,32,91.91
3159,C#3,478.0,0.5,38,91.91
3160,G#3,478.5,0.99,32,91.91
3161,C#4,478.5,0.99,32,91.91
3162,F4,478.5,0.99,32,91.91
3163,C#3,479.0,0.5,38,91.91
3164,F4,479.5,0.496,52,91.91
3165,G#3,479.5,0.99,40,91.91
3166,C#4,479.5,0.99,40,91.91
3167,E-4,480.0,0.496,52,91.91
3168,G#2,480.0,0.5,45,91.91
3169,G#3,480.5,0.99,36,91.91
3170,C4,480.5,0.99,36,91.91
3171,E-4,480.5,0.99,36,91.91
3172,G#2,481.0,0.5,42,91.91
3173,C4,481.5,0.496,36,91.91
3174,G#3,481.5,0.99,36,91.91
3175,E-4,481.5,0.99,36,91.91
3176,B3,482.0,0.496,30,91.91
3177,G#2,482.0,0.5,38,91.91
3178,G#3,482.5,0.99,36,91.91
3179,B3,482.5,0.99,36,91.91
3180,E-4,482.5,0.99,36,91.91
3181,G#2,483.0,0.5,38,91.91
3182,G#3,483.5,0.496,47,91.91
3183,C4,483.5,0.496,47,91.91
3184,D4,483.5,0.496,47,91.91
3185,F4,483.5,0.496,47,91.91
3186,E-2,484.0,0.5,25,91.91
3187,F#3,484.0,0.496,35,91.91
3188,B-3,484.0,0.496,35,91.91
3189,E-4,484.0,0.496,35,91.91
3190,F#4,484.0,0.496,35,91.91
3191,B-3,484.5,0.99,32,91.91
3192,E-4,484.5,0.99,32,91.91
3193,F#4,484.5,0.99,32,91.91
3194,E-3,485.0,0.5,36,91.91
3195,B-3,485.5,0.99,32,91.91
3196,E-4,485.5,0.99,32,91.91
3197,F#4,485.5,0.99,32,91.91
3198,E-3,486.0,0.5,38,91.91
3199,B-3,486.5,0.99,32,91.91
3200,E-4,486.5,0.99,32,91.91
3201,F#4,486.5,0.99,32,91.91
3202,E-3,487.0,0.5,38,91.91
3203,F#4,487.5,0.496,52,91.91
3204,B-3,487.5,0.99,40,91.91
3205,E-4,487.5,0.99,40,91.91
3206,F4,488.0,0.496,52,91.91
3207,B-2,488.0,0.5,45,91.91
3208,B-3,488.5,0.99,36,91.91
3209,D4,488.5,0.99,36,91.91
3210,F4,488.5,0.99,36,91.91
3211,B-2,489.0,0.5,42,91.91
3212,D4,489.5,0.496,36,91.91
3213,B-3,489.5,0.99,36,91.91
3214,F4,489.5,0.99,36,91.91
3215,C#4,490.0,0.496,30,91.91
3216,B-2,490.0,0.5,38,91.91
3217,B-3,490.5,0.99,36,91.91
3218,C#4,490.5,0.99,36,91.91
3219,F4,490.5,0.99,36,91.91
3220,B-2,491.0,0.5,41,91.91
3221,B-3,491.5,0.5,47,91.91
3222,D4,491.5,0.5,47,91.91
3223,E4,491.5,0.5,47,91.91
3224,G4,491.5,0.5,47,91.91
3225,F2,492.0,0.5,25,91.91
3226,G#3,492.0,0.496,35,91.91
3227,C4,492.0,0.496,35,91.91
3228,F4,492.0,0.496,35,91.91
3229,G#4,492.0,0.496,35,91.91
3230,C4,492.5,0.99,32,91.91
3231,F4,492.5,0.99,32,91.91
3232,G#4,492.5,0.99,32,91.91
3233,F3,493.0,0.5,36,91.91
3234,C4,493.5,0.99,32,91.91
3235,F4,493.5,0.99,32,91.91
3236,G#4,493.5,0.99,32,91.91
3237,F3,494.0,0.5,38,91.91
3238,C4,494.5,0.99,32,91.91
3239,F4,494.5,0.99,32,91.91
3240,G#4,494.5,0.99,32,91.91
3241,F3,495.0,0.5,38,91.91
3242,G#4,495.5,0.496,48,91.91
3243,C4,495.5,0.99,37,91.91
3244,F4,495.5,0.99,37,91.91
3245,G4,496.0,0.496,48,91.91
3246,C3,496.0,0.5,41,91.91
3247,C4,496.5,0.99,36,91.91
3248,E4,496.5,0.99,36,91.91
3249,G4,496.5,0.99,36,91.91
3250,C3,497.0,0.5,42,91.91
3251,C4,497.5,0.99,34,91.91
3252,E4,497.5,0.496,44,91.91
3253,G4,497.5,0.496,44,91.91
3254,F3,498.0,0.5,38,91.91
3255,G#4,498.0,0.496,41,91.91
3256,F4,498.0,0.496,41,91.91
3257,C4,498.5,0.99,36,91.91
3258,F4,498.5,0.99,36,91.91
3259,G#4,498.5,0.99,36,91.91
3260,F3,499.0,0.5,38,91.91
3261,C4,499.5,0.5,40,91.91
3262,F4,499.5,0.5,40,91.91
3263,G#4,499.5,0.5,40,91.91
3264,C2,500.0,0.5,46,91.91
3265,C4,500.25,0.25,36,91.91
3266,E4,500.5,0.25,37,91.91
3267,G4,500.75,0.25,38,91.91
3268,B4,501.0,0.25,40,91.91
3269,E3,501.0,1.0,39,91.91
3270,G3,501.0,1.0,39,91.91
3271,C5,501.25,0.25,41,91.91
3272,E5,501.5,0.25,42,91.91
3273,G5,501.75,0.25,44,91.91
3274,B5,502.0,0.25,45,91.91
3275,E3,502.0,2.0,39,91.91
3276,G3,502.0,2.0,39,91.91
3277,C6,502.25,0.25,44,91.91
3278,G5,502.5,0.25,43,91.91
3279,E5,502.75,0.25,43,91.91
3280,C5,503.0,0.25,42,91.91
3281,G4,503.25,0.25,41,91.91
3282,E4,503.5,0.25,41,91.91
3283,C4,503.75,0.25,40,91.91
3284,C2,504.0,0.5,46,91.91
3285,C#4,504.25,0.25,36,91.91
3286,F4,504.5,0.25,37,91.91
3287,G#4,504.75,0.25,38,91.91
3288,C5,505.0,0.25,40,91.91
3289,F3,505.0,1.0,39,91.91
3290,G#3,505.0,1.0,39,91.91
3291,C#5,505.25,0.25,41,91.91
3292,F5,505.5,0.25,42,91.91
3293,G#5,505.75,0.25,44,91.91
3294,C6,506.0,0.25,45,91.91
3295,F3,506.0,2.0,39,91.91
3296,G#3,506.0,2.0,39,91.91
3297,C#6,506.25,0.25,44,91.91
3298,G#5,506.5,0.25,43,91.91
3299,F5,506.75,0.25,43,91.91
3300,C#5,507.0,0.25,42,91.91
3301,G#4,507.25,0.25,41,91.91
3302,F4,507.5,0.25,41,91.91
3303,C#4,507.75,0.25,40,91.91
3304,C2,508.0,0.5,46,91.91
3305,E4,508.25,0.25,36,91.91
3306,G4,508.5,0.25,37,91.91
3307,B-4,508.75,0.25,38,91.91
3308,E-5,509.0,0.25,40,91.91
3309,G3,509.0,1.0,39,91.91
3310,B-3,509.0,1.0,39,91.91
3311,E5,509.25,0.25,41,91.91
3312,G5,509.5,0.25,42,91.91
3313,B-5,509.75,0.25,44,91.91
3314,E-6,510.0,0.25,45,91.91
3315,G3,510.0,2.0,39,91.91
3316,B-3,510.0,2.0,39,91.91
3317,E6,510.25,0.25,44,91.91
3318,B-5,510.5,0.25,43,91.91
3319,G5,510.75,0.25,43,91.91
3320,E5,511.0,0.25,42,91.91
3321,B-4,511.25,0.25,41,91.91
3322,G4,511.5,0.25,41,91.91
3323,E4,511.75,0.25,40,91.91
3324,F2,512.0,0.5,46,91.91
3325,F4,512.25,0.25,36,91.91
3326,A4,512.5,0.25,37,91.91
3327,C5,512.75,0.25,38,91.91
3328,E5,513.0,0.25,40,91.91
3329,A3,513.0,1.0,39,91.91
3330,C4,513.0,1.0,39,91.91
3331,F5,513.25,0.25,41,91.91
3332,A5,513.5,0.25,42,91.91
3333,C6,513.75,0.25,44,91.91
3334,E6,514.0,0.25,45,91.91
3335,A3,514.0,2.0,39,91.91
3336,C4,514.0,2.0,39,91.91
3337,F6,514.25,0.25,44,91.91
3338,C6,514.5,0.25,43,91.91
3339,A5,514.75,0.25,43,91.91
3340,F5,515.0,0.25,42,91.91
3341,C5,515.25,0.25,41,91.91
3342,A4,515.5,0.25,41,91.91
3343,F4,515.75,0.25,40,91.91
3344,F2,516.0,0.5,46,91.91
3345,F#4,516.25,0.25,36,91.91
3346,B-4,516.5,0.25,37,91.91
3347,C#5,516.75,0.25,38,91.91
3348,F5,517.0,0.25,40,91.91
3349,B-3,517.0,1.0,39,91.91
3350,C#4,517.0,1.0,39,91.91
3351,F#5,517.25,0.25,41,91.91
3352,B-5,517.5,0.25,42,91.91
3353,C#6,517.75,0.25,44,91.91
3354,F6,518.0,0.25,45,91.91
3355,B-3,518.0,2.0,39,91.91
3356,C#4,518.0,2.0,39,91.91
3357,F#6,518.25,0.25,44,91.91
3358,C#6,518.5,0.25,43,91.91
3359,B-5,518.75,0.25,43,91.91
3360,F#5,519.0,0.25,42,91.91
3361,C#5,519.25,0.25,41,91.91
3362,B-4,519.5,0.25,41,91.91
3363,F#4,519.75,0.25,40,91.91
3364,F2,520.0,0.5,46,91.91
3365,A4,520.25,0.25,36,91.91
3366,C5,520.5,0.25,37,91.91
3367,E-5,520.75,0.25,38,91.91
3368,G#5,521.0,0.25,40,91.91
3369,C4,521.0,1.0,39,91.91
3370,E-4,521.0,1.0,39,91.91
3371,A5,521.25,0.25,41,91.91
3372,C6,521.5,0.25,42,91.91
3373,E-6,521.75,0.25,44,91.91
3374,G#6,522.0,0.25,45,91.91
3375,C4,522.0,2.0,39,91.91
3376,E-4,522.0,2.0,39,91.91
3377,A6,522.25,0.25,44,91.91
3378,E-6,522.5,0.25,43,91.91
3379,C6,522.75,0.25,43,91.91
3380,A5,523.0,0.25,42,91.91
3381,E-5,523.25,0.25,41,91.91
3382,C5,523.5,0.25,41,91.91
3383,A4,523.75,0.25,40,91.91
3384,B-2,524.0,0.5,46,91.91
3385,B-4,524.25,0.25,39,91.91
3386,D5,524.5,0.25,41,91.91
3387,F5,524.75,0.25,44,91.91
3388,A5,525.0,0.25,46,91.91
3389,D4,525.0,1.0,39,91.91
3390,F4,525.0,1.0,39,91.91
3391,B-5,525.25,0.25,44,91.91
3392,F5,525.5,0.25,42,91.91
3393,D5,525.75,0.25,40,91.91
3394,B-4,526.0,0.25,45,91.91
3395,D4,526.0,2.0,39,91.91
3396,F4,526.0,2.0,39,91.91
3397,D5,526.25,0.25,41,91.91
3398,F5,526.5,0.25,43,91.91
3399,A5,526.75,0.25,45,91.91
3400,B-5,527.0,0.25,47,91.91
3401,F5,527.25,0.25,45,91.91
3402,D5,527.5,0.25,44,91.91
3403,B-4,527.75,0.25,42,91.91
3404,B-2,528.0,0.5,46,91.91
3405,B4,528.25,0.25,39,91.91
3406,E-5,528.5,0.25,41,91.91
3407,F#5,528.75,0.25,44,91.91
3408,B-5,529.0,0.25,46,91.91
3409,E-4,529.0,1.0,39,91.91
3410,F#4,529.0,1.0,39,91.91
3411,B5,529.25,0.25,44,91.91
3412,F#5,529.5,0.25,42,91.91
3413,E-5,529.75,0.25,40,91.91
3414,B4,530.0,0.25,45,91.91
3415,E-4,530.0,2.0,39,91.91
3416,F#4,530.0,2.0,39,91.91
3417,E-5,530.25,0.25,41,91.91
3418,F#5,530.5,0.25,43,91.91
3419,B-5,530.75,0.25,45,91.91
3420,B5,531.0,0.25,47,91.91
3421,F#5,531.25,0.25,45,91.91
3422,E-5,531.5,0.25,44,91.91
3423,B4,531.75,0.25,42,91.91
3424,B-2,532.0,0.5,46,91.91
3425,D5,532.25,0.25,39,91.91
3426,F5,532.5,0.25,41,91.91
3427,G#5,532.75,0.25,44,91.91
3428,C#6,533.0,0.25,46,91.91
3429,F4,533.0,1.0,39,91.91
3430,G#4,533.0,1.0,39,91.91
3431,D6,533.25,0.25,44,91.91
3432,G#5,533.5,0.25,42,91.91
3433,F5,533.75,0.25,40,91.91
3434,D5,534.0,0.25,45,91.91
3435,F4,534.0,2.0,39,91.91
3436,G#4,534.0,2.0,39,91.91
3437,F5,534.25,0.25,41,91.91
3438,G#5,534.5,0.25,43,91.91
3439,C#6,534.75,0.25,45,91.91
3440,D6,535.0,0.25,47,91.91
3441,G#5,535.25,0.25,45,91.91
3442,F5,535.5,0.25,44,91.91
3443,D5,535.75,0.25,42,91.91
3444,E-3,536.0,0.5,46,91.91
3445,F#5,536.25,0.25,39,91.91
3446,F5,536.5,0.25,46,91.91
3447,F#5,536.75,0.25,44,91.91
3448,B-3,537.0,1.0,39,91.91
3449,E-4,537.0,1.0,39,91.91
3450,F#4,537.0,1.0,39,91.91
3451,B-5,537.25,0.25,44,91.91
3452,A5,537.5,0.25,47,91.91
3453,B-5,537.75,0.25,40,91.91
3454,B-3,538.0,2.0,39,91.91
3455,E-4,538.0,2.0,39,91.91
3456,F#4,538.0,2.0,39,91.91
3457,E-6,538.25,0.25,41,91.91
3458,D6,538.5,0.25,43,91.91
3459,E-6,538.75,0.25,42,91.91
3460,F#6,539.0,0.25,47,91.91
3461,E-6,539.25,0.25,45,91.91
3462,F#6,539.5,0.25,49,91.91
3463,E-6,539.75,0.25,42,91.91
3464,F#6,540.0,0.25,53,91.91
3465,C3,540.0,0.5,46,91.91
3466,F6,540.25,0.25,51,91.91
3467,E-6,540.5,0.25,49,91.91
3468,C#6,540.75,0.25,47,91.91
3469,C6,541.0,0.25,45,91.91
3470,G#3,541.0,1.0,39,91.91
3471,E-4,541.0,1.0,39,91.91
3472,F#4,541.0,1.0,39,91.91
3473,C#6,541.25,0.25,46,91.91
3474,E-6,541.5,0.25,47,91.91
3475,F6,541.75,0.25,48,91.91
3476,F#6,542.0,0.25,53,91.91
3477,G#3,542.0,2.0,39,91.91
3478,E-4,542.0,2.0,39,91.91
3479,F#4,542.0,2.0,39,91.91
3480,F6,542.25,0.25,52,91.91
3481,E-6,542.5,0.25,51,91.91
3482,C#6,542.75,0.25,50,91.91
3483,C6,543.0,0.25,49,91.91
3484,B-5,543.25,0.25,48,91.91
3485,G#5,543.5,0.25,47,91.91
3486,F#5,543.75,0.25,46,91.91
3487,C#3,544.0,0.5,39,91.91
3488,F5,544.25,0.25,39,91.91
3489,E5,544.5,0.25,46,91.91
3490,F5,544.75,0.25,44,91.91
3491,G#3,545.0,1.0,33,91.91
3492,C#4,545.0,1.0,33,91.91
3493,F4,545.0,1.0,33,91.91
3494,G#5,545.25,0.25,44,91.91
3495,G5,545.5,0.25,47,91.91
3496,G#5,545.75,0.25,40,91.91
3497,G#3,546.0,2.0,33,91.91
3498,C#4,546.0,2.0,33,91.91
3499,F4,546.0,2.0,33,91.91
3500,C#6,546.25,0.25,41,91.91
3501,C6,546.5,0.25,43,91.91
3502,C#6,546.75,0.25,42,91.91
3503,F6,547.0,0.25,47,91.91
3504,C#6,547.25,0.25,45,91.91
3505,F6,547.5,0.25,49,91.91
3506,C#6,547.75,0.25,42,91.91
3507,F6,548.0,0.25,53,91.91
3508,B2,548.0,0.5,39,91.91
3509,E-6,548.25,0.25,51,91.91
3510,D6,548.5,0.25,49,91.91
3511,C6,548.75,0.25,47,91.91
3512,B5,549.0,0.25,45,91.91
3513,G3,549.0,1.0,33,91.91
3514,D4,549.0,1.0,33,91.91
3515,F4,549.0,1.0,33,91.91
3516,C6,549.25,0.25,46,91.91
3517,D6,549.5,0.25,47,91.91
3518,E-6,549.75,0.25,48,91.91
3519,F6,550.0,0.25,53,91.91
3520,G3,550.0,2.0,33,91.91
3521,D4,550.0,2.0,33,91.91
3522,F4,550.0,2.0,33,91.91
3523,E-6,550.25,0.25,52,91.91
3524,D6,550.5,0.25,51,91.91
3525,C6,550.75,0.25,50,91.91
3526,B5,551.0,0.25,49,91.91
3527,G#5,551.25,0.25,48,91.91
3528,G5,551.5,0.25,47,91.91
3529,F5,551.75,0.25,46,91.91
3530,C3,552.0,0.5,39,91.91
3531,E-5,552.25,0.25,39,91.91
3532,D5,552.5,0.25,46,91.91
3533,E-5,552.75,0.25,44,91.91
3534,G3,553.0,1.0,33,91.91
3535,C4,553.0,1.0,33,91.91
3536,E-4,553.0,1.0,33,91.91
3537,G5,553.25,0.25,44,91.91
3538,F#5,553.5,0.25,47,91.91
3539,G5,553.75,0.25,40,91.91
3540,G3,554.0,1.0,33,91.91
3541,C4,554.0,1.0,33,91.91
3542,E-4,554.0,1.0,33,91.91
3543,B5,554.25,0.25,41,91.91
3544,C6,554.5,0.25,43,91.91
3545,B5,554.75,0.25,42,91.91
3546,C6,555.0,0.25,47,91.91
3547,C3,555.0,1.0,33,91.91
3548,D6,555.25,0.25,45,91.91
3549,E-6,555.5,0.25,49,91.91
3550,F#6,555.75,0.25,42,91.91
3551,G6,556.0,0.25,53,91.91
3552,G2,556.0,1.0,33,91.91
3553,D6,556.25,0.25,51,91.91
3554,B5,556.5,0.25,49,91.91
3555,G5,556.75,0.25,47,91.91
3556,F#5,557.0,0.25,45,91.91
3557,G3,557.0,1.0,29,91.91
3558,B3,557.0,1.0,29,91.91
3559,D4,557.0,1.0,29,91.91
3560,G5,557.25,0.25,46,91.91
3561,B5,557.5,0.25,47,91.91
3562,D6,557.75,0.25,48,91.91
3563,E-6,558.0,0.25,53,91.91
3564,C3,558.0,1.0,35,91.91
3565,C6,558.25,0.25,51,91.91
3566,G5,558.5,0.25,49,91.91
3567,E-5,558.75,0.25,47,91.91
3568,C6,559.0,0.25,51,91.91
3569,G3,559.0,1.0,30,91.91
3570,C4,559.0,1.0,30,91.91
3571,E-4,559.0,1.0,30,91.91
3572,G5,559.25,0.25,50,91.91
3573,E-5,559.5,0.25,49,91.91
3574,C5,559.75,0.25,48,91.91
3575,B5,560.0,0.25,53,91.91
3576,G2,560.0,1.0,37,91.91
3577,G5,560.25,0.25,51,91.91
3578,D5,560.5,0.25,49,91.91
3579,B4,560.75,0.25,47,91.91
3580,G5,561.0,0.25,51,91.91
3581,D3,561.0,1.0,32,91.91
3582,G3,561.0,1.0,32,91.91
3583,B3,561.0,1.0,32,91.91
3584,D5,561.25,0.25,50,91.91
3585,B4,561.5,0.25,49,91.91
3586,G4,561.75,0.25,48,91.91
3587,E-5,562.0,0.25,53,91.91
3588,C2,562.0,1.0,46,91.91
3589,C5,562.25,0.25,51,91.91
3590,G4,562.5,0.25,49,91.91
3591,E-4,562.75,0.25,47,91.91
3592,C5,563.0,0.25,51,91.91
3593,C3,563.0,1.0,39,91.91
3594,E-3,563.0,1.0,39,91.91
3595,G3,563.0,1.0,39,91.91
3596,G4,563.25,0.25,50,91.91
3597,E-4,563.5,0.25,49,91.91
3598,C4,563.75,0.25,48,91.91
3599,B4,564.0,0.25,53,91.91
3600,G1,564.0,1.0,46,91.91
3601,G4,564.25,0.25,51,91.91
3602,D4,564.5,0.25,49,91.91
3603,B3,564.75,0.25,47,91.91
3604,D4,565.0,0.25,47,91.91
3605,B2,565.0,1.0,39,91.91
3606,D3,565.0,1.0,39,91.91
3607,G3,565.0,1.0,39,91.91
3608,F4,565.25,0.25,48,91.91
3609,B4,565.5,0.25,50,91.91
3610,D5,565.75,0.25,52,91.91
3611,C5,566.0,0.25,53,91.91
3612,C2,566.0,1.0,46,91.91
3613,G4,566.25,0.25,51,91.91
3614,E-4,566.5,0.25,49,91.91
3615,C4,566.75,0.25,47,91.91
3616,G4,567.0,0.25,51,91.91
3617,G2,567.0,1.0,39,91.91
3618,C3,567.0,1.0,39,91.91
3619,E-3,567.0,1.0,39,91.91
3620,E-4,567.25,0.25,50,91.91
3621,C4,567.5,0.25,49,91.91
3622,G3,567.75,0.25,48,91.91
3623,G4,568.0,0.25,79,91.91
3624,G2,568.0,0.5,69,91.91
3625,G1,568.0,0.5,69,91.91
3626,D4,568.25,0.25,75,91.91
3627,B3,568.5,0.25,75,91.91
3628,G3,568.75,0.25,70,91.91
3629,B3,569.0,0.25,75,91.91
3630,B2,569.0,0.25,69,91.91
3631,D4,569.25,0.25,71,91.91
3632,D3,569.25,0.25,60,91.91
3633,B3,569.5,0.25,71,91.91
3634,B2,569.5,0.25,60,91.91
3635,G3,569.75,0.25,71,91.91
3636,G2,569.75,0.25,59,91.91
3637,C4,570.0,0.25,70,91.91
3638,C3,570.0,0.25,63,91.91
3639,G3,570.25,0.25,61,91.91
3640,G2,570.25,0.25,52,91.91
3641,E-3,570.5,0.25,61,91.91
3642,E-2,570.5,0.25,52,91.91
3643,G3,570.75,0.25,60,91.91
3644,G2,570.75,0.25,52,91.91
3645,E-3,571.0,0.25,64,91.91
3646,E-2,571.0,0.25,57,91.91
3647,G3,571.25,0.25,54,91.91
3648,G2,571.25,0.25,47,91.91
3649,E-3,571.5,0.25,54,91.91
3650,E-2,571.5,0.25,46,91.91
3651,C3,571.75,0.25,54,91.91
3652,C2,571.75,0.25,45,91.91
3653,G1,572.0,0.5,57,91.91
3654,G3,572.25,0.25,34,91.91
3655,D3,572.5,0.25,34,91.91
3656,B2,572.75,0.25,34,91.91
3657,G#3,573.0,1.0,40,91.91
3658,G3,573.25,0.25,34,91.91
3659,D3,573.5,0.25,34,91.91
3660,B2,573.75,0.25,34,91.91
3661,G#3,574.0,1.0,40,91.91
3662,G3,574.25,0.25,34,91.91
3663,D3,574.5,0.25,34,91.91
3664,B2,574.75,0.25,34,91.91
3665,G#3,575.0,1.0,39,91.91
3666,G3,575.25,0.25,34,91.91
3667,D3,575.5,0.25,34,91.91
3668,B2,575.75,0.25,34,91.91
3669,C2,576.0,0.5,50,91.91
3670,A3,576.25,0.25,34,91.91
3671,E-3,576.5,0.25,34,91.91
3672,C3,576.75,0.25,34,91.91
3673,F#3,577.0,1.0,40,91.91
3674,A3,577.25,0.25,34,91.91
3675,E-3,577.5,0.25,34,91.91
3676,C3,577.75,0.25,34,91.91
3677,F#3,578.0,1.0,40,91.91
3678,A3,578.25,0.25,34,91.91
3679,E-3,578.5,0.25,34,91.91
3680,C3,578.75,0.25,34,91.91
3681,F#3,579.0,1.0,40,91.91
3682,A3,579.25,0.25,34,91.91
3683,E-3,579.5,0.25,34,91.91
3684,C3,579.75,0.25,34,91.91
3685,G1,580.0,0.5,50,91.91
3686,G3,580.25,0.25,34,91.91
3687,D3,580.5,0.25,34,91.91
3688,B2,580.75,0.25,34,91.91
3689,G#3,581.0,1.0,39,91.91
3690,G3,581.25,0.25,34,91.91
3691,D3,581.5,0.25,34,91.91
3692,B2,581.75,0.25,34,91.91
3693,G#3,582.0,1.0,39,91.91
3694,G3,582.25,0.25,34,91.91
3695,D3,582.5,0.25,34,91.91
3696,B2,582.75,0.25,34,91.91
3697,G#3,583.0,1.0,39,91.91
3698,G3,583.25,0.25,34,91.91
3699,D3,583.5,0.25,34,91.91
3700,B2,583.75,0.25,34,91.91
3701,C2,584.0,0.5,50,91.91
3702,A3,584.25,0.25,34,91.91
3703,E-3,584.5,0.25,34,91.91
3704,C3,584.75,0.25,34,91.91
3705,F#3,585.0,1.0,39,91.91
3706,A3,585.25,0.25,34,91.91
3707,E-3,585.5,0.25,34,91.91
3708,C3,585.75,0.25,34,91.91
3709,F#3,586.0,1.0,39,91.91
3710,A3,586.25,0.25,34,91.91
3711,E-3,586.5,0.25,34,91.91
3712,C3,586.75,0.25,34,91.91
3713,F#3,587.0,1.0,39,91.91
3714,A3,587.25,0.25,34,91.91
3715,E-3,587.5,0.25,34,91.91
3716,C3,587.75,0.25,34,91.91
3717,G3,588.0,0.25,77,91.91
3718,G1,588.0,0.5,85,91.91
3719,D3,588.25,0.25,60,91.91
3720,B2,588.5,0.25,60,91.91
3721,D3,588.75,0.25,60,91.91
3722,G3,589.0,0.25,76,91.91
3723,B3,589.0,1.0,75,91.91
3724,D3,589.25,0.25,60,91.91
3725,B2,589.5,0.25,60,91.91
3726,D3,589.75,0.25,60,91.91
3727,G3,590.0,0.25,76,91.91
3728,B3,590.0,2.0,75,91.91
3729,D3,590.25,0.25,59,91.91
3730,B2,590.5,0.25,59,91.91
3731,D3,590.75,0.25,59,91.91
3732,G3,591.0,0.25,67,91.91
3733,D3,591.25,0.25,61,91.91
3734,B2,591.5,0.25,61,91.91
3735,D3,591.75,0.25,61,91.91
3736,B3,592.0,0.25,77,91.91
3737,G1,592.0,0.5,85,91.91
3738,G3,592.25,0.25,60,91.91
3739,D3,592.5,0.25,60,91.91
3740,G3,592.75,0.25,60,91.91
3741,B3,593.0,0.25,76,91.91
3742,D4,593.0,1.0,75,91.91
3743,G3,593.25,0.25,60,91.91
3744,D3,593.5,0.25,60,91.91
3745,G3,593.75,0.25,60,91.91
3746,B3,594.0,0.25,76,91.91
3747,D4,594.0,2.0,75,91.91
3748,G3,594.25,0.25,59,91.91
3749,D3,594.5,0.25,59,91.91
3750,G3,594.75,0.25,59,91.91
3751,B3,595.0,0.25,66,91.91
3752,G3,595.25,0.25,58,91.91
3753,D3,595.5,0.25,58,91.91
3754,G3,595.75,0.25,58,91.91
3755,D4,596.0,0.25,77,91.91
3756,G1,596.0,0.5,85,91.91
3757,B3,596.25,0.25,60,91.91
3758,G3,596.5,0.25,60,91.91
3759,B3,596.75,0.25,60,91.91
3760,D4,597.0,0.25,76,91.91
3761,F4,597.0,0.979,75,91.91
3762,B3,597.25,0.25,60,91.91
3763,G3,597.5,0.25,60,91.91
3764,B3,597.75,0.25,60,91.91
3765,D4,598.0,0.25,76,91.91
3766,F4,598.0,1.994,75,91.91
3767,B3,598.25,0.25,59,91.91
3768,G3,598.5,0.25,59,91.91
3769,B3,598.75,0.25,59,91.91
3770,D4,599.0,0.25,66,91.91
3771,B3,599.25,0.25,58,91.91
3772,G3,599.5,0.25,58,91.91
3773,B3,599.75,0.25,58,91.91
3774,F4,600.0,0.25,64,91.91
3775,B3,600.25,0.25,44,91.91
3776,D4,600.25,0.25,44,91.91
3777,G3,600.5,0.25,49,91.91
3778,D4,600.75,0.25,44,91.91
3779,B3,600.75,0.25,44,91.91
3780,F4,601.0,0.25,58,91.91
3781,B4,601.0,1.0,64,91.91
3782,D4,601.25,0.25,42,91.91
3783,B3,601.25,0.25,42,91.91
3784,G3,601.5,0.25,47,91.91
3785,D4,601.75,0.25,42,91.91
3786,B3,601.75,0.25,42,91.91
3787,F4,602.0,0.25,61,91.91
3788,B3,602.25,0.25,42,91.91
3789,D4,602.25,0.25,42,91.91
3790,G3,602.5,0.25,47,91.91
3791,D4,602.75,0.25,40,91.91
3792,B3,602.75,0.25,40,91.91
3793,F4,603.0,0.25,54,91.91
3794,D5,603.0,1.0,57,91.91
3795,D4,603.25,0.25,40,91.91
3796,B3,603.25,0.25,40,91.91
3797,G3,603.5,0.25,44,91.91
3798,D4,603.75,0.25,38,91.91
3799,B3,603.75,0.25,38,91.91
3800,F4,604.0,0.25,56,91.91
3801,B3,604.25,0.25,38,91.91
3802,D4,604.25,0.25,38,91.91
3803,G3,604.5,0.25,42,91.91
3804,D4,604.75,0.25,37,91.91
3805,B3,604.75,0.25,37,91.91
3806,F4,605.0,0.25,49,91.91
3807,F5,605.0,1.0,52,91.91
3808,D4,605.25,0.25,36,91.91
3809,B3,605.25,0.25,36,91.91
3810,G3,605.5,0.25,39,91.91
3811,D4,605.75,0.25,35,91.91
3812,B3,605.75,0.25,35,91.91
3813,F4,606.0,0.25,50,91.91
3814,B3,606.25,0.25,34,91.91
3815,D4,606.25,0.25,34,91.91
3816,G3,606.5,0.25,39,91.91
3817,D4,606.75,0.25,34,91.91
3818,B3,606.75,0.25,34,91.91
3819,F4,607.0,0.25,45,91.91
3820,F5,607.0,1.0,52,91.91
3821,D4,607.25,0.25,32,91.91
3822,B3,607.25,0.25,32,91.91
3823,G3,607.5,0.25,35,91.91
3824,D4,607.75,0.25,32,91.91
3825,B3,607.75,0.25,32,91.91
3826,F4,608.0,0.25,43,91.91
3827,F5,608.0,1.0,49,91.91
3828,B3,608.25,0.25,30,91.91
3829,D4,608.25,0.25,30,91.91
3830,G3,608.5,0.25,33,91.91
3831,D4,608.75,0.25,28,91.91
3832,B3,608.75,0.25,28,91.91
3833,F4,609.0,0.25,38,91.91
3834,G#1,609.0,1.0,41,91.91
3835,G#2,609.0,1.0,41,91.91
3836,D4,609.25,0.25,28,91.91
3837,B3,609.25,0.25,28,91.91
3838,G3,609.5,0.25,30,91.91
3839,D4,609.75,0.25,26,91.91
3840,B3,609.75,0.25,26,91.91
3841,F4,610.0,0.25,42,91.91
3842,G1,610.0,0.5,38,91.91
3843,G2,610.0,0.5,38,91.91
3844,B3,610.25,0.25,28,91.91
3845,D4,610.25,0.25,28,91.91
3846,G3,610.5,0.25,31,91.91
3847,D4,610.75,0.25,27,91.91
3848,B3,610.75,0.25,27,91.91
3849,F4,611.0,0.25,38,91.91
3850,F5,611.0,0.979,50,91.91
3851,D4,611.25,0.25,26,91.91
3852,B3,611.25,0.25,26,91.91
3853,G3,611.5,0.25,30,91.91
3854,D4,611.75,0.25,26,91.91
3855,B3,611.75,0.25,26,91.91
3856,F4,612.0,0.25,40,91.91
3857,F5,612.0,1.0,50,91.91
3858,B3,612.25,0.25,27,91.91
3859,D4,612.25,0.25,27,91.91
3860,G3,612.5,0.25,30,91.91
3861,D4,612.75,0.25,26,91.91
3862,B3,612.75,0.25,26,91.91
3863,F4,613.0,0.25,36,91.91
3864,G#1,613.0,1.0,41,91.91
3865,G#2,613.0,1.0,41,91.91
3866,D4,613.25,0.25,26,91.91
3867,B3,613.25,0.25,26,91.91
3868,G3,613.5,0.25,29,91.91
3869,D4,613.75,0.25,25,91.91
3870,B3,613.75,0.25,25,91.91
3871,F4,614.0,0.25,40,91.91
3872,G1,614.0,0.5,39,91.91
3873,G2,614.0,0.5,39,91.91
3874,B3,614.25,0.25,27,91.91
3875,D4,614.25,0.25,27,91.91
3876,G3,614.5,0.25,30,91.91
3877,D4,614.75,0.25,26,91.91
3878,B3,614.75,0.25,26,91.91
3879,F4,615.0,0.25,35,91.91
3880,F5,615.0,1.0,45,91.91
3881,D4,615.25,0.25,26,91.91
3882,B3,615.25,0.25,26,91.91
3883,G3,615.5,0.25,28,91.91
3884,D4,615.75,0.25,25,91.91
3885,B3,615.75,0.25,25,91.91
3886,F4,616.0,0.25,39,91.91
3887,B3,616.25,0.25,26,91.91
3888,D4,616.25,0.25,26,91.91
3889,G3,616.5,0.25,30,91.91
3890,D4,616.75,0.25,26,91.91
3891,B3,616.75,0.25,26,91.91
3892,F4,617.0,0.25,36,91.91
3893,F5,617.0,1.0,45,91.91
3894,D4,617.25,0.25,26,91.91
3895,B3,617.25,0.25,26,91.91
3896,G3,617.5,0.25,28,91.91
3897,D4,617.75,0.25,25,91.91
3898,B3,617.75,0.25,25,91.91
3899,F4,618.0,0.25,39,91.91
3900,B3,618.25,0.25,27,91.91
3901,D4,618.25,0.25,27,91.91
3902,G3,618.5,0.25,30,91.91
3903,D4,618.75,0.25,26,91.91
3904,B3,618.75,0.25,26,91.91
3905,F4,619.0,0.25,36,91.91
3906,G#3,619.0,1.0,45,91.91
3907,D4,619.25,0.25,26,91.91
3908,B3,619.25,0.25,26,91.91
3909,G3,619.5,0.25,28,91.91
3910,D4,619.75,0.25,25,91.91
3911,B3,619.75,0.25,25,91.91
3912,F4,620.0,0.25,40,91.91
3913,B3,620.25,0.25,28,91.91
3914,D4,620.25,0.25,28,91.91
3915,G3,620.5,0.25,31,91.91
3916,D4,620.75,0.25,26,91.91
3917,B3,620.75,0.25,26,91.91
3918,F4,621.0,0.25,36,91.91
3919,G2,621.0,1.0,46,91.91
3920,D4,621.25,0.25,26,91.91
3921,B3,621.25,0.25,26,91.91
3922,G3,621.5,0.25,29,91.91
3923,D4,621.75,0.25,26,91.91
3924,B3,621.75,0.25,26,91.91
3925,F4,622.0,0.25,40,91.91
3926,B3,622.25,0.25,28,91.91
3927,D4,622.25,0.25,28,91.91
3928,G3,622.5,0.25,31,91.91
3929,D4,622.75,0.25,26,91.91
3930,B3,622.75,0.25,26,91.91
3931,B3,623.0,0.25,74,91.91
3932,B4,623.0,0.25,74,91.91
3933,G1,623.0,0.5,71,91.91
3934,G2,623.0,0.5,71,91.91
3935,D4,623.25,0.25,62,91.91
3936,B3,623.25,0.25,62,91.91
3937,B3,623.5,0.25,63,91.91
3938,B4,623.5,0.25,63,91.91
3939,G1,623.5,0.5,71,91.91
3940,G2,623.5,0.5,71,91.91
3941,D4,623.75,0.25,63,91.91
3942,B3,623.75,0.25,63,91.91
3943,C4,624.0,0.25,94,91.91
3944,E4,624.0,0.25,94,91.91
3945,C5,624.0,0.25,94,91.91
3946,C3,624.0,0.25,75,91.91
3947,C2,624.0,0.25,75,91.91
3948,G2,624.25,0.25,66,91.91
3949,C3,624.5,0.25,70,91.91
3950,E3,624.75,0.25,76,91.91
3951,G3,625.0,0.25,68,91.91
3952,G6,625.0,0.5,86,91.91
3953,G5,625.0,0.5,86,91.91
3954,C3,625.25,0.25,68,91.91
3955,E3,625.5,0.25,68,91.91
3956,G3,625.75,0.25,76,91.91
3957,C4,626.0,0.25,66,91.91
3958,G6,626.0,1.5,92,91.91
3959,G5,626.0,1.5,92,91.91
3960,E3,626.25,0.25,68,91.91
3961,G3,626.5,0.25,71,91.91
3962,C4,626.75,0.25,78,91.91
3963,E4,627.0,0.25,71,91.91
3964,G3,627.25,0.25,71,91.91
3965,C4,627.5,0.25,71,91.91
3966,E6,627.5,0.5,80,91.91
3967,E5,627.5,0.5,80,91.91
3968,E4,627.75,0.25,78,91.91
3969,F4,628.0,0.25,62,91.91
3970,D6,628.0,1.0,86,91.91
3971,D5,628.0,1.0,86,91.91
3972,E4,628.25,0.25,68,91.91
3973,D4,628.5,0.25,71,91.91
3974,C4,628.75,0.25,78,91.91
3975,B3,629.0,0.25,71,91.91
3976,G5,629.0,1.0,70,91.91
3977,G4,629.0,1.0,70,91.91
3978,A3,629.25,0.25,71,91.91
3979,G3,629.5,0.25,76,91.91
3980,F3,629.75,0.25,76,91.91
3981,E3,630.0,0.25,62,91.91
3982,C6,630.0,1.0,82,91.91
3983,C5,630.0,1.0,82,91.91
3984,G3,630.25,0.25,66,91.91
3985,C3,630.5,0.25,70,91.91
3986,E3,630.75,0.25,76,91.91
3987,G2,631.0,0.25,70,91.91
3988,E6,631.0,0.5,80,91.91
3989,E5,631.0,0.5,80,91.91
3990,C3,631.25,0.25,70,91.91
3991,E2,631.5,0.25,71,91.91
3992,G2,631.75,0.25,76,91.91
3993,C2,632.0,0.25,94,91.91
3994,G2,632.25,0.25,66,91.91
3995,C3,632.5,0.25,70,91.91
3996,E3,632.75,0.25,76,91.91
3997,G3,633.0,0.25,68,91.91
3998,G6,633.0,0.5,86,91.91
3999,G5,633.0,0.5,86,91.91
4000,C3,633.25,0.25,68,91.91
4001,E3,633.5,0.25,68,91.91
4002,G3,633.75,0.25,76,91.91
4003,C4,634.0,0.25,66,91.91
4004,G6,634.0,1.5,92,91.91
4005,G5,634.0,1.5,92,91.91
4006,E3,634.25,0.25,68,91.91
4007,G3,634.5,0.25,71,91.91
4008,C4,634.75,0.25,78,91.91
4009,E4,635.0,0.25,71,91.91
4010,G3,635.25,0.25,71,91.91
4011,C4,635.5,0.25,71,91.91
4012,E6,635.5,0.5,80,91.91
4013,E5,635.5,0.5,80,91.91
4014,E4,635.75,0.25,71,91.91
4015,F4,636.0,0.25,62,91.91
4016,D6,636.0,1.0,86,91.91
4017,D5,636.0,1.0,86,91.91
4018,E4,636.25,0.25,68,91.91
4019,D4,636.5,0.25,71,91.91
4020,C4,636.75,0.25,78,91.91
4021,B3,637.0,0.25,71,91.91
4022,G5,637.0,1.0,70,91.91
4023,G4,637.0,1.0,70,91.91
4024,G3,637.25,0.25,71,91.91
4025,A3,637.5,0.25,76,91.91
4026,B3,637.75,0.25,76,91.91
4027,C4,638.0,0.25,62,91.91
4028,C6,638.0,0.5,76,91.91
4029,C5,638.0,0.5,76,91.91
4030,B3,638.25,0.25,64,91.91
4031,A3,638.5,0.25,68,91.91
4032,G3,638.75,0.25,73,91.91
4033,F3,639.0,0.25,68,91.91
4034,E3,639.25,0.25,68,91.91
4035,D3,639.5,0.25,69,91.91
4036,C3,639.75,0.25,74,91.91
4037,G2,640.0,0.25,80,91.91
4038,B2,640.25,0.25,58,91.91
4039,D3,640.5,0.25,62,91.91
4040,G3,640.75,0.25,67,91.91
4041,B2,641.0,0.25,60,91.91
4042,F6,641.0,0.5,76,91.91
4043,F5,641.0,0.5,76,91.91
4044,D3,641.25,0.25,60,91.91
4045,G3,641.5,0.25,60,91.91
4046,B3,641.75,0.25,68,91.91
4047,D3,642.0,0.25,58,91.91
4048,F6,642.0,1.5,80,91.91
4049,F5,642.0,1.5,80,91.91
4050,G3,642.25,0.25,60,91.91
4051,B3,642.5,0.25,63,91.91
4052,D4,642.75,0.25,70,91.91
4053,G3,643.0,0.25,53,91.91
4054,B3,643.25,0.25,53,91.91
4055,D4,643.5,0.25,45,91.91
4056,D6,643.5,0.5,50,91.91
4057,D5,643.5,0.5,50,91.91
4058,G4,643.75,0.25,50,91.91
4059,G3,644.0,0.25,28,91.91
4060,E6,644.0,1.0,48,91.91
4061,E5,644.0,1.0,48,91.91
4062,C4,644.25,0.25,32,91.91
4063,G4,644.5,0.25,34,91.91
4064,C4,644.75,0.25,37,91.91
4065,G3,645.0,0.25,28,91.91
4066,C6,645.0,1.0,38,91.91
4067,C5,645.0,1.0,38,91.91
4068,E4,645.25,0.25,32,91.91
4069,G4,645.5,0.25,34,91.91
4070,E4,645.75,0.25,37,91.91
4071,G3,646.0,0.25,28,91.91
4072,B5,646.0,1.0,48,91.91
4073,B4,646.0,1.0,48,91.91
4074,D4,646.25,0.25,31,91.91
4075,G4,646.5,0.25,33,91.91
4076,D4,646.75,0.25,37,91.91
4077,G3,647.0,0.25,28,91.91
4078,D6,647.0,0.5,45,91.91
4079,D5,647.0,0.5,45,91.91
4080,B3,647.25,0.25,31,91.91
4081,G4,647.5,0.25,33,91.91
4082,B3,647.75,0.25,36,91.91
4083,G2,648.0,0.25,86,91.91
4084,B2,648.25,0.25,58,91.91
4085,D3,648.5,0.25,62,91.91
4086,G3,648.75,0.25,67,91.91
4087,B2,649.0,0.25,60,91.91
4088,F6,649.0,0.5,72,91.91
4089,F5,649.0,0.5,72,91.91
4090,D3,649.25,0.25,60,91.91
4091,G3,649.5,0.25,60,91.91
4092,B3,649.75,0.25,68,91.91
4093,D3,650.0,0.25,58,91.91
4094,F6,650.0,1.5,78,91.91
4095,F5,650.0,1.5,78,91.91
4096,G3,650.25,0.25,60,91.91
4097,B3,650.5,0.25,63,91.91
4098,D4,650.75,0.25,70,91.91
4099,G3,651.0,0.25,53,91.91
4100,B3,651.25,0.25,53,91.91
4101,D4,651.5,0.25,53,91.91
4102,D6,651.5,0.5,56,91.91
4103,D5,651.5,0.5,56,91.91
4104,G4,651.75,0.25,59,91.91
4105,G3,652.0,0.25,26,91.91
4106,E-6,652.0,1.0,46,91.91
4107,E-5,652.0,1.0,46,91.91
4108,C4,652.25,0.25,30,91.91
4109,G4,652.5,0.25,32,91.91
4110,C4,652.75,0.25,33,91.91
4111,G3,653.0,0.25,26,91.91
4112,C6,653.0,1.0,36,91.91
4113,C5,653.0,1.0,36,91.91
4114,E-4,653.25,0.25,30,91.91
4115,G4,653.5,0.25,32,91.91
4116,E-4,653.75,0.25,33,91.91
4117,G3,654.0,0.25,26,91.91
4118,B5,654.0,1.0,46,91.91
4119,B4,654.0,1.0,46,91.91
4120,D4,654.25,0.25,30,91.91
4121,G4,654.5,0.25,31,91.91
4122,D4,654.75,0.25,33,91.91
4123,G3,655.0,0.25,26,91.91
4124,D6,655.0,1.0,42,91.91
4125,D5,655.0,1.0,42,91.91
4126,B3,655.25,0.25,30,91.91
4127,G4,655.5,0.25,31,91.91
4128,B3,655.75,0.25,33,91.91
4129,G3,656.0,0.25,33,91.91
4130,E6,656.0,1.0,55,91.91
4131,E5,656.0,1.0,55,91.91
4132,C4,656.25,0.25,37,91.91
4133,G4,656.5,0.25,39,91.91
4134,C4,656.75,0.25,42,91.91
4135,G3,657.0,0.25,33,91.91
4136,C6,657.0,1.0,46,91.91
4137,C5,657.0,1.0,46,91.91
4138,E4,657.25,0.25,38,91.91
4139,G4,657.5,0.25,40,91.91
4140,E4,657.75,0.25,44,91.91
4141,G3,658.0,0.25,34,91.91
4142,B5,658.0,1.0,58,91.91
4143,B4,658.0,1.0,58,91.91
4144,D4,658.25,0.25,38,91.91
4145,G4,658.5,0.25,40,91.91
4146,D4,658.75,0.25,45,91.91
4147,G3,659.0,0.25,37,91.91
4148,D6,659.0,1.0,57,91.91
4149,D5,659.0,1.0,57,91.91
4150,B3,659.25,0.25,39,91.91
4151,G4,659.5,0.25,43,91.91
4152,B3,659.75,0.25,46,91.91
4153,G3,660.0,0.25,33,91.91
4154,E-6,660.0,1.0,60,91.91
4155,E-5,660.0,1.0,60,91.91
4156,C4,660.25,0.25,37,91.91
4157,G4,660.5,0.25,39,91.91
4158,C4,660.75,0.25,42,91.91
4159,G3,661.0,0.25,33,91.91
4160,C6,661.0,1.0,44,91.91
4161,C5,661.0,1.0,44,91.91
4162,C4,661.25,0.25,37,91.91
4163,E-4,661.5,0.25,39,91.91
4164,C4,661.75,0.25,42,91.91
4165,G5,662.0,1.0,50,91.91
4166,G3,662.0,0.25,28,91.91
4167,B3,662.25,0.25,30,91.91
4168,D4,662.5,0.25,32,91.91
4169,B3,662.75,0.25,35,91.91
4170,G5,663.0,1.0,47,91.91
4171,G3,663.0,0.25,28,91.91
4172,C4,663.25,0.25,30,91.91
4173,E-4,663.5,0.25,32,91.91
4174,C4,663.75,0.25,35,91.91
4175,A5,664.0,0.167,37,91.91
4176,G3,664.0,0.125,47,91.91
4177,G5,664.167,0.167,37,91.91
4178,B3,664.25,0.25,30,91.91
4179,A5,664.333,0.167,37,91.91
4180,G5,664.5,0.167,37,91.91
4181,D4,664.5,0.25,31,91.91
4182,A5,664.667,0.167,38,91.91
4183,B3,664.75,0.25,32,91.91
4184,G5,664.833,0.167,38,91.91
4185,A5,665.0,0.167,39,91.91
4186,G3,665.0,0.125,53,91.91
4187,G5,665.167,0.167,39,91.91
4188,C4,665.25,0.25,32,91.91
4189,A5,665.333,0.167,39,91.91
4190,G5,665.5,0.167,39,91.91
4191,E4,665.5,0.25,33,91.91
4192,A5,665.667,0.167,40,91.91
4193,C4,665.75,0.25,34,91.91
4194,G5,665.833,0.167,40,91.91
4195,A5,666.0,0.167,41,91.91
4196,G3,666.0,0.125,57,91.91
4197,G5,666.167,0.167,41,91.91
4198,B3,666.25,0.25,35,91.91
4199,A5,666.333,0.167,41,91.91
4200,G5,666.5,0.167,43,91.91
4201,D4,666.5,0.25,38,91.91
4202,A5,666.667,0.167,43,91.91
4203,B3,666.75,0.25,38,91.91
4204,G5,666.833,0.167,43,91.91
4205,A5,667.0,0.167,44,91.91
4206,G3,667.0,0.125,64,91.91
4207,G5,667.167,0.167,44,91.91
4208,A3,667.25,0.25,39,91.91
4209,A5,667.333,0.167,45,91.91
4210,G5,667.5,0.167,45,91.91
4211,C4,667.5,0.25,41,91.91
4212,A5,667.667,0.167,45,91.91
4213,A3,667.75,0.25,43,91.91
4214,G5,667.833,0.167,45,91.91
4215,A5,668.0,0.167,47,91.91
4216,G3,668.0,0.125,71,91.91
4217,G5,668.167,0.167,47,91.91
4218,B3,668.25,0.25,47,91.91
4219,A5,668.333,0.167,47,91.91
4220,G5,668.5,0.167,47,91.91
4221,A3,668.5,0.25,49,91.91
4222,A5,668.667,0.167,47,91.91
4223,G3,668.75,0.25,50,91.91
4224,G5,668.833,0.167,48,91.91
4225,A5,669.0,0.167,48,91.91
4226,F3,669.0,0.125,76,91.91
4227,G5,669.167,0.167,48,91.91
4228,A3,669.25,0.25,50,91.91
4229,A5,669.333,0.167,49,91.91
4230,G5,669.5,0.167,49,91.91
4231,G3,669.5,0.25,53,91.91
4232,A5,669.667,0.167,50,91.91
4233,F3,669.75,0.25,55,91.91
4234,G5,669.833,0.167,51,91.91
4235,A5,670.0,0.167,51,91.91
4236,E3,670.0,0.125,85,91.91
4237,G5,670.167,0.167,52,91.91
4238,G3,670.25,0.25,58,91.91
4239,A5,670.333,0.167,52,91.91
4240,G5,670.5,0.167,52,91.91
4241,F3,670.5,0.25,61,91.91
4242,A5,670.667,0.167,54,91.91
4243,E3,670.75,0.25,64,91.91
4244,G5,670.833,0.167,54,91.91
4245,A5,671.0,0.167,54,91.91
4246,D3,671.0,0.125,90,91.91
4247,G5,671.167,0.167,55,91.91
4248,F3,671.25,0.25,68,91.91
4249,A5,671.333,0.167,55,91.91
4250,G5,671.5,0.167,55,91.91
4251,E3,671.5,0.25,72,91.91
4252,A5,671.667,0.167,56,91.91
4253,D3,671.75,0.25,76,91.91
4254,G5,671.833,0.167,56,91.91
4255,A5,672.0,0.167,48,91.91
4256,C2,672.0,0.5,94,91.91
4257,C3,672.0,0.5,94,91.91
4258,G5,672.167,0.167,35,91.91
4259,D3,672.25,0.125,56,91.91
4260,A5,672.333,0.167,38,91.91
4261,E3,672.375,0.125,57,91.91
4262,G5,672.5,0.167,35,91.91
4263,F3,672.5,0.125,60,91.91
4264,G3,672.625,0.125,60,91.91
4265,A5,672.667,0.167,38,91.91
4266,A3,672.75,0.125,62,91.91
4267,G5,672.833,0.167,36,91.91
4268,B3,672.875,0.125,63,91.91
4269,A5,673.0,0.167,40,91.91
4270,G6,673.0,0.5,89,91.91
4271,C4,673.0,0.25,63,91.91
4272,G5,673.167,0.167,36,91.91
4273,D4,673.25,0.125,65,91.91
4274,A5,673.333,0.167,40,91.91
4275,E4,673.375,0.125,66,91.91
4276,G5,673.5,0.167,36,91.91
4277,F4,673.5,0.125,67,91.91
4278,G4,673.625,0.125,69,91.91
4279,A5,673.667,0.167,40,91.91
4280,A4,673.75,0.125,70,91.91
4281,G5,673.833,0.167,36,91.91
4282,B4,673.875,0.125,71,91.91
4283,A5,674.0,0.167,40,91.91
4284,G6,674.0,1.5,90,91.91
4285,C5,674.0,0.125,74,91.91
4286,G5,674.167,0.167,37,91.91
4287,B4,674.25,0.125,71,91.91
4288,A5,674.333,0.167,40,91.91
4289,G5,674.5,0.167,36,91.91
4290,A4,674.5,0.125,71,91.91
4291,A5,674.667,0.167,40,91.91
4292,G4,674.75,0.125,71,91.91
4293,G5,674.833,0.167,36,91.91
4294,A5,675.0,0.167,40,91.91
4295,F4,675.0,0.125,72,91.91
4296,G5,675.167,0.167,35,91.91
4297,E4,675.25,0.125,69,91.91
4298,A5,675.333,0.167,38,91.91
4299,G5,675.5,0.167,33,91.91
4300,E6,675.5,0.5,85,91.91
4301,D4,675.5,0.125,69,91.91
4302,A5,675.667,0.167,38,91.91
4303,C4,675.75,0.125,67,91.91
4304,G5,675.833,0.167,34,91.91
4305,A5,676.0,0.167,38,91.91
4306,D6,676.0,1.0,90,91.91
4307,B3,676.0,0.125,73,91.91
4308,G5,676.167,0.167,34,91.91
4309,C4,676.25,0.125,69,91.91
4310,A5,676.333,0.167,36,91.91
4311,G5,676.5,0.167,33,91.91
4312,B3,676.5,0.125,69,91.91
4313,A5,676.667,0.167,37,91.91
4314,A3,676.75,0.125,69,91.91
4315,G5,676.833,0.167,33,91.91
4316,A5,677.0,0.167,37,91.91
4317,G5,677.0,1.0,84,91.91
4318,G3,677.0,0.125,75,91.91
4319,G5,677.167,0.167,33,91.91
4320,F3,677.25,0.125,69,91.91
4321,A5,677.333,0.167,38,91.91
4322,G5,677.5,0.167,32,91.91
4323,E3,677.5,0.125,69,91.91
4324,A5,677.667,0.167,37,91.91
4325,D3,677.75,0.125,69,91.91
4326,G5,677.833,0.167,32,91.91
4327,A5,678.0,0.167,38,91.91
4328,C6,678.0,1.0,87,91.91
4329,C3,678.0,0.125,75,91.91
4330,G5,678.167,0.167,32,91.91
4331,C3,678.25,0.125,69,91.91
4332,A5,678.333,0.167,37,91.91
4333,G5,678.5,0.167,32,91.91
4334,B2,678.5,0.125,69,91.91
4335,A5,678.667,0.167,36,91.91
4336,A2,678.75,0.125,69,91.91
4337,G5,678.833,0.167,32,91.91
4338,A5,679.0,0.167,36,91.91
4339,E6,679.0,0.5,84,91.91
4340,G2,679.0,0.125,72,91.91
4341,G5,679.167,0.167,34,91.91
4342,F2,679.25,0.125,71,91.91
4343,A5,679.333,0.167,37,91.91
4344,G5,679.5,0.167,33,91.91
4345,E2,679.5,0.125,75,91.91
4346,A5,679.667,0.167,36,91.91
4347,D2,679.75,0.125,80,91.91
4348,G5,679.833,0.167,32,91.91
4349,A5,680.0,0.167,36,91.91
4350,C2,680.0,0.5,95,91.91
4351,C3,680.0,0.5,95,91.91
4352,G5,680.167,0.167,32,91.91
4353,D3,680.25,0.125,56,91.91
4354,A5,680.333,0.167,37,91.91
4355,E3,680.375,0.125,57,91.91
4356,G5,680.5,0.167,33,91.91
4357,F3,680.5,0.125,60,91.91
4358,G3,680.625,0.125,60,91.91
4359,A5,680.667,0.167,38,91.91
4360,A3,680.75,0.125,62,91.91
4361,G5,680.833,0.167,33,91.91
4362,B3,680.875,0.125,63,91.91
4363,A5,681.0,0.167,39,91.91
4364,G6,681.0,0.5,90,91.91
4365,C4,681.0,0.25,63,91.91
4366,G5,681.167,0.167,35,91.91
4367,D4,681.25,0.125,65,91.91
4368,A5,681.333,0.167,40,91.91
4369,E4,681.375,0.125,66,91.91
4370,G5,681.5,0.167,36,91.91
4371,F4,681.5,0.125,67,91.91
4372,G4,681.625,0.125,69,91.91
4373,A5,681.667,0.167,40,91.91
4374,A4,681.75,0.125,70,91.91
4375,G5,681.833,0.167,36,91.91
4376,B4,681.875,0.125,71,91.91
4377,A5,682.0,0.167,40,91.91
4378,G6,682.0,1.5,92,91.91
4379,C5,682.0,0.125,74,91.91
4380,G5,682.167,0.167,37,91.91
4381,B4,682.25,0.125,71,91.91
4382,A5,682.333,0.167,40,91.91
4383,G5,682.5,0.167,36,91.91
4384,A4,682.5,0.125,71,91.91
4385,A5,682.667,0.167,40,91.91
4386,G4,682.75,0.125,71,91.91
4387,G5,682.833,0.167,36,91.91
4388,A5,683.0,0.167,39,91.91
4389,F4,683.0,0.125,72,91.91
4390,G5,683.167,0.167,36,91.91
4391,E4,683.25,0.125,69,91.91
4392,A5,683.333,0.167,38,91.91
4393,G5,683.5,0.167,32,91.91
4394,E6,683.5,0.5,84,91.91
4395,D4,683.5,0.125,69,91.91
4396,A5,683.667,0.167,37,91.91
4397,C4,683.75,0.125,67,91.91
4398,G5,683.833,0.167,33,91.91
4399,A5,684.0,0.167,39,91.91
4400,D6,684.0,1.0,90,91.91
4401,B3,684.0,0.125,73,91.91
4402,G5,684.167,0.167,32,91.91
4403,C4,684.25,0.125,69,91.91
4404,A5,684.333,0.167,36,91.91
4405,G5,684.5,0.167,31,91.91
4406,B3,684.5,0.125,69,91.91
4407,A5,684.667,0.167,36,91.91
4408,A3,684.75,0.125,69,91.91
4409,G5,684.833,0.167,30,91.91
4410,A5,685.0,0.167,36,91.91
4411,G5,685.0,1.0,82,91.91
4412,G3,685.0,0.125,75,91.91
4413,G5,685.167,0.167,31,91.91
4414,F3,685.25,0.125,69,91.91
4415,A5,685.333,0.167,36,91.91
4416,G5,685.5,0.167,34,91.91
4417,E3,685.5,0.125,69,91.91
4418,F#5,685.667,0.167,36,91.91
4419,D3,685.75,0.125,69,91.91
4420,G5,685.833,0.167,31,91.91
4421,C6,686.0,0.5,86,91.91
4422,C3,686.0,0.5,75,91.91
4423,C2,686.5,0.5,75,91.91
4424,C4,687.0,0.167,68,91.91
4425,E4,687.167,0.167,62,91.91
4426,C4,687.333,0.167,62,91.91
4427,G3,687.5,0.167,62,91.91
4428,C2,687.5,0.5,66,91.91
4429,C3,687.5,0.5,66,91.91
4430,E3,687.667,0.167,62,91.91
4431,G3,687.833,0.167,62,91.91
4432,C4,688.0,0.167,68,91.91
4433,F4,688.167,0.167,62,91.91
4434,C4,688.333,0.167,62,91.91
4435,A3,688.5,0.167,62,91.91
4436,C2,688.5,0.5,66,91.91
4437,C3,688.5,0.5,66,91.91
4438,F3,688.667,0.167,62,91.91
4439,A3,688.833,0.167,62,91.91
4440,C4,689.0,0.167,68,91.91
4441,E4,689.167,0.167,61,91.91
4442,C4,689.333,0.167,61,91.91
4443,G3,689.5,0.167,61,91.91
4444,C2,689.5,0.5,62,91.91
4445,C3,689.5,0.5,62,91.91
4446,E3,689.667,0.167,61,91.91
4447,G3,689.833,0.167,61,91.91
4448,C4,690.0,0.167,63,91.91
4449,D4,690.167,0.167,59,91.91
4450,C4,690.333,0.167,59,91.91
4451,F3,690.5,0.167,59,91.91
4452,C2,690.5,0.5,58,91.91
4453,C3,690.5,0.5,58,91.91
4454,D3,690.667,0.167,59,91.91
4455,F3,690.833,0.167,59,91.91
4456,C4,691.0,0.167,68,91.91
4457,E-4,691.167,0.167,61,91.91
4458,C4,691.333,0.167,61,91.91
4459,F#3,691.5,0.167,61,91.91
4460,C2,691.5,0.5,64,91.91
4461,C3,691.5,0.5,64,91.91
4462,E-3,691.667,0.167,61,91.91
4463,F#3,691.833,0.167,61,91.91
4464,C4,692.0,0.167,68,91.91
4465,E4,692.167,0.167,62,91.91
4466,C4,692.333,0.167,62,91.91
4467,G3,692.5,0.167,62,91.91
4468,C2,692.5,0.5,66,91.91
4469,C3,692.5,0.5,66,91.91
4470,E3,692.667,0.167,62,91.91
4471,G3,692.833,0.167,62,91.91
4472,B3,693.0,0.167,68,91.91
4473,D4,693.167,0.167,61,91.91
4474,B3,693.333,0.167,61,91.91
4475,F3,693.5,0.167,61,91.91
4476,C2,693.5,0.5,66,91.91
4477,C3,693.5,0.5,66,91.91
4478,D3,693.667,0.167,61,91.91
4479,F3,693.833,0.167,61,91.91
4480,G3,694.0,0.167,68,91.91
4481,C4,694.167,0.167,62,91.91
4482,G3,694.333,0.167,62,91.91
4483,E3,694.5,0.167,62,91.91
4484,C2,694.5,0.5,71,91.91
4485,C3,694.667,0.167,62,91.91
4486,E3,694.833,0.167,62,91.91
4487,E4,695.0,0.167,68,91.91
4488,G4,695.167,0.167,62,91.91
4489,E4,695.333,0.167,62,91.91
4490,C4,695.5,0.167,62,91.91
4491,C3,695.5,0.5,64,91.91
4492,E2,695.5,0.5,64,91.91
4493,E3,695.5,0.5,64,91.91
4494,G3,695.667,0.167,62,91.91
4495,C4,695.833,0.167,62,91.91
4496,F4,696.0,0.167,68,91.91
4497,A4,696.167,0.167,62,91.91
4498,F4,696.333,0.167,62,91.91
4499,C4,696.5,0.167,62,91.91
4500,C3,696.5,0.5,64,91.91
4501,F2,696.5,0.5,64,91.91
4502,F3,696.5,0.5,64,91.91
4503,A3,696.667,0.167,62,91.91
4504,C4,696.833,0.167,62,91.91
4505,E4,697.0,0.167,68,91.91
4506,G4,697.167,0.167,61,91.91
4507,E4,697.333,0.167,61,91.91
4508,C4,697.5,0.167,61,91.91
4509,C3,697.5,0.5,61,91.91
4510,E2,697.5,0.5,61,91.91
4511,E3,697.5,0.5,61,91.91
4512,G3,697.667,0.167,61,91.91
4513,C4,697.833,0.167,61,91.91
4514,D4,698.0,0.167,63,91.91
4515,F4,698.167,0.167,59,91.91
4516,D4,698.333,0.167,59,91.91
4517,C4,698.5,0.167,59,91.91
4518,C3,698.5,0.5,56,91.91
4519,D2,698.5,0.5,56,91.91
4520,D3,698.5,0.5,56,91.91
4521,F3,698.667,0.167,59,91.91
4522,C4,698.833,0.167,59,91.91
4523,E-4,699.0,0.167,68,91.91
4524,F#4,699.167,0.167,61,91.91
4525,E-4,699.333,0.167,61,91.91
4526,C4,699.5,0.167,61,91.91
4527,C3,699.5,0.5,63,91.91
4528,E-2,699.5,0.5,63,91.91
4529,E-3,699.5,0.5,63,91.91
4530,F#3,699.667,0.167,61,91.91
4531,C4,699.833,0.167,61,91.91
4532,E4,700.0,0.167,68,91.91
4533,G4,700.167,0.167,62,91.91
4534,E4,700.333,0.167,62,91.91
4535,C4,700.5,0.167,62,91.91
4536,C3,700.5,0.5,64,91.91
4537,E2,700.5,0.5,64,91.91
4538,E3,700.5,0.5,64,91.91
4539,G3,700.667,0.167,62,91.91
4540,C4,700.833,0.167,62,91.91
4541,D4,701.0,0.167,68,91.91
4542,F4,701.167,0.167,61,91.91
4543,D4,701.333,0.167,61,91.91
4544,B3,701.5,0.167,61,91.91
4545,C3,701.5,0.5,64,91.91
4546,D2,701.5,0.5,64,91.91
4547,D3,701.5,0.5,64,91.91
4548,F3,701.667,0.167,61,91.91
4549,B3,701.833,0.167,61,91.91
4550,C4,702.0,0.167,68,91.91
4551,E4,702.167,0.167,62,91.91
4552,C4,702.333,0.167,62,91.91
4553,G3,702.5,0.167,62,91.91
4554,C2,702.5,0.5,63,91.91
4555,C3,702.5,0.5,63,91.91
4556,E3,702.667,0.167,62,91.91
4557,G3,702.833,0.167,62,91.91
4558,G4,703.0,0.167,68,91.91
4559,C2,703.0,0.167,51,91.91
4560,C5,703.167,0.167,59,91.91
4561,E2,703.167,0.167,45,91.91
4562,G4,703.333,0.167,59,91.91
4563,G2,703.333,0.167,45,91.91
4564,E4,703.5,0.167,67,91.91
4565,C3,703.5,0.167,51,91.91
4566,C4,703.667,0.167,58,91.91
4567,G2,703.667,0.167,46,91.91
4568,E4,703.833,0.167,58,91.91
4569,E2,703.833,0.167,46,91.91
4570,A4,704.0,0.167,71,91.91
4571,C2,704.0,0.167,51,91.91
4572,C5,704.167,0.167,61,91.91
4573,F2,704.167,0.167,46,91.91
4574,A4,704.333,0.167,61,91.91
4575,A2,704.333,0.167,46,91.91
4576,F4,704.5,0.167,67,91.91
4577,C3,704.5,0.167,51,91.91
4578,C4,704.667,0.167,60,91.91
4579,A2,704.667,0.167,45,91.91
4580,F4,704.833,0.167,60,91.91
4581,F2,704.833,0.167,45,91.91
4582,G4,705.0,0.167,68,91.91
4583,C2,705.0,0.167,51,91.91
4584,C5,705.167,0.167,59,91.91
4585,E2,705.167,0.167,46,91.91
4586,G4,705.333,0.167,60,91.91
4587,G2,705.333,0.167,46,91.91
4588,E4,705.5,0.167,67,91.91
4589,C3,705.5,0.167,51,91.91
4590,C4,705.667,0.167,58,91.91
4591,G2,705.667,0.167,46,91.91
4592,E4,705.833,0.167,58,91.91
4593,E2,705.833,0.167,46,91.91
4594,F4,706.0,0.167,70,91.91
4595,C2,706.0,0.167,51,91.91
4596,C5,706.167,0.167,59,91.91
4597,D2,706.167,0.167,46,91.91
4598,F4,706.333,0.167,59,91.91
4599,F2,706.333,0.167,46,91.91
4600,D4,706.5,0.167,67,91.91
4601,C3,706.5,0.167,51,91.91
4602,C4,706.667,0.167,60,91.91
4603,F2,706.667,0.167,45,91.91
4604,D4,706.833,0.167,59,91.91
4605,D2,706.833,0.167,45,91.91
4606,F#4,707.0,0.167,66,91.91
4607,C2,707.0,0.167,56,91.91
4608,C5,707.167,0.167,57,91.91
4609,E-2,707.167,0.167,46,91.91
4610,F#4,707.333,0.167,60,91.91
4611,F#2,707.333,0.167,46,91.91
4612,E-4,707.5,0.167,70,91.91
4613,C3,707.5,0.167,51,91.91
4614,C4,707.667,0.167,58,91.91
4615,F#2,707.667,0.167,46,91.91
4616,E-4,707.833,0.167,58,91.91
4617,E-2,707.833,0.167,46,91.91
4618,G4,708.0,0.167,71,91.91
4619,C2,708.0,0.167,57,91.91
4620,C5,708.167,0.167,61,91.91
4621,E2,708.167,0.167,46,91.91
4622,G4,708.333,0.167,61,91.91
4623,G2,708.333,0.167,46,91.91
4624,E4,708.5,0.167,67,91.91
4625,C3,708.5,0.167,51,91.91
4626,C4,708.667,0.167,60,91.91
4627,G2,708.667,0.167,45,91.91
4628,E4,708.833,0.167,60,91.91
4629,E2,708.833,0.167,45,91.91
4630,F4,709.0,0.167,68,91.91
4631,C2,709.0,0.167,51,91.91
4632,C5,709.167,0.167,56,91.91
4633,D2,709.167,0.167,45,91.91
4634,F4,709.333,0.167,57,91.91
4635,F2,709.333,0.167,44,91.91
4636,D4,709.5,0.167,62,91.91
4637,C3,709.5,0.167,51,91.91
4638,B3,709.667,0.167,58,91.91
4639,F2,709.667,0.167,44,91.91
4640,D4,709.833,0.167,58,91.91
4641,D2,709.833,0.167,44,91.91
4642,G4,710.0,0.167,63,91.91
4643,C2,710.0,0.167,51,91.91
4644,C5,710.167,0.167,57,91.91
4645,E2,710.167,0.167,44,91.91
4646,G4,710.333,0.167,57,91.91
4647,G2,710.333,0.167,44,91.91
4648,E4,710.5,0.167,60,91.91
4649,C3,710.5,0.167,51,91.91
4650,C4,710.667,0.167,57,91.91
4651,G2,710.667,0.167,44,91.91
4652,E4,710.833,0.167,57,91.91
4653,E2,710.833,0.167,46,91.91
4654,C5,711.0,0.167,68,91.91
4655,C2,711.0,0.167,51,91.91
4656,E5,711.167,0.167,59,91.91
4657,C3,711.167,0.167,45,91.91
4658,C5,711.333,0.167,59,91.91
4659,E3,711.333,0.167,45,91.91
4660,G4,711.5,0.167,67,91.91
4661,G3,711.5,0.167,51,91.91
4662,E4,711.667,0.167,58,91.91
4663,E3,711.667,0.167,46,91.91
4664,G4,711.833,0.167,58,91.91
4665,C3,711.833,0.167,46,91.91
4666,C5,712.0,0.167,71,91.91
4667,C2,712.0,0.167,51,91.91
4668,F5,712.167,0.167,61,91.91
4669,C3,712.167,0.167,46,91.91
4670,C5,712.333,0.167,61,91.91
4671,F3,712.333,0.167,46,91.91
4672,A4,712.5,0.167,67,91.91
4673,A3,712.5,0.167,51,91.91
4674,F4,712.667,0.167,60,91.91
4675,F3,712.667,0.167,45,91.91
4676,A4,712.833,0.167,60,91.91
4677,C3,712.833,0.167,45,91.91
4678,C5,713.0,0.167,68,91.91
4679,C2,713.0,0.167,51,91.91
4680,E5,713.167,0.167,59,91.91
4681,C3,713.167,0.167,46,91.91
4682,C5,713.333,0.167,60,91.91
4683,E3,713.333,0.167,46,91.91
4684,G4,713.5,0.167,67,91.91
4685,G3,713.5,0.167,51,91.91
4686,E4,713.667,0.167,58,91.91
4687,E3,713.667,0.167,46,91.91
4688,G4,713.833,0.167,58,91.91
4689,C3,713.833,0.167,46,91.91
4690,C5,714.0,0.167,70,91.91
4691,C2,714.0,0.167,51,91.91
4692,D5,714.167,0.167,59,91.91
4693,C3,714.167,0.167,46,91.91
4694,C5,714.333,0.167,59,91.91
4695,D3,714.333,0.167,46,91.91
4696,F4,714.5,0.167,67,91.91
4697,F3,714.5,0.167,51,91.91
4698,D4,714.667,0.167,60,91.91
4699,D3,714.667,0.167,45,91.91
4700,F4,714.833,0.167,59,91.91
4701,C3,714.833,0.167,45,91.91
4702,C5,715.0,0.167,66,91.91
4703,C2,715.0,0.167,56,91.91
4704,E-5,715.167,0.167,57,91.91
4705,C3,715.167,0.167,46,91.91
4706,C5,715.333,0.167,60,91.91
4707,E-3,715.333,0.167,46,91.91
4708,F#4,715.5,0.167,70,91.91
4709,F#3,715.5,0.167,51,91.91
4710,E-4,715.667,0.167,58,91.91
4711,E-3,715.667,0.167,46,91.91
4712,F#4,715.833,0.167,58,91.91
4713,C3,715.833,0.167,46,91.91
4714,C5,716.0,0.167,71,91.91
4715,C2,716.0,0.167,57,91.91
4716,E5,716.167,0.167,61,91.91
4717,C3,716.167,0.167,46,91.91
4718,C5,716.333,0.167,61,91.91
4719,E3,716.333,0.167,46,91.91
4720,G4,716.5,0.167,67,91.91
4721,G3,716.5,0.167,51,91.91
4722,E4,716.667,0.167,60,91.91
4723,E3,716.667,0.167,45,91.91
4724,G4,716.833,0.167,60,91.91
4725,C3,716.833,0.167,45,91.91
4726,B4,717.0,0.167,68,91.91
4727,C2,717.0,0.167,51,91.91
4728,D5,717.167,0.167,56,91.91
4729,C3,717.167,0.167,45,91.91
4730,B4,717.333,0.167,57,91.91
4731,D3,717.333,0.167,44,91.91
4732,F4,717.5,0.167,62,91.91
4733,F3,717.5,0.167,51,91.91
4734,D4,717.667,0.167,58,91.91
4735,D3,717.667,0.167,44,91.91
4736,F4,717.833,0.167,58,91.91
4737,C3,717.833,0.167,44,91.91
4738,G4,718.0,0.167,63,91.91
4739,C2,718.0,0.167,51,91.91
4740,C5,718.167,0.167,57,91.91
4741,C3,718.167,0.167,44,91.91
4742,G4,718.333,0.167,57,91.91
4743,E3,718.333,0.167,44,91.91
4744,E4,718.5,0.167,60,91.91
4745,G3,718.5,0.167,51,91.91
4746,C4,718.667,0.167,57,91.91
4747,E3,718.667,0.167,44,91.91
4748,E4,718.833,0.167,57,91.91
4749,C3,718.833,0.167,46,91.91
4750,C5,719.0,0.167,74,91.91
4751,C2,719.0,0.167,59,91.91
4752,E5,719.167,0.167,59,91.91
4753,C3,719.167,0.167,45,91.91
4754,C5,719.333,0.167,59,91.91
4755,E3,719.333,0.167,45,91.91
4756,G4,719.5,0.167,70,91.91
4757,G3,719.5,0.167,51,91.91
4758,E4,719.667,0.167,58,91.91
4759,E3,719.667,0.167,46,91.91
4760,G4,719.833,0.167,58,91.91
4761,C3,719.833,0.167,46,91.91
4762,B4,720.0,0.167,71,91.91
4763,G2,720.0,0.167,51,91.91
4764,D5,720.167,0.167,61,91.91
4765,B2,720.167,0.167,46,91.91
4766,B4,720.333,0.167,61,91.91
4767,D3,720.333,0.167,46,91.91
4768,G4,720.5,0.167,67,91.91
4769,G3,720.5,0.167,51,91.91
4770,D4,720.667,0.167,60,91.91
4771,D3,720.667,0.167,45,91.91
4772,G4,720.833,0.167,60,91.91
4773,B2,720.833,0.167,45,91.91
4774,D5,721.0,0.167,74,91.91
4775,D2,721.0,0.167,59,91.91
4776,F5,721.167,0.167,59,91.91
4777,D3,721.167,0.167,45,91.91
4778,D5,721.333,0.167,59,91.91
4779,F3,721.333,0.167,45,91.91
4780,A4,721.5,0.167,70,91.91
4781,A3,721.5,0.167,51,91.91
4782,F4,721.667,0.167,58,91.91
4783,F3,721.667,0.167,46,91.91
4784,A4,721.833,0.167,58,91.91
4785,D3,721.833,0.167,46,91.91
4786,C5,722.0,0.167,71,91.91
4787,A2,722.0,0.167,51,91.91
4788,E5,722.167,0.167,61,91.91
4789,C3,722.167,0.167,46,91.91
4790,C5,722.333,0.167,61,91.91
4791,E3,722.333,0.167,46,91.91
4792,A4,722.5,0.167,67,91.91
4793,A3,722.5,0.167,51,91.91
4794,E4,722.667,0.167,60,91.91
4795,E3,722.667,0.167,45,91.91
4796,A4,722.833,0.167,60,91.91
4797,C3,722.833,0.167,45,91.91
4798,F5,723.0,0.167,74,91.91
4799,F2,723.0,0.167,59,91.91
4800,A5,723.167,0.167,59,91.91
4801,C3,723.167,0.167,45,91.91
4802,F5,723.333,0.167,59,91.91
4803,D3,723.333,0.167,45,91.91
4804,C5,723.5,0.167,70,91.91
4805,F3,723.5,0.167,51,91.91
4806,A4,723.667,0.167,58,91.91
4807,D3,723.667,0.167,46,91.91
4808,C5,723.833,0.167,58,91.91
4809,C3,723.833,0.167,46,91.91
4810,D5,724.0,0.167,75,91.91
4811,G2,724.0,0.167,51,91.91
4812,G5,724.167,0.167,61,91.91
4813,C3,724.167,0.167,46,91.91
4814,D5,724.333,0.167,61,91.91
4815,D3,724.333,0.167,46,91.91
4816,C5,724.5,0.167,67,91.91
4817,G3,724.5,0.167,51,91.91
4818,G4,724.667,0.167,60,91.91
4819,D3,724.667,0.167,45,91.91
4820,C5,724.833,0.167,60,91.91
4821,C3,724.833,0.167,45,91.91
4822,D5,725.0,0.167,74,91.91
4823,G2,725.0,0.167,59,91.91
4824,G5,725.167,0.167,59,91.91
4825,B2,725.167,0.167,45,91.91
4826,D5,725.333,0.167,59,91.91
4827,D3,725.333,0.167,45,91.91
4828,B4,725.5,0.167,70,91.91
4829,G3,725.5,0.167,51,91.91
4830,G4,725.667,0.167,58,91.91
4831,D3,725.667,0.167,46,91.91
4832,B4,725.833,0.167,58,91.91
4833,B2,725.833,0.167,46,91.91
4834,E5,726.0,0.167,71,91.91
4835,C2,726.0,0.167,51,91.91
4836,G5,726.167,0.167,58,91.91
4837,C3,726.167,0.167,44,91.91
4838,E5,726.333,0.167,58,91.91
4839,E3,726.333,0.167,44,91.91
4840,C5,726.5,0.167,63,91.91
4841,G3,726.5,0.167,50,91.91
4842,G4,726.667,0.167,60,91.91
4843,E3,726.667,0.167,43,91.91
4844,C5,726.833,0.167,58,91.91
4845,C3,726.833,0.167,43,91.91
4846,E5,727.0,0.167,74,91.91
4847,C2,727.0,0.167,59,91.91
4848,G5,727.167,0.167,59,91.91
4849,C3,727.167,0.167,45,91.91
4850,E5,727.333,0.167,59,91.91
4851,E3,727.333,0.167,45,91.91
4852,C5,727.5,0.167,70,91.91
4853,G3,727.5,0.167,51,91.91
4854,G4,727.667,0.167,58,91.91
4855,E3,727.667,0.167,46,91.91
4856,C5,727.833,0.167,58,91.91
4857,C3,727.833,0.167,46,91.91
4858,D5,728.0,0.167,71,91.91
4859,G2,728.0,0.167,51,91.91
4860,G5,728.167,0.167,61,91.91
4861,B2,728.167,0.167,46,91.91
4862,D5,728.333,0.167,61,91.91
4863,D3,728.333,0.167,46,91.91
4864,B4,728.5,0.167,67,91.91
4865,G3,728.5,0.167,51,91.91
4866,G4,728.667,0.167,60,91.91
4867,D3,728.667,0.167,45,91.91
4868,B4,728.833,0.167,60,91.91
4869,B2,728.833,0.167,45,91.91
4870,F5,729.0,0.167,74,91.91
4871,D2,729.0,0.167,59,91.91
4872,A5,729.167,0.167,59,91.91
4873,D3,729.167,0.167,45,91.91
4874,F5,729.333,0.167,59,91.91
4875,F3,729.333,0.167,45,91.91
4876,D5,729.5,0.167,70,91.91
4877,A3,729.5,0.167,51,91.91
4878,A4,729.667,0.167,58,91.91
4879,F3,729.667,0.167,46,91.91
4880,D5,729.833,0.167,58,91.91
4881,D3,729.833,0.167,46,91.91
4882,E5,730.0,0.167,71,91.91
4883,A2,730.0,0.167,51,91.91
4884,A5,730.167,0.167,61,91.91
4885,C3,730.167,0.167,46,91.91
4886,E5,730.333,0.167,61,91.91
4887,E3,730.333,0.167,46,91.91
4888,C5,730.5,0.167,67,91.91
4889,A3,730.5,0.167,51,91.91
4890,A4,730.667,0.167,60,91.91
4891,E3,730.667,0.167,45,91.91
4892,C5,730.833,0.167,60,91.91
4893,C3,730.833,0.167,45,91.91
4894,A5,731.0,0.167,74,91.91
4895,A2,731.0,0.167,59,91.91
4896,C6,731.167,0.167,59,91.91
4897,C3,731.167,0.167,45,91.91
4898,A5,731.333,0.167,59,91.91
4899,E3,731.333,0.167,45,91.91
4900,E5,731.5,0.167,70,91.91
4901,A3,731.5,0.167,51,91.91
4902,C5,731.667,0.167,58,91.91
4903,E3,731.667,0.167,46,91.91
4904,E5,731.833,0.167,58,91.91
4905,C3,731.833,0.167,46,91.91
4906,A5,732.0,0.167,75,91.91
4907,D2,732.0,0.167,51,91.91
4908,C6,732.167,0.167,61,91.91
4909,A2,732.167,0.167,46,91.91
4910,A5,732.333,0.167,61,91.91
4911,C3,732.333,0.167,46,91.91
4912,F#5,732.5,0.167,67,91.91
4913,D3,732.5,0.167,51,91.91
4914,C5,732.667,0.167,60,91.91
4915,C3,732.667,0.167,45,91.91
4916,F#5,732.833,0.167,60,91.91
4917,A2,732.833,0.167,45,91.91
4918,A5,733.0,0.167,74,91.91
4919,D2,733.0,0.167,59,91.91
4920,C6,733.167,0.167,59,91.91
4921,A2,733.167,0.167,45,91.91
4922,A5,733.333,0.167,59,91.91
4923,C3,733.333,0.167,45,91.91
4924,F#5,733.5,0.167,70,91.91
4925,D3,733.5,0.167,51,91.91
4926,C5,733.667,0.167,58,91.91
4927,C3,733.667,0.167,46,91.91
4928,F#5,733.833,0.167,58,91.91
4929,A2,733.833,0.167,46,91.91
4930,G5,734.0,0.167,71,91.91
4931,G2,734.0,0.167,51,91.91
4932,B5,734.167,0.167,58,91.91
4933,D3,734.167,0.167,44,91.91
4934,G5,734.333,0.167,58,91.91
4935,G3,734.333,0.167,44,91.91
4936,D5,734.5,0.167,63,91.91
4937,G2,734.5,0.167,50,91.91
4938,B4,734.667,0.167,60,91.91
4939,B2,734.667,0.167,43,91.91
4940,D5,734.833,0.167,58,91.91
4941,G3,734.833,0.167,43,91.91
4942,A5,735.0,0.167,74,91.91
4943,G2,735.0,0.167,59,91.91
4944,D6,735.167,0.167,59,91.91
4945,C3,735.167,0.167,45,91.91
4946,A5,735.333,0.167,59,91.91
4947,D3,735.333,0.167,45,91.91
4948,F#5,735.5,0.167,70,91.91
4949,G2,735.5,0.167,51,91.91
4950,D5,735.667,0.167,58,91.91
4951,C3,735.667,0.167,46,91.91
4952,F#5,735.833,0.167,58,91.91
4953,D3,735.833,0.167,46,91.91
4954,B5,736.0,0.167,75,91.91
4955,G2,736.0,0.167,51,91.91
4956,D6,736.167,0.167,61,91.91
4957,B2,736.167,0.167,46,91.91
4958,B5,736.333,0.167,61,91.91
4959,D3,736.333,0.167,46,91.91
4960,G5,736.5,0.167,67,91.91
4961,G2,736.5,0.167,51,91.91
4962,D5,736.667,0.167,60,91.91
4963,B2,736.667,0.167,45,91.91
4964,G5,736.833,0.167,60,91.91
4965,D3,736.833,0.167,45,91.91
4966,A5,737.0,0.167,74,91.91
4967,G2,737.0,0.167,59,91.91
4968,D6,737.167,0.167,59,91.91
4969,C3,737.167,0.167,45,91.91
4970,A5,737.333,0.167,59,91.91
4971,D3,737.333,0.167,45,91.91
4972,F#5,737.5,0.167,70,91.91
4973,G2,737.5,0.167,51,91.91
4974,D5,737.667,0.167,58,91.91
4975,C3,737.667,0.167,46,91.91
4976,F#5,737.833,0.167,58,91.91
4977,D3,737.833,0.167,46,91.91
4978,B5,738.0,0.167,77,91.91
4979,G2,738.0,0.167,58,91.91
4980,D6,738.167,0.167,58,91.91
4981,B2,738.167,0.167,44,91.91
4982,B5,738.333,0.167,58,91.91
4983,D3,738.333,0.167,44,91.91
4984,G5,738.5,0.167,63,91.91
4985,G2,738.5,0.167,50,91.91
4986,D5,738.667,0.167,60,91.91
4987,B2,738.667,0.167,43,91.91
4988,G5,738.833,0.167,58,91.91
4989,D3,738.833,0.167,43,91.91
4990,D6,739.0,0.167,51,91.91
4991,G2,739.0,0.167,40,91.91
4992,F#6,739.167,0.167,40,91.91
4993,C3,739.167,0.167,30,91.91
4994,D6,739.333,0.167,40,91.91
4995,D3,739.333,0.167,30,91.91
4996,A5,739.5,0.167,48,91.91
4997,A3,739.5,0.167,34,91.91
4998,F#5,739.667,0.167,39,91.91
4999,D3,739.667,0.167,31,91.91
5000,A5,739.833,0.167,39,91.91
5001,C3,739.833,0.167,31,91.91
5002,D6,740.0,0.167,51,91.91
5003,G2,740.0,0.167,35,91.91
5004,G6,740.167,0.167,42,91.91
5005,B2,740.167,0.167,31,91.91
5006,D6,740.333,0.167,42,91.91
5007,D3,740.333,0.167,31,91.91
5008,B5,740.5,0.167,45,91.91
5009,G3,740.5,0.167,34,91.91
5010,G5,740.667,0.167,41,91.91
5011,D3,740.667,0.167,30,91.91
5012,B5,740.833,0.167,41,91.91
5013,B2,740.833,0.167,30,91.91
5014,D6,741.0,0.167,51,91.91
5015,G2,741.0,0.167,40,91.91
5016,F#6,741.167,0.167,40,91.91
5017,C3,741.167,0.167,30,91.91
5018,D6,741.333,0.167,40,91.91
5019,D3,741.333,0.167,30,91.91
5020,A5,741.5,0.167,48,91.91
5021,A3,741.5,0.167,34,91.91
5022,F#5,741.667,0.167,39,91.91
5023,D3,741.667,0.167,31,91.91
5024,A5,741.833,0.167,39,91.91
5025,C3,741.833,0.167,31,91.91
5026,D6,742.0,0.167,52,91.91
5027,G2,742.0,0.167,39,91.91
5028,G6,742.167,0.167,39,91.91
5029,B2,742.167,0.167,30,91.91
5030,D6,742.333,0.167,39,91.91
5031,D3,742.333,0.167,30,91.91
5032,B5,742.5,0.167,43,91.91
5033,G3,742.5,0.167,34,91.91
5034,G5,742.667,0.167,41,91.91
5035,D3,742.667,0.167,29,91.91
5036,B5,742.833,0.167,39,91.91
5037,B2,742.833,0.167,29,91.91
5038,A5,743.0,0.167,81,91.91
5039,G2,743.0,0.167,65,91.91
5040,D6,743.167,0.167,61,91.91
5041,C3,743.167,0.167,49,91.91
5042,A5,743.333,0.167,61,91.91
5043,D3,743.333,0.167,49,91.91
5044,F#5,743.5,0.167,69,91.91
5045,G2,743.5,0.167,56,91.91
5046,D5,743.667,0.167,63,91.91
5047,C3,743.667,0.167,51,91.91
5048,F#5,743.833,0.167,63,91.91
5049,D3,743.833,0.167,51,91.91
5050,B5,744.0,0.167,82,91.91
5051,G2,744.0,0.167,56,91.91
5052,D6,744.167,0.167,62,91.91
5053,B2,744.167,0.167,51,91.91
5054,B5,744.333,0.167,62,91.91
5055,D3,744.333,0.167,51,91.91
5056,G5,744.5,0.167,67,91.91
5057,G2,744.5,0.167,56,91.91
5058,D5,744.667,0.167,63,91.91
5059,B2,744.667,0.167,49,91.91
5060,G5,744.833,0.167,66,91.91
5061,D3,744.833,0.167,49,91.91
5062,A5,745.0,0.167,81,91.91
5063,G2,745.0,0.167,65,91.91
5064,D6,745.167,0.167,61,91.91
5065,C3,745.167,0.167,49,91.91
5066,A5,745.333,0.167,61,91.91
5067,D3,745.333,0.167,49,91.91
5068,F#5,745.5,0.167,68,91.91
5069,G2,745.5,0.167,56,91.91
5070,D5,745.667,0.167,63,91.91
5071,C3,745.667,0.167,51,91.91
5072,F#5,745.833,0.167,63,91.91
5073,D3,745.833,0.167,51,91.91
5074,B5,746.0,0.167,84,91.91
5075,G2,746.0,0.167,63,91.91
5076,D6,746.167,0.167,63,91.91
5077,B2,746.167,0.167,48,91.91
5078,B5,746.333,0.167,63,91.91
5079,D3,746.333,0.167,48,91.91
5080,G5,746.5,0.167,69,91.91
5081,G2,746.5,0.167,54,91.91
5082,D5,746.667,0.167,66,91.91
5083,B2,746.667,0.167,47,91.91
5084,G5,746.833,0.167,63,91.91
5085,D3,746.833,0.167,47,91.91
5086,D6,747.0,0.167,51,91.91
5087,G2,747.0,0.167,40,91.91
5088,F#6,747.167,0.167,40,91.91
5089,C3,747.167,0.167,30,91.91
5090,D6,747.333,0.167,40,91.91
5091,D3,747.333,0.167,30,91.91
5092,A5,747.5,0.167,48,91.91
5093,A3,747.5,0.167,34,91.91
5094,F#5,747.667,0.167,39,91.91
5095,D3,747.667,0.167,31,91.91
5096,A5,747.833,0.167,39,91.91
5097,C3,747.833,0.167,31,91.91
5098,D6,748.0,0.167,51,91.91
5099,G2,748.0,0.167,35,91.91
5100,G6,748.167,0.167,42,91.91
5101,B2,748.167,0.167,31,91.91
5102,D6,748.333,0.167,42,91.91
5103,D3,748.333,0.167,31,91.91
5104,B5,748.5,0.167,45,91.91
5105,G3,748.5,0.167,34,91.91
5106,G5,748.667,0.167,41,91.91
5107,D3,748.667,0.167,30,91.91
5108,B5,748.833,0.167,41,91.91
5109,B2,748.833,0.167,30,91.91
5110,D6,749.0,0.167,51,91.91
5111,G2,749.0,0.167,40,91.91
5112,F#6,749.167,0.167,40,91.91
5113,C3,749.167,0.167,30,91.91
5114,D6,749.333,0.167,40,91.91
5115,D3,749.333,0.167,30,91.91
5116,A5,749.5,0.167,48,91.91
5117,A3,749.5,0.167,34,91.91
5118,F#5,749.667,0.167,39,91.91
5119,D3,749.667,0.167,31,91.91
5120,A5,749.833,0.167,39,91.91
5121,C3,749.833,0.167,31,91.91
5122,D6,750.0,0.167,57,91.91
5123,G2,750.0,0.167,43,91.91
5124,G6,750.167,0.167,42,91.91
5125,B2,750.167,0.167,33,91.91
5126,D6,750.333,0.167,44,91.91
5127,D3,750.333,0.167,34,91.91
5128,B5,750.5,0.167,49,91.91
5129,G3,750.5,0.167,39,91.91
5130,G5,750.667,0.167,48,91.91
5131,D3,750.667,0.167,34,91.91
5132,B5,750.833,0.167,47,91.91
5133,B2,750.833,0.167,35,91.91
5134,D6,751.0,0.167,63,91.91
5135,G2,751.0,0.167,50,91.91
5136,F#6,751.167,0.167,50,91.91
5137,C3,751.167,0.167,38,91.91
5138,D6,751.333,0.167,51,91.91
5139,D3,751.333,0.167,39,91.91
5140,A5,751.5,0.167,63,91.91
5141,A3,751.5,0.167,45,91.91
5142,F#5,751.667,0.167,52,91.91
5143,D3,751.667,0.167,42,91.91
5144,A5,751.833,0.167,53,91.91
5145,C3,751.833,0.167,43,91.91
5146,D6,752.0,0.167,72,91.91
5147,G2,752.0,0.167,50,91.91
5148,G6,752.167,0.167,60,91.91
5149,B2,752.167,0.167,44,91.91
5150,D6,752.333,0.167,62,91.91
5151,D3,752.333,0.167,45,91.91
5152,B5,752.5,0.167,67,91.91
5153,G3,752.5,0.167,51,91.91
5154,G5,752.667,0.167,62,91.91
5155,D3,752.667,0.167,45,91.91
5156,B5,752.833,0.167,64,91.91
5157,B2,752.833,0.167,47,91.91
5158,D6,753.0,0.167,80,91.91
5159,G2,753.0,0.167,64,91.91
5160,F#6,753.167,0.167,64,91.91
5161,C3,753.167,0.167,49,91.91
5162,D6,753.333,0.167,66,91.91
5163,D3,753.333,0.167,50,91.91
5164,A5,753.5,0.167,80,91.91
5165,A3,753.5,0.167,57,91.91
5166,F#5,753.667,0.167,66,91.91
5167,D3,753.667,0.167,53,91.91
5168,A5,753.833,0.167,67,91.91
5169,C3,753.833,0.167,54,91.91
5170,G6,754.0,0.5,101,91.91
5171,G5,754.0,0.5,101,91.91
5172,G2,754.0,0.5,71,91.91
5173,B2,754.0,0.5,71,91.91
5174,D3,754.0,0.5,71,91.91
5175,G3,754.0,0.5,71,91.91
5176,G4,755.0,0.5,85,91.91
5177,B4,755.0,0.5,85,91.91
5178,D5,755.0,0.5,85,91.91
5179,G5,755.0,0.5,85,91.91
5180,G4,756.0,2.0,85,91.91
5181,B4,756.0,2.0,85,91.91
5182,D5,756.0,2.0,85,91.91
5183,G5,756.0,2.0,85,91.91
5184,G2,757.0,0.5,82,91.91
5185,B2,757.0,0.5,82,91.91
5186,D3,757.0,0.5,82,91.91
5187,G3,757.0,0.5,82,91.91
5188,G1,758.0,0.5,93,91.91
5189,G2,758.0,0.5,93,91.91
5190,B4,759.0,0.5,85,91.91
5191,D5,759.0,0.5,85,91.91
5192,G5,759.0,0.5,85,91.91
5193,B5,759.0,0.5,85,91.91
5194,B4,760.0,2.0,85,91.91
5195,D5,760.0,2.0,85,91.91
5196,G5,760.0,2.0,85,91.91
5197,B5,760.0,2.0,85,91.91
5198,G2,761.029,0.5,82,91.91
5199,B2,761.029,0.5,82,91.91
5200,D3,761.029,0.5,82,91.91
5201,G3,761.029,0.5,82,91.91
5202,G1,762.029,0.5,93,91.91
5203,G2,762.029,0.5,93,91.91
5204,D5,763.0,0.5,85,91.91
5205,F5,763.0,0.5,85,91.91
5206,B5,763.0,0.5,85,91.91
5207,D6,763.0,0.5,85,91.91
5208,D5,764.0,2.0,85,91.91
5209,F5,764.0,2.0,85,91.91
5210,B5,764.0,2.0,85,91.91
5211,D6,764.0,2.0,85,91.91
5212,G2,765.029,0.5,82,91.91
5213,B2,765.029,0.5,82,91.91
5214,D3,765.029,0.5,82,91.91
5215,G3,765.029,0.5,82,91.91
5216,G1,766.029,0.5,93,91.91
5217,G2,766.029,0.5,93,91.91
5218,F5,767.0,0.5,85,91.91
5219,B5,767.0,0.5,85,91.91
5220,D6,767.0,0.5,85,91.91
5221,F6,767.0,0.5,85,91.91
5222,F5,768.0,2.0,85,91.91
5223,B5,768.0,2.0,85,91.91
5224,D6,768.0,2.0,85,91.91
5225,F6,768.0,2.0,85,91.91
5226,G2,769.029,0.5,82,91.91
5227,B2,769.029,0.5,82,91.91
5228,D3,769.029,0.5,82,91.91
5229,G3,769.029,0.5,82,91.91
5230,G1,770.029,0.5,83,91.91
5231,G2,770.029,0.5,83,91.91
5232,B5,771.0,0.5,72,91.91
5233,D6,771.0,0.5,72,91.91
5234,F6,771.0,0.5,72,91.91
5235,G#6,771.0,0.5,72,91.91
5236,F4,772.0,0.5,56,91.91
5237,D4,772.0,0.5,56,91.91
5238,B3,772.0,0.5,56,91.91
5239,G3,772.0,0.5,56,91.91
5240,G#5,773.0,0.5,62,91.91
5241,B5,773.0,0.5,62,91.91
5242,D6,773.0,0.5,62,91.91
5243,F6,773.0,0.5,62,91.91
5244,F4,774.0,0.5,51,91.91
5245,D4,774.0,0.5,51,91.91
5246,B3,774.0,0.5,51,91.91
5247,G3,774.0,0.5,51,91.91
5248,D6,775.0,0.5,60,91.91
5249,B5,775.0,0.5,60,91.91
5250,G#5,775.0,0.5,60,91.91
5251,F5,775.0,0.5,60,91.91
5252,F4,776.0,0.5,45,91.91
5253,D4,776.0,0.5,45,91.91
5254,B3,776.0,0.5,45,91.91
5255,G3,776.0,0.5,45,91.91
5256,B5,777.0,0.5,52,91.91
5257,G#5,777.0,0.5,52,91.91
5258,F5,777.0,0.5,52,91.91
5259,D5,777.0,0.5,52,91.91
5260,G3,778.0,0.5,42,91.91
5261,B3,778.0,0.5,42,91.91
5262,D4,778.0,0.5,42,91.91
5263,F4,778.0,0.5,42,91.91
5264,B4,779.0,0.5,43,91.91
5265,D5,779.0,0.5,43,91.91
5266,F5,779.0,0.5,43,91.91
5267,G#5,779.0,0.5,43,91.91
5268,G2,780.0,0.5,34,91.91
5269,B2,780.0,0.5,34,91.91
5270,D3,780.0,0.5,34,91.91
5271,F3,780.0,0.5,34,91.91
5272,G#4,781.0,0.5,41,91.91
5273,B4,781.0,0.5,41,91.91
5274,F5,781.0,0.5,41,91.91
5275,D5,781.0,0.5,41,91.91
5276,G2,782.0,0.5,32,91.91
5277,B2,782.0,0.5,32,91.91
5278,D3,782.0,0.5,32,91.91
5279,F3,782.0,0.5,32,91.91
5280,F4,783.0,0.5,38,91.91
5281,G#4,783.0,0.5,38,91.91
5282,B4,783.0,0.5,38,91.91
5283,D5,783.0,0.5,38,91.91
5284,G2,784.0,0.5,30,91.91
5285,B2,784.0,0.5,30,91.91
5286,D3,784.0,0.5,30,91.91
5287,F3,784.0,0.5,30,91.91
5288,D4,785.0,0.5,36,91.91
5289,F4,785.0,0.5,36,91.91
5290,G#4,785.0,0.5,36,91.91
5291,B4,785.0,0.5,36,91.91
5292,G2,786.0,0.5,22,91.91
5293,B2,786.0,0.5,22,91.91
5294,D3,786.0,0.5,22,91.91
5295,F3,786.0,0.5,22,91.91
5296,B3,787.0,0.5,28,91.91
5297,D4,787.0,0.5,28,91.91
5298,F4,787.0,0.5,28,91.91
5299,G#4,787.0,0.5,28,91.91
5300,G2,790.0,1.0,22,91.91
5301,B-2,790.0,1.0,22,91.91
5302,C#3,790.0,1.0,22,91.91
5303,E3,790.0,1.0,22,91.91
5304,B-3,791.0,1.0,28,91.91
5305,C#4,791.0,1.0,28,91.91
5306,E4,791.0,1.0,28,91.91
5307,G4,791.0,1.0,28,91.91
5308,G2,794.0,1.0,22,91.91
5309,A2,794.0,1.0,22,91.91
5310,C3,794.0,1.0,22,91.91
5311,E-3,794.0,1.0,22,91.91
5312,A3,795.0,1.0,28,91.91
5313,C4,795.0,1.0,28,91.91
5314,E-4,795.0,1.0,28,91.91
5315,F#4,795.0,1.0,28,91.91
5316,G2,798.0,0.5,25,91.91
5317,B3,799.0,5.0,24,91.91
5318,D4,799.0,5.0,24,91.91
5319,F4,799.0,5.0,24,91.91
5320,G5,800.0,0.5,30,91.91
5321,G3,801.0,0.5,27,91.91
5322,G2,802.0,0.5,25,91.91
5323,G1,803.0,1.0,25,91.91
5324,C4,804.0,0.5,85,91.91
5325,C2,804.0,0.5,74,91.91
5326,C3,804.0,0.5,74,91.91
5327,G6,804.5,0.25,50,91.91
5328,E4,804.5,0.25,41,91.91
5329,G4,804.75,0.25,34,91.91
5330,G6,805.0,0.75,53,91.91
5331,E4,805.0,0.25,41,91.91
5332,G4,805.25,0.25,34,91.91
5333,E4,805.5,0.25,41,91.91
5334,E6,805.75,0.25,50,91.91
5335,G4,805.75,0.25,33,91.91
5336,D6,806.0,0.5,54,91.91
5337,F4,806.0,0.25,41,91.91
5338,G4,806.25,0.25,34,91.91
5339,G5,806.5,0.5,50,91.91
5340,F4,806.5,0.25,41,91.91
5341,G4,806.75,0.25,35,91.91
5342,C6,807.0,0.5,50,91.91
5343,E4,807.0,0.25,41,91.91
5344,G4,807.25,0.25,34,91.91
5345,E6,807.5,0.5,49,91.91
5346,E4,807.5,0.25,41,91.91
5347,G4,807.75,0.25,35,91.91
5348,E4,808.0,0.25,41,91.91
5349,G4,808.25,0.25,34,91.91
5350,G6,808.5,0.25,50,91.91
5351,E4,808.5,0.25,41,91.91
5352,G4,808.75,0.25,34,91.91
5353,G6,809.0,0.75,53,91.91
5354,E4,809.0,0.25,41,91.91
5355,G4,809.25,0.25,34,91.91
5356,E4,809.5,0.25,41,91.91
5357,E6,809.75,0.25,50,91.91
5358,G4,809.75,0.25,33,91.91
5359,D6,810.0,0.5,54,91.91
5360,F4,810.0,0.25,41,91.91
5361,G4,810.25,0.25,34,91.91
5362,G5,810.5,0.5,50,91.91
5363,F4,810.5,0.25,41,91.91
5364,G4,810.75,0.25,35,91.91
5365,C6,811.0,0.5,50,91.91
5366,E4,811.0,0.25,41,91.91
5367,G4,811.25,0.25,34,91.91
5368,E4,811.5,0.25,41,91.91
5369,G4,811.75,0.25,35,91.91
5370,G6,812.0,0.25,50,91.91
5371,C4,812.0,0.5,41,91.91
5372,E4,812.0,0.25,41,91.91
5373,F#6,812.25,0.25,47,91.91
5374,G4,812.25,0.25,34,91.91
5375,G6,812.5,0.25,50,91.91
5376,C4,812.5,0.5,41,91.91
5377,E4,812.5,0.25,41,91.91
5378,F#6,812.75,0.25,46,91.91
5379,G4,812.75,0.25,34,91.91
5380,G6,813.0,0.25,50,91.91
5381,C4,813.0,0.5,41,91.91
5382,E4,813.0,0.25,41,91.91
5383,F#6,813.25,0.25,47,91.91
5384,G4,813.25,0.25,34,91.91
5385,G6,813.5,0.25,50,91.91
5386,C4,813.5,0.5,41,91.91
5387,E4,813.5,0.25,41,91.91
5388,E6,813.75,0.25,47,91.91
5389,G4,813.75,0.25,33,91.91
5390,D6,814.0,0.25,48,91.91
5391,C4,814.0,0.5,38,91.91
5392,F4,814.0,0.25,38,91.91
5393,C#6,814.25,0.25,43,91.91
5394,G4,814.25,0.25,32,91.91
5395,D6,814.5,0.25,48,91.91
5396,C4,814.5,0.5,38,91.91
5397,F4,814.5,0.25,38,91.91
5398,G5,814.75,0.25,45,91.91
5399,G4,814.75,0.25,33,91.91
5400,C6,815.0,0.25,48,91.91
5401,C4,815.0,0.5,38,91.91
5402,E4,815.0,0.25,38,91.91
5403,B5,815.25,0.25,44,91.91
5404,G4,815.25,0.25,32,91.91
5405,C6,815.5,0.25,50,91.91
5406,C4,815.5,0.5,38,91.91
5407,E4,815.5,0.25,38,91.91
5408,E6,815.75,0.25,46,91.91
5409,G4,815.75,0.25,33,91.91
5410,G6,816.0,0.25,50,91.91
5411,C4,816.0,0.5,41,91.91
5412,E4,816.0,0.25,41,91.91
5413,F#6,816.25,0.25,46,91.91
5414,G4,816.25,0.25,34,91.91
5415,G6,816.5,0.25,50,91.91
5416,C4,816.5,0.5,41,91.91
5417,E4,816.5,0.25,41,91.91
5418,F#6,816.75,0.25,47,91.91
5419,G4,816.75,0.25,34,91.91
5420,G6,817.0,0.25,50,91.91
5421,C4,817.0,0.5,41,91.91
5422,E4,817.0,0.25,41,91.91
5423,F#6,817.25,0.25,46,91.91
5424,G4,817.25,0.25,34,91.91
5425,G6,817.5,0.25,50,91.91
5426,C4,817.5,0.5,41,91.91
5427,E4,817.5,0.25,41,91.91
5428,E6,817.75,0.25,44,91.91
5429,G4,817.75,0.25,33,91.91
5430,D6,818.0,0.25,48,91.91
5431,C4,818.0,0.5,38,91.91
5432,F4,818.0,0.25,38,91.91
5433,C#6,818.25,0.25,45,91.91
5434,G4,818.25,0.25,32,91.91
5435,D6,818.5,0.25,49,91.91
5436,C4,818.5,0.5,38,91.91
5437,F4,818.5,0.25,38,91.91
5438,G5,818.75,0.25,45,91.91
5439,G4,818.75,0.25,33,91.91
5440,C6,819.0,0.25,49,91.91
5441,C4,819.0,0.5,38,91.91
5442,E4,819.0,0.25,38,91.91
5443,B5,819.25,0.25,46,91.91
5444,G4,819.25,0.25,32,91.91
5445,C6,819.5,0.25,49,91.91
5446,C4,819.5,0.5,38,91.91
5447,E4,819.5,0.25,38,91.91
5448,E6,819.75,0.25,46,91.91
5449,G4,819.75,0.25,33,91.91
5450,D6,820.0,0.25,59,91.91
5451,C4,820.0,0.5,48,91.91
5452,F4,820.0,0.25,48,91.91
5453,C#6,820.25,0.25,55,91.91
5454,G4,820.25,0.25,43,91.91
5455,D6,820.5,0.25,68,91.91
5456,C4,820.5,0.5,54,91.91
5457,F4,820.5,0.25,54,91.91
5458,G5,820.75,0.25,62,91.91
5459,G4,820.75,0.25,47,91.91
5460,C6,821.0,0.271,74,91.91
5461,E4,821.0,0.271,60,91.91
5462,B5,821.25,0.271,67,91.91
5463,E-4,821.25,0.271,53,91.91
5464,C6,821.5,0.271,67,91.91
5465,E4,821.5,0.271,53,91.91
5466,E6,821.75,0.25,67,91.91
5467,C4,821.75,0.25,54,91.91
5468,B5,822.0,0.271,76,91.91
5469,D4,822.0,0.271,61,91.91
5470,B-5,822.25,0.271,69,91.91
5471,C#4,822.25,0.271,54,91.91
5472,B5,822.5,0.271,69,91.91
5473,D4,822.5,0.271,54,91.91
5474,D6,822.75,0.25,69,91.91
5475,B3,822.75,0.25,54,91.91
5476,A5,823.0,0.271,75,91.91
5477,C4,823.0,0.271,61,91.91
5478,G#5,823.25,0.271,70,91.91
5479,B3,823.25,0.271,54,91.91
5480,A5,823.5,0.271,70,91.91
5481,C4,823.5,0.271,54,91.91
5482,C6,823.75,0.25,70,91.91
5483,A3,823.75,0.25,54,91.91
5484,G5,824.0,0.271,75,91.91
5485,B3,824.0,0.271,60,91.91
5486,F#5,824.25,0.271,69,91.91
5487,B-3,824.25,0.271,54,91.91
5488,G5,824.5,0.271,69,91.91
5489,B3,824.5,0.271,54,91.91
5490,B5,824.75,0.25,69,91.91
5491,G3,824.75,0.25,54,91.91
5492,F5,825.0,0.271,75,91.91
5493,A3,825.0,0.271,60,91.91
5494,E5,825.25,0.271,69,91.91
5495,G#3,825.25,0.271,54,91.91
5496,F5,825.5,0.271,69,91.91
5497,A3,825.5,0.271,54,91.91
5498,A5,825.75,0.25,69,91.91
5499,F3,825.75,0.25,54,91.91
5500,E5,826.0,0.271,75,91.91
5501,G3,826.0,0.271,60,91.91
5502,E-5,826.25,0.271,70,91.91
5503,F#3,826.25,0.271,54,91.91
5504,E5,826.5,0.271,70,91.91
5505,G3,826.5,0.271,54,91.91
5506,G5,826.75,0.25,70,91.91
5507,E3,826.75,0.25,54,91.91
5508,D5,827.0,0.271,75,91.91
5509,F3,827.0,0.271,61,91.91
5510,C#5,827.25,0.271,70,91.91
5511,E3,827.25,0.271,54,91.91
5512,D5,827.5,0.271,70,91.91
5513,F3,827.5,0.271,54,91.91
5514,F5,827.75,0.25,69,91.91
5515,D3,827.75,0.25,54,91.91
5516,C5,828.0,0.271,75,91.91
5517,E3,828.0,0.271,62,91.91
5518,B4,828.25,0.271,69,91.91
5519,E-3,828.25,0.271,54,91.91
5520,C5,828.5,0.271,69,91.91
5521,E3,828.5,0.271,54,91.91
5522,E5,828.75,0.25,69,91.91
5523,C3,828.75,0.25,54,91.91
5524,E5,829.0,0.271,75,91.91
5525,C4,829.0,0.271,61,91.91
5526,E-5,829.25,0.271,68,91.91
5527,B3,829.25,0.271,54,91.91
5528,E5,829.5,0.271,68,91.91
5529,C4,829.5,0.271,54,91.91
5530,G5,829.75,0.25,68,91.91
5531,E4,829.75,0.25,54,91.91
5532,D5,830.0,0.271,75,91.91
5533,B3,830.0,0.271,61,91.91
5534,C#5,830.25,0.271,68,91.91
5535,B-3,830.25,0.271,54,91.91
5536,D5,830.5,0.271,68,91.91
5537,B3,830.5,0.271,54,91.91
5538,B4,830.75,0.25,68,91.91
5539,D4,830.75,0.25,54,91.91
5540,C5,831.0,0.271,74,91.91
5541,A3,831.0,0.271,61,91.91
5542,B4,831.25,0.271,68,91.91
5543,G#3,831.25,0.271,54,91.91
5544,C5,831.5,0.271,68,91.91
5545,A3,831.5,0.271,54,91.91
5546,A4,831.75,0.25,68,91.91
5547,C4,831.75,0.25,54,91.91
5548,B4,832.0,0.271,74,91.91
5549,G3,832.0,0.271,60,91.91
5550,B-4,832.25,0.271,69,91.91
5551,F#3,832.25,0.271,54,91.91
5552,B4,832.5,0.271,68,91.91
5553,G3,832.5,0.271,54,91.91
5554,G4,832.75,0.25,68,91.91
5555,B3,832.75,0.25,54,91.91
5556,A4,833.0,0.271,74,91.91
5557,F3,833.0,0.271,61,91.91
5558,G#4,833.25,0.271,68,91.91
5559,E3,833.25,0.271,54,91.91
5560,A4,833.5,0.271,68,91.91
5561,F3,833.5,0.271,54,91.91
5562,F4,833.75,0.25,68,91.91
5563,A3,833.75,0.25,54,91.91
5564,G4,834.0,0.271,74,91.91
5565,E3,834.0,0.271,62,91.91
5566,F#4,834.25,0.271,68,91.91
5567,E-3,834.25,0.271,54,91.91
5568,G4,834.5,0.271,68,91.91
5569,E3,834.5,0.271,54,91.91
5570,E4,834.75,0.25,68,91.91
5571,G3,834.75,0.25,54,91.91
5572,F4,835.0,0.271,74,91.91
5573,D3,835.0,0.271,60,91.91
5574,E4,835.25,0.271,68,91.91
5575,C#3,835.25,0.271,54,91.91
5576,F4,835.5,0.271,68,91.91
5577,D3,835.5,0.271,54,91.91
5578,D4,835.75,0.25,68,91.91
5579,F3,835.75,0.25,53,91.91
5580,E4,836.0,0.271,91,91.91
5581,C3,836.0,0.5,84,91.91
5582,C4,836.25,0.271,81,91.91
5583,G3,836.5,0.271,81,91.91
5584,E4,836.75,0.25,81,91.91
5585,C3,836.75,0.25,72,91.91
5586,D4,837.0,0.271,90,91.91
5587,G2,837.0,0.5,84,91.91
5588,B3,837.25,0.271,81,91.91
5589,G3,837.5,0.271,81,91.91
5590,D4,837.75,0.25,81,91.91
5591,G2,837.75,0.25,72,91.91
5592,F4,838.0,0.271,91,91.91
5593,D3,838.0,0.5,84,91.91
5594,D4,838.25,0.271,81,91.91
5595,A3,838.5,0.271,81,91.91
5596,F4,838.75,0.25,81,91.91
5597,D3,838.75,0.25,72,91.91
5598,E4,839.0,0.271,90,91.91
5599,A2,839.0,0.5,84,91.91
5600,C4,839.25,0.271,81,91.91
5601,A3,839.5,0.271,81,91.91
5602,E4,839.75,0.25,81,91.91
5603,A2,839.75,0.25,72,91.91
5604,A4,840.0,0.271,90,91.91
5605,F3,840.0,0.5,84,91.91
5606,F4,840.25,0.271,81,91.91
5607,C4,840.5,0.271,81,91.91
5608,A4,840.75,0.25,81,91.91
5609,F3,840.75,0.25,73,91.91
5610,G4,841.0,0.271,90,91.91
5611,C3,841.0,0.5,84,91.91
5612,E4,841.25,0.271,81,91.91
5613,C4,841.5,0.271,81,91.91
5614,C5,841.75,0.25,81,91.91
5615,C3,841.75,0.25,74,91.91
5616,D4,842.0,0.271,91,91.91
5617,G3,842.0,0.5,84,91.91
5618,C5,842.25,0.271,81,91.91
5619,G4,842.5,0.271,81,91.91
5620,D4,842.75,0.25,81,91.91
5621,G3,842.75,0.25,73,91.91
5622,B4,843.0,0.271,91,91.91
5623,G2,843.0,0.5,84,91.91
5624,G4,843.25,0.271,81,91.91
5625,D4,843.5,0.271,81,91.91
5626,B4,843.75,0.25,81,91.91
5627,G2,843.75,0.25,74,91.91
5628,E5,844.0,0.271,91,91.91
5629,C3,844.0,0.5,84,91.91
5630,C5,844.25,0.271,81,91.91
5631,G4,844.5,0.271,81,91.91
5632,E5,844.75,0.25,81,91.91
5633,C4,844.75,0.25,73,91.91
5634,G4,845.0,0.271,91,91.91
5635,G3,845.0,0.5,84,91.91
5636,D5,845.25,0.271,81,91.91
5637,B4,845.5,0.271,81,91.91
5638,G4,845.75,0.25,81,91.91
5639,G3,845.75,0.25,73,91.91
5640,F5,846.0,0.271,91,91.91
5641,D3,846.0,0.5,84,91.91
5642,D5,846.25,0.271,81,91.91
5643,A4,846.5,0.271,81,91.91
5644,F5,846.75,0.25,81,91.91
5645,D4,846.75,0.25,72,91.91
5646,A4,847.0,0.271,93,91.91
5647,A3,847.0,0.5,84,91.91
5648,E5,847.25,0.271,81,91.91
5649,C5,847.5,0.271,81,91.91
5650,A4,847.75,0.25,81,91.91
5651,A3,847.75,0.25,72,91.91
5652,A5,848.0,0.271,92,91.91
5653,F3,848.0,0.5,84,91.91
5654,F5,848.25,0.271,81,91.91
5655,C5,848.5,0.271,81,91.91
5656,A5,848.75,0.25,81,91.91
5657,F4,848.75,0.25,73,91.91
5658,C5,849.0,0.271,92,91.91
5659,F3,849.0,0.5,84,91.91
5660,A5,849.25,0.271,81,91.91
5661,F5,849.5,0.271,81,91.91
5662,C5,849.75,0.25,81,91.91
5663,F4,849.75,0.25,73,91.91
5664,A5,850.0,0.271,92,91.91
5665,F3,850.0,0.5,83,91.91
5666,F5,850.25,0.271,81,91.91
5667,C5,850.5,0.271,81,91.91
5668,A5,850.75,0.25,81,91.91
5669,F4,850.75,0.25,72,91.91
5670,C5,851.0,0.271,91,91.91
5671,F3,851.0,0.5,82,91.91
5672,A5,851.25,0.271,81,91.91
5673,F5,851.5,0.271,81,91.91
5674,C5,851.75,0.25,81,91.91
5675,F3,851.75,0.25,72,91.91
5676,F2,852.0,0.5,82,91.91
5677,C6,852.5,0.25,50,91.91
5678,A3,852.5,0.25,41,91.91
5679,C4,852.75,0.25,34,91.91
5680,C6,853.0,0.75,53,91.91
5681,A3,853.0,0.25,41,91.91
5682,C4,853.25,0.25,34,91.91
5683,A3,853.5,0.25,41,91.91
5684,A5,853.75,0.25,50,91.91
5685,C4,853.75,0.25,33,91.91
5686,G5,854.0,0.5,54,91.91
5687,B-3,854.0,0.25,41,91.91
5688,C4,854.25,0.25,34,91.91
5689,C5,854.5,0.5,50,91.91
5690,B-3,854.5,0.25,41,91.91
5691,C4,854.75,0.25,35,91.91
5692,F5,855.0,0.5,50,91.91
5693,A3,855.0,0.25,41,91.91
5694,C4,855.25,0.25,34,91.91
5695,A5,855.5,0.5,47,91.91
5696,A3,855.5,0.25,41,91.91
5697,C4,855.75,0.25,35,91.91
5698,A3,856.0,0.25,41,91.91
5699,C4,856.25,0.25,34,91.91
5700,C6,856.5,0.25,50,91.91
5701,A3,856.5,0.25,41,91.91
5702,B5,856.75,0.25,46,91.91
5703,C4,856.75,0.25,34,91.91
5704,C6,857.0,0.25,50,91.91
5705,A3,857.0,0.25,41,91.91
5706,B5,857.25,0.25,47,91.91
5707,C4,857.25,0.25,34,91.91
5708,C6,857.5,0.25,50,91.91
5709,A3,857.5,0.25,41,91.91
5710,A5,857.75,0.25,47,91.91
5711,C4,857.75,0.25,33,91.91
5712,G5,858.0,0.25,48,91.91
5713,B-3,858.0,0.25,38,91.91
5714,F#5,858.25,0.25,43,91.91
5715,C4,858.25,0.25,32,91.91
5716,G5,858.5,0.25,48,91.91
5717,B-3,858.5,0.25,38,91.91
5718,C5,858.75,0.25,45,91.91
5719,C4,858.75,0.25,33,91.91
5720,F5,859.0,0.25,48,91.91
5721,A3,859.0,0.25,38,91.91
5722,E5,859.25,0.25,44,91.91
5723,C4,859.25,0.25,32,91.91
5724,F5,859.5,0.25,50,91.91
5725,A3,859.5,0.25,38,91.91
5726,A5,859.75,0.25,46,91.91
5727,C4,859.75,0.25,33,91.91
5728,G2,860.0,0.5,85,91.91
5729,B3,860.5,0.5,42,91.91
5730,F6,860.5,0.5,42,91.91
5731,F5,860.5,0.5,42,91.91
5732,D4,861.0,0.5,43,91.91
5733,F6,861.0,0.75,44,91.91
5734,F5,861.0,0.75,44,91.91
5735,B3,861.5,0.5,39,91.91
5736,D6,861.75,0.25,42,91.91
5737,D5,861.75,0.25,42,91.91
5738,C4,862.0,0.5,43,91.91
5739,E6,862.0,0.5,45,91.91
5740,E5,862.0,0.5,45,91.91
5741,E4,862.5,0.5,42,91.91
5742,C6,862.5,0.5,42,91.91
5743,C5,862.5,0.5,42,91.91
5744,D4,863.0,0.5,42,91.91
5745,B5,863.0,0.5,42,91.91
5746,B4,863.0,0.5,42,91.91
5747,B3,863.5,0.5,39,91.91
5748,D6,863.5,0.5,38,91.91
5749,D5,863.5,0.5,38,91.91
5750,G3,864.0,0.5,46,91.91
5751,B3,864.5,0.5,42,91.91
5752,F6,864.5,0.5,42,91.91
5753,F5,864.5,0.5,42,91.91
5754,D4,865.0,0.5,43,91.91
5755,F6,865.0,0.75,44,91.91
5756,F5,865.0,0.75,44,91.91
5757,B3,865.5,0.5,39,91.91
5758,D6,865.75,0.25,42,91.91
5759,D5,865.75,0.25,42,91.91
5760,C4,866.0,0.521,43,91.91
5761,E6,866.0,0.521,45,91.91
5762,E5,866.0,0.521,45,91.91
5763,E4,866.5,0.521,42,91.91
5764,C6,866.5,0.521,42,91.91
5765,C5,866.5,0.521,42,91.91
5766,D4,867.0,0.521,42,91.91
5767,B5,867.0,0.521,42,91.91
5768,B4,867.0,0.521,42,91.91
5769,B3,867.5,0.5,39,91.91
5770,D6,867.5,0.5,38,91.91
5771,D5,867.5,0.5,38,91.91
5772,A3,868.0,0.521,43,91.91
5773,C6,868.0,0.521,45,91.91
5774,C5,868.0,0.521,45,91.91
5775,C4,868.5,0.521,42,91.91
5776,A5,868.5,0.521,42,91.91
5777,A4,868.5,0.521,42,91.91
5778,B3,869.0,0.521,42,91.91
5779,G5,869.0,0.521,42,91.91
5780,G4,869.0,0.521,42,91.91
5781,G3,869.5,0.5,39,91.91
5782,B5,869.5,0.5,38,91.91
5783,B4,869.5,0.5,38,91.91
5784,F3,870.0,0.521,43,91.91
5785,A5,870.0,0.521,45,91.91
5786,A4,870.0,0.521,45,91.91
5787,A3,870.5,0.521,42,91.91
5788,F5,870.5,0.521,42,91.91
5789,F4,870.5,0.521,42,91.91
5790,G3,871.0,0.521,42,91.91
5791,E5,871.0,0.521,42,91.91
5792,E4,871.0,0.521,42,91.91
5793,E3,871.5,0.5,39,91.91
5794,G5,871.5,0.5,38,91.91
5795,G4,871.5,0.5,38,91.91
5796,D3,872.0,0.521,44,91.91
5797,F5,872.0,0.521,46,91.91
5798,F4,872.0,0.521,46,91.91
5799,F3,872.5,0.521,43,91.91
5800,D5,872.5,0.521,44,91.91
5801,D4,872.5,0.521,44,91.91
5802,C3,873.0,0.521,44,91.91
5803,E5,873.0,0.521,44,91.91
5804,E4,873.0,0.521,44,91.91
5805,E3,873.5,0.5,41,91.91
5806,C5,873.5,0.5,40,91.91
5807,C4,873.5,0.5,40,91.91
5808,B2,874.0,0.521,46,91.91
5809,D5,874.0,0.521,48,91.91
5810,D4,874.0,0.521,48,91.91
5811,D3,874.5,0.521,44,91.91
5812,B4,874.5,0.521,45,91.91
5813,B3,874.5,0.521,45,91.91
5814,A2,875.0,0.521,44,91.91
5815,C5,875.0,0.521,45,91.91
5816,C4,875.0,0.521,45,91.91
5817,C3,875.5,0.5,42,91.91
5818,A4,875.5,0.5,42,91.91
5819,A3,875.5,0.5,42,91.91
5820,G2,876.0,0.521,47,91.91
5821,B4,876.0,0.521,49,91.91
5822,B3,876.0,0.521,49,91.91
5823,B2,876.5,0.521,46,91.91
5824,G4,876.5,0.521,46,91.91
5825,G3,876.5,0.521,46,91.91
5826,F2,877.0,0.521,47,91.91
5827,A4,877.0,0.521,46,91.91
5828,A3,877.0,0.521,46,91.91
5829,A2,877.5,0.5,42,91.91
5830,F4,877.5,0.5,43,91.91
5831,F3,877.5,0.5,43,91.91
5832,E2,878.0,0.521,48,91.91
5833,G4,878.0,0.521,50,91.91
5834,G3,878.0,0.521,50,91.91
5835,G2,878.5,0.521,47,91.91
5836,E4,878.5,0.521,47,91.91
5837,E3,878.5,0.521,47,91.91
5838,F4,879.0,0.521,47,91.91
5839,F3,879.0,0.521,47,91.91
5840,G1,879.0,0.521,47,91.91
5841,D2,879.0,0.521,47,91.91
5842,G2,879.5,0.5,43,91.91
5843,B3,879.5,0.5,44,91.91
5844,B2,879.5,0.5,44,91.91
5845,E-3,880.0,0.5,104,91.91
5846,C4,880.0,0.5,104,91.91
5847,G#1,880.0,0.5,86,91.91
5848,G#2,880.0,0.5,86,91.91
5849,E-4,881.0,0.25,90,91.91
5850,C4,881.0,0.25,90,91.91
5851,G#3,881.0,0.25,90,91.91
5852,E-4,882.0,2.0,90,91.91
5853,C4,882.0,2.0,90,91.91
5854,G#3,882.0,2.0,90,91.91
5855,C5,882.333,0.333,74,91.91
5856,E-5,882.667,0.333,74,91.91
5857,G#5,883.0,0.333,78,91.91
5858,C6,883.333,0.333,74,91.91
5859,E-6,883.667,0.333,74,91.91
5860,C#6,884.0,0.333,58,91.91
5861,E-2,884.0,0.5,47,91.91
5862,B-5,884.333,0.333,49,91.91
5863,G5,884.667,0.333,49,91.91
5864,C#5,885.0,0.333,55,91.91
5865,C#4,885.0,0.5,36,91.91
5866,B-3,885.0,0.5,36,91.91
5867,G3,885.0,0.5,36,91.91
5868,E-3,885.0,0.5,36,91.91
5869,B-4,885.333,0.333,50,91.91
5870,G4,885.667,0.333,50,91.91
5871,C#6,886.0,0.333,56,91.91
5872,E2,886.0,0.5,47,91.91
5873,B-5,886.333,0.333,49,91.91
5874,G5,886.667,0.333,49,91.91
5875,C#5,887.0,0.333,55,91.91
5876,C#4,887.0,0.5,36,91.91
5877,B-3,887.0,0.5,36,91.91
5878,G3,887.0,0.5,36,91.91
5879,E3,887.0,0.5,36,91.91
5880,B-4,887.333,0.333,50,91.91
5881,G4,887.667,0.333,50,91.91
5882,F2,888.0,0.5,94,91.91
5883,C4,889.0,0.25,90,91.91
5884,G#3,889.0,0.25,90,91.91
5885,F3,889.0,0.25,90,91.91
5886,C4,890.0,2.0,90,91.91
5887,G#3,890.0,2.0,90,91.91
5888,F3,890.0,2.0,90,91.91
5889,G#4,890.333,0.333,74,91.91
5890,C5,890.667,0.333,74,91.91
5891,F5,891.0,0.333,78,91.91
5892,G#5,891.333,0.333,74,91.91
5893,C6,891.667,0.333,74,91.91
5894,B-5,892.0,0.333,58,91.91
5895,C2,892.0,0.5,47,91.91
5896,G5,892.333,0.333,49,91.91
5897,E5,892.667,0.333,49,91.91
5898,B-4,893.0,0.333,55,91.91
5899,B-3,893.0,0.5,36,91.91
5900,G3,893.0,0.5,36,91.91
5901,E3,893.0,0.5,36,91.91
5902,C3,893.0,0.5,36,91.91
5903,G4,893.333,0.333,50,91.91
5904,E4,893.667,0.333,50,91.91
5905,B-5,894.0,0.333,56,91.91
5906,C2,894.0,0.5,47,91.91
5907,G5,894.333,0.333,49,91.91
5908,E5,894.667,0.333,49,91.91
5909,B-4,895.0,0.333,55,91.91
5910,B-3,895.0,0.5,36,91.91
5911,G3,895.0,0.5,36,91.91
5912,E3,895.0,0.5,36,91.91
5913,C3,895.0,0.5,36,91.91
5914,G4,895.333,0.333,50,91.91
5915,E4,895.667,0.333,50,91.91
5916,C#2,896.0,0.5,94,91.91
5917,G#3,897.0,0.25,80,91.91
5918,F3,897.0,0.25,80,91.91
5919,C#3,897.0,0.25,80,91.91
5920,G#3,898.0,2.0,80,91.91
5921,F3,898.0,2.0,80,91.91
5922,C#3,898.0,2.0,80,91.91
5923,F4,898.333,0.333,74,91.91
5924,G#4,898.667,0.333,74,91.91
5925,C#5,899.0,0.333,78,91.91
5926,F5,899.333,0.333,74,91.91
5927,G#5,899.667,0.333,74,91.91
5928,F#5,900.0,0.333,58,91.91
5929,G#1,900.0,0.5,47,91.91
5930,E-5,900.333,0.333,49,91.91
5931,C5,900.667,0.333,49,91.91
5932,F#4,901.0,0.333,55,91.91
5933,F#3,901.0,0.5,36,91.91
5934,E-3,901.0,0.5,36,91.91
5935,C3,901.0,0.5,36,91.91
5936,G#2,901.0,0.5,36,91.91
5937,E-4,901.333,0.333,50,91.91
5938,C4,901.667,0.333,50,91.91
5939,F#5,902.0,0.333,56,91.91
5940,A1,902.0,0.5,47,91.91
5941,E-5,902.333,0.333,49,91.91
5942,C5,902.667,0.333,49,91.91
5943,F#4,903.0,0.333,55,91.91
5944,F#3,903.0,0.5,36,91.91
5945,E-3,903.0,0.5,36,91.91
5946,C3,903.0,0.5,36,91.91
5947,A2,903.0,0.5,36,91.91
5948,E-4,903.333,0.333,50,91.91
5949,C4,903.667,0.333,50,91.91
5950,B-1,904.0,0.333,58,91.91
5951,F3,904.333,0.333,39,91.91
5952,B-3,904.667,0.333,40,91.91
5953,C#4,905.0,0.333,41,91.91
5954,F3,905.0,0.5,29,91.91
5955,C#3,905.0,0.5,29,91.91
5956,B-2,905.0,0.5,29,91.91
5957,F4,905.333,0.333,43,91.91
5958,B-4,905.667,0.333,44,91.91
5959,C#5,906.0,0.333,46,91.91
5960,B-2,906.0,2.0,29,91.91
5961,C#3,906.0,2.0,29,91.91
5962,F3,906.0,2.0,29,91.91
5963,F5,906.333,0.333,45,91.91
5964,B-5,906.667,0.333,47,91.91
5965,C#6,907.0,0.333,49,91.91
5966,F6,907.333,0.333,45,91.91
5967,F5,907.667,0.333,41,91.91
5968,G#1,908.0,0.333,58,91.91
5969,F3,908.333,0.333,39,91.91
5970,G#3,908.667,0.333,40,91.91
5971,C4,909.0,0.333,41,91.91
5972,F3,909.0,0.5,29,91.91
5973,C3,909.0,0.5,29,91.91
5974,G#2,909.0,0.5,29,91.91
5975,F4,909.333,0.333,43,91.91
5976,G#4,909.667,0.333,44,91.91
5977,C5,910.0,0.333,46,91.91
5978,G#2,910.0,2.0,29,91.91
5979,C3,910.0,2.0,29,91.91
5980,F3,910.0,2.0,29,91.91
5981,F5,910.333,0.333,45,91.91
5982,G#5,910.667,0.333,47,91.91
5983,C6,911.0,0.333,49,91.91
5984,F6,911.333,0.333,45,91.91
5985,F5,911.667,0.333,41,91.91
5986,G1,912.0,0.333,58,91.91
5987,F3,912.333,0.333,39,91.91
5988,B3,912.667,0.333,40,91.91
5989,D4,913.0,0.333,41,91.91
5990,G2,913.0,0.5,28,91.91
5991,F3,913.0,0.5,28,91.91
5992,D3,913.0,0.5,28,91.91
5993,B2,913.0,0.5,28,91.91
5994,F4,913.333,0.333,43,91.91
5995,B4,913.667,0.333,44,91.91
5996,D5,914.0,0.333,46,91.91
5997,G2,914.0,2.0,28,91.91
5998,B2,914.0,2.0,28,91.91
5999,D3,914.0,2.0,28,91.91
6000,F3,914.0,2.0,28,91.91
6001,F5,914.333,0.333,45,91.91
6002,B5,914.667,0.333,47,91.91
6003,D6,915.0,0.333,49,91.91
6004,F6,915.333,0.333,45,91.91
6005,F5,915.667,0.333,41,91.91
6006,G#1,916.0,0.333,58,91.91
6007,E-3,916.333,0.333,39,91.91
6008,G#3,916.667,0.333,40,91.91
6009,C4,917.0,0.333,41,91.91
6010,E-3,917.0,0.5,29,91.91
6011,C3,917.0,0.5,29,91.91
6012,G#2,917.0,0.5,29,91.91
6013,E-4,917.333,0.333,43,91.91
6014,G#4,917.667,0.333,44,91.91
6015,C5,918.0,0.333,46,91.91
6016,G#2,918.0,2.0,29,91.91
6017,C3,918.0,2.0,29,91.91
6018,E-3,918.0,2.0,29,91.91
6019,E-5,918.333,0.333,45,91.91
6020,G#5,918.667,0.333,47,91.91
6021,C6,919.0,0.333,49,91.91
6022,E-6,919.333,0.333,45,91.91
6023,E-5,919.667,0.333,41,91.91
6024,A1,920.0,0.333,41,91.91
6025,C2,920.333,0.333,37,91.91
6026,E-2,920.667,0.333,37,91.91
6027,F#2,921.0,0.333,41,91.91
6028,A2,921.333,0.333,37,91.91
6029,C3,921.667,0.333,37,91.91
6030,E-3,922.0,0.333,41,91.91
6031,F#3,922.333,0.333,38,91.91
6032,A3,922.667,0.333,39,91.91
6033,C4,923.0,0.333,45,91.91
6034,E-4,923.333,0.333,41,91.91
6035,F#4,923.667,0.333,41,91.91
6036,A4,924.0,0.333,46,91.91
6037,C5,924.333,0.333,41,91.91
6038,E-5,924.667,0.333,41,91.91
6039,F#5,925.0,0.333,46,91.91
6040,A5,925.333,0.333,41,91.91
6041,C6,925.667,0.333,41,91.91
6042,E-6,926.0,0.333,47,91.91
6043,C6,926.333,0.333,43,91.91
6044,A5,926.667,0.333,43,91.91
6045,F#6,927.0,0.333,47,91.91
6046,E-6,927.333,0.333,43,91.91
6047,C6,927.667,0.333,43,91.91
6048,G1,928.0,0.5,41,91.91
6049,C2,928.0,0.5,41,91.91
6050,E2,928.0,0.5,41,91.91
6051,G2,928.0,0.5,41,91.91
6052,G6,928.25,0.271,45,91.91
6053,G5,928.25,0.271,45,91.91
6054,F6,928.5,0.271,45,91.91
6055,F5,928.5,0.271,45,91.91
6056,E6,928.75,0.271,45,91.91
6057,E5,928.75,0.271,45,91.91
6058,D6,929.0,0.271,44,91.91
6059,D5,929.0,0.271,44,91.91
6060,C6,929.25,0.271,44,91.91
6061,C5,929.25,0.271,44,91.91
6062,B5,929.5,0.271,43,91.91
6063,B4,929.5,0.271,43,91.91
6064,A5,929.75,0.271,39,91.91
6065,A4,929.75,0.271,39,91.91
6066,G4,930.0,0.5,43,91.91
6067,G5,930.0,0.5,43,91.91
6068,F4,930.5,0.271,42,91.91
6069,F5,930.5,0.271,42,91.91
6070,E4,930.75,0.271,42,91.91
6071,E5,930.75,0.271,42,91.91
6072,D4,931.0,0.271,40,91.91
6073,D5,931.0,0.271,40,91.91
6074,C4,931.25,0.271,40,91.91
6075,C5,931.25,0.271,40,91.91
6076,B3,931.5,0.271,40,91.91
6077,B4,931.5,0.271,40,91.91
6078,A3,931.75,0.271,38,91.91
6079,A4,931.75,0.271,38,91.91
6080,G4,932.0,3.0,42,91.91
6081,C4,932.0,2.0,35,91.91
6082,G3,932.0,2.0,35,91.91
6083,E4,932.0,2.0,35,91.91
6084,G1,932.25,0.271,32,91.91
6085,G2,932.25,0.271,32,91.91
6086,A1,932.5,0.271,32,91.91
6087,A2,932.5,0.271,32,91.91
6088,B1,932.75,0.271,33,91.91
6089,B2,932.75,0.271,33,91.91
6090,C2,933.0,0.271,34,91.91
6091,C3,933.0,0.271,34,91.91
6092,D2,933.25,0.271,34,91.91
6093,D3,933.25,0.271,34,91.91
6094,E2,933.5,0.271,35,91.91
6095,E3,933.5,0.271,35,91.91
6096,F2,933.75,0.271,35,91.91
6097,F3,933.75,0.271,35,91.91
6098,B3,934.0,1.0,35,91.91
6099,D4,934.0,1.0,35,91.91
6100,G2,934.0,0.5,36,91.91
6101,G3,934.0,0.5,36,91.91
6102,A2,934.5,0.271,34,91.91
6103,A3,934.5,0.271,34,91.91
6104,B2,934.75,0.271,35,91.91
6105,B3,934.75,0.271,35,91.91
6106,D5,935.0,1.0,44,91.91
6107,F5,935.0,1.0,44,91.91
6108,C3,935.0,0.271,36,91.91
6109,C4,935.0,0.271,36,91.91
6110,D3,935.25,0.271,37,91.91
6111,D4,935.25,0.271,37,91.91
6112,E3,935.5,0.271,38,91.91
6113,E4,935.5,0.271,38,91.91
6114,F3,935.75,0.271,40,91.91
6115,F4,935.75,0.271,40,91.91
6116,C5,936.0,0.125,45,91.91
6117,E5,936.0,0.125,45,91.91
6118,G3,936.0,0.5,40,91.91
6119,G4,936.0,0.5,40,91.91
6120,G6,936.25,0.271,45,91.91
6121,G5,936.25,0.271,45,91.91
6122,F6,936.5,0.271,45,91.91
6123,F5,936.5,0.271,45,91.91
6124,E6,936.75,0.271,45,91.91
6125,E5,936.75,0.271,45,91.91
6126,D6,937.0,0.271,44,91.91
6127,D5,937.0,0.271,44,91.91
6128,C6,937.25,0.271,44,91.91
6129,C5,937.25,0.271,44,91.91
6130,B5,937.5,0.271,43,91.91
6131,B4,937.5,0.271,43,91.91
6132,A5,937.75,0.271,39,91.91
6133,A4,937.75,0.271,39,91.91
6134,G4,938.0,0.5,43,91.91
6135,G5,938.0,0.5,43,91.91
6136,F4,938.5,0.271,42,91.91
6137,F5,938.5,0.271,42,91.91
6138,E4,938.75,0.271,42,91.91
6139,E5,938.75,0.271,42,91.91
6140,D4,939.0,0.271,40,91.91
6141,D5,939.0,0.271,40,91.91
6142,C4,939.25,0.271,40,91.91
6143,C5,939.25,0.271,40,91.91
6144,B3,939.5,0.271,40,91.91
6145,B4,939.5,0.271,40,91.91
6146,A3,939.75,0.271,38,91.91
6147,A4,939.75,0.271,38,91.91
6148,G4,940.0,3.0,42,91.91
6149,C4,940.0,2.0,35,91.91
6150,G3,940.0,2.0,35,91.91
6151,E4,940.0,2.0,35,91.91
6152,G1,940.25,0.271,32,91.91
6153,G2,940.25,0.271,32,91.91
6154,A1,940.5,0.271,32,91.91
6155,A2,940.5,0.271,32,91.91
6156,B1,940.75,0.271,33,91.91
6157,B2,940.75,0.271,33,91.91
6158,C2,941.0,0.271,34,91.91
6159,C3,941.0,0.271,34,91.91
6160,D2,941.25,0.271,34,91.91
6161,D3,941.25,0.271,34,91.91
6162,E2,941.5,0.271,35,91.91
6163,E3,941.5,0.271,35,91.91
6164,F2,941.75,0.271,35,91.91
6165,F3,941.75,0.271,35,91.91
6166,B3,942.0,1.0,35,91.91
6167,D4,942.0,1.0,35,91.91
6168,G2,942.0,0.5,36,91.91
6169,G3,942.0,0.5,36,91.91
6170,A2,942.5,0.271,34,91.91
6171,A3,942.5,0.271,34,91.91
6172,B2,942.75,0.271,35,91.91
6173,B3,942.75,0.271,35,91.91
6174,D5,943.0,1.0,44,91.91
6175,F5,943.0,1.0,44,91.91
6176,C3,943.0,0.271,36,91.91
6177,C4,943.0,0.271,36,91.91
6178,D3,943.25,0.271,37,91.91
6179,D4,943.25,0.271,37,91.91
6180,E3,943.5,0.271,38,91.91
6181,E4,943.5,0.271,38,91.91
6182,F3,943.75,0.271,40,91.91
6183,F4,943.75,0.271,40,91.91
6184,C5,944.0,0.125,45,91.91
6185,E5,944.0,0.125,45,91.91
6186,G3,944.0,0.5,40,91.91
6187,G4,944.0,0.5,40,91.91
6188,G6,944.25,0.271,45,91.91
6189,G5,944.25,0.271,45,91.91
6190,F6,944.5,0.271,45,91.91
6191,F5,944.5,0.271,45,91.91
6192,E6,944.75,0.271,45,91.91
6193,E5,944.75,0.271,45,91.91
6194,D6,945.0,0.271,44,91.91
6195,D5,945.0,0.271,44,91.91
6196,C6,945.25,0.271,44,91.91
6197,C5,945.25,0.271,44,91.91
6198,B5,945.5,0.271,43,91.91
6199,B4,945.5,0.271,43,91.91
6200,A5,945.75,0.271,39,91.91
6201,A4,945.75,0.271,39,91.91
6202,G4,946.0,0.5,43,91.91
6203,G5,946.0,0.5,43,91.91
6204,F4,946.5,0.271,42,91.91
6205,F5,946.5,0.271,42,91.91
6206,E4,946.75,0.271,42,91.91
6207,E5,946.75,0.271,42,91.91
6208,D4,947.0,0.271,40,91.91
6209,D5,947.0,0.271,40,91.91
6210,C4,947.25,0.271,40,91.91
6211,C5,947.25,0.271,40,91.91
6212,B3,947.5,0.271,40,91.91
6213,B4,947.5,0.271,40,91.91
6214,A3,947.75,0.271,38,91.91
6215,A4,947.75,0.271,38,91.91
6216,G3,948.0,0.271,44,91.91
6217,G4,948.0,0.271,44,91.91
6218,A3,948.25,0.271,46,91.91
6219,G3,948.25,0.271,35,91.91
6220,B3,948.5,0.271,47,91.91
6221,F3,948.5,0.271,37,91.91
6222,C4,948.75,0.271,49,91.91
6223,E3,948.75,0.271,38,91.91
6224,D4,949.0,0.271,51,91.91
6225,D3,949.0,0.271,40,91.91
6226,E4,949.25,0.271,53,91.91
6227,C3,949.25,0.271,41,91.91
6228,F4,949.5,0.271,54,91.91
6229,B2,949.5,0.271,43,91.91
6230,F#4,949.75,0.271,56,91.91
6231,A2,949.75,0.271,44,91.91
6232,G4,950.0,0.271,58,91.91
6233,G2,950.0,0.5,46,91.91
6234,A4,950.25,0.271,59,91.91
6235,B4,950.5,0.271,61,91.91
6236,F2,950.5,0.271,47,91.91
6237,C5,950.75,0.271,63,91.91
6238,E2,950.75,0.271,48,91.91
6239,D5,951.0,0.271,65,91.91
6240,D2,951.0,0.271,50,91.91
6241,E5,951.25,0.271,66,91.91
6242,C2,951.25,0.271,51,91.91
6243,F5,951.5,0.271,68,91.91
6244,B1,951.5,0.271,53,91.91
6245,F#5,951.75,0.271,70,91.91
6246,A1,951.75,0.271,54,91.91
6247,G5,952.0,0.167,54,91.91
6248,G1,952.0,0.271,57,91.91
6249,A5,952.167,0.167,35,91.91
6250,A1,952.25,0.271,57,91.91
6251,G5,952.333,0.167,44,91.91
6252,A5,952.5,0.167,38,91.91
6253,B1,952.5,0.271,58,91.91
6254,G5,952.667,0.167,44,91.91
6255,C2,952.75,0.271,58,91.91
6256,A5,952.833,0.167,37,91.91
6257,G5,953.0,0.167,41,91.91
6258,D2,953.0,0.271,59,91.91
6259,A5,953.167,0.167,36,91.91
6260,E2,953.25,0.271,59,91.91
6261,G5,953.333,0.167,41,91.91
6262,A5,953.5,0.167,37,91.91
6263,F2,953.5,0.271,60,91.91
6264,G5,953.667,0.167,41,91.91
6265,F#2,953.75,0.271,60,91.91
6266,A5,953.833,0.167,35,91.91
6267,G5,954.0,0.167,41,91.91
6268,G2,954.0,0.271,61,91.91
6269,A5,954.167,0.167,37,91.91
6270,A2,954.25,0.271,61,91.91
6271,G5,954.333,0.167,41,91.91
6272,A5,954.5,0.167,36,91.91
6273,B2,954.5,0.271,62,91.91
6274,G5,954.667,0.167,41,91.91
6275,C3,954.75,0.271,62,91.91
6276,A5,954.833,0.167,36,91.91
6277,G5,955.0,0.167,41,91.91
6278,D3,955.0,0.271,63,91.91
6279,A5,955.167,0.167,37,91.91
6280,E3,955.25,0.271,63,91.91
6281,G5,955.333,0.167,41,91.91
6282,A5,955.5,0.167,37,91.91
6283,F3,955.5,0.271,64,91.91
6284,G5,955.667,0.167,41,91.91
6285,F#3,955.75,0.271,64,91.91
6286,A5,955.833,0.167,36,91.91
6287,G5,956.0,0.167,41,91.91
6288,G3,956.0,0.271,64,91.91
6289,A5,956.167,0.167,36,91.91
6290,A3,956.25,0.271,64,91.91
6291,G5,956.333,0.167,41,91.91
6292,A5,956.5,0.167,37,91.91
6293,B3,956.5,0.271,65,91.91
6294,G5,956.667,0.167,41,91.91
6295,C4,956.75,0.271,65,91.91
6296,A5,956.833,0.167,37,91.91
6297,G5,957.0,0.167,41,91.91
6298,D4,957.0,0.271,66,91.91
6299,A5,957.167,0.167,36,91.91
6300,E4,957.25,0.271,66,91.91
6301,G5,957.333,0.167,41,91.91
6302,A5,957.5,0.167,37,91.91
6303,F4,957.5,0.271,67,91.91
6304,G5,957.667,0.167,41,91.91
6305,F#4,957.75,0.271,67,91.91
6306,A5,957.833,0.167,36,91.91
6307,G5,958.0,0.167,40,91.91
6308,G4,958.0,0.271,68,91.91
6309,A5,958.167,0.167,36,91.91
6310,A4,958.25,0.271,66,91.91
6311,G5,958.333,0.167,39,91.91
6312,A5,958.5,0.167,35,91.91
6313,B4,958.5,0.271,65,91.91
6314,G5,958.667,0.167,39,91.91
6315,C5,958.75,0.271,63,91.91
6316,A5,958.833,0.167,35,91.91
6317,G5,959.0,0.167,39,91.91
6318,D5,959.0,0.271,62,91.91
6319,A5,959.167,0.167,35,91.91
6320,E5,959.25,0.271,57,91.91
6321,G5,959.333,0.167,39,91.91
6322,A5,959.5,0.167,35,91.91
6323,F5,959.5,0.271,55,91.91
6324,G5,959.667,0.167,39,91.91
6325,E5,959.75,0.271,53,91.91
6326,A5,959.833,0.167,35,91.91
6327,G5,960.0,0.167,36,91.91
6328,F5,960.0,0.5,56,91.91
6329,A5,960.167,0.167,32,91.91
6330,G5,960.333,0.167,35,91.91
6331,A5,960.5,0.167,31,91.91
6332,G5,960.667,0.167,35,91.91
6333,A5,960.833,0.167,31,91.91
6334,G5,961.0,0.167,35,91.91
6335,A5,961.167,0.167,31,91.91
6336,E5,961.25,0.25,43,91.91
6337,G5,961.333,0.167,35,91.91
6338,A5,961.5,0.167,31,91.91
6339,F5,961.5,0.25,46,91.91
6340,G5,961.667,0.167,35,91.91
6341,E5,961.75,0.25,43,91.91
6342,A5,961.833,0.167,31,91.91
6343,G5,962.0,0.167,36,91.91
6344,F5,962.0,0.5,51,91.91
6345,A5,962.167,0.167,32,91.91
6346,G5,962.333,0.167,35,91.91
6347,A5,962.5,0.167,31,91.91
6348,G5,962.667,0.167,35,91.91
6349,A5,962.833,0.167,31,91.91
6350,G5,963.0,0.167,35,91.91
6351,A5,963.167,0.167,31,91.91
6352,E5,963.25,0.25,42,91.91
6353,G5,963.333,0.167,35,91.91
6354,A5,963.5,0.167,31,91.91
6355,F5,963.5,0.25,46,91.91
6356,G5,963.667,0.167,35,91.91
6357,E5,963.75,0.25,42,91.91
6358,A5,963.833,0.167,31,91.91
6359,G5,964.0,0.167,36,91.91
6360,F5,964.0,0.5,50,91.91
6361,A5,964.167,0.167,32,91.91
6362,G5,964.333,0.167,35,91.91
6363,A5,964.5,0.167,32,91.91
6364,G5,964.667,0.167,36,91.91
6365,A5,964.833,0.167,32,91.91
6366,G5,965.0,0.167,37,91.91
6367,A5,965.167,0.167,33,91.91
6368,G5,965.333,0.167,38,91.91
6369,A5,965.5,0.167,34,91.91
6370,G5,965.667,0.167,39,91.91
6371,A5,965.833,0.167,35,91.91
6372,G5,966.0,0.167,41,91.91
6373,A5,966.167,0.167,37,91.91
6374,G5,966.333,0.167,40,91.91
6375,A5,966.5,0.167,36,91.91
6376,G5,966.667,0.167,42,91.91
6377,A5,966.833,0.167,37,91.91
6378,G5,967.0,0.167,42,91.91
6379,A5,967.167,0.167,38,91.91
6380,G5,967.333,0.167,43,91.91
6381,A5,967.5,0.167,39,91.91
6382,G5,967.667,0.167,44,91.91
6383,A5,967.833,0.167,39,91.91
6384,G5,968.0,0.167,46,91.91
6385,C3,968.0,0.333,51,91.91
6386,A5,968.167,0.167,31,91.91
6387,G5,968.333,0.167,33,91.91
6388,G3,968.333,0.333,31,91.91
6389,A5,968.5,0.167,29,91.91
6390,G5,968.667,0.167,32,91.91
6391,C4,968.667,0.333,31,91.91
6392,A5,968.833,0.167,28,91.91
6393,G5,969.0,0.167,31,91.91
6394,G6,969.0,1.0,57,91.91
6395,E4,969.0,0.333,33,91.91
6396,A5,969.167,0.167,27,91.91
6397,G5,969.333,0.167,31,91.91
6398,C4,969.333,0.333,31,91.91
6399,A5,969.5,0.167,27,91.91
6400,G5,969.667,0.167,31,91.91
6401,E4,969.667,0.333,31,91.91
6402,A5,969.833,0.167,27,91.91
6403,G5,970.0,0.167,32,91.91
6404,G6,970.0,1.5,59,91.91
6405,G4,970.0,0.333,35,91.91
6406,A5,970.167,0.167,28,91.91
6407,G5,970.333,0.167,31,91.91
6408,E4,970.333,0.333,31,91.91
6409,A5,970.5,0.167,27,91.91
6410,G5,970.667,0.167,31,91.91
6411,G4,970.667,0.333,31,91.91
6412,A5,970.833,0.167,27,91.91
6413,G5,971.0,0.167,31,91.91
6414,E4,971.0,0.333,35,91.91
6415,A5,971.167,0.167,27,91.91
6416,G5,971.333,0.167,31,91.91
6417,C4,971.333,0.333,31,91.91
6418,A5,971.5,0.167,27,91.91
6419,E6,971.5,0.5,50,91.91
6420,G5,971.667,0.167,31,91.91
6421,E4,971.667,0.333,31,91.91
6422,A5,971.833,0.167,27,91.91
6423,G5,972.0,0.167,37,91.91
6424,D6,972.0,1.0,57,91.91
6425,F4,972.0,0.333,35,91.91
6426,A5,972.167,0.167,28,91.91
6427,G5,972.333,0.167,34,91.91
6428,D4,972.333,0.333,31,91.91
6429,A5,972.5,0.167,28,91.91
6430,G5,972.667,0.167,34,91.91
6431,F4,972.667,0.333,31,91.91
6432,A5,972.833,0.167,28,91.91
6433,G5,973.0,0.146,50,91.91
6434,D4,973.0,0.333,36,91.91
6435,A5,973.167,0.167,27,91.91
6436,G5,973.333,0.167,31,91.91
6437,B3,973.333,0.333,31,91.91
6438,A5,973.5,0.167,27,91.91
6439,G5,973.667,0.167,31,91.91
6440,D4,973.667,0.333,31,91.91
6441,A5,973.833,0.167,27,91.91
6442,G5,974.0,0.167,32,91.91
6443,C6,974.0,1.0,53,91.91
6444,E4,974.0,0.333,35,91.91
6445,A5,974.167,0.167,28,91.91
6446,G5,974.333,0.167,31,91.91
6447,C4,974.333,0.333,31,91.91
6448,A5,974.5,0.167,27,91.91
6449,G5,974.667,0.167,31,91.91
6450,G3,974.667,0.333,31,91.91
6451,A5,974.833,0.167,27,91.91
6452,G5,975.0,0.167,31,91.91
6453,E6,975.0,0.5,53,91.91
6454,C4,975.0,0.333,35,91.91
6455,A5,975.167,0.167,27,91.91
6456,G5,975.333,0.167,31,91.91
6457,G3,975.333,0.333,31,91.91
6458,A5,975.5,0.167,27,91.91
6459,G5,975.667,0.167,31,91.91
6460,E3,975.667,0.333,31,91.91
6461,A5,975.833,0.167,27,91.91
6462,G5,976.0,0.167,36,91.91
6463,C3,976.0,0.333,49,91.91
6464,A5,976.167,0.167,31,91.91
6465,G5,976.333,0.167,33,91.91
6466,G3,976.333,0.333,31,91.91
6467,A5,976.5,0.167,29,91.91
6468,G5,976.667,0.167,32,91.91
6469,C4,976.667,0.333,31,91.91
6470,A5,976.833,0.167,28,91.91
6471,G5,977.0,0.167,31,91.91
6472,G6,977.0,1.0,57,91.91
6473,E4,977.0,0.333,33,91.91
6474,A5,977.167,0.167,27,91.91
6475,G5,977.333,0.167,31,91.91
6476,C4,977.333,0.333,31,91.91
6477,A5,977.5,0.167,27,91.91
6478,G5,977.667,0.167,31,91.91
6479,E4,977.667,0.333,31,91.91
6480,A5,977.833,0.167,27,91.91
6481,G5,978.0,0.167,32,91.91
6482,G6,978.0,1.5,59,91.91
6483,G4,978.0,0.333,35,91.91
6484,A5,978.167,0.167,28,91.91
6485,G5,978.333,0.167,31,91.91
6486,E4,978.333,0.333,31,91.91
6487,A5,978.5,0.167,27,91.91
6488,G5,978.667,0.167,31,91.91
6489,G4,978.667,0.333,31,91.91
6490,A5,978.833,0.167,27,91.91
6491,G5,979.0,0.167,31,91.91
6492,E4,979.0,0.333,35,91.91
6493,A5,979.167,0.167,27,91.91
6494,G5,979.333,0.167,31,91.91
6495,C4,979.333,0.333,31,91.91
6496,A5,979.5,0.167,27,91.91
6497,E6,979.5,0.5,50,91.91
6498,G5,979.667,0.167,31,91.91
6499,E4,979.667,0.333,31,91.91
6500,A5,979.833,0.167,27,91.91
6501,G5,980.0,0.167,32,91.91
6502,D6,980.0,1.0,57,91.91
6503,F4,980.0,0.333,35,91.91
6504,A5,980.167,0.167,28,91.91
6505,G5,980.333,0.167,31,91.91
6506,D4,980.333,0.333,31,91.91
6507,A5,980.5,0.167,27,91.91
6508,G5,980.667,0.167,31,91.91
6509,F4,980.667,0.333,31,91.91
6510,A5,980.833,0.167,27,91.91
6511,G5,981.0,0.167,31,91.91
6512,G5,981.0,0.146,50,91.91
6513,B3,981.0,0.333,36,91.91
6514,A5,981.167,0.167,27,91.91
6515,G5,981.333,0.167,31,91.91
6516,D4,981.333,0.333,31,91.91
6517,A5,981.5,0.167,27,91.91
6518,G5,981.667,0.167,31,91.91
6519,B3,981.667,0.333,31,91.91
6520,A5,981.833,0.167,27,91.91
6521,G5,982.0,0.167,32,91.91
6522,C6,982.0,0.5,53,91.91
6523,C4,982.0,0.333,35,91.91
6524,A5,982.167,0.167,28,91.91
6525,G5,982.333,0.167,32,91.91
6526,A3,982.333,0.333,31,91.91
6527,A5,982.5,0.167,28,91.91
6528,G5,982.667,0.167,34,91.91
6529,G3,982.667,0.333,31,91.91
6530,A5,982.833,0.167,30,91.91
6531,G5,983.0,0.167,35,91.91
6532,F3,983.0,0.333,35,91.91
6533,A5,983.167,0.167,31,91.91
6534,G5,983.333,0.167,36,91.91
6535,E3,983.333,0.333,31,91.91
6536,A5,983.5,0.167,32,91.91
6537,G5,983.667,0.167,38,91.91
6538,D3,983.667,0.333,31,91.91
6539,A5,983.833,0.167,34,91.91
6540,G#5,984.0,0.167,46,91.91
6541,C3,984.0,0.333,63,91.91
6542,G5,984.167,0.167,31,91.91
6543,G#5,984.333,0.167,33,91.91
6544,G3,984.333,0.333,31,91.91
6545,G5,984.5,0.167,29,91.91
6546,G#5,984.667,0.167,32,91.91
6547,C4,984.667,0.333,31,91.91
6548,G5,984.833,0.167,28,91.91
6549,G#5,985.0,0.167,31,91.91
6550,G6,985.0,1.0,57,91.91
6551,E-4,985.0,0.333,33,91.91
6552,G5,985.167,0.167,27,91.91
6553,G#5,985.333,0.167,31,91.91
6554,C4,985.333,0.333,31,91.91
6555,G5,985.5,0.167,27,91.91
6556,G#5,985.667,0.167,31,91.91
6557,E-4,985.667,0.333,31,91.91
6558,G5,985.833,0.167,27,91.91
6559,G#5,986.0,0.167,32,91.91
6560,G6,986.0,1.5,59,91.91
6561,G4,986.0,0.333,35,91.91
6562,G5,986.167,0.167,28,91.91
6563,G#5,986.333,0.167,31,91.91
6564,E-4,986.333,0.333,31,91.91
6565,G5,986.5,0.167,27,91.91
6566,G#5,986.667,0.167,31,91.91
6567,G4,986.667,0.333,31,91.91
6568,G5,986.833,0.167,27,91.91
6569,G#5,987.0,0.167,31,91.91
6570,E-4,987.0,0.333,35,91.91
6571,G5,987.167,0.167,27,91.91
6572,G#5,987.333,0.167,31,91.91
6573,C4,987.333,0.333,31,91.91
6574,G5,987.5,0.167,27,91.91
6575,E-6,987.5,0.5,50,91.91
6576,G#5,987.667,0.167,31,91.91
6577,E-4,987.667,0.333,31,91.91
6578,G5,987.833,0.167,27,91.91
6579,G#5,988.0,0.167,37,91.91
6580,D6,988.0,1.0,57,91.91
6581,F4,988.0,0.333,35,91.91
6582,G5,988.167,0.167,28,91.91
6583,G#5,988.333,0.167,34,91.91
6584,D4,988.333,0.333,31,91.91
6585,G5,988.5,0.167,28,91.91
6586,G#5,988.667,0.167,34,91.91
6587,F4,988.667,0.333,31,91.91
6588,G5,988.833,0.167,28,91.91
6589,G#5,989.0,0.167,31,91.91
6590,G5,989.0,0.146,50,91.91
6591,D4,989.0,0.333,36,91.91
6592,G5,989.167,0.167,27,91.91
6593,G#5,989.333,0.167,31,91.91
6594,B3,989.333,0.333,31,91.91
6595,G5,989.5,0.167,27,91.91
6596,G#5,989.667,0.167,31,91.91
6597,D4,989.667,0.333,31,91.91
6598,G5,989.833,0.167,27,91.91
6599,G#5,990.0,0.167,32,91.91
6600,C6,990.0,0.5,53,91.91
6601,E-4,990.0,0.333,35,91.91
6602,G5,990.167,0.167,28,91.91
6603,G#5,990.333,0.167,31,91.91
6604,C4,990.333,0.333,31,91.91
6605,G5,990.5,0.167,27,91.91
6606,G#5,990.667,0.167,31,91.91
6607,E-4,990.667,0.333,31,91.91
6608,G5,990.833,0.167,27,91.91
6609,G#5,991.0,0.167,31,91.91
6610,E-3,991.0,0.5,35,91.91
6611,B-3,991.0,0.333,35,91.91
6612,G5,991.167,0.167,27,91.91
6613,G#5,991.333,0.167,31,91.91
6614,C#4,991.333,0.333,31,91.91
6615,G5,991.5,0.167,27,91.91
6616,F5,991.667,0.167,31,91.91
6617,B-3,991.667,0.333,31,91.91
6618,G5,991.833,0.167,27,91.91
6619,G#5,992.0,0.167,36,91.91
6620,G#2,992.0,0.333,45,91.91
6621,B-5,992.167,0.167,31,91.91
6622,G#5,992.333,0.167,33,91.91
6623,E-3,992.333,0.333,31,91.91
6624,B-5,992.5,0.167,29,91.91
6625,G#5,992.667,0.167,32,91.91
6626,G#3,992.667,0.333,31,91.91
6627,B-5,992.833,0.167,28,91.91
6628,E-5,993.0,0.167,31,91.91
6629,E-6,993.0,1.0,57,91.91
6630,C4,993.0,0.333,33,91.91
6631,F5,993.167,0.167,27,91.91
6632,E-5,993.333,0.167,31,91.91
6633,G#3,993.333,0.333,31,91.91
6634,F5,993.5,0.167,27,91.91
6635,E-5,993.667,0.167,31,91.91
6636,C4,993.667,0.333,31,91.91
6637,F5,993.833,0.167,27,91.91
6638,E-5,994.0,0.167,32,91.91
6639,E-6,994.0,1.5,59,91.91
6640,E-4,994.0,0.333,35,91.91
6641,F5,994.167,0.167,28,91.91
6642,E-5,994.333,0.167,31,91.91
6643,C4,994.333,0.333,31,91.91
6644,F5,994.5,0.167,27,91.91
6645,E-5,994.667,0.167,31,91.91
6646,E-4,994.667,0.333,31,91.91
6647,F5,994.833,0.167,27,91.91
6648,E-5,995.0,0.167,31,91.91
6649,C4,995.0,0.333,35,91.91
6650,F5,995.167,0.167,27,91.91
6651,E-5,995.333,0.167,31,91.91
6652,G#3,995.333,0.333,31,91.91
6653,F5,995.5,0.167,27,91.91
6654,C6,995.5,0.5,50,91.91
6655,E-5,995.667,0.167,31,91.91
6656,C4,995.667,0.333,31,91.91
6657,F5,995.833,0.167,27,91.91
6658,E-5,996.0,0.167,32,91.91
6659,B-5,996.0,1.0,57,91.91
6660,C#4,996.0,0.333,35,91.91
6661,F5,996.167,0.167,28,91.91
6662,E-5,996.333,0.167,31,91.91
6663,B-3,996.333,0.333,31,91.91
6664,F5,996.5,0.167,27,91.91
6665,E-5,996.667,0.167,31,91.91
6666,C#4,996.667,0.333,31,91.91
6667,F5,996.833,0.167,27,91.91
6668,E-5,997.0,0.167,31,91.91
6669,E-5,997.0,1.0,50,91.91
6670,B-3,997.0,0.333,36,91.91
6671,F5,997.167,0.167,27,91.91
6672,E-5,997.333,0.167,31,91.91
6673,G3,997.333,0.333,31,91.91
6674,F5,997.5,0.167,27,91.91
6675,E-5,997.667,0.167,31,91.91
6676,B-3,997.667,0.333,31,91.91
6677,F5,997.833,0.167,27,91.91
6678,E-5,998.0,0.167,32,91.91
6679,G#5,998.0,0.5,53,91.91
6680,C4,998.0,0.333,35,91.91
6681,F5,998.167,0.167,28,91.91
6682,E-5,998.333,0.167,32,91.91
6683,G#3,998.333,0.333,31,91.91
6684,F5,998.5,0.167,28,91.91
6685,E-5,998.667,0.167,34,91.91
6686,C4,998.667,0.333,31,91.91
6687,F5,998.833,0.167,30,91.91
6688,E5,999.0,0.167,35,91.91
6689,C3,999.0,0.5,35,91.91
6690,G3,999.0,0.333,35,91.91
6691,F5,999.167,0.167,31,91.91
6692,E5,999.333,0.167,36,91.91
6693,B-3,999.333,0.333,31,91.91
6694,F5,999.5,0.125,32,91.91
6695,E5,999.625,0.125,38,91.91
6696,G3,999.667,0.333,31,91.91
6697,F5,999.75,0.125,34,91.91
6698,E5,999.865,0.125,34,91.91
6699,F5,1000.0,0.167,36,91.91
6700,F2,1000.0,0.333,45,91.91
6701,G5,1000.167,0.167,31,91.91
6702,F5,1000.333,0.167,33,91.91
6703,C3,1000.333,0.333,31,91.91
6704,G5,1000.5,0.167,29,91.91
6705,F5,1000.667,0.167,32,91.91
6706,F3,1000.667,0.333,31,91.91
6707,G5,1000.833,0.167,28,91.91
6708,C#5,1001.0,0.167,31,91.91
6709,C6,1001.0,1.0,57,91.91
6710,G#3,1001.0,0.333,33,91.91
6711,C5,1001.167,0.167,27,91.91
6712,C#5,1001.333,0.167,31,91.91
6713,F3,1001.333,0.333,31,91.91
6714,C5,1001.5,0.167,27,91.91
6715,C#5,1001.667,0.167,31,91.91
6716,G#3,1001.667,0.333,31,91.91
6717,C5,1001.833,0.167,27,91.91
6718,C#5,1002.0,0.167,32,91.91
6719,C6,1002.0,1.5,59,91.91
6720,C4,1002.0,0.333,35,91.91
6721,C5,1002.167,0.167,28,91.91
6722,C#5,1002.333,0.167,31,91.91
6723,G#3,1002.333,0.333,31,91.91
6724,C5,1002.5,0.167,27,91.91
6725,C#5,1002.667,0.167,31,91.91
6726,C4,1002.667,0.333,31,91.91
6727,C5,1002.833,0.167,27,91.91
6728,C#5,1003.0,0.167,31,91.91
6729,G#3,1003.0,0.333,35,91.91
6730,C5,1003.167,0.167,27,91.91
6731,C#5,1003.333,0.167,31,91.91
6732,F3,1003.333,0.333,31,91.91
6733,C5,1003.5,0.167,27,91.91
6734,G#5,1003.5,0.5,50,91.91
6735,C#5,1003.667,0.167,31,91.91
6736,G#3,1003.667,0.333,31,91.91
6737,C5,1003.833,0.167,27,91.91
6738,C#5,1004.0,0.167,32,91.91
6739,G5,1004.0,1.0,57,91.91
6740,B-3,1004.0,0.333,35,91.91
6741,C5,1004.167,0.167,28,91.91
6742,C#5,1004.333,0.167,31,91.91
6743,G3,1004.333,0.333,31,91.91
6744,C5,1004.5,0.167,27,91.91
6745,C#5,1004.667,0.167,31,91.91
6746,B-3,1004.667,0.333,31,91.91
6747,C5,1004.833,0.167,27,91.91
6748,C#5,1005.0,0.167,31,91.91
6749,C5,1005.0,0.146,50,91.91
6750,G3,1005.0,0.333,36,91.91
6751,C5,1005.167,0.167,27,91.91
6752,C#5,1005.333,0.167,31,91.91
6753,E3,1005.333,0.333,31,91.91
6754,C5,1005.5,0.167,27,91.91
6755,C#5,1005.667,0.167,31,91.91
6756,G3,1005.667,0.333,31,91.91
6757,C5,1005.833,0.167,27,91.91
6758,C#5,1006.0,0.167,32,91.91
6759,F5,1006.0,1.5,57,91.91
6760,G#3,1006.0,0.333,35,91.91
6761,C5,1006.167,0.167,28,91.91
6762,C#5,1006.333,0.167,32,91.91
6763,F3,1006.333,0.333,31,91.91
6764,C5,1006.5,0.167,28,91.91
6765,C#5,1006.667,0.167,34,91.91
6766,G#3,1006.667,0.333,31,91.91
6767,C5,1006.833,0.167,30,91.91
6768,C#5,1007.0,0.167,35,91.91
6769,F3,1007.0,0.333,35,91.91
6770,C5,1007.167,0.167,29,91.91
6771,C#5,1007.333,0.167,34,91.91
6772,C3,1007.333,0.333,31,91.91
6773,C5,1007.5,0.167,29,91.91
6774,G#5,1007.5,0.5,53,91.91
6775,C#5,1007.667,0.167,34,91.91
6776,F3,1007.667,0.333,31,91.91
6777,C5,1007.833,0.167,28,91.91
6778,C#5,1008.0,0.167,32,91.91
6779,G5,1008.0,1.0,57,91.91
6780,B-3,1008.0,0.333,35,91.91
6781,C5,1008.167,0.167,28,91.91
6782,C#5,1008.333,0.167,31,91.91
6783,G3,1008.333,0.333,31,91.91
6784,C5,1008.5,0.167,27,91.91
6785,C#5,1008.667,0.167,31,91.91
6786,B-3,1008.667,0.333,31,91.91
6787,C5,1008.833,0.167,27,91.91
6788,C#5,1009.0,0.167,31,91.91
6789,C5,1009.0,0.146,50,91.91
6790,E3,1009.0,0.333,36,91.91
6791,C5,1009.167,0.167,27,91.91
6792,C#5,1009.333,0.167,31,91.91
6793,G3,1009.333,0.333,31,91.91
6794,C5,1009.5,0.167,27,91.91
6795,C#5,1009.667,0.167,31,91.91
6796,E3,1009.667,0.333,31,91.91
6797,C5,1009.833,0.167,27,91.91
6798,C#5,1010.0,0.167,32,91.91
6799,F5,1010.0,1.0,57,91.91
6800,F3,1010.0,0.333,35,91.91
6801,C5,1010.167,0.167,28,91.91
6802,C#5,1010.333,0.167,32,91.91
6803,G#3,1010.333,0.333,31,91.91
6804,C5,1010.5,0.167,28,91.91
6805,C#5,1010.667,0.167,34,91.91
6806,F3,1010.667,0.333,31,91.91
6807,C5,1010.833,0.167,30,91.91
6808,C#5,1011.0,0.167,34,91.91
6809,E-5,1011.0,1.0,53,91.91
6810,G3,1011.0,0.333,35,91.91
6811,C5,1011.167,0.167,29,91.91
6812,C#5,1011.333,0.167,34,91.91
6813,C4,1011.333,0.333,31,91.91
6814,C5,1011.5,0.167,28,91.91
6815,C#5,1011.667,0.167,34,91.91
6816,G3,1011.667,0.333,31,91.91
6817,C5,1011.833,0.167,29,91.91
6818,D5,1012.0,0.167,32,91.91
6819,F4,1012.0,0.5,40,91.91
6820,G#3,1012.0,0.5,40,91.91
6821,C5,1012.167,0.167,28,91.91
6822,D5,1012.333,0.167,32,91.91
6823,C5,1012.5,0.167,28,91.91
6824,D5,1012.667,0.167,34,91.91
6825,C5,1012.833,0.167,30,91.91
6826,D5,1013.0,0.167,33,91.91
6827,C5,1013.167,0.167,28,91.91
6828,D5,1013.333,0.167,35,91.91
6829,C5,1013.5,0.167,28,91.91
6830,G#3,1013.5,0.5,40,91.91
6831,F4,1013.5,0.5,40,91.91
6832,D5,1013.667,0.167,34,91.91
6833,C5,1013.833,0.167,30,91.91
6834,D5,1014.0,0.167,33,91.91
6835,G#3,1014.0,0.5,44,91.91
6836,F4,1014.0,0.5,44,91.91
6837,C5,1014.167,0.167,29,91.91
6838,D5,1014.333,0.167,33,91.91
6839,C5,1014.5,0.167,29,91.91
6840,D5,1014.667,0.167,36,91.91
6841,C5,1014.833,0.167,32,91.91
6842,D5,1015.0,0.167,37,91.91
6843,C5,1015.167,0.167,33,91.91
6844,D5,1015.333,0.167,36,91.91
6845,C5,1015.5,0.167,31,91.91
6846,G#3,1015.5,0.5,41,91.91
6847,F4,1015.5,0.5,41,91.91
6848,D5,1015.667,0.167,37,91.91
6849,C5,1015.833,0.167,31,91.91
6850,D5,1016.0,0.167,35,91.91
6851,G#3,1016.0,0.5,49,91.91
6852,F#4,1016.0,0.5,49,91.91
6853,C5,1016.167,0.167,30,91.91
6854,D5,1016.333,0.167,35,91.91
6855,C5,1016.5,0.167,31,91.91
6856,D5,1016.667,0.167,37,91.91
6857,C5,1016.833,0.167,33,91.91
6858,D5,1017.0,0.167,39,91.91
6859,C5,1017.167,0.167,34,91.91
6860,D5,1017.333,0.167,39,91.91
6861,C5,1017.5,0.167,36,91.91
6862,G#3,1017.5,0.5,47,91.91
6863,F#4,1017.5,0.5,47,91.91
6864,D5,1017.667,0.167,39,91.91
6865,C5,1017.833,0.167,35,91.91
6866,D5,1018.0,0.167,36,91.91
6867,G#3,1018.0,0.5,52,91.91
6868,F#4,1018.0,0.5,52,91.91
6869,C5,1018.167,0.167,32,91.91
6870,D5,1018.333,0.167,36,91.91
6871,C5,1018.5,0.167,32,91.91
6872,D5,1018.667,0.167,39,91.91
6873,C5,1018.833,0.167,35,91.91
6874,D5,1019.0,0.167,40,91.91
6875,C5,1019.167,0.167,36,91.91
6876,D5,1019.333,0.167,40,91.91
6877,C5,1019.5,0.125,35,91.91
6878,G#3,1019.5,0.5,48,91.91
6879,F#4,1019.5,0.5,48,91.91
6880,D5,1019.625,0.125,40,91.91
6881,C5,1019.75,0.125,34,91.91
6882,D5,1019.875,0.125,34,91.91
6883,C5,1020.0,0.167,38,91.91
6884,G3,1020.0,0.5,56,91.91
6885,G4,1020.0,0.5,56,91.91
6886,D5,1020.167,0.167,33,91.91
6887,E5,1020.333,0.167,39,91.91
6888,D5,1020.5,0.167,34,91.91
6889,G4,1020.5,0.5,57,91.91
6890,C5,1020.5,0.5,57,91.91
6891,E5,1020.667,0.167,42,91.91
6892,D5,1020.833,0.167,37,91.91
6893,E5,1021.0,0.167,44,91.91
6894,G4,1021.0,0.5,59,91.91
6895,C5,1021.0,0.5,59,91.91
6896,D5,1021.167,0.167,39,91.91
6897,E5,1021.333,0.167,43,91.91
6898,D5,1021.5,0.167,37,91.91
6899,G4,1021.5,0.5,60,91.91
6900,C5,1021.5,0.5,60,91.91
6901,E5,1021.667,0.167,45,91.91
6902,D5,1021.833,0.167,40,91.91
6903,E5,1022.0,0.167,42,91.91
6904,G4,1022.0,0.5,62,91.91
6905,C5,1022.0,0.5,62,91.91
6906,D5,1022.167,0.167,37,91.91
6907,E5,1022.333,0.167,42,91.91
6908,D5,1022.5,0.167,37,91.91
6909,G4,1022.5,0.5,63,91.91
6910,C5,1022.5,0.5,63,91.91
6911,E5,1022.667,0.167,46,91.91
6912,D5,1022.833,0.167,41,91.91
6913,E5,1023.0,0.167,48,91.91
6914,G4,1023.0,0.5,64,91.91
6915,C5,1023.0,0.5,64,91.91
6916,D5,1023.167,0.167,43,91.91
6917,E5,1023.333,0.167,49,91.91
6918,D5,1023.5,0.167,40,91.91
6919,G4,1023.5,0.5,66,91.91
6920,C5,1023.5,0.5,66,91.91
6921,E5,1023.667,0.167,49,91.91
6922,D5,1023.833,0.167,42,91.91
6923,E5,1024.0,0.167,46,91.91
6924,G4,1024.0,4.0,68,91.91
6925,C5,1024.0,0.167,46,91.91
6926,D5,1024.167,0.167,40,91.91
6927,B4,1024.167,0.167,40,91.91
6928,E5,1024.333,0.167,47,91.91
6929,C5,1024.333,0.167,47,91.91
6930,D5,1024.5,0.167,41,91.91
6931,G5,1024.5,0.496,63,91.91
6932,B4,1024.5,0.167,41,91.91
6933,E5,1024.667,0.167,49,91.91
6934,C5,1024.667,0.167,50,91.91
6935,D5,1024.833,0.167,45,91.91
6936,B4,1024.833,0.167,45,91.91
6937,E5,1025.0,0.167,52,91.91
6938,G5,1025.0,0.496,64,91.91
6939,C5,1025.0,0.167,52,91.91
6940,D5,1025.167,0.167,47,91.91
6941,B4,1025.167,0.167,44,91.91
6942,E5,1025.333,0.167,53,91.91
6943,C5,1025.333,0.167,52,91.91
6944,D5,1025.5,0.167,43,91.91
6945,G5,1025.5,0.496,66,91.91
6946,B4,1025.5,0.167,43,91.91
6947,E5,1025.667,0.167,52,91.91
6948,C5,1025.667,0.167,54,91.91
6949,D5,1025.833,0.167,53,91.91
6950,B4,1025.833,0.167,45,91.91
6951,E5,1026.0,0.167,50,91.91
6952,G5,1026.0,0.496,68,91.91
6953,C5,1026.0,0.167,50,91.91
6954,D5,1026.167,0.167,44,91.91
6955,B4,1026.167,0.167,44,91.91
6956,E5,1026.333,0.167,50,91.91
6957,C5,1026.333,0.167,50,91.91
6958,D5,1026.5,0.167,44,91.91
6959,G5,1026.5,0.496,69,91.91
6960,B4,1026.5,0.167,44,91.91
6961,E5,1026.667,0.167,54,91.91
6962,C5,1026.667,0.167,54,91.91
6963,D5,1026.833,0.167,48,91.91
6964,B4,1026.833,0.167,48,91.91
6965,E5,1027.0,0.167,58,91.91
6966,G5,1027.0,0.496,71,91.91
6967,C5,1027.0,0.167,55,91.91
6968,D5,1027.167,0.167,47,91.91
6969,B4,1027.167,0.167,44,91.91
6970,E5,1027.333,0.167,56,91.91
6971,C5,1027.333,0.167,54,91.91
6972,D5,1027.5,0.167,48,91.91
6973,G5,1027.5,0.5,72,91.91
6974,B4,1027.5,0.167,48,91.91
6975,E5,1027.667,0.167,58,91.91
6976,C5,1027.667,0.167,56,91.91
6977,D5,1027.833,0.167,48,91.91
6978,B4,1027.833,0.167,50,91.91
6979,C2,1028.0,0.5,85,91.91
6980,C5,1028.0,0.5,97,91.91
6981,E5,1028.0,0.5,97,91.91
6982,G5,1028.5,0.5,75,91.91
6983,G6,1028.5,0.25,75,91.91
6984,C3,1028.5,0.25,69,91.91
6985,E3,1028.5,0.25,69,91.91
6986,G3,1028.5,0.25,69,91.91
6987,C4,1028.5,0.25,69,91.91
6988,G5,1029.0,1.5,75,91.91
6989,G6,1029.0,0.75,79,91.91
6990,C3,1029.0,3.0,66,91.91
6991,E3,1029.0,1.0,70,91.91
6992,G3,1029.0,1.0,70,91.91
6993,C4,1029.0,1.0,70,91.91
6994,E6,1029.75,0.25,75,91.91
6995,D6,1030.0,0.5,81,91.91
6996,F3,1030.0,1.0,73,91.91
6997,G3,1030.0,1.0,73,91.91
6998,B3,1030.0,1.0,73,91.91
6999,G5,1030.5,1.5,75,91.91
7000,C6,1031.0,0.5,75,91.91
7001,E3,1031.0,1.0,69,91.91
7002,G3,1031.0,1.0,69,91.91
7003,C4,1031.0,1.0,69,91.91
7004,E6,1031.5,0.5,73,91.91
7005,C2,1032.0,0.5,48,91.91
7006,G4,1032.5,0.5,50,91.91
7007,G5,1032.5,0.25,50,91.91
7008,C3,1032.5,0.25,38,91.91
7009,E3,1032.5,0.25,38,91.91
7010,G3,1032.5,0.25,38,91.91
7011,C4,1032.5,0.25,38,91.91
7012,G4,1033.0,1.5,50,91.91
7013,G5,1033.0,0.75,53,91.91
7014,C3,1033.0,3.0,37,91.91
7015,E3,1033.0,1.0,39,91.91
7016,G3,1033.0,1.0,39,91.91
7017,C4,1033.0,1.0,39,91.91
7018,E5,1033.75,0.25,50,91.91
7019,D5,1034.0,0.5,54,91.91
7020,F3,1034.0,1.0,41,91.91
7021,G3,1034.0,1.0,41,91.91
7022,B3,1034.0,1.0,41,91.91
7023,G4,1034.5,1.5,50,91.91
7024,C5,1035.0,0.5,50,91.91
7025,E3,1035.0,1.0,39,91.91
7026,G3,1035.0,1.0,39,91.91
7027,C4,1035.0,1.0,39,91.91
7028,E5,1035.5,0.5,49,91.91
7029,C2,1036.0,0.5,85,91.91
7030,G6,1036.5,0.25,75,91.91
7031,C3,1036.5,0.25,69,91.91
7032,E3,1036.5,0.25,69,91.91
7033,G3,1036.5,0.25,69,91.91
7034,C4,1036.5,0.25,69,91.91
7035,F#6,1036.75,0.25,69,91.91
7036,G6,1037.0,0.25,75,91.91
7037,C3,1037.0,3.0,66,91.91
7038,E3,1037.0,1.0,70,91.91
7039,G3,1037.0,1.0,70,91.91
7040,C4,1037.0,1.0,70,91.91
7041,F#6,1037.25,0.25,70,91.91
7042,G6,1037.5,0.25,75,91.91
7043,E6,1037.75,0.25,70,91.91
7044,D6,1038.0,0.25,72,91.91
7045,F3,1038.0,1.0,73,91.91
7046,G3,1038.0,1.0,73,91.91
7047,B3,1038.0,1.0,73,91.91
7048,C#6,1038.25,0.25,64,91.91
7049,D6,1038.5,0.25,72,91.91
7050,G5,1038.75,0.25,67,91.91
7051,C6,1039.0,0.25,72,91.91
7052,E3,1039.0,1.0,69,91.91
7053,G3,1039.0,1.0,69,91.91
7054,C4,1039.0,1.0,69,91.91
7055,B5,1039.25,0.25,66,91.91
7056,C6,1039.5,0.25,75,91.91
7057,E6,1039.75,0.25,69,91.91
7058,C2,1040.0,0.5,48,91.91
7059,G5,1040.5,0.25,50,91.91
7060,C3,1040.5,0.25,38,91.91
7061,E3,1040.5,0.25,38,91.91
7062,G3,1040.5,0.25,38,91.91
7063,C4,1040.5,0.25,38,91.91
7064,F#5,1040.75,0.25,47,91.91
7065,G5,1041.0,0.25,50,91.91
7066,C3,1041.0,3.0,37,91.91
7067,E3,1041.0,1.0,39,91.91
7068,G3,1041.0,1.0,39,91.91
7069,C4,1041.0,1.0,39,91.91
7070,F#5,1041.25,0.25,46,91.91
7071,G5,1041.5,0.25,50,91.91
7072,E5,1041.75,0.25,44,91.91
7073,D5,1042.0,0.25,48,91.91
7074,F3,1042.0,1.0,41,91.91
7075,G3,1042.0,1.0,41,91.91
7076,B3,1042.0,1.0,41,91.91
7077,C#5,1042.25,0.25,45,91.91
7078,D5,1042.5,0.25,49,91.91
7079,G4,1042.75,0.25,45,91.91
7080,C5,1043.0,0.25,49,91.91
7081,E3,1043.0,1.0,39,91.91
7082,G3,1043.0,1.0,39,91.91
7083,C4,1043.0,1.0,39,91.91
7084,B4,1043.25,0.25,46,91.91
7085,C5,1043.5,0.25,49,91.91
7086,E5,1043.75,0.25,46,91.91
7087,D4,1044.0,0.25,50,91.91
7088,C3,1044.0,0.496,38,91.91
7089,F3,1044.0,0.496,38,91.91
7090,C#4,1044.25,0.25,45,91.91
7091,D4,1044.5,0.25,51,91.91
7092,C3,1044.5,0.496,33,91.91
7093,F3,1044.5,0.496,33,91.91
7094,G3,1044.75,0.25,46,91.91
7095,C4,1045.0,0.271,51,91.91
7096,C3,1045.0,0.496,34,91.91
7097,E3,1045.0,0.496,34,91.91
7098,B3,1045.25,0.271,46,91.91
7099,C4,1045.5,0.271,51,91.91
7100,C3,1045.5,0.496,35,91.91
7101,E3,1045.5,0.496,35,91.91
7102,E4,1045.75,0.25,46,91.91
7103,D4,1046.0,0.25,50,91.91
7104,C3,1046.0,0.496,38,91.91
7105,F3,1046.0,0.496,38,91.91
7106,C#4,1046.25,0.25,45,91.91
7107,D4,1046.5,0.25,51,91.91
7108,C3,1046.5,0.496,33,91.91
7109,F3,1046.5,0.496,33,91.91
7110,G3,1046.75,0.25,46,91.91
7111,C4,1047.0,0.271,51,91.91
7112,C3,1047.0,0.496,34,91.91
7113,E3,1047.0,0.496,34,91.91
7114,B3,1047.25,0.271,46,91.91
7115,C4,1047.5,0.271,51,91.91
7116,C3,1047.5,0.496,35,91.91
7117,E3,1047.5,0.496,35,91.91
7118,E4,1047.75,0.25,46,91.91
7119,D4,1048.0,0.25,55,91.91
7120,C3,1048.0,0.496,41,91.91
7121,F3,1048.0,0.496,41,91.91
7122,C#4,1048.25,0.25,49,91.91
7123,D4,1048.5,0.25,57,91.91
7124,F3,1048.5,0.496,35,91.91
7125,C3,1048.5,0.496,35,91.91
7126,G3,1048.5,0.496,35,91.91
7127,B3,1048.75,0.25,52,91.91
7128,F4,1049.0,0.271,59,91.91
7129,D3,1049.0,0.496,37,91.91
7130,F3,1049.0,0.496,37,91.91
7131,G3,1049.0,0.496,37,91.91
7132,C3,1049.0,0.496,37,91.91
7133,B3,1049.0,0.496,37,91.91
7134,E4,1049.25,0.271,54,91.91
7135,F4,1049.5,0.271,61,91.91
7136,D3,1049.5,0.496,39,91.91
7137,F3,1049.5,0.496,39,91.91
7138,G3,1049.5,0.496,39,91.91
7139,C3,1049.5,0.496,39,91.91
7140,B3,1049.5,0.496,39,91.91
7141,D4,1049.75,0.25,56,91.91
7142,B4,1050.0,0.25,62,91.91
7143,D3,1050.0,0.496,44,91.91
7144,F3,1050.0,0.496,44,91.91
7145,G3,1050.0,0.496,44,91.91
7146,C3,1050.0,0.496,44,91.91
7147,B3,1050.0,0.496,44,91.91
7148,B-4,1050.25,0.25,56,91.91
7149,B4,1050.5,0.25,65,91.91
7150,D3,1050.5,0.496,40,91.91
7151,G3,1050.5,0.496,40,91.91
7152,F3,1050.5,0.496,40,91.91
7153,C3,1050.5,0.496,40,91.91
7154,B3,1050.5,0.496,40,91.91
7155,F4,1050.75,0.25,59,91.91
7156,D5,1051.0,0.271,67,91.91
7157,D3,1051.0,0.496,42,91.91
7158,F3,1051.0,0.496,42,91.91
7159,G3,1051.0,0.496,42,91.91
7160,C3,1051.0,0.496,42,91.91
7161,B3,1051.0,0.496,42,91.91
7162,C#5,1051.25,0.271,61,91.91
7163,D5,1051.5,0.271,69,91.91
7164,D3,1051.5,0.496,45,91.91
7165,F3,1051.5,0.496,45,91.91
7166,G3,1051.5,0.496,45,91.91
7167,C3,1051.5,0.496,45,91.91
7168,B3,1051.5,0.496,45,91.91
7169,B4,1051.75,0.25,63,91.91
7170,F5,1052.0,0.25,70,91.91
7171,D3,1052.0,0.496,49,91.91
7172,F3,1052.0,0.496,49,91.91
7173,G3,1052.0,0.496,49,91.91
7174,C3,1052.0,0.496,49,91.91
7175,B3,1052.0,0.496,49,91.91
7176,E5,1052.25,0.25,63,91.91
7177,F5,1052.5,0.25,71,91.91
7178,D3,1052.5,0.496,44,91.91
7179,G3,1052.5,0.496,44,91.91
7180,F3,1052.5,0.496,44,91.91
7181,C3,1052.5,0.496,44,91.91
7182,B3,1052.5,0.496,44,91.91
7183,D5,1052.75,0.25,65,91.91
7184,B5,1053.0,0.271,73,91.91
7185,D3,1053.0,0.496,46,91.91
7186,F3,1053.0,0.496,46,91.91
7187,G3,1053.0,0.496,46,91.91
7188,C3,1053.0,0.496,46,91.91
7189,B3,1053.0,0.496,46,91.91
7190,B-5,1053.25,0.271,66,91.91
7191,B5,1053.5,0.271,73,91.91
7192,D3,1053.5,0.496,47,91.91
7193,F3,1053.5,0.496,47,91.91
7194,G3,1053.5,0.496,47,91.91
7195,C3,1053.5,0.496,47,91.91
7196,B3,1053.5,0.496,47,91.91
7197,F5,1053.75,0.25,67,91.91
7198,D6,1054.0,0.25,74,91.91
7199,D3,1054.0,0.496,51,91.91
7200,F3,1054.0,0.496,51,91.91
7201,G3,1054.0,0.496,51,91.91
7202,C3,1054.0,0.496,51,91.91
7203,B3,1054.0,0.496,51,91.91
7204,C#6,1054.25,0.25,67,91.91
7205,D6,1054.5,0.25,76,91.91
7206,D3,1054.5,0.496,47,91.91
7207,G3,1054.5,0.496,47,91.91
7208,F3,1054.5,0.496,47,91.91
7209,C3,1054.5,0.496,47,91.91
7210,B3,1054.5,0.496,47,91.91
7211,B5,1054.75,0.25,69,91.91
7212,F6,1055.0,0.271,77,91.91
7213,D3,1055.0,0.496,48,91.91
7214,F3,1055.0,0.496,48,91.91
7215,G3,1055.0,0.496,48,91.91
7216,C3,1055.0,0.496,48,91.91
7217,B3,1055.0,0.496,48,91.91
7218,E6,1055.25,0.271,70,91.91
7219,F6,1055.5,0.271,78,91.91
7220,D3,1055.5,0.496,50,91.91
7221,F3,1055.5,0.496,50,91.91
7222,G3,1055.5,0.496,50,91.91
7223,C3,1055.5,0.496,50,91.91
7224,B3,1055.5,0.496,50,91.91
7225,B5,1055.75,0.25,71,91.91
7226,C6,1056.0,0.5,91,91.91
7227,C2,1056.0,0.5,71,91.91
7228,C3,1056.0,0.5,71,91.91
7229,E4,1056.5,0.25,74,91.91
7230,G4,1056.5,0.25,74,91.91
7231,E3,1056.5,0.25,62,91.91
7232,G3,1056.5,0.25,62,91.91
7233,C4,1057.0,0.25,78,91.91
7234,E4,1057.0,0.25,78,91.91
7235,C3,1057.0,0.25,64,91.91
7236,E3,1057.0,0.25,64,91.91
7237,G4,1057.5,0.25,74,91.91
7238,C5,1057.5,0.25,74,91.91
7239,C4,1057.5,0.25,62,91.91
7240,G3,1057.5,0.25,62,91.91
7241,E4,1058.0,0.25,78,91.91
7242,G4,1058.0,0.25,78,91.91
7243,E3,1058.0,0.25,64,91.91
7244,G3,1058.0,0.25,64,91.91
7245,C5,1058.5,0.25,74,91.91
7246,E5,1058.5,0.25,74,91.91
7247,C4,1058.5,0.25,62,91.91
7248,E4,1058.5,0.25,62,91.91
7249,G4,1059.0,0.25,80,91.91
7250,C5,1059.0,0.25,80,91.91
7251,G3,1059.0,0.25,66,91.91
7252,C4,1059.0,0.25,66,91.91
7253,E5,1059.5,0.25,74,91.91
7254,G5,1059.5,0.25,74,91.91
7255,C4,1059.5,0.25,62,91.91
7256,E4,1059.5,0.25,62,91.91
7257,C5,1060.0,0.25,80,91.91
7258,E5,1060.0,0.25,80,91.91
7259,E4,1060.0,0.25,64,91.91
7260,G4,1060.0,0.25,64,91.91
7261,C6,1060.5,0.25,74,91.91
7262,G5,1060.5,0.25,74,91.91
7263,G4,1060.5,0.25,62,91.91
7264,C5,1060.5,0.25,62,91.91
7265,E5,1061.0,0.25,80,91.91
7266,G5,1061.0,0.25,80,91.91
7267,E4,1061.0,0.25,64,91.91
7268,G4,1061.0,0.25,64,91.91
7269,E6,1061.5,0.25,76,91.91
7270,C6,1061.5,0.25,76,91.91
7271,C5,1061.5,0.25,62,91.91
7272,E5,1061.5,0.25,62,91.91
7273,C6,1062.0,0.25,80,91.91
7274,G5,1062.0,0.25,80,91.91
7275,G4,1062.0,0.25,66,91.91
7276,C5,1062.0,0.25,66,91.91
7277,G6,1062.5,0.25,76,91.91
7278,E6,1062.5,0.25,76,91.91
7279,E5,1062.5,0.25,64,91.91
7280,G5,1062.5,0.25,64,91.91
7281,C6,1063.0,0.25,81,91.91
7282,E6,1063.0,0.25,81,91.91
7283,C5,1063.0,0.25,66,91.91
7284,E5,1063.0,0.25,66,91.91
7285,G6,1063.5,0.25,76,91.91
7286,E6,1063.5,0.25,76,91.91
7287,E5,1063.5,0.25,64,91.91
7288,G5,1063.5,0.25,64,91.91
7289,E6,1064.0,0.25,80,91.91
7290,C6,1064.0,0.25,80,91.91
7291,C5,1064.0,0.25,66,91.91
7292,E5,1064.0,0.25,66,91.91
7293,E5,1066.0,0.5,65,91.91
7294,G5,1066.0,0.5,65,91.91
7295,E4,1066.0,0.5,53,91.91
7296,G4,1066.0,0.5,53,91.91
7297,C5,1068.0,0.5,60,91.91
7298,E5,1068.0,0.5,60,91.91
7299,C4,1068.0,0.5,48,91.91
7300,E4,1068.0,0.5,48,91.91
7301,E4,1070.0,0.5,52,91.91
7302,G4,1070.0,0.5,52,91.91
7303,E3,1070.0,0.5,44,91.91
7304,G3,1070.0,0.5,44,91.91
7305,C4,1072.0,0.5,48,91.91
7306,E4,1072.0,0.5,48,91.91
7307,C3,1072.0,0.5,38,91.91
7308,E3,1072.0,0.5,38,91.91
7309,E5,1074.0,0.5,40,91.91
7310,G5,1074.0,0.5,40,91.91
7311,E4,1074.0,0.5,31,91.91
7312,G4,1074.0,0.5,31,91.91
7313,E5,1075.0,0.5,40,91.91
7314,G5,1075.0,0.5,40,91.91
7315,E4,1075.0,0.5,31,91.91
7316,G4,1075.0,0.5,31,91.91
7317,C5,1076.0,0.5,38,91.91
7318,E5,1076.0,0.5,38,91.91
7319,C4,1076.0,0.5,31,91.91
7320,E4,1076.0,0.5,31,91.91
7321,G6,1078.0,0.25,93,91.91
7322,E6,1078.0,0.25,93,91.91
7323,C6,1078.0,0.25,93,91.91
7324,G5,1078.0,0.25,93,91.91
7325,C2,1078.0,0.25,72,91.91
7326,E2,1078.0,0.25,72,91.91
7327,G2,1078.0,0.25,72,91.91
7328,C3,1078.0,0.25,72,91.91
7329,G5,1079.0,0.25,93,91.91
7330,C6,1079.0,0.25,93,91.91
7331,E6,1079.0,0.25,93,91.91
7332,G6,1079.0,0.25,93,91.91
7333,C2,1079.0,0.25,72,91.91
7334,E2,1079.0,0.25,72,91.91
7335,G2,1079.0,0.25,72,91.91
7336,C3,1079.0,0.25,72,91.91
7337,E6,1080.0,0.25,93,91.91
7338,C6,1080.0,0.25,93,91.91
7339,G5,1080.0,0.25,93,91.91
7340,E5,1080.0,0.25,93,91.91
7341,C2,1080.0,0.25,72,91.91
7342,E2,1080.0,0.25,72,91.91
7343,G2,1080.0,0.25,72,91.91
7344,C3,1080.0,0.25,72,91.91
7345,E4,1082.0,0.25,93,91.91
7346,G4,1082.0,0.25,93,91.91
7347,C5,1082.0,0.25,93,91.91
7348,E5,1082.0,0.25,93,91.91
7349,C2,1082.0,0.25,72,91.91
7350,E2,1082.0,0.25,72,91.91
7351,G2,1082.0,0.25,72,91.91
7352,C3,1082.0,0.25,72,91.91
7353,C4,1084.0,0.25,93,91.91
7354,E4,1084.0,0.25,93,91.91
7355,G4,1084.0,0.25,93,91.91
7356,C5,1084.0,0.25,93,91.91
7357,C2,1084.0,0.25,72,91.91
7358,E2,1084.0,0.25,72,91.91
7359,G2,1084.0,0.25,72,91.91
7360,C3,1084.0,0.25,72,91.91
